# generated by roqsim_scenes/tools (world-space, metres, Z-up)
v 12.404772 7.220244 4.021075
v 12.404772 7.220244 4.021075
v 11.289749 7.220244 4.021075
v 11.289749 7.220244 4.021075
v -12.484414 7.220244 4.021075
v -12.484414 7.220244 4.021075
v -12.484414 -7.489752 2.901677
v -12.484414 -7.489752 2.901677
v -12.484414 -7.489752 2.901677
v -12.444337 -7.609027 3.978810
v -12.444337 -7.609027 3.978810
v -12.444337 -7.609027 3.978810
v -12.444337 -7.609027 3.978810
v -12.484414 -7.489752 4.021075
v -12.484414 -7.489752 4.021075
v -12.444337 -7.609027 2.943942
v -12.444337 -7.609027 2.943942
v -12.444337 -7.609027 2.943942
v -11.409467 -7.609027 3.978810
v -11.409467 -7.609027 3.978810
v -11.409467 -7.609027 3.978810
v -11.409467 -7.609027 3.978810
v -11.409467 -7.609027 2.943942
v -11.409467 -7.609027 2.943942
v -11.409467 -7.609027 2.943942
v -11.369388 -7.489752 2.901677
v -11.369388 -7.489752 2.901677
v -11.369388 -7.489752 2.901677
v -11.369388 -7.489752 4.021075
v -11.369388 -7.489752 4.021075
v -11.210269 -7.489752 2.901677
v -11.210269 -7.489752 2.901677
v -11.210269 -7.489752 2.901677
v -11.170191 -7.609027 3.978810
v -11.170191 -7.609027 3.978810
v -11.170191 -7.609027 3.978810
v -11.170191 -7.609027 3.978810
v -11.210269 -7.489752 4.021075
v -11.210269 -7.489752 4.021075
v -11.170191 -7.609027 2.943942
v -11.170191 -7.609027 2.943942
v -11.170191 -7.609027 2.943942
v -10.135324 -7.609027 3.978810
v -10.135324 -7.609027 3.978810
v -10.135324 -7.609027 3.978810
v -10.135324 -7.609027 3.978810
v -10.135324 -7.609027 2.943942
v -10.135324 -7.609027 2.943942
v -10.135324 -7.609027 2.943942
v -10.095244 -7.489752 2.901677
v -10.095244 -7.489752 2.901677
v -10.095244 -7.489752 2.901677
v -10.095244 -7.489752 4.021075
v -10.095244 -7.489752 4.021075
v -12.444337 7.339520 3.978810
v -12.444337 7.339520 3.978810
v -12.444337 7.339520 3.978810
v -12.444337 7.339520 3.978810
v -12.484414 7.220244 2.901677
v -12.484414 7.220244 2.901677
v -12.484414 7.220244 2.901677
v -12.444337 7.339520 2.943942
v -12.444337 7.339520 2.943942
v -12.444337 7.339520 2.943942
v -11.409467 7.339520 3.978810
v -11.409467 7.339520 3.978810
v -11.409467 7.339520 3.978810
v -11.409467 7.339520 3.978810
v -11.369388 7.220244 4.021075
v -11.369388 7.220244 4.021075
v -11.369388 7.220244 2.901677
v -11.369388 7.220244 2.901677
v -11.369388 7.220244 2.901677
v -11.409467 7.339520 2.943942
v -11.409467 7.339520 2.943942
v -11.409467 7.339520 2.943942
v -11.210269 7.220244 4.021075
v -11.210269 7.220244 4.021075
v -11.170191 7.339520 3.978810
v -11.170191 7.339520 3.978810
v -11.170191 7.339520 3.978810
v -11.170191 7.339520 3.978810
v -11.210269 7.220244 2.901677
v -11.210269 7.220244 2.901677
v -11.210269 7.220244 2.901677
v -11.170191 7.339520 2.943942
v -11.170191 7.339520 2.943942
v -11.170191 7.339520 2.943942
v -10.135324 7.339520 3.978810
v -10.135324 7.339520 3.978810
v -10.135324 7.339520 3.978810
v -10.135324 7.339520 3.978810
v -10.095244 7.220244 4.021075
v -10.095244 7.220244 4.021075
v -10.095244 7.220244 2.901677
v -10.095244 7.220244 2.901677
v -10.095244 7.220244 2.901677
v -10.135324 7.339520 2.943942
v -10.135324 7.339520 2.943942
v -10.135324 7.339520 2.943942
v 4.904756 -7.489752 4.021075
v 4.904756 -7.489752 4.021075
v 4.864679 -7.609027 3.978810
v 4.864679 -7.609027 3.978810
v 4.864679 -7.609027 3.978810
v 4.864679 -7.609027 3.978810
v 4.904756 -7.489752 2.901677
v 4.904756 -7.489752 2.901677
v 4.904756 -7.489752 2.901677
v 4.864679 -7.609027 2.943942
v 4.864679 -7.609027 2.943942
v 4.864679 -7.609027 2.943942
v 3.829812 -7.609027 3.978810
v 3.829812 -7.609027 3.978810
v 3.829812 -7.609027 3.978810
v 3.829812 -7.609027 3.978810
v 3.789731 -7.489752 4.021075
v 3.789731 -7.489752 4.021075
v 3.789731 -7.489752 2.901677
v 3.789731 -7.489752 2.901677
v 3.789731 -7.489752 2.901677
v 3.829812 -7.609027 2.943942
v 3.829812 -7.609027 2.943942
v 3.829812 -7.609027 2.943942
v 3.630611 -7.489752 4.021075
v 3.630611 -7.489752 4.021075
v 3.590534 -7.609027 3.978810
v 3.590534 -7.609027 3.978810
v 3.590534 -7.609027 3.978810
v 3.590534 -7.609027 3.978810
v 3.630611 -7.489752 2.901677
v 3.630611 -7.489752 2.901677
v 3.630611 -7.489752 2.901677
v 3.590534 -7.609027 2.943942
v 3.590534 -7.609027 2.943942
v 3.590534 -7.609027 2.943942
v 2.555667 -7.609027 3.978810
v 2.555667 -7.609027 3.978810
v 2.555667 -7.609027 3.978810
v 2.555667 -7.609027 3.978810
v 2.515587 -7.489752 4.021075
v 2.515587 -7.489752 4.021075
v 2.515587 -7.489752 2.901677
v 2.515587 -7.489752 2.901677
v 2.515587 -7.489752 2.901677
v 2.555667 -7.609027 2.943942
v 2.555667 -7.609027 2.943942
v 2.555667 -7.609027 2.943942
v -4.984396 7.220244 4.021075
v -4.984396 7.220244 4.021075
v -4.944319 7.339520 3.978810
v -4.944319 7.339520 3.978810
v -4.944319 7.339520 3.978810
v -4.944319 7.339520 3.978810
v -4.984396 7.220244 2.901677
v -4.984396 7.220244 2.901677
v -4.984396 7.220244 2.901677
v -4.944319 7.339520 2.943942
v -4.944319 7.339520 2.943942
v -4.944319 7.339520 2.943942
v -3.909451 7.339520 3.978810
v -3.909451 7.339520 3.978810
v -3.909451 7.339520 3.978810
v -3.909451 7.339520 3.978810
v -3.869371 7.220244 4.021075
v -3.869371 7.220244 4.021075
v -3.869371 7.220244 2.901677
v -3.869371 7.220244 2.901677
v -3.869371 7.220244 2.901677
v -3.909451 7.339520 2.943942
v -3.909451 7.339520 2.943942
v -3.909451 7.339520 2.943942
v -3.710251 7.220244 4.021075
v -3.710251 7.220244 4.021075
v -3.670174 7.339520 3.978810
v -3.670174 7.339520 3.978810
v -3.670174 7.339520 3.978810
v -3.670174 7.339520 3.978810
v -3.710251 7.220244 2.901677
v -3.710251 7.220244 2.901677
v -3.710251 7.220244 2.901677
v -3.670174 7.339520 2.943942
v -3.670174 7.339520 2.943942
v -3.670174 7.339520 2.943942
v -2.635307 7.339520 3.978810
v -2.635307 7.339520 3.978810
v -2.635307 7.339520 3.978810
v -2.635307 7.339520 3.978810
v -2.595226 7.220244 4.021075
v -2.595226 7.220244 4.021075
v -2.595226 7.220244 2.901677
v -2.595226 7.220244 2.901677
v -2.595226 7.220244 2.901677
v -2.635307 7.339520 2.943942
v -2.635307 7.339520 2.943942
v -2.635307 7.339520 2.943942
v 12.404772 -7.489752 4.021075
v 12.404772 -7.489752 4.021075
v 12.364697 -7.609027 3.978810
v 12.364697 -7.609027 3.978810
v 12.364697 -7.609027 3.978810
v 12.364697 -7.609027 3.978810
v 12.404772 -7.489752 2.901677
v 12.404772 -7.489752 2.901677
v 12.404772 -7.489752 2.901677
v 12.364697 -7.609027 2.943942
v 12.364697 -7.609027 2.943942
v 12.364697 -7.609027 2.943942
v 11.329828 -7.609027 3.978810
v 11.329828 -7.609027 3.978810
v 11.329828 -7.609027 3.978810
v 11.329828 -7.609027 3.978810
v 11.289749 -7.489752 4.021075
v 11.289749 -7.489752 4.021075
v 11.289749 -7.489752 2.901677
v 11.289749 -7.489752 2.901677
v 11.289749 -7.489752 2.901677
v 11.329828 -7.609027 2.943942
v 11.329828 -7.609027 2.943942
v 11.329828 -7.609027 2.943942
v 11.130628 -7.489752 4.021075
v 11.130628 -7.489752 4.021075
v 11.090551 -7.609027 3.978810
v 11.090551 -7.609027 3.978810
v 11.090551 -7.609027 3.978810
v 11.090551 -7.609027 3.978810
v 11.130628 -7.489752 2.901677
v 11.130628 -7.489752 2.901677
v 11.130628 -7.489752 2.901677
v 11.090551 -7.609027 2.943942
v 11.090551 -7.609027 2.943942
v 11.090551 -7.609027 2.943942
v 10.055683 -7.609027 3.978810
v 10.055683 -7.609027 3.978810
v 10.055683 -7.609027 3.978810
v 10.055683 -7.609027 3.978810
v 10.015604 -7.489752 4.021075
v 10.015604 -7.489752 4.021075
v 10.015604 -7.489752 2.901677
v 10.015604 -7.489752 2.901677
v 10.015604 -7.489752 2.901677
v 10.055683 -7.609027 2.943942
v 10.055683 -7.609027 2.943942
v 10.055683 -7.609027 2.943942
v 11.130628 7.220244 2.901677
v 11.130628 7.220244 2.901677
v 11.130628 7.220244 2.901677
v 11.090551 7.339520 3.978810
v 11.090551 7.339520 3.978810
v 11.090551 7.339520 3.978810
v 11.090551 7.339520 3.978810
v 11.130628 7.220244 4.021075
v 11.130628 7.220244 4.021075
v 11.090551 7.339520 2.943942
v 11.090551 7.339520 2.943942
v 11.090551 7.339520 2.943942
v 10.055683 7.339520 3.978810
v 10.055683 7.339520 3.978810
v 10.055683 7.339520 3.978810
v 10.055683 7.339520 3.978810
v 10.055683 7.339520 2.943942
v 10.055683 7.339520 2.943942
v 10.055683 7.339520 2.943942
v 10.015604 7.220244 2.901677
v 10.015604 7.220244 2.901677
v 10.015604 7.220244 2.901677
v 10.015604 7.220244 4.021075
v 10.015604 7.220244 4.021075
v 12.404772 7.220244 2.901677
v 12.404772 7.220244 2.901677
v 12.404772 7.220244 2.901677
v 12.364697 7.339520 3.978810
v 12.364697 7.339520 3.978810
v 12.364697 7.339520 3.978810
v 12.364697 7.339520 3.978810
v 12.364697 7.339520 2.943942
v 12.364697 7.339520 2.943942
v 12.364697 7.339520 2.943942
v 11.329828 7.339520 3.978810
v 11.329828 7.339520 3.978810
v 11.329828 7.339520 3.978810
v 11.329828 7.339520 3.978810
v 11.329828 7.339520 2.943942
v 11.329828 7.339520 2.943942
v 11.329828 7.339520 2.943942
v 11.289749 7.220244 2.901677
v 11.289749 7.220244 2.901677
v 11.289749 7.220244 2.901677
vt 0.370332 0.362561
vt 0.370332 0.362561
vt 0.746527 0.361452
vt 0.746527 0.361452
vt 0.371449 0.739643
vt 0.371449 0.739643
vt 0.371512 0.739641
vt 0.371512 0.739641
vt 0.371512 0.739641
vt 0.402431 0.392543
vt 0.402431 0.392543
vt 0.402431 0.392543
vt 0.402431 0.392543
vt 0.370332 0.362561
vt 0.370332 0.362561
vt 0.401179 0.707127
vt 0.401179 0.707127
vt 0.401179 0.707127
vt 0.716869 0.393962
vt 0.716869 0.393962
vt 0.716869 0.393962
vt 0.716869 0.393962
vt 0.715612 0.708551
vt 0.715612 0.708551
vt 0.715612 0.708551
vt 0.747718 0.738528
vt 0.747718 0.738528
vt 0.747718 0.738528
vt 0.746527 0.361453
vt 0.746527 0.361453
vt 0.371512 0.739641
vt 0.371512 0.739641
vt 0.371512 0.739641
vt 0.402432 0.392543
vt 0.402432 0.392543
vt 0.402432 0.392543
vt 0.402432 0.392543
vt 0.370332 0.362561
vt 0.370332 0.362561
vt 0.401179 0.707127
vt 0.401179 0.707127
vt 0.401179 0.707127
vt 0.716869 0.393962
vt 0.716869 0.393962
vt 0.716869 0.393962
vt 0.716869 0.393962
vt 0.715612 0.708551
vt 0.715612 0.708551
vt 0.715612 0.708551
vt 0.747718 0.738528
vt 0.747718 0.738528
vt 0.747718 0.738528
vt 0.746527 0.361453
vt 0.746527 0.361453
vt 0.403371 0.709471
vt 0.403371 0.709471
vt 0.403371 0.709471
vt 0.403371 0.709471
vt 0.370404 0.362563
vt 0.370404 0.362563
vt 0.370404 0.362563
vt 0.400262 0.394901
vt 0.400262 0.394901
vt 0.400262 0.394901
vt 0.717795 0.706197
vt 0.717795 0.706197
vt 0.717795 0.706197
vt 0.717795 0.706197
vt 0.747644 0.738531
vt 0.747644 0.738531
vt 0.746609 0.361455
vt 0.746609 0.361455
vt 0.746609 0.361455
vt 0.714682 0.391621
vt 0.714682 0.391621
vt 0.714682 0.391621
vt 0.371449 0.739643
vt 0.371449 0.739643
vt 0.403371 0.709471
vt 0.403371 0.709471
vt 0.403371 0.709471
vt 0.403371 0.709471
vt 0.370404 0.362563
vt 0.370404 0.362563
vt 0.370404 0.362563
vt 0.400262 0.394901
vt 0.400262 0.394901
vt 0.400262 0.394901
vt 0.717795 0.706197
vt 0.717795 0.706197
vt 0.717795 0.706197
vt 0.717795 0.706197
vt 0.747644 0.738531
vt 0.747644 0.738531
vt 0.746609 0.361455
vt 0.746609 0.361455
vt 0.746609 0.361455
vt 0.714682 0.391621
vt 0.714682 0.391621
vt 0.714682 0.391621
vt 0.371449 0.739643
vt 0.371449 0.739643
vt 0.403371 0.709472
vt 0.403371 0.709472
vt 0.403371 0.709472
vt 0.403371 0.709472
vt 0.370404 0.362563
vt 0.370404 0.362563
vt 0.370404 0.362563
vt 0.400261 0.394901
vt 0.400261 0.394901
vt 0.400261 0.394901
vt 0.717795 0.706197
vt 0.717795 0.706197
vt 0.717795 0.706197
vt 0.717795 0.706197
vt 0.747644 0.738531
vt 0.747644 0.738531
vt 0.746609 0.361455
vt 0.746609 0.361455
vt 0.746609 0.361455
vt 0.714682 0.391621
vt 0.714682 0.391621
vt 0.714682 0.391621
vt 0.371449 0.739643
vt 0.371449 0.739643
vt 0.403371 0.709472
vt 0.403371 0.709472
vt 0.403371 0.709472
vt 0.403371 0.709472
vt 0.370404 0.362563
vt 0.370404 0.362563
vt 0.370404 0.362563
vt 0.400262 0.394901
vt 0.400262 0.394901
vt 0.400262 0.394901
vt 0.717795 0.706197
vt 0.717795 0.706197
vt 0.717795 0.706197
vt 0.717795 0.706197
vt 0.747644 0.738531
vt 0.747644 0.738531
vt 0.746609 0.361455
vt 0.746609 0.361455
vt 0.746609 0.361455
vt 0.714682 0.391621
vt 0.714682 0.391621
vt 0.714682 0.391621
vt 0.371449 0.739643
vt 0.371449 0.739643
vt 0.403371 0.709472
vt 0.403371 0.709472
vt 0.403371 0.709472
vt 0.403371 0.709472
vt 0.370404 0.362563
vt 0.370404 0.362563
vt 0.370404 0.362563
vt 0.400262 0.394901
vt 0.400262 0.394901
vt 0.400262 0.394901
vt 0.717795 0.706197
vt 0.717795 0.706197
vt 0.717795 0.706197
vt 0.717795 0.706197
vt 0.747644 0.738531
vt 0.747644 0.738531
vt 0.746609 0.361455
vt 0.746609 0.361455
vt 0.746609 0.361455
vt 0.714682 0.391621
vt 0.714682 0.391621
vt 0.714682 0.391621
vt 0.371449 0.739643
vt 0.371449 0.739643
vt 0.403371 0.709472
vt 0.403371 0.709472
vt 0.403371 0.709472
vt 0.403371 0.709472
vt 0.370404 0.362563
vt 0.370404 0.362563
vt 0.370404 0.362563
vt 0.400262 0.394901
vt 0.400262 0.394901
vt 0.400262 0.394901
vt 0.717795 0.706197
vt 0.717795 0.706197
vt 0.717795 0.706197
vt 0.717795 0.706197
vt 0.747644 0.738531
vt 0.747644 0.738531
vt 0.746609 0.361455
vt 0.746609 0.361455
vt 0.746609 0.361455
vt 0.714682 0.391621
vt 0.714682 0.391621
vt 0.714682 0.391621
vt 0.371449 0.739643
vt 0.371449 0.739643
vt 0.403371 0.709472
vt 0.403371 0.709472
vt 0.403371 0.709472
vt 0.403371 0.709472
vt 0.370404 0.362563
vt 0.370404 0.362563
vt 0.370404 0.362563
vt 0.400262 0.394901
vt 0.400262 0.394901
vt 0.400262 0.394901
vt 0.717795 0.706197
vt 0.717795 0.706197
vt 0.717795 0.706197
vt 0.717795 0.706197
vt 0.747644 0.738531
vt 0.747644 0.738531
vt 0.746609 0.361455
vt 0.746609 0.361455
vt 0.746609 0.361455
vt 0.714682 0.391621
vt 0.714682 0.391621
vt 0.714682 0.391621
vt 0.371449 0.739643
vt 0.371449 0.739643
vt 0.403371 0.709472
vt 0.403371 0.709472
vt 0.403371 0.709472
vt 0.403371 0.709472
vt 0.370404 0.362563
vt 0.370404 0.362563
vt 0.370404 0.362563
vt 0.400262 0.394901
vt 0.400262 0.394901
vt 0.400262 0.394901
vt 0.717795 0.706197
vt 0.717795 0.706197
vt 0.717795 0.706197
vt 0.717795 0.706197
vt 0.747644 0.738531
vt 0.747644 0.738531
vt 0.746609 0.361455
vt 0.746609 0.361455
vt 0.746609 0.361455
vt 0.714682 0.391621
vt 0.714682 0.391621
vt 0.714682 0.391621
vt 0.371560 0.739681
vt 0.371560 0.739681
vt 0.371560 0.739681
vt 0.402394 0.392634
vt 0.402394 0.392634
vt 0.402394 0.392634
vt 0.402394 0.392634
vt 0.370275 0.362673
vt 0.370275 0.362673
vt 0.401222 0.707172
vt 0.401222 0.707172
vt 0.401222 0.707172
vt 0.716863 0.393967
vt 0.716863 0.393967
vt 0.716863 0.393967
vt 0.716863 0.393967
vt 0.715635 0.708590
vt 0.715635 0.708590
vt 0.715635 0.708590
vt 0.747739 0.738569
vt 0.747739 0.738569
vt 0.747739 0.738569
vt 0.746491 0.361415
vt 0.746491 0.361415
vt 0.371512 0.739641
vt 0.371512 0.739641
vt 0.371512 0.739641
vt 0.402431 0.392543
vt 0.402431 0.392543
vt 0.402431 0.392543
vt 0.402431 0.392543
vt 0.401179 0.707127
vt 0.401179 0.707127
vt 0.401179 0.707127
vt 0.716869 0.393962
vt 0.716869 0.393962
vt 0.716869 0.393962
vt 0.716869 0.393962
vt 0.715612 0.708551
vt 0.715612 0.708551
vt 0.715612 0.708551
vt 0.747718 0.738528
vt 0.747718 0.738528
vt 0.747718 0.738528
f 7/7 14/14 10/10
f 8/8 11/11 16/16
f 19/19 26/26 23/23
f 27/27 20/20 29/29
f 31/31 38/38 34/34
f 32/32 35/35 40/40
f 43/43 50/50 47/47
f 51/51 44/44 53/53
f 5/5 59/59 55/55
f 56/56 60/60 62/62
f 65/65 71/71 69/69
f 72/72 66/66 74/74
f 77/77 83/83 79/79
f 80/80 84/84 86/86
f 89/89 95/95 93/93
f 96/96 90/90 98/98
f 101/101 107/107 103/103
f 104/104 108/108 110/110
f 113/113 119/119 117/117
f 120/120 114/114 122/122
f 125/125 131/131 127/127
f 128/128 132/132 134/134
f 137/137 143/143 141/141
f 144/144 138/138 146/146
f 149/149 155/155 151/151
f 152/152 156/156 158/158
f 161/161 167/167 165/165
f 168/168 162/162 170/170
f 173/173 179/179 175/175
f 176/176 180/180 182/182
f 185/185 191/191 189/189
f 192/192 186/186 194/194
f 197/197 203/203 199/199
f 200/200 204/204 206/206
f 209/209 215/215 213/213
f 216/216 210/210 218/218
f 221/221 227/227 223/223
f 224/224 228/228 230/230
f 233/233 239/239 237/237
f 240/240 234/234 242/242
f 245/245 252/252 248/248
f 246/246 249/249 254/254
f 257/257 264/264 261/261
f 265/265 258/258 267/267
f 269/269 1/1 272/272
f 270/270 273/273 276/276
f 279/279 286/286 283/283
f 287/287 280/280 3/3
f 21/21 12/12 15/15
f 21/21 15/15 30/30
f 9/9 24/24 28/28
f 24/24 9/9 17/17
f 13/13 22/22 25/25
f 13/13 25/25 18/18
f 45/45 36/36 39/39
f 45/45 39/39 54/54
f 33/33 48/48 52/52
f 48/48 33/33 41/41
f 37/37 46/46 49/49
f 37/37 49/49 42/42
f 6/6 67/67 70/70
f 67/67 6/6 57/57
f 61/61 75/75 63/63
f 75/75 61/61 73/73
f 58/58 76/76 68/68
f 76/76 58/58 64/64
f 78/78 91/91 94/94
f 91/91 78/78 81/81
f 85/85 99/99 87/87
f 99/99 85/85 97/97
f 82/82 100/100 92/92
f 100/100 82/82 88/88
f 118/118 102/102 115/115
f 115/115 102/102 105/105
f 123/123 109/109 121/121
f 109/109 123/123 111/111
f 106/106 124/124 116/116
f 124/124 106/106 112/112
f 142/142 126/126 139/139
f 139/139 126/126 129/129
f 147/147 133/133 145/145
f 133/133 147/147 135/135
f 130/130 148/148 140/140
f 148/148 130/130 136/136
f 150/150 163/163 166/166
f 163/163 150/150 153/153
f 157/157 171/171 159/159
f 171/171 157/157 169/169
f 154/154 172/172 164/164
f 172/172 154/154 160/160
f 174/174 187/187 190/190
f 187/187 174/174 177/177
f 181/181 195/195 183/183
f 195/195 181/181 193/193
f 178/178 196/196 188/188
f 196/196 178/178 184/184
f 214/214 198/198 211/211
f 211/211 198/198 201/201
f 219/219 205/205 217/217
f 205/205 219/219 207/207
f 202/202 220/220 212/212
f 220/220 202/202 208/208
f 238/238 222/222 235/235
f 235/235 222/222 225/225
f 243/243 229/229 241/241
f 229/229 243/243 231/231
f 226/226 244/244 236/236
f 244/244 226/226 232/232
f 253/253 268/268 259/259
f 253/253 259/259 250/250
f 247/247 262/262 266/266
f 262/262 247/247 255/255
f 251/251 260/260 263/263
f 251/251 263/263 256/256
f 2/2 4/4 281/281
f 2/2 281/281 274/274
f 271/271 284/284 288/288
f 284/284 271/271 277/277
f 275/275 282/282 285/285
f 275/275 285/285 278/278
