# generated by roqsim_scenes/tools (world-space, metres, Z-up)
v 5.378431 -0.820536 6.025956
v 5.378431 -0.820536 6.025956
v 5.378431 -0.820536 6.025956
v 4.741977 0.281836 6.025956
v 4.741977 0.281836 6.025956
v 4.741977 0.281836 6.025956
v 4.652041 0.229910 6.025956
v 4.652041 0.229910 6.025956
v 4.652041 0.229910 6.025956
v 5.288495 -0.872461 6.025956
v 5.288495 -0.872461 6.025956
v 5.288495 -0.872461 6.025956
v 4.741977 0.281836 6.042106
v 4.741977 0.281836 6.042106
v 4.741977 0.281836 6.042106
v 5.378431 -0.820536 6.042106
v 5.378431 -0.820536 6.042106
v 5.378431 -0.820536 6.042106
v 4.652041 0.229910 6.042106
v 4.652041 0.229910 6.042106
v 4.652041 0.229910 6.042106
v 5.288495 -0.872461 6.042106
v 5.288495 -0.872461 6.042106
v 5.288495 -0.872461 6.042106
vt 0.805113 0.910946
vt 0.972265 0.674665
vt 0.972265 0.674665
vt 0.808398 0.680672
vt 0.972265 0.892479
vt 0.972265 0.664406
vt 0.789611 0.680405
vt 0.972265 0.674665
vt 0.972265 0.674665
vt 0.786326 0.910678
vt 0.972265 0.892479
vt 0.972265 0.664406
vt 0.969074 0.892479
vt 0.789611 0.680404
vt 0.969074 0.664406
vt 0.969074 0.674665
vt 0.786326 0.910678
vt 0.969074 0.674665
vt 0.808398 0.680673
vt 0.969074 0.674665
vt 0.969074 0.674665
vt 0.805113 0.910946
vt 0.969074 0.892479
vt 0.969074 0.664406
f 1/1 7/7 4/4
f 7/7 1/1 10/10
f 13/13 2/2 5/5
f 2/2 13/13 16/16
f 19/19 22/22 17/17
f 19/19 17/17 14/14
f 8/8 11/11 23/23
f 8/8 23/23 20/20
f 21/21 15/15 9/9
f 6/6 9/9 15/15
f 3/3 24/24 12/12
f 24/24 3/3 18/18
