# generated by roqsim_scenes/tools (world-space, metres, Z-up)
v 4.529670 -0.442310 6.005133
v 4.529670 -0.442310 6.005133
v 4.529670 -0.442310 6.005133
v 1.850828 -0.294126 6.009825
v 1.850828 -0.294126 6.009825
v 1.850828 -0.294126 6.009825
v 1.850828 -0.442310 6.005133
v 1.850828 -0.442310 6.005133
v 1.850828 -0.442310 6.005133
v 4.529670 -0.294126 6.009825
v 4.529670 -0.294126 6.009825
v 4.529670 -0.294126 6.009825
v 1.850828 -0.150407 5.973426
v 1.850828 -0.150407 5.973426
v 1.850828 -0.150407 5.973426
v 4.529670 -0.150407 5.973426
v 4.529670 -0.150407 5.973426
v 4.529670 -0.150407 5.973426
v 4.529670 -0.440218 6.024387
v 4.529670 -0.440218 6.024387
v 4.529670 -0.440218 6.024387
v 1.850828 -0.440218 6.024387
v 1.850828 -0.440218 6.024387
v 1.850828 -0.440218 6.024387
v 4.529670 -0.292034 6.029080
v 4.529670 -0.292034 6.029080
v 4.529670 -0.292034 6.029080
v 1.850828 -0.292034 6.029080
v 1.850828 -0.292034 6.029080
v 1.850828 -0.292034 6.029080
v 4.529670 -0.148316 5.992680
v 4.529670 -0.148316 5.992680
v 4.529670 -0.148316 5.992680
v 1.850828 -0.148316 5.992680
v 1.850828 -0.148316 5.992680
v 1.850828 -0.148316 5.992680
vt 0.176003 0.012918
vt 0.230821 0.002780
vt 0.211779 0.016317
vt 0.146980 0.497453
vt 0.146980 0.497453
vt 0.209258 0.043019
vt 0.173803 0.497575
vt 0.235016 0.487417
vt 0.214207 0.069379
vt 0.149180 0.012797
vt 0.149180 0.012797
vt 0.209258 0.043019
vt 0.120158 0.497331
vt 0.238520 0.487387
vt 0.211779 0.016317
vt 0.122357 0.012675
vt 0.234325 0.002749
vt 0.214207 0.069379
vt 0.234325 0.002749
vt 0.122357 0.012675
vt 0.208279 0.016478
vt 0.238520 0.487387
vt 0.120158 0.497331
vt 0.210707 0.069539
vt 0.149180 0.012797
vt 0.149180 0.012797
vt 0.205758 0.043179
vt 0.146981 0.497453
vt 0.146981 0.497453
vt 0.205758 0.043179
vt 0.176003 0.012918
vt 0.230821 0.002779
vt 0.210707 0.069539
vt 0.173803 0.497575
vt 0.235016 0.487417
vt 0.208279 0.016477
f 1/1 7/7 4/4
f 1/1 4/4 10/10
f 11/11 5/5 13/13
f 11/11 13/13 16/16
f 19/19 8/8 2/2
f 8/8 19/19 22/22
f 25/25 23/23 20/20
f 25/25 28/28 23/23
f 31/31 29/29 26/26
f 31/31 34/34 29/29
f 17/17 14/14 35/35
f 17/17 35/35 32/32
f 3/3 12/12 21/21
f 27/27 21/21 12/12
f 12/12 33/33 27/27
f 33/33 12/12 18/18
f 24/24 6/6 9/9
f 6/6 24/24 30/30
f 30/30 36/36 6/6
f 6/6 36/36 15/15
