# generated by roqsim_scenes/tools (world-space, metres, Z-up)
v -7.539822 7.026220 4.687957
v -7.539822 7.026220 4.687957
v -7.539822 7.026220 4.687957
v -7.539822 7.026220 4.687957
v -15.039823 7.026220 4.202275
v -15.039823 7.026220 4.202275
v -15.039823 7.026220 4.687957
v -15.039823 7.026220 4.687957
v -7.539822 7.026220 4.202275
v -7.539822 7.026220 4.202275
v -7.539822 7.026220 4.202275
v -7.539822 7.026220 4.202275
v -15.039823 7.365251 4.687957
v -7.539822 7.365251 4.687957
v -7.539822 7.365251 4.687957
v -7.539822 7.365251 4.202275
v -7.539822 7.365251 4.202275
v -15.039823 7.365251 4.202275
v -0.039821 7.026220 4.687957
v -0.039821 7.026220 4.687957
v -0.039821 7.026220 4.687957
v -0.039821 7.026220 4.687957
v -0.039821 7.026220 4.202275
v -0.039821 7.026220 4.202275
v -0.039821 7.026220 4.202275
v -0.039821 7.026220 4.202275
v -0.039821 7.365251 4.687957
v -0.039821 7.365251 4.687957
v -0.039821 7.365251 4.202275
v -0.039821 7.365251 4.202275
v 7.460179 7.026220 4.687957
v 7.460179 7.026220 4.687957
v 7.460179 7.026220 4.687957
v 7.460179 7.026220 4.687957
v 14.960180 7.026220 4.687957
v 14.960180 7.026220 4.687957
v 14.960180 7.026220 4.202275
v 14.960180 7.026220 4.202275
v 7.460179 7.026220 4.202275
v 7.460179 7.026220 4.202275
v 7.460179 7.026220 4.202275
v 7.460179 7.026220 4.202275
v 14.960180 7.365251 4.687957
v 7.460179 7.365251 4.687957
v 7.460179 7.365251 4.687957
v 7.460179 7.365251 4.202275
v 7.460179 7.365251 4.202275
v 14.960180 7.365251 4.202275
v -7.539822 -7.295729 4.687957
v -7.539822 -7.295729 4.687957
v -7.539822 -7.295729 4.687957
v -7.539822 -7.295729 4.687957
v -15.039823 -7.295729 4.687957
v -15.039823 -7.295729 4.687957
v -15.039823 -7.295729 4.202275
v -15.039823 -7.295729 4.202275
v -7.539822 -7.295729 4.202275
v -7.539822 -7.295729 4.202275
v -7.539822 -7.295729 4.202275
v -7.539822 -7.295729 4.202275
v -15.039823 -7.634758 4.687957
v -7.539822 -7.634758 4.687957
v -7.539822 -7.634758 4.687957
v -15.039823 -7.634758 4.202275
v -7.539822 -7.634758 4.202275
v -7.539822 -7.634758 4.202275
v -0.039821 -7.295729 4.202275
v -0.039821 -7.295729 4.202275
v -0.039821 -7.295729 4.202275
v -0.039821 -7.295729 4.202275
v -0.039821 -7.295729 4.687957
v -0.039821 -7.295729 4.687957
v -0.039821 -7.295729 4.687957
v -0.039821 -7.295729 4.687957
v -0.039821 -7.634758 4.687957
v -0.039821 -7.634758 4.687957
v -0.039821 -7.634758 4.202275
v -0.039821 -7.634758 4.202275
v 7.460179 -7.295729 4.687957
v 7.460179 -7.295729 4.687957
v 7.460179 -7.295729 4.687957
v 7.460179 -7.295729 4.687957
v 14.960180 -7.295729 4.202275
v 14.960180 -7.295729 4.202275
v 14.960180 -7.295729 4.687957
v 14.960180 -7.295729 4.687957
v 7.460179 -7.295729 4.202275
v 7.460179 -7.295729 4.202275
v 7.460179 -7.295729 4.202275
v 7.460179 -7.295729 4.202275
v 7.460179 -7.634758 4.687957
v 7.460179 -7.634758 4.687957
v 14.960180 -7.634758 4.687957
v 7.460179 -7.634758 4.202275
v 7.460179 -7.634758 4.202275
v 14.960180 -7.634758 4.202275
v -0.166378 7.112137 11.212662
v -0.166378 7.112137 11.212662
v -0.166378 7.112137 11.212662
v 0.086737 7.112137 11.212662
v 0.086737 7.112137 11.212662
v 0.086737 7.112137 11.212662
v -0.166378 7.112137 5.606558
v -0.166378 7.112137 5.606558
v -0.166378 7.112137 5.606558
v -0.166378 7.112137 5.606558
v 0.086737 7.112137 5.606558
v 0.086737 7.112137 5.606558
v 0.086737 7.112137 5.606558
v 0.086737 7.112137 5.606558
v -0.166378 7.112137 0.000455
v -0.166378 7.112137 0.000455
v -0.166378 7.112137 0.000455
v 0.086737 7.112137 0.000455
v 0.086737 7.112137 0.000455
v 0.086737 7.112137 0.000455
v -0.166378 7.365251 0.000455
v -0.166378 7.365251 0.000455
v 0.086737 7.365251 0.000455
v 0.086737 7.365251 0.000455
v -0.166378 7.365251 5.606558
v -0.166378 7.365251 5.606558
v -0.166378 7.365251 11.212662
v -0.166378 7.365251 11.212662
v 0.086737 7.365251 11.212662
v 0.086737 7.365251 11.212662
v 0.086737 7.365251 5.606558
v 0.086737 7.365251 5.606558
v -15.039823 7.112137 11.212662
v -15.039823 7.112137 11.212662
v -15.039823 7.112137 11.212662
v -14.786708 7.112137 11.212662
v -14.786708 7.112137 11.212662
v -14.786708 7.112137 11.212662
v -15.039823 7.112137 5.606558
v -15.039823 7.112137 5.606558
v -15.039823 7.112137 5.606558
v -15.039823 7.112137 5.606558
v -14.786708 7.112137 5.606558
v -14.786708 7.112137 5.606558
v -14.786708 7.112137 5.606558
v -14.786708 7.112137 5.606558
v -15.039823 7.112137 0.000455
v -15.039823 7.112137 0.000455
v -15.039823 7.112137 0.000455
v -14.786708 7.112137 0.000455
v -14.786708 7.112137 0.000455
v -14.786708 7.112137 0.000455
v -15.039823 7.365251 0.000455
v -15.039823 7.365251 0.000455
v -14.786708 7.365251 0.000455
v -14.786708 7.365251 0.000455
v -15.039823 7.365251 5.606558
v -15.039823 7.365251 5.606558
v -15.039823 7.365251 11.212662
v -15.039823 7.365251 11.212662
v -14.786708 7.365251 11.212662
v -14.786708 7.365251 11.212662
v -14.786708 7.365251 5.606558
v -14.786708 7.365251 5.606558
v -7.666378 7.112137 11.212662
v -7.666378 7.112137 11.212662
v -7.666378 7.112137 11.212662
v -7.413263 7.112137 11.212662
v -7.413263 7.112137 11.212662
v -7.413263 7.112137 11.212662
v -7.666378 7.112137 5.606558
v -7.666378 7.112137 5.606558
v -7.666378 7.112137 5.606558
v -7.666378 7.112137 5.606558
v -7.413263 7.112137 5.606558
v -7.413263 7.112137 5.606558
v -7.413263 7.112137 5.606558
v -7.413263 7.112137 5.606558
v -7.666378 7.112137 0.000455
v -7.666378 7.112137 0.000455
v -7.666378 7.112137 0.000455
v -7.413263 7.112137 0.000455
v -7.413263 7.112137 0.000455
v -7.413263 7.112137 0.000455
v -7.666378 7.365251 0.000455
v -7.666378 7.365251 0.000455
v -7.413263 7.365251 0.000455
v -7.413263 7.365251 0.000455
v -7.666378 7.365251 5.606558
v -7.666378 7.365251 5.606558
v -7.666378 7.365251 11.212662
v -7.666378 7.365251 11.212662
v -7.413263 7.365251 11.212662
v -7.413263 7.365251 11.212662
v -7.413263 7.365251 5.606558
v -7.413263 7.365251 5.606558
v 14.960180 7.112137 5.606558
v 14.960180 7.112137 5.606558
v 14.960180 7.112137 5.606558
v 14.960180 7.112137 5.606558
v 14.707066 7.112137 11.212662
v 14.707066 7.112137 11.212662
v 14.707066 7.112137 11.212662
v 14.960180 7.112137 11.212662
v 14.960180 7.112137 11.212662
v 14.960180 7.112137 11.212662
v 14.707066 7.112137 5.606558
v 14.707066 7.112137 5.606558
v 14.707066 7.112137 5.606558
v 14.707066 7.112137 5.606558
v 14.960180 7.112137 0.000455
v 14.960180 7.112137 0.000455
v 14.960180 7.112137 0.000455
v 14.960180 7.365251 0.000455
v 14.960180 7.365251 0.000455
v 14.707066 7.112137 0.000455
v 14.707066 7.112137 0.000455
v 14.707066 7.112137 0.000455
v 14.707066 7.365251 0.000455
v 14.707066 7.365251 0.000455
v 14.960180 7.365251 5.606558
v 14.960180 7.365251 5.606558
v 14.960180 7.365251 11.212662
v 14.960180 7.365251 11.212662
v 14.707066 7.365251 11.212662
v 14.707066 7.365251 11.212662
v 14.707066 7.365251 5.606558
v 14.707066 7.365251 5.606558
v 7.586737 7.112137 5.606558
v 7.586737 7.112137 5.606558
v 7.586737 7.112137 5.606558
v 7.586737 7.112137 5.606558
v 7.333622 7.112137 11.212662
v 7.333622 7.112137 11.212662
v 7.333622 7.112137 11.212662
v 7.586737 7.112137 11.212662
v 7.586737 7.112137 11.212662
v 7.586737 7.112137 11.212662
v 7.333622 7.112137 5.606558
v 7.333622 7.112137 5.606558
v 7.333622 7.112137 5.606558
v 7.333622 7.112137 5.606558
v 7.586737 7.112137 0.000455
v 7.586737 7.112137 0.000455
v 7.586737 7.112137 0.000455
v 7.586737 7.365251 0.000455
v 7.586737 7.365251 0.000455
v 7.333622 7.112137 0.000455
v 7.333622 7.112137 0.000455
v 7.333622 7.112137 0.000455
v 7.333622 7.365251 0.000455
v 7.333622 7.365251 0.000455
v 7.586737 7.365251 5.606558
v 7.586737 7.365251 5.606558
v 7.586737 7.365251 11.212662
v 7.586737 7.365251 11.212662
v 7.333622 7.365251 11.212662
v 7.333622 7.365251 11.212662
v 7.333622 7.365251 5.606558
v 7.333622 7.365251 5.606558
v -0.166378 -7.381644 5.606558
v -0.166378 -7.381644 5.606558
v -0.166378 -7.381644 5.606558
v -0.166378 -7.381644 5.606558
v 0.086737 -7.381644 11.212662
v 0.086737 -7.381644 11.212662
v 0.086737 -7.381644 11.212662
v -0.166378 -7.381644 11.212662
v -0.166378 -7.381644 11.212662
v -0.166378 -7.381644 11.212662
v 0.086737 -7.381644 5.606558
v 0.086737 -7.381644 5.606558
v 0.086737 -7.381644 5.606558
v 0.086737 -7.381644 5.606558
v -0.166378 -7.634758 0.000455
v -0.166378 -7.634758 0.000455
v 0.086737 -7.634758 0.000455
v 0.086737 -7.634758 0.000455
v 0.086737 -7.381644 0.000455
v 0.086737 -7.381644 0.000455
v 0.086737 -7.381644 0.000455
v -0.166378 -7.381644 0.000455
v -0.166378 -7.381644 0.000455
v -0.166378 -7.381644 0.000455
v -0.166378 -7.634758 5.606558
v -0.166378 -7.634758 5.606558
v -0.166378 -7.634758 11.212662
v -0.166378 -7.634758 11.212662
v 0.086737 -7.634758 11.212662
v 0.086737 -7.634758 11.212662
v 0.086737 -7.634758 5.606558
v 0.086737 -7.634758 5.606558
v -15.039823 -7.381644 5.606558
v -15.039823 -7.381644 5.606558
v -15.039823 -7.381644 5.606558
v -15.039823 -7.381644 5.606558
v -14.786708 -7.381644 11.212662
v -14.786708 -7.381644 11.212662
v -14.786708 -7.381644 11.212662
v -15.039823 -7.381644 11.212662
v -15.039823 -7.381644 11.212662
v -15.039823 -7.381644 11.212662
v -14.786708 -7.381644 5.606558
v -14.786708 -7.381644 5.606558
v -14.786708 -7.381644 5.606558
v -14.786708 -7.381644 5.606558
v -15.039823 -7.634758 0.000455
v -15.039823 -7.634758 0.000455
v -14.786708 -7.634758 0.000455
v -14.786708 -7.634758 0.000455
v -14.786708 -7.381644 0.000455
v -14.786708 -7.381644 0.000455
v -14.786708 -7.381644 0.000455
v -15.039823 -7.381644 0.000455
v -15.039823 -7.381644 0.000455
v -15.039823 -7.381644 0.000455
v -15.039823 -7.634758 5.606558
v -15.039823 -7.634758 5.606558
v -15.039823 -7.634758 11.212662
v -15.039823 -7.634758 11.212662
v -14.786708 -7.634758 11.212662
v -14.786708 -7.634758 11.212662
v -14.786708 -7.634758 5.606558
v -14.786708 -7.634758 5.606558
v -7.666378 -7.381644 5.606558
v -7.666378 -7.381644 5.606558
v -7.666378 -7.381644 5.606558
v -7.666378 -7.381644 5.606558
v -7.413263 -7.381644 11.212662
v -7.413263 -7.381644 11.212662
v -7.413263 -7.381644 11.212662
v -7.666378 -7.381644 11.212662
v -7.666378 -7.381644 11.212662
v -7.666378 -7.381644 11.212662
v -7.413263 -7.381644 5.606558
v -7.413263 -7.381644 5.606558
v -7.413263 -7.381644 5.606558
v -7.413263 -7.381644 5.606558
v -7.666378 -7.634758 0.000455
v -7.666378 -7.634758 0.000455
v -7.413263 -7.634758 0.000455
v -7.413263 -7.634758 0.000455
v -7.413263 -7.381644 0.000455
v -7.413263 -7.381644 0.000455
v -7.413263 -7.381644 0.000455
v -7.666378 -7.381644 0.000455
v -7.666378 -7.381644 0.000455
v -7.666378 -7.381644 0.000455
v -7.666378 -7.634758 5.606558
v -7.666378 -7.634758 5.606558
v -7.666378 -7.634758 11.212662
v -7.666378 -7.634758 11.212662
v -7.413263 -7.634758 11.212662
v -7.413263 -7.634758 11.212662
v -7.413263 -7.634758 5.606558
v -7.413263 -7.634758 5.606558
v 14.960180 -7.381644 11.212662
v 14.960180 -7.381644 11.212662
v 14.960180 -7.381644 11.212662
v 14.707066 -7.381644 11.212662
v 14.707066 -7.381644 11.212662
v 14.707066 -7.381644 11.212662
v 14.960180 -7.381644 5.606558
v 14.960180 -7.381644 5.606558
v 14.960180 -7.381644 5.606558
v 14.960180 -7.381644 5.606558
v 14.707066 -7.381644 5.606558
v 14.707066 -7.381644 5.606558
v 14.707066 -7.381644 5.606558
v 14.707066 -7.381644 5.606558
v 14.960180 -7.634758 0.000455
v 14.960180 -7.634758 0.000455
v 14.707066 -7.381644 0.000455
v 14.707066 -7.381644 0.000455
v 14.707066 -7.381644 0.000455
v 14.707066 -7.634758 0.000455
v 14.707066 -7.634758 0.000455
v 14.960180 -7.381644 0.000455
v 14.960180 -7.381644 0.000455
v 14.960180 -7.381644 0.000455
v 14.960180 -7.634758 5.606558
v 14.960180 -7.634758 5.606558
v 14.960180 -7.634758 11.212662
v 14.960180 -7.634758 11.212662
v 14.707066 -7.634758 11.212662
v 14.707066 -7.634758 11.212662
v 14.707066 -7.634758 5.606558
v 14.707066 -7.634758 5.606558
v 7.586737 -7.381644 11.212662
v 7.586737 -7.381644 11.212662
v 7.586737 -7.381644 11.212662
v 7.333622 -7.381644 11.212662
v 7.333622 -7.381644 11.212662
v 7.333622 -7.381644 11.212662
v 7.586737 -7.381644 5.606558
v 7.586737 -7.381644 5.606558
v 7.586737 -7.381644 5.606558
v 7.586737 -7.381644 5.606558
v 7.333622 -7.381644 5.606558
v 7.333622 -7.381644 5.606558
v 7.333622 -7.381644 5.606558
v 7.333622 -7.381644 5.606558
v 7.586737 -7.634758 0.000455
v 7.586737 -7.634758 0.000455
v 7.333622 -7.381644 0.000455
v 7.333622 -7.381644 0.000455
v 7.333622 -7.381644 0.000455
v 7.333622 -7.634758 0.000455
v 7.333622 -7.634758 0.000455
v 7.586737 -7.381644 0.000455
v 7.586737 -7.381644 0.000455
v 7.586737 -7.381644 0.000455
v 7.586737 -7.634758 5.606558
v 7.586737 -7.634758 5.606558
v 7.586737 -7.634758 11.212662
v 7.586737 -7.634758 11.212662
v 7.333622 -7.634758 11.212662
v 7.333622 -7.634758 11.212662
v 7.333622 -7.634758 5.606558
v 7.333622 -7.634758 5.606558
v -7.310063 -4.114511 0.000455
v -7.310063 -4.114511 0.000455
v -7.385876 -4.114511 0.000455
v -7.385876 -4.114511 0.000455
v -7.385876 -4.114511 7.857549
v -7.385876 -4.114511 7.857549
v -7.385876 -4.114511 7.857549
v -7.310063 -4.114511 7.858734
v -7.310063 -4.114511 7.858734
v -7.310063 -4.114511 7.858734
v -7.304789 -4.114511 7.884306
v -7.304789 -4.114511 7.884306
v -7.304789 -4.114511 7.884306
v -7.774856 -4.114511 7.884306
v -7.774856 -4.114511 7.884306
v -7.774856 -4.114511 7.884306
v -7.693769 -4.114511 7.857549
v -7.693769 -4.114511 7.857549
v -7.693769 -4.114511 7.857549
v -7.769582 -4.114511 7.858734
v -7.769582 -4.114511 7.858734
v -7.769582 -4.114511 7.858734
v -7.769582 -4.114511 0.000455
v -7.769582 -4.114511 0.000455
v -7.693769 -4.114511 0.000455
v -7.693769 -4.114511 0.000455
v -7.789814 -4.114511 7.905705
v -7.789814 -4.114511 7.905705
v -7.789814 -4.114511 7.905705
v -7.289830 -4.114511 7.905705
v -7.289830 -4.114511 7.905705
v -7.289830 -4.114511 7.905705
v -6.972121 -4.114511 8.206057
v -6.972121 -4.114511 8.206057
v -6.972121 -4.114511 8.206057
v -8.107524 -4.114511 8.206057
v -8.107524 -4.114511 8.206057
v -8.107524 -4.114511 8.206057
v -8.122483 -4.114511 8.227456
v -8.122483 -4.114511 8.227456
v -8.122483 -4.114511 8.227456
v -6.957160 -4.114511 8.227456
v -6.957160 -4.114511 8.227456
v -6.957160 -4.114511 8.227456
v -8.127757 -4.114511 8.253027
v -8.127757 -4.114511 8.253027
v -8.127757 -4.114511 8.253027
v -6.951887 -4.114511 8.253027
v -6.951887 -4.114511 8.253027
v -6.951887 -4.114511 8.253027
v -6.951887 -4.114511 8.418720
v -6.951887 -4.114511 8.418720
v -6.951887 -4.114511 8.418720
v -8.127757 -4.114511 8.418720
v -8.127757 -4.114511 8.418720
v -8.127757 -4.114511 8.418720
v -7.693769 -3.967511 7.857549
v -7.693769 -3.967511 7.857549
v -7.693769 -3.967511 7.857549
v -7.385876 -3.967511 7.857549
v -7.385876 -3.967511 7.857549
v -7.385876 -3.967511 7.857549
v -7.693769 -3.967510 0.000455
v -7.693769 -3.967510 0.000455
v -7.385876 -3.967510 0.000455
v -7.385876 -3.967510 0.000455
v -7.385876 -3.801991 7.857549
v -7.385876 -3.801991 7.857549
v -7.385876 -3.801991 7.857549
v -7.693769 -3.801991 7.857549
v -7.693769 -3.801991 7.857549
v -7.693769 -3.801991 7.857549
v -7.693769 -3.801990 0.000455
v -7.693769 -3.801990 0.000455
v -7.385876 -3.801990 0.000455
v -7.385876 -3.801990 0.000455
v -7.769582 -3.654989 0.000455
v -7.769582 -3.654989 0.000455
v -7.769582 -3.654990 7.858734
v -7.769582 -3.654990 7.858734
v -7.769582 -3.654990 7.858734
v -7.774856 -3.654990 7.884306
v -7.774856 -3.654990 7.884306
v -7.774856 -3.654990 7.884306
v -7.789814 -3.654990 7.905705
v -7.789814 -3.654990 7.905705
v -7.789814 -3.654990 7.905705
v -8.107524 -3.654990 8.206057
v -8.107524 -3.654990 8.206057
v -8.107524 -3.654990 8.206057
v -8.122483 -3.654990 8.227456
v -8.122483 -3.654990 8.227456
v -8.122483 -3.654990 8.227456
v -8.127757 -3.654990 8.253027
v -8.127757 -3.654990 8.253027
v -8.127757 -3.654990 8.253027
v -8.127757 -3.654990 8.418720
v -8.127757 -3.654990 8.418720
v -8.127757 -3.654990 8.418720
v -7.693769 -3.654989 0.000455
v -7.693769 -3.654989 0.000455
v -7.693769 -3.654990 7.857549
v -7.693769 -3.654990 7.857549
v -7.693769 -3.654990 7.857549
v -7.304789 -3.654990 7.884306
v -7.304789 -3.654990 7.884306
v -7.304789 -3.654990 7.884306
v -7.385876 -3.654990 7.857549
v -7.385876 -3.654990 7.857549
v -7.385876 -3.654990 7.857549
v -7.310063 -3.654990 7.858734
v -7.310063 -3.654990 7.858734
v -7.310063 -3.654990 7.858734
v -7.310063 -3.654989 0.000455
v -7.310063 -3.654989 0.000455
v -7.385876 -3.654989 0.000455
v -7.385876 -3.654989 0.000455
v -7.289830 -3.654990 7.905705
v -7.289830 -3.654990 7.905705
v -7.289830 -3.654990 7.905705
v -6.972121 -3.654990 8.206057
v -6.972121 -3.654990 8.206057
v -6.972121 -3.654990 8.206057
v -6.957160 -3.654990 8.227456
v -6.957160 -3.654990 8.227456
v -6.957160 -3.654990 8.227456
v -6.951887 -3.654990 8.253027
v -6.951887 -3.654990 8.253027
v -6.951887 -3.654990 8.253027
v -6.951887 -3.654990 8.418720
v -6.951887 -3.654990 8.418720
v -6.951887 -3.654990 8.418720
v -7.385876 3.845003 7.857549
v -7.385876 3.845003 7.857549
v -7.385876 3.845003 7.857549
v -7.385876 3.845003 0.000455
v -7.385876 3.845003 0.000455
v -7.310063 3.845003 0.000455
v -7.310063 3.845003 0.000455
v -7.310063 3.845003 7.858734
v -7.310063 3.845003 7.858734
v -7.310063 3.845003 7.858734
v -7.304789 3.845003 7.884306
v -7.304789 3.845003 7.884306
v -7.304789 3.845003 7.884306
v -7.693769 3.845003 7.857549
v -7.693769 3.845003 7.857549
v -7.693769 3.845003 7.857549
v -7.774856 3.845003 7.884306
v -7.774856 3.845003 7.884306
v -7.774856 3.845003 7.884306
v -7.769582 3.845003 7.858734
v -7.769582 3.845003 7.858734
v -7.769582 3.845003 7.858734
v -7.769582 3.845003 0.000455
v -7.769582 3.845003 0.000455
v -7.693769 3.845003 0.000455
v -7.693769 3.845003 0.000455
v -7.789814 3.845003 7.905705
v -7.789814 3.845003 7.905705
v -7.789814 3.845003 7.905705
v -7.289830 3.845003 7.905705
v -7.289830 3.845003 7.905705
v -7.289830 3.845003 7.905705
v -6.972121 3.845003 8.206057
v -6.972121 3.845003 8.206057
v -6.972121 3.845003 8.206057
v -8.107524 3.845003 8.206057
v -8.107524 3.845003 8.206057
v -8.107524 3.845003 8.206057
v -8.122483 3.845003 8.227456
v -8.122483 3.845003 8.227456
v -8.122483 3.845003 8.227456
v -6.957160 3.845003 8.227456
v -6.957160 3.845003 8.227456
v -6.957160 3.845003 8.227456
v -8.127757 3.845003 8.253027
v -8.127757 3.845003 8.253027
v -8.127757 3.845003 8.253027
v -6.951887 3.845003 8.253027
v -6.951887 3.845003 8.253027
v -6.951887 3.845003 8.253027
v -6.951887 3.845003 8.418720
v -6.951887 3.845003 8.418720
v -6.951887 3.845003 8.418720
v -8.127757 3.845003 8.418720
v -8.127757 3.845003 8.418720
v -8.127757 3.845003 8.418720
v -7.385876 3.698003 7.857549
v -7.385876 3.698003 7.857549
v -7.385876 3.698003 7.857549
v -7.693769 3.698003 7.857549
v -7.693769 3.698003 7.857549
v -7.693769 3.698003 7.857549
v -7.693769 3.698003 0.000455
v -7.693769 3.698003 0.000455
v -7.385876 3.698003 0.000455
v -7.385876 3.698003 0.000455
v -7.385876 3.532481 7.857549
v -7.385876 3.532481 7.857549
v -7.385876 3.532481 7.857549
v -7.385876 3.532481 0.000455
v -7.385876 3.532481 0.000455
v -7.693769 3.532481 0.000455
v -7.693769 3.532481 0.000455
v -7.693769 3.532481 7.857549
v -7.693769 3.532481 7.857549
v -7.693769 3.532481 7.857549
v -7.769582 3.385481 0.000455
v -7.769582 3.385481 0.000455
v -7.769582 3.385481 7.858734
v -7.769582 3.385481 7.858734
v -7.769582 3.385481 7.858734
v -7.774856 3.385481 7.884306
v -7.774856 3.385481 7.884306
v -7.774856 3.385481 7.884306
v -7.789814 3.385481 7.905705
v -7.789814 3.385481 7.905705
v -7.789814 3.385481 7.905705
v -8.107524 3.385481 8.206057
v -8.107524 3.385481 8.206057
v -8.107524 3.385481 8.206057
v -8.122483 3.385481 8.227456
v -8.122483 3.385481 8.227456
v -8.122483 3.385481 8.227456
v -8.127757 3.385481 8.253027
v -8.127757 3.385481 8.253027
v -8.127757 3.385481 8.253027
v -8.127757 3.385481 8.418720
v -8.127757 3.385481 8.418720
v -8.127757 3.385481 8.418720
v -7.693769 3.385481 7.857549
v -7.693769 3.385481 7.857549
v -7.693769 3.385481 7.857549
v -7.693769 3.385481 0.000455
v -7.693769 3.385481 0.000455
v -7.385876 3.385481 7.857549
v -7.385876 3.385481 7.857549
v -7.385876 3.385481 7.857549
v -7.304789 3.385481 7.884306
v -7.304789 3.385481 7.884306
v -7.304789 3.385481 7.884306
v -7.310063 3.385481 7.858734
v -7.310063 3.385481 7.858734
v -7.310063 3.385481 7.858734
v -7.310063 3.385481 0.000455
v -7.310063 3.385481 0.000455
v -7.385876 3.385481 0.000455
v -7.385876 3.385481 0.000455
v -7.289830 3.385481 7.905705
v -7.289830 3.385481 7.905705
v -7.289830 3.385481 7.905705
v -6.972121 3.385481 8.206057
v -6.972121 3.385481 8.206057
v -6.972121 3.385481 8.206057
v -6.957160 3.385481 8.227456
v -6.957160 3.385481 8.227456
v -6.957160 3.385481 8.227456
v -6.951887 3.385481 8.253027
v -6.951887 3.385481 8.253027
v -6.951887 3.385481 8.253027
v -6.951887 3.385481 8.418720
v -6.951887 3.385481 8.418720
v -6.951887 3.385481 8.418720
v 7.306232 -4.114511 7.857549
v 7.306232 -4.114511 7.857549
v 7.306232 -4.114511 7.857549
v 7.306232 -4.114511 0.000455
v 7.306232 -4.114511 0.000455
v 7.230419 -4.114511 0.000455
v 7.230419 -4.114511 0.000455
v 7.230419 -4.114511 7.858734
v 7.230419 -4.114511 7.858734
v 7.230419 -4.114511 7.858734
v 7.225146 -4.114511 7.884306
v 7.225146 -4.114511 7.884306
v 7.225146 -4.114511 7.884306
v 7.614126 -4.114511 7.857549
v 7.614126 -4.114511 7.857549
v 7.614126 -4.114511 7.857549
v 7.695212 -4.114511 7.884306
v 7.695212 -4.114511 7.884306
v 7.695212 -4.114511 7.884306
v 7.689939 -4.114511 7.858734
v 7.689939 -4.114511 7.858734
v 7.689939 -4.114511 7.858734
v 7.689939 -4.114511 0.000455
v 7.689939 -4.114511 0.000455
v 7.614126 -4.114511 0.000455
v 7.614126 -4.114511 0.000455
v 7.710172 -4.114511 7.905705
v 7.710172 -4.114511 7.905705
v 7.710172 -4.114511 7.905705
v 7.210187 -4.114511 7.905705
v 7.210187 -4.114511 7.905705
v 7.210187 -4.114511 7.905705
v 6.892478 -4.114511 8.206057
v 6.892478 -4.114511 8.206057
v 6.892478 -4.114511 8.206057
v 8.027882 -4.114511 8.206057
v 8.027882 -4.114511 8.206057
v 8.027882 -4.114511 8.206057
v 8.042842 -4.114511 8.227456
v 8.042842 -4.114511 8.227456
v 8.042842 -4.114511 8.227456
v 6.877519 -4.114511 8.227456
v 6.877519 -4.114511 8.227456
v 6.877519 -4.114511 8.227456
v 8.048115 -4.114511 8.253027
v 8.048115 -4.114511 8.253027
v 8.048115 -4.114511 8.253027
v 6.872245 -4.114511 8.253027
v 6.872245 -4.114511 8.253027
v 6.872245 -4.114511 8.253027
v 6.872245 -4.114511 8.418720
v 6.872245 -4.114511 8.418720
v 6.872245 -4.114511 8.418720
v 8.048115 -4.114511 8.418720
v 8.048115 -4.114511 8.418720
v 8.048115 -4.114511 8.418720
v 7.306232 -3.967511 7.857549
v 7.306232 -3.967511 7.857549
v 7.306232 -3.967511 7.857549
v 7.614126 -3.967511 7.857549
v 7.614126 -3.967511 7.857549
v 7.614126 -3.967511 7.857549
v 7.614126 -3.967510 0.000455
v 7.614126 -3.967510 0.000455
v 7.306232 -3.967510 0.000455
v 7.306232 -3.967510 0.000455
v 7.306232 -3.801991 7.857549
v 7.306232 -3.801991 7.857549
v 7.306232 -3.801991 7.857549
v 7.306232 -3.801990 0.000455
v 7.306232 -3.801990 0.000455
v 7.614126 -3.801990 0.000455
v 7.614126 -3.801990 0.000455
v 7.614126 -3.801991 7.857549
v 7.614126 -3.801991 7.857549
v 7.614126 -3.801991 7.857549
v 7.689939 -3.654989 0.000455
v 7.689939 -3.654989 0.000455
v 7.689939 -3.654990 7.858734
v 7.689939 -3.654990 7.858734
v 7.689939 -3.654990 7.858734
v 7.695212 -3.654990 7.884306
v 7.695212 -3.654990 7.884306
v 7.695212 -3.654990 7.884306
v 7.710172 -3.654990 7.905705
v 7.710172 -3.654990 7.905705
v 7.710172 -3.654990 7.905705
v 8.027882 -3.654990 8.206057
v 8.027882 -3.654990 8.206057
v 8.027882 -3.654990 8.206057
v 8.042842 -3.654990 8.227456
v 8.042842 -3.654990 8.227456
v 8.042842 -3.654990 8.227456
v 8.048115 -3.654990 8.253027
v 8.048115 -3.654990 8.253027
v 8.048115 -3.654990 8.253027
v 8.048115 -3.654990 8.418720
v 8.048115 -3.654990 8.418720
v 8.048115 -3.654990 8.418720
v 7.614126 -3.654990 7.857549
v 7.614126 -3.654990 7.857549
v 7.614126 -3.654990 7.857549
v 7.614126 -3.654989 0.000455
v 7.614126 -3.654989 0.000455
v 7.306232 -3.654990 7.857549
v 7.306232 -3.654990 7.857549
v 7.306232 -3.654990 7.857549
v 7.225146 -3.654990 7.884306
v 7.225146 -3.654990 7.884306
v 7.225146 -3.654990 7.884306
v 7.230419 -3.654990 7.858734
v 7.230419 -3.654990 7.858734
v 7.230419 -3.654990 7.858734
v 7.230419 -3.654989 0.000455
v 7.230419 -3.654989 0.000455
v 7.306232 -3.654989 0.000455
v 7.306232 -3.654989 0.000455
v 7.210187 -3.654990 7.905705
v 7.210187 -3.654990 7.905705
v 7.210187 -3.654990 7.905705
v 6.892478 -3.654990 8.206057
v 6.892478 -3.654990 8.206057
v 6.892478 -3.654990 8.206057
v 6.877519 -3.654990 8.227456
v 6.877519 -3.654990 8.227456
v 6.877519 -3.654990 8.227456
v 6.872245 -3.654990 8.253027
v 6.872245 -3.654990 8.253027
v 6.872245 -3.654990 8.253027
v 6.872245 -3.654990 8.418720
v 6.872245 -3.654990 8.418720
v 6.872245 -3.654990 8.418720
v 7.230419 3.845003 0.000455
v 7.230419 3.845003 0.000455
v 7.306232 3.845003 0.000455
v 7.306232 3.845003 0.000455
v 7.306232 3.845003 7.857549
v 7.306232 3.845003 7.857549
v 7.306232 3.845003 7.857549
v 7.230419 3.845003 7.858734
v 7.230419 3.845003 7.858734
v 7.230419 3.845003 7.858734
v 7.225146 3.845003 7.884306
v 7.225146 3.845003 7.884306
v 7.225146 3.845003 7.884306
v 7.695212 3.845003 7.884306
v 7.695212 3.845003 7.884306
v 7.695212 3.845003 7.884306
v 7.614126 3.845003 7.857549
v 7.614126 3.845003 7.857549
v 7.614126 3.845003 7.857549
v 7.689939 3.845003 7.858734
v 7.689939 3.845003 7.858734
v 7.689939 3.845003 7.858734
v 7.689939 3.845003 0.000455
v 7.689939 3.845003 0.000455
v 7.614126 3.845003 0.000455
v 7.614126 3.845003 0.000455
v 7.710172 3.845003 7.905705
v 7.710172 3.845003 7.905705
v 7.710172 3.845003 7.905705
v 7.210187 3.845003 7.905705
v 7.210187 3.845003 7.905705
v 7.210187 3.845003 7.905705
v 6.892478 3.845003 8.206057
v 6.892478 3.845003 8.206057
v 6.892478 3.845003 8.206057
v 8.027882 3.845003 8.206057
v 8.027882 3.845003 8.206057
v 8.027882 3.845003 8.206057
v 8.042842 3.845003 8.227456
v 8.042842 3.845003 8.227456
v 8.042842 3.845003 8.227456
v 6.877519 3.845003 8.227456
v 6.877519 3.845003 8.227456
v 6.877519 3.845003 8.227456
v 8.048115 3.845003 8.253027
v 8.048115 3.845003 8.253027
v 8.048115 3.845003 8.253027
v 6.872245 3.845003 8.253027
v 6.872245 3.845003 8.253027
v 6.872245 3.845003 8.253027
v 6.872245 3.845003 8.418720
v 6.872245 3.845003 8.418720
v 6.872245 3.845003 8.418720
v 8.048115 3.845003 8.418720
v 8.048115 3.845003 8.418720
v 8.048115 3.845003 8.418720
v 7.614126 3.698003 7.857549
v 7.614126 3.698003 7.857549
v 7.614126 3.698003 7.857549
v 7.306232 3.698003 7.857549
v 7.306232 3.698003 7.857549
v 7.306232 3.698003 7.857549
v 7.614126 3.698003 0.000455
v 7.614126 3.698003 0.000455
v 7.306232 3.698003 0.000455
v 7.306232 3.698003 0.000455
v 7.306232 3.532481 7.857549
v 7.306232 3.532481 7.857549
v 7.306232 3.532481 7.857549
v 7.614126 3.532481 7.857549
v 7.614126 3.532481 7.857549
v 7.614126 3.532481 7.857549
v 7.614126 3.532481 0.000455
v 7.614126 3.532481 0.000455
v 7.306232 3.532481 0.000455
v 7.306232 3.532481 0.000455
v 7.689939 3.385481 0.000455
v 7.689939 3.385481 0.000455
v 7.689939 3.385481 7.858734
v 7.689939 3.385481 7.858734
v 7.689939 3.385481 7.858734
v 7.695212 3.385481 7.884306
v 7.695212 3.385481 7.884306
v 7.695212 3.385481 7.884306
v 7.710172 3.385481 7.905705
v 7.710172 3.385481 7.905705
v 7.710172 3.385481 7.905705
v 8.027882 3.385481 8.206057
v 8.027882 3.385481 8.206057
v 8.027882 3.385481 8.206057
v 8.042842 3.385481 8.227456
v 8.042842 3.385481 8.227456
v 8.042842 3.385481 8.227456
v 8.048115 3.385481 8.253027
v 8.048115 3.385481 8.253027
v 8.048115 3.385481 8.253027
v 8.048115 3.385481 8.418720
v 8.048115 3.385481 8.418720
v 8.048115 3.385481 8.418720
v 7.614126 3.385481 0.000455
v 7.614126 3.385481 0.000455
v 7.614126 3.385481 7.857549
v 7.614126 3.385481 7.857549
v 7.614126 3.385481 7.857549
v 7.225146 3.385481 7.884306
v 7.225146 3.385481 7.884306
v 7.225146 3.385481 7.884306
v 7.306232 3.385481 7.857549
v 7.306232 3.385481 7.857549
v 7.306232 3.385481 7.857549
v 7.230419 3.385481 7.858734
v 7.230419 3.385481 7.858734
v 7.230419 3.385481 7.858734
v 7.230419 3.385481 0.000455
v 7.230419 3.385481 0.000455
v 7.306232 3.385481 0.000455
v 7.306232 3.385481 0.000455
v 7.210187 3.385481 7.905705
v 7.210187 3.385481 7.905705
v 7.210187 3.385481 7.905705
v 6.892478 3.385481 8.206057
v 6.892478 3.385481 8.206057
v 6.892478 3.385481 8.206057
v 6.877519 3.385481 8.227456
v 6.877519 3.385481 8.227456
v 6.877519 3.385481 8.227456
v 6.872245 3.385481 8.253027
v 6.872245 3.385481 8.253027
v 6.872245 3.385481 8.253027
v 6.872245 3.385481 8.418720
v 6.872245 3.385481 8.418720
v 6.872245 3.385481 8.418720
v -15.039815 -3.409698 3.336256
v -15.039815 -3.409698 3.336256
v -14.965499 -6.745498 3.229804
v -14.965499 -6.745498 3.229804
v -14.965499 -6.745498 3.229804
v -15.039815 -6.745498 3.336256
v -15.039815 -6.745498 3.336256
v -14.965499 -3.409698 3.229804
v -14.965499 -3.409698 3.229804
v -14.965499 -3.409698 3.229804
v -14.965499 -6.745498 2.814888
v -14.965499 -6.745498 2.814888
v -14.965499 -6.745498 2.814888
v -14.965499 -3.409698 2.814888
v -14.965499 -3.409698 2.814888
v -14.965499 -3.409698 2.814888
v -15.075527 -6.745498 2.766222
v -15.075527 -6.745498 2.766222
v -15.075527 -6.745498 2.766222
v -15.075527 -3.409698 2.766222
v -15.075527 -3.409698 2.766222
v -15.075527 -3.409698 2.766222
v -15.110409 -6.745498 2.634519
v -15.110409 -6.745498 2.634519
v -15.110409 -3.409698 2.634519
v -15.110409 -3.409698 2.634519
v -15.075527 -6.745498 0.000455
v -15.075527 -6.745498 0.000455
v -15.075527 -6.745498 0.132158
v -15.075527 -6.745498 0.132158
v -15.075527 -3.409698 0.132158
v -15.075527 -3.409698 0.132158
v -15.075527 -3.409698 0.000455
v -15.075527 -3.409698 0.000455
v -15.110409 -3.409698 0.263862
v -15.110409 -3.409698 0.263862
v -15.110409 -6.745498 0.263862
v -15.110409 -6.745498 0.263862
v -15.075527 -3.409698 0.395565
v -15.075527 -3.409698 0.395565
v -15.075527 -6.745498 0.395565
v -15.075527 -6.745498 0.395565
v -15.110409 -6.745498 0.527268
v -15.110409 -6.745498 0.527268
v -15.110409 -3.409698 0.527268
v -15.110409 -3.409698 0.527268
v -15.075527 -3.409698 0.658971
v -15.075527 -3.409698 0.658971
v -15.075527 -6.745498 0.658971
v -15.075527 -6.745498 0.658971
v -15.110409 -3.409698 0.790674
v -15.110409 -3.409698 0.790674
v -15.110409 -6.745498 0.790674
v -15.110409 -6.745498 0.790674
v -15.075527 -6.745498 0.922378
v -15.075527 -6.745498 0.922378
v -15.075527 -3.409698 0.922378
v -15.075527 -3.409698 0.922378
v -15.110409 -6.745498 1.054081
v -15.110409 -6.745498 1.054081
v -15.110409 -3.409698 1.054081
v -15.110409 -3.409698 1.054081
v -15.075527 -6.745498 1.185784
v -15.075527 -6.745498 1.185784
v -15.075527 -3.409698 1.185784
v -15.075527 -3.409698 1.185784
v -15.110409 -3.409698 1.317487
v -15.110409 -3.409698 1.317487
v -15.110409 -6.745498 1.317487
v -15.110409 -6.745498 1.317487
v -15.075527 -3.409698 1.449191
v -15.075527 -3.409698 1.449191
v -15.075527 -6.745498 1.449191
v -15.075527 -6.745498 1.449191
v -15.110409 -6.745498 1.580894
v -15.110409 -6.745498 1.580894
v -15.110409 -3.409698 1.580894
v -15.110409 -3.409698 1.580894
v -15.075527 -6.745498 1.712597
v -15.075527 -6.745498 1.712597
v -15.075527 -3.409698 1.712597
v -15.075527 -3.409698 1.712597
v -15.110409 -3.409698 1.844300
v -15.110409 -3.409698 1.844300
v -15.110409 -6.745498 1.844300
v -15.110409 -6.745498 1.844300
v -15.075527 -6.745498 1.976003
v -15.075527 -6.745498 1.976003
v -15.075527 -3.409698 1.976003
v -15.075527 -3.409698 1.976003
v -15.110409 -6.745498 2.107706
v -15.110409 -6.745498 2.107706
v -15.110409 -3.409698 2.107706
v -15.110409 -3.409698 2.107706
v -15.075527 -6.745498 2.239410
v -15.075527 -6.745498 2.239410
v -15.075527 -3.409698 2.239410
v -15.075527 -3.409698 2.239410
v -15.110409 -3.409698 2.371113
v -15.110409 -3.409698 2.371113
v -15.110409 -6.745498 2.371113
v -15.110409 -6.745498 2.371113
v -15.075527 -3.409698 2.502816
v -15.075527 -3.409698 2.502816
v -15.075527 -6.745498 2.502816
v -15.075527 -6.745498 2.502816
v -15.039813 -6.745498 0.000455
v -15.039813 -3.409698 0.000455
v -14.965499 3.140190 3.229804
v -14.965499 3.140190 3.229804
v -14.965499 3.140190 3.229804
v -15.039815 3.140190 3.336256
v -15.039815 3.140190 3.336256
v -14.965499 6.475990 3.229804
v -14.965499 6.475990 3.229804
v -14.965499 6.475990 3.229804
v -15.039815 6.475990 3.336256
v -15.039815 6.475990 3.336256
v -14.965499 3.140190 2.814888
v -14.965499 3.140190 2.814888
v -14.965499 3.140190 2.814888
v -14.965499 6.475990 2.814888
v -14.965499 6.475990 2.814888
v -14.965499 6.475990 2.814888
v -15.075527 3.140190 2.766222
v -15.075527 3.140190 2.766222
v -15.075527 3.140190 2.766222
v -15.075527 6.475990 2.766222
v -15.075527 6.475990 2.766222
v -15.075527 6.475990 2.766222
v -15.110409 3.140190 2.634519
v -15.110409 3.140190 2.634519
v -15.110409 6.475990 2.634519
v -15.110409 6.475990 2.634519
v -15.075527 3.140190 0.000455
v -15.075527 3.140190 0.000455
v -15.075527 3.140190 0.132158
v -15.075527 3.140190 0.132158
v -15.075527 6.475990 0.000455
v -15.075527 6.475990 0.000455
v -15.075527 6.475990 0.132158
v -15.075527 6.475990 0.132158
v -15.110409 3.140190 0.263862
v -15.110409 3.140190 0.263862
v -15.110409 6.475990 0.263862
v -15.110409 6.475990 0.263862
v -15.075527 3.140190 0.395565
v -15.075527 3.140190 0.395565
v -15.075527 6.475990 0.395565
v -15.075527 6.475990 0.395565
v -15.110409 3.140190 0.527268
v -15.110409 3.140190 0.527268
v -15.110409 6.475990 0.527268
v -15.110409 6.475990 0.527268
v -15.075527 3.140190 0.658971
v -15.075527 3.140190 0.658971
v -15.075527 6.475990 0.658971
v -15.075527 6.475990 0.658971
v -15.110409 3.140190 0.790674
v -15.110409 3.140190 0.790674
v -15.110409 6.475990 0.790674
v -15.110409 6.475990 0.790674
v -15.075527 3.140190 0.922378
v -15.075527 3.140190 0.922378
v -15.075527 6.475990 0.922378
v -15.075527 6.475990 0.922378
v -15.110409 3.140190 1.054081
v -15.110409 3.140190 1.054081
v -15.110409 6.475990 1.054081
v -15.110409 6.475990 1.054081
v -15.075527 3.140190 1.185784
v -15.075527 3.140190 1.185784
v -15.075527 6.475990 1.185784
v -15.075527 6.475990 1.185784
v -15.110409 3.140190 1.317487
v -15.110409 3.140190 1.317487
v -15.110409 6.475990 1.317487
v -15.110409 6.475990 1.317487
v -15.075527 3.140190 1.449191
v -15.075527 3.140190 1.449191
v -15.075527 6.475990 1.449191
v -15.075527 6.475990 1.449191
v -15.110409 3.140190 1.580894
v -15.110409 3.140190 1.580894
v -15.110409 6.475990 1.580894
v -15.110409 6.475990 1.580894
v -15.075527 3.140190 1.712597
v -15.075527 3.140190 1.712597
v -15.075527 6.475990 1.712597
v -15.075527 6.475990 1.712597
v -15.110409 3.140190 1.844300
v -15.110409 3.140190 1.844300
v -15.110409 6.475990 1.844300
v -15.110409 6.475990 1.844300
v -15.075527 3.140190 1.976003
v -15.075527 3.140190 1.976003
v -15.075527 6.475990 1.976003
v -15.075527 6.475990 1.976003
v -15.110409 3.140190 2.107706
v -15.110409 3.140190 2.107706
v -15.110409 6.475990 2.107706
v -15.110409 6.475990 2.107706
v -15.075527 3.140190 2.239410
v -15.075527 3.140190 2.239410
v -15.075527 6.475990 2.239410
v -15.075527 6.475990 2.239410
v -15.110409 3.140190 2.371113
v -15.110409 3.140190 2.371113
v -15.110409 6.475990 2.371113
v -15.110409 6.475990 2.371113
v -15.075527 3.140190 2.502816
v -15.075527 3.140190 2.502816
v -15.075527 6.475990 2.502816
v -15.075527 6.475990 2.502816
v -15.039813 6.475990 0.000455
v -15.039813 3.140190 0.000455
v -15.039815 1.533146 3.336256
v -15.039815 1.533146 3.336256
v -14.965499 -1.802654 3.229804
v -14.965499 -1.802654 3.229804
v -14.965499 -1.802654 3.229804
v -15.039815 -1.802654 3.336256
v -15.039815 -1.802654 3.336256
v -14.965499 1.533146 3.229804
v -14.965499 1.533146 3.229804
v -14.965499 1.533146 3.229804
v -14.965499 -1.802654 2.814888
v -14.965499 -1.802654 2.814888
v -14.965499 -1.802654 2.814888
v -14.965499 1.533146 2.814888
v -14.965499 1.533146 2.814888
v -14.965499 1.533146 2.814888
v -15.075527 -1.802654 2.766222
v -15.075527 -1.802654 2.766222
v -15.075527 -1.802654 2.766222
v -15.075527 1.533146 2.766222
v -15.075527 1.533146 2.766222
v -15.075527 1.533146 2.766222
v -15.110409 -1.802654 2.634519
v -15.110409 -1.802654 2.634519
v -15.110409 1.533146 2.634519
v -15.110409 1.533146 2.634519
v -15.075527 1.533146 0.132158
v -15.075527 1.533146 0.132158
v -15.075527 -1.802654 0.000455
v -15.075527 -1.802654 0.000455
v -15.075527 -1.802654 0.132158
v -15.075527 -1.802654 0.132158
v -15.075527 1.533146 0.000455
v -15.075527 1.533146 0.000455
v -15.110409 1.533146 0.263862
v -15.110409 1.533146 0.263862
v -15.110409 -1.802654 0.263862
v -15.110409 -1.802654 0.263862
v -15.075527 1.533146 0.395565
v -15.075527 1.533146 0.395565
v -15.075527 -1.802654 0.395565
v -15.075527 -1.802654 0.395565
v -15.110409 -1.802654 0.527268
v -15.110409 -1.802654 0.527268
v -15.110409 1.533146 0.527268
v -15.110409 1.533146 0.527268
v -15.075527 1.533146 0.658971
v -15.075527 1.533146 0.658971
v -15.075527 -1.802654 0.658971
v -15.075527 -1.802654 0.658971
v -15.110409 1.533146 0.790674
v -15.110409 1.533146 0.790674
v -15.110409 -1.802654 0.790674
v -15.110409 -1.802654 0.790674
v -15.075527 -1.802654 0.922378
v -15.075527 -1.802654 0.922378
v -15.075527 1.533146 0.922378
v -15.075527 1.533146 0.922378
v -15.110409 -1.802654 1.054081
v -15.110409 -1.802654 1.054081
v -15.110409 1.533146 1.054081
v -15.110409 1.533146 1.054081
v -15.075527 -1.802654 1.185784
v -15.075527 -1.802654 1.185784
v -15.075527 1.533146 1.185784
v -15.075527 1.533146 1.185784
v -15.110409 1.533146 1.317487
v -15.110409 1.533146 1.317487
v -15.110409 -1.802654 1.317487
v -15.110409 -1.802654 1.317487
v -15.075527 1.533146 1.449191
v -15.075527 1.533146 1.449191
v -15.075527 -1.802654 1.449191
v -15.075527 -1.802654 1.449191
v -15.110409 -1.802654 1.580894
v -15.110409 -1.802654 1.580894
v -15.110409 1.533146 1.580894
v -15.110409 1.533146 1.580894
v -15.075527 1.533146 1.712597
v -15.075527 1.533146 1.712597
v -15.075527 -1.802654 1.712597
v -15.075527 -1.802654 1.712597
v -15.110409 1.533146 1.844300
v -15.110409 1.533146 1.844300
v -15.110409 -1.802654 1.844300
v -15.110409 -1.802654 1.844300
v -15.075527 -1.802654 1.976003
v -15.075527 -1.802654 1.976003
v -15.075527 1.533146 1.976003
v -15.075527 1.533146 1.976003
v -15.110409 -1.802654 2.107706
v -15.110409 -1.802654 2.107706
v -15.110409 1.533146 2.107706
v -15.110409 1.533146 2.107706
v -15.075527 1.533146 2.239410
v -15.075527 1.533146 2.239410
v -15.075527 -1.802654 2.239410
v -15.075527 -1.802654 2.239410
v -15.110409 1.533146 2.371113
v -15.110409 1.533146 2.371113
v -15.110409 -1.802654 2.371113
v -15.110409 -1.802654 2.371113
v -15.075527 1.533146 2.502816
v -15.075527 1.533146 2.502816
v -15.075527 -1.802654 2.502816
v -15.075527 -1.802654 2.502816
v -15.039813 -1.802654 0.000455
v -15.039813 1.533146 0.000455
vt 0.576525 0.024445
vt 0.298179 0.870881
vt 0.576525 0.024445
vt 0.298179 0.870881
vt 0.532938 0.777145
vt 0.264520 0.106871
vt 0.580855 0.776869
vt 0.298520 0.106885
vt 0.528608 0.024721
vt 0.264255 0.870868
vt 0.528608 0.024721
vt 0.264255 0.870868
vt 0.264558 0.106870
vt 0.264217 0.870866
vt 0.264217 0.870866
vt 0.298217 0.870880
vt 0.298217 0.870880
vt 0.298482 0.106883
vt 0.580855 0.776869
vt 0.298520 0.106885
vt 0.580855 0.776869
vt 0.298520 0.106885
vt 0.532938 0.777145
vt 0.264520 0.106871
vt 0.532938 0.777145
vt 0.264520 0.106871
vt 0.264558 0.106870
vt 0.264558 0.106870
vt 0.298482 0.106883
vt 0.298482 0.106883
vt 0.576525 0.024445
vt 0.298179 0.870881
vt 0.576525 0.024445
vt 0.298179 0.870881
vt 0.580855 0.776869
vt 0.298520 0.106885
vt 0.532938 0.777145
vt 0.264520 0.106871
vt 0.528608 0.024721
vt 0.264255 0.870868
vt 0.528608 0.024721
vt 0.264255 0.870868
vt 0.264558 0.106870
vt 0.264217 0.870866
vt 0.264217 0.870866
vt 0.298217 0.870880
vt 0.298217 0.870880
vt 0.298482 0.106883
vt 0.576525 0.024445
vt 0.298179 0.870881
vt 0.576525 0.024445
vt 0.298179 0.870881
vt 0.580855 0.776869
vt 0.298520 0.106885
vt 0.532938 0.777145
vt 0.264520 0.106871
vt 0.528608 0.024721
vt 0.264255 0.870868
vt 0.528608 0.024721
vt 0.264255 0.870868
vt 0.264558 0.106870
vt 0.264217 0.870866
vt 0.264217 0.870866
vt 0.298482 0.106883
vt 0.298217 0.870880
vt 0.298217 0.870880
vt 0.532938 0.777145
vt 0.264520 0.106871
vt 0.532938 0.777145
vt 0.264520 0.106871
vt 0.580855 0.776869
vt 0.298520 0.106885
vt 0.580855 0.776869
vt 0.298520 0.106885
vt 0.264558 0.106870
vt 0.264558 0.106870
vt 0.298482 0.106883
vt 0.298482 0.106883
vt 0.576525 0.024445
vt 0.298179 0.870881
vt 0.576525 0.024445
vt 0.298179 0.870881
vt 0.532938 0.777145
vt 0.264520 0.106871
vt 0.580855 0.776869
vt 0.298520 0.106885
vt 0.528608 0.024721
vt 0.264255 0.870868
vt 0.528608 0.024721
vt 0.264255 0.870868
vt 0.264217 0.870866
vt 0.264217 0.870866
vt 0.264558 0.106870
vt 0.298217 0.870880
vt 0.298217 0.870880
vt 0.298482 0.106883
vt 0.112815 0.014022
vt 0.078345 0.014022
vt 0.128231 0.661414
vt 0.078343 0.014022
vt 0.112815 0.014022
vt 0.128231 0.598833
vt 0.112815 0.777510
vt 0.078342 0.777510
vt 0.112815 0.777510
vt 0.062428 0.014847
vt 0.078344 0.777510
vt 0.112815 0.777510
vt 0.112815 0.014022
vt 0.027956 0.014847
vt 0.062427 0.778336
vt 0.112815 0.014022
vt 0.062427 0.778336
vt 0.027956 0.778336
vt 0.112815 0.777510
vt 0.027956 0.778336
vt 0.062427 0.812807
vt 0.078344 0.014022
vt 0.027956 0.812807
vt 0.078344 0.777510
vt 0.112813 0.777510
vt 0.078344 0.777510
vt 0.112816 0.014022
vt 0.190812 0.661414
vt 0.078344 0.014022
vt 0.190812 0.598833
vt 0.078344 0.777510
vt 0.078344 0.014022
vt 0.112815 0.014022
vt 0.078345 0.014022
vt 0.128231 0.661414
vt 0.078343 0.014022
vt 0.112815 0.014022
vt 0.128231 0.598833
vt 0.112815 0.777510
vt 0.078342 0.777510
vt 0.112815 0.777510
vt 0.062428 0.014847
vt 0.078344 0.777510
vt 0.112815 0.777510
vt 0.112815 0.014022
vt 0.027956 0.014847
vt 0.062427 0.778336
vt 0.112815 0.014022
vt 0.062427 0.778336
vt 0.027956 0.778336
vt 0.112815 0.777510
vt 0.027956 0.778336
vt 0.062427 0.812807
vt 0.078344 0.014022
vt 0.027956 0.812807
vt 0.078344 0.777510
vt 0.112813 0.777510
vt 0.078344 0.777510
vt 0.112816 0.014022
vt 0.190812 0.661414
vt 0.078344 0.014022
vt 0.190812 0.598833
vt 0.078344 0.777510
vt 0.078344 0.014022
vt 0.112815 0.014022
vt 0.078345 0.014022
vt 0.128231 0.661414
vt 0.078343 0.014022
vt 0.112815 0.014022
vt 0.128231 0.598833
vt 0.112815 0.777510
vt 0.078342 0.777510
vt 0.112815 0.777510
vt 0.062428 0.014847
vt 0.078344 0.777510
vt 0.112815 0.777510
vt 0.112815 0.014022
vt 0.027956 0.014847
vt 0.062427 0.778336
vt 0.112815 0.014022
vt 0.062427 0.778336
vt 0.027956 0.778336
vt 0.112815 0.777510
vt 0.027956 0.778336
vt 0.062427 0.812807
vt 0.078344 0.014022
vt 0.027956 0.812807
vt 0.078344 0.777510
vt 0.112813 0.777510
vt 0.078344 0.777510
vt 0.112816 0.014022
vt 0.190812 0.661414
vt 0.078344 0.014022
vt 0.190812 0.598833
vt 0.078344 0.777510
vt 0.078344 0.014022
vt 0.112815 0.777510
vt 0.078342 0.777510
vt 0.112815 0.777510
vt 0.062428 0.014847
vt 0.078343 0.014022
vt 0.112815 0.014022
vt 0.128231 0.598833
vt 0.112815 0.014022
vt 0.078345 0.014022
vt 0.128231 0.661414
vt 0.078344 0.777510
vt 0.112815 0.777510
vt 0.112815 0.014022
vt 0.027956 0.014847
vt 0.062427 0.778336
vt 0.112815 0.014022
vt 0.062427 0.778336
vt 0.062427 0.812807
vt 0.078344 0.014022
vt 0.027956 0.778336
vt 0.112815 0.777510
vt 0.027956 0.778336
vt 0.027956 0.812807
vt 0.078344 0.777510
vt 0.112813 0.777510
vt 0.078344 0.777510
vt 0.112816 0.014022
vt 0.190812 0.661414
vt 0.078344 0.014022
vt 0.190812 0.598833
vt 0.078344 0.777510
vt 0.078344 0.014022
vt 0.112815 0.777510
vt 0.078342 0.777510
vt 0.112815 0.777510
vt 0.062428 0.014847
vt 0.078343 0.014022
vt 0.112815 0.014022
vt 0.128231 0.598833
vt 0.112815 0.014022
vt 0.078345 0.014022
vt 0.128231 0.661414
vt 0.078344 0.777510
vt 0.112815 0.777510
vt 0.112815 0.014022
vt 0.027956 0.014847
vt 0.062427 0.778336
vt 0.112815 0.014022
vt 0.062427 0.778336
vt 0.062427 0.812807
vt 0.078344 0.014022
vt 0.027956 0.778336
vt 0.112815 0.777510
vt 0.027956 0.778336
vt 0.027956 0.812807
vt 0.078344 0.777510
vt 0.112813 0.777510
vt 0.078344 0.777510
vt 0.112816 0.014022
vt 0.190812 0.661414
vt 0.078344 0.014022
vt 0.190812 0.598833
vt 0.078344 0.777510
vt 0.078344 0.014022
vt 0.112815 0.777510
vt 0.078342 0.777510
vt 0.112815 0.777510
vt 0.062428 0.014847
vt 0.078343 0.014022
vt 0.112815 0.014022
vt 0.128231 0.598833
vt 0.112815 0.014022
vt 0.078345 0.014022
vt 0.128231 0.661414
vt 0.078344 0.777510
vt 0.112815 0.777510
vt 0.112815 0.014022
vt 0.027956 0.014847
vt 0.062427 0.812807
vt 0.078344 0.014022
vt 0.027956 0.812807
vt 0.078344 0.777510
vt 0.027956 0.778336
vt 0.112815 0.777510
vt 0.027956 0.778336
vt 0.062427 0.778336
vt 0.112815 0.014022
vt 0.062427 0.778336
vt 0.112813 0.777510
vt 0.078344 0.777510
vt 0.112816 0.014022
vt 0.190812 0.661414
vt 0.078344 0.014022
vt 0.190812 0.598833
vt 0.078344 0.777510
vt 0.078344 0.014022
vt 0.112815 0.777510
vt 0.078342 0.777510
vt 0.112815 0.777510
vt 0.062428 0.014847
vt 0.078343 0.014022
vt 0.112815 0.014022
vt 0.128231 0.598833
vt 0.112815 0.014022
vt 0.078345 0.014022
vt 0.128231 0.661414
vt 0.078344 0.777510
vt 0.112815 0.777510
vt 0.112815 0.014022
vt 0.027956 0.014847
vt 0.062427 0.812807
vt 0.078344 0.014022
vt 0.027956 0.812807
vt 0.078344 0.777510
vt 0.027956 0.778336
vt 0.112815 0.777510
vt 0.027956 0.778336
vt 0.062427 0.778336
vt 0.112815 0.014022
vt 0.062427 0.778336
vt 0.112813 0.777510
vt 0.078344 0.777510
vt 0.112816 0.014022
vt 0.190812 0.661414
vt 0.078344 0.014022
vt 0.190812 0.598833
vt 0.078344 0.777510
vt 0.078344 0.014022
vt 0.112815 0.777510
vt 0.078342 0.777510
vt 0.112815 0.777510
vt 0.062428 0.014847
vt 0.078343 0.014022
vt 0.112815 0.014022
vt 0.128231 0.598833
vt 0.112815 0.014022
vt 0.078345 0.014022
vt 0.128231 0.661414
vt 0.078344 0.777510
vt 0.112815 0.777510
vt 0.112815 0.014022
vt 0.027956 0.014847
vt 0.062427 0.812807
vt 0.078344 0.014022
vt 0.027956 0.812807
vt 0.078344 0.777510
vt 0.027956 0.778336
vt 0.112815 0.777510
vt 0.027956 0.778336
vt 0.062427 0.778336
vt 0.112815 0.014022
vt 0.062427 0.778336
vt 0.112813 0.777510
vt 0.078344 0.777510
vt 0.112816 0.014022
vt 0.190812 0.661414
vt 0.078344 0.014022
vt 0.190812 0.598833
vt 0.078344 0.777510
vt 0.078344 0.014022
vt 0.112815 0.014022
vt 0.078345 0.014022
vt 0.128231 0.661414
vt 0.078343 0.014022
vt 0.112815 0.014022
vt 0.128231 0.598833
vt 0.112815 0.777510
vt 0.078342 0.777510
vt 0.112815 0.777510
vt 0.062428 0.014847
vt 0.078344 0.777510
vt 0.112815 0.777510
vt 0.112815 0.014022
vt 0.027956 0.014847
vt 0.062427 0.812807
vt 0.078344 0.014022
vt 0.027956 0.778336
vt 0.112815 0.777510
vt 0.027956 0.778336
vt 0.027956 0.812807
vt 0.078344 0.777510
vt 0.062427 0.778336
vt 0.112815 0.014022
vt 0.062427 0.778336
vt 0.112813 0.777510
vt 0.078344 0.777510
vt 0.112816 0.014022
vt 0.190812 0.661414
vt 0.078344 0.014022
vt 0.190812 0.598833
vt 0.078344 0.777510
vt 0.078344 0.014022
vt 0.112815 0.014022
vt 0.078345 0.014022
vt 0.128231 0.661414
vt 0.078343 0.014022
vt 0.112815 0.014022
vt 0.128231 0.598833
vt 0.112815 0.777510
vt 0.078342 0.777510
vt 0.112815 0.777510
vt 0.062428 0.014847
vt 0.078344 0.777510
vt 0.112815 0.777510
vt 0.112815 0.014022
vt 0.027956 0.014847
vt 0.062427 0.812807
vt 0.078344 0.014022
vt 0.027956 0.778336
vt 0.112815 0.777510
vt 0.027956 0.778336
vt 0.027956 0.812807
vt 0.078344 0.777510
vt 0.062427 0.778336
vt 0.112815 0.014022
vt 0.062427 0.778336
vt 0.112813 0.777510
vt 0.078344 0.777510
vt 0.112816 0.014022
vt 0.190812 0.661414
vt 0.078344 0.014022
vt 0.190812 0.598833
vt 0.078344 0.777510
vt 0.078344 0.014022
vt 0.512072 0.027058
vt 0.408079 0.980174
vt 0.502529 0.027058
vt 0.434879 0.027058
vt 0.502529 0.900287
vt 0.434879 0.900288
vt 0.492030 0.032197
vt 0.512072 0.900436
vt 0.408079 0.098255
vt 0.408079 0.098255
vt 0.512736 0.903655
vt 0.408079 0.095005
vt 0.408079 0.095005
vt 0.453567 0.903655
vt 0.349671 0.095005
vt 0.349671 0.095005
vt 0.463773 0.900287
vt 0.416376 0.900288
vt 0.492030 0.070952
vt 0.454231 0.900436
vt 0.349671 0.098255
vt 0.349671 0.098255
vt 0.454231 0.027058
vt 0.349671 0.980174
vt 0.463773 0.027058
vt 0.416376 0.027058
vt 0.451684 0.906349
vt 0.349671 0.092285
vt 0.349671 0.092285
vt 0.514619 0.906349
vt 0.408079 0.092284
vt 0.408079 0.092284
vt 0.554611 0.944155
vt 0.408079 0.054108
vt 0.408079 0.054108
vt 0.411692 0.944155
vt 0.349671 0.054108
vt 0.349671 0.054108
vt 0.409809 0.946849
vt 0.349671 0.051388
vt 0.349671 0.051388
vt 0.556494 0.946849
vt 0.408079 0.051388
vt 0.408079 0.051388
vt 0.409145 0.950068
vt 0.349671 0.048138
vt 0.349671 0.048138
vt 0.557157 0.950068
vt 0.408079 0.048138
vt 0.408079 0.048138
vt 0.557157 0.970924
vt 0.408079 0.027078
vt 0.598957 0.028796
vt 0.409145 0.970924
vt 0.349671 0.027078
vt 0.598957 0.176808
vt 0.303947 0.900289
vt 0.434879 0.900288
vt 0.473527 0.070952
vt 0.342703 0.900289
vt 0.416376 0.900288
vt 0.473527 0.032197
vt 0.303947 0.027058
vt 0.434879 0.027058
vt 0.342703 0.027058
vt 0.416376 0.027058
vt 0.303947 0.900289
vt 0.473527 0.070952
vt 0.434879 0.900288
vt 0.342703 0.900289
vt 0.416376 0.900288
vt 0.473527 0.032197
vt 0.342703 0.027058
vt 0.416376 0.027058
vt 0.303947 0.027058
vt 0.434879 0.027058
vt 0.408079 0.980174
vt 0.512072 0.027058
vt 0.408079 0.098255
vt 0.408079 0.098255
vt 0.512072 0.900436
vt 0.408079 0.095005
vt 0.408079 0.095005
vt 0.512736 0.903655
vt 0.408079 0.092285
vt 0.408079 0.092285
vt 0.514619 0.906349
vt 0.408079 0.054108
vt 0.408079 0.054108
vt 0.554611 0.944155
vt 0.408079 0.051388
vt 0.408079 0.051388
vt 0.556494 0.946849
vt 0.408079 0.048138
vt 0.408079 0.048138
vt 0.557157 0.950068
vt 0.408079 0.027078
vt 0.557157 0.970924
vt 0.656799 0.176808
vt 0.502529 0.027058
vt 0.434879 0.027058
vt 0.502529 0.900287
vt 0.434879 0.900288
vt 0.492030 0.032197
vt 0.453567 0.903655
vt 0.349671 0.095005
vt 0.349671 0.095005
vt 0.463773 0.900287
vt 0.492030 0.070952
vt 0.416376 0.900288
vt 0.454230 0.900436
vt 0.349671 0.098255
vt 0.349671 0.098255
vt 0.454230 0.027058
vt 0.349671 0.980174
vt 0.463773 0.027058
vt 0.416376 0.027058
vt 0.451684 0.906349
vt 0.349671 0.092284
vt 0.349671 0.092284
vt 0.411692 0.944155
vt 0.349671 0.054108
vt 0.349671 0.054108
vt 0.409809 0.946849
vt 0.349671 0.051388
vt 0.349671 0.051388
vt 0.409145 0.950068
vt 0.349671 0.048138
vt 0.349671 0.048138
vt 0.409145 0.970924
vt 0.349671 0.027078
vt 0.656799 0.028796
vt 0.502529 0.900287
vt 0.434879 0.900288
vt 0.492030 0.032197
vt 0.502529 0.027058
vt 0.434879 0.027058
vt 0.512072 0.027058
vt 0.408079 0.980174
vt 0.512072 0.900436
vt 0.408079 0.098255
vt 0.408079 0.098255
vt 0.512736 0.903655
vt 0.408079 0.095005
vt 0.408079 0.095005
vt 0.463773 0.900287
vt 0.416376 0.900288
vt 0.492030 0.070952
vt 0.453567 0.903655
vt 0.349671 0.095005
vt 0.349671 0.095005
vt 0.454231 0.900436
vt 0.349671 0.098255
vt 0.349671 0.098255
vt 0.454231 0.027058
vt 0.349671 0.980174
vt 0.463773 0.027058
vt 0.416376 0.027058
vt 0.451684 0.906349
vt 0.349671 0.092285
vt 0.349671 0.092285
vt 0.514619 0.906349
vt 0.408079 0.092284
vt 0.408079 0.092284
vt 0.554611 0.944155
vt 0.408079 0.054108
vt 0.408079 0.054108
vt 0.411692 0.944155
vt 0.349671 0.054108
vt 0.349671 0.054108
vt 0.409809 0.946849
vt 0.349671 0.051388
vt 0.349671 0.051388
vt 0.556494 0.946849
vt 0.408079 0.051388
vt 0.408079 0.051388
vt 0.409145 0.950068
vt 0.349671 0.048138
vt 0.349671 0.048138
vt 0.557157 0.950068
vt 0.408079 0.048138
vt 0.408079 0.048138
vt 0.557157 0.970924
vt 0.408079 0.027078
vt 0.598957 0.028796
vt 0.409145 0.970924
vt 0.349671 0.027078
vt 0.598957 0.176808
vt 0.342703 0.900289
vt 0.416376 0.900288
vt 0.473527 0.032197
vt 0.303947 0.900289
vt 0.434879 0.900288
vt 0.473527 0.070952
vt 0.303947 0.027058
vt 0.434879 0.027058
vt 0.342703 0.027058
vt 0.416376 0.027058
vt 0.303947 0.900289
vt 0.473527 0.070952
vt 0.434879 0.900288
vt 0.303947 0.027058
vt 0.434879 0.027058
vt 0.342703 0.027058
vt 0.416376 0.027058
vt 0.342703 0.900289
vt 0.416376 0.900288
vt 0.473527 0.032197
vt 0.408079 0.980174
vt 0.512072 0.027058
vt 0.408079 0.098255
vt 0.408079 0.098255
vt 0.512072 0.900436
vt 0.408079 0.095005
vt 0.408079 0.095005
vt 0.512736 0.903655
vt 0.408079 0.092285
vt 0.408079 0.092285
vt 0.514619 0.906349
vt 0.408079 0.054108
vt 0.408079 0.054108
vt 0.554611 0.944155
vt 0.408079 0.051388
vt 0.408079 0.051388
vt 0.556494 0.946849
vt 0.408079 0.048138
vt 0.408079 0.048138
vt 0.557157 0.950068
vt 0.408079 0.027078
vt 0.557157 0.970924
vt 0.656799 0.176808
vt 0.502529 0.900287
vt 0.434879 0.900288
vt 0.492030 0.032197
vt 0.502529 0.027058
vt 0.434879 0.027058
vt 0.463773 0.900287
vt 0.492030 0.070952
vt 0.416376 0.900288
vt 0.453567 0.903655
vt 0.349671 0.095005
vt 0.349671 0.095005
vt 0.454230 0.900436
vt 0.349671 0.098255
vt 0.349671 0.098255
vt 0.454230 0.027058
vt 0.349671 0.980174
vt 0.463773 0.027058
vt 0.416376 0.027058
vt 0.451684 0.906349
vt 0.349671 0.092284
vt 0.349671 0.092284
vt 0.411692 0.944155
vt 0.349671 0.054108
vt 0.349671 0.054108
vt 0.409809 0.946849
vt 0.349671 0.051388
vt 0.349671 0.051388
vt 0.409145 0.950068
vt 0.349671 0.048138
vt 0.349671 0.048138
vt 0.409145 0.970924
vt 0.349671 0.027078
vt 0.656799 0.028796
vt 0.502529 0.900287
vt 0.434879 0.900288
vt 0.492030 0.032197
vt 0.502529 0.027058
vt 0.434879 0.027058
vt 0.512072 0.027058
vt 0.408079 0.980174
vt 0.512072 0.900436
vt 0.408079 0.098255
vt 0.408079 0.098255
vt 0.512736 0.903655
vt 0.408079 0.095005
vt 0.408079 0.095005
vt 0.463773 0.900287
vt 0.416376 0.900288
vt 0.492030 0.070952
vt 0.453567 0.903655
vt 0.349671 0.095005
vt 0.349671 0.095005
vt 0.454231 0.900436
vt 0.349671 0.098255
vt 0.349671 0.098255
vt 0.454231 0.027058
vt 0.349671 0.980174
vt 0.463773 0.027058
vt 0.416376 0.027058
vt 0.451684 0.906349
vt 0.349671 0.092285
vt 0.349671 0.092285
vt 0.514619 0.906349
vt 0.408079 0.092284
vt 0.408079 0.092284
vt 0.554611 0.944155
vt 0.408079 0.054108
vt 0.408079 0.054108
vt 0.411692 0.944155
vt 0.349671 0.054108
vt 0.349671 0.054108
vt 0.409809 0.946849
vt 0.349671 0.051388
vt 0.349671 0.051388
vt 0.556494 0.946849
vt 0.408079 0.051388
vt 0.408079 0.051388
vt 0.409145 0.950068
vt 0.349671 0.048138
vt 0.349671 0.048138
vt 0.557157 0.950068
vt 0.408079 0.048138
vt 0.408079 0.048138
vt 0.557157 0.970924
vt 0.408079 0.027078
vt 0.598957 0.028796
vt 0.409145 0.970924
vt 0.349671 0.027078
vt 0.598957 0.176808
vt 0.342703 0.900289
vt 0.416376 0.900288
vt 0.473527 0.032197
vt 0.303947 0.900289
vt 0.434879 0.900288
vt 0.473527 0.070952
vt 0.303947 0.027058
vt 0.434879 0.027058
vt 0.342703 0.027058
vt 0.416376 0.027058
vt 0.303947 0.900289
vt 0.473527 0.070952
vt 0.434879 0.900288
vt 0.303947 0.027058
vt 0.434879 0.027058
vt 0.342703 0.027058
vt 0.416376 0.027058
vt 0.342703 0.900289
vt 0.416376 0.900288
vt 0.473527 0.032197
vt 0.408079 0.980174
vt 0.512072 0.027058
vt 0.408079 0.098255
vt 0.408079 0.098255
vt 0.512072 0.900436
vt 0.408079 0.095005
vt 0.408079 0.095005
vt 0.512736 0.903655
vt 0.408079 0.092285
vt 0.408079 0.092285
vt 0.514619 0.906349
vt 0.408079 0.054108
vt 0.408079 0.054108
vt 0.554611 0.944155
vt 0.408079 0.051388
vt 0.408079 0.051388
vt 0.556494 0.946849
vt 0.408079 0.048138
vt 0.408079 0.048138
vt 0.557157 0.950068
vt 0.408079 0.027078
vt 0.557157 0.970924
vt 0.656799 0.176808
vt 0.502529 0.900287
vt 0.434879 0.900288
vt 0.492030 0.032197
vt 0.502529 0.027058
vt 0.434879 0.027058
vt 0.463773 0.900287
vt 0.492030 0.070952
vt 0.416376 0.900288
vt 0.453567 0.903655
vt 0.349671 0.095005
vt 0.349671 0.095005
vt 0.454230 0.900436
vt 0.349671 0.098255
vt 0.349671 0.098255
vt 0.454230 0.027058
vt 0.349671 0.980174
vt 0.463773 0.027058
vt 0.416376 0.027058
vt 0.451684 0.906349
vt 0.349671 0.092284
vt 0.349671 0.092284
vt 0.411692 0.944155
vt 0.349671 0.054108
vt 0.349671 0.054108
vt 0.409809 0.946849
vt 0.349671 0.051388
vt 0.349671 0.051388
vt 0.409145 0.950068
vt 0.349671 0.048138
vt 0.349671 0.048138
vt 0.409145 0.970924
vt 0.349671 0.027078
vt 0.656799 0.028796
vt 0.512072 0.027058
vt 0.408079 0.980174
vt 0.502529 0.027058
vt 0.434879 0.027058
vt 0.502529 0.900287
vt 0.434879 0.900288
vt 0.492030 0.032197
vt 0.512072 0.900436
vt 0.408079 0.098255
vt 0.408079 0.098255
vt 0.512736 0.903655
vt 0.408079 0.095005
vt 0.408079 0.095005
vt 0.453567 0.903655
vt 0.349671 0.095005
vt 0.349671 0.095005
vt 0.463773 0.900287
vt 0.416376 0.900288
vt 0.492030 0.070952
vt 0.454231 0.900436
vt 0.349671 0.098255
vt 0.349671 0.098255
vt 0.454231 0.027058
vt 0.349671 0.980174
vt 0.463773 0.027058
vt 0.416376 0.027058
vt 0.451684 0.906349
vt 0.349671 0.092285
vt 0.349671 0.092285
vt 0.514619 0.906349
vt 0.408079 0.092284
vt 0.408079 0.092284
vt 0.554611 0.944155
vt 0.408079 0.054108
vt 0.408079 0.054108
vt 0.411692 0.944155
vt 0.349671 0.054108
vt 0.349671 0.054108
vt 0.409809 0.946849
vt 0.349671 0.051388
vt 0.349671 0.051388
vt 0.556494 0.946849
vt 0.408079 0.051388
vt 0.408079 0.051388
vt 0.409145 0.950068
vt 0.349671 0.048138
vt 0.349671 0.048138
vt 0.557157 0.950068
vt 0.408079 0.048138
vt 0.408079 0.048138
vt 0.557157 0.970924
vt 0.408079 0.027078
vt 0.598957 0.028796
vt 0.409145 0.970924
vt 0.349671 0.027078
vt 0.598957 0.176808
vt 0.303947 0.900289
vt 0.434879 0.900288
vt 0.473527 0.070952
vt 0.342703 0.900289
vt 0.416376 0.900288
vt 0.473527 0.032197
vt 0.303947 0.027058
vt 0.434879 0.027058
vt 0.342703 0.027058
vt 0.416376 0.027058
vt 0.303947 0.900289
vt 0.473527 0.070952
vt 0.434879 0.900288
vt 0.342703 0.900289
vt 0.416376 0.900288
vt 0.473527 0.032197
vt 0.342703 0.027058
vt 0.416376 0.027058
vt 0.303947 0.027058
vt 0.434879 0.027058
vt 0.408079 0.980174
vt 0.512072 0.027058
vt 0.408079 0.098255
vt 0.408079 0.098255
vt 0.512072 0.900436
vt 0.408079 0.095005
vt 0.408079 0.095005
vt 0.512736 0.903655
vt 0.408079 0.092285
vt 0.408079 0.092285
vt 0.514619 0.906349
vt 0.408079 0.054108
vt 0.408079 0.054108
vt 0.554611 0.944155
vt 0.408079 0.051388
vt 0.408079 0.051388
vt 0.556494 0.946849
vt 0.408079 0.048138
vt 0.408079 0.048138
vt 0.557157 0.950068
vt 0.408079 0.027078
vt 0.557157 0.970924
vt 0.656799 0.176808
vt 0.502529 0.027058
vt 0.434879 0.027058
vt 0.502529 0.900287
vt 0.434879 0.900288
vt 0.492030 0.032197
vt 0.453567 0.903655
vt 0.349671 0.095005
vt 0.349671 0.095005
vt 0.463773 0.900287
vt 0.492030 0.070952
vt 0.416376 0.900288
vt 0.454230 0.900436
vt 0.349671 0.098255
vt 0.349671 0.098255
vt 0.454230 0.027058
vt 0.349671 0.980174
vt 0.463773 0.027058
vt 0.416376 0.027058
vt 0.451684 0.906349
vt 0.349671 0.092284
vt 0.349671 0.092284
vt 0.411692 0.944155
vt 0.349671 0.054108
vt 0.349671 0.054108
vt 0.409809 0.946849
vt 0.349671 0.051388
vt 0.349671 0.051388
vt 0.409145 0.950068
vt 0.349671 0.048138
vt 0.349671 0.048138
vt 0.409145 0.970924
vt 0.349671 0.027078
vt 0.656799 0.028796
vt 0.892954 0.503606
vt 0.777328 0.311027
vt 0.912790 0.049396
vt 0.912790 0.049396
vt 0.750561 0.250862
vt 0.895109 0.049313
vt 0.761269 0.236794
vt 0.910635 0.503690
vt 0.910635 0.503690
vt 0.767804 0.296132
vt 0.969296 0.049664
vt 0.969296 0.049664
vt 0.748233 0.307315
vt 0.967141 0.503958
vt 0.967141 0.503958
vt 0.770097 0.239676
vt 0.985680 0.049742
vt 0.598268 0.534907
vt 0.762931 0.314554
vt 0.983525 0.504036
vt 0.598268 0.989206
vt 0.785337 0.233662
vt 0.616823 0.534907
vt 0.616823 0.534907
vt 0.616823 0.989206
vt 0.616823 0.989206
vt 0.987304 0.534907
vt 0.835668 0.022926
vt 0.969367 0.534907
vt 0.969367 0.534907
vt 0.969367 0.989206
vt 0.969367 0.989206
vt 0.987304 0.989206
vt 0.840798 0.477179
vt 0.950812 0.989206
vt 0.950812 0.989206
vt 0.950812 0.534907
vt 0.950812 0.534907
vt 0.932257 0.989206
vt 0.932257 0.989206
vt 0.932257 0.534907
vt 0.932257 0.534907
vt 0.913702 0.534907
vt 0.913702 0.534907
vt 0.913702 0.989206
vt 0.913702 0.989206
vt 0.895147 0.989206
vt 0.895147 0.989206
vt 0.895147 0.534907
vt 0.895147 0.534907
vt 0.876592 0.989206
vt 0.876592 0.989206
vt 0.876592 0.534907
vt 0.876592 0.534907
vt 0.858037 0.534907
vt 0.858037 0.534907
vt 0.858037 0.989206
vt 0.858037 0.989206
vt 0.839482 0.534907
vt 0.839482 0.534907
vt 0.839482 0.989206
vt 0.839482 0.989206
vt 0.820928 0.534907
vt 0.820928 0.534907
vt 0.820928 0.989206
vt 0.820928 0.989206
vt 0.802373 0.989206
vt 0.802373 0.989206
vt 0.802373 0.534907
vt 0.802373 0.534907
vt 0.783818 0.989206
vt 0.783818 0.989206
vt 0.783818 0.534907
vt 0.783818 0.534907
vt 0.765263 0.534907
vt 0.765263 0.534907
vt 0.765263 0.989206
vt 0.765263 0.989206
vt 0.746708 0.534907
vt 0.746708 0.534907
vt 0.746708 0.989206
vt 0.746708 0.989206
vt 0.728153 0.989206
vt 0.728153 0.989206
vt 0.728153 0.534907
vt 0.728153 0.534907
vt 0.709598 0.534907
vt 0.709598 0.534907
vt 0.709598 0.989206
vt 0.709598 0.989206
vt 0.691043 0.534907
vt 0.691043 0.534907
vt 0.691043 0.989206
vt 0.691043 0.989206
vt 0.672488 0.534907
vt 0.672488 0.534907
vt 0.672488 0.989206
vt 0.672488 0.989206
vt 0.653933 0.989206
vt 0.653933 0.989206
vt 0.653933 0.534907
vt 0.653933 0.534907
vt 0.635378 0.989206
vt 0.635378 0.989206
vt 0.635378 0.534907
vt 0.635378 0.534907
vt 0.840532 0.022871
vt 0.845661 0.477125
vt 0.910635 0.503690
vt 0.910635 0.503690
vt 0.767804 0.296132
vt 0.892954 0.503606
vt 0.777328 0.311027
vt 0.912790 0.049396
vt 0.912790 0.049396
vt 0.750561 0.250862
vt 0.895109 0.049313
vt 0.761269 0.236794
vt 0.967141 0.503958
vt 0.967141 0.503958
vt 0.770097 0.239676
vt 0.969296 0.049664
vt 0.969296 0.049664
vt 0.748233 0.307315
vt 0.983525 0.504036
vt 0.598268 0.989206
vt 0.785337 0.233662
vt 0.985680 0.049742
vt 0.598268 0.534907
vt 0.762931 0.314554
vt 0.616823 0.989206
vt 0.616823 0.989206
vt 0.616823 0.534907
vt 0.616823 0.534907
vt 0.987304 0.989206
vt 0.840798 0.477179
vt 0.969367 0.989206
vt 0.969367 0.989206
vt 0.987304 0.534907
vt 0.835668 0.022926
vt 0.969367 0.534907
vt 0.969367 0.534907
vt 0.950812 0.989206
vt 0.950812 0.989206
vt 0.950812 0.534907
vt 0.950812 0.534907
vt 0.932257 0.989206
vt 0.932257 0.989206
vt 0.932257 0.534907
vt 0.932257 0.534907
vt 0.913702 0.989206
vt 0.913702 0.989206
vt 0.913702 0.534907
vt 0.913702 0.534907
vt 0.895147 0.989206
vt 0.895147 0.989206
vt 0.895147 0.534907
vt 0.895147 0.534907
vt 0.876592 0.989206
vt 0.876592 0.989206
vt 0.876592 0.534907
vt 0.876592 0.534907
vt 0.858037 0.989206
vt 0.858037 0.989206
vt 0.858037 0.534907
vt 0.858037 0.534907
vt 0.839482 0.989206
vt 0.839482 0.989206
vt 0.839482 0.534907
vt 0.839482 0.534907
vt 0.820928 0.989206
vt 0.820928 0.989206
vt 0.820928 0.534907
vt 0.820928 0.534907
vt 0.802373 0.989206
vt 0.802373 0.989206
vt 0.802373 0.534907
vt 0.802373 0.534907
vt 0.783818 0.989206
vt 0.783818 0.989206
vt 0.783818 0.534907
vt 0.783818 0.534907
vt 0.765263 0.989206
vt 0.765263 0.989206
vt 0.765263 0.534907
vt 0.765263 0.534907
vt 0.746708 0.989206
vt 0.746708 0.989206
vt 0.746708 0.534907
vt 0.746708 0.534907
vt 0.728153 0.989206
vt 0.728153 0.989206
vt 0.728153 0.534907
vt 0.728153 0.534907
vt 0.709598 0.989206
vt 0.709598 0.989206
vt 0.709598 0.534907
vt 0.709598 0.534907
vt 0.691043 0.989206
vt 0.691043 0.989206
vt 0.691043 0.534907
vt 0.691043 0.534907
vt 0.672488 0.989206
vt 0.672488 0.989206
vt 0.672488 0.534907
vt 0.672488 0.534907
vt 0.653933 0.989206
vt 0.653933 0.989206
vt 0.653933 0.534907
vt 0.653933 0.534907
vt 0.635378 0.989206
vt 0.635378 0.989206
vt 0.635378 0.534907
vt 0.635378 0.534907
vt 0.840532 0.022871
vt 0.845661 0.477125
vt 0.892954 0.503606
vt 0.777328 0.311027
vt 0.912790 0.049396
vt 0.912790 0.049396
vt 0.750561 0.250862
vt 0.895109 0.049313
vt 0.761269 0.236794
vt 0.910635 0.503690
vt 0.910635 0.503690
vt 0.767804 0.296132
vt 0.969296 0.049664
vt 0.969296 0.049664
vt 0.748233 0.307315
vt 0.967141 0.503958
vt 0.967141 0.503958
vt 0.770097 0.239676
vt 0.985680 0.049742
vt 0.598268 0.534907
vt 0.762931 0.314554
vt 0.983525 0.504036
vt 0.598268 0.989206
vt 0.785337 0.233662
vt 0.616823 0.534907
vt 0.616823 0.534907
vt 0.616823 0.989206
vt 0.616823 0.989206
vt 0.969367 0.989206
vt 0.969367 0.989206
vt 0.987304 0.534907
vt 0.835668 0.022926
vt 0.969367 0.534907
vt 0.969367 0.534907
vt 0.987304 0.989206
vt 0.840798 0.477179
vt 0.950812 0.989206
vt 0.950812 0.989206
vt 0.950812 0.534907
vt 0.950812 0.534907
vt 0.932257 0.989206
vt 0.932257 0.989206
vt 0.932257 0.534907
vt 0.932257 0.534907
vt 0.913702 0.534907
vt 0.913702 0.534907
vt 0.913702 0.989206
vt 0.913702 0.989206
vt 0.895147 0.989206
vt 0.895147 0.989206
vt 0.895147 0.534907
vt 0.895147 0.534907
vt 0.876592 0.989206
vt 0.876592 0.989206
vt 0.876592 0.534907
vt 0.876592 0.534907
vt 0.858037 0.534907
vt 0.858037 0.534907
vt 0.858037 0.989206
vt 0.858037 0.989206
vt 0.839482 0.534907
vt 0.839482 0.534907
vt 0.839482 0.989206
vt 0.839482 0.989206
vt 0.820928 0.534907
vt 0.820928 0.534907
vt 0.820928 0.989206
vt 0.820928 0.989206
vt 0.802373 0.989206
vt 0.802373 0.989206
vt 0.802373 0.534907
vt 0.802373 0.534907
vt 0.783818 0.989206
vt 0.783818 0.989206
vt 0.783818 0.534907
vt 0.783818 0.534907
vt 0.765263 0.534907
vt 0.765263 0.534907
vt 0.765263 0.989206
vt 0.765263 0.989206
vt 0.746708 0.989206
vt 0.746708 0.989206
vt 0.746708 0.534907
vt 0.746708 0.534907
vt 0.728153 0.989206
vt 0.728153 0.989206
vt 0.728153 0.534907
vt 0.728153 0.534907
vt 0.709598 0.534907
vt 0.709598 0.534907
vt 0.709598 0.989206
vt 0.709598 0.989206
vt 0.691043 0.534907
vt 0.691043 0.534907
vt 0.691043 0.989206
vt 0.691043 0.989206
vt 0.672488 0.989206
vt 0.672488 0.989206
vt 0.672488 0.534907
vt 0.672488 0.534907
vt 0.653933 0.989206
vt 0.653933 0.989206
vt 0.653933 0.534907
vt 0.653933 0.534907
vt 0.635378 0.989206
vt 0.635378 0.989206
vt 0.635378 0.534907
vt 0.635378 0.534907
vt 0.840532 0.022871
vt 0.845661 0.477125
f 1/1 7/7 5/5
f 1/1 5/5 9/9
f 13/13 2/2 14/14
f 2/2 13/13 8/8
f 6/6 16/16 10/10
f 16/16 6/6 18/18
f 3/3 23/23 19/19
f 23/23 3/3 11/11
f 27/27 15/15 4/4
f 27/27 4/4 20/20
f 24/24 12/12 17/17
f 24/24 17/17 29/29
f 31/31 37/37 35/35
f 37/37 31/31 39/39
f 43/43 44/44 32/32
f 43/43 32/32 36/36
f 38/38 40/40 46/46
f 38/38 46/46 48/48
f 33/33 21/21 25/25
f 33/33 25/25 41/41
f 28/28 34/34 45/45
f 34/34 28/28 22/22
f 26/26 47/47 42/42
f 47/47 26/26 30/30
f 49/49 55/55 53/53
f 55/55 49/49 57/57
f 61/61 50/50 54/54
f 50/50 61/61 62/62
f 56/56 65/65 64/64
f 65/65 56/56 58/58
f 51/51 71/71 67/67
f 51/51 67/67 59/59
f 63/63 75/75 52/52
f 72/72 52/52 75/75
f 60/60 68/68 66/66
f 77/77 66/66 68/68
f 79/79 85/85 83/83
f 79/79 83/83 87/87
f 91/91 93/93 80/80
f 86/86 80/80 93/93
f 88/88 84/84 94/94
f 96/96 94/94 84/84
f 81/81 69/69 73/73
f 69/69 81/81 89/89
f 76/76 82/82 74/74
f 82/82 76/76 92/92
f 70/70 95/95 78/78
f 95/95 70/70 90/90
f 97/97 103/103 100/100
f 100/100 103/103 107/107
f 111/111 117/117 114/114
f 114/114 117/117 119/119
f 121/121 98/98 123/123
f 98/98 121/121 104/104
f 101/101 127/127 125/125
f 127/127 101/101 108/108
f 126/126 124/124 99/99
f 126/126 99/99 102/102
f 128/128 115/115 120/120
f 115/115 128/128 109/109
f 122/122 112/112 105/105
f 112/112 122/122 118/118
f 106/106 113/113 110/110
f 110/110 113/113 116/116
f 129/129 135/135 132/132
f 132/132 135/135 139/139
f 143/143 149/149 146/146
f 146/146 149/149 151/151
f 153/153 130/130 155/155
f 130/130 153/153 136/136
f 133/133 159/159 157/157
f 159/159 133/133 140/140
f 158/158 156/156 131/131
f 158/158 131/131 134/134
f 160/160 147/147 152/152
f 147/147 160/160 141/141
f 154/154 144/144 137/137
f 144/144 154/154 150/150
f 138/138 145/145 142/142
f 142/142 145/145 148/148
f 161/161 167/167 164/164
f 164/164 167/167 171/171
f 175/175 181/181 178/178
f 178/178 181/181 183/183
f 185/185 162/162 187/187
f 162/162 185/185 168/168
f 165/165 191/191 189/189
f 191/191 165/165 172/172
f 190/190 188/188 163/163
f 190/190 163/163 166/166
f 192/192 179/179 184/184
f 179/179 192/192 173/173
f 186/186 176/176 169/169
f 176/176 186/186 182/182
f 170/170 177/177 174/174
f 174/174 177/177 180/180
f 193/193 200/200 197/197
f 197/197 203/203 193/193
f 207/207 212/212 210/210
f 212/212 215/215 210/210
f 217/217 219/219 201/201
f 201/201 194/194 217/217
f 221/221 223/223 198/198
f 198/198 223/223 204/204
f 222/222 202/202 220/220
f 202/202 222/222 199/199
f 224/224 213/213 205/205
f 213/213 224/224 216/216
f 218/218 208/208 211/211
f 208/208 218/218 195/195
f 209/209 196/196 206/206
f 206/206 214/214 209/209
f 225/225 232/232 229/229
f 229/229 235/235 225/225
f 239/239 244/244 242/242
f 244/244 247/247 242/242
f 249/249 251/251 233/233
f 233/233 226/226 249/249
f 253/253 255/255 230/230
f 230/230 255/255 236/236
f 254/254 234/234 252/252
f 234/234 254/254 231/231
f 256/256 248/248 237/237
f 237/237 248/248 245/245
f 243/243 250/250 227/227
f 227/227 240/240 243/243
f 228/228 246/246 241/241
f 246/246 228/228 238/238
f 257/257 264/264 261/261
f 261/261 267/267 257/257
f 271/271 275/275 273/273
f 275/275 271/271 278/278
f 281/281 283/283 265/265
f 265/265 258/258 281/281
f 285/285 287/287 262/262
f 262/262 287/287 268/268
f 263/263 266/266 286/286
f 266/266 284/284 286/286
f 288/288 274/274 269/269
f 269/269 274/274 276/276
f 272/272 282/282 259/259
f 259/259 279/279 272/272
f 280/280 260/260 270/270
f 270/270 277/277 280/280
f 289/289 296/296 293/293
f 293/293 299/299 289/289
f 303/303 307/307 305/305
f 307/307 303/303 310/310
f 313/313 315/315 297/297
f 297/297 290/290 313/313
f 317/317 319/319 294/294
f 294/294 319/319 300/300
f 295/295 298/298 318/318
f 298/298 316/316 318/318
f 320/320 308/308 301/301
f 308/308 320/320 306/306
f 314/314 311/311 304/304
f 311/311 314/314 291/291
f 312/312 292/292 302/302
f 302/302 309/309 312/312
f 321/321 328/328 325/325
f 325/325 331/331 321/321
f 335/335 339/339 337/337
f 339/339 335/335 342/342
f 345/345 347/347 329/329
f 329/329 322/322 345/345
f 349/349 351/351 326/326
f 326/326 351/351 332/332
f 327/327 330/330 350/350
f 330/330 348/348 350/350
f 352/352 338/338 333/333
f 333/333 338/338 340/340
f 336/336 346/346 323/323
f 323/323 343/343 336/336
f 324/324 341/341 344/344
f 341/341 324/324 334/334
f 353/353 359/359 356/356
f 356/356 359/359 363/363
f 367/367 372/372 369/369
f 367/367 369/369 374/374
f 377/377 354/354 379/379
f 354/354 377/377 360/360
f 357/357 383/383 381/381
f 383/383 357/357 364/364
f 358/358 382/382 355/355
f 355/355 382/382 380/380
f 384/384 370/370 373/373
f 370/370 384/384 365/365
f 378/378 375/375 361/361
f 375/375 378/378 368/368
f 362/362 376/376 366/366
f 366/366 376/376 371/371
f 385/385 391/391 388/388
f 388/388 391/391 395/395
f 399/399 404/404 401/401
f 399/399 401/401 406/406
f 409/409 386/386 411/411
f 386/386 409/409 392/392
f 389/389 415/415 413/413
f 415/415 389/389 396/396
f 390/390 414/414 387/387
f 387/387 414/414 412/412
f 397/397 405/405 416/416
f 405/405 397/397 402/402
f 400/400 393/393 410/410
f 393/393 400/400 407/407
f 394/394 408/408 398/398
f 398/398 408/408 403/403
f 417/417 421/421 419/419
f 421/421 417/417 424/424
f 427/427 421/421 424/424
f 430/430 421/421 427/427
f 421/421 430/430 433/433
f 433/433 430/430 436/436
f 436/436 439/439 433/433
f 433/433 439/439 441/441
f 427/427 443/443 430/430
f 446/446 443/443 427/427
f 449/449 443/443 446/446
f 449/449 452/452 443/443
f 449/449 455/455 452/452
f 458/458 455/455 449/449
f 458/458 461/461 455/455
f 461/461 458/458 464/464
f 467/467 461/461 464/464
f 467/467 470/470 461/461
f 473/473 479/479 476/476
f 476/476 479/479 481/481
f 483/483 489/489 486/486
f 489/489 483/483 491/491
f 437/437 493/493 440/440
f 493/493 437/437 495/495
f 496/496 438/438 498/498
f 431/431 498/498 438/438
f 499/499 432/432 501/501
f 444/444 501/501 432/432
f 453/453 502/502 445/445
f 502/502 453/453 504/504
f 456/456 505/505 454/454
f 505/505 456/456 507/507
f 508/508 457/457 510/510
f 462/462 510/510 457/457
f 511/511 463/463 513/513
f 471/471 513/513 463/463
f 494/494 518/518 516/516
f 518/518 494/494 497/497
f 500/500 518/518 497/497
f 521/521 518/518 500/500
f 518/518 521/521 524/524
f 524/524 521/521 527/527
f 527/527 530/530 524/524
f 524/524 530/530 532/532
f 500/500 534/534 521/521
f 503/503 534/534 500/500
f 506/506 534/534 503/503
f 506/506 537/537 534/534
f 506/506 540/540 537/537
f 509/509 540/540 506/506
f 509/509 543/543 540/540
f 543/543 509/509 512/512
f 514/514 543/543 512/512
f 514/514 546/546 543/543
f 547/547 468/468 544/544
f 465/465 544/544 468/468
f 466/466 541/541 545/545
f 541/541 466/466 459/459
f 460/460 538/538 542/542
f 538/538 460/460 450/450
f 451/451 447/447 539/539
f 447/447 535/535 539/539
f 448/448 522/522 536/536
f 522/522 448/448 428/428
f 429/429 528/528 523/523
f 528/528 429/429 425/425
f 426/426 531/531 529/529
f 531/531 426/426 418/418
f 477/477 482/482 422/422
f 422/422 482/482 420/420
f 434/434 480/480 474/474
f 480/480 434/434 442/442
f 423/423 435/435 475/475
f 423/423 475/475 478/478
f 487/487 490/490 519/519
f 519/519 490/490 517/517
f 484/484 488/488 520/520
f 484/484 520/520 525/525
f 526/526 492/492 485/485
f 492/492 526/526 533/533
f 515/515 469/469 548/548
f 469/469 515/515 472/472
f 549/549 554/554 552/552
f 554/554 549/549 556/556
f 549/549 559/559 556/556
f 562/562 559/559 549/549
f 559/559 562/562 565/565
f 565/565 562/562 568/568
f 571/571 568/568 562/562
f 562/562 573/573 571/571
f 575/575 559/559 565/565
f 575/575 578/578 559/559
f 575/575 581/581 578/578
f 584/584 581/581 575/575
f 587/587 581/581 584/584
f 587/587 590/590 581/581
f 593/593 590/590 587/587
f 593/593 596/596 590/590
f 593/593 599/599 596/596
f 599/599 593/593 602/602
f 605/605 611/611 608/608
f 611/611 605/605 613/613
f 615/615 620/620 618/618
f 620/620 615/615 622/622
f 625/625 569/569 572/572
f 569/569 625/625 627/627
f 630/630 570/570 628/628
f 630/630 566/566 570/570
f 633/633 567/567 631/631
f 567/567 633/633 576/576
f 634/634 585/585 577/577
f 636/636 585/585 634/634
f 586/586 637/637 588/588
f 639/639 588/588 637/637
f 642/642 589/589 640/640
f 642/642 594/594 589/589
f 645/645 595/595 643/643
f 645/645 603/603 595/595
f 648/648 626/626 651/651
f 629/629 626/626 648/648
f 648/648 632/632 629/629
f 653/653 632/632 648/648
f 632/632 653/653 656/656
f 656/656 653/653 659/659
f 662/662 659/659 653/653
f 653/653 664/664 662/662
f 666/666 632/632 656/656
f 632/632 666/666 635/635
f 666/666 638/638 635/635
f 669/669 638/638 666/666
f 672/672 638/638 669/669
f 672/672 641/641 638/638
f 675/675 641/641 672/672
f 675/675 644/644 641/641
f 675/675 646/646 644/644
f 646/646 675/675 678/678
f 600/600 679/679 676/676
f 600/600 676/676 597/597
f 598/598 677/677 673/673
f 598/598 673/673 591/591
f 592/592 674/674 670/670
f 592/592 670/670 582/582
f 671/671 579/579 583/583
f 671/671 667/667 579/579
f 580/580 668/668 657/657
f 580/580 657/657 560/560
f 561/561 658/658 660/660
f 561/561 660/660 557/557
f 661/661 663/663 558/558
f 558/558 663/663 555/555
f 606/606 553/553 614/614
f 553/553 606/606 550/550
f 609/609 574/574 563/563
f 574/574 609/609 612/612
f 610/610 551/551 607/607
f 551/551 610/610 564/564
f 649/649 621/621 623/623
f 621/621 649/649 652/652
f 624/624 616/616 650/650
f 654/654 650/650 616/616
f 617/617 619/619 655/655
f 655/655 619/619 665/665
f 647/647 601/601 604/604
f 601/601 647/647 680/680
f 681/681 686/686 684/684
f 686/686 681/681 688/688
f 681/681 691/691 688/688
f 694/694 691/691 681/681
f 691/691 694/694 697/697
f 697/697 694/694 700/700
f 703/703 700/700 694/694
f 694/694 705/705 703/703
f 707/707 691/691 697/697
f 707/707 710/710 691/691
f 707/707 713/713 710/710
f 716/716 713/713 707/707
f 719/719 713/713 716/716
f 719/719 722/722 713/713
f 725/725 722/722 719/719
f 725/725 728/728 722/722
f 725/725 731/731 728/728
f 731/731 725/725 734/734
f 737/737 743/743 740/740
f 743/743 737/737 745/745
f 747/747 752/752 750/750
f 752/752 747/747 754/754
f 757/757 701/701 704/704
f 701/701 757/757 759/759
f 762/762 702/702 760/760
f 762/762 698/698 702/702
f 765/765 699/699 763/763
f 699/699 765/765 708/708
f 717/717 709/709 766/766
f 717/717 766/766 768/768
f 718/718 769/769 720/720
f 771/771 720/720 769/769
f 774/774 721/721 772/772
f 774/774 726/726 721/721
f 777/777 727/727 775/775
f 777/777 735/735 727/727
f 780/780 758/758 783/783
f 761/761 758/758 780/780
f 780/780 764/764 761/761
f 785/785 764/764 780/780
f 764/764 785/785 788/788
f 788/788 785/785 791/791
f 794/794 791/791 785/785
f 785/785 796/796 794/794
f 798/798 764/764 788/788
f 764/764 798/798 767/767
f 798/798 770/770 767/767
f 801/801 770/770 798/798
f 804/804 770/770 801/801
f 804/804 773/773 770/770
f 807/807 773/773 804/804
f 807/807 776/776 773/773
f 807/807 778/778 776/776
f 778/778 807/807 810/810
f 732/732 811/811 808/808
f 732/732 808/808 729/729
f 730/730 809/809 805/805
f 730/730 805/805 723/723
f 724/724 806/806 802/802
f 724/724 802/802 714/714
f 715/715 803/803 711/711
f 711/711 803/803 799/799
f 712/712 800/800 789/789
f 712/712 789/789 692/692
f 693/693 790/790 792/792
f 693/693 792/792 689/689
f 793/793 795/795 690/690
f 690/690 795/795 687/687
f 738/738 685/685 746/746
f 685/685 738/738 682/682
f 741/741 706/706 695/695
f 706/706 741/741 744/744
f 739/739 742/742 683/683
f 696/696 683/683 742/742
f 781/781 753/753 755/755
f 753/753 781/781 784/784
f 748/748 782/782 756/756
f 782/782 748/748 786/786
f 749/749 751/751 787/787
f 787/787 751/751 797/797
f 779/779 812/812 733/733
f 779/779 733/733 736/736
f 813/813 817/817 815/815
f 817/817 813/813 820/820
f 823/823 817/817 820/820
f 826/826 817/817 823/823
f 817/817 826/826 829/829
f 829/829 826/826 832/832
f 832/832 835/835 829/829
f 829/829 835/835 837/837
f 823/823 839/839 826/826
f 842/842 839/839 823/823
f 845/845 839/839 842/842
f 845/845 848/848 839/839
f 845/845 851/851 848/848
f 854/854 851/851 845/845
f 854/854 857/857 851/851
f 857/857 854/854 860/860
f 863/863 857/857 860/860
f 863/863 866/866 857/857
f 869/869 875/875 872/872
f 872/872 875/875 877/877
f 879/879 885/885 882/882
f 885/885 879/879 887/887
f 833/833 889/889 836/836
f 889/889 833/833 891/891
f 892/892 834/834 894/894
f 827/827 894/894 834/834
f 895/895 828/828 897/897
f 840/840 897/897 828/828
f 898/898 841/841 849/849
f 900/900 898/898 849/849
f 852/852 901/901 850/850
f 901/901 852/852 903/903
f 904/904 853/853 906/906
f 858/858 906/906 853/853
f 907/907 859/859 909/909
f 867/867 909/909 859/859
f 890/890 914/914 912/912
f 914/914 890/890 893/893
f 896/896 914/914 893/893
f 917/917 914/914 896/896
f 914/914 917/917 920/920
f 920/920 917/917 923/923
f 923/923 926/926 920/920
f 920/920 926/926 928/928
f 896/896 930/930 917/917
f 899/899 930/930 896/896
f 902/902 930/930 899/899
f 930/930 902/902 933/933
f 902/902 936/936 933/933
f 905/905 936/936 902/902
f 905/905 939/939 936/936
f 939/939 905/905 908/908
f 910/910 939/939 908/908
f 910/910 942/942 939/939
f 943/943 864/864 940/940
f 861/861 940/940 864/864
f 862/862 937/937 941/941
f 937/937 862/862 855/855
f 856/856 934/934 938/938
f 934/934 856/856 846/846
f 843/843 935/935 847/847
f 935/935 843/843 931/931
f 844/844 918/918 932/932
f 918/918 844/844 824/824
f 825/825 924/924 919/919
f 924/924 825/825 821/821
f 822/822 927/927 925/925
f 927/927 822/822 814/814
f 873/873 816/816 818/818
f 816/816 873/873 878/878
f 870/870 838/838 876/876
f 838/838 870/870 830/830
f 871/871 874/874 819/819
f 871/871 819/819 831/831
f 883/883 886/886 915/915
f 915/915 886/886 913/913
f 916/916 921/921 880/880
f 916/916 880/880 884/884
f 922/922 888/888 881/881
f 888/888 922/922 929/929
f 944/944 911/911 865/865
f 868/868 865/865 911/911
f 945/945 950/950 947/947
f 945/945 947/947 952/952
f 953/953 948/948 955/955
f 953/953 955/955 958/958
f 961/961 959/959 956/956
f 959/959 961/961 964/964
f 967/967 965/965 962/962
f 965/965 967/967 969/969
f 971/971 975/975 973/973
f 975/975 971/971 977/977
f 979/979 981/981 974/974
f 979/979 974/974 976/976
f 983/983 985/985 982/982
f 983/983 982/982 980/980
f 986/986 989/989 987/987
f 989/989 986/986 984/984
f 991/991 993/993 988/988
f 991/991 988/988 990/990
f 995/995 997/997 994/994
f 995/995 994/994 992/992
f 998/998 1001/1001 999/999
f 1001/1001 998/998 996/996
f 1000/1000 1005/1005 1003/1003
f 1005/1005 1000/1000 1002/1002
f 1004/1004 1009/1009 1007/1007
f 1009/1009 1004/1004 1006/1006
f 1011/1011 1013/1013 1008/1008
f 1011/1011 1008/1008 1010/1010
f 1015/1015 1017/1017 1014/1014
f 1015/1015 1014/1014 1012/1012
f 1018/1018 1021/1021 1019/1019
f 1021/1021 1018/1018 1016/1016
f 1020/1020 1025/1025 1023/1023
f 1025/1025 1020/1020 1022/1022
f 1027/1027 1029/1029 1024/1024
f 1027/1027 1024/1024 1026/1026
f 1030/1030 1033/1033 1031/1031
f 1033/1033 1030/1030 1028/1028
f 1032/1032 1037/1037 1035/1035
f 1037/1037 1032/1032 1034/1034
f 1036/1036 1041/1041 1039/1039
f 1041/1041 1036/1036 1038/1038
f 1043/1043 1045/1045 1040/1040
f 1043/1043 1040/1040 1042/1042
f 1047/1047 1049/1049 1046/1046
f 1047/1047 1046/1046 1044/1044
f 970/970 968/968 1050/1050
f 970/970 1050/1050 1048/1048
f 951/951 963/963 949/949
f 949/949 963/963 957/957
f 966/966 954/954 960/960
f 954/954 966/966 946/946
f 1051/1051 1052/1052 978/978
f 978/978 972/972 1051/1051
f 1053/1053 1058/1058 1056/1056
f 1061/1061 1056/1056 1058/1058
f 1063/1063 1066/1066 1054/1054
f 1059/1059 1054/1054 1066/1066
f 1069/1069 1072/1072 1064/1064
f 1064/1064 1072/1072 1067/1067
f 1075/1075 1077/1077 1070/1070
f 1073/1073 1070/1070 1077/1077
f 1079/1079 1083/1083 1081/1081
f 1085/1085 1081/1081 1083/1083
f 1082/1082 1086/1086 1087/1087
f 1089/1089 1087/1087 1086/1086
f 1088/1088 1090/1090 1091/1091
f 1093/1093 1091/1091 1090/1090
f 1092/1092 1094/1094 1095/1095
f 1097/1097 1095/1095 1094/1094
f 1096/1096 1098/1098 1099/1099
f 1101/1101 1099/1099 1098/1098
f 1100/1100 1102/1102 1103/1103
f 1105/1105 1103/1103 1102/1102
f 1104/1104 1106/1106 1107/1107
f 1109/1109 1107/1107 1106/1106
f 1108/1108 1110/1110 1111/1111
f 1113/1113 1111/1111 1110/1110
f 1112/1112 1114/1114 1115/1115
f 1117/1117 1115/1115 1114/1114
f 1116/1116 1118/1118 1119/1119
f 1121/1121 1119/1119 1118/1118
f 1120/1120 1122/1122 1123/1123
f 1125/1125 1123/1123 1122/1122
f 1124/1124 1126/1126 1127/1127
f 1129/1129 1127/1127 1126/1126
f 1128/1128 1130/1130 1131/1131
f 1133/1133 1131/1131 1130/1130
f 1132/1132 1134/1134 1135/1135
f 1137/1137 1135/1135 1134/1134
f 1136/1136 1138/1138 1139/1139
f 1141/1141 1139/1139 1138/1138
f 1140/1140 1142/1142 1143/1143
f 1145/1145 1143/1143 1142/1142
f 1144/1144 1146/1146 1147/1147
f 1149/1149 1147/1147 1146/1146
f 1148/1148 1150/1150 1151/1151
f 1153/1153 1151/1151 1150/1150
f 1152/1152 1154/1154 1155/1155
f 1157/1157 1155/1155 1154/1154
f 1156/1156 1158/1158 1076/1076
f 1078/1078 1076/1076 1158/1158
f 1074/1074 1062/1062 1060/1060
f 1074/1074 1060/1060 1068/1068
f 1055/1055 1071/1071 1065/1065
f 1071/1071 1055/1055 1057/1057
f 1084/1084 1080/1080 1159/1159
f 1159/1159 1080/1080 1160/1160
f 1161/1161 1166/1166 1163/1163
f 1161/1161 1163/1163 1168/1168
f 1169/1169 1164/1164 1171/1171
f 1169/1169 1171/1171 1174/1174
f 1177/1177 1175/1175 1172/1172
f 1175/1175 1177/1177 1180/1180
f 1183/1183 1181/1181 1178/1178
f 1181/1181 1183/1183 1185/1185
f 1187/1187 1191/1191 1189/1189
f 1187/1187 1189/1189 1193/1193
f 1195/1195 1197/1197 1192/1192
f 1195/1195 1192/1192 1188/1188
f 1199/1199 1201/1201 1198/1198
f 1199/1199 1198/1198 1196/1196
f 1202/1202 1205/1205 1203/1203
f 1205/1205 1202/1202 1200/1200
f 1207/1207 1209/1209 1204/1204
f 1207/1207 1204/1204 1206/1206
f 1211/1211 1213/1213 1210/1210
f 1211/1211 1210/1210 1208/1208
f 1214/1214 1217/1217 1215/1215
f 1217/1217 1214/1214 1212/1212
f 1216/1216 1221/1221 1219/1219
f 1221/1221 1216/1216 1218/1218
f 1220/1220 1225/1225 1223/1223
f 1225/1225 1220/1220 1222/1222
f 1227/1227 1229/1229 1224/1224
f 1227/1227 1224/1224 1226/1226
f 1231/1231 1233/1233 1230/1230
f 1231/1231 1230/1230 1228/1228
f 1234/1234 1237/1237 1235/1235
f 1237/1237 1234/1234 1232/1232
f 1239/1239 1241/1241 1236/1236
f 1239/1239 1236/1236 1238/1238
f 1243/1243 1245/1245 1242/1242
f 1243/1243 1242/1242 1240/1240
f 1246/1246 1249/1249 1247/1247
f 1249/1249 1246/1246 1244/1244
f 1248/1248 1253/1253 1251/1251
f 1253/1253 1248/1248 1250/1250
f 1255/1255 1257/1257 1252/1252
f 1255/1255 1252/1252 1254/1254
f 1259/1259 1261/1261 1258/1258
f 1259/1259 1258/1258 1256/1256
f 1263/1263 1265/1265 1262/1262
f 1263/1263 1262/1262 1260/1260
f 1186/1186 1184/1184 1266/1266
f 1186/1186 1266/1266 1264/1264
f 1167/1167 1179/1179 1165/1165
f 1165/1165 1179/1179 1173/1173
f 1182/1182 1170/1170 1176/1176
f 1170/1170 1182/1182 1162/1162
f 1267/1267 1268/1268 1194/1194
f 1194/1194 1190/1190 1267/1267
