# generated by roqsim_scenes/tools (world-space, metres, Z-up)
v -7.044866 7.293089 6.257188
v -7.044866 7.293089 6.257188
v -7.044866 7.293089 6.257188
v -7.044866 7.330346 6.257188
v -7.044866 7.330346 6.257188
v -7.044866 7.330346 6.257188
v -7.017416 7.330346 6.257188
v -7.017416 7.330346 6.257188
v -7.017416 7.330346 6.257188
v -6.917219 7.293089 6.257188
v -6.917219 7.293089 6.257188
v -6.917219 7.293089 6.257188
v -6.944666 7.330346 6.257188
v -6.944666 7.330346 6.257188
v -6.944666 7.330346 6.257188
v -6.917219 7.330346 6.257188
v -6.917219 7.330346 6.257188
v -6.917219 7.330346 6.257188
v -6.944666 7.365249 6.257188
v -6.944666 7.365249 6.257188
v -7.017416 7.365249 6.257188
v -7.017416 7.365249 6.257188
v -7.044866 7.293089 6.105747
v -7.044866 7.293089 6.105747
v -7.044866 7.293089 6.105747
v -7.017416 7.330346 6.105747
v -7.017416 7.330346 6.105747
v -7.017416 7.330346 6.105747
v -7.044866 7.330346 6.105747
v -7.044866 7.330346 6.105747
v -7.044866 7.330346 6.105747
v -6.917219 7.293089 6.105747
v -6.917219 7.293089 6.105747
v -6.917219 7.293089 6.105747
v -6.944666 7.330346 6.105747
v -6.944666 7.330346 6.105747
v -6.944666 7.330346 6.105747
v -6.917219 7.330346 6.105747
v -6.917219 7.330346 6.105747
v -6.917219 7.330346 6.105747
v -7.017416 7.365249 6.105747
v -7.017416 7.365249 6.105747
v -6.944666 7.365249 6.105747
v -6.944666 7.365249 6.105747
v -7.019449 7.295208 6.201611
v -7.019449 7.295208 6.201611
v -7.019449 7.295208 6.201611
v -7.019449 7.295208 6.223740
v -7.019449 7.295208 6.223740
v -7.019449 7.295208 6.223740
v -6.942634 7.295208 6.201611
v -6.942634 7.295208 6.201611
v -6.942634 7.295208 6.201611
v -6.942634 7.295208 6.223740
v -6.942634 7.295208 6.223740
v -6.942634 7.295208 6.223740
v -6.917219 7.330346 6.200674
v -6.917219 7.330346 6.200674
v -6.917219 7.293089 6.200674
v -6.917219 7.293089 6.200674
v -6.944666 7.330346 6.200674
v -6.944666 7.330346 6.200674
v -7.044866 7.330346 6.200674
v -7.044866 7.330346 6.200674
v -7.017416 7.330346 6.200674
v -7.017416 7.330346 6.200674
v -7.044866 7.293089 6.200674
v -7.044866 7.293089 6.200674
v -6.944666 7.365249 6.200674
v -7.017416 7.365249 6.200674
v -7.020389 7.293089 6.224677
v -7.020389 7.293089 6.224677
v -7.020389 7.293089 6.224677
v -7.020389 7.283349 6.224677
v -7.020389 7.283349 6.224677
v -7.020389 7.283349 6.224677
v -7.020389 7.283349 6.200674
v -7.020389 7.283349 6.200674
v -7.020389 7.293089 6.133419
v -7.020389 7.293089 6.133419
v -7.020389 7.293089 6.133419
v -7.020389 7.283349 6.133419
v -7.020389 7.283349 6.133419
v -7.020389 7.283349 6.133419
v -6.941693 7.283349 6.133419
v -6.941693 7.283349 6.133419
v -6.941693 7.283349 6.133419
v -6.941693 7.293089 6.133419
v -6.941693 7.293089 6.133419
v -6.941693 7.293089 6.133419
v -6.941693 7.283349 6.200674
v -6.941693 7.283349 6.200674
v -6.941693 7.283349 6.224677
v -6.941693 7.283349 6.224677
v -6.941693 7.283349 6.224677
v -6.941693 7.293089 6.224677
v -6.941693 7.293089 6.224677
v -6.941693 7.293089 6.224677
v -7.019449 7.283349 6.201611
v -7.019449 7.283349 6.201611
v -7.019449 7.283349 6.201611
v -6.942634 7.283349 6.201611
v -6.942634 7.283349 6.201611
v -6.942634 7.283349 6.201611
v -7.019449 7.283349 6.223740
v -7.019449 7.283349 6.223740
v -7.019449 7.283349 6.223740
v -6.942634 7.283349 6.223740
v -6.942634 7.283349 6.223740
v -6.942634 7.283349 6.223740
v -6.981035 7.330857 9.418167
v -6.981035 7.330857 9.418167
v -6.972442 7.333160 9.418167
v -6.972442 7.333160 9.418167
v -6.981035 7.330857 7.293249
v -6.981035 7.330857 7.293249
v -6.981035 7.330857 7.293249
v -6.981035 7.330857 7.293249
v -6.972442 7.333160 7.293249
v -6.972442 7.333160 7.293249
v -6.972442 7.333160 7.293249
v -6.972442 7.333160 7.293249
v -6.966149 7.339455 9.418167
v -6.966149 7.339455 9.418167
v -6.966149 7.339455 7.293249
v -6.966149 7.339455 7.293249
v -6.966149 7.339455 7.293249
v -6.966149 7.339455 7.293249
v -6.963850 7.348052 9.418167
v -6.963850 7.348052 9.418167
v -6.963850 7.348052 7.293249
v -6.963850 7.348052 7.293249
v -6.963850 7.348052 7.293249
v -6.963850 7.348052 7.293249
v -6.989639 7.333160 7.293249
v -6.989639 7.333160 7.293249
v -6.989639 7.333160 7.293249
v -6.989639 7.333160 7.293249
v -6.989639 7.333160 9.418167
v -6.989639 7.333160 9.418167
v -6.995932 7.339455 7.293249
v -6.995932 7.339455 7.293249
v -6.995932 7.339455 7.293249
v -6.995932 7.339455 7.293249
v -6.995932 7.339455 9.418167
v -6.995932 7.339455 9.418167
v -6.998233 7.348052 7.293249
v -6.998233 7.348052 7.293249
v -6.998233 7.348052 7.293249
v -6.998233 7.348052 7.293249
v -6.998233 7.348052 9.418167
v -6.998233 7.348052 9.418167
v -6.995932 7.356651 7.293249
v -6.995932 7.356651 7.293249
v -6.995932 7.356651 7.293249
v -6.995932 7.356651 7.293249
v -6.995932 7.356651 9.418167
v -6.995932 7.356651 9.418167
v -6.989639 7.362945 7.293249
v -6.989639 7.362945 7.293249
v -6.989639 7.362945 7.293249
v -6.989639 7.362945 7.293249
v -6.989639 7.362945 9.418167
v -6.989639 7.362945 9.418167
v -6.981035 7.365249 7.293249
v -6.981035 7.365249 7.293249
v -6.981035 7.365249 7.293249
v -6.981035 7.365249 7.293249
v -6.981035 7.365249 9.418167
v -6.981035 7.365249 9.418167
v -6.972442 7.362945 7.293249
v -6.972442 7.362945 7.293249
v -6.972442 7.362945 7.293249
v -6.972442 7.362945 7.293249
v -6.972442 7.362945 9.418167
v -6.972442 7.362945 9.418167
v -6.966149 7.356651 7.293249
v -6.966149 7.356651 7.293249
v -6.966149 7.356651 7.293249
v -6.966149 7.356651 7.293249
v -6.966149 7.356651 9.418167
v -6.966149 7.356651 9.418167
v -6.963850 7.348052 6.226072
v -6.963850 7.348052 6.226072
v -6.966149 7.356651 6.226072
v -6.966149 7.356651 6.226072
v -6.972442 7.362945 6.226072
v -6.972442 7.362945 6.226072
v -6.981035 7.365249 6.226072
v -6.981035 7.365249 6.226072
v -6.989639 7.362945 6.226072
v -6.989639 7.362945 6.226072
v -6.995932 7.356651 6.226072
v -6.995932 7.356651 6.226072
v -6.998233 7.348052 6.226072
v -6.998233 7.348052 6.226072
v -6.995932 7.339455 6.226072
v -6.995932 7.339455 6.226072
v -6.989639 7.333160 6.226072
v -6.989639 7.333160 6.226072
v -6.981035 7.330857 6.226072
v -6.981035 7.330857 6.226072
v -6.972442 7.333160 6.226072
v -6.972442 7.333160 6.226072
v -6.966149 7.339455 6.226072
v -6.966149 7.339455 6.226072
v -7.044866 7.293089 1.527379
v -7.044866 7.293089 1.527379
v -7.044866 7.293089 1.527379
v -7.044866 7.330346 1.527379
v -7.044866 7.330346 1.527379
v -7.044866 7.330346 1.527379
v -7.017416 7.330346 1.527379
v -7.017416 7.330346 1.527379
v -7.017416 7.330346 1.527379
v -6.917219 7.293089 1.527379
v -6.917219 7.293089 1.527379
v -6.917219 7.293089 1.527379
v -6.944666 7.330346 1.527379
v -6.944666 7.330346 1.527379
v -6.944666 7.330346 1.527379
v -6.917219 7.330346 1.527379
v -6.917219 7.330346 1.527379
v -6.917219 7.330346 1.527379
v -6.944666 7.365249 1.527379
v -6.944666 7.365249 1.527379
v -7.017416 7.365249 1.527379
v -7.017416 7.365249 1.527379
v -7.044866 7.293089 1.375937
v -7.044866 7.293089 1.375937
v -7.044866 7.293089 1.375937
v -7.017416 7.330346 1.375937
v -7.017416 7.330346 1.375937
v -7.017416 7.330346 1.375937
v -7.044866 7.330346 1.375937
v -7.044866 7.330346 1.375937
v -7.044866 7.330346 1.375937
v -6.917219 7.293089 1.375937
v -6.917219 7.293089 1.375937
v -6.917219 7.293089 1.375937
v -6.944666 7.330346 1.375937
v -6.944666 7.330346 1.375937
v -6.944666 7.330346 1.375937
v -6.917219 7.330346 1.375937
v -6.917219 7.330346 1.375937
v -6.917219 7.330346 1.375937
v -7.017416 7.365249 1.375937
v -7.017416 7.365249 1.375937
v -6.944666 7.365249 1.375937
v -6.944666 7.365249 1.375937
v -7.019449 7.295208 1.471801
v -7.019449 7.295208 1.471801
v -7.019449 7.295208 1.471801
v -7.019449 7.295208 1.493930
v -7.019449 7.295208 1.493930
v -7.019449 7.295208 1.493930
v -6.942634 7.295208 1.471801
v -6.942634 7.295208 1.471801
v -6.942634 7.295208 1.471801
v -6.942634 7.295208 1.493930
v -6.942634 7.295208 1.493930
v -6.942634 7.295208 1.493930
v -6.917219 7.330346 1.470864
v -6.917219 7.330346 1.470864
v -6.917219 7.293089 1.470864
v -6.917219 7.293089 1.470864
v -6.944666 7.330346 1.470864
v -6.944666 7.330346 1.470864
v -7.044866 7.330346 1.470864
v -7.044866 7.330346 1.470864
v -7.017416 7.330346 1.470864
v -7.017416 7.330346 1.470864
v -7.044866 7.293089 1.470864
v -7.044866 7.293089 1.470864
v -6.944666 7.365249 1.470864
v -7.017416 7.365249 1.470864
v -7.020389 7.293089 1.494867
v -7.020389 7.293089 1.494867
v -7.020389 7.293089 1.494867
v -7.020389 7.283349 1.494867
v -7.020389 7.283349 1.494867
v -7.020389 7.283349 1.494867
v -7.020389 7.283349 1.470864
v -7.020389 7.283349 1.470864
v -7.020389 7.293089 1.403609
v -7.020389 7.293089 1.403609
v -7.020389 7.293089 1.403609
v -7.020389 7.283349 1.403609
v -7.020389 7.283349 1.403609
v -7.020389 7.283349 1.403609
v -6.941693 7.283349 1.403609
v -6.941693 7.283349 1.403609
v -6.941693 7.283349 1.403609
v -6.941693 7.293089 1.403609
v -6.941693 7.293089 1.403609
v -6.941693 7.293089 1.403609
v -6.941693 7.283349 1.470864
v -6.941693 7.283349 1.470864
v -6.941693 7.283349 1.494867
v -6.941693 7.283349 1.494867
v -6.941693 7.283349 1.494867
v -6.941693 7.293089 1.494867
v -6.941693 7.293089 1.494867
v -6.941693 7.293089 1.494867
v -7.019449 7.283349 1.471801
v -7.019449 7.283349 1.471801
v -7.019449 7.283349 1.471801
v -6.942634 7.283349 1.471801
v -6.942634 7.283349 1.471801
v -6.942634 7.283349 1.471801
v -7.019449 7.283349 1.493930
v -7.019449 7.283349 1.493930
v -7.019449 7.283349 1.493930
v -6.942634 7.283349 1.493930
v -6.942634 7.283349 1.493930
v -6.942634 7.283349 1.493930
v -6.981035 7.330857 4.688356
v -6.981035 7.330857 4.688356
v -6.972442 7.333160 4.688356
v -6.972442 7.333160 4.688356
v -6.981035 7.330857 2.563438
v -6.981035 7.330857 2.563438
v -6.981035 7.330857 2.563438
v -6.981035 7.330857 2.563438
v -6.972442 7.333160 2.563438
v -6.972442 7.333160 2.563438
v -6.972442 7.333160 2.563438
v -6.972442 7.333160 2.563438
v -6.966149 7.339455 4.688356
v -6.966149 7.339455 4.688356
v -6.966149 7.339455 2.563438
v -6.966149 7.339455 2.563438
v -6.966149 7.339455 2.563438
v -6.966149 7.339455 2.563438
v -6.963850 7.348052 4.688356
v -6.963850 7.348052 4.688356
v -6.963850 7.348052 2.563438
v -6.963850 7.348052 2.563438
v -6.963850 7.348052 2.563438
v -6.963850 7.348052 2.563438
v -6.989639 7.333160 2.563438
v -6.989639 7.333160 2.563438
v -6.989639 7.333160 2.563438
v -6.989639 7.333160 2.563438
v -6.989639 7.333160 4.688356
v -6.989639 7.333160 4.688356
v -6.995932 7.339455 2.563438
v -6.995932 7.339455 2.563438
v -6.995932 7.339455 2.563438
v -6.995932 7.339455 2.563438
v -6.995932 7.339455 4.688356
v -6.995932 7.339455 4.688356
v -6.998233 7.348052 2.563438
v -6.998233 7.348052 2.563438
v -6.998233 7.348052 2.563438
v -6.998233 7.348052 2.563438
v -6.998233 7.348052 4.688356
v -6.998233 7.348052 4.688356
v -6.995932 7.356651 2.563438
v -6.995932 7.356651 2.563438
v -6.995932 7.356651 2.563438
v -6.995932 7.356651 2.563438
v -6.995932 7.356651 4.688356
v -6.995932 7.356651 4.688356
v -6.989639 7.362945 2.563438
v -6.989639 7.362945 2.563438
v -6.989639 7.362945 2.563438
v -6.989639 7.362945 2.563438
v -6.989639 7.362945 4.688356
v -6.989639 7.362945 4.688356
v -6.981035 7.365249 2.563438
v -6.981035 7.365249 2.563438
v -6.981035 7.365249 2.563438
v -6.981035 7.365249 2.563438
v -6.981035 7.365249 4.688356
v -6.981035 7.365249 4.688356
v -6.972442 7.362945 2.563438
v -6.972442 7.362945 2.563438
v -6.972442 7.362945 2.563438
v -6.972442 7.362945 2.563438
v -6.972442 7.362945 4.688356
v -6.972442 7.362945 4.688356
v -6.966149 7.356651 2.563438
v -6.966149 7.356651 2.563438
v -6.966149 7.356651 2.563438
v -6.966149 7.356651 2.563438
v -6.966149 7.356651 4.688356
v -6.966149 7.356651 4.688356
v -6.963850 7.348052 1.496262
v -6.963850 7.348052 1.496262
v -6.966149 7.356651 1.496262
v -6.966149 7.356651 1.496262
v -6.972442 7.362945 1.496262
v -6.972442 7.362945 1.496262
v -6.981035 7.365249 1.496262
v -6.981035 7.365249 1.496262
v -6.989639 7.362945 1.496262
v -6.989639 7.362945 1.496262
v -6.995932 7.356651 1.496262
v -6.995932 7.356651 1.496262
v -6.998233 7.348052 1.496262
v -6.998233 7.348052 1.496262
v -6.995932 7.339455 1.496262
v -6.995932 7.339455 1.496262
v -6.989639 7.333160 1.496262
v -6.989639 7.333160 1.496262
v -6.981035 7.330857 1.496262
v -6.981035 7.330857 1.496262
v -6.972442 7.333160 1.496262
v -6.972442 7.333160 1.496262
v -6.966149 7.339455 1.496262
v -6.966149 7.339455 1.496262
v 6.948065 -7.600364 9.418167
v 6.948065 -7.600364 9.418167
v 6.948065 -7.600364 7.293249
v 6.948065 -7.600364 7.293249
v 6.948065 -7.600364 7.293249
v 6.948065 -7.600364 7.293249
v 6.956660 -7.602669 9.418167
v 6.956660 -7.602669 9.418167
v 6.956660 -7.602669 7.293249
v 6.956660 -7.602669 7.293249
v 6.956660 -7.602669 7.293249
v 6.956660 -7.602669 7.293249
v 6.962954 -7.608962 9.418167
v 6.962954 -7.608962 9.418167
v 6.962954 -7.608962 7.293249
v 6.962954 -7.608962 7.293249
v 6.962954 -7.608962 7.293249
v 6.962954 -7.608962 7.293249
v 6.965251 -7.617562 9.418167
v 6.965251 -7.617562 9.418167
v 6.965251 -7.617562 7.293249
v 6.965251 -7.617562 7.293249
v 6.965251 -7.617562 7.293249
v 6.965251 -7.617562 7.293249
v 6.939463 -7.602669 7.293249
v 6.939463 -7.602669 7.293249
v 6.939463 -7.602669 7.293249
v 6.939463 -7.602669 7.293249
v 6.939463 -7.602669 9.418167
v 6.939463 -7.602669 9.418167
v 6.933171 -7.608962 7.293249
v 6.933171 -7.608962 7.293249
v 6.933171 -7.608962 7.293249
v 6.933171 -7.608962 7.293249
v 6.933171 -7.608962 9.418167
v 6.933171 -7.608962 9.418167
v 6.930868 -7.617562 7.293249
v 6.930868 -7.617562 7.293249
v 6.930868 -7.617562 7.293249
v 6.930868 -7.617562 7.293249
v 6.930868 -7.617562 9.418167
v 6.930868 -7.617562 9.418167
v 6.933171 -7.626159 7.293249
v 6.933171 -7.626159 7.293249
v 6.933171 -7.626159 7.293249
v 6.933171 -7.626159 7.293249
v 6.933171 -7.626159 9.418167
v 6.933171 -7.626159 9.418167
v 6.939463 -7.632453 7.293249
v 6.939463 -7.632453 7.293249
v 6.939463 -7.632453 7.293249
v 6.939463 -7.632453 7.293249
v 6.939463 -7.632453 9.418167
v 6.939463 -7.632453 9.418167
v 6.948065 -7.634755 7.293249
v 6.948065 -7.634755 7.293249
v 6.948065 -7.634755 7.293249
v 6.948065 -7.634755 7.293249
v 6.948065 -7.634755 9.418167
v 6.948065 -7.634755 9.418167
v 6.956660 -7.632453 7.293249
v 6.956660 -7.632453 7.293249
v 6.956660 -7.632453 7.293249
v 6.956660 -7.632453 7.293249
v 6.956660 -7.632453 9.418167
v 6.956660 -7.632453 9.418167
v 6.962954 -7.626159 7.293249
v 6.962954 -7.626159 7.293249
v 6.962954 -7.626159 7.293249
v 6.962954 -7.626159 7.293249
v 6.962954 -7.626159 9.418167
v 6.962954 -7.626159 9.418167
v 6.965251 -7.617562 6.226072
v 6.965251 -7.617562 6.226072
v 6.962954 -7.626159 6.226072
v 6.962954 -7.626159 6.226072
v 6.956660 -7.632453 6.226072
v 6.956660 -7.632453 6.226072
v 6.948065 -7.634755 6.226072
v 6.948065 -7.634755 6.226072
v 6.939463 -7.632453 6.226072
v 6.939463 -7.632453 6.226072
v 6.933171 -7.626159 6.226072
v 6.933171 -7.626159 6.226072
v 6.930868 -7.617562 6.226072
v 6.930868 -7.617562 6.226072
v 6.933171 -7.608962 6.226072
v 6.933171 -7.608962 6.226072
v 6.939463 -7.602669 6.226072
v 6.939463 -7.602669 6.226072
v 6.948065 -7.600364 6.226072
v 6.948065 -7.600364 6.226072
v 6.956660 -7.602669 6.226072
v 6.956660 -7.602669 6.226072
v 6.962954 -7.608962 6.226072
v 6.962954 -7.608962 6.226072
v 6.884239 -7.562597 6.257188
v 6.884239 -7.562597 6.257188
v 6.884239 -7.562597 6.257188
v 6.911685 -7.599853 6.257188
v 6.911685 -7.599853 6.257188
v 6.911685 -7.599853 6.257188
v 6.884239 -7.599853 6.257188
v 6.884239 -7.599853 6.257188
v 6.884239 -7.599853 6.257188
v 7.011886 -7.562597 6.257188
v 7.011886 -7.562597 6.257188
v 7.011886 -7.562597 6.257188
v 6.984434 -7.599853 6.257188
v 6.984434 -7.599853 6.257188
v 6.984434 -7.599853 6.257188
v 7.011886 -7.599853 6.257188
v 7.011886 -7.599853 6.257188
v 7.011886 -7.599853 6.257188
v 6.984434 -7.634755 6.257188
v 6.984434 -7.634755 6.257188
v 6.911685 -7.634755 6.257188
v 6.911685 -7.634755 6.257188
v 6.884239 -7.562597 6.105747
v 6.884239 -7.562597 6.105747
v 6.884239 -7.562597 6.105747
v 6.884239 -7.599853 6.105747
v 6.884239 -7.599853 6.105747
v 6.884239 -7.599853 6.105747
v 6.911685 -7.599853 6.105747
v 6.911685 -7.599853 6.105747
v 6.911685 -7.599853 6.105747
v 7.011886 -7.562597 6.105747
v 7.011886 -7.562597 6.105747
v 7.011886 -7.562597 6.105747
v 6.984434 -7.599853 6.105747
v 6.984434 -7.599853 6.105747
v 6.984434 -7.599853 6.105747
v 7.011886 -7.599853 6.105747
v 7.011886 -7.599853 6.105747
v 7.011886 -7.599853 6.105747
v 6.911685 -7.634755 6.105747
v 6.911685 -7.634755 6.105747
v 6.984434 -7.634755 6.105747
v 6.984434 -7.634755 6.105747
v 6.909651 -7.564715 6.201611
v 6.909651 -7.564715 6.201611
v 6.909651 -7.564715 6.201611
v 6.986468 -7.564715 6.201611
v 6.986468 -7.564715 6.201611
v 6.986468 -7.564715 6.201611
v 6.909651 -7.564715 6.223740
v 6.909651 -7.564715 6.223740
v 6.909651 -7.564715 6.223740
v 6.986468 -7.564715 6.223740
v 6.986468 -7.564715 6.223740
v 6.986468 -7.564715 6.223740
v 7.011886 -7.599853 6.200674
v 7.011886 -7.599853 6.200674
v 7.011886 -7.562597 6.200674
v 7.011886 -7.562597 6.200674
v 6.984434 -7.599853 6.200674
v 6.984434 -7.599853 6.200674
v 6.884239 -7.599853 6.200674
v 6.884239 -7.599853 6.200674
v 6.911685 -7.599853 6.200674
v 6.911685 -7.599853 6.200674
v 6.884239 -7.562597 6.200674
v 6.884239 -7.562597 6.200674
v 6.984434 -7.634755 6.200674
v 6.911685 -7.634755 6.200674
v 6.908714 -7.562597 6.224677
v 6.908714 -7.562597 6.224677
v 6.908714 -7.562597 6.224677
v 6.908714 -7.552858 6.200674
v 6.908714 -7.552858 6.200674
v 6.908714 -7.552858 6.224677
v 6.908714 -7.552858 6.224677
v 6.908714 -7.552858 6.224677
v 6.908714 -7.562597 6.133419
v 6.908714 -7.562597 6.133419
v 6.908714 -7.562597 6.133419
v 6.908714 -7.552858 6.133419
v 6.908714 -7.552858 6.133419
v 6.908714 -7.552858 6.133419
v 6.987410 -7.552858 6.133419
v 6.987410 -7.552858 6.133419
v 6.987410 -7.552858 6.133419
v 6.987410 -7.562597 6.133419
v 6.987410 -7.562597 6.133419
v 6.987410 -7.562597 6.133419
v 6.987410 -7.552858 6.200674
v 6.987410 -7.552858 6.200674
v 6.987410 -7.562597 6.224677
v 6.987410 -7.562597 6.224677
v 6.987410 -7.562597 6.224677
v 6.987410 -7.552858 6.224677
v 6.987410 -7.552858 6.224677
v 6.987410 -7.552858 6.224677
v 6.909651 -7.552858 6.201611
v 6.909651 -7.552858 6.201611
v 6.909651 -7.552858 6.201611
v 6.986468 -7.552858 6.201611
v 6.986468 -7.552858 6.201611
v 6.986468 -7.552858 6.201611
v 6.909651 -7.552858 6.223740
v 6.909651 -7.552858 6.223740
v 6.909651 -7.552858 6.223740
v 6.986468 -7.552858 6.223740
v 6.986468 -7.552858 6.223740
v 6.986468 -7.552858 6.223740
v 14.888021 -4.893578 1.527379
v 14.888021 -4.893578 1.527379
v 14.888021 -4.893578 1.527379
v 14.925276 -4.893578 1.527379
v 14.925276 -4.893578 1.527379
v 14.925276 -4.893578 1.527379
v 14.925276 -4.921026 1.527379
v 14.925276 -4.921026 1.527379
v 14.925276 -4.921026 1.527379
v 14.888021 -5.021224 1.527379
v 14.888021 -5.021224 1.527379
v 14.888021 -5.021224 1.527379
v 14.925276 -4.993776 1.527379
v 14.925276 -4.993776 1.527379
v 14.925276 -4.993776 1.527379
v 14.925276 -5.021224 1.527379
v 14.925276 -5.021224 1.527379
v 14.925276 -5.021224 1.527379
v 14.960180 -4.993776 1.527379
v 14.960180 -4.993776 1.527379
v 14.960180 -4.921026 1.527379
v 14.960180 -4.921026 1.527379
v 14.888021 -4.893578 1.375937
v 14.888021 -4.893578 1.375937
v 14.888021 -4.893578 1.375937
v 14.925276 -4.921026 1.375937
v 14.925276 -4.921026 1.375937
v 14.925276 -4.921026 1.375937
v 14.925276 -4.893578 1.375937
v 14.925276 -4.893578 1.375937
v 14.925276 -4.893578 1.375937
v 14.888021 -5.021224 1.375937
v 14.888021 -5.021224 1.375937
v 14.888021 -5.021224 1.375937
v 14.925276 -4.993776 1.375937
v 14.925276 -4.993776 1.375937
v 14.925276 -4.993776 1.375937
v 14.925276 -5.021224 1.375937
v 14.925276 -5.021224 1.375937
v 14.925276 -5.021224 1.375937
v 14.960180 -4.921026 1.375937
v 14.960180 -4.921026 1.375937
v 14.960180 -4.993776 1.375937
v 14.960180 -4.993776 1.375937
v 14.890138 -4.918993 1.471801
v 14.890138 -4.918993 1.471801
v 14.890138 -4.918993 1.471801
v 14.890138 -4.918993 1.493930
v 14.890138 -4.918993 1.493930
v 14.890138 -4.918993 1.493930
v 14.890138 -4.995809 1.471801
v 14.890138 -4.995809 1.471801
v 14.890138 -4.995809 1.471801
v 14.890138 -4.995809 1.493930
v 14.890138 -4.995809 1.493930
v 14.890138 -4.995809 1.493930
v 14.925276 -5.021224 1.470864
v 14.925276 -5.021224 1.470864
v 14.888021 -5.021224 1.470864
v 14.888021 -5.021224 1.470864
v 14.925276 -4.993776 1.470864
v 14.925276 -4.993776 1.470864
v 14.925276 -4.893578 1.470864
v 14.925276 -4.893578 1.470864
v 14.925276 -4.921026 1.470864
v 14.925276 -4.921026 1.470864
v 14.888021 -4.893578 1.470864
v 14.888021 -4.893578 1.470864
v 14.960180 -4.993776 1.470864
v 14.960180 -4.921026 1.470864
v 14.888021 -4.918053 1.494867
v 14.888021 -4.918053 1.494867
v 14.888021 -4.918053 1.494867
v 14.878279 -4.918053 1.494867
v 14.878279 -4.918053 1.494867
v 14.878279 -4.918053 1.494867
v 14.878279 -4.918053 1.470864
v 14.878279 -4.918053 1.470864
v 14.888021 -4.918053 1.403609
v 14.888021 -4.918053 1.403609
v 14.888021 -4.918053 1.403609
v 14.878279 -4.918053 1.403609
v 14.878279 -4.918053 1.403609
v 14.878279 -4.918053 1.403609
v 14.878279 -4.996749 1.403609
v 14.878279 -4.996749 1.403609
v 14.878279 -4.996749 1.403609
v 14.888021 -4.996749 1.403609
v 14.888021 -4.996749 1.403609
v 14.888021 -4.996749 1.403609
v 14.878279 -4.996749 1.470864
v 14.878279 -4.996749 1.470864
v 14.878279 -4.996749 1.494867
v 14.878279 -4.996749 1.494867
v 14.878279 -4.996749 1.494867
v 14.888021 -4.996749 1.494867
v 14.888021 -4.996749 1.494867
v 14.888021 -4.996749 1.494867
v 14.878279 -4.918993 1.471801
v 14.878279 -4.918993 1.471801
v 14.878279 -4.918993 1.471801
v 14.878279 -4.995809 1.471801
v 14.878279 -4.995809 1.471801
v 14.878279 -4.995809 1.471801
v 14.878279 -4.918993 1.493930
v 14.878279 -4.918993 1.493930
v 14.878279 -4.918993 1.493930
v 14.878279 -4.995809 1.493930
v 14.878279 -4.995809 1.493930
v 14.878279 -4.995809 1.493930
v 14.925787 -4.957407 4.688356
v 14.925787 -4.957407 4.688356
v 14.928092 -4.965999 4.688356
v 14.928092 -4.965999 4.688356
v 14.925787 -4.957407 2.563438
v 14.925787 -4.957407 2.563438
v 14.925787 -4.957407 2.563438
v 14.925787 -4.957407 2.563438
v 14.928092 -4.965999 2.563438
v 14.928092 -4.965999 2.563438
v 14.928092 -4.965999 2.563438
v 14.928092 -4.965999 2.563438
v 14.934385 -4.972293 4.688356
v 14.934385 -4.972293 4.688356
v 14.934385 -4.972293 2.563438
v 14.934385 -4.972293 2.563438
v 14.934385 -4.972293 2.563438
v 14.934385 -4.972293 2.563438
v 14.942983 -4.974592 4.688356
v 14.942983 -4.974592 4.688356
v 14.942983 -4.974592 2.563438
v 14.942983 -4.974592 2.563438
v 14.942983 -4.974592 2.563438
v 14.942983 -4.974592 2.563438
v 14.928092 -4.948802 2.563438
v 14.928092 -4.948802 2.563438
v 14.928092 -4.948802 2.563438
v 14.928092 -4.948802 2.563438
v 14.928092 -4.948802 4.688356
v 14.928092 -4.948802 4.688356
v 14.934385 -4.942509 2.563438
v 14.934385 -4.942509 2.563438
v 14.934385 -4.942509 2.563438
v 14.934385 -4.942509 2.563438
v 14.934385 -4.942509 4.688356
v 14.934385 -4.942509 4.688356
v 14.942983 -4.940210 2.563438
v 14.942983 -4.940210 2.563438
v 14.942983 -4.940210 2.563438
v 14.942983 -4.940210 2.563438
v 14.942983 -4.940210 4.688356
v 14.942983 -4.940210 4.688356
v 14.951582 -4.942509 2.563438
v 14.951582 -4.942509 2.563438
v 14.951582 -4.942509 2.563438
v 14.951582 -4.942509 2.563438
v 14.951582 -4.942509 4.688356
v 14.951582 -4.942509 4.688356
v 14.957875 -4.948802 2.563438
v 14.957875 -4.948802 2.563438
v 14.957875 -4.948802 2.563438
v 14.957875 -4.948802 2.563438
v 14.957875 -4.948802 4.688356
v 14.957875 -4.948802 4.688356
v 14.960180 -4.957407 2.563438
v 14.960180 -4.957407 2.563438
v 14.960180 -4.957407 2.563438
v 14.960180 -4.957407 2.563438
v 14.960180 -4.957407 4.688356
v 14.960180 -4.957407 4.688356
v 14.957875 -4.965999 2.563438
v 14.957875 -4.965999 2.563438
v 14.957875 -4.965999 2.563438
v 14.957875 -4.965999 2.563438
v 14.957875 -4.965999 4.688356
v 14.957875 -4.965999 4.688356
v 14.951582 -4.972293 2.563438
v 14.951582 -4.972293 2.563438
v 14.951582 -4.972293 2.563438
v 14.951582 -4.972293 2.563438
v 14.951582 -4.972293 4.688356
v 14.951582 -4.972293 4.688356
v 14.942983 -4.974592 1.496262
v 14.942983 -4.974592 1.496262
v 14.951582 -4.972293 1.496262
v 14.951582 -4.972293 1.496262
v 14.957875 -4.965999 1.496262
v 14.957875 -4.965999 1.496262
v 14.960180 -4.957407 1.496262
v 14.960180 -4.957407 1.496262
v 14.957875 -4.948802 1.496262
v 14.957875 -4.948802 1.496262
v 14.951582 -4.942509 1.496262
v 14.951582 -4.942509 1.496262
v 14.942983 -4.940210 1.496262
v 14.942983 -4.940210 1.496262
v 14.934385 -4.942509 1.496262
v 14.934385 -4.942509 1.496262
v 14.928092 -4.948802 1.496262
v 14.928092 -4.948802 1.496262
v 14.925787 -4.957407 1.496262
v 14.925787 -4.957407 1.496262
v 14.928092 -4.965999 1.496262
v 14.928092 -4.965999 1.496262
v 14.934385 -4.972293 1.496262
v 14.934385 -4.972293 1.496262
vt 0.023606 0.835332
vt 0.332719 0.444325
vt 0.341571 0.493419
vt 0.131269 0.835332
vt 0.022044 0.032093
vt 0.225055 0.444325
vt 0.131269 0.756006
vt 0.101370 0.032093
vt 0.221987 0.442564
vt 0.023606 0.466426
vt 0.225055 0.444325
vt 0.754760 0.494930
vt 0.131270 0.545751
vt 0.022044 0.032093
vt 0.121123 0.442564
vt 0.131270 0.466426
vt 0.332719 0.444325
vt 0.101370 0.032093
vt 0.232134 0.545751
vt 0.221987 0.442564
vt 0.232134 0.756006
vt 0.121123 0.442564
vt 0.023606 0.466426
vt 0.332719 0.006687
vt 0.343363 0.003249
vt 0.131269 0.545752
vt 0.101370 0.469730
vt 0.221988 0.004926
vt 0.131269 0.466426
vt 0.022044 0.469730
vt 0.225055 0.006687
vt 0.023606 0.835332
vt 0.225055 0.006687
vt 0.756552 0.004759
vt 0.131269 0.756007
vt 0.022044 0.469731
vt 0.121123 0.004926
vt 0.131269 0.835332
vt 0.332719 0.006687
vt 0.101370 0.469731
vt 0.232134 0.545752
vt 0.121123 0.004926
vt 0.232134 0.756007
vt 0.221987 0.004926
vt 0.008229 0.855835
vt 0.388705 0.621816
vt 0.971736 0.406450
vt 0.008194 0.976934
vt 0.389316 0.710530
vt 0.969616 0.098495
vt 0.428600 0.855956
vt 0.969615 0.098495
vt 0.341169 0.622143
vt 0.428565 0.977054
vt 0.341780 0.710857
vt 0.971736 0.406450
vt 0.332719 0.281009
vt 0.101370 0.195409
vt 0.225055 0.281009
vt 0.755428 0.312009
vt 0.022044 0.195409
vt 0.121123 0.279247
vt 0.022044 0.195409
vt 0.225055 0.281009
vt 0.101370 0.195409
vt 0.221987 0.279248
vt 0.332719 0.281009
vt 0.342240 0.310499
vt 0.221987 0.279247
vt 0.121123 0.279247
vt 0.275062 0.524337
vt 0.283257 0.503475
vt 0.421203 0.388476
vt 0.247476 0.524337
vt 0.311400 0.503475
vt 0.449563 0.976363
vt 0.247476 0.592321
vt 0.449991 0.861147
vt 0.275062 0.782818
vt 0.283253 0.730863
vt 0.422283 0.093103
vt 0.247476 0.782818
vt 0.311398 0.730863
vt 0.451191 0.538302
vt 0.311398 0.503467
vt 0.429858 0.783126
vt 0.828924 0.539706
vt 0.283253 0.503467
vt 0.402271 0.783122
vt 0.676978 0.094034
vt 0.429887 0.592630
vt 0.827724 0.862551
vt 0.429898 0.524646
vt 0.311398 0.730855
vt 0.827295 0.977768
vt 0.402312 0.524641
vt 0.283255 0.730854
vt 0.675898 0.389407
vt 0.454470 0.865659
vt 0.341169 0.622143
vt 0.924200 0.406777
vt 0.823212 0.867030
vt 0.922079 0.098823
vt 0.388705 0.621816
vt 0.454075 0.971884
vt 0.341780 0.710858
vt 0.922080 0.098823
vt 0.822817 0.973255
vt 0.389316 0.710530
vt 0.924200 0.406777
vt 0.830712 0.016047
vt 0.830712 0.016047
vt 0.822299 0.015875
vt 0.822299 0.015875
vt 0.820333 0.524191
vt 0.820333 0.524191
vt 0.934545 0.440176
vt 0.934545 0.440176
vt 0.811920 0.524019
vt 0.811920 0.524019
vt 0.926133 0.440006
vt 0.926133 0.440006
vt 0.813886 0.015703
vt 0.813886 0.015703
vt 0.803508 0.523847
vt 0.803508 0.523847
vt 0.917720 0.439836
vt 0.917720 0.439836
vt 0.805474 0.015531
vt 0.805474 0.015531
vt 0.795095 0.523675
vt 0.795095 0.523675
vt 0.909307 0.439666
vt 0.909307 0.439666
vt 0.828746 0.524363
vt 0.828746 0.524363
vt 0.942958 0.440345
vt 0.942958 0.440345
vt 0.839124 0.016219
vt 0.839124 0.016219
vt 0.837158 0.524534
vt 0.837158 0.524534
vt 0.951371 0.440515
vt 0.951371 0.440515
vt 0.847537 0.016390
vt 0.847537 0.016390
vt 0.845571 0.524706
vt 0.845571 0.524706
vt 0.959783 0.440685
vt 0.959783 0.440685
vt 0.855950 0.016562
vt 0.855950 0.016562
vt 0.853984 0.524878
vt 0.853984 0.524878
vt 0.968196 0.440855
vt 0.968196 0.440855
vt 0.864362 0.016734
vt 0.864362 0.016734
vt 0.862396 0.525050
vt 0.862396 0.525050
vt 0.976609 0.441025
vt 0.976609 0.441025
vt 0.872775 0.016906
vt 0.872775 0.016906
vt 0.870809 0.525222
vt 0.769857 0.523160
vt 0.884069 0.439157
vt 0.985021 0.441195
vt 0.881188 0.017078
vt 0.780236 0.015016
vt 0.778270 0.523332
vt 0.778270 0.523332
vt 0.892482 0.439326
vt 0.892482 0.439326
vt 0.788648 0.015188
vt 0.788648 0.015188
vt 0.786682 0.523503
vt 0.786682 0.523503
vt 0.900895 0.439496
vt 0.900895 0.439496
vt 0.797061 0.015359
vt 0.797061 0.015359
vt 0.899049 0.947812
vt 0.899049 0.947812
vt 0.890636 0.947642
vt 0.890636 0.947642
vt 0.882223 0.947473
vt 0.882223 0.947473
vt 0.873811 0.947303
vt 0.974763 0.949341
vt 0.966350 0.949171
vt 0.966350 0.949171
vt 0.957938 0.949001
vt 0.957938 0.949001
vt 0.949525 0.948831
vt 0.949525 0.948831
vt 0.941112 0.948661
vt 0.941112 0.948661
vt 0.932700 0.948492
vt 0.932700 0.948492
vt 0.924287 0.948322
vt 0.924287 0.948322
vt 0.915874 0.948152
vt 0.915874 0.948152
vt 0.907462 0.947982
vt 0.907462 0.947982
vt 0.023606 0.835332
vt 0.332719 0.444325
vt 0.341571 0.493419
vt 0.131269 0.835332
vt 0.022044 0.032093
vt 0.225055 0.444325
vt 0.131269 0.756006
vt 0.101370 0.032093
vt 0.221987 0.442564
vt 0.023606 0.466426
vt 0.225055 0.444325
vt 0.754760 0.494930
vt 0.131270 0.545751
vt 0.022044 0.032093
vt 0.121123 0.442564
vt 0.131270 0.466426
vt 0.332719 0.444325
vt 0.101370 0.032093
vt 0.232134 0.545751
vt 0.221987 0.442564
vt 0.232134 0.756006
vt 0.121123 0.442564
vt 0.023606 0.466426
vt 0.332719 0.006687
vt 0.343363 0.003249
vt 0.131269 0.545752
vt 0.101370 0.469730
vt 0.221988 0.004926
vt 0.131269 0.466426
vt 0.022044 0.469730
vt 0.225055 0.006687
vt 0.023606 0.835332
vt 0.225055 0.006687
vt 0.756552 0.004759
vt 0.131269 0.756007
vt 0.022044 0.469731
vt 0.121123 0.004926
vt 0.131269 0.835332
vt 0.332719 0.006687
vt 0.101370 0.469731
vt 0.232134 0.545752
vt 0.121123 0.004926
vt 0.232134 0.756007
vt 0.221987 0.004926
vt 0.008229 0.855835
vt 0.388705 0.621816
vt 0.971736 0.406450
vt 0.008194 0.976934
vt 0.389316 0.710530
vt 0.969616 0.098495
vt 0.428600 0.855956
vt 0.969615 0.098495
vt 0.341169 0.622143
vt 0.428565 0.977054
vt 0.341780 0.710857
vt 0.971736 0.406450
vt 0.332719 0.281009
vt 0.101370 0.195409
vt 0.225055 0.281009
vt 0.755428 0.312009
vt 0.022044 0.195409
vt 0.121123 0.279247
vt 0.022044 0.195409
vt 0.225055 0.281009
vt 0.101370 0.195409
vt 0.221987 0.279248
vt 0.332719 0.281009
vt 0.342240 0.310499
vt 0.221987 0.279247
vt 0.121123 0.279247
vt 0.275062 0.524337
vt 0.283257 0.503475
vt 0.421203 0.388476
vt 0.247476 0.524337
vt 0.311400 0.503475
vt 0.449563 0.976363
vt 0.247476 0.592321
vt 0.449991 0.861147
vt 0.275062 0.782818
vt 0.283253 0.730863
vt 0.422283 0.093103
vt 0.247476 0.782818
vt 0.311398 0.730863
vt 0.451191 0.538302
vt 0.311398 0.503467
vt 0.429858 0.783126
vt 0.828924 0.539706
vt 0.283253 0.503467
vt 0.402271 0.783122
vt 0.676978 0.094034
vt 0.429887 0.592630
vt 0.827724 0.862551
vt 0.429898 0.524646
vt 0.311398 0.730855
vt 0.827295 0.977768
vt 0.402312 0.524641
vt 0.283255 0.730854
vt 0.675898 0.389407
vt 0.454470 0.865659
vt 0.341169 0.622143
vt 0.924200 0.406777
vt 0.823212 0.867030
vt 0.922079 0.098823
vt 0.388705 0.621816
vt 0.454075 0.971884
vt 0.341780 0.710858
vt 0.922080 0.098823
vt 0.822817 0.973255
vt 0.389316 0.710530
vt 0.924200 0.406777
vt 0.830712 0.016047
vt 0.830712 0.016047
vt 0.822299 0.015875
vt 0.822299 0.015875
vt 0.820333 0.524191
vt 0.820333 0.524191
vt 0.934545 0.440176
vt 0.934545 0.440176
vt 0.811920 0.524019
vt 0.811920 0.524019
vt 0.926133 0.440006
vt 0.926133 0.440006
vt 0.813886 0.015703
vt 0.813886 0.015703
vt 0.803508 0.523847
vt 0.803508 0.523847
vt 0.917720 0.439836
vt 0.917720 0.439836
vt 0.805474 0.015531
vt 0.805474 0.015531
vt 0.795095 0.523675
vt 0.795095 0.523675
vt 0.909307 0.439666
vt 0.909307 0.439666
vt 0.828746 0.524363
vt 0.828746 0.524363
vt 0.942958 0.440345
vt 0.942958 0.440345
vt 0.839124 0.016219
vt 0.839124 0.016219
vt 0.837158 0.524534
vt 0.837158 0.524534
vt 0.951371 0.440515
vt 0.951371 0.440515
vt 0.847537 0.016390
vt 0.847537 0.016390
vt 0.845571 0.524706
vt 0.845571 0.524706
vt 0.959783 0.440685
vt 0.959783 0.440685
vt 0.855950 0.016562
vt 0.855950 0.016562
vt 0.853984 0.524878
vt 0.853984 0.524878
vt 0.968196 0.440855
vt 0.968196 0.440855
vt 0.864362 0.016734
vt 0.864362 0.016734
vt 0.862396 0.525050
vt 0.862396 0.525050
vt 0.976609 0.441025
vt 0.976609 0.441025
vt 0.872775 0.016906
vt 0.872775 0.016906
vt 0.870809 0.525222
vt 0.769857 0.523160
vt 0.884069 0.439157
vt 0.985021 0.441195
vt 0.881188 0.017078
vt 0.780236 0.015016
vt 0.778270 0.523332
vt 0.778270 0.523332
vt 0.892482 0.439326
vt 0.892482 0.439326
vt 0.788648 0.015188
vt 0.788648 0.015188
vt 0.786682 0.523503
vt 0.786682 0.523503
vt 0.900895 0.439496
vt 0.900895 0.439496
vt 0.797061 0.015359
vt 0.797061 0.015359
vt 0.899049 0.947812
vt 0.899049 0.947812
vt 0.890636 0.947642
vt 0.890636 0.947642
vt 0.882223 0.947473
vt 0.882223 0.947473
vt 0.873811 0.947303
vt 0.974763 0.949341
vt 0.966350 0.949171
vt 0.966350 0.949171
vt 0.957938 0.949001
vt 0.957938 0.949001
vt 0.949525 0.948831
vt 0.949525 0.948831
vt 0.941112 0.948661
vt 0.941112 0.948661
vt 0.932700 0.948492
vt 0.932700 0.948492
vt 0.924287 0.948322
vt 0.924287 0.948322
vt 0.915874 0.948152
vt 0.915874 0.948152
vt 0.907462 0.947982
vt 0.907462 0.947982
vt 0.830712 0.016047
vt 0.830712 0.016047
vt 0.820333 0.524191
vt 0.820333 0.524191
vt 0.934545 0.440176
vt 0.934545 0.440176
vt 0.822299 0.015875
vt 0.822299 0.015875
vt 0.811920 0.524019
vt 0.811920 0.524019
vt 0.926133 0.440006
vt 0.926133 0.440006
vt 0.813886 0.015703
vt 0.813886 0.015703
vt 0.803508 0.523847
vt 0.803508 0.523847
vt 0.917720 0.439836
vt 0.917720 0.439836
vt 0.805474 0.015531
vt 0.805474 0.015531
vt 0.795095 0.523675
vt 0.795095 0.523675
vt 0.909307 0.439666
vt 0.909307 0.439666
vt 0.828746 0.524363
vt 0.828746 0.524363
vt 0.942958 0.440345
vt 0.942958 0.440345
vt 0.839124 0.016219
vt 0.839124 0.016219
vt 0.837158 0.524534
vt 0.837158 0.524534
vt 0.951371 0.440515
vt 0.951371 0.440515
vt 0.847537 0.016390
vt 0.847537 0.016390
vt 0.845571 0.524706
vt 0.845571 0.524706
vt 0.959783 0.440685
vt 0.959783 0.440685
vt 0.855950 0.016562
vt 0.855950 0.016562
vt 0.853984 0.524878
vt 0.853984 0.524878
vt 0.968196 0.440855
vt 0.968196 0.440855
vt 0.864362 0.016734
vt 0.864362 0.016734
vt 0.862396 0.525050
vt 0.862396 0.525050
vt 0.976609 0.441025
vt 0.976609 0.441025
vt 0.872775 0.016906
vt 0.872775 0.016906
vt 0.870809 0.525222
vt 0.769857 0.523160
vt 0.884069 0.439157
vt 0.985021 0.441195
vt 0.881188 0.017078
vt 0.780236 0.015016
vt 0.778270 0.523332
vt 0.778270 0.523332
vt 0.892482 0.439326
vt 0.892482 0.439326
vt 0.788648 0.015188
vt 0.788648 0.015188
vt 0.786682 0.523503
vt 0.786682 0.523503
vt 0.900895 0.439496
vt 0.900895 0.439496
vt 0.797061 0.015359
vt 0.797061 0.015359
vt 0.899049 0.947812
vt 0.899049 0.947812
vt 0.890636 0.947642
vt 0.890636 0.947642
vt 0.882223 0.947473
vt 0.882223 0.947473
vt 0.873811 0.947303
vt 0.974763 0.949341
vt 0.966350 0.949171
vt 0.966350 0.949171
vt 0.957938 0.949001
vt 0.957938 0.949001
vt 0.949525 0.948831
vt 0.949525 0.948831
vt 0.941112 0.948661
vt 0.941112 0.948661
vt 0.932700 0.948492
vt 0.932700 0.948492
vt 0.924287 0.948322
vt 0.924287 0.948322
vt 0.915874 0.948152
vt 0.915874 0.948152
vt 0.907462 0.947982
vt 0.907462 0.947982
vt 0.023606 0.835332
vt 0.332719 0.444325
vt 0.341571 0.493419
vt 0.131269 0.756006
vt 0.101370 0.032093
vt 0.221987 0.442564
vt 0.131269 0.835332
vt 0.022044 0.032093
vt 0.225055 0.444325
vt 0.023606 0.466426
vt 0.225055 0.444325
vt 0.754760 0.494930
vt 0.131270 0.545751
vt 0.022044 0.032093
vt 0.121123 0.442564
vt 0.131270 0.466426
vt 0.332719 0.444325
vt 0.101370 0.032093
vt 0.232134 0.545751
vt 0.221987 0.442564
vt 0.232134 0.756006
vt 0.121123 0.442564
vt 0.023606 0.466426
vt 0.332719 0.006687
vt 0.343363 0.003249
vt 0.131269 0.466426
vt 0.022044 0.469730
vt 0.225055 0.006687
vt 0.131269 0.545752
vt 0.101370 0.469730
vt 0.221988 0.004926
vt 0.023606 0.835332
vt 0.225055 0.006687
vt 0.756552 0.004759
vt 0.131269 0.756007
vt 0.022044 0.469731
vt 0.121123 0.004926
vt 0.131269 0.835332
vt 0.332719 0.006687
vt 0.101370 0.469731
vt 0.232134 0.545752
vt 0.121123 0.004926
vt 0.232134 0.756007
vt 0.221987 0.004926
vt 0.008229 0.855835
vt 0.388705 0.621816
vt 0.971736 0.406450
vt 0.428600 0.855956
vt 0.969615 0.098495
vt 0.341169 0.622143
vt 0.008194 0.976934
vt 0.389316 0.710530
vt 0.969616 0.098495
vt 0.428565 0.977054
vt 0.341780 0.710857
vt 0.971736 0.406450
vt 0.332719 0.281009
vt 0.101370 0.195409
vt 0.225055 0.281009
vt 0.755428 0.312009
vt 0.022044 0.195409
vt 0.121123 0.279247
vt 0.022044 0.195409
vt 0.225055 0.281009
vt 0.101370 0.195409
vt 0.221987 0.279248
vt 0.332719 0.281009
vt 0.342240 0.310499
vt 0.221987 0.279247
vt 0.121123 0.279247
vt 0.275062 0.524337
vt 0.283257 0.503475
vt 0.421203 0.388476
vt 0.247476 0.592321
vt 0.449991 0.861147
vt 0.247476 0.524337
vt 0.311400 0.503475
vt 0.449563 0.976363
vt 0.275062 0.782818
vt 0.283253 0.730863
vt 0.422283 0.093103
vt 0.247476 0.782818
vt 0.311398 0.730863
vt 0.451191 0.538302
vt 0.311398 0.503467
vt 0.429858 0.783126
vt 0.828924 0.539706
vt 0.283253 0.503467
vt 0.402271 0.783122
vt 0.676978 0.094034
vt 0.429887 0.592630
vt 0.827724 0.862551
vt 0.402312 0.524641
vt 0.283255 0.730854
vt 0.675898 0.389407
vt 0.429898 0.524646
vt 0.311398 0.730855
vt 0.827295 0.977768
vt 0.454470 0.865659
vt 0.341169 0.622143
vt 0.924200 0.406777
vt 0.823212 0.867030
vt 0.922079 0.098823
vt 0.388705 0.621816
vt 0.454075 0.971884
vt 0.341780 0.710858
vt 0.922080 0.098823
vt 0.822817 0.973255
vt 0.389316 0.710530
vt 0.924200 0.406777
vt 0.023606 0.835332
vt 0.332719 0.444325
vt 0.341571 0.493419
vt 0.131269 0.835332
vt 0.022044 0.032093
vt 0.225055 0.444325
vt 0.131269 0.756006
vt 0.101370 0.032093
vt 0.221987 0.442564
vt 0.023606 0.466426
vt 0.225055 0.444325
vt 0.754760 0.494930
vt 0.131270 0.545751
vt 0.022044 0.032093
vt 0.121123 0.442564
vt 0.131270 0.466426
vt 0.332719 0.444325
vt 0.101370 0.032093
vt 0.232134 0.545751
vt 0.221987 0.442564
vt 0.232134 0.756006
vt 0.121123 0.442564
vt 0.023606 0.466426
vt 0.332719 0.006687
vt 0.343363 0.003249
vt 0.131269 0.545752
vt 0.101370 0.469730
vt 0.221988 0.004926
vt 0.131269 0.466426
vt 0.022044 0.469730
vt 0.225055 0.006687
vt 0.023606 0.835332
vt 0.225055 0.006687
vt 0.756552 0.004759
vt 0.131269 0.756007
vt 0.022044 0.469731
vt 0.121123 0.004926
vt 0.131269 0.835332
vt 0.332719 0.006687
vt 0.101370 0.469731
vt 0.232134 0.545752
vt 0.121123 0.004926
vt 0.232134 0.756007
vt 0.221987 0.004926
vt 0.008229 0.855835
vt 0.388705 0.621816
vt 0.971736 0.406450
vt 0.008194 0.976934
vt 0.389316 0.710530
vt 0.969616 0.098495
vt 0.428600 0.855956
vt 0.969615 0.098495
vt 0.341169 0.622143
vt 0.428565 0.977054
vt 0.341780 0.710857
vt 0.971736 0.406450
vt 0.332719 0.281009
vt 0.101370 0.195409
vt 0.225055 0.281009
vt 0.755428 0.312009
vt 0.022044 0.195409
vt 0.121123 0.279247
vt 0.022044 0.195409
vt 0.225055 0.281009
vt 0.101370 0.195409
vt 0.221987 0.279248
vt 0.332719 0.281009
vt 0.342240 0.310499
vt 0.221987 0.279247
vt 0.121123 0.279247
vt 0.275062 0.524337
vt 0.283257 0.503475
vt 0.421203 0.388476
vt 0.247476 0.524337
vt 0.311400 0.503475
vt 0.449563 0.976363
vt 0.247476 0.592321
vt 0.449991 0.861147
vt 0.275062 0.782818
vt 0.283253 0.730863
vt 0.422283 0.093103
vt 0.247476 0.782818
vt 0.311398 0.730863
vt 0.451191 0.538302
vt 0.311398 0.503467
vt 0.429858 0.783126
vt 0.828924 0.539706
vt 0.283253 0.503467
vt 0.402271 0.783122
vt 0.676978 0.094034
vt 0.429887 0.592630
vt 0.827724 0.862551
vt 0.429898 0.524646
vt 0.311398 0.730855
vt 0.827295 0.977768
vt 0.402312 0.524641
vt 0.283255 0.730854
vt 0.675898 0.389407
vt 0.454470 0.865659
vt 0.341169 0.622143
vt 0.924200 0.406777
vt 0.823212 0.867030
vt 0.922079 0.098823
vt 0.388705 0.621816
vt 0.454075 0.971884
vt 0.341780 0.710858
vt 0.922080 0.098823
vt 0.822817 0.973255
vt 0.389316 0.710530
vt 0.924200 0.406777
vt 0.830712 0.016047
vt 0.830712 0.016047
vt 0.822299 0.015875
vt 0.822299 0.015875
vt 0.820333 0.524191
vt 0.820333 0.524191
vt 0.934545 0.440176
vt 0.934545 0.440176
vt 0.811920 0.524019
vt 0.811920 0.524019
vt 0.926133 0.440006
vt 0.926133 0.440006
vt 0.813886 0.015703
vt 0.813886 0.015703
vt 0.803508 0.523847
vt 0.803508 0.523847
vt 0.917720 0.439836
vt 0.917720 0.439836
vt 0.805474 0.015531
vt 0.805474 0.015531
vt 0.795095 0.523675
vt 0.795095 0.523675
vt 0.909307 0.439666
vt 0.909307 0.439666
vt 0.828746 0.524363
vt 0.828746 0.524363
vt 0.942958 0.440345
vt 0.942958 0.440345
vt 0.839124 0.016219
vt 0.839124 0.016219
vt 0.837158 0.524534
vt 0.837158 0.524534
vt 0.951371 0.440515
vt 0.951371 0.440515
vt 0.847537 0.016390
vt 0.847537 0.016390
vt 0.845571 0.524706
vt 0.845571 0.524706
vt 0.959783 0.440685
vt 0.959783 0.440685
vt 0.855950 0.016562
vt 0.855950 0.016562
vt 0.853984 0.524878
vt 0.853984 0.524878
vt 0.968196 0.440855
vt 0.968196 0.440855
vt 0.864362 0.016734
vt 0.864362 0.016734
vt 0.862396 0.525050
vt 0.862396 0.525050
vt 0.976609 0.441025
vt 0.976609 0.441025
vt 0.872775 0.016906
vt 0.872775 0.016906
vt 0.870809 0.525222
vt 0.769857 0.523160
vt 0.884069 0.439157
vt 0.985021 0.441195
vt 0.881188 0.017078
vt 0.780236 0.015016
vt 0.778270 0.523332
vt 0.778270 0.523332
vt 0.892482 0.439326
vt 0.892482 0.439326
vt 0.788648 0.015188
vt 0.788648 0.015188
vt 0.786682 0.523503
vt 0.786682 0.523503
vt 0.900895 0.439496
vt 0.900895 0.439496
vt 0.797061 0.015359
vt 0.797061 0.015359
vt 0.899049 0.947812
vt 0.899049 0.947812
vt 0.890636 0.947642
vt 0.890636 0.947642
vt 0.882223 0.947473
vt 0.882223 0.947473
vt 0.873811 0.947303
vt 0.974763 0.949341
vt 0.966350 0.949171
vt 0.966350 0.949171
vt 0.957938 0.949001
vt 0.957938 0.949001
vt 0.949525 0.948831
vt 0.949525 0.948831
vt 0.941112 0.948661
vt 0.941112 0.948661
vt 0.932700 0.948492
vt 0.932700 0.948492
vt 0.924287 0.948322
vt 0.924287 0.948322
vt 0.915874 0.948152
vt 0.915874 0.948152
vt 0.907462 0.947982
vt 0.907462 0.947982
f 1/1 7/7 4/4
f 10/10 7/7 1/1
f 7/7 10/10 13/13
f 10/10 16/16 13/13
f 19/19 7/7 13/13
f 19/19 21/21 7/7
f 23/23 29/29 26/26
f 32/32 23/23 26/26
f 32/32 26/26 35/35
f 32/32 35/35 38/38
f 35/35 26/26 41/41
f 35/35 41/41 43/43
f 45/45 51/51 48/48
f 54/54 48/48 51/51
f 11/11 57/57 17/17
f 59/59 57/57 11/11
f 57/57 59/59 39/39
f 39/39 59/59 33/33
f 18/18 61/61 14/14
f 61/61 18/18 58/58
f 58/58 36/36 61/61
f 36/36 58/58 40/40
f 8/8 63/63 5/5
f 63/63 8/8 65/65
f 65/65 30/30 63/63
f 30/30 65/65 27/27
f 6/6 67/67 2/2
f 64/64 67/67 6/6
f 67/67 64/64 24/24
f 24/24 64/64 31/31
f 15/15 69/69 20/20
f 62/62 69/69 15/15
f 69/69 62/62 44/44
f 44/44 62/62 37/37
f 22/22 66/66 9/9
f 70/70 66/66 22/22
f 66/66 70/70 28/28
f 28/28 70/70 42/42
f 71/71 77/77 74/74
f 71/71 79/79 77/77
f 77/77 79/79 82/82
f 85/85 83/83 80/80
f 85/85 80/80 88/88
f 91/91 96/96 93/93
f 89/89 96/96 91/91
f 89/89 91/91 86/86
f 97/97 72/72 75/75
f 97/97 75/75 94/94
f 92/92 84/84 87/87
f 78/78 84/84 92/92
f 92/92 99/99 78/78
f 76/76 78/78 99/99
f 99/99 92/92 102/102
f 76/76 99/99 105/105
f 95/95 102/102 92/92
f 95/95 76/76 105/105
f 102/102 95/95 108/108
f 95/95 105/105 108/108
f 46/46 49/49 106/106
f 106/106 100/100 46/46
f 52/52 47/47 101/101
f 52/52 101/101 103/103
f 55/55 104/104 109/109
f 104/104 55/55 53/53
f 110/110 107/107 50/50
f 110/110 50/50 56/56
f 111/111 115/115 113/113
f 113/113 115/115 119/119
f 114/114 120/120 123/123
f 123/123 120/120 125/125
f 126/126 129/129 124/124
f 129/129 126/126 131/131
f 112/112 135/135 116/116
f 139/139 135/135 112/112
f 140/140 141/141 136/136
f 145/145 141/141 140/140
f 146/146 147/147 142/142
f 147/147 146/146 151/151
f 152/152 153/153 148/148
f 153/153 152/152 157/157
f 158/158 159/159 154/154
f 163/163 159/159 158/158
f 164/164 165/165 160/160
f 169/169 165/165 164/164
f 170/170 171/171 166/166
f 175/175 171/171 170/170
f 176/176 177/177 172/172
f 181/181 177/177 176/176
f 182/182 132/132 178/178
f 132/132 182/182 130/130
f 183/183 179/179 133/133
f 179/179 183/183 185/185
f 180/180 186/186 173/173
f 173/173 186/186 187/187
f 174/174 188/188 167/167
f 167/167 188/188 189/189
f 168/168 190/190 161/161
f 161/161 190/190 191/191
f 162/162 192/192 155/155
f 155/155 192/192 193/193
f 194/194 149/149 156/156
f 149/149 194/194 195/195
f 196/196 143/143 150/150
f 143/143 196/196 197/197
f 144/144 198/198 137/137
f 137/137 198/198 199/199
f 138/138 200/200 117/117
f 117/117 200/200 201/201
f 118/118 202/202 121/121
f 121/121 202/202 203/203
f 122/122 204/204 127/127
f 127/127 204/204 205/205
f 206/206 134/134 128/128
f 134/134 206/206 184/184
f 207/207 213/213 210/210
f 216/216 213/213 207/207
f 213/213 216/216 219/219
f 216/216 222/222 219/219
f 225/225 213/213 219/219
f 225/225 227/227 213/213
f 229/229 235/235 232/232
f 238/238 229/229 232/232
f 238/238 232/232 241/241
f 238/238 241/241 244/244
f 241/241 232/232 247/247
f 241/241 247/247 249/249
f 251/251 257/257 254/254
f 260/260 254/254 257/257
f 217/217 263/263 223/223
f 265/265 263/263 217/217
f 263/263 265/265 245/245
f 245/245 265/265 239/239
f 224/224 267/267 220/220
f 267/267 224/224 264/264
f 264/264 242/242 267/267
f 242/242 264/264 246/246
f 214/214 269/269 211/211
f 269/269 214/214 271/271
f 271/271 236/236 269/269
f 236/236 271/271 233/233
f 212/212 273/273 208/208
f 270/270 273/273 212/212
f 273/273 270/270 230/230
f 230/230 270/270 237/237
f 221/221 275/275 226/226
f 268/268 275/275 221/221
f 275/275 268/268 250/250
f 250/250 268/268 243/243
f 228/228 272/272 215/215
f 276/276 272/272 228/228
f 272/272 276/276 234/234
f 234/234 276/276 248/248
f 277/277 283/283 280/280
f 277/277 285/285 283/283
f 283/283 285/285 288/288
f 291/291 289/289 286/286
f 291/291 286/286 294/294
f 297/297 302/302 299/299
f 295/295 302/302 297/297
f 295/295 297/297 292/292
f 303/303 278/278 281/281
f 303/303 281/281 300/300
f 298/298 290/290 293/293
f 284/284 290/290 298/298
f 298/298 305/305 284/284
f 282/282 284/284 305/305
f 305/305 298/298 308/308
f 282/282 305/305 311/311
f 301/301 308/308 298/298
f 301/301 282/282 311/311
f 308/308 301/301 314/314
f 301/301 311/311 314/314
f 252/252 255/255 312/312
f 312/312 306/306 252/252
f 258/258 253/253 307/307
f 258/258 307/307 309/309
f 261/261 310/310 315/315
f 310/310 261/261 259/259
f 316/316 313/313 256/256
f 316/316 256/256 262/262
f 317/317 321/321 319/319
f 319/319 321/321 325/325
f 320/320 326/326 329/329
f 329/329 326/326 331/331
f 332/332 335/335 330/330
f 335/335 332/332 337/337
f 318/318 341/341 322/322
f 345/345 341/341 318/318
f 346/346 347/347 342/342
f 351/351 347/347 346/346
f 352/352 353/353 348/348
f 353/353 352/352 357/357
f 358/358 359/359 354/354
f 359/359 358/358 363/363
f 364/364 365/365 360/360
f 369/369 365/365 364/364
f 370/370 371/371 366/366
f 375/375 371/371 370/370
f 376/376 377/377 372/372
f 381/381 377/377 376/376
f 382/382 383/383 378/378
f 387/387 383/383 382/382
f 388/388 338/338 384/384
f 338/338 388/388 336/336
f 389/389 385/385 339/339
f 385/385 389/389 391/391
f 386/386 392/392 379/379
f 379/379 392/392 393/393
f 380/380 394/394 373/373
f 373/373 394/394 395/395
f 374/374 396/396 367/367
f 367/367 396/396 397/397
f 368/368 398/398 361/361
f 361/361 398/398 399/399
f 400/400 355/355 362/362
f 355/355 400/400 401/401
f 402/402 349/349 356/356
f 349/349 402/402 403/403
f 350/350 404/404 343/343
f 343/343 404/404 405/405
f 344/344 406/406 323/323
f 323/323 406/406 407/407
f 324/324 408/408 327/327
f 327/327 408/408 409/409
f 328/328 410/410 333/333
f 333/333 410/410 411/411
f 412/412 340/340 334/334
f 340/340 412/412 390/390
f 413/413 419/419 415/415
f 419/419 421/421 415/415
f 420/420 425/425 422/422
f 425/425 427/427 422/422
f 428/428 426/426 431/431
f 431/431 433/433 428/428
f 414/414 416/416 437/437
f 441/441 414/414 437/437
f 442/442 438/438 443/443
f 447/447 442/442 443/443
f 448/448 444/444 449/449
f 449/449 453/453 448/448
f 454/454 450/450 455/455
f 455/455 459/459 454/454
f 460/460 456/456 461/461
f 465/465 460/460 461/461
f 466/466 462/462 467/467
f 471/471 466/466 467/467
f 472/472 468/468 473/473
f 477/477 472/472 473/473
f 478/478 474/474 479/479
f 483/483 478/478 479/479
f 484/484 480/480 434/434
f 434/434 432/432 484/484
f 485/485 435/435 481/481
f 481/481 487/487 485/485
f 482/482 475/475 488/488
f 475/475 489/489 488/488
f 476/476 469/469 490/490
f 469/469 491/491 490/490
f 470/470 463/463 492/492
f 463/463 493/493 492/492
f 464/464 457/457 494/494
f 457/457 495/495 494/494
f 496/496 458/458 451/451
f 451/451 497/497 496/496
f 498/498 452/452 445/445
f 445/445 499/499 498/498
f 446/446 439/439 500/500
f 439/439 501/501 500/500
f 440/440 417/417 502/502
f 417/417 503/503 502/502
f 418/418 423/423 504/504
f 423/423 505/505 504/504
f 424/424 429/429 506/506
f 429/429 507/507 506/506
f 508/508 430/430 436/436
f 436/436 486/486 508/508
f 509/509 515/515 512/512
f 518/518 509/509 512/512
f 512/512 521/521 518/518
f 518/518 521/521 524/524
f 527/527 521/521 512/512
f 527/527 512/512 529/529
f 531/531 537/537 534/534
f 540/540 537/537 531/531
f 540/540 543/543 537/537
f 540/540 546/546 543/543
f 543/543 549/549 537/537
f 543/543 551/551 549/549
f 553/553 559/559 556/556
f 562/562 556/556 559/559
f 519/519 525/525 565/565
f 567/567 519/519 565/565
f 565/565 547/547 567/567
f 547/547 541/541 567/567
f 526/526 522/522 569/569
f 569/569 566/566 526/526
f 566/566 569/569 544/544
f 544/544 548/548 566/566
f 513/513 516/516 571/571
f 571/571 573/573 513/513
f 573/573 571/571 535/535
f 535/535 538/538 573/573
f 517/517 510/510 575/575
f 572/572 517/517 575/575
f 575/575 532/532 572/572
f 532/532 536/536 572/572
f 523/523 528/528 577/577
f 570/570 523/523 577/577
f 577/577 552/552 570/570
f 552/552 545/545 570/570
f 530/530 514/514 574/574
f 578/578 530/530 574/574
f 574/574 539/539 578/578
f 539/539 550/550 578/578
f 579/579 584/584 582/582
f 579/579 582/582 587/587
f 582/582 590/590 587/587
f 593/593 588/588 591/591
f 593/593 596/596 588/588
f 599/599 604/604 601/601
f 597/597 599/599 601/601
f 597/597 594/594 599/599
f 602/602 585/585 580/580
f 602/602 605/605 585/585
f 600/600 595/595 592/592
f 583/583 600/600 592/592
f 600/600 583/583 607/607
f 586/586 607/607 583/583
f 607/607 610/610 600/600
f 586/586 613/613 607/607
f 606/606 600/600 610/610
f 606/606 613/613 586/586
f 610/610 616/616 606/606
f 606/606 616/616 613/613
f 554/554 614/614 560/560
f 614/614 554/554 608/608
f 557/557 609/609 555/555
f 557/557 611/611 609/609
f 563/563 617/617 612/612
f 612/612 558/558 563/563
f 618/618 561/561 615/615
f 618/618 564/564 561/561
f 619/619 625/625 622/622
f 628/628 625/625 619/619
f 625/625 628/628 631/631
f 628/628 634/634 631/631
f 637/637 625/625 631/631
f 637/637 639/639 625/625
f 641/641 647/647 644/644
f 650/650 641/641 644/644
f 650/650 644/644 653/653
f 650/650 653/653 656/656
f 653/653 644/644 659/659
f 653/653 659/659 661/661
f 663/663 669/669 666/666
f 672/672 666/666 669/669
f 629/629 675/675 635/635
f 677/677 675/675 629/629
f 675/675 677/677 657/657
f 657/657 677/677 651/651
f 636/636 679/679 632/632
f 679/679 636/636 676/676
f 676/676 654/654 679/679
f 654/654 676/676 658/658
f 626/626 681/681 623/623
f 681/681 626/626 683/683
f 683/683 648/648 681/681
f 648/648 683/683 645/645
f 624/624 685/685 620/620
f 682/682 685/685 624/624
f 685/685 682/682 642/642
f 642/642 682/682 649/649
f 633/633 687/687 638/638
f 680/680 687/687 633/633
f 687/687 680/680 662/662
f 662/662 680/680 655/655
f 640/640 684/684 627/627
f 688/688 684/684 640/640
f 684/684 688/688 646/646
f 646/646 688/688 660/660
f 689/689 695/695 692/692
f 689/689 697/697 695/695
f 695/695 697/697 700/700
f 703/703 701/701 698/698
f 703/703 698/698 706/706
f 709/709 714/714 711/711
f 707/707 714/714 709/709
f 707/707 709/709 704/704
f 715/715 690/690 693/693
f 715/715 693/693 712/712
f 710/710 702/702 705/705
f 696/696 702/702 710/710
f 710/710 717/717 696/696
f 694/694 696/696 717/717
f 717/717 710/710 720/720
f 694/694 717/717 723/723
f 713/713 720/720 710/710
f 713/713 694/694 723/723
f 720/720 713/713 726/726
f 713/713 723/723 726/726
f 664/664 667/667 724/724
f 724/724 718/718 664/664
f 670/670 665/665 719/719
f 670/670 719/719 721/721
f 673/673 722/722 727/727
f 722/722 673/673 671/671
f 728/728 725/725 668/668
f 728/728 668/668 674/674
f 729/729 733/733 731/731
f 731/731 733/733 737/737
f 732/732 738/738 741/741
f 741/741 738/738 743/743
f 744/744 747/747 742/742
f 747/747 744/744 749/749
f 730/730 753/753 734/734
f 757/757 753/753 730/730
f 758/758 759/759 754/754
f 763/763 759/759 758/758
f 764/764 765/765 760/760
f 765/765 764/764 769/769
f 770/770 771/771 766/766
f 771/771 770/770 775/775
f 776/776 777/777 772/772
f 781/781 777/777 776/776
f 782/782 783/783 778/778
f 787/787 783/783 782/782
f 788/788 789/789 784/784
f 793/793 789/789 788/788
f 794/794 795/795 790/790
f 799/799 795/795 794/794
f 800/800 750/750 796/796
f 750/750 800/800 748/748
f 801/801 797/797 751/751
f 797/797 801/801 803/803
f 798/798 804/804 791/791
f 791/791 804/804 805/805
f 792/792 806/806 785/785
f 785/785 806/806 807/807
f 786/786 808/808 779/779
f 779/779 808/808 809/809
f 780/780 810/810 773/773
f 773/773 810/810 811/811
f 812/812 767/767 774/774
f 767/767 812/812 813/813
f 814/814 761/761 768/768
f 761/761 814/814 815/815
f 762/762 816/816 755/755
f 755/755 816/816 817/817
f 756/756 818/818 735/735
f 735/735 818/818 819/819
f 736/736 820/820 739/739
f 739/739 820/820 821/821
f 740/740 822/822 745/745
f 745/745 822/822 823/823
f 824/824 752/752 746/746
f 752/752 824/824 802/802
f 3/3 68/68 73/73
f 12/12 3/3 73/73
f 12/12 73/73 98/98
f 60/60 12/12 98/98
f 98/98 90/90 60/60
f 34/34 60/60 90/90
f 68/68 81/81 73/73
f 81/81 34/34 90/90
f 81/81 68/68 25/25
f 34/34 81/81 25/25
f 209/209 274/274 279/279
f 218/218 209/209 279/279
f 218/218 279/279 304/304
f 266/266 218/218 304/304
f 304/304 296/296 266/266
f 240/240 266/266 296/296
f 274/274 287/287 279/279
f 287/287 240/240 296/296
f 287/287 274/274 231/231
f 240/240 287/287 231/231
f 511/511 581/581 576/576
f 520/520 581/581 511/511
f 520/520 603/603 581/581
f 568/568 603/603 520/520
f 603/603 568/568 598/598
f 542/542 598/598 568/568
f 576/576 581/581 589/589
f 589/589 598/598 542/542
f 589/589 533/533 576/576
f 542/542 533/533 589/589
f 621/621 686/686 691/691
f 630/630 621/621 691/691
f 630/630 691/691 716/716
f 678/678 630/630 716/716
f 716/716 708/708 678/678
f 652/652 678/678 708/708
f 686/686 699/699 691/691
f 699/699 652/652 708/708
f 699/699 686/686 643/643
f 652/652 699/699 643/643
