# generated by roqsim_scenes/tools (world-space, metres, Z-up)
v -3.725630 -7.489473 8.250659
v -3.725630 -7.489473 8.250659
v -3.725630 -7.489473 8.250659
v -3.725630 -7.489473 8.250659
v -3.740695 -7.492799 8.228362
v -3.740695 -7.492799 8.228362
v -3.740695 -7.492799 8.228362
v -3.740695 -7.492799 8.228362
v -3.740695 -7.492799 8.228362
v -3.724392 -7.492218 8.250552
v -3.724392 -7.492218 8.250552
v -3.724392 -7.492218 8.250552
v -3.724392 -7.492218 8.250552
v -3.724392 -7.492218 8.250552
v -3.763241 -7.495022 8.213462
v -3.763241 -7.495022 8.213462
v -3.763241 -7.495022 8.213462
v -3.763241 -7.495022 8.213462
v -3.763241 -7.495022 8.213462
v -3.763241 -7.495022 8.213462
v -3.789835 -7.498671 8.207303
v -3.789835 -7.498671 8.207303
v -3.789835 -7.498671 8.207303
v -3.789835 -7.498671 8.207303
v -3.789835 -7.498671 8.207303
v -3.762728 -7.497874 8.212635
v -3.762728 -7.497874 8.212635
v -3.762728 -7.497874 8.212635
v -3.762728 -7.497874 8.212635
v -3.789835 -7.495803 8.208230
v -3.789835 -7.495803 8.208230
v -3.789835 -7.495803 8.208230
v -3.789835 -7.495803 8.208230
v -3.702469 -7.533602 8.161582
v -3.702469 -7.533602 8.161582
v -3.702469 -7.533602 8.161582
v -3.702469 -7.533602 8.161582
v -3.702469 -7.533602 8.161582
v -3.709949 -7.515103 8.178954
v -3.709949 -7.515103 8.178954
v -3.709949 -7.515103 8.178954
v -3.709949 -7.515103 8.178954
v -3.709949 -7.515103 8.178954
v -3.708712 -7.532469 8.158804
v -3.708712 -7.532469 8.158804
v -3.708712 -7.532469 8.158804
v -3.708712 -7.532469 8.158804
v -3.879031 -7.554644 8.152826
v -3.879031 -7.554644 8.152826
v -3.879031 -7.554644 8.152826
v -3.879031 -7.554644 8.152826
v -3.879031 -7.554644 8.152826
v -3.879031 -7.554644 8.152826
v -3.908016 -7.634756 8.146740
v -3.908016 -7.634756 8.146740
v -3.908016 -7.634756 8.146740
v -3.908016 -7.634756 8.146740
v -3.905047 -7.634756 8.138853
v -3.905047 -7.634756 8.138853
v -3.700774 7.252555 8.184755
v -3.700774 7.252555 8.184755
v -3.700774 7.252555 8.184755
v -3.700774 7.252555 8.184755
v -3.703712 7.247602 8.180625
v -3.703712 7.247602 8.180625
v -3.703712 7.247602 8.180625
v -3.703712 7.247602 8.180625
v -3.703712 7.247602 8.180625
v -3.704160 7.238762 8.206499
v -3.704160 7.238762 8.206499
v -3.704160 7.238762 8.206499
v -3.704160 7.238762 8.206499
v -3.704160 7.238762 8.206499
v -3.704160 7.238762 8.206499
v -3.834845 7.223656 8.231098
v -3.834845 7.223656 8.231098
v -3.834845 7.223656 8.231098
v -3.834845 7.223656 8.231098
v -3.789835 7.217061 8.275615
v -3.789835 7.217061 8.275615
v -3.789835 7.217061 8.275615
v -3.814195 7.225678 8.217450
v -3.814195 7.225678 8.217450
v -3.814195 7.225678 8.217450
v -3.814195 7.225678 8.217450
v -3.739748 -7.495608 8.227822
v -3.739748 -7.495608 8.227822
v -3.739748 -7.495608 8.227822
v -3.739748 -7.495608 8.227822
v -3.724392 -7.484217 8.304172
v -3.724392 -7.484217 8.304172
v -3.724392 -7.484217 8.304172
v -3.724392 -7.484217 8.304172
v -3.724392 -7.484217 8.304172
v -3.724392 -7.484217 8.304172
v -3.719000 -7.488218 8.277360
v -3.719000 -7.488218 8.277360
v -3.719000 -7.488218 8.277360
v -3.719000 -7.488218 8.277360
v -3.719000 -7.488218 8.277360
v -3.718234 -7.495120 8.278391
v -3.718234 -7.495120 8.278391
v -3.718234 -7.495120 8.278391
v -3.718234 -7.495120 8.278391
v -3.723684 -7.491076 8.305492
v -3.723684 -7.491076 8.305492
v -3.723684 -7.491076 8.305492
v -3.723684 -7.491076 8.305492
v -3.739748 -7.480826 8.326901
v -3.739748 -7.480826 8.326901
v -3.739748 -7.480826 8.326901
v -3.739748 -7.480826 8.326901
v -3.739748 -7.480826 8.326901
v -3.739748 -7.480826 8.326901
v -3.739205 -7.487650 8.328466
v -3.739205 -7.487650 8.328466
v -3.739205 -7.487650 8.328466
v -3.762434 -7.485359 8.343817
v -3.762434 -7.485359 8.343817
v -3.762434 -7.485359 8.343817
v -3.762434 -7.485359 8.343817
v -3.762728 -7.478561 8.342088
v -3.762728 -7.478561 8.342088
v -3.762728 -7.478561 8.342088
v -3.762728 -7.478561 8.342088
v -3.762728 -7.478561 8.342088
v -3.725630 -7.481624 8.303266
v -3.725630 -7.481624 8.303266
v -3.725630 -7.481624 8.303266
v -3.725630 -7.481624 8.303266
v -3.725630 -7.481624 8.303266
v -3.720341 -7.485549 8.276963
v -3.720341 -7.485549 8.276963
v -3.720341 -7.485549 8.276963
v -3.720341 -7.485549 8.276963
v -3.740695 -7.478297 8.325565
v -3.740695 -7.478297 8.325565
v -3.740695 -7.478297 8.325565
v -3.740695 -7.478297 8.325565
v -3.740695 -7.478297 8.325565
v -3.740695 -7.478297 8.325565
v -3.763241 -7.476074 8.340464
v -3.763241 -7.476074 8.340464
v -3.763241 -7.476074 8.340464
v -3.763241 -7.476074 8.340464
v -3.742584 -7.491263 8.230018
v -3.742584 -7.491263 8.230018
v -3.742584 -7.491263 8.230018
v -3.742584 -7.491263 8.230018
v -3.742584 -7.491263 8.230018
v -3.674624 -7.634756 8.138853
v -3.674624 -7.634756 8.138853
v -3.700640 -7.554644 8.152826
v -3.700640 -7.554644 8.152826
v -3.700640 -7.554644 8.152826
v -3.700640 -7.554644 8.152826
v -3.700640 -7.554644 8.152826
v -3.700640 -7.554644 8.152826
v -3.681793 -7.634756 8.135586
v -3.681793 -7.634756 8.135586
v -3.681793 -7.634756 8.135586
v -3.706884 -7.554371 8.149676
v -3.706884 -7.554371 8.149676
v -3.706884 -7.554371 8.149676
v -3.706884 -7.554371 8.149676
v -3.897877 -7.634756 8.135586
v -3.897877 -7.634756 8.135586
v -3.897877 -7.634756 8.135586
v -3.872786 -7.554371 8.149676
v -3.872786 -7.554371 8.149676
v -3.872786 -7.554371 8.149676
v -3.872786 -7.554371 8.149676
v -3.671654 -7.634756 8.146740
v -3.671654 -7.634756 8.146740
v -3.671654 -7.634756 8.146740
v -3.671654 -7.634756 8.146740
v -3.697952 -7.555305 8.160474
v -3.697952 -7.555305 8.160474
v -3.697952 -7.555305 8.160474
v -3.697952 -7.555305 8.160474
v -3.701192 -7.514048 8.208032
v -3.701192 -7.514048 8.208032
v -3.701192 -7.514048 8.208032
v -3.701192 -7.514048 8.208032
v -3.701192 -7.514048 8.208032
v -3.701192 -7.514048 8.208032
v -3.671654 -7.634756 8.377459
v -3.671654 -7.634756 8.377459
v -3.671654 -7.634756 8.377459
v -3.671654 -7.634756 8.377459
v -3.701216 -7.491736 8.357788
v -3.701216 -7.491736 8.357788
v -3.701216 -7.491736 8.357788
v -3.701216 -7.491736 8.357788
v -3.701216 -7.491736 8.357788
v -3.700526 -7.498210 8.368072
v -3.700526 -7.498210 8.368072
v -3.700526 -7.498210 8.368072
v -3.700526 -7.498210 8.368072
v -3.674629 -7.634756 8.385338
v -3.674629 -7.634756 8.385338
v -3.674629 -7.634756 8.385338
v -3.701031 -7.493013 8.364990
v -3.701031 -7.493013 8.364990
v -3.701031 -7.493013 8.364990
v -3.681810 -7.634756 8.388601
v -3.681810 -7.634756 8.388601
v -3.681810 -7.634756 8.388601
v -3.703184 -7.496043 8.375757
v -3.703184 -7.496043 8.375757
v -3.703184 -7.496043 8.375757
v -3.703184 -7.496043 8.375757
v -3.709426 -7.495149 8.378925
v -3.709426 -7.495149 8.378925
v -3.709426 -7.495149 8.378925
v -3.709426 -7.495149 8.378925
v -3.709426 -7.495149 8.378925
v -3.897860 -7.634756 8.388601
v -3.897860 -7.634756 8.388601
v -3.897860 -7.634756 8.388601
v -3.876486 -7.496043 8.375757
v -3.876486 -7.496043 8.375757
v -3.876486 -7.496043 8.375757
v -3.876486 -7.496043 8.375757
v -3.870244 -7.495149 8.378925
v -3.870244 -7.495149 8.378925
v -3.870244 -7.495149 8.378925
v -3.870244 -7.495149 8.378925
v -3.870244 -7.495149 8.378925
v -3.905041 -7.634756 8.385338
v -3.905041 -7.634756 8.385338
v -3.905041 -7.634756 8.385338
v -3.703712 -7.517109 8.180625
v -3.703712 -7.517109 8.180625
v -3.703712 -7.517109 8.180625
v -3.703712 -7.517109 8.180625
v -3.703712 -7.517109 8.180625
v -3.710383 -7.505939 8.205881
v -3.710383 -7.505939 8.205881
v -3.710383 -7.505939 8.205881
v -3.710383 -7.505939 8.205881
v -3.710383 -7.505939 8.205881
v -3.704160 -7.508272 8.206499
v -3.704160 -7.508272 8.206499
v -3.704160 -7.508272 8.206499
v -3.704160 -7.508272 8.206499
v -3.704160 -7.508272 8.206499
v -3.710405 -7.483084 8.359063
v -3.710405 -7.483084 8.359063
v -3.710405 -7.483084 8.359063
v -3.710405 -7.483084 8.359063
v -3.710405 -7.483084 8.359063
v -3.710405 -7.483084 8.359063
v -3.704175 -7.485574 8.358695
v -3.704175 -7.485574 8.358695
v -3.704175 -7.485574 8.358695
v -3.704175 -7.485574 8.358695
v -3.703900 -7.487664 8.370456
v -3.703900 -7.487664 8.370456
v -3.703900 -7.487664 8.370456
v -3.703900 -7.487664 8.370456
v -3.703900 -7.487664 8.370456
v -3.703900 -7.487664 8.370456
v -3.710153 -7.485488 8.372681
v -3.710153 -7.485488 8.372681
v -3.710153 -7.485488 8.372681
v -3.710153 -7.485488 8.372681
v -3.875770 -7.487664 8.370456
v -3.875770 -7.487664 8.370456
v -3.875770 -7.487664 8.370456
v -3.875770 -7.487664 8.370456
v -3.875770 -7.487664 8.370456
v -3.875770 -7.487664 8.370456
v -3.869517 -7.485488 8.372681
v -3.869517 -7.485488 8.372681
v -3.869517 -7.485488 8.372681
v -3.869517 -7.485488 8.372681
v -3.869265 -7.483084 8.359063
v -3.869265 -7.483084 8.359063
v -3.869265 -7.483084 8.359063
v -3.869265 -7.483084 8.359063
v -3.869265 -7.483084 8.359063
v -3.869265 -7.483084 8.359063
v -3.875495 -7.485574 8.358695
v -3.875495 -7.485574 8.358695
v -3.875495 -7.485574 8.358695
v -3.875495 -7.485574 8.358695
v -3.875510 -7.508272 8.206499
v -3.875510 -7.508272 8.206499
v -3.875510 -7.508272 8.206499
v -3.875510 -7.508272 8.206499
v -3.875510 -7.508272 8.206499
v -3.869286 -7.505939 8.205881
v -3.869286 -7.505939 8.205881
v -3.869286 -7.505939 8.205881
v -3.869286 -7.505939 8.205881
v -3.869286 -7.505939 8.205881
v -3.875958 -7.517109 8.180625
v -3.875958 -7.517109 8.180625
v -3.875958 -7.517109 8.180625
v -3.875958 -7.517109 8.180625
v -3.875958 -7.517109 8.180625
v -3.817235 -7.485359 8.343817
v -3.817235 -7.485359 8.343817
v -3.817235 -7.485359 8.343817
v -3.817235 -7.485359 8.343817
v -3.839923 -7.480826 8.326901
v -3.839923 -7.480826 8.326901
v -3.839923 -7.480826 8.326901
v -3.839923 -7.480826 8.326901
v -3.839923 -7.480826 8.326901
v -3.839923 -7.480826 8.326901
v -3.816943 -7.478561 8.342088
v -3.816943 -7.478561 8.342088
v -3.816943 -7.478561 8.342088
v -3.816943 -7.478561 8.342088
v -3.816943 -7.478561 8.342088
v -3.840464 -7.487650 8.328466
v -3.840464 -7.487650 8.328466
v -3.840464 -7.487650 8.328466
v -3.855986 -7.491076 8.305492
v -3.855986 -7.491076 8.305492
v -3.855986 -7.491076 8.305492
v -3.855986 -7.491076 8.305492
v -3.855278 -7.484217 8.304172
v -3.855278 -7.484217 8.304172
v -3.855278 -7.484217 8.304172
v -3.855278 -7.484217 8.304172
v -3.855278 -7.484217 8.304172
v -3.855278 -7.484217 8.304172
v -3.861436 -7.495120 8.278391
v -3.861436 -7.495120 8.278391
v -3.861436 -7.495120 8.278391
v -3.861436 -7.495120 8.278391
v -3.838975 -7.478297 8.325565
v -3.838975 -7.478297 8.325565
v -3.838975 -7.478297 8.325565
v -3.838975 -7.478297 8.325565
v -3.838975 -7.478297 8.325565
v -3.838975 -7.478297 8.325565
v -3.816430 -7.476074 8.340464
v -3.816430 -7.476074 8.340464
v -3.816430 -7.476074 8.340464
v -3.816430 -7.476074 8.340464
v -3.854039 -7.481624 8.303266
v -3.854039 -7.481624 8.303266
v -3.854039 -7.481624 8.303266
v -3.854039 -7.481624 8.303266
v -3.854039 -7.481624 8.303266
v -3.860670 -7.488218 8.277360
v -3.860670 -7.488218 8.277360
v -3.860670 -7.488218 8.277360
v -3.860670 -7.488218 8.277360
v -3.860670 -7.488218 8.277360
v -3.859329 -7.485549 8.276963
v -3.859329 -7.485549 8.276963
v -3.859329 -7.485549 8.276963
v -3.859329 -7.485549 8.276963
v -3.869721 -7.515103 8.178954
v -3.869721 -7.515103 8.178954
v -3.869721 -7.515103 8.178954
v -3.869721 -7.515103 8.178954
v -3.719000 7.218710 8.277360
v -3.719000 7.218710 8.277360
v -3.719000 7.218710 8.277360
v -3.719000 7.218710 8.277360
v -3.719000 7.218710 8.277360
v -3.720341 7.216041 8.276963
v -3.720341 7.216041 8.276963
v -3.720341 7.216041 8.276963
v -3.720341 7.216041 8.276963
v -3.725630 7.212115 8.303266
v -3.725630 7.212115 8.303266
v -3.725630 7.212115 8.303266
v -3.725630 7.212115 8.303266
v -3.725630 7.212115 8.303266
v -3.724392 7.214710 8.304172
v -3.724392 7.214710 8.304172
v -3.724392 7.214710 8.304172
v -3.724392 7.214710 8.304172
v -3.724392 7.214710 8.304172
v -3.724392 7.214710 8.304172
v -3.789835 7.215046 8.349208
v -3.789835 7.215046 8.349208
v -3.789835 7.215046 8.349208
v -3.789835 7.215046 8.349208
v -3.762434 7.215851 8.343817
v -3.762434 7.215851 8.343817
v -3.762434 7.215851 8.343817
v -3.762434 7.215851 8.343817
v -3.762728 7.209053 8.342088
v -3.762728 7.209053 8.342088
v -3.762728 7.209053 8.342088
v -3.762728 7.209053 8.342088
v -3.762728 7.209053 8.342088
v -3.762728 7.209053 8.342088
v -3.739748 7.211319 8.326901
v -3.739748 7.211319 8.326901
v -3.739748 7.211319 8.326901
v -3.739748 7.211319 8.326901
v -3.739748 7.211319 8.326901
v -3.739748 7.211319 8.326901
v -3.739205 7.218141 8.328466
v -3.739205 7.218141 8.328466
v -3.739205 7.218141 8.328466
v -3.723684 7.221569 8.305492
v -3.723684 7.221569 8.305492
v -3.723684 7.221569 8.305492
v -3.723684 7.221569 8.305492
v -3.740695 7.208789 8.325565
v -3.740695 7.208789 8.325565
v -3.740695 7.208789 8.325565
v -3.740695 7.208789 8.325565
v -3.740695 7.208789 8.325565
v -3.740695 7.208789 8.325565
v -3.718234 7.225613 8.278391
v -3.718234 7.225613 8.278391
v -3.718234 7.225613 8.278391
v -3.718234 7.225613 8.278391
v -3.789835 7.208258 8.347421
v -3.789835 7.208258 8.347421
v -3.789835 7.208258 8.347421
v -3.789835 7.208258 8.347421
v -3.723019 7.214650 8.276753
v -3.723019 7.214650 8.276753
v -3.723019 7.214650 8.276753
v -3.723019 7.214650 8.276753
v -3.723019 7.214650 8.276753
v -3.725630 7.219964 8.250659
v -3.725630 7.219964 8.250659
v -3.725630 7.219964 8.250659
v -3.725630 7.219964 8.250659
v -3.725630 7.219964 8.250659
v -3.763241 7.206566 8.340464
v -3.763241 7.206566 8.340464
v -3.763241 7.206566 8.340464
v -3.763241 7.206566 8.340464
v -3.674624 7.365249 8.138853
v -3.674624 7.365249 8.138853
v -3.681793 7.365249 8.135586
v -3.681793 7.365249 8.135586
v -3.681793 7.365249 8.135586
v -3.700640 7.285136 8.152826
v -3.700640 7.285136 8.152826
v -3.700640 7.285136 8.152826
v -3.700640 7.285136 8.152826
v -3.700640 7.285136 8.152826
v -3.700640 7.285136 8.152826
v -3.706884 7.284864 8.149676
v -3.706884 7.284864 8.149676
v -3.706884 7.284864 8.149676
v -3.706884 7.284864 8.149676
v -3.879031 7.285136 8.152826
v -3.879031 7.285136 8.152826
v -3.879031 7.285136 8.152826
v -3.879031 7.285136 8.152826
v -3.879031 7.285136 8.152826
v -3.879031 7.285136 8.152826
v -3.872786 7.284864 8.149676
v -3.872786 7.284864 8.149676
v -3.872786 7.284864 8.149676
v -3.872786 7.284864 8.149676
v -3.897877 7.365249 8.135586
v -3.897877 7.365249 8.135586
v -3.897877 7.365249 8.135586
v -3.905047 7.365249 8.138853
v -3.905047 7.365249 8.138853
v -3.671654 7.365249 8.146740
v -3.671654 7.365249 8.146740
v -3.671654 7.365249 8.146740
v -3.671654 7.365249 8.146740
v -3.697952 7.285796 8.160474
v -3.697952 7.285796 8.160474
v -3.697952 7.285796 8.160474
v -3.697952 7.285796 8.160474
v -3.701192 7.244538 8.208032
v -3.701192 7.244538 8.208032
v -3.701192 7.244538 8.208032
v -3.701192 7.244538 8.208032
v -3.701192 7.244538 8.208032
v -3.701192 7.244538 8.208032
v -3.671654 7.365249 8.377459
v -3.671654 7.365249 8.377459
v -3.671654 7.365249 8.377459
v -3.671654 7.365249 8.377459
v -3.701216 7.222228 8.357788
v -3.701216 7.222228 8.357788
v -3.701216 7.222228 8.357788
v -3.701216 7.222228 8.357788
v -3.701216 7.222228 8.357788
v -3.700526 7.228702 8.368072
v -3.700526 7.228702 8.368072
v -3.700526 7.228702 8.368072
v -3.700526 7.228702 8.368072
v -3.674629 7.365249 8.385338
v -3.674629 7.365249 8.385338
v -3.674629 7.365249 8.385338
v -3.701031 7.223505 8.364990
v -3.701031 7.223505 8.364990
v -3.701031 7.223505 8.364990
v -3.681810 7.365249 8.388601
v -3.681810 7.365249 8.388601
v -3.681810 7.365249 8.388601
v -3.703184 7.226535 8.375757
v -3.703184 7.226535 8.375757
v -3.703184 7.226535 8.375757
v -3.703184 7.226535 8.375757
v -3.709426 7.225640 8.378925
v -3.709426 7.225640 8.378925
v -3.709426 7.225640 8.378925
v -3.709426 7.225640 8.378925
v -3.709426 7.225640 8.378925
v -3.897860 7.365249 8.388601
v -3.897860 7.365249 8.388601
v -3.897860 7.365249 8.388601
v -3.870244 7.225640 8.378925
v -3.870244 7.225640 8.378925
v -3.870244 7.225640 8.378925
v -3.870244 7.225640 8.378925
v -3.870244 7.225640 8.378925
v -3.876486 7.226535 8.375757
v -3.876486 7.226535 8.375757
v -3.876486 7.226535 8.375757
v -3.876486 7.226535 8.375757
v -3.905041 7.365249 8.385338
v -3.905041 7.365249 8.385338
v -3.905041 7.365249 8.385338
v -3.709949 7.245595 8.178954
v -3.709949 7.245595 8.178954
v -3.709949 7.245595 8.178954
v -3.709949 7.245595 8.178954
v -3.709949 7.245595 8.178954
v -3.702469 7.264094 8.161582
v -3.702469 7.264094 8.161582
v -3.702469 7.264094 8.161582
v -3.702469 7.264094 8.161582
v -3.702469 7.264094 8.161582
v -3.710383 7.236431 8.205881
v -3.710383 7.236431 8.205881
v -3.710383 7.236431 8.205881
v -3.710383 7.236431 8.205881
v -3.710383 7.236431 8.205881
v -3.710405 7.213576 8.359063
v -3.710405 7.213576 8.359063
v -3.710405 7.213576 8.359063
v -3.710405 7.213576 8.359063
v -3.710405 7.213576 8.359063
v -3.710405 7.213576 8.359063
v -3.704175 7.216067 8.358695
v -3.704175 7.216067 8.358695
v -3.704175 7.216067 8.358695
v -3.704175 7.216067 8.358695
v -3.703900 7.218157 8.370456
v -3.703900 7.218157 8.370456
v -3.703900 7.218157 8.370456
v -3.703900 7.218157 8.370456
v -3.703900 7.218157 8.370456
v -3.703900 7.218157 8.370456
v -3.710153 7.215980 8.372681
v -3.710153 7.215980 8.372681
v -3.710153 7.215980 8.372681
v -3.710153 7.215980 8.372681
v -3.869286 7.236431 8.205881
v -3.869286 7.236431 8.205881
v -3.869286 7.236431 8.205881
v -3.869286 7.236431 8.205881
v -3.869286 7.236431 8.205881
v -3.869721 7.245595 8.178954
v -3.869721 7.245595 8.178954
v -3.869721 7.245595 8.178954
v -3.869721 7.245595 8.178954
v -3.869721 7.245595 8.178954
v -3.875958 7.247602 8.180625
v -3.875958 7.247602 8.180625
v -3.875958 7.247602 8.180625
v -3.875958 7.247602 8.180625
v -3.875958 7.247602 8.180625
v -3.877201 7.264094 8.161582
v -3.877201 7.264094 8.161582
v -3.877201 7.264094 8.161582
v -3.877201 7.264094 8.161582
v -3.877201 7.264094 8.161582
v -3.875510 7.238762 8.206499
v -3.875510 7.238762 8.206499
v -3.875510 7.238762 8.206499
v -3.875510 7.238762 8.206499
v -3.875510 7.238762 8.206499
v -3.869265 7.213576 8.359063
v -3.869265 7.213576 8.359063
v -3.869265 7.213576 8.359063
v -3.869265 7.213576 8.359063
v -3.869265 7.213576 8.359063
v -3.869265 7.213576 8.359063
v -3.875495 7.216067 8.358695
v -3.875495 7.216067 8.358695
v -3.875495 7.216067 8.358695
v -3.875495 7.216067 8.358695
v -3.875770 7.218157 8.370456
v -3.875770 7.218157 8.370456
v -3.875770 7.218157 8.370456
v -3.875770 7.218157 8.370456
v -3.875770 7.218157 8.370456
v -3.875770 7.218157 8.370456
v -3.869517 7.215980 8.372681
v -3.869517 7.215980 8.372681
v -3.869517 7.215980 8.372681
v -3.869517 7.215980 8.372681
v -3.708712 7.262961 8.158804
v -3.708712 7.262961 8.158804
v -3.708712 7.262961 8.158804
v -3.708712 7.262961 8.158804
v -3.870958 7.262961 8.158804
v -3.870958 7.262961 8.158804
v -3.870958 7.262961 8.158804
v -3.870958 7.262961 8.158804
v -3.816943 7.228367 8.212635
v -3.816943 7.228367 8.212635
v -3.816943 7.228367 8.212635
v -3.816943 7.228367 8.212635
v -3.816943 7.228367 8.212635
v -3.839923 7.226100 8.227822
v -3.839923 7.226100 8.227822
v -3.839923 7.226100 8.227822
v -3.839923 7.226100 8.227822
v -3.838975 7.223291 8.228362
v -3.838975 7.223291 8.228362
v -3.838975 7.223291 8.228362
v -3.838975 7.223291 8.228362
v -3.838975 7.223291 8.228362
v -3.855278 7.214710 8.304172
v -3.855278 7.214710 8.304172
v -3.855278 7.214710 8.304172
v -3.855278 7.214710 8.304172
v -3.855278 7.214710 8.304172
v -3.855278 7.214710 8.304172
v -3.860670 7.218710 8.277360
v -3.860670 7.218710 8.277360
v -3.860670 7.218710 8.277360
v -3.860670 7.218710 8.277360
v -3.860670 7.218710 8.277360
v -3.861436 7.225613 8.278391
v -3.861436 7.225613 8.278391
v -3.861436 7.225613 8.278391
v -3.861436 7.225613 8.278391
v -3.855986 7.221569 8.305492
v -3.855986 7.221569 8.305492
v -3.855986 7.221569 8.305492
v -3.855986 7.221569 8.305492
v -3.816430 7.225515 8.213462
v -3.816430 7.225515 8.213462
v -3.816430 7.225515 8.213462
v -3.816430 7.225515 8.213462
v -3.839923 7.211319 8.326901
v -3.839923 7.211319 8.326901
v -3.839923 7.211319 8.326901
v -3.839923 7.211319 8.326901
v -3.839923 7.211319 8.326901
v -3.839923 7.211319 8.326901
v -3.840464 7.218141 8.328466
v -3.840464 7.218141 8.328466
v -3.840464 7.218141 8.328466
v -3.817235 7.215851 8.343817
v -3.817235 7.215851 8.343817
v -3.817235 7.215851 8.343817
v -3.817235 7.215851 8.343817
v -3.816943 7.209053 8.342088
v -3.816943 7.209053 8.342088
v -3.816943 7.209053 8.342088
v -3.816943 7.209053 8.342088
v -3.816943 7.209053 8.342088
v -3.838975 7.208789 8.325565
v -3.838975 7.208789 8.325565
v -3.838975 7.208789 8.325565
v -3.838975 7.208789 8.325565
v -3.838975 7.208789 8.325565
v -3.838975 7.208789 8.325565
v -3.816430 7.206566 8.340464
v -3.816430 7.206566 8.340464
v -3.816430 7.206566 8.340464
v -3.816430 7.206566 8.340464
v -3.854039 7.212115 8.303266
v -3.854039 7.212115 8.303266
v -3.854039 7.212115 8.303266
v -3.854039 7.212115 8.303266
v -3.854039 7.212115 8.303266
v -3.859329 7.216041 8.276963
v -3.859329 7.216041 8.276963
v -3.859329 7.216041 8.276963
v -3.859329 7.216041 8.276963
v -3.908016 7.365249 8.146740
v -3.908016 7.365249 8.146740
v -3.908016 7.365249 8.146740
v -3.908016 7.365249 8.146740
v -3.881717 7.285796 8.160474
v -3.881717 7.285796 8.160474
v -3.881717 7.285796 8.160474
v -3.881717 7.285796 8.160474
v -3.878477 7.244538 8.208032
v -3.878477 7.244538 8.208032
v -3.878477 7.244538 8.208032
v -3.878477 7.244538 8.208032
v -3.878477 7.244538 8.208032
v -3.878477 7.244538 8.208032
v -3.908016 7.365249 8.377459
v -3.908016 7.365249 8.377459
v -3.908016 7.365249 8.377459
v -3.908016 7.365249 8.377459
v -3.878454 7.222228 8.357788
v -3.878454 7.222228 8.357788
v -3.878454 7.222228 8.357788
v -3.878454 7.222228 8.357788
v -3.878454 7.222228 8.357788
v -3.879143 7.228702 8.368072
v -3.879143 7.228702 8.368072
v -3.879143 7.228702 8.368072
v -3.879143 7.228702 8.368072
v -3.878639 7.223505 8.364990
v -3.878639 7.223505 8.364990
v -3.878639 7.223505 8.364990
v -3.854224 -7.484468 8.276802
v -3.854224 -7.484468 8.276802
v -3.854224 -7.484468 8.276802
v -3.854224 -7.484468 8.276802
v -3.851562 -7.480318 8.302043
v -3.851562 -7.480318 8.302043
v -3.851562 -7.480318 8.302043
v -3.851562 -7.480318 8.302043
v -3.856651 -7.484159 8.276753
v -3.856651 -7.484159 8.276753
v -3.856651 -7.484159 8.276753
v -3.856651 -7.484159 8.276753
v -3.849323 -7.480704 8.301173
v -3.849323 -7.480704 8.301173
v -3.849323 -7.480704 8.301173
v -3.837077 -7.477063 8.323481
v -3.837077 -7.477063 8.323481
v -3.837077 -7.477063 8.323481
v -3.835364 -7.477515 8.321833
v -3.835364 -7.477515 8.321833
v -3.835364 -7.477515 8.321833
v -3.815402 -7.474890 8.337806
v -3.815402 -7.474890 8.337806
v -3.815402 -7.474890 8.337806
v -3.814475 -7.475382 8.335639
v -3.814475 -7.475382 8.335639
v -3.814475 -7.475382 8.335639
v -3.789835 -7.474128 8.342836
v -3.789835 -7.474128 8.342836
v -3.789835 -7.474128 8.342836
v -3.789835 -7.474635 8.340487
v -3.789835 -7.474635 8.340487
v -3.789835 -7.474635 8.340487
v -3.765194 -7.475382 8.335639
v -3.765194 -7.475382 8.335639
v -3.765194 -7.475382 8.335639
v -3.764269 -7.474890 8.337806
v -3.764269 -7.474890 8.337806
v -3.764269 -7.474890 8.337806
v -3.744305 -7.477515 8.321833
v -3.744305 -7.477515 8.321833
v -3.744305 -7.477515 8.321833
v -3.742592 -7.477063 8.323481
v -3.742592 -7.477063 8.323481
v -3.742592 -7.477063 8.323481
v -3.730348 -7.480704 8.301173
v -3.730348 -7.480704 8.301173
v -3.730348 -7.480704 8.301173
v -3.728108 -7.480318 8.302043
v -3.728108 -7.480318 8.302043
v -3.728108 -7.480318 8.302043
v -3.728108 -7.480318 8.302043
v -3.725446 -7.484468 8.276802
v -3.725446 -7.484468 8.276802
v -3.725446 -7.484468 8.276802
v -3.725446 -7.484468 8.276802
v -3.723019 -7.484159 8.276753
v -3.723019 -7.484159 8.276753
v -3.723019 -7.484159 8.276753
v -3.723019 -7.484159 8.276753
v -3.764262 -7.493441 8.215687
v -3.764262 -7.493441 8.215687
v -3.764262 -7.493441 8.215687
v -3.764262 -7.493441 8.215687
v -3.879143 -7.498210 8.368072
v -3.879143 -7.498210 8.368072
v -3.879143 -7.498210 8.368072
v -3.879143 -7.498210 8.368072
v -3.908016 -7.634756 8.377459
v -3.908016 -7.634756 8.377459
v -3.908016 -7.634756 8.377459
v -3.908016 -7.634756 8.377459
v -3.878454 -7.491736 8.357788
v -3.878454 -7.491736 8.357788
v -3.878454 -7.491736 8.357788
v -3.878454 -7.491736 8.357788
v -3.878454 -7.491736 8.357788
v -3.878639 -7.493013 8.364990
v -3.878639 -7.493013 8.364990
v -3.878639 -7.493013 8.364990
v -3.878477 -7.514048 8.208032
v -3.878477 -7.514048 8.208032
v -3.878477 -7.514048 8.208032
v -3.878477 -7.514048 8.208032
v -3.878477 -7.514048 8.208032
v -3.878477 -7.514048 8.208032
v -3.881717 -7.555305 8.160474
v -3.881717 -7.555305 8.160474
v -3.881717 -7.555305 8.160474
v -3.881717 -7.555305 8.160474
v -3.728108 7.210810 8.302043
v -3.728108 7.210810 8.302043
v -3.728108 7.210810 8.302043
v -3.728108 7.210810 8.302043
v -3.725446 7.214960 8.276802
v -3.725446 7.214960 8.276802
v -3.725446 7.214960 8.276802
v -3.725446 7.214960 8.276802
v -3.730348 7.211197 8.301173
v -3.730348 7.211197 8.301173
v -3.730348 7.211197 8.301173
v -3.742593 7.207556 8.323481
v -3.742593 7.207556 8.323481
v -3.742593 7.207556 8.323481
v -3.744305 7.208006 8.321833
v -3.744305 7.208006 8.321833
v -3.744305 7.208006 8.321833
v -3.764269 7.205382 8.337806
v -3.764269 7.205382 8.337806
v -3.764269 7.205382 8.337806
v -3.765194 7.205875 8.335639
v -3.765194 7.205875 8.335639
v -3.765194 7.205875 8.335639
v -3.789835 7.204619 8.342836
v -3.789835 7.204619 8.342836
v -3.789835 7.204619 8.342836
v -3.789835 7.205126 8.340487
v -3.789835 7.205126 8.340487
v -3.789835 7.205126 8.340487
v -3.814475 7.205875 8.335639
v -3.814475 7.205875 8.335639
v -3.814475 7.205875 8.335639
v -3.815402 7.205382 8.337806
v -3.815402 7.205382 8.337806
v -3.815402 7.205382 8.337806
v -3.835364 7.208006 8.321833
v -3.835364 7.208006 8.321833
v -3.835364 7.208006 8.321833
v -3.837077 7.207556 8.323481
v -3.837077 7.207556 8.323481
v -3.837077 7.207556 8.323481
v -3.849323 7.211197 8.301173
v -3.849323 7.211197 8.301173
v -3.849323 7.211197 8.301173
v -3.851562 7.210810 8.302043
v -3.851562 7.210810 8.302043
v -3.851562 7.210810 8.302043
v -3.851562 7.210810 8.302043
v -3.854224 7.214960 8.276802
v -3.854224 7.214960 8.276802
v -3.854224 7.214960 8.276802
v -3.854224 7.214960 8.276802
v -3.856651 7.214650 8.276753
v -3.856651 7.214650 8.276753
v -3.856651 7.214650 8.276753
v -3.856651 7.214650 8.276753
v -3.728102 7.218494 8.251461
v -3.728102 7.218494 8.251461
v -3.728102 7.218494 8.251461
v -3.728102 7.218494 8.251461
v -3.739205 -7.502591 8.228316
v -3.739205 -7.502591 8.228316
v -3.739205 -7.502591 8.228316
v -3.762434 -7.504881 8.212964
v -3.762434 -7.504881 8.212964
v -3.762434 -7.504881 8.212964
v -3.789835 -7.505686 8.207574
v -3.789835 -7.505686 8.207574
v -3.789835 -7.505686 8.207574
v -3.723684 -7.499163 8.251291
v -3.723684 -7.499163 8.251291
v -3.723684 -7.499163 8.251291
v -3.789835 -7.484553 8.349208
v -3.789835 -7.484553 8.349208
v -3.789835 -7.484553 8.349208
v -3.789835 -7.477766 8.347421
v -3.789835 -7.477766 8.347421
v -3.789835 -7.477766 8.347421
v -3.789835 -7.477766 8.347421
v -3.789835 -7.475294 8.345698
v -3.789835 -7.475294 8.345698
v -3.789835 -7.475294 8.345698
v -3.789835 -7.475294 8.345698
v -3.728102 -7.488003 8.251461
v -3.728102 -7.488003 8.251461
v -3.728102 -7.488003 8.251461
v -3.728102 -7.488003 8.251461
v -3.726181 -7.486568 8.275615
v -3.726181 -7.486568 8.275615
v -3.726181 -7.486568 8.275615
v -3.730348 -7.488231 8.252431
v -3.730348 -7.488231 8.252431
v -3.730348 -7.488231 8.252431
v -3.730348 -7.488231 8.252431
v -3.731027 -7.490138 8.251522
v -3.731027 -7.490138 8.251522
v -3.731027 -7.490138 8.251522
v -3.744305 -7.491422 8.231771
v -3.744305 -7.491422 8.231771
v -3.744305 -7.491422 8.231771
v -3.744305 -7.491422 8.231771
v -3.744825 -7.493164 8.231098
v -3.744825 -7.493164 8.231098
v -3.744825 -7.493164 8.231098
v -3.765194 -7.493555 8.217965
v -3.765194 -7.493555 8.217965
v -3.765194 -7.493555 8.217965
v -3.765194 -7.493555 8.217965
v -3.765476 -7.495185 8.217450
v -3.765476 -7.495185 8.217450
v -3.765476 -7.495185 8.217450
v -3.789835 -7.494303 8.213117
v -3.789835 -7.494303 8.213117
v -3.789835 -7.494303 8.213117
v -3.789835 -7.494303 8.213117
v -3.789835 -7.495895 8.212658
v -3.789835 -7.495895 8.212658
v -3.789835 -7.495895 8.212658
v -3.731027 -7.483000 8.299708
v -3.731027 -7.483000 8.299708
v -3.731027 -7.483000 8.299708
v -3.744825 -7.479974 8.320132
v -3.744825 -7.479974 8.320132
v -3.744825 -7.479974 8.320132
v -3.765476 -7.477952 8.333780
v -3.765476 -7.477952 8.333780
v -3.765476 -7.477952 8.333780
v -3.789835 -7.477243 8.338572
v -3.789835 -7.477243 8.338572
v -3.789835 -7.477243 8.338572
v -3.789835 -7.634756 8.135586
v -3.789835 -7.554371 8.149676
v -3.789835 -7.554371 8.149676
v -3.789835 -7.532469 8.158804
v -3.789835 -7.532469 8.158804
v -3.789835 -7.532469 8.158804
v -3.870958 -7.532469 8.158804
v -3.870958 -7.532469 8.158804
v -3.870958 -7.532469 8.158804
v -3.870958 -7.532469 8.158804
v -3.699655 -7.536377 8.168384
v -3.699655 -7.536377 8.168384
v -3.699655 -7.536377 8.168384
v -3.700774 -7.522064 8.184755
v -3.700774 -7.522064 8.184755
v -3.700774 -7.522064 8.184755
v -3.789835 -7.634756 8.388601
v -3.789835 -7.495149 8.378925
v -3.789835 -7.495149 8.378925
v -3.789835 -7.485488 8.372681
v -3.789835 -7.485488 8.372681
v -3.789835 -7.483084 8.359063
v -3.789835 -7.483084 8.359063
v -3.789835 -7.515103 8.178954
v -3.789835 -7.515103 8.178954
v -3.789835 -7.515103 8.178954
v -3.789835 -7.505929 8.205939
v -3.789835 -7.505929 8.205939
v -3.817235 -7.504881 8.212964
v -3.817235 -7.504881 8.212964
v -3.817235 -7.504881 8.212964
v -3.816943 -7.497874 8.212635
v -3.816943 -7.497874 8.212635
v -3.816943 -7.497874 8.212635
v -3.816943 -7.497874 8.212635
v -3.840464 -7.502591 8.228316
v -3.840464 -7.502591 8.228316
v -3.840464 -7.502591 8.228316
v -3.839923 -7.495608 8.227822
v -3.839923 -7.495608 8.227822
v -3.839923 -7.495608 8.227822
v -3.839923 -7.495608 8.227822
v -3.816430 -7.495022 8.213462
v -3.816430 -7.495022 8.213462
v -3.816430 -7.495022 8.213462
v -3.816430 -7.495022 8.213462
v -3.838975 -7.492799 8.228362
v -3.838975 -7.492799 8.228362
v -3.838975 -7.492799 8.228362
v -3.838975 -7.492799 8.228362
v -3.855986 -7.499163 8.251291
v -3.855986 -7.499163 8.251291
v -3.855986 -7.499163 8.251291
v -3.855278 -7.492218 8.250552
v -3.855278 -7.492218 8.250552
v -3.855278 -7.492218 8.250552
v -3.855278 -7.492218 8.250552
v -3.854039 -7.489473 8.250659
v -3.854039 -7.489473 8.250659
v -3.854039 -7.489473 8.250659
v -3.854039 -7.489473 8.250659
v -3.848643 -7.490138 8.251522
v -3.848643 -7.490138 8.251522
v -3.848643 -7.490138 8.251522
v -3.853489 -7.486568 8.275615
v -3.853489 -7.486568 8.275615
v -3.853489 -7.486568 8.275615
v -3.849323 -7.488231 8.252431
v -3.849323 -7.488231 8.252431
v -3.849323 -7.488231 8.252431
v -3.849323 -7.488231 8.252431
v -3.848643 -7.483000 8.299708
v -3.848643 -7.483000 8.299708
v -3.848643 -7.483000 8.299708
v -3.834845 -7.479974 8.320132
v -3.834845 -7.479974 8.320132
v -3.834845 -7.479974 8.320132
v -3.814195 -7.477952 8.333780
v -3.814195 -7.477952 8.333780
v -3.814195 -7.477952 8.333780
v -3.814195 -7.495185 8.217450
v -3.814195 -7.495185 8.217450
v -3.814195 -7.495185 8.217450
v -3.814475 -7.493555 8.217965
v -3.814475 -7.493555 8.217965
v -3.814475 -7.493555 8.217965
v -3.814475 -7.493555 8.217965
v -3.834845 -7.493164 8.231098
v -3.834845 -7.493164 8.231098
v -3.834845 -7.493164 8.231098
v -3.835364 -7.491422 8.231771
v -3.835364 -7.491422 8.231771
v -3.835364 -7.491422 8.231771
v -3.835364 -7.491422 8.231771
v -3.877201 -7.533602 8.161582
v -3.877201 -7.533602 8.161582
v -3.877201 -7.533602 8.161582
v -3.877201 -7.533602 8.161582
v -3.739205 7.233083 8.228316
v -3.739205 7.233083 8.228316
v -3.739205 7.233083 8.228316
v -3.762434 7.235373 8.212964
v -3.762434 7.235373 8.212964
v -3.762434 7.235373 8.212964
v -3.762728 7.228367 8.212635
v -3.762728 7.228367 8.212635
v -3.762728 7.228367 8.212635
v -3.762728 7.228367 8.212635
v -3.739748 7.226100 8.227822
v -3.739748 7.226100 8.227822
v -3.739748 7.226100 8.227822
v -3.739748 7.226100 8.227822
v -3.723684 7.229656 8.251291
v -3.723684 7.229656 8.251291
v -3.723684 7.229656 8.251291
v -3.724392 7.222710 8.250552
v -3.724392 7.222710 8.250552
v -3.724392 7.222710 8.250552
v -3.724392 7.222710 8.250552
v -3.740695 7.223291 8.228362
v -3.740695 7.223291 8.228362
v -3.740695 7.223291 8.228362
v -3.740695 7.223291 8.228362
v -3.763241 7.225515 8.213462
v -3.763241 7.225515 8.213462
v -3.763241 7.225515 8.213462
v -3.763241 7.225515 8.213462
v -3.789835 7.236178 8.207574
v -3.789835 7.236178 8.207574
v -3.789835 7.236178 8.207574
v -3.789835 7.229163 8.207303
v -3.789835 7.229163 8.207303
v -3.789835 7.229163 8.207303
v -3.789835 7.229163 8.207303
v -3.789835 7.226295 8.208230
v -3.789835 7.226295 8.208230
v -3.789835 7.226295 8.208230
v -3.789835 7.226295 8.208230
v -3.789835 7.205786 8.345698
v -3.789835 7.205786 8.345698
v -3.789835 7.205786 8.345698
v -3.789835 7.205786 8.345698
v -3.726181 7.217061 8.275615
v -3.726181 7.217061 8.275615
v -3.726181 7.217061 8.275615
v -3.730348 7.218723 8.252431
v -3.730348 7.218723 8.252431
v -3.730348 7.218723 8.252431
v -3.730348 7.218723 8.252431
v -3.731027 7.220631 8.251522
v -3.731027 7.220631 8.251522
v -3.731027 7.220631 8.251522
v -3.731027 7.220631 8.251522
v -3.744305 7.221914 8.231771
v -3.744305 7.221914 8.231771
v -3.744305 7.221914 8.231771
v -3.744305 7.221914 8.231771
v -3.744825 7.223656 8.231098
v -3.744825 7.223656 8.231098
v -3.744825 7.223656 8.231098
v -3.765194 7.224045 8.217965
v -3.765194 7.224045 8.217965
v -3.765194 7.224045 8.217965
v -3.765194 7.224045 8.217965
v -3.765476 7.225678 8.217450
v -3.765476 7.225678 8.217450
v -3.765476 7.225678 8.217450
v -3.789835 7.224794 8.213117
v -3.789835 7.224794 8.213117
v -3.789835 7.224794 8.213117
v -3.789835 7.224794 8.213117
v -3.789835 7.226388 8.212658
v -3.789835 7.226388 8.212658
v -3.789835 7.226388 8.212658
v -3.731027 7.213491 8.299708
v -3.731027 7.213491 8.299708
v -3.731027 7.213491 8.299708
v -3.744825 7.210466 8.320132
v -3.744825 7.210466 8.320132
v -3.744825 7.210466 8.320132
v -3.765476 7.208444 8.333780
v -3.765476 7.208444 8.333780
v -3.765476 7.208444 8.333780
v -3.789835 7.207734 8.338572
v -3.789835 7.207734 8.338572
v -3.789835 7.207734 8.338572
v -3.789835 7.365249 8.135586
v -3.789835 7.284864 8.149676
v -3.789835 7.284864 8.149676
v -3.789835 7.262961 8.158804
v -3.789835 7.262961 8.158804
v -3.699655 7.266870 8.168384
v -3.699655 7.266870 8.168384
v -3.699655 7.266870 8.168384
v -3.789835 7.365249 8.388601
v -3.789835 7.225640 8.378925
v -3.789835 7.225640 8.378925
v -3.789835 7.245595 8.178954
v -3.789835 7.245595 8.178954
v -3.789835 7.236421 8.205939
v -3.789835 7.236421 8.205939
v -3.789835 7.215980 8.372681
v -3.789835 7.215980 8.372681
v -3.789835 7.213576 8.359063
v -3.789835 7.213576 8.359063
v -3.814195 7.208444 8.333780
v -3.814195 7.208444 8.333780
v -3.814195 7.208444 8.333780
v -3.834845 7.210466 8.320132
v -3.834845 7.210466 8.320132
v -3.834845 7.210466 8.320132
v -3.848643 7.213491 8.299708
v -3.848643 7.213491 8.299708
v -3.848643 7.213491 8.299708
v -3.853489 7.217061 8.275615
v -3.853489 7.217061 8.275615
v -3.853489 7.217061 8.275615
v -3.848643 7.220631 8.251522
v -3.848643 7.220631 8.251522
v -3.848643 7.220631 8.251522
v -3.817235 7.235373 8.212964
v -3.817235 7.235373 8.212964
v -3.817235 7.235373 8.212964
v -3.840464 7.233083 8.228316
v -3.840464 7.233083 8.228316
v -3.840464 7.233083 8.228316
v -3.855986 7.229656 8.251291
v -3.855986 7.229656 8.251291
v -3.855986 7.229656 8.251291
v -3.855278 7.222710 8.250552
v -3.855278 7.222710 8.250552
v -3.855278 7.222710 8.250552
v -3.855278 7.222710 8.250552
v -3.854039 7.219964 8.250659
v -3.854039 7.219964 8.250659
v -3.854039 7.219964 8.250659
v -3.854039 7.219964 8.250659
v -3.849323 7.218723 8.252431
v -3.849323 7.218723 8.252431
v -3.849323 7.218723 8.252431
v -3.849323 7.218723 8.252431
v -3.835364 7.221914 8.231771
v -3.835364 7.221914 8.231771
v -3.835364 7.221914 8.231771
v -3.835364 7.221914 8.231771
v -3.814475 7.224045 8.217965
v -3.814475 7.224045 8.217965
v -3.814475 7.224045 8.217965
v -3.814475 7.224045 8.217965
v -3.880015 7.266870 8.168384
v -3.880015 7.266870 8.168384
v -3.880015 7.266870 8.168384
v -3.878896 7.252555 8.184755
v -3.878896 7.252555 8.184755
v -3.878896 7.252555 8.184755
v -3.851568 -7.488003 8.251461
v -3.851568 -7.488003 8.251461
v -3.851568 -7.488003 8.251461
v -3.851568 -7.488003 8.251461
v -3.837086 -7.491263 8.230018
v -3.837086 -7.491263 8.230018
v -3.837086 -7.491263 8.230018
v -3.837086 -7.491263 8.230018
v -3.815408 -7.493441 8.215687
v -3.815408 -7.493441 8.215687
v -3.815408 -7.493441 8.215687
v -3.815408 -7.493441 8.215687
v -3.789835 -7.494208 8.210655
v -3.789835 -7.494208 8.210655
v -3.789835 -7.494208 8.210655
v -3.789835 -7.494208 8.210655
v -3.878896 -7.522064 8.184755
v -3.878896 -7.522064 8.184755
v -3.878896 -7.522064 8.184755
v -3.880015 -7.536377 8.168384
v -3.880015 -7.536377 8.168384
v -3.880015 -7.536377 8.168384
v -3.742584 7.221754 8.230018
v -3.742584 7.221754 8.230018
v -3.742584 7.221754 8.230018
v -3.742584 7.221754 8.230018
v -3.851568 7.218494 8.251461
v -3.851568 7.218494 8.251461
v -3.851568 7.218494 8.251461
v -3.851568 7.218494 8.251461
v -3.764262 7.223934 8.215687
v -3.764262 7.223934 8.215687
v -3.764262 7.223934 8.215687
v -3.764262 7.223934 8.215687
v -3.837086 7.221754 8.230018
v -3.837086 7.221754 8.230018
v -3.837086 7.221754 8.230018
v -3.837086 7.221754 8.230018
v -3.789835 7.224700 8.210655
v -3.789835 7.224700 8.210655
v -3.789835 7.224700 8.210655
v -3.789835 7.224700 8.210655
v -3.815408 7.223934 8.215687
v -3.815408 7.223934 8.215687
v -3.815408 7.223934 8.215687
v -3.815408 7.223934 8.215687
v -3.789835 -7.486568 8.275615
vt 0.587685 0.732175
vt 0.587685 0.732175
vt 0.610626 0.813895
vt 0.610626 0.813895
vt 0.555156 0.691167
vt 0.555156 0.691167
vt 0.581368 0.770249
vt 0.555156 0.691167
vt 0.581368 0.770249
vt 0.592419 0.728815
vt 0.592419 0.728815
vt 0.592419 0.728815
vt 0.592419 0.728815
vt 0.592419 0.728815
vt 0.518520 0.653781
vt 0.518520 0.653781
vt 0.537635 0.741108
vt 0.537635 0.741108
vt 0.518520 0.653781
vt 0.537635 0.741108
vt 0.481564 0.615547
vt 0.481564 0.615547
vt 0.481564 0.615547
vt 0.194675 0.967545
vt 0.194675 0.967545
vt 0.522443 0.649512
vt 0.522443 0.649512
vt 0.522443 0.649512
vt 0.522443 0.649512
vt 0.478263 0.620338
vt 0.191252 0.962841
vt 0.486069 0.730896
vt 0.486069 0.730896
vt 0.963259 0.016981
vt 0.963259 0.016981
vt 0.221160 0.482131
vt 0.404673 0.053304
vt 0.404673 0.053304
vt 0.945961 0.064423
vt 0.945961 0.064423
vt 0.945961 0.064423
vt 0.945961 0.064423
vt 0.945961 0.064423
vt 0.950167 0.013547
vt 0.221117 0.495523
vt 0.221117 0.495523
vt 0.950167 0.013547
vt 0.144911 0.461740
vt 0.171688 0.824014
vt 0.171688 0.824014
vt 0.144911 0.461740
vt 0.171688 0.824014
vt 0.144911 0.461740
vt 0.309059 0.471673
vt 0.309059 0.471673
vt 0.309059 0.471673
vt 0.309059 0.471673
vt 0.307291 0.487805
vt 0.014802 0.873215
vt 0.383404 0.098553
vt 0.383404 0.098553
vt 0.383404 0.098553
vt 0.383404 0.098553
vt 0.372675 0.090112
vt 0.958872 0.065704
vt 0.958872 0.065704
vt 0.958872 0.065704
vt 0.372675 0.090112
vt 0.355307 0.140061
vt 0.355307 0.140061
vt 0.957978 0.119260
vt 0.957978 0.119260
vt 0.957978 0.119260
vt 0.355307 0.140061
vt 0.706014 0.347173
vt 0.706014 0.347173
vt 0.292735 0.582718
vt 0.292735 0.582718
vt 0.792781 0.260335
vt 0.792781 0.260335
vt 0.792781 0.260335
vt 0.679392 0.307354
vt 0.679392 0.307354
vt 0.308501 0.537488
vt 0.308501 0.537488
vt 0.559512 0.687330
vt 0.559512 0.687330
vt 0.559512 0.687330
vt 0.559512 0.687330
vt 0.644333 0.820953
vt 0.644333 0.820953
vt 0.644333 0.820953
vt 0.644333 0.820953
vt 0.644333 0.820953
vt 0.644333 0.820953
vt 0.620797 0.773520
vt 0.620797 0.773520
vt 0.620797 0.773520
vt 0.620797 0.773520
vt 0.620797 0.773520
vt 0.632593 0.766861
vt 0.632593 0.766861
vt 0.632593 0.766861
vt 0.929789 0.260303
vt 0.656762 0.815567
vt 0.656762 0.815567
vt 0.656762 0.815567
vt 0.919185 0.313000
vt 0.662768 0.870592
vt 0.662768 0.870592
vt 0.662768 0.870592
vt 0.662768 0.870592
vt 0.662768 0.870592
vt 0.662768 0.870592
vt 0.675694 0.866538
vt 0.675694 0.866538
vt 0.889290 0.357783
vt 0.689187 0.919202
vt 0.689187 0.919202
vt 0.689187 0.919202
vt 0.844560 0.387790
vt 0.675905 0.921892
vt 0.675905 0.921892
vt 0.675905 0.921892
vt 0.675905 0.921892
vt 0.675905 0.921892
vt 0.639002 0.823252
vt 0.639002 0.823252
vt 0.639002 0.823252
vt 0.610783 0.916998
vt 0.610783 0.916998
vt 0.615737 0.776365
vt 0.615737 0.776365
vt 0.620956 0.865403
vt 0.620956 0.865403
vt 0.657226 0.872320
vt 0.657226 0.872320
vt 0.657226 0.872320
vt 0.657226 0.872320
vt 0.581658 0.960776
vt 0.581658 0.960776
vt 0.670214 0.923029
vt 0.670214 0.923029
vt 0.537973 0.990080
vt 0.537973 0.990080
vt 0.577322 0.774250
vt 0.577322 0.774250
vt 0.577322 0.774250
vt 0.577322 0.774250
vt 0.577322 0.774250
vt 0.021706 0.424576
vt 0.607604 0.011109
vt 0.177004 0.478581
vt 0.177004 0.478581
vt 0.445035 0.035967
vt 0.445035 0.035967
vt 0.177004 0.478581
vt 0.445035 0.035967
vt 0.019733 0.439631
vt 0.019733 0.439631
vt 0.019733 0.439631
vt 0.175425 0.491931
vt 0.175425 0.491931
vt 0.175425 0.491931
vt 0.175425 0.491931
vt 0.013293 0.858106
vt 0.013293 0.858106
vt 0.013293 0.858106
vt 0.170521 0.810621
vt 0.170521 0.810621
vt 0.170521 0.810621
vt 0.170521 0.810621
vt 0.609252 0.027254
vt 0.609252 0.027254
vt 0.609252 0.027254
vt 0.609252 0.027254
vt 0.447579 0.051436
vt 0.447579 0.051436
vt 0.447579 0.051436
vt 0.447579 0.051436
vt 0.367756 0.143292
vt 0.367756 0.143292
vt 0.367756 0.143292
vt 0.367756 0.143292
vt 0.367756 0.143292
vt 0.367756 0.143292
vt 0.604590 0.471365
vt 0.604590 0.471365
vt 0.604590 0.471365
vt 0.604590 0.471365
vt 0.323673 0.431477
vt 0.323673 0.431477
vt 0.323673 0.431477
vt 0.323673 0.431477
vt 0.323673 0.431477
vt 0.335937 0.451469
vt 0.335937 0.451469
vt 0.335937 0.451469
vt 0.335937 0.451469
vt 0.603179 0.487531
vt 0.979150 0.497549
vt 0.603179 0.487531
vt 0.326035 0.445348
vt 0.326035 0.445348
vt 0.326035 0.445348
vt 0.979713 0.512752
vt 0.979713 0.512752
vt 0.979713 0.512752
vt 0.710463 0.550027
vt 0.710463 0.550027
vt 0.961567 0.460630
vt 0.330559 0.466774
vt 0.709348 0.563590
vt 0.948179 0.465084
vt 0.948179 0.465084
vt 0.709348 0.563590
vt 0.948179 0.465084
vt 0.975976 0.929416
vt 0.975976 0.929416
vt 0.975976 0.929416
vt 0.707438 0.887318
vt 0.707438 0.887318
vt 0.621743 0.460501
vt 0.033639 0.030095
vt 0.706566 0.873737
vt 0.635131 0.464964
vt 0.635131 0.464964
vt 0.706566 0.873737
vt 0.635131 0.464964
vt 0.975140 0.944607
vt 0.306406 0.011364
vt 0.306406 0.011364
vt 0.958872 0.065704
vt 0.958872 0.065704
vt 0.958872 0.065704
vt 0.372675 0.090112
vt 0.372675 0.090112
vt 0.945126 0.118981
vt 0.945126 0.118981
vt 0.945126 0.118981
vt 0.945126 0.118981
vt 0.945126 0.118981
vt 0.957978 0.119260
vt 0.957978 0.119260
vt 0.957978 0.119260
vt 0.355307 0.140061
vt 0.355307 0.140061
vt 0.944696 0.416952
vt 0.944696 0.416952
vt 0.944696 0.416952
vt 0.944696 0.416952
vt 0.944696 0.416952
vt 0.944696 0.416952
vt 0.957575 0.416256
vt 0.957575 0.416256
vt 0.310463 0.433129
vt 0.310463 0.433129
vt 0.957908 0.441136
vt 0.957908 0.441136
vt 0.957908 0.441136
vt 0.957908 0.441136
vt 0.314555 0.456065
vt 0.314555 0.456065
vt 0.944866 0.443292
vt 0.944866 0.443292
vt 0.944866 0.443292
vt 0.944866 0.443292
vt 0.625410 0.441007
vt 0.625410 0.441007
vt 0.625410 0.441007
vt 0.625410 0.441007
vt 0.017556 0.040685
vt 0.017556 0.040685
vt 0.638452 0.443173
vt 0.638452 0.443173
vt 0.638452 0.443173
vt 0.638452 0.443173
vt 0.638633 0.416832
vt 0.638633 0.416832
vt 0.638633 0.416832
vt 0.638633 0.416832
vt 0.638633 0.416832
vt 0.638633 0.416832
vt 0.625756 0.416113
vt 0.625756 0.416113
vt 0.013293 0.063590
vt 0.013293 0.063590
vt 0.625846 0.118947
vt 0.625846 0.118947
vt 0.625846 0.118947
vt 0.055959 0.356982
vt 0.055959 0.356982
vt 0.638698 0.118694
vt 0.638698 0.118694
vt 0.638698 0.118694
vt 0.638698 0.118694
vt 0.638698 0.118694
vt 0.625036 0.065404
vt 0.625036 0.065404
vt 0.625036 0.065404
vt 0.072955 0.407059
vt 0.072955 0.407059
vt 0.394357 0.658611
vt 0.394357 0.658611
vt 0.394357 0.658611
vt 0.738900 0.387756
vt 0.369208 0.707890
vt 0.369208 0.707890
vt 0.369208 0.707890
vt 0.369208 0.707890
vt 0.369208 0.707890
vt 0.369208 0.707890
vt 0.381011 0.656266
vt 0.381011 0.656266
vt 0.381011 0.656266
vt 0.381011 0.656266
vt 0.381011 0.656266
vt 0.382234 0.711607
vt 0.382234 0.711607
vt 0.694153 0.357709
vt 0.364630 0.763052
vt 0.364630 0.763052
vt 0.364630 0.763052
vt 0.664285 0.312918
vt 0.352065 0.757990
vt 0.352065 0.757990
vt 0.352065 0.757990
vt 0.352065 0.757990
vt 0.352065 0.757990
vt 0.352065 0.757990
vt 0.341732 0.812368
vt 0.341732 0.812368
vt 0.341732 0.812368
vt 0.653794 0.260121
vt 0.363623 0.706306
vt 0.363623 0.706306
vt 0.363623 0.706306
vt 0.363623 0.706306
vt 0.391055 0.961014
vt 0.391055 0.961014
vt 0.375292 0.655278
vt 0.375292 0.655278
vt 0.434813 0.990209
vt 0.434813 0.990209
vt 0.346677 0.755829
vt 0.346677 0.755829
vt 0.346677 0.755829
vt 0.361821 0.917310
vt 0.361821 0.917310
vt 0.329766 0.806017
vt 0.329766 0.806017
vt 0.329766 0.806017
vt 0.329766 0.806017
vt 0.329766 0.806017
vt 0.324635 0.803303
vt 0.324635 0.803303
vt 0.351519 0.865740
vt 0.351519 0.865740
vt 0.637949 0.064146
vt 0.637949 0.064146
vt 0.637949 0.064146
vt 0.637949 0.064146
vt 0.620797 0.773520
vt 0.620797 0.773520
vt 0.620797 0.773520
vt 0.620797 0.773520
vt 0.620797 0.773520
vt 0.615737 0.776365
vt 0.620956 0.865403
vt 0.615737 0.776365
vt 0.620956 0.865403
vt 0.639002 0.823252
vt 0.639002 0.823252
vt 0.639002 0.823252
vt 0.610783 0.916998
vt 0.610783 0.916998
vt 0.644333 0.820953
vt 0.644333 0.820953
vt 0.644333 0.820953
vt 0.644333 0.820953
vt 0.644333 0.820953
vt 0.644333 0.820953
vt 0.697237 0.972746
vt 0.697237 0.972746
vt 0.401017 0.604877
vt 0.791722 0.398402
vt 0.689187 0.919202
vt 0.689187 0.919202
vt 0.689187 0.919202
vt 0.844560 0.387790
vt 0.675905 0.921892
vt 0.675905 0.921892
vt 0.675905 0.921892
vt 0.675905 0.921892
vt 0.675905 0.921892
vt 0.675905 0.921892
vt 0.662768 0.870592
vt 0.662768 0.870592
vt 0.662768 0.870592
vt 0.662768 0.870592
vt 0.662768 0.870592
vt 0.662768 0.870592
vt 0.675694 0.866538
vt 0.675694 0.866538
vt 0.889290 0.357783
vt 0.656762 0.815567
vt 0.656762 0.815567
vt 0.656762 0.815567
vt 0.919185 0.313000
vt 0.657226 0.872320
vt 0.657226 0.872320
vt 0.657226 0.872320
vt 0.657226 0.872320
vt 0.581658 0.960776
vt 0.581658 0.960776
vt 0.632593 0.766861
vt 0.632593 0.766861
vt 0.632593 0.766861
vt 0.929789 0.260303
vt 0.683750 0.974443
vt 0.683750 0.974443
vt 0.387491 0.603530
vt 0.387491 0.603530
vt 0.615112 0.865401
vt 0.615112 0.865401
vt 0.615112 0.865401
vt 0.615112 0.865401
vt 0.615112 0.865401
vt 0.610626 0.813895
vt 0.610626 0.813895
vt 0.587685 0.732175
vt 0.587685 0.732175
vt 0.610626 0.813895
vt 0.670214 0.923029
vt 0.670214 0.923029
vt 0.537973 0.990080
vt 0.537973 0.990080
vt 0.021706 0.424576
vt 0.607604 0.011109
vt 0.019733 0.439631
vt 0.019733 0.439631
vt 0.019733 0.439631
vt 0.177004 0.478581
vt 0.177004 0.478581
vt 0.445035 0.035967
vt 0.445035 0.035967
vt 0.177004 0.478581
vt 0.445035 0.035967
vt 0.175425 0.491931
vt 0.175425 0.491931
vt 0.175425 0.491931
vt 0.175425 0.491931
vt 0.171688 0.824014
vt 0.171688 0.824014
vt 0.144911 0.461740
vt 0.144911 0.461740
vt 0.171688 0.824014
vt 0.144911 0.461740
vt 0.170521 0.810621
vt 0.170521 0.810621
vt 0.170521 0.810621
vt 0.170521 0.810621
vt 0.013293 0.858106
vt 0.013293 0.858106
vt 0.013293 0.858106
vt 0.014802 0.873215
vt 0.307291 0.487805
vt 0.609252 0.027254
vt 0.609252 0.027254
vt 0.609252 0.027254
vt 0.609252 0.027254
vt 0.447579 0.051436
vt 0.447579 0.051436
vt 0.447579 0.051436
vt 0.447579 0.051436
vt 0.367756 0.143292
vt 0.367756 0.143292
vt 0.367756 0.143292
vt 0.367756 0.143292
vt 0.367756 0.143292
vt 0.367756 0.143292
vt 0.604590 0.471365
vt 0.604590 0.471365
vt 0.604590 0.471365
vt 0.604590 0.471365
vt 0.323673 0.431477
vt 0.323673 0.431477
vt 0.323673 0.431477
vt 0.323673 0.431477
vt 0.323673 0.431477
vt 0.335937 0.451469
vt 0.335937 0.451469
vt 0.335937 0.451469
vt 0.335937 0.451469
vt 0.603179 0.487531
vt 0.979150 0.497549
vt 0.603179 0.487531
vt 0.326035 0.445348
vt 0.326035 0.445348
vt 0.326035 0.445348
vt 0.979713 0.512752
vt 0.979713 0.512752
vt 0.979713 0.512752
vt 0.710463 0.550027
vt 0.710463 0.550027
vt 0.961567 0.460630
vt 0.330559 0.466774
vt 0.709348 0.563590
vt 0.948179 0.465084
vt 0.948179 0.465084
vt 0.709348 0.563590
vt 0.948179 0.465084
vt 0.975976 0.929416
vt 0.975976 0.929416
vt 0.975976 0.929416
vt 0.706566 0.873737
vt 0.635131 0.464964
vt 0.635131 0.464964
vt 0.706566 0.873737
vt 0.635131 0.464964
vt 0.707438 0.887318
vt 0.707438 0.887318
vt 0.621743 0.460501
vt 0.033639 0.030095
vt 0.975140 0.944607
vt 0.306406 0.011364
vt 0.306406 0.011364
vt 0.945961 0.064423
vt 0.945961 0.064423
vt 0.945961 0.064423
vt 0.945961 0.064423
vt 0.945961 0.064423
vt 0.963259 0.016981
vt 0.963259 0.016981
vt 0.221160 0.482131
vt 0.404673 0.053304
vt 0.404673 0.053304
vt 0.945126 0.118981
vt 0.945126 0.118981
vt 0.945126 0.118981
vt 0.945126 0.118981
vt 0.945126 0.118981
vt 0.944696 0.416952
vt 0.944696 0.416952
vt 0.944696 0.416952
vt 0.944696 0.416952
vt 0.944696 0.416952
vt 0.944696 0.416952
vt 0.957575 0.416256
vt 0.957575 0.416256
vt 0.310463 0.433129
vt 0.310463 0.433129
vt 0.957908 0.441136
vt 0.957908 0.441136
vt 0.957908 0.441136
vt 0.957908 0.441136
vt 0.314555 0.456065
vt 0.314555 0.456065
vt 0.944866 0.443292
vt 0.944866 0.443292
vt 0.944866 0.443292
vt 0.944866 0.443292
vt 0.638698 0.118694
vt 0.638698 0.118694
vt 0.638698 0.118694
vt 0.638698 0.118694
vt 0.638698 0.118694
vt 0.637949 0.064146
vt 0.637949 0.064146
vt 0.637949 0.064146
vt 0.637949 0.064146
vt 0.637949 0.064146
vt 0.625036 0.065404
vt 0.625036 0.065404
vt 0.625036 0.065404
vt 0.072955 0.407059
vt 0.072955 0.407059
vt 0.620730 0.016676
vt 0.620730 0.016676
vt 0.215933 0.821824
vt 0.104679 0.444104
vt 0.104679 0.444104
vt 0.625846 0.118947
vt 0.625846 0.118947
vt 0.625846 0.118947
vt 0.055959 0.356982
vt 0.055959 0.356982
vt 0.638633 0.416832
vt 0.638633 0.416832
vt 0.638633 0.416832
vt 0.638633 0.416832
vt 0.638633 0.416832
vt 0.638633 0.416832
vt 0.625756 0.416113
vt 0.625756 0.416113
vt 0.013293 0.063590
vt 0.013293 0.063590
vt 0.625410 0.441007
vt 0.625410 0.441007
vt 0.625410 0.441007
vt 0.625410 0.441007
vt 0.017556 0.040685
vt 0.017556 0.040685
vt 0.638452 0.443173
vt 0.638452 0.443173
vt 0.638452 0.443173
vt 0.638452 0.443173
vt 0.950167 0.013547
vt 0.221117 0.495523
vt 0.221117 0.495523
vt 0.950167 0.013547
vt 0.633827 0.013264
vt 0.216302 0.808437
vt 0.216302 0.808437
vt 0.633827 0.013264
vt 0.234660 0.932532
vt 0.234660 0.932532
vt 0.234660 0.932532
vt 0.234660 0.932532
vt 0.234660 0.932532
vt 0.270736 0.893766
vt 0.270736 0.893766
vt 0.270736 0.893766
vt 0.270736 0.893766
vt 0.266283 0.890043
vt 0.266283 0.890043
vt 0.266283 0.890043
vt 0.390869 0.770487
vt 0.390869 0.770487
vt 0.352065 0.757990
vt 0.352065 0.757990
vt 0.352065 0.757990
vt 0.352065 0.757990
vt 0.352065 0.757990
vt 0.352065 0.757990
vt 0.329766 0.806017
vt 0.329766 0.806017
vt 0.329766 0.806017
vt 0.329766 0.806017
vt 0.329766 0.806017
vt 0.341732 0.812368
vt 0.341732 0.812368
vt 0.341732 0.812368
vt 0.653794 0.260121
vt 0.364630 0.763052
vt 0.364630 0.763052
vt 0.364630 0.763052
vt 0.664285 0.312918
vt 0.230628 0.928366
vt 0.230628 0.928366
vt 0.434529 0.741237
vt 0.434529 0.741237
vt 0.369208 0.707890
vt 0.369208 0.707890
vt 0.369208 0.707890
vt 0.369208 0.707890
vt 0.369208 0.707890
vt 0.369208 0.707890
vt 0.382234 0.711607
vt 0.382234 0.711607
vt 0.694153 0.357709
vt 0.394357 0.658611
vt 0.394357 0.658611
vt 0.394357 0.658611
vt 0.738900 0.387756
vt 0.381011 0.656266
vt 0.381011 0.656266
vt 0.381011 0.656266
vt 0.381011 0.656266
vt 0.381011 0.656266
vt 0.363623 0.706306
vt 0.363623 0.706306
vt 0.363623 0.706306
vt 0.363623 0.706306
vt 0.391055 0.961014
vt 0.391055 0.961014
vt 0.375292 0.655278
vt 0.375292 0.655278
vt 0.434813 0.990209
vt 0.434813 0.990209
vt 0.346677 0.755829
vt 0.346677 0.755829
vt 0.346677 0.755829
vt 0.361821 0.917310
vt 0.361821 0.917310
vt 0.324635 0.803303
vt 0.324635 0.803303
vt 0.351519 0.865740
vt 0.351519 0.865740
vt 0.309059 0.471673
vt 0.309059 0.471673
vt 0.309059 0.471673
vt 0.309059 0.471673
vt 0.147569 0.446290
vt 0.147569 0.446290
vt 0.147569 0.446290
vt 0.147569 0.446290
vt 0.068432 0.353844
vt 0.068432 0.353844
vt 0.068432 0.353844
vt 0.068432 0.353844
vt 0.068432 0.353844
vt 0.068432 0.353844
vt 0.307697 0.027540
vt 0.307697 0.027540
vt 0.307697 0.027540
vt 0.307697 0.027540
vt 0.026491 0.065339
vt 0.026491 0.065339
vt 0.026491 0.065339
vt 0.026491 0.065339
vt 0.026491 0.065339
vt 0.038903 0.045440
vt 0.038903 0.045440
vt 0.038903 0.045440
vt 0.038903 0.045440
vt 0.028956 0.051486
vt 0.028956 0.051486
vt 0.028956 0.051486
vt 0.362083 0.865713
vt 0.263149 0.674685
vt 0.263149 0.674685
vt 0.362083 0.865713
vt 0.367272 0.915060
vt 0.367272 0.915060
vt 0.367272 0.915060
vt 0.367272 0.915060
vt 0.357363 0.865723
vt 0.357363 0.865723
vt 0.357363 0.865723
vt 0.357363 0.865723
vt 0.371610 0.913267
vt 0.256892 0.722770
vt 0.256892 0.722770
vt 0.395274 0.956827
vt 0.395274 0.956827
vt 0.395274 0.956827
vt 0.398579 0.953534
vt 0.253766 0.771149
vt 0.253766 0.771149
vt 0.437108 0.984693
vt 0.437108 0.984693
vt 0.437108 0.984693
vt 0.438890 0.980405
vt 0.253783 0.819614
vt 0.253783 0.819614
vt 0.486399 0.994420
vt 0.486399 0.994420
vt 0.486399 0.994420
vt 0.486393 0.989784
vt 0.625213 0.487524
vt 0.256974 0.867964
vt 0.533872 0.980286
vt 0.621512 0.535838
vt 0.621512 0.535838
vt 0.535664 0.984570
vt 0.535664 0.984570
vt 0.535664 0.984570
vt 0.574115 0.953315
vt 0.620982 0.584301
vt 0.620982 0.584301
vt 0.577429 0.956599
vt 0.577429 0.956599
vt 0.577429 0.956599
vt 0.600984 0.912980
vt 0.623597 0.632710
vt 0.623597 0.632710
vt 0.605326 0.914763
vt 0.605326 0.914763
vt 0.605326 0.914763
vt 0.605326 0.914763
vt 0.610391 0.865403
vt 0.629345 0.680858
vt 0.629345 0.680858
vt 0.610391 0.865403
vt 0.615112 0.865401
vt 0.615112 0.865401
vt 0.615112 0.865401
vt 0.615112 0.865401
vt 0.535460 0.746302
vt 0.535460 0.746302
vt 0.535460 0.746302
vt 0.535460 0.746302
vt 0.038903 0.045440
vt 0.038903 0.045440
vt 0.038903 0.045440
vt 0.038903 0.045440
vt 0.307697 0.027540
vt 0.307697 0.027540
vt 0.307697 0.027540
vt 0.307697 0.027540
vt 0.026491 0.065339
vt 0.026491 0.065339
vt 0.026491 0.065339
vt 0.026491 0.065339
vt 0.026491 0.065339
vt 0.028956 0.051486
vt 0.028956 0.051486
vt 0.028956 0.051486
vt 0.068432 0.353844
vt 0.068432 0.353844
vt 0.068432 0.353844
vt 0.068432 0.353844
vt 0.068432 0.353844
vt 0.068432 0.353844
vt 0.147569 0.446290
vt 0.147569 0.446290
vt 0.147569 0.446290
vt 0.147569 0.446290
vt 0.605326 0.914763
vt 0.605326 0.914763
vt 0.605326 0.914763
vt 0.605326 0.914763
vt 0.610391 0.865403
vt 0.629345 0.680858
vt 0.629345 0.680858
vt 0.610391 0.865403
vt 0.600984 0.912980
vt 0.623597 0.632710
vt 0.623597 0.632710
vt 0.577429 0.956599
vt 0.577429 0.956599
vt 0.577429 0.956599
vt 0.574115 0.953315
vt 0.620982 0.584301
vt 0.620982 0.584301
vt 0.535664 0.984570
vt 0.535664 0.984570
vt 0.535664 0.984570
vt 0.533872 0.980286
vt 0.621512 0.535838
vt 0.621512 0.535838
vt 0.486399 0.994420
vt 0.486399 0.994420
vt 0.486399 0.994420
vt 0.486393 0.989784
vt 0.625213 0.487524
vt 0.256974 0.867964
vt 0.438890 0.980405
vt 0.253783 0.819614
vt 0.253783 0.819614
vt 0.437108 0.984693
vt 0.437108 0.984693
vt 0.437108 0.984693
vt 0.398579 0.953534
vt 0.253766 0.771149
vt 0.253766 0.771149
vt 0.395274 0.956827
vt 0.395274 0.956827
vt 0.395274 0.956827
vt 0.371610 0.913267
vt 0.256892 0.722770
vt 0.256892 0.722770
vt 0.367272 0.915060
vt 0.367272 0.915060
vt 0.367272 0.915060
vt 0.367272 0.915060
vt 0.362083 0.865713
vt 0.263149 0.674685
vt 0.263149 0.674685
vt 0.362083 0.865713
vt 0.357363 0.865723
vt 0.357363 0.865723
vt 0.357363 0.865723
vt 0.357363 0.865723
vt 0.605289 0.816081
vt 0.605289 0.816081
vt 0.605289 0.816081
vt 0.605289 0.816081
vt 0.569661 0.678359
vt 0.569661 0.678359
vt 0.889515 0.162479
vt 0.531588 0.639550
vt 0.531588 0.639550
vt 0.844796 0.132331
vt 0.489979 0.604944
vt 0.203363 0.977927
vt 0.791921 0.121639
vt 0.603453 0.720956
vt 0.603453 0.720956
vt 0.919369 0.207424
vt 0.697237 0.972746
vt 0.401017 0.604877
vt 0.791722 0.398402
vt 0.683750 0.974443
vt 0.683750 0.974443
vt 0.387491 0.603530
vt 0.387491 0.603530
vt 0.677930 0.974779
vt 0.381664 0.603345
vt 0.486406 1.000382
vt 0.486406 1.000382
vt 0.605289 0.816081
vt 0.605289 0.816081
vt 0.605289 0.816081
vt 0.605289 0.816081
vt 0.637589 0.679595
vt 0.637589 0.679595
vt 0.792740 0.137568
vt 0.638269 0.728519
vt 0.638269 0.728519
vt 0.600906 0.817885
vt 0.600906 0.817885
vt 0.646126 0.726722
vt 0.646126 0.726722
vt 0.745770 0.146929
vt 0.650475 0.775437
vt 0.650475 0.775437
vt 0.573954 0.777597
vt 0.573954 0.777597
vt 0.657956 0.773134
vt 0.657956 0.773134
vt 0.705956 0.173555
vt 0.666093 0.821317
vt 0.666093 0.821317
vt 0.533632 0.750690
vt 0.533632 0.750690
vt 0.673244 0.818527
vt 0.673244 0.818527
vt 0.679361 0.213392
vt 0.685200 0.865846
vt 0.320957 0.490298
vt 0.486082 0.741264
vt 0.486082 0.741264
vt 0.692082 0.862568
vt 0.327804 0.493649
vt 0.670033 0.260376
vt 0.632196 0.632006
vt 0.632196 0.632006
vt 0.839717 0.146898
vt 0.629856 0.584168
vt 0.629856 0.584168
vt 0.879548 0.173497
vt 0.630545 0.536274
vt 0.630545 0.536274
vt 0.906170 0.213317
vt 0.634261 0.488518
vt 0.266032 0.867066
vt 0.915529 0.260294
vt 0.015017 0.648846
vt 0.173091 0.651278
vt 0.173091 0.651278
vt 0.218864 0.651982
vt 0.791989 0.011513
vt 0.791989 0.011513
vt 0.216302 0.808437
vt 0.633827 0.013264
vt 0.216302 0.808437
vt 0.633827 0.013264
vt 0.411087 0.067000
vt 0.411087 0.067000
vt 0.411087 0.067000
vt 0.383404 0.098553
vt 0.383404 0.098553
vt 0.383404 0.098553
vt 0.977844 0.721084
vt 0.707957 0.718663
vt 0.791693 0.467071
vt 0.791699 0.444673
vt 0.791699 0.444673
vt 0.791712 0.417836
vt 0.791712 0.417836
vt 0.791952 0.063196
vt 0.791952 0.063196
vt 0.791952 0.063196
vt 0.791923 0.118440
vt 0.791923 0.118440
vt 0.244061 0.942253
vt 0.244061 0.942253
vt 0.739041 0.132268
vt 0.234660 0.932532
vt 0.234660 0.932532
vt 0.234660 0.932532
vt 0.234660 0.932532
vt 0.281115 0.902471
vt 0.281115 0.902471
vt 0.694247 0.162309
vt 0.270736 0.893766
vt 0.270736 0.893766
vt 0.270736 0.893766
vt 0.270736 0.893766
vt 0.230628 0.928366
vt 0.230628 0.928366
vt 0.434529 0.741237
vt 0.434529 0.741237
vt 0.266283 0.890043
vt 0.266283 0.890043
vt 0.390869 0.770487
vt 0.390869 0.770487
vt 0.313791 0.859012
vt 0.313791 0.859012
vt 0.664318 0.207159
vt 0.302557 0.851442
vt 0.302557 0.851442
vt 0.302557 0.851442
vt 0.302557 0.851442
vt 0.297738 0.848206
vt 0.297738 0.848206
vt 0.361720 0.814207
vt 0.361720 0.814207
vt 0.280414 0.629002
vt 0.280414 0.629002
vt 0.745845 0.373773
vt 0.271380 0.676035
vt 0.271380 0.676035
vt 0.792822 0.383102
vt 0.272577 0.627121
vt 0.272577 0.627121
vt 0.371450 0.818172
vt 0.371450 0.818172
vt 0.265483 0.723564
vt 0.265483 0.723564
vt 0.839793 0.373741
vt 0.262638 0.771375
vt 0.262638 0.771375
vt 0.879606 0.347116
vt 0.262820 0.819274
vt 0.262820 0.819274
vt 0.906201 0.307278
vt 0.308501 0.537488
vt 0.308501 0.537488
vt 0.679392 0.307354
vt 0.301381 0.534622
vt 0.301381 0.534622
vt 0.438556 0.750809
vt 0.438556 0.750809
vt 0.292735 0.582718
vt 0.292735 0.582718
vt 0.706014 0.347173
vt 0.285278 0.580335
vt 0.285278 0.580335
vt 0.398302 0.777817
vt 0.398302 0.777817
vt 0.620730 0.016676
vt 0.215933 0.821824
vt 0.104679 0.444104
vt 0.104679 0.444104
vt 0.569661 0.678359
vt 0.569661 0.678359
vt 0.889515 0.162479
vt 0.531588 0.639550
vt 0.531588 0.639550
vt 0.844796 0.132331
vt 0.522443 0.649512
vt 0.522443 0.649512
vt 0.522443 0.649512
vt 0.522443 0.649512
vt 0.559512 0.687330
vt 0.559512 0.687330
vt 0.559512 0.687330
vt 0.559512 0.687330
vt 0.603453 0.720956
vt 0.603453 0.720956
vt 0.919369 0.207424
vt 0.592419 0.728815
vt 0.592419 0.728815
vt 0.592419 0.728815
vt 0.592419 0.728815
vt 0.555156 0.691167
vt 0.555156 0.691167
vt 0.581368 0.770249
vt 0.581368 0.770249
vt 0.518520 0.653781
vt 0.518520 0.653781
vt 0.537635 0.741108
vt 0.537635 0.741108
vt 0.489979 0.604944
vt 0.203363 0.977927
vt 0.791921 0.121639
vt 0.481564 0.615547
vt 0.481564 0.615547
vt 0.194675 0.967545
vt 0.194675 0.967545
vt 0.478263 0.620338
vt 0.191252 0.962841
vt 0.486069 0.730896
vt 0.486069 0.730896
vt 0.677930 0.974779
vt 0.381664 0.603345
vt 0.486406 1.000382
vt 0.486406 1.000382
vt 0.637589 0.679595
vt 0.637589 0.679595
vt 0.792740 0.137568
vt 0.638269 0.728519
vt 0.638269 0.728519
vt 0.600906 0.817885
vt 0.600906 0.817885
vt 0.646126 0.726722
vt 0.646126 0.726722
vt 0.745770 0.146929
vt 0.745770 0.146929
vt 0.650475 0.775437
vt 0.650475 0.775437
vt 0.573954 0.777597
vt 0.573954 0.777597
vt 0.657956 0.773134
vt 0.657956 0.773134
vt 0.705956 0.173555
vt 0.666093 0.821317
vt 0.666093 0.821317
vt 0.533632 0.750690
vt 0.533632 0.750690
vt 0.673244 0.818527
vt 0.673244 0.818527
vt 0.679361 0.213392
vt 0.685200 0.865846
vt 0.320957 0.490298
vt 0.486082 0.741264
vt 0.486082 0.741264
vt 0.692082 0.862568
vt 0.670033 0.260376
vt 0.327804 0.493649
vt 0.632196 0.632006
vt 0.632196 0.632006
vt 0.839717 0.146898
vt 0.629856 0.584168
vt 0.629856 0.584168
vt 0.879548 0.173497
vt 0.630545 0.536274
vt 0.630545 0.536274
vt 0.906170 0.213317
vt 0.634261 0.488518
vt 0.915529 0.260294
vt 0.266032 0.867066
vt 0.015017 0.648846
vt 0.173091 0.651278
vt 0.173091 0.651278
vt 0.218864 0.651982
vt 0.791989 0.011513
vt 0.411087 0.067000
vt 0.411087 0.067000
vt 0.411087 0.067000
vt 0.977844 0.721084
vt 0.707957 0.718663
vt 0.791693 0.467071
vt 0.791952 0.063196
vt 0.791952 0.063196
vt 0.791923 0.118440
vt 0.791923 0.118440
vt 0.791699 0.444673
vt 0.791699 0.444673
vt 0.791712 0.417836
vt 0.791712 0.417836
vt 0.906201 0.307278
vt 0.262820 0.819274
vt 0.262820 0.819274
vt 0.879606 0.347116
vt 0.262638 0.771375
vt 0.262638 0.771375
vt 0.839793 0.373741
vt 0.265483 0.723564
vt 0.265483 0.723564
vt 0.792822 0.383102
vt 0.271380 0.676035
vt 0.271380 0.676035
vt 0.745845 0.373773
vt 0.280414 0.629002
vt 0.280414 0.629002
vt 0.244061 0.942253
vt 0.244061 0.942253
vt 0.739041 0.132268
vt 0.281115 0.902471
vt 0.281115 0.902471
vt 0.694247 0.162309
vt 0.313791 0.859012
vt 0.313791 0.859012
vt 0.664318 0.207159
vt 0.302557 0.851442
vt 0.302557 0.851442
vt 0.302557 0.851442
vt 0.302557 0.851442
vt 0.297738 0.848206
vt 0.297738 0.848206
vt 0.361720 0.814207
vt 0.361720 0.814207
vt 0.272577 0.627121
vt 0.272577 0.627121
vt 0.371450 0.818172
vt 0.371450 0.818172
vt 0.285278 0.580335
vt 0.285278 0.580335
vt 0.398302 0.777817
vt 0.398302 0.777817
vt 0.301381 0.534622
vt 0.301381 0.534622
vt 0.438556 0.750809
vt 0.438556 0.750809
vt 0.111195 0.430456
vt 0.111195 0.430456
vt 0.111195 0.430456
vt 0.083746 0.398698
vt 0.083746 0.398698
vt 0.083746 0.398698
vt 0.367063 0.816379
vt 0.367063 0.816379
vt 0.367063 0.816379
vt 0.367063 0.816379
vt 0.394925 0.774478
vt 0.394925 0.774478
vt 0.394925 0.774478
vt 0.394925 0.774478
vt 0.436717 0.746425
vt 0.436717 0.746425
vt 0.436717 0.746425
vt 0.436717 0.746425
vt 0.486076 0.736511
vt 0.486076 0.736511
vt 0.486076 0.736511
vt 0.486076 0.736511
vt 0.083746 0.398698
vt 0.083746 0.398698
vt 0.083746 0.398698
vt 0.111195 0.430456
vt 0.111195 0.430456
vt 0.111195 0.430456
vt 0.577322 0.774250
vt 0.577322 0.774250
vt 0.577322 0.774250
vt 0.577322 0.774250
vt 0.367063 0.816379
vt 0.367063 0.816379
vt 0.367063 0.816379
vt 0.367063 0.816379
vt 0.535460 0.746302
vt 0.535460 0.746302
vt 0.535460 0.746302
vt 0.535460 0.746302
vt 0.394925 0.774478
vt 0.394925 0.774478
vt 0.394925 0.774478
vt 0.394925 0.774478
vt 0.486076 0.736511
vt 0.486076 0.736511
vt 0.486076 0.736511
vt 0.486076 0.736511
vt 0.436717 0.746425
vt 0.436717 0.746425
vt 0.436717 0.746425
vt 0.436717 0.746425
vt 0.792781 0.260335
f 1/1 10/10 5/5
f 15/15 26/26 21/21
f 22/22 30/30 16/16
f 34/34 44/44 39/39
f 48/48 58/58 54/54
f 60/60 69/69 64/64
f 75/75 82/82 79/79
f 11/11 86/86 6/6
f 90/90 101/101 96/96
f 102/102 91/91 105/105
f 109/109 106/106 92/92
f 107/107 110/110 115/115
f 111/111 122/122 118/118
f 119/119 116/116 112/112
f 97/97 132/132 127/127
f 128/128 93/93 98/98
f 94/94 129/129 136/136
f 137/137 113/113 95/95
f 114/114 138/138 123/123
f 142/142 124/124 139/139
f 146/146 7/7 17/17
f 151/151 159/159 153/153
f 162/162 154/154 160/160
f 49/49 169/169 166/166
f 167/167 59/59 50/50
f 173/173 152/152 155/155
f 156/156 177/177 174/174
f 181/181 175/175 178/178
f 187/187 176/176 182/182
f 183/183 191/191 188/188
f 192/192 196/196 189/189
f 200/200 190/190 197/197
f 193/193 203/203 198/198
f 206/206 201/201 209/209
f 210/210 213/213 207/207
f 218/218 225/225 221/221
f 222/222 230/230 219/219
f 40/40 233/233 35/35
f 234/234 41/41 238/238
f 239/239 243/243 235/235
f 244/244 240/240 248/248
f 249/249 254/254 245/245
f 258/258 255/255 250/250
f 214/214 211/211 259/259
f 260/260 264/264 215/215
f 226/226 274/274 268/268
f 269/269 223/223 227/227
f 265/265 261/261 251/251
f 270/270 275/275 278/278
f 279/279 284/284 271/271
f 288/288 285/285 280/280
f 281/281 293/293 289/289
f 298/298 290/290 294/294
f 303/303 313/313 307/307
f 308/308 318/318 304/304
f 319/319 309/309 321/321
f 310/310 325/325 322/322
f 323/323 326/326 331/331
f 327/327 311/311 335/335
f 314/314 336/336 312/312
f 315/315 341/341 337/337
f 338/338 345/345 328/328
f 350/350 329/329 346/346
f 330/330 351/351 332/332
f 347/347 355/355 352/352
f 295/295 359/359 299/299
f 363/363 372/372 368/368
f 373/373 364/364 377/377
f 383/383 391/391 387/387
f 397/397 388/388 392/392
f 389/389 398/398 403/403
f 406/406 404/404 399/399
f 400/400 378/378 407/407
f 410/410 379/379 401/401
f 380/380 411/411 374/374
f 416/416 408/408 381/381
f 382/382 365/365 417/417
f 393/393 384/384 420/420
f 424/424 429/429 369/369
f 434/434 412/412 394/394
f 402/402 395/395 413/413
f 438/438 443/443 440/440
f 449/449 441/441 444/444
f 453/453 463/463 459/459
f 464/464 454/454 466/466
f 468/468 445/445 439/439
f 446/446 469/469 472/472
f 476/476 473/473 470/470
f 482/482 477/477 471/471
f 70/70 61/61 478/478
f 479/479 483/483 486/486
f 487/487 484/484 491/491
f 495/495 492/492 485/485
f 488/488 493/493 498/498
f 501/501 504/504 496/496
f 505/505 502/502 508/508
f 513/513 521/521 516/516
f 522/522 514/514 525/525
f 528/528 533/533 65/65
f 66/66 538/538 529/529
f 539/539 67/67 71/71
f 72/72 543/543 540/540
f 544/544 73/73 549/549
f 553/553 545/545 550/550
f 559/559 546/546 554/554
f 563/563 573/573 568/568
f 578/578 569/569 574/574
f 575/575 564/564 583/583
f 588/588 584/584 565/565
f 585/585 589/589 594/594
f 590/590 598/598 595/595
f 599/599 591/591 604/604
f 534/534 530/530 608/608
f 570/570 579/579 612/612
f 509/509 555/555 506/506
f 556/556 510/510 560/560
f 517/517 600/600 605/605
f 601/601 518/518 523/523
f 616/616 625/625 621/621
f 630/630 641/641 636/636
f 645/645 642/642 631/631
f 626/626 617/617 649/649
f 653/653 646/646 632/632
f 659/659 647/647 654/654
f 655/655 662/662 660/660
f 663/663 656/656 666/666
f 667/667 657/657 671/671
f 668/668 672/672 677/677
f 633/633 673/673 658/658
f 674/674 634/634 681/681
f 637/637 682/682 635/635
f 683/683 638/638 686/686
f 455/455 690/690 467/467
f 691/691 456/456 694/694
f 698/698 692/692 695/695
f 693/693 699/699 704/704
f 705/705 700/700 708/708
f 706/706 709/709 713/713
f 714/714 526/526 707/707
f 715/715 710/710 717/717
f 720/720 728/728 724/724
f 725/725 732/732 720/720
f 732/732 725/725 735/735
f 735/735 738/738 732/732
f 738/738 735/735 741/741
f 741/741 744/744 738/738
f 744/744 741/741 747/747
f 747/747 750/750 744/744
f 753/753 750/750 747/747
f 747/747 756/756 753/753
f 759/759 753/753 756/756
f 756/756 762/762 759/759
f 765/765 759/759 762/762
f 762/762 768/768 765/765
f 772/772 765/765 768/768
f 769/769 776/776 772/772
f 18/18 780/780 147/147
f 784/784 788/788 231/231
f 785/785 797/797 792/792
f 789/789 786/786 793/793
f 790/790 794/794 800/800
f 55/55 791/791 801/801
f 802/802 806/806 56/56
f 57/57 807/807 51/51
f 810/810 814/814 425/425
f 814/814 811/811 818/818
f 821/821 818/818 811/811
f 818/818 821/821 824/824
f 827/827 824/824 821/821
f 824/824 827/827 830/830
f 833/833 830/830 827/827
f 830/830 833/833 836/836
f 833/833 839/839 836/836
f 839/839 833/833 842/842
f 842/842 845/845 839/839
f 845/845 842/842 848/848
f 848/848 851/851 845/845
f 851/851 848/848 854/854
f 854/854 858/858 851/851
f 858/858 855/855 862/862
f 430/430 426/426 866/866
f 27/27 19/19 8/8
f 8/8 87/87 27/27
f 28/28 88/88 870/870
f 870/870 873/873 28/28
f 23/23 29/29 874/874
f 874/874 876/876 23/23
f 879/879 871/871 89/89
f 89/89 12/12 879/879
f 103/103 880/880 13/13
f 13/13 99/99 103/103
f 125/125 885/885 882/882
f 882/882 120/120 125/125
f 14/14 2/2 100/100
f 133/133 100/100 2/2
f 126/126 143/143 886/886
f 889/889 886/886 143/143
f 893/893 3/3 9/9
f 9/9 148/148 893/893
f 897/897 773/773 900/900
f 897/897 900/900 904/904
f 905/905 901/901 907/907
f 905/905 907/907 911/911
f 914/914 912/912 908/908
f 912/912 914/914 918/918
f 919/919 915/915 921/921
f 919/919 921/921 925/925
f 928/928 774/774 898/898
f 928/928 766/766 774/774
f 931/931 767/767 929/929
f 931/931 760/760 767/767
f 754/754 761/761 932/932
f 932/932 934/934 754/754
f 751/751 755/755 935/935
f 935/935 937/937 751/751
f 163/163 36/36 157/157
f 45/45 36/36 163/163
f 164/164 161/161 940/940
f 940/940 941/941 164/164
f 170/170 941/941 940/940
f 940/940 168/168 170/170
f 46/46 165/165 942/942
f 942/942 943/943 46/46
f 946/946 943/943 942/942
f 942/942 171/171 946/946
f 179/179 158/158 37/37
f 37/37 950/950 179/179
f 951/951 38/38 236/236
f 236/236 953/953 951/951
f 180/180 952/952 954/954
f 954/954 184/184 180/180
f 955/955 237/237 246/246
f 246/246 185/185 955/955
f 186/186 247/247 194/194
f 256/256 194/194 247/247
f 199/199 212/212 202/202
f 262/262 212/212 199/199
f 262/262 199/199 204/204
f 257/257 263/263 205/205
f 205/205 195/195 257/257
f 956/956 208/208 216/216
f 216/216 957/957 956/956
f 956/956 957/957 228/228
f 228/228 220/220 956/956
f 217/217 266/266 958/958
f 959/959 958/958 266/266
f 958/958 959/959 276/276
f 276/276 229/229 958/958
f 267/267 252/252 960/960
f 961/961 960/960 252/252
f 960/960 961/961 282/282
f 960/960 282/282 277/277
f 963/963 360/360 296/296
f 296/296 966/966 963/963
f 963/963 966/966 241/241
f 241/241 42/42 963/963
f 944/944 964/964 43/43
f 43/43 47/47 944/944
f 24/24 877/877 968/968
f 968/968 971/971 24/24
f 972/972 969/969 975/975
f 975/975 978/978 972/972
f 25/25 973/973 982/982
f 982/982 31/31 25/25
f 986/986 983/983 974/974
f 974/974 979/979 986/986
f 980/980 976/976 990/990
f 990/990 993/993 980/980
f 994/994 987/987 981/981
f 987/987 994/994 997/997
f 316/316 305/305 883/883
f 883/883 887/887 316/316
f 888/888 342/342 317/317
f 888/888 890/890 342/342
f 353/353 356/356 998/998
f 998/998 995/995 353/353
f 333/333 354/354 996/996
f 996/996 991/991 333/333
f 1001/1001 1007/1007 1004/1004
f 721/721 1004/1004 1007/1007
f 1005/1005 722/722 1011/1011
f 733/733 1011/1011 722/722
f 1012/1012 734/734 1014/1014
f 739/739 1014/1014 734/734
f 1015/1015 740/740 745/745
f 745/745 1017/1017 1015/1015
f 1018/1018 746/746 752/752
f 752/752 938/938 1018/1018
f 1020/1020 926/926 922/922
f 922/922 1023/1023 1020/1020
f 1027/1027 1021/1021 1024/1024
f 1030/1030 1027/1027 1024/1024
f 1028/1028 1031/1031 1002/1002
f 1008/1008 1002/1002 1031/1031
f 1034/1034 300/300 361/361
f 361/361 947/947 1034/1034
f 1035/1035 948/948 172/172
f 172/172 52/52 1035/1035
f 362/362 965/965 945/945
f 945/945 949/949 362/362
f 1038/1038 1044/1044 1041/1041
f 1044/1044 1038/1038 1048/1048
f 1052/1052 1049/1049 1039/1039
f 1049/1049 1052/1052 1055/1055
f 1059/1059 1045/1045 1050/1050
f 1045/1045 1059/1059 1063/1063
f 1056/1056 1060/1060 1051/1051
f 431/431 1060/1060 1056/1056
f 418/418 1057/1057 1053/1053
f 1057/1057 418/418 366/366
f 1058/1058 367/367 432/432
f 370/370 432/432 367/367
f 1042/1042 1070/1070 1067/1067
f 1070/1070 1042/1042 1046/1046
f 1064/1064 1071/1071 1047/1047
f 1071/1071 1064/1064 1074/1074
f 396/396 421/421 435/435
f 1078/1078 435/435 421/421
f 371/371 812/812 427/427
f 812/812 371/371 375/375
f 1082/1082 1085/1085 815/815
f 1082/1082 1089/1089 1085/1085
f 1090/1090 1093/1093 1086/1086
f 1090/1090 1097/1097 1093/1093
f 1100/1100 1094/1094 1098/1098
f 1098/1098 1104/1104 1100/1100
f 1105/1105 1107/1107 1101/1101
f 1105/1105 1111/1111 1107/1107
f 1114/1114 1083/1083 816/816
f 1114/1114 816/816 819/819
f 1117/1117 1115/1115 820/820
f 1117/1117 820/820 825/825
f 831/831 1118/1118 826/826
f 1118/1118 831/831 1120/1120
f 837/837 1121/1121 832/832
f 1121/1121 837/837 1123/1123
f 450/450 447/447 535/535
f 609/609 450/450 535/535
f 451/451 1126/1126 442/442
f 1126/1126 451/451 1127/1127
f 460/460 1126/1126 1127/1127
f 1126/1126 460/460 465/465
f 610/610 1128/1128 452/452
f 1128/1128 610/610 1129/1129
f 613/613 1128/1128 1129/1129
f 1128/1128 613/613 461/461
f 580/580 462/462 614/614
f 462/462 580/580 457/457
f 474/474 536/536 448/448
f 536/536 474/474 1131/1131
f 1132/1132 68/68 537/537
f 68/68 1132/1132 62/62
f 475/475 63/63 1133/1133
f 63/63 475/475 480/480
f 481/481 489/489 74/74
f 551/551 74/74 489/489
f 494/494 497/497 507/507
f 557/557 494/494 507/507
f 557/557 499/499 494/494
f 552/552 500/500 558/558
f 500/500 552/552 490/490
f 1134/1134 511/511 503/503
f 511/511 1134/1134 1135/1135
f 1134/1134 519/519 1135/1135
f 519/519 1134/1134 515/515
f 541/541 1137/1137 531/531
f 1137/1137 541/541 1139/1139
f 566/566 1137/1137 1139/1139
f 1137/1137 566/566 571/571
f 561/561 1141/1141 547/547
f 1143/1143 547/547 1141/1141
f 1141/1141 592/592 1143/1143
f 1141/1141 606/606 592/592
f 532/532 1130/1130 611/611
f 1130/1130 532/532 1138/1138
f 572/572 1130/1130 1138/1138
f 1130/1130 572/572 615/615
f 512/512 1136/1136 562/562
f 1142/1142 562/562 1136/1136
f 1136/1136 607/607 1142/1142
f 607/607 1136/1136 520/520
f 80/80 1091/1091 1084/1084
f 1116/1116 80/80 1084/1084
f 80/80 1116/1116 1119/1119
f 1122/1122 80/80 1119/1119
f 80/80 1122/1122 1124/1124
f 80/80 1124/1124 1145/1145
f 1145/1145 1148/1148 80/80
f 1151/1151 80/80 1148/1148
f 80/80 1151/1151 1154/1154
f 80/80 1154/1154 1157/1157
f 80/80 1157/1157 76/76
f 81/81 1099/1099 1092/1092
f 1099/1099 81/81 1106/1106
f 1106/1106 81/81 1112/1112
f 83/83 1112/1112 81/81
f 618/618 1163/1163 1160/1160
f 1163/1163 618/618 622/622
f 623/623 1166/1166 1164/1164
f 1166/1166 623/623 1169/1169
f 1170/1170 624/624 627/627
f 627/627 1173/1173 1170/1170
f 1171/1171 643/643 1167/1167
f 643/643 1171/1171 639/639
f 1174/1174 640/640 1172/1172
f 640/640 1174/1174 687/687
f 1072/1072 1161/1161 1068/1068
f 1161/1161 1072/1072 619/619
f 1073/1073 650/650 620/620
f 650/650 1073/1073 1075/1075
f 669/669 385/385 664/664
f 385/385 669/669 422/422
f 423/423 670/670 678/678
f 423/423 678/678 1079/1079
f 859/859 1177/1177 1155/1155
f 1158/1158 1155/1155 1177/1177
f 1178/1178 1181/1181 1159/1159
f 77/77 1159/1159 1181/1181
f 1182/1182 1185/1185 78/78
f 78/78 1185/1185 84/84
f 1108/1108 85/85 1186/1186
f 85/85 1108/1108 1113/1113
f 1156/1156 1152/1152 860/860
f 852/852 860/860 1152/1152
f 1153/1153 1149/1149 853/853
f 846/846 853/853 1149/1149
f 1150/1150 840/840 847/847
f 840/840 1150/1150 1146/1146
f 1147/1147 838/838 841/841
f 838/838 1147/1147 1125/1125
f 581/581 696/696 458/458
f 696/696 581/581 1189/1189
f 576/576 1190/1190 582/582
f 1190/1190 576/576 1192/1192
f 1193/1193 697/697 1191/1191
f 701/701 697/697 1193/1193
f 586/586 1194/1194 577/577
f 1194/1194 586/586 702/702
f 587/587 711/711 703/703
f 711/711 587/587 596/596
f 527/527 716/716 524/524
f 716/716 602/602 524/524
f 602/602 716/716 718/718
f 597/597 603/603 719/719
f 597/597 719/719 712/712
f 777/777 134/134 4/4
f 4/4 894/894 777/777
f 135/135 778/778 770/770
f 770/770 130/130 135/135
f 131/131 771/771 763/763
f 763/763 140/140 131/131
f 141/141 764/764 757/757
f 757/757 144/144 141/141
f 145/145 758/758 748/748
f 748/748 891/891 145/145
f 343/343 892/892 749/749
f 749/749 742/742 343/343
f 339/339 344/344 743/743
f 743/743 736/736 339/339
f 348/348 340/340 737/737
f 737/737 726/726 348/348
f 357/357 349/349 727/727
f 727/727 729/729 357/357
f 999/999 358/358 730/730
f 730/730 1195/1195 999/999
f 988/988 1000/1000 1196/1196
f 1196/1196 1199/1199 988/988
f 984/984 989/989 1200/1200
f 1200/1200 1203/1203 984/984
f 32/32 985/985 1204/1204
f 1204/1204 1207/1207 32/32
f 731/731 723/723 1009/1009
f 1009/1009 1197/1197 731/731
f 1198/1198 1010/1010 1032/1032
f 1032/1032 1201/1201 1198/1198
f 1202/1202 1033/1033 1025/1025
f 1025/1025 1205/1205 1202/1202
f 902/902 775/775 779/779
f 779/779 895/895 902/902
f 909/909 903/903 896/896
f 896/896 149/149 909/909
f 916/916 910/910 150/150
f 150/150 781/781 916/916
f 782/782 20/20 33/33
f 33/33 1208/1208 782/782
f 923/923 917/917 783/783
f 783/783 1209/1209 923/923
f 924/924 1210/1210 1206/1206
f 1206/1206 1026/1026 924/924
f 232/232 224/224 787/787
f 787/787 224/224 272/272
f 272/272 798/798 787/787
f 286/286 799/799 273/273
f 286/286 795/795 799/799
f 796/796 287/287 291/291
f 291/291 803/803 796/796
f 1211/1211 804/804 292/292
f 292/292 301/301 1211/1211
f 805/805 1212/1212 808/808
f 1212/1212 1214/1214 808/808
f 1036/1036 53/53 809/809
f 809/809 1215/1215 1036/1036
f 302/302 1037/1037 1216/1216
f 1216/1216 1213/1213 302/302
f 376/376 822/822 813/813
f 822/822 376/376 414/414
f 415/415 828/828 823/823
f 828/828 415/415 436/436
f 437/437 834/834 829/829
f 834/834 437/437 1080/1080
f 679/679 835/835 1081/1081
f 835/835 679/679 843/843
f 675/675 844/844 680/680
f 844/844 675/675 849/849
f 684/684 850/850 676/676
f 850/850 684/684 856/856
f 1087/1087 428/428 817/817
f 428/428 1087/1087 867/867
f 688/688 857/857 685/685
f 857/857 688/688 863/863
f 1095/1095 868/868 1088/1088
f 868/868 1095/1095 1217/1217
f 869/869 1061/1061 433/433
f 1061/1061 869/869 1218/1218
f 1175/1175 864/864 689/689
f 864/864 1175/1175 1221/1221
f 865/865 1179/1179 861/861
f 1179/1179 865/865 1222/1222
f 1102/1102 1219/1219 1096/1096
f 1219/1219 1102/1102 1225/1225
f 1220/1220 1065/1065 1062/1062
f 1065/1065 1220/1220 1226/1226
f 628/628 1223/1223 1176/1176
f 1223/1223 628/628 1229/1229
f 1224/1224 1183/1183 1180/1180
f 1183/1183 1224/1224 1230/1230
f 1109/1109 1227/1227 1103/1103
f 1227/1227 1109/1109 1233/1233
f 1228/1228 1076/1076 1066/1066
f 1076/1076 1228/1228 1234/1234
f 651/651 1231/1231 629/629
f 1231/1231 651/651 1237/1237
f 1232/1232 1187/1187 1184/1184
f 1187/1187 1232/1232 1238/1238
f 1239/1239 1110/1110 1188/1188
f 1110/1110 1239/1239 1235/1235
f 1077/1077 1240/1240 652/652
f 1240/1240 1077/1077 1236/1236
f 283/283 306/306 320/320
f 283/283 320/320 324/324
f 283/283 324/324 334/334
f 962/962 306/306 283/283
f 962/962 884/884 306/306
f 121/121 884/884 962/962
f 283/283 334/334 297/297
f 962/962 253/253 121/121
f 297/297 334/334 992/992
f 297/297 992/992 977/977
f 297/297 977/977 970/970
f 253/253 117/117 121/121
f 253/253 108/108 117/117
f 104/104 108/108 253/253
f 967/967 297/297 970/970
f 970/970 878/878 967/967
f 967/967 878/878 875/875
f 242/242 104/104 253/253
f 875/875 242/242 967/967
f 242/242 881/881 104/104
f 242/242 875/875 872/872
f 242/242 872/872 881/881
f 593/593 661/661 665/665
f 593/593 648/648 661/661
f 593/593 644/644 648/648
f 1144/1144 593/593 665/665
f 1144/1144 665/665 386/386
f 390/390 1144/1144 386/386
f 593/593 567/567 644/644
f 1144/1144 390/390 548/548
f 567/567 1168/1168 644/644
f 567/567 1165/1165 1168/1168
f 567/567 1162/1162 1165/1165
f 548/548 390/390 405/405
f 548/548 405/405 409/409
f 419/419 548/548 409/409
f 1140/1140 1162/1162 567/567
f 1162/1162 1140/1140 1069/1069
f 1140/1140 1043/1043 1069/1069
f 542/542 548/548 419/419
f 1043/1043 1140/1140 542/542
f 542/542 419/419 1054/1054
f 542/542 1040/1040 1043/1043
f 542/542 1054/1054 1040/1040
f 936/936 933/933 1241/1241
f 1241/1241 939/939 936/936
f 1241/1241 933/933 930/930
f 1241/1241 1019/1019 939/939
f 930/930 899/899 1241/1241
f 1019/1019 1241/1241 1016/1016
f 1241/1241 899/899 906/906
f 1013/1013 1016/1016 1241/1241
f 1241/1241 906/906 913/913
f 1241/1241 1006/1006 1013/1013
f 913/913 920/920 1241/1241
f 1241/1241 1003/1003 1006/1006
f 920/920 927/927 1241/1241
f 1241/1241 1029/1029 1003/1003
f 1022/1022 1241/1241 927/927
f 1029/1029 1241/1241 1022/1022
