# generated by roqsim_scenes/tools (world-space, metres, Z-up)
v 7.460181 -7.262102 0.000455
v 7.460182 -7.634758 0.000455
v -0.039820 -7.634758 0.000455
v -0.039820 -7.262102 0.000455
v 7.460181 -6.713149 0.000455
v -0.039820 -6.713149 0.000455
v 7.460181 -5.768364 0.000455
v -0.039820 -5.768364 0.000455
v 7.460181 -5.494368 0.000455
v -0.039820 -5.494368 0.000455
v -0.039820 -0.134754 0.000455
v -0.039820 -0.134754 0.000455
v 7.460181 -0.134754 0.000455
v 7.460181 -0.134754 0.000455
v -7.539820 -5.491169 0.000455
v -7.539822 -0.134754 0.000455
v -7.539822 -0.134754 0.000455
v -0.039820 -5.575495 0.000455
v -7.539821 -5.745555 0.000455
v -0.039820 -5.832665 0.000455
v -7.539821 -6.670949 0.000455
v -0.039820 -6.742466 0.000455
v -7.539821 -7.219902 0.000455
v -0.039820 -7.291420 0.000455
v -7.539822 -7.634758 0.000455
v -7.539822 7.365251 0.000455
v -0.039820 7.365251 0.000455
v -0.039820 6.992594 0.000455
v -7.539821 6.984237 0.000455
v -0.039820 6.443641 0.000455
v -7.539821 6.435284 0.000455
v -0.039820 5.498857 0.000455
v -7.539821 5.498857 0.000455
v -7.539821 5.224860 0.000455
v -0.039820 5.224860 0.000455
v 7.460180 5.221661 0.000455
v -0.039820 5.305987 0.000455
v 7.460181 5.476047 0.000455
v -0.039820 5.563157 0.000455
v 7.460181 6.401441 0.000455
v -0.039820 6.472958 0.000455
v 7.460181 6.950394 0.000455
v -0.039820 7.021911 0.000455
v 7.460182 7.365251 0.000455
v 14.960183 7.365251 0.000455
v 14.960183 -0.134754 0.000455
v 14.960183 -0.134754 0.000455
v -15.039823 -0.134754 0.000455
v -15.039823 -0.134754 0.000455
v -15.039823 7.365251 0.000455
v 14.960183 -7.634758 0.000455
v -15.039823 -7.634758 0.000455
v 5.822576 7.167014 1.139132
v 5.822576 7.167014 1.139132
v 5.822576 7.167014 1.139132
v 5.957356 7.205102 1.147677
v 5.957356 7.205102 1.147677
v 5.957356 7.205102 1.147677
v 5.957356 7.205102 1.147677
v 5.957356 7.174252 1.147677
v 5.957356 7.174252 1.147677
v 5.957356 7.174252 1.147677
v 5.957356 7.174252 1.147677
v 5.822576 7.150093 1.139132
v 5.822576 7.150093 1.139132
v 5.822576 7.150093 1.139132
v 5.673010 7.160439 1.135269
v 5.673010 7.160439 1.135269
v 5.673010 7.160439 1.135269
v 5.673010 7.151415 1.135269
v 5.673010 7.151415 1.135269
v 5.673010 7.151415 1.135269
v 5.822576 7.167014 1.103330
v 5.822576 7.167014 1.103330
v 5.822576 7.167014 1.103330
v 5.957356 7.174252 1.094785
v 5.957356 7.174252 1.094785
v 5.957356 7.174252 1.094785
v 5.957356 7.174252 1.094785
v 5.957356 7.205102 1.094785
v 5.957356 7.205102 1.094785
v 5.957356 7.205102 1.094785
v 5.957356 7.205102 1.094785
v 5.822576 7.150093 1.103330
v 5.822576 7.150093 1.103330
v 5.822576 7.150093 1.103330
v 5.673010 7.160439 1.107193
v 5.673010 7.160439 1.107193
v 5.673010 7.160439 1.107193
v 5.673010 7.151415 1.107193
v 5.673010 7.151415 1.107193
v 5.673010 7.151415 1.107193
v 5.968158 7.174307 1.134861
v 5.968158 7.174307 1.134861
v 5.968158 7.174307 1.134861
v 5.968158 7.205615 1.134861
v 5.968158 7.205615 1.134861
v 5.968158 7.205615 1.134861
v 5.968158 7.205615 1.107601
v 5.968158 7.205615 1.107601
v 5.968158 7.205615 1.107601
v 5.968158 7.174307 1.107601
v 5.968158 7.174307 1.107601
v 5.968158 7.174307 1.107601
v 6.144440 7.289649 0.000455
v 6.144440 7.289649 0.000455
v 6.063441 7.289649 0.000455
v 6.063441 7.289649 0.000455
v 6.063441 7.289649 1.986691
v 6.063441 7.289649 1.986691
v 6.063441 7.289649 1.986691
v 6.144440 7.289649 2.067690
v 6.144440 7.289649 2.067690
v 6.144440 7.289649 2.067690
v 5.050249 7.289649 1.986691
v 5.050249 7.289649 1.986691
v 5.050249 7.289649 1.986691
v 4.969249 7.289649 2.067690
v 4.969249 7.289649 2.067690
v 4.969249 7.289649 2.067690
v 4.969249 7.289649 0.000455
v 4.969249 7.289649 0.000455
v 5.050249 7.289649 0.000455
v 5.050249 7.289649 0.000455
v 6.063441 7.327451 1.986691
v 6.063441 7.327451 1.986691
v 6.063441 7.327451 0.000455
v 5.050249 7.327451 1.986691
v 5.050249 7.327451 1.986691
v 5.050249 7.327451 0.000455
v 6.144440 7.365251 2.067690
v 6.144440 7.365251 2.067690
v 6.144440 7.365251 0.000455
v 4.969249 7.365251 2.067690
v 4.969249 7.365251 2.067690
v 4.969249 7.365251 0.000455
v 5.050249 7.301959 0.000455
v 5.050249 7.301959 1.986691
v 6.063441 7.301959 1.986691
v 6.063441 7.301959 0.000455
v 5.944883 7.307018 1.098705
v 5.944883 7.307018 1.098705
v 5.927146 7.176164 1.092942
v 5.927146 7.176164 1.092942
v 5.944883 7.176164 1.098705
v 5.944883 7.176164 1.098705
v 5.927146 7.307018 1.092942
v 5.927146 7.307018 1.092942
v 5.944883 7.307018 1.117354
v 5.944883 7.307018 1.117354
v 5.944883 7.176164 1.117354
v 5.944883 7.176164 1.117354
v 5.927146 7.307018 1.123117
v 5.927146 7.307018 1.123117
v 5.927146 7.176164 1.123117
v 5.927146 7.176164 1.123117
v 5.916184 7.307018 1.108029
v 5.916184 7.307018 1.108029
v 5.916184 7.176164 1.108029
v 5.916184 7.176164 1.108029
v -6.151043 -7.576526 1.098705
v -6.151043 -7.576526 1.098705
v -6.133307 -7.576526 1.092942
v -6.133307 -7.576526 1.092942
v -6.133307 -7.445672 1.092942
v -6.133307 -7.445672 1.092942
v -6.151043 -7.445672 1.098705
v -6.151043 -7.445672 1.098705
v -6.151043 -7.576526 1.117354
v -6.151043 -7.576526 1.117354
v -6.151043 -7.445672 1.117354
v -6.151043 -7.445672 1.117354
v -6.133307 -7.576526 1.123117
v -6.133307 -7.576526 1.123117
v -6.133307 -7.445672 1.123117
v -6.133307 -7.445672 1.123117
v -6.122345 -7.576526 1.108029
v -6.122345 -7.576526 1.108029
v -6.122345 -7.445672 1.108029
v -6.122345 -7.445672 1.108029
v -6.028737 -7.436522 1.139132
v -6.028737 -7.436522 1.139132
v -6.028737 -7.436522 1.139132
v -6.163517 -7.474609 1.147677
v -6.163517 -7.474609 1.147677
v -6.163517 -7.474609 1.147677
v -6.163517 -7.474609 1.147677
v -6.163517 -7.443759 1.147677
v -6.163517 -7.443759 1.147677
v -6.163517 -7.443759 1.147677
v -6.163517 -7.443759 1.147677
v -6.028737 -7.419600 1.139132
v -6.028737 -7.419600 1.139132
v -6.028737 -7.419600 1.139132
v -5.879170 -7.429947 1.135269
v -5.879170 -7.429947 1.135269
v -5.879170 -7.429947 1.135269
v -5.879170 -7.420923 1.135269
v -5.879170 -7.420923 1.135269
v -5.879170 -7.420923 1.135269
v -6.028737 -7.436522 1.103330
v -6.028737 -7.436522 1.103330
v -6.028737 -7.436522 1.103330
v -6.163517 -7.443759 1.094785
v -6.163517 -7.443759 1.094785
v -6.163517 -7.443759 1.094785
v -6.163517 -7.443759 1.094785
v -6.163517 -7.474609 1.094785
v -6.163517 -7.474609 1.094785
v -6.163517 -7.474609 1.094785
v -6.163517 -7.474609 1.094785
v -6.028737 -7.419600 1.103330
v -6.028737 -7.419600 1.103330
v -6.028737 -7.419600 1.103330
v -5.879170 -7.429947 1.107193
v -5.879170 -7.429947 1.107193
v -5.879170 -7.429947 1.107193
v -5.879170 -7.420923 1.107193
v -5.879170 -7.420923 1.107193
v -5.879170 -7.420923 1.107193
v -6.174319 -7.443816 1.134861
v -6.174319 -7.443816 1.134861
v -6.174319 -7.443816 1.134861
v -6.174319 -7.475121 1.134861
v -6.174319 -7.475121 1.134861
v -6.174319 -7.475121 1.134861
v -6.174319 -7.475121 1.107601
v -6.174319 -7.475121 1.107601
v -6.174319 -7.475121 1.107601
v -6.174319 -7.443816 1.107601
v -6.174319 -7.443816 1.107601
v -6.174319 -7.443816 1.107601
v -5.256410 -7.559158 1.986691
v -5.256410 -7.559158 1.986691
v -5.256410 -7.559158 1.986691
v -5.256410 -7.559158 0.000455
v -5.256410 -7.559158 0.000455
v -5.175410 -7.559158 0.000455
v -5.175410 -7.559158 0.000455
v -5.175410 -7.559158 2.067690
v -5.175410 -7.559158 2.067690
v -5.175410 -7.559158 2.067690
v -6.269602 -7.559158 1.986691
v -6.269602 -7.559158 1.986691
v -6.269602 -7.559158 1.986691
v -6.350601 -7.559158 2.067690
v -6.350601 -7.559158 2.067690
v -6.350601 -7.559158 2.067690
v -6.350601 -7.559158 0.000455
v -6.350601 -7.559158 0.000455
v -6.269602 -7.559158 0.000455
v -6.269602 -7.559158 0.000455
v -5.256410 -7.596960 1.986691
v -5.256410 -7.596960 1.986691
v -5.256410 -7.596960 0.000455
v -6.269602 -7.596960 1.986691
v -6.269602 -7.596960 1.986691
v -6.269602 -7.596960 0.000455
v -5.175410 -7.634758 2.067690
v -5.175410 -7.634758 2.067690
v -5.175410 -7.634758 0.000455
v -6.350601 -7.634758 2.067690
v -6.350601 -7.634758 2.067690
v -6.350601 -7.634758 0.000455
v -6.269602 -7.571466 0.000455
v -5.256410 -7.571466 1.986691
v -6.269602 -7.571466 1.986691
v -5.256410 -7.571466 0.000455
v 14.884577 -4.670681 0.000455
v 14.884577 -4.670681 0.000455
v 14.884577 -4.589681 0.000455
v 14.884577 -4.589681 0.000455
v 14.884577 -4.589681 1.986691
v 14.884577 -4.589681 1.986691
v 14.884577 -4.589681 1.986691
v 14.884577 -4.670681 2.067690
v 14.884577 -4.670681 2.067690
v 14.884577 -4.670681 2.067690
v 14.884577 -3.576488 1.986691
v 14.884577 -3.576488 1.986691
v 14.884577 -3.576488 1.986691
v 14.884577 -3.495488 2.067690
v 14.884577 -3.495488 2.067690
v 14.884577 -3.495488 2.067690
v 14.884577 -3.495488 0.000455
v 14.884577 -3.495488 0.000455
v 14.884577 -3.576488 0.000455
v 14.884577 -3.576488 0.000455
v 14.922379 -4.589681 1.986691
v 14.922379 -4.589681 1.986691
v 14.922379 -4.589681 0.000455
v 14.922379 -3.576488 1.986691
v 14.922379 -3.576488 1.986691
v 14.922379 -3.576488 0.000455
v 14.960178 -4.670681 2.067690
v 14.960178 -4.670681 2.067690
v 14.960178 -4.670681 0.000455
v 14.960178 -3.495488 2.067690
v 14.960178 -3.495488 2.067690
v 14.960178 -3.495488 0.000455
v 14.836334 -3.684245 0.943965
v 14.836334 -3.684245 0.943965
v 14.836334 -3.684245 0.943965
v 14.836334 -3.684245 1.043180
v 14.836334 -3.684245 1.043180
v 14.836334 -3.684245 1.043180
v 14.836334 -4.481924 1.043180
v 14.836334 -4.481924 1.043180
v 14.836334 -4.481924 1.043180
v 14.836334 -4.481924 0.943965
v 14.836334 -4.481924 0.943965
v 14.836334 -4.481924 0.943965
v 14.896886 -3.642390 1.063084
v 14.896886 -3.642390 1.063084
v 14.896886 -3.642390 1.063084
v 14.896886 -4.523779 1.063084
v 14.896886 -4.523779 1.063084
v 14.896886 -4.523779 1.063084
v 14.896886 -3.642390 0.924061
v 14.896886 -3.642390 0.924061
v 14.896886 -3.642390 0.924061
v 14.896886 -4.523779 0.924061
v 14.896886 -4.523779 0.924061
v 14.896886 -4.523779 0.924061
v 14.896888 -4.589681 0.000455
v 14.896888 -3.576488 0.000455
v 14.896888 -4.589681 1.986691
v 14.896888 -3.576488 1.986691
v 7.460182 -7.634758 0.000455
v -0.039820 -7.634758 0.000455
v -0.039820 -0.134754 0.000455
v -0.039820 -0.134754 0.000455
v 7.460181 -0.134754 0.000455
v 7.460181 -0.134754 0.000455
v -7.539822 -0.134754 0.000455
v -7.539822 -0.134754 0.000455
v -7.539822 -7.634758 0.000455
v -7.539822 7.365251 0.000455
v -0.039820 7.365251 0.000455
v 7.460182 7.365251 0.000455
vt 0.058737 0.000500
vt 0.012282 0.000500
vt 0.012282 0.497260
vt 0.058737 0.497260
vt 0.094303 0.000500
vt 0.094303 0.497260
vt 0.167227 0.000500
vt 0.167227 0.497260
vt 0.184501 0.000500
vt 0.184501 0.497260
vt 0.509043 0.497260
vt 0.509043 0.000500
vt 0.509043 0.000500
vt 0.509043 0.497260
vt 0.182209 0.497260
vt 0.509043 0.497260
vt 0.509043 0.000500
vt 0.182209 0.000500
vt 0.166067 0.497260
vt 0.166067 0.000500
vt 0.094303 0.497260
vt 0.094303 0.000500
vt 0.058737 0.497260
vt 0.058737 0.000500
vt 0.012282 0.497260
vt 0.012282 0.000500
vt 0.012282 0.497260
vt 0.058737 0.497260
vt 0.058737 0.000500
vt 0.094303 0.497260
vt 0.094303 0.000500
vt 0.167227 0.497260
vt 0.167227 0.000500
vt 0.184501 0.000500
vt 0.184501 0.497260
vt 0.182209 0.497260
vt 0.182209 0.000500
vt 0.166067 0.497260
vt 0.166067 0.000500
vt 0.094303 0.497260
vt 0.094303 0.000500
vt 0.058737 0.497260
vt 0.058737 0.000500
vt 0.012282 0.497260
vt 0.012282 0.999501
vt 0.012282 0.502740
vt 0.012282 0.502740
vt 0.012282 0.502740
vt 0.012282 0.502740
vt 0.012282 0.999501
vt 0.012282 0.999501
vt 0.012282 0.999501
vt 0.565981 0.171071
vt 0.575545 0.161306
vt 0.575545 0.161306
vt 0.571367 0.221144
vt 0.571585 0.211513
vt 0.571585 0.211513
vt 0.571367 0.221144
vt 0.560451 0.219296
vt 0.560451 0.219296
vt 0.590645 0.211752
vt 0.590645 0.211752
vt 0.559993 0.170057
vt 0.588430 0.162073
vt 0.588430 0.162073
vt 0.572619 0.117730
vt 0.557001 0.228844
vt 0.577886 0.107605
vt 0.569426 0.117190
vt 0.553769 0.229051
vt 0.587994 0.107843
vt 0.555272 0.165047
vt 0.588393 0.161535
vt 0.588393 0.161535
vt 0.554760 0.116508
vt 0.554760 0.116508
vt 0.571477 0.211411
vt 0.571477 0.211411
vt 0.565809 0.115799
vt 0.590566 0.211851
vt 0.590566 0.211851
vt 0.565809 0.115799
vt 0.549211 0.165436
vt 0.575456 0.161843
vt 0.575456 0.161843
vt 0.556356 0.218788
vt 0.556356 0.218788
vt 0.587961 0.107784
vt 0.553124 0.218995
vt 0.553124 0.218995
vt 0.577819 0.107662
vt 0.553767 0.100740
vt 0.559465 0.225231
vt 0.585932 0.215584
vt 0.564981 0.100020
vt 0.576116 0.215476
vt 0.570545 0.227107
vt 0.565608 0.109784
vt 0.585898 0.215650
vt 0.565608 0.109784
vt 0.554394 0.110504
vt 0.554394 0.110504
vt 0.576052 0.215409
vt 0.765327 0.265473
vt 0.873985 0.536666
vt 0.777542 0.265403
vt 0.791414 0.246476
vt 0.779263 0.564923
vt 0.793142 0.545981
vt 0.885493 0.536488
vt 0.767119 0.577208
vt 0.872190 0.224935
vt 0.834068 0.541255
vt 0.932051 0.564045
vt 0.883704 0.224980
vt 0.791414 0.246476
vt 0.944335 0.576189
vt 0.833049 0.364043
vt 0.873984 0.536666
vt 0.942544 0.264455
vt 0.872191 0.224935
vt 0.930329 0.264525
vt 0.793142 0.545981
vt 0.798842 0.545948
vt 0.873871 0.536555
vt 0.797114 0.246443
vt 0.872082 0.225047
vt 0.797114 0.246443
vt 0.798842 0.545948
vt 0.883590 0.224870
vt 0.845468 0.541189
vt 0.885385 0.536600
vt 0.844449 0.363977
vt 0.885385 0.536600
vt 0.883591 0.224870
vt 0.529327 0.981141
vt 0.529328 0.620150
vt 0.713471 0.620150
vt 0.713471 0.981141
vt 0.598642 0.146647
vt 0.598642 0.146647
vt 0.592784 0.108965
vt 0.626244 0.109709
vt 0.599476 0.109114
vt 0.599476 0.109114
vt 0.591950 0.146498
vt 0.625410 0.147242
vt 0.605334 0.146796
vt 0.605334 0.146796
vt 0.606168 0.109263
vt 0.606168 0.109263
vt 0.612026 0.146944
vt 0.612026 0.146944
vt 0.612859 0.109411
vt 0.612859 0.109411
vt 0.618718 0.147093
vt 0.618718 0.147093
vt 0.619552 0.109560
vt 0.619552 0.109560
vt 0.598642 0.146647
vt 0.598642 0.146647
vt 0.591950 0.146498
vt 0.625410 0.147242
vt 0.592784 0.108965
vt 0.626244 0.109709
vt 0.599476 0.109114
vt 0.599476 0.109114
vt 0.605334 0.146796
vt 0.605334 0.146796
vt 0.606168 0.109263
vt 0.606168 0.109263
vt 0.612026 0.146944
vt 0.612026 0.146944
vt 0.612859 0.109411
vt 0.612859 0.109411
vt 0.618718 0.147093
vt 0.618718 0.147093
vt 0.619552 0.109560
vt 0.619552 0.109560
vt 0.565981 0.171071
vt 0.575545 0.161306
vt 0.575545 0.161306
vt 0.571367 0.221145
vt 0.571585 0.211513
vt 0.571585 0.211513
vt 0.571367 0.221145
vt 0.560451 0.219296
vt 0.560451 0.219296
vt 0.590645 0.211752
vt 0.590645 0.211752
vt 0.559993 0.170057
vt 0.588431 0.162073
vt 0.588431 0.162073
vt 0.572619 0.117730
vt 0.557001 0.228844
vt 0.577886 0.107605
vt 0.569426 0.117190
vt 0.553769 0.229052
vt 0.587994 0.107843
vt 0.555272 0.165047
vt 0.588393 0.161535
vt 0.588393 0.161535
vt 0.554760 0.116508
vt 0.554760 0.116508
vt 0.571477 0.211411
vt 0.571477 0.211411
vt 0.565809 0.115799
vt 0.590566 0.211851
vt 0.590566 0.211851
vt 0.565809 0.115799
vt 0.549211 0.165436
vt 0.575456 0.161843
vt 0.575456 0.161843
vt 0.556356 0.218788
vt 0.556356 0.218788
vt 0.587961 0.107784
vt 0.553124 0.218995
vt 0.553124 0.218995
vt 0.577819 0.107662
vt 0.553767 0.100740
vt 0.559465 0.225231
vt 0.585932 0.215584
vt 0.564981 0.100020
vt 0.576116 0.215476
vt 0.570545 0.227107
vt 0.565608 0.109784
vt 0.585898 0.215650
vt 0.565608 0.109784
vt 0.554394 0.110504
vt 0.554394 0.110504
vt 0.576052 0.215409
vt 0.932052 0.564044
vt 0.798840 0.545948
vt 0.873873 0.536555
vt 0.930327 0.264524
vt 0.797116 0.246443
vt 0.942542 0.264454
vt 0.885384 0.536600
vt 0.944337 0.576188
vt 0.883591 0.224870
vt 0.845469 0.541189
vt 0.779265 0.564923
vt 0.872080 0.225047
vt 0.797119 0.246443
vt 0.767120 0.577209
vt 0.844448 0.363977
vt 0.885384 0.536600
vt 0.765326 0.265474
vt 0.883591 0.224870
vt 0.777540 0.265404
vt 0.798838 0.545948
vt 0.793140 0.545981
vt 0.885495 0.536488
vt 0.791416 0.246476
vt 0.883702 0.224980
vt 0.791418 0.246476
vt 0.793138 0.545981
vt 0.872191 0.224935
vt 0.834069 0.541255
vt 0.873984 0.536666
vt 0.833048 0.364043
vt 0.873984 0.536666
vt 0.872191 0.224935
vt 0.923443 0.982922
vt 0.739299 0.621931
vt 0.923442 0.621931
vt 0.739299 0.982922
vt 0.942542 0.264454
vt 0.885384 0.536600
vt 0.930327 0.264524
vt 0.797116 0.246443
vt 0.932052 0.564044
vt 0.798840 0.545948
vt 0.873873 0.536555
vt 0.944337 0.576188
vt 0.883591 0.224870
vt 0.845469 0.541189
vt 0.779265 0.564923
vt 0.872080 0.225047
vt 0.797119 0.246443
vt 0.767120 0.577209
vt 0.844448 0.363977
vt 0.885384 0.536600
vt 0.765326 0.265474
vt 0.883591 0.224870
vt 0.777540 0.265404
vt 0.798838 0.545948
vt 0.793140 0.545981
vt 0.885495 0.536488
vt 0.791416 0.246476
vt 0.883702 0.224980
vt 0.791418 0.246476
vt 0.793138 0.545981
vt 0.872191 0.224935
vt 0.834069 0.541255
vt 0.873984 0.536666
vt 0.833048 0.364043
vt 0.873984 0.536666
vt 0.872191 0.224935
vt 0.742024 0.209762
vt 0.742024 0.209762
vt 0.742024 0.209762
vt 0.742057 0.195257
vt 0.742057 0.195257
vt 0.742057 0.195257
vt 0.625435 0.194991
vt 0.625435 0.194991
vt 0.625435 0.194991
vt 0.625401 0.209497
vt 0.625401 0.209497
vt 0.625401 0.209497
vt 0.748197 0.185952
vt 0.752825 0.192371
vt 0.706586 0.404842
vt 0.619336 0.185659
vt 0.614679 0.192057
vt 0.546397 0.404843
vt 0.752779 0.212697
vt 0.748122 0.219095
vt 0.706586 0.430109
vt 0.619261 0.218802
vt 0.614633 0.212382
vt 0.546397 0.430110
vt 0.534421 0.597973
vt 0.718565 0.597971
vt 0.534418 0.236981
vt 0.718562 0.236979
vt 0.509043 0.999501
vt 0.012282 0.000500
vt 0.509043 0.000500
vt 0.509043 0.497260
vt 0.509043 0.502740
vt 0.509043 0.502740
vt 0.509043 0.502740
vt 0.509043 0.502740
vt 0.509043 0.999501
vt 0.509043 0.999501
vt 0.012282 0.000500
vt 0.509043 0.999501
f 1/1 3/3 2/2
f 1/1 4/4 3/3
f 5/5 4/4 1/1
f 4/4 5/5 6/6
f 7/7 6/6 5/5
f 7/7 8/8 6/6
f 9/9 8/8 7/7
f 8/8 9/9 10/10
f 11/11 10/10 9/9
f 13/13 11/11 9/9
f 15/15 331/331 16/16
f 331/331 15/15 18/18
f 18/18 15/15 19/19
f 18/18 19/19 20/20
f 20/20 19/19 21/21
f 20/20 21/21 22/22
f 22/22 21/21 23/23
f 22/22 23/23 24/24
f 24/24 23/23 25/25
f 24/24 25/25 330/330
f 26/26 28/28 27/27
f 28/28 26/26 29/29
f 29/29 30/30 28/28
f 30/30 29/29 31/31
f 31/31 32/32 30/30
f 32/32 31/31 33/33
f 32/32 33/33 34/34
f 32/32 34/34 35/35
f 34/34 332/332 35/35
f 332/332 34/34 17/17
f 36/36 12/12 14/14
f 12/12 36/36 37/37
f 38/38 37/37 36/36
f 38/38 39/39 37/37
f 40/40 39/39 38/38
f 40/40 41/41 39/39
f 42/42 41/41 40/40
f 42/42 43/43 41/41
f 44/44 43/43 42/42
f 44/44 339/339 43/43
f 45/45 340/340 46/46
f 340/340 333/333 46/46
f 48/48 338/338 50/50
f 338/338 48/48 335/335
f 47/47 334/334 329/329
f 47/47 329/329 51/51
f 49/49 337/337 336/336
f 337/337 49/49 52/52
f 53/53 60/60 56/56
f 60/60 53/53 64/64
f 67/67 64/64 53/53
f 64/64 67/67 70/70
f 73/73 80/80 76/76
f 76/76 84/84 73/73
f 84/84 87/87 73/73
f 87/87 84/84 90/90
f 88/88 71/71 68/68
f 71/71 88/88 91/91
f 93/93 99/99 96/96
f 99/99 93/93 102/102
f 81/81 97/97 100/100
f 81/81 57/57 97/97
f 54/54 58/58 82/82
f 54/54 82/82 74/74
f 69/69 55/55 75/75
f 69/69 75/75 89/89
f 59/59 61/61 94/94
f 59/59 94/94 98/98
f 103/103 83/83 101/101
f 83/83 103/103 77/77
f 92/92 65/65 72/72
f 65/65 92/92 85/85
f 78/78 66/66 86/86
f 66/66 78/78 62/62
f 63/63 79/79 104/104
f 63/63 104/104 95/95
f 105/105 109/109 107/107
f 109/109 105/105 112/112
f 112/112 115/115 109/109
f 112/112 118/118 115/115
f 118/118 121/121 115/115
f 115/115 121/121 123/123
f 125/125 127/127 110/110
f 110/110 127/127 108/108
f 111/111 116/116 128/128
f 111/111 128/128 126/126
f 117/117 124/124 129/129
f 129/129 124/124 130/130
f 113/113 133/133 131/131
f 133/133 113/113 106/106
f 134/134 114/114 132/132
f 114/114 134/134 119/119
f 135/135 122/122 120/120
f 122/122 135/135 136/136
f 137/137 139/139 138/138
f 139/139 137/137 140/140
f 141/141 145/145 143/143
f 143/143 147/147 141/141
f 149/149 151/151 146/146
f 149/149 146/146 142/142
f 153/153 152/152 150/150
f 152/152 153/153 155/155
f 156/156 154/154 157/157
f 156/156 157/157 159/159
f 160/160 158/158 148/148
f 160/160 148/148 144/144
f 161/161 165/165 163/163
f 165/165 161/161 167/167
f 169/169 171/171 168/168
f 169/169 168/168 162/162
f 173/173 175/175 172/172
f 172/172 170/170 173/173
f 176/176 174/174 177/177
f 176/176 177/177 179/179
f 180/180 178/178 164/164
f 180/180 164/164 166/166
f 181/181 188/188 184/184
f 188/188 181/181 192/192
f 195/195 192/192 181/181
f 192/192 195/195 198/198
f 201/201 208/208 204/204
f 201/201 204/204 212/212
f 215/215 201/201 212/212
f 215/215 212/212 218/218
f 216/216 199/199 196/196
f 199/199 216/216 219/219
f 221/221 227/227 224/224
f 227/227 221/221 230/230
f 209/209 225/225 228/228
f 209/209 185/185 225/225
f 182/182 186/186 210/210
f 182/182 210/210 202/202
f 197/197 183/183 203/203
f 197/197 203/203 217/217
f 187/187 189/189 222/222
f 187/187 222/222 226/226
f 231/231 211/211 229/229
f 211/211 231/231 205/205
f 220/220 193/193 200/200
f 193/193 220/220 213/213
f 206/206 194/194 214/214
f 194/194 206/206 190/190
f 191/191 207/207 232/232
f 191/191 232/232 223/223
f 233/233 238/238 236/236
f 238/238 233/233 240/240
f 243/243 240/240 233/233
f 246/246 240/240 243/243
f 249/249 246/246 243/243
f 249/249 243/243 251/251
f 234/234 255/255 253/253
f 255/255 234/234 237/237
f 244/244 235/235 256/256
f 254/254 256/256 235/235
f 245/245 258/258 252/252
f 258/258 245/245 257/257
f 259/259 261/261 241/241
f 241/241 261/261 239/239
f 242/242 247/247 262/262
f 242/242 262/262 260/260
f 264/264 263/263 248/248
f 248/248 250/250 264/264
f 265/265 267/267 266/266
f 266/266 268/268 265/265
f 269/269 273/273 271/271
f 273/273 269/269 276/276
f 276/276 279/279 273/273
f 276/276 282/282 279/279
f 282/282 285/285 279/279
f 279/279 285/285 287/287
f 289/289 291/291 274/274
f 274/274 291/291 272/272
f 275/275 292/292 290/290
f 292/292 275/275 280/280
f 281/281 294/294 293/293
f 294/294 281/281 288/288
f 277/277 297/297 295/295
f 297/297 277/277 270/270
f 283/283 278/278 298/298
f 298/298 278/278 296/296
f 299/299 286/286 284/284
f 286/286 299/299 300/300
f 301/301 307/307 304/304
f 307/307 301/301 310/310
f 305/305 316/316 313/313
f 316/316 305/305 308/308
f 302/302 306/306 314/314
f 314/314 319/319 302/302
f 311/311 320/320 322/322
f 320/320 311/311 303/303
f 309/309 323/323 317/317
f 323/323 309/309 312/312
f 324/324 326/326 325/325
f 327/327 324/324 325/325
f 321/321 326/326 324/324
f 324/324 327/327 318/318
f 315/315 326/326 321/321
f 327/327 315/315 318/318
f 326/326 315/315 328/328
f 327/327 328/328 315/315
