# generated by roqsim_scenes/tools (world-space, metres, Z-up)
v 5.651690 -0.347239 6.025956
v 5.651690 -0.347239 6.025956
v 5.651690 -0.347239 6.025956
v 4.378781 -0.243387 6.025956
v 4.378781 -0.243387 6.025956
v 4.378781 -0.243387 6.025956
v 4.378781 -0.347239 6.025956
v 4.378781 -0.347239 6.025956
v 4.378781 -0.347239 6.025956
v 5.651690 -0.243387 6.025956
v 5.651690 -0.243387 6.025956
v 5.651690 -0.243387 6.025956
v 5.651690 -0.347239 6.042106
v 5.651690 -0.347239 6.042106
v 5.651690 -0.347239 6.042106
v 4.378781 -0.347239 6.042106
v 4.378781 -0.347239 6.042106
v 4.378781 -0.347239 6.042106
v 5.651690 -0.243387 6.042106
v 5.651690 -0.243387 6.042106
v 5.651690 -0.243387 6.042106
v 4.378781 -0.243387 6.042106
v 4.378781 -0.243387 6.042106
v 4.378781 -0.243387 6.042106
vt 0.808398 0.680673
vt 0.938450 0.667133
vt 0.956985 0.803886
vt 0.786326 0.910678
vt 0.941372 0.897427
vt 0.953913 0.822649
vt 0.805113 0.910946
vt 0.938450 0.897427
vt 0.954063 0.803862
vt 0.789611 0.680405
vt 0.941372 0.667133
vt 0.956835 0.822673
vt 0.941372 0.667133
vt 0.789611 0.680405
vt 0.954063 0.803862
vt 0.941372 0.897427
vt 0.786326 0.910678
vt 0.956985 0.803886
vt 0.808398 0.680673
vt 0.938450 0.667133
vt 0.953913 0.822649
vt 0.805113 0.910946
vt 0.938450 0.897427
vt 0.956835 0.822673
f 1/1 7/7 4/4
f 1/1 4/4 10/10
f 8/8 2/2 13/13
f 8/8 13/13 16/16
f 19/19 22/22 17/17
f 19/19 17/17 14/14
f 11/11 5/5 23/23
f 11/11 23/23 20/20
f 21/21 15/15 12/12
f 3/3 12/12 15/15
f 9/9 24/24 6/6
f 24/24 9/9 18/18
