# generated by roqsim_scenes/tools (world-space, metres, Z-up)
v 11.681759 7.616648 7.609102
v 11.681759 7.616648 7.609102
v 11.681759 7.616648 7.609102
v 11.681759 7.616648 7.609102
v 11.681759 7.616648 7.609102
v 14.488562 7.616648 7.609102
v 14.488562 7.616648 7.609102
v 14.488562 7.616648 7.609102
v 14.488562 7.616648 7.609102
v 14.488562 7.616648 7.609102
v 14.548562 7.665250 7.669102
v 14.548562 7.665250 7.669102
v 14.548562 7.665250 7.669102
v 14.548562 7.665250 7.669102
v 11.621759 7.665250 7.669102
v 11.621759 7.665250 7.669102
v 11.621759 7.665250 7.669102
v 11.621759 7.665250 7.669102
v 14.548562 7.665250 5.502836
v 14.548562 7.665250 5.502836
v 14.548562 7.665250 5.502836
v 14.548562 7.665250 5.502836
v 14.548562 7.665250 5.502836
v 14.488562 7.616648 5.562836
v 14.488562 7.616648 5.562836
v 14.488562 7.616648 5.562836
v 14.488562 7.616648 5.562836
v 0.431763 7.616648 7.609102
v 0.431763 7.616648 7.609102
v 0.431763 7.616648 7.609102
v 0.431763 7.616648 7.609102
v 0.431763 7.616648 7.609102
v 3.238568 7.616648 7.609102
v 3.238568 7.616648 7.609102
v 3.238568 7.616648 7.609102
v 3.238568 7.616648 7.609102
v 3.238568 7.616648 7.609102
v 3.298568 7.665250 7.669102
v 3.298568 7.665250 7.669102
v 3.298568 7.665250 7.669102
v 3.298568 7.665250 7.669102
v 0.371763 7.665250 7.669102
v 0.371763 7.665250 7.669102
v 0.371763 7.665250 7.669102
v 0.371763 7.665250 7.669102
v 3.298568 7.665250 5.502836
v 3.298568 7.665250 5.502836
v 3.298568 7.665250 5.502836
v 3.298568 7.665250 5.502836
v 3.298568 7.665250 5.502836
v 3.238568 7.616648 5.562836
v 3.238568 7.616648 5.562836
v 3.238568 7.616648 5.562836
v 3.238568 7.616648 5.562836
v -7.951427 7.665250 5.502836
v -7.951427 7.665250 5.502836
v -7.951427 7.665250 5.502836
v -7.951427 7.665250 5.502836
v -7.951427 7.665250 5.502836
v -7.951427 7.665250 5.502836
v -8.011427 7.616648 5.562836
v -8.011427 7.616648 5.562836
v -8.011427 7.616648 5.562836
v -8.011427 7.616648 5.562836
v -10.818233 7.616648 5.562836
v -10.818233 7.616648 5.562836
v -10.818233 7.616648 5.562836
v -10.818233 7.616648 5.562836
v -10.818233 7.616648 5.562836
v -10.818233 7.616648 5.562836
v -10.878233 7.665250 5.502836
v -10.878233 7.665250 5.502836
v -10.878233 7.665250 5.502836
v -10.878233 7.665250 5.502836
v -10.878233 7.665250 7.669102
v -10.878233 7.665250 7.669102
v -10.878233 7.665250 7.669102
v -10.878233 7.665250 7.669102
v -10.818233 7.616648 7.609102
v -10.818233 7.616648 7.609102
v -10.818233 7.616648 7.609102
v -10.818233 7.616648 7.609102
v -10.818233 7.616648 7.609102
v -7.951427 7.665250 7.669102
v -7.951427 7.665250 7.669102
v -7.951427 7.665250 7.669102
v -7.951427 7.665250 7.669102
v -8.011427 7.616648 7.609102
v -8.011427 7.616648 7.609102
v -8.011427 7.616648 7.609102
v -8.011427 7.616648 7.609102
v -8.011427 7.616648 7.609102
v -14.628233 7.665250 5.502836
v -14.628233 7.665250 5.502836
v -14.628233 7.665250 5.502836
v -14.628233 7.665250 5.502836
v -14.628233 7.665250 5.502836
v -11.701428 7.665250 5.502836
v -11.701428 7.665250 5.502836
v -11.701428 7.665250 5.502836
v -11.761427 7.616648 5.562836
v -11.761427 7.616648 5.562836
v -11.761427 7.616648 5.562836
v -11.761427 7.616648 5.562836
v -11.761427 7.616648 5.562836
v -11.761427 7.616648 5.562836
v -14.568233 7.616648 5.562836
v -14.568233 7.616648 5.562836
v -14.568233 7.616648 5.562836
v -14.568233 7.616648 5.562836
v -14.628233 7.665250 7.669102
v -14.628233 7.665250 7.669102
v -14.628233 7.665250 7.669102
v -14.628233 7.665250 7.669102
v -11.761427 7.616648 7.609102
v -11.761427 7.616648 7.609102
v -11.761427 7.616648 7.609102
v -11.761427 7.616648 7.609102
v -11.761427 7.616648 7.609102
v -11.701428 7.665250 7.669102
v -11.701428 7.665250 7.669102
v -11.701428 7.665250 7.669102
v -11.701428 7.665250 7.669102
v -14.568233 7.616648 7.609102
v -14.568233 7.616648 7.609102
v -14.568233 7.616648 7.609102
v -14.568233 7.616648 7.609102
v -14.568233 7.616648 7.609102
v 7.871758 7.665250 5.502836
v 7.871758 7.665250 5.502836
v 7.871758 7.665250 5.502836
v 7.871758 7.665250 5.502836
v 7.871758 7.665250 5.502836
v 10.798562 7.665250 5.502836
v 10.798562 7.665250 5.502836
v 10.798562 7.665250 5.502836
v 10.738564 7.616648 5.562836
v 10.738564 7.616648 5.562836
v 10.738564 7.616648 5.562836
v 10.738564 7.616648 5.562836
v 10.738564 7.616648 5.562836
v 10.738564 7.616648 5.562836
v 7.931759 7.616648 5.562836
v 7.931759 7.616648 5.562836
v 7.931759 7.616648 5.562836
v 7.931759 7.616648 5.562836
v 7.871758 7.665250 7.669102
v 7.871758 7.665250 7.669102
v 7.871758 7.665250 7.669102
v 7.871758 7.665250 7.669102
v 10.738564 7.616648 7.609102
v 10.738564 7.616648 7.609102
v 10.738564 7.616648 7.609102
v 10.738564 7.616648 7.609102
v 10.738564 7.616648 7.609102
v 10.798562 7.665250 7.669102
v 10.798562 7.665250 7.669102
v 10.798562 7.665250 7.669102
v 10.798562 7.665250 7.669102
v 7.931759 7.616648 7.609102
v 7.931759 7.616648 7.609102
v 7.931759 7.616648 7.609102
v 7.931759 7.616648 7.609102
v 7.931759 7.616648 7.609102
v 11.681759 7.616648 5.562836
v 11.681759 7.616648 5.562836
v 11.681759 7.616648 5.562836
v 11.681759 7.616648 5.562836
v 11.681759 7.616648 5.562836
v 11.681759 7.616648 5.562836
v 11.621759 7.665250 5.502836
v 11.621759 7.665250 5.502836
v 11.621759 7.665250 5.502836
v 0.431763 7.616648 5.562836
v 0.431763 7.616648 5.562836
v 0.431763 7.616648 5.562836
v 0.431763 7.616648 5.562836
v 0.431763 7.616648 5.562836
v 0.431763 7.616648 5.562836
v 0.371763 7.665250 5.502836
v 0.371763 7.665250 5.502836
v 0.371763 7.665250 5.502836
v -3.378238 7.665250 5.502836
v -3.378238 7.665250 5.502836
v -3.378238 7.665250 5.502836
v -3.378238 7.665250 5.502836
v -3.378238 7.665250 5.502836
v -0.451432 7.665250 5.502836
v -0.451432 7.665250 5.502836
v -0.451432 7.665250 5.502836
v -0.511432 7.616648 5.562836
v -0.511432 7.616648 5.562836
v -0.511432 7.616648 5.562836
v -0.511432 7.616648 5.562836
v -0.511432 7.616648 5.562836
v -0.511432 7.616648 5.562836
v -3.318237 7.616648 5.562836
v -3.318237 7.616648 5.562836
v -3.318237 7.616648 5.562836
v -3.318237 7.616648 5.562836
v -3.378238 7.665250 7.669102
v -3.378238 7.665250 7.669102
v -3.378238 7.665250 7.669102
v -3.378238 7.665250 7.669102
v -0.511432 7.616648 7.609102
v -0.511432 7.616648 7.609102
v -0.511432 7.616648 7.609102
v -0.511432 7.616648 7.609102
v -0.511432 7.616648 7.609102
v -0.451432 7.665250 7.669102
v -0.451432 7.665250 7.669102
v -0.451432 7.665250 7.669102
v -0.451432 7.665250 7.669102
v -3.318237 7.616648 7.609102
v -3.318237 7.616648 7.609102
v -3.318237 7.616648 7.609102
v -3.318237 7.616648 7.609102
v -3.318237 7.616648 7.609102
v -7.951427 -7.934756 7.669102
v -7.951427 -7.934756 7.669102
v -7.951427 -7.934756 7.669102
v -7.951427 -7.934756 7.669102
v -7.951427 -7.934756 7.669102
v -10.818233 -7.886156 7.609102
v -10.818233 -7.886156 7.609102
v -10.818233 -7.886156 7.609102
v -10.818233 -7.886156 7.609102
v -10.818233 -7.886156 7.609102
v -10.878233 -7.934756 7.669102
v -10.878233 -7.934756 7.669102
v -10.878233 -7.934756 7.669102
v -10.878233 -7.934756 7.669102
v -8.011427 -7.886156 7.609102
v -8.011427 -7.886156 7.609102
v -8.011427 -7.886156 7.609102
v -8.011427 -7.886156 7.609102
v -8.011427 -7.886156 7.609102
v -7.951427 -7.934756 5.502836
v -7.951427 -7.934756 5.502836
v -7.951427 -7.934756 5.502836
v -7.951427 -7.934756 5.502836
v -7.951427 -7.934756 5.502836
v -8.011427 -7.886156 5.562836
v -8.011427 -7.886156 5.562836
v -8.011427 -7.886156 5.562836
v -8.011427 -7.886156 5.562836
v -10.818233 -7.886156 5.562836
v -10.818233 -7.886156 5.562836
v -10.818233 -7.886156 5.562836
v -10.818233 -7.886156 5.562836
v -10.818233 -7.886156 5.562836
v -10.878233 -7.934756 5.502836
v -10.878233 -7.934756 5.502836
v -10.878233 -7.934756 5.502836
v -11.701428 -7.934756 7.669102
v -11.701428 -7.934756 7.669102
v -11.701428 -7.934756 7.669102
v -11.701428 -7.934756 7.669102
v -11.761427 -7.886156 7.609102
v -11.761427 -7.886156 7.609102
v -11.761427 -7.886156 7.609102
v -11.761427 -7.886156 7.609102
v -11.761427 -7.886156 7.609102
v -14.628233 -7.934756 7.669102
v -14.628233 -7.934756 7.669102
v -14.628233 -7.934756 7.669102
v -14.628233 -7.934756 7.669102
v -14.568233 -7.886156 7.609102
v -14.568233 -7.886156 7.609102
v -14.568233 -7.886156 7.609102
v -14.568233 -7.886156 7.609102
v -14.568233 -7.886156 7.609102
v -14.628233 -7.934756 5.502836
v -14.628233 -7.934756 5.502836
v -14.628233 -7.934756 5.502836
v -14.628233 -7.934756 5.502836
v -14.568233 -7.886156 5.562836
v -14.568233 -7.886156 5.562836
v -14.568233 -7.886156 5.562836
v -14.568233 -7.886156 5.562836
v -11.761427 -7.886156 5.562836
v -11.761427 -7.886156 5.562836
v -11.761427 -7.886156 5.562836
v -11.761427 -7.886156 5.562836
v -11.761427 -7.886156 5.562836
v -11.701428 -7.934756 5.502836
v -11.701428 -7.934756 5.502836
v -11.701428 -7.934756 5.502836
v 10.798562 -7.934756 7.669102
v 10.798562 -7.934756 7.669102
v 10.798562 -7.934756 7.669102
v 10.798562 -7.934756 7.669102
v 10.738564 -7.886156 7.609102
v 10.738564 -7.886156 7.609102
v 10.738564 -7.886156 7.609102
v 10.738564 -7.886156 7.609102
v 10.738564 -7.886156 7.609102
v 7.871758 -7.934756 7.669102
v 7.871758 -7.934756 7.669102
v 7.871758 -7.934756 7.669102
v 7.871758 -7.934756 7.669102
v 7.931759 -7.886156 7.609102
v 7.931759 -7.886156 7.609102
v 7.931759 -7.886156 7.609102
v 7.931759 -7.886156 7.609102
v 7.931759 -7.886156 7.609102
v 7.871758 -7.934756 5.502836
v 7.871758 -7.934756 5.502836
v 7.871758 -7.934756 5.502836
v 7.871758 -7.934756 5.502836
v 7.931759 -7.886156 5.562836
v 7.931759 -7.886156 5.562836
v 7.931759 -7.886156 5.562836
v 7.931759 -7.886156 5.562836
v 10.738564 -7.886156 5.562836
v 10.738564 -7.886156 5.562836
v 10.738564 -7.886156 5.562836
v 10.738564 -7.886156 5.562836
v 10.738564 -7.886156 5.562836
v 10.798562 -7.934756 5.502836
v 10.798562 -7.934756 5.502836
v 10.798562 -7.934756 5.502836
v 14.548562 -7.934756 5.502836
v 14.548562 -7.934756 5.502836
v 14.548562 -7.934756 5.502836
v 14.548562 -7.934756 5.502836
v 14.548562 -7.934756 5.502836
v 11.621759 -7.934756 5.502836
v 11.621759 -7.934756 5.502836
v 11.621759 -7.934756 5.502836
v 11.681759 -7.886156 5.562836
v 11.681759 -7.886156 5.562836
v 11.681759 -7.886156 5.562836
v 11.681759 -7.886156 5.562836
v 11.681759 -7.886156 5.562836
v 11.681759 -7.886156 5.562836
v 14.488562 -7.886156 5.562836
v 14.488562 -7.886156 5.562836
v 14.488562 -7.886156 5.562836
v 14.488562 -7.886156 5.562836
v 14.548562 -7.934756 7.669102
v 14.548562 -7.934756 7.669102
v 14.548562 -7.934756 7.669102
v 14.548562 -7.934756 7.669102
v 11.681759 -7.886156 7.609102
v 11.681759 -7.886156 7.609102
v 11.681759 -7.886156 7.609102
v 11.681759 -7.886156 7.609102
v 11.681759 -7.886156 7.609102
v 11.621759 -7.934756 7.669102
v 11.621759 -7.934756 7.669102
v 11.621759 -7.934756 7.669102
v 11.621759 -7.934756 7.669102
v 14.488562 -7.886156 7.609102
v 14.488562 -7.886156 7.609102
v 14.488562 -7.886156 7.609102
v 14.488562 -7.886156 7.609102
v 14.488562 -7.886156 7.609102
v 3.298568 -7.934756 7.669102
v 3.298568 -7.934756 7.669102
v 3.298568 -7.934756 7.669102
v 3.298568 -7.934756 7.669102
v 0.431763 -7.886156 7.609102
v 0.431763 -7.886156 7.609102
v 0.431763 -7.886156 7.609102
v 0.431763 -7.886156 7.609102
v 0.431763 -7.886156 7.609102
v 0.371763 -7.934756 7.669102
v 0.371763 -7.934756 7.669102
v 0.371763 -7.934756 7.669102
v 0.371763 -7.934756 7.669102
v 3.238568 -7.886156 7.609102
v 3.238568 -7.886156 7.609102
v 3.238568 -7.886156 7.609102
v 3.238568 -7.886156 7.609102
v 3.238568 -7.886156 7.609102
v 3.298568 -7.934756 5.502836
v 3.298568 -7.934756 5.502836
v 3.298568 -7.934756 5.502836
v 3.298568 -7.934756 5.502836
v 3.238568 -7.886156 5.562836
v 3.238568 -7.886156 5.562836
v 3.238568 -7.886156 5.562836
v 3.238568 -7.886156 5.562836
v 0.431763 -7.886156 5.562836
v 0.431763 -7.886156 5.562836
v 0.431763 -7.886156 5.562836
v 0.431763 -7.886156 5.562836
v 0.431763 -7.886156 5.562836
v 0.371763 -7.934756 5.502836
v 0.371763 -7.934756 5.502836
v 0.371763 -7.934756 5.502836
v -3.378238 -7.934756 5.502836
v -3.378238 -7.934756 5.502836
v -3.378238 -7.934756 5.502836
v -3.378238 -7.934756 5.502836
v -3.378238 -7.934756 5.502836
v -0.511432 -7.886156 5.562836
v -0.511432 -7.886156 5.562836
v -0.511432 -7.886156 5.562836
v -0.511432 -7.886156 5.562836
v -0.511432 -7.886156 5.562836
v -0.511432 -7.886156 5.562836
v -0.451432 -7.934756 5.502836
v -0.451432 -7.934756 5.502836
v -0.451432 -7.934756 5.502836
v -3.318237 -7.886156 5.562836
v -3.318237 -7.886156 5.562836
v -3.318237 -7.886156 5.562836
v -3.318237 -7.886156 5.562836
v -0.451432 -7.934756 7.669102
v -0.451432 -7.934756 7.669102
v -0.451432 -7.934756 7.669102
v -0.451432 -7.934756 7.669102
v -0.511432 -7.886156 7.609102
v -0.511432 -7.886156 7.609102
v -0.511432 -7.886156 7.609102
v -0.511432 -7.886156 7.609102
v -0.511432 -7.886156 7.609102
v -3.378238 -7.934756 7.669102
v -3.378238 -7.934756 7.669102
v -3.378238 -7.934756 7.669102
v -3.378238 -7.934756 7.669102
v -3.318237 -7.886156 7.609102
v -3.318237 -7.886156 7.609102
v -3.318237 -7.886156 7.609102
v -3.318237 -7.886156 7.609102
v -3.318237 -7.886156 7.609102
v -7.539830 7.665250 9.375461
v -7.539830 7.665250 9.375461
v -11.289831 7.665250 9.375461
v -11.289831 7.665250 9.375461
v -11.289831 7.665250 9.375461
v -7.539830 7.665250 0.000455
v -11.289831 7.665250 0.000455
v -11.289831 7.665250 0.000455
v -7.539830 7.365249 0.000455
v -11.289831 7.365249 0.000455
v -11.289831 7.365249 0.000455
v -11.289831 7.365249 4.687957
v -11.289831 7.365249 4.687957
v -7.539830 7.365249 4.687957
v -7.951427 7.365249 5.502836
v -7.951427 7.365249 5.502836
v -7.951427 7.365249 5.502836
v -10.878233 7.365249 5.502836
v -10.878233 7.365249 5.502836
v -10.878233 7.365249 5.502836
v -7.951427 7.365249 7.669102
v -7.951427 7.365249 7.669102
v -7.951427 7.365249 7.669102
v -7.539830 7.365249 9.375461
v -10.878233 7.365249 7.669102
v -10.878233 7.365249 7.669102
v -10.878233 7.365249 7.669102
v -11.289831 7.365249 9.375461
v -11.289831 7.365249 9.375461
v -10.818233 7.413849 5.562836
v -10.818233 7.413849 5.562836
v -10.818233 7.413849 5.562836
v -8.011427 7.413849 5.562836
v -8.011427 7.413849 5.562836
v -8.011427 7.413849 5.562836
v -8.011427 7.413849 5.562836
v -10.818233 7.413849 7.609102
v -10.818233 7.413849 7.609102
v -10.818233 7.413849 7.609102
v -10.818233 7.413849 7.609102
v -8.011427 7.413849 7.609102
v -8.011427 7.413849 7.609102
v -8.011427 7.413849 7.609102
v -7.951427 7.413849 5.502836
v -7.951427 7.413849 5.502836
v -7.951427 7.413849 5.502836
v -7.951427 7.413849 5.502836
v -10.878233 7.413849 5.502836
v -10.878233 7.413849 5.502836
v -10.878233 7.413849 5.502836
v -10.878233 7.413849 7.669102
v -10.878233 7.413849 7.669102
v -10.878233 7.413849 7.669102
v -10.878233 7.413849 7.669102
v -7.951427 7.413849 7.669102
v -7.951427 7.413849 7.669102
v -7.951427 7.413849 7.669102
v -15.039831 7.365249 4.687957
v -15.039831 7.365249 0.000455
v -14.628233 7.365249 5.502836
v -14.628233 7.365249 5.502836
v -14.628233 7.365249 5.502836
v -14.628233 7.365249 7.669102
v -14.628233 7.365249 7.669102
v -14.628233 7.365249 7.669102
v -11.701428 7.365249 5.502836
v -11.701428 7.365249 5.502836
v -11.701428 7.365249 5.502836
v -15.039831 7.365249 9.375461
v -11.701428 7.365249 7.669102
v -11.701428 7.365249 7.669102
v -11.701428 7.365249 7.669102
v -14.568233 7.413849 5.562836
v -14.568233 7.413849 5.562836
v -14.568233 7.413849 5.562836
v -14.568233 7.413849 5.562836
v -11.761427 7.413849 5.562836
v -11.761427 7.413849 5.562836
v -11.761427 7.413849 5.562836
v -11.761427 7.413849 7.609102
v -11.761427 7.413849 7.609102
v -11.761427 7.413849 7.609102
v -11.761427 7.413849 7.609102
v -14.568233 7.413849 7.609102
v -14.568233 7.413849 7.609102
v -14.568233 7.413849 7.609102
v -14.628233 7.413849 5.502836
v -14.628233 7.413849 5.502836
v -14.628233 7.413849 5.502836
v -14.628233 7.413849 5.502836
v -11.701428 7.413849 5.502836
v -11.701428 7.413849 5.502836
v -11.701428 7.413849 5.502836
v -14.628233 7.413849 7.669102
v -14.628233 7.413849 7.669102
v -14.628233 7.413849 7.669102
v -11.701428 7.413849 7.669102
v -11.701428 7.413849 7.669102
v -11.701428 7.413849 7.669102
v -11.701428 7.413849 7.669102
v 11.210159 7.365249 4.687957
v 11.210159 7.365249 4.687957
v 11.210159 7.365249 0.000455
v 11.210159 7.365249 0.000455
v 7.460159 7.365249 0.000455
v 7.460159 7.365249 4.687957
v 7.871758 7.365249 5.502836
v 7.871758 7.365249 5.502836
v 7.871758 7.365249 5.502836
v 7.871758 7.365249 7.669102
v 7.871758 7.365249 7.669102
v 7.871758 7.365249 7.669102
v 10.798562 7.365249 5.502836
v 10.798562 7.365249 5.502836
v 10.798562 7.365249 5.502836
v 7.460159 7.365249 9.375461
v 10.798562 7.365249 7.669102
v 10.798562 7.365249 7.669102
v 10.798562 7.365249 7.669102
v 11.210159 7.365249 9.375461
v 11.210159 7.365249 9.375461
v 7.931759 7.413849 5.562836
v 7.931759 7.413849 5.562836
v 7.931759 7.413849 5.562836
v 7.931759 7.413849 5.562836
v 10.738564 7.413849 5.562836
v 10.738564 7.413849 5.562836
v 10.738564 7.413849 5.562836
v 10.738564 7.413849 7.609102
v 10.738564 7.413849 7.609102
v 10.738564 7.413849 7.609102
v 10.738564 7.413849 7.609102
v 7.931759 7.413849 7.609102
v 7.931759 7.413849 7.609102
v 7.931759 7.413849 7.609102
v 7.871758 7.413849 5.502836
v 7.871758 7.413849 5.502836
v 7.871758 7.413849 5.502836
v 7.871758 7.413849 5.502836
v 10.798562 7.413849 5.502836
v 10.798562 7.413849 5.502836
v 10.798562 7.413849 5.502836
v 7.871758 7.413849 7.669102
v 7.871758 7.413849 7.669102
v 7.871758 7.413849 7.669102
v 10.798562 7.413849 7.669102
v 10.798562 7.413849 7.669102
v 10.798562 7.413849 7.669102
v 10.798562 7.413849 7.669102
v 14.960159 7.365249 4.687957
v 14.960159 7.365249 0.000455
v 14.548562 7.365249 5.502836
v 14.548562 7.365249 5.502836
v 14.548562 7.365249 5.502836
v 11.621759 7.365249 5.502836
v 11.621759 7.365249 5.502836
v 11.621759 7.365249 5.502836
v 14.548562 7.365249 7.669102
v 14.548562 7.365249 7.669102
v 14.548562 7.365249 7.669102
v 14.960159 7.365249 9.375461
v 11.621759 7.365249 7.669102
v 11.621759 7.365249 7.669102
v 11.621759 7.365249 7.669102
v 11.681759 7.413849 5.562836
v 11.681759 7.413849 5.562836
v 11.681759 7.413849 5.562836
v 14.488562 7.413849 5.562836
v 14.488562 7.413849 5.562836
v 14.488562 7.413849 5.562836
v 14.488562 7.413849 5.562836
v 11.681759 7.413849 7.609102
v 11.681759 7.413849 7.609102
v 11.681759 7.413849 7.609102
v 11.681759 7.413849 7.609102
v 14.488562 7.413849 7.609102
v 14.488562 7.413849 7.609102
v 14.488562 7.413849 7.609102
v 14.548562 7.413849 5.502836
v 14.548562 7.413849 5.502836
v 14.548562 7.413849 5.502836
v 14.548562 7.413849 5.502836
v 11.621759 7.413849 5.502836
v 11.621759 7.413849 5.502836
v 11.621759 7.413849 5.502836
v 11.621759 7.413849 7.669102
v 11.621759 7.413849 7.669102
v 11.621759 7.413849 7.669102
v 11.621759 7.413849 7.669102
v 14.548562 7.413849 7.669102
v 14.548562 7.413849 7.669102
v 14.548562 7.413849 7.669102
v -7.539830 7.665250 0.000455
v -3.789835 7.665247 9.375461
v -7.539830 7.665247 9.375461
v -3.789835 7.665250 0.000455
v -7.539830 7.365251 4.687957
v -3.789835 7.365251 0.000455
v -7.539830 7.365251 0.000455
v -3.789835 7.365251 4.687957
v -7.539830 7.365251 9.375461
v -3.789835 7.365251 9.375461
v 7.460171 7.665247 9.375461
v 3.710178 7.665247 9.375461
v 7.460171 7.665250 0.000455
v 3.710178 7.665250 0.000455
v 7.460171 7.365251 4.687957
v 7.460171 7.365251 0.000455
v 3.710178 7.365251 0.000455
v 3.710178 7.365251 4.687957
v 7.460171 7.365251 9.375461
v 3.710178 7.365251 9.375461
v 3.710166 7.365249 0.000455
v -0.039835 7.365249 0.000455
v -0.039835 7.365249 0.000455
v -0.039835 7.365249 4.687957
v -0.039835 7.365249 4.687957
v 3.710166 7.365249 4.687957
v 3.298568 7.365249 5.502836
v 3.298568 7.365249 5.502836
v 3.298568 7.365249 5.502836
v 0.371763 7.365249 5.502836
v 0.371763 7.365249 5.502836
v 0.371763 7.365249 5.502836
v 3.298568 7.365249 7.669102
v 3.298568 7.365249 7.669102
v 3.298568 7.365249 7.669102
v 3.710166 7.365249 9.375461
v 0.371763 7.365249 7.669102
v 0.371763 7.365249 7.669102
v 0.371763 7.365249 7.669102
v -0.039835 7.365249 9.375461
v -0.039835 7.365249 9.375461
v 0.431763 7.413849 5.562836
v 0.431763 7.413849 5.562836
v 0.431763 7.413849 5.562836
v 3.238568 7.413849 5.562836
v 3.238568 7.413849 5.562836
v 3.238568 7.413849 5.562836
v 3.238568 7.413849 5.562836
v 0.431763 7.413849 7.609102
v 0.431763 7.413849 7.609102
v 0.431763 7.413849 7.609102
v 0.431763 7.413849 7.609102
v 3.238568 7.413849 7.609102
v 3.238568 7.413849 7.609102
v 3.238568 7.413849 7.609102
v 3.298568 7.413849 5.502836
v 3.298568 7.413849 5.502836
v 3.298568 7.413849 5.502836
v 3.298568 7.413849 5.502836
v 0.371763 7.413849 5.502836
v 0.371763 7.413849 5.502836
v 0.371763 7.413849 5.502836
v 0.371763 7.413849 7.669102
v 0.371763 7.413849 7.669102
v 0.371763 7.413849 7.669102
v 0.371763 7.413849 7.669102
v 3.298568 7.413849 7.669102
v 3.298568 7.413849 7.669102
v 3.298568 7.413849 7.669102
v -3.789835 7.365249 4.687957
v -3.789835 7.365249 0.000455
v -3.378238 7.365249 5.502836
v -3.378238 7.365249 5.502836
v -3.378238 7.365249 5.502836
v -3.378238 7.365249 7.669102
v -3.378238 7.365249 7.669102
v -3.378238 7.365249 7.669102
v -0.451432 7.365249 5.502836
v -0.451432 7.365249 5.502836
v -0.451432 7.365249 5.502836
v -3.789835 7.365249 9.375461
v -0.451432 7.365249 7.669102
v -0.451432 7.365249 7.669102
v -0.451432 7.365249 7.669102
v -3.318237 7.413849 5.562836
v -3.318237 7.413849 5.562836
v -3.318237 7.413849 5.562836
v -3.318237 7.413849 5.562836
v -0.511432 7.413849 5.562836
v -0.511432 7.413849 5.562836
v -0.511432 7.413849 5.562836
v -0.511432 7.413849 7.609102
v -0.511432 7.413849 7.609102
v -0.511432 7.413849 7.609102
v -0.511432 7.413849 7.609102
v -3.318237 7.413849 7.609102
v -3.318237 7.413849 7.609102
v -3.318237 7.413849 7.609102
v -3.378238 7.413849 5.502836
v -3.378238 7.413849 5.502836
v -3.378238 7.413849 5.502836
v -3.378238 7.413849 5.502836
v -0.451432 7.413849 5.502836
v -0.451432 7.413849 5.502836
v -0.451432 7.413849 5.502836
v -3.378238 7.413849 7.669102
v -3.378238 7.413849 7.669102
v -3.378238 7.413849 7.669102
v -0.451432 7.413849 7.669102
v -0.451432 7.413849 7.669102
v -0.451432 7.413849 7.669102
v -0.451432 7.413849 7.669102
v -7.539830 -7.934756 0.000455
v -7.539830 -7.934756 0.000455
v -7.539830 -7.934756 9.375461
v -7.539830 -7.934756 9.375461
v -11.289831 -7.934756 0.000455
v -11.289831 -7.934756 0.000455
v -11.289831 -7.934756 9.375461
v -11.289831 -7.934756 9.375461
v -11.289831 -7.634756 4.687957
v -11.289831 -7.634756 4.687957
v -11.289831 -7.634756 0.000455
v -11.289831 -7.634756 0.000455
v -7.539830 -7.634756 0.000455
v -7.539830 -7.634756 4.687957
v -7.951427 -7.634756 5.502836
v -7.951427 -7.634756 5.502836
v -7.951427 -7.634756 5.502836
v -7.951427 -7.634756 7.669102
v -7.951427 -7.634756 7.669102
v -7.951427 -7.634756 7.669102
v -10.878233 -7.634756 5.502836
v -10.878233 -7.634756 5.502836
v -10.878233 -7.634756 5.502836
v -7.539830 -7.634756 9.375461
v -10.878233 -7.634756 7.669102
v -10.878233 -7.634756 7.669102
v -10.878233 -7.634756 7.669102
v -11.289831 -7.634756 9.375461
v -11.289831 -7.634756 9.375461
v -10.818233 -7.683358 5.562836
v -10.818233 -7.683358 5.562836
v -10.818233 -7.683358 5.562836
v -8.011427 -7.683358 5.562836
v -8.011427 -7.683358 5.562836
v -8.011427 -7.683358 5.562836
v -8.011427 -7.683358 5.562836
v -10.818233 -7.683358 7.609102
v -10.818233 -7.683358 7.609102
v -10.818233 -7.683358 7.609102
v -10.818233 -7.683358 7.609102
v -8.011427 -7.683358 7.609102
v -8.011427 -7.683358 7.609102
v -8.011427 -7.683358 7.609102
v -10.878233 -7.683358 5.502836
v -10.878233 -7.683358 5.502836
v -10.878233 -7.683358 5.502836
v -7.951427 -7.683358 5.502836
v -7.951427 -7.683358 5.502836
v -7.951427 -7.683358 5.502836
v -7.951427 -7.683358 5.502836
v -10.878233 -7.683358 7.669102
v -10.878233 -7.683358 7.669102
v -10.878233 -7.683358 7.669102
v -10.878233 -7.683358 7.669102
v -7.951427 -7.683358 7.669102
v -7.951427 -7.683358 7.669102
v -7.951427 -7.683358 7.669102
v -15.039831 -7.634756 4.687957
v -15.039831 -7.634756 0.000455
v -14.628233 -7.634756 5.502836
v -14.628233 -7.634756 5.502836
v -14.628233 -7.634756 5.502836
v -11.701428 -7.634756 5.502836
v -11.701428 -7.634756 5.502836
v -11.701428 -7.634756 5.502836
v -14.628233 -7.634756 7.669102
v -14.628233 -7.634756 7.669102
v -14.628233 -7.634756 7.669102
v -15.039831 -7.634756 9.375461
v -11.701428 -7.634756 7.669102
v -11.701428 -7.634756 7.669102
v -11.701428 -7.634756 7.669102
v -11.761427 -7.683358 5.562836
v -11.761427 -7.683358 5.562836
v -11.761427 -7.683358 5.562836
v -14.568233 -7.683358 5.562836
v -14.568233 -7.683358 5.562836
v -14.568233 -7.683358 5.562836
v -14.568233 -7.683358 5.562836
v -14.568233 -7.683358 7.609102
v -14.568233 -7.683358 7.609102
v -14.568233 -7.683358 7.609102
v -11.761427 -7.683358 7.609102
v -11.761427 -7.683358 7.609102
v -11.761427 -7.683358 7.609102
v -11.761427 -7.683358 7.609102
v -14.628233 -7.683358 5.502836
v -14.628233 -7.683358 5.502836
v -14.628233 -7.683358 5.502836
v -14.628233 -7.683358 5.502836
v -11.701428 -7.683358 5.502836
v -11.701428 -7.683358 5.502836
v -11.701428 -7.683358 5.502836
v -11.701428 -7.683358 7.669102
v -11.701428 -7.683358 7.669102
v -11.701428 -7.683358 7.669102
v -11.701428 -7.683358 7.669102
v -14.628233 -7.683358 7.669102
v -14.628233 -7.683358 7.669102
v -14.628233 -7.683358 7.669102
v 7.460159 -7.634756 0.000455
v 11.210159 -7.634756 0.000455
v 11.210159 -7.634756 0.000455
v 11.210159 -7.634756 4.687957
v 11.210159 -7.634756 4.687957
v 7.460159 -7.634756 4.687957
v 7.871758 -7.634756 5.502836
v 7.871758 -7.634756 5.502836
v 7.871758 -7.634756 5.502836
v 10.798562 -7.634756 5.502836
v 10.798562 -7.634756 5.502836
v 10.798562 -7.634756 5.502836
v 7.871758 -7.634756 7.669102
v 7.871758 -7.634756 7.669102
v 7.871758 -7.634756 7.669102
v 7.460159 -7.634756 9.375461
v 10.798562 -7.634756 7.669102
v 10.798562 -7.634756 7.669102
v 10.798562 -7.634756 7.669102
v 11.210159 -7.634756 9.375461
v 11.210159 -7.634756 9.375461
v 10.738564 -7.683358 5.562836
v 10.738564 -7.683358 5.562836
v 10.738564 -7.683358 5.562836
v 7.931759 -7.683358 5.562836
v 7.931759 -7.683358 5.562836
v 7.931759 -7.683358 5.562836
v 7.931759 -7.683358 5.562836
v 7.931759 -7.683358 7.609102
v 7.931759 -7.683358 7.609102
v 7.931759 -7.683358 7.609102
v 10.738564 -7.683358 7.609102
v 10.738564 -7.683358 7.609102
v 10.738564 -7.683358 7.609102
v 10.738564 -7.683358 7.609102
v 7.871758 -7.683358 5.502836
v 7.871758 -7.683358 5.502836
v 7.871758 -7.683358 5.502836
v 7.871758 -7.683358 5.502836
v 10.798562 -7.683358 5.502836
v 10.798562 -7.683358 5.502836
v 10.798562 -7.683358 5.502836
v 10.798562 -7.683358 7.669102
v 10.798562 -7.683358 7.669102
v 10.798562 -7.683358 7.669102
v 10.798562 -7.683358 7.669102
v 7.871758 -7.683358 7.669102
v 7.871758 -7.683358 7.669102
v 7.871758 -7.683358 7.669102
v 14.960159 -7.634756 4.687957
v 14.960159 -7.634756 0.000455
v 14.548562 -7.634756 5.502836
v 14.548562 -7.634756 5.502836
v 14.548562 -7.634756 5.502836
v 14.548562 -7.634756 7.669102
v 14.548562 -7.634756 7.669102
v 14.548562 -7.634756 7.669102
v 11.621759 -7.634756 5.502836
v 11.621759 -7.634756 5.502836
v 11.621759 -7.634756 5.502836
v 14.960159 -7.634756 9.375461
v 11.621759 -7.634756 7.669102
v 11.621759 -7.634756 7.669102
v 11.621759 -7.634756 7.669102
v 11.681759 -7.683358 5.562836
v 11.681759 -7.683358 5.562836
v 11.681759 -7.683358 5.562836
v 14.488562 -7.683358 5.562836
v 14.488562 -7.683358 5.562836
v 14.488562 -7.683358 5.562836
v 14.488562 -7.683358 5.562836
v 11.681759 -7.683358 7.609102
v 11.681759 -7.683358 7.609102
v 11.681759 -7.683358 7.609102
v 11.681759 -7.683358 7.609102
v 14.488562 -7.683358 7.609102
v 14.488562 -7.683358 7.609102
v 14.488562 -7.683358 7.609102
v 11.621759 -7.683358 5.502836
v 11.621759 -7.683358 5.502836
v 11.621759 -7.683358 5.502836
v 14.548562 -7.683358 5.502836
v 14.548562 -7.683358 5.502836
v 14.548562 -7.683358 5.502836
v 14.548562 -7.683358 5.502836
v 11.621759 -7.683358 7.669102
v 11.621759 -7.683358 7.669102
v 11.621759 -7.683358 7.669102
v 11.621759 -7.683358 7.669102
v 14.548562 -7.683358 7.669102
v 14.548562 -7.683358 7.669102
v 14.548562 -7.683358 7.669102
v -7.539830 -7.934755 9.375461
v -3.789835 -7.934755 9.375461
v -7.539830 -7.934758 0.000455
v -3.789835 -7.934758 0.000455
v -7.539830 -7.634758 4.687957
v -7.539830 -7.634758 0.000455
v -3.789835 -7.634758 0.000455
v -3.789835 -7.634758 4.687957
v -7.539830 -7.634758 9.375461
v -3.789835 -7.634758 9.375461
v 7.460171 -7.934758 0.000455
v 3.710178 -7.934755 9.375461
v 7.460171 -7.934755 9.375461
v 3.710178 -7.934758 0.000455
v 7.460171 -7.634758 4.687957
v 3.710178 -7.634758 0.000455
v 7.460171 -7.634758 0.000455
v 3.710178 -7.634758 4.687957
v 7.460171 -7.634758 9.375461
v 3.710178 -7.634758 9.375461
v -0.039835 -7.634756 4.687957
v -0.039835 -7.634756 4.687957
v -0.039835 -7.634756 0.000455
v -0.039835 -7.634756 0.000455
v 3.710166 -7.634756 0.000455
v 3.710166 -7.634756 4.687957
v 3.298568 -7.634756 5.502836
v 3.298568 -7.634756 5.502836
v 3.298568 -7.634756 5.502836
v 3.298568 -7.634756 7.669102
v 3.298568 -7.634756 7.669102
v 3.298568 -7.634756 7.669102
v 0.371763 -7.634756 5.502836
v 0.371763 -7.634756 5.502836
v 0.371763 -7.634756 5.502836
v 3.710166 -7.634756 9.375461
v 0.371763 -7.634756 7.669102
v 0.371763 -7.634756 7.669102
v 0.371763 -7.634756 7.669102
v -0.039835 -7.634756 9.375461
v -0.039835 -7.634756 9.375461
v 0.431763 -7.683358 5.562836
v 0.431763 -7.683358 5.562836
v 0.431763 -7.683358 5.562836
v 3.238568 -7.683358 5.562836
v 3.238568 -7.683358 5.562836
v 3.238568 -7.683358 5.562836
v 3.238568 -7.683358 5.562836
v 0.431763 -7.683358 7.609102
v 0.431763 -7.683358 7.609102
v 0.431763 -7.683358 7.609102
v 0.431763 -7.683358 7.609102
v 3.238568 -7.683358 7.609102
v 3.238568 -7.683358 7.609102
v 3.238568 -7.683358 7.609102
v 0.371763 -7.683358 5.502836
v 0.371763 -7.683358 5.502836
v 0.371763 -7.683358 5.502836
v 3.298568 -7.683358 5.502836
v 3.298568 -7.683358 5.502836
v 3.298568 -7.683358 5.502836
v 3.298568 -7.683358 5.502836
v 0.371763 -7.683358 7.669102
v 0.371763 -7.683358 7.669102
v 0.371763 -7.683358 7.669102
v 0.371763 -7.683358 7.669102
v 3.298568 -7.683358 7.669102
v 3.298568 -7.683358 7.669102
v 3.298568 -7.683358 7.669102
v -3.789835 -7.634756 4.687957
v -3.789835 -7.634756 0.000455
v -3.378238 -7.634756 5.502836
v -3.378238 -7.634756 5.502836
v -3.378238 -7.634756 5.502836
v -0.451432 -7.634756 5.502836
v -0.451432 -7.634756 5.502836
v -0.451432 -7.634756 5.502836
v -3.378238 -7.634756 7.669102
v -3.378238 -7.634756 7.669102
v -3.378238 -7.634756 7.669102
v -3.789835 -7.634756 9.375461
v -0.451432 -7.634756 7.669102
v -0.451432 -7.634756 7.669102
v -0.451432 -7.634756 7.669102
v -0.511432 -7.683358 5.562836
v -0.511432 -7.683358 5.562836
v -0.511432 -7.683358 5.562836
v -3.318237 -7.683358 5.562836
v -3.318237 -7.683358 5.562836
v -3.318237 -7.683358 5.562836
v -3.318237 -7.683358 5.562836
v -3.318237 -7.683358 7.609102
v -3.318237 -7.683358 7.609102
v -3.318237 -7.683358 7.609102
v -0.511432 -7.683358 7.609102
v -0.511432 -7.683358 7.609102
v -0.511432 -7.683358 7.609102
v -0.511432 -7.683358 7.609102
v -3.378238 -7.683358 5.502836
v -3.378238 -7.683358 5.502836
v -3.378238 -7.683358 5.502836
v -3.378238 -7.683358 5.502836
v -0.451432 -7.683358 5.502836
v -0.451432 -7.683358 5.502836
v -0.451432 -7.683358 5.502836
v -0.451432 -7.683358 7.669102
v -0.451432 -7.683358 7.669102
v -0.451432 -7.683358 7.669102
v -0.451432 -7.683358 7.669102
v -3.378238 -7.683358 7.669102
v -3.378238 -7.683358 7.669102
v -3.378238 -7.683358 7.669102
v -15.339816 -7.934758 9.375461
v -15.339816 -7.934758 0.000455
v -15.339816 -0.134754 0.000455
v -15.339816 -0.134754 0.000455
v -15.339816 -0.134754 9.375461
v -15.339816 -0.134754 9.375461
v -15.039816 -6.745498 0.000455
v -14.908244 -6.745498 0.000455
v -14.908244 -6.745498 0.000455
v -14.908244 -6.745498 3.336256
v -14.908244 -6.745498 3.336256
v -14.908244 -6.745498 3.336256
v -15.147349 -6.745498 3.336256
v -15.147349 -6.745498 3.336256
v -15.147349 -6.745498 0.000455
v -14.908244 -6.909297 0.000455
v -14.908244 -6.909297 0.000455
v -14.908244 -6.909297 3.500056
v -14.908244 -6.909297 3.500056
v -14.908244 -6.909297 3.500056
v -14.908244 -3.409701 3.336256
v -14.908244 -3.409701 3.336256
v -14.908244 -3.409701 3.336256
v -14.908244 -3.245902 3.500056
v -14.908244 -3.245902 3.500056
v -14.908244 -3.245902 3.500056
v -14.908244 -3.245902 0.000455
v -14.908244 -3.245902 0.000455
v -14.908244 -3.409701 0.000455
v -14.908244 -3.409701 0.000455
v -14.908244 -1.802655 3.336256
v -14.908244 -1.802655 3.336256
v -14.908244 -1.802655 3.336256
v -14.908244 -1.802655 0.000455
v -14.908244 -1.802655 0.000455
v -14.908244 -1.966454 0.000455
v -14.908244 -1.966454 0.000455
v -14.908244 -1.966454 3.500056
v -14.908244 -1.966454 3.500056
v -14.908244 -1.966454 3.500056
v -14.908244 -0.134754 3.500056
v -14.908244 -0.134754 3.500056
v -14.908244 -0.134754 3.500056
v -14.908244 -0.134754 3.500056
v -14.908244 -0.134754 3.336256
v -14.908244 -0.134754 3.336256
v -14.908244 -0.134754 3.336256
v -14.908244 -0.134754 3.336256
v -15.039816 -0.134754 9.375461
v -15.039816 -0.134754 9.375461
v -15.039816 -0.134754 3.500056
v -15.039816 -0.134754 3.500056
v -15.039816 -0.134754 3.500056
v -15.039816 -0.134754 3.500056
v -15.039816 -1.966454 3.500056
v -15.039816 -1.966454 3.500056
v -15.039816 -1.966454 3.500056
v -15.039816 -3.245902 3.500056
v -15.039816 -3.245902 3.500056
v -15.039816 -3.245902 3.500056
v -15.039816 -1.966454 0.000455
v -15.039816 -1.966454 0.000455
v -15.039816 -3.245902 0.000455
v -15.039816 -3.245902 0.000455
v -15.039816 -7.634758 9.375461
v -15.039816 -6.909297 3.500056
v -15.039816 -6.909297 3.500056
v -15.039816 -6.909297 3.500056
v -15.039816 -7.634758 0.000455
v -15.039816 -6.909297 0.000455
v -15.039816 -6.909297 0.000455
v -15.147349 -3.409701 3.336256
v -15.147349 -3.409701 3.336256
v -15.039816 -3.409701 0.000455
v -15.147349 -3.409701 0.000455
v -15.147349 -1.802655 3.336256
v -15.147349 -1.802655 3.336256
v -15.147349 -1.802655 0.000455
v -15.147349 -0.134754 3.336256
v -15.147349 -0.134754 3.336256
v -15.339816 7.665250 9.375461
v -15.339816 7.665250 9.375461
v -15.339816 7.665250 0.000455
v -15.339816 7.665250 0.000455
v -15.039816 6.475988 0.000455
v -15.147349 6.475988 0.000455
v -15.147349 6.475988 3.336256
v -15.147349 6.475988 3.336256
v -14.908244 6.475988 3.336256
v -14.908244 6.475988 3.336256
v -14.908244 6.475988 3.336256
v -14.908244 6.475988 0.000455
v -14.908244 6.475988 0.000455
v -14.908244 6.639788 0.000455
v -14.908244 6.639788 0.000455
v -14.908244 6.639788 3.500056
v -14.908244 6.639788 3.500056
v -14.908244 6.639788 3.500056
v -14.908244 2.976393 3.500056
v -14.908244 2.976393 3.500056
v -14.908244 2.976393 3.500056
v -14.908244 3.140191 3.336256
v -14.908244 3.140191 3.336256
v -14.908244 3.140191 3.336256
v -14.908244 2.976393 0.000455
v -14.908244 2.976393 0.000455
v -14.908244 3.140191 0.000455
v -14.908244 3.140191 0.000455
v -14.908244 1.696946 0.000455
v -14.908244 1.696946 0.000455
v -14.908244 1.533147 0.000455
v -14.908244 1.533147 0.000455
v -14.908244 1.533147 3.336256
v -14.908244 1.533147 3.336256
v -14.908244 1.533147 3.336256
v -14.908244 1.696946 3.500056
v -14.908244 1.696946 3.500056
v -14.908244 1.696946 3.500056
v -15.039816 1.696946 3.500056
v -15.039816 1.696946 3.500056
v -15.039816 1.696946 3.500056
v -15.039816 2.976393 3.500056
v -15.039816 2.976393 3.500056
v -15.039816 2.976393 3.500056
v -15.039816 1.696946 0.000455
v -15.039816 1.696946 0.000455
v -15.039816 2.976393 0.000455
v -15.039816 2.976393 0.000455
v -15.039816 7.365249 9.375461
v -15.039816 6.639788 3.500056
v -15.039816 6.639788 3.500056
v -15.039816 6.639788 3.500056
v -15.039816 7.365249 0.000455
v -15.039816 6.639788 0.000455
v -15.039816 6.639788 0.000455
v -15.147349 3.140191 3.336256
v -15.147349 3.140191 3.336256
v -15.039816 3.140191 0.000455
v -15.147349 3.140191 0.000455
v -15.147349 1.533147 3.336256
v -15.147349 1.533147 3.336256
v -15.147349 1.533147 0.000455
v 15.260178 -7.934756 9.375461
v 15.260178 -0.134752 9.375461
v 15.260178 -0.134752 9.375461
v 15.260178 -0.134752 0.000455
v 15.260178 -0.134752 0.000455
v 15.260178 -7.934756 0.000455
v 14.960178 -7.634756 9.375461
v 14.960178 -0.134752 4.687957
v 14.960178 -0.134752 4.687957
v 14.960178 -0.134752 9.375461
v 14.960178 -0.134752 9.375461
v 14.960178 -7.634756 4.687957
v 14.960178 -7.634756 0.000455
v 14.960178 -0.134752 0.000455
v 14.960178 -0.134752 0.000455
v 15.260178 7.665250 9.375461
v 15.260178 7.665250 0.000455
v 14.960178 7.365251 9.375461
v 14.960178 7.365251 4.687957
v 14.960178 7.365251 0.000455
v 7.460159 7.665250 0.000455
v 7.460159 7.665250 9.375461
v 11.210159 7.665250 0.000455
v 11.210159 7.665250 0.000455
v 11.210159 7.665250 9.375461
v 11.210159 7.665250 9.375461
v 15.260146 7.665250 9.375461
v 15.260146 7.665250 0.000455
v 3.710166 7.665250 9.375461
v 3.710166 7.665250 0.000455
v -0.039835 7.665250 0.000455
v -0.039835 7.665250 0.000455
v -0.039835 7.665250 9.375461
v -0.039835 7.665250 9.375461
v -3.789835 7.665250 0.000455
v -3.789835 7.665250 9.375461
v -15.339816 -7.934756 9.375461
v -15.339816 -7.934756 0.000455
v 7.460159 -7.934756 9.375461
v 7.460159 -7.934756 0.000455
v 11.210159 -7.934756 0.000455
v 11.210159 -7.934756 0.000455
v 11.210159 -7.934756 9.375461
v 11.210159 -7.934756 9.375461
v 15.260146 -7.934756 0.000455
v 15.260146 -7.934756 9.375461
v 3.710166 -7.934756 0.000455
v 3.710166 -7.934756 9.375461
v -0.039835 -7.934756 0.000455
v -0.039835 -7.934756 0.000455
v -0.039835 -7.934756 9.375461
v -0.039835 -7.934756 9.375461
v -3.789835 -7.934756 9.375461
v -3.789835 -7.934756 0.000455
vt 0.836473 0.006968
vt 0.836473 0.006968
vt 0.836440 0.256514
vt 0.836473 0.006968
vt 0.836440 0.256514
vt 0.836473 0.152478
vt 0.836473 0.152478
vt 0.836473 0.152478
vt 0.836473 0.152478
vt 0.836473 0.152478
vt 0.840625 0.152478
vt 0.840625 0.152478
vt 0.840625 0.152478
vt 0.824371 0.938254
vt 0.840625 0.004898
vt 0.840599 0.258986
vt 0.840599 0.258986
vt 0.898271 0.937537
vt 0.840625 0.259114
vt 0.840625 0.259114
vt 0.840599 0.004402
vt 0.840599 0.004402
vt 0.823840 0.883558
vt 0.836473 0.256630
vt 0.836440 0.006834
vt 0.836440 0.006834
vt 0.836473 0.256630
vt 0.836473 0.006968
vt 0.836473 0.006968
vt 0.836440 0.256514
vt 0.836473 0.006968
vt 0.836440 0.256514
vt 0.836473 0.152478
vt 0.836473 0.152478
vt 0.836473 0.152478
vt 0.836473 0.152478
vt 0.836473 0.152478
vt 0.840625 0.152478
vt 0.840625 0.152478
vt 0.840625 0.152478
vt 0.824371 0.938254
vt 0.840625 0.004898
vt 0.840599 0.258986
vt 0.840599 0.258986
vt 0.898271 0.937537
vt 0.840625 0.259114
vt 0.840625 0.259114
vt 0.840599 0.004402
vt 0.840599 0.004402
vt 0.823840 0.883558
vt 0.836473 0.256630
vt 0.836440 0.006834
vt 0.836440 0.006834
vt 0.836473 0.256630
vt 0.840599 0.004402
vt 0.840599 0.004402
vt 0.840625 0.259114
vt 0.840625 0.259114
vt 0.823840 0.883558
vt 0.823840 0.883558
vt 0.836440 0.006834
vt 0.836473 0.256630
vt 0.836440 0.006834
vt 0.836473 0.256630
vt 0.836440 0.152494
vt 0.836440 0.152494
vt 0.836440 0.152494
vt 0.836440 0.152494
vt 0.836440 0.152494
vt 0.836440 0.152494
vt 0.840599 0.152494
vt 0.840599 0.152494
vt 0.897739 0.882840
vt 0.897739 0.882840
vt 0.840599 0.258986
vt 0.840599 0.258986
vt 0.840625 0.004898
vt 0.898271 0.937537
vt 0.836440 0.256514
vt 0.836473 0.006968
vt 0.836473 0.006968
vt 0.836473 0.006968
vt 0.836440 0.256514
vt 0.840625 0.152478
vt 0.840625 0.152478
vt 0.840625 0.152478
vt 0.824371 0.938254
vt 0.836473 0.152478
vt 0.836473 0.152478
vt 0.836473 0.152478
vt 0.836473 0.152478
vt 0.836473 0.152478
vt 0.840599 0.004402
vt 0.840599 0.004402
vt 0.840625 0.259114
vt 0.840625 0.259114
vt 0.823840 0.883558
vt 0.840599 0.152494
vt 0.840599 0.152494
vt 0.897739 0.882840
vt 0.836440 0.152494
vt 0.836440 0.152494
vt 0.836440 0.152494
vt 0.836440 0.152494
vt 0.836440 0.152494
vt 0.836440 0.152494
vt 0.836440 0.006834
vt 0.836473 0.256630
vt 0.836440 0.006834
vt 0.836473 0.256630
vt 0.840625 0.152478
vt 0.840625 0.152478
vt 0.840625 0.152478
vt 0.824371 0.938254
vt 0.836473 0.006968
vt 0.836473 0.006968
vt 0.836440 0.256514
vt 0.836473 0.006968
vt 0.836440 0.256514
vt 0.840625 0.004898
vt 0.840599 0.258986
vt 0.840599 0.258986
vt 0.898271 0.937537
vt 0.836473 0.152478
vt 0.836473 0.152478
vt 0.836473 0.152478
vt 0.836473 0.152478
vt 0.836473 0.152478
vt 0.840599 0.004402
vt 0.840599 0.004402
vt 0.840625 0.259114
vt 0.840625 0.259114
vt 0.823840 0.883558
vt 0.840599 0.152494
vt 0.840599 0.152494
vt 0.897739 0.882840
vt 0.836440 0.152494
vt 0.836440 0.152494
vt 0.836440 0.152494
vt 0.836440 0.152494
vt 0.836440 0.152494
vt 0.836440 0.152494
vt 0.836440 0.006834
vt 0.836473 0.256630
vt 0.836440 0.006834
vt 0.836473 0.256630
vt 0.840625 0.152478
vt 0.840625 0.152478
vt 0.840625 0.152478
vt 0.824371 0.938254
vt 0.836473 0.006968
vt 0.836473 0.006968
vt 0.836440 0.256514
vt 0.836473 0.006968
vt 0.836440 0.256514
vt 0.840625 0.004898
vt 0.840599 0.258986
vt 0.840599 0.258986
vt 0.898271 0.937537
vt 0.836473 0.152478
vt 0.836473 0.152478
vt 0.836473 0.152478
vt 0.836473 0.152478
vt 0.836473 0.152478
vt 0.836440 0.152494
vt 0.836440 0.152494
vt 0.836440 0.152494
vt 0.836440 0.152494
vt 0.836440 0.152494
vt 0.836440 0.152494
vt 0.840599 0.152494
vt 0.840599 0.152494
vt 0.897739 0.882840
vt 0.836440 0.152494
vt 0.836440 0.152494
vt 0.836440 0.152494
vt 0.836440 0.152494
vt 0.836440 0.152494
vt 0.836440 0.152494
vt 0.840599 0.152494
vt 0.840599 0.152494
vt 0.897739 0.882840
vt 0.840599 0.004402
vt 0.840599 0.004402
vt 0.840625 0.259114
vt 0.840625 0.259114
vt 0.823840 0.883558
vt 0.840599 0.152494
vt 0.840599 0.152494
vt 0.897739 0.882840
vt 0.836440 0.152494
vt 0.836440 0.152494
vt 0.836440 0.152494
vt 0.836440 0.152494
vt 0.836440 0.152494
vt 0.836440 0.152494
vt 0.836440 0.006834
vt 0.836473 0.256630
vt 0.836440 0.006834
vt 0.836473 0.256630
vt 0.840625 0.152478
vt 0.840625 0.152478
vt 0.840625 0.152478
vt 0.824371 0.938254
vt 0.836473 0.006968
vt 0.836473 0.006968
vt 0.836440 0.256514
vt 0.836473 0.006968
vt 0.836440 0.256514
vt 0.840625 0.004898
vt 0.840599 0.258986
vt 0.840599 0.258986
vt 0.898271 0.937537
vt 0.836473 0.152478
vt 0.836473 0.152478
vt 0.836473 0.152478
vt 0.836473 0.152478
vt 0.836473 0.152478
vt 0.840625 0.152478
vt 0.840625 0.152478
vt 0.840625 0.152478
vt 0.824371 0.938254
vt 0.824371 0.938254
vt 0.836473 0.006968
vt 0.836473 0.006968
vt 0.836440 0.256514
vt 0.836473 0.006968
vt 0.836440 0.256514
vt 0.840625 0.004898
vt 0.840599 0.258986
vt 0.840599 0.258986
vt 0.898271 0.937537
vt 0.836473 0.152478
vt 0.836473 0.152478
vt 0.836473 0.152478
vt 0.836473 0.152478
vt 0.836473 0.152478
vt 0.840625 0.259114
vt 0.840625 0.259114
vt 0.823840 0.883558
vt 0.823840 0.883558
vt 0.840599 0.004402
vt 0.836473 0.256630
vt 0.836440 0.006834
vt 0.836473 0.256630
vt 0.836440 0.006834
vt 0.836440 0.152494
vt 0.836440 0.152494
vt 0.836440 0.152494
vt 0.836440 0.152494
vt 0.836440 0.152494
vt 0.840599 0.152494
vt 0.897739 0.882840
vt 0.840599 0.152494
vt 0.840625 0.004898
vt 0.840599 0.258986
vt 0.840599 0.258986
vt 0.898271 0.937537
vt 0.836473 0.006968
vt 0.836473 0.006968
vt 0.836440 0.256514
vt 0.836473 0.006968
vt 0.836440 0.256514
vt 0.840625 0.152478
vt 0.840625 0.152478
vt 0.840625 0.152478
vt 0.824371 0.938254
vt 0.836473 0.152478
vt 0.836473 0.152478
vt 0.836473 0.152478
vt 0.836473 0.152478
vt 0.836473 0.152478
vt 0.840625 0.259114
vt 0.840625 0.259114
vt 0.840599 0.004402
vt 0.823840 0.883558
vt 0.836473 0.256630
vt 0.836440 0.006834
vt 0.836473 0.256630
vt 0.836440 0.006834
vt 0.836440 0.152494
vt 0.836440 0.152494
vt 0.836440 0.152494
vt 0.836440 0.152494
vt 0.836440 0.152494
vt 0.840599 0.152494
vt 0.840599 0.152494
vt 0.897739 0.882840
vt 0.840625 0.004898
vt 0.840599 0.258986
vt 0.840599 0.258986
vt 0.898271 0.937537
vt 0.836473 0.006968
vt 0.836473 0.006968
vt 0.836440 0.256514
vt 0.836473 0.006968
vt 0.836440 0.256514
vt 0.840625 0.152478
vt 0.840625 0.152478
vt 0.840625 0.152478
vt 0.824371 0.938254
vt 0.836473 0.152478
vt 0.836473 0.152478
vt 0.836473 0.152478
vt 0.836473 0.152478
vt 0.836473 0.152478
vt 0.840625 0.259114
vt 0.840625 0.259114
vt 0.840599 0.004402
vt 0.823840 0.883558
vt 0.836473 0.256630
vt 0.836440 0.006834
vt 0.836473 0.256630
vt 0.836440 0.006834
vt 0.836440 0.152494
vt 0.836440 0.152494
vt 0.836440 0.152494
vt 0.836440 0.152494
vt 0.836440 0.152494
vt 0.840599 0.152494
vt 0.840599 0.152494
vt 0.897739 0.882840
vt 0.840599 0.004402
vt 0.840599 0.004402
vt 0.840625 0.259114
vt 0.840625 0.259114
vt 0.823840 0.883558
vt 0.840599 0.152494
vt 0.840599 0.152494
vt 0.897739 0.882840
vt 0.836440 0.152494
vt 0.836440 0.152494
vt 0.836440 0.152494
vt 0.836440 0.152494
vt 0.836440 0.152494
vt 0.836440 0.152494
vt 0.836440 0.006834
vt 0.836473 0.256630
vt 0.836440 0.006834
vt 0.836473 0.256630
vt 0.840625 0.152478
vt 0.840625 0.152478
vt 0.840625 0.152478
vt 0.824371 0.938254
vt 0.836473 0.006968
vt 0.836473 0.006968
vt 0.836440 0.256514
vt 0.836473 0.006968
vt 0.836440 0.256514
vt 0.840625 0.004898
vt 0.840599 0.258986
vt 0.840599 0.258986
vt 0.898271 0.937537
vt 0.836473 0.152478
vt 0.836473 0.152478
vt 0.836473 0.152478
vt 0.836473 0.152478
vt 0.836473 0.152478
vt 0.840625 0.152478
vt 0.840625 0.152478
vt 0.840625 0.152478
vt 0.824371 0.938254
vt 0.836473 0.006968
vt 0.836473 0.006968
vt 0.836440 0.256514
vt 0.836473 0.006968
vt 0.836440 0.256514
vt 0.840625 0.004898
vt 0.840599 0.258986
vt 0.840599 0.258986
vt 0.898271 0.937537
vt 0.836473 0.152478
vt 0.836473 0.152478
vt 0.836473 0.152478
vt 0.836473 0.152478
vt 0.836473 0.152478
vt 0.840625 0.259114
vt 0.840625 0.259114
vt 0.840599 0.004402
vt 0.823840 0.883558
vt 0.836473 0.256630
vt 0.836440 0.006834
vt 0.836473 0.256630
vt 0.836440 0.006834
vt 0.836440 0.152494
vt 0.836440 0.152494
vt 0.836440 0.152494
vt 0.836440 0.152494
vt 0.836440 0.152494
vt 0.840599 0.152494
vt 0.840599 0.152494
vt 0.897739 0.882840
vt 0.840599 0.004402
vt 0.840599 0.004402
vt 0.840625 0.259114
vt 0.840625 0.259114
vt 0.823840 0.883558
vt 0.836440 0.152494
vt 0.836440 0.152494
vt 0.836440 0.152494
vt 0.836440 0.152494
vt 0.836440 0.152494
vt 0.836440 0.152494
vt 0.840599 0.152494
vt 0.840599 0.152494
vt 0.897739 0.882840
vt 0.836440 0.006834
vt 0.836473 0.256630
vt 0.836440 0.006834
vt 0.836473 0.256630
vt 0.840625 0.004898
vt 0.840599 0.258986
vt 0.840599 0.258986
vt 0.898271 0.937537
vt 0.836473 0.006968
vt 0.836473 0.006968
vt 0.836440 0.256514
vt 0.836473 0.006968
vt 0.836440 0.256514
vt 0.840625 0.152478
vt 0.840625 0.152478
vt 0.840625 0.152478
vt 0.824371 0.938254
vt 0.836473 0.152478
vt 0.836473 0.152478
vt 0.836473 0.152478
vt 0.836473 0.152478
vt 0.836473 0.152478
vt 0.814396 0.981440
vt 0.814396 0.981440
vt 0.909081 0.980520
vt 0.909081 0.980520
vt 0.909081 0.980520
vt 0.812098 0.744727
vt 0.906783 0.743808
vt 0.906783 0.743808
vt 0.404183 0.005561
vt 0.207318 0.005993
vt 0.207318 0.005993
vt 0.207857 0.252074
vt 0.207857 0.252074
vt 0.404722 0.251642
vt 0.383208 0.294468
vt 0.819395 0.003204
vt 0.819455 0.260541
vt 0.229559 0.294805
vt 0.819395 0.152494
vt 0.819395 0.152494
vt 0.383458 0.408191
vt 0.819456 0.152478
vt 0.819456 0.152478
vt 0.405262 0.497723
vt 0.229808 0.408528
vt 0.819456 0.003115
vt 0.819395 0.260430
vt 0.208397 0.498155
vt 0.208397 0.498155
vt 0.825197 0.152494
vt 0.825197 0.152494
vt 0.825197 0.152494
vt 0.825197 0.006834
vt 0.825242 0.256630
vt 0.825197 0.006834
vt 0.825242 0.256630
vt 0.825242 0.006968
vt 0.825197 0.256514
vt 0.825197 0.256514
vt 0.825242 0.006968
vt 0.825242 0.152478
vt 0.825242 0.152478
vt 0.825242 0.152478
vt 0.822086 0.003204
vt 0.822145 0.260541
vt 0.822086 0.003204
vt 0.822145 0.260541
vt 0.822086 0.152494
vt 0.822086 0.152494
vt 0.822086 0.152494
vt 0.822145 0.003115
vt 0.822086 0.260430
vt 0.822086 0.260430
vt 0.822145 0.003115
vt 0.822145 0.152478
vt 0.822145 0.152478
vt 0.822145 0.152478
vt 0.404722 0.251642
vt 0.404183 0.005561
vt 0.383208 0.294468
vt 0.819395 0.003204
vt 0.819455 0.260541
vt 0.383458 0.408191
vt 0.819456 0.152478
vt 0.819456 0.152478
vt 0.229559 0.294805
vt 0.819395 0.152494
vt 0.819395 0.152494
vt 0.405262 0.497723
vt 0.229808 0.408528
vt 0.819456 0.003115
vt 0.819395 0.260430
vt 0.825197 0.006834
vt 0.825242 0.256630
vt 0.825197 0.006834
vt 0.825242 0.256630
vt 0.825197 0.152494
vt 0.825197 0.152494
vt 0.825197 0.152494
vt 0.825242 0.006968
vt 0.825197 0.256514
vt 0.825197 0.256514
vt 0.825242 0.006968
vt 0.825242 0.152478
vt 0.825242 0.152478
vt 0.825242 0.152478
vt 0.822086 0.003204
vt 0.822145 0.260541
vt 0.822086 0.003204
vt 0.822145 0.260541
vt 0.822086 0.152494
vt 0.822086 0.152494
vt 0.822086 0.152494
vt 0.822145 0.152478
vt 0.822145 0.152478
vt 0.822145 0.152478
vt 0.822145 0.003115
vt 0.822086 0.260430
vt 0.822086 0.260430
vt 0.822145 0.003115
vt 0.207857 0.252074
vt 0.207857 0.252074
vt 0.207318 0.005993
vt 0.207318 0.005993
vt 0.404183 0.005561
vt 0.404722 0.251642
vt 0.383208 0.294468
vt 0.819395 0.003204
vt 0.819455 0.260541
vt 0.383458 0.408191
vt 0.819456 0.152478
vt 0.819456 0.152478
vt 0.229559 0.294805
vt 0.819395 0.152494
vt 0.819395 0.152494
vt 0.405262 0.497723
vt 0.229808 0.408528
vt 0.819456 0.003115
vt 0.819395 0.260430
vt 0.208397 0.498155
vt 0.208397 0.498155
vt 0.825197 0.006834
vt 0.825242 0.256630
vt 0.825197 0.006834
vt 0.825242 0.256630
vt 0.825197 0.152494
vt 0.825197 0.152494
vt 0.825197 0.152494
vt 0.825242 0.006968
vt 0.825197 0.256514
vt 0.825197 0.256514
vt 0.825242 0.006968
vt 0.825242 0.152478
vt 0.825242 0.152478
vt 0.825242 0.152478
vt 0.822086 0.003204
vt 0.822145 0.260541
vt 0.822086 0.003204
vt 0.822145 0.260541
vt 0.822086 0.152494
vt 0.822086 0.152494
vt 0.822086 0.152494
vt 0.822145 0.152478
vt 0.822145 0.152478
vt 0.822145 0.152478
vt 0.822145 0.003115
vt 0.822086 0.260430
vt 0.822086 0.260430
vt 0.822145 0.003115
vt 0.404722 0.251642
vt 0.404183 0.005561
vt 0.383208 0.294468
vt 0.819395 0.003204
vt 0.819455 0.260541
vt 0.229559 0.294805
vt 0.819395 0.152494
vt 0.819395 0.152494
vt 0.383458 0.408191
vt 0.819456 0.152478
vt 0.819456 0.152478
vt 0.405262 0.497723
vt 0.229808 0.408528
vt 0.819456 0.003115
vt 0.819395 0.260430
vt 0.825197 0.152494
vt 0.825197 0.152494
vt 0.825197 0.152494
vt 0.825197 0.006834
vt 0.825242 0.256630
vt 0.825197 0.006834
vt 0.825242 0.256630
vt 0.825242 0.006968
vt 0.825197 0.256514
vt 0.825197 0.256514
vt 0.825242 0.006968
vt 0.825242 0.152478
vt 0.825242 0.152478
vt 0.825242 0.152478
vt 0.822086 0.003204
vt 0.822145 0.260541
vt 0.822086 0.003204
vt 0.822145 0.260541
vt 0.822086 0.152494
vt 0.822086 0.152494
vt 0.822086 0.152494
vt 0.822145 0.003115
vt 0.822086 0.260430
vt 0.822086 0.260430
vt 0.822145 0.003115
vt 0.822145 0.152478
vt 0.822145 0.152478
vt 0.822145 0.152478
vt 0.741782 0.512552
vt 0.654354 0.742417
vt 0.745677 0.740859
vt 0.650459 0.514110
vt 0.005302 0.251139
vt 0.202159 0.005068
vt 0.005302 0.005068
vt 0.202159 0.251139
vt 0.005302 0.497210
vt 0.202159 0.497210
vt 0.745677 0.740859
vt 0.654354 0.742417
vt 0.741782 0.512552
vt 0.650459 0.514110
vt 0.005302 0.251139
vt 0.005302 0.005068
vt 0.202159 0.005068
vt 0.202159 0.251139
vt 0.005302 0.497210
vt 0.202159 0.497210
vt 0.404183 0.005561
vt 0.207318 0.005993
vt 0.207318 0.005993
vt 0.207857 0.252074
vt 0.207857 0.252074
vt 0.404722 0.251642
vt 0.383208 0.294468
vt 0.819395 0.003204
vt 0.819455 0.260541
vt 0.229559 0.294805
vt 0.819395 0.152494
vt 0.819395 0.152494
vt 0.383458 0.408191
vt 0.819456 0.152478
vt 0.819456 0.152478
vt 0.405262 0.497723
vt 0.229808 0.408528
vt 0.819456 0.003115
vt 0.819395 0.260430
vt 0.208397 0.498155
vt 0.208397 0.498155
vt 0.825197 0.152494
vt 0.825197 0.152494
vt 0.825197 0.152494
vt 0.825197 0.006834
vt 0.825242 0.256630
vt 0.825197 0.006834
vt 0.825242 0.256630
vt 0.825242 0.006968
vt 0.825197 0.256514
vt 0.825197 0.256514
vt 0.825242 0.006968
vt 0.825242 0.152478
vt 0.825242 0.152478
vt 0.825242 0.152478
vt 0.822086 0.003204
vt 0.822145 0.260541
vt 0.822086 0.003204
vt 0.822145 0.260541
vt 0.822086 0.152494
vt 0.822086 0.152494
vt 0.822086 0.152494
vt 0.822145 0.003115
vt 0.822086 0.260430
vt 0.822086 0.260430
vt 0.822145 0.003115
vt 0.822145 0.152478
vt 0.822145 0.152478
vt 0.822145 0.152478
vt 0.404722 0.251642
vt 0.404183 0.005561
vt 0.383208 0.294468
vt 0.819395 0.003204
vt 0.819455 0.260541
vt 0.383458 0.408191
vt 0.819456 0.152478
vt 0.819456 0.152478
vt 0.229559 0.294805
vt 0.819395 0.152494
vt 0.819395 0.152494
vt 0.405262 0.497723
vt 0.229808 0.408528
vt 0.819456 0.003115
vt 0.819395 0.260430
vt 0.825197 0.006834
vt 0.825242 0.256630
vt 0.825197 0.006834
vt 0.825242 0.256630
vt 0.825197 0.152494
vt 0.825197 0.152494
vt 0.825197 0.152494
vt 0.825242 0.006968
vt 0.825197 0.256514
vt 0.825197 0.256514
vt 0.825242 0.006968
vt 0.825242 0.152478
vt 0.825242 0.152478
vt 0.825242 0.152478
vt 0.822086 0.003204
vt 0.822145 0.260541
vt 0.822086 0.003204
vt 0.822145 0.260541
vt 0.822086 0.152494
vt 0.822086 0.152494
vt 0.822086 0.152494
vt 0.822145 0.152478
vt 0.822145 0.152478
vt 0.822145 0.152478
vt 0.822145 0.003115
vt 0.822086 0.260430
vt 0.822086 0.260430
vt 0.822145 0.003115
vt 0.812098 0.744727
vt 0.812098 0.744727
vt 0.814396 0.981440
vt 0.814396 0.981440
vt 0.906783 0.743808
vt 0.906783 0.743808
vt 0.909081 0.980520
vt 0.909081 0.980520
vt 0.207857 0.252074
vt 0.207857 0.252074
vt 0.207318 0.005993
vt 0.207318 0.005993
vt 0.404183 0.005561
vt 0.404722 0.251642
vt 0.383208 0.294468
vt 0.819395 0.003204
vt 0.819455 0.260541
vt 0.383458 0.408191
vt 0.819456 0.152478
vt 0.819456 0.152478
vt 0.229559 0.294805
vt 0.819395 0.152494
vt 0.819395 0.152494
vt 0.405262 0.497723
vt 0.229808 0.408528
vt 0.819456 0.003115
vt 0.819395 0.260430
vt 0.208397 0.498155
vt 0.208397 0.498155
vt 0.825197 0.152494
vt 0.825197 0.152494
vt 0.825197 0.152494
vt 0.825197 0.006834
vt 0.825242 0.256630
vt 0.825197 0.006834
vt 0.825242 0.256630
vt 0.825242 0.006968
vt 0.825197 0.256514
vt 0.825197 0.256514
vt 0.825242 0.006968
vt 0.825242 0.152478
vt 0.825242 0.152478
vt 0.825242 0.152478
vt 0.822086 0.152494
vt 0.822086 0.152494
vt 0.822086 0.152494
vt 0.822086 0.003204
vt 0.822145 0.260541
vt 0.822086 0.003204
vt 0.822145 0.260541
vt 0.822145 0.003115
vt 0.822086 0.260430
vt 0.822086 0.260430
vt 0.822145 0.003115
vt 0.822145 0.152478
vt 0.822145 0.152478
vt 0.822145 0.152478
vt 0.404722 0.251642
vt 0.404183 0.005561
vt 0.383208 0.294468
vt 0.819395 0.003204
vt 0.819455 0.260541
vt 0.229559 0.294805
vt 0.819395 0.152494
vt 0.819395 0.152494
vt 0.383458 0.408191
vt 0.819456 0.152478
vt 0.819456 0.152478
vt 0.405262 0.497723
vt 0.229808 0.408528
vt 0.819456 0.003115
vt 0.819395 0.260430
vt 0.825197 0.152494
vt 0.825197 0.152494
vt 0.825197 0.152494
vt 0.825197 0.006834
vt 0.825242 0.256630
vt 0.825197 0.006834
vt 0.825242 0.256630
vt 0.825242 0.152478
vt 0.825242 0.152478
vt 0.825242 0.152478
vt 0.825242 0.006968
vt 0.825197 0.256514
vt 0.825197 0.256514
vt 0.825242 0.006968
vt 0.822086 0.003204
vt 0.822145 0.260541
vt 0.822086 0.003204
vt 0.822145 0.260541
vt 0.822086 0.152494
vt 0.822086 0.152494
vt 0.822086 0.152494
vt 0.822145 0.003115
vt 0.822086 0.260430
vt 0.822086 0.260430
vt 0.822145 0.003115
vt 0.822145 0.152478
vt 0.822145 0.152478
vt 0.822145 0.152478
vt 0.404183 0.005561
vt 0.207318 0.005993
vt 0.207318 0.005993
vt 0.207857 0.252074
vt 0.207857 0.252074
vt 0.404722 0.251642
vt 0.383208 0.294468
vt 0.819395 0.003204
vt 0.819455 0.260541
vt 0.229559 0.294805
vt 0.819395 0.152494
vt 0.819395 0.152494
vt 0.383458 0.408191
vt 0.819456 0.152478
vt 0.819456 0.152478
vt 0.405262 0.497723
vt 0.229808 0.408528
vt 0.819456 0.003115
vt 0.819395 0.260430
vt 0.208397 0.498155
vt 0.208397 0.498155
vt 0.825197 0.152494
vt 0.825197 0.152494
vt 0.825197 0.152494
vt 0.825197 0.006834
vt 0.825242 0.256630
vt 0.825197 0.006834
vt 0.825242 0.256630
vt 0.825242 0.152478
vt 0.825242 0.152478
vt 0.825242 0.152478
vt 0.825242 0.006968
vt 0.825197 0.256514
vt 0.825197 0.256514
vt 0.825242 0.006968
vt 0.822086 0.003204
vt 0.822145 0.260541
vt 0.822086 0.003204
vt 0.822145 0.260541
vt 0.822086 0.152494
vt 0.822086 0.152494
vt 0.822086 0.152494
vt 0.822145 0.003115
vt 0.822086 0.260430
vt 0.822086 0.260430
vt 0.822145 0.003115
vt 0.822145 0.152478
vt 0.822145 0.152478
vt 0.822145 0.152478
vt 0.404722 0.251642
vt 0.404183 0.005561
vt 0.383208 0.294468
vt 0.819395 0.003204
vt 0.819455 0.260541
vt 0.383458 0.408191
vt 0.819456 0.152478
vt 0.819456 0.152478
vt 0.229559 0.294805
vt 0.819395 0.152494
vt 0.819395 0.152494
vt 0.405262 0.497723
vt 0.229808 0.408528
vt 0.819456 0.003115
vt 0.819395 0.260430
vt 0.825197 0.152494
vt 0.825197 0.152494
vt 0.825197 0.152494
vt 0.825197 0.006834
vt 0.825242 0.256630
vt 0.825197 0.006834
vt 0.825242 0.256630
vt 0.825242 0.006968
vt 0.825197 0.256514
vt 0.825197 0.256514
vt 0.825242 0.006968
vt 0.825242 0.152478
vt 0.825242 0.152478
vt 0.825242 0.152478
vt 0.822086 0.152494
vt 0.822086 0.152494
vt 0.822086 0.152494
vt 0.822086 0.003204
vt 0.822145 0.260541
vt 0.822086 0.003204
vt 0.822145 0.260541
vt 0.822145 0.003115
vt 0.822086 0.260430
vt 0.822086 0.260430
vt 0.822145 0.003115
vt 0.822145 0.152478
vt 0.822145 0.152478
vt 0.822145 0.152478
vt 0.745677 0.740859
vt 0.654354 0.742417
vt 0.741782 0.512552
vt 0.650459 0.514110
vt 0.005302 0.251139
vt 0.005302 0.005068
vt 0.202159 0.005068
vt 0.202159 0.251139
vt 0.005302 0.497210
vt 0.202159 0.497210
vt 0.741782 0.512552
vt 0.654354 0.742417
vt 0.745677 0.740859
vt 0.650459 0.514110
vt 0.005302 0.251139
vt 0.202159 0.005068
vt 0.005302 0.005068
vt 0.202159 0.251139
vt 0.005302 0.497210
vt 0.202159 0.497210
vt 0.207857 0.252074
vt 0.207857 0.252074
vt 0.207318 0.005993
vt 0.207318 0.005993
vt 0.404183 0.005561
vt 0.404722 0.251642
vt 0.383208 0.294468
vt 0.819395 0.003204
vt 0.819455 0.260541
vt 0.383458 0.408191
vt 0.819456 0.152478
vt 0.819456 0.152478
vt 0.229559 0.294805
vt 0.819395 0.152494
vt 0.819395 0.152494
vt 0.405262 0.497723
vt 0.229808 0.408528
vt 0.819456 0.003115
vt 0.819395 0.260430
vt 0.208397 0.498155
vt 0.208397 0.498155
vt 0.825197 0.152494
vt 0.825197 0.152494
vt 0.825197 0.152494
vt 0.825197 0.006834
vt 0.825242 0.256630
vt 0.825197 0.006834
vt 0.825242 0.256630
vt 0.825242 0.006968
vt 0.825197 0.256514
vt 0.825197 0.256514
vt 0.825242 0.006968
vt 0.825242 0.152478
vt 0.825242 0.152478
vt 0.825242 0.152478
vt 0.822086 0.152494
vt 0.822086 0.152494
vt 0.822086 0.152494
vt 0.822086 0.003204
vt 0.822145 0.260541
vt 0.822086 0.003204
vt 0.822145 0.260541
vt 0.822145 0.003115
vt 0.822086 0.260430
vt 0.822086 0.260430
vt 0.822145 0.003115
vt 0.822145 0.152478
vt 0.822145 0.152478
vt 0.822145 0.152478
vt 0.404722 0.251642
vt 0.404183 0.005561
vt 0.383208 0.294468
vt 0.819395 0.003204
vt 0.819455 0.260541
vt 0.229559 0.294805
vt 0.819395 0.152494
vt 0.819395 0.152494
vt 0.383458 0.408191
vt 0.819456 0.152478
vt 0.819456 0.152478
vt 0.405262 0.497723
vt 0.229808 0.408528
vt 0.819456 0.003115
vt 0.819395 0.260430
vt 0.825197 0.152494
vt 0.825197 0.152494
vt 0.825197 0.152494
vt 0.825197 0.006834
vt 0.825242 0.256630
vt 0.825197 0.006834
vt 0.825242 0.256630
vt 0.825242 0.152478
vt 0.825242 0.152478
vt 0.825242 0.152478
vt 0.825242 0.006968
vt 0.825197 0.256514
vt 0.825197 0.256514
vt 0.825242 0.006968
vt 0.822086 0.003204
vt 0.822145 0.260541
vt 0.822086 0.003204
vt 0.822145 0.260541
vt 0.822086 0.152494
vt 0.822086 0.152494
vt 0.822086 0.152494
vt 0.822145 0.003115
vt 0.822086 0.260430
vt 0.822086 0.260430
vt 0.822145 0.003115
vt 0.822145 0.152478
vt 0.822145 0.152478
vt 0.822145 0.152478
vt 0.607112 0.755015
vt 0.607112 0.983172
vt 0.796939 0.983172
vt 0.796939 0.983172
vt 0.796939 0.755015
vt 0.796939 0.755015
vt 0.941366 0.187448
vt 0.948317 0.187448
vt 0.591302 0.509934
vt 0.948317 0.011216
vt 0.415070 0.509934
vt 0.891369 0.203286
vt 0.935685 0.011216
vt 0.878737 0.203286
vt 0.935685 0.187448
vt 0.591302 0.501281
vt 0.904544 0.023722
vt 0.406416 0.501280
vt 0.852154 0.021855
vt 0.904544 0.208607
vt 0.415069 0.686166
vt 0.891369 0.027056
vt 0.926105 0.199647
vt 0.406416 0.694820
vt 0.852154 0.215391
vt 0.897593 0.208607
vt 0.591302 0.694820
vt 0.897593 0.023722
vt 0.591302 0.686166
vt 0.926105 0.023415
vt 0.871315 0.295871
vt 0.878737 0.203286
vt 0.874602 0.110702
vt 0.871315 0.119639
vt 0.878737 0.027056
vt 0.862661 0.119639
vt 0.904544 0.023722
vt 0.862661 0.304525
vt 0.904544 0.208607
vt 0.878724 0.203274
vt 0.959431 0.304525
vt 0.878724 0.027068
vt 0.959431 0.304525
vt 0.878724 0.027068
vt 0.959431 0.295871
vt 0.874602 0.022587
vt 0.959431 0.295871
vt 0.874602 0.022587
vt 0.396749 0.996349
vt 0.396749 0.996349
vt 0.396749 0.687906
vt 0.891381 0.027068
vt 0.396749 0.687906
vt 0.891381 0.027068
vt 0.300590 0.687906
vt 0.897593 0.208607
vt 0.891381 0.203274
vt 0.233422 0.687906
vt 0.845203 0.215391
vt 0.904544 0.208607
vt 0.300590 0.504186
vt 0.897593 0.023722
vt 0.233422 0.504186
vt 0.904544 0.023722
vt 0.003019 0.996349
vt 0.041104 0.687906
vt 0.845203 0.021855
vt 0.897593 0.208607
vt 0.003019 0.504186
vt 0.041104 0.504186
vt 0.897593 0.023722
vt 0.878737 0.027056
vt 0.913473 0.199647
vt 0.919154 0.023415
vt 0.913473 0.023415
vt 0.891369 0.203286
vt 0.861970 0.110702
vt 0.891369 0.027056
vt 0.861970 0.022587
vt 0.861970 0.022587
vt 0.607112 0.755015
vt 0.814396 0.981440
vt 0.607112 0.983172
vt 0.812098 0.744727
vt 0.941366 0.187448
vt 0.935685 0.187448
vt 0.935685 0.011216
vt 0.878737 0.203286
vt 0.948317 0.011216
vt 0.415070 0.509934
vt 0.891369 0.203286
vt 0.948317 0.187448
vt 0.591302 0.509934
vt 0.591302 0.501281
vt 0.904544 0.023722
vt 0.406416 0.501280
vt 0.852154 0.021855
vt 0.904544 0.208607
vt 0.406416 0.694820
vt 0.852154 0.215391
vt 0.897593 0.208607
vt 0.415069 0.686166
vt 0.891369 0.027056
vt 0.926105 0.199647
vt 0.591302 0.694820
vt 0.897593 0.023722
vt 0.591302 0.686166
vt 0.926105 0.023415
vt 0.862661 0.119639
vt 0.904544 0.023722
vt 0.871315 0.119639
vt 0.878737 0.027056
vt 0.871315 0.295871
vt 0.878737 0.203286
vt 0.874602 0.110702
vt 0.862661 0.304525
vt 0.904544 0.208607
vt 0.878724 0.203274
vt 0.300590 0.687906
vt 0.897593 0.208607
vt 0.891381 0.203274
vt 0.233422 0.687906
vt 0.845203 0.215391
vt 0.904544 0.208607
vt 0.300590 0.504186
vt 0.897593 0.023722
vt 0.233422 0.504186
vt 0.904544 0.023722
vt 0.003019 0.996349
vt 0.041104 0.687906
vt 0.845203 0.021855
vt 0.897593 0.208607
vt 0.003019 0.504186
vt 0.041104 0.504186
vt 0.897593 0.023722
vt 0.878737 0.027056
vt 0.913473 0.199647
vt 0.919154 0.023415
vt 0.913473 0.023415
vt 0.891369 0.203286
vt 0.861970 0.110702
vt 0.891369 0.027056
vt 0.411335 0.982825
vt 0.594614 0.982825
vt 0.594614 0.982825
vt 0.594614 0.762537
vt 0.594614 0.762537
vt 0.411335 0.762537
vt 0.410294 0.004434
vt 0.804024 0.250515
vt 0.804024 0.250515
vt 0.804024 0.004434
vt 0.804024 0.004434
vt 0.410294 0.250515
vt 0.410294 0.496597
vt 0.804024 0.496597
vt 0.804024 0.496597
vt 0.411335 0.982825
vt 0.411335 0.762537
vt 0.410294 0.004434
vt 0.410294 0.250515
vt 0.410294 0.496597
vt 0.812098 0.744727
vt 0.814396 0.981440
vt 0.906783 0.743808
vt 0.906783 0.743808
vt 0.909081 0.980520
vt 0.909081 0.980520
vt 0.814396 0.981440
vt 0.812098 0.744727
vt 0.814396 0.981440
vt 0.812098 0.744727
vt 0.906783 0.743808
vt 0.906783 0.743808
vt 0.909081 0.980520
vt 0.909081 0.980520
vt 0.812098 0.744727
vt 0.814396 0.981440
vt 0.814396 0.981440
vt 0.812098 0.744727
vt 0.814396 0.981440
vt 0.812098 0.744727
vt 0.906783 0.743808
vt 0.906783 0.743808
vt 0.909081 0.980520
vt 0.909081 0.980520
vt 0.812098 0.744727
vt 0.814396 0.981440
vt 0.812098 0.744727
vt 0.814396 0.981440
vt 0.906783 0.743808
vt 0.906783 0.743808
vt 0.909081 0.980520
vt 0.909081 0.980520
vt 0.814396 0.981440
vt 0.812098 0.744727
f 1/1 11/11 6/6
f 15/15 12/12 2/2
f 13/13 19/19 7/7
f 8/8 20/20 24/24
f 28/28 38/38 33/33
f 42/42 39/39 29/29
f 40/40 46/46 34/34
f 35/35 47/47 51/51
f 55/55 65/65 61/61
f 56/56 71/71 66/66
f 72/72 75/75 67/67
f 68/68 76/76 79/79
f 77/77 84/84 80/80
f 81/81 85/85 88/88
f 86/86 57/57 89/89
f 90/90 58/58 62/62
f 93/93 101/101 98/98
f 102/102 94/94 107/107
f 111/111 120/120 115/115
f 112/112 116/116 124/124
f 95/95 113/113 125/125
f 96/96 126/126 108/108
f 121/121 99/99 103/103
f 122/122 104/104 117/117
f 129/129 137/137 134/134
f 138/138 130/130 143/143
f 147/147 156/156 151/151
f 148/148 152/152 160/160
f 131/131 149/149 161/161
f 132/132 162/162 144/144
f 157/157 135/135 139/139
f 158/158 140/140 153/153
f 21/21 171/171 165/165
f 22/22 166/166 25/25
f 167/167 16/16 3/3
f 172/172 17/17 168/168
f 48/48 180/180 174/174
f 49/49 175/175 52/52
f 176/176 43/43 30/30
f 181/181 44/44 177/177
f 183/183 191/191 188/188
f 192/192 184/184 197/197
f 201/201 210/210 205/205
f 202/202 206/206 214/214
f 185/185 203/203 215/215
f 186/186 216/216 198/198
f 211/211 189/189 193/193
f 212/212 194/194 207/207
f 219/219 229/229 224/224
f 220/220 225/225 233/233
f 238/238 221/221 234/234
f 239/239 235/235 243/243
f 230/230 252/252 247/247
f 231/231 248/248 226/226
f 255/255 264/264 259/259
f 260/260 265/265 268/268
f 266/266 273/273 269/269
f 270/270 274/274 277/277
f 281/281 256/256 261/261
f 286/286 257/257 282/282
f 289/289 298/298 293/293
f 294/294 299/299 302/302
f 300/300 307/307 303/303
f 304/304 308/308 311/311
f 315/315 290/290 295/295
f 320/320 291/291 316/316
f 323/323 331/331 328/328
f 332/332 324/324 337/337
f 341/341 350/350 345/345
f 342/342 346/346 354/354
f 325/325 343/343 355/355
f 326/326 356/356 338/338
f 351/351 329/329 333/333
f 352/352 334/334 347/347
f 359/359 368/368 363/363
f 360/360 364/364 372/372
f 377/377 361/361 373/373
f 378/378 374/374 381/381
f 369/369 390/390 385/385
f 370/370 386/386 365/365
f 393/393 404/404 398/398
f 394/394 399/399 407/407
f 411/411 420/420 415/415
f 416/416 421/421 424/424
f 422/422 395/395 425/425
f 426/426 396/396 408/408
f 400/400 412/412 417/417
f 405/405 413/413 401/401
f 429/429 59/59 87/87
f 87/87 78/78 429/429
f 431/431 429/429 78/78
f 73/73 431/431 78/78
f 430/430 434/434 60/60
f 435/435 60/60 434/434
f 60/60 435/435 74/74
f 435/435 432/432 74/74
f 437/437 440/440 438/438
f 440/440 437/437 442/442
f 443/443 440/440 442/442
f 443/443 446/446 440/440
f 442/442 449/449 443/443
f 442/442 452/452 449/449
f 453/453 440/440 446/446
f 452/452 453/453 449/449
f 456/456 440/440 453/453
f 452/452 456/456 453/453
f 458/458 63/63 69/69
f 63/63 458/458 461/461
f 465/465 91/91 469/469
f 91/91 465/465 82/82
f 92/92 64/64 470/470
f 470/470 64/64 462/462
f 466/466 459/459 83/83
f 83/83 459/459 70/70
f 472/472 476/476 447/447
f 472/472 447/447 444/444
f 450/450 454/454 479/479
f 450/450 479/479 483/483
f 484/484 445/445 451/451
f 445/445 484/484 473/473
f 477/477 480/480 455/455
f 455/455 448/448 477/477
f 478/478 474/474 463/463
f 478/478 463/463 460/460
f 481/481 478/478 460/460
f 481/481 460/460 467/467
f 485/485 482/482 468/468
f 485/485 468/468 471/471
f 475/475 485/485 471/471
f 475/475 471/471 464/464
f 486/486 487/487 439/439
f 441/441 486/486 439/439
f 486/486 441/441 488/488
f 491/491 486/486 488/488
f 488/488 441/441 494/494
f 497/497 486/486 491/491
f 441/441 498/498 494/494
f 491/491 498/498 497/497
f 441/441 457/457 498/498
f 457/457 497/497 498/498
f 501/501 505/505 109/109
f 105/105 109/109 505/505
f 508/508 512/512 127/127
f 508/508 127/127 118/118
f 513/513 110/110 128/128
f 110/110 513/513 502/502
f 506/506 509/509 119/119
f 119/119 106/106 506/506
f 515/515 495/495 519/519
f 495/495 515/515 489/489
f 522/522 525/525 492/492
f 499/499 492/492 525/525
f 493/493 490/490 523/523
f 523/523 490/490 516/516
f 526/526 520/520 500/500
f 500/500 520/520 496/496
f 521/521 503/503 517/517
f 503/503 521/521 507/507
f 521/521 527/527 507/507
f 507/507 527/527 510/510
f 528/528 524/524 511/511
f 511/511 524/524 514/514
f 524/524 518/518 514/514
f 514/514 518/518 504/504
f 529/529 533/533 531/531
f 533/533 529/529 534/534
f 534/534 529/529 535/535
f 538/538 534/534 535/535
f 535/535 529/529 541/541
f 544/544 534/534 538/538
f 529/529 545/545 541/541
f 538/538 545/545 544/544
f 529/529 548/548 545/545
f 548/548 544/544 545/545
f 550/550 554/554 145/145
f 141/141 145/145 554/554
f 557/557 561/561 163/163
f 557/557 163/163 154/154
f 562/562 146/146 164/164
f 146/146 562/562 551/551
f 555/555 558/558 155/155
f 155/155 142/142 555/555
f 564/564 542/542 568/568
f 542/542 564/564 536/536
f 571/571 574/574 539/539
f 546/546 539/539 574/574
f 540/540 537/537 572/572
f 572/572 537/537 565/565
f 575/575 569/569 547/547
f 547/547 569/569 543/543
f 570/570 552/552 566/566
f 552/552 570/570 556/556
f 570/570 576/576 556/556
f 556/556 576/576 559/559
f 577/577 573/573 560/560
f 560/560 573/573 563/563
f 573/573 567/567 563/563
f 563/563 567/567 553/553
f 578/578 532/532 579/579
f 530/530 532/532 578/578
f 580/580 530/530 578/578
f 580/580 583/583 530/530
f 578/578 586/586 580/580
f 578/578 589/589 586/586
f 590/590 530/530 583/583
f 589/589 590/590 586/586
f 549/549 530/530 590/590
f 590/590 589/589 549/549
f 593/593 26/26 169/169
f 26/26 593/593 596/596
f 600/600 9/9 604/604
f 9/9 600/600 4/4
f 10/10 27/27 605/605
f 605/605 27/27 597/597
f 601/601 594/594 5/5
f 5/5 594/594 170/170
f 607/607 611/611 584/584
f 607/607 584/584 581/581
f 587/587 591/591 614/614
f 587/587 614/614 618/618
f 619/619 582/582 588/588
f 582/582 619/619 608/608
f 612/612 615/615 592/592
f 592/592 585/585 612/612
f 613/613 609/609 598/598
f 613/613 598/598 595/595
f 616/616 613/613 595/595
f 616/616 595/595 602/602
f 620/620 617/617 603/603
f 620/620 603/603 606/606
f 610/610 620/620 606/606
f 610/610 606/606 599/599
f 621/621 623/623 622/622
f 622/622 624/624 621/621
f 625/625 627/627 626/626
f 628/628 625/625 626/626
f 628/628 629/629 625/625
f 629/629 628/628 630/630
f 631/631 633/633 632/632
f 632/632 633/633 634/634
f 635/635 637/637 636/636
f 637/637 635/635 638/638
f 639/639 638/638 635/635
f 639/639 640/640 638/638
f 641/641 644/644 642/642
f 644/644 641/641 646/646
f 647/647 644/644 646/646
f 647/647 650/650 644/644
f 646/646 653/653 647/647
f 646/646 656/656 653/653
f 657/657 644/644 650/650
f 656/656 657/657 653/653
f 660/660 644/644 657/657
f 657/657 656/656 660/660
f 662/662 53/53 178/178
f 53/53 662/662 665/665
f 669/669 36/36 673/673
f 36/36 669/669 31/31
f 37/37 54/54 674/674
f 674/674 54/54 666/666
f 670/670 663/663 32/32
f 32/32 663/663 179/179
f 676/676 680/680 651/651
f 676/676 651/651 648/648
f 654/654 658/658 683/683
f 654/654 683/683 687/687
f 688/688 649/649 655/655
f 649/649 688/688 677/677
f 681/681 684/684 659/659
f 659/659 652/652 681/681
f 682/682 678/678 667/667
f 682/682 667/667 664/664
f 685/685 682/682 664/664
f 685/685 664/664 671/671
f 689/689 686/686 672/672
f 689/689 672/672 675/675
f 679/679 689/689 675/675
f 679/679 675/675 668/668
f 690/690 691/691 643/643
f 645/645 690/690 643/643
f 690/690 645/645 692/692
f 695/695 690/690 692/692
f 692/692 645/645 698/698
f 701/701 690/690 695/695
f 645/645 702/702 698/698
f 695/695 702/702 701/701
f 645/645 661/661 702/702
f 661/661 701/701 702/702
f 705/705 709/709 199/199
f 195/195 199/199 709/709
f 712/712 716/716 217/217
f 712/712 217/217 208/208
f 717/717 200/200 218/218
f 200/200 717/717 706/706
f 710/710 713/713 209/209
f 209/209 196/196 710/710
f 719/719 699/699 723/723
f 699/699 719/719 693/693
f 726/726 729/729 696/696
f 703/703 696/696 729/729
f 697/697 694/694 727/727
f 727/727 694/694 720/720
f 730/730 724/724 704/704
f 704/704 724/724 700/700
f 725/725 707/707 721/721
f 707/707 725/725 711/711
f 725/725 731/731 711/711
f 711/711 731/731 714/714
f 732/732 728/728 715/715
f 715/715 728/728 718/718
f 728/728 722/722 718/718
f 718/718 722/722 708/708
f 733/733 735/735 240/240
f 240/240 735/735 222/222
f 241/241 737/737 734/734
f 241/241 253/253 737/737
f 739/739 737/737 253/253
f 739/739 253/253 232/232
f 736/736 739/739 232/232
f 736/736 232/232 223/223
f 741/741 745/745 743/743
f 745/745 741/741 746/746
f 746/746 741/741 747/747
f 750/750 746/746 747/747
f 747/747 741/741 753/753
f 756/756 746/746 750/750
f 741/741 757/757 753/753
f 750/750 757/757 756/756
f 741/741 760/760 757/757
f 760/760 756/756 757/757
f 762/762 244/244 765/765
f 244/244 762/762 249/249
f 769/769 236/236 227/227
f 236/236 769/769 773/773
f 774/774 245/245 237/237
f 245/245 774/774 766/766
f 763/763 770/770 228/228
f 228/228 250/250 763/763
f 242/242 251/251 254/254
f 251/251 242/242 246/246
f 776/776 779/779 754/754
f 748/748 754/754 779/779
f 783/783 751/751 787/787
f 751/751 783/783 758/758
f 752/752 749/749 788/788
f 788/788 749/749 780/780
f 784/784 777/777 759/759
f 759/759 777/777 755/755
f 778/778 767/767 781/781
f 767/767 778/778 764/764
f 778/778 785/785 764/764
f 764/764 785/785 771/771
f 786/786 789/789 772/772
f 772/772 789/789 775/775
f 789/789 782/782 775/775
f 775/775 782/782 768/768
f 790/790 744/744 791/791
f 742/742 744/744 790/790
f 792/792 742/742 790/790
f 792/792 795/795 742/742
f 790/790 798/798 792/792
f 790/790 801/801 798/798
f 802/802 742/742 795/795
f 801/801 802/802 798/798
f 761/761 742/742 802/802
f 802/802 801/801 761/761
f 805/805 808/808 278/278
f 805/805 278/278 283/283
f 812/812 815/815 271/271
f 262/262 271/271 815/815
f 272/272 279/279 813/813
f 813/813 279/279 809/809
f 816/816 806/806 263/263
f 263/263 806/806 284/284
f 275/275 287/287 285/285
f 275/275 285/285 280/280
f 819/819 796/796 793/793
f 796/796 819/819 823/823
f 826/826 830/830 799/799
f 826/826 799/799 803/803
f 831/831 794/794 800/800
f 794/794 831/831 820/820
f 824/824 827/827 804/804
f 804/804 797/797 824/824
f 825/825 821/821 810/810
f 825/825 810/810 807/807
f 828/828 825/825 807/807
f 828/828 807/807 817/817
f 832/832 829/829 818/818
f 832/832 818/818 814/814
f 822/822 832/832 814/814
f 822/822 814/814 811/811
f 833/833 836/836 834/834
f 836/836 833/833 838/838
f 839/839 836/836 838/838
f 839/839 842/842 836/836
f 838/838 845/845 839/839
f 838/838 848/848 845/845
f 849/849 836/836 842/842
f 848/848 849/849 845/845
f 852/852 836/836 849/849
f 848/848 852/852 849/849
f 854/854 857/857 312/312
f 854/854 312/312 317/317
f 861/861 864/864 305/305
f 296/296 305/305 864/864
f 306/306 313/313 862/862
f 862/862 313/313 858/858
f 865/865 855/855 297/297
f 297/297 855/855 318/318
f 309/309 321/321 319/319
f 309/309 319/319 314/314
f 843/843 840/840 868/868
f 843/843 868/868 872/872
f 875/875 879/879 846/846
f 875/875 846/846 850/850
f 880/880 841/841 847/847
f 841/841 880/880 869/869
f 873/873 876/876 851/851
f 851/851 844/844 873/873
f 874/874 870/870 859/859
f 874/874 859/859 856/856
f 877/877 874/874 856/856
f 877/877 856/856 866/866
f 881/881 878/878 867/867
f 881/881 867/867 863/863
f 871/871 881/881 863/863
f 871/871 863/863 860/860
f 882/882 883/883 835/835
f 837/837 882/882 835/835
f 882/882 837/837 884/884
f 887/887 882/882 884/884
f 884/884 837/837 890/890
f 893/893 882/882 887/887
f 837/837 894/894 890/890
f 887/887 894/894 893/893
f 837/837 853/853 894/894
f 853/853 893/893 894/894
f 897/897 339/339 900/900
f 339/339 897/897 335/335
f 904/904 357/357 348/348
f 357/357 904/904 908/908
f 909/909 340/340 358/358
f 340/340 909/909 901/901
f 898/898 905/905 349/349
f 349/349 336/336 898/898
f 911/911 914/914 891/891
f 885/885 891/891 914/914
f 918/918 888/888 922/922
f 888/888 918/918 895/895
f 889/889 886/886 923/923
f 923/923 886/886 915/915
f 919/919 912/912 896/896
f 896/896 912/912 892/892
f 913/913 902/902 916/916
f 902/902 913/913 899/899
f 913/913 920/920 899/899
f 899/899 920/920 906/906
f 921/921 924/924 907/907
f 907/907 924/924 910/910
f 924/924 917/917 910/910
f 910/910 917/917 903/903
f 925/925 927/927 926/926
f 926/926 927/927 928/928
f 929/929 931/931 930/930
f 932/932 931/931 929/929
f 933/933 932/932 929/929
f 933/933 934/934 932/932
f 935/935 937/937 936/936
f 936/936 938/938 935/935
f 939/939 941/941 940/940
f 942/942 939/939 940/940
f 942/942 943/943 939/939
f 943/943 942/942 944/944
f 945/945 949/949 947/947
f 949/949 945/945 950/950
f 950/950 945/945 951/951
f 954/954 950/950 951/951
f 951/951 945/945 957/957
f 960/960 950/950 954/954
f 945/945 961/961 957/957
f 954/954 961/961 960/960
f 945/945 964/964 961/961
f 964/964 960/960 961/961
f 966/966 382/382 969/969
f 382/382 966/966 387/387
f 973/973 375/375 366/366
f 375/375 973/973 977/977
f 978/978 383/383 376/376
f 383/383 978/978 970/970
f 967/967 974/974 367/367
f 367/367 388/388 967/967
f 379/379 389/389 391/391
f 389/389 379/379 384/384
f 980/980 983/983 958/958
f 952/952 958/958 983/983
f 987/987 955/955 991/991
f 955/955 987/987 962/962
f 956/956 953/953 992/992
f 992/992 953/953 984/984
f 988/988 981/981 963/963
f 963/963 981/981 959/959
f 982/982 971/971 985/985
f 971/971 982/982 968/968
f 982/982 989/989 968/968
f 968/968 989/989 975/975
f 990/990 993/993 976/976
f 976/976 993/993 979/979
f 993/993 986/986 979/979
f 979/979 986/986 972/972
f 994/994 948/948 995/995
f 946/946 948/948 994/994
f 996/996 946/946 994/994
f 996/996 999/999 946/946
f 994/994 1002/1002 996/996
f 994/994 1005/1005 1002/1002
f 1006/1006 946/946 999/999
f 1005/1005 1006/1006 1002/1002
f 965/965 946/946 1006/1006
f 1006/1006 1005/1005 965/965
f 1009/1009 1012/1012 409/409
f 1009/1009 409/409 402/402
f 1016/1016 1019/1019 427/427
f 418/418 427/427 1019/1019
f 428/428 410/410 1017/1017
f 1017/1017 410/410 1013/1013
f 1020/1020 1010/1010 419/419
f 419/419 1010/1010 403/403
f 1000/1000 997/997 1023/1023
f 1000/1000 1023/1023 1027/1027
f 1030/1030 1034/1034 1003/1003
f 1030/1030 1003/1003 1007/1007
f 1035/1035 998/998 1004/1004
f 998/998 1035/1035 1024/1024
f 1028/1028 1031/1031 1008/1008
f 1008/1008 1001/1001 1028/1028
f 1029/1029 1025/1025 1014/1014
f 1029/1029 1014/1014 1011/1011
f 1032/1032 1029/1029 1011/1011
f 1032/1032 1011/1011 1021/1021
f 1036/1036 1033/1033 1022/1022
f 1036/1036 1022/1022 1018/1018
f 1026/1026 1036/1036 1018/1018
f 1026/1026 1018/1018 1015/1015
f 1037/1037 1039/1039 1038/1038
f 1039/1039 1037/1037 1041/1041
f 1043/1043 1046/1046 1044/1044
f 1046/1046 1043/1043 1049/1049
f 1049/1049 1043/1043 1051/1051
f 1047/1047 1052/1052 1045/1045
f 1052/1052 1047/1047 1054/1054
f 1057/1057 1054/1054 1047/1047
f 1060/1060 1054/1054 1057/1057
f 1063/1063 1060/1060 1057/1057
f 1057/1057 1065/1065 1063/1063
f 1067/1067 1072/1072 1070/1070
f 1072/1072 1067/1067 1074/1074
f 1077/1077 1074/1074 1067/1067
f 1077/1077 1067/1067 1081/1081
f 1085/1085 1091/1091 1087/1087
f 1085/1085 1094/1094 1091/1091
f 1097/1097 1091/1091 1094/1094
f 1094/1094 1099/1099 1097/1097
f 1101/1101 1094/1094 1085/1085
f 1094/1094 1101/1101 1102/1102
f 1105/1105 1102/1102 1101/1101
f 1105/1105 1106/1106 1102/1102
f 1050/1050 1108/1108 1048/1048
f 1048/1048 1108/1108 1058/1058
f 1095/1095 1103/1103 1061/1061
f 1061/1061 1103/1103 1055/1055
f 1056/1056 1107/1107 1053/1053
f 1107/1107 1056/1056 1104/1104
f 1110/1110 1109/1109 1111/1111
f 1109/1109 1110/1110 1059/1059
f 1059/1059 1110/1110 1066/1066
f 1062/1062 1100/1100 1096/1096
f 1100/1100 1062/1062 1064/1064
f 1068/1068 1114/1114 1112/1112
f 1114/1114 1068/1068 1071/1071
f 1075/1075 1098/1098 1073/1073
f 1098/1098 1075/1075 1092/1092
f 1076/1076 1078/1078 1088/1088
f 1088/1088 1093/1093 1076/1076
f 1113/1113 1115/1115 1069/1069
f 1069/1069 1115/1115 1082/1082
f 1117/1117 1040/1040 1042/1042
f 1040/1040 1117/1117 1119/1119
f 1121/1121 1123/1123 1122/1122
f 1123/1123 1121/1121 1125/1125
f 1125/1125 1121/1121 1128/1128
f 1130/1130 1126/1126 1129/1129
f 1126/1126 1130/1130 1132/1132
f 1132/1132 1135/1135 1126/1126
f 1126/1126 1135/1135 1138/1138
f 1135/1135 1141/1141 1138/1138
f 1138/1138 1141/1141 1143/1143
f 1145/1145 1149/1149 1147/1147
f 1149/1149 1145/1145 1152/1152
f 1152/1152 1079/1079 1149/1149
f 1149/1149 1079/1079 1083/1083
f 1086/1086 1089/1089 1155/1155
f 1086/1086 1155/1155 1158/1158
f 1155/1155 1161/1161 1158/1158
f 1158/1158 1161/1161 1163/1163
f 1158/1158 1165/1165 1086/1086
f 1165/1165 1158/1158 1166/1166
f 1169/1169 1165/1165 1166/1166
f 1169/1169 1166/1166 1170/1170
f 1172/1172 1124/1124 1139/1139
f 1139/1139 1124/1124 1127/1127
f 1167/1167 1159/1159 1133/1133
f 1133/1133 1159/1159 1136/1136
f 1134/1134 1171/1171 1168/1168
f 1171/1171 1134/1134 1131/1131
f 1174/1174 1140/1140 1144/1144
f 1140/1140 1174/1174 1173/1173
f 1173/1173 1174/1174 1175/1175
f 1160/1160 1164/1164 1137/1137
f 1137/1137 1164/1164 1142/1142
f 1176/1176 1178/1178 1150/1150
f 1150/1150 1178/1178 1148/1148
f 1153/1153 1162/1162 1156/1156
f 1162/1162 1153/1153 1146/1146
f 1157/1157 1090/1090 1154/1154
f 1154/1154 1090/1090 1080/1080
f 1116/1116 1151/1151 1084/1084
f 1151/1151 1116/1116 1177/1177
f 1179/1179 1182/1182 1180/1180
f 1182/1182 1179/1179 1184/1184
f 1185/1185 1188/1188 1186/1186
f 1185/1185 1186/1186 1190/1190
f 1186/1186 1191/1191 1190/1190
f 1191/1191 1186/1186 1192/1192
f 1194/1194 1183/1183 1195/1195
f 1183/1183 1194/1194 1181/1181
f 1196/1196 1187/1187 1189/1189
f 1187/1187 1196/1196 1197/1197
f 1198/1198 1187/1187 1197/1197
f 1187/1187 1198/1198 1193/1193
f 1199/1199 1200/1200 133/133
f 133/133 1201/1201 1199/1199
f 133/133 1200/1200 150/150
f 133/133 136/136 1201/1201
f 1200/1200 159/159 150/150
f 1203/1203 1201/1201 136/136
f 1200/1200 1203/1203 159/159
f 1203/1203 136/136 159/159
f 1205/1205 1206/1206 23/23
f 1202/1202 23/23 1206/1206
f 1205/1205 23/23 14/14
f 23/23 1202/1202 173/173
f 14/14 1204/1204 1205/1205
f 1202/1202 1204/1204 173/173
f 1204/1204 14/14 18/18
f 173/173 1204/1204 18/18
f 1207/1207 1208/1208 50/50
f 1209/1209 50/50 1208/1208
f 1207/1207 50/50 41/41
f 50/50 1209/1209 182/182
f 41/41 45/45 1207/1207
f 1209/1209 1211/1211 182/182
f 1211/1211 1207/1207 45/45
f 182/182 1211/1211 45/45
f 1213/1213 1214/1214 187/187
f 187/187 1210/1210 1213/1213
f 187/187 1214/1214 204/204
f 187/187 190/190 1210/1210
f 1214/1214 213/213 204/204
f 1212/1212 1210/1210 190/190
f 213/213 1214/1214 1212/1212
f 1212/1212 190/190 213/213
f 1215/1215 1216/1216 276/276
f 738/738 276/276 1216/1216
f 1215/1215 276/276 267/267
f 276/276 738/738 288/288
f 267/267 740/740 1215/1215
f 738/738 740/740 288/288
f 740/740 267/267 258/258
f 288/288 740/740 258/258
f 1217/1217 1218/1218 310/310
f 1219/1219 310/310 1218/1218
f 1217/1217 310/310 301/301
f 310/310 1219/1219 322/322
f 301/301 292/292 1217/1217
f 1219/1219 1221/1221 322/322
f 1221/1221 1217/1217 292/292
f 322/322 1221/1221 292/292
f 1223/1223 1224/1224 327/327
f 1220/1220 1223/1223 327/327
f 327/327 1224/1224 344/344
f 327/327 330/330 1220/1220
f 1222/1222 344/344 1224/1224
f 1222/1222 1220/1220 330/330
f 344/344 1222/1222 353/353
f 1222/1222 330/330 353/353
f 1225/1225 1226/1226 380/380
f 380/380 1227/1227 1225/1225
f 380/380 1226/1226 362/362
f 380/380 392/392 1227/1227
f 1226/1226 371/371 362/362
f 1229/1229 1227/1227 392/392
f 371/371 1226/1226 1229/1229
f 1229/1229 392/392 371/371
f 1231/1231 1232/1232 397/397
f 1228/1228 397/397 1232/1232
f 1231/1231 397/397 423/423
f 397/397 1228/1228 406/406
f 423/423 414/414 1231/1231
f 1228/1228 1230/1230 406/406
f 1230/1230 1231/1231 414/414
f 406/406 1230/1230 414/414
f 1120/1120 1118/1118 97/97
f 436/436 1120/1120 97/97
f 97/97 1118/1118 114/114
f 97/97 100/100 436/436
f 433/433 114/114 1118/1118
f 433/433 436/436 100/100
f 114/114 433/433 123/123
f 433/433 100/100 123/123
