# generated by roqsim_scenes/tools (world-space, metres, Z-up)
v -8.922455 -7.770908 7.609097
v -8.971595 -7.770908 7.609097
v -8.971595 -7.770908 6.931580
v -8.922455 -7.770908 6.931580
v -8.922455 -7.770908 6.882439
v -8.971595 -7.770908 6.882439
v -9.858056 -7.770908 7.609097
v -9.907198 -7.770908 7.609097
v -9.907198 -7.770908 6.931580
v -9.858056 -7.770908 6.931580
v -9.858056 -7.770908 6.882439
v -9.907198 -7.770908 6.882439
v -8.971595 -7.770908 6.229492
v -8.922455 -7.770908 6.229492
v -8.922455 -7.770908 6.180351
v -8.971595 -7.770908 6.180351
v -8.011424 -7.770908 6.882439
v -8.011424 -7.770908 6.931580
v -9.907198 -7.770908 6.229492
v -9.858056 -7.770908 6.229492
v -9.858056 -7.770908 6.180351
v -9.907198 -7.770908 6.180351
v -8.971595 -7.770908 5.502834
v -8.922455 -7.770908 5.502834
v -8.011424 -7.770908 6.180351
v -8.011424 -7.770908 6.229492
v -9.907198 -7.770908 5.502834
v -9.858056 -7.770908 5.502834
v -10.818229 -7.770908 6.931580
v -10.818229 -7.770908 6.882439
v -10.818229 -7.770908 6.229492
v -10.818229 -7.770908 6.180351
v -8.971595 -7.748610 7.609097
v -8.922455 -7.748610 7.609097
v -8.922455 -7.748610 6.931580
v -8.971595 -7.748610 6.931580
v -8.971595 -7.748610 6.882439
v -9.858056 -7.748610 6.882439
v -9.858056 -7.748610 6.931580
v -8.922455 -7.748610 6.882439
v -8.011424 -7.748610 6.931580
v -8.011424 -7.748610 6.882439
v -8.922455 -7.748610 6.229492
v -8.971595 -7.748610 6.229492
v -9.907198 -7.748610 7.609097
v -9.858056 -7.748610 7.609097
v -9.907198 -7.748610 6.931580
v -9.907198 -7.748610 6.882439
v -10.818229 -7.748610 6.882439
v -10.818229 -7.748610 6.931580
v -9.858056 -7.748610 6.229492
v -9.907198 -7.748610 6.229492
v -8.971595 -7.748610 6.180351
v -9.858056 -7.748610 6.180351
v -8.922455 -7.748610 6.180351
v -8.011424 -7.748610 6.229492
v -8.011424 -7.748610 6.180351
v -8.922455 -7.748610 5.502834
v -8.971595 -7.748610 5.502834
v -9.907198 -7.748610 6.180351
v -10.818229 -7.748610 6.180351
v -10.818229 -7.748610 6.229492
v -9.858056 -7.748610 5.502834
v -9.907198 -7.748610 5.502834
v -8.011424 -7.770908 7.609097
v -10.818229 -7.770908 7.609097
v -10.818229 -7.770908 5.502834
v -8.947025 -7.770908 5.502834
v -8.011424 -7.770908 5.502834
v -12.672460 -7.770908 7.609097
v -12.721601 -7.770908 7.609097
v -12.721601 -7.770908 6.931580
v -12.672460 -7.770908 6.931580
v -12.672460 -7.770908 6.882439
v -12.721601 -7.770908 6.882439
v -13.608063 -7.770908 7.609097
v -13.657204 -7.770908 7.609097
v -13.657204 -7.770908 6.931580
v -13.608063 -7.770908 6.931580
v -13.608063 -7.770908 6.882439
v -13.657204 -7.770908 6.882439
v -12.721601 -7.770908 6.229492
v -12.672460 -7.770908 6.229492
v -12.672460 -7.770908 6.180351
v -12.721601 -7.770908 6.180351
v -11.761429 -7.770908 6.882439
v -11.761429 -7.770908 6.931580
v -13.657204 -7.770908 6.229492
v -13.608063 -7.770908 6.229492
v -13.608063 -7.770908 6.180351
v -13.657204 -7.770908 6.180351
v -12.721601 -7.770908 5.502834
v -12.672460 -7.770908 5.502834
v -11.761429 -7.770908 6.180351
v -11.761429 -7.770908 6.229492
v -13.657204 -7.770908 5.502834
v -13.608063 -7.770908 5.502834
v -14.568234 -7.770908 6.931580
v -14.568234 -7.770908 6.882439
v -14.568234 -7.770908 6.229492
v -14.568234 -7.770908 6.180351
v -12.721601 -7.748610 7.609097
v -12.672460 -7.748610 7.609097
v -12.672460 -7.748610 6.931580
v -12.721601 -7.748610 6.931580
v -12.721601 -7.748610 6.882439
v -13.608063 -7.748610 6.882439
v -13.608063 -7.748610 6.931580
v -12.672460 -7.748610 6.882439
v -11.761429 -7.748610 6.931580
v -11.761429 -7.748610 6.882439
v -12.672460 -7.748610 6.229492
v -12.721601 -7.748610 6.229492
v -13.657204 -7.748610 7.609097
v -13.608063 -7.748610 7.609097
v -13.657204 -7.748610 6.931580
v -13.657204 -7.748610 6.882439
v -14.568234 -7.748610 6.882439
v -14.568234 -7.748610 6.931580
v -13.608063 -7.748610 6.229492
v -13.657204 -7.748610 6.229492
v -12.721601 -7.748610 6.180351
v -13.608063 -7.748610 6.180351
v -12.672460 -7.748610 6.180351
v -11.761429 -7.748610 6.229492
v -11.761429 -7.748610 6.180351
v -12.672460 -7.748610 5.502834
v -12.721601 -7.748610 5.502834
v -13.657204 -7.748610 6.180351
v -14.568234 -7.748610 6.180351
v -14.568234 -7.748610 6.229492
v -13.608063 -7.748610 5.502834
v -13.657204 -7.748610 5.502834
v -11.761429 -7.770908 7.609097
v -14.568234 -7.770908 7.609097
v -14.568234 -7.770908 5.502834
v -12.697031 -7.770908 5.502834
v -11.761429 -7.770908 5.502834
v 8.842813 -7.770908 7.609097
v 8.891957 -7.770908 7.609097
v 8.891957 -7.770908 6.931580
v 8.842813 -7.770908 6.931580
v 8.842813 -7.770908 6.882439
v 8.891957 -7.770908 6.882439
v 9.778417 -7.770908 7.609097
v 9.827558 -7.770908 7.609097
v 9.827558 -7.770908 6.931580
v 9.778417 -7.770908 6.931580
v 9.778417 -7.770908 6.882439
v 9.827558 -7.770908 6.882439
v 8.891957 -7.770908 6.229492
v 8.842813 -7.770908 6.229492
v 8.842813 -7.770908 6.180351
v 8.891957 -7.770908 6.180351
v 7.931783 -7.770908 6.882439
v 7.931783 -7.770908 6.931580
v 9.827558 -7.770908 6.229492
v 9.778417 -7.770908 6.229492
v 9.778417 -7.770908 6.180351
v 9.827558 -7.770908 6.180351
v 8.891957 -7.770908 5.502834
v 8.842813 -7.770908 5.502834
v 7.931783 -7.770908 6.180351
v 7.931783 -7.770908 6.229492
v 9.827558 -7.770908 5.502834
v 9.778417 -7.770908 5.502834
v 10.738588 -7.770908 6.931580
v 10.738588 -7.770908 6.882439
v 10.738588 -7.770908 6.229492
v 10.738588 -7.770908 6.180351
v 8.891957 -7.748610 7.609097
v 8.842813 -7.748610 7.609097
v 8.842813 -7.748610 6.931580
v 8.891957 -7.748610 6.931580
v 8.891957 -7.748610 6.882439
v 9.778417 -7.748610 6.882439
v 9.778417 -7.748610 6.931580
v 8.842813 -7.748610 6.882439
v 7.931783 -7.748610 6.931580
v 7.931783 -7.748610 6.882439
v 8.842813 -7.748610 6.229492
v 8.891957 -7.748610 6.229492
v 9.827558 -7.748610 7.609097
v 9.778417 -7.748610 7.609097
v 9.827558 -7.748610 6.931580
v 9.827558 -7.748610 6.882439
v 10.738588 -7.748610 6.882439
v 10.738588 -7.748610 6.931580
v 9.778417 -7.748610 6.229492
v 9.827558 -7.748610 6.229492
v 8.891957 -7.748610 6.180351
v 9.778417 -7.748610 6.180351
v 8.842813 -7.748610 6.180351
v 7.931783 -7.748610 6.229492
v 7.931783 -7.748610 6.180351
v 8.842813 -7.748610 5.502834
v 8.891957 -7.748610 5.502834
v 9.827558 -7.748610 6.180351
v 10.738588 -7.748610 6.180351
v 10.738588 -7.748610 6.229492
v 9.778417 -7.748610 5.502834
v 9.827558 -7.748610 5.502834
v 7.931783 -7.770908 7.609097
v 10.738588 -7.770908 7.609097
v 10.738588 -7.770908 5.502834
v 8.867385 -7.770908 5.502834
v 7.931783 -7.770908 5.502834
v 12.592819 -7.770908 7.609097
v 12.641962 -7.770908 7.609097
v 12.641962 -7.770908 6.931580
v 12.592819 -7.770908 6.931580
v 12.592819 -7.770908 6.882439
v 12.641962 -7.770908 6.882439
v 13.528422 -7.770908 7.609097
v 13.577563 -7.770908 7.609097
v 13.577563 -7.770908 6.931580
v 13.528422 -7.770908 6.931580
v 13.528422 -7.770908 6.882439
v 13.577563 -7.770908 6.882439
v 12.641962 -7.770908 6.229492
v 12.592819 -7.770908 6.229492
v 12.592819 -7.770908 6.180351
v 12.641962 -7.770908 6.180351
v 11.681790 -7.770908 6.882439
v 11.681790 -7.770908 6.931580
v 13.577563 -7.770908 6.229492
v 13.528422 -7.770908 6.229492
v 13.528422 -7.770908 6.180351
v 13.577563 -7.770908 6.180351
v 12.641962 -7.770908 5.502834
v 12.592819 -7.770908 5.502834
v 11.681790 -7.770908 6.180351
v 11.681790 -7.770908 6.229492
v 13.577563 -7.770908 5.502834
v 13.528422 -7.770908 5.502834
v 14.488594 -7.770908 6.931580
v 14.488594 -7.770908 6.882439
v 14.488594 -7.770908 6.229492
v 14.488594 -7.770908 6.180351
v 12.641962 -7.748610 7.609097
v 12.592819 -7.748610 7.609097
v 12.592819 -7.748610 6.931580
v 12.641962 -7.748610 6.931580
v 12.641962 -7.748610 6.882439
v 13.528422 -7.748610 6.882439
v 13.528422 -7.748610 6.931580
v 12.592819 -7.748610 6.882439
v 11.681790 -7.748610 6.931580
v 11.681790 -7.748610 6.882439
v 12.592819 -7.748610 6.229492
v 12.641962 -7.748610 6.229492
v 13.577563 -7.748610 7.609097
v 13.528422 -7.748610 7.609097
v 13.577563 -7.748610 6.931580
v 13.577563 -7.748610 6.882439
v 14.488594 -7.748610 6.882439
v 14.488594 -7.748610 6.931580
v 13.528422 -7.748610 6.229492
v 13.577563 -7.748610 6.229492
v 12.641962 -7.748610 6.180351
v 13.528422 -7.748610 6.180351
v 12.592819 -7.748610 6.180351
v 11.681790 -7.748610 6.229492
v 11.681790 -7.748610 6.180351
v 12.592819 -7.748610 5.502834
v 12.641962 -7.748610 5.502834
v 13.577563 -7.748610 6.180351
v 14.488594 -7.748610 6.180351
v 14.488594 -7.748610 6.229492
v 13.528422 -7.748610 5.502834
v 13.577563 -7.748610 5.502834
v 11.681790 -7.770908 7.609097
v 14.488594 -7.770908 7.609097
v 14.488594 -7.770908 5.502834
v 12.617391 -7.770908 5.502834
v 11.681790 -7.770908 5.502834
v 2.327551 -7.770908 7.609097
v 2.278410 -7.770908 7.609097
v 2.278410 -7.770908 6.931580
v 2.327551 -7.770908 6.931580
v 2.327551 -7.770908 6.882439
v 2.278410 -7.770908 6.882439
v 1.391949 -7.770908 7.609097
v 1.342808 -7.770908 7.609097
v 1.342808 -7.770908 6.931580
v 1.391949 -7.770908 6.931580
v 1.391949 -7.770908 6.882439
v 1.342808 -7.770908 6.882439
v 2.278410 -7.770908 6.229492
v 2.327551 -7.770908 6.229492
v 2.327551 -7.770908 6.180351
v 2.278410 -7.770908 6.180351
v 3.238581 -7.770908 6.882439
v 3.238581 -7.770908 6.931580
v 1.342808 -7.770908 6.229492
v 1.391949 -7.770908 6.229492
v 1.391949 -7.770908 6.180351
v 1.342808 -7.770908 6.180351
v 2.278410 -7.770908 5.502834
v 2.327551 -7.770908 5.502834
v 3.238581 -7.770908 6.180351
v 3.238581 -7.770908 6.229492
v 1.342808 -7.770908 5.502834
v 1.391949 -7.770908 5.502834
v 0.431777 -7.770908 6.931580
v 0.431777 -7.770908 6.882439
v 0.431777 -7.770908 6.229492
v 0.431777 -7.770908 6.180351
v 2.278410 -7.748610 7.609097
v 2.327551 -7.748610 7.609097
v 2.327551 -7.748610 6.931580
v 2.278410 -7.748610 6.931580
v 2.278410 -7.748610 6.882439
v 1.391949 -7.748610 6.882439
v 1.391949 -7.748610 6.931580
v 2.327551 -7.748610 6.882439
v 3.238581 -7.748610 6.931580
v 3.238581 -7.748610 6.882439
v 2.327551 -7.748610 6.229492
v 2.278410 -7.748610 6.229492
v 1.342808 -7.748610 7.609097
v 1.391949 -7.748610 7.609097
v 1.342808 -7.748610 6.931580
v 1.342808 -7.748610 6.882439
v 0.431777 -7.748610 6.882439
v 0.431777 -7.748610 6.931580
v 1.391949 -7.748610 6.229492
v 1.342808 -7.748610 6.229492
v 2.278410 -7.748610 6.180351
v 1.391949 -7.748610 6.180351
v 2.327551 -7.748610 6.180351
v 3.238581 -7.748610 6.229492
v 3.238581 -7.748610 6.180351
v 2.327551 -7.748610 5.502834
v 2.278410 -7.748610 5.502834
v 1.342808 -7.748610 6.180351
v 0.431777 -7.748610 6.180351
v 0.431777 -7.748610 6.229492
v 1.391949 -7.748610 5.502834
v 1.342808 -7.748610 5.502834
v 3.238581 -7.770908 7.609097
v 0.431777 -7.770908 7.609097
v 0.431777 -7.770908 5.502834
v 2.302980 -7.770908 5.502834
v 3.238581 -7.770908 5.502834
v -1.422455 -7.770908 7.609097
v -1.471596 -7.770908 7.609097
v -1.471596 -7.770908 6.931580
v -1.422455 -7.770908 6.931580
v -1.422455 -7.770908 6.882439
v -1.471596 -7.770908 6.882439
v -2.358057 -7.770908 7.609097
v -2.407199 -7.770908 7.609097
v -2.407199 -7.770908 6.931580
v -2.358057 -7.770908 6.931580
v -2.358057 -7.770908 6.882439
v -2.407199 -7.770908 6.882439
v -1.471596 -7.770908 6.229492
v -1.422455 -7.770908 6.229492
v -1.422455 -7.770908 6.180351
v -1.471596 -7.770908 6.180351
v -0.511424 -7.770908 6.882439
v -0.511424 -7.770908 6.931580
v -2.407199 -7.770908 6.229492
v -2.358057 -7.770908 6.229492
v -2.358057 -7.770908 6.180351
v -2.407199 -7.770908 6.180351
v -1.471596 -7.770908 5.502834
v -1.422455 -7.770908 5.502834
v -0.511424 -7.770908 6.180351
v -0.511424 -7.770908 6.229492
v -2.407199 -7.770908 5.502834
v -2.358057 -7.770908 5.502834
v -3.318229 -7.770908 6.931580
v -3.318229 -7.770908 6.882439
v -3.318229 -7.770908 6.229492
v -3.318229 -7.770908 6.180351
v -1.471596 -7.748610 7.609097
v -1.422455 -7.748610 7.609097
v -1.422455 -7.748610 6.931580
v -1.471596 -7.748610 6.931580
v -1.471596 -7.748610 6.882439
v -2.358057 -7.748610 6.882439
v -2.358057 -7.748610 6.931580
v -1.422455 -7.748610 6.882439
v -0.511424 -7.748610 6.931580
v -0.511424 -7.748610 6.882439
v -1.422455 -7.748610 6.229492
v -1.471596 -7.748610 6.229492
v -2.407199 -7.748610 7.609097
v -2.358057 -7.748610 7.609097
v -2.407199 -7.748610 6.931580
v -2.407199 -7.748610 6.882439
v -3.318229 -7.748610 6.882439
v -3.318229 -7.748610 6.931580
v -2.358057 -7.748610 6.229492
v -2.407199 -7.748610 6.229492
v -1.471596 -7.748610 6.180351
v -2.358057 -7.748610 6.180351
v -1.422455 -7.748610 6.180351
v -0.511424 -7.748610 6.229492
v -0.511424 -7.748610 6.180351
v -1.422455 -7.748610 5.502834
v -1.471596 -7.748610 5.502834
v -2.407199 -7.748610 6.180351
v -3.318229 -7.748610 6.180351
v -3.318229 -7.748610 6.229492
v -2.358057 -7.748610 5.502834
v -2.407199 -7.748610 5.502834
v -0.511424 -7.770908 7.609097
v -3.318229 -7.770908 7.609097
v -3.318229 -7.770908 5.502834
v -1.447026 -7.770908 5.502834
v -0.511424 -7.770908 5.502834
v -8.922455 7.501400 7.609097
v -8.971595 7.501400 7.609097
v -8.971595 7.501400 6.931580
v -8.922455 7.501400 6.931580
v -8.922455 7.501400 6.882439
v -8.971595 7.501400 6.882439
v -9.858056 7.501400 7.609097
v -9.907198 7.501400 7.609097
v -9.907198 7.501400 6.931580
v -9.858056 7.501400 6.931580
v -9.858056 7.501400 6.882439
v -9.907198 7.501400 6.882439
v -8.971595 7.501400 6.229492
v -8.922455 7.501400 6.229492
v -8.922455 7.501400 6.180351
v -8.971595 7.501400 6.180351
v -8.011424 7.501400 6.882439
v -8.011424 7.501400 6.931580
v -9.907198 7.501400 6.229492
v -9.858056 7.501400 6.229492
v -9.858056 7.501400 6.180351
v -9.907198 7.501400 6.180351
v -8.971595 7.501400 5.502834
v -8.922455 7.501400 5.502834
v -8.011424 7.501400 6.180351
v -8.011424 7.501400 6.229492
v -9.907198 7.501400 5.502834
v -9.858056 7.501400 5.502834
v -10.818229 7.501400 6.931580
v -10.818229 7.501400 6.882439
v -10.818229 7.501400 6.229492
v -10.818229 7.501400 6.180351
v -8.971595 7.479103 7.609097
v -8.922455 7.479103 7.609097
v -8.922455 7.479103 6.931580
v -8.971595 7.479103 6.931580
v -8.971595 7.479103 6.882439
v -9.858056 7.479103 6.882439
v -9.858056 7.479103 6.931580
v -8.922455 7.479103 6.882439
v -8.011424 7.479103 6.931580
v -8.011424 7.479103 6.882439
v -8.922455 7.479103 6.229492
v -8.971595 7.479103 6.229492
v -9.907198 7.479103 7.609097
v -9.858056 7.479103 7.609097
v -9.907198 7.479103 6.931580
v -9.907198 7.479103 6.882439
v -10.818229 7.479103 6.882439
v -10.818229 7.479103 6.931580
v -9.858056 7.479103 6.229492
v -9.907198 7.479103 6.229492
v -8.971595 7.479103 6.180351
v -9.858056 7.479103 6.180351
v -8.922455 7.479103 6.180351
v -8.011424 7.479103 6.229492
v -8.011424 7.479103 6.180351
v -8.922455 7.479103 5.502834
v -8.971595 7.479103 5.502834
v -9.907198 7.479103 6.180351
v -10.818229 7.479103 6.180351
v -10.818229 7.479103 6.229492
v -9.858056 7.479103 5.502834
v -9.907198 7.479103 5.502834
v -8.011424 7.501400 7.609097
v -10.818229 7.501400 7.609097
v -10.818229 7.501400 5.502834
v -8.947025 7.501400 5.502834
v -8.011424 7.501400 5.502834
v -12.672460 7.501400 7.609097
v -12.721601 7.501400 7.609097
v -12.721601 7.501400 6.931580
v -12.672460 7.501400 6.931580
v -12.672460 7.501400 6.882439
v -12.721601 7.501400 6.882439
v -13.608063 7.501400 7.609097
v -13.657204 7.501400 7.609097
v -13.657204 7.501400 6.931580
v -13.608063 7.501400 6.931580
v -13.608063 7.501400 6.882439
v -13.657204 7.501400 6.882439
v -12.721601 7.501400 6.229492
v -12.672460 7.501400 6.229492
v -12.672460 7.501400 6.180351
v -12.721601 7.501400 6.180351
v -11.761429 7.501400 6.882439
v -11.761429 7.501400 6.931580
v -13.657204 7.501400 6.229492
v -13.608063 7.501400 6.229492
v -13.608063 7.501400 6.180351
v -13.657204 7.501400 6.180351
v -12.721601 7.501400 5.502834
v -12.672460 7.501400 5.502834
v -11.761429 7.501400 6.180351
v -11.761429 7.501400 6.229492
v -13.657204 7.501400 5.502834
v -13.608063 7.501400 5.502834
v -14.568234 7.501400 6.931580
v -14.568234 7.501400 6.882439
v -14.568234 7.501400 6.229492
v -14.568234 7.501400 6.180351
v -12.721601 7.479103 7.609097
v -12.672460 7.479103 7.609097
v -12.672460 7.479103 6.931580
v -12.721601 7.479103 6.931580
v -12.721601 7.479103 6.882439
v -13.608063 7.479103 6.882439
v -13.608063 7.479103 6.931580
v -12.672460 7.479103 6.882439
v -11.761429 7.479103 6.931580
v -11.761429 7.479103 6.882439
v -12.672460 7.479103 6.229492
v -12.721601 7.479103 6.229492
v -13.657204 7.479103 7.609097
v -13.608063 7.479103 7.609097
v -13.657204 7.479103 6.931580
v -13.657204 7.479103 6.882439
v -14.568234 7.479103 6.882439
v -14.568234 7.479103 6.931580
v -13.608063 7.479103 6.229492
v -13.657204 7.479103 6.229492
v -12.721601 7.479103 6.180351
v -13.608063 7.479103 6.180351
v -12.672460 7.479103 6.180351
v -11.761429 7.479103 6.229492
v -11.761429 7.479103 6.180351
v -12.672460 7.479103 5.502834
v -12.721601 7.479103 5.502834
v -13.657204 7.479103 6.180351
v -14.568234 7.479103 6.180351
v -14.568234 7.479103 6.229492
v -13.608063 7.479103 5.502834
v -13.657204 7.479103 5.502834
v -11.761429 7.501400 7.609097
v -14.568234 7.501400 7.609097
v -14.568234 7.501400 5.502834
v -12.697031 7.501400 5.502834
v -11.761429 7.501400 5.502834
v 8.842813 7.501400 7.609097
v 8.891957 7.501400 7.609097
v 8.891957 7.501400 6.931580
v 8.842813 7.501400 6.931580
v 8.842813 7.501400 6.882439
v 8.891957 7.501400 6.882439
v 9.778417 7.501400 7.609097
v 9.827558 7.501400 7.609097
v 9.827558 7.501400 6.931580
v 9.778417 7.501400 6.931580
v 9.778417 7.501400 6.882439
v 9.827558 7.501400 6.882439
v 8.891957 7.501400 6.229492
v 8.842813 7.501400 6.229492
v 8.842813 7.501400 6.180351
v 8.891957 7.501400 6.180351
v 7.931783 7.501400 6.882439
v 7.931783 7.501400 6.931580
v 9.827558 7.501400 6.229492
v 9.778417 7.501400 6.229492
v 9.778417 7.501400 6.180351
v 9.827558 7.501400 6.180351
v 8.891957 7.501400 5.502834
v 8.842813 7.501400 5.502834
v 7.931783 7.501400 6.180351
v 7.931783 7.501400 6.229492
v 9.827558 7.501400 5.502834
v 9.778417 7.501400 5.502834
v 10.738588 7.501400 6.931580
v 10.738588 7.501400 6.882439
v 10.738588 7.501400 6.229492
v 10.738588 7.501400 6.180351
v 8.891957 7.479103 7.609097
v 8.842813 7.479103 7.609097
v 8.842813 7.479103 6.931580
v 8.891957 7.479103 6.931580
v 8.891957 7.479103 6.882439
v 9.778417 7.479103 6.882439
v 9.778417 7.479103 6.931580
v 8.842813 7.479103 6.882439
v 7.931783 7.479103 6.931580
v 7.931783 7.479103 6.882439
v 8.842813 7.479103 6.229492
v 8.891957 7.479103 6.229492
v 9.827558 7.479103 7.609097
v 9.778417 7.479103 7.609097
v 9.827558 7.479103 6.931580
v 9.827558 7.479103 6.882439
v 10.738588 7.479103 6.882439
v 10.738588 7.479103 6.931580
v 9.778417 7.479103 6.229492
v 9.827558 7.479103 6.229492
v 8.891957 7.479103 6.180351
v 9.778417 7.479103 6.180351
v 8.842813 7.479103 6.180351
v 7.931783 7.479103 6.229492
v 7.931783 7.479103 6.180351
v 8.842813 7.479103 5.502834
v 8.891957 7.479103 5.502834
v 9.827558 7.479103 6.180351
v 10.738588 7.479103 6.180351
v 10.738588 7.479103 6.229492
v 9.778417 7.479103 5.502834
v 9.827558 7.479103 5.502834
v 7.931783 7.501400 7.609097
v 10.738588 7.501400 7.609097
v 10.738588 7.501400 5.502834
v 8.867385 7.501400 5.502834
v 7.931783 7.501400 5.502834
v 12.592819 7.501400 7.609097
v 12.641962 7.501400 7.609097
v 12.641962 7.501400 6.931580
v 12.592819 7.501400 6.931580
v 12.592819 7.501400 6.882439
v 12.641962 7.501400 6.882439
v 13.528422 7.501400 7.609097
v 13.577563 7.501400 7.609097
v 13.577563 7.501400 6.931580
v 13.528422 7.501400 6.931580
v 13.528422 7.501400 6.882439
v 13.577563 7.501400 6.882439
v 12.641962 7.501400 6.229492
v 12.592819 7.501400 6.229492
v 12.592819 7.501400 6.180351
v 12.641962 7.501400 6.180351
v 11.681790 7.501400 6.882439
v 11.681790 7.501400 6.931580
v 13.577563 7.501400 6.229492
v 13.528422 7.501400 6.229492
v 13.528422 7.501400 6.180351
v 13.577563 7.501400 6.180351
v 12.641962 7.501400 5.502834
v 12.592819 7.501400 5.502834
v 11.681790 7.501400 6.180351
v 11.681790 7.501400 6.229492
v 13.577563 7.501400 5.502834
v 13.528422 7.501400 5.502834
v 14.488594 7.501400 6.931580
v 14.488594 7.501400 6.882439
v 14.488594 7.501400 6.229492
v 14.488594 7.501400 6.180351
v 12.641962 7.479103 7.609097
v 12.592819 7.479103 7.609097
v 12.592819 7.479103 6.931580
v 12.641962 7.479103 6.931580
v 12.641962 7.479103 6.882439
v 13.528422 7.479103 6.882439
v 13.528422 7.479103 6.931580
v 12.592819 7.479103 6.882439
v 11.681790 7.479103 6.931580
v 11.681790 7.479103 6.882439
v 12.592819 7.479103 6.229492
v 12.641962 7.479103 6.229492
v 13.577563 7.479103 7.609097
v 13.528422 7.479103 7.609097
v 13.577563 7.479103 6.931580
v 13.577563 7.479103 6.882439
v 14.488594 7.479103 6.882439
v 14.488594 7.479103 6.931580
v 13.528422 7.479103 6.229492
v 13.577563 7.479103 6.229492
v 12.641962 7.479103 6.180351
v 13.528422 7.479103 6.180351
v 12.592819 7.479103 6.180351
v 11.681790 7.479103 6.229492
v 11.681790 7.479103 6.180351
v 12.592819 7.479103 5.502834
v 12.641962 7.479103 5.502834
v 13.577563 7.479103 6.180351
v 14.488594 7.479103 6.180351
v 14.488594 7.479103 6.229492
v 13.528422 7.479103 5.502834
v 13.577563 7.479103 5.502834
v 11.681790 7.501400 7.609097
v 14.488594 7.501400 7.609097
v 14.488594 7.501400 5.502834
v 12.617391 7.501400 5.502834
v 11.681790 7.501400 5.502834
v 2.327551 7.501400 7.609097
v 2.278410 7.501400 7.609097
v 2.278410 7.501400 6.931580
v 2.327551 7.501400 6.931580
v 2.327551 7.501400 6.882439
v 2.278410 7.501400 6.882439
v 1.391949 7.501400 7.609097
v 1.342808 7.501400 7.609097
v 1.342808 7.501400 6.931580
v 1.391949 7.501400 6.931580
v 1.391949 7.501400 6.882439
v 1.342808 7.501400 6.882439
v 2.278410 7.501400 6.229492
v 2.327551 7.501400 6.229492
v 2.327551 7.501400 6.180351
v 2.278410 7.501400 6.180351
v 3.238581 7.501400 6.882439
v 3.238581 7.501400 6.931580
v 1.342808 7.501400 6.229492
v 1.391949 7.501400 6.229492
v 1.391949 7.501400 6.180351
v 1.342808 7.501400 6.180351
v 2.278410 7.501400 5.502834
v 2.327551 7.501400 5.502834
v 3.238581 7.501400 6.180351
v 3.238581 7.501400 6.229492
v 1.342808 7.501400 5.502834
v 1.391949 7.501400 5.502834
v 0.431777 7.501400 6.931580
v 0.431777 7.501400 6.882439
v 0.431777 7.501400 6.229492
v 0.431777 7.501400 6.180351
v 2.278410 7.479103 7.609097
v 2.327551 7.479103 7.609097
v 2.327551 7.479103 6.931580
v 2.278410 7.479103 6.931580
v 2.278410 7.479103 6.882439
v 1.391949 7.479103 6.882439
v 1.391949 7.479103 6.931580
v 2.327551 7.479103 6.882439
v 3.238581 7.479103 6.931580
v 3.238581 7.479103 6.882439
v 2.327551 7.479103 6.229492
v 2.278410 7.479103 6.229492
v 1.342808 7.479103 7.609097
v 1.391949 7.479103 7.609097
v 1.342808 7.479103 6.931580
v 1.342808 7.479103 6.882439
v 0.431777 7.479103 6.882439
v 0.431777 7.479103 6.931580
v 1.391949 7.479103 6.229492
v 1.342808 7.479103 6.229492
v 2.278410 7.479103 6.180351
v 1.391949 7.479103 6.180351
v 2.327551 7.479103 6.180351
v 3.238581 7.479103 6.229492
v 3.238581 7.479103 6.180351
v 2.327551 7.479103 5.502834
v 2.278410 7.479103 5.502834
v 1.342808 7.479103 6.180351
v 0.431777 7.479103 6.180351
v 0.431777 7.479103 6.229492
v 1.391949 7.479103 5.502834
v 1.342808 7.479103 5.502834
v 3.238581 7.501400 7.609097
v 0.431777 7.501400 7.609097
v 0.431777 7.501400 5.502834
v 2.302980 7.501400 5.502834
v 3.238581 7.501400 5.502834
v -1.422455 7.501400 7.609097
v -1.471596 7.501400 7.609097
v -1.471596 7.501400 6.931580
v -1.422455 7.501400 6.931580
v -1.422455 7.501400 6.882439
v -1.471596 7.501400 6.882439
v -2.358057 7.501400 7.609097
v -2.407199 7.501400 7.609097
v -2.407199 7.501400 6.931580
v -2.358057 7.501400 6.931580
v -2.358057 7.501400 6.882439
v -2.407199 7.501400 6.882439
v -1.471596 7.501400 6.229492
v -1.422455 7.501400 6.229492
v -1.422455 7.501400 6.180351
v -1.471596 7.501400 6.180351
v -0.511424 7.501400 6.882439
v -0.511424 7.501400 6.931580
v -2.407199 7.501400 6.229492
v -2.358057 7.501400 6.229492
v -2.358057 7.501400 6.180351
v -2.407199 7.501400 6.180351
v -1.471596 7.501400 5.502834
v -1.422455 7.501400 5.502834
v -0.511424 7.501400 6.180351
v -0.511424 7.501400 6.229492
v -2.407199 7.501400 5.502834
v -2.358057 7.501400 5.502834
v -3.318229 7.501400 6.931580
v -3.318229 7.501400 6.882439
v -3.318229 7.501400 6.229492
v -3.318229 7.501400 6.180351
v -1.471596 7.479103 7.609097
v -1.422455 7.479103 7.609097
v -1.422455 7.479103 6.931580
v -1.471596 7.479103 6.931580
v -1.471596 7.479103 6.882439
v -2.358057 7.479103 6.882439
v -2.358057 7.479103 6.931580
v -1.422455 7.479103 6.882439
v -0.511424 7.479103 6.931580
v -0.511424 7.479103 6.882439
v -1.422455 7.479103 6.229492
v -1.471596 7.479103 6.229492
v -2.407199 7.479103 7.609097
v -2.358057 7.479103 7.609097
v -2.407199 7.479103 6.931580
v -2.407199 7.479103 6.882439
v -3.318229 7.479103 6.882439
v -3.318229 7.479103 6.931580
v -2.358057 7.479103 6.229492
v -2.407199 7.479103 6.229492
v -1.471596 7.479103 6.180351
v -2.358057 7.479103 6.180351
v -1.422455 7.479103 6.180351
v -0.511424 7.479103 6.229492
v -0.511424 7.479103 6.180351
v -1.422455 7.479103 5.502834
v -1.471596 7.479103 5.502834
v -2.407199 7.479103 6.180351
v -3.318229 7.479103 6.180351
v -3.318229 7.479103 6.229492
v -2.358057 7.479103 5.502834
v -2.407199 7.479103 5.502834
v -0.511424 7.501400 7.609097
v -3.318229 7.501400 7.609097
v -3.318229 7.501400 5.502834
v -1.447026 7.501400 5.502834
v -0.511424 7.501400 5.502834
vt 0.983466 0.466830
vt 0.983169 0.434088
vt 0.835321 0.437863
vt 0.835571 0.463777
vt 0.808195 0.463539
vt 0.808271 0.438087
vt 0.985891 0.241315
vt 0.985641 0.208562
vt 0.837723 0.211871
vt 0.837792 0.238119
vt 0.811239 0.237705
vt 0.810249 0.211986
vt 0.660247 0.436766
vt 0.661184 0.462480
vt 0.633706 0.462542
vt 0.633690 0.436294
vt 0.804214 0.664516
vt 0.837188 0.664557
vt 0.663325 0.210921
vt 0.663276 0.236438
vt 0.636194 0.236598
vt 0.635958 0.210791
vt 0.485596 0.432782
vt 0.485775 0.465535
vt 0.629833 0.663698
vt 0.662810 0.663745
vt 0.488173 0.207612
vt 0.488472 0.240344
vt 0.841184 0.010711
vt 0.808206 0.010732
vt 0.666390 0.009919
vt 0.633417 0.010013
vt 0.983212 0.444724
vt 0.983246 0.455848
vt 0.827758 0.456629
vt 0.827558 0.444853
vt 0.816073 0.444782
vt 0.818554 0.230465
vt 0.830060 0.230874
vt 0.815984 0.456378
vt 0.826446 0.664502
vt 0.815211 0.664448
vt 0.653358 0.455512
vt 0.652913 0.443989
vt 0.985649 0.219203
vt 0.985678 0.230333
vt 0.829891 0.218998
vt 0.818087 0.218942
vt 0.818951 0.010768
vt 0.830186 0.010801
vt 0.655481 0.229739
vt 0.655566 0.218114
vt 0.641405 0.443559
vt 0.643994 0.229650
vt 0.641552 0.455432
vt 0.652066 0.663686
vt 0.640830 0.663630
vt 0.485791 0.454894
vt 0.485785 0.443764
vt 0.643800 0.217903
vt 0.644160 0.010025
vt 0.655394 0.010034
vt 0.488450 0.229712
vt 0.488406 0.218592
vt 0.014611 0.023621
vt 0.014611 0.640683
vt 0.477662 0.640683
vt 0.477662 0.234472
vt 0.477662 0.023621
vt 0.983466 0.466830
vt 0.983169 0.434088
vt 0.835321 0.437863
vt 0.835571 0.463777
vt 0.808195 0.463539
vt 0.808271 0.438087
vt 0.985891 0.241315
vt 0.985641 0.208562
vt 0.837723 0.211871
vt 0.837792 0.238119
vt 0.811239 0.237705
vt 0.810249 0.211986
vt 0.660247 0.436766
vt 0.661184 0.462480
vt 0.633706 0.462542
vt 0.633690 0.436294
vt 0.804214 0.664516
vt 0.837188 0.664557
vt 0.663325 0.210921
vt 0.663276 0.236438
vt 0.636194 0.236598
vt 0.635958 0.210791
vt 0.485596 0.432782
vt 0.485775 0.465535
vt 0.629833 0.663698
vt 0.662810 0.663745
vt 0.488173 0.207612
vt 0.488472 0.240344
vt 0.841184 0.010711
vt 0.808206 0.010732
vt 0.666390 0.009919
vt 0.633417 0.010013
vt 0.983212 0.444724
vt 0.983246 0.455848
vt 0.827758 0.456629
vt 0.827558 0.444853
vt 0.816073 0.444782
vt 0.818554 0.230465
vt 0.830060 0.230874
vt 0.815984 0.456378
vt 0.826446 0.664502
vt 0.815211 0.664448
vt 0.653358 0.455512
vt 0.652913 0.443989
vt 0.985649 0.219203
vt 0.985678 0.230333
vt 0.829891 0.218998
vt 0.818087 0.218942
vt 0.818951 0.010768
vt 0.830186 0.010801
vt 0.655481 0.229739
vt 0.655566 0.218114
vt 0.641405 0.443559
vt 0.643994 0.229650
vt 0.641552 0.455432
vt 0.652066 0.663686
vt 0.640830 0.663630
vt 0.485791 0.454894
vt 0.485785 0.443764
vt 0.643800 0.217903
vt 0.644160 0.010025
vt 0.655394 0.010034
vt 0.488450 0.229712
vt 0.488406 0.218592
vt 0.014611 0.023621
vt 0.014611 0.640683
vt 0.477662 0.640683
vt 0.477662 0.234472
vt 0.477662 0.023621
vt 0.983466 0.466830
vt 0.983169 0.434088
vt 0.835321 0.437863
vt 0.835571 0.463777
vt 0.808195 0.463539
vt 0.808271 0.438087
vt 0.985891 0.241315
vt 0.985641 0.208562
vt 0.837723 0.211871
vt 0.837792 0.238119
vt 0.811239 0.237705
vt 0.810249 0.211986
vt 0.660247 0.436766
vt 0.661184 0.462480
vt 0.633706 0.462542
vt 0.633690 0.436294
vt 0.804214 0.664516
vt 0.837188 0.664557
vt 0.663325 0.210921
vt 0.663276 0.236438
vt 0.636194 0.236598
vt 0.635958 0.210791
vt 0.485596 0.432782
vt 0.485775 0.465535
vt 0.629833 0.663698
vt 0.662810 0.663745
vt 0.488173 0.207612
vt 0.488472 0.240344
vt 0.841184 0.010711
vt 0.808206 0.010732
vt 0.666390 0.009919
vt 0.633417 0.010013
vt 0.983212 0.444724
vt 0.983246 0.455848
vt 0.827758 0.456629
vt 0.827558 0.444853
vt 0.816073 0.444782
vt 0.818554 0.230465
vt 0.830060 0.230874
vt 0.815984 0.456378
vt 0.826446 0.664502
vt 0.815211 0.664448
vt 0.653358 0.455512
vt 0.652913 0.443989
vt 0.985649 0.219203
vt 0.985678 0.230333
vt 0.829891 0.218998
vt 0.818087 0.218942
vt 0.818951 0.010768
vt 0.830186 0.010801
vt 0.655481 0.229739
vt 0.655566 0.218114
vt 0.641405 0.443559
vt 0.643994 0.229650
vt 0.641552 0.455432
vt 0.652066 0.663686
vt 0.640830 0.663630
vt 0.485791 0.454894
vt 0.485785 0.443764
vt 0.643800 0.217903
vt 0.644160 0.010025
vt 0.655394 0.010034
vt 0.488450 0.229712
vt 0.488406 0.218592
vt 0.014611 0.023621
vt 0.014611 0.640683
vt 0.477662 0.640683
vt 0.477662 0.234472
vt 0.477662 0.023621
vt 0.983466 0.466830
vt 0.983169 0.434088
vt 0.835321 0.437863
vt 0.835571 0.463777
vt 0.808195 0.463539
vt 0.808271 0.438087
vt 0.985891 0.241315
vt 0.985641 0.208562
vt 0.837723 0.211871
vt 0.837792 0.238119
vt 0.811239 0.237705
vt 0.810249 0.211986
vt 0.660247 0.436766
vt 0.661184 0.462480
vt 0.633706 0.462542
vt 0.633690 0.436294
vt 0.804214 0.664516
vt 0.837188 0.664557
vt 0.663325 0.210921
vt 0.663276 0.236438
vt 0.636194 0.236598
vt 0.635958 0.210791
vt 0.485596 0.432782
vt 0.485775 0.465535
vt 0.629833 0.663698
vt 0.662810 0.663745
vt 0.488173 0.207612
vt 0.488472 0.240344
vt 0.841184 0.010711
vt 0.808206 0.010732
vt 0.666390 0.009919
vt 0.633417 0.010013
vt 0.983212 0.444724
vt 0.983246 0.455848
vt 0.827758 0.456629
vt 0.827558 0.444853
vt 0.816073 0.444782
vt 0.818554 0.230465
vt 0.830060 0.230874
vt 0.815984 0.456378
vt 0.826446 0.664502
vt 0.815211 0.664448
vt 0.653358 0.455512
vt 0.652913 0.443989
vt 0.985649 0.219203
vt 0.985678 0.230333
vt 0.829891 0.218998
vt 0.818087 0.218942
vt 0.818951 0.010768
vt 0.830186 0.010801
vt 0.655481 0.229739
vt 0.655566 0.218114
vt 0.641405 0.443559
vt 0.643994 0.229650
vt 0.641552 0.455432
vt 0.652066 0.663686
vt 0.640830 0.663630
vt 0.485791 0.454894
vt 0.485785 0.443764
vt 0.643800 0.217903
vt 0.644160 0.010025
vt 0.655394 0.010034
vt 0.488450 0.229712
vt 0.488406 0.218592
vt 0.014611 0.023621
vt 0.014611 0.640683
vt 0.477662 0.640683
vt 0.477662 0.234472
vt 0.477662 0.023621
vt 0.983466 0.466830
vt 0.983169 0.434088
vt 0.835321 0.437863
vt 0.835571 0.463777
vt 0.808195 0.463539
vt 0.808271 0.438087
vt 0.985891 0.241315
vt 0.985641 0.208562
vt 0.837723 0.211871
vt 0.837792 0.238119
vt 0.811239 0.237705
vt 0.810249 0.211986
vt 0.660247 0.436766
vt 0.661184 0.462480
vt 0.633706 0.462542
vt 0.633690 0.436294
vt 0.804214 0.664516
vt 0.837188 0.664557
vt 0.663325 0.210921
vt 0.663276 0.236438
vt 0.636194 0.236598
vt 0.635958 0.210791
vt 0.485596 0.432782
vt 0.485775 0.465535
vt 0.629833 0.663698
vt 0.662810 0.663745
vt 0.488173 0.207612
vt 0.488472 0.240344
vt 0.841184 0.010711
vt 0.808206 0.010732
vt 0.666390 0.009919
vt 0.633417 0.010013
vt 0.983212 0.444724
vt 0.983246 0.455848
vt 0.827758 0.456629
vt 0.827558 0.444853
vt 0.816073 0.444782
vt 0.818554 0.230465
vt 0.830060 0.230874
vt 0.815984 0.456378
vt 0.826446 0.664502
vt 0.815211 0.664448
vt 0.653358 0.455512
vt 0.652913 0.443989
vt 0.985649 0.219203
vt 0.985678 0.230333
vt 0.829891 0.218998
vt 0.818087 0.218942
vt 0.818951 0.010768
vt 0.830186 0.010801
vt 0.655481 0.229739
vt 0.655566 0.218114
vt 0.641405 0.443559
vt 0.643994 0.229650
vt 0.641552 0.455432
vt 0.652066 0.663686
vt 0.640830 0.663630
vt 0.485791 0.454894
vt 0.485785 0.443764
vt 0.643800 0.217903
vt 0.644160 0.010025
vt 0.655394 0.010034
vt 0.488450 0.229712
vt 0.488406 0.218592
vt 0.014611 0.023621
vt 0.014611 0.640683
vt 0.477662 0.640683
vt 0.477662 0.234472
vt 0.477662 0.023621
vt 0.983466 0.466830
vt 0.983169 0.434088
vt 0.835321 0.437863
vt 0.835571 0.463777
vt 0.808195 0.463539
vt 0.808271 0.438087
vt 0.985891 0.241315
vt 0.985641 0.208562
vt 0.837723 0.211871
vt 0.837792 0.238119
vt 0.811239 0.237705
vt 0.810249 0.211986
vt 0.660247 0.436766
vt 0.661184 0.462480
vt 0.633706 0.462542
vt 0.633690 0.436294
vt 0.804214 0.664516
vt 0.837188 0.664557
vt 0.663325 0.210921
vt 0.663276 0.236438
vt 0.636194 0.236598
vt 0.635958 0.210791
vt 0.485596 0.432782
vt 0.485775 0.465535
vt 0.629833 0.663698
vt 0.662810 0.663745
vt 0.488173 0.207612
vt 0.488472 0.240344
vt 0.841184 0.010711
vt 0.808206 0.010732
vt 0.666390 0.009919
vt 0.633417 0.010013
vt 0.983212 0.444724
vt 0.983246 0.455848
vt 0.827758 0.456629
vt 0.827558 0.444853
vt 0.816073 0.444782
vt 0.818554 0.230465
vt 0.830060 0.230874
vt 0.815984 0.456378
vt 0.826446 0.664502
vt 0.815211 0.664448
vt 0.653358 0.455512
vt 0.652913 0.443989
vt 0.985649 0.219203
vt 0.985678 0.230333
vt 0.829891 0.218998
vt 0.818087 0.218942
vt 0.818951 0.010768
vt 0.830186 0.010801
vt 0.655481 0.229739
vt 0.655566 0.218114
vt 0.641405 0.443559
vt 0.643994 0.229650
vt 0.641552 0.455432
vt 0.652066 0.663686
vt 0.640830 0.663630
vt 0.485791 0.454894
vt 0.485785 0.443764
vt 0.643800 0.217903
vt 0.644160 0.010025
vt 0.655394 0.010034
vt 0.488450 0.229712
vt 0.488406 0.218592
vt 0.014611 0.023621
vt 0.014611 0.640683
vt 0.477662 0.640683
vt 0.477662 0.234472
vt 0.477662 0.023621
vt 0.983466 0.466830
vt 0.983169 0.434088
vt 0.835321 0.437863
vt 0.835571 0.463777
vt 0.808195 0.463539
vt 0.808271 0.438087
vt 0.985891 0.241315
vt 0.985641 0.208562
vt 0.837723 0.211871
vt 0.837792 0.238119
vt 0.811239 0.237705
vt 0.810249 0.211986
vt 0.660247 0.436766
vt 0.661184 0.462480
vt 0.633706 0.462542
vt 0.633690 0.436294
vt 0.804214 0.664516
vt 0.837188 0.664557
vt 0.663325 0.210921
vt 0.663276 0.236438
vt 0.636194 0.236598
vt 0.635958 0.210791
vt 0.485596 0.432782
vt 0.485775 0.465535
vt 0.629833 0.663698
vt 0.662810 0.663745
vt 0.488173 0.207612
vt 0.488472 0.240344
vt 0.841184 0.010711
vt 0.808206 0.010732
vt 0.666390 0.009919
vt 0.633417 0.010013
vt 0.983212 0.444724
vt 0.983246 0.455848
vt 0.827758 0.456629
vt 0.827558 0.444853
vt 0.816073 0.444782
vt 0.818554 0.230465
vt 0.830060 0.230874
vt 0.815984 0.456378
vt 0.826446 0.664502
vt 0.815211 0.664448
vt 0.653358 0.455512
vt 0.652913 0.443989
vt 0.985649 0.219203
vt 0.985678 0.230333
vt 0.829891 0.218998
vt 0.818087 0.218942
vt 0.818951 0.010768
vt 0.830186 0.010801
vt 0.655481 0.229739
vt 0.655566 0.218114
vt 0.641405 0.443559
vt 0.643994 0.229650
vt 0.641552 0.455432
vt 0.652066 0.663686
vt 0.640830 0.663630
vt 0.485791 0.454894
vt 0.485785 0.443764
vt 0.643800 0.217903
vt 0.644160 0.010025
vt 0.655394 0.010034
vt 0.488450 0.229712
vt 0.488406 0.218592
vt 0.014611 0.023621
vt 0.014611 0.640683
vt 0.477662 0.640683
vt 0.477662 0.234472
vt 0.477662 0.023621
vt 0.983466 0.466830
vt 0.983169 0.434088
vt 0.835321 0.437863
vt 0.835571 0.463777
vt 0.808195 0.463539
vt 0.808271 0.438087
vt 0.985891 0.241315
vt 0.985641 0.208562
vt 0.837723 0.211871
vt 0.837792 0.238119
vt 0.811239 0.237705
vt 0.810249 0.211986
vt 0.660247 0.436766
vt 0.661184 0.462480
vt 0.633706 0.462542
vt 0.633690 0.436294
vt 0.804214 0.664516
vt 0.837188 0.664557
vt 0.663325 0.210921
vt 0.663276 0.236438
vt 0.636194 0.236598
vt 0.635958 0.210791
vt 0.485596 0.432782
vt 0.485775 0.465535
vt 0.629833 0.663698
vt 0.662810 0.663745
vt 0.488173 0.207612
vt 0.488472 0.240344
vt 0.841184 0.010711
vt 0.808206 0.010732
vt 0.666390 0.009919
vt 0.633417 0.010013
vt 0.983212 0.444724
vt 0.983246 0.455848
vt 0.827758 0.456629
vt 0.827558 0.444853
vt 0.816073 0.444782
vt 0.818554 0.230465
vt 0.830060 0.230874
vt 0.815984 0.456378
vt 0.826446 0.664502
vt 0.815211 0.664448
vt 0.653358 0.455512
vt 0.652913 0.443989
vt 0.985649 0.219203
vt 0.985678 0.230333
vt 0.829891 0.218998
vt 0.818087 0.218942
vt 0.818951 0.010768
vt 0.830186 0.010801
vt 0.655481 0.229739
vt 0.655566 0.218114
vt 0.641405 0.443559
vt 0.643994 0.229650
vt 0.641552 0.455432
vt 0.652066 0.663686
vt 0.640830 0.663630
vt 0.485791 0.454894
vt 0.485785 0.443764
vt 0.643800 0.217903
vt 0.644160 0.010025
vt 0.655394 0.010034
vt 0.488450 0.229712
vt 0.488406 0.218592
vt 0.014611 0.023621
vt 0.014611 0.640683
vt 0.477662 0.640683
vt 0.477662 0.234472
vt 0.477662 0.023621
vt 0.983466 0.466830
vt 0.983169 0.434088
vt 0.835321 0.437863
vt 0.835571 0.463777
vt 0.808195 0.463539
vt 0.808271 0.438087
vt 0.985891 0.241315
vt 0.985641 0.208562
vt 0.837723 0.211871
vt 0.837792 0.238119
vt 0.811239 0.237705
vt 0.810249 0.211986
vt 0.660247 0.436766
vt 0.661184 0.462480
vt 0.633706 0.462542
vt 0.633690 0.436294
vt 0.804214 0.664516
vt 0.837188 0.664557
vt 0.663325 0.210921
vt 0.663276 0.236438
vt 0.636194 0.236598
vt 0.635958 0.210791
vt 0.485596 0.432782
vt 0.485775 0.465535
vt 0.629833 0.663698
vt 0.662810 0.663745
vt 0.488173 0.207612
vt 0.488472 0.240344
vt 0.841184 0.010711
vt 0.808206 0.010732
vt 0.666390 0.009919
vt 0.633417 0.010013
vt 0.983212 0.444724
vt 0.983246 0.455848
vt 0.827758 0.456629
vt 0.827558 0.444853
vt 0.816073 0.444782
vt 0.818554 0.230465
vt 0.830060 0.230874
vt 0.815984 0.456378
vt 0.826446 0.664502
vt 0.815211 0.664448
vt 0.653358 0.455512
vt 0.652913 0.443989
vt 0.985649 0.219203
vt 0.985678 0.230333
vt 0.829891 0.218998
vt 0.818087 0.218942
vt 0.818951 0.010768
vt 0.830186 0.010801
vt 0.655481 0.229739
vt 0.655566 0.218114
vt 0.641405 0.443559
vt 0.643994 0.229650
vt 0.641552 0.455432
vt 0.652066 0.663686
vt 0.640830 0.663630
vt 0.485791 0.454894
vt 0.485785 0.443764
vt 0.643800 0.217903
vt 0.644160 0.010025
vt 0.655394 0.010034
vt 0.488450 0.229712
vt 0.488406 0.218592
vt 0.014611 0.023621
vt 0.014611 0.640683
vt 0.477662 0.640683
vt 0.477662 0.234472
vt 0.477662 0.023621
vt 0.983466 0.466830
vt 0.983169 0.434088
vt 0.835321 0.437863
vt 0.835571 0.463777
vt 0.808195 0.463539
vt 0.808271 0.438087
vt 0.985891 0.241315
vt 0.985641 0.208562
vt 0.837723 0.211871
vt 0.837792 0.238119
vt 0.811239 0.237705
vt 0.810249 0.211986
vt 0.660247 0.436766
vt 0.661184 0.462480
vt 0.633706 0.462542
vt 0.633690 0.436294
vt 0.804214 0.664516
vt 0.837188 0.664557
vt 0.663325 0.210921
vt 0.663276 0.236438
vt 0.636194 0.236598
vt 0.635958 0.210791
vt 0.485596 0.432782
vt 0.485775 0.465535
vt 0.629833 0.663698
vt 0.662810 0.663745
vt 0.488173 0.207612
vt 0.488472 0.240344
vt 0.841184 0.010711
vt 0.808206 0.010732
vt 0.666390 0.009919
vt 0.633417 0.010013
vt 0.983212 0.444724
vt 0.983246 0.455848
vt 0.827758 0.456629
vt 0.827558 0.444853
vt 0.816073 0.444782
vt 0.818554 0.230465
vt 0.830060 0.230874
vt 0.815984 0.456378
vt 0.826446 0.664502
vt 0.815211 0.664448
vt 0.653358 0.455512
vt 0.652913 0.443989
vt 0.985649 0.219203
vt 0.985678 0.230333
vt 0.829891 0.218998
vt 0.818087 0.218942
vt 0.818951 0.010768
vt 0.830186 0.010801
vt 0.655481 0.229739
vt 0.655566 0.218114
vt 0.641405 0.443559
vt 0.643994 0.229650
vt 0.641552 0.455432
vt 0.652066 0.663686
vt 0.640830 0.663630
vt 0.485791 0.454894
vt 0.485785 0.443764
vt 0.643800 0.217903
vt 0.644160 0.010025
vt 0.655394 0.010034
vt 0.488450 0.229712
vt 0.488406 0.218592
vt 0.014611 0.023621
vt 0.014611 0.640683
vt 0.477662 0.640683
vt 0.477662 0.234472
vt 0.477662 0.023621
vt 0.983466 0.466830
vt 0.983169 0.434088
vt 0.835321 0.437863
vt 0.835571 0.463777
vt 0.808195 0.463539
vt 0.808271 0.438087
vt 0.985891 0.241315
vt 0.985641 0.208562
vt 0.837723 0.211871
vt 0.837792 0.238119
vt 0.811239 0.237705
vt 0.810249 0.211986
vt 0.660247 0.436766
vt 0.661184 0.462480
vt 0.633706 0.462542
vt 0.633690 0.436294
vt 0.804214 0.664516
vt 0.837188 0.664557
vt 0.663325 0.210921
vt 0.663276 0.236438
vt 0.636194 0.236598
vt 0.635958 0.210791
vt 0.485596 0.432782
vt 0.485775 0.465535
vt 0.629833 0.663698
vt 0.662810 0.663745
vt 0.488173 0.207612
vt 0.488472 0.240344
vt 0.841184 0.010711
vt 0.808206 0.010732
vt 0.666390 0.009919
vt 0.633417 0.010013
vt 0.983212 0.444724
vt 0.983246 0.455848
vt 0.827758 0.456629
vt 0.827558 0.444853
vt 0.816073 0.444782
vt 0.818554 0.230465
vt 0.830060 0.230874
vt 0.815984 0.456378
vt 0.826446 0.664502
vt 0.815211 0.664448
vt 0.653358 0.455512
vt 0.652913 0.443989
vt 0.985649 0.219203
vt 0.985678 0.230333
vt 0.829891 0.218998
vt 0.818087 0.218942
vt 0.818951 0.010768
vt 0.830186 0.010801
vt 0.655481 0.229739
vt 0.655566 0.218114
vt 0.641405 0.443559
vt 0.643994 0.229650
vt 0.641552 0.455432
vt 0.652066 0.663686
vt 0.640830 0.663630
vt 0.485791 0.454894
vt 0.485785 0.443764
vt 0.643800 0.217903
vt 0.644160 0.010025
vt 0.655394 0.010034
vt 0.488450 0.229712
vt 0.488406 0.218592
vt 0.014611 0.023621
vt 0.014611 0.640683
vt 0.477662 0.640683
vt 0.477662 0.234472
vt 0.477662 0.023621
vt 0.983466 0.466830
vt 0.983169 0.434088
vt 0.835321 0.437863
vt 0.835571 0.463777
vt 0.808195 0.463539
vt 0.808271 0.438087
vt 0.985891 0.241315
vt 0.985641 0.208562
vt 0.837723 0.211871
vt 0.837792 0.238119
vt 0.811239 0.237705
vt 0.810249 0.211986
vt 0.660247 0.436766
vt 0.661184 0.462480
vt 0.633706 0.462542
vt 0.633690 0.436294
vt 0.804214 0.664516
vt 0.837188 0.664557
vt 0.663325 0.210921
vt 0.663276 0.236438
vt 0.636194 0.236598
vt 0.635958 0.210791
vt 0.485596 0.432782
vt 0.485775 0.465535
vt 0.629833 0.663698
vt 0.662810 0.663745
vt 0.488173 0.207612
vt 0.488472 0.240344
vt 0.841184 0.010711
vt 0.808206 0.010732
vt 0.666390 0.009919
vt 0.633417 0.010013
vt 0.983212 0.444724
vt 0.983246 0.455848
vt 0.827758 0.456629
vt 0.827558 0.444853
vt 0.816073 0.444782
vt 0.818554 0.230465
vt 0.830060 0.230874
vt 0.815984 0.456378
vt 0.826446 0.664502
vt 0.815211 0.664448
vt 0.653358 0.455512
vt 0.652913 0.443989
vt 0.985649 0.219203
vt 0.985678 0.230333
vt 0.829891 0.218998
vt 0.818087 0.218942
vt 0.818951 0.010768
vt 0.830186 0.010801
vt 0.655481 0.229739
vt 0.655566 0.218114
vt 0.641405 0.443559
vt 0.643994 0.229650
vt 0.641552 0.455432
vt 0.652066 0.663686
vt 0.640830 0.663630
vt 0.485791 0.454894
vt 0.485785 0.443764
vt 0.643800 0.217903
vt 0.644160 0.010025
vt 0.655394 0.010034
vt 0.488450 0.229712
vt 0.488406 0.218592
vt 0.014611 0.023621
vt 0.014611 0.640683
vt 0.477662 0.640683
vt 0.477662 0.234472
vt 0.477662 0.023621
f 35/35 33/33 34/34
f 33/33 35/35 36/36
f 37/37 38/38 36/36
f 39/39 36/36 38/38
f 41/41 40/40 35/35
f 40/40 41/41 42/42
f 43/43 37/37 40/40
f 37/37 43/43 44/44
f 39/39 45/45 46/46
f 45/45 39/39 47/47
f 48/48 49/49 47/47
f 50/50 47/47 49/49
f 51/51 48/48 38/38
f 48/48 51/51 52/52
f 53/53 54/54 44/44
f 51/51 44/44 54/54
f 56/56 55/55 43/43
f 55/55 56/56 57/57
f 55/55 58/58 53/53
f 53/53 58/58 59/59
f 60/60 61/61 52/52
f 62/62 52/52 61/61
f 54/54 63/63 60/60
f 60/60 63/63 64/64
f 35/35 40/40 36/36
f 36/36 40/40 37/37
f 38/38 47/47 39/39
f 47/47 38/38 48/48
f 43/43 55/55 44/44
f 44/44 55/55 53/53
f 54/54 52/52 51/51
f 52/52 54/54 60/60
f 35/35 34/34 1/1
f 1/1 4/4 35/35
f 33/33 3/3 2/2
f 3/3 33/33 36/36
f 6/6 11/11 38/38
f 6/6 38/38 37/37
f 36/36 39/39 10/10
f 36/36 10/10 3/3
f 41/41 35/35 4/4
f 41/41 4/4 18/18
f 17/17 5/5 40/40
f 17/17 40/40 42/42
f 43/43 40/40 5/5
f 5/5 14/14 43/43
f 37/37 13/13 6/6
f 13/13 37/37 44/44
f 39/39 46/46 7/7
f 7/7 10/10 39/39
f 45/45 9/9 8/8
f 9/9 45/45 47/47
f 12/12 30/30 49/49
f 12/12 49/49 48/48
f 47/47 50/50 29/29
f 47/47 29/29 9/9
f 51/51 38/38 11/11
f 11/11 20/20 51/51
f 48/48 19/19 12/12
f 19/19 48/48 52/52
f 16/16 21/21 54/54
f 16/16 54/54 53/53
f 44/44 51/51 20/20
f 44/44 20/20 13/13
f 56/56 43/43 14/14
f 56/56 14/14 26/26
f 25/25 15/15 55/55
f 25/25 55/55 57/57
f 58/58 55/55 15/15
f 15/15 24/24 58/58
f 53/53 23/23 16/16
f 23/23 53/53 59/59
f 22/22 32/32 61/61
f 22/22 61/61 60/60
f 52/52 62/62 31/31
f 52/52 31/31 19/19
f 63/63 54/54 21/21
f 21/21 28/28 63/63
f 60/60 27/27 22/22
f 27/27 60/60 64/64
f 66/66 65/65 68/68
f 66/66 68/68 67/67
f 68/68 65/65 69/69
f 104/104 102/102 103/103
f 102/102 104/104 105/105
f 106/106 107/107 105/105
f 108/108 105/105 107/107
f 110/110 109/109 104/104
f 109/109 110/110 111/111
f 109/109 112/112 106/106
f 106/106 112/112 113/113
f 108/108 114/114 115/115
f 114/114 108/108 116/116
f 117/117 118/118 116/116
f 119/119 116/116 118/118
f 107/107 120/120 117/117
f 117/117 120/120 121/121
f 122/122 123/123 113/113
f 120/120 113/113 123/123
f 125/125 124/124 112/112
f 124/124 125/125 126/126
f 124/124 127/127 122/122
f 122/122 127/127 128/128
f 129/129 130/130 121/121
f 131/131 121/121 130/130
f 123/123 132/132 129/129
f 129/129 132/132 133/133
f 104/104 109/109 105/105
f 105/105 109/109 106/106
f 108/108 107/107 116/116
f 116/116 107/107 117/117
f 112/112 124/124 113/113
f 113/113 124/124 122/122
f 120/120 123/123 121/121
f 121/121 123/123 129/129
f 104/104 103/103 70/70
f 70/70 73/73 104/104
f 102/102 72/72 71/71
f 72/72 102/102 105/105
f 107/107 75/75 80/80
f 75/75 107/107 106/106
f 105/105 108/108 79/79
f 105/105 79/79 72/72
f 110/110 104/104 73/73
f 110/110 73/73 87/87
f 109/109 86/86 74/74
f 86/86 109/109 111/111
f 112/112 109/109 74/74
f 74/74 83/83 112/112
f 106/106 82/82 75/75
f 82/82 106/106 113/113
f 108/108 115/115 76/76
f 76/76 79/79 108/108
f 114/114 78/78 77/77
f 78/78 114/114 116/116
f 81/81 99/99 118/118
f 81/81 118/118 117/117
f 116/116 119/119 98/98
f 116/116 98/98 78/78
f 120/120 107/107 80/80
f 80/80 89/89 120/120
f 117/117 88/88 81/81
f 88/88 117/117 121/121
f 123/123 85/85 90/90
f 85/85 123/123 122/122
f 113/113 120/120 89/89
f 113/113 89/89 82/82
f 125/125 112/112 83/83
f 125/125 83/83 95/95
f 124/124 94/94 84/84
f 94/94 124/124 126/126
f 127/127 124/124 84/84
f 84/84 93/93 127/127
f 122/122 92/92 85/85
f 92/92 122/122 128/128
f 91/91 101/101 130/130
f 91/91 130/130 129/129
f 121/121 131/131 100/100
f 121/121 100/100 88/88
f 132/132 123/123 90/90
f 90/90 97/97 132/132
f 129/129 96/96 91/91
f 96/96 129/129 133/133
f 135/135 134/134 137/137
f 135/135 137/137 136/136
f 137/137 134/134 138/138
f 173/173 172/172 171/171
f 171/171 174/174 173/173
f 174/174 177/177 176/176
f 174/174 176/176 175/175
f 179/179 173/173 178/178
f 179/179 178/178 180/180
f 181/181 178/178 175/175
f 175/175 182/182 181/181
f 177/177 184/184 183/183
f 183/183 185/185 177/177
f 185/185 188/188 187/187
f 185/185 187/187 186/186
f 189/189 176/176 186/186
f 186/186 190/190 189/189
f 182/182 189/189 192/192
f 182/182 192/192 191/191
f 194/194 181/181 193/193
f 194/194 193/193 195/195
f 196/196 193/193 191/191
f 191/191 197/197 196/196
f 190/190 200/200 199/199
f 190/190 199/199 198/198
f 201/201 192/192 198/198
f 198/198 202/202 201/201
f 173/173 174/174 178/178
f 174/174 175/175 178/178
f 177/177 185/185 176/176
f 185/185 186/186 176/176
f 181/181 182/182 193/193
f 182/182 191/191 193/193
f 189/189 190/190 192/192
f 190/190 198/198 192/192
f 172/172 173/173 139/139
f 139/139 173/173 142/142
f 140/140 141/141 171/171
f 171/171 141/141 174/174
f 175/175 176/176 144/144
f 149/149 144/144 176/176
f 174/174 148/148 177/177
f 148/148 174/174 141/141
f 179/179 142/142 173/173
f 142/142 179/179 156/156
f 180/180 178/178 155/155
f 143/143 155/155 178/178
f 178/178 181/181 143/143
f 143/143 181/181 152/152
f 144/144 151/151 175/175
f 175/175 151/151 182/182
f 184/184 177/177 145/145
f 145/145 177/177 148/148
f 146/146 147/147 183/183
f 183/183 147/147 185/185
f 186/186 187/187 150/150
f 168/168 150/150 187/187
f 185/185 167/167 188/188
f 167/167 185/185 147/147
f 176/176 189/189 149/149
f 149/149 189/189 158/158
f 150/150 157/157 186/186
f 186/186 157/157 190/190
f 191/191 192/192 154/154
f 159/159 154/154 192/192
f 182/182 158/158 189/189
f 158/158 182/182 151/151
f 194/194 152/152 181/181
f 152/152 194/194 164/164
f 195/195 193/193 163/163
f 153/153 163/163 193/193
f 193/193 196/196 153/153
f 153/153 196/196 162/162
f 154/154 161/161 191/191
f 191/191 161/161 197/197
f 198/198 199/199 160/160
f 170/170 160/160 199/199
f 190/190 169/169 200/200
f 169/169 190/190 157/157
f 192/192 201/201 159/159
f 159/159 201/201 166/166
f 160/160 165/165 198/198
f 198/198 165/165 202/202
f 204/204 206/206 203/203
f 206/206 204/204 205/205
f 203/203 206/206 207/207
f 242/242 241/241 240/240
f 240/240 243/243 242/242
f 243/243 246/246 245/245
f 243/243 245/245 244/244
f 248/248 242/242 247/247
f 248/248 247/247 249/249
f 250/250 247/247 244/244
f 244/244 251/251 250/250
f 246/246 253/253 252/252
f 252/252 254/254 246/246
f 254/254 257/257 256/256
f 254/254 256/256 255/255
f 258/258 245/245 255/255
f 255/255 259/259 258/258
f 251/251 258/258 261/261
f 251/251 261/261 260/260
f 263/263 250/250 262/262
f 263/263 262/262 264/264
f 265/265 262/262 260/260
f 260/260 266/266 265/265
f 259/259 269/269 268/268
f 259/259 268/268 267/267
f 270/270 261/261 267/267
f 267/267 271/271 270/270
f 242/242 243/243 247/247
f 243/243 244/244 247/247
f 246/246 254/254 245/245
f 254/254 255/255 245/245
f 250/250 251/251 262/262
f 251/251 260/260 262/262
f 258/258 259/259 261/261
f 259/259 267/267 261/261
f 241/241 242/242 208/208
f 208/208 242/242 211/211
f 209/209 210/210 240/240
f 240/240 210/210 243/243
f 244/244 245/245 213/213
f 218/218 213/213 245/245
f 243/243 217/217 246/246
f 217/217 243/243 210/210
f 248/248 211/211 242/242
f 211/211 248/248 225/225
f 249/249 247/247 224/224
f 212/212 224/224 247/247
f 247/247 250/250 212/212
f 212/212 250/250 221/221
f 213/213 220/220 244/244
f 244/244 220/220 251/251
f 253/253 246/246 214/214
f 214/214 246/246 217/217
f 215/215 216/216 252/252
f 252/252 216/216 254/254
f 255/255 256/256 219/219
f 237/237 219/219 256/256
f 254/254 236/236 257/257
f 236/236 254/254 216/216
f 245/245 258/258 218/218
f 218/218 258/258 227/227
f 219/219 226/226 255/255
f 255/255 226/226 259/259
f 260/260 261/261 223/223
f 228/228 223/223 261/261
f 251/251 227/227 258/258
f 227/227 251/251 220/220
f 263/263 221/221 250/250
f 221/221 263/263 233/233
f 264/264 262/262 232/232
f 222/222 232/232 262/262
f 262/262 265/265 222/222
f 222/222 265/265 231/231
f 223/223 230/230 260/260
f 260/260 230/230 266/266
f 267/267 268/268 229/229
f 239/239 229/229 268/268
f 259/259 238/238 269/269
f 238/238 259/259 226/226
f 261/261 270/270 228/228
f 228/228 270/270 235/235
f 229/229 234/234 267/267
f 267/267 234/234 271/271
f 273/273 275/275 272/272
f 275/275 273/273 274/274
f 272/272 275/275 276/276
f 311/311 309/309 310/310
f 309/309 311/311 312/312
f 313/313 314/314 312/312
f 315/315 312/312 314/314
f 317/317 316/316 311/311
f 316/316 317/317 318/318
f 316/316 319/319 313/313
f 313/313 319/319 320/320
f 315/315 321/321 322/322
f 321/321 315/315 323/323
f 324/324 325/325 323/323
f 326/326 323/323 325/325
f 314/314 327/327 324/324
f 324/324 327/327 328/328
f 329/329 330/330 320/320
f 327/327 320/320 330/330
f 332/332 331/331 319/319
f 331/331 332/332 333/333
f 331/331 334/334 329/329
f 329/329 334/334 335/335
f 336/336 337/337 328/328
f 338/338 328/328 337/337
f 330/330 339/339 336/336
f 336/336 339/339 340/340
f 311/311 316/316 312/312
f 312/312 316/316 313/313
f 315/315 314/314 323/323
f 323/323 314/314 324/324
f 319/319 331/331 320/320
f 320/320 331/331 329/329
f 327/327 330/330 328/328
f 328/328 330/330 336/336
f 311/311 310/310 277/277
f 277/277 280/280 311/311
f 309/309 279/279 278/278
f 279/279 309/309 312/312
f 282/282 287/287 314/314
f 282/282 314/314 313/313
f 312/312 315/315 286/286
f 312/312 286/286 279/279
f 317/317 311/311 280/280
f 317/317 280/280 294/294
f 316/316 293/293 281/281
f 293/293 316/316 318/318
f 319/319 316/316 281/281
f 281/281 290/290 319/319
f 313/313 289/289 282/282
f 289/289 313/313 320/320
f 315/315 322/322 283/283
f 283/283 286/286 315/315
f 321/321 285/285 284/284
f 285/285 321/321 323/323
f 288/288 306/306 325/325
f 288/288 325/325 324/324
f 323/323 326/326 305/305
f 323/323 305/305 285/285
f 327/327 314/314 287/287
f 287/287 296/296 327/327
f 324/324 295/295 288/288
f 295/295 324/324 328/328
f 292/292 297/297 330/330
f 292/292 330/330 329/329
f 320/320 327/327 296/296
f 320/320 296/296 289/289
f 332/332 319/319 290/290
f 332/332 290/290 302/302
f 331/331 301/301 291/291
f 301/301 331/331 333/333
f 334/334 331/331 291/291
f 291/291 300/300 334/334
f 329/329 299/299 292/292
f 299/299 329/329 335/335
f 298/298 308/308 337/337
f 298/298 337/337 336/336
f 328/328 338/338 307/307
f 328/328 307/307 295/295
f 339/339 330/330 297/297
f 297/297 304/304 339/339
f 336/336 303/303 298/298
f 303/303 336/336 340/340
f 342/342 341/341 344/344
f 342/342 344/344 343/343
f 344/344 341/341 345/345
f 379/379 380/380 378/378
f 378/378 380/380 381/381
f 382/382 383/383 381/381
f 384/384 381/381 383/383
f 386/386 385/385 380/380
f 385/385 386/386 387/387
f 388/388 382/382 385/385
f 382/382 388/388 389/389
f 391/391 384/384 390/390
f 390/390 384/384 392/392
f 393/393 394/394 392/392
f 395/395 392/392 394/394
f 396/396 393/393 383/383
f 393/393 396/396 397/397
f 398/398 399/399 389/389
f 396/396 389/389 399/399
f 401/401 400/400 388/388
f 400/400 401/401 402/402
f 400/400 403/403 398/398
f 398/398 403/403 404/404
f 405/405 406/406 397/397
f 407/407 397/397 406/406
f 399/399 408/408 405/405
f 405/405 408/408 409/409
f 385/385 381/381 380/380
f 381/381 385/385 382/382
f 383/383 392/392 384/384
f 392/392 383/383 393/393
f 400/400 389/389 388/388
f 389/389 400/400 398/398
f 399/399 397/397 396/396
f 397/397 399/399 405/405
f 380/380 379/379 346/346
f 346/346 349/349 380/380
f 378/378 348/348 347/347
f 348/348 378/378 381/381
f 383/383 351/351 356/356
f 351/351 383/383 382/382
f 381/381 384/384 355/355
f 381/381 355/355 348/348
f 386/386 380/380 349/349
f 386/386 349/349 363/363
f 385/385 362/362 350/350
f 362/362 385/385 387/387
f 388/388 385/385 350/350
f 350/350 359/359 388/388
f 382/382 358/358 351/351
f 358/358 382/382 389/389
f 384/384 391/391 352/352
f 352/352 355/355 384/384
f 390/390 354/354 353/353
f 354/354 390/390 392/392
f 394/394 357/357 375/375
f 357/357 394/394 393/393
f 392/392 395/395 374/374
f 392/392 374/374 354/354
f 396/396 383/383 356/356
f 356/356 365/365 396/396
f 393/393 364/364 357/357
f 364/364 393/393 397/397
f 399/399 361/361 366/366
f 361/361 399/399 398/398
f 389/389 396/396 365/365
f 389/389 365/365 358/358
f 401/401 388/388 359/359
f 401/401 359/359 371/371
f 400/400 370/370 360/360
f 370/370 400/400 402/402
f 403/403 400/400 360/360
f 360/360 369/369 403/403
f 398/398 368/368 361/361
f 368/368 398/398 404/404
f 406/406 367/367 377/377
f 367/367 406/406 405/405
f 397/397 407/407 376/376
f 397/397 376/376 364/364
f 408/408 399/399 366/366
f 366/366 373/373 408/408
f 405/405 372/372 367/367
f 372/372 405/405 409/409
f 411/411 410/410 413/413
f 411/411 413/413 412/412
f 413/413 410/410 414/414
f 449/449 448/448 447/447
f 447/447 450/450 449/449
f 450/450 453/453 452/452
f 450/450 452/452 451/451
f 455/455 449/449 454/454
f 455/455 454/454 456/456
f 457/457 454/454 451/451
f 451/451 458/458 457/457
f 453/453 460/460 459/459
f 459/459 461/461 453/453
f 461/461 464/464 463/463
f 461/461 463/463 462/462
f 465/465 452/452 462/462
f 462/462 466/466 465/465
f 458/458 465/465 468/468
f 458/458 468/468 467/467
f 470/470 457/457 469/469
f 470/470 469/469 471/471
f 472/472 469/469 467/467
f 467/467 473/473 472/472
f 466/466 476/476 475/475
f 466/466 475/475 474/474
f 477/477 468/468 474/474
f 474/474 478/478 477/477
f 449/449 450/450 454/454
f 450/450 451/451 454/454
f 453/453 461/461 452/452
f 461/461 462/462 452/452
f 457/457 458/458 469/469
f 458/458 467/467 469/469
f 465/465 466/466 468/468
f 466/466 474/474 468/468
f 448/448 449/449 415/415
f 415/415 449/449 418/418
f 416/416 417/417 447/447
f 447/447 417/417 450/450
f 452/452 420/420 451/451
f 420/420 452/452 425/425
f 453/453 450/450 424/424
f 417/417 424/424 450/450
f 449/449 455/455 418/418
f 432/432 418/418 455/455
f 454/454 431/431 456/456
f 431/431 454/454 419/419
f 454/454 457/457 419/419
f 419/419 457/457 428/428
f 420/420 427/427 451/451
f 451/451 427/427 458/458
f 460/460 453/453 421/421
f 421/421 453/453 424/424
f 422/422 423/423 459/459
f 459/459 423/423 461/461
f 463/463 426/426 462/462
f 426/426 463/463 444/444
f 464/464 461/461 443/443
f 423/423 443/443 461/461
f 452/452 465/465 425/425
f 425/425 465/465 434/434
f 426/426 433/433 462/462
f 462/462 433/433 466/466
f 468/468 430/430 467/467
f 430/430 468/468 435/435
f 465/465 458/458 434/434
f 427/427 434/434 458/458
f 457/457 470/470 428/428
f 440/440 428/428 470/470
f 469/469 439/439 471/471
f 439/439 469/469 429/429
f 469/469 472/472 429/429
f 429/429 472/472 438/438
f 430/430 437/437 467/467
f 467/467 437/437 473/473
f 475/475 436/436 474/474
f 436/436 475/475 446/446
f 476/476 466/466 445/445
f 433/433 445/445 466/466
f 468/468 477/477 435/435
f 435/435 477/477 442/442
f 436/436 441/441 474/474
f 474/474 441/441 478/478
f 480/480 482/482 479/479
f 482/482 480/480 481/481
f 479/479 482/482 483/483
f 518/518 517/517 516/516
f 516/516 519/519 518/518
f 519/519 522/522 521/521
f 519/519 521/521 520/520
f 524/524 518/518 523/523
f 524/524 523/523 525/525
f 526/526 523/523 520/520
f 520/520 527/527 526/526
f 522/522 529/529 528/528
f 528/528 530/530 522/522
f 530/530 533/533 532/532
f 530/530 532/532 531/531
f 534/534 521/521 531/531
f 531/531 535/535 534/534
f 527/527 534/534 537/537
f 527/527 537/537 536/536
f 539/539 526/526 538/538
f 539/539 538/538 540/540
f 541/541 538/538 536/536
f 536/536 542/542 541/541
f 535/535 545/545 544/544
f 535/535 544/544 543/543
f 546/546 537/537 543/543
f 543/543 547/547 546/546
f 518/518 519/519 523/523
f 519/519 520/520 523/523
f 522/522 530/530 521/521
f 530/530 531/531 521/521
f 526/526 527/527 538/538
f 527/527 536/536 538/538
f 534/534 535/535 537/537
f 535/535 543/543 537/537
f 517/517 518/518 484/484
f 484/484 518/518 487/487
f 485/485 486/486 516/516
f 516/516 486/486 519/519
f 521/521 489/489 520/520
f 489/489 521/521 494/494
f 522/522 519/519 493/493
f 486/486 493/493 519/519
f 518/518 524/524 487/487
f 501/501 487/487 524/524
f 523/523 500/500 525/525
f 500/500 523/523 488/488
f 523/523 526/526 488/488
f 488/488 526/526 497/497
f 489/489 496/496 520/520
f 520/520 496/496 527/527
f 529/529 522/522 490/490
f 490/490 522/522 493/493
f 491/491 492/492 528/528
f 528/528 492/492 530/530
f 532/532 495/495 531/531
f 495/495 532/532 513/513
f 533/533 530/530 512/512
f 492/492 512/512 530/530
f 521/521 534/534 494/494
f 494/494 534/534 503/503
f 495/495 502/502 531/531
f 531/531 502/502 535/535
f 537/537 499/499 536/536
f 499/499 537/537 504/504
f 534/534 527/527 503/503
f 496/496 503/503 527/527
f 526/526 539/539 497/497
f 509/509 497/497 539/539
f 538/538 508/508 540/540
f 508/508 538/538 498/498
f 538/538 541/541 498/498
f 498/498 541/541 507/507
f 499/499 506/506 536/536
f 536/536 506/506 542/542
f 544/544 505/505 543/543
f 505/505 544/544 515/515
f 545/545 535/535 514/514
f 502/502 514/514 535/535
f 537/537 546/546 504/504
f 504/504 546/546 511/511
f 505/505 510/510 543/543
f 543/543 510/510 547/547
f 549/549 551/551 548/548
f 551/551 549/549 550/550
f 548/548 551/551 552/552
f 587/587 585/585 586/586
f 585/585 587/587 588/588
f 589/589 590/590 588/588
f 591/591 588/588 590/590
f 593/593 592/592 587/587
f 592/592 593/593 594/594
f 592/592 595/595 589/589
f 589/589 595/595 596/596
f 591/591 597/597 598/598
f 597/597 591/591 599/599
f 600/600 601/601 599/599
f 602/602 599/599 601/601
f 590/590 603/603 600/600
f 600/600 603/603 604/604
f 605/605 606/606 596/596
f 603/603 596/596 606/606
f 608/608 607/607 595/595
f 607/607 608/608 609/609
f 607/607 610/610 605/605
f 605/605 610/610 611/611
f 612/612 613/613 604/604
f 614/614 604/604 613/613
f 606/606 615/615 612/612
f 612/612 615/615 616/616
f 587/587 592/592 588/588
f 588/588 592/592 589/589
f 591/591 590/590 599/599
f 599/599 590/590 600/600
f 595/595 607/607 596/596
f 596/596 607/607 605/605
f 603/603 606/606 604/604
f 604/604 606/606 612/612
f 587/587 586/586 553/553
f 553/553 556/556 587/587
f 585/585 555/555 554/554
f 555/555 585/585 588/588
f 590/590 589/589 558/558
f 590/590 558/558 563/563
f 562/562 555/555 588/588
f 562/562 588/588 591/591
f 556/556 570/570 593/593
f 556/556 593/593 587/587
f 592/592 594/594 569/569
f 592/592 569/569 557/557
f 595/595 592/592 557/557
f 557/557 566/566 595/595
f 589/589 565/565 558/558
f 565/565 589/589 596/596
f 591/591 598/598 559/559
f 559/559 562/562 591/591
f 597/597 561/561 560/560
f 561/561 597/597 599/599
f 601/601 600/600 564/564
f 601/601 564/564 582/582
f 581/581 561/561 599/599
f 581/581 599/599 602/602
f 603/603 590/590 563/563
f 563/563 572/572 603/603
f 600/600 571/571 564/564
f 571/571 600/600 604/604
f 606/606 605/605 568/568
f 606/606 568/568 573/573
f 572/572 565/565 596/596
f 572/572 596/596 603/603
f 566/566 578/578 608/608
f 566/566 608/608 595/595
f 607/607 609/609 577/577
f 607/607 577/577 567/567
f 610/610 607/607 567/567
f 567/567 576/576 610/610
f 605/605 575/575 568/568
f 575/575 605/605 611/611
f 613/613 612/612 574/574
f 613/613 574/574 584/584
f 583/583 571/571 604/604
f 583/583 604/604 614/614
f 615/615 606/606 573/573
f 573/573 580/580 615/615
f 612/612 579/579 574/574
f 579/579 612/612 616/616
f 618/618 617/617 620/620
f 618/618 620/620 619/619
f 620/620 617/617 621/621
f 656/656 654/654 655/655
f 654/654 656/656 657/657
f 658/658 659/659 657/657
f 660/660 657/657 659/659
f 662/662 661/661 656/656
f 661/661 662/662 663/663
f 661/661 664/664 658/658
f 658/658 664/664 665/665
f 660/660 666/666 667/667
f 666/666 660/660 668/668
f 669/669 670/670 668/668
f 671/671 668/668 670/670
f 659/659 672/672 669/669
f 669/669 672/672 673/673
f 674/674 675/675 665/665
f 672/672 665/665 675/675
f 677/677 676/676 664/664
f 676/676 677/677 678/678
f 676/676 679/679 674/674
f 674/674 679/679 680/680
f 681/681 682/682 673/673
f 683/683 673/673 682/682
f 675/675 684/684 681/681
f 681/681 684/684 685/685
f 656/656 661/661 657/657
f 657/657 661/661 658/658
f 660/660 659/659 668/668
f 668/668 659/659 669/669
f 664/664 676/676 665/665
f 665/665 676/676 674/674
f 672/672 675/675 673/673
f 673/673 675/675 681/681
f 656/656 655/655 622/622
f 622/622 625/625 656/656
f 654/654 624/624 623/623
f 624/624 654/654 657/657
f 659/659 658/658 627/627
f 659/659 627/627 632/632
f 631/631 624/624 657/657
f 631/631 657/657 660/660
f 625/625 639/639 662/662
f 625/625 662/662 656/656
f 661/661 663/663 638/638
f 661/661 638/638 626/626
f 664/664 661/661 626/626
f 626/626 635/635 664/664
f 658/658 634/634 627/627
f 634/634 658/658 665/665
f 660/660 667/667 628/628
f 628/628 631/631 660/660
f 666/666 630/630 629/629
f 630/630 666/666 668/668
f 670/670 669/669 633/633
f 670/670 633/633 651/651
f 650/650 630/630 668/668
f 650/650 668/668 671/671
f 672/672 659/659 632/632
f 632/632 641/641 672/672
f 669/669 640/640 633/633
f 640/640 669/669 673/673
f 675/675 674/674 637/637
f 675/675 637/637 642/642
f 641/641 634/634 665/665
f 641/641 665/665 672/672
f 635/635 647/647 677/677
f 635/635 677/677 664/664
f 676/676 678/678 646/646
f 676/676 646/646 636/636
f 679/679 676/676 636/636
f 636/636 645/645 679/679
f 674/674 644/644 637/637
f 644/644 674/674 680/680
f 682/682 681/681 643/643
f 682/682 643/643 653/653
f 652/652 640/640 673/673
f 652/652 673/673 683/683
f 684/684 675/675 642/642
f 642/642 649/649 684/684
f 681/681 648/648 643/643
f 648/648 681/681 685/685
f 687/687 686/686 689/689
f 687/687 689/689 688/688
f 689/689 686/686 690/690
f 725/725 724/724 723/723
f 723/723 726/726 725/725
f 728/728 726/726 729/729
f 726/726 728/728 727/727
f 731/731 725/725 730/730
f 731/731 730/730 732/732
f 733/733 730/730 727/727
f 727/727 734/734 733/733
f 729/729 736/736 735/735
f 735/735 737/737 729/729
f 737/737 740/740 739/739
f 737/737 739/739 738/738
f 741/741 728/728 738/738
f 738/738 742/742 741/741
f 744/744 734/734 741/741
f 734/734 744/744 743/743
f 746/746 733/733 745/745
f 746/746 745/745 747/747
f 748/748 745/745 743/743
f 743/743 749/749 748/748
f 742/742 752/752 751/751
f 742/742 751/751 750/750
f 753/753 744/744 750/750
f 750/750 754/754 753/753
f 725/725 726/726 730/730
f 726/726 727/727 730/730
f 729/729 737/737 728/728
f 737/737 738/738 728/728
f 733/733 734/734 745/745
f 734/734 743/743 745/745
f 741/741 742/742 744/744
f 742/742 750/750 744/744
f 724/724 725/725 691/691
f 691/691 725/725 694/694
f 692/692 693/693 723/723
f 723/723 693/693 726/726
f 728/728 696/696 727/727
f 696/696 728/728 701/701
f 729/729 726/726 700/700
f 693/693 700/700 726/726
f 725/725 731/731 694/694
f 708/708 694/694 731/731
f 730/730 707/707 732/732
f 707/707 730/730 695/695
f 730/730 733/733 695/695
f 695/695 733/733 704/704
f 696/696 703/703 727/727
f 727/727 703/703 734/734
f 736/736 729/729 697/697
f 697/697 729/729 700/700
f 698/698 699/699 735/735
f 735/735 699/699 737/737
f 739/739 702/702 738/738
f 702/702 739/739 720/720
f 740/740 737/737 719/719
f 699/699 719/719 737/737
f 728/728 741/741 701/701
f 701/701 741/741 710/710
f 702/702 709/709 738/738
f 738/738 709/709 742/742
f 744/744 706/706 743/743
f 706/706 744/744 711/711
f 741/741 734/734 710/710
f 703/703 710/710 734/734
f 733/733 746/746 704/704
f 716/716 704/704 746/746
f 745/745 715/715 747/747
f 715/715 745/745 705/705
f 745/745 748/748 705/705
f 705/705 748/748 714/714
f 706/706 713/713 743/743
f 743/743 713/713 749/749
f 751/751 712/712 750/750
f 712/712 751/751 722/722
f 752/752 742/742 721/721
f 709/709 721/721 742/742
f 744/744 753/753 711/711
f 711/711 753/753 718/718
f 712/712 717/717 750/750
f 750/750 717/717 754/754
f 756/756 758/758 755/755
f 758/758 756/756 757/757
f 755/755 758/758 759/759
f 794/794 793/793 792/792
f 792/792 795/795 794/794
f 797/797 795/795 798/798
f 795/795 797/797 796/796
f 800/800 794/794 799/799
f 800/800 799/799 801/801
f 802/802 799/799 796/796
f 796/796 803/803 802/802
f 798/798 805/805 804/804
f 804/804 806/806 798/798
f 806/806 809/809 808/808
f 806/806 808/808 807/807
f 810/810 797/797 807/807
f 807/807 811/811 810/810
f 813/813 803/803 810/810
f 803/803 813/813 812/812
f 815/815 802/802 814/814
f 815/815 814/814 816/816
f 817/817 814/814 812/812
f 812/812 818/818 817/817
f 811/811 821/821 820/820
f 811/811 820/820 819/819
f 822/822 813/813 819/819
f 819/819 823/823 822/822
f 794/794 795/795 799/799
f 795/795 796/796 799/799
f 798/798 806/806 797/797
f 806/806 807/807 797/797
f 802/802 803/803 814/814
f 803/803 812/812 814/814
f 810/810 811/811 813/813
f 811/811 819/819 813/813
f 793/793 794/794 760/760
f 760/760 794/794 763/763
f 761/761 762/762 792/792
f 792/792 762/762 795/795
f 797/797 765/765 796/796
f 765/765 797/797 770/770
f 798/798 795/795 769/769
f 762/762 769/769 795/795
f 794/794 800/800 763/763
f 777/777 763/763 800/800
f 799/799 776/776 801/801
f 776/776 799/799 764/764
f 799/799 802/802 764/764
f 764/764 802/802 773/773
f 765/765 772/772 796/796
f 796/796 772/772 803/803
f 805/805 798/798 766/766
f 766/766 798/798 769/769
f 767/767 768/768 804/804
f 804/804 768/768 806/806
f 808/808 771/771 807/807
f 771/771 808/808 789/789
f 809/809 806/806 788/788
f 768/768 788/788 806/806
f 797/797 810/810 770/770
f 770/770 810/810 779/779
f 771/771 778/778 807/807
f 807/807 778/778 811/811
f 813/813 775/775 812/812
f 775/775 813/813 780/780
f 810/810 803/803 779/779
f 772/772 779/779 803/803
f 802/802 815/815 773/773
f 785/785 773/773 815/815
f 814/814 784/784 816/816
f 784/784 814/814 774/774
f 814/814 817/817 774/774
f 774/774 817/817 783/783
f 775/775 782/782 812/812
f 812/812 782/782 818/818
f 820/820 781/781 819/819
f 781/781 820/820 791/791
f 821/821 811/811 790/790
f 778/778 790/790 811/811
f 813/813 822/822 780/780
f 780/780 822/822 787/787
f 781/781 786/786 819/819
f 819/819 786/786 823/823
f 825/825 827/827 824/824
f 827/827 825/825 826/826
f 824/824 827/827 828/828
