# generated by roqsim_scenes/tools (world-space, metres, Z-up)
v -4.872645 -0.377827 6.873994
v -4.850536 -0.295313 6.873994
v -4.848004 -0.392051 6.873994
v -4.848004 -0.392051 6.873994
v -4.848004 -0.392051 6.873994
v -4.918823 -0.462874 6.873994
v -4.918823 -0.462874 6.873994
v -4.918823 -0.462874 6.873994
v -4.918823 -0.462874 6.873994
v -4.848004 -0.392051 7.284147
v -4.848004 -0.392051 7.284147
v -4.848004 -0.392051 7.284147
v -4.918823 -0.462874 7.284147
v -4.918823 -0.462874 7.284147
v -4.822082 -0.295313 6.873994
v -4.822082 -0.295313 6.873994
v -4.822082 -0.295313 6.873994
v -4.822082 -0.295313 7.284147
v -4.822082 -0.295313 7.284147
v -5.015563 -0.488796 7.284147
v -5.015563 -0.488796 7.284147
v -5.015564 -0.488796 6.873994
v -5.015564 -0.488796 6.873994
v -5.015564 -0.488796 6.873994
v -5.112305 -0.462874 7.284147
v -5.112305 -0.462874 7.284147
v -5.112305 -0.462874 6.873994
v -5.112305 -0.462874 6.873994
v -5.112305 -0.462874 6.873994
v -5.183123 -0.392051 6.873994
v -5.183123 -0.392051 6.873994
v -5.183123 -0.392051 6.873994
v -5.183123 -0.392051 7.284147
v -5.183123 -0.392051 7.284147
v -5.209045 -0.295313 6.873994
v -5.209045 -0.295313 6.873994
v -5.209045 -0.295313 6.873994
v -5.209045 -0.295313 7.284147
v -5.209045 -0.295313 7.284147
v -5.183123 -0.198575 6.873994
v -5.183123 -0.198575 6.873994
v -5.183123 -0.198575 6.873994
v -5.183123 -0.198575 7.284147
v -5.183123 -0.198575 7.284147
v -5.112305 -0.127752 6.873994
v -5.112305 -0.127752 6.873994
v -5.112305 -0.127752 6.873994
v -5.112304 -0.127752 7.284147
v -5.112304 -0.127752 7.284147
v -5.015563 -0.101830 6.873994
v -5.015563 -0.101830 6.873994
v -5.015563 -0.101830 6.873994
v -5.015564 -0.101830 7.284147
v -5.015564 -0.101830 7.284147
v -4.918824 -0.127752 6.873994
v -4.918824 -0.127752 6.873994
v -4.918824 -0.127752 6.873994
v -4.918823 -0.127752 7.284147
v -4.918823 -0.127752 7.284147
v -4.848004 -0.198575 6.873994
v -4.848004 -0.198575 6.873994
v -4.848004 -0.198575 6.873994
v -4.848004 -0.198575 7.284147
v -4.848004 -0.198575 7.284147
v -4.933049 -0.152394 6.873994
v -5.015564 -0.130283 6.873994
v -4.872645 -0.212798 6.873994
v -5.098079 -0.152394 6.873994
v -5.158483 -0.212798 6.873994
v -5.180593 -0.295313 6.873994
v -5.158483 -0.377827 6.873994
v -5.098079 -0.438232 6.873994
v -5.015564 -0.460342 6.873994
v -4.933049 -0.438232 6.873994
vt 0.362442 0.886645
vt 0.387303 0.861783
vt 0.888612 0.891375
vt 0.888612 0.891375
vt 0.368297 0.896786
vt 0.889060 0.873260
vt 0.889060 0.873260
vt 0.889060 0.873260
vt 0.328481 0.907456
vt 0.814429 0.889542
vt 0.814429 0.889542
vt 0.814429 0.889542
vt 0.814877 0.871427
vt 0.814877 0.871427
vt 0.888164 0.909489
vt 0.893537 0.692117
vt 0.397445 0.867639
vt 0.813981 0.907656
vt 0.819354 0.690283
vt 0.815324 0.853312
vt 0.815324 0.853312
vt 0.889507 0.855146
vt 0.889507 0.855146
vt 0.288665 0.896786
vt 0.815772 0.835198
vt 0.815772 0.835198
vt 0.889955 0.837032
vt 0.889955 0.837032
vt 0.259517 0.867639
vt 0.890403 0.818917
vt 0.890403 0.818917
vt 0.248848 0.827823
vt 0.816220 0.817084
vt 0.816220 0.817084
vt 0.890850 0.800803
vt 0.890850 0.800803
vt 0.259517 0.788007
vt 0.816667 0.798969
vt 0.816667 0.798969
vt 0.891298 0.782689
vt 0.891298 0.782689
vt 0.288664 0.758860
vt 0.817115 0.780855
vt 0.817115 0.780855
vt 0.891746 0.764574
vt 0.891746 0.764574
vt 0.328480 0.748190
vt 0.817563 0.762740
vt 0.817563 0.762740
vt 0.892194 0.746460
vt 0.892194 0.746460
vt 0.368297 0.758858
vt 0.818011 0.744626
vt 0.818011 0.744626
vt 0.892641 0.728345
vt 0.892641 0.728345
vt 0.397444 0.788005
vt 0.818458 0.726512
vt 0.818458 0.726512
vt 0.893089 0.710231
vt 0.893089 0.710231
vt 0.408113 0.827823
vt 0.818906 0.708397
vt 0.818906 0.708397
vt 0.387303 0.793861
vt 0.362442 0.769000
vt 0.396403 0.827822
vt 0.328481 0.759900
vt 0.294519 0.769000
vt 0.269658 0.793862
vt 0.260558 0.827823
vt 0.269658 0.861784
vt 0.294520 0.886645
vt 0.328481 0.895745
f 3/3 10/10 6/6
f 7/7 11/11 13/13
f 15/15 18/18 4/4
f 4/4 18/18 12/12
f 20/20 8/8 14/14
f 8/8 20/20 22/22
f 25/25 23/23 21/21
f 23/23 25/25 27/27
f 28/28 26/26 30/30
f 30/30 26/26 33/33
f 31/31 34/34 35/35
f 35/35 34/34 38/38
f 36/36 39/39 40/40
f 40/40 39/39 43/43
f 41/41 44/44 45/45
f 45/45 44/44 48/48
f 46/46 49/49 50/50
f 50/50 49/49 53/53
f 51/51 54/54 55/55
f 55/55 54/54 58/58
f 56/56 59/59 60/60
f 60/60 59/59 63/63
f 61/61 64/64 16/16
f 16/16 64/64 19/19
f 1/1 9/9 74/74
f 9/9 73/73 74/74
f 9/9 1/1 5/5
f 9/9 24/24 73/73
f 2/2 5/5 1/1
f 5/5 2/2 17/17
f 62/62 17/17 2/2
f 62/62 2/2 67/67
f 29/29 73/73 24/24
f 73/73 29/29 72/72
f 71/71 72/72 29/29
f 71/71 29/29 32/32
f 57/57 62/62 67/67
f 57/57 67/67 65/65
f 32/32 70/70 71/71
f 70/70 32/32 37/37
f 42/42 70/70 37/37
f 70/70 42/42 69/69
f 66/66 57/57 65/65
f 57/57 66/66 52/52
f 47/47 69/69 42/42
f 66/66 47/47 52/52
f 69/69 47/47 68/68
f 66/66 68/68 47/47
