# generated by roqsim_scenes/tools (world-space, metres, Z-up)
v 5.180264 -0.295313 6.063655
v 4.667944 -0.094802 5.923651
v 4.667944 -0.094802 5.923651
v 4.667944 -0.094802 5.923651
v 4.667944 -0.094802 5.923651
v 4.814727 0.051981 5.923651
v 4.814727 0.051981 5.923651
v 4.814727 0.051981 5.923651
v 4.814727 0.051981 5.923651
v 4.795162 0.085869 5.961449
v 4.795162 0.085869 5.961449
v 4.795162 0.085869 5.961449
v 4.795162 0.085869 5.961449
v 4.795162 0.085869 5.961449
v 4.667944 -0.495821 5.923651
v 4.667944 -0.495821 5.923651
v 4.667944 -0.495821 5.923651
v 4.667944 -0.495821 5.923651
v 4.614218 -0.295313 5.923651
v 4.614218 -0.295313 5.923651
v 4.614218 -0.295313 5.923651
v 4.575087 -0.295313 5.961449
v 4.575087 -0.295313 5.961449
v 4.575087 -0.295313 5.961449
v 4.575087 -0.295313 5.961449
v 4.575087 -0.295313 5.961449
v 4.814727 -0.642604 5.923651
v 4.814727 -0.642604 5.923651
v 4.814727 -0.642604 5.923651
v 4.814727 -0.642604 5.923651
v 4.634056 -0.515388 5.961449
v 4.634056 -0.515388 5.961449
v 4.634056 -0.515388 5.961449
v 4.634056 -0.515388 5.961449
v 4.634056 -0.515388 5.961449
v 4.795162 -0.676495 5.961449
v 4.795162 -0.676495 5.961449
v 4.795162 -0.676495 5.961449
v 4.795162 -0.676495 5.961449
v 4.795162 -0.676495 5.961449
v 5.015236 -0.696331 5.923651
v 5.015236 -0.696331 5.923651
v 5.015236 -0.696331 5.923651
v 5.015236 -0.696331 5.923651
v 5.015236 -0.696331 5.923651
v 5.015236 -0.735463 5.961449
v 5.015236 -0.735463 5.961449
v 5.015236 -0.735463 5.961449
v 5.015236 -0.735463 5.961449
v 5.235311 -0.676495 5.961449
v 5.235311 -0.676495 5.961449
v 5.235311 -0.676495 5.961449
v 5.235311 -0.676495 5.961449
v 5.235311 -0.676495 5.961449
v 5.215745 -0.642604 5.923651
v 5.215745 -0.642604 5.923651
v 5.215745 -0.642604 5.923651
v 5.215745 -0.642604 5.923651
v 5.396416 -0.515388 5.961449
v 5.396416 -0.515388 5.961449
v 5.396416 -0.515388 5.961449
v 5.396416 -0.515388 5.961449
v 5.396416 -0.515388 5.961449
v 5.362529 -0.495821 5.923651
v 5.362529 -0.495821 5.923651
v 5.362529 -0.495821 5.923651
v 5.362529 -0.495821 5.923651
v 5.455385 -0.295313 5.961449
v 5.455385 -0.295313 5.961449
v 5.455385 -0.295313 5.961449
v 5.455385 -0.295313 5.961449
v 5.455385 -0.295313 5.961449
v 5.416254 -0.295313 5.923651
v 5.416254 -0.295313 5.923651
v 5.416254 -0.295313 5.923651
v 4.634056 -0.075238 5.961449
v 4.634056 -0.075238 5.961449
v 4.634056 -0.075238 5.961449
v 4.634056 -0.075238 5.961449
v 4.634056 -0.075238 5.961449
v 5.158155 -0.377827 6.063655
v 5.215745 0.051981 5.923651
v 5.215745 0.051981 5.923651
v 5.215745 0.051981 5.923651
v 5.215745 0.051981 5.923651
v 5.235311 0.085869 5.961449
v 5.235311 0.085869 5.961449
v 5.235311 0.085869 5.961449
v 5.235311 0.085869 5.961449
v 5.015236 0.144838 5.961449
v 5.015236 0.144838 5.961449
v 5.015236 0.144838 5.961449
v 5.015236 0.144838 5.961449
v 5.015236 0.144838 5.961449
v 5.015236 0.144838 5.961449
v 5.015236 0.105706 5.923651
v 5.015236 0.105706 5.923651
v 5.015236 0.105706 5.923651
v 4.634056 -0.075238 6.063655
v 4.634056 -0.075238 6.063655
v 4.634056 -0.075238 6.063655
v 4.575087 -0.295313 6.063655
v 4.575087 -0.295313 6.063655
v 4.575087 -0.295313 6.063655
v 4.575087 -0.295313 6.063655
v 5.015236 -0.130283 6.063655
v 5.097751 -0.152394 6.063655
v 5.158155 -0.212798 6.063655
v 4.932721 -0.152394 6.063655
v 4.872317 -0.212798 6.063655
v 4.850207 -0.295313 6.063655
v 4.872317 -0.377827 6.063655
v 4.932721 -0.438232 6.063655
v 5.015236 -0.460342 6.063655
v 5.097751 -0.438232 6.063655
v 5.396416 -0.075238 5.961449
v 5.396416 -0.075238 5.961449
v 5.396416 -0.075238 5.961449
v 5.396416 -0.075238 5.961449
v 5.362529 -0.094802 5.923651
v 5.362529 -0.094802 5.923651
v 5.362529 -0.094802 5.923651
v 5.235311 0.085869 6.063655
v 5.235311 0.085869 6.063655
v 5.235311 0.085869 6.063655
v 5.396416 -0.075238 6.063655
v 5.396416 -0.075238 6.063655
v 5.396416 -0.075238 6.063655
v 5.455385 -0.295313 6.063655
v 5.455385 -0.295313 6.063655
v 5.455385 -0.295313 6.063655
v 5.015236 0.144838 6.063655
v 5.015236 0.144838 6.063655
v 5.015236 0.144838 6.063655
v 4.795162 0.085869 6.063655
v 4.795162 0.085869 6.063655
v 4.795162 0.085869 6.063655
v 4.634056 -0.515388 6.063655
v 4.634056 -0.515388 6.063655
v 4.634056 -0.515388 6.063655
v 4.795162 -0.676495 6.063655
v 4.795162 -0.676495 6.063655
v 4.795162 -0.676495 6.063655
v 5.015236 -0.735463 6.063655
v 5.015236 -0.735463 6.063655
v 5.015236 -0.735463 6.063655
v 5.235311 -0.676495 6.063655
v 5.235311 -0.676495 6.063655
v 5.235311 -0.676495 6.063655
v 5.396416 -0.515388 6.063655
v 5.396416 -0.515388 6.063655
v 5.396416 -0.515388 6.063655
v 5.015237 -0.295313 5.923651
vt 0.358338 0.827823
vt 0.450562 0.889697
vt 0.450562 0.889697
vt 0.450562 0.889697
vt 0.450562 0.889697
vt 0.426757 0.860912
vt 0.426757 0.860912
vt 0.426757 0.860912
vt 0.426757 0.860912
vt 0.417739 0.865001
vt 0.417739 0.865001
vt 0.417739 0.865001
vt 0.201475 0.178132
vt 0.201475 0.178132
vt 0.522438 0.896681
vt 0.522438 0.896681
vt 0.522438 0.896681
vt 0.522438 0.896681
vt 0.485565 0.902783
vt 0.485565 0.902783
vt 0.485565 0.902783
vt 0.484546 0.912633
vt 0.484546 0.912633
vt 0.202491 0.260568
vt 0.484546 0.912633
vt 0.202491 0.260568
vt 0.551356 0.873001
vt 0.551356 0.873001
vt 0.551356 0.873001
vt 0.551356 0.873001
vt 0.526458 0.905730
vt 0.526458 0.905730
vt 0.526458 0.905730
vt 0.202999 0.301786
vt 0.202999 0.301786
vt 0.559348 0.878847
vt 0.559348 0.878847
vt 0.559348 0.878847
vt 0.203508 0.343004
vt 0.203508 0.343004
vt 0.564593 0.838026
vt 0.564593 0.838026
vt 0.564593 0.838026
vt 0.564593 0.838026
vt 0.564593 0.838026
vt 0.574434 0.839121
vt 0.574434 0.839121
vt 0.204016 0.384221
vt 0.204016 0.384221
vt 0.567660 0.797122
vt 0.567660 0.797122
vt 0.567660 0.797122
vt 0.204524 0.425439
vt 0.204524 0.425439
vt 0.558570 0.801046
vt 0.558570 0.801046
vt 0.558570 0.801046
vt 0.558570 0.801046
vt 0.540896 0.764002
vt 0.540896 0.764002
vt 0.540896 0.764002
vt 0.205032 0.466657
vt 0.205032 0.466657
vt 0.534834 0.771828
vt 0.534834 0.771828
vt 0.534834 0.771828
vt 0.534834 0.771828
vt 0.501791 0.747822
vt 0.501791 0.747822
vt 0.499190 0.747655
vt 0.199442 0.013261
vt 0.205540 0.507875
vt 0.499584 0.757506
vt 0.499584 0.757506
vt 0.499584 0.757506
vt 0.444776 0.897732
vt 0.201983 0.219350
vt 0.201983 0.219350
vt 0.444776 0.897732
vt 0.201983 0.219350
vt 0.354338 0.812894
vt 0.433493 0.789033
vt 0.433493 0.789033
vt 0.433493 0.789033
vt 0.433493 0.789033
vt 0.425391 0.783363
vt 0.425391 0.783363
vt 0.200459 0.095697
vt 0.200459 0.095697
vt 0.410648 0.823158
vt 0.410648 0.823158
vt 0.410648 0.823158
vt 0.410648 0.823158
vt 0.200967 0.136915
vt 0.200967 0.136915
vt 0.420502 0.824092
vt 0.420502 0.824092
vt 0.420502 0.824092
vt 0.183493 0.219578
vt 0.183493 0.219578
vt 0.259517 0.867639
vt 0.184001 0.260796
vt 0.184001 0.260796
vt 0.184001 0.260796
vt 0.248848 0.827823
vt 0.328481 0.857680
vt 0.343409 0.853680
vt 0.354338 0.842751
vt 0.313552 0.853680
vt 0.302623 0.842751
vt 0.298623 0.827823
vt 0.302623 0.812894
vt 0.313552 0.801965
vt 0.328481 0.797965
vt 0.343409 0.801965
vt 0.457914 0.756132
vt 0.457914 0.756132
vt 0.199951 0.054479
vt 0.199951 0.054479
vt 0.462307 0.764947
vt 0.462307 0.764947
vt 0.462307 0.764947
vt 0.181969 0.095925
vt 0.181969 0.095925
vt 0.368297 0.896787
vt 0.181460 0.054707
vt 0.181460 0.054707
vt 0.397445 0.867639
vt 0.180952 0.013489
vt 0.187050 0.508103
vt 0.408113 0.827822
vt 0.182477 0.137143
vt 0.182477 0.137143
vt 0.328481 0.907455
vt 0.182985 0.178360
vt 0.182985 0.178360
vt 0.288664 0.896787
vt 0.184509 0.302014
vt 0.184509 0.302014
vt 0.259517 0.788006
vt 0.185018 0.343232
vt 0.185018 0.343232
vt 0.288664 0.758859
vt 0.185526 0.384449
vt 0.185526 0.384449
vt 0.328480 0.748190
vt 0.186034 0.425667
vt 0.186034 0.425667
vt 0.368297 0.758859
vt 0.186542 0.466885
vt 0.186542 0.466885
vt 0.397444 0.788006
vt 0.492638 0.830415
f 2/2 10/10 6/6
f 15/15 22/22 19/19
f 27/27 31/31 16/16
f 32/32 28/28 36/36
f 41/41 37/37 29/29
f 46/46 38/38 42/42
f 50/50 43/43 55/55
f 56/56 59/59 51/51
f 60/60 57/57 64/64
f 68/68 65/65 73/73
f 76/76 11/11 3/3
f 33/33 23/23 17/17
f 44/44 52/52 47/47
f 66/66 69/69 61/61
f 82/82 90/90 86/86
f 91/91 83/83 96/96
f 7/7 92/92 97/97
f 93/93 8/8 12/12
f 77/77 102/102 99/99
f 103/103 78/78 24/24
f 4/4 20/20 79/79
f 25/25 79/79 20/20
f 74/74 116/116 70/70
f 116/116 74/74 120/120
f 121/121 87/87 117/117
f 87/87 121/121 84/84
f 123/123 118/118 88/88
f 118/118 123/123 126/126
f 127/127 71/71 119/119
f 71/71 127/127 129/129
f 89/89 94/94 132/132
f 89/89 132/132 124/124
f 95/95 135/135 133/133
f 95/95 13/13 135/135
f 14/14 100/100 136/136
f 100/100 14/14 80/80
f 26/26 138/138 104/104
f 138/138 26/26 34/34
f 35/35 141/141 139/139
f 141/141 35/35 39/39
f 40/40 144/144 142/142
f 40/40 48/48 144/144
f 53/53 145/145 49/49
f 145/145 53/53 147/147
f 54/54 150/150 148/148
f 150/150 54/54 62/62
f 130/130 63/63 72/72
f 63/63 130/130 151/151
f 134/134 106/106 125/125
f 137/137 106/106 134/134
f 125/125 106/106 107/107
f 106/106 137/137 109/109
f 128/128 125/125 107/107
f 101/101 109/109 137/137
f 108/108 128/128 107/107
f 109/109 101/101 110/110
f 108/108 131/131 128/128
f 131/131 108/108 1/1
f 81/81 131/131 1/1
f 131/131 81/81 152/152
f 115/115 152/152 81/81
f 152/152 115/115 149/149
f 105/105 110/110 101/101
f 110/110 105/105 111/111
f 105/105 112/112 111/111
f 140/140 112/112 105/105
f 140/140 113/113 112/112
f 113/113 140/140 143/143
f 114/114 149/149 115/115
f 143/143 114/114 113/113
f 149/149 114/114 146/146
f 114/114 143/143 146/146
f 85/85 122/122 153/153
f 98/98 85/85 153/153
f 122/122 75/75 153/153
f 9/9 98/98 153/153
f 75/75 67/67 153/153
f 5/5 9/9 153/153
f 67/67 58/58 153/153
f 21/21 5/5 153/153
f 58/58 45/45 153/153
f 18/18 21/21 153/153
f 45/45 30/30 153/153
f 30/30 18/18 153/153
