# generated by roqsim_scenes/tools (world-space, metres, Z-up)
v -4.850536 -0.295313 6.063655
v -4.850536 -0.295313 6.063655
v -4.850536 -0.295313 6.063655
v -4.872645 -0.377827 6.873994
v -4.872645 -0.377827 6.873994
v -4.872645 -0.377827 6.873994
v -4.850536 -0.295313 6.873994
v -4.850536 -0.295313 6.873994
v -4.872645 -0.377827 6.063655
v -4.872645 -0.377827 6.063655
v -5.015564 -0.130283 6.063655
v -5.015564 -0.130283 6.063655
v -4.933049 -0.152394 6.873994
v -4.933049 -0.152394 6.873994
v -5.015564 -0.130283 6.873994
v -5.015564 -0.130283 6.873994
v -4.933049 -0.152394 6.063655
v -4.933049 -0.152394 6.063655
v -4.872645 -0.212798 6.873994
v -4.872645 -0.212798 6.873994
v -4.872645 -0.212798 6.063655
v -4.872645 -0.212798 6.063655
v -5.098079 -0.152394 6.063655
v -5.098079 -0.152394 6.063655
v -5.098079 -0.152394 6.873994
v -5.098079 -0.152394 6.873994
v -5.158483 -0.212798 6.063655
v -5.158483 -0.212798 6.063655
v -5.158483 -0.212798 6.873994
v -5.158483 -0.212798 6.873994
v -5.180593 -0.295313 6.063655
v -5.180593 -0.295313 6.063655
v -5.180593 -0.295313 6.873994
v -5.180593 -0.295313 6.873994
v -5.158483 -0.377827 6.063655
v -5.158483 -0.377827 6.063655
v -5.158483 -0.377827 6.873994
v -5.158483 -0.377827 6.873994
v -5.098079 -0.438232 6.063655
v -5.098079 -0.438232 6.063655
v -5.098079 -0.438232 6.873994
v -5.098079 -0.438232 6.873994
v -5.015564 -0.460342 6.063655
v -5.015564 -0.460342 6.063655
v -5.015564 -0.460342 6.873994
v -5.015564 -0.460342 6.873994
v -4.933049 -0.438232 6.063655
v -4.933049 -0.438232 6.063655
v -4.933049 -0.438232 6.873994
v -4.933049 -0.438232 6.873994
vt 0.739348 0.902855
vt 0.739348 0.902855
vt 0.100469 0.693427
vt 0.754708 0.756238
vt 0.754708 0.756238
vt 0.754708 0.756238
vt 0.739253 0.756248
vt 0.247075 0.694058
vt 0.754803 0.902845
vt 0.754803 0.902845
vt 0.100668 0.647061
vt 0.100668 0.647061
vt 0.247208 0.663148
vt 0.247208 0.663148
vt 0.247275 0.647692
vt 0.247275 0.647692
vt 0.100602 0.662516
vt 0.100602 0.662516
vt 0.247142 0.678603
vt 0.247142 0.678603
vt 0.100535 0.677971
vt 0.100535 0.677971
vt 0.100735 0.631606
vt 0.100735 0.631606
vt 0.247341 0.632237
vt 0.247341 0.632237
vt 0.100801 0.616151
vt 0.100801 0.616151
vt 0.247408 0.616782
vt 0.247408 0.616782
vt 0.100868 0.600696
vt 0.100868 0.600696
vt 0.247475 0.601327
vt 0.247475 0.601327
vt 0.100934 0.585240
vt 0.100934 0.585240
vt 0.247541 0.585872
vt 0.247541 0.585872
vt 0.101001 0.569785
vt 0.101001 0.569785
vt 0.247608 0.570417
vt 0.247608 0.570417
vt 0.101067 0.554330
vt 0.101067 0.554330
vt 0.247674 0.554961
vt 0.247674 0.554961
vt 0.101134 0.538875
vt 0.770258 0.902835
vt 0.247741 0.539506
vt 0.770163 0.756228
f 1/1 7/7 4/4
f 5/5 9/9 2/2
f 11/11 15/15 13/13
f 13/13 17/17 11/11
f 18/18 14/14 19/19
f 19/19 21/21 18/18
f 8/8 22/22 20/20
f 22/22 8/8 3/3
f 16/16 12/12 23/23
f 23/23 25/25 16/16
f 26/26 24/24 27/27
f 27/27 29/29 26/26
f 30/30 28/28 31/31
f 31/31 33/33 30/30
f 34/34 32/32 35/35
f 35/35 37/37 34/34
f 38/38 36/36 39/39
f 39/39 41/41 38/38
f 42/42 40/40 43/43
f 43/43 45/45 42/42
f 46/46 44/44 47/47
f 47/47 49/49 46/46
f 50/50 48/48 10/10
f 10/10 6/6 50/50
