# generated by roqsim_scenes/tools (world-space, metres, Z-up)
v 6.948065 -7.559331 7.468591
v 6.948065 -7.559331 7.468591
v 6.948065 -7.559331 7.468591
v 6.948065 -7.559331 7.468591
v 6.948065 -7.559331 7.468591
v 6.948065 -7.559331 7.468591
v 6.948065 -7.559331 7.468591
v 6.922888 -7.598528 7.472579
v 6.922888 -7.598528 7.472579
v 6.922888 -7.598528 7.472579
v 6.922888 -7.598528 7.472579
v 6.922888 -7.598528 7.472579
v 6.948065 -7.598528 7.468591
v 6.948065 -7.598528 7.468591
v 6.948065 -7.598528 7.468591
v 6.948065 -7.598528 7.468591
v 6.924880 -7.543782 7.478713
v 6.924880 -7.543782 7.478713
v 6.924880 -7.543782 7.478713
v 6.924880 -7.543782 7.478713
v 6.924880 -7.543782 7.478713
v 6.948065 -7.543780 7.475266
v 6.948065 -7.543780 7.475266
v 6.948065 -7.543780 7.475266
v 6.948065 -7.543780 7.475266
v 6.948065 -7.543780 7.475266
v 6.948065 -7.543780 7.475266
v 6.922888 -7.559331 7.472579
v 6.922888 -7.559331 7.472579
v 6.922888 -7.559331 7.472579
v 6.922888 -7.559331 7.472579
v 6.922888 -7.559331 7.472579
v 6.903961 -7.543782 7.489368
v 6.903961 -7.543782 7.489368
v 6.903961 -7.543782 7.489368
v 6.903961 -7.543782 7.489368
v 6.903961 -7.543782 7.489368
v 6.900182 -7.559331 7.484151
v 6.900182 -7.559331 7.484151
v 6.900182 -7.559331 7.484151
v 6.900182 -7.559331 7.484151
v 6.887363 -7.543782 7.505964
v 6.887363 -7.543782 7.505964
v 6.887363 -7.543782 7.505964
v 6.887363 -7.543782 7.505964
v 6.887363 -7.543782 7.505964
v 6.870574 -7.559331 7.524885
v 6.870574 -7.559331 7.524885
v 6.870574 -7.559331 7.524885
v 6.870574 -7.559331 7.524885
v 6.870574 -7.559331 7.524885
v 6.882154 -7.559331 7.502175
v 6.882154 -7.559331 7.502175
v 6.882154 -7.559331 7.502175
v 6.882154 -7.559331 7.502175
v 6.876709 -7.543782 7.526878
v 6.876709 -7.543782 7.526878
v 6.876709 -7.543782 7.526878
v 6.876709 -7.543782 7.526878
v 6.876709 -7.543782 7.526878
v 6.866591 -7.559331 7.550061
v 6.866591 -7.559331 7.550061
v 6.866591 -7.559331 7.550061
v 6.866591 -7.559331 7.550061
v 6.866591 -7.559331 7.550061
v 6.866591 -7.559331 7.550061
v 6.873265 -7.543780 7.550061
v 6.873265 -7.543780 7.550061
v 6.873265 -7.543780 7.550061
v 6.873265 -7.543780 7.550061
v 6.873265 -7.543780 7.550061
v 6.873265 -7.543780 7.550061
v -6.920341 7.274274 7.505964
v -6.920341 7.274274 7.505964
v -6.920341 7.274274 7.505964
v -6.920341 7.274274 7.505964
v -6.920341 7.274274 7.505964
v -6.920341 7.274274 7.505964
v -6.915133 7.289823 7.502175
v -6.915133 7.289823 7.502175
v -6.915133 7.289823 7.502175
v -6.915133 7.289823 7.502175
v -6.933161 7.289823 7.484151
v -6.933161 7.289823 7.484151
v -6.933161 7.289823 7.484151
v -6.933161 7.289823 7.484151
v -6.933161 7.289823 7.484151
v -6.936944 7.274274 7.489368
v -6.936944 7.274274 7.489368
v -6.936944 7.274274 7.489368
v -6.936944 7.274274 7.489368
v -6.936944 7.274274 7.489368
v -6.936944 7.274274 7.489368
v -6.955869 7.289823 7.472579
v -6.955869 7.289823 7.472579
v -6.955869 7.289823 7.472579
v -6.955869 7.289823 7.472579
v -6.955869 7.289823 7.472579
v -6.957859 7.274274 7.478713
v -6.957859 7.274274 7.478713
v -6.957859 7.274274 7.478713
v -6.957859 7.274274 7.478713
v -6.957859 7.274274 7.478713
v -6.957859 7.274274 7.478713
v -6.981035 7.289823 7.468591
v -6.981035 7.289823 7.468591
v -6.981035 7.289823 7.468591
v -6.981035 7.289823 7.468591
v -6.981035 7.289823 7.468591
v -6.981035 7.289823 7.468591
v -6.981035 7.274270 7.475266
v -6.981035 7.274270 7.475266
v -6.981035 7.274270 7.475266
v -6.981035 7.274270 7.475266
v -6.981035 7.274270 7.475266
v -6.981035 7.274270 7.475266
v -6.961559 7.263113 7.490104
v -6.961559 7.263113 7.490104
v -6.961559 7.263113 7.490104
v -6.961559 7.263113 7.490104
v -6.961559 7.263113 7.490104
v -6.943984 7.263113 7.499058
v -6.943984 7.263113 7.499058
v -6.943984 7.263113 7.499058
v -6.943984 7.263113 7.499058
v -6.943984 7.263113 7.499058
v -6.981035 7.263113 7.487512
v -6.981035 7.263113 7.487512
v -6.981035 7.263113 7.487512
v -6.981035 7.263113 7.487512
v -7.000522 7.263113 7.490104
v -7.000522 7.263113 7.490104
v -7.000522 7.263113 7.490104
v -7.000522 7.263113 7.490104
v -7.000522 7.263113 7.490104
v -7.000522 7.263113 7.490104
v -7.004224 7.274274 7.478713
v -7.004224 7.274274 7.478713
v -7.004224 7.274274 7.478713
v -7.004224 7.274274 7.478713
v -7.004224 7.274274 7.478713
v -7.025138 7.274274 7.489368
v -7.025138 7.274274 7.489368
v -7.025138 7.274274 7.489368
v -7.025138 7.274274 7.489368
v -7.025138 7.274274 7.489368
v -7.025138 7.274274 7.489368
v -7.006213 7.289823 7.472579
v -7.006213 7.289823 7.472579
v -7.006213 7.289823 7.472579
v -7.006213 7.289823 7.472579
v -7.006213 7.289823 7.472579
v -7.028921 7.289823 7.484151
v -7.028921 7.289823 7.484151
v -7.028921 7.289823 7.484151
v -7.028921 7.289823 7.484151
v -7.025138 7.274274 7.610755
v -7.025138 7.274274 7.610755
v -7.025138 7.274274 7.610755
v -7.025138 7.274274 7.610755
v -7.025138 7.274274 7.610755
v -7.028921 7.289823 7.615970
v -7.028921 7.289823 7.615970
v -7.028921 7.289823 7.615970
v -7.028921 7.289823 7.615970
v -7.006213 7.289823 7.627542
v -7.006213 7.289823 7.627542
v -7.006213 7.289823 7.627542
v -7.006213 7.289823 7.627542
v -7.006213 7.289823 7.627542
v -6.956109 7.355634 7.515746
v -6.956109 7.355634 7.515746
v -6.956109 7.355634 7.515746
v -6.956109 7.355634 7.515746
v -6.956109 7.355634 7.515746
v -6.956109 7.364853 7.515746
v -6.956109 7.364853 7.515746
v -6.967934 7.364853 7.509720
v -6.967934 7.364853 7.509720
v -6.967934 7.364853 7.509720
v 6.991097 -7.527953 7.550061
v 6.991097 -7.527953 7.550061
v 6.991097 -7.527953 7.550061
v 6.991097 -7.527953 7.550061
v 6.991097 -7.527953 7.550061
v 7.008012 -7.532620 7.530579
v 7.008012 -7.532620 7.530579
v 7.008012 -7.532620 7.530579
v 7.008012 -7.532620 7.530579
v 7.008012 -7.532620 7.530579
v 7.010608 -7.532620 7.550061
v 7.010608 -7.532620 7.550061
v 7.010608 -7.532620 7.550061
v 7.010608 -7.532620 7.550061
v 7.008012 -7.532620 7.569543
v 7.008012 -7.532620 7.569543
v 7.008012 -7.532620 7.569543
v 7.008012 -7.532620 7.569543
v 7.008012 -7.532620 7.569543
v 7.008012 -7.532620 7.569543
v 7.008012 -7.532620 7.569543
v 6.978118 -7.527953 7.580111
v 6.978118 -7.527953 7.580111
v 6.978118 -7.527953 7.580111
v 6.978118 -7.527953 7.580111
v 6.978118 -7.527953 7.580111
v 6.999065 -7.532620 7.513006
v 6.999065 -7.532620 7.513006
v 6.999065 -7.532620 7.513006
v 6.999065 -7.532620 7.513006
v 6.999065 -7.532620 7.513006
v 6.978118 -7.527953 7.520012
v 6.978118 -7.527953 7.520012
v 6.978118 -7.527953 7.520012
v 6.978118 -7.527953 7.520012
v 6.985120 -7.532620 7.499058
v 6.985120 -7.532620 7.499058
v 6.985120 -7.532620 7.499058
v 6.985120 -7.532620 7.499058
v 6.992156 -7.543782 7.489368
v 6.992156 -7.543782 7.489368
v 6.992156 -7.543782 7.489368
v 6.992156 -7.543782 7.489368
v 6.992156 -7.543782 7.489368
v 6.992156 -7.543782 7.489368
v 7.008763 -7.543782 7.505964
v 7.008763 -7.543782 7.505964
v 7.008763 -7.543782 7.505964
v 7.008763 -7.543782 7.505964
v 7.008763 -7.543782 7.505964
v 7.008763 -7.543782 7.505964
v 6.967543 -7.532620 7.490104
v 6.967543 -7.532620 7.490104
v 6.967543 -7.532620 7.490104
v 6.967543 -7.532620 7.490104
v 6.967543 -7.532620 7.490104
v 6.971245 -7.543782 7.478713
v 6.971245 -7.543782 7.478713
v 6.971245 -7.543782 7.478713
v 6.971245 -7.543782 7.478713
v 6.971245 -7.543782 7.478713
v 6.948065 -7.532620 7.487512
v 6.948065 -7.532620 7.487512
v 6.948065 -7.532620 7.487512
v 6.948065 -7.532620 7.487512
v 6.948065 -7.527953 7.507035
v 6.948065 -7.527953 7.507035
v 6.948065 -7.527953 7.507035
v 6.948065 -7.527953 7.507035
v 6.948065 -7.527953 7.507035
v 6.948065 -7.527953 7.507035
v 6.928583 -7.532620 7.490104
v 6.928583 -7.532620 7.490104
v 6.928583 -7.532620 7.490104
v 6.928583 -7.532620 7.490104
v 6.928583 -7.532620 7.490104
v 6.911011 -7.532620 7.499058
v 6.911011 -7.532620 7.499058
v 6.911011 -7.532620 7.499058
v 6.911011 -7.532620 7.499058
v 6.918008 -7.527953 7.520012
v 6.918008 -7.527953 7.520012
v 6.918008 -7.527953 7.520012
v 6.918008 -7.527953 7.520012
v 6.897059 -7.532620 7.513006
v 6.897059 -7.532620 7.513006
v 6.897059 -7.532620 7.513006
v 6.897059 -7.532620 7.513006
v 6.888106 -7.532620 7.530579
v 6.888106 -7.532620 7.530579
v 6.888106 -7.532620 7.530579
v 6.888106 -7.532620 7.530579
v 6.888106 -7.532620 7.530579
v 6.885517 -7.532620 7.550061
v 6.885517 -7.532620 7.550061
v 6.885517 -7.532620 7.550061
v 6.885517 -7.532620 7.550061
v 6.905029 -7.527953 7.550061
v 6.905029 -7.527953 7.550061
v 6.905029 -7.527953 7.550061
v 6.905029 -7.527953 7.550061
v 6.905029 -7.527953 7.550061
v 6.888106 -7.532620 7.569543
v 6.888106 -7.532620 7.569543
v 6.888106 -7.532620 7.569543
v 6.888106 -7.532620 7.569543
v 6.888106 -7.532620 7.569543
v 6.897059 -7.532620 7.587117
v 6.897059 -7.532620 7.587117
v 6.897059 -7.532620 7.587117
v 6.897059 -7.532620 7.587117
v 6.918008 -7.527953 7.580111
v 6.918008 -7.527953 7.580111
v 6.918008 -7.527953 7.580111
v 6.918008 -7.527953 7.580111
v 6.911011 -7.532620 7.601063
v 6.911011 -7.532620 7.601063
v 6.911011 -7.532620 7.601063
v 6.911011 -7.532620 7.601063
v 6.928583 -7.532620 7.610018
v 6.928583 -7.532620 7.610018
v 6.928583 -7.532620 7.610018
v 6.928583 -7.532620 7.610018
v 6.928583 -7.532620 7.610018
v 6.948065 -7.527953 7.593087
v 6.948065 -7.527953 7.593087
v 6.948065 -7.527953 7.593087
v 6.948065 -7.527953 7.593087
v 6.948065 -7.527953 7.593087
v 6.948065 -7.532620 7.612609
v 6.948065 -7.532620 7.612609
v 6.948065 -7.532620 7.612609
v 6.948065 -7.532620 7.612609
v 6.967543 -7.532620 7.610018
v 6.967543 -7.532620 7.610018
v 6.967543 -7.532620 7.610018
v 6.967543 -7.532620 7.610018
v 6.967543 -7.532620 7.610018
v 6.948065 -7.543780 7.624855
v 6.948065 -7.543780 7.624855
v 6.948065 -7.543780 7.624855
v 6.948065 -7.543780 7.624855
v 6.948065 -7.543780 7.624855
v 6.948065 -7.543780 7.624855
v 6.924880 -7.543782 7.621410
v 6.924880 -7.543782 7.621410
v 6.924880 -7.543782 7.621410
v 6.924880 -7.543782 7.621410
v 6.924880 -7.543782 7.621410
v 6.948065 -7.559331 7.631530
v 6.948065 -7.559331 7.631530
v 6.948065 -7.559331 7.631530
v 6.948065 -7.559331 7.631530
v 6.948065 -7.559331 7.631530
v 6.948065 -7.559331 7.631530
v 6.922888 -7.559331 7.627542
v 6.922888 -7.559331 7.627542
v 6.922888 -7.559331 7.627542
v 6.922888 -7.559331 7.627542
v 6.922888 -7.559331 7.627542
v 6.985120 -7.532620 7.601063
v 6.985120 -7.532620 7.601063
v 6.985120 -7.532620 7.601063
v 6.985120 -7.532620 7.601063
v 6.985120 -7.532620 7.601063
v 6.999065 -7.532620 7.587117
v 6.999065 -7.532620 7.587117
v 6.999065 -7.532620 7.587117
v 6.999065 -7.532620 7.587117
v 6.999065 -7.532620 7.587117
v 6.971245 -7.543782 7.621410
v 6.971245 -7.543782 7.621410
v 6.971245 -7.543782 7.621410
v 6.971245 -7.543782 7.621410
v 6.971245 -7.543782 7.621410
v 6.971245 -7.543782 7.621410
v 7.025550 -7.559331 7.524885
v 7.025550 -7.559331 7.524885
v 7.025550 -7.559331 7.524885
v 7.025550 -7.559331 7.524885
v 7.025550 -7.559331 7.524885
v 7.013971 -7.559331 7.502175
v 7.013971 -7.559331 7.502175
v 7.013971 -7.559331 7.502175
v 7.013971 -7.559331 7.502175
v 7.019416 -7.543782 7.526878
v 7.019416 -7.543782 7.526878
v 7.019416 -7.543782 7.526878
v 7.019416 -7.543782 7.526878
v 7.019416 -7.543782 7.526878
v 7.029534 -7.559331 7.550061
v 7.029534 -7.559331 7.550061
v 7.029534 -7.559331 7.550061
v 7.029534 -7.559331 7.550061
v 7.029534 -7.559331 7.550061
v 7.029534 -7.559331 7.550061
v 7.022855 -7.543780 7.550061
v 7.022855 -7.543780 7.550061
v 7.022855 -7.543780 7.550061
v 7.022855 -7.543780 7.550061
v 7.022855 -7.543780 7.550061
v 7.022855 -7.543780 7.550061
v 7.019416 -7.543782 7.573243
v 7.019416 -7.543782 7.573243
v 7.019416 -7.543782 7.573243
v 7.019416 -7.543782 7.573243
v 7.019416 -7.543782 7.573243
v 7.025550 -7.559331 7.575236
v 7.025550 -7.559331 7.575236
v 7.025550 -7.559331 7.575236
v 7.025550 -7.559331 7.575236
v 7.025550 -7.559331 7.575236
v 7.008763 -7.543782 7.594157
v 7.008763 -7.543782 7.594157
v 7.008763 -7.543782 7.594157
v 7.008763 -7.543782 7.594157
v 7.008763 -7.543782 7.594157
v 7.008763 -7.543782 7.594157
v 7.013971 -7.559331 7.597948
v 7.013971 -7.559331 7.597948
v 7.013971 -7.559331 7.597948
v 7.013971 -7.559331 7.597948
v 7.013971 -7.559331 7.597948
v 6.992156 -7.543782 7.610755
v 6.992156 -7.543782 7.610755
v 6.992156 -7.543782 7.610755
v 6.992156 -7.543782 7.610755
v 6.992156 -7.543782 7.610755
v 6.992156 -7.543782 7.610755
v 6.992156 -7.543782 7.610755
v 6.995942 -7.559331 7.484151
v 6.995942 -7.559331 7.484151
v 6.995942 -7.559331 7.484151
v 6.995942 -7.559331 7.484151
v 6.995942 -7.559331 7.484151
v 6.973231 -7.559331 7.472579
v 6.973231 -7.559331 7.472579
v 6.973231 -7.559331 7.472579
v 6.973231 -7.559331 7.472579
v 6.973231 -7.559331 7.472579
v 6.876709 -7.543782 7.573243
v 6.876709 -7.543782 7.573243
v 6.876709 -7.543782 7.573243
v 6.876709 -7.543782 7.573243
v 6.876709 -7.543782 7.573243
v 6.870574 -7.559331 7.575236
v 6.870574 -7.559331 7.575236
v 6.870574 -7.559331 7.575236
v 6.870574 -7.559331 7.575236
v 6.870574 -7.559331 7.575236
v 6.887363 -7.543782 7.594157
v 6.887363 -7.543782 7.594157
v 6.887363 -7.543782 7.594157
v 6.887363 -7.543782 7.594157
v 6.887363 -7.543782 7.594157
v 6.882154 -7.559331 7.597948
v 6.882154 -7.559331 7.597948
v 6.882154 -7.559331 7.597948
v 6.882154 -7.559331 7.597948
v 6.903961 -7.543782 7.610755
v 6.903961 -7.543782 7.610755
v 6.903961 -7.543782 7.610755
v 6.903961 -7.543782 7.610755
v 6.903961 -7.543782 7.610755
v 6.900182 -7.559331 7.615970
v 6.900182 -7.559331 7.615970
v 6.900182 -7.559331 7.615970
v 6.900182 -7.559331 7.615970
v 6.973231 -7.559331 7.627542
v 6.973231 -7.559331 7.627542
v 6.973231 -7.559331 7.627542
v 6.973231 -7.559331 7.627542
v 6.973231 -7.559331 7.627542
v 6.995942 -7.559331 7.615970
v 6.995942 -7.559331 7.615970
v 6.995942 -7.559331 7.615970
v 6.995942 -7.559331 7.615970
v -6.903553 7.289823 7.524885
v -6.903553 7.289823 7.524885
v -6.903553 7.289823 7.524885
v -6.903553 7.289823 7.524885
v -6.903553 7.289823 7.524885
v -6.909688 7.274274 7.526878
v -6.909688 7.274274 7.526878
v -6.909688 7.274274 7.526878
v -6.909688 7.274274 7.526878
v -6.909688 7.274274 7.526878
v -6.899570 7.289823 7.550061
v -6.899570 7.289823 7.550061
v -6.899570 7.289823 7.550061
v -6.899570 7.289823 7.550061
v -6.899570 7.289823 7.550061
v -6.899570 7.289823 7.550061
v -6.930035 7.263113 7.513006
v -6.930035 7.263113 7.513006
v -6.930035 7.263113 7.513006
v -6.930035 7.263113 7.513006
v -6.930035 7.263113 7.513006
v -6.906247 7.274270 7.550061
v -6.906247 7.274270 7.550061
v -6.906247 7.274270 7.550061
v -6.906247 7.274270 7.550061
v -6.906247 7.274270 7.550061
v -6.906247 7.274270 7.550061
v -6.921088 7.263113 7.530579
v -6.921088 7.263113 7.530579
v -6.921088 7.263113 7.530579
v -6.921088 7.263113 7.530579
v -6.921088 7.263113 7.530579
v -6.918496 7.263113 7.550061
v -6.918496 7.263113 7.550061
v -6.918496 7.263113 7.550061
v -6.918496 7.263113 7.550061
v -6.921088 7.263113 7.569543
v -6.921088 7.263113 7.569543
v -6.921088 7.263113 7.569543
v -6.921088 7.263113 7.569543
v -6.921088 7.263113 7.569543
v -6.921088 7.263113 7.569543
v -6.909688 7.274274 7.573243
v -6.909688 7.274274 7.573243
v -6.909688 7.274274 7.573243
v -6.909688 7.274274 7.573243
v -6.909688 7.274274 7.573243
v -6.903553 7.289823 7.575236
v -6.903553 7.289823 7.575236
v -6.903553 7.289823 7.575236
v -6.903553 7.289823 7.575236
v -6.903553 7.289823 7.575236
v -6.920341 7.274274 7.594157
v -6.920341 7.274274 7.594157
v -6.920341 7.274274 7.594157
v -6.920341 7.274274 7.594157
v -6.920341 7.274274 7.594157
v -6.920341 7.274274 7.594157
v -6.915133 7.289823 7.597948
v -6.915133 7.289823 7.597948
v -6.915133 7.289823 7.597948
v -6.915133 7.289823 7.597948
v -6.915133 7.289823 7.597948
v -6.930035 7.263113 7.587117
v -6.930035 7.263113 7.587117
v -6.930035 7.263113 7.587117
v -6.930035 7.263113 7.587117
v -6.936944 7.274274 7.610755
v -6.936944 7.274274 7.610755
v -6.936944 7.274274 7.610755
v -6.936944 7.274274 7.610755
v -6.936944 7.274274 7.610755
v -6.936944 7.274274 7.610755
v -6.943984 7.263113 7.601063
v -6.943984 7.263113 7.601063
v -6.943984 7.263113 7.601063
v -6.943984 7.263113 7.601063
v -6.943984 7.263113 7.601063
v -6.957859 7.274274 7.621410
v -6.957859 7.274274 7.621410
v -6.957859 7.274274 7.621410
v -6.957859 7.274274 7.621410
v -6.957859 7.274274 7.621410
v -6.957859 7.274274 7.621410
v -7.018090 7.263113 7.499058
v -7.018090 7.263113 7.499058
v -7.018090 7.263113 7.499058
v -7.018090 7.263113 7.499058
v -7.041739 7.274274 7.505964
v -7.041739 7.274274 7.505964
v -7.041739 7.274274 7.505964
v -7.041739 7.274274 7.505964
v -7.041739 7.274274 7.505964
v -7.046950 7.289823 7.502175
v -7.046950 7.289823 7.502175
v -7.046950 7.289823 7.502175
v -7.046950 7.289823 7.502175
v -7.058525 7.289823 7.524885
v -7.058525 7.289823 7.524885
v -7.058525 7.289823 7.524885
v -7.058525 7.289823 7.524885
v -7.058525 7.289823 7.524885
v -7.032044 7.263113 7.513006
v -7.032044 7.263113 7.513006
v -7.032044 7.263113 7.513006
v -7.032044 7.263113 7.513006
v -7.011095 7.258445 7.520012
v -7.011095 7.258445 7.520012
v -7.011095 7.258445 7.520012
v -7.011095 7.258445 7.520012
v -7.052390 7.274274 7.526878
v -7.052390 7.274274 7.526878
v -7.052390 7.274274 7.526878
v -7.052390 7.274274 7.526878
v -7.052390 7.274274 7.526878
v -7.062513 7.289823 7.550061
v -7.062513 7.289823 7.550061
v -7.062513 7.289823 7.550061
v -7.062513 7.289823 7.550061
v -7.062513 7.289823 7.550061
v -7.062513 7.289823 7.550061
v -7.040995 7.263113 7.530579
v -7.040995 7.263113 7.530579
v -7.040995 7.263113 7.530579
v -7.040995 7.263113 7.530579
v -7.040995 7.263113 7.530579
v -7.055836 7.274270 7.550061
v -7.055836 7.274270 7.550061
v -7.055836 7.274270 7.550061
v -7.055836 7.274270 7.550061
v -7.055836 7.274270 7.550061
v -7.055836 7.274270 7.550061
v -7.043587 7.263113 7.550061
v -7.043587 7.263113 7.550061
v -7.043587 7.263113 7.550061
v -7.043587 7.263113 7.550061
v -7.040995 7.263113 7.569543
v -7.040995 7.263113 7.569543
v -7.040995 7.263113 7.569543
v -7.040995 7.263113 7.569543
v -7.040995 7.263113 7.569543
v -7.052390 7.274274 7.573243
v -7.052390 7.274274 7.573243
v -7.052390 7.274274 7.573243
v -7.052390 7.274274 7.573243
v -7.052390 7.274274 7.573243
v -7.052390 7.274274 7.573243
v -7.032044 7.263114 7.587117
v -7.032044 7.263114 7.587117
v -7.032044 7.263114 7.587117
v -7.032044 7.263114 7.587117
v -7.032044 7.263114 7.587117
v -7.058525 7.289823 7.575236
v -7.058525 7.289823 7.575236
v -7.058525 7.289823 7.575236
v -7.058525 7.289823 7.575236
v -7.058525 7.289823 7.575236
v -7.041739 7.274274 7.594157
v -7.041739 7.274274 7.594157
v -7.041739 7.274274 7.594157
v -7.041739 7.274274 7.594157
v -7.041739 7.274274 7.594157
v -7.046950 7.289823 7.597948
v -7.046950 7.289823 7.597948
v -7.046950 7.289823 7.597948
v -7.046950 7.289823 7.597948
v -6.981035 7.258445 7.507035
v -6.981035 7.258445 7.507035
v -6.981035 7.258445 7.507035
v -6.981035 7.258445 7.507035
v -6.981035 7.258445 7.507035
v -6.981035 7.258445 7.507035
v -6.950986 7.258445 7.520012
v -6.950986 7.258445 7.520012
v -6.950986 7.258445 7.520012
v -6.950986 7.258445 7.520012
v -6.938008 7.258445 7.550061
v -6.938008 7.258445 7.550061
v -6.938008 7.258445 7.550061
v -6.938008 7.258445 7.550061
v -6.938008 7.258445 7.550061
v -6.950986 7.258445 7.580111
v -6.950986 7.258445 7.580111
v -6.950986 7.258445 7.580111
v -6.950986 7.258445 7.580111
v -6.961559 7.263113 7.610018
v -6.961559 7.263113 7.610018
v -6.961559 7.263113 7.610018
v -6.961559 7.263113 7.610018
v -6.961559 7.263113 7.610018
v -6.981035 7.274270 7.624855
v -6.981035 7.274270 7.624855
v -6.981035 7.274270 7.624855
v -6.981035 7.274270 7.624855
v -6.981035 7.274270 7.624855
v -6.981035 7.274270 7.624855
v -6.981035 7.289823 7.631530
v -6.981035 7.289823 7.631530
v -6.981035 7.289823 7.631530
v -6.981035 7.289823 7.631530
v -6.981035 7.289823 7.631530
v -6.981035 7.289823 7.631530
v -6.955869 7.289823 7.627542
v -6.955869 7.289823 7.627542
v -6.955869 7.289823 7.627542
v -6.955869 7.289823 7.627542
v -6.955869 7.289823 7.627542
v -6.981035 7.263113 7.612609
v -6.981035 7.263113 7.612609
v -6.981035 7.263113 7.612609
v -6.981035 7.263113 7.612609
v -6.981035 7.258445 7.593087
v -6.981035 7.258445 7.593087
v -6.981035 7.258445 7.593087
v -6.981035 7.258445 7.593087
v -6.981035 7.258445 7.593087
v -7.000522 7.263113 7.610018
v -7.000522 7.263113 7.610018
v -7.000522 7.263113 7.610018
v -7.000522 7.263113 7.610018
v -7.000522 7.263113 7.610018
v -7.004224 7.274274 7.621410
v -7.004224 7.274274 7.621410
v -7.004224 7.274274 7.621410
v -7.004224 7.274274 7.621410
v -7.004224 7.274274 7.621410
v -7.018090 7.263113 7.601063
v -7.018090 7.263113 7.601063
v -7.018090 7.263113 7.601063
v -7.018090 7.263113 7.601063
v -7.011095 7.258445 7.580111
v -7.011095 7.258445 7.580111
v -7.011095 7.258445 7.580111
v -7.011095 7.258445 7.580111
v -7.024072 7.258445 7.550061
v -7.024072 7.258445 7.550061
v -7.024072 7.258445 7.550061
v -7.024072 7.258445 7.550061
v -7.024072 7.258445 7.550061
v -6.933161 7.289823 7.615970
v -6.933161 7.289823 7.615970
v -6.933161 7.289823 7.615970
v -6.933161 7.289823 7.615970
v -6.967934 7.355634 7.509720
v -6.967934 7.355634 7.509720
v -6.967934 7.355634 7.509720
v -6.967934 7.355634 7.509720
v -7.021375 7.355634 7.563169
v -7.021375 7.355634 7.563169
v -7.021375 7.355634 7.563169
v -7.021375 7.355634 7.563169
v -7.021375 7.355634 7.563169
v -7.021375 7.364853 7.563169
v -7.021375 7.364853 7.563169
v -7.015357 7.364853 7.574992
v -7.015357 7.364853 7.574992
v -7.015357 7.364853 7.574992
v -7.015357 7.355634 7.574992
v -7.015357 7.355634 7.574992
v -7.015357 7.355634 7.574992
v -7.015357 7.355634 7.574992
v 7.013971 -7.598528 7.502175
v 7.013971 -7.598528 7.502175
v 7.013971 -7.598528 7.502175
v 7.013971 -7.598528 7.502175
v 7.025550 -7.598528 7.524885
v 7.025550 -7.598528 7.524885
v 7.025550 -7.598528 7.524885
v 7.025550 -7.598528 7.524885
v 7.029534 -7.598528 7.550061
v 7.029534 -7.598528 7.550061
v 7.029534 -7.598528 7.550061
v 7.029534 -7.598528 7.550061
v 7.025550 -7.598528 7.575236
v 7.025550 -7.598528 7.575236
v 7.025550 -7.598528 7.575236
v 7.025550 -7.598528 7.575236
v 7.013971 -7.598528 7.597948
v 7.013971 -7.598528 7.597948
v 7.013971 -7.598528 7.597948
v 7.013971 -7.598528 7.597948
v 6.995942 -7.598528 7.484151
v 6.995942 -7.598528 7.484151
v 6.995942 -7.598528 7.484151
v 6.995942 -7.598528 7.484151
v 6.973231 -7.598528 7.472579
v 6.973231 -7.598528 7.472579
v 6.973231 -7.598528 7.472579
v 6.973231 -7.598528 7.472579
v 6.900182 -7.598528 7.484151
v 6.900182 -7.598528 7.484151
v 6.900182 -7.598528 7.484151
v 6.900182 -7.598528 7.484151
v 6.882154 -7.598528 7.502175
v 6.882154 -7.598528 7.502175
v 6.882154 -7.598528 7.502175
v 6.882154 -7.598528 7.502175
v 6.870574 -7.598528 7.524885
v 6.870574 -7.598528 7.524885
v 6.870574 -7.598528 7.524885
v 6.870574 -7.598528 7.524885
v 6.866591 -7.598528 7.550061
v 6.866591 -7.598528 7.550061
v 6.866591 -7.598528 7.550061
v 6.866591 -7.598528 7.550061
v 6.870574 -7.598528 7.575236
v 6.870574 -7.598528 7.575236
v 6.870574 -7.598528 7.575236
v 6.870574 -7.598528 7.575236
v 6.882154 -7.598528 7.597948
v 6.882154 -7.598528 7.597948
v 6.882154 -7.598528 7.597948
v 6.882154 -7.598528 7.597948
v 6.900182 -7.598528 7.615970
v 6.900182 -7.598528 7.615970
v 6.900182 -7.598528 7.615970
v 6.900182 -7.598528 7.615970
v 6.922888 -7.598528 7.627542
v 6.922888 -7.598528 7.627542
v 6.922888 -7.598528 7.627542
v 6.922888 -7.598528 7.627542
v 6.948065 -7.598528 7.631530
v 6.948065 -7.598528 7.631530
v 6.948065 -7.598528 7.631530
v 6.948065 -7.598528 7.631530
v 6.973231 -7.598528 7.627542
v 6.973231 -7.598528 7.627542
v 6.973231 -7.598528 7.627542
v 6.973231 -7.598528 7.627542
v 6.995942 -7.598528 7.615970
v 6.995942 -7.598528 7.615970
v 6.995942 -7.598528 7.615970
v 6.995942 -7.598528 7.615970
v 6.948065 -7.527953 7.550061
v 6.982378 -7.625140 7.525129
v 6.982378 -7.625140 7.525129
v 6.982378 -7.625140 7.525129
v 6.982378 -7.625140 7.525129
v 6.972991 -7.625140 7.515746
v 6.972991 -7.625140 7.515746
v 6.972991 -7.625140 7.515746
v 6.972991 -7.625140 7.515746
v 6.972991 -7.634360 7.515746
v 6.972991 -7.634360 7.515746
v 6.982378 -7.634360 7.525129
v 6.982378 -7.634360 7.525129
v 6.988401 -7.625140 7.536954
v 6.988401 -7.625140 7.536954
v 6.988401 -7.625140 7.536954
v 6.988401 -7.625140 7.536954
v 6.988401 -7.634360 7.536954
v 6.988401 -7.634360 7.536954
v 6.990482 -7.625140 7.550061
v 6.990482 -7.625140 7.550061
v 6.990482 -7.625140 7.550061
v 6.990482 -7.625140 7.550061
v 6.990482 -7.634360 7.550061
v 6.990482 -7.634360 7.550061
v 6.961168 -7.634360 7.509720
v 6.961168 -7.634360 7.509720
v 6.961168 -7.625140 7.509720
v 6.961168 -7.625140 7.509720
v 6.961168 -7.625140 7.509720
v 6.961168 -7.625140 7.509720
v 6.948065 -7.625140 7.507644
v 6.948065 -7.625140 7.507644
v 6.948065 -7.625140 7.507644
v 6.948065 -7.625140 7.507644
v 6.948065 -7.634360 7.507644
v 6.948065 -7.634360 7.507644
v 6.934952 -7.625140 7.509720
v 6.934952 -7.625140 7.509720
v 6.934952 -7.625140 7.509720
v 6.934952 -7.625140 7.509720
v 6.934952 -7.634360 7.509720
v 6.934952 -7.634360 7.509720
v 6.923128 -7.634360 7.515746
v 6.923128 -7.634360 7.515746
v 6.923128 -7.625140 7.515746
v 6.923128 -7.625140 7.515746
v 6.923128 -7.625140 7.515746
v 6.923128 -7.625140 7.515746
v 6.913747 -7.634360 7.525129
v 6.913747 -7.634360 7.525129
v 6.913747 -7.625140 7.525129
v 6.913747 -7.625140 7.525129
v 6.913747 -7.625140 7.525129
v 6.913747 -7.625140 7.525129
v 6.907730 -7.634360 7.536954
v 6.907730 -7.634360 7.536954
v 6.907730 -7.625140 7.536954
v 6.907730 -7.625140 7.536954
v 6.907730 -7.625140 7.536954
v 6.907730 -7.625140 7.536954
v 6.905644 -7.634360 7.550061
v 6.905644 -7.634360 7.550061
v 6.905644 -7.625140 7.550061
v 6.905644 -7.625140 7.550061
v 6.905644 -7.625140 7.550061
v 6.905644 -7.625140 7.550061
v 6.907730 -7.634360 7.563169
v 6.907730 -7.634360 7.563169
v 6.907730 -7.625140 7.563169
v 6.907730 -7.625140 7.563169
v 6.907730 -7.625140 7.563169
v 6.907730 -7.625140 7.563169
v 6.913747 -7.634360 7.574992
v 6.913747 -7.634360 7.574992
v 6.913747 -7.625140 7.574992
v 6.913747 -7.625140 7.574992
v 6.913747 -7.625140 7.574992
v 6.913747 -7.625140 7.574992
v 6.923128 -7.634360 7.584378
v 6.923128 -7.634360 7.584378
v 6.923128 -7.625140 7.584378
v 6.923128 -7.625140 7.584378
v 6.923128 -7.625140 7.584378
v 6.923128 -7.625140 7.584378
v 6.934952 -7.634360 7.590401
v 6.934952 -7.634360 7.590401
v 6.934952 -7.625140 7.590401
v 6.934952 -7.625140 7.590401
v 6.934952 -7.625140 7.590401
v 6.934952 -7.625140 7.590401
v 6.948065 -7.634360 7.592476
v 6.948065 -7.634360 7.592476
v 6.948065 -7.625140 7.592476
v 6.948065 -7.625140 7.592476
v 6.948065 -7.625140 7.592476
v 6.948065 -7.625140 7.592476
v 6.961168 -7.634360 7.590401
v 6.961168 -7.634360 7.590401
v 6.961168 -7.625140 7.590401
v 6.961168 -7.625140 7.590401
v 6.961168 -7.625140 7.590401
v 6.961168 -7.625140 7.590401
v 6.972991 -7.634360 7.584378
v 6.972991 -7.634360 7.584378
v 6.972991 -7.625140 7.584378
v 6.972991 -7.625140 7.584378
v 6.972991 -7.625140 7.584378
v 6.972991 -7.625140 7.584378
v 6.982378 -7.634360 7.574992
v 6.982378 -7.634360 7.574992
v 6.982378 -7.625140 7.574992
v 6.982378 -7.625140 7.574992
v 6.982378 -7.625140 7.574992
v 6.982378 -7.625140 7.574992
v 6.988401 -7.634360 7.563169
v 6.988401 -7.634360 7.563169
v 6.988401 -7.625140 7.563169
v 6.988401 -7.625140 7.563169
v 6.988401 -7.625140 7.563169
v 6.988401 -7.625140 7.563169
v 6.946519 -7.522077 7.541319
v 6.946519 -7.522077 7.541319
v 6.946519 -7.522077 7.541319
v 6.946519 -7.530831 7.541319
v 6.946519 -7.530831 7.541319
v 6.954317 -7.522077 7.545308
v 6.954317 -7.522077 7.545308
v 6.954317 -7.522077 7.545308
v 6.954317 -7.530831 7.545308
v 6.954317 -7.530831 7.545308
v 6.939170 -7.530831 7.546071
v 6.939170 -7.530831 7.546071
v 6.939170 -7.522077 7.546071
v 6.939170 -7.522077 7.546071
v 6.939170 -7.522077 7.546071
v 6.939605 -7.530831 7.554814
v 6.939605 -7.530831 7.554814
v 6.939605 -7.522077 7.554814
v 6.939605 -7.522077 7.554814
v 6.939605 -7.522077 7.554814
v 6.947397 -7.530831 7.558803
v 6.947397 -7.530831 7.558803
v 6.947397 -7.522077 7.558803
v 6.947397 -7.522077 7.558803
v 6.947397 -7.522077 7.558803
v 6.954751 -7.530831 7.554051
v 6.954751 -7.530831 7.554051
v 6.954751 -7.522077 7.554051
v 6.954751 -7.522077 7.554051
v 6.954751 -7.522077 7.554051
v -6.915133 7.329019 7.502175
v -6.915133 7.329019 7.502175
v -6.915133 7.329019 7.502175
v -6.915133 7.329019 7.502175
v -6.903553 7.329019 7.524885
v -6.903553 7.329019 7.524885
v -6.903553 7.329019 7.524885
v -6.903553 7.329019 7.524885
v -6.899570 7.329019 7.550061
v -6.899570 7.329019 7.550061
v -6.899570 7.329019 7.550061
v -6.899570 7.329019 7.550061
v -6.903553 7.329019 7.575236
v -6.903553 7.329019 7.575236
v -6.903553 7.329019 7.575236
v -6.903553 7.329019 7.575236
v -6.915133 7.329019 7.597948
v -6.915133 7.329019 7.597948
v -6.915133 7.329019 7.597948
v -6.915133 7.329019 7.597948
v -6.933161 7.329019 7.615970
v -6.933161 7.329019 7.615970
v -6.933161 7.329019 7.615970
v -6.933161 7.329019 7.615970
v -6.933161 7.329019 7.484151
v -6.933161 7.329019 7.484151
v -6.933161 7.329019 7.484151
v -6.933161 7.329019 7.484151
v -6.955869 7.329019 7.472579
v -6.955869 7.329019 7.472579
v -6.955869 7.329019 7.472579
v -6.955869 7.329019 7.472579
v -6.981035 7.329019 7.468591
v -6.981035 7.329019 7.468591
v -6.981035 7.329019 7.468591
v -6.981035 7.329019 7.468591
v -7.006213 7.329019 7.472579
v -7.006213 7.329019 7.472579
v -7.006213 7.329019 7.472579
v -7.006213 7.329019 7.472579
v -7.028921 7.329019 7.484151
v -7.028921 7.329019 7.484151
v -7.028921 7.329019 7.484151
v -7.028921 7.329019 7.484151
v -7.046950 7.329019 7.502175
v -7.046950 7.329019 7.502175
v -7.046950 7.329019 7.502175
v -7.046950 7.329019 7.502175
v -7.058525 7.329019 7.524885
v -7.058525 7.329019 7.524885
v -7.058525 7.329019 7.524885
v -7.058525 7.329019 7.524885
v -7.062513 7.329019 7.550061
v -7.062513 7.329019 7.550061
v -7.062513 7.329019 7.550061
v -7.062513 7.329019 7.550061
v -7.058525 7.329019 7.575236
v -7.058525 7.329019 7.575236
v -7.058525 7.329019 7.575236
v -7.058525 7.329019 7.575236
v -7.046950 7.329019 7.597948
v -7.046950 7.329019 7.597948
v -7.046950 7.329019 7.597948
v -7.046950 7.329019 7.597948
v -7.028921 7.329019 7.615970
v -7.028921 7.329019 7.615970
v -7.028921 7.329019 7.615970
v -7.028921 7.329019 7.615970
v -7.006213 7.329019 7.627542
v -7.006213 7.329019 7.627542
v -7.006213 7.329019 7.627542
v -7.006213 7.329019 7.627542
v -6.981035 7.329019 7.631530
v -6.981035 7.329019 7.631530
v -6.981035 7.329019 7.631530
v -6.981035 7.329019 7.631530
v -6.955869 7.329019 7.627542
v -6.955869 7.329019 7.627542
v -6.955869 7.329019 7.627542
v -6.955869 7.329019 7.627542
v -6.981035 7.258445 7.550061
v -6.946726 7.355634 7.525129
v -6.946726 7.355634 7.525129
v -6.946726 7.355634 7.525129
v -6.946726 7.355634 7.525129
v -6.946726 7.364853 7.525129
v -6.946726 7.364853 7.525129
v -6.940699 7.355634 7.536954
v -6.940699 7.355634 7.536954
v -6.940699 7.355634 7.536954
v -6.940699 7.355634 7.536954
v -6.940699 7.364853 7.536954
v -6.940699 7.364853 7.536954
v -6.938619 7.355634 7.550061
v -6.938619 7.355634 7.550061
v -6.938619 7.355634 7.550061
v -6.938619 7.355634 7.550061
v -6.938619 7.364853 7.550061
v -6.938619 7.364853 7.550061
v -6.981035 7.355634 7.507644
v -6.981035 7.355634 7.507644
v -6.981035 7.355634 7.507644
v -6.981035 7.355634 7.507644
v -6.981035 7.364853 7.507644
v -6.981035 7.364853 7.507644
v -6.994149 7.355634 7.509720
v -6.994149 7.355634 7.509720
v -6.994149 7.355634 7.509720
v -6.994149 7.355634 7.509720
v -6.994149 7.364853 7.509720
v -6.994149 7.364853 7.509720
v -7.005972 7.364853 7.515746
v -7.005972 7.364853 7.515746
v -7.005972 7.355634 7.515746
v -7.005972 7.355634 7.515746
v -7.005972 7.355634 7.515746
v -7.005972 7.355634 7.515746
v -7.015357 7.364853 7.525129
v -7.015357 7.364853 7.525129
v -7.015357 7.355634 7.525129
v -7.015357 7.355634 7.525129
v -7.015357 7.355634 7.525129
v -7.015357 7.355634 7.525129
v -7.021375 7.364853 7.536954
v -7.021375 7.364853 7.536954
v -7.021375 7.355634 7.536954
v -7.021375 7.355634 7.536954
v -7.021375 7.355634 7.536954
v -7.021375 7.355634 7.536954
v -7.023460 7.364853 7.550061
v -7.023460 7.364853 7.550061
v -7.023460 7.355634 7.550061
v -7.023460 7.355634 7.550061
v -7.023460 7.355634 7.550061
v -7.023460 7.355634 7.550061
v -7.005972 7.364853 7.584378
v -7.005972 7.364853 7.584378
v -7.005972 7.355634 7.584378
v -7.005972 7.355634 7.584378
v -7.005972 7.355634 7.584378
v -7.005972 7.355634 7.584378
v -6.994149 7.364853 7.590401
v -6.994149 7.364853 7.590401
v -6.994149 7.355634 7.590401
v -6.994149 7.355634 7.590401
v -6.994149 7.355634 7.590401
v -6.994149 7.355634 7.590401
v -6.981035 7.364853 7.592476
v -6.981035 7.364853 7.592476
v -6.981035 7.355634 7.592476
v -6.981035 7.355634 7.592476
v -6.981035 7.355634 7.592476
v -6.981035 7.355634 7.592476
v -6.967934 7.364853 7.590401
v -6.967934 7.364853 7.590401
v -6.967934 7.355634 7.590401
v -6.967934 7.355634 7.590401
v -6.967934 7.355634 7.590401
v -6.967934 7.355634 7.590401
v -6.956109 7.364853 7.584378
v -6.956109 7.364853 7.584378
v -6.956109 7.355634 7.584378
v -6.956109 7.355634 7.584378
v -6.956109 7.355634 7.584378
v -6.956109 7.355634 7.584378
v -6.946726 7.364853 7.574992
v -6.946726 7.364853 7.574992
v -6.946726 7.355634 7.574992
v -6.946726 7.355634 7.574992
v -6.946726 7.355634 7.574992
v -6.946726 7.355634 7.574992
v -6.940699 7.364853 7.563169
v -6.940699 7.364853 7.563169
v -6.940699 7.355634 7.563169
v -6.940699 7.355634 7.563169
v -6.940699 7.355634 7.563169
v -6.940699 7.355634 7.563169
v -6.982583 7.252570 7.541319
v -6.982583 7.252570 7.541319
v -6.982583 7.252570 7.541319
v -6.974786 7.252570 7.545308
v -6.974786 7.252570 7.545308
v -6.974786 7.252570 7.545308
v -6.982583 7.261324 7.541319
v -6.982583 7.261324 7.541319
v -6.974786 7.261324 7.545308
v -6.974786 7.261324 7.545308
v -6.989933 7.261324 7.546071
v -6.989933 7.261324 7.546071
v -6.989933 7.252570 7.546071
v -6.989933 7.252570 7.546071
v -6.989933 7.252570 7.546071
v -6.989496 7.261324 7.554814
v -6.989496 7.261324 7.554814
v -6.989496 7.252570 7.554814
v -6.989496 7.252570 7.554814
v -6.989496 7.252570 7.554814
v -6.981703 7.261324 7.558803
v -6.981703 7.261324 7.558803
v -6.981703 7.252570 7.558803
v -6.981703 7.252570 7.558803
v -6.981703 7.252570 7.558803
v -6.974353 7.261324 7.554051
v -6.974353 7.261324 7.554051
v -6.974353 7.252570 7.554051
v -6.974353 7.252570 7.554051
v -6.974353 7.252570 7.554051
vt 0.379780 0.030450
vt 0.666663 0.032590
vt 0.666663 0.032590
vt 0.379780 0.030450
vt 0.726964 0.034424
vt 0.726964 0.034424
vt 0.021904 0.030218
vt 0.203861 0.111407
vt 0.203861 0.111407
vt 0.203861 0.111407
vt 0.702590 0.628037
vt 0.702590 0.628037
vt 0.204244 0.029627
vt 0.197420 0.032968
vt 0.706423 0.603837
vt 0.706423 0.603837
vt 0.606902 0.106210
vt 0.606902 0.106210
vt 0.606902 0.106210
vt 0.606902 0.106210
vt 0.606902 0.106210
vt 0.681561 0.086536
vt 0.708139 0.087449
vt 0.708139 0.087449
vt 0.681561 0.086536
vt 0.681561 0.086536
vt 0.708139 0.087449
vt 0.584084 0.058125
vt 0.584084 0.058125
vt 0.379397 0.112229
vt 0.584084 0.058125
vt 0.379397 0.112229
vt 0.539625 0.143723
vt 0.539625 0.143723
vt 0.539625 0.143723
vt 0.539625 0.143723
vt 0.539625 0.143723
vt 0.506160 0.102158
vt 0.506160 0.102158
vt 0.379013 0.194009
vt 0.379013 0.194009
vt 0.485391 0.198117
vt 0.485391 0.198117
vt 0.485391 0.198117
vt 0.485391 0.198117
vt 0.485391 0.198117
vt 0.398784 0.248591
vt 0.398784 0.248591
vt 0.398784 0.248591
vt 0.378247 0.357568
vt 0.378247 0.357568
vt 0.441921 0.167052
vt 0.441921 0.167052
vt 0.378630 0.275788
vt 0.378630 0.275788
vt 0.449479 0.265915
vt 0.449479 0.265915
vt 0.449479 0.265915
vt 0.449479 0.265915
vt 0.449479 0.265915
vt 0.381218 0.339825
vt 0.381218 0.339825
vt 0.381218 0.339825
vt 0.381218 0.339825
vt 0.377863 0.439347
vt 0.377863 0.439347
vt 0.436268 0.341274
vt 0.436268 0.341274
vt 0.436268 0.341274
vt 0.436268 0.341274
vt 0.436268 0.341274
vt 0.436268 0.341274
vt 0.895580 0.214706
vt 0.895580 0.214706
vt 0.895580 0.214706
vt 0.895580 0.214706
vt 0.895580 0.214706
vt 0.895580 0.214706
vt 0.942009 0.188407
vt 0.942009 0.188407
vt 0.018061 0.275529
vt 0.018061 0.275529
vt 0.883655 0.117102
vt 0.883655 0.117102
vt 0.883655 0.117102
vt 0.019342 0.193759
vt 0.019342 0.193759
vt 0.846048 0.155376
vt 0.846048 0.155376
vt 0.846048 0.155376
vt 0.846048 0.155376
vt 0.846048 0.155376
vt 0.846048 0.155376
vt 0.808490 0.065422
vt 0.808490 0.065422
vt 0.808490 0.065422
vt 0.020623 0.111989
vt 0.020623 0.111989
vt 0.781459 0.112405
vt 0.781459 0.112405
vt 0.781459 0.112405
vt 0.781459 0.112405
vt 0.781459 0.112405
vt 0.781459 0.112405
vt 0.726964 0.034424
vt 0.726964 0.034424
vt 0.666663 0.032590
vt 0.666663 0.032590
vt 0.021904 0.030218
vt 0.379780 0.030450
vt 0.708139 0.087449
vt 0.708139 0.087449
vt 0.708139 0.087449
vt 0.681561 0.086536
vt 0.681561 0.086536
vt 0.681561 0.086536
vt 0.756769 0.158375
vt 0.756769 0.158375
vt 0.756769 0.158375
vt 0.756769 0.158375
vt 0.756769 0.158375
vt 0.810594 0.192745
vt 0.810594 0.192745
vt 0.810594 0.192745
vt 0.810594 0.192745
vt 0.810594 0.192745
vt 0.692891 0.142194
vt 0.692891 0.142194
vt 0.692891 0.142194
vt 0.692891 0.142194
vt 0.628062 0.153673
vt 0.628062 0.153673
vt 0.628062 0.153673
vt 0.628062 0.153673
vt 0.628062 0.153673
vt 0.628062 0.153673
vt 0.606902 0.106210
vt 0.606902 0.106210
vt 0.606902 0.106210
vt 0.606902 0.106210
vt 0.606902 0.106210
vt 0.539625 0.143723
vt 0.539625 0.143723
vt 0.539625 0.143723
vt 0.539625 0.143723
vt 0.539625 0.143723
vt 0.539625 0.143723
vt 0.584084 0.058125
vt 0.584084 0.058125
vt 0.584084 0.058125
vt 0.379397 0.112229
vt 0.379397 0.112229
vt 0.506160 0.102158
vt 0.379013 0.194009
vt 0.379013 0.194009
vt 0.506160 0.102158
vt 0.528475 0.544907
vt 0.528475 0.544907
vt 0.528475 0.544907
vt 0.528475 0.544907
vt 0.528475 0.544907
vt 0.493181 0.585130
vt 0.376714 0.684685
vt 0.376714 0.684685
vt 0.493181 0.585130
vt 0.571902 0.633516
vt 0.571902 0.633516
vt 0.571902 0.633516
vt 0.376330 0.766465
vt 0.376330 0.766465
vt 0.540410 0.749405
vt 0.540410 0.749405
vt 0.540414 0.525081
vt 0.661097 0.579871
vt 0.661097 0.579871
vt 0.549137 0.749404
vt 0.549141 0.525082
vt 0.549136 0.738212
vt 0.549136 0.738212
vt 0.549136 0.738212
vt 0.817751 0.354680
vt 0.817751 0.354680
vt 0.817751 0.354680
vt 0.817751 0.354680
vt 0.817751 0.354680
vt 0.875869 0.297359
vt 0.875869 0.297359
vt 0.875869 0.297359
vt 0.875869 0.297359
vt 0.875869 0.297359
vt 0.880147 0.358762
vt 0.880147 0.358762
vt 0.880147 0.358762
vt 0.880147 0.358762
vt 0.869018 0.419029
vt 0.869018 0.419029
vt 0.869018 0.419029
vt 0.869018 0.419029
vt 0.869018 0.419029
vt 0.869018 0.419029
vt 0.869018 0.419029
vt 0.773131 0.447324
vt 0.773131 0.447324
vt 0.773131 0.447324
vt 0.773131 0.447324
vt 0.773131 0.447324
vt 0.851201 0.240373
vt 0.851201 0.240373
vt 0.851201 0.240373
vt 0.851201 0.240373
vt 0.851201 0.240373
vt 0.782403 0.257244
vt 0.782403 0.257244
vt 0.782403 0.257244
vt 0.782403 0.257244
vt 0.810594 0.192745
vt 0.810594 0.192745
vt 0.810594 0.192745
vt 0.810594 0.192745
vt 0.846048 0.155376
vt 0.846048 0.155376
vt 0.846048 0.155376
vt 0.846048 0.155376
vt 0.846048 0.155376
vt 0.846048 0.155376
vt 0.895580 0.214706
vt 0.895580 0.214706
vt 0.895580 0.214706
vt 0.895580 0.214706
vt 0.895580 0.214706
vt 0.895580 0.214706
vt 0.756769 0.158375
vt 0.756769 0.158375
vt 0.756769 0.158375
vt 0.756769 0.158375
vt 0.756769 0.158375
vt 0.781459 0.112405
vt 0.781459 0.112405
vt 0.781459 0.112405
vt 0.781459 0.112405
vt 0.781459 0.112405
vt 0.692891 0.142194
vt 0.692891 0.142194
vt 0.692891 0.142194
vt 0.692891 0.142194
vt 0.690421 0.208834
vt 0.690421 0.208834
vt 0.690421 0.208834
vt 0.690421 0.208834
vt 0.690421 0.208834
vt 0.690421 0.208834
vt 0.628062 0.153673
vt 0.628062 0.153673
vt 0.628062 0.153673
vt 0.628062 0.153673
vt 0.628062 0.153673
vt 0.571564 0.183835
vt 0.571564 0.183835
vt 0.571564 0.183835
vt 0.571564 0.183835
vt 0.594698 0.250097
vt 0.594698 0.250097
vt 0.594698 0.250097
vt 0.594698 0.250097
vt 0.527326 0.227764
vt 0.527326 0.227764
vt 0.527326 0.227764
vt 0.527326 0.227764
vt 0.498369 0.282240
vt 0.498369 0.282240
vt 0.498369 0.282240
vt 0.498369 0.282240
vt 0.498369 0.282240
vt 0.488609 0.342655
vt 0.488609 0.342655
vt 0.488609 0.342655
vt 0.488609 0.342655
vt 0.551193 0.344084
vt 0.551193 0.344084
vt 0.551193 0.344084
vt 0.551193 0.344084
vt 0.551193 0.344084
vt 0.494214 0.403679
vt 0.494214 0.403679
vt 0.494214 0.403679
vt 0.494214 0.403679
vt 0.494214 0.403679
vt 0.520055 0.459713
vt 0.520055 0.459713
vt 0.520055 0.459713
vt 0.520055 0.459713
vt 0.587622 0.439899
vt 0.587622 0.439899
vt 0.587622 0.439899
vt 0.587622 0.439899
vt 0.561511 0.505727
vt 0.561511 0.505727
vt 0.561511 0.505727
vt 0.561511 0.505727
vt 0.615071 0.537602
vt 0.615071 0.537602
vt 0.615071 0.537602
vt 0.615071 0.537602
vt 0.615071 0.537602
vt 0.678559 0.485387
vt 0.678559 0.485387
vt 0.678559 0.485387
vt 0.678559 0.485387
vt 0.678559 0.485387
vt 0.675720 0.549711
vt 0.675720 0.549711
vt 0.675720 0.549711
vt 0.675720 0.549711
vt 0.737254 0.542674
vt 0.737254 0.542674
vt 0.737254 0.542674
vt 0.737254 0.542674
vt 0.737254 0.542674
vt 0.673305 0.604841
vt 0.673305 0.604841
vt 0.673305 0.604841
vt 0.673305 0.604841
vt 0.673305 0.604841
vt 0.673305 0.604841
vt 0.595336 0.584924
vt 0.595336 0.584924
vt 0.595336 0.584924
vt 0.595336 0.584924
vt 0.595336 0.584924
vt 0.657887 0.658998
vt 0.657887 0.658998
vt 0.684264 0.659691
vt 0.684264 0.659691
vt 0.375947 0.848244
vt 0.009094 0.847922
vt 0.571902 0.633516
vt 0.571902 0.633516
vt 0.571902 0.633516
vt 0.376330 0.766465
vt 0.376330 0.766465
vt 0.793495 0.515012
vt 0.793495 0.515012
vt 0.793495 0.515012
vt 0.793495 0.515012
vt 0.793495 0.515012
vt 0.838761 0.472693
vt 0.838761 0.472693
vt 0.838761 0.472693
vt 0.838761 0.472693
vt 0.838761 0.472693
vt 0.752639 0.591136
vt 0.752639 0.591136
vt 0.752639 0.591136
vt 0.752639 0.591136
vt 0.752639 0.591136
vt 0.752639 0.591136
vt 0.976746 0.273782
vt 0.976746 0.273782
vt 0.976746 0.273782
vt 0.016780 0.357300
vt 0.016780 0.357300
vt 0.942009 0.188407
vt 0.942009 0.188407
vt 0.018061 0.275529
vt 0.018061 0.275529
vt 0.925784 0.285793
vt 0.925784 0.285793
vt 0.925784 0.285793
vt 0.925784 0.285793
vt 0.925784 0.285793
vt 0.987301 0.366126
vt 0.987301 0.366126
vt 0.987301 0.366126
vt 0.987301 0.366126
vt 0.015499 0.439070
vt 0.015499 0.439070
vt 0.932365 0.362359
vt 0.932365 0.362359
vt 0.932365 0.362359
vt 0.932365 0.362359
vt 0.932365 0.362359
vt 0.932365 0.362359
vt 0.917091 0.437570
vt 0.917091 0.437570
vt 0.917091 0.437570
vt 0.917091 0.437570
vt 0.917091 0.437570
vt 0.966942 0.457165
vt 0.966942 0.457165
vt 0.966942 0.457165
vt 0.014218 0.520840
vt 0.014218 0.520840
vt 0.879032 0.504459
vt 0.879032 0.504459
vt 0.879032 0.504459
vt 0.879032 0.504459
vt 0.879032 0.504459
vt 0.879032 0.504459
vt 0.920796 0.537728
vt 0.920796 0.537728
vt 0.920796 0.537728
vt 0.012937 0.602610
vt 0.012937 0.602610
vt 0.822571 0.556974
vt 0.822571 0.556974
vt 0.822571 0.556974
vt 0.822571 0.556974
vt 0.822571 0.556974
vt 0.822571 0.556974
vt 0.822571 0.556974
vt 0.883655 0.117102
vt 0.883655 0.117102
vt 0.883655 0.117102
vt 0.019342 0.193759
vt 0.019342 0.193759
vt 0.808490 0.065422
vt 0.808490 0.065422
vt 0.808490 0.065422
vt 0.020623 0.111989
vt 0.020623 0.111989
vt 0.444850 0.417425
vt 0.444850 0.417425
vt 0.444850 0.417425
vt 0.444850 0.417425
vt 0.444850 0.417425
vt 0.394480 0.431641
vt 0.394480 0.431641
vt 0.394480 0.431641
vt 0.377480 0.521127
vt 0.377480 0.521127
vt 0.476998 0.487410
vt 0.476998 0.487410
vt 0.476998 0.487410
vt 0.476998 0.487410
vt 0.476998 0.487410
vt 0.431915 0.515843
vt 0.377097 0.602906
vt 0.377097 0.602906
vt 0.431915 0.515843
vt 0.528475 0.544907
vt 0.528475 0.544907
vt 0.528475 0.544907
vt 0.528475 0.544907
vt 0.528475 0.544907
vt 0.493181 0.585130
vt 0.376714 0.684685
vt 0.376714 0.684685
vt 0.493181 0.585130
vt 0.771267 0.640579
vt 0.771267 0.640579
vt 0.771267 0.640579
vt 0.010375 0.766151
vt 0.010375 0.766151
vt 0.853189 0.600517
vt 0.853189 0.600517
vt 0.011656 0.684381
vt 0.011656 0.684381
vt 0.976746 0.273782
vt 0.976746 0.273782
vt 0.976746 0.273782
vt 0.016780 0.357300
vt 0.016780 0.357300
vt 0.925784 0.285793
vt 0.925784 0.285793
vt 0.925784 0.285793
vt 0.925784 0.285793
vt 0.925784 0.285793
vt 0.987301 0.366126
vt 0.987301 0.366126
vt 0.987301 0.366126
vt 0.987301 0.366126
vt 0.015499 0.439070
vt 0.015499 0.439070
vt 0.851201 0.240373
vt 0.851201 0.240373
vt 0.851201 0.240373
vt 0.851201 0.240373
vt 0.851201 0.240373
vt 0.932365 0.362359
vt 0.932365 0.362359
vt 0.932365 0.362359
vt 0.932365 0.362359
vt 0.932365 0.362359
vt 0.932365 0.362359
vt 0.875869 0.297359
vt 0.875869 0.297359
vt 0.875869 0.297359
vt 0.875869 0.297359
vt 0.875869 0.297359
vt 0.880147 0.358762
vt 0.880147 0.358762
vt 0.880147 0.358762
vt 0.880147 0.358762
vt 0.869018 0.419029
vt 0.869018 0.419029
vt 0.869018 0.419029
vt 0.869018 0.419029
vt 0.869018 0.419029
vt 0.869018 0.419029
vt 0.917091 0.437570
vt 0.917091 0.437570
vt 0.917091 0.437570
vt 0.917091 0.437570
vt 0.917091 0.437570
vt 0.966942 0.457165
vt 0.966942 0.457165
vt 0.966942 0.457165
vt 0.014218 0.520840
vt 0.014218 0.520840
vt 0.879032 0.504459
vt 0.879032 0.504459
vt 0.879032 0.504459
vt 0.879032 0.504459
vt 0.879032 0.504459
vt 0.879032 0.504459
vt 0.920796 0.537728
vt 0.920796 0.537728
vt 0.920796 0.537728
vt 0.012937 0.602610
vt 0.012937 0.602610
vt 0.838761 0.472693
vt 0.838761 0.472693
vt 0.838761 0.472693
vt 0.838761 0.472693
vt 0.822571 0.556974
vt 0.822571 0.556974
vt 0.822571 0.556974
vt 0.822571 0.556974
vt 0.822571 0.556974
vt 0.822571 0.556974
vt 0.793495 0.515012
vt 0.793495 0.515012
vt 0.793495 0.515012
vt 0.793495 0.515012
vt 0.793495 0.515012
vt 0.752639 0.591136
vt 0.752639 0.591136
vt 0.752639 0.591136
vt 0.752639 0.591136
vt 0.752639 0.591136
vt 0.752639 0.591136
vt 0.571564 0.183835
vt 0.571564 0.183835
vt 0.571564 0.183835
vt 0.571564 0.183835
vt 0.485391 0.198117
vt 0.485391 0.198117
vt 0.485391 0.198117
vt 0.485391 0.198117
vt 0.485391 0.198117
vt 0.441921 0.167052
vt 0.378630 0.275788
vt 0.378630 0.275788
vt 0.441921 0.167052
vt 0.398784 0.248591
vt 0.398784 0.248591
vt 0.398784 0.248591
vt 0.378247 0.357568
vt 0.378247 0.357568
vt 0.527326 0.227764
vt 0.527326 0.227764
vt 0.527326 0.227764
vt 0.527326 0.227764
vt 0.594698 0.250097
vt 0.594698 0.250097
vt 0.594698 0.250097
vt 0.594698 0.250097
vt 0.449479 0.265915
vt 0.449479 0.265915
vt 0.449479 0.265915
vt 0.449479 0.265915
vt 0.449479 0.265915
vt 0.381218 0.339825
vt 0.381218 0.339825
vt 0.381218 0.339825
vt 0.381218 0.339825
vt 0.377863 0.439347
vt 0.377863 0.439347
vt 0.498369 0.282240
vt 0.498369 0.282240
vt 0.498369 0.282240
vt 0.498369 0.282240
vt 0.498369 0.282240
vt 0.436268 0.341274
vt 0.436268 0.341274
vt 0.436268 0.341274
vt 0.436268 0.341274
vt 0.436268 0.341274
vt 0.436268 0.341274
vt 0.488609 0.342655
vt 0.488609 0.342655
vt 0.488609 0.342655
vt 0.488609 0.342655
vt 0.494214 0.403679
vt 0.494214 0.403679
vt 0.494214 0.403679
vt 0.494214 0.403679
vt 0.494214 0.403679
vt 0.444850 0.417425
vt 0.444850 0.417425
vt 0.444850 0.417425
vt 0.444850 0.417425
vt 0.444850 0.417425
vt 0.444850 0.417425
vt 0.520055 0.459713
vt 0.520055 0.459713
vt 0.520055 0.459713
vt 0.520055 0.459713
vt 0.520055 0.459713
vt 0.394480 0.431641
vt 0.394480 0.431641
vt 0.394480 0.431641
vt 0.377480 0.521127
vt 0.377480 0.521127
vt 0.476998 0.487410
vt 0.476998 0.487410
vt 0.476998 0.487410
vt 0.476998 0.487410
vt 0.476998 0.487410
vt 0.431915 0.515843
vt 0.377097 0.602906
vt 0.377097 0.602906
vt 0.431915 0.515843
vt 0.690421 0.208834
vt 0.690421 0.208834
vt 0.690421 0.208834
vt 0.690421 0.208834
vt 0.690421 0.208834
vt 0.690421 0.208834
vt 0.782403 0.257244
vt 0.782403 0.257244
vt 0.782403 0.257244
vt 0.782403 0.257244
vt 0.817751 0.354680
vt 0.817751 0.354680
vt 0.817751 0.354680
vt 0.817751 0.354680
vt 0.817751 0.354680
vt 0.773131 0.447324
vt 0.773131 0.447324
vt 0.773131 0.447324
vt 0.773131 0.447324
vt 0.737254 0.542674
vt 0.737254 0.542674
vt 0.737254 0.542674
vt 0.737254 0.542674
vt 0.737254 0.542674
vt 0.673305 0.604841
vt 0.673305 0.604841
vt 0.673305 0.604841
vt 0.673305 0.604841
vt 0.673305 0.604841
vt 0.673305 0.604841
vt 0.684264 0.659691
vt 0.684264 0.659691
vt 0.657887 0.658998
vt 0.657887 0.658998
vt 0.375947 0.848244
vt 0.009094 0.847922
vt 0.771267 0.640579
vt 0.771267 0.640579
vt 0.771267 0.640579
vt 0.010375 0.766151
vt 0.010375 0.766151
vt 0.675720 0.549711
vt 0.675720 0.549711
vt 0.675720 0.549711
vt 0.675720 0.549711
vt 0.678559 0.485387
vt 0.678559 0.485387
vt 0.678559 0.485387
vt 0.678559 0.485387
vt 0.678559 0.485387
vt 0.615071 0.537602
vt 0.615071 0.537602
vt 0.615071 0.537602
vt 0.615071 0.537602
vt 0.615071 0.537602
vt 0.595336 0.584924
vt 0.595336 0.584924
vt 0.595336 0.584924
vt 0.595336 0.584924
vt 0.595336 0.584924
vt 0.561511 0.505727
vt 0.561511 0.505727
vt 0.561511 0.505727
vt 0.561511 0.505727
vt 0.587622 0.439899
vt 0.587622 0.439899
vt 0.587622 0.439899
vt 0.587622 0.439899
vt 0.551193 0.344084
vt 0.551193 0.344084
vt 0.551193 0.344084
vt 0.551193 0.344084
vt 0.551193 0.344084
vt 0.853189 0.600517
vt 0.853189 0.600517
vt 0.011656 0.684381
vt 0.011656 0.684381
vt 0.540409 0.738213
vt 0.540409 0.738213
vt 0.666889 0.591237
vt 0.666889 0.591237
vt 0.540405 0.657318
vt 0.540405 0.657318
vt 0.540405 0.657318
vt 0.615512 0.642614
vt 0.615512 0.642614
vt 0.549131 0.657318
vt 0.549131 0.657318
vt 0.549131 0.646126
vt 0.549131 0.646126
vt 0.549131 0.646126
vt 0.540405 0.646126
vt 0.540405 0.646126
vt 0.604146 0.636823
vt 0.604146 0.636823
vt 0.193577 0.278279
vt 0.193577 0.278279
vt 0.674142 0.540481
vt 0.674142 0.540481
vt 0.192296 0.360049
vt 0.192296 0.360049
vt 0.652311 0.529358
vt 0.652311 0.529358
vt 0.191015 0.441820
vt 0.191015 0.441820
vt 0.628111 0.525525
vt 0.628111 0.525525
vt 0.189734 0.523590
vt 0.189734 0.523590
vt 0.603912 0.529358
vt 0.603912 0.529358
vt 0.188452 0.605360
vt 0.188452 0.605360
vt 0.582081 0.540481
vt 0.582081 0.540481
vt 0.194858 0.196509
vt 0.194858 0.196509
vt 0.691467 0.557806
vt 0.691467 0.557806
vt 0.196139 0.114738
vt 0.196139 0.114738
vt 0.702590 0.579637
vt 0.702590 0.579637
vt 0.203478 0.193186
vt 0.203478 0.193186
vt 0.691467 0.649867
vt 0.691467 0.649867
vt 0.203095 0.274965
vt 0.203095 0.274965
vt 0.674142 0.667192
vt 0.674142 0.667192
vt 0.202711 0.356745
vt 0.202711 0.356745
vt 0.652311 0.678316
vt 0.652311 0.678316
vt 0.202328 0.438524
vt 0.202328 0.438524
vt 0.628111 0.682149
vt 0.628111 0.682149
vt 0.201945 0.520304
vt 0.201945 0.520304
vt 0.603912 0.678316
vt 0.603912 0.678316
vt 0.201562 0.602083
vt 0.201562 0.602083
vt 0.582081 0.667192
vt 0.582081 0.667192
vt 0.201178 0.683863
vt 0.201178 0.683863
vt 0.564756 0.649867
vt 0.564756 0.649867
vt 0.200795 0.765642
vt 0.200795 0.765642
vt 0.553632 0.628037
vt 0.553632 0.628037
vt 0.200412 0.847421
vt 0.184609 0.850671
vt 0.549799 0.603837
vt 0.549799 0.603837
vt 0.185890 0.768901
vt 0.185890 0.768901
vt 0.553632 0.579637
vt 0.553632 0.579637
vt 0.187171 0.687131
vt 0.187171 0.687131
vt 0.564756 0.557806
vt 0.564756 0.557806
vt 0.684611 0.347678
vt 0.540414 0.533964
vt 0.540414 0.533964
vt 0.652077 0.570851
vt 0.652077 0.570851
vt 0.540414 0.525081
vt 0.540410 0.749405
vt 0.661097 0.579871
vt 0.661097 0.579871
vt 0.549141 0.525082
vt 0.549137 0.749404
vt 0.549140 0.533965
vt 0.549140 0.533965
vt 0.540413 0.545156
vt 0.540413 0.545156
vt 0.640711 0.565059
vt 0.640711 0.565059
vt 0.549140 0.545157
vt 0.549140 0.545157
vt 0.540412 0.557563
vt 0.540412 0.557563
vt 0.628111 0.563064
vt 0.628111 0.563064
vt 0.549138 0.557564
vt 0.549138 0.557564
vt 0.549136 0.738212
vt 0.549136 0.738212
vt 0.540409 0.738213
vt 0.540409 0.738213
vt 0.666889 0.591237
vt 0.666889 0.591237
vt 0.540408 0.725806
vt 0.540408 0.725806
vt 0.668884 0.603837
vt 0.668884 0.603837
vt 0.549134 0.725805
vt 0.549134 0.725805
vt 0.540406 0.713399
vt 0.540406 0.713399
vt 0.666889 0.616436
vt 0.666889 0.616436
vt 0.549133 0.713398
vt 0.549133 0.713398
vt 0.549131 0.702206
vt 0.549131 0.702206
vt 0.540405 0.702207
vt 0.540405 0.702207
vt 0.661097 0.627803
vt 0.661097 0.627803
vt 0.549131 0.693324
vt 0.549131 0.693324
vt 0.540405 0.693324
vt 0.540405 0.693324
vt 0.652077 0.636823
vt 0.652077 0.636823
vt 0.549131 0.682132
vt 0.549131 0.682132
vt 0.540405 0.682132
vt 0.540405 0.682132
vt 0.640711 0.642614
vt 0.640711 0.642614
vt 0.549131 0.669725
vt 0.549131 0.669725
vt 0.540405 0.669725
vt 0.540405 0.669725
vt 0.628111 0.644610
vt 0.628111 0.644610
vt 0.549131 0.657318
vt 0.549131 0.657318
vt 0.540405 0.657318
vt 0.540405 0.657318
vt 0.615512 0.642614
vt 0.615512 0.642614
vt 0.549131 0.646126
vt 0.549131 0.646126
vt 0.540405 0.646126
vt 0.540405 0.646126
vt 0.604146 0.636823
vt 0.604146 0.636823
vt 0.549131 0.637244
vt 0.549131 0.637244
vt 0.540405 0.637243
vt 0.540405 0.637243
vt 0.595125 0.627803
vt 0.595125 0.627803
vt 0.549133 0.626051
vt 0.549133 0.626051
vt 0.540406 0.626051
vt 0.540406 0.626051
vt 0.589334 0.616436
vt 0.589334 0.616436
vt 0.549134 0.613645
vt 0.549134 0.613645
vt 0.540407 0.613644
vt 0.540407 0.613644
vt 0.587338 0.603837
vt 0.587338 0.603837
vt 0.549135 0.601238
vt 0.549135 0.601238
vt 0.540408 0.601237
vt 0.540408 0.601237
vt 0.589334 0.591237
vt 0.589334 0.591237
vt 0.549136 0.590045
vt 0.549136 0.590045
vt 0.540409 0.590044
vt 0.540409 0.590044
vt 0.595125 0.579871
vt 0.595125 0.579871
vt 0.549137 0.581163
vt 0.549137 0.581163
vt 0.540410 0.581162
vt 0.540410 0.581162
vt 0.604145 0.570851
vt 0.604145 0.570851
vt 0.549137 0.569971
vt 0.549137 0.569971
vt 0.540411 0.569970
vt 0.540411 0.569970
vt 0.615512 0.565060
vt 0.615512 0.565060
vt 0.819089 0.897369
vt 0.819089 0.897369
vt 0.956421 0.724807
vt 0.867290 0.897601
vt 0.867290 0.897601
vt 0.818856 0.945571
vt 0.820248 0.656359
vt 0.914991 0.749443
vt 0.867059 0.945803
vt 0.868450 0.656591
vt 0.867523 0.849399
vt 0.867523 0.849399
vt 0.819320 0.849167
vt 0.819320 0.849167
vt 0.955800 0.676609
vt 0.867754 0.801197
vt 0.867754 0.801197
vt 0.819552 0.800965
vt 0.819552 0.800965
vt 0.913749 0.653048
vt 0.867986 0.752995
vt 0.867986 0.752995
vt 0.819784 0.752763
vt 0.819784 0.752763
vt 0.872319 0.677684
vt 0.868218 0.704793
vt 0.868218 0.704793
vt 0.820016 0.704561
vt 0.820016 0.704561
vt 0.872940 0.725882
vt 0.193577 0.278279
vt 0.193577 0.278279
vt 0.674142 0.540481
vt 0.674142 0.540481
vt 0.192296 0.360049
vt 0.192296 0.360049
vt 0.652311 0.529358
vt 0.652311 0.529358
vt 0.191015 0.441820
vt 0.191015 0.441820
vt 0.628111 0.525525
vt 0.628111 0.525525
vt 0.189734 0.523590
vt 0.189734 0.523590
vt 0.603912 0.529358
vt 0.603912 0.529358
vt 0.188452 0.605360
vt 0.188452 0.605360
vt 0.582081 0.540481
vt 0.582081 0.540481
vt 0.187171 0.687131
vt 0.187171 0.687131
vt 0.564756 0.557806
vt 0.564756 0.557806
vt 0.194858 0.196509
vt 0.194858 0.196509
vt 0.691467 0.557806
vt 0.691467 0.557806
vt 0.196139 0.114738
vt 0.196139 0.114738
vt 0.702590 0.579637
vt 0.702590 0.579637
vt 0.197420 0.032968
vt 0.204244 0.029627
vt 0.706423 0.603837
vt 0.706423 0.603837
vt 0.203861 0.111407
vt 0.203861 0.111407
vt 0.702590 0.628037
vt 0.702590 0.628037
vt 0.203478 0.193186
vt 0.203478 0.193186
vt 0.691467 0.649867
vt 0.691467 0.649867
vt 0.203095 0.274965
vt 0.203095 0.274965
vt 0.674142 0.667192
vt 0.674142 0.667192
vt 0.202711 0.356745
vt 0.202711 0.356745
vt 0.652311 0.678316
vt 0.652311 0.678316
vt 0.202328 0.438524
vt 0.202328 0.438524
vt 0.628111 0.682149
vt 0.628111 0.682149
vt 0.201945 0.520304
vt 0.201945 0.520304
vt 0.603912 0.678316
vt 0.603912 0.678316
vt 0.201562 0.602083
vt 0.201562 0.602083
vt 0.582081 0.667192
vt 0.582081 0.667192
vt 0.201178 0.683863
vt 0.201178 0.683863
vt 0.564756 0.649867
vt 0.564756 0.649867
vt 0.200795 0.765642
vt 0.200795 0.765642
vt 0.553632 0.628037
vt 0.553632 0.628037
vt 0.200412 0.847421
vt 0.184609 0.850671
vt 0.549799 0.603837
vt 0.549799 0.603837
vt 0.185890 0.768901
vt 0.185890 0.768901
vt 0.553632 0.579637
vt 0.553632 0.579637
vt 0.684611 0.347678
vt 0.540414 0.533964
vt 0.540414 0.533964
vt 0.652077 0.570851
vt 0.652077 0.570851
vt 0.549140 0.533965
vt 0.549140 0.533965
vt 0.540413 0.545156
vt 0.540413 0.545156
vt 0.640711 0.565059
vt 0.640711 0.565059
vt 0.549140 0.545157
vt 0.549140 0.545157
vt 0.540412 0.557563
vt 0.540412 0.557563
vt 0.628111 0.563064
vt 0.628111 0.563064
vt 0.549138 0.557564
vt 0.549138 0.557564
vt 0.540408 0.725806
vt 0.540408 0.725806
vt 0.668884 0.603837
vt 0.668884 0.603837
vt 0.549134 0.725805
vt 0.549134 0.725805
vt 0.540406 0.713399
vt 0.540406 0.713399
vt 0.666889 0.616436
vt 0.666889 0.616436
vt 0.549133 0.713398
vt 0.549133 0.713398
vt 0.549131 0.702206
vt 0.549131 0.702206
vt 0.540405 0.702207
vt 0.540405 0.702207
vt 0.661097 0.627803
vt 0.661097 0.627803
vt 0.549131 0.693324
vt 0.549131 0.693324
vt 0.540405 0.693324
vt 0.540405 0.693324
vt 0.652077 0.636823
vt 0.652077 0.636823
vt 0.549131 0.682132
vt 0.549131 0.682132
vt 0.540405 0.682132
vt 0.540405 0.682132
vt 0.640711 0.642614
vt 0.640711 0.642614
vt 0.549131 0.669725
vt 0.549131 0.669725
vt 0.540405 0.669725
vt 0.540405 0.669725
vt 0.628111 0.644610
vt 0.628111 0.644610
vt 0.549131 0.637244
vt 0.549131 0.637244
vt 0.540405 0.637243
vt 0.540405 0.637243
vt 0.595125 0.627803
vt 0.595125 0.627803
vt 0.549133 0.626051
vt 0.549133 0.626051
vt 0.540406 0.626051
vt 0.540406 0.626051
vt 0.589334 0.616436
vt 0.589334 0.616436
vt 0.549134 0.613645
vt 0.549134 0.613645
vt 0.540407 0.613644
vt 0.540407 0.613644
vt 0.587338 0.603837
vt 0.587338 0.603837
vt 0.549135 0.601238
vt 0.549135 0.601238
vt 0.540408 0.601237
vt 0.540408 0.601237
vt 0.589334 0.591237
vt 0.589334 0.591237
vt 0.549136 0.590045
vt 0.549136 0.590045
vt 0.540409 0.590044
vt 0.540409 0.590044
vt 0.595125 0.579871
vt 0.595125 0.579871
vt 0.549137 0.581163
vt 0.549137 0.581163
vt 0.540410 0.581162
vt 0.540410 0.581162
vt 0.604145 0.570851
vt 0.604145 0.570851
vt 0.549137 0.569971
vt 0.549137 0.569971
vt 0.540411 0.569970
vt 0.540411 0.569970
vt 0.615512 0.565060
vt 0.615512 0.565060
vt 0.819089 0.897369
vt 0.819089 0.897369
vt 0.956421 0.724807
vt 0.818856 0.945571
vt 0.820248 0.656359
vt 0.914991 0.749443
vt 0.867290 0.897601
vt 0.867290 0.897601
vt 0.867059 0.945803
vt 0.868450 0.656591
vt 0.867523 0.849399
vt 0.867523 0.849399
vt 0.819320 0.849167
vt 0.819320 0.849167
vt 0.955800 0.676609
vt 0.867754 0.801197
vt 0.867754 0.801197
vt 0.819552 0.800965
vt 0.819552 0.800965
vt 0.913749 0.653048
vt 0.867986 0.752995
vt 0.867986 0.752995
vt 0.819784 0.752763
vt 0.819784 0.752763
vt 0.872319 0.677684
vt 0.868218 0.704793
vt 0.868218 0.704793
vt 0.820016 0.704561
vt 0.820016 0.704561
vt 0.872940 0.725882
f 1/1 13/13 8/8
f 17/17 22/22 2/2
f 3/3 28/28 18/18
f 29/29 38/38 33/33
f 42/42 52/52 47/47
f 48/48 56/56 43/43
f 57/57 49/49 61/61
f 62/62 67/67 58/58
f 73/73 83/83 79/79
f 88/88 94/94 84/84
f 95/95 89/89 99/99
f 100/100 105/105 96/96
f 106/106 101/101 111/111
f 117/117 112/112 102/102
f 103/103 122/122 118/118
f 113/113 119/119 127/127
f 131/131 114/114 128/128
f 115/115 132/132 137/137
f 138/138 107/107 116/116
f 133/133 142/142 139/139
f 108/108 140/140 148/148
f 143/143 149/149 141/141
f 150/150 144/144 153/153
f 157/157 166/166 162/162
f 171/171 178/178 176/176
f 30/30 4/4 9/9
f 181/181 191/191 186/186
f 195/195 182/182 202/202
f 207/207 216/216 212/212
f 220/220 217/217 208/208
f 209/209 226/226 221/221
f 232/232 237/237 23/23
f 24/24 242/242 233/233
f 234/234 243/243 246/246
f 244/244 252/252 247/247
f 253/253 245/245 25/25
f 26/26 19/19 254/254
f 34/34 20/20 31/31
f 257/257 265/265 261/261
f 269/269 59/59 68/68
f 69/69 274/274 270/270
f 271/271 275/275 278/278
f 283/283 276/276 70/70
f 277/277 284/284 279/279
f 288/288 296/296 292/292
f 300/300 310/310 305/305
f 311/311 314/314 306/306
f 319/319 312/312 301/301
f 302/302 325/325 320/320
f 321/321 315/315 313/313
f 330/330 322/322 326/326
f 327/327 336/336 331/331
f 341/341 346/346 203/203
f 342/342 316/316 351/351
f 352/352 317/317 323/323
f 332/332 353/353 324/324
f 357/357 362/362 227/227
f 366/366 358/358 228/228
f 371/371 359/359 367/367
f 377/377 368/368 187/187
f 372/372 369/369 378/378
f 188/188 192/192 379/379
f 373/373 380/380 383/383
f 384/384 388/388 374/374
f 381/381 193/193 196/196
f 197/197 385/385 382/382
f 198/198 194/194 183/183
f 389/389 386/386 393/393
f 394/394 387/387 199/199
f 395/395 399/399 390/390
f 400/400 396/396 404/404
f 405/405 397/397 347/347
f 200/200 348/348 398/398
f 204/204 349/349 201/201
f 229/229 363/363 411/411
f 412/412 222/222 230/230
f 223/223 413/413 416/416
f 417/417 238/238 224/224
f 239/239 418/418 5/5
f 6/6 27/27 240/240
f 71/71 421/421 285/285
f 422/422 72/72 63/63
f 423/423 64/64 426/426
f 431/431 424/424 427/427
f 432/432 428/428 436/436
f 440/440 445/445 337/337
f 338/338 328/328 441/441
f 449/449 354/354 333/333
f 450/450 406/406 355/355
f 454/454 407/407 451/451
f 408/408 455/455 401/401
f 409/409 343/343 356/356
f 350/350 344/344 410/410
f 458/458 74/74 80/80
f 463/463 75/75 459/459
f 468/468 464/464 460/460
f 474/474 90/90 76/76
f 85/85 77/77 91/91
f 92/92 475/475 123/123
f 124/124 104/104 93/93
f 479/479 485/485 465/465
f 469/469 480/480 466/466
f 486/486 481/481 490/490
f 482/482 494/494 491/491
f 470/470 500/500 483/483
f 495/495 484/484 501/501
f 502/502 471/471 505/505
f 510/510 496/496 503/503
f 506/506 511/511 504/504
f 512/512 507/507 516/516
f 497/497 513/513 521/521
f 517/517 525/525 514/514
f 526/526 536/536 531/531
f 145/145 134/134 542/542
f 546/546 555/555 551/551
f 543/543 564/564 560/560
f 556/556 547/547 568/568
f 569/569 573/573 557/557
f 579/579 584/584 570/570
f 574/574 571/571 585/585
f 586/586 580/580 590/590
f 594/594 587/587 591/591
f 599/599 575/575 588/588
f 589/589 595/595 600/600
f 605/605 601/601 596/596
f 602/602 610/610 576/576
f 615/615 611/611 603/603
f 616/616 620/620 612/612
f 129/129 624/624 135/135
f 120/120 625/625 130/130
f 476/476 630/630 125/125
f 634/634 487/487 492/492
f 498/498 635/635 493/493
f 532/532 639/639 522/522
f 533/533 537/537 643/643
f 538/538 648/648 644/644
f 654/654 649/649 539/539
f 660/660 655/655 540/540
f 665/665 669/669 645/645
f 650/650 666/666 646/646
f 674/674 670/670 667/667
f 651/651 675/675 668/668
f 676/676 652/652 679/679
f 656/656 680/680 653/653
f 681/681 657/657 167/167
f 168/168 158/158 682/682
f 606/606 688/688 684/684
f 604/604 607/607 617/617
f 592/592 692/692 597/597
f 581/581 693/693 593/593
f 661/661 541/541 527/527
f 697/697 662/662 528/528
f 529/529 518/518 698/698
f 701/701 179/179 172/172
f 705/705 712/712 710/710
f 713/713 706/706 715/715
f 35/35 39/39 53/53
f 53/53 44/44 35/35
f 360/360 719/719 364/364
f 723/723 719/719 360/360
f 375/375 724/724 361/361
f 727/727 724/724 375/375
f 391/391 728/728 376/376
f 731/731 728/728 391/391
f 402/402 732/732 392/392
f 735/735 732/732 402/402
f 365/365 720/720 739/739
f 739/739 414/414 365/365
f 415/415 740/740 743/743
f 419/419 415/415 743/743
f 420/420 744/744 14/14
f 7/7 420/420 14/14
f 32/32 10/10 747/747
f 40/40 32/32 747/747
f 41/41 748/748 751/751
f 751/751 54/54 41/41
f 55/55 752/752 755/755
f 755/755 50/50 55/55
f 51/51 756/756 759/759
f 759/759 65/65 51/51
f 66/66 760/760 763/763
f 763/763 429/429 66/66
f 430/430 764/764 767/767
f 767/767 437/437 430/430
f 438/438 768/768 771/771
f 771/771 446/446 438/438
f 775/775 447/447 772/772
f 775/775 339/339 447/447
f 776/776 779/779 334/334
f 334/334 340/340 776/776
f 452/452 335/335 780/780
f 780/780 783/783 452/452
f 787/787 453/453 784/784
f 787/787 456/456 453/453
f 788/788 736/736 457/457
f 736/736 403/403 457/457
f 189/189 213/213 184/184
f 189/189 210/210 213/213
f 218/218 225/225 241/241
f 241/241 235/235 218/218
f 214/214 219/219 236/236
f 236/236 248/248 214/214
f 215/215 249/249 791/791
f 791/791 185/185 215/215
f 205/205 185/185 791/791
f 791/791 307/307 205/205
f 293/293 307/307 791/791
f 791/791 280/280 293/293
f 262/262 280/280 791/791
f 791/791 250/250 262/262
f 251/251 255/255 263/263
f 255/255 258/258 263/263
f 256/256 21/21 36/36
f 36/36 259/259 256/256
f 260/260 37/37 45/45
f 45/45 266/266 260/260
f 267/267 46/46 60/60
f 60/60 272/272 267/267
f 264/264 268/268 273/273
f 273/273 281/281 264/264
f 294/294 282/282 286/286
f 286/286 289/289 294/294
f 290/290 287/287 425/425
f 425/425 433/433 290/290
f 297/297 291/291 434/434
f 434/434 442/442 297/297
f 295/295 298/298 303/303
f 303/303 308/308 295/295
f 304/304 299/299 443/443
f 443/443 329/329 304/304
f 318/318 206/206 309/309
f 206/206 318/318 345/345
f 231/231 211/211 370/370
f 190/190 370/370 211/211
f 444/444 435/435 439/439
f 444/444 439/439 448/448
f 792/792 800/800 796/796
f 802/802 800/800 792/792
f 804/804 803/803 793/793
f 808/808 803/803 804/804
f 810/810 809/809 805/805
f 814/814 809/809 810/810
f 797/797 801/801 816/816
f 818/818 797/797 816/816
f 822/822 819/819 817/817
f 817/817 826/826 822/822
f 828/828 823/823 827/827
f 827/827 832/832 828/828
f 829/829 833/833 834/834
f 836/836 829/829 834/834
f 837/837 835/835 840/840
f 840/840 842/842 837/837
f 843/843 841/841 846/846
f 846/846 848/848 843/843
f 849/849 847/847 852/852
f 852/852 854/854 849/849
f 855/855 853/853 858/858
f 858/858 860/860 855/855
f 861/861 859/859 864/864
f 864/864 866/866 861/861
f 867/867 865/865 870/870
f 870/870 872/872 867/867
f 876/876 873/873 871/871
f 876/876 878/878 873/873
f 882/882 879/879 877/877
f 882/882 884/884 879/879
f 888/888 885/885 883/883
f 888/888 890/890 885/885
f 894/894 891/891 889/889
f 894/894 896/896 891/891
f 895/895 900/900 897/897
f 897/897 900/900 902/902
f 901/901 906/906 903/903
f 903/903 906/906 908/908
f 907/907 815/815 909/909
f 909/909 815/815 811/811
f 912/912 917/917 915/915
f 917/917 920/920 915/915
f 922/922 924/924 913/913
f 913/913 916/916 922/922
f 927/927 929/929 925/925
f 925/925 923/923 927/927
f 932/932 930/930 928/928
f 932/932 934/934 930/930
f 937/937 935/935 933/933
f 937/937 939/939 935/935
f 938/938 921/921 940/940
f 940/940 921/921 918/918
f 931/931 936/936 941/941
f 941/941 926/926 931/931
f 926/926 941/941 919/919
f 926/926 919/919 914/914
f 461/461 81/81 942/942
f 946/946 461/461 942/942
f 472/472 462/462 947/947
f 950/950 472/472 947/947
f 508/508 473/473 951/951
f 954/954 508/508 951/951
f 519/519 509/509 955/955
f 958/958 519/519 955/955
f 959/959 699/699 520/520
f 962/962 699/699 959/959
f 82/82 966/966 943/943
f 966/966 82/82 86/86
f 87/87 970/970 967/967
f 97/97 970/970 87/87
f 98/98 974/974 971/971
f 109/109 974/974 98/98
f 110/110 978/978 975/975
f 151/151 978/978 110/110
f 152/152 982/982 979/979
f 154/154 982/982 152/152
f 155/155 986/986 983/983
f 986/986 155/155 552/552
f 553/553 990/990 987/987
f 990/990 553/553 558/558
f 559/559 994/994 991/991
f 994/994 559/559 577/577
f 578/578 998/998 995/995
f 998/998 578/578 613/613
f 614/614 1002/1002 999/999
f 1002/1002 614/614 621/621
f 622/622 1006/1006 1003/1003
f 1006/1006 622/622 163/163
f 1010/1010 1007/1007 164/164
f 1010/1010 164/164 169/169
f 658/658 1011/1011 170/170
f 1011/1011 658/658 1014/1014
f 663/663 1015/1015 659/659
f 1015/1015 663/663 1018/1018
f 963/963 1019/1019 664/664
f 963/963 664/664 700/700
f 78/78 467/467 477/477
f 488/488 477/477 467/467
f 530/530 523/523 515/515
f 523/523 530/530 534/534
f 544/544 548/548 146/146
f 548/548 544/544 561/561
f 554/554 147/147 549/549
f 147/147 554/554 156/156
f 562/562 572/572 550/550
f 572/572 562/562 582/582
f 159/159 623/623 618/618
f 159/159 165/165 623/623
f 136/136 565/565 545/545
f 626/626 565/565 136/136
f 1022/1022 566/566 627/627
f 566/566 1022/1022 694/694
f 1022/1022 689/689 694/694
f 689/689 1022/1022 671/671
f 1022/1022 640/640 671/671
f 640/640 1022/1022 636/636
f 1022/1022 631/631 636/636
f 631/631 1022/1022 628/628
f 121/121 632/632 629/629
f 632/632 121/121 126/126
f 489/489 633/633 478/478
f 489/489 637/637 633/633
f 499/499 641/641 638/638
f 641/641 499/499 524/524
f 642/642 535/535 647/647
f 647/647 672/672 642/642
f 677/677 690/690 673/673
f 690/690 677/677 685/685
f 160/160 678/678 683/683
f 678/678 160/160 686/686
f 619/619 687/687 161/161
f 687/687 619/619 608/608
f 598/598 691/691 609/609
f 691/691 598/598 695/695
f 583/583 567/567 696/696
f 567/567 583/583 563/563
f 1023/1023 173/173 177/177
f 1027/1027 1023/1023 177/177
f 1029/1029 1024/1024 1028/1028
f 1033/1033 1029/1029 1028/1028
f 1035/1035 1030/1030 1034/1034
f 1039/1039 1035/1035 1034/1034
f 1041/1041 180/180 702/702
f 180/180 1041/1041 1045/1045
f 1047/1047 1046/1046 1042/1042
f 1046/1046 1047/1047 1051/1051
f 1048/1048 1053/1053 1052/1052
f 1055/1055 1053/1053 1048/1048
f 1056/1056 1059/1059 1054/1054
f 1059/1059 1056/1056 1061/1061
f 1062/1062 1065/1065 1060/1060
f 1065/1065 1062/1062 1067/1067
f 1068/1068 1071/1071 1066/1066
f 1071/1071 1068/1068 1073/1073
f 1074/1074 711/711 1072/1072
f 711/711 1074/1074 707/707
f 716/716 1077/1077 714/714
f 1077/1077 716/716 1079/1079
f 1083/1083 1078/1078 1080/1080
f 1083/1083 1080/1080 1085/1085
f 1089/1089 1084/1084 1086/1086
f 1089/1089 1086/1086 1091/1091
f 1095/1095 1090/1090 1092/1092
f 1095/1095 1092/1092 1097/1097
f 1101/1101 1096/1096 1098/1098
f 1101/1101 1098/1098 1103/1103
f 1102/1102 1104/1104 1107/1107
f 1104/1104 1109/1109 1107/1107
f 1108/1108 1110/1110 1113/1113
f 1110/1110 1115/1115 1113/1113
f 1114/1114 1116/1116 1040/1040
f 1116/1116 1036/1036 1040/1040
f 1119/1119 1125/1125 1122/1122
f 1122/1122 1125/1125 1127/1127
f 1129/1129 1120/1120 1131/1131
f 1120/1120 1129/1129 1126/1126
f 1134/1134 1132/1132 1136/1136
f 1132/1132 1134/1134 1130/1130
f 1139/1139 1135/1135 1137/1137
f 1139/1139 1137/1137 1141/1141
f 1144/1144 1140/1140 1142/1142
f 1144/1144 1142/1142 1146/1146
f 1145/1145 1147/1147 1128/1128
f 1147/1147 1123/1123 1128/1128
f 1138/1138 1148/1148 1143/1143
f 1148/1148 1138/1138 1133/1133
f 1133/1133 1124/1124 1148/1148
f 1133/1133 1121/1121 1124/1124
f 806/806 794/794 721/721
f 721/721 725/725 806/806
f 722/722 795/795 798/798
f 798/798 741/741 722/722
f 812/812 807/807 726/726
f 726/726 729/729 812/812
f 745/745 742/742 799/799
f 799/799 820/820 745/745
f 733/733 813/813 730/730
f 910/910 813/813 733/733
f 746/746 821/821 824/824
f 824/824 15/15 746/746
f 904/904 911/911 734/734
f 734/734 737/737 904/904
f 905/905 738/738 789/789
f 789/789 898/898 905/905
f 11/11 16/16 825/825
f 825/825 830/830 11/11
f 899/899 790/790 785/785
f 785/785 892/892 899/899
f 831/831 838/838 12/12
f 749/749 12/12 838/838
f 886/886 893/893 786/786
f 786/786 781/781 886/886
f 782/782 777/777 887/887
f 777/777 880/880 887/887
f 778/778 773/773 881/881
f 874/874 881/881 773/773
f 753/753 750/750 839/839
f 839/839 844/844 753/753
f 754/754 845/845 850/850
f 850/850 757/757 754/754
f 769/769 875/875 774/774
f 868/868 875/875 769/769
f 862/862 869/869 770/770
f 770/770 765/765 862/862
f 758/758 851/851 856/856
f 856/856 761/761 758/758
f 857/857 863/863 766/766
f 766/766 762/762 857/857
f 1031/1031 944/944 1025/1025
f 944/944 1031/1031 948/948
f 945/945 174/174 1026/1026
f 174/174 945/945 968/968
f 1037/1037 949/949 1032/1032
f 949/949 1037/1037 952/952
f 972/972 175/175 969/969
f 175/175 972/972 703/703
f 956/956 953/953 1038/1038
f 1117/1117 956/956 1038/1038
f 973/973 1043/1043 704/704
f 1043/1043 973/973 976/976
f 1111/1111 957/957 1118/1118
f 957/957 1111/1111 960/960
f 1112/1112 964/964 961/961
f 964/964 1112/1112 1105/1105
f 980/980 1044/1044 977/977
f 1044/1044 980/980 1049/1049
f 1106/1106 1020/1020 965/965
f 1020/1020 1106/1106 1099/1099
f 1050/1050 981/981 1057/1057
f 984/984 1057/1057 981/981
f 1093/1093 1021/1021 1100/1100
f 1021/1021 1093/1093 1016/1016
f 1017/1017 1094/1094 1012/1012
f 1012/1012 1094/1094 1087/1087
f 1013/1013 1088/1088 1008/1008
f 1081/1081 1008/1008 1088/1088
f 988/988 1058/1058 985/985
f 1058/1058 988/988 1063/1063
f 989/989 1069/1069 1064/1064
f 1069/1069 989/989 992/992
f 1004/1004 1009/1009 1082/1082
f 717/717 1004/1004 1082/1082
f 708/708 1005/1005 718/718
f 1005/1005 708/708 1000/1000
f 993/993 1075/1075 1070/1070
f 1075/1075 993/993 996/996
f 1076/1076 1001/1001 709/709
f 1001/1001 1076/1076 997/997
