# Blender 4.0.2
# www.blender.org
o n_dark
v -0.027800 0.017800 0.018700
v -0.027800 -0.017800 0.018700
v -0.027800 0.017800 0.023700
v -0.027800 -0.017800 0.023700
v -0.017800 -0.027800 0.023700
v -0.027800 -0.017800 0.023700
v -0.027311 -0.020890 0.023700
v -0.025890 -0.023678 0.023700
v -0.023678 -0.025890 0.023700
v -0.020890 -0.027311 0.023700
v -0.027800 0.017800 0.023700
v -0.025890 0.023678 0.023700
v -0.027311 0.020890 0.023700
v 0.023678 -0.025890 0.023700
v 0.017800 -0.027800 0.023700
v 0.020890 -0.027311 0.023700
v 0.027311 -0.020890 0.023700
v 0.025890 -0.023678 0.023700
v 0.027800 -0.017800 0.023700
v -0.017800 0.027800 0.023700
v -0.023678 0.025890 0.023700
v -0.020890 0.027311 0.023700
v 0.027800 0.017800 0.023700
v 0.017800 0.027800 0.023700
v 0.025890 0.023678 0.023700
v 0.027311 0.020890 0.023700
v 0.023678 0.025890 0.023700
v 0.020890 0.027311 0.023700
v -0.027311 -0.020890 0.023700
v -0.027800 -0.017800 0.018700
v -0.027311 -0.020890 0.018700
v -0.027800 -0.017800 0.023700
v -0.025890 -0.023678 0.023700
v -0.027311 -0.020890 0.018700
v -0.025890 -0.023678 0.018700
v -0.027311 -0.020890 0.023700
v -0.023678 -0.025890 0.023700
v -0.025890 -0.023678 0.018700
v -0.023678 -0.025890 0.018700
v -0.025890 -0.023678 0.023700
v -0.020890 -0.027311 0.023700
v -0.023678 -0.025890 0.018700
v -0.020890 -0.027311 0.018700
v -0.020890 -0.027311 0.023700
v -0.020890 -0.027311 0.018700
v -0.017800 -0.027800 0.018700
v -0.023678 -0.025890 0.023700
v -0.017800 -0.027800 0.023700
v -0.027800 0.017800 0.018700
v -0.027311 0.020890 0.023700
v -0.027311 0.020890 0.018700
v -0.027800 0.017800 0.023700
v -0.027311 0.020890 0.018700
v -0.025890 0.023678 0.023700
v -0.025890 0.023678 0.018700
v -0.027311 0.020890 0.023700
v -0.025890 0.023678 0.018700
v -0.023678 0.025890 0.023700
v -0.023678 0.025890 0.018700
v -0.025890 0.023678 0.023700
v -0.023678 0.025890 0.018700
v -0.020890 0.027311 0.023700
v -0.020890 0.027311 0.018700
v -0.020890 0.027311 0.018700
v -0.020890 0.027311 0.023700
v -0.017800 0.027800 0.018700
v -0.023678 0.025890 0.023700
v -0.017800 0.027800 0.023700
v -0.027800 -0.017800 0.018700
v -0.017800 -0.027800 0.018700
v -0.027311 -0.020890 0.018700
v -0.025890 -0.023678 0.018700
v -0.023678 -0.025890 0.018700
v -0.020890 -0.027311 0.018700
v -0.027800 0.017800 0.018700
v -0.027311 0.020890 0.018700
v -0.025890 0.023678 0.018700
v 0.017800 -0.027800 0.018700
v 0.023678 -0.025890 0.018700
v 0.020890 -0.027311 0.018700
v 0.027311 -0.020890 0.018700
v 0.025890 -0.023678 0.018700
v 0.027800 -0.017800 0.018700
v -0.023678 0.025890 0.018700
v -0.017800 0.027800 0.018700
v -0.020890 0.027311 0.018700
v 0.027800 0.017800 0.018700
v 0.017800 0.027800 0.018700
v 0.025890 0.023678 0.018700
v 0.027311 0.020890 0.018700
v 0.020890 0.027311 0.018700
v 0.023678 0.025890 0.018700
v -0.017800 -0.027800 0.018700
v 0.017800 -0.027800 0.018700
v -0.017800 -0.027800 0.023700
v 0.017800 -0.027800 0.023700
v 0.017800 0.027800 0.018700
v -0.017800 0.027800 0.018700
v -0.017800 0.027800 0.023700
v 0.017800 0.027800 0.023700
v 0.027800 -0.017800 0.018700
v 0.027311 -0.020890 0.023700
v 0.027311 -0.020890 0.018700
v 0.027800 -0.017800 0.023700
v 0.027311 -0.020890 0.018700
v 0.025890 -0.023678 0.023700
v 0.025890 -0.023678 0.018700
v 0.027311 -0.020890 0.023700
v 0.025890 -0.023678 0.018700
v 0.023678 -0.025890 0.023700
v 0.023678 -0.025890 0.018700
v 0.025890 -0.023678 0.023700
v 0.023678 -0.025890 0.018700
v 0.020890 -0.027311 0.023700
v 0.020890 -0.027311 0.018700
v 0.020890 -0.027311 0.018700
v 0.020890 -0.027311 0.023700
v 0.017800 -0.027800 0.018700
v 0.023678 -0.025890 0.023700
v 0.017800 -0.027800 0.023700
v 0.027311 0.020890 0.023700
v 0.027800 0.017800 0.018700
v 0.027311 0.020890 0.018700
v 0.027800 0.017800 0.023700
v 0.025890 0.023678 0.023700
v 0.027311 0.020890 0.018700
v 0.025890 0.023678 0.018700
v 0.027311 0.020890 0.023700
v 0.023678 0.025890 0.023700
v 0.025890 0.023678 0.018700
v 0.023678 0.025890 0.018700
v 0.025890 0.023678 0.023700
v 0.020890 0.027311 0.023700
v 0.023678 0.025890 0.018700
v 0.020890 0.027311 0.018700
v 0.020890 0.027311 0.023700
v 0.020890 0.027311 0.018700
v 0.017800 0.027800 0.018700
v 0.023678 0.025890 0.023700
v 0.017800 0.027800 0.023700
v 0.027800 -0.017800 0.018700
v 0.027800 0.017800 0.018700
v 0.027800 0.017800 0.023700
v 0.027800 -0.017800 0.023700
v 0.024651 0.006907 0.038500
v 0.025600 0.000000 0.038500
v 0.025600 0.000000 0.023700
v 0.024651 0.006907 0.023700
v 0.021873 0.013301 0.038500
v 0.024651 0.006907 0.023700
v 0.021873 0.013301 0.023700
v 0.024651 0.006907 0.038500
v 0.017473 0.018709 0.038500
v 0.021873 0.013301 0.023700
v 0.017473 0.018709 0.023700
v 0.021873 0.013301 0.038500
v 0.011778 0.022730 0.038500
v 0.017473 0.018709 0.023700
v 0.011778 0.022730 0.023700
v 0.017473 0.018709 0.038500
v 0.005208 0.025065 0.038500
v 0.011778 0.022730 0.023700
v 0.005208 0.025065 0.023700
v 0.005208 0.025065 0.038500
v 0.005208 0.025065 0.023700
v -0.001747 0.025540 0.023700
v 0.011778 0.022730 0.038500
v -0.001747 0.025540 0.038500
v -0.008573 0.024122 0.038500
v -0.001747 0.025540 0.023700
v -0.008573 0.024122 0.023700
v -0.001747 0.025540 0.038500
v -0.014763 0.020914 0.038500
v -0.008573 0.024122 0.023700
v -0.014763 0.020914 0.023700
v -0.008573 0.024122 0.038500
v -0.019858 0.016156 0.038500
v -0.014763 0.020914 0.023700
v -0.019858 0.016156 0.023700
v -0.014763 0.020914 0.038500
v -0.023481 0.010199 0.038500
v -0.019858 0.016156 0.023700
v -0.023481 0.010199 0.023700
v -0.019858 0.016156 0.038500
v -0.025362 0.003486 0.038500
v -0.023481 0.010199 0.023700
v -0.025362 0.003486 0.023700
v -0.023481 0.010199 0.038500
v -0.025362 -0.003486 0.038500
v -0.025362 0.003486 0.023700
v -0.025362 -0.003486 0.023700
v -0.025362 0.003486 0.038500
v -0.023481 -0.010199 0.038500
v -0.025362 -0.003486 0.038500
v -0.025362 -0.003486 0.023700
v -0.023481 -0.010199 0.023700
v -0.019858 -0.016156 0.038500
v -0.023481 -0.010199 0.038500
v -0.023481 -0.010199 0.023700
v -0.019858 -0.016156 0.023700
v -0.014763 -0.020914 0.038500
v -0.019858 -0.016156 0.038500
v -0.019858 -0.016156 0.023700
v -0.014763 -0.020914 0.023700
v -0.008573 -0.024122 0.038500
v -0.014763 -0.020914 0.038500
v -0.014763 -0.020914 0.023700
v -0.008573 -0.024122 0.023700
v -0.008573 -0.024122 0.038500
v -0.008573 -0.024122 0.023700
v -0.001747 -0.025540 0.023700
v -0.001747 -0.025540 0.038500
v 0.005208 -0.025065 0.038500
v -0.001747 -0.025540 0.038500
v -0.001747 -0.025540 0.023700
v 0.005208 -0.025065 0.023700
v 0.011778 -0.022730 0.038500
v 0.005208 -0.025065 0.038500
v 0.005208 -0.025065 0.023700
v 0.011778 -0.022730 0.023700
v 0.017473 -0.018709 0.038500
v 0.011778 -0.022730 0.038500
v 0.011778 -0.022730 0.023700
v 0.017473 -0.018709 0.023700
v 0.021873 -0.013301 0.038500
v 0.017473 -0.018709 0.038500
v 0.017473 -0.018709 0.023700
v 0.021873 -0.013301 0.023700
v 0.024651 -0.006907 0.038500
v 0.021873 -0.013301 0.038500
v 0.021873 -0.013301 0.023700
v 0.024651 -0.006907 0.023700
v 0.025600 0.000000 0.038500
v 0.024651 -0.006907 0.038500
v 0.024651 -0.006907 0.023700
v 0.025600 0.000000 0.023700
v -0.023481 -0.010199 0.038500
v -0.019858 -0.016156 0.038500
v -0.014763 -0.020914 0.038500
v -0.008573 -0.024122 0.038500
v -0.025362 0.003486 0.038500
v -0.025362 -0.003486 0.038500
v 0.005208 -0.025065 0.038500
v -0.001747 -0.025540 0.038500
v -0.019858 0.016156 0.038500
v -0.023481 0.010199 0.038500
v 0.017473 -0.018709 0.038500
v 0.011778 -0.022730 0.038500
v -0.008573 0.024122 0.038500
v -0.014763 0.020914 0.038500
v 0.024651 -0.006907 0.038500
v 0.021873 -0.013301 0.038500
v -0.001747 0.025540 0.038500
v 0.024651 0.006907 0.038500
v 0.025600 0.000000 0.038500
v 0.011778 0.022730 0.038500
v 0.005208 0.025065 0.038500
v 0.017473 0.018709 0.038500
v 0.021873 0.013301 0.038500
v -0.019858 -0.016156 0.023700
v -0.023481 -0.010199 0.023700
v -0.014763 -0.020914 0.023700
v -0.008573 -0.024122 0.023700
v -0.025362 -0.003486 0.023700
v -0.025362 0.003486 0.023700
v 0.005208 -0.025065 0.023700
v -0.001747 -0.025540 0.023700
v -0.023481 0.010199 0.023700
v -0.019858 0.016156 0.023700
v 0.017473 -0.018709 0.023700
v 0.011778 -0.022730 0.023700
v -0.014763 0.020914 0.023700
v -0.008573 0.024122 0.023700
v 0.024651 -0.006907 0.023700
v 0.021873 -0.013301 0.023700
v -0.001747 0.025540 0.023700
v 0.024651 0.006907 0.023700
v 0.025600 0.000000 0.023700
v 0.005208 0.025065 0.023700
v 0.011778 0.022730 0.023700
v 0.017473 0.018709 0.023700
v 0.021873 0.013301 0.023700
v 0.019500 0.000000 0.041300
v 0.025600 0.000000 0.038500
v 0.024651 0.006907 0.038500
v 0.018546 0.006026 0.041300
v 0.024651 0.006907 0.038500
v 0.021873 0.013301 0.038500
v 0.018546 0.006026 0.041300
v 0.019500 0.000000 0.041300
v 0.024651 0.006907 0.038500
v 0.015776 0.011462 0.041300
v 0.021873 0.013301 0.038500
v 0.017473 0.018709 0.038500
v 0.015776 0.011462 0.041300
v 0.018546 0.006026 0.041300
v 0.021873 0.013301 0.038500
v 0.011462 0.015776 0.041300
v 0.017473 0.018709 0.038500
v 0.011778 0.022730 0.038500
v 0.011462 0.015776 0.041300
v 0.015776 0.011462 0.041300
v 0.017473 0.018709 0.038500
v 0.006026 0.018546 0.041300
v 0.011778 0.022730 0.038500
v 0.005208 0.025065 0.038500
v 0.006026 0.018546 0.041300
v 0.011462 0.015776 0.041300
v 0.011778 0.022730 0.038500
v 0.000000 0.019500 0.041300
v 0.005208 0.025065 0.038500
v -0.001747 0.025540 0.038500
v 0.000000 0.019500 0.041300
v 0.006026 0.018546 0.041300
v 0.005208 0.025065 0.038500
v -0.006026 0.018546 0.041300
v -0.001747 0.025540 0.038500
v -0.008573 0.024122 0.038500
v -0.006026 0.018546 0.041300
v 0.000000 0.019500 0.041300
v -0.001747 0.025540 0.038500
v -0.011462 0.015776 0.041300
v -0.008573 0.024122 0.038500
v -0.014763 0.020914 0.038500
v -0.011462 0.015776 0.041300
v -0.014763 0.020914 0.038500
v -0.019858 0.016156 0.038500
v -0.011462 0.015776 0.041300
v -0.006026 0.018546 0.041300
v -0.008573 0.024122 0.038500
v -0.015776 0.011462 0.041300
v -0.019858 0.016156 0.038500
v -0.023481 0.010199 0.038500
v -0.015776 0.011462 0.041300
v -0.011462 0.015776 0.041300
v -0.019858 0.016156 0.038500
v -0.018546 0.006026 0.041300
v -0.023481 0.010199 0.038500
v -0.025362 0.003486 0.038500
v -0.018546 0.006026 0.041300
v -0.015776 0.011462 0.041300
v -0.023481 0.010199 0.038500
v -0.019500 0.000000 0.041300
v -0.025362 0.003486 0.038500
v -0.025362 -0.003486 0.038500
v -0.019500 0.000000 0.041300
v -0.018546 0.006026 0.041300
v -0.025362 0.003486 0.038500
v -0.018546 -0.006026 0.041300
v -0.025362 -0.003486 0.038500
v -0.023481 -0.010199 0.038500
v -0.018546 -0.006026 0.041300
v -0.019500 0.000000 0.041300
v -0.025362 -0.003486 0.038500
v -0.015776 -0.011462 0.041300
v -0.023481 -0.010199 0.038500
v -0.019858 -0.016156 0.038500
v -0.015776 -0.011462 0.041300
v -0.018546 -0.006026 0.041300
v -0.023481 -0.010199 0.038500
v -0.011462 -0.015776 0.041300
v -0.019858 -0.016156 0.038500
v -0.014763 -0.020914 0.038500
v -0.011462 -0.015776 0.041300
v -0.014763 -0.020914 0.038500
v -0.008573 -0.024122 0.038500
v -0.011462 -0.015776 0.041300
v -0.015776 -0.011462 0.041300
v -0.019858 -0.016156 0.038500
v -0.006026 -0.018546 0.041300
v -0.011462 -0.015776 0.041300
v -0.008573 -0.024122 0.038500
v -0.006026 -0.018546 0.041300
v -0.008573 -0.024122 0.038500
v -0.001747 -0.025540 0.038500
v -0.000000 -0.019500 0.041300
v -0.006026 -0.018546 0.041300
v -0.001747 -0.025540 0.038500
v -0.000000 -0.019500 0.041300
v -0.001747 -0.025540 0.038500
v 0.005208 -0.025065 0.038500
v 0.006026 -0.018546 0.041300
v -0.000000 -0.019500 0.041300
v 0.005208 -0.025065 0.038500
v 0.006026 -0.018546 0.041300
v 0.005208 -0.025065 0.038500
v 0.011778 -0.022730 0.038500
v 0.011462 -0.015776 0.041300
v 0.006026 -0.018546 0.041300
v 0.011778 -0.022730 0.038500
v 0.011462 -0.015776 0.041300
v 0.011778 -0.022730 0.038500
v 0.017473 -0.018709 0.038500
v 0.015776 -0.011462 0.041300
v 0.011462 -0.015776 0.041300
v 0.017473 -0.018709 0.038500
v 0.015776 -0.011462 0.041300
v 0.017473 -0.018709 0.038500
v 0.021873 -0.013301 0.038500
v 0.018546 -0.006026 0.041300
v 0.015776 -0.011462 0.041300
v 0.021873 -0.013301 0.038500
v 0.018546 -0.006026 0.041300
v 0.021873 -0.013301 0.038500
v 0.024651 -0.006907 0.038500
v 0.019500 0.000000 0.041300
v 0.018546 -0.006026 0.041300
v 0.024651 -0.006907 0.038500
v 0.019500 0.000000 0.041300
v 0.024651 -0.006907 0.038500
v 0.025600 0.000000 0.038500
v -0.006026 -0.018546 0.041300
v -0.015776 -0.011462 0.041300
v -0.011462 -0.015776 0.041300
v -0.018546 0.006026 0.041300
v -0.019500 0.000000 0.041300
v -0.018546 -0.006026 0.041300
v 0.011462 -0.015776 0.041300
v -0.000000 -0.019500 0.041300
v 0.006026 -0.018546 0.041300
v -0.011462 0.015776 0.041300
v -0.015776 0.011462 0.041300
v 0.018546 -0.006026 0.041300
v 0.015776 -0.011462 0.041300
v 0.019500 0.000000 0.041300
v 0.000000 0.019500 0.041300
v -0.006026 0.018546 0.041300
v 0.006026 0.018546 0.041300
v 0.011462 0.015776 0.041300
v 0.015776 0.011462 0.041300
v 0.018546 0.006026 0.041300
v -0.019858 -0.016156 0.038500
v -0.023481 -0.010199 0.038500
v -0.014763 -0.020914 0.038500
v -0.008573 -0.024122 0.038500
v -0.025362 -0.003486 0.038500
v -0.025362 0.003486 0.038500
v 0.005208 -0.025065 0.038500
v -0.001747 -0.025540 0.038500
v -0.023481 0.010199 0.038500
v -0.019858 0.016156 0.038500
v 0.017473 -0.018709 0.038500
v 0.011778 -0.022730 0.038500
v -0.014763 0.020914 0.038500
v -0.008573 0.024122 0.038500
v 0.024651 -0.006907 0.038500
v 0.021873 -0.013301 0.038500
v -0.001747 0.025540 0.038500
v 0.024651 0.006907 0.038500
v 0.025600 0.000000 0.038500
v 0.005208 0.025065 0.038500
v 0.011778 0.022730 0.038500
v 0.017473 0.018709 0.038500
v 0.021873 0.013301 0.038500
vn -1.0000 -0.0000 -0.0000
vn -0.0000 -0.0000 1.0000
vn -0.9877 -0.1564 -0.0000
vn -0.8910 -0.4540 -0.0000
vn -0.7071 -0.7071 -0.0000
vn -0.4540 -0.8910 -0.0000
vn -0.1564 -0.9877 -0.0000
vn -0.9877 0.1564 -0.0000
vn -0.8910 0.4540 -0.0000
vn -0.7071 0.7071 -0.0000
vn -0.4540 0.8910 -0.0000
vn -0.1564 0.9877 -0.0000
vn -0.0000 -0.0000 -1.0000
vn -0.0000 -1.0000 -0.0000
vn -0.0000 1.0000 -0.0000
vn 0.9877 -0.1564 -0.0000
vn 0.8910 -0.4540 -0.0000
vn 0.7071 -0.7071 -0.0000
vn 0.4540 -0.8910 -0.0000
vn 0.1564 -0.9877 -0.0000
vn 0.9877 0.1564 -0.0000
vn 0.8910 0.4540 -0.0000
vn 0.7071 0.7071 -0.0000
vn 0.4540 0.8910 -0.0000
vn 0.1564 0.9877 -0.0000
vn 1.0000 -0.0000 -0.0000
vn 0.9907 0.1362 -0.0000
vn 0.9172 0.3984 -0.0000
vn 0.7757 0.6311 -0.0000
vn 0.5767 0.8170 -0.0000
vn 0.3349 0.9423 -0.0000
vn 0.0682 0.9977 -0.0000
vn -0.2035 0.9791 -0.0000
vn -0.4601 0.8879 -0.0000
vn -0.6826 0.7308 -0.0000
vn -0.8544 0.5196 -0.0000
vn -0.9629 0.2698 -0.0000
vn -0.9629 -0.2698 -0.0000
vn -0.8544 -0.5196 -0.0000
vn -0.6826 -0.7308 -0.0000
vn -0.4601 -0.8879 -0.0000
vn -0.2035 -0.9791 -0.0000
vn 0.0682 -0.9977 -0.0000
vn 0.3349 -0.9423 -0.0000
vn 0.5767 -0.8170 -0.0000
vn 0.7757 -0.6311 -0.0000
vn 0.9172 -0.3984 -0.0000
vn 0.9907 -0.1362 -0.0000
vn 0.4165 0.0572 0.9073
vn 0.3905 0.1696 0.9048
vn 0.4083 0.0647 0.9106
vn 0.3330 0.2709 0.9032
vn 0.3634 0.1852 0.9130
vn 0.2485 0.3521 0.9024
vn 0.2862 0.2862 0.9144
vn 0.1442 0.4057 0.9025
vn 0.1834 0.3600 0.9147
vn 0.0292 0.4273 0.9036
vn 0.0634 0.4006 0.9141
vn -0.0863 0.4153 0.9056
vn -0.0640 0.4044 0.9123
vn -0.1924 0.3713 0.9083
vn -0.2883 0.3087 0.9064
vn -0.1888 0.3705 0.9095
vn -0.3650 0.2219 0.9042
vn -0.2908 0.2908 0.9115
vn -0.4141 0.1160 0.9028
vn -0.3623 0.1846 0.9136
vn -0.4310 -0.0000 0.9023
vn -0.3993 0.0632 0.9146
vn -0.4141 -0.1160 0.9028
vn -0.3993 -0.0632 0.9146
vn -0.3650 -0.2219 0.9042
vn -0.3623 -0.1846 0.9136
vn -0.2883 -0.3087 0.9064
vn -0.1924 -0.3713 0.9083
vn -0.2908 -0.2908 0.9115
vn -0.1888 -0.3705 0.9095
vn -0.0863 -0.4153 0.9056
vn -0.0640 -0.4044 0.9123
vn 0.0292 -0.4273 0.9036
vn 0.0634 -0.4006 0.9141
vn 0.1442 -0.4057 0.9025
vn 0.1834 -0.3600 0.9147
vn 0.2485 -0.3521 0.9024
vn 0.2862 -0.2862 0.9144
vn 0.3330 -0.2709 0.9032
vn 0.3634 -0.1852 0.9130
vn 0.3905 -0.1696 0.9048
vn 0.4083 -0.0647 0.9106
vn 0.4165 -0.0572 0.9073
s 0
f 1//1 2//1 3//1
f 2//1 4//1 3//1
f 5//2 6//2 7//2
f 5//2 7//2 8//2
f 5//2 8//2 9//2
f 5//2 9//2 10//2
f 11//2 6//2 5//2
f 12//2 13//2 11//2
f 14//2 15//2 16//2
f 17//2 14//2 18//2
f 19//2 15//2 14//2
f 19//2 14//2 17//2
f 20//2 21//2 12//2
f 20//2 22//2 21//2
f 20//2 12//2 11//2
f 23//2 5//2 15//2
f 23//2 24//2 20//2
f 23//2 11//2 5//2
f 23//2 15//2 19//2
f 23//2 20//2 11//2
f 25//2 23//2 26//2
f 27//2 28//2 24//2
f 27//2 24//2 23//2
f 27//2 23//2 25//2
f 29//3 30//3 31//3
f 29//3 32//3 30//3
f 33//4 34//4 35//4
f 33//4 36//4 34//4
f 37//5 38//5 39//5
f 37//5 40//5 38//5
f 41//6 42//6 43//6
f 44//7 45//7 46//7
f 41//6 47//6 42//6
f 48//7 44//7 46//7
f 49//8 50//8 51//8
f 52//8 50//8 49//8
f 53//9 54//9 55//9
f 56//9 54//9 53//9
f 57//10 58//10 59//10
f 60//10 58//10 57//10
f 61//11 62//11 63//11
f 64//12 65//12 66//12
f 67//11 62//11 61//11
f 65//12 68//12 66//12
f 69//13 70//13 71//13
f 71//13 70//13 72//13
f 72//13 70//13 73//13
f 73//13 70//13 74//13
f 69//13 75//13 70//13
f 76//13 77//13 75//13
f 78//13 79//13 80//13
f 79//13 81//13 82//13
f 78//13 83//13 79//13
f 79//13 83//13 81//13
f 84//13 85//13 77//13
f 86//13 85//13 84//13
f 77//13 85//13 75//13
f 70//13 87//13 78//13
f 88//13 87//13 85//13
f 75//13 87//13 70//13
f 78//13 87//13 83//13
f 85//13 87//13 75//13
f 87//13 89//13 90//13
f 91//13 92//13 88//13
f 88//13 92//13 87//13
f 87//13 92//13 89//13
f 93//14 94//14 95//14
f 94//14 96//14 95//14
f 97//15 98//15 99//15
f 100//15 97//15 99//15
f 101//16 102//16 103//16
f 104//16 102//16 101//16
f 105//17 106//17 107//17
f 108//17 106//17 105//17
f 109//18 110//18 111//18
f 112//18 110//18 109//18
f 113//19 114//19 115//19
f 116//20 117//20 118//20
f 119//19 114//19 113//19
f 117//20 120//20 118//20
f 121//21 122//21 123//21
f 121//21 124//21 122//21
f 125//22 126//22 127//22
f 125//22 128//22 126//22
f 129//23 130//23 131//23
f 129//23 132//23 130//23
f 133//24 134//24 135//24
f 136//25 137//25 138//25
f 133//24 139//24 134//24
f 140//25 136//25 138//25
f 141//26 142//26 143//26
f 144//26 141//26 143//26
f 145//27 146//27 147//27
f 145//27 147//27 148//27
f 149//28 150//28 151//28
f 149//28 152//28 150//28
f 153//29 154//29 155//29
f 153//29 156//29 154//29
f 157//30 158//30 159//30
f 157//30 160//30 158//30
f 161//31 162//31 163//31
f 164//32 165//32 166//32
f 161//31 167//31 162//31
f 168//32 164//32 166//32
f 169//33 170//33 171//33
f 169//33 172//33 170//33
f 173//34 174//34 175//34
f 173//34 176//34 174//34
f 177//35 178//35 179//35
f 177//35 180//35 178//35
f 181//36 182//36 183//36
f 181//36 184//36 182//36
f 185//37 186//37 187//37
f 185//37 188//37 186//37
f 189//1 190//1 191//1
f 189//1 192//1 190//1
f 193//38 194//38 195//38
f 193//38 195//38 196//38
f 197//39 198//39 199//39
f 197//39 199//39 200//39
f 201//40 202//40 203//40
f 201//40 203//40 204//40
f 205//41 206//41 207//41
f 205//41 207//41 208//41
f 209//42 210//42 211//42
f 212//42 209//42 211//42
f 213//43 214//43 215//43
f 213//43 215//43 216//43
f 217//44 218//44 219//44
f 217//44 219//44 220//44
f 221//45 222//45 223//45
f 221//45 223//45 224//45
f 225//46 226//46 227//46
f 225//46 227//46 228//46
f 229//47 230//47 231//47
f 229//47 231//47 232//47
f 233//48 234//48 235//48
f 233//48 235//48 236//48
f 237//2 238//2 239//2
f 240//2 237//2 239//2
f 241//2 242//2 237//2
f 243//2 240//2 244//2
f 245//2 246//2 241//2
f 247//2 243//2 248//2
f 249//2 250//2 245//2
f 249//2 245//2 241//2
f 251//2 247//2 252//2
f 251//2 240//2 243//2
f 251//2 243//2 247//2
f 253//2 241//2 237//2
f 253//2 237//2 240//2
f 253//2 249//2 241//2
f 254//2 251//2 255//2
f 254//2 240//2 251//2
f 256//2 257//2 253//2
f 256//2 253//2 240//2
f 256//2 240//2 254//2
f 258//2 254//2 259//2
f 258//2 256//2 254//2
f 260//13 261//13 262//13
f 261//13 263//13 262//13
f 264//13 265//13 261//13
f 263//13 266//13 267//13
f 268//13 269//13 265//13
f 266//13 270//13 271//13
f 272//13 273//13 269//13
f 269//13 273//13 265//13
f 270//13 274//13 275//13
f 263//13 274//13 266//13
f 266//13 274//13 270//13
f 265//13 276//13 261//13
f 261//13 276//13 263//13
f 273//13 276//13 265//13
f 274//13 277//13 278//13
f 263//13 277//13 274//13
f 279//13 280//13 276//13
f 276//13 280//13 263//13
f 263//13 280//13 277//13
f 277//13 281//13 282//13
f 280//13 281//13 277//13
f 283//49 284//49 285//49
f 286//50 287//50 288//50
f 289//51 290//51 291//51
f 292//52 293//52 294//52
f 295//53 296//53 297//53
f 298//54 299//54 300//54
f 301//55 302//55 303//55
f 304//56 305//56 306//56
f 307//57 308//57 309//57
f 310//58 311//58 312//58
f 313//59 314//59 315//59
f 316//60 317//60 318//60
f 319//61 320//61 321//61
f 322//62 323//62 324//62
f 325//63 326//63 327//63
f 328//64 329//64 330//64
f 331//65 332//65 333//65
f 334//66 335//66 336//66
f 337//67 338//67 339//67
f 340//68 341//68 342//68
f 343//69 344//69 345//69
f 346//70 347//70 348//70
f 349//71 350//71 351//71
f 352//72 353//72 354//72
f 355//73 356//73 357//73
f 358//74 359//74 360//74
f 361//75 362//75 363//75
f 364//76 365//76 366//76
f 367//77 368//77 369//77
f 370//78 371//78 372//78
f 373//79 374//79 375//79
f 376//80 377//80 378//80
f 379//81 380//81 381//81
f 382//82 383//82 384//82
f 385//83 386//83 387//83
f 388//84 389//84 390//84
f 391//85 392//85 393//85
f 394//86 395//86 396//86
f 397//87 398//87 399//87
f 400//88 401//88 402//88
f 403//89 404//89 405//89
f 406//90 407//90 408//90
f 409//91 410//91 411//91
f 412//2 413//2 414//2
f 415//2 416//2 417//2
f 415//2 417//2 413//2
f 415//2 413//2 412//2
f 418//2 419//2 420//2
f 421//2 422//2 415//2
f 421//2 415//2 412//2
f 423//2 418//2 424//2
f 425//2 418//2 423//2
f 426//2 427//2 421//2
f 428//2 426//2 421//2
f 429//2 428//2 421//2
f 430//2 425//2 431//2
f 430//2 412//2 419//2
f 430//2 419//2 418//2
f 430//2 421//2 412//2
f 430//2 418//2 425//2
f 430//2 429//2 421//2
f 432//13 433//13 434//13
f 433//13 435//13 434//13
f 436//13 437//13 433//13
f 435//13 438//13 439//13
f 440//13 441//13 437//13
f 438//13 442//13 443//13
f 444//13 445//13 441//13
f 441//13 445//13 437//13
f 442//13 446//13 447//13
f 435//13 446//13 438//13
f 438//13 446//13 442//13
f 437//13 448//13 433//13
f 433//13 448//13 435//13
f 445//13 448//13 437//13
f 446//13 449//13 450//13
f 435//13 449//13 446//13
f 451//13 452//13 448//13
f 448//13 452//13 435//13
f 435//13 452//13 449//13
f 449//13 453//13 454//13
f 452//13 453//13 449//13
