# Blender 4.0.2
# www.blender.org
o n_light
v -0.027800 -0.017800 0.000000
v -0.027800 -0.017800 0.018700
v -0.027800 0.017800 -0.000000
v -0.027800 0.017800 0.018700
v -0.017800 -0.027800 0.018700
v -0.027800 -0.017800 0.018700
v -0.027311 -0.020890 0.018700
v -0.025890 -0.023678 0.018700
v -0.023678 -0.025890 0.018700
v -0.020890 -0.027311 0.018700
v -0.027800 0.017800 0.018700
v -0.025890 0.023678 0.018700
v -0.027311 0.020890 0.018700
v 0.023678 -0.025890 0.018700
v 0.017800 -0.027800 0.018700
v 0.020890 -0.027311 0.018700
v 0.027311 -0.020890 0.018700
v 0.025890 -0.023678 0.018700
v 0.027800 -0.017800 0.018700
v -0.017800 0.027800 0.018700
v -0.023678 0.025890 0.018700
v -0.020890 0.027311 0.018700
v 0.027800 0.017800 0.018700
v 0.017800 0.027800 0.018700
v 0.025890 0.023678 0.018700
v 0.027311 0.020890 0.018700
v 0.023678 0.025890 0.018700
v 0.020890 0.027311 0.018700
v -0.027311 -0.020890 0.018700
v -0.027800 -0.017800 0.000000
v -0.027311 -0.020890 0.000000
v -0.027800 -0.017800 0.018700
v -0.025890 -0.023678 0.018700
v -0.027311 -0.020890 0.000000
v -0.025890 -0.023678 0.000000
v -0.027311 -0.020890 0.018700
v -0.023678 -0.025890 0.018700
v -0.025890 -0.023678 0.000000
v -0.023678 -0.025890 0.000000
v -0.025890 -0.023678 0.018700
v -0.020890 -0.027311 0.018700
v -0.023678 -0.025890 0.000000
v -0.020890 -0.027311 0.000000
v -0.023678 -0.025890 0.018700
v -0.017800 -0.027800 0.018700
v -0.020890 -0.027311 0.000000
v -0.017800 -0.027800 0.000000
v -0.020890 -0.027311 0.018700
v -0.027800 0.017800 -0.000000
v -0.027311 0.020890 0.018700
v -0.027311 0.020890 -0.000000
v -0.027800 0.017800 0.018700
v -0.027311 0.020890 -0.000000
v -0.025890 0.023678 0.018700
v -0.025890 0.023678 -0.000000
v -0.027311 0.020890 0.018700
v -0.025890 0.023678 -0.000000
v -0.023678 0.025890 0.018700
v -0.023678 0.025890 -0.000000
v -0.025890 0.023678 0.018700
v -0.023678 0.025890 -0.000000
v -0.020890 0.027311 0.018700
v -0.020890 0.027311 -0.000000
v -0.023678 0.025890 0.018700
v -0.020890 0.027311 -0.000000
v -0.017800 0.027800 0.018700
v -0.017800 0.027800 -0.000000
v -0.020890 0.027311 0.018700
v -0.027800 -0.017800 0.000000
v -0.017800 -0.027800 0.000000
v -0.027311 -0.020890 0.000000
v -0.025890 -0.023678 0.000000
v -0.023678 -0.025890 0.000000
v -0.020890 -0.027311 0.000000
v -0.027800 0.017800 -0.000000
v -0.027311 0.020890 -0.000000
v -0.025890 0.023678 -0.000000
v 0.017800 -0.027800 0.000000
v 0.023678 -0.025890 0.000000
v 0.020890 -0.027311 0.000000
v 0.027311 -0.020890 0.000000
v 0.025890 -0.023678 0.000000
v 0.027800 -0.017800 0.000000
v -0.023678 0.025890 -0.000000
v -0.017800 0.027800 -0.000000
v -0.020890 0.027311 -0.000000
v 0.027800 0.017800 -0.000000
v 0.017800 0.027800 -0.000000
v 0.025890 0.023678 -0.000000
v 0.027311 0.020890 -0.000000
v 0.020890 0.027311 -0.000000
v 0.023678 0.025890 -0.000000
v -0.017800 -0.027800 0.000000
v 0.017800 -0.027800 0.000000
v -0.017800 -0.027800 0.018700
v 0.017800 -0.027800 0.018700
v 0.017800 0.027800 -0.000000
v -0.017800 0.027800 -0.000000
v -0.017800 0.027800 0.018700
v 0.017800 0.027800 0.018700
v 0.027800 -0.017800 0.000000
v 0.027311 -0.020890 0.018700
v 0.027311 -0.020890 0.000000
v 0.027800 -0.017800 0.018700
v 0.027311 -0.020890 0.000000
v 0.025890 -0.023678 0.018700
v 0.025890 -0.023678 0.000000
v 0.027311 -0.020890 0.018700
v 0.025890 -0.023678 0.000000
v 0.023678 -0.025890 0.018700
v 0.023678 -0.025890 0.000000
v 0.025890 -0.023678 0.018700
v 0.023678 -0.025890 0.000000
v 0.020890 -0.027311 0.018700
v 0.020890 -0.027311 0.000000
v 0.023678 -0.025890 0.018700
v 0.020890 -0.027311 0.000000
v 0.017800 -0.027800 0.018700
v 0.017800 -0.027800 0.000000
v 0.020890 -0.027311 0.018700
v 0.027311 0.020890 0.018700
v 0.027800 0.017800 -0.000000
v 0.027311 0.020890 -0.000000
v 0.027800 0.017800 0.018700
v 0.025890 0.023678 0.018700
v 0.027311 0.020890 -0.000000
v 0.025890 0.023678 -0.000000
v 0.027311 0.020890 0.018700
v 0.023678 0.025890 0.018700
v 0.025890 0.023678 -0.000000
v 0.023678 0.025890 -0.000000
v 0.025890 0.023678 0.018700
v 0.020890 0.027311 0.018700
v 0.023678 0.025890 -0.000000
v 0.020890 0.027311 -0.000000
v 0.023678 0.025890 0.018700
v 0.017800 0.027800 0.018700
v 0.020890 0.027311 -0.000000
v 0.017800 0.027800 -0.000000
v 0.020890 0.027311 0.018700
v 0.027800 -0.017800 0.018700
v 0.027800 -0.017800 0.000000
v 0.027800 0.017800 -0.000000
v 0.027800 0.017800 0.018700
vn -1.0000 -0.0000 -0.0000
vn -0.0000 -0.0000 1.0000
vn -0.9877 -0.1564 -0.0000
vn -0.8910 -0.4540 -0.0000
vn -0.7071 -0.7071 -0.0000
vn -0.4540 -0.8910 -0.0000
vn -0.1564 -0.9877 -0.0000
vn -0.9877 0.1564 -0.0000
vn -0.8910 0.4540 -0.0000
vn -0.7071 0.7071 -0.0000
vn -0.4540 0.8910 -0.0000
vn -0.1564 0.9877 -0.0000
vn -0.0000 -0.0000 -1.0000
vn -0.0000 -1.0000 -0.0000
vn -0.0000 1.0000 -0.0000
vn 0.9877 -0.1564 -0.0000
vn 0.8910 -0.4540 -0.0000
vn 0.7071 -0.7071 -0.0000
vn 0.4540 -0.8910 -0.0000
vn 0.1564 -0.9877 -0.0000
vn 0.9877 0.1564 -0.0000
vn 0.8910 0.4540 -0.0000
vn 0.7071 0.7071 -0.0000
vn 0.4540 0.8910 -0.0000
vn 0.1564 0.9877 -0.0000
vn 1.0000 -0.0000 -0.0000
s 0
f 1//1 2//1 3//1
f 3//1 2//1 4//1
f 5//2 6//2 7//2
f 5//2 7//2 8//2
f 5//2 8//2 9//2
f 5//2 9//2 10//2
f 11//2 6//2 5//2
f 12//2 13//2 11//2
f 14//2 15//2 16//2
f 17//2 14//2 18//2
f 19//2 15//2 14//2
f 19//2 14//2 17//2
f 20//2 21//2 12//2
f 20//2 22//2 21//2
f 20//2 12//2 11//2
f 23//2 5//2 15//2
f 23//2 24//2 20//2
f 23//2 11//2 5//2
f 23//2 15//2 19//2
f 23//2 20//2 11//2
f 25//2 23//2 26//2
f 27//2 28//2 24//2
f 27//2 24//2 23//2
f 27//2 23//2 25//2
f 29//3 30//3 31//3
f 29//3 32//3 30//3
f 33//4 34//4 35//4
f 33//4 36//4 34//4
f 37//5 38//5 39//5
f 37//5 40//5 38//5
f 41//6 42//6 43//6
f 41//6 44//6 42//6
f 45//7 46//7 47//7
f 45//7 48//7 46//7
f 49//8 50//8 51//8
f 52//8 50//8 49//8
f 53//9 54//9 55//9
f 56//9 54//9 53//9
f 57//10 58//10 59//10
f 60//10 58//10 57//10
f 61//11 62//11 63//11
f 64//11 62//11 61//11
f 65//12 66//12 67//12
f 68//12 66//12 65//12
f 69//13 70//13 71//13
f 71//13 70//13 72//13
f 72//13 70//13 73//13
f 73//13 70//13 74//13
f 69//13 75//13 70//13
f 76//13 77//13 75//13
f 78//13 79//13 80//13
f 79//13 81//13 82//13
f 78//13 83//13 79//13
f 79//13 83//13 81//13
f 84//13 85//13 77//13
f 86//13 85//13 84//13
f 77//13 85//13 75//13
f 70//13 87//13 78//13
f 88//13 87//13 85//13
f 75//13 87//13 70//13
f 78//13 87//13 83//13
f 85//13 87//13 75//13
f 87//13 89//13 90//13
f 91//13 92//13 88//13
f 88//13 92//13 87//13
f 87//13 92//13 89//13
f 93//14 94//14 95//14
f 94//14 96//14 95//14
f 97//15 98//15 99//15
f 100//15 97//15 99//15
f 101//16 102//16 103//16
f 104//16 102//16 101//16
f 105//17 106//17 107//17
f 108//17 106//17 105//17
f 109//18 110//18 111//18
f 112//18 110//18 109//18
f 113//19 114//19 115//19
f 116//19 114//19 113//19
f 117//20 118//20 119//20
f 120//20 118//20 117//20
f 121//21 122//21 123//21
f 121//21 124//21 122//21
f 125//22 126//22 127//22
f 125//22 128//22 126//22
f 129//23 130//23 131//23
f 129//23 132//23 130//23
f 133//24 134//24 135//24
f 133//24 136//24 134//24
f 137//25 138//25 139//25
f 137//25 140//25 138//25
f 141//26 142//26 143//26
f 141//26 143//26 144//26
