v 0.264914 -0.000097 0.036295
v 0.264954 -0.000097 0.036298
v 0.264993 -0.000097 0.036310
v 0.265029 -0.000097 0.036328
v 0.265059 -0.000097 0.036354
v 0.265104 -0.000581 0.036354
v 0.265246 -0.001077 0.036354
v 0.265493 -0.001554 0.036354
v 0.265839 -0.001980 0.036354
v 0.266265 -0.002326 0.036354
v 0.266742 -0.002573 0.036354
v 0.267238 -0.002715 0.036354
v 0.267723 -0.002760 0.036354
v 0.268207 -0.002715 0.036354
v 0.268703 -0.002573 0.036354
v 0.269180 -0.002326 0.036354
v 0.269606 -0.001980 0.036354
v 0.269952 -0.001554 0.036354
v 0.270199 -0.001077 0.036354
v 0.270341 -0.000581 0.036354
v 0.270386 -0.000097 0.036354
v 0.270417 -0.000097 0.036328
v 0.270453 -0.000097 0.036310
v 0.270492 -0.000097 0.036298
v 0.270531 -0.000097 0.036295
v 0.270480 -0.000632 0.036295
v 0.270321 -0.001164 0.036295
v 0.270056 -0.001661 0.036295
v 0.269700 -0.002092 0.036295
v 0.269277 -0.002436 0.036295
v 0.268808 -0.002687 0.036295
v 0.268281 -0.002849 0.036295
v 0.267723 -0.002905 0.036295
v 0.267164 -0.002849 0.036295
v 0.266638 -0.002687 0.036295
v 0.266168 -0.002436 0.036295
v 0.265746 -0.002092 0.036295
v 0.265390 -0.001661 0.036295
v 0.265125 -0.001164 0.036295
v 0.264965 -0.000632 0.036295
v 0.265088 -0.000658 0.036328
v 0.265053 -0.000666 0.036310
v 0.265014 -0.000674 0.036298
v 0.265278 -0.001229 0.036328
v 0.265246 -0.001245 0.036310
v 0.265210 -0.001261 0.036298
v 0.265606 -0.001764 0.036328
v 0.265578 -0.001786 0.036310
v 0.265547 -0.001810 0.036298
v 0.266056 -0.002213 0.036328
v 0.266033 -0.002241 0.036310
v 0.266009 -0.002272 0.036298
v 0.266590 -0.002541 0.036328
v 0.266575 -0.002573 0.036310
v 0.266558 -0.002609 0.036298
v 0.267161 -0.002731 0.036328
v 0.267153 -0.002767 0.036310
v 0.267145 -0.002805 0.036298
v 0.267723 -0.002791 0.036328
v 0.267723 -0.002827 0.036310
v 0.267723 -0.002866 0.036298
v 0.268284 -0.002731 0.036328
v 0.268292 -0.002767 0.036310
v 0.268300 -0.002805 0.036298
v 0.269130 -0.002394 0.036328
v 0.269149 -0.002424 0.036310
v 0.269170 -0.002458 0.036298
v 0.269839 -0.001764 0.036328
v 0.269867 -0.001786 0.036310
v 0.269898 -0.001810 0.036298
v 0.270279 -0.000945 0.036328
v 0.270314 -0.000957 0.036310
v 0.270351 -0.000969 0.036298
v 0.267723 0.002567 0.036354
v 0.267723 0.002162 0.036758
v 0.267312 0.002124 0.036758
v 0.266891 0.002003 0.036758
v 0.266487 0.001794 0.036758
v 0.266126 0.001501 0.036758
v 0.265832 0.001139 0.036758
v 0.265623 0.000735 0.036758
v 0.265502 0.000314 0.036758
v 0.265464 -0.000097 0.036758
v 0.265502 -0.000508 0.036758
v 0.265623 -0.000928 0.036758
v 0.265832 -0.001332 0.036758
v 0.266126 -0.001694 0.036758
v 0.266487 -0.001987 0.036758
v 0.266891 -0.002197 0.036758
v 0.267312 -0.002317 0.036758
v 0.267723 -0.002355 0.036758
v 0.265104 0.000388 0.036354
v 0.265246 0.000884 0.036354
v 0.265493 0.001361 0.036354
v 0.265839 0.001787 0.036354
v 0.266265 0.002133 0.036354
v 0.266742 0.002380 0.036354
v 0.267238 0.002522 0.036354
v 0.267209 0.002310 0.036556
v 0.266688 0.002136 0.036556
v 0.266200 0.001837 0.036556
v 0.265789 0.001426 0.036556
v 0.265490 0.000938 0.036556
v 0.265316 0.000417 0.036556
v 0.265262 -0.000097 0.036556
v 0.265316 -0.000610 0.036556
v 0.265624 -0.001382 0.036556
v 0.266200 -0.002030 0.036556
v 0.266947 -0.002432 0.036556
v 0.265494 -0.000097 0.036783
v 0.265529 -0.000097 0.036802
v 0.265567 -0.000097 0.036813
v 0.265605 -0.000097 0.036817
v 0.265645 -0.000506 0.036817
v 0.265767 -0.000907 0.036817
v 0.265965 -0.001276 0.036817
v 0.266226 -0.001594 0.036817
v 0.266543 -0.001855 0.036817
v 0.266912 -0.002053 0.036817
v 0.267314 -0.002174 0.036817
v 0.267723 -0.002214 0.036817
v 0.268121 -0.002177 0.036817
v 0.268513 -0.002061 0.036817
v 0.268886 -0.001866 0.036817
v 0.269219 -0.001594 0.036817
v 0.269491 -0.001261 0.036817
v 0.269687 -0.000887 0.036817
v 0.269803 -0.000495 0.036817
v 0.269840 -0.000097 0.036817
v 0.269878 -0.000097 0.036813
v 0.269916 -0.000097 0.036802
v 0.269951 -0.000097 0.036783
v 0.269981 -0.000097 0.036758
v 0.269944 -0.000508 0.036758
v 0.269823 -0.000928 0.036758
v 0.269613 -0.001332 0.036758
v 0.269320 -0.001694 0.036758
v 0.268959 -0.001987 0.036758
v 0.268554 -0.002197 0.036758
v 0.268134 -0.002317 0.036758
v 0.265614 -0.000546 0.036813
v 0.265577 -0.000554 0.036802
v 0.265543 -0.000561 0.036783
v 0.265767 -0.001003 0.036813
v 0.265732 -0.001019 0.036802
v 0.265701 -0.001034 0.036783
v 0.266029 -0.001431 0.036813
v 0.265999 -0.001454 0.036802
v 0.265972 -0.001476 0.036783
v 0.266389 -0.001790 0.036813
v 0.266365 -0.001820 0.036802
v 0.266344 -0.001847 0.036783
v 0.266816 -0.002052 0.036813
v 0.266800 -0.002087 0.036802
v 0.266785 -0.002119 0.036783
v 0.267273 -0.002205 0.036813
v 0.267265 -0.002242 0.036802
v 0.267258 -0.002276 0.036783
v 0.267723 -0.002252 0.036813
v 0.267723 -0.002290 0.036802
v 0.267723 -0.002325 0.036783
v 0.268172 -0.002205 0.036813
v 0.268180 -0.002242 0.036802
v 0.268187 -0.002276 0.036783
v 0.268849 -0.001935 0.036813
v 0.268869 -0.001967 0.036802
v 0.268887 -0.001997 0.036783
v 0.269416 -0.001431 0.036813
v 0.269446 -0.001454 0.036802
v 0.269473 -0.001476 0.036783
v 0.269769 -0.000776 0.036813
v 0.269805 -0.000788 0.036802
v 0.269838 -0.000799 0.036783
v 0.267723 -0.000533 0.036367
v 0.267723 -0.000697 0.036817
v 0.267613 -0.000687 0.036817
v 0.267502 -0.000654 0.036817
v 0.267394 -0.000599 0.036817
v 0.267298 -0.000521 0.036817
v 0.267220 -0.000425 0.036817
v 0.267165 -0.000317 0.036817
v 0.267133 -0.000206 0.036817
v 0.267123 -0.000097 0.036817
v 0.267133 0.000013 0.036817
v 0.267165 0.000124 0.036817
v 0.267220 0.000232 0.036817
v 0.267298 0.000328 0.036817
v 0.267394 0.000406 0.036817
v 0.267502 0.000461 0.036817
v 0.267613 0.000493 0.036817
v 0.267723 0.000503 0.036817
v 0.267723 0.000340 0.036367
v 0.267643 0.000332 0.036367
v 0.267562 0.000309 0.036367
v 0.267484 0.000269 0.036367
v 0.267414 0.000212 0.036367
v 0.267358 0.000142 0.036367
v 0.267317 0.000064 0.036367
v 0.267294 -0.000017 0.036367
v 0.267286 -0.000097 0.036367
v 0.267294 -0.000176 0.036367
v 0.267317 -0.000257 0.036367
v 0.267358 -0.000335 0.036367
v 0.267414 -0.000405 0.036367
v 0.267484 -0.000462 0.036367
v 0.267562 -0.000502 0.036367
v 0.267643 -0.000525 0.036367
v 0.267615 -0.000603 0.036592
v 0.267505 -0.000567 0.036592
v 0.267402 -0.000504 0.036592
v 0.267316 -0.000417 0.036592
v 0.267253 -0.000314 0.036592
v 0.267216 -0.000205 0.036592
v 0.267205 -0.000097 0.036592
v 0.267216 0.000012 0.036592
v 0.267241 0.000094 0.036592
v 0.267281 0.000174 0.036592
v 0.267335 0.000248 0.036592
v 0.267402 0.000310 0.036592
v 0.267478 0.000360 0.036592
v 0.267559 0.000395 0.036592
v 0.267642 0.000415 0.036592
v 0.245088 0.004296 0.049541
v 0.245088 -0.004489 0.049541
v 0.249853 -0.006171 0.049541
v 0.251062 -0.008965 0.049541
v 0.252729 -0.011560 0.049541
v 0.254796 -0.013849 0.049541
v 0.257175 -0.015748 0.049541
v 0.257175 0.015555 0.049541
v 0.254796 0.013656 0.049541
v 0.252729 0.011367 0.049541
v 0.251062 0.008772 0.049541
v 0.249853 0.005978 0.049541
v 0.251132 -0.000097 0.049541
v 0.251349 0.005374 0.037335
v 0.252482 0.008013 0.037335
v 0.254122 0.010536 0.037335
v 0.256250 0.012803 0.037335
v 0.258794 0.014679 0.037335
v 0.261638 0.016059 0.037335
v 0.264634 0.016888 0.037335
v 0.267631 0.017167 0.037335
v 0.270494 0.016943 0.037335
v 0.273280 0.016248 0.037335
v 0.276034 0.015034 0.037335
v 0.278613 0.013298 0.037335
v 0.280873 0.011088 0.037335
v 0.282692 0.008503 0.037335
v 0.283991 0.005679 0.037335
v 0.284747 0.002765 0.037335
v 0.284986 -0.000097 0.037335
v 0.284747 -0.002959 0.037335
v 0.283991 -0.005872 0.037335
v 0.282692 -0.008696 0.037335
v 0.280873 -0.011281 0.037335
v 0.278613 -0.013491 0.037335
v 0.276034 -0.015227 0.037335
v 0.273280 -0.016441 0.037335
v 0.270494 -0.017136 0.037335
v 0.267631 -0.017360 0.037335
v 0.264634 -0.017081 0.037335
v 0.261638 -0.016252 0.037335
v 0.258794 -0.014872 0.037335
v 0.256250 -0.012996 0.037335
v 0.254122 -0.010729 0.037335
v 0.252482 -0.008206 0.037335
v 0.251349 -0.005567 0.037335
v 0.247507 -0.004253 0.037796
v 0.247507 0.004060 0.037796
v 0.270484 0.000415 0.036295
v 0.270334 0.000937 0.036295
v 0.270074 0.001440 0.036295
v 0.269709 0.001890 0.036295
v 0.269260 0.002254 0.036295
v 0.268757 0.002515 0.036295
v 0.268234 0.002665 0.036295
v 0.267723 0.002712 0.036295
v 0.267212 0.002665 0.036295
v 0.266689 0.002515 0.036295
v 0.266186 0.002254 0.036295
v 0.265737 0.001890 0.036295
v 0.265372 0.001440 0.036295
v 0.265111 0.000937 0.036295
v 0.264961 0.000415 0.036295
v 0.271076 -0.004485 0.036376
v 0.256926 -0.008760 0.036953
v 0.256926 0.008500 0.036949
v 0.280368 0.004159 0.036904
v 0.275729 0.004169 0.036561
v 0.271076 0.004175 0.036372
v 0.266416 0.004176 0.036338
v 0.261666 0.004172 0.036463
v 0.256926 0.004163 0.036749
v 0.252204 0.004150 0.037195
v 0.261666 0.008522 0.036664
v 0.266416 0.008535 0.036539
v 0.271076 0.008538 0.036574
v 0.275729 0.008531 0.036763
v 0.280368 0.008515 0.037105
v 0.280368 -0.000175 0.036839
v 0.275729 -0.000175 0.036496
v 0.271076 -0.000175 0.036307
v 0.261666 -0.000175 0.036398
v 0.256926 -0.000175 0.036684
v 0.252204 -0.000174 0.037130
v 0.271076 -0.002919 0.036336
v 0.275729 -0.002936 0.036525
v 0.280368 -0.002949 0.036868
v 0.280368 -0.004469 0.036908
v 0.275729 -0.004479 0.036565
v 0.266416 -0.004486 0.036342
v 0.261666 -0.004482 0.036467
v 0.256926 -0.004473 0.036752
v 0.252204 -0.004459 0.037198
v 0.280368 -0.008714 0.037106
v 0.275729 -0.008742 0.036764
v 0.271076 -0.008761 0.036576
v 0.266416 -0.008770 0.036542
v 0.261666 -0.008770 0.036667
v 0.275729 -0.013057 0.037098
v 0.271076 -0.013065 0.036909
v 0.266416 -0.013059 0.036874
v 0.261666 -0.013038 0.036998
v 0.256926 -0.013002 0.037282
v 0.247088 0.003950 0.038201
v 0.247107 0.003950 0.038125
v 0.247139 0.003954 0.038052
v 0.247182 0.003963 0.037985
v 0.247235 0.003976 0.037927
v 0.247295 0.003993 0.037879
v 0.247361 0.004013 0.037840
v 0.247433 0.004035 0.037813
v 0.247433 -0.004229 0.037813
v 0.247361 -0.004206 0.037840
v 0.247295 -0.004186 0.037878
v 0.247235 -0.004169 0.037927
v 0.247182 -0.004156 0.037985
v 0.247139 -0.004147 0.038052
v 0.247107 -0.004143 0.038124
v 0.247088 -0.004143 0.038201
v 0.247117 -0.000097 0.038068
v 0.247446 -0.000097 0.037749
v 0.247373 -0.000097 0.037777
v 0.247305 -0.000097 0.037817
v 0.247242 -0.000097 0.037868
v 0.247189 -0.000097 0.037929
v 0.247147 -0.000097 0.037997
v 0.246098 -0.000097 0.043810
v 0.251140 -0.005498 0.037385
v 0.251023 -0.005462 0.037445
v 0.250917 -0.005432 0.037525
v 0.250842 -0.005414 0.037615
v 0.250784 -0.005403 0.037717
v 0.250757 -0.005402 0.037806
v 0.250745 -0.005406 0.037899
v 0.250528 -0.006054 0.045705
v 0.248218 -0.005028 0.043438
v 0.251868 -0.008163 0.037899
v 0.253523 -0.010811 0.037899
v 0.255691 -0.013199 0.037899
v 0.258303 -0.015186 0.037899
v 0.261234 -0.016660 0.037899
v 0.264333 -0.017559 0.037899
v 0.267438 -0.017883 0.037899
v 0.270408 -0.017681 0.037899
v 0.273303 -0.016987 0.037899
v 0.276170 -0.015751 0.037899
v 0.278859 -0.013968 0.037899
v 0.281217 -0.011687 0.037899
v 0.283116 -0.009011 0.037899
v 0.284473 -0.006084 0.037899
v 0.285262 -0.003063 0.037899
v 0.285511 -0.000097 0.037899
v 0.285262 0.002870 0.037899
v 0.284473 0.005891 0.037899
v 0.283116 0.008818 0.037899
v 0.281217 0.011494 0.037899
v 0.278859 0.013775 0.037899
v 0.276170 0.015558 0.037899
v 0.273303 0.016794 0.037899
v 0.270408 0.017488 0.037899
v 0.267438 0.017690 0.037899
v 0.264333 0.017366 0.037899
v 0.261234 0.016467 0.037899
v 0.258303 0.014993 0.037899
v 0.255691 0.013006 0.037899
v 0.253523 0.010618 0.037899
v 0.251868 0.007970 0.037899
v 0.250745 0.005213 0.037899
v 0.250528 0.005860 0.045705
v 0.251748 0.008619 0.045705
v 0.253497 0.011252 0.045705
v 0.255753 0.013610 0.045705
v 0.258440 0.015556 0.045705
v 0.261437 0.016981 0.045705
v 0.264588 0.017829 0.045705
v 0.267737 0.018101 0.045705
v 0.270743 0.017849 0.045705
v 0.273666 0.017103 0.045705
v 0.276552 0.015815 0.045705
v 0.279253 0.013982 0.045705
v 0.281617 0.011655 0.045705
v 0.283520 0.008937 0.045705
v 0.284879 0.005970 0.045705
v 0.285670 0.002910 0.045705
v 0.285920 -0.000097 0.045705
v 0.285670 -0.003103 0.045705
v 0.284879 -0.006163 0.045705
v 0.283520 -0.009130 0.045705
v 0.281617 -0.011848 0.045705
v 0.279253 -0.014175 0.045705
v 0.276552 -0.016009 0.045705
v 0.273666 -0.017296 0.045705
v 0.270743 -0.018042 0.045705
v 0.267737 -0.018294 0.045705
v 0.264588 -0.018022 0.045705
v 0.261437 -0.017174 0.045705
v 0.258440 -0.015749 0.045705
v 0.255753 -0.013803 0.045705
v 0.253497 -0.011445 0.045705
v 0.251748 -0.008813 0.045705
v 0.255553 -0.013350 0.041802
v 0.261934 -0.017133 0.041802
v 0.271166 -0.017757 0.041802
v 0.279620 -0.013595 0.041802
v 0.283690 -0.008391 0.041802
v 0.285701 -0.000835 0.041802
v 0.285032 0.004817 0.041802
v 0.284377 0.006715 0.041802
v 0.279620 0.013402 0.041802
v 0.274466 0.016585 0.041802
v 0.272633 0.017214 0.041802
v 0.267047 0.017884 0.041802
v 0.265084 0.017702 0.041802
v 0.259276 0.015791 0.041802
v 0.254394 0.011991 0.041802
v 0.257498 0.014709 0.041802
v 0.253121 0.010417 0.041802
v 0.252054 0.008749 0.041802
v 0.252455 -0.009618 0.041802
v 0.251352 -0.007563 0.041802
v 0.253861 -0.011568 0.041802
v 0.257498 -0.014902 0.041802
v 0.259646 -0.016175 0.041802
v 0.264294 -0.017760 0.041802
v 0.266657 -0.018058 0.041802
v 0.268961 -0.018047 0.041802
v 0.273367 -0.017181 0.041802
v 0.275553 -0.016296 0.041802
v 0.277660 -0.015097 0.041802
v 0.281372 -0.011820 0.041802
v 0.282634 -0.010167 0.041802
v 0.285136 -0.004627 0.041802
v 0.284526 -0.006531 0.041802
v 0.285524 -0.002717 0.041802
v 0.285681 0.001014 0.041802
v 0.285464 0.002904 0.041802
v 0.282397 0.010315 0.041802
v 0.283496 0.008561 0.041802
v 0.281097 0.011940 0.041802
v 0.277998 0.014674 0.041802
v 0.276267 0.015738 0.041802
v 0.268961 0.017854 0.041802
v 0.270802 0.017631 0.041802
v 0.263109 0.017295 0.041802
v 0.261160 0.016657 0.041802
v 0.255861 0.013433 0.041802
v 0.251198 0.007022 0.041802
v 0.251140 0.005305 0.037385
v 0.251023 0.005269 0.037445
v 0.250917 0.005239 0.037525
v 0.250842 0.005221 0.037615
v 0.250784 0.005210 0.037717
v 0.250757 0.005208 0.037806
v 0.254028 -0.011429 0.037801
v 0.254348 -0.011164 0.037356
v 0.262003 -0.016927 0.037801
v 0.262137 -0.016534 0.037356
v 0.271124 -0.017543 0.037801
v 0.271044 -0.017136 0.037356
v 0.279475 -0.013432 0.037801
v 0.279201 -0.013121 0.037356
v 0.283496 -0.008291 0.037801
v 0.283128 -0.008100 0.037356
v 0.285483 -0.000826 0.037801
v 0.285068 -0.000809 0.037356
v 0.285464 0.001000 0.037801
v 0.284175 0.006632 0.037801
v 0.283791 0.006475 0.037356
v 0.279477 0.013238 0.037801
v 0.279202 0.012926 0.037356
v 0.277874 0.014495 0.037801
v 0.274229 0.015998 0.037356
v 0.272573 0.017004 0.037801
v 0.272460 0.016605 0.037356
v 0.265116 0.017487 0.037801
v 0.267071 0.017251 0.037356
v 0.263165 0.017085 0.037801
v 0.259573 0.015232 0.037356
v 0.257622 0.014530 0.037801
v 0.257858 0.014188 0.037356
v 0.252243 0.008641 0.037801
v 0.253634 0.010047 0.037356
v 0.251397 0.006936 0.037801
v 0.251426 0.006923 0.037703
v 0.251471 0.006904 0.037608
v 0.251532 0.006877 0.037522
v 0.251607 0.006845 0.037449
v 0.251690 0.006809 0.037394
v 0.251779 0.006771 0.037356
v 0.252270 0.008626 0.037703
v 0.252313 0.008602 0.037608
v 0.252371 0.008569 0.037522
v 0.252441 0.008529 0.037449
v 0.252521 0.008484 0.037394
v 0.252605 0.008437 0.037356
v 0.254556 0.011845 0.037801
v 0.254578 0.011824 0.037703
v 0.254615 0.011791 0.037608
v 0.254664 0.011746 0.037522
v 0.254724 0.011692 0.037449
v 0.254792 0.011630 0.037394
v 0.254863 0.011566 0.037356
v 0.253556 0.010103 0.037394
v 0.253482 0.010157 0.037449
v 0.253416 0.010204 0.037522
v 0.253362 0.010243 0.037608
v 0.253322 0.010272 0.037703
v 0.253297 0.010290 0.037801
v 0.256004 0.013269 0.037801
v 0.256025 0.013246 0.037703
v 0.256057 0.013209 0.037608
v 0.256101 0.013159 0.037522
v 0.256154 0.013098 0.037449
v 0.256214 0.013030 0.037394
v 0.256278 0.012957 0.037356
v 0.259379 0.015599 0.037801
v 0.259393 0.015571 0.037703
v 0.259416 0.015528 0.037608
v 0.259447 0.015469 0.037522
v 0.259485 0.015398 0.037449
v 0.259528 0.015317 0.037394
v 0.257803 0.014268 0.037394
v 0.257751 0.014343 0.037449
v 0.257705 0.014409 0.037522
v 0.257667 0.014464 0.037608
v 0.257639 0.014504 0.037703
v 0.263173 0.017055 0.037703
v 0.263186 0.017007 0.037608
v 0.263203 0.016943 0.037522
v 0.263224 0.016865 0.037449
v 0.263247 0.016777 0.037394
v 0.263272 0.016683 0.037356
v 0.261391 0.016068 0.037356
v 0.261356 0.016157 0.037394
v 0.261322 0.016242 0.037449
v 0.261293 0.016318 0.037522
v 0.261269 0.016379 0.037608
v 0.261251 0.016425 0.037703
v 0.261239 0.016454 0.037801
v 0.265121 0.017456 0.037703
v 0.265128 0.017407 0.037608
v 0.265138 0.017342 0.037522
v 0.265150 0.017261 0.037449
v 0.265163 0.017171 0.037394
v 0.265177 0.017076 0.037356
v 0.268946 0.017637 0.037801
v 0.268944 0.017606 0.037703
v 0.268941 0.017557 0.037608
v 0.268936 0.017490 0.037522
v 0.268931 0.017409 0.037449
v 0.268925 0.017319 0.037394
v 0.268918 0.017222 0.037356
v 0.267067 0.017348 0.037394
v 0.267064 0.017439 0.037449
v 0.267061 0.017520 0.037522
v 0.267058 0.017586 0.037608
v 0.267056 0.017635 0.037703
v 0.267055 0.017666 0.037801
v 0.270765 0.017417 0.037801
v 0.270759 0.017386 0.037703
v 0.270751 0.017337 0.037608
v 0.270740 0.017272 0.037522
v 0.270726 0.017192 0.037449
v 0.270710 0.017102 0.037394
v 0.270694 0.017008 0.037356
v 0.274385 0.016383 0.037801
v 0.274373 0.016354 0.037703
v 0.274355 0.016309 0.037608
v 0.274330 0.016247 0.037522
v 0.274299 0.016172 0.037449
v 0.274265 0.016088 0.037394
v 0.272486 0.016698 0.037394
v 0.272511 0.016785 0.037449
v 0.272533 0.016863 0.037522
v 0.272551 0.016927 0.037608
v 0.272565 0.016974 0.037703
v 0.277856 0.014469 0.037703
v 0.277828 0.014429 0.037608
v 0.277790 0.014374 0.037522
v 0.277744 0.014308 0.037449
v 0.277692 0.014233 0.037394
v 0.277637 0.014154 0.037356
v 0.275967 0.015181 0.037356
v 0.276013 0.015266 0.037394
v 0.276056 0.015346 0.037449
v 0.276094 0.015417 0.037522
v 0.276126 0.015476 0.037608
v 0.276149 0.015519 0.037703
v 0.276164 0.015547 0.037801
v 0.279456 0.013215 0.037703
v 0.279424 0.013178 0.037608
v 0.279380 0.013128 0.037522
v 0.279326 0.013067 0.037449
v 0.279266 0.012999 0.037394
v 0.282220 0.010189 0.037801
v 0.282195 0.010171 0.037703
v 0.282155 0.010142 0.037608
v 0.282100 0.010104 0.037522
v 0.282034 0.010057 0.037449
v 0.281960 0.010004 0.037394
v 0.281882 0.009948 0.037356
v 0.280627 0.011516 0.037356
v 0.280699 0.011580 0.037394
v 0.280766 0.011641 0.037449
v 0.280827 0.011695 0.037522
v 0.280876 0.011740 0.037608
v 0.280913 0.011773 0.037703
v 0.280936 0.011794 0.037801
v 0.283305 0.008456 0.037801
v 0.283278 0.008441 0.037703
v 0.283235 0.008417 0.037608
v 0.283177 0.008385 0.037522
v 0.283106 0.008346 0.037449
v 0.283026 0.008302 0.037394
v 0.282942 0.008256 0.037356
v 0.284823 0.004756 0.037801
v 0.284793 0.004748 0.037703
v 0.284745 0.004734 0.037608
v 0.284681 0.004716 0.037522
v 0.284604 0.004694 0.037449
v 0.284516 0.004669 0.037394
v 0.284423 0.004643 0.037356
v 0.283880 0.006511 0.037394
v 0.283965 0.006546 0.037449
v 0.284039 0.006576 0.037522
v 0.284101 0.006601 0.037608
v 0.284147 0.006620 0.037703
v 0.285433 0.000998 0.037703
v 0.285384 0.000995 0.037608
v 0.285318 0.000991 0.037522
v 0.285237 0.000986 0.037449
v 0.285146 0.000980 0.037394
v 0.285050 0.000974 0.037356
v 0.284842 0.002784 0.037356
v 0.284937 0.002802 0.037394
v 0.285026 0.002819 0.037449
v 0.285106 0.002835 0.037522
v 0.285171 0.002848 0.037608
v 0.285219 0.002858 0.037703
v 0.285249 0.002866 0.037801
v 0.285452 -0.000825 0.037703
v 0.285403 -0.000823 0.037608
v 0.285336 -0.000820 0.037522
v 0.285255 -0.000817 0.037449
v 0.285164 -0.000813 0.037394
v 0.284925 -0.004573 0.037801
v 0.284895 -0.004565 0.037703
v 0.284847 -0.004553 0.037608
v 0.284783 -0.004536 0.037522
v 0.284705 -0.004516 0.037449
v 0.284617 -0.004493 0.037394
v 0.284523 -0.004468 0.037356
v 0.284898 -0.002625 0.037356
v 0.284993 -0.002639 0.037394
v 0.285083 -0.002652 0.037449
v 0.285163 -0.002664 0.037522
v 0.285229 -0.002674 0.037608
v 0.285278 -0.002681 0.037703
v 0.285308 -0.002686 0.037801
v 0.284322 -0.006454 0.037801
v 0.284293 -0.006443 0.037703
v 0.284247 -0.006425 0.037608
v 0.284185 -0.006402 0.037522
v 0.284109 -0.006373 0.037449
v 0.284024 -0.006340 0.037394
v 0.283934 -0.006306 0.037356
v 0.282453 -0.010046 0.037801
v 0.282427 -0.010028 0.037703
v 0.282386 -0.010001 0.037608
v 0.282331 -0.009963 0.037522
v 0.282264 -0.009918 0.037449
v 0.282189 -0.009867 0.037394
v 0.282109 -0.009813 0.037356
v 0.283213 -0.008144 0.037394
v 0.283294 -0.008186 0.037449
v 0.283366 -0.008224 0.037522
v 0.283425 -0.008254 0.037608
v 0.283469 -0.008277 0.037703
v 0.279455 -0.013409 0.037703
v 0.279422 -0.013372 0.037608
v 0.279378 -0.013322 0.037522
v 0.279325 -0.013261 0.037449
v 0.279265 -0.013193 0.037394
v 0.280892 -0.011408 0.037356
v 0.280965 -0.011471 0.037394
v 0.281034 -0.011530 0.037449
v 0.281095 -0.011583 0.037522
v 0.281146 -0.011626 0.037608
v 0.281183 -0.011658 0.037703
v 0.281207 -0.011678 0.037801
v 0.277538 -0.014916 0.037801
v 0.277521 -0.014890 0.037703
v 0.277494 -0.014849 0.037608
v 0.277457 -0.014794 0.037522
v 0.277413 -0.014726 0.037449
v 0.277362 -0.014650 0.037394
v 0.277309 -0.014570 0.037356
v 0.275457 -0.016101 0.037801
v 0.275444 -0.016073 0.037703
v 0.275422 -0.016029 0.037608
v 0.275394 -0.015969 0.037522
v 0.275358 -0.015896 0.037449
v 0.275319 -0.015814 0.037394
v 0.275277 -0.015727 0.037356
v 0.271118 -0.017513 0.037703
v 0.271108 -0.017465 0.037608
v 0.271096 -0.017399 0.037522
v 0.271080 -0.017320 0.037449
v 0.271063 -0.017231 0.037394
v 0.273168 -0.016581 0.037356
v 0.273198 -0.016672 0.037394
v 0.273227 -0.016758 0.037449
v 0.273253 -0.016835 0.037522
v 0.273274 -0.016898 0.037608
v 0.273289 -0.016945 0.037703
v 0.273299 -0.016975 0.037801
v 0.268946 -0.017830 0.037801
v 0.268943 -0.017799 0.037703
v 0.268940 -0.017750 0.037608
v 0.268935 -0.017683 0.037522
v 0.268930 -0.017603 0.037449
v 0.268924 -0.017512 0.037394
v 0.268917 -0.017416 0.037356
v 0.266669 -0.017841 0.037801
v 0.266671 -0.017810 0.037703
v 0.266674 -0.017761 0.037608
v 0.266678 -0.017694 0.037522
v 0.266683 -0.017613 0.037449
v 0.266688 -0.017522 0.037394
v 0.266694 -0.017426 0.037356
v 0.262013 -0.016897 0.037703
v 0.262029 -0.016851 0.037608
v 0.262051 -0.016788 0.037522
v 0.262077 -0.016711 0.037449
v 0.262106 -0.016625 0.037394
v 0.264414 -0.017139 0.037356
v 0.264396 -0.017233 0.037394
v 0.264378 -0.017323 0.037449
v 0.264363 -0.017402 0.037522
v 0.264350 -0.017467 0.037608
v 0.264341 -0.017516 0.037703
v 0.264335 -0.017546 0.037801
v 0.259743 -0.015980 0.037801
v 0.259757 -0.015952 0.037703
v 0.259779 -0.015908 0.037608
v 0.259809 -0.015849 0.037522
v 0.259845 -0.015777 0.037449
v 0.259886 -0.015695 0.037394
v 0.259929 -0.015609 0.037356
v 0.257621 -0.014723 0.037801
v 0.257639 -0.014697 0.037703
v 0.257667 -0.014657 0.037608
v 0.257705 -0.014602 0.037522
v 0.257751 -0.014535 0.037449
v 0.257803 -0.014460 0.037394
v 0.257857 -0.014381 0.037356
v 0.254052 -0.011409 0.037703
v 0.254090 -0.011378 0.037608
v 0.254141 -0.011336 0.037522
v 0.254204 -0.011284 0.037449
v 0.254274 -0.011226 0.037394
v 0.255981 -0.012883 0.037356
v 0.255916 -0.012954 0.037394
v 0.255854 -0.013022 0.037449
v 0.255799 -0.013081 0.037522
v 0.255754 -0.013130 0.037608
v 0.255721 -0.013167 0.037703
v 0.255700 -0.013189 0.037801
v 0.252640 -0.009502 0.037801
v 0.252666 -0.009486 0.037703
v 0.252708 -0.009460 0.037608
v 0.252764 -0.009425 0.037522
v 0.252833 -0.009382 0.037449
v 0.252910 -0.009334 0.037394
v 0.252992 -0.009283 0.037356
v 0.251550 -0.007472 0.037801
v 0.251578 -0.007460 0.037703
v 0.251623 -0.007439 0.037608
v 0.251683 -0.007412 0.037522
v 0.251757 -0.007378 0.037449
v 0.251840 -0.007340 0.037394
v 0.251928 -0.007300 0.037356
v 0.248218 0.004835 0.043438
v 0.257175 0.016857 0.055737
v 0.257175 0.018232 0.062431
v 0.257175 0.019691 0.069669
v 0.257175 0.021244 0.077503
v 0.259051 0.022072 0.077503
v 0.261051 0.022754 0.077503
v 0.263158 0.023266 0.077503
v 0.265353 0.023590 0.077503
v 0.267610 0.023708 0.077503
v 0.269899 0.023608 0.077503
v 0.272189 0.023285 0.077503
v 0.274448 0.022738 0.077503
v 0.276643 0.021973 0.077503
v 0.278743 0.021003 0.077503
v 0.280721 0.019846 0.077503
v 0.282553 0.018524 0.077503
v 0.284222 0.017062 0.077503
v 0.285716 0.015489 0.077503
v 0.287027 0.013832 0.077503
v 0.288154 0.012119 0.077503
v 0.289686 0.009032 0.077393
v 0.290479 0.006786 0.077333
v 0.291043 0.004488 0.077289
v 0.291375 0.002179 0.077263
v 0.291483 -0.000097 0.077254
v 0.291375 -0.002372 0.077263
v 0.291043 -0.004681 0.077289
v 0.290479 -0.006979 0.077333
v 0.289686 -0.009225 0.077393
v 0.288148 -0.012323 0.077503
v 0.287020 -0.014035 0.077503
v 0.285708 -0.015690 0.077503
v 0.284215 -0.017262 0.077503
v 0.282546 -0.018723 0.077503
v 0.280714 -0.020044 0.077503
v 0.278736 -0.021200 0.077503
v 0.276637 -0.022169 0.077503
v 0.274442 -0.022933 0.077503
v 0.272184 -0.023479 0.077503
v 0.269895 -0.023802 0.077503
v 0.267606 -0.023901 0.077503
v 0.265350 -0.023783 0.077503
v 0.263156 -0.023459 0.077503
v 0.261049 -0.022947 0.077503
v 0.259050 -0.022265 0.077503
v 0.257175 -0.021437 0.077503
v 0.257175 -0.019884 0.069669
v 0.257175 -0.018425 0.062431
v 0.257175 -0.017050 0.055737
v 0.258020 -0.020289 0.069554
v 0.261720 -0.018754 0.053655
v 0.271704 -0.019287 0.053655
v 0.280792 -0.014703 0.053655
v 0.285151 -0.009062 0.053655
v 0.287306 -0.000895 0.053655
v 0.285887 0.007265 0.053655
v 0.280792 0.014510 0.053655
v 0.275258 0.017996 0.053655
v 0.273285 0.018697 0.053655
v 0.265134 0.019331 0.053655
v 0.258832 0.017370 0.053655
v 0.257560 0.019869 0.069554
v 0.258196 0.018619 0.061604
v 0.259901 0.020897 0.069554
v 0.260390 0.019583 0.061604
v 0.260880 0.018270 0.053655
v 0.262319 0.021645 0.069554
v 0.262657 0.020284 0.061604
v 0.262995 0.018924 0.053655
v 0.264763 0.022110 0.069554
v 0.264949 0.020721 0.061604
v 0.267189 0.022300 0.069554
v 0.267222 0.020899 0.061604
v 0.267256 0.019497 0.053655
v 0.269553 0.022231 0.069554
v 0.269439 0.020834 0.061604
v 0.269324 0.019437 0.053655
v 0.271824 0.021928 0.069554
v 0.271568 0.020550 0.061604
v 0.271311 0.019172 0.053655
v 0.274080 0.021385 0.069554
v 0.273682 0.020041 0.061604
v 0.276336 0.020584 0.069554
v 0.275797 0.019290 0.061604
v 0.278549 0.019517 0.069554
v 0.277871 0.018290 0.061604
v 0.277194 0.017062 0.053655
v 0.280673 0.018184 0.069554
v 0.279862 0.017040 0.061604
v 0.279052 0.015897 0.053655
v 0.282661 0.016599 0.069554
v 0.281726 0.015554 0.061604
v 0.284470 0.014783 0.069554
v 0.283422 0.013852 0.061604
v 0.282374 0.012921 0.053655
v 0.286062 0.012770 0.069554
v 0.284915 0.011965 0.061604
v 0.283767 0.011160 0.053655
v 0.287407 0.010600 0.069554
v 0.286175 0.009931 0.061604
v 0.284944 0.009261 0.053655
v 0.288485 0.008318 0.069554
v 0.287186 0.007792 0.061604
v 0.289287 0.005973 0.069554
v 0.287938 0.005594 0.061604
v 0.286589 0.005214 0.053655
v 0.289817 0.003610 0.069554
v 0.288435 0.003376 0.061604
v 0.287052 0.003143 0.053655
v 0.290083 0.001276 0.069554
v 0.288684 0.001190 0.061604
v 0.287285 0.001104 0.053655
v 0.290107 -0.001009 0.069554
v 0.288706 -0.000952 0.061604
v 0.289890 -0.003334 0.069554
v 0.288503 -0.003131 0.061604
v 0.287116 -0.002929 0.053655
v 0.289415 -0.005694 0.069554
v 0.288058 -0.005344 0.061604
v 0.286700 -0.004993 0.053655
v 0.288668 -0.008046 0.069554
v 0.287357 -0.007549 0.061604
v 0.286047 -0.007051 0.053655
v 0.287644 -0.010344 0.069554
v 0.286398 -0.009703 0.061604
v 0.286352 -0.012540 0.069554
v 0.285186 -0.011762 0.061604
v 0.284020 -0.010983 0.053655
v 0.284807 -0.014588 0.069554
v 0.283738 -0.013682 0.061604
v 0.282669 -0.012775 0.053655
v 0.282661 -0.016792 0.069554
v 0.281726 -0.015747 0.061604
v 0.280257 -0.018665 0.069554
v 0.279473 -0.017503 0.061604
v 0.278689 -0.016341 0.053655
v 0.277672 -0.020169 0.069554
v 0.277049 -0.018913 0.061604
v 0.276427 -0.017657 0.053655
v 0.274985 -0.021290 0.069554
v 0.274530 -0.019964 0.061604
v 0.274076 -0.018638 0.053655
v 0.272274 -0.022032 0.069554
v 0.271989 -0.020660 0.061604
v 0.269553 -0.022424 0.069554
v 0.269439 -0.021027 0.061604
v 0.269324 -0.019630 0.053655
v 0.266708 -0.022476 0.069554
v 0.266771 -0.021076 0.061604
v 0.266835 -0.019676 0.053655
v 0.263785 -0.022151 0.069554
v 0.264032 -0.020771 0.061604
v 0.264278 -0.019391 0.053655
v 0.260862 -0.021423 0.069554
v 0.261291 -0.020089 0.061604
v 0.258627 -0.019026 0.061604
v 0.259234 -0.017762 0.053655
v 0.257175 -0.000097 0.063522
v 0.293186 -0.012323 0.077503
v 0.293189 -0.012322 0.077503
v 0.293192 -0.012321 0.077503
v 0.293196 -0.012320 0.077503
v 0.293199 -0.012318 0.077503
v 0.293206 -0.012310 0.077503
v 0.293213 -0.012302 0.077503
v 0.293248 -0.012236 0.077503
v 0.293432 -0.011617 0.077503
v 0.293677 -0.010445 0.077503
v 0.293946 -0.008776 0.077503
v 0.294199 -0.006667 0.077503
v 0.294508 -0.001297 0.077503
v 0.294457 0.002819 0.077503
v 0.294201 0.006461 0.077503
v 0.293948 0.008570 0.077503
v 0.293680 0.010239 0.077503
v 0.293434 0.011411 0.077503
v 0.293250 0.012031 0.077503
v 0.293215 0.012098 0.077503
v 0.293208 0.012107 0.077503
v 0.293201 0.012114 0.077503
v 0.293198 0.012116 0.077503
v 0.293194 0.012118 0.077503
v 0.293191 0.012119 0.077503
v 0.293188 0.012119 0.077503
v 0.275847 -0.000094 0.077503
v 0.293929 -0.006625 0.077325
v 0.294190 -0.002273 0.077262
v 0.294092 0.004266 0.077286
v 0.293699 0.008607 0.077380
v 0.293516 -0.010967 0.077472
v 0.293460 0.010775 0.077456
v 0.293515 0.010783 0.077472
v 0.293753 0.008614 0.077386
v 0.293982 0.006445 0.077330
v 0.294146 0.004269 0.077291
v 0.294244 0.002089 0.077267
v 0.294277 -0.000092 0.077259
v 0.294245 -0.002274 0.077267
v 0.294146 -0.004454 0.077291
v 0.293983 -0.006629 0.077330
v 0.293754 -0.008799 0.077385
v 0.293461 -0.010960 0.077456
v 0.293810 -0.008805 0.077401
v 0.294039 -0.006634 0.077346
v 0.294202 -0.004457 0.077307
v 0.294300 -0.002276 0.077283
v 0.294333 -0.000092 0.077275
v 0.294300 0.002091 0.077283
v 0.294202 0.004272 0.077307
v 0.294038 0.006449 0.077347
v 0.293809 0.008620 0.077402
v 0.293862 0.008626 0.077430
v 0.294091 0.006454 0.077374
v 0.294255 0.004275 0.077335
v 0.294354 0.002092 0.077311
v 0.294387 -0.000092 0.077303
v 0.294354 -0.002277 0.077311
v 0.294256 -0.004460 0.077335
v 0.294092 -0.006638 0.077374
v 0.293863 -0.008811 0.077429
v 0.293910 0.008630 0.077469
v 0.294139 0.006457 0.077413
v 0.294303 0.004277 0.077374
v 0.294402 0.002094 0.077350
v 0.294435 -0.000092 0.077342
v 0.294402 -0.002278 0.077350
v 0.294304 -0.004462 0.077373
v 0.294140 -0.006642 0.077413
v 0.293910 -0.008815 0.077468
v 0.294170 -0.006644 0.077449
v 0.294334 -0.004463 0.077409
v 0.294432 -0.002279 0.077385
v 0.294465 -0.000092 0.077377
v 0.294432 0.002094 0.077385
v 0.294334 0.004279 0.077409
v 0.294169 0.006459 0.077449
v 0.294194 0.006460 0.077488
v 0.294358 0.004280 0.077449
v 0.294456 0.002095 0.077425
v 0.294489 -0.000092 0.077417
v 0.294457 -0.002279 0.077425
v 0.294358 -0.004464 0.077448
v 0.294194 -0.006645 0.077488
v 0.294375 0.004280 0.077490
v 0.294474 0.002095 0.077466
v 0.294507 -0.000092 0.077458
v 0.294474 -0.002280 0.077466
v 0.294376 -0.004465 0.077490
v 0.267802 0.000332 0.036367
v 0.267883 0.000309 0.036367
v 0.267961 0.000269 0.036367
v 0.268031 0.000212 0.036367
v 0.268088 0.000142 0.036367
v 0.268128 0.000064 0.036367
v 0.268152 -0.000017 0.036367
v 0.268159 -0.000097 0.036367
v 0.268152 -0.000176 0.036367
v 0.268128 -0.000257 0.036367
v 0.268088 -0.000335 0.036367
v 0.268031 -0.000405 0.036367
v 0.267961 -0.000462 0.036367
v 0.267883 -0.000502 0.036367
v 0.267802 -0.000525 0.036367
v 0.267723 -0.000097 0.036367
v 0.267832 0.000493 0.036817
v 0.267943 0.000461 0.036817
v 0.268051 0.000406 0.036817
v 0.268147 0.000328 0.036817
v 0.268225 0.000232 0.036817
v 0.268281 0.000124 0.036817
v 0.268313 0.000013 0.036817
v 0.268323 -0.000097 0.036817
v 0.268313 -0.000206 0.036817
v 0.268281 -0.000317 0.036817
v 0.268225 -0.000425 0.036817
v 0.268147 -0.000521 0.036817
v 0.268051 -0.000599 0.036817
v 0.267943 -0.000654 0.036817
v 0.267832 -0.000687 0.036817
v 0.267886 -0.000588 0.036592
v 0.267803 -0.000608 0.036592
v 0.267967 -0.000553 0.036592
v 0.268043 -0.000504 0.036592
v 0.268110 -0.000441 0.036592
v 0.268164 -0.000367 0.036592
v 0.268204 -0.000287 0.036592
v 0.268229 -0.000205 0.036592
v 0.268241 -0.000097 0.036592
v 0.268229 0.000012 0.036592
v 0.268193 0.000121 0.036592
v 0.268130 0.000224 0.036592
v 0.268043 0.000310 0.036592
v 0.267941 0.000374 0.036592
v 0.267831 0.000410 0.036592
v 0.265645 0.000313 0.036817
v 0.265767 0.000714 0.036817
v 0.265965 0.001083 0.036817
v 0.266226 0.001401 0.036817
v 0.266543 0.001662 0.036817
v 0.266912 0.001859 0.036817
v 0.267314 0.001981 0.036817
v 0.267723 0.002021 0.036817
v 0.268121 0.001983 0.036817
v 0.268513 0.001868 0.036817
v 0.268887 0.001672 0.036817
v 0.269220 0.001400 0.036817
v 0.269492 0.001067 0.036817
v 0.269687 0.000693 0.036817
v 0.269803 0.000302 0.036817
v 0.268134 0.002124 0.036758
v 0.268554 0.002003 0.036758
v 0.268959 0.001794 0.036758
v 0.269320 0.001501 0.036758
v 0.269613 0.001139 0.036758
v 0.269823 0.000735 0.036758
v 0.269944 0.000314 0.036758
v 0.265608 0.000606 0.036783
v 0.265641 0.000595 0.036802
v 0.265677 0.000583 0.036813
v 0.265972 0.001282 0.036783
v 0.265999 0.001261 0.036802
v 0.266029 0.001237 0.036813
v 0.266558 0.001804 0.036783
v 0.266576 0.001774 0.036802
v 0.266596 0.001742 0.036813
v 0.267258 0.002083 0.036783
v 0.267265 0.002049 0.036802
v 0.267273 0.002012 0.036813
v 0.267723 0.002132 0.036783
v 0.267723 0.002097 0.036802
v 0.267723 0.002059 0.036813
v 0.268187 0.002083 0.036783
v 0.268180 0.002049 0.036802
v 0.268172 0.002012 0.036813
v 0.268660 0.001925 0.036783
v 0.268645 0.001894 0.036802
v 0.268629 0.001859 0.036813
v 0.269102 0.001654 0.036783
v 0.269080 0.001627 0.036802
v 0.269056 0.001597 0.036813
v 0.269473 0.001282 0.036783
v 0.269446 0.001261 0.036802
v 0.269416 0.001237 0.036813
v 0.269745 0.000841 0.036783
v 0.269713 0.000826 0.036802
v 0.269679 0.000810 0.036813
v 0.269902 0.000368 0.036783
v 0.269868 0.000361 0.036802
v 0.269831 0.000353 0.036813
v 0.268207 0.002522 0.036354
v 0.268703 0.002380 0.036354
v 0.269180 0.002133 0.036354
v 0.269606 0.001787 0.036354
v 0.269952 0.001361 0.036354
v 0.270199 0.000884 0.036354
v 0.270341 0.000388 0.036354
v 0.269245 0.001837 0.036556
v 0.268498 0.002239 0.036556
v 0.269821 0.001189 0.036556
v 0.270129 0.000417 0.036556
v 0.270184 -0.000097 0.036556
v 0.270129 -0.000610 0.036556
v 0.269955 -0.001131 0.036556
v 0.269656 -0.001619 0.036556
v 0.269245 -0.002030 0.036556
v 0.268757 -0.002329 0.036556
v 0.268236 -0.002503 0.036556
v 0.265095 0.000776 0.036298
v 0.265132 0.000764 0.036310
v 0.265166 0.000752 0.036328
v 0.265547 0.001617 0.036298
v 0.265578 0.001593 0.036310
v 0.265606 0.001571 0.036328
v 0.266276 0.002264 0.036298
v 0.266296 0.002231 0.036310
v 0.266315 0.002201 0.036328
v 0.267145 0.002612 0.036298
v 0.267153 0.002573 0.036310
v 0.267161 0.002538 0.036328
v 0.267723 0.002673 0.036298
v 0.267723 0.002633 0.036310
v 0.267723 0.002598 0.036328
v 0.268300 0.002612 0.036298
v 0.268292 0.002573 0.036310
v 0.268284 0.002538 0.036328
v 0.268887 0.002416 0.036298
v 0.268871 0.002380 0.036310
v 0.268856 0.002348 0.036328
v 0.269436 0.002079 0.036298
v 0.269412 0.002048 0.036310
v 0.269390 0.002020 0.036328
v 0.269898 0.001617 0.036298
v 0.269867 0.001593 0.036310
v 0.269839 0.001571 0.036328
v 0.270235 0.001068 0.036298
v 0.270200 0.001051 0.036310
v 0.270167 0.001036 0.036328
v 0.270431 0.000481 0.036298
v 0.270393 0.000473 0.036310
v 0.270357 0.000465 0.036328
f 270 236 295
f 295 236 237
f 295 237 294
f 294 237 288
f 294 288 293
f 293 288 296
f 293 296 292
f 292 296 297
f 292 297 291
f 291 297 298
f 291 298 290
f 290 298 299
f 290 299 289
f 289 299 300
f 289 300 250
f 250 300 249
f 249 300 248
f 248 300 299
f 248 299 247
f 247 299 246
f 246 299 298
f 246 298 245
f 245 298 244
f 244 298 297
f 244 297 243
f 243 297 242
f 242 297 241
f 241 297 296
f 241 296 240
f 240 296 288
f 240 288 239
f 239 288 238
f 238 288 237
f 250 251 289
f 289 251 301
f 289 301 302
f 302 301 308
f 302 308 307
f 307 308 286
f 307 286 32
f 32 286 312
f 32 312 33
f 33 312 34
f 34 312 35
f 35 312 36
f 36 312 37
f 37 312 313
f 37 313 38
f 38 313 39
f 39 313 304
f 39 304 40
f 40 304 1
f 1 304 285
f 285 304 284
f 284 304 283
f 283 304 282
f 282 304 293
f 282 293 292
f 251 252 301
f 301 252 253
f 301 253 309
f 309 253 310
f 309 310 311
f 311 310 316
f 311 316 317
f 317 316 257
f 317 257 321
f 321 257 258
f 321 258 259
f 253 254 310
f 310 254 316
f 254 255 316
f 316 255 256
f 316 256 257
f 321 259 322
f 322 259 260
f 322 260 261
f 322 261 323
f 323 261 262
f 323 262 263
f 323 263 324
f 324 263 264
f 324 264 325
f 325 264 265
f 325 265 266
f 325 266 287
f 287 266 267
f 287 267 314
f 314 267 315
f 314 315 305
f 305 315 306
f 305 306 294
f 294 306 295
f 267 268 315
f 315 268 269
f 315 269 306
f 306 269 270
f 306 270 295
f 26 25 303
f 303 25 271
f 303 271 272
f 272 273 303
f 303 273 291
f 303 291 290
f 273 274 291
f 291 274 275
f 291 275 276
f 276 277 291
f 291 277 292
f 277 278 292
f 292 278 279
f 292 279 280
f 280 281 292
f 292 281 282
f 32 31 307
f 307 31 30
f 307 30 29
f 29 28 307
f 307 28 27
f 307 27 303
f 303 27 26
f 308 301 309
f 303 290 302
f 302 290 289
f 305 294 293
f 307 303 302
f 314 305 304
f 304 305 293
f 286 308 311
f 311 308 309
f 311 317 286
f 286 317 318
f 286 318 312
f 312 318 319
f 312 319 313
f 313 319 320
f 313 320 314
f 314 320 287
f 313 314 304
f 321 322 317
f 317 322 318
f 322 323 318
f 318 323 319
f 325 287 320
f 323 324 319
f 319 324 320
f 324 325 320
f 341 224 349
f 349 224 223
f 349 223 326
f 326 341 349
