v -0.315263 -0.095183 0.359264
v -0.315751 -0.095293 0.359264
v -0.315773 -0.095195 0.358172
v -0.315844 -0.094882 0.357055
v -0.315899 -0.094639 0.356508
v -0.315967 -0.094339 0.355981
v -0.316047 -0.093984 0.355482
v -0.316139 -0.093579 0.355021
v -0.316240 -0.093130 0.354606
v -0.316350 -0.092643 0.354242
v -0.316467 -0.092129 0.353934
v -0.316588 -0.091595 0.353685
v -0.316834 -0.090506 0.353364
v -0.317075 -0.089441 0.353264
v -0.317316 -0.088376 0.353364
v -0.317562 -0.087287 0.353685
v -0.317683 -0.086753 0.353934
v -0.317800 -0.086239 0.354242
v -0.317910 -0.085753 0.354606
v -0.318011 -0.085303 0.355021
v -0.318103 -0.084898 0.355482
v -0.318183 -0.084543 0.355981
v -0.318251 -0.084243 0.356508
v -0.318306 -0.084000 0.357055
v -0.318377 -0.083687 0.358172
v -0.318399 -0.083589 0.359264
v -0.317912 -0.083479 0.359264
v -0.317889 -0.083576 0.358172
v -0.317819 -0.083890 0.357055
v -0.317764 -0.084132 0.356508
v -0.317696 -0.084433 0.355981
v -0.317615 -0.084787 0.355482
v -0.317524 -0.085193 0.355021
v -0.317422 -0.085642 0.354606
v -0.317312 -0.086128 0.354242
v -0.317196 -0.086643 0.353934
v -0.317075 -0.087177 0.353685
v -0.316828 -0.088266 0.353364
v -0.316587 -0.089331 0.353264
v -0.316346 -0.090396 0.353364
v -0.316100 -0.091485 0.353685
v -0.315979 -0.092018 0.353934
v -0.315863 -0.092533 0.354242
v -0.315753 -0.093019 0.354606
v -0.315651 -0.093469 0.355021
v -0.315559 -0.093874 0.355482
v -0.315479 -0.094229 0.355981
v -0.315411 -0.094529 0.356508
v -0.315356 -0.094772 0.357055
v -0.315285 -0.095085 0.358172
v -0.316414 -0.091230 0.353570
v -0.315574 -0.094940 0.357373
v -0.315514 -0.095207 0.358647
v -0.315536 -0.095109 0.358013
v -0.315630 -0.094695 0.356741
v -0.315702 -0.094375 0.356129
v -0.315791 -0.093983 0.355551
v -0.315895 -0.093524 0.355021
v -0.316012 -0.093007 0.354551
v -0.316139 -0.092444 0.354148
v -0.316274 -0.091847 0.353820
v -0.316555 -0.090606 0.353396
v -0.316695 -0.089988 0.353296
v -0.316831 -0.089386 0.353264
v -0.316967 -0.088784 0.353296
v -0.317107 -0.088166 0.353396
v -0.317319 -0.087232 0.353685
v -0.317523 -0.086328 0.354148
v -0.317711 -0.085500 0.354778
v -0.317871 -0.084789 0.355551
v -0.317999 -0.084227 0.356431
v -0.318088 -0.083832 0.357373
v -0.318139 -0.083605 0.358331
v -0.316192 -0.093342 0.348764
v -0.315640 -0.095781 0.348764
v -0.315480 -0.096491 0.348831
v -0.315316 -0.097217 0.349045
v -0.315157 -0.097916 0.349416
v -0.315016 -0.098539 0.349936
v -0.314902 -0.099046 0.350575
v -0.314820 -0.099408 0.351292
v -0.314772 -0.099617 0.352036
v -0.314758 -0.099682 0.352764
v -0.314758 -0.099682 0.365764
v -0.314772 -0.099617 0.366492
v -0.314820 -0.099408 0.367236
v -0.314902 -0.099046 0.367953
v -0.315016 -0.098539 0.368592
v -0.315157 -0.097916 0.369112
v -0.315316 -0.097217 0.369483
v -0.315480 -0.096491 0.369697
v -0.315640 -0.095781 0.369764
v -0.316192 -0.093342 0.369764
v -0.316192 -0.093342 0.365608
v -0.316028 -0.094069 0.365072
v -0.315876 -0.094742 0.364432
v -0.315740 -0.095340 0.363699
v -0.315626 -0.095846 0.362887
v -0.315535 -0.096246 0.362015
v -0.315470 -0.096532 0.361105
v -0.315432 -0.096701 0.360181
v -0.315420 -0.096756 0.359264
v -0.315432 -0.096701 0.358347
v -0.315470 -0.096532 0.357423
v -0.315535 -0.096246 0.356513
v -0.315626 -0.095846 0.355641
v -0.315740 -0.095340 0.354829
v -0.315876 -0.094742 0.354096
v -0.316028 -0.094069 0.353456
v -0.316192 -0.093342 0.352920
v -0.311344 -0.098910 0.352764
v -0.311344 -0.098910 0.365764
v -0.313051 -0.099296 0.359264
v -0.312227 -0.095008 0.369764
v -0.315096 -0.082329 0.369764
v -0.318510 -0.083101 0.369764
v -0.317958 -0.085540 0.369764
v -0.317470 -0.085429 0.369764
v -0.315705 -0.093232 0.369764
v -0.315368 -0.089055 0.369764
v -0.319392 -0.079200 0.352764
v -0.319392 -0.079200 0.365764
v -0.315979 -0.078427 0.365764
v -0.315979 -0.078427 0.352764
v -0.317685 -0.078814 0.359264
v -0.317958 -0.085540 0.348764
v -0.318510 -0.083101 0.348764
v -0.315096 -0.082329 0.348764
v -0.312227 -0.095008 0.348764
v -0.315705 -0.093232 0.348764
v -0.317470 -0.085429 0.348764
v -0.315368 -0.089055 0.348764
v -0.318670 -0.082391 0.369697
v -0.318834 -0.081665 0.369483
v -0.318993 -0.080966 0.369112
v -0.319134 -0.080343 0.368592
v -0.319248 -0.079836 0.367953
v -0.319330 -0.079474 0.367236
v -0.319378 -0.079265 0.366492
v -0.319378 -0.079265 0.352036
v -0.319330 -0.079474 0.351292
v -0.319248 -0.079836 0.350575
v -0.319134 -0.080343 0.349936
v -0.318993 -0.080966 0.349416
v -0.318834 -0.081665 0.349045
v -0.318670 -0.082391 0.348831
v -0.317958 -0.085540 0.352920
v -0.318122 -0.084813 0.353456
v -0.318274 -0.084140 0.354096
v -0.318410 -0.083542 0.354829
v -0.318524 -0.083036 0.355641
v -0.318615 -0.082636 0.356513
v -0.318680 -0.082350 0.357423
v -0.318718 -0.082181 0.358347
v -0.318730 -0.082126 0.359264
v -0.318718 -0.082181 0.360181
v -0.318680 -0.082350 0.361105
v -0.318615 -0.082636 0.362015
v -0.318524 -0.083036 0.362887
v -0.318410 -0.083542 0.363699
v -0.318274 -0.084140 0.364432
v -0.318122 -0.084813 0.365072
v -0.317958 -0.085540 0.365608
v -0.317470 -0.085429 0.365608
v -0.317714 -0.085484 0.367686
v -0.315705 -0.093232 0.365608
v -0.315948 -0.093287 0.367686
v -0.315540 -0.093959 0.365072
v -0.315388 -0.094632 0.364432
v -0.315253 -0.095230 0.363699
v -0.315138 -0.095736 0.362887
v -0.315047 -0.096136 0.362015
v -0.314983 -0.096422 0.361105
v -0.314945 -0.096591 0.360181
v -0.314932 -0.096646 0.359264
v -0.314945 -0.096591 0.358347
v -0.314983 -0.096422 0.357423
v -0.315047 -0.096136 0.356513
v -0.315138 -0.095736 0.355641
v -0.315253 -0.095230 0.354829
v -0.315388 -0.094632 0.354096
v -0.315540 -0.093959 0.353456
v -0.315705 -0.093232 0.352920
v -0.315674 -0.094501 0.353903
v -0.315807 -0.093913 0.353373
v -0.315552 -0.095039 0.354504
v -0.315445 -0.095514 0.355168
v -0.315353 -0.095917 0.355885
v -0.315280 -0.096239 0.356641
v -0.315227 -0.096477 0.357423
v -0.315192 -0.096629 0.358215
v -0.315176 -0.096701 0.359264
v -0.315192 -0.096629 0.360313
v -0.315242 -0.096407 0.361367
v -0.315327 -0.096033 0.362394
v -0.315445 -0.095514 0.363360
v -0.315591 -0.094866 0.364232
v -0.315761 -0.094114 0.364987
v -0.315948 -0.093287 0.350842
v -0.317470 -0.085429 0.352920
v -0.317714 -0.085484 0.350842
v -0.317635 -0.084702 0.353456
v -0.317787 -0.084030 0.354096
v -0.317922 -0.083432 0.354829
v -0.318037 -0.082926 0.355641
v -0.318127 -0.082525 0.356513
v -0.318192 -0.082239 0.357423
v -0.318230 -0.082070 0.358347
v -0.318243 -0.082016 0.359264
v -0.318230 -0.082070 0.360181
v -0.318192 -0.082239 0.361105
v -0.318127 -0.082525 0.362015
v -0.318037 -0.082926 0.362887
v -0.317922 -0.083432 0.363699
v -0.317787 -0.084030 0.364432
v -0.317635 -0.084702 0.365072
v -0.317989 -0.084270 0.364625
v -0.317856 -0.084859 0.365155
v -0.318110 -0.083733 0.364024
v -0.318218 -0.083258 0.363360
v -0.318309 -0.082855 0.362643
v -0.318382 -0.082533 0.361887
v -0.318436 -0.082295 0.361105
v -0.318470 -0.082143 0.360313
v -0.318486 -0.082071 0.359264
v -0.318470 -0.082143 0.358215
v -0.318420 -0.082364 0.357161
v -0.318335 -0.082738 0.356133
v -0.318218 -0.083258 0.355168
v -0.318071 -0.083906 0.354296
v -0.317901 -0.084658 0.353541
v -0.317889 -0.083576 0.360356
v -0.317819 -0.083890 0.361473
v -0.317764 -0.084132 0.362020
v -0.317696 -0.084433 0.362547
v -0.317615 -0.084787 0.363046
v -0.317524 -0.085193 0.363507
v -0.317422 -0.085642 0.363922
v -0.317312 -0.086128 0.364286
v -0.317196 -0.086643 0.364594
v -0.317075 -0.087177 0.364843
v -0.316828 -0.088266 0.365164
v -0.316587 -0.089331 0.365264
v -0.316346 -0.090396 0.365164
v -0.316100 -0.091485 0.364843
v -0.315979 -0.092018 0.364594
v -0.315863 -0.092533 0.364286
v -0.315753 -0.093019 0.363922
v -0.315651 -0.093469 0.363507
v -0.315559 -0.093874 0.363046
v -0.315479 -0.094229 0.362547
v -0.315411 -0.094529 0.362020
v -0.315356 -0.094772 0.361473
v -0.315285 -0.095085 0.360356
v -0.318377 -0.083687 0.360356
v -0.318306 -0.084000 0.361473
v -0.318251 -0.084243 0.362020
v -0.318183 -0.084543 0.362547
v -0.318103 -0.084898 0.363046
v -0.318011 -0.085303 0.363507
v -0.317910 -0.085753 0.363922
v -0.317800 -0.086239 0.364286
v -0.317683 -0.086753 0.364594
v -0.317562 -0.087287 0.364843
v -0.317316 -0.088376 0.365164
v -0.317075 -0.089441 0.365264
v -0.316834 -0.090506 0.365164
v -0.316588 -0.091595 0.364843
v -0.316467 -0.092129 0.364594
v -0.316350 -0.092643 0.364286
v -0.316240 -0.093130 0.363922
v -0.316139 -0.093579 0.363507
v -0.316047 -0.093984 0.363046
v -0.315967 -0.094339 0.362547
v -0.315899 -0.094639 0.362020
v -0.315844 -0.094882 0.361473
v -0.315773 -0.095195 0.360356
v -0.317248 -0.087542 0.364958
v -0.318088 -0.083832 0.361155
v -0.315574 -0.094940 0.361155
v -0.315523 -0.095167 0.360197
v -0.315664 -0.094545 0.362097
v -0.315791 -0.093983 0.362977
v -0.315952 -0.093272 0.363750
v -0.316139 -0.092444 0.364380
v -0.316344 -0.091540 0.364843
v -0.316555 -0.090606 0.365132
v -0.316695 -0.089988 0.365232
v -0.316831 -0.089386 0.365264
v -0.316967 -0.088784 0.365232
v -0.317107 -0.088166 0.365132
v -0.317388 -0.086925 0.364708
v -0.317523 -0.086328 0.364380
v -0.317651 -0.085765 0.363977
v -0.317768 -0.085248 0.363507
v -0.317871 -0.084789 0.362977
v -0.317960 -0.084396 0.362399
v -0.318033 -0.084076 0.361787
v -0.318148 -0.083565 0.359881
v -0.318126 -0.083662 0.360515
v -0.317075 -0.089441 0.359264
v -0.315256 -0.081619 0.369697
v -0.315421 -0.080893 0.369483
v -0.315579 -0.080194 0.369112
v -0.315720 -0.079570 0.368592
v -0.315835 -0.079063 0.367953
v -0.315917 -0.078701 0.367236
v -0.315964 -0.078493 0.366492
v -0.317671 -0.078879 0.366492
v -0.317624 -0.079088 0.367236
v -0.317542 -0.079450 0.367953
v -0.317427 -0.079956 0.368592
v -0.317286 -0.080580 0.369112
v -0.317128 -0.081279 0.369483
v -0.316963 -0.082005 0.369697
v -0.315964 -0.078493 0.352036
v -0.315917 -0.078701 0.351292
v -0.315835 -0.079063 0.350575
v -0.315720 -0.079570 0.349936
v -0.315579 -0.080194 0.349416
v -0.315421 -0.080893 0.349045
v -0.315256 -0.081619 0.348831
v -0.316963 -0.082005 0.348831
v -0.317128 -0.081279 0.349045
v -0.317286 -0.080580 0.349416
v -0.317427 -0.079956 0.349936
v -0.317542 -0.079450 0.350575
v -0.317624 -0.079088 0.351292
v -0.317671 -0.078879 0.352036
v -0.312066 -0.095718 0.348831
v -0.311902 -0.096444 0.349045
v -0.311744 -0.097143 0.349416
v -0.311603 -0.097767 0.349936
v -0.311488 -0.098274 0.350575
v -0.311406 -0.098636 0.351292
v -0.311359 -0.098845 0.352036
v -0.313065 -0.099231 0.352036
v -0.313113 -0.099022 0.351292
v -0.313195 -0.098660 0.350575
v -0.313309 -0.098153 0.349936
v -0.313451 -0.097529 0.349416
v -0.313609 -0.096831 0.349045
v -0.313773 -0.096104 0.348831
v -0.311359 -0.098845 0.366492
v -0.311406 -0.098636 0.367236
v -0.311488 -0.098274 0.367953
v -0.311603 -0.097767 0.368592
v -0.311744 -0.097143 0.369112
v -0.311902 -0.096444 0.369483
v -0.312066 -0.095718 0.369697
v -0.313773 -0.096104 0.369697
v -0.313609 -0.096831 0.369483
v -0.313451 -0.097529 0.369112
v -0.313309 -0.098153 0.368592
v -0.313195 -0.098660 0.367953
v -0.313113 -0.099022 0.367236
v -0.313065 -0.099231 0.366492
v -0.325010 -0.035980 0.359264
v -0.325509 -0.036017 0.359264
v -0.325516 -0.035917 0.358172
v -0.325540 -0.035597 0.357055
v -0.325559 -0.035349 0.356508
v -0.325581 -0.035042 0.355981
v -0.325608 -0.034679 0.355482
v -0.325639 -0.034265 0.355021
v -0.325673 -0.033805 0.354606
v -0.325710 -0.033308 0.354242
v -0.325749 -0.032782 0.353934
v -0.325790 -0.032236 0.353685
v -0.325873 -0.031122 0.353364
v -0.325953 -0.030034 0.353264
v -0.326034 -0.028945 0.353364
v -0.326117 -0.027831 0.353685
v -0.326158 -0.027285 0.353934
v -0.326197 -0.026759 0.354242
v -0.326234 -0.026262 0.354606
v -0.326268 -0.025803 0.355021
v -0.326299 -0.025388 0.355482
v -0.326326 -0.025025 0.355981
v -0.326348 -0.024719 0.356508
v -0.326367 -0.024470 0.357055
v -0.326391 -0.024150 0.358172
v -0.326398 -0.024050 0.359264
v -0.325900 -0.024013 0.359264
v -0.325892 -0.024113 0.358172
v -0.325868 -0.024433 0.357055
v -0.325850 -0.024681 0.356508
v -0.325827 -0.024988 0.355981
v -0.325800 -0.025351 0.355482
v -0.325769 -0.025766 0.355021
v -0.325735 -0.026225 0.354606
v -0.325698 -0.026722 0.354242
v -0.325659 -0.027248 0.353934
v -0.325619 -0.027794 0.353685
v -0.325536 -0.028908 0.353364
v -0.325455 -0.029997 0.353264
v -0.325374 -0.031085 0.353364
v -0.325291 -0.032199 0.353685
v -0.325251 -0.032745 0.353934
v -0.325211 -0.033271 0.354242
v -0.325175 -0.033768 0.354606
v -0.325140 -0.034228 0.355021
v -0.325110 -0.034642 0.355482
v -0.325083 -0.035005 0.355981
v -0.325060 -0.035312 0.356508
v -0.325041 -0.035560 0.357055
v -0.325018 -0.035880 0.358172
v -0.325564 -0.031900 0.353570
v -0.325282 -0.035694 0.357373
v -0.325262 -0.035967 0.358647
v -0.325269 -0.035867 0.358013
v -0.325301 -0.035444 0.356741
v -0.325325 -0.035117 0.356129
v -0.325355 -0.034715 0.355551
v -0.325390 -0.034246 0.355021
v -0.325429 -0.033718 0.354551
v -0.325472 -0.033142 0.354148
v -0.325517 -0.032531 0.353820
v -0.325611 -0.031263 0.353396
v -0.325658 -0.030631 0.353296
v -0.325704 -0.030015 0.353264
v -0.325750 -0.029399 0.353296
v -0.325797 -0.028767 0.353396
v -0.325868 -0.027813 0.353685
v -0.325937 -0.026889 0.354148
v -0.325999 -0.026042 0.354778
v -0.326053 -0.025315 0.355551
v -0.326096 -0.024740 0.356431
v -0.326126 -0.024336 0.357373
v -0.326143 -0.024104 0.358331
v -0.325657 -0.034023 0.348764
v -0.325472 -0.036516 0.348764
v -0.325418 -0.037242 0.348831
v -0.325363 -0.037984 0.349045
v -0.325310 -0.038699 0.349416
v -0.325262 -0.039336 0.349936
v -0.325224 -0.039854 0.350575
v -0.325196 -0.040225 0.351292
v -0.325180 -0.040438 0.352036
v -0.325175 -0.040505 0.352764
v -0.325175 -0.040505 0.365764
v -0.325180 -0.040438 0.366492
v -0.325196 -0.040225 0.367236
v -0.325224 -0.039854 0.367953
v -0.325262 -0.039336 0.368592
v -0.325310 -0.038699 0.369112
v -0.325363 -0.037984 0.369483
v -0.325418 -0.037242 0.369697
v -0.325472 -0.036516 0.369764
v -0.325657 -0.034023 0.369764
v -0.325657 -0.034023 0.365608
v -0.325602 -0.034766 0.365072
v -0.325551 -0.035454 0.364432
v -0.325505 -0.036065 0.363699
v -0.325467 -0.036582 0.362887
v -0.325436 -0.036992 0.362015
v -0.325415 -0.037284 0.361105
v -0.325402 -0.037457 0.360181
v -0.325398 -0.037513 0.359264
v -0.325402 -0.037457 0.358347
v -0.325415 -0.037284 0.357423
v -0.325436 -0.036992 0.356513
v -0.325467 -0.036582 0.355641
v -0.325505 -0.036065 0.354829
v -0.325551 -0.035454 0.354096
v -0.325602 -0.034766 0.353456
v -0.325657 -0.034023 0.352920
v -0.321685 -0.040245 0.352764
v -0.321685 -0.040245 0.365764
v -0.323430 -0.040375 0.359264
v -0.321981 -0.036256 0.369764
v -0.322945 -0.023292 0.369764
v -0.326435 -0.023551 0.369764
v -0.326250 -0.026045 0.369764
v -0.325751 -0.026008 0.369764
v -0.325158 -0.033986 0.369764
v -0.324208 -0.029904 0.369764
v -0.326732 -0.019562 0.352764
v -0.326732 -0.019562 0.365764
v -0.323241 -0.019303 0.365764
v -0.323241 -0.019303 0.352764
v -0.324986 -0.019433 0.359264
v -0.326250 -0.026045 0.348764
v -0.326435 -0.023551 0.348764
v -0.322945 -0.023292 0.348764
v -0.321981 -0.036256 0.348764
v -0.325158 -0.033986 0.348764
v -0.325751 -0.026008 0.348764
v -0.324208 -0.029904 0.348764
v -0.326489 -0.022826 0.369697
v -0.326544 -0.022083 0.369483
v -0.326597 -0.021369 0.369112
v -0.326645 -0.020731 0.368592
v -0.326683 -0.020213 0.367953
v -0.326711 -0.019843 0.367236
v -0.326727 -0.019629 0.366492
v -0.326727 -0.019629 0.352036
v -0.326711 -0.019843 0.351292
v -0.326683 -0.020213 0.350575
v -0.326645 -0.020731 0.349936
v -0.326597 -0.021369 0.349416
v -0.326544 -0.022083 0.349045
v -0.326489 -0.022826 0.348831
v -0.326250 -0.026045 0.352920
v -0.326305 -0.025301 0.353456
v -0.326356 -0.024614 0.354096
v -0.326402 -0.024002 0.354829
v -0.326440 -0.023485 0.355641
v -0.326471 -0.023075 0.356513
v -0.326492 -0.022783 0.357423
v -0.326505 -0.022610 0.358347
v -0.326509 -0.022554 0.359264
v -0.326505 -0.022610 0.360181
v -0.326492 -0.022783 0.361105
v -0.326471 -0.023075 0.362015
v -0.326440 -0.023485 0.362887
v -0.326402 -0.024002 0.363699
v -0.326356 -0.024614 0.364432
v -0.326305 -0.025301 0.365072
v -0.326250 -0.026045 0.365608
v -0.325751 -0.026008 0.365608
v -0.326001 -0.026026 0.367686
v -0.325158 -0.033986 0.365608
v -0.325408 -0.034004 0.367686
v -0.325103 -0.034729 0.365072
v -0.325052 -0.035416 0.364432
v -0.325007 -0.036028 0.363699
v -0.324968 -0.036545 0.362887
v -0.324938 -0.036955 0.362015
v -0.324916 -0.037247 0.361105
v -0.324903 -0.037420 0.360181
v -0.324899 -0.037476 0.359264
v -0.324903 -0.037420 0.358347
v -0.324916 -0.037247 0.357423
v -0.324938 -0.036955 0.356513
v -0.324968 -0.036545 0.355641
v -0.325007 -0.036028 0.354829
v -0.325052 -0.035416 0.354096
v -0.325103 -0.034729 0.353456
v -0.325158 -0.033986 0.352920
v -0.325315 -0.035245 0.353903
v -0.325360 -0.034644 0.353373
v -0.325275 -0.035795 0.354504
v -0.325239 -0.036281 0.355168
v -0.325208 -0.036692 0.355885
v -0.325183 -0.037022 0.356641
v -0.325165 -0.037266 0.357423
v -0.325154 -0.037421 0.358215
v -0.325148 -0.037494 0.359264
v -0.325154 -0.037421 0.360313
v -0.325171 -0.037194 0.361367
v -0.325199 -0.036812 0.362394
v -0.325239 -0.036281 0.363360
v -0.325288 -0.035618 0.364232
v -0.325345 -0.034849 0.364987
v -0.325408 -0.034004 0.350842
v -0.325751 -0.026008 0.352920
v -0.326001 -0.026026 0.350842
v -0.325807 -0.025264 0.353456
v -0.325858 -0.024577 0.354096
v -0.325903 -0.023965 0.354829
v -0.325942 -0.023448 0.355641
v -0.325972 -0.023038 0.356513
v -0.325994 -0.022746 0.357423
v -0.326007 -0.022573 0.358347
v -0.326011 -0.022517 0.359264
v -0.326007 -0.022573 0.360181
v -0.325994 -0.022746 0.361105
v -0.325972 -0.023038 0.362015
v -0.325942 -0.023448 0.362887
v -0.325903 -0.023965 0.363699
v -0.325858 -0.024577 0.364432
v -0.325807 -0.025264 0.365072
v -0.326093 -0.024785 0.364625
v -0.326048 -0.025386 0.365155
v -0.326134 -0.024235 0.364024
v -0.326170 -0.023749 0.363360
v -0.326200 -0.023338 0.362643
v -0.326225 -0.023008 0.361887
v -0.326243 -0.022765 0.361105
v -0.326255 -0.022609 0.360313
v -0.326260 -0.022536 0.359264
v -0.326255 -0.022609 0.358215
v -0.326238 -0.022836 0.357161
v -0.326209 -0.023218 0.356133
v -0.326170 -0.023749 0.355168
v -0.326121 -0.024412 0.354296
v -0.326063 -0.025181 0.353541
v -0.325892 -0.024113 0.360356
v -0.325868 -0.024433 0.361473
v -0.325850 -0.024681 0.362020
v -0.325827 -0.024988 0.362547
v -0.325800 -0.025351 0.363046
v -0.325769 -0.025766 0.363507
v -0.325735 -0.026225 0.363922
v -0.325698 -0.026722 0.364286
v -0.325659 -0.027248 0.364594
v -0.325619 -0.027794 0.364843
v -0.325536 -0.028908 0.365164
v -0.325455 -0.029997 0.365264
v -0.325374 -0.031085 0.365164
v -0.325291 -0.032199 0.364843
v -0.325251 -0.032745 0.364594
v -0.325211 -0.033271 0.364286
v -0.325175 -0.033768 0.363922
v -0.325140 -0.034228 0.363507
v -0.325110 -0.034642 0.363046
v -0.325083 -0.035005 0.362547
v -0.325060 -0.035312 0.362020
v -0.325041 -0.035560 0.361473
v -0.325018 -0.035880 0.360356
v -0.326391 -0.024150 0.360356
v -0.326367 -0.024470 0.361473
v -0.326348 -0.024719 0.362020
v -0.326326 -0.025025 0.362547
v -0.326299 -0.025388 0.363046
v -0.326268 -0.025803 0.363507
v -0.326234 -0.026262 0.363922
v -0.326197 -0.026759 0.364286
v -0.326158 -0.027285 0.364594
v -0.326117 -0.027831 0.364843
v -0.326034 -0.028945 0.365164
v -0.325953 -0.030034 0.365264
v -0.325873 -0.031122 0.365164
v -0.325790 -0.032236 0.364843
v -0.325749 -0.032782 0.364594
v -0.325710 -0.033308 0.364286
v -0.325673 -0.033805 0.363922
v -0.325639 -0.034265 0.363507
v -0.325608 -0.034679 0.363046
v -0.325581 -0.035042 0.362547
v -0.325559 -0.035349 0.362020
v -0.325540 -0.035597 0.361473
v -0.325516 -0.035917 0.360356
v -0.325844 -0.028130 0.364958
v -0.326126 -0.024336 0.361155
v -0.325282 -0.035694 0.361155
v -0.325265 -0.035926 0.360197
v -0.325312 -0.035290 0.362097
v -0.325355 -0.034715 0.362977
v -0.325409 -0.033988 0.363750
v -0.325472 -0.033142 0.364380
v -0.325541 -0.032218 0.364843
v -0.325611 -0.031263 0.365132
v -0.325658 -0.030631 0.365232
v -0.325704 -0.030015 0.365264
v -0.325750 -0.029399 0.365232
v -0.325797 -0.028767 0.365132
v -0.325891 -0.027499 0.364708
v -0.325937 -0.026889 0.364380
v -0.325979 -0.026313 0.363977
v -0.326019 -0.025784 0.363507
v -0.326053 -0.025315 0.362977
v -0.326083 -0.024913 0.362399
v -0.326108 -0.024586 0.361787
v -0.326146 -0.024063 0.359881
v -0.326139 -0.024163 0.360515
v -0.325953 -0.030034 0.359264
v -0.322999 -0.022566 0.369697
v -0.323054 -0.021824 0.369483
v -0.323107 -0.021109 0.369112
v -0.323154 -0.020471 0.368592
v -0.323193 -0.019953 0.367953
v -0.323220 -0.019583 0.367236
v -0.323236 -0.019370 0.366492
v -0.324981 -0.019499 0.366492
v -0.324966 -0.019713 0.367236
v -0.324938 -0.020083 0.367953
v -0.324899 -0.020601 0.368592
v -0.324852 -0.021239 0.369112
v -0.324799 -0.021953 0.369483
v -0.324744 -0.022696 0.369697
v -0.323236 -0.019370 0.352036
v -0.323220 -0.019583 0.351292
v -0.323193 -0.019953 0.350575
v -0.323154 -0.020471 0.349936
v -0.323107 -0.021109 0.349416
v -0.323054 -0.021824 0.349045
v -0.322999 -0.022566 0.348831
v -0.324744 -0.022696 0.348831
v -0.324799 -0.021953 0.349045
v -0.324852 -0.021239 0.349416
v -0.324899 -0.020601 0.349936
v -0.324938 -0.020083 0.350575
v -0.324966 -0.019713 0.351292
v -0.324981 -0.019499 0.352036
v -0.321927 -0.036982 0.348831
v -0.321872 -0.037725 0.349045
v -0.321819 -0.038439 0.349416
v -0.321772 -0.039077 0.349936
v -0.321733 -0.039595 0.350575
v -0.321706 -0.039965 0.351292
v -0.321690 -0.040179 0.352036
v -0.323435 -0.040308 0.352036
v -0.323451 -0.040095 0.351292
v -0.323478 -0.039725 0.350575
v -0.323517 -0.039207 0.349936
v -0.323564 -0.038569 0.349416
v -0.323617 -0.037854 0.349045
v -0.323673 -0.037112 0.348831
v -0.321690 -0.040179 0.366492
v -0.321706 -0.039965 0.367236
v -0.321733 -0.039595 0.367953
v -0.321772 -0.039077 0.368592
v -0.321819 -0.038439 0.369112
v -0.321872 -0.037725 0.369483
v -0.321927 -0.036982 0.369697
v -0.323673 -0.037112 0.369697
v -0.323617 -0.037854 0.369483
v -0.323564 -0.038569 0.369112
v -0.323517 -0.039207 0.368592
v -0.323478 -0.039725 0.367953
v -0.323451 -0.040095 0.367236
v -0.323435 -0.040308 0.366492
v -0.325900 0.024013 0.359264
v -0.326398 0.024050 0.359264
v -0.326391 0.024150 0.358172
v -0.326367 0.024470 0.357055
v -0.326348 0.024719 0.356508
v -0.326326 0.025025 0.355981
v -0.326299 0.025388 0.355482
v -0.326268 0.025803 0.355021
v -0.326234 0.026262 0.354606
v -0.326197 0.026759 0.354242
v -0.326158 0.027285 0.353934
v -0.326117 0.027831 0.353685
v -0.326034 0.028945 0.353364
v -0.325953 0.030034 0.353264
v -0.325872 0.031122 0.353364
v -0.325790 0.032236 0.353685
v -0.325749 0.032782 0.353934
v -0.325710 0.033308 0.354242
v -0.325673 0.033805 0.354606
v -0.325639 0.034265 0.355021
v -0.325608 0.034679 0.355482
v -0.325581 0.035042 0.355981
v -0.325559 0.035349 0.356508
v -0.325540 0.035597 0.357055
v -0.325516 0.035917 0.358172
v -0.325509 0.036017 0.359264
v -0.325010 0.035980 0.359264
v -0.325018 0.035880 0.358172
v -0.325041 0.035560 0.357055
v -0.325060 0.035312 0.356508
v -0.325083 0.035005 0.355981
v -0.325110 0.034642 0.355482
v -0.325140 0.034228 0.355021
v -0.325174 0.033768 0.354606
v -0.325211 0.033271 0.354242
v -0.325251 0.032745 0.353934
v -0.325291 0.032199 0.353685
v -0.325374 0.031085 0.353364
v -0.325455 0.029997 0.353264
v -0.325536 0.028908 0.353364
v -0.325619 0.027794 0.353685
v -0.325659 0.027248 0.353934
v -0.325698 0.026722 0.354242
v -0.325735 0.026225 0.354606
v -0.325769 0.025766 0.355021
v -0.325800 0.025351 0.355482
v -0.325827 0.024988 0.355981
v -0.325850 0.024682 0.356508
v -0.325868 0.024433 0.357055
v -0.325892 0.024113 0.358172
v -0.325844 0.028130 0.353570
v -0.326126 0.024336 0.357373
v -0.326146 0.024063 0.358647
v -0.326139 0.024163 0.358013
v -0.326107 0.024586 0.356741
v -0.326083 0.024913 0.356129
v -0.326053 0.025315 0.355551
v -0.326019 0.025784 0.355021
v -0.325979 0.026313 0.354551
v -0.325936 0.026889 0.354148
v -0.325891 0.027499 0.353820
v -0.325797 0.028767 0.353396
v -0.325750 0.029399 0.353296
v -0.325704 0.030015 0.353264
v -0.325658 0.030631 0.353296
v -0.325611 0.031263 0.353396
v -0.325540 0.032218 0.353685
v -0.325472 0.033142 0.354148
v -0.325409 0.033989 0.354778
v -0.325355 0.034716 0.355551
v -0.325312 0.035290 0.356431
v -0.325282 0.035694 0.357373
v -0.325265 0.035926 0.358331
v -0.326250 0.026045 0.348764
v -0.326435 0.023552 0.348764
v -0.326489 0.022826 0.348831
v -0.326544 0.022083 0.349045
v -0.326597 0.021369 0.349416
v -0.326645 0.020731 0.349936
v -0.326683 0.020213 0.350575
v -0.326711 0.019843 0.351292
v -0.326727 0.019629 0.352036
v -0.326732 0.019563 0.352764
v -0.326732 0.019563 0.365764
v -0.326727 0.019629 0.366492
v -0.326711 0.019843 0.367236
v -0.326683 0.020213 0.367953
v -0.326645 0.020731 0.368592
v -0.326597 0.021369 0.369112
v -0.326544 0.022083 0.369483
v -0.326489 0.022826 0.369697
v -0.326435 0.023552 0.369764
v -0.326250 0.026045 0.369764
v -0.326250 0.026045 0.365608
v -0.326305 0.025301 0.365072
v -0.326356 0.024614 0.364432
v -0.326402 0.024002 0.363699
v -0.326440 0.023485 0.362887
v -0.326470 0.023075 0.362015
v -0.326492 0.022783 0.361105
v -0.326505 0.022610 0.360181
v -0.326509 0.022554 0.359264
v -0.326505 0.022610 0.358347
v -0.326492 0.022783 0.357423
v -0.326470 0.023075 0.356513
v -0.326440 0.023485 0.355641
v -0.326402 0.024002 0.354829
v -0.326356 0.024614 0.354096
v -0.326305 0.025301 0.353456
v -0.326250 0.026045 0.352920
v -0.323241 0.019303 0.352764
v -0.323241 0.019303 0.365764
v -0.324986 0.019433 0.359264
v -0.322945 0.023292 0.369764
v -0.321981 0.036256 0.369764
v -0.325472 0.036516 0.369764
v -0.325657 0.034023 0.369764
v -0.325158 0.033986 0.369764
v -0.325751 0.026008 0.369764
v -0.324208 0.029904 0.369764
v -0.325175 0.040505 0.352764
v -0.325175 0.040505 0.365764
v -0.321685 0.040245 0.365764
v -0.321685 0.040245 0.352764
v -0.323430 0.040375 0.359264
v -0.325657 0.034023 0.348764
v -0.325472 0.036516 0.348764
v -0.321981 0.036256 0.348764
v -0.322945 0.023292 0.348764
v -0.325751 0.026008 0.348764
v -0.325158 0.033986 0.348764
v -0.324208 0.029904 0.348764
v -0.325418 0.037242 0.369697
v -0.325363 0.037984 0.369483
v -0.325309 0.038699 0.369112
v -0.325262 0.039336 0.368592
v -0.325224 0.039855 0.367953
v -0.325196 0.040225 0.367236
v -0.325180 0.040438 0.366492
v -0.325180 0.040438 0.352036
v -0.325196 0.040225 0.351292
v -0.325224 0.039855 0.350575
v -0.325262 0.039336 0.349936
v -0.325309 0.038699 0.349416
v -0.325363 0.037984 0.349045
v -0.325418 0.037242 0.348831
v -0.325657 0.034023 0.352920
v -0.325602 0.034766 0.353456
v -0.325551 0.035454 0.354096
v -0.325505 0.036065 0.354829
v -0.325467 0.036583 0.355641
v -0.325436 0.036992 0.356513
v -0.325415 0.037284 0.357423
v -0.325402 0.037457 0.358347
v -0.325398 0.037513 0.359264
v -0.325402 0.037457 0.360181
v -0.325415 0.037284 0.361105
v -0.325436 0.036992 0.362015
v -0.325467 0.036583 0.362887
v -0.325505 0.036065 0.363699
v -0.325551 0.035454 0.364432
v -0.325602 0.034766 0.365072
v -0.325657 0.034023 0.365608
v -0.325158 0.033986 0.365608
v -0.325408 0.034004 0.367686
v -0.325751 0.026008 0.365608
v -0.326001 0.026026 0.367686
v -0.325806 0.025264 0.365072
v -0.325858 0.024577 0.364432
v -0.325903 0.023965 0.363699
v -0.325942 0.023448 0.362887
v -0.325972 0.023038 0.362015
v -0.325994 0.022746 0.361105
v -0.326007 0.022573 0.360181
v -0.326011 0.022517 0.359264
v -0.326007 0.022573 0.358347
v -0.325994 0.022746 0.357423
v -0.325972 0.023038 0.356513
v -0.325942 0.023448 0.355641
v -0.325903 0.023965 0.354829
v -0.325858 0.024577 0.354096
v -0.325806 0.025264 0.353456
v -0.325751 0.026008 0.352920
v -0.326093 0.024785 0.353903
v -0.326048 0.025386 0.353373
v -0.326134 0.024235 0.354504
v -0.326170 0.023749 0.355168
v -0.326200 0.023338 0.355885
v -0.326225 0.023008 0.356641
v -0.326243 0.022765 0.357423
v -0.326254 0.022609 0.358215
v -0.326260 0.022536 0.359264
v -0.326254 0.022609 0.360313
v -0.326238 0.022836 0.361367
v -0.326209 0.023218 0.362394
v -0.326170 0.023749 0.363360
v -0.326120 0.024412 0.364232
v -0.326063 0.025181 0.364987
v -0.326001 0.026026 0.350842
v -0.325158 0.033986 0.352920
v -0.325408 0.034004 0.350842
v -0.325103 0.034729 0.353456
v -0.325052 0.035417 0.354096
v -0.325007 0.036028 0.354829
v -0.324968 0.036545 0.355641
v -0.324938 0.036955 0.356513
v -0.324916 0.037247 0.357423
v -0.324903 0.037420 0.358347
v -0.324899 0.037476 0.359264
v -0.324903 0.037420 0.360181
v -0.324916 0.037247 0.361105
v -0.324938 0.036955 0.362015
v -0.324968 0.036545 0.362887
v -0.325007 0.036028 0.363699
v -0.325052 0.035417 0.364432
v -0.325103 0.034729 0.365072
v -0.325315 0.035246 0.364625
v -0.325360 0.034644 0.365155
v -0.325275 0.035795 0.364024
v -0.325238 0.036281 0.363360
v -0.325208 0.036692 0.362643
v -0.325183 0.037022 0.361887
v -0.325165 0.037266 0.361105
v -0.325154 0.037421 0.360313
v -0.325148 0.037494 0.359264
v -0.325154 0.037421 0.358215
v -0.325171 0.037194 0.357161
v -0.325199 0.036812 0.356133
v -0.325238 0.036281 0.355168
v -0.325288 0.035618 0.354296
v -0.325345 0.034850 0.353541
v -0.325018 0.035880 0.360356
v -0.325041 0.035560 0.361473
v -0.325060 0.035312 0.362020
v -0.325083 0.035005 0.362547
v -0.325110 0.034642 0.363046
v -0.325140 0.034228 0.363507
v -0.325174 0.033768 0.363922
v -0.325211 0.033271 0.364286
v -0.325251 0.032745 0.364594
v -0.325291 0.032199 0.364843
v -0.325374 0.031085 0.365164
v -0.325455 0.029997 0.365264
v -0.325536 0.028908 0.365164
v -0.325619 0.027794 0.364843
v -0.325659 0.027248 0.364594
v -0.325698 0.026722 0.364286
v -0.325735 0.026225 0.363922
v -0.325769 0.025766 0.363507
v -0.325800 0.025351 0.363046
v -0.325827 0.024988 0.362547
v -0.325850 0.024682 0.362020
v -0.325868 0.024433 0.361473
v -0.325892 0.024113 0.360356
v -0.325516 0.035917 0.360356
v -0.325540 0.035597 0.361473
v -0.325559 0.035349 0.362020
v -0.325581 0.035042 0.362547
v -0.325608 0.034679 0.363046
v -0.325639 0.034265 0.363507
v -0.325673 0.033805 0.363922
v -0.325710 0.033308 0.364286
v -0.325749 0.032782 0.364594
v -0.325790 0.032236 0.364843
v -0.325872 0.031122 0.365164
v -0.325953 0.030034 0.365264
v -0.326034 0.028945 0.365164
v -0.326117 0.027831 0.364843
v -0.326158 0.027285 0.364594
v -0.326197 0.026759 0.364286
v -0.326234 0.026262 0.363922
v -0.326268 0.025803 0.363507
v -0.326299 0.025388 0.363046
v -0.326326 0.025025 0.362547
v -0.326348 0.024719 0.362020
v -0.326367 0.024470 0.361473
v -0.326391 0.024150 0.360356
v -0.325564 0.031901 0.364958
v -0.325282 0.035694 0.361155
v -0.326126 0.024336 0.361155
v -0.326143 0.024104 0.360197
v -0.326096 0.024740 0.362097
v -0.326053 0.025315 0.362977
v -0.325999 0.026042 0.363750
v -0.325936 0.026889 0.364380
v -0.325868 0.027813 0.364843
v -0.325797 0.028767 0.365132
v -0.325750 0.029399 0.365232
v -0.325704 0.030015 0.365264
v -0.325658 0.030631 0.365232
v -0.325611 0.031263 0.365132
v -0.325517 0.032531 0.364708
v -0.325472 0.033142 0.364380
v -0.325429 0.033718 0.363977
v -0.325390 0.034246 0.363507
v -0.325355 0.034716 0.362977
v -0.325325 0.035117 0.362399
v -0.325301 0.035444 0.361787
v -0.325262 0.035967 0.359881
v -0.325269 0.035867 0.360515
v -0.325953 0.030034 0.359264
v -0.321927 0.036982 0.369697
v -0.321872 0.037725 0.369483
v -0.321819 0.038439 0.369112
v -0.321772 0.039077 0.368592
v -0.321733 0.039595 0.367953
v -0.321706 0.039965 0.367236
v -0.321690 0.040179 0.366492
v -0.323435 0.040308 0.366492
v -0.323451 0.040095 0.367236
v -0.323478 0.039725 0.367953
v -0.323517 0.039207 0.368592
v -0.323564 0.038569 0.369112
v -0.323617 0.037854 0.369483
v -0.323673 0.037112 0.369697
v -0.321690 0.040179 0.352036
v -0.321706 0.039965 0.351292
v -0.321733 0.039595 0.350575
v -0.321772 0.039077 0.349936
v -0.321819 0.038439 0.349416
v -0.321872 0.037725 0.349045
v -0.321927 0.036982 0.348831
v -0.323673 0.037112 0.348831
v -0.323617 0.037854 0.349045
v -0.323564 0.038569 0.349416
v -0.323517 0.039207 0.349936
v -0.323478 0.039725 0.350575
v -0.323451 0.040095 0.351292
v -0.323435 0.040308 0.352036
v -0.322999 0.022566 0.348831
v -0.323054 0.021824 0.349045
v -0.323107 0.021109 0.349416
v -0.323154 0.020471 0.349936
v -0.323193 0.019953 0.350575
v -0.323220 0.019583 0.351292
v -0.323236 0.019370 0.352036
v -0.324981 0.019499 0.352036
v -0.324966 0.019713 0.351292
v -0.324938 0.020083 0.350575
v -0.324899 0.020601 0.349936
v -0.324852 0.021239 0.349416
v -0.324799 0.021953 0.349045
v -0.324744 0.022696 0.348831
v -0.323236 0.019370 0.366492
v -0.323220 0.019583 0.367236
v -0.323193 0.019953 0.367953
v -0.323154 0.020471 0.368592
v -0.323107 0.021109 0.369112
v -0.323054 0.021824 0.369483
v -0.322999 0.022566 0.369697
v -0.324744 0.022696 0.369697
v -0.324799 0.021953 0.369483
v -0.324852 0.021239 0.369112
v -0.324899 0.020601 0.368592
v -0.324938 0.020083 0.367953
v -0.324966 0.019713 0.367236
v -0.324981 0.019499 0.366492
v -0.317911 0.083479 0.359264
v -0.318399 0.083589 0.359264
v -0.318377 0.083687 0.358172
v -0.318306 0.084000 0.357055
v -0.318251 0.084243 0.356508
v -0.318183 0.084543 0.355981
v -0.318103 0.084898 0.355482
v -0.318011 0.085303 0.355021
v -0.317910 0.085753 0.354606
v -0.317800 0.086239 0.354242
v -0.317683 0.086753 0.353934
v -0.317562 0.087287 0.353685
v -0.317316 0.088376 0.353364
v -0.317075 0.089441 0.353264
v -0.316834 0.090506 0.353364
v -0.316588 0.091595 0.353685
v -0.316467 0.092129 0.353934
v -0.316350 0.092643 0.354242
v -0.316240 0.093130 0.354606
v -0.316139 0.093579 0.355021
v -0.316047 0.093984 0.355482
v -0.315967 0.094339 0.355981
v -0.315899 0.094639 0.356508
v -0.315844 0.094882 0.357055
v -0.315773 0.095195 0.358172
v -0.315751 0.095293 0.359264
v -0.315263 0.095183 0.359264
v -0.315285 0.095085 0.358172
v -0.315356 0.094772 0.357055
v -0.315411 0.094529 0.356508
v -0.315479 0.094229 0.355981
v -0.315559 0.093874 0.355482
v -0.315651 0.093469 0.355021
v -0.315753 0.093019 0.354606
v -0.315863 0.092533 0.354242
v -0.315979 0.092019 0.353934
v -0.316100 0.091485 0.353685
v -0.316346 0.090396 0.353364
v -0.316587 0.089331 0.353264
v -0.316828 0.088266 0.353364
v -0.317075 0.087177 0.353685
v -0.317195 0.086643 0.353934
v -0.317312 0.086128 0.354242
v -0.317422 0.085642 0.354606
v -0.317524 0.085193 0.355021
v -0.317615 0.084787 0.355482
v -0.317696 0.084433 0.355981
v -0.317764 0.084132 0.356508
v -0.317818 0.083890 0.357055
v -0.317889 0.083576 0.358172
v -0.317248 0.087542 0.353570
v -0.318088 0.083832 0.357373
v -0.318148 0.083565 0.358647
v -0.318126 0.083663 0.358013
v -0.318032 0.084076 0.356741
v -0.317960 0.084396 0.356129
v -0.317871 0.084789 0.355551
v -0.317768 0.085248 0.355021
v -0.317650 0.085765 0.354551
v -0.317523 0.086328 0.354148
v -0.317388 0.086925 0.353820
v -0.317107 0.088166 0.353396
v -0.316967 0.088784 0.353296
v -0.316831 0.089386 0.353264
v -0.316695 0.089988 0.353296
v -0.316555 0.090606 0.353396
v -0.316344 0.091540 0.353685
v -0.316139 0.092444 0.354148
v -0.315952 0.093272 0.354778
v -0.315791 0.093983 0.355551
v -0.315664 0.094545 0.356431
v -0.315574 0.094940 0.357373
v -0.315523 0.095167 0.358331
v -0.317958 0.085540 0.348764
v -0.318509 0.083101 0.348764
v -0.318670 0.082391 0.348831
v -0.318834 0.081665 0.349045
v -0.318993 0.080966 0.349416
v -0.319134 0.080343 0.349936
v -0.319248 0.079836 0.350575
v -0.319330 0.079474 0.351292
v -0.319377 0.079265 0.352036
v -0.319392 0.079200 0.352764
v -0.319392 0.079200 0.365764
v -0.319377 0.079265 0.366492
v -0.319330 0.079474 0.367236
v -0.319248 0.079836 0.367953
v -0.319134 0.080343 0.368592
v -0.318993 0.080966 0.369112
v -0.318834 0.081665 0.369483
v -0.318670 0.082391 0.369697
v -0.318509 0.083101 0.369764
v -0.317958 0.085540 0.369764
v -0.317958 0.085540 0.365608
v -0.318122 0.084813 0.365072
v -0.318274 0.084140 0.364432
v -0.318410 0.083542 0.363699
v -0.318524 0.083036 0.362887
v -0.318615 0.082636 0.362015
v -0.318680 0.082350 0.361105
v -0.318718 0.082181 0.360181
v -0.318730 0.082126 0.359264
v -0.318718 0.082181 0.358347
v -0.318680 0.082350 0.357423
v -0.318615 0.082636 0.356513
v -0.318524 0.083036 0.355641
v -0.318410 0.083542 0.354829
v -0.318274 0.084140 0.354096
v -0.318122 0.084813 0.353456
v -0.317958 0.085540 0.352920
v -0.315979 0.078428 0.352764
v -0.315979 0.078428 0.365764
v -0.317685 0.078814 0.359264
v -0.315096 0.082329 0.369764
v -0.312227 0.095008 0.369764
v -0.315640 0.095781 0.369764
v -0.316192 0.093342 0.369764
v -0.315704 0.093232 0.369764
v -0.317470 0.085429 0.369764
v -0.315368 0.089055 0.369764
v -0.314758 0.099682 0.352764
v -0.314758 0.099682 0.365764
v -0.311344 0.098910 0.365764
v -0.311344 0.098910 0.352764
v -0.313051 0.099296 0.359264
v -0.316192 0.093342 0.348764
v -0.315640 0.095781 0.348764
v -0.312227 0.095008 0.348764
v -0.315096 0.082329 0.348764
v -0.317470 0.085429 0.348764
v -0.315704 0.093232 0.348764
v -0.315368 0.089055 0.348764
v -0.315480 0.096491 0.369697
v -0.315315 0.097217 0.369483
v -0.315157 0.097916 0.369112
v -0.315016 0.098539 0.368592
v -0.314902 0.099046 0.367953
v -0.314820 0.099408 0.367236
v -0.314772 0.099617 0.366492
v -0.314772 0.099617 0.352036
v -0.314820 0.099408 0.351292
v -0.314902 0.099046 0.350575
v -0.315016 0.098539 0.349936
v -0.315157 0.097916 0.349416
v -0.315315 0.097217 0.349045
v -0.315480 0.096491 0.348831
v -0.316192 0.093342 0.352920
v -0.316028 0.094069 0.353456
v -0.315875 0.094742 0.354096
v -0.315740 0.095340 0.354829
v -0.315626 0.095846 0.355641
v -0.315535 0.096246 0.356513
v -0.315470 0.096532 0.357423
v -0.315432 0.096701 0.358347
v -0.315420 0.096756 0.359264
v -0.315432 0.096701 0.360181
v -0.315470 0.096532 0.361105
v -0.315535 0.096246 0.362015
v -0.315626 0.095846 0.362887
v -0.315740 0.095340 0.363699
v -0.315875 0.094742 0.364432
v -0.316028 0.094069 0.365072
v -0.316192 0.093342 0.365608
v -0.315704 0.093232 0.365608
v -0.315948 0.093287 0.367686
v -0.317470 0.085429 0.365608
v -0.317714 0.085485 0.367686
v -0.317635 0.084702 0.365072
v -0.317787 0.084030 0.364432
v -0.317922 0.083432 0.363699
v -0.318037 0.082926 0.362887
v -0.318127 0.082525 0.362015
v -0.318192 0.082239 0.361105
v -0.318230 0.082070 0.360181
v -0.318242 0.082016 0.359264
v -0.318230 0.082070 0.358347
v -0.318192 0.082239 0.357423
v -0.318127 0.082525 0.356513
v -0.318037 0.082926 0.355641
v -0.317922 0.083432 0.354829
v -0.317787 0.084030 0.354096
v -0.317635 0.084702 0.353456
v -0.317470 0.085429 0.352920
v -0.317989 0.084270 0.353903
v -0.317856 0.084859 0.353373
v -0.318110 0.083733 0.354504
v -0.318218 0.083258 0.355168
v -0.318309 0.082855 0.355885
v -0.318382 0.082533 0.356641
v -0.318436 0.082295 0.357423
v -0.318470 0.082143 0.358215
v -0.318486 0.082071 0.359264
v -0.318470 0.082143 0.360313
v -0.318420 0.082364 0.361367
v -0.318335 0.082739 0.362394
v -0.318218 0.083258 0.363360
v -0.318071 0.083906 0.364232
v -0.317901 0.084658 0.364987
v -0.317714 0.085485 0.350842
v -0.315704 0.093232 0.352920
v -0.315948 0.093287 0.350842
v -0.315540 0.093959 0.353456
v -0.315388 0.094632 0.354096
v -0.315252 0.095230 0.354829
v -0.315138 0.095736 0.355641
v -0.315047 0.096136 0.356513
v -0.314983 0.096422 0.357423
v -0.314944 0.096591 0.358347
v -0.314932 0.096646 0.359264
v -0.314944 0.096591 0.360181
v -0.314983 0.096422 0.361105
v -0.315047 0.096136 0.362015
v -0.315138 0.095736 0.362887
v -0.315252 0.095230 0.363699
v -0.315388 0.094632 0.364432
v -0.315540 0.093959 0.365072
v -0.315674 0.094501 0.364625
v -0.315807 0.093913 0.365155
v -0.315552 0.095039 0.364024
v -0.315444 0.095514 0.363360
v -0.315353 0.095917 0.362643
v -0.315280 0.096239 0.361887
v -0.315226 0.096477 0.361105
v -0.315192 0.096629 0.360313
v -0.315176 0.096701 0.359264
v -0.315192 0.096629 0.358215
v -0.315242 0.096407 0.357161
v -0.315327 0.096033 0.356133
v -0.315444 0.095514 0.355168
v -0.315591 0.094866 0.354296
v -0.315761 0.094114 0.353541
v -0.315285 0.095085 0.360356
v -0.315356 0.094772 0.361473
v -0.315411 0.094529 0.362020
v -0.315479 0.094229 0.362547
v -0.315559 0.093874 0.363046
v -0.315651 0.093469 0.363507
v -0.315753 0.093019 0.363922
v -0.315863 0.092533 0.364286
v -0.315979 0.092019 0.364594
v -0.316100 0.091485 0.364843
v -0.316346 0.090396 0.365164
v -0.316587 0.089331 0.365264
v -0.316828 0.088266 0.365164
v -0.317075 0.087177 0.364843
v -0.317195 0.086643 0.364594
v -0.317312 0.086128 0.364286
v -0.317422 0.085642 0.363922
v -0.317524 0.085193 0.363507
v -0.317615 0.084787 0.363046
v -0.317696 0.084433 0.362547
v -0.317764 0.084132 0.362020
v -0.317818 0.083890 0.361473
v -0.317889 0.083576 0.360356
v -0.315773 0.095195 0.360356
v -0.315844 0.094882 0.361473
v -0.315899 0.094639 0.362020
v -0.315967 0.094339 0.362547
v -0.316047 0.093984 0.363046
v -0.316139 0.093579 0.363507
v -0.316240 0.093130 0.363922
v -0.316350 0.092643 0.364286
v -0.316467 0.092129 0.364594
v -0.316588 0.091595 0.364843
v -0.316834 0.090506 0.365164
v -0.317075 0.089441 0.365264
v -0.317316 0.088376 0.365164
v -0.317562 0.087287 0.364843
v -0.317683 0.086753 0.364594
v -0.317800 0.086239 0.364286
v -0.317910 0.085753 0.363922
v -0.318011 0.085303 0.363507
v -0.318103 0.084898 0.363046
v -0.318183 0.084543 0.362547
v -0.318251 0.084243 0.362020
v -0.318306 0.084000 0.361473
v -0.318377 0.083687 0.360356
v -0.316414 0.091230 0.364958
v -0.315574 0.094940 0.361155
v -0.318088 0.083832 0.361155
v -0.318139 0.083605 0.360197
v -0.317998 0.084227 0.362097
v -0.317871 0.084789 0.362977
v -0.317710 0.085500 0.363750
v -0.317523 0.086328 0.364380
v -0.317318 0.087232 0.364843
v -0.317107 0.088166 0.365132
v -0.316967 0.088784 0.365232
v -0.316831 0.089386 0.365264
v -0.316695 0.089988 0.365232
v -0.316555 0.090606 0.365132
v -0.316274 0.091847 0.364708
v -0.316139 0.092444 0.364380
v -0.316012 0.093007 0.363977
v -0.315895 0.093524 0.363507
v -0.315791 0.093983 0.362977
v -0.315702 0.094376 0.362399
v -0.315630 0.094695 0.361787
v -0.315514 0.095207 0.359881
v -0.315536 0.095109 0.360515
v -0.317075 0.089441 0.359264
v -0.312066 0.095718 0.369697
v -0.311902 0.096444 0.369483
v -0.311744 0.097143 0.369112
v -0.311603 0.097767 0.368592
v -0.311488 0.098274 0.367953
v -0.311406 0.098636 0.367236
v -0.311359 0.098845 0.366492
v -0.313065 0.099231 0.366492
v -0.313113 0.099022 0.367236
v -0.313195 0.098660 0.367953
v -0.313309 0.098153 0.368592
v -0.313451 0.097529 0.369112
v -0.313609 0.096831 0.369483
v -0.313773 0.096104 0.369697
v -0.311359 0.098845 0.352036
v -0.311406 0.098636 0.351292
v -0.311488 0.098274 0.350575
v -0.311603 0.097767 0.349936
v -0.311744 0.097143 0.349416
v -0.311902 0.096444 0.349045
v -0.312066 0.095718 0.348831
v -0.313773 0.096104 0.348831
v -0.313609 0.096831 0.349045
v -0.313451 0.097529 0.349416
v -0.313309 0.098153 0.349936
v -0.313195 0.098660 0.350575
v -0.313113 0.099022 0.351292
v -0.313065 0.099231 0.352036
v -0.315256 0.081619 0.348831
v -0.315421 0.080893 0.349045
v -0.315579 0.080194 0.349416
v -0.315720 0.079570 0.349936
v -0.315835 0.079063 0.350575
v -0.315917 0.078701 0.351292
v -0.315964 0.078493 0.352036
v -0.317671 0.078879 0.352036
v -0.317623 0.079088 0.351292
v -0.317542 0.079450 0.350575
v -0.317427 0.079956 0.349936
v -0.317286 0.080580 0.349416
v -0.317128 0.081279 0.349045
v -0.316963 0.082005 0.348831
v -0.315964 0.078493 0.366492
v -0.315917 0.078701 0.367236
v -0.315835 0.079063 0.367953
v -0.315720 0.079570 0.368592
v -0.315579 0.080194 0.369112
v -0.315421 0.080893 0.369483
v -0.315256 0.081619 0.369697
v -0.316963 0.082005 0.369697
v -0.317128 0.081279 0.369483
v -0.317286 0.080580 0.369112
v -0.317427 0.079956 0.368592
v -0.317542 0.079450 0.367953
v -0.317623 0.079088 0.367236
v -0.317671 0.078879 0.366492
f 50 1 53
f 53 1 2
f 53 2 3
f 4 52 3
f 3 52 54
f 3 54 53
f 53 54 50
f 52 4 55
f 55 4 5
f 55 5 56
f 56 5 6
f 56 6 57
f 57 6 7
f 57 7 58
f 58 7 8
f 58 8 9
f 58 9 59
f 59 9 10
f 59 10 60
f 60 10 11
f 60 11 61
f 61 11 12
f 61 12 51
f 51 12 13
f 51 13 62
f 62 13 63
f 62 63 40
f 40 63 39
f 39 63 64
f 39 64 65
f 65 64 14
f 65 14 15
f 13 14 63
f 63 14 64
f 65 15 66
f 66 15 16
f 66 16 67
f 67 16 17
f 67 17 68
f 68 17 18
f 68 18 19
f 68 19 69
f 69 19 20
f 69 20 70
f 70 20 21
f 70 21 22
f 70 22 71
f 71 22 23
f 71 23 24
f 71 24 72
f 72 24 25
f 72 25 73
f 73 25 26
f 73 26 27
f 27 28 73
f 73 28 72
f 28 29 72
f 72 29 71
f 29 30 71
f 71 30 31
f 71 31 70
f 70 31 32
f 70 32 33
f 70 33 69
f 69 33 34
f 69 34 68
f 68 34 35
f 68 35 36
f 68 36 67
f 67 36 37
f 67 37 66
f 66 37 38
f 66 38 65
f 65 38 39
f 62 40 51
f 51 40 41
f 51 41 61
f 61 41 42
f 61 42 60
f 60 42 43
f 60 43 59
f 59 43 44
f 59 44 58
f 58 44 45
f 58 45 46
f 58 46 57
f 57 46 47
f 57 47 56
f 56 47 48
f 56 48 55
f 55 48 49
f 55 49 52
f 52 49 50
f 52 50 54
f 110 74 109
f 109 74 75
f 109 75 108
f 108 75 107
f 107 75 106
f 106 75 76
f 106 76 105
f 105 76 104
f 104 76 77
f 104 77 78
f 78 79 104
f 104 79 103
f 103 79 80
f 103 80 83
f 83 80 81
f 83 81 82
f 103 83 102
f 102 83 84
f 102 84 101
f 101 84 87
f 101 87 88
f 85 86 84
f 84 86 87
f 101 88 100
f 100 88 89
f 100 89 90
f 90 91 100
f 100 91 99
f 99 91 98
f 98 91 92
f 98 92 97
f 97 92 96
f 96 92 95
f 95 92 93
f 95 93 94
f 112 84 113
f 113 84 83
f 113 83 111
f 111 112 113
f 115 120 114
f 114 120 119
f 114 119 92
f 92 119 93
f 120 115 118
f 118 115 116
f 118 116 117
f 118 119 120
f 124 121 125
f 125 121 122
f 125 122 123
f 123 124 125
f 126 127 131
f 131 127 128
f 131 128 132
f 132 128 129
f 132 129 130
f 130 129 75
f 130 75 74
f 130 131 132
f 163 117 162
f 162 117 116
f 162 116 161
f 161 116 160
f 160 116 159
f 159 116 133
f 159 133 158
f 158 133 157
f 157 133 134
f 157 134 135
f 135 136 157
f 157 136 156
f 156 136 137
f 156 137 122
f 122 137 138
f 122 138 139
f 156 122 155
f 155 122 121
f 155 121 154
f 154 121 142
f 154 142 143
f 140 141 121
f 121 141 142
f 154 143 153
f 153 143 144
f 153 144 145
f 145 146 153
f 153 146 152
f 152 146 151
f 151 146 127
f 151 127 150
f 150 127 149
f 149 127 148
f 148 127 126
f 148 126 147
f 118 117 165
f 165 117 163
f 165 163 164
f 164 118 165
f 166 94 167
f 167 94 93
f 167 93 119
f 119 166 167
f 183 110 185
f 185 110 109
f 185 109 184
f 184 109 108
f 184 108 186
f 186 108 107
f 186 107 187
f 187 107 106
f 187 106 188
f 188 106 105
f 188 105 189
f 189 105 104
f 189 104 190
f 190 104 191
f 190 191 177
f 177 191 176
f 176 191 192
f 176 192 175
f 175 192 174
f 174 192 193
f 174 193 173
f 173 193 194
f 173 194 172
f 172 194 195
f 172 195 171
f 171 195 196
f 171 196 170
f 170 196 197
f 170 197 169
f 169 197 198
f 169 198 168
f 168 198 166
f 166 198 95
f 166 95 94
f 104 103 191
f 191 103 192
f 103 102 192
f 192 102 101
f 192 101 193
f 193 101 100
f 193 100 194
f 194 100 99
f 194 99 195
f 195 99 98
f 195 98 196
f 196 98 97
f 196 97 197
f 197 97 96
f 197 96 198
f 198 96 95
f 190 177 189
f 189 177 178
f 189 178 188
f 188 178 179
f 188 179 187
f 187 179 180
f 187 180 186
f 186 180 181
f 186 181 184
f 184 181 182
f 184 182 185
f 185 182 183
f 130 74 199
f 199 74 110
f 199 110 183
f 183 130 199
f 200 147 201
f 201 147 126
f 201 126 131
f 131 200 201
f 164 163 218
f 218 163 162
f 218 162 217
f 217 162 161
f 217 161 219
f 219 161 160
f 219 160 220
f 220 160 159
f 220 159 221
f 221 159 158
f 221 158 222
f 222 158 157
f 222 157 223
f 223 157 224
f 223 224 211
f 211 224 210
f 210 224 225
f 210 225 209
f 209 225 208
f 208 225 226
f 208 226 207
f 207 226 227
f 207 227 206
f 206 227 228
f 206 228 205
f 205 228 229
f 205 229 204
f 204 229 230
f 204 230 203
f 203 230 231
f 203 231 202
f 202 231 200
f 200 231 148
f 200 148 147
f 157 156 224
f 224 156 225
f 156 155 225
f 225 155 154
f 225 154 226
f 226 154 153
f 226 153 227
f 227 153 152
f 227 152 228
f 228 152 151
f 228 151 229
f 229 151 150
f 229 150 230
f 230 150 149
f 230 149 231
f 231 149 148
f 223 211 222
f 222 211 212
f 222 212 221
f 221 212 213
f 221 213 220
f 220 213 214
f 220 214 219
f 219 214 215
f 219 215 217
f 217 215 216
f 217 216 218
f 218 216 164
f 164 241 118
f 118 241 242
f 118 242 243
f 216 238 164
f 164 238 239
f 164 239 240
f 238 216 237
f 237 216 215
f 237 215 236
f 236 215 235
f 235 215 214
f 235 214 234
f 234 214 213
f 234 213 233
f 233 213 212
f 233 212 232
f 232 212 211
f 232 211 210
f 232 210 27
f 27 210 209
f 27 209 208
f 27 208 28
f 28 208 207
f 28 207 206
f 28 206 29
f 29 206 205
f 29 205 30
f 30 205 204
f 30 204 31
f 31 204 203
f 31 203 32
f 32 203 33
f 33 203 202
f 33 202 34
f 34 202 200
f 34 200 35
f 35 200 36
f 36 200 37
f 37 200 131
f 37 131 38
f 38 131 39
f 39 131 130
f 39 130 40
f 40 130 41
f 41 130 183
f 41 183 42
f 42 183 43
f 43 183 44
f 44 183 182
f 44 182 45
f 45 182 181
f 45 181 46
f 46 181 47
f 47 181 180
f 47 180 48
f 48 180 179
f 48 179 49
f 49 179 178
f 49 178 50
f 50 178 177
f 50 177 176
f 50 176 1
f 1 176 175
f 1 175 174
f 1 174 254
f 254 174 173
f 254 173 172
f 254 172 253
f 253 172 171
f 253 171 252
f 252 171 170
f 252 170 251
f 251 170 169
f 251 169 250
f 250 169 249
f 249 169 168
f 249 168 248
f 248 168 166
f 248 166 247
f 247 166 246
f 246 166 245
f 245 166 119
f 245 119 244
f 244 119 243
f 243 119 118
f 240 241 164
f 277 2 281
f 281 2 1
f 281 1 254
f 281 254 280
f 280 254 253
f 280 253 282
f 282 253 252
f 282 252 251
f 282 251 283
f 283 251 250
f 283 250 249
f 283 249 284
f 284 249 248
f 284 248 285
f 285 248 247
f 285 247 246
f 285 246 286
f 286 246 245
f 286 245 287
f 287 245 244
f 287 244 288
f 288 244 243
f 288 243 289
f 289 243 290
f 289 290 266
f 266 290 265
f 265 290 291
f 265 291 278
f 278 291 242
f 278 242 241
f 243 242 290
f 290 242 291
f 278 241 292
f 292 241 240
f 292 240 293
f 293 240 239
f 293 239 294
f 294 239 238
f 294 238 295
f 295 238 237
f 295 237 236
f 295 236 296
f 296 236 235
f 296 235 297
f 297 235 234
f 297 234 298
f 298 234 233
f 298 233 279
f 279 233 232
f 279 232 300
f 300 232 299
f 300 299 255
f 255 299 26
f 26 299 27
f 27 299 232
f 300 255 279
f 279 255 256
f 279 256 298
f 298 256 257
f 298 257 297
f 297 257 258
f 297 258 296
f 296 258 259
f 296 259 295
f 295 259 260
f 295 260 261
f 295 261 294
f 294 261 262
f 294 262 293
f 293 262 263
f 293 263 292
f 292 263 264
f 292 264 278
f 278 264 265
f 289 266 288
f 288 266 267
f 288 267 287
f 287 267 268
f 287 268 286
f 286 268 269
f 286 269 285
f 285 269 270
f 285 270 271
f 285 271 284
f 284 271 272
f 284 272 283
f 283 272 273
f 283 273 274
f 283 274 282
f 282 274 275
f 282 275 276
f 282 276 280
f 280 276 277
f 280 277 281
f 3 2 301
f 301 2 277
f 301 277 276
f 276 275 301
f 301 275 274
f 301 274 273
f 273 272 301
f 301 272 271
f 301 271 270
f 270 269 301
f 301 269 268
f 301 268 267
f 267 266 301
f 301 266 265
f 301 265 264
f 264 263 301
f 301 263 262
f 301 262 261
f 261 260 301
f 301 260 259
f 301 259 258
f 258 257 301
f 301 257 256
f 301 256 255
f 255 26 301
f 301 26 25
f 301 25 24
f 24 23 301
f 301 23 22
f 301 22 21
f 21 20 301
f 301 20 19
f 301 19 18
f 18 17 301
f 301 17 16
f 301 16 15
f 15 14 301
f 301 14 13
f 301 13 12
f 12 11 301
f 301 11 10
f 301 10 9
f 9 8 301
f 301 8 7
f 301 7 6
f 6 5 301
f 301 5 4
f 301 4 3
f 123 122 309
f 309 122 139
f 309 139 310
f 310 139 138
f 310 138 311
f 311 138 137
f 311 137 312
f 312 137 136
f 312 136 313
f 313 136 135
f 313 135 314
f 314 135 134
f 314 134 315
f 315 134 133
f 315 133 116
f 116 115 315
f 315 115 302
f 315 302 314
f 314 302 303
f 314 303 313
f 313 303 304
f 313 304 312
f 312 304 305
f 312 305 311
f 311 305 306
f 311 306 310
f 310 306 307
f 310 307 309
f 309 307 308
f 309 308 123
f 128 127 323
f 323 127 146
f 323 146 324
f 324 146 145
f 324 145 325
f 325 145 144
f 325 144 326
f 326 144 143
f 326 143 327
f 327 143 142
f 327 142 328
f 328 142 141
f 328 141 329
f 329 141 140
f 329 140 121
f 121 124 329
f 329 124 316
f 329 316 328
f 328 316 317
f 328 317 327
f 327 317 318
f 327 318 326
f 326 318 319
f 326 319 325
f 325 319 320
f 325 320 324
f 324 320 321
f 324 321 323
f 323 321 322
f 323 322 128
f 111 83 337
f 337 83 82
f 337 82 338
f 338 82 81
f 338 81 339
f 339 81 80
f 339 80 340
f 340 80 79
f 340 79 341
f 341 79 78
f 341 78 342
f 342 78 77
f 342 77 343
f 343 77 76
f 343 76 75
f 75 129 343
f 343 129 330
f 343 330 342
f 342 330 331
f 342 331 341
f 341 331 332
f 341 332 340
f 340 332 333
f 340 333 339
f 339 333 334
f 339 334 338
f 338 334 335
f 338 335 337
f 337 335 336
f 337 336 111
f 114 92 351
f 351 92 91
f 351 91 352
f 352 91 90
f 352 90 353
f 353 90 89
f 353 89 354
f 354 89 88
f 354 88 355
f 355 88 87
f 355 87 356
f 356 87 86
f 356 86 357
f 357 86 85
f 357 85 84
f 84 112 357
f 357 112 344
f 357 344 356
f 356 344 345
f 356 345 355
f 355 345 346
f 355 346 354
f 354 346 347
f 354 347 353
f 353 347 348
f 353 348 352
f 352 348 349
f 352 349 351
f 351 349 350
f 351 350 114
f 407 358 410
f 410 358 359
f 410 359 360
f 361 409 360
f 360 409 411
f 360 411 410
f 410 411 407
f 409 361 412
f 412 361 362
f 412 362 413
f 413 362 363
f 413 363 414
f 414 363 364
f 414 364 415
f 415 364 365
f 415 365 366
f 415 366 416
f 416 366 367
f 416 367 417
f 417 367 368
f 417 368 418
f 418 368 369
f 418 369 408
f 408 369 370
f 408 370 419
f 419 370 420
f 419 420 397
f 397 420 396
f 396 420 421
f 396 421 422
f 422 421 371
f 422 371 372
f 370 371 420
f 420 371 421
f 422 372 423
f 423 372 373
f 423 373 424
f 424 373 374
f 424 374 425
f 425 374 375
f 425 375 376
f 425 376 426
f 426 376 377
f 426 377 427
f 427 377 378
f 427 378 379
f 427 379 428
f 428 379 380
f 428 380 381
f 428 381 429
f 429 381 382
f 429 382 430
f 430 382 383
f 430 383 384
f 384 385 430
f 430 385 429
f 385 386 429
f 429 386 428
f 386 387 428
f 428 387 388
f 428 388 427
f 427 388 389
f 427 389 390
f 427 390 426
f 426 390 391
f 426 391 425
f 425 391 392
f 425 392 393
f 425 393 424
f 424 393 394
f 424 394 423
f 423 394 395
f 423 395 422
f 422 395 396
f 419 397 408
f 408 397 398
f 408 398 418
f 418 398 399
f 418 399 417
f 417 399 400
f 417 400 416
f 416 400 401
f 416 401 415
f 415 401 402
f 415 402 403
f 415 403 414
f 414 403 404
f 414 404 413
f 413 404 405
f 413 405 412
f 412 405 406
f 412 406 409
f 409 406 407
f 409 407 411
f 467 431 466
f 466 431 432
f 466 432 465
f 465 432 464
f 464 432 463
f 463 432 433
f 463 433 462
f 462 433 461
f 461 433 434
f 461 434 435
f 435 436 461
f 461 436 460
f 460 436 437
f 460 437 440
f 440 437 438
f 440 438 439
f 460 440 459
f 459 440 441
f 459 441 458
f 458 441 444
f 458 444 445
f 442 443 441
f 441 443 444
f 458 445 457
f 457 445 446
f 457 446 447
f 447 448 457
f 457 448 456
f 456 448 455
f 455 448 449
f 455 449 454
f 454 449 453
f 453 449 452
f 452 449 450
f 452 450 451
f 469 441 470
f 470 441 440
f 470 440 468
f 468 469 470
f 472 477 471
f 471 477 476
f 471 476 449
f 449 476 450
f 477 472 475
f 475 472 473
f 475 473 474
f 475 476 477
f 481 478 482
f 482 478 479
f 482 479 480
f 480 481 482
f 483 484 488
f 488 484 485
f 488 485 489
f 489 485 486
f 489 486 487
f 487 486 432
f 487 432 431
f 487 488 489
f 520 474 519
f 519 474 473
f 519 473 518
f 518 473 517
f 517 473 516
f 516 473 490
f 516 490 515
f 515 490 514
f 514 490 491
f 514 491 492
f 492 493 514
f 514 493 513
f 513 493 494
f 513 494 479
f 479 494 495
f 479 495 496
f 513 479 512
f 512 479 478
f 512 478 511
f 511 478 499
f 511 499 500
f 497 498 478
f 478 498 499
f 511 500 510
f 510 500 501
f 510 501 502
f 502 503 510
f 510 503 509
f 509 503 508
f 508 503 484
f 508 484 507
f 507 484 506
f 506 484 505
f 505 484 483
f 505 483 504
f 475 474 522
f 522 474 520
f 522 520 521
f 521 475 522
f 523 451 524
f 524 451 450
f 524 450 476
f 476 523 524
f 540 467 542
f 542 467 466
f 542 466 541
f 541 466 465
f 541 465 543
f 543 465 464
f 543 464 544
f 544 464 463
f 544 463 545
f 545 463 462
f 545 462 546
f 546 462 461
f 546 461 547
f 547 461 548
f 547 548 534
f 534 548 533
f 533 548 549
f 533 549 532
f 532 549 531
f 531 549 550
f 531 550 530
f 530 550 551
f 530 551 529
f 529 551 552
f 529 552 528
f 528 552 553
f 528 553 527
f 527 553 554
f 527 554 526
f 526 554 555
f 526 555 525
f 525 555 523
f 523 555 452
f 523 452 451
f 461 460 548
f 548 460 549
f 460 459 549
f 549 459 458
f 549 458 550
f 550 458 457
f 550 457 551
f 551 457 456
f 551 456 552
f 552 456 455
f 552 455 553
f 553 455 454
f 553 454 554
f 554 454 453
f 554 453 555
f 555 453 452
f 547 534 546
f 546 534 535
f 546 535 545
f 545 535 536
f 545 536 544
f 544 536 537
f 544 537 543
f 543 537 538
f 543 538 541
f 541 538 539
f 541 539 542
f 542 539 540
f 487 431 556
f 556 431 467
f 556 467 540
f 540 487 556
f 557 504 558
f 558 504 483
f 558 483 488
f 488 557 558
f 521 520 575
f 575 520 519
f 575 519 574
f 574 519 518
f 574 518 576
f 576 518 517
f 576 517 577
f 577 517 516
f 577 516 578
f 578 516 515
f 578 515 579
f 579 515 514
f 579 514 580
f 580 514 581
f 580 581 568
f 568 581 567
f 567 581 582
f 567 582 566
f 566 582 565
f 565 582 583
f 565 583 564
f 564 583 584
f 564 584 563
f 563 584 585
f 563 585 562
f 562 585 586
f 562 586 561
f 561 586 587
f 561 587 560
f 560 587 588
f 560 588 559
f 559 588 557
f 557 588 505
f 557 505 504
f 514 513 581
f 581 513 582
f 513 512 582
f 582 512 511
f 582 511 583
f 583 511 510
f 583 510 584
f 584 510 509
f 584 509 585
f 585 509 508
f 585 508 586
f 586 508 507
f 586 507 587
f 587 507 506
f 587 506 588
f 588 506 505
f 580 568 579
f 579 568 569
f 579 569 578
f 578 569 570
f 578 570 577
f 577 570 571
f 577 571 576
f 576 571 572
f 576 572 574
f 574 572 573
f 574 573 575
f 575 573 521
f 521 598 475
f 475 598 599
f 475 599 600
f 573 595 521
f 521 595 596
f 521 596 597
f 595 573 594
f 594 573 572
f 594 572 593
f 593 572 592
f 592 572 571
f 592 571 591
f 591 571 570
f 591 570 590
f 590 570 569
f 590 569 589
f 589 569 568
f 589 568 567
f 589 567 384
f 384 567 566
f 384 566 565
f 384 565 385
f 385 565 564
f 385 564 563
f 385 563 386
f 386 563 562
f 386 562 387
f 387 562 561
f 387 561 388
f 388 561 560
f 388 560 389
f 389 560 390
f 390 560 559
f 390 559 391
f 391 559 557
f 391 557 392
f 392 557 393
f 393 557 394
f 394 557 488
f 394 488 395
f 395 488 396
f 396 488 487
f 396 487 397
f 397 487 398
f 398 487 540
f 398 540 399
f 399 540 400
f 400 540 401
f 401 540 539
f 401 539 402
f 402 539 538
f 402 538 403
f 403 538 404
f 404 538 537
f 404 537 405
f 405 537 536
f 405 536 406
f 406 536 535
f 406 535 407
f 407 535 534
f 407 534 533
f 407 533 358
f 358 533 532
f 358 532 531
f 358 531 611
f 611 531 530
f 611 530 529
f 611 529 610
f 610 529 528
f 610 528 609
f 609 528 527
f 609 527 608
f 608 527 526
f 608 526 607
f 607 526 606
f 606 526 525
f 606 525 605
f 605 525 523
f 605 523 604
f 604 523 603
f 603 523 602
f 602 523 476
f 602 476 601
f 601 476 600
f 600 476 475
f 597 598 521
f 634 359 638
f 638 359 358
f 638 358 611
f 638 611 637
f 637 611 610
f 637 610 639
f 639 610 609
f 639 609 608
f 639 608 640
f 640 608 607
f 640 607 606
f 640 606 641
f 641 606 605
f 641 605 642
f 642 605 604
f 642 604 603
f 642 603 643
f 643 603 602
f 643 602 644
f 644 602 601
f 644 601 645
f 645 601 600
f 645 600 646
f 646 600 647
f 646 647 623
f 623 647 622
f 622 647 648
f 622 648 635
f 635 648 599
f 635 599 598
f 600 599 647
f 647 599 648
f 635 598 649
f 649 598 597
f 649 597 650
f 650 597 596
f 650 596 651
f 651 596 595
f 651 595 652
f 652 595 594
f 652 594 593
f 652 593 653
f 653 593 592
f 653 592 654
f 654 592 591
f 654 591 655
f 655 591 590
f 655 590 636
f 636 590 589
f 636 589 657
f 657 589 656
f 657 656 612
f 612 656 383
f 383 656 384
f 384 656 589
f 657 612 636
f 636 612 613
f 636 613 655
f 655 613 614
f 655 614 654
f 654 614 615
f 654 615 653
f 653 615 616
f 653 616 652
f 652 616 617
f 652 617 618
f 652 618 651
f 651 618 619
f 651 619 650
f 650 619 620
f 650 620 649
f 649 620 621
f 649 621 635
f 635 621 622
f 646 623 645
f 645 623 624
f 645 624 644
f 644 624 625
f 644 625 643
f 643 625 626
f 643 626 642
f 642 626 627
f 642 627 628
f 642 628 641
f 641 628 629
f 641 629 640
f 640 629 630
f 640 630 631
f 640 631 639
f 639 631 632
f 639 632 633
f 639 633 637
f 637 633 634
f 637 634 638
f 360 359 658
f 658 359 634
f 658 634 633
f 633 632 658
f 658 632 631
f 658 631 630
f 630 629 658
f 658 629 628
f 658 628 627
f 627 626 658
f 658 626 625
f 658 625 624
f 624 623 658
f 658 623 622
f 658 622 621
f 621 620 658
f 658 620 619
f 658 619 618
f 618 617 658
f 658 617 616
f 658 616 615
f 615 614 658
f 658 614 613
f 658 613 612
f 612 383 658
f 658 383 382
f 658 382 381
f 381 380 658
f 658 380 379
f 658 379 378
f 378 377 658
f 658 377 376
f 658 376 375
f 375 374 658
f 658 374 373
f 658 373 372
f 372 371 658
f 658 371 370
f 658 370 369
f 369 368 658
f 658 368 367
f 658 367 366
f 366 365 658
f 658 365 364
f 658 364 363
f 363 362 658
f 658 362 361
f 658 361 360
f 480 479 666
f 666 479 496
f 666 496 667
f 667 496 495
f 667 495 668
f 668 495 494
f 668 494 669
f 669 494 493
f 669 493 670
f 670 493 492
f 670 492 671
f 671 492 491
f 671 491 672
f 672 491 490
f 672 490 473
f 473 472 672
f 672 472 659
f 672 659 671
f 671 659 660
f 671 660 670
f 670 660 661
f 670 661 669
f 669 661 662
f 669 662 668
f 668 662 663
f 668 663 667
f 667 663 664
f 667 664 666
f 666 664 665
f 666 665 480
f 485 484 680
f 680 484 503
f 680 503 681
f 681 503 502
f 681 502 682
f 682 502 501
f 682 501 683
f 683 501 500
f 683 500 684
f 684 500 499
f 684 499 685
f 685 499 498
f 685 498 686
f 686 498 497
f 686 497 478
f 478 481 686
f 686 481 673
f 686 673 685
f 685 673 674
f 685 674 684
f 684 674 675
f 684 675 683
f 683 675 676
f 683 676 682
f 682 676 677
f 682 677 681
f 681 677 678
f 681 678 680
f 680 678 679
f 680 679 485
f 468 440 694
f 694 440 439
f 694 439 695
f 695 439 438
f 695 438 696
f 696 438 437
f 696 437 697
f 697 437 436
f 697 436 698
f 698 436 435
f 698 435 699
f 699 435 434
f 699 434 700
f 700 434 433
f 700 433 432
f 432 486 700
f 700 486 687
f 700 687 699
f 699 687 688
f 699 688 698
f 698 688 689
f 698 689 697
f 697 689 690
f 697 690 696
f 696 690 691
f 696 691 695
f 695 691 692
f 695 692 694
f 694 692 693
f 694 693 468
f 471 449 708
f 708 449 448
f 708 448 709
f 709 448 447
f 709 447 710
f 710 447 446
f 710 446 711
f 711 446 445
f 711 445 712
f 712 445 444
f 712 444 713
f 713 444 443
f 713 443 714
f 714 443 442
f 714 442 441
f 441 469 714
f 714 469 701
f 714 701 713
f 713 701 702
f 713 702 712
f 712 702 703
f 712 703 711
f 711 703 704
f 711 704 710
f 710 704 705
f 710 705 709
f 709 705 706
f 709 706 708
f 708 706 707
f 708 707 471
f 764 715 767
f 767 715 716
f 767 716 717
f 718 766 717
f 717 766 768
f 717 768 767
f 767 768 764
f 766 718 769
f 769 718 719
f 769 719 770
f 770 719 720
f 770 720 771
f 771 720 721
f 771 721 772
f 772 721 722
f 772 722 723
f 772 723 773
f 773 723 724
f 773 724 774
f 774 724 725
f 774 725 775
f 775 725 726
f 775 726 765
f 765 726 727
f 765 727 776
f 776 727 777
f 776 777 754
f 754 777 753
f 753 777 778
f 753 778 779
f 779 778 728
f 779 728 729
f 727 728 777
f 777 728 778
f 779 729 780
f 780 729 730
f 780 730 781
f 781 730 731
f 781 731 782
f 782 731 732
f 782 732 733
f 782 733 783
f 783 733 734
f 783 734 784
f 784 734 735
f 784 735 736
f 784 736 785
f 785 736 737
f 785 737 738
f 785 738 786
f 786 738 739
f 786 739 787
f 787 739 740
f 787 740 741
f 741 742 787
f 787 742 786
f 742 743 786
f 786 743 785
f 743 744 785
f 785 744 745
f 785 745 784
f 784 745 746
f 784 746 747
f 784 747 783
f 783 747 748
f 783 748 782
f 782 748 749
f 782 749 750
f 782 750 781
f 781 750 751
f 781 751 780
f 780 751 752
f 780 752 779
f 779 752 753
f 776 754 765
f 765 754 755
f 765 755 775
f 775 755 756
f 775 756 774
f 774 756 757
f 774 757 773
f 773 757 758
f 773 758 772
f 772 758 759
f 772 759 760
f 772 760 771
f 771 760 761
f 771 761 770
f 770 761 762
f 770 762 769
f 769 762 763
f 769 763 766
f 766 763 764
f 766 764 768
f 824 788 823
f 823 788 789
f 823 789 822
f 822 789 821
f 821 789 820
f 820 789 790
f 820 790 819
f 819 790 818
f 818 790 791
f 818 791 792
f 792 793 818
f 818 793 817
f 817 793 794
f 817 794 797
f 797 794 795
f 797 795 796
f 817 797 816
f 816 797 798
f 816 798 815
f 815 798 801
f 815 801 802
f 799 800 798
f 798 800 801
f 815 802 814
f 814 802 803
f 814 803 804
f 804 805 814
f 814 805 813
f 813 805 812
f 812 805 806
f 812 806 811
f 811 806 810
f 810 806 809
f 809 806 807
f 809 807 808
f 826 798 827
f 827 798 797
f 827 797 825
f 825 826 827
f 829 834 828
f 828 834 833
f 828 833 806
f 806 833 807
f 834 829 832
f 832 829 830
f 832 830 831
f 832 833 834
f 838 835 839
f 839 835 836
f 839 836 837
f 837 838 839
f 840 841 845
f 845 841 842
f 845 842 846
f 846 842 843
f 846 843 844
f 844 843 789
f 844 789 788
f 844 845 846
f 877 831 876
f 876 831 830
f 876 830 875
f 875 830 874
f 874 830 873
f 873 830 847
f 873 847 872
f 872 847 871
f 871 847 848
f 871 848 849
f 849 850 871
f 871 850 870
f 870 850 851
f 870 851 836
f 836 851 852
f 836 852 853
f 870 836 869
f 869 836 835
f 869 835 868
f 868 835 856
f 868 856 857
f 854 855 835
f 835 855 856
f 868 857 867
f 867 857 858
f 867 858 859
f 859 860 867
f 867 860 866
f 866 860 865
f 865 860 841
f 865 841 864
f 864 841 863
f 863 841 862
f 862 841 840
f 862 840 861
f 832 831 879
f 879 831 877
f 879 877 878
f 878 832 879
f 880 808 881
f 881 808 807
f 881 807 833
f 833 880 881
f 897 824 899
f 899 824 823
f 899 823 898
f 898 823 822
f 898 822 900
f 900 822 821
f 900 821 901
f 901 821 820
f 901 820 902
f 902 820 819
f 902 819 903
f 903 819 818
f 903 818 904
f 904 818 905
f 904 905 891
f 891 905 890
f 890 905 906
f 890 906 889
f 889 906 888
f 888 906 907
f 888 907 887
f 887 907 908
f 887 908 886
f 886 908 909
f 886 909 885
f 885 909 910
f 885 910 884
f 884 910 911
f 884 911 883
f 883 911 912
f 883 912 882
f 882 912 880
f 880 912 809
f 880 809 808
f 818 817 905
f 905 817 906
f 817 816 906
f 906 816 815
f 906 815 907
f 907 815 814
f 907 814 908
f 908 814 813
f 908 813 909
f 909 813 812
f 909 812 910
f 910 812 811
f 910 811 911
f 911 811 810
f 911 810 912
f 912 810 809
f 904 891 903
f 903 891 892
f 903 892 902
f 902 892 893
f 902 893 901
f 901 893 894
f 901 894 900
f 900 894 895
f 900 895 898
f 898 895 896
f 898 896 899
f 899 896 897
f 844 788 913
f 913 788 824
f 913 824 897
f 897 844 913
f 914 861 915
f 915 861 840
f 915 840 845
f 845 914 915
f 878 877 932
f 932 877 876
f 932 876 931
f 931 876 875
f 931 875 933
f 933 875 874
f 933 874 934
f 934 874 873
f 934 873 935
f 935 873 872
f 935 872 936
f 936 872 871
f 936 871 937
f 937 871 938
f 937 938 925
f 925 938 924
f 924 938 939
f 924 939 923
f 923 939 922
f 922 939 940
f 922 940 921
f 921 940 941
f 921 941 920
f 920 941 942
f 920 942 919
f 919 942 943
f 919 943 918
f 918 943 944
f 918 944 917
f 917 944 945
f 917 945 916
f 916 945 914
f 914 945 862
f 914 862 861
f 871 870 938
f 938 870 939
f 870 869 939
f 939 869 868
f 939 868 940
f 940 868 867
f 940 867 941
f 941 867 866
f 941 866 942
f 942 866 865
f 942 865 943
f 943 865 864
f 943 864 944
f 944 864 863
f 944 863 945
f 945 863 862
f 937 925 936
f 936 925 926
f 936 926 935
f 935 926 927
f 935 927 934
f 934 927 928
f 934 928 933
f 933 928 929
f 933 929 931
f 931 929 930
f 931 930 932
f 932 930 878
f 878 955 832
f 832 955 956
f 832 956 957
f 930 952 878
f 878 952 953
f 878 953 954
f 952 930 951
f 951 930 929
f 951 929 950
f 950 929 949
f 949 929 928
f 949 928 948
f 948 928 927
f 948 927 947
f 947 927 926
f 947 926 946
f 946 926 925
f 946 925 924
f 946 924 741
f 741 924 923
f 741 923 922
f 741 922 742
f 742 922 921
f 742 921 920
f 742 920 743
f 743 920 919
f 743 919 744
f 744 919 918
f 744 918 745
f 745 918 917
f 745 917 746
f 746 917 747
f 747 917 916
f 747 916 748
f 748 916 914
f 748 914 749
f 749 914 750
f 750 914 751
f 751 914 845
f 751 845 752
f 752 845 753
f 753 845 844
f 753 844 754
f 754 844 755
f 755 844 897
f 755 897 756
f 756 897 757
f 757 897 758
f 758 897 896
f 758 896 759
f 759 896 895
f 759 895 760
f 760 895 761
f 761 895 894
f 761 894 762
f 762 894 893
f 762 893 763
f 763 893 892
f 763 892 764
f 764 892 891
f 764 891 890
f 764 890 715
f 715 890 889
f 715 889 888
f 715 888 968
f 968 888 887
f 968 887 886
f 968 886 967
f 967 886 885
f 967 885 966
f 966 885 884
f 966 884 965
f 965 884 883
f 965 883 964
f 964 883 963
f 963 883 882
f 963 882 962
f 962 882 880
f 962 880 961
f 961 880 960
f 960 880 959
f 959 880 833
f 959 833 958
f 958 833 957
f 957 833 832
f 954 955 878
f 991 716 995
f 995 716 715
f 995 715 968
f 995 968 994
f 994 968 967
f 994 967 996
f 996 967 966
f 996 966 965
f 996 965 997
f 997 965 964
f 997 964 963
f 997 963 998
f 998 963 962
f 998 962 999
f 999 962 961
f 999 961 960
f 999 960 1000
f 1000 960 959
f 1000 959 1001
f 1001 959 958
f 1001 958 1002
f 1002 958 957
f 1002 957 1003
f 1003 957 1004
f 1003 1004 980
f 980 1004 979
f 979 1004 1005
f 979 1005 992
f 992 1005 956
f 992 956 955
f 957 956 1004
f 1004 956 1005
f 992 955 1006
f 1006 955 954
f 1006 954 1007
f 1007 954 953
f 1007 953 1008
f 1008 953 952
f 1008 952 1009
f 1009 952 951
f 1009 951 950
f 1009 950 1010
f 1010 950 949
f 1010 949 1011
f 1011 949 948
f 1011 948 1012
f 1012 948 947
f 1012 947 993
f 993 947 946
f 993 946 1014
f 1014 946 1013
f 1014 1013 969
f 969 1013 740
f 740 1013 741
f 741 1013 946
f 1014 969 993
f 993 969 970
f 993 970 1012
f 1012 970 971
f 1012 971 1011
f 1011 971 972
f 1011 972 1010
f 1010 972 973
f 1010 973 1009
f 1009 973 974
f 1009 974 975
f 1009 975 1008
f 1008 975 976
f 1008 976 1007
f 1007 976 977
f 1007 977 1006
f 1006 977 978
f 1006 978 992
f 992 978 979
f 1003 980 1002
f 1002 980 981
f 1002 981 1001
f 1001 981 982
f 1001 982 1000
f 1000 982 983
f 1000 983 999
f 999 983 984
f 999 984 985
f 999 985 998
f 998 985 986
f 998 986 997
f 997 986 987
f 997 987 988
f 997 988 996
f 996 988 989
f 996 989 990
f 996 990 994
f 994 990 991
f 994 991 995
f 717 716 1015
f 1015 716 991
f 1015 991 990
f 990 989 1015
f 1015 989 988
f 1015 988 987
f 987 986 1015
f 1015 986 985
f 1015 985 984
f 984 983 1015
f 1015 983 982
f 1015 982 981
f 981 980 1015
f 1015 980 979
f 1015 979 978
f 978 977 1015
f 1015 977 976
f 1015 976 975
f 975 974 1015
f 1015 974 973
f 1015 973 972
f 972 971 1015
f 1015 971 970
f 1015 970 969
f 969 740 1015
f 1015 740 739
f 1015 739 738
f 738 737 1015
f 1015 737 736
f 1015 736 735
f 735 734 1015
f 1015 734 733
f 1015 733 732
f 732 731 1015
f 1015 731 730
f 1015 730 729
f 729 728 1015
f 1015 728 727
f 1015 727 726
f 726 725 1015
f 1015 725 724
f 1015 724 723
f 723 722 1015
f 1015 722 721
f 1015 721 720
f 720 719 1015
f 1015 719 718
f 1015 718 717
f 837 836 1023
f 1023 836 853
f 1023 853 1024
f 1024 853 852
f 1024 852 1025
f 1025 852 851
f 1025 851 1026
f 1026 851 850
f 1026 850 1027
f 1027 850 849
f 1027 849 1028
f 1028 849 848
f 1028 848 1029
f 1029 848 847
f 1029 847 830
f 830 829 1029
f 1029 829 1016
f 1029 1016 1028
f 1028 1016 1017
f 1028 1017 1027
f 1027 1017 1018
f 1027 1018 1026
f 1026 1018 1019
f 1026 1019 1025
f 1025 1019 1020
f 1025 1020 1024
f 1024 1020 1021
f 1024 1021 1023
f 1023 1021 1022
f 1023 1022 837
f 842 841 1037
f 1037 841 860
f 1037 860 1038
f 1038 860 859
f 1038 859 1039
f 1039 859 858
f 1039 858 1040
f 1040 858 857
f 1040 857 1041
f 1041 857 856
f 1041 856 1042
f 1042 856 855
f 1042 855 1043
f 1043 855 854
f 1043 854 835
f 835 838 1043
f 1043 838 1030
f 1043 1030 1042
f 1042 1030 1031
f 1042 1031 1041
f 1041 1031 1032
f 1041 1032 1040
f 1040 1032 1033
f 1040 1033 1039
f 1039 1033 1034
f 1039 1034 1038
f 1038 1034 1035
f 1038 1035 1037
f 1037 1035 1036
f 1037 1036 842
f 825 797 1051
f 1051 797 796
f 1051 796 1052
f 1052 796 795
f 1052 795 1053
f 1053 795 794
f 1053 794 1054
f 1054 794 793
f 1054 793 1055
f 1055 793 792
f 1055 792 1056
f 1056 792 791
f 1056 791 1057
f 1057 791 790
f 1057 790 789
f 789 843 1057
f 1057 843 1044
f 1057 1044 1056
f 1056 1044 1045
f 1056 1045 1055
f 1055 1045 1046
f 1055 1046 1054
f 1054 1046 1047
f 1054 1047 1053
f 1053 1047 1048
f 1053 1048 1052
f 1052 1048 1049
f 1052 1049 1051
f 1051 1049 1050
f 1051 1050 825
f 828 806 1065
f 1065 806 805
f 1065 805 1066
f 1066 805 804
f 1066 804 1067
f 1067 804 803
f 1067 803 1068
f 1068 803 802
f 1068 802 1069
f 1069 802 801
f 1069 801 1070
f 1070 801 800
f 1070 800 1071
f 1071 800 799
f 1071 799 798
f 798 826 1071
f 1071 826 1058
f 1071 1058 1070
f 1070 1058 1059
f 1070 1059 1069
f 1069 1059 1060
f 1069 1060 1068
f 1068 1060 1061
f 1068 1061 1067
f 1067 1061 1062
f 1067 1062 1066
f 1066 1062 1063
f 1066 1063 1065
f 1065 1063 1064
f 1065 1064 828
f 1121 1072 1124
f 1124 1072 1073
f 1124 1073 1074
f 1075 1123 1074
f 1074 1123 1125
f 1074 1125 1124
f 1124 1125 1121
f 1123 1075 1126
f 1126 1075 1076
f 1126 1076 1127
f 1127 1076 1077
f 1127 1077 1128
f 1128 1077 1078
f 1128 1078 1129
f 1129 1078 1079
f 1129 1079 1080
f 1129 1080 1130
f 1130 1080 1081
f 1130 1081 1131
f 1131 1081 1082
f 1131 1082 1132
f 1132 1082 1083
f 1132 1083 1122
f 1122 1083 1084
f 1122 1084 1133
f 1133 1084 1134
f 1133 1134 1111
f 1111 1134 1110
f 1110 1134 1135
f 1110 1135 1136
f 1136 1135 1085
f 1136 1085 1086
f 1084 1085 1134
f 1134 1085 1135
f 1136 1086 1137
f 1137 1086 1087
f 1137 1087 1138
f 1138 1087 1088
f 1138 1088 1139
f 1139 1088 1089
f 1139 1089 1090
f 1139 1090 1140
f 1140 1090 1091
f 1140 1091 1141
f 1141 1091 1092
f 1141 1092 1093
f 1141 1093 1142
f 1142 1093 1094
f 1142 1094 1095
f 1142 1095 1143
f 1143 1095 1096
f 1143 1096 1144
f 1144 1096 1097
f 1144 1097 1098
f 1098 1099 1144
f 1144 1099 1143
f 1099 1100 1143
f 1143 1100 1142
f 1100 1101 1142
f 1142 1101 1102
f 1142 1102 1141
f 1141 1102 1103
f 1141 1103 1104
f 1141 1104 1140
f 1140 1104 1105
f 1140 1105 1139
f 1139 1105 1106
f 1139 1106 1107
f 1139 1107 1138
f 1138 1107 1108
f 1138 1108 1137
f 1137 1108 1109
f 1137 1109 1136
f 1136 1109 1110
f 1133 1111 1122
f 1122 1111 1112
f 1122 1112 1132
f 1132 1112 1113
f 1132 1113 1131
f 1131 1113 1114
f 1131 1114 1130
f 1130 1114 1115
f 1130 1115 1129
f 1129 1115 1116
f 1129 1116 1117
f 1129 1117 1128
f 1128 1117 1118
f 1128 1118 1127
f 1127 1118 1119
f 1127 1119 1126
f 1126 1119 1120
f 1126 1120 1123
f 1123 1120 1121
f 1123 1121 1125
f 1181 1145 1180
f 1180 1145 1146
f 1180 1146 1179
f 1179 1146 1178
f 1178 1146 1177
f 1177 1146 1147
f 1177 1147 1176
f 1176 1147 1175
f 1175 1147 1148
f 1175 1148 1149
f 1149 1150 1175
f 1175 1150 1174
f 1174 1150 1151
f 1174 1151 1154
f 1154 1151 1152
f 1154 1152 1153
f 1174 1154 1173
f 1173 1154 1155
f 1173 1155 1172
f 1172 1155 1158
f 1172 1158 1159
f 1156 1157 1155
f 1155 1157 1158
f 1172 1159 1171
f 1171 1159 1160
f 1171 1160 1161
f 1161 1162 1171
f 1171 1162 1170
f 1170 1162 1169
f 1169 1162 1163
f 1169 1163 1168
f 1168 1163 1167
f 1167 1163 1166
f 1166 1163 1164
f 1166 1164 1165
f 1183 1155 1184
f 1184 1155 1154
f 1184 1154 1182
f 1182 1183 1184
f 1186 1191 1185
f 1185 1191 1190
f 1185 1190 1163
f 1163 1190 1164
f 1191 1186 1189
f 1189 1186 1187
f 1189 1187 1188
f 1189 1190 1191
f 1195 1192 1196
f 1196 1192 1193
f 1196 1193 1194
f 1194 1195 1196
f 1197 1198 1202
f 1202 1198 1199
f 1202 1199 1203
f 1203 1199 1200
f 1203 1200 1201
f 1201 1200 1146
f 1201 1146 1145
f 1201 1202 1203
f 1234 1188 1233
f 1233 1188 1187
f 1233 1187 1232
f 1232 1187 1231
f 1231 1187 1230
f 1230 1187 1204
f 1230 1204 1229
f 1229 1204 1228
f 1228 1204 1205
f 1228 1205 1206
f 1206 1207 1228
f 1228 1207 1227
f 1227 1207 1208
f 1227 1208 1193
f 1193 1208 1209
f 1193 1209 1210
f 1227 1193 1226
f 1226 1193 1192
f 1226 1192 1225
f 1225 1192 1213
f 1225 1213 1214
f 1211 1212 1192
f 1192 1212 1213
f 1225 1214 1224
f 1224 1214 1215
f 1224 1215 1216
f 1216 1217 1224
f 1224 1217 1223
f 1223 1217 1222
f 1222 1217 1198
f 1222 1198 1221
f 1221 1198 1220
f 1220 1198 1219
f 1219 1198 1197
f 1219 1197 1218
f 1189 1188 1236
f 1236 1188 1234
f 1236 1234 1235
f 1235 1189 1236
f 1237 1165 1238
f 1238 1165 1164
f 1238 1164 1190
f 1190 1237 1238
f 1254 1181 1256
f 1256 1181 1180
f 1256 1180 1255
f 1255 1180 1179
f 1255 1179 1257
f 1257 1179 1178
f 1257 1178 1258
f 1258 1178 1177
f 1258 1177 1259
f 1259 1177 1176
f 1259 1176 1260
f 1260 1176 1175
f 1260 1175 1261
f 1261 1175 1262
f 1261 1262 1248
f 1248 1262 1247
f 1247 1262 1263
f 1247 1263 1246
f 1246 1263 1245
f 1245 1263 1264
f 1245 1264 1244
f 1244 1264 1265
f 1244 1265 1243
f 1243 1265 1266
f 1243 1266 1242
f 1242 1266 1267
f 1242 1267 1241
f 1241 1267 1268
f 1241 1268 1240
f 1240 1268 1269
f 1240 1269 1239
f 1239 1269 1237
f 1237 1269 1166
f 1237 1166 1165
f 1175 1174 1262
f 1262 1174 1263
f 1174 1173 1263
f 1263 1173 1172
f 1263 1172 1264
f 1264 1172 1171
f 1264 1171 1265
f 1265 1171 1170
f 1265 1170 1266
f 1266 1170 1169
f 1266 1169 1267
f 1267 1169 1168
f 1267 1168 1268
f 1268 1168 1167
f 1268 1167 1269
f 1269 1167 1166
f 1261 1248 1260
f 1260 1248 1249
f 1260 1249 1259
f 1259 1249 1250
f 1259 1250 1258
f 1258 1250 1251
f 1258 1251 1257
f 1257 1251 1252
f 1257 1252 1255
f 1255 1252 1253
f 1255 1253 1256
f 1256 1253 1254
f 1201 1145 1270
f 1270 1145 1181
f 1270 1181 1254
f 1254 1201 1270
f 1271 1218 1272
f 1272 1218 1197
f 1272 1197 1202
f 1202 1271 1272
f 1235 1234 1289
f 1289 1234 1233
f 1289 1233 1288
f 1288 1233 1232
f 1288 1232 1290
f 1290 1232 1231
f 1290 1231 1291
f 1291 1231 1230
f 1291 1230 1292
f 1292 1230 1229
f 1292 1229 1293
f 1293 1229 1228
f 1293 1228 1294
f 1294 1228 1295
f 1294 1295 1282
f 1282 1295 1281
f 1281 1295 1296
f 1281 1296 1280
f 1280 1296 1279
f 1279 1296 1297
f 1279 1297 1278
f 1278 1297 1298
f 1278 1298 1277
f 1277 1298 1299
f 1277 1299 1276
f 1276 1299 1300
f 1276 1300 1275
f 1275 1300 1301
f 1275 1301 1274
f 1274 1301 1302
f 1274 1302 1273
f 1273 1302 1271
f 1271 1302 1219
f 1271 1219 1218
f 1228 1227 1295
f 1295 1227 1296
f 1227 1226 1296
f 1296 1226 1225
f 1296 1225 1297
f 1297 1225 1224
f 1297 1224 1298
f 1298 1224 1223
f 1298 1223 1299
f 1299 1223 1222
f 1299 1222 1300
f 1300 1222 1221
f 1300 1221 1301
f 1301 1221 1220
f 1301 1220 1302
f 1302 1220 1219
f 1294 1282 1293
f 1293 1282 1283
f 1293 1283 1292
f 1292 1283 1284
f 1292 1284 1291
f 1291 1284 1285
f 1291 1285 1290
f 1290 1285 1286
f 1290 1286 1288
f 1288 1286 1287
f 1288 1287 1289
f 1289 1287 1235
f 1235 1312 1189
f 1189 1312 1313
f 1189 1313 1314
f 1287 1309 1235
f 1235 1309 1310
f 1235 1310 1311
f 1309 1287 1308
f 1308 1287 1286
f 1308 1286 1307
f 1307 1286 1306
f 1306 1286 1285
f 1306 1285 1305
f 1305 1285 1284
f 1305 1284 1304
f 1304 1284 1283
f 1304 1283 1303
f 1303 1283 1282
f 1303 1282 1281
f 1303 1281 1098
f 1098 1281 1280
f 1098 1280 1279
f 1098 1279 1099
f 1099 1279 1278
f 1099 1278 1277
f 1099 1277 1100
f 1100 1277 1276
f 1100 1276 1101
f 1101 1276 1275
f 1101 1275 1102
f 1102 1275 1274
f 1102 1274 1103
f 1103 1274 1104
f 1104 1274 1273
f 1104 1273 1105
f 1105 1273 1271
f 1105 1271 1106
f 1106 1271 1107
f 1107 1271 1108
f 1108 1271 1202
f 1108 1202 1109
f 1109 1202 1110
f 1110 1202 1201
f 1110 1201 1111
f 1111 1201 1112
f 1112 1201 1254
f 1112 1254 1113
f 1113 1254 1114
f 1114 1254 1115
f 1115 1254 1253
f 1115 1253 1116
f 1116 1253 1252
f 1116 1252 1117
f 1117 1252 1118
f 1118 1252 1251
f 1118 1251 1119
f 1119 1251 1250
f 1119 1250 1120
f 1120 1250 1249
f 1120 1249 1121
f 1121 1249 1248
f 1121 1248 1247
f 1121 1247 1072
f 1072 1247 1246
f 1072 1246 1245
f 1072 1245 1325
f 1325 1245 1244
f 1325 1244 1243
f 1325 1243 1324
f 1324 1243 1242
f 1324 1242 1323
f 1323 1242 1241
f 1323 1241 1322
f 1322 1241 1240
f 1322 1240 1321
f 1321 1240 1320
f 1320 1240 1239
f 1320 1239 1319
f 1319 1239 1237
f 1319 1237 1318
f 1318 1237 1317
f 1317 1237 1316
f 1316 1237 1190
f 1316 1190 1315
f 1315 1190 1314
f 1314 1190 1189
f 1311 1312 1235
f 1348 1073 1352
f 1352 1073 1072
f 1352 1072 1325
f 1352 1325 1351
f 1351 1325 1324
f 1351 1324 1353
f 1353 1324 1323
f 1353 1323 1322
f 1353 1322 1354
f 1354 1322 1321
f 1354 1321 1320
f 1354 1320 1355
f 1355 1320 1319
f 1355 1319 1356
f 1356 1319 1318
f 1356 1318 1317
f 1356 1317 1357
f 1357 1317 1316
f 1357 1316 1358
f 1358 1316 1315
f 1358 1315 1359
f 1359 1315 1314
f 1359 1314 1360
f 1360 1314 1361
f 1360 1361 1337
f 1337 1361 1336
f 1336 1361 1362
f 1336 1362 1349
f 1349 1362 1313
f 1349 1313 1312
f 1314 1313 1361
f 1361 1313 1362
f 1349 1312 1363
f 1363 1312 1311
f 1363 1311 1364
f 1364 1311 1310
f 1364 1310 1365
f 1365 1310 1309
f 1365 1309 1366
f 1366 1309 1308
f 1366 1308 1307
f 1366 1307 1367
f 1367 1307 1306
f 1367 1306 1368
f 1368 1306 1305
f 1368 1305 1369
f 1369 1305 1304
f 1369 1304 1350
f 1350 1304 1303
f 1350 1303 1371
f 1371 1303 1370
f 1371 1370 1326
f 1326 1370 1097
f 1097 1370 1098
f 1098 1370 1303
f 1371 1326 1350
f 1350 1326 1327
f 1350 1327 1369
f 1369 1327 1328
f 1369 1328 1368
f 1368 1328 1329
f 1368 1329 1367
f 1367 1329 1330
f 1367 1330 1366
f 1366 1330 1331
f 1366 1331 1332
f 1366 1332 1365
f 1365 1332 1333
f 1365 1333 1364
f 1364 1333 1334
f 1364 1334 1363
f 1363 1334 1335
f 1363 1335 1349
f 1349 1335 1336
f 1360 1337 1359
f 1359 1337 1338
f 1359 1338 1358
f 1358 1338 1339
f 1358 1339 1357
f 1357 1339 1340
f 1357 1340 1356
f 1356 1340 1341
f 1356 1341 1342
f 1356 1342 1355
f 1355 1342 1343
f 1355 1343 1354
f 1354 1343 1344
f 1354 1344 1345
f 1354 1345 1353
f 1353 1345 1346
f 1353 1346 1347
f 1353 1347 1351
f 1351 1347 1348
f 1351 1348 1352
f 1074 1073 1372
f 1372 1073 1348
f 1372 1348 1347
f 1347 1346 1372
f 1372 1346 1345
f 1372 1345 1344
f 1344 1343 1372
f 1372 1343 1342
f 1372 1342 1341
f 1341 1340 1372
f 1372 1340 1339
f 1372 1339 1338
f 1338 1337 1372
f 1372 1337 1336
f 1372 1336 1335
f 1335 1334 1372
f 1372 1334 1333
f 1372 1333 1332
f 1332 1331 1372
f 1372 1331 1330
f 1372 1330 1329
f 1329 1328 1372
f 1372 1328 1327
f 1372 1327 1326
f 1326 1097 1372
f 1372 1097 1096
f 1372 1096 1095
f 1095 1094 1372
f 1372 1094 1093
f 1372 1093 1092
f 1092 1091 1372
f 1372 1091 1090
f 1372 1090 1089
f 1089 1088 1372
f 1372 1088 1087
f 1372 1087 1086
f 1086 1085 1372
f 1372 1085 1084
f 1372 1084 1083
f 1083 1082 1372
f 1372 1082 1081
f 1372 1081 1080
f 1080 1079 1372
f 1372 1079 1078
f 1372 1078 1077
f 1077 1076 1372
f 1372 1076 1075
f 1372 1075 1074
f 1194 1193 1380
f 1380 1193 1210
f 1380 1210 1381
f 1381 1210 1209
f 1381 1209 1382
f 1382 1209 1208
f 1382 1208 1383
f 1383 1208 1207
f 1383 1207 1384
f 1384 1207 1206
f 1384 1206 1385
f 1385 1206 1205
f 1385 1205 1386
f 1386 1205 1204
f 1386 1204 1187
f 1187 1186 1386
f 1386 1186 1373
f 1386 1373 1385
f 1385 1373 1374
f 1385 1374 1384
f 1384 1374 1375
f 1384 1375 1383
f 1383 1375 1376
f 1383 1376 1382
f 1382 1376 1377
f 1382 1377 1381
f 1381 1377 1378
f 1381 1378 1380
f 1380 1378 1379
f 1380 1379 1194
f 1199 1198 1394
f 1394 1198 1217
f 1394 1217 1395
f 1395 1217 1216
f 1395 1216 1396
f 1396 1216 1215
f 1396 1215 1397
f 1397 1215 1214
f 1397 1214 1398
f 1398 1214 1213
f 1398 1213 1399
f 1399 1213 1212
f 1399 1212 1400
f 1400 1212 1211
f 1400 1211 1192
f 1192 1195 1400
f 1400 1195 1387
f 1400 1387 1399
f 1399 1387 1388
f 1399 1388 1398
f 1398 1388 1389
f 1398 1389 1397
f 1397 1389 1390
f 1397 1390 1396
f 1396 1390 1391
f 1396 1391 1395
f 1395 1391 1392
f 1395 1392 1394
f 1394 1392 1393
f 1394 1393 1199
f 1182 1154 1408
f 1408 1154 1153
f 1408 1153 1409
f 1409 1153 1152
f 1409 1152 1410
f 1410 1152 1151
f 1410 1151 1411
f 1411 1151 1150
f 1411 1150 1412
f 1412 1150 1149
f 1412 1149 1413
f 1413 1149 1148
f 1413 1148 1414
f 1414 1148 1147
f 1414 1147 1146
f 1146 1200 1414
f 1414 1200 1401
f 1414 1401 1413
f 1413 1401 1402
f 1413 1402 1412
f 1412 1402 1403
f 1412 1403 1411
f 1411 1403 1404
f 1411 1404 1410
f 1410 1404 1405
f 1410 1405 1409
f 1409 1405 1406
f 1409 1406 1408
f 1408 1406 1407
f 1408 1407 1182
f 1185 1163 1422
f 1422 1163 1162
f 1422 1162 1423
f 1423 1162 1161
f 1423 1161 1424
f 1424 1161 1160
f 1424 1160 1425
f 1425 1160 1159
f 1425 1159 1426
f 1426 1159 1158
f 1426 1158 1427
f 1427 1158 1157
f 1427 1157 1428
f 1428 1157 1156
f 1428 1156 1155
f 1155 1183 1428
f 1428 1183 1415
f 1428 1415 1427
f 1427 1415 1416
f 1427 1416 1426
f 1426 1416 1417
f 1426 1417 1425
f 1425 1417 1418
f 1425 1418 1424
f 1424 1418 1419
f 1424 1419 1423
f 1423 1419 1420
f 1423 1420 1422
f 1422 1420 1421
f 1422 1421 1185
