v 0.229089 -0.069947 0.179467
v 0.229089 -0.069947 0.174467
v 0.229044 -0.070447 0.174467
v 0.228896 -0.070959 0.174467
v 0.228641 -0.071451 0.174467
v 0.228284 -0.071891 0.174467
v 0.227844 -0.072248 0.174467
v 0.227352 -0.072503 0.174467
v 0.226840 -0.072651 0.174467
v 0.226339 -0.072697 0.174467
v 0.225839 -0.072651 0.174467
v 0.225327 -0.072503 0.174467
v 0.224835 -0.072248 0.174467
v 0.224395 -0.071891 0.174467
v 0.224038 -0.071451 0.174467
v 0.223783 -0.070959 0.174467
v 0.223635 -0.070447 0.174467
v 0.223589 -0.069947 0.174467
v 0.223589 -0.069947 0.179467
v 0.223635 -0.070447 0.179467
v 0.223783 -0.070959 0.179467
v 0.224038 -0.071451 0.179467
v 0.224395 -0.071891 0.179467
v 0.224835 -0.072248 0.179467
v 0.225327 -0.072503 0.179467
v 0.225839 -0.072651 0.179467
v 0.226339 -0.072697 0.179467
v 0.226840 -0.072651 0.179467
v 0.227352 -0.072503 0.179467
v 0.227844 -0.072248 0.179467
v 0.228284 -0.071891 0.179467
v 0.228641 -0.071451 0.179467
v 0.228896 -0.070959 0.179467
v 0.229044 -0.070447 0.179467
v 0.228949 -0.070813 0.176967
v 0.229056 -0.070374 0.176967
v 0.228764 -0.071245 0.176967
v 0.228500 -0.071648 0.176967
v 0.228166 -0.072003 0.176967
v 0.227776 -0.072291 0.176967
v 0.227352 -0.072503 0.176967
v 0.226913 -0.072636 0.176967
v 0.226339 -0.072697 0.176967
v 0.225766 -0.072636 0.176967
v 0.225183 -0.072442 0.176967
v 0.224638 -0.072107 0.176967
v 0.224179 -0.071648 0.176967
v 0.223844 -0.071103 0.176967
v 0.223650 -0.070520 0.176967
v 0.264014 -0.069947 0.179467
v 0.264014 -0.069947 0.174467
v 0.263969 -0.070447 0.174467
v 0.263821 -0.070959 0.174467
v 0.263566 -0.071451 0.174467
v 0.263209 -0.071891 0.174467
v 0.262769 -0.072248 0.174467
v 0.262277 -0.072503 0.174467
v 0.261765 -0.072651 0.174467
v 0.261264 -0.072697 0.174467
v 0.260764 -0.072651 0.174467
v 0.260252 -0.072503 0.174467
v 0.259760 -0.072248 0.174467
v 0.259320 -0.071891 0.174467
v 0.258963 -0.071451 0.174467
v 0.258708 -0.070959 0.174467
v 0.258560 -0.070447 0.174467
v 0.258514 -0.069947 0.174467
v 0.258514 -0.069947 0.179467
v 0.258560 -0.070447 0.179467
v 0.258708 -0.070959 0.179467
v 0.258963 -0.071451 0.179467
v 0.259320 -0.071891 0.179467
v 0.259760 -0.072248 0.179467
v 0.260252 -0.072503 0.179467
v 0.260764 -0.072651 0.179467
v 0.261264 -0.072697 0.179467
v 0.261765 -0.072651 0.179467
v 0.262277 -0.072503 0.179467
v 0.262769 -0.072248 0.179467
v 0.263209 -0.071891 0.179467
v 0.263566 -0.071451 0.179467
v 0.263821 -0.070959 0.179467
v 0.263969 -0.070447 0.179467
v 0.263874 -0.070813 0.176967
v 0.263981 -0.070374 0.176967
v 0.263689 -0.071245 0.176967
v 0.263425 -0.071648 0.176967
v 0.263091 -0.072003 0.176967
v 0.262701 -0.072291 0.176967
v 0.262277 -0.072503 0.176967
v 0.261838 -0.072636 0.176967
v 0.261264 -0.072697 0.176967
v 0.260691 -0.072636 0.176967
v 0.260108 -0.072442 0.176967
v 0.259563 -0.072107 0.176967
v 0.259104 -0.071648 0.176967
v 0.258769 -0.071103 0.176967
v 0.258575 -0.070520 0.176967
v 0.264014 0.069753 0.179467
v 0.264014 0.069753 0.174467
v 0.263969 0.069253 0.174467
v 0.263821 0.068741 0.174467
v 0.263566 0.068249 0.174467
v 0.263209 0.067809 0.174467
v 0.262769 0.067452 0.174467
v 0.262277 0.067197 0.174467
v 0.261765 0.067049 0.174467
v 0.261264 0.067003 0.174467
v 0.260764 0.067049 0.174467
v 0.260252 0.067197 0.174467
v 0.259760 0.067452 0.174467
v 0.259320 0.067809 0.174467
v 0.258963 0.068249 0.174467
v 0.258708 0.068741 0.174467
v 0.258560 0.069253 0.174467
v 0.258514 0.069753 0.174467
v 0.258514 0.069753 0.179467
v 0.258560 0.069253 0.179467
v 0.258708 0.068741 0.179467
v 0.258963 0.068249 0.179467
v 0.259320 0.067809 0.179467
v 0.259760 0.067452 0.179467
v 0.260252 0.067197 0.179467
v 0.260764 0.067049 0.179467
v 0.261264 0.067003 0.179467
v 0.261765 0.067049 0.179467
v 0.262277 0.067197 0.179467
v 0.262769 0.067452 0.179467
v 0.263209 0.067809 0.179467
v 0.263566 0.068249 0.179467
v 0.263821 0.068741 0.179467
v 0.263969 0.069253 0.179467
v 0.263874 0.068887 0.176967
v 0.263981 0.069326 0.176967
v 0.263689 0.068455 0.176967
v 0.263425 0.068052 0.176967
v 0.263091 0.067697 0.176967
v 0.262701 0.067409 0.176967
v 0.262277 0.067197 0.176967
v 0.261838 0.067064 0.176967
v 0.261264 0.067003 0.176967
v 0.260691 0.067064 0.176967
v 0.260108 0.067258 0.176967
v 0.259563 0.067593 0.176967
v 0.259104 0.068052 0.176967
v 0.258769 0.068597 0.176967
v 0.258575 0.069180 0.176967
v 0.229089 0.069753 0.179467
v 0.229089 0.069753 0.174467
v 0.229044 0.069253 0.174467
v 0.228896 0.068741 0.174467
v 0.228641 0.068249 0.174467
v 0.228284 0.067809 0.174467
v 0.227844 0.067452 0.174467
v 0.227352 0.067197 0.174467
v 0.226840 0.067049 0.174467
v 0.226339 0.067003 0.174467
v 0.225839 0.067049 0.174467
v 0.225327 0.067197 0.174467
v 0.224835 0.067452 0.174467
v 0.224395 0.067809 0.174467
v 0.224038 0.068249 0.174467
v 0.223783 0.068741 0.174467
v 0.223635 0.069253 0.174467
v 0.223589 0.069753 0.174467
v 0.223589 0.069753 0.179467
v 0.223635 0.069253 0.179467
v 0.223783 0.068741 0.179467
v 0.224038 0.068249 0.179467
v 0.224395 0.067809 0.179467
v 0.224835 0.067452 0.179467
v 0.225327 0.067197 0.179467
v 0.225839 0.067049 0.179467
v 0.226339 0.067003 0.179467
v 0.226840 0.067049 0.179467
v 0.227352 0.067197 0.179467
v 0.227844 0.067452 0.179467
v 0.228284 0.067809 0.179467
v 0.228641 0.068249 0.179467
v 0.228896 0.068741 0.179467
v 0.229044 0.069253 0.179467
v 0.228949 0.068887 0.176967
v 0.229056 0.069326 0.176967
v 0.228764 0.068455 0.176967
v 0.228500 0.068052 0.176967
v 0.228166 0.067697 0.176967
v 0.227776 0.067409 0.176967
v 0.227352 0.067197 0.176967
v 0.226913 0.067064 0.176967
v 0.226339 0.067003 0.176967
v 0.225766 0.067064 0.176967
v 0.225183 0.067258 0.176967
v 0.224638 0.067593 0.176967
v 0.224179 0.068052 0.176967
v 0.223844 0.068597 0.176967
v 0.223650 0.069180 0.176967
v 0.229044 0.070254 0.179467
v 0.228896 0.070766 0.179467
v 0.228641 0.071258 0.179467
v 0.228284 0.071698 0.179467
v 0.227844 0.072055 0.179467
v 0.227352 0.072310 0.179467
v 0.226840 0.072458 0.179467
v 0.226339 0.072503 0.179467
v 0.225839 0.072458 0.179467
v 0.225327 0.072310 0.179467
v 0.224835 0.072055 0.179467
v 0.224395 0.071698 0.179467
v 0.224038 0.071258 0.179467
v 0.223783 0.070766 0.179467
v 0.223635 0.070254 0.179467
v 0.223635 0.070254 0.174467
v 0.223783 0.070766 0.174467
v 0.224038 0.071258 0.174467
v 0.224395 0.071698 0.174467
v 0.224835 0.072055 0.174467
v 0.225327 0.072310 0.174467
v 0.225839 0.072458 0.174467
v 0.226339 0.072503 0.174467
v 0.226840 0.072458 0.174467
v 0.227352 0.072310 0.174467
v 0.227844 0.072055 0.174467
v 0.228284 0.071698 0.174467
v 0.228641 0.071258 0.174467
v 0.228896 0.070766 0.174467
v 0.229044 0.070254 0.174467
v 0.229029 0.070327 0.176967
v 0.228834 0.070910 0.176967
v 0.228500 0.071455 0.176967
v 0.228041 0.071914 0.176967
v 0.227496 0.072249 0.176967
v 0.226913 0.072443 0.176967
v 0.226339 0.072503 0.176967
v 0.225766 0.072443 0.176967
v 0.225327 0.072310 0.176967
v 0.224903 0.072098 0.176967
v 0.224513 0.071810 0.176967
v 0.224179 0.071455 0.176967
v 0.223915 0.071052 0.176967
v 0.223730 0.070620 0.176967
v 0.223623 0.070181 0.176967
v 0.263969 0.070254 0.179467
v 0.263821 0.070766 0.179467
v 0.263566 0.071258 0.179467
v 0.263209 0.071698 0.179467
v 0.262769 0.072055 0.179467
v 0.262277 0.072310 0.179467
v 0.261765 0.072458 0.179467
v 0.261264 0.072503 0.179467
v 0.260764 0.072458 0.179467
v 0.260252 0.072310 0.179467
v 0.259760 0.072055 0.179467
v 0.259320 0.071698 0.179467
v 0.258963 0.071258 0.179467
v 0.258708 0.070766 0.179467
v 0.258560 0.070254 0.179467
v 0.258560 0.070254 0.174467
v 0.258708 0.070766 0.174467
v 0.258963 0.071258 0.174467
v 0.259320 0.071698 0.174467
v 0.259760 0.072055 0.174467
v 0.260252 0.072310 0.174467
v 0.260764 0.072458 0.174467
v 0.261264 0.072503 0.174467
v 0.261765 0.072458 0.174467
v 0.262277 0.072310 0.174467
v 0.262769 0.072055 0.174467
v 0.263209 0.071698 0.174467
v 0.263566 0.071258 0.174467
v 0.263821 0.070766 0.174467
v 0.263969 0.070254 0.174467
v 0.263954 0.070327 0.176967
v 0.263759 0.070910 0.176967
v 0.263425 0.071455 0.176967
v 0.262966 0.071914 0.176967
v 0.262421 0.072248 0.176967
v 0.261838 0.072443 0.176967
v 0.261264 0.072503 0.176967
v 0.260691 0.072443 0.176967
v 0.260252 0.072310 0.176967
v 0.259828 0.072098 0.176967
v 0.259438 0.071810 0.176967
v 0.259104 0.071455 0.176967
v 0.258840 0.071052 0.176967
v 0.258655 0.070620 0.176967
v 0.258548 0.070181 0.176967
v 0.263969 -0.069446 0.179467
v 0.263821 -0.068934 0.179467
v 0.263566 -0.068442 0.179467
v 0.263209 -0.068002 0.179467
v 0.262769 -0.067645 0.179467
v 0.262277 -0.067390 0.179467
v 0.261765 -0.067242 0.179467
v 0.261264 -0.067197 0.179467
v 0.260764 -0.067242 0.179467
v 0.260252 -0.067390 0.179467
v 0.259760 -0.067645 0.179467
v 0.259320 -0.068002 0.179467
v 0.258963 -0.068442 0.179467
v 0.258708 -0.068934 0.179467
v 0.258560 -0.069446 0.179467
v 0.258560 -0.069446 0.174467
v 0.258708 -0.068934 0.174467
v 0.258963 -0.068442 0.174467
v 0.259320 -0.068002 0.174467
v 0.259760 -0.067645 0.174467
v 0.260252 -0.067390 0.174467
v 0.260764 -0.067242 0.174467
v 0.261264 -0.067197 0.174467
v 0.261765 -0.067242 0.174467
v 0.262277 -0.067390 0.174467
v 0.262769 -0.067645 0.174467
v 0.263209 -0.068002 0.174467
v 0.263566 -0.068442 0.174467
v 0.263821 -0.068934 0.174467
v 0.263969 -0.069446 0.174467
v 0.263954 -0.069373 0.176967
v 0.263759 -0.068790 0.176967
v 0.263425 -0.068245 0.176967
v 0.262966 -0.067786 0.176967
v 0.262421 -0.067452 0.176967
v 0.261838 -0.067257 0.176967
v 0.261264 -0.067197 0.176967
v 0.260691 -0.067257 0.176967
v 0.260252 -0.067390 0.176967
v 0.259828 -0.067602 0.176967
v 0.259438 -0.067890 0.176967
v 0.259104 -0.068245 0.176967
v 0.258840 -0.068648 0.176967
v 0.258655 -0.069080 0.176967
v 0.258548 -0.069519 0.176967
v 0.229044 -0.069446 0.179467
v 0.228896 -0.068934 0.179467
v 0.228641 -0.068442 0.179467
v 0.228284 -0.068002 0.179467
v 0.227844 -0.067645 0.179467
v 0.227352 -0.067390 0.179467
v 0.226840 -0.067242 0.179467
v 0.226339 -0.067197 0.179467
v 0.225839 -0.067242 0.179467
v 0.225327 -0.067390 0.179467
v 0.224835 -0.067645 0.179467
v 0.224395 -0.068002 0.179467
v 0.224038 -0.068442 0.179467
v 0.223783 -0.068934 0.179467
v 0.223635 -0.069446 0.179467
v 0.223635 -0.069446 0.174467
v 0.223783 -0.068934 0.174467
v 0.224038 -0.068442 0.174467
v 0.224395 -0.068002 0.174467
v 0.224835 -0.067645 0.174467
v 0.225327 -0.067390 0.174467
v 0.225839 -0.067242 0.174467
v 0.226339 -0.067197 0.174467
v 0.226840 -0.067242 0.174467
v 0.227352 -0.067390 0.174467
v 0.227844 -0.067645 0.174467
v 0.228284 -0.068002 0.174467
v 0.228641 -0.068442 0.174467
v 0.228896 -0.068934 0.174467
v 0.229044 -0.069446 0.174467
v 0.229029 -0.069373 0.176967
v 0.228834 -0.068790 0.176967
v 0.228500 -0.068245 0.176967
v 0.228041 -0.067786 0.176967
v 0.227496 -0.067452 0.176967
v 0.226913 -0.067257 0.176967
v 0.226339 -0.067197 0.176967
v 0.225766 -0.067257 0.176967
v 0.225327 -0.067390 0.176967
v 0.224903 -0.067602 0.176967
v 0.224513 -0.067890 0.176967
v 0.224179 -0.068245 0.176967
v 0.223915 -0.068648 0.176967
v 0.223730 -0.069080 0.176967
v 0.223623 -0.069519 0.176967
v 0.266597 -0.054097 0.179467
v 0.276423 -0.053195 0.179467
v 0.286475 -0.050305 0.179467
v 0.296147 -0.045294 0.179467
v 0.304781 -0.038280 0.179467
v 0.311795 -0.029646 0.179467
v 0.316806 -0.019974 0.179467
v 0.319696 -0.009923 0.179467
v 0.320597 -0.000097 0.179467
v 0.319696 0.009729 0.179467
v 0.316806 0.019781 0.179467
v 0.311795 0.029453 0.179467
v 0.304781 0.038087 0.179467
v 0.296147 0.045101 0.179467
v 0.286475 0.050112 0.179467
v 0.276423 0.053002 0.179467
v 0.266597 0.053903 0.179467
v 0.266597 0.053903 0.174467
v 0.276423 0.053002 0.174467
v 0.286475 0.050112 0.174467
v 0.296147 0.045101 0.174467
v 0.304781 0.038087 0.174467
v 0.311795 0.029453 0.174467
v 0.316806 0.019781 0.174467
v 0.319696 0.009729 0.174467
v 0.320597 -0.000097 0.174467
v 0.319696 -0.009923 0.174467
v 0.316806 -0.019974 0.174467
v 0.311795 -0.029646 0.174467
v 0.304781 -0.038280 0.174467
v 0.296147 -0.045294 0.174467
v 0.286475 -0.050305 0.174467
v 0.276423 -0.053195 0.174467
v 0.266597 -0.054097 0.174467
v 0.277858 -0.052909 0.176967
v 0.289306 -0.049090 0.176967
v 0.300012 -0.042517 0.176967
v 0.309018 -0.033511 0.176967
v 0.315591 -0.022805 0.176967
v 0.319410 -0.011357 0.176967
v 0.320597 -0.000097 0.176967
v 0.319410 0.011164 0.176967
v 0.316806 0.019781 0.176967
v 0.312639 0.028119 0.176967
v 0.306972 0.035763 0.176967
v 0.300012 0.042324 0.176967
v 0.292090 0.047507 0.176967
v 0.283613 0.051153 0.176967
v 0.274993 0.053247 0.176967
v 0.227867 -0.054097 0.179467
v 0.227867 -0.054097 0.174467
v 0.247232 -0.054097 0.176967
v 0.118001 -0.211000 0.179467
v 0.118001 -0.211000 0.174467
v 0.172934 -0.132549 0.176967
v 0.120602 -0.215997 0.179467
v 0.120185 -0.215969 0.179467
v 0.119763 -0.215884 0.179467
v 0.119349 -0.215739 0.179467
v 0.118955 -0.215536 0.179467
v 0.118594 -0.215280 0.179467
v 0.118274 -0.214980 0.179467
v 0.118003 -0.214645 0.179467
v 0.117786 -0.214288 0.179467
v 0.117618 -0.213905 0.179467
v 0.117499 -0.213491 0.179467
v 0.117436 -0.213057 0.179467
v 0.117434 -0.212614 0.179467
v 0.117494 -0.212175 0.179467
v 0.117613 -0.211753 0.179467
v 0.117785 -0.211358 0.179467
v 0.117785 -0.211358 0.174467
v 0.117613 -0.211753 0.174467
v 0.117494 -0.212175 0.174467
v 0.117434 -0.212614 0.174467
v 0.117436 -0.213057 0.174467
v 0.117499 -0.213491 0.174467
v 0.117618 -0.213905 0.174467
v 0.117786 -0.214288 0.174467
v 0.118003 -0.214645 0.174467
v 0.118274 -0.214980 0.174467
v 0.118594 -0.215280 0.174467
v 0.118955 -0.215536 0.174467
v 0.119349 -0.215739 0.174467
v 0.119763 -0.215884 0.174467
v 0.120185 -0.215969 0.174467
v 0.120602 -0.215997 0.174467
v 0.119177 -0.215659 0.176967
v 0.119883 -0.215914 0.176967
v 0.118545 -0.215240 0.176967
v 0.118039 -0.214695 0.176967
v 0.117786 -0.214288 0.176967
v 0.117598 -0.213847 0.176967
v 0.117475 -0.213369 0.176967
v 0.117428 -0.212867 0.176967
v 0.117461 -0.212362 0.176967
v 0.117573 -0.211871 0.176967
v 0.117757 -0.211413 0.176967
v 0.236113 -0.215997 0.179467
v 0.236113 -0.215997 0.174467
v 0.178358 -0.215997 0.176967
v 0.244830 -0.212533 0.179467
v 0.242956 -0.213995 0.179467
v 0.240803 -0.215099 0.179467
v 0.238479 -0.215774 0.179467
v 0.238479 -0.215774 0.174467
v 0.240803 -0.215099 0.174467
v 0.242956 -0.213995 0.174467
v 0.244830 -0.212533 0.174467
v 0.242956 -0.213995 0.176967
v 0.240803 -0.215099 0.176967
v 0.238479 -0.215774 0.176967
v 0.244830 0.212340 0.179467
v 0.265025 0.191276 0.179467
v 0.283283 0.167929 0.179467
v 0.299233 0.142577 0.179467
v 0.312567 0.115579 0.179467
v 0.323050 0.087351 0.179467
v 0.330540 0.058351 0.179467
v 0.334990 0.029048 0.179467
v 0.336447 -0.000097 0.179467
v 0.334990 -0.029241 0.179467
v 0.330540 -0.058544 0.179467
v 0.323050 -0.087544 0.179467
v 0.312567 -0.115772 0.179467
v 0.299233 -0.142770 0.179467
v 0.283283 -0.168122 0.179467
v 0.265025 -0.191470 0.179467
v 0.265025 -0.191470 0.174467
v 0.283283 -0.168122 0.174467
v 0.299233 -0.142770 0.174467
v 0.312567 -0.115772 0.174467
v 0.323050 -0.087544 0.174467
v 0.330540 -0.058544 0.174467
v 0.334990 -0.029241 0.174467
v 0.336447 -0.000097 0.174467
v 0.334990 0.029048 0.174467
v 0.330540 0.058351 0.174467
v 0.323050 0.087351 0.174467
v 0.312567 0.115579 0.174467
v 0.299233 0.142577 0.174467
v 0.283283 0.167929 0.174467
v 0.265025 0.191276 0.174467
v 0.244830 0.212340 0.174467
v 0.332121 -0.050182 0.176967
v 0.328710 -0.066881 0.176967
v 0.288090 -0.161068 0.176967
v 0.278286 -0.175011 0.176967
v 0.278286 0.174818 0.176967
v 0.262250 0.194431 0.176967
v 0.292701 0.153666 0.176967
v 0.305284 0.131185 0.176967
v 0.315861 0.107620 0.176967
v 0.324306 0.083245 0.176967
v 0.330540 0.058351 0.176967
v 0.334539 0.033235 0.176967
v 0.335975 0.016512 0.176967
v 0.336447 -0.000097 0.176967
v 0.335975 -0.016705 0.176967
v 0.334539 -0.033428 0.176967
v 0.318918 -0.099764 0.176967
v 0.324306 -0.083438 0.176967
v 0.312567 -0.115772 0.176967
v 0.305284 -0.131378 0.176967
v 0.297108 -0.146501 0.176967
v 0.256584 -0.200790 0.176967
v 0.267761 -0.188268 0.176967
v 0.236113 0.215804 0.179467
v 0.238479 0.215581 0.179467
v 0.240803 0.214906 0.179467
v 0.242956 0.213802 0.179467
v 0.242956 0.213802 0.174467
v 0.240803 0.214906 0.174467
v 0.238479 0.215581 0.174467
v 0.236113 0.215804 0.174467
v 0.238479 0.215581 0.176967
v 0.240803 0.214906 0.176967
v 0.242956 0.213802 0.176967
v 0.120602 0.215804 0.179467
v 0.120602 0.215804 0.174467
v 0.178358 0.215804 0.176967
v 0.118002 0.210807 0.179467
v 0.117785 0.211165 0.179467
v 0.117613 0.211560 0.179467
v 0.117494 0.211982 0.179467
v 0.117434 0.212421 0.179467
v 0.117436 0.212864 0.179467
v 0.117499 0.213298 0.179467
v 0.117618 0.213711 0.179467
v 0.117786 0.214095 0.179467
v 0.118003 0.214452 0.179467
v 0.118274 0.214787 0.179467
v 0.118594 0.215087 0.179467
v 0.118955 0.215343 0.179467
v 0.119349 0.215546 0.179467
v 0.119763 0.215690 0.179467
v 0.120185 0.215776 0.179467
v 0.120185 0.215776 0.174467
v 0.119763 0.215690 0.174467
v 0.119349 0.215546 0.174467
v 0.118955 0.215343 0.174467
v 0.118594 0.215087 0.174467
v 0.118274 0.214787 0.174467
v 0.118003 0.214452 0.174467
v 0.117786 0.214095 0.174467
v 0.117618 0.213711 0.174467
v 0.117499 0.213298 0.174467
v 0.117436 0.212864 0.174467
v 0.117434 0.212421 0.174467
v 0.117494 0.211982 0.174467
v 0.117613 0.211560 0.174467
v 0.117785 0.211165 0.174467
v 0.118002 0.210807 0.174467
v 0.117461 0.212169 0.176967
v 0.117657 0.211444 0.176967
v 0.117441 0.212927 0.176967
v 0.117598 0.213654 0.176967
v 0.117786 0.214095 0.176967
v 0.118039 0.214502 0.176967
v 0.118360 0.214877 0.176967
v 0.118744 0.215203 0.176967
v 0.119177 0.215466 0.176967
v 0.119643 0.215655 0.176967
v 0.120125 0.215767 0.176967
v 0.227867 0.053903 0.179467
v 0.214134 0.073516 0.179467
v 0.200401 0.093129 0.179467
v 0.172934 0.132355 0.179467
v 0.172934 0.132355 0.174467
v 0.200401 0.093129 0.174467
v 0.214134 0.073516 0.174467
v 0.227867 0.053903 0.174467
v 0.172934 0.132355 0.176967
v 0.247232 0.053903 0.176967
f 34 1 36
f 36 1 2
f 36 2 3
f 36 3 35
f 35 3 4
f 35 4 37
f 37 4 5
f 37 5 38
f 38 5 6
f 38 6 39
f 39 6 7
f 39 7 40
f 40 7 8
f 40 8 41
f 41 8 42
f 41 42 29
f 29 42 28
f 28 42 43
f 28 43 27
f 27 43 26
f 26 43 44
f 26 44 25
f 25 44 45
f 25 45 24
f 24 45 46
f 24 46 23
f 23 46 47
f 23 47 22
f 22 47 48
f 22 48 21
f 21 48 49
f 21 49 20
f 20 49 19
f 19 49 17
f 19 17 18
f 8 9 42
f 42 9 43
f 9 10 43
f 43 10 11
f 43 11 44
f 44 11 12
f 44 12 45
f 45 12 13
f 45 13 46
f 46 13 14
f 46 14 47
f 47 14 15
f 47 15 48
f 48 15 16
f 48 16 49
f 49 16 17
f 41 29 40
f 40 29 30
f 40 30 39
f 39 30 31
f 39 31 38
f 38 31 32
f 38 32 37
f 37 32 33
f 37 33 35
f 35 33 34
f 35 34 36
f 83 50 85
f 85 50 51
f 85 51 52
f 85 52 84
f 84 52 53
f 84 53 86
f 86 53 54
f 86 54 87
f 87 54 55
f 87 55 88
f 88 55 56
f 88 56 89
f 89 56 57
f 89 57 90
f 90 57 91
f 90 91 78
f 78 91 77
f 77 91 92
f 77 92 76
f 76 92 75
f 75 92 93
f 75 93 74
f 74 93 94
f 74 94 73
f 73 94 95
f 73 95 72
f 72 95 96
f 72 96 71
f 71 96 97
f 71 97 70
f 70 97 98
f 70 98 69
f 69 98 68
f 68 98 66
f 68 66 67
f 57 58 91
f 91 58 92
f 58 59 92
f 92 59 60
f 92 60 93
f 93 60 61
f 93 61 94
f 94 61 62
f 94 62 95
f 95 62 63
f 95 63 96
f 96 63 64
f 96 64 97
f 97 64 65
f 97 65 98
f 98 65 66
f 90 78 89
f 89 78 79
f 89 79 88
f 88 79 80
f 88 80 87
f 87 80 81
f 87 81 86
f 86 81 82
f 86 82 84
f 84 82 83
f 84 83 85
f 132 99 134
f 134 99 100
f 134 100 101
f 134 101 133
f 133 101 102
f 133 102 135
f 135 102 103
f 135 103 136
f 136 103 104
f 136 104 137
f 137 104 105
f 137 105 138
f 138 105 106
f 138 106 139
f 139 106 140
f 139 140 127
f 127 140 126
f 126 140 141
f 126 141 125
f 125 141 124
f 124 141 142
f 124 142 123
f 123 142 143
f 123 143 122
f 122 143 144
f 122 144 121
f 121 144 145
f 121 145 120
f 120 145 146
f 120 146 119
f 119 146 147
f 119 147 118
f 118 147 117
f 117 147 115
f 117 115 116
f 106 107 140
f 140 107 141
f 107 108 141
f 141 108 109
f 141 109 142
f 142 109 110
f 142 110 143
f 143 110 111
f 143 111 144
f 144 111 112
f 144 112 145
f 145 112 113
f 145 113 146
f 146 113 114
f 146 114 147
f 147 114 115
f 139 127 138
f 138 127 128
f 138 128 137
f 137 128 129
f 137 129 136
f 136 129 130
f 136 130 135
f 135 130 131
f 135 131 133
f 133 131 132
f 133 132 134
f 181 148 183
f 183 148 149
f 183 149 150
f 183 150 182
f 182 150 151
f 182 151 184
f 184 151 152
f 184 152 185
f 185 152 153
f 185 153 186
f 186 153 154
f 186 154 187
f 187 154 155
f 187 155 188
f 188 155 189
f 188 189 176
f 176 189 175
f 175 189 190
f 175 190 174
f 174 190 173
f 173 190 191
f 173 191 172
f 172 191 192
f 172 192 171
f 171 192 193
f 171 193 170
f 170 193 194
f 170 194 169
f 169 194 195
f 169 195 168
f 168 195 196
f 168 196 167
f 167 196 166
f 166 196 164
f 166 164 165
f 155 156 189
f 189 156 190
f 156 157 190
f 190 157 158
f 190 158 191
f 191 158 159
f 191 159 192
f 192 159 160
f 192 160 193
f 193 160 161
f 193 161 194
f 194 161 162
f 194 162 195
f 195 162 163
f 195 163 196
f 196 163 164
f 188 176 187
f 187 176 177
f 187 177 186
f 186 177 178
f 186 178 185
f 185 178 179
f 185 179 184
f 184 179 180
f 184 180 182
f 182 180 181
f 182 181 183
f 149 148 226
f 226 148 227
f 226 227 225
f 225 227 228
f 225 228 224
f 224 228 229
f 224 229 223
f 223 229 230
f 223 230 222
f 222 230 231
f 222 231 221
f 221 231 232
f 221 232 220
f 220 232 233
f 220 233 219
f 219 233 218
f 218 233 234
f 218 234 217
f 217 234 235
f 217 235 236
f 236 235 206
f 236 206 207
f 148 197 227
f 227 197 198
f 227 198 228
f 228 198 199
f 228 199 229
f 229 199 200
f 229 200 230
f 230 200 201
f 230 201 231
f 231 201 202
f 231 202 232
f 232 202 203
f 232 203 233
f 233 203 204
f 233 204 205
f 233 205 234
f 234 205 206
f 234 206 235
f 236 207 237
f 237 207 208
f 237 208 238
f 238 208 209
f 238 209 239
f 239 209 210
f 239 210 240
f 240 210 211
f 240 211 241
f 241 211 166
f 241 166 165
f 165 212 241
f 241 212 240
f 212 213 240
f 240 213 239
f 213 214 239
f 239 214 238
f 214 215 238
f 238 215 237
f 215 216 237
f 237 216 236
f 216 217 236
f 100 99 271
f 271 99 272
f 271 272 270
f 270 272 273
f 270 273 269
f 269 273 274
f 269 274 268
f 268 274 275
f 268 275 267
f 267 275 276
f 267 276 266
f 266 276 277
f 266 277 265
f 265 277 278
f 265 278 264
f 264 278 263
f 263 278 279
f 263 279 262
f 262 279 280
f 262 280 281
f 281 280 251
f 281 251 252
f 99 242 272
f 272 242 243
f 272 243 273
f 273 243 244
f 273 244 274
f 274 244 245
f 274 245 275
f 275 245 246
f 275 246 276
f 276 246 247
f 276 247 277
f 277 247 248
f 277 248 278
f 278 248 249
f 278 249 250
f 278 250 279
f 279 250 251
f 279 251 280
f 281 252 282
f 282 252 253
f 282 253 283
f 283 253 254
f 283 254 284
f 284 254 255
f 284 255 285
f 285 255 256
f 285 256 286
f 286 256 117
f 286 117 116
f 116 257 286
f 286 257 285
f 257 258 285
f 285 258 284
f 258 259 284
f 284 259 283
f 259 260 283
f 283 260 282
f 260 261 282
f 282 261 281
f 261 262 281
f 51 50 316
f 316 50 317
f 316 317 315
f 315 317 318
f 315 318 314
f 314 318 319
f 314 319 313
f 313 319 320
f 313 320 312
f 312 320 321
f 312 321 311
f 311 321 322
f 311 322 310
f 310 322 323
f 310 323 309
f 309 323 308
f 308 323 324
f 308 324 307
f 307 324 325
f 307 325 326
f 326 325 296
f 326 296 297
f 50 287 317
f 317 287 288
f 317 288 318
f 318 288 289
f 318 289 319
f 319 289 290
f 319 290 320
f 320 290 291
f 320 291 321
f 321 291 292
f 321 292 322
f 322 292 293
f 322 293 323
f 323 293 294
f 323 294 295
f 323 295 324
f 324 295 296
f 324 296 325
f 326 297 327
f 327 297 298
f 327 298 328
f 328 298 299
f 328 299 329
f 329 299 300
f 329 300 330
f 330 300 301
f 330 301 331
f 331 301 68
f 331 68 67
f 67 302 331
f 331 302 330
f 302 303 330
f 330 303 329
f 303 304 329
f 329 304 328
f 304 305 328
f 328 305 327
f 305 306 327
f 327 306 326
f 306 307 326
f 2 1 361
f 361 1 362
f 361 362 360
f 360 362 363
f 360 363 359
f 359 363 364
f 359 364 358
f 358 364 365
f 358 365 357
f 357 365 366
f 357 366 356
f 356 366 367
f 356 367 355
f 355 367 368
f 355 368 354
f 354 368 353
f 353 368 369
f 353 369 352
f 352 369 370
f 352 370 371
f 371 370 341
f 371 341 342
f 1 332 362
f 362 332 333
f 362 333 363
f 363 333 334
f 363 334 364
f 364 334 335
f 364 335 365
f 365 335 336
f 365 336 366
f 366 336 337
f 366 337 367
f 367 337 338
f 367 338 368
f 368 338 339
f 368 339 340
f 368 340 369
f 369 340 341
f 369 341 370
f 371 342 372
f 372 342 343
f 372 343 373
f 373 343 344
f 373 344 374
f 374 344 345
f 374 345 375
f 375 345 346
f 375 346 376
f 376 346 19
f 376 19 18
f 18 347 376
f 376 347 375
f 347 348 375
f 375 348 374
f 348 349 374
f 374 349 373
f 349 350 373
f 373 350 372
f 350 351 372
f 372 351 371
f 351 352 371
f 378 411 377
f 377 411 409
f 377 409 410
f 378 379 411
f 411 379 412
f 411 412 408
f 408 412 407
f 407 412 413
f 407 413 406
f 406 413 414
f 406 414 405
f 405 414 415
f 405 415 404
f 404 415 416
f 404 416 403
f 403 416 417
f 403 417 402
f 402 417 401
f 401 417 418
f 401 418 400
f 400 418 419
f 400 419 420
f 420 419 387
f 420 387 388
f 379 380 412
f 412 380 413
f 380 381 413
f 413 381 414
f 381 382 414
f 414 382 415
f 382 383 415
f 415 383 416
f 383 384 416
f 416 384 417
f 384 385 417
f 417 385 386
f 417 386 418
f 418 386 387
f 418 387 419
f 420 388 421
f 421 388 389
f 421 389 422
f 422 389 390
f 422 390 423
f 423 390 391
f 423 391 424
f 424 391 392
f 424 392 425
f 425 392 393
f 425 393 394
f 394 395 425
f 425 395 424
f 395 396 424
f 424 396 423
f 396 397 423
f 423 397 422
f 397 398 422
f 422 398 421
f 398 399 421
f 421 399 420
f 399 400 420
f 408 409 411
f 427 426 428
f 428 426 377
f 428 377 410
f 410 427 428
f 430 429 431
f 431 429 426
f 431 426 427
f 427 430 431
f 433 465 432
f 432 465 462
f 432 462 463
f 433 434 465
f 465 434 435
f 465 435 464
f 464 435 436
f 464 436 466
f 466 436 437
f 466 437 438
f 466 438 467
f 467 438 439
f 467 439 468
f 468 439 440
f 468 440 441
f 468 441 469
f 469 441 442
f 469 442 470
f 470 442 443
f 470 443 471
f 471 443 444
f 471 444 472
f 472 444 445
f 472 445 473
f 473 445 446
f 473 446 474
f 474 446 447
f 474 447 430
f 430 447 429
f 430 448 474
f 474 448 449
f 474 449 473
f 473 449 450
f 473 450 472
f 472 450 451
f 472 451 471
f 471 451 452
f 471 452 470
f 470 452 453
f 470 453 469
f 469 453 454
f 469 454 468
f 468 454 455
f 468 455 456
f 468 456 467
f 467 456 457
f 467 457 466
f 466 457 458
f 466 458 459
f 466 459 464
f 464 459 460
f 464 460 465
f 465 460 461
f 465 461 462
f 476 475 477
f 477 475 432
f 477 432 463
f 463 476 477
f 485 478 486
f 486 478 479
f 486 479 487
f 487 479 480
f 487 480 488
f 488 480 481
f 488 481 475
f 475 476 488
f 488 476 482
f 488 482 487
f 487 482 483
f 487 483 486
f 486 483 484
f 486 484 485
f 520 489 526
f 526 489 490
f 526 490 525
f 525 490 491
f 525 491 527
f 527 491 492
f 527 492 528
f 528 492 493
f 528 493 529
f 529 493 494
f 529 494 530
f 530 494 495
f 530 495 531
f 531 495 532
f 531 532 514
f 514 532 513
f 513 532 533
f 513 533 512
f 512 533 534
f 512 534 535
f 535 534 497
f 535 497 498
f 495 496 532
f 532 496 533
f 496 497 533
f 533 497 534
f 499 521 498
f 498 521 536
f 498 536 535
f 535 536 511
f 535 511 512
f 521 499 522
f 522 499 500
f 522 500 538
f 538 500 537
f 538 537 509
f 509 537 508
f 508 537 539
f 508 539 540
f 540 539 501
f 540 501 502
f 500 501 537
f 537 501 539
f 503 523 502
f 502 523 541
f 502 541 540
f 540 541 507
f 540 507 508
f 523 503 524
f 524 503 504
f 524 504 543
f 543 504 542
f 543 542 505
f 505 542 485
f 485 542 478
f 478 542 504
f 543 505 524
f 524 505 506
f 524 506 523
f 523 506 507
f 523 507 541
f 538 509 522
f 522 509 510
f 522 510 521
f 521 510 511
f 521 511 536
f 531 514 530
f 530 514 515
f 530 515 529
f 529 515 516
f 529 516 528
f 528 516 517
f 528 517 527
f 527 517 518
f 527 518 525
f 525 518 519
f 525 519 526
f 526 519 520
f 551 544 552
f 552 544 545
f 552 545 553
f 553 545 546
f 553 546 554
f 554 546 547
f 554 547 489
f 489 520 554
f 554 520 548
f 554 548 553
f 553 548 549
f 553 549 552
f 552 549 550
f 552 550 551
f 556 555 557
f 557 555 544
f 557 544 551
f 551 556 557
f 559 591 558
f 558 591 588
f 558 588 589
f 559 560 591
f 591 560 561
f 591 561 590
f 590 561 562
f 590 562 592
f 592 562 563
f 592 563 564
f 592 564 593
f 593 564 565
f 593 565 594
f 594 565 566
f 594 566 567
f 594 567 595
f 595 567 568
f 595 568 596
f 596 568 569
f 596 569 597
f 597 569 570
f 597 570 598
f 598 570 571
f 598 571 599
f 599 571 572
f 599 572 600
f 600 572 573
f 600 573 556
f 556 573 555
f 556 574 600
f 600 574 575
f 600 575 599
f 599 575 576
f 599 576 598
f 598 576 577
f 598 577 597
f 597 577 578
f 597 578 596
f 596 578 579
f 596 579 595
f 595 579 580
f 595 580 594
f 594 580 581
f 594 581 582
f 594 582 593
f 593 582 583
f 593 583 592
f 592 583 584
f 592 584 585
f 592 585 590
f 590 585 586
f 590 586 591
f 591 586 587
f 591 587 588
f 608 601 609
f 609 601 602
f 609 602 603
f 603 604 609
f 609 604 558
f 609 558 589
f 589 605 609
f 609 605 606
f 609 606 607
f 607 608 609
f 394 393 610
f 610 393 601
f 610 601 608
f 608 394 610
f 608 112 394
f 394 112 111
f 394 111 110
f 607 162 608
f 608 162 161
f 608 161 160
f 606 217 607
f 607 217 216
f 607 216 215
f 605 551 606
f 606 551 219
f 606 219 218
f 551 605 556
f 556 605 589
f 556 589 574
f 574 589 575
f 575 589 576
f 576 589 577
f 577 589 578
f 578 589 579
f 579 589 580
f 580 589 581
f 581 589 588
f 581 588 582
f 582 588 587
f 582 587 583
f 583 587 586
f 583 586 584
f 584 586 585
f 550 520 551
f 551 520 221
f 551 221 220
f 550 549 520
f 520 549 548
f 221 520 222
f 222 520 519
f 222 519 223
f 223 519 260
f 223 260 224
f 224 260 259
f 224 259 225
f 225 259 258
f 225 258 226
f 226 258 257
f 226 257 149
f 149 257 116
f 149 116 150
f 150 116 115
f 150 115 608
f 608 115 114
f 608 114 113
f 518 263 519
f 519 263 262
f 519 262 261
f 517 268 518
f 518 268 267
f 518 267 266
f 516 396 517
f 517 396 395
f 517 395 270
f 270 395 271
f 271 395 100
f 100 395 101
f 101 395 394
f 101 394 102
f 102 394 103
f 103 394 104
f 104 394 105
f 105 394 106
f 106 394 107
f 107 394 108
f 108 394 109
f 109 394 110
f 396 516 397
f 397 516 515
f 397 515 398
f 398 515 514
f 398 514 399
f 399 514 400
f 400 514 513
f 400 513 401
f 401 513 512
f 401 512 402
f 402 512 403
f 403 512 511
f 403 511 404
f 404 511 510
f 404 510 405
f 405 510 406
f 406 510 509
f 406 509 407
f 407 509 408
f 408 509 54
f 408 54 53
f 508 59 509
f 509 59 58
f 509 58 57
f 508 507 59
f 59 507 506
f 59 506 505
f 59 505 10
f 10 505 485
f 10 485 476
f 476 485 482
f 482 485 483
f 483 485 484
f 463 16 476
f 476 16 15
f 476 15 14
f 462 430 463
f 463 430 17
f 463 17 16
f 462 461 430
f 430 461 460
f 430 460 459
f 459 458 430
f 430 458 457
f 430 457 456
f 456 455 430
f 430 455 448
f 448 455 454
f 448 454 449
f 449 454 453
f 449 453 450
f 450 453 452
f 450 452 451
f 427 348 430
f 430 348 347
f 430 347 18
f 410 305 427
f 427 305 304
f 427 304 303
f 409 314 410
f 410 314 313
f 410 313 312
f 408 53 409
f 409 53 52
f 409 52 51
f 361 302 2
f 2 302 67
f 2 67 3
f 3 67 66
f 3 66 4
f 4 66 65
f 4 65 5
f 5 65 64
f 5 64 6
f 6 64 63
f 6 63 7
f 7 63 62
f 7 62 8
f 8 62 61
f 8 61 9
f 9 61 60
f 9 60 10
f 10 60 59
f 302 361 427
f 427 361 360
f 427 360 359
f 359 358 427
f 427 358 357
f 427 357 356
f 356 355 427
f 427 355 354
f 427 354 353
f 353 352 427
f 427 352 351
f 427 351 350
f 350 349 427
f 427 349 348
f 18 17 430
f 14 13 476
f 476 13 12
f 476 12 11
f 11 10 476
f 51 316 409
f 409 316 315
f 409 315 314
f 312 311 410
f 410 311 310
f 410 310 309
f 309 308 410
f 410 308 307
f 410 307 306
f 306 305 410
f 303 302 427
f 57 56 509
f 509 56 55
f 509 55 54
f 270 269 517
f 517 269 268
f 266 265 518
f 518 265 264
f 518 264 263
f 261 260 519
f 113 112 608
f 220 219 551
f 218 217 606
f 215 214 607
f 607 214 213
f 607 213 212
f 212 165 607
f 607 165 164
f 607 164 163
f 163 162 607
f 160 159 608
f 608 159 158
f 608 158 157
f 157 156 608
f 608 156 155
f 608 155 154
f 154 153 608
f 608 153 152
f 608 152 151
f 151 150 608
f 393 121 601
f 601 121 120
f 601 120 119
f 392 132 393
f 393 132 131
f 393 131 130
f 391 492 392
f 392 492 243
f 392 243 242
f 492 391 493
f 493 391 390
f 493 390 494
f 494 390 389
f 494 389 495
f 495 389 388
f 495 388 387
f 495 387 496
f 496 387 386
f 496 386 497
f 497 386 385
f 497 385 384
f 497 384 498
f 498 384 383
f 498 383 499
f 499 383 382
f 499 382 381
f 499 381 500
f 500 381 380
f 500 380 379
f 378 82 379
f 379 82 81
f 379 81 500
f 500 81 80
f 500 80 79
f 377 287 378
f 378 287 50
f 378 50 83
f 426 298 377
f 377 298 297
f 377 297 296
f 429 345 426
f 426 345 344
f 426 344 343
f 447 440 429
f 429 440 439
f 429 439 438
f 440 447 441
f 441 447 446
f 441 446 442
f 442 446 445
f 442 445 443
f 443 445 444
f 438 437 429
f 429 437 436
f 429 436 435
f 435 434 429
f 429 434 433
f 429 433 432
f 475 21 432
f 432 21 20
f 432 20 429
f 429 20 19
f 429 19 346
f 481 478 475
f 475 478 27
f 475 27 26
f 481 480 478
f 478 480 479
f 478 504 27
f 27 504 503
f 27 503 502
f 502 501 27
f 27 501 500
f 27 500 76
f 76 500 77
f 77 500 78
f 78 500 79
f 491 245 492
f 492 245 244
f 492 244 243
f 490 250 491
f 491 250 249
f 491 249 248
f 489 201 490
f 490 201 200
f 490 200 253
f 253 200 254
f 254 200 199
f 254 199 255
f 255 199 198
f 255 198 256
f 256 198 197
f 256 197 117
f 117 197 148
f 117 148 118
f 118 148 181
f 118 181 601
f 601 181 180
f 601 180 179
f 547 546 489
f 489 546 545
f 489 545 544
f 555 604 544
f 544 604 603
f 544 603 204
f 204 603 205
f 205 603 206
f 206 603 602
f 206 602 207
f 207 602 208
f 208 602 209
f 209 602 210
f 210 602 211
f 211 602 166
f 166 602 167
f 167 602 168
f 168 602 169
f 169 602 601
f 169 601 170
f 170 601 171
f 171 601 172
f 172 601 173
f 173 601 174
f 174 601 175
f 175 601 176
f 176 601 177
f 177 601 178
f 178 601 179
f 604 555 558
f 558 555 573
f 558 573 572
f 572 571 558
f 558 571 570
f 558 570 569
f 569 568 558
f 558 568 567
f 558 567 566
f 558 566 559
f 559 566 565
f 559 565 560
f 560 565 564
f 560 564 561
f 561 564 563
f 561 563 562
f 346 345 429
f 343 342 426
f 426 342 341
f 426 341 340
f 340 339 426
f 426 339 338
f 426 338 337
f 337 336 426
f 426 336 335
f 426 335 334
f 334 333 426
f 426 333 332
f 426 332 301
f 301 332 68
f 68 332 1
f 68 1 69
f 69 1 34
f 69 34 70
f 70 34 33
f 70 33 71
f 71 33 32
f 71 32 72
f 72 32 31
f 72 31 73
f 73 31 30
f 73 30 74
f 74 30 29
f 74 29 75
f 75 29 28
f 75 28 76
f 76 28 27
f 26 25 475
f 475 25 24
f 475 24 23
f 23 22 475
f 475 22 21
f 301 300 426
f 426 300 299
f 426 299 298
f 296 295 377
f 377 295 294
f 377 294 293
f 293 292 377
f 377 292 291
f 377 291 290
f 290 289 377
f 377 289 288
f 377 288 287
f 83 82 378
f 253 252 490
f 490 252 251
f 490 251 250
f 248 247 491
f 491 247 246
f 491 246 245
f 242 99 392
f 392 99 132
f 130 129 393
f 393 129 128
f 393 128 127
f 127 126 393
f 393 126 125
f 393 125 124
f 124 123 393
f 393 123 122
f 393 122 121
f 119 118 601
f 204 203 544
f 544 203 202
f 544 202 489
f 489 202 201
