v -0.184574 0.223977 0.346035
v -0.184574 0.233977 0.346035
v -0.184607 0.233977 0.345671
v -0.184714 0.233977 0.345298
v -0.184900 0.233977 0.344940
v -0.185160 0.233977 0.344620
v -0.185479 0.233977 0.344361
v -0.185838 0.233977 0.344175
v -0.186210 0.233977 0.344068
v -0.186574 0.233977 0.344035
v -0.186938 0.233977 0.344068
v -0.187310 0.233977 0.344175
v -0.187668 0.233977 0.344361
v -0.187988 0.233977 0.344620
v -0.188248 0.233977 0.344940
v -0.188433 0.233977 0.345298
v -0.188540 0.233977 0.345671
v -0.188574 0.233977 0.346035
v -0.188574 0.223977 0.346035
v -0.188540 0.223977 0.345671
v -0.188433 0.223977 0.345298
v -0.188248 0.223977 0.344940
v -0.187988 0.223977 0.344620
v -0.187668 0.223977 0.344361
v -0.187310 0.223977 0.344175
v -0.186938 0.223977 0.344068
v -0.186574 0.223977 0.344035
v -0.186210 0.223977 0.344068
v -0.185838 0.223977 0.344175
v -0.185479 0.223977 0.344361
v -0.185160 0.223977 0.344620
v -0.184900 0.223977 0.344940
v -0.184714 0.223977 0.345298
v -0.184607 0.223977 0.345671
v -0.184618 0.228977 0.345618
v -0.184759 0.228977 0.345194
v -0.185003 0.228977 0.344797
v -0.185336 0.228977 0.344464
v -0.185733 0.228977 0.344220
v -0.186157 0.228977 0.344079
v -0.186574 0.228977 0.344035
v -0.186991 0.228977 0.344079
v -0.187310 0.228977 0.344175
v -0.187619 0.228977 0.344329
v -0.187902 0.228977 0.344539
v -0.188145 0.228977 0.344797
v -0.188337 0.228977 0.345090
v -0.188472 0.228977 0.345404
v -0.188549 0.228977 0.345724
v -0.183399 0.223723 0.346035
v -0.183399 0.223977 0.346035
v -0.183452 0.223977 0.345457
v -0.183622 0.223977 0.344866
v -0.183916 0.223977 0.344297
v -0.184329 0.223977 0.343790
v -0.184836 0.223977 0.343377
v -0.185405 0.223977 0.343083
v -0.185996 0.223977 0.342913
v -0.186574 0.223977 0.342860
v -0.187152 0.223977 0.342913
v -0.187742 0.223977 0.343083
v -0.188311 0.223977 0.343377
v -0.188819 0.223977 0.343790
v -0.189231 0.223977 0.344297
v -0.189526 0.223977 0.344866
v -0.189696 0.223977 0.345457
v -0.189749 0.223977 0.346035
v -0.189749 0.223723 0.346035
v -0.189696 0.223723 0.345457
v -0.189526 0.223723 0.344866
v -0.189231 0.223723 0.344297
v -0.188819 0.223723 0.343790
v -0.188311 0.223723 0.343377
v -0.187742 0.223723 0.343083
v -0.187152 0.223723 0.342913
v -0.186574 0.223723 0.342860
v -0.185996 0.223723 0.342913
v -0.185405 0.223723 0.343083
v -0.184836 0.223723 0.343377
v -0.184329 0.223723 0.343790
v -0.183916 0.223723 0.344297
v -0.183622 0.223723 0.344866
v -0.183452 0.223723 0.345457
v -0.183469 0.223850 0.345373
v -0.183693 0.223850 0.344699
v -0.184080 0.223850 0.344070
v -0.184609 0.223850 0.343540
v -0.185239 0.223850 0.343154
v -0.185912 0.223850 0.342929
v -0.186574 0.223850 0.342860
v -0.187236 0.223850 0.342929
v -0.187742 0.223850 0.343083
v -0.188233 0.223850 0.343328
v -0.188682 0.223850 0.343661
v -0.189068 0.223850 0.344070
v -0.189373 0.223850 0.344536
v -0.189587 0.223850 0.345034
v -0.189710 0.223850 0.345541
v -0.116675 0.223723 0.362368
v -0.116675 0.222135 0.362368
v -0.116595 0.222135 0.361501
v -0.116340 0.222135 0.360615
v -0.115899 0.222135 0.359762
v -0.115280 0.222135 0.359000
v -0.114518 0.222135 0.358382
v -0.113665 0.222135 0.357940
v -0.112779 0.222135 0.357685
v -0.111912 0.222135 0.357605
v -0.111046 0.222135 0.357685
v -0.110159 0.222135 0.357940
v -0.109306 0.222135 0.358382
v -0.108545 0.222135 0.359000
v -0.107926 0.222135 0.359762
v -0.107484 0.222135 0.360615
v -0.107229 0.222135 0.361501
v -0.107150 0.222135 0.362368
v -0.107150 0.223723 0.362368
v -0.107229 0.223723 0.361501
v -0.107484 0.223723 0.360615
v -0.107926 0.223723 0.359762
v -0.108545 0.223723 0.359000
v -0.109306 0.223723 0.358382
v -0.110159 0.223723 0.357940
v -0.111046 0.223723 0.357685
v -0.111912 0.223723 0.357605
v -0.112779 0.223723 0.357685
v -0.113665 0.223723 0.357940
v -0.114518 0.223723 0.358382
v -0.115280 0.223723 0.359000
v -0.115899 0.223723 0.359762
v -0.116340 0.223723 0.360615
v -0.116595 0.223723 0.361501
v -0.116570 0.222929 0.361375
v -0.116233 0.222929 0.360365
v -0.115654 0.222929 0.359421
v -0.114859 0.222929 0.358627
v -0.113915 0.222929 0.358047
v -0.112905 0.222929 0.357710
v -0.111912 0.222929 0.357605
v -0.110919 0.222929 0.357710
v -0.110159 0.222929 0.357940
v -0.109424 0.222929 0.358307
v -0.108750 0.222929 0.358807
v -0.108171 0.222929 0.359421
v -0.107714 0.222929 0.360120
v -0.107392 0.222929 0.360867
v -0.107208 0.222929 0.361627
v -0.192924 0.223723 0.346035
v -0.192924 0.234500 0.346035
v -0.192818 0.234500 0.344879
v -0.192478 0.234500 0.343697
v -0.191889 0.234500 0.342560
v -0.191064 0.234500 0.341544
v -0.190049 0.234500 0.340720
v -0.188911 0.234500 0.340131
v -0.187729 0.234500 0.339791
v -0.186574 0.234500 0.339685
v -0.185418 0.234500 0.339791
v -0.184236 0.234500 0.340131
v -0.183099 0.234500 0.340720
v -0.182084 0.234500 0.341544
v -0.181259 0.234500 0.342560
v -0.180670 0.234500 0.343697
v -0.180330 0.234500 0.344879
v -0.180224 0.234500 0.346035
v -0.180224 0.223723 0.346035
v -0.180305 0.223723 0.345024
v -0.180550 0.223723 0.344027
v -0.180952 0.223723 0.343082
v -0.181494 0.223723 0.342225
v -0.181494 0.230835 0.342225
v -0.182490 0.230835 0.341172
v -0.183734 0.230835 0.340355
v -0.185134 0.230835 0.339850
v -0.186574 0.230835 0.339685
v -0.188013 0.230835 0.339850
v -0.189414 0.230835 0.340355
v -0.190658 0.230835 0.341172
v -0.191654 0.230835 0.342225
v -0.191654 0.223723 0.342225
v -0.192195 0.223723 0.343082
v -0.192598 0.223723 0.344027
v -0.192843 0.223723 0.345024
v -0.192784 0.229111 0.344710
v -0.192335 0.229111 0.343364
v -0.180548 0.229111 0.344030
v -0.180976 0.229111 0.343037
v -0.180301 0.229111 0.345047
v -0.118262 0.222135 0.362368
v -0.118262 0.234500 0.362368
v -0.118156 0.234500 0.361212
v -0.117817 0.234500 0.360030
v -0.117227 0.234500 0.358893
v -0.116402 0.234500 0.357878
v -0.115387 0.234500 0.357053
v -0.114250 0.234500 0.356464
v -0.113068 0.234500 0.356124
v -0.111912 0.234500 0.356018
v -0.110757 0.234500 0.356124
v -0.109575 0.234500 0.356464
v -0.108438 0.234500 0.357053
v -0.107422 0.234500 0.357878
v -0.106597 0.234500 0.358893
v -0.106008 0.234500 0.360030
v -0.105668 0.234500 0.361212
v -0.105562 0.234500 0.362368
v -0.105562 0.222135 0.362368
v -0.105668 0.222135 0.361212
v -0.106008 0.222135 0.360030
v -0.106597 0.222135 0.358893
v -0.107422 0.222135 0.357878
v -0.108438 0.222135 0.357053
v -0.109575 0.222135 0.356464
v -0.110757 0.222135 0.356124
v -0.111912 0.222135 0.356018
v -0.113068 0.222135 0.356124
v -0.114250 0.222135 0.356464
v -0.115387 0.222135 0.357053
v -0.116402 0.222135 0.357878
v -0.117227 0.222135 0.358893
v -0.117817 0.222135 0.360030
v -0.118156 0.222135 0.361212
v -0.118123 0.228318 0.361044
v -0.117674 0.228318 0.359698
v -0.116901 0.228318 0.358439
v -0.115842 0.228318 0.357380
v -0.114583 0.228318 0.356607
v -0.113237 0.228318 0.356157
v -0.111912 0.228318 0.356018
v -0.110588 0.228318 0.356157
v -0.109575 0.228318 0.356464
v -0.108594 0.228318 0.356954
v -0.107696 0.228318 0.357620
v -0.106924 0.228318 0.358439
v -0.106315 0.228318 0.359370
v -0.105886 0.228318 0.360367
v -0.105640 0.228318 0.361381
v -0.178123 0.234500 0.379558
v -0.183394 0.234500 0.369638
v -0.188364 0.234500 0.359557
v -0.193024 0.234500 0.349330
v -0.195236 0.234500 0.344165
v -0.197369 0.234500 0.338970
v -0.130974 0.234500 0.338970
v -0.127049 0.234500 0.339219
v -0.123088 0.234500 0.339990
v -0.119194 0.234500 0.341295
v -0.115474 0.234500 0.343123
v -0.112032 0.234500 0.345430
v -0.108954 0.234500 0.348150
v -0.106306 0.234500 0.351195
v -0.104128 0.234500 0.354470
v -0.089643 0.234500 0.379558
v -0.192818 0.234500 0.347190
v -0.192478 0.234500 0.348372
v -0.191889 0.234500 0.349509
v -0.191064 0.234500 0.350525
v -0.190049 0.234500 0.351350
v -0.188911 0.234500 0.351939
v -0.187729 0.234500 0.352279
v -0.186574 0.234500 0.352385
v -0.185418 0.234500 0.352279
v -0.184236 0.234500 0.351939
v -0.183099 0.234500 0.351350
v -0.182084 0.234500 0.350525
v -0.181259 0.234500 0.349509
v -0.180670 0.234500 0.348372
v -0.180330 0.234500 0.347190
v -0.118156 0.234500 0.363523
v -0.117817 0.234500 0.364705
v -0.117227 0.234500 0.365843
v -0.116402 0.234500 0.366858
v -0.115387 0.234500 0.367683
v -0.114250 0.234500 0.368272
v -0.113068 0.234500 0.368612
v -0.111912 0.234500 0.368718
v -0.110757 0.234500 0.368612
v -0.109575 0.234500 0.368272
v -0.108438 0.234500 0.367683
v -0.107422 0.234500 0.366858
v -0.106597 0.234500 0.365843
v -0.106008 0.234500 0.364705
v -0.105668 0.234500 0.363523
v -0.143506 0.234500 0.339348
v -0.143506 0.234500 0.359264
v -0.130975 0.237000 0.335970
v -0.130975 0.234000 0.335970
v -0.201047 0.234000 0.335970
v -0.201047 0.237000 0.335970
v -0.166011 0.235500 0.335970
v -0.084880 0.234500 0.381808
v -0.084880 0.234000 0.381808
v -0.101530 0.234000 0.352970
v -0.101530 0.237000 0.352970
v -0.086323 0.237000 0.379308
v -0.086060 0.236958 0.379763
v -0.085792 0.236825 0.380229
v -0.085533 0.236593 0.380676
v -0.085302 0.236268 0.381076
v -0.085115 0.235868 0.381401
v -0.084981 0.235420 0.381633
v -0.084904 0.234955 0.381767
v -0.093205 0.235500 0.367389
v -0.103919 0.234000 0.349378
v -0.106823 0.234000 0.346038
v -0.110199 0.234000 0.343055
v -0.113974 0.234000 0.340525
v -0.118054 0.234000 0.338520
v -0.122325 0.234000 0.337088
v -0.126670 0.234000 0.336243
v -0.126670 0.237000 0.336243
v -0.122325 0.237000 0.337088
v -0.118054 0.237000 0.338520
v -0.113974 0.237000 0.340525
v -0.110199 0.237000 0.343055
v -0.106823 0.237000 0.346038
v -0.103919 0.237000 0.349378
v -0.103919 0.235500 0.349378
v -0.106823 0.235500 0.346038
v -0.110199 0.235500 0.343055
v -0.113974 0.235500 0.340525
v -0.118054 0.235500 0.338520
v -0.122325 0.235500 0.337088
v -0.126670 0.235500 0.336243
v -0.085313 0.234500 0.382558
v -0.085313 0.234000 0.382558
v -0.085185 0.234000 0.382542
v -0.085123 0.234000 0.382521
v -0.085063 0.234000 0.382491
v -0.085007 0.234000 0.382454
v -0.084957 0.234000 0.382410
v -0.084880 0.234000 0.382308
v -0.084830 0.234000 0.382190
v -0.084817 0.234000 0.382125
v -0.084813 0.234000 0.382058
v -0.084817 0.234000 0.381992
v -0.084830 0.234000 0.381927
v -0.084830 0.234500 0.381927
v -0.084817 0.234500 0.381992
v -0.084813 0.234500 0.382058
v -0.084817 0.234500 0.382125
v -0.084830 0.234500 0.382190
v -0.084880 0.234500 0.382308
v -0.084957 0.234500 0.382410
v -0.085007 0.234500 0.382454
v -0.085063 0.234500 0.382491
v -0.085123 0.234500 0.382521
v -0.085185 0.234500 0.382542
v -0.085096 0.234250 0.382509
v -0.085204 0.234250 0.382546
v -0.085000 0.234250 0.382448
v -0.084920 0.234250 0.382368
v -0.084880 0.234250 0.382308
v -0.084848 0.234250 0.382243
v -0.084826 0.234250 0.382172
v -0.084814 0.234250 0.382096
v -0.084814 0.234250 0.382020
v -0.084826 0.234250 0.381945
v -0.084848 0.234250 0.381874
v -0.201166 0.234000 0.335984
v -0.201280 0.234000 0.336027
v -0.201381 0.234000 0.336098
v -0.201460 0.234000 0.336188
v -0.201515 0.234000 0.336293
v -0.201544 0.234000 0.336413
v -0.201543 0.234000 0.336536
v -0.201513 0.234000 0.336651
v -0.201513 0.237000 0.336651
v -0.201543 0.237000 0.336536
v -0.201544 0.237000 0.336413
v -0.201515 0.237000 0.336293
v -0.201460 0.237000 0.336188
v -0.201381 0.237000 0.336098
v -0.201280 0.237000 0.336027
v -0.201166 0.237000 0.335984
v -0.201539 0.235500 0.336378
v -0.201547 0.235500 0.336448
v -0.201249 0.235500 0.336012
v -0.201149 0.235500 0.335980
v -0.201340 0.235500 0.336065
v -0.201418 0.235500 0.336134
v -0.201460 0.235500 0.336188
v -0.201494 0.235500 0.336246
v -0.201521 0.235500 0.336310
v -0.201533 0.235500 0.336587
v -0.201545 0.235500 0.336518
v -0.201827 0.233500 0.335844
v -0.202287 0.233500 0.334649
v -0.202287 0.230500 0.334649
v -0.197396 0.230500 0.346764
v -0.197396 0.229500 0.346764
v -0.191767 0.229500 0.359373
v -0.185675 0.229500 0.371764
v -0.185675 0.230500 0.371764
v -0.180033 0.230500 0.382301
v -0.180033 0.234500 0.382301
v -0.180064 0.235021 0.382246
v -0.180153 0.235514 0.382086
v -0.180292 0.235954 0.381834
v -0.180473 0.236325 0.381509
v -0.180684 0.236619 0.381126
v -0.180916 0.236830 0.380705
v -0.181162 0.236958 0.380257
v -0.181413 0.237000 0.379798
v -0.186952 0.237000 0.369261
v -0.192154 0.237000 0.358546
v -0.197010 0.237000 0.347671
v -0.201514 0.233998 0.336649
v -0.201644 0.233680 0.336316
v -0.201691 0.233600 0.336195
v -0.201747 0.233535 0.336048
v -0.201787 0.233509 0.335947
v -0.197381 0.233250 0.346799
v -0.192003 0.233250 0.358869
v -0.186224 0.233250 0.370695
v -0.197369 0.230500 0.338970
v -0.178123 0.230500 0.379558
v -0.182297 0.230500 0.371764
v -0.182297 0.226500 0.371764
v -0.188450 0.226500 0.359375
v -0.194135 0.226500 0.346764
v -0.194135 0.230500 0.346764
v -0.183394 0.230500 0.369638
v -0.193024 0.230500 0.349330
v -0.188364 0.230500 0.359557
v -0.202317 0.230500 0.334533
v -0.202317 0.230500 0.334411
v -0.202288 0.230500 0.334292
v -0.202233 0.230500 0.334186
v -0.202154 0.230500 0.334097
v -0.202053 0.230500 0.334027
v -0.201939 0.230500 0.333984
v -0.201821 0.230500 0.333970
v -0.130975 0.230500 0.333970
v -0.126416 0.230500 0.334259
v -0.121816 0.230500 0.335154
v -0.117294 0.230500 0.336670
v -0.112974 0.230500 0.338793
v -0.108977 0.230500 0.341472
v -0.105403 0.230500 0.344630
v -0.102328 0.230500 0.348167
v -0.099798 0.230500 0.351970
v -0.082570 0.230500 0.381808
v -0.082521 0.230500 0.381927
v -0.082508 0.230500 0.381992
v -0.082503 0.230500 0.382058
v -0.082508 0.230500 0.382125
v -0.082521 0.230500 0.382190
v -0.082570 0.230500 0.382308
v -0.082648 0.230500 0.382410
v -0.082698 0.230500 0.382454
v -0.082753 0.230500 0.382491
v -0.082813 0.230500 0.382521
v -0.082876 0.230500 0.382542
v -0.083003 0.230500 0.382558
v -0.179596 0.230500 0.382558
v -0.179725 0.230500 0.382541
v -0.179789 0.230500 0.382520
v -0.179849 0.230500 0.382489
v -0.179906 0.230500 0.382451
v -0.179955 0.230500 0.382406
v -0.089643 0.230500 0.379558
v -0.104128 0.230500 0.354470
v -0.106306 0.230500 0.351195
v -0.108954 0.230500 0.348150
v -0.112032 0.230500 0.345430
v -0.115474 0.230500 0.343123
v -0.119194 0.230500 0.341295
v -0.123088 0.230500 0.339990
v -0.127049 0.230500 0.339219
v -0.130974 0.230500 0.338970
v -0.133883 0.232500 0.379558
v -0.164172 0.232500 0.338970
v -0.083003 0.233500 0.382558
v -0.084447 0.233500 0.382558
v -0.084545 0.233508 0.382558
v -0.084645 0.233530 0.382558
v -0.084833 0.233605 0.382558
v -0.085085 0.233786 0.382558
v -0.179596 0.234500 0.382558
v -0.131300 0.232500 0.382558
v -0.180974 0.237500 0.379558
v -0.086756 0.237500 0.379558
v -0.101963 0.237500 0.353220
v -0.104317 0.237500 0.349681
v -0.107179 0.237500 0.346390
v -0.110505 0.237500 0.343451
v -0.114224 0.237500 0.340958
v -0.118244 0.237500 0.338983
v -0.122452 0.237500 0.337572
v -0.126733 0.237500 0.336739
v -0.130975 0.237500 0.336470
v -0.201047 0.237500 0.336470
v -0.196550 0.237500 0.347474
v -0.191700 0.237500 0.358335
v -0.186506 0.237500 0.369035
v -0.143902 0.237500 0.358014
v -0.096885 0.232500 0.367014
v -0.127049 0.232500 0.339219
v -0.123088 0.232500 0.339990
v -0.119194 0.232500 0.341295
v -0.115474 0.232500 0.343123
v -0.112032 0.232500 0.345430
v -0.108954 0.232500 0.348150
v -0.106306 0.232500 0.351195
v -0.085337 0.235046 0.382508
v -0.085414 0.235604 0.382348
v -0.085548 0.236142 0.382069
v -0.085735 0.236621 0.381680
v -0.085966 0.237011 0.381200
v -0.086225 0.237289 0.380663
v -0.086493 0.237450 0.380104
v -0.180719 0.237447 0.380118
v -0.180470 0.237290 0.380662
v -0.180237 0.237030 0.381170
v -0.180026 0.236671 0.381629
v -0.179848 0.236223 0.382014
v -0.179711 0.235697 0.382309
v -0.179625 0.235113 0.382495
v -0.133143 0.235046 0.382508
v -0.133143 0.235604 0.382348
v -0.133143 0.236142 0.382069
v -0.133143 0.236621 0.381680
v -0.133143 0.237011 0.381200
v -0.133143 0.237290 0.380662
v -0.133143 0.237450 0.380104
v -0.086330 0.237091 0.379312
v -0.086353 0.237184 0.379326
v -0.086394 0.237274 0.379349
v -0.086450 0.237354 0.379382
v -0.086519 0.237419 0.379422
v -0.086597 0.237465 0.379466
v -0.086677 0.237492 0.379513
v -0.084863 0.235013 0.381863
v -0.085227 0.235095 0.382485
v -0.085313 0.235666 0.382309
v -0.085451 0.236188 0.382024
v -0.085636 0.236642 0.381643
v -0.085860 0.237010 0.381181
v -0.086115 0.237280 0.380659
v -0.086391 0.237442 0.380095
v -0.085109 0.235100 0.382439
v -0.085198 0.235673 0.382259
v -0.085342 0.236194 0.381970
v -0.085533 0.236644 0.381585
v -0.085763 0.237006 0.381123
v -0.086024 0.237268 0.380602
v -0.086306 0.237423 0.380042
v -0.085052 0.235099 0.382403
v -0.085143 0.235671 0.382223
v -0.085289 0.236190 0.381933
v -0.085482 0.236637 0.381549
v -0.085716 0.236995 0.381088
v -0.085980 0.237254 0.380570
v -0.086264 0.237404 0.380014
v -0.084999 0.235096 0.382359
v -0.085091 0.235665 0.382179
v -0.085239 0.236181 0.381890
v -0.085435 0.236624 0.381508
v -0.085671 0.236978 0.381051
v -0.085938 0.237233 0.380537
v -0.086224 0.237380 0.379987
v -0.084951 0.235091 0.382307
v -0.085044 0.235655 0.382128
v -0.085194 0.236166 0.381842
v -0.085392 0.236604 0.381464
v -0.085630 0.236954 0.381011
v -0.085898 0.237205 0.380503
v -0.086186 0.237351 0.379959
v -0.084880 0.235075 0.382184
v -0.084974 0.235624 0.382012
v -0.085124 0.236121 0.381735
v -0.085323 0.236548 0.381368
v -0.085563 0.236889 0.380929
v -0.085832 0.237135 0.380435
v -0.086122 0.237278 0.379907
v -0.086152 0.237317 0.379932
v -0.085863 0.237173 0.380469
v -0.085594 0.236925 0.380970
v -0.085355 0.236579 0.381417
v -0.085155 0.236146 0.381790
v -0.085005 0.235641 0.382072
v -0.084911 0.235084 0.382248
v -0.084858 0.235065 0.382118
v -0.084951 0.235603 0.381949
v -0.085101 0.236092 0.381678
v -0.085300 0.236513 0.381319
v -0.085538 0.236850 0.380888
v -0.085807 0.237093 0.380404
v -0.086096 0.237236 0.379884
v -0.084846 0.235053 0.382051
v -0.084938 0.235580 0.381886
v -0.085086 0.236060 0.381622
v -0.085283 0.236474 0.381271
v -0.085520 0.236807 0.380849
v -0.085788 0.237048 0.380373
v -0.086075 0.237190 0.379863
v -0.084844 0.235040 0.381985
v -0.084934 0.235556 0.381825
v -0.085080 0.236026 0.381568
v -0.085274 0.236433 0.381225
v -0.085509 0.236762 0.380812
v -0.085774 0.237001 0.380346
v -0.086059 0.237143 0.379844
v -0.084950 0.235505 0.381712
v -0.085090 0.235956 0.381468
v -0.085277 0.236349 0.381143
v -0.085505 0.236669 0.380748
v -0.085763 0.236904 0.380299
v -0.086041 0.237046 0.379815
v -0.101537 0.237091 0.352974
v -0.101560 0.237184 0.352987
v -0.101600 0.237274 0.353010
v -0.101656 0.237354 0.353043
v -0.101726 0.237419 0.353083
v -0.101803 0.237465 0.353128
v -0.101884 0.237492 0.353174
v -0.094281 0.237492 0.366343
v -0.094200 0.237465 0.366297
v -0.094122 0.237419 0.366252
v -0.094053 0.237354 0.366212
v -0.093997 0.237274 0.366180
v -0.093957 0.237184 0.366157
v -0.093934 0.237091 0.366143
v -0.130975 0.237091 0.335978
v -0.130975 0.237184 0.336005
v -0.130975 0.237274 0.336051
v -0.130975 0.237354 0.336116
v -0.130975 0.237419 0.336196
v -0.130975 0.237465 0.336286
v -0.130975 0.237492 0.336379
v -0.103926 0.237091 0.349383
v -0.103947 0.237184 0.349399
v -0.103984 0.237274 0.349428
v -0.104036 0.237354 0.349467
v -0.104099 0.237419 0.349515
v -0.104171 0.237465 0.349570
v -0.104245 0.237492 0.349626
v -0.106829 0.237091 0.346044
v -0.106848 0.237184 0.346063
v -0.106881 0.237274 0.346095
v -0.106927 0.237354 0.346141
v -0.106984 0.237419 0.346197
v -0.107048 0.237465 0.346260
v -0.107114 0.237492 0.346326
v -0.110204 0.237091 0.343062
v -0.110221 0.237184 0.343083
v -0.110249 0.237274 0.343120
v -0.110289 0.237354 0.343171
v -0.110337 0.237419 0.343234
v -0.110392 0.237465 0.343305
v -0.110449 0.237492 0.343379
v -0.113979 0.237091 0.340532
v -0.113992 0.237184 0.340555
v -0.114015 0.237274 0.340595
v -0.114048 0.237354 0.340652
v -0.114088 0.237419 0.340721
v -0.114132 0.237465 0.340798
v -0.114179 0.237492 0.340879
v -0.118057 0.237091 0.338528
v -0.118067 0.237184 0.338553
v -0.118085 0.237274 0.338596
v -0.118109 0.237354 0.338656
v -0.118140 0.237419 0.338730
v -0.118174 0.237465 0.338813
v -0.118209 0.237492 0.338899
v -0.122327 0.237091 0.337096
v -0.122334 0.237184 0.337122
v -0.122345 0.237274 0.337167
v -0.122362 0.237354 0.337230
v -0.122382 0.237419 0.337307
v -0.122405 0.237465 0.337394
v -0.122429 0.237492 0.337484
v -0.126671 0.237091 0.336251
v -0.126674 0.237184 0.336278
v -0.126680 0.237274 0.336324
v -0.126688 0.237354 0.336389
v -0.126698 0.237419 0.336468
v -0.126710 0.237465 0.336557
v -0.126721 0.237492 0.336649
v -0.201047 0.237091 0.335978
v -0.201047 0.237184 0.336005
v -0.201047 0.237274 0.336051
v -0.201047 0.237354 0.336116
v -0.201047 0.237419 0.336196
v -0.201047 0.237465 0.336286
v -0.201047 0.237492 0.336379
v -0.166011 0.237492 0.336379
v -0.166011 0.237465 0.336286
v -0.166011 0.237419 0.336196
v -0.166011 0.237354 0.336116
v -0.166011 0.237274 0.336051
v -0.166011 0.237184 0.336005
v -0.166011 0.237091 0.335978
v -0.179725 0.234500 0.382541
v -0.179789 0.234500 0.382520
v -0.179849 0.234500 0.382489
v -0.179906 0.234500 0.382451
v -0.179955 0.234500 0.382406
v -0.179955 0.232500 0.382406
v -0.179906 0.232500 0.382451
v -0.179849 0.232500 0.382489
v -0.179789 0.232500 0.382520
v -0.179725 0.232500 0.382541
v -0.181054 0.237492 0.379602
v -0.181136 0.237465 0.379647
v -0.181214 0.237419 0.379689
v -0.181284 0.237354 0.379728
v -0.181341 0.237274 0.379759
v -0.181382 0.237184 0.379781
v -0.181406 0.237091 0.379794
v -0.180024 0.234992 0.382309
v -0.180101 0.235463 0.382170
v -0.180182 0.235769 0.382024
v -0.180283 0.236050 0.381842
v -0.180531 0.236519 0.381391
v -0.180826 0.236852 0.380855
v -0.181148 0.237043 0.380266
v -0.179932 0.235020 0.382402
v -0.180010 0.235518 0.382258
v -0.180092 0.235843 0.382105
v -0.180194 0.236142 0.381915
v -0.180447 0.236643 0.381443
v -0.180748 0.237003 0.380880
v -0.181077 0.237214 0.380259
v -0.181120 0.237130 0.380267
v -0.180793 0.236929 0.380871
v -0.180495 0.236581 0.381420
v -0.180243 0.236097 0.381881
v -0.180141 0.235806 0.382068
v -0.180059 0.235491 0.382217
v -0.179982 0.235006 0.382358
v -0.179876 0.235034 0.382439
v -0.179954 0.235545 0.382292
v -0.180035 0.235878 0.382136
v -0.180138 0.236185 0.381941
v -0.180391 0.236700 0.381457
v -0.180691 0.237071 0.380879
v -0.181020 0.237291 0.380243
v -0.179815 0.235046 0.382468
v -0.179892 0.235569 0.382317
v -0.179974 0.235909 0.382158
v -0.180076 0.236224 0.381957
v -0.180327 0.236750 0.381462
v -0.180625 0.237130 0.380870
v -0.180952 0.237355 0.380217
v -0.179751 0.235057 0.382489
v -0.179828 0.235590 0.382334
v -0.179909 0.235937 0.382170
v -0.180010 0.236257 0.381965
v -0.180259 0.236792 0.381458
v -0.180554 0.237177 0.380852
v -0.180877 0.237403 0.380185
v -0.179686 0.235066 0.382500
v -0.179762 0.235608 0.382342
v -0.179842 0.235960 0.382174
v -0.179942 0.236284 0.381964
v -0.180189 0.236825 0.381445
v -0.180481 0.237212 0.380827
v -0.180799 0.237434 0.380148
v -0.201132 0.237492 0.336503
v -0.201219 0.237465 0.336536
v -0.201302 0.237419 0.336569
v -0.201376 0.237354 0.336598
v -0.201437 0.237274 0.336622
v -0.201480 0.237184 0.336639
v -0.201505 0.237091 0.336648
v -0.197002 0.237091 0.347668
v -0.196977 0.237184 0.347657
v -0.196935 0.237274 0.347639
v -0.196875 0.237354 0.347613
v -0.196802 0.237419 0.347582
v -0.196719 0.237465 0.347547
v -0.196634 0.237492 0.347510
v -0.192146 0.237091 0.358543
v -0.192122 0.237184 0.358532
v -0.192080 0.237274 0.358512
v -0.192021 0.237354 0.358485
v -0.191948 0.237419 0.358451
v -0.191867 0.237465 0.358413
v -0.191783 0.237492 0.358374
v -0.186945 0.237091 0.369257
v -0.186921 0.237184 0.369245
v -0.186879 0.237274 0.369224
v -0.186821 0.237354 0.369195
v -0.186750 0.237419 0.369159
v -0.186670 0.237465 0.369118
v -0.186587 0.237492 0.369076
v -0.201530 0.237091 0.336379
v -0.201538 0.237091 0.336449
v -0.201147 0.237091 0.335988
v -0.201141 0.237184 0.336014
v -0.201132 0.237274 0.336060
v -0.201119 0.237354 0.336123
v -0.201103 0.237419 0.336202
v -0.201084 0.237465 0.336289
v -0.201245 0.237091 0.336020
v -0.201234 0.237184 0.336044
v -0.201216 0.237274 0.336087
v -0.201190 0.237354 0.336146
v -0.201157 0.237419 0.336219
v -0.201121 0.237465 0.336301
v -0.201336 0.237091 0.336072
v -0.201320 0.237184 0.336093
v -0.201293 0.237274 0.336131
v -0.201254 0.237354 0.336183
v -0.201208 0.237419 0.336248
v -0.201155 0.237465 0.336321
v -0.201412 0.237091 0.336140
v -0.201392 0.237184 0.336158
v -0.201358 0.237274 0.336189
v -0.201309 0.237354 0.336233
v -0.201250 0.237419 0.336286
v -0.201184 0.237465 0.336346
v -0.201487 0.237091 0.336250
v -0.201463 0.237184 0.336262
v -0.201421 0.237274 0.336282
v -0.201363 0.237354 0.336311
v -0.201292 0.237419 0.336347
v -0.201212 0.237465 0.336387
v -0.201199 0.237465 0.336366
v -0.201273 0.237419 0.336315
v -0.201339 0.237354 0.336270
v -0.201393 0.237274 0.336233
v -0.201431 0.237184 0.336207
v -0.201453 0.237091 0.336192
v -0.201513 0.237091 0.336313
v -0.201488 0.237184 0.336321
v -0.201444 0.237274 0.336336
v -0.201382 0.237354 0.336357
v -0.201306 0.237419 0.336382
v -0.201221 0.237465 0.336411
v -0.201512 0.237184 0.336450
v -0.201465 0.237274 0.336452
v -0.201400 0.237354 0.336454
v -0.201320 0.237419 0.336458
v -0.201231 0.237465 0.336462
v -0.201228 0.237465 0.336436
v -0.201316 0.237419 0.336419
v -0.201395 0.237354 0.336405
v -0.201458 0.237274 0.336393
v -0.201504 0.237184 0.336384
v -0.201525 0.237091 0.336585
v -0.201499 0.237184 0.336579
v -0.201454 0.237274 0.336568
v -0.201391 0.237354 0.336553
v -0.201313 0.237419 0.336534
v -0.201226 0.237465 0.336513
v -0.201230 0.237465 0.336488
v -0.201319 0.237419 0.336496
v -0.201399 0.237354 0.336504
v -0.201464 0.237274 0.336511
v -0.201510 0.237184 0.336515
v -0.201536 0.237091 0.336518
v -0.185675 0.226500 0.371764
v -0.183986 0.228500 0.371764
v -0.196271 0.229500 0.370837
v -0.196271 0.226500 0.370837
v -0.190973 0.228000 0.371300
v -0.196763 0.229500 0.370730
v -0.197227 0.229500 0.370494
v -0.197615 0.229500 0.370146
v -0.197892 0.229500 0.369726
v -0.197892 0.226500 0.369726
v -0.197615 0.226500 0.370146
v -0.197227 0.226500 0.370494
v -0.196763 0.226500 0.370730
v -0.196763 0.228000 0.370730
v -0.197227 0.228000 0.370494
v -0.197615 0.228000 0.370146
v -0.202481 0.229500 0.360031
v -0.206796 0.229500 0.350212
v -0.206796 0.226500 0.350212
v -0.202481 0.226500 0.360031
v -0.202481 0.228000 0.360031
v -0.206925 0.229500 0.349767
v -0.206949 0.229500 0.349291
v -0.206858 0.229500 0.348823
v -0.206667 0.229500 0.348402
v -0.206384 0.229500 0.348035
v -0.206013 0.229500 0.347736
v -0.205582 0.229500 0.347534
v -0.205128 0.229500 0.347440
v -0.205128 0.226500 0.347440
v -0.205582 0.226500 0.347534
v -0.206013 0.226500 0.347736
v -0.206384 0.226500 0.348035
v -0.206667 0.226500 0.348402
v -0.206858 0.226500 0.348823
v -0.206949 0.226500 0.349291
v -0.206925 0.226500 0.349767
v -0.206934 0.228000 0.349155
v -0.206954 0.228000 0.349428
v -0.206882 0.228000 0.349963
v -0.206936 0.228000 0.349700
v -0.206878 0.228000 0.348888
v -0.206788 0.228000 0.348635
v -0.206667 0.228000 0.348402
v -0.206517 0.228000 0.348186
v -0.206234 0.228000 0.347897
v -0.205894 0.228000 0.347668
v -0.205517 0.228000 0.347514
v -0.197396 0.226500 0.346764
v -0.201262 0.228000 0.347102
v -0.195765 0.228500 0.346764
v -0.194745 0.226500 0.359326
v -0.196434 0.229500 0.359327
v -0.099798 0.233500 0.351970
v -0.082570 0.233500 0.381808
v -0.091184 0.232000 0.366889
v -0.130975 0.233500 0.333970
v -0.126416 0.233500 0.334259
v -0.121816 0.233500 0.335154
v -0.117294 0.233500 0.336670
v -0.112974 0.233500 0.338793
v -0.108977 0.233500 0.341472
v -0.105403 0.233500 0.344630
v -0.102328 0.233500 0.348167
v -0.102328 0.232000 0.348167
v -0.105403 0.232000 0.344630
v -0.108977 0.232000 0.341472
v -0.112974 0.232000 0.338793
v -0.117294 0.232000 0.336670
v -0.121816 0.232000 0.335154
v -0.126416 0.232000 0.334259
v -0.201821 0.233500 0.333970
v -0.166398 0.232000 0.333970
v -0.101097 0.233500 0.352720
v -0.084447 0.233500 0.381558
v -0.084348 0.233500 0.381795
v -0.084322 0.233500 0.381925
v -0.084313 0.233500 0.382058
v -0.084322 0.233500 0.382192
v -0.084348 0.233500 0.382322
v -0.082876 0.233500 0.382542
v -0.082813 0.233500 0.382521
v -0.082753 0.233500 0.382491
v -0.082698 0.233500 0.382454
v -0.082648 0.233500 0.382410
v -0.082570 0.233500 0.382308
v -0.082521 0.233500 0.382190
v -0.082508 0.233500 0.382125
v -0.082503 0.233500 0.382058
v -0.082508 0.233500 0.381992
v -0.082521 0.233500 0.381927
v -0.201939 0.233500 0.333984
v -0.202053 0.233500 0.334027
v -0.202154 0.233500 0.334097
v -0.202233 0.233500 0.334186
v -0.202288 0.233500 0.334292
v -0.202317 0.233500 0.334411
v -0.202317 0.233500 0.334533
v -0.201671 0.233500 0.335688
v -0.201480 0.233500 0.335568
v -0.201266 0.233500 0.335494
v -0.201047 0.233500 0.335470
v -0.130975 0.233500 0.335470
v -0.126606 0.233500 0.335747
v -0.122197 0.233500 0.336605
v -0.117864 0.233500 0.338058
v -0.113725 0.233500 0.340092
v -0.109894 0.233500 0.342659
v -0.106468 0.233500 0.345686
v -0.103521 0.233500 0.349075
v -0.201047 0.233909 0.335961
v -0.201047 0.233816 0.335935
v -0.201047 0.233726 0.335888
v -0.201047 0.233647 0.335823
v -0.201047 0.233582 0.335743
v -0.201047 0.233535 0.335654
v -0.201047 0.233508 0.335561
v -0.201722 0.233508 0.335860
v -0.201316 0.233909 0.336038
v -0.201293 0.233508 0.335595
v -0.201252 0.233909 0.336004
v -0.201424 0.233909 0.336129
v -0.201444 0.233816 0.336111
v -0.201479 0.233726 0.336080
v -0.201527 0.233647 0.336036
v -0.201586 0.233582 0.335983
v -0.201652 0.233535 0.335923
v -0.201721 0.233535 0.336009
v -0.201647 0.233582 0.336060
v -0.201581 0.233647 0.336105
v -0.201527 0.233726 0.336142
v -0.201489 0.233816 0.336168
v -0.201467 0.233909 0.336183
v -0.201697 0.233582 0.336145
v -0.201625 0.233647 0.336180
v -0.201567 0.233726 0.336209
v -0.201526 0.233816 0.336230
v -0.201502 0.233909 0.336242
v -0.201610 0.233726 0.336323
v -0.201565 0.233816 0.336335
v -0.201539 0.233909 0.336341
v -0.201582 0.233816 0.336447
v -0.201555 0.233909 0.336448
v -0.201548 0.233909 0.336554
v -0.201373 0.233909 0.336080
v -0.201391 0.233816 0.336059
v -0.201420 0.233726 0.336024
v -0.201462 0.233647 0.335974
v -0.201513 0.233582 0.335913
v -0.201571 0.233535 0.335844
v -0.201631 0.233508 0.335773
v -0.201263 0.233816 0.335980
v -0.201281 0.233726 0.335937
v -0.201308 0.233647 0.335878
v -0.201340 0.233582 0.335805
v -0.201376 0.233535 0.335723
v -0.201414 0.233508 0.335638
v -0.201527 0.233508 0.335698
v -0.201478 0.233535 0.335777
v -0.201431 0.233582 0.335853
v -0.201388 0.233647 0.335921
v -0.201354 0.233726 0.335976
v -0.201330 0.233816 0.336015
v -0.201116 0.233909 0.335966
v -0.201119 0.233816 0.335939
v -0.201126 0.233726 0.335893
v -0.201134 0.233647 0.335829
v -0.201145 0.233582 0.335750
v -0.201157 0.233535 0.335661
v -0.201170 0.233508 0.335569
v -0.201268 0.233535 0.335684
v -0.201244 0.233582 0.335770
v -0.201222 0.233647 0.335847
v -0.201204 0.233726 0.335910
v -0.201192 0.233816 0.335955
v -0.201185 0.233909 0.335980
v -0.130975 0.233909 0.335961
v -0.130975 0.233816 0.335935
v -0.130975 0.233726 0.335888
v -0.130975 0.233647 0.335823
v -0.130975 0.233582 0.335743
v -0.130975 0.233535 0.335654
v -0.130975 0.233508 0.335561
v -0.166011 0.233508 0.335561
v -0.166011 0.233535 0.335654
v -0.166011 0.233582 0.335743
v -0.166011 0.233647 0.335823
v -0.166011 0.233726 0.335888
v -0.166011 0.233816 0.335935
v -0.166011 0.233909 0.335961
v -0.101522 0.233909 0.352965
v -0.101499 0.233816 0.352952
v -0.101459 0.233726 0.352929
v -0.101403 0.233647 0.352896
v -0.101334 0.233582 0.352856
v -0.101256 0.233535 0.352812
v -0.101175 0.233508 0.352765
v -0.126668 0.233909 0.336235
v -0.126665 0.233816 0.336208
v -0.126659 0.233726 0.336162
v -0.126651 0.233647 0.336098
v -0.126641 0.233582 0.336019
v -0.126630 0.233535 0.335930
v -0.126618 0.233508 0.335838
v -0.122322 0.233909 0.337080
v -0.122316 0.233816 0.337054
v -0.122304 0.233726 0.337010
v -0.122287 0.233647 0.336947
v -0.122267 0.233582 0.336869
v -0.122244 0.233535 0.336783
v -0.122221 0.233508 0.336693
v -0.118050 0.233909 0.338513
v -0.118040 0.233816 0.338488
v -0.118023 0.233726 0.338445
v -0.117998 0.233647 0.338385
v -0.117968 0.233582 0.338311
v -0.117934 0.233535 0.338228
v -0.117898 0.233508 0.338142
v -0.113970 0.233909 0.340518
v -0.113957 0.233816 0.340494
v -0.113934 0.233726 0.340454
v -0.113901 0.233647 0.340398
v -0.113861 0.233582 0.340329
v -0.113817 0.233535 0.340251
v -0.113770 0.233508 0.340171
v -0.110194 0.233909 0.343049
v -0.110178 0.233816 0.343027
v -0.110149 0.233726 0.342991
v -0.110110 0.233647 0.342939
v -0.110061 0.233582 0.342876
v -0.110006 0.233535 0.342805
v -0.109949 0.233508 0.342731
v -0.106817 0.233909 0.346032
v -0.106798 0.233816 0.346013
v -0.106766 0.233726 0.345981
v -0.106719 0.233647 0.345935
v -0.106663 0.233582 0.345879
v -0.106599 0.233535 0.345816
v -0.106533 0.233508 0.345750
v -0.103912 0.233909 0.349373
v -0.103891 0.233816 0.349357
v -0.103854 0.233726 0.349329
v -0.103803 0.233647 0.349290
v -0.103739 0.233582 0.349241
v -0.103668 0.233535 0.349187
v -0.103594 0.233508 0.349131
v -0.084872 0.233909 0.381804
v -0.084849 0.233816 0.381791
v -0.084809 0.233726 0.381768
v -0.084753 0.233647 0.381735
v -0.084684 0.233582 0.381695
v -0.084606 0.233535 0.381650
v -0.084525 0.233508 0.381604
v -0.092850 0.233508 0.367184
v -0.092931 0.233535 0.367231
v -0.093009 0.233582 0.367276
v -0.093078 0.233647 0.367316
v -0.093134 0.233726 0.367348
v -0.093174 0.233816 0.367371
v -0.093197 0.233909 0.367385
v -0.085081 0.233816 0.382541
v -0.085093 0.233909 0.382517
v -0.085165 0.233909 0.382545
v -0.084743 0.233582 0.382509
v -0.084806 0.233647 0.382459
v -0.084856 0.233726 0.382419
v -0.084893 0.233816 0.382390
v -0.084914 0.233909 0.382374
v -0.084965 0.233909 0.382429
v -0.084947 0.233816 0.382449
v -0.084915 0.233726 0.382483
v -0.084871 0.233647 0.382530
v -0.084525 0.233508 0.382513
v -0.084606 0.233535 0.382466
v -0.084684 0.233582 0.382422
v -0.084753 0.233647 0.382382
v -0.084809 0.233726 0.382349
v -0.084849 0.233816 0.382326
v -0.084872 0.233909 0.382313
v -0.084468 0.233508 0.382394
v -0.084554 0.233535 0.382360
v -0.084638 0.233582 0.382327
v -0.084712 0.233647 0.382297
v -0.084772 0.233726 0.382273
v -0.084815 0.233816 0.382256
v -0.084840 0.233909 0.382246
v -0.084414 0.233508 0.382197
v -0.084506 0.233535 0.382183
v -0.084595 0.233582 0.382169
v -0.084674 0.233647 0.382157
v -0.084738 0.233726 0.382147
v -0.084784 0.233816 0.382140
v -0.084810 0.233909 0.382136
v -0.084406 0.233508 0.381989
v -0.084499 0.233535 0.381996
v -0.084588 0.233582 0.382003
v -0.084668 0.233647 0.382009
v -0.084733 0.233726 0.382014
v -0.084779 0.233816 0.382017
v -0.084806 0.233909 0.382019
v -0.084445 0.233508 0.381786
v -0.084534 0.233535 0.381814
v -0.084620 0.233582 0.381841
v -0.084696 0.233647 0.381865
v -0.084758 0.233726 0.381884
v -0.084802 0.233816 0.381898
v -0.084828 0.233909 0.381906
v -0.085026 0.233909 0.382478
v -0.085010 0.233816 0.382500
v -0.084984 0.233726 0.382538
v -0.202312 0.232000 0.334376
v -0.202320 0.232000 0.334446
v -0.202307 0.232000 0.334584
v -0.202318 0.232000 0.334516
v -0.202294 0.232000 0.334308
v -0.202267 0.232000 0.334244
v -0.202233 0.232000 0.334186
v -0.202191 0.232000 0.334133
v -0.202113 0.232000 0.334064
v -0.202022 0.232000 0.334012
v -0.201922 0.232000 0.333980
v -0.082505 0.232000 0.382020
v -0.082526 0.232000 0.381909
v -0.082509 0.232000 0.382134
v -0.082539 0.232000 0.382243
v -0.082570 0.232000 0.382308
v -0.082611 0.232000 0.382368
v -0.082662 0.232000 0.382423
v -0.082721 0.232000 0.382471
v -0.082787 0.232000 0.382509
v -0.082858 0.232000 0.382537
v -0.082931 0.232000 0.382553
v -0.118156 0.222135 0.363523
v -0.117817 0.222135 0.364705
v -0.117227 0.222135 0.365843
v -0.116402 0.222135 0.366858
v -0.115387 0.222135 0.367683
v -0.114250 0.222135 0.368272
v -0.113068 0.222135 0.368612
v -0.111912 0.222135 0.368718
v -0.110757 0.222135 0.368612
v -0.109575 0.222135 0.368272
v -0.108438 0.222135 0.367683
v -0.107422 0.222135 0.366858
v -0.106597 0.222135 0.365843
v -0.106008 0.222135 0.364705
v -0.105668 0.222135 0.363523
v -0.117939 0.228318 0.364369
v -0.118185 0.228318 0.363355
v -0.117510 0.228318 0.365366
v -0.116901 0.228318 0.366297
v -0.116129 0.228318 0.367116
v -0.115230 0.228318 0.367782
v -0.114250 0.228318 0.368272
v -0.113237 0.228318 0.368578
v -0.111912 0.228318 0.368718
v -0.110588 0.228318 0.368578
v -0.109242 0.228318 0.368129
v -0.107983 0.228318 0.367356
v -0.106924 0.228318 0.366297
v -0.106151 0.228318 0.365038
v -0.105702 0.228318 0.363692
v -0.192818 0.223723 0.347190
v -0.192478 0.223723 0.348372
v -0.191889 0.223723 0.349509
v -0.191064 0.223723 0.350525
v -0.190049 0.223723 0.351350
v -0.188911 0.223723 0.351939
v -0.187729 0.223723 0.352279
v -0.186574 0.223723 0.352385
v -0.185418 0.223723 0.352279
v -0.184236 0.223723 0.351939
v -0.183099 0.223723 0.351350
v -0.182084 0.223723 0.350525
v -0.181259 0.223723 0.349509
v -0.180670 0.223723 0.348372
v -0.180330 0.223723 0.347190
v -0.192600 0.229111 0.348036
v -0.192847 0.229111 0.347022
v -0.192172 0.229111 0.349032
v -0.191562 0.229111 0.349964
v -0.190791 0.229111 0.350782
v -0.189892 0.229111 0.351449
v -0.188911 0.229111 0.351939
v -0.187898 0.229111 0.352245
v -0.186574 0.229111 0.352385
v -0.185250 0.229111 0.352245
v -0.183903 0.229111 0.351796
v -0.182645 0.229111 0.351023
v -0.181585 0.229111 0.349964
v -0.180813 0.229111 0.348705
v -0.180363 0.229111 0.347359
v -0.189696 0.223723 0.346612
v -0.189526 0.223723 0.347203
v -0.189231 0.223723 0.347772
v -0.188819 0.223723 0.348280
v -0.188311 0.223723 0.348692
v -0.187742 0.223723 0.348987
v -0.187152 0.223723 0.349157
v -0.186574 0.223723 0.349210
v -0.185996 0.223723 0.349157
v -0.185405 0.223723 0.348987
v -0.184836 0.223723 0.348692
v -0.184329 0.223723 0.348280
v -0.183916 0.223723 0.347772
v -0.183622 0.223723 0.347203
v -0.183452 0.223723 0.346612
v -0.116595 0.222135 0.363234
v -0.116340 0.222135 0.364121
v -0.115899 0.222135 0.364974
v -0.115280 0.222135 0.365735
v -0.114518 0.222135 0.366354
v -0.113665 0.222135 0.366796
v -0.112779 0.222135 0.367051
v -0.111912 0.222135 0.367130
v -0.111046 0.222135 0.367051
v -0.110159 0.222135 0.366796
v -0.109306 0.222135 0.366354
v -0.108545 0.222135 0.365735
v -0.107926 0.222135 0.364974
v -0.107484 0.222135 0.364121
v -0.107229 0.222135 0.363234
v -0.116595 0.223723 0.363234
v -0.116340 0.223723 0.364121
v -0.115899 0.223723 0.364974
v -0.115280 0.223723 0.365735
v -0.114518 0.223723 0.366354
v -0.113665 0.223723 0.366796
v -0.112779 0.223723 0.367051
v -0.111912 0.223723 0.367130
v -0.111046 0.223723 0.367051
v -0.110159 0.223723 0.366796
v -0.109306 0.223723 0.366354
v -0.108545 0.223723 0.365735
v -0.107926 0.223723 0.364974
v -0.107484 0.223723 0.364121
v -0.107229 0.223723 0.363234
v -0.116432 0.222929 0.363869
v -0.116617 0.222929 0.363108
v -0.116111 0.222929 0.364616
v -0.115654 0.222929 0.365315
v -0.115075 0.222929 0.365929
v -0.114401 0.222929 0.366428
v -0.113665 0.222929 0.366796
v -0.112905 0.222929 0.367026
v -0.111912 0.222929 0.367130
v -0.110919 0.222929 0.367026
v -0.109910 0.222929 0.366689
v -0.108965 0.222929 0.366109
v -0.108171 0.222929 0.365315
v -0.107591 0.222929 0.364371
v -0.107255 0.222929 0.363361
v -0.111912 0.223723 0.362368
v -0.189696 0.223977 0.346612
v -0.189526 0.223977 0.347203
v -0.189231 0.223977 0.347772
v -0.188819 0.223977 0.348280
v -0.188311 0.223977 0.348692
v -0.187742 0.223977 0.348987
v -0.187152 0.223977 0.349157
v -0.186574 0.223977 0.349210
v -0.185996 0.223977 0.349157
v -0.185405 0.223977 0.348987
v -0.184836 0.223977 0.348692
v -0.184329 0.223977 0.348280
v -0.183916 0.223977 0.347772
v -0.183622 0.223977 0.347203
v -0.183452 0.223977 0.346612
v -0.183561 0.223850 0.347035
v -0.183437 0.223850 0.346528
v -0.183775 0.223850 0.347534
v -0.184080 0.223850 0.347999
v -0.184465 0.223850 0.348409
v -0.184915 0.223850 0.348742
v -0.185405 0.223850 0.348987
v -0.185912 0.223850 0.349140
v -0.186574 0.223850 0.349210
v -0.187236 0.223850 0.349140
v -0.187909 0.223850 0.348915
v -0.188538 0.223850 0.348529
v -0.189068 0.223850 0.347999
v -0.189454 0.223850 0.347370
v -0.189679 0.223850 0.346697
v -0.188540 0.223977 0.346399
v -0.188433 0.223977 0.346771
v -0.188248 0.223977 0.347129
v -0.187988 0.223977 0.347449
v -0.187668 0.223977 0.347709
v -0.187310 0.223977 0.347894
v -0.186938 0.223977 0.348001
v -0.186574 0.223977 0.348035
v -0.186210 0.223977 0.348001
v -0.185838 0.223977 0.347894
v -0.185479 0.223977 0.347709
v -0.185160 0.223977 0.347449
v -0.184900 0.223977 0.347129
v -0.184714 0.223977 0.346771
v -0.184607 0.223977 0.346399
v -0.188540 0.233977 0.346399
v -0.188433 0.233977 0.346771
v -0.188248 0.233977 0.347129
v -0.187988 0.233977 0.347449
v -0.187668 0.233977 0.347709
v -0.187310 0.233977 0.347894
v -0.186938 0.233977 0.348001
v -0.186574 0.233977 0.348035
v -0.186210 0.233977 0.348001
v -0.185838 0.233977 0.347894
v -0.185479 0.233977 0.347709
v -0.185160 0.233977 0.347449
v -0.184900 0.233977 0.347129
v -0.184714 0.233977 0.346771
v -0.184607 0.233977 0.346399
v -0.184676 0.228977 0.346665
v -0.184598 0.228977 0.346346
v -0.184811 0.228977 0.346979
v -0.185003 0.228977 0.347272
v -0.185246 0.228977 0.347530
v -0.185529 0.228977 0.347740
v -0.185838 0.228977 0.347894
v -0.186157 0.228977 0.347991
v -0.186574 0.228977 0.348035
v -0.186991 0.228977 0.347991
v -0.187415 0.228977 0.347849
v -0.187811 0.228977 0.347606
v -0.188145 0.228977 0.347272
v -0.188388 0.228977 0.346876
v -0.188530 0.228977 0.346452
v -0.186574 0.233977 0.346035
v -0.186574 0.230835 0.342225
v -0.186574 0.230835 0.340955
v -0.186574 0.227279 0.342225
f 1 2 34
f 34 2 35
f 34 35 33
f 33 35 36
f 33 36 32
f 32 36 37
f 32 37 31
f 31 37 38
f 31 38 30
f 30 38 39
f 30 39 29
f 29 39 40
f 29 40 28
f 28 40 41
f 28 41 27
f 27 41 26
f 26 41 42
f 26 42 25
f 25 42 43
f 25 43 44
f 44 43 12
f 44 12 13
f 2 3 35
f 35 3 4
f 35 4 36
f 36 4 5
f 36 5 37
f 37 5 6
f 37 6 38
f 38 6 7
f 38 7 39
f 39 7 8
f 39 8 40
f 40 8 9
f 40 9 41
f 41 9 10
f 41 10 11
f 41 11 42
f 42 11 12
f 42 12 43
f 44 13 45
f 45 13 14
f 45 14 46
f 46 14 15
f 46 15 47
f 47 15 16
f 47 16 48
f 48 16 17
f 48 17 49
f 49 17 18
f 49 18 19
f 19 20 49
f 49 20 48
f 20 21 48
f 48 21 47
f 21 22 47
f 47 22 46
f 22 23 46
f 46 23 45
f 23 24 45
f 45 24 44
f 24 25 44
f 50 51 83
f 83 51 84
f 83 84 82
f 82 84 85
f 82 85 81
f 81 85 86
f 81 86 80
f 80 86 87
f 80 87 79
f 79 87 88
f 79 88 78
f 78 88 89
f 78 89 77
f 77 89 90
f 77 90 76
f 76 90 75
f 75 90 91
f 75 91 74
f 74 91 92
f 74 92 93
f 93 92 61
f 93 61 62
f 51 52 84
f 84 52 53
f 84 53 85
f 85 53 54
f 85 54 86
f 86 54 55
f 86 55 87
f 87 55 56
f 87 56 88
f 88 56 57
f 88 57 89
f 89 57 58
f 89 58 90
f 90 58 59
f 90 59 60
f 90 60 91
f 91 60 61
f 91 61 92
f 93 62 94
f 94 62 63
f 94 63 95
f 95 63 64
f 95 64 96
f 96 64 65
f 96 65 97
f 97 65 66
f 97 66 98
f 98 66 67
f 98 67 68
f 68 69 98
f 98 69 97
f 69 70 97
f 97 70 96
f 70 71 96
f 96 71 95
f 71 72 95
f 95 72 94
f 72 73 94
f 94 73 93
f 73 74 93
f 99 100 132
f 132 100 133
f 132 133 131
f 131 133 134
f 131 134 130
f 130 134 135
f 130 135 129
f 129 135 136
f 129 136 128
f 128 136 137
f 128 137 127
f 127 137 138
f 127 138 126
f 126 138 139
f 126 139 125
f 125 139 124
f 124 139 140
f 124 140 123
f 123 140 141
f 123 141 142
f 142 141 110
f 142 110 111
f 100 101 133
f 133 101 102
f 133 102 134
f 134 102 103
f 134 103 135
f 135 103 104
f 135 104 136
f 136 104 105
f 136 105 137
f 137 105 106
f 137 106 138
f 138 106 107
f 138 107 139
f 139 107 108
f 139 108 109
f 139 109 140
f 140 109 110
f 140 110 141
f 142 111 143
f 143 111 112
f 143 112 144
f 144 112 113
f 144 113 145
f 145 113 114
f 145 114 146
f 146 114 115
f 146 115 147
f 147 115 116
f 147 116 117
f 117 118 147
f 147 118 146
f 118 119 146
f 146 119 145
f 119 120 145
f 145 120 144
f 120 121 144
f 144 121 143
f 121 122 143
f 143 122 142
f 122 123 142
f 148 149 183
f 183 149 184
f 183 184 182
f 182 184 185
f 182 185 181
f 181 185 180
f 180 185 152
f 180 152 179
f 179 152 153
f 179 153 178
f 178 153 154
f 178 154 177
f 177 154 155
f 177 155 176
f 176 155 156
f 176 156 175
f 175 156 157
f 175 157 158
f 149 150 184
f 184 150 151
f 184 151 185
f 185 151 152
f 175 158 174
f 174 158 159
f 174 159 173
f 173 159 160
f 173 160 172
f 172 160 161
f 172 161 171
f 171 161 162
f 171 162 187
f 187 162 163
f 187 163 186
f 186 163 164
f 186 164 188
f 188 164 165
f 188 165 166
f 166 167 188
f 188 167 186
f 167 168 186
f 186 168 169
f 186 169 187
f 187 169 170
f 187 170 171
f 189 190 222
f 222 190 223
f 222 223 221
f 221 223 224
f 221 224 220
f 220 224 225
f 220 225 219
f 219 225 226
f 219 226 218
f 218 226 227
f 218 227 217
f 217 227 228
f 217 228 216
f 216 228 229
f 216 229 215
f 215 229 214
f 214 229 230
f 214 230 213
f 213 230 231
f 213 231 232
f 232 231 200
f 232 200 201
f 190 191 223
f 223 191 192
f 223 192 224
f 224 192 193
f 224 193 225
f 225 193 194
f 225 194 226
f 226 194 195
f 226 195 227
f 227 195 196
f 227 196 228
f 228 196 197
f 228 197 229
f 229 197 198
f 229 198 199
f 229 199 230
f 230 199 200
f 230 200 231
f 232 201 233
f 233 201 202
f 233 202 234
f 234 202 203
f 234 203 235
f 235 203 204
f 235 204 236
f 236 204 205
f 236 205 237
f 237 205 206
f 237 206 207
f 207 208 237
f 237 208 236
f 208 209 236
f 236 209 235
f 209 210 235
f 235 210 234
f 210 211 234
f 234 211 233
f 211 212 233
f 233 212 232
f 212 213 232
f 239 272 238
f 238 272 273
f 238 273 274
f 272 239 285
f 285 239 240
f 285 240 263
f 263 240 262
f 262 240 261
f 261 240 260
f 260 240 259
f 259 240 258
f 258 240 241
f 258 241 257
f 257 241 256
f 256 241 255
f 255 241 254
f 254 241 242
f 254 242 149
f 149 242 150
f 150 242 151
f 151 242 152
f 152 242 243
f 152 243 153
f 153 243 154
f 154 243 155
f 155 243 156
f 156 243 157
f 157 243 284
f 157 284 158
f 158 284 159
f 159 284 160
f 160 284 161
f 161 284 162
f 162 284 163
f 163 284 164
f 164 284 165
f 165 284 268
f 268 284 267
f 267 284 285
f 267 285 266
f 266 285 265
f 265 285 264
f 264 285 263
f 243 244 284
f 284 244 247
f 284 247 248
f 245 246 244
f 244 246 247
f 284 248 285
f 285 248 249
f 285 249 250
f 251 197 250
f 250 197 196
f 250 196 285
f 285 196 195
f 285 195 194
f 197 251 198
f 198 251 252
f 198 252 199
f 199 252 200
f 200 252 201
f 201 252 202
f 202 252 203
f 203 252 204
f 204 252 205
f 205 252 253
f 205 253 206
f 206 253 283
f 283 253 282
f 282 253 281
f 281 253 280
f 280 253 279
f 279 253 278
f 278 253 277
f 277 253 276
f 276 253 275
f 275 253 238
f 275 238 274
f 191 190 285
f 285 190 269
f 285 269 270
f 270 271 285
f 285 271 272
f 194 193 285
f 285 193 192
f 285 192 191
f 289 286 290
f 290 286 287
f 290 287 288
f 288 289 290
f 302 291 303
f 303 291 292
f 303 292 293
f 293 294 303
f 303 294 295
f 303 295 298
f 298 295 297
f 297 295 296
f 298 299 303
f 303 299 300
f 303 300 301
f 301 302 303
f 317 294 318
f 318 294 293
f 318 293 304
f 318 304 319
f 319 304 305
f 319 305 320
f 320 305 306
f 320 306 321
f 321 306 307
f 321 307 322
f 322 307 308
f 322 308 323
f 323 308 309
f 323 309 324
f 324 309 310
f 324 310 287
f 287 286 324
f 324 286 311
f 324 311 323
f 323 311 312
f 323 312 322
f 322 312 313
f 322 313 321
f 321 313 314
f 321 314 320
f 320 314 315
f 320 315 319
f 319 315 316
f 319 316 318
f 318 316 317
f 348 325 350
f 350 325 326
f 350 326 327
f 327 328 350
f 350 328 349
f 350 349 347
f 347 349 346
f 346 349 351
f 346 351 345
f 345 351 344
f 344 351 352
f 344 352 343
f 343 352 353
f 343 353 354
f 354 353 332
f 354 332 333
f 328 329 349
f 349 329 351
f 329 330 351
f 351 330 331
f 351 331 352
f 352 331 332
f 352 332 353
f 354 333 355
f 355 333 334
f 355 334 356
f 356 334 335
f 356 335 357
f 357 335 336
f 357 336 358
f 358 336 337
f 358 337 359
f 359 337 292
f 359 292 291
f 291 338 359
f 359 338 358
f 338 339 358
f 358 339 357
f 339 340 357
f 357 340 356
f 340 341 356
f 356 341 355
f 341 342 355
f 355 342 354
f 342 343 354
f 347 348 350
f 375 289 379
f 379 289 288
f 379 288 360
f 379 360 378
f 378 360 361
f 378 361 380
f 380 361 362
f 380 362 381
f 381 362 363
f 381 363 382
f 382 363 383
f 382 383 372
f 372 383 371
f 371 383 384
f 371 384 376
f 376 384 364
f 376 364 365
f 363 364 383
f 383 364 384
f 376 365 377
f 377 365 366
f 377 366 386
f 386 366 385
f 386 385 369
f 369 385 368
f 368 385 367
f 367 385 366
f 386 369 377
f 377 369 370
f 377 370 376
f 376 370 371
f 382 372 381
f 381 372 373
f 381 373 380
f 380 373 374
f 380 374 378
f 378 374 375
f 378 375 379
f 388 389 387
f 387 389 412
f 412 389 411
f 411 389 413
f 411 413 410
f 410 413 409
f 409 413 408
f 408 413 367
f 367 413 368
f 368 413 407
f 407 413 414
f 407 414 406
f 406 414 405
f 405 414 415
f 405 415 404
f 404 415 399
f 404 399 403
f 403 399 400
f 403 400 402
f 402 400 401
f 389 390 413
f 413 390 391
f 413 391 414
f 414 391 392
f 414 392 415
f 415 392 393
f 415 393 394
f 395 396 394
f 394 396 415
f 396 397 415
f 415 397 398
f 415 398 399
f 243 242 416
f 416 242 422
f 422 242 241
f 422 241 424
f 424 241 425
f 424 425 420
f 420 425 423
f 420 423 419
f 419 423 418
f 418 423 239
f 418 239 238
f 241 240 425
f 425 240 423
f 240 239 423
f 238 417 418
f 420 421 424
f 424 421 422
f 422 390 416
f 416 390 389
f 416 389 433
f 433 389 426
f 433 426 427
f 427 428 433
f 433 428 429
f 433 429 430
f 430 431 433
f 433 431 432
f 433 434 416
f 416 434 471
f 471 434 435
f 471 435 470
f 470 435 436
f 470 436 469
f 469 436 437
f 469 437 438
f 469 438 468
f 468 438 439
f 468 439 467
f 467 439 466
f 466 439 440
f 466 440 465
f 465 440 441
f 465 441 464
f 464 441 442
f 464 442 463
f 463 442 462
f 462 442 443
f 462 443 455
f 455 443 444
f 455 444 445
f 445 446 455
f 455 446 447
f 455 447 448
f 448 449 455
f 455 449 450
f 455 450 451
f 451 452 455
f 455 452 453
f 455 453 454
f 455 456 462
f 462 456 417
f 417 456 395
f 417 395 394
f 457 458 456
f 456 458 459
f 456 459 460
f 460 461 456
f 456 461 395
f 394 418 417
f 253 462 472
f 472 462 417
f 472 417 238
f 238 253 472
f 243 416 473
f 473 416 471
f 473 471 244
f 244 243 473
f 480 456 481
f 481 456 455
f 481 455 475
f 475 455 474
f 475 476 481
f 481 476 477
f 481 477 478
f 478 479 481
f 481 479 326
f 481 326 325
f 325 480 481
f 496 482 497
f 497 482 483
f 497 483 484
f 484 485 497
f 497 485 486
f 497 486 487
f 487 488 497
f 497 488 492
f 497 492 494
f 494 492 493
f 488 489 492
f 492 489 490
f 492 490 491
f 494 495 497
f 497 495 496
f 252 463 498
f 498 463 462
f 498 462 253
f 253 252 498
f 244 471 499
f 499 471 470
f 499 470 500
f 500 470 469
f 500 469 501
f 501 469 468
f 501 468 502
f 502 468 467
f 502 467 503
f 503 467 466
f 503 466 504
f 504 466 465
f 504 465 505
f 505 465 464
f 505 464 463
f 463 252 505
f 505 252 251
f 505 251 504
f 504 251 250
f 504 250 503
f 503 250 249
f 503 249 502
f 502 249 248
f 502 248 501
f 501 248 247
f 501 247 500
f 500 247 246
f 500 246 499
f 499 246 245
f 499 245 244
f 519 480 520
f 520 480 325
f 520 325 506
f 506 507 520
f 520 507 521
f 520 521 519
f 519 521 518
f 518 521 522
f 518 522 517
f 517 522 523
f 517 523 516
f 516 523 524
f 516 524 515
f 515 524 525
f 515 525 514
f 514 525 513
f 513 525 526
f 513 526 482
f 482 526 483
f 483 526 512
f 512 526 525
f 512 525 511
f 511 525 524
f 511 524 510
f 510 524 523
f 510 523 509
f 509 523 522
f 509 522 508
f 508 522 521
f 508 521 507
f 325 348 506
f 506 348 535
f 506 535 507
f 507 535 536
f 507 536 508
f 508 536 537
f 508 537 509
f 509 537 538
f 509 538 539
f 539 538 546
f 539 546 547
f 547 546 554
f 547 554 555
f 555 554 562
f 555 562 531
f 531 562 569
f 531 569 530
f 530 569 577
f 530 577 576
f 576 577 578
f 576 578 575
f 575 578 579
f 575 579 574
f 574 579 580
f 574 580 573
f 573 580 581
f 573 581 572
f 572 581 582
f 572 582 571
f 571 582 583
f 571 583 570
f 570 583 343
f 570 343 342
f 348 347 535
f 535 347 542
f 535 542 543
f 543 542 550
f 543 550 551
f 551 550 558
f 551 558 559
f 559 558 566
f 559 566 567
f 567 566 579
f 567 579 578
f 347 346 542
f 542 346 549
f 542 549 550
f 550 549 557
f 550 557 558
f 558 557 565
f 558 565 566
f 566 565 580
f 566 580 579
f 346 345 549
f 549 345 556
f 549 556 557
f 557 556 564
f 557 564 565
f 565 564 581
f 565 581 580
f 345 344 556
f 556 344 563
f 556 563 564
f 564 563 582
f 564 582 581
f 344 343 563
f 563 343 583
f 563 583 582
f 570 342 584
f 584 342 341
f 584 341 591
f 591 341 340
f 591 340 598
f 598 340 339
f 598 339 534
f 534 339 338
f 534 338 291
f 291 302 534
f 534 302 301
f 534 301 605
f 605 301 300
f 605 300 606
f 606 300 299
f 606 299 607
f 607 299 608
f 607 608 601
f 601 608 602
f 601 602 594
f 594 602 595
f 594 595 587
f 587 595 588
f 587 588 573
f 573 588 574
f 299 298 608
f 608 298 609
f 608 609 602
f 602 609 603
f 602 603 595
f 595 603 596
f 595 596 588
f 588 596 589
f 588 589 574
f 574 589 575
f 298 297 609
f 609 297 610
f 609 610 603
f 603 610 604
f 603 604 596
f 596 604 597
f 596 597 589
f 589 597 590
f 589 590 575
f 575 590 576
f 297 296 610
f 610 296 527
f 610 527 604
f 604 527 528
f 604 528 597
f 597 528 529
f 597 529 590
f 590 529 576
f 296 295 527
f 529 530 576
f 531 532 555
f 555 532 548
f 555 548 547
f 547 548 540
f 547 540 539
f 539 540 510
f 539 510 509
f 548 532 541
f 541 532 533
f 541 533 512
f 512 533 483
f 512 511 541
f 541 511 540
f 541 540 548
f 511 510 540
f 535 543 536
f 536 543 544
f 536 544 537
f 537 544 545
f 537 545 538
f 538 545 546
f 543 551 544
f 544 551 552
f 544 552 545
f 545 552 553
f 545 553 546
f 546 553 554
f 551 559 552
f 552 559 560
f 552 560 553
f 553 560 561
f 553 561 554
f 554 561 562
f 559 567 560
f 560 567 568
f 560 568 561
f 561 568 569
f 561 569 562
f 577 569 568
f 577 568 578
f 578 568 567
f 571 570 585
f 585 570 584
f 585 584 592
f 592 584 591
f 592 591 599
f 599 591 598
f 599 598 605
f 605 598 534
f 587 573 572
f 572 571 586
f 586 571 585
f 586 585 593
f 593 585 592
f 593 592 600
f 600 592 599
f 600 599 606
f 606 599 605
f 594 587 586
f 586 587 572
f 594 586 593
f 601 594 593
f 601 593 600
f 607 601 600
f 607 600 606
f 484 483 618
f 618 483 533
f 618 533 619
f 619 533 532
f 619 532 620
f 620 532 531
f 620 531 621
f 621 531 530
f 621 530 622
f 622 530 529
f 622 529 623
f 623 529 528
f 623 528 624
f 624 528 527
f 624 527 295
f 295 294 624
f 624 294 611
f 624 611 623
f 623 611 612
f 623 612 622
f 622 612 613
f 622 613 621
f 621 613 614
f 621 614 620
f 620 614 615
f 620 615 619
f 619 615 616
f 619 616 618
f 618 616 617
f 618 617 484
f 485 484 638
f 638 484 617
f 638 617 637
f 637 617 616
f 637 616 636
f 636 616 615
f 636 615 635
f 635 615 614
f 635 614 634
f 634 614 613
f 634 613 633
f 633 613 612
f 633 612 632
f 632 612 611
f 632 611 317
f 317 611 294
f 317 316 632
f 632 316 639
f 632 639 633
f 633 639 640
f 633 640 634
f 634 640 641
f 634 641 635
f 635 641 642
f 635 642 636
f 636 642 643
f 636 643 637
f 637 643 644
f 637 644 638
f 638 644 645
f 638 645 485
f 485 645 486
f 486 645 652
f 486 652 487
f 487 652 659
f 487 659 488
f 488 659 666
f 488 666 489
f 489 666 673
f 489 673 490
f 490 673 680
f 490 680 491
f 491 680 631
f 491 631 492
f 316 315 639
f 639 315 646
f 639 646 640
f 640 646 647
f 640 647 641
f 641 647 648
f 641 648 642
f 642 648 649
f 642 649 643
f 643 649 650
f 643 650 644
f 644 650 651
f 644 651 645
f 645 651 652
f 315 314 646
f 646 314 653
f 646 653 647
f 647 653 654
f 647 654 648
f 648 654 655
f 648 655 649
f 649 655 656
f 649 656 650
f 650 656 657
f 650 657 651
f 651 657 658
f 651 658 652
f 652 658 659
f 314 313 653
f 653 313 660
f 653 660 654
f 654 660 661
f 654 661 655
f 655 661 662
f 655 662 656
f 656 662 663
f 656 663 657
f 657 663 664
f 657 664 658
f 658 664 665
f 658 665 659
f 659 665 666
f 313 312 660
f 660 312 667
f 660 667 661
f 661 667 668
f 661 668 662
f 662 668 669
f 662 669 663
f 663 669 670
f 663 670 664
f 664 670 671
f 664 671 665
f 665 671 672
f 665 672 666
f 666 672 673
f 312 311 667
f 667 311 674
f 667 674 668
f 668 674 675
f 668 675 669
f 669 675 676
f 669 676 670
f 670 676 677
f 670 677 671
f 671 677 678
f 671 678 672
f 672 678 679
f 672 679 673
f 673 679 680
f 311 286 674
f 674 286 625
f 674 625 675
f 675 625 626
f 675 626 676
f 676 626 627
f 676 627 677
f 677 627 628
f 677 628 678
f 678 628 629
f 678 629 679
f 679 629 630
f 679 630 680
f 680 630 631
f 687 493 688
f 688 493 492
f 688 492 631
f 631 630 688
f 688 630 689
f 688 689 686
f 686 689 685
f 685 689 690
f 685 690 684
f 684 690 691
f 684 691 683
f 683 691 692
f 683 692 682
f 682 692 693
f 682 693 681
f 681 693 694
f 681 694 289
f 289 694 286
f 286 694 625
f 625 694 626
f 626 694 693
f 626 693 627
f 627 693 692
f 627 692 628
f 628 692 691
f 628 691 629
f 629 691 690
f 629 690 630
f 630 690 689
f 686 687 688
f 396 395 700
f 700 395 461
f 700 461 701
f 701 461 460
f 701 460 702
f 702 460 459
f 702 459 703
f 703 459 458
f 703 458 704
f 704 458 457
f 704 457 456
f 456 480 704
f 704 480 695
f 704 695 703
f 703 695 696
f 703 696 702
f 702 696 697
f 702 697 701
f 701 697 698
f 701 698 700
f 700 698 699
f 700 699 396
f 397 396 712
f 712 396 699
f 712 699 732
f 732 699 719
f 732 719 720
f 720 719 734
f 720 734 735
f 735 734 742
f 735 742 743
f 743 742 750
f 743 750 751
f 751 750 758
f 751 758 759
f 759 758 515
f 759 515 514
f 699 698 719
f 719 698 733
f 719 733 734
f 734 733 741
f 734 741 742
f 742 741 749
f 742 749 750
f 750 749 757
f 750 757 758
f 758 757 516
f 758 516 515
f 698 697 733
f 733 697 740
f 733 740 741
f 741 740 748
f 741 748 749
f 749 748 756
f 749 756 757
f 757 756 517
f 757 517 516
f 697 696 740
f 740 696 747
f 740 747 748
f 748 747 755
f 748 755 756
f 756 755 518
f 756 518 517
f 696 695 747
f 747 695 754
f 747 754 755
f 755 754 519
f 755 519 518
f 695 480 754
f 754 480 519
f 759 514 760
f 760 514 513
f 760 513 482
f 482 705 760
f 760 705 753
f 760 753 752
f 752 753 745
f 752 745 744
f 744 745 737
f 744 737 736
f 736 737 722
f 736 722 721
f 721 722 730
f 721 730 731
f 731 730 713
f 731 713 712
f 712 713 397
f 705 706 753
f 753 706 746
f 753 746 745
f 745 746 738
f 745 738 737
f 737 738 723
f 737 723 722
f 722 723 729
f 722 729 730
f 730 729 714
f 730 714 713
f 713 714 398
f 713 398 397
f 706 707 746
f 746 707 739
f 746 739 738
f 738 739 724
f 738 724 723
f 723 724 728
f 723 728 729
f 729 728 715
f 729 715 714
f 714 715 399
f 714 399 398
f 707 708 739
f 739 708 725
f 739 725 724
f 724 725 727
f 724 727 728
f 728 727 716
f 728 716 715
f 715 716 400
f 715 400 399
f 708 709 725
f 725 709 726
f 725 726 727
f 727 726 717
f 727 717 716
f 716 717 401
f 716 401 400
f 709 710 726
f 726 710 718
f 726 718 717
f 717 718 402
f 717 402 401
f 710 711 718
f 718 711 403
f 718 403 402
f 711 404 403
f 731 712 732
f 731 732 720
f 731 720 721
f 721 720 735
f 721 735 736
f 736 735 743
f 736 743 744
f 744 743 751
f 744 751 752
f 752 751 759
f 752 759 760
f 493 761 494
f 494 761 774
f 494 774 495
f 495 774 781
f 495 781 496
f 496 781 788
f 496 788 482
f 482 788 705
f 705 788 787
f 705 787 706
f 706 787 786
f 706 786 707
f 707 786 785
f 707 785 708
f 708 785 784
f 708 784 709
f 709 784 783
f 709 783 710
f 710 783 782
f 710 782 711
f 711 782 405
f 711 405 404
f 761 762 774
f 774 762 773
f 774 773 781
f 781 773 780
f 781 780 788
f 788 780 787
f 762 763 773
f 773 763 772
f 773 772 780
f 780 772 779
f 780 779 787
f 787 779 786
f 763 764 772
f 772 764 771
f 772 771 779
f 779 771 778
f 779 778 786
f 786 778 785
f 764 765 771
f 771 765 770
f 771 770 778
f 778 770 777
f 778 777 785
f 785 777 784
f 765 766 770
f 770 766 769
f 770 769 777
f 777 769 776
f 777 776 784
f 784 776 783
f 766 767 769
f 769 767 768
f 769 768 776
f 776 768 775
f 776 775 783
f 783 775 782
f 767 368 768
f 768 368 407
f 768 407 775
f 775 407 406
f 775 406 782
f 782 406 405
f 493 687 796
f 796 687 686
f 796 686 685
f 796 685 795
f 795 685 684
f 795 684 794
f 794 684 683
f 794 683 793
f 793 683 682
f 793 682 792
f 792 682 681
f 792 681 791
f 791 681 289
f 791 289 375
f 791 375 797
f 797 375 374
f 797 374 803
f 803 374 373
f 803 373 809
f 809 373 372
f 809 372 826
f 826 372 815
f 826 815 825
f 825 815 816
f 825 816 824
f 824 816 817
f 824 817 823
f 823 817 818
f 823 818 822
f 822 818 819
f 822 819 821
f 821 819 820
f 821 820 493
f 372 371 815
f 815 371 827
f 815 827 828
f 828 827 842
f 828 842 841
f 841 842 834
f 841 834 835
f 835 834 851
f 835 851 850
f 850 851 847
f 850 847 848
f 848 847 762
f 848 762 761
f 827 371 789
f 789 371 370
f 789 370 790
f 790 370 369
f 790 369 854
f 854 369 843
f 854 843 844
f 844 843 766
f 844 766 765
f 369 368 843
f 843 368 767
f 843 767 766
f 844 765 845
f 845 765 764
f 845 764 846
f 846 764 763
f 846 763 847
f 847 763 762
f 761 493 848
f 848 493 849
f 849 493 837
f 837 493 838
f 838 493 832
f 832 493 820
f 808 493 802
f 802 493 796
f 822 821 814
f 814 821 493
f 814 493 808
f 792 791 798
f 798 791 797
f 798 797 804
f 804 797 803
f 804 803 810
f 810 803 809
f 810 809 826
f 793 792 799
f 799 792 798
f 799 798 805
f 805 798 804
f 805 804 811
f 811 804 810
f 811 810 825
f 825 810 826
f 794 793 800
f 800 793 799
f 800 799 806
f 806 799 805
f 806 805 812
f 812 805 811
f 812 811 824
f 824 811 825
f 802 796 795
f 795 794 801
f 801 794 800
f 801 800 807
f 807 800 806
f 807 806 813
f 813 806 812
f 813 812 823
f 823 812 824
f 808 802 801
f 801 802 795
f 808 801 807
f 814 808 807
f 814 807 813
f 822 814 813
f 822 813 823
f 815 828 816
f 816 828 829
f 816 829 817
f 817 829 830
f 817 830 818
f 818 830 831
f 818 831 819
f 819 831 832
f 819 832 820
f 828 841 829
f 829 841 840
f 829 840 830
f 830 840 839
f 830 839 831
f 831 839 838
f 831 838 832
f 790 833 789
f 789 833 842
f 789 842 827
f 842 833 834
f 834 833 852
f 834 852 851
f 851 852 846
f 851 846 847
f 833 790 853
f 853 790 854
f 853 854 844
f 840 841 835
f 839 840 836
f 836 840 835
f 836 835 850
f 838 839 837
f 837 839 836
f 837 836 849
f 849 836 850
f 849 850 848
f 844 845 853
f 853 845 852
f 853 852 833
f 845 846 852
f 419 418 856
f 856 418 394
f 856 394 393
f 393 855 856
f 856 855 419
f 855 393 859
f 859 393 857
f 859 857 858
f 858 855 859
f 858 857 868
f 868 857 860
f 868 860 869
f 869 860 861
f 869 861 870
f 870 861 862
f 870 862 863
f 863 864 870
f 870 864 865
f 870 865 869
f 869 865 866
f 869 866 868
f 868 866 867
f 868 867 858
f 864 863 875
f 875 863 871
f 875 871 872
f 872 873 875
f 875 873 874
f 875 874 864
f 873 872 894
f 894 872 876
f 894 876 895
f 895 876 893
f 895 893 891
f 891 893 890
f 890 893 892
f 890 892 889
f 889 892 896
f 889 896 897
f 897 896 878
f 897 878 879
f 876 877 893
f 893 877 892
f 877 878 892
f 892 878 896
f 880 899 879
f 879 899 898
f 879 898 897
f 897 898 888
f 897 888 889
f 899 880 900
f 900 880 881
f 900 881 901
f 901 881 882
f 901 882 902
f 902 882 883
f 902 883 884
f 884 885 902
f 902 885 901
f 885 886 901
f 901 886 900
f 886 887 900
f 900 887 899
f 887 888 899
f 899 888 898
f 895 891 894
f 894 891 873
f 884 883 904
f 904 883 391
f 904 391 903
f 903 884 904
f 391 390 905
f 905 390 422
f 905 422 421
f 421 903 905
f 905 903 391
f 903 421 906
f 906 421 420
f 906 420 858
f 858 420 855
f 855 420 419
f 906 858 864
f 864 858 867
f 864 867 865
f 865 867 866
f 864 874 906
f 906 874 903
f 874 873 903
f 903 873 884
f 884 873 885
f 885 873 886
f 886 873 887
f 887 873 888
f 888 873 889
f 889 873 891
f 889 891 890
f 393 392 857
f 857 392 907
f 857 907 863
f 863 907 871
f 871 907 391
f 871 391 883
f 392 391 907
f 871 883 872
f 872 883 882
f 872 882 881
f 881 880 872
f 872 880 879
f 872 879 878
f 877 876 878
f 878 876 872
f 862 861 863
f 863 861 860
f 863 860 857
f 442 908 910
f 910 908 909
f 910 909 443
f 443 442 910
f 908 442 919
f 919 442 441
f 919 441 920
f 920 441 440
f 920 440 921
f 921 440 439
f 921 439 922
f 922 439 438
f 922 438 923
f 923 438 437
f 923 437 924
f 924 437 436
f 924 436 925
f 925 436 435
f 925 435 434
f 434 911 925
f 925 911 912
f 925 912 924
f 924 912 913
f 924 913 923
f 923 913 914
f 923 914 922
f 922 914 915
f 922 915 921
f 921 915 916
f 921 916 920
f 920 916 917
f 920 917 919
f 919 917 918
f 919 918 908
f 911 434 927
f 927 434 433
f 927 433 926
f 926 911 927
f 929 909 928
f 928 909 908
f 928 908 964
f 964 908 918
f 964 918 963
f 963 918 917
f 963 917 962
f 962 917 916
f 962 916 961
f 961 916 915
f 961 915 960
f 960 915 914
f 960 914 959
f 959 914 913
f 959 913 958
f 958 913 912
f 958 912 957
f 957 912 911
f 957 911 956
f 956 911 926
f 956 926 388
f 388 926 952
f 952 926 951
f 951 926 950
f 950 926 949
f 949 926 948
f 948 926 947
f 947 926 946
f 929 930 909
f 909 930 931
f 909 931 945
f 945 931 932
f 945 932 944
f 944 932 943
f 943 932 942
f 942 932 941
f 941 932 933
f 941 933 940
f 940 933 939
f 939 933 474
f 939 474 938
f 938 474 937
f 937 474 936
f 936 474 935
f 933 934 474
f 474 934 475
f 387 953 388
f 388 953 954
f 388 954 955
f 955 956 388
f 953 387 972
f 972 387 412
f 972 412 981
f 981 412 982
f 981 982 983
f 983 982 988
f 983 988 989
f 989 988 410
f 989 410 409
f 412 411 982
f 982 411 988
f 411 410 988
f 408 996 409
f 409 996 993
f 409 993 989
f 989 993 990
f 989 990 984
f 984 990 985
f 984 985 979
f 979 985 978
f 979 978 1002
f 1002 978 1001
f 1002 1001 1015
f 1015 1001 1016
f 1015 1016 1008
f 1008 1016 1007
f 1008 1007 1027
f 1027 1007 1028
f 1027 1028 1021
f 1021 1028 1020
f 1021 1020 968
f 968 1020 967
f 967 1020 1019
f 967 1019 966
f 966 1019 1018
f 966 1018 965
f 965 1018 288
f 288 1018 360
f 360 1018 1030
f 360 1030 975
f 975 1030 1029
f 975 1029 1006
f 1006 1029 1028
f 1006 1028 1007
f 996 408 998
f 998 408 367
f 998 367 366
f 998 366 997
f 997 366 365
f 997 365 995
f 995 365 364
f 995 364 992
f 992 364 363
f 992 363 987
f 987 363 976
f 987 976 977
f 977 976 1000
f 977 1000 1001
f 1001 1000 1016
f 363 362 976
f 976 362 999
f 976 999 1000
f 1000 999 1017
f 1000 1017 1016
f 1016 1017 1007
f 999 362 973
f 973 362 361
f 973 361 975
f 975 361 360
f 968 969 1021
f 1021 969 1022
f 1021 1022 1027
f 1027 1022 1026
f 1027 1026 1008
f 1008 1026 1009
f 1008 1009 1015
f 1015 1009 1014
f 1015 1014 1002
f 1002 1014 1003
f 1002 1003 979
f 979 1003 980
f 979 980 984
f 984 980 983
f 984 983 989
f 969 970 1022
f 1022 970 1023
f 1022 1023 1026
f 1026 1023 1025
f 1026 1025 1009
f 1009 1025 1010
f 1009 1010 1014
f 1014 1010 1013
f 1014 1013 1003
f 1003 1013 1004
f 1003 1004 980
f 980 1004 981
f 980 981 983
f 970 971 1023
f 1023 971 1024
f 1023 1024 1025
f 1025 1024 974
f 1025 974 1010
f 1010 974 1011
f 1010 1011 1013
f 1013 1011 1012
f 1013 1012 1004
f 1004 1012 1005
f 1004 1005 981
f 981 1005 972
f 971 956 1024
f 1024 956 955
f 1024 955 974
f 974 955 954
f 974 954 1011
f 1011 954 1012
f 954 953 1012
f 1012 953 1005
f 1005 953 972
f 977 978 986
f 986 978 985
f 986 985 991
f 991 985 990
f 991 990 994
f 994 990 993
f 994 993 996
f 978 977 1001
f 992 987 986
f 986 987 977
f 992 986 991
f 995 992 991
f 995 991 994
f 997 995 994
f 997 994 996
f 998 997 996
f 975 1006 973
f 973 1006 1017
f 973 1017 999
f 1006 1007 1017
f 1029 1030 1019
f 1019 1030 1018
f 1028 1029 1020
f 1020 1029 1019
f 957 956 1038
f 1038 956 971
f 1038 971 1039
f 1039 971 970
f 1039 970 1040
f 1040 970 969
f 1040 969 1041
f 1041 969 968
f 1041 968 1042
f 1042 968 967
f 1042 967 1043
f 1043 967 966
f 1043 966 1044
f 1044 966 965
f 1044 965 288
f 288 287 1044
f 1044 287 1031
f 1044 1031 1043
f 1043 1031 1032
f 1043 1032 1033
f 1043 1033 1042
f 1042 1033 1034
f 1042 1034 1041
f 1041 1034 1035
f 1041 1035 1040
f 1040 1035 1036
f 1040 1036 1039
f 1039 1036 1037
f 1039 1037 1038
f 1038 1037 957
f 957 1037 958
f 958 1037 1058
f 958 1058 959
f 959 1058 1065
f 959 1065 960
f 960 1065 1072
f 960 1072 961
f 961 1072 1079
f 961 1079 962
f 962 1079 1086
f 962 1086 963
f 963 1086 1093
f 963 1093 964
f 964 1093 1100
f 964 1100 928
f 928 1100 1051
f 1051 1100 1099
f 1051 1099 1050
f 1050 1099 1098
f 1050 1098 1049
f 1049 1098 1097
f 1049 1097 1048
f 1048 1097 1096
f 1048 1096 1047
f 1047 1096 1095
f 1047 1095 1046
f 1046 1095 1094
f 1046 1094 1045
f 1045 1094 304
f 1045 304 293
f 1037 1036 1058
f 1058 1036 1057
f 1058 1057 1065
f 1065 1057 1064
f 1065 1064 1072
f 1072 1064 1071
f 1072 1071 1079
f 1079 1071 1078
f 1079 1078 1086
f 1086 1078 1085
f 1086 1085 1093
f 1093 1085 1092
f 1093 1092 1100
f 1100 1092 1099
f 1036 1035 1057
f 1057 1035 1056
f 1057 1056 1064
f 1064 1056 1063
f 1064 1063 1071
f 1071 1063 1070
f 1071 1070 1078
f 1078 1070 1077
f 1078 1077 1085
f 1085 1077 1084
f 1085 1084 1092
f 1092 1084 1091
f 1092 1091 1099
f 1099 1091 1098
f 1035 1034 1056
f 1056 1034 1055
f 1056 1055 1063
f 1063 1055 1062
f 1063 1062 1070
f 1070 1062 1069
f 1070 1069 1077
f 1077 1069 1076
f 1077 1076 1084
f 1084 1076 1083
f 1084 1083 1091
f 1091 1083 1090
f 1091 1090 1098
f 1098 1090 1097
f 1034 1033 1055
f 1055 1033 1054
f 1055 1054 1062
f 1062 1054 1061
f 1062 1061 1069
f 1069 1061 1068
f 1069 1068 1076
f 1076 1068 1075
f 1076 1075 1083
f 1083 1075 1082
f 1083 1082 1090
f 1090 1082 1089
f 1090 1089 1097
f 1097 1089 1096
f 1033 1032 1054
f 1054 1032 1053
f 1054 1053 1061
f 1061 1053 1060
f 1061 1060 1068
f 1068 1060 1067
f 1068 1067 1075
f 1075 1067 1074
f 1075 1074 1082
f 1082 1074 1081
f 1082 1081 1089
f 1089 1081 1088
f 1089 1088 1096
f 1096 1088 1095
f 1032 1031 1053
f 1053 1031 1052
f 1053 1052 1060
f 1060 1052 1059
f 1060 1059 1067
f 1067 1059 1066
f 1067 1066 1074
f 1074 1066 1073
f 1074 1073 1081
f 1081 1073 1080
f 1081 1080 1088
f 1088 1080 1087
f 1088 1087 1095
f 1095 1087 1094
f 1031 287 1052
f 1052 287 310
f 1052 310 1059
f 1059 310 309
f 1059 309 1066
f 1066 309 308
f 1066 308 1073
f 1073 308 307
f 1073 307 1080
f 1080 307 306
f 1080 306 1087
f 1087 306 305
f 1087 305 1094
f 1094 305 304
f 929 928 1108
f 1108 928 1051
f 1108 1051 1109
f 1109 1051 1050
f 1109 1050 1110
f 1110 1050 1049
f 1110 1049 1111
f 1111 1049 1048
f 1111 1048 1112
f 1112 1048 1047
f 1112 1047 1113
f 1113 1047 1046
f 1113 1046 1114
f 1114 1046 1045
f 1114 1045 293
f 293 292 1114
f 1114 292 1101
f 1114 1101 1113
f 1113 1101 1102
f 1113 1102 1112
f 1112 1102 1103
f 1112 1103 1111
f 1111 1103 1104
f 1111 1104 1110
f 1110 1104 1105
f 1110 1105 1109
f 1109 1105 1106
f 1109 1106 1108
f 1108 1106 1107
f 1108 1107 929
f 327 326 1117
f 1117 326 479
f 1117 479 1115
f 1115 479 1164
f 1115 1164 1163
f 1163 1164 1124
f 1163 1124 1123
f 1123 1124 1122
f 1123 1122 331
f 331 1122 332
f 332 1122 1133
f 332 1133 1140
f 1140 1133 1132
f 1140 1132 1139
f 1139 1132 1131
f 1139 1131 1138
f 1138 1131 1130
f 1138 1130 1137
f 1137 1130 1129
f 1137 1129 1136
f 1136 1129 1128
f 1136 1128 1135
f 1135 1128 1127
f 1135 1127 1134
f 1134 1127 475
f 1134 475 934
f 1164 479 1126
f 1126 479 478
f 1126 478 1119
f 1119 478 1118
f 1119 1118 1130
f 1130 1118 1129
f 478 477 1118
f 1118 477 1128
f 1118 1128 1129
f 1128 477 1127
f 1127 477 476
f 1127 476 475
f 1134 934 1141
f 1141 934 933
f 1141 933 932
f 1141 932 1148
f 1148 932 931
f 1148 931 1155
f 1155 931 930
f 1155 930 929
f 929 1107 1155
f 1155 1107 1106
f 1155 1106 1156
f 1156 1106 1105
f 1156 1105 1157
f 1157 1105 1104
f 1157 1104 1158
f 1158 1104 1103
f 1158 1103 1159
f 1159 1103 1102
f 1159 1102 1160
f 1160 1102 1101
f 1160 1101 1161
f 1161 1101 292
f 1161 292 337
f 337 336 1161
f 1161 336 1154
f 1161 1154 1153
f 1153 1154 1146
f 1153 1146 1145
f 1145 1146 1138
f 1145 1138 1137
f 336 335 1154
f 1154 335 1147
f 1154 1147 1146
f 1146 1147 1139
f 1146 1139 1138
f 335 334 1147
f 1147 334 333
f 1147 333 1140
f 1140 333 332
f 331 330 1123
f 1123 330 1162
f 1123 1162 1163
f 1163 1162 1115
f 330 329 1162
f 1162 329 1116
f 1162 1116 1115
f 1115 1116 1117
f 329 328 1116
f 1116 328 1117
f 328 327 1117
f 1119 1120 1126
f 1126 1120 1125
f 1126 1125 1164
f 1164 1125 1124
f 1124 1125 1121
f 1121 1125 1120
f 1121 1120 1132
f 1132 1120 1131
f 1130 1131 1119
f 1119 1131 1120
f 1133 1122 1121
f 1121 1122 1124
f 1133 1121 1132
f 1135 1134 1142
f 1142 1134 1141
f 1142 1141 1149
f 1149 1141 1148
f 1149 1148 1156
f 1156 1148 1155
f 1136 1135 1143
f 1143 1135 1142
f 1143 1142 1150
f 1150 1142 1149
f 1150 1149 1157
f 1157 1149 1156
f 1137 1136 1144
f 1144 1136 1143
f 1144 1143 1151
f 1151 1143 1150
f 1151 1150 1158
f 1158 1150 1157
f 1147 1140 1139
f 1137 1144 1145
f 1145 1144 1152
f 1145 1152 1153
f 1153 1152 1160
f 1153 1160 1161
f 1152 1144 1151
f 1158 1159 1151
f 1151 1159 1152
f 1159 1160 1152
f 389 388 1167
f 1167 388 952
f 1167 952 1168
f 1168 952 1166
f 1168 1166 426
f 426 1166 427
f 427 1166 1165
f 427 1165 428
f 428 1165 1169
f 428 1169 1170
f 1170 1169 950
f 1170 950 949
f 952 951 1166
f 1166 951 1165
f 951 950 1165
f 1165 950 1169
f 948 1172 949
f 949 1172 1171
f 949 1171 1170
f 1170 1171 429
f 1170 429 428
f 1172 948 1173
f 1173 948 947
f 1173 947 1174
f 1174 947 946
f 1174 946 1175
f 1175 946 926
f 1175 926 433
f 433 432 1175
f 1175 432 1174
f 432 431 1174
f 1174 431 1173
f 431 430 1173
f 1173 430 1172
f 430 429 1172
f 1172 429 1171
f 1168 426 1167
f 1167 426 389
f 443 909 1177
f 1177 909 945
f 1177 945 944
f 1177 944 1176
f 1176 944 943
f 1176 943 1178
f 1178 943 942
f 1178 942 941
f 1178 941 1179
f 1179 941 940
f 1179 940 1180
f 1180 940 1181
f 1180 1181 449
f 449 1181 450
f 450 1181 1182
f 450 1182 451
f 451 1182 1183
f 451 1183 452
f 452 1183 1184
f 452 1184 453
f 453 1184 1185
f 453 1185 454
f 454 1185 1186
f 454 1186 455
f 455 1186 474
f 474 1186 935
f 935 1186 1185
f 935 1185 936
f 936 1185 1184
f 936 1184 937
f 937 1184 1183
f 937 1183 938
f 938 1183 1182
f 938 1182 939
f 939 1182 1181
f 939 1181 940
f 1180 449 1179
f 1179 449 448
f 1179 448 1178
f 1178 448 447
f 1178 447 446
f 1178 446 1176
f 1176 446 445
f 1176 445 1177
f 1177 445 444
f 1177 444 443
f 269 190 1203
f 1203 190 189
f 1203 189 1187
f 1203 1187 1202
f 1202 1187 1188
f 1202 1188 1204
f 1204 1188 1189
f 1204 1189 1205
f 1205 1189 1190
f 1205 1190 1206
f 1206 1190 1191
f 1206 1191 1207
f 1207 1191 1192
f 1207 1192 1208
f 1208 1192 1209
f 1208 1209 274
f 274 1209 275
f 275 1209 1210
f 275 1210 276
f 276 1210 277
f 277 1210 1211
f 277 1211 278
f 278 1211 1212
f 278 1212 279
f 279 1212 1213
f 279 1213 280
f 280 1213 1214
f 280 1214 281
f 281 1214 1215
f 281 1215 282
f 282 1215 1216
f 282 1216 283
f 283 1216 206
f 206 1216 1201
f 206 1201 207
f 1192 1193 1209
f 1209 1193 1210
f 1193 1194 1210
f 1210 1194 1195
f 1210 1195 1211
f 1211 1195 1196
f 1211 1196 1212
f 1212 1196 1197
f 1212 1197 1213
f 1213 1197 1198
f 1213 1198 1214
f 1214 1198 1199
f 1214 1199 1215
f 1215 1199 1200
f 1215 1200 1216
f 1216 1200 1201
f 1208 274 1207
f 1207 274 273
f 1207 273 1206
f 1206 273 272
f 1206 272 1205
f 1205 272 271
f 1205 271 1204
f 1204 271 270
f 1204 270 1202
f 1202 270 269
f 1202 269 1203
f 254 149 1233
f 1233 149 148
f 1233 148 1217
f 1233 1217 1232
f 1232 1217 1218
f 1232 1218 1234
f 1234 1218 1219
f 1234 1219 1235
f 1235 1219 1220
f 1235 1220 1236
f 1236 1220 1221
f 1236 1221 1237
f 1237 1221 1222
f 1237 1222 1238
f 1238 1222 1239
f 1238 1239 259
f 259 1239 260
f 260 1239 1240
f 260 1240 261
f 261 1240 262
f 262 1240 1241
f 262 1241 263
f 263 1241 1242
f 263 1242 264
f 264 1242 1243
f 264 1243 265
f 265 1243 1244
f 265 1244 266
f 266 1244 1245
f 266 1245 267
f 267 1245 1246
f 267 1246 268
f 268 1246 165
f 165 1246 1231
f 165 1231 166
f 1222 1223 1239
f 1239 1223 1240
f 1223 1224 1240
f 1240 1224 1225
f 1240 1225 1241
f 1241 1225 1226
f 1241 1226 1242
f 1242 1226 1227
f 1242 1227 1243
f 1243 1227 1228
f 1243 1228 1244
f 1244 1228 1229
f 1244 1229 1245
f 1245 1229 1230
f 1245 1230 1246
f 1246 1230 1231
f 1238 259 1237
f 1237 259 258
f 1237 258 1236
f 1236 258 257
f 1236 257 1235
f 1235 257 256
f 1235 256 1234
f 1234 256 255
f 1234 255 1232
f 1232 255 254
f 1232 254 1233
f 170 76 180
f 180 76 75
f 180 75 74
f 169 80 170
f 170 80 79
f 170 79 78
f 80 169 81
f 81 169 168
f 81 168 82
f 82 168 167
f 82 167 83
f 83 167 166
f 83 166 50
f 50 166 1261
f 1261 166 1231
f 1261 1231 1260
f 1260 1231 1230
f 1260 1230 1259
f 1259 1230 1229
f 1259 1229 1258
f 1258 1229 1228
f 1258 1228 1257
f 1257 1228 1227
f 1257 1227 1256
f 1256 1227 1226
f 1256 1226 1255
f 1255 1226 1225
f 1255 1225 1254
f 1254 1225 1224
f 1254 1224 1223
f 1254 1223 1253
f 1253 1223 1222
f 1253 1222 1252
f 1252 1222 1221
f 1252 1221 1251
f 1251 1221 1220
f 1251 1220 1250
f 1250 1220 1219
f 1250 1219 1249
f 1249 1219 1218
f 1249 1218 1248
f 1248 1218 1217
f 1248 1217 1247
f 1247 1217 148
f 1247 148 68
f 68 148 69
f 69 148 183
f 69 183 70
f 70 183 182
f 70 182 71
f 71 182 181
f 71 181 72
f 72 181 180
f 72 180 73
f 73 180 74
f 78 77 170
f 170 77 76
f 1201 1276 207
f 207 1276 116
f 207 116 208
f 208 116 115
f 208 115 114
f 1276 1201 1275
f 1275 1201 1200
f 1275 1200 1274
f 1274 1200 1199
f 1274 1199 1273
f 1273 1199 1198
f 1273 1198 1272
f 1272 1198 1197
f 1272 1197 1271
f 1271 1197 1196
f 1271 1196 1270
f 1270 1196 1195
f 1270 1195 1269
f 1269 1195 1194
f 1269 1194 1193
f 1269 1193 1268
f 1268 1193 1192
f 1268 1192 1267
f 1267 1192 1191
f 1267 1191 1266
f 1266 1191 1190
f 1266 1190 1265
f 1265 1190 1189
f 1265 1189 1264
f 1264 1189 1188
f 1264 1188 1263
f 1263 1188 1187
f 1263 1187 1262
f 1262 1187 189
f 1262 189 100
f 100 189 101
f 101 189 222
f 101 222 102
f 102 222 221
f 102 221 103
f 103 221 220
f 103 220 104
f 104 220 219
f 104 219 105
f 105 219 218
f 105 218 106
f 106 218 217
f 106 217 107
f 107 217 216
f 107 216 215
f 107 215 108
f 108 215 214
f 108 214 109
f 109 214 213
f 109 213 110
f 110 213 212
f 110 212 111
f 111 212 211
f 111 211 112
f 112 211 210
f 112 210 113
f 113 210 209
f 113 209 114
f 114 209 208
f 1262 100 1293
f 1293 100 99
f 1293 99 1277
f 1293 1277 1292
f 1292 1277 1278
f 1292 1278 1294
f 1294 1278 1279
f 1294 1279 1295
f 1295 1279 1280
f 1295 1280 1296
f 1296 1280 1281
f 1296 1281 1297
f 1297 1281 1282
f 1297 1282 1298
f 1298 1282 1299
f 1298 1299 1267
f 1267 1299 1268
f 1268 1299 1300
f 1268 1300 1269
f 1269 1300 1270
f 1270 1300 1301
f 1270 1301 1271
f 1271 1301 1302
f 1271 1302 1272
f 1272 1302 1303
f 1272 1303 1273
f 1273 1303 1304
f 1273 1304 1274
f 1274 1304 1305
f 1274 1305 1275
f 1275 1305 1306
f 1275 1306 1276
f 1276 1306 116
f 116 1306 1291
f 116 1291 117
f 1282 1283 1299
f 1299 1283 1300
f 1283 1284 1300
f 1300 1284 1285
f 1300 1285 1301
f 1301 1285 1286
f 1301 1286 1302
f 1302 1286 1287
f 1302 1287 1303
f 1303 1287 1288
f 1303 1288 1304
f 1304 1288 1289
f 1304 1289 1305
f 1305 1289 1290
f 1305 1290 1306
f 1306 1290 1291
f 1298 1267 1297
f 1297 1267 1266
f 1297 1266 1296
f 1296 1266 1265
f 1296 1265 1295
f 1295 1265 1264
f 1295 1264 1294
f 1294 1264 1263
f 1294 1263 1292
f 1292 1263 1262
f 1292 1262 1293
f 1277 99 1307
f 1307 99 132
f 1307 132 131
f 131 130 1307
f 1307 130 129
f 1307 129 128
f 128 127 1307
f 1307 127 126
f 1307 126 125
f 125 124 1307
f 1307 124 123
f 1307 123 122
f 122 121 1307
f 1307 121 120
f 1307 120 119
f 119 118 1307
f 1307 118 117
f 1307 117 1291
f 1291 1290 1307
f 1307 1290 1289
f 1307 1289 1288
f 1288 1287 1307
f 1307 1287 1286
f 1307 1286 1285
f 1285 1284 1307
f 1307 1284 1283
f 1307 1283 1282
f 1282 1281 1307
f 1307 1281 1280
f 1307 1280 1279
f 1279 1278 1307
f 1307 1278 1277
f 1322 51 1324
f 1324 51 50
f 1324 50 1261
f 1324 1261 1323
f 1323 1261 1260
f 1323 1260 1325
f 1325 1260 1259
f 1325 1259 1326
f 1326 1259 1258
f 1326 1258 1327
f 1327 1258 1257
f 1327 1257 1328
f 1328 1257 1256
f 1328 1256 1329
f 1329 1256 1330
f 1329 1330 1317
f 1317 1330 1316
f 1316 1330 1331
f 1316 1331 1315
f 1315 1331 1314
f 1314 1331 1332
f 1314 1332 1313
f 1313 1332 1333
f 1313 1333 1312
f 1312 1333 1334
f 1312 1334 1311
f 1311 1334 1335
f 1311 1335 1310
f 1310 1335 1336
f 1310 1336 1309
f 1309 1336 1337
f 1309 1337 1308
f 1308 1337 67
f 67 1337 1247
f 67 1247 68
f 1256 1255 1330
f 1330 1255 1331
f 1255 1254 1331
f 1331 1254 1253
f 1331 1253 1332
f 1332 1253 1252
f 1332 1252 1333
f 1333 1252 1251
f 1333 1251 1334
f 1334 1251 1250
f 1334 1250 1335
f 1335 1250 1249
f 1335 1249 1336
f 1336 1249 1248
f 1336 1248 1337
f 1337 1248 1247
f 1329 1317 1328
f 1328 1317 1318
f 1328 1318 1327
f 1327 1318 1319
f 1327 1319 1326
f 1326 1319 1320
f 1326 1320 1325
f 1325 1320 1321
f 1325 1321 1323
f 1323 1321 1322
f 1323 1322 1324
f 1322 1352 51
f 51 1352 1
f 51 1 52
f 52 1 34
f 52 34 33
f 1352 1322 1351
f 1351 1322 1321
f 1351 1321 1350
f 1350 1321 1320
f 1350 1320 1349
f 1349 1320 1319
f 1349 1319 1348
f 1348 1319 1318
f 1348 1318 1347
f 1347 1318 1317
f 1347 1317 1346
f 1346 1317 1316
f 1346 1316 1345
f 1345 1316 1315
f 1345 1315 1314
f 1345 1314 1344
f 1344 1314 1313
f 1344 1313 1343
f 1343 1313 1312
f 1343 1312 1342
f 1342 1312 1311
f 1342 1311 1341
f 1341 1311 1310
f 1341 1310 1340
f 1340 1310 1309
f 1340 1309 1339
f 1339 1309 1308
f 1339 1308 1338
f 1338 1308 67
f 1338 67 19
f 19 67 20
f 20 67 66
f 20 66 21
f 21 66 65
f 21 65 22
f 22 65 64
f 22 64 23
f 23 64 63
f 23 63 24
f 24 63 62
f 24 62 25
f 25 62 61
f 25 61 26
f 26 61 60
f 26 60 59
f 26 59 27
f 27 59 58
f 27 58 28
f 28 58 57
f 28 57 29
f 29 57 56
f 29 56 30
f 30 56 55
f 30 55 31
f 31 55 54
f 31 54 32
f 32 54 53
f 32 53 33
f 33 53 52
f 1367 2 1369
f 1369 2 1
f 1369 1 1352
f 1369 1352 1368
f 1368 1352 1351
f 1368 1351 1370
f 1370 1351 1350
f 1370 1350 1371
f 1371 1350 1349
f 1371 1349 1372
f 1372 1349 1348
f 1372 1348 1373
f 1373 1348 1347
f 1373 1347 1374
f 1374 1347 1375
f 1374 1375 1362
f 1362 1375 1361
f 1361 1375 1376
f 1361 1376 1360
f 1360 1376 1359
f 1359 1376 1377
f 1359 1377 1358
f 1358 1377 1378
f 1358 1378 1357
f 1357 1378 1379
f 1357 1379 1356
f 1356 1379 1380
f 1356 1380 1355
f 1355 1380 1381
f 1355 1381 1354
f 1354 1381 1382
f 1354 1382 1353
f 1353 1382 18
f 18 1382 1338
f 18 1338 19
f 1347 1346 1375
f 1375 1346 1376
f 1346 1345 1376
f 1376 1345 1344
f 1376 1344 1377
f 1377 1344 1343
f 1377 1343 1378
f 1378 1343 1342
f 1378 1342 1379
f 1379 1342 1341
f 1379 1341 1380
f 1380 1341 1340
f 1380 1340 1381
f 1381 1340 1339
f 1381 1339 1382
f 1382 1339 1338
f 1374 1362 1373
f 1373 1362 1363
f 1373 1363 1372
f 1372 1363 1364
f 1372 1364 1371
f 1371 1364 1365
f 1371 1365 1370
f 1370 1365 1366
f 1370 1366 1368
f 1368 1366 1367
f 1368 1367 1369
f 3 2 1383
f 1383 2 1367
f 1383 1367 1366
f 1366 1365 1383
f 1383 1365 1364
f 1383 1364 1363
f 1363 1362 1383
f 1383 1362 1361
f 1383 1361 1360
f 1360 1359 1383
f 1383 1359 1358
f 1383 1358 1357
f 1357 1356 1383
f 1383 1356 1355
f 1383 1355 1354
f 1354 1353 1383
f 1383 1353 18
f 1383 18 17
f 17 16 1383
f 1383 16 15
f 1383 15 14
f 14 13 1383
f 1383 13 12
f 1383 12 11
f 11 10 1383
f 1383 10 9
f 1383 9 8
f 8 7 1383
f 1383 7 6
f 1383 6 5
f 5 4 1383
f 1383 4 3
f 179 178 1384
f 1384 178 1385
f 1384 1385 172
f 172 1385 173
f 173 1385 174
f 174 1385 175
f 175 1385 176
f 176 1385 177
f 177 1385 178
f 172 171 1384
f 171 170 1386
f 1386 170 180
f 1386 180 179
f 179 1384 1386
f 1386 1384 171
