# door_frame: white jamb+lintel extracted from the Sketchfab door unit, centred on the opening (clear opening normalised to 0.9 x 2.0 m, base z=0) and on the wall (depth y=0)
o door_frame
v 0.517510 -0.108698 2.060019
v 0.517510 -0.108698 2.060019
v 0.517510 -0.108698 2.060019
v 0.517510 -0.108698 2.060019
v 0.517510 -0.108698 2.060019
v -0.517521 -0.108698 2.060019
v -0.517521 -0.108698 2.060019
v -0.517521 -0.108698 2.060019
v -0.517521 -0.108698 2.060019
v -0.517521 -0.108698 2.060019
v 0.515245 -0.111170 2.058006
v 0.515245 -0.111170 2.058006
v 0.515245 -0.111170 2.058006
v 0.515245 -0.111170 2.058006
v 0.515245 -0.111170 2.058006
v -0.515255 -0.111171 2.058006
v -0.515255 -0.111171 2.058006
v -0.515255 -0.111171 2.058006
v -0.515255 -0.111171 2.058006
v -0.515255 -0.111171 2.058006
v 0.446587 -0.111171 1.996980
v 0.446587 -0.111171 1.996980
v 0.446587 -0.111171 1.996980
v 0.446587 -0.111171 1.996980
v 0.446587 -0.111171 1.996980
v -0.446597 -0.111170 1.996980
v -0.446597 -0.111170 1.996980
v -0.446597 -0.111170 1.996980
v -0.446597 -0.111170 1.996980
v -0.446597 -0.111170 1.996980
v 0.517510 -0.108698 -0.001384
v 0.517510 -0.108698 -0.001384
v 0.446587 -0.111171 -0.001384
v 0.446587 -0.111171 -0.001384
v 0.515245 -0.111170 -0.001384
v 0.515245 -0.111170 -0.001384
v 0.515245 -0.111170 -0.001384
v -0.517521 -0.108698 -0.001384
v -0.517521 -0.108698 -0.001384
v -0.517521 -0.108698 -0.001384
v -0.446598 -0.111170 -0.001384
v -0.446598 -0.111170 -0.001384
v -0.446598 -0.111170 -0.001384
v -0.515256 -0.111171 -0.001384
v -0.515256 -0.111171 -0.001384
v 0.444322 -0.108698 1.994967
v 0.444322 -0.108698 1.994967
v 0.444322 -0.108698 1.994967
v 0.444322 -0.108698 1.994967
v 0.444322 -0.108698 1.994967
v 0.444322 -0.108698 -0.001384
v 0.444322 -0.108698 -0.001384
v 0.444322 -0.108698 -0.001384
v -0.444332 -0.108698 1.994967
v -0.444332 -0.108698 1.994967
v -0.444332 -0.108698 1.994967
v -0.444332 -0.108698 1.994967
v -0.444332 -0.108698 1.994967
v -0.444332 -0.108698 -0.001384
v -0.444332 -0.108698 -0.001384
v 0.517510 0.108699 2.060019
v 0.517510 0.108699 2.060019
v 0.517510 0.108699 2.060019
v 0.517510 0.108699 2.060019
v 0.517510 0.108699 2.060019
v -0.517521 0.108700 2.060019
v -0.517521 0.108700 2.060019
v -0.517521 0.108700 2.060019
v -0.517521 0.108700 2.060019
v -0.517521 0.108700 2.060019
v 0.515245 0.111172 2.058006
v 0.515245 0.111172 2.058006
v 0.515245 0.111172 2.058006
v 0.515245 0.111172 2.058006
v 0.515245 0.111172 2.058006
v -0.515255 0.111172 2.058006
v -0.515255 0.111172 2.058006
v -0.515255 0.111172 2.058006
v -0.515255 0.111172 2.058006
v 0.446587 0.111172 1.996980
v 0.446587 0.111172 1.996980
v 0.446587 0.111172 1.996980
v 0.446587 0.111172 1.996980
v -0.446597 0.111172 1.996980
v -0.446597 0.111172 1.996980
v -0.446597 0.111172 1.996980
v -0.446597 0.111172 1.996980
v 0.517510 0.108699 -0.001384
v 0.517510 0.108699 -0.001384
v 0.446587 0.111172 -0.001384
v 0.446587 0.111172 -0.001384
v 0.515245 0.111172 -0.001384
v 0.515245 0.111172 -0.001384
v 0.515245 0.111172 -0.001384
v -0.517521 0.108700 -0.001384
v -0.517521 0.108700 -0.001384
v -0.517521 0.108700 -0.001384
v -0.446598 0.111172 -0.001384
v -0.446598 0.111172 -0.001384
v -0.446598 0.111172 -0.001384
v -0.515256 0.111172 -0.001384
v -0.515256 0.111172 -0.001384
v 0.444322 -0.064490 1.994967
v 0.444322 -0.064490 1.994967
v 0.444322 -0.064490 1.994967
v 0.444322 -0.064490 1.994967
v 0.444322 -0.064490 1.994967
v 0.444322 -0.064490 -0.001384
v 0.444322 -0.064490 -0.001384
v 0.444322 -0.064490 -0.001384
v -0.444332 -0.064490 1.994967
v -0.444332 -0.064490 1.994967
v -0.444332 -0.064490 1.994967
v -0.444332 -0.064490 1.994967
v -0.444332 -0.064490 1.994967
v -0.444332 -0.064490 -0.001384
v -0.444332 -0.064490 -0.001384
v -0.517521 -0.086595 -0.001384
v -0.517521 -0.086595 -0.001384
v -0.517521 -0.086595 2.060019
v -0.517521 -0.086595 2.060019
v -0.517521 -0.086595 2.060019
v -0.517521 -0.086595 2.060019
v 0.517510 -0.086595 2.060019
v 0.517510 -0.086595 2.060019
v 0.517510 -0.086595 2.060019
v 0.517510 -0.086595 2.060019
v 0.517510 -0.086595 -0.001384
v 0.517510 -0.086595 -0.001384
f 24 14 20
f 24 20 30
f 64 124 128
f 64 128 89
f 25 34 37
f 25 37 15
f 43 29 19
f 43 19 45
f 11 35 3
f 36 32 4
f 48 53 22
f 52 33 21
f 23 27 49
f 28 58 50
f 26 41 56
f 42 60 57
f 5 9 13
f 8 16 12
f 10 39 17
f 40 44 18
f 108 51 47
f 108 47 106
f 65 70 123
f 65 123 127
f 80 84 76
f 80 76 72
f 80 71 92
f 80 92 90
f 69 97 118
f 69 118 121
f 98 101 76
f 98 76 84
f 75 63 94
f 93 62 88
f 107 83 110
f 109 82 91
f 81 104 85
f 86 105 114
f 87 111 100
f 99 112 116
f 61 73 67
f 68 74 79
f 66 77 95
f 96 78 102
f 54 115 103
f 54 103 46
f 59 117 113
f 59 113 55
f 120 119 38
f 120 38 6
f 126 122 7
f 126 7 2
f 129 125 1
f 129 1 31
