# Blender 4.2.3 LTS
# www.blender.org
o link_2__m3
v -0.021418 -0.064434 0.549151
v -0.023726 -0.063620 0.549151
v -0.026081 -0.062691 0.545168
v -0.026004 -0.062723 0.549151
v -0.028248 -0.061745 0.549151
v -0.030590 -0.060619 0.541197
v -0.034490 -0.058488 0.543174
v -0.034611 -0.058417 0.539130
v -0.035186 -0.058072 0.543174
v -0.035266 -0.058023 0.539130
v -0.035877 -0.057647 0.543174
v -0.035917 -0.057623 0.539130
v -0.036563 -0.057215 0.543174
v -0.036563 -0.057215 0.539130
v -0.036563 -0.057215 0.549151
v -0.038011 -0.056264 0.549151
v -0.039433 -0.055276 0.549151
v -0.039433 -0.055276 0.532884
v -0.038011 -0.056264 0.532884
v -0.036563 -0.057215 0.532884
v -0.040830 -0.054252 0.549151
v -0.040830 -0.054252 0.532884
v -0.028248 -0.061745 0.532884
v -0.026074 -0.062694 0.537040
v -0.026004 -0.062723 0.532884
v -0.023726 -0.063620 0.532884
v -0.021418 -0.064434 0.532884
v -0.005588 -0.067670 0.532582
v -0.008054 -0.067421 0.532582
v -0.010509 -0.067082 0.532582
v -0.012950 -0.066654 0.532582
v -0.015520 -0.066103 0.532815
v -0.017850 -0.065512 0.533951
v -0.018741 -0.065263 0.534882
v -0.019354 -0.065083 0.536013
v -0.019637 -0.064999 0.537267
v -0.019688 -0.064983 0.538553
v -0.019688 -0.064983 0.549151
v -0.018026 -0.065464 0.549151
v -0.016352 -0.065902 0.549151
v -0.014667 -0.066297 0.549151
v -0.014667 -0.066297 0.539630
v -0.014544 -0.066324 0.538496
v -0.013964 -0.066449 0.537504
v -0.012984 -0.066647 0.536893
v -0.011824 -0.066863 0.536757
v -0.010132 -0.067140 0.536757
v -0.008433 -0.067374 0.536757
v -0.006729 -0.067566 0.536757
v -0.005573 -0.067671 0.536887
v -0.004575 -0.067746 0.537486
v -0.003971 -0.067784 0.538473
v -0.003839 -0.067791 0.539630
v -0.003839 -0.067791 0.549151
v -0.002110 -0.067867 0.549151
v -0.000381 -0.067899 0.549151
v 0.001349 -0.067887 0.549151
v 0.001349 -0.067887 0.538553
v 0.000986 -0.067893 0.535977
v 0.000446 -0.067899 0.534994
v -0.000596 -0.067897 0.533926
v -0.002964 -0.067836 0.532815
v 0.020235 -0.064815 0.549151
v 0.013418 -0.066561 0.543174
v 0.022558 -0.064043 0.549151
v 0.024851 -0.063189 0.549151
v 0.027112 -0.062252 0.549151
v 0.022494 -0.064066 0.545181
v 0.017741 -0.065541 0.541197
v 0.023650 -0.063648 0.536006
v 0.027112 -0.062252 0.532884
v 0.024851 -0.063189 0.532884
v 0.022558 -0.064043 0.532884
v 0.020235 -0.064815 0.532884
v 0.013281 -0.066589 0.539130
v 0.012531 -0.066734 0.539130
v 0.011779 -0.066870 0.539130
v 0.011026 -0.066999 0.539130
v 0.011026 -0.066999 0.532884
v 0.009316 -0.067258 0.532884
v 0.007599 -0.067473 0.532884
v 0.005878 -0.067645 0.532884
v 0.005878 -0.067645 0.549151
v 0.007599 -0.067473 0.549151
v 0.009316 -0.067258 0.549151
v 0.011026 -0.066999 0.549151
v 0.011026 -0.066999 0.543174
v 0.011825 -0.066862 0.543174
v 0.012623 -0.066716 0.543174
v 0.037516 -0.056594 0.545107
v 0.036999 -0.056934 0.543645
v 0.036479 -0.057269 0.542182
v 0.035956 -0.057599 0.540720
v 0.035430 -0.057924 0.539258
v 0.037485 -0.056615 0.539258
v 0.039493 -0.055233 0.539258
v 0.041449 -0.053781 0.539258
v 0.040957 -0.054156 0.540720
v 0.040462 -0.054527 0.542182
v 0.039964 -0.054894 0.543644
v 0.039462 -0.055255 0.545107
v 0.038819 -0.055709 0.545107
v 0.038170 -0.056156 0.545107
v 0.034151 -0.058687 0.535738
v 0.037071 -0.056887 0.535738
v 0.039896 -0.054943 0.535738
v 0.042619 -0.052859 0.535738
v 0.042932 -0.052605 0.534787
v 0.043243 -0.052350 0.533835
v 0.043552 -0.052092 0.532884
v 0.045069 -0.050786 0.532884
v 0.046546 -0.049435 0.532884
v 0.047983 -0.048042 0.532884
v 0.042873 -0.052652 0.549151
v 0.039984 -0.054879 0.549151
v 0.036979 -0.056947 0.549151
v 0.033867 -0.058851 0.549151
v 0.027740 -0.061975 0.532884
v 0.029554 -0.061131 0.532884
v 0.031341 -0.060234 0.532884
v 0.033102 -0.059285 0.532884
v -0.039462 0.055255 0.545107
v -0.041449 0.053781 0.539258
v -0.039493 0.055233 0.539258
v -0.037485 0.056615 0.539258
v -0.035430 0.057924 0.539258
v -0.037516 0.056594 0.545107
v -0.033867 0.058851 0.549151
v -0.036979 0.056947 0.549151
v -0.039984 0.054879 0.549151
v -0.042873 0.052652 0.549151
v -0.027740 0.061975 0.532884
v -0.033102 0.059285 0.532884
v -0.031341 0.060234 0.532884
v -0.029554 0.061131 0.532884
v -0.034151 0.058687 0.535738
v -0.042619 0.052859 0.535738
v -0.039896 0.054943 0.535738
v -0.037071 0.056887 0.535738
v -0.043552 0.052092 0.532884
v -0.043243 0.052350 0.533835
v -0.042932 0.052605 0.534787
v -0.047983 0.048042 0.532884
v -0.046546 0.049435 0.532884
v -0.045069 0.050786 0.532884
v -0.038170 0.056156 0.545107
v -0.038819 0.055709 0.545107
v -0.013418 0.066561 0.543174
v -0.020235 0.064815 0.549151
v -0.027112 0.062252 0.549151
v -0.024851 0.063189 0.549151
v -0.022558 0.064043 0.549151
v -0.017741 0.065541 0.541197
v -0.022572 0.064038 0.545247
v -0.027112 0.062252 0.532884
v -0.023650 0.063648 0.536006
v -0.020235 0.064815 0.532884
v -0.022558 0.064043 0.532884
v -0.024851 0.063189 0.532884
v -0.013281 0.066589 0.539130
v -0.011026 0.066999 0.539130
v -0.011779 0.066870 0.539130
v -0.012531 0.066734 0.539130
v -0.011026 0.066999 0.532884
v -0.005878 0.067645 0.532884
v -0.007599 0.067473 0.532884
v -0.009316 0.067258 0.532884
v -0.005878 0.067645 0.549151
v -0.011026 0.066999 0.549151
v -0.009316 0.067258 0.549151
v -0.007599 0.067473 0.549151
v -0.011026 0.066999 0.543174
v -0.012623 0.066716 0.543174
v -0.011825 0.066862 0.543174
v 0.012950 0.066654 0.532582
v 0.010509 0.067082 0.532582
v 0.008054 0.067421 0.532582
v 0.005588 0.067670 0.532582
v 0.019688 0.064983 0.538553
v 0.019359 0.065082 0.536027
v 0.018866 0.065227 0.535059
v 0.015533 0.066100 0.532818
v 0.017860 0.065509 0.533960
v 0.019688 0.064983 0.549151
v 0.014667 0.066297 0.549151
v 0.016352 0.065902 0.549151
v 0.018026 0.065464 0.549151
v 0.014667 0.066297 0.539630
v 0.011824 0.066863 0.536757
v 0.012974 0.066649 0.536890
v 0.013958 0.066450 0.537498
v 0.014542 0.066325 0.538487
v 0.006729 0.067566 0.536757
v 0.008433 0.067374 0.536757
v 0.010132 0.067140 0.536757
v 0.003839 0.067791 0.539630
v 0.003968 0.067784 0.538484
v 0.004569 0.067746 0.537492
v 0.005562 0.067672 0.536891
v 0.003839 0.067791 0.549151
v -0.001349 0.067887 0.549151
v 0.000381 0.067899 0.549151
v 0.002110 0.067867 0.549151
v -0.001349 0.067887 0.538553
v 0.002982 0.067835 0.532811
v 0.000608 0.067897 0.533917
v -0.000323 0.067899 0.534831
v -0.000981 0.067893 0.535964
v -0.001292 0.067888 0.537236
v 0.028248 0.061745 0.532884
v 0.030590 0.060619 0.541197
v 0.034611 0.058417 0.539130
v 0.032187 0.059786 0.545417
v 0.033345 0.059148 0.544296
v 0.025723 0.062839 0.536723
v 0.026004 0.062723 0.532884
v 0.023726 0.063620 0.532884
v 0.021418 0.064434 0.532884
v 0.026074 0.062694 0.545174
v 0.028248 0.061745 0.549151
v 0.029838 0.060993 0.547658
v 0.021418 0.064434 0.549151
v 0.023726 0.063620 0.549151
v 0.026004 0.062723 0.549151
v 0.034490 0.058488 0.543174
v 0.035186 0.058072 0.543174
v 0.035266 0.058023 0.539130
v 0.035877 0.057647 0.543174
v 0.035917 0.057623 0.539130
v 0.036563 0.057215 0.543174
v 0.036563 0.057215 0.539130
v 0.036563 0.057215 0.549151
v 0.038011 0.056264 0.549151
v 0.039433 0.055276 0.549151
v 0.039433 0.055276 0.532884
v 0.038011 0.056264 0.532884
v 0.036563 0.057215 0.532884
v 0.040830 0.054252 0.549151
v 0.040830 0.054252 0.532884
vn -0.3325 -0.9428 -0.0233
vn -0.3664 -0.9305 -0.0004
vn -0.3995 -0.9167 0.0004
vn -0.4119 -0.9112 -0.0077
vn -0.4736 -0.8806 0.0148
vn -0.4799 -0.8773 -0.0010
vn -0.5130 -0.8584 0.0003
vn -0.5155 -0.8569 -0.0002
vn -0.5239 -0.8518 -0.0000
vn -0.5235 -0.8520 0.0001
vn -0.5329 -0.8462 0.0003
vn -0.5340 -0.8455 -0.0000
vn -0.0000 -0.0000 1.0000
vn -0.5490 -0.8358 -0.0000
vn -0.5706 -0.8212 -0.0000
vn -0.5490 -0.8359 -0.0000
vn -0.5912 -0.8065 -0.0000
vn -0.4745 -0.8801 -0.0145
vn -0.4119 -0.9112 0.0074
vn -0.3995 -0.9167 -0.0003
vn -0.3664 -0.9305 0.0003
vn -0.3325 -0.9428 0.0222
vn -0.0630 -0.9980 -0.0020
vn -0.0566 -0.9984 -0.0038
vn -0.0750 -0.9972 -0.0000
vn -0.0255 -0.9997 -0.0006
vn -0.0439 -0.9990 0.0004
vn -0.0514 -0.9987 -0.0000
vn -0.0185 -0.9998 0.0001
vn -0.0018 -1.0000 -0.0001
vn 0.0108 -0.9999 0.0006
vn 0.0093 -1.0000 0.0010
vn 0.0069 -1.0000 -0.0000
vn -0.0521 -0.9986 -0.0001
vn -0.0905 -0.9959 0.0001
vn -0.1005 -0.9949 -0.0027
vn -0.1120 -0.9937 0.0010
vn -0.1364 -0.9906 -0.0012
vn -0.1368 -0.9906 -0.0014
vn -0.1616 -0.9869 0.0009
vn -0.1727 -0.9850 -0.0027
vn -0.1830 -0.9831 0.0002
vn -0.1980 -0.9802 -0.0000
vn -0.2098 -0.9777 -0.0025
vn -0.2130 -0.9771 -0.0014
vn -0.2184 -0.9759 -0.0004
vn -0.2282 -0.9736 -0.0000
vn -0.2256 -0.9742 0.0005
vn -0.2461 -0.9692 -0.0006
vn -0.2531 -0.9674 0.0001
vn -0.2692 -0.9631 -0.0001
vn -0.2780 -0.9606 0.0004
vn -0.2815 -0.9596 0.0001
vn -0.2843 -0.9587 0.0001
vn -0.2993 -0.9542 -0.0000
vn 0.1914 -0.9815 0.0003
vn 0.2292 -0.9734 -0.0010
vn 0.2360 -0.9716 0.0147
vn 0.3023 -0.9532 -0.0078
vn 0.3154 -0.9490 0.0004
vn 0.3490 -0.9371 -0.0002
vn 0.3827 -0.9236 -0.0232
vn 0.1898 -0.9818 0.0001
vn 0.1800 -0.9837 0.0003
vn 0.1780 -0.9840 -0.0001
vn 0.1690 -0.9856 -0.0000
vn 0.1689 -0.9856 -0.0000
vn 0.1498 -0.9887 -0.0000
vn 0.1242 -0.9923 -0.0000
vn 0.0994 -0.9950 -0.0000
vn 0.2350 -0.9719 -0.0144
vn 0.3141 -0.9493 0.0113
vn 0.3154 -0.9489 0.0098
vn 0.3490 -0.9371 -0.0035
vn 0.3828 -0.9238 0.0115
vn 0.5247 -0.8512 -0.0061
vn 0.5117 -0.8592 0.0003
vn 0.4955 -0.8686 -0.0001
vn 0.4744 -0.8803 0.0012
vn 0.4486 -0.8937 0.0063
vn 0.4218 -0.9066 0.0152
vn 0.5669 -0.8238 -0.0030
vn 0.5372 -0.8434 0.0020
vn 0.5960 -0.8029 0.0021
vn 0.6078 -0.7941 -0.0060
vn 0.6196 -0.7849 0.0004
vn 0.6302 -0.7764 -0.0000
vn 0.6342 -0.7732 0.0001
vn 0.6416 -0.7670 0.0004
vn 0.6524 -0.7578 0.0011
vn 0.6749 -0.7379 0.0065
vn 0.6960 -0.7179 0.0152
vn 0.6105 -0.7920 0.0025
vn 0.6112 -0.7915 0.0027
vn 0.6014 -0.7989 0.0009
vn 0.5933 -0.8050 -0.0000
vn 0.5840 -0.8117 0.0001
vn 0.5768 -0.8169 0.0015
vn 0.5669 -0.8238 0.0058
vn 0.5672 -0.8235 0.0060
vn 0.5565 -0.8309 0.0014
vn 0.5494 -0.8355 -0.0000
vn 0.5416 -0.8406 -0.0000
vn 0.5219 -0.8530 0.0020
vn 0.5257 -0.8506 0.0039
vn 0.5209 -0.8536 0.0023
vn -0.6105 0.7920 0.0025
vn -0.6196 0.7849 0.0004
vn -0.6302 0.7764 -0.0000
vn -0.5669 0.8238 0.0058
vn -0.5768 0.8169 0.0015
vn -0.5927 0.8054 -0.0016
vn -0.5219 0.8530 0.0025
vn -0.5408 0.8411 -0.0016
vn -0.5565 0.8309 0.0014
vn -0.4218 0.9066 0.0152
vn -0.4486 0.8937 0.0063
vn -0.4744 0.8803 0.0012
vn -0.4955 0.8686 -0.0001
vn -0.5117 0.8592 0.0003
vn -0.5247 0.8512 -0.0061
vn -0.5373 0.8434 0.0020
vn -0.5669 0.8238 -0.0030
vn -0.5960 0.8029 0.0021
vn -0.6078 0.7941 -0.0060
vn -0.6342 0.7732 0.0001
vn -0.6416 0.7670 0.0004
vn -0.6524 0.7578 0.0011
vn -0.6749 0.7379 0.0065
vn -0.6960 0.7179 0.0152
vn -0.5672 0.8235 0.0060
vn -0.1914 0.9815 0.0003
vn -0.2292 0.9734 -0.0010
vn -0.2360 0.9716 0.0147
vn -0.3033 0.9529 -0.0081
vn -0.3154 0.9490 -0.0001
vn -0.3490 0.9371 0.0001
vn -0.3827 0.9236 -0.0226
vn -0.1898 0.9818 0.0001
vn -0.1800 0.9837 0.0003
vn -0.1780 0.9840 -0.0001
vn -0.1690 0.9856 -0.0000
vn -0.1689 0.9856 -0.0000
vn -0.1498 0.9887 -0.0000
vn -0.1242 0.9923 -0.0000
vn -0.0994 0.9950 -0.0000
vn -0.2350 0.9719 -0.0144
vn -0.3141 0.9493 0.0113
vn -0.3154 0.9489 0.0098
vn -0.3490 0.9371 -0.0035
vn -0.3828 0.9238 0.0115
vn 0.0630 0.9980 -0.0024
vn 0.0743 0.9972 -0.0000
vn 0.0905 0.9959 0.0001
vn 0.0258 0.9997 -0.0006
vn 0.0439 0.9990 0.0004
vn 0.0513 0.9987 -0.0000
vn 0.0185 0.9998 0.0001
vn 0.0021 1.0000 -0.0001
vn -0.0101 0.9999 0.0005
vn -0.0041 1.0000 0.0029
vn -0.0175 0.9998 -0.0000
vn -0.0069 1.0000 0.0001
vn 0.0527 0.9986 -0.0002
vn 0.0606 0.9982 -0.0015
vn 0.1005 0.9949 -0.0027
vn 0.1120 0.9937 0.0010
vn 0.1364 0.9906 -0.0012
vn 0.1368 0.9906 -0.0014
vn 0.1616 0.9869 0.0009
vn 0.1727 0.9850 -0.0027
vn 0.1829 0.9831 0.0001
vn 0.1982 0.9802 -0.0000
vn 0.2099 0.9777 -0.0025
vn 0.2121 0.9773 -0.0017
vn 0.2203 0.9754 -0.0002
vn 0.2218 0.9751 -0.0000
vn 0.2282 0.9736 0.0004
vn 0.2464 0.9692 -0.0006
vn 0.2531 0.9674 0.0001
vn 0.2700 0.9629 -0.0001
vn 0.2780 0.9606 0.0004
vn 0.2819 0.9595 0.0002
vn 0.2881 0.9576 -0.0000
vn 0.4745 0.8801 -0.0145
vn 0.4774 0.8786 -0.0072
vn 0.4770 0.8789 -0.0075
vn 0.4085 0.9127 0.0086
vn 0.3995 0.9167 0.0015
vn 0.3664 0.9305 -0.0013
vn 0.3325 0.9429 0.0188
vn 0.4119 0.9112 -0.0077
vn 0.4253 0.9050 -0.0029
vn 0.4585 0.8887 0.0019
vn 0.3325 0.9428 -0.0232
vn 0.3664 0.9305 -0.0003
vn 0.3995 0.9167 0.0003
vn 0.4992 0.8665 -0.0003
vn 0.5130 0.8584 0.0003
vn 0.5155 0.8569 -0.0002
vn 0.5239 0.8518 -0.0000
vn 0.5235 0.8520 0.0001
vn 0.5329 0.8462 0.0003
vn 0.5340 0.8455 -0.0000
vn 0.5490 0.8358 -0.0000
vn 0.5706 0.8212 -0.0000
vn 0.5490 0.8359 -0.0000
vn 0.5912 0.8065 -0.0000
s 0
f 1//1 2//1 3//1
f 3//2 2//2 4//2
f 3//3 4//3 5//3
f 3//4 5//4 6//4
f 6//5 5//5 7//5
f 6//6 7//6 8//6
f 8//7 7//7 9//7
f 8//8 9//8 10//8
f 10//9 9//9 11//9
f 10//10 11//10 12//10
f 12//11 11//11 13//11
f 12//12 13//12 14//12
f 14//13 13//13 15//13
f 14//14 15//14 16//14
f 17//15 18//15 16//15
f 16//15 18//15 19//15
f 16//14 19//14 14//14
f 14//16 19//16 20//16
f 21//17 22//17 17//17
f 17//17 22//17 18//17
f 8//18 23//18 6//18
f 6//19 23//19 24//19
f 24//20 23//20 25//20
f 24//21 25//21 26//21
f 26//22 27//22 24//22
f 62//23 52//23 28//23
f 28//24 52//24 51//24
f 28//25 51//25 50//25
f 61//26 55//26 62//26
f 62//27 55//27 54//27
f 62//28 54//28 53//28
f 55//29 61//29 56//29
f 56//30 61//30 60//30
f 56//31 60//31 58//31
f 58//32 60//32 59//32
f 58//33 57//33 56//33
f 53//34 52//34 62//34
f 50//35 49//35 28//35
f 28//36 49//36 29//36
f 29//37 49//37 48//37
f 29//38 48//38 47//38
f 29//39 47//39 30//39
f 30//40 47//40 46//40
f 30//41 46//41 31//41
f 31//42 46//42 45//42
f 31//43 45//43 44//43
f 31//44 44//44 32//44
f 32//45 44//45 43//45
f 32//46 43//46 42//46
f 41//47 40//47 42//47
f 42//48 40//48 32//48
f 32//49 40//49 33//49
f 33//50 40//50 39//50
f 33//51 39//51 34//51
f 34//52 39//52 38//52
f 34//53 38//53 35//53
f 35//54 38//54 36//54
f 36//55 38//55 37//55
f 89//56 75//56 64//56
f 64//57 75//57 69//57
f 64//58 69//58 63//58
f 63//59 69//59 68//59
f 63//60 68//60 65//60
f 65//61 68//61 66//61
f 66//62 68//62 67//62
f 75//63 89//63 76//63
f 76//64 89//64 88//64
f 76//65 88//65 77//65
f 77//66 88//66 87//66
f 77//67 87//67 78//67
f 78//13 87//13 86//13
f 78//13 86//13 79//13
f 79//68 86//68 85//68
f 79//68 85//68 80//68
f 80//69 85//69 81//69
f 81//69 85//69 84//69
f 81//70 84//70 82//70
f 82//70 84//70 83//70
f 75//71 74//71 69//71
f 69//72 74//72 70//72
f 70//73 74//73 73//73
f 70//74 73//74 72//74
f 72//75 71//75 70//75
f 105//76 94//76 104//76
f 104//77 94//77 117//77
f 104//78 117//78 121//78
f 121//79 117//79 120//79
f 120//80 117//80 119//80
f 119//81 117//81 118//81
f 106//82 96//82 105//82
f 105//82 96//82 95//82
f 105//83 95//83 94//83
f 96//84 106//84 97//84
f 97//85 106//85 107//85
f 97//86 107//86 114//86
f 114//87 107//87 108//87
f 114//88 108//88 109//88
f 109//89 110//89 114//89
f 114//90 110//90 111//90
f 114//91 111//91 112//91
f 112//92 113//92 114//92
f 114//93 115//93 97//93
f 97//94 115//94 98//94
f 98//95 115//95 99//95
f 99//96 115//96 100//96
f 100//97 115//97 101//97
f 101//98 115//98 102//98
f 102//99 115//99 116//99
f 102//100 116//100 103//100
f 103//101 116//101 90//101
f 90//102 116//102 91//102
f 91//103 116//103 92//103
f 92//104 116//104 117//104
f 92//105 117//105 93//105
f 93//106 117//106 94//106
f 130//107 123//107 131//107
f 131//108 123//108 137//108
f 131//109 137//109 142//109
f 129//110 147//110 130//110
f 130//111 147//111 122//111
f 130//112 122//112 123//112
f 128//113 126//113 129//113
f 129//114 126//114 127//114
f 129//115 127//115 146//115
f 132//116 135//116 128//116
f 128//117 135//117 134//117
f 128//118 134//118 133//118
f 133//119 136//119 128//119
f 128//120 136//120 126//120
f 136//121 139//121 126//121
f 126//122 139//122 125//122
f 125//123 139//123 124//123
f 124//123 139//123 138//123
f 124//124 138//124 123//124
f 123//125 138//125 137//125
f 142//126 141//126 131//126
f 131//127 141//127 140//127
f 131//128 140//128 145//128
f 145//129 144//129 131//129
f 131//130 144//130 143//130
f 146//131 147//131 129//131
f 173//132 160//132 148//132
f 148//133 160//133 153//133
f 148//134 153//134 149//134
f 149//135 153//135 154//135
f 149//136 154//136 152//136
f 152//137 154//137 151//137
f 151//138 154//138 150//138
f 160//139 173//139 163//139
f 163//140 173//140 174//140
f 163//141 174//141 162//141
f 162//142 174//142 172//142
f 162//143 172//143 161//143
f 161//13 172//13 169//13
f 161//144 169//144 170//144
f 171//145 166//145 170//145
f 170//145 166//145 167//145
f 170//144 167//144 161//144
f 161//144 167//144 164//144
f 168//146 165//146 171//146
f 171//146 165//146 166//146
f 160//147 157//147 153//147
f 153//148 157//148 156//148
f 156//149 157//149 158//149
f 156//150 158//150 159//150
f 159//151 155//151 156//151
f 205//152 198//152 178//152
f 178//153 198//153 199//153
f 178//154 199//154 193//154
f 206//155 203//155 205//155
f 205//156 203//156 200//156
f 205//157 200//157 196//157
f 203//158 206//158 202//158
f 202//159 206//159 207//159
f 202//160 207//160 209//160
f 209//161 207//161 208//161
f 204//162 201//162 209//162
f 209//163 201//163 202//163
f 196//164 197//164 205//164
f 205//165 197//165 198//165
f 178//166 193//166 177//166
f 177//167 193//167 194//167
f 177//168 194//168 195//168
f 177//169 195//169 176//169
f 176//170 195//170 189//170
f 176//171 189//171 175//171
f 175//172 189//172 190//172
f 175//173 190//173 191//173
f 175//174 191//174 182//174
f 182//175 191//175 192//175
f 182//176 192//176 188//176
f 188//177 185//177 182//177
f 182//178 185//178 186//178
f 182//179 186//179 183//179
f 183//180 186//180 187//180
f 183//181 187//181 181//181
f 181//182 187//182 184//182
f 181//183 184//183 180//183
f 180//184 184//184 179//184
f 210//185 211//185 212//185
f 212//186 211//186 213//186
f 212//187 213//187 214//187
f 211//188 210//188 215//188
f 215//189 210//189 216//189
f 215//190 216//190 217//190
f 217//191 218//191 215//191
f 219//192 220//192 211//192
f 211//193 220//193 221//193
f 211//194 221//194 213//194
f 222//195 223//195 219//195
f 219//196 223//196 224//196
f 219//197 224//197 220//197
f 214//198 225//198 212//198
f 212//199 225//199 226//199
f 212//200 226//200 227//200
f 227//201 226//201 228//201
f 227//202 228//202 229//202
f 229//203 228//203 230//203
f 229//204 230//204 231//204
f 231//13 230//13 232//13
f 231//205 232//205 233//205
f 234//206 235//206 233//206
f 233//206 235//206 236//206
f 233//205 236//205 231//205
f 231//207 236//207 237//207
f 238//208 239//208 234//208
f 234//208 239//208 235//208
