# Blender 4.2.3 LTS
# www.blender.org
o link_7__m1
v 0.044443 0.015659 1.240650
v 0.043551 0.015063 1.240650
v 0.042498 0.014853 1.240650
v 0.041446 0.015063 1.240650
v 0.040554 0.015659 1.240650
v 0.039958 0.016551 1.240650
v 0.039748 0.017603 1.240650
v 0.039958 0.018656 1.240650
v 0.040554 0.019548 1.240650
v 0.041446 0.020144 1.240650
v 0.042498 0.020353 1.240650
v 0.043551 0.020144 1.240650
v 0.044443 0.019548 1.240650
v 0.045248 0.017603 1.240650
v 0.045039 0.016551 1.240650
v 0.045039 0.018656 1.240650
v 0.042498 -0.020353 1.240650
v 0.043551 -0.020144 1.240650
v 0.044443 -0.019548 1.240650
v 0.045039 -0.018656 1.240650
v 0.045248 -0.017603 1.240650
v 0.045039 -0.016551 1.240650
v 0.044443 -0.015659 1.240650
v 0.043551 -0.015063 1.240650
v 0.042498 -0.014853 1.240650
v 0.041446 -0.015063 1.240650
v 0.040554 -0.015659 1.240650
v 0.039958 -0.016551 1.240650
v 0.039748 -0.017603 1.240650
v 0.039958 -0.018656 1.240650
v 0.040554 -0.019548 1.240650
v 0.041446 -0.020144 1.240650
v 0.020353 0.042498 1.240650
v 0.020144 0.043551 1.240650
v 0.019548 0.044443 1.240650
v 0.018656 0.045039 1.240650
v 0.017603 0.045248 1.240650
v 0.016551 0.045039 1.240650
v 0.015659 0.044443 1.240650
v 0.015063 0.043551 1.240650
v 0.014853 0.042498 1.240650
v 0.015063 0.041446 1.240650
v 0.015659 0.040554 1.240650
v 0.016551 0.039958 1.240650
v 0.017603 0.039748 1.240650
v 0.018656 0.039958 1.240650
v 0.019548 0.040554 1.240650
v 0.020144 0.041446 1.240650
v 0.015659 -0.044443 1.240650
v 0.015063 -0.043551 1.240650
v 0.014853 -0.042498 1.240650
v 0.015063 -0.041446 1.240650
v 0.015659 -0.040554 1.240650
v 0.016551 -0.039958 1.240650
v 0.017603 -0.039748 1.240650
v 0.018656 -0.039958 1.240650
v 0.019548 -0.040554 1.240650
v 0.020144 -0.041446 1.240650
v 0.020353 -0.042498 1.240650
v 0.020144 -0.043551 1.240650
v 0.019548 -0.044443 1.240650
v 0.017603 -0.045248 1.240650
v 0.016551 -0.045039 1.240650
v 0.018656 -0.045039 1.240650
v -0.015659 0.044443 1.240650
v -0.015063 0.043551 1.240650
v -0.014853 0.042498 1.240650
v -0.015063 0.041446 1.240650
v -0.015659 0.040554 1.240650
v -0.016551 0.039958 1.240650
v -0.017603 0.039748 1.240650
v -0.018656 0.039958 1.240650
v -0.019548 0.040554 1.240650
v -0.020144 0.041446 1.240650
v -0.020353 0.042498 1.240650
v -0.020144 0.043551 1.240650
v -0.019548 0.044443 1.240650
v -0.017603 0.045248 1.240650
v -0.016551 0.045039 1.240650
v -0.018656 0.045039 1.240650
v -0.020353 -0.042498 1.240650
v -0.020144 -0.043551 1.240650
v -0.019548 -0.044443 1.240650
v -0.018656 -0.045039 1.240650
v -0.017603 -0.045248 1.240650
v -0.016551 -0.045039 1.240650
v -0.015659 -0.044443 1.240650
v -0.015063 -0.043551 1.240650
v -0.014853 -0.042498 1.240650
v -0.015063 -0.041446 1.240650
v -0.015659 -0.040554 1.240650
v -0.016551 -0.039958 1.240650
v -0.017603 -0.039748 1.240650
v -0.018656 -0.039958 1.240650
v -0.019548 -0.040554 1.240650
v -0.020144 -0.041446 1.240650
v -0.042498 0.020353 1.240650
v -0.043551 0.020144 1.240650
v -0.044443 0.019548 1.240650
v -0.045039 0.018656 1.240650
v -0.045248 0.017603 1.240650
v -0.045039 0.016551 1.240650
v -0.044443 0.015659 1.240650
v -0.043551 0.015063 1.240650
v -0.042498 0.014853 1.240650
v -0.041446 0.015063 1.240650
v -0.040554 0.015659 1.240650
v -0.039958 0.016551 1.240650
v -0.039748 0.017603 1.240650
v -0.039958 0.018656 1.240650
v -0.040554 0.019548 1.240650
v -0.041446 0.020144 1.240650
v -0.044443 -0.015659 1.240650
v -0.043551 -0.015063 1.240650
v -0.042498 -0.014853 1.240650
v -0.041446 -0.015063 1.240650
v -0.040554 -0.015659 1.240650
v -0.039958 -0.016551 1.240650
v -0.039748 -0.017603 1.240650
v -0.039958 -0.018656 1.240650
v -0.040554 -0.019548 1.240650
v -0.041446 -0.020144 1.240650
v -0.042498 -0.020353 1.240650
v -0.043551 -0.020144 1.240650
v -0.044443 -0.019548 1.240650
v -0.045248 -0.017603 1.240650
v -0.045039 -0.016551 1.240650
v -0.045039 -0.018656 1.240650
v -0.039958 0.018656 1.243650
v -0.045039 0.018656 1.243650
v -0.039748 0.017603 1.243650
v -0.045248 0.017603 1.243650
v -0.039958 0.016551 1.243650
v -0.045039 0.016551 1.243650
v -0.040554 0.015659 1.243650
v -0.044443 0.015659 1.243650
v -0.041446 0.015063 1.243650
v -0.043551 0.015063 1.243650
v -0.042498 0.014853 1.243650
v -0.044443 0.019548 1.243650
v -0.040554 0.019548 1.243650
v -0.043551 0.020144 1.243650
v -0.041446 0.020144 1.243650
v -0.042498 0.020353 1.243650
v -0.039958 -0.016551 1.243650
v -0.045039 -0.016551 1.243650
v -0.039748 -0.017603 1.243650
v -0.045248 -0.017603 1.243650
v -0.039958 -0.018656 1.243650
v -0.045039 -0.018656 1.243650
v -0.040554 -0.019548 1.243650
v -0.044443 -0.019548 1.243650
v -0.041446 -0.020144 1.243650
v -0.043551 -0.020144 1.243650
v -0.042498 -0.020353 1.243650
v -0.044443 -0.015659 1.243650
v -0.040554 -0.015659 1.243650
v -0.043551 -0.015063 1.243650
v -0.041446 -0.015063 1.243650
v -0.042498 -0.014853 1.243650
v -0.015063 -0.041446 1.243650
v -0.020144 -0.041446 1.243650
v -0.014853 -0.042498 1.243650
v -0.020353 -0.042498 1.243650
v -0.015063 -0.043551 1.243650
v -0.020144 -0.043551 1.243650
v -0.015659 -0.044443 1.243650
v -0.019548 -0.044443 1.243650
v -0.016551 -0.045039 1.243650
v -0.018656 -0.045039 1.243650
v -0.017603 -0.045248 1.243650
v -0.019548 -0.040554 1.243650
v -0.015659 -0.040554 1.243650
v -0.018656 -0.039958 1.243650
v -0.016551 -0.039958 1.243650
v -0.017603 -0.039748 1.243650
v 0.020144 -0.041446 1.243650
v 0.015063 -0.041446 1.243650
v 0.020353 -0.042498 1.243650
v 0.014853 -0.042498 1.243650
v 0.020144 -0.043551 1.243650
v 0.015063 -0.043551 1.243650
v 0.019548 -0.044443 1.243650
v 0.015659 -0.044443 1.243650
v 0.018656 -0.045039 1.243650
v 0.016551 -0.045039 1.243650
v 0.017603 -0.045248 1.243650
v 0.015659 -0.040554 1.243650
v 0.019548 -0.040554 1.243650
v 0.016551 -0.039958 1.243650
v 0.018656 -0.039958 1.243650
v 0.017603 -0.039748 1.243650
v 0.045039 -0.016551 1.243650
v 0.039958 -0.016551 1.243650
v 0.045248 -0.017603 1.243650
v 0.039748 -0.017603 1.243650
v 0.045039 -0.018656 1.243650
v 0.039958 -0.018656 1.243650
v 0.044443 -0.019548 1.243650
v 0.040554 -0.019548 1.243650
v 0.043551 -0.020144 1.243650
v 0.041446 -0.020144 1.243650
v 0.042498 -0.020353 1.243650
v 0.040554 -0.015659 1.243650
v 0.044443 -0.015659 1.243650
v 0.041446 -0.015063 1.243650
v 0.043551 -0.015063 1.243650
v 0.042498 -0.014853 1.243650
v 0.045039 0.018656 1.243650
v 0.039958 0.018656 1.243650
v 0.045248 0.017603 1.243650
v 0.039748 0.017603 1.243650
v 0.045039 0.016551 1.243650
v 0.039958 0.016551 1.243650
v 0.044443 0.015659 1.243650
v 0.040554 0.015659 1.243650
v 0.043551 0.015063 1.243650
v 0.041446 0.015063 1.243650
v 0.042498 0.014853 1.243650
v 0.040554 0.019548 1.243650
v 0.044443 0.019548 1.243650
v 0.041446 0.020144 1.243650
v 0.043551 0.020144 1.243650
v 0.042498 0.020353 1.243650
v 0.020144 0.043551 1.243650
v 0.015063 0.043551 1.243650
v 0.020353 0.042498 1.243650
v 0.014853 0.042498 1.243650
v 0.020144 0.041446 1.243650
v 0.015063 0.041446 1.243650
v 0.019548 0.040554 1.243650
v 0.015659 0.040554 1.243650
v 0.018656 0.039958 1.243650
v 0.016551 0.039958 1.243650
v 0.017603 0.039748 1.243650
v 0.015659 0.044443 1.243650
v 0.019548 0.044443 1.243650
v 0.016551 0.045039 1.243650
v 0.018656 0.045039 1.243650
v 0.017603 0.045248 1.243650
v -0.015063 0.043551 1.243650
v -0.020144 0.043551 1.243650
v -0.014853 0.042498 1.243650
v -0.020353 0.042498 1.243650
v -0.015063 0.041446 1.243650
v -0.020144 0.041446 1.243650
v -0.015659 0.040554 1.243650
v -0.019548 0.040554 1.243650
v -0.016551 0.039958 1.243650
v -0.018656 0.039958 1.243650
v -0.017603 0.039748 1.243650
v -0.019548 0.044443 1.243650
v -0.015659 0.044443 1.243650
v -0.018656 0.045039 1.243650
v -0.016551 0.045039 1.243650
v -0.017603 0.045248 1.243650
vn -0.0000 -0.0000 1.0000
vn 0.9807 -0.1958 -0.0000
vn 0.9807 0.1956 -0.0000
vn 0.8315 0.5556 -0.0000
vn 0.5556 0.8315 -0.0000
vn 0.1949 0.9808 -0.0000
vn -0.1947 0.9809 -0.0000
vn -0.5556 0.8315 -0.0000
vn -0.8315 0.5556 -0.0000
vn -0.9809 0.1947 -0.0000
vn -0.9808 -0.1949 -0.0000
vn -0.9808 -0.1948 -0.0000
vn -0.8315 -0.5556 -0.0000
vn 0.8315 -0.5556 -0.0000
vn 0.5556 -0.8315 -0.0000
vn 0.1958 -0.9807 -0.0000
vn -0.1956 -0.9807 -0.0000
vn -0.5556 -0.8315 -0.0000
vn 0.9807 -0.1956 -0.0000
vn 0.9807 0.1957 -0.0000
vn 0.9806 0.1958 -0.0000
vn 0.1958 0.9807 -0.0000
vn -0.1956 0.9807 -0.0000
vn -0.9808 0.1949 -0.0000
vn -0.9809 -0.1947 -0.0000
vn 0.1949 -0.9808 -0.0000
vn -0.1947 -0.9809 -0.0000
vn 0.9807 0.1958 -0.0000
vn 0.8315 0.5555 -0.0000
vn 0.1957 0.9807 -0.0000
vn -0.8315 0.5555 -0.0000
vn 0.5555 -0.8315 -0.0000
vn -0.5555 -0.8315 -0.0000
vn 0.9809 -0.1947 -0.0000
vn 0.9808 0.1949 -0.0000
vn 0.1956 0.9807 -0.0000
vn -0.1958 0.9807 -0.0000
vn -0.1957 0.9807 -0.0000
vn -0.9807 0.1958 -0.0000
vn -0.9807 -0.1956 -0.0000
vn 0.1947 -0.9809 -0.0000
vn -0.1949 -0.9808 -0.0000
vn -0.9807 0.1957 -0.0000
vn 0.9808 -0.1949 -0.0000
vn 0.9809 0.1947 -0.0000
vn 0.1947 0.9809 -0.0000
vn -0.1949 0.9808 -0.0000
vn -0.9807 0.1956 -0.0000
vn -0.9807 -0.1958 -0.0000
vn 0.9808 -0.1948 -0.0000
vn 0.1956 -0.9807 -0.0000
vn -0.1958 -0.9807 -0.0000
vn 0.5555 0.8315 -0.0000
vn -0.5555 0.8315 -0.0000
vn -0.8315 -0.5555 -0.0000
vn 0.8315 -0.5555 -0.0000
vn -0.1957 -0.9807 -0.0000
vn 0.1957 -0.9807 -0.0000
s 0
f 129//1 130//1 131//1
f 131//1 130//1 132//1
f 131//1 132//1 133//1
f 133//1 132//1 134//1
f 133//1 134//1 135//1
f 135//1 134//1 136//1
f 135//1 136//1 137//1
f 137//1 136//1 138//1
f 137//1 138//1 139//1
f 130//1 129//1 140//1
f 140//1 129//1 141//1
f 140//1 141//1 142//1
f 142//1 141//1 143//1
f 142//1 143//1 144//1
f 133//2 109//2 131//2
f 131//3 109//3 110//3
f 131//3 110//3 129//3
f 129//4 110//4 111//4
f 129//4 111//4 141//4
f 141//5 111//5 112//5
f 141//5 112//5 143//5
f 143//6 112//6 97//6
f 143//6 97//6 144//6
f 144//7 97//7 98//7
f 144//7 98//7 142//7
f 142//8 98//8 99//8
f 142//8 99//8 140//8
f 140//9 99//9 100//9
f 140//9 100//9 130//9
f 130//10 100//10 132//10
f 132//10 100//10 101//10
f 132//11 101//11 134//11
f 134//12 101//12 102//12
f 134//13 102//13 103//13
f 109//2 133//2 108//2
f 108//14 133//14 135//14
f 108//14 135//14 107//14
f 107//15 135//15 137//15
f 107//15 137//15 106//15
f 106//16 137//16 139//16
f 106//16 139//16 105//16
f 105//17 139//17 138//17
f 105//17 138//17 104//17
f 104//18 138//18 136//18
f 104//18 136//18 103//18
f 103//13 136//13 134//13
f 145//1 146//1 147//1
f 147//1 146//1 148//1
f 147//1 148//1 149//1
f 149//1 148//1 150//1
f 149//1 150//1 151//1
f 151//1 150//1 152//1
f 151//1 152//1 153//1
f 153//1 152//1 154//1
f 153//1 154//1 155//1
f 146//1 145//1 156//1
f 156//1 145//1 157//1
f 156//1 157//1 158//1
f 158//1 157//1 159//1
f 158//1 159//1 160//1
f 149//19 119//19 147//19
f 147//20 119//20 118//20
f 147//21 118//21 145//21
f 145//4 118//4 117//4
f 145//4 117//4 157//4
f 157//5 117//5 116//5
f 157//5 116//5 159//5
f 159//22 116//22 115//22
f 159//22 115//22 160//22
f 160//23 115//23 114//23
f 160//23 114//23 158//23
f 158//8 114//8 113//8
f 158//8 113//8 156//8
f 156//9 113//9 127//9
f 156//9 127//9 146//9
f 146//24 127//24 148//24
f 148//24 127//24 126//24
f 148//25 126//25 150//25
f 150//25 126//25 128//25
f 150//13 128//13 125//13
f 119//19 149//19 120//19
f 120//14 149//14 151//14
f 120//14 151//14 121//14
f 121//15 151//15 153//15
f 121//15 153//15 122//15
f 122//26 153//26 155//26
f 122//26 155//26 123//26
f 123//27 155//27 154//27
f 123//27 154//27 124//27
f 124//18 154//18 152//18
f 124//18 152//18 125//18
f 125//13 152//13 150//13
f 161//1 162//1 163//1
f 163//1 162//1 164//1
f 163//1 164//1 165//1
f 165//1 164//1 166//1
f 165//1 166//1 167//1
f 167//1 166//1 168//1
f 167//1 168//1 169//1
f 169//1 168//1 170//1
f 169//1 170//1 171//1
f 162//1 161//1 172//1
f 172//1 161//1 173//1
f 172//1 173//1 174//1
f 174//1 173//1 175//1
f 174//1 175//1 176//1
f 165//19 89//19 163//19
f 163//28 89//28 90//28
f 163//28 90//28 161//28
f 161//29 90//29 91//29
f 161//4 91//4 173//4
f 173//5 91//5 92//5
f 173//5 92//5 175//5
f 175//22 92//22 93//22
f 175//30 93//30 176//30
f 176//23 93//23 94//23
f 176//23 94//23 174//23
f 174//8 94//8 95//8
f 174//8 95//8 172//8
f 172//31 95//31 96//31
f 172//9 96//9 162//9
f 162//24 96//24 164//24
f 164//24 96//24 81//24
f 164//25 81//25 166//25
f 166//25 81//25 82//25
f 166//13 82//13 83//13
f 89//19 165//19 88//19
f 88//14 165//14 167//14
f 88//14 167//14 87//14
f 87//32 167//32 169//32
f 87//15 169//15 86//15
f 86//26 169//26 171//26
f 86//26 171//26 85//26
f 85//27 171//27 170//27
f 85//27 170//27 84//27
f 84//33 170//33 168//33
f 84//18 168//18 83//18
f 83//13 168//13 166//13
f 177//1 178//1 179//1
f 179//1 178//1 180//1
f 179//1 180//1 181//1
f 181//1 180//1 182//1
f 181//1 182//1 183//1
f 183//1 182//1 184//1
f 183//1 184//1 185//1
f 185//1 184//1 186//1
f 185//1 186//1 187//1
f 178//1 177//1 188//1
f 188//1 177//1 189//1
f 188//1 189//1 190//1
f 190//1 189//1 191//1
f 190//1 191//1 192//1
f 181//34 59//34 179//34
f 179//35 59//35 58//35
f 179//35 58//35 177//35
f 177//29 58//29 57//29
f 177//4 57//4 189//4
f 189//5 57//5 56//5
f 189//5 56//5 191//5
f 191//36 56//36 55//36
f 191//36 55//36 192//36
f 192//37 55//37 54//37
f 192//38 54//38 190//38
f 190//8 54//8 53//8
f 190//8 53//8 188//8
f 188//31 53//31 52//31
f 188//9 52//9 178//9
f 178//39 52//39 180//39
f 180//39 52//39 51//39
f 180//40 51//40 182//40
f 182//40 51//40 50//40
f 182//13 50//13 49//13
f 59//34 181//34 60//34
f 60//14 181//14 183//14
f 60//14 183//14 61//14
f 61//32 183//32 185//32
f 61//15 185//15 64//15
f 64//41 185//41 187//41
f 64//41 187//41 62//41
f 62//42 187//42 186//42
f 62//42 186//42 63//42
f 63//33 186//33 184//33
f 63//18 184//18 49//18
f 49//13 184//13 182//13
f 193//1 194//1 195//1
f 195//1 194//1 196//1
f 195//1 196//1 197//1
f 197//1 196//1 198//1
f 197//1 198//1 199//1
f 199//1 198//1 200//1
f 199//1 200//1 201//1
f 201//1 200//1 202//1
f 201//1 202//1 203//1
f 194//1 193//1 204//1
f 204//1 193//1 205//1
f 204//1 205//1 206//1
f 206//1 205//1 207//1
f 206//1 207//1 208//1
f 197//34 21//34 195//34
f 195//35 21//35 22//35
f 195//35 22//35 193//35
f 193//4 22//4 23//4
f 193//4 23//4 205//4
f 205//5 23//5 24//5
f 205//5 24//5 207//5
f 207//36 24//36 25//36
f 207//36 25//36 208//36
f 208//37 25//37 26//37
f 208//37 26//37 206//37
f 206//8 26//8 27//8
f 206//8 27//8 204//8
f 204//9 27//9 28//9
f 204//9 28//9 194//9
f 194//39 28//39 196//39
f 196//43 28//43 29//43
f 196//40 29//40 198//40
f 198//40 29//40 30//40
f 198//13 30//13 31//13
f 21//34 197//34 20//34
f 20//14 197//14 199//14
f 20//14 199//14 19//14
f 19//15 199//15 201//15
f 19//15 201//15 18//15
f 18//41 201//41 203//41
f 18//41 203//41 17//41
f 17//42 203//42 202//42
f 17//42 202//42 32//42
f 32//18 202//18 200//18
f 32//18 200//18 31//18
f 31//13 200//13 198//13
f 209//1 210//1 211//1
f 211//1 210//1 212//1
f 211//1 212//1 213//1
f 213//1 212//1 214//1
f 213//1 214//1 215//1
f 215//1 214//1 216//1
f 215//1 216//1 217//1
f 217//1 216//1 218//1
f 217//1 218//1 219//1
f 210//1 209//1 220//1
f 220//1 209//1 221//1
f 220//1 221//1 222//1
f 222//1 221//1 223//1
f 222//1 223//1 224//1
f 213//44 14//44 211//44
f 211//45 14//45 16//45
f 211//45 16//45 209//45
f 209//4 16//4 13//4
f 209//4 13//4 221//4
f 221//5 13//5 12//5
f 221//5 12//5 223//5
f 223//46 12//46 11//46
f 223//46 11//46 224//46
f 224//47 11//47 10//47
f 224//47 10//47 222//47
f 222//8 10//8 9//8
f 222//8 9//8 220//8
f 220//9 9//9 8//9
f 220//9 8//9 210//9
f 210//48 8//48 212//48
f 212//48 8//48 7//48
f 212//49 7//49 214//49
f 214//49 7//49 6//49
f 214//13 6//13 5//13
f 14//50 213//50 15//50
f 15//14 213//14 215//14
f 15//14 215//14 1//14
f 1//15 215//15 217//15
f 1//15 217//15 2//15
f 2//51 217//51 219//51
f 2//51 219//51 3//51
f 3//52 219//52 218//52
f 3//52 218//52 4//52
f 4//18 218//18 216//18
f 4//18 216//18 5//18
f 5//13 216//13 214//13
f 225//1 226//1 227//1
f 227//1 226//1 228//1
f 227//1 228//1 229//1
f 229//1 228//1 230//1
f 229//1 230//1 231//1
f 231//1 230//1 232//1
f 231//1 232//1 233//1
f 233//1 232//1 234//1
f 233//1 234//1 235//1
f 226//1 225//1 236//1
f 236//1 225//1 237//1
f 236//1 237//1 238//1
f 238//1 237//1 239//1
f 238//1 239//1 240//1
f 229//44 33//44 227//44
f 227//45 33//45 34//45
f 227//45 34//45 225//45
f 225//4 34//4 35//4
f 225//4 35//4 237//4
f 237//5 35//5 36//5
f 237//53 36//53 239//53
f 239//46 36//46 37//46
f 239//46 37//46 240//46
f 240//47 37//47 38//47
f 240//47 38//47 238//47
f 238//8 38//8 39//8
f 238//54 39//54 236//54
f 236//9 39//9 40//9
f 236//9 40//9 226//9
f 226//48 40//48 228//48
f 228//48 40//48 41//48
f 228//49 41//49 230//49
f 230//49 41//49 42//49
f 230//55 42//55 43//55
f 33//44 229//44 48//44
f 48//14 229//14 231//14
f 48//56 231//56 47//56
f 47//15 231//15 233//15
f 47//15 233//15 46//15
f 46//51 233//51 235//51
f 46//51 235//51 45//51
f 45//57 235//57 234//57
f 45//52 234//52 44//52
f 44//18 234//18 232//18
f 44//18 232//18 43//18
f 43//13 232//13 230//13
f 241//1 242//1 243//1
f 243//1 242//1 244//1
f 243//1 244//1 245//1
f 245//1 244//1 246//1
f 245//1 246//1 247//1
f 247//1 246//1 248//1
f 247//1 248//1 249//1
f 249//1 248//1 250//1
f 249//1 250//1 251//1
f 242//1 241//1 252//1
f 252//1 241//1 253//1
f 252//1 253//1 254//1
f 254//1 253//1 255//1
f 254//1 255//1 256//1
f 245//2 67//2 243//2
f 243//3 67//3 66//3
f 243//3 66//3 241//3
f 241//4 66//4 65//4
f 241//4 65//4 253//4
f 253//5 65//5 79//5
f 253//53 79//53 255//53
f 255//6 79//6 78//6
f 255//6 78//6 256//6
f 256//7 78//7 80//7
f 256//7 80//7 254//7
f 254//8 80//8 77//8
f 254//54 77//54 252//54
f 252//9 77//9 76//9
f 252//9 76//9 242//9
f 242//10 76//10 244//10
f 244//10 76//10 75//10
f 244//11 75//11 246//11
f 246//11 75//11 74//11
f 246//55 74//55 73//55
f 67//2 245//2 68//2
f 68//14 245//14 247//14
f 68//56 247//56 69//56
f 69//15 247//15 249//15
f 69//15 249//15 70//15
f 70//58 249//58 251//58
f 70//16 251//16 71//16
f 71//17 251//17 250//17
f 71//17 250//17 72//17
f 72//18 250//18 248//18
f 72//18 248//18 73//18
f 73//13 248//13 246//13
