# Blender 4.2.3 LTS
# www.blender.org
o link_6__m2
v -0.039639 0.032792 1.221000
v -0.035216 0.037502 1.221000
v -0.030238 0.041620 1.221000
v -0.024784 0.045081 1.221000
v -0.018938 0.047832 1.221000
v -0.012794 0.049828 1.221000
v -0.006448 0.051039 1.221000
v 0.000000 0.051445 1.221000
v 0.006448 0.051039 1.221000
v 0.012794 0.049828 1.221000
v 0.018938 0.047832 1.221000
v 0.024784 0.045081 1.221000
v 0.030238 0.041620 1.221000
v 0.035216 0.037502 1.221000
v 0.039639 0.032792 1.221000
v 0.043436 0.027565 1.221000
v 0.046549 0.021904 1.221000
v 0.048927 0.015897 1.221000
v 0.050533 0.009640 1.221000
v 0.051343 0.003230 1.221000
v 0.051343 -0.003230 1.221000
v 0.050533 -0.009640 1.221000
v 0.048927 -0.015897 1.221000
v 0.046549 -0.021904 1.221000
v 0.043436 -0.027565 1.221000
v 0.039639 -0.032792 1.221000
v 0.035216 -0.037502 1.221000
v 0.030238 -0.041620 1.221000
v 0.024784 -0.045081 1.221000
v 0.018938 -0.047832 1.221000
v 0.012794 -0.049828 1.221000
v 0.006448 -0.051039 1.221000
v 0.000000 -0.051445 1.221000
v -0.006448 -0.051039 1.221000
v -0.012794 -0.049828 1.221000
v -0.018938 -0.047832 1.221000
v -0.024784 -0.045081 1.221000
v -0.030238 -0.041620 1.221000
v -0.035216 -0.037502 1.221000
v -0.039639 -0.032792 1.221000
v -0.043436 -0.027565 1.221000
v -0.046549 -0.021904 1.221000
v -0.048927 -0.015897 1.221000
v -0.050533 -0.009640 1.221000
v -0.051343 -0.003230 1.221000
v -0.051343 0.003230 1.221000
v -0.050533 0.009640 1.221000
v -0.048927 0.015897 1.221000
v -0.046549 0.021904 1.221000
v -0.043436 0.027565 1.221000
v -0.006331 0.048085 1.231000
v -0.006331 -0.048085 1.231000
v 0.000000 0.048500 1.231000
v 0.000000 -0.048500 1.231000
v 0.006331 0.048085 1.231000
v 0.006331 -0.048085 1.231000
v 0.012553 0.046847 1.231000
v 0.012553 -0.046847 1.231000
v 0.018560 0.044808 1.231000
v 0.018560 -0.044808 1.231000
v 0.024250 0.042002 1.231000
v 0.024250 -0.042002 1.231000
v 0.029525 0.038478 1.231000
v 0.029525 -0.038478 1.231000
v 0.034295 0.034295 1.231000
v 0.034295 -0.034295 1.231000
v 0.038478 0.029525 1.231000
v 0.038478 -0.029525 1.231000
v 0.042002 0.024250 1.231000
v 0.042002 -0.024250 1.231000
v 0.044808 0.018560 1.231000
v 0.044808 -0.018560 1.231000
v 0.046847 0.012553 1.231000
v 0.046847 -0.012553 1.231000
v 0.048085 0.006331 1.231000
v 0.048085 -0.006331 1.231000
v 0.048500 0.000000 1.231000
v -0.012553 -0.046847 1.231000
v -0.012553 0.046847 1.231000
v -0.018560 -0.044808 1.231000
v -0.018560 0.044808 1.231000
v -0.024250 -0.042002 1.231000
v -0.024250 0.042002 1.231000
v -0.029525 -0.038478 1.231000
v -0.029525 0.038478 1.231000
v -0.034295 -0.034295 1.231000
v -0.034295 0.034295 1.231000
v -0.038478 -0.029525 1.231000
v -0.038478 0.029525 1.231000
v -0.042002 -0.024250 1.231000
v -0.042002 0.024250 1.231000
v -0.044808 -0.018560 1.231000
v -0.044808 0.018560 1.231000
v -0.046847 -0.012553 1.231000
v -0.046847 0.012553 1.231000
v -0.048085 -0.006331 1.231000
v -0.048085 0.006331 1.231000
v -0.048500 0.000000 1.231000
v -0.006331 0.048085 1.227500
v 0.000000 0.048500 1.227500
v 0.006331 0.048085 1.227500
v 0.012553 0.046847 1.227500
v 0.018560 0.044808 1.227500
v 0.024250 0.042002 1.227500
v 0.029525 0.038478 1.227500
v 0.034295 0.034295 1.227500
v 0.038478 0.029525 1.227500
v 0.042002 0.024250 1.227500
v 0.044808 0.018560 1.227500
v 0.046847 0.012553 1.227500
v 0.048085 0.006331 1.227500
v 0.048500 0.000000 1.227500
v 0.048085 -0.006331 1.227500
v 0.046847 -0.012553 1.227500
v 0.044808 -0.018560 1.227500
v 0.042002 -0.024250 1.227500
v 0.038478 -0.029525 1.227500
v 0.034295 -0.034295 1.227500
v 0.029525 -0.038478 1.227500
v 0.024250 -0.042002 1.227500
v 0.018560 -0.044808 1.227500
v 0.012553 -0.046847 1.227500
v 0.006331 -0.048085 1.227500
v 0.000000 -0.048500 1.227500
v -0.006331 -0.048085 1.227500
v -0.012553 -0.046847 1.227500
v -0.018560 -0.044808 1.227500
v -0.024250 -0.042002 1.227500
v -0.029525 -0.038478 1.227500
v -0.034295 -0.034295 1.227500
v -0.038478 -0.029525 1.227500
v -0.042002 -0.024250 1.227500
v -0.044808 -0.018560 1.227500
v -0.046847 -0.012553 1.227500
v -0.048085 -0.006331 1.227500
v -0.048500 0.000000 1.227500
v -0.048085 0.006331 1.227500
v -0.046847 0.012553 1.227500
v -0.044808 0.018560 1.227500
v -0.042002 0.024250 1.227500
v -0.038478 0.029525 1.227500
v -0.034295 0.034295 1.227500
v -0.029525 0.038478 1.227500
v -0.024250 0.042002 1.227500
v -0.018560 0.044808 1.227500
v -0.012553 0.046847 1.227500
v 0.006432 0.050912 1.227500
v 0.000000 0.051317 1.227500
v -0.006432 0.050912 1.227500
v -0.012762 0.049705 1.227500
v -0.018891 0.047713 1.227500
v -0.024722 0.044969 1.227500
v -0.030163 0.041516 1.227500
v -0.035129 0.037408 1.227500
v -0.039540 0.032711 1.227500
v -0.043328 0.027497 1.227500
v -0.046433 0.021850 1.227500
v -0.048805 0.015858 1.227500
v -0.050408 0.009616 1.227500
v -0.051216 0.003222 1.227500
v -0.051216 -0.003222 1.227500
v -0.050408 -0.009616 1.227500
v -0.048805 -0.015858 1.227500
v -0.046433 -0.021850 1.227500
v -0.043328 -0.027497 1.227500
v -0.039540 -0.032711 1.227500
v -0.035129 -0.037408 1.227500
v -0.030163 -0.041516 1.227500
v -0.024722 -0.044969 1.227500
v -0.018891 -0.047713 1.227500
v -0.012762 -0.049705 1.227500
v -0.006432 -0.050912 1.227500
v 0.000000 -0.051317 1.227500
v 0.006432 -0.050912 1.227500
v 0.012762 -0.049705 1.227500
v 0.018891 -0.047713 1.227500
v 0.024722 -0.044969 1.227500
v 0.030163 -0.041516 1.227500
v 0.035129 -0.037408 1.227500
v 0.039540 -0.032711 1.227500
v 0.043328 -0.027497 1.227500
v 0.046433 -0.021850 1.227500
v 0.048805 -0.015858 1.227500
v 0.050408 -0.009616 1.227500
v 0.051216 -0.003222 1.227500
v 0.051216 0.003222 1.227500
v 0.050408 0.009616 1.227500
v 0.048805 0.015858 1.227500
v 0.046433 0.021850 1.227500
v 0.043328 0.027497 1.227500
v 0.039540 0.032711 1.227500
v 0.035129 0.037408 1.227500
v 0.030163 0.041516 1.227500
v 0.024722 0.044969 1.227500
v 0.018891 0.047713 1.227500
v 0.012762 0.049705 1.227500
v -0.006510 0.051532 1.221552
v 0.000000 0.051942 1.221552
v 0.006510 0.051532 1.221552
v 0.012917 0.050310 1.221552
v 0.019121 0.048294 1.221552
v 0.025023 0.045517 1.221552
v 0.030531 0.042022 1.221552
v 0.035557 0.037864 1.221552
v 0.040022 0.033109 1.221552
v 0.043856 0.027832 1.221552
v 0.046998 0.022116 1.221552
v 0.049400 0.016051 1.221552
v 0.051022 0.009733 1.221552
v 0.051839 0.003261 1.221552
v 0.051839 -0.003261 1.221552
v 0.051022 -0.009733 1.221552
v 0.049400 -0.016051 1.221552
v 0.046998 -0.022116 1.221552
v 0.043856 -0.027832 1.221552
v 0.040022 -0.033109 1.221552
v 0.035557 -0.037864 1.221552
v 0.030531 -0.042022 1.221552
v 0.025023 -0.045517 1.221552
v 0.019121 -0.048294 1.221552
v 0.012917 -0.050310 1.221552
v 0.006510 -0.051532 1.221552
v 0.000000 -0.051942 1.221552
v -0.006510 -0.051532 1.221552
v -0.012917 -0.050310 1.221552
v -0.019121 -0.048294 1.221552
v -0.025023 -0.045517 1.221552
v -0.030531 -0.042022 1.221552
v -0.035557 -0.037864 1.221552
v -0.040022 -0.033109 1.221552
v -0.043856 -0.027832 1.221552
v -0.046998 -0.022116 1.221552
v -0.049400 -0.016051 1.221552
v -0.051022 -0.009733 1.221552
v -0.051839 -0.003261 1.221552
v -0.051839 0.003261 1.221552
v -0.051022 0.009733 1.221552
v -0.049400 0.016051 1.221552
v -0.046998 0.022116 1.221552
v -0.043856 0.027832 1.221552
v -0.040022 0.033109 1.221552
v -0.035557 0.037864 1.221552
v -0.030531 0.042022 1.221552
v -0.025023 0.045517 1.221552
v -0.019121 0.048294 1.221552
v -0.012917 0.050310 1.221552
v -0.002222 0.051600 1.221043
v 0.002222 0.051600 1.221043
v 0.006650 0.051218 1.221043
v 0.011028 0.050457 1.221043
v 0.006671 0.051385 1.221165
v 0.011064 0.050621 1.221165
v 0.006685 0.051488 1.221345
v 0.011086 0.050723 1.221345
v -0.011028 0.050457 1.221043
v -0.006650 0.051218 1.221043
v -0.006671 0.051385 1.221165
v -0.002229 0.051768 1.221165
v -0.006685 0.051488 1.221345
v -0.002234 0.051872 1.221345
v -0.015325 0.049322 1.221043
v -0.019508 0.047822 1.221043
v -0.023547 0.045968 1.221043
v -0.023623 0.046118 1.221165
v -0.027500 0.043916 1.221165
v -0.027556 0.044005 1.221345
v -0.031236 0.041473 1.221345
v -0.034686 0.038634 1.221345
v -0.037879 0.035509 1.221345
v -0.040791 0.032122 1.221345
v -0.043401 0.028496 1.221345
v -0.045690 0.024660 1.221345
v -0.043315 0.028439 1.221165
v -0.045599 0.024610 1.221165
v -0.043174 0.028347 1.221043
v -0.045451 0.024530 1.221043
v -0.027411 0.043774 1.221043
v -0.031174 0.041390 1.221165
v -0.031073 0.041255 1.221043
v -0.034617 0.038557 1.221165
v -0.034504 0.038432 1.221043
v -0.037680 0.035323 1.221043
v -0.040577 0.031953 1.221043
v -0.047391 0.020532 1.221043
v -0.048981 0.016382 1.221043
v -0.050208 0.012111 1.221043
v -0.050372 0.012150 1.221165
v -0.051230 0.007775 1.221165
v -0.051332 0.007791 1.221345
v -0.051812 0.003349 1.221345
v -0.051908 -0.001117 1.221345
v -0.051620 -0.005575 1.221345
v -0.050950 -0.009992 1.221345
v -0.049902 -0.014335 1.221345
v -0.050848 -0.009972 1.221165
v -0.049802 -0.014306 1.221165
v -0.050683 -0.009940 1.221043
v -0.049640 -0.014260 1.221043
v -0.051063 0.007750 1.221043
v -0.051708 0.003343 1.221165
v -0.051540 0.003332 1.221043
v -0.051804 -0.001115 1.221165
v -0.051636 -0.001111 1.221043
v -0.051349 -0.005546 1.221043
v -0.048231 -0.018474 1.221043
v -0.046464 -0.022552 1.221043
v -0.044353 -0.026463 1.221043
v -0.044498 -0.026549 1.221165
v -0.042051 -0.030276 1.221165
v -0.042135 -0.030337 1.221345
v -0.039371 -0.033847 1.221345
v -0.036316 -0.037106 1.221345
v -0.032992 -0.040091 1.221345
v -0.029423 -0.042778 1.221345
v -0.025637 -0.045149 1.221345
v -0.021661 -0.047186 1.221345
v -0.025586 -0.045059 1.221165
v -0.021617 -0.047092 1.221165
v -0.025503 -0.044913 1.221043
v -0.021547 -0.046939 1.221043
v -0.041914 -0.030178 1.221043
v -0.039293 -0.033779 1.221165
v -0.039165 -0.033669 1.221043
v -0.036243 -0.037032 1.221165
v -0.036126 -0.036911 1.221043
v -0.032819 -0.039880 1.221043
v -0.029269 -0.042554 1.221043
v -0.017432 -0.048617 1.221043
v -0.013189 -0.049936 1.221043
v -0.008847 -0.050885 1.221043
v -0.008876 -0.051050 1.221165
v -0.004454 -0.051624 1.221165
v -0.004463 -0.051728 1.221345
v 0.000000 -0.051920 1.221345
v 0.004463 -0.051728 1.221345
v 0.008894 -0.051153 1.221345
v 0.013258 -0.050199 1.221345
v 0.017524 -0.048873 1.221345
v 0.013231 -0.050098 1.221165
v 0.017489 -0.048776 1.221165
v 0.013189 -0.049936 1.221043
v 0.017432 -0.048617 1.221043
v -0.004440 -0.051457 1.221043
v 0.000000 -0.051816 1.221165
v 0.000000 -0.051648 1.221043
v 0.004454 -0.051624 1.221165
v 0.004440 -0.051457 1.221043
v 0.008847 -0.050885 1.221043
v 0.021547 -0.046939 1.221043
v 0.025503 -0.044913 1.221043
v 0.029269 -0.042554 1.221043
v 0.029364 -0.042693 1.221165
v 0.032926 -0.040010 1.221165
v 0.032992 -0.040091 1.221345
v 0.036316 -0.037106 1.221345
v 0.039371 -0.033847 1.221345
v 0.042135 -0.030337 1.221345
v 0.039293 -0.033779 1.221165
v 0.042051 -0.030276 1.221165
v 0.039165 -0.033669 1.221043
v 0.041914 -0.030178 1.221043
v 0.032819 -0.039880 1.221043
v 0.036243 -0.037032 1.221165
v 0.036126 -0.036911 1.221043
v 0.044353 -0.026463 1.221043
v 0.046464 -0.022552 1.221043
v 0.048231 -0.018474 1.221043
v 0.048388 -0.018535 1.221165
v 0.049802 -0.014306 1.221165
v 0.049902 -0.014335 1.221345
v 0.050950 -0.009992 1.221345
v 0.051620 -0.005575 1.221345
v 0.051908 -0.001117 1.221345
v 0.051812 0.003349 1.221345
v 0.051332 0.007791 1.221345
v 0.051708 0.003343 1.221165
v 0.051230 0.007775 1.221165
v 0.051540 0.003332 1.221043
v 0.051063 0.007750 1.221043
v 0.049640 -0.014260 1.221043
v 0.050848 -0.009972 1.221165
v 0.050683 -0.009940 1.221043
v 0.051517 -0.005564 1.221165
v 0.051349 -0.005546 1.221043
v 0.051636 -0.001111 1.221043
v 0.050208 0.012111 1.221043
v 0.048981 0.016382 1.221043
v 0.047391 0.020532 1.221043
v 0.047546 0.020599 1.221165
v 0.045599 0.024610 1.221165
v 0.045690 0.024660 1.221345
v 0.043401 0.028496 1.221345
v 0.040791 0.032122 1.221345
v 0.037879 0.035509 1.221345
v 0.034686 0.038634 1.221345
v 0.031236 0.041473 1.221345
v 0.027556 0.044005 1.221345
v 0.031174 0.041390 1.221165
v 0.027500 0.043916 1.221165
v 0.031073 0.041255 1.221043
v 0.027411 0.043774 1.221043
v 0.045451 0.024530 1.221043
v 0.043315 0.028439 1.221165
v 0.043174 0.028347 1.221043
v 0.040709 0.032057 1.221165
v 0.040577 0.031953 1.221043
v 0.037680 0.035323 1.221043
v 0.034504 0.038432 1.221043
v 0.023547 0.045968 1.221043
v 0.019508 0.047822 1.221043
v 0.015325 0.049322 1.221043
v 0.015375 0.049483 1.221165
v 0.002234 0.051872 1.221345
v 0.015405 0.049582 1.221345
v 0.019611 0.048074 1.221345
v 0.023671 0.046210 1.221345
v 0.023623 0.046118 1.221165
v 0.047641 0.020641 1.221345
v 0.049141 0.016436 1.221165
v 0.049239 0.016469 1.221345
v 0.050372 0.012150 1.221165
v 0.050473 0.012175 1.221345
v 0.048485 -0.018572 1.221345
v 0.046616 -0.022626 1.221165
v 0.046709 -0.022671 1.221345
v 0.044498 -0.026549 1.221165
v 0.044587 -0.026602 1.221345
v 0.029423 -0.042778 1.221345
v 0.025586 -0.045059 1.221165
v 0.025637 -0.045149 1.221345
v 0.021617 -0.047092 1.221165
v 0.021661 -0.047186 1.221345
v -0.008894 -0.051153 1.221345
v -0.013231 -0.050098 1.221165
v -0.013258 -0.050199 1.221345
v -0.017489 -0.048776 1.221165
v -0.017524 -0.048873 1.221345
v -0.044587 -0.026602 1.221345
v -0.046616 -0.022626 1.221165
v -0.046709 -0.022671 1.221345
v -0.048388 -0.018535 1.221165
v -0.048485 -0.018572 1.221345
v -0.050473 0.012175 1.221345
v -0.049141 0.016436 1.221165
v -0.049239 0.016469 1.221345
v -0.047546 0.020599 1.221165
v -0.047641 0.020641 1.221345
v -0.023671 0.046210 1.221345
v -0.019571 0.047978 1.221165
v -0.019611 0.048074 1.221345
v -0.015375 0.049483 1.221165
v -0.015405 0.049582 1.221345
v -0.011086 0.050723 1.221345
v 0.002229 0.051768 1.221165
v -0.011064 0.050621 1.221165
v -0.037803 0.035438 1.221165
v -0.040709 0.032057 1.221165
v -0.051517 -0.005564 1.221165
v -0.032926 -0.040010 1.221165
v -0.029364 -0.042693 1.221165
v 0.008876 -0.051050 1.221165
v 0.051804 -0.001115 1.221165
v 0.037803 0.035438 1.221165
v 0.034617 0.038557 1.221165
v 0.019571 0.047978 1.221165
vn -0.0000 -0.0000 1.0000
vn -0.0001 -0.0000 1.0000
vn 0.0001 -0.0000 1.0000
vn -0.0654 0.9979 -0.0000
vn 0.0654 0.9979 -0.0000
vn 0.1951 0.9808 -0.0000
vn 0.3214 0.9469 -0.0000
vn 0.4423 0.8969 -0.0000
vn 0.5555 0.8315 -0.0000
vn 0.6593 0.7519 -0.0000
vn 0.7519 0.6593 -0.0000
vn 0.8315 0.5555 -0.0000
vn 0.8969 0.4423 -0.0000
vn 0.9469 0.3214 -0.0000
vn 0.9808 0.1951 -0.0000
vn 0.9979 0.0654 -0.0000
vn 0.9979 -0.0654 -0.0000
vn 0.9808 -0.1951 -0.0000
vn 0.9469 -0.3214 -0.0000
vn 0.8969 -0.4423 -0.0000
vn 0.8315 -0.5555 -0.0000
vn 0.7519 -0.6593 -0.0000
vn 0.6593 -0.7519 -0.0000
vn 0.5555 -0.8315 -0.0000
vn 0.4423 -0.8969 -0.0000
vn 0.3214 -0.9469 -0.0000
vn 0.1951 -0.9808 -0.0000
vn 0.0654 -0.9979 -0.0000
vn -0.0654 -0.9979 -0.0000
vn -0.1951 -0.9808 -0.0000
vn -0.3214 -0.9469 -0.0000
vn -0.4423 -0.8969 -0.0000
vn -0.5555 -0.8315 -0.0000
vn -0.6593 -0.7519 -0.0000
vn -0.7519 -0.6593 -0.0000
vn -0.8315 -0.5555 -0.0000
vn -0.8969 -0.4423 -0.0000
vn -0.9469 -0.3214 -0.0000
vn -0.9808 -0.1951 -0.0000
vn -0.9979 -0.0654 -0.0000
vn -0.9979 0.0654 -0.0000
vn -0.9808 0.1951 -0.0000
vn -0.9469 0.3214 -0.0000
vn -0.8969 0.4423 -0.0000
vn -0.8315 0.5555 -0.0000
vn -0.7519 0.6593 -0.0000
vn -0.6593 0.7519 -0.0000
vn -0.5555 0.8315 -0.0000
vn -0.4423 0.8969 -0.0000
vn -0.3214 0.9469 -0.0000
vn -0.1951 0.9808 -0.0000
vn -0.0625 0.9926 0.1043
vn 0.0625 0.9926 0.1043
vn 0.1863 0.9769 0.1043
vn 0.1863 0.9770 0.1042
vn 0.3073 0.9459 0.1042
vn 0.3074 0.9458 0.1043
vn 0.4234 0.8999 0.1043
vn 0.4235 0.8999 0.1043
vn 0.5328 0.8398 0.1043
vn 0.5329 0.8397 0.1044
vn 0.6339 0.7663 0.1044
vn 0.7250 0.6808 0.1044
vn 0.7250 0.6808 0.1043
vn 0.8046 0.5846 0.1043
vn 0.8715 0.4791 0.1044
vn 0.8715 0.4792 0.1042
vn 0.9247 0.3662 0.1042
vn 0.9247 0.3661 0.1044
vn 0.9633 0.2473 0.1044
vn 0.9633 0.2474 0.1043
vn 0.9867 0.1246 0.1043
vn 0.9867 0.1247 0.1042
vn 0.9946 -0.0000 0.1042
vn 0.9867 -0.1246 0.1042
vn 0.9867 -0.1247 0.1043
vn 0.9633 -0.2473 0.1043
vn 0.9633 -0.2474 0.1044
vn 0.9247 -0.3662 0.1044
vn 0.9247 -0.3661 0.1042
vn 0.8716 -0.4791 0.1042
vn 0.8715 -0.4792 0.1043
vn 0.8046 -0.5846 0.1044
vn 0.8046 -0.5846 0.1043
vn 0.7250 -0.6808 0.1043
vn 0.7250 -0.6808 0.1044
vn 0.6339 -0.7663 0.1044
vn 0.5328 -0.8397 0.1044
vn 0.5329 -0.8397 0.1043
vn 0.4234 -0.8999 0.1043
vn 0.4235 -0.8999 0.1043
vn 0.3073 -0.9459 0.1043
vn 0.3074 -0.9458 0.1042
vn 0.1863 -0.9769 0.1042
vn 0.1863 -0.9769 0.1043
vn 0.0625 -0.9926 0.1043
vn -0.0625 -0.9926 0.1043
vn -0.1863 -0.9769 0.1043
vn -0.1863 -0.9770 0.1042
vn -0.3073 -0.9459 0.1042
vn -0.3074 -0.9458 0.1043
vn -0.4234 -0.8999 0.1043
vn -0.4235 -0.8999 0.1043
vn -0.5328 -0.8398 0.1043
vn -0.5329 -0.8397 0.1044
vn -0.6339 -0.7663 0.1044
vn -0.7250 -0.6808 0.1044
vn -0.7250 -0.6808 0.1043
vn -0.8046 -0.5846 0.1043
vn -0.8715 -0.4791 0.1044
vn -0.8715 -0.4792 0.1042
vn -0.9247 -0.3662 0.1042
vn -0.9247 -0.3661 0.1044
vn -0.9633 -0.2473 0.1044
vn -0.9633 -0.2474 0.1043
vn -0.9867 -0.1246 0.1043
vn -0.9867 -0.1247 0.1042
vn -0.9946 -0.0000 0.1042
vn -0.9867 0.1246 0.1042
vn -0.9867 0.1247 0.1043
vn -0.9633 0.2473 0.1043
vn -0.9633 0.2474 0.1044
vn -0.9247 0.3662 0.1044
vn -0.9247 0.3661 0.1042
vn -0.8716 0.4791 0.1042
vn -0.8715 0.4792 0.1043
vn -0.8046 0.5846 0.1044
vn -0.8046 0.5846 0.1043
vn -0.7250 0.6808 0.1043
vn -0.7250 0.6808 0.1044
vn -0.6339 0.7663 0.1044
vn -0.5328 0.8397 0.1044
vn -0.5329 0.8397 0.1043
vn -0.4234 0.8999 0.1043
vn -0.4235 0.8999 0.1043
vn -0.3073 0.9459 0.1043
vn -0.3074 0.9458 0.1042
vn -0.1863 0.9769 0.1042
vn -0.1863 0.9769 0.1043
vn -0.0091 0.1444 -0.9895
vn -0.0000 0.2675 -0.9636
vn 0.0091 0.1444 -0.9895
vn 0.0185 0.2140 -0.9767
vn 0.0343 0.1969 -0.9798
vn 0.1005 0.5785 -0.8095
vn 0.1008 0.5793 -0.8088
vn 0.1485 0.8533 -0.4998
vn 0.1481 0.8526 -0.5012
vn 0.1708 0.9832 -0.0645
vn 0.1794 0.9402 0.2896
vn -0.0277 0.1457 -0.9889
vn -0.0343 0.1969 -0.9798
vn -0.0185 0.2140 -0.9767
vn -0.0504 0.5849 -0.8096
vn -0.0506 0.5853 -0.8092
vn -0.0744 0.8631 -0.4996
vn -0.0744 0.8626 -0.5004
vn -0.0851 0.9868 -0.1377
vn -0.0596 0.9447 0.3225
vn -0.0678 0.2554 -0.9645
vn -0.0437 0.1347 -0.9899
vn -0.0774 0.2155 -0.9734
vn -0.0770 0.1681 -0.9828
vn -0.2448 0.5338 -0.8094
vn -0.2903 0.5109 -0.8092
vn -0.4265 0.7510 -0.5040
vn -0.4896 0.7115 -0.5040
vn -0.5491 0.7986 -0.2465
vn -0.6310 0.7671 0.1154
vn -0.6270 0.7577 0.1808
vn -0.6726 0.6875 -0.2738
vn -0.6796 0.6376 0.3628
vn -0.7280 0.6259 -0.2798
vn -0.7931 0.5758 0.1986
vn -0.8083 0.5819 0.0896
vn -0.8340 0.4982 -0.2370
vn -0.7453 0.4446 -0.4968
vn -0.7436 0.4442 -0.4998
vn -0.5045 0.3006 -0.8094
vn -0.5045 0.3008 -0.8093
vn -0.2052 0.1219 -0.9711
vn -0.1229 0.0677 -0.9901
vn -0.0657 0.1395 -0.9880
vn -0.1283 0.2251 -0.9658
vn -0.2905 0.5120 -0.8084
vn -0.3338 0.4851 -0.8083
vn -0.4913 0.7142 -0.4985
vn -0.5511 0.6693 -0.4983
vn -0.0749 0.1183 -0.9901
vn -0.1371 0.1994 -0.9703
vn -0.3322 0.4831 -0.8101
vn -0.3731 0.4528 -0.8098
vn -0.5510 0.6698 -0.4978
vn -0.6067 0.6199 -0.4977
vn -0.1084 0.1317 -0.9853
vn -0.1029 0.1245 -0.9869
vn -0.1754 0.1788 -0.9681
vn -0.1017 0.0958 -0.9902
vn -0.1921 0.1651 -0.9674
vn -0.1285 0.0939 -0.9873
vn -0.1413 0.1013 -0.9848
vn -0.2366 0.1143 -0.9649
vn -0.1420 0.0563 -0.9883
vn -0.1764 0.0675 -0.9820
vn -0.2175 0.0623 -0.9741
vn -0.5628 0.1621 -0.8105
vn -0.5756 0.1128 -0.8099
vn -0.8513 0.1670 -0.4974
vn -0.8625 0.0933 -0.4974
vn -0.9907 0.1070 -0.0836
vn -0.9925 0.0214 -0.1206
vn -0.9487 -0.0000 0.3162
vn -0.9461 -0.0612 -0.3180
vn -0.9364 -0.1181 0.3304
vn -0.9768 -0.1483 -0.1545
vn -0.9711 -0.2345 -0.0446
vn -0.8422 -0.2031 -0.4995
vn -0.8418 -0.2031 -0.5002
vn -0.5715 -0.1378 -0.8090
vn -0.5700 -0.1378 -0.8100
vn -0.1903 -0.0458 -0.9807
vn -0.1447 -0.0373 -0.9888
vn -0.1372 0.0354 -0.9899
vn -0.2614 0.0510 -0.9639
vn -0.5745 0.1128 -0.8107
vn -0.5829 0.0628 -0.8101
vn -0.8607 0.0929 -0.5006
vn -0.8657 0.0186 -0.5003
vn -0.1461 0.0185 -0.9891
vn -0.2022 0.0219 -0.9791
vn -0.5842 0.0630 -0.8091
vn -0.5870 0.0126 -0.8095
vn -0.8658 0.0186 -0.5000
vn -0.8641 -0.0559 -0.5002
vn -0.2118 0.0046 -0.9773
vn -0.1451 -0.0000 -0.9894
vn -0.2662 -0.0172 -0.9638
vn -0.1425 -0.0180 -0.9896
vn -0.2147 -0.0326 -0.9761
vn -0.2515 -0.0838 -0.9642
vn -0.1316 -0.0520 -0.9899
vn -0.2141 -0.0926 -0.9724
vn -0.1601 -0.0863 -0.9833
vn -0.5157 -0.2786 -0.8102
vn -0.4903 -0.3219 -0.8100
vn -0.7244 -0.4755 -0.4991
vn -0.6810 -0.5358 -0.4991
vn -0.7592 -0.5983 -0.2563
vn -0.7223 -0.6767 0.1422
vn -0.7194 -0.6750 0.1639
vn -0.6442 -0.7176 -0.2648
vn -0.5940 -0.7176 0.3638
vn -0.5756 -0.7650 -0.2888
vn -0.5239 -0.8252 0.2110
vn -0.5298 -0.8454 0.0674
vn -0.4441 -0.8676 -0.2239
vn -0.3951 -0.7719 -0.4980
vn -0.3951 -0.7712 -0.4992
vn -0.2681 -0.5233 -0.8089
vn -0.2674 -0.5227 -0.8095
vn -0.1077 -0.2089 -0.9720
vn -0.0596 -0.1273 -0.9901
vn -0.1365 -0.0752 -0.9878
vn -0.2159 -0.1411 -0.9662
vn -0.4904 -0.3220 -0.8098
vn -0.4613 -0.3630 -0.8096
vn -0.6817 -0.5362 -0.4977
vn -0.6321 -0.5934 -0.4984
vn -0.1128 -0.0823 -0.9902
vn -0.1931 -0.1517 -0.9694
vn -0.4603 -0.3626 -0.8104
vn -0.4276 -0.4008 -0.8103
vn -0.6320 -0.5924 -0.4997
vn -0.5785 -0.6446 -0.4998
vn -0.1220 -0.1143 -0.9859
vn -0.1192 -0.1123 -0.9865
vn -0.1660 -0.1845 -0.9687
vn -0.0886 -0.1079 -0.9902
vn -0.1538 -0.2039 -0.9668
vn -0.0840 -0.1332 -0.9875
vn -0.0941 -0.1500 -0.9842
vn -0.0992 -0.2430 -0.9649
vn -0.0466 -0.1438 -0.9885
vn -0.0571 -0.1830 -0.9815
vn -0.0474 -0.2160 -0.9753
vn -0.1257 -0.5753 -0.8082
vn -0.0758 -0.5840 -0.8082
vn -0.1114 -0.8580 -0.5014
vn -0.0371 -0.8644 -0.5013
vn -0.0427 -0.9935 -0.1056
vn 0.0427 -0.9935 -0.1056
vn 0.0599 -0.9496 0.3076
vn 0.1220 -0.9408 -0.3164
vn 0.1764 -0.9245 0.3380
vn 0.2104 -0.9628 -0.1696
vn 0.2967 -0.9547 -0.0231
vn 0.2566 -0.8259 -0.5019
vn 0.2573 -0.8289 -0.4967
vn 0.1750 -0.5628 -0.8079
vn 0.1737 -0.5594 -0.8105
vn 0.0571 -0.1830 -0.9815
vn 0.0466 -0.1438 -0.9885
vn -0.0266 -0.1402 -0.9898
vn -0.0345 -0.2636 -0.9640
vn -0.0757 -0.5839 -0.8083
vn -0.0253 -0.5882 -0.8083
vn -0.0373 -0.8653 -0.4999
vn 0.0372 -0.8653 -0.4999
vn -0.0091 -0.1460 -0.9892
vn -0.0089 -0.2074 -0.9782
vn -0.0253 -0.5872 -0.8090
vn 0.0253 -0.5872 -0.8090
vn 0.0373 -0.8645 -0.5013
vn 0.1113 -0.8581 -0.5013
vn 0.0089 -0.2074 -0.9782
vn 0.0091 -0.1460 -0.9892
vn 0.0344 -0.2636 -0.9640
vn 0.0267 -0.1402 -0.9898
vn 0.0474 -0.2160 -0.9752
vn 0.0994 -0.2430 -0.9649
vn 0.0596 -0.1273 -0.9901
vn 0.1077 -0.2089 -0.9720
vn 0.0940 -0.1500 -0.9842
vn 0.3116 -0.4974 -0.8096
vn 0.3533 -0.4689 -0.8095
vn 0.5207 -0.6908 -0.5016
vn 0.5777 -0.6438 -0.5017
vn 0.6442 -0.7176 -0.2648
vn 0.7194 -0.6750 0.1640
vn 0.7223 -0.6767 0.1422
vn 0.7593 -0.5982 -0.2563
vn 0.6815 -0.5364 -0.4978
vn 0.6813 -0.5356 -0.4990
vn 0.4606 -0.3625 -0.8102
vn 0.4610 -0.3631 -0.8097
vn 0.1931 -0.1517 -0.9694
vn 0.1130 -0.0823 -0.9902
vn 0.0842 -0.1332 -0.9875
vn 0.1541 -0.2038 -0.9668
vn 0.3529 -0.4689 -0.8097
vn 0.3926 -0.4367 -0.8095
vn 0.5787 -0.6446 -0.4997
vn 0.6317 -0.5925 -0.4999
vn 0.0889 -0.1079 -0.9902
vn 0.1660 -0.1845 -0.9687
vn 0.3918 -0.4369 -0.8097
vn 0.4288 -0.4015 -0.8093
vn 0.6326 -0.5931 -0.4981
vn 0.1187 -0.1123 -0.9866
vn 0.1223 -0.1143 -0.9859
vn 0.4272 -0.4009 -0.8104
vn 0.2156 -0.1411 -0.9662
vn 0.1364 -0.0752 -0.9878
vn 0.1603 -0.0863 -0.9833
vn 0.2144 -0.0926 -0.9724
vn 0.5375 -0.2334 -0.8103
vn 0.5568 -0.1861 -0.8096
vn 0.8210 -0.2747 -0.5006
vn 0.8419 -0.2030 -0.5001
vn 0.9711 -0.2345 -0.0446
vn 0.9768 -0.1483 -0.1545
vn 0.9365 -0.1181 0.3303
vn 0.9461 -0.0612 -0.3180
vn 0.9487 -0.0000 0.3162
vn 0.9925 0.0214 -0.1206
vn 0.9908 0.1069 -0.0836
vn 0.8604 0.0931 -0.5010
vn 0.8628 0.0930 -0.4970
vn 0.5837 0.0629 -0.8095
vn 0.5834 0.0628 -0.8097
vn 0.2022 0.0219 -0.9791
vn 0.1461 0.0185 -0.9891
vn 0.1314 -0.0520 -0.9900
vn 0.2515 -0.0838 -0.9642
vn 0.5561 -0.1862 -0.8100
vn 0.5708 -0.1376 -0.8095
vn 0.8421 -0.2032 -0.4996
vn 0.8565 -0.1299 -0.4996
vn 0.1447 -0.0373 -0.9888
vn 0.1903 -0.0458 -0.9807
vn 0.5707 -0.1380 -0.8095
vn 0.5815 -0.0881 -0.8088
vn 0.8570 -0.1301 -0.4986
vn 0.8652 -0.0559 -0.4983
vn 0.2149 -0.0326 -0.9761
vn 0.1425 -0.0180 -0.9896
vn 0.2662 -0.0172 -0.9638
vn 0.1451 -0.0000 -0.9894
vn 0.2120 0.0046 -0.9773
vn 0.2614 0.0510 -0.9639
vn 0.1372 0.0354 -0.9899
vn 0.2175 0.0623 -0.9741
vn 0.1764 0.0675 -0.9820
vn 0.5471 0.2096 -0.8104
vn 0.5276 0.2557 -0.8101
vn 0.7792 0.3786 -0.4995
vn 0.7438 0.4441 -0.4996
vn 0.8342 0.4980 -0.2369
vn 0.8083 0.5819 0.0896
vn 0.7931 0.5758 0.1986
vn 0.7280 0.6259 -0.2798
vn 0.6796 0.6376 0.3628
vn 0.6726 0.6875 -0.2738
vn 0.6271 0.7576 0.1808
vn 0.6310 0.7671 0.1154
vn 0.5490 0.7986 -0.2465
vn 0.4914 0.7141 -0.4985
vn 0.4895 0.7116 -0.5040
vn 0.3321 0.4832 -0.8101
vn 0.3338 0.4850 -0.8083
vn 0.1371 0.1994 -0.9703
vn 0.0747 0.1184 -0.9902
vn 0.1420 0.0563 -0.9883
vn 0.2366 0.1143 -0.9649
vn 0.5275 0.2565 -0.8099
vn 0.5056 0.3006 -0.8087
vn 0.7451 0.4447 -0.4970
vn 0.7044 0.5069 -0.4969
vn 0.1229 0.0677 -0.9901
vn 0.2052 0.1219 -0.9711
vn 0.5034 0.3008 -0.8100
vn 0.4765 0.3431 -0.8095
vn 0.7018 0.5053 -0.5021
vn 0.6559 0.5636 -0.5022
vn 0.1410 0.1013 -0.9848
vn 0.1285 0.0939 -0.9873
vn 0.1924 0.1651 -0.9673
vn 0.1017 0.0958 -0.9902
vn 0.1751 0.1788 -0.9682
vn 0.1029 0.1245 -0.9869
vn 0.1085 0.1317 -0.9853
vn 0.1283 0.2251 -0.9658
vn 0.0658 0.1395 -0.9880
vn 0.0770 0.1681 -0.9828
vn 0.0775 0.2155 -0.9734
vn 0.1980 0.5521 -0.8100
vn 0.1497 0.5670 -0.8100
vn 0.2207 0.8368 -0.5011
vn 0.0436 0.1347 -0.9899
vn 0.0678 0.2554 -0.9645
vn 0.1500 0.5685 -0.8089
vn 0.0277 0.1457 -0.9889
vn -0.0000 0.9473 -0.3202
vn 0.0596 0.9447 0.3225
vn 0.0851 0.9868 -0.1377
vn 0.2425 0.9181 -0.3135
vn 0.2900 0.8920 0.3467
vn 0.3307 0.9228 -0.1975
vn 0.4168 0.9087 0.0218
vn 0.3617 0.7876 -0.4989
vn 0.4278 0.7535 -0.4992
vn 0.2909 0.5119 -0.8083
vn 0.4132 0.8781 0.2411
vn 0.4710 0.8302 -0.2981
vn 0.4262 0.7512 -0.5041
vn 0.4996 0.7869 0.3621
vn 0.8187 0.4496 0.3571
vn 0.8573 0.4165 -0.3026
vn 0.7796 0.3781 -0.4993
vn 0.8092 0.3099 -0.4992
vn 0.5470 0.2096 -0.8105
vn 0.5622 0.1619 -0.8110
vn 0.8990 0.3559 0.2553
vn 0.9338 0.3578 -0.0040
vn 0.8101 0.3101 -0.4976
vn 0.8338 0.2393 -0.4975
vn 0.5642 0.1619 -0.8096
vn 0.5748 0.1129 -0.8105
vn 0.9442 0.2715 -0.1865
vn 0.9102 0.2334 0.3422
vn 0.9307 0.1824 -0.3170
vn 0.9475 0.1195 0.2965
vn 0.9310 -0.2389 0.2761
vn 0.9007 -0.3014 -0.3129
vn 0.8218 -0.2748 -0.4992
vn 0.7952 -0.3443 -0.4991
vn 0.5381 -0.2325 -0.8102
vn 0.5143 -0.2782 -0.8112
vn 0.8709 -0.3445 0.3505
vn 0.8969 -0.3889 -0.2104
vn 0.7958 -0.3450 -0.4977
vn 0.7633 -0.4122 -0.4975
vn 0.5167 -0.2785 -0.8096
vn 0.4899 -0.3220 -0.8101
vn 0.8789 -0.4750 0.0450
vn 0.8538 -0.4689 0.2261
vn 0.7988 -0.5243 -0.2950
vn 0.7547 -0.5480 0.3606
vn 0.5940 -0.7176 0.3638
vn 0.5757 -0.7650 -0.2888
vn 0.5213 -0.6929 -0.4982
vn 0.4604 -0.7349 -0.4979
vn 0.3120 -0.4983 -0.8089
vn 0.2677 -0.5234 -0.8090
vn 0.5239 -0.8252 0.2110
vn 0.5296 -0.8455 0.0675
vn 0.4602 -0.7350 -0.4979
vn 0.3954 -0.7718 -0.4979
vn 0.2681 -0.5226 -0.8093
vn 0.2215 -0.5438 -0.8095
vn 0.4445 -0.8674 -0.2238
vn 0.3979 -0.8456 0.3557
vn 0.3595 -0.8811 -0.3074
vn 0.2981 -0.9168 0.2659
vn -0.0599 -0.9496 0.3076
vn -0.1220 -0.9408 -0.3164
vn -0.1114 -0.8577 -0.5019
vn -0.1847 -0.8449 -0.5020
vn -0.1261 -0.5756 -0.8079
vn -0.1747 -0.5628 -0.8079
vn -0.1764 -0.9245 0.3380
vn -0.2104 -0.9628 -0.1696
vn -0.1847 -0.8450 -0.5018
vn -0.2564 -0.8260 -0.5019
vn -0.1738 -0.5594 -0.8105
vn -0.2210 -0.5424 -0.8105
vn -0.2967 -0.9547 -0.0231
vn -0.2981 -0.9168 0.2659
vn -0.3595 -0.8811 -0.3074
vn -0.3979 -0.8456 0.3557
vn -0.7547 -0.5480 0.3606
vn -0.7987 -0.5244 -0.2951
vn -0.7245 -0.4760 -0.4986
vn -0.7627 -0.4119 -0.4985
vn -0.5154 -0.2780 -0.8106
vn -0.5364 -0.2329 -0.8112
vn -0.8538 -0.4689 0.2261
vn -0.8789 -0.4749 0.0450
vn -0.7636 -0.4120 -0.4973
vn -0.7961 -0.3447 -0.4974
vn -0.5391 -0.2331 -0.8093
vn -0.5560 -0.1862 -0.8100
vn -0.8970 -0.3888 -0.2103
vn -0.8709 -0.3445 0.3505
vn -0.9007 -0.3014 -0.3129
vn -0.9310 -0.2388 0.2761
vn -0.9475 0.1196 0.2966
vn -0.9307 0.1824 -0.3170
vn -0.8499 0.1665 -0.5000
vn -0.8325 0.2389 -0.4999
vn -0.5636 0.1617 -0.8101
vn -0.5467 0.2096 -0.8107
vn -0.9102 0.2334 0.3422
vn -0.9441 0.2716 -0.1866
vn -0.8336 0.2395 -0.4977
vn -0.8100 0.3102 -0.4976
vn -0.5474 0.2095 -0.8102
vn -0.5260 0.2560 -0.8111
vn -0.9338 0.3579 -0.0041
vn -0.8990 0.3559 0.2553
vn -0.8573 0.4165 -0.3026
vn -0.8187 0.4496 0.3571
vn -0.4996 0.7869 0.3621
vn -0.4710 0.8302 -0.2981
vn -0.4276 0.7536 -0.4992
vn -0.3615 0.7876 -0.4989
vn -0.2454 0.5337 -0.8093
vn -0.1980 0.5528 -0.8095
vn -0.4132 0.8781 0.2411
vn -0.4169 0.9087 0.0218
vn -0.3616 0.7869 -0.5000
vn -0.2925 0.8153 -0.4998
vn -0.1981 0.5520 -0.8100
vn -0.1494 0.5671 -0.8100
vn -0.3306 0.9229 -0.1975
vn -0.2900 0.8920 0.3467
vn -0.2425 0.9181 -0.3135
vn -0.1794 0.9402 0.2896
vn -0.1708 0.9832 -0.0645
vn 0.0253 -0.5882 -0.8084
vn -0.0000 0.5874 -0.8093
vn -0.0000 0.5875 -0.8093
vn 0.0505 0.5853 -0.8092
vn 0.0505 0.5848 -0.8096
vn -0.0000 0.8658 -0.5003
vn -0.0000 0.8659 -0.5002
vn 0.0743 0.8626 -0.5004
vn 0.0744 0.8630 -0.4996
vn -0.1483 0.8533 -0.4998
vn -0.1007 0.5785 -0.8095
vn -0.1007 0.5794 -0.8088
vn -0.1503 0.5685 -0.8088
vn -0.2211 0.8385 -0.4980
vn -0.2210 0.8367 -0.5011
vn -0.1483 0.8525 -0.5012
vn -0.2927 0.8164 -0.4978
vn -0.4105 0.4194 -0.8097
vn -0.4108 0.4191 -0.8097
vn -0.3722 0.4532 -0.8100
vn -0.6568 0.5645 -0.4999
vn -0.6057 0.6190 -0.5000
vn -0.4453 0.3825 -0.8096
vn -0.4454 0.3832 -0.8092
vn -0.4771 0.3434 -0.8090
vn -0.4762 0.3431 -0.8096
vn -0.7022 0.5049 -0.5019
vn -0.6555 0.5638 -0.5024
vn -0.7040 0.5073 -0.4971
vn -0.7798 0.3782 -0.4989
vn -0.7788 0.3787 -0.5000
vn -0.5291 0.2563 -0.8089
vn -0.8092 0.3099 -0.4992
vn -0.5869 0.0127 -0.8096
vn -0.5867 -0.0378 -0.8089
vn -0.8653 -0.0558 -0.4982
vn -0.8569 -0.1301 -0.4987
vn -0.5840 -0.0378 -0.8108
vn -0.5795 -0.0878 -0.8102
vn -0.8564 -0.1300 -0.4997
vn -0.5807 -0.0881 -0.8093
vn -0.5568 -0.1861 -0.8095
vn -0.8211 -0.2746 -0.5004
vn -0.8216 -0.2748 -0.4994
vn -0.7950 -0.3445 -0.4993
vn -0.3919 -0.4368 -0.8097
vn -0.3926 -0.4367 -0.8094
vn -0.4288 -0.4015 -0.8093
vn -0.5204 -0.6910 -0.5017
vn -0.5779 -0.6438 -0.5016
vn -0.3533 -0.4688 -0.8096
vn -0.3531 -0.4689 -0.8096
vn -0.3117 -0.4974 -0.8096
vn -0.3117 -0.4983 -0.8090
vn -0.4601 -0.7351 -0.4980
vn -0.5217 -0.6927 -0.4981
vn -0.4604 -0.7349 -0.4979
vn -0.3271 -0.8025 -0.4990
vn -0.3274 -0.8037 -0.4968
vn -0.2222 -0.5437 -0.8094
vn -0.2576 -0.8288 -0.4967
vn 0.0758 -0.5839 -0.8083
vn 0.0758 -0.5840 -0.8082
vn 0.1261 -0.5752 -0.8082
vn 0.1258 -0.5756 -0.8080
vn 0.1848 -0.8449 -0.5020
vn 0.1113 -0.8577 -0.5020
vn 0.1845 -0.8451 -0.5018
vn 0.2217 -0.5423 -0.8104
vn 0.3274 -0.8037 -0.4968
vn 0.3273 -0.8024 -0.4990
vn 0.3949 -0.7712 -0.4993
vn 0.7242 -0.4757 -0.4993
vn 0.7245 -0.4759 -0.4985
vn 0.4907 -0.3220 -0.8096
vn 0.7628 -0.4119 -0.4985
vn 0.5786 -0.0878 -0.8109
vn 0.5847 -0.0377 -0.8104
vn 0.8643 -0.0557 -0.4998
vn 0.8660 0.0186 -0.4997
vn 0.5861 -0.0380 -0.8093
vn 0.5884 0.0126 -0.8085
vn 0.8655 0.0186 -0.5006
vn 0.5857 0.0127 -0.8105
vn 0.5750 0.1127 -0.8103
vn 0.8513 0.1669 -0.4974
vn 0.8497 0.1668 -0.5002
vn 0.8323 0.2392 -0.5002
vn 0.4448 0.3826 -0.8098
vn 0.4459 0.3830 -0.8090
vn 0.4767 0.3435 -0.8092
vn 0.6059 0.6189 -0.4998
vn 0.6565 0.5647 -0.5001
vn 0.4111 0.4193 -0.8094
vn 0.4102 0.4192 -0.8099
vn 0.3728 0.4530 -0.8098
vn 0.3725 0.4529 -0.8100
vn 0.5513 0.6696 -0.4977
vn 0.6065 0.6199 -0.4978
vn 0.5508 0.6695 -0.4984
vn 0.2898 0.5110 -0.8093
vn 0.2455 0.5338 -0.8092
vn 0.3614 0.7870 -0.5000
vn 0.2924 0.8153 -0.4998
vn 0.1982 0.5527 -0.8095
vn 0.2926 0.8164 -0.4978
vn 0.2215 0.8384 -0.4980
vn 0.2447 0.5338 -0.8094
s 0
f 51//1 52//1 53//1
f 53//1 52//1 54//1
f 53//1 54//1 55//1
f 55//1 54//1 56//1
f 55//1 56//1 57//1
f 57//1 56//1 58//1
f 57//1 58//1 59//1
f 59//1 58//1 60//1
f 59//1 60//1 61//1
f 61//1 60//1 62//1
f 61//1 62//1 63//1
f 63//1 62//1 64//1
f 63//1 64//1 65//1
f 65//1 64//1 66//1
f 65//2 66//2 67//2
f 67//3 66//3 68//3
f 67//1 68//1 69//1
f 69//1 68//1 70//1
f 69//1 70//1 71//1
f 71//1 70//1 72//1
f 71//1 72//1 73//1
f 73//1 72//1 74//1
f 73//1 74//1 75//1
f 75//1 74//1 76//1
f 75//1 76//1 77//1
f 52//1 51//1 78//1
f 78//1 51//1 79//1
f 78//1 79//1 80//1
f 80//1 79//1 81//1
f 80//1 81//1 82//1
f 82//1 81//1 83//1
f 82//1 83//1 84//1
f 84//1 83//1 85//1
f 84//1 85//1 86//1
f 86//1 85//1 87//1
f 86//3 87//3 88//3
f 88//2 87//2 89//2
f 88//1 89//1 90//1
f 90//1 89//1 91//1
f 90//1 91//1 92//1
f 92//1 91//1 93//1
f 92//1 93//1 94//1
f 94//1 93//1 95//1
f 94//1 95//1 96//1
f 96//1 95//1 97//1
f 96//1 97//1 98//1
f 99//4 51//4 100//4
f 100//4 51//4 53//4
f 100//5 53//5 101//5
f 101//5 53//5 55//5
f 101//6 55//6 102//6
f 102//6 55//6 57//6
f 102//7 57//7 103//7
f 103//7 57//7 59//7
f 103//8 59//8 104//8
f 104//8 59//8 61//8
f 104//9 61//9 105//9
f 105//9 61//9 63//9
f 105//10 63//10 106//10
f 106//10 63//10 65//10
f 106//11 65//11 107//11
f 107//11 65//11 67//11
f 107//12 67//12 108//12
f 108//12 67//12 69//12
f 108//13 69//13 109//13
f 109//13 69//13 71//13
f 109//14 71//14 110//14
f 110//14 71//14 73//14
f 110//15 73//15 111//15
f 111//15 73//15 75//15
f 111//16 75//16 112//16
f 112//16 75//16 77//16
f 112//17 77//17 113//17
f 113//17 77//17 76//17
f 113//18 76//18 114//18
f 114//18 76//18 74//18
f 114//19 74//19 115//19
f 115//19 74//19 72//19
f 115//20 72//20 116//20
f 116//20 72//20 70//20
f 116//21 70//21 117//21
f 117//21 70//21 68//21
f 117//22 68//22 118//22
f 118//22 68//22 66//22
f 118//23 66//23 119//23
f 119//23 66//23 64//23
f 119//24 64//24 120//24
f 120//24 64//24 62//24
f 120//25 62//25 121//25
f 121//25 62//25 60//25
f 121//26 60//26 122//26
f 122//26 60//26 58//26
f 122//27 58//27 123//27
f 123//27 58//27 56//27
f 123//28 56//28 124//28
f 124//28 56//28 54//28
f 124//29 54//29 125//29
f 125//29 54//29 52//29
f 125//30 52//30 126//30
f 126//30 52//30 78//30
f 126//31 78//31 127//31
f 127//31 78//31 80//31
f 127//32 80//32 128//32
f 128//32 80//32 82//32
f 128//33 82//33 129//33
f 129//33 82//33 84//33
f 129//34 84//34 130//34
f 130//34 84//34 86//34
f 130//35 86//35 131//35
f 131//35 86//35 88//35
f 131//36 88//36 132//36
f 132//36 88//36 90//36
f 132//37 90//37 133//37
f 133//37 90//37 92//37
f 133//38 92//38 134//38
f 134//38 92//38 94//38
f 134//39 94//39 135//39
f 135//39 94//39 96//39
f 135//40 96//40 136//40
f 136//40 96//40 98//40
f 136//41 98//41 137//41
f 137//41 98//41 97//41
f 137//42 97//42 138//42
f 138//42 97//42 95//42
f 138//43 95//43 139//43
f 139//43 95//43 93//43
f 139//44 93//44 140//44
f 140//44 93//44 91//44
f 140//45 91//45 141//45
f 141//45 91//45 89//45
f 141//46 89//46 142//46
f 142//46 89//46 87//46
f 142//47 87//47 143//47
f 143//47 87//47 85//47
f 143//48 85//48 144//48
f 144//48 85//48 83//48
f 144//49 83//49 145//49
f 145//49 83//49 81//49
f 145//50 81//50 146//50
f 146//50 81//50 79//50
f 146//51 79//51 99//51
f 99//51 79//51 51//51
f 147//1 148//1 100//1
f 100//1 148//1 149//1
f 100//1 149//1 99//1
f 99//1 149//1 150//1
f 99//1 150//1 146//1
f 146//1 150//1 151//1
f 146//1 151//1 145//1
f 145//1 151//1 152//1
f 145//1 152//1 144//1
f 144//1 152//1 153//1
f 144//1 153//1 143//1
f 143//1 153//1 154//1
f 143//1 154//1 142//1
f 142//1 154//1 155//1
f 142//2 155//2 141//2
f 141//3 155//3 156//3
f 141//1 156//1 140//1
f 140//1 156//1 157//1
f 140//2 157//2 139//2
f 139//1 157//1 158//1
f 139//1 158//1 138//1
f 138//3 158//3 159//3
f 138//1 159//1 137//1
f 137//1 159//1 160//1
f 137//1 160//1 136//1
f 136//1 160//1 161//1
f 136//1 161//1 135//1
f 135//1 161//1 162//1
f 135//1 162//1 134//1
f 134//3 162//3 163//3
f 134//1 163//1 133//1
f 133//1 163//1 164//1
f 133//1 164//1 132//1
f 132//1 164//1 165//1
f 132//1 165//1 131//1
f 131//3 165//3 166//3
f 131//1 166//1 130//1
f 130//1 166//1 167//1
f 130//1 167//1 129//1
f 129//1 167//1 168//1
f 129//1 168//1 128//1
f 128//1 168//1 169//1
f 128//1 169//1 127//1
f 127//1 169//1 170//1
f 127//1 170//1 126//1
f 126//1 170//1 171//1
f 126//1 171//1 125//1
f 125//1 171//1 172//1
f 125//1 172//1 124//1
f 124//1 172//1 173//1
f 124//1 173//1 174//1
f 124//1 174//1 123//1
f 123//1 174//1 175//1
f 123//1 175//1 122//1
f 122//1 175//1 176//1
f 122//1 176//1 121//1
f 121//1 176//1 177//1
f 121//1 177//1 120//1
f 120//1 177//1 178//1
f 120//1 178//1 119//1
f 119//1 178//1 179//1
f 119//1 179//1 118//1
f 118//1 179//1 180//1
f 118//3 180//3 117//3
f 117//2 180//2 181//2
f 117//1 181//1 116//1
f 116//1 181//1 182//1
f 116//3 182//3 115//3
f 115//1 182//1 183//1
f 115//1 183//1 114//1
f 114//2 183//2 184//2
f 114//1 184//1 113//1
f 113//1 184//1 185//1
f 113//1 185//1 112//1
f 112//1 185//1 186//1
f 112//1 186//1 111//1
f 111//1 186//1 187//1
f 111//1 187//1 110//1
f 110//2 187//2 188//2
f 110//1 188//1 109//1
f 109//1 188//1 189//1
f 109//1 189//1 108//1
f 108//1 189//1 190//1
f 108//1 190//1 107//1
f 107//2 190//2 191//2
f 107//1 191//1 106//1
f 106//1 191//1 192//1
f 106//1 192//1 105//1
f 105//1 192//1 193//1
f 105//1 193//1 104//1
f 104//1 193//1 194//1
f 104//1 194//1 103//1
f 103//1 194//1 195//1
f 103//1 195//1 102//1
f 102//1 195//1 196//1
f 102//1 196//1 101//1
f 101//1 196//1 147//1
f 101//1 147//1 100//1
f 197//52 149//52 198//52
f 198//52 149//52 148//52
f 198//53 148//53 199//53
f 199//53 148//53 147//53
f 199//54 147//54 200//54
f 200//55 147//55 196//55
f 200//56 196//56 201//56
f 201//57 196//57 195//57
f 201//58 195//58 202//58
f 202//59 195//59 194//59
f 202//60 194//60 203//60
f 203//61 194//61 193//61
f 203//62 193//62 204//62
f 204//62 193//62 192//62
f 204//63 192//63 205//63
f 205//64 192//64 191//64
f 205//65 191//65 206//65
f 206//65 191//65 190//65
f 206//66 190//66 207//66
f 207//67 190//67 189//67
f 207//68 189//68 208//68
f 208//69 189//69 188//69
f 208//70 188//70 209//70
f 209//71 188//71 187//71
f 209//72 187//72 210//72
f 210//73 187//73 186//73
f 210//74 186//74 211//74
f 211//74 186//74 185//74
f 211//75 185//75 212//75
f 212//76 185//76 184//76
f 212//77 184//77 213//77
f 213//78 184//78 183//78
f 213//79 183//79 214//79
f 214//80 183//80 182//80
f 214//81 182//81 215//81
f 215//82 182//82 181//82
f 215//83 181//83 216//83
f 216//84 181//84 180//84
f 216//85 180//85 217//85
f 217//86 180//86 179//86
f 217//87 179//87 218//87
f 218//87 179//87 178//87
f 218//88 178//88 219//88
f 219//89 178//89 177//89
f 219//90 177//90 220//90
f 220//91 177//91 176//91
f 220//92 176//92 221//92
f 221//93 176//93 175//93
f 221//94 175//94 222//94
f 222//95 175//95 174//95
f 222//96 174//96 223//96
f 223//96 174//96 173//96
f 223//97 173//97 224//97
f 224//97 173//97 172//97
f 224//98 172//98 225//98
f 225//99 172//99 171//99
f 225//100 171//100 226//100
f 226//101 171//101 170//101
f 226//102 170//102 227//102
f 227//103 170//103 169//103
f 227//104 169//104 228//104
f 228//105 169//105 168//105
f 228//106 168//106 229//106
f 229//106 168//106 167//106
f 229//107 167//107 230//107
f 230//108 167//108 166//108
f 230//109 166//109 231//109
f 231//109 166//109 165//109
f 231//110 165//110 232//110
f 232//111 165//111 164//111
f 232//112 164//112 233//112
f 233//113 164//113 163//113
f 233//114 163//114 234//114
f 234//115 163//115 162//115
f 234//116 162//116 235//116
f 235//117 162//117 161//117
f 235//118 161//118 236//118
f 236//118 161//118 160//118
f 236//119 160//119 237//119
f 237//120 160//120 159//120
f 237//121 159//121 238//121
f 238//122 159//122 158//122
f 238//123 158//123 239//123
f 239//124 158//124 157//124
f 239//125 157//125 240//125
f 240//126 157//126 156//126
f 240//127 156//127 241//127
f 241//128 156//128 155//128
f 241//129 155//129 242//129
f 242//130 155//130 154//130
f 242//131 154//131 243//131
f 243//131 154//131 153//131
f 243//132 153//132 244//132
f 244//133 153//133 152//133
f 244//134 152//134 245//134
f 245//135 152//135 151//135
f 245//136 151//136 246//136
f 246//137 151//137 150//137
f 246//138 150//138 197//138
f 197//139 150//139 149//139
f 7//140 247//140 8//140
f 8//141 247//141 248//141
f 8//142 248//142 9//142
f 9//143 248//143 249//143
f 9//144 249//144 250//144
f 250//145 249//145 251//145
f 250//146 251//146 252//146
f 252//147 251//147 253//147
f 252//148 253//148 254//148
f 254//149 253//149 199//149
f 254//150 199//150 200//150
f 6//151 255//151 7//151
f 7//152 255//152 256//152
f 7//153 256//153 247//153
f 247//154 256//154 257//154
f 247//155 257//155 258//155
f 258//156 257//156 259//156
f 258//157 259//157 260//157
f 260//158 259//158 197//158
f 260//159 197//159 198//159
f 255//160 6//160 261//160
f 261//161 6//161 5//161
f 261//162 5//162 262//162
f 262//163 5//163 263//163
f 262//164 263//164 264//164
f 264//165 263//165 265//165
f 264//166 265//166 266//166
f 266//167 265//167 267//167
f 266//168 267//168 243//168
f 243//169 267//169 268//169
f 243//170 268//170 242//170
f 242//171 268//171 269//171
f 242//172 269//172 241//172
f 241//173 269//173 270//173
f 241//174 270//174 240//174
f 240//175 270//175 271//175
f 240//176 271//176 272//176
f 272//177 271//177 273//177
f 272//178 273//178 274//178
f 274//179 273//179 275//179
f 274//180 275//180 276//180
f 276//181 275//181 50//181
f 276//182 50//182 49//182
f 5//183 4//183 263//183
f 263//184 4//184 277//184
f 263//185 277//185 265//185
f 265//186 277//186 278//186
f 265//187 278//187 267//187
f 267//188 278//188 268//188
f 4//189 3//189 277//189
f 277//190 3//190 279//190
f 277//191 279//191 278//191
f 278//192 279//192 280//192
f 278//193 280//193 268//193
f 268//194 280//194 269//194
f 279//195 3//195 281//195
f 281//196 3//196 2//196
f 281//197 2//197 282//197
f 282//198 2//198 1//198
f 282//199 1//199 283//199
f 283//200 1//200 50//200
f 283//201 50//201 275//201
f 276//202 49//202 284//202
f 284//203 49//203 48//203
f 284//204 48//204 285//204
f 285//205 48//205 286//205
f 285//206 286//206 287//206
f 287//207 286//207 288//207
f 287//208 288//208 289//208
f 289//209 288//209 290//209
f 289//210 290//210 236//210
f 236//211 290//211 291//211
f 236//212 291//212 235//212
f 235//213 291//213 292//213
f 235//214 292//214 234//214
f 234//215 292//215 293//215
f 234//216 293//216 294//216
f 294//217 293//217 295//217
f 294//218 295//218 296//218
f 296//219 295//219 297//219
f 296//220 297//220 298//220
f 298//221 297//221 44//221
f 298//222 44//222 43//222
f 48//223 47//223 286//223
f 286//224 47//224 299//224
f 286//225 299//225 288//225
f 288//226 299//226 300//226
f 288//227 300//227 290//227
f 290//228 300//228 291//228
f 47//229 46//229 299//229
f 299//230 46//230 301//230
f 299//231 301//231 300//231
f 300//232 301//232 302//232
f 300//233 302//233 291//233
f 291//234 302//234 292//234
f 301//235 46//235 303//235
f 303//236 46//236 45//236
f 303//237 45//237 304//237
f 304//238 45//238 44//238
f 304//239 44//239 297//239
f 298//240 43//240 305//240
f 305//241 43//241 42//241
f 305//242 42//242 306//242
f 306//243 42//243 307//243
f 306//244 307//244 308//244
f 308//245 307//245 309//245
f 308//246 309//246 310//246
f 310//247 309//247 311//247
f 310//248 311//248 230//248
f 230//249 311//249 312//249
f 230//250 312//250 229//250
f 229//251 312//251 313//251
f 229//252 313//252 228//252
f 228//253 313//253 314//253
f 228//254 314//254 227//254
f 227//255 314//255 315//255
f 227//256 315//256 316//256
f 316//257 315//257 317//257
f 316//258 317//258 318//258
f 318//259 317//259 319//259
f 318//260 319//260 320//260
f 320//261 319//261 37//261
f 320//262 37//262 36//262
f 42//263 41//263 307//263
f 307//264 41//264 321//264
f 307//265 321//265 309//265
f 309//266 321//266 322//266
f 309//267 322//267 311//267
f 311//268 322//268 312//268
f 41//269 40//269 321//269
f 321//270 40//270 323//270
f 321//271 323//271 322//271
f 322//272 323//272 324//272
f 322//273 324//273 312//273
f 312//274 324//274 313//274
f 323//275 40//275 325//275
f 325//276 40//276 39//276
f 325//277 39//277 326//277
f 326//278 39//278 38//278
f 326//279 38//279 327//279
f 327//280 38//280 37//280
f 327//281 37//281 319//281
f 320//282 36//282 328//282
f 328//283 36//283 35//283
f 328//284 35//284 329//284
f 329//285 35//285 330//285
f 329//286 330//286 331//286
f 331//287 330//287 332//287
f 331//288 332//288 333//288
f 333//289 332//289 334//289
f 333//290 334//290 223//290
f 223//291 334//291 335//291
f 223//292 335//292 222//292
f 222//293 335//293 336//293
f 222//294 336//294 221//294
f 221//295 336//295 337//295
f 221//296 337//296 338//296
f 338//297 337//297 339//297
f 338//298 339//298 340//298
f 340//299 339//299 341//299
f 340//300 341//300 342//300
f 342//301 341//301 31//301
f 342//302 31//302 30//302
f 35//303 34//303 330//303
f 330//304 34//304 343//304
f 330//305 343//305 332//305
f 332//306 343//306 344//306
f 332//307 344//307 334//307
f 334//308 344//308 335//308
f 34//309 33//309 343//309
f 343//310 33//310 345//310
f 343//311 345//311 344//311
f 344//312 345//312 346//312
f 344//313 346//313 335//313
f 335//314 346//314 336//314
f 345//315 33//315 347//315
f 347//316 33//316 32//316
f 347//317 32//317 348//317
f 348//318 32//318 31//318
f 348//319 31//319 341//319
f 342//320 30//320 349//320
f 349//321 30//321 29//321
f 349//322 29//322 350//322
f 350//323 29//323 351//323
f 350//324 351//324 352//324
f 352//325 351//325 353//325
f 352//326 353//326 354//326
f 354//327 353//327 355//327
f 354//328 355//328 217//328
f 217//329 355//329 216//329
f 216//330 355//330 356//330
f 216//331 356//331 357//331
f 357//332 356//332 358//332
f 357//333 358//333 359//333
f 359//334 358//334 360//334
f 359//335 360//335 361//335
f 361//336 360//336 26//336
f 361//337 26//337 25//337
f 29//338 28//338 351//338
f 351//339 28//339 362//339
f 351//340 362//340 353//340
f 353//341 362//341 363//341
f 353//342 363//342 355//342
f 355//343 363//343 356//343
f 28//344 27//344 362//344
f 362//345 27//345 364//345
f 362//346 364//346 363//346
f 363//347 364//347 358//347
f 363//348 358//348 356//348
f 27//349 26//349 364//349
f 364//350 26//350 360//350
f 364//351 360//351 358//351
f 361//352 25//352 365//352
f 365//353 25//353 24//353
f 365//354 24//354 366//354
f 366//355 24//355 367//355
f 366//356 367//356 368//356
f 368//357 367//357 369//357
f 368//358 369//358 370//358
f 370//359 369//359 371//359
f 370//360 371//360 212//360
f 212//361 371//361 372//361
f 212//362 372//362 211//362
f 211//363 372//363 373//363
f 211//364 373//364 210//364
f 210//365 373//365 374//365
f 210//366 374//366 375//366
f 375//367 374//367 376//367
f 375//368 376//368 377//368
f 377//369 376//369 378//369
f 377//370 378//370 379//370
f 379//371 378//371 20//371
f 379//372 20//372 19//372
f 24//373 23//373 367//373
f 367//374 23//374 380//374
f 367//375 380//375 369//375
f 369//376 380//376 381//376
f 369//377 381//377 371//377
f 371//378 381//378 372//378
f 23//379 22//379 380//379
f 380//380 22//380 382//380
f 380//381 382//381 381//381
f 381//382 382//382 383//382
f 381//383 383//383 372//383
f 372//384 383//384 373//384
f 382//385 22//385 384//385
f 384//386 22//386 21//386
f 384//387 21//387 385//387
f 385//388 21//388 20//388
f 385//389 20//389 378//389
f 379//390 19//390 386//390
f 386//391 19//391 18//391
f 386//392 18//392 387//392
f 387//393 18//393 388//393
f 387//394 388//394 389//394
f 389//395 388//395 390//395
f 389//396 390//396 391//396
f 391//397 390//397 392//397
f 391//398 392//398 206//398
f 206//399 392//399 393//399
f 206//400 393//400 205//400
f 205//401 393//401 394//401
f 205//402 394//402 204//402
f 204//403 394//403 395//403
f 204//404 395//404 203//404
f 203//405 395//405 396//405
f 203//406 396//406 397//406
f 397//407 396//407 398//407
f 397//408 398//408 399//408
f 399//409 398//409 400//409
f 399//410 400//410 401//410
f 401//411 400//411 13//411
f 401//412 13//412 12//412
f 18//413 17//413 388//413
f 388//414 17//414 402//414
f 388//415 402//415 390//415
f 390//416 402//416 403//416
f 390//417 403//417 392//417
f 392//418 403//418 393//418
f 17//419 16//419 402//419
f 402//420 16//420 404//420
f 402//421 404//421 403//421
f 403//422 404//422 405//422
f 403//423 405//423 393//423
f 393//424 405//424 394//424
f 404//425 16//425 406//425
f 406//426 16//426 15//426
f 406//427 15//427 407//427
f 407//428 15//428 14//428
f 407//429 14//429 408//429
f 408//430 14//430 13//430
f 408//431 13//431 400//431
f 401//432 12//432 409//432
f 409//433 12//433 11//433
f 409//434 11//434 410//434
f 410//435 11//435 411//435
f 410//436 411//436 412//436
f 412//437 411//437 252//437
f 412//438 252//438 254//438
f 11//439 10//439 411//439
f 411//440 10//440 250//440
f 411//441 250//441 252//441
f 10//442 9//442 250//442
f 260//443 198//443 413//443
f 413//444 198//444 199//444
f 413//445 199//445 253//445
f 254//446 200//446 414//446
f 414//447 200//447 201//447
f 414//448 201//448 415//448
f 415//449 201//449 416//449
f 415//450 416//450 417//450
f 417//451 416//451 399//451
f 417//452 399//452 401//452
f 201//453 202//453 416//453
f 416//454 202//454 397//454
f 416//455 397//455 399//455
f 202//456 203//456 397//456
f 206//457 207//457 391//457
f 391//458 207//458 418//458
f 391//459 418//459 389//459
f 389//460 418//460 419//460
f 389//461 419//461 387//461
f 387//462 419//462 386//462
f 207//463 208//463 418//463
f 418//464 208//464 420//464
f 418//465 420//465 419//465
f 419//466 420//466 421//466
f 419//467 421//467 386//467
f 386//468 421//468 379//468
f 420//469 208//469 422//469
f 422//470 208//470 209//470
f 422//471 209//471 375//471
f 375//472 209//472 210//472
f 212//473 213//473 370//473
f 370//474 213//474 423//474
f 370//475 423//475 368//475
f 368//476 423//476 424//476
f 368//477 424//477 366//477
f 366//478 424//478 365//478
f 213//479 214//479 423//479
f 423//480 214//480 425//480
f 423//481 425//481 424//481
f 424//482 425//482 426//482
f 424//483 426//483 365//483
f 365//484 426//484 361//484
f 425//485 214//485 427//485
f 427//486 214//486 215//486
f 427//487 215//487 357//487
f 357//488 215//488 216//488
f 217//489 218//489 354//489
f 354//490 218//490 428//490
f 354//491 428//491 352//491
f 352//492 428//492 429//492
f 352//493 429//493 350//493
f 350//494 429//494 349//494
f 218//495 219//495 428//495
f 428//496 219//496 430//496
f 428//497 430//497 429//497
f 429//498 430//498 431//498
f 429//499 431//499 349//499
f 349//500 431//500 342//500
f 430//501 219//501 432//501
f 432//502 219//502 220//502
f 432//503 220//503 338//503
f 338//504 220//504 221//504
f 223//505 224//505 333//505
f 333//506 224//506 433//506
f 333//507 433//507 331//507
f 331//508 433//508 434//508
f 331//509 434//509 329//509
f 329//510 434//510 328//510
f 224//511 225//511 433//511
f 433//512 225//512 435//512
f 433//513 435//513 434//513
f 434//514 435//514 436//514
f 434//515 436//515 328//515
f 328//516 436//516 320//516
f 435//517 225//517 437//517
f 437//518 225//518 226//518
f 437//519 226//519 316//519
f 316//520 226//520 227//520
f 230//521 231//521 310//521
f 310//522 231//522 438//522
f 310//523 438//523 308//523
f 308//524 438//524 439//524
f 308//525 439//525 306//525
f 306//526 439//526 305//526
f 231//527 232//527 438//527
f 438//528 232//528 440//528
f 438//529 440//529 439//529
f 439//530 440//530 441//530
f 439//531 441//531 305//531
f 305//532 441//532 298//532
f 440//533 232//533 442//533
f 442//534 232//534 233//534
f 442//535 233//535 294//535
f 294//536 233//536 234//536
f 236//537 237//537 289//537
f 289//538 237//538 443//538
f 289//539 443//539 287//539
f 287//540 443//540 444//540
f 287//541 444//541 285//541
f 285//542 444//542 284//542
f 237//543 238//543 443//543
f 443//544 238//544 445//544
f 443//545 445//545 444//545
f 444//546 445//546 446//546
f 444//547 446//547 284//547
f 284//548 446//548 276//548
f 445//549 238//549 447//549
f 447//550 238//550 239//550
f 447//551 239//551 272//551
f 272//552 239//552 240//552
f 243//553 244//553 266//553
f 266//554 244//554 448//554
f 266//555 448//555 264//555
f 264//556 448//556 449//556
f 264//557 449//557 262//557
f 262//558 449//558 261//558
f 244//559 245//559 448//559
f 448//560 245//560 450//560
f 448//561 450//561 449//561
f 449//562 450//562 451//562
f 449//563 451//563 261//563
f 261//564 451//564 255//564
f 450//565 245//565 452//565
f 452//566 245//566 246//566
f 452//567 246//567 453//567
f 453//568 246//568 197//568
f 453//569 197//569 259//569
f 346//570 345//570 347//570
f 247//571 258//571 248//571
f 248//572 258//572 454//572
f 248//573 454//573 249//573
f 249//574 454//574 251//574
f 258//575 260//575 454//575
f 454//576 260//576 413//576
f 454//577 413//577 251//577
f 251//578 413//578 253//578
f 453//579 259//579 257//579
f 257//580 256//580 455//580
f 455//581 256//581 255//581
f 455//582 255//582 451//582
f 451//583 452//583 455//583
f 455//584 452//584 453//584
f 455//585 453//585 257//585
f 452//586 451//586 450//586
f 282//587 456//587 281//587
f 281//588 456//588 280//588
f 281//589 280//589 279//589
f 270//590 269//590 456//590
f 456//591 269//591 280//591
f 456//592 282//592 457//592
f 457//593 282//593 283//593
f 457//594 283//594 273//594
f 273//595 283//595 275//595
f 271//596 270//596 457//596
f 457//597 270//597 456//597
f 271//598 457//598 273//598
f 447//599 272//599 274//599
f 447//600 274//600 446//600
f 446//601 274//601 276//601
f 445//602 447//602 446//602
f 301//603 303//603 302//603
f 302//604 303//604 458//604
f 302//605 458//605 292//605
f 292//606 458//606 293//606
f 303//607 304//607 458//607
f 458//608 304//608 295//608
f 458//609 295//609 293//609
f 297//610 295//610 304//610
f 296//611 298//611 441//611
f 294//612 296//612 442//612
f 442//613 296//613 441//613
f 442//614 441//614 440//614
f 326//615 459//615 325//615
f 325//616 459//616 324//616
f 325//617 324//617 323//617
f 314//618 313//618 459//618
f 459//619 313//619 324//619
f 459//620 326//620 460//620
f 460//621 326//621 327//621
f 460//622 327//622 317//622
f 317//623 327//623 319//623
f 315//624 314//624 460//624
f 460//625 314//625 459//625
f 315//626 460//626 317//626
f 437//627 316//627 318//627
f 437//628 318//628 436//628
f 436//629 318//629 320//629
f 435//630 437//630 436//630
f 346//631 347//631 461//631
f 461//632 347//632 348//632
f 461//633 348//633 339//633
f 339//634 348//634 341//634
f 337//635 336//635 461//635
f 461//636 336//636 346//636
f 337//637 461//637 339//637
f 340//638 342//638 431//638
f 338//639 340//639 432//639
f 432//640 340//640 431//640
f 432//641 431//641 430//641
f 427//642 357//642 359//642
f 427//643 359//643 426//643
f 426//644 359//644 361//644
f 425//645 427//645 426//645
f 382//646 384//646 383//646
f 383//647 384//647 462//647
f 383//648 462//648 373//648
f 373//649 462//649 374//649
f 384//650 385//650 462//650
f 462//651 385//651 376//651
f 462//652 376//652 374//652
f 378//653 376//653 385//653
f 377//654 379//654 421//654
f 375//655 377//655 422//655
f 422//656 377//656 421//656
f 422//657 421//657 420//657
f 407//658 463//658 406//658
f 406//659 463//659 405//659
f 406//660 405//660 404//660
f 395//661 394//661 463//661
f 463//662 394//662 405//662
f 463//663 407//663 464//663
f 464//664 407//664 408//664
f 464//665 408//665 398//665
f 398//666 408//666 400//666
f 396//667 395//667 464//667
f 464//668 395//668 463//668
f 396//669 464//669 398//669
f 401//670 409//670 417//670
f 417//671 409//671 465//671
f 417//672 465//672 415//672
f 415//673 465//673 414//673
f 410//674 412//674 465//674
f 465//675 412//675 414//675
f 414//676 412//676 254//676
f 409//677 410//677 465//677
