# Blender 4.2.3 LTS
# www.blender.org
o link_7__m2
v 0.015523 -0.002662 1.256000
v 0.015750 0.000000 1.256000
v 0.015523 0.002662 1.256000
v 0.014850 0.005247 1.256000
v 0.013750 0.007681 1.256000
v 0.012254 0.009894 1.256000
v 0.010406 0.011823 1.256000
v 0.008258 0.013412 1.256000
v 0.005872 0.014614 1.256000
v 0.003318 0.015396 1.256000
v 0.000668 0.015736 1.256000
v -0.002001 0.015622 1.256000
v -0.004612 0.015060 1.256000
v -0.007091 0.014064 1.256000
v -0.009365 0.012663 1.256000
v -0.011371 0.010898 1.256000
v -0.013049 0.008820 1.256000
v -0.014352 0.006487 1.256000
v -0.015242 0.003969 1.256000
v -0.015693 0.001336 1.256000
v -0.015693 -0.001336 1.256000
v -0.015242 -0.003969 1.256000
v -0.014352 -0.006487 1.256000
v -0.013049 -0.008820 1.256000
v -0.011371 -0.010898 1.256000
v -0.009365 -0.012663 1.256000
v -0.007091 -0.014064 1.256000
v -0.004612 -0.015060 1.256000
v -0.002001 -0.015622 1.256000
v 0.000668 -0.015736 1.256000
v 0.003318 -0.015396 1.256000
v 0.005872 -0.014614 1.256000
v 0.008258 -0.013412 1.256000
v 0.010406 -0.011823 1.256000
v 0.012254 -0.009894 1.256000
v 0.013750 -0.007681 1.256000
v 0.014850 -0.005247 1.256000
v 0.013802 0.002345 1.256000
v 0.013999 -0.000157 1.256000
v 0.013746 -0.002654 1.256000
v 0.013051 -0.005066 1.256000
v 0.011937 -0.007315 1.256000
v 0.010439 -0.009329 1.256000
v 0.008606 -0.011043 1.256000
v 0.006495 -0.012402 1.256000
v 0.004177 -0.013362 1.256000
v 0.001723 -0.013894 1.256000
v -0.000785 -0.013978 1.256000
v -0.003268 -0.013613 1.256000
v -0.005646 -0.012811 1.256000
v -0.007843 -0.011597 1.256000
v -0.009788 -0.010010 1.256000
v -0.011418 -0.008101 1.256000
v -0.012681 -0.005932 1.256000
v -0.013536 -0.003573 1.256000
v -0.013957 -0.001098 1.256000
v -0.013929 0.001411 1.256000
v -0.013453 0.003876 1.256000
v -0.012545 0.006216 1.256000
v -0.011233 0.008356 1.256000
v -0.009561 0.010227 1.256000
v -0.007581 0.011770 1.256000
v -0.005358 0.012934 1.256000
v -0.002962 0.013683 1.256000
v -0.000471 0.013992 1.256000
v 0.002035 0.013851 1.256000
v 0.004475 0.013265 1.256000
v 0.006772 0.012253 1.256000
v 0.008851 0.010847 1.256000
v 0.010646 0.009092 1.256000
v 0.012098 0.007045 1.256000
v 0.013162 0.004772 1.256000
v -0.006419 0.012442 1.249300
v -0.006419 0.012442 1.254000
v -0.008258 0.011305 1.254000
v -0.009899 0.009899 1.254000
v -0.011305 0.008258 1.254000
v -0.012442 0.006419 1.254000
v -0.012442 0.006419 1.249300
v -0.013383 0.004112 1.249300
v -0.013900 0.001674 1.249300
v -0.013976 -0.000817 1.249300
v -0.013610 -0.003283 1.249300
v -0.012812 -0.005644 1.249300
v -0.011608 -0.007826 1.249300
v -0.010037 -0.009760 1.249300
v -0.008147 -0.011385 1.249300
v -0.005999 -0.012649 1.249300
v -0.003661 -0.013513 1.249300
v -0.001207 -0.013948 1.249300
v 0.001285 -0.013941 1.254000
v 0.003671 -0.013510 1.254000
v 0.005946 -0.012675 1.254000
v 0.008043 -0.011459 1.254000
v 0.009899 -0.009899 1.254000
v 0.011459 -0.008043 1.254000
v 0.012675 -0.005946 1.254000
v 0.013510 -0.003671 1.254000
v 0.013941 -0.001285 1.254000
v 0.013941 -0.001285 1.249300
v 0.013948 0.001207 1.249300
v 0.013513 0.003661 1.249300
v 0.012649 0.005999 1.249300
v 0.011385 0.008147 1.249300
v 0.009760 0.010037 1.249300
v 0.007826 0.011608 1.249300
v 0.005644 0.012812 1.249300
v 0.003283 0.013610 1.249300
v 0.000817 0.013976 1.249300
v -0.001674 0.013900 1.249300
v -0.004112 0.013383 1.249300
v 0.001285 -0.013941 1.249300
v 0.009135 -0.006619 1.249300
v 0.009135 -0.006619 1.254000
v 0.010590 -0.006130 1.249300
v 0.010590 -0.006130 1.254000
v 0.011873 -0.005288 1.249300
v 0.011873 -0.005288 1.254000
v 0.012901 -0.004147 1.249300
v 0.012901 -0.004147 1.254000
v 0.013606 -0.002783 1.249300
v 0.013606 -0.002783 1.254000
v 0.002783 -0.013606 1.249300
v 0.002783 -0.013606 1.254000
v 0.004147 -0.012901 1.249300
v 0.004147 -0.012901 1.254000
v 0.005288 -0.011873 1.249300
v 0.005288 -0.011873 1.254000
v 0.006130 -0.010590 1.249300
v 0.006130 -0.010590 1.254000
v 0.006619 -0.009135 1.249300
v 0.006619 -0.009135 1.254000
v 0.006936 -0.008250 1.249300
v 0.006936 -0.008250 1.254000
v 0.007495 -0.007495 1.254000
v 0.007495 -0.007495 1.249300
v 0.008250 -0.006936 1.254000
v 0.008250 -0.006936 1.249300
v -0.006796 0.012103 1.249300
v -0.006796 0.012103 1.254000
v -0.006958 0.011623 1.249300
v -0.006958 0.011623 1.254000
v -0.006865 0.011126 1.249300
v -0.006865 0.011126 1.254000
v -0.006571 0.010049 1.249300
v -0.006571 0.010049 1.254000
v -0.006665 0.008937 1.249300
v -0.006665 0.008937 1.254000
v -0.007135 0.007925 1.249300
v -0.007135 0.007925 1.254000
v -0.007925 0.007135 1.249300
v -0.007925 0.007135 1.254000
v -0.008937 0.006665 1.249300
v -0.008937 0.006665 1.254000
v -0.010049 0.006571 1.249300
v -0.010049 0.006571 1.254000
v -0.011126 0.006865 1.249300
v -0.011126 0.006865 1.254000
v -0.011623 0.006958 1.249300
v -0.011623 0.006958 1.254000
v -0.012103 0.006796 1.249300
v -0.012103 0.006796 1.254000
vn -0.0000 -0.0000 1.0000
vn -0.0001 -0.0000 1.0000
vn 0.0001 -0.0000 1.0000
vn 0.4207 -0.9072 -0.0000
vn 0.4637 -0.8855 -0.0281
vn 0.5257 -0.8504 0.0197
vn 0.6145 -0.7886 -0.0247
vn 0.6506 -0.7593 0.0146
vn 0.7456 -0.6662 -0.0167
vn 0.7594 -0.6506 0.0045
vn 0.8506 -0.5259 -0.0049
vn 0.8525 -0.5226 -0.0091
vn 0.8918 -0.4525 -0.0000
vn 0.9259 -0.3777 0.0028
vn 0.9323 -0.3617 -0.0030
vn 0.9782 -0.2074 0.0029
vn 0.9819 -0.1896 -0.0032
vn 0.9995 -0.0305 0.0031
vn 0.9999 -0.0112 -0.0033
vn 0.9892 0.1468 0.0034
vn 0.9858 0.1677 -0.0036
vn 0.9473 0.3202 0.0034
vn 0.9401 0.3407 -0.0037
vn 0.8755 0.4831 0.0036
vn 0.8642 0.5032 -0.0039
vn 0.7762 0.6305 0.0039
vn 0.7605 0.6493 -0.0040
vn 0.6520 0.7582 0.0041
vn 0.6322 0.7748 -0.0042
vn 0.5072 0.8618 0.0043
vn 0.4836 0.8753 -0.0043
vn 0.3466 0.9380 0.0044
vn 0.3196 0.9476 -0.0046
vn 0.1745 0.9846 0.0045
vn 0.1454 0.9894 -0.0047
vn -0.0128 0.9999 0.0053
vn -0.0335 0.9993 -0.0162
vn -0.1777 0.9840 0.0158
vn -0.2118 0.9771 -0.0187
vn -0.3445 0.9386 0.0177
vn -0.3825 0.9237 -0.0211
vn -0.5015 0.8649 0.0196
vn -0.5412 0.8406 -0.0225
vn -0.6433 0.7653 0.0219
vn -0.6828 0.7302 -0.0238
vn -0.7653 0.6432 0.0233
vn -0.8021 0.5966 -0.0255
vn -0.8648 0.5015 0.0241
vn -0.8958 0.4437 -0.0268
vn -0.9385 0.3444 0.0249
vn -0.9605 0.2768 -0.0274
vn -0.9837 0.1777 0.0257
vn -0.9945 0.1008 -0.0280
vn -0.9987 0.0514 -0.0000
vn -1.0000 0.0028 0.0082
vn -0.9969 -0.0785 -0.0084
vn -0.9846 -0.1745 0.0082
vn -0.9669 -0.2550 -0.0084
vn -0.9380 -0.3466 0.0083
vn -0.9057 -0.4239 -0.0083
vn -0.8618 -0.5071 0.0083
vn -0.8156 -0.5785 -0.0084
vn -0.7582 -0.6519 0.0083
vn -0.6991 -0.7150 -0.0084
vn -0.6305 -0.7762 0.0083
vn -0.5602 -0.8283 -0.0084
vn -0.4831 -0.8755 0.0083
vn -0.4032 -0.9151 -0.0085
vn -0.3202 -0.9473 0.0082
vn -0.2335 -0.9723 -0.0085
vn -0.1468 -0.9891 0.0082
vn -0.0562 -0.9984 -0.0084
vn 0.0305 -0.9995 0.0082
vn 0.1231 -0.9924 -0.0085
vn 0.2074 -0.9782 0.0082
vn 0.2984 -0.9544 -0.0085
vn 0.3777 -0.9259 0.0082
vn -0.0028 1.0000 -0.0000
vn -0.3186 0.9479 -0.0000
vn -0.5487 0.8360 -0.0000
vn -0.7429 0.6693 -0.0000
vn -0.7429 0.6694 -0.0000
vn -0.8884 0.4592 -0.0000
vn -0.9759 0.2182 -0.0000
vn -0.2182 0.9759 -0.0000
vn -0.4592 0.8884 -0.0000
vn -0.6694 0.7429 -0.0000
vn -0.8360 0.5487 -0.0000
vn -0.9479 0.3186 -0.0000
vn -0.9414 0.3372 -0.0000
vn -0.8037 0.5950 -0.0000
vn -0.5950 0.8037 -0.0000
vn -0.3372 0.9414 -0.0000
vn 0.0005 -0.0000 1.0000
vn 0.6686 -0.7436 -0.0000
vn 0.9475 -0.3198 -0.0000
vn 0.9829 0.1839 -0.0000
vn 0.9647 0.2633 -0.0000
vn 0.9964 -0.0842 -0.0000
vn 0.9070 -0.4212 -0.0000
vn 0.7071 -0.7071 -0.0000
vn 0.4212 -0.9070 -0.0000
vn 0.0842 -0.9964 -0.0000
vn -0.2633 -0.9647 -0.0000
vn -0.1839 -0.9829 -0.0000
vn 0.3198 -0.9475 -0.0000
vn 0.7436 -0.6686 -0.0000
vn -0.0003 -0.0000 1.0000
vn 0.0003 -0.0000 1.0000
s 0
f 3//1 38//1 2//1
f 2//1 38//1 39//1
f 2//1 39//1 1//1
f 1//1 39//1 40//1
f 1//1 40//1 37//1
f 37//1 40//1 41//1
f 37//1 41//1 36//1
f 36//2 41//2 42//2
f 36//1 42//1 35//1
f 35//1 42//1 43//1
f 35//1 43//1 34//1
f 34//1 43//1 44//1
f 34//3 44//3 33//3
f 33//1 44//1 45//1
f 33//1 45//1 32//1
f 32//1 45//1 46//1
f 32//1 46//1 31//1
f 31//1 46//1 47//1
f 31//1 47//1 30//1
f 30//3 47//3 48//3
f 30//1 48//1 29//1
f 29//1 48//1 49//1
f 29//1 49//1 28//1
f 28//3 49//3 50//3
f 28//1 50//1 27//1
f 27//1 50//1 51//1
f 27//2 51//2 26//2
f 26//1 51//1 52//1
f 26//2 52//2 25//2
f 25//1 52//1 53//1
f 25//2 53//2 24//2
f 24//1 53//1 54//1
f 24//1 54//1 23//1
f 23//1 54//1 55//1
f 23//1 55//1 22//1
f 22//1 55//1 21//1
f 21//1 55//1 56//1
f 21//3 56//3 20//3
f 20//1 56//1 57//1
f 20//3 57//3 19//3
f 19//2 57//2 58//2
f 19//1 58//1 18//1
f 18//2 58//2 59//2
f 18//1 59//1 17//1
f 17//1 59//1 60//1
f 17//1 60//1 16//1
f 16//2 60//2 61//2
f 16//1 61//1 15//1
f 15//3 61//3 62//3
f 15//1 62//1 14//1
f 14//2 62//2 63//2
f 14//1 63//1 13//1
f 13//1 63//1 64//1
f 13//1 64//1 12//1
f 12//1 64//1 65//1
f 12//1 65//1 11//1
f 11//3 65//3 66//3
f 11//2 66//2 10//2
f 10//1 66//1 67//1
f 10//3 67//3 9//3
f 9//2 67//2 68//2
f 9//1 68//1 8//1
f 8//1 68//1 69//1
f 8//3 69//3 7//3
f 7//2 69//2 70//2
f 7//3 70//3 6//3
f 6//2 70//2 71//2
f 6//1 71//1 5//1
f 5//1 71//1 72//1
f 5//1 72//1 4//1
f 4//1 72//1 38//1
f 4//1 38//1 3//1
f 73//4 63//4 74//4
f 74//5 63//5 62//5
f 74//6 62//6 75//6
f 75//7 62//7 61//7
f 75//8 61//8 76//8
f 76//9 61//9 60//9
f 76//10 60//10 77//10
f 77//11 60//11 78//11
f 78//12 60//12 59//12
f 78//13 59//13 79//13
f 79//14 59//14 80//14
f 80//15 59//15 58//15
f 80//16 58//16 81//16
f 81//17 58//17 57//17
f 81//18 57//18 82//18
f 82//19 57//19 56//19
f 82//20 56//20 83//20
f 83//21 56//21 55//21
f 83//22 55//22 84//22
f 84//23 55//23 54//23
f 84//24 54//24 85//24
f 85//25 54//25 53//25
f 85//26 53//26 86//26
f 86//27 53//27 52//27
f 86//28 52//28 87//28
f 87//29 52//29 51//29
f 87//30 51//30 88//30
f 88//31 51//31 50//31
f 88//32 50//32 89//32
f 89//33 50//33 49//33
f 89//34 49//34 90//34
f 90//35 49//35 48//35
f 90//36 48//36 91//36
f 91//37 48//37 47//37
f 91//38 47//38 92//38
f 92//39 47//39 46//39
f 92//40 46//40 93//40
f 93//41 46//41 45//41
f 93//42 45//42 94//42
f 94//43 45//43 44//43
f 94//44 44//44 95//44
f 95//45 44//45 43//45
f 95//46 43//46 96//46
f 96//47 43//47 42//47
f 96//48 42//48 97//48
f 97//49 42//49 41//49
f 97//50 41//50 98//50
f 98//51 41//51 40//51
f 98//52 40//52 99//52
f 99//53 40//53 39//53
f 99//54 39//54 100//54
f 100//55 39//55 101//55
f 101//56 39//56 38//56
f 101//57 38//57 102//57
f 102//58 38//58 72//58
f 102//59 72//59 103//59
f 103//60 72//60 71//60
f 103//61 71//61 104//61
f 104//62 71//62 70//62
f 104//63 70//63 105//63
f 105//64 70//64 69//64
f 105//65 69//65 106//65
f 106//66 69//66 68//66
f 106//67 68//67 107//67
f 107//68 68//68 67//68
f 107//69 67//69 108//69
f 108//70 67//70 66//70
f 108//71 66//71 109//71
f 109//72 66//72 65//72
f 109//73 65//73 110//73
f 110//74 65//74 64//74
f 110//75 64//75 111//75
f 111//76 64//76 63//76
f 111//77 63//77 73//77
f 91//78 112//78 90//78
f 113//79 114//79 115//79
f 115//79 114//79 116//79
f 115//80 116//80 117//80
f 117//80 116//80 118//80
f 117//81 118//81 119//81
f 119//82 118//82 120//82
f 119//83 120//83 121//83
f 121//83 120//83 122//83
f 121//84 122//84 100//84
f 100//84 122//84 99//84
f 112//85 91//85 123//85
f 123//85 91//85 124//85
f 123//86 124//86 125//86
f 125//86 124//86 126//86
f 125//87 126//87 127//87
f 127//87 126//87 128//87
f 127//88 128//88 129//88
f 129//88 128//88 130//88
f 129//89 130//89 131//89
f 131//89 130//89 132//89
f 131//90 132//90 133//90
f 133//90 132//90 134//90
f 133//91 134//91 135//91
f 133//91 135//91 136//91
f 136//92 135//92 137//92
f 136//92 137//92 138//92
f 138//93 137//93 113//93
f 113//93 137//93 114//93
f 99//1 122//1 98//1
f 98//1 122//1 120//1
f 98//94 120//94 97//94
f 97//2 120//2 118//2
f 97//1 118//1 116//1
f 97//1 116//1 96//1
f 96//1 116//1 114//1
f 96//1 114//1 135//1
f 135//1 114//1 137//1
f 135//1 134//1 96//1
f 96//1 134//1 132//1
f 96//1 132//1 95//1
f 95//1 132//1 130//1
f 95//1 130//1 94//1
f 94//3 130//3 128//3
f 94//1 128//1 93//1
f 93//1 128//1 126//1
f 93//1 126//1 92//1
f 92//1 126//1 124//1
f 92//1 124//1 91//1
f 73//95 74//95 139//95
f 139//95 74//95 140//95
f 139//96 140//96 141//96
f 141//96 140//96 142//96
f 141//97 142//97 143//97
f 143//97 142//97 144//97
f 143//98 144//98 145//98
f 145//98 144//98 146//98
f 145//99 146//99 147//99
f 147//99 146//99 148//99
f 147//100 148//100 149//100
f 149//100 148//100 150//100
f 149//101 150//101 151//101
f 151//101 150//101 152//101
f 151//102 152//102 153//102
f 153//102 152//102 154//102
f 153//103 154//103 155//103
f 155//103 154//103 156//103
f 155//104 156//104 157//104
f 157//104 156//104 158//104
f 157//105 158//105 159//105
f 159//105 158//105 160//105
f 159//106 160//106 161//106
f 161//106 160//106 162//106
f 161//107 162//107 79//107
f 79//107 162//107 78//107
f 142//1 75//1 144//1
f 144//1 75//1 76//1
f 144//1 76//1 146//1
f 146//1 76//1 148//1
f 148//1 76//1 77//1
f 148//1 77//1 150//1
f 150//2 77//2 152//2
f 152//1 77//1 154//1
f 154//1 77//1 156//1
f 156//1 77//1 158//1
f 158//108 77//108 160//108
f 160//1 77//1 162//1
f 162//1 77//1 78//1
f 142//1 140//1 75//1
f 75//109 140//109 74//109
