# Blender 4.2.3 LTS
# www.blender.org
o link_0__m1
v -0.108000 0.054223 0.052316
v -0.108000 0.050822 0.074147
v -0.108000 0.048034 0.096064
v -0.108000 0.045859 0.118051
v -0.108000 0.044299 0.140090
v -0.108000 0.044089 0.141510
v -0.108000 0.043629 0.142870
v -0.108000 0.042934 0.144125
v -0.108000 -0.045859 0.118051
v -0.108000 -0.044299 0.140090
v -0.108000 -0.044089 0.141510
v -0.108000 -0.043629 0.142870
v -0.108000 -0.042934 0.144125
v -0.108000 -0.048034 0.096064
v -0.108000 -0.050822 0.074147
v -0.108000 -0.054223 0.052316
v -0.108000 -0.063462 0.004853
v -0.108000 0.063462 0.004853
v -0.108000 -0.063131 0.004403
v -0.108000 -0.062658 0.004104
v -0.108000 -0.062109 0.004000
v -0.108000 0.062109 0.004000
v -0.108000 0.062658 0.004104
v -0.108000 0.063131 0.004403
v -0.108000 0.057028 0.036763
v -0.108000 0.060145 0.021268
v -0.108000 0.063570 0.005840
v -0.108000 0.063572 0.005171
v -0.108000 0.063609 0.005506
v -0.108000 -0.040165 0.146648
v -0.108000 -0.038417 0.147355
v -0.108000 -0.027600 0.149867
v -0.108000 -0.016624 0.151550
v -0.108000 -0.005552 0.152394
v -0.108000 0.005552 0.152394
v -0.108000 0.016624 0.151550
v -0.108000 0.027600 0.149867
v -0.108000 0.038417 0.147355
v -0.108000 0.040165 0.146648
v -0.108000 0.041699 0.145551
v -0.108000 -0.041699 0.145551
v -0.113000 -0.044299 0.140090
v -0.113000 -0.046303 0.113007
v -0.113000 -0.049236 0.086008
v -0.113000 -0.053095 0.059127
v -0.113000 -0.057875 0.032393
v -0.108000 -0.057028 0.036763
v -0.108000 -0.060145 0.021268
v -0.113000 -0.063570 0.005840
v -0.108000 -0.063570 0.005840
v -0.113000 0.038417 0.147355
v -0.113000 0.027600 0.149867
v -0.113000 0.016624 0.151550
v -0.113000 0.005552 0.152394
v -0.113000 -0.005552 0.152394
v -0.113000 -0.016624 0.151550
v -0.113000 -0.027600 0.149867
v -0.113000 -0.038417 0.147355
v -0.113000 0.044299 0.140090
v -0.113000 0.046303 0.113007
v -0.113000 0.049236 0.086008
v -0.113000 0.053095 0.059127
v -0.113000 0.057875 0.032393
v -0.113000 0.063570 0.005840
v -0.113000 0.062109 0.004000
v -0.113000 -0.062109 0.004000
v -0.108000 -0.063609 0.005506
v -0.108000 -0.063572 0.005171
v -0.113000 0.062761 0.004149
v -0.113000 0.063284 0.004567
v -0.113000 0.063572 0.005171
v -0.113000 -0.062761 0.004149
v -0.113000 -0.040684 0.146336
v -0.113000 -0.042529 0.144671
v -0.113000 -0.043774 0.142520
v -0.113000 -0.063284 0.004567
v -0.113000 -0.063572 0.005171
v -0.113000 0.040684 0.146336
v -0.113000 0.042529 0.144671
v -0.113000 0.043774 0.142520
vn -0.0000 -0.9975 0.0706
vn 0.0141 -0.9972 0.0738
vn -0.0109 -0.9951 0.0984
vn 0.0218 -0.9939 0.1080
vn -0.0153 -0.9919 0.1262
vn 0.0231 -0.9896 0.1421
vn -0.0132 -0.9880 0.1539
vn 0.0177 -0.9842 0.1760
vn 0.0116 -0.9841 0.1775
vn -0.0063 -0.9803 0.1972
vn 0.0227 -0.9775 0.2097
vn -0.0000 -0.9762 0.2167
vn -0.0000 0.2262 0.9741
vn -0.0000 0.1516 0.9884
vn -0.0000 0.0760 0.9971
vn -0.0000 -0.0000 1.0000
vn -0.0000 -0.0760 0.9971
vn -0.0000 -0.1516 0.9884
vn -0.0000 -0.2262 0.9741
vn -0.0000 0.9975 0.0706
vn 0.0141 0.9972 0.0738
vn -0.0109 0.9951 0.0984
vn 0.0218 0.9939 0.1080
vn -0.0153 0.9919 0.1262
vn 0.0231 0.9896 0.1421
vn -0.0132 0.9880 0.1539
vn 0.0177 0.9842 0.1760
vn 0.0116 0.9841 0.1775
vn -0.0063 0.9803 0.1972
vn -0.0000 0.9762 0.2167
vn 0.0227 0.9775 0.2097
vn -0.0000 -0.0000 -1.0000
vn -1.0000 -0.0000 -0.0000
vn 0.0103 -0.7559 0.6546
vn -0.0154 -0.8654 0.5009
vn -0.0085 -0.8748 0.4844
vn 0.0050 -0.9473 0.3204
vn -0.0189 -0.9773 0.2111
vn -0.0000 -0.9892 0.1463
vn -0.0194 -0.6698 0.7423
vn 0.0096 -0.5817 0.8134
vn -0.0144 -0.4099 0.9120
vn -0.0000 -0.3750 0.9270
vn -0.0085 0.8748 0.4844
vn -0.0154 0.8654 0.5009
vn 0.0103 0.7559 0.6546
vn -0.0194 0.6698 0.7423
vn 0.0096 0.5817 0.8134
vn -0.0144 0.4099 0.9120
vn -0.0000 0.3750 0.9270
vn 0.0050 0.9473 0.3204
vn -0.0189 0.9773 0.2111
vn -0.0000 0.9892 0.1463
vn -0.0000 -0.9451 -0.3269
vn -0.0075 -0.9026 -0.4304
vn 0.0052 -0.8055 -0.5925
vn -0.0065 -0.6243 -0.7811
vn 0.0034 -0.5343 -0.8453
vn -0.0042 -0.2228 -0.9749
vn -0.0000 -0.1861 -0.9825
vn -0.0000 -0.9940 -0.1098
vn -0.0076 -1.0000 0.0030
vn -0.0000 -0.9933 0.1160
vn 0.0052 0.8055 -0.5925
vn -0.0075 0.9026 -0.4304
vn -0.0000 0.9451 -0.3269
vn -0.0000 0.9940 -0.1098
vn -0.0076 1.0000 0.0030
vn -0.0000 0.9933 0.1160
vn -0.0065 0.6243 -0.7811
vn 0.0034 0.5343 -0.8453
vn -0.0042 0.2228 -0.9749
vn -0.0000 0.1861 -0.9825
s 0
f 10//1 42//1 9//1
f 9//2 42//2 43//2
f 9//3 43//3 14//3
f 14//4 43//4 44//4
f 14//5 44//5 15//5
f 15//6 44//6 45//6
f 15//7 45//7 16//7
f 16//8 45//8 46//8
f 16//9 46//9 47//9
f 47//10 46//10 48//10
f 48//11 46//11 49//11
f 48//12 49//12 50//12
f 38//13 51//13 37//13
f 37//13 51//13 52//13
f 37//14 52//14 36//14
f 36//14 52//14 53//14
f 36//15 53//15 35//15
f 35//15 53//15 54//15
f 35//16 54//16 34//16
f 34//16 54//16 55//16
f 34//17 55//17 33//17
f 33//17 55//17 56//17
f 33//18 56//18 32//18
f 32//18 56//18 57//18
f 32//19 57//19 31//19
f 31//19 57//19 58//19
f 5//20 4//20 59//20
f 59//21 4//21 60//21
f 60//22 4//22 3//22
f 60//23 3//23 61//23
f 61//24 3//24 2//24
f 61//25 2//25 62//25
f 62//26 2//26 1//26
f 62//27 1//27 63//27
f 63//28 1//28 25//28
f 63//29 25//29 26//29
f 27//30 64//30 26//30
f 26//31 64//31 63//31
f 22//32 21//32 65//32
f 65//32 21//32 66//32
f 66//33 63//33 65//33
f 65//33 63//33 64//33
f 65//33 64//33 69//33
f 69//33 64//33 70//33
f 70//33 64//33 71//33
f 72//33 49//33 66//33
f 66//33 49//33 46//33
f 66//33 46//33 63//33
f 63//33 46//33 62//33
f 62//33 46//33 45//33
f 62//33 45//33 61//33
f 61//33 45//33 44//33
f 61//33 44//33 60//33
f 60//33 44//33 43//33
f 60//33 43//33 54//33
f 54//33 43//33 55//33
f 55//33 43//33 56//33
f 56//33 43//33 57//33
f 57//33 43//33 42//33
f 57//33 42//33 58//33
f 58//33 42//33 73//33
f 73//33 42//33 74//33
f 74//33 42//33 75//33
f 72//33 76//33 49//33
f 49//33 76//33 77//33
f 54//33 53//33 60//33
f 60//33 53//33 52//33
f 60//33 52//33 59//33
f 59//33 52//33 51//33
f 59//33 51//33 78//33
f 78//33 79//33 59//33
f 59//33 79//33 80//33
f 41//34 74//34 13//34
f 13//35 74//35 75//35
f 13//36 75//36 12//36
f 12//37 75//37 11//37
f 11//38 75//38 42//38
f 11//39 42//39 10//39
f 74//40 41//40 73//40
f 73//41 41//41 30//41
f 73//42 30//42 58//42
f 58//43 30//43 31//43
f 7//44 80//44 8//44
f 8//45 80//45 79//45
f 8//46 79//46 40//46
f 40//47 79//47 78//47
f 40//48 78//48 39//48
f 39//49 78//49 51//49
f 39//50 51//50 38//50
f 7//51 6//51 80//51
f 80//52 6//52 59//52
f 59//53 6//53 5//53
f 68//54 77//54 17//54
f 17//55 77//55 76//55
f 17//56 76//56 19//56
f 19//57 76//57 72//57
f 19//58 72//58 20//58
f 20//59 72//59 66//59
f 20//60 66//60 21//60
f 68//61 67//61 77//61
f 77//62 67//62 49//62
f 49//63 67//63 50//63
f 24//64 70//64 18//64
f 18//65 70//65 71//65
f 18//66 71//66 28//66
f 28//67 71//67 29//67
f 29//68 71//68 64//68
f 29//69 64//69 27//69
f 70//70 24//70 69//70
f 69//71 24//71 23//71
f 69//72 23//72 65//72
f 65//73 23//73 22//73
