# Blender 4.2.3 LTS
# www.blender.org
o link_2__m2
v 0.067776 0.005520 0.524000
v 0.067994 0.000016 0.524000
v -0.067776 0.005520 0.524000
v -0.067994 0.000016 0.524000
v 0.000000 -0.067999 0.524000
v -0.044448 0.051463 0.524000
v -0.050722 0.045291 0.524000
v -0.056147 0.038360 0.524000
v -0.060632 0.030786 0.524000
v -0.064100 0.022697 0.524000
v -0.066495 0.014228 0.524000
v -0.037428 0.056773 0.524000
v -0.029782 0.061131 0.524000
v -0.021636 0.064466 0.524000
v -0.013129 0.066721 0.524000
v -0.004401 0.067857 0.524000
v 0.004401 0.067857 0.524000
v 0.013129 0.066721 0.524000
v 0.021636 0.064466 0.524000
v 0.029782 0.061131 0.524000
v 0.037428 0.056773 0.524000
v 0.044448 0.051463 0.524000
v 0.050722 0.045291 0.524000
v 0.056147 0.038360 0.524000
v 0.060632 0.030786 0.524000
v 0.064100 0.022697 0.524000
v 0.066495 0.014228 0.524000
v 0.006669 -0.067672 0.524000
v 0.008877 -0.067418 0.524000
v 0.013262 -0.066694 0.524000
v 0.017602 -0.065682 0.524000
v 0.019729 -0.065075 0.524000
v 0.026026 -0.062822 0.524000
v 0.032057 -0.059969 0.524000
v 0.034005 -0.058887 0.524000
v 0.037779 -0.056540 0.524000
v 0.041401 -0.053944 0.524000
v 0.043136 -0.052567 0.524000
v 0.048089 -0.048078 0.524000
v 0.052573 -0.043129 0.524000
v 0.053954 -0.041388 0.524000
v 0.056545 -0.037771 0.524000
v 0.058895 -0.033991 0.524000
v 0.059974 -0.032049 0.524000
v 0.062828 -0.026012 0.524000
v 0.065079 -0.019716 0.524000
v 0.065686 -0.017587 0.524000
v 0.066697 -0.013249 0.524000
v 0.067420 -0.008861 0.524000
v -0.067420 -0.008864 0.524000
v -0.066697 -0.013250 0.524000
v -0.065686 -0.017590 0.524000
v -0.065079 -0.019717 0.524000
v -0.062827 -0.026014 0.524000
v -0.059974 -0.032049 0.524000
v -0.058894 -0.033993 0.524000
v -0.056545 -0.037771 0.524000
v -0.053952 -0.041390 0.524000
v -0.052573 -0.043129 0.524000
v -0.048088 -0.048079 0.524000
v -0.043136 -0.052567 0.524000
v -0.041400 -0.053945 0.524000
v -0.037779 -0.056540 0.524000
v -0.034004 -0.058888 0.524000
v -0.032058 -0.059969 0.524000
v -0.026025 -0.062823 0.524000
v -0.019729 -0.065075 0.524000
v -0.017602 -0.065682 0.524000
v -0.013263 -0.066694 0.524000
v -0.008877 -0.067418 0.524000
v -0.006669 -0.067672 0.524000
v 0.067418 -0.008876 0.556800
v 0.068000 0.000000 0.556800
v 0.067418 0.008876 0.556800
v 0.065683 0.017600 0.556800
v 0.062824 0.026022 0.556800
v 0.058890 0.034000 0.556800
v 0.053948 0.041396 0.556800
v 0.048083 0.048083 0.556800
v 0.041396 0.053948 0.556800
v 0.034000 0.058890 0.556800
v 0.026022 0.062824 0.556800
v 0.017600 0.065683 0.556800
v 0.008876 0.067418 0.556800
v 0.000000 0.068000 0.556800
v -0.008876 0.067418 0.556800
v -0.017600 0.065683 0.556800
v -0.026022 0.062824 0.556800
v -0.034000 0.058890 0.556800
v -0.041396 0.053948 0.556800
v -0.048083 0.048083 0.556800
v -0.053948 0.041396 0.556800
v -0.058890 0.034000 0.556800
v -0.062824 0.026022 0.556800
v -0.065683 0.017600 0.556800
v -0.067418 0.008876 0.556800
v -0.068000 0.000000 0.556800
v -0.067418 -0.008876 0.556800
v -0.065683 -0.017600 0.556800
v -0.062824 -0.026022 0.556800
v -0.058890 -0.034000 0.556800
v -0.053948 -0.041396 0.556800
v -0.048083 -0.048083 0.556800
v -0.041396 -0.053948 0.556800
v -0.034000 -0.058890 0.556800
v -0.026022 -0.062824 0.556800
v -0.017600 -0.065683 0.556800
v -0.008876 -0.067418 0.556800
v 0.000000 -0.068000 0.556800
v 0.008876 -0.067418 0.556800
v 0.017600 -0.065683 0.556800
v 0.026022 -0.062824 0.556800
v 0.034000 -0.058890 0.556800
v 0.041396 -0.053948 0.556800
v 0.048083 -0.048083 0.556800
v 0.053948 -0.041396 0.556800
v 0.058890 -0.034000 0.556800
v 0.062824 -0.026022 0.556800
v 0.065683 -0.017600 0.556800
v 0.023718 0.063729 0.532884
v 0.021410 0.064541 0.532884
v 0.019681 0.065090 0.538553
v 0.021410 0.064541 0.549151
v 0.019681 0.065090 0.549151
v 0.018018 0.065569 0.549151
v 0.016344 0.066006 0.549151
v 0.025996 0.062835 0.532884
v 0.028240 0.061859 0.532884
v 0.034602 0.058538 0.539130
v 0.035258 0.058145 0.539130
v 0.036555 0.057339 0.532884
v 0.035908 0.057746 0.539130
v 0.036555 0.057339 0.539130
v 0.038002 0.056390 0.532884
v 0.039424 0.055405 0.532884
v 0.040821 0.054384 0.532884
v 0.040821 0.054384 0.549151
v 0.039424 0.055405 0.549151
v 0.038002 0.056390 0.549151
v 0.036555 0.057339 0.549151
v 0.035178 0.058194 0.543174
v 0.035869 0.057771 0.543174
v 0.036555 0.057339 0.543174
v 0.034482 0.058609 0.543174
v 0.028240 0.061859 0.549151
v 0.025996 0.062835 0.549151
v 0.023718 0.063729 0.549151
v 0.026066 0.062806 0.545174
v 0.026073 0.062803 0.537047
v 0.030582 0.060735 0.541197
v 0.002975 0.067935 0.532811
v 0.005581 0.067771 0.532582
v 0.008047 0.067522 0.532582
v 0.010502 0.067184 0.532582
v 0.012943 0.066757 0.532582
v 0.015526 0.066204 0.532818
v 0.017853 0.065615 0.533960
v 0.018859 0.065333 0.535060
v 0.019352 0.065188 0.536027
v 0.014660 0.066401 0.549151
v 0.011817 0.066965 0.536757
v 0.010124 0.067242 0.536757
v 0.014660 0.066401 0.539630
v 0.014534 0.066429 0.538487
v 0.013951 0.066553 0.537498
v 0.012967 0.066752 0.536890
v 0.008426 0.067476 0.536757
v 0.006722 0.067667 0.536757
v 0.003832 0.067892 0.549151
v 0.005555 0.067773 0.536891
v 0.004562 0.067847 0.537492
v 0.003961 0.067885 0.538484
v 0.003832 0.067892 0.539630
v 0.002103 0.067967 0.549151
v 0.000374 0.067999 0.549151
v -0.001356 0.067986 0.549151
v -0.005884 0.067745 0.549151
v -0.007606 0.067573 0.549151
v -0.009323 0.067358 0.549151
v -0.001356 0.067986 0.538553
v -0.005884 0.067745 0.532884
v -0.001299 0.067988 0.537236
v -0.000988 0.067993 0.535964
v -0.000331 0.068000 0.534831
v 0.000601 0.067997 0.533917
v -0.020242 0.064917 0.549151
v -0.013425 0.066662 0.543174
v -0.011033 0.067099 0.549151
v -0.022565 0.064147 0.549151
v -0.024858 0.063293 0.549151
v -0.027120 0.062358 0.549151
v -0.023657 0.063752 0.546164
v -0.027120 0.062358 0.532884
v -0.027748 0.062081 0.532884
v -0.033875 0.058962 0.549151
v -0.017748 0.065643 0.541197
v -0.022501 0.064169 0.537034
v -0.024858 0.063293 0.532884
v -0.022565 0.064147 0.532884
v -0.020242 0.064917 0.532884
v -0.013288 0.066689 0.539130
v -0.012538 0.066834 0.539130
v -0.011033 0.067099 0.532884
v -0.011786 0.066971 0.539130
v -0.011033 0.067099 0.539130
v -0.009323 0.067358 0.532884
v -0.007606 0.067573 0.532884
v -0.011033 0.067099 0.543174
v -0.011832 0.066963 0.543174
v -0.012630 0.066817 0.543174
v -0.035178 -0.058194 0.543174
v -0.034482 -0.058609 0.543174
v -0.028240 -0.061859 0.549151
v -0.025996 -0.062835 0.549151
v -0.023718 -0.063729 0.549151
v -0.021410 -0.064541 0.549151
v -0.019681 -0.065090 0.549151
v -0.018018 -0.065569 0.549151
v -0.026073 -0.062803 0.545168
v -0.026066 -0.062806 0.537040
v -0.021410 -0.064541 0.532884
v -0.023718 -0.063729 0.532884
v -0.025996 -0.062835 0.532884
v -0.028240 -0.061859 0.532884
v -0.030582 -0.060735 0.541197
v -0.034602 -0.058538 0.539130
v -0.035258 -0.058145 0.539130
v -0.036555 -0.057339 0.532884
v -0.035908 -0.057746 0.539130
v -0.036555 -0.057339 0.539130
v -0.038002 -0.056390 0.532884
v -0.039424 -0.055405 0.532884
v -0.040821 -0.054384 0.532884
v -0.040821 -0.054384 0.549151
v -0.039424 -0.055405 0.549151
v -0.038002 -0.056390 0.549151
v -0.036555 -0.057339 0.549151
v -0.035869 -0.057771 0.543174
v -0.036555 -0.057339 0.543174
v -0.002957 -0.067936 0.532815
v -0.005581 -0.067771 0.532582
v -0.008047 -0.067522 0.532582
v -0.010502 -0.067184 0.532582
v -0.012943 -0.066757 0.532582
v -0.015513 -0.066207 0.532815
v -0.017842 -0.065617 0.533951
v -0.018733 -0.065369 0.534882
v -0.019347 -0.065190 0.536013
v -0.019629 -0.065105 0.537267
v -0.019681 -0.065090 0.538553
v -0.016344 -0.066006 0.549151
v -0.014660 -0.066401 0.549151
v -0.011817 -0.066965 0.536757
v -0.010124 -0.067242 0.536757
v -0.014660 -0.066401 0.539630
v -0.014537 -0.066428 0.538496
v -0.013957 -0.066552 0.537504
v -0.012977 -0.066750 0.536893
v -0.008426 -0.067476 0.536757
v -0.006722 -0.067667 0.536757
v -0.003832 -0.067892 0.549151
v -0.005565 -0.067772 0.536887
v -0.004568 -0.067846 0.537486
v -0.003964 -0.067884 0.538473
v -0.003832 -0.067892 0.539630
v -0.002103 -0.067967 0.549151
v -0.000374 -0.067999 0.549151
v 0.001356 -0.067986 0.549151
v 0.005884 -0.067745 0.549151
v 0.007606 -0.067573 0.549151
v 0.009323 -0.067358 0.549151
v 0.001356 -0.067986 0.538553
v 0.005884 -0.067745 0.532884
v 0.000993 -0.067993 0.535977
v 0.000453 -0.067999 0.534994
v -0.000589 -0.067997 0.533926
v 0.020242 -0.064917 0.549151
v 0.013425 -0.066662 0.543174
v 0.011033 -0.067099 0.549151
v 0.022565 -0.064147 0.549151
v 0.024858 -0.063293 0.549151
v 0.027120 -0.062358 0.549151
v 0.022501 -0.064169 0.545180
v 0.023657 -0.063752 0.536006
v 0.027120 -0.062358 0.532884
v 0.027748 -0.062081 0.532884
v 0.029561 -0.061238 0.532884
v 0.031349 -0.060343 0.532884
v 0.033110 -0.059395 0.532884
v 0.034159 -0.058798 0.535738
v 0.037078 -0.057002 0.535738
v 0.039904 -0.055061 0.535738
v 0.042627 -0.052980 0.535738
v 0.042940 -0.052727 0.534787
v 0.043251 -0.052472 0.533835
v 0.043561 -0.052215 0.532884
v 0.045078 -0.050912 0.532884
v 0.046555 -0.049564 0.532884
v 0.047992 -0.048174 0.532884
v 0.042882 -0.052774 0.549151
v 0.039992 -0.054997 0.549151
v 0.036987 -0.057061 0.549151
v 0.033875 -0.058962 0.549151
v 0.017748 -0.065643 0.541197
v 0.024858 -0.063293 0.532884
v 0.022565 -0.064147 0.532884
v 0.020242 -0.064917 0.532884
v 0.013288 -0.066689 0.539130
v 0.012538 -0.066834 0.539130
v 0.011033 -0.067099 0.532884
v 0.011786 -0.066971 0.539130
v 0.011033 -0.067099 0.539130
v 0.009323 -0.067358 0.532884
v 0.007606 -0.067573 0.532884
v 0.011033 -0.067099 0.543174
v 0.011832 -0.066963 0.543174
v 0.012630 -0.066817 0.543174
v -0.036987 0.057061 0.549151
v -0.039992 0.054997 0.549151
v -0.042882 0.052774 0.549151
v -0.047992 0.048174 0.532884
v -0.046555 0.049564 0.532884
v -0.045078 0.050912 0.532884
v -0.043561 0.052215 0.532884
v -0.043251 0.052472 0.533835
v -0.042940 0.052727 0.534787
v -0.042627 0.052980 0.535738
v -0.039904 0.055061 0.535738
v -0.037078 0.057002 0.535738
v -0.034159 0.058798 0.535738
v -0.033110 0.059395 0.532884
v -0.031349 0.060343 0.532884
v -0.029561 0.061238 0.532884
v 0.037524 -0.056709 0.545107
v 0.037007 -0.057048 0.543645
v 0.036487 -0.057382 0.542182
v 0.035964 -0.057711 0.540720
v 0.035437 -0.058036 0.539258
v 0.037493 -0.056730 0.539258
v 0.039501 -0.055351 0.539258
v 0.041458 -0.053901 0.539258
v 0.040966 -0.054275 0.540720
v 0.040471 -0.054646 0.542182
v 0.039972 -0.055011 0.543644
v 0.039470 -0.055372 0.545107
v 0.038827 -0.055825 0.545107
v 0.038178 -0.056271 0.545107
v -0.039470 0.055372 0.545107
v -0.041458 0.053901 0.539258
v -0.039501 0.055351 0.539258
v -0.037493 0.056730 0.539258
v -0.035437 0.058036 0.539258
v -0.037524 0.056709 0.545107
v -0.038178 0.056271 0.545107
v -0.038827 0.055825 0.545107
vn 0.3319 0.9433 0.0005
vn 0.3015 0.9535 -0.0004
vn 0.3026 0.9531 -0.0000
vn 0.3026 0.9531 0.0084
vn 0.2768 0.9609 0.0008
vn 0.2526 0.9676 -0.0006
vn 0.3653 0.9308 -0.0084
vn 0.3788 0.9253 -0.0160
vn 0.3988 0.9170 -0.0059
vn 0.4577 0.8891 0.0066
vn 0.5139 0.8578 -0.0040
vn 0.5133 0.8582 -0.0042
vn 0.4952 0.8688 -0.0089
vn 0.5231 0.8522 -0.0013
vn 0.5325 0.8465 -0.0000
vn 0.5484 0.8362 0.0006
vn 0.5694 0.8220 -0.0014
vn 0.5900 0.8073 -0.0082
vn 0.6032 0.7974 -0.0159
vn 0.6272 0.7788 -0.0000
vn 0.6195 0.7850 -0.0018
vn 0.5901 0.8074 0.0017
vn 0.5694 0.8220 0.0098
vn 0.5555 0.8313 0.0189
vn 0.5484 0.8361 0.0136
vn 0.5224 0.8527 0.0016
vn 0.5221 0.8529 0.0017
vn 0.5329 0.8462 -0.0000
vn 0.5121 0.8589 0.0004
vn 0.4603 0.8878 -0.0020
vn 0.4422 0.8968 0.0151
vn 0.3988 0.9170 -0.0000
vn 0.3653 0.9309 0.0001
vn 0.3319 0.9433 0.0116
vn 0.3214 0.9468 0.0187
vn 0.3492 0.9371 -0.0000
vn 0.3493 0.9370 -0.0000
vn 0.4169 0.9090 -0.0000
vn 0.0629 0.9980 0.0013
vn 0.1005 0.9949 -0.0038
vn 0.1290 0.9915 -0.0161
vn 0.1364 0.9906 -0.0117
vn 0.1723 0.9850 -0.0004
vn 0.2093 0.9778 0.0004
vn 0.2562 0.9665 -0.0130
vn 0.2526 0.9675 -0.0157
vn 0.2760 0.9611 -0.0060
vn 0.2874 0.9578 -0.0029
vn 0.2949 0.9555 -0.0013
vn 0.2284 0.9736 0.0036
vn 0.1950 0.9806 0.0171
vn 0.1782 0.9840 0.0039
vn 0.1615 0.9869 0.0014
vn 0.2169 0.9762 -0.0000
vn 0.2079 0.9782 0.0001
vn 0.1978 0.9802 0.0008
vn 0.1818 0.9833 0.0031
vn 0.1365 0.9906 -0.0002
vn 0.1114 0.9938 0.0004
vn 0.0894 0.9960 0.0028
vn 0.0908 0.9959 0.0031
vn 0.0748 0.9972 0.0008
vn 0.0651 0.9979 0.0012
vn 0.0615 0.9981 -0.0000
vn 0.0654 0.9977 0.0187
vn 0.0433 0.9990 0.0076
vn 0.0185 0.9998 0.0008
vn -0.0075 1.0000 -0.0005
vn -0.0531 0.9986 0.0076
vn -0.0654 0.9977 0.0171
vn -0.0994 0.9950 0.0037
vn -0.1242 0.9923 -0.0005
vn -0.0423 0.9991 -0.0000
vn -0.0615 0.9981 0.0023
vn -0.0531 0.9986 -0.0000
vn -0.0411 0.9992 -0.0003
vn -0.0289 0.9996 -0.0031
vn -0.0203 0.9998 -0.0056
vn -0.0071 0.9999 -0.0105
vn -0.0000 0.9999 -0.0141
vn 0.0238 0.9997 -0.0050
vn -0.2551 0.9669 -0.0087
vn -0.1950 0.9807 0.0107
vn -0.2567 0.9660 0.0321
vn -0.1498 0.9887 0.0010
vn -0.3146 0.9491 0.0136
vn -0.3214 0.9468 0.0185
vn -0.3490 0.9371 0.0043
vn -0.3820 0.9242 -0.0015
vn -0.3734 0.9277 -0.0000
vn -0.4036 0.9150 -0.0000
vn -0.4492 0.8934 0.0021
vn -0.3006 0.9537 0.0055
vn -0.3624 0.9320 -0.0033
vn -0.4035 0.9149 -0.0054
vn -0.3820 0.9241 -0.0132
vn -0.3788 0.9253 -0.0152
vn -0.3490 0.9371 -0.0028
vn -0.3146 0.9492 0.0012
vn -0.2562 0.9666 -0.0089
vn -0.2465 0.9692 -0.0005
vn -0.1898 0.9818 0.0001
vn -0.1754 0.9845 -0.0005
vn -0.1792 0.9838 -0.0014
vn -0.1676 0.9859 -0.0000
vn -0.1498 0.9887 -0.0067
vn -0.1291 0.9915 -0.0158
vn -0.1242 0.9922 -0.0131
vn -0.0994 0.9950 -0.0040
vn -0.1678 0.9858 -0.0000
vn -0.1800 0.9837 0.0017
vn -0.1914 0.9815 0.0048
vn -0.5121 -0.8589 0.0004
vn -0.4603 -0.8878 -0.0020
vn -0.4422 -0.8968 0.0151
vn -0.3988 -0.9170 -0.0000
vn -0.3653 -0.9309 0.0001
vn -0.3319 -0.9433 0.0116
vn -0.3214 -0.9468 0.0187
vn -0.3026 -0.9531 0.0084
vn -0.2768 -0.9609 0.0008
vn -0.3493 -0.9370 -0.0000
vn -0.3492 -0.9371 -0.0000
vn -0.3028 -0.9531 -0.0000
vn -0.3319 -0.9433 -0.0061
vn -0.3368 -0.9415 -0.0086
vn -0.3653 -0.9309 -0.0001
vn -0.3988 -0.9170 0.0001
vn -0.4169 -0.9090 -0.0000
vn -0.4276 -0.9039 -0.0085
vn -0.4571 -0.8894 0.0073
vn -0.4856 -0.8742 0.0010
vn -0.5139 -0.8578 -0.0005
vn -0.5227 -0.8525 -0.0015
vn -0.5231 -0.8522 -0.0013
vn -0.5325 -0.8465 -0.0000
vn -0.5282 -0.8491 -0.0036
vn -0.5484 -0.8362 0.0004
vn -0.5694 -0.8220 -0.0004
vn -0.5825 -0.8128 -0.0040
vn -0.5901 -0.8074 -0.0014
vn -0.6042 -0.7968 -0.0000
vn -0.5901 -0.8074 0.0017
vn -0.5694 -0.8220 0.0098
vn -0.5555 -0.8313 0.0189
vn -0.5484 -0.8361 0.0136
vn -0.5224 -0.8527 0.0016
vn -0.5221 -0.8529 0.0017
vn -0.5329 -0.8462 -0.0000
vn -0.0624 -0.9980 -0.0036
vn -0.1005 -0.9949 0.0013
vn -0.1143 -0.9934 -0.0010
vn -0.1364 -0.9907 0.0012
vn -0.1629 -0.9866 -0.0039
vn -0.1723 -0.9850 -0.0008
vn -0.2092 -0.9779 0.0006
vn -0.2271 -0.9739 -0.0042
vn -0.2454 -0.9694 0.0004
vn -0.2744 -0.9616 -0.0003
vn -0.2695 -0.9630 -0.0014
vn -0.2803 -0.9599 -0.0003
vn -0.2886 -0.9575 -0.0000
vn -0.2787 -0.9604 -0.0001
vn -0.2982 -0.9545 -0.0000
vn -0.2526 -0.9676 -0.0006
vn -0.2284 -0.9736 0.0036
vn -0.1950 -0.9806 0.0171
vn -0.1782 -0.9840 0.0039
vn -0.1615 -0.9869 0.0014
vn -0.2144 -0.9767 -0.0000
vn -0.2090 -0.9779 0.0001
vn -0.1976 -0.9803 0.0008
vn -0.1819 -0.9833 0.0030
vn -0.1365 -0.9906 -0.0002
vn -0.1114 -0.9938 0.0004
vn -0.0894 -0.9960 0.0028
vn -0.0907 -0.9959 0.0031
vn -0.0745 -0.9972 0.0008
vn -0.0633 -0.9980 0.0003
vn -0.0624 -0.9981 -0.0000
vn -0.0654 -0.9977 0.0187
vn -0.0433 -0.9990 0.0076
vn -0.0185 -0.9998 0.0008
vn 0.0075 -1.0000 -0.0005
vn 0.0531 -0.9986 0.0076
vn 0.0654 -0.9977 0.0171
vn 0.0994 -0.9950 0.0037
vn 0.1242 -0.9923 -0.0005
vn 0.0531 -0.9986 -0.0000
vn 0.0486 -0.9988 -0.0036
vn 0.0490 -0.9988 -0.0039
vn 0.0382 -0.9993 -0.0027
vn 0.0120 -0.9999 -0.0005
vn -0.0020 -1.0000 0.0001
vn -0.0251 -0.9997 -0.0013
vn -0.0490 -0.9988 -0.0093
vn 0.2551 -0.9669 -0.0087
vn 0.1950 -0.9807 0.0107
vn 0.2567 -0.9660 0.0321
vn 0.1498 -0.9887 0.0010
vn 0.3146 -0.9491 0.0136
vn 0.3214 -0.9468 0.0185
vn 0.3490 -0.9371 0.0043
vn 0.3820 -0.9242 -0.0015
vn 0.3625 -0.9320 0.0033
vn 0.3734 -0.9277 -0.0000
vn 0.4036 -0.9150 -0.0000
vn 0.4036 -0.9150 -0.0019
vn 0.4216 -0.9068 -0.0061
vn 0.4276 -0.9039 -0.0090
vn 0.4476 -0.8942 -0.0020
vn 0.4740 -0.8805 0.0007
vn 0.4856 -0.8742 -0.0011
vn 0.4944 -0.8692 0.0001
vn 0.5240 -0.8517 -0.0004
vn 0.5281 -0.8492 -0.0019
vn 0.5662 -0.8243 0.0014
vn 0.5825 -0.8128 -0.0030
vn 0.6072 -0.7945 0.0018
vn 0.6261 -0.7797 -0.0014
vn 0.6217 -0.7833 -0.0003
vn 0.6341 -0.7732 0.0001
vn 0.6382 -0.7699 -0.0000
vn 0.6516 -0.7586 -0.0011
vn 0.6715 -0.7409 -0.0088
vn 0.6741 -0.7386 -0.0071
vn 0.6953 -0.7188 -0.0002
vn 0.7044 -0.7098 -0.0000
vn 0.6695 -0.7428 0.0003
vn 0.6593 -0.7517 0.0127
vn 0.6097 -0.7926 -0.0032
vn 0.5661 -0.8243 0.0091
vn 0.5555 -0.8313 0.0181
vn 0.5213 -0.8534 -0.0005
vn 0.4492 -0.8934 0.0011
vn 0.4492 -0.8934 0.0021
vn 0.3004 -0.9538 -0.0055
vn 0.3820 -0.9242 0.0012
vn 0.3490 -0.9371 -0.0038
vn 0.3369 -0.9415 -0.0092
vn 0.3146 -0.9492 -0.0013
vn 0.2744 -0.9616 0.0013
vn 0.2536 -0.9673 0.0079
vn 0.2271 -0.9739 -0.0001
vn 0.1898 -0.9818 -0.0000
vn 0.1761 -0.9844 -0.0007
vn 0.1792 -0.9838 -0.0014
vn 0.1676 -0.9859 -0.0000
vn 0.1629 -0.9866 -0.0041
vn 0.1498 -0.9887 -0.0008
vn 0.1242 -0.9923 0.0005
vn 0.1143 -0.9934 -0.0010
vn 0.0994 -0.9950 0.0006
vn 0.1678 -0.9858 -0.0000
vn 0.1800 -0.9837 0.0017
vn 0.1914 -0.9815 0.0048
vn -0.4492 0.8934 0.0011
vn -0.5213 0.8534 -0.0005
vn -0.5555 0.8313 0.0181
vn -0.5661 0.8243 0.0091
vn -0.6097 0.7926 -0.0032
vn -0.6593 0.7517 0.0127
vn -0.6695 0.7428 0.0003
vn -0.7259 0.6878 -0.0001
vn -0.7012 0.7128 -0.0158
vn -0.6952 0.7187 -0.0113
vn -0.6741 0.7386 -0.0020
vn -0.6516 0.7586 0.0008
vn -0.6344 0.7730 -0.0021
vn -0.6277 0.7785 -0.0035
vn -0.6180 0.7861 -0.0057
vn -0.6072 0.7945 -0.0085
vn -0.6032 0.7975 -0.0109
vn -0.5662 0.8243 0.0008
vn -0.5240 0.8517 -0.0010
vn -0.5086 0.8609 -0.0069
vn -0.4951 0.8687 -0.0157
vn -0.4740 0.8805 -0.0055
vn -0.4476 0.8942 0.0004
vn -0.4216 0.9068 -0.0004
vn 0.9979 -0.0654 -0.0000
vn 0.9979 -0.0645 -0.0002
vn 0.9992 0.0396 -0.0002
vn 0.9867 -0.1626 -0.0000
vn 0.9808 -0.1951 0.0044
vn 0.9739 -0.2270 -0.0000
vn 0.9617 -0.2742 -0.0000
vn 0.9469 -0.3215 0.0033
vn 0.9416 -0.3367 -0.0000
vn 0.9041 -0.4274 -0.0000
vn 0.8969 -0.4423 0.0033
vn 0.8741 -0.4857 -0.0000
vn 0.8493 -0.5280 -0.0000
vn 0.8315 -0.5556 0.0044
vn 0.8129 -0.5823 -0.0000
vn 0.7834 -0.6215 -0.0000
vn 0.7518 -0.6594 0.0033
vn 0.7411 -0.6714 -0.0000
vn 0.4422 -0.8969 0.0088
vn -0.6217 -0.7832 -0.0000
vn -0.6594 -0.7518 0.0033
vn -0.6715 -0.7410 -0.0000
vn -0.7411 -0.6714 -0.0000
vn -0.7518 -0.6594 0.0033
vn -0.7835 -0.6213 -0.0000
vn -0.8129 -0.5824 -0.0000
vn -0.8315 -0.5556 0.0044
vn -0.8492 -0.5280 -0.0000
vn -0.8742 -0.4856 -0.0000
vn -0.8969 -0.4423 0.0033
vn -0.9041 -0.4274 -0.0000
vn -0.9416 -0.3367 -0.0000
vn -0.9469 -0.3215 0.0033
vn -0.9616 -0.2744 -0.0000
vn -0.9739 -0.2269 -0.0000
vn -0.9808 -0.1951 0.0045
vn -0.9867 -0.1626 -0.0000
vn -0.9979 -0.0654 -0.0000
vn -0.9979 -0.0645 -0.0002
vn -0.9992 0.0396 -0.0002
vn -0.9978 0.0654 0.0042
vn -0.9893 0.1455 -0.0041
vn -0.9808 0.1951 0.0042
vn -0.9623 0.2721 -0.0042
vn -0.9469 0.3214 0.0043
vn -0.9191 0.3940 -0.0042
vn -0.8969 0.4423 0.0043
vn -0.8604 0.5095 -0.0042
vn -0.8315 0.5556 0.0043
vn -0.7875 0.6164 -0.0043
vn -0.7518 0.6594 0.0044
vn -0.4422 0.8969 0.0088
vn 0.6594 0.7518 0.0044
vn 0.7013 0.7129 -0.0043
vn 0.7518 0.6594 0.0044
vn 0.7875 0.6164 -0.0043
vn 0.8315 0.5556 0.0043
vn 0.8604 0.5095 -0.0042
vn 0.8969 0.4423 0.0043
vn 0.9191 0.3940 -0.0042
vn 0.9469 0.3214 0.0043
vn 0.9623 0.2721 -0.0042
vn 0.9808 0.1951 0.0042
vn 0.9893 0.1455 -0.0041
vn 0.9978 0.0654 0.0042
vn -0.3026 -0.9531 -0.0000
vn 0.5565 -0.8309 -0.0000
vn 0.5481 -0.8364 0.0001
vn 0.5421 -0.8403 -0.0009
vn 0.5381 -0.8429 -0.0028
vn 0.5362 -0.8441 -0.0056
vn 0.5661 -0.8243 -0.0016
vn 0.5664 -0.8242 -0.0015
vn 0.5759 -0.8175 0.0001
vn 0.5842 -0.8116 0.0002
vn 0.5892 -0.8080 -0.0006
vn 0.5939 -0.8045 -0.0031
vn 0.5953 -0.8035 -0.0052
vn -0.5953 0.8035 0.0003
vn -0.5759 0.8175 0.0001
vn -0.5664 0.8242 -0.0015
vn -0.5661 0.8243 -0.0016
vn -0.5565 0.8309 -0.0000
vn -0.5362 0.8441 0.0002
s 0
f 120//1 19//1 121//1
f 121//2 19//2 122//2
f 121//3 122//3 123//3
f 123//3 122//3 124//3
f 123//4 124//4 83//4
f 83//5 124//5 125//5
f 83//6 125//6 126//6
f 120//7 127//7 19//7
f 19//8 127//8 20//8
f 20//9 127//9 128//9
f 20//10 128//10 129//10
f 130//11 131//11 129//11
f 129//12 131//12 21//12
f 129//13 21//13 20//13
f 130//14 132//14 131//14
f 131//15 132//15 133//15
f 131//16 134//16 21//16
f 21//17 134//17 135//17
f 21//18 135//18 136//18
f 21//19 136//19 22//19
f 22//20 136//20 137//20
f 22//21 137//21 80//21
f 80//22 137//22 138//22
f 80//23 138//23 139//23
f 80//24 139//24 81//24
f 81//25 139//25 140//25
f 81//26 140//26 141//26
f 141//27 140//27 142//27
f 142//28 140//28 143//28
f 141//29 144//29 81//29
f 81//30 144//30 145//30
f 81//31 145//31 82//31
f 82//32 145//32 146//32
f 82//33 146//33 147//33
f 147//34 123//34 82//34
f 82//35 123//35 83//35
f 123//36 148//36 121//36
f 121//37 148//37 149//37
f 149//38 148//38 150//38
f 151//39 152//39 17//39
f 17//40 152//40 153//40
f 17//41 153//41 18//41
f 18//42 153//42 154//42
f 18//43 154//43 155//43
f 155//44 156//44 18//44
f 18//45 156//45 19//45
f 19//46 156//46 157//46
f 19//47 157//47 158//47
f 158//48 159//48 19//48
f 19//49 159//49 122//49
f 126//50 160//50 83//50
f 83//51 160//51 84//51
f 84//52 160//52 161//52
f 84//53 161//53 162//53
f 163//54 164//54 160//54
f 160//55 164//55 165//55
f 160//56 165//56 166//56
f 166//57 161//57 160//57
f 162//58 167//58 84//58
f 84//59 167//59 168//59
f 84//60 168//60 169//60
f 169//61 168//61 170//61
f 169//62 170//62 171//62
f 172//63 173//63 171//63
f 171//64 173//64 169//64
f 84//65 169//65 85//65
f 85//66 169//66 174//66
f 85//67 174//67 175//67
f 175//68 176//68 85//68
f 85//69 176//69 177//69
f 85//70 177//70 86//70
f 86//71 177//71 178//71
f 86//72 178//72 179//72
f 180//73 16//73 176//73
f 176//74 16//74 181//74
f 176//75 181//75 177//75
f 180//76 182//76 16//76
f 16//77 182//77 183//77
f 16//78 183//78 184//78
f 184//79 185//79 16//79
f 16//80 185//80 17//80
f 17//81 185//81 151//81
f 186//82 87//82 187//82
f 187//83 87//83 86//83
f 187//84 86//84 188//84
f 188//85 86//85 179//85
f 186//86 189//86 87//86
f 87//87 189//87 88//87
f 88//88 189//88 190//88
f 88//89 190//89 191//89
f 192//90 193//90 191//90
f 191//91 193//91 194//91
f 191//92 194//92 195//92
f 196//93 197//93 192//93
f 192//94 197//94 193//94
f 194//95 193//95 13//95
f 13//96 193//96 198//96
f 13//97 198//97 14//97
f 14//98 198//98 199//98
f 14//99 199//99 200//99
f 14//100 200//100 15//100
f 15//101 200//101 201//101
f 15//102 201//102 202//102
f 15//103 202//103 203//103
f 203//104 202//104 204//104
f 203//105 204//105 205//105
f 203//106 206//106 15//106
f 15//107 206//107 16//107
f 16//108 206//108 207//108
f 16//109 207//109 181//109
f 208//110 209//110 188//110
f 188//111 209//111 210//111
f 188//112 210//112 187//112
f 211//113 212//113 105//113
f 105//114 212//114 213//114
f 105//115 213//115 106//115
f 106//116 213//116 214//116
f 106//117 214//117 215//117
f 215//118 216//118 106//118
f 106//119 216//119 107//119
f 107//120 216//120 217//120
f 107//121 217//121 218//121
f 219//122 220//122 216//122
f 216//123 220//123 221//123
f 216//124 221//124 67//124
f 67//125 221//125 222//125
f 67//126 222//126 66//126
f 66//127 222//127 223//127
f 66//128 223//128 224//128
f 219//129 225//129 220//129
f 66//130 224//130 65//130
f 65//131 224//131 226//131
f 65//132 226//132 64//132
f 64//133 226//133 227//133
f 64//134 227//134 228//134
f 228//135 227//135 229//135
f 228//136 229//136 230//136
f 64//137 228//137 63//137
f 63//138 228//138 231//138
f 63//139 231//139 232//139
f 63//140 232//140 62//140
f 62//141 232//141 233//141
f 62//142 233//142 104//142
f 104//142 233//142 234//142
f 104//143 234//143 235//143
f 235//144 236//144 104//144
f 104//145 236//145 105//145
f 105//146 236//146 237//146
f 105//147 237//147 211//147
f 211//148 237//148 238//148
f 238//149 237//149 239//149
f 240//150 241//150 71//150
f 71//151 241//151 242//151
f 71//152 242//152 70//152
f 70//153 242//153 243//153
f 70//154 243//154 69//154
f 69//155 243//155 244//155
f 69//156 244//156 245//156
f 69//157 245//157 68//157
f 68//158 245//158 246//158
f 68//159 246//159 67//159
f 67//160 246//160 247//160
f 67//161 247//161 248//161
f 248//162 249//162 67//162
f 67//163 249//163 250//163
f 67//164 250//164 217//164
f 218//165 251//165 107//165
f 107//166 251//166 252//166
f 107//167 252//167 108//167
f 108//168 252//168 253//168
f 108//169 253//169 254//169
f 255//170 256//170 252//170
f 252//171 256//171 257//171
f 252//172 257//172 258//172
f 258//173 253//173 252//173
f 254//174 259//174 108//174
f 108//175 259//175 260//175
f 108//176 260//176 261//176
f 261//177 260//177 262//177
f 261//178 262//178 263//178
f 264//179 265//179 263//179
f 263//180 265//180 261//180
f 108//181 261//181 109//181
f 109//182 261//182 266//182
f 109//183 266//183 267//183
f 267//184 268//184 109//184
f 109//185 268//185 269//185
f 109//186 269//186 110//186
f 110//187 269//187 270//187
f 110//188 270//188 271//188
f 268//189 272//189 269//189
f 269//189 272//189 273//189
f 273//190 272//190 5//190
f 273//191 5//191 28//191
f 272//192 274//192 5//192
f 5//193 274//193 275//193
f 5//194 275//194 276//194
f 276//195 240//195 5//195
f 5//196 240//196 71//196
f 277//197 111//197 278//197
f 278//198 111//198 110//198
f 278//199 110//199 279//199
f 279//200 110//200 271//200
f 277//201 280//201 111//201
f 111//202 280//202 112//202
f 112//203 280//203 281//203
f 112//204 281//204 282//204
f 283//205 284//205 282//205
f 282//206 284//206 285//206
f 282//207 285//207 286//207
f 286//208 285//208 33//208
f 286//209 33//209 287//209
f 287//210 33//210 34//210
f 287//211 34//211 288//211
f 288//212 34//212 289//212
f 289//213 34//213 35//213
f 289//214 35//214 290//214
f 290//215 35//215 291//215
f 291//216 35//216 36//216
f 291//217 36//217 292//217
f 292//218 36//218 37//218
f 292//219 37//219 293//219
f 293//220 37//220 294//220
f 294//221 37//221 38//221
f 294//222 38//222 295//222
f 295//223 38//223 296//223
f 296//224 38//224 297//224
f 297//225 38//225 39//225
f 297//226 39//226 298//226
f 298//227 39//227 299//227
f 299//228 39//228 115//228
f 299//229 115//229 300//229
f 300//230 115//230 114//230
f 300//231 114//231 301//231
f 301//232 114//232 302//232
f 302//233 114//233 113//233
f 302//234 113//234 303//234
f 303//235 113//235 282//235
f 303//236 282//236 286//236
f 283//237 304//237 284//237
f 285//238 305//238 33//238
f 33//239 305//239 306//239
f 33//240 306//240 32//240
f 32//241 306//241 307//241
f 32//242 307//242 31//242
f 31//243 307//243 308//243
f 31//244 308//244 30//244
f 30//245 308//245 309//245
f 30//246 309//246 310//246
f 310//247 309//247 311//247
f 310//248 311//248 312//248
f 30//249 310//249 29//249
f 29//250 310//250 313//250
f 29//251 313//251 314//251
f 29//252 314//252 28//252
f 28//253 314//253 273//253
f 315//254 316//254 279//254
f 279//255 316//255 317//255
f 279//256 317//256 278//256
f 191//257 195//257 89//257
f 89//258 195//258 318//258
f 89//259 318//259 90//259
f 90//260 318//260 319//260
f 90//261 319//261 320//261
f 90//262 320//262 91//262
f 91//263 320//263 321//263
f 91//264 321//264 7//264
f 7//265 321//265 6//265
f 6//266 321//266 322//266
f 6//267 322//267 323//267
f 323//268 324//268 6//268
f 6//269 324//269 325//269
f 6//270 325//270 326//270
f 326//271 327//271 6//271
f 6//272 327//272 328//272
f 6//273 328//273 12//273
f 12//274 328//274 329//274
f 12//275 329//275 330//275
f 330//276 331//276 12//276
f 12//277 331//277 13//277
f 13//278 331//278 332//278
f 13//279 332//279 333//279
f 333//280 194//280 13//280
f 72//281 49//281 73//281
f 73//282 49//282 2//282
f 73//283 2//283 1//283
f 49//284 72//284 48//284
f 48//285 72//285 119//285
f 48//286 119//286 47//286
f 47//287 119//287 46//287
f 46//288 119//288 118//288
f 46//289 118//289 45//289
f 45//290 118//290 44//290
f 44//291 118//291 117//291
f 44//292 117//292 43//292
f 43//293 117//293 42//293
f 42//294 117//294 116//294
f 42//295 116//295 41//295
f 41//296 116//296 40//296
f 40//297 116//297 115//297
f 40//298 115//298 39//298
f 113//299 112//299 282//299
f 62//300 104//300 61//300
f 61//301 104//301 103//301
f 61//302 103//302 60//302
f 60//303 103//303 59//303
f 59//304 103//304 102//304
f 59//305 102//305 58//305
f 58//306 102//306 57//306
f 57//307 102//307 101//307
f 57//308 101//308 56//308
f 56//309 101//309 55//309
f 55//310 101//310 100//310
f 55//311 100//311 54//311
f 54//312 100//312 53//312
f 53//313 100//313 99//313
f 53//314 99//314 52//314
f 52//315 99//315 51//315
f 51//316 99//316 98//316
f 51//317 98//317 50//317
f 50//318 98//318 97//318
f 50//319 97//319 4//319
f 4//320 97//320 3//320
f 3//321 97//321 96//321
f 3//322 96//322 11//322
f 11//323 96//323 95//323
f 11//324 95//324 10//324
f 10//325 95//325 94//325
f 10//326 94//326 9//326
f 9//327 94//327 93//327
f 9//328 93//328 8//328
f 8//329 93//329 92//329
f 8//330 92//330 7//330
f 7//331 92//331 91//331
f 89//332 88//332 191//332
f 80//333 79//333 22//333
f 22//334 79//334 23//334
f 23//335 79//335 78//335
f 23//336 78//336 24//336
f 24//337 78//337 77//337
f 24//338 77//338 25//338
f 25//339 77//339 76//339
f 25//340 76//340 26//340
f 26//341 76//341 75//341
f 26//342 75//342 27//342
f 27//343 75//343 74//343
f 27//344 74//344 1//344
f 1//345 74//345 73//345
f 67//346 217//346 216//346
f 347//347 334//347 339//347
f 339//348 334//348 335//348
f 339//349 335//349 336//349
f 336//350 337//350 339//350
f 339//351 337//351 338//351
f 339//352 340//352 347//352
f 347//353 340//353 346//353
f 346//354 340//354 345//354
f 345//355 340//355 344//355
f 344//356 340//356 343//356
f 343//357 340//357 342//357
f 342//358 340//358 341//358
f 349//359 348//359 350//359
f 350//360 348//360 355//360
f 350//361 355//361 354//361
f 350//362 354//362 351//362
f 351//363 354//363 353//363
f 351//364 353//364 352//364
