# converted from Collada by convert_husky_meshes.py (1543 verts, 3078 tris)
v -0.282594 -0.145500 0.217101
v -0.282658 -0.125500 0.217178
v -0.282722 -0.145500 0.217254
v -0.297979 -0.175500 0.204322
v -0.397500 -0.145500 0.120683
v -0.382244 -0.175500 0.133615
v -0.397629 -0.145500 0.120836
v -0.397564 -0.125500 0.120760
v -0.324934 -0.160843 0.180373
v -0.325178 -0.160650 0.180768
v -0.324773 -0.161015 0.180838
v -0.324878 -0.160716 0.181082
v -0.325699 -0.160733 0.179731
v -0.326126 -0.160619 0.179947
v -0.325779 -0.160583 0.180232
v -0.326542 -0.161157 0.179023
v -0.327057 -0.161109 0.179193
v -0.326762 -0.160768 0.179458
v -0.327110 -0.162076 0.178546
v -0.327632 -0.162194 0.178713
v -0.327537 -0.161668 0.178841
v -0.327250 -0.163242 0.178429
v -0.327707 -0.163459 0.178654
v -0.327649 -0.162983 0.178669
v -0.326842 -0.164489 0.178772
v -0.327268 -0.164617 0.179020
v -0.327487 -0.164270 0.178841
v -0.327218 -0.164130 0.178785
v -0.326093 -0.165157 0.179400
v -0.326390 -0.165206 0.179697
v -0.326579 -0.164985 0.179322
v -0.326809 -0.165278 0.179456
v -0.325329 -0.165267 0.180041
v -0.325437 -0.165277 0.180460
v -0.325813 -0.165376 0.180209
v -0.324485 -0.164843 0.180749
v -0.324551 -0.164889 0.181297
v -0.324928 -0.165018 0.180949
v -0.323917 -0.163925 0.181226
v -0.323975 -0.163858 0.181804
v -0.324238 -0.164198 0.181527
v -0.323777 -0.162758 0.181344
v -0.324024 -0.162576 0.181680
v -0.323940 -0.163018 0.181778
v -0.324685 -0.161809 0.180915
v -0.324185 -0.161511 0.181001
v -0.324353 -0.162190 0.180923
v -0.324133 -0.161870 0.181374
v -0.325274 -0.161320 0.180421
v -0.324823 -0.161521 0.180529
v -0.325972 -0.161281 0.179836
v -0.325486 -0.161248 0.179972
v -0.326591 -0.161703 0.179316
v -0.326165 -0.161444 0.179402
v -0.326965 -0.162473 0.179002
v -0.326677 -0.162058 0.178972
v -0.326994 -0.163383 0.178977
v -0.326886 -0.162923 0.178797
v -0.326671 -0.164191 0.179249
v -0.326736 -0.163810 0.178923
v -0.326082 -0.164680 0.179743
v -0.326266 -0.164479 0.179317
v -0.325384 -0.164718 0.180329
v -0.325603 -0.164752 0.179874
v -0.324765 -0.164297 0.180848
v -0.324924 -0.164555 0.180443
v -0.324391 -0.163527 0.181162
v -0.324411 -0.163942 0.180874
v -0.325825 -0.165438 0.180830
v -0.325059 -0.165048 0.181470
v -0.327995 -0.163142 0.179010
v -0.324515 -0.164396 0.181923
v -0.326629 -0.160584 0.180147
v -0.327655 -0.164415 0.179287
v -0.324836 -0.161179 0.181658
v -0.325982 -0.160534 0.180688
v -0.327381 -0.161156 0.179518
v -0.327838 -0.162024 0.179141
v -0.326729 -0.165311 0.180071
v -0.324229 -0.162587 0.182166
v -0.327124 -0.165203 0.179681
v -0.327947 -0.163846 0.179007
v -0.327616 -0.164657 0.179265
v -0.325169 -0.160694 0.181318
v -0.324186 -0.163813 0.182145
v -0.324467 -0.161415 0.181875
v -0.326103 -0.160373 0.180504
v -0.327071 -0.160722 0.179613
v -0.324976 -0.165298 0.181368
v -0.328043 -0.162974 0.178720
v -0.326456 -0.165592 0.180129
v -0.327550 -0.161264 0.179109
v -0.325704 -0.165644 0.180707
v -0.323883 -0.162681 0.182100
v -0.324125 -0.161858 0.182002
v -0.327916 -0.162180 0.178785
v -0.324308 -0.164627 0.181751
v -0.324631 -0.160926 0.181443
v -0.325584 -0.160364 0.180667
v -0.326424 -0.160407 0.179963
v -0.323956 -0.163628 0.182058
v -0.327801 -0.163987 0.178769
v -0.324706 -0.165152 0.181260
v -0.327427 -0.164842 0.179154
v -0.326059 -0.165638 0.180160
v -0.325241 -0.165443 0.180740
v -0.324130 -0.161766 0.181659
v -0.324336 -0.161374 0.181484
v -0.327495 -0.163433 0.178726
v -0.326615 -0.160985 0.179456
v -0.327097 -0.164507 0.179060
v -0.327425 -0.162243 0.178777
v -0.326912 -0.161256 0.179208
v -0.324603 -0.164744 0.181146
v -0.324090 -0.163756 0.181577
v -0.324425 -0.161493 0.181302
v -0.325181 -0.160823 0.180667
v -0.327254 -0.161832 0.178914
v -0.324361 -0.162616 0.181187
v -0.324202 -0.163077 0.181049
v -0.323974 -0.161850 0.180254
v -0.325279 -0.161199 0.179159
v -0.326169 -0.161972 0.178431
v -0.326438 -0.163288 0.178186
v -0.325557 -0.164704 0.178925
v -0.324177 -0.164416 0.180083
v -0.323720 -0.163171 0.180486
v -0.324113 -0.164359 0.179257
v -0.323598 -0.163732 0.179688
v -0.323503 -0.162427 0.179750
v -0.324250 -0.161553 0.179139
v -0.325241 -0.161668 0.178292
v -0.325780 -0.162771 0.177855
v -0.325623 -0.163795 0.177988
v -0.324898 -0.164500 0.178590
v -0.317909 -0.164459 0.171803
v -0.319188 -0.164169 0.170730
v -0.319561 -0.162960 0.170417
v -0.319136 -0.161773 0.170774
v -0.318158 -0.161503 0.171594
v -0.317476 -0.162049 0.172167
v -0.317216 -0.163177 0.172385
v -0.282722 0.145500 0.217254
v -0.282658 0.125500 0.217178
v -0.282594 0.145500 0.217101
v -0.297979 0.175500 0.204322
v -0.397629 0.145500 0.120836
v -0.382244 0.175500 0.133616
v -0.397500 0.145500 0.120683
v -0.397564 0.125500 0.120760
v -0.274228 0.205237 0.222049
v -0.275248 0.205237 0.223265
v -0.274135 0.203237 0.222148
v -0.275248 0.203237 0.223265
v -0.345921 -0.145500 0.161891
v -0.329681 -0.145500 0.175518
v -0.348219 -0.151300 0.159963
v -0.345921 -0.134500 0.161891
v -0.404346 -0.097350 0.112857
v -0.329681 -0.134500 0.175518
v -0.378095 -0.145500 0.134894
v -0.404355 -0.205237 0.112846
v -0.378095 -0.134500 0.134894
v -0.373499 -0.134500 0.138751
v -0.373498 -0.145500 0.138751
v -0.371200 -0.145500 0.140679
v -0.371200 -0.134500 0.140679
v -0.366604 -0.134500 0.144536
v -0.366604 -0.145500 0.144536
v -0.365455 -0.151300 0.145500
v -0.364306 -0.145500 0.146464
v -0.364306 -0.134500 0.146464
v -0.359710 -0.134500 0.150321
v -0.355114 -0.134500 0.154178
v -0.359710 -0.145500 0.150321
v -0.355114 -0.145500 0.154178
v -0.350517 -0.134500 0.158034
v -0.350517 -0.145500 0.158034
v -0.311928 -0.151738 0.190414
v -0.312661 -0.148489 0.189800
v -0.298588 -0.151385 0.201610
v -0.297960 -0.148190 0.202135
v -0.274025 -0.097350 0.222207
v -0.298223 -0.144862 0.201914
v -0.299343 -0.141852 0.200975
v -0.301183 -0.139526 0.199432
v -0.304193 -0.137920 0.196906
v -0.307341 -0.138235 0.194264
v -0.309646 -0.139696 0.192328
v -0.311431 -0.142098 0.190832
v -0.312477 -0.145152 0.189954
v -0.307705 -0.156679 0.193957
v -0.304564 -0.157082 0.196595
v -0.310457 -0.154416 0.191648
v -0.274228 -0.205237 0.222049
v -0.302099 -0.156166 0.198662
v -0.300023 -0.154204 0.200405
v -0.274210 -0.203237 0.222092
v -0.379115 -0.134500 0.136110
v -0.405819 -0.097350 0.113668
v -0.379115 -0.145500 0.136110
v -0.405797 -0.205237 0.113683
v -0.374519 -0.145500 0.139967
v -0.372221 -0.145500 0.141895
v -0.374519 -0.134500 0.139967
v -0.372221 -0.134500 0.141895
v -0.367625 -0.145500 0.145752
v -0.366476 -0.151300 0.146716
v -0.367625 -0.134500 0.145752
v -0.365326 -0.134500 0.147680
v -0.365326 -0.145500 0.147680
v -0.360730 -0.145500 0.151537
v -0.358432 -0.151300 0.153465
v -0.360730 -0.134500 0.151537
v -0.356134 -0.134500 0.155394
v -0.356134 -0.145500 0.155394
v -0.351538 -0.145500 0.159250
v -0.346941 -0.145500 0.163107
v -0.351538 -0.134500 0.159250
v -0.346941 -0.134500 0.163107
v -0.275113 -0.203237 0.223405
v -0.299002 -0.146028 0.203333
v -0.299258 -0.150233 0.203118
v -0.313623 -0.145607 0.191065
v -0.330701 -0.134500 0.176734
v -0.330701 -0.145500 0.176734
v -0.313463 -0.150122 0.191199
v -0.312319 -0.141853 0.192159
v -0.302488 -0.139215 0.200408
v -0.300231 -0.142098 0.202302
v -0.274835 -0.097350 0.223595
v -0.310479 -0.139524 0.193703
v -0.308141 -0.138158 0.195666
v -0.305583 -0.137918 0.197810
v -0.312379 -0.153018 0.192109
v -0.300287 -0.153033 0.202254
v -0.275248 -0.205237 0.223265
v -0.302771 -0.155998 0.200170
v -0.305813 -0.157108 0.197619
v -0.308362 -0.156764 0.195479
v -0.310666 -0.155304 0.193546
v -0.404387 -0.205237 0.044345
v -0.404382 0.205237 0.044330
v -0.404413 0.092350 0.070000
v -0.404353 0.205237 0.112833
v -0.404360 0.097350 0.112826
v -0.404413 0.097350 0.075000
v -0.404413 0.092372 0.074273
v -0.404413 0.092869 0.074924
v -0.404413 -0.097350 0.075000
v -0.404413 -0.093077 0.074978
v -0.404413 -0.092426 0.074481
v -0.404413 -0.092350 0.070000
v -0.342319 0.144993 0.164913
v -0.341306 0.142102 0.165764
v -0.339333 0.139495 0.167419
v -0.274094 0.097350 0.222157
v -0.331093 0.139486 0.174333
v -0.331148 0.155526 0.174287
v -0.342537 0.148897 0.164731
v -0.339394 0.155483 0.167368
v -0.341425 0.152660 0.165664
v -0.299097 0.145884 0.201181
v -0.298249 0.146722 0.201893
v -0.298567 0.148773 0.201626
v -0.299237 0.149105 0.201064
v -0.298122 0.147823 0.201999
v -0.299779 0.151204 0.200609
v -0.301071 0.153440 0.199525
v -0.329017 0.142330 0.176075
v -0.311165 0.144557 0.191055
v -0.309682 0.141701 0.192298
v -0.307391 0.139783 0.194221
v -0.307086 0.155294 0.194477
v -0.309008 0.154049 0.192865
v -0.310492 0.152025 0.191619
v -0.311513 0.148732 0.190763
v -0.304184 0.139459 0.196913
v -0.301275 0.141257 0.199353
v -0.299694 0.144022 0.200680
v -0.302867 0.154969 0.198018
v -0.304956 0.155613 0.196265
v -0.328115 0.150014 0.176832
v -0.329138 0.152908 0.175973
v -0.327894 0.146098 0.177017
v -0.274829 0.097350 0.223604
v -0.332281 0.139450 0.175409
v -0.405814 0.097350 0.113626
v -0.340387 0.139485 0.168607
v -0.299132 0.147743 0.203224
v -0.299301 0.146651 0.203083
v -0.300203 0.145853 0.202325
v -0.342446 0.142341 0.166880
v -0.343393 0.145268 0.166085
v -0.299539 0.148721 0.202882
v -0.300799 0.143796 0.201825
v -0.343506 0.149297 0.165990
v -0.405840 0.205237 0.113591
v -0.342326 0.152897 0.166979
v -0.332085 0.155481 0.175573
v -0.311403 0.152231 0.192927
v -0.309399 0.154636 0.194609
v -0.302509 0.141032 0.200390
v -0.304911 0.139590 0.198376
v -0.307632 0.139498 0.196092
v -0.310029 0.140951 0.194081
v -0.300714 0.150979 0.201896
v -0.300252 0.149111 0.202284
v -0.311845 0.143597 0.192556
v -0.312551 0.146922 0.191964
v -0.329554 0.143483 0.177697
v -0.330933 0.140853 0.176541
v -0.340333 0.155527 0.168652
v -0.330039 0.152671 0.177290
v -0.312333 0.149707 0.192147
v -0.306861 0.155599 0.196738
v -0.304159 0.155165 0.199006
v -0.329081 0.149738 0.178094
v -0.328914 0.146559 0.178234
v -0.301953 0.153265 0.200857
v -0.405921 0.205237 0.043717
v -0.405906 -0.205237 0.043669
v -0.406000 -0.092350 0.070000
v -0.406000 -0.097350 0.075000
v -0.406000 -0.092434 0.074524
v -0.406000 -0.093124 0.074982
v -0.406000 0.097350 0.075000
v -0.406000 0.092995 0.074963
v -0.406000 0.092350 0.070000
v -0.406000 0.092401 0.074395
v -0.350590 0.205237 -0.000871
v -0.351611 0.205237 -0.002087
v -0.350590 -0.205237 -0.000871
v -0.351611 -0.205237 -0.002087
v -0.272812 -0.097350 0.223732
v -0.273353 -0.097350 0.222142
v -0.273424 -0.203237 0.222197
v -0.272246 -0.203238 0.223303
v -0.273397 -0.203237 0.223825
v -0.265022 -0.203237 0.212264
v -0.263806 -0.203237 0.213284
v -0.263806 -0.097350 0.213284
v -0.265022 -0.097350 0.212264
v -0.272423 0.203237 0.223450
v -0.273353 0.203237 0.222142
v -0.274095 0.203237 0.223858
v -0.272758 0.097350 0.223716
v -0.273424 0.097350 0.222197
v -0.265022 0.097350 0.212264
v -0.263806 0.097350 0.213284
v -0.263806 0.203237 0.213284
v -0.265022 0.203237 0.212264
v -0.402660 0.096850 0.112146
v -0.405932 0.096850 0.112033
v -0.404848 0.096850 0.114489
v -0.402825 0.096850 0.071000
v -0.406000 0.096850 0.071000
v -0.402642 -0.096850 0.112151
v -0.404935 -0.096850 0.114398
v -0.405956 -0.096850 0.111883
v -0.272270 -0.096850 0.221619
v -0.274311 -0.096850 0.224051
v -0.402825 -0.096850 0.071000
v -0.406000 -0.096850 0.071000
v -0.274311 0.096850 0.224051
v -0.306314 0.086534 0.197197
v -0.306314 0.074166 0.197197
v -0.306314 -0.086534 0.197197
v -0.307799 -0.089221 0.195951
v -0.315865 -0.093141 0.189184
v -0.319603 -0.091537 0.186047
v -0.307604 -0.071750 0.196115
v -0.306314 -0.074166 0.197197
v -0.322108 -0.088948 0.183945
v -0.311570 0.092398 0.192788
v -0.308087 0.089691 0.195710
v -0.311122 -0.092249 0.193163
v -0.307798 0.071479 0.195951
v -0.310107 -0.069164 0.194014
v -0.323349 0.073914 0.182903
v -0.323397 0.086534 0.182863
v -0.321912 0.089222 0.184109
v -0.311122 0.068452 0.193163
v -0.323397 -0.086534 0.182863
v -0.323361 -0.073855 0.182894
v -0.320709 -0.070095 0.185119
v -0.318143 0.068303 0.187272
v -0.317871 -0.068183 0.187500
v -0.319350 0.091713 0.186259
v -0.315458 0.093184 0.189525
v -0.320936 0.070323 0.184928
v -0.313847 -0.067559 0.190877
v -0.314999 0.067563 0.189911
v -0.272270 0.096850 0.221619
v -0.321356 -0.086534 0.180431
v -0.319872 -0.089221 0.181677
v -0.316548 -0.092249 0.184465
v -0.312672 -0.093137 0.187717
v -0.309528 -0.092398 0.190356
v -0.306735 -0.090377 0.192700
v -0.304322 -0.086786 0.194725
v -0.304310 -0.073855 0.194735
v -0.304310 0.086845 0.194735
v -0.307646 0.091295 0.191936
v -0.306961 -0.070096 0.192511
v -0.309800 -0.068182 0.190128
v -0.318894 -0.070322 0.182496
v -0.321308 -0.073914 0.180471
v -0.321308 0.086786 0.180471
v -0.318895 0.090377 0.182496
v -0.306735 0.070323 0.192701
v -0.304322 0.073914 0.194725
v -0.315407 0.092755 0.185423
v -0.311358 0.092996 0.188819
v -0.321356 0.074166 0.180431
v -0.319871 0.071479 0.181677
v -0.312958 -0.067563 0.187478
v -0.309529 0.068303 0.190356
v -0.316548 0.068451 0.184465
v -0.316101 -0.068303 0.184840
v -0.312673 0.067563 0.187718
v -0.284189 0.073903 0.170596
v -0.308002 0.073734 0.198914
v -0.285457 0.071637 0.169532
v -0.310047 0.070628 0.197198
v -0.287560 0.069408 0.167767
v -0.312897 0.068364 0.194806
v -0.290050 0.068019 0.165676
v -0.316279 0.067573 0.191971
v -0.292736 0.067573 0.163422
v -0.318965 0.068019 0.189716
v -0.296117 0.068364 0.160587
v -0.321454 0.069407 0.187628
v -0.298967 0.070628 0.158196
v -0.323557 0.071636 0.185862
v -0.301012 0.073734 0.156480
v -0.324825 0.073903 0.184798
v -0.295235 0.092669 0.161327
v -0.297682 0.091282 0.159273
v -0.299014 0.092096 0.163378
v -0.305433 0.092102 0.171045
v -0.319898 0.092325 0.188932
v -0.302849 0.093025 0.173213
v -0.316519 0.093127 0.191768
v -0.300141 0.092983 0.175485
v -0.313781 0.092669 0.194066
v -0.297790 0.092097 0.177459
v -0.311331 0.091285 0.196120
v -0.291362 0.092099 0.169799
v -0.296659 0.092982 0.165354
v -0.292494 0.093127 0.163627
v -0.293952 0.093026 0.167624
v -0.289935 0.092630 0.165773
v -0.287519 0.091281 0.167801
v -0.301042 0.086797 0.156454
v -0.324795 0.086967 0.184823
v -0.299774 0.089065 0.157518
v -0.322750 0.090074 0.186540
v -0.309239 0.089065 0.197875
v -0.285294 0.088831 0.169668
v -0.307972 0.086797 0.198939
v -0.284189 0.086797 0.170596
v -0.318103 0.077731 0.208062
v -0.311629 0.076539 0.199787
v -0.310980 0.080350 0.200332
v -0.317920 0.079666 0.208364
v -0.318594 0.076120 0.207652
v -0.319304 0.074799 0.207233
v -0.312975 0.073860 0.198657
v -0.320397 0.073133 0.206175
v -0.315407 0.071557 0.196618
v -0.321759 0.071929 0.205017
v -0.323534 0.071132 0.203665
v -0.325074 0.070877 0.202330
v -0.318327 0.070813 0.194168
v -0.326744 0.071128 0.200859
v -0.320744 0.071352 0.192139
v -0.328461 0.071933 0.199508
v -0.323335 0.073344 0.189964
v -0.329765 0.073120 0.198278
v -0.330718 0.074283 0.197676
v -0.331369 0.075589 0.196984
v -0.325024 0.076540 0.188548
v -0.332106 0.077680 0.196473
v -0.325674 0.080350 0.188002
v -0.332309 0.079764 0.196102
v -0.332284 0.082035 0.196325
v -0.331749 0.084088 0.196594
v -0.325024 0.084161 0.188547
v -0.331032 0.085884 0.197382
v -0.323679 0.086839 0.189677
v -0.329890 0.087504 0.198331
v -0.321247 0.089143 0.191717
v -0.328352 0.088804 0.199433
v -0.327166 0.089414 0.200465
v -0.325968 0.089750 0.201512
v -0.318327 0.089887 0.194167
v -0.324672 0.089799 0.202558
v -0.323456 0.089571 0.203618
v -0.315909 0.089347 0.196196
v -0.321879 0.088842 0.204927
v -0.313318 0.087357 0.198370
v -0.320520 0.087630 0.206185
v -0.319292 0.086039 0.207098
v -0.318449 0.084048 0.207885
v -0.311630 0.084161 0.199786
v -0.318015 0.081936 0.208298
v -0.319401 0.084381 0.208040
v -0.320415 0.085847 0.207464
v -0.319958 0.082809 0.208372
v -0.321728 0.086136 0.206940
v -0.319321 0.082037 0.208584
v -0.319998 0.076092 0.207974
v -0.319158 0.077630 0.208416
v -0.318988 0.080042 0.208676
v -0.320073 0.078299 0.208335
v -0.320999 0.074318 0.207143
v -0.321899 0.073311 0.206383
v -0.322870 0.072475 0.205524
v -0.323519 0.071599 0.204408
v -0.322800 0.073601 0.206055
v -0.324930 0.071898 0.203976
v -0.326645 0.071701 0.202408
v -0.326508 0.072599 0.202972
v -0.327816 0.072050 0.201431
v -0.328693 0.072535 0.200706
v -0.329760 0.073117 0.199351
v -0.330610 0.074295 0.199072
v -0.331653 0.076015 0.198017
v -0.332217 0.077632 0.197463
v -0.332510 0.079628 0.197037
v -0.331539 0.076626 0.198690
v -0.332419 0.081658 0.197572
v -0.331819 0.084227 0.198032
v -0.332251 0.080796 0.198071
v -0.331623 0.083626 0.198639
v -0.330476 0.086798 0.198878
v -0.329073 0.088144 0.200107
v -0.330021 0.086491 0.199974
v -0.328392 0.088400 0.200943
v -0.327234 0.089051 0.201603
v -0.325767 0.089080 0.203144
v -0.327301 0.088154 0.202225
v -0.324230 0.088817 0.204430
v -0.322250 0.088042 0.205858
v -0.329712 0.073944 0.200264
v -0.323669 0.087852 0.205307
v -0.305289 0.079418 0.201191
v -0.307221 0.088574 0.199570
v -0.305622 0.084204 0.200911
v -0.327348 0.077445 0.182681
v -0.327348 0.083256 0.182681
v -0.325978 0.072944 0.183832
v -0.305882 0.075583 0.200693
v -0.307221 0.072126 0.199570
v -0.309210 0.069253 0.197899
v -0.311712 0.067168 0.195802
v -0.314547 0.066020 0.193421
v -0.318257 0.065967 0.190309
v -0.321749 0.067605 0.187380
v -0.324137 0.069903 0.185375
v -0.325977 0.087757 0.183831
v -0.324137 0.090796 0.185374
v -0.321749 0.093093 0.187378
v -0.318257 0.094733 0.190309
v -0.314546 0.094680 0.193421
v -0.311714 0.093532 0.195802
v -0.309213 0.091449 0.197899
v -0.305895 0.080350 0.201992
v -0.306308 0.076515 0.201625
v -0.307459 0.072939 0.200682
v -0.309302 0.069916 0.199113
v -0.311505 0.067746 0.197276
v -0.313751 0.066501 0.195396
v -0.316137 0.065870 0.193389
v -0.319099 0.066074 0.190902
v -0.321715 0.067183 0.188699
v -0.324599 0.069617 0.186288
v -0.326873 0.073549 0.184380
v -0.328067 0.078042 0.183378
v -0.327962 0.083247 0.183478
v -0.326874 0.087148 0.184379
v -0.325279 0.090086 0.185706
v -0.322653 0.092955 0.187921
v -0.319099 0.094626 0.190904
v -0.315929 0.094820 0.193574
v -0.312335 0.093557 0.196561
v -0.309300 0.090804 0.199137
v -0.307357 0.087513 0.200756
v -0.306308 0.084185 0.201625
v -0.327873 0.078674 0.186158
v -0.326614 0.073944 0.187213
v -0.324523 0.070782 0.188970
v -0.321790 0.068617 0.191263
v -0.318007 0.067784 0.194437
v -0.314879 0.068659 0.197062
v -0.312110 0.070748 0.199386
v -0.309416 0.075417 0.201647
v -0.308726 0.080350 0.202223
v -0.309228 0.084475 0.201802
v -0.311598 0.089434 0.199815
v -0.314877 0.092041 0.197065
v -0.318005 0.092915 0.194437
v -0.322403 0.091813 0.190747
v -0.326309 0.087501 0.187470
v -0.327731 0.082847 0.186276
v -0.291356 0.093522 0.169803
v -0.299017 0.093522 0.163375
v -0.297784 0.097850 0.177464
v -0.305444 0.097850 0.171036
v -0.301042 -0.073903 0.156454
v -0.324795 -0.073734 0.184823
v -0.299773 -0.071633 0.157520
v -0.322751 -0.070628 0.186540
v -0.297669 -0.069408 0.159283
v -0.319902 -0.068365 0.188931
v -0.295183 -0.068020 0.161369
v -0.316521 -0.067573 0.191767
v -0.292496 -0.067573 0.163626
v -0.313833 -0.068019 0.194021
v -0.289817 -0.068105 0.165873
v -0.311343 -0.069409 0.196110
v -0.287355 -0.069573 0.167938
v -0.309240 -0.071634 0.197874
v -0.285295 -0.071867 0.169667
v -0.307972 -0.073903 0.198939
v -0.284189 -0.073903 0.170596
v -0.289999 -0.092669 0.165722
v -0.287548 -0.091283 0.167777
v -0.291359 -0.092096 0.169801
v -0.311303 -0.091281 0.196144
v -0.313717 -0.092629 0.194120
v -0.297795 -0.092102 0.177454
v -0.300379 -0.093026 0.175286
v -0.316277 -0.093127 0.191973
v -0.303086 -0.092982 0.173013
v -0.319014 -0.092668 0.189675
v -0.305439 -0.092097 0.171041
v -0.321467 -0.091282 0.187615
v -0.298959 -0.092214 0.163425
v -0.294334 -0.093130 0.167305
v -0.292737 -0.093127 0.163424
v -0.295295 -0.092629 0.161278
v -0.297710 -0.091281 0.159250
v -0.284189 -0.086797 0.170596
v -0.307972 -0.086797 0.198939
v -0.309078 -0.088832 0.198012
v -0.285457 -0.089066 0.169531
v -0.323557 -0.089065 0.185863
v -0.299935 -0.088833 0.157382
v -0.324825 -0.086797 0.184798
v -0.301042 -0.086797 0.156454
v -0.332020 -0.077600 0.196388
v -0.325024 -0.076539 0.188547
v -0.325674 -0.080350 0.188002
v -0.332282 -0.079258 0.196172
v -0.331565 -0.076118 0.196776
v -0.331031 -0.074816 0.197383
v -0.323678 -0.073860 0.189676
v -0.329891 -0.073194 0.198331
v -0.321247 -0.071557 0.191717
v -0.328352 -0.071896 0.199434
v -0.327167 -0.071286 0.200465
v -0.325968 -0.070950 0.201512
v -0.318327 -0.070813 0.194166
v -0.324298 -0.070961 0.203028
v -0.322491 -0.071412 0.204165
v -0.315909 -0.071353 0.196195
v -0.321546 -0.072183 0.205373
v -0.313317 -0.073343 0.198370
v -0.320483 -0.073138 0.206241
v -0.319533 -0.074258 0.206873
v -0.318830 -0.075585 0.207497
v -0.311630 -0.076540 0.199786
v -0.318213 -0.077656 0.208132
v -0.310980 -0.080350 0.200332
v -0.317915 -0.079755 0.208369
v -0.317991 -0.081462 0.208354
v -0.318102 -0.082971 0.208061
v -0.311629 -0.084161 0.199787
v -0.318596 -0.084584 0.207656
v -0.319267 -0.085972 0.207135
v -0.312975 -0.086840 0.198657
v -0.319968 -0.087224 0.206291
v -0.321090 -0.088250 0.205590
v -0.315407 -0.089144 0.196617
v -0.322669 -0.089237 0.204410
v -0.324375 -0.089748 0.202972
v -0.318327 -0.089887 0.194167
v -0.325594 -0.089776 0.201972
v -0.326743 -0.089572 0.200859
v -0.320745 -0.089347 0.192139
v -0.328308 -0.088842 0.199533
v -0.323336 -0.087356 0.189964
v -0.329691 -0.087674 0.198362
v -0.330717 -0.086422 0.197663
v -0.331373 -0.085052 0.196916
v -0.325023 -0.084161 0.188548
v -0.332101 -0.083039 0.196481
v -0.332328 -0.080999 0.196141
v -0.330609 -0.086401 0.199073
v -0.329550 -0.087585 0.199909
v -0.331219 -0.084595 0.198990
v -0.328308 -0.087784 0.201454
v -0.331401 -0.085290 0.197981
v -0.331975 -0.083741 0.197935
v -0.332412 -0.081625 0.197566
v -0.331841 -0.076542 0.198068
v -0.332338 -0.078236 0.197186
v -0.332505 -0.079852 0.197298
v -0.332123 -0.079348 0.198212
v -0.331551 -0.076584 0.198688
v -0.330893 -0.074516 0.198395
v -0.329575 -0.072969 0.199682
v -0.329956 -0.074093 0.200016
v -0.328400 -0.072315 0.200939
v -0.326850 -0.071517 0.201938
v -0.327004 -0.072454 0.202515
v -0.325214 -0.071728 0.203659
v -0.323170 -0.073105 0.205704
v -0.321841 -0.073437 0.206486
v -0.320165 -0.075532 0.207795
v -0.320793 -0.075958 0.207706
v -0.319515 -0.077688 0.208421
v -0.319007 -0.079632 0.208660
v -0.319878 -0.080676 0.208485
v -0.318999 -0.082053 0.208562
v -0.319365 -0.083825 0.208236
v -0.320232 -0.082985 0.208197
v -0.320496 -0.085608 0.207566
v -0.320869 -0.086948 0.206812
v -0.322193 -0.087721 0.206114
v -0.322548 -0.087139 0.206234
v -0.323795 -0.088455 0.204929
v -0.324543 -0.089177 0.203899
v -0.325932 -0.088988 0.203060
v -0.325470 -0.087978 0.203888
v -0.327349 -0.088854 0.201731
v -0.328392 -0.088337 0.201012
v -0.323222 -0.071804 0.204785
v -0.327508 -0.079418 0.182547
v -0.326334 -0.086903 0.183532
v -0.327308 -0.083245 0.182715
v -0.305266 -0.080350 0.201210
v -0.305662 -0.084189 0.200878
v -0.305661 -0.076511 0.200878
v -0.306821 -0.072943 0.199905
v -0.326915 -0.075583 0.183045
v -0.325577 -0.072126 0.184167
v -0.323586 -0.069253 0.185838
v -0.321086 -0.067168 0.187937
v -0.318249 -0.066020 0.190315
v -0.315286 -0.065890 0.192804
v -0.312397 -0.066789 0.195225
v -0.309184 -0.069211 0.197922
v -0.306820 -0.087756 0.199906
v -0.309185 -0.091489 0.197922
v -0.312397 -0.093912 0.195226
v -0.315283 -0.094809 0.192805
v -0.318250 -0.094680 0.190314
v -0.321085 -0.093533 0.187939
v -0.324166 -0.090835 0.185351
v -0.328192 -0.080350 0.183283
v -0.327714 -0.076243 0.183674
v -0.326226 -0.072110 0.184906
v -0.323285 -0.068262 0.187390
v -0.319825 -0.066285 0.190295
v -0.316879 -0.065824 0.192765
v -0.313945 -0.066395 0.195228
v -0.310642 -0.068397 0.197999
v -0.307575 -0.072605 0.200572
v -0.306177 -0.077185 0.201746
v -0.305934 -0.080350 0.201955
v -0.306177 -0.083515 0.201746
v -0.307575 -0.088095 0.200572
v -0.310016 -0.091621 0.198523
v -0.312548 -0.093641 0.196400
v -0.316202 -0.094890 0.193334
v -0.320334 -0.094256 0.189849
v -0.323468 -0.092209 0.187237
v -0.326084 -0.088903 0.185041
v -0.327714 -0.084457 0.183674
v -0.309183 -0.076205 0.201842
v -0.308781 -0.082026 0.202177
v -0.311631 -0.071313 0.199786
v -0.314865 -0.068618 0.197073
v -0.318651 -0.067783 0.193897
v -0.322383 -0.068944 0.190767
v -0.325925 -0.072519 0.187793
v -0.327583 -0.077043 0.186400
v -0.327928 -0.081995 0.186112
v -0.325925 -0.088179 0.187793
v -0.322382 -0.091756 0.190765
v -0.318647 -0.092915 0.193899
v -0.315487 -0.092315 0.196556
v -0.312615 -0.090473 0.198963
v -0.310040 -0.086758 0.201121
v -0.299017 -0.093522 0.163375
v -0.291356 -0.093522 0.169803
v -0.305444 -0.097850 0.171036
v -0.297784 -0.097850 0.177464
v -0.321269 0.155473 0.162457
v -0.332238 0.155491 0.175445
v -0.330725 0.153756 0.176716
v -0.319397 0.153145 0.164029
v -0.329375 0.150965 0.177847
v -0.318126 0.149580 0.165095
v -0.328915 0.146534 0.178233
v -0.318060 0.146283 0.165149
v -0.318636 0.143548 0.164666
v -0.329856 0.142798 0.177443
v -0.319795 0.141246 0.163692
v -0.332000 0.139627 0.175644
v -0.321310 0.139509 0.162422
v -0.329269 0.155491 0.155744
v -0.331459 0.142312 0.153907
v -0.332131 0.150965 0.153342
v -0.329309 0.139527 0.155710
v -0.332591 0.146534 0.152957
v -0.330784 0.153754 0.154474
v -0.338071 0.144326 0.175773
v -0.339280 0.150718 0.174759
v -0.340625 0.149781 0.173629
v -0.341272 0.147998 0.173086
v -0.336995 0.145229 0.176675
v -0.336323 0.146723 0.177238
v -0.336446 0.148690 0.177136
v -0.340973 0.145751 0.173337
v -0.337565 0.150441 0.176196
v -0.339596 0.144392 0.174492
v -0.338213 0.144155 0.174347
v -0.340152 0.145418 0.172721
v -0.340664 0.147871 0.172290
v -0.339740 0.150119 0.173066
v -0.337861 0.150789 0.174643
v -0.336308 0.149781 0.175946
v -0.335583 0.147411 0.176555
v -0.336398 0.145102 0.175871
v -0.335351 0.149313 0.176749
v -0.336421 0.150823 0.175851
v -0.337951 0.151566 0.174567
v -0.339751 0.150952 0.173057
v -0.341005 0.149129 0.172004
v -0.341138 0.146348 0.171893
v -0.340285 0.144618 0.172609
v -0.338877 0.143540 0.173790
v -0.336756 0.143852 0.175570
v -0.335153 0.146194 0.176915
v -0.339138 0.143452 0.174877
v -0.337062 0.144106 0.176618
v -0.335795 0.146348 0.177682
v -0.336015 0.149464 0.177497
v -0.337905 0.151407 0.175911
v -0.340035 0.151234 0.174123
v -0.341433 0.149595 0.172951
v -0.341908 0.146892 0.172552
v -0.340828 0.144463 0.173458
v -0.338562 0.139505 0.175270
v -0.341728 0.140823 0.172676
v -0.343277 0.142052 0.171295
v -0.344760 0.147125 0.170102
v -0.344368 0.150513 0.170408
v -0.342743 0.153397 0.171783
v -0.333420 0.151092 0.179603
v -0.332842 0.148796 0.180094
v -0.338806 0.155348 0.175095
v -0.334747 0.141662 0.178524
v -0.334885 0.153488 0.178391
v -0.332645 0.146933 0.180223
v -0.333027 0.145081 0.179939
v -0.335670 0.139664 0.177345
v -0.333027 0.143066 0.179646
v -0.332159 0.149963 0.180288
v -0.333420 0.152817 0.179253
v -0.336468 0.155701 0.176735
v -0.340485 0.155920 0.173263
v -0.341728 0.154816 0.172409
v -0.342987 0.154037 0.171192
v -0.344530 0.143967 0.170019
v -0.342480 0.140131 0.171415
v -0.340859 0.139509 0.173073
v -0.333620 0.140959 0.178801
v -0.345372 0.148842 0.168852
v -0.345266 0.145840 0.169033
v -0.338421 0.138069 0.174466
v -0.335911 0.138519 0.176497
v -0.331571 0.144295 0.180259
v -0.331175 0.146945 0.180618
v -0.331046 0.150137 0.180431
v -0.331673 0.151928 0.179953
v -0.333323 0.154646 0.178596
v -0.338806 0.156999 0.174007
v -0.344650 0.151938 0.169297
v -0.344702 0.143143 0.169186
v -0.343746 0.141142 0.169765
v -0.333373 0.139271 0.177878
v -0.331888 0.141321 0.179232
v -0.331204 0.142641 0.179790
v -0.331931 0.154011 0.179068
v -0.334568 0.156196 0.177244
v -0.336060 0.156704 0.176262
v -0.337135 0.157452 0.174894
v -0.342288 0.155737 0.170636
v -0.343459 0.154481 0.169500
v -0.340375 0.138177 0.172413
v -0.335568 0.137695 0.175847
v -0.330010 0.145232 0.180368
v -0.329748 0.148489 0.180463
v -0.340423 0.157250 0.171459
v -0.344400 0.152944 0.168532
v -0.345117 0.151040 0.167557
v -0.345623 0.148137 0.167640
v -0.345249 0.144371 0.167756
v -0.341174 0.138278 0.171139
v -0.337198 0.137020 0.173912
v -0.330451 0.152695 0.179485
v -0.332378 0.155889 0.177654
v -0.334539 0.157453 0.175856
v -0.336759 0.158120 0.174019
v -0.338598 0.157975 0.172527
v -0.341565 0.156601 0.169951
v -0.344427 0.142149 0.167918
v -0.342619 0.139354 0.169236
v -0.338373 0.136946 0.172632
v -0.335426 0.136843 0.174371
v -0.333510 0.137763 0.176185
v -0.331003 0.140375 0.178408
v -0.329975 0.141699 0.178940
v -0.329212 0.144166 0.179787
v -0.329362 0.151610 0.179550
v -0.333316 0.157107 0.176335
v -0.343123 0.154899 0.168017
v -0.344264 0.152917 0.167163
v -0.344965 0.150813 0.166478
v -0.345265 0.148743 0.166114
v -0.345304 0.146520 0.166098
v -0.345060 0.144236 0.166707
v -0.343724 0.141100 0.167343
v -0.339272 0.137056 0.171139
v -0.331932 0.138995 0.177408
v -0.328557 0.146829 0.179894
v -0.328678 0.149483 0.179788
v -0.330347 0.154302 0.178400
v -0.340643 0.137769 0.170078
v -0.336381 0.136569 0.172991
v -0.327779 0.148311 0.179206
v -0.331352 0.156543 0.176215
v -0.334689 0.158113 0.174410
v -0.335674 0.158545 0.172583
v -0.337936 0.158333 0.170705
v -0.339405 0.157863 0.170451
v -0.339741 0.157566 0.169173
v -0.341086 0.156562 0.168049
v -0.344365 0.144400 0.165299
v -0.341917 0.139302 0.167351
v -0.340823 0.138207 0.168269
v -0.333885 0.136848 0.174067
v -0.331732 0.138144 0.175875
v -0.329888 0.140155 0.177422
v -0.328348 0.143446 0.178712
v -0.327876 0.145781 0.179108
v -0.328390 0.151771 0.178675
v -0.329861 0.154787 0.177448
v -0.332752 0.157592 0.175018
v -0.342065 0.155476 0.167204
v -0.343557 0.153030 0.165951
v -0.344690 0.148556 0.164997
v -0.343695 0.142236 0.165833
v -0.339667 0.137420 0.169219
v -0.337151 0.136523 0.171326
v -0.342250 0.142046 0.167043
v -0.343489 0.146215 0.166004
v -0.341809 0.153605 0.167413
v -0.340237 0.155473 0.168733
v -0.340196 0.139509 0.168767
v -0.343144 0.150664 0.166294
v -0.306781 0.157253 0.196807
v -0.303756 0.156759 0.199345
v -0.309183 0.156577 0.194790
v -0.309311 0.138535 0.194679
v -0.300501 0.153747 0.202075
v -0.306457 0.137645 0.197078
v -0.299024 0.145068 0.203314
v -0.300669 0.141072 0.201934
v -0.313851 0.147301 0.190873
v -0.311848 0.140758 0.192554
v -0.313347 0.144063 0.191297
v -0.313471 0.150469 0.191192
v -0.312031 0.153977 0.192400
v -0.299012 0.149648 0.203325
v -0.303042 0.138691 0.199943
v -0.304019 0.141836 0.206956
v -0.307093 0.138516 0.204376
v -0.310082 0.137731 0.201871
v -0.312986 0.138341 0.199432
v -0.315833 0.141017 0.197043
v -0.317325 0.144403 0.195791
v -0.317680 0.147674 0.195492
v -0.317261 0.150835 0.195844
v -0.315988 0.153690 0.196912
v -0.314157 0.155832 0.198448
v -0.311352 0.157189 0.200803
v -0.308363 0.157008 0.203311
v -0.305262 0.154958 0.205913
v -0.303245 0.151211 0.207605
v -0.302671 0.146737 0.208087
v -0.319576 0.151261 0.193902
v -0.317985 0.155289 0.195236
v -0.315421 0.158341 0.197389
v -0.314985 0.136262 0.197755
v -0.318006 0.139746 0.195219
v -0.319586 0.143781 0.193894
v -0.319980 0.147466 0.193563
v -0.305475 0.136274 0.205733
v -0.308765 0.134830 0.202972
v -0.311615 0.134864 0.200579
v -0.312202 0.160037 0.200090
v -0.308731 0.160164 0.202999
v -0.306015 0.159043 0.205282
v -0.300367 0.146691 0.210020
v -0.301234 0.142382 0.209292
v -0.302777 0.139123 0.207998
v -0.303564 0.156935 0.207338
v -0.301169 0.152640 0.209347
v -0.306452 0.138823 0.212072
v -0.309783 0.135771 0.209279
v -0.313719 0.134641 0.205976
v -0.318216 0.136058 0.202200
v -0.321351 0.139446 0.199571
v -0.323022 0.143418 0.198169
v -0.323503 0.147198 0.197766
v -0.323182 0.150895 0.198034
v -0.321962 0.154386 0.199057
v -0.320115 0.157215 0.200607
v -0.317614 0.159216 0.202706
v -0.314311 0.160336 0.205479
v -0.309755 0.159270 0.209301
v -0.306867 0.156609 0.211722
v -0.304831 0.153035 0.213432
v -0.303876 0.147124 0.214234
v -0.304679 0.142631 0.213560
v -0.324867 0.144943 0.196621
v -0.325002 0.149062 0.196507
v -0.323748 0.154538 0.197560
v -0.320489 0.159449 0.200295
v -0.316556 0.161837 0.203594
v -0.314632 0.132689 0.205208
v -0.318798 0.134259 0.201713
v -0.321817 0.137126 0.199180
v -0.323958 0.141120 0.197383
v -0.302408 0.147627 0.215466
v -0.302947 0.142713 0.215014
v -0.304734 0.138529 0.213513
v -0.307471 0.135083 0.211218
v -0.310848 0.133213 0.208383
v -0.313507 0.162268 0.206152
v -0.310386 0.161652 0.208773
v -0.307615 0.159934 0.211098
v -0.304760 0.156659 0.213493
v -0.302822 0.151594 0.215119
v -0.305793 0.138777 0.215236
v -0.308555 0.135365 0.212916
v -0.311275 0.133518 0.210635
v -0.315561 0.132659 0.207040
v -0.319258 0.133811 0.203937
v -0.322427 0.136232 0.201278
v -0.324804 0.140107 0.199285
v -0.325991 0.143798 0.198288
v -0.326319 0.147898 0.198013
v -0.325694 0.152620 0.198538
v -0.323389 0.157477 0.200471
v -0.320454 0.160489 0.202934
v -0.317488 0.161912 0.205421
v -0.314435 0.162288 0.207982
v -0.311342 0.161473 0.210581
v -0.308075 0.159285 0.213321
v -0.304885 0.154294 0.215998
v -0.303632 0.148006 0.217050
v -0.304207 0.143098 0.216567
v -0.324728 0.145951 0.199350
v -0.323931 0.142114 0.200022
v -0.322342 0.139012 0.201358
v -0.320264 0.136675 0.203096
v -0.317355 0.135089 0.205536
v -0.314642 0.134713 0.207811
v -0.315525 0.160266 0.207070
v -0.317763 0.159777 0.205197
v -0.320371 0.158224 0.203004
v -0.321738 0.156856 0.201903
v -0.323528 0.153836 0.200354
v -0.324717 0.149539 0.199376
v -0.311673 0.135482 0.210305
v -0.309785 0.136691 0.211889
v -0.307604 0.139064 0.213732
v -0.306006 0.142491 0.215057
v -0.305315 0.145597 0.215680
v -0.305315 0.149460 0.215640
v -0.306053 0.152665 0.215021
v -0.307582 0.155879 0.213739
v -0.310137 0.158616 0.211593
v -0.313190 0.160053 0.209033
v -0.310043 0.137751 0.214195
v -0.311568 0.136356 0.212802
v -0.312953 0.135425 0.211275
v -0.314801 0.134919 0.210012
v -0.317263 0.134878 0.208007
v -0.319245 0.135460 0.206254
v -0.320697 0.136376 0.204662
v -0.322507 0.137939 0.203416
v -0.323887 0.139959 0.202193
v -0.325622 0.144542 0.200939
v -0.325860 0.147846 0.200651
v -0.325083 0.151965 0.201023
v -0.323447 0.155631 0.202371
v -0.324402 0.153940 0.201593
v -0.321577 0.157886 0.203874
v -0.320123 0.159117 0.205617
v -0.317181 0.160123 0.207687
v -0.315170 0.160189 0.209371
v -0.313332 0.159650 0.211279
v -0.311748 0.158907 0.212339
v -0.309084 0.156285 0.214743
v -0.310155 0.157356 0.214114
v -0.307841 0.154068 0.215871
v -0.306733 0.150855 0.216737
v -0.306528 0.147366 0.217132
v -0.307122 0.142053 0.216035
v -0.306851 0.144389 0.216878
v -0.308228 0.139755 0.215169
v -0.309773 0.146303 0.218063
v -0.310839 0.147909 0.217962
v -0.312031 0.146843 0.217483
v -0.309169 0.144520 0.217836
v -0.311355 0.143538 0.217437
v -0.313232 0.142715 0.216484
v -0.308748 0.143247 0.217400
v -0.310370 0.141675 0.217056
v -0.307744 0.142573 0.216721
v -0.308903 0.140678 0.216264
v -0.310809 0.138736 0.215450
v -0.313538 0.136057 0.212638
v -0.313484 0.137072 0.213901
v -0.313776 0.138386 0.214859
v -0.312078 0.140061 0.216212
v -0.313438 0.141064 0.216080
v -0.316003 0.136227 0.212115
v -0.316296 0.135394 0.210617
v -0.316055 0.138815 0.213909
v -0.316273 0.137587 0.213165
v -0.317169 0.139008 0.213211
v -0.317642 0.136401 0.211246
v -0.318190 0.135747 0.209743
v -0.320132 0.137013 0.209400
v -0.319406 0.135791 0.208197
v -0.320674 0.136208 0.206266
v -0.319427 0.138169 0.211029
v -0.321927 0.137637 0.207534
v -0.322316 0.137462 0.205664
v -0.319391 0.139321 0.211284
v -0.319923 0.137554 0.210068
v -0.320709 0.138576 0.209923
v -0.323403 0.138629 0.204360
v -0.321793 0.139618 0.209274
v -0.323996 0.139496 0.205291
v -0.324812 0.140732 0.203424
v -0.323817 0.140232 0.206912
v -0.324906 0.142125 0.201370
v -0.323685 0.141541 0.207672
v -0.325054 0.141375 0.204820
v -0.325501 0.142634 0.202306
v -0.326093 0.144047 0.203424
v -0.326153 0.145631 0.201765
v -0.325416 0.143615 0.205724
v -0.325089 0.144859 0.206498
v -0.326088 0.144849 0.204440
v -0.326305 0.148369 0.201925
v -0.326442 0.146901 0.203553
v -0.326361 0.149284 0.203297
v -0.325929 0.147156 0.205361
v -0.325862 0.150842 0.201793
v -0.325419 0.152880 0.202949
v -0.324596 0.154502 0.203056
v -0.326069 0.149492 0.204856
v -0.325875 0.151721 0.203735
v -0.324532 0.154775 0.204627
v -0.323124 0.156661 0.204010
v -0.325077 0.150139 0.206528
v -0.325134 0.152569 0.205721
v -0.324137 0.154434 0.206486
v -0.323507 0.155996 0.206093
v -0.323967 0.152946 0.207458
v -0.318494 0.159770 0.207696
v -0.322285 0.156294 0.208183
v -0.322122 0.157683 0.206205
v -0.320304 0.158726 0.207912
v -0.321163 0.157516 0.208595
v -0.321297 0.155624 0.209702
v -0.320648 0.156563 0.209869
v -0.319519 0.157806 0.210266
v -0.318951 0.158537 0.210171
v -0.315942 0.159853 0.210286
v -0.316586 0.158443 0.212112
v -0.314861 0.158781 0.212578
v -0.317841 0.157286 0.212112
v -0.312332 0.158202 0.213644
v -0.317169 0.156101 0.213165
v -0.314154 0.157768 0.213860
v -0.316094 0.156307 0.213852
v -0.311275 0.156464 0.215281
v -0.309659 0.154703 0.216289
v -0.313551 0.156857 0.214798
v -0.313759 0.154652 0.215729
v -0.311720 0.154735 0.216356
v -0.313595 0.153038 0.216175
v -0.310240 0.153061 0.217149
v -0.308584 0.152275 0.217164
v -0.307760 0.150262 0.217501
v -0.311920 0.152096 0.217155
v -0.310410 0.151371 0.217628
v -0.308357 0.147247 0.217969
v -0.309345 0.150058 0.217905
v -0.317610 0.159560 0.209726
v -0.289938 -0.154312 0.180131
v -0.290902 -0.154312 0.181280
v -0.292799 -0.154543 0.179689
v -0.291644 -0.154523 0.178700
v -0.293548 -0.153795 0.177101
v -0.295409 -0.153107 0.177498
v -0.295191 -0.152208 0.175723
v -0.296955 -0.150682 0.176202
v -0.296362 -0.149449 0.174741
v -0.297535 -0.147622 0.175714
v -0.296525 -0.146867 0.174604
v -0.297001 -0.144420 0.176163
v -0.296017 -0.144415 0.175030
v -0.296978 -0.143287 0.176182
v -0.294774 -0.140781 0.178030
v -0.289127 -0.153949 0.182770
v -0.287561 -0.152068 0.184084
v -0.287270 -0.150580 0.184328
v -0.286598 -0.149682 0.184892
v -0.293369 -0.140688 0.179210
v -0.289117 -0.141059 0.182777
v -0.288861 -0.141893 0.182992
v -0.291471 -0.140457 0.180802
v -0.291903 -0.139909 0.180440
v -0.291943 -0.155093 0.180407
v -0.295183 -0.153971 0.177687
v -0.287321 -0.143316 0.184286
v -0.287120 -0.144765 0.184454
v -0.286412 -0.146407 0.185048
v -0.286770 -0.147946 0.184747
v -0.297413 -0.150701 0.175817
v -0.297904 -0.146942 0.175405
v -0.288188 -0.143471 0.185472
v -0.287546 -0.144001 0.186098
v -0.287280 -0.146715 0.186242
v -0.289780 -0.141022 0.184120
v -0.288368 -0.142380 0.185402
v -0.298072 -0.143554 0.177222
v -0.297718 -0.142090 0.177566
v -0.295927 -0.140912 0.179021
v -0.296181 -0.140444 0.178867
v -0.290639 -0.154371 0.183417
v -0.292061 -0.155528 0.182337
v -0.292664 -0.155005 0.181734
v -0.292252 -0.140023 0.182053
v -0.291863 -0.139626 0.182518
v -0.290321 -0.140832 0.183685
v -0.294304 -0.139563 0.180427
v -0.293465 -0.139942 0.181034
v -0.295171 -0.154600 0.179641
v -0.296272 -0.154503 0.178806
v -0.297800 -0.151968 0.177426
v -0.294701 -0.155339 0.180103
v -0.298792 -0.144264 0.176667
v -0.288937 -0.152777 0.184835
v -0.289585 -0.154125 0.184380
v -0.287017 -0.148590 0.186544
v -0.287704 -0.150418 0.185866
v -0.287033 -0.145843 0.186563
v -0.298736 -0.149037 0.176611
v -0.299319 -0.146762 0.176222
v -0.298820 -0.146632 0.176594
v -0.297487 -0.153385 0.177816
v -0.298687 -0.151127 0.176760
v -0.288048 -0.151947 0.185646
v -0.301047 -0.152490 0.201617
v -0.300243 -0.153374 0.202366
v -0.301704 -0.155350 0.201126
v -0.302620 -0.154536 0.200296
v -0.311708 -0.142512 0.192672
v -0.312767 -0.142067 0.191860
v -0.311760 -0.140457 0.192718
v -0.301750 -0.139610 0.201084
v -0.299736 -0.142611 0.202773
v -0.301223 -0.142153 0.201468
v -0.299887 -0.145777 0.202591
v -0.309271 -0.139851 0.194716
v -0.310211 -0.138939 0.193985
v -0.308762 -0.137903 0.195293
v -0.307279 -0.139079 0.196386
v -0.312730 -0.145754 0.191814
v -0.313349 -0.143169 0.191418
v -0.300058 -0.149917 0.202447
v -0.299187 -0.150616 0.203222
v -0.302897 -0.140260 0.200065
v -0.302689 -0.138821 0.200298
v -0.308629 -0.155512 0.195255
v -0.310516 -0.155762 0.193725
v -0.310417 -0.154142 0.193756
v -0.298778 -0.148222 0.203592
v -0.298807 -0.145847 0.203619
v -0.304934 -0.139149 0.198356
v -0.305786 -0.137674 0.197678
v -0.307694 -0.137711 0.196106
v -0.313891 -0.145605 0.190928
v -0.311979 -0.151852 0.192444
v -0.312317 -0.153736 0.192226
v -0.313406 -0.151407 0.191321
v -0.308693 -0.156990 0.195278
v -0.305476 -0.156025 0.197901
v -0.306671 -0.157453 0.196976
v -0.312831 -0.148661 0.191729
v -0.313955 -0.148505 0.190857
v -0.304237 -0.157019 0.198997
v -0.298781 -0.146862 0.203594
v -0.315357 -0.145605 0.190915
v -0.314510 -0.143746 0.191554
v -0.314986 -0.146224 0.191189
v -0.300580 -0.140207 0.203314
v -0.300552 -0.141055 0.203284
v -0.301964 -0.139210 0.202096
v -0.303405 -0.137486 0.200943
v -0.303243 -0.138109 0.201028
v -0.298869 -0.150642 0.204750
v -0.298867 -0.147463 0.204695
v -0.298544 -0.147362 0.205022
v -0.298909 -0.144188 0.204717
v -0.299045 -0.145342 0.204534
v -0.299555 -0.143288 0.204151
v -0.305100 -0.137249 0.199501
v -0.305839 -0.136586 0.198900
v -0.307771 -0.136999 0.197242
v -0.308785 -0.136658 0.196429
v -0.309285 -0.137407 0.195942
v -0.310463 -0.138003 0.194940
v -0.311974 -0.138575 0.193754
v -0.312236 -0.139502 0.193491
v -0.314042 -0.141402 0.192019
v -0.313595 -0.141474 0.192331
v -0.314968 -0.148977 0.191208
v -0.315195 -0.150182 0.191051
v -0.314271 -0.151994 0.191763
v -0.313951 -0.153772 0.192095
v -0.313583 -0.153530 0.192345
v -0.312374 -0.155330 0.193408
v -0.311476 -0.156917 0.194171
v -0.310288 -0.157119 0.195129
v -0.307686 -0.158556 0.197352
v -0.308704 -0.157741 0.196233
v -0.307366 -0.158061 0.197588
v -0.304208 -0.157938 0.200270
v -0.304478 -0.157537 0.199997
v -0.302834 -0.156572 0.201379
v -0.301597 -0.156022 0.202461
v -0.301770 -0.155588 0.202249
v -0.300606 -0.154018 0.203235
v -0.299926 -0.153541 0.203863
v -0.299546 -0.151772 0.204170
v -0.313694 -0.154985 0.193294
v -0.310834 -0.157686 0.195693
v -0.307415 -0.158549 0.198558
v -0.304450 -0.157825 0.201042
v -0.301902 -0.155826 0.203185
v -0.300018 -0.152754 0.204761
v -0.298997 -0.148396 0.205626
v -0.299465 -0.143898 0.205231
v -0.301243 -0.139950 0.203745
v -0.304101 -0.137361 0.201340
v -0.306499 -0.136555 0.199323
v -0.309015 -0.136637 0.197217
v -0.311814 -0.138019 0.194870
v -0.314410 -0.141102 0.192691
v -0.315881 -0.145973 0.191449
v -0.315498 -0.151134 0.191782
v -0.304547 -0.141395 0.202546
v -0.305994 -0.140301 0.201326
v -0.307589 -0.139773 0.199991
v -0.309643 -0.139905 0.198262
v -0.311617 -0.141093 0.196611
v -0.313104 -0.142948 0.195359
v -0.314006 -0.145529 0.194612
v -0.314201 -0.148202 0.194439
v -0.313590 -0.150923 0.194955
v -0.312418 -0.153097 0.195938
v -0.310576 -0.154654 0.197484
v -0.308580 -0.155298 0.199159
v -0.306427 -0.154904 0.200964
v -0.304593 -0.153691 0.202501
v -0.303162 -0.151557 0.203704
v -0.302384 -0.149074 0.204360
v -0.302366 -0.146235 0.204372
v -0.303020 -0.143678 0.203819
v -0.312949 -0.146323 0.195470
v -0.312999 -0.148283 0.195433
v -0.312577 -0.150167 0.195780
v -0.311733 -0.151790 0.196489
v -0.310551 -0.152993 0.197488
v -0.308761 -0.153762 0.198978
v -0.307326 -0.141342 0.200181
v -0.308831 -0.141280 0.198923
v -0.310288 -0.141827 0.197728
v -0.311517 -0.142928 0.196669
v -0.312442 -0.144478 0.195901
v -0.303711 -0.149626 0.203215
v -0.303434 -0.147699 0.203459
v -0.303726 -0.145276 0.203230
v -0.304728 -0.143211 0.202366
v -0.305937 -0.142008 0.201396
v -0.306903 -0.153521 0.200561
v -0.305533 -0.152686 0.201690
v -0.304441 -0.151344 0.202614
v -0.303216 -0.156838 0.200204
v -0.304634 -0.137596 0.198913
v -0.300830 -0.140454 0.202119
v -0.299531 -0.152193 0.203406
v -0.300853 -0.154566 0.202156
v -0.311205 -0.139074 0.193615
v -0.299360 -0.143257 0.203526
v -0.310852 -0.156354 0.194030
v -0.312334 -0.154613 0.192640
v -0.306344 -0.137108 0.197777
v -0.303368 -0.138031 0.200289
v -0.298808 -0.149090 0.204239
v -0.299138 -0.150855 0.203959
v -0.305490 -0.157829 0.198632
v -0.314379 -0.150420 0.191172
v -0.314697 -0.147727 0.190906
v -0.312726 -0.140633 0.192579
v -0.314538 -0.145468 0.191039
v -0.299476 -0.150242 0.176528
v -0.298855 -0.152102 0.177176
v -0.299813 -0.148280 0.176290
v -0.299826 -0.146698 0.176294
v -0.299553 -0.144633 0.176638
v -0.298767 -0.142831 0.177170
v -0.298048 -0.141525 0.177905
v -0.296855 -0.140284 0.178886
v -0.295379 -0.139429 0.180089
v -0.294112 -0.139074 0.181130
v -0.292831 -0.139082 0.182073
v -0.291626 -0.139339 0.183217
v -0.290466 -0.139927 0.184088
v -0.289388 -0.140811 0.185057
v -0.288561 -0.141796 0.185698
v -0.287859 -0.142990 0.186255
v -0.287459 -0.144037 0.186694
v -0.286994 -0.145856 0.187063
v -0.286979 -0.148753 0.187143
v -0.286861 -0.147613 0.187091
v -0.287493 -0.151136 0.186576
v -0.287123 -0.149882 0.186871
v -0.288126 -0.152521 0.186063
v -0.288778 -0.153502 0.185484
v -0.289433 -0.154223 0.185036
v -0.290526 -0.155111 0.184032
v -0.292007 -0.155801 0.183014
v -0.293604 -0.155975 0.181557
v -0.294801 -0.155785 0.180604
v -0.296071 -0.155281 0.179619
v -0.297142 -0.154440 0.178635
v -0.298167 -0.153359 0.177869
v -0.292405 -0.140688 0.178061
v -0.291134 -0.140482 0.179128
v -0.289126 -0.140975 0.180812
v -0.286856 -0.143186 0.182718
v -0.285743 -0.147131 0.183651
v -0.286326 -0.150585 0.183162
v -0.289627 -0.140686 0.184444
v -0.287430 -0.150497 0.186180
v 0.275162 0.203237 0.223403
v 0.275248 0.205237 0.223265
v 0.274131 0.203237 0.222162
v 0.274228 0.205237 0.222049
v 0.404362 0.205237 0.112800
v 0.405859 0.205237 0.113516
v 0.404367 -0.205237 0.112799
v 0.404362 -0.205237 0.044302
v 0.405844 -0.205237 0.113519
v 0.405875 -0.205237 0.043650
v 0.404372 0.205237 0.044323
v 0.405844 0.205237 0.043583
v 0.350590 -0.205237 -0.000871
v 0.351611 -0.205237 -0.002087
v 0.351611 0.205237 -0.002087
v 0.350590 0.205237 -0.000871
v 0.274093 -0.203237 0.222188
v 0.274228 -0.205237 0.222049
v 0.275248 -0.205237 0.223265
v 0.275244 -0.203237 0.223285
v 0.274037 -0.203237 0.223831
v 0.272508 -0.203237 0.223520
v 0.273307 -0.203237 0.222106
v 0.273328 0.203238 0.222127
v 0.272246 0.203238 0.223303
v 0.273397 0.203237 0.223825
v 0.265022 0.203237 0.212264
v 0.263806 0.203237 0.213284
v 0.263806 -0.203237 0.213284
v 0.265022 -0.203237 0.212264
v -0.101921 0.206875 0.222564
v -0.101440 0.206875 0.224173
v -0.100251 0.206875 0.222651
v -0.271302 0.206875 0.222737
v -0.271302 0.206875 0.224325
v -0.100036 0.206875 0.068586
v -0.100517 0.206875 0.066977
v -0.101706 0.206875 0.068499
v 0.196599 0.206875 0.068561
v 0.198300 0.206875 0.068479
v 0.197078 0.206875 0.066985
v 0.198534 0.206875 0.222589
v 0.196872 0.206875 0.222869
v 0.198252 0.206875 0.224218
v 0.271302 -0.206875 0.224325
v 0.271302 0.206875 0.224325
v 0.198028 -0.206875 0.224173
v 0.271302 -0.206875 0.222737
v 0.271302 0.206875 0.222737
v 0.198509 -0.206875 0.222563
v 0.198199 -0.206875 0.068107
v 0.196706 -0.206875 0.066885
v -0.100293 -0.206875 0.066932
v -0.101673 -0.206875 0.068281
v -0.101946 -0.206875 0.222589
v -0.271302 -0.206875 0.222737
v -0.271302 -0.206875 0.224325
v -0.101665 -0.206875 0.224218
v -0.100284 -0.206875 0.222869
v -0.100011 -0.206875 0.068561
v 0.196624 -0.206875 0.068586
v 0.196839 -0.206875 0.222651
f 1 2 3
f 4 1 3
f 5 6 7
f 8 5 7
f 8 2 1
f 8 1 5
f 5 1 4
f 5 4 6
f 2 8 3
f 3 8 7
f 3 7 4
f 4 7 6
f 9 10 11
f 11 10 12
f 13 14 15
f 16 17 18
f 19 20 21
f 22 23 24
f 25 26 27
f 25 27 28
f 29 30 31
f 31 30 32
f 33 34 35
f 36 37 38
f 39 40 41
f 42 43 44
f 45 46 47
f 47 46 48
f 49 9 50
f 50 9 11
f 51 13 52
f 53 16 54
f 55 19 56
f 57 22 58
f 59 25 60
f 60 25 28
f 61 29 62
f 62 29 31
f 63 33 64
f 65 36 66
f 67 39 68
f 69 70 71
f 70 72 73
f 69 71 74
f 72 75 76
f 70 73 77
f 76 73 72
f 78 71 70
f 78 70 77
f 74 79 69
f 80 75 72
f 74 81 79
f 71 82 74
f 82 83 74
f 74 83 81
f 75 84 76
f 72 85 80
f 80 86 75
f 76 84 87
f 76 87 73
f 73 88 77
f 70 89 72
f 78 90 71
f 79 91 69
f 70 69 89
f 77 92 78
f 91 93 69
f 80 85 94
f 80 94 95
f 80 95 86
f 75 86 84
f 78 92 96
f 78 96 90
f 79 81 91
f 69 93 89
f 71 90 82
f 72 89 97
f 72 97 85
f 86 98 84
f 84 99 87
f 73 87 100
f 73 100 88
f 77 88 92
f 85 101 94
f 82 90 102
f 82 102 83
f 89 103 97
f 85 97 101
f 86 95 98
f 84 98 12
f 84 12 99
f 83 102 104
f 83 104 81
f 81 104 32
f 81 32 91
f 93 91 105
f 87 99 100
f 92 21 96
f 32 105 91
f 93 106 89
f 89 106 103
f 97 40 101
f 101 40 94
f 95 94 107
f 95 107 108
f 95 108 98
f 100 18 88
f 88 18 92
f 102 27 104
f 93 105 106
f 103 37 97
f 99 12 10
f 92 18 17
f 92 17 21
f 96 21 20
f 96 20 90
f 90 23 102
f 104 27 26
f 104 26 32
f 97 37 40
f 94 40 44
f 99 10 15
f 99 15 100
f 100 15 14
f 100 14 18
f 90 20 24
f 90 24 23
f 94 44 43
f 94 43 107
f 98 108 12
f 102 23 27
f 32 30 105
f 40 37 41
f 105 30 35
f 105 35 106
f 103 106 38
f 103 38 37
f 109 28 27
f 43 48 107
f 18 14 110
f 109 27 23
f 31 32 111
f 111 32 26
f 20 112 24
f 34 106 35
f 17 113 21
f 106 34 38
f 37 114 41
f 44 40 115
f 11 12 116
f 116 12 108
f 117 15 10
f 113 118 21
f 107 48 46
f 107 46 108
f 119 42 120
f 50 121 49
f 49 121 122
f 52 122 51
f 54 122 53
f 53 122 123
f 56 123 55
f 55 123 124
f 58 124 57
f 60 124 59
f 59 124 125
f 62 125 61
f 64 125 63
f 63 125 126
f 66 126 65
f 68 126 67
f 67 126 127
f 120 127 119
f 119 127 121
f 121 45 47
f 64 61 125
f 62 59 125
f 60 57 124
f 58 55 124
f 56 53 123
f 54 51 122
f 52 49 122
f 50 45 121
f 47 119 121
f 120 67 127
f 68 65 126
f 66 63 126
f 126 128 129
f 126 129 127
f 127 129 130
f 127 130 121
f 121 130 131
f 121 131 122
f 122 131 132
f 122 132 123
f 123 132 133
f 123 133 124
f 124 133 134
f 124 134 125
f 125 134 135
f 125 135 126
f 126 135 128
f 136 135 137
f 137 135 134
f 137 134 138
f 138 134 133
f 138 133 139
f 139 133 132
f 139 132 140
f 140 132 131
f 140 131 141
f 141 131 130
f 141 130 142
f 142 130 129
f 142 129 136
f 136 129 128
f 136 128 135
f 137 138 140
f 141 137 140
f 136 137 141
f 140 138 139
f 142 136 141
f 43 42 119
f 47 48 119
f 119 48 43
f 115 40 39
f 115 39 67
f 44 120 42
f 120 44 67
f 67 44 115
f 114 37 36
f 114 36 65
f 41 68 39
f 68 41 65
f 65 41 114
f 34 33 63
f 38 66 36
f 66 38 63
f 63 38 34
f 30 29 61
f 35 64 33
f 64 35 61
f 61 35 30
f 111 26 25
f 111 25 59
f 62 31 59
f 59 31 111
f 109 23 22
f 109 22 57
f 60 28 57
f 57 28 109
f 112 20 19
f 112 19 55
f 24 58 22
f 58 24 55
f 55 24 112
f 113 17 16
f 113 16 53
f 118 56 19
f 118 19 21
f 56 118 53
f 53 118 113
f 14 13 51
f 110 54 16
f 110 16 18
f 54 110 51
f 51 110 14
f 117 10 9
f 117 9 49
f 15 52 13
f 52 15 49
f 49 15 117
f 116 108 46
f 116 46 45
f 50 11 45
f 45 11 116
f 143 144 145
f 146 143 145
f 147 148 149
f 150 147 149
f 150 144 143
f 150 143 147
f 147 143 146
f 147 146 148
f 144 150 145
f 145 150 149
f 145 149 146
f 146 149 148
f 151 152 153
f 153 152 154
f 155 156 157
f 155 157 158
f 158 159 160
f 161 162 163
f 163 162 159
f 163 159 164
f 161 165 162
f 166 165 167
f 167 165 164
f 167 164 159
f 167 159 168
f 169 168 170
f 169 170 166
f 166 170 165
f 171 170 172
f 172 170 168
f 172 168 159
f 172 159 173
f 173 159 174
f 173 174 175
f 171 175 170
f 176 175 174
f 174 159 177
f 177 159 158
f 177 158 178
f 178 158 157
f 178 157 176
f 176 157 175
f 179 156 180
f 181 182 183
f 183 182 184
f 184 185 183
f 183 185 186
f 183 186 187
f 187 188 160
f 160 188 189
f 160 189 190
f 190 191 160
f 160 191 156
f 156 191 180
f 162 192 193
f 194 162 179
f 162 193 195
f 195 193 196
f 196 197 195
f 195 197 181
f 194 192 162
f 183 187 160
f 183 160 159
f 156 179 162
f 156 162 157
f 157 162 175
f 175 162 170
f 170 162 165
f 198 195 181
f 198 181 183
f 199 200 201
f 201 200 202
f 201 202 203
f 203 202 204
f 203 204 205
f 205 204 206
f 205 206 200
f 205 200 199
f 207 204 208
f 207 208 209
f 209 200 206
f 210 200 209
f 210 209 211
f 211 209 208
f 211 208 212
f 212 208 213
f 212 213 214
f 214 200 210
f 215 200 214
f 215 214 216
f 216 214 213
f 216 213 217
f 217 213 218
f 217 218 219
f 219 218 220
f 219 220 200
f 219 200 215
f 221 222 223
f 224 225 226
f 224 226 227
f 225 224 228
f 229 230 231
f 231 230 222
f 228 232 225
f 225 232 233
f 234 231 225
f 234 225 233
f 234 229 231
f 226 235 227
f 221 223 236
f 237 236 238
f 237 238 239
f 237 239 202
f 202 239 240
f 202 240 241
f 241 235 202
f 202 235 226
f 202 226 218
f 202 218 213
f 202 213 208
f 202 208 204
f 236 237 221
f 221 231 222
f 225 231 200
f 225 200 220
f 242 243 244
f 245 246 243
f 243 246 247
f 244 243 248
f 248 243 247
f 248 247 249
f 159 162 250
f 250 162 242
f 250 242 251
f 252 251 242
f 252 242 253
f 253 242 244
f 246 254 255
f 255 256 246
f 246 256 257
f 257 256 258
f 245 151 259
f 245 260 246
f 246 260 254
f 259 261 245
f 245 261 262
f 245 262 260
f 257 263 264
f 265 266 151
f 257 264 153
f 153 264 267
f 267 265 153
f 153 265 151
f 268 269 151
f 270 271 258
f 258 271 272
f 258 272 273
f 258 273 257
f 151 274 259
f 259 274 275
f 275 276 259
f 259 276 277
f 273 278 257
f 278 279 257
f 280 263 257
f 280 257 279
f 281 282 151
f 283 284 277
f 277 284 259
f 151 266 268
f 151 282 274
f 270 285 271
f 271 285 277
f 277 285 283
f 151 269 281
f 221 237 198
f 198 237 195
f 286 287 288
f 288 287 289
f 154 290 286
f 286 290 291
f 291 292 286
f 289 293 288
f 288 293 294
f 154 295 290
f 286 292 296
f 297 298 288
f 297 288 294
f 298 297 299
f 300 301 302
f 296 303 286
f 303 304 286
f 286 304 305
f 286 305 287
f 287 305 306
f 152 307 308
f 152 308 154
f 154 308 295
f 306 309 287
f 310 311 312
f 310 312 309
f 309 312 287
f 300 302 152
f 300 152 313
f 313 152 298
f 313 298 299
f 314 315 300
f 300 315 301
f 152 302 316
f 316 317 152
f 314 318 315
f 315 318 310
f 310 318 319
f 310 319 311
f 317 320 152
f 152 320 307
f 321 322 323
f 202 200 322
f 322 200 324
f 323 322 325
f 325 322 324
f 325 324 326
f 288 298 327
f 327 298 321
f 327 321 328
f 323 329 321
f 321 329 330
f 321 330 328
f 195 237 162
f 162 237 202
f 245 243 298
f 298 243 321
f 242 162 322
f 322 162 202
f 243 331 321
f 321 331 332
f 242 333 243
f 243 333 331
f 334 322 332
f 332 322 321
f 333 334 331
f 331 334 332
f 322 334 242
f 242 334 333
f 298 152 245
f 245 152 151
f 326 324 251
f 251 324 250
f 252 253 325
f 325 253 323
f 244 329 253
f 253 329 323
f 330 329 248
f 248 329 244
f 249 247 328
f 328 247 327
f 246 288 247
f 247 288 327
f 324 200 250
f 250 200 159
f 257 286 246
f 246 286 288
f 159 200 183
f 183 200 231
f 218 226 155
f 155 226 156
f 218 155 220
f 220 155 158
f 220 158 225
f 225 158 160
f 225 160 226
f 226 160 156
f 201 161 199
f 199 161 163
f 205 199 164
f 164 199 163
f 205 164 203
f 203 164 165
f 203 165 201
f 201 165 161
f 204 166 206
f 206 166 167
f 209 206 168
f 168 206 167
f 209 168 207
f 207 168 169
f 207 169 204
f 204 169 166
f 211 171 210
f 210 171 172
f 214 210 173
f 173 210 172
f 214 173 212
f 212 173 175
f 212 175 211
f 211 175 171
f 216 176 215
f 215 176 174
f 219 215 177
f 177 215 174
f 219 177 217
f 217 177 178
f 217 178 216
f 216 178 176
f 287 258 289
f 289 258 256
f 261 313 299
f 261 299 262
f 262 299 297
f 262 297 260
f 260 297 294
f 260 294 254
f 254 294 293
f 254 293 255
f 255 293 289
f 255 289 256
f 300 313 259
f 259 313 261
f 258 287 312
f 258 312 270
f 270 312 311
f 270 311 285
f 285 311 319
f 285 319 318
f 285 318 283
f 283 318 314
f 283 314 284
f 284 314 300
f 284 300 259
f 227 235 179
f 179 235 194
f 194 235 241
f 194 241 192
f 192 241 240
f 192 240 239
f 192 239 193
f 193 239 238
f 193 238 196
f 196 238 197
f 197 238 236
f 197 236 181
f 181 236 223
f 181 223 182
f 182 223 222
f 182 222 184
f 184 222 230
f 184 230 185
f 185 230 229
f 185 229 186
f 186 229 187
f 187 229 234
f 187 234 233
f 187 233 188
f 188 233 232
f 188 232 189
f 189 232 228
f 189 228 190
f 190 228 224
f 190 224 191
f 191 224 180
f 180 224 227
f 180 227 179
f 266 308 307
f 266 307 268
f 268 307 320
f 268 320 269
f 269 320 317
f 269 317 281
f 281 317 282
f 282 317 316
f 282 316 274
f 274 316 302
f 274 302 275
f 275 302 301
f 275 301 276
f 276 301 315
f 276 315 277
f 277 315 310
f 277 310 271
f 271 310 309
f 271 309 272
f 272 309 306
f 272 306 273
f 273 306 305
f 273 305 278
f 278 305 304
f 278 304 303
f 278 303 279
f 279 303 296
f 279 296 280
f 280 296 292
f 280 292 263
f 263 292 291
f 263 291 264
f 264 291 290
f 264 290 267
f 267 290 295
f 267 295 265
f 265 295 308
f 265 308 266
f 183 231 335
f 183 335 336
f 337 338 339
f 337 339 198
f 198 339 221
f 231 221 339
f 231 339 335
f 335 339 338
f 336 337 183
f 183 337 198
f 340 341 337
f 337 341 338
f 342 343 335
f 335 343 336
f 341 342 338
f 338 342 335
f 336 343 337
f 337 343 340
f 342 341 343
f 343 341 340
f 344 345 346
f 153 154 346
f 153 346 345
f 286 257 347
f 347 257 348
f 154 286 346
f 346 286 347
f 346 347 344
f 345 348 153
f 153 348 257
f 349 350 348
f 348 350 347
f 351 352 344
f 344 352 345
f 350 351 347
f 347 351 344
f 345 352 348
f 348 352 349
f 351 350 352
f 352 350 349
f 252 325 251
f 251 325 326
f 249 328 330
f 249 330 248
f 353 354 355
f 353 356 354
f 354 356 357
f 358 359 360
f 358 361 359
f 359 361 362
f 356 353 363
f 363 353 358
f 357 356 364
f 364 356 363
f 354 357 360
f 360 357 364
f 354 360 359
f 354 359 355
f 365 366 367
f 365 368 362
f 362 368 369
f 370 371 359
f 365 372 373
f 365 373 368
f 359 371 374
f 365 375 376
f 362 369 377
f 367 378 379
f 367 379 365
f 365 379 372
f 365 376 366
f 380 381 355
f 355 381 382
f 362 377 370
f 362 370 359
f 378 383 379
f 374 384 359
f 359 384 385
f 359 385 355
f 355 385 386
f 387 386 388
f 355 382 389
f 389 390 355
f 355 390 365
f 365 390 375
f 387 391 386
f 386 391 355
f 355 391 380
f 387 388 392
f 387 392 393
f 393 392 383
f 383 392 379
f 394 365 361
f 361 365 362
f 395 396 358
f 397 398 358
f 399 400 361
f 361 400 401
f 358 398 361
f 361 398 399
f 396 397 358
f 361 401 402
f 361 402 394
f 403 404 394
f 402 405 394
f 394 405 406
f 353 407 408
f 353 408 358
f 358 408 395
f 409 353 410
f 406 411 412
f 406 412 394
f 394 412 403
f 353 413 410
f 404 414 394
f 394 414 353
f 353 414 413
f 409 415 353
f 353 415 416
f 353 416 407
f 406 417 418
f 406 418 411
f 419 417 420
f 416 419 407
f 407 419 420
f 417 419 421
f 417 421 418
f 355 365 353
f 353 365 394
f 360 364 358
f 358 364 363
f 415 380 416
f 416 380 391
f 416 391 419
f 419 391 387
f 419 387 393
f 419 393 421
f 421 393 383
f 421 383 418
f 418 383 411
f 411 383 378
f 411 378 412
f 412 378 367
f 380 415 381
f 381 415 409
f 403 366 376
f 403 376 404
f 404 376 375
f 404 375 414
f 414 375 390
f 414 390 413
f 413 390 389
f 413 389 410
f 410 389 382
f 410 382 409
f 409 382 381
f 366 403 367
f 367 403 412
f 395 384 374
f 395 374 396
f 396 374 371
f 396 371 397
f 397 371 370
f 397 370 398
f 398 370 377
f 398 377 399
f 399 377 400
f 400 377 369
f 400 369 401
f 401 369 368
f 384 395 385
f 385 395 408
f 402 373 372
f 402 372 405
f 405 372 379
f 405 379 406
f 406 379 392
f 406 392 417
f 417 392 388
f 417 388 420
f 420 388 386
f 420 386 407
f 407 386 385
f 407 385 408
f 373 402 368
f 368 402 401
f 422 423 424
f 424 423 425
f 424 425 426
f 426 425 427
f 426 427 428
f 428 427 429
f 428 429 430
f 430 429 431
f 430 431 432
f 432 431 433
f 432 433 434
f 434 433 435
f 434 435 436
f 436 435 437
f 438 439 440
f 441 442 443
f 443 442 444
f 443 444 445
f 445 444 446
f 445 446 447
f 447 446 448
f 447 448 449
f 438 440 450
f 438 450 451
f 451 450 452
f 451 452 453
f 453 452 449
f 453 449 454
f 455 456 457
f 457 456 458
f 457 458 439
f 439 458 442
f 439 442 441
f 439 441 440
f 449 448 454
f 454 448 459
f 454 459 460
f 460 459 461
f 460 461 462
f 463 464 465
f 463 465 466
f 464 463 467
f 468 469 464
f 468 464 467
f 469 468 470
f 469 470 471
f 472 471 470
f 471 472 473
f 474 475 473
f 473 475 471
f 476 477 475
f 476 475 474
f 477 476 478
f 477 478 479
f 480 479 478
f 479 480 481
f 482 483 479
f 482 479 481
f 483 482 484
f 483 484 485
f 484 486 485
f 485 486 487
f 488 489 487
f 487 489 485
f 490 491 489
f 490 489 488
f 491 490 492
f 491 492 493
f 494 493 492
f 493 494 495
f 496 497 493
f 496 493 495
f 497 496 498
f 499 500 497
f 499 497 498
f 500 499 501
f 500 501 502
f 503 502 501
f 502 503 504
f 505 506 504
f 504 506 502
f 506 505 507
f 506 507 465
f 465 507 466
f 508 509 510
f 510 509 511
f 505 508 510
f 507 505 512
f 512 505 510
f 468 467 513
f 513 467 514
f 514 515 516
f 517 518 470
f 470 518 472
f 513 516 517
f 472 519 520
f 472 520 473
f 516 521 517
f 518 521 519
f 519 522 520
f 520 522 473
f 473 522 474
f 474 522 523
f 474 523 476
f 521 524 522
f 525 526 478
f 522 524 523
f 478 527 480
f 523 524 525
f 527 528 480
f 480 528 481
f 525 524 526
f 482 529 530
f 482 530 484
f 484 531 486
f 529 532 530
f 486 531 487
f 531 533 487
f 487 533 534
f 487 534 488
f 488 534 490
f 533 535 536
f 492 537 538
f 492 538 494
f 534 536 539
f 538 540 494
f 494 540 495
f 537 539 538
f 540 541 495
f 495 541 496
f 538 539 540
f 541 542 496
f 496 542 498
f 540 543 541
f 498 542 499
f 544 545 501
f 501 545 503
f 545 509 503
f 503 509 504
f 466 515 514
f 466 514 463
f 463 514 467
f 514 516 513
f 468 513 517
f 468 517 470
f 518 519 472
f 517 521 518
f 522 519 521
f 523 525 476
f 476 525 478
f 478 526 527
f 524 546 526
f 526 546 527
f 527 546 528
f 481 528 529
f 481 529 482
f 528 532 529
f 546 532 528
f 484 530 531
f 530 532 535
f 530 535 531
f 531 535 533
f 492 490 537
f 533 536 534
f 490 534 537
f 534 539 537
f 544 499 542
f 542 541 543
f 543 540 539
f 499 544 501
f 543 547 542
f 542 547 544
f 544 547 545
f 508 505 504
f 508 504 509
f 509 545 511
f 511 545 547
f 510 516 512
f 512 516 515
f 512 515 507
f 507 515 466
f 543 524 547
f 521 547 524
f 543 539 524
f 535 532 536
f 532 546 536
f 524 539 536
f 524 536 546
f 516 511 547
f 510 511 516
f 516 547 521
f 451 453 428
f 451 428 438
f 438 428 430
f 432 438 430
f 436 455 457
f 454 460 428
f 454 428 453
f 426 428 460
f 426 460 424
f 424 460 462
f 424 462 422
f 432 434 438
f 438 434 436
f 438 436 439
f 439 436 457
f 548 549 550
f 551 552 456
f 551 456 437
f 435 553 437
f 437 553 551
f 461 554 423
f 423 554 555
f 423 555 425
f 425 555 556
f 425 556 427
f 427 556 557
f 427 557 558
f 427 558 429
f 429 558 559
f 429 559 431
f 431 559 433
f 433 559 560
f 433 560 435
f 435 560 561
f 435 561 553
f 552 562 456
f 456 562 563
f 456 563 458
f 458 563 564
f 458 564 442
f 442 564 565
f 442 565 444
f 444 565 566
f 444 566 446
f 446 566 567
f 446 567 448
f 448 567 568
f 448 568 459
f 459 568 549
f 459 549 461
f 461 549 554
f 554 549 548
f 548 569 570
f 548 570 554
f 570 571 554
f 554 571 555
f 555 571 572
f 555 572 556
f 572 573 556
f 556 573 557
f 573 574 557
f 557 574 558
f 558 574 575
f 558 575 559
f 559 575 576
f 559 576 577
f 559 577 560
f 577 578 560
f 560 578 561
f 561 578 553
f 578 579 553
f 553 579 551
f 579 580 551
f 551 580 552
f 580 581 552
f 552 581 582
f 552 582 562
f 562 582 583
f 562 583 563
f 583 584 563
f 563 584 564
f 564 584 565
f 584 585 565
f 585 586 565
f 565 586 566
f 566 586 587
f 566 587 567
f 567 587 568
f 587 588 568
f 568 588 549
f 549 588 589
f 549 589 550
f 550 589 590
f 590 569 550
f 550 569 548
f 591 580 592
f 580 579 592
f 579 578 592
f 592 578 593
f 593 578 594
f 578 577 594
f 594 577 576
f 594 576 595
f 595 576 575
f 595 575 574
f 595 574 596
f 574 573 596
f 596 573 597
f 573 572 597
f 597 572 571
f 597 571 598
f 571 570 598
f 598 570 569
f 598 569 599
f 599 569 600
f 569 590 600
f 600 590 589
f 600 589 601
f 601 589 588
f 588 587 601
f 601 587 602
f 602 587 586
f 602 586 603
f 586 585 603
f 603 585 604
f 585 584 604
f 604 584 605
f 584 583 605
f 605 583 582
f 605 582 581
f 605 581 606
f 606 581 591
f 591 581 580
f 469 597 598
f 469 598 464
f 464 598 465
f 465 598 599
f 475 595 471
f 471 595 596
f 471 596 597
f 471 597 469
f 479 594 477
f 477 594 475
f 475 594 595
f 483 592 479
f 479 592 593
f 479 593 594
f 489 605 606
f 489 606 485
f 485 606 591
f 485 591 483
f 483 591 592
f 493 604 491
f 491 604 605
f 491 605 489
f 500 603 497
f 497 603 493
f 493 603 604
f 465 599 600
f 465 600 506
f 506 600 502
f 600 601 502
f 502 601 500
f 500 601 602
f 500 602 603
f 449 452 607
f 607 452 608
f 608 452 450
f 608 450 440
f 609 607 610
f 610 607 608
f 447 609 445
f 441 443 610
f 610 443 609
f 609 443 445
f 607 609 449
f 449 609 447
f 441 610 440
f 440 610 608
f 462 461 422
f 422 461 423
f 436 437 455
f 455 437 456
f 611 612 613
f 613 612 614
f 613 614 615
f 615 614 616
f 615 616 617
f 617 616 618
f 617 618 619
f 619 618 620
f 619 620 621
f 621 620 622
f 621 622 623
f 623 622 624
f 623 624 625
f 625 624 626
f 625 626 627
f 628 629 630
f 631 632 633
f 633 632 634
f 634 632 635
f 634 635 636
f 636 635 637
f 636 637 638
f 638 637 639
f 638 639 640
f 628 630 641
f 628 641 642
f 642 641 640
f 642 640 643
f 643 640 644
f 645 646 647
f 645 647 648
f 648 647 631
f 648 631 629
f 629 631 633
f 629 633 630
f 640 639 644
f 644 639 649
f 644 649 650
f 650 649 651
f 650 651 652
f 653 654 655
f 653 655 656
f 654 653 657
f 658 659 654
f 658 654 657
f 659 658 660
f 659 660 661
f 662 661 660
f 661 662 663
f 664 665 661
f 664 661 663
f 665 664 666
f 667 668 666
f 666 668 665
f 668 667 669
f 668 669 670
f 671 670 669
f 670 671 672
f 673 674 670
f 673 670 672
f 674 673 675
f 674 675 676
f 675 677 676
f 676 677 678
f 679 680 676
f 679 676 678
f 680 679 681
f 682 683 680
f 682 680 681
f 683 682 684
f 683 684 685
f 683 685 686
f 687 686 685
f 688 689 686
f 688 686 687
f 689 688 690
f 691 692 689
f 691 689 690
f 692 691 693
f 692 693 694
f 695 694 693
f 694 695 696
f 697 698 694
f 697 694 696
f 698 697 699
f 698 699 655
f 699 700 655
f 655 700 656
f 701 702 703
f 703 702 704
f 705 701 703
f 697 705 706
f 706 705 703
f 699 697 706
f 699 706 707
f 707 706 703
f 657 653 708
f 708 653 709
f 658 657 708
f 709 710 711
f 708 711 712
f 713 714 660
f 660 714 662
f 708 712 715
f 714 716 662
f 662 716 663
f 716 717 663
f 663 717 664
f 664 717 666
f 716 718 717
f 717 719 666
f 718 720 719
f 671 721 722
f 671 722 672
f 672 722 673
f 673 722 675
f 721 720 722
f 722 723 724
f 677 725 678
f 723 726 724
f 724 726 725
f 725 726 727
f 681 728 682
f 728 729 730
f 731 732 685
f 730 733 731
f 731 733 732
f 729 733 730
f 732 733 734
f 732 734 687
f 687 735 688
f 735 736 688
f 688 736 690
f 734 737 736
f 738 739 693
f 739 702 693
f 693 702 695
f 738 704 739
f 702 701 695
f 695 701 696
f 696 705 697
f 710 656 700
f 710 709 656
f 656 709 653
f 660 658 713
f 708 709 711
f 658 708 713
f 708 715 713
f 713 715 714
f 714 715 716
f 740 667 666
f 718 716 715
f 717 718 719
f 666 719 740
f 667 740 669
f 719 720 740
f 740 720 721
f 740 721 669
f 669 721 671
f 722 724 675
f 720 723 722
f 675 724 725
f 675 725 677
f 725 727 678
f 678 727 679
f 679 727 728
f 679 728 681
f 730 682 728
f 728 727 729
f 729 727 726
f 682 730 731
f 682 731 684
f 684 731 685
f 685 732 687
f 687 734 735
f 738 691 690
f 738 690 736
f 733 737 734
f 735 734 736
f 691 738 693
f 737 704 736
f 736 704 738
f 705 696 701
f 704 702 739
f 703 711 707
f 699 707 700
f 711 710 707
f 707 710 700
f 737 718 704
f 718 715 704
f 737 733 718
f 703 712 711
f 729 726 723
f 723 720 729
f 718 733 729
f 718 729 720
f 703 704 712
f 712 704 715
f 642 643 617
f 642 617 628
f 628 617 619
f 623 628 621
f 621 628 619
f 627 645 625
f 625 645 648
f 644 650 617
f 644 617 643
f 615 617 650
f 615 650 613
f 613 650 652
f 613 652 611
f 623 625 628
f 628 625 629
f 629 625 648
f 741 742 743
f 744 745 646
f 744 646 746
f 746 646 626
f 624 747 626
f 626 747 746
f 651 748 612
f 612 748 749
f 612 749 614
f 614 749 750
f 614 750 616
f 616 750 751
f 616 751 752
f 616 752 618
f 618 752 753
f 618 753 620
f 620 753 754
f 620 754 622
f 622 754 755
f 622 755 624
f 624 755 747
f 745 756 646
f 646 756 647
f 647 756 757
f 647 757 631
f 631 757 758
f 631 758 632
f 632 758 759
f 632 759 635
f 635 759 760
f 635 760 637
f 637 760 761
f 637 761 639
f 639 761 762
f 639 762 649
f 649 762 651
f 651 762 742
f 651 742 748
f 748 742 741
f 741 763 764
f 741 764 748
f 748 764 765
f 748 765 749
f 749 765 750
f 765 766 750
f 750 766 751
f 766 767 751
f 751 767 752
f 767 768 752
f 752 768 753
f 768 769 753
f 753 769 754
f 769 770 754
f 754 770 755
f 770 771 755
f 755 771 747
f 747 771 746
f 771 772 746
f 746 772 744
f 772 773 744
f 744 773 774
f 744 774 745
f 745 774 775
f 745 775 756
f 756 775 757
f 757 775 776
f 757 776 777
f 757 777 758
f 758 777 778
f 758 778 759
f 759 778 760
f 760 778 779
f 760 779 761
f 779 780 761
f 761 780 762
f 780 781 762
f 762 781 742
f 781 782 742
f 742 782 743
f 782 763 743
f 743 763 741
f 773 783 784
f 773 772 783
f 772 771 783
f 783 771 785
f 771 770 785
f 785 770 786
f 770 769 786
f 786 769 787
f 769 768 787
f 768 767 787
f 787 767 788
f 767 766 788
f 788 766 789
f 766 765 789
f 789 765 764
f 789 764 790
f 790 764 763
f 790 763 791
f 763 782 791
f 791 782 792
f 782 781 792
f 781 780 792
f 792 780 793
f 780 779 793
f 793 779 794
f 794 779 778
f 794 778 795
f 795 778 777
f 795 777 796
f 796 777 776
f 796 776 775
f 796 775 797
f 797 775 774
f 797 774 784
f 784 774 773
f 659 789 654
f 654 789 790
f 654 790 655
f 655 790 791
f 665 787 661
f 661 787 788
f 661 788 659
f 659 788 789
f 670 786 668
f 668 786 665
f 665 786 787
f 674 783 670
f 670 783 785
f 670 785 786
f 680 797 784
f 680 784 676
f 676 784 783
f 676 783 674
f 686 796 683
f 683 796 797
f 683 797 680
f 692 794 689
f 689 794 686
f 686 794 795
f 686 795 796
f 655 791 698
f 698 791 792
f 698 792 694
f 694 792 793
f 694 793 692
f 692 793 794
f 798 640 641
f 798 641 799
f 799 641 630
f 800 798 801
f 801 798 799
f 638 800 636
f 633 634 801
f 801 634 800
f 800 634 636
f 798 800 640
f 640 800 638
f 633 801 630
f 630 801 799
f 652 651 611
f 611 651 612
f 627 626 645
f 645 626 646
f 802 803 804
f 802 804 805
f 805 804 806
f 805 806 807
f 807 806 808
f 807 808 809
f 809 808 810
f 810 808 811
f 810 811 812
f 812 811 813
f 812 813 814
f 815 802 805
f 807 809 815
f 815 809 810
f 807 815 805
f 816 817 818
f 812 814 815
f 812 815 810
f 819 817 816
f 814 818 815
f 815 818 820
f 820 818 817
f 821 822 823
f 821 823 824
f 825 826 822
f 825 822 821
f 822 826 827
f 828 821 824
f 827 829 822
f 830 821 828
f 831 821 830
f 831 830 832
f 832 830 828
f 832 828 833
f 833 828 824
f 833 824 823
f 833 823 834
f 834 823 822
f 834 822 835
f 835 822 829
f 835 829 836
f 836 829 827
f 836 827 837
f 837 827 826
f 837 826 838
f 838 826 825
f 838 825 821
f 838 821 831
f 837 839 836
f 836 839 840
f 836 840 835
f 835 840 841
f 835 841 834
f 834 841 842
f 834 842 843
f 834 843 833
f 833 843 844
f 833 844 832
f 832 844 845
f 832 845 846
f 832 846 831
f 831 846 847
f 831 847 838
f 838 847 848
f 838 848 837
f 837 848 839
f 846 849 847
f 847 849 850
f 847 850 848
f 848 850 851
f 848 851 852
f 848 852 839
f 839 852 840
f 840 852 853
f 840 853 841
f 841 853 854
f 841 854 842
f 842 854 855
f 842 855 843
f 843 855 856
f 843 856 844
f 844 856 857
f 844 857 845
f 845 857 846
f 846 857 849
f 850 849 858
f 849 859 858
f 857 859 849
f 856 860 857
f 857 860 859
f 856 861 860
f 855 862 856
f 856 862 861
f 862 855 863
f 863 855 854
f 864 852 865
f 863 854 866
f 851 865 852
f 866 854 853
f 858 867 850
f 853 868 866
f 852 864 868
f 851 869 865
f 851 870 869
f 850 867 851
f 851 867 870
f 852 868 853
f 867 858 871
f 870 867 872
f 865 873 864
f 864 874 868
f 868 875 866
f 866 876 877
f 866 877 863
f 863 877 878
f 863 878 862
f 861 879 860
f 859 880 881
f 859 881 858
f 867 871 882
f 862 883 861
f 861 884 879
f 859 860 880
f 858 885 886
f 858 886 871
f 867 882 872
f 872 887 870
f 870 887 869
f 869 887 888
f 869 888 865
f 865 888 889
f 865 889 873
f 864 873 890
f 864 890 874
f 868 874 891
f 868 891 875
f 866 875 892
f 866 892 876
f 878 893 862
f 862 893 883
f 861 883 884
f 879 884 894
f 879 894 860
f 860 894 895
f 858 881 885
f 871 896 882
f 872 882 897
f 872 897 898
f 872 898 887
f 873 889 890
f 874 890 899
f 874 899 891
f 875 891 900
f 875 900 901
f 875 901 902
f 875 902 892
f 876 903 877
f 877 903 878
f 878 904 893
f 860 895 880
f 881 880 905
f 881 905 885
f 885 906 886
f 871 886 896
f 882 896 897
f 887 907 888
f 888 908 889
f 876 892 909
f 876 909 903
f 878 903 904
f 893 904 910
f 883 893 911
f 883 911 912
f 883 912 884
f 884 912 913
f 884 913 894
f 880 914 905
f 885 915 906
f 886 906 896
f 887 898 907
f 888 907 908
f 890 916 899
f 900 891 917
f 900 918 901
f 902 901 919
f 892 920 909
f 903 909 921
f 893 910 911
f 894 913 922
f 894 922 895
f 895 923 880
f 880 923 914
f 885 905 924
f 885 924 915
f 906 915 925
f 896 906 926
f 897 896 927
f 897 928 898
f 898 929 907
f 889 908 930
f 889 930 890
f 890 930 916
f 891 899 917
f 900 917 931
f 900 931 918
f 901 918 919
f 892 902 919
f 892 919 920
f 904 932 910
f 910 933 911
f 911 934 912
f 912 934 935
f 912 936 913
f 913 936 937
f 895 922 938
f 895 938 923
f 905 914 939
f 905 939 924
f 906 925 926
f 896 926 940
f 896 940 927
f 897 927 928
f 898 928 929
f 907 929 941
f 907 941 908
f 908 942 930
f 899 916 943
f 899 943 917
f 903 921 932
f 903 932 904
f 910 932 933
f 912 935 936
f 913 937 922
f 914 923 944
f 914 944 939
f 915 945 925
f 908 941 946
f 908 946 942
f 916 930 943
f 917 947 931
f 918 948 919
f 919 948 949
f 920 950 909
f 909 950 951
f 909 951 952
f 909 952 921
f 921 953 932
f 911 933 934
f 937 936 954
f 922 937 938
f 923 938 955
f 923 956 944
f 915 924 945
f 926 925 957
f 926 957 958
f 926 958 940
f 940 959 927
f 927 959 928
f 929 928 960
f 929 961 941
f 930 942 962
f 943 963 917
f 917 963 947
f 931 947 964
f 918 931 964
f 918 964 948
f 919 949 920
f 920 949 950
f 921 952 953
f 932 953 965
f 932 966 933
f 933 966 934
f 934 967 935
f 937 954 968
f 937 968 938
f 923 955 956
f 944 956 969
f 944 969 939
f 924 939 970
f 924 970 945
f 945 957 925
f 940 958 959
f 928 959 960
f 929 960 961
f 941 961 946
f 942 946 962
f 930 962 943
f 943 962 963
f 948 964 949
f 951 950 952
f 932 965 966
f 934 966 967
f 935 967 936
f 936 967 954
f 938 968 955
f 939 969 970
f 945 970 957
f 971 968 972
f 972 968 954
f 973 965 974
f 974 965 953
f 970 975 957
f 957 975 813
f 953 952 974
f 974 952 950
f 976 966 973
f 973 966 965
f 972 954 967
f 972 967 976
f 955 971 975
f 955 975 956
f 958 957 813
f 956 975 969
f 969 975 970
f 811 959 813
f 804 803 947
f 955 968 971
f 813 959 958
f 808 960 811
f 811 960 959
f 949 974 950
f 964 803 974
f 964 974 949
f 976 967 966
f 808 961 960
f 947 803 964
f 806 962 946
f 806 946 808
f 808 946 961
f 947 963 804
f 804 963 806
f 806 963 962
f 818 975 971
f 818 971 816
f 816 971 972
f 816 972 819
f 819 972 976
f 819 976 817
f 817 976 973
f 817 973 820
f 820 973 974
f 820 974 815
f 813 975 814
f 814 975 818
f 974 803 815
f 815 803 802
f 977 978 979
f 979 978 980
f 980 978 981
f 982 983 984
f 982 980 983
f 985 980 986
f 986 987 985
f 988 989 980
f 988 980 985
f 979 980 989
f 980 981 990
f 983 980 990
f 991 982 984
f 984 992 993
f 984 993 991
f 991 993 982
f 982 993 994
f 982 994 995
f 982 995 980
f 980 995 986
f 986 995 996
f 986 996 997
f 986 997 987
f 987 997 985
f 985 997 998
f 985 998 999
f 985 999 988
f 988 999 989
f 989 999 1000
f 989 1000 1001
f 989 1001 979
f 979 1001 1002
f 979 1002 977
f 977 1002 1003
f 977 1003 978
f 978 1003 1004
f 978 1004 981
f 981 1004 1005
f 981 1005 990
f 990 1005 1006
f 990 1006 983
f 983 1006 992
f 983 992 984
f 998 1007 999
f 999 1007 1008
f 999 1008 1000
f 1000 1008 1001
f 1001 1008 1009
f 995 1010 996
f 996 1010 1011
f 996 1011 997
f 997 1011 1012
f 997 1012 998
f 998 1012 1013
f 998 1013 1007
f 993 1014 1015
f 993 1015 994
f 994 1015 1016
f 994 1016 995
f 995 1016 1010
f 1001 1009 1017
f 1001 1017 1002
f 1002 1017 1018
f 1002 1018 1003
f 1003 1018 1019
f 1003 1019 1004
f 1006 1020 1021
f 1006 1021 992
f 992 1021 1022
f 992 1022 993
f 993 1022 1014
f 1019 1023 1004
f 1004 1023 1024
f 1004 1024 1005
f 1005 1024 1006
f 1006 1024 1020
f 1022 1025 1014
f 1014 1025 1026
f 1014 1026 1015
f 1015 1026 1027
f 1015 1027 1016
f 1016 1027 1028
f 1016 1028 1010
f 1010 1028 1029
f 1010 1029 1011
f 1011 1029 1030
f 1011 1030 1012
f 1012 1030 1031
f 1012 1031 1013
f 1013 1031 1032
f 1013 1032 1007
f 1007 1032 1033
f 1007 1033 1008
f 1008 1033 1034
f 1008 1034 1009
f 1009 1034 1035
f 1009 1035 1017
f 1017 1035 1036
f 1017 1036 1018
f 1018 1036 1037
f 1018 1037 1019
f 1019 1037 1023
f 1023 1037 1038
f 1023 1038 1039
f 1023 1039 1024
f 1024 1039 1040
f 1024 1040 1020
f 1020 1040 1041
f 1020 1041 1021
f 1021 1041 1025
f 1021 1025 1022
f 1030 1042 1031
f 1031 1042 1043
f 1031 1043 1032
f 1032 1043 1044
f 1032 1044 1033
f 1033 1044 1034
f 1034 1044 1045
f 1034 1045 1035
f 1035 1045 1046
f 1035 1046 1036
f 1027 1047 1028
f 1028 1047 1048
f 1028 1048 1049
f 1028 1049 1029
f 1029 1049 1050
f 1029 1050 1030
f 1030 1050 1042
f 1040 1051 1052
f 1040 1052 1041
f 1041 1052 1025
f 1025 1052 1053
f 1025 1053 1054
f 1025 1054 1026
f 1026 1054 1055
f 1026 1055 1027
f 1027 1055 1047
f 1036 1046 1056
f 1036 1056 1057
f 1036 1057 1037
f 1037 1057 1058
f 1037 1058 1038
f 1038 1058 1059
f 1038 1059 1039
f 1039 1059 1060
f 1039 1060 1040
f 1040 1060 1051
f 1053 1061 1054
f 1054 1061 1062
f 1054 1062 1063
f 1054 1063 1055
f 1055 1063 1064
f 1055 1064 1047
f 1047 1064 1065
f 1047 1065 1048
f 1048 1065 1066
f 1048 1066 1049
f 1049 1066 1067
f 1049 1067 1050
f 1050 1067 1068
f 1050 1068 1042
f 1042 1068 1069
f 1042 1069 1043
f 1043 1069 1070
f 1043 1070 1044
f 1044 1070 1071
f 1044 1071 1045
f 1045 1071 1072
f 1045 1072 1046
f 1046 1072 1073
f 1046 1073 1074
f 1046 1074 1056
f 1056 1074 1057
f 1057 1074 1075
f 1057 1075 1076
f 1057 1076 1058
f 1058 1076 1059
f 1059 1076 1077
f 1059 1077 1060
f 1060 1077 1078
f 1060 1078 1051
f 1051 1078 1052
f 1052 1078 1079
f 1052 1079 1061
f 1052 1061 1053
f 1080 1068 1081
f 1081 1068 1067
f 1081 1067 1082
f 1082 1067 1066
f 1082 1066 1083
f 1083 1066 1065
f 1083 1065 1084
f 1084 1065 1064
f 1084 1064 1085
f 1086 1074 1073
f 1086 1073 1087
f 1087 1073 1072
f 1087 1072 1088
f 1088 1072 1071
f 1088 1071 1089
f 1089 1071 1090
f 1090 1071 1070
f 1090 1070 1091
f 1091 1070 1069
f 1091 1069 1080
f 1080 1069 1068
f 1085 1064 1063
f 1085 1063 1092
f 1092 1063 1093
f 1093 1063 1062
f 1093 1062 1094
f 1094 1062 1061
f 1094 1061 1095
f 1095 1061 1079
f 1095 1079 1096
f 1096 1079 1078
f 1096 1078 1097
f 1097 1078 1077
f 1097 1077 1098
f 1098 1077 1099
f 1099 1077 1076
f 1099 1076 1100
f 1100 1076 1075
f 1100 1075 1101
f 1101 1075 1074
f 1101 1074 1086
f 1102 1093 1094
f 1103 1092 1093
f 1092 1104 1105
f 1092 1105 1085
f 1106 1084 1085
f 1084 1107 1083
f 1108 1083 1107
f 1109 1082 1083
f 1110 1081 1082
f 1111 1080 1081
f 1112 1091 1080
f 1113 1090 1091
f 1114 1090 1115
f 1090 1114 1089
f 1116 1088 1089
f 1088 1116 1117
f 1117 1087 1088
f 1118 1086 1087
f 1086 1119 1101
f 1101 1120 1100
f 1121 1100 1120
f 1122 1099 1123
f 1123 1099 1100
f 1124 1098 1099
f 1125 1097 1098
f 1126 1096 1097
f 1127 1095 1128
f 1128 1095 1096
f 1095 1127 1094
f 1127 1129 1094
f 1130 1131 1132
f 1133 1130 1134
f 1134 1130 1132
f 1134 1132 1135
f 1136 1133 1137
f 1137 1133 1134
f 1127 1138 1139
f 1139 1138 1136
f 1139 1136 1137
f 1103 1093 1102
f 1103 1102 1140
f 1104 1103 1141
f 1141 1103 1142
f 1142 1103 1140
f 1143 1144 1145
f 1142 1146 1141
f 1141 1146 1105
f 1105 1146 1147
f 1145 1135 1148
f 1143 1148 1149
f 1135 1150 1148
f 1147 1146 1151
f 1147 1151 1152
f 1147 1152 1106
f 1152 1151 1153
f 1152 1153 1154
f 1107 1154 1155
f 1148 1150 1149
f 1149 1150 1156
f 1149 1156 1151
f 1151 1156 1153
f 1108 1109 1083
f 1155 1157 1158
f 1156 1159 1160
f 1160 1159 1161
f 1160 1161 1153
f 1158 1162 1109
f 1109 1110 1082
f 1159 1163 1161
f 1153 1161 1157
f 1158 1157 1164
f 1158 1164 1162
f 1162 1165 1110
f 1161 1163 1157
f 1157 1163 1166
f 1162 1164 1165
f 1110 1165 1167
f 1166 1163 1168
f 1164 1166 1169
f 1167 1170 1111
f 1165 1169 1171
f 1165 1171 1170
f 1111 1172 1112
f 1111 1112 1080
f 1166 1173 1169
f 1169 1173 1171
f 1168 1174 1166
f 1166 1174 1173
f 1173 1175 1171
f 1172 1176 1112
f 1177 1178 1176
f 1173 1174 1175
f 1175 1174 1179
f 1175 1179 1177
f 1176 1178 1180
f 1113 1115 1090
f 1115 1181 1182
f 1115 1182 1114
f 1178 1183 1184
f 1181 1184 1185
f 1181 1185 1182
f 1089 1186 1116
f 1183 1187 1188
f 1183 1188 1184
f 1184 1188 1185
f 1182 1185 1186
f 1185 1189 1190
f 1188 1191 1189
f 1117 1192 1087
f 1189 1193 1190
f 1190 1193 1194
f 1117 1195 1192
f 1189 1191 1193
f 1194 1193 1196
f 1194 1196 1195
f 1193 1197 1198
f 1193 1198 1196
f 1196 1198 1199
f 1196 1199 1200
f 1119 1201 1120
f 1201 1202 1203
f 1201 1203 1120
f 1198 1197 1199
f 1199 1197 1204
f 1199 1204 1200
f 1200 1204 1202
f 1120 1203 1205
f 1120 1205 1121
f 1121 1123 1100
f 1204 1197 1206
f 1203 1202 1207
f 1203 1207 1205
f 1204 1208 1202
f 1209 1210 1122
f 1122 1210 1124
f 1211 1208 1212
f 1211 1213 1209
f 1209 1213 1210
f 1124 1125 1098
f 1206 1214 1208
f 1208 1214 1212
f 1210 1213 1215
f 1210 1215 1216
f 1210 1216 1124
f 1124 1216 1125
f 1125 1216 1217
f 1215 1218 1219
f 1212 1214 1218
f 1217 1220 1126
f 1219 1218 1131
f 1219 1131 1221
f 1126 1220 1128
f 1221 1131 1220
f 1220 1131 1130
f 1220 1133 1128
f 1128 1138 1127
f 1140 1102 1129
f 1129 1102 1094
f 1104 1092 1103
f 1142 1140 1143
f 1143 1140 1144
f 1104 1141 1105
f 1106 1085 1105
f 1145 1148 1143
f 1143 1149 1142
f 1142 1149 1146
f 1105 1147 1106
f 1107 1084 1106
f 1107 1106 1154
f 1154 1106 1152
f 1146 1149 1151
f 1107 1155 1108
f 1156 1160 1153
f 1154 1153 1157
f 1154 1157 1155
f 1155 1158 1108
f 1108 1158 1109
f 1150 1159 1156
f 1109 1162 1110
f 1167 1081 1110
f 1170 1167 1165
f 1166 1164 1157
f 1164 1169 1165
f 1167 1111 1081
f 1170 1171 1111
f 1111 1171 1172
f 1176 1172 1177
f 1177 1172 1171
f 1171 1175 1177
f 1112 1176 1180
f 1112 1180 1091
f 1091 1180 1113
f 1177 1179 1183
f 1177 1183 1178
f 1180 1178 1184
f 1180 1184 1181
f 1180 1181 1113
f 1113 1181 1115
f 1174 1187 1179
f 1179 1187 1183
f 1114 1182 1186
f 1114 1186 1089
f 1187 1191 1188
f 1188 1189 1185
f 1185 1190 1186
f 1186 1190 1194
f 1186 1194 1116
f 1116 1194 1117
f 1194 1195 1117
f 1192 1118 1087
f 1119 1086 1118
f 1201 1119 1118
f 1201 1118 1222
f 1222 1118 1192
f 1197 1193 1191
f 1195 1196 1200
f 1195 1200 1192
f 1192 1200 1222
f 1119 1120 1101
f 1222 1200 1202
f 1222 1202 1201
f 1121 1205 1123
f 1099 1122 1124
f 1209 1123 1205
f 1209 1205 1211
f 1211 1205 1207
f 1211 1207 1208
f 1208 1207 1202
f 1208 1204 1206
f 1123 1209 1122
f 1211 1212 1213
f 1126 1097 1125
f 1215 1213 1218
f 1218 1213 1212
f 1215 1219 1216
f 1216 1219 1221
f 1216 1221 1217
f 1125 1217 1126
f 1217 1221 1220
f 1126 1128 1096
f 1138 1128 1136
f 1136 1128 1133
f 1133 1220 1130
f 1132 1131 1218
f 1132 1218 1214
f 1135 1145 1134
f 1134 1145 1144
f 1134 1144 1137
f 1127 1139 1129
f 1137 1144 1140
f 1137 1140 1139
f 1139 1140 1129
f 1132 1214 1187
f 1187 1174 1132
f 1174 1168 1132
f 1132 1163 1159
f 1132 1168 1163
f 1191 1214 1206
f 1191 1206 1197
f 1214 1191 1187
f 1132 1159 1150
f 1150 1135 1132
f 1223 1224 1225
f 1223 1225 1226
f 1226 1225 1227
f 1227 1225 1228
f 1227 1228 1229
f 1229 1228 1230
f 1229 1230 1231
f 1231 1230 1232
f 1231 1232 1233
f 1233 1232 1234
f 1233 1234 1235
f 1223 1226 1235
f 1235 1226 1227
f 1235 1227 1233
f 1233 1227 1229
f 1233 1229 1231
f 1236 1237 1238
f 1238 1237 1239
f 1240 1241 1239
f 1240 1239 1242
f 1243 1244 1245
f 1243 1245 1246
f 1246 1245 1242
f 1246 1242 1237
f 1237 1242 1239
f 1234 1236 1238
f 1234 1238 1224
f 1224 1238 1247
f 1224 1247 1225
f 1225 1247 1248
f 1225 1248 1228
f 1243 1249 1244
f 1244 1249 1250
f 1250 1249 1251
f 1250 1251 1252
f 1252 1251 1241
f 1252 1241 1240
f 1228 1248 1253
f 1228 1253 1230
f 1230 1253 1232
f 1232 1253 1254
f 1232 1254 1234
f 1234 1254 1236
f 1255 1256 1257
f 1255 1258 1259
f 1260 1261 1262
f 1262 1261 1263
f 1264 1265 1266
f 1267 1268 1269
f 1262 1263 1270
f 1262 1270 1271
f 1272 1273 1274
f 1266 1265 1275
f 1266 1275 1272
f 1260 1276 1261
f 1277 1278 1264
f 1257 1279 1280
f 1256 1281 1257
f 1282 1283 1284
f 1274 1285 1286
f 1280 1287 1277
f 1284 1283 1260
f 1260 1283 1276
f 1274 1286 1282
f 1288 1289 1290
f 1288 1290 1291
f 1292 1293 1294
f 1295 1296 1297
f 1297 1296 1298
f 1299 1300 1301
f 1299 1301 1302
f 1303 1304 1292
f 1292 1304 1293
f 1305 1306 1288
f 1288 1306 1289
f 1307 1308 1295
f 1307 1295 1297
f 1292 1294 1300
f 1292 1300 1299
f 1309 1310 1311
f 1305 1312 1306
f 1298 1296 1313
f 1314 1315 1308
f 1314 1308 1307
f 1301 1316 1302
f 1303 1317 1304
f 1318 1319 1320
f 1309 1321 1310
f 1322 1323 1309
f 1309 1323 1321
f 1302 1316 1315
f 1302 1315 1314
f 1324 1325 1303
f 1303 1325 1317
f 1318 1320 1324
f 1324 1320 1325
f 1310 1319 1311
f 1311 1319 1318
f 1322 1326 1323
f 1290 1326 1291
f 1291 1326 1322
f 1313 1327 1298
f 1298 1327 1312
f 1298 1312 1305
f 1328 1329 1330
f 1331 1332 1333
f 1331 1333 1334
f 1334 1333 1335
f 1336 1337 1338
f 1338 1337 1339
f 1337 1340 1339
f 1339 1340 1341
f 1339 1341 1331
f 1331 1341 1332
f 1334 1335 1342
f 1334 1342 1343
f 1343 1342 1344
f 1343 1344 1345
f 1344 1346 1345
f 1345 1346 1347
f 1345 1347 1348
f 1347 1349 1348
f 1348 1349 1350
f 1349 1351 1350
f 1350 1351 1329
f 1350 1329 1328
f 1328 1330 1352
f 1328 1352 1353
f 1352 1354 1353
f 1353 1354 1355
f 1355 1354 1356
f 1355 1356 1357
f 1355 1357 1358
f 1358 1357 1359
f 1358 1359 1360
f 1359 1361 1360
f 1360 1361 1362
f 1360 1362 1363
f 1363 1362 1364
f 1364 1365 1363
f 1363 1365 1366
f 1365 1367 1366
f 1366 1367 1368
f 1366 1368 1369
f 1368 1370 1369
f 1369 1370 1336
f 1336 1370 1337
f 1371 1355 1358
f 1371 1358 1372
f 1372 1358 1360
f 1372 1360 1373
f 1373 1360 1363
f 1373 1363 1374
f 1374 1363 1366
f 1374 1366 1375
f 1375 1366 1369
f 1375 1369 1376
f 1376 1369 1336
f 1376 1336 1377
f 1377 1336 1338
f 1377 1338 1339
f 1377 1339 1378
f 1378 1339 1331
f 1378 1331 1379
f 1379 1331 1334
f 1379 1334 1380
f 1380 1334 1343
f 1380 1343 1381
f 1381 1343 1345
f 1381 1345 1382
f 1382 1345 1383
f 1383 1345 1348
f 1383 1348 1384
f 1384 1348 1350
f 1384 1350 1328
f 1384 1328 1385
f 1385 1328 1353
f 1385 1353 1386
f 1386 1353 1355
f 1386 1355 1371
f 1387 1379 1380
f 1380 1388 1387
f 1381 1389 1380
f 1380 1389 1388
f 1382 1389 1381
f 1382 1390 1389
f 1383 1390 1382
f 1383 1391 1390
f 1384 1391 1383
f 1384 1392 1391
f 1385 1393 1384
f 1384 1393 1392
f 1385 1394 1393
f 1386 1394 1385
f 1386 1395 1394
f 1371 1395 1386
f 1371 1396 1395
f 1372 1396 1371
f 1372 1397 1396
f 1373 1398 1372
f 1372 1398 1397
f 1374 1399 1373
f 1373 1399 1398
f 1375 1400 1374
f 1374 1400 1399
f 1376 1401 1375
f 1375 1401 1400
f 1377 1402 1376
f 1376 1402 1401
f 1378 1403 1377
f 1377 1403 1402
f 1378 1404 1403
f 1379 1404 1378
f 1379 1387 1404
f 1405 1394 1406
f 1406 1394 1407
f 1407 1394 1395
f 1407 1395 1408
f 1408 1395 1396
f 1408 1396 1409
f 1409 1396 1397
f 1409 1397 1410
f 1411 1389 1412
f 1412 1389 1390
f 1412 1390 1413
f 1413 1390 1391
f 1413 1391 1414
f 1414 1391 1392
f 1414 1392 1415
f 1415 1392 1405
f 1405 1392 1393
f 1405 1393 1394
f 1416 1402 1417
f 1417 1402 1403
f 1417 1403 1418
f 1418 1403 1404
f 1418 1404 1419
f 1419 1404 1387
f 1419 1387 1420
f 1420 1387 1388
f 1420 1388 1411
f 1411 1388 1389
f 1397 1398 1410
f 1410 1398 1421
f 1421 1398 1399
f 1421 1399 1422
f 1422 1399 1400
f 1422 1400 1423
f 1423 1400 1401
f 1423 1401 1416
f 1416 1401 1402
f 1405 1413 1415
f 1415 1413 1414
f 1405 1420 1413
f 1413 1420 1411
f 1420 1405 1406
f 1408 1409 1420
f 1408 1420 1407
f 1407 1420 1406
f 1410 1421 1420
f 1410 1420 1409
f 1419 1420 1421
f 1419 1421 1418
f 1418 1421 1422
f 1412 1413 1411
f 1423 1416 1418
f 1423 1418 1422
f 1417 1418 1416
f 1326 1290 1424
f 1315 1425 1308
f 1296 1295 1426
f 1306 1427 1289
f 1290 1289 1428
f 1300 1294 1429
f 1296 1430 1313
f 1321 1431 1310
f 1319 1310 1432
f 1316 1433 1315
f 1315 1433 1425
f 1308 1425 1434
f 1312 1435 1306
f 1306 1435 1436
f 1306 1436 1427
f 1326 1437 1323
f 1321 1323 1361
f 1310 1431 1432
f 1320 1438 1325
f 1325 1439 1317
f 1294 1293 1440
f 1296 1332 1430
f 1313 1430 1340
f 1327 1313 1337
f 1327 1337 1312
f 1312 1337 1435
f 1289 1427 1368
f 1289 1368 1428
f 1290 1428 1367
f 1290 1367 1365
f 1290 1365 1424
f 1326 1424 1364
f 1326 1364 1437
f 1323 1437 1362
f 1323 1362 1361
f 1321 1361 1359
f 1321 1359 1431
f 1319 1432 1356
f 1319 1356 1320
f 1320 1356 1354
f 1320 1354 1438
f 1325 1438 1352
f 1325 1352 1439
f 1317 1439 1330
f 1317 1330 1441
f 1317 1441 1329
f 1317 1329 1304
f 1293 1304 1351
f 1293 1351 1440
f 1294 1440 1349
f 1294 1349 1429
f 1300 1429 1347
f 1300 1347 1301
f 1301 1347 1346
f 1316 1301 1344
f 1316 1344 1433
f 1308 1434 1335
f 1308 1335 1295
f 1295 1335 1333
f 1295 1333 1426
f 1296 1426 1332
f 1430 1332 1341
f 1430 1341 1340
f 1313 1340 1337
f 1427 1370 1368
f 1428 1368 1367
f 1432 1431 1357
f 1304 1329 1351
f 1301 1346 1344
f 1425 1433 1342
f 1425 1342 1434
f 1434 1342 1335
f 1426 1333 1332
f 1435 1337 1370
f 1435 1370 1436
f 1436 1370 1427
f 1424 1365 1364
f 1437 1364 1362
f 1431 1359 1357
f 1432 1357 1356
f 1438 1354 1352
f 1439 1352 1330
f 1441 1330 1329
f 1440 1351 1349
f 1429 1349 1347
f 1433 1344 1342
f 1318 1442 1443
f 1442 1318 1324
f 1442 1324 1444
f 1303 1445 1324
f 1324 1445 1444
f 1303 1446 1445
f 1446 1303 1292
f 1446 1292 1447
f 1292 1448 1447
f 1448 1292 1449
f 1449 1292 1299
f 1449 1299 1450
f 1302 1450 1299
f 1302 1451 1450
f 1451 1302 1452
f 1452 1302 1314
f 1452 1314 1453
f 1307 1454 1314
f 1314 1454 1453
f 1307 1455 1454
f 1455 1307 1297
f 1455 1297 1456
f 1456 1297 1457
f 1457 1297 1458
f 1458 1297 1298
f 1458 1298 1459
f 1305 1460 1298
f 1298 1460 1461
f 1298 1461 1459
f 1305 1462 1463
f 1305 1463 1460
f 1462 1305 1288
f 1462 1288 1464
f 1291 1465 1288
f 1288 1465 1464
f 1291 1466 1465
f 1291 1467 1466
f 1467 1291 1322
f 1467 1322 1468
f 1322 1469 1468
f 1469 1322 1470
f 1470 1322 1309
f 1470 1309 1471
f 1311 1472 1309
f 1309 1472 1471
f 1443 1473 1318
f 1318 1473 1311
f 1311 1473 1472
f 1255 1249 1258
f 1249 1255 1257
f 1249 1257 1251
f 1251 1257 1241
f 1241 1257 1280
f 1241 1280 1239
f 1239 1280 1277
f 1239 1277 1238
f 1238 1277 1264
f 1238 1264 1247
f 1247 1264 1266
f 1247 1266 1272
f 1247 1272 1248
f 1248 1272 1274
f 1248 1274 1253
f 1253 1274 1282
f 1253 1282 1254
f 1254 1282 1284
f 1254 1284 1260
f 1254 1260 1236
f 1236 1260 1262
f 1236 1262 1237
f 1237 1262 1271
f 1237 1271 1246
f 1246 1271 1267
f 1246 1267 1269
f 1246 1269 1243
f 1243 1269 1258
f 1243 1258 1249
f 1474 1242 1245
f 1474 1245 1475
f 1475 1245 1476
f 1476 1245 1244
f 1476 1244 1477
f 1477 1244 1250
f 1477 1250 1478
f 1478 1250 1252
f 1478 1252 1240
f 1478 1240 1479
f 1478 1476 1477
f 1475 1476 1478
f 1475 1478 1474
f 1474 1478 1479
f 1234 1224 1235
f 1235 1224 1223
f 1240 1242 1479
f 1479 1242 1474
f 1461 1279 1257
f 1281 1461 1257
f 1459 1281 1256
f 1458 1459 1256
f 1454 1455 1480
f 1480 1455 1258
f 1258 1455 1456
f 1258 1456 1259
f 1258 1269 1480
f 1453 1268 1452
f 1480 1269 1454
f 1454 1269 1268
f 1454 1268 1453
f 1268 1267 1452
f 1451 1270 1450
f 1270 1263 1450
f 1450 1263 1449
f 1449 1263 1448
f 1263 1261 1448
f 1448 1261 1447
f 1447 1276 1446
f 1445 1283 1444
f 1283 1282 1442
f 1442 1282 1286
f 1442 1286 1443
f 1285 1274 1273
f 1273 1275 1471
f 1471 1275 1470
f 1273 1272 1275
f 1470 1275 1469
f 1469 1265 1468
f 1468 1265 1467
f 1467 1278 1466
f 1265 1264 1467
f 1467 1264 1278
f 1466 1278 1465
f 1287 1280 1462
f 1462 1280 1481
f 1462 1481 1463
f 1481 1280 1463
f 1463 1280 1279
f 1460 1279 1461
f 1270 1451 1452
f 1270 1452 1271
f 1271 1452 1267
f 1276 1447 1261
f 1446 1276 1283
f 1446 1283 1445
f 1442 1444 1283
f 1443 1286 1285
f 1443 1285 1473
f 1473 1285 1472
f 1471 1472 1273
f 1273 1472 1285
f 1469 1275 1265
f 1464 1465 1277
f 1277 1465 1278
f 1277 1287 1464
f 1464 1287 1462
f 1463 1279 1460
f 1281 1459 1461
f 1256 1255 1457
f 1256 1457 1458
f 1255 1259 1457
f 1457 1259 1456
f 1482 1483 1484
f 1484 1483 1485
f 1486 1485 1487
f 1487 1485 1483
f 1488 1489 1490
f 1490 1489 1491
f 1492 1486 1493
f 1493 1486 1487
f 1489 1494 1491
f 1491 1494 1495
f 1496 1493 1495
f 1495 1493 1491
f 1497 1496 1494
f 1494 1496 1495
f 1492 1497 1489
f 1489 1497 1494
f 1486 1492 1488
f 1488 1492 1489
f 1485 1486 1484
f 1484 1486 1488
f 1484 1488 1498
f 1498 1488 1499
f 1499 1500 1498
f 1498 1500 1501
f 1500 1490 1501
f 1501 1490 1487
f 1501 1487 1482
f 1482 1487 1483
f 1493 1487 1491
f 1491 1487 1490
f 1497 1492 1496
f 1496 1492 1493
f 1490 1500 1488
f 1488 1500 1499
f 1498 1501 1502
f 1498 1502 1503
f 1498 1503 1504
f 1505 1506 1507
f 1505 1507 1484
f 1484 1507 1482
f 1501 1482 1502
f 1502 1482 1507
f 1502 1507 1503
f 1503 1507 1506
f 1504 1505 1498
f 1498 1505 1484
f 1508 1509 1505
f 1505 1509 1506
f 1510 1511 1503
f 1503 1511 1504
f 1509 1510 1506
f 1506 1510 1503
f 1504 1511 1505
f 1505 1511 1508
f 1510 1509 1511
f 1511 1509 1508
f 1512 1513 1514
f 1512 1515 1513
f 1513 1515 1516
f 1517 1518 1519
f 1519 1512 1517
f 1517 1512 1514
f 1520 1521 1522
f 1522 1518 1520
f 1520 1518 1517
f 1523 1524 1525
f 1523 1521 1524
f 1524 1521 1520
f 1526 1527 1528
f 1528 1527 1525
f 1529 1530 1526
f 1526 1530 1527
f 1531 1523 1529
f 1529 1523 1530
f 1532 1521 1531
f 1531 1521 1523
f 1521 1532 1522
f 1522 1532 1533
f 1534 1518 1533
f 1533 1518 1522
f 1518 1534 1535
f 1518 1535 1519
f 1536 1512 1535
f 1535 1512 1519
f 1537 1515 1536
f 1536 1515 1512
f 1538 1516 1537
f 1537 1516 1515
f 1539 1513 1538
f 1538 1513 1516
f 1513 1539 1540
f 1513 1540 1514
f 1541 1517 1540
f 1540 1517 1514
f 1542 1520 1541
f 1541 1520 1517
f 1543 1524 1542
f 1542 1524 1520
f 1524 1543 1528
f 1524 1528 1525
f 1530 1523 1527
f 1527 1523 1525
f 1536 1540 1539
f 1537 1536 1538
f 1538 1536 1539
f 1541 1535 1534
f 1536 1535 1540
f 1540 1535 1541
f 1542 1533 1532
f 1534 1533 1541
f 1541 1533 1542
f 1531 1528 1543
f 1532 1531 1542
f 1542 1531 1543
f 1531 1529 1528
f 1528 1529 1526
