# converted from clearpath_common @ b0f6d92 clearpath_platform_description/meshes/a200/attachments/pacs_top_plate.stl by convert_husky_meshes.py (24 verts, 48 tris)
v -0.335000 -0.280000 0.000000
v -0.335000 -0.280000 0.006350
v -0.335000 0.280000 0.000000
v -0.335000 0.280000 0.006350
v -0.320000 -0.295000 0.000000
v -0.320000 -0.295000 0.006350
v -0.320000 0.295000 0.000000
v -0.320000 0.295000 0.006350
v -0.150000 -0.190000 0.000000
v -0.150000 -0.190000 0.006350
v -0.150000 0.190000 0.000000
v -0.150000 0.190000 0.006350
v 0.150000 -0.190000 0.000000
v 0.150000 -0.190000 0.006350
v 0.150000 0.190000 0.000000
v 0.150000 0.190000 0.006350
v 0.320000 -0.295000 0.000000
v 0.320000 -0.295000 0.006350
v 0.320000 0.295000 0.000000
v 0.320000 0.295000 0.006350
v 0.335000 -0.280000 0.000000
v 0.335000 -0.280000 0.006350
v 0.335000 0.280000 0.000000
v 0.335000 0.280000 0.006350
f 8 12 20
f 20 12 16
f 20 16 24
f 24 16 14
f 24 14 22
f 8 4 12
f 12 4 2
f 12 2 10
f 10 2 6
f 10 6 14
f 14 6 18
f 14 18 22
f 5 9 17
f 17 9 13
f 17 13 21
f 21 13 15
f 21 15 23
f 5 1 9
f 9 1 3
f 9 3 11
f 11 3 7
f 11 7 15
f 15 7 19
f 15 19 23
f 20 24 19
f 19 24 23
f 8 20 7
f 7 20 19
f 4 8 3
f 3 8 7
f 2 4 1
f 1 4 3
f 6 2 5
f 5 2 1
f 18 6 17
f 17 6 5
f 22 18 21
f 21 18 17
f 24 22 23
f 23 22 21
f 10 14 9
f 9 14 13
f 14 16 13
f 13 16 15
f 16 12 15
f 15 12 11
f 12 10 11
f 11 10 9
