# converted from Collada by convert_husky_meshes.py (254 verts, 477 tris)
v -0.012697 -0.187499 0.001216
v -0.012642 0.187499 0.001462
v -0.011981 0.187510 -0.004239
v -0.011091 -0.187528 -0.006685
v -0.008080 0.198722 -0.010531
v -0.006046 -0.199350 -0.011543
v -0.002451 0.187501 -0.012355
v -0.001214 -0.187500 -0.012699
v 0.004929 0.187500 -0.011898
v 0.003299 -0.187500 -0.012313
v 0.006944 -0.196737 -0.010560
v 0.010040 0.195262 -0.007734
v 0.011757 -0.187490 -0.005562
v 0.012515 0.187500 -0.002642
v 0.011936 -0.187497 0.005437
v 0.011531 0.187485 0.006080
v 0.007702 0.203129 0.009465
v 0.006019 -0.187500 0.011521
v 0.003299 0.187500 0.012313
v -0.001214 0.187500 0.012699
v -0.002451 -0.187501 0.012355
v -0.008016 0.198941 0.010610
v -0.008080 -0.198722 0.010531
v -0.011949 0.193433 0.005277
v -0.011856 -0.195100 0.005373
v -0.010025 -0.187501 -0.002748
v -0.010025 0.187501 0.002748
v -0.008658 -0.187531 0.006072
v -0.006361 0.195830 0.008609
v -0.002453 -0.187500 0.010118
v -0.001184 0.187500 0.010274
v 0.003818 0.187500 0.009778
v 0.003865 -0.187500 0.009739
v 0.004237 -0.197959 0.009653
v 0.007958 0.197109 0.006305
v 0.009565 -0.187493 0.004542
v 0.010168 0.187500 0.002146
v 0.009889 -0.187501 -0.004166
v 0.009357 0.187488 -0.005002
v 0.005866 0.198309 -0.008216
v 0.004672 -0.187500 -0.009531
v 0.002759 0.187502 -0.010241
v -0.002453 0.187500 -0.010118
v -0.001184 -0.187500 -0.010274
v -0.006361 -0.195830 -0.008609
v -0.008658 0.187531 -0.006072
v -0.026718 0.228000 0.004240
v -0.046379 0.250678 0.002742
v -0.026871 0.227881 -0.003853
v -0.046104 0.250909 -0.006201
v -0.016399 0.221861 -0.010593
v -0.037940 0.257759 -0.012852
v -0.009071 0.224347 -0.012806
v -0.029125 0.265156 -0.008930
v -0.001134 0.219414 -0.011912
v -0.006904 0.237024 -0.009147
v -0.008112 0.243628 -0.003289
v -0.027199 0.266772 0.003034
v -0.007771 0.243903 0.003150
v -0.007005 0.237932 0.008468
v -0.030947 0.263628 0.010406
v -0.003615 0.224671 0.011895
v -0.037447 0.258173 0.012908
v -0.005067 0.215942 0.012750
v -0.013973 0.223582 0.012016
v -0.043659 0.252961 0.009371
v -0.018870 0.219995 0.007587
v -0.025331 0.229177 -0.001792
v -0.044735 0.252058 0.000000
v -0.025416 0.229106 0.001184
v -0.044735 0.252058 0.000034
v -0.042388 0.254027 0.008173
v -0.017578 0.221772 0.006221
v -0.012664 0.218946 0.008748
v -0.004470 0.217106 0.010458
v -0.034942 0.260275 0.010215
v -0.008099 0.232632 0.008877
v -0.030354 0.264125 0.006240
v -0.010224 0.241863 0.004543
v -0.028781 0.265445 -0.001567
v -0.009940 0.242090 -0.004043
v -0.032050 0.262702 -0.008455
v -0.009546 0.236130 -0.008129
v -0.003931 0.222360 -0.009798
v -0.039473 0.256473 -0.010370
v -0.011886 0.223505 -0.010126
v -0.017626 0.221562 -0.006018
v -0.044521 0.252237 -0.003127
v 0.008603 0.204333 -0.002741
v 0.010677 0.187519 0.000665
v -0.000078 0.187500 0.010325
v -0.012380 0.203425 -0.001845
v -0.010165 0.187509 -0.001027
v -0.008043 0.204399 -0.008611
v 0.000552 0.187500 -0.010361
v 0.006461 0.213842 0.001706
v 0.002394 0.211750 0.008606
v -0.011333 0.203672 0.004367
v 0.002162 0.219380 -0.006433
v -0.016860 0.215499 0.000000
v 0.000269 0.228468 -0.001705
v 0.000230 0.224498 0.005799
v -0.025303 0.229186 0.000279
v -0.009642 0.242342 0.000000
v -0.013560 0.199738 -0.003317
v 0.003091 0.187502 0.012686
v 0.012018 0.200592 0.001129
v 0.012700 0.187500 0.000000
v -0.012700 0.187500 0.000000
v -0.015285 0.208369 0.004318
v 0.007997 0.208848 -0.007429
v 0.003072 0.187502 -0.012687
v -0.017708 0.212531 -0.002893
v 0.007948 0.216846 0.000788
v 0.002617 0.225308 0.006519
v 0.002120 0.224875 -0.007430
v -0.000120 0.233170 -0.002248
v -0.027152 0.227637 -0.000272
v -0.007818 0.243872 0.000000
v -0.046559 0.250527 0.000000
v -0.008112 -0.243628 0.003289
v -0.027327 -0.266664 0.003658
v -0.007771 -0.243903 -0.003150
v -0.028756 -0.265466 -0.008355
v -0.002089 -0.231165 -0.008566
v -0.005311 -0.227497 -0.011851
v -0.037447 -0.258173 -0.012908
v -0.001446 -0.210008 -0.012845
v -0.013973 -0.223582 -0.012016
v -0.043659 -0.252961 -0.009371
v -0.018391 -0.220585 -0.008293
v -0.026718 -0.228000 -0.004240
v -0.046379 -0.250678 -0.002743
v -0.027232 -0.227583 0.001467
v -0.046104 -0.250909 0.006201
v -0.022877 -0.222577 0.003867
v -0.016372 -0.222256 0.010727
v -0.037940 -0.257759 0.012852
v -0.008906 -0.226848 0.012854
v -0.031352 -0.263287 0.010776
v -0.006904 -0.237024 0.009147
v -0.010990 -0.241246 -0.006594
v -0.029240 -0.265059 -0.004488
v -0.010337 -0.241764 0.005281
v -0.029082 -0.265192 0.002310
v -0.031436 -0.263217 0.007955
v -0.006248 -0.226848 0.009728
v -0.039473 -0.256473 0.010370
v -0.011886 -0.223505 0.010126
v -0.021058 -0.226281 0.006038
v -0.044805 -0.251999 0.002121
v -0.022581 -0.225283 0.000017
v -0.042388 -0.254027 -0.008173
v -0.021164 -0.226402 -0.006024
v -0.016477 -0.223263 -0.008345
v -0.008653 -0.221963 -0.010317
v -0.034942 -0.260275 -0.010215
v -0.004972 -0.224377 -0.009768
v 0.008812 -0.203972 0.002327
v 0.010319 -0.187500 0.000000
v -0.000078 -0.187500 -0.010325
v -0.012380 -0.203425 0.001845
v -0.010165 -0.187509 0.001027
v -0.008043 -0.204399 0.008611
v 0.000552 -0.187500 0.010361
v 0.006635 -0.210293 -0.004540
v 0.002281 -0.205032 -0.009633
v -0.011333 -0.203672 -0.004367
v 0.003268 -0.214753 0.006912
v -0.010159 -0.211258 -0.008611
v -0.016792 -0.215534 -0.000916
v -0.015097 -0.216306 0.006028
v 0.001890 -0.223724 0.003676
v 0.001031 -0.223740 -0.005299
v -0.002349 -0.232709 -0.000637
v -0.009642 -0.242342 0.000000
v 0.000241 -0.187500 -0.012695
v 0.001447 -0.209724 0.012107
v 0.000241 -0.187500 0.012705
v -0.013524 -0.196963 -0.000789
v -0.012700 -0.187500 0.000000
v -0.012498 -0.203352 -0.007420
v 0.007370 -0.208773 -0.008040
v 0.010283 -0.209191 -0.001129
v 0.013265 -0.187531 0.001013
v 0.007997 -0.208848 0.007429
v -0.016977 -0.210283 0.001904
v -0.015384 -0.213418 0.007916
v -0.018462 -0.214750 -0.003293
v 0.005177 -0.223455 -0.002356
v 0.002120 -0.224875 0.007430
v -0.000120 -0.233170 0.002248
v -0.027121 -0.227661 -0.000313
v -0.007818 -0.243872 0.000000
v -0.046559 -0.250527 0.000000
v -0.028926 -0.265323 0.000000
v -0.075000 0.098886 -0.001400
v -0.075000 0.098825 0.000000
v -0.075000 0.103401 0.000491
v -0.075000 0.099079 0.004203
v -0.075000 0.107429 0.004545
v -0.075000 0.107305 0.009713
v -0.075000 0.112572 0.002600
v -0.075000 0.113534 0.008090
v -0.075000 0.117543 0.003247
v -0.075000 0.112850 0.000000
v -0.075000 0.112634 -0.002203
v -0.075000 0.117030 -0.004470
v -0.075000 0.109732 -0.009893
v -0.075000 0.107398 -0.004710
v -0.075000 0.101132 -0.006594
v -0.011595 0.116401 0.005422
v -0.012790 0.118037 -0.000927
v -0.008099 0.109354 0.009874
v -0.010698 0.101691 0.007029
v -0.012941 0.098432 0.000132
v -0.010819 0.101512 -0.006835
v -0.008089 0.108247 -0.009840
v -0.010863 0.115293 -0.006761
v -0.012736 0.112925 0.000825
v -0.012233 0.111494 -0.003550
v -0.011905 0.106899 -0.004430
v -0.012666 0.103951 -0.001484
v -0.012447 0.104557 0.002728
v -0.011817 0.109445 0.004725
v -0.075000 -0.117814 -0.001400
v -0.075000 -0.117875 0.000000
v -0.075000 -0.113179 0.000831
v -0.075000 -0.117621 0.004203
v -0.075000 -0.109271 0.004545
v -0.075000 -0.109395 0.009713
v -0.075000 -0.104128 0.002600
v -0.075000 -0.103166 0.008090
v -0.075000 -0.099157 0.003247
v -0.075000 -0.103850 0.000000
v -0.075000 -0.104066 -0.002203
v -0.075000 -0.099670 -0.004470
v -0.075000 -0.106968 -0.009893
v -0.075000 -0.109638 -0.004699
v -0.075000 -0.115568 -0.006594
v -0.011595 -0.100299 0.005422
v -0.012790 -0.098663 -0.000927
v -0.008099 -0.107346 0.009874
v -0.010698 -0.115009 0.007029
v -0.012941 -0.118267 0.000132
v -0.010819 -0.115188 -0.006835
v -0.008089 -0.108453 -0.009840
v -0.010863 -0.101407 -0.006761
v -0.012736 -0.103775 0.000825
v -0.012233 -0.105206 -0.003550
v -0.011905 -0.109801 -0.004430
v -0.012666 -0.112749 -0.001484
v -0.012447 -0.112143 0.002728
v -0.011817 -0.107255 0.004725
f 1 2 3
f 1 3 4
f 4 3 5
f 4 5 6
f 6 5 7
f 6 7 8
f 8 7 9
f 8 9 10
f 10 9 11
f 11 9 12
f 11 12 13
f 13 12 14
f 13 14 15
f 15 14 16
f 15 16 17
f 15 17 18
f 18 17 19
f 18 19 20
f 18 20 21
f 21 20 22
f 21 22 23
f 23 22 24
f 23 24 25
f 25 24 2
f 25 2 1
f 26 27 28
f 28 27 29
f 28 29 30
f 30 29 31
f 30 31 32
f 30 32 33
f 33 32 34
f 34 32 35
f 34 35 36
f 36 35 37
f 36 37 38
f 38 37 39
f 38 39 40
f 38 40 41
f 41 40 42
f 41 42 43
f 41 43 44
f 44 43 45
f 45 43 46
f 45 46 26
f 26 46 27
f 47 48 49
f 49 48 50
f 49 50 51
f 51 50 52
f 51 52 53
f 53 52 54
f 53 54 55
f 55 54 56
f 56 54 57
f 57 54 58
f 57 58 59
f 59 58 60
f 60 58 61
f 60 61 62
f 62 61 63
f 62 63 64
f 64 63 65
f 65 63 66
f 65 66 67
f 67 66 47
f 47 66 48
f 68 69 70
f 70 69 71
f 70 71 72
f 70 72 73
f 73 72 74
f 74 72 75
f 75 72 76
f 75 76 77
f 77 76 78
f 77 78 79
f 79 78 80
f 79 80 81
f 81 80 82
f 81 82 83
f 83 82 84
f 84 82 85
f 84 85 86
f 86 85 87
f 87 85 88
f 87 88 68
f 68 88 69
f 89 39 90
f 90 37 35
f 91 31 29
f 92 93 46
f 92 46 94
f 94 46 43
f 94 43 95
f 40 39 89
f 89 90 96
f 96 90 35
f 97 35 32
f 97 32 75
f 75 32 91
f 29 27 98
f 98 27 93
f 98 93 92
f 94 95 86
f 86 95 42
f 84 42 40
f 84 40 99
f 99 40 89
f 96 35 97
f 75 91 29
f 75 29 74
f 74 29 98
f 100 92 87
f 87 92 94
f 87 94 86
f 86 42 84
f 101 99 89
f 101 89 96
f 102 96 97
f 74 98 73
f 73 98 92
f 73 92 100
f 101 96 102
f 102 97 77
f 77 97 75
f 103 100 87
f 83 84 99
f 83 99 81
f 81 99 101
f 101 102 79
f 79 102 77
f 73 100 103
f 68 103 87
f 81 101 104
f 104 101 79
f 73 103 70
f 105 2 24
f 22 20 64
f 64 20 106
f 106 19 17
f 107 16 108
f 107 108 14
f 107 14 12
f 105 3 109
f 105 109 2
f 110 24 22
f 17 16 107
f 107 12 111
f 111 12 9
f 111 9 55
f 55 9 112
f 53 112 7
f 5 3 105
f 113 24 110
f 62 106 17
f 17 107 114
f 114 107 111
f 113 105 24
f 67 110 22
f 67 22 65
f 65 22 64
f 64 106 62
f 62 17 115
f 115 17 114
f 114 111 116
f 116 111 55
f 55 112 53
f 53 7 5
f 53 5 51
f 51 5 105
f 51 105 113
f 115 114 117
f 117 114 116
f 118 110 67
f 118 67 47
f 60 62 115
f 60 115 59
f 59 115 117
f 117 116 56
f 56 116 55
f 51 113 49
f 49 113 118
f 118 113 110
f 119 59 117
f 119 117 57
f 57 117 56
f 71 48 72
f 72 48 66
f 72 66 63
f 72 63 76
f 76 63 61
f 76 61 78
f 78 61 58
f 78 58 80
f 80 58 54
f 80 54 82
f 82 54 85
f 85 54 52
f 85 52 50
f 85 50 88
f 88 50 71
f 71 50 120
f 71 120 48
f 121 122 123
f 123 122 124
f 123 124 125
f 125 124 126
f 126 124 127
f 126 127 128
f 128 127 129
f 129 127 130
f 129 130 131
f 131 130 132
f 132 130 133
f 132 133 134
f 134 133 135
f 134 135 136
f 136 135 137
f 137 135 138
f 137 138 139
f 139 138 140
f 139 140 141
f 141 140 122
f 141 122 121
f 142 143 144
f 144 143 145
f 144 145 146
f 144 146 147
f 147 146 148
f 147 148 149
f 149 148 150
f 150 148 151
f 150 151 152
f 152 151 153
f 152 153 154
f 154 153 155
f 155 153 156
f 156 153 157
f 156 157 158
f 158 157 142
f 142 157 143
f 159 36 160
f 159 160 38
f 161 44 45
f 162 163 28
f 162 28 164
f 164 28 30
f 164 30 165
f 34 165 33
f 34 36 159
f 159 38 166
f 166 38 41
f 166 41 167
f 167 41 161
f 45 26 168
f 168 26 163
f 168 163 162
f 164 165 149
f 149 165 34
f 169 34 159
f 167 161 156
f 156 161 45
f 156 45 170
f 170 45 168
f 171 162 172
f 172 162 164
f 172 164 149
f 149 34 147
f 147 34 169
f 173 169 159
f 173 159 166
f 173 166 174
f 174 166 158
f 158 166 167
f 158 167 156
f 170 168 155
f 155 168 171
f 171 168 162
f 147 169 173
f 175 173 174
f 156 170 155
f 152 171 172
f 152 172 150
f 150 172 149
f 144 147 173
f 144 173 175
f 175 174 142
f 142 174 158
f 154 155 171
f 154 171 152
f 144 175 176
f 176 175 142
f 6 8 128
f 128 8 177
f 177 10 128
f 128 10 11
f 178 18 179
f 25 1 180
f 180 1 181
f 180 181 4
f 182 180 4
f 182 4 6
f 183 11 13
f 183 13 184
f 184 13 185
f 184 185 186
f 186 185 15
f 186 15 18
f 186 18 178
f 178 179 139
f 139 179 21
f 187 180 182
f 128 11 183
f 23 25 188
f 188 25 180
f 188 180 187
f 189 187 182
f 189 182 131
f 131 182 6
f 131 6 129
f 129 6 128
f 126 128 183
f 126 183 125
f 125 183 190
f 190 183 184
f 190 184 186
f 190 186 191
f 191 186 178
f 139 21 23
f 139 23 137
f 137 23 188
f 192 190 191
f 191 178 139
f 136 187 189
f 193 189 132
f 132 189 131
f 123 125 190
f 123 190 192
f 192 191 141
f 141 191 139
f 137 188 187
f 137 187 136
f 193 136 189
f 194 123 192
f 194 192 121
f 121 192 141
f 134 136 193
f 148 138 135
f 148 135 151
f 151 135 195
f 151 195 133
f 151 133 153
f 153 133 130
f 153 130 127
f 153 127 157
f 157 127 124
f 157 124 143
f 143 124 196
f 196 124 122
f 196 122 145
f 145 122 146
f 146 122 140
f 146 140 148
f 148 140 138
f 197 198 199
f 199 198 200
f 199 200 201
f 201 200 202
f 201 202 203
f 203 202 204
f 203 204 205
f 203 205 206
f 206 205 207
f 207 205 208
f 207 208 209
f 207 209 210
f 210 209 211
f 210 211 199
f 199 211 197
f 212 213 205
f 204 212 205
f 204 214 212
f 214 204 202
f 215 214 202
f 200 215 202
f 200 216 215
f 216 200 197
f 211 216 197
f 211 217 216
f 209 218 211
f 211 218 217
f 219 218 209
f 208 219 209
f 208 213 219
f 205 213 208
f 220 207 221
f 221 207 210
f 221 210 222
f 199 223 210
f 223 222 210
f 223 199 224
f 201 224 199
f 224 201 225
f 203 225 201
f 220 225 203
f 207 220 203
f 213 220 221
f 213 221 219
f 221 222 219
f 222 216 217
f 217 219 222
f 219 217 218
f 222 223 216
f 223 224 216
f 224 225 215
f 216 224 215
f 215 225 212
f 215 212 214
f 212 225 220
f 220 213 212
f 226 227 228
f 228 227 229
f 228 229 230
f 230 229 231
f 230 231 232
f 232 231 233
f 232 233 234
f 232 234 235
f 235 234 236
f 236 234 237
f 236 237 238
f 236 238 239
f 239 238 240
f 239 240 228
f 228 240 226
f 241 242 234
f 233 241 234
f 233 243 241
f 243 233 231
f 244 243 231
f 229 244 231
f 229 245 244
f 245 229 226
f 240 245 226
f 240 246 245
f 238 247 240
f 240 247 246
f 248 247 238
f 237 248 238
f 237 242 248
f 234 242 237
f 249 236 250
f 250 236 239
f 250 239 251
f 252 251 239
f 228 252 239
f 252 228 253
f 230 253 228
f 253 230 254
f 232 254 230
f 249 254 232
f 236 249 232
f 242 249 250
f 242 250 248
f 250 251 248
f 251 245 246
f 246 248 251
f 248 246 247
f 251 252 245
f 252 253 245
f 253 254 244
f 245 253 244
f 244 254 241
f 244 241 243
f 241 254 249
f 249 242 241
