# converted from clearpath_common @ 33e4b31 clearpath_mounts_description/meshes/pacs/bracket_horizontal.stl by convert_husky_meshes.py (300 verts, 596 tris)
v -0.045000 -0.040000 -0.010125
v -0.045000 -0.040000 -0.003200
v -0.045000 -0.040000 0.000000
v -0.045000 0.040000 -0.010125
v -0.045000 0.040000 -0.003200
v -0.045000 0.040000 0.000000
v -0.044924 -0.040868 -0.010125
v -0.044924 -0.040868 0.000000
v -0.044924 -0.039132 -0.010125
v -0.044924 -0.039132 -0.003200
v -0.044924 0.039132 -0.010125
v -0.044924 0.039132 -0.003200
v -0.044924 0.040868 -0.010125
v -0.044924 0.040868 0.000000
v -0.044699 -0.041710 -0.010125
v -0.044699 -0.041710 0.000000
v -0.044699 -0.038290 -0.010125
v -0.044699 -0.038290 -0.003200
v -0.044699 0.038290 -0.010125
v -0.044699 0.038290 -0.003200
v -0.044699 0.041710 -0.010125
v -0.044699 0.041710 0.000000
v -0.044330 -0.042500 -0.010125
v -0.044330 -0.042500 0.000000
v -0.044330 -0.037500 -0.010125
v -0.044330 -0.037500 -0.003200
v -0.044330 0.037500 -0.010125
v -0.044330 0.037500 -0.003200
v -0.044330 0.042500 -0.010125
v -0.044330 0.042500 0.000000
v -0.043830 -0.043214 -0.010125
v -0.043830 -0.043214 0.000000
v -0.043830 -0.036786 -0.010125
v -0.043830 -0.036786 -0.003200
v -0.043830 0.036786 -0.010125
v -0.043830 0.036786 -0.003200
v -0.043830 0.043214 -0.010125
v -0.043830 0.043214 0.000000
v -0.043214 -0.043830 -0.010125
v -0.043214 -0.043830 0.000000
v -0.043214 -0.036170 -0.010125
v -0.043214 -0.036170 -0.003200
v -0.043214 0.036170 -0.010125
v -0.043214 0.036170 -0.003200
v -0.043214 0.043830 -0.010125
v -0.043214 0.043830 0.000000
v -0.042500 -0.044330 -0.010125
v -0.042500 -0.044330 0.000000
v -0.042500 -0.035670 -0.010125
v -0.042500 -0.035670 -0.003200
v -0.042500 0.035670 -0.010125
v -0.042500 0.035670 -0.003200
v -0.042500 0.044330 -0.010125
v -0.042500 0.044330 0.000000
v -0.041710 -0.044699 -0.010125
v -0.041710 -0.044699 0.000000
v -0.041710 -0.035301 -0.010125
v -0.041710 -0.035301 -0.003200
v -0.041710 0.035301 -0.010125
v -0.041710 0.035301 -0.003200
v -0.041710 0.044699 -0.010125
v -0.041710 0.044699 0.000000
v -0.040868 -0.044924 -0.010125
v -0.040868 -0.044924 0.000000
v -0.040868 -0.035076 -0.010125
v -0.040868 -0.035076 -0.003200
v -0.040868 0.035076 -0.010125
v -0.040868 0.035076 -0.003200
v -0.040868 0.044924 -0.010125
v -0.040868 0.044924 0.000000
v -0.040000 -0.045000 -0.010125
v -0.040000 -0.045000 -0.003200
v -0.040000 -0.045000 0.000000
v -0.040000 -0.040000 -0.010125
v -0.040000 -0.035000 -0.010125
v -0.040000 -0.035000 -0.003200
v -0.040000 0.035000 -0.010125
v -0.040000 0.035000 -0.003200
v -0.040000 0.040000 -0.010125
v -0.040000 0.045000 -0.010125
v -0.040000 0.045000 -0.003200
v -0.040000 0.045000 0.000000
v -0.039132 -0.044924 -0.010125
v -0.039132 -0.044924 -0.003200
v -0.039132 -0.035076 -0.010125
v -0.039132 -0.035076 -0.003200
v -0.039132 0.035076 -0.010125
v -0.039132 0.035076 -0.003200
v -0.039132 0.044924 -0.010125
v -0.039132 0.044924 -0.003200
v -0.038290 -0.044699 -0.010125
v -0.038290 -0.044699 -0.003200
v -0.038290 -0.035301 -0.010125
v -0.038290 -0.035301 -0.003200
v -0.038290 0.035301 -0.010125
v -0.038290 0.035301 -0.003200
v -0.038290 0.044699 -0.010125
v -0.038290 0.044699 -0.003200
v -0.037500 -0.044330 -0.010125
v -0.037500 -0.044330 -0.003200
v -0.037500 -0.035670 -0.010125
v -0.037500 -0.035670 -0.003200
v -0.037500 0.035670 -0.010125
v -0.037500 0.035670 -0.003200
v -0.037500 0.044330 -0.010125
v -0.037500 0.044330 -0.003200
v -0.036786 -0.043830 -0.010125
v -0.036786 -0.043830 -0.003200
v -0.036786 -0.036170 -0.010125
v -0.036786 -0.036170 -0.003200
v -0.036786 0.036170 -0.010125
v -0.036786 0.036170 -0.003200
v -0.036786 0.043830 -0.010125
v -0.036786 0.043830 -0.003200
v -0.036170 -0.043214 -0.010125
v -0.036170 -0.043214 -0.003200
v -0.036170 -0.036786 -0.010125
v -0.036170 -0.036786 -0.003200
v -0.036170 0.036786 -0.010125
v -0.036170 0.036786 -0.003200
v -0.036170 0.043214 -0.010125
v -0.036170 0.043214 -0.003200
v -0.035670 -0.042500 -0.010125
v -0.035670 -0.042500 -0.003200
v -0.035670 -0.037500 -0.010125
v -0.035670 -0.037500 -0.003200
v -0.035670 0.037500 -0.010125
v -0.035670 0.037500 -0.003200
v -0.035670 0.042500 -0.010125
v -0.035670 0.042500 -0.003200
v -0.035301 -0.041710 -0.010125
v -0.035301 -0.041710 -0.003200
v -0.035301 -0.038290 -0.010125
v -0.035301 -0.038290 -0.003200
v -0.035301 0.038290 -0.010125
v -0.035301 0.038290 -0.003200
v -0.035301 0.041710 -0.010125
v -0.035301 0.041710 -0.003200
v -0.035076 -0.040868 -0.010125
v -0.035076 -0.040868 -0.003200
v -0.035076 -0.039132 -0.010125
v -0.035076 -0.039132 -0.003200
v -0.035076 0.039132 -0.010125
v -0.035076 0.039132 -0.003200
v -0.035076 0.040868 -0.010125
v -0.035076 0.040868 -0.003200
v -0.035000 -0.040000 -0.010125
v -0.035000 -0.040000 -0.003200
v -0.035000 0.040000 -0.010125
v -0.035000 0.040000 -0.003200
v 0.035000 -0.040000 -0.010125
v 0.035000 -0.040000 -0.003200
v 0.035000 0.040000 -0.010125
v 0.035000 0.040000 -0.003200
v 0.035076 -0.040868 -0.010125
v 0.035076 -0.040868 -0.003200
v 0.035076 -0.039132 -0.010125
v 0.035076 -0.039132 -0.003200
v 0.035076 0.039132 -0.010125
v 0.035076 0.039132 -0.003200
v 0.035076 0.040868 -0.010125
v 0.035076 0.040868 -0.003200
v 0.035301 -0.041710 -0.010125
v 0.035301 -0.041710 -0.003200
v 0.035301 -0.038290 -0.010125
v 0.035301 -0.038290 -0.003200
v 0.035301 0.038290 -0.010125
v 0.035301 0.038290 -0.003200
v 0.035301 0.041710 -0.010125
v 0.035301 0.041710 -0.003200
v 0.035670 -0.042500 -0.010125
v 0.035670 -0.042500 -0.003200
v 0.035670 -0.037500 -0.010125
v 0.035670 -0.037500 -0.003200
v 0.035670 0.037500 -0.010125
v 0.035670 0.037500 -0.003200
v 0.035670 0.042500 -0.010125
v 0.035670 0.042500 -0.003200
v 0.036170 -0.043214 -0.010125
v 0.036170 -0.043214 -0.003200
v 0.036170 -0.036786 -0.010125
v 0.036170 -0.036786 -0.003200
v 0.036170 0.036786 -0.010125
v 0.036170 0.036786 -0.003200
v 0.036170 0.043214 -0.010125
v 0.036170 0.043214 -0.003200
v 0.036786 -0.043830 -0.010125
v 0.036786 -0.043830 -0.003200
v 0.036786 -0.036170 -0.010125
v 0.036786 -0.036170 -0.003200
v 0.036786 0.036170 -0.010125
v 0.036786 0.036170 -0.003200
v 0.036786 0.043830 -0.010125
v 0.036786 0.043830 -0.003200
v 0.037500 -0.044330 -0.010125
v 0.037500 -0.044330 -0.003200
v 0.037500 -0.035670 -0.010125
v 0.037500 -0.035670 -0.003200
v 0.037500 0.035670 -0.010125
v 0.037500 0.035670 -0.003200
v 0.037500 0.044330 -0.010125
v 0.037500 0.044330 -0.003200
v 0.038290 -0.044699 -0.010125
v 0.038290 -0.044699 -0.003200
v 0.038290 -0.035301 -0.010125
v 0.038290 -0.035301 -0.003200
v 0.038290 0.035301 -0.010125
v 0.038290 0.035301 -0.003200
v 0.038290 0.044699 -0.010125
v 0.038290 0.044699 -0.003200
v 0.039132 -0.044924 -0.010125
v 0.039132 -0.044924 -0.003200
v 0.039132 -0.035076 -0.010125
v 0.039132 -0.035076 -0.003200
v 0.039132 0.035076 -0.010125
v 0.039132 0.035076 -0.003200
v 0.039132 0.044924 -0.010125
v 0.039132 0.044924 -0.003200
v 0.040000 -0.045000 -0.010125
v 0.040000 -0.045000 -0.003200
v 0.040000 -0.045000 0.000000
v 0.040000 -0.040000 -0.010125
v 0.040000 -0.035000 -0.010125
v 0.040000 -0.035000 -0.003200
v 0.040000 0.035000 -0.010125
v 0.040000 0.035000 -0.003200
v 0.040000 0.040000 -0.010125
v 0.040000 0.045000 -0.010125
v 0.040000 0.045000 -0.003200
v 0.040000 0.045000 0.000000
v 0.040868 -0.044924 -0.010125
v 0.040868 -0.044924 0.000000
v 0.040868 -0.035076 -0.010125
v 0.040868 -0.035076 -0.003200
v 0.040868 0.035076 -0.010125
v 0.040868 0.035076 -0.003200
v 0.040868 0.044924 -0.010125
v 0.040868 0.044924 0.000000
v 0.041710 -0.044699 -0.010125
v 0.041710 -0.044699 0.000000
v 0.041710 -0.035301 -0.010125
v 0.041710 -0.035301 -0.003200
v 0.041710 0.035301 -0.010125
v 0.041710 0.035301 -0.003200
v 0.041710 0.044699 -0.010125
v 0.041710 0.044699 0.000000
v 0.042500 -0.044330 -0.010125
v 0.042500 -0.044330 0.000000
v 0.042500 -0.035670 -0.010125
v 0.042500 -0.035670 -0.003200
v 0.042500 0.035670 -0.010125
v 0.042500 0.035670 -0.003200
v 0.042500 0.044330 -0.010125
v 0.042500 0.044330 0.000000
v 0.043214 -0.043830 -0.010125
v 0.043214 -0.043830 0.000000
v 0.043214 -0.036170 -0.010125
v 0.043214 -0.036170 -0.003200
v 0.043214 0.036170 -0.010125
v 0.043214 0.036170 -0.003200
v 0.043214 0.043830 -0.010125
v 0.043214 0.043830 0.000000
v 0.043830 -0.043214 -0.010125
v 0.043830 -0.043214 0.000000
v 0.043830 -0.036786 -0.010125
v 0.043830 -0.036786 -0.003200
v 0.043830 0.036786 -0.010125
v 0.043830 0.036786 -0.003200
v 0.043830 0.043214 -0.010125
v 0.043830 0.043214 0.000000
v 0.044330 -0.042500 -0.010125
v 0.044330 -0.042500 0.000000
v 0.044330 -0.037500 -0.010125
v 0.044330 -0.037500 -0.003200
v 0.044330 0.037500 -0.010125
v 0.044330 0.037500 -0.003200
v 0.044330 0.042500 -0.010125
v 0.044330 0.042500 0.000000
v 0.044699 -0.041710 -0.010125
v 0.044699 -0.041710 0.000000
v 0.044699 -0.038290 -0.010125
v 0.044699 -0.038290 -0.003200
v 0.044699 0.038290 -0.010125
v 0.044699 0.038290 -0.003200
v 0.044699 0.041710 -0.010125
v 0.044699 0.041710 0.000000
v 0.044924 -0.040868 -0.010125
v 0.044924 -0.040868 0.000000
v 0.044924 -0.039132 -0.010125
v 0.044924 -0.039132 -0.003200
v 0.044924 0.039132 -0.010125
v 0.044924 0.039132 -0.003200
v 0.044924 0.040868 -0.010125
v 0.044924 0.040868 0.000000
v 0.045000 -0.040000 -0.010125
v 0.045000 -0.040000 -0.003200
v 0.045000 -0.040000 0.000000
v 0.045000 0.040000 -0.010125
v 0.045000 0.040000 -0.003200
v 0.045000 0.040000 0.000000
f 90 81 194
f 58 50 5
f 194 81 202
f 162 154 102
f 94 86 150
f 58 5 66
f 66 5 12
f 66 12 76
f 296 290 299
f 299 290 282
f 299 282 274
f 212 220 72
f 229 218 81
f 81 218 210
f 81 210 202
f 50 42 5
f 5 42 34
f 5 34 26
f 26 18 5
f 5 18 10
f 5 10 2
f 186 178 102
f 102 178 170
f 102 170 162
f 274 266 299
f 299 266 258
f 299 258 250
f 138 130 194
f 194 130 122
f 194 122 114
f 28 36 86
f 36 44 86
f 86 44 52
f 86 52 60
f 60 68 86
f 86 68 78
f 86 78 88
f 128 86 120
f 120 86 112
f 128 136 86
f 86 136 144
f 86 144 150
f 102 94 186
f 186 94 150
f 186 150 194
f 194 150 146
f 194 146 138
f 114 106 194
f 194 106 98
f 194 98 90
f 88 96 86
f 86 96 104
f 86 104 112
f 84 152 156
f 180 188 72
f 76 12 86
f 86 12 20
f 86 20 28
f 260 268 250
f 250 268 276
f 180 72 172
f 188 196 72
f 72 196 204
f 72 204 212
f 276 284 250
f 250 284 292
f 250 292 299
f 198 190 84
f 84 190 182
f 84 182 174
f 84 156 72
f 72 156 164
f 72 164 172
f 174 166 84
f 84 166 158
f 84 158 152
f 132 140 168
f 168 140 148
f 168 148 142
f 142 134 168
f 168 134 126
f 168 126 118
f 92 214 84
f 84 214 206
f 84 206 198
f 92 100 214
f 214 100 108
f 214 108 116
f 168 176 132
f 132 176 184
f 132 184 124
f 124 184 192
f 124 192 116
f 154 160 102
f 102 160 168
f 102 168 110
f 110 168 118
f 192 200 116
f 116 200 208
f 116 208 214
f 214 208 216
f 214 216 224
f 224 216 226
f 224 226 234
f 234 226 236
f 234 236 242
f 242 236 244
f 242 244 250
f 250 244 252
f 250 252 260
f 70 82 81
f 13 4 5
f 5 4 11
f 5 11 12
f 12 11 19
f 12 19 20
f 20 19 27
f 20 27 28
f 28 27 35
f 28 35 36
f 36 35 43
f 36 43 44
f 44 43 51
f 44 51 52
f 52 51 59
f 52 59 60
f 60 59 67
f 60 67 68
f 68 67 77
f 68 77 78
f 78 77 87
f 78 87 88
f 88 87 95
f 88 95 96
f 96 95 103
f 96 103 104
f 104 103 111
f 104 111 112
f 112 111 119
f 112 119 120
f 120 119 127
f 120 127 128
f 128 127 135
f 128 135 136
f 136 135 143
f 136 143 144
f 144 143 149
f 144 149 150
f 150 149 145
f 150 145 146
f 146 145 137
f 146 137 138
f 138 137 129
f 138 129 130
f 130 129 121
f 130 121 122
f 122 121 113
f 122 113 114
f 114 113 105
f 114 105 106
f 106 105 97
f 106 97 98
f 98 97 89
f 98 89 90
f 90 89 80
f 90 80 81
f 81 80 69
f 81 69 70
f 70 69 61
f 70 61 62
f 62 61 53
f 62 53 54
f 54 53 45
f 54 45 46
f 46 45 37
f 46 37 38
f 38 37 29
f 38 29 30
f 30 29 21
f 30 21 22
f 22 21 13
f 22 13 14
f 14 13 5
f 14 5 6
f 229 81 230
f 230 81 82
f 294 300 299
f 237 228 229
f 229 228 217
f 229 217 218
f 218 217 209
f 218 209 210
f 210 209 201
f 210 201 202
f 202 201 193
f 202 193 194
f 194 193 185
f 194 185 186
f 186 185 177
f 186 177 178
f 178 177 169
f 178 169 170
f 170 169 161
f 170 161 162
f 162 161 153
f 162 153 154
f 154 153 159
f 154 159 160
f 160 159 167
f 160 167 168
f 168 167 175
f 168 175 176
f 176 175 183
f 176 183 184
f 184 183 191
f 184 191 192
f 192 191 199
f 192 199 200
f 200 199 207
f 200 207 208
f 208 207 215
f 208 215 216
f 216 215 225
f 216 225 226
f 226 225 235
f 226 235 236
f 236 235 243
f 236 243 244
f 244 243 251
f 244 251 252
f 252 251 259
f 252 259 260
f 260 259 267
f 260 267 268
f 268 267 275
f 268 275 276
f 276 275 283
f 276 283 284
f 284 283 291
f 284 291 292
f 292 291 298
f 292 298 299
f 299 298 293
f 299 293 294
f 294 293 285
f 294 285 286
f 286 285 277
f 286 277 278
f 278 277 269
f 278 269 270
f 270 269 261
f 270 261 262
f 262 261 253
f 262 253 254
f 254 253 245
f 254 245 246
f 246 245 237
f 246 237 238
f 238 237 229
f 238 229 230
f 296 299 297
f 297 299 300
f 232 221 220
f 287 295 296
f 296 295 289
f 296 289 290
f 290 289 281
f 290 281 282
f 282 281 273
f 282 273 274
f 274 273 265
f 274 265 266
f 266 265 257
f 266 257 258
f 258 257 249
f 258 249 250
f 250 249 241
f 250 241 242
f 242 241 233
f 242 233 234
f 234 233 223
f 234 223 224
f 224 223 213
f 224 213 214
f 214 213 205
f 214 205 206
f 206 205 197
f 206 197 198
f 198 197 189
f 198 189 190
f 190 189 181
f 190 181 182
f 182 181 173
f 182 173 174
f 174 173 165
f 174 165 166
f 166 165 157
f 166 157 158
f 158 157 151
f 158 151 152
f 152 151 155
f 152 155 156
f 156 155 163
f 156 163 164
f 164 163 171
f 164 171 172
f 172 171 179
f 172 179 180
f 180 179 187
f 180 187 188
f 188 187 195
f 188 195 196
f 196 195 203
f 196 203 204
f 204 203 211
f 204 211 212
f 212 211 219
f 212 219 220
f 220 219 231
f 220 231 232
f 232 231 239
f 232 239 240
f 240 239 247
f 240 247 248
f 248 247 255
f 248 255 256
f 256 255 263
f 256 263 264
f 264 263 271
f 264 271 272
f 272 271 279
f 272 279 280
f 280 279 287
f 280 287 288
f 288 287 296
f 288 296 297
f 72 220 73
f 73 220 221
f 8 3 2
f 63 71 72
f 72 71 83
f 72 83 84
f 84 83 91
f 84 91 92
f 92 91 99
f 92 99 100
f 100 99 107
f 100 107 108
f 108 107 115
f 108 115 116
f 116 115 123
f 116 123 124
f 124 123 131
f 124 131 132
f 132 131 139
f 132 139 140
f 140 139 147
f 140 147 148
f 148 147 141
f 148 141 142
f 142 141 133
f 142 133 134
f 134 133 125
f 134 125 126
f 126 125 117
f 126 117 118
f 118 117 109
f 118 109 110
f 110 109 101
f 110 101 102
f 102 101 93
f 102 93 94
f 94 93 85
f 94 85 86
f 86 85 75
f 86 75 76
f 76 75 65
f 76 65 66
f 66 65 57
f 66 57 58
f 58 57 49
f 58 49 50
f 50 49 41
f 50 41 42
f 42 41 33
f 42 33 34
f 34 33 25
f 34 25 26
f 26 25 17
f 26 17 18
f 18 17 9
f 18 9 10
f 10 9 1
f 10 1 2
f 2 1 7
f 2 7 8
f 8 7 15
f 8 15 16
f 16 15 23
f 16 23 24
f 24 23 31
f 24 31 32
f 32 31 39
f 32 39 40
f 40 39 47
f 40 47 48
f 48 47 55
f 48 55 56
f 56 55 63
f 56 63 64
f 64 63 72
f 64 72 73
f 5 2 6
f 6 2 3
f 82 73 230
f 230 73 221
f 40 48 56
f 22 14 82
f 82 14 6
f 82 6 73
f 73 6 3
f 73 3 8
f 8 16 73
f 73 16 24
f 73 24 64
f 280 288 221
f 221 288 297
f 221 297 230
f 230 297 300
f 230 300 294
f 62 54 30
f 30 54 46
f 30 46 38
f 64 24 56
f 56 24 32
f 56 32 40
f 240 248 272
f 272 248 256
f 272 256 264
f 22 82 30
f 30 82 70
f 30 70 62
f 280 221 272
f 272 221 232
f 272 232 240
f 294 286 230
f 230 286 278
f 230 278 270
f 246 238 254
f 254 238 230
f 254 230 262
f 262 230 270
f 133 141 74
f 74 141 147
f 74 147 139
f 109 117 74
f 74 117 125
f 74 125 133
f 85 93 74
f 74 93 101
f 74 101 109
f 57 65 74
f 74 65 75
f 74 75 85
f 33 41 74
f 74 41 49
f 74 49 57
f 9 17 74
f 74 17 25
f 74 25 33
f 15 7 74
f 74 7 1
f 74 1 9
f 39 31 74
f 74 31 23
f 74 23 15
f 63 55 74
f 74 55 47
f 74 47 39
f 91 83 74
f 74 83 71
f 74 71 63
f 115 107 74
f 74 107 99
f 74 99 91
f 139 131 74
f 74 131 123
f 74 123 115
f 137 145 79
f 79 145 149
f 79 149 143
f 113 121 79
f 79 121 129
f 79 129 137
f 89 97 79
f 79 97 105
f 79 105 113
f 61 69 79
f 79 69 80
f 79 80 89
f 37 45 79
f 79 45 53
f 79 53 61
f 13 21 79
f 79 21 29
f 79 29 37
f 19 11 79
f 79 11 4
f 79 4 13
f 43 35 79
f 79 35 27
f 79 27 19
f 67 59 79
f 79 59 51
f 79 51 43
f 95 87 79
f 79 87 77
f 79 77 67
f 119 111 79
f 79 111 103
f 79 103 95
f 143 135 79
f 79 135 127
f 79 127 119
f 281 289 222
f 222 289 295
f 222 295 287
f 257 265 222
f 222 265 273
f 222 273 281
f 233 241 222
f 222 241 249
f 222 249 257
f 205 213 222
f 222 213 223
f 222 223 233
f 181 189 222
f 222 189 197
f 222 197 205
f 157 165 222
f 222 165 173
f 222 173 181
f 163 155 222
f 222 155 151
f 222 151 157
f 187 179 222
f 222 179 171
f 222 171 163
f 211 203 222
f 222 203 195
f 222 195 187
f 239 231 222
f 222 231 219
f 222 219 211
f 263 255 222
f 222 255 247
f 222 247 239
f 287 279 222
f 222 279 271
f 222 271 263
f 285 293 227
f 227 293 298
f 227 298 291
f 261 269 227
f 227 269 277
f 227 277 285
f 237 245 227
f 227 245 253
f 227 253 261
f 209 217 227
f 227 217 228
f 227 228 237
f 185 193 227
f 227 193 201
f 227 201 209
f 161 169 227
f 227 169 177
f 227 177 185
f 167 159 227
f 227 159 153
f 227 153 161
f 191 183 227
f 227 183 175
f 227 175 167
f 215 207 227
f 227 207 199
f 227 199 191
f 243 235 227
f 227 235 225
f 227 225 215
f 267 259 227
f 227 259 251
f 227 251 243
f 291 283 227
f 227 283 275
f 227 275 267
