# converted from Collada by convert_husky_meshes.py (639 verts, 1208 tris)
v -0.349940 -0.205237 -0.003175
v -0.349940 -0.180825 -0.003175
v -0.342892 -0.180296 -0.003175
v 0.346501 0.179237 -0.002927
v 0.347022 -0.179237 -0.002822
v 0.342892 0.180296 -0.003175
v 0.342892 -0.179767 -0.003175
v 0.349940 0.205237 -0.003175
v 0.349940 0.180825 -0.001587
v 0.349940 -0.180825 -0.001587
v 0.349940 -0.205237 -0.003175
v -0.346501 -0.179237 -0.002927
v -0.347022 0.179237 -0.002822
v -0.342892 0.180794 -0.003175
v -0.349940 0.180825 -0.003175
v -0.349940 0.205237 -0.003175
v 0.349940 -0.205237 0.000000
v 0.342892 -0.180296 0.000000
v -0.344479 0.179237 0.000000
v -0.344479 -0.179237 0.000000
v -0.342892 0.179237 0.000000
v -0.342892 -0.179237 0.000000
v -0.349940 0.205237 0.000000
v -0.349940 0.180825 0.000000
v -0.342892 0.180825 0.000000
v -0.349940 -0.180825 0.000000
v -0.349940 -0.205237 0.000000
v -0.342892 -0.180825 0.000000
v 0.346272 -0.179237 0.000493
v 0.346292 0.179237 0.000473
v 0.342892 0.179767 0.000000
v 0.349940 0.205237 0.000000
v -0.349940 -0.180825 0.000000
v -0.349940 0.180825 0.000000
v -0.349940 -0.180825 0.000000
v -0.342892 -0.179767 0.000000
v -0.344479 -0.179237 0.000000
v -0.344479 0.179237 -0.000001
v -0.342892 0.180809 0.000000
v -0.349940 0.180825 0.000000
v -0.349786 0.179237 0.000716
v -0.346421 0.179237 0.000767
v -0.346400 -0.179237 0.000679
v -0.349708 -0.179237 0.000209
v -0.349940 0.179237 0.009825
v -0.346765 0.179237 0.009825
v -0.348353 -0.179237 0.009825
v 0.349786 -0.179237 0.000716
v 0.349708 0.179237 0.000209
v 0.348353 0.179237 0.009825
v 0.349940 -0.179237 0.009825
v 0.346765 -0.179237 0.009825
v -0.247525 0.251574 0.032312
v -0.247638 0.254753 0.034395
v -0.248087 0.251573 0.035973
v -0.247466 0.278502 0.032766
v -0.247490 0.285473 0.032093
v -0.248526 0.285475 0.037869
v -0.247657 0.276929 0.034469
v -0.247488 0.253430 0.032472
v -0.247975 0.254417 0.029966
v -0.247974 0.277551 0.029951
v -0.249294 0.285475 0.026968
v -0.248624 0.251574 0.028632
v -0.254220 0.251574 0.024377
v -0.258571 0.285474 0.024198
v -0.260076 0.251574 0.025429
v -0.263548 0.251574 0.029136
v -0.264510 0.285474 0.030784
v -0.264408 0.251574 0.034534
v -0.262634 0.285474 0.038708
v -0.261629 0.251574 0.039106
v -0.257080 0.251574 0.041157
v -0.255784 0.285474 0.041478
v -0.251657 0.251574 0.040176
v -0.247493 0.152971 0.032055
v -0.247638 0.154552 0.034395
v -0.248052 0.152274 0.036212
v -0.248161 0.203174 0.036168
v -0.247606 0.177266 0.034268
v -0.247588 0.203174 0.032044
v -0.247974 0.177351 0.029951
v -0.249332 0.203175 0.027261
v -0.247974 0.154217 0.029966
v -0.249222 0.152272 0.027132
v -0.247511 0.178310 0.032203
v -0.258087 0.152274 0.024068
v -0.255639 0.203174 0.024331
v -0.260980 0.203174 0.026078
v -0.264390 0.152274 0.030337
v -0.264387 0.203174 0.030972
v -0.263856 0.152274 0.036279
v -0.263163 0.203174 0.037278
v -0.259259 0.152274 0.041071
v -0.259456 0.203174 0.040652
v -0.252311 0.203174 0.040543
v -0.251860 0.152274 0.040427
v -0.254220 0.204274 0.024377
v -0.260076 0.204274 0.025429
v -0.263548 0.204274 0.029136
v -0.264408 0.204274 0.034534
v -0.261629 0.204274 0.039106
v -0.257080 0.204274 0.041157
v -0.251657 0.204274 0.040176
v -0.247585 0.204274 0.034605
v -0.248540 0.204274 0.028781
v -0.255639 0.250474 0.024331
v -0.260980 0.250474 0.026078
v -0.264387 0.250474 0.030972
v -0.263163 0.250474 0.037278
v -0.259456 0.250474 0.040652
v -0.252311 0.250474 0.040543
v -0.248498 0.250474 0.036637
v -0.247686 0.250474 0.032501
v -0.249553 0.250474 0.027106
v -0.250718 0.154403 0.030098
v -0.250532 0.153227 0.032216
v -0.250334 0.154197 0.034478
v -0.250670 0.178040 0.030639
v -0.250332 0.177350 0.034503
v -0.250718 0.254603 0.030098
v -0.250532 0.253429 0.032219
v -0.250334 0.254397 0.034478
v -0.250670 0.278240 0.030639
v -0.250332 0.277550 0.034503
v 0.258564 0.278502 0.040964
v 0.259205 0.285473 0.040743
v 0.253376 0.285475 0.041452
v 0.256881 0.276929 0.041283
v 0.258449 0.204574 0.041007
v 0.258730 0.253464 0.040893
v 0.256957 0.254753 0.041279
v 0.261043 0.254298 0.039697
v 0.261106 0.277551 0.039652
v 0.263088 0.285475 0.037970
v 0.263084 0.204574 0.037760
v 0.264381 0.204574 0.031112
v 0.264506 0.285474 0.030765
v 0.259669 0.204574 0.025038
v 0.259226 0.285474 0.024566
v 0.252952 0.204574 0.024818
v 0.249781 0.285474 0.026316
v 0.249071 0.204574 0.028015
v 0.247661 0.204574 0.032457
v 0.247495 0.285474 0.034885
v 0.248345 0.204574 0.036486
v 0.253026 0.204574 0.040790
v 0.258572 0.131174 0.040925
v 0.256957 0.133453 0.041279
v 0.254035 0.131172 0.041354
v 0.256487 0.203474 0.041243
v 0.257088 0.156166 0.041273
v 0.259220 0.203474 0.040634
v 0.258839 0.132131 0.040859
v 0.261092 0.133117 0.039655
v 0.261107 0.156251 0.039652
v 0.263024 0.203474 0.037824
v 0.263089 0.131172 0.037754
v 0.259090 0.157210 0.040755
v 0.264381 0.131174 0.031112
v 0.264276 0.203474 0.030774
v 0.259669 0.131174 0.025038
v 0.260985 0.203474 0.026082
v 0.255602 0.203474 0.024285
v 0.252952 0.131174 0.024818
v 0.249200 0.203474 0.027634
v 0.249071 0.131174 0.028015
v 0.247661 0.131174 0.032457
v 0.247667 0.203474 0.032347
v 0.248345 0.131174 0.036486
v 0.248353 0.203474 0.036306
v 0.251603 0.203474 0.040041
v 0.253090 0.120174 0.041078
v 0.247747 0.120174 0.029915
v 0.254360 0.120174 0.023973
v 0.248198 0.120174 0.036574
v 0.261420 0.120174 0.026171
v 0.264603 0.120174 0.031218
v 0.261846 0.120174 0.039671
v 0.264276 0.130074 0.030774
v 0.260985 0.130074 0.026082
v 0.255602 0.130074 0.024285
v 0.249200 0.130074 0.027634
v 0.247667 0.130074 0.032347
v 0.248353 0.130074 0.036306
v 0.252921 0.130074 0.040881
v 0.260615 0.130074 0.040022
v 0.263784 0.130074 0.035762
v 0.260160 0.133303 0.037072
v 0.258186 0.132129 0.037873
v 0.256086 0.133097 0.038726
v 0.259656 0.156940 0.037277
v 0.256063 0.156250 0.038736
v 0.260160 0.254603 0.037072
v 0.258186 0.253429 0.037873
v 0.256086 0.254397 0.038726
v 0.259656 0.278240 0.037277
v 0.256063 0.277550 0.038736
v -0.266174 0.207174 0.219606
v -0.269176 0.206621 0.221537
v -0.399786 0.207124 0.110986
v 0.399782 0.207114 0.111006
v 0.269180 0.206644 0.221542
v 0.266579 0.207174 0.219266
v 0.400232 0.206756 0.045718
v -0.269443 0.207174 0.224325
v 0.269443 0.209291 0.224325
v -0.349643 0.207174 0.005458
v -0.262408 0.207174 0.016359
v -0.271837 0.207174 0.024233
v -0.399077 0.207203 0.046789
v -0.273094 0.207174 0.037866
v -0.264593 0.207174 0.048662
v 0.349688 0.207178 0.005377
v 0.273787 0.207174 0.033934
v 0.271103 0.207174 0.023656
v -0.240640 0.207174 0.023406
v -0.251819 0.207174 0.015501
v 0.263126 0.207174 0.016490
v -0.238537 0.207174 0.035509
v 0.250959 0.207174 0.015731
v -0.250959 0.207174 0.049919
v 0.261041 0.207174 0.049919
v 0.269782 0.207174 0.043881
v -0.242218 0.207174 0.043881
v 0.242218 0.207174 0.021769
v 0.238537 0.207174 0.030141
v 0.240640 0.207174 0.042244
v 0.250325 0.207174 0.049557
v -0.399418 0.210493 0.110317
v -0.267029 0.210460 0.219185
v -0.400259 0.210247 0.045455
v -0.269443 0.210349 0.224325
v 0.266174 0.210349 0.219606
v -0.273088 0.210349 0.038537
v -0.349908 0.210551 0.005068
v -0.271360 0.210349 0.023406
v 0.273088 0.210349 0.027113
v 0.271360 0.210349 0.042244
v -0.260181 0.210349 0.015501
v -0.263933 0.210349 0.048784
v 0.260181 0.210349 0.050149
v 0.349851 0.210609 0.005130
v 0.399626 0.210512 0.046794
v 0.238537 0.210349 0.035509
v -0.249592 0.210349 0.016359
v -0.242218 0.210349 0.021769
v 0.263933 0.210349 0.016866
v 0.269464 0.210024 0.221881
v 0.399162 0.210469 0.110283
v -0.251819 0.210349 0.050149
v 0.240640 0.210349 0.023406
v 0.251819 0.210349 0.015501
v 0.249592 0.210349 0.049291
v -0.238536 0.210349 0.030141
v -0.240640 0.210349 0.042244
v 0.242218 0.210349 0.043881
v 0.400970 0.209604 0.112385
v 0.401623 0.208738 0.113049
v 0.402473 0.207573 0.113907
v 0.400452 0.206099 0.111537
v 0.400727 0.205491 0.111710
v 0.271710 0.205106 0.224557
v 0.276877 0.204174 0.219826
v 0.276877 0.180349 0.219826
v 0.402856 0.180349 0.114117
v 0.269474 0.204174 0.221893
v 0.274836 0.204174 0.217393
v 0.274836 0.180349 0.217393
v 0.400815 0.180349 0.111685
v 0.403932 0.207658 0.046488
v 0.401237 0.204919 0.046328
v 0.401234 0.205016 0.046342
v 0.400989 0.206410 0.046544
v 0.402352 0.209162 0.046618
v 0.401667 0.209619 0.046667
v 0.401599 0.209665 0.046672
v 0.400900 0.206339 0.110572
v 0.403786 0.207870 0.110600
v 0.402825 0.180349 0.046324
v 0.404413 0.180349 0.110779
v 0.401238 0.180349 0.110779
v 0.352922 0.205201 0.001100
v 0.350766 0.206340 0.003838
v 0.352923 0.205272 0.001104
v 0.352783 0.207093 0.001370
v 0.352125 0.208545 0.002251
v 0.351687 0.209219 0.002828
v 0.351266 0.209666 0.003373
v 0.349870 0.207140 0.005136
v 0.400709 0.209793 0.044989
v 0.401483 0.208948 0.044194
v 0.402455 0.207468 0.043223
v 0.349870 0.207140 0.005136
v 0.351901 0.180349 0.002301
v 0.402856 0.180349 0.042985
v 0.400815 0.180349 0.045417
v 0.349843 0.206070 0.003390
v 0.349852 0.207484 0.000462
v -0.349825 0.208146 0.000782
v -0.349801 0.206550 0.003623
v 0.349940 0.180349 0.001587
v -0.349940 0.180349 0.000000
v -0.349940 0.180349 0.003175
v -0.400709 0.205533 0.111701
v -0.402496 0.207540 0.113930
v -0.400452 0.206099 0.111537
v -0.401623 0.208738 0.113049
v -0.400968 0.209607 0.112383
v -0.270259 0.209196 0.222828
v -0.271647 0.204928 0.224483
v -0.276877 0.204174 0.219826
v -0.276197 0.180349 0.219015
v -0.402856 0.180349 0.114117
v -0.274836 0.204174 0.217393
v -0.400815 0.180349 0.111685
v -0.269474 0.204174 0.221893
v -0.401236 0.204943 0.046331
v -0.403918 0.207666 0.046489
v -0.401234 0.205016 0.046342
v -0.401056 0.206121 0.046503
v -0.400544 0.210138 0.046741
v -0.401599 0.209665 0.046672
v -0.401630 0.209644 0.046670
v -0.402352 0.209162 0.046618
v -0.403992 0.207432 0.110642
v -0.400922 0.206309 0.110575
v -0.401238 0.180349 0.046324
v -0.404413 0.180349 0.046324
v -0.402825 0.180349 0.110779
v -0.349870 0.207140 0.005136
v -0.350743 0.206392 0.003876
v -0.351266 0.209666 0.003373
v -0.351686 0.209219 0.002828
v -0.352125 0.208545 0.002251
v -0.352781 0.207102 0.001372
v -0.352923 0.205272 0.001104
v -0.352922 0.205168 0.001098
v -0.402487 0.207421 0.043194
v -0.400457 0.206311 0.045528
v -0.401483 0.208948 0.044194
v -0.349870 0.207140 0.005136
v -0.350880 0.180349 0.003517
v -0.352921 0.180349 0.001085
v -0.401835 0.180349 0.044201
v 0.247525 -0.251575 0.032312
v 0.247638 -0.254753 0.034395
v 0.248087 -0.251574 0.035973
v 0.247466 -0.278503 0.032766
v 0.247490 -0.285474 0.032093
v 0.248526 -0.285475 0.037869
v 0.247657 -0.276929 0.034469
v 0.247488 -0.253431 0.032472
v 0.247975 -0.254418 0.029966
v 0.247974 -0.277552 0.029951
v 0.249294 -0.285476 0.026968
v 0.248624 -0.251574 0.028632
v 0.254220 -0.251575 0.024377
v 0.258571 -0.285475 0.024198
v 0.260076 -0.251575 0.025429
v 0.263548 -0.251575 0.029136
v 0.264510 -0.285475 0.030784
v 0.264408 -0.251575 0.034534
v 0.262634 -0.285475 0.038708
v 0.261629 -0.251575 0.039106
v 0.257080 -0.251575 0.041157
v 0.255784 -0.285475 0.041478
v 0.251657 -0.251575 0.040176
v 0.247490 -0.152977 0.032102
v 0.247638 -0.154553 0.034395
v 0.248052 -0.152275 0.036212
v 0.248161 -0.203175 0.036168
v 0.247606 -0.177267 0.034268
v 0.247588 -0.203175 0.032044
v 0.247974 -0.177351 0.029951
v 0.249332 -0.203175 0.027261
v 0.247974 -0.154217 0.029966
v 0.249222 -0.152273 0.027132
v 0.247511 -0.178311 0.032203
v 0.258087 -0.152275 0.024068
v 0.255639 -0.203175 0.024331
v 0.260980 -0.203175 0.026078
v 0.264390 -0.152275 0.030337
v 0.264387 -0.203175 0.030972
v 0.263856 -0.152275 0.036279
v 0.263163 -0.203175 0.037278
v 0.259259 -0.152275 0.041071
v 0.259456 -0.203175 0.040652
v 0.252311 -0.203175 0.040543
v 0.251860 -0.152275 0.040427
v 0.254220 -0.204275 0.024377
v 0.260076 -0.204275 0.025429
v 0.263548 -0.204275 0.029136
v 0.264408 -0.204275 0.034534
v 0.261629 -0.204275 0.039106
v 0.257080 -0.204275 0.041157
v 0.251657 -0.204275 0.040176
v 0.247585 -0.204275 0.034605
v 0.248540 -0.204275 0.028781
v 0.255639 -0.250475 0.024331
v 0.260980 -0.250475 0.026078
v 0.264387 -0.250475 0.030972
v 0.263163 -0.250475 0.037278
v 0.259456 -0.250475 0.040652
v 0.252311 -0.250475 0.040543
v 0.248498 -0.250475 0.036637
v 0.247686 -0.250475 0.032501
v 0.249553 -0.250475 0.027106
v 0.250718 -0.154403 0.030098
v 0.250532 -0.153229 0.032219
v 0.250334 -0.154198 0.034478
v 0.250670 -0.178040 0.030639
v 0.250332 -0.177351 0.034503
v 0.250718 -0.254604 0.030098
v 0.250532 -0.253429 0.032219
v 0.250334 -0.254398 0.034478
v 0.250670 -0.278240 0.030639
v 0.250332 -0.277551 0.034503
v -0.258564 -0.278503 0.040964
v -0.259205 -0.285474 0.040743
v -0.253376 -0.285475 0.041452
v -0.256881 -0.276929 0.041283
v -0.258449 -0.204575 0.041007
v -0.258730 -0.253464 0.040893
v -0.256957 -0.254754 0.041279
v -0.261043 -0.254299 0.039697
v -0.261106 -0.277552 0.039652
v -0.263088 -0.285476 0.037970
v -0.263084 -0.204575 0.037760
v -0.264381 -0.204575 0.031112
v -0.264506 -0.285475 0.030765
v -0.259669 -0.204575 0.025038
v -0.259226 -0.285475 0.024566
v -0.252952 -0.204575 0.024818
v -0.249781 -0.285475 0.026316
v -0.249071 -0.204575 0.028015
v -0.247661 -0.204575 0.032457
v -0.247495 -0.285475 0.034885
v -0.248345 -0.204575 0.036486
v -0.253026 -0.204575 0.040790
v -0.258572 -0.131175 0.040925
v -0.256957 -0.133453 0.041279
v -0.254035 -0.131173 0.041354
v -0.256487 -0.203475 0.041243
v -0.257088 -0.156167 0.041273
v -0.259220 -0.203475 0.040634
v -0.258839 -0.132131 0.040859
v -0.261092 -0.133117 0.039655
v -0.261107 -0.156251 0.039652
v -0.263024 -0.203475 0.037824
v -0.263089 -0.131173 0.037754
v -0.259090 -0.157211 0.040755
v -0.264381 -0.131175 0.031112
v -0.264276 -0.203475 0.030774
v -0.259669 -0.131175 0.025038
v -0.260985 -0.203475 0.026082
v -0.255602 -0.203475 0.024285
v -0.252952 -0.131175 0.024818
v -0.249200 -0.203475 0.027634
v -0.249071 -0.131175 0.028015
v -0.247661 -0.131175 0.032457
v -0.247667 -0.203475 0.032347
v -0.248345 -0.131175 0.036486
v -0.248353 -0.203475 0.036306
v -0.251603 -0.203475 0.040041
v -0.253090 -0.120175 0.041078
v -0.247747 -0.120175 0.029915
v -0.254360 -0.120175 0.023973
v -0.248198 -0.120175 0.036574
v -0.261420 -0.120175 0.026171
v -0.264603 -0.120175 0.031218
v -0.261846 -0.120175 0.039671
v -0.264276 -0.130075 0.030774
v -0.260985 -0.130075 0.026082
v -0.255602 -0.130075 0.024285
v -0.249200 -0.130075 0.027634
v -0.247667 -0.130075 0.032347
v -0.248353 -0.130075 0.036306
v -0.252921 -0.130075 0.040881
v -0.260615 -0.130075 0.040022
v -0.263784 -0.130075 0.035762
v -0.260160 -0.133303 0.037072
v -0.258186 -0.132129 0.037873
v -0.256086 -0.133098 0.038726
v -0.259656 -0.156940 0.037277
v -0.256063 -0.156251 0.038736
v -0.260160 -0.254603 0.037072
v -0.258186 -0.253429 0.037873
v -0.256086 -0.254398 0.038726
v -0.259656 -0.278240 0.037277
v -0.256063 -0.277551 0.038736
v 0.266174 -0.207175 0.219606
v 0.269176 -0.206622 0.221537
v 0.399785 -0.207125 0.110986
v -0.399782 -0.207115 0.111006
v -0.269180 -0.206645 0.221542
v -0.266579 -0.207175 0.219266
v -0.400232 -0.206757 0.045718
v 0.269443 -0.207175 0.224325
v -0.269443 -0.207175 0.224325
v 0.349643 -0.207175 0.005458
v 0.262408 -0.207175 0.016359
v 0.271837 -0.207175 0.024233
v 0.399078 -0.207204 0.046788
v 0.273094 -0.207175 0.037866
v 0.264593 -0.207175 0.048662
v -0.349688 -0.207178 0.005377
v -0.273787 -0.207175 0.033934
v -0.271103 -0.207175 0.023656
v 0.240640 -0.207175 0.023406
v 0.251819 -0.207175 0.015501
v -0.263126 -0.207175 0.016490
v 0.238537 -0.207175 0.035509
v -0.250959 -0.207175 0.015731
v 0.250959 -0.207175 0.049919
v -0.261041 -0.207175 0.049919
v -0.269782 -0.207175 0.043881
v 0.242218 -0.207175 0.043881
v -0.242218 -0.207175 0.021769
v -0.238537 -0.207175 0.030141
v -0.240640 -0.207175 0.042244
v -0.250325 -0.207175 0.049557
v 0.399418 -0.210494 0.110317
v 0.267029 -0.210461 0.219185
v 0.400259 -0.210247 0.045455
v 0.269443 -0.210350 0.224325
v -0.269443 -0.210350 0.224325
v -0.266174 -0.210350 0.219606
v 0.273088 -0.210350 0.038537
v 0.349908 -0.210552 0.005068
v 0.271360 -0.210350 0.023406
v -0.273088 -0.210350 0.027113
v -0.271360 -0.210350 0.042244
v 0.260181 -0.210350 0.015501
v 0.263933 -0.210350 0.048784
v -0.260181 -0.210350 0.050149
v -0.349851 -0.210610 0.005130
v -0.399626 -0.210513 0.046794
v -0.238537 -0.210350 0.035509
v 0.249592 -0.210350 0.016359
v 0.242218 -0.210350 0.021769
v -0.263933 -0.210350 0.016866
v -0.269464 -0.210025 0.221881
v -0.399162 -0.210469 0.110283
v 0.251819 -0.210350 0.050149
v -0.240640 -0.210350 0.023406
v -0.251819 -0.210350 0.015501
v -0.249592 -0.210350 0.049291
v 0.238536 -0.210350 0.030141
v 0.240640 -0.210350 0.042244
v -0.242218 -0.210350 0.043881
v -0.400971 -0.209604 0.112385
v -0.401623 -0.208739 0.113049
v -0.402473 -0.207574 0.113907
v -0.400452 -0.206100 0.111537
v -0.400727 -0.205491 0.111710
v -0.271710 -0.205106 0.224557
v -0.276877 -0.204175 0.219826
v -0.276877 -0.180350 0.219826
v -0.402856 -0.180350 0.114117
v -0.269474 -0.204175 0.221893
v -0.274836 -0.204175 0.217393
v -0.274836 -0.180350 0.217393
v -0.400815 -0.180350 0.111685
v -0.403932 -0.207658 0.046488
v -0.401237 -0.204920 0.046328
v -0.401234 -0.205017 0.046342
v -0.400989 -0.206412 0.046544
v -0.402352 -0.209162 0.046618
v -0.401667 -0.209620 0.046667
v -0.401599 -0.209665 0.046672
v -0.400900 -0.206340 0.110572
v -0.403786 -0.207871 0.110600
v -0.402825 -0.180350 0.046324
v -0.404413 -0.180350 0.110779
v -0.401238 -0.180350 0.110779
v -0.352922 -0.205201 0.001100
v -0.350766 -0.206341 0.003838
v -0.352923 -0.205273 0.001104
v -0.352783 -0.207094 0.001370
v -0.352125 -0.208546 0.002251
v -0.351687 -0.209220 0.002828
v -0.351266 -0.209667 0.003373
v -0.349870 -0.207140 0.005136
v -0.349870 -0.207140 0.005136
v -0.400709 -0.209794 0.044989
v -0.401483 -0.208949 0.044194
v -0.402455 -0.207469 0.043223
v -0.351901 -0.180350 0.002301
v -0.402856 -0.180350 0.042985
v -0.400815 -0.180350 0.045417
v -0.349843 -0.206071 0.003390
v -0.349852 -0.207484 0.000462
v 0.349825 -0.208147 0.000782
v 0.349801 -0.206551 0.003623
v -0.349940 -0.180350 0.001587
v 0.349940 -0.180350 0.000000
v 0.349940 -0.180350 0.003175
v 0.400709 -0.205534 0.111701
v 0.402496 -0.207541 0.113930
v 0.400452 -0.206100 0.111537
v 0.401623 -0.208739 0.113049
v 0.400968 -0.209608 0.112383
v 0.270259 -0.209196 0.222828
v 0.271647 -0.204928 0.224483
v 0.276877 -0.204175 0.219826
v 0.276197 -0.180350 0.219015
v 0.402856 -0.180350 0.114117
v 0.274836 -0.204175 0.217393
v 0.400815 -0.180350 0.111685
v 0.269474 -0.204175 0.221893
v 0.401236 -0.204944 0.046331
v 0.403918 -0.207667 0.046489
v 0.401234 -0.205017 0.046342
v 0.401056 -0.206122 0.046503
v 0.400544 -0.210139 0.046741
v 0.401599 -0.209665 0.046672
v 0.401630 -0.209645 0.046670
v 0.402352 -0.209162 0.046618
v 0.403992 -0.207433 0.110642
v 0.400922 -0.206309 0.110575
v 0.401238 -0.180350 0.046324
v 0.404413 -0.180350 0.046324
v 0.402825 -0.180350 0.110779
v 0.349870 -0.207140 0.005136
v 0.349870 -0.207140 0.005136
v 0.350743 -0.206393 0.003876
v 0.351266 -0.209667 0.003373
v 0.351686 -0.209220 0.002828
v 0.352125 -0.208546 0.002251
v 0.352781 -0.207102 0.001372
v 0.352923 -0.205273 0.001104
v 0.352922 -0.205169 0.001098
v 0.402487 -0.207421 0.043194
v 0.400457 -0.206312 0.045528
v 0.401483 -0.208949 0.044194
v 0.350880 -0.180350 0.003517
v 0.352921 -0.180350 0.001085
v 0.401835 -0.180350 0.044201
f 1 2 3
f 4 5 6
f 6 5 7
f 8 9 6
f 10 11 7
f 7 11 1
f 12 13 3
f 3 13 14
f 15 16 14
f 14 16 8
f 14 8 3
f 3 8 6
f 3 6 1
f 1 6 7
f 17 10 18
f 19 20 21
f 21 20 22
f 23 24 25
f 26 27 28
f 28 27 17
f 28 17 22
f 29 30 18
f 18 30 31
f 9 32 31
f 31 32 23
f 22 17 21
f 21 17 18
f 21 18 25
f 25 18 23
f 23 18 31
f 9 8 32
f 10 17 11
f 2 1 33
f 33 1 27
f 34 23 15
f 15 23 16
f 1 11 27
f 27 11 17
f 8 16 32
f 32 16 23
f 2 35 3
f 3 35 36
f 3 36 12
f 12 36 37
f 13 38 14
f 14 38 39
f 14 25 15
f 15 25 40
f 41 42 13
f 38 13 42
f 12 37 43
f 12 43 44
f 13 12 44
f 13 44 41
f 42 43 38
f 38 43 37
f 45 46 41
f 41 46 42
f 43 47 44
f 47 45 44
f 44 45 41
f 42 46 43
f 43 46 47
f 45 47 46
f 6 31 4
f 4 31 30
f 5 29 7
f 7 29 18
f 6 9 31
f 7 18 10
f 29 5 48
f 30 49 4
f 5 4 49
f 5 49 48
f 30 50 49
f 48 51 29
f 29 51 52
f 50 51 49
f 49 51 48
f 29 52 30
f 30 52 50
f 51 50 52
f 53 54 55
f 56 57 58
f 56 58 59
f 53 60 54
f 61 60 53
f 57 62 63
f 61 64 62
f 64 61 53
f 56 62 57
f 62 64 63
f 63 64 65
f 63 65 66
f 66 65 67
f 66 67 68
f 66 68 69
f 69 68 70
f 69 70 71
f 71 70 72
f 71 72 73
f 71 73 74
f 74 73 75
f 74 75 58
f 58 75 55
f 58 55 54
f 58 54 59
f 76 77 78
f 79 80 81
f 81 82 83
f 84 85 82
f 85 84 76
f 86 82 81
f 81 80 86
f 82 85 83
f 83 85 87
f 83 87 88
f 88 87 89
f 89 87 90
f 89 90 91
f 91 90 92
f 91 92 93
f 93 92 94
f 93 94 95
f 95 94 96
f 96 94 97
f 96 97 78
f 96 78 79
f 79 78 77
f 79 77 80
f 94 78 97
f 90 87 78
f 94 92 78
f 90 78 92
f 78 87 76
f 76 87 85
f 98 88 99
f 99 88 89
f 99 89 91
f 99 91 100
f 100 91 101
f 101 91 93
f 101 93 102
f 102 93 95
f 102 95 103
f 103 95 96
f 103 96 104
f 104 96 79
f 104 79 105
f 105 79 81
f 105 81 83
f 105 83 106
f 106 83 98
f 98 83 88
f 107 98 99
f 107 99 108
f 108 99 100
f 108 100 109
f 109 100 101
f 109 101 110
f 110 101 102
f 110 102 111
f 111 102 103
f 111 103 112
f 112 103 104
f 112 104 105
f 112 105 113
f 113 105 114
f 114 105 106
f 114 106 115
f 115 106 98
f 115 98 107
f 65 107 67
f 67 107 108
f 67 108 109
f 67 109 68
f 68 109 70
f 70 109 110
f 70 110 72
f 72 110 111
f 72 111 73
f 73 111 112
f 73 112 75
f 75 112 113
f 75 113 55
f 55 113 114
f 55 114 53
f 53 114 115
f 53 115 64
f 64 115 65
f 65 115 107
f 71 74 58
f 57 63 66
f 57 66 58
f 58 69 71
f 69 58 66
f 84 116 117
f 84 117 76
f 118 76 117
f 77 76 118
f 119 116 82
f 82 116 84
f 80 120 86
f 86 120 119
f 119 82 86
f 118 120 77
f 77 120 80
f 120 118 116
f 117 116 118
f 116 119 120
f 61 121 122
f 61 122 60
f 123 60 122
f 54 60 123
f 124 121 62
f 62 121 61
f 125 56 59
f 56 125 124
f 124 62 56
f 123 125 54
f 54 125 59
f 123 122 121
f 123 121 125
f 125 121 124
f 126 127 128
f 126 128 129
f 130 131 132
f 133 131 130
f 127 134 135
f 134 133 136
f 136 133 130
f 126 134 127
f 134 136 135
f 135 136 137
f 135 137 138
f 138 137 139
f 138 139 140
f 140 139 141
f 140 141 142
f 142 141 143
f 142 143 144
f 142 144 145
f 145 144 146
f 145 146 128
f 128 146 147
f 128 147 130
f 128 130 132
f 128 132 129
f 148 149 150
f 151 152 153
f 148 154 149
f 155 154 148
f 153 156 157
f 156 155 158
f 158 155 148
f 159 156 153
f 153 152 159
f 156 158 157
f 157 158 160
f 157 160 161
f 161 160 162
f 161 162 163
f 163 162 164
f 164 162 165
f 164 165 166
f 166 165 167
f 166 167 168
f 166 168 169
f 169 168 170
f 169 170 171
f 171 170 172
f 172 170 150
f 172 150 151
f 151 150 149
f 151 149 152
f 173 174 175
f 176 174 173
f 175 177 173
f 177 178 173
f 173 178 179
f 180 178 177
f 180 177 181
f 181 177 175
f 181 175 182
f 182 175 183
f 183 175 174
f 183 174 184
f 184 174 176
f 184 176 185
f 185 176 186
f 186 176 173
f 186 173 179
f 186 179 187
f 187 179 188
f 188 179 178
f 188 178 180
f 160 180 181
f 160 181 162
f 162 181 182
f 162 182 165
f 165 182 183
f 165 183 167
f 167 183 184
f 167 184 168
f 168 184 185
f 168 185 170
f 170 185 186
f 170 186 150
f 150 186 148
f 148 186 187
f 148 187 158
f 158 187 188
f 158 188 180
f 158 180 160
f 137 161 163
f 137 163 139
f 139 163 164
f 139 164 141
f 141 164 166
f 141 166 143
f 143 166 169
f 143 169 144
f 144 169 171
f 144 171 146
f 146 171 172
f 146 172 147
f 147 172 151
f 147 151 153
f 147 153 130
f 130 153 157
f 130 157 136
f 136 157 161
f 136 161 137
f 128 140 142
f 127 135 138
f 127 138 128
f 128 138 140
f 142 145 128
f 155 189 190
f 155 190 154
f 191 154 190
f 149 154 191
f 192 189 156
f 156 189 155
f 152 193 159
f 159 193 192
f 192 156 159
f 191 193 149
f 149 193 152
f 191 189 193
f 193 189 192
f 191 190 189
f 133 194 195
f 133 195 131
f 196 131 195
f 132 131 196
f 197 194 134
f 134 194 133
f 198 126 129
f 126 198 197
f 197 134 126
f 196 198 132
f 132 198 129
f 196 195 194
f 196 194 198
f 198 194 197
f 199 200 201
f 202 203 204
f 202 204 205
f 199 204 206
f 206 204 207
f 208 209 210
f 208 210 211
f 211 210 212
f 201 211 199
f 199 211 212
f 199 212 213
f 214 215 216
f 214 217 218
f 214 205 215
f 215 205 204
f 214 216 219
f 220 217 221
f 221 217 214
f 221 214 219
f 214 218 208
f 208 218 209
f 199 213 222
f 223 224 204
f 199 222 204
f 204 222 225
f 204 224 215
f 226 225 221
f 225 226 227
f 225 227 228
f 220 221 225
f 204 229 223
f 225 228 204
f 204 228 229
f 230 231 232
f 233 207 231
f 231 207 234
f 232 235 236
f 236 235 237
f 238 239 234
f 236 237 240
f 235 232 241
f 241 232 231
f 234 239 242
f 243 238 244
f 245 246 247
f 248 238 243
f 249 250 234
f 234 250 244
f 234 244 238
f 251 241 231
f 246 245 240
f 240 245 252
f 240 252 236
f 236 252 253
f 236 253 243
f 243 253 248
f 254 255 242
f 242 255 256
f 255 254 247
f 254 257 247
f 257 245 247
f 242 256 251
f 242 251 231
f 231 234 242
f 207 233 206
f 234 207 204
f 234 204 249
f 249 204 203
f 202 250 258
f 202 258 259
f 202 259 260
f 202 260 261
f 261 260 262
f 203 263 249
f 249 258 250
f 263 260 249
f 249 260 258
f 203 202 262
f 264 265 266
f 266 260 264
f 264 260 263
f 267 203 268
f 268 203 262
f 268 262 269
f 269 262 270
f 265 269 266
f 266 269 270
f 267 263 203
f 264 263 268
f 268 263 267
f 265 264 269
f 269 264 268
f 270 262 266
f 266 262 260
f 271 272 273
f 271 273 274
f 271 274 275
f 275 274 276
f 276 274 277
f 277 274 244
f 205 244 274
f 250 202 278
f 250 278 279
f 244 250 276
f 276 250 279
f 276 279 271
f 205 274 202
f 202 274 278
f 272 278 274
f 280 272 271
f 279 281 271
f 271 281 280
f 280 282 272
f 272 282 278
f 281 282 280
f 279 278 281
f 281 278 282
f 283 284 285
f 285 284 286
f 286 284 287
f 287 284 288
f 288 284 289
f 289 284 243
f 214 243 290
f 290 243 284
f 244 205 291
f 291 205 292
f 292 205 293
f 243 244 291
f 243 291 288
f 288 291 286
f 291 293 286
f 286 293 283
f 214 294 205
f 205 294 290
f 205 290 284
f 295 284 283
f 293 296 283
f 283 296 295
f 295 297 284
f 284 297 205
f 296 297 295
f 293 205 296
f 296 205 297
f 298 243 214
f 298 299 243
f 236 243 300
f 300 243 299
f 214 208 301
f 214 301 298
f 302 303 299
f 299 303 300
f 301 304 298
f 298 304 302
f 302 304 303
f 299 298 302
f 227 245 228
f 228 245 257
f 228 257 254
f 228 254 229
f 229 254 242
f 229 242 223
f 223 242 239
f 223 239 224
f 224 239 215
f 215 239 238
f 215 238 216
f 216 238 248
f 216 248 219
f 219 248 253
f 219 253 221
f 221 253 252
f 221 252 226
f 226 252 227
f 227 252 245
f 206 233 199
f 199 233 231
f 199 231 200
f 305 306 307
f 307 306 201
f 201 306 308
f 201 308 309
f 201 309 230
f 200 231 310
f 200 310 311
f 310 306 311
f 310 309 306
f 309 310 231
f 309 231 230
f 200 305 201
f 312 311 306
f 312 306 313
f 313 306 314
f 315 313 316
f 316 305 315
f 315 305 200
f 315 200 317
f 316 313 314
f 311 317 200
f 311 312 317
f 317 312 315
f 312 313 315
f 305 316 306
f 306 316 314
f 318 319 320
f 320 319 321
f 232 211 322
f 322 211 323
f 323 211 321
f 323 321 324
f 324 321 325
f 325 321 319
f 326 327 230
f 201 230 327
f 230 232 322
f 322 324 230
f 230 324 319
f 230 319 326
f 321 211 327
f 327 211 201
f 321 327 318
f 318 328 319
f 319 328 329
f 330 326 329
f 329 326 319
f 330 328 327
f 327 328 318
f 328 330 329
f 327 326 330
f 236 208 331
f 236 331 332
f 236 332 333
f 333 332 334
f 334 332 335
f 335 332 336
f 336 332 337
f 337 332 338
f 339 340 341
f 341 340 232
f 211 232 340
f 232 236 334
f 336 339 334
f 334 339 232
f 338 339 336
f 208 211 342
f 342 211 331
f 331 211 332
f 332 211 340
f 332 343 338
f 338 343 344
f 345 339 344
f 344 339 338
f 345 343 340
f 340 343 332
f 343 345 344
f 340 339 345
f 208 236 301
f 301 236 300
f 301 300 304
f 304 300 303
f 220 255 217
f 217 255 247
f 217 247 246
f 217 246 218
f 218 246 240
f 218 240 209
f 209 240 237
f 209 237 210
f 210 237 235
f 210 235 212
f 212 235 213
f 213 235 241
f 213 241 251
f 213 251 222
f 222 251 256
f 222 256 225
f 225 256 220
f 220 256 255
f 346 347 348
f 349 350 351
f 349 351 352
f 346 353 347
f 354 353 346
f 350 355 356
f 354 357 355
f 357 354 346
f 349 355 350
f 355 357 356
f 356 357 358
f 356 358 359
f 359 358 360
f 359 360 361
f 359 361 362
f 362 361 363
f 362 363 364
f 364 363 365
f 364 365 366
f 364 366 367
f 367 366 368
f 367 368 351
f 351 368 348
f 351 348 347
f 351 347 352
f 369 370 371
f 372 373 374
f 374 375 376
f 377 378 375
f 378 377 369
f 379 375 374
f 374 373 379
f 375 378 376
f 376 378 380
f 376 380 381
f 381 380 382
f 382 380 383
f 382 383 384
f 384 383 385
f 384 385 386
f 386 385 387
f 386 387 388
f 388 387 389
f 389 387 390
f 389 390 371
f 389 371 372
f 372 371 370
f 372 370 373
f 387 371 390
f 383 380 371
f 387 385 371
f 383 371 385
f 371 380 369
f 369 380 378
f 391 381 392
f 392 381 382
f 392 382 384
f 392 384 393
f 393 384 394
f 394 384 386
f 394 386 395
f 395 386 388
f 395 388 396
f 396 388 389
f 396 389 397
f 397 389 372
f 397 372 398
f 398 372 374
f 398 374 376
f 398 376 399
f 399 376 391
f 391 376 381
f 400 391 392
f 400 392 401
f 401 392 393
f 401 393 402
f 402 393 394
f 402 394 403
f 403 394 395
f 403 395 404
f 404 395 396
f 404 396 405
f 405 396 397
f 405 397 398
f 405 398 406
f 406 398 407
f 407 398 399
f 407 399 408
f 408 399 391
f 408 391 400
f 358 400 360
f 360 400 401
f 360 401 402
f 360 402 361
f 361 402 363
f 363 402 403
f 363 403 365
f 365 403 404
f 365 404 366
f 366 404 405
f 366 405 368
f 368 405 406
f 368 406 348
f 348 406 407
f 348 407 346
f 346 407 408
f 346 408 357
f 357 408 358
f 358 408 400
f 364 367 351
f 350 356 359
f 350 359 351
f 351 362 364
f 362 351 359
f 377 409 410
f 377 410 369
f 411 369 410
f 370 369 411
f 412 409 375
f 375 409 377
f 373 413 379
f 379 413 412
f 412 375 379
f 411 413 370
f 370 413 373
f 413 411 409
f 410 409 411
f 409 412 413
f 354 414 415
f 354 415 353
f 416 353 415
f 347 353 416
f 417 414 355
f 355 414 354
f 418 349 352
f 349 418 417
f 417 355 349
f 416 418 347
f 347 418 352
f 416 415 414
f 416 414 418
f 418 414 417
f 419 420 421
f 419 421 422
f 423 424 425
f 426 424 423
f 420 427 428
f 427 426 429
f 429 426 423
f 419 427 420
f 427 429 428
f 428 429 430
f 428 430 431
f 431 430 432
f 431 432 433
f 433 432 434
f 433 434 435
f 435 434 436
f 435 436 437
f 435 437 438
f 438 437 439
f 438 439 421
f 421 439 440
f 421 440 423
f 421 423 425
f 421 425 422
f 441 442 443
f 444 445 446
f 441 447 442
f 448 447 441
f 446 449 450
f 449 448 451
f 451 448 441
f 452 449 446
f 446 445 452
f 449 451 450
f 450 451 453
f 450 453 454
f 454 453 455
f 454 455 456
f 456 455 457
f 457 455 458
f 457 458 459
f 459 458 460
f 459 460 461
f 459 461 462
f 462 461 463
f 462 463 464
f 464 463 465
f 465 463 443
f 465 443 444
f 444 443 442
f 444 442 445
f 466 467 468
f 469 467 466
f 468 470 466
f 470 471 466
f 466 471 472
f 473 471 470
f 473 470 474
f 474 470 468
f 474 468 475
f 475 468 476
f 476 468 467
f 476 467 477
f 477 467 469
f 477 469 478
f 478 469 479
f 479 469 466
f 479 466 472
f 479 472 480
f 480 472 481
f 481 472 471
f 481 471 473
f 453 473 474
f 453 474 455
f 455 474 475
f 455 475 458
f 458 475 476
f 458 476 460
f 460 476 477
f 460 477 461
f 461 477 478
f 461 478 463
f 463 478 479
f 463 479 443
f 443 479 441
f 441 479 480
f 441 480 451
f 451 480 481
f 451 481 473
f 451 473 453
f 430 454 456
f 430 456 432
f 432 456 457
f 432 457 434
f 434 457 459
f 434 459 436
f 436 459 462
f 436 462 437
f 437 462 464
f 437 464 439
f 439 464 465
f 439 465 440
f 440 465 444
f 440 444 446
f 440 446 423
f 423 446 450
f 423 450 429
f 429 450 454
f 429 454 430
f 421 433 435
f 420 428 431
f 420 431 421
f 421 431 433
f 435 438 421
f 448 482 483
f 448 483 447
f 484 447 483
f 442 447 484
f 485 482 449
f 449 482 448
f 445 486 452
f 452 486 485
f 485 449 452
f 484 486 442
f 442 486 445
f 484 482 486
f 486 482 485
f 484 483 482
f 426 487 488
f 426 488 424
f 489 424 488
f 425 424 489
f 490 487 427
f 427 487 426
f 491 419 422
f 419 491 490
f 490 427 419
f 489 491 425
f 425 491 422
f 489 488 487
f 489 487 491
f 491 487 490
f 492 493 494
f 495 496 497
f 495 497 498
f 492 497 499
f 499 497 500
f 501 502 503
f 501 503 504
f 504 503 505
f 494 504 492
f 492 504 505
f 492 505 506
f 507 508 509
f 507 510 511
f 507 498 508
f 508 498 497
f 507 509 512
f 513 510 514
f 514 510 507
f 514 507 512
f 507 511 501
f 501 511 502
f 492 506 515
f 516 517 497
f 492 515 497
f 497 515 518
f 497 517 508
f 519 518 514
f 518 519 520
f 518 520 521
f 513 514 518
f 497 522 516
f 518 521 497
f 497 521 522
f 523 524 525
f 526 527 524
f 524 527 528
f 525 529 530
f 530 529 531
f 532 533 528
f 530 531 534
f 529 525 535
f 535 525 524
f 528 533 536
f 537 532 538
f 539 540 541
f 542 532 537
f 543 544 528
f 528 544 538
f 528 538 532
f 545 535 524
f 540 539 534
f 534 539 546
f 534 546 530
f 530 546 547
f 530 547 537
f 537 547 542
f 548 549 536
f 536 549 550
f 549 548 541
f 548 551 541
f 551 539 541
f 536 550 545
f 536 545 524
f 524 528 536
f 527 526 500
f 500 526 499
f 527 500 528
f 528 500 497
f 528 497 543
f 543 497 496
f 495 544 552
f 495 552 553
f 495 553 554
f 495 554 555
f 555 554 556
f 496 557 543
f 543 552 544
f 557 554 543
f 543 554 552
f 496 495 556
f 558 559 560
f 560 554 558
f 558 554 557
f 561 496 562
f 562 496 556
f 562 556 563
f 563 556 564
f 559 563 560
f 560 563 564
f 561 557 496
f 558 557 562
f 562 557 561
f 559 558 563
f 563 558 562
f 564 556 560
f 560 556 554
f 565 566 567
f 565 567 568
f 565 568 569
f 569 568 570
f 570 568 571
f 571 568 538
f 498 538 568
f 544 495 572
f 544 572 573
f 538 544 570
f 570 544 573
f 570 573 565
f 498 568 495
f 495 568 572
f 566 572 568
f 574 566 565
f 573 575 565
f 565 575 574
f 574 576 566
f 566 576 572
f 575 576 574
f 573 572 575
f 575 572 576
f 577 578 579
f 579 578 580
f 580 578 581
f 581 578 582
f 582 578 583
f 583 578 537
f 507 537 584
f 584 537 585
f 585 537 578
f 538 498 586
f 586 498 587
f 587 498 588
f 537 538 586
f 537 586 582
f 582 586 580
f 586 588 580
f 580 588 577
f 507 585 498
f 498 585 578
f 589 578 577
f 588 590 577
f 577 590 589
f 589 591 578
f 578 591 498
f 590 591 589
f 588 498 590
f 590 498 591
f 592 537 507
f 592 593 537
f 530 537 594
f 594 537 593
f 507 501 595
f 507 595 592
f 596 597 593
f 593 597 594
f 595 598 592
f 592 598 596
f 596 598 597
f 593 592 596
f 520 539 521
f 521 539 551
f 521 551 548
f 521 548 522
f 522 548 536
f 522 536 516
f 516 536 533
f 516 533 517
f 517 533 508
f 508 533 532
f 508 532 509
f 509 532 542
f 509 542 512
f 512 542 547
f 512 547 514
f 514 547 546
f 514 546 519
f 519 546 520
f 520 546 539
f 499 526 492
f 492 526 524
f 492 524 493
f 599 600 601
f 601 600 494
f 494 600 602
f 494 602 603
f 494 603 523
f 493 524 604
f 493 604 605
f 604 600 605
f 604 603 600
f 603 604 524
f 603 524 523
f 493 599 494
f 606 605 600
f 606 600 607
f 607 600 608
f 609 607 610
f 610 599 609
f 609 599 493
f 609 493 611
f 610 607 608
f 605 611 493
f 605 606 611
f 611 606 609
f 606 607 609
f 599 610 600
f 600 610 608
f 612 613 614
f 614 613 615
f 525 504 616
f 616 504 617
f 617 504 615
f 617 615 618
f 618 615 619
f 619 615 613
f 620 621 523
f 494 523 621
f 523 525 616
f 616 618 523
f 523 618 613
f 523 613 620
f 615 504 621
f 621 504 494
f 615 621 612
f 612 622 613
f 613 622 623
f 624 620 623
f 623 620 613
f 624 622 621
f 621 622 612
f 622 624 623
f 621 620 624
f 530 501 625
f 530 625 626
f 530 626 627
f 530 627 628
f 628 627 629
f 629 627 630
f 630 627 631
f 631 627 632
f 632 627 633
f 634 635 636
f 636 635 525
f 504 525 635
f 525 530 629
f 631 634 629
f 629 634 525
f 633 634 631
f 501 504 626
f 626 504 627
f 627 504 635
f 627 637 633
f 633 637 638
f 639 634 638
f 638 634 633
f 639 637 635
f 635 637 627
f 637 639 638
f 635 634 639
f 501 530 595
f 595 530 594
f 595 594 598
f 598 594 597
f 513 549 510
f 510 549 541
f 510 541 540
f 510 540 511
f 511 540 534
f 511 534 502
f 502 534 531
f 502 531 503
f 503 531 529
f 503 529 505
f 505 529 506
f 506 529 535
f 506 535 545
f 506 545 515
f 515 545 550
f 515 550 518
f 518 550 513
f 513 550 549
