# Blender 4.0.2
# www.blender.org
o diff_caster__m2
v 35.250000 47.999996 -45.000004
v 35.250000 48.039566 -43.312603
v 35.250000 48.158176 -41.628914
v 35.250000 48.355587 -39.952625
v 35.250000 48.631348 -38.287445
v 35.250000 48.984848 -36.637012
v 35.250000 49.415325 -35.004963
v 35.250000 49.921837 -33.394882
v 35.250000 50.503246 -31.810324
v 35.250000 51.158287 -30.254753
v 35.250000 51.885536 -28.731594
v 35.250000 52.683365 -27.244194
v 35.250000 53.550037 -25.795834
v 35.250000 54.483662 -24.389685
v 35.250000 55.482151 -23.028833
v 35.250000 56.543331 -21.716284
v 35.250000 57.664871 -20.454924
v 35.250000 58.844299 -19.247515
v 35.250000 60.079021 -18.096714
v 35.250000 61.366341 -17.005054
v 35.250000 62.703400 -15.974935
v 35.250000 64.087280 -15.008615
v 35.250000 65.514931 -14.108225
v 35.250000 66.983223 -13.275735
v 35.250000 68.488907 -12.512995
v 35.250000 70.028702 -11.821666
v 35.250000 71.599190 -11.203256
v 35.250000 73.196960 -10.659156
v 35.250000 74.818459 -10.190536
v 35.250000 76.460152 -9.798433
v 35.250000 78.118423 -9.483716
v 35.250000 79.789612 -9.247067
v 35.250000 81.470062 -9.089014
v 35.250000 83.156067 -9.009901
v 35.250000 84.843941 -9.009901
v 35.250000 86.529953 -9.089015
v 35.250000 88.210403 -9.247068
v 35.250000 89.881592 -9.483717
v 35.250000 91.539848 -9.798434
v 35.250000 93.181541 -10.190536
v 35.250000 94.803047 -10.659158
v 35.250000 96.400810 -11.203258
v 35.250000 97.971313 -11.821668
v 35.250000 99.511101 -12.512998
v 35.250000 101.016800 -13.275738
v 35.250000 102.485100 -14.108228
v 35.250000 103.912697 -15.008617
v 35.250000 105.296600 -15.974937
v 35.250000 106.633698 -17.005058
v 35.250000 107.920998 -18.096718
v 35.250000 109.155701 -19.247519
v 35.250000 110.335098 -20.454927
v 35.250000 111.456703 -21.716288
v 35.250000 112.517899 -23.028837
v 35.250000 113.516296 -24.389688
v 35.250000 114.449997 -25.795839
v 35.250000 115.316597 -27.244200
v 35.250000 116.114502 -28.731600
v 35.250000 116.841698 -30.254759
v 35.250000 117.496803 -31.810329
v 35.250000 118.078201 -33.394886
v 35.250000 118.584702 -35.004967
v 35.250000 119.015099 -36.637016
v 35.250000 119.368698 -38.287449
v 35.250000 119.644402 -39.952629
v 35.250000 119.841797 -41.628918
v 35.250000 119.960403 -43.312607
v 35.250000 120.000000 -45.000008
v 35.250000 119.960403 -46.687408
v 35.250000 119.841797 -48.371098
v 35.250000 119.644402 -50.047379
v 35.250000 119.368690 -51.712566
v 35.250000 119.015091 -53.362999
v 35.250000 118.584694 -54.995049
v 35.250000 118.078194 -56.605129
v 35.250000 117.496796 -58.189686
v 35.250000 116.841690 -59.745258
v 35.250000 116.114494 -61.268417
v 35.250000 115.316589 -62.755817
v 35.250000 114.449989 -64.204178
v 35.250000 113.516289 -65.610336
v 35.250000 112.517891 -66.971176
v 35.250000 111.456696 -68.283730
v 35.250000 110.335091 -69.545090
v 35.250000 109.155693 -70.752510
v 35.250000 107.920990 -71.903297
v 35.250000 106.633690 -72.994957
v 35.250000 105.296593 -74.025078
v 35.250000 103.912689 -74.991409
v 35.250000 102.485092 -75.891800
v 35.250000 101.016792 -76.724281
v 35.250000 99.511093 -77.487030
v 35.250000 97.971306 -78.178360
v 35.250000 96.400803 -78.796761
v 35.250000 94.803040 -79.340858
v 35.250000 93.181534 -79.809479
v 35.250000 91.539841 -80.201576
v 35.250000 89.881584 -80.516296
v 35.250000 88.210396 -80.752945
v 35.250000 86.529945 -80.911011
v 35.250000 84.843933 -80.990120
v 35.250000 83.156059 -80.990120
v 35.250000 81.470055 -80.911011
v 35.250000 79.789604 -80.752945
v 35.250000 78.118416 -80.516296
v 35.250000 76.460144 -80.201576
v 35.250000 74.818451 -79.809479
v 35.250000 73.196953 -79.340858
v 35.250000 71.599182 -78.796761
v 35.250000 70.028694 -78.178360
v 35.250000 68.488899 -77.487030
v 35.250000 66.983215 -76.724281
v 35.250000 65.514923 -75.891800
v 35.250000 64.087273 -74.991409
v 35.250000 62.703396 -74.025078
v 35.250000 61.366337 -72.994957
v 35.250000 60.079018 -71.903297
v 35.250000 58.844296 -70.752510
v 35.250000 57.664867 -69.545090
v 35.250000 56.543327 -68.283730
v 35.250000 55.482147 -66.971176
v 35.250000 54.483658 -65.610336
v 35.250000 53.550037 -64.204178
v 35.250000 52.683365 -62.755814
v 35.250000 51.885536 -61.268414
v 35.250000 51.158287 -59.745255
v 35.250000 50.503246 -58.189682
v 35.250000 49.921837 -56.605125
v 35.250000 49.415325 -54.995045
v 35.250000 48.984848 -53.362995
v 35.250000 48.631348 -51.712563
v 35.250000 48.355587 -50.047375
v 35.250000 48.158176 -48.371094
v 35.250000 48.039566 -46.687405
v 5.250000 47.999996 -45.000004
v 5.250000 48.039566 -46.687405
v 5.250000 48.158176 -48.371094
v 5.250000 48.355587 -50.047375
v 5.250000 48.631348 -51.712563
v 5.250000 48.984848 -53.362995
v 5.250000 49.415325 -54.995045
v 5.250000 49.921837 -56.605125
v 5.250000 50.503246 -58.189682
v 5.250000 51.158287 -59.745255
v 5.250000 51.885536 -61.268414
v 5.250000 52.683365 -62.755814
v 5.250000 53.550037 -64.204178
v 5.250000 54.483658 -65.610336
v 5.250000 55.482147 -66.971176
v 5.250000 56.543327 -68.283730
v 5.250000 57.664867 -69.545090
v 5.250000 58.844296 -70.752510
v 5.250000 60.079018 -71.903297
v 5.250000 61.366337 -72.994957
v 5.250000 62.703396 -74.025078
v 5.250000 64.087273 -74.991409
v 5.250000 65.514923 -75.891800
v 5.250000 66.983215 -76.724281
v 5.250000 68.488899 -77.487030
v 5.250000 70.028694 -78.178360
v 5.250000 71.599182 -78.796761
v 5.250000 73.196953 -79.340858
v 5.250000 74.818451 -79.809479
v 5.250000 76.460144 -80.201576
v 5.250000 78.118416 -80.516296
v 5.250000 79.789604 -80.752945
v 5.250000 81.470055 -80.911011
v 5.250000 83.156059 -80.990120
v 5.250000 84.843933 -80.990120
v 5.250000 86.529945 -80.911011
v 5.250000 88.210396 -80.752945
v 5.250000 89.881584 -80.516296
v 5.250000 91.539841 -80.201576
v 5.250000 93.181534 -79.809479
v 5.250000 94.803040 -79.340858
v 5.250000 96.400803 -78.796761
v 5.250000 97.971306 -78.178360
v 5.250000 99.511093 -77.487030
v 5.250000 101.016792 -76.724281
v 5.250000 102.485092 -75.891800
v 5.250000 103.912689 -74.991409
v 5.250000 105.296593 -74.025078
v 5.250000 106.633690 -72.994957
v 5.250000 107.920990 -71.903297
v 5.250000 109.155693 -70.752510
v 5.250000 110.335091 -69.545090
v 5.250000 111.456696 -68.283730
v 5.250000 112.517891 -66.971176
v 5.250000 113.516289 -65.610336
v 5.250000 114.449989 -64.204178
v 5.250000 115.316589 -62.755817
v 5.250000 116.114494 -61.268417
v 5.250000 116.841690 -59.745258
v 5.250000 117.496796 -58.189686
v 5.250000 118.078194 -56.605129
v 5.250000 118.584694 -54.995049
v 5.250000 119.015091 -53.362999
v 5.250000 119.368690 -51.712566
v 5.250000 119.644402 -50.047379
v 5.250000 119.841797 -48.371098
v 5.250000 119.960403 -46.687408
v 5.250000 120.000000 -45.000008
v 5.250000 119.960403 -43.312607
v 5.250000 119.841797 -41.628918
v 5.250000 119.644402 -39.952629
v 5.250000 119.368698 -38.287449
v 5.250000 119.015099 -36.637016
v 5.250000 118.584702 -35.004967
v 5.250000 118.078201 -33.394886
v 5.250000 117.496803 -31.810329
v 5.250000 116.841698 -30.254759
v 5.250000 116.114502 -28.731600
v 5.250000 115.316597 -27.244200
v 5.250000 114.449997 -25.795839
v 5.250000 113.516296 -24.389688
v 5.250000 112.517899 -23.028837
v 5.250000 111.456703 -21.716288
v 5.250000 110.335098 -20.454927
v 5.250000 109.155701 -19.247519
v 5.250000 107.920998 -18.096718
v 5.250000 106.633698 -17.005058
v 5.250000 105.296600 -15.974937
v 5.250000 103.912697 -15.008617
v 5.250000 102.485100 -14.108228
v 5.250000 101.016800 -13.275738
v 5.250000 99.511101 -12.512998
v 5.250000 97.971313 -11.821668
v 5.250000 96.400810 -11.203258
v 5.250000 94.803047 -10.659158
v 5.250000 93.181541 -10.190536
v 5.250000 91.539848 -9.798434
v 5.250000 89.881592 -9.483717
v 5.250000 88.210403 -9.247068
v 5.250000 86.529953 -9.089015
v 5.250000 84.843941 -9.009901
v 5.250000 83.156067 -9.009901
v 5.250000 81.470062 -9.089014
v 5.250000 79.789612 -9.247067
v 5.250000 78.118423 -9.483716
v 5.250000 76.460152 -9.798433
v 5.250000 74.818459 -10.190536
v 5.250000 73.196960 -10.659156
v 5.250000 71.599190 -11.203256
v 5.250000 70.028702 -11.821666
v 5.250000 68.488907 -12.512995
v 5.250000 66.983223 -13.275735
v 5.250000 65.514931 -14.108225
v 5.250000 64.087280 -15.008615
v 5.250000 62.703400 -15.974935
v 5.250000 61.366341 -17.005054
v 5.250000 60.079021 -18.096714
v 5.250000 58.844299 -19.247515
v 5.250000 57.664871 -20.454924
v 5.250000 56.543331 -21.716284
v 5.250000 55.482151 -23.028833
v 5.250000 54.483662 -24.389685
v 5.250000 53.550037 -25.795834
v 5.250000 52.683365 -27.244194
v 5.250000 51.885536 -28.731594
v 5.250000 51.158287 -30.254753
v 5.250000 50.503246 -31.810324
v 5.250000 49.921837 -33.394882
v 5.250000 49.415325 -35.004963
v 5.250000 48.984848 -36.637012
v 5.250000 48.631348 -38.287445
v 5.250000 48.355587 -39.952625
v 5.250000 48.158176 -41.628914
v 5.250000 48.039566 -43.312603
v 5.250000 79.000000 -45.000008
v 5.250000 79.039429 -45.626678
v 5.250000 79.157082 -46.243458
v 5.250000 79.351120 -46.840626
v 5.250000 79.618469 -47.408779
v 5.250000 79.954918 -47.938938
v 5.250000 80.355164 -48.422749
v 5.250000 80.812881 -48.852566
v 5.250000 81.320869 -49.221649
v 5.250000 81.871101 -49.524139
v 5.250000 82.454918 -49.755287
v 5.250000 83.063103 -49.911438
v 5.250000 83.686050 -49.990139
v 5.250000 84.313950 -49.990139
v 5.250000 84.936913 -49.911438
v 5.250000 85.545082 -49.755287
v 5.250000 86.128899 -49.524139
v 5.250000 86.679131 -49.221649
v 5.250000 87.187119 -48.852566
v 5.250000 87.644852 -48.422749
v 5.250000 88.045082 -47.938938
v 5.250000 88.381531 -47.408779
v 5.250000 88.648880 -46.840626
v 5.250000 88.842918 -46.243458
v 5.250000 88.960571 -45.626678
v 5.250000 89.000000 -45.000008
v 5.250000 88.960571 -44.373337
v 5.250000 88.842918 -43.756557
v 5.250000 88.648880 -43.159389
v 5.250000 88.381531 -42.591236
v 5.250000 88.045082 -42.061077
v 5.250000 87.644852 -41.577267
v 5.250000 87.187119 -41.147438
v 5.250000 86.679131 -40.778366
v 5.250000 86.128899 -40.475868
v 5.250000 85.545082 -40.244728
v 5.250000 84.936913 -40.088566
v 5.250000 84.313950 -40.009869
v 5.250000 83.686050 -40.009869
v 5.250000 83.063103 -40.088566
v 5.250000 82.454918 -40.244728
v 5.250000 81.871101 -40.475868
v 5.250000 81.320869 -40.778366
v 5.250000 80.812881 -41.147438
v 5.250000 80.355164 -41.577267
v 5.250000 79.954918 -42.061077
v 5.250000 79.618469 -42.591236
v 5.250000 79.351120 -43.159389
v 5.250000 79.157082 -43.756557
v 5.250000 79.039429 -44.373337
v -35.250000 47.999996 -45.000004
v -35.250000 48.039566 -46.687405
v -35.250000 48.158176 -48.371094
v -35.250000 48.355587 -50.047375
v -35.250000 48.631348 -51.712563
v -35.250000 48.984848 -53.362995
v -35.250000 49.415325 -54.995045
v -35.250000 49.921837 -56.605125
v -35.250000 50.503246 -58.189682
v -35.250000 51.158287 -59.745255
v -35.250000 51.885536 -61.268414
v -35.250000 52.683365 -62.755814
v -35.250000 53.550037 -64.204178
v -35.250000 54.483658 -65.610336
v -35.250000 55.482147 -66.971176
v -35.250000 56.543327 -68.283730
v -35.250000 57.664867 -69.545090
v -35.250000 58.844296 -70.752510
v -35.250000 60.079018 -71.903297
v -35.250000 61.366337 -72.994957
v -35.250000 62.703396 -74.025078
v -35.250000 64.087273 -74.991409
v -35.250000 65.514923 -75.891800
v -35.250000 66.983215 -76.724281
v -35.250000 68.488899 -77.487030
v -35.250000 70.028694 -78.178360
v -35.250000 71.599182 -78.796761
v -35.250000 73.196953 -79.340858
v -35.250000 74.818451 -79.809479
v -35.250000 76.460144 -80.201576
v -35.250000 78.118416 -80.516296
v -35.250000 79.789604 -80.752945
v -35.250000 81.470055 -80.911011
v -35.250000 83.156059 -80.990120
v -35.250000 84.843933 -80.990120
v -35.250000 86.529945 -80.911011
v -35.250000 88.210396 -80.752945
v -35.250000 89.881584 -80.516296
v -35.250000 91.539841 -80.201576
v -35.250000 93.181534 -79.809479
v -35.250000 94.803040 -79.340858
v -35.250000 96.400803 -78.796761
v -35.250000 97.971306 -78.178360
v -35.250000 99.511093 -77.487030
v -35.250000 101.016792 -76.724281
v -35.250000 102.485092 -75.891800
v -35.250000 103.912689 -74.991409
v -35.250000 105.296593 -74.025078
v -35.250000 106.633690 -72.994957
v -35.250000 107.920990 -71.903297
v -35.250000 109.155693 -70.752510
v -35.250000 110.335091 -69.545090
v -35.250000 111.456696 -68.283730
v -35.250000 112.517891 -66.971176
v -35.250000 113.516289 -65.610336
v -35.250000 114.449989 -64.204178
v -35.250000 115.316589 -62.755817
v -35.250000 116.114494 -61.268417
v -35.250000 116.841690 -59.745258
v -35.250000 117.496796 -58.189686
v -35.250000 118.078194 -56.605129
v -35.250000 118.584694 -54.995049
v -35.250000 119.015091 -53.362999
v -35.250000 119.368690 -51.712566
v -35.250000 119.644402 -50.047379
v -35.250000 119.841797 -48.371098
v -35.250000 119.960403 -46.687408
v -35.250000 120.000000 -45.000008
v -35.250000 119.960403 -43.312607
v -35.250000 119.841797 -41.628918
v -35.250000 119.644402 -39.952629
v -35.250000 119.368698 -38.287449
v -35.250000 119.015099 -36.637016
v -35.250000 118.584702 -35.004967
v -35.250000 118.078201 -33.394886
v -35.250000 117.496803 -31.810329
v -35.250000 116.841698 -30.254759
v -35.250000 116.114502 -28.731600
v -35.250000 115.316597 -27.244200
v -35.250000 114.449997 -25.795839
v -35.250000 113.516296 -24.389688
v -35.250000 112.517899 -23.028837
v -35.250000 111.456703 -21.716288
v -35.250000 110.335098 -20.454927
v -35.250000 109.155701 -19.247519
v -35.250000 107.920998 -18.096718
v -35.250000 106.633698 -17.005058
v -35.250000 105.296600 -15.974937
v -35.250000 103.912697 -15.008617
v -35.250000 102.485100 -14.108228
v -35.250000 101.016800 -13.275738
v -35.250000 99.511101 -12.512998
v -35.250000 97.971313 -11.821668
v -35.250000 96.400810 -11.203258
v -35.250000 94.803047 -10.659158
v -35.250000 93.181541 -10.190536
v -35.250000 91.539848 -9.798434
v -35.250000 89.881592 -9.483717
v -35.250000 88.210403 -9.247068
v -35.250000 86.529953 -9.089015
v -35.250000 84.843941 -9.009901
v -35.250000 83.156067 -9.009901
v -35.250000 81.470062 -9.089014
v -35.250000 79.789612 -9.247067
v -35.250000 78.118423 -9.483716
v -35.250000 76.460152 -9.798433
v -35.250000 74.818459 -10.190536
v -35.250000 73.196960 -10.659156
v -35.250000 71.599190 -11.203256
v -35.250000 70.028702 -11.821666
v -35.250000 68.488907 -12.512995
v -35.250000 66.983223 -13.275735
v -35.250000 65.514931 -14.108225
v -35.250000 64.087280 -15.008615
v -35.250000 62.703400 -15.974935
v -35.250000 61.366341 -17.005054
v -35.250000 60.079021 -18.096714
v -35.250000 58.844299 -19.247515
v -35.250000 57.664871 -20.454924
v -35.250000 56.543331 -21.716284
v -35.250000 55.482151 -23.028833
v -35.250000 54.483662 -24.389685
v -35.250000 53.550037 -25.795834
v -35.250000 52.683365 -27.244194
v -35.250000 51.885536 -28.731594
v -35.250000 51.158287 -30.254753
v -35.250000 50.503246 -31.810324
v -35.250000 49.921837 -33.394882
v -35.250000 49.415325 -35.004963
v -35.250000 48.984848 -36.637012
v -35.250000 48.631348 -38.287445
v -35.250000 48.355587 -39.952625
v -35.250000 48.158176 -41.628914
v -35.250000 48.039566 -43.312603
v -5.250000 47.999996 -45.000004
v -5.250000 48.039566 -43.312603
v -5.250000 48.158176 -41.628914
v -5.250000 48.355587 -39.952625
v -5.250000 48.631348 -38.287445
v -5.250000 48.984848 -36.637012
v -5.250000 49.415325 -35.004963
v -5.250000 49.921837 -33.394882
v -5.250000 50.503246 -31.810324
v -5.250000 51.158287 -30.254753
v -5.250000 51.885536 -28.731594
v -5.250000 52.683365 -27.244194
v -5.250000 53.550037 -25.795834
v -5.250000 54.483662 -24.389685
v -5.250000 55.482151 -23.028833
v -5.250000 56.543331 -21.716284
v -5.250000 57.664871 -20.454924
v -5.250000 58.844299 -19.247515
v -5.250000 60.079021 -18.096714
v -5.250000 61.366341 -17.005054
v -5.250000 62.703400 -15.974935
v -5.250000 64.087280 -15.008615
v -5.250000 65.514931 -14.108225
v -5.250000 66.983223 -13.275735
v -5.250000 68.488907 -12.512995
v -5.250000 70.028702 -11.821666
v -5.250000 71.599190 -11.203256
v -5.250000 73.196960 -10.659156
v -5.250000 74.818459 -10.190536
v -5.250000 76.460152 -9.798433
v -5.250000 78.118423 -9.483716
v -5.250000 79.789612 -9.247067
v -5.250000 81.470062 -9.089014
v -5.250000 83.156067 -9.009901
v -5.250000 84.843941 -9.009901
v -5.250000 86.529953 -9.089015
v -5.250000 88.210403 -9.247068
v -5.250000 89.881592 -9.483717
v -5.250000 91.539848 -9.798434
v -5.250000 93.181541 -10.190536
v -5.250000 94.803047 -10.659158
v -5.250000 96.400810 -11.203258
v -5.250000 97.971313 -11.821668
v -5.250000 99.511101 -12.512998
v -5.250000 101.016800 -13.275738
v -5.250000 102.485100 -14.108228
v -5.250000 103.912697 -15.008617
v -5.250000 105.296600 -15.974937
v -5.250000 106.633698 -17.005058
v -5.250000 107.920998 -18.096718
v -5.250000 109.155701 -19.247519
v -5.250000 110.335098 -20.454927
v -5.250000 111.456703 -21.716288
v -5.250000 112.517899 -23.028837
v -5.250000 113.516296 -24.389688
v -5.250000 114.449997 -25.795839
v -5.250000 115.316597 -27.244200
v -5.250000 116.114502 -28.731600
v -5.250000 116.841698 -30.254759
v -5.250000 117.496803 -31.810329
v -5.250000 118.078201 -33.394886
v -5.250000 118.584702 -35.004967
v -5.250000 119.015099 -36.637016
v -5.250000 119.368698 -38.287449
v -5.250000 119.644402 -39.952629
v -5.250000 119.841797 -41.628918
v -5.250000 119.960403 -43.312607
v -5.250000 120.000000 -45.000008
v -5.250000 119.960403 -46.687408
v -5.250000 119.841797 -48.371098
v -5.250000 119.644402 -50.047379
v -5.250000 119.368690 -51.712566
v -5.250000 119.015091 -53.362999
v -5.250000 118.584694 -54.995049
v -5.250000 118.078194 -56.605129
v -5.250000 117.496796 -58.189686
v -5.250000 116.841690 -59.745258
v -5.250000 116.114494 -61.268417
v -5.250000 115.316589 -62.755817
v -5.250000 114.449989 -64.204178
v -5.250000 113.516289 -65.610336
v -5.250000 112.517891 -66.971176
v -5.250000 111.456696 -68.283730
v -5.250000 110.335091 -69.545090
v -5.250000 109.155693 -70.752510
v -5.250000 107.920990 -71.903297
v -5.250000 106.633690 -72.994957
v -5.250000 105.296593 -74.025078
v -5.250000 103.912689 -74.991409
v -5.250000 102.485092 -75.891800
v -5.250000 101.016792 -76.724281
v -5.250000 99.511093 -77.487030
v -5.250000 97.971306 -78.178360
v -5.250000 96.400803 -78.796761
v -5.250000 94.803040 -79.340858
v -5.250000 93.181534 -79.809479
v -5.250000 91.539841 -80.201576
v -5.250000 89.881584 -80.516296
v -5.250000 88.210396 -80.752945
v -5.250000 86.529945 -80.911011
v -5.250000 84.843933 -80.990120
v -5.250000 83.156059 -80.990120
v -5.250000 81.470055 -80.911011
v -5.250000 79.789604 -80.752945
v -5.250000 78.118416 -80.516296
v -5.250000 76.460144 -80.201576
v -5.250000 74.818451 -79.809479
v -5.250000 73.196953 -79.340858
v -5.250000 71.599182 -78.796761
v -5.250000 70.028694 -78.178360
v -5.250000 68.488899 -77.487030
v -5.250000 66.983215 -76.724281
v -5.250000 65.514923 -75.891800
v -5.250000 64.087273 -74.991409
v -5.250000 62.703396 -74.025078
v -5.250000 61.366337 -72.994957
v -5.250000 60.079018 -71.903297
v -5.250000 58.844296 -70.752510
v -5.250000 57.664867 -69.545090
v -5.250000 56.543327 -68.283730
v -5.250000 55.482147 -66.971176
v -5.250000 54.483658 -65.610336
v -5.250000 53.550037 -64.204178
v -5.250000 52.683365 -62.755814
v -5.250000 51.885536 -61.268414
v -5.250000 51.158287 -59.745255
v -5.250000 50.503246 -58.189682
v -5.250000 49.921837 -56.605125
v -5.250000 49.415325 -54.995045
v -5.250000 48.984848 -53.362995
v -5.250000 48.631348 -51.712563
v -5.250000 48.355587 -50.047375
v -5.250000 48.158176 -48.371094
v -5.250000 48.039566 -46.687405
v -5.250000 79.000000 -45.000008
v -5.250000 79.039429 -44.373337
v -5.250000 79.157082 -43.756557
v -5.250000 79.351120 -43.159389
v -5.250000 79.618469 -42.591236
v -5.250000 79.954918 -42.061077
v -5.250000 80.355164 -41.577267
v -5.250000 80.812881 -41.147438
v -5.250000 81.320869 -40.778366
v -5.250000 81.871101 -40.475868
v -5.250000 82.454918 -40.244728
v -5.250000 83.063103 -40.088566
v -5.250000 83.686050 -40.009869
v -5.250000 84.313950 -40.009869
v -5.250000 84.936913 -40.088566
v -5.250000 85.545082 -40.244728
v -5.250000 86.128899 -40.475868
v -5.250000 86.679131 -40.778366
v -5.250000 87.187119 -41.147438
v -5.250000 87.644852 -41.577267
v -5.250000 88.045082 -42.061077
v -5.250000 88.381531 -42.591236
v -5.250000 88.648880 -43.159389
v -5.250000 88.842918 -43.756557
v -5.250000 88.960571 -44.373337
v -5.250000 89.000000 -45.000008
v -5.250000 88.960571 -45.626678
v -5.250000 88.842918 -46.243458
v -5.250000 88.648880 -46.840626
v -5.250000 88.381531 -47.408779
v -5.250000 88.045082 -47.938938
v -5.250000 87.644852 -48.422749
v -5.250000 87.187119 -48.852566
v -5.250000 86.679131 -49.221649
v -5.250000 86.128899 -49.524139
v -5.250000 85.545082 -49.755287
v -5.250000 84.936913 -49.911438
v -5.250000 84.313950 -49.990139
v -5.250000 83.686050 -49.990139
v -5.250000 83.063103 -49.911438
v -5.250000 82.454918 -49.755287
v -5.250000 81.871101 -49.524139
v -5.250000 81.320869 -49.221649
v -5.250000 80.812881 -48.852566
v -5.250000 80.355164 -48.422749
v -5.250000 79.954918 -47.938938
v -5.250000 79.618469 -47.408779
v -5.250000 79.351120 -46.840626
v -5.250000 79.157082 -46.243458
v -5.250000 79.039429 -45.626678
vn 1.0000 -0.0000 -0.0000
vn -1.0000 -0.0000 -0.0000
vn -0.0000 -0.9980 0.0628
vn -0.0000 -0.9980 -0.0628
vn -0.0000 -0.9823 -0.1874
vn -0.0000 -0.9511 -0.3090
vn -0.0000 -0.9048 -0.4258
vn -0.0000 -0.8443 -0.5358
vn -0.0000 -0.7705 -0.6374
vn -0.0000 -0.6845 -0.7290
vn -0.0000 -0.5878 -0.8090
vn -0.0000 -0.4817 -0.8763
vn -0.0000 -0.4818 -0.8763
vn -0.0000 -0.3681 -0.9298
vn -0.0000 -0.2487 -0.9686
vn -0.0000 -0.1253 -0.9921
vn -0.0000 -0.0000 -1.0000
vn -0.0000 0.1253 -0.9921
vn -0.0000 0.2487 -0.9686
vn -0.0000 0.3681 -0.9298
vn -0.0000 0.4818 -0.8763
vn -0.0000 0.4817 -0.8763
vn -0.0000 0.5878 -0.8090
vn -0.0000 0.6845 -0.7290
vn -0.0000 0.7705 -0.6374
vn -0.0000 0.8443 -0.5358
vn -0.0000 0.9048 -0.4258
vn -0.0000 0.9511 -0.3090
vn -0.0000 0.9823 -0.1874
vn -0.0000 0.9980 -0.0628
vn -0.0000 0.9980 0.0628
vn -0.0000 0.9823 0.1874
vn -0.0000 0.9511 0.3090
vn -0.0000 0.9048 0.4258
vn -0.0000 0.8443 0.5358
vn -0.0000 0.7705 0.6374
vn -0.0000 0.6845 0.7290
vn -0.0000 0.5878 0.8090
vn -0.0000 0.4818 0.8763
vn -0.0000 0.3681 0.9298
vn -0.0000 0.2487 0.9686
vn -0.0000 0.1253 0.9921
vn -0.0000 -0.0000 1.0000
vn -0.0000 -0.1253 0.9921
vn -0.0000 -0.2487 0.9686
vn -0.0000 -0.3681 0.9298
vn -0.0000 -0.4818 0.8763
vn -0.0000 -0.5878 0.8090
vn -0.0000 -0.6846 0.7290
vn -0.0000 -0.7705 0.6374
vn -0.0000 -0.8443 0.5358
vn -0.0000 -0.9048 0.4258
vn -0.0000 -0.9511 0.3090
vn -0.0000 -0.9823 0.1874
s 0
f 134//1 69//1 1//1
f 1//1 69//1 68//1
f 1//1 68//1 2//1
f 2//1 68//1 67//1
f 2//1 67//1 3//1
f 3//1 67//1 66//1
f 3//1 66//1 4//1
f 4//1 66//1 65//1
f 4//1 65//1 5//1
f 5//1 65//1 64//1
f 5//1 64//1 6//1
f 6//1 64//1 63//1
f 6//1 63//1 7//1
f 7//1 63//1 62//1
f 7//1 62//1 8//1
f 8//1 62//1 61//1
f 8//1 61//1 9//1
f 9//1 61//1 60//1
f 9//1 60//1 10//1
f 10//1 60//1 59//1
f 10//1 59//1 11//1
f 11//1 59//1 58//1
f 11//1 58//1 12//1
f 12//1 58//1 57//1
f 12//1 57//1 13//1
f 13//1 57//1 56//1
f 13//1 56//1 14//1
f 14//1 56//1 55//1
f 14//1 55//1 15//1
f 15//1 55//1 54//1
f 15//1 54//1 16//1
f 16//1 54//1 53//1
f 16//1 53//1 17//1
f 17//1 53//1 52//1
f 17//1 52//1 18//1
f 18//1 52//1 51//1
f 18//1 51//1 19//1
f 19//1 51//1 50//1
f 19//1 50//1 20//1
f 20//1 50//1 49//1
f 20//1 49//1 21//1
f 21//1 49//1 48//1
f 21//1 48//1 22//1
f 22//1 48//1 47//1
f 22//1 47//1 23//1
f 23//1 47//1 46//1
f 23//1 46//1 24//1
f 24//1 46//1 45//1
f 24//1 45//1 25//1
f 25//1 45//1 44//1
f 25//1 44//1 26//1
f 26//1 44//1 43//1
f 26//1 43//1 27//1
f 27//1 43//1 42//1
f 27//1 42//1 28//1
f 28//1 42//1 41//1
f 28//1 41//1 29//1
f 29//1 41//1 40//1
f 29//1 40//1 30//1
f 30//1 40//1 39//1
f 30//1 39//1 31//1
f 31//1 39//1 38//1
f 31//1 38//1 32//1
f 32//1 38//1 37//1
f 32//1 37//1 33//1
f 33//1 37//1 36//1
f 33//1 36//1 34//1
f 34//1 36//1 35//1
f 69//1 134//1 70//1
f 70//1 134//1 133//1
f 70//1 133//1 71//1
f 71//1 133//1 132//1
f 71//1 132//1 72//1
f 72//1 132//1 131//1
f 72//1 131//1 73//1
f 73//1 131//1 130//1
f 73//1 130//1 74//1
f 74//1 130//1 129//1
f 74//1 129//1 75//1
f 75//1 129//1 128//1
f 75//1 128//1 76//1
f 76//1 128//1 127//1
f 76//1 127//1 77//1
f 77//1 127//1 126//1
f 77//1 126//1 78//1
f 78//1 126//1 125//1
f 78//1 125//1 79//1
f 79//1 125//1 124//1
f 79//1 124//1 80//1
f 80//1 124//1 123//1
f 80//1 123//1 81//1
f 81//1 123//1 122//1
f 81//1 122//1 82//1
f 82//1 122//1 121//1
f 82//1 121//1 83//1
f 83//1 121//1 120//1
f 83//1 120//1 84//1
f 84//1 120//1 119//1
f 84//1 119//1 85//1
f 85//1 119//1 118//1
f 85//1 118//1 86//1
f 86//1 118//1 117//1
f 86//1 117//1 87//1
f 87//1 117//1 116//1
f 87//1 116//1 88//1
f 88//1 116//1 115//1
f 88//1 115//1 89//1
f 89//1 115//1 114//1
f 89//1 114//1 90//1
f 90//1 114//1 113//1
f 90//1 113//1 91//1
f 91//1 113//1 112//1
f 91//1 112//1 92//1
f 92//1 112//1 111//1
f 92//1 111//1 93//1
f 93//1 111//1 110//1
f 93//1 110//1 94//1
f 94//1 110//1 109//1
f 94//1 109//1 95//1
f 95//1 109//1 108//1
f 95//1 108//1 96//1
f 96//1 108//1 107//1
f 96//1 107//1 97//1
f 97//1 107//1 106//1
f 97//1 106//1 98//1
f 98//1 106//1 105//1
f 98//1 105//1 99//1
f 99//1 105//1 104//1
f 99//1 104//1 100//1
f 100//1 104//1 103//1
f 100//1 103//1 101//1
f 101//1 103//1 102//1
f 270//2 136//2 269//2
f 269//2 136//2 135//2
f 269//2 135//2 268//2
f 271//2 139//2 270//2
f 270//2 139//2 138//2
f 270//2 138//2 137//2
f 272//2 142//2 271//2
f 271//2 142//2 141//2
f 271//2 141//2 140//2
f 273//2 144//2 272//2
f 272//2 144//2 143//2
f 272//2 143//2 142//2
f 274//2 147//2 273//2
f 273//2 147//2 146//2
f 273//2 146//2 145//2
f 275//2 150//2 274//2
f 274//2 150//2 149//2
f 274//2 149//2 148//2
f 276//2 152//2 275//2
f 275//2 152//2 151//2
f 275//2 151//2 150//2
f 277//2 155//2 276//2
f 276//2 155//2 154//2
f 276//2 154//2 153//2
f 278//2 158//2 277//2
f 277//2 158//2 157//2
f 277//2 157//2 156//2
f 279//2 160//2 278//2
f 278//2 160//2 159//2
f 278//2 159//2 158//2
f 280//2 163//2 279//2
f 279//2 163//2 162//2
f 279//2 162//2 161//2
f 281//2 166//2 280//2
f 280//2 166//2 165//2
f 280//2 165//2 164//2
f 282//2 168//2 281//2
f 281//2 168//2 167//2
f 281//2 167//2 166//2
f 283//2 199//2 282//2
f 282//2 199//2 198//2
f 282//2 198//2 197//2
f 283//2 284//2 199//2
f 199//2 284//2 285//2
f 199//2 285//2 286//2
f 286//2 287//2 199//2
f 199//2 287//2 288//2
f 199//2 288//2 289//2
f 289//2 290//2 199//2
f 199//2 290//2 291//2
f 199//2 291//2 292//2
f 292//2 293//2 199//2
f 199//2 293//2 200//2
f 200//2 293//2 201//2
f 201//2 293//2 294//2
f 201//2 294//2 202//2
f 202//2 294//2 203//2
f 203//2 294//2 295//2
f 203//2 295//2 204//2
f 204//2 295//2 205//2
f 205//2 295//2 206//2
f 206//2 295//2 296//2
f 206//2 296//2 207//2
f 207//2 296//2 208//2
f 208//2 296//2 209//2
f 209//2 296//2 297//2
f 209//2 297//2 210//2
f 210//2 297//2 211//2
f 211//2 297//2 298//2
f 211//2 298//2 212//2
f 212//2 298//2 213//2
f 213//2 298//2 214//2
f 214//2 298//2 299//2
f 214//2 299//2 215//2
f 215//2 299//2 216//2
f 216//2 299//2 217//2
f 217//2 299//2 300//2
f 217//2 300//2 218//2
f 218//2 300//2 219//2
f 219//2 300//2 301//2
f 219//2 301//2 220//2
f 220//2 301//2 221//2
f 221//2 301//2 222//2
f 222//2 301//2 302//2
f 222//2 302//2 223//2
f 223//2 302//2 224//2
f 224//2 302//2 225//2
f 225//2 302//2 303//2
f 225//2 303//2 226//2
f 226//2 303//2 227//2
f 227//2 303//2 304//2
f 227//2 304//2 228//2
f 228//2 304//2 229//2
f 229//2 304//2 230//2
f 230//2 304//2 305//2
f 230//2 305//2 231//2
f 231//2 305//2 232//2
f 232//2 305//2 233//2
f 233//2 305//2 306//2
f 233//2 306//2 234//2
f 234//2 306//2 235//2
f 235//2 306//2 307//2
f 235//2 307//2 236//2
f 236//2 307//2 237//2
f 237//2 307//2 238//2
f 238//2 307//2 308//2
f 238//2 308//2 239//2
f 239//2 308//2 240//2
f 240//2 308//2 241//2
f 241//2 308//2 242//2
f 242//2 308//2 243//2
f 243//2 308//2 244//2
f 244//2 308//2 245//2
f 245//2 308//2 246//2
f 246//2 308//2 247//2
f 247//2 308//2 248//2
f 248//2 308//2 249//2
f 249//2 308//2 250//2
f 250//2 308//2 251//2
f 251//2 308//2 252//2
f 252//2 308//2 253//2
f 253//2 308//2 254//2
f 254//2 308//2 255//2
f 255//2 308//2 256//2
f 256//2 308//2 257//2
f 257//2 308//2 258//2
f 258//2 308//2 259//2
f 259//2 308//2 260//2
f 260//2 308//2 261//2
f 261//2 308//2 262//2
f 262//2 308//2 263//2
f 263//2 308//2 264//2
f 264//2 308//2 309//2
f 264//2 309//2 310//2
f 310//2 311//2 264//2
f 264//2 311//2 312//2
f 264//2 312//2 313//2
f 313//2 314//2 264//2
f 264//2 314//2 315//2
f 264//2 315//2 316//2
f 316//2 317//2 264//2
f 264//2 317//2 265//2
f 265//2 317//2 318//2
f 265//2 318//2 266//2
f 266//2 318//2 267//2
f 267//2 318//2 268//2
f 268//2 318//2 269//2
f 197//2 196//2 282//2
f 282//2 196//2 195//2
f 282//2 195//2 194//2
f 194//2 193//2 282//2
f 282//2 193//2 192//2
f 282//2 192//2 191//2
f 191//2 190//2 282//2
f 282//2 190//2 189//2
f 282//2 189//2 188//2
f 188//2 187//2 282//2
f 282//2 187//2 186//2
f 282//2 186//2 185//2
f 185//2 184//2 282//2
f 282//2 184//2 183//2
f 282//2 183//2 182//2
f 182//2 181//2 282//2
f 282//2 181//2 180//2
f 282//2 180//2 179//2
f 179//2 178//2 282//2
f 282//2 178//2 177//2
f 282//2 177//2 176//2
f 176//2 175//2 282//2
f 282//2 175//2 174//2
f 282//2 174//2 173//2
f 173//2 172//2 282//2
f 282//2 172//2 171//2
f 282//2 171//2 170//2
f 170//2 169//2 282//2
f 282//2 169//2 168//2
f 164//2 163//2 280//2
f 161//2 160//2 279//2
f 156//2 155//2 277//2
f 153//2 152//2 276//2
f 148//2 147//2 274//2
f 145//2 144//2 273//2
f 140//2 139//2 271//2
f 137//2 136//2 270//2
f 452//2 387//2 319//2
f 319//2 387//2 386//2
f 319//2 386//2 320//2
f 320//2 386//2 385//2
f 320//2 385//2 321//2
f 321//2 385//2 384//2
f 321//2 384//2 322//2
f 322//2 384//2 383//2
f 322//2 383//2 323//2
f 323//2 383//2 382//2
f 323//2 382//2 324//2
f 324//2 382//2 381//2
f 324//2 381//2 325//2
f 325//2 381//2 380//2
f 325//2 380//2 326//2
f 326//2 380//2 379//2
f 326//2 379//2 327//2
f 327//2 379//2 378//2
f 327//2 378//2 328//2
f 328//2 378//2 377//2
f 328//2 377//2 329//2
f 329//2 377//2 376//2
f 329//2 376//2 330//2
f 330//2 376//2 375//2
f 330//2 375//2 331//2
f 331//2 375//2 374//2
f 331//2 374//2 332//2
f 332//2 374//2 373//2
f 332//2 373//2 333//2
f 333//2 373//2 372//2
f 333//2 372//2 334//2
f 334//2 372//2 371//2
f 334//2 371//2 335//2
f 335//2 371//2 370//2
f 335//2 370//2 336//2
f 336//2 370//2 369//2
f 336//2 369//2 337//2
f 337//2 369//2 368//2
f 337//2 368//2 338//2
f 338//2 368//2 367//2
f 338//2 367//2 339//2
f 339//2 367//2 366//2
f 339//2 366//2 340//2
f 340//2 366//2 365//2
f 340//2 365//2 341//2
f 341//2 365//2 364//2
f 341//2 364//2 342//2
f 342//2 364//2 363//2
f 342//2 363//2 343//2
f 343//2 363//2 362//2
f 343//2 362//2 344//2
f 344//2 362//2 361//2
f 344//2 361//2 345//2
f 345//2 361//2 360//2
f 345//2 360//2 346//2
f 346//2 360//2 359//2
f 346//2 359//2 347//2
f 347//2 359//2 358//2
f 347//2 358//2 348//2
f 348//2 358//2 357//2
f 348//2 357//2 349//2
f 349//2 357//2 356//2
f 349//2 356//2 350//2
f 350//2 356//2 355//2
f 350//2 355//2 351//2
f 351//2 355//2 354//2
f 351//2 354//2 352//2
f 352//2 354//2 353//2
f 387//2 452//2 388//2
f 388//2 452//2 451//2
f 388//2 451//2 389//2
f 389//2 451//2 450//2
f 389//2 450//2 390//2
f 390//2 450//2 449//2
f 390//2 449//2 391//2
f 391//2 449//2 448//2
f 391//2 448//2 392//2
f 392//2 448//2 447//2
f 392//2 447//2 393//2
f 393//2 447//2 446//2
f 393//2 446//2 394//2
f 394//2 446//2 445//2
f 394//2 445//2 395//2
f 395//2 445//2 444//2
f 395//2 444//2 396//2
f 396//2 444//2 443//2
f 396//2 443//2 397//2
f 397//2 443//2 442//2
f 397//2 442//2 398//2
f 398//2 442//2 441//2
f 398//2 441//2 399//2
f 399//2 441//2 440//2
f 399//2 440//2 400//2
f 400//2 440//2 439//2
f 400//2 439//2 401//2
f 401//2 439//2 438//2
f 401//2 438//2 402//2
f 402//2 438//2 437//2
f 402//2 437//2 403//2
f 403//2 437//2 436//2
f 403//2 436//2 404//2
f 404//2 436//2 435//2
f 404//2 435//2 405//2
f 405//2 435//2 434//2
f 405//2 434//2 406//2
f 406//2 434//2 433//2
f 406//2 433//2 407//2
f 407//2 433//2 432//2
f 407//2 432//2 408//2
f 408//2 432//2 431//2
f 408//2 431//2 409//2
f 409//2 431//2 430//2
f 409//2 430//2 410//2
f 410//2 430//2 429//2
f 410//2 429//2 411//2
f 411//2 429//2 428//2
f 411//2 428//2 412//2
f 412//2 428//2 427//2
f 412//2 427//2 413//2
f 413//2 427//2 426//2
f 413//2 426//2 414//2
f 414//2 426//2 425//2
f 414//2 425//2 415//2
f 415//2 425//2 424//2
f 415//2 424//2 416//2
f 416//2 424//2 423//2
f 416//2 423//2 417//2
f 417//2 423//2 422//2
f 417//2 422//2 418//2
f 418//2 422//2 421//2
f 418//2 421//2 419//2
f 419//2 421//2 420//2
f 588//1 454//1 587//1
f 587//1 454//1 453//1
f 587//1 453//1 586//1
f 589//1 457//1 588//1
f 588//1 457//1 456//1
f 588//1 456//1 455//1
f 590//1 460//1 589//1
f 589//1 460//1 459//1
f 589//1 459//1 458//1
f 591//1 462//1 590//1
f 590//1 462//1 461//1
f 590//1 461//1 460//1
f 592//1 465//1 591//1
f 591//1 465//1 464//1
f 591//1 464//1 463//1
f 593//1 468//1 592//1
f 592//1 468//1 467//1
f 592//1 467//1 466//1
f 594//1 470//1 593//1
f 593//1 470//1 469//1
f 593//1 469//1 468//1
f 595//1 473//1 594//1
f 594//1 473//1 472//1
f 594//1 472//1 471//1
f 596//1 476//1 595//1
f 595//1 476//1 475//1
f 595//1 475//1 474//1
f 597//1 478//1 596//1
f 596//1 478//1 477//1
f 596//1 477//1 476//1
f 598//1 481//1 597//1
f 597//1 481//1 480//1
f 597//1 480//1 479//1
f 599//1 484//1 598//1
f 598//1 484//1 483//1
f 598//1 483//1 482//1
f 600//1 486//1 599//1
f 599//1 486//1 485//1
f 599//1 485//1 484//1
f 601//1 489//1 600//1
f 600//1 489//1 488//1
f 600//1 488//1 487//1
f 602//1 512//1 601//1
f 601//1 512//1 511//1
f 601//1 511//1 510//1
f 603//1 515//1 602//1
f 602//1 515//1 514//1
f 602//1 514//1 513//1
f 603//1 604//1 515//1
f 515//1 604//1 605//1
f 515//1 605//1 606//1
f 606//1 607//1 515//1
f 515//1 607//1 608//1
f 515//1 608//1 609//1
f 609//1 610//1 515//1
f 515//1 610//1 516//1
f 516//1 610//1 611//1
f 516//1 611//1 517//1
f 517//1 611//1 518//1
f 518//1 611//1 519//1
f 519//1 611//1 612//1
f 519//1 612//1 520//1
f 520//1 612//1 521//1
f 521//1 612//1 613//1
f 521//1 613//1 522//1
f 522//1 613//1 523//1
f 523//1 613//1 524//1
f 524//1 613//1 614//1
f 524//1 614//1 525//1
f 525//1 614//1 526//1
f 526//1 614//1 527//1
f 527//1 614//1 615//1
f 527//1 615//1 528//1
f 528//1 615//1 529//1
f 529//1 615//1 616//1
f 529//1 616//1 530//1
f 530//1 616//1 531//1
f 531//1 616//1 532//1
f 532//1 616//1 617//1
f 532//1 617//1 533//1
f 533//1 617//1 534//1
f 534//1 617//1 535//1
f 535//1 617//1 618//1
f 535//1 618//1 536//1
f 536//1 618//1 537//1
f 537//1 618//1 619//1
f 537//1 619//1 538//1
f 538//1 619//1 539//1
f 539//1 619//1 540//1
f 540//1 619//1 620//1
f 540//1 620//1 541//1
f 541//1 620//1 542//1
f 542//1 620//1 543//1
f 543//1 620//1 621//1
f 543//1 621//1 544//1
f 544//1 621//1 545//1
f 545//1 621//1 622//1
f 545//1 622//1 546//1
f 546//1 622//1 547//1
f 547//1 622//1 548//1
f 548//1 622//1 623//1
f 548//1 623//1 549//1
f 549//1 623//1 550//1
f 550//1 623//1 551//1
f 551//1 623//1 624//1
f 551//1 624//1 552//1
f 552//1 624//1 553//1
f 553//1 624//1 625//1
f 553//1 625//1 554//1
f 554//1 625//1 555//1
f 555//1 625//1 556//1
f 556//1 625//1 557//1
f 557//1 625//1 558//1
f 558//1 625//1 559//1
f 559//1 625//1 560//1
f 560//1 625//1 561//1
f 561//1 625//1 562//1
f 562//1 625//1 563//1
f 563//1 625//1 564//1
f 564//1 625//1 565//1
f 565//1 625//1 566//1
f 566//1 625//1 567//1
f 567//1 625//1 568//1
f 568//1 625//1 569//1
f 569//1 625//1 570//1
f 570//1 625//1 571//1
f 571//1 625//1 572//1
f 572//1 625//1 573//1
f 573//1 625//1 574//1
f 574//1 625//1 575//1
f 575//1 625//1 576//1
f 576//1 625//1 577//1
f 577//1 625//1 578//1
f 578//1 625//1 579//1
f 579//1 625//1 580//1
f 580//1 625//1 581//1
f 581//1 625//1 582//1
f 582//1 625//1 583//1
f 583//1 625//1 584//1
f 584//1 625//1 626//1
f 584//1 626//1 627//1
f 627//1 628//1 584//1
f 584//1 628//1 629//1
f 584//1 629//1 630//1
f 630//1 631//1 584//1
f 584//1 631//1 632//1
f 584//1 632//1 633//1
f 633//1 634//1 584//1
f 584//1 634//1 635//1
f 584//1 635//1 636//1
f 587//1 586//1 636//1
f 636//1 586//1 585//1
f 636//1 585//1 584//1
f 513//1 512//1 602//1
f 510//1 509//1 601//1
f 601//1 509//1 508//1
f 601//1 508//1 507//1
f 507//1 506//1 601//1
f 601//1 506//1 505//1
f 601//1 505//1 504//1
f 504//1 503//1 601//1
f 601//1 503//1 502//1
f 601//1 502//1 501//1
f 501//1 500//1 601//1
f 601//1 500//1 499//1
f 601//1 499//1 498//1
f 498//1 497//1 601//1
f 601//1 497//1 496//1
f 601//1 496//1 495//1
f 495//1 494//1 601//1
f 601//1 494//1 493//1
f 601//1 493//1 492//1
f 492//1 491//1 601//1
f 601//1 491//1 490//1
f 601//1 490//1 489//1
f 487//1 486//1 600//1
f 482//1 481//1 598//1
f 479//1 478//1 597//1
f 474//1 473//1 595//1
f 471//1 470//1 594//1
f 466//1 465//1 592//1
f 463//1 462//1 591//1
f 458//1 457//1 589//1
f 455//1 454//1 588//1
f 318//3 588//3 269//3
f 269//3 588//3 587//3
f 269//4 587//4 270//4
f 270//4 587//4 636//4
f 270//5 636//5 271//5
f 271//5 636//5 635//5
f 271//6 635//6 272//6
f 272//6 635//6 634//6
f 272//7 634//7 273//7
f 273//7 634//7 633//7
f 273//8 633//8 274//8
f 274//8 633//8 632//8
f 274//9 632//9 275//9
f 275//9 632//9 631//9
f 275//10 631//10 276//10
f 276//10 631//10 630//10
f 276//11 630//11 277//11
f 277//11 630//11 629//11
f 277//12 629//12 278//12
f 278//13 629//13 628//13
f 278//14 628//14 279//14
f 279//14 628//14 627//14
f 279//15 627//15 280//15
f 280//15 627//15 626//15
f 280//16 626//16 281//16
f 281//16 626//16 625//16
f 281//17 625//17 282//17
f 282//17 625//17 624//17
f 282//18 624//18 283//18
f 283//18 624//18 623//18
f 283//19 623//19 284//19
f 284//19 623//19 622//19
f 284//20 622//20 285//20
f 285//20 622//20 621//20
f 285//21 621//21 286//21
f 286//22 621//22 620//22
f 286//23 620//23 287//23
f 287//23 620//23 619//23
f 287//24 619//24 288//24
f 288//24 619//24 618//24
f 288//25 618//25 289//25
f 289//25 618//25 617//25
f 289//26 617//26 290//26
f 290//26 617//26 616//26
f 290//27 616//27 291//27
f 291//27 616//27 615//27
f 291//28 615//28 292//28
f 292//28 615//28 614//28
f 292//29 614//29 293//29
f 293//29 614//29 613//29
f 293//30 613//30 294//30
f 294//30 613//30 612//30
f 294//31 612//31 295//31
f 295//31 612//31 611//31
f 295//32 611//32 296//32
f 296//32 611//32 610//32
f 296//33 610//33 297//33
f 297//33 610//33 609//33
f 297//34 609//34 298//34
f 298//34 609//34 608//34
f 298//35 608//35 299//35
f 299//35 608//35 607//35
f 299//36 607//36 300//36
f 300//36 607//36 606//36
f 300//37 606//37 301//37
f 301//37 606//37 605//37
f 301//38 605//38 302//38
f 302//38 605//38 604//38
f 302//39 604//39 303//39
f 303//39 604//39 603//39
f 303//40 603//40 304//40
f 304//40 603//40 602//40
f 304//41 602//41 305//41
f 305//41 602//41 601//41
f 305//42 601//42 306//42
f 306//42 601//42 600//42
f 306//43 600//43 307//43
f 307//43 600//43 599//43
f 307//44 599//44 308//44
f 308//44 599//44 598//44
f 308//45 598//45 309//45
f 309//45 598//45 597//45
f 309//46 597//46 310//46
f 310//46 597//46 596//46
f 310//47 596//47 311//47
f 311//47 596//47 595//47
f 311//48 595//48 312//48
f 312//48 595//48 594//48
f 312//49 594//49 313//49
f 313//49 594//49 593//49
f 313//50 593//50 314//50
f 314//50 593//50 592//50
f 314//51 592//51 315//51
f 315//51 592//51 591//51
f 315//52 591//52 316//52
f 316//52 591//52 590//52
f 316//53 590//53 317//53
f 317//53 590//53 589//53
f 317//54 589//54 318//54
f 318//54 589//54 588//54
