# Blender 4.0.2
# www.blender.org
o diff_wheel__m0
v 71.995438 3.903482 -14.949997
v 71.995438 -3.903476 -14.949997
v 71.151360 11.664673 -14.949997
v 71.151360 -11.664667 -14.949997
v 69.473091 19.289114 -14.949997
v 69.473091 -19.289106 -14.949997
v 66.980324 26.687405 -14.949997
v 66.980324 -26.687397 -14.949997
v 63.702259 33.772804 -14.949997
v 63.702259 -33.772797 -14.949997
v 59.677349 40.462254 -14.949997
v 59.677349 -40.462246 -14.949997
v 54.952778 46.677315 -14.949997
v 54.952785 -46.677307 -14.949997
v 54.895679 3.385852 -14.949997
v 54.895679 -3.385848 -14.949997
v 54.063519 10.106222 -14.949998
v 54.063519 -10.106218 -14.949998
v 52.411812 16.673403 -14.949998
v 52.411812 -16.673399 -14.949998
v 49.965591 22.987822 -14.949998
v 49.965591 -22.987818 -14.949998
v 49.583935 52.345135 -14.949998
v 49.583942 -52.345127 -14.949998
v 46.761940 28.953772 -14.949998
v 46.761940 -28.953768 -14.949998
v 43.633778 57.399250 -14.949998
v 43.633785 -57.399250 -14.949998
v 42.849430 34.480808 -14.949998
v 42.849430 -34.480808 -14.949998
v 38.287369 39.485161 -14.949998
v 38.287369 -39.485161 -14.949998
v 37.172035 61.780411 -14.949998
v 37.172043 -61.780411 -14.949998
v 33.144897 43.890949 -14.949998
v 33.144905 -43.890949 -14.949998
v 30.274498 65.437271 -14.949999
v 30.274502 -65.437271 -14.949999
v 27.499998 47.631401 -14.949999
v 27.500002 -47.631401 -14.949999
v 23.022017 68.326912 -14.949999
v 23.022024 -68.326912 -14.949999
v 21.438217 50.649799 -14.949999
v 21.438221 -50.649799 -14.949999
v 15.499619 70.415489 -14.949999
v 15.499624 -70.415489 -14.949999
v 15.051459 52.900410 -14.949999
v 15.051463 -52.900410 -14.949999
v 8.436540 54.349098 -14.950000
v 8.436543 -54.349098 -14.950000
v 7.795506 71.678520 -14.950000
v 7.795513 -71.678520 -14.950000
v 1.693726 54.973911 -14.950000
v 1.693731 -54.973911 -14.950000
v -0.000002 72.101181 -14.950000
v 0.000004 -72.101181 -14.950000
v -5.074762 54.765381 -14.950000
v -5.074757 -54.765381 -14.950000
v -7.795512 71.678520 -14.950000
v -7.795505 -71.678520 -14.950000
v -11.766321 53.726662 -14.950001
v -11.766317 -53.726662 -14.950001
v -15.499622 70.415489 -14.950001
v -15.499617 -70.415489 -14.950001
v -18.279522 51.873489 -14.950001
v -18.279518 -51.873489 -14.950001
v -23.022024 68.326912 -14.950001
v -23.022017 -68.326912 -14.950001
v -24.515612 49.233978 -14.950001
v -24.515608 -49.233978 -14.950001
v -30.274502 65.437271 -14.950001
v -30.274498 -65.437271 -14.950001
v -30.380072 45.848129 -14.950001
v -30.380068 -45.848129 -14.950001
v -35.784000 41.767269 -14.950002
v -35.784000 -41.767269 -14.950002
v -37.172043 61.780411 -14.950002
v -37.172035 -61.780411 -14.950002
v -40.645489 37.053261 -14.950002
v -40.645489 -37.053261 -14.950002
v -43.633785 57.399250 -14.950002
v -43.633778 -57.399250 -14.950002
v -44.890831 31.777557 -14.950002
v -44.890831 -31.777561 -14.950002
v -48.455669 26.020147 -14.950002
v -48.455669 -26.020151 -14.950002
v -49.583942 52.345127 -14.950002
v -49.583935 -52.345135 -14.950002
v -51.285969 19.868288 -14.950002
v -51.285969 -19.868292 -14.950002
v -53.338829 13.415248 -14.950002
v -53.338829 -13.415252 -14.950002
v -54.583130 6.758853 -14.950003
v -54.583130 -6.758858 -14.950003
v -54.952785 46.677307 -14.950003
v -54.952778 -46.677315 -14.950003
v -55.000000 -0.000002 -14.950003
v -59.677349 40.462246 -14.950003
v -59.677349 -40.462254 -14.950003
v -63.702259 33.772797 -14.950003
v -63.702259 -33.772804 -14.950003
v -66.980324 26.687397 -14.950003
v -66.980324 -26.687405 -14.950003
v -69.473091 19.289106 -14.950003
v -69.473091 -19.289114 -14.950003
v -71.151360 11.664667 -14.950003
v -71.151360 -11.664673 -14.950003
v -71.995438 3.903476 -14.950003
v -71.995438 -3.903482 -14.950003
v 73.270279 -1.951182 -11.549757
v 73.062592 5.848026 -11.549757
v 72.647789 -9.728281 -11.549757
v 72.027061 13.580973 -11.549757
v 71.202171 -17.395157 -11.549757
v 70.175453 21.160044 -11.549757
v 68.949806 -24.864937 -11.549757
v 67.528717 28.499363 -11.549757
v 65.916206 -32.052986 -11.549757
v 64.116859 35.515762 -11.549757
v 62.135761 -38.877857 -11.549757
v 59.978531 42.129765 -11.549757
v 57.651283 -45.262238 -11.549757
v 55.160618 48.266415 -11.549757
v 52.513596 -51.133778 -11.549758
v 49.717716 53.856194 -11.549758
v 46.780914 -56.425945 -11.549758
v 43.711487 58.835754 -11.549758
v 40.518173 -61.078789 -11.549758
v 37.209995 63.148682 -11.549758
v 33.796352 -65.039581 -11.549758
v 30.286905 66.746117 -11.549759
v 26.691614 -68.263451 -11.549759
v 23.020647 69.587288 -11.549759
v 19.284433 -70.713882 -11.549759
v 15.493548 71.640007 -11.549759
v 11.658764 -72.363068 -11.549759
v 7.790911 72.881020 -11.549760
v 3.900990 -73.192383 -11.549760
v -0.000003 73.296257 -11.549760
v -3.900982 -73.192383 -11.549760
v -7.790917 72.881020 -11.549760
v -11.658756 -72.363068 -11.549761
v -15.493552 71.640007 -11.549761
v -19.284426 -70.713882 -11.549761
v -23.020655 69.587288 -11.549761
v -26.691607 -68.263451 -11.549761
v -30.286913 66.746117 -11.549761
v -33.796345 -65.039581 -11.549762
v -37.210003 63.148682 -11.549762
v -40.518166 -61.078789 -11.549762
v -43.711494 58.835747 -11.549762
v -46.780907 -56.425953 -11.549762
v -49.717724 53.856186 -11.549762
v -52.513588 -51.133785 -11.549762
v -55.160625 48.266407 -11.549763
v -57.651276 -45.262245 -11.549763
v -59.978531 42.129757 -11.549763
v -62.135761 -38.877865 -11.549763
v -64.116859 35.515755 -11.549763
v -65.916206 -32.052994 -11.549763
v -67.528717 28.499355 -11.549763
v -68.949806 -24.864944 -11.549763
v -70.175453 21.160036 -11.549763
v -71.202171 -17.395164 -11.549763
v -72.027061 13.580967 -11.549763
v -72.647789 -9.728287 -11.549763
v -73.062592 5.848020 -11.549763
v -73.270279 -1.951188 -11.549763
v 74.545341 -1.985136 -5.837369
v 74.334038 5.949794 -5.837369
v 73.912033 -9.897577 -5.837369
v 73.280502 13.817313 -5.837369
v 72.441254 -17.697866 -5.837369
v 71.396652 21.528275 -5.837369
v 70.149681 -25.297636 -5.837370
v 68.703873 28.995314 -5.837370
v 67.063301 -32.610775 -5.837370
v 65.232643 36.133812 -5.837370
v 63.217060 -39.554424 -5.837370
v 61.022282 42.862915 -5.837370
v 58.654545 -46.049896 -5.837370
v 56.120525 49.106365 -5.837370
v 53.427452 -52.023617 -5.837370
v 50.582905 54.793415 -5.837370
v 47.595005 -57.407887 -5.837371
v 44.472168 59.859634 -5.837371
v 41.223286 -62.141689 -5.837371
v 37.857536 64.247612 -5.837371
v 34.384483 -66.171417 -5.837371
v 30.813955 67.907654 -5.837371
v 27.156103 -69.451393 -5.837372
v 23.421257 70.798271 -5.837372
v 19.620024 -71.944450 -5.837372
v 15.763177 72.886711 -5.837372
v 11.861653 -73.622360 -5.837372
v 7.926490 74.149307 -5.837372
v 3.968876 -74.466080 -5.837373
v -0.000003 74.571770 -5.837373
v -3.968868 -74.466080 -5.837373
v -7.926496 74.149307 -5.837373
v -11.861648 -73.622360 -5.837373
v -15.763183 72.886711 -5.837373
v -19.620016 -71.944450 -5.837374
v -23.421265 70.798271 -5.837374
v -27.156096 -69.451393 -5.837374
v -30.813963 67.907654 -5.837374
v -34.384476 -66.171417 -5.837374
v -37.857544 64.247612 -5.837374
v -41.223278 -62.141689 -5.837375
v -44.472176 59.859627 -5.837375
v -47.594997 -57.407894 -5.837375
v -50.582912 54.793407 -5.837375
v -53.427444 -52.023624 -5.837375
v -56.120533 49.106358 -5.837375
v -58.654537 -46.049904 -5.837375
v -61.022282 42.862907 -5.837376
v -63.217060 -39.554432 -5.837376
v -65.232643 36.133804 -5.837376
v -67.063301 -32.610783 -5.837376
v -68.703873 28.995306 -5.837376
v -70.149681 -25.297644 -5.837376
v -71.396652 21.528267 -5.837376
v -72.441254 -17.697874 -5.837376
v -73.280502 13.817307 -5.837376
v -73.912033 -9.897583 -5.837376
v -74.334038 5.949788 -5.837376
v -74.545341 -1.985142 -5.837376
v 74.973419 -1.996536 0.000003
v 74.760910 5.983961 0.000003
v 74.336472 -9.954413 0.000003
v 73.701309 13.896653 0.000003
v 72.857239 -17.799496 0.000003
v 71.806664 21.651903 0.000003
v 70.552521 -25.442917 0.000003
v 69.098396 29.161814 0.000003
v 67.448410 -32.798046 0.000003
v 65.607231 36.341312 0.000003
v 63.580078 -39.781567 0.000003
v 61.372711 43.109055 0.000003
v 58.991364 -46.314335 0.000003
v 56.442806 49.388355 0.000002
v 53.734264 -52.322357 0.000002
v 50.873386 55.108063 0.000002
v 47.868313 -57.737545 0.000002
v 44.727547 60.203373 0.000002
v 41.460003 -62.498550 0.000002
v 38.074924 64.616562 0.000002
v 34.581944 -66.551407 0.000002
v 30.990906 68.297607 0.000001
v 27.312044 -69.850212 0.000001
v 23.555746 71.204819 0.000001
v 19.732695 -72.357590 0.000001
v 15.853697 73.305252 0.000001
v 11.929763 -74.045128 0.000001
v 7.972009 74.575111 0.000000
v 3.991666 -74.893700 0.000000
v -0.000003 75.000000 0.000000
v -3.991660 -74.893700 0.000000
v -7.972015 74.575111 0.000000
v -11.929757 -74.045128 -0.000001
v -15.853703 73.305252 -0.000001
v -19.732687 -72.357590 -0.000001
v -23.555754 71.204819 -0.000001
v -27.312037 -69.850212 -0.000001
v -30.990913 68.297607 -0.000001
v -34.581936 -66.551407 -0.000002
v -38.074932 64.616562 -0.000002
v -41.459995 -62.498550 -0.000002
v -44.727554 60.203365 -0.000002
v -47.868305 -57.737553 -0.000002
v -50.873394 55.108055 -0.000002
v -53.734257 -52.322365 -0.000002
v -56.442814 49.388348 -0.000002
v -58.991356 -46.314342 -0.000003
v -61.372711 43.109047 -0.000003
v -63.580078 -39.781574 -0.000003
v -65.607231 36.341305 -0.000003
v -67.448410 -32.798054 -0.000003
v -69.098396 29.161806 -0.000003
v -70.552521 -25.442924 -0.000003
v -71.806664 21.651896 -0.000003
v -72.857239 -17.799503 -0.000003
v -73.701309 13.896647 -0.000003
v -74.336472 -9.954419 -0.000003
v -74.760910 5.983954 -0.000003
v -74.973419 -1.996542 -0.000003
v 74.545341 -1.985136 5.837376
v 74.334038 5.949794 5.837376
v 73.912033 -9.897577 5.837376
v 73.280502 13.817313 5.837376
v 72.441254 -17.697866 5.837376
v 71.396652 21.528275 5.837376
v 70.149681 -25.297636 5.837376
v 68.703873 28.995314 5.837376
v 67.063301 -32.610775 5.837376
v 65.232643 36.133812 5.837376
v 63.217060 -39.554424 5.837376
v 61.022282 42.862915 5.837376
v 58.654545 -46.049896 5.837375
v 56.120525 49.106365 5.837375
v 53.427452 -52.023617 5.837375
v 50.582905 54.793415 5.837375
v 47.595005 -57.407887 5.837375
v 44.472168 59.859634 5.837375
v 41.223286 -62.141689 5.837375
v 37.857536 64.247612 5.837374
v 34.384483 -66.171417 5.837374
v 30.813955 67.907654 5.837374
v 27.156103 -69.451393 5.837374
v 23.421257 70.798271 5.837374
v 19.620024 -71.944450 5.837374
v 15.763177 72.886711 5.837373
v 11.861653 -73.622360 5.837373
v 7.926489 74.149307 5.837373
v 3.968875 -74.466080 5.837373
v -0.000004 74.571770 5.837373
v -3.968869 -74.466080 5.837373
v -7.926497 74.149307 5.837372
v -11.861648 -73.622360 5.837372
v -15.763183 72.886711 5.837372
v -19.620016 -71.944450 5.837372
v -23.421265 70.798271 5.837372
v -27.156096 -69.451393 5.837372
v -30.813963 67.907654 5.837371
v -34.384476 -66.171417 5.837371
v -37.857544 64.247612 5.837371
v -41.223278 -62.141689 5.837371
v -44.472176 59.859627 5.837371
v -47.594997 -57.407894 5.837371
v -50.582912 54.793407 5.837370
v -53.427444 -52.023624 5.837370
v -56.120533 49.106358 5.837370
v -58.654537 -46.049904 5.837370
v -61.022282 42.862907 5.837370
v -63.217060 -39.554432 5.837370
v -65.232643 36.133804 5.837370
v -67.063301 -32.610783 5.837370
v -68.703873 28.995306 5.837370
v -70.149681 -25.297644 5.837370
v -71.396652 21.528267 5.837369
v -72.441254 -17.697874 5.837369
v -73.280502 13.817307 5.837369
v -73.912033 -9.897583 5.837369
v -74.334038 5.949788 5.837369
v -74.545341 -1.985142 5.837369
v 73.270279 -1.951182 11.549763
v 73.062592 5.848026 11.549763
v 72.647789 -9.728281 11.549763
v 72.027061 13.580973 11.549763
v 71.202171 -17.395157 11.549763
v 70.175453 21.160044 11.549763
v 68.949806 -24.864937 11.549763
v 67.528717 28.499363 11.549763
v 65.916206 -32.052986 11.549763
v 64.116859 35.515762 11.549763
v 62.135761 -38.877857 11.549763
v 59.978531 42.129765 11.549763
v 57.651283 -45.262238 11.549763
v 55.160618 48.266415 11.549763
v 52.513596 -51.133778 11.549762
v 49.717716 53.856194 11.549762
v 46.780914 -56.425945 11.549762
v 43.711487 58.835754 11.549762
v 40.518173 -61.078789 11.549762
v 37.209995 63.148682 11.549762
v 33.796352 -65.039581 11.549762
v 30.286905 66.746117 11.549761
v 26.691614 -68.263451 11.549761
v 23.020647 69.587288 11.549761
v 19.284433 -70.713882 11.549761
v 15.493546 71.640007 11.549761
v 11.658762 -72.363068 11.549761
v 7.790910 72.881020 11.549760
v 3.900989 -73.192383 11.549760
v -0.000004 73.296257 11.549760
v -3.900983 -73.192383 11.549760
v -7.790918 72.881020 11.549760
v -11.658758 -72.363068 11.549759
v -15.493554 71.640007 11.549759
v -19.284426 -70.713882 11.549759
v -23.020655 69.587288 11.549759
v -26.691607 -68.263451 11.549759
v -30.286913 66.746117 11.549759
v -33.796345 -65.039581 11.549758
v -37.210003 63.148682 11.549758
v -40.518166 -61.078789 11.549758
v -43.711494 58.835747 11.549758
v -46.780907 -56.425953 11.549758
v -49.717724 53.856186 11.549758
v -52.513588 -51.133785 11.549758
v -55.160625 48.266407 11.549757
v -57.651276 -45.262245 11.549757
v -59.978531 42.129757 11.549757
v -62.135761 -38.877865 11.549757
v -64.116859 35.515755 11.549757
v -65.916206 -32.052994 11.549757
v -67.528717 28.499355 11.549757
v -68.949806 -24.864944 11.549757
v -70.175453 21.160036 11.549757
v -71.202171 -17.395164 11.549757
v -72.027061 13.580967 11.549757
v -72.647789 -9.728287 11.549757
v -73.062592 5.848020 11.549757
v -73.270279 -1.951188 11.549757
v 71.995438 3.903482 14.950003
v 71.995438 -3.903476 14.950003
v 71.151360 11.664673 14.950003
v 71.151360 -11.664667 14.950003
v 69.473091 19.289114 14.950003
v 69.473091 -19.289106 14.950003
v 66.980324 26.687405 14.950003
v 66.980324 -26.687397 14.950003
v 63.702259 33.772804 14.950003
v 63.702259 -33.772797 14.950003
v 59.677349 40.462254 14.950003
v 59.677349 -40.462246 14.950003
v 54.952778 46.677315 14.950003
v 54.952785 -46.677307 14.950003
v 54.895679 3.385852 14.950003
v 54.895679 -3.385848 14.950003
v 54.063519 10.106222 14.950002
v 54.063519 -10.106218 14.950002
v 52.411812 16.673403 14.950002
v 52.411812 -16.673399 14.950002
v 49.965591 22.987822 14.950002
v 49.965591 -22.987818 14.950002
v 49.583935 52.345135 14.950002
v 49.583942 -52.345127 14.950002
v 46.761940 28.953772 14.950002
v 46.761940 -28.953768 14.950002
v 43.633778 57.399250 14.950002
v 43.633785 -57.399250 14.950002
v 42.849430 34.480808 14.950002
v 42.849430 -34.480808 14.950002
v 38.287369 39.485161 14.950002
v 38.287369 -39.485161 14.950002
v 37.172035 61.780411 14.950002
v 37.172043 -61.780411 14.950002
v 33.144897 43.890949 14.950002
v 33.144905 -43.890949 14.950002
v 30.274498 65.437271 14.950001
v 30.274502 -65.437271 14.950001
v 27.499998 47.631401 14.950001
v 27.500002 -47.631401 14.950001
v 23.022017 68.326912 14.950001
v 23.022024 -68.326912 14.950001
v 21.438217 50.649799 14.950001
v 21.438221 -50.649799 14.950001
v 15.499617 70.415489 14.950001
v 15.499622 -70.415489 14.950001
v 15.051457 52.900410 14.950001
v 15.051461 -52.900410 14.950001
v 8.436538 54.349098 14.950000
v 8.436542 -54.349098 14.950000
v 7.795505 71.678520 14.950000
v 7.795512 -71.678520 14.950000
v 1.693725 54.973911 14.950000
v 1.693730 -54.973911 14.950000
v -0.000004 72.101181 14.950000
v 0.000002 -72.101181 14.950000
v -5.074763 54.765381 14.950000
v -5.074758 -54.765381 14.950000
v -7.795513 71.678520 14.950000
v -7.795506 -71.678520 14.950000
v -11.766323 53.726662 14.949999
v -11.766319 -53.726662 14.949999
v -15.499624 70.415489 14.949999
v -15.499619 -70.415489 14.949999
v -18.279522 51.873489 14.949999
v -18.279518 -51.873489 14.949999
v -23.022024 68.326912 14.949999
v -23.022017 -68.326912 14.949999
v -24.515612 49.233978 14.949999
v -24.515608 -49.233978 14.949999
v -30.274502 65.437271 14.949999
v -30.274498 -65.437271 14.949999
v -30.380072 45.848129 14.949999
v -30.380068 -45.848129 14.949999
v -35.784000 41.767269 14.949998
v -35.784000 -41.767269 14.949998
v -37.172043 61.780411 14.949998
v -37.172035 -61.780411 14.949998
v -40.645489 37.053261 14.949998
v -40.645489 -37.053261 14.949998
v -43.633785 57.399250 14.949998
v -43.633778 -57.399250 14.949998
v -44.890831 31.777557 14.949998
v -44.890831 -31.777561 14.949998
v -48.455669 26.020147 14.949998
v -48.455669 -26.020151 14.949998
v -49.583942 52.345127 14.949998
v -49.583935 -52.345135 14.949998
v -51.285969 19.868288 14.949998
v -51.285969 -19.868292 14.949998
v -53.338829 13.415248 14.949998
v -53.338829 -13.415252 14.949998
v -54.583130 6.758853 14.949997
v -54.583130 -6.758858 14.949997
v -54.952785 46.677307 14.949997
v -54.952778 -46.677315 14.949997
v -55.000000 -0.000002 14.949997
v -59.677349 40.462246 14.949997
v -59.677349 -40.462254 14.949997
v -63.702259 33.772797 14.949997
v -63.702259 -33.772804 14.949997
v -66.980324 26.687397 14.949997
v -66.980324 -26.687405 14.949997
v -69.473091 19.289106 14.949997
v -69.473091 -19.289114 14.949997
v -71.151360 11.664667 14.949997
v -71.151360 -11.664673 14.949997
v -71.995438 3.903476 14.949997
v -71.995438 -3.903482 14.949997
vn 0.0511 0.9416 0.3329
vn 0.0502 0.9422 0.3312
vn -0.0502 0.9422 0.3312
vn -0.0519 0.9746 0.2176
vn -0.0531 0.9959 0.0731
vn -0.0531 0.9959 -0.0731
vn -0.0519 0.9746 -0.2176
vn -0.0502 0.9422 -0.3312
vn -0.0511 0.9416 -0.3329
vn 0.1502 0.9322 0.3295
vn 0.1525 0.9299 0.3346
vn 0.2486 0.9115 0.3278
vn 0.2519 0.9074 0.3363
vn 0.3442 0.8804 0.3262
vn 0.3484 0.8744 0.3378
vn 0.4361 0.8393 0.3247
vn 0.4406 0.8311 0.3394
vn 0.5231 0.7886 0.3232
vn 0.5276 0.7781 0.3408
vn 0.6043 0.7289 0.3217
vn 0.6083 0.7162 0.3422
vn 0.6787 0.6609 0.3204
vn 0.6818 0.6459 0.3435
vn 0.7454 0.5852 0.3191
vn 0.7473 0.5681 0.3448
vn 0.8038 0.5029 0.3178
vn 0.8039 0.4837 0.3460
vn 0.8530 0.4148 0.3166
vn 0.8511 0.3938 0.3471
vn 0.8927 0.3219 0.3155
vn 0.8884 0.2993 0.3482
vn 0.9222 0.2253 0.3144
vn 0.9151 0.2014 0.3492
vn 0.9412 0.1260 0.3134
vn 0.9312 0.1013 0.3502
vn 0.9496 0.0253 0.3125
vn 0.9364 -0.0000 0.3511
vn 0.9472 -0.0758 0.3116
vn 0.9306 -0.1012 0.3519
vn 0.9340 -0.1761 0.3108
vn 0.9139 -0.2012 0.3527
vn 0.9103 -0.2745 0.3100
vn 0.8865 -0.2987 0.3534
vn 0.8761 -0.3698 0.3093
vn 0.8488 -0.3927 0.3540
vn 0.8321 -0.4609 0.3086
vn 0.8012 -0.4820 0.3546
vn 0.7785 -0.5468 0.3081
vn 0.7442 -0.5657 0.3552
vn 0.7161 -0.6266 0.3075
vn 0.6785 -0.6427 0.3556
vn 0.6455 -0.6993 0.3071
vn 0.6050 -0.7122 0.3561
vn 0.5676 -0.7640 0.3067
vn 0.5243 -0.7733 0.3564
vn 0.4833 -0.8201 0.3063
vn 0.4376 -0.8254 0.3567
vn 0.3934 -0.8669 0.3061
vn 0.3458 -0.8678 0.3569
vn 0.2990 -0.9039 0.3058
vn 0.2499 -0.9000 0.3571
vn 0.2013 -0.9306 0.3057
vn 0.1511 -0.9217 0.3572
vn 0.1012 -0.9468 0.3056
vn 0.0506 -0.9326 0.3573
vn -0.0000 -0.9522 0.3056
vn -0.0506 -0.9326 0.3573
vn -0.1012 -0.9468 0.3056
vn -0.1511 -0.9217 0.3572
vn -0.2013 -0.9306 0.3057
vn -0.2499 -0.9000 0.3571
vn -0.2990 -0.9039 0.3058
vn -0.3458 -0.8678 0.3569
vn -0.3934 -0.8669 0.3061
vn -0.4376 -0.8254 0.3567
vn -0.4833 -0.8201 0.3063
vn -0.5243 -0.7733 0.3564
vn -0.5676 -0.7640 0.3067
vn -0.6050 -0.7122 0.3561
vn -0.6455 -0.6993 0.3071
vn -0.6785 -0.6427 0.3556
vn -0.7161 -0.6266 0.3075
vn -0.7442 -0.5657 0.3552
vn -0.7785 -0.5468 0.3081
vn -0.8012 -0.4820 0.3546
vn -0.8321 -0.4609 0.3086
vn -0.8488 -0.3927 0.3540
vn -0.8761 -0.3698 0.3093
vn -0.8865 -0.2987 0.3534
vn -0.9103 -0.2745 0.3100
vn -0.9139 -0.2012 0.3527
vn -0.9340 -0.1761 0.3108
vn -0.9306 -0.1012 0.3519
vn -0.9472 -0.0758 0.3116
vn -0.9364 -0.0000 0.3511
vn -0.9496 0.0253 0.3125
vn -0.9312 0.1013 0.3502
vn -0.9412 0.1260 0.3134
vn -0.9151 0.2014 0.3492
vn -0.9222 0.2253 0.3144
vn -0.8884 0.2993 0.3482
vn -0.8927 0.3219 0.3155
vn -0.8511 0.3938 0.3471
vn -0.8530 0.4148 0.3166
vn -0.8039 0.4837 0.3460
vn -0.8038 0.5029 0.3178
vn -0.7473 0.5681 0.3448
vn -0.7454 0.5852 0.3191
vn -0.6818 0.6459 0.3435
vn -0.6787 0.6609 0.3204
vn -0.6083 0.7162 0.3422
vn -0.6043 0.7289 0.3217
vn -0.5276 0.7781 0.3408
vn -0.5231 0.7886 0.3232
vn -0.4406 0.8311 0.3394
vn -0.4361 0.8393 0.3247
vn -0.3484 0.8744 0.3378
vn -0.3442 0.8804 0.3262
vn -0.2519 0.9074 0.3363
vn -0.2486 0.9115 0.3278
vn -0.1525 0.9299 0.3346
vn -0.1502 0.9322 0.3295
vn -0.0511 0.9416 0.3329
vn -0.1502 0.9322 -0.3295
vn -0.1525 0.9299 -0.3346
vn -0.2486 0.9115 -0.3278
vn -0.2519 0.9074 -0.3363
vn -0.3442 0.8804 -0.3262
vn -0.3484 0.8744 -0.3378
vn -0.4361 0.8393 -0.3247
vn -0.4406 0.8311 -0.3394
vn -0.5231 0.7886 -0.3232
vn -0.5276 0.7781 -0.3408
vn -0.6043 0.7289 -0.3217
vn -0.6083 0.7162 -0.3422
vn -0.6787 0.6609 -0.3204
vn -0.6818 0.6459 -0.3435
vn -0.7454 0.5852 -0.3191
vn -0.7473 0.5681 -0.3448
vn -0.8038 0.5029 -0.3178
vn -0.8039 0.4837 -0.3460
vn -0.8530 0.4148 -0.3166
vn -0.8511 0.3938 -0.3471
vn -0.8927 0.3219 -0.3155
vn -0.8884 0.2993 -0.3482
vn -0.9222 0.2253 -0.3144
vn -0.9151 0.2014 -0.3492
vn -0.9412 0.1260 -0.3134
vn -0.9312 0.1013 -0.3502
vn -0.9496 0.0253 -0.3125
vn -0.9364 -0.0000 -0.3511
vn -0.9472 -0.0758 -0.3116
vn -0.9306 -0.1012 -0.3519
vn -0.9340 -0.1761 -0.3108
vn -0.9139 -0.2012 -0.3527
vn -0.9103 -0.2745 -0.3100
vn -0.8865 -0.2987 -0.3534
vn -0.8761 -0.3698 -0.3093
vn -0.8488 -0.3927 -0.3540
vn -0.8321 -0.4609 -0.3086
vn -0.8012 -0.4820 -0.3546
vn -0.7785 -0.5468 -0.3081
vn -0.7442 -0.5657 -0.3552
vn -0.7161 -0.6266 -0.3075
vn -0.6785 -0.6427 -0.3556
vn -0.6455 -0.6993 -0.3071
vn -0.6050 -0.7122 -0.3561
vn -0.5676 -0.7640 -0.3067
vn -0.5243 -0.7733 -0.3564
vn -0.4833 -0.8201 -0.3063
vn -0.4376 -0.8254 -0.3567
vn -0.3934 -0.8669 -0.3061
vn -0.3458 -0.8678 -0.3569
vn -0.2990 -0.9039 -0.3058
vn -0.2499 -0.9000 -0.3571
vn -0.2013 -0.9306 -0.3057
vn -0.1511 -0.9217 -0.3572
vn -0.1012 -0.9468 -0.3056
vn -0.0506 -0.9326 -0.3573
vn -0.0000 -0.9522 -0.3056
vn 0.0506 -0.9326 -0.3573
vn 0.1012 -0.9468 -0.3056
vn 0.1511 -0.9217 -0.3572
vn 0.2013 -0.9306 -0.3057
vn 0.2499 -0.9000 -0.3571
vn 0.2990 -0.9039 -0.3058
vn 0.3458 -0.8678 -0.3569
vn 0.3934 -0.8669 -0.3061
vn 0.4376 -0.8254 -0.3567
vn 0.4833 -0.8201 -0.3063
vn 0.5243 -0.7733 -0.3564
vn 0.5676 -0.7640 -0.3067
vn 0.6050 -0.7122 -0.3561
vn 0.6455 -0.6993 -0.3071
vn 0.6785 -0.6427 -0.3556
vn 0.7161 -0.6266 -0.3075
vn 0.7442 -0.5657 -0.3552
vn 0.7785 -0.5468 -0.3081
vn 0.8012 -0.4820 -0.3546
vn 0.8321 -0.4609 -0.3086
vn 0.8488 -0.3927 -0.3540
vn 0.8761 -0.3698 -0.3093
vn 0.8865 -0.2987 -0.3534
vn 0.9103 -0.2745 -0.3100
vn 0.9139 -0.2012 -0.3527
vn 0.9340 -0.1761 -0.3108
vn 0.9306 -0.1012 -0.3519
vn 0.9472 -0.0758 -0.3116
vn 0.9364 -0.0000 -0.3511
vn 0.9496 0.0253 -0.3125
vn 0.9312 0.1013 -0.3502
vn 0.9412 0.1260 -0.3134
vn 0.9151 0.2014 -0.3492
vn 0.9222 0.2253 -0.3144
vn 0.8884 0.2993 -0.3482
vn 0.8927 0.3219 -0.3155
vn 0.8511 0.3938 -0.3471
vn 0.8530 0.4148 -0.3166
vn 0.8039 0.4837 -0.3460
vn 0.8038 0.5029 -0.3178
vn 0.7473 0.5681 -0.3448
vn 0.7454 0.5852 -0.3191
vn 0.6818 0.6459 -0.3435
vn 0.6787 0.6609 -0.3204
vn 0.6083 0.7162 -0.3422
vn 0.6043 0.7289 -0.3217
vn 0.5276 0.7781 -0.3408
vn 0.5231 0.7886 -0.3232
vn 0.4406 0.8311 -0.3394
vn 0.4361 0.8393 -0.3247
vn 0.3484 0.8744 -0.3378
vn 0.3442 0.8804 -0.3262
vn 0.2519 0.9074 -0.3363
vn 0.2486 0.9115 -0.3278
vn 0.1525 0.9299 -0.3346
vn 0.1502 0.9322 -0.3295
vn 0.0511 0.9416 -0.3329
vn 0.0502 0.9422 -0.3312
vn 0.0519 0.9746 0.2176
vn 0.1552 0.9636 0.2176
vn 0.1553 0.9636 0.2176
vn 0.2568 0.9416 0.2176
vn 0.3554 0.9090 0.2176
vn 0.4500 0.8661 0.2176
vn 0.5395 0.8133 0.2176
vn 0.6229 0.7514 0.2176
vn 0.6993 0.6809 0.2176
vn 0.7677 0.6027 0.2176
vn 0.8274 0.5177 0.2176
vn 0.8778 0.4268 0.2176
vn 0.9182 0.3311 0.2176
vn 0.9481 0.2316 0.2176
vn 0.9674 0.1295 0.2176
vn 0.9757 0.0260 0.2176
vn 0.9729 -0.0779 0.2176
vn 0.9591 -0.1808 0.2176
vn 0.9345 -0.2818 0.2176
vn 0.8992 -0.3795 0.2176
vn 0.8538 -0.4729 0.2176
vn 0.7987 -0.5610 0.2176
vn 0.7345 -0.6427 0.2176
vn 0.6621 -0.7172 0.2176
vn 0.5821 -0.7835 0.2176
vn 0.4955 -0.8409 0.2176
vn 0.4033 -0.8888 0.2176
vn 0.3065 -0.9266 0.2176
vn 0.3066 -0.9266 0.2176
vn 0.2063 -0.9540 0.2176
vn 0.1037 -0.9705 0.2176
vn -0.0000 -0.9760 0.2176
vn -0.1037 -0.9705 0.2176
vn -0.2063 -0.9540 0.2176
vn -0.3065 -0.9266 0.2176
vn -0.4033 -0.8888 0.2176
vn -0.4955 -0.8409 0.2176
vn -0.5821 -0.7835 0.2176
vn -0.6621 -0.7172 0.2176
vn -0.7345 -0.6427 0.2176
vn -0.7987 -0.5610 0.2176
vn -0.8538 -0.4729 0.2176
vn -0.8992 -0.3795 0.2176
vn -0.9345 -0.2818 0.2176
vn -0.9591 -0.1808 0.2176
vn -0.9729 -0.0779 0.2176
vn -0.9757 0.0260 0.2176
vn -0.9674 0.1295 0.2176
vn -0.9481 0.2316 0.2176
vn -0.9182 0.3311 0.2176
vn -0.8778 0.4268 0.2176
vn -0.8274 0.5177 0.2176
vn -0.7677 0.6027 0.2176
vn -0.6993 0.6809 0.2176
vn -0.6229 0.7514 0.2176
vn -0.5396 0.8133 0.2176
vn -0.4500 0.8661 0.2176
vn -0.3554 0.9090 0.2176
vn -0.2568 0.9416 0.2176
vn -0.1552 0.9636 0.2176
vn -0.1553 0.9636 0.2176
vn 0.0531 0.9959 0.0731
vn 0.1586 0.9846 0.0731
vn 0.2624 0.9622 0.0731
vn 0.3632 0.9288 0.0731
vn 0.4599 0.8850 0.0731
vn 0.5513 0.8311 0.0731
vn 0.6365 0.7678 0.0731
vn 0.7145 0.6958 0.0731
vn 0.7844 0.6159 0.0731
vn 0.7845 0.6159 0.0731
vn 0.8455 0.5290 0.0731
vn 0.8969 0.4361 0.0731
vn 0.9382 0.3383 0.0731
vn 0.9688 0.2367 0.0731
vn 0.9885 0.1324 0.0731
vn 0.9970 0.0266 0.0731
vn 0.9970 0.0265 0.0731
vn 0.9941 -0.0796 0.0731
vn 0.9801 -0.1848 0.0731
vn 0.9549 -0.2879 0.0731
vn 0.9188 -0.3878 0.0731
vn 0.9189 -0.3878 0.0731
vn 0.8724 -0.4833 0.0731
vn 0.8161 -0.5733 0.0731
vn 0.7506 -0.6568 0.0731
vn 0.6765 -0.7328 0.0731
vn 0.5948 -0.8006 0.0731
vn 0.5063 -0.8593 0.0731
vn 0.4121 -0.9082 0.0731
vn 0.3132 -0.9469 0.0731
vn 0.2108 -0.9748 0.0731
vn 0.1060 -0.9917 0.0731
vn -0.0000 -0.9973 0.0731
vn -0.1060 -0.9917 0.0731
vn -0.2108 -0.9748 0.0731
vn -0.3132 -0.9469 0.0731
vn -0.4121 -0.9082 0.0731
vn -0.5063 -0.8593 0.0731
vn -0.5948 -0.8006 0.0731
vn -0.6765 -0.7328 0.0731
vn -0.7506 -0.6568 0.0731
vn -0.8161 -0.5733 0.0731
vn -0.8724 -0.4833 0.0731
vn -0.9189 -0.3878 0.0731
vn -0.9188 -0.3878 0.0731
vn -0.9549 -0.2879 0.0731
vn -0.9801 -0.1848 0.0731
vn -0.9941 -0.0796 0.0731
vn -0.9970 0.0265 0.0731
vn -0.9885 0.1324 0.0731
vn -0.9688 0.2367 0.0731
vn -0.9382 0.3383 0.0731
vn -0.8969 0.4361 0.0731
vn -0.8455 0.5290 0.0731
vn -0.7845 0.6159 0.0731
vn -0.7844 0.6159 0.0731
vn -0.7145 0.6958 0.0731
vn -0.6365 0.7678 0.0731
vn -0.5513 0.8311 0.0731
vn -0.4599 0.8850 0.0731
vn -0.3632 0.9288 0.0731
vn -0.2624 0.9622 0.0731
vn -0.1586 0.9846 0.0731
vn 0.0519 0.9746 -0.2176
vn 0.0531 0.9959 -0.0731
vn 0.1586 0.9846 -0.0731
vn 0.2624 0.9622 -0.0731
vn 0.3632 0.9288 -0.0731
vn 0.4599 0.8850 -0.0731
vn 0.5513 0.8311 -0.0731
vn 0.6365 0.7678 -0.0731
vn 0.7145 0.6958 -0.0731
vn 0.7844 0.6159 -0.0731
vn 0.8455 0.5290 -0.0731
vn 0.8969 0.4361 -0.0731
vn 0.9382 0.3383 -0.0731
vn 0.9688 0.2367 -0.0731
vn 0.9885 0.1324 -0.0731
vn 0.9970 0.0265 -0.0731
vn 0.9941 -0.0796 -0.0731
vn 0.9801 -0.1848 -0.0731
vn 0.9549 -0.2879 -0.0731
vn 0.9188 -0.3878 -0.0731
vn 0.9189 -0.3878 -0.0731
vn 0.8724 -0.4833 -0.0731
vn 0.8161 -0.5733 -0.0731
vn 0.7506 -0.6568 -0.0731
vn 0.6765 -0.7328 -0.0731
vn 0.5948 -0.8006 -0.0731
vn 0.5063 -0.8593 -0.0731
vn 0.4121 -0.9082 -0.0731
vn 0.3132 -0.9469 -0.0731
vn 0.2108 -0.9748 -0.0731
vn 0.1060 -0.9917 -0.0731
vn -0.0000 -0.9973 -0.0731
vn -0.1060 -0.9917 -0.0731
vn -0.2108 -0.9748 -0.0731
vn -0.3132 -0.9469 -0.0731
vn -0.4121 -0.9082 -0.0731
vn -0.5063 -0.8593 -0.0731
vn -0.5948 -0.8006 -0.0731
vn -0.6765 -0.7328 -0.0731
vn -0.7506 -0.6568 -0.0731
vn -0.8161 -0.5733 -0.0731
vn -0.8724 -0.4833 -0.0731
vn -0.9189 -0.3878 -0.0731
vn -0.9188 -0.3878 -0.0731
vn -0.9549 -0.2879 -0.0731
vn -0.9801 -0.1848 -0.0731
vn -0.9941 -0.0796 -0.0731
vn -0.9970 0.0265 -0.0731
vn -0.9970 0.0266 -0.0731
vn -0.9885 0.1324 -0.0731
vn -0.9688 0.2367 -0.0731
vn -0.9382 0.3383 -0.0731
vn -0.8969 0.4361 -0.0731
vn -0.8455 0.5290 -0.0731
vn -0.7845 0.6159 -0.0731
vn -0.7844 0.6159 -0.0731
vn -0.7145 0.6958 -0.0731
vn -0.6365 0.7678 -0.0731
vn -0.5513 0.8311 -0.0731
vn -0.4599 0.8850 -0.0731
vn -0.3632 0.9288 -0.0731
vn -0.2624 0.9622 -0.0731
vn -0.1586 0.9846 -0.0731
vn 0.1553 0.9636 -0.2176
vn 0.1552 0.9636 -0.2176
vn 0.2568 0.9416 -0.2176
vn 0.3554 0.9090 -0.2176
vn 0.4500 0.8661 -0.2176
vn 0.5396 0.8133 -0.2176
vn 0.5395 0.8133 -0.2176
vn 0.6229 0.7514 -0.2176
vn 0.6993 0.6809 -0.2176
vn 0.7677 0.6027 -0.2176
vn 0.8274 0.5177 -0.2176
vn 0.8778 0.4268 -0.2176
vn 0.9182 0.3311 -0.2176
vn 0.9481 0.2316 -0.2176
vn 0.9674 0.1295 -0.2176
vn 0.9757 0.0260 -0.2176
vn 0.9729 -0.0779 -0.2176
vn 0.9591 -0.1808 -0.2176
vn 0.9345 -0.2818 -0.2176
vn 0.8992 -0.3795 -0.2176
vn 0.8538 -0.4729 -0.2176
vn 0.7987 -0.5610 -0.2176
vn 0.7345 -0.6427 -0.2176
vn 0.6621 -0.7172 -0.2176
vn 0.5821 -0.7835 -0.2176
vn 0.4955 -0.8409 -0.2176
vn 0.4033 -0.8888 -0.2176
vn 0.3065 -0.9266 -0.2176
vn 0.2063 -0.9540 -0.2176
vn 0.1037 -0.9705 -0.2176
vn -0.0000 -0.9760 -0.2176
vn -0.1037 -0.9705 -0.2176
vn -0.2063 -0.9540 -0.2176
vn -0.3066 -0.9266 -0.2176
vn -0.3065 -0.9266 -0.2176
vn -0.4033 -0.8888 -0.2176
vn -0.4955 -0.8409 -0.2176
vn -0.5821 -0.7835 -0.2176
vn -0.6621 -0.7172 -0.2176
vn -0.7345 -0.6427 -0.2176
vn -0.7987 -0.5610 -0.2176
vn -0.8538 -0.4729 -0.2176
vn -0.8992 -0.3795 -0.2176
vn -0.9345 -0.2818 -0.2176
vn -0.9591 -0.1808 -0.2176
vn -0.9729 -0.0779 -0.2176
vn -0.9757 0.0260 -0.2176
vn -0.9674 0.1295 -0.2176
vn -0.9481 0.2316 -0.2176
vn -0.9182 0.3311 -0.2176
vn -0.8778 0.4268 -0.2176
vn -0.8274 0.5177 -0.2176
vn -0.7677 0.6027 -0.2176
vn -0.6993 0.6809 -0.2176
vn -0.6229 0.7514 -0.2176
vn -0.5396 0.8133 -0.2176
vn -0.4500 0.8661 -0.2176
vn -0.3554 0.9090 -0.2176
vn -0.2568 0.9416 -0.2176
vn -0.1553 0.9636 -0.2176
vn -0.1552 0.9636 -0.2176
vn -0.0000 -0.0000 -1.0000
vn -0.0000 -0.0000 1.0000
vn 0.9981 -0.0616 -0.0000
vn 0.9981 0.0616 -0.0000
vn 0.9830 0.1837 -0.0000
vn 0.9830 0.1838 -0.0000
vn 0.9529 0.3032 -0.0000
vn 0.9085 0.4180 -0.0000
vn 0.8502 0.5264 -0.0000
vn 0.7791 0.6269 -0.0000
vn 0.6961 0.7179 -0.0000
vn 0.6026 0.7980 -0.0000
vn 0.5000 0.8660 -0.0000
vn 0.3898 0.9209 -0.0000
vn 0.2737 0.9618 -0.0000
vn 0.1534 0.9882 -0.0000
vn 0.0308 0.9995 -0.0000
vn -0.0923 0.9957 -0.0000
vn -0.2139 0.9768 -0.0000
vn -0.3324 0.9432 -0.0000
vn -0.4457 0.8952 -0.0000
vn -0.5524 0.8336 -0.0000
vn -0.6506 0.7594 -0.0000
vn -0.7390 0.6737 -0.0000
vn -0.8162 0.5778 -0.0000
vn -0.8810 0.4731 -0.0000
vn -0.9325 0.3612 -0.0000
vn -0.9698 0.2439 -0.0000
vn -0.9924 0.1229 -0.0000
vn -1.0000 -0.0000 -0.0000
vn -0.9924 -0.1229 -0.0000
vn -0.9698 -0.2439 -0.0000
vn -0.9325 -0.3612 -0.0000
vn -0.8810 -0.4731 -0.0000
vn -0.8162 -0.5778 -0.0000
vn -0.7390 -0.6737 -0.0000
vn -0.6506 -0.7594 -0.0000
vn -0.5524 -0.8336 -0.0000
vn -0.4457 -0.8952 -0.0000
vn -0.3324 -0.9432 -0.0000
vn -0.2139 -0.9768 -0.0000
vn -0.0923 -0.9957 -0.0000
vn 0.0308 -0.9995 -0.0000
vn 0.1534 -0.9882 -0.0000
vn 0.2737 -0.9618 -0.0000
vn 0.3898 -0.9209 -0.0000
vn 0.5000 -0.8660 -0.0000
vn 0.6026 -0.7980 -0.0000
vn 0.6961 -0.7179 -0.0000
vn 0.7791 -0.6269 -0.0000
vn 0.8502 -0.5264 -0.0000
vn 0.9085 -0.4180 -0.0000
vn 0.9529 -0.3032 -0.0000
vn 0.9830 -0.1837 -0.0000
vn 0.9830 -0.1838 -0.0000
s 0
f 455//1 373//1 459//1
f 459//2 373//2 375//2
f 459//3 375//3 377//3
f 377//4 375//4 316//4
f 377//4 316//4 318//4
f 318//5 316//5 257//5
f 318//5 257//5 259//5
f 259//6 257//6 198//6
f 259//6 198//6 200//6
f 200//7 198//7 139//7
f 200//7 139//7 141//7
f 141//8 139//8 55//8
f 141//9 55//9 59//9
f 373//10 455//10 371//10
f 371//11 455//11 449//11
f 371//12 449//12 369//12
f 369//13 449//13 445//13
f 369//14 445//14 367//14
f 367//15 445//15 441//15
f 367//16 441//16 365//16
f 365//17 441//17 437//17
f 365//18 437//18 363//18
f 363//19 437//19 431//19
f 363//20 431//20 361//20
f 361//21 431//21 427//21
f 361//22 427//22 359//22
f 359//23 427//23 417//23
f 359//24 417//24 357//24
f 357//25 417//25 415//25
f 357//26 415//26 355//26
f 355//27 415//27 413//27
f 355//28 413//28 353//28
f 353//29 413//29 411//29
f 353//30 411//30 351//30
f 351//31 411//31 409//31
f 351//32 409//32 349//32
f 349//33 409//33 407//33
f 349//34 407//34 347//34
f 347//35 407//35 405//35
f 347//36 405//36 346//36
f 346//37 405//37 406//37
f 346//38 406//38 348//38
f 348//39 406//39 408//39
f 348//40 408//40 350//40
f 350//41 408//41 410//41
f 350//42 410//42 352//42
f 352//43 410//43 412//43
f 352//44 412//44 354//44
f 354//45 412//45 414//45
f 354//46 414//46 356//46
f 356//47 414//47 416//47
f 356//48 416//48 358//48
f 358//49 416//49 418//49
f 358//50 418//50 360//50
f 360//51 418//51 428//51
f 360//52 428//52 362//52
f 362//53 428//53 432//53
f 362//54 432//54 364//54
f 364//55 432//55 438//55
f 364//56 438//56 366//56
f 366//57 438//57 442//57
f 366//58 442//58 368//58
f 368//59 442//59 446//59
f 368//60 446//60 370//60
f 370//61 446//61 450//61
f 370//62 450//62 372//62
f 372//63 450//63 456//63
f 372//64 456//64 374//64
f 374//65 456//65 460//65
f 374//66 460//66 376//66
f 376//67 460//67 464//67
f 376//68 464//68 378//68
f 378//69 464//69 468//69
f 378//70 468//70 380//70
f 380//71 468//71 472//71
f 380//72 472//72 382//72
f 382//73 472//73 476//73
f 382//74 476//74 384//74
f 384//75 476//75 482//75
f 384//76 482//76 386//76
f 386//77 482//77 486//77
f 386//78 486//78 388//78
f 388//79 486//79 492//79
f 388//80 492//80 390//80
f 390//81 492//81 500//81
f 390//82 500//82 392//82
f 392//83 500//83 503//83
f 392//84 503//84 394//84
f 394//85 503//85 505//85
f 394//86 505//86 396//86
f 396//87 505//87 507//87
f 396//88 507//88 398//88
f 398//89 507//89 509//89
f 398//90 509//90 400//90
f 400//91 509//91 511//91
f 400//92 511//92 402//92
f 402//93 511//93 513//93
f 402//94 513//94 404//94
f 404//95 513//95 512//95
f 404//96 512//96 403//96
f 403//97 512//97 510//97
f 403//98 510//98 401//98
f 401//99 510//99 508//99
f 401//100 508//100 399//100
f 399//101 508//101 506//101
f 399//102 506//102 397//102
f 397//103 506//103 504//103
f 397//104 504//104 395//104
f 395//105 504//105 502//105
f 395//106 502//106 393//106
f 393//107 502//107 499//107
f 393//108 499//108 391//108
f 391//109 499//109 491//109
f 391//110 491//110 389//110
f 389//111 491//111 485//111
f 389//112 485//112 387//112
f 387//113 485//113 481//113
f 387//114 481//114 385//114
f 385//115 481//115 475//115
f 385//116 475//116 383//116
f 383//117 475//117 471//117
f 383//118 471//118 381//118
f 381//119 471//119 467//119
f 381//120 467//120 379//120
f 379//121 467//121 463//121
f 379//122 463//122 377//122
f 377//123 463//123 459//123
f 141//124 59//124 143//124
f 143//125 59//125 63//125
f 143//126 63//126 145//126
f 145//127 63//127 67//127
f 145//128 67//128 147//128
f 147//129 67//129 71//129
f 147//130 71//130 149//130
f 149//131 71//131 77//131
f 149//132 77//132 151//132
f 151//133 77//133 81//133
f 151//134 81//134 153//134
f 153//135 81//135 87//135
f 153//136 87//136 155//136
f 155//137 87//137 95//137
f 155//138 95//138 157//138
f 157//139 95//139 98//139
f 157//140 98//140 159//140
f 159//141 98//141 100//141
f 159//142 100//142 161//142
f 161//143 100//143 102//143
f 161//144 102//144 163//144
f 163//145 102//145 104//145
f 163//146 104//146 165//146
f 165//147 104//147 106//147
f 165//148 106//148 167//148
f 167//149 106//149 108//149
f 167//150 108//150 168//150
f 168//151 108//151 109//151
f 168//152 109//152 166//152
f 166//153 109//153 107//153
f 166//154 107//154 164//154
f 164//155 107//155 105//155
f 164//156 105//156 162//156
f 162//157 105//157 103//157
f 162//158 103//158 160//158
f 160//159 103//159 101//159
f 160//160 101//160 158//160
f 158//161 101//161 99//161
f 158//162 99//162 156//162
f 156//163 99//163 96//163
f 156//164 96//164 154//164
f 154//165 96//165 88//165
f 154//166 88//166 152//166
f 152//167 88//167 82//167
f 152//168 82//168 150//168
f 150//169 82//169 78//169
f 150//170 78//170 148//170
f 148//171 78//171 72//171
f 148//172 72//172 146//172
f 146//173 72//173 68//173
f 146//174 68//174 144//174
f 144//175 68//175 64//175
f 144//176 64//176 142//176
f 142//177 64//177 60//177
f 142//178 60//178 140//178
f 140//179 60//179 56//179
f 140//180 56//180 138//180
f 138//181 56//181 52//181
f 138//182 52//182 136//182
f 136//183 52//183 46//183
f 136//184 46//184 134//184
f 134//185 46//185 42//185
f 134//186 42//186 132//186
f 132//187 42//187 38//187
f 132//188 38//188 130//188
f 130//189 38//189 34//189
f 130//190 34//190 128//190
f 128//191 34//191 28//191
f 128//192 28//192 126//192
f 126//193 28//193 24//193
f 126//194 24//194 124//194
f 124//195 24//195 14//195
f 124//196 14//196 122//196
f 122//197 14//197 12//197
f 122//198 12//198 120//198
f 120//199 12//199 10//199
f 120//200 10//200 118//200
f 118//201 10//201 8//201
f 118//202 8//202 116//202
f 116//203 8//203 6//203
f 116//204 6//204 114//204
f 114//205 6//205 4//205
f 114//206 4//206 112//206
f 112//207 4//207 2//207
f 112//208 2//208 110//208
f 110//209 2//209 1//209
f 110//210 1//210 111//210
f 111//211 1//211 3//211
f 111//212 3//212 113//212
f 113//213 3//213 5//213
f 113//214 5//214 115//214
f 115//215 5//215 7//215
f 115//216 7//216 117//216
f 117//217 7//217 9//217
f 117//218 9//218 119//218
f 119//219 9//219 11//219
f 119//220 11//220 121//220
f 121//221 11//221 13//221
f 121//222 13//222 123//222
f 123//223 13//223 23//223
f 123//224 23//224 125//224
f 125//225 23//225 27//225
f 125//226 27//226 127//226
f 127//227 27//227 33//227
f 127//228 33//228 129//228
f 129//229 33//229 37//229
f 129//230 37//230 131//230
f 131//231 37//231 41//231
f 131//232 41//232 133//232
f 133//233 41//233 45//233
f 133//234 45//234 135//234
f 135//235 45//235 51//235
f 135//236 51//236 137//236
f 137//237 51//237 55//237
f 137//238 55//238 139//238
f 316//239 375//239 314//239
f 314//239 375//239 373//239
f 314//240 373//240 312//240
f 312//241 373//241 371//241
f 312//242 371//242 310//242
f 310//242 371//242 369//242
f 310//243 369//243 308//243
f 308//243 369//243 367//243
f 308//244 367//244 306//244
f 306//244 367//244 365//244
f 306//245 365//245 304//245
f 304//245 365//245 363//245
f 304//246 363//246 302//246
f 302//246 363//246 361//246
f 302//247 361//247 300//247
f 300//247 361//247 359//247
f 300//248 359//248 298//248
f 298//248 359//248 357//248
f 298//249 357//249 296//249
f 296//249 357//249 355//249
f 296//250 355//250 294//250
f 294//250 355//250 353//250
f 294//251 353//251 292//251
f 292//251 353//251 351//251
f 292//252 351//252 290//252
f 290//252 351//252 349//252
f 290//253 349//253 288//253
f 288//253 349//253 347//253
f 288//254 347//254 287//254
f 287//254 347//254 346//254
f 287//255 346//255 289//255
f 289//255 346//255 348//255
f 289//256 348//256 291//256
f 291//256 348//256 350//256
f 291//257 350//257 293//257
f 293//257 350//257 352//257
f 293//258 352//258 295//258
f 295//258 352//258 354//258
f 295//259 354//259 297//259
f 297//259 354//259 356//259
f 297//260 356//260 299//260
f 299//260 356//260 358//260
f 299//261 358//261 301//261
f 301//261 358//261 360//261
f 301//262 360//262 303//262
f 303//262 360//262 362//262
f 303//263 362//263 305//263
f 305//263 362//263 364//263
f 305//264 364//264 307//264
f 307//264 364//264 366//264
f 307//265 366//265 309//265
f 309//265 366//265 368//265
f 309//266 368//266 311//266
f 311//267 368//267 370//267
f 311//268 370//268 313//268
f 313//268 370//268 372//268
f 313//269 372//269 315//269
f 315//269 372//269 374//269
f 315//270 374//270 317//270
f 317//270 374//270 376//270
f 317//271 376//271 319//271
f 319//271 376//271 378//271
f 319//272 378//272 321//272
f 321//272 378//272 380//272
f 321//273 380//273 323//273
f 323//273 380//273 382//273
f 323//274 382//274 325//274
f 325//274 382//274 384//274
f 325//275 384//275 327//275
f 327//275 384//275 386//275
f 327//276 386//276 329//276
f 329//276 386//276 388//276
f 329//277 388//277 331//277
f 331//277 388//277 390//277
f 331//278 390//278 333//278
f 333//278 390//278 392//278
f 333//279 392//279 335//279
f 335//279 392//279 394//279
f 335//280 394//280 337//280
f 337//280 394//280 396//280
f 337//281 396//281 339//281
f 339//281 396//281 398//281
f 339//282 398//282 341//282
f 341//282 398//282 400//282
f 341//283 400//283 343//283
f 343//283 400//283 402//283
f 343//284 402//284 345//284
f 345//284 402//284 404//284
f 345//285 404//285 344//285
f 344//285 404//285 403//285
f 344//286 403//286 342//286
f 342//286 403//286 401//286
f 342//287 401//287 340//287
f 340//287 401//287 399//287
f 340//288 399//288 338//288
f 338//288 399//288 397//288
f 338//289 397//289 336//289
f 336//289 397//289 395//289
f 336//290 395//290 334//290
f 334//290 395//290 393//290
f 334//291 393//291 332//291
f 332//291 393//291 391//291
f 332//292 391//292 330//292
f 330//292 391//292 389//292
f 330//293 389//293 328//293
f 328//293 389//293 387//293
f 328//294 387//294 326//294
f 326//294 387//294 385//294
f 326//295 385//295 324//295
f 324//295 385//295 383//295
f 324//296 383//296 322//296
f 322//296 383//296 381//296
f 322//297 381//297 320//297
f 320//297 381//297 379//297
f 320//298 379//298 318//298
f 318//299 379//299 377//299
f 257//300 316//300 255//300
f 255//300 316//300 314//300
f 255//301 314//301 253//301
f 253//301 314//301 312//301
f 253//302 312//302 251//302
f 251//302 312//302 310//302
f 251//303 310//303 249//303
f 249//303 310//303 308//303
f 249//304 308//304 247//304
f 247//304 308//304 306//304
f 247//305 306//305 245//305
f 245//305 306//305 304//305
f 245//306 304//306 243//306
f 243//306 304//306 302//306
f 243//307 302//307 241//307
f 241//307 302//307 300//307
f 241//308 300//308 239//308
f 239//309 300//309 298//309
f 239//310 298//310 237//310
f 237//310 298//310 296//310
f 237//311 296//311 235//311
f 235//311 296//311 294//311
f 235//312 294//312 233//312
f 233//312 294//312 292//312
f 233//313 292//313 231//313
f 231//313 292//313 290//313
f 231//314 290//314 229//314
f 229//314 290//314 288//314
f 229//315 288//315 228//315
f 228//316 288//316 287//316
f 228//317 287//317 230//317
f 230//317 287//317 289//317
f 230//318 289//318 232//318
f 232//318 289//318 291//318
f 232//319 291//319 234//319
f 234//319 291//319 293//319
f 234//320 293//320 236//320
f 236//321 293//321 295//321
f 236//322 295//322 238//322
f 238//322 295//322 297//322
f 238//323 297//323 240//323
f 240//323 297//323 299//323
f 240//324 299//324 242//324
f 242//324 299//324 301//324
f 242//325 301//325 244//325
f 244//325 301//325 303//325
f 244//326 303//326 246//326
f 246//326 303//326 305//326
f 246//327 305//327 248//327
f 248//327 305//327 307//327
f 248//328 307//328 250//328
f 250//328 307//328 309//328
f 250//329 309//329 252//329
f 252//329 309//329 311//329
f 252//330 311//330 254//330
f 254//330 311//330 313//330
f 254//331 313//331 256//331
f 256//331 313//331 315//331
f 256//332 315//332 258//332
f 258//332 315//332 317//332
f 258//333 317//333 260//333
f 260//333 317//333 319//333
f 260//334 319//334 262//334
f 262//334 319//334 321//334
f 262//335 321//335 264//335
f 264//335 321//335 323//335
f 264//336 323//336 266//336
f 266//336 323//336 325//336
f 266//337 325//337 268//337
f 268//337 325//337 327//337
f 268//338 327//338 270//338
f 270//338 327//338 329//338
f 270//339 329//339 272//339
f 272//339 329//339 331//339
f 272//340 331//340 274//340
f 274//340 331//340 333//340
f 274//341 333//341 276//341
f 276//341 333//341 335//341
f 276//342 335//342 278//342
f 278//342 335//342 337//342
f 278//343 337//343 280//343
f 280//344 337//344 339//344
f 280//345 339//345 282//345
f 282//345 339//345 341//345
f 282//346 341//346 284//346
f 284//346 341//346 343//346
f 284//347 343//347 286//347
f 286//347 343//347 345//347
f 286//348 345//348 285//348
f 285//348 345//348 344//348
f 285//349 344//349 283//349
f 283//349 344//349 342//349
f 283//350 342//350 281//350
f 281//350 342//350 340//350
f 281//351 340//351 279//351
f 279//351 340//351 338//351
f 279//352 338//352 277//352
f 277//352 338//352 336//352
f 277//353 336//353 275//353
f 275//353 336//353 334//353
f 275//354 334//354 273//354
f 273//355 334//355 332//355
f 273//356 332//356 271//356
f 271//356 332//356 330//356
f 271//357 330//357 269//357
f 269//357 330//357 328//357
f 269//358 328//358 267//358
f 267//358 328//358 326//358
f 267//359 326//359 265//359
f 265//359 326//359 324//359
f 265//360 324//360 263//360
f 263//360 324//360 322//360
f 263//361 322//361 261//361
f 261//361 322//361 320//361
f 261//362 320//362 259//362
f 259//362 320//362 318//362
f 137//363 139//363 198//363
f 198//364 257//364 196//364
f 196//364 257//364 255//364
f 196//365 255//365 194//365
f 194//365 255//365 253//365
f 194//366 253//366 192//366
f 192//366 253//366 251//366
f 192//367 251//367 190//367
f 190//367 251//367 249//367
f 190//368 249//368 188//368
f 188//368 249//368 247//368
f 188//369 247//369 186//369
f 186//369 247//369 245//369
f 186//370 245//370 184//370
f 184//370 245//370 243//370
f 184//371 243//371 182//371
f 182//371 243//371 241//371
f 182//372 241//372 180//372
f 180//372 241//372 239//372
f 180//373 239//373 178//373
f 178//373 239//373 237//373
f 178//374 237//374 176//374
f 176//374 237//374 235//374
f 176//375 235//375 174//375
f 174//375 235//375 233//375
f 174//376 233//376 172//376
f 172//376 233//376 231//376
f 172//377 231//377 170//377
f 170//377 231//377 229//377
f 170//378 229//378 169//378
f 169//378 229//378 228//378
f 169//379 228//379 171//379
f 171//379 228//379 230//379
f 171//380 230//380 173//380
f 173//380 230//380 232//380
f 173//381 232//381 175//381
f 175//381 232//381 234//381
f 175//382 234//382 177//382
f 177//383 234//383 236//383
f 177//384 236//384 179//384
f 179//384 236//384 238//384
f 179//385 238//385 181//385
f 181//385 238//385 240//385
f 181//386 240//386 183//386
f 183//386 240//386 242//386
f 183//387 242//387 185//387
f 185//387 242//387 244//387
f 185//388 244//388 187//388
f 187//388 244//388 246//388
f 187//389 246//389 189//389
f 189//389 246//389 248//389
f 189//390 248//390 191//390
f 191//390 248//390 250//390
f 191//391 250//391 193//391
f 193//391 250//391 252//391
f 193//392 252//392 195//392
f 195//392 252//392 254//392
f 195//393 254//393 197//393
f 197//393 254//393 256//393
f 197//394 256//394 199//394
f 199//394 256//394 258//394
f 199//395 258//395 201//395
f 201//395 258//395 260//395
f 201//396 260//396 203//396
f 203//396 260//396 262//396
f 203//397 262//397 205//397
f 205//397 262//397 264//397
f 205//398 264//398 207//398
f 207//398 264//398 266//398
f 207//399 266//399 209//399
f 209//399 266//399 268//399
f 209//400 268//400 211//400
f 211//400 268//400 270//400
f 211//401 270//401 213//401
f 213//401 270//401 272//401
f 213//402 272//402 215//402
f 215//402 272//402 274//402
f 215//403 274//403 217//403
f 217//403 274//403 276//403
f 217//404 276//404 219//404
f 219//404 276//404 278//404
f 219//405 278//405 221//405
f 221//406 278//406 280//406
f 221//407 280//407 223//407
f 223//407 280//407 282//407
f 223//408 282//408 225//408
f 225//408 282//408 284//408
f 225//409 284//409 227//409
f 227//409 284//409 286//409
f 227//410 286//410 226//410
f 226//411 286//411 285//411
f 226//412 285//412 224//412
f 224//412 285//412 283//412
f 224//413 283//413 222//413
f 222//413 283//413 281//413
f 222//414 281//414 220//414
f 220//414 281//414 279//414
f 220//415 279//415 218//415
f 218//415 279//415 277//415
f 218//416 277//416 216//416
f 216//416 277//416 275//416
f 216//417 275//417 214//417
f 214//418 275//418 273//418
f 214//419 273//419 212//419
f 212//419 273//419 271//419
f 212//420 271//420 210//420
f 210//420 271//420 269//420
f 210//421 269//421 208//421
f 208//421 269//421 267//421
f 208//422 267//422 206//422
f 206//422 267//422 265//422
f 206//423 265//423 204//423
f 204//423 265//423 263//423
f 204//424 263//424 202//424
f 202//424 263//424 261//424
f 202//425 261//425 200//425
f 200//425 261//425 259//425
f 135//426 137//426 196//426
f 196//363 137//363 198//363
f 135//427 196//427 194//427
f 133//428 135//428 194//428
f 133//428 194//428 192//428
f 131//429 133//429 192//429
f 131//429 192//429 190//429
f 129//430 131//430 190//430
f 129//430 190//430 188//430
f 127//431 129//431 188//431
f 127//432 188//432 186//432
f 125//433 127//433 186//433
f 125//433 186//433 184//433
f 123//434 125//434 184//434
f 123//434 184//434 182//434
f 121//435 123//435 182//435
f 121//435 182//435 180//435
f 119//436 121//436 180//436
f 119//436 180//436 178//436
f 117//437 119//437 178//437
f 117//437 178//437 176//437
f 115//438 117//438 176//438
f 115//438 176//438 174//438
f 113//439 115//439 174//439
f 113//439 174//439 172//439
f 111//440 113//440 172//440
f 111//440 172//440 170//440
f 110//441 111//441 170//441
f 110//441 170//441 169//441
f 112//442 110//442 169//442
f 112//442 169//442 171//442
f 114//443 112//443 171//443
f 114//443 171//443 173//443
f 116//444 114//444 173//444
f 116//444 173//444 175//444
f 118//445 116//445 175//445
f 118//445 175//445 177//445
f 120//446 118//446 177//446
f 120//446 177//446 179//446
f 122//447 120//447 179//447
f 122//447 179//447 181//447
f 124//448 122//448 181//448
f 124//448 181//448 183//448
f 126//449 124//449 183//449
f 126//449 183//449 185//449
f 128//450 126//450 185//450
f 128//450 185//450 187//450
f 130//451 128//451 187//451
f 130//451 187//451 189//451
f 132//452 130//452 189//452
f 132//452 189//452 191//452
f 134//453 132//453 191//453
f 134//453 191//453 193//453
f 136//454 134//454 193//454
f 136//454 193//454 195//454
f 138//455 136//455 195//455
f 138//455 195//455 197//455
f 140//456 138//456 197//456
f 140//456 197//456 199//456
f 142//457 140//457 199//457
f 142//457 199//457 201//457
f 144//458 142//458 201//458
f 144//458 201//458 203//458
f 146//459 144//459 203//459
f 146//460 203//460 205//460
f 148//461 146//461 205//461
f 148//461 205//461 207//461
f 150//462 148//462 207//462
f 150//462 207//462 209//462
f 152//463 150//463 209//463
f 152//463 209//463 211//463
f 154//464 152//464 211//464
f 154//464 211//464 213//464
f 156//465 154//465 213//465
f 156//465 213//465 215//465
f 158//466 156//466 215//466
f 158//466 215//466 217//466
f 160//467 158//467 217//467
f 160//467 217//467 219//467
f 162//468 160//468 219//468
f 162//468 219//468 221//468
f 164//469 162//469 221//469
f 164//469 221//469 223//469
f 166//470 164//470 223//470
f 166//470 223//470 225//470
f 168//471 166//471 225//471
f 168//471 225//471 227//471
f 167//472 168//472 227//472
f 167//472 227//472 226//472
f 165//473 167//473 226//473
f 165//473 226//473 224//473
f 163//474 165//474 224//474
f 163//474 224//474 222//474
f 161//475 163//475 222//475
f 161//475 222//475 220//475
f 159//476 161//476 220//476
f 159//476 220//476 218//476
f 157//477 159//477 218//477
f 157//477 218//477 216//477
f 155//478 157//478 216//478
f 155//478 216//478 214//478
f 153//479 155//479 214//479
f 153//479 214//479 212//479
f 151//480 153//480 212//480
f 151//480 212//480 210//480
f 149//481 151//481 210//481
f 149//481 210//481 208//481
f 147//482 149//482 208//482
f 147//482 208//482 206//482
f 145//483 147//483 206//483
f 145//483 206//483 204//483
f 143//484 145//484 204//484
f 143//484 204//484 202//484
f 141//485 143//485 202//485
f 141//486 202//486 200//486
f 51//487 53//487 55//487
f 55//487 53//487 57//487
f 55//487 57//487 59//487
f 59//487 57//487 61//487
f 59//487 61//487 63//487
f 63//487 61//487 67//487
f 67//487 61//487 65//487
f 67//487 65//487 71//487
f 71//487 65//487 69//487
f 71//487 69//487 77//487
f 77//487 69//487 73//487
f 77//487 73//487 81//487
f 81//487 73//487 75//487
f 81//487 75//487 87//487
f 87//487 75//487 79//487
f 87//487 79//487 95//487
f 95//487 79//487 83//487
f 95//487 83//487 98//487
f 98//487 83//487 85//487
f 98//487 85//487 100//487
f 100//487 85//487 102//487
f 102//487 85//487 89//487
f 102//487 89//487 104//487
f 104//487 89//487 91//487
f 104//487 91//487 106//487
f 106//487 91//487 93//487
f 106//487 93//487 108//487
f 108//487 93//487 97//487
f 108//487 97//487 109//487
f 109//487 97//487 94//487
f 109//487 94//487 107//487
f 107//487 94//487 92//487
f 107//487 92//487 105//487
f 105//487 92//487 90//487
f 105//487 90//487 103//487
f 103//487 90//487 86//487
f 103//487 86//487 101//487
f 101//487 86//487 99//487
f 99//487 86//487 84//487
f 99//487 84//487 96//487
f 96//487 84//487 80//487
f 96//487 80//487 88//487
f 88//487 80//487 76//487
f 88//487 76//487 82//487
f 82//487 76//487 74//487
f 82//487 74//487 78//487
f 78//487 74//487 70//487
f 78//487 70//487 72//487
f 72//487 70//487 66//487
f 72//487 66//487 68//487
f 68//487 66//487 62//487
f 68//487 62//487 64//487
f 64//487 62//487 60//487
f 60//487 62//487 58//487
f 60//487 58//487 56//487
f 56//487 58//487 54//487
f 56//487 54//487 52//487
f 52//487 54//487 50//487
f 52//487 50//487 46//487
f 46//487 50//487 48//487
f 46//487 48//487 42//487
f 42//487 48//487 44//487
f 42//487 44//487 38//487
f 38//487 44//487 40//487
f 38//487 40//487 34//487
f 34//487 40//487 36//487
f 34//487 36//487 28//487
f 28//487 36//487 24//487
f 24//487 36//487 32//487
f 24//487 32//487 14//487
f 14//487 32//487 30//487
f 14//487 30//487 12//487
f 12//487 30//487 26//487
f 12//487 26//487 10//487
f 10//487 26//487 22//487
f 10//487 22//487 8//487
f 8//487 22//487 20//487
f 8//487 20//487 6//487
f 6//487 20//487 18//487
f 6//487 18//487 4//487
f 4//487 18//487 16//487
f 4//487 16//487 2//487
f 2//487 16//487 15//487
f 2//487 15//487 1//487
f 1//487 15//487 3//487
f 3//487 15//487 17//487
f 3//487 17//487 5//487
f 5//487 17//487 19//487
f 5//487 19//487 7//487
f 7//487 19//487 21//487
f 7//487 21//487 9//487
f 9//487 21//487 25//487
f 9//487 25//487 11//487
f 11//487 25//487 29//487
f 11//487 29//487 13//487
f 13//487 29//487 31//487
f 13//487 31//487 23//487
f 23//487 31//487 35//487
f 23//487 35//487 27//487
f 27//487 35//487 33//487
f 33//487 35//487 39//487
f 33//487 39//487 37//487
f 37//487 39//487 43//487
f 37//487 43//487 41//487
f 41//487 43//487 47//487
f 41//487 47//487 45//487
f 45//487 47//487 49//487
f 45//487 49//487 51//487
f 51//487 49//487 53//487
f 463//488 461//488 459//488
f 459//488 461//488 457//488
f 459//488 457//488 455//488
f 455//488 457//488 453//488
f 455//488 453//488 449//488
f 449//488 453//488 451//488
f 449//488 451//488 445//488
f 445//488 451//488 447//488
f 445//488 447//488 441//488
f 441//488 447//488 443//488
f 441//488 443//488 437//488
f 437//488 443//488 439//488
f 437//488 439//488 431//488
f 431//488 439//488 427//488
f 427//488 439//488 435//488
f 427//488 435//488 417//488
f 417//488 435//488 433//488
f 417//488 433//488 415//488
f 415//488 433//488 429//488
f 415//488 429//488 413//488
f 413//488 429//488 425//488
f 413//488 425//488 411//488
f 411//488 425//488 423//488
f 411//488 423//488 409//488
f 409//488 423//488 421//488
f 409//488 421//488 407//488
f 407//488 421//488 419//488
f 407//488 419//488 405//488
f 405//488 419//488 420//488
f 405//488 420//488 406//488
f 406//488 420//488 408//488
f 408//488 420//488 422//488
f 408//488 422//488 410//488
f 410//488 422//488 424//488
f 410//488 424//488 412//488
f 412//488 424//488 426//488
f 412//488 426//488 414//488
f 414//488 426//488 430//488
f 414//488 430//488 416//488
f 416//488 430//488 434//488
f 416//488 434//488 418//488
f 418//488 434//488 436//488
f 418//488 436//488 428//488
f 428//488 436//488 440//488
f 428//488 440//488 432//488
f 432//488 440//488 438//488
f 438//488 440//488 444//488
f 438//488 444//488 442//488
f 442//488 444//488 448//488
f 442//488 448//488 446//488
f 446//488 448//488 452//488
f 446//488 452//488 450//488
f 450//488 452//488 454//488
f 450//488 454//488 456//488
f 456//488 454//488 458//488
f 456//488 458//488 460//488
f 460//488 458//488 462//488
f 460//488 462//488 464//488
f 464//488 462//488 466//488
f 464//488 466//488 468//488
f 468//488 466//488 472//488
f 472//488 466//488 470//488
f 472//488 470//488 476//488
f 476//488 470//488 474//488
f 476//488 474//488 482//488
f 482//488 474//488 478//488
f 482//488 478//488 486//488
f 486//488 478//488 480//488
f 486//488 480//488 492//488
f 492//488 480//488 484//488
f 492//488 484//488 500//488
f 500//488 484//488 488//488
f 500//488 488//488 503//488
f 503//488 488//488 490//488
f 503//488 490//488 505//488
f 505//488 490//488 507//488
f 507//488 490//488 494//488
f 507//488 494//488 509//488
f 509//488 494//488 496//488
f 509//488 496//488 511//488
f 511//488 496//488 498//488
f 511//488 498//488 513//488
f 513//488 498//488 501//488
f 513//488 501//488 512//488
f 512//488 501//488 497//488
f 512//488 497//488 510//488
f 510//488 497//488 495//488
f 510//488 495//488 508//488
f 508//488 495//488 493//488
f 508//488 493//488 506//488
f 506//488 493//488 489//488
f 506//488 489//488 504//488
f 504//488 489//488 502//488
f 502//488 489//488 487//488
f 502//488 487//488 499//488
f 499//488 487//488 483//488
f 499//488 483//488 491//488
f 491//488 483//488 479//488
f 491//488 479//488 485//488
f 485//488 479//488 477//488
f 485//488 477//488 481//488
f 481//488 477//488 473//488
f 481//488 473//488 475//488
f 475//488 473//488 469//488
f 475//488 469//488 471//488
f 471//488 469//488 465//488
f 471//488 465//488 467//488
f 467//488 465//488 463//488
f 463//488 465//488 461//488
f 93//489 501//489 97//489
f 97//490 501//490 498//490
f 97//490 498//490 94//490
f 94//491 498//491 496//491
f 94//492 496//492 92//492
f 92//493 496//493 494//493
f 92//493 494//493 90//493
f 90//494 494//494 490//494
f 90//494 490//494 86//494
f 86//495 490//495 488//495
f 86//495 488//495 84//495
f 84//496 488//496 484//496
f 84//496 484//496 80//496
f 80//497 484//497 480//497
f 80//497 480//497 76//497
f 76//498 480//498 478//498
f 76//498 478//498 74//498
f 74//499 478//499 474//499
f 74//499 474//499 70//499
f 70//500 474//500 470//500
f 70//500 470//500 66//500
f 66//501 470//501 466//501
f 66//501 466//501 62//501
f 62//502 466//502 462//502
f 62//502 462//502 58//502
f 58//503 462//503 458//503
f 58//503 458//503 54//503
f 54//504 458//504 454//504
f 54//504 454//504 50//504
f 50//505 454//505 452//505
f 50//505 452//505 48//505
f 48//506 452//506 448//506
f 48//506 448//506 44//506
f 44//507 448//507 444//507
f 44//507 444//507 40//507
f 40//508 444//508 440//508
f 40//508 440//508 36//508
f 36//509 440//509 436//509
f 36//509 436//509 32//509
f 32//510 436//510 434//510
f 32//510 434//510 30//510
f 30//511 434//511 430//511
f 30//511 430//511 26//511
f 26//512 430//512 426//512
f 26//512 426//512 22//512
f 22//513 426//513 424//513
f 22//513 424//513 20//513
f 20//514 424//514 422//514
f 20//514 422//514 18//514
f 18//515 422//515 420//515
f 18//515 420//515 16//515
f 16//516 420//516 419//516
f 16//516 419//516 15//516
f 15//517 419//517 421//517
f 15//517 421//517 17//517
f 17//518 421//518 423//518
f 17//518 423//518 19//518
f 19//519 423//519 425//519
f 19//519 425//519 21//519
f 21//520 425//520 429//520
f 21//520 429//520 25//520
f 25//521 429//521 433//521
f 25//521 433//521 29//521
f 29//522 433//522 435//522
f 29//522 435//522 31//522
f 31//523 435//523 439//523
f 31//523 439//523 35//523
f 35//524 439//524 443//524
f 35//524 443//524 39//524
f 39//525 443//525 447//525
f 39//525 447//525 43//525
f 43//526 447//526 451//526
f 43//526 451//526 47//526
f 47//527 451//527 453//527
f 47//527 453//527 49//527
f 49//528 453//528 457//528
f 49//528 457//528 53//528
f 53//529 457//529 461//529
f 53//529 461//529 57//529
f 57//530 461//530 465//530
f 57//530 465//530 61//530
f 61//531 465//531 469//531
f 61//531 469//531 65//531
f 65//532 469//532 473//532
f 65//532 473//532 69//532
f 69//533 473//533 477//533
f 69//533 477//533 73//533
f 73//534 477//534 479//534
f 73//534 479//534 75//534
f 75//535 479//535 483//535
f 75//535 483//535 79//535
f 79//536 483//536 487//536
f 79//536 487//536 83//536
f 83//537 487//537 489//537
f 83//537 489//537 85//537
f 85//538 489//538 493//538
f 85//538 493//538 89//538
f 89//539 493//539 495//539
f 89//539 495//539 91//539
f 91//540 495//540 497//540
f 91//541 497//541 93//541
f 93//489 497//489 501//489
