# Blender 4.0.2
# www.blender.org
o diff_wheel__m1
v 16.257931 -12.039899 10.050001
v 16.257931 -10.233959 10.050001
v 16.257931 10.233961 10.050001
v 16.257931 12.039901 10.050001
v 15.640261 -13.736929 10.050001
v 15.640260 -8.536931 10.050001
v 15.640260 8.536933 10.050001
v 15.640259 13.736931 10.050001
v 14.479431 -15.120359 10.050001
v 14.479430 -7.153501 10.050001
v 14.479430 7.153502 10.050001
v 14.479429 15.120361 10.050001
v 12.915441 -16.023331 10.050001
v 12.915440 -6.250529 10.050001
v 12.915440 6.250530 10.050001
v 12.915439 16.023331 10.050001
v 11.136931 -16.336929 10.050001
v 11.136930 -5.936932 10.050001
v 11.136930 5.936933 10.050001
v 11.136930 16.336929 10.050001
v 9.358429 -16.023331 10.050000
v 9.358428 -6.250529 10.050000
v 9.358428 6.250530 10.050000
v 9.358427 16.023331 10.050000
v 7.794436 -15.120360 10.050000
v 7.794436 -7.153501 10.050000
v 7.794435 7.153502 10.050000
v 7.794435 15.120360 10.050000
v 6.633600 -13.736930 10.050000
v 6.633600 -8.536932 10.050000
v 6.633599 8.536932 10.050000
v 6.633599 13.736930 10.050000
v 6.015931 -12.039900 10.050000
v 6.015931 -10.233960 10.050000
v 6.015930 10.233960 10.050000
v 6.015930 12.039900 10.050000
v 5.121000 -16.652969 10.050000
v 5.121000 -14.847030 10.050000
v 5.120999 14.847030 10.050000
v 5.120998 16.652969 10.050000
v 4.503333 -18.350000 10.050000
v 4.503332 -13.150000 10.050000
v 4.503331 13.150000 10.050000
v 4.503331 18.350000 10.050000
v 3.342496 -19.733431 10.050000
v 3.342496 -11.766570 10.050000
v 3.342495 11.766570 10.050000
v 3.342494 19.733431 10.050000
v 1.778505 -20.636400 10.050000
v 1.778505 -10.863600 10.050000
v 1.778504 10.863600 10.050000
v 1.778504 20.636400 10.050000
v 0.000000 -20.950001 10.050000
v 0.000000 -10.550000 10.050000
v -0.000001 10.550000 10.050000
v -0.000001 20.950001 10.050000
v -1.778504 -20.636400 10.050000
v -1.778505 -10.863600 10.050000
v -1.778506 10.863600 10.050000
v -1.778506 20.636400 10.050000
v -3.342495 -19.733431 10.050000
v -3.342496 -11.766570 10.050000
v -3.342497 11.766570 10.050000
v -3.342497 19.733431 10.050000
v -4.503332 -18.350000 10.050000
v -4.503332 -13.150000 10.050000
v -4.503333 13.150000 10.050000
v -4.503334 18.350000 10.050000
v -5.120999 -16.652969 10.050000
v -5.121000 -14.847030 10.050000
v -5.121001 14.847030 10.050000
v -5.121001 16.652969 10.050000
v -6.015931 -12.039900 10.050000
v -6.015931 -10.233960 10.050000
v -6.015932 10.233960 10.050000
v -6.015932 12.039900 10.050000
v -6.633600 -13.736930 10.050000
v -6.633600 -8.536932 10.050000
v -6.633601 8.536932 10.050000
v -6.633601 13.736930 10.050000
v -7.794436 -15.120360 10.050000
v -7.794436 -7.153502 10.050000
v -7.794437 7.153501 10.050000
v -7.794437 15.120360 10.050000
v -9.358427 -16.023331 10.050000
v -9.358428 -6.250530 10.050000
v -9.358428 6.250529 10.050000
v -9.358429 16.023331 10.050000
v -10.629000 -0.902972 10.050000
v -10.629000 0.902971 10.050000
v -11.136930 -16.336929 10.049999
v -11.136930 -5.936933 10.049999
v -11.136930 5.936932 10.049999
v -11.136931 16.336929 10.049999
v -11.246670 -2.600000 10.049999
v -11.246670 2.599999 10.049999
v -12.407500 -3.983432 10.049999
v -12.407500 3.983431 10.049999
v -12.915439 -16.023331 10.049999
v -12.915440 -6.250530 10.049999
v -12.915440 6.250529 10.049999
v -12.915441 16.023331 10.049999
v -13.971500 -4.886403 10.049999
v -13.971500 4.886402 10.049999
v -14.479429 -15.120361 10.049999
v -14.479430 -7.153502 10.049999
v -14.479430 7.153501 10.049999
v -14.479431 15.120359 10.049999
v -15.640259 -13.736931 10.049999
v -15.640260 -8.536933 10.049999
v -15.640260 8.536931 10.049999
v -15.640261 13.736929 10.049999
v -15.750000 -5.200000 10.049999
v -15.750000 5.199999 10.049999
v -16.257931 -12.039901 10.049999
v -16.257931 -10.233961 10.049999
v -16.257931 10.233959 10.049999
v -16.257931 12.039899 10.049999
v -17.528509 -4.886403 10.049999
v -17.528509 4.886401 10.049999
v -19.092501 -3.983432 10.049999
v -19.092501 3.983430 10.049999
v -20.253330 -2.600001 10.049999
v -20.253330 2.599999 10.049999
v -20.871000 -0.902972 10.049999
v -20.871000 0.902970 10.049999
v 13.817981 -11.748859 7.600000
v 13.817980 -10.524999 7.600000
v 13.817980 10.525001 7.600000
v 13.817979 11.748861 7.600000
v 13.286971 -12.851529 7.600000
v 13.286970 -9.422334 7.600000
v 13.286970 9.422336 7.600000
v 13.286969 12.851531 7.600000
v 12.330111 -13.614599 7.600000
v 12.330110 -8.659268 7.600000
v 12.330110 8.659270 7.600000
v 12.330109 13.614601 7.600000
v 11.136931 -13.886930 7.600000
v 11.136930 -8.386933 7.600000
v 11.136930 8.386935 7.600000
v 11.136930 13.886931 7.600000
v 9.943755 -13.614600 7.600000
v 9.943754 -8.659269 7.600000
v 9.943754 8.659269 7.600000
v 9.943753 13.614600 7.600000
v 8.986896 -12.851530 7.600000
v 8.986895 -9.422335 7.600000
v 8.986895 9.422335 7.600000
v 8.986894 12.851530 7.600000
v 8.455883 -11.748860 7.600000
v 8.455882 -10.525000 7.600000
v 8.455882 10.525000 7.600000
v 8.455881 11.748860 7.600000
v 2.681052 -16.361931 7.600000
v 2.681052 -15.138070 7.600000
v 2.681051 15.138070 7.600000
v 2.681051 16.361931 7.600000
v 2.150038 -17.464600 7.600000
v 2.150038 -14.035400 7.600000
v 2.150036 14.035400 7.600000
v 2.150036 17.464600 7.600000
v 1.193180 -18.227671 7.600000
v 1.193180 -13.272340 7.600000
v 1.193179 13.272340 7.600000
v 1.193179 18.227671 7.600000
v 0.000000 -18.500000 7.600000
v 0.000000 -13.000000 7.600000
v -0.000001 13.000000 7.600000
v -0.000001 18.500000 7.600000
v -1.193179 -18.227671 7.600000
v -1.193180 -13.272340 7.600000
v -1.193181 13.272340 7.600000
v -1.193181 18.227671 7.600000
v -2.150037 -17.464600 7.600000
v -2.150037 -14.035400 7.600000
v -2.150038 14.035400 7.600000
v -2.150038 17.464600 7.600000
v -2.681051 -16.361931 7.600000
v -2.681051 -15.138070 7.600000
v -2.681053 15.138070 7.600000
v -2.681053 16.361931 7.600000
v -8.455881 -11.748860 7.599999
v -8.455882 -10.525000 7.599999
v -8.455882 10.525000 7.599999
v -8.455883 11.748860 7.599999
v -8.986894 -12.851530 7.599999
v -8.986895 -9.422335 7.599999
v -8.986895 9.422335 7.599999
v -8.986896 12.851530 7.599999
v -9.943753 -13.614600 7.599999
v -9.943754 -8.659269 7.599999
v -9.943754 8.659269 7.599999
v -9.943755 13.614600 7.599999
v -11.136930 -13.886931 7.599999
v -11.136930 -8.386935 7.599999
v -11.136930 8.386933 7.599999
v -11.136931 13.886930 7.599999
v -12.330109 -13.614601 7.599999
v -12.330110 -8.659270 7.599999
v -12.330110 8.659268 7.599999
v -12.330111 13.614599 7.599999
v -13.068950 -0.611934 7.599999
v -13.068950 0.611932 7.599999
v -13.286969 -12.851531 7.599999
v -13.286970 -9.422336 7.599999
v -13.286970 9.422334 7.599999
v -13.286971 12.851529 7.599999
v -13.599960 -1.714598 7.599999
v -13.599960 1.714596 7.599999
v -13.817979 -11.748861 7.599999
v -13.817980 -10.525001 7.599999
v -13.817980 10.524999 7.599999
v -13.817981 11.748859 7.599999
v -14.556820 -2.477665 7.599999
v -14.556820 2.477663 7.599999
v -15.750000 -2.750001 7.599999
v -15.750000 2.749999 7.599999
v -16.943180 -2.477665 7.599999
v -16.943180 2.477663 7.599999
v -17.900040 -1.714598 7.599999
v -17.900040 1.714596 7.599999
v -18.431049 -0.611934 7.599999
v -18.431049 0.611932 7.599999
v 13.817981 -11.748859 6.550001
v 13.817980 -10.524999 6.550001
v 13.817980 10.525001 6.550001
v 13.817979 11.748861 6.550001
v 13.286971 -12.851529 6.550001
v 13.286970 -9.422334 6.550001
v 13.286970 9.422336 6.550001
v 13.286969 12.851531 6.550001
v 12.330111 -13.614599 6.550001
v 12.330110 -8.659268 6.550001
v 12.330110 8.659270 6.550001
v 12.330109 13.614601 6.550001
v 11.136931 -13.886930 6.550001
v 11.136930 -8.386933 6.550001
v 11.136930 8.386935 6.550001
v 11.136930 13.886931 6.550001
v 9.943755 -13.614600 6.550001
v 9.943754 -8.659269 6.550001
v 9.943754 8.659269 6.550001
v 9.943753 13.614600 6.550001
v 8.986896 -12.851530 6.550001
v 8.986895 -9.422335 6.550001
v 8.986895 9.422335 6.550001
v 8.986894 12.851530 6.550001
v 8.455883 -11.748860 6.550001
v 8.455882 -10.525000 6.550001
v 8.455882 10.525000 6.550001
v 8.455881 11.748860 6.550001
v 2.681052 -16.361931 6.550000
v 2.681052 -15.138070 6.550000
v 2.681051 15.138070 6.550000
v 2.681051 16.361931 6.550000
v 2.150038 -17.464600 6.550000
v 2.150038 -14.035400 6.550000
v 2.150036 14.035400 6.550000
v 2.150036 17.464600 6.550000
v 1.193181 -18.227671 6.550000
v 1.193180 -13.272340 6.550000
v 1.193179 13.272340 6.550000
v 1.193179 18.227671 6.550000
v 0.000001 -18.500000 6.550000
v 0.000000 -13.000000 6.550000
v -0.000001 13.000000 6.550000
v -0.000001 18.500000 6.550000
v -1.193179 -18.227671 6.550000
v -1.193180 -13.272340 6.550000
v -1.193181 13.272340 6.550000
v -1.193181 18.227671 6.550000
v -2.150037 -17.464600 6.550000
v -2.150037 -14.035400 6.550000
v -2.150038 14.035400 6.550000
v -2.150038 17.464600 6.550000
v -2.681051 -16.361931 6.550000
v -2.681051 -15.138070 6.550000
v -2.681053 15.138070 6.550000
v -2.681053 16.361931 6.550000
v -8.455881 -11.748860 6.550000
v -8.455882 -10.525000 6.550000
v -8.455882 10.525000 6.550000
v -8.455883 11.748860 6.550000
v -8.986894 -12.851530 6.550000
v -8.986895 -9.422335 6.550000
v -8.986895 9.422335 6.550000
v -8.986896 12.851530 6.550000
v -9.943753 -13.614600 6.550000
v -9.943754 -8.659269 6.550000
v -9.943754 8.659269 6.550000
v -9.943755 13.614600 6.550000
v -11.136930 -13.886931 6.550000
v -11.136930 -8.386935 6.550000
v -11.136930 8.386933 6.550000
v -11.136931 13.886930 6.550000
v -12.330109 -13.614601 6.550000
v -12.330110 -8.659270 6.550000
v -12.330110 8.659268 6.550000
v -12.330111 13.614599 6.550000
v -13.068950 -0.611934 6.550000
v -13.068950 0.611932 6.550000
v -13.286969 -12.851531 6.550000
v -13.286970 -9.422336 6.550000
v -13.286970 9.422334 6.550000
v -13.286971 12.851529 6.550000
v -13.599960 -1.714598 6.550000
v -13.599960 1.714596 6.550000
v -13.817979 -11.748861 6.550000
v -13.817980 -10.525001 6.550000
v -13.817980 10.524999 6.550000
v -13.817981 11.748859 6.550000
v -14.556820 -2.477665 6.550000
v -14.556820 2.477663 6.550000
v -15.750000 -2.750001 6.550000
v -15.750000 2.749999 6.550000
v -16.943180 -2.477665 6.549999
v -16.943180 2.477663 6.549999
v -17.900040 -1.714598 6.549999
v -17.900040 1.714596 6.549999
v -18.431049 -0.611934 6.549999
v -18.431049 0.611932 6.549999
vn -0.1237 -0.7017 0.7017
vn 0.1237 -0.7017 0.7017
vn 0.1564 -0.6854 0.7112
vn 0.3587 -0.6213 0.6966
vn 0.4349 -0.5453 0.7166
vn 0.5504 -0.4618 0.6956
vn 0.6300 -0.3034 0.7148
vn 0.6723 -0.2447 0.6986
vn 0.7086 -0.0000 0.7057
vn 0.6723 0.2447 0.6986
vn 0.6300 0.3034 0.7148
vn 0.5504 0.4618 0.6956
vn 0.4349 0.5453 0.7166
vn 0.3587 0.6213 0.6966
vn 0.1564 0.6854 0.7112
vn 0.1237 0.7017 0.7017
vn -0.1237 0.7017 0.7017
vn -0.1564 0.6854 0.7112
vn -0.3587 0.6213 0.6966
vn -0.4349 0.5453 0.7166
vn -0.5504 0.4618 0.6956
vn -0.6300 0.3034 0.7148
vn -0.6723 0.2447 0.6986
vn -0.7086 -0.0000 0.7057
vn -0.6723 -0.2447 0.6986
vn -0.6300 -0.3034 0.7148
vn -0.5504 -0.4618 0.6956
vn -0.4349 -0.5453 0.7166
vn -0.3587 -0.6213 0.6966
vn -0.1564 -0.6854 0.7112
vn 0.2225 0.9749 -0.0000
vn -0.2225 0.9749 -0.0000
vn -0.6235 0.7818 -0.0000
vn 0.6235 0.7818 -0.0000
vn 0.9010 0.4339 -0.0000
vn 1.0000 -0.0000 -0.0000
vn 0.9010 -0.4339 -0.0000
vn 0.6235 -0.7818 -0.0000
vn 0.2225 -0.9749 -0.0000
vn -0.2225 -0.9749 -0.0000
vn -0.6235 -0.7818 -0.0000
vn -0.9010 -0.4339 -0.0000
vn -1.0000 -0.0000 -0.0000
vn -0.9010 0.4339 -0.0000
s 0
f 88//1 94//1 198//1
f 198//2 94//2 102//2
f 198//3 102//3 202//3
f 202//4 102//4 108//4
f 202//5 108//5 208//5
f 208//6 108//6 112//6
f 208//7 112//7 214//7
f 214//8 112//8 118//8
f 214//9 118//9 117//9
f 214//9 117//9 213//9
f 213//10 117//10 111//10
f 213//11 111//11 207//11
f 207//12 111//12 107//12
f 207//13 107//13 201//13
f 201//14 107//14 101//14
f 201//15 101//15 197//15
f 197//16 101//16 93//16
f 197//17 93//17 87//17
f 197//18 87//18 193//18
f 193//19 87//19 83//19
f 193//20 83//20 189//20
f 189//21 83//21 79//21
f 189//22 79//22 185//22
f 185//23 79//23 75//23
f 185//24 75//24 76//24
f 185//24 76//24 186//24
f 186//25 76//25 80//25
f 186//26 80//26 190//26
f 190//27 80//27 84//27
f 190//28 84//28 194//28
f 194//29 84//29 88//29
f 194//30 88//30 198//30
f 299//31 201//31 295//31
f 295//31 201//31 197//31
f 295//32 197//32 291//32
f 291//32 197//32 193//32
f 291//33 193//33 189//33
f 299//34 305//34 201//34
f 201//34 305//34 207//34
f 207//35 305//35 311//35
f 207//35 311//35 213//35
f 213//36 311//36 312//36
f 213//36 312//36 214//36
f 214//37 312//37 306//37
f 214//37 306//37 208//37
f 208//38 306//38 300//38
f 208//38 300//38 202//38
f 202//39 300//39 296//39
f 202//39 296//39 198//39
f 198//40 296//40 292//40
f 198//40 292//40 194//40
f 194//41 292//41 288//41
f 194//41 288//41 190//41
f 190//42 288//42 284//42
f 190//42 284//42 186//42
f 186//43 284//43 283//43
f 186//43 283//43 185//43
f 185//44 283//44 287//44
f 185//44 287//44 189//44
f 189//33 287//33 291//33
f 52//1 56//1 170//1
f 170//2 56//2 60//2
f 170//3 60//3 174//3
f 174//4 60//4 64//4
f 174//5 64//5 178//5
f 178//6 64//6 68//6
f 178//7 68//7 182//7
f 182//8 68//8 72//8
f 182//9 72//9 71//9
f 182//9 71//9 181//9
f 181//10 71//10 67//10
f 181//11 67//11 177//11
f 177//12 67//12 63//12
f 177//13 63//13 173//13
f 173//14 63//14 59//14
f 173//15 59//15 169//15
f 169//16 59//16 55//16
f 169//17 55//17 51//17
f 169//18 51//18 165//18
f 165//19 51//19 47//19
f 165//20 47//20 161//20
f 161//21 47//21 43//21
f 161//22 43//22 157//22
f 157//23 43//23 39//23
f 157//24 39//24 40//24
f 157//24 40//24 158//24
f 158//25 40//25 44//25
f 158//26 44//26 162//26
f 162//27 44//27 48//27
f 162//28 48//28 166//28
f 166//29 48//29 52//29
f 166//30 52//30 170//30
f 271//31 173//31 267//31
f 267//31 173//31 169//31
f 267//32 169//32 263//32
f 263//32 169//32 165//32
f 263//33 165//33 161//33
f 271//34 275//34 173//34
f 173//34 275//34 177//34
f 177//35 275//35 279//35
f 177//35 279//35 181//35
f 181//36 279//36 280//36
f 181//36 280//36 182//36
f 182//37 280//37 276//37
f 182//37 276//37 178//37
f 178//38 276//38 272//38
f 178//38 272//38 174//38
f 174//39 272//39 268//39
f 174//39 268//39 170//39
f 170//40 268//40 264//40
f 170//40 264//40 166//40
f 166//41 264//41 260//41
f 166//41 260//41 162//41
f 162//42 260//42 256//42
f 162//42 256//42 158//42
f 158//43 256//43 255//43
f 158//43 255//43 157//43
f 157//44 255//44 259//44
f 157//44 259//44 161//44
f 161//33 259//33 263//33
f 16//1 20//1 142//1
f 142//2 20//2 24//2
f 142//3 24//3 146//3
f 146//4 24//4 28//4
f 146//5 28//5 150//5
f 150//6 28//6 32//6
f 150//7 32//7 154//7
f 154//8 32//8 36//8
f 154//9 36//9 35//9
f 154//9 35//9 153//9
f 153//10 35//10 31//10
f 153//11 31//11 149//11
f 149//12 31//12 27//12
f 149//13 27//13 145//13
f 145//14 27//14 23//14
f 145//15 23//15 141//15
f 141//16 23//16 19//16
f 141//17 19//17 15//17
f 141//18 15//18 137//18
f 137//19 15//19 11//19
f 137//20 11//20 133//20
f 133//21 11//21 7//21
f 133//22 7//22 129//22
f 129//23 7//23 3//23
f 129//24 3//24 4//24
f 129//24 4//24 130//24
f 130//25 4//25 8//25
f 130//26 8//26 134//26
f 134//27 8//27 12//27
f 134//28 12//28 138//28
f 138//29 12//29 16//29
f 138//30 16//30 142//30
f 243//31 145//31 239//31
f 239//31 145//31 141//31
f 239//32 141//32 235//32
f 235//32 141//32 137//32
f 235//33 137//33 133//33
f 243//34 247//34 145//34
f 145//34 247//34 149//34
f 149//35 247//35 251//35
f 149//35 251//35 153//35
f 153//36 251//36 252//36
f 153//36 252//36 154//36
f 154//37 252//37 248//37
f 154//37 248//37 150//37
f 150//38 248//38 244//38
f 150//38 244//38 146//38
f 146//39 244//39 240//39
f 146//39 240//39 142//39
f 142//40 240//40 236//40
f 142//40 236//40 138//40
f 138//41 236//41 232//41
f 138//41 232//41 134//41
f 134//42 232//42 228//42
f 134//42 228//42 130//42
f 130//43 228//43 227//43
f 130//43 227//43 129//43
f 129//44 227//44 231//44
f 129//44 231//44 133//44
f 133//33 231//33 235//33
f 14//1 18//1 140//1
f 140//2 18//2 22//2
f 140//3 22//3 144//3
f 144//4 22//4 26//4
f 144//5 26//5 148//5
f 148//6 26//6 30//6
f 148//7 30//7 152//7
f 152//8 30//8 34//8
f 152//9 34//9 33//9
f 152//9 33//9 151//9
f 151//10 33//10 29//10
f 151//11 29//11 147//11
f 147//12 29//12 25//12
f 147//13 25//13 143//13
f 143//14 25//14 21//14
f 143//15 21//15 139//15
f 139//16 21//16 17//16
f 139//17 17//17 13//17
f 139//18 13//18 135//18
f 135//19 13//19 9//19
f 135//20 9//20 131//20
f 131//21 9//21 5//21
f 131//22 5//22 127//22
f 127//23 5//23 1//23
f 127//24 1//24 2//24
f 127//24 2//24 128//24
f 128//25 2//25 6//25
f 128//26 6//26 132//26
f 132//27 6//27 10//27
f 132//28 10//28 136//28
f 136//29 10//29 14//29
f 136//30 14//30 140//30
f 241//31 143//31 237//31
f 237//31 143//31 139//31
f 237//32 139//32 233//32
f 233//32 139//32 135//32
f 233//33 135//33 131//33
f 241//34 245//34 143//34
f 143//34 245//34 147//34
f 147//35 245//35 249//35
f 147//35 249//35 151//35
f 151//36 249//36 250//36
f 151//36 250//36 152//36
f 152//37 250//37 246//37
f 152//37 246//37 148//37
f 148//38 246//38 242//38
f 148//38 242//38 144//38
f 144//39 242//39 238//39
f 144//39 238//39 140//39
f 140//40 238//40 234//40
f 140//40 234//40 136//40
f 136//41 234//41 230//41
f 136//41 230//41 132//41
f 132//42 230//42 226//42
f 132//42 226//42 128//42
f 128//43 226//43 225//43
f 128//43 225//43 127//43
f 127//44 225//44 229//44
f 127//44 229//44 131//44
f 131//33 229//33 233//33
f 50//1 54//1 168//1
f 168//2 54//2 58//2
f 168//3 58//3 172//3
f 172//4 58//4 62//4
f 172//5 62//5 176//5
f 176//6 62//6 66//6
f 176//7 66//7 180//7
f 180//8 66//8 70//8
f 180//9 70//9 69//9
f 180//9 69//9 179//9
f 179//10 69//10 65//10
f 179//11 65//11 175//11
f 175//12 65//12 61//12
f 175//13 61//13 171//13
f 171//14 61//14 57//14
f 171//15 57//15 167//15
f 167//16 57//16 53//16
f 167//17 53//17 49//17
f 167//18 49//18 163//18
f 163//19 49//19 45//19
f 163//20 45//20 159//20
f 159//21 45//21 41//21
f 159//22 41//22 155//22
f 155//23 41//23 37//23
f 155//24 37//24 38//24
f 155//24 38//24 156//24
f 156//25 38//25 42//25
f 156//26 42//26 160//26
f 160//27 42//27 46//27
f 160//28 46//28 164//28
f 164//29 46//29 50//29
f 164//30 50//30 168//30
f 269//31 171//31 265//31
f 265//31 171//31 167//31
f 265//32 167//32 261//32
f 261//32 167//32 163//32
f 261//33 163//33 159//33
f 269//34 273//34 171//34
f 171//34 273//34 175//34
f 175//35 273//35 277//35
f 175//35 277//35 179//35
f 179//36 277//36 278//36
f 179//36 278//36 180//36
f 180//37 278//37 274//37
f 180//37 274//37 176//37
f 176//38 274//38 270//38
f 176//38 270//38 172//38
f 172//39 270//39 266//39
f 172//39 266//39 168//39
f 168//40 266//40 262//40
f 168//40 262//40 164//40
f 164//41 262//41 258//41
f 164//41 258//41 160//41
f 160//42 258//42 254//42
f 160//42 254//42 156//42
f 156//43 254//43 253//43
f 156//43 253//43 155//43
f 155//44 253//44 257//44
f 155//44 257//44 159//44
f 159//33 257//33 261//33
f 86//1 92//1 196//1
f 196//2 92//2 100//2
f 196//3 100//3 200//3
f 200//4 100//4 106//4
f 200//5 106//5 206//5
f 206//6 106//6 110//6
f 206//7 110//7 212//7
f 212//8 110//8 116//8
f 212//9 116//9 115//9
f 212//9 115//9 211//9
f 211//10 115//10 109//10
f 211//11 109//11 205//11
f 205//12 109//12 105//12
f 205//13 105//13 199//13
f 199//14 105//14 99//14
f 199//15 99//15 195//15
f 195//16 99//16 91//16
f 195//17 91//17 85//17
f 195//18 85//18 191//18
f 191//19 85//19 81//19
f 191//20 81//20 187//20
f 187//21 81//21 77//21
f 187//22 77//22 183//22
f 183//23 77//23 73//23
f 183//24 73//24 74//24
f 183//24 74//24 184//24
f 184//25 74//25 78//25
f 184//26 78//26 188//26
f 188//27 78//27 82//27
f 188//28 82//28 192//28
f 192//29 82//29 86//29
f 192//30 86//30 196//30
f 297//31 199//31 293//31
f 293//31 199//31 195//31
f 293//32 195//32 289//32
f 289//32 195//32 191//32
f 289//33 191//33 187//33
f 297//34 303//34 199//34
f 199//34 303//34 205//34
f 205//35 303//35 309//35
f 205//35 309//35 211//35
f 211//36 309//36 310//36
f 211//36 310//36 212//36
f 212//37 310//37 304//37
f 212//37 304//37 206//37
f 206//38 304//38 298//38
f 206//38 298//38 200//38
f 200//39 298//39 294//39
f 200//39 294//39 196//39
f 196//40 294//40 290//40
f 196//40 290//40 192//40
f 192//41 290//41 286//41
f 192//41 286//41 188//41
f 188//42 286//42 282//42
f 188//42 282//42 184//42
f 184//43 282//43 281//43
f 184//43 281//43 183//43
f 183//44 281//44 285//44
f 183//44 285//44 187//44
f 187//33 285//33 289//33
f 104//1 114//1 218//1
f 218//2 114//2 120//2
f 218//3 120//3 220//3
f 220//4 120//4 122//4
f 220//5 122//5 222//5
f 222//6 122//6 124//6
f 222//7 124//7 224//7
f 224//8 124//8 126//8
f 224//9 126//9 125//9
f 224//9 125//9 223//9
f 223//10 125//10 123//10
f 223//11 123//11 221//11
f 221//12 123//12 121//12
f 221//13 121//13 219//13
f 219//14 121//14 119//14
f 219//15 119//15 217//15
f 217//16 119//16 113//16
f 217//17 113//17 103//17
f 217//18 103//18 215//18
f 215//19 103//19 97//19
f 215//20 97//20 209//20
f 209//21 97//21 95//21
f 209//22 95//22 203//22
f 203//23 95//23 89//23
f 203//24 89//24 90//24
f 203//24 90//24 204//24
f 204//25 90//25 96//25
f 204//26 96//26 210//26
f 210//27 96//27 98//27
f 210//28 98//28 216//28
f 216//29 98//29 104//29
f 216//30 104//30 218//30
f 317//31 219//31 315//31
f 315//31 219//31 217//31
f 315//32 217//32 313//32
f 313//32 217//32 215//32
f 313//33 215//33 209//33
f 317//34 319//34 219//34
f 219//34 319//34 221//34
f 221//35 319//35 321//35
f 221//35 321//35 223//35
f 223//36 321//36 322//36
f 223//36 322//36 224//36
f 224//37 322//37 320//37
f 224//37 320//37 222//37
f 222//38 320//38 318//38
f 222//38 318//38 220//38
f 220//39 318//39 316//39
f 220//39 316//39 218//39
f 218//40 316//40 314//40
f 218//40 314//40 216//40
f 216//41 314//41 308//41
f 216//41 308//41 210//41
f 210//42 308//42 302//42
f 210//42 302//42 204//42
f 204//43 302//43 301//43
f 204//43 301//43 203//43
f 203//44 301//44 307//44
f 203//44 307//44 209//44
f 209//33 307//33 313//33
