# Blender 4.0.2
# www.blender.org
o diff_caster__m0
v 40.750000 76.076942 -60.603699
v 40.750000 40.499996 -42.538845
v 40.750000 40.500004 34.043266
v 40.750000 97.403893 -33.748966
v 40.750000 98.125038 -34.668819
v 40.750000 98.783180 -35.634769
v 40.750000 99.375366 -36.642487
v 40.750000 99.898972 -37.687489
v 40.750000 100.351601 -38.765118
v 40.750000 100.731400 -39.870556
v 40.750000 101.036499 -40.998878
v 40.750000 101.265602 -42.145046
v 40.750000 101.417603 -43.303959
v 40.750000 101.491997 -44.470428
v 40.750000 101.488297 -45.639267
v 40.750000 101.406601 -46.805248
v 40.750000 101.247299 -47.963188
v 40.750000 101.011002 -49.107899
v 40.750000 100.698898 -50.234276
v 40.750000 100.312195 -51.337318
v 40.750000 99.852783 -52.412086
v 40.750000 99.322639 -53.453789
v 40.750000 98.724144 -54.457779
v 40.750000 98.059959 -55.419567
v 40.750000 97.333054 -56.334888
v 40.750000 96.546669 -57.199638
v 40.750000 95.704323 -58.009956
v 40.750000 94.809753 -58.762249
v 40.750000 93.866951 -59.453148
v 40.750000 92.880142 -60.079559
v 40.750000 91.853722 -60.638706
v 40.750000 90.792259 -61.128086
v 40.750000 89.700500 -61.545528
v 40.750000 88.583313 -61.889149
v 40.750000 87.445671 -62.157436
v 40.750000 86.292664 -62.349178
v 40.750000 85.129433 -62.463528
v 40.750000 83.961159 -62.499969
v 40.750000 82.793053 -62.458336
v 40.750000 81.630341 -62.338829
v 40.750000 80.478203 -62.141968
v 40.750000 79.341759 -61.868637
v 40.750000 78.226105 -61.520058
v 40.750000 77.136215 -61.097786
v -40.750000 40.499996 -42.538845
v -40.750000 76.076942 -60.603699
v -40.750000 77.136215 -61.097786
v -40.750000 78.226105 -61.520058
v -40.750000 79.341759 -61.868637
v -40.750000 80.478203 -62.141968
v -40.750000 81.630341 -62.338829
v -40.750000 82.793053 -62.458336
v -40.750000 83.961159 -62.499969
v -40.750000 85.129433 -62.463528
v -40.750000 86.292664 -62.349178
v -40.750000 87.445671 -62.157436
v -40.750000 88.583313 -61.889149
v -40.750000 89.700500 -61.545528
v -40.750000 90.792259 -61.128086
v -40.750000 91.853722 -60.638706
v -40.750000 92.880142 -60.079559
v -40.750000 93.866951 -59.453148
v -40.750000 94.809753 -58.762249
v -40.750000 95.704323 -58.009956
v -40.750000 96.546669 -57.199638
v -40.750000 97.333054 -56.334888
v -40.750000 98.059959 -55.419567
v -40.750000 98.724144 -54.457779
v -40.750000 99.322639 -53.453789
v -40.750000 99.852783 -52.412086
v -40.750000 100.312195 -51.337318
v -40.750000 100.698898 -50.234276
v -40.750000 101.011002 -49.107899
v -40.750000 101.247299 -47.963188
v -40.750000 101.406601 -46.805248
v -40.750000 101.488297 -45.639267
v -40.750000 101.491997 -44.470428
v -40.750000 101.417603 -43.303959
v -40.750000 101.265602 -42.145046
v -40.750000 101.036499 -40.998878
v -40.750000 100.731400 -39.870556
v -40.750000 100.351601 -38.765118
v -40.750000 99.898972 -37.687489
v -40.750000 99.375366 -36.642487
v -40.750000 98.783180 -35.634769
v -40.750000 98.125038 -34.668819
v -40.750000 97.403893 -33.748966
v -40.750000 40.500004 34.043266
v -45.750000 97.403893 -33.748966
v -45.750000 35.500004 39.999996
v 0.000000 35.500004 39.999996
v 45.750000 35.500004 39.999996
v 45.750000 97.403893 -33.748966
v -45.750000 76.076942 -60.603699
v -45.750000 77.136215 -61.097786
v -45.750000 78.226105 -61.520058
v -45.750000 79.341759 -61.868637
v -45.750000 80.478203 -62.141968
v -45.750000 81.630341 -62.338829
v -45.750000 82.793053 -62.458336
v -45.750000 83.961159 -62.499969
v -45.750000 85.129433 -62.463528
v -45.750000 86.292664 -62.349178
v -45.750000 87.445671 -62.157436
v -45.750000 88.583313 -61.889149
v -45.750000 89.700500 -61.545528
v -45.750000 90.792259 -61.128086
v -45.750000 91.853722 -60.638706
v -45.750000 92.880142 -60.079559
v -45.750000 93.866951 -59.453148
v -45.750000 94.809753 -58.762249
v -45.750000 95.704323 -58.009956
v -45.750000 96.546669 -57.199638
v -45.750000 97.333054 -56.334888
v -45.750000 98.059959 -55.419567
v -45.750000 98.724144 -54.457779
v -45.750000 99.322639 -53.453789
v -45.750000 99.852783 -52.412086
v -45.750000 100.312195 -51.337318
v -45.750000 100.698898 -50.234276
v -45.750000 101.011002 -49.107899
v -45.750000 101.247299 -47.963188
v -45.750000 101.406601 -46.805248
v -45.750000 101.488297 -45.639267
v -45.750000 101.491997 -44.470428
v -45.750000 101.417603 -43.303959
v -45.750000 101.265602 -42.145046
v -45.750000 101.036499 -40.998878
v -45.750000 100.731400 -39.870556
v -45.750000 100.351601 -38.765118
v -45.750000 99.898972 -37.687489
v -45.750000 99.375366 -36.642487
v -45.750000 98.783180 -35.634769
v -45.750000 98.125038 -34.668819
v 45.750000 98.125038 -34.668819
v 45.750000 98.783180 -35.634769
v 45.750000 99.375366 -36.642487
v 45.750000 99.898972 -37.687489
v 45.750000 100.351601 -38.765118
v 45.750000 100.731400 -39.870556
v 45.750000 101.036499 -40.998878
v 45.750000 101.265602 -42.145046
v 45.750000 101.417603 -43.303959
v 45.750000 101.491997 -44.470428
v 45.750000 101.488297 -45.639267
v 45.750000 101.406601 -46.805248
v 45.750000 101.247299 -47.963188
v 45.750000 101.011002 -49.107899
v 45.750000 100.698898 -50.234276
v 45.750000 100.312195 -51.337318
v 45.750000 99.852783 -52.412086
v 45.750000 99.322639 -53.453789
v 45.750000 98.724144 -54.457779
v 45.750000 98.059959 -55.419567
v 45.750000 97.333054 -56.334888
v 45.750000 96.546669 -57.199638
v 45.750000 95.704323 -58.009956
v 45.750000 94.809753 -58.762249
v 45.750000 93.866951 -59.453148
v 45.750000 92.880142 -60.079559
v 45.750000 91.853722 -60.638706
v 45.750000 90.792259 -61.128086
v 45.750000 89.700500 -61.545528
v 45.750000 88.583313 -61.889149
v 45.750000 87.445671 -62.157436
v 45.750000 86.292664 -62.349178
v 45.750000 85.129433 -62.463528
v 45.750000 83.961159 -62.499969
v 45.750000 82.793053 -62.458336
v 45.750000 81.630341 -62.338829
v 45.750000 80.478203 -62.141968
v 45.750000 79.341759 -61.868637
v 45.750000 78.226105 -61.520058
v 45.750000 77.136215 -61.097786
v 45.750000 76.076942 -60.603699
v 0.000000 35.499996 -40.000004
v -1.769334 35.499996 -39.960854
v -3.535204 35.499996 -39.843475
v -5.294154 35.499996 -39.648106
v -7.042741 35.499996 -39.375122
v -8.777542 35.499996 -39.025055
v -10.495160 35.499996 -38.598602
v -12.192230 35.499996 -38.096584
v -13.865440 35.499996 -37.519993
v -15.511500 35.499996 -36.869953
v -17.127199 35.499996 -36.147743
v -18.709370 35.499996 -35.354774
v -20.254919 35.499996 -34.492584
v -21.760820 35.499996 -33.562885
v -23.224119 35.499996 -32.567474
v -24.641951 35.499996 -31.508322
v -26.011551 35.499996 -30.387482
v -27.330231 35.499996 -29.207163
v -28.595409 35.499996 -27.969671
v -29.804621 35.499996 -26.677422
v -30.955481 35.499996 -25.332952
v -32.045738 35.500000 -23.938892
v -33.073269 35.500000 -22.497972
v -34.036060 35.500000 -21.013012
v -34.932220 35.500000 -19.486912
v -35.759998 35.500000 -17.922672
v -36.517780 35.500000 -16.323341
v -37.204071 35.500000 -14.692063
v -37.817539 35.500000 -13.032022
v -38.356972 35.500000 -11.346473
v -38.821320 35.500000 -9.638712
v -39.209679 35.500000 -7.912080
v -39.521278 35.500000 -6.169960
v -39.755508 35.500000 -4.415763
v -39.911930 35.500000 -2.652921
v -39.990211 35.500000 -0.884886
v -39.990211 35.500000 0.884880
v -39.911930 35.500000 2.652915
v -39.755508 35.500000 4.415757
v -39.521278 35.500000 6.169954
v -39.209679 35.500000 7.912074
v -38.821320 35.500000 9.638706
v -38.356972 35.500000 11.346467
v -37.817539 35.500000 13.032017
v -37.204071 35.500000 14.692058
v -36.517780 35.500000 16.323338
v -35.759998 35.500000 17.922668
v -34.932220 35.500000 19.486908
v -34.036060 35.500000 21.013008
v -33.073269 35.500000 22.497969
v -32.045738 35.500000 23.938889
v -30.955481 35.500004 25.332949
v -29.804621 35.500004 26.677418
v -28.595409 35.500004 27.969667
v -27.330231 35.500004 29.207159
v -26.011551 35.500004 30.387478
v -24.641951 35.500004 31.508318
v -23.224119 35.500004 32.567467
v -21.760820 35.500004 33.562878
v -20.254919 35.500004 34.492577
v -18.709370 35.500004 35.354767
v -17.127199 35.500004 36.147736
v -15.511500 35.500004 36.869946
v -13.865440 35.500004 37.519985
v -12.192230 35.500004 38.096577
v -10.495160 35.500004 38.598595
v -8.777542 35.500004 39.025047
v -7.042741 35.500004 39.375114
v -5.294154 35.500004 39.648098
v -3.535204 35.500004 39.843468
v -1.769334 35.500004 39.960846
v -45.750000 35.499996 -40.000004
v 1.769334 35.500004 39.960846
v 3.535204 35.500004 39.843468
v 5.294154 35.500004 39.648098
v 7.042741 35.500004 39.375114
v 8.777542 35.500004 39.025047
v 10.495160 35.500004 38.598595
v 12.192230 35.500004 38.096577
v 13.865440 35.500004 37.519985
v 15.511500 35.500004 36.869946
v 17.127199 35.500004 36.147736
v 18.709370 35.500004 35.354767
v 20.254919 35.500004 34.492577
v 21.760820 35.500004 33.562878
v 23.224119 35.500004 32.567467
v 24.641951 35.500004 31.508318
v 26.011551 35.500004 30.387478
v 27.330231 35.500004 29.207159
v 28.595409 35.500004 27.969667
v 29.804621 35.500004 26.677418
v 30.955481 35.500004 25.332949
v 32.045738 35.500000 23.938889
v 33.073269 35.500000 22.497969
v 34.036060 35.500000 21.013008
v 34.932220 35.500000 19.486908
v 35.759998 35.500000 17.922668
v 36.517780 35.500000 16.323338
v 37.204071 35.500000 14.692058
v 37.817539 35.500000 13.032017
v 38.356972 35.500000 11.346467
v 38.821320 35.500000 9.638706
v 39.209679 35.500000 7.912074
v 39.521278 35.500000 6.169954
v 39.755508 35.500000 4.415757
v 39.911930 35.500000 2.652915
v 39.990211 35.500000 0.884880
v 39.990211 35.500000 -0.884886
v 39.911930 35.500000 -2.652921
v 39.755508 35.500000 -4.415763
v 39.521278 35.500000 -6.169960
v 39.209679 35.500000 -7.912080
v 38.821320 35.500000 -9.638712
v 38.356972 35.500000 -11.346473
v 37.817539 35.500000 -13.032022
v 37.204071 35.500000 -14.692063
v 36.517780 35.500000 -16.323341
v 35.759998 35.500000 -17.922672
v 34.932220 35.500000 -19.486912
v 34.036060 35.500000 -21.013012
v 33.073269 35.500000 -22.497972
v 32.045738 35.500000 -23.938892
v 30.955481 35.499996 -25.332952
v 29.804621 35.499996 -26.677422
v 28.595409 35.499996 -27.969671
v 27.330231 35.499996 -29.207163
v 26.011551 35.499996 -30.387482
v 24.641951 35.499996 -31.508322
v 23.224119 35.499996 -32.567474
v 21.760820 35.499996 -33.562885
v 20.254919 35.499996 -34.492584
v 18.709370 35.499996 -35.354774
v 17.127199 35.499996 -36.147743
v 15.511500 35.499996 -36.869953
v 13.865440 35.499996 -37.519993
v 12.192230 35.499996 -38.096584
v 10.495160 35.499996 -38.598602
v 8.777542 35.499996 -39.025055
v 7.042741 35.499996 -39.375122
v 5.294154 35.499996 -39.648106
v 3.535204 35.499996 -39.843475
v 1.769334 35.499996 -39.960854
v 45.750000 35.499996 -40.000004
v 40.000000 0.000000 0.000000
v 39.960850 0.000000 -1.769334
v 39.843472 0.000000 -3.535204
v 39.648102 0.000000 -5.294154
v 39.375118 -0.000001 -7.042741
v 39.025051 -0.000001 -8.777542
v 38.598598 -0.000001 -10.495160
v 38.096581 -0.000001 -12.192230
v 37.519989 -0.000001 -13.865440
v 36.869949 -0.000001 -15.511500
v 36.147739 -0.000001 -17.127199
v 35.354771 -0.000001 -18.709370
v 34.492580 -0.000002 -20.254919
v 33.562881 -0.000002 -21.760820
v 32.567471 -0.000002 -23.224119
v 31.508320 -0.000002 -24.641951
v 30.387480 -0.000002 -26.011551
v 29.207161 -0.000002 -27.330231
v 27.969669 -0.000002 -28.595409
v 26.677420 -0.000002 -29.804621
v 25.332951 -0.000002 -30.955481
v 23.938890 -0.000002 -32.045738
v 22.497971 -0.000002 -33.073269
v 21.013010 -0.000003 -34.036060
v 19.486910 -0.000003 -34.932220
v 17.922670 -0.000003 -35.759998
v 16.323339 -0.000003 -36.517780
v 14.692060 -0.000003 -37.204071
v 13.032020 -0.000003 -37.817539
v 11.346470 -0.000003 -38.356972
v 9.638709 -0.000003 -38.821320
v 7.912077 -0.000003 -39.209679
v 6.169957 -0.000003 -39.521278
v 4.415760 -0.000003 -39.755508
v 2.652918 -0.000003 -39.911930
v 0.884883 -0.000003 -39.990211
v -0.884883 -0.000003 -39.990211
v -2.652918 -0.000003 -39.911930
v -4.415760 -0.000003 -39.755508
v -6.169957 -0.000003 -39.521278
v -7.912077 -0.000003 -39.209679
v -9.638709 -0.000003 -38.821320
v -11.346470 -0.000003 -38.356972
v -13.032020 -0.000003 -37.817539
v -14.692060 -0.000003 -37.204071
v -16.323339 -0.000003 -36.517780
v -17.922670 -0.000003 -35.759998
v -19.486910 -0.000003 -34.932220
v -21.013010 -0.000003 -34.036060
v -22.497971 -0.000002 -33.073269
v -23.938890 -0.000002 -32.045738
v -25.332951 -0.000002 -30.955481
v -26.677420 -0.000002 -29.804621
v -27.969669 -0.000002 -28.595409
v -29.207161 -0.000002 -27.330231
v -30.387480 -0.000002 -26.011551
v -31.508320 -0.000002 -24.641951
v -32.567471 -0.000002 -23.224119
v -33.562881 -0.000002 -21.760820
v -34.492580 -0.000002 -20.254919
v -35.354771 -0.000001 -18.709370
v -36.147739 -0.000001 -17.127199
v -36.869949 -0.000001 -15.511500
v -37.519989 -0.000001 -13.865440
v -38.096581 -0.000001 -12.192230
v -38.598598 -0.000001 -10.495160
v -39.025051 -0.000001 -8.777542
v -39.375118 -0.000001 -7.042741
v -39.648102 0.000000 -5.294154
v -39.843472 0.000000 -3.535204
v -39.960850 0.000000 -1.769334
v -40.000000 0.000000 0.000000
v -39.960850 0.000000 1.769334
v -39.843472 0.000000 3.535204
v -39.648102 0.000000 5.294154
v -39.375118 0.000001 7.042741
v -39.025051 0.000001 8.777542
v -38.598598 0.000001 10.495160
v -38.096581 0.000001 12.192230
v -37.519989 0.000001 13.865440
v -36.869949 0.000001 15.511500
v -36.147739 0.000001 17.127199
v -35.354771 0.000001 18.709370
v -34.492580 0.000002 20.254919
v -33.562881 0.000002 21.760820
v -32.567471 0.000002 23.224119
v -31.508320 0.000002 24.641951
v -30.387480 0.000002 26.011551
v -29.207161 0.000002 27.330231
v -27.969669 0.000002 28.595409
v -26.677420 0.000002 29.804621
v -25.332951 0.000002 30.955481
v -23.938890 0.000002 32.045738
v -22.497971 0.000002 33.073269
v -21.013010 0.000003 34.036060
v -19.486910 0.000003 34.932220
v -17.922670 0.000003 35.759998
v -16.323339 0.000003 36.517780
v -14.692060 0.000003 37.204071
v -13.032020 0.000003 37.817539
v -11.346470 0.000003 38.356972
v -9.638709 0.000003 38.821320
v -7.912077 0.000003 39.209679
v -6.169957 0.000003 39.521278
v -4.415760 0.000003 39.755508
v -2.652918 0.000003 39.911930
v -0.884883 0.000003 39.990211
v 0.884883 0.000003 39.990211
v 2.652918 0.000003 39.911930
v 4.415760 0.000003 39.755508
v 6.169957 0.000003 39.521278
v 7.912077 0.000003 39.209679
v 9.638709 0.000003 38.821320
v 11.346470 0.000003 38.356972
v 13.032020 0.000003 37.817539
v 14.692060 0.000003 37.204071
v 16.323339 0.000003 36.517780
v 17.922670 0.000003 35.759998
v 19.486910 0.000003 34.932220
v 21.013010 0.000003 34.036060
v 22.497971 0.000002 33.073269
v 23.938890 0.000002 32.045738
v 25.332951 0.000002 30.955481
v 26.677420 0.000002 29.804621
v 27.969669 0.000002 28.595409
v 29.207161 0.000002 27.330231
v 30.387480 0.000002 26.011551
v 31.508320 0.000002 24.641951
v 32.567471 0.000002 23.224119
v 33.562881 0.000002 21.760820
v 34.492580 0.000002 20.254919
v 35.354771 0.000001 18.709370
v 36.147739 0.000001 17.127199
v 36.869949 0.000001 15.511500
v 37.519989 0.000001 13.865440
v 38.096581 0.000001 12.192230
v 38.598598 0.000001 10.495160
v 39.025051 0.000001 8.777542
v 39.375118 0.000001 7.042741
v 39.648102 0.000000 5.294154
v 39.843472 0.000000 3.535204
v 39.960850 0.000000 1.769334
vn -1.0000 -0.0000 -0.0000
vn 1.0000 -0.0000 -0.0000
vn -0.0000 1.0000 -0.0000
vn -0.0000 0.7659 0.6429
vn -0.0000 0.7870 0.6170
vn -0.0000 0.8264 0.5631
vn -0.0000 0.8622 0.5066
vn -0.0000 0.8940 0.4480
vn -0.0000 0.9220 0.3873
vn -0.0000 0.9220 0.3872
vn -0.0000 0.9457 0.3249
vn -0.0000 0.9653 0.2610
vn -0.0000 0.9806 0.1960
vn -0.0000 0.9915 0.1300
vn -0.0000 0.9980 0.0637
vn -0.0000 0.9980 0.0636
vn -0.0000 1.0000 -0.0032
vn -0.0000 0.9976 -0.0699
vn -0.0000 0.9907 -0.1363
vn -0.0000 0.9794 -0.2022
vn -0.0000 0.9637 -0.2670
vn -0.0000 0.9437 -0.3308
vn -0.0000 0.9195 -0.3930
vn -0.0000 0.8912 -0.4536
vn -0.0000 0.8590 -0.5120
vn -0.0000 0.8229 -0.5682
vn -0.0000 0.7831 -0.6219
vn -0.0000 0.7398 -0.6728
vn -0.0000 0.6933 -0.7207
vn -0.0000 0.6436 -0.7653
vn -0.0000 0.5911 -0.8066
vn -0.0000 0.5359 -0.8443
vn -0.0000 0.4784 -0.8782
vn -0.0000 0.4187 -0.9081
vn -0.0000 0.3571 -0.9340
vn -0.0000 0.3571 -0.9341
vn -0.0000 0.2940 -0.9558
vn -0.0000 0.2295 -0.9733
vn -0.0000 0.1640 -0.9865
vn -0.0000 0.0978 -0.9952
vn -0.0000 0.0312 -0.9995
vn -0.0000 -0.0356 -0.9994
vn -0.0000 -0.1022 -0.9948
vn -0.0000 -0.1684 -0.9857
vn -0.0000 -0.2338 -0.9723
vn -0.0000 -0.2982 -0.9545
vn -0.0000 -0.3613 -0.9325
vn -0.0000 -0.4227 -0.9063
vn -0.0000 -1.0000 -0.0000
vn -0.0000 -1.0000 -0.0001
vn -1.0000 0.0001 -0.0000
vn -0.0000 -0.4527 -0.8916
vn 1.0000 0.0001 -0.0000
vn 0.0221 0.0003 -0.9998
vn -0.0000 -0.0003 -1.0000
vn -0.0221 0.0003 -0.9998
vn -0.0442 -0.0003 -0.9990
vn -0.0663 0.0003 -0.9978
vn -0.0884 -0.0003 -0.9961
vn -0.1104 0.0003 -0.9939
vn -0.1323 -0.0003 -0.9912
vn -0.1542 0.0003 -0.9880
vn -0.1761 -0.0003 -0.9844
vn -0.1978 0.0003 -0.9802
vn -0.2194 -0.0003 -0.9756
vn -0.2410 0.0003 -0.9705
vn -0.2624 -0.0003 -0.9650
vn -0.2837 0.0003 -0.9589
vn -0.3048 -0.0003 -0.9524
vn -0.3258 0.0003 -0.9454
vn -0.3466 -0.0003 -0.9380
vn -0.3673 0.0003 -0.9301
vn -0.3878 -0.0003 -0.9218
vn -0.4081 0.0003 -0.9129
vn -0.4282 -0.0003 -0.9037
vn -0.4481 0.0003 -0.8940
vn -0.4677 -0.0003 -0.8839
vn -0.4872 0.0003 -0.8733
vn -0.5064 -0.0003 -0.8623
vn -0.5253 0.0003 -0.8509
vn -0.5440 -0.0003 -0.8391
vn -0.5625 0.0003 -0.8268
vn -0.5806 -0.0003 -0.8142
vn -0.5985 0.0003 -0.8011
vn -0.6160 -0.0003 -0.7877
vn -0.6333 0.0003 -0.7739
vn -0.6503 -0.0003 -0.7597
vn -0.6669 0.0003 -0.7451
vn -0.6833 -0.0003 -0.7302
vn -0.6992 0.0003 -0.7149
vn -0.7149 -0.0003 -0.6992
vn -0.7302 0.0003 -0.6833
vn -0.7451 -0.0003 -0.6669
vn -0.7597 0.0003 -0.6503
vn -0.7739 -0.0003 -0.6333
vn -0.7877 0.0003 -0.6160
vn -0.8011 -0.0003 -0.5985
vn -0.8142 0.0003 -0.5806
vn -0.8268 -0.0003 -0.5625
vn -0.8391 0.0003 -0.5440
vn -0.8509 -0.0003 -0.5253
vn -0.8623 0.0003 -0.5064
vn -0.8733 -0.0003 -0.4872
vn -0.8839 0.0003 -0.4677
vn -0.8940 -0.0003 -0.4481
vn -0.9037 0.0003 -0.4282
vn -0.9129 -0.0003 -0.4081
vn -0.9217 0.0003 -0.3878
vn -0.9301 -0.0003 -0.3673
vn -0.9380 0.0003 -0.3466
vn -0.9454 -0.0003 -0.3258
vn -0.9524 0.0003 -0.3048
vn -0.9589 -0.0003 -0.2837
vn -0.9650 0.0003 -0.2624
vn -0.9705 -0.0003 -0.2410
vn -0.9756 0.0003 -0.2194
vn -0.9802 -0.0003 -0.1978
vn -0.9844 0.0003 -0.1761
vn -0.9880 -0.0003 -0.1542
vn -0.9912 0.0003 -0.1324
vn -0.9939 -0.0003 -0.1104
vn -0.9961 0.0003 -0.0884
vn -0.9978 -0.0003 -0.0663
vn -0.9990 0.0003 -0.0442
vn -0.9998 -0.0003 -0.0221
vn -1.0000 0.0003 -0.0000
vn -0.9998 -0.0003 0.0221
vn -0.9990 0.0003 0.0442
vn -0.9978 -0.0003 0.0663
vn -0.9961 0.0003 0.0884
vn -0.9939 -0.0003 0.1104
vn -0.9912 0.0003 0.1324
vn -0.9880 -0.0003 0.1542
vn -0.9844 0.0003 0.1761
vn -0.9802 -0.0003 0.1978
vn -0.9756 0.0003 0.2194
vn -0.9705 -0.0003 0.2410
vn -0.9650 0.0003 0.2624
vn -0.9589 -0.0003 0.2837
vn -0.9524 0.0003 0.3048
vn -0.9454 -0.0003 0.3258
vn -0.9380 0.0003 0.3466
vn -0.9301 -0.0003 0.3673
vn -0.9217 0.0003 0.3878
vn -0.9129 -0.0003 0.4081
vn -0.9037 0.0003 0.4282
vn -0.8940 -0.0003 0.4481
vn -0.8839 0.0003 0.4677
vn -0.8733 -0.0003 0.4872
vn -0.8623 0.0003 0.5064
vn -0.8509 -0.0003 0.5253
vn -0.8391 0.0003 0.5440
vn -0.8268 -0.0003 0.5625
vn -0.8142 0.0003 0.5806
vn -0.8011 -0.0003 0.5985
vn -0.7877 0.0003 0.6160
vn -0.7739 -0.0003 0.6333
vn -0.7597 0.0003 0.6503
vn -0.7451 -0.0003 0.6669
vn -0.7302 0.0003 0.6833
vn -0.7149 -0.0003 0.6992
vn -0.6992 0.0003 0.7149
vn -0.6833 -0.0003 0.7302
vn -0.6669 0.0003 0.7451
vn -0.6503 -0.0003 0.7597
vn -0.6333 0.0003 0.7739
vn -0.6160 -0.0003 0.7877
vn -0.5985 0.0003 0.8011
vn -0.5806 -0.0003 0.8142
vn -0.5625 0.0003 0.8268
vn -0.5440 -0.0003 0.8391
vn -0.5253 0.0003 0.8509
vn -0.5064 -0.0003 0.8623
vn -0.4872 0.0003 0.8733
vn -0.4677 -0.0003 0.8839
vn -0.4481 0.0003 0.8940
vn -0.4282 -0.0003 0.9037
vn -0.4081 0.0003 0.9129
vn -0.3878 -0.0003 0.9217
vn -0.3673 0.0003 0.9301
vn -0.3466 -0.0003 0.9380
vn -0.3258 0.0003 0.9454
vn -0.3048 -0.0003 0.9524
vn -0.2837 0.0003 0.9589
vn -0.2624 -0.0003 0.9650
vn -0.2410 0.0003 0.9705
vn -0.2194 -0.0003 0.9756
vn -0.1978 0.0003 0.9802
vn -0.1761 -0.0003 0.9844
vn -0.1542 0.0003 0.9880
vn -0.1324 -0.0003 0.9912
vn -0.1104 0.0003 0.9939
vn -0.0884 -0.0003 0.9961
vn -0.0663 0.0003 0.9978
vn -0.0442 -0.0003 0.9990
vn -0.0221 0.0003 0.9998
vn -0.0000 -0.0003 1.0000
vn 0.0221 0.0003 0.9998
vn 0.0442 -0.0003 0.9990
vn 0.0663 0.0003 0.9978
vn 0.0884 -0.0003 0.9961
vn 0.1104 0.0003 0.9939
vn 0.1324 -0.0003 0.9912
vn 0.1542 0.0003 0.9880
vn 0.1761 -0.0003 0.9844
vn 0.1978 0.0003 0.9802
vn 0.2194 -0.0003 0.9756
vn 0.2410 0.0003 0.9705
vn 0.2624 -0.0003 0.9650
vn 0.2837 0.0003 0.9589
vn 0.3048 -0.0003 0.9524
vn 0.3258 0.0003 0.9454
vn 0.3466 -0.0003 0.9380
vn 0.3673 0.0003 0.9301
vn 0.3878 -0.0003 0.9217
vn 0.4081 0.0003 0.9129
vn 0.4282 -0.0003 0.9037
vn 0.4481 0.0003 0.8940
vn 0.4677 -0.0003 0.8839
vn 0.4872 0.0003 0.8733
vn 0.5064 -0.0003 0.8623
vn 0.5253 0.0003 0.8509
vn 0.5440 -0.0003 0.8391
vn 0.5625 0.0003 0.8268
vn 0.5806 -0.0003 0.8142
vn 0.5985 0.0003 0.8011
vn 0.6160 -0.0003 0.7877
vn 0.6333 0.0003 0.7739
vn 0.6503 -0.0003 0.7597
vn 0.6669 0.0003 0.7451
vn 0.6833 -0.0003 0.7302
vn 0.6992 0.0003 0.7149
vn 0.7149 -0.0003 0.6992
vn 0.7302 0.0003 0.6833
vn 0.7451 -0.0003 0.6669
vn 0.7597 0.0003 0.6503
vn 0.7739 -0.0003 0.6333
vn 0.7877 0.0003 0.6160
vn 0.8011 -0.0003 0.5985
vn 0.8142 0.0003 0.5806
vn 0.8268 -0.0003 0.5625
vn 0.8391 0.0003 0.5440
vn 0.8509 -0.0003 0.5253
vn 0.8623 0.0003 0.5064
vn 0.8733 -0.0003 0.4872
vn 0.8839 0.0003 0.4677
vn 0.8940 -0.0003 0.4481
vn 0.9037 0.0003 0.4282
vn 0.9129 -0.0003 0.4081
vn 0.9217 0.0003 0.3878
vn 0.9301 -0.0003 0.3673
vn 0.9380 0.0003 0.3466
vn 0.9454 -0.0003 0.3258
vn 0.9524 0.0003 0.3048
vn 0.9589 -0.0003 0.2837
vn 0.9650 0.0003 0.2624
vn 0.9705 -0.0003 0.2410
vn 0.9756 0.0003 0.2194
vn 0.9802 -0.0003 0.1978
vn 0.9844 0.0003 0.1761
vn 0.9880 -0.0003 0.1542
vn 0.9912 0.0003 0.1324
vn 0.9939 -0.0003 0.1104
vn 0.9961 0.0003 0.0884
vn 0.9978 -0.0003 0.0663
vn 0.9990 0.0003 0.0442
vn 0.9998 -0.0003 0.0221
vn 1.0000 0.0003 -0.0000
vn 0.9998 -0.0003 -0.0221
vn 0.9990 0.0003 -0.0442
vn 0.9978 -0.0003 -0.0663
vn 0.9961 0.0003 -0.0884
vn 0.9939 -0.0003 -0.1104
vn 0.9912 0.0003 -0.1324
vn 0.9880 -0.0003 -0.1542
vn 0.9844 0.0003 -0.1761
vn 0.9802 -0.0003 -0.1978
vn 0.9756 0.0003 -0.2194
vn 0.9705 -0.0003 -0.2410
vn 0.9650 0.0003 -0.2624
vn 0.9589 -0.0003 -0.2837
vn 0.9524 0.0003 -0.3048
vn 0.9454 -0.0003 -0.3258
vn 0.9380 0.0003 -0.3466
vn 0.9301 -0.0003 -0.3673
vn 0.9217 0.0003 -0.3878
vn 0.9129 -0.0003 -0.4081
vn 0.9037 0.0003 -0.4282
vn 0.8940 -0.0003 -0.4481
vn 0.8839 0.0003 -0.4677
vn 0.8733 -0.0003 -0.4872
vn 0.8623 0.0003 -0.5064
vn 0.8509 -0.0003 -0.5253
vn 0.8391 0.0003 -0.5440
vn 0.8268 -0.0003 -0.5625
vn 0.8142 0.0003 -0.5806
vn 0.8011 -0.0003 -0.5985
vn 0.7877 0.0003 -0.6160
vn 0.7739 -0.0003 -0.6333
vn 0.7597 0.0003 -0.6503
vn 0.7451 -0.0003 -0.6669
vn 0.7302 0.0003 -0.6833
vn 0.7149 -0.0003 -0.6992
vn 0.6992 0.0003 -0.7149
vn 0.6833 -0.0003 -0.7302
vn 0.6669 0.0003 -0.7451
vn 0.6503 -0.0003 -0.7597
vn 0.6333 0.0003 -0.7739
vn 0.6160 -0.0003 -0.7877
vn 0.5985 0.0003 -0.8011
vn 0.5806 -0.0003 -0.8142
vn 0.5625 0.0003 -0.8268
vn 0.5440 -0.0003 -0.8391
vn 0.5253 0.0003 -0.8509
vn 0.5064 -0.0003 -0.8623
vn 0.4872 0.0003 -0.8733
vn 0.4677 -0.0003 -0.8839
vn 0.4481 0.0003 -0.8940
vn 0.4282 -0.0003 -0.9037
vn 0.4081 0.0003 -0.9129
vn 0.3878 -0.0003 -0.9218
vn 0.3673 0.0003 -0.9301
vn 0.3466 -0.0003 -0.9380
vn 0.3258 0.0003 -0.9454
vn 0.3048 -0.0003 -0.9524
vn 0.2837 0.0003 -0.9589
vn 0.2624 -0.0003 -0.9650
vn 0.2410 0.0003 -0.9705
vn 0.2194 -0.0003 -0.9756
vn 0.1978 0.0003 -0.9802
vn 0.1761 -0.0003 -0.9844
vn 0.1542 0.0003 -0.9880
vn 0.1323 -0.0003 -0.9912
vn 0.1104 0.0003 -0.9939
vn 0.0884 -0.0003 -0.9961
vn 0.0663 0.0003 -0.9978
vn 0.0442 -0.0003 -0.9990
s 0
f 2//1 3//1 1//1
f 1//1 3//1 4//1
f 1//1 4//1 44//1
f 44//1 4//1 43//1
f 43//1 4//1 42//1
f 42//1 4//1 41//1
f 41//1 4//1 40//1
f 40//1 4//1 39//1
f 39//1 4//1 38//1
f 38//1 4//1 37//1
f 37//1 4//1 36//1
f 36//1 4//1 35//1
f 35//1 4//1 34//1
f 34//1 4//1 33//1
f 33//1 4//1 32//1
f 32//1 4//1 31//1
f 31//1 4//1 30//1
f 30//1 4//1 29//1
f 29//1 4//1 28//1
f 28//1 4//1 27//1
f 27//1 4//1 26//1
f 26//1 4//1 25//1
f 25//1 4//1 24//1
f 24//1 4//1 5//1
f 24//1 5//1 23//1
f 23//1 5//1 6//1
f 23//1 6//1 22//1
f 22//1 6//1 7//1
f 22//1 7//1 21//1
f 21//1 7//1 8//1
f 21//1 8//1 20//1
f 20//1 8//1 9//1
f 20//1 9//1 19//1
f 19//1 9//1 10//1
f 19//1 10//1 18//1
f 18//1 10//1 11//1
f 18//1 11//1 17//1
f 17//1 11//1 12//1
f 17//1 12//1 16//1
f 16//1 12//1 13//1
f 16//1 13//1 15//1
f 15//1 13//1 14//1
f 45//2 46//2 88//2
f 88//2 46//2 87//2
f 87//2 46//2 47//2
f 87//2 47//2 48//2
f 48//2 49//2 87//2
f 87//2 49//2 50//2
f 87//2 50//2 51//2
f 51//2 52//2 87//2
f 87//2 52//2 53//2
f 87//2 53//2 54//2
f 54//2 55//2 87//2
f 87//2 55//2 56//2
f 87//2 56//2 57//2
f 57//2 58//2 87//2
f 87//2 58//2 59//2
f 87//2 59//2 60//2
f 60//2 61//2 87//2
f 87//2 61//2 62//2
f 87//2 62//2 63//2
f 63//2 64//2 87//2
f 87//2 64//2 65//2
f 87//2 65//2 66//2
f 66//2 67//2 87//2
f 87//2 67//2 86//2
f 86//2 67//2 68//2
f 86//2 68//2 85//2
f 85//2 68//2 69//2
f 85//2 69//2 84//2
f 84//2 69//2 70//2
f 84//2 70//2 83//2
f 83//2 70//2 71//2
f 83//2 71//2 82//2
f 82//2 71//2 72//2
f 82//2 72//2 81//2
f 81//2 72//2 73//2
f 81//2 73//2 80//2
f 80//2 73//2 74//2
f 80//2 74//2 79//2
f 79//2 74//2 75//2
f 79//2 75//2 78//2
f 78//2 75//2 76//2
f 78//2 76//2 77//2
f 45//3 88//3 2//3
f 2//3 88//3 3//3
f 4//4 3//4 93//4
f 93//4 3//4 92//4
f 92//4 3//4 91//4
f 91//4 3//4 88//4
f 91//4 88//4 90//4
f 90//4 88//4 89//4
f 89//4 88//4 87//4
f 89//5 87//5 134//5
f 134//5 87//5 86//5
f 134//6 86//6 133//6
f 133//6 86//6 85//6
f 133//7 85//7 132//7
f 132//7 85//7 84//7
f 132//8 84//8 131//8
f 131//8 84//8 83//8
f 131//9 83//9 130//9
f 130//10 83//10 82//10
f 130//11 82//11 129//11
f 129//11 82//11 81//11
f 129//12 81//12 128//12
f 128//12 81//12 80//12
f 128//13 80//13 127//13
f 127//13 80//13 79//13
f 127//14 79//14 126//14
f 126//14 79//14 78//14
f 126//15 78//15 125//15
f 125//16 78//16 77//16
f 125//17 77//17 124//17
f 124//17 77//17 76//17
f 124//18 76//18 123//18
f 123//18 76//18 75//18
f 123//19 75//19 122//19
f 122//19 75//19 74//19
f 122//20 74//20 121//20
f 121//20 74//20 73//20
f 121//21 73//21 120//21
f 120//21 73//21 72//21
f 120//22 72//22 119//22
f 119//22 72//22 71//22
f 119//23 71//23 118//23
f 118//23 71//23 70//23
f 118//24 70//24 117//24
f 117//24 70//24 69//24
f 117//25 69//25 116//25
f 116//25 69//25 68//25
f 116//26 68//26 115//26
f 115//26 68//26 67//26
f 115//27 67//27 114//27
f 114//27 67//27 66//27
f 114//28 66//28 113//28
f 113//28 66//28 65//28
f 113//29 65//29 112//29
f 112//29 65//29 64//29
f 112//30 64//30 111//30
f 111//30 64//30 63//30
f 111//31 63//31 110//31
f 110//31 63//31 62//31
f 110//32 62//32 109//32
f 109//32 62//32 61//32
f 109//33 61//33 108//33
f 108//33 61//33 60//33
f 108//34 60//34 107//34
f 107//34 60//34 59//34
f 107//35 59//35 106//35
f 106//36 59//36 58//36
f 106//37 58//37 105//37
f 105//37 58//37 57//37
f 105//38 57//38 104//38
f 104//38 57//38 56//38
f 104//39 56//39 103//39
f 103//39 56//39 55//39
f 103//40 55//40 102//40
f 102//40 55//40 54//40
f 102//41 54//41 101//41
f 101//41 54//41 53//41
f 101//42 53//42 100//42
f 100//42 53//42 52//42
f 100//43 52//43 99//43
f 99//43 52//43 51//43
f 99//44 51//44 98//44
f 98//44 51//44 50//44
f 98//45 50//45 97//45
f 97//45 50//45 49//45
f 97//46 49//46 96//46
f 96//46 49//46 48//46
f 96//47 48//47 95//47
f 95//47 48//47 47//47
f 95//48 47//48 94//48
f 94//48 47//48 46//48
f 175//48 1//48 174//48
f 174//48 1//48 44//48
f 174//47 44//47 173//47
f 173//47 44//47 43//47
f 173//46 43//46 172//46
f 172//46 43//46 42//46
f 172//45 42//45 171//45
f 171//45 42//45 41//45
f 171//44 41//44 170//44
f 170//44 41//44 40//44
f 170//43 40//43 169//43
f 169//43 40//43 39//43
f 169//42 39//42 168//42
f 168//42 39//42 38//42
f 168//41 38//41 167//41
f 167//41 38//41 37//41
f 167//40 37//40 166//40
f 166//40 37//40 36//40
f 166//39 36//39 165//39
f 165//39 36//39 35//39
f 165//38 35//38 164//38
f 164//38 35//38 34//38
f 164//37 34//37 163//37
f 163//37 34//37 33//37
f 163//36 33//36 162//36
f 162//35 33//35 32//35
f 162//34 32//34 161//34
f 161//34 32//34 31//34
f 161//33 31//33 160//33
f 160//33 31//33 30//33
f 160//32 30//32 159//32
f 159//32 30//32 29//32
f 159//31 29//31 158//31
f 158//31 29//31 28//31
f 158//30 28//30 157//30
f 157//30 28//30 27//30
f 157//29 27//29 156//29
f 156//29 27//29 26//29
f 156//28 26//28 155//28
f 155//28 26//28 25//28
f 155//27 25//27 154//27
f 154//27 25//27 24//27
f 154//26 24//26 153//26
f 153//26 24//26 23//26
f 153//25 23//25 152//25
f 152//25 23//25 22//25
f 152//24 22//24 151//24
f 151//24 22//24 21//24
f 151//23 21//23 150//23
f 150//23 21//23 20//23
f 150//22 20//22 149//22
f 149//22 20//22 19//22
f 149//21 19//21 148//21
f 148//21 19//21 18//21
f 148//20 18//20 147//20
f 147//20 18//20 17//20
f 147//19 17//19 146//19
f 146//19 17//19 16//19
f 146//18 16//18 145//18
f 145//18 16//18 15//18
f 145//17 15//17 144//17
f 144//17 15//17 14//17
f 144//16 14//16 143//16
f 143//15 14//15 13//15
f 143//14 13//14 142//14
f 142//14 13//14 12//14
f 142//13 12//13 141//13
f 141//13 12//13 11//13
f 141//12 11//12 140//12
f 140//12 11//12 10//12
f 140//11 10//11 139//11
f 139//11 10//11 9//11
f 139//10 9//10 138//10
f 138//9 9//9 8//9
f 138//8 8//8 137//8
f 137//8 8//8 7//8
f 137//7 7//7 136//7
f 136//7 7//7 6//7
f 136//6 6//6 135//6
f 135//6 6//6 5//6
f 135//5 5//5 93//5
f 93//5 5//5 4//5
f 176//49 177//49 247//49
f 247//49 177//49 178//49
f 247//49 178//49 179//49
f 179//49 180//49 247//49
f 247//49 180//49 181//49
f 247//49 181//49 182//49
f 182//49 183//49 247//49
f 247//49 183//49 184//49
f 247//49 184//49 185//49
f 185//49 186//49 247//49
f 247//49 186//49 187//49
f 247//49 187//49 188//49
f 188//49 189//49 247//49
f 247//49 189//49 190//49
f 247//49 190//49 191//49
f 191//49 192//49 247//49
f 247//49 192//49 193//49
f 247//49 193//49 194//49
f 194//49 195//49 247//49
f 247//49 195//49 196//49
f 247//49 196//49 197//49
f 197//49 198//49 247//49
f 247//49 198//49 199//49
f 247//49 199//49 200//49
f 200//49 201//49 247//49
f 247//49 201//49 202//49
f 247//49 202//49 203//49
f 203//49 204//49 247//49
f 247//49 204//49 205//49
f 247//49 205//49 206//49
f 206//49 207//49 247//49
f 247//49 207//49 208//49
f 247//49 208//49 209//49
f 209//49 210//49 247//49
f 247//49 210//49 211//49
f 247//49 211//49 212//49
f 247//49 212//49 90//49
f 90//49 212//49 213//49
f 90//49 213//49 214//49
f 214//49 215//49 90//49
f 90//49 215//49 216//49
f 90//49 216//49 217//49
f 217//49 218//49 90//49
f 90//49 218//49 219//49
f 90//49 219//49 220//49
f 220//49 221//49 90//49
f 90//49 221//49 222//49
f 90//49 222//49 223//49
f 223//49 224//49 90//49
f 90//49 224//49 225//49
f 90//49 225//49 226//49
f 226//49 227//49 90//49
f 90//49 227//49 228//49
f 90//49 228//49 229//49
f 229//49 230//49 90//49
f 90//49 230//49 231//49
f 90//49 231//49 232//49
f 232//49 233//49 90//49
f 90//49 233//49 234//49
f 90//49 234//49 235//49
f 235//49 236//49 90//49
f 90//49 236//49 237//49
f 90//49 237//49 238//49
f 238//49 239//49 90//49
f 90//49 239//49 240//49
f 90//49 240//49 241//49
f 241//49 242//49 90//49
f 90//49 242//49 243//49
f 90//49 243//49 244//49
f 244//49 245//49 90//49
f 90//49 245//49 246//49
f 90//50 246//50 91//50
f 91//50 248//50 92//50
f 92//49 248//49 249//49
f 92//49 249//49 250//49
f 250//49 251//49 92//49
f 92//49 251//49 252//49
f 92//49 252//49 253//49
f 253//49 254//49 92//49
f 92//49 254//49 255//49
f 92//49 255//49 256//49
f 256//49 257//49 92//49
f 92//49 257//49 258//49
f 92//49 258//49 259//49
f 259//49 260//49 92//49
f 92//49 260//49 261//49
f 92//49 261//49 262//49
f 262//49 263//49 92//49
f 92//49 263//49 264//49
f 92//49 264//49 265//49
f 265//49 266//49 92//49
f 92//49 266//49 267//49
f 92//49 267//49 268//49
f 268//49 269//49 92//49
f 92//49 269//49 270//49
f 92//49 270//49 271//49
f 271//49 272//49 92//49
f 92//49 272//49 273//49
f 92//49 273//49 274//49
f 274//49 275//49 92//49
f 92//49 275//49 276//49
f 92//49 276//49 277//49
f 277//49 278//49 92//49
f 92//49 278//49 279//49
f 92//49 279//49 280//49
f 280//49 281//49 92//49
f 92//49 281//49 282//49
f 92//49 282//49 283//49
f 92//49 283//49 318//49
f 318//49 283//49 284//49
f 318//49 284//49 285//49
f 285//49 286//49 318//49
f 318//49 286//49 287//49
f 318//49 287//49 288//49
f 288//49 289//49 318//49
f 318//49 289//49 290//49
f 318//49 290//49 291//49
f 291//49 292//49 318//49
f 318//49 292//49 293//49
f 318//49 293//49 294//49
f 294//49 295//49 318//49
f 318//49 295//49 296//49
f 318//49 296//49 297//49
f 297//49 298//49 318//49
f 318//49 298//49 299//49
f 318//49 299//49 300//49
f 300//49 301//49 318//49
f 318//49 301//49 302//49
f 318//49 302//49 303//49
f 303//49 304//49 318//49
f 318//49 304//49 305//49
f 318//49 305//49 306//49
f 306//49 307//49 318//49
f 318//49 307//49 308//49
f 318//49 308//49 309//49
f 309//49 310//49 318//49
f 318//49 310//49 311//49
f 318//49 311//49 312//49
f 312//49 313//49 318//49
f 318//49 313//49 314//49
f 318//49 314//49 315//49
f 315//49 316//49 318//49
f 318//49 316//49 317//49
f 318//50 317//50 176//50
f 247//1 90//1 94//1
f 94//1 90//1 89//1
f 94//1 89//1 95//1
f 95//1 89//1 96//1
f 96//1 89//1 97//1
f 97//1 89//1 98//1
f 98//1 89//1 99//1
f 99//1 89//1 100//1
f 100//1 89//1 101//1
f 101//1 89//1 102//1
f 102//1 89//1 103//1
f 103//1 89//1 104//1
f 104//1 89//1 105//1
f 105//1 89//1 106//1
f 106//1 89//1 107//1
f 107//1 89//1 108//1
f 108//1 89//1 109//1
f 109//1 89//1 110//1
f 110//1 89//1 111//1
f 111//1 89//1 112//1
f 112//1 89//1 113//1
f 113//1 89//1 114//1
f 114//1 89//1 115//1
f 115//1 89//1 134//1
f 115//1 134//1 116//1
f 116//1 134//1 133//1
f 116//1 133//1 117//1
f 117//1 133//1 132//1
f 117//1 132//1 118//1
f 118//1 132//1 131//1
f 118//1 131//1 119//1
f 119//1 131//1 130//1
f 119//1 130//1 120//1
f 120//1 130//1 129//1
f 120//1 129//1 121//1
f 121//1 129//1 128//1
f 121//1 128//1 122//1
f 122//1 128//1 127//1
f 122//1 127//1 123//1
f 123//1 127//1 126//1
f 123//1 126//1 124//1
f 124//51 126//51 125//51
f 1//52 175//52 2//52
f 2//52 175//52 318//52
f 2//52 318//52 176//52
f 2//52 176//52 45//52
f 45//52 176//52 247//52
f 45//52 247//52 94//52
f 94//52 46//52 45//52
f 318//2 175//2 92//2
f 92//2 175//2 93//2
f 93//2 175//2 174//2
f 93//2 174//2 173//2
f 173//2 172//2 93//2
f 93//2 172//2 171//2
f 93//2 171//2 170//2
f 170//2 169//2 93//2
f 93//2 169//2 168//2
f 93//2 168//2 167//2
f 167//2 166//2 93//2
f 93//2 166//2 165//2
f 93//2 165//2 164//2
f 164//2 163//2 93//2
f 93//2 163//2 162//2
f 93//2 162//2 161//2
f 161//2 160//2 93//2
f 93//2 160//2 159//2
f 93//2 159//2 158//2
f 158//2 157//2 93//2
f 93//2 157//2 156//2
f 93//2 156//2 155//2
f 155//2 154//2 93//2
f 93//2 154//2 135//2
f 135//2 154//2 153//2
f 135//2 153//2 136//2
f 136//2 153//2 152//2
f 136//2 152//2 137//2
f 137//2 152//2 151//2
f 137//2 151//2 138//2
f 138//2 151//2 150//2
f 138//2 150//2 139//2
f 139//2 150//2 149//2
f 139//2 149//2 140//2
f 140//2 149//2 148//2
f 140//2 148//2 141//2
f 141//2 148//2 147//2
f 141//2 147//2 142//2
f 142//2 147//2 146//2
f 142//2 146//2 143//2
f 143//2 146//2 145//2
f 143//53 145//53 144//53
f 317//54 354//54 176//54
f 176//55 354//55 355//55
f 176//56 355//56 177//56
f 177//57 355//57 356//57
f 177//58 356//58 178//58
f 178//59 356//59 357//59
f 178//60 357//60 179//60
f 179//61 357//61 358//61
f 179//62 358//62 180//62
f 180//63 358//63 359//63
f 180//64 359//64 181//64
f 181//65 359//65 360//65
f 181//66 360//66 182//66
f 182//67 360//67 361//67
f 182//68 361//68 183//68
f 183//69 361//69 362//69
f 183//70 362//70 184//70
f 184//71 362//71 363//71
f 184//72 363//72 185//72
f 185//73 363//73 364//73
f 185//74 364//74 186//74
f 186//75 364//75 365//75
f 186//76 365//76 187//76
f 187//77 365//77 366//77
f 187//78 366//78 188//78
f 188//79 366//79 367//79
f 188//80 367//80 189//80
f 189//81 367//81 368//81
f 189//82 368//82 190//82
f 190//83 368//83 369//83
f 190//84 369//84 191//84
f 191//85 369//85 370//85
f 191//86 370//86 192//86
f 192//87 370//87 371//87
f 192//88 371//88 193//88
f 193//89 371//89 372//89
f 193//90 372//90 194//90
f 194//91 372//91 373//91
f 194//92 373//92 195//92
f 195//93 373//93 374//93
f 195//94 374//94 196//94
f 196//95 374//95 375//95
f 196//96 375//96 197//96
f 197//97 375//97 376//97
f 197//98 376//98 198//98
f 198//99 376//99 377//99
f 198//100 377//100 199//100
f 199//101 377//101 378//101
f 199//102 378//102 200//102
f 200//103 378//103 379//103
f 200//104 379//104 201//104
f 201//105 379//105 380//105
f 201//106 380//106 202//106
f 202//107 380//107 381//107
f 202//108 381//108 203//108
f 203//109 381//109 382//109
f 203//110 382//110 204//110
f 204//111 382//111 383//111
f 204//112 383//112 205//112
f 205//113 383//113 384//113
f 205//114 384//114 206//114
f 206//115 384//115 385//115
f 206//116 385//116 207//116
f 207//117 385//117 386//117
f 207//118 386//118 208//118
f 208//119 386//119 387//119
f 208//120 387//120 209//120
f 209//121 387//121 388//121
f 209//122 388//122 210//122
f 210//123 388//123 389//123
f 210//124 389//124 211//124
f 211//125 389//125 390//125
f 211//126 390//126 212//126
f 212//127 390//127 391//127
f 212//128 391//128 213//128
f 213//129 391//129 392//129
f 213//130 392//130 214//130
f 214//131 392//131 393//131
f 214//132 393//132 215//132
f 215//133 393//133 394//133
f 215//134 394//134 216//134
f 216//135 394//135 395//135
f 216//136 395//136 217//136
f 217//137 395//137 396//137
f 217//138 396//138 218//138
f 218//139 396//139 397//139
f 218//140 397//140 219//140
f 219//141 397//141 398//141
f 219//142 398//142 220//142
f 220//143 398//143 399//143
f 220//144 399//144 221//144
f 221//145 399//145 400//145
f 221//146 400//146 222//146
f 222//147 400//147 401//147
f 222//148 401//148 223//148
f 223//149 401//149 402//149
f 223//150 402//150 224//150
f 224//151 402//151 403//151
f 224//152 403//152 225//152
f 225//153 403//153 404//153
f 225//154 404//154 226//154
f 226//155 404//155 405//155
f 226//156 405//156 227//156
f 227//157 405//157 406//157
f 227//158 406//158 228//158
f 228//159 406//159 407//159
f 228//160 407//160 229//160
f 229//161 407//161 408//161
f 229//162 408//162 230//162
f 230//163 408//163 409//163
f 230//164 409//164 231//164
f 231//165 409//165 410//165
f 231//166 410//166 232//166
f 232//167 410//167 411//167
f 232//168 411//168 233//168
f 233//169 411//169 412//169
f 233//170 412//170 234//170
f 234//171 412//171 413//171
f 234//172 413//172 235//172
f 235//173 413//173 414//173
f 235//174 414//174 236//174
f 236//175 414//175 415//175
f 236//176 415//176 237//176
f 237//177 415//177 416//177
f 237//178 416//178 238//178
f 238//179 416//179 417//179
f 238//180 417//180 239//180
f 239//181 417//181 418//181
f 239//182 418//182 240//182
f 240//183 418//183 419//183
f 240//184 419//184 241//184
f 241//185 419//185 420//185
f 241//186 420//186 242//186
f 242//187 420//187 421//187
f 242//188 421//188 243//188
f 243//189 421//189 422//189
f 243//190 422//190 244//190
f 244//191 422//191 423//191
f 244//192 423//192 245//192
f 245//193 423//193 424//193
f 245//194 424//194 246//194
f 246//195 424//195 425//195
f 246//196 425//196 91//196
f 91//197 425//197 426//197
f 91//198 426//198 248//198
f 248//199 426//199 427//199
f 248//200 427//200 249//200
f 249//201 427//201 428//201
f 249//202 428//202 250//202
f 250//203 428//203 429//203
f 250//204 429//204 251//204
f 251//205 429//205 430//205
f 251//206 430//206 252//206
f 252//207 430//207 431//207
f 252//208 431//208 253//208
f 253//209 431//209 432//209
f 253//210 432//210 254//210
f 254//211 432//211 433//211
f 254//212 433//212 255//212
f 255//213 433//213 434//213
f 255//214 434//214 256//214
f 256//215 434//215 435//215
f 256//216 435//216 257//216
f 257//217 435//217 436//217
f 257//218 436//218 258//218
f 258//219 436//219 437//219
f 258//220 437//220 259//220
f 259//221 437//221 438//221
f 259//222 438//222 260//222
f 260//223 438//223 439//223
f 260//224 439//224 261//224
f 261//225 439//225 440//225
f 261//226 440//226 262//226
f 262//227 440//227 441//227
f 262//228 441//228 263//228
f 263//229 441//229 442//229
f 263//230 442//230 264//230
f 264//231 442//231 443//231
f 264//232 443//232 265//232
f 265//233 443//233 444//233
f 265//234 444//234 266//234
f 266//235 444//235 445//235
f 266//236 445//236 267//236
f 267//237 445//237 446//237
f 267//238 446//238 268//238
f 268//239 446//239 447//239
f 268//240 447//240 269//240
f 269//241 447//241 448//241
f 269//242 448//242 270//242
f 270//243 448//243 449//243
f 270//244 449//244 271//244
f 271//245 449//245 450//245
f 271//246 450//246 272//246
f 272//247 450//247 451//247
f 272//248 451//248 273//248
f 273//249 451//249 452//249
f 273//250 452//250 274//250
f 274//251 452//251 453//251
f 274//252 453//252 275//252
f 275//253 453//253 454//253
f 275//254 454//254 276//254
f 276//255 454//255 455//255
f 276//256 455//256 277//256
f 277//257 455//257 456//257
f 277//258 456//258 278//258
f 278//259 456//259 457//259
f 278//260 457//260 279//260
f 279//261 457//261 458//261
f 279//262 458//262 280//262
f 280//263 458//263 459//263
f 280//264 459//264 281//264
f 281//265 459//265 460//265
f 281//266 460//266 282//266
f 282//267 460//267 319//267
f 282//268 319//268 283//268
f 283//269 319//269 320//269
f 283//270 320//270 284//270
f 284//271 320//271 321//271
f 284//272 321//272 285//272
f 285//273 321//273 322//273
f 285//274 322//274 286//274
f 286//275 322//275 323//275
f 286//276 323//276 287//276
f 287//277 323//277 324//277
f 287//278 324//278 288//278
f 288//279 324//279 325//279
f 288//280 325//280 289//280
f 289//281 325//281 326//281
f 289//282 326//282 290//282
f 290//283 326//283 327//283
f 290//284 327//284 291//284
f 291//285 327//285 328//285
f 291//286 328//286 292//286
f 292//287 328//287 329//287
f 292//288 329//288 293//288
f 293//289 329//289 330//289
f 293//290 330//290 294//290
f 294//291 330//291 331//291
f 294//292 331//292 295//292
f 295//293 331//293 332//293
f 295//294 332//294 296//294
f 296//295 332//295 333//295
f 296//296 333//296 297//296
f 297//297 333//297 334//297
f 297//298 334//298 298//298
f 298//299 334//299 335//299
f 298//300 335//300 299//300
f 299//301 335//301 336//301
f 299//302 336//302 300//302
f 300//303 336//303 337//303
f 300//304 337//304 301//304
f 301//305 337//305 338//305
f 301//306 338//306 302//306
f 302//307 338//307 339//307
f 302//308 339//308 303//308
f 303//309 339//309 340//309
f 303//310 340//310 304//310
f 304//311 340//311 341//311
f 304//312 341//312 305//312
f 305//313 341//313 342//313
f 305//314 342//314 306//314
f 306//315 342//315 343//315
f 306//316 343//316 307//316
f 307//317 343//317 344//317
f 307//318 344//318 308//318
f 308//319 344//319 345//319
f 308//320 345//320 309//320
f 309//321 345//321 346//321
f 309//322 346//322 310//322
f 310//323 346//323 347//323
f 310//324 347//324 311//324
f 311//325 347//325 348//325
f 311//326 348//326 312//326
f 312//327 348//327 349//327
f 312//328 349//328 313//328
f 313//329 349//329 350//329
f 313//330 350//330 314//330
f 314//331 350//331 351//331
f 314//332 351//332 315//332
f 315//333 351//333 352//333
f 315//334 352//334 316//334
f 316//335 352//335 353//335
f 316//336 353//336 317//336
f 317//337 353//337 354//337
f 460//49 391//49 319//49
f 319//49 391//49 390//49
f 319//49 390//49 320//49
f 320//49 390//49 389//49
f 320//49 389//49 321//49
f 321//49 389//49 388//49
f 321//49 388//49 322//49
f 322//49 388//49 387//49
f 322//49 387//49 323//49
f 323//49 387//49 386//49
f 323//49 386//49 324//49
f 324//49 386//49 385//49
f 324//49 385//49 325//49
f 325//49 385//49 384//49
f 325//49 384//49 326//49
f 326//49 384//49 383//49
f 326//49 383//49 327//49
f 327//49 383//49 382//49
f 327//49 382//49 328//49
f 328//49 382//49 381//49
f 328//49 381//49 329//49
f 329//49 381//49 380//49
f 329//49 380//49 330//49
f 330//49 380//49 379//49
f 330//49 379//49 331//49
f 331//49 379//49 378//49
f 331//49 378//49 332//49
f 332//49 378//49 377//49
f 332//49 377//49 333//49
f 333//49 377//49 376//49
f 333//49 376//49 334//49
f 334//49 376//49 375//49
f 334//49 375//49 335//49
f 335//49 375//49 374//49
f 335//49 374//49 336//49
f 336//49 374//49 373//49
f 336//49 373//49 337//49
f 337//49 373//49 372//49
f 337//49 372//49 338//49
f 338//49 372//49 371//49
f 338//49 371//49 339//49
f 339//49 371//49 370//49
f 339//49 370//49 340//49
f 340//49 370//49 369//49
f 340//49 369//49 341//49
f 341//49 369//49 368//49
f 341//49 368//49 342//49
f 342//49 368//49 367//49
f 342//49 367//49 343//49
f 343//49 367//49 366//49
f 343//49 366//49 344//49
f 344//49 366//49 365//49
f 344//49 365//49 345//49
f 345//49 365//49 364//49
f 345//49 364//49 346//49
f 346//49 364//49 363//49
f 346//49 363//49 347//49
f 347//49 363//49 362//49
f 347//49 362//49 348//49
f 348//49 362//49 361//49
f 348//49 361//49 349//49
f 349//49 361//49 360//49
f 349//49 360//49 350//49
f 350//49 360//49 359//49
f 350//49 359//49 351//49
f 351//49 359//49 358//49
f 351//49 358//49 352//49
f 352//49 358//49 357//49
f 352//49 357//49 353//49
f 353//49 357//49 356//49
f 353//49 356//49 354//49
f 354//49 356//49 355//49
f 391//49 460//49 392//49
f 392//49 460//49 459//49
f 392//49 459//49 393//49
f 393//49 459//49 458//49
f 393//49 458//49 394//49
f 394//49 458//49 457//49
f 394//49 457//49 395//49
f 395//49 457//49 456//49
f 395//49 456//49 396//49
f 396//49 456//49 455//49
f 396//49 455//49 397//49
f 397//49 455//49 454//49
f 397//49 454//49 398//49
f 398//49 454//49 453//49
f 398//49 453//49 399//49
f 399//49 453//49 452//49
f 399//49 452//49 400//49
f 400//49 452//49 451//49
f 400//49 451//49 401//49
f 401//49 451//49 450//49
f 401//49 450//49 402//49
f 402//49 450//49 449//49
f 402//49 449//49 403//49
f 403//49 449//49 448//49
f 403//49 448//49 404//49
f 404//49 448//49 447//49
f 404//49 447//49 405//49
f 405//49 447//49 446//49
f 405//49 446//49 406//49
f 406//49 446//49 445//49
f 406//49 445//49 407//49
f 407//49 445//49 444//49
f 407//49 444//49 408//49
f 408//49 444//49 443//49
f 408//49 443//49 409//49
f 409//49 443//49 442//49
f 409//49 442//49 410//49
f 410//49 442//49 441//49
f 410//49 441//49 411//49
f 411//49 441//49 440//49
f 411//49 440//49 412//49
f 412//49 440//49 439//49
f 412//49 439//49 413//49
f 413//49 439//49 438//49
f 413//49 438//49 414//49
f 414//49 438//49 437//49
f 414//49 437//49 415//49
f 415//49 437//49 436//49
f 415//49 436//49 416//49
f 416//49 436//49 435//49
f 416//49 435//49 417//49
f 417//49 435//49 434//49
f 417//49 434//49 418//49
f 418//49 434//49 433//49
f 418//49 433//49 419//49
f 419//49 433//49 432//49
f 419//49 432//49 420//49
f 420//49 432//49 431//49
f 420//49 431//49 421//49
f 421//49 431//49 430//49
f 421//49 430//49 422//49
f 422//49 430//49 429//49
f 422//49 429//49 423//49
f 423//49 429//49 428//49
f 423//49 428//49 424//49
f 424//49 428//49 427//49
f 424//49 427//49 425//49
f 425//49 427//49 426//49
