# Blender 4.0.2
# www.blender.org
o diff_wheel__m2
v 54.922050 -2.927218 15.050003
v 54.922050 2.927222 15.050003
v 54.299759 -8.748492 15.050002
v 54.299759 8.748496 15.050002
v 53.062229 -14.470638 15.050002
v 53.062229 14.470642 15.050002
v 51.223492 -20.028828 15.050002
v 51.223492 20.028831 15.050002
v 48.804359 -25.360088 15.050002
v 48.804359 25.360092 15.050002
v 46.923351 -2.683172 15.050002
v 46.923351 2.683176 15.050002
v 46.311630 -8.014541 15.050002
v 46.311630 8.014544 15.050002
v 45.832272 -30.403997 15.050002
v 45.832272 30.404001 15.050002
v 45.096169 -13.241428 15.050002
v 45.096169 13.241432 15.050002
v 43.292809 -18.295698 15.050002
v 43.292809 18.295702 15.050002
v 42.340870 -35.103432 15.050002
v 42.340870 35.103432 15.050002
v 40.925060 -23.111448 15.050002
v 40.925060 23.111452 15.050002
v 38.369732 -39.405121 15.050002
v 38.369732 39.405121 15.050002
v 38.023800 -27.625908 15.050002
v 38.023800 27.625912 15.050002
v 34.626831 -31.780218 15.050002
v 34.626831 31.780222 15.050002
v 33.963848 -43.260342 15.050002
v 33.963848 43.260342 15.050002
v 30.778452 -35.520229 15.050001
v 30.778448 35.520229 15.050001
v 29.173151 -46.625401 15.050001
v 29.173147 46.625401 15.050001
v 26.528831 -38.797180 15.050001
v 26.528828 38.797180 15.050001
v 24.051903 -49.462158 15.050001
v 24.051899 49.462158 15.050001
v 21.933372 -41.568340 15.050001
v 21.933369 41.568340 15.050001
v 18.658142 -51.738510 15.050001
v 18.658138 51.738510 15.050001
v 17.051962 -43.797611 15.050001
v 17.051958 43.797611 15.050001
v 13.052971 -53.428638 15.050001
v 13.052967 53.428638 15.050001
v 11.948261 -45.455898 15.050001
v 11.948257 45.455898 15.050001
v 7.299906 -54.513409 15.050000
v 7.299901 54.513409 15.050000
v 6.688798 -46.521610 15.050000
v 6.688795 46.521610 15.050000
v 1.464131 -54.980511 15.050000
v 1.464126 54.980511 15.050000
v 1.342135 -46.980831 15.050000
v 1.342131 46.980831 15.050000
v -4.022024 -46.827591 15.050000
v -4.022027 46.827591 15.050000
v -4.388234 -54.824661 15.050000
v -4.388239 54.824661 15.050000
v -9.333751 -46.063881 15.050000
v -9.333755 46.063881 15.050000
v -10.190879 -54.047630 15.050000
v -10.190883 54.047630 15.050000
v -14.523799 -44.699650 15.049999
v -14.523803 44.699650 15.049999
v -15.878059 -52.658211 15.049999
v -15.878063 52.658211 15.049999
v -19.524508 -42.752701 15.049999
v -19.524511 42.752701 15.049999
v -21.385328 -50.672161 15.049999
v -21.385332 50.672161 15.049999
v -24.270678 -40.248402 15.049999
v -24.270681 40.248402 15.049999
v -26.650297 -48.111969 15.049999
v -26.650301 48.111969 15.049999
v -28.700449 -37.219398 15.049999
v -28.700453 37.219398 15.049999
v -31.613308 -45.006649 15.049999
v -31.613312 45.006649 15.049999
v -32.756062 -33.705189 15.049998
v -32.756062 33.705189 15.049998
v -36.218121 -41.391392 15.049998
v -36.218121 41.391392 15.049998
v -36.384651 -29.751593 15.049998
v -36.384651 29.751589 15.049998
v -39.538910 -25.410122 15.049998
v -39.538910 25.410118 15.049998
v -40.412579 -37.307152 15.049998
v -40.412579 37.307152 15.049998
v -42.177731 -20.737392 15.049998
v -42.177731 20.737389 15.049998
v -44.149139 -32.800205 15.049998
v -44.149139 32.800198 15.049998
v -44.266682 -15.794322 15.049998
v -44.266682 15.794318 15.049998
v -45.778561 -10.645352 15.049998
v -45.778561 10.645349 15.049998
v -46.693642 -5.357598 15.049998
v -46.693642 5.357594 15.049998
v -47.000000 -0.000002 15.049998
v -47.385471 -27.921621 15.049998
v -47.385471 27.921618 15.049998
v -50.084911 -22.726671 15.049998
v -50.084911 22.726667 15.049998
v -52.216869 -17.274221 15.049998
v -52.216869 17.274218 15.049998
v -53.757191 -11.626042 15.049998
v -53.757191 11.626039 15.049998
v -54.688412 -5.846144 15.049997
v -54.688412 5.846139 15.049997
v -55.000000 -0.000002 15.049997
v 46.923351 -2.683172 10.050002
v 46.923351 2.683176 10.050002
v 46.311630 -8.014541 10.050002
v 46.311630 8.014544 10.050002
v 45.096169 -13.241428 10.050002
v 45.096169 13.241432 10.050002
v 43.292809 -18.295698 10.050002
v 43.292809 18.295702 10.050002
v 40.925060 -23.111448 10.050002
v 40.925060 23.111452 10.050002
v 38.023800 -27.625908 10.050002
v 38.023800 27.625912 10.050002
v 34.626831 -31.780218 10.050002
v 34.626831 31.780222 10.050002
v 30.778452 -35.520229 10.050001
v 30.778448 35.520229 10.050001
v 26.528831 -38.797180 10.050001
v 26.528828 38.797180 10.050001
v 21.933372 -41.568340 10.050001
v 21.933369 41.568340 10.050001
v 17.051962 -43.797611 10.050001
v 17.051958 43.797611 10.050001
v 16.257931 -12.039899 10.050001
v 16.257931 -10.233959 10.050001
v 16.257931 10.233961 10.050001
v 16.257931 12.039901 10.050001
v 15.640261 -13.736929 10.050001
v 15.640260 -8.536931 10.050001
v 15.640260 8.536933 10.050001
v 15.640259 13.736931 10.050001
v 14.479431 -15.120359 10.050001
v 14.479430 -7.153501 10.050001
v 14.479430 7.153502 10.050001
v 14.479429 15.120361 10.050001
v 12.915441 -16.023331 10.050001
v 12.915440 -6.250529 10.050001
v 12.915440 6.250530 10.050001
v 12.915439 16.023331 10.050001
v 11.948262 -45.455898 10.050001
v 11.948258 45.455898 10.050001
v 11.136931 -16.336929 10.050001
v 11.136930 -5.936932 10.050001
v 11.136930 5.936933 10.050001
v 11.136930 16.336929 10.050001
v 9.358429 -16.023331 10.050000
v 9.358428 -6.250529 10.050000
v 9.358428 6.250530 10.050000
v 9.358427 16.023331 10.050000
v 7.925488 -1.089333 10.050000
v 7.925488 1.089333 10.050000
v 7.794436 -15.120360 10.050000
v 7.794436 -7.153501 10.050000
v 7.794435 7.153502 10.050000
v 7.794435 15.120360 10.050000
v 7.337690 -3.187209 10.050000
v 7.337690 3.187209 10.050000
v 6.688798 -46.521610 10.050000
v 6.688795 46.521610 10.050000
v 6.633600 -13.736930 10.050000
v 6.633600 -8.536932 10.050000
v 6.633599 8.536932 10.050000
v 6.633599 13.736930 10.050000
v 6.205690 -5.048704 10.050000
v 6.205690 5.048705 10.050000
v 6.015931 -12.039900 10.050000
v 6.015931 -10.233960 10.050000
v 6.015930 10.233960 10.050000
v 6.015930 12.039900 10.050000
v 5.121000 -16.652969 10.050000
v 5.121000 -14.847030 10.050000
v 5.120999 14.847030 10.050000
v 5.120998 16.652969 10.050000
v 4.613443 -6.535759 10.050000
v 4.613442 6.535759 10.050000
v 4.503333 -18.350000 10.050000
v 4.503332 -13.150000 10.050000
v 4.503331 13.150000 10.050000
v 4.503331 18.350000 10.050000
v 3.342496 -19.733431 10.050000
v 3.342496 -11.766570 10.050000
v 3.342495 11.766570 10.050000
v 3.342494 19.733431 10.050000
v 2.679037 -7.538087 10.050000
v 2.679036 7.538087 10.050000
v 1.778505 -20.636400 10.050000
v 1.778505 -10.863600 10.050000
v 1.778504 10.863600 10.050000
v 1.778504 20.636400 10.050000
v 1.342136 -46.980831 10.050000
v 1.342131 46.980831 10.050000
v 0.545939 -7.981350 10.050000
v 0.545938 7.981350 10.050000
v 0.000000 -20.950001 10.050000
v 0.000000 -10.550000 10.050000
v -0.000001 10.550000 10.050000
v -0.000001 20.950001 10.050000
v -1.627648 -7.832673 10.050000
v -1.627649 7.832673 10.050000
v -1.778504 -20.636400 10.050000
v -1.778505 -10.863600 10.050000
v -1.778506 10.863600 10.050000
v -1.778506 20.636400 10.050000
v -3.342495 -19.733431 10.050000
v -3.342496 -11.766570 10.050000
v -3.342497 11.766570 10.050000
v -3.342497 19.733431 10.050000
v -3.680520 -7.103082 10.050000
v -3.680521 7.103082 10.050000
v -4.022024 -46.827591 10.050000
v -4.022027 46.827591 10.050000
v -4.503332 -18.350000 10.050000
v -4.503332 -13.150000 10.050000
v -4.503333 13.150000 10.050000
v -4.503334 18.350000 10.050000
v -5.120999 -16.652969 10.050000
v -5.121000 -14.847030 10.050000
v -5.121001 14.847030 10.050000
v -5.121001 16.652969 10.050000
v -5.460425 -5.846688 10.050000
v -5.460426 5.846687 10.050000
v -6.015931 -12.039900 10.050000
v -6.015931 -10.233960 10.050000
v -6.015932 10.233960 10.050000
v -6.015932 12.039900 10.050000
v -6.633600 -13.736930 10.050000
v -6.633600 -8.536932 10.050000
v -6.633601 8.536932 10.050000
v -6.633601 13.736930 10.050000
v -6.835355 -4.156672 10.050000
v -6.835355 4.156671 10.050000
v -7.703339 -2.158374 10.050000
v -7.703339 2.158374 10.050000
v -7.794436 -15.120360 10.050000
v -7.794436 -7.153502 10.050000
v -7.794437 7.153501 10.050000
v -7.794437 15.120360 10.050000
v -8.000000 0.000000 10.050000
v -9.333750 -46.063881 10.050000
v -9.333754 46.063881 10.050000
v -9.358427 -16.023331 10.050000
v -9.358428 -6.250530 10.050000
v -9.358428 6.250529 10.050000
v -9.358429 16.023331 10.050000
v -10.629000 -0.902972 10.050000
v -10.629000 0.902971 10.050000
v -11.136930 -16.336929 10.049999
v -11.136930 -5.936933 10.049999
v -11.136930 5.936932 10.049999
v -11.136931 16.336929 10.049999
v -11.246670 -2.600000 10.049999
v -11.246670 2.599999 10.049999
v -12.407500 -3.983432 10.049999
v -12.407500 3.983431 10.049999
v -12.915439 -16.023331 10.049999
v -12.915440 -6.250530 10.049999
v -12.915440 6.250529 10.049999
v -12.915441 16.023331 10.049999
v -13.971500 -4.886403 10.049999
v -13.971500 4.886402 10.049999
v -14.479429 -15.120361 10.049999
v -14.479430 -7.153502 10.049999
v -14.479430 7.153501 10.049999
v -14.479431 15.120359 10.049999
v -14.523798 -44.699650 10.049999
v -14.523802 44.699650 10.049999
v -15.640259 -13.736931 10.049999
v -15.640260 -8.536933 10.049999
v -15.640260 8.536931 10.049999
v -15.640261 13.736929 10.049999
v -15.750000 -5.200000 10.049999
v -15.750000 5.199999 10.049999
v -16.257931 -12.039901 10.049999
v -16.257931 -10.233961 10.049999
v -16.257931 10.233959 10.049999
v -16.257931 12.039899 10.049999
v -17.528509 -4.886403 10.049999
v -17.528509 4.886401 10.049999
v -19.092501 -3.983432 10.049999
v -19.092501 3.983430 10.049999
v -19.524508 -42.752701 10.049999
v -19.524511 42.752701 10.049999
v -20.253330 -2.600001 10.049999
v -20.253330 2.599999 10.049999
v -20.871000 -0.902972 10.049999
v -20.871000 0.902970 10.049999
v -24.270678 -40.248402 10.049999
v -24.270681 40.248402 10.049999
v -28.700449 -37.219398 10.049999
v -28.700453 37.219398 10.049999
v -32.756062 -33.705189 10.049998
v -32.756062 33.705189 10.049998
v -36.384651 -29.751593 10.049998
v -36.384651 29.751589 10.049998
v -39.538910 -25.410122 10.049998
v -39.538910 25.410118 10.049998
v -42.177731 -20.737392 10.049998
v -42.177731 20.737389 10.049998
v -44.266682 -15.794322 10.049998
v -44.266682 15.794318 10.049998
v -45.778561 -10.645352 10.049998
v -45.778561 10.645349 10.049998
v -46.693642 -5.357598 10.049998
v -46.693642 5.357594 10.049998
v -47.000000 -0.000002 10.049998
v 20.000000 0.000001 6.550001
v 19.696159 -3.472963 6.550001
v 19.696159 3.472965 6.550001
v 18.793850 -6.840402 6.550001
v 18.793850 6.840404 6.550001
v 17.320511 -9.999999 6.550001
v 17.320511 10.000001 6.550001
v 15.320891 -12.855749 6.550001
v 15.320889 12.855751 6.550001
v 13.817981 -11.748859 6.550001
v 13.817980 -10.524999 6.550001
v 13.817980 10.525001 6.550001
v 13.817979 11.748861 6.550001
v 13.286971 -12.851529 6.550001
v 13.286970 -9.422334 6.550001
v 13.286970 9.422336 6.550001
v 13.286969 12.851531 6.550001
v 12.855751 -15.320889 6.550001
v 12.855749 15.320891 6.550001
v 12.330111 -13.614599 6.550001
v 12.330110 -8.659268 6.550001
v 12.330110 8.659270 6.550001
v 12.330109 13.614601 6.550001
v 11.136931 -13.886930 6.550001
v 11.136930 -8.386933 6.550001
v 11.136930 8.386935 6.550001
v 11.136930 13.886931 6.550001
v 10.000001 -17.320511 6.550001
v 9.999999 17.320511 6.550001
v 9.943755 -13.614600 6.550001
v 9.943754 -8.659269 6.550001
v 9.943754 8.659269 6.550001
v 9.943753 13.614600 6.550001
v 8.986896 -12.851530 6.550001
v 8.986895 -9.422335 6.550001
v 8.986895 9.422335 6.550001
v 8.986894 12.851530 6.550001
v 8.455883 -11.748860 6.550001
v 8.455882 -10.525000 6.550001
v 8.455882 10.525000 6.550001
v 8.455881 11.748860 6.550001
v 7.925488 -1.089333 6.550001
v 7.925488 1.089333 6.550001
v 7.337690 -3.187209 6.550001
v 7.337690 3.187209 6.550001
v 6.840404 -18.793850 6.550001
v 6.840402 18.793850 6.550001
v 6.205690 -5.048704 6.550001
v 6.205690 5.048705 6.550001
v 4.613443 -6.535759 6.550000
v 4.613442 6.535759 6.550000
v 3.472965 -19.696159 6.550000
v 3.472963 19.696159 6.550000
v 2.681052 -16.361931 6.550000
v 2.681052 -15.138070 6.550000
v 2.681051 15.138070 6.550000
v 2.681051 16.361931 6.550000
v 2.679037 -7.538087 6.550000
v 2.679037 7.538087 6.550000
v 2.150038 -17.464600 6.550000
v 2.150038 -14.035400 6.550000
v 2.150036 14.035400 6.550000
v 2.150036 17.464600 6.550000
v 1.193181 -18.227671 6.550000
v 1.193180 -13.272340 6.550000
v 1.193179 13.272340 6.550000
v 1.193179 18.227671 6.550000
v 0.545939 -7.981350 6.550000
v 0.545938 7.981350 6.550000
v 0.000001 -20.000000 6.550000
v 0.000001 -18.500000 6.550000
v 0.000000 -13.000000 6.550000
v -0.000001 13.000000 6.550000
v -0.000001 18.500000 6.550000
v -0.000001 20.000000 6.550000
v -1.193179 -18.227671 6.550000
v -1.193180 -13.272340 6.550000
v -1.193181 13.272340 6.550000
v -1.193181 18.227671 6.550000
v -1.627648 -7.832673 6.550000
v -1.627649 7.832673 6.550000
v -2.150037 -17.464600 6.550000
v -2.150037 -14.035400 6.550000
v -2.150038 14.035400 6.550000
v -2.150038 17.464600 6.550000
v -2.681051 -16.361931 6.550000
v -2.681051 -15.138070 6.550000
v -2.681053 15.138070 6.550000
v -2.681053 16.361931 6.550000
v -3.472963 -19.696159 6.550000
v -3.472965 19.696159 6.550000
v -3.680520 -7.103082 6.550000
v -3.680521 7.103082 6.550000
v -5.460425 -5.846688 6.550000
v -5.460426 5.846687 6.550000
v -6.835355 -4.156672 6.550000
v -6.835355 4.156671 6.550000
v -6.840403 -18.793850 6.550000
v -6.840405 18.793850 6.550000
v -7.703339 -2.158374 6.550000
v -7.703339 2.158374 6.550000
v -8.000000 0.000000 6.550000
v -8.455881 -11.748860 6.550000
v -8.455882 -10.525000 6.550000
v -8.455882 10.525000 6.550000
v -8.455883 11.748860 6.550000
v -8.986894 -12.851530 6.550000
v -8.986895 -9.422335 6.550000
v -8.986895 9.422335 6.550000
v -8.986896 12.851530 6.550000
v -9.943753 -13.614600 6.550000
v -9.943754 -8.659269 6.550000
v -9.943754 8.659269 6.550000
v -9.943755 13.614600 6.550000
v -9.999999 -17.320511 6.550000
v -10.000001 17.320511 6.550000
v -11.136930 -13.886931 6.550000
v -11.136930 -8.386935 6.550000
v -11.136930 8.386933 6.550000
v -11.136931 13.886930 6.550000
v -12.330109 -13.614601 6.550000
v -12.330110 -8.659270 6.550000
v -12.330110 8.659268 6.550000
v -12.330111 13.614599 6.550000
v -12.855749 -15.320891 6.550000
v -12.855751 15.320889 6.550000
v -13.068950 -0.611934 6.550000
v -13.068950 0.611932 6.550000
v -13.286969 -12.851531 6.550000
v -13.286970 -9.422336 6.550000
v -13.286970 9.422334 6.550000
v -13.286971 12.851529 6.550000
v -13.599960 -1.714598 6.550000
v -13.599960 1.714596 6.550000
v -13.817979 -11.748861 6.550000
v -13.817980 -10.525001 6.550000
v -13.817980 10.524999 6.550000
v -13.817981 11.748859 6.550000
v -14.556820 -2.477665 6.550000
v -14.556820 2.477663 6.550000
v -15.320889 -12.855751 6.550000
v -15.320891 12.855749 6.550000
v -15.750000 -2.750001 6.550000
v -15.750000 2.749999 6.550000
v -16.943180 -2.477665 6.549999
v -16.943180 2.477663 6.549999
v -17.320511 -10.000001 6.549999
v -17.320511 9.999999 6.549999
v -17.900040 -1.714598 6.549999
v -17.900040 1.714596 6.549999
v -18.431049 -0.611934 6.549999
v -18.431049 0.611932 6.549999
v -18.793850 -6.840404 6.549999
v -18.793850 6.840402 6.549999
v -19.696159 -3.472965 6.549999
v -19.696159 3.472963 6.549999
v -20.000000 -0.000001 6.549999
v 20.000000 0.000001 4.550001
v 19.696159 -3.472963 4.550001
v 19.696159 3.472965 4.550001
v 18.793850 -6.840402 4.550001
v 18.793850 6.840404 4.550001
v 17.320511 -9.999999 4.550001
v 17.320511 10.000001 4.550001
v 15.320891 -12.855749 4.550001
v 15.320889 12.855751 4.550001
v 12.855751 -15.320889 4.550001
v 12.855749 15.320891 4.550001
v 10.000001 -17.320511 4.550001
v 9.999999 17.320511 4.550001
v 6.840404 -18.793850 4.550001
v 6.840402 18.793850 4.550001
v 3.472965 -19.696159 4.550000
v 3.472963 19.696159 4.550000
v 0.000001 -20.000000 4.550000
v -0.000001 20.000000 4.550000
v -3.472963 -19.696159 4.550000
v -3.472965 19.696159 4.550000
v -6.840402 -18.793850 4.550000
v -6.840404 18.793850 4.550000
v -9.999999 -17.320511 4.550000
v -10.000001 17.320511 4.550000
v -12.855749 -15.320891 4.550000
v -12.855751 15.320889 4.550000
v -15.320889 -12.855751 4.550000
v -15.320891 12.855749 4.550000
v -17.320511 -10.000001 4.549999
v -17.320511 9.999999 4.549999
v -18.793850 -6.840404 4.549999
v -18.793850 6.840402 4.549999
v -19.696159 -3.472965 4.549999
v -19.696159 3.472963 4.549999
v -20.000000 -0.000001 4.549999
v 46.923351 -2.683172 4.050002
v 46.923351 2.683176 4.050002
v 46.311630 -8.014541 4.050002
v 46.311630 8.014544 4.050002
v 45.096169 -13.241428 4.050002
v 45.096169 13.241432 4.050002
v 43.292809 -18.295698 4.050002
v 43.292809 18.295702 4.050002
v 40.925060 -23.111448 4.050002
v 40.925060 23.111452 4.050002
v 38.023800 -27.625908 4.050002
v 38.023800 27.625912 4.050002
v 34.626831 -31.780218 4.050002
v 34.626831 31.780222 4.050002
v 30.778452 -35.520229 4.050002
v 30.778448 35.520229 4.050002
v 26.528831 -38.797180 4.050001
v 26.528828 38.797180 4.050001
v 21.933372 -41.568340 4.050001
v 21.933369 41.568340 4.050001
v 20.500000 0.000001 4.050001
v 20.188560 -3.559787 4.050001
v 20.188560 3.559789 4.050001
v 19.263700 -7.011412 4.050001
v 19.263700 7.011414 4.050001
v 17.753519 -10.249999 4.050001
v 17.753519 10.250001 4.050001
v 17.051962 -43.797611 4.050001
v 17.051958 43.797611 4.050001
v 15.703911 -13.177149 4.050001
v 15.703909 13.177151 4.050001
v 13.177151 -15.703909 4.050001
v 13.177149 15.703911 4.050001
v 11.948262 -45.455898 4.050001
v 11.948258 45.455898 4.050001
v 10.250001 -17.753519 4.050001
v 10.249999 17.753519 4.050001
v 7.011414 -19.263700 4.050001
v 7.011412 19.263700 4.050001
v 6.688799 -46.521610 4.050001
v 6.688795 46.521610 4.050001
v 3.559789 -20.188560 4.050000
v 3.559787 20.188560 4.050000
v 1.342136 -46.980831 4.050000
v 1.342132 46.980831 4.050000
v 0.000001 -20.500000 4.050000
v -0.000001 20.500000 4.050000
v -3.559787 -20.188560 4.050000
v -3.559789 20.188560 4.050000
v -4.022023 -46.827591 4.050000
v -4.022027 46.827591 4.050000
v -7.011412 -19.263700 4.050000
v -7.011414 19.263700 4.050000
v -9.333750 -46.063881 4.050000
v -9.333754 46.063881 4.050000
v -10.249999 -17.753519 4.050000
v -10.250001 17.753519 4.050000
v -13.177149 -15.703911 4.050000
v -13.177151 15.703909 4.050000
v -14.523798 -44.699650 4.050000
v -14.523802 44.699650 4.050000
v -15.703909 -13.177151 4.050000
v -15.703911 13.177149 4.050000
v -17.753519 -10.250001 4.049999
v -17.753519 10.249999 4.049999
v -19.263700 -7.011414 4.049999
v -19.263700 7.011412 4.049999
v -19.524508 -42.752701 4.049999
v -19.524511 42.752701 4.049999
v -20.188560 -3.559789 4.049999
v -20.188560 3.559787 4.049999
v -20.500000 -0.000001 4.049999
v -24.270678 -40.248402 4.049999
v -24.270681 40.248402 4.049999
v -28.700449 -37.219398 4.049999
v -28.700453 37.219398 4.049999
v -32.756062 -33.705189 4.049999
v -32.756062 33.705189 4.049999
v -36.384651 -29.751593 4.049999
v -36.384651 29.751589 4.049999
v -39.538910 -25.410122 4.049998
v -39.538910 25.410118 4.049998
v -42.177731 -20.737392 4.049998
v -42.177731 20.737389 4.049998
v -44.266682 -15.794322 4.049998
v -44.266682 15.794318 4.049998
v -45.778561 -10.645352 4.049998
v -45.778561 10.645349 4.049998
v -46.693642 -5.357598 4.049998
v -46.693642 5.357594 4.049998
v -47.000000 -0.000002 4.049998
v 54.922050 -2.927218 -14.949997
v 54.922050 2.927222 -14.949997
v 54.299759 -8.748492 -14.949998
v 54.299759 8.748496 -14.949998
v 53.062229 -14.470638 -14.949998
v 53.062229 14.470642 -14.949998
v 51.223492 -20.028828 -14.949998
v 51.223492 20.028831 -14.949998
v 48.804359 -25.360088 -14.949998
v 48.804359 25.360092 -14.949998
v 46.923351 -2.683172 -14.949998
v 46.923351 2.683176 -14.949998
v 46.311630 -8.014541 -14.949998
v 46.311630 8.014544 -14.949998
v 45.832272 -30.403997 -14.949998
v 45.832272 30.404001 -14.949998
v 45.096169 -13.241428 -14.949998
v 45.096169 13.241432 -14.949998
v 43.292809 -18.295698 -14.949998
v 43.292809 18.295702 -14.949998
v 42.340870 -35.103432 -14.949998
v 42.340870 35.103432 -14.949998
v 40.925060 -23.111448 -14.949998
v 40.925060 23.111452 -14.949998
v 38.369732 -39.405121 -14.949998
v 38.369732 39.405121 -14.949998
v 38.023800 -27.625908 -14.949998
v 38.023800 27.625912 -14.949998
v 34.626831 -31.780218 -14.949998
v 34.626831 31.780222 -14.949998
v 33.963848 -43.260342 -14.949998
v 33.963848 43.260342 -14.949998
v 30.778452 -35.520229 -14.949999
v 30.778448 35.520229 -14.949999
v 29.173151 -46.625401 -14.949999
v 29.173147 46.625401 -14.949999
v 26.528831 -38.797180 -14.949999
v 26.528828 38.797180 -14.949999
v 24.051903 -49.462158 -14.949999
v 24.051899 49.462158 -14.949999
v 21.933372 -41.568340 -14.949999
v 21.933369 41.568340 -14.949999
v 18.658142 -51.738510 -14.949999
v 18.658138 51.738510 -14.949999
v 17.051962 -43.797611 -14.949999
v 17.051958 43.797611 -14.949999
v 13.052973 -53.428638 -14.949999
v 13.052969 53.428638 -14.949999
v 11.948263 -45.455898 -14.949999
v 11.948259 45.455898 -14.949999
v 7.299907 -54.513409 -14.950000
v 7.299902 54.513409 -14.950000
v 6.688799 -46.521610 -14.950000
v 6.688796 46.521610 -14.950000
v 1.464132 -54.980511 -14.950000
v 1.464127 54.980511 -14.950000
v 1.342137 -46.980831 -14.950000
v 1.342133 46.980831 -14.950000
v -4.022023 -46.827591 -14.950000
v -4.022027 46.827591 -14.950000
v -4.388233 -54.824661 -14.950000
v -4.388238 54.824661 -14.950000
v -9.333749 -46.063881 -14.950000
v -9.333753 46.063881 -14.950000
v -10.190877 -54.047630 -14.950000
v -10.190881 54.047630 -14.950000
v -14.523797 -44.699650 -14.950001
v -14.523801 44.699650 -14.950001
v -15.878057 -52.658211 -14.950001
v -15.878061 52.658211 -14.950001
v -19.524508 -42.752701 -14.950001
v -19.524511 42.752701 -14.950001
v -21.385328 -50.672161 -14.950001
v -21.385332 50.672161 -14.950001
v -24.270678 -40.248402 -14.950001
v -24.270681 40.248402 -14.950001
v -26.650297 -48.111969 -14.950001
v -26.650301 48.111969 -14.950001
v -28.700449 -37.219398 -14.950001
v -28.700453 37.219398 -14.950001
v -31.613308 -45.006649 -14.950001
v -31.613312 45.006649 -14.950001
v -32.756062 -33.705189 -14.950002
v -32.756062 33.705189 -14.950002
v -36.218121 -41.391392 -14.950002
v -36.218121 41.391392 -14.950002
v -36.384651 -29.751593 -14.950002
v -36.384651 29.751589 -14.950002
v -39.538910 -25.410122 -14.950002
v -39.538910 25.410118 -14.950002
v -40.412579 -37.307152 -14.950002
v -40.412579 37.307152 -14.950002
v -42.177731 -20.737392 -14.950002
v -42.177731 20.737389 -14.950002
v -44.149139 -32.800205 -14.950002
v -44.149139 32.800198 -14.950002
v -44.266682 -15.794322 -14.950002
v -44.266682 15.794318 -14.950002
v -45.778561 -10.645352 -14.950002
v -45.778561 10.645349 -14.950002
v -46.693642 -5.357598 -14.950002
v -46.693642 5.357594 -14.950002
v -47.000000 -0.000002 -14.950002
v -47.385471 -27.921621 -14.950002
v -47.385471 27.921618 -14.950002
v -50.084911 -22.726671 -14.950002
v -50.084911 22.726667 -14.950002
v -52.216869 -17.274221 -14.950002
v -52.216869 17.274218 -14.950002
v -53.757191 -11.626042 -14.950002
v -53.757191 11.626039 -14.950002
v -54.688412 -5.846144 -14.950003
v -54.688412 5.846139 -14.950003
v -55.000000 -0.000002 -14.950003
vn -0.0000 -0.0000 -1.0000
vn 0.9984 0.0571 -0.0000
vn 0.9984 -0.0571 -0.0000
vn 0.9854 -0.1705 -0.0000
vn 0.9595 -0.2817 -0.0000
vn 0.9211 -0.3893 -0.0000
vn 0.8707 -0.4917 -0.0000
vn 0.8090 -0.5878 -0.0000
vn 0.7367 -0.6762 -0.0000
vn 0.6549 -0.7557 -0.0000
vn 0.5644 -0.8255 -0.0000
vn 0.4667 -0.8844 -0.0000
vn 0.3628 -0.9319 -0.0000
vn 0.2542 -0.9671 -0.0000
vn 0.1423 -0.9898 -0.0000
vn 0.0286 -0.9996 -0.0000
vn -0.0856 -0.9963 -0.0000
vn -0.1986 -0.9801 -0.0000
vn -0.3090 -0.9511 -0.0000
vn -0.4154 -0.9096 -0.0000
vn -0.5164 -0.8563 -0.0000
vn -0.6106 -0.7919 -0.0000
vn -0.6969 -0.7171 -0.0000
vn -0.7741 -0.6330 -0.0000
vn -0.8413 -0.5406 -0.0000
vn -0.8974 -0.4412 -0.0000
vn -0.9418 -0.3361 -0.0000
vn -0.9418 -0.3360 -0.0000
vn -0.9740 -0.2265 -0.0000
vn -0.9935 -0.1140 -0.0000
vn -1.0000 -0.0000 -0.0000
vn -0.9935 0.1140 -0.0000
vn -0.9740 0.2265 -0.0000
vn -0.9418 0.3360 -0.0000
vn -0.9418 0.3361 -0.0000
vn -0.8974 0.4412 -0.0000
vn -0.8413 0.5406 -0.0000
vn -0.7741 0.6330 -0.0000
vn -0.6969 0.7171 -0.0000
vn -0.6106 0.7919 -0.0000
vn -0.5164 0.8563 -0.0000
vn -0.4154 0.9096 -0.0000
vn -0.3090 0.9511 -0.0000
vn -0.1986 0.9801 -0.0000
vn -0.0856 0.9963 -0.0000
vn 0.0286 0.9996 -0.0000
vn 0.1423 0.9898 -0.0000
vn 0.2542 0.9671 -0.0000
vn 0.3628 0.9319 -0.0000
vn 0.4667 0.8844 -0.0000
vn 0.5644 0.8255 -0.0000
vn 0.6549 0.7557 -0.0000
vn 0.7367 0.6762 -0.0000
vn 0.8090 0.5878 -0.0000
vn 0.8707 0.4917 -0.0000
vn 0.9211 0.3893 -0.0000
vn 0.9595 0.2817 -0.0000
vn 0.9854 0.1705 -0.0000
vn 0.7058 0.0617 -0.7058
vn 0.7058 -0.0617 -0.7058
vn 0.6843 -0.1834 -0.7058
vn 0.6421 -0.2994 -0.7058
vn 0.5803 -0.4064 -0.7058
vn 0.5010 -0.5010 -0.7058
vn 0.4064 -0.5803 -0.7058
vn 0.2994 -0.6421 -0.7058
vn 0.1834 -0.6843 -0.7058
vn 0.0617 -0.7058 -0.7058
vn -0.0617 -0.7058 -0.7058
vn -0.1834 -0.6843 -0.7058
vn -0.2994 -0.6421 -0.7058
vn -0.4064 -0.5803 -0.7058
vn -0.5010 -0.5010 -0.7058
vn -0.5803 -0.4064 -0.7058
vn -0.6421 -0.2994 -0.7058
vn -0.6843 -0.1834 -0.7058
vn -0.7058 -0.0617 -0.7058
vn -0.7058 0.0617 -0.7058
vn -0.6843 0.1834 -0.7058
vn -0.6421 0.2994 -0.7058
vn -0.5803 0.4064 -0.7058
vn -0.5010 0.5010 -0.7058
vn -0.4064 0.5803 -0.7058
vn -0.2994 0.6421 -0.7058
vn -0.1834 0.6843 -0.7058
vn -0.0617 0.7058 -0.7058
vn 0.0617 0.7058 -0.7058
vn 0.1834 0.6843 -0.7058
vn 0.2994 0.6421 -0.7058
vn 0.4064 0.5803 -0.7058
vn 0.5010 0.5010 -0.7058
vn 0.5803 0.4064 -0.7058
vn 0.6421 0.2994 -0.7058
vn 0.6843 0.1834 -0.7058
vn 0.9962 0.0872 -0.0000
vn 0.9962 -0.0872 -0.0000
vn 0.9659 -0.2588 -0.0000
vn 0.9063 -0.4226 -0.0000
vn 0.8192 -0.5736 -0.0000
vn 0.7071 -0.7071 -0.0000
vn 0.5736 -0.8192 -0.0000
vn 0.4226 -0.9063 -0.0000
vn 0.2588 -0.9659 -0.0000
vn 0.0872 -0.9962 -0.0000
vn -0.0872 -0.9962 -0.0000
vn -0.2588 -0.9659 -0.0000
vn -0.4226 -0.9063 -0.0000
vn -0.5736 -0.8192 -0.0000
vn -0.7071 -0.7071 -0.0000
vn -0.8192 -0.5736 -0.0000
vn -0.9063 -0.4226 -0.0000
vn -0.9659 -0.2588 -0.0000
vn -0.9962 -0.0872 -0.0000
vn -0.9962 0.0872 -0.0000
vn -0.9659 0.2588 -0.0000
vn -0.9063 0.4226 -0.0000
vn -0.8192 0.5736 -0.0000
vn -0.7071 0.7071 -0.0000
vn -0.5736 0.8192 -0.0000
vn -0.4226 0.9063 -0.0000
vn -0.2588 0.9659 -0.0000
vn -0.0872 0.9962 -0.0000
vn 0.0872 0.9962 -0.0000
vn 0.2588 0.9659 -0.0000
vn 0.4226 0.9063 -0.0000
vn 0.5736 0.8192 -0.0000
vn 0.7071 0.7071 -0.0000
vn 0.8192 0.5736 -0.0000
vn 0.9063 0.4226 -0.0000
vn 0.9659 0.2588 -0.0000
vn 0.9907 0.1362 -0.0000
vn 0.9907 -0.1362 -0.0000
vn 0.9172 -0.3984 -0.0000
vn 0.7757 -0.6311 -0.0000
vn 0.5767 -0.8170 -0.0000
vn 0.3349 -0.9423 -0.0000
vn 0.0682 -0.9977 -0.0000
vn -0.2035 -0.9791 -0.0000
vn -0.4601 -0.8879 -0.0000
vn -0.6826 -0.7308 -0.0000
vn -0.8544 -0.5196 -0.0000
vn -0.9629 -0.2698 -0.0000
vn -0.9629 0.2698 -0.0000
vn -0.8544 0.5196 -0.0000
vn -0.6826 0.7308 -0.0000
vn -0.4601 0.8879 -0.0000
vn -0.2035 0.9791 -0.0000
vn 0.0682 0.9977 -0.0000
vn 0.3349 0.9423 -0.0000
vn 0.5767 0.8170 -0.0000
vn 0.7757 0.6311 -0.0000
vn 0.9172 0.3984 -0.0000
vn -0.0000 -0.0000 1.0000
vn -0.9986 -0.0532 -0.0000
vn -0.9986 0.0532 -0.0000
vn -0.9873 0.1591 -0.0000
vn -0.9648 0.2631 -0.0000
vn -0.9313 0.3642 -0.0000
vn -0.8874 0.4611 -0.0000
vn -0.8333 0.5528 -0.0000
vn -0.7698 0.6382 -0.0000
vn -0.6976 0.7165 -0.0000
vn -0.6175 0.7866 -0.0000
vn -0.5304 0.8477 -0.0000
vn -0.4373 0.8993 -0.0000
vn -0.3392 0.9407 -0.0000
vn -0.2373 0.9714 -0.0000
vn -0.1327 0.9912 -0.0000
vn -0.0266 0.9996 -0.0000
vn 0.0798 0.9968 -0.0000
vn 0.1853 0.9827 -0.0000
vn 0.2887 0.9574 -0.0000
vn 0.3888 0.9213 -0.0000
vn 0.4845 0.8748 -0.0000
vn 0.5748 0.8183 -0.0000
vn 0.6585 0.7526 -0.0000
vn 0.7348 0.6783 -0.0000
vn 0.8027 0.5964 -0.0000
vn 0.8616 0.5077 -0.0000
vn 0.9106 0.4132 -0.0000
vn 0.9494 0.3141 -0.0000
vn 0.9774 0.2114 -0.0000
vn 0.9943 0.1063 -0.0000
vn 1.0000 -0.0000 -0.0000
vn 0.9943 -0.1063 -0.0000
vn 0.9774 -0.2114 -0.0000
vn 0.9494 -0.3141 -0.0000
vn 0.9106 -0.4132 -0.0000
vn 0.8616 -0.5077 -0.0000
vn 0.8027 -0.5964 -0.0000
vn 0.7348 -0.6783 -0.0000
vn 0.6585 -0.7526 -0.0000
vn 0.5748 -0.8183 -0.0000
vn 0.4845 -0.8748 -0.0000
vn 0.3888 -0.9213 -0.0000
vn 0.2887 -0.9574 -0.0000
vn 0.1853 -0.9827 -0.0000
vn 0.0798 -0.9968 -0.0000
vn -0.0266 -0.9996 -0.0000
vn -0.1327 -0.9912 -0.0000
vn -0.2373 -0.9714 -0.0000
vn -0.3392 -0.9407 -0.0000
vn -0.4373 -0.8993 -0.0000
vn -0.5304 -0.8477 -0.0000
vn -0.6175 -0.7866 -0.0000
vn -0.6976 -0.7165 -0.0000
vn -0.7698 -0.6382 -0.0000
vn -0.8333 -0.5528 -0.0000
vn -0.8874 -0.4611 -0.0000
vn -0.9313 -0.3642 -0.0000
vn -0.9648 -0.2631 -0.0000
vn -0.9873 -0.1591 -0.0000
s 0
f 703//1 714//1 705//1
f 705//1 714//1 716//1
f 705//1 716//1 715//1
f 714//1 703//1 712//1
f 712//1 703//1 701//1
f 712//1 701//1 710//1
f 710//1 701//1 699//1
f 710//1 699//1 708//1
f 708//1 699//1 695//1
f 708//1 695//1 706//1
f 706//1 695//1 691//1
f 706//1 691//1 697//1
f 697//1 691//1 689//1
f 697//1 689//1 693//1
f 693//1 689//1 685//1
f 693//1 685//1 687//1
f 687//1 685//1 681//1
f 687//1 681//1 683//1
f 683//1 681//1 677//1
f 683//1 677//1 679//1
f 679//1 677//1 673//1
f 679//1 673//1 675//1
f 675//1 673//1 669//1
f 675//1 669//1 671//1
f 671//1 669//1 665//1
f 671//1 665//1 667//1
f 667//1 665//1 661//1
f 667//1 661//1 663//1
f 663//1 661//1 659//1
f 663//1 659//1 657//1
f 657//1 659//1 653//1
f 653//1 659//1 655//1
f 653//1 655//1 649//1
f 649//1 655//1 651//1
f 649//1 651//1 645//1
f 645//1 651//1 647//1
f 645//1 647//1 641//1
f 641//1 647//1 643//1
f 641//1 643//1 637//1
f 637//1 643//1 639//1
f 637//1 639//1 633//1
f 633//1 639//1 635//1
f 633//1 635//1 627//1
f 627//1 635//1 631//1
f 627//1 631//1 623//1
f 623//1 631//1 629//1
f 623//1 629//1 617//1
f 617//1 629//1 625//1
f 617//1 625//1 611//1
f 611//1 625//1 621//1
f 611//1 621//1 609//1
f 609//1 621//1 619//1
f 609//1 619//1 607//1
f 607//1 619//1 615//1
f 607//1 615//1 605//1
f 605//1 615//1 613//1
f 605//1 613//1 603//1
f 603//1 613//1 614//1
f 603//1 614//1 604//1
f 604//1 614//1 606//1
f 606//1 614//1 616//1
f 606//1 616//1 608//1
f 608//1 616//1 620//1
f 608//1 620//1 610//1
f 610//1 620//1 622//1
f 610//1 622//1 612//1
f 612//1 622//1 626//1
f 612//1 626//1 618//1
f 618//1 626//1 630//1
f 618//1 630//1 624//1
f 624//1 630//1 632//1
f 624//1 632//1 628//1
f 628//1 632//1 636//1
f 628//1 636//1 634//1
f 634//1 636//1 640//1
f 634//1 640//1 638//1
f 638//1 640//1 644//1
f 638//1 644//1 642//1
f 642//1 644//1 648//1
f 642//1 648//1 646//1
f 646//1 648//1 652//1
f 646//1 652//1 650//1
f 650//1 652//1 656//1
f 650//1 656//1 654//1
f 654//1 656//1 660//1
f 654//1 660//1 658//1
f 658//1 660//1 664//1
f 664//1 660//1 662//1
f 664//1 662//1 668//1
f 668//1 662//1 666//1
f 668//1 666//1 672//1
f 672//1 666//1 670//1
f 672//1 670//1 676//1
f 676//1 670//1 674//1
f 676//1 674//1 680//1
f 680//1 674//1 678//1
f 680//1 678//1 684//1
f 684//1 678//1 682//1
f 684//1 682//1 688//1
f 688//1 682//1 686//1
f 688//1 686//1 694//1
f 694//1 686//1 690//1
f 694//1 690//1 698//1
f 698//1 690//1 692//1
f 698//1 692//1 707//1
f 707//1 692//1 696//1
f 707//1 696//1 709//1
f 709//1 696//1 700//1
f 709//1 700//1 711//1
f 711//1 700//1 702//1
f 711//1 702//1 713//1
f 713//1 702//1 704//1
f 713//1 704//1 715//1
f 715//1 704//1 705//1
f 600//2 705//2 602//2
f 602//3 705//3 704//3
f 602//3 704//3 601//3
f 601//4 704//4 702//4
f 601//4 702//4 599//4
f 599//5 702//5 700//5
f 599//5 700//5 597//5
f 597//6 700//6 696//6
f 597//6 696//6 595//6
f 595//7 696//7 692//7
f 595//7 692//7 593//7
f 593//8 692//8 690//8
f 593//8 690//8 591//8
f 591//9 690//9 686//9
f 591//9 686//9 589//9
f 589//10 686//10 682//10
f 589//10 682//10 587//10
f 587//11 682//11 678//11
f 587//11 678//11 585//11
f 585//12 678//12 674//12
f 585//12 674//12 580//12
f 580//13 674//13 670//13
f 580//13 670//13 572//13
f 572//14 670//14 666//14
f 572//14 666//14 566//14
f 566//15 666//15 662//15
f 566//15 662//15 562//15
f 562//16 662//16 660//16
f 562//16 660//16 556//16
f 556//17 660//17 656//17
f 556//17 656//17 552//17
f 552//18 656//18 652//18
f 552//18 652//18 546//18
f 546//19 652//19 648//19
f 546//19 648//19 540//19
f 540//20 648//20 644//20
f 540//20 644//20 531//20
f 531//21 644//21 640//21
f 531//21 640//21 529//21
f 529//22 640//22 636//22
f 529//22 636//22 527//22
f 527//23 636//23 632//23
f 527//23 632//23 525//23
f 525//24 632//24 630//24
f 525//24 630//24 523//24
f 523//25 630//25 626//25
f 523//25 626//25 521//25
f 521//26 626//26 622//26
f 521//26 622//26 519//26
f 519//27 622//27 620//27
f 519//28 620//28 517//28
f 517//29 620//29 616//29
f 517//29 616//29 515//29
f 515//30 616//30 614//30
f 515//30 614//30 513//30
f 513//31 614//31 613//31
f 513//31 613//31 512//31
f 512//32 613//32 615//32
f 512//32 615//32 514//32
f 514//33 615//33 619//33
f 514//33 619//33 516//33
f 516//34 619//34 621//34
f 516//35 621//35 518//35
f 518//36 621//36 625//36
f 518//36 625//36 520//36
f 520//37 625//37 629//37
f 520//37 629//37 522//37
f 522//38 629//38 631//38
f 522//38 631//38 524//38
f 524//39 631//39 635//39
f 524//39 635//39 526//39
f 526//40 635//40 639//40
f 526//40 639//40 528//40
f 528//41 639//41 643//41
f 528//41 643//41 530//41
f 530//42 643//42 647//42
f 530//42 647//42 539//42
f 539//43 647//43 651//43
f 539//43 651//43 545//43
f 545//44 651//44 655//44
f 545//44 655//44 551//44
f 551//45 655//45 659//45
f 551//45 659//45 555//45
f 555//46 659//46 661//46
f 555//46 661//46 561//46
f 561//47 661//47 665//47
f 561//47 665//47 565//47
f 565//48 665//48 669//48
f 565//48 669//48 571//48
f 571//49 669//49 673//49
f 571//49 673//49 579//49
f 579//50 673//50 677//50
f 579//50 677//50 584//50
f 584//51 677//51 681//51
f 584//51 681//51 586//51
f 586//52 681//52 685//52
f 586//52 685//52 588//52
f 588//53 685//53 689//53
f 588//53 689//53 590//53
f 590//54 689//54 691//54
f 590//54 691//54 592//54
f 592//55 691//55 695//55
f 592//55 695//55 594//55
f 594//56 695//56 699//56
f 594//56 699//56 596//56
f 596//57 699//57 701//57
f 596//57 701//57 598//57
f 598//58 701//58 703//58
f 598//58 703//58 600//58
f 600//2 703//2 705//2
f 581//1 600//1 583//1
f 583//1 600//1 602//1
f 583//1 602//1 601//1
f 600//1 581//1 598//1
f 598//1 581//1 577//1
f 598//1 577//1 596//1
f 596//1 577//1 594//1
f 594//1 577//1 575//1
f 594//1 575//1 592//1
f 592//1 575//1 573//1
f 592//1 573//1 590//1
f 590//1 573//1 588//1
f 588//1 573//1 569//1
f 588//1 569//1 586//1
f 586//1 569//1 567//1
f 586//1 567//1 584//1
f 584//1 567//1 579//1
f 579//1 567//1 563//1
f 579//1 563//1 571//1
f 571//1 563//1 559//1
f 571//1 559//1 565//1
f 565//1 559//1 561//1
f 561//1 559//1 557//1
f 561//1 557//1 555//1
f 555//1 557//1 551//1
f 551//1 557//1 553//1
f 551//1 553//1 545//1
f 545//1 553//1 549//1
f 545//1 549//1 539//1
f 539//1 549//1 530//1
f 530//1 549//1 547//1
f 530//1 547//1 528//1
f 528//1 547//1 543//1
f 528//1 543//1 526//1
f 526//1 543//1 524//1
f 524//1 543//1 541//1
f 524//1 541//1 522//1
f 522//1 541//1 537//1
f 522//1 537//1 520//1
f 520//1 537//1 518//1
f 518//1 537//1 535//1
f 518//1 535//1 516//1
f 516//1 535//1 533//1
f 516//1 533//1 514//1
f 514//1 533//1 512//1
f 512//1 533//1 532//1
f 512//1 532//1 513//1
f 513//1 532//1 534//1
f 513//1 534//1 515//1
f 515//1 534//1 517//1
f 517//1 534//1 536//1
f 517//1 536//1 519//1
f 519//1 536//1 538//1
f 519//1 538//1 521//1
f 521//1 538//1 523//1
f 523//1 538//1 542//1
f 523//1 542//1 525//1
f 525//1 542//1 544//1
f 525//1 544//1 527//1
f 527//1 544//1 529//1
f 529//1 544//1 548//1
f 529//1 548//1 531//1
f 531//1 548//1 550//1
f 531//1 550//1 540//1
f 540//1 550//1 546//1
f 546//1 550//1 554//1
f 546//1 554//1 552//1
f 552//1 554//1 558//1
f 552//1 558//1 556//1
f 556//1 558//1 562//1
f 562//1 558//1 560//1
f 562//1 560//1 566//1
f 566//1 560//1 572//1
f 572//1 560//1 564//1
f 572//1 564//1 580//1
f 580//1 564//1 568//1
f 580//1 568//1 585//1
f 585//1 568//1 587//1
f 587//1 568//1 570//1
f 587//1 570//1 589//1
f 589//1 570//1 574//1
f 589//1 574//1 591//1
f 591//1 574//1 593//1
f 593//1 574//1 576//1
f 593//1 576//1 595//1
f 595//1 576//1 578//1
f 595//1 578//1 597//1
f 597//1 578//1 599//1
f 599//1 578//1 582//1
f 599//1 582//1 601//1
f 601//1 582//1 583//1
f 509//59 581//59 511//59
f 511//59 581//59 583//59
f 511//60 583//60 510//60
f 510//60 583//60 582//60
f 510//61 582//61 508//61
f 508//61 582//61 578//61
f 508//62 578//62 506//62
f 506//62 578//62 576//62
f 506//63 576//63 504//63
f 504//63 576//63 574//63
f 504//64 574//64 502//64
f 502//64 574//64 570//64
f 502//65 570//65 500//65
f 500//65 570//65 568//65
f 500//66 568//66 498//66
f 498//66 568//66 564//66
f 498//67 564//67 496//67
f 496//67 564//67 560//67
f 496//68 560//68 494//68
f 494//68 560//68 558//68
f 494//69 558//69 492//69
f 492//69 558//69 554//69
f 492//70 554//70 490//70
f 490//70 554//70 550//70
f 490//71 550//71 488//71
f 488//71 550//71 548//71
f 488//72 548//72 486//72
f 486//72 548//72 544//72
f 486//73 544//73 484//73
f 484//73 544//73 542//73
f 484//74 542//74 482//74
f 482//74 542//74 538//74
f 482//75 538//75 480//75
f 480//75 538//75 536//75
f 480//76 536//76 478//76
f 478//76 536//76 534//76
f 478//77 534//77 476//77
f 476//77 534//77 532//77
f 476//78 532//78 477//78
f 477//78 532//78 533//78
f 477//79 533//79 479//79
f 479//79 533//79 535//79
f 479//80 535//80 481//80
f 481//80 535//80 537//80
f 481//81 537//81 483//81
f 483//81 537//81 541//81
f 483//82 541//82 485//82
f 485//82 541//82 543//82
f 485//83 543//83 487//83
f 487//83 543//83 547//83
f 487//84 547//84 489//84
f 489//84 547//84 549//84
f 489//85 549//85 491//85
f 491//85 549//85 553//85
f 491//86 553//86 493//86
f 493//86 553//86 557//86
f 493//87 557//87 495//87
f 495//87 557//87 559//87
f 495//88 559//88 497//88
f 497//88 559//88 563//88
f 497//89 563//89 499//89
f 499//89 563//89 567//89
f 499//90 567//90 501//90
f 501//90 567//90 569//90
f 501//91 569//91 503//91
f 503//91 569//91 573//91
f 503//92 573//92 505//92
f 505//92 573//92 575//92
f 505//93 575//93 507//93
f 507//93 575//93 577//93
f 507//94 577//94 509//94
f 509//94 577//94 581//94
f 473//95 509//95 475//95
f 475//95 509//95 511//95
f 475//96 511//96 474//96
f 474//96 511//96 510//96
f 474//97 510//97 472//97
f 472//97 510//97 508//97
f 472//98 508//98 466//98
f 466//98 508//98 506//98
f 466//99 506//99 460//99
f 460//99 506//99 504//99
f 460//100 504//100 444//100
f 444//100 504//100 502//100
f 444//101 502//101 434//101
f 434//101 502//101 500//101
f 434//102 500//102 417//102
f 417//102 500//102 498//102
f 417//103 498//103 409//103
f 409//103 498//103 496//103
f 409//104 496//104 393//104
f 393//104 496//104 494//104
f 393//105 494//105 371//105
f 371//105 494//105 492//105
f 371//106 492//106 365//106
f 365//106 492//106 490//106
f 365//107 490//107 347//107
f 347//107 490//107 488//107
f 347//108 488//108 337//108
f 337//108 488//108 486//108
f 337//109 486//109 327//109
f 327//109 486//109 484//109
f 327//110 484//110 325//110
f 325//110 484//110 482//110
f 325//111 482//111 323//111
f 323//111 482//111 480//111
f 323//112 480//112 321//112
f 321//112 480//112 478//112
f 321//113 478//113 319//113
f 319//113 478//113 476//113
f 319//114 476//114 320//114
f 320//114 476//114 477//114
f 320//115 477//115 322//115
f 322//115 477//115 479//115
f 322//116 479//116 324//116
f 324//116 479//116 481//116
f 324//117 481//117 326//117
f 326//117 481//117 483//117
f 326//118 483//118 336//118
f 336//118 483//118 485//118
f 336//119 485//119 346//119
f 346//119 485//119 487//119
f 346//120 487//120 364//120
f 364//120 487//120 489//120
f 364//121 489//121 370//121
f 370//121 489//121 491//121
f 370//122 491//122 388//122
f 388//122 491//122 493//122
f 388//123 493//123 408//123
f 408//123 493//123 495//123
f 408//124 495//124 416//124
f 416//124 495//124 497//124
f 416//125 497//125 433//125
f 433//125 497//125 499//125
f 433//126 499//126 443//126
f 443//126 499//126 501//126
f 443//127 501//127 459//127
f 459//127 501//127 503//127
f 459//128 503//128 465//128
f 465//128 503//128 505//128
f 465//129 505//129 471//129
f 471//129 505//129 507//129
f 471//130 507//130 473//130
f 473//130 507//130 509//130
f 431//1 415//1 437//1
f 437//1 415//1 452//1
f 437//1 452//1 458//1
f 415//1 431//1 413//1
f 413//1 431//1 427//1
f 413//1 427//1 411//1
f 411//1 427//1 423//1
f 411//1 423//1 396//1
f 396//1 423//1 402//1
f 402//1 423//1 424//1
f 402//1 424//1 406//1
f 406//1 424//1 428//1
f 406//1 428//1 417//1
f 417//1 428//1 434//1
f 434//1 428//1 432//1
f 434//1 432//1 438//1
f 434//1 438//1 444//1
f 444//1 438//1 442//1
f 444//1 442//1 450//1
f 444//1 450//1 460//1
f 460//1 450//1 456//1
f 460//1 456//1 466//1
f 466//1 456//1 455//1
f 466//1 455//1 449//1
f 466//1 449//1 472//1
f 472//1 449//1 441//1
f 472//1 441//1 462//1
f 462//1 441//1 458//1
f 458//1 441//1 437//1
f 384//1 387//1 391//1
f 391//1 387//1 399//1
f 391//1 399//1 396//1
f 396//1 399//1 411//1
f 387//1 384//1 377//1
f 377//1 384//1 380//1
f 377//1 380//1 358//1
f 358//1 380//1 359//1
f 359//1 380//1 374//1
f 359//1 374//1 355//1
f 355//1 374//1 365//1
f 355//1 365//1 347//1
f 374//1 375//1 365//1
f 365//1 375//1 381//1
f 365//1 381//1 371//1
f 371//1 381//1 385//1
f 371//1 385//1 393//1
f 393//1 385//1 392//1
f 393//1 392//1 397//1
f 393//1 397//1 409//1
f 409//1 397//1 403//1
f 409//1 403//1 417//1
f 417//1 403//1 407//1
f 417//1 407//1 406//1
f 340//1 361//1 344//1
f 344//1 361//1 363//1
f 344//1 363//1 350//1
f 350//1 363//1 367//1
f 350//1 367//1 354//1
f 354//1 367//1 369//1
f 354//1 369//1 358//1
f 358//1 369//1 377//1
f 334//1 323//1 340//1
f 340//1 323//1 321//1
f 340//1 321//1 361//1
f 361//1 321//1 319//1
f 361//1 319//1 360//1
f 360//1 319//1 320//1
f 360//1 320//1 339//1
f 339//1 320//1 322//1
f 339//1 322//1 333//1
f 333//1 322//1 324//1
f 333//1 324//1 329//1
f 329//1 324//1 328//1
f 328//1 324//1 326//1
f 328//1 326//1 332//1
f 332//1 326//1 336//1
f 332//1 336//1 338//1
f 338//1 336//1 342//1
f 342//1 336//1 346//1
f 342//1 346//1 348//1
f 348//1 346//1 352//1
f 352//1 346//1 364//1
f 352//1 364//1 373//1
f 373//1 364//1 372//1
f 372//1 364//1 378//1
f 378//1 364//1 370//1
f 378//1 370//1 382//1
f 382//1 370//1 388//1
f 382//1 388//1 389//1
f 389//1 388//1 394//1
f 394//1 388//1 408//1
f 394//1 408//1 400//1
f 400//1 408//1 416//1
f 400//1 416//1 404//1
f 404//1 416//1 405//1
f 405//1 416//1 425//1
f 405//1 425//1 421//1
f 323//1 334//1 325//1
f 325//1 334//1 330//1
f 325//1 330//1 331//1
f 325//1 331//1 327//1
f 327//1 331//1 335//1
f 327//1 335//1 337//1
f 337//1 335//1 341//1
f 337//1 341//1 345//1
f 337//1 345//1 347//1
f 347//1 345//1 351//1
f 347//1 351//1 355//1
f 339//1 343//1 360//1
f 360//1 343//1 362//1
f 362//1 343//1 349//1
f 362//1 349//1 366//1
f 366//1 349//1 353//1
f 366//1 353//1 368//1
f 368//1 353//1 357//1
f 368//1 357//1 376//1
f 376//1 357//1 379//1
f 376//1 379//1 383//1
f 357//1 356//1 379//1
f 379//1 356//1 373//1
f 373//1 356//1 352//1
f 376//1 383//1 386//1
f 386//1 383//1 390//1
f 386//1 390//1 398//1
f 398//1 390//1 395//1
f 398//1 395//1 410//1
f 410//1 395//1 422//1
f 410//1 422//1 426//1
f 395//1 401//1 422//1
f 422//1 401//1 421//1
f 421//1 401//1 405//1
f 429//1 433//1 435//1
f 435//1 433//1 443//1
f 435//1 443//1 439//1
f 439//1 443//1 447//1
f 447//1 443//1 459//1
f 447//1 459//1 453//1
f 453//1 459//1 465//1
f 453//1 465//1 454//1
f 454//1 465//1 448//1
f 448//1 465//1 471//1
f 448//1 471//1 440//1
f 440//1 471//1 461//1
f 440//1 461//1 457//1
f 429//1 425//1 433//1
f 433//1 425//1 416//1
f 410//1 426//1 412//1
f 412//1 426//1 430//1
f 412//1 430//1 414//1
f 414//1 430//1 436//1
f 414//1 436//1 451//1
f 451//1 436//1 457//1
f 457//1 436//1 440//1
f 414//1 451//1 418//1
f 418//1 451//1 445//1
f 418//1 445//1 420//1
f 420//1 445//1 446//1
f 420//1 446//1 419//1
f 419//1 446//1 452//1
f 419//1 452//1 415//1
f 462//1 464//1 472//1
f 472//1 464//1 474//1
f 474//1 464//1 468//1
f 474//1 468//1 470//1
f 474//1 470//1 475//1
f 475//1 470//1 469//1
f 475//1 469//1 473//1
f 473//1 469//1 467//1
f 473//1 467//1 463//1
f 473//1 463//1 471//1
f 471//1 463//1 461//1
f 245//131 420//131 251//131
f 251//132 420//132 419//132
f 251//132 419//132 246//132
f 246//133 419//133 415//133
f 246//133 415//133 244//133
f 244//134 415//134 413//134
f 244//134 413//134 234//134
f 234//135 413//135 411//135
f 234//135 411//135 222//135
f 222//136 411//136 399//136
f 222//136 399//136 212//136
f 212//137 399//137 387//137
f 212//137 387//137 206//137
f 206//138 387//138 377//138
f 206//138 377//138 198//138
f 198//139 377//139 369//139
f 198//139 369//139 188//139
f 188//140 369//140 367//140
f 188//140 367//140 178//140
f 178//141 367//141 363//141
f 178//141 363//141 170//141
f 170//142 363//142 361//142
f 170//142 361//142 164//142
f 164//31 361//31 360//31
f 164//31 360//31 163//31
f 163//143 360//143 362//143
f 163//143 362//143 169//143
f 169//144 362//144 366//144
f 169//144 366//144 177//144
f 177//145 366//145 368//145
f 177//145 368//145 187//145
f 187//146 368//146 376//146
f 187//146 376//146 197//146
f 197//147 376//147 386//147
f 197//147 386//147 205//147
f 205//148 386//148 398//148
f 205//148 398//148 211//148
f 211//149 398//149 410//149
f 211//149 410//149 221//149
f 221//150 410//150 412//150
f 221//150 412//150 233//150
f 233//151 412//151 414//151
f 233//151 414//151 243//151
f 243//152 414//152 418//152
f 243//152 418//152 245//152
f 245//131 418//131 420//131
f 257//153 228//153 263//153
f 263//153 228//153 220//153
f 263//153 220//153 295//153
f 295//153 220//153 279//153
f 279//153 220//153 216//153
f 279//153 216//153 253//153
f 253//153 216//153 224//153
f 224//153 216//153 210//153
f 224//153 210//153 204//153
f 204//153 210//153 172//153
f 172//153 210//153 202//153
f 172//153 202//153 154//153
f 154//153 202//153 196//153
f 154//153 196//153 136//153
f 136//153 196//153 158//153
f 136//153 158//153 134//153
f 134//153 158//153 152//153
f 134//153 152//153 132//153
f 132//153 152//153 148//153
f 132//153 148//153 130//153
f 130//153 148//153 128//153
f 128//153 148//153 144//153
f 128//153 144//153 126//153
f 126//153 144//153 124//153
f 124//153 144//153 140//153
f 124//153 140//153 122//153
f 122//153 140//153 139//153
f 122//153 139//153 120//153
f 120//153 139//153 118//153
f 118//153 139//153 143//153
f 118//153 143//153 116//153
f 116//153 143//153 142//153
f 116//153 142//153 115//153
f 115//153 142//153 117//153
f 117//153 142//153 138//153
f 117//153 138//153 119//153
f 119//153 138//153 121//153
f 121//153 138//153 137//153
f 121//153 137//153 123//153
f 123//153 137//153 141//153
f 123//153 141//153 125//153
f 125//153 141//153 127//153
f 127//153 141//153 145//153
f 127//153 145//153 129//153
f 129//153 145//153 131//153
f 131//153 145//153 149//153
f 131//153 149//153 133//153
f 133//153 149//153 155//153
f 133//153 155//153 135//153
f 135//153 155//153 193//153
f 135//153 193//153 153//153
f 153//153 193//153 199//153
f 153//153 199//153 171//153
f 171//153 199//153 207//153
f 171//153 207//153 203//153
f 203//153 207//153 223//153
f 223//153 207//153 213//153
f 223//153 213//153 252//153
f 252//153 213//153 278//153
f 278//153 213//153 217//153
f 278//153 217//153 294//153
f 294//153 217//153 260//153
f 294//153 260//153 268//153
f 228//153 257//153 232//153
f 232//153 257//153 250//153
f 232//153 250//153 231//153
f 231//153 250//153 242//153
f 231//153 242//153 227//153
f 227//153 242//153 238//153
f 227//153 238//153 219//153
f 219//153 238//153 237//153
f 219//153 237//153 222//153
f 222//153 237//153 241//153
f 222//153 241//153 234//153
f 234//153 241//153 249//153
f 234//153 249//153 244//153
f 244//153 249//153 256//153
f 244//153 256//153 246//153
f 246//153 256//153 265//153
f 246//153 265//153 259//153
f 256//153 262//153 265//153
f 265//153 262//153 267//153
f 267//153 262//153 270//153
f 267//153 270//153 273//153
f 273//153 270//153 276//153
f 273//153 276//153 285//153
f 285//153 276//153 282//153
f 285//153 282//153 291//153
f 291//153 282//153 288//153
f 291//153 288//153 293//153
f 293//153 288//153 289//153
f 293//153 289//153 313//153
f 313//153 289//153 311//153
f 311//153 289//153 309//153
f 309//153 289//153 283//153
f 309//153 283//153 307//153
f 307//153 283//153 277//153
f 307//153 277//153 305//153
f 305//153 277//153 303//153
f 303//153 277//153 271//153
f 303//153 271//153 301//153
f 301//153 271//153 295//153
f 295//153 271//153 263//153
f 196//153 192//153 158//153
f 158//153 192//153 162//153
f 162//153 192//153 186//153
f 162//153 186//153 168//153
f 168//153 186//153 185//153
f 168//153 185//153 176//153
f 176//153 185//153 191//153
f 176//153 191//153 182//153
f 182//153 191//153 195//153
f 182//153 195//153 181//153
f 181//153 195//153 198//153
f 181//153 198//153 175//153
f 175//153 198//153 188//153
f 175//153 188//153 167//153
f 167//153 188//153 178//153
f 167//153 178//153 161//153
f 161//153 178//153 170//153
f 161//153 170//153 157//153
f 157//153 170//153 164//153
f 157//153 164//153 151//153
f 151//153 164//153 163//153
f 151//153 163//153 150//153
f 150//153 163//153 156//153
f 156//153 163//153 169//153
f 156//153 169//153 160//153
f 160//153 169//153 177//153
f 160//153 177//153 166//153
f 166//153 177//153 187//153
f 166//153 187//153 174//153
f 174//153 187//153 197//153
f 174//153 197//153 180//153
f 180//153 197//153 194//153
f 180//153 194//153 179//153
f 179//153 194//153 190//153
f 179//153 190//153 173//153
f 173//153 190//153 184//153
f 173//153 184//153 165//153
f 165//153 184//153 183//153
f 165//153 183//153 159//153
f 159//153 183//153 189//153
f 159//153 189//153 155//153
f 155//153 189//153 193//153
f 195//153 201//153 198//153
f 198//153 201//153 206//153
f 206//153 201//153 209//153
f 206//153 209//153 212//153
f 212//153 209//153 215//153
f 212//153 215//153 222//153
f 222//153 215//153 219//153
f 142//153 143//153 146//153
f 146//153 143//153 147//153
f 146//153 147//153 150//153
f 150//153 147//153 151//153
f 200//153 205//153 208//153
f 208//153 205//153 211//153
f 208//153 211//153 214//153
f 214//153 211//153 221//153
f 214//153 221//153 218//153
f 218//153 221//153 236//153
f 218//153 236//153 235//153
f 205//153 200//153 197//153
f 197//153 200//153 194//153
f 217//153 225//153 260//153
f 260//153 225//153 254//153
f 254//153 225//153 229//153
f 254//153 229//153 247//153
f 247//153 229//153 230//153
f 247//153 230//153 239//153
f 239//153 230//153 226//153
f 239//153 226//153 235//153
f 235//153 226//153 218//153
f 255//153 264//153 261//153
f 261//153 264//153 266//153
f 261//153 266//153 269//153
f 269//153 266//153 272//153
f 269//153 272//153 275//153
f 275//153 272//153 284//153
f 275//153 284//153 281//153
f 281//153 284//153 290//153
f 281//153 290//153 287//153
f 287//153 290//153 292//153
f 287//153 292//153 286//153
f 286//153 292//153 312//153
f 286//153 312//153 310//153
f 248//153 243//153 255//153
f 255//153 243//153 245//153
f 255//153 245//153 264//153
f 264//153 245//153 258//153
f 258//153 245//153 251//153
f 258//153 251//153 259//153
f 259//153 251//153 246//153
f 243//153 248//153 233//153
f 233//153 248//153 240//153
f 233//153 240//153 221//153
f 221//153 240//153 236//153
f 274//153 302//153 268//153
f 268//153 302//153 300//153
f 268//153 300//153 294//153
f 280//153 306//153 274//153
f 274//153 306//153 304//153
f 274//153 304//153 302//153
f 306//153 280//153 308//153
f 308//153 280//153 286//153
f 308//153 286//153 310//153
f 292//153 296//153 312//153
f 312//153 296//153 314//153
f 314//153 296//153 298//153
f 314//153 298//153 316//153
f 316//153 298//153 318//153
f 318//153 298//153 299//153
f 318//153 299//153 317//153
f 317//153 299//153 315//153
f 315//153 299//153 297//153
f 315//153 297//153 313//153
f 313//153 297//153 293//153
f 101//2 318//2 103//2
f 103//3 318//3 317//3
f 103//3 317//3 102//3
f 102//4 317//4 315//4
f 102//4 315//4 100//4
f 100//5 315//5 313//5
f 100//5 313//5 98//5
f 98//6 313//6 311//6
f 98//6 311//6 94//6
f 94//7 311//7 309//7
f 94//7 309//7 90//7
f 90//8 309//8 307//8
f 90//8 307//8 88//8
f 88//9 307//9 305//9
f 88//9 305//9 84//9
f 84//10 305//10 303//10
f 84//10 303//10 80//10
f 80//11 303//11 301//11
f 80//11 301//11 76//11
f 76//12 301//12 295//12
f 76//12 295//12 72//12
f 72//13 295//13 279//13
f 72//13 279//13 68//13
f 68//14 279//14 253//14
f 68//14 253//14 64//14
f 64//15 253//15 224//15
f 64//15 224//15 60//15
f 60//16 224//16 204//16
f 60//16 204//16 58//16
f 58//17 204//17 172//17
f 58//17 172//17 54//17
f 54//18 172//18 154//18
f 54//18 154//18 50//18
f 50//19 154//19 136//19
f 50//19 136//19 46//19
f 46//20 136//20 134//20
f 46//20 134//20 42//20
f 42//21 134//21 132//21
f 42//21 132//21 38//21
f 38//22 132//22 130//22
f 38//22 130//22 34//22
f 34//23 130//23 128//23
f 34//23 128//23 30//23
f 30//24 128//24 126//24
f 30//24 126//24 28//24
f 28//25 126//25 124//25
f 28//25 124//25 24//25
f 24//26 124//26 122//26
f 24//26 122//26 20//26
f 20//28 122//28 120//28
f 20//28 120//28 18//28
f 18//29 120//29 118//29
f 18//29 118//29 14//29
f 14//30 118//30 116//30
f 14//30 116//30 12//30
f 12//31 116//31 115//31
f 12//31 115//31 11//31
f 11//32 115//32 117//32
f 11//32 117//32 13//32
f 13//33 117//33 119//33
f 13//33 119//33 17//33
f 17//34 119//34 121//34
f 17//34 121//34 19//34
f 19//36 121//36 123//36
f 19//36 123//36 23//36
f 23//37 123//37 125//37
f 23//37 125//37 27//37
f 27//38 125//38 127//38
f 27//38 127//38 29//38
f 29//39 127//39 129//39
f 29//39 129//39 33//39
f 33//40 129//40 131//40
f 33//40 131//40 37//40
f 37//41 131//41 133//41
f 37//41 133//41 41//41
f 41//42 133//42 135//42
f 41//42 135//42 45//42
f 45//43 135//43 153//43
f 45//43 153//43 49//43
f 49//44 153//44 171//44
f 49//44 171//44 53//44
f 53//45 171//45 203//45
f 53//45 203//45 57//45
f 57//46 203//46 223//46
f 57//46 223//46 59//46
f 59//47 223//47 252//47
f 59//47 252//47 63//47
f 63//48 252//48 278//48
f 63//48 278//48 67//48
f 67//49 278//49 294//49
f 67//49 294//49 71//49
f 71//50 294//50 300//50
f 71//50 300//50 75//50
f 75//51 300//51 302//51
f 75//51 302//51 79//51
f 79//52 302//52 304//52
f 79//52 304//52 83//52
f 83//53 304//53 306//53
f 83//53 306//53 87//53
f 87//54 306//54 308//54
f 87//54 308//54 89//54
f 89//55 308//55 310//55
f 89//55 310//55 93//55
f 93//56 310//56 312//56
f 93//56 312//56 97//56
f 97//57 312//57 314//57
f 97//57 314//57 99//57
f 99//58 314//58 316//58
f 99//58 316//58 101//58
f 101//2 316//2 318//2
f 113//153 114//153 103//153
f 103//153 114//153 112//153
f 103//153 112//153 101//153
f 101//153 112//153 110//153
f 101//153 110//153 99//153
f 99//153 110//153 108//153
f 99//153 108//153 97//153
f 97//153 108//153 106//153
f 97//153 106//153 93//153
f 93//153 106//153 104//153
f 93//153 104//153 89//153
f 89//153 104//153 95//153
f 89//153 95//153 87//153
f 87//153 95//153 91//153
f 87//153 91//153 83//153
f 83//153 91//153 85//153
f 83//153 85//153 79//153
f 79//153 85//153 81//153
f 79//153 81//153 75//153
f 75//153 81//153 77//153
f 75//153 77//153 71//153
f 71//153 77//153 73//153
f 71//153 73//153 67//153
f 67//153 73//153 69//153
f 67//153 69//153 63//153
f 63//153 69//153 65//153
f 63//153 65//153 59//153
f 59//153 65//153 61//153
f 59//153 61//153 57//153
f 57//153 61//153 55//153
f 57//153 55//153 51//153
f 57//153 51//153 53//153
f 53//153 51//153 47//153
f 53//153 47//153 49//153
f 49//153 47//153 43//153
f 49//153 43//153 45//153
f 45//153 43//153 39//153
f 45//153 39//153 41//153
f 41//153 39//153 35//153
f 41//153 35//153 37//153
f 37//153 35//153 31//153
f 37//153 31//153 33//153
f 33//153 31//153 25//153
f 33//153 25//153 29//153
f 29//153 25//153 21//153
f 29//153 21//153 27//153
f 27//153 21//153 15//153
f 27//153 15//153 23//153
f 23//153 15//153 9//153
f 23//153 9//153 19//153
f 19//153 9//153 7//153
f 19//153 7//153 17//153
f 17//153 7//153 5//153
f 17//153 5//153 13//153
f 13//153 5//153 3//153
f 13//153 3//153 11//153
f 11//153 3//153 1//153
f 11//153 1//153 2//153
f 11//153 2//153 12//153
f 12//153 2//153 4//153
f 12//153 4//153 14//153
f 14//153 4//153 6//153
f 14//153 6//153 18//153
f 18//153 6//153 8//153
f 18//153 8//153 20//153
f 20//153 8//153 10//153
f 20//153 10//153 24//153
f 24//153 10//153 16//153
f 24//153 16//153 28//153
f 28//153 16//153 22//153
f 28//153 22//153 30//153
f 30//153 22//153 26//153
f 30//153 26//153 34//153
f 34//153 26//153 32//153
f 34//153 32//153 38//153
f 38//153 32//153 36//153
f 38//153 36//153 42//153
f 42//153 36//153 40//153
f 42//153 40//153 46//153
f 46//153 40//153 44//153
f 46//153 44//153 50//153
f 50//153 44//153 48//153
f 50//153 48//153 54//153
f 54//153 48//153 52//153
f 54//153 52//153 58//153
f 58//153 52//153 56//153
f 58//153 56//153 62//153
f 58//153 62//153 60//153
f 60//153 62//153 66//153
f 60//153 66//153 64//153
f 64//153 66//153 70//153
f 64//153 70//153 68//153
f 68//153 70//153 74//153
f 68//153 74//153 72//153
f 72//153 74//153 78//153
f 72//153 78//153 76//153
f 76//153 78//153 82//153
f 76//153 82//153 80//153
f 80//153 82//153 86//153
f 80//153 86//153 84//153
f 84//153 86//153 92//153
f 84//153 92//153 88//153
f 88//153 92//153 96//153
f 88//153 96//153 90//153
f 90//153 96//153 105//153
f 90//153 105//153 94//153
f 94//153 105//153 107//153
f 94//153 107//153 98//153
f 98//153 107//153 109//153
f 98//153 109//153 100//153
f 100//153 109//153 111//153
f 100//153 111//153 102//153
f 102//153 111//153 113//153
f 102//153 113//153 103//153
f 714//154 114//154 716//154
f 716//155 114//155 113//155
f 716//155 113//155 715//155
f 715//156 113//156 111//156
f 715//156 111//156 713//156
f 713//157 111//157 109//157
f 713//157 109//157 711//157
f 711//158 109//158 107//158
f 711//158 107//158 709//158
f 709//159 107//159 105//159
f 709//159 105//159 707//159
f 707//160 105//160 96//160
f 707//160 96//160 698//160
f 698//161 96//161 92//161
f 698//161 92//161 694//161
f 694//162 92//162 86//162
f 694//162 86//162 688//162
f 688//163 86//163 82//163
f 688//163 82//163 684//163
f 684//164 82//164 78//164
f 684//164 78//164 680//164
f 680//165 78//165 74//165
f 680//165 74//165 676//165
f 676//166 74//166 70//166
f 676//166 70//166 672//166
f 672//167 70//167 66//167
f 672//167 66//167 668//167
f 668//168 66//168 62//168
f 668//168 62//168 664//168
f 664//169 62//169 56//169
f 664//169 56//169 658//169
f 658//170 56//170 52//170
f 658//170 52//170 654//170
f 654//171 52//171 48//171
f 654//171 48//171 650//171
f 650//172 48//172 44//172
f 650//172 44//172 646//172
f 646//173 44//173 40//173
f 646//173 40//173 642//173
f 642//174 40//174 36//174
f 642//174 36//174 638//174
f 638//175 36//175 32//175
f 638//175 32//175 634//175
f 634//176 32//176 26//176
f 634//176 26//176 628//176
f 628//177 26//177 22//177
f 628//177 22//177 624//177
f 624//178 22//178 16//178
f 624//178 16//178 618//178
f 618//179 16//179 10//179
f 618//179 10//179 612//179
f 612//180 10//180 8//180
f 612//180 8//180 610//180
f 610//181 8//181 6//181
f 610//181 6//181 608//181
f 608//182 6//182 4//182
f 608//182 4//182 606//182
f 606//183 4//183 2//183
f 606//183 2//183 604//183
f 604//184 2//184 1//184
f 604//184 1//184 603//184
f 603//185 1//185 3//185
f 603//185 3//185 605//185
f 605//186 3//186 5//186
f 605//186 5//186 607//186
f 607//187 5//187 7//187
f 607//187 7//187 609//187
f 609//188 7//188 9//188
f 609//188 9//188 611//188
f 611//189 9//189 15//189
f 611//189 15//189 617//189
f 617//190 15//190 21//190
f 617//190 21//190 623//190
f 623//191 21//191 25//191
f 623//191 25//191 627//191
f 627//192 25//192 31//192
f 627//192 31//192 633//192
f 633//193 31//193 35//193
f 633//193 35//193 637//193
f 637//194 35//194 39//194
f 637//194 39//194 641//194
f 641//195 39//195 43//195
f 641//195 43//195 645//195
f 645//196 43//196 47//196
f 645//196 47//196 649//196
f 649//197 47//197 51//197
f 649//197 51//197 653//197
f 653//198 51//198 55//198
f 653//198 55//198 657//198
f 657//199 55//199 61//199
f 657//199 61//199 663//199
f 663//200 61//200 65//200
f 663//200 65//200 667//200
f 667//201 65//201 69//201
f 667//201 69//201 671//201
f 671//202 69//202 73//202
f 671//202 73//202 675//202
f 675//203 73//203 77//203
f 675//203 77//203 679//203
f 679//204 77//204 81//204
f 679//204 81//204 683//204
f 683//205 81//205 85//205
f 683//205 85//205 687//205
f 687//206 85//206 91//206
f 687//206 91//206 693//206
f 693//207 91//207 95//207
f 693//207 95//207 697//207
f 697//208 95//208 104//208
f 697//208 104//208 706//208
f 706//209 104//209 106//209
f 706//209 106//209 708//209
f 708//210 106//210 108//210
f 708//210 108//210 710//210
f 710//211 108//211 110//211
f 710//211 110//211 712//211
f 712//212 110//212 112//212
f 712//212 112//212 714//212
f 714//154 112//154 114//154
