v -0.235139 -0.340250 0.246022
v -0.232225 -0.340250 0.235368
v -0.230548 -0.340250 0.235175
v -0.229604 -0.340250 0.295125
v -0.228152 -0.340250 0.235034
v -0.225728 -0.340250 0.234927
v -0.221989 -0.340250 0.234796
v 0.137000 0.340250 0.235326
v 0.221231 0.340250 0.295388
v 0.221989 0.340250 0.234796
v 0.225728 0.340250 0.234927
v 0.228152 0.340250 0.235034
v 0.229604 0.340250 0.295125
v 0.234375 0.340250 0.284861
v 0.235139 0.340250 0.246022
v 0.370100 -0.042500 0.047622
v 0.370100 -0.042500 0.137379
v 0.370100 0.042500 0.047622
v 0.370100 0.042500 0.137379
v -0.234375 -0.340250 0.284861
v -0.224367 -0.340250 0.295379
v -0.221231 -0.340250 0.295388
v -0.137000 -0.340250 0.235326
v 0.224367 0.340250 0.295379
v 0.230548 0.340250 0.235175
v 0.232225 0.340250 0.235368
v -0.408752 -0.116000 0.266000
v -0.408752 -0.116000 0.268000
v -0.407244 -0.120340 0.266000
v -0.407244 -0.120340 0.268000
v -0.370000 -0.182000 0.030000
v -0.370000 -0.182000 0.205000
v -0.370000 -0.180000 0.310000
v -0.370000 0.320000 0.030000
v -0.370000 0.320000 0.310000
v -0.368478 -0.180000 0.317654
v -0.368478 0.320000 0.317654
v -0.368478 0.327654 0.030000
v -0.368478 0.327654 0.310000
v -0.367891 0.326566 0.316066
v -0.364877 0.333043 0.157926
v -0.364877 0.333043 0.312926
v -0.364142 -0.180000 0.324142
v -0.364142 0.320000 0.324142
v -0.364142 0.334142 0.030000
v -0.364142 0.334142 0.310000
v -0.363066 0.327654 0.323066
v -0.360000 0.334142 0.320000
v -0.357654 -0.180000 0.328478
v -0.357654 0.338478 0.030000
v -0.357654 0.338478 0.310000
v -0.355412 0.338478 0.315412
v -0.352926 0.333043 0.324877
v -0.350000 0.338478 0.317654
v -0.350000 0.340000 0.030000
v -0.350000 0.340000 0.310000
v -0.200000 0.338478 0.317654
v -0.200000 0.340000 0.310000
v -0.198000 0.340000 0.030000
v 0.198000 -0.340000 0.030000
v 0.200000 -0.340000 0.310000
v 0.200000 -0.338478 0.317654
v 0.350000 -0.340000 0.030000
v 0.350000 -0.340000 0.310000
v 0.350000 -0.338478 0.317654
v 0.352926 -0.333043 0.324877
v 0.355412 -0.338478 0.315412
v 0.357654 -0.338478 0.030000
v 0.357654 -0.338478 0.310000
v 0.357654 0.180000 0.328478
v 0.360000 -0.334142 0.320000
v 0.363066 -0.327654 0.323066
v 0.364142 -0.334142 0.030000
v 0.364142 -0.334142 0.310000
v 0.364142 -0.320000 0.324142
v 0.364142 0.180000 0.324142
v 0.364877 -0.333043 0.157926
v 0.364877 -0.333043 0.312926
v 0.367891 -0.326566 0.316066
v 0.368478 -0.327654 0.030000
v 0.368478 -0.327654 0.310000
v 0.368478 -0.320000 0.317654
v 0.368478 0.180000 0.317654
v 0.370000 -0.320000 0.030000
v 0.370000 -0.320000 0.310000
v 0.370000 0.180000 0.310000
v 0.370000 0.182000 0.030000
v 0.370000 0.182000 0.205000
v -0.137249 -0.340250 0.294633
v 0.137249 0.340250 0.294633
v -0.330000 0.314000 0.363000
v -0.164000 -0.314000 0.363000
v 0.164000 0.314000 0.363000
v 0.330000 -0.314000 0.363000
f 34 31 27
f 29 27 31
f 76 13 93
f 44 91 47
f 2 31 60
f 70 93 94
f 70 94 76
f 70 76 93
f 59 26 87
f 92 91 49
f 53 91 54
f 37 44 47
f 1 32 31
f 1 31 2
f 1 33 32
f 7 60 63
f 43 4 92
f 43 92 49
f 43 49 91
f 43 91 44
f 30 32 33
f 48 47 91
f 48 91 53
f 24 57 93
f 24 93 13
f 42 47 48
f 40 39 35
f 40 35 37
f 40 37 47
f 40 47 42
f 40 42 39
f 51 46 42
f 20 33 1
f 28 43 44
f 28 44 37
f 28 37 35
f 78 79 72
f 78 69 74
f 75 94 72
f 82 79 85
f 82 72 79
f 82 75 72
f 83 86 14
f 83 14 13
f 83 13 76
f 15 87 26
f 15 14 86
f 58 57 24
f 41 45 38
f 52 53 54
f 52 48 53
f 52 42 48
f 52 51 42
f 71 78 72
f 71 72 94
f 36 20 4
f 36 4 43
f 36 33 20
f 36 43 28
f 36 28 30
f 36 30 33
f 3 2 60
f 3 60 5
f 6 60 7
f 6 5 60
f 22 89 64
f 22 64 61
f 23 63 64
f 23 64 89
f 23 7 63
f 88 87 15
f 88 15 86
f 88 86 19
f 66 71 94
f 21 22 61
f 21 92 4
f 25 26 59
f 25 59 12
f 11 59 10
f 11 12 59
f 67 64 69
f 67 71 66
f 67 69 78
f 67 78 71
f 65 66 94
f 65 67 66
f 65 64 67
f 81 85 79
f 81 79 78
f 77 73 80
f 9 58 24
f 62 21 61
f 62 92 21
f 55 8 10
f 55 10 59
f 56 51 52
f 56 52 54
f 56 9 90
f 56 90 8
f 92 94 93
f 92 93 91
f 57 91 93
f 57 54 91
f 39 34 35
f 39 38 34
f 30 29 31
f 30 31 32
f 18 84 87
f 18 16 84
f 17 86 85
f 17 19 86
f 17 84 16
f 17 85 84
f 17 16 18
f 17 18 19
f 51 50 45
f 51 45 46
f 69 68 73
f 69 73 74
f 69 63 68
f 69 64 63
f 28 29 30
f 28 27 29
f 28 35 34
f 28 34 27
f 75 76 94
f 83 76 75
f 83 75 82
f 83 85 86
f 83 82 85
f 41 38 39
f 41 39 42
f 41 46 45
f 41 42 46
f 88 18 87
f 88 19 18
f 21 1 2
f 21 6 7
f 21 4 20
f 21 20 1
f 21 2 3
f 21 7 23
f 21 3 5
f 21 5 6
f 21 89 22
f 21 23 89
f 81 84 85
f 81 80 84
f 77 74 73
f 77 78 74
f 77 80 81
f 77 81 78
f 9 24 13
f 9 13 14
f 9 15 26
f 9 8 90
f 9 10 8
f 9 14 15
f 9 26 25
f 9 11 10
f 9 25 12
f 9 12 11
f 62 61 64
f 62 64 65
f 62 94 92
f 62 65 94
f 55 68 63
f 55 34 38
f 55 73 68
f 55 31 34
f 55 60 31
f 55 87 84
f 55 63 60
f 55 59 87
f 55 38 45
f 55 84 80
f 55 45 50
f 55 80 73
f 56 50 51
f 56 55 50
f 56 54 57
f 56 57 58
f 56 58 9
f 56 8 55
