# Blender 4.0.2
# www.blender.org
o short_frame__m6
v -3.816000 -2.249000 2.515000
v -3.816000 -2.230093 2.456809
v -3.816000 -2.230093 2.573191
v -3.816000 -2.180593 2.420845
v -3.816000 -2.180593 2.609154
v -3.816000 -2.119407 2.420845
v -3.816000 -2.119407 2.609154
v -3.816000 -2.069907 2.456809
v -3.816000 -2.069907 2.573191
v -3.816000 -2.051000 2.515000
v -3.791000 -2.249000 2.515000
v -3.791000 -2.230093 2.456809
v -3.791000 -2.230093 2.573191
v -3.791000 -2.180593 2.420845
v -3.791000 -2.180593 2.609154
v -3.791000 -2.119407 2.420845
v -3.791000 -2.119407 2.609154
v -3.791000 -2.069907 2.456809
v -3.791000 -2.069907 2.573191
v -3.791000 -2.051000 2.515000
v 3.784000 2.052060 2.515000
v 3.784000 2.070765 2.457432
v 3.784000 2.070765 2.572568
v 3.784000 2.119735 2.421853
v 3.784000 2.119735 2.608146
v 3.784000 2.180265 2.421853
v 3.784000 2.180265 2.608146
v 3.784000 2.229235 2.457432
v 3.784000 2.229235 2.572568
v 3.784000 2.247940 2.515000
v 3.816000 2.052060 2.515000
v 3.816000 2.070765 2.457432
v 3.816000 2.070765 2.572568
v 3.816000 2.119735 2.421853
v 3.816000 2.119735 2.608146
v 3.816000 2.180265 2.421853
v 3.816000 2.180265 2.608146
v 3.816000 2.229235 2.457432
v 3.816000 2.229235 2.572568
v 3.816000 2.247940 2.515000
vn -0.0000 0.9511 0.3090
vn -0.0000 0.9511 -0.3090
vn -0.0000 0.5878 -0.8090
vn -0.0000 -0.0000 -1.0000
vn -0.0000 -0.5878 -0.8090
vn -0.0000 -0.9511 -0.3090
vn -0.0000 -0.9511 0.3090
vn -0.0000 -0.5878 0.8090
vn -0.0000 -0.0000 1.0000
vn -0.0000 0.5878 0.8090
s 0
f 29//1 39//1 30//1
f 30//1 39//1 40//1
f 30//2 40//2 28//2
f 28//2 40//2 38//2
f 28//3 38//3 26//3
f 26//3 38//3 36//3
f 26//4 36//4 24//4
f 24//4 36//4 34//4
f 24//5 34//5 22//5
f 22//5 34//5 32//5
f 22//6 32//6 21//6
f 21//6 32//6 31//6
f 21//7 31//7 23//7
f 23//7 31//7 33//7
f 23//8 33//8 25//8
f 25//8 33//8 35//8
f 25//9 35//9 27//9
f 27//9 35//9 37//9
f 27//10 37//10 29//10
f 29//10 37//10 39//10
f 9//1 19//1 10//1
f 10//1 19//1 20//1
f 10//2 20//2 8//2
f 8//2 20//2 18//2
f 8//3 18//3 6//3
f 6//3 18//3 16//3
f 6//4 16//4 4//4
f 4//4 16//4 14//4
f 4//5 14//5 2//5
f 2//5 14//5 12//5
f 2//6 12//6 1//6
f 1//6 12//6 11//6
f 1//7 11//7 3//7
f 3//7 11//7 13//7
f 3//8 13//8 5//8
f 5//8 13//8 15//8
f 5//9 15//9 7//9
f 7//9 15//9 17//9
f 7//10 17//10 9//10
f 9//10 17//10 19//10
