# Blender 4.0.2
# www.blender.org
o short_frame__m4
v -3.943258 -2.190269 2.471671
v -3.943258 -2.190269 2.558329
v -3.942525 -2.105318 2.471671
v -3.942525 -2.105318 2.558329
v -3.917523 -2.271440 2.479342
v -3.917523 -2.271440 2.550658
v -3.917523 -2.232884 2.419347
v -3.917523 -2.232884 2.610653
v -3.917523 -2.168012 2.389721
v -3.917523 -2.168012 2.640279
v -3.917523 -2.097422 2.399871
v -3.917523 -2.097422 2.630129
v -3.917523 -2.043525 2.446573
v -3.917523 -2.043525 2.583427
v -3.917523 -2.023433 2.515000
v -3.907545 -2.287297 2.515000
v -3.907545 -2.268903 2.446351
v -3.907545 -2.268903 2.583649
v -3.907545 -2.218649 2.396097
v -3.907545 -2.218649 2.633903
v -3.907545 -2.150000 2.377702
v -3.907545 -2.150000 2.652297
v -3.907545 -2.081351 2.396097
v -3.907545 -2.081351 2.633903
v -3.907545 -2.031097 2.446351
v -3.907545 -2.031097 2.583649
v -3.907545 -2.012702 2.515000
v -3.893675 -2.292022 2.515000
v -3.893675 -2.272995 2.443989
v -3.893675 -2.272995 2.586011
v -3.893675 -2.221011 2.392005
v -3.893675 -2.221011 2.637995
v -3.893675 -2.150000 2.372978
v -3.893675 -2.150000 2.657023
v -3.893675 -2.078989 2.392005
v -3.893675 -2.078989 2.637995
v -3.893675 -2.027005 2.443989
v -3.893675 -2.027005 2.586011
v -3.893675 -2.007978 2.515000
v -3.879221 -2.289614 2.515000
v -3.879221 -2.270909 2.445193
v -3.879221 -2.270909 2.584807
v -3.879221 -2.219807 2.394091
v -3.879221 -2.219807 2.635909
v -3.879221 -2.150000 2.375386
v -3.879221 -2.150000 2.654614
v -3.879221 -2.080193 2.394091
v -3.879221 -2.080193 2.635909
v -3.879221 -2.029091 2.445193
v -3.879221 -2.029091 2.584807
v -3.879221 -2.010386 2.515000
v -3.816000 -2.257463 2.483446
v -3.816000 -2.257463 2.546554
v -3.816000 -2.249000 2.515000
v -3.816000 -2.230093 2.456809
v -3.816000 -2.230093 2.573191
v -3.816000 -2.223344 2.430356
v -3.816000 -2.223344 2.599644
v -3.816000 -2.180593 2.420845
v -3.816000 -2.180593 2.609154
v -3.816000 -2.165939 2.404140
v -3.816000 -2.165939 2.625860
v -3.816000 -2.119407 2.420845
v -3.816000 -2.119407 2.609154
v -3.816000 -2.103473 2.413121
v -3.816000 -2.103473 2.616879
v -3.816000 -2.069907 2.456809
v -3.816000 -2.069907 2.573191
v -3.816000 -2.055780 2.454448
v -3.816000 -2.055780 2.575552
v -3.816000 -2.051000 2.515000
v -3.816000 -2.038000 2.515000
v 3.816000 2.042537 2.483446
v 3.816000 2.042537 2.546554
v 3.816000 2.076656 2.430356
v 3.816000 2.076656 2.599644
v 3.816000 2.134061 2.404140
v 3.816000 2.134061 2.625860
v 3.816000 2.196526 2.413121
v 3.816000 2.196526 2.616879
v 3.816000 2.244220 2.454448
v 3.816000 2.244220 2.575552
v 3.816000 2.262000 2.515000
v 3.879221 2.010386 2.515000
v 3.879221 2.029091 2.445193
v 3.879221 2.029091 2.584807
v 3.879221 2.080193 2.394091
v 3.879221 2.080193 2.635909
v 3.879221 2.150000 2.375386
v 3.879221 2.150000 2.654614
v 3.879221 2.219807 2.394091
v 3.879221 2.219807 2.635909
v 3.879221 2.270909 2.445193
v 3.879221 2.270909 2.584807
v 3.879221 2.289614 2.515000
v 3.893675 2.007978 2.515000
v 3.893675 2.027005 2.443989
v 3.893675 2.027005 2.586011
v 3.893675 2.078989 2.392005
v 3.893675 2.078989 2.637995
v 3.893675 2.150000 2.372978
v 3.893675 2.150000 2.657023
v 3.893675 2.221011 2.392005
v 3.893675 2.221011 2.637995
v 3.893675 2.272995 2.443989
v 3.893675 2.272995 2.586011
v 3.893675 2.292022 2.515000
v 3.907545 2.012702 2.515000
v 3.907545 2.031097 2.446351
v 3.907545 2.031097 2.583649
v 3.907545 2.081351 2.396097
v 3.907545 2.081351 2.633903
v 3.907545 2.150000 2.377702
v 3.907545 2.150000 2.652297
v 3.907545 2.218649 2.396097
v 3.907545 2.218649 2.633903
v 3.907545 2.268903 2.446351
v 3.907545 2.268903 2.583649
v 3.907545 2.287297 2.515000
v 3.917523 2.028560 2.479342
v 3.917523 2.028560 2.550658
v 3.917523 2.067116 2.419347
v 3.917523 2.067116 2.610653
v 3.917523 2.131988 2.389721
v 3.917523 2.131988 2.640279
v 3.917523 2.202578 2.399871
v 3.917523 2.202578 2.630129
v 3.917523 2.256475 2.446573
v 3.917523 2.256475 2.583427
v 3.917523 2.276567 2.515000
v 3.942525 2.194682 2.471671
v 3.942525 2.194682 2.558329
v 3.943258 2.109731 2.471671
v 3.943258 2.109731 2.558329
vn -0.1589 0.9536 0.2555
vn -0.1589 0.9537 0.2555
vn -0.1589 0.9537 -0.2555
vn -0.1589 0.6981 -0.6981
vn -0.1589 0.2555 -0.9537
vn -0.1589 -0.2555 -0.9537
vn -0.1589 -0.6981 -0.6981
vn -0.1589 -0.9536 -0.2556
vn -0.1589 -0.9537 -0.2555
vn -0.1589 -0.9537 0.2555
vn -0.1589 -0.6981 0.6981
vn -0.1589 -0.2555 0.9537
vn -0.1589 -0.2555 0.9536
vn -0.1589 0.2555 0.9536
vn -0.1589 0.6981 0.6981
vn 0.7686 0.6138 -0.1802
vn 0.7204 0.6699 -0.1795
vn 0.7204 0.6699 0.1795
vn 0.3126 0.9175 0.2458
vn 0.3126 0.9175 0.2459
vn 0.6675 0.5265 -0.5265
vn 0.8016 0.3916 -0.4519
vn 0.6161 0.2039 -0.7608
vn 0.8231 0.0808 -0.5622
vn 0.5714 -0.2124 -0.7927
vn 0.8366 -0.2276 -0.4984
vn 0.5384 -0.5959 -0.5959
vn 0.8440 -0.4512 -0.2900
vn 0.5209 -0.8245 -0.2209
vn 0.8464 -0.5326 -0.0000
vn 0.5209 -0.8245 0.2210
vn 0.8440 -0.4512 0.2900
vn 0.5384 -0.5959 0.5959
vn 0.8366 -0.2276 0.4983
vn 0.5714 -0.2124 0.7927
vn 0.8231 0.0808 0.5622
vn 0.6161 0.2039 0.7608
vn 0.8016 0.3916 0.4519
vn 0.6675 0.5265 0.5265
vn 0.7686 0.6138 0.1802
vn 0.3127 0.2458 0.9175
vn 0.3125 0.2458 0.9175
vn 0.3125 0.6717 0.6717
vn 0.3126 -0.2459 0.9175
vn 0.3126 -0.2458 0.9175
vn 0.3125 -0.6717 0.6717
vn 0.3126 -0.9175 0.2458
vn 0.3125 -0.9175 0.2459
vn 0.3125 -0.9176 -0.2459
vn 0.3126 -0.9175 -0.2458
vn 0.3126 -0.6717 -0.6717
vn 0.3125 -0.6717 -0.6717
vn 0.3126 -0.2459 -0.9175
vn 0.3125 -0.2458 -0.9176
vn 0.3125 0.2459 -0.9176
vn 0.3126 0.2458 -0.9175
vn 0.3125 0.6717 -0.6717
vn 0.3126 0.6717 -0.6717
vn 0.3126 0.9175 -0.2458
vn -0.4075 0.8762 0.2573
vn -0.3887 0.8900 0.2385
vn -0.3887 0.8900 -0.2385
vn -0.3730 0.6561 0.6561
vn -0.4243 0.5930 0.6843
vn -0.3602 0.2415 0.9011
vn -0.4372 0.1280 0.8902
vn -0.3504 -0.2424 0.9047
vn -0.4462 -0.3718 0.8141
vn -0.3437 -0.6640 0.6640
vn -0.4515 -0.7506 0.4824
vn -0.3404 -0.9082 0.2434
vn -0.4533 -0.8914 -0.0000
vn -0.3404 -0.9082 -0.2434
vn -0.4515 -0.7506 -0.4824
vn -0.3438 -0.6640 -0.6640
vn -0.4462 -0.3718 -0.8141
vn -0.3504 -0.2424 -0.9047
vn -0.4372 0.1280 -0.8902
vn -0.3602 0.2415 -0.9011
vn -0.4244 0.5930 -0.6843
vn -0.3730 0.6561 -0.6561
vn -0.4075 0.8762 -0.2573
vn 0.9358 0.3383 0.0993
vn 0.9564 0.2920 -0.0000
vn 0.9358 0.3383 -0.0993
vn 0.9218 0.2539 -0.2930
vn 0.9449 0.0466 -0.3239
vn 0.9547 0.0082 -0.2976
vn 0.9304 -0.1523 -0.3335
vn 0.9281 -0.3133 -0.2013
vn 0.9532 -0.3022 -0.0000
vn 0.9281 -0.3133 0.2013
vn 0.9304 -0.1523 0.3335
vn 0.9547 0.0082 0.2976
vn 0.9449 0.0466 0.3239
vn 0.9218 0.2539 0.2930
vn 1.0000 0.0086 -0.0000
vn -0.7686 0.6138 0.1802
vn -0.7204 0.6699 0.1795
vn -0.7204 0.6699 -0.1795
vn -0.3125 0.9175 -0.2459
vn -0.3126 0.9175 -0.2458
vn 0.1589 0.9537 -0.2555
vn 0.1589 0.9536 -0.2556
vn -0.6675 0.5265 0.5265
vn -0.8016 0.3916 0.4519
vn -0.6161 0.2039 0.7608
vn -0.8231 0.0808 0.5622
vn -0.5714 -0.2124 0.7927
vn -0.8366 -0.2276 0.4983
vn -0.5384 -0.5959 0.5959
vn -0.8440 -0.4512 0.2900
vn -0.5209 -0.8246 0.2209
vn -0.8464 -0.5326 -0.0000
vn -0.5208 -0.8246 -0.2209
vn -0.8440 -0.4512 -0.2900
vn -0.5384 -0.5959 -0.5959
vn -0.8366 -0.2276 -0.4984
vn -0.5714 -0.2124 -0.7927
vn -0.8231 0.0808 -0.5622
vn -0.6161 0.2039 -0.7608
vn -0.8016 0.3916 -0.4519
vn -0.6675 0.5265 -0.5265
vn -0.7686 0.6139 -0.1802
vn 0.1589 0.6981 -0.6981
vn 0.1589 0.2555 -0.9537
vn 0.1589 -0.2555 -0.9537
vn 0.1589 -0.6981 -0.6981
vn 0.1589 -0.9537 -0.2555
vn 0.1589 -0.9537 0.2555
vn 0.1589 -0.9536 0.2555
vn 0.1589 -0.6981 0.6981
vn 0.1589 -0.2555 0.9536
vn 0.1589 0.2555 0.9536
vn 0.1589 0.2555 0.9537
vn 0.1589 0.6981 0.6981
vn 0.1589 0.9536 0.2555
vn 0.1589 0.9537 0.2555
vn -0.3126 0.2459 0.9175
vn -0.3126 0.2458 0.9175
vn -0.3125 0.6717 0.6717
vn -0.3126 0.9175 0.2458
vn -0.3125 0.9175 0.2459
vn -0.3127 -0.2458 0.9175
vn -0.3125 -0.2458 0.9175
vn -0.3125 -0.6717 0.6717
vn -0.3126 -0.9175 0.2459
vn -0.3126 -0.9175 0.2458
vn -0.3126 -0.9175 -0.2458
vn -0.3126 -0.6717 -0.6717
vn -0.3125 -0.6717 -0.6717
vn -0.3126 -0.2458 -0.9175
vn -0.3125 -0.2459 -0.9176
vn -0.3125 0.2458 -0.9176
vn -0.3126 0.2458 -0.9175
vn -0.3125 0.6717 -0.6717
vn -0.3126 0.6717 -0.6717
vn -0.9358 0.3383 -0.0993
vn -0.9564 0.2920 -0.0000
vn -0.9358 0.3383 0.0993
vn -0.9218 0.2539 0.2930
vn -0.9449 0.0466 0.3239
vn -0.9547 0.0082 0.2976
vn -0.9304 -0.1523 0.3335
vn -0.9281 -0.3133 0.2013
vn -0.9532 -0.3022 -0.0000
vn -0.9281 -0.3133 -0.2013
vn -0.9304 -0.1523 -0.3335
vn -0.9547 0.0082 -0.2976
vn -0.9449 0.0466 -0.3239
vn -0.9218 0.2539 -0.2930
vn -1.0000 0.0086 -0.0000
vn 0.4075 0.8762 -0.2573
vn 0.3887 0.8900 -0.2385
vn 0.3887 0.8900 0.2385
vn 0.3730 0.6561 -0.6561
vn 0.4243 0.5930 -0.6843
vn 0.3602 0.2415 -0.9011
vn 0.4372 0.1280 -0.8902
vn 0.3504 -0.2424 -0.9047
vn 0.4462 -0.3718 -0.8141
vn 0.3437 -0.6640 -0.6640
vn 0.4515 -0.7506 -0.4824
vn 0.3404 -0.9082 -0.2434
vn 0.4533 -0.8914 -0.0000
vn 0.3404 -0.9082 0.2434
vn 0.4515 -0.7506 0.4824
vn 0.3437 -0.6640 0.6640
vn 0.4462 -0.3718 0.8141
vn 0.3504 -0.2424 0.9047
vn 0.4372 0.1280 0.8902
vn 0.3602 0.2415 0.9011
vn 0.4243 0.5930 0.6843
vn 0.3730 0.6561 0.6561
vn 0.4075 0.8762 0.2573
vn 1.0000 -0.0000 -0.0000
s 0
f 94//1 106//1 95//1
f 95//2 106//2 107//2
f 95//3 107//3 93//3
f 93//3 107//3 105//3
f 93//4 105//4 91//4
f 91//4 105//4 103//4
f 91//5 103//5 89//5
f 89//5 103//5 101//5
f 89//6 101//6 87//6
f 87//6 101//6 99//6
f 87//7 99//7 85//7
f 85//7 99//7 97//7
f 85//8 97//8 84//8
f 84//9 97//9 96//9
f 84//10 96//10 86//10
f 86//10 96//10 98//10
f 86//11 98//11 88//11
f 88//11 98//11 100//11
f 88//12 100//12 90//12
f 90//13 100//13 102//13
f 90//14 102//14 92//14
f 92//14 102//14 104//14
f 92//15 104//15 94//15
f 94//15 104//15 106//15
f 128//16 117//16 130//16
f 130//17 117//17 119//17
f 130//18 119//18 118//18
f 118//19 119//19 107//19
f 118//20 107//20 106//20
f 117//21 128//21 115//21
f 115//22 128//22 126//22
f 115//23 126//23 113//23
f 113//24 126//24 124//24
f 113//25 124//25 111//25
f 111//26 124//26 122//26
f 111//27 122//27 109//27
f 109//28 122//28 120//28
f 109//29 120//29 108//29
f 108//30 120//30 121//30
f 108//31 121//31 110//31
f 110//32 121//32 123//32
f 110//33 123//33 112//33
f 112//34 123//34 125//34
f 112//35 125//35 114//35
f 114//36 125//36 127//36
f 114//37 127//37 116//37
f 116//38 127//38 129//38
f 116//39 129//39 118//39
f 118//40 129//40 130//40
f 102//41 114//41 104//41
f 104//42 114//42 116//42
f 104//43 116//43 106//43
f 106//43 116//43 118//43
f 114//44 102//44 112//44
f 112//45 102//45 100//45
f 112//46 100//46 110//46
f 110//46 100//46 98//46
f 110//47 98//47 108//47
f 108//48 98//48 96//48
f 108//49 96//49 109//49
f 109//50 96//50 97//50
f 109//51 97//51 111//51
f 111//52 97//52 99//52
f 111//53 99//53 113//53
f 113//54 99//54 101//54
f 113//55 101//55 115//55
f 115//56 101//56 103//56
f 115//57 103//57 117//57
f 117//58 103//58 105//58
f 117//59 105//59 119//59
f 119//59 105//59 107//59
f 82//60 94//60 83//60
f 83//61 94//61 95//61
f 83//62 95//62 93//62
f 94//63 82//63 92//63
f 92//64 82//64 80//64
f 92//65 80//65 90//65
f 90//66 80//66 78//66
f 90//67 78//67 88//67
f 88//68 78//68 76//68
f 88//69 76//69 86//69
f 86//70 76//70 74//70
f 86//71 74//71 84//71
f 84//72 74//72 73//72
f 84//73 73//73 85//73
f 85//74 73//74 75//74
f 85//75 75//75 87//75
f 87//76 75//76 77//76
f 87//77 77//77 89//77
f 89//78 77//78 79//78
f 89//79 79//79 91//79
f 91//80 79//80 81//80
f 91//81 81//81 93//81
f 93//82 81//82 83//82
f 129//83 132//83 130//83
f 130//84 132//84 131//84
f 130//85 131//85 128//85
f 128//86 131//86 126//86
f 126//87 131//87 124//87
f 124//88 131//88 133//88
f 124//89 133//89 122//89
f 122//90 133//90 120//90
f 120//91 133//91 134//91
f 120//91 134//91 121//91
f 121//92 134//92 123//92
f 123//93 134//93 125//93
f 125//94 134//94 132//94
f 125//95 132//95 127//95
f 127//96 132//96 129//96
f 133//97 131//97 132//97
f 134//97 133//97 132//97
f 14//98 26//98 15//98
f 15//99 26//99 27//99
f 15//100 27//100 25//100
f 25//101 27//101 39//101
f 25//102 39//102 37//102
f 37//103 39//103 51//103
f 37//104 51//104 49//104
f 26//105 14//105 24//105
f 24//106 14//106 12//106
f 24//107 12//107 22//107
f 22//108 12//108 10//108
f 22//109 10//109 20//109
f 20//110 10//110 8//110
f 20//111 8//111 18//111
f 18//112 8//112 6//112
f 18//113 6//113 16//113
f 16//114 6//114 5//114
f 16//115 5//115 17//115
f 17//116 5//116 7//116
f 17//117 7//117 19//117
f 19//118 7//118 9//118
f 19//119 9//119 21//119
f 21//120 9//120 11//120
f 21//121 11//121 23//121
f 23//122 11//122 13//122
f 23//123 13//123 25//123
f 25//124 13//124 15//124
f 37//125 49//125 35//125
f 35//125 49//125 47//125
f 35//126 47//126 33//126
f 33//126 47//126 45//126
f 33//127 45//127 31//127
f 31//127 45//127 43//127
f 31//128 43//128 29//128
f 29//128 43//128 41//128
f 29//129 41//129 28//129
f 28//129 41//129 40//129
f 28//130 40//130 30//130
f 30//131 40//131 42//131
f 30//132 42//132 32//132
f 32//132 42//132 44//132
f 32//133 44//133 34//133
f 34//133 44//133 46//133
f 34//134 46//134 36//134
f 36//135 46//135 48//135
f 36//136 48//136 38//136
f 38//136 48//136 50//136
f 38//137 50//137 39//137
f 39//138 50//138 51//138
f 22//139 34//139 24//139
f 24//140 34//140 36//140
f 24//141 36//141 26//141
f 26//141 36//141 38//141
f 26//142 38//142 27//142
f 27//143 38//143 39//143
f 34//144 22//144 32//144
f 32//145 22//145 20//145
f 32//146 20//146 30//146
f 30//146 20//146 18//146
f 30//147 18//147 28//147
f 28//148 18//148 16//148
f 28//149 16//149 29//149
f 29//149 16//149 17//149
f 29//150 17//150 31//150
f 31//151 17//151 19//151
f 31//152 19//152 33//152
f 33//153 19//153 21//153
f 33//154 21//154 35//154
f 35//155 21//155 23//155
f 35//156 23//156 37//156
f 37//157 23//157 25//157
f 13//158 3//158 15//158
f 15//159 3//159 4//159
f 15//160 4//160 14//160
f 14//161 4//161 12//161
f 12//162 4//162 10//162
f 10//163 4//163 2//163
f 10//164 2//164 8//164
f 8//165 2//165 6//165
f 6//166 2//166 1//166
f 6//166 1//166 5//166
f 5//167 1//167 7//167
f 7//168 1//168 9//168
f 9//169 1//169 3//169
f 9//170 3//170 11//170
f 11//171 3//171 13//171
f 2//172 4//172 3//172
f 1//172 2//172 3//172
f 69//173 49//173 72//173
f 72//174 49//174 51//174
f 72//175 51//175 50//175
f 49//176 69//176 47//176
f 47//177 69//177 65//177
f 47//178 65//178 45//178
f 45//179 65//179 61//179
f 45//180 61//180 43//180
f 43//181 61//181 57//181
f 43//182 57//182 41//182
f 41//183 57//183 52//183
f 41//184 52//184 40//184
f 40//185 52//185 53//185
f 40//186 53//186 42//186
f 42//187 53//187 58//187
f 42//188 58//188 44//188
f 44//189 58//189 62//189
f 44//190 62//190 46//190
f 46//191 62//191 66//191
f 46//192 66//192 48//192
f 48//193 66//193 70//193
f 48//194 70//194 50//194
f 50//195 70//195 72//195
f 69//196 72//196 71//196
f 71//196 72//196 70//196
f 71//196 70//196 68//196
f 68//196 70//196 66//196
f 68//196 66//196 64//196
f 64//196 66//196 62//196
f 64//196 62//196 60//196
f 60//196 62//196 58//196
f 60//196 58//196 56//196
f 56//196 58//196 53//196
f 56//196 53//196 54//196
f 54//196 53//196 52//196
f 54//196 52//196 55//196
f 55//196 52//196 57//196
f 55//196 57//196 59//196
f 59//196 57//196 61//196
f 59//196 61//196 63//196
f 63//196 61//196 65//196
f 63//196 65//196 67//196
f 67//196 65//196 69//196
f 67//196 69//196 71//196
