# Blender 4.0.2
# www.blender.org
o short_frame__m3
v -1.628393 -3.402500 2.946328
v -1.501825 -3.402500 2.768715
v -1.372493 -3.402500 2.946328
v 1.372493 3.402500 2.946328
v 1.501825 3.402500 2.768715
v 1.628393 3.402500 2.946328
v -3.701000 -0.227515 1.176785
v -3.701000 -0.118700 1.026698
v -3.701000 -0.010838 1.176785
v 3.701000 0.010838 1.176785
v 3.701000 0.118700 1.026698
v 3.701000 0.227515 1.176785
vn -0.0000 1.0000 -0.0000
vn -0.0000 -1.0000 -0.0000
vn -1.0000 -0.0000 -0.0000
vn 1.0000 -0.0000 -0.0000
s 0
f 5//1 4//1 6//1
f 2//2 3//2 1//2
f 9//3 8//3 7//3
f 10//4 11//4 12//4
