# Blender 4.0.2
# www.blender.org
o short_frame__m7
v -3.851500 -0.919733 2.672818
v -3.851500 -0.919733 2.687182
v -3.851500 -0.910500 2.661814
v -3.851500 -0.910500 2.698186
v -3.851500 -0.896353 2.659319
v -3.851500 -0.896353 2.700681
v -3.851500 -0.883913 2.666502
v -3.851500 -0.883913 2.693499
v -3.851500 -0.879000 2.680000
v -3.851500 0.880266 2.672818
v -3.851500 0.880266 2.687182
v -3.851500 0.889500 2.661814
v -3.851500 0.889500 2.698186
v -3.851500 0.903647 2.659319
v -3.851500 0.903647 2.700681
v -3.851500 0.916087 2.666502
v -3.851500 0.916087 2.693499
v -3.851500 0.921000 2.680000
v -3.850160 -0.925605 2.675485
v -3.850160 -0.922517 2.693000
v -3.850160 -0.916712 2.660083
v -3.850160 -0.908893 2.704432
v -3.850160 -0.900000 2.654000
v -3.850160 -0.891107 2.704432
v -3.850160 -0.883287 2.660083
v -3.850160 -0.877483 2.693000
v -3.850160 -0.874395 2.675485
v -3.850160 0.874395 2.684515
v -3.850160 0.877483 2.667000
v -3.850160 0.883287 2.699917
v -3.850160 0.891107 2.655568
v -3.850160 0.900000 2.706000
v -3.850160 0.908893 2.655568
v -3.850160 0.916712 2.699917
v -3.850160 0.922517 2.667000
v -3.850160 0.925605 2.684515
v -3.846500 -0.929210 2.674850
v -3.846500 -0.925687 2.694830
v -3.846500 -0.919065 2.657279
v -3.846500 -0.910145 2.707872
v -3.846500 -0.900000 2.650340
v -3.846500 -0.889856 2.707872
v -3.846500 -0.880935 2.657279
v -3.846500 -0.874313 2.694830
v -3.846500 -0.870790 2.674850
v -3.846500 0.870790 2.685151
v -3.846500 0.874313 2.665170
v -3.846500 0.880935 2.702721
v -3.846500 0.889856 2.652128
v -3.846500 0.900000 2.709660
v -3.846500 0.910145 2.652128
v -3.846500 0.919065 2.702721
v -3.846500 0.925687 2.665170
v -3.846500 0.929210 2.685151
v -3.841500 -0.929130 2.669397
v -3.841500 -0.929130 2.690603
v -3.841500 -0.915500 2.653153
v -3.841500 -0.915500 2.706847
v -3.841500 -0.894617 2.649471
v -3.841500 -0.894617 2.710529
v -3.841500 -0.876253 2.660074
v -3.841500 -0.876253 2.699927
v -3.841500 -0.869000 2.680000
v -3.841500 0.870870 2.669397
v -3.841500 0.870870 2.690603
v -3.841500 0.884500 2.653153
v -3.841500 0.884500 2.706847
v -3.841500 0.905383 2.649471
v -3.841500 0.905383 2.710529
v -3.841500 0.923747 2.660074
v -3.841500 0.923747 2.699927
v -3.841500 0.931000 2.680000
v -3.744000 -0.950274 2.661702
v -3.744000 -0.950274 2.698298
v -3.744000 -0.929130 2.669397
v -3.744000 -0.929130 2.690603
v -3.744000 -0.926750 2.633668
v -3.744000 -0.926750 2.726333
v -3.744000 -0.915500 2.653153
v -3.744000 -0.915500 2.706847
v -3.744000 -0.894617 2.649471
v -3.744000 -0.894617 2.710529
v -3.744000 -0.890710 2.627313
v -3.744000 -0.890710 2.732687
v -3.744000 -0.876253 2.660074
v -3.744000 -0.876253 2.699927
v -3.744000 -0.869000 2.680000
v -3.744000 -0.859017 2.645611
v -3.744000 -0.859017 2.714389
v -3.744000 -0.846500 2.680000
v -3.744000 0.849726 2.661702
v -3.744000 0.849726 2.698298
v -3.744000 0.870870 2.669397
v -3.744000 0.870870 2.690603
v -3.744000 0.873250 2.633668
v -3.744000 0.873250 2.726333
v -3.744000 0.884500 2.653153
v -3.744000 0.884500 2.706847
v -3.744000 0.905383 2.649471
v -3.744000 0.905383 2.710529
v -3.744000 0.909290 2.627313
v -3.744000 0.909290 2.732687
v -3.744000 0.923747 2.660074
v -3.744000 0.923747 2.699927
v -3.744000 0.931000 2.680000
v -3.744000 0.940983 2.645611
v -3.744000 0.940983 2.714389
v -3.744000 0.953500 2.680000
v -3.742660 -0.957611 2.669842
v -3.742660 -0.950663 2.709250
v -3.742660 -0.937603 2.635187
v -3.742660 -0.920008 2.734972
v -3.742660 -0.900000 2.621500
v -3.742660 -0.879992 2.734972
v -3.742660 -0.862397 2.635187
v -3.742660 -0.849337 2.709250
v -3.742660 -0.842389 2.669842
v -3.742660 0.842389 2.690158
v -3.742660 0.849337 2.650750
v -3.742660 0.862397 2.724814
v -3.742660 0.879992 2.625028
v -3.742660 0.900000 2.738500
v -3.742660 0.920008 2.625028
v -3.742660 0.937603 2.724814
v -3.742660 0.950663 2.650750
v -3.742660 0.957611 2.690158
v -3.739000 -0.961216 2.669206
v -3.739000 -0.953832 2.711080
v -3.739000 -0.939956 2.632383
v -3.739000 -0.921260 2.738412
v -3.739000 -0.900000 2.617840
v -3.739000 -0.878740 2.738412
v -3.739000 -0.860044 2.632383
v -3.739000 -0.846168 2.711080
v -3.739000 -0.838784 2.669206
v -3.739000 0.838784 2.690794
v -3.739000 0.846168 2.648920
v -3.739000 0.860044 2.727618
v -3.739000 0.878740 2.621589
v -3.739000 0.900000 2.742160
v -3.739000 0.921260 2.621589
v -3.739000 0.939956 2.727618
v -3.739000 0.953832 2.648920
v -3.739000 0.961216 2.690794
v -3.734000 -0.959670 2.658282
v -3.734000 -0.959670 2.701719
v -3.734000 -0.931750 2.625007
v -3.734000 -0.931750 2.734993
v -3.734000 -0.888973 2.617465
v -3.734000 -0.888973 2.742535
v -3.734000 -0.851356 2.639183
v -3.734000 -0.851356 2.720817
v -3.734000 -0.836500 2.680000
v -3.734000 0.840329 2.658282
v -3.734000 0.840329 2.701719
v -3.734000 0.868250 2.625007
v -3.734000 0.868250 2.734993
v -3.734000 0.911027 2.617465
v -3.734000 0.911027 2.742535
v -3.734000 0.948644 2.639183
v -3.734000 0.948644 2.720817
v -3.734000 0.963500 2.680000
v -3.730000 -0.959670 2.658282
v -3.730000 -0.959670 2.701719
v -3.730000 -0.931750 2.625007
v -3.730000 -0.931750 2.734993
v -3.730000 -0.888973 2.617465
v -3.730000 -0.888973 2.742535
v -3.730000 -0.851356 2.639183
v -3.730000 -0.851356 2.720817
v -3.730000 -0.836500 2.680000
v -3.730000 0.840329 2.658282
v -3.730000 0.840329 2.701719
v -3.730000 0.868250 2.625007
v -3.730000 0.868250 2.734993
v -3.730000 0.911027 2.617465
v -3.730000 0.911027 2.742535
v -3.730000 0.948644 2.639183
v -3.730000 0.948644 2.720817
v -3.730000 0.963500 2.680000
vn 0.2954 0.8978 -0.3268
vn -0.6362 0.7598 0.1340
vn 0.2952 0.8978 0.3268
vn -0.6363 0.4959 0.5909
vn 0.2954 0.4777 0.8274
vn -0.6362 -0.0000 0.7715
vn 0.2953 -0.1659 0.9409
vn -0.6363 -0.4959 0.5909
vn 0.2952 -0.7319 0.6142
vn -0.6362 -0.7598 0.1340
vn 0.2954 -0.9554 -0.0000
vn -0.6362 -0.6682 -0.3858
vn 0.2952 -0.7319 -0.6141
vn -0.6363 -0.2638 -0.7249
vn 0.2952 -0.1659 -0.9409
vn -0.6362 0.2639 -0.7250
vn 0.2952 0.4777 -0.8274
vn -0.6363 0.6681 -0.3857
vn -0.9837 0.1688 0.0614
vn -0.8627 0.4980 0.0878
vn -0.9837 0.1688 -0.0614
vn -0.8626 0.4380 -0.2529
vn -0.9837 0.0898 -0.1556
vn -0.8626 0.1730 -0.4754
vn -0.9837 -0.0312 -0.1769
vn -0.8626 -0.1730 -0.4754
vn -0.9837 -0.1376 -0.1155
vn -0.8626 -0.4382 -0.2530
vn -0.9837 -0.1796 -0.0000
vn -0.8627 -0.4981 0.0879
vn -0.9837 -0.1376 0.1155
vn -0.8625 -0.3252 0.3876
vn -0.9837 -0.0312 0.1769
vn -0.8626 -0.0000 0.5059
vn -0.9837 0.0897 0.1556
vn -0.8626 0.3251 0.3875
vn -0.6848 0.2492 -0.6848
vn -0.6848 0.2493 -0.6848
vn -0.6848 0.6311 -0.3644
vn -0.6849 0.6310 -0.3643
vn -0.6849 0.7176 0.1265
vn -0.6846 0.7178 0.1265
vn -0.6848 0.4684 0.5583
vn -0.6849 0.4684 0.5582
vn -0.6848 -0.0000 0.7287
vn -0.6849 -0.4683 0.5582
vn -0.6847 -0.4685 0.5583
vn -0.6848 -0.7177 0.1266
vn -0.6847 -0.7177 0.1265
vn -0.6849 -0.6309 -0.3644
vn -0.6848 -0.6312 -0.3643
vn -0.6848 -0.2492 -0.6848
vn -0.6848 -0.2493 -0.6848
vn -0.0000 0.9397 -0.3420
vn -0.0000 0.9397 0.3420
vn -0.0000 0.5000 0.8660
vn -0.0000 -0.1736 0.9848
vn -0.0000 -0.7661 0.6427
vn -0.0000 -0.7660 0.6428
vn -0.0000 -1.0000 -0.0000
vn -0.0000 -0.7661 -0.6427
vn -0.0000 -0.7660 -0.6428
vn -0.0000 -0.1736 -0.9848
vn -0.0000 0.5000 -0.8660
vn -1.0000 -0.0000 -0.0000
vn 0.0159 0.9396 -0.3420
vn -0.4693 0.8696 0.1533
vn 0.0159 0.9396 0.3420
vn -0.4694 0.5676 0.6764
vn 0.0158 0.4999 0.8659
vn -0.4693 -0.0000 0.8830
vn 0.0159 -0.1736 0.9847
vn -0.4692 -0.5676 0.6765
vn 0.0159 -0.7659 0.6427
vn -0.4692 -0.8697 0.1533
vn 0.0160 -0.9999 -0.0000
vn -0.4693 -0.7648 -0.4415
vn 0.0157 -0.7659 -0.6427
vn -0.4694 -0.3020 -0.8297
vn 0.0157 -0.1736 -0.9847
vn -0.4694 0.3020 -0.8297
vn 0.0159 0.4999 -0.8659
vn -0.4693 0.7647 -0.4415
vn -0.9749 0.2091 0.0761
vn -0.9417 0.3313 0.0584
vn -0.9749 0.2091 -0.0761
vn -0.9417 0.2914 -0.1682
vn -0.9749 0.1112 -0.1927
vn -0.9417 0.1151 -0.3162
vn -0.9749 -0.0387 -0.2192
vn -0.9417 -0.1151 -0.3161
vn -0.9749 -0.1704 -0.1430
vn -0.9417 -0.2914 -0.1682
vn -0.9749 -0.2224 -0.0000
vn -0.9417 -0.3312 0.0584
vn -0.9749 -0.1704 0.1430
vn -0.9417 -0.2163 0.2577
vn -0.9749 -0.0386 0.2191
vn -0.9417 -0.0000 0.3365
vn -0.9749 0.1113 0.1927
vn -0.9417 0.2162 0.2577
vn -0.6847 0.6312 -0.3644
vn -0.6849 0.6310 -0.3644
vn -0.6848 0.7176 0.1265
vn -0.6848 0.4684 0.5582
vn -0.6849 -0.4684 0.5582
vn -0.6848 -0.4684 0.5583
vn -0.6848 -0.7177 0.1265
vn -0.6849 -0.7176 0.1265
vn -0.6847 -0.6312 -0.3643
vn -0.6849 -0.6310 -0.3644
vn -0.0000 -0.7661 0.6428
vn -0.0000 -0.7661 -0.6428
vn -1.0000 -0.0001 -0.0000
vn -0.8627 0.4980 -0.0878
vn -0.8627 0.3250 -0.3875
vn -0.8626 -0.0000 -0.5059
vn -0.8626 -0.3252 -0.3875
vn -0.8627 -0.4980 -0.0878
vn -0.8626 -0.4382 0.2530
vn -0.8625 -0.1730 0.4755
vn -0.8626 0.1731 0.4753
vn -0.9837 0.0898 0.1556
vn -0.8627 0.4380 0.2529
vn 0.2952 0.8978 -0.3268
vn -0.6363 0.7597 -0.1340
vn 0.2953 0.8978 0.3268
vn -0.6362 0.6681 0.3857
vn 0.2953 0.4777 0.8274
vn -0.6363 0.2639 0.7249
vn 0.2952 -0.1659 0.9409
vn -0.6362 -0.2639 0.7250
vn 0.2952 -0.7319 0.6141
vn -0.6363 -0.6681 0.3857
vn 0.2952 -0.9554 -0.0000
vn -0.6363 -0.7597 -0.1340
vn 0.2952 -0.7319 -0.6142
vn -0.6364 -0.4958 -0.5909
vn 0.2951 -0.1659 -0.9409
vn -0.6363 -0.0000 -0.7714
vn 0.2953 0.4777 -0.8274
vn -0.6363 0.4959 -0.5910
vn -0.6848 0.2492 0.6848
vn -0.6849 0.6311 0.3643
vn -0.6849 0.6309 0.3644
vn -0.6847 0.7177 -0.1265
vn -0.6848 0.7177 -0.1266
vn -0.6847 0.4685 -0.5583
vn -0.6848 0.4684 -0.5583
vn -0.6848 -0.0000 -0.7288
vn -0.6848 -0.0000 -0.7287
vn -0.6848 -0.4684 -0.5583
vn -0.6847 -0.4684 -0.5583
vn -0.6847 -0.7178 -0.1265
vn -0.6848 -0.7177 -0.1265
vn -0.6849 -0.6310 0.3643
vn -0.6849 -0.6310 0.3644
vn -0.6848 -0.2492 0.6848
vn -0.9749 0.2090 0.0761
vn -0.9417 0.3315 -0.0584
vn -0.9749 0.2090 -0.0761
vn -0.9417 0.2163 -0.2577
vn -0.9417 -0.0000 -0.3364
vn -0.9749 -0.0387 -0.2191
vn -0.9417 -0.2163 -0.2577
vn -0.9416 -0.3315 -0.0584
vn -0.9749 -0.2225 -0.0000
vn -0.9417 -0.2915 0.1682
vn -0.9750 -0.1703 0.1430
vn -0.9417 -0.1151 0.3161
vn -0.9749 -0.0387 0.2191
vn -0.9417 0.1151 0.3162
vn -0.9749 0.1112 0.1927
vn -0.9417 0.2915 0.1683
vn 0.0160 0.9396 -0.3420
vn -0.4693 0.8696 -0.1533
vn 0.0160 0.9396 0.3420
vn -0.4693 0.7647 0.4415
vn 0.0157 0.4999 0.8660
vn -0.4694 0.3020 0.8298
vn 0.0157 -0.1736 0.9847
vn -0.4693 -0.3020 0.8298
vn 0.0157 -0.7660 0.6427
vn -0.4692 -0.7648 0.4415
vn -0.4692 -0.8697 -0.1533
vn 0.0158 -0.7659 -0.6427
vn -0.4693 -0.5676 -0.6764
vn 0.0159 -0.1736 -0.9847
vn -0.4693 -0.0000 -0.8830
vn 0.0160 0.4999 -0.8659
vn -0.4692 0.5676 -0.6765
vn -0.6849 0.6310 0.3644
vn -0.6848 0.6311 0.3643
vn -0.6849 0.7175 -0.1265
vn -0.6848 0.7177 -0.1265
vn -0.6848 0.4684 -0.5582
vn -0.6849 -0.0000 -0.7287
vn -0.6848 -0.4684 -0.5582
vn -0.6849 -0.7176 -0.1265
vn -0.6848 -0.7176 -0.1265
vn -0.6848 -0.6311 0.3644
vn -0.6848 -0.2493 0.6848
s 0
f 151//1 135//1 153//1
f 153//2 135//2 134//2
f 153//3 134//3 152//3
f 152//4 134//4 132//4
f 152//5 132//5 150//5
f 150//6 132//6 130//6
f 150//7 130//7 148//7
f 148//8 130//8 128//8
f 148//9 128//9 146//9
f 146//10 128//10 127//10
f 146//11 127//11 145//11
f 145//12 127//12 129//12
f 145//13 129//13 147//13
f 147//14 129//14 131//14
f 147//15 131//15 149//15
f 149//16 131//16 133//16
f 149//17 133//17 151//17
f 151//18 133//18 135//18
f 89//19 116//19 90//19
f 90//20 116//20 117//20
f 90//21 117//21 88//21
f 88//22 117//22 115//22
f 88//23 115//23 83//23
f 83//24 115//24 113//24
f 83//25 113//25 77//25
f 77//26 113//26 111//26
f 77//27 111//27 73//27
f 73//28 111//28 109//28
f 73//29 109//29 74//29
f 74//30 109//30 110//30
f 74//31 110//31 78//31
f 78//32 110//32 112//32
f 78//33 112//33 84//33
f 84//34 112//34 114//34
f 84//35 114//35 89//35
f 89//36 114//36 116//36
f 131//37 113//37 133//37
f 133//38 113//38 115//38
f 133//39 115//39 135//39
f 135//40 115//40 117//40
f 135//41 117//41 134//41
f 134//42 117//42 116//42
f 134//43 116//43 132//43
f 132//44 116//44 114//44
f 132//45 114//45 130//45
f 130//45 114//45 112//45
f 130//46 112//46 128//46
f 128//47 112//47 110//47
f 128//48 110//48 127//48
f 127//49 110//49 109//49
f 127//50 109//50 129//50
f 129//51 109//51 111//51
f 129//52 111//52 131//52
f 131//53 111//53 113//53
f 169//54 153//54 171//54
f 171//55 153//55 152//55
f 171//55 152//55 170//55
f 170//56 152//56 150//56
f 170//56 150//56 168//56
f 168//57 150//57 148//57
f 168//57 148//57 166//57
f 166//58 148//58 146//58
f 166//59 146//59 164//59
f 164//60 146//60 145//60
f 164//60 145//60 163//60
f 163//61 145//61 147//61
f 163//62 147//62 165//62
f 165//63 147//63 149//63
f 165//63 149//63 167//63
f 167//64 149//64 151//64
f 167//64 151//64 169//64
f 169//54 151//54 153//54
f 86//65 89//65 87//65
f 87//65 89//65 90//65
f 87//65 90//65 88//65
f 89//65 86//65 84//65
f 84//65 86//65 82//65
f 84//65 82//65 80//65
f 84//65 80//65 78//65
f 78//65 80//65 76//65
f 78//65 76//65 74//65
f 74//65 76//65 75//65
f 74//65 75//65 73//65
f 73//65 75//65 77//65
f 77//65 75//65 79//65
f 77//65 79//65 83//65
f 83//65 79//65 81//65
f 83//65 81//65 85//65
f 83//65 85//65 88//65
f 88//65 85//65 87//65
f 61//66 45//66 63//66
f 63//67 45//67 44//67
f 63//68 44//68 62//68
f 62//69 44//69 42//69
f 62//70 42//70 60//70
f 60//71 42//71 40//71
f 60//72 40//72 58//72
f 58//73 40//73 38//73
f 58//74 38//74 56//74
f 56//75 38//75 37//75
f 56//76 37//76 55//76
f 55//77 37//77 39//77
f 55//78 39//78 57//78
f 57//79 39//79 41//79
f 57//80 41//80 59//80
f 59//81 41//81 43//81
f 59//82 43//82 61//82
f 61//83 43//83 45//83
f 8//84 26//84 9//84
f 9//85 26//85 27//85
f 9//86 27//86 7//86
f 7//87 27//87 25//87
f 7//88 25//88 5//88
f 5//89 25//89 23//89
f 5//90 23//90 3//90
f 3//91 23//91 21//91
f 3//92 21//92 1//92
f 1//93 21//93 19//93
f 1//94 19//94 2//94
f 2//95 19//95 20//95
f 2//96 20//96 4//96
f 4//97 20//97 22//97
f 4//98 22//98 6//98
f 6//99 22//99 24//99
f 6//100 24//100 8//100
f 8//101 24//101 26//101
f 41//38 23//38 43//38
f 43//37 23//37 25//37
f 43//102 25//102 45//102
f 45//103 25//103 27//103
f 45//104 27//104 44//104
f 44//104 27//104 26//104
f 44//105 26//105 42//105
f 42//43 26//43 24//43
f 42//45 24//45 40//45
f 40//45 24//45 22//45
f 40//106 22//106 38//106
f 38//107 22//107 20//107
f 38//108 20//108 37//108
f 37//109 20//109 19//109
f 37//110 19//110 39//110
f 39//111 19//111 21//111
f 39//52 21//52 41//52
f 41//53 21//53 23//53
f 85//54 63//54 87//54
f 87//55 63//55 62//55
f 87//55 62//55 86//55
f 86//56 62//56 60//56
f 86//56 60//56 82//56
f 82//57 60//57 58//57
f 82//57 58//57 80//57
f 80//112 58//112 56//112
f 80//59 56//59 76//59
f 76//60 56//60 55//60
f 76//60 55//60 75//60
f 75//113 55//113 57//113
f 75//113 57//113 79//113
f 79//63 57//63 59//63
f 79//63 59//63 81//63
f 81//64 59//64 61//64
f 81//64 61//64 85//64
f 85//54 61//54 63//54
f 9//65 7//65 8//65
f 8//65 7//65 6//65
f 6//65 7//65 5//65
f 6//65 5//65 4//65
f 4//65 5//65 3//65
f 4//65 3//65 2//65
f 2//114 3//114 1//114
f 107//19 126//19 108//19
f 108//115 126//115 125//115
f 108//21 125//21 106//21
f 106//116 125//116 123//116
f 106//23 123//23 101//23
f 101//117 123//117 121//117
f 101//25 121//25 95//25
f 95//118 121//118 119//118
f 95//27 119//27 91//27
f 91//119 119//119 118//119
f 91//29 118//29 92//29
f 92//120 118//120 120//120
f 92//31 120//31 96//31
f 96//121 120//121 122//121
f 96//33 122//33 102//33
f 102//122 122//122 124//122
f 102//123 124//123 107//123
f 107//124 124//124 126//124
f 160//125 143//125 162//125
f 162//126 143//126 144//126
f 162//127 144//127 161//127
f 161//128 144//128 142//128
f 161//129 142//129 159//129
f 159//130 142//130 140//130
f 159//131 140//131 157//131
f 157//132 140//132 138//132
f 157//133 138//133 155//133
f 155//134 138//134 136//134
f 155//135 136//135 154//135
f 154//136 136//136 137//136
f 154//137 137//137 156//137
f 156//138 137//138 139//138
f 156//139 139//139 158//139
f 158//140 139//140 141//140
f 158//141 141//141 160//141
f 160//142 141//142 143//142
f 122//143 140//143 124//143
f 124//143 140//143 142//143
f 124//144 142//144 126//144
f 126//145 142//145 144//145
f 126//146 144//146 125//146
f 125//147 144//147 143//147
f 125//148 143//148 123//148
f 123//149 143//149 141//149
f 123//150 141//150 121//150
f 121//151 141//151 139//151
f 121//152 139//152 119//152
f 119//153 139//153 137//153
f 119//154 137//154 118//154
f 118//155 137//155 136//155
f 118//156 136//156 120//156
f 120//157 136//157 138//157
f 120//158 138//158 122//158
f 122//158 138//158 140//158
f 104//65 107//65 105//65
f 105//65 107//65 108//65
f 105//65 108//65 106//65
f 107//65 104//65 102//65
f 102//65 104//65 100//65
f 102//65 100//65 98//65
f 102//65 98//65 96//65
f 96//65 98//65 94//65
f 96//65 94//65 92//65
f 92//65 94//65 93//65
f 92//65 93//65 91//65
f 91//65 93//65 95//65
f 95//65 93//65 97//65
f 95//65 97//65 101//65
f 101//65 97//65 99//65
f 101//65 99//65 103//65
f 101//65 103//65 106//65
f 106//65 103//65 105//65
f 178//54 162//54 180//54
f 180//55 162//55 161//55
f 180//55 161//55 179//55
f 179//56 161//56 159//56
f 179//56 159//56 177//56
f 177//57 159//57 157//57
f 177//57 157//57 175//57
f 175//58 157//58 155//58
f 175//59 155//59 173//59
f 173//60 155//60 154//60
f 173//60 154//60 172//60
f 172//61 154//61 156//61
f 172//62 156//62 174//62
f 174//63 156//63 158//63
f 174//63 158//63 176//63
f 176//64 158//64 160//64
f 176//64 160//64 178//64
f 178//54 160//54 162//54
f 17//159 36//159 18//159
f 18//160 36//160 35//160
f 18//161 35//161 16//161
f 16//162 35//162 33//162
f 16//88 33//88 14//88
f 14//163 33//163 31//163
f 14//164 31//164 12//164
f 12//165 31//165 29//165
f 12//92 29//92 10//92
f 10//166 29//166 28//166
f 10//167 28//167 11//167
f 11//168 28//168 30//168
f 11//169 30//169 13//169
f 13//170 30//170 32//170
f 13//171 32//171 15//171
f 15//172 32//172 34//172
f 15//173 34//173 17//173
f 17//174 34//174 36//174
f 70//175 53//175 72//175
f 72//176 53//176 54//176
f 72//177 54//177 71//177
f 71//178 54//178 52//178
f 71//179 52//179 69//179
f 69//180 52//180 50//180
f 69//181 50//181 67//181
f 67//182 50//182 48//182
f 67//183 48//183 65//183
f 65//184 48//184 46//184
f 65//76 46//76 64//76
f 64//185 46//185 47//185
f 64//186 47//186 66//186
f 66//187 47//187 49//187
f 66//188 49//188 68//188
f 68//189 49//189 51//189
f 68//190 51//190 70//190
f 70//191 51//191 53//191
f 32//143 50//143 34//143
f 34//143 50//143 52//143
f 34//192 52//192 36//192
f 36//193 52//193 54//193
f 36//194 54//194 35//194
f 35//195 54//195 53//195
f 35//196 53//196 33//196
f 33//196 53//196 51//196
f 33//197 51//197 31//197
f 31//151 51//151 49//151
f 31//198 49//198 29//198
f 29//198 49//198 47//198
f 29//199 47//199 28//199
f 28//200 47//200 46//200
f 28//156 46//156 30//156
f 30//201 46//201 48//201
f 30//158 48//158 32//158
f 32//202 48//202 50//202
f 103//54 72//54 105//54
f 105//55 72//55 71//55
f 105//55 71//55 104//55
f 104//56 71//56 69//56
f 104//56 69//56 100//56
f 100//57 69//57 67//57
f 100//57 67//57 98//57
f 98//59 67//59 65//59
f 98//59 65//59 94//59
f 94//60 65//60 64//60
f 94//60 64//60 93//60
f 93//113 64//113 66//113
f 93//113 66//113 97//113
f 97//63 66//63 68//63
f 97//63 68//63 99//63
f 99//64 68//64 70//64
f 99//64 70//64 103//64
f 103//54 70//54 72//54
f 18//65 16//65 17//65
f 17//65 16//65 15//65
f 15//65 16//65 14//65
f 15//65 14//65 13//65
f 13//65 14//65 12//65
f 13//65 12//65 11//65
f 11//114 12//114 10//114
