# Blender 4.0.2
# www.blender.org
o short_frame__m5
v -3.791000 -2.247938 2.515000
v -3.791000 -2.229234 2.457433
v -3.791000 -2.229234 2.572567
v -3.791000 -2.180265 2.421855
v -3.791000 -2.180265 2.608145
v -3.791000 -2.119735 2.421855
v -3.791000 -2.119735 2.608145
v -3.791000 -2.070766 2.457433
v -3.791000 -2.070766 2.572567
v -3.791000 -2.052062 2.515000
v -3.759000 -2.249000 2.515000
v -3.759000 -2.247938 2.515000
v -3.759000 -2.230093 2.456809
v -3.759000 -2.230093 2.573191
v -3.759000 -2.229234 2.457433
v -3.759000 -2.229234 2.572567
v -3.759000 -2.180593 2.420845
v -3.759000 -2.180593 2.609154
v -3.759000 -2.180265 2.421855
v -3.759000 -2.180265 2.608145
v -3.759000 -2.119735 2.421855
v -3.759000 -2.119735 2.608145
v -3.759000 -2.119407 2.420845
v -3.759000 -2.119407 2.609154
v -3.759000 -2.070766 2.457433
v -3.759000 -2.070766 2.572567
v -3.759000 -2.069907 2.456809
v -3.759000 -2.069907 2.573191
v -3.759000 -2.052062 2.515000
v -3.759000 -2.051000 2.515000
v -3.719000 -2.290000 2.515000
v -3.719000 -2.271243 2.445000
v -3.719000 -2.271243 2.585000
v -3.719000 -2.220000 2.393756
v -3.719000 -2.220000 2.636244
v -3.719000 -2.150000 2.375000
v -3.719000 -2.150000 2.655000
v -3.719000 -2.080000 2.393756
v -3.719000 -2.080000 2.636244
v -3.719000 -2.028757 2.445000
v -3.719000 -2.028757 2.585000
v -3.719000 -2.010000 2.515000
v -3.704000 -2.290000 2.515000
v -3.704000 -2.271243 2.445000
v -3.704000 -2.271243 2.585000
v -3.704000 -2.220000 2.393756
v -3.704000 -2.220000 2.636244
v -3.704000 -2.150000 2.375000
v -3.704000 -2.150000 2.655000
v -3.704000 -2.080000 2.393756
v -3.704000 -2.080000 2.636244
v -3.704000 -2.028757 2.445000
v -3.704000 -2.028757 2.585000
v -3.704000 -2.010000 2.515000
v 3.705000 2.010000 2.515000
v 3.705000 2.028757 2.445000
v 3.705000 2.028757 2.585000
v 3.705000 2.080000 2.393756
v 3.705000 2.080000 2.636244
v 3.705000 2.150000 2.375000
v 3.705000 2.150000 2.655000
v 3.705000 2.220000 2.393756
v 3.705000 2.220000 2.636244
v 3.705000 2.271243 2.445000
v 3.705000 2.271243 2.585000
v 3.705000 2.290000 2.515000
v 3.719000 2.010000 2.515000
v 3.719000 2.028757 2.445000
v 3.719000 2.028757 2.585000
v 3.719000 2.080000 2.393756
v 3.719000 2.080000 2.636244
v 3.719000 2.150000 2.375000
v 3.719000 2.150000 2.655000
v 3.719000 2.220000 2.393756
v 3.719000 2.220000 2.636244
v 3.719000 2.271243 2.445000
v 3.719000 2.271243 2.585000
v 3.719000 2.290000 2.515000
v 3.759000 2.051000 2.515000
v 3.759000 2.069907 2.456809
v 3.759000 2.069907 2.573191
v 3.759000 2.119407 2.420845
v 3.759000 2.119407 2.609154
v 3.759000 2.180593 2.420845
v 3.759000 2.180593 2.609154
v 3.759000 2.230093 2.456809
v 3.759000 2.230093 2.573191
v 3.759000 2.249000 2.515000
v 3.784000 2.051000 2.515000
v 3.784000 2.069907 2.456809
v 3.784000 2.069907 2.573191
v 3.784000 2.119407 2.420845
v 3.784000 2.119407 2.609154
v 3.784000 2.180593 2.420845
v 3.784000 2.180593 2.609154
v 3.784000 2.230093 2.456809
v 3.784000 2.230093 2.573191
v 3.784000 2.249000 2.515000
vn -0.0000 0.9659 0.2588
vn -0.0000 0.9659 -0.2588
vn -0.0000 0.7071 -0.7071
vn -0.0000 0.2588 -0.9659
vn -0.0000 -0.2588 -0.9659
vn -0.0000 -0.7071 -0.7071
vn -0.0000 -0.9659 -0.2588
vn -0.0000 -0.9659 0.2588
vn -0.0000 -0.7071 0.7071
vn -0.0000 -0.2588 0.9659
vn -0.0000 0.2588 0.9659
vn -0.0000 0.7071 0.7071
vn 0.7036 0.6864 -0.1839
vn 0.7036 0.6864 0.1839
vn 0.7305 0.6495 0.2110
vn 0.6834 0.5162 0.5162
vn 0.7480 0.3901 0.5370
vn 0.6727 0.1915 0.7147
vn 0.7535 -0.0000 0.6574
vn 0.6727 -0.1915 0.7147
vn 0.7480 -0.3901 0.5370
vn 0.6834 -0.5162 0.5162
vn 0.7305 -0.6495 0.2110
vn 0.7036 -0.6864 0.1839
vn 0.7036 -0.6864 -0.1839
vn 0.7305 -0.6495 -0.2110
vn 0.6834 -0.5162 -0.5162
vn 0.7480 -0.3901 -0.5370
vn 0.6727 -0.1915 -0.7147
vn 0.7535 -0.0000 -0.6574
vn 0.6727 0.1915 -0.7147
vn 0.7480 0.3901 -0.5370
vn 0.6834 0.5162 -0.5162
vn 0.7305 0.6495 -0.2110
vn -0.0000 0.9511 0.3090
vn -0.0000 0.9511 -0.3090
vn -0.0000 0.5878 -0.8090
vn -0.0000 -0.0000 -1.0000
vn -0.0000 -0.5878 -0.8090
vn -0.0000 -0.9511 -0.3090
vn -0.0000 -0.9511 0.3090
vn -0.0000 -0.5878 0.8090
vn -0.0000 -0.0000 1.0000
vn -0.0000 0.5878 0.8090
vn -0.7305 0.6495 0.2110
vn -0.7036 0.6864 0.1839
vn -0.7036 0.6864 -0.1839
vn -0.6834 0.5162 0.5162
vn -0.7480 0.3901 0.5370
vn -0.6727 0.1915 0.7147
vn -0.7535 -0.0000 0.6574
vn -0.6727 -0.1915 0.7147
vn -0.7480 -0.3901 0.5370
vn -0.6834 -0.5162 0.5162
vn -0.7305 -0.6495 0.2110
vn -0.7036 -0.6864 0.1839
vn -0.7036 -0.6864 -0.1839
vn -0.7305 -0.6495 -0.2110
vn -0.6834 -0.5162 -0.5162
vn -0.7480 -0.3901 -0.5370
vn -0.6727 -0.1915 -0.7147
vn -0.7535 -0.0000 -0.6574
vn -0.6727 0.1915 -0.7147
vn -0.7480 0.3901 -0.5370
vn -0.6834 0.5162 -0.5162
vn -0.7305 0.6495 -0.2110
s 0
f 65//1 77//1 66//1
f 66//1 77//1 78//1
f 66//2 78//2 64//2
f 64//2 78//2 76//2
f 64//3 76//3 62//3
f 62//3 76//3 74//3
f 62//4 74//4 60//4
f 60//4 74//4 72//4
f 60//5 72//5 58//5
f 58//5 72//5 70//5
f 58//6 70//6 56//6
f 56//6 70//6 68//6
f 56//7 68//7 55//7
f 55//7 68//7 67//7
f 55//8 67//8 57//8
f 57//8 67//8 69//8
f 57//9 69//9 59//9
f 59//9 69//9 71//9
f 59//10 71//10 61//10
f 61//10 71//10 73//10
f 61//11 73//11 63//11
f 63//11 73//11 75//11
f 63//12 75//12 65//12
f 65//12 75//12 77//12
f 76//13 78//13 88//13
f 88//14 78//14 77//14
f 88//15 77//15 87//15
f 87//16 77//16 75//16
f 87//17 75//17 85//17
f 85//18 75//18 73//18
f 85//19 73//19 83//19
f 83//20 73//20 71//20
f 83//21 71//21 81//21
f 81//22 71//22 69//22
f 81//23 69//23 79//23
f 79//24 69//24 67//24
f 79//25 67//25 68//25
f 79//26 68//26 80//26
f 80//27 68//27 70//27
f 80//28 70//28 82//28
f 82//29 70//29 72//29
f 82//30 72//30 84//30
f 84//31 72//31 74//31
f 84//32 74//32 86//32
f 86//33 74//33 76//33
f 86//34 76//34 88//34
f 87//35 97//35 88//35
f 88//35 97//35 98//35
f 88//36 98//36 86//36
f 86//36 98//36 96//36
f 86//37 96//37 84//37
f 84//37 96//37 94//37
f 84//38 94//38 82//38
f 82//38 94//38 92//38
f 82//39 92//39 80//39
f 80//39 92//39 90//39
f 80//40 90//40 79//40
f 79//40 90//40 89//40
f 79//41 89//41 81//41
f 81//41 89//41 91//41
f 81//42 91//42 83//42
f 83//42 91//42 93//42
f 83//43 93//43 85//43
f 85//43 93//43 95//43
f 85//44 95//44 87//44
f 87//44 95//44 97//44
f 9//35 26//35 10//35
f 10//35 26//35 29//35
f 10//36 29//36 8//36
f 8//36 29//36 25//36
f 8//37 25//37 6//37
f 6//37 25//37 21//37
f 6//38 21//38 4//38
f 4//38 21//38 19//38
f 4//39 19//39 2//39
f 2//39 19//39 15//39
f 2//40 15//40 1//40
f 1//40 15//40 12//40
f 1//41 12//41 3//41
f 3//41 12//41 16//41
f 3//42 16//42 5//42
f 5//42 16//42 20//42
f 5//43 20//43 7//43
f 7//43 20//43 22//43
f 7//44 22//44 9//44
f 9//44 22//44 26//44
f 28//45 41//45 30//45
f 30//46 41//46 42//46
f 30//47 42//47 40//47
f 41//48 28//48 39//48
f 39//49 28//49 24//49
f 39//50 24//50 37//50
f 37//51 24//51 18//51
f 37//52 18//52 35//52
f 35//53 18//53 14//53
f 35//54 14//54 33//54
f 33//55 14//55 11//55
f 33//56 11//56 31//56
f 31//57 11//57 32//57
f 32//58 11//58 13//58
f 32//59 13//59 34//59
f 34//60 13//60 17//60
f 34//61 17//61 36//61
f 36//62 17//62 23//62
f 36//63 23//63 38//63
f 38//64 23//64 27//64
f 38//65 27//65 40//65
f 40//66 27//66 30//66
f 41//1 53//1 42//1
f 42//1 53//1 54//1
f 42//2 54//2 40//2
f 40//2 54//2 52//2
f 40//3 52//3 38//3
f 38//3 52//3 50//3
f 38//4 50//4 36//4
f 36//4 50//4 48//4
f 36//5 48//5 34//5
f 34//5 48//5 46//5
f 34//6 46//6 32//6
f 32//6 46//6 44//6
f 32//7 44//7 31//7
f 31//7 44//7 43//7
f 31//8 43//8 33//8
f 33//8 43//8 45//8
f 33//9 45//9 35//9
f 35//9 45//9 47//9
f 35//10 47//10 37//10
f 37//10 47//10 49//10
f 37//11 49//11 39//11
f 39//11 49//11 51//11
f 39//12 51//12 41//12
f 41//12 51//12 53//12
