# Blender 4.0.2
# www.blender.org
o short_frame__m10
v 2.100000 -3.400000 0.320000
v 2.100000 -3.400000 1.550000
v 2.100000 -3.384776 1.626537
v 2.100000 -3.380000 0.320000
v 2.100000 -3.380000 1.550000
v 2.100000 -3.366298 1.618883
v 2.100000 -3.341422 1.691421
v 2.100000 -3.327279 1.677279
v 2.100000 -3.276537 1.734776
v 2.100000 -3.268883 1.716298
v 2.100000 -3.200000 1.730000
v 2.100000 -3.200000 1.750000
v 2.100000 -2.880000 1.730000
v 2.100000 -2.880000 1.750000
v 2.100000 -2.840000 1.760718
v 2.100000 -2.830000 1.743397
v 2.100000 -2.810718 1.790000
v 2.100000 -2.800000 1.830000
v 2.100000 -2.800000 2.090000
v 2.100000 -2.793398 1.780000
v 2.100000 -2.780000 1.830000
v 2.100000 -2.780000 2.090000
vn -1.0000 -0.0000 -0.0000
s 0
f 4//1 1//1 5//1
f 5//1 1//1 2//1
f 5//1 2//1 3//1
f 5//1 3//1 6//1
f 6//1 3//1 7//1
f 6//1 7//1 8//1
f 8//1 7//1 9//1
f 8//1 9//1 10//1
f 10//1 9//1 12//1
f 10//1 12//1 11//1
f 11//1 12//1 13//1
f 13//1 12//1 14//1
f 13//1 14//1 15//1
f 13//1 15//1 16//1
f 16//1 15//1 17//1
f 16//1 17//1 20//1
f 20//1 17//1 18//1
f 20//1 18//1 21//1
f 21//1 18//1 19//1
f 21//1 19//1 22//1
