# Blender 4.0.2
# www.blender.org
o short_frame__m9
v -3.897519 -1.238678 2.692469
v -3.897519 -1.236792 2.658816
v -3.897519 -1.226478 2.723890
v -3.897519 -1.208261 2.616623
v -3.897519 -1.202377 2.747453
v -3.897519 -1.170689 2.758940
v -3.897519 -1.160000 2.600340
v -3.897519 -1.137087 2.756294
v -3.897519 -1.111739 2.616623
v -3.897519 -1.107587 2.739988
v -3.897519 -1.087471 2.712943
v -3.897519 -1.083208 2.658816
v -3.897519 -1.081060 2.669311
v -3.897519 -1.080340 2.680000
v -3.869714 -1.267465 2.680000
v -3.869714 -1.246941 2.616834
v -3.869714 -1.246941 2.743166
v -3.869714 -1.193208 2.577795
v -3.869714 -1.193208 2.782205
v -3.869714 -1.126791 2.577795
v -3.869714 -1.126791 2.782205
v -3.869714 -1.073059 2.616834
v -3.869714 -1.073059 2.743166
v -3.869714 -1.052535 2.680000
v -3.797520 1.052534 2.680000
v -3.797520 1.073058 2.616833
v -3.797520 1.073058 2.743167
v -3.797520 1.126791 2.577794
v -3.797520 1.126791 2.782206
v -3.797520 1.193209 2.577794
v -3.797520 1.193209 2.782206
v -3.797520 1.246942 2.616833
v -3.797520 1.246942 2.743167
v -3.797520 1.267466 2.680000
v -3.795520 -1.267465 2.680000
v -3.795520 -1.246941 2.616834
v -3.795520 -1.246941 2.743166
v -3.795520 -1.193208 2.577795
v -3.795520 -1.193208 2.782205
v -3.795520 -1.126791 2.577795
v -3.795520 -1.126791 2.782205
v -3.795520 -1.073059 2.616834
v -3.795520 -1.073059 2.743166
v -3.795520 -1.052535 2.680000
v -3.765440 -1.309000 2.680000
v -3.765440 -1.289038 2.605500
v -3.765440 -1.289038 2.754500
v -3.765440 -1.234500 2.550962
v -3.765440 -1.234500 2.809038
v -3.765440 -1.160000 2.531000
v -3.765440 -1.160000 2.829000
v -3.765440 -1.085500 2.550962
v -3.765440 -1.085500 2.809038
v -3.765440 -1.030962 2.605500
v -3.765440 -1.030962 2.754500
v -3.765440 -1.011000 2.680000
v -3.765440 1.011000 2.680000
v -3.765440 1.030962 2.605500
v -3.765440 1.030962 2.754500
v -3.765440 1.085500 2.550962
v -3.765440 1.085500 2.809038
v -3.765440 1.160000 2.531000
v -3.765440 1.160000 2.829000
v -3.765440 1.234500 2.550962
v -3.765440 1.234500 2.809038
v -3.765440 1.289038 2.605500
v -3.765440 1.289038 2.754500
v -3.765440 1.309000 2.680000
v -3.709000 -1.309000 2.680000
v -3.709000 -1.306000 2.680000
v -3.709000 -1.289038 2.605500
v -3.709000 -1.289038 2.754500
v -3.709000 -1.286440 2.607000
v -3.709000 -1.286440 2.753000
v -3.709000 -1.234500 2.550962
v -3.709000 -1.234500 2.809038
v -3.709000 -1.233000 2.553560
v -3.709000 -1.233000 2.806440
v -3.709000 -1.160000 2.531000
v -3.709000 -1.160000 2.534000
v -3.709000 -1.160000 2.826000
v -3.709000 -1.160000 2.829000
v -3.709000 -1.087000 2.553560
v -3.709000 -1.087000 2.806440
v -3.709000 -1.085500 2.550962
v -3.709000 -1.085500 2.809038
v -3.709000 -1.033560 2.607000
v -3.709000 -1.033560 2.753000
v -3.709000 -1.030962 2.605500
v -3.709000 -1.030962 2.754500
v -3.709000 -1.014000 2.680000
v -3.709000 -1.011000 2.680000
v -3.709000 1.011000 2.680000
v -3.709000 1.014000 2.680000
v -3.709000 1.030962 2.605500
v -3.709000 1.030962 2.754500
v -3.709000 1.033560 2.607000
v -3.709000 1.033560 2.753000
v -3.709000 1.085500 2.550962
v -3.709000 1.085500 2.809038
v -3.709000 1.087000 2.553560
v -3.709000 1.087000 2.806440
v -3.709000 1.160000 2.531000
v -3.709000 1.160000 2.534000
v -3.709000 1.160000 2.826000
v -3.709000 1.160000 2.829000
v -3.709000 1.233000 2.553560
v -3.709000 1.233000 2.806440
v -3.709000 1.234500 2.550962
v -3.709000 1.234500 2.809038
v -3.709000 1.286440 2.607000
v -3.709000 1.286440 2.753000
v -3.709000 1.289038 2.605500
v -3.709000 1.289038 2.754500
v -3.709000 1.306000 2.680000
v -3.709000 1.309000 2.680000
v -3.700000 -1.306000 2.680000
v -3.700000 -1.286440 2.607000
v -3.700000 -1.286440 2.753000
v -3.700000 -1.233000 2.553560
v -3.700000 -1.233000 2.806440
v -3.700000 -1.160000 2.534000
v -3.700000 -1.160000 2.826000
v -3.700000 -1.087000 2.553560
v -3.700000 -1.087000 2.806440
v -3.700000 -1.033560 2.607000
v -3.700000 -1.033560 2.753000
v -3.700000 -1.014000 2.680000
v -3.700000 1.014000 2.680000
v -3.700000 1.033560 2.607000
v -3.700000 1.033560 2.753000
v -3.700000 1.087000 2.553560
v -3.700000 1.087000 2.806440
v -3.700000 1.160000 2.534000
v -3.700000 1.160000 2.826000
v -3.700000 1.233000 2.553560
v -3.700000 1.233000 2.806440
v -3.700000 1.286440 2.607000
v -3.700000 1.286440 2.753000
v -3.700000 1.306000 2.680000
vn -0.0000 0.9511 0.3090
vn -0.0000 0.9511 -0.3090
vn -0.0000 0.5878 -0.8090
vn -0.0000 -0.0000 -1.0000
vn -0.0000 -0.5878 -0.8090
vn -0.0000 -0.9511 -0.3090
vn -0.0000 -0.9511 0.3090
vn -0.0000 -0.5878 0.8090
vn -0.0000 -0.0000 1.0000
vn -0.0000 0.5878 0.8090
vn -0.7063 0.7063 -0.0476
vn -0.6990 0.6990 0.1513
vn -0.6381 0.7322 0.2379
vn -0.7289 0.5494 0.4086
vn -0.6352 0.4540 0.6249
vn -0.7052 0.3430 0.6205
vn -0.6918 0.0567 0.7199
vn -0.6417 -0.0000 0.7669
vn -0.7282 -0.2336 0.6443
vn -0.6328 -0.4551 0.6264
vn -0.7107 -0.4918 0.5030
vn -0.6837 -0.6803 0.2641
vn -0.6459 -0.7260 0.2359
vn -0.7270 -0.6856 -0.0384
vn -0.6312 -0.7377 -0.2397
vn -0.7541 -0.5441 -0.3679
vn -0.6301 -0.4564 -0.6282
vn -0.7546 -0.2098 -0.6217
vn -0.6298 -0.0000 -0.7768
vn -0.7546 0.2098 -0.6217
vn -0.6301 0.4564 -0.6282
vn -0.7541 0.5441 -0.3679
vn -0.6312 0.7377 -0.2397
vn -0.6802 0.7181 -0.1470
vn -0.0000 0.9659 0.2588
vn -0.0000 0.9659 -0.2588
vn -0.0000 0.7071 -0.7071
vn -0.0000 0.2588 -0.9659
vn -0.0000 -0.2588 -0.9659
vn -0.0000 -0.7071 -0.7071
vn -0.0000 -0.9659 -0.2588
vn -0.0000 -0.9659 0.2588
vn -0.0000 -0.7071 0.7071
vn -0.0000 -0.2588 0.9659
vn -0.0000 0.2588 0.9659
vn -0.0000 0.7071 0.7071
vn -1.0000 -0.0000 -0.0000
s 0
f 23//1 43//1 24//1
f 24//1 43//1 44//1
f 24//2 44//2 22//2
f 22//2 44//2 42//2
f 22//3 42//3 20//3
f 20//3 42//3 40//3
f 20//4 40//4 18//4
f 18//4 40//4 38//4
f 18//5 38//5 16//5
f 16//5 38//5 36//5
f 16//6 36//6 15//6
f 15//6 36//6 35//6
f 15//7 35//7 17//7
f 17//7 35//7 37//7
f 17//8 37//8 19//8
f 19//8 37//8 39//8
f 19//9 39//9 21//9
f 21//9 39//9 41//9
f 21//10 41//10 23//10
f 23//10 41//10 43//10
f 13//11 14//11 24//11
f 24//12 14//12 11//12
f 24//13 11//13 23//13
f 23//14 11//14 10//14
f 23//15 10//15 21//15
f 21//16 10//16 8//16
f 21//17 8//17 6//17
f 21//18 6//18 19//18
f 19//19 6//19 5//19
f 19//20 5//20 17//20
f 17//21 5//21 3//21
f 17//22 3//22 1//22
f 17//23 1//23 15//23
f 15//24 1//24 2//24
f 15//25 2//25 16//25
f 16//26 2//26 4//26
f 16//27 4//27 18//27
f 18//28 4//28 7//28
f 18//29 7//29 20//29
f 20//30 7//30 9//30
f 20//31 9//31 22//31
f 22//32 9//32 12//32
f 22//33 12//33 24//33
f 24//34 12//34 13//34
f 88//35 127//35 91//35
f 91//35 127//35 128//35
f 91//36 128//36 87//36
f 87//36 128//36 126//36
f 87//37 126//37 83//37
f 83//37 126//37 124//37
f 83//38 124//38 80//38
f 80//38 124//38 122//38
f 80//39 122//39 77//39
f 77//39 122//39 120//39
f 77//40 120//40 73//40
f 73//40 120//40 118//40
f 73//41 118//41 70//41
f 70//41 118//41 117//41
f 70//42 117//42 74//42
f 74//42 117//42 119//42
f 74//43 119//43 78//43
f 78//43 119//43 121//43
f 78//44 121//44 81//44
f 81//44 121//44 123//44
f 81//45 123//45 84//45
f 84//45 123//45 125//45
f 84//46 125//46 88//46
f 88//46 125//46 127//46
f 55//35 90//35 56//35
f 56//35 90//35 92//35
f 56//36 92//36 54//36
f 54//36 92//36 89//36
f 54//37 89//37 52//37
f 52//37 89//37 85//37
f 52//38 85//38 50//38
f 50//38 85//38 79//38
f 50//39 79//39 48//39
f 48//39 79//39 75//39
f 48//40 75//40 46//40
f 46//40 75//40 71//40
f 46//41 71//41 45//41
f 45//41 71//41 69//41
f 45//42 69//42 47//42
f 47//42 69//42 72//42
f 47//43 72//43 49//43
f 49//43 72//43 76//43
f 49//44 76//44 51//44
f 51//44 76//44 82//44
f 51//45 82//45 53//45
f 53//45 82//45 86//45
f 53//46 86//46 55//46
f 55//46 86//46 90//46
f 112//35 139//35 115//35
f 115//35 139//35 140//35
f 115//36 140//36 111//36
f 111//36 140//36 138//36
f 111//37 138//37 107//37
f 107//37 138//37 136//37
f 107//38 136//38 104//38
f 104//38 136//38 134//38
f 104//39 134//39 101//39
f 101//39 134//39 132//39
f 101//40 132//40 97//40
f 97//40 132//40 130//40
f 97//41 130//41 94//41
f 94//41 130//41 129//41
f 94//42 129//42 98//42
f 98//42 129//42 131//42
f 98//43 131//43 102//43
f 102//43 131//43 133//43
f 102//44 133//44 105//44
f 105//44 133//44 135//44
f 105//45 135//45 108//45
f 108//45 135//45 137//45
f 108//46 137//46 112//46
f 112//46 137//46 139//46
f 67//35 114//35 68//35
f 68//35 114//35 116//35
f 68//36 116//36 66//36
f 66//36 116//36 113//36
f 66//37 113//37 64//37
f 64//37 113//37 109//37
f 64//38 109//38 62//38
f 62//38 109//38 103//38
f 62//39 103//39 60//39
f 60//39 103//39 99//39
f 60//40 99//40 58//40
f 58//40 99//40 95//40
f 58//41 95//41 57//41
f 57//41 95//41 93//41
f 57//42 93//42 59//42
f 59//42 93//42 96//42
f 59//43 96//43 61//43
f 61//43 96//43 100//43
f 61//44 100//44 63//44
f 63//44 100//44 106//44
f 63//45 106//45 65//45
f 65//45 106//45 110//45
f 65//46 110//46 67//46
f 67//46 110//46 114//46
f 32//47 25//47 34//47
f 34//47 25//47 27//47
f 34//47 27//47 33//47
f 33//47 27//47 29//47
f 33//47 29//47 31//47
f 25//47 32//47 26//47
f 26//47 32//47 30//47
f 26//47 30//47 28//47
