# Blender 4.0.2
# www.blender.org
o SICK-MICROSCAN3__m0
v -0.049616 -0.046251 0.050058
v -0.050234 -0.046251 0.049239
v -0.049482 -0.046251 0.047464
v -0.048463 -0.046251 0.047338
v -0.047603 -0.046251 0.047897
v -0.047302 -0.046251 0.048878
v -0.047702 -0.046251 0.049822
v -0.048616 -0.046251 0.050289
v -0.047390 -0.013141 0.049313
v -0.048050 -0.013141 0.050099
v -0.049060 -0.013141 0.050277
v -0.049949 -0.013141 0.049764
v -0.050300 -0.013141 0.048800
v -0.050181 -0.046251 0.048215
v -0.049949 -0.013141 0.047836
v -0.049060 -0.013141 0.047323
v -0.048050 -0.013141 0.047501
v -0.047390 -0.013141 0.048287
v -0.048647 -0.006308 0.050041
v -0.047885 -0.006308 0.049652
v -0.047552 -0.006308 0.048865
v -0.047802 -0.006308 0.048047
v -0.048520 -0.006308 0.047582
v -0.049368 -0.006308 0.047687
v -0.049951 -0.006308 0.048312
v -0.049995 -0.006308 0.049166
v -0.049480 -0.006308 0.049849
v -0.047608 -0.006251 0.048862
v -0.047927 -0.006251 0.049613
v -0.048654 -0.006251 0.049984
v -0.047847 -0.006251 0.048081
v -0.048532 -0.006251 0.047637
v -0.049342 -0.006251 0.047737
v -0.049899 -0.006251 0.048334
v -0.049941 -0.006251 0.049150
v -0.049449 -0.006251 0.049801
v -0.047301 -0.013141 -0.048865
v -0.047610 -0.013141 -0.047887
v -0.048476 -0.013141 -0.047336
v -0.049493 -0.013141 -0.047470
v -0.050186 -0.013141 -0.048226
v -0.050231 -0.013141 -0.049251
v -0.049606 -0.013141 -0.050065
v -0.048604 -0.013141 -0.050287
v -0.047694 -0.013141 -0.049813
v -0.048476 -0.046251 -0.047336
v -0.047610 -0.046251 -0.047887
v -0.047301 -0.046251 -0.048865
v -0.047694 -0.046251 -0.049813
v -0.048604 -0.046251 -0.050287
v -0.049606 -0.046251 -0.050065
v -0.050231 -0.046251 -0.049251
v -0.050186 -0.046251 -0.048226
v -0.049493 -0.046251 -0.047470
v -0.048530 -0.006308 -0.047580
v -0.047808 -0.006308 -0.048039
v -0.047551 -0.006308 -0.048854
v -0.047878 -0.006308 -0.049644
v -0.048637 -0.006308 -0.050039
v -0.049472 -0.006308 -0.049854
v -0.049992 -0.006308 -0.049176
v -0.049955 -0.006308 -0.048322
v -0.049377 -0.006308 -0.047691
v -0.047853 -0.006251 -0.048073
v -0.048542 -0.006251 -0.047635
v -0.049351 -0.006251 -0.047742
v -0.049902 -0.006251 -0.048343
v -0.049938 -0.006251 -0.049159
v -0.049441 -0.006251 -0.049806
v -0.048644 -0.006251 -0.049983
v -0.047920 -0.006251 -0.049606
v -0.047608 -0.006251 -0.048852
v 0.030065 -0.013141 0.040501
v 0.029897 -0.013141 0.041513
v 0.029117 -0.013141 0.042180
v 0.028091 -0.013141 0.042189
v 0.027299 -0.013141 0.041537
v 0.027111 -0.013141 0.040528
v 0.027616 -0.013141 0.039635
v 0.028577 -0.013141 0.039275
v 0.029544 -0.013141 0.039617
v 0.030065 -0.046251 0.040501
v 0.029897 -0.046251 0.041513
v 0.029117 -0.046251 0.042180
v 0.028091 -0.046251 0.042189
v 0.027299 -0.046251 0.041537
v 0.027111 -0.046251 0.040528
v 0.029544 -0.046251 0.039617
v 0.028577 -0.046251 0.039275
v 0.027616 -0.046251 0.039635
v 0.029029 -0.006308 0.041946
v 0.029679 -0.006308 0.041390
v 0.029820 -0.006308 0.040547
v 0.029385 -0.006308 0.039810
v 0.028579 -0.006308 0.039525
v 0.027778 -0.006308 0.039825
v 0.027358 -0.006308 0.040569
v 0.027514 -0.006308 0.041410
v 0.028174 -0.006308 0.041954
v 0.029630 -0.006251 0.041362
v 0.029009 -0.006251 0.041893
v 0.028193 -0.006251 0.041900
v 0.027563 -0.006251 0.041381
v 0.027414 -0.006251 0.040579
v 0.027815 -0.006251 0.039868
v 0.028580 -0.006251 0.039582
v 0.029349 -0.006251 0.039854
v 0.029764 -0.006251 0.040557
vn 0.9207 -0.0027 0.3902
vn 0.7660 0.0027 0.6428
vn 0.4545 -0.0027 0.8907
vn 0.1736 0.0027 0.9848
vn -0.2244 -0.0027 0.9745
vn -0.5000 0.0027 0.8660
vn -0.7983 -0.0027 0.6023
vn -0.9397 0.0027 0.3420
vn -0.9987 -0.0027 -0.0517
vn -0.9397 0.0027 -0.3420
vn -0.7318 -0.0027 -0.6816
vn -0.5000 0.0027 -0.8660
vn -0.1225 -0.0027 -0.9925
vn 0.1737 0.0027 -0.9848
vn 0.5441 -0.0027 -0.8390
vn 0.7660 0.0027 -0.6428
vn 0.9561 -0.0027 -0.2929
vn 1.0000 0.0027 -0.0000
vn 0.6709 0.6848 0.2843
vn 0.6711 0.6847 0.2844
vn 0.3313 0.6847 0.6492
vn 0.6968 0.6848 -0.2135
vn 0.3966 0.6848 -0.6114
vn 0.3965 0.6848 -0.6114
vn -0.0892 0.6848 -0.7233
vn -0.5333 0.6848 -0.4967
vn -0.7278 0.6847 -0.0377
vn -0.7278 0.6848 -0.0377
vn -0.5817 0.6848 0.4389
vn -0.1635 0.6847 0.7102
vn -0.1635 0.6848 0.7102
vn 0.3312 0.6848 0.6491
vn 0.5372 -0.0000 0.8435
vn 0.9537 -0.0000 0.3008
vn 0.9239 -0.0000 -0.3826
vn 0.4619 -0.0000 -0.8870
vn -0.2163 -0.0000 -0.9763
vn -0.7933 -0.0000 -0.6089
vn -0.9991 -0.0000 0.0435
vn -0.7374 -0.0000 0.6755
vn -0.1306 -0.0000 0.9914
vn 0.6950 0.6848 0.2192
vn 0.3915 0.6848 0.6146
vn 0.3915 0.6848 0.6147
vn -0.0952 0.6848 0.7225
vn -0.5374 0.6847 0.4923
vn -0.5373 0.6848 0.4923
vn -0.7281 0.6847 0.0317
vn -0.7282 0.6847 0.0317
vn -0.5782 0.6847 -0.4437
vn -0.5781 0.6848 -0.4437
vn -0.1577 0.6848 -0.7115
vn -0.1576 0.6848 -0.7115
vn 0.3366 0.6848 -0.6464
vn 0.6734 0.6847 -0.2788
vn 0.6732 0.6849 -0.2788
vn 0.6949 0.6848 0.2192
vn 0.9864 -0.0000 0.1645
vn 0.6499 -0.0000 0.7601
vn 0.6498 -0.0000 0.7601
vn 0.0093 -0.0000 1.0000
vn -0.6357 -0.0000 0.7720
vn -0.9832 -0.0000 0.1828
vn -0.8706 -0.0000 -0.4920
vn 0.8614 -0.0000 -0.5080
vn 0.3333 -0.0000 -0.9428
vn -0.3507 -0.0000 -0.9365
vn -0.8706 -0.0000 -0.4919
vn 0.7188 0.6848 0.1199
vn 0.4736 0.6848 0.5539
vn 0.0068 0.6848 0.7287
vn 0.0068 0.6847 0.7288
vn -0.4632 0.6848 0.5626
vn -0.4633 0.6847 0.5626
vn -0.7165 0.6847 0.1332
vn -0.7165 0.6848 0.1332
vn -0.6344 0.6848 -0.3585
vn -0.2556 0.6848 -0.6824
vn 0.2429 0.6848 -0.6870
vn 0.2429 0.6848 -0.6871
vn 0.6277 0.6848 -0.3702
s 0
f 6//1 9//1 7//1
f 7//2 9//2 10//2
f 7//3 10//3 8//3
f 8//4 10//4 11//4
f 8//5 11//5 1//5
f 1//6 11//6 12//6
f 1//7 12//7 2//7
f 2//8 12//8 13//8
f 2//9 13//9 14//9
f 14//10 13//10 15//10
f 14//11 15//11 3//11
f 3//12 15//12 16//12
f 3//13 16//13 4//13
f 4//14 16//14 17//14
f 4//15 17//15 5//15
f 5//16 17//16 18//16
f 5//17 18//17 6//17
f 6//18 18//18 9//18
f 21//19 28//19 20//19
f 20//20 28//20 29//20
f 20//21 29//21 30//21
f 28//22 21//22 31//22
f 31//22 21//22 22//22
f 31//23 22//23 23//23
f 31//24 23//24 32//24
f 32//25 23//25 24//25
f 32//25 24//25 33//25
f 33//26 24//26 25//26
f 33//26 25//26 34//26
f 34//27 25//27 26//27
f 34//28 26//28 35//28
f 35//29 26//29 27//29
f 35//29 27//29 36//29
f 36//30 27//30 19//30
f 36//31 19//31 30//31
f 30//32 19//32 20//32
f 46//33 47//33 38//33
f 38//34 47//34 48//34
f 38//34 48//34 37//34
f 37//35 48//35 45//35
f 45//35 48//35 49//35
f 45//36 49//36 44//36
f 44//36 49//36 50//36
f 44//37 50//37 43//37
f 43//37 50//37 51//37
f 43//38 51//38 42//38
f 42//38 51//38 52//38
f 42//39 52//39 41//39
f 41//39 52//39 53//39
f 41//40 53//40 40//40
f 40//40 53//40 54//40
f 40//41 54//41 39//41
f 39//41 54//41 46//41
f 39//33 46//33 38//33
f 57//42 64//42 56//42
f 56//43 64//43 65//43
f 56//44 65//44 55//44
f 55//45 65//45 66//45
f 55//45 66//45 63//45
f 63//46 66//46 67//46
f 63//47 67//47 62//47
f 62//48 67//48 68//48
f 62//49 68//49 61//49
f 61//50 68//50 69//50
f 61//51 69//51 60//51
f 60//52 69//52 70//52
f 60//53 70//53 59//53
f 59//54 70//54 71//54
f 59//54 71//54 58//54
f 58//55 71//55 72//55
f 58//56 72//56 57//56
f 57//57 72//57 64//57
f 82//58 73//58 83//58
f 83//58 73//58 74//58
f 83//59 74//59 84//59
f 84//60 74//60 75//60
f 84//61 75//61 85//61
f 85//61 75//61 76//61
f 85//62 76//62 86//62
f 86//62 76//62 77//62
f 86//63 77//63 87//63
f 87//63 77//63 78//63
f 87//64 78//64 79//64
f 82//65 88//65 73//65
f 73//65 88//65 81//65
f 81//66 88//66 89//66
f 81//66 89//66 80//66
f 80//67 89//67 90//67
f 80//67 90//67 79//67
f 79//68 90//68 87//68
f 93//69 100//69 92//69
f 92//70 100//70 101//70
f 92//70 101//70 91//70
f 91//71 101//71 102//71
f 91//72 102//72 99//72
f 99//73 102//73 103//73
f 99//74 103//74 98//74
f 98//75 103//75 104//75
f 98//76 104//76 97//76
f 97//77 104//77 105//77
f 97//77 105//77 96//77
f 96//78 105//78 106//78
f 96//78 106//78 95//78
f 95//79 106//79 107//79
f 95//80 107//80 94//80
f 94//81 107//81 108//81
f 94//81 108//81 93//81
f 93//69 108//69 100//69
