# Blender 4.0.2
# www.blender.org
o SICK-MICROSCAN3__m7
v -0.053500 0.023063 -0.044021
v -0.053500 0.022416 -0.043140
v -0.053500 0.023469 -0.042496
v -0.053500 0.022416 -0.041842
v -0.053500 0.023058 -0.040971
v -0.053500 0.021653 -0.040792
v -0.053500 0.021940 -0.039856
v -0.053500 0.020419 -0.040391
v -0.053500 0.020414 -0.039450
v -0.053500 0.018890 -0.039861
v -0.053500 0.019185 -0.040792
v -0.053500 0.017775 -0.040979
v -0.053500 0.018422 -0.041842
v -0.053500 0.017369 -0.042505
v -0.053500 0.018422 -0.043140
v -0.053500 0.017780 -0.044029
v -0.053500 0.019185 -0.044190
v -0.053500 0.018898 -0.045144
v -0.053500 0.020419 -0.044591
v -0.053500 0.020423 -0.045550
v -0.053500 0.021948 -0.045139
v -0.053500 0.021653 -0.044190
v -0.048500 0.019185 -0.040792
v -0.048500 0.020419 -0.040391
v -0.048500 0.021653 -0.040792
v -0.048500 0.022416 -0.041842
v -0.048500 0.022416 -0.043140
v -0.048500 0.021653 -0.044190
v -0.048500 0.020419 -0.044591
v -0.048500 0.019185 -0.044190
v -0.048500 0.018422 -0.043140
v -0.048500 0.018422 -0.041842
v -0.054000 0.023060 -0.040975
v -0.054000 0.023469 -0.042500
v -0.054000 0.023060 -0.044025
v -0.054000 0.021944 -0.045141
v -0.054000 0.020419 -0.045550
v -0.054000 0.018894 -0.045141
v -0.054000 0.017778 -0.044025
v -0.054000 0.017369 -0.042500
v -0.054000 0.017778 -0.040975
v -0.054000 0.018894 -0.039859
v -0.054000 0.020419 -0.039450
v -0.054000 0.021944 -0.039859
v -0.053500 0.023062 0.040979
v -0.053500 0.022416 0.041851
v -0.053500 0.023469 0.042505
v -0.053500 0.022416 0.043149
v -0.053500 0.023058 0.044029
v -0.053500 0.021653 0.044199
v -0.053500 0.021940 0.045144
v -0.053500 0.020419 0.044600
v -0.053500 0.020414 0.045550
v -0.053500 0.018890 0.045139
v -0.053500 0.019184 0.044199
v -0.053500 0.017775 0.044021
v -0.053500 0.018422 0.043149
v -0.053500 0.017369 0.042496
v -0.053500 0.018422 0.041851
v -0.053500 0.017780 0.040971
v -0.053500 0.019184 0.040801
v -0.053500 0.018898 0.039856
v -0.053500 0.020419 0.040400
v -0.053500 0.020423 0.039450
v -0.053500 0.021948 0.039861
v -0.053500 0.021653 0.040801
v -0.048500 0.019184 0.044199
v -0.048500 0.020419 0.044600
v -0.048500 0.021653 0.044199
v -0.048500 0.022416 0.043149
v -0.048500 0.022416 0.041851
v -0.048500 0.021653 0.040801
v -0.048500 0.020419 0.040400
v -0.048500 0.019184 0.040801
v -0.048500 0.018422 0.041851
v -0.048500 0.018422 0.043149
v -0.054000 0.023060 0.044025
v -0.054000 0.023469 0.042500
v -0.054000 0.023060 0.040975
v -0.054000 0.021944 0.039859
v -0.054000 0.020419 0.039450
v -0.054000 0.018894 0.039859
v -0.054000 0.017777 0.040975
v -0.054000 0.017369 0.042500
v -0.054000 0.017777 0.044025
v -0.054000 0.018894 0.045141
v -0.054000 0.020419 0.045550
v -0.054000 0.021944 0.045141
v -0.053500 0.001058 0.044029
v -0.054000 0.001060 0.044025
v -0.053500 0.001469 0.042505
v -0.054000 0.001469 0.042500
v -0.053500 0.001063 0.040979
v -0.054000 0.001060 0.040975
v -0.053500 -0.000052 0.039861
v -0.054000 -0.000056 0.039859
v -0.053500 -0.001577 0.039450
v -0.054000 -0.001581 0.039450
v -0.053500 -0.003102 0.039856
v -0.054000 -0.003106 0.039859
v -0.053500 -0.004220 0.040971
v -0.054000 -0.004222 0.040975
v -0.053500 -0.004631 0.042496
v -0.054000 -0.004631 0.042500
v -0.053500 -0.004225 0.044021
v -0.054000 -0.004222 0.044025
v -0.053500 -0.003110 0.045139
v -0.054000 -0.003106 0.045141
v -0.053500 -0.001586 0.045550
v -0.054000 -0.001581 0.045550
v -0.053500 -0.000060 0.045144
v -0.054000 -0.000056 0.045141
v -0.053500 0.000416 0.041851
v -0.053500 0.000416 0.043149
v -0.053500 -0.000347 0.044199
v -0.053500 -0.001581 0.044600
v -0.053500 -0.002815 0.044199
v -0.053500 -0.003578 0.043149
v -0.053500 -0.003578 0.041851
v -0.053500 -0.002815 0.040801
v -0.053500 -0.001581 0.040400
v -0.053500 -0.000347 0.040801
v -0.048500 -0.002815 0.044199
v -0.048500 -0.001581 0.044600
v -0.048500 -0.000347 0.044199
v -0.048500 0.000416 0.043149
v -0.048500 0.000416 0.041851
v -0.048500 -0.000347 0.040801
v -0.048500 -0.001581 0.040400
v -0.048500 -0.002815 0.040801
v -0.048500 -0.003578 0.041851
v -0.048500 -0.003578 0.043149
v -0.056000 0.002207 0.044324
v -0.056000 0.002624 0.042500
v -0.056000 0.002207 0.040676
v -0.056000 0.001040 0.045787
v -0.056000 -0.000645 0.046599
v -0.056000 -0.002517 0.046599
v -0.056000 -0.004203 0.045787
v -0.056000 -0.005369 0.044324
v -0.056000 -0.005786 0.042500
v -0.056000 -0.005369 0.040676
v -0.056000 -0.004203 0.039213
v -0.056000 -0.002517 0.038401
v -0.056000 -0.000645 0.038401
v -0.056000 0.001040 0.039213
v -0.048656 0.007338 -0.056000
v -0.047429 0.006986 -0.056000
v -0.047506 0.005715 -0.056000
v -0.046034 0.005739 -0.056000
v -0.045821 0.004655 -0.056000
v -0.044236 0.005221 -0.056000
v -0.043860 0.004321 -0.056000
v -0.042391 0.005534 -0.056000
v -0.041919 0.004763 -0.056000
v -0.040865 0.006617 -0.056000
v -0.040296 0.005913 -0.056000
v -0.039960 0.008255 -0.056000
v -0.039236 0.007598 -0.056000
v -0.038902 0.009559 -0.056000
v -0.039855 0.010123 -0.056000
v -0.039344 0.011500 -0.056000
v -0.040571 0.011852 -0.056000
v -0.040494 0.013123 -0.056000
v -0.041966 0.013099 -0.056000
v -0.042179 0.014183 -0.056000
v -0.043764 0.013617 -0.056000
v -0.044140 0.014517 -0.056000
v -0.045609 0.013304 -0.056000
v -0.046081 0.014075 -0.056000
v -0.047135 0.012221 -0.056000
v -0.047704 0.012924 -0.056000
v -0.048040 0.010583 -0.056000
v -0.048764 0.011240 -0.056000
v -0.049098 0.009278 -0.056000
v -0.048145 0.008715 -0.056000
v -0.056000 0.025919 -0.037183
v -0.056000 -0.000645 -0.038401
v -0.056000 -0.007081 -0.037183
v -0.056000 -0.002517 -0.038401
v -0.056000 -0.004203 -0.039213
v -0.056000 0.025919 -0.047931
v -0.056000 0.024624 -0.042500
v -0.056000 0.024207 -0.040676
v -0.056000 0.023040 -0.039213
v -0.056000 -0.007081 -0.047355
v -0.056000 -0.000645 -0.046599
v -0.056000 0.019483 -0.046599
v -0.056000 0.021355 -0.046599
v -0.056000 -0.005786 -0.042500
v -0.056000 -0.005369 -0.044324
v -0.056000 -0.004203 -0.045787
v -0.056000 0.021355 -0.038401
v -0.056000 0.019483 -0.038401
v -0.056000 0.017797 -0.039213
v -0.056000 0.001040 -0.039213
v -0.056000 0.016631 -0.040676
v -0.056000 0.002207 -0.040676
v -0.056000 0.016214 -0.042500
v -0.056000 0.002624 -0.042500
v -0.056000 0.002207 -0.044324
v -0.056000 0.016631 -0.044324
v -0.056000 0.001040 -0.045787
v -0.056000 0.017797 -0.045787
v -0.056000 0.023040 -0.045787
v -0.056000 0.024207 -0.044324
v -0.056000 -0.005369 -0.040676
v -0.056000 -0.002517 -0.046599
v -0.045525 0.012060 0.053508
v -0.044649 0.011416 0.053508
v -0.044000 0.012469 0.053508
v -0.043351 0.011416 0.053508
v -0.042475 0.012060 0.053508
v -0.042301 0.010653 0.053508
v -0.041359 0.010944 0.053508
v -0.041900 0.009419 0.053508
v -0.040950 0.009419 0.053508
v -0.041359 0.007894 0.053508
v -0.042301 0.008185 0.053508
v -0.042475 0.006778 0.053508
v -0.043351 0.007422 0.053508
v -0.044000 0.006369 0.053508
v -0.044649 0.007422 0.053508
v -0.045525 0.006778 0.053508
v -0.045699 0.008185 0.053508
v -0.046641 0.007894 0.053508
v -0.046100 0.009419 0.053508
v -0.047050 0.009419 0.053508
v -0.046641 0.010944 0.053508
v -0.045699 0.010653 0.053508
v -0.054000 0.001060 -0.040975
v -0.054000 0.001469 -0.042500
v -0.054000 -0.000056 -0.039859
v -0.054000 -0.001581 -0.039450
v -0.054000 -0.003106 -0.039859
v -0.054000 -0.004222 -0.040975
v -0.054000 -0.004631 -0.042500
v -0.054000 -0.004222 -0.044025
v -0.054000 -0.003106 -0.045141
v -0.054000 -0.001581 -0.045550
v -0.054000 -0.000056 -0.045141
v -0.054000 0.001060 -0.044025
v -0.001525 0.012060 0.053508
v -0.000649 0.011416 0.053508
v 0.000000 0.012469 0.053508
v 0.000649 0.011416 0.053508
v 0.001525 0.012060 0.053508
v 0.001699 0.010653 0.053508
v 0.002641 0.010944 0.053508
v 0.002100 0.009419 0.053508
v 0.003050 0.009419 0.053508
v 0.002641 0.007894 0.053508
v 0.001699 0.008185 0.053508
v 0.001525 0.006778 0.053508
v 0.000649 0.007422 0.053508
v 0.000000 0.006369 0.053508
v -0.000649 0.007422 0.053508
v -0.001525 0.006778 0.053508
v -0.001699 0.008185 0.053508
v -0.002641 0.007894 0.053508
v -0.002100 0.009419 0.053508
v -0.003050 0.009419 0.053508
v -0.002641 0.010944 0.053508
v -0.001699 0.010653 0.053508
v -0.048770 0.006681 0.051800
v -0.049455 0.008715 0.055600
v -0.049455 0.008715 0.051800
v -0.049309 0.010856 0.055600
v -0.049309 0.010856 0.051800
v -0.048355 0.012778 0.055600
v -0.048355 0.012778 0.051800
v -0.046738 0.014189 0.055600
v -0.046738 0.014189 0.051800
v -0.044704 0.014874 0.051800
v -0.044704 0.014874 0.055600
v -0.042563 0.014728 0.051800
v -0.042563 0.014728 0.055600
v -0.040641 0.013774 0.051800
v -0.040641 0.013774 0.055600
v -0.039230 0.012157 0.051800
v -0.039230 0.012157 0.055600
v -0.038545 0.010123 0.051800
v -0.038545 0.010123 0.055600
v -0.038691 0.007982 0.051800
v -0.038691 0.007982 0.055600
v -0.039645 0.006060 0.051800
v -0.039645 0.006060 0.055600
v -0.041262 0.004649 0.051800
v -0.041262 0.004649 0.055600
v -0.043296 0.003964 0.051800
v -0.043296 0.003964 0.055600
v -0.045437 0.004110 0.051800
v -0.045437 0.004110 0.055600
v -0.047359 0.005064 0.051800
v -0.047359 0.005064 0.055600
v -0.048770 0.006681 0.055600
v -0.045699 0.010653 -0.048492
v -0.042301 0.010653 -0.048492
v -0.046100 0.009419 -0.048492
v -0.041900 0.009419 -0.048492
v -0.045699 0.008185 -0.048492
v -0.042301 0.008185 -0.048492
v -0.044649 0.007422 -0.048492
v -0.043351 0.007422 -0.048492
v -0.044649 0.011416 -0.048492
v -0.043351 0.011416 -0.048492
v -0.004936 0.010701 -0.056000
v -0.004137 0.010173 -0.056000
v -0.005051 0.008715 -0.056000
v -0.004054 0.008303 -0.056000
v -0.004397 0.006835 -0.056000
v -0.003169 0.006655 -0.056000
v -0.003074 0.005349 -0.056000
v -0.001656 0.005554 -0.056000
v -0.001282 0.004483 -0.056000
v 0.000185 0.005218 -0.056000
v 0.001724 0.004520 -0.056002
v 0.001990 0.005715 -0.056000
v 0.004070 0.006345 -0.056000
v 0.003400 0.006945 -0.056000
v 0.004936 0.008137 -0.056000
v 0.004137 0.008665 -0.056000
v 0.005051 0.010123 -0.056000
v 0.004054 0.010534 -0.056000
v 0.004397 0.012002 -0.056000
v 0.003169 0.012183 -0.056000
v 0.003074 0.013489 -0.056000
v 0.001656 0.013284 -0.056000
v 0.001282 0.014355 -0.056000
v -0.000185 0.013620 -0.056000
v -0.000704 0.014470 -0.056000
v -0.001990 0.013123 -0.056000
v -0.003467 0.013285 -0.056002
v -0.003400 0.011893 -0.056000
v -0.046105 0.014500 -0.055600
v -0.045866 0.014593 -0.051800
v -0.044000 0.014919 -0.055600
v -0.043744 0.014913 -0.051800
v -0.041895 0.014500 -0.055600
v -0.041661 0.014397 -0.051800
v -0.040111 0.013308 -0.055600
v -0.039934 0.013123 -0.051800
v -0.038919 0.011524 -0.055600
v -0.038826 0.011285 -0.051800
v -0.038500 0.009419 -0.055600
v -0.038506 0.009163 -0.051800
v -0.038919 0.007314 -0.055600
v -0.039022 0.007080 -0.051800
v -0.040111 0.005530 -0.055600
v -0.040296 0.005353 -0.051800
v -0.041895 0.004338 -0.055600
v -0.042134 0.004245 -0.051800
v -0.044000 0.003919 -0.055600
v -0.044256 0.003925 -0.051800
v -0.046105 0.004338 -0.055600
v -0.046339 0.004441 -0.051800
v -0.047889 0.005530 -0.055600
v -0.048066 0.005715 -0.051800
v -0.049081 0.007314 -0.055600
v -0.049174 0.007552 -0.051800
v -0.049500 0.009419 -0.055600
v -0.049494 0.009674 -0.051800
v -0.049081 0.011524 -0.055600
v -0.048978 0.011757 -0.051800
v -0.047889 0.013308 -0.055600
v -0.047704 0.013484 -0.051800
v -0.004770 0.006681 0.051800
v -0.005455 0.008715 0.055600
v -0.005455 0.008715 0.051800
v -0.005309 0.010856 0.055600
v -0.005309 0.010856 0.051800
v -0.004355 0.012778 0.051800
v -0.004355 0.012778 0.055600
v -0.002738 0.014189 0.051800
v -0.002738 0.014189 0.055600
v -0.000704 0.014874 0.051800
v -0.000704 0.014874 0.055600
v 0.001437 0.014728 0.051800
v 0.001437 0.014728 0.055600
v 0.003359 0.013774 0.051800
v 0.003359 0.013774 0.055600
v 0.004770 0.012157 0.051800
v 0.004770 0.012157 0.055600
v 0.005455 0.010123 0.051800
v 0.005455 0.010123 0.055600
v 0.005309 0.007982 0.051800
v 0.005309 0.007982 0.055600
v 0.004355 0.006060 0.051800
v 0.004355 0.006060 0.055600
v 0.002738 0.004649 0.051800
v 0.002738 0.004649 0.055600
v 0.000704 0.003964 0.051800
v 0.000704 0.003964 0.055600
v -0.001437 0.004110 0.051800
v -0.001437 0.004110 0.055600
v -0.003359 0.005064 0.051800
v -0.003359 0.005064 0.055600
v -0.004770 0.006681 0.055600
v 0.004712 0.011371 0.056000
v 0.004099 0.010355 0.056000
v 0.005100 0.009419 0.056000
v 0.004099 0.008483 0.056000
v 0.004712 0.007467 0.056000
v 0.003287 0.006797 0.056000
v 0.003606 0.005813 0.056000
v 0.001824 0.005631 0.056000
v 0.001952 0.004707 0.056000
v 0.000000 0.005214 0.056000
v 0.000000 0.004319 0.056000
v -0.001952 0.004707 0.056000
v -0.001824 0.005631 0.056000
v -0.003606 0.005813 0.056000
v -0.003287 0.006797 0.056000
v -0.004712 0.007467 0.056000
v -0.004099 0.008483 0.056000
v -0.005100 0.009419 0.056000
v -0.004099 0.010355 0.056000
v -0.004712 0.011371 0.056000
v -0.003287 0.012040 0.056000
v -0.003606 0.013025 0.056000
v -0.001824 0.013207 0.056000
v -0.001952 0.014131 0.056000
v 0.000000 0.013624 0.056000
v 0.000000 0.014519 0.056000
v 0.001952 0.014131 0.056000
v 0.001824 0.013207 0.056000
v 0.003606 0.013025 0.056000
v 0.003287 0.012040 0.056000
v -0.043126 0.012341 0.054000
v -0.044704 0.012386 0.054000
v -0.046094 0.011637 0.054000
v -0.046922 0.010293 0.054000
v -0.046968 0.008715 0.054000
v -0.046218 0.007325 0.054000
v -0.044874 0.006497 0.054000
v -0.043296 0.006451 0.054000
v -0.041906 0.007201 0.054000
v -0.041078 0.008545 0.054000
v -0.041032 0.010123 0.054000
v -0.041782 0.011513 0.054000
v -0.051997 0.009209 0.051800
v -0.051496 0.006623 0.051800
v -0.050182 0.004341 0.051800
v -0.048198 0.002609 0.051800
v -0.051632 0.011817 0.051800
v -0.050440 0.014165 0.051800
v -0.048550 0.015999 0.051800
v -0.046167 0.017120 0.051800
v -0.043549 0.017406 0.051800
v -0.040980 0.016827 0.051800
v -0.038738 0.015445 0.051800
v -0.037067 0.013410 0.051800
v -0.036146 0.010943 0.051800
v -0.036077 0.008310 0.051800
v -0.036867 0.005798 0.051800
v -0.038429 0.003678 0.051800
v -0.040595 0.002180 0.051800
v -0.043130 0.001466 0.051800
v -0.045759 0.001615 0.051800
v -0.002339 0.004441 -0.055600
v -0.003359 0.005064 -0.051800
v -0.004066 0.005715 -0.055600
v -0.004770 0.006681 -0.051800
v -0.005174 0.007552 -0.055600
v -0.005455 0.008715 -0.051800
v -0.005494 0.009674 -0.055600
v -0.005309 0.010856 -0.051800
v -0.004978 0.011757 -0.055600
v -0.004355 0.012778 -0.051800
v -0.003704 0.013484 -0.055600
v -0.002738 0.014189 -0.051800
v -0.001866 0.014593 -0.055600
v -0.000704 0.014874 -0.051800
v 0.000256 0.014913 -0.055600
v 0.001437 0.014728 -0.051800
v 0.002339 0.014397 -0.055600
v 0.003359 0.013774 -0.051800
v 0.004066 0.013123 -0.055600
v 0.004770 0.012157 -0.051800
v 0.005455 0.010123 -0.051800
v -0.001437 0.004110 -0.051800
v -0.000256 0.003925 -0.055600
v 0.000704 0.003964 -0.051800
v 0.001866 0.004245 -0.055600
v 0.002738 0.004649 -0.051800
v 0.003704 0.005353 -0.055600
v 0.004355 0.006060 -0.051800
v 0.004978 0.007080 -0.055600
v 0.005309 0.007982 -0.051800
v 0.005494 0.009163 -0.055600
v 0.005174 0.011285 -0.055600
v -0.050182 0.014497 -0.051800
v -0.051496 0.012214 -0.051800
v -0.051997 0.009629 -0.051800
v -0.051632 0.007021 -0.051800
v -0.050440 0.004673 -0.051800
v -0.048550 0.002839 -0.051800
v -0.046167 0.001718 -0.051800
v -0.043549 0.001432 -0.051800
v -0.040980 0.002011 -0.051800
v -0.038738 0.003393 -0.051800
v -0.037067 0.005428 -0.051800
v -0.036146 0.007895 -0.051800
v -0.036077 0.010528 -0.051800
v -0.036867 0.013040 -0.051800
v -0.038429 0.015160 -0.051800
v -0.040595 0.016658 -0.051800
v -0.043130 0.017371 -0.051800
v -0.045759 0.017223 -0.051800
v -0.048198 0.016229 -0.051800
v -0.053500 0.001058 -0.040971
v -0.053500 0.001469 -0.042496
v -0.053500 0.001063 -0.044021
v -0.053500 -0.000052 -0.045139
v -0.053500 -0.001577 -0.045550
v -0.053500 -0.003102 -0.045144
v -0.053500 -0.004220 -0.044029
v -0.053500 -0.004631 -0.042505
v -0.053500 -0.004225 -0.040979
v -0.053500 -0.003110 -0.039861
v -0.053500 -0.001586 -0.039450
v -0.053500 -0.000060 -0.039856
v -0.053500 0.000416 -0.043140
v -0.053500 0.000416 -0.041842
v -0.053500 -0.000347 -0.040792
v -0.053500 -0.001581 -0.040391
v -0.053500 -0.002815 -0.040792
v -0.053500 -0.003578 -0.041842
v -0.053500 -0.003578 -0.043140
v -0.053500 -0.002815 -0.044190
v -0.053500 -0.001581 -0.044591
v -0.053500 -0.000347 -0.044190
v 0.007091 0.005715 -0.051800
v 0.007909 0.008218 -0.051800
v 0.007871 0.010851 -0.051800
v 0.006979 0.013329 -0.051800
v 0.005332 0.015383 -0.051800
v 0.003106 0.016791 -0.051800
v 0.000544 0.017400 -0.051800
v -0.002077 0.017145 -0.051800
v -0.004473 0.016051 -0.051800
v -0.006384 0.014240 -0.051800
v -0.007604 0.011905 -0.051800
v -0.007999 0.009302 -0.051800
v -0.007528 0.006711 -0.051800
v -0.006241 0.004413 -0.051800
v -0.004277 0.002658 -0.051800
v -0.001850 0.001636 -0.051800
v 0.000777 0.001457 -0.051800
v 0.003320 0.002141 -0.051800
v 0.005504 0.003613 -0.051800
v 0.001699 0.008185 0.048508
v 0.002100 0.009419 0.048508
v 0.001699 0.010653 0.048508
v 0.000649 0.011416 0.048508
v -0.000649 0.011416 0.048508
v -0.001699 0.010653 0.048508
v -0.002100 0.009419 0.048508
v -0.001699 0.008185 0.048508
v -0.000649 0.007422 0.048508
v 0.000649 0.007422 0.048508
v -0.042301 0.008185 0.048508
v -0.041900 0.009419 0.048508
v -0.042301 0.010653 0.048508
v -0.043351 0.011416 0.048508
v -0.044649 0.011416 0.048508
v -0.045699 0.010653 0.048508
v -0.046100 0.009419 0.048508
v -0.045699 0.008185 0.048508
v -0.044649 0.007422 0.048508
v -0.043351 0.007422 0.048508
v -0.048397 0.006835 0.056000
v -0.048099 0.008483 0.056000
v -0.049051 0.008715 0.056000
v -0.048099 0.010355 0.056000
v -0.048936 0.010701 0.056000
v -0.048070 0.012493 0.056000
v -0.047287 0.012040 0.056000
v -0.046584 0.013816 0.056000
v -0.045824 0.013207 0.056000
v -0.044704 0.014470 0.056000
v -0.044000 0.013624 0.056000
v -0.042718 0.014355 0.056000
v -0.042176 0.013207 0.056000
v -0.040926 0.013489 0.056000
v -0.040713 0.012040 0.056000
v -0.039603 0.012002 0.056000
v -0.039901 0.010355 0.056000
v -0.038949 0.010123 0.056000
v -0.039901 0.008483 0.056000
v -0.039064 0.008137 0.056000
v -0.039930 0.006345 0.056000
v -0.040713 0.006797 0.056000
v -0.041416 0.005022 0.056000
v -0.042176 0.005631 0.056000
v -0.043296 0.004368 0.056000
v -0.044000 0.005214 0.056000
v -0.045282 0.004483 0.056000
v -0.045824 0.005631 0.056000
v -0.047074 0.005349 0.056000
v -0.047287 0.006797 0.056000
v -0.042475 0.012060 -0.053492
v -0.043351 0.011416 -0.053492
v -0.044000 0.012469 -0.053492
v -0.044649 0.011416 -0.053492
v -0.045525 0.012060 -0.053492
v -0.045699 0.010653 -0.053492
v -0.046641 0.010944 -0.053492
v -0.046100 0.009419 -0.053492
v -0.047050 0.009419 -0.053492
v -0.046641 0.007894 -0.053492
v -0.045699 0.008185 -0.053492
v -0.045525 0.006778 -0.053492
v -0.044649 0.007422 -0.053492
v -0.044000 0.006369 -0.053492
v -0.043351 0.007422 -0.053492
v -0.042475 0.006778 -0.053492
v -0.042301 0.008185 -0.053492
v -0.041359 0.007894 -0.053492
v -0.041900 0.009419 -0.053492
v -0.040950 0.009419 -0.053492
v -0.041359 0.010944 -0.053492
v -0.042301 0.010653 -0.053492
v -0.002598 0.016985 0.051800
v 0.000000 0.017419 0.051800
v 0.002598 0.016985 0.051800
v 0.004914 0.015732 0.051800
v 0.006697 0.013794 0.051800
v 0.007755 0.011383 0.051800
v 0.007973 0.008758 0.051800
v 0.007326 0.006205 0.051800
v 0.005886 0.004001 0.051800
v 0.003808 0.002383 0.051800
v 0.001317 0.001528 0.051800
v -0.001317 0.001528 0.051800
v -0.003808 0.002383 0.051800
v -0.005886 0.004001 0.051800
v -0.007326 0.006205 0.051800
v -0.007973 0.008758 0.051800
v -0.007755 0.011383 0.051800
v -0.006697 0.013794 0.051800
v -0.004914 0.015732 0.051800
v -0.001699 0.008185 -0.048492
v -0.001699 0.008185 -0.053492
v -0.002100 0.009419 -0.048492
v -0.002100 0.009419 -0.053492
v -0.001699 0.010653 -0.048492
v -0.001699 0.010653 -0.053492
v -0.000649 0.011416 -0.048492
v -0.000649 0.011416 -0.053492
v 0.000649 0.011416 -0.048492
v 0.000649 0.011416 -0.053492
v 0.001699 0.010653 -0.048492
v 0.001699 0.010653 -0.053492
v 0.002100 0.009419 -0.048492
v 0.002100 0.009419 -0.053492
v 0.001699 0.008185 -0.048492
v 0.001699 0.008185 -0.053492
v 0.000649 0.007422 -0.048492
v 0.000649 0.007422 -0.053492
v -0.000649 0.007422 -0.048492
v -0.000649 0.007422 -0.053492
v -0.048500 -0.000347 -0.040792
v -0.048500 -0.000347 -0.044190
v -0.048500 -0.001581 -0.040391
v -0.048500 -0.001581 -0.044591
v -0.048500 -0.002815 -0.040792
v -0.048500 -0.002815 -0.044190
v -0.048500 -0.003578 -0.041842
v -0.048500 -0.003578 -0.043140
v -0.048500 0.000416 -0.041842
v -0.048500 0.000416 -0.043140
v -0.001525 0.012060 -0.053492
v -0.001525 0.012060 -0.054000
v 0.000000 0.012469 -0.053492
v 0.000000 0.012469 -0.054000
v 0.001525 0.012060 -0.053492
v 0.001525 0.012060 -0.054000
v 0.002641 0.010944 -0.053492
v 0.002641 0.010944 -0.054000
v 0.003050 0.009419 -0.053492
v 0.003050 0.009419 -0.054000
v 0.002641 0.007894 -0.053492
v 0.002641 0.007894 -0.054000
v 0.001525 0.006778 -0.053492
v 0.001525 0.006778 -0.054000
v 0.000000 0.006369 -0.053492
v 0.000000 0.006369 -0.054000
v -0.001525 0.006778 -0.053492
v -0.001525 0.006778 -0.054000
v -0.002641 0.007894 -0.053492
v -0.002641 0.007894 -0.054000
v -0.003050 0.009419 -0.053492
v -0.003050 0.009419 -0.054000
v -0.002641 0.010944 -0.053492
v -0.002641 0.010944 -0.054000
v -0.056000 0.024207 0.044324
v -0.056000 0.024623 0.042500
v -0.056000 0.024207 0.040676
v -0.056000 0.023040 0.045787
v -0.056000 0.021354 0.046599
v -0.056000 0.019483 0.046599
v -0.056000 0.017797 0.045787
v -0.056000 0.016630 0.044324
v -0.056000 0.016214 0.042500
v -0.056000 0.016630 0.040676
v -0.056000 0.017797 0.039213
v -0.056000 0.019483 0.038401
v -0.056000 0.021354 0.038401
v -0.056000 0.023040 0.039213
v 0.002641 0.007894 -0.053492
v 0.000874 0.012341 0.054000
v -0.000704 0.012386 0.054000
v -0.002094 0.011637 0.054000
v -0.002922 0.010293 0.054000
v -0.002968 0.008715 0.054000
v -0.002218 0.007325 0.054000
v -0.000874 0.006497 0.054000
v 0.000704 0.006451 0.054000
v 0.002094 0.007201 0.054000
v 0.002641 0.007894 0.053508
v 0.002922 0.008545 0.054000
v 0.002968 0.010123 0.054000
v 0.002641 0.010944 0.053508
v 0.002218 0.011513 0.054000
v -0.045525 0.012060 -0.054000
v -0.044000 0.012469 -0.054000
v -0.042475 0.012060 -0.054000
v -0.041359 0.010944 -0.054000
v -0.040950 0.009419 -0.054000
v -0.041359 0.007894 -0.054000
v -0.042475 0.006778 -0.054000
v -0.044000 0.006369 -0.054000
v -0.045525 0.006778 -0.054000
v -0.046641 0.007894 -0.054000
v -0.047050 0.009419 -0.054000
v -0.046641 0.010944 -0.054000
v 0.002641 0.010944 -0.054000
v -0.056000 0.025919 0.037183
v -0.056000 0.025919 0.047931
v -0.056000 -0.007081 0.037183
v -0.056000 -0.007081 0.047355
v 0.047555 0.093328 -0.013656
v 0.047903 0.093335 -0.012384
v 0.048215 0.093341 -0.011101
v 0.048814 0.093353 -0.008068
v 0.048977 0.093356 -0.007019
v 0.049115 0.093359 -0.005966
v 0.049265 0.091089 -0.005190
v 0.047221 0.090564 0.015010
v 0.047348 0.086505 0.014964
v 0.047314 0.089508 0.014813
v 0.047512 0.088613 0.014246
v 0.047841 0.086512 0.013300
v 0.047846 0.087906 0.013157
v 0.048276 0.086519 0.011619
v 0.048354 0.087812 0.011151
v 0.048687 0.086540 0.009759
v 0.048656 0.087799 0.009743
v 0.048748 0.087426 0.009321
v 0.048753 0.086829 0.009379
v 0.047570 0.085008 0.014379
v 0.047417 0.085693 0.014815
v 0.048850 0.084469 0.009216
v 0.048378 0.084396 0.011445
v 0.049294 0.084410 0.006424
v 0.049059 0.093364 0.006409
v 0.049186 0.093366 0.005354
v 0.049689 0.084313 -0.001635
v 0.049709 0.084432 0.000000
v 0.049677 0.085035 0.001377
v 0.048452 0.084387 -0.011120
v 0.049050 0.084399 -0.008080
v 0.049212 0.084402 -0.007030
v 0.047791 0.084374 -0.013682
v 0.048140 0.084381 -0.012406
v 0.049453 0.093465 -0.001609
v 0.049389 0.093026 -0.003144
v 0.049311 0.092080 -0.004449
v 0.049290 0.093367 0.004296
v 0.049459 0.091750 0.002477
v 0.049475 0.092763 0.001364
v 0.048653 0.093304 0.009004
v 0.048825 0.092734 0.008106
v 0.047408 0.092523 0.014236
v 0.047722 0.093247 0.013078
v 0.048418 0.088861 -0.010734
v 0.048815 0.087914 -0.008902
v 0.048956 0.087916 -0.008077
v 0.049350 0.084405 -0.005975
v 0.049474 0.085723 -0.004470
v 0.049380 0.086696 -0.005183
v 0.049453 0.090068 -0.003313
v 0.048909 0.089816 -0.008071
v 0.048766 0.089812 -0.008892
v 0.049481 0.093355 -0.000026
v 0.049515 0.087718 -0.003313
v 0.049468 0.090736 -0.002794
v 0.049571 0.086983 -0.002714
v 0.049493 0.091245 -0.001936
v 0.049620 0.086522 -0.001869
v 0.049524 0.091364 -0.000938
v 0.049649 0.086421 -0.000919
v 0.049650 0.086687 0.000000
v 0.049535 0.091105 0.000000
v 0.049617 0.087601 0.000986
v 0.049549 0.090190 0.000987
v 0.049574 0.088896 0.001350
v 0.049599 0.084764 -0.003174
v 0.049605 0.086059 0.002502
v 0.049523 0.084413 0.004307
v 0.049421 0.084411 0.005368
v 0.049529 0.087392 0.003226
v 0.049471 0.088917 0.003476
v 0.049449 0.090420 0.003217
v 0.047856 0.091109 0.012793
v 0.047922 0.089983 0.012656
v 0.048297 0.089936 0.011147
v 0.047822 0.090426 0.012981
v 0.048349 0.091229 0.010758
v 0.048712 0.089872 0.009184
v 0.048681 0.091234 0.009138
v 0.048960 0.091238 0.007508
v 0.048937 0.089131 0.008011
v 0.049052 0.088233 0.007428
v 0.049109 0.087176 0.007227
v 0.049107 0.086120 0.007433
v 0.049039 0.085222 0.008017
v 0.047832 0.084464 0.013539
v 0.047257 0.091623 0.014807
v 0.048247 0.093352 0.010967
v 0.048914 0.092047 0.007663
v 0.048644 0.091234 0.009911
v 0.048765 0.093277 0.008989
v 0.048036 0.093350 0.012320
v 0.047739 0.093132 0.013411
v 0.048021 0.087830 0.012971
v 0.048812 0.087709 0.009510
v 0.048865 0.087023 0.009325
v 0.048814 0.086580 0.009658
v 0.048154 0.086517 0.012571
v 0.047951 0.084445 0.013509
v 0.048938 0.084430 0.009385
v 0.048825 0.089837 0.009156
v 0.048069 0.089939 0.012555
v 0.047948 0.090233 0.012938
v 0.047915 0.090728 0.013012
v 0.047996 0.091185 0.012666
v 0.049637 0.084415 0.004319
v 0.049172 0.093366 0.006425
v 0.049812 0.084357 -0.000282
v 0.049704 0.084767 -0.003193
v 0.049568 0.085840 -0.004566
v 0.049662 0.090817 0.000480
v 0.049598 0.091302 -0.001896
v 0.049677 0.089363 0.001329
v 0.049704 0.087713 0.001095
v 0.049748 0.086596 -0.000135
v 0.049731 0.086458 -0.001775
v 0.049580 0.085718 -0.004468
v 0.048321 0.093343 -0.011134
v 0.048866 0.089814 -0.008928
v 0.049233 0.093361 -0.005987
v 0.049462 0.084407 -0.005994
v 0.049061 0.087918 -0.008099
v 0.047900 0.084376 -0.013721
v 0.048519 0.088862 -0.010763
vn -1.0000 -0.0000 -0.0000
vn -0.0000 0.3090 -0.9511
vn -0.0000 -0.3090 -0.9511
vn -0.0000 -0.8090 -0.5878
vn -0.0000 -1.0000 -0.0000
vn -0.0000 -0.8090 0.5878
vn -0.0000 -0.3090 0.9511
vn -0.0000 0.3090 0.9511
vn -0.0000 0.8090 0.5878
vn -0.0000 1.0000 -0.0000
vn -0.0000 0.8090 -0.5878
vn -0.0023 -0.9655 -0.2602
vn 0.0023 -0.9659 -0.2588
vn -0.0023 -0.9663 0.2574
vn 0.0023 -0.9659 0.2588
vn -0.0023 -0.7081 0.7061
vn 0.0023 -0.7071 0.7071
vn -0.0023 -0.2602 0.9655
vn 0.0023 -0.2588 0.9659
vn -0.0023 0.2574 0.9663
vn 0.0023 0.2588 0.9659
vn -0.0023 0.7061 0.7082
vn 0.0023 0.7071 0.7071
vn -0.0023 0.9655 0.2602
vn 0.0023 0.9659 0.2588
vn -0.0023 0.9663 -0.2574
vn 0.0023 0.9659 -0.2588
vn -0.0023 0.7082 -0.7061
vn 0.0023 0.7071 -0.7071
vn -0.0023 0.2602 -0.9655
vn 0.0023 0.2588 -0.9659
vn -0.0023 -0.2574 -0.9663
vn 0.0023 -0.2588 -0.9659
vn -0.0023 -0.7061 -0.7082
vn 0.0023 -0.7071 -0.7071
vn -0.0023 0.7061 0.7081
vn -0.0023 0.7081 -0.7061
vn -0.5098 -0.8310 -0.2227
vn -0.4905 -0.8496 -0.1939
vn -0.4905 -0.8496 0.1939
vn -0.4763 -0.6875 -0.5482
vn -0.5245 -0.6020 -0.6020
vn -0.4675 -0.3835 -0.7964
vn -0.5317 -0.2192 -0.8181
vn -0.4646 -0.0000 -0.8855
vn -0.5317 0.2192 -0.8181
vn -0.4675 0.3835 -0.7964
vn -0.5245 0.6020 -0.6020
vn -0.4763 0.6875 -0.5482
vn -0.5098 0.8310 -0.2227
vn -0.4905 0.8496 -0.1939
vn -0.4905 0.8496 0.1939
vn -0.5098 0.8310 0.2227
vn -0.4763 0.6875 0.5482
vn -0.5245 0.6020 0.6020
vn -0.4675 0.3835 0.7964
vn -0.5317 0.2192 0.8181
vn -0.4646 -0.0000 0.8855
vn -0.5317 -0.2192 0.8181
vn -0.4675 -0.3835 0.7964
vn -0.5245 -0.6020 0.6020
vn -0.4763 -0.6875 0.5482
vn -0.5098 -0.8310 0.2227
vn -0.0000 -0.0000 -1.0000
vn -0.0000 -0.0000 1.0000
vn -0.9477 -0.3191 -0.0000
vn -0.9977 0.0679 -0.0000
vn -0.8958 0.4445 -0.0000
vn -0.6575 0.7535 -0.0000
vn -0.3191 0.9477 -0.0000
vn 0.0679 0.9977 -0.0000
vn 0.4445 0.8958 -0.0000
vn 0.7535 0.6575 -0.0000
vn 0.9477 0.3191 -0.0000
vn 0.9977 -0.0679 -0.0000
vn 0.8958 -0.4445 -0.0000
vn 0.6575 -0.7535 -0.0000
vn 0.3191 -0.9477 -0.0000
vn -0.0679 -0.9977 -0.0000
vn -0.4445 -0.8958 -0.0000
vn -0.7535 -0.6575 -0.0000
vn -0.0008 0.0016 -1.0000
vn -0.0006 0.0021 -1.0000
vn -0.0007 0.0021 -1.0000
vn 0.0015 -0.0014 -1.0000
vn 0.0014 -0.0016 -1.0000
vn 0.0013 -0.0017 -1.0000
vn -0.1951 0.9807 -0.0116
vn -0.1493 0.9887 0.0116
vn 0.1951 0.9807 -0.0116
vn 0.2404 0.9706 0.0116
vn 0.5555 0.8314 -0.0116
vn 0.5936 0.8047 0.0116
vn 0.8314 0.5555 -0.0116
vn 0.8563 0.5163 0.0116
vn 0.9807 0.1951 -0.0116
vn 0.9887 0.1493 0.0116
vn 0.9807 -0.1951 -0.0116
vn 0.9706 -0.2404 0.0116
vn 0.8314 -0.5555 -0.0116
vn 0.8047 -0.5936 0.0116
vn 0.5555 -0.8314 -0.0116
vn 0.5163 -0.8563 0.0116
vn 0.1951 -0.9807 -0.0116
vn 0.1493 -0.9887 0.0116
vn -0.1951 -0.9807 -0.0116
vn -0.2404 -0.9706 0.0116
vn -0.5555 -0.8314 -0.0116
vn -0.5936 -0.8047 0.0116
vn -0.8314 -0.5555 -0.0116
vn -0.8563 -0.5163 0.0116
vn -0.9807 -0.1951 -0.0116
vn -0.9887 -0.1493 0.0116
vn -0.9807 0.1951 -0.0116
vn -0.9706 0.2404 0.0116
vn -0.8314 0.5555 -0.0116
vn -0.8047 0.5936 0.0116
vn -0.5555 0.8314 -0.0116
vn -0.5163 0.8563 0.0116
vn -0.2534 -0.9455 0.2044
vn -0.0282 -0.9785 -0.2044
vn 0.2534 -0.9455 0.2044
vn 0.4648 -0.8615 -0.2044
vn 0.6922 -0.6922 0.2044
vn 0.8333 -0.5137 -0.2044
vn 0.9455 -0.2534 0.2044
vn 0.9785 -0.0282 -0.2044
vn 0.9455 0.2534 0.2044
vn 0.8615 0.4648 -0.2044
vn 0.6922 0.6922 0.2044
vn 0.5137 0.8333 -0.2044
vn 0.2534 0.9455 0.2044
vn 0.0282 0.9785 -0.2044
vn -0.2534 0.9455 0.2044
vn -0.4648 0.8615 -0.2044
vn -0.6922 0.6922 0.2044
vn -0.8333 0.5137 -0.2044
vn -0.9455 0.2534 0.2044
vn -0.9785 0.0282 -0.2044
vn -0.9455 -0.2534 0.2044
vn -0.8615 -0.4648 -0.2044
vn -0.6922 -0.6922 0.2044
vn -0.5137 -0.8333 -0.2044
vn -0.5934 -0.8045 -0.0275
vn -0.7532 -0.6572 0.0275
vn -0.8561 -0.5161 -0.0275
vn -0.9474 -0.3189 0.0275
vn -0.9884 -0.1493 -0.0275
vn -0.9973 0.0679 0.0275
vn -0.9703 0.2404 -0.0275
vn -0.8954 0.4444 0.0275
vn -0.8045 0.5934 -0.0275
vn -0.6572 0.7532 0.0275
vn -0.5161 0.8561 -0.0275
vn -0.3189 0.9474 0.0275
vn -0.1493 0.9884 -0.0275
vn 0.0679 0.9973 0.0275
vn 0.2404 0.9703 -0.0275
vn 0.4444 0.8954 0.0275
vn 0.5934 0.8045 -0.0275
vn 0.7532 0.6572 0.0275
vn 0.9435 0.3176 -0.0942
vn -0.4444 -0.8954 0.0275
vn -0.2404 -0.9703 -0.0275
vn -0.0679 -0.9973 0.0275
vn 0.1493 -0.9884 -0.0275
vn 0.3189 -0.9474 0.0275
vn 0.5161 -0.8561 -0.0275
vn 0.6572 -0.7532 0.0275
vn 0.8045 -0.5934 -0.0275
vn 0.8954 -0.4444 0.0275
vn 0.9703 -0.2404 -0.0275
vn 0.9844 0.1487 0.0942
vn 0.9933 -0.0676 -0.0942
vn 0.8526 0.5140 0.0942
vn -0.0023 -0.7061 -0.7081
vn -0.9511 0.3090 -0.0000
vn -0.9511 -0.3090 -0.0000
vn -0.5878 -0.8090 -0.0000
vn 0.5878 -0.8090 -0.0000
vn 0.9511 -0.3090 -0.0000
vn 0.9511 0.3090 -0.0000
vn 0.5878 0.8090 -0.0000
vn -0.5878 0.8090 -0.0000
vn 0.2588 -0.9659 -0.0000
vn -0.2588 -0.9659 -0.0000
vn -0.7071 -0.7071 -0.0000
vn -0.9659 -0.2588 -0.0000
vn -0.9659 0.2588 -0.0000
vn -0.7071 0.7071 -0.0000
vn -0.2588 0.9659 -0.0000
vn 0.2588 0.9659 -0.0000
vn 0.7071 0.7071 -0.0000
vn 0.9659 0.2588 -0.0000
vn 0.9659 -0.2588 -0.0000
vn 0.7071 -0.7071 -0.0000
vn -0.5098 -0.8310 -0.2226
vn -0.5098 0.8310 -0.2226
vn -0.5098 0.8310 0.2226
vn -0.5098 -0.8310 0.2226
vn 0.2239 -0.8357 -0.5015
vn -0.1572 -0.8622 -0.4815
vn -0.2212 -0.8254 -0.5194
vn -0.5192 -0.7135 -0.4704
vn -0.5998 -0.5998 -0.5297
vn -0.7799 -0.4189 -0.4651
vn -0.8175 -0.2191 -0.5326
vn -0.8841 -0.0390 -0.4656
vn -0.8201 0.2197 -0.5284
vn -0.8104 0.3471 -0.4720
vn -0.6054 0.6054 -0.5168
vn -0.5752 0.6594 -0.4840
vn -0.2301 0.8362 -0.4978
vn 0.6054 -0.6054 -0.5168
vn 0.5752 -0.6594 -0.4840
vn 0.2301 -0.8362 -0.4978
vn 0.8104 -0.3471 -0.4720
vn 0.8201 -0.2197 -0.5284
vn 0.8841 0.0390 -0.4656
vn 0.8175 0.2191 -0.5326
vn 0.7799 0.4189 -0.4651
vn 0.5998 0.5998 -0.5297
vn 0.2498 0.9321 -0.2624
vn -0.2239 0.8357 -0.5015
vn 0.1572 0.8622 -0.4815
vn 0.4558 0.6263 -0.6325
vn -0.5917 -0.2059 -0.7794
vn -0.7961 -0.1202 -0.5931
vn -0.6254 0.0362 -0.7794
vn -0.7815 0.1936 -0.5931
vn -0.5071 0.2876 -0.8125
vn -0.6381 0.4707 -0.6094
vn -0.4173 0.6920 -0.5890
vn -0.2260 0.5284 -0.8184
vn -0.1202 0.7961 -0.5931
vn 0.0362 0.6255 -0.7794
vn 0.1936 0.7815 -0.5931
vn 0.2728 0.5640 -0.7794
vn 0.4779 0.6480 -0.5931
vn 0.4679 0.4167 -0.7794
vn 0.6895 0.4157 -0.5931
vn 0.5917 0.2059 -0.7794
vn 0.7961 0.1202 -0.5931
vn 0.6254 -0.0362 -0.7794
vn 0.7815 -0.1936 -0.5931
vn 0.5640 -0.2728 -0.7794
vn 0.6479 -0.4779 -0.5931
vn 0.3585 -0.4598 -0.8125
vn 0.4094 -0.6790 -0.6094
vn 0.1207 -0.7990 -0.5890
vn 0.0065 -0.5747 -0.8184
vn -0.1936 -0.7815 -0.5931
vn -0.2728 -0.5640 -0.7794
vn -0.4779 -0.6479 -0.5931
vn -0.4679 -0.4167 -0.7794
vn -0.6895 -0.4157 -0.5931
vn 0.1970 -0.8633 0.4646
vn -0.0244 -0.8463 0.5321
vn -0.1968 -0.8621 0.4669
vn -0.4464 -0.7241 0.5257
vn -0.5487 -0.6880 0.4750
vn -0.7560 -0.4079 0.5119
vn -0.7861 -0.3786 0.4886
vn -0.8703 -0.0000 0.4925
vn -0.8612 0.0248 0.5077
vn -0.7915 0.3812 0.4777
vn -0.7254 0.4472 0.5232
vn -0.5509 0.6908 0.4683
vn -0.4023 0.7456 0.5313
vn -0.1970 0.8633 0.4646
vn 0.0244 0.8463 0.5321
vn 0.1968 0.8621 0.4669
vn 0.4464 0.7241 0.5257
vn 0.5487 0.6880 0.4750
vn 0.7560 0.4079 0.5119
vn 0.7861 0.3786 0.4886
vn 0.8703 -0.0000 0.4925
vn 0.8612 -0.0248 0.5077
vn 0.7915 -0.3812 0.4777
vn 0.7254 -0.4472 0.5232
vn 0.5509 -0.6908 0.4683
vn 0.4023 -0.7456 0.5313
vn -0.3673 -0.5839 -0.7240
vn -0.4095 -0.6128 -0.6759
vn -0.5628 -0.3989 -0.7240
vn -0.6128 -0.4095 -0.6759
vn -0.6726 -0.1532 -0.7240
vn -0.7229 -0.1438 -0.6759
vn -0.6800 0.1159 -0.7240
vn -0.7229 0.1438 -0.6759
vn -0.5839 0.3673 -0.7240
vn -0.6128 0.4095 -0.6759
vn -0.3989 0.5628 -0.7240
vn -0.4095 0.6128 -0.6759
vn -0.1532 0.6726 -0.7240
vn -0.1438 0.7229 -0.6759
vn 0.1159 0.6800 -0.7240
vn 0.1438 0.7229 -0.6759
vn 0.3673 0.5839 -0.7240
vn 0.4095 0.6128 -0.6759
vn 0.5628 0.3989 -0.7240
vn 0.6128 0.4095 -0.6759
vn 0.6726 0.1532 -0.7240
vn 0.7229 0.1438 -0.6759
vn 0.6800 -0.1159 -0.7240
vn 0.7229 -0.1438 -0.6759
vn 0.5839 -0.3673 -0.7240
vn 0.6128 -0.4095 -0.6759
vn 0.3989 -0.5628 -0.7240
vn 0.4095 -0.6128 -0.6759
vn 0.1532 -0.6726 -0.7240
vn 0.1438 -0.7229 -0.6759
vn -0.1159 -0.6800 -0.7240
vn -0.1438 -0.7229 -0.6759
vn -0.7034 0.0407 0.7097
vn -0.6850 -0.2306 0.6911
vn -0.6654 -0.2315 0.7097
vn -0.5446 -0.4752 0.6911
vn -0.5261 -0.4686 0.7097
vn -0.3213 -0.6474 0.6911
vn -0.3068 -0.6342 0.7097
vn -0.0491 -0.7211 0.6911
vn -0.0407 -0.7034 0.7097
vn 0.2306 -0.6850 0.6911
vn 0.2315 -0.6654 0.7097
vn 0.4752 -0.5446 0.6911
vn 0.4686 -0.5261 0.7097
vn 0.6474 -0.3213 0.6911
vn 0.6342 -0.3068 0.7097
vn 0.7211 -0.0491 0.6911
vn 0.7034 -0.0407 0.7097
vn 0.6850 0.2306 0.6911
vn 0.6654 0.2316 0.7097
vn 0.5446 0.4752 0.6911
vn 0.5261 0.4686 0.7097
vn 0.3213 0.6474 0.6911
vn 0.3068 0.6342 0.7097
vn 0.0491 0.7211 0.6911
vn 0.0407 0.7034 0.7097
vn -0.2306 0.6850 0.6911
vn -0.2315 0.6654 0.7097
vn -0.4752 0.5446 0.6911
vn -0.4686 0.5261 0.7097
vn -0.6474 0.3213 0.6911
vn -0.6342 0.3068 0.7097
vn -0.7211 0.0491 0.6911
vn 0.6238 -0.1241 0.7717
vn 0.7923 -0.0539 0.6077
vn 0.6238 0.1241 0.7717
vn 0.7527 0.2534 0.6077
vn 0.5288 0.3534 0.7717
vn 0.5984 0.5221 0.6077
vn 0.3534 0.5288 0.7717
vn 0.3530 0.7114 0.6077
vn 0.1241 0.6238 0.7717
vn 0.0539 0.7923 0.6077
vn -0.1241 0.6238 0.7717
vn -0.2534 0.7526 0.6077
vn -0.3534 0.5288 0.7717
vn -0.5221 0.5984 0.6077
vn -0.5288 0.3534 0.7717
vn -0.7114 0.3530 0.6077
vn -0.6238 0.1241 0.7717
vn -0.7923 0.0539 0.6077
vn -0.6238 -0.1241 0.7717
vn -0.7527 -0.2534 0.6077
vn -0.5288 -0.3534 0.7717
vn -0.5984 -0.5221 0.6077
vn -0.3534 -0.5288 0.7717
vn -0.3530 -0.7114 0.6077
vn -0.1241 -0.6238 0.7717
vn -0.0539 -0.7923 0.6077
vn 0.1241 -0.6238 0.7717
vn 0.2534 -0.7527 0.6077
vn 0.3534 -0.5288 0.7717
vn 0.5221 -0.5984 0.6077
vn 0.5288 -0.3534 0.7717
vn 0.7114 -0.3530 0.6077
vn 0.2208 -0.8241 -0.5216
vn 0.1470 -0.8652 -0.4793
vn -0.2234 -0.8337 -0.5049
vn -0.2406 -0.8350 -0.4949
vn -0.5822 -0.6515 -0.4865
vn 0.5110 -0.7202 -0.4692
vn 0.5994 -0.5994 -0.5306
vn 0.7749 -0.4283 -0.4648
vn 0.8177 -0.2191 -0.5324
vn 0.8833 -0.0496 -0.4662
vn 0.8209 0.2200 -0.5270
vn 0.8137 0.3370 -0.4736
vn 0.6064 0.6064 -0.5142
vn 0.5822 0.6515 -0.4865
vn 0.2251 0.8401 -0.4936
vn 0.2390 0.8297 -0.5045
vn -0.1470 0.8652 -0.4793
vn -0.2208 0.8241 -0.5216
vn -0.5110 0.7202 -0.4692
vn -0.5994 0.5994 -0.5306
vn -0.7749 0.4283 -0.4648
vn -0.8177 0.2191 -0.5324
vn -0.8833 0.0496 -0.4662
vn -0.8209 -0.2200 -0.5270
vn -0.8137 -0.3370 -0.4736
vn -0.6064 -0.6064 -0.5142
vn 0.5256 -0.8472 0.0776
vn -0.1064 -0.9934 -0.0427
vn 0.0175 -0.9998 0.0004
vn 0.0183 -0.9998 0.0005
vn 0.1315 0.8485 -0.5126
vn 0.2345 0.9717 0.0300
vn 0.4553 0.8874 0.0722
vn -0.4659 0.8819 -0.0719
vn 0.3902 0.8766 0.2817
vn -0.6313 0.7230 0.2806
vn 0.2846 -0.7620 0.5817
vn -0.4634 -0.8828 -0.0762
vn 0.0040 -0.9999 0.0103
vn -0.6200 -0.7762 -0.1145
vn 0.5907 -0.5360 0.6031
vn -0.7734 -0.2200 0.5946
vn 0.2955 0.0947 0.9506
vn -0.6089 0.5202 0.5988
vn 0.2519 0.7478 0.6143
vn -0.3412 0.9382 -0.0571
vn -0.1023 0.9947 -0.0115
vn -0.0175 0.9998 -0.0005
vn -0.0199 0.9998 -0.0015
vn 0.0017 -0.8391 0.5440
vn -0.1633 -0.9865 -0.0105
vn 0.5174 -0.8463 0.1269
vn -0.2584 -0.9622 -0.0862
vn 0.4560 -0.7842 -0.4208
vn 0.1387 0.8493 -0.5094
vn 0.3059 0.9512 0.0395
vn 0.5315 0.8428 0.0846
vn 0.3202 0.9460 0.0501
vn -0.2118 0.7414 -0.6368
vn 0.6444 0.5419 -0.5395
vn -0.1259 0.1399 -0.9821
vn 0.8115 -0.1923 -0.5518
vn -0.4142 -0.5016 -0.7595
vn 0.9746 0.0310 0.2216
vn 0.9818 0.0254 0.1883
vn 0.9358 0.0345 0.3509
vn 0.9804 0.0322 0.1946
vn 0.9748 0.0285 0.2214
vn 0.9725 0.0102 0.2328
vn 0.9300 0.0720 0.3603
vn 0.9475 0.0161 0.3192
vn 0.9549 0.0264 0.2957
vn 0.9963 0.0244 0.0822
vn 0.9957 0.0263 0.0887
vn 0.9875 0.0262 0.1556
vn 0.9877 0.0259 0.1542
vn 0.9893 0.0259 0.1438
vn 0.9761 0.0205 0.2164
vn 0.9600 0.0330 0.2779
vn 0.9744 0.0327 0.2226
vn 0.9721 0.0325 0.2321
vn 0.9633 0.0260 0.2672
vn 0.9656 0.0238 0.2590
vn 0.9732 0.0189 0.2293
vn 0.9763 0.0384 0.2129
vn 0.9964 -0.0220 0.0817
vn 0.9908 0.0371 0.1302
vn 0.9872 0.0260 0.1572
vn 0.9326 0.0197 0.3604
vn 0.9211 0.0255 0.3886
vn 0.9558 0.0262 0.2928
vn 0.9553 0.0265 0.2945
vn 0.9521 0.0264 0.3046
vn 0.0999 0.0013 -0.9950
vn 0.0210 -0.9998 0.0012
vn 0.0175 -0.9998 0.0005
vn -0.1436 -0.0021 0.9896
vn -0.0211 0.9998 -0.0005
vn -0.0174 0.9998 -0.0005
vn 0.9977 0.0388 0.0553
vn 0.9869 0.0135 0.1605
vn 0.4267 -0.8246 0.3715
vn -0.4526 -0.8890 0.0701
vn -0.0214 -0.9598 -0.2799
vn -0.0841 -0.8051 -0.5872
vn 0.2976 -0.7380 -0.6056
vn -0.0812 -0.5940 -0.8004
vn -0.7762 -0.6100 -0.1594
vn 0.4512 -0.8877 0.0916
vn 0.2672 -0.8322 0.4859
vn 0.6873 -0.5275 -0.4994
vn -0.7095 -0.3604 -0.6056
vn 0.6899 -0.1834 -0.7003
vn -0.6183 0.1001 -0.7795
vn 0.6359 0.2285 -0.7371
vn -0.0825 0.7292 -0.6793
vn -0.2467 0.7131 -0.6562
vn 0.4518 0.8570 -0.2480
vn -0.7653 0.6420 -0.0463
vn 0.4456 0.8916 0.0810
vn 0.1086 0.8755 0.4708
vn 0.9958 0.0201 -0.0889
vn 0.9966 0.0261 -0.0784
vn 0.9979 0.0250 -0.0600
vn 0.9886 0.0110 -0.1499
vn 0.9952 0.0751 -0.0625
vn 0.9957 0.0572 0.0729
vn 0.9995 0.0290 -0.0160
vn 0.9956 0.0561 -0.0755
vn 0.9962 0.0788 0.0382
vn 0.9948 0.0583 0.0832
vn 0.9960 0.0585 0.0675
vn 0.9832 0.0021 0.1823
vn 0.9943 0.0013 0.1065
vn 0.9967 -0.0014 0.0813
vn 0.9996 0.0277 0.0107
vn 0.9995 0.0292 -0.0126
vn 0.9956 -0.0257 -0.0897
vn 0.9998 -0.0197 0.0040
vn 0.9889 0.0857 -0.1214
vn 0.9979 0.0632 -0.0151
vn 0.9968 0.0617 -0.0506
vn 0.9858 0.1071 -0.1297
vn 0.4847 0.5787 0.6559
vn 0.9989 0.0259 0.0401
vn 0.9979 0.0260 0.0592
vn 0.9980 0.0264 0.0571
vn 0.9971 0.0264 0.0709
vn -0.0167 0.9999 -0.0008
vn -0.0177 0.9998 -0.0004
vn 0.2725 0.5407 0.7959
vn 0.2396 0.5410 0.8062
vn -0.0232 0.9997 -0.0009
vn -0.0195 0.9998 -0.0000
vn -0.0176 0.9998 -0.0004
vn 0.1676 0.0034 0.9859
vn 0.1672 0.0034 0.9859
vn 0.0213 -0.9998 -0.0004
vn -0.2134 -0.0047 -0.9770
vn 0.0172 -0.9999 -0.0000
vn 0.0238 -0.9997 -0.0008
vn 0.0193 -0.9998 -0.0001
vn -0.2399 0.5564 -0.7956
vn -0.2888 0.5545 -0.7805
vn -0.2206 -0.5633 -0.7962
vn 0.9874 -0.0022 -0.1582
vn 0.9782 0.0018 -0.2076
vn 0.9566 0.0182 -0.2907
vn 0.9796 0.0268 -0.1990
vn 0.9848 -0.0287 -0.1712
vn 0.9560 -0.0295 -0.2919
vn 0.9955 0.0801 -0.0504
vn 0.9550 0.0804 -0.2854
vn 0.9973 -0.0033 -0.0732
vn 0.9807 0.0252 -0.1938
vn 0.9799 0.0265 -0.1975
s 0
f 1//1 2//1 3//1
f 3//1 2//1 4//1
f 3//1 4//1 5//1
f 5//1 4//1 6//1
f 5//1 6//1 7//1
f 7//1 6//1 8//1
f 7//1 8//1 9//1
f 9//1 8//1 10//1
f 10//1 8//1 11//1
f 10//1 11//1 12//1
f 12//1 11//1 13//1
f 12//1 13//1 14//1
f 14//1 13//1 15//1
f 14//1 15//1 16//1
f 16//1 15//1 17//1
f 16//1 17//1 18//1
f 18//1 17//1 19//1
f 18//1 19//1 20//1
f 20//1 19//1 21//1
f 21//1 19//1 22//1
f 21//1 22//1 1//1
f 1//1 22//1 2//1
f 23//2 11//2 24//2
f 24//2 11//2 8//2
f 24//3 8//3 25//3
f 25//3 8//3 6//3
f 25//4 6//4 26//4
f 26//4 6//4 4//4
f 26//5 4//5 27//5
f 27//5 4//5 2//5
f 27//6 2//6 28//6
f 28//6 2//6 22//6
f 28//7 22//7 29//7
f 29//7 22//7 19//7
f 29//8 19//8 30//8
f 30//8 19//8 17//8
f 30//9 17//9 31//9
f 31//9 17//9 15//9
f 31//10 15//10 32//10
f 32//10 15//10 13//10
f 32//11 13//11 23//11
f 23//11 13//11 11//11
f 5//12 33//12 3//12
f 3//13 33//13 34//13
f 3//14 34//14 1//14
f 1//15 34//15 35//15
f 1//16 35//16 21//16
f 21//17 35//17 36//17
f 21//18 36//18 20//18
f 20//19 36//19 37//19
f 20//20 37//20 18//20
f 18//21 37//21 38//21
f 18//22 38//22 16//22
f 16//23 38//23 39//23
f 16//24 39//24 14//24
f 14//25 39//25 40//25
f 14//26 40//26 12//26
f 12//27 40//27 41//27
f 12//28 41//28 10//28
f 10//29 41//29 42//29
f 10//30 42//30 9//30
f 9//31 42//31 43//31
f 9//32 43//32 7//32
f 7//33 43//33 44//33
f 7//34 44//34 5//34
f 5//35 44//35 33//35
f 45//1 46//1 47//1
f 47//1 46//1 48//1
f 47//1 48//1 49//1
f 49//1 48//1 50//1
f 49//1 50//1 51//1
f 51//1 50//1 52//1
f 51//1 52//1 53//1
f 53//1 52//1 54//1
f 54//1 52//1 55//1
f 54//1 55//1 56//1
f 56//1 55//1 57//1
f 56//1 57//1 58//1
f 58//1 57//1 59//1
f 58//1 59//1 60//1
f 60//1 59//1 61//1
f 60//1 61//1 62//1
f 62//1 61//1 63//1
f 62//1 63//1 64//1
f 64//1 63//1 65//1
f 65//1 63//1 66//1
f 65//1 66//1 45//1
f 45//1 66//1 46//1
f 67//2 55//2 68//2
f 68//2 55//2 52//2
f 68//3 52//3 69//3
f 69//3 52//3 50//3
f 69//4 50//4 70//4
f 70//4 50//4 48//4
f 70//5 48//5 71//5
f 71//5 48//5 46//5
f 71//6 46//6 72//6
f 72//6 46//6 66//6
f 72//7 66//7 73//7
f 73//7 66//7 63//7
f 73//8 63//8 74//8
f 74//8 63//8 61//8
f 74//9 61//9 75//9
f 75//9 61//9 59//9
f 75//10 59//10 76//10
f 76//10 59//10 57//10
f 76//11 57//11 67//11
f 67//11 57//11 55//11
f 49//12 77//12 47//12
f 47//13 77//13 78//13
f 47//14 78//14 45//14
f 45//15 78//15 79//15
f 45//16 79//16 65//16
f 65//17 79//17 80//17
f 65//18 80//18 64//18
f 64//19 80//19 81//19
f 64//20 81//20 62//20
f 62//21 81//21 82//21
f 62//36 82//36 60//36
f 60//23 82//23 83//23
f 60//24 83//24 58//24
f 58//25 83//25 84//25
f 58//26 84//26 56//26
f 56//27 84//27 85//27
f 56//37 85//37 54//37
f 54//29 85//29 86//29
f 54//30 86//30 53//30
f 53//31 86//31 87//31
f 53//32 87//32 51//32
f 51//33 87//33 88//33
f 51//34 88//34 49//34
f 49//35 88//35 77//35
f 89//12 90//12 91//12
f 91//13 90//13 92//13
f 91//14 92//14 93//14
f 93//15 92//15 94//15
f 93//16 94//16 95//16
f 95//17 94//17 96//17
f 95//18 96//18 97//18
f 97//19 96//19 98//19
f 97//20 98//20 99//20
f 99//21 98//21 100//21
f 99//36 100//36 101//36
f 101//23 100//23 102//23
f 101//24 102//24 103//24
f 103//25 102//25 104//25
f 103//26 104//26 105//26
f 105//27 104//27 106//27
f 105//37 106//37 107//37
f 107//29 106//29 108//29
f 107//30 108//30 109//30
f 109//31 108//31 110//31
f 109//32 110//32 111//32
f 111//33 110//33 112//33
f 111//34 112//34 89//34
f 89//35 112//35 90//35
f 93//1 113//1 91//1
f 91//1 113//1 114//1
f 91//1 114//1 89//1
f 89//1 114//1 115//1
f 89//1 115//1 111//1
f 111//1 115//1 116//1
f 111//1 116//1 109//1
f 109//1 116//1 107//1
f 107//1 116//1 117//1
f 107//1 117//1 105//1
f 105//1 117//1 118//1
f 105//1 118//1 103//1
f 103//1 118//1 119//1
f 103//1 119//1 101//1
f 101//1 119//1 120//1
f 101//1 120//1 99//1
f 99//1 120//1 121//1
f 99//1 121//1 97//1
f 97//1 121//1 95//1
f 95//1 121//1 122//1
f 95//1 122//1 93//1
f 93//1 122//1 113//1
f 123//2 117//2 124//2
f 124//2 117//2 116//2
f 124//3 116//3 125//3
f 125//3 116//3 115//3
f 125//4 115//4 126//4
f 126//4 115//4 114//4
f 126//5 114//5 127//5
f 127//5 114//5 113//5
f 127//6 113//6 128//6
f 128//6 113//6 122//6
f 128//7 122//7 129//7
f 129//7 122//7 121//7
f 129//8 121//8 130//8
f 130//8 121//8 120//8
f 130//9 120//9 131//9
f 131//9 120//9 119//9
f 131//10 119//10 132//10
f 132//10 119//10 118//10
f 132//11 118//11 123//11
f 123//11 118//11 117//11
f 90//38 133//38 92//38
f 92//39 133//39 134//39
f 92//40 134//40 135//40
f 133//41 90//41 136//41
f 136//42 90//42 112//42
f 136//43 112//43 137//43
f 137//44 112//44 110//44
f 137//45 110//45 138//45
f 138//46 110//46 108//46
f 138//47 108//47 139//47
f 139//48 108//48 106//48
f 139//49 106//49 140//49
f 140//50 106//50 104//50
f 140//51 104//51 141//51
f 141//52 104//52 142//52
f 142//53 104//53 102//53
f 142//54 102//54 143//54
f 143//55 102//55 100//55
f 143//56 100//56 144//56
f 144//57 100//57 98//57
f 144//58 98//58 145//58
f 145//59 98//59 96//59
f 145//60 96//60 146//60
f 146//61 96//61 94//61
f 146//62 94//62 135//62
f 135//63 94//63 92//63
f 147//64 148//64 149//64
f 149//64 148//64 150//64
f 149//64 150//64 151//64
f 151//64 150//64 152//64
f 151//64 152//64 153//64
f 153//64 152//64 154//64
f 153//64 154//64 155//64
f 155//64 154//64 156//64
f 155//64 156//64 157//64
f 157//64 156//64 158//64
f 157//64 158//64 159//64
f 159//64 158//64 160//64
f 160//64 158//64 161//64
f 160//64 161//64 162//64
f 162//64 161//64 163//64
f 162//64 163//64 164//64
f 164//64 163//64 165//64
f 164//64 165//64 166//64
f 166//64 165//64 167//64
f 166//64 167//64 168//64
f 168//64 167//64 169//64
f 168//64 169//64 170//64
f 170//64 169//64 171//64
f 170//64 171//64 172//64
f 172//64 171//64 173//64
f 172//64 173//64 174//64
f 174//64 173//64 175//64
f 175//64 173//64 176//64
f 175//64 176//64 147//64
f 147//64 176//64 148//64
f 177//1 178//1 179//1
f 179//1 178//1 180//1
f 179//1 180//1 181//1
f 182//1 183//1 177//1
f 177//1 183//1 184//1
f 177//1 184//1 185//1
f 186//1 187//1 182//1
f 182//1 187//1 188//1
f 182//1 188//1 189//1
f 179//1 190//1 186//1
f 186//1 190//1 191//1
f 186//1 191//1 192//1
f 185//1 193//1 177//1
f 177//1 193//1 194//1
f 177//1 194//1 178//1
f 178//1 194//1 195//1
f 178//1 195//1 196//1
f 196//1 195//1 197//1
f 196//1 197//1 198//1
f 198//1 197//1 199//1
f 198//1 199//1 200//1
f 200//1 199//1 201//1
f 201//1 199//1 202//1
f 201//1 202//1 203//1
f 203//1 202//1 204//1
f 203//1 204//1 187//1
f 187//1 204//1 188//1
f 189//1 205//1 182//1
f 182//1 205//1 206//1
f 182//1 206//1 183//1
f 181//1 207//1 179//1
f 179//1 207//1 190//1
f 192//1 208//1 186//1
f 186//1 208//1 187//1
f 209//65 210//65 211//65
f 211//65 210//65 212//65
f 211//65 212//65 213//65
f 213//65 212//65 214//65
f 213//65 214//65 215//65
f 215//65 214//65 216//65
f 215//65 216//65 217//65
f 217//65 216//65 218//65
f 218//65 216//65 219//65
f 218//65 219//65 220//65
f 220//65 219//65 221//65
f 220//65 221//65 222//65
f 222//65 221//65 223//65
f 222//65 223//65 224//65
f 224//65 223//65 225//65
f 224//65 225//65 226//65
f 226//65 225//65 227//65
f 226//65 227//65 228//65
f 228//65 227//65 229//65
f 229//65 227//65 230//65
f 229//65 230//65 209//65
f 209//65 230//65 210//65
f 231//38 198//38 232//38
f 232//39 198//39 200//39
f 232//40 200//40 201//40
f 198//41 231//41 196//41
f 196//42 231//42 233//42
f 196//43 233//43 178//43
f 178//44 233//44 234//44
f 178//45 234//45 180//45
f 180//46 234//46 235//46
f 180//47 235//47 181//47
f 181//48 235//48 236//48
f 181//49 236//49 207//49
f 207//50 236//50 237//50
f 207//51 237//51 190//51
f 190//52 237//52 191//52
f 191//53 237//53 238//53
f 191//54 238//54 192//54
f 192//55 238//55 239//55
f 192//56 239//56 208//56
f 208//57 239//57 240//57
f 208//58 240//58 187//58
f 187//59 240//59 241//59
f 187//60 241//60 203//60
f 203//61 241//61 242//61
f 203//62 242//62 201//62
f 201//63 242//63 232//63
f 243//65 244//65 245//65
f 245//65 244//65 246//65
f 245//65 246//65 247//65
f 247//65 246//65 248//65
f 247//65 248//65 249//65
f 249//65 248//65 250//65
f 249//65 250//65 251//65
f 251//65 250//65 252//65
f 252//65 250//65 253//65
f 252//65 253//65 254//65
f 254//65 253//65 255//65
f 254//65 255//65 256//65
f 256//65 255//65 257//65
f 256//65 257//65 258//65
f 258//65 257//65 259//65
f 258//65 259//65 260//65
f 260//65 259//65 261//65
f 260//65 261//65 262//65
f 262//65 261//65 263//65
f 263//65 261//65 264//65
f 263//65 264//65 243//65
f 243//65 264//65 244//65
f 265//66 266//66 267//66
f 267//67 266//67 268//67
f 267//67 268//67 269//67
f 269//68 268//68 270//68
f 269//68 270//68 271//68
f 271//69 270//69 272//69
f 271//69 272//69 273//69
f 273//70 272//70 274//70
f 274//70 272//70 275//70
f 274//71 275//71 276//71
f 276//71 275//71 277//71
f 276//72 277//72 278//72
f 278//72 277//72 279//72
f 278//73 279//73 280//73
f 280//73 279//73 281//73
f 280//74 281//74 282//74
f 282//74 281//74 283//74
f 282//75 283//75 284//75
f 284//75 283//75 285//75
f 284//76 285//76 286//76
f 286//76 285//76 287//76
f 286//77 287//77 288//77
f 288//77 287//77 289//77
f 288//78 289//78 290//78
f 290//78 289//78 291//78
f 290//79 291//79 292//79
f 292//79 291//79 293//79
f 292//80 293//80 294//80
f 294//80 293//80 295//80
f 294//81 295//81 296//81
f 266//66 265//66 296//66
f 296//81 265//81 294//81
f 297//64 298//64 299//64
f 299//64 298//64 300//64
f 299//64 300//64 301//64
f 301//64 300//64 302//64
f 301//64 302//64 303//64
f 303//64 302//64 304//64
f 305//64 306//64 297//64
f 297//64 306//64 298//64
f 307//64 308//64 309//64
f 309//64 308//64 310//64
f 309//64 310//64 311//64
f 311//64 310//64 312//64
f 311//64 312//64 313//64
f 313//64 312//64 314//64
f 313//64 314//64 315//64
f 315//64 314//64 316//64
f 315//82 316//82 317//82
f 317//83 316//83 318//83
f 317//84 318//84 319//84
f 319//64 318//64 320//64
f 319//64 320//64 321//64
f 321//64 320//64 322//64
f 321//64 322//64 323//64
f 323//64 322//64 324//64
f 323//64 324//64 325//64
f 325//64 324//64 326//64
f 325//64 326//64 327//64
f 327//64 326//64 328//64
f 327//64 328//64 329//64
f 329//64 328//64 330//64
f 329//64 330//64 331//64
f 331//64 330//64 332//64
f 331//85 332//85 333//85
f 333//86 332//86 334//86
f 333//87 334//87 307//87
f 307//64 334//64 308//64
f 335//88 336//88 337//88
f 337//89 336//89 338//89
f 337//90 338//90 339//90
f 339//91 338//91 340//91
f 339//92 340//92 341//92
f 341//93 340//93 342//93
f 341//94 342//94 343//94
f 343//95 342//95 344//95
f 343//96 344//96 345//96
f 345//97 344//97 346//97
f 345//98 346//98 347//98
f 347//99 346//99 348//99
f 347//100 348//100 349//100
f 349//101 348//101 350//101
f 349//102 350//102 351//102
f 351//103 350//103 352//103
f 351//104 352//104 353//104
f 353//105 352//105 354//105
f 353//106 354//106 355//106
f 355//107 354//107 356//107
f 355//108 356//108 357//108
f 357//109 356//109 358//109
f 357//110 358//110 359//110
f 359//111 358//111 360//111
f 359//112 360//112 361//112
f 361//113 360//113 362//113
f 361//114 362//114 363//114
f 363//115 362//115 364//115
f 363//116 364//116 365//116
f 365//117 364//117 366//117
f 365//118 366//118 335//118
f 335//119 366//119 336//119
f 367//66 368//66 369//66
f 369//67 368//67 370//67
f 369//67 370//67 371//67
f 371//68 370//68 372//68
f 372//68 370//68 373//68
f 372//69 373//69 374//69
f 374//69 373//69 375//69
f 374//70 375//70 376//70
f 376//70 375//70 377//70
f 376//71 377//71 378//71
f 378//71 377//71 379//71
f 378//72 379//72 380//72
f 380//72 379//72 381//72
f 380//73 381//73 382//73
f 382//73 381//73 383//73
f 382//74 383//74 384//74
f 384//74 383//74 385//74
f 384//75 385//75 386//75
f 386//75 385//75 387//75
f 386//76 387//76 388//76
f 388//76 387//76 389//76
f 388//77 389//77 390//77
f 390//77 389//77 391//77
f 390//78 391//78 392//78
f 392//78 391//78 393//78
f 392//79 393//79 394//79
f 394//79 393//79 395//79
f 394//80 395//80 396//80
f 396//80 395//80 397//80
f 396//81 397//81 367//81
f 367//81 397//81 398//81
f 367//66 398//66 368//66
f 399//65 400//65 401//65
f 401//65 400//65 402//65
f 401//65 402//65 403//65
f 403//65 402//65 404//65
f 403//65 404//65 405//65
f 405//65 404//65 406//65
f 405//65 406//65 407//65
f 407//65 406//65 408//65
f 407//65 408//65 409//65
f 409//65 408//65 410//65
f 410//65 408//65 411//65
f 410//65 411//65 412//65
f 412//65 411//65 413//65
f 412//65 413//65 414//65
f 414//65 413//65 415//65
f 414//65 415//65 416//65
f 416//65 415//65 417//65
f 416//65 417//65 418//65
f 418//65 417//65 419//65
f 418//65 419//65 420//65
f 420//65 419//65 421//65
f 420//65 421//65 422//65
f 422//65 421//65 423//65
f 422//65 423//65 424//65
f 424//65 423//65 425//65
f 425//65 423//65 426//65
f 425//65 426//65 427//65
f 427//65 426//65 428//65
f 427//65 428//65 399//65
f 399//65 428//65 400//65
f 213//120 429//120 211//120
f 211//121 429//121 430//121
f 211//122 430//122 209//122
f 209//123 430//123 431//123
f 209//124 431//124 229//124
f 229//125 431//125 432//125
f 229//126 432//126 228//126
f 228//127 432//127 433//127
f 228//128 433//128 226//128
f 226//129 433//129 434//129
f 226//130 434//130 224//130
f 224//131 434//131 435//131
f 224//132 435//132 222//132
f 222//133 435//133 436//133
f 222//134 436//134 220//134
f 220//135 436//135 437//135
f 220//136 437//136 218//136
f 218//137 437//137 438//137
f 218//138 438//138 217//138
f 217//139 438//139 439//139
f 217//140 439//140 215//140
f 215//141 439//141 440//141
f 215//142 440//142 213//142
f 213//143 440//143 429//143
f 460//144 461//144 462//144
f 462//145 461//145 463//145
f 462//146 463//146 464//146
f 464//147 463//147 465//147
f 464//148 465//148 466//148
f 466//149 465//149 467//149
f 466//150 467//150 468//150
f 468//151 467//151 469//151
f 468//152 469//152 470//152
f 470//153 469//153 471//153
f 470//154 471//154 472//154
f 472//155 471//155 473//155
f 472//156 473//156 474//156
f 474//157 473//157 475//157
f 474//158 475//158 476//158
f 476//159 475//159 477//159
f 476//160 477//160 478//160
f 478//161 477//161 479//161
f 478//162 479//162 480//162
f 461//163 460//163 481//163
f 481//164 460//164 482//164
f 481//165 482//165 483//165
f 483//166 482//166 484//166
f 483//167 484//167 485//167
f 485//168 484//168 486//168
f 485//169 486//169 487//169
f 487//170 486//170 488//170
f 487//171 488//171 489//171
f 489//172 488//172 490//172
f 489//173 490//173 491//173
f 489//174 491//174 480//174
f 480//175 491//175 478//175
f 492//64 364//64 493//64
f 493//64 364//64 362//64
f 493//64 362//64 494//64
f 494//64 362//64 360//64
f 494//64 360//64 495//64
f 495//64 360//64 358//64
f 495//64 358//64 496//64
f 496//64 358//64 497//64
f 497//64 358//64 356//64
f 497//64 356//64 498//64
f 498//64 356//64 354//64
f 498//64 354//64 499//64
f 499//64 354//64 352//64
f 499//64 352//64 500//64
f 500//64 352//64 501//64
f 501//64 352//64 350//64
f 501//64 350//64 502//64
f 502//64 350//64 348//64
f 502//64 348//64 503//64
f 503//64 348//64 346//64
f 503//64 346//64 504//64
f 504//64 346//64 344//64
f 504//64 344//64 505//64
f 505//64 344//64 342//64
f 505//64 342//64 506//64
f 506//64 342//64 340//64
f 506//64 340//64 507//64
f 507//64 340//64 338//64
f 507//64 338//64 508//64
f 508//64 338//64 509//64
f 509//64 338//64 336//64
f 509//64 336//64 510//64
f 510//64 336//64 366//64
f 510//64 366//64 492//64
f 492//64 366//64 364//64
f 511//12 231//12 512//12
f 512//13 231//13 232//13
f 512//14 232//14 513//14
f 513//15 232//15 242//15
f 513//16 242//16 514//16
f 514//17 242//17 241//17
f 514//18 241//18 515//18
f 515//19 241//19 240//19
f 515//20 240//20 516//20
f 516//21 240//21 239//21
f 516//22 239//22 517//22
f 517//23 239//23 238//23
f 517//24 238//24 518//24
f 518//25 238//25 237//25
f 518//26 237//26 519//26
f 519//27 237//27 236//27
f 519//37 236//37 520//37
f 520//29 236//29 235//29
f 520//30 235//30 521//30
f 521//31 235//31 234//31
f 521//32 234//32 522//32
f 522//33 234//33 233//33
f 522//176 233//176 511//176
f 511//35 233//35 231//35
f 513//1 523//1 512//1
f 512//1 523//1 524//1
f 512//1 524//1 511//1
f 511//1 524//1 525//1
f 511//1 525//1 522//1
f 522//1 525//1 526//1
f 522//1 526//1 521//1
f 521//1 526//1 520//1
f 520//1 526//1 527//1
f 520//1 527//1 519//1
f 519//1 527//1 528//1
f 519//1 528//1 518//1
f 518//1 528//1 529//1
f 518//1 529//1 517//1
f 517//1 529//1 530//1
f 517//1 530//1 516//1
f 516//1 530//1 531//1
f 516//1 531//1 515//1
f 515//1 531//1 514//1
f 514//1 531//1 532//1
f 514//1 532//1 513//1
f 513//1 532//1 523//1
f 552//177 253//177 553//177
f 553//177 253//177 250//177
f 553//178 250//178 554//178
f 554//178 250//178 248//178
f 554//179 248//179 555//179
f 555//179 248//179 246//179
f 555//5 246//5 556//5
f 556//5 246//5 244//5
f 556//180 244//180 557//180
f 557//180 244//180 264//180
f 557//181 264//181 558//181
f 558//181 264//181 261//181
f 558//182 261//182 559//182
f 559//182 261//182 259//182
f 559//183 259//183 560//183
f 560//183 259//183 257//183
f 560//10 257//10 561//10
f 561//10 257//10 255//10
f 561//184 255//184 552//184
f 552//184 255//184 253//184
f 562//177 219//177 563//177
f 563//177 219//177 216//177
f 563//178 216//178 564//178
f 564//178 216//178 214//178
f 564//179 214//179 565//179
f 565//179 214//179 212//179
f 565//5 212//5 566//5
f 566//5 212//5 210//5
f 566//180 210//180 567//180
f 567//180 210//180 230//180
f 567//181 230//181 568//181
f 568//181 230//181 227//181
f 568//182 227//182 569//182
f 569//182 227//182 225//182
f 569//183 225//183 570//183
f 570//183 225//183 223//183
f 570//10 223//10 571//10
f 571//10 223//10 221//10
f 571//184 221//184 562//184
f 562//184 221//184 219//184
f 551//64 485//64 533//64
f 533//64 485//64 487//64
f 533//64 487//64 489//64
f 485//64 551//64 483//64
f 483//64 551//64 550//64
f 483//64 550//64 549//64
f 549//64 548//64 483//64
f 483//64 548//64 481//64
f 481//64 548//64 547//64
f 481//64 547//64 546//64
f 545//64 463//64 546//64
f 546//64 463//64 461//64
f 546//64 461//64 481//64
f 463//64 545//64 465//64
f 465//64 545//64 544//64
f 465//64 544//64 467//64
f 467//64 544//64 543//64
f 467//64 543//64 469//64
f 469//64 543//64 542//64
f 469//64 542//64 471//64
f 471//64 542//64 541//64
f 471//64 541//64 473//64
f 473//64 541//64 540//64
f 473//64 540//64 539//64
f 539//64 538//64 473//64
f 473//64 538//64 475//64
f 475//64 538//64 537//64
f 475//64 537//64 477//64
f 477//64 537//64 536//64
f 477//64 536//64 479//64
f 479//64 536//64 535//64
f 479//64 535//64 480//64
f 480//64 535//64 534//64
f 480//64 534//64 489//64
f 489//64 534//64 533//64
f 572//65 573//65 574//65
f 574//65 573//65 575//65
f 574//65 575//65 576//65
f 576//65 575//65 577//65
f 577//65 575//65 578//65
f 577//65 578//65 579//65
f 579//65 578//65 580//65
f 579//65 580//65 581//65
f 581//65 580//65 582//65
f 581//65 582//65 583//65
f 583//65 582//65 584//65
f 583//65 584//65 585//65
f 585//65 584//65 586//65
f 585//65 586//65 587//65
f 587//65 586//65 588//65
f 587//65 588//65 589//65
f 589//65 588//65 590//65
f 589//65 590//65 591//65
f 591//65 590//65 592//65
f 592//65 590//65 593//65
f 592//65 593//65 594//65
f 594//65 593//65 595//65
f 594//65 595//65 596//65
f 596//65 595//65 597//65
f 596//65 597//65 598//65
f 598//65 597//65 599//65
f 598//65 599//65 600//65
f 600//65 599//65 601//65
f 600//65 601//65 572//65
f 572//65 601//65 573//65
f 602//64 603//64 604//64
f 604//64 603//64 605//64
f 604//64 605//64 606//64
f 606//64 605//64 607//64
f 606//64 607//64 608//64
f 608//64 607//64 609//64
f 608//64 609//64 610//64
f 610//64 609//64 611//64
f 611//64 609//64 612//64
f 611//64 612//64 613//64
f 613//64 612//64 614//64
f 613//64 614//64 615//64
f 615//64 614//64 616//64
f 615//64 616//64 617//64
f 617//64 616//64 618//64
f 617//64 618//64 619//64
f 619//64 618//64 620//64
f 619//64 620//64 621//64
f 621//64 620//64 622//64
f 622//64 620//64 623//64
f 622//64 623//64 602//64
f 602//64 623//64 603//64
f 301//182 612//182 299//182
f 299//182 612//182 609//182
f 299//181 609//181 297//181
f 297//181 609//181 607//181
f 297//180 607//180 305//180
f 305//180 607//180 605//180
f 305//5 605//5 306//5
f 306//5 605//5 603//5
f 306//179 603//179 298//179
f 298//179 603//179 623//179
f 298//178 623//178 300//178
f 300//178 623//178 620//178
f 300//177 620//177 302//177
f 302//177 620//177 618//177
f 302//184 618//184 304//184
f 304//184 618//184 616//184
f 304//10 616//10 303//10
f 303//10 616//10 614//10
f 303//183 614//183 301//183
f 301//183 614//183 612//183
f 624//65 376//65 625//65
f 625//65 376//65 378//65
f 625//65 378//65 626//65
f 626//65 378//65 627//65
f 627//65 378//65 380//65
f 627//65 380//65 628//65
f 628//65 380//65 382//65
f 628//65 382//65 629//65
f 629//65 382//65 384//65
f 629//65 384//65 630//65
f 630//65 384//65 386//65
f 630//65 386//65 631//65
f 631//65 386//65 388//65
f 631//65 388//65 632//65
f 632//65 388//65 390//65
f 632//65 390//65 633//65
f 633//65 390//65 392//65
f 633//65 392//65 634//65
f 634//65 392//65 635//65
f 635//65 392//65 394//65
f 635//65 394//65 636//65
f 636//65 394//65 396//65
f 636//65 396//65 637//65
f 637//65 396//65 367//65
f 637//65 367//65 638//65
f 638//65 367//65 369//65
f 638//65 369//65 639//65
f 639//65 369//65 371//65
f 639//65 371//65 640//65
f 640//65 371//65 641//65
f 641//65 371//65 372//65
f 641//65 372//65 642//65
f 642//65 372//65 374//65
f 642//65 374//65 624//65
f 624//65 374//65 376//65
f 643//182 644//182 645//182
f 645//182 644//182 646//182
f 645//181 646//181 647//181
f 647//181 646//181 648//181
f 647//180 648//180 649//180
f 649//180 648//180 650//180
f 649//5 650//5 651//5
f 651//5 650//5 652//5
f 651//179 652//179 653//179
f 653//179 652//179 654//179
f 653//178 654//178 655//178
f 655//178 654//178 656//178
f 655//177 656//177 657//177
f 657//177 656//177 658//177
f 657//184 658//184 659//184
f 659//184 658//184 660//184
f 659//10 660//10 661//10
f 661//10 660//10 662//10
f 661//183 662//183 643//183
f 643//183 662//183 644//183
f 554//65 557//65 553//65
f 553//65 557//65 558//65
f 553//65 558//65 552//65
f 552//65 558//65 559//65
f 552//65 559//65 561//65
f 561//65 559//65 560//65
f 555//65 556//65 554//65
f 554//65 556//65 557//65
f 673//185 674//185 675//185
f 675//185 674//185 676//185
f 675//186 676//186 677//186
f 677//186 676//186 678//186
f 677//187 678//187 679//187
f 679//187 678//187 680//187
f 679//188 680//188 681//188
f 681//188 680//188 682//188
f 681//189 682//189 683//189
f 683//189 682//189 684//189
f 683//190 684//190 685//190
f 685//190 684//190 686//190
f 685//191 686//191 687//191
f 687//191 686//191 688//191
f 687//192 688//192 689//192
f 689//192 688//192 690//192
f 689//193 690//193 691//193
f 691//193 690//193 692//193
f 691//194 692//194 693//194
f 693//194 692//194 694//194
f 693//195 694//195 695//195
f 695//195 694//195 696//195
f 695//196 696//196 673//196
f 673//196 696//196 674//196
f 77//197 697//197 78//197
f 78//39 697//39 698//39
f 78//40 698//40 699//40
f 697//41 77//41 700//41
f 700//42 77//42 88//42
f 700//43 88//43 701//43
f 701//44 88//44 87//44
f 701//45 87//45 702//45
f 702//46 87//46 86//46
f 702//47 86//47 703//47
f 703//48 86//48 85//48
f 703//49 85//49 704//49
f 704//198 85//198 84//198
f 704//51 84//51 705//51
f 705//52 84//52 706//52
f 706//199 84//199 83//199
f 706//54 83//54 707//54
f 707//55 83//55 82//55
f 707//56 82//56 708//56
f 708//57 82//57 81//57
f 708//58 81//58 709//58
f 709//59 81//59 80//59
f 709//60 80//60 710//60
f 710//61 80//61 79//61
f 710//62 79//62 699//62
f 699//200 79//200 78//200
f 677//64 652//64 675//64
f 675//64 652//64 650//64
f 675//64 650//64 673//64
f 673//64 650//64 648//64
f 673//64 648//64 695//64
f 695//64 648//64 646//64
f 695//64 646//64 693//64
f 693//64 646//64 691//64
f 691//64 646//64 644//64
f 691//64 644//64 689//64
f 689//64 644//64 662//64
f 689//64 662//64 687//64
f 687//64 662//64 660//64
f 687//64 660//64 685//64
f 685//64 660//64 658//64
f 685//64 658//64 711//64
f 711//64 658//64 656//64
f 711//64 656//64 681//64
f 681//64 656//64 679//64
f 679//64 656//64 654//64
f 679//64 654//64 677//64
f 677//64 654//64 652//64
f 647//64 653//64 645//64
f 645//64 653//64 655//64
f 645//64 655//64 643//64
f 643//64 655//64 657//64
f 643//64 657//64 661//64
f 661//64 657//64 659//64
f 649//64 651//64 647//64
f 647//64 651//64 653//64
f 247//120 712//120 245//120
f 245//121 712//121 713//121
f 245//122 713//122 243//122
f 243//123 713//123 714//123
f 243//124 714//124 263//124
f 263//125 714//125 715//125
f 263//126 715//126 262//126
f 262//127 715//127 716//127
f 262//128 716//128 260//128
f 260//129 716//129 717//129
f 260//130 717//130 258//130
f 258//131 717//131 718//131
f 258//132 718//132 256//132
f 256//133 718//133 719//133
f 256//134 719//134 254//134
f 254//135 719//135 720//135
f 254//136 720//136 721//136
f 721//137 720//137 722//137
f 721//138 722//138 251//138
f 251//139 722//139 723//139
f 251//140 723//140 724//140
f 724//141 723//141 725//141
f 724//142 725//142 247//142
f 247//143 725//143 712//143
f 33//38 184//38 34//38
f 34//39 184//39 183//39
f 34//40 183//40 206//40
f 184//41 33//41 185//41
f 185//42 33//42 44//42
f 185//43 44//43 193//43
f 193//44 44//44 43//44
f 193//45 43//45 194//45
f 194//46 43//46 42//46
f 194//47 42//47 195//47
f 195//48 42//48 41//48
f 195//49 41//49 197//49
f 197//198 41//198 40//198
f 197//51 40//51 199//51
f 199//52 40//52 202//52
f 202//199 40//199 39//199
f 202//54 39//54 204//54
f 204//55 39//55 38//55
f 204//56 38//56 188//56
f 188//57 38//57 37//57
f 188//58 37//58 189//58
f 189//59 37//59 36//59
f 189//60 36//60 205//60
f 205//61 36//61 35//61
f 205//62 35//62 206//62
f 206//63 35//63 34//63
f 667//2 527//2 665//2
f 665//2 527//2 526//2
f 665//3 526//3 663//3
f 663//3 526//3 525//3
f 663//4 525//4 671//4
f 671//4 525//4 524//4
f 671//5 524//5 672//5
f 672//5 524//5 523//5
f 672//6 523//6 664//6
f 664//6 523//6 532//6
f 664//7 532//7 666//7
f 666//7 532//7 531//7
f 666//8 531//8 668//8
f 668//8 531//8 530//8
f 668//9 530//9 670//9
f 670//9 530//9 529//9
f 670//10 529//10 669//10
f 669//10 529//10 528//10
f 669//11 528//11 667//11
f 667//11 528//11 527//11
f 443//65 265//65 442//65
f 442//65 265//65 267//65
f 442//65 267//65 441//65
f 441//65 267//65 269//65
f 441//65 269//65 445//65
f 445//65 269//65 271//65
f 445//65 271//65 446//65
f 446//65 271//65 273//65
f 446//65 273//65 447//65
f 447//65 273//65 274//65
f 447//65 274//65 448//65
f 448//65 274//65 449//65
f 449//65 274//65 450//65
f 450//65 274//65 276//65
f 450//65 276//65 451//65
f 451//65 276//65 278//65
f 451//65 278//65 452//65
f 452//65 278//65 280//65
f 452//65 280//65 453//65
f 453//65 280//65 282//65
f 453//65 282//65 454//65
f 454//65 282//65 284//65
f 454//65 284//65 455//65
f 455//65 284//65 286//65
f 455//65 286//65 288//65
f 444//65 292//65 443//65
f 443//65 292//65 294//65
f 443//65 294//65 265//65
f 444//65 459//65 292//65
f 292//65 459//65 290//65
f 290//65 459//65 458//65
f 290//65 458//65 457//65
f 457//65 456//65 290//65
f 290//65 456//65 288//65
f 288//65 456//65 455//65
f 606//185 726//185 604//185
f 604//185 726//185 727//185
f 604//186 727//186 602//186
f 602//186 727//186 728//186
f 602//187 728//187 622//187
f 622//187 728//187 729//187
f 622//188 729//188 621//188
f 621//188 729//188 730//188
f 621//189 730//189 619//189
f 619//189 730//189 731//189
f 619//190 731//190 617//190
f 617//190 731//190 732//190
f 617//191 732//191 615//191
f 615//191 732//191 733//191
f 615//192 733//192 613//192
f 613//192 733//192 734//192
f 613//193 734//193 611//193
f 611//193 734//193 735//193
f 611//194 735//194 610//194
f 610//194 735//194 736//194
f 610//195 736//195 608//195
f 608//195 736//195 737//195
f 608//196 737//196 606//196
f 606//196 737//196 726//196
f 674//201 330//201 676//201
f 676//202 330//202 328//202
f 676//203 328//203 678//203
f 678//204 328//204 326//204
f 678//205 326//205 738//205
f 738//206 326//206 324//206
f 738//207 324//207 682//207
f 682//208 324//208 322//208
f 682//209 322//209 684//209
f 684//210 322//210 320//210
f 684//211 320//211 686//211
f 686//212 320//212 318//212
f 686//213 318//213 316//213
f 696//214 334//214 674//214
f 674//215 334//215 332//215
f 674//216 332//216 330//216
f 334//217 696//217 308//217
f 308//218 696//218 694//218
f 308//219 694//219 310//219
f 310//220 694//220 692//220
f 310//221 692//221 312//221
f 312//222 692//222 690//222
f 312//223 690//223 688//223
f 686//224 316//224 688//224
f 688//225 316//225 314//225
f 688//226 314//226 312//226
f 311//227 464//227 309//227
f 309//228 464//228 466//228
f 309//229 466//229 307//229
f 307//230 466//230 468//230
f 307//231 468//231 333//231
f 333//232 468//232 470//232
f 333//233 470//233 472//233
f 333//234 472//234 331//234
f 331//235 472//235 474//235
f 331//236 474//236 329//236
f 329//237 474//237 476//237
f 329//238 476//238 327//238
f 327//239 476//239 478//239
f 327//240 478//240 325//240
f 325//241 478//241 491//241
f 325//242 491//242 323//242
f 323//243 491//243 490//243
f 323//244 490//244 321//244
f 321//245 490//245 488//245
f 321//246 488//246 319//246
f 319//247 488//247 486//247
f 319//248 486//248 317//248
f 317//249 486//249 484//249
f 317//250 484//250 482//250
f 317//251 482//251 315//251
f 315//252 482//252 460//252
f 315//253 460//253 313//253
f 313//254 460//254 462//254
f 313//255 462//255 311//255
f 311//256 462//256 464//256
f 580//257 430//257 582//257
f 582//258 430//258 429//258
f 582//259 429//259 584//259
f 584//260 429//260 440//260
f 584//261 440//261 586//261
f 586//262 440//262 439//262
f 586//263 439//263 588//263
f 588//264 439//264 590//264
f 590//265 439//265 438//265
f 590//266 438//266 593//266
f 593//267 438//267 437//267
f 593//268 437//268 595//268
f 595//269 437//269 436//269
f 595//270 436//270 597//270
f 597//271 436//271 435//271
f 597//272 435//272 599//272
f 599//273 435//273 434//273
f 599//274 434//274 601//274
f 601//275 434//275 433//275
f 601//276 433//276 573//276
f 573//277 433//277 575//277
f 575//278 433//278 432//278
f 575//279 432//279 578//279
f 578//280 432//280 431//280
f 578//281 431//281 580//281
f 580//282 431//282 430//282
f 741//1 708//1 739//1
f 739//1 708//1 709//1
f 739//1 709//1 710//1
f 742//1 141//1 741//1
f 741//1 141//1 142//1
f 741//1 142//1 143//1
f 740//1 137//1 742//1
f 742//1 137//1 138//1
f 742//1 138//1 139//1
f 739//1 698//1 740//1
f 740//1 698//1 697//1
f 740//1 697//1 700//1
f 700//1 701//1 740//1
f 740//1 701//1 702//1
f 740//1 702//1 137//1
f 137//1 702//1 703//1
f 137//1 703//1 136//1
f 136//1 703//1 704//1
f 136//1 704//1 133//1
f 133//1 704//1 705//1
f 133//1 705//1 134//1
f 134//1 705//1 135//1
f 135//1 705//1 706//1
f 135//1 706//1 146//1
f 146//1 706//1 707//1
f 146//1 707//1 145//1
f 145//1 707//1 708//1
f 145//1 708//1 741//1
f 710//1 699//1 739//1
f 739//1 699//1 698//1
f 139//1 140//1 742//1
f 742//1 140//1 141//1
f 143//1 144//1 741//1
f 741//1 144//1 145//1
f 151//283 355//283 149//283
f 149//284 355//284 357//284
f 149//285 357//285 147//285
f 147//286 357//286 359//286
f 147//287 359//287 175//287
f 175//288 359//288 361//288
f 175//289 361//289 174//289
f 174//290 361//290 363//290
f 174//291 363//291 172//291
f 172//292 363//292 365//292
f 172//293 365//293 170//293
f 170//294 365//294 335//294
f 170//295 335//295 168//295
f 168//296 335//296 337//296
f 168//297 337//297 166//297
f 166//298 337//298 339//298
f 166//299 339//299 164//299
f 164//300 339//300 341//300
f 164//301 341//301 162//301
f 162//302 341//302 343//302
f 162//303 343//303 160//303
f 160//304 343//304 345//304
f 160//305 345//305 159//305
f 159//306 345//306 347//306
f 159//307 347//307 157//307
f 157//308 347//308 349//308
f 157//309 349//309 155//309
f 155//310 349//310 351//310
f 155//311 351//311 153//311
f 153//312 351//312 353//312
f 153//313 353//313 151//313
f 151//314 353//314 355//314
f 576//315 266//315 574//315
f 574//316 266//316 296//316
f 574//317 296//317 572//317
f 572//318 296//318 295//318
f 572//319 295//319 600//319
f 600//320 295//320 293//320
f 600//321 293//321 598//321
f 598//322 293//322 291//322
f 598//323 291//323 596//323
f 596//324 291//324 289//324
f 596//325 289//325 594//325
f 594//326 289//326 287//326
f 594//327 287//327 592//327
f 592//328 287//328 285//328
f 592//329 285//329 591//329
f 591//330 285//330 283//330
f 591//331 283//331 589//331
f 589//332 283//332 281//332
f 589//333 281//333 587//333
f 587//334 281//334 279//334
f 587//335 279//335 585//335
f 585//336 279//336 277//336
f 585//337 277//337 583//337
f 583//338 277//338 275//338
f 583//339 275//339 581//339
f 581//340 275//340 272//340
f 581//341 272//341 579//341
f 579//342 272//342 270//342
f 579//343 270//343 577//343
f 577//344 270//344 268//344
f 577//345 268//345 576//345
f 576//346 268//346 266//346
f 403//347 387//347 401//347
f 401//348 387//348 385//348
f 401//349 385//349 399//349
f 399//350 385//350 383//350
f 399//351 383//351 427//351
f 427//352 383//352 381//352
f 427//353 381//353 425//353
f 425//354 381//354 379//354
f 425//355 379//355 424//355
f 424//356 379//356 377//356
f 424//357 377//357 422//357
f 422//358 377//358 375//358
f 422//359 375//359 420//359
f 420//360 375//360 373//360
f 420//361 373//361 418//361
f 418//362 373//362 370//362
f 418//363 370//363 416//363
f 416//364 370//364 368//364
f 416//365 368//365 414//365
f 414//366 368//366 398//366
f 414//367 398//367 412//367
f 412//368 398//368 397//368
f 412//369 397//369 410//369
f 410//370 397//370 395//370
f 410//371 395//371 409//371
f 409//372 395//372 393//372
f 409//373 393//373 407//373
f 407//374 393//374 391//374
f 407//375 391//375 405//375
f 405//376 391//376 389//376
f 405//377 389//377 403//377
f 403//378 389//378 387//378
f 564//65 567//65 563//65
f 563//65 567//65 568//65
f 563//65 568//65 562//65
f 562//65 568//65 569//65
f 562//65 569//65 571//65
f 571//65 569//65 570//65
f 565//65 566//65 564//65
f 564//65 566//65 567//65
f 421//257 713//257 423//257
f 423//258 713//258 712//258
f 423//259 712//259 426//259
f 426//260 712//260 725//260
f 426//261 725//261 428//261
f 428//262 725//262 723//262
f 428//263 723//263 400//263
f 400//264 723//264 402//264
f 402//265 723//265 722//265
f 402//266 722//266 404//266
f 404//267 722//267 720//267
f 404//268 720//268 406//268
f 406//269 720//269 719//269
f 406//270 719//270 408//270
f 408//271 719//271 718//271
f 408//272 718//272 411//272
f 411//273 718//273 717//273
f 411//274 717//274 413//274
f 413//275 717//275 716//275
f 413//276 716//276 415//276
f 415//277 716//277 417//277
f 417//278 716//278 715//278
f 417//279 715//279 419//279
f 419//280 715//280 714//280
f 419//281 714//281 421//281
f 421//282 714//282 713//282
f 726//379 169//379 727//379
f 727//380 169//380 167//380
f 727//381 167//381 728//381
f 728//382 167//382 165//382
f 728//383 165//383 163//383
f 169//384 726//384 171//384
f 171//385 726//385 737//385
f 171//386 737//386 173//386
f 173//387 737//387 736//387
f 173//388 736//388 176//388
f 176//389 736//389 735//389
f 176//390 735//390 148//390
f 148//391 735//391 734//391
f 148//392 734//392 150//392
f 150//393 734//393 733//393
f 150//394 733//394 152//394
f 152//395 733//395 154//395
f 154//396 733//396 732//396
f 154//397 732//397 156//397
f 156//398 732//398 731//398
f 156//399 731//399 158//399
f 158//400 731//400 730//400
f 158//401 730//401 161//401
f 161//402 730//402 729//402
f 161//403 729//403 163//403
f 163//404 729//404 728//404
f 816//405 820//405 848//405
f 848//406 820//406 833//406
f 833//407 820//407 822//407
f 833//408 822//408 823//408
f 784//409 783//409 834//409
f 834//410 783//410 835//410
f 835//411 783//411 831//411
f 835//412 831//412 786//412
f 835//413 786//413 836//413
f 836//414 786//414 785//414
f 753//415 755//415 837//415
f 755//416 757//416 837//416
f 837//417 757//417 759//417
f 837//418 759//418 838//418
f 838//419 759//419 760//419
f 838//420 760//420 839//420
f 839//421 760//421 761//421
f 839//422 761//422 840//422
f 840//423 761//423 758//423
f 840//424 758//424 841//424
f 841//425 758//425 756//425
f 841//426 756//426 754//426
f 841//427 754//427 751//427
f 762//428 829//428 842//428
f 829//429 765//429 842//429
f 842//430 765//430 843//430
f 843//431 765//431 764//431
f 843//432 764//432 828//432
f 824//433 821//433 844//433
f 844//434 821//434 845//434
f 845//435 821//435 818//435
f 845//436 818//436 817//436
f 845//437 817//437 846//437
f 846//438 817//438 819//438
f 846//439 819//439 847//439
f 847//440 819//440 816//440
f 847//441 816//441 848//441
f 837//442 838//442 844//442
f 844//443 838//443 839//443
f 844//444 839//444 843//444
f 843//445 839//445 840//445
f 843//446 840//446 841//446
f 843//447 841//447 842//447
f 842//448 841//448 762//448
f 762//449 841//449 751//449
f 762//450 751//450 763//450
f 844//451 843//451 824//451
f 824//452 843//452 828//452
f 824//453 828//453 825//453
f 825//454 828//454 827//454
f 825//455 827//455 826//455
f 844//456 845//456 837//456
f 845//457 846//457 837//457
f 837//458 846//458 847//458
f 837//459 847//459 836//459
f 836//460 847//460 835//460
f 835//461 847//461 848//461
f 835//462 848//462 833//462
f 835//463 833//463 834//463
f 834//464 833//464 784//464
f 784//465 833//465 823//465
f 784//466 823//466 832//466
f 837//467 836//467 753//467
f 753//468 836//468 785//468
f 753//469 785//469 752//469
f 752//470 785//470 830//470
f 752//471 830//471 750//471
f 811//472 780//472 849//472
f 766//473 812//473 849//473
f 849//474 812//474 811//474
f 767//475 766//475 850//475
f 850//476 780//476 768//476
f 850//477 768//477 767//477
f 849//478 780//478 850//478
f 849//479 850//479 766//479
f 771//480 770//480 851//480
f 769//481 851//481 770//481
f 852//482 769//482 809//482
f 852//483 809//483 791//483
f 852//484 791//484 853//484
f 853//485 791//485 792//485
f 805//486 802//486 854//486
f 855//487 802//487 800//487
f 855//488 800//488 798//488
f 805//489 854//489 807//489
f 807//490 854//490 856//490
f 807//491 856//491 808//491
f 808//492 856//492 857//492
f 808//493 857//493 806//493
f 806//494 857//494 804//494
f 804//495 857//495 858//495
f 804//496 858//496 803//496
f 803//497 858//497 859//497
f 803//498 859//498 801//498
f 801//499 859//499 799//499
f 749//500 779//500 793//500
f 793//501 779//501 778//501
f 793//502 778//502 798//502
f 798//503 778//503 855//503
f 855//504 778//504 777//504
f 855//505 777//505 802//505
f 802//506 777//506 796//506
f 802//507 796//507 854//507
f 854//508 796//508 782//508
f 854//509 782//509 856//509
f 856//510 782//510 781//510
f 856//511 781//511 771//511
f 856//512 771//512 857//512
f 857//513 771//513 851//513
f 857//514 851//514 858//514
f 858//515 851//515 859//515
f 859//516 851//516 769//516
f 859//517 769//517 852//517
f 859//518 852//518 799//518
f 799//519 852//519 797//519
f 797//520 852//520 860//520
f 797//521 860//521 792//521
f 792//522 860//522 853//522
f 771//523 781//523 810//523
f 810//524 781//524 815//524
f 810//525 815//525 813//525
f 813//526 815//526 814//526
f 743//527 744//527 861//527
f 861//528 744//528 745//528
f 795//529 862//529 745//529
f 745//530 862//530 861//530
f 862//531 795//531 794//531
f 863//532 746//532 747//532
f 863//533 747//533 748//533
f 748//534 790//534 863//534
f 863//535 790//535 864//535
f 864//407 790//407 774//407
f 864//536 774//536 773//536
f 789//537 865//537 773//537
f 789//538 788//538 865//538
f 866//539 772//539 776//539
f 866//540 776//540 775//540
f 787//541 867//541 775//541
f 775//542 867//542 866//542
f 787//543 743//543 867//543
f 788//544 772//544 867//544
f 867//545 772//545 866//545
f 743//546 861//546 867//546
f 867//547 861//547 862//547
f 867//548 862//548 788//548
f 788//549 862//549 865//549
f 865//550 862//550 794//550
f 865//551 794//551 863//551
f 865//552 863//552 773//552
f 773//553 863//553 864//553
f 794//554 746//554 863//554
