# Blender 4.0.2
# www.blender.org
o SICK-MICROSCAN3__m8
v 0.042287 0.010930 0.031075
v 0.042287 0.003568 0.031075
v 0.042466 0.015238 0.030849
v 0.047049 0.015238 0.025087
v 0.036307 0.009446 0.038592
v 0.035942 0.008860 0.039051
v 0.037313 0.007830 0.037327
v 0.036949 0.007243 0.037786
v 0.037678 0.007243 0.036868
v 0.037313 0.006657 0.037327
v 0.038685 0.005627 0.035603
v 0.038320 0.005040 0.036062
v 0.035942 0.005627 0.039051
v 0.036307 0.005040 0.038592
v 0.038685 0.008860 0.035603
v 0.038320 0.009446 0.036062
v 0.042111 0.003557 0.031296
v 0.042111 0.010930 0.031296
v 0.042137 0.011143 0.031263
v 0.042298 0.011053 0.031060
v 0.042216 0.011326 0.031164
v 0.042332 0.011141 0.031018
v 0.042329 0.011448 0.031021
v 0.042388 0.011194 0.030948
v 0.042466 0.011489 0.030849
v 0.042466 0.011212 0.030849
v 0.047049 0.011212 0.025087
v 0.042133 0.003312 0.031268
v 0.042298 0.003442 0.031060
v 0.042200 0.003137 0.031184
v 0.042332 0.003352 0.031018
v 0.042311 0.003032 0.031044
v 0.042388 0.003298 0.030948
v 0.042466 0.002998 0.030849
v 0.042466 0.003280 0.030849
v 0.047049 0.002998 0.025087
v 0.047049 0.003280 0.025087
v 0.047126 0.003298 0.024991
v 0.047183 0.003038 0.024919
v 0.047181 0.003349 0.024922
v 0.047296 0.003161 0.024777
v 0.047214 0.003436 0.024881
v 0.047374 0.003346 0.024679
v 0.047225 0.003557 0.024867
v 0.047401 0.003568 0.024646
v 0.047225 0.010930 0.024867
v 0.047401 0.010930 0.024646
v 0.047374 0.011143 0.024679
v 0.047214 0.011053 0.024881
v 0.047296 0.011326 0.024777
v 0.047181 0.011141 0.024922
v 0.047183 0.011448 0.024919
v 0.047126 0.011194 0.024991
v 0.047049 0.011489 0.025087
v 0.039782 0.015526 0.034223
v 0.039782 0.022887 0.034223
v 0.043748 0.007768 0.029237
v 0.044485 0.006574 0.028312
v 0.043381 0.007184 0.029698
v 0.044485 0.005395 0.028312
v 0.045939 0.008932 0.026483
v 0.046306 0.008349 0.026022
v 0.047225 0.015515 0.024867
v 0.047225 0.022887 0.024867
v 0.034773 0.003161 0.040520
v 0.035020 0.002998 0.040210
v 0.034886 0.003038 0.040379
v 0.047296 0.023284 0.024777
v 0.047049 0.023447 0.025087
v 0.047183 0.023406 0.024919
v 0.043582 0.021567 0.029446
v 0.043582 0.016852 0.029446
v 0.046126 0.019209 0.026248
v 0.035020 0.023447 0.040210
v 0.034773 0.023284 0.040520
v 0.034886 0.023406 0.040379
v 0.035020 0.011212 0.040210
v 0.039603 0.011212 0.034449
v 0.034669 0.015526 0.040652
v 0.034669 0.022887 0.040652
v 0.038487 0.021567 0.035852
v 0.038487 0.016852 0.035852
v 0.034845 0.010930 0.040431
v 0.034856 0.011053 0.040417
v 0.034888 0.011141 0.040376
v 0.034943 0.011194 0.040307
v 0.039603 0.023170 0.034449
v 0.039681 0.023152 0.034350
v 0.039737 0.023099 0.034279
v 0.039771 0.023011 0.034237
v 0.042287 0.022887 0.031075
v 0.042287 0.015526 0.031075
v 0.039771 0.015400 0.034237
v 0.039737 0.015310 0.034280
v 0.039681 0.015256 0.034350
v 0.039603 0.015238 0.034449
v 0.035943 0.019209 0.039049
v 0.047214 0.015394 0.024881
v 0.047181 0.015307 0.024922
v 0.047126 0.015256 0.024991
v 0.035020 0.011489 0.040210
v 0.039603 0.011489 0.034449
v 0.039958 0.022887 0.034002
v 0.039958 0.015515 0.034002
v 0.035020 0.015238 0.040210
v 0.034943 0.015256 0.040307
v 0.034888 0.015307 0.040376
v 0.034856 0.015394 0.040417
v 0.034845 0.015515 0.040431
v 0.042388 0.023152 0.030948
v 0.042332 0.023099 0.031018
v 0.042466 0.023170 0.030849
v 0.042298 0.023011 0.031060
v 0.042466 0.023447 0.030849
v 0.042111 0.015515 0.031296
v 0.042111 0.022887 0.031296
v 0.039853 0.023284 0.034134
v 0.039603 0.023447 0.034449
v 0.039740 0.023406 0.034276
v 0.042216 0.023284 0.031164
v 0.042137 0.023101 0.031263
v 0.039681 0.011194 0.034350
v 0.039737 0.011141 0.034280
v 0.039771 0.011053 0.034237
v 0.039782 0.010930 0.034223
v 0.042298 0.015400 0.031060
v 0.042133 0.015270 0.031268
v 0.042332 0.015310 0.031018
v 0.042200 0.015095 0.031184
v 0.042311 0.014990 0.031044
v 0.042388 0.015256 0.030948
v 0.042466 0.014955 0.030849
v 0.047049 0.014955 0.025087
v 0.047183 0.014996 0.024919
v 0.047296 0.015119 0.024777
v 0.047374 0.015304 0.024679
v 0.047401 0.015526 0.024646
v 0.047401 0.022887 0.024646
v 0.047214 0.023011 0.024881
v 0.047374 0.023101 0.024679
v 0.047181 0.023099 0.024922
v 0.047126 0.023152 0.024991
v 0.047049 0.023170 0.025087
v 0.042329 0.023406 0.031021
v 0.034773 0.015119 0.040520
v 0.035020 0.014955 0.040210
v 0.034886 0.014996 0.040379
v 0.039853 0.011326 0.034134
v 0.039740 0.011448 0.034276
v 0.034695 0.023101 0.040619
v 0.034845 0.022887 0.040431
v 0.034943 0.023152 0.040307
v 0.034888 0.023099 0.040376
v 0.035020 0.023170 0.040210
v 0.034856 0.023011 0.040417
v 0.039932 0.023101 0.034035
v 0.034695 0.015304 0.040619
v 0.039603 0.014955 0.034449
v 0.039758 0.014990 0.034253
v 0.039869 0.015095 0.034114
v 0.039936 0.015270 0.034030
v 0.039603 0.002998 0.034449
v 0.034773 0.011326 0.040520
v 0.034886 0.011449 0.040379
v 0.039758 0.003032 0.034253
v 0.039869 0.003137 0.034114
v 0.039936 0.003312 0.034030
v 0.039958 0.003557 0.034002
v 0.035020 0.003280 0.040210
v 0.039603 0.003280 0.034449
v 0.034669 0.003568 0.040652
v 0.034695 0.003346 0.040619
v 0.034669 0.010930 0.040652
v 0.034695 0.011143 0.040619
v 0.034845 0.003557 0.040431
v 0.039782 0.003568 0.034223
v 0.034856 0.003436 0.040417
v 0.034888 0.003349 0.040376
v 0.034943 0.003298 0.040307
v 0.039681 0.003298 0.034350
v 0.039737 0.003352 0.034280
v 0.039771 0.003442 0.034237
v 0.039958 0.010930 0.034002
v 0.039932 0.011143 0.034035
vn 0.7826 -0.0000 0.6225
vn 0.7826 0.0001 0.6225
vn 0.7826 -0.0000 0.6226
vn 0.7826 -0.0001 0.6225
vn 0.7827 -0.0000 0.6224
s 0
f 5//1 6//1 7//1
f 7//1 6//1 8//1
f 7//1 8//1 9//1
f 9//1 8//1 10//1
f 9//1 10//1 11//1
f 11//1 10//1 12//1
f 8//1 13//1 10//1
f 10//1 13//1 14//1
f 9//1 15//1 7//1
f 7//1 15//1 16//1
f 17//1 2//1 18//1
f 18//1 2//1 1//1
f 18//1 1//1 19//1
f 19//1 1//1 20//1
f 19//1 20//1 21//1
f 21//1 20//1 22//1
f 21//1 22//1 23//1
f 23//1 22//1 24//1
f 23//1 24//1 25//1
f 25//1 24//1 26//1
f 25//1 26//1 27//1
f 17//1 28//1 2//1
f 2//2 28//2 29//2
f 29//3 28//3 30//3
f 29//1 30//1 31//1
f 31//1 30//1 32//1
f 31//1 32//1 33//1
f 33//1 32//1 34//1
f 33//1 34//1 35//1
f 35//1 34//1 36//1
f 35//1 36//1 37//1
f 37//1 36//1 38//1
f 38//1 36//1 39//1
f 38//1 39//1 40//1
f 40//1 39//1 41//1
f 40//1 41//1 42//1
f 42//2 41//2 43//2
f 42//4 43//4 44//4
f 44//1 43//1 45//1
f 44//1 45//1 46//1
f 46//1 45//1 47//1
f 46//1 47//1 48//1
f 46//1 48//1 49//1
f 49//1 48//1 50//1
f 49//1 50//1 51//1
f 51//1 50//1 52//1
f 51//1 52//1 53//1
f 53//1 52//1 54//1
f 53//1 54//1 27//1
f 27//1 54//1 25//1
f 59//1 60//1 57//1
f 57//1 60//1 58//1
f 58//1 60//1 61//1
f 61//1 60//1 62//1
f 71//1 72//1 73//1
f 97//1 82//1 81//1
f 115//1 92//1 116//1
f 116//1 92//1 91//1
f 116//2 91//2 113//2
f 92//1 115//1 126//1
f 126//1 115//1 127//1
f 126//4 127//4 128//4
f 128//1 127//1 129//1
f 128//1 129//1 130//1
f 128//1 130//1 131//1
f 131//1 130//1 132//1
f 131//3 132//3 3//3
f 3//1 132//1 133//1
f 3//1 133//1 4//1
f 4//1 133//1 100//1
f 100//1 133//1 134//1
f 100//1 134//1 99//1
f 99//1 134//1 135//1
f 99//3 135//3 98//3
f 98//2 135//2 136//2
f 98//4 136//4 63//4
f 63//1 136//1 137//1
f 63//1 137//1 64//1
f 64//1 137//1 138//1
f 64//1 138//1 139//1
f 139//1 138//1 140//1
f 139//1 140//1 68//1
f 139//3 68//3 141//3
f 141//1 68//1 70//1
f 141//1 70//1 142//1
f 142//1 70//1 69//1
f 142//1 69//1 143//1
f 143//1 69//1 114//1
f 143//1 114//1 112//1
f 112//3 114//3 110//3
f 110//1 114//1 144//1
f 110//5 144//5 111//5
f 111//1 144//1 120//1
f 111//1 120//1 113//1
f 113//1 120//1 121//1
f 113//1 121//1 116//1
f 79//1 151//1 80//1
f 80//4 151//4 155//4
f 80//1 155//1 150//1
f 150//1 155//1 153//1
f 150//1 153//1 75//1
f 75//2 153//2 152//2
f 75//1 152//1 76//1
f 76//1 152//1 154//1
f 76//1 154//1 74//1
f 74//1 154//1 87//1
f 74//1 87//1 118//1
f 118//1 87//1 119//1
f 119//4 87//4 88//4
f 119//4 88//4 117//4
f 117//1 88//1 89//1
f 117//1 89//1 156//1
f 156//1 89//1 90//1
f 156//1 90//1 103//1
f 103//4 90//4 56//4
f 103//1 56//1 55//1
f 157//1 108//1 79//1
f 79//2 108//2 109//2
f 79//1 109//1 151//1
f 108//1 157//1 107//1
f 107//1 157//1 145//1
f 107//4 145//4 106//4
f 106//1 145//1 147//1
f 106//1 147//1 105//1
f 105//1 147//1 146//1
f 105//1 146//1 96//1
f 96//1 146//1 158//1
f 96//1 158//1 159//1
f 96//1 159//1 95//1
f 95//1 159//1 160//1
f 95//1 160//1 94//1
f 94//1 160//1 161//1
f 94//4 161//4 93//4
f 93//1 161//1 104//1
f 93//2 104//2 55//2
f 55//1 104//1 103//1
f 171//1 83//1 173//1
f 173//4 83//4 84//4
f 173//1 84//1 174//1
f 174//1 84//1 163//1
f 163//5 84//5 85//5
f 163//1 85//1 164//1
f 164//3 85//3 86//3
f 164//1 86//1 101//1
f 101//1 86//1 77//1
f 101//1 77//1 78//1
f 83//1 171//1 175//1
f 175//1 171//1 172//1
f 175//1 172//1 177//1
f 177//1 172//1 65//1
f 177//1 65//1 178//1
f 178//4 65//4 179//4
f 179//1 65//1 67//1
f 179//1 67//1 66//1
f 162//1 170//1 66//1
f 66//1 170//1 169//1
f 66//1 169//1 179//1
f 170//1 162//1 180//1
f 180//1 162//1 165//1
f 180//1 165//1 181//1
f 181//1 165//1 166//1
f 181//1 166//1 167//1
f 181//4 167//4 182//4
f 182//1 167//1 168//1
f 182//2 168//2 176//2
f 176//1 168//1 183//1
f 176//1 183//1 125//1
f 125//1 183//1 124//1
f 124//1 183//1 184//1
f 124//1 184//1 148//1
f 124//1 148//1 123//1
f 123//1 148//1 149//1
f 123//5 149//5 122//5
f 122//1 149//1 102//1
f 122//1 102//1 78//1
f 78//1 102//1 101//1
