# Blender 4.0.2
# www.blender.org
o SICK-MICROSCAN3__m5
v 0.054533 0.023576 0.006250
v 0.054492 0.021276 0.006250
v 0.054842 0.021276 -0.000811
v 0.054838 0.021042 -0.000852
v 0.054831 0.020787 -0.001011
v 0.054822 0.020623 -0.001261
v 0.054815 0.020576 -0.001514
v 0.054235 0.024276 -0.008514
v 0.054270 0.024239 -0.008288
v 0.054305 0.024091 -0.008038
v 0.054325 0.023852 -0.007868
v 0.054329 0.023576 -0.007811
v 0.054533 0.023576 -0.006232
v 0.054540 0.023775 -0.006202
v 0.054562 0.024049 -0.006047
v 0.054593 0.024227 -0.005788
v 0.054621 0.024276 -0.005529
v 0.052150 0.024965 -0.017191
v 0.052125 0.024950 -0.017266
v 0.052102 0.024908 -0.017331
v 0.052086 0.024843 -0.017375
v 0.052080 0.024765 -0.017391
v 0.054815 0.020576 0.001532
v 0.054762 0.020576 0.002872
v 0.054675 0.020576 0.004211
v 0.054556 0.020576 0.005547
v 0.052150 0.024965 0.017209
v 0.052125 0.024950 0.017284
v 0.052102 0.024908 0.017349
v 0.052086 0.024843 0.017393
v 0.052080 0.024765 0.017409
v 0.054288 0.021276 0.007829
v 0.054276 0.021005 0.007884
v 0.054243 0.020746 0.008073
v 0.054199 0.020600 0.008350
v 0.054170 0.020576 0.008532
v 0.053226 0.021276 -0.013232
v 0.053268 0.023576 -0.013232
v 0.051654 0.001665 -0.017391
v 0.054540 0.023775 0.006220
v 0.054562 0.024049 0.006065
v 0.054593 0.024227 0.005806
v 0.054621 0.024276 0.005547
v 0.054329 0.023576 0.007829
v 0.054288 0.021276 -0.007811
v 0.054276 0.021005 -0.007866
v 0.054243 0.020746 -0.008055
v 0.054199 0.020600 -0.008332
v 0.054170 0.020576 -0.008514
v 0.054556 0.020576 -0.005529
v 0.054536 0.020605 -0.005730
v 0.054510 0.020754 -0.005997
v 0.054494 0.021003 -0.006176
v 0.054492 0.021276 -0.006232
v 0.054842 0.021276 0.000829
v 0.054838 0.021042 0.000870
v 0.054831 0.020787 0.001029
v 0.054822 0.020623 0.001279
v 0.053259 0.001465 0.011586
v 0.053226 0.021276 0.013250
v 0.051718 0.001465 0.017209
v 0.054191 0.001465 0.005831
v 0.053941 0.020576 0.009877
v 0.053679 0.020576 0.011215
v 0.054503 0.001465 0.000009
v 0.054191 0.001465 -0.005813
v 0.054762 0.020576 -0.002854
v 0.053259 0.001465 -0.011568
v 0.051718 0.001465 -0.017191
v 0.053237 0.020985 -0.013168
v 0.053278 0.020743 -0.012985
v 0.051693 0.001479 -0.017266
v 0.051672 0.001521 -0.017331
v 0.051658 0.001586 -0.017375
v 0.053679 0.024965 -0.011566
v 0.053393 0.024235 -0.012766
v 0.053331 0.024085 -0.013011
v 0.053286 0.023846 -0.013177
v 0.054604 0.024965 -0.005812
v 0.054007 0.024276 -0.009859
v 0.053745 0.024276 -0.011197
v 0.054913 0.024965 0.000009
v 0.054826 0.024276 -0.002854
v 0.054740 0.024276 -0.004193
v 0.054604 0.024965 0.005830
v 0.054826 0.024276 0.002872
v 0.054880 0.024276 0.001532
v 0.054885 0.024229 0.001279
v 0.053679 0.024965 0.011584
v 0.054235 0.024276 0.008532
v 0.054270 0.024239 0.008306
v 0.054305 0.024091 0.008056
v 0.054325 0.023852 0.007886
v 0.053393 0.024235 0.012784
v 0.053450 0.024276 0.012547
v 0.053745 0.024276 0.011215
v 0.051693 0.001479 0.017284
v 0.051654 0.001665 0.017409
v 0.051658 0.001586 0.017393
v 0.051672 0.001521 0.017349
v 0.053384 0.020576 0.012547
v 0.053278 0.020743 0.013003
v 0.053237 0.020985 0.013186
v 0.053268 0.023576 0.013250
v 0.053286 0.023846 0.013195
v 0.053331 0.024085 0.013029
v 0.054007 0.024276 0.009877
v 0.054675 0.020576 -0.004193
v 0.054883 0.023576 -0.000811
v 0.054883 0.023576 0.000829
v 0.054886 0.023800 0.000866
v 0.054888 0.024060 0.001025
v 0.054886 0.023801 -0.000848
v 0.054888 0.024061 -0.001007
v 0.054885 0.024229 -0.001261
v 0.054880 0.024276 -0.001514
v 0.053450 0.024276 -0.012529
v 0.053384 0.020576 -0.012529
v 0.053679 0.020576 -0.011197
v 0.053941 0.020576 -0.009859
v 0.054740 0.024276 0.004211
v 0.054536 0.020605 0.005748
v 0.054510 0.020754 0.006015
v 0.054494 0.021003 0.006194
vn 0.9642 -0.0206 0.2643
vn 0.9605 -0.0177 0.2777
vn 0.9493 -0.0175 0.3139
vn 0.9869 -0.0215 0.1598
vn 0.9856 -0.0202 0.1677
vn 0.9812 -0.0178 0.1921
vn 0.9983 -0.0215 0.0535
vn 0.9977 -0.0198 0.0644
vn 0.9959 -0.0177 0.0888
vn 0.9983 -0.0215 -0.0535
vn 0.9990 -0.0195 -0.0400
vn 0.9995 -0.0184 -0.0253
vn 0.9869 -0.0215 -0.1598
vn 0.9880 -0.0206 -0.1533
vn 0.9887 -0.0199 -0.1483
vn 0.9642 -0.0206 -0.2643
vn 0.9684 -0.0193 -0.2487
vn 0.9706 -0.0186 -0.2400
vn 0.9485 -0.0175 -0.3162
vn 0.9485 -0.0175 -0.3163
vn 0.9488 -0.0175 -0.3153
vn 0.9481 -0.0175 -0.3174
vn 0.9477 -0.0174 -0.3187
vn 0.9479 -0.0172 -0.3181
vn 0.9487 -0.0178 -0.3156
vn 0.9493 -0.0175 -0.3138
vn 0.9605 -0.0177 -0.2777
vn 0.9636 0.0532 -0.2620
vn 0.9636 0.0352 -0.2650
vn 0.9626 0.0064 -0.2708
vn 0.9830 0.0940 -0.1579
vn 0.9844 0.0538 -0.1673
vn 0.9814 -0.0088 -0.1919
vn 0.9941 0.0944 -0.0528
vn 0.9969 0.0462 -0.0643
vn 0.9960 -0.0114 -0.0887
vn 0.9941 0.0944 0.0528
vn 0.9984 0.0402 0.0399
vn 0.9998 0.0007 0.0221
vn 0.9830 0.0940 0.1579
vn 0.9888 0.0373 0.1443
vn 0.9914 -0.0104 0.1306
vn 0.9921 0.0286 0.1220
vn 0.9918 -0.0050 0.1278
vn 0.9636 0.0532 0.2620
vn 0.9722 0.0037 0.2339
vn 0.9761 -0.0224 0.2162
vn 0.9488 -0.0175 0.3153
vn 0.9486 -0.0175 0.3160
vn 0.9485 -0.0175 0.3162
vn 0.9483 -0.0175 0.3170
vn 0.9479 -0.0175 0.3180
vn 0.9479 -0.0172 0.3181
vn 0.9483 -0.0165 0.3169
vn 0.9916 -0.0144 0.1282
vn 0.9916 -0.0153 0.1281
vn 0.9916 -0.0174 0.1281
vn 0.9916 -0.0175 0.1282
vn 0.9915 -0.0206 0.1282
vn 0.9915 -0.0178 0.1286
vn 0.9896 -0.0193 0.1429
vn 0.9887 -0.0199 0.1483
vn 0.9880 -0.0206 0.1533
vn 0.9761 -0.0173 0.2165
vn 0.9723 -0.0181 0.2330
vn 0.9706 -0.0186 0.2400
vn 0.9684 -0.0193 0.2487
vn 0.9606 -0.0173 0.2773
vn 0.9614 -0.0099 0.2750
vn 0.9626 0.0064 0.2708
vn 0.9636 0.0352 0.2650
vn 0.9814 -0.0088 0.1919
vn 0.9844 0.0538 0.1673
vn 0.9945 -0.0174 -0.1032
vn 0.9940 -0.0175 -0.1079
vn 0.9933 -0.0157 -0.1147
vn 0.9916 -0.0153 -0.1281
vn 0.9916 -0.0144 -0.1282
vn 0.9917 -0.0113 -0.1281
vn 0.9914 -0.0069 -0.1304
vn 0.9908 0.0059 -0.1353
vn 0.9916 -0.0174 -0.1281
vn 0.9916 -0.0175 -0.1282
vn 0.9915 -0.0206 -0.1282
vn 0.9915 -0.0178 -0.1286
vn 0.9896 -0.0193 -0.1429
vn 0.9934 -0.0175 -0.1135
vn 0.9936 -0.0175 -0.1112
vn 0.9941 -0.0174 -0.1071
vn 0.9946 -0.0175 -0.1028
vn 0.9959 -0.0177 -0.0888
vn 0.9977 -0.0198 -0.0644
vn 0.9996 -0.0180 -0.0205
vn 0.9997 -0.0178 -0.0165
vn 0.9997 -0.0177 -0.0137
vn 0.9998 -0.0175 -0.0076
vn 0.9998 -0.0175 -0.0075
vn 0.9998 -0.0175 0.0075
vn 0.9998 -0.0164 0.0092
vn 0.9998 -0.0144 0.0120
vn 0.9998 -0.0100 0.0159
vn 0.9998 -0.0165 -0.0092
vn 0.9998 -0.0143 -0.0120
vn 0.9998 -0.0100 -0.0159
vn 0.9998 0.0006 -0.0221
vn 0.9984 0.0402 -0.0399
vn 0.9761 -0.0224 -0.2162
vn 0.9722 0.0037 -0.2340
vn 0.9614 -0.0099 -0.2750
vn 0.9606 -0.0173 -0.2773
vn 0.9723 -0.0181 -0.2330
vn 0.9761 -0.0173 -0.2165
vn 0.9812 -0.0178 -0.1921
vn 0.9856 -0.0202 -0.1677
vn 0.9888 0.0374 -0.1443
vn 0.9945 -0.0174 0.1032
vn 0.9960 -0.0114 0.0887
vn 0.9969 0.0462 0.0643
vn 0.9997 -0.0177 0.0137
vn 0.9997 -0.0178 0.0165
vn 0.9996 -0.0180 0.0205
vn 0.9995 -0.0184 0.0253
vn 0.9990 -0.0195 0.0400
vn 0.9946 -0.0175 0.1028
vn 0.9941 -0.0174 0.1071
vn 0.9936 -0.0175 0.1112
vn 0.9934 -0.0175 0.1135
vn 0.9933 -0.0157 0.1147
vn 0.9940 -0.0175 0.1079
s 0
f 59//1 60//1 61//1
f 61//2 60//2 27//2
f 61//3 27//3 28//3
f 62//4 36//4 59//4
f 59//5 36//5 63//5
f 59//6 63//6 64//6
f 65//7 24//7 62//7
f 62//8 24//8 25//8
f 62//9 25//9 26//9
f 66//10 67//10 65//10
f 65//11 67//11 7//11
f 65//12 7//12 6//12
f 68//13 49//13 66//13
f 66//14 49//14 48//14
f 66//15 48//15 47//15
f 69//16 37//16 68//16
f 68//17 37//17 70//17
f 68//18 70//18 71//18
f 72//19 22//19 69//19
f 69//20 22//20 20//20
f 69//21 20//21 19//21
f 72//22 73//22 22//22
f 22//23 73//23 39//23
f 39//24 73//24 74//24
f 22//25 21//25 20//25
f 19//26 18//26 69//26
f 69//27 18//27 37//27
f 75//28 76//28 18//28
f 18//29 76//29 77//29
f 18//30 77//30 78//30
f 79//31 8//31 75//31
f 75//32 8//32 80//32
f 75//33 80//33 81//33
f 82//34 83//34 79//34
f 79//35 83//35 84//35
f 79//36 84//36 17//36
f 85//37 86//37 82//37
f 82//38 86//38 87//38
f 82//39 87//39 88//39
f 89//40 90//40 85//40
f 85//41 90//41 91//41
f 85//42 91//42 40//42
f 40//43 91//43 92//43
f 40//44 92//44 93//44
f 27//45 94//45 89//45
f 89//46 94//46 95//46
f 89//47 95//47 96//47
f 28//48 29//48 61//48
f 61//49 29//49 30//49
f 61//50 30//50 97//50
f 97//51 30//51 31//51
f 97//52 31//52 98//52
f 99//53 100//53 98//53
f 98//54 100//54 97//54
f 93//55 44//55 40//55
f 40//56 44//56 1//56
f 1//57 44//57 2//57
f 2//58 44//58 32//58
f 2//59 32//59 33//59
f 2//60 33//60 62//60
f 62//61 33//61 34//61
f 62//62 34//62 35//62
f 35//63 36//63 62//63
f 64//64 101//64 59//64
f 59//65 101//65 102//65
f 59//66 102//66 103//66
f 103//67 60//67 59//67
f 60//68 104//68 27//68
f 27//69 104//69 105//69
f 27//70 105//70 106//70
f 106//71 94//71 27//71
f 96//72 107//72 89//72
f 89//73 107//73 90//73
f 17//74 16//74 79//74
f 79//75 16//75 15//75
f 79//76 15//76 14//76
f 13//77 12//77 14//77
f 14//78 12//78 11//78
f 14//79 11//79 79//79
f 79//80 11//80 10//80
f 79//81 10//81 9//81
f 13//82 54//82 12//82
f 12//83 54//83 45//83
f 45//84 54//84 46//84
f 46//85 54//85 66//85
f 46//86 66//86 47//86
f 54//87 53//87 66//87
f 66//88 53//88 52//88
f 66//89 52//89 51//89
f 51//90 50//90 66//90
f 66//91 50//91 108//91
f 66//92 108//92 67//92
f 6//93 5//93 65//93
f 65//94 5//94 4//94
f 65//95 4//95 3//95
f 3//96 109//96 65//96
f 65//97 109//97 82//97
f 65//98 82//98 55//98
f 55//98 82//98 110//98
f 110//99 82//99 111//99
f 111//100 82//100 112//100
f 112//101 82//101 88//101
f 109//102 113//102 82//102
f 82//103 113//103 114//103
f 82//104 114//104 115//104
f 115//105 116//105 82//105
f 82//106 116//106 83//106
f 81//107 117//107 75//107
f 75//108 117//108 76//108
f 78//109 38//109 18//109
f 18//110 38//110 37//110
f 71//111 118//111 68//111
f 68//112 118//112 119//112
f 68//113 119//113 120//113
f 120//114 49//114 68//114
f 9//115 8//115 79//115
f 42//116 43//116 85//116
f 85//117 43//117 121//117
f 85//118 121//118 86//118
f 55//119 56//119 65//119
f 65//120 56//120 57//120
f 65//121 57//121 58//121
f 58//122 23//122 65//122
f 65//123 23//123 24//123
f 26//124 122//124 62//124
f 62//125 122//125 123//125
f 62//126 123//126 124//126
f 124//127 2//127 62//127
f 40//128 41//128 85//128
f 85//129 41//129 42//129
