# Blender 4.0.2
# www.blender.org
o SICK-MICROSCAN3__m9
v -0.046942 -0.013339 0.048429
v -0.047490 -0.013341 0.047424
v -0.048550 -0.013341 0.046917
v -0.049704 -0.013341 0.047129
v -0.050474 -0.013315 0.047992
v -0.050631 -0.013312 0.049137
v -0.050088 -0.013310 0.050146
v -0.049056 -0.013316 0.050650
v -0.047909 -0.013325 0.050449
v -0.047096 -0.013332 0.049603
v -0.048120 -0.013541 0.047242
v -0.049281 -0.013541 0.047169
v -0.050489 -0.046251 0.048990
v -0.049972 -0.046251 0.050032
v -0.048906 -0.046251 0.050497
v -0.047791 -0.046251 0.050168
v -0.047147 -0.046251 0.049199
v -0.047278 -0.046251 0.048043
v -0.048120 -0.046251 0.047242
v -0.049281 -0.046251 0.047169
v -0.050216 -0.046251 0.047860
v -0.048544 -0.013316 -0.046950
v -0.047511 -0.013310 -0.047454
v -0.046969 -0.013312 -0.048463
v -0.047086 -0.013341 -0.049620
v -0.047384 -0.013541 -0.049740
v -0.047896 -0.013341 -0.050471
v -0.048922 -0.013299 -0.050650
v -0.050110 -0.013341 -0.050176
v -0.049480 -0.013541 -0.050358
v -0.050658 -0.013339 -0.049171
v -0.050504 -0.013332 -0.047997
v -0.049691 -0.013325 -0.047151
v -0.047111 -0.046251 -0.048610
v -0.047628 -0.046251 -0.047568
v -0.048694 -0.046251 -0.047103
v -0.049809 -0.046251 -0.047432
v -0.050452 -0.046251 -0.048401
v -0.050322 -0.046251 -0.049557
v -0.049480 -0.046251 -0.050358
v -0.048319 -0.046251 -0.050431
v -0.047384 -0.046251 -0.049740
v 0.027498 -0.046251 0.039473
v 0.028591 -0.046251 0.039075
v 0.029683 -0.046251 0.039473
v 0.030265 -0.046251 0.040480
v 0.030063 -0.046251 0.041625
v 0.029172 -0.046251 0.042373
v 0.028009 -0.046251 0.042373
v 0.027119 -0.046251 0.041625
v 0.026917 -0.046251 0.040480
v 0.027501 -0.013316 0.039259
v 0.028596 -0.013310 0.038912
v 0.029685 -0.013312 0.039269
v 0.030360 -0.013315 0.040206
v 0.030063 -0.013541 0.041625
v 0.029172 -0.013541 0.042373
v 0.027501 -0.013339 0.042324
v 0.026803 -0.013332 0.041368
v 0.026809 -0.013325 0.040195
v 0.030398 -0.013341 0.041362
v 0.029708 -0.013341 0.042312
v 0.028591 -0.013341 0.042675
v 0.034562 -0.013341 0.016747
v 0.033519 -0.013341 0.015704
v 0.008788 -0.013341 0.037925
v 0.010397 -0.013341 0.038826
v 0.032617 -0.013341 0.014095
v 0.011439 -0.013341 0.039869
v 0.010043 -0.013341 0.039180
v 0.033872 -0.013341 0.015350
v -0.046099 -0.055319 -0.052624
v 0.002702 -0.055304 -0.052649
v -0.044792 -0.055331 -0.050463
v -0.044513 -0.055328 -0.047795
v -0.045723 -0.055333 -0.045733
v 0.005693 -0.055310 0.052426
v -0.045733 -0.055333 0.045723
v -0.044455 -0.055328 0.048087
v -0.044788 -0.055331 0.050458
v -0.046094 -0.055319 0.052640
v 0.024251 -0.055326 -0.039971
v 0.026090 -0.055330 -0.037130
v 0.026315 -0.055331 0.036989
v 0.052472 -0.055297 -0.005042
v 0.049520 -0.055290 -0.018103
v 0.043325 -0.055296 -0.030035
v 0.029393 -0.055325 -0.036438
v 0.038914 -0.055289 -0.035573
v 0.031596 -0.055290 -0.037857
v 0.009837 -0.055281 -0.051806
v 0.016546 -0.055303 -0.050034
v 0.033572 -0.055300 -0.040457
v 0.052047 -0.055291 0.008408
v 0.048232 -0.055297 0.021265
v 0.029655 -0.055327 0.036499
v 0.041277 -0.055304 0.032765
v 0.031668 -0.055288 0.037965
v 0.024312 -0.055328 0.039710
v 0.019886 -0.055299 0.048803
v 0.026618 -0.055291 0.045344
v -0.048086 -0.055330 -0.044450
v -0.047795 -0.055330 0.044508
v -0.050458 -0.055333 -0.044784
v -0.050464 -0.055333 0.044789
v -0.052584 -0.055318 -0.046172
v -0.052612 -0.055317 0.046166
v -0.053558 -0.041684 -0.046400
v -0.053538 -0.042823 -0.046250
v -0.051050 -0.041640 -0.046400
v -0.051050 -0.042780 -0.046250
v -0.053519 -0.043884 -0.045811
v -0.051050 -0.043842 -0.045810
v -0.053503 -0.044795 -0.045111
v -0.051050 -0.044755 -0.045110
v -0.051050 -0.049413 -0.040453
v -0.053422 -0.049452 -0.040454
v -0.032269 -0.030257 -0.046425
v -0.032269 -0.030492 -0.046744
v -0.033471 -0.029741 -0.046400
v -0.031067 -0.029741 -0.046400
v -0.031280 -0.029754 -0.047574
v -0.032655 -0.029764 -0.047955
v -0.033448 -0.029741 -0.047158
v -0.030948 -0.020922 0.046400
v -0.031260 -0.021214 0.047548
v -0.031042 -0.020851 0.047842
v -0.032651 -0.021250 0.047950
v -0.032748 -0.020846 0.048298
v -0.033529 -0.021048 0.047162
v -0.033590 -0.020922 0.046400
v -0.053410 -0.050151 -0.039543
v -0.051050 -0.050112 -0.039542
v -0.053402 -0.050591 -0.038482
v -0.051050 -0.050551 -0.038481
v -0.053400 -0.050741 -0.037343
v -0.051050 -0.050701 -0.037340
v -0.053374 -0.052193 -0.004903
v -0.053370 -0.052460 -0.004638
v -0.053350 -0.052622 -0.004478
v -0.053367 -0.052632 -0.004302
v -0.053366 -0.052691 -0.003930
v -0.053366 -0.052691 0.004270
v -0.053374 -0.052193 0.005243
v -0.053350 -0.052603 0.004837
v -0.053370 -0.052460 0.004977
v -0.053367 -0.052632 0.004642
v -0.053422 -0.049452 0.040454
v -0.051050 -0.049413 0.040453
v -0.053410 -0.050151 0.039543
v -0.051050 -0.050112 0.039542
v -0.053402 -0.050591 0.038482
v -0.051050 -0.050551 0.038481
v -0.053400 -0.050741 0.037343
v -0.051050 -0.044755 0.045110
v -0.053503 -0.044795 0.045111
v -0.053558 -0.041684 0.046400
v -0.051050 -0.041640 0.046400
v -0.053538 -0.042823 0.046250
v -0.051050 -0.042780 0.046250
v -0.053519 -0.043884 0.045811
v -0.051050 -0.043842 0.045810
v -0.053458 -0.046341 -0.046439
v -0.053308 -0.054225 -0.046372
v -0.053313 -0.054250 0.046358
v -0.053400 -0.050741 0.008081
v -0.053388 -0.051414 0.006018
v -0.053397 -0.050913 0.006996
v -0.053458 -0.046341 0.046439
v -0.054004 -0.014387 0.047411
v -0.053400 -0.050741 -0.007742
v -0.053397 -0.050913 -0.006657
v -0.053388 -0.051414 -0.005678
v -0.054015 -0.014387 -0.047050
v -0.031067 -0.029741 0.046400
v -0.031199 -0.029754 0.047467
v -0.032269 -0.029741 0.047994
v -0.033346 -0.029768 0.047453
v -0.033471 -0.029741 0.046400
v -0.030940 -0.020981 -0.046399
v -0.031203 -0.021188 -0.047468
v -0.032665 -0.021208 -0.047993
v -0.033527 -0.020983 -0.047274
v -0.033634 -0.020927 -0.046400
v -0.053350 -0.051420 -0.005667
v -0.053350 -0.050921 -0.006628
v -0.053350 -0.050741 -0.007664
v -0.053350 -0.051422 0.006005
v -0.053350 -0.050921 0.006967
v -0.053350 -0.050741 0.008003
v -0.052628 -0.050741 -0.007435
v -0.051057 -0.050724 -0.007213
v -0.030953 -0.020848 -0.047780
v -0.032748 -0.020847 -0.048297
v -0.032269 -0.030492 0.046744
v -0.032205 -0.030257 0.046418
v -0.032596 -0.030213 0.046399
v -0.051050 -0.050701 0.023493
v -0.051850 -0.050716 0.023382
v -0.051850 -0.050715 0.036933
v -0.051050 -0.050700 0.036849
v -0.051050 -0.050706 0.037280
v -0.043030 -0.045725 0.043999
v -0.043030 -0.046238 0.043999
v -0.051057 -0.050724 0.007553
v -0.052628 -0.050741 0.007775
v 0.027493 -0.013341 0.043042
v 0.027852 -0.013341 0.044069
v 0.027620 -0.013341 0.045132
v 0.026866 -0.013341 0.045916
v 0.031097 -0.013341 0.040517
v 0.031940 -0.013341 0.041204
v 0.033019 -0.013341 0.041349
v 0.034013 -0.013341 0.040907
v 0.030392 -0.013341 0.039512
v 0.026789 -0.013341 0.042038
v 0.026391 -0.013341 0.040738
v 0.026833 -0.013341 0.039452
v 0.027946 -0.013341 0.038672
v 0.029306 -0.013341 0.038694
v 0.038859 -0.013341 0.036335
v 0.043095 -0.013341 0.031194
v 0.046656 -0.013341 0.025563
v 0.049485 -0.013341 0.019531
v 0.051538 -0.013341 0.013194
v 0.052783 -0.013341 0.006649
v 0.053200 -0.013341 0.000000
v 0.052783 -0.013341 -0.006649
v 0.051538 -0.013341 -0.013194
v 0.049485 -0.013341 -0.019531
v 0.046656 -0.013341 -0.025563
v 0.043095 -0.013341 -0.031194
v 0.038859 -0.013341 -0.036335
v 0.034013 -0.013341 -0.040907
v -0.053200 -0.013341 -0.047298
v -0.052911 -0.013341 -0.049121
v -0.052073 -0.013341 -0.050766
v -0.050768 -0.013341 -0.052071
v -0.049123 -0.013341 -0.052909
v -0.047300 -0.013341 -0.053198
v -0.053200 -0.013341 0.047298
v 0.033019 -0.013341 -0.041349
v 0.031097 -0.013341 -0.040517
v 0.030392 -0.013341 -0.039512
v 0.029306 -0.013341 -0.038694
v 0.032564 -0.013341 0.013477
v 0.027946 -0.013341 -0.038672
v 0.026833 -0.013341 -0.039452
v 0.031940 -0.013341 -0.041204
v 0.026391 -0.013341 -0.040738
v 0.016615 -0.013341 -0.050537
v 0.008169 -0.013341 0.037872
v 0.021863 -0.013341 -0.048498
v 0.026789 -0.013341 -0.042038
v 0.026866 -0.013341 -0.045916
v 0.027493 -0.013341 -0.043042
v 0.027620 -0.013341 -0.045132
v 0.027852 -0.013341 -0.044069
v 0.011181 -0.013341 -0.052010
v 0.005622 -0.013341 -0.052900
v 0.000000 -0.013341 -0.053198
v -0.046500 -0.013341 -0.048800
v -0.046865 -0.013341 -0.047557
v -0.046593 -0.013341 0.048152
v -0.047294 -0.013341 0.047062
v -0.047845 -0.013341 -0.046708
v -0.048473 -0.013341 0.046523
v -0.049127 -0.013341 -0.046523
v -0.049755 -0.013341 0.046708
v -0.047845 -0.013341 -0.050892
v -0.046865 -0.013341 -0.050043
v -0.050306 -0.013341 -0.050538
v -0.049127 -0.013341 -0.051077
v -0.051007 -0.013341 -0.049448
v -0.051007 -0.013341 -0.048152
v -0.050306 -0.013341 -0.047062
v -0.052911 -0.013341 0.049121
v -0.051100 -0.013341 0.048800
v -0.050735 -0.013341 0.047557
v -0.052073 -0.013341 0.050766
v -0.050735 -0.013341 0.050043
v -0.050768 -0.013341 0.052071
v -0.049755 -0.013341 0.050892
v -0.049123 -0.013341 0.052909
v -0.048473 -0.013341 0.051077
v -0.047300 -0.013341 0.053198
v -0.047294 -0.013341 0.050538
v -0.046593 -0.013341 0.049448
v 0.000000 -0.013341 0.053198
v 0.005622 -0.013341 0.052900
v 0.011139 -0.013341 0.040842
v 0.011181 -0.013341 0.052010
v 0.016615 -0.013341 0.050537
v 0.021863 -0.013341 0.048498
v 0.035534 -0.013341 0.016446
v -0.053583 -0.013303 0.047270
v -0.053587 -0.013303 -0.047232
v -0.053626 -0.014341 0.048730
v -0.053572 -0.014341 -0.048871
v -0.046564 -0.054354 0.051533
v -0.047058 -0.046341 0.052119
v -0.046609 -0.055044 -0.051962
v -0.051988 -0.055206 -0.046304
v -0.050154 -0.054855 -0.045437
v -0.048640 -0.054855 -0.045171
v -0.047148 -0.054860 -0.045554
v -0.045612 -0.054979 -0.046726
v -0.045168 -0.054849 -0.048552
v -0.045435 -0.054791 -0.050059
v -0.045836 -0.054341 -0.046938
v -0.051275 -0.054341 -0.046325
v -0.053128 -0.054928 -0.046210
v -0.053102 -0.054946 0.046236
v 0.033048 -0.054689 -0.040924
v 0.031338 -0.054801 -0.038454
v 0.030694 -0.046341 -0.037907
v 0.031341 -0.046341 -0.040775
v 0.033298 -0.046342 -0.041169
v 0.031942 -0.046341 -0.042889
v 0.034089 -0.046342 -0.041168
v 0.030972 -0.046341 -0.039400
v 0.029966 -0.046341 -0.038394
v 0.028806 -0.046341 -0.037282
v 0.028591 -0.046341 -0.038025
v 0.027269 -0.046341 -0.037534
v 0.027216 -0.046341 -0.038394
v 0.025994 -0.046341 -0.038428
v 0.026209 -0.046341 -0.039400
v 0.025233 -0.046341 -0.039787
v 0.025841 -0.046341 -0.040775
v 0.025227 -0.046341 -0.041867
v 0.026209 -0.046341 -0.042150
v 0.027216 -0.046341 -0.043157
v 0.027314 -0.046341 -0.045188
v 0.028591 -0.046341 -0.043525
v 0.027072 -0.046341 -0.046100
v 0.029966 -0.046341 -0.043157
v 0.030972 -0.046341 -0.042150
v 0.027009 -0.055027 -0.045291
v 0.027217 -0.054612 -0.045027
v -0.045401 -0.054873 0.050112
v -0.045206 -0.054822 0.048560
v -0.045554 -0.054860 0.047148
v -0.046726 -0.054979 0.045612
v -0.046938 -0.054341 0.045836
v -0.048474 -0.054810 0.045204
v -0.049979 -0.054797 0.045402
v -0.051331 -0.054741 0.046281
v -0.051988 -0.055206 0.046304
v -0.046298 -0.055209 0.051990
v 0.038598 -0.054589 0.036817
v 0.034061 -0.054607 0.041003
v 0.034261 -0.055171 0.040448
v 0.042794 -0.054642 0.031834
v 0.046472 -0.054640 0.026171
v 0.045183 -0.055207 0.027390
v 0.049351 -0.054631 0.020226
v 0.051447 -0.054614 0.014077
v 0.050653 -0.055207 0.015033
v 0.052794 -0.054614 0.007575
v 0.053325 -0.054618 0.000791
v 0.052809 -0.055207 0.001693
v 0.053004 -0.054619 -0.005859
v 0.051827 -0.054623 -0.012546
v 0.051512 -0.055207 -0.011757
v 0.049775 -0.054614 -0.019150
v 0.046945 -0.054622 -0.025293
v 0.046845 -0.055207 -0.024439
v 0.043392 -0.054624 -0.030989
v 0.039106 -0.054616 -0.036253
v 0.034086 -0.055153 -0.040551
v -0.052859 -0.046341 -0.047036
v -0.052667 -0.054799 -0.046837
v -0.052119 -0.046341 -0.047058
v -0.051913 -0.054706 -0.046841
v -0.053264 -0.013314 0.049201
v -0.052383 -0.013294 0.050978
v -0.050964 -0.013303 0.052380
v -0.049196 -0.013303 0.053278
v -0.047232 -0.013303 0.053587
v 0.000002 -0.013313 0.053574
v 0.006692 -0.013303 0.053166
v 0.013303 -0.013303 0.051908
v 0.019704 -0.013303 0.049831
v 0.025794 -0.013303 0.046969
v 0.031477 -0.013303 0.043366
v 0.036664 -0.013303 0.039078
v 0.041273 -0.013303 0.034175
v 0.045231 -0.013303 0.028733
v 0.048475 -0.013303 0.022837
v 0.050955 -0.013303 0.016582
v 0.052632 -0.013303 0.010064
v 0.053478 -0.013303 0.003388
v 0.053481 -0.013303 -0.003341
v -0.053278 -0.013303 -0.049196
v -0.052380 -0.013303 -0.050964
v -0.050980 -0.013303 -0.052369
v -0.049208 -0.013294 -0.053285
v -0.047250 -0.013314 -0.053574
v 0.000003 -0.013293 -0.053596
v 0.006740 -0.013303 -0.053160
v 0.013349 -0.013303 -0.051896
v 0.019748 -0.013303 -0.049814
v 0.025836 -0.013303 -0.046946
v 0.031516 -0.013303 -0.043337
v 0.036699 -0.013303 -0.039046
v 0.041303 -0.013303 -0.034138
v 0.045256 -0.013303 -0.028692
v 0.048496 -0.013303 -0.022794
v 0.050970 -0.013303 -0.016536
v 0.052641 -0.013303 -0.010017
v 0.026657 -0.055279 -0.045472
v 0.027229 -0.054281 -0.045494
v 0.027005 -0.054610 -0.045934
v 0.025425 -0.054811 -0.042488
v -0.046787 -0.054848 -0.052683
v -0.046922 -0.054323 -0.051973
v -0.046344 -0.054772 -0.053207
v 0.024750 -0.055304 -0.042512
v -0.053134 -0.046341 -0.048640
v -0.051341 -0.046341 -0.047748
v -0.050474 -0.046341 -0.046618
v -0.049956 -0.046341 -0.045496
v -0.049159 -0.046341 -0.046074
v -0.048408 -0.046341 -0.045322
v -0.047748 -0.046341 -0.046259
v -0.046938 -0.046341 -0.045836
v -0.046618 -0.046341 -0.047126
v -0.045836 -0.046341 -0.046938
v -0.046074 -0.046341 -0.048441
v -0.045322 -0.046341 -0.048408
v -0.045496 -0.046341 -0.049956
v -0.046259 -0.046341 -0.049852
v -0.047008 -0.046341 -0.052085
v -0.047126 -0.046341 -0.050982
v -0.048441 -0.046341 -0.051526
v -0.048640 -0.046341 -0.053134
v -0.047036 -0.046341 -0.052859
v -0.046453 -0.046341 -0.053450
v -0.051526 -0.046341 -0.049159
v -0.052140 -0.046341 -0.050592
v -0.050982 -0.046341 -0.050474
v -0.050591 -0.046341 -0.052140
v -0.049852 -0.046341 -0.051341
v 0.033504 -0.054664 -0.041095
v 0.022416 -0.054597 -0.048386
v 0.022925 -0.055207 -0.047604
v 0.016643 -0.054600 -0.050662
v 0.010293 -0.054595 -0.052328
v 0.003626 -0.054647 -0.053220
v 0.033491 -0.055229 0.040671
v -0.051933 -0.054683 0.046869
v -0.052675 -0.054811 0.046825
v -0.047499 -0.014383 -0.053989
v 0.004011 -0.014380 -0.053913
v -0.052859 -0.046341 0.047036
v -0.052085 -0.046341 0.047008
v -0.046703 -0.046341 0.053401
v -0.048640 -0.046341 0.053134
v -0.047994 -0.046341 0.051429
v -0.046788 -0.046341 0.050674
v -0.045496 -0.046341 0.049956
v -0.046120 -0.046341 0.049417
v -0.045455 -0.046341 0.047630
v -0.046171 -0.046341 0.047994
v -0.046926 -0.046341 0.046788
v -0.046938 -0.046341 0.045836
v -0.048183 -0.046341 0.046120
v -0.048408 -0.046341 0.045322
v -0.049606 -0.046341 0.046171
v -0.049956 -0.046341 0.045496
v -0.050812 -0.046341 0.046926
v -0.051480 -0.046341 0.048183
v -0.053134 -0.046341 0.048640
v -0.049417 -0.046341 0.051480
v -0.050591 -0.046341 0.052140
v -0.050674 -0.046341 0.050812
v -0.052140 -0.046341 0.050592
v -0.051429 -0.046341 0.049606
v 0.033973 -0.054664 -0.041040
v -0.048601 -0.014341 -0.053637
v -0.051387 -0.014367 -0.052440
v -0.052770 -0.014361 -0.050927
v 0.005060 -0.014341 -0.053532
v 0.015280 -0.014337 -0.051731
v 0.020673 -0.014336 -0.049792
v 0.026193 -0.014336 -0.047127
v 0.031590 -0.014341 -0.043480
v 0.037884 -0.014336 -0.038377
v 0.041877 -0.014333 -0.033946
v 0.045458 -0.014330 -0.028968
v 0.048629 -0.014341 -0.022883
v 0.051569 -0.014342 -0.015805
v 0.052980 -0.014331 -0.009930
v 0.053638 -0.014341 -0.003375
v 0.053692 -0.014338 0.005155
v 0.052815 -0.014334 0.010805
v 0.051289 -0.014336 0.016629
v 0.048629 -0.014341 0.022883
v 0.044973 -0.014336 0.029739
v 0.041335 -0.014332 0.034599
v 0.036791 -0.014341 0.039178
v 0.030259 -0.014339 0.044659
v 0.025317 -0.014339 0.047612
v 0.019699 -0.014332 0.050174
v 0.013366 -0.014341 0.052056
v 0.005613 -0.014336 0.053628
v 0.000000 -0.014341 0.053744
v -0.048871 -0.014341 0.053572
v -0.052495 -0.014367 0.051330
v -0.050927 -0.014361 0.052770
v -0.049466 -0.014372 -0.053592
v 0.032175 -0.014366 -0.043423
v 0.047941 -0.014361 -0.024872
v 0.053777 -0.014371 -0.005049
v 0.049063 -0.014383 0.022746
v 0.036147 -0.014372 0.040194
v 0.013054 -0.014369 0.052448
v -0.000033 -0.014376 0.054009
v -0.047089 -0.014376 0.054005
v -0.049157 -0.014379 0.053676
v -0.053676 -0.014379 -0.049157
v -0.053592 -0.014372 0.049466
v 0.010725 -0.014441 -0.052957
v 0.049994 -0.014441 -0.020496
v 0.054032 -0.014441 0.000000
v 0.031305 -0.054849 0.038368
v 0.033030 -0.054626 0.040902
v 0.025675 -0.054725 0.042818
v 0.024978 -0.054828 0.041171
v 0.025178 -0.046341 0.041775
v 0.025182 -0.054854 0.039524
v 0.025233 -0.046341 0.039787
v 0.026006 -0.054849 0.038240
v 0.025994 -0.046341 0.038428
v 0.027293 -0.054840 0.037402
v 0.027269 -0.046341 0.037534
v 0.028810 -0.054825 0.037170
v 0.028806 -0.046341 0.037282
v 0.030230 -0.054800 0.037572
v 0.030763 -0.046341 0.037985
v 0.033290 -0.046342 0.041150
v 0.034066 -0.046342 0.041167
v 0.031942 -0.046341 0.042889
v 0.031341 -0.046341 0.040750
v 0.030959 -0.046341 0.039378
v 0.029944 -0.046341 0.038381
v 0.028565 -0.046341 0.038025
v 0.027194 -0.046341 0.038406
v 0.026197 -0.046341 0.039422
v 0.025841 -0.046341 0.040801
v 0.026222 -0.046341 0.042172
v 0.027238 -0.046341 0.043169
v 0.027314 -0.046341 0.045185
v 0.028616 -0.046341 0.043525
v 0.027074 -0.046341 0.046110
v 0.029988 -0.046341 0.043144
v 0.030985 -0.046341 0.042128
v 0.033490 -0.054348 0.041102
v 0.026541 -0.055121 0.045880
v 0.026998 -0.054668 0.045933
v 0.021306 -0.054638 0.048890
v 0.016496 -0.054347 0.050727
v 0.013509 -0.055038 0.051325
v 0.010389 -0.054300 0.052326
v 0.005699 -0.054588 0.053027
v -0.000082 -0.054726 0.053284
v 0.027229 -0.054329 0.045492
v 0.027219 -0.054499 0.044995
v 0.027084 -0.054939 0.045166
v 0.025010 -0.055264 0.042699
v -0.046345 -0.054771 0.053200
v -0.046808 -0.054820 0.051999
v -0.046811 -0.054833 0.052673
v 0.050103 -0.045177 -0.018715
v 0.050577 -0.019246 -0.018736
v 0.051003 -0.017717 -0.017641
v 0.052962 -0.017564 -0.010671
v 0.053958 -0.017611 -0.002198
v 0.053661 -0.017578 0.006288
v 0.052407 -0.017575 0.012920
v 0.051003 -0.017717 0.017643
v 0.050580 -0.019230 0.018730
v 0.050102 -0.045193 0.018714
v 0.050473 -0.046691 0.017635
v 0.052415 -0.046868 0.010706
v 0.053295 -0.046899 0.004251
v 0.053477 -0.046880 -0.001768
v 0.052489 -0.046882 -0.010097
v 0.050549 -0.046844 -0.017516
v 0.049968 -0.045220 0.018265
v 0.049101 -0.045409 0.018203
v 0.050212 -0.046242 0.017533
v 0.049086 -0.046283 0.017289
v 0.050355 -0.046330 -0.017167
v 0.051912 -0.046874 -0.012796
v 0.052506 -0.046387 -0.008746
v 0.053145 -0.046395 -0.002142
v 0.052900 -0.046392 0.005815
v 0.051819 -0.046373 0.012054
v 0.050461 -0.019118 -0.018247
v 0.049562 -0.018994 -0.018233
v 0.049101 -0.045409 -0.018203
v 0.049993 -0.045560 -0.018190
v 0.050708 -0.018205 -0.017593
v 0.050883 -0.018065 0.017161
v 0.053038 -0.018086 0.008570
v 0.053640 -0.018098 0.002152
v 0.053405 -0.018094 -0.005755
v 0.052264 -0.018075 -0.012384
v 0.049578 -0.018079 0.017306
v 0.049454 -0.025141 0.010900
v 0.049578 -0.018094 -0.017332
v 0.049454 -0.025141 -0.010900
v 0.049452 -0.025288 -0.011450
v 0.049562 -0.018994 0.018233
v 0.049445 -0.025691 0.011853
v 0.049452 -0.025288 0.011450
v 0.049404 -0.028041 0.012000
v 0.049435 -0.026241 0.012000
v 0.049376 -0.029632 0.010500
v 0.049376 -0.029632 -0.010500
v 0.049086 -0.046274 -0.017306
v 0.049404 -0.028041 -0.012000
v 0.049394 -0.028591 -0.011853
v 0.049387 -0.028994 -0.011450
v 0.049445 -0.025691 -0.011853
v 0.049435 -0.026241 -0.012000
v 0.049384 -0.029141 -0.010900
v 0.049380 -0.029387 -0.010500
v 0.049384 -0.029141 0.010900
v 0.049380 -0.029387 0.010500
v 0.049387 -0.028994 0.011450
v 0.049394 -0.028591 0.011853
v 0.050259 -0.019248 0.017686
v 0.050245 -0.028242 0.011500
v 0.049802 -0.045415 0.017657
v 0.050088 -0.036968 0.011457
v 0.050271 -0.018531 0.016930
v 0.050109 -0.027806 0.011250
v 0.050106 -0.027989 0.011433
v 0.050271 -0.018559 -0.016981
v 0.050156 -0.025153 0.006252
v 0.050111 -0.027739 0.011000
v 0.050259 -0.019248 -0.017686
v 0.050109 -0.027806 -0.011250
v 0.050106 -0.027989 -0.011433
v 0.050245 -0.028242 -0.011500
v 0.049803 -0.045379 -0.017663
v 0.049945 -0.037221 -0.011300
v 0.049790 -0.046084 -0.016975
v 0.049950 -0.036965 -0.010538
v 0.049791 -0.046062 0.016981
v 0.049950 -0.036943 0.010534
v 0.049944 -0.037255 0.010967
v 0.050052 -0.031070 0.010500
v 0.050052 -0.031070 -0.010500
v 0.050111 -0.027739 -0.011000
v 0.050156 -0.025153 -0.006252
v 0.050111 -0.027739 -0.006604
v 0.050111 -0.027739 0.006604
v 0.050231 -0.034742 0.010500
v 0.050200 -0.036969 0.010538
v 0.050194 -0.037259 0.011033
v 0.050356 -0.027993 0.011433
v 0.050359 -0.027810 0.011250
v 0.050361 -0.027744 0.011000
v 0.050336 -0.029158 0.004580
v 0.050336 -0.029158 -0.004580
v 0.050361 -0.027744 0.004301
v 0.050361 -0.027744 -0.004301
v 0.050361 -0.027744 -0.011000
v 0.050224 -0.034742 -0.010500
v 0.050359 -0.027810 -0.011250
v 0.050356 -0.027993 -0.011433
v 0.050200 -0.036969 -0.011462
v 0.050200 -0.036947 -0.010534
v 0.050194 -0.037259 -0.010967
v 0.049854 -0.029841 -0.010500
v 0.049746 -0.030034 -0.010500
v 0.050156 -0.030424 -0.010500
v 0.049979 -0.030529 -0.010500
v 0.050252 -0.031074 -0.010500
v 0.050252 -0.031074 0.010500
v 0.050156 -0.030424 0.010500
v 0.049854 -0.029841 0.010500
v 0.049746 -0.030034 0.010500
v 0.049979 -0.030529 0.010500
v 0.051271 -0.018583 0.017017
v 0.051271 -0.018554 -0.016975
v 0.051259 -0.019259 0.017663
v 0.050803 -0.045346 0.017692
v 0.051059 -0.030698 0.014190
v 0.051071 -0.030014 0.014190
v 0.051138 -0.026199 0.014190
v 0.051128 -0.026723 0.013750
v 0.051080 -0.029490 0.013750
v 0.051126 -0.026842 0.013076
v 0.051082 -0.029372 0.013076
v 0.051128 -0.026757 0.011250
v 0.051081 -0.029457 0.011250
v 0.051081 -0.029457 0.010989
v 0.050790 -0.046101 0.016975
v 0.051049 -0.031289 0.009277
v 0.051049 -0.031256 0.010160
v 0.051050 -0.031229 0.009573
v 0.050791 -0.046079 -0.016981
v 0.051048 -0.031341 -0.002674
v 0.051050 -0.031222 -0.002000
v 0.051050 -0.031233 0.008985
v 0.051054 -0.030998 0.008776
v 0.051059 -0.030698 -0.001560
v 0.051059 -0.030731 0.008729
v 0.051127 -0.026785 0.003337
v 0.051127 -0.026791 0.004293
v 0.051128 -0.026757 0.003519
v 0.051130 -0.026638 0.004055
v 0.051130 -0.026617 0.003641
v 0.051135 -0.026334 0.003973
v 0.051144 -0.025851 0.003973
v 0.051143 -0.025887 0.004155
v 0.050803 -0.045391 -0.017686
v 0.051049 -0.031289 -0.006780
v 0.051050 -0.031233 -0.007071
v 0.051259 -0.019259 -0.017663
v 0.051128 -0.026757 -0.014263
v 0.051054 -0.030998 -0.007280
v 0.051160 -0.024924 -0.013861
v 0.051160 -0.024933 0.001783
v 0.051161 -0.024872 -0.002674
v 0.051159 -0.024957 -0.004500
v 0.051155 -0.025214 -0.003266
v 0.051144 -0.025857 -0.003500
v 0.051161 -0.024872 0.013076
v 0.051159 -0.024991 0.013750
v 0.051150 -0.025515 0.014190
v 0.051132 -0.026500 0.012484
v 0.051144 -0.025857 0.012250
v 0.051159 -0.024957 0.011250
v 0.051155 -0.025214 0.012484
v 0.051128 -0.026757 -0.005737
v 0.051128 -0.026757 -0.006123
v 0.051151 -0.025428 -0.005737
v 0.051151 -0.025428 -0.006123
v 0.051155 -0.025187 -0.005737
v 0.051159 -0.024957 -0.005737
v 0.051151 -0.025428 -0.006305
v 0.051150 -0.025463 -0.006397
v 0.051147 -0.025646 -0.006305
v 0.051128 -0.026757 -0.005544
v 0.051081 -0.029457 -0.005590
v 0.051081 -0.029457 -0.005885
v 0.051128 -0.026757 -0.006316
v 0.051080 -0.029488 -0.006488
v 0.051081 -0.029420 -0.006759
v 0.051151 -0.025428 -0.005544
v 0.051131 -0.026576 -0.005351
v 0.051128 -0.026757 -0.005351
v 0.051081 -0.029457 -0.004795
v 0.051055 -0.030906 -0.005192
v 0.051155 -0.025187 -0.005533
v 0.051159 -0.024957 -0.004704
v 0.051159 -0.024957 -0.005533
v 0.051159 -0.024957 -0.007349
v 0.051152 -0.025378 -0.006641
v 0.051128 -0.026757 -0.004500
v 0.051132 -0.026500 -0.003266
v 0.051126 -0.026842 -0.002674
v 0.051131 -0.026576 -0.004704
v 0.051081 -0.029457 -0.004500
v 0.051082 -0.029372 -0.002674
v 0.051076 -0.029714 -0.003266
v 0.051154 -0.025283 0.002293
v 0.051156 -0.025138 0.002100
v 0.051157 -0.025102 0.003463
v 0.051160 -0.024933 0.001930
v 0.051159 -0.024957 0.005517
v 0.051159 -0.024957 0.005756
v 0.051159 -0.024957 0.006460
v 0.051128 -0.026757 0.006232
v 0.051120 -0.027204 0.007311
v 0.051128 -0.026757 0.006028
v 0.051128 -0.026757 0.005268
v 0.051137 -0.026237 0.005903
v 0.051137 -0.026237 0.005392
v 0.051131 -0.026588 0.001783
v 0.051131 -0.026588 0.001510
v 0.051150 -0.025515 -0.001560
v 0.051159 -0.024991 -0.002000
v 0.051138 -0.026199 -0.001560
v 0.051128 -0.026757 0.001510
v 0.051128 -0.026723 -0.002000
v 0.051080 -0.029490 -0.002000
v 0.051071 -0.030014 -0.001560
v 0.051128 -0.026757 0.002282
v 0.051128 -0.026769 0.003167
v 0.051130 -0.026624 0.003175
v 0.051131 -0.026588 0.002282
v 0.051148 -0.025597 0.003224
v 0.051150 -0.025501 0.002293
v 0.051151 -0.025428 0.003224
v 0.051131 -0.026588 0.001987
v 0.051154 -0.025261 0.001993
v 0.051131 -0.026578 0.003438
v 0.051148 -0.025597 0.003656
v 0.051148 -0.025597 0.003837
v 0.051149 -0.025563 0.004043
v 0.051151 -0.025428 0.003837
v 0.051151 -0.025416 0.004212
v 0.051156 -0.025126 0.003656
v 0.051152 -0.025380 0.004382
v 0.051149 -0.025561 0.004734
v 0.051139 -0.026105 0.004848
v 0.051128 -0.026757 0.005063
v 0.051134 -0.026419 0.004825
v 0.051130 -0.026636 0.004723
v 0.051128 -0.026757 0.004586
v 0.051073 -0.029879 0.008787
v 0.051062 -0.030532 0.008796
v 0.051065 -0.030385 0.008916
v 0.051072 -0.029940 0.008968
v 0.051068 -0.030196 0.009315
v 0.051070 -0.030097 0.009495
v 0.051076 -0.029729 0.009053
v 0.051072 -0.029964 0.009579
v 0.051075 -0.029783 0.009570
v 0.051077 -0.029651 0.009480
v 0.051078 -0.029604 0.009231
v 0.051151 -0.025428 0.003656
v 0.051151 -0.025428 0.003463
v 0.051148 -0.025597 0.003463
v 0.051120 -0.027204 -0.008292
v 0.051078 -0.029597 -0.007143
v 0.051120 -0.027204 -0.008439
v 0.051073 -0.029879 -0.007270
v 0.051159 -0.024957 -0.009132
v 0.051128 -0.026757 -0.008235
v 0.051128 -0.026757 -0.008030
v 0.051128 -0.026757 -0.007542
v 0.051135 -0.026346 -0.007542
v 0.051140 -0.026056 -0.007735
v 0.051159 -0.024957 -0.009290
v 0.051159 -0.024957 -0.007542
v 0.051151 -0.025428 -0.008189
v 0.051151 -0.025428 -0.007985
v 0.051139 -0.026093 -0.007542
v 0.051128 -0.026757 -0.009518
v 0.051159 -0.024957 -0.009994
v 0.051159 -0.024957 -0.010233
v 0.051157 -0.025102 -0.012287
v 0.051156 -0.025126 -0.012094
v 0.051152 -0.025380 -0.011368
v 0.051151 -0.025416 -0.011538
v 0.051143 -0.025899 -0.007860
v 0.051128 -0.026757 -0.007349
v 0.051128 -0.026757 -0.006952
v 0.051128 -0.026757 -0.006759
v 0.051145 -0.025763 -0.006334
v 0.051145 -0.025781 -0.006749
v 0.051148 -0.025601 -0.006699
v 0.051146 -0.025708 -0.006941
v 0.051150 -0.025469 -0.006849
v 0.051149 -0.025547 -0.006576
v 0.051148 -0.025597 -0.006441
v 0.051130 -0.026626 0.004468
v 0.051132 -0.026493 0.004607
v 0.051131 -0.026574 0.004227
v 0.051136 -0.026310 0.004155
v 0.051142 -0.025974 0.004643
v 0.051148 -0.025628 0.004224
v 0.051148 -0.025632 0.004563
v 0.051149 -0.025549 0.004393
v 0.051131 -0.026564 -0.013457
v 0.051131 -0.026564 -0.014263
v 0.051138 -0.026177 -0.013888
v 0.051145 -0.025760 -0.014201
v 0.051150 -0.025465 -0.014263
v 0.051155 -0.025211 -0.014206
v 0.051158 -0.025018 -0.014058
v 0.051128 -0.026757 -0.013230
v 0.051059 -0.030731 -0.007328
v 0.051127 -0.026785 -0.012413
v 0.051127 -0.026791 -0.011457
v 0.051128 -0.026757 -0.010687
v 0.051128 -0.026757 -0.010482
v 0.051131 -0.026586 -0.013231
v 0.051130 -0.026624 -0.012575
v 0.051128 -0.026769 -0.012583
v 0.051148 -0.025597 -0.012526
v 0.051151 -0.025452 -0.013230
v 0.051150 -0.025489 -0.013400
v 0.051142 -0.025943 -0.013853
v 0.051147 -0.025679 -0.014014
v 0.051151 -0.025406 -0.014059
v 0.051154 -0.025274 -0.013461
v 0.051155 -0.025199 -0.013967
v 0.051157 -0.025101 -0.013805
v 0.051156 -0.025138 -0.013593
v 0.051151 -0.025428 -0.012526
v 0.051154 -0.025264 -0.013268
v 0.051157 -0.025066 -0.013400
v 0.051160 -0.024940 -0.013619
v 0.051148 -0.025597 -0.012287
v 0.051131 -0.026578 -0.012312
v 0.051128 -0.026757 -0.012231
v 0.051130 -0.026638 -0.011695
v 0.051130 -0.026617 -0.012109
v 0.051135 -0.026334 -0.011777
v 0.051144 -0.025851 -0.011777
v 0.051143 -0.025887 -0.011595
v 0.051148 -0.025597 -0.012094
v 0.051148 -0.025597 -0.011913
v 0.051149 -0.025563 -0.011707
v 0.051151 -0.025428 -0.011913
v 0.051151 -0.025428 -0.012094
v 0.051151 -0.025428 -0.012287
v 0.051149 -0.025549 -0.011357
v 0.051148 -0.025632 -0.011187
v 0.051148 -0.025628 -0.011526
v 0.051142 -0.025974 -0.011107
v 0.051136 -0.026310 -0.011595
v 0.051132 -0.026493 -0.011143
v 0.051131 -0.026574 -0.011523
v 0.051130 -0.026626 -0.011282
v 0.051128 -0.026757 -0.011164
v 0.051130 -0.026636 -0.011027
v 0.051134 -0.026419 -0.010925
v 0.051139 -0.026105 -0.010902
v 0.051149 -0.025561 -0.011016
v 0.051137 -0.026237 -0.010358
v 0.051137 -0.026237 -0.009847
v 0.051128 -0.026757 -0.009722
v 0.051049 -0.031256 -0.005885
v 0.051057 -0.030792 -0.006182
v 0.051071 -0.029999 -0.006271
v 0.051049 -0.031256 -0.005692
v 0.051050 -0.031229 -0.006484
v 0.051077 -0.029698 -0.005692
v 0.051049 -0.031256 -0.005249
v 0.051049 -0.031256 -0.005102
v 0.051049 -0.031256 -0.004682
v 0.051049 -0.031256 -0.004500
v 0.051077 -0.029698 -0.004682
v 0.051065 -0.030356 -0.003500
v 0.051054 -0.030999 -0.003266
v 0.051055 -0.030937 -0.006450
v 0.051058 -0.030747 -0.007112
v 0.051061 -0.030576 -0.007005
v 0.051052 -0.031087 -0.006611
v 0.051052 -0.031112 -0.006872
v 0.051054 -0.031002 -0.007048
v 0.051058 -0.030737 -0.006384
v 0.051066 -0.030292 -0.006439
v 0.051076 -0.029710 -0.006305
v 0.051081 -0.029469 -0.006963
v 0.051072 -0.029940 -0.007088
v 0.051065 -0.030385 -0.007141
v 0.051062 -0.030532 -0.007260
v 0.051076 -0.029729 -0.007004
v 0.051070 -0.030097 -0.006561
v 0.051075 -0.029783 -0.006487
v 0.051072 -0.029964 -0.006477
v 0.051078 -0.029604 -0.006825
v 0.051077 -0.029651 -0.006576
v 0.051068 -0.030196 -0.006741
v 0.051052 -0.031123 -0.006328
v 0.051052 -0.031123 0.009729
v 0.051057 -0.030792 0.009874
v 0.051081 -0.029457 0.010160
v 0.051071 -0.029999 0.009786
v 0.051058 -0.030737 0.009672
v 0.051066 -0.030292 0.009618
v 0.051055 -0.030937 0.009606
v 0.051061 -0.030576 0.009051
v 0.051058 -0.030747 0.008944
v 0.051052 -0.031087 0.009445
v 0.051052 -0.031112 0.009184
v 0.051054 -0.031002 0.009009
v 0.051076 -0.029710 0.009752
v 0.051080 -0.029488 0.009569
v 0.051081 -0.029420 0.009297
v 0.051128 -0.026757 0.009627
v 0.051128 -0.026757 0.010013
v 0.051128 -0.026757 0.010206
v 0.051081 -0.029457 0.010342
v 0.051128 -0.026757 0.010399
v 0.051081 -0.029469 0.009093
v 0.051120 -0.027204 0.007458
v 0.051128 -0.026757 0.008798
v 0.051128 -0.026757 0.008991
v 0.051078 -0.029597 0.008913
v 0.051049 -0.031256 0.010376
v 0.051049 -0.031256 0.011068
v 0.051049 -0.031256 0.011250
v 0.051076 -0.029734 0.011068
v 0.051065 -0.030356 0.012250
v 0.051054 -0.030999 0.012484
v 0.051048 -0.031341 0.013076
v 0.051056 -0.030882 0.010342
v 0.051159 -0.024957 0.006618
v 0.051128 -0.026757 0.007515
v 0.051128 -0.026757 0.007720
v 0.051128 -0.026757 0.008208
v 0.051135 -0.026346 0.008208
v 0.051140 -0.026056 0.008015
v 0.051159 -0.024957 0.008208
v 0.051151 -0.025428 0.007561
v 0.051151 -0.025428 0.007765
v 0.051139 -0.026093 0.008208
v 0.051143 -0.025899 0.007890
v 0.051128 -0.026757 0.008401
v 0.051146 -0.025708 0.008809
v 0.051159 -0.024957 0.008401
v 0.051150 -0.025469 0.008901
v 0.051152 -0.025378 0.009109
v 0.051159 -0.024957 0.010013
v 0.051150 -0.025463 0.009353
v 0.051151 -0.025428 0.009445
v 0.051147 -0.025646 0.009445
v 0.051145 -0.025781 0.009001
v 0.051145 -0.025763 0.009416
v 0.051128 -0.026757 0.009434
v 0.051148 -0.025601 0.009051
v 0.051149 -0.025547 0.009174
v 0.051148 -0.025597 0.009309
v 0.051151 -0.025428 0.010013
v 0.051151 -0.025428 0.009627
v 0.051155 -0.025187 0.010013
v 0.051151 -0.025428 0.010206
v 0.051155 -0.025187 0.010217
v 0.051159 -0.024957 0.011046
v 0.051159 -0.024957 0.010217
v 0.051131 -0.026576 0.010399
v 0.051131 -0.026576 0.011046
v 0.051050 -0.031222 0.013750
v 0.051076 -0.029714 0.012484
v 0.050492 -0.018793 0.018159
v 0.030190 -0.054869 -0.037498
v 0.028648 -0.054850 -0.037152
v 0.027149 -0.054843 -0.037460
v 0.025903 -0.054828 -0.038363
v 0.025147 -0.054812 -0.039689
v 0.025006 -0.054798 -0.041204
vn -0.3798 0.4753 0.7936
vn -0.3459 0.9195 0.1866
vn 0.3809 0.8701 0.3129
vn 0.1564 0.5028 0.8502
vn -0.0348 0.8302 0.5563
vn 0.8955 0.0058 -0.4450
vn 0.8809 0.0048 -0.4732
vn 0.4000 0.0046 -0.9165
vn 0.4383 0.0062 -0.8988
vn -0.2827 0.0032 -0.9592
vn -0.1725 0.0078 -0.9850
vn -0.8332 0.0017 -0.5530
vn -0.7211 0.0096 -0.6928
vn -0.9937 0.0002 0.1119
vn -0.9914 0.0116 -0.1301
vn -0.6893 -0.0015 0.7245
vn -0.7099 -0.0000 0.7043
vn -0.0624 -0.0000 0.9981
vn 0.5938 -0.0000 0.8046
vn 0.5679 0.0011 0.8231
vn 0.9720 0.0067 0.2347
vn 0.9907 0.0036 0.1357
vn -0.5676 0.8225 0.0364
vn -0.6035 0.5533 0.5742
vn -0.0079 0.9631 0.2691
vn 0.3470 0.2794 0.8953
vn 0.3459 0.9195 0.1867
vn -0.4000 0.0046 -0.9165
vn -0.8809 0.0048 -0.4732
vn -0.8955 0.0058 -0.4450
vn -0.9514 0.0027 0.3081
vn -0.9721 -0.0000 0.2347
vn -0.5090 -0.0000 0.8608
vn -0.5938 -0.0055 0.8046
vn 0.4583 0.0143 0.8887
vn 0.0624 -0.0000 0.9981
vn 0.7099 -0.0000 0.7043
vn 0.6893 -0.0015 0.7245
vn 0.9914 0.0116 -0.1301
vn 0.9937 0.0002 0.1119
vn 0.7211 0.0096 -0.6928
vn 0.8332 0.0017 -0.5530
vn 0.1725 0.0078 -0.9850
vn 0.2827 0.0032 -0.9592
vn -0.4383 0.0062 -0.8988
vn 0.3020 0.0062 0.9533
vn 0.3420 0.0046 0.9397
vn -0.3120 0.0048 0.9501
vn -0.3420 0.0058 0.9397
vn -0.8113 0.0036 0.5846
vn -0.8660 0.0067 0.5000
vn -0.9788 0.0011 -0.2048
vn -0.9848 -0.0000 -0.1736
vn -0.6428 -0.0000 -0.7660
vn 0.0288 -0.0000 -0.9996
vn -0.0000 -0.0015 -1.0000
vn 0.8079 0.0116 -0.5892
vn 0.6428 0.0002 -0.7660
vn 0.9999 0.0096 0.0049
vn 0.9848 0.0017 -0.1736
vn 0.8039 0.0078 0.5947
vn 0.8660 0.0032 0.5000
vn -0.4916 0.8701 0.0359
vn -0.6993 0.5028 -0.5081
vn -0.3583 0.8302 -0.4270
vn -0.2719 0.4753 -0.8368
vn 0.1219 0.9195 -0.3736
vn -0.0000 1.0000 -0.0000
vn 0.0003 -1.0000 -0.0058
vn 0.0006 -1.0000 0.0011
vn 0.0003 -1.0000 -0.0023
vn 0.0006 -1.0000 -0.0001
vn 0.0005 -1.0000 -0.0000
vn 0.0002 -1.0000 0.0021
vn 0.0005 -1.0000 -0.0013
vn 0.0002 -1.0000 0.0057
vn -0.0006 -1.0000 -0.0007
vn -0.0011 -1.0000 -0.0000
vn 0.0013 -1.0000 -0.0000
vn 0.0025 -1.0000 -0.0011
vn 0.0023 -1.0000 -0.0007
vn 0.0006 -1.0000 0.0033
vn 0.0043 -1.0000 -0.0047
vn 0.0054 -0.9998 -0.0166
vn 0.0041 -1.0000 -0.0088
vn -0.0033 -1.0000 0.0002
vn 0.0069 -0.9999 -0.0076
vn 0.0048 -1.0000 -0.0053
vn -0.0008 -1.0000 0.0032
vn 0.0021 -1.0000 0.0005
vn 0.0015 -1.0000 -0.0000
vn 0.0013 -1.0000 -0.0004
vn 0.0022 -1.0000 0.0007
vn 0.0074 -0.9998 0.0168
vn 0.0072 -0.9998 0.0164
vn -0.0010 -1.0000 -0.0000
vn -0.0001 -1.0000 0.0012
vn 0.0018 -1.0000 0.0041
vn 0.0251 -0.9996 0.0154
vn -0.0030 -1.0000 -0.0082
vn -0.0014 -1.0000 -0.0000
vn -0.0016 -1.0000 -0.0000
vn 0.0012 -1.0000 -0.0000
vn 0.0010 -1.0000 -0.0000
vn -0.0068 -1.0000 -0.0000
vn -0.0072 -1.0000 -0.0000
vn -0.0022 0.1305 0.9914
vn -0.0023 0.1305 0.9914
vn -0.0065 0.3826 0.9239
vn -0.0066 0.3827 0.9238
vn -0.0104 0.6086 0.7934
vn -0.0105 0.6088 0.7933
vn -0.0122 0.7070 0.7071
vn -0.0121 0.7069 0.7072
vn 0.3162 0.7637 -0.5628
vn -0.3162 0.7637 -0.5628
vn -0.5462 0.8328 0.0899
vn -0.1574 0.8236 0.5450
vn 0.4008 0.8360 0.3747
vn 0.5332 0.8459 0.0158
vn -0.8232 0.5618 -0.0815
vn -0.2175 0.6910 -0.6893
vn -0.2028 0.6108 -0.7654
vn 0.6076 0.5972 -0.5235
vn -0.0000 -0.9992 0.0403
vn 0.4828 -0.8572 -0.1794
vn 0.0101 -0.9987 0.0499
vn -0.0136 0.7932 0.6088
vn -0.0137 0.7934 0.6086
vn -0.0158 0.9237 0.3827
vn -0.0160 0.9238 0.3824
vn -0.0170 0.9913 0.1306
vn -0.0171 0.9913 0.1302
vn 0.0574 0.7046 0.7073
vn 0.9705 0.2179 0.1028
vn 0.7270 0.6784 0.1059
vn -0.9761 0.2175 -0.0000
vn -0.9847 0.1744 -0.0004
vn 0.0646 0.7044 -0.7069
vn 0.9622 0.2457 -0.1171
vn 0.1323 0.9790 -0.1553
vn -0.0136 0.7932 -0.6088
vn -0.0137 0.7934 -0.6086
vn -0.0158 0.9237 -0.3827
vn -0.0160 0.9238 -0.3824
vn -0.0170 0.9913 -0.1306
vn -0.0180 0.9916 -0.1285
vn -0.0122 0.7070 -0.7071
vn -0.0121 0.7069 -0.7072
vn -0.0022 0.1305 -0.9914
vn -0.0023 0.1305 -0.9914
vn -0.0065 0.3826 -0.9239
vn -0.0066 0.3827 -0.9238
vn -0.0104 0.6086 -0.7934
vn -0.0105 0.6088 -0.7933
vn -0.9997 -0.0230 -0.0072
vn -0.9997 -0.0220 -0.0111
vn -0.9997 -0.0238 -0.0063
vn -0.9998 -0.0190 -0.0039
vn -0.9998 -0.0207 -0.0025
vn -0.9998 -0.0219 -0.0018
vn -0.9997 -0.0240 -0.0008
vn -0.9997 -0.0250 -0.0004
vn -0.9998 -0.0175 -0.0000
vn -0.9998 -0.0209 -0.0006
vn -0.9994 -0.0355 -0.0001
vn -0.9994 -0.0335 -0.0000
vn -0.9998 -0.0205 0.0005
vn -0.9997 -0.0237 0.0004
vn -0.9998 -0.0174 -0.0000
vn -0.9998 -0.0184 0.0035
vn -0.9998 -0.0201 0.0021
vn -0.9998 -0.0211 0.0015
vn -0.9997 -0.0238 0.0063
vn -0.9997 -0.0230 0.0072
vn -0.9997 -0.0220 0.0111
vn -0.9994 -0.0211 0.0279
vn -0.9938 -0.0203 0.1097
vn -0.9999 -0.0164 -0.0003
vn -0.9999 -0.0166 -0.0000
vn -0.9999 -0.0173 -0.0000
vn -0.9999 -0.0168 0.0001
vn -0.9999 -0.0167 0.0002
vn -0.9896 -0.0200 -0.1423
vn -0.9994 -0.0211 -0.0279
vn -0.9997 -0.0228 0.0007
vn -0.9924 0.0134 -0.1222
vn -0.9646 -0.0045 -0.2636
vn -0.4419 0.0053 -0.8970
vn -0.2776 -0.0174 -0.9605
vn 0.4481 0.0156 -0.8939
vn 0.6667 -0.0109 -0.7452
vn 0.9969 0.0183 -0.0766
vn 0.9930 0.0134 -0.1170
vn -0.9715 0.0141 0.2366
vn -0.9840 0.0066 0.1781
vn -0.3382 -0.0087 0.9410
vn -0.2670 0.0040 0.9637
vn 0.7084 0.0041 0.7058
vn 0.6433 0.0159 0.7654
vn 0.9995 0.0094 0.0296
vn 0.9926 0.0183 0.1198
vn -0.0003 1.0000 -0.0000
vn 0.0048 1.0000 -0.0000
vn -0.0108 0.9999 0.0008
vn -0.0171 0.9999 0.0004
vn -0.0198 -0.9952 -0.0955
vn 0.0664 -0.9952 0.0720
vn 0.0308 -0.9936 -0.1087
vn -0.7731 0.6306 0.0684
vn -0.2345 0.7456 0.6237
vn -0.2218 0.5979 0.7703
vn 0.6025 0.5902 0.5373
vn -0.5407 0.8393 -0.0567
vn -0.3513 0.7912 0.5006
vn 0.0629 0.8040 0.5913
vn 0.4742 0.8798 -0.0333
vn 0.5939 0.8000 0.0856
vn 0.2304 0.8341 -0.5012
vn -0.2367 0.8328 -0.5004
vn -0.0175 0.9997 0.0151
vn -0.0179 0.9998 -0.0014
vn -0.0108 0.9999 -0.0011
vn -0.0008 1.0000 -0.0016
vn 0.0019 1.0000 -0.0019
vn -0.0162 0.9999 -0.0000
vn -0.0166 0.9999 -0.0000
vn -0.0145 0.9999 0.0080
vn -0.9991 0.0414 -0.0000
vn -0.9999 -0.0129 -0.0006
vn -0.2884 -0.9424 0.1691
vn 0.1346 -0.9670 -0.2163
vn 0.3632 -0.8243 -0.4343
vn 0.0803 -0.8217 -0.5643
vn 0.1060 -0.7906 -0.6031
vn -0.1257 -0.8697 -0.4773
vn -0.3206 -0.7422 -0.5885
vn -0.3347 -0.8748 -0.3502
vn -0.5643 -0.7553 -0.3331
vn -0.4456 -0.8788 -0.1707
vn -0.6387 -0.7664 0.0678
vn -0.6121 -0.7869 0.0782
vn -0.4427 -0.8117 0.3810
vn -0.7828 -0.3313 0.5268
vn -0.8866 -0.3932 -0.2436
vn -0.5675 -0.4328 -0.7004
vn 0.6246 0.0121 -0.7808
vn 0.4119 -0.6949 -0.5894
vn -0.9685 -0.2492 -0.0001
vn -0.9569 -0.2906 0.0002
vn -0.6042 -0.7968 -0.0000
vn -0.5840 -0.8118 -0.0002
vn -0.5205 -0.7571 -0.3947
vn -0.5251 -0.7532 -0.3961
vn -0.0006 -1.0000 -0.0001
vn -0.0006 -1.0000 -0.0002
vn -0.0001 -1.0000 -0.0005
vn -0.0000 -1.0000 -0.0000
vn 0.0001 -1.0000 0.0002
vn -0.0000 -1.0000 0.0002
vn 0.0007 -1.0000 -0.0003
vn -0.0000 -1.0000 0.0001
vn 0.9209 -0.3287 -0.2097
vn -0.7923 -0.1714 -0.5856
vn -0.7004 -0.4328 0.5675
vn -0.2446 -0.3934 0.8863
vn 0.4301 -0.5734 0.6973
vn 0.3629 -0.8246 0.4339
vn 0.1269 -0.9697 0.2089
vn -0.1873 -0.9765 -0.1066
vn -0.4250 -0.8339 -0.3522
vn -0.5674 -0.8195 -0.0809
vn -0.5989 -0.7944 -0.1013
vn -0.4892 -0.8603 0.1437
vn -0.5895 -0.7415 0.3205
vn -0.3502 -0.8748 0.3347
vn -0.3332 -0.7559 0.5636
vn -0.1908 -0.8667 0.4609
vn 0.0679 -0.7666 0.6385
vn 0.0746 -0.7792 0.6224
vn -0.5613 -0.7256 -0.3980
vn 0.6120 -0.4333 0.6616
vn 0.4082 -0.8420 0.3526
vn 0.5946 -0.5835 0.5531
vn 0.5491 -0.7559 0.3564
vn 0.6973 -0.5162 0.4973
vn 0.6017 -0.7442 0.2902
vn 0.6998 -0.6184 0.3574
vn 0.6395 -0.7378 0.2160
vn 0.7725 -0.5639 0.2920
vn 0.6976 -0.7018 0.1444
vn 0.7585 -0.6297 0.1676
vn 0.7043 -0.7077 0.0556
vn 0.8105 -0.5796 0.0848
vn 0.7250 -0.6879 -0.0349
vn 0.7683 -0.6394 -0.0300
vn 0.7028 -0.7006 -0.1233
vn 0.7955 -0.5936 -0.1217
vn 0.7034 -0.6761 -0.2195
vn 0.7442 -0.6288 -0.2253
vn 0.6465 -0.7028 -0.2969
vn 0.7389 -0.5931 -0.3198
vn 0.6254 -0.6760 -0.3898
vn 0.6567 -0.6374 -0.4030
vn 0.5548 -0.6980 -0.4528
vn 0.5943 -0.6495 -0.4743
vn 0.5025 -0.6816 -0.5319
vn 0.6250 -0.4755 -0.6191
vn 0.2250 -0.9433 -0.2439
vn 0.1386 -0.9878 -0.0715
vn 0.1530 -0.9876 -0.0351
vn 0.1559 -0.9878 0.0053
vn 0.1506 -0.9876 0.0442
vn 0.1412 -0.9863 0.0848
vn 0.1072 -0.9876 0.1150
vn -0.7062 -0.0194 -0.7078
vn -0.6060 -0.0325 -0.7948
vn -0.0296 -0.0242 -0.9993
vn -0.0022 -0.0260 -0.9997
vn 0.9998 -0.0114 0.0173
vn 0.9664 -0.0005 -0.2569
vn 0.8960 -0.0161 -0.4437
vn 0.8467 0.0004 0.5320
vn 0.8175 -0.0232 0.5754
vn -0.5573 -0.8257 -0.0869
vn -0.9117 -0.3935 0.1183
vn -0.4607 -0.7360 -0.4960
vn 0.0124 -0.7875 -0.6162
vn 0.0873 -0.7354 -0.6720
vn -0.7289 -0.3263 -0.6018
vn -0.4823 -0.7185 -0.5011
vn 0.4559 -0.8426 0.2867
vn 0.5409 -0.7582 0.3642
vn 0.6702 -0.6079 0.4257
vn -0.0002 -1.0000 -0.0000
vn 0.0001 -1.0000 -0.0001
vn 0.0001 -1.0000 -0.0000
vn -0.0002 -1.0000 0.0001
vn -0.0001 -1.0000 0.0002
vn -0.0001 -1.0000 -0.0000
vn -0.0000 -1.0000 -0.0002
vn -0.7899 -0.0000 0.6133
vn -0.8153 -0.0130 0.5788
vn -0.9937 -0.0086 0.1120
vn -0.9846 -0.0208 0.1738
vn -0.9249 -0.0104 -0.3800
vn -0.9439 -0.0000 -0.3303
vn -0.7257 -0.0000 -0.6881
vn -0.7071 -0.0059 -0.7071
vn -0.2490 -0.0259 -0.9682
vn -0.3303 -0.0078 -0.9439
vn 0.1727 -0.0222 -0.9847
vn 0.1120 -0.0096 -0.9937
vn 0.6156 -0.0199 -0.7878
vn 0.5854 -0.0125 -0.8106
vn 0.0717 -0.7025 -0.7081
vn -0.2156 -0.7029 -0.6778
vn -0.7110 -0.0294 -0.7025
vn -0.7608 -0.0357 -0.6480
vn -0.9861 -0.0323 -0.1632
vn -0.9993 -0.0103 0.0369
vn 0.3569 -0.6496 -0.6713
vn 0.3948 -0.5823 -0.7107
vn 0.2747 -0.6635 -0.6960
vn 0.2757 -0.6613 -0.6976
vn 0.1882 -0.6687 -0.7194
vn 0.1876 -0.6702 -0.7181
vn 0.1063 -0.6453 -0.7565
vn 0.0837 -0.7185 -0.6904
vn 0.0821 -0.9808 -0.1768
vn 0.0870 -0.7354 0.6720
vn 0.0067 -0.7928 0.6095
vn -0.7278 -0.3264 0.6031
vn -0.4730 -0.7197 0.5082
vn -0.0221 0.7030 -0.7108
vn -0.0949 0.7011 -0.7067
vn 0.0289 0.8865 -0.4618
vn -0.1449 0.8803 -0.4517
vn 0.0452 0.9843 -0.1704
vn -0.2358 0.9596 -0.1532
vn -0.2358 0.9597 0.1532
vn 0.0450 0.9843 0.1704
vn -0.1446 0.8804 0.4517
vn 0.0129 0.8871 0.4614
vn -0.0912 0.7015 0.7068
vn -0.0256 0.7031 0.7106
vn 0.6608 -0.6279 -0.4112
vn 0.9178 -0.3305 -0.2200
vn 0.0015 -0.0168 -0.9999
vn 0.0017 -0.0172 -0.9999
vn -0.0002 -0.0288 -0.9996
vn -0.7062 -0.0202 0.7078
vn -0.6086 -0.0331 0.7928
vn -0.0553 -0.0262 0.9981
vn 0.0369 -0.0159 0.9992
vn -0.0001 -1.0000 -0.0001
vn 0.0002 -1.0000 0.0003
vn 0.0001 -1.0000 0.0001
vn -0.8107 -0.0073 -0.5854
vn -0.7775 -0.0202 -0.6286
vn -0.9921 -0.0134 -0.1250
vn -0.9994 -0.0313 -0.0178
vn -0.9709 -0.0022 0.2395
vn -0.7703 -0.0270 0.6371
vn -0.6881 -0.0000 0.7256
vn -0.3303 -0.0000 0.9439
vn -0.3781 -0.0099 0.9257
vn 0.1120 -0.0147 0.9936
vn 0.1300 -0.0115 0.9914
vn 0.5788 -0.0107 0.8154
vn 0.5448 -0.0236 0.8383
vn 0.0827 -0.6956 -0.7137
vn -0.0001 -0.7296 -0.6839
vn 0.0015 -0.6575 -0.7534
vn 0.4892 -0.6633 0.5663
vn -0.1390 0.2417 -0.9603
vn -0.3942 0.0788 -0.9157
vn -0.4480 0.2284 -0.8643
vn -0.7009 0.3104 -0.6422
vn -0.6893 0.2293 -0.6872
vn -0.8837 0.3129 -0.3481
vn -0.8862 0.1105 -0.4499
vn -0.9625 0.2254 -0.1511
vn -0.0005 0.0619 -0.9981
vn 0.0019 -0.0510 -0.9987
vn 0.0629 0.2451 -0.9675
vn 0.1731 0.0722 -0.9823
vn 0.1844 0.1904 -0.9642
vn 0.3047 0.4334 -0.8481
vn 0.2997 0.2494 -0.9209
vn 0.4077 0.3477 -0.8443
vn 0.4075 0.2926 -0.8650
vn 0.5304 0.3210 -0.7846
vn 0.5299 0.1525 -0.8342
vn 0.6226 0.1501 -0.7680
vn 0.6211 0.2270 -0.7501
vn 0.6852 0.3862 -0.6175
vn 0.7027 0.2676 -0.6593
vn 0.7679 0.3238 -0.5527
vn 0.7717 0.3013 -0.5601
vn 0.8501 0.2852 -0.4426
vn 0.8663 0.1525 -0.4757
vn 0.9131 0.1503 -0.3792
vn 0.8961 0.2672 -0.3543
vn 0.9040 0.3678 -0.2178
vn 0.9282 0.2860 -0.2379
vn 0.9478 0.3046 -0.0947
vn 0.9806 0.1525 -0.1234
vn 0.9887 0.1499 -0.0063
vn 0.9792 0.2029 0.0004
vn 0.8961 0.4217 0.1387
vn 0.9585 0.2578 0.1215
vn 0.9118 0.3339 0.2390
vn 0.9212 0.3085 0.2370
vn 0.8776 0.3007 0.3734
vn 0.9187 0.1525 0.3642
vn 0.8724 0.1501 0.4651
vn 0.8497 0.2437 0.4676
vn 0.7474 0.3585 0.5593
vn 0.7766 0.2791 0.5648
vn 0.6732 0.3156 0.6687
vn 0.7201 0.1525 0.6769
vn 0.6356 0.1500 0.7574
vn 0.6231 0.2082 0.7539
vn 0.4646 0.4239 0.7775
vn 0.5159 0.2676 0.8138
vn 0.3891 0.3498 0.8522
vn 0.4075 0.2870 0.8669
vn 0.2710 0.3032 0.9136
vn 0.3050 0.1525 0.9401
vn 0.1966 0.1501 0.9689
vn 0.1816 0.2373 0.9543
vn 0.0187 0.3920 0.9198
vn 0.0598 0.1635 0.9847
vn -0.0035 -0.0082 1.0000
vn 0.0003 0.1639 0.9865
vn -0.9517 0.2626 0.1588
vn -0.8908 0.1119 0.4404
vn -0.8934 0.2216 0.3908
vn -0.6460 0.2981 0.7027
vn -0.6832 0.2307 0.6928
vn -0.3481 0.3129 0.8837
vn -0.4499 0.1105 0.8862
vn -0.1511 0.2254 0.9625
vn -0.0483 0.9631 -0.2648
vn 0.0002 0.9932 -0.1166
vn 0.0001 0.9946 -0.1033
vn 0.0341 0.9801 -0.1954
vn 0.0490 0.9963 -0.0710
vn 0.0479 0.9970 -0.0600
vn 0.0666 0.9972 -0.0330
vn 0.1435 0.9879 -0.0595
vn 0.1063 0.9943 -0.0092
vn 0.1955 0.9807 -0.0016
vn 0.1124 0.9925 0.0486
vn 0.1162 0.9913 0.0612
vn 0.0795 0.9935 0.0809
vn 0.0554 0.9963 0.0657
vn 0.0253 0.9956 0.0901
vn 0.0177 0.9963 0.0841
vn 0.0018 0.9913 0.1315
vn -0.0000 0.9913 0.1313
vn -0.0003 0.9966 0.0821
vn -0.0397 0.9694 0.2424
vn -0.0719 0.9846 0.1593
vn -0.0396 0.9968 -0.0701
vn -0.1593 0.9846 -0.0719
vn -0.2507 0.9674 -0.0365
vn -0.1035 0.9946 -0.0000
vn -0.1201 0.9928 -0.0001
vn -0.3049 0.9508 0.0544
vn -0.0829 0.9955 0.0460
vn 0.0432 0.9692 -0.2424
vn 0.2820 0.9525 -0.1149
vn 0.2781 0.9605 -0.0008
vn -0.1429 -0.0214 -0.9895
vn -0.1976 -0.0192 -0.9801
vn -0.4538 -0.0245 -0.8908
vn -0.5146 -0.0208 -0.8572
vn -0.7069 -0.0242 -0.7069
vn -0.7379 -0.0216 -0.6746
vn -0.8898 -0.0223 -0.4558
vn -0.8908 -0.0224 -0.4538
vn -0.9871 -0.0193 -0.1589
vn -0.9891 -0.0200 -0.1457
vn -0.5220 -0.7692 0.3686
vn -0.6056 -0.6430 0.4688
vn 0.9206 0.0061 -0.3905
vn 0.9919 -0.0321 0.1232
vn 0.9996 -0.0069 0.0278
vn 0.8415 -0.0218 0.5398
vn 0.8725 -0.0097 0.4886
vn 0.5454 -0.0179 0.8380
vn 0.5741 -0.0111 0.8187
vn 0.1511 -0.0149 0.9884
vn 0.1620 -0.0129 0.9867
vn -0.2722 -0.0127 0.9622
vn -0.3381 -0.0246 0.9408
vn -0.5951 -0.0017 0.8037
vn -0.7815 0.0058 0.6238
vn -0.8252 -0.0271 0.5641
vn -0.0000 -1.0000 0.0005
vn -0.0005 -1.0000 0.0002
vn -0.0005 -1.0000 0.0001
vn -0.0000 -1.0000 -0.0001
vn 0.0006 -1.0000 0.0003
vn -0.0220 -0.0065 0.9997
vn -0.3913 -0.0153 0.9201
vn 0.1633 -0.0197 0.9864
vn -0.1239 -0.4368 0.8910
vn 0.2591 -0.6287 0.7332
vn -0.0425 -0.4398 0.8971
vn 0.1651 -0.9332 0.3192
vn 0.3665 -0.4646 0.8061
vn 0.3072 -0.7398 0.5986
vn 0.2804 -0.5078 0.8146
vn 0.2439 -0.2423 0.9391
vn 0.1583 -0.4918 0.8562
vn 0.0493 -0.6395 0.7672
vn 0.0734 -0.9559 0.2845
vn 0.2571 -0.6479 0.7171
vn 0.1294 -0.6353 0.7614
vn 0.8911 -0.0178 0.4535
vn 0.9679 -0.0006 0.2512
vn 0.9998 -0.0112 -0.0166
vn 0.9611 -0.2667 0.0720
vn 0.6448 -0.6970 0.3137
vn 0.7586 -0.4249 -0.4939
vn 0.6136 -0.6631 -0.4286
vn 0.4945 -0.8125 -0.3088
vn -0.4580 -0.6761 0.5772
vn -0.1236 -0.8631 0.4897
vn 0.0999 -0.7326 0.6732
vn 0.1066 -0.7558 0.6461
vn 0.6373 -0.7374 -0.2236
vn 0.4892 -0.8690 0.0741
vn 0.8089 -0.5607 -0.1768
vn 0.5052 -0.8011 0.3208
vn 0.2683 -0.8746 0.4038
vn 0.5626 -0.7150 0.4150
vn -0.3626 -0.7746 0.5182
vn 0.8475 0.0026 -0.5308
vn 0.8167 -0.0232 -0.5766
vn 0.9154 -0.3358 0.2220
vn 0.6485 -0.6916 0.3179
vn 0.0025 -0.8186 0.5743
vn -0.0006 -0.7142 0.6999
vn -0.5596 -0.8280 0.0355
vn -0.6069 -0.7946 -0.0184
vn -0.4698 -0.7268 0.5011
vn -0.7457 -0.0474 0.6646
vn -0.9635 -0.0107 0.2674
vn -0.9996 -0.0295 -0.0052
vn -0.8780 -0.0192 -0.4783
vn -0.0001 -0.0189 0.9998
vn -0.0007 -0.0180 0.9998
vn -0.0018 -0.0239 0.9997
vn 0.6820 -0.0207 -0.7310
vn 0.5504 -0.0179 -0.8347
vn 0.6253 -0.0176 -0.7802
vn 0.6622 -0.0132 -0.7492
vn 0.5264 -0.0128 -0.8501
vn 0.4631 -0.0157 -0.8862
vn 0.4711 -0.0214 -0.8818
vn 0.1327 -0.0183 -0.9910
vn 0.1408 -0.0170 -0.9899
vn 0.2603 -0.0179 -0.9654
vn 0.2537 -0.0171 -0.9671
vn 0.3382 -0.0135 -0.9410
vn 0.3667 -0.0166 -0.9302
vn 0.4348 -0.0126 -0.9004
vn 0.6847 -0.0177 -0.7286
vn 0.7429 -0.0128 -0.6693
vn 0.7753 -0.0172 -0.6313
vn 0.8117 -0.0123 -0.5840
vn 0.8484 -0.0170 -0.5291
vn 0.8549 -0.0157 -0.5185
vn 0.9081 -0.0181 -0.4183
vn 0.9050 -0.0192 -0.4249
vn 0.9342 -0.0170 -0.3562
vn 0.9379 -0.0130 -0.3465
vn 0.9478 0.0144 -0.3185
vn 0.9627 -0.0143 -0.2702
vn 0.9712 0.0481 -0.2334
vn 0.9865 0.0314 -0.1608
vn 0.9920 -0.0475 -0.1168
vn 0.9987 0.0114 -0.0504
vn 0.9982 -0.0479 0.0352
vn 0.9978 0.0133 0.0657
vn 0.9872 0.0440 0.1531
vn 0.9826 -0.0026 0.1857
vn 0.9664 0.0435 0.2533
vn 0.9585 0.0045 0.2850
vn 0.9394 0.0232 0.3421
vn 0.9338 -0.0041 0.3578
vn 0.9285 -0.0166 0.3709
vn 0.9344 -0.0174 0.3559
vn 0.9373 -0.0189 0.3479
vn 0.9462 -0.0285 0.3224
vn 0.9629 -0.0029 0.2700
vn 0.9786 -0.0341 0.2027
vn 0.9908 -0.0062 0.1351
vn 0.9965 -0.0311 0.0781
vn 0.9995 -0.0096 0.0302
vn 0.9982 -0.0355 -0.0481
vn 0.9930 0.0016 -0.1177
vn 0.9844 -0.0294 -0.1733
vn 0.9675 -0.0027 -0.2530
vn 0.9544 -0.0328 -0.2967
vn 0.9298 -0.0154 -0.3677
vn 0.8998 -0.0208 0.4357
vn 0.8631 -0.0126 0.5049
vn 0.8385 -0.0170 0.5446
vn 0.8004 -0.0121 0.5993
vn 0.7648 -0.0165 0.6441
vn 0.7333 -0.0124 0.6798
vn 0.6719 -0.0212 0.7403
vn 0.6041 -0.0151 0.7968
vn 0.5129 -0.0121 0.8583
vn 0.5518 -0.0171 0.8338
vn 0.6297 -0.0099 0.7768
vn 0.6780 -0.0150 0.7349
vn 0.4149 -0.0124 0.9098
vn 0.4538 -0.0169 0.8909
vn 0.3559 -0.0156 0.9344
vn 0.3239 -0.0128 0.9460
vn 0.2530 -0.0199 0.9673
vn 0.1565 -0.0135 0.9876
vn 0.1488 -0.0144 0.9888
vn 0.0674 -0.0148 0.9976
vn 0.0449 -0.0180 0.9988
vn 0.4608 -0.0231 0.8872
vn 0.9433 -0.0175 -0.3314
vn -0.0655 0.5710 -0.8183
vn 0.1222 0.7161 -0.6872
vn 0.8662 0.4110 -0.2841
vn 0.8537 0.4264 -0.2990
vn 0.8427 0.4819 -0.2402
vn 0.8627 0.4714 -0.1833
vn 0.9541 0.2772 -0.1132
vn 0.8505 0.5196 -0.0816
vn 0.7465 0.6387 -0.1864
vn 0.8157 0.5779 0.0249
vn 0.8262 0.5627 0.0267
vn 0.8783 0.4160 0.2356
vn 0.8195 0.5260 0.2277
vn 0.7968 0.5887 0.1362
vn 0.9320 0.3402 0.1254
vn 0.0152 0.0019 0.9999
vn -0.0144 0.0014 0.9999
vn 0.6337 0.5563 0.5375
vn 0.9247 0.3783 -0.0419
vn 0.9715 -0.0167 0.2363
vn 0.9813 -0.0178 0.1916
vn 0.8218 -0.4649 0.3295
vn 0.8329 -0.4532 0.3176
vn 0.7900 -0.5732 0.2175
vn 0.9218 -0.3461 0.1744
vn 0.7795 -0.6219 0.0742
vn 0.9494 -0.3123 0.0345
vn 0.7240 -0.6650 0.1832
vn 0.7350 -0.6777 -0.0222
vn 0.7802 -0.6105 -0.1361
vn 0.8825 -0.4050 -0.2391
vn 0.8216 -0.5206 -0.2324
vn 0.9595 -0.2574 -0.1142
vn 0.9998 -0.0175 -0.0000
vn 0.9998 -0.0174 -0.0001
vn 0.9998 -0.0175 -0.0001
vn 0.9998 -0.0174 0.0001
vn 0.9998 -0.0174 -0.0000
vn 0.9998 -0.0175 0.0001
vn -0.9996 0.0175 -0.0231
vn -0.9996 0.0180 -0.0216
vn -0.9998 0.0174 -0.0000
vn -0.9998 0.0175 -0.0000
vn -0.8194 -0.3240 -0.4729
vn -0.9996 0.0175 0.0231
vn -0.9993 0.0329 -0.0198
vn -0.9680 0.1690 0.1856
vn -0.8194 -0.3240 0.4729
vn -0.9942 0.0183 -0.1058
vn -0.9927 0.0121 -0.1200
vn -0.9758 -0.1841 -0.1176
vn -0.7623 0.4644 0.4509
vn -0.9520 0.2968 0.0751
vn -0.9802 0.0321 -0.1952
vn -0.9998 0.0185 -0.0002
vn -0.9998 0.0187 -0.0000
vn -0.9998 0.0195 0.0005
vn -0.9998 0.0196 0.0003
vn -0.9804 0.0330 0.1943
vn -0.9520 0.2968 -0.0751
vn -0.7623 0.4643 -0.4509
vn -0.9999 0.0052 0.0134
vn -0.9999 0.0110 0.0002
vn 0.5371 0.0009 0.8435
vn -0.4737 0.7624 0.4409
vn 0.4960 0.8222 -0.2793
vn -0.0496 0.8112 -0.5826
vn -0.0000 -0.0000 -1.0000
vn 0.0989 0.0046 -0.9951
vn 0.0137 0.0152 -0.9998
vn 1.0000 -0.0077 -0.0000
vn 1.0000 -0.0058 -0.0003
vn -0.0000 -0.0000 1.0000
vn 0.0870 0.0042 0.9962
vn -0.0130 0.0171 0.9998
vn 0.0779 0.8090 0.5826
vn -0.1154 0.8580 0.5005
vn 0.1532 0.8326 -0.5323
vn 0.0520 0.9986 0.0008
vn -0.0047 1.0000 -0.0008
vn -0.0214 0.7253 0.6881
vn 0.0240 0.6909 0.7226
vn 0.9999 -0.0172 -0.0000
vn 0.9998 -0.0176 -0.0000
vn 0.9999 -0.0168 -0.0000
vn 0.9998 -0.0173 -0.0000
vn 0.9999 -0.0169 -0.0000
vn 0.9999 -0.0167 -0.0000
vn 0.9998 -0.0174 -0.0002
vn 0.9998 -0.0174 0.0002
vn 0.9998 -0.0182 0.0001
vn 0.9999 -0.0173 -0.0000
vn 0.9998 -0.0179 -0.0000
vn 0.9999 -0.0158 0.0003
vn 0.9999 -0.0172 0.0003
vn 0.9999 -0.0166 -0.0003
vn 0.9998 -0.0177 -0.0000
vn 0.9998 -0.0177 -0.0001
vn 0.9999 -0.0166 -0.0001
vn 0.9998 -0.0173 -0.0001
vn 0.9998 -0.0174 0.0013
vn 0.9998 -0.0176 -0.0001
vn 0.9999 -0.0164 -0.0000
vn 0.9998 -0.0183 -0.0000
vn 0.9998 -0.0177 -0.0005
vn 0.9998 -0.0178 -0.0001
vn 0.9998 -0.0174 0.0003
vn 0.9998 -0.0174 -0.0003
vn -0.0396 -0.9992 0.0007
vn 0.0047 -1.0000 -0.0007
vn -0.0245 -0.7222 0.6912
vn 0.0221 -0.6885 0.7249
vn 0.0222 0.0005 -0.9998
vn -0.0222 -0.0005 -0.9998
vn 0.0239 0.6985 -0.7153
vn 0.0008 0.7153 -0.6988
vn -0.0008 -0.7153 -0.6988
vn -0.0239 -0.6985 -0.7152
vn 0.0222 0.0007 0.9998
vn -0.0345 -0.0005 0.9994
vn 0.0718 -0.0001 -0.9974
vn -0.0786 -0.0024 -0.9969
vn 0.6421 -0.5576 -0.5261
vn 0.9129 -0.4032 0.0640
vn 0.9582 -0.0175 -0.2856
vn 0.9856 -0.0202 -0.1681
vn -0.0586 -0.7955 -0.6031
vn 0.0975 -0.7093 -0.6981
vn -0.0299 0.9990 -0.0328
vn 0.0326 0.9995 -0.0002
vn 0.0254 0.9997 0.0002
vn 0.0170 0.9999 -0.0001
vn 0.0133 0.9999 -0.0000
vn 0.0442 0.9990 0.0003
vn -0.0862 -0.9950 0.0507
vn 0.0064 -1.0000 0.0004
vn 0.0102 -0.9999 0.0008
vn -0.0104 -0.9999 -0.0002
vn -0.0179 -0.9998 0.0001
vn -0.0194 -0.9998 0.0001
vn -0.0312 0.7932 0.6082
vn 0.1107 0.7148 0.6905
vn 0.0928 -0.7055 0.7026
vn -0.0664 -0.5692 0.8195
vn -0.6402 0.0010 -0.7682
vn -0.2189 -0.0339 -0.9752
vn -0.3145 -0.0086 -0.9492
vn 0.2011 -0.0187 -0.9794
vn 0.1620 -0.0109 -0.9867
vn 0.5867 -0.0154 -0.8097
vn 0.5741 -0.0125 -0.8187
vn 0.8687 -0.0132 -0.4951
vn 0.8724 -0.0145 -0.4885
vn 0.9956 -0.0112 -0.0927
vn 0.9996 -0.0263 -0.0027
vn 0.9508 -0.0006 0.3098
vn -0.7816 0.0051 -0.6238
vn -0.8214 -0.0256 -0.5698
vn -0.3493 -0.0171 -0.9369
vn 0.0022 -0.0089 -1.0000
vn 0.1151 -0.0168 -0.9932
vn 0.8064 -0.5272 0.2679
vn 0.5103 -0.8582 -0.0552
vn 0.5471 -0.7581 -0.3548
vn 0.6375 -0.6751 -0.3713
vn 0.2779 -0.8744 -0.3978
vn 0.1379 -0.7437 -0.6541
vn -0.3626 -0.7918 -0.4915
vn -0.3661 -0.7225 -0.5864
vn -0.1151 -0.8780 -0.4646
vn 0.1276 -0.7589 -0.6386
vn 0.5838 -0.8048 0.1072
vn 0.6305 -0.0046 -0.7762
vn -0.9891 -0.0213 0.1457
vn -0.9803 -0.0191 0.1967
vn -0.8908 -0.0245 0.4538
vn -0.8616 -0.0213 0.5071
vn -0.7069 -0.0242 0.7069
vn -0.6759 -0.0216 0.7366
vn -0.4558 -0.0223 0.8898
vn -0.4539 -0.0224 0.8908
vn -0.1570 -0.0193 0.9874
vn -0.1363 -0.0204 0.9905
vn 0.6985 0.0008 0.7156
s 0
f 3//1 11//1 2//1
f 2//2 11//2 1//2
f 4//3 5//3 12//3
f 4//4 12//4 3//4
f 3//5 12//5 11//5
f 13//6 6//6 14//6
f 14//7 6//7 7//7
f 14//8 7//8 15//8
f 15//9 7//9 8//9
f 15//10 8//10 16//10
f 16//11 8//11 9//11
f 16//12 9//12 17//12
f 17//13 9//13 10//13
f 17//14 10//14 18//14
f 18//15 10//15 1//15
f 18//16 1//16 19//16
f 19//17 1//17 11//17
f 19//18 11//18 20//18
f 20//18 11//18 12//18
f 20//19 12//19 21//19
f 21//20 12//20 5//20
f 21//21 5//21 13//21
f 13//22 5//22 6//22
f 24//23 25//23 26//23
f 26//24 25//24 27//24
f 26//25 27//25 28//25
f 29//26 30//26 28//26
f 30//27 29//27 31//27
f 36//28 23//28 35//28
f 35//29 23//29 24//29
f 35//30 24//30 34//30
f 34//31 24//31 26//31
f 34//32 26//32 42//32
f 42//33 26//33 28//33
f 42//34 28//34 41//34
f 41//35 28//35 30//35
f 41//36 30//36 40//36
f 40//37 30//37 31//37
f 40//38 31//38 39//38
f 39//39 31//39 32//39
f 39//40 32//40 38//40
f 38//41 32//41 33//41
f 38//42 33//42 37//42
f 37//43 33//43 22//43
f 37//44 22//44 36//44
f 36//45 22//45 23//45
f 52//46 43//46 53//46
f 53//47 43//47 44//47
f 53//48 44//48 54//48
f 54//49 44//49 45//49
f 54//50 45//50 55//50
f 55//51 45//51 46//51
f 55//52 46//52 56//52
f 56//53 46//53 47//53
f 56//54 47//54 57//54
f 57//54 47//54 48//54
f 57//55 48//55 58//55
f 58//56 48//56 49//56
f 58//57 49//57 59//57
f 59//58 49//58 50//58
f 59//59 50//59 60//59
f 60//60 50//60 51//60
f 60//61 51//61 52//61
f 52//62 51//62 43//62
f 61//63 55//63 56//63
f 61//64 56//64 62//64
f 62//65 56//65 57//65
f 62//66 57//66 63//66
f 63//67 57//67 58//67
f 66//68 67//68 68//68
f 68//68 67//68 69//68
f 68//68 69//68 65//68
f 65//68 69//68 64//68
f 66//68 70//68 67//68
f 65//68 71//68 68//68
f 72//69 73//69 74//69
f 74//70 73//70 75//70
f 75//71 73//71 76//71
f 76//72 73//72 77//72
f 76//73 77//73 78//73
f 78//74 77//74 79//74
f 79//75 77//75 80//75
f 80//76 77//76 81//76
f 73//77 82//77 83//77
f 73//78 83//78 84//78
f 84//79 83//79 85//79
f 85//80 83//80 86//80
f 86//81 83//81 87//81
f 87//82 83//82 88//82
f 87//83 88//83 89//83
f 89//84 88//84 90//84
f 73//85 91//85 82//85
f 82//86 91//86 92//86
f 82//87 92//87 419//87
f 419//88 92//88 412//88
f 90//89 93//89 89//89
f 85//90 94//90 84//90
f 84//91 94//91 95//91
f 84//92 95//92 96//92
f 96//93 95//93 97//93
f 451//94 98//94 97//94
f 97//95 98//95 96//95
f 73//96 84//96 77//96
f 77//97 84//97 99//97
f 77//98 99//98 100//98
f 100//99 99//99 571//99
f 100//100 571//100 101//100
f 76//101 78//101 102//101
f 102//102 78//102 103//102
f 102//103 103//103 104//103
f 104//104 103//104 105//104
f 104//105 105//105 106//105
f 106//106 105//106 107//106
f 108//107 109//107 110//107
f 110//108 109//108 111//108
f 111//109 109//109 112//109
f 111//110 112//110 113//110
f 113//111 112//111 114//111
f 113//112 114//112 115//112
f 116//113 115//113 117//113
f 117//114 115//114 114//114
f 118//115 119//115 120//115
f 119//116 118//116 121//116
f 121//117 122//117 119//117
f 122//118 123//118 119//118
f 123//119 124//119 119//119
f 119//120 124//120 120//120
f 125//121 126//121 127//121
f 127//122 126//122 128//122
f 127//123 128//123 129//123
f 129//124 128//124 130//124
f 125//125 129//125 131//125
f 131//126 129//126 130//126
f 125//127 127//127 129//127
f 117//128 132//128 116//128
f 116//129 132//129 133//129
f 133//130 132//130 134//130
f 133//131 134//131 135//131
f 135//132 134//132 136//132
f 135//133 136//133 137//133
f 138//134 139//134 140//134
f 140//135 139//135 141//135
f 140//136 141//136 142//136
f 142//137 143//137 140//137
f 140//138 143//138 145//138
f 144//139 145//139 146//139
f 146//140 145//140 147//140
f 147//141 145//141 143//141
f 148//142 149//142 150//142
f 150//143 149//143 151//143
f 150//144 151//144 152//144
f 152//145 151//145 153//145
f 152//146 153//146 154//146
f 154//147 153//147 202//147
f 149//148 148//148 155//148
f 155//149 148//149 156//149
f 157//150 158//150 159//150
f 159//151 158//151 160//151
f 159//152 160//152 161//152
f 161//153 160//153 162//153
f 161//154 162//154 156//154
f 156//155 162//155 155//155
f 163//156 114//156 112//156
f 163//157 112//157 109//157
f 114//158 163//158 117//158
f 117//159 163//159 164//159
f 117//160 164//160 132//160
f 132//161 164//161 134//161
f 134//162 164//162 136//162
f 136//163 164//163 141//163
f 136//164 141//164 139//164
f 141//165 164//165 142//165
f 142//166 164//166 165//166
f 142//167 165//167 143//167
f 143//168 165//168 147//168
f 147//169 165//169 154//169
f 147//170 154//170 146//170
f 146//170 154//170 166//170
f 146//164 166//164 144//164
f 144//164 166//164 167//164
f 167//164 166//164 168//164
f 169//171 148//171 165//171
f 165//172 148//172 150//172
f 165//173 150//173 152//173
f 148//174 169//174 156//174
f 156//175 169//175 161//175
f 161//176 169//176 159//176
f 159//177 169//177 157//177
f 157//178 169//178 170//178
f 157//179 170//179 166//179
f 166//180 170//180 171//180
f 166//170 171//170 168//170
f 168//181 171//181 172//181
f 168//164 172//164 167//164
f 167//164 172//164 173//164
f 167//170 173//170 143//170
f 143//164 173//164 142//164
f 142//170 173//170 138//170
f 142//164 138//164 139//164
f 170//182 174//182 171//182
f 171//183 174//183 108//183
f 171//164 108//164 136//164
f 136//164 108//164 114//164
f 136//164 114//164 117//164
f 174//184 163//184 108//184
f 108//185 163//185 109//185
f 108//164 109//164 114//164
f 114//170 109//170 112//170
f 117//170 132//170 136//170
f 136//170 132//170 134//170
f 139//170 141//170 142//170
f 147//164 146//164 143//164
f 143//170 146//170 144//170
f 143//170 144//170 167//170
f 166//164 154//164 157//164
f 157//164 154//164 156//164
f 157//164 156//164 159//164
f 159//170 156//170 161//170
f 152//170 150//170 154//170
f 154//170 150//170 148//170
f 154//164 148//164 156//164
f 152//186 154//186 165//186
f 136//164 139//164 171//164
f 171//170 139//170 138//170
f 171//164 138//164 173//164
f 173//164 172//164 171//164
f 175//187 176//187 125//187
f 125//188 176//188 126//188
f 126//189 176//189 177//189
f 126//190 177//190 128//190
f 128//191 177//191 178//191
f 128//192 178//192 130//192
f 130//193 178//193 131//193
f 131//194 178//194 179//194
f 180//195 181//195 121//195
f 121//196 181//196 122//196
f 122//197 181//197 182//197
f 122//198 182//198 123//198
f 123//199 182//199 124//199
f 124//200 182//200 183//200
f 124//201 183//201 120//201
f 120//202 183//202 184//202
f 187//203 191//203 136//203
f 187//204 136//204 171//204
f 192//205 137//205 191//205
f 191//206 137//206 136//206
f 180//207 184//207 193//207
f 193//208 184//208 183//208
f 193//209 183//209 194//209
f 180//210 193//210 181//210
f 181//211 193//211 182//211
f 182//212 193//212 194//212
f 182//213 194//213 183//213
f 176//214 175//214 195//214
f 195//215 175//215 196//215
f 196//216 197//216 195//216
f 179//217 178//217 197//217
f 197//218 178//218 195//218
f 177//219 195//219 178//219
f 176//220 195//220 177//220
f 201//221 200//221 202//221
f 198//222 205//222 199//222
f 199//223 205//223 206//223
f 199//224 206//224 190//224
f 190//225 166//225 199//225
f 199//226 166//226 154//226
f 199//227 154//227 200//227
f 200//228 154//228 202//228
f 242//68 243//68 234//68
f 234//68 243//68 244//68
f 234//68 244//68 233//68
f 233//68 244//68 245//68
f 233//68 245//68 246//68
f 246//68 245//68 247//68
f 246//68 247//68 248//68
f 242//68 249//68 243//68
f 250//68 251//68 248//68
f 248//68 251//68 252//68
f 248//68 252//68 246//68
f 251//68 250//68 253//68
f 253//68 250//68 254//68
f 253//68 254//68 255//68
f 255//68 254//68 256//68
f 255//68 256//68 257//68
f 257//68 256//68 258//68
f 251//68 259//68 252//68
f 252//68 259//68 260//68
f 252//68 260//68 261//68
f 240//68 262//68 261//68
f 261//68 262//68 263//68
f 261//68 263//68 264//68
f 264//68 263//68 265//68
f 265//68 263//68 266//68
f 265//68 266//68 267//68
f 267//68 266//68 268//68
f 267//68 268//68 269//68
f 269//68 268//68 235//68
f 269//68 235//68 241//68
f 239//68 270//68 240//68
f 240//68 270//68 271//68
f 240//68 271//68 262//68
f 238//68 272//68 239//68
f 239//68 272//68 273//68
f 239//68 273//68 270//68
f 272//68 238//68 274//68
f 274//68 238//68 237//68
f 274//68 237//68 236//68
f 274//68 236//68 275//68
f 275//68 236//68 235//68
f 275//68 235//68 276//68
f 276//68 235//68 268//68
f 277//68 278//68 241//68
f 241//68 278//68 279//68
f 241//68 279//68 269//68
f 277//68 280//68 278//68
f 278//68 280//68 281//68
f 281//68 280//68 282//68
f 281//68 282//68 283//68
f 283//68 282//68 284//68
f 283//68 284//68 285//68
f 285//68 284//68 286//68
f 285//68 286//68 287//68
f 287//68 286//68 288//68
f 288//68 286//68 289//68
f 288//68 289//68 264//68
f 264//68 289//68 261//68
f 261//68 289//68 252//68
f 252//68 289//68 290//68
f 252//68 290//68 291//68
f 291//68 290//68 292//68
f 291//68 292//68 293//68
f 293//68 294//68 291//68
f 291//68 294//68 217//68
f 291//68 217//68 218//68
f 217//68 294//68 216//68
f 216//68 294//68 210//68
f 216//68 210//68 207//68
f 207//68 210//68 209//68
f 207//68 209//68 208//68
f 291//68 218//68 295//68
f 295//68 218//68 219//68
f 295//68 219//68 220//68
f 220//68 215//68 295//68
f 295//68 215//68 214//68
f 295//68 214//68 221//68
f 215//68 211//68 214//68
f 214//68 211//68 213//68
f 213//68 211//68 212//68
f 221//68 222//68 295//68
f 295//68 222//68 223//68
f 295//68 223//68 224//68
f 224//68 225//68 295//68
f 295//68 225//68 226//68
f 295//68 226//68 227//68
f 227//68 228//68 295//68
f 295//68 228//68 229//68
f 295//68 229//68 230//68
f 295//68 230//68 246//68
f 246//68 230//68 231//68
f 246//68 231//68 232//68
f 232//68 233//68 246//68
f 296//229 297//229 298//229
f 298//230 297//230 299//230
f 302//231 72//231 74//231
f 106//232 303//232 104//232
f 104//233 303//233 304//233
f 104//234 304//234 102//234
f 102//235 304//235 305//235
f 102//236 305//236 306//236
f 102//237 306//237 76//237
f 76//238 306//238 307//238
f 76//239 307//239 75//239
f 75//240 307//240 308//240
f 75//241 308//241 74//241
f 74//242 308//242 309//242
f 74//243 309//243 302//243
f 302//244 309//244 417//244
f 308//245 307//245 310//245
f 310//246 307//246 306//246
f 311//247 304//247 375//247
f 375//248 304//248 303//248
f 164//249 312//249 165//249
f 165//250 312//250 313//250
f 313//251 312//251 107//251
f 107//252 312//252 106//252
f 315//253 314//253 90//253
f 90//254 314//254 93//254
f 316//255 317//255 318//255
f 318//256 317//256 319//256
f 318//257 319//257 320//257
f 317//258 316//258 321//258
f 321//258 316//258 322//258
f 322//258 316//258 323//258
f 322//258 323//258 324//258
f 324//258 323//258 325//258
f 324//258 325//258 326//258
f 326//258 325//258 327//258
f 326//258 327//258 328//258
f 328//258 327//258 329//258
f 328//258 329//258 330//258
f 330//258 329//258 331//258
f 330//258 331//258 332//258
f 332//258 331//258 333//258
f 333//259 331//259 334//259
f 333//260 334//260 335//260
f 335//261 334//261 336//261
f 335//262 336//262 337//262
f 337//262 336//262 319//262
f 337//258 319//258 338//258
f 338//258 319//258 317//258
f 339//263 413//263 340//263
f 573//264 300//264 341//264
f 344//265 343//265 345//265
f 344//266 345//266 346//266
f 347//267 348//267 349//267
f 347//268 349//268 105//268
f 105//269 349//269 107//269
f 81//270 350//270 80//270
f 80//271 350//271 341//271
f 80//272 341//272 79//272
f 79//273 341//273 342//273
f 79//274 342//274 343//274
f 79//275 343//275 78//275
f 78//276 343//276 344//276
f 78//277 344//277 103//277
f 103//278 344//278 346//278
f 103//279 346//279 105//279
f 105//280 346//280 347//280
f 350//281 573//281 341//281
f 352//282 353//282 351//282
f 351//283 353//283 354//283
f 354//284 353//284 97//284
f 354//285 97//285 355//285
f 355//286 97//286 356//286
f 355//287 356//287 357//287
f 357//288 356//288 95//288
f 357//289 95//289 358//289
f 358//290 95//290 359//290
f 358//291 359//291 360//291
f 360//292 359//292 94//292
f 360//293 94//293 361//293
f 361//294 94//294 362//294
f 361//295 362//295 363//295
f 363//296 362//296 85//296
f 363//297 85//297 364//297
f 364//298 85//298 365//298
f 364//299 365//299 366//299
f 366//300 365//300 86//300
f 366//301 86//301 367//301
f 367//302 86//302 368//302
f 367//303 368//303 369//303
f 369//304 368//304 87//304
f 369//305 87//305 370//305
f 370//306 87//306 89//306
f 370//307 89//307 480//307
f 480//308 89//308 371//308
f 93//309 371//309 89//309
f 87//310 368//310 86//310
f 86//311 365//311 85//311
f 85//312 362//312 94//312
f 94//313 359//313 95//313
f 95//314 356//314 97//314
f 97//315 353//315 451//315
f 164//316 163//316 372//316
f 164//317 372//317 373//317
f 373//318 372//318 374//318
f 373//319 374//319 375//319
f 334//320 340//320 413//320
f 413//321 336//321 334//321
f 413//322 414//322 336//322
f 334//323 331//323 340//323
f 340//324 331//324 415//324
f 72//325 302//325 416//325
f 416//326 302//326 417//326
f 416//327 418//327 72//327
f 303//328 106//328 373//328
f 303//329 373//329 375//329
f 312//330 164//330 373//330
f 106//331 312//331 373//331
f 419//332 412//332 339//332
f 419//333 339//333 415//333
f 415//334 339//334 340//334
f 163//258 420//258 372//258
f 372//335 420//335 374//335
f 374//336 420//336 421//336
f 374//336 421//336 422//336
f 374//337 422//337 423//337
f 423//258 422//258 424//258
f 423//258 424//258 425//258
f 425//258 424//258 426//258
f 425//258 426//258 427//258
f 427//258 426//258 428//258
f 427//258 428//258 429//258
f 429//258 428//258 430//258
f 429//258 430//258 431//258
f 431//258 430//258 432//258
f 432//258 430//258 433//258
f 432//262 433//262 434//262
f 434//338 433//338 435//338
f 434//339 435//339 436//339
f 434//340 436//340 437//340
f 434//341 437//341 438//341
f 438//258 437//258 439//258
f 421//258 420//258 440//258
f 440//258 420//258 441//258
f 440//258 441//258 442//258
f 442//258 441//258 443//258
f 442//258 443//258 444//258
f 444//258 443//258 437//258
f 444//258 437//258 436//258
f 417//342 309//342 434//342
f 434//343 309//343 432//343
f 432//344 309//344 431//344
f 431//345 309//345 308//345
f 431//346 308//346 310//346
f 431//347 310//347 429//347
f 429//348 310//348 306//348
f 429//349 306//349 427//349
f 427//350 306//350 305//350
f 427//351 305//351 425//351
f 425//352 305//352 304//352
f 425//353 304//353 423//353
f 423//354 304//354 311//354
f 423//355 311//355 374//355
f 445//356 371//356 93//356
f 93//357 314//357 445//357
f 439//358 418//358 438//358
f 438//359 418//359 416//359
f 438//360 416//360 417//360
f 438//361 417//361 434//361
f 414//362 412//362 446//362
f 446//363 412//363 447//363
f 446//364 447//364 448//364
f 448//365 447//365 92//365
f 448//366 92//366 449//366
f 449//367 92//367 91//367
f 449//368 91//368 450//368
f 450//369 91//369 73//369
f 92//370 447//370 412//370
f 452//371 453//371 349//371
f 349//372 453//372 107//372
f 165//373 313//373 453//373
f 107//374 453//374 313//374
f 145//375 144//375 188//375
f 188//376 144//376 167//376
f 188//377 167//377 189//377
f 189//378 167//378 168//378
f 189//379 168//379 190//379
f 190//380 168//380 166//380
f 171//381 172//381 187//381
f 187//382 172//382 186//382
f 186//383 172//383 173//383
f 186//384 173//384 185//384
f 185//385 173//385 138//385
f 185//386 138//386 140//386
f 339//387 412//387 414//387
f 414//388 413//388 339//388
f 439//389 454//389 455//389
f 439//390 455//390 450//390
f 450//391 418//391 439//391
f 169//392 165//392 456//392
f 456//393 165//393 453//393
f 456//394 453//394 452//394
f 456//395 452//395 457//395
f 458//262 459//262 301//262
f 301//340 459//340 460//340
f 301//396 460//396 461//396
f 301//396 461//396 462//396
f 462//258 461//258 463//258
f 462//258 463//258 464//258
f 464//258 463//258 465//258
f 464//258 465//258 466//258
f 464//258 466//258 467//258
f 467//258 466//258 468//258
f 467//258 468//258 469//258
f 469//258 468//258 470//258
f 469//258 470//258 471//258
f 471//337 470//337 457//337
f 457//397 470//397 472//397
f 457//398 472//398 473//398
f 457//262 473//262 474//262
f 457//335 474//335 456//335
f 456//258 474//258 169//258
f 460//258 459//258 475//258
f 475//258 459//258 476//258
f 475//258 476//258 477//258
f 477//258 476//258 478//258
f 477//258 478//258 479//258
f 479//258 478//258 474//258
f 479//258 474//258 473//258
f 301//399 462//399 300//399
f 300//400 462//400 341//400
f 341//401 462//401 342//401
f 342//402 462//402 464//402
f 342//403 464//403 343//403
f 343//404 464//404 467//404
f 343//405 467//405 345//405
f 345//406 467//406 469//406
f 345//407 469//407 346//407
f 346//408 469//408 471//408
f 346//409 471//409 347//409
f 347//410 471//410 457//410
f 347//411 457//411 348//411
f 480//412 371//412 445//412
f 73//413 72//413 418//413
f 73//414 418//414 450//414
f 349//415 348//415 452//415
f 399//416 481//416 398//416
f 398//417 481//417 482//417
f 398//418 482//418 397//418
f 397//419 482//419 483//419
f 397//420 483//420 396//420
f 396//421 483//421 299//421
f 396//422 299//422 395//422
f 395//423 299//423 297//423
f 399//424 400//424 481//424
f 481//425 400//425 484//425
f 484//426 400//426 401//426
f 484//427 401//427 485//427
f 485//428 401//428 402//428
f 485//429 402//429 486//429
f 486//430 402//430 403//430
f 486//431 403//431 487//431
f 487//432 403//432 404//432
f 487//433 404//433 488//433
f 488//434 404//434 405//434
f 488//435 405//435 489//435
f 489//436 405//436 406//436
f 489//437 406//437 490//437
f 490//438 406//438 407//438
f 490//439 407//439 491//439
f 491//440 407//440 408//440
f 491//441 408//441 492//441
f 492//442 408//442 409//442
f 492//443 409//443 493//443
f 493//444 409//444 410//444
f 493//445 410//445 494//445
f 494//446 410//446 411//446
f 494//447 411//447 495//447
f 495//448 411//448 394//448
f 495//449 394//449 496//449
f 496//450 394//450 393//450
f 496//451 393//451 497//451
f 497//452 393//452 392//452
f 497//453 392//453 498//453
f 498//454 392//454 391//454
f 498//455 391//455 499//455
f 499//456 391//456 390//456
f 499//457 390//457 500//457
f 500//458 390//458 389//458
f 500//459 389//459 501//459
f 501//460 389//460 388//460
f 501//461 388//461 502//461
f 502//462 388//462 387//462
f 502//463 387//463 503//463
f 503//464 387//464 386//464
f 503//465 386//465 504//465
f 504//466 386//466 385//466
f 504//467 385//467 505//467
f 505//468 385//468 384//468
f 505//469 384//469 506//469
f 506//470 384//470 383//470
f 506//471 383//471 507//471
f 507//472 383//472 382//472
f 507//473 382//473 508//473
f 508//474 382//474 381//474
f 509//475 508//475 380//475
f 380//476 508//476 381//476
f 296//477 298//477 376//477
f 376//478 298//478 377//478
f 377//479 298//479 510//479
f 377//480 510//480 511//480
f 377//481 511//481 378//481
f 378//482 511//482 509//482
f 378//483 509//483 379//483
f 379//484 509//484 380//484
f 512//485 481//485 454//485
f 454//486 481//486 484//486
f 454//487 484//487 455//487
f 455//488 484//488 485//488
f 487//489 488//489 513//489
f 513//490 488//490 489//490
f 491//491 492//491 514//491
f 514//492 492//492 493//492
f 494//493 495//493 515//493
f 515//494 495//494 496//494
f 516//495 498//495 499//495
f 516//496 499//496 500//496
f 517//497 501//497 502//497
f 517//498 502//498 503//498
f 518//499 505//499 506//499
f 518//500 506//500 507//500
f 519//501 507//501 508//501
f 519//502 508//502 520//502
f 520//503 508//503 509//503
f 520//504 509//504 521//504
f 521//505 509//505 511//505
f 481//506 512//506 482//506
f 299//507 483//507 522//507
f 299//508 522//508 174//508
f 299//509 174//509 170//509
f 299//510 170//510 298//510
f 298//511 170//511 523//511
f 298//512 523//512 510//512
f 524//513 455//513 485//513
f 525//514 514//514 493//514
f 526//515 515//515 496//515
f 439//516 437//516 454//516
f 454//517 437//517 512//517
f 512//518 437//518 443//518
f 512//519 443//519 482//519
f 482//520 443//520 441//520
f 482//521 441//521 483//521
f 483//522 441//522 522//522
f 522//523 441//523 420//523
f 522//524 420//524 174//524
f 174//525 420//525 163//525
f 98//526 451//526 527//526
f 527//527 451//527 528//527
f 529//528 530//528 531//528
f 531//529 530//529 532//529
f 531//530 532//530 533//530
f 533//531 532//531 534//531
f 533//532 534//532 535//532
f 535//533 534//533 536//533
f 535//534 536//534 537//534
f 537//535 536//535 538//535
f 537//536 538//536 539//536
f 539//537 538//537 540//537
f 539//538 540//538 541//538
f 541//539 540//539 527//539
f 542//540 541//540 528//540
f 528//541 541//541 527//541
f 543//542 544//542 542//542
f 542//543 544//543 545//543
f 542//544 545//544 541//544
f 541//258 545//258 546//258
f 541//258 546//258 547//258
f 541//258 547//258 539//258
f 539//258 547//258 548//258
f 539//258 548//258 537//258
f 537//258 548//258 549//258
f 537//258 549//258 535//258
f 535//258 549//258 550//258
f 535//258 550//258 533//258
f 533//258 550//258 551//258
f 533//258 551//258 531//258
f 531//258 551//258 552//258
f 531//258 552//258 553//258
f 531//336 553//336 554//336
f 554//545 553//545 555//545
f 554//546 555//546 556//546
f 556//258 557//258 544//258
f 544//258 557//258 558//258
f 544//258 558//258 545//258
f 555//258 557//258 556//258
f 559//547 543//547 542//547
f 542//548 528//548 559//548
f 559//549 352//549 543//549
f 451//550 559//550 528//550
f 451//551 353//551 352//551
f 352//552 559//552 451//552
f 100//553 101//553 560//553
f 100//554 560//554 561//554
f 100//555 561//555 562//555
f 562//556 563//556 564//556
f 564//557 563//557 565//557
f 564//558 565//558 566//558
f 566//559 567//559 77//559
f 77//560 100//560 564//560
f 564//561 100//561 562//561
f 566//562 77//562 564//562
f 561//563 568//563 556//563
f 556//564 568//564 554//564
f 554//565 568//565 569//565
f 570//566 569//566 568//566
f 570//567 560//567 101//567
f 529//568 569//568 570//568
f 529//569 570//569 571//569
f 571//570 570//570 101//570
f 527//571 540//571 96//571
f 540//572 538//572 96//572
f 96//573 538//573 84//573
f 538//574 536//574 84//574
f 571//575 530//575 529//575
f 532//576 530//576 99//576
f 99//577 530//577 571//577
f 534//578 532//578 99//578
f 536//579 534//579 84//579
f 84//580 534//580 99//580
f 98//581 527//581 96//581
f 554//582 569//582 531//582
f 531//583 569//583 529//583
f 570//584 568//584 561//584
f 561//585 560//585 570//585
f 81//586 77//586 567//586
f 81//587 567//587 572//587
f 350//588 81//588 574//588
f 350//589 574//589 573//589
f 81//590 572//590 574//590
f 572//591 458//591 574//591
f 574//592 458//592 301//592
f 574//593 301//593 573//593
f 573//594 301//594 300//594
f 520//595 458//595 519//595
f 519//596 458//596 567//596
f 567//597 458//597 572//597
f 320//598 370//598 480//598
f 319//599 336//599 513//599
f 319//600 513//600 320//600
f 320//601 513//601 489//601
f 336//602 487//602 513//602
f 487//603 336//603 446//603
f 446//604 336//604 414//604
f 450//605 455//605 449//605
f 455//606 524//606 449//606
f 449//607 524//607 485//607
f 449//608 485//608 448//608
f 448//609 485//609 486//609
f 448//610 486//610 446//610
f 446//611 486//611 487//611
f 320//612 489//612 370//612
f 370//613 489//613 490//613
f 370//614 490//614 369//614
f 369//615 490//615 491//615
f 369//616 491//616 367//616
f 367//617 491//617 514//617
f 367//618 514//618 366//618
f 366//619 514//619 525//619
f 366//620 525//620 576//620
f 576//621 525//621 577//621
f 577//622 525//622 493//622
f 577//623 493//623 578//623
f 578//624 493//624 494//624
f 578//625 494//625 515//625
f 578//626 515//626 579//626
f 579//627 515//627 526//627
f 579//628 526//628 580//628
f 580//629 526//629 496//629
f 580//630 496//630 497//630
f 580//631 497//631 581//631
f 581//632 497//632 498//632
f 581//633 498//633 582//633
f 582//634 498//634 516//634
f 582//635 516//635 583//635
f 583//636 516//636 357//636
f 583//637 357//637 584//637
f 584//638 357//638 585//638
f 585//639 357//639 358//639
f 585//640 358//640 586//640
f 586//641 358//641 360//641
f 586//642 360//642 587//642
f 587//643 360//643 361//643
f 587//644 361//644 588//644
f 588//645 361//645 363//645
f 588//646 363//646 589//646
f 589//647 363//647 364//647
f 589//648 364//648 590//648
f 590//649 364//649 366//649
f 590//650 366//650 575//650
f 357//651 516//651 355//651
f 355//652 516//652 500//652
f 355//653 500//653 354//653
f 354//654 500//654 501//654
f 354//655 501//655 351//655
f 351//656 501//656 517//656
f 351//657 517//657 543//657
f 543//658 517//658 503//658
f 504//659 556//659 503//659
f 503//660 556//660 544//660
f 503//661 544//661 543//661
f 351//662 543//662 352//662
f 505//663 562//663 504//663
f 504//664 562//664 556//664
f 562//665 505//665 563//665
f 563//666 505//666 518//666
f 563//667 518//667 565//667
f 565//668 518//668 507//668
f 565//669 507//669 566//669
f 566//670 507//670 519//670
f 566//671 519//671 567//671
f 562//672 561//672 556//672
f 576//673 575//673 366//673
f 592//674 591//674 593//674
f 592//675 593//675 594//675
f 593//676 591//676 584//676
f 584//677 585//677 593//677
f 590//678 595//678 596//678
f 596//679 597//679 589//679
f 589//680 597//680 588//680
f 588//681 597//681 598//681
f 596//682 595//682 597//682
f 588//683 598//683 599//683
f 588//684 599//684 587//684
f 586//685 600//685 585//685
f 585//686 600//686 593//686
f 600//687 586//687 599//687
f 599//688 586//688 587//688
f 601//689 602//689 604//689
f 604//690 602//690 603//690
f 604//691 590//691 575//691
f 604//692 595//692 590//692
f 576//693 601//693 604//693
f 576//694 604//694 575//694
f 605//695 576//695 577//695
f 605//696 601//696 576//696
f 582//697 606//697 581//697
f 581//698 607//698 580//698
f 580//699 607//699 608//699
f 580//700 608//700 579//700
f 581//701 606//701 607//701
f 579//702 608//702 609//702
f 609//703 610//703 578//703
f 578//704 610//704 577//704
f 577//705 610//705 605//705
f 578//706 579//706 609//706
f 611//707 612//707 613//707
f 613//707 612//707 614//707
f 613//707 614//707 615//707
f 611//708 616//708 617//708
f 611//707 617//707 618//707
f 592//709 619//709 616//709
f 616//708 619//708 620//708
f 616//707 620//707 617//707
f 592//710 594//710 621//710
f 621//711 594//711 622//711
f 622//711 594//711 623//711
f 622//708 623//708 603//708
f 602//712 624//712 603//712
f 603//711 624//711 625//711
f 603//711 625//711 626//711
f 602//710 613//710 627//710
f 627//707 613//707 615//707
f 618//707 612//707 611//707
f 627//707 628//707 602//707
f 602//710 628//710 624//710
f 603//711 626//711 622//711
f 622//707 626//707 629//707
f 622//707 629//707 630//707
f 630//707 629//707 631//707
f 630//707 631//707 632//707
f 632//707 631//707 621//707
f 621//707 631//707 633//707
f 621//711 633//711 592//711
f 592//711 633//711 634//711
f 592//711 634//711 619//711
f 635//713 636//713 637//713
f 637//714 636//714 638//714
f 635//715 639//715 640//715
f 635//715 640//715 641//715
f 642//716 643//716 639//716
f 639//715 643//715 644//715
f 639//716 644//716 640//716
f 642//715 645//715 646//715
f 646//715 645//715 647//715
f 647//717 645//717 648//717
f 648//718 645//718 649//718
f 648//719 649//719 650//719
f 650//716 649//716 651//716
f 650//716 651//716 652//716
f 652//716 651//716 653//716
f 652//716 653//716 654//716
f 654//715 653//715 655//715
f 655//716 653//716 637//716
f 655//720 637//720 638//720
f 656//716 657//716 654//716
f 654//716 657//716 652//716
f 646//716 658//716 642//716
f 642//716 658//716 659//716
f 642//716 659//716 643//716
f 658//715 660//715 659//715
f 643//715 661//715 644//715
f 641//721 636//721 635//721
f 636//722 662//722 638//722
f 638//723 662//723 663//723
f 638//724 663//724 664//724
f 665//725 666//725 636//725
f 636//726 666//726 667//726
f 636//727 667//727 662//727
f 662//728 667//728 668//728
f 662//729 668//729 669//729
f 667//716 670//716 668//716
f 671//716 672//716 669//716
f 669//730 672//730 673//730
f 669//731 673//731 662//731
f 673//732 672//732 648//732
f 648//733 672//733 674//733
f 648//734 674//734 675//734
f 648//735 676//735 673//735
f 673//736 676//736 677//736
f 677//715 676//715 678//715
f 650//737 676//737 648//737
f 676//738 650//738 678//738
f 678//739 650//739 652//739
f 678//740 652//740 677//740
f 630//741 679//741 622//741
f 622//741 679//741 680//741
f 680//741 679//741 681//741
f 680//741 681//741 682//741
f 682//741 681//741 683//741
f 682//741 683//741 657//741
f 657//741 683//741 673//741
f 657//742 673//742 652//742
f 652//743 673//743 677//743
f 683//744 684//744 673//744
f 673//745 684//745 662//745
f 632//746 621//746 686//746
f 686//746 621//746 687//746
f 686//746 687//746 685//746
f 685//746 687//746 688//746
f 685//746 688//746 684//746
f 684//746 688//746 656//746
f 684//746 656//746 662//746
f 662//747 656//747 654//747
f 662//748 654//748 663//748
f 663//749 654//749 655//749
f 663//750 655//750 664//750
f 664//751 655//751 638//751
f 689//752 690//752 639//752
f 639//753 690//753 642//753
f 689//754 639//754 635//754
f 689//755 635//755 691//755
f 692//707 693//707 691//707
f 691//707 693//707 694//707
f 691//707 694//707 695//707
f 695//711 694//711 696//711
f 696//707 694//707 697//707
f 696//707 697//707 698//707
f 698//707 697//707 699//707
f 698//711 699//711 700//711
f 700//707 699//707 701//707
f 700//707 701//707 702//707
f 692//711 703//711 704//711
f 692//707 704//707 705//707
f 705//756 704//756 706//756
f 707//707 708//707 703//707
f 703//711 708//711 709//711
f 703//711 709//711 710//711
f 710//707 709//707 711//707
f 711//711 709//711 712//711
f 711//757 712//757 713//757
f 713//707 712//707 714//707
f 713//707 714//707 715//707
f 715//758 714//758 716//758
f 715//759 716//759 717//759
f 717//707 716//707 718//707
f 717//711 718//711 719//711
f 719//712 718//712 720//712
f 719//707 720//707 721//707
f 707//707 722//707 723//707
f 723//707 722//707 724//707
f 725//707 726//707 722//707
f 722//707 726//707 727//707
f 722//711 727//711 724//711
f 725//707 690//707 728//707
f 689//707 729//707 690//707
f 690//711 729//711 730//711
f 690//707 730//707 731//707
f 731//707 730//707 732//707
f 731//711 732//711 733//711
f 689//707 691//707 734//707
f 734//711 691//711 735//711
f 735//707 691//707 736//707
f 736//711 691//711 695//711
f 737//707 700//707 738//707
f 738//707 700//707 739//707
f 738//711 739//711 740//711
f 740//707 739//707 734//707
f 734//707 739//707 689//707
f 737//711 698//711 700//711
f 741//711 742//711 743//711
f 743//711 742//711 744//711
f 743//707 744//707 745//707
f 745//707 744//707 746//707
f 746//707 744//707 747//707
f 746//757 747//757 748//757
f 748//711 747//711 749//711
f 750//707 751//707 741//707
f 741//707 751//707 752//707
f 741//707 752//707 742//707
f 742//707 752//707 753//707
f 753//707 752//707 754//707
f 753//707 754//707 755//707
f 756//711 757//711 750//711
f 750//711 757//711 758//711
f 750//707 758//707 751//707
f 751//707 758//707 759//707
f 751//707 759//707 760//707
f 743//711 745//711 756//711
f 756//707 745//707 761//707
f 756//707 761//707 762//707
f 762//707 761//707 763//707
f 762//707 763//707 690//707
f 690//707 763//707 746//707
f 690//707 746//707 764//707
f 764//707 746//707 765//707
f 731//707 733//707 766//707
f 766//707 733//707 767//707
f 766//711 767//711 768//711
f 731//711 762//711 690//711
f 762//707 769//707 756//707
f 756//711 769//711 757//711
f 758//707 766//707 759//707
f 759//707 766//707 770//707
f 770//707 766//707 771//707
f 770//707 771//707 772//707
f 773//711 774//711 775//711
f 775//707 774//707 776//707
f 775//711 776//711 777//711
f 777//711 776//711 689//711
f 777//711 689//711 778//711
f 778//707 689//707 779//707
f 778//707 779//707 780//707
f 780//711 779//711 781//711
f 780//707 781//707 782//707
f 782//707 781//707 783//707
f 782//711 783//711 784//711
f 784//707 783//707 785//707
f 776//759 729//759 689//759
f 786//711 787//711 729//711
f 729//711 787//711 788//711
f 729//707 788//707 789//707
f 788//707 787//707 790//707
f 790//707 787//707 791//707
f 790//711 791//711 792//711
f 792//707 791//707 793//707
f 792//707 793//707 771//707
f 793//711 791//711 794//711
f 794//707 791//707 795//707
f 794//711 795//711 714//711
f 714//760 795//760 796//760
f 796//707 795//707 797//707
f 797//711 795//711 798//711
f 797//711 798//711 799//711
f 799//707 798//707 800//707
f 799//711 800//711 801//711
f 801//707 800//707 773//707
f 801//707 773//707 775//707
f 798//711 802//711 800//711
f 800//707 802//707 803//707
f 718//711 805//711 720//711
f 720//707 805//707 806//707
f 720//710 806//710 807//710
f 807//710 806//710 808//710
f 807//757 808//757 809//757
f 809//707 808//707 810//707
f 809//757 810//757 811//757
f 811//711 810//711 777//711
f 811//707 777//707 812//707
f 812//707 777//707 813//707
f 813//707 777//707 814//707
f 813//711 814//711 815//711
f 815//711 814//711 816//711
f 816//711 814//711 817//711
f 817//761 814//761 715//761
f 715//711 814//711 818//711
f 715//711 818//711 713//711
f 713//762 818//762 819//762
f 819//763 818//763 820//763
f 820//711 818//711 821//711
f 820//711 821//711 822//711
f 822//759 821//759 823//759
f 823//707 821//707 824//707
f 823//707 824//707 825//707
f 825//707 824//707 826//707
f 826//711 824//711 827//711
f 827//764 824//764 828//764
f 808//707 829//707 810//707
f 810//707 775//707 777//707
f 775//711 830//711 801//711
f 831//707 804//707 799//707
f 799//710 804//710 797//710
f 832//707 833//707 834//707
f 834//707 833//707 835//707
f 836//707 837//707 832//707
f 832//707 837//707 838//707
f 832//711 838//711 839//711
f 839//711 838//711 840//711
f 840//711 838//711 841//711
f 842//707 690//707 836//707
f 836//707 690//707 843//707
f 836//707 843//707 844//707
f 844//707 843//707 845//707
f 845//707 843//707 846//707
f 834//711 847//711 842//711
f 842//707 847//707 848//707
f 842//711 848//711 690//711
f 690//707 848//707 849//707
f 690//707 849//707 850//707
f 850//765 849//765 851//765
f 851//711 849//711 852//711
f 851//707 852//707 853//707
f 854//711 837//711 844//711
f 844//711 837//711 836//711
f 839//707 855//707 832//707
f 832//707 855//707 856//707
f 832//707 856//707 755//707
f 755//707 856//707 857//707
f 755//707 857//707 753//707
f 753//711 857//711 858//711
f 858//707 857//707 859//707
f 858//766 859//766 860//766
f 856//711 855//711 861//711
f 861//707 855//707 764//707
f 861//710 764//710 862//710
f 862//707 764//707 765//707
f 764//759 843//759 690//759
f 748//711 765//711 746//711
f 860//767 863//767 864//767
f 860//768 864//768 858//768
f 866//769 865//769 867//769
f 866//757 867//757 868//757
f 866//711 868//711 869//711
f 869//711 868//711 721//711
f 869//770 721//770 870//770
f 869//771 870//771 871//771
f 868//708 719//708 721//708
f 872//772 871//772 870//772
f 873//707 874//707 875//707
f 875//773 874//773 876//773
f 876//774 874//774 877//774
f 877//707 874//707 725//707
f 877//707 725//707 878//707
f 878//707 725//707 879//707
f 879//711 725//711 728//711
f 874//710 726//710 725//710
f 727//711 726//711 880//711
f 727//775 880//775 881//775
f 881//707 880//707 882//707
f 881//707 882//707 883//707
f 881//711 883//711 835//711
f 835//711 883//711 884//711
f 835//711 884//711 885//711
f 886//707 887//707 880//707
f 880//711 887//711 888//711
f 880//776 888//776 882//776
f 887//711 886//711 889//711
f 889//707 886//707 890//707
f 890//711 886//711 891//711
f 891//707 886//707 892//707
f 892//707 893//707 891//707
f 891//707 893//707 894//707
f 891//707 894//707 895//707
f 895//711 894//711 896//711
f 895//711 896//711 897//711
f 895//707 897//707 898//707
f 889//711 890//711 899//711
f 899//707 890//707 900//707
f 899//707 900//707 850//707
f 850//711 900//711 901//711
f 850//777 901//777 902//777
f 850//710 902//710 690//710
f 902//778 728//778 690//778
f 903//707 904//707 889//707
f 889//710 904//710 887//710
f 883//756 882//756 905//756
f 883//765 905//765 906//765
f 906//707 905//707 907//707
f 906//711 907//711 908//711
f 908//712 907//712 909//712
f 908//707 909//707 910//707
f 907//711 911//711 909//711
f 909//711 911//711 912//711
f 909//710 912//710 913//710
f 913//710 912//710 914//710
f 913//707 914//707 853//707
f 853//711 914//711 851//711
f 914//707 915//707 851//707
f 850//711 916//711 899//711
f 917//772 918//772 919//772
f 919//779 918//779 920//779
f 919//770 920//770 910//770
f 910//711 920//711 921//711
f 921//711 920//711 922//711
f 921//757 922//757 923//757
f 923//769 922//769 924//769
f 921//708 908//708 910//708
f 883//761 925//761 884//761
f 884//711 925//711 926//711
f 884//707 926//707 927//707
f 927//711 928//711 884//711
f 884//707 928//707 849//707
f 849//707 928//707 929//707
f 849//711 929//711 852//711
f 930//707 931//707 885//707
f 885//711 931//711 932//711
f 885//707 932//707 835//707
f 835//711 932//711 834//711
f 932//707 847//707 834//707
f 933//707 934//707 752//707
f 752//712 934//712 935//712
f 936//758 723//758 933//758
f 933//756 723//756 937//756
f 938//707 939//707 936//707
f 936//711 939//711 707//711
f 936//707 707//707 723//707
f 939//707 940//707 707//707
f 707//711 940//711 941//711
f 707//707 941//707 942//707
f 940//707 943//707 941//707
f 770//707 944//707 942//707
f 942//707 944//707 945//707
f 942//711 945//711 708//711
f 946//707 947//707 948//707
f 949//711 950//711 946//711
f 946//757 950//757 951//757
f 951//759 947//759 946//759
f 946//707 948//707 952//707
f 952//711 948//711 953//711
f 952//710 953//710 934//710
f 934//709 953//709 935//709
f 935//773 954//773 752//773
f 752//711 954//711 754//711
f 755//711 955//711 832//711
f 832//711 955//711 833//711
f 956//711 957//711 835//711
f 835//780 957//780 958//780
f 959//707 960//707 956//707
f 959//707 961//707 962//707
f 963//764 964//764 959//764
f 959//711 964//711 961//711
f 962//707 960//707 959//707
f 960//711 965//711 956//711
f 956//711 965//711 957//711
f 835//781 958//781 881//781
f 937//707 966//707 933//707
f 933//711 966//711 934//711
f 710//709 704//709 703//709
f 706//711 967//711 705//711
f 705//711 967//711 968//711
f 705//707 968//707 969//707
f 969//712 968//712 970//712
f 971//710 972//710 968//710
f 968//709 972//709 970//709
f 973//707 974//707 971//707
f 971//711 974//711 972//711
f 973//711 975//711 974//711
f 976//711 977//711 973//711
f 973//707 977//707 978//707
f 978//711 975//711 973//711
f 970//708 979//708 969//708
f 969//711 979//711 980//711
f 981//707 982//707 980//707
f 980//707 982//707 983//707
f 980//707 983//707 969//707
f 969//707 983//707 984//707
f 969//707 984//707 985//707
f 985//707 984//707 986//707
f 985//707 986//707 702//707
f 702//707 986//707 700//707
f 987//707 988//707 981//707
f 981//707 988//707 989//707
f 981//707 989//707 990//707
f 987//711 991//711 988//711
f 988//711 991//711 781//711
f 781//711 991//711 818//711
f 705//711 992//711 692//711
f 692//707 992//707 993//707
f 692//707 993//707 994//707
f 992//707 995//707 993//707
f 701//707 996//707 994//707
f 994//707 996//707 997//707
f 994//711 997//711 998//711
f 702//707 999//707 985//707
f 814//711 783//711 818//711
f 818//707 783//707 781//707
f 1000//707 1001//707 988//707
f 988//707 1001//707 1002//707
f 988//707 1002//707 1003//707
f 1003//711 1002//711 1004//711
f 1004//711 1002//711 1005//711
f 779//707 689//707 1000//707
f 1000//707 689//707 1006//707
f 1000//707 1006//707 1007//707
f 1007//707 1006//707 1008//707
f 1008//707 1006//707 1009//707
f 766//707 768//707 771//707
f 771//707 768//707 792//707
f 789//711 730//711 729//711
f 712//707 794//707 714//707
f 772//711 944//711 770//711
f 1010//711 1001//711 1007//711
f 1007//711 1001//711 1000//711
f 1003//707 1011//707 988//707
f 988//711 1011//711 989//711
f 989//707 1011//707 1012//707
f 1012//707 1011//707 1013//707
f 1012//710 1013//710 1014//710
f 1014//707 1013//707 1015//707
f 1015//707 1013//707 1016//707
f 1015//711 1016//711 1017//711
f 1017//757 1016//757 1018//757
f 1017//711 1018//711 1019//711
f 1016//707 1013//707 689//707
f 689//711 1013//711 1006//711
f 1020//707 1021//707 990//707
f 990//711 1021//711 1022//711
f 990//707 1022//707 981//707
f 981//707 1022//707 982//707
f 1021//766 1020//766 1023//766
f 1023//767 1024//767 1025//767
f 1023//768 1025//768 1021//768
f 983//711 982//711 1026//711
f 1026//707 982//707 1027//707
f 1026//711 1027//711 1028//711
f 1028//707 1027//707 1016//707
f 1016//707 1027//707 1018//707
f 1026//707 1028//707 1029//707
f 1029//707 1028//707 1030//707
f 1029//707 1030//707 1031//707
f 1031//707 1030//707 1032//707
f 1031//711 1032//711 689//711
f 689//707 1032//707 1016//707
f 986//707 984//707 1033//707
f 1033//711 984//711 1029//711
f 1033//711 1029//711 1034//711
f 1034//707 1029//707 1031//707
f 739//707 1031//707 689//707
f 994//707 998//707 692//707
f 692//707 998//707 1035//707
f 692//707 1035//707 693//707
f 699//711 1036//711 701//711
f 701//707 1036//707 996//707
f 707//707 942//707 708//707
f 653//782 651//782 703//782
f 703//783 651//783 707//783
f 653//784 703//784 637//784
f 637//785 703//785 692//785
f 725//786 722//786 645//786
f 645//787 722//787 649//787
f 725//788 645//788 690//788
f 690//789 645//789 642//789
f 707//790 651//790 722//790
f 722//791 651//791 649//791
f 691//792 635//792 692//792
f 692//793 635//793 637//793
f 592//794 616//794 591//794
f 591//795 616//795 1037//795
f 1037//796 582//796 583//796
f 1037//797 606//797 582//797
f 584//798 591//798 583//798
f 1037//799 583//799 591//799
f 611//800 606//800 1037//800
f 611//801 1037//801 616//801
f 594//802 593//802 600//802
f 594//803 600//803 595//803
f 595//804 600//804 597//804
f 597//805 600//805 599//805
f 597//806 599//806 598//806
f 594//807 595//807 623//807
f 605//808 610//808 613//808
f 613//809 610//809 611//809
f 611//810 610//810 606//810
f 606//811 610//811 607//811
f 607//812 610//812 609//812
f 607//813 609//813 608//813
f 623//814 595//814 604//814
f 623//815 604//815 603//815
f 605//816 613//816 602//816
f 605//817 602//817 601//817
f 316//818 315//818 1038//818
f 316//819 1038//819 1039//819
f 316//820 1039//820 323//820
f 323//821 1039//821 1040//821
f 323//822 1040//822 325//822
f 325//823 1040//823 1041//823
f 325//824 1041//824 327//824
f 327//825 1041//825 1042//825
f 327//826 1042//826 329//826
f 329//827 1042//827 1043//827
f 329//828 1043//828 331//828
f 331//829 1043//829 415//829
f 318//830 314//830 316//830
f 316//831 314//831 315//831
f 314//832 318//832 445//832
f 445//833 318//833 320//833
f 445//834 320//834 480//834
f 415//835 1043//835 82//835
f 1043//836 1042//836 82//836
f 82//837 1042//837 83//837
f 1042//838 1041//838 83//838
f 1041//839 1040//839 83//839
f 83//840 1040//840 88//840
f 315//841 90//841 1038//841
f 1038//842 90//842 88//842
f 1038//843 88//843 1039//843
f 1039//844 88//844 1040//844
f 419//845 415//845 82//845
f 375//846 374//846 311//846
f 169//847 474//847 170//847
f 170//848 474//848 523//848
f 523//849 474//849 478//849
f 523//850 478//850 510//850
f 510//851 478//851 476//851
f 510//852 476//852 511//852
f 511//853 476//853 521//853
f 521//854 476//854 459//854
f 521//855 459//855 520//855
f 520//856 459//856 458//856
f 457//857 452//857 348//857
l 203 204
