# Blender 4.0.2
# www.blender.org
o SICK-MICROSCAN3__m1
v 0.049454 -0.025141 -0.010438
v 0.049454 -0.025141 -0.010900
v 0.049452 -0.025288 -0.011450
v 0.049445 -0.025691 0.011853
v 0.049452 -0.025288 0.011450
v 0.049404 -0.028041 0.012000
v 0.049435 -0.026241 0.012000
v 0.049376 -0.029632 0.010500
v 0.049376 -0.029632 -0.010500
v 0.049404 -0.028041 -0.012000
v 0.049394 -0.028591 -0.011853
v 0.049387 -0.028994 -0.011450
v 0.049445 -0.025691 -0.011853
v 0.049454 -0.025141 0.010900
v 0.049454 -0.025141 0.010438
v 0.049435 -0.026241 -0.012000
v 0.049384 -0.029141 -0.010900
v 0.049384 -0.029141 -0.010764
v 0.049380 -0.029387 -0.010500
v 0.049384 -0.029141 0.010764
v 0.049380 -0.029387 0.010500
v 0.049384 -0.029141 0.010900
v 0.049387 -0.028994 0.011450
v 0.049394 -0.028591 0.011853
v 0.050102 -0.028239 0.011500
v 0.050109 -0.027806 0.011250
v 0.050106 -0.027989 0.011433
v 0.050156 -0.025153 0.006252
v 0.050111 -0.027739 0.011000
v 0.050109 -0.027806 -0.011250
v 0.050106 -0.027989 -0.011433
v 0.050102 -0.028239 -0.011500
v 0.050052 -0.031070 0.010500
v 0.050052 -0.031070 -0.010500
v 0.050111 -0.027739 -0.011000
v 0.050156 -0.025153 -0.006252
v 0.050111 -0.027739 -0.006604
v 0.050111 -0.027739 0.006604
v 0.050352 -0.028243 0.011500
v 0.050356 -0.027993 0.011433
v 0.050359 -0.027810 0.011250
v 0.050361 -0.027744 0.011000
v 0.050336 -0.029158 0.004580
v 0.050336 -0.029158 -0.004580
v 0.050361 -0.027744 0.004301
v 0.050361 -0.027744 -0.004301
v 0.050361 -0.027744 -0.011000
v 0.050352 -0.028243 -0.011500
v 0.050359 -0.027810 -0.011250
v 0.050356 -0.027993 -0.011433
v 0.049854 -0.029841 -0.010500
v 0.049746 -0.030034 -0.010500
v 0.050156 -0.030424 -0.010500
v 0.049979 -0.030529 -0.010500
v 0.050252 -0.031074 -0.010500
v 0.050252 -0.031074 0.010500
v 0.050156 -0.030424 0.010500
v 0.049854 -0.029841 0.010500
v 0.049746 -0.030034 0.010500
v 0.049979 -0.030529 0.010500
v 0.050206 -0.027741 0.005837
v 0.050289 -0.027742 0.005070
v 0.050206 -0.027741 -0.005837
v 0.050289 -0.027742 -0.005070
v 0.051059 -0.030698 0.014190
v 0.051071 -0.030014 0.014190
v 0.051138 -0.026199 0.014190
v 0.051128 -0.026723 0.013750
v 0.051080 -0.029490 0.013750
v 0.051126 -0.026842 0.013076
v 0.051082 -0.029372 0.013076
v 0.051128 -0.026757 0.011250
v 0.051081 -0.029457 0.011250
v 0.051081 -0.029457 0.010989
v 0.051049 -0.031292 0.009275
v 0.051049 -0.031256 0.010160
v 0.051049 -0.031256 0.009434
v 0.051050 -0.031232 0.009570
v 0.051048 -0.031341 -0.002674
v 0.051050 -0.031222 -0.002000
v 0.051049 -0.031256 0.009059
v 0.051051 -0.031184 0.008923
v 0.051053 -0.031051 0.008809
v 0.051059 -0.030698 -0.001560
v 0.051055 -0.030918 0.008753
v 0.051058 -0.030773 0.008730
v 0.051127 -0.026793 0.003349
v 0.051127 -0.026793 0.004393
v 0.051128 -0.026757 0.004212
v 0.051128 -0.026757 0.003519
v 0.051130 -0.026660 0.004076
v 0.051130 -0.026648 0.003622
v 0.051132 -0.026539 0.004019
v 0.051132 -0.026515 0.003656
v 0.051135 -0.026334 0.003973
v 0.051144 -0.025851 0.003973
v 0.051143 -0.025887 0.004155
v 0.051049 -0.031292 -0.006782
v 0.051049 -0.031256 -0.006997
v 0.051049 -0.031268 -0.006884
v 0.051128 -0.026757 -0.014263
v 0.051053 -0.031051 -0.007247
v 0.051051 -0.031184 -0.007134
v 0.051160 -0.024921 -0.013763
v 0.051160 -0.024945 -0.013922
v 0.051160 -0.024933 0.001783
v 0.051161 -0.024872 -0.002674
v 0.051159 -0.024957 -0.004500
v 0.051155 -0.025214 -0.003266
v 0.051144 -0.025857 -0.003500
v 0.051161 -0.024872 0.013076
v 0.051159 -0.024991 0.013750
v 0.051150 -0.025515 0.014190
v 0.051132 -0.026500 0.012484
v 0.051144 -0.025857 0.012250
v 0.051159 -0.024957 0.011250
v 0.051155 -0.025214 0.012484
v 0.051128 -0.026757 -0.005737
v 0.051128 -0.026757 -0.006123
v 0.051151 -0.025428 -0.005737
v 0.051151 -0.025428 -0.006123
v 0.051155 -0.025187 -0.005737
v 0.051159 -0.024957 -0.005737
v 0.051151 -0.025428 -0.006305
v 0.051151 -0.025416 -0.006487
v 0.051150 -0.025489 -0.006384
v 0.051149 -0.025561 -0.006339
v 0.051147 -0.025646 -0.006305
v 0.051128 -0.026757 -0.005544
v 0.051081 -0.029457 -0.005590
v 0.051081 -0.029457 -0.005885
v 0.051128 -0.026757 -0.006316
v 0.051081 -0.029457 -0.006566
v 0.051081 -0.029420 -0.006759
v 0.051151 -0.025428 -0.005544
v 0.051131 -0.026576 -0.005351
v 0.051128 -0.026757 -0.005351
v 0.051081 -0.029457 -0.004795
v 0.051055 -0.030906 -0.005192
v 0.051155 -0.025187 -0.005533
v 0.051159 -0.024957 -0.004704
v 0.051159 -0.024957 -0.005533
v 0.051159 -0.024957 -0.007349
v 0.051152 -0.025380 -0.006611
v 0.051151 -0.025404 -0.006725
v 0.051128 -0.026757 -0.004500
v 0.051132 -0.026500 -0.003266
v 0.051126 -0.026842 -0.002674
v 0.051131 -0.026576 -0.004704
v 0.051081 -0.029457 -0.004500
v 0.051082 -0.029372 -0.002674
v 0.051076 -0.029714 -0.003266
v 0.051154 -0.025283 0.002293
v 0.051156 -0.025138 0.002100
v 0.051157 -0.025102 0.003463
v 0.051160 -0.024933 0.001930
v 0.051159 -0.024957 0.005517
v 0.051159 -0.024957 0.005756
v 0.051159 -0.024957 0.006460
v 0.051128 -0.026757 0.006232
v 0.051120 -0.027204 0.007311
v 0.051128 -0.026757 0.006028
v 0.051128 -0.026757 0.005268
v 0.051137 -0.026237 0.005903
v 0.051137 -0.026237 0.005392
v 0.051131 -0.026588 0.001783
v 0.051131 -0.026588 0.001510
v 0.051150 -0.025515 -0.001560
v 0.051159 -0.024991 -0.002000
v 0.051138 -0.026199 -0.001560
v 0.051128 -0.026757 0.001510
v 0.051128 -0.026723 -0.002000
v 0.051080 -0.029490 -0.002000
v 0.051071 -0.030014 -0.001560
v 0.051128 -0.026757 0.002282
v 0.051128 -0.026769 0.003167
v 0.051128 -0.026769 0.003270
v 0.051130 -0.026612 0.003167
v 0.051131 -0.026588 0.002282
v 0.051148 -0.025597 0.003224
v 0.051150 -0.025501 0.002293
v 0.051151 -0.025428 0.003224
v 0.051131 -0.026588 0.001987
v 0.051152 -0.025380 0.002123
v 0.051154 -0.025235 0.001987
v 0.051131 -0.026600 0.003406
v 0.051130 -0.026624 0.003281
v 0.051132 -0.026503 0.003451
v 0.051130 -0.026624 0.003236
v 0.051148 -0.025597 0.003656
v 0.051148 -0.025597 0.003837
v 0.051146 -0.025730 0.003996
v 0.051148 -0.025609 0.004030
v 0.051151 -0.025428 0.003837
v 0.051150 -0.025513 0.004087
v 0.051151 -0.025416 0.004212
v 0.051156 -0.025126 0.003656
v 0.051152 -0.025380 0.004382
v 0.051149 -0.025561 0.004734
v 0.051139 -0.026105 0.004848
v 0.051128 -0.026757 0.005063
v 0.051134 -0.026419 0.004825
v 0.051130 -0.026636 0.004723
v 0.051128 -0.026757 0.004586
v 0.051073 -0.029879 0.008787
v 0.051059 -0.030676 0.008741
v 0.051061 -0.030580 0.008775
v 0.051063 -0.030495 0.008821
v 0.051064 -0.030423 0.008877
v 0.051066 -0.030326 0.009014
v 0.051072 -0.029940 0.008968
v 0.051067 -0.030230 0.009218
v 0.051068 -0.030193 0.009332
v 0.051069 -0.030145 0.009411
v 0.051069 -0.030109 0.009479
v 0.051070 -0.030060 0.009525
v 0.051074 -0.029819 0.009014
v 0.051071 -0.029988 0.009570
v 0.051073 -0.029891 0.009581
v 0.051075 -0.029783 0.009570
v 0.051076 -0.029722 0.009059
v 0.051077 -0.029686 0.009513
v 0.051078 -0.029626 0.009422
v 0.051078 -0.029638 0.009161
v 0.051078 -0.029602 0.009309
v 0.051151 -0.025428 0.003656
v 0.051151 -0.025428 0.003463
v 0.051148 -0.025597 0.003463
v 0.051134 -0.026419 0.003463
v 0.051120 -0.027204 -0.008292
v 0.051079 -0.029577 -0.007122
v 0.051120 -0.027204 -0.008439
v 0.051076 -0.029710 -0.007202
v 0.051073 -0.029879 -0.007270
v 0.051159 -0.024957 -0.009132
v 0.051128 -0.026757 -0.008235
v 0.051128 -0.026757 -0.008030
v 0.051128 -0.026757 -0.007542
v 0.051135 -0.026346 -0.007542
v 0.051140 -0.026056 -0.007735
v 0.051159 -0.024957 -0.009290
v 0.051159 -0.024957 -0.007542
v 0.051151 -0.025428 -0.008189
v 0.051151 -0.025428 -0.007985
v 0.051139 -0.026093 -0.007542
v 0.051128 -0.026757 -0.009518
v 0.051159 -0.024957 -0.009994
v 0.051159 -0.024957 -0.010233
v 0.051157 -0.025102 -0.012287
v 0.051156 -0.025126 -0.012094
v 0.051152 -0.025380 -0.011368
v 0.051151 -0.025416 -0.011538
v 0.051143 -0.025899 -0.007860
v 0.051128 -0.026757 -0.007349
v 0.051128 -0.026757 -0.006952
v 0.051128 -0.026757 -0.006759
v 0.051140 -0.026044 -0.006316
v 0.051142 -0.025948 -0.006759
v 0.051144 -0.025851 -0.006328
v 0.051144 -0.025827 -0.006748
v 0.051146 -0.025706 -0.006362
v 0.051145 -0.025754 -0.006748
v 0.051147 -0.025658 -0.006725
v 0.051143 -0.025911 -0.006952
v 0.051145 -0.025791 -0.006941
v 0.051146 -0.025694 -0.006941
v 0.051149 -0.025561 -0.006895
v 0.051151 -0.025452 -0.006827
v 0.051148 -0.025585 -0.006680
v 0.051149 -0.025561 -0.006623
v 0.051148 -0.025597 -0.006441
v 0.051149 -0.025549 -0.006566
v 0.051130 -0.026612 0.004496
v 0.051130 -0.026624 0.004382
v 0.051132 -0.026539 0.004575
v 0.051132 -0.026503 0.004201
v 0.051134 -0.026431 0.004178
v 0.051131 -0.026600 0.004269
v 0.051134 -0.026382 0.004632
v 0.051136 -0.026310 0.004155
v 0.051139 -0.026141 0.004643
v 0.051143 -0.025887 0.004632
v 0.051145 -0.025754 0.004189
v 0.051146 -0.025706 0.004598
v 0.051147 -0.025658 0.004212
v 0.051148 -0.025585 0.004291
v 0.051149 -0.025549 0.004393
v 0.051148 -0.025597 0.004518
v 0.051131 -0.026564 -0.013457
v 0.051131 -0.026564 -0.014263
v 0.051138 -0.026177 -0.013888
v 0.051143 -0.025863 -0.014138
v 0.051147 -0.025670 -0.014229
v 0.051150 -0.025465 -0.014263
v 0.051155 -0.025211 -0.014206
v 0.051158 -0.025018 -0.014058
v 0.051055 -0.030918 -0.007304
v 0.051128 -0.026757 -0.013230
v 0.051058 -0.030773 -0.007327
v 0.051127 -0.026793 -0.012401
v 0.051059 -0.030676 -0.007315
v 0.051127 -0.026793 -0.011357
v 0.051128 -0.026757 -0.010687
v 0.051128 -0.026757 -0.010482
v 0.051131 -0.026576 -0.013230
v 0.051130 -0.026612 -0.012583
v 0.051128 -0.026769 -0.012583
v 0.051128 -0.026769 -0.012480
v 0.051148 -0.025597 -0.012526
v 0.051137 -0.026262 -0.013559
v 0.051151 -0.025452 -0.013230
v 0.051150 -0.025489 -0.013400
v 0.051141 -0.025996 -0.013809
v 0.051144 -0.025839 -0.013922
v 0.051146 -0.025706 -0.014002
v 0.051148 -0.025597 -0.014036
v 0.051150 -0.025477 -0.014058
v 0.051153 -0.025344 -0.013434
v 0.051153 -0.025332 -0.014036
v 0.051154 -0.025235 -0.013491
v 0.051155 -0.025199 -0.013967
v 0.051156 -0.025126 -0.013865
v 0.051157 -0.025102 -0.013740
v 0.051156 -0.025138 -0.013593
v 0.051151 -0.025428 -0.012526
v 0.051153 -0.025320 -0.013252
v 0.051155 -0.025211 -0.013298
v 0.051157 -0.025066 -0.013400
v 0.051159 -0.024969 -0.013559
v 0.051160 -0.024933 -0.013650
v 0.051148 -0.025597 -0.012287
v 0.051134 -0.026419 -0.012287
v 0.051132 -0.026503 -0.012299
v 0.051130 -0.026624 -0.012514
v 0.051130 -0.026624 -0.012469
v 0.051131 -0.026600 -0.012344
v 0.051128 -0.026757 -0.011538
v 0.051128 -0.026757 -0.012231
v 0.051130 -0.026660 -0.011674
v 0.051130 -0.026648 -0.012128
v 0.051132 -0.026539 -0.011731
v 0.051132 -0.026515 -0.012094
v 0.051135 -0.026334 -0.011777
v 0.051144 -0.025851 -0.011777
v 0.051143 -0.025887 -0.011595
v 0.051148 -0.025597 -0.012094
v 0.051148 -0.025597 -0.011913
v 0.051146 -0.025730 -0.011754
v 0.051148 -0.025609 -0.011720
v 0.051151 -0.025428 -0.011913
v 0.051150 -0.025513 -0.011663
v 0.051151 -0.025428 -0.012094
v 0.051151 -0.025428 -0.012287
v 0.051149 -0.025549 -0.011357
v 0.051148 -0.025597 -0.011232
v 0.051148 -0.025585 -0.011459
v 0.051146 -0.025706 -0.011152
v 0.051147 -0.025658 -0.011538
v 0.051145 -0.025754 -0.011561
v 0.051143 -0.025887 -0.011118
v 0.051139 -0.026141 -0.011107
v 0.051136 -0.026310 -0.011595
v 0.051134 -0.026382 -0.011118
v 0.051134 -0.026431 -0.011572
v 0.051132 -0.026539 -0.011175
v 0.051132 -0.026503 -0.011550
v 0.051130 -0.026624 -0.011368
v 0.051131 -0.026600 -0.011481
v 0.051130 -0.026612 -0.011254
v 0.051128 -0.026757 -0.011164
v 0.051130 -0.026636 -0.011027
v 0.051134 -0.026419 -0.010925
v 0.051139 -0.026105 -0.010902
v 0.051149 -0.025561 -0.011016
v 0.051137 -0.026237 -0.010358
v 0.051137 -0.026237 -0.009847
v 0.051128 -0.026757 -0.009722
v 0.051049 -0.031256 -0.005885
v 0.051058 -0.030785 -0.006191
v 0.051071 -0.030012 -0.006282
v 0.051073 -0.029903 -0.006271
v 0.051049 -0.031256 -0.005692
v 0.051049 -0.031256 -0.006623
v 0.051050 -0.031232 -0.006487
v 0.051077 -0.029698 -0.005692
v 0.051049 -0.031256 -0.005249
v 0.051049 -0.031256 -0.005102
v 0.051049 -0.031256 -0.004682
v 0.051049 -0.031256 -0.004500
v 0.051077 -0.029698 -0.004682
v 0.051065 -0.030356 -0.003500
v 0.051054 -0.030999 -0.003266
v 0.051054 -0.030990 -0.006498
v 0.051057 -0.030809 -0.007111
v 0.051056 -0.030894 -0.006430
v 0.051059 -0.030688 -0.007088
v 0.051061 -0.030592 -0.007020
v 0.051052 -0.031087 -0.006611
v 0.051052 -0.031111 -0.006782
v 0.051053 -0.031039 -0.007009
v 0.051055 -0.030942 -0.007077
v 0.051052 -0.031099 -0.006907
v 0.051062 -0.030531 -0.006918
v 0.051058 -0.030737 -0.006384
v 0.051063 -0.030459 -0.006770
v 0.051065 -0.030387 -0.006611
v 0.051065 -0.030338 -0.006521
v 0.051067 -0.030242 -0.006396
v 0.051069 -0.030109 -0.006316
v 0.051076 -0.029710 -0.006305
v 0.051079 -0.029553 -0.006418
v 0.051081 -0.029469 -0.006963
v 0.051072 -0.029940 -0.007088
v 0.051066 -0.030326 -0.007043
v 0.051064 -0.030423 -0.007179
v 0.051063 -0.030495 -0.007236
v 0.051074 -0.029819 -0.007043
v 0.051070 -0.030060 -0.006532
v 0.051069 -0.030109 -0.006577
v 0.051069 -0.030145 -0.006646
v 0.051076 -0.029722 -0.006997
v 0.051075 -0.029783 -0.006487
v 0.051073 -0.029891 -0.006475
v 0.051071 -0.029988 -0.006487
v 0.051078 -0.029638 -0.006895
v 0.051078 -0.029626 -0.006634
v 0.051077 -0.029686 -0.006543
v 0.051078 -0.029602 -0.006748
v 0.051068 -0.030193 -0.006725
v 0.051067 -0.030230 -0.006838
v 0.051061 -0.030580 -0.007281
v 0.051052 -0.031123 -0.006328
v 0.051055 -0.030942 -0.006237
v 0.051056 -0.030882 -0.006214
v 0.051049 -0.031268 0.009173
v 0.051052 -0.031123 0.009729
v 0.051055 -0.030942 0.009820
v 0.051056 -0.030882 0.009842
v 0.051058 -0.030785 0.009865
v 0.051081 -0.029457 0.010160
v 0.051071 -0.030012 0.009774
v 0.051073 -0.029903 0.009786
v 0.051058 -0.030737 0.009672
v 0.051067 -0.030242 0.009661
v 0.051069 -0.030109 0.009740
v 0.051056 -0.030894 0.009627
v 0.051062 -0.030531 0.009139
v 0.051063 -0.030459 0.009286
v 0.051065 -0.030387 0.009445
v 0.051054 -0.030990 0.009559
v 0.051057 -0.030809 0.008946
v 0.051059 -0.030688 0.008968
v 0.051061 -0.030592 0.009036
v 0.051052 -0.031087 0.009445
v 0.051052 -0.031111 0.009275
v 0.051053 -0.031039 0.009048
v 0.051055 -0.030942 0.008980
v 0.051052 -0.031099 0.009150
v 0.051065 -0.030338 0.009536
v 0.051076 -0.029710 0.009752
v 0.051079 -0.029553 0.009638
v 0.051081 -0.029457 0.009490
v 0.051081 -0.029420 0.009297
v 0.051128 -0.026757 0.009627
v 0.051128 -0.026757 0.010013
v 0.051128 -0.026757 0.010206
v 0.051081 -0.029457 0.010342
v 0.051128 -0.026757 0.010399
v 0.051081 -0.029469 0.009093
v 0.051120 -0.027204 0.007458
v 0.051128 -0.026757 0.008798
v 0.051128 -0.026757 0.008991
v 0.051079 -0.029577 0.008934
v 0.051076 -0.029710 0.008855
v 0.051049 -0.031256 0.010376
v 0.051049 -0.031256 0.011068
v 0.051049 -0.031256 0.011250
v 0.051076 -0.029734 0.011068
v 0.051065 -0.030356 0.012250
v 0.051054 -0.030999 0.012484
v 0.051048 -0.031341 0.013076
v 0.051056 -0.030882 0.010342
v 0.051159 -0.024957 0.006618
v 0.051128 -0.026757 0.007515
v 0.051128 -0.026757 0.007720
v 0.051128 -0.026757 0.008208
v 0.051135 -0.026346 0.008208
v 0.051140 -0.026056 0.008015
v 0.051159 -0.024957 0.008208
v 0.051151 -0.025428 0.007561
v 0.051151 -0.025428 0.007765
v 0.051139 -0.026093 0.008208
v 0.051143 -0.025899 0.007890
v 0.051128 -0.026757 0.008401
v 0.051143 -0.025911 0.008798
v 0.051159 -0.024957 0.008401
v 0.051145 -0.025791 0.008809
v 0.051146 -0.025694 0.008809
v 0.051149 -0.025561 0.008855
v 0.051151 -0.025452 0.008923
v 0.051151 -0.025404 0.009025
v 0.051152 -0.025380 0.009139
v 0.051159 -0.024957 0.010013
v 0.051151 -0.025416 0.009263
v 0.051151 -0.025428 0.009445
v 0.051150 -0.025489 0.009366
v 0.051149 -0.025561 0.009411
v 0.051147 -0.025646 0.009445
v 0.051142 -0.025948 0.008991
v 0.051140 -0.026044 0.009434
v 0.051128 -0.026757 0.009434
v 0.051144 -0.025851 0.009422
v 0.051144 -0.025827 0.009002
v 0.051146 -0.025706 0.009388
v 0.051145 -0.025754 0.009002
v 0.051147 -0.025658 0.009025
v 0.051148 -0.025585 0.009070
v 0.051149 -0.025561 0.009127
v 0.051148 -0.025597 0.009309
v 0.051149 -0.025549 0.009184
v 0.051151 -0.025428 0.010013
v 0.051151 -0.025428 0.009627
v 0.051155 -0.025187 0.010013
v 0.051151 -0.025428 0.010206
v 0.051155 -0.025187 0.010217
v 0.051159 -0.024957 0.011046
v 0.051159 -0.024957 0.010217
v 0.051131 -0.026576 0.010399
v 0.051131 -0.026576 0.011046
v 0.051050 -0.031222 0.013750
v 0.051076 -0.029714 0.012484
v 0.051140 -0.026056 -0.009892
v 0.051155 -0.025175 -0.010108
v 0.051140 -0.026056 -0.010312
v 0.051140 -0.026056 0.005858
v 0.051155 -0.025175 0.005642
v 0.051140 -0.026056 0.005438
v 0.049727 -0.025146 -0.009050
v 0.049727 -0.025146 0.009050
v 0.049961 -0.025150 -0.007654
v 0.049961 -0.025150 0.007654
v 0.049374 -0.029141 -0.010809
v 0.049388 -0.025141 -0.010746
v 0.049421 -0.025141 -0.010592
v 0.049355 -0.025141 -0.010900
v 0.049365 -0.029141 -0.010855
v 0.049355 -0.029141 -0.010900
v 0.049261 -0.025223 -0.011317
v 0.049261 -0.029059 -0.011317
v 0.049177 -0.028824 -0.011673
v 0.049177 -0.025458 -0.011673
v 0.049120 -0.028467 -0.011914
v 0.049120 -0.025815 -0.011914
v 0.049099 -0.026241 -0.012000
v 0.049099 -0.028041 -0.012000
v 0.049787 -0.029148 -0.008716
v 0.050104 -0.029153 -0.006654
v 0.049787 -0.029148 0.008716
v 0.050104 -0.029153 0.006654
v 0.049421 -0.025141 0.010592
v 0.049388 -0.025141 0.010746
v 0.049374 -0.029141 0.010809
v 0.049355 -0.025141 0.010900
v 0.049365 -0.029141 0.010855
v 0.049355 -0.029141 0.010900
v 0.049261 -0.029059 0.011317
v 0.049261 -0.025223 0.011317
v 0.049177 -0.025458 0.011673
v 0.049177 -0.028824 0.011673
v 0.049120 -0.025815 0.011914
v 0.049120 -0.028467 0.011914
v 0.049099 -0.028041 0.012000
v 0.049099 -0.026241 0.012000
vn 0.9891 0.1469 -0.0000
vn 0.9892 0.1469 -0.0000
vn 0.8883 0.4593 -0.0000
vn 0.6916 0.7223 -0.0000
vn -0.0174 -0.9998 -0.0000
vn -0.0175 -0.9998 -0.0000
vn -0.0045 -0.2588 -0.9659
vn -0.0124 -0.7070 -0.7071
vn -0.0123 -0.7070 -0.7071
vn -0.0168 -0.9658 -0.2588
vn -0.9909 -0.1346 -0.0000
vn -0.9048 -0.4257 -0.0000
vn -0.7353 -0.6777 -0.0000
vn -0.7354 -0.6777 -0.0000
vn -0.0168 -0.9658 0.2588
vn -0.0123 -0.7070 0.7071
vn -0.0124 -0.7070 0.7071
vn -0.0045 -0.2588 0.9659
vn 0.9998 -0.0175 -0.0000
vn 0.9998 -0.0174 -0.0000
vn 0.9998 -0.0174 0.0001
vn 0.9998 -0.0174 -0.0001
vn 0.9998 -0.0173 -0.0000
vn 0.9998 -0.0175 0.0001
vn 0.9998 -0.0175 -0.0001
vn 0.9998 -0.0175 -0.0002
vn 0.9998 -0.0176 -0.0000
vn 0.9999 -0.0173 -0.0000
vn 0.9998 -0.0174 -0.0002
vn 0.0174 0.9998 -0.0000
vn 0.0175 0.9998 -0.0000
vn 0.9769 -0.0000 -0.2136
vn 0.9775 -0.0000 -0.2111
vn 0.9781 -0.0001 -0.2080
vn 0.9768 -0.0000 -0.2141
vn 0.9767 -0.0000 -0.2144
vn 0.9766 -0.0000 -0.2151
vn 0.9756 -0.0000 -0.2198
vn 0.9738 -0.0000 -0.2274
vn 0.9724 -0.0000 -0.2333
vn 0.9716 -0.0000 -0.2366
vn 0.9812 -0.0014 -0.1928
vn 0.9812 -0.0015 -0.1927
vn 0.9863 0.0009 -0.1652
vn 0.9884 -0.0027 -0.1521
vn 0.9901 0.0003 -0.1403
vn 0.9924 -0.0003 -0.1231
vn 0.9905 0.0014 -0.1376
vn 0.9938 -0.0073 -0.1112
vn 0.9942 -0.0043 -0.1079
vn 0.9957 0.0010 -0.0927
vn 0.9957 0.0010 0.0927
vn 0.9942 -0.0043 0.1079
vn 0.9938 -0.0073 0.1112
vn 0.9924 -0.0003 0.1231
vn 0.9901 0.0003 0.1403
vn 0.9905 0.0014 0.1376
vn 0.9884 -0.0027 0.1521
vn 0.9863 0.0009 0.1652
vn 0.9812 -0.0015 0.1927
vn 0.9812 -0.0014 0.1928
vn 0.9781 -0.0001 0.2080
vn 0.9775 -0.0000 0.2111
vn 0.9769 -0.0000 0.2136
vn 0.9768 -0.0000 0.2141
vn 0.9767 -0.0000 0.2144
vn 0.9766 -0.0000 0.2151
vn 0.9756 -0.0000 0.2198
vn 0.9738 -0.0000 0.2274
vn 0.9724 -0.0000 0.2333
vn 0.9716 -0.0000 0.2366
vn -0.0000 1.0000 -0.0000
vn -0.0000 0.1973 -0.9803
vn -0.0985 0.2592 -0.9608
vn 0.0723 0.5666 -0.8208
vn -0.1733 0.6979 -0.6949
vn 0.1210 0.8410 -0.5274
vn -0.2223 0.9420 -0.2514
vn -0.0000 0.9812 -0.1931
vn -0.0000 -0.0000 -1.0000
vn -0.0000 -0.1973 -0.9803
vn -0.0846 -0.2565 -0.9628
vn 0.0604 -0.5657 -0.8224
vn -0.1370 -0.6992 -0.7016
vn 0.0857 -0.8403 -0.5352
vn -0.1478 -0.9551 -0.2566
vn -0.0000 -0.9812 -0.1931
vn -0.0000 -1.0000 -0.0000
vn -0.0000 -0.9812 0.1930
vn -0.1479 -0.9551 0.2566
vn 0.0857 -0.8403 0.5353
vn -0.1370 -0.6992 0.7016
vn 0.0604 -0.5657 0.8224
vn -0.0846 -0.2565 0.9628
vn -0.0000 -0.1973 0.9803
vn -0.0000 -0.0000 1.0000
vn -0.0000 0.1973 0.9803
vn -0.0985 0.2592 0.9608
vn 0.0723 0.5666 0.8208
vn -0.1733 0.6979 0.6949
vn 0.1210 0.8410 0.5274
vn -0.2223 0.9420 0.2514
vn -0.0000 0.9812 0.1931
vn -0.0000 1.0000 0.0001
s 0
f 55//1 53//1 56//1
f 56//2 53//2 57//2
f 57//3 53//3 58//3
f 58//3 53//3 51//3
f 58//4 51//4 19//4
f 19//4 21//4 58//4
f 29//5 38//5 42//5
f 42//6 38//6 61//6
f 42//5 61//5 62//5
f 62//6 45//6 42//6
f 25//7 27//7 39//7
f 39//7 27//7 40//7
f 40//8 27//8 41//8
f 41//9 27//9 26//9
f 41//10 26//10 42//10
f 42//10 26//10 29//10
f 34//11 33//11 54//11
f 54//11 33//11 60//11
f 54//12 60//12 59//12
f 8//13 9//13 59//13
f 59//14 9//14 52//14
f 59//12 52//12 54//12
f 35//5 47//5 37//5
f 37//6 47//6 63//6
f 63//5 47//5 64//5
f 64//6 47//6 46//6
f 35//15 30//15 47//15
f 47//15 30//15 49//15
f 49//16 30//16 31//16
f 49//17 31//17 50//17
f 50//18 31//18 48//18
f 48//18 31//18 32//18
f 531//19 66//19 479//19
f 479//20 66//20 65//20
f 479//20 65//20 480//20
f 480//19 65//19 530//19
f 480//20 530//20 481//20
f 71//19 69//19 531//19
f 531//20 69//20 66//20
f 115//19 117//19 114//19
f 114//19 117//19 70//19
f 70//19 117//19 111//19
f 70//19 111//19 68//19
f 68//19 111//19 112//19
f 68//19 112//19 67//19
f 67//19 112//19 113//19
f 120//19 135//19 118//19
f 118//20 135//20 129//20
f 141//19 108//19 149//19
f 149//19 108//19 146//19
f 149//20 146//20 137//20
f 137//20 136//20 149//20
f 106//20 156//20 185//20
f 185//20 156//20 154//20
f 185//21 154//21 184//21
f 184//20 154//20 153//20
f 184//20 153//20 181//20
f 106//22 185//22 166//22
f 166//19 185//19 183//19
f 166//20 183//20 171//20
f 171//19 183//19 175//19
f 175//20 183//20 179//20
f 171//20 167//20 166//20
f 188//20 90//20 186//20
f 186//19 90//19 87//19
f 186//19 87//19 187//19
f 187//21 87//21 177//21
f 187//20 177//20 189//20
f 189//23 177//23 176//23
f 189//20 176//20 178//20
f 229//19 94//19 188//19
f 188//20 94//20 92//20
f 188//24 92//24 90//24
f 94//19 229//19 190//19
f 190//20 229//20 228//20
f 190//20 228//20 226//20
f 226//19 228//19 227//19
f 226//19 227//19 197//19
f 197//20 227//20 155//20
f 228//20 180//20 227//20
f 227//19 180//19 182//19
f 194//20 191//20 226//20
f 226//20 191//20 190//20
f 230//20 232//20 235//20
f 235//19 232//19 241//19
f 243//19 244//19 253//19
f 253//20 244//20 245//20
f 253//19 245//19 240//19
f 240//19 245//19 239//19
f 239//25 245//25 254//25
f 239//20 254//20 238//20
f 242//19 143//19 245//19
f 245//19 143//19 254//19
f 237//20 236//20 240//20
f 240//19 236//19 253//19
f 261//21 128//21 259//21
f 259//20 128//20 121//20
f 259//24 121//24 257//24
f 257//20 121//20 119//20
f 257//20 119//20 132//20
f 261//20 271//20 128//20
f 128//25 271//25 127//25
f 127//22 271//22 126//22
f 126//19 271//19 125//19
f 125//21 271//21 272//21
f 125//20 272//20 144//20
f 144//20 272//20 270//20
f 144//22 270//22 145//22
f 145//26 270//26 269//26
f 145//19 269//19 268//19
f 268//20 269//20 263//20
f 268//21 263//21 267//21
f 267//20 263//20 266//20
f 266//19 263//19 262//19
f 266//20 262//20 265//20
f 265//19 262//19 260//19
f 265//20 260//20 264//20
f 264//19 260//19 258//19
f 264//20 258//20 255//20
f 255//19 258//19 256//19
f 128//20 124//20 121//20
f 123//20 142//20 122//20
f 122//19 142//19 140//19
f 275//22 204//22 273//22
f 273//19 204//19 88//19
f 273//20 88//20 274//20
f 274//21 88//21 278//21
f 278//19 88//19 89//19
f 278//20 89//20 276//20
f 276//20 89//20 91//20
f 276//24 91//24 277//24
f 277//20 91//20 93//20
f 277//20 93//20 280//20
f 280//25 93//25 95//25
f 204//21 275//21 203//21
f 203//19 275//19 279//19
f 203//19 279//19 202//19
f 202//19 279//19 281//19
f 202//20 281//20 200//20
f 200//19 281//19 282//19
f 200//19 282//19 199//19
f 199//19 282//19 284//19
f 199//20 284//20 288//20
f 199//19 288//19 198//19
f 198//21 288//21 287//21
f 198//25 287//25 286//25
f 198//19 286//19 196//19
f 196//21 286//21 285//21
f 196//20 285//20 195//20
f 195//20 285//20 283//20
f 195//19 283//19 193//19
f 193//24 283//24 192//24
f 192//20 283//20 97//20
f 192//20 97//20 96//20
f 291//19 310//19 289//19
f 289//19 310//19 305//19
f 289//20 305//20 298//20
f 310//20 291//20 313//20
f 313//20 291//20 292//20
f 313//19 292//19 314//19
f 314//19 292//19 315//19
f 315//19 292//19 293//19
f 315//23 293//23 316//23
f 316//20 293//20 294//20
f 316//20 294//20 317//20
f 317//19 294//19 319//19
f 319//19 294//19 295//19
f 319//27 295//27 321//27
f 321//20 295//20 296//20
f 321//20 296//20 322//20
f 322//19 296//19 105//19
f 322//27 105//27 323//27
f 323//19 105//19 104//19
f 323//24 104//24 330//24
f 330//22 329//22 323//22
f 323//19 329//19 324//19
f 324//19 329//19 328//19
f 324//20 328//20 320//20
f 320//20 328//20 327//20
f 320//19 327//19 318//19
f 318//27 327//27 326//27
f 318//19 326//19 311//19
f 311//19 312//19 318//19
f 298//20 101//20 289//20
f 289//19 101//19 290//19
f 325//19 353//19 309//19
f 309//20 353//20 331//20
f 331//20 353//20 346//20
f 331//20 346//20 332//20
f 332//19 346//19 342//19
f 332//19 342//19 333//19
f 333//20 342//20 340//20
f 333//19 340//19 336//19
f 336//19 340//19 338//19
f 336//20 338//20 300//20
f 249//20 250//20 353//20
f 353//19 250//19 352//19
f 353//19 352//19 346//19
f 346//20 352//20 350//20
f 346//20 350//20 347//20
f 336//19 300//19 335//19
f 335//21 300//21 308//21
f 335//20 308//20 334//20
f 334//20 308//20 307//20
f 334//20 307//20 306//20
f 360//19 357//19 374//19
f 374//20 357//20 355//20
f 374//19 355//19 251//19
f 251//21 355//21 354//21
f 251//20 354//20 252//20
f 252//25 354//25 356//25
f 252//20 356//20 351//20
f 351//20 356//20 358//20
f 351//19 358//19 349//19
f 349//20 358//20 348//20
f 348//20 358//20 359//20
f 348//19 359//19 344//19
f 344//20 359//20 345//20
f 374//19 373//19 360//19
f 360//19 373//19 361//19
f 361//20 373//20 372//20
f 361//20 372//20 363//20
f 363//20 372//20 365//20
f 365//19 372//19 371//19
f 365//19 371//19 369//19
f 369//20 371//20 370//20
f 369//20 370//20 302//20
f 369//20 302//20 367//20
f 367//20 302//20 337//20
f 367//19 337//19 368//19
f 368//19 337//19 339//19
f 368//23 339//23 366//23
f 366//20 339//20 341//20
f 366//19 341//19 364//19
f 364//19 341//19 343//19
f 364//19 343//19 362//19
f 246//19 532//19 247//19
f 247//19 532//19 533//19
f 247//19 533//19 248//19
f 248//19 533//19 534//19
f 248//19 534//19 303//19
f 303//20 534//20 375//20
f 303//19 375//19 304//19
f 377//20 376//20 246//20
f 246//20 376//20 532//20
f 376//20 375//20 532//20
f 532//20 375//20 534//20
f 534//19 533//19 532//19
f 378//19 131//19 385//19
f 385//19 131//19 130//19
f 385//19 130//19 139//19
f 138//19 390//19 139//19
f 139//20 390//20 387//20
f 139//20 387//20 386//20
f 138//19 150//19 390//19
f 390//19 150//19 389//19
f 390//20 389//20 388//20
f 386//19 385//19 139//19
f 385//20 382//20 378//20
f 395//28 433//28 393//28
f 393//19 433//19 432//19
f 393//19 432//19 398//19
f 398//19 432//19 384//19
f 398//19 384//19 383//19
f 433//23 395//23 434//23
f 434//19 395//19 404//19
f 434//19 404//19 379//19
f 398//19 383//19 399//19
f 399//20 383//20 98//20
f 399//20 98//20 100//20
f 399//20 100//20 402//20
f 402//19 100//19 99//19
f 402//20 99//20 103//20
f 402//19 103//19 400//19
f 400//20 103//20 102//20
f 400//19 102//19 401//19
f 401//20 102//20 297//20
f 401//19 297//19 394//19
f 394//19 297//19 299//19
f 394//19 299//19 396//19
f 396//19 299//19 301//19
f 396//23 301//23 431//23
f 396//20 431//20 397//20
f 397//19 431//19 416//19
f 397//20 416//20 415//20
f 397//19 415//19 403//19
f 403//19 415//19 414//19
f 403//20 414//20 405//20
f 405//19 414//19 430//19
f 405//19 430//19 406//19
f 406//20 430//20 429//20
f 406//19 429//19 407//19
f 407//20 429//20 420//20
f 407//25 420//25 419//25
f 407//20 419//20 408//20
f 408//19 419//19 418//19
f 408//19 418//19 409//19
f 409//20 418//20 424//20
f 409//23 424//23 380//23
f 380//20 424//20 381//20
f 381//19 424//19 423//19
f 381//27 423//27 422//27
f 381//19 422//19 410//19
f 410//19 422//19 427//19
f 410//20 427//20 411//20
f 411//20 427//20 426//20
f 411//20 426//20 133//20
f 133//23 426//23 428//23
f 133//20 428//20 134//20
f 134//20 428//20 412//20
f 412//20 428//20 425//20
f 412//20 425//20 231//20
f 231//19 425//19 421//19
f 231//20 421//20 233//20
f 233//20 421//20 417//20
f 233//19 417//19 234//19
f 234//19 417//19 413//19
f 217//20 474//20 221//20
f 221//19 474//19 473//19
f 221//20 473//20 224//20
f 224//20 473//20 469//20
f 224//20 469//20 463//20
f 211//19 205//19 217//19
f 217//20 205//20 474//20
f 224//19 463//19 225//19
f 225//20 463//20 462//20
f 225//20 462//20 223//20
f 223//20 462//20 222//20
f 222//20 462//20 461//20
f 222//21 461//21 220//21
f 220//20 461//20 460//20
f 220//19 460//19 442//19
f 220//19 442//19 219//19
f 219//20 442//20 441//20
f 219//19 441//19 218//19
f 218//20 441//20 445//20
f 218//23 445//23 216//23
f 216//19 445//19 444//19
f 216//20 444//20 215//20
f 215//19 444//19 459//19
f 215//25 459//25 214//25
f 214//19 459//19 449//19
f 214//20 449//20 213//20
f 213//20 449//20 448//20
f 213//20 448//20 212//20
f 212//20 448//20 447//20
f 212//20 447//20 210//20
f 210//19 447//19 453//19
f 210//19 453//19 209//19
f 209//23 453//23 208//23
f 208//20 453//20 452//20
f 208//25 452//25 207//25
f 207//23 452//23 206//23
f 206//19 452//19 451//19
f 206//20 451//20 86//20
f 86//19 451//19 85//19
f 85//20 451//20 457//20
f 85//20 457//20 83//20
f 83//19 457//19 82//19
f 82//19 457//19 456//19
f 82//20 456//20 81//20
f 81//20 456//20 458//20
f 81//19 458//19 435//19
f 435//20 458//20 455//20
f 435//20 455//20 75//20
f 75//20 455//20 77//20
f 77//20 455//20 454//20
f 77//19 454//19 78//19
f 78//19 454//19 450//19
f 78//19 450//19 436//19
f 436//21 450//21 446//21
f 436//20 446//20 437//20
f 437//23 446//23 438//23
f 438//27 446//27 443//27
f 438//19 443//19 439//19
f 475//19 76//19 482//19
f 482//19 76//19 440//19
f 482//19 440//19 467//19
f 475//19 482//19 478//19
f 478//20 482//20 74//20
f 478//19 74//19 73//19
f 73//20 477//20 478//20
f 478//19 477//19 476//19
f 160//19 535//19 158//19
f 158//19 535//19 536//19
f 158//19 536//19 157//19
f 157//19 536//19 537//19
f 157//19 537//19 201//19
f 201//20 537//20 165//20
f 201//19 165//19 163//19
f 162//20 164//20 160//20
f 160//20 164//20 535//20
f 164//20 165//20 535//20
f 535//20 165//20 537//20
f 536//19 535//19 537//19
f 470//20 161//20 483//20
f 483//19 161//19 159//19
f 110//19 109//19 147//19
f 147//19 109//19 107//19
f 147//19 107//19 148//19
f 148//19 107//19 172//19
f 172//19 107//19 169//19
f 172//19 169//19 170//19
f 170//19 169//19 168//19
f 391//19 152//19 392//19
f 392//20 152//20 79//20
f 79//19 152//19 151//19
f 79//20 151//20 80//20
f 80//19 151//19 173//19
f 80//19 173//19 84//19
f 84//19 173//19 174//19
f 490//19 491//19 493//19
f 493//19 491//19 492//19
f 493//19 492//19 488//19
f 488//19 492//19 487//19
f 487//25 492//25 494//25
f 487//20 494//20 486//20
f 489//19 496//19 492//19
f 492//19 496//19 494//19
f 488//19 485//19 493//19
f 493//20 485//20 484//20
f 500//21 516//21 499//21
f 499//20 516//20 515//20
f 499//19 515//19 498//19
f 498//19 515//19 497//19
f 497//19 515//19 513//19
f 497//20 513//20 509//20
f 516//20 500//20 517//20
f 517//19 500//19 501//19
f 517//29 501//29 518//29
f 518//22 501//22 502//22
f 518//20 502//20 520//20
f 520//20 502//20 504//20
f 520//21 504//21 519//21
f 519//19 504//19 506//19
f 519//22 506//22 507//22
f 519//25 507//25 514//25
f 514//24 507//24 508//24
f 514//24 508//24 512//24
f 512//20 508//20 522//20
f 512//24 522//24 510//24
f 510//20 522//20 464//20
f 510//20 464//20 511//20
f 508//20 505//20 522//20
f 472//19 471//19 509//19
f 509//20 471//20 495//20
f 509//19 495//19 497//19
f 503//20 527//20 523//20
f 523//19 527//19 525//19
f 466//20 465//20 524//20
f 524//20 465//20 521//20
f 526//19 116//19 529//19
f 529//19 116//19 72//19
f 529//19 72//19 468//19
f 468//20 528//20 529//20
f 1//30 15//30 538//30
f 538//30 15//30 539//30
f 538//30 539//30 540//30
f 540//30 539//30 541//30
f 540//31 541//31 36//31
f 36//31 541//31 28//31
f 542//32 543//32 18//32
f 18//33 543//33 544//33
f 18//34 544//34 1//34
f 543//35 542//35 545//35
f 545//36 542//36 546//36
f 545//37 546//37 547//37
f 545//38 547//38 548//38
f 548//38 547//38 549//38
f 548//39 549//39 550//39
f 548//39 550//39 551//39
f 551//40 550//40 552//40
f 551//40 552//40 553//40
f 553//41 552//41 554//41
f 554//41 552//41 555//41
f 1//42 538//42 18//42
f 18//43 538//43 556//43
f 556//44 538//44 540//44
f 556//45 540//45 557//45
f 557//46 540//46 37//46
f 557//47 37//47 63//47
f 540//48 36//48 37//48
f 557//49 63//49 44//49
f 44//50 63//50 64//50
f 44//51 64//51 46//51
f 20//5 18//5 558//5
f 558//5 18//5 556//5
f 558//6 556//6 559//6
f 559//6 556//6 557//6
f 559//6 557//6 43//6
f 43//6 557//6 44//6
f 45//52 62//52 43//52
f 43//53 62//53 61//53
f 43//54 61//54 559//54
f 559//55 61//55 38//55
f 559//56 38//56 541//56
f 541//57 38//57 28//57
f 559//58 541//58 558//58
f 558//59 541//59 539//59
f 558//60 539//60 20//60
f 20//61 539//61 15//61
f 20//62 15//62 560//62
f 560//63 561//63 20//63
f 20//64 561//64 562//64
f 562//65 561//65 563//65
f 562//66 563//66 564//66
f 564//67 563//67 565//67
f 565//68 563//68 566//68
f 566//68 563//68 567//68
f 566//69 567//69 568//69
f 566//69 568//69 569//69
f 569//70 568//70 570//70
f 569//70 570//70 571//70
f 571//71 570//71 572//71
f 572//71 570//71 573//71
f 20//72 562//72 22//72
f 22//72 562//72 564//72
f 22//72 564//72 565//72
f 572//73 6//73 571//73
f 571//74 6//74 24//74
f 571//75 24//75 569//75
f 569//76 24//76 23//76
f 569//77 23//77 566//77
f 566//78 23//78 22//78
f 566//79 22//79 565//79
f 572//80 573//80 6//80
f 6//80 573//80 7//80
f 573//81 570//81 7//81
f 7//82 570//82 4//82
f 4//83 570//83 568//83
f 4//84 568//84 5//84
f 5//85 568//85 567//85
f 5//86 567//86 14//86
f 14//87 567//87 563//87
f 563//88 561//88 14//88
f 14//88 561//88 560//88
f 14//88 560//88 15//88
f 1//88 544//88 2//88
f 2//88 544//88 543//88
f 2//88 543//88 545//88
f 545//89 548//89 2//89
f 2//90 548//90 3//90
f 3//91 548//91 551//91
f 3//92 551//92 13//92
f 13//93 551//93 553//93
f 13//94 553//94 16//94
f 16//95 553//95 554//95
f 555//96 10//96 554//96
f 554//96 10//96 16//96
f 555//97 552//97 10//97
f 10//98 552//98 11//98
f 11//99 552//99 550//99
f 11//100 550//100 12//100
f 12//101 550//101 549//101
f 12//102 549//102 17//102
f 17//103 549//103 547//103
f 547//104 546//104 17//104
f 17//72 546//72 542//72
f 17//72 542//72 18//72
