# Blender 4.0.2
# www.blender.org
o sick_lms1xx_small__m2
v 0.009638 -0.000002 0.052299
v 0.010057 0.006107 0.052299
v 0.010055 -0.006110 0.052299
v 0.011304 0.012102 0.052299
v 0.011300 -0.012105 0.052299
v 0.013355 0.017871 0.052299
v 0.020731 -0.001476 0.024551
v 0.009716 -0.002659 0.048332
v 0.009638 -0.000002 0.048332
v 0.020831 0.002632 0.024550
v 0.009775 0.003500 0.048332
v 0.010502 -0.008769 0.048332
v 0.010678 0.009593 0.048332
v 0.021511 0.007219 0.024550
v 0.021378 -0.006603 0.024550
v 0.012116 -0.014713 0.048332
v 0.022812 0.011670 0.024550
v 0.012406 0.015505 0.048332
v 0.013349 -0.017875 0.052299
v 0.016173 0.023306 0.052299
v 0.022593 -0.011078 0.024550
v 0.014530 -0.020380 0.048332
v 0.016165 -0.023312 0.052299
v 0.014928 0.021125 0.048332
v 0.024410 -0.015344 0.024550
v 0.024710 0.015900 0.024550
v 0.019705 0.028308 0.052299
v 0.017697 -0.025663 0.048332
v 0.018196 0.026346 0.048332
v 0.019695 -0.028315 0.052299
v 0.026795 -0.019321 0.024550
v 0.027170 0.019831 0.024550
v 0.023885 0.032782 0.052299
v 0.021558 -0.030462 0.048332
v 0.023874 -0.032790 0.052299
v 0.022148 0.031070 0.048332
v 0.030145 0.023387 0.024550
v 0.020728 -0.000004 0.017300
v 0.021143 -0.005287 0.017300
v 0.021145 0.005279 0.017300
v 0.022379 -0.010440 0.017300
v 0.022383 0.010432 0.017300
v 0.028635 0.036645 0.052299
v 0.029701 -0.022934 0.024550
v 0.026040 -0.034688 0.048332
v 0.024406 -0.015336 0.017300
v 0.026710 0.035209 0.048332
v 0.024411 0.015328 0.017300
v 0.028622 -0.036655 0.052299
v 0.033580 0.026503 0.024550
v 0.027174 -0.019855 0.017300
v 0.027181 0.019846 0.017300
v 0.033867 0.039826 0.052299
v 0.033075 -0.026115 0.024550
v 0.031058 -0.038259 0.048332
v 0.037409 0.029118 0.024550
v 0.031796 0.038683 0.048332
v 0.030615 -0.023885 0.017300
v 0.030623 0.023875 0.017300
v 0.033853 -0.039837 0.052299
v 0.034644 -0.027328 0.017300
v 0.034654 0.027316 0.017300
v 0.039483 0.042264 0.052299
v 0.036853 -0.028804 0.024550
v 0.036518 -0.041109 0.048332
v 0.039469 -0.042278 0.052299
v 0.037310 0.041428 0.048332
v 0.040963 -0.030949 0.024550
v 0.041560 0.031185 0.024550
v 0.039162 -0.030097 0.017300
v 0.039172 0.030084 0.017300
v 0.045379 0.043915 0.052299
v 0.045954 0.032663 0.024550
v 0.044058 -0.032126 0.017300
v 0.044069 0.032111 0.017300
v 0.042318 -0.043185 0.048332
v 0.045365 -0.043931 0.052299
v 0.043148 0.043392 0.048332
v 0.045329 -0.032512 0.024550
v 0.051445 0.044748 0.052299
v 0.049211 -0.033364 0.017300
v 0.049222 0.033347 0.017300
v 0.049868 -0.033462 0.024550
v 0.048347 -0.044447 0.048332
v 0.051430 -0.044765 0.052299
v 0.049201 0.044538 0.048332
v 0.050510 0.033526 0.024550
v 0.054494 -0.033781 0.017300
v 0.054505 0.033762 0.017300
v 0.054494 -0.033781 0.024550
v 0.054505 0.033762 0.024550
v 0.054492 -0.044871 0.048332
v 0.057553 -0.044766 0.052299
v 0.057568 0.044747 0.052299
v 0.057561 0.044643 0.048332
v 0.054507 0.044852 0.048332
v 0.057546 -0.044662 0.048332
v 0.059777 -0.033366 0.017300
v 0.059092 -0.033467 0.024550
v 0.059788 0.033346 0.017300
v 0.059103 0.033447 0.024550
v 0.060600 -0.044454 0.048332
v 0.063619 -0.043934 0.052299
v 0.060615 0.044433 0.048332
v 0.063634 0.043912 0.052299
v 0.063613 0.043810 0.048332
v 0.063598 -0.043831 0.048332
v 0.063605 -0.032530 0.024550
v 0.066595 -0.043209 0.048332
v 0.064930 -0.032130 0.017300
v 0.063616 0.032508 0.024550
v 0.064941 0.032108 0.017300
v 0.069515 -0.042283 0.052299
v 0.069480 -0.042184 0.048332
v 0.066610 0.043186 0.048332
v 0.067959 0.030964 0.024550
v 0.069530 0.042259 0.052299
v 0.069495 0.042161 0.048332
v 0.067949 -0.030987 0.024550
v 0.072365 -0.041160 0.048332
v 0.069826 -0.030102 0.017300
v 0.069836 0.030079 0.017300
v 0.075084 -0.039752 0.048332
v 0.072051 0.028843 0.024550
v 0.072379 0.041135 0.048332
v 0.075132 -0.039844 0.052299
v 0.075145 0.039819 0.052299
v 0.075097 0.039726 0.048332
v 0.072042 -0.028867 0.024550
v 0.077802 -0.038344 0.048332
v 0.074345 -0.027334 0.017300
v 0.074354 0.027309 0.017300
v 0.080303 -0.036579 0.048332
v 0.075816 0.026184 0.024550
v 0.077815 0.038317 0.048332
v 0.075808 -0.026210 0.024550
v 0.082805 -0.034813 0.048332
v 0.080316 0.036551 0.048332
v 0.078375 -0.023893 0.017300
v 0.078383 0.023867 0.017300
v 0.080364 -0.036664 0.052299
v 0.080376 0.036637 0.052299
v 0.085043 -0.032724 0.048332
v 0.079185 0.023037 0.024550
v 0.082817 0.034785 0.048332
v 0.079177 -0.023064 0.024550
v 0.087280 -0.030635 0.048332
v 0.085054 0.032695 0.048332
v 0.081818 -0.019864 0.017300
v 0.081824 0.019836 0.017300
v 0.082086 -0.019489 0.024550
v 0.089213 -0.028261 0.048332
v 0.082093 0.019461 0.024550
v 0.087291 0.030605 0.048332
v 0.085114 -0.032801 0.052299
v 0.085125 0.032772 0.052299
v 0.091145 -0.025886 0.048332
v 0.089222 0.028230 0.048332
v 0.084587 -0.015346 0.017300
v 0.084482 -0.015551 0.024550
v 0.084592 0.015318 0.017300
v 0.092736 -0.023271 0.048332
v 0.084487 0.015523 0.024550
v 0.091154 0.025855 0.048332
v 0.092744 0.023239 0.048332
v 0.095548 -0.017847 0.048332
v 0.094327 -0.020655 0.048332
v 0.094334 0.020623 0.048332
v 0.086319 -0.011324 0.024550
v 0.096768 -0.015040 0.048332
v 0.086323 0.011295 0.024550
v 0.095554 0.017815 0.048332
v 0.086616 -0.010451 0.017300
v 0.086620 0.010421 0.017300
v 0.089294 -0.028327 0.052299
v 0.089304 0.028296 0.052299
v 0.097594 -0.012092 0.048332
v 0.087566 0.006856 0.024550
v 0.096773 0.015007 0.048332
v 0.087563 -0.006886 0.024550
v 0.098421 -0.009144 0.048332
v 0.097598 0.012059 0.048332
v 0.087854 -0.005298 0.017300
v 0.087856 0.005268 0.017300
v 0.088192 -0.002320 0.024550
v 0.098838 -0.006111 0.048332
v 0.098424 0.009111 0.048332
v 0.099255 -0.003078 0.048332
v 0.088260 0.001566 0.024551
v 0.098840 0.006078 0.048332
v 0.088271 -0.000015 0.017300
v 0.099361 -0.000017 0.048332
v 0.099257 0.003045 0.048332
v 0.092826 -0.023325 0.052299
v 0.092834 0.023293 0.052299
v 0.095644 -0.017889 0.052299
v 0.095650 0.017857 0.052299
v 0.097695 -0.012120 0.052299
v 0.097699 0.012087 0.052299
v 0.098942 -0.006125 0.052299
v 0.098944 0.006092 0.052299
v 0.099361 -0.000017 0.052299
vn -0.9066 -0.0266 -0.4212
vn -0.9055 0.0219 -0.4238
vn -0.9057 0.0354 -0.4224
vn -0.9992 0.0391 -0.0000
vn -0.9996 -0.0293 -0.0000
vn -0.9973 0.0684 0.0259
vn -0.9973 -0.0681 0.0260
vn -0.9915 -0.1275 -0.0262
vn -0.9788 -0.2033 0.0260
vn -0.9787 0.2036 0.0257
vn -0.9889 0.1466 -0.0260
vn -0.8991 -0.1157 -0.4222
vn -0.8969 0.1330 -0.4218
vn -0.8969 0.1329 -0.4218
vn -0.8750 -0.2376 -0.4218
vn -0.8996 -0.1134 -0.4217
vn -0.9647 -0.2620 -0.0262
vn -0.8703 0.2544 -0.4218
vn -0.9595 0.2805 -0.0260
vn -0.9420 -0.3345 0.0262
vn -0.9419 0.3349 0.0256
vn -0.8342 -0.3553 -0.4218
vn -0.9197 -0.3918 -0.0264
vn -0.8877 -0.4598 0.0261
vn -0.8875 0.4601 0.0255
vn -0.9120 0.4093 -0.0259
vn -0.8272 0.3712 -0.4218
vn -0.7777 -0.4662 -0.4218
vn -0.8574 -0.5140 -0.0265
vn -0.7685 0.4811 -0.4218
vn -0.8474 0.5304 -0.0257
vn -0.8168 -0.5763 0.0261
vn -0.8166 0.5766 0.0254
vn -0.7776 -0.4663 -0.4218
vn -0.7686 0.4810 -0.4218
vn -0.7064 -0.5684 -0.4218
vn -0.7789 -0.6266 -0.0266
vn -0.7306 -0.6823 0.0262
vn -0.7305 0.6825 0.0253
vn -0.7667 0.6414 -0.0256
vn -0.6954 0.5818 -0.4218
vn -0.9968 -0.0783 -0.0155
vn -0.9968 0.0787 -0.0144
vn -0.9997 0.0243 0.0054
vn -0.9921 -0.1252 0.0094
vn -0.9724 -0.2332 -0.0108
vn -0.9722 0.2336 -0.0134
vn -0.9891 0.1466 0.0107
vn -0.9650 -0.2620 0.0054
vn -0.9598 0.2805 0.0089
vn -0.6220 -0.6597 -0.4218
vn -0.7065 -0.5683 -0.4218
vn -0.6858 -0.7273 -0.0265
vn -0.6092 0.6715 -0.4218
vn -0.6717 0.7404 -0.0254
vn -0.9239 -0.3825 -0.0064
vn -0.9238 0.3827 -0.0107
vn -0.9200 -0.3919 0.0001
vn -0.9124 0.4094 0.0053
vn -0.6311 -0.7753 0.0263
vn -0.6307 0.7756 0.0253
vn -0.8527 -0.5223 -0.0001
vn -0.8576 -0.5143 -0.0070
vn -0.8477 0.5305 -0.0069
vn -0.8525 0.5227 -0.0002
vn -0.5257 -0.7387 -0.4218
vn -0.5796 -0.8145 -0.0266
vn -0.5113 0.7487 -0.4218
vn -0.5114 0.7487 -0.4218
vn -0.5639 0.8255 -0.0252
vn -0.7605 -0.6493 -0.0107
vn -0.7792 -0.6267 0.0054
vn -0.7603 0.6495 -0.0064
vn -0.7670 0.6417 0.0002
vn -0.5195 -0.8541 0.0263
vn -0.5193 0.8542 0.0250
vn -0.6496 -0.7602 -0.0134
vn -0.6860 -0.7276 0.0090
vn -0.6492 0.7605 -0.0109
vn -0.6719 0.7407 0.0056
vn -0.4196 -0.8038 -0.4218
vn -0.5258 -0.7387 -0.4218
vn -0.4626 -0.8862 -0.0266
vn -0.5639 0.8258 0.0091
vn -0.3985 -0.9168 0.0263
vn -0.3981 0.9170 0.0248
vn -0.4455 0.8949 -0.0253
vn -0.4195 -0.8038 -0.4218
vn -0.4041 0.8116 -0.4218
vn -0.4041 0.8117 -0.4218
vn -0.5225 -0.8525 -0.0144
vn -0.5798 -0.8147 0.0108
vn -0.5224 0.8526 -0.0134
vn -0.4626 -0.8865 0.0108
vn -0.2891 0.8594 -0.4218
vn -0.3828 -0.9237 -0.0135
vn -0.3824 0.9239 -0.0143
vn -0.4457 0.8951 0.0109
vn -0.3369 -0.9412 -0.0268
vn -0.2699 -0.9625 0.0263
vn -0.2696 0.9627 0.0247
vn -0.3188 0.9475 -0.0251
vn -0.3055 -0.8537 -0.4218
vn -0.3056 -0.8536 -0.4218
vn -0.3370 -0.9415 0.0090
vn -0.3188 0.9478 0.0107
vn -0.2336 -0.9723 -0.0108
vn -0.2332 0.9723 -0.0134
vn -0.2049 -0.9788 0.0053
vn -0.1857 -0.8875 -0.4218
vn -0.2048 -0.9784 -0.0267
vn -0.1362 -0.9903 0.0264
vn -0.1360 0.9904 0.0245
vn -0.1860 0.9822 -0.0249
vn -0.1858 -0.8875 -0.4218
vn -0.1687 0.8908 -0.4218
vn -0.1687 0.8909 -0.4218
vn -0.1861 0.9825 0.0088
vn -0.0787 -0.9969 -0.0063
vn -0.0783 0.9969 -0.0107
vn -0.0688 -0.9976 -0.0000
vn -0.0624 -0.9045 -0.4218
vn -0.0590 0.9983 -0.0000
vn -0.0535 0.9050 -0.4220
vn -0.0688 -0.9973 -0.0265
vn -0.0002 -0.9996 0.0266
vn 0.0002 0.9997 -0.0262
vn 0.0681 0.9946 0.0786
vn -0.0591 0.9981 -0.0194
vn -0.0536 0.9050 -0.4220
vn 0.0619 -0.9046 -0.4218
vn 0.0683 -0.9973 -0.0263
vn 0.0783 -0.9969 -0.0065
vn 0.0681 -0.9977 -0.0000
vn 0.0618 -0.9046 -0.4218
vn 0.0785 0.9969 -0.0065
vn 0.0683 0.9977 -0.0000
vn 0.0619 0.9046 -0.4218
vn 0.0620 0.9046 -0.4218
vn 0.0616 -0.9046 -0.4218
vn 0.1358 -0.9904 -0.0262
vn 0.0677 -0.9946 0.0788
vn 0.0622 0.9045 -0.4218
vn 0.0686 0.9973 -0.0263
vn 0.1363 0.9903 -0.0262
vn 0.2028 0.9761 0.0785
vn 0.1845 -0.8877 -0.4218
vn 0.2033 -0.9791 0.0056
vn 0.1843 -0.8878 -0.4218
vn 0.1842 -0.8878 -0.4218
vn 0.2332 -0.9724 -0.0110
vn 0.2037 0.9790 0.0056
vn 0.1845 0.8877 -0.4218
vn 0.1847 0.8877 -0.4218
vn 0.2336 0.9723 -0.0110
vn 0.2034 -0.9787 -0.0265
vn 0.2696 -0.9626 -0.0264
vn 0.2026 -0.9761 0.0787
vn 0.3035 -0.8544 -0.4218
vn 0.1848 0.8876 -0.4218
vn 0.2038 0.9787 -0.0262
vn 0.3350 0.9422 0.0092
vn 0.3037 0.8543 -0.4218
vn 0.2699 0.9625 -0.0262
vn 0.3338 0.9394 0.0785
vn 0.3347 -0.9423 0.0092
vn 0.3033 -0.8545 -0.4218
vn 0.3035 0.8543 -0.4218
vn 0.3826 -0.9238 -0.0137
vn 0.3829 0.9237 -0.0136
vn 0.3347 -0.9420 -0.0265
vn 0.4169 -0.8051 -0.4218
vn 0.4602 0.8878 0.0108
vn 0.3039 0.8542 -0.4218
vn 0.4172 0.8050 -0.4218
vn 0.3982 -0.9169 -0.0264
vn 0.3334 -0.9394 0.0791
vn 0.3351 0.9418 -0.0262
vn 0.3984 0.9168 -0.0263
vn 0.4588 0.8850 0.0787
vn 0.4599 -0.8879 0.0107
vn 0.4170 -0.8051 -0.4218
vn 0.4173 0.8050 -0.4218
vn 0.5223 -0.8527 -0.0144
vn 0.5226 0.8524 -0.0143
vn 0.5228 -0.7408 -0.4218
vn 0.5768 0.8168 0.0104
vn 0.5230 0.7406 -0.4218
vn 0.4597 -0.8877 -0.0261
vn 0.5765 -0.8171 0.0103
vn 0.5227 -0.7409 -0.4218
vn 0.5228 -0.7407 -0.4218
vn 0.6493 -0.7604 -0.0131
vn 0.6495 0.7603 -0.0130
vn 0.5192 -0.8542 -0.0261
vn 0.4585 -0.8852 0.0787
vn 0.4601 0.8875 -0.0264
vn 0.5195 0.8541 -0.0264
vn 0.5750 0.8143 0.0787
vn 0.6187 -0.6628 -0.4218
vn 0.6826 0.7308 0.0081
vn 0.6189 0.6626 -0.4218
vn 0.5764 -0.8167 -0.0264
vn 0.6825 -0.7309 0.0081
vn 0.6188 -0.6627 -0.4218
vn 0.6190 0.6625 -0.4218
vn 0.7602 -0.6496 -0.0098
vn 0.7605 0.6492 -0.0098
vn 0.7757 -0.6311 0.0040
vn 0.7033 -0.5723 -0.4218
vn 0.7031 -0.5725 -0.4218
vn 0.7758 0.6309 0.0038
vn 0.7035 0.5720 -0.4218
vn 0.6307 -0.7756 -0.0263
vn 0.5749 -0.8145 0.0785
vn 0.5766 0.8166 -0.0264
vn 0.6310 0.7753 -0.0263
vn 0.6806 0.7284 0.0787
vn 0.7033 -0.5722 -0.4218
vn 0.8543 -0.5198 -0.0047
vn 0.8526 -0.5225 -0.0024
vn 0.8527 0.5224 -0.0046
vn 0.7746 -0.4713 -0.4218
vn 0.8545 0.5195 -0.0023
vn 0.7034 0.5722 -0.4218
vn 0.7748 0.4709 -0.4218
vn 0.7748 0.4710 -0.4218
vn 0.6821 -0.7308 -0.0264
vn 0.8315 -0.3616 -0.4218
vn 0.7747 -0.4711 -0.4218
vn 0.9171 -0.3986 0.0020
vn 0.8315 -0.3614 -0.4218
vn 0.9172 0.3983 0.0020
vn 0.8316 0.3613 -0.4218
vn 0.8317 0.3611 -0.4218
vn 0.9238 -0.3829 -0.0083
vn 0.9239 0.3826 -0.0083
vn 0.7305 -0.6825 -0.0263
vn 0.6804 -0.7286 0.0785
vn 0.6825 0.7305 -0.0264
vn 0.7307 0.6822 -0.0265
vn 0.7735 0.6289 0.0788
vn 0.8731 -0.2446 -0.4218
vn 0.9629 0.2696 0.0069
vn 0.8317 0.3610 -0.4218
vn 0.8731 0.2445 -0.4218
vn 0.9629 -0.2699 0.0069
vn 0.8730 -0.2447 -0.4218
vn 0.8730 -0.2449 -0.4218
vn 0.8731 0.2444 -0.4218
vn 0.9723 -0.2336 -0.0121
vn 0.9723 0.2332 -0.0122
vn 0.7752 -0.6312 -0.0263
vn 0.9906 -0.1365 0.0099
vn 0.8982 -0.1237 -0.4218
vn 0.8982 -0.1235 -0.4218
vn 0.8731 0.2446 -0.4218
vn 0.9914 0.1301 0.0112
vn 0.8983 0.1232 -0.4218
vn 0.8988 0.1178 -0.4222
vn 0.9968 -0.0787 -0.0142
vn 0.9968 0.0783 -0.0156
vn 0.9998 -0.0175 0.0053
vn 0.9056 -0.0157 -0.4238
vn 0.9059 -0.0314 -0.4224
vn 0.8978 0.1234 -0.4228
vn 0.9065 0.0308 -0.4211
vn 0.8166 -0.5766 -0.0263
vn 0.7734 -0.6291 0.0784
vn 0.7755 0.6308 -0.0265
vn 0.8168 0.5763 -0.0264
vn 0.8519 0.5178 0.0787
vn 0.8540 -0.5196 -0.0264
vn 0.8875 -0.4601 -0.0264
vn 0.8518 -0.5180 0.0784
vn 0.8542 0.5192 -0.0264
vn 0.8876 0.4598 -0.0263
vn 0.9144 0.3973 0.0784
vn 0.9167 -0.3986 -0.0264
vn 0.9419 -0.3349 -0.0263
vn 0.9143 -0.3974 0.0788
vn 0.9170 0.3981 -0.0264
vn 0.9420 0.3345 -0.0263
vn 0.9600 0.2687 0.0788
vn 0.9626 -0.2697 -0.0264
vn 0.9787 -0.2036 -0.0264
vn 0.9598 -0.2693 0.0789
vn 0.9626 0.2697 -0.0264
vn 0.9788 0.2033 -0.0264
vn 0.9876 0.1355 0.0789
vn 0.9903 -0.1362 -0.0264
vn 0.9973 -0.0684 -0.0264
vn 0.9876 -0.1358 0.0784
vn 0.9903 0.1362 -0.0264
vn 0.9977 0.0681 -0.0000
vn 0.9980 0.0339 0.0527
vn 0.9994 -0.0346 -0.0000
s 0
f 7//1 8//1 9//1
f 10//2 7//2 9//2
f 11//3 10//3 9//3
f 1//4 11//4 9//4
f 8//5 1//5 9//5
f 2//6 11//6 1//6
f 8//7 3//7 1//7
f 8//8 12//8 3//8
f 12//9 5//9 3//9
f 4//10 13//10 2//10
f 13//11 11//11 2//11
f 7//12 12//12 8//12
f 14//13 10//13 11//13
f 13//14 14//14 11//14
f 15//15 16//15 12//15
f 7//16 15//16 12//16
f 16//17 5//17 12//17
f 17//18 14//18 13//18
f 18//18 17//18 13//18
f 4//19 18//19 13//19
f 16//20 19//20 5//20
f 6//21 18//21 4//21
f 15//15 21//15 16//15
f 21//22 22//22 16//22
f 22//23 19//23 16//23
f 22//24 23//24 19//24
f 20//25 24//25 6//25
f 24//26 18//26 6//26
f 21//22 25//22 22//22
f 26//27 17//27 18//27
f 24//27 26//27 18//27
f 25//28 28//28 22//28
f 28//29 23//29 22//29
f 29//30 26//30 24//30
f 20//31 29//31 24//31
f 28//32 30//32 23//32
f 27//33 29//33 20//33
f 25//34 31//34 28//34
f 32//35 26//35 29//35
f 31//36 34//36 28//36
f 34//37 30//37 28//37
f 34//38 35//38 30//38
f 33//39 36//39 27//39
f 36//40 29//40 27//40
f 37//41 32//41 29//41
f 36//41 37//41 29//41
f 39//42 7//42 38//42
f 10//43 40//43 38//43
f 7//44 10//44 38//44
f 15//45 7//45 39//45
f 41//46 15//46 39//46
f 14//47 42//47 40//47
f 10//48 14//48 40//48
f 41//49 21//49 15//49
f 17//50 42//50 14//50
f 44//51 45//51 34//51
f 31//52 44//52 34//52
f 45//53 35//53 34//53
f 47//54 37//54 36//54
f 33//55 47//55 36//55
f 46//56 21//56 41//56
f 17//57 48//57 42//57
f 46//58 25//58 21//58
f 26//59 48//59 17//59
f 45//60 49//60 35//60
f 43//61 47//61 33//61
f 50//54 37//54 47//54
f 51//62 25//62 46//62
f 51//63 31//63 25//63
f 26//64 32//64 48//64
f 32//65 52//65 48//65
f 54//66 55//66 45//66
f 44//51 54//51 45//51
f 55//67 49//67 45//67
f 56//68 50//68 47//68
f 57//69 56//69 47//69
f 43//70 57//70 47//70
f 58//71 44//71 51//71
f 44//72 31//72 51//72
f 37//73 59//73 52//73
f 32//74 37//74 52//74
f 55//75 60//75 49//75
f 53//76 57//76 43//76
f 61//77 54//77 58//77
f 54//78 44//78 58//78
f 50//79 62//79 59//79
f 37//80 50//80 59//80
f 64//81 65//81 55//81
f 54//82 64//82 55//82
f 65//83 60//83 55//83
f 56//84 62//84 50//84
f 65//85 66//85 60//85
f 63//86 67//86 53//86
f 67//87 57//87 53//87
f 64//88 68//88 65//88
f 69//89 56//89 57//89
f 67//90 69//90 57//90
f 70//91 64//91 61//91
f 64//92 54//92 61//92
f 56//93 71//93 62//93
f 70//94 68//94 64//94
f 73//95 69//95 67//95
f 74//96 68//96 70//96
f 69//97 75//97 71//97
f 56//98 69//98 71//98
f 65//99 76//99 66//99
f 76//100 77//100 66//100
f 72//101 78//101 63//101
f 78//102 67//102 63//102
f 79//103 76//103 65//103
f 68//104 79//104 65//104
f 78//95 73//95 67//95
f 74//105 79//105 68//105
f 73//106 75//106 69//106
f 81//107 79//107 74//107
f 73//108 82//108 75//108
f 81//109 83//109 79//109
f 83//110 76//110 79//110
f 76//111 84//111 77//111
f 84//112 85//112 77//112
f 80//113 86//113 72//113
f 86//114 78//114 72//114
f 83//115 84//115 76//115
f 87//116 73//116 78//116
f 86//117 87//117 78//117
f 87//118 82//118 73//118
f 88//119 83//119 81//119
f 87//120 89//120 82//120
f 88//121 90//121 83//121
f 90//122 84//122 83//122
f 91//123 89//123 87//123
f 86//124 91//124 87//124
f 84//125 92//125 85//125
f 92//126 93//126 85//126
f 90//122 92//122 84//122
f 94//127 95//127 80//127
f 95//128 96//128 80//128
f 96//129 86//129 80//129
f 96//130 91//130 86//130
f 90//131 97//131 92//131
f 97//132 93//132 92//132
f 98//133 99//133 88//133
f 99//134 90//134 88//134
f 99//135 97//135 90//135
f 101//136 100//136 89//136
f 91//137 101//137 89//137
f 96//138 95//138 91//138
f 95//139 101//139 91//139
f 99//140 102//140 97//140
f 103//141 93//141 97//141
f 102//142 103//142 97//142
f 104//143 101//143 95//143
f 94//144 104//144 95//144
f 105//145 106//145 94//145
f 106//146 104//146 94//146
f 107//147 102//147 99//147
f 98//148 108//148 99//148
f 108//149 109//149 99//149
f 109//150 107//150 99//150
f 110//151 108//151 98//151
f 111//152 100//152 101//152
f 104//153 106//153 101//153
f 106//154 111//154 101//154
f 111//155 112//155 100//155
f 107//156 103//156 102//156
f 113//157 103//157 107//157
f 109//158 113//158 107//158
f 114//159 109//159 108//159
f 115//160 111//160 106//160
f 105//161 115//161 106//161
f 116//162 112//162 111//162
f 115//163 116//163 111//163
f 117//164 118//164 105//164
f 118//165 115//165 105//165
f 110//166 119//166 108//166
f 119//159 120//159 108//159
f 120//167 114//167 108//167
f 115//168 118//168 116//168
f 121//169 119//169 110//169
f 116//170 122//170 112//170
f 114//171 113//171 109//171
f 123//172 120//172 119//172
f 124//173 122//173 116//173
f 118//174 125//174 116//174
f 125//175 124//175 116//175
f 126//176 113//176 114//176
f 120//177 126//177 114//177
f 117//178 125//178 118//178
f 127//179 128//179 117//179
f 128//180 125//180 117//180
f 121//181 129//181 119//181
f 129//182 130//182 119//182
f 130//182 123//182 119//182
f 125//183 128//183 124//183
f 131//184 129//184 121//184
f 124//185 132//185 122//185
f 133//186 130//186 129//186
f 134//187 132//187 124//187
f 128//183 135//183 124//183
f 135//188 134//188 124//188
f 123//189 126//189 120//189
f 131//190 136//190 129//190
f 136//191 137//191 129//191
f 137//192 133//192 129//192
f 135//188 138//188 134//188
f 139//193 136//193 131//193
f 134//194 140//194 132//194
f 141//195 126//195 123//195
f 130//196 141//196 123//196
f 127//197 135//197 128//197
f 142//198 138//198 127//198
f 138//199 135//199 127//199
f 143//200 137//200 136//200
f 144//201 140//201 134//201
f 138//188 145//188 134//188
f 145//202 144//202 134//202
f 133//203 141//203 130//203
f 139//204 146//204 136//204
f 146//205 147//205 136//205
f 147//205 143//205 136//205
f 145//206 148//206 144//206
f 149//207 146//207 139//207
f 144//208 150//208 140//208
f 149//209 151//209 146//209
f 151//210 152//210 146//210
f 152//211 147//211 146//211
f 153//212 150//212 144//212
f 148//206 154//206 144//206
f 154//213 153//213 144//213
f 155//214 141//214 133//214
f 137//215 155//215 133//215
f 142//216 145//216 138//216
f 156//217 148//217 142//217
f 148//218 145//218 142//218
f 157//219 152//219 151//219
f 154//213 158//213 153//213
f 160//220 151//220 149//220
f 159//221 160//221 149//221
f 153//222 161//222 150//222
f 160//223 162//223 151//223
f 162//223 157//223 151//223
f 163//224 161//224 153//224
f 158//225 164//225 153//225
f 164//226 165//226 153//226
f 165//227 163//227 153//227
f 143//228 155//228 137//228
f 166//229 167//229 160//229
f 167//230 162//230 160//230
f 165//226 168//226 163//226
f 159//231 169//231 160//231
f 169//232 170//232 160//232
f 170//232 166//232 160//232
f 171//233 161//233 163//233
f 168//234 172//234 163//234
f 172//235 171//235 163//235
f 173//236 169//236 159//236
f 171//237 174//237 161//237
f 175//238 155//238 143//238
f 147//239 175//239 143//239
f 156//240 154//240 148//240
f 176//241 158//241 156//241
f 158//242 154//242 156//242
f 177//243 170//243 169//243
f 178//244 174//244 171//244
f 172//245 179//245 171//245
f 179//246 178//246 171//246
f 173//247 180//247 169//247
f 180//248 181//248 169//248
f 181//249 177//249 169//249
f 179//250 182//250 178//250
f 183//251 180//251 173//251
f 178//252 184//252 174//252
f 152//253 175//253 147//253
f 183//254 185//254 180//254
f 185//255 186//255 180//255
f 186//256 181//256 180//256
f 182//257 187//257 178//257
f 188//256 186//256 185//256
f 189//258 184//258 178//258
f 187//259 190//259 178//259
f 190//260 189//260 178//260
f 191//261 185//261 183//261
f 189//262 191//262 184//262
f 191//263 189//263 185//263
f 189//264 192//264 185//264
f 192//265 188//265 185//265
f 190//266 193//266 189//266
f 193//267 192//267 189//267
f 194//268 175//268 152//268
f 157//269 194//269 152//269
f 176//270 164//270 158//270
f 195//271 165//271 176//271
f 165//272 164//272 176//272
f 162//273 194//273 157//273
f 196//274 194//274 162//274
f 167//275 196//275 162//275
f 195//276 168//276 165//276
f 197//277 172//277 195//277
f 172//278 168//278 195//278
f 166//279 196//279 167//279
f 198//280 196//280 166//280
f 170//281 198//281 166//281
f 197//282 179//282 172//282
f 199//283 182//283 197//283
f 182//284 179//284 197//284
f 177//285 198//285 170//285
f 200//286 198//286 177//286
f 181//287 200//287 177//287
f 199//288 187//288 182//288
f 201//289 190//289 199//289
f 190//290 187//290 199//290
f 186//291 200//291 181//291
f 202//292 200//292 186//292
f 188//293 202//293 186//293
f 201//294 193//294 190//294
f 202//295 192//295 201//295
f 192//296 193//296 201//296
f 192//297 202//297 188//297
