# Blender 4.0.2
# www.blender.org
o sick_lms1xx_small__m0
v 0.000900 0.049971 -0.048804
v 0.000959 0.045429 -0.048816
v 0.001217 0.049820 -0.048877
v 0.001058 -0.045452 -0.048840
v 0.001174 -0.000010 -0.048867
v 0.004559 -0.044685 -0.049648
v 0.006971 -0.045360 -0.050205
v 0.004824 -0.043915 -0.049709
v 0.001463 0.050574 -0.048934
v 0.104990 0.000166 -0.072835
v 0.104841 -0.004115 -0.072795
v 0.104130 -0.009325 -0.072632
v 0.075998 -0.037248 -0.066141
v 0.078031 -0.037935 -0.066611
v 0.077151 -0.044980 -0.066407
v 0.077190 -0.045048 -0.066413
v 0.001677 0.050211 -0.048983
v 0.001693 -0.050236 -0.048987
v 0.024518 0.050718 -0.054256
v 0.027138 0.050431 -0.054861
v 0.026991 -0.050454 -0.054827
v 0.035515 0.050465 -0.056795
v 0.035808 0.050156 -0.056863
v 0.045551 0.049426 -0.059113
v 0.046164 0.049644 -0.059243
v 0.048144 0.049829 -0.059711
v 0.050437 0.050131 -0.060244
v 0.053305 0.050131 -0.036151
v 0.053487 0.050252 -0.042257
v 0.053384 0.050109 -0.034705
v 0.053474 0.050020 -0.028629
v 0.053494 0.050361 -0.049115
v 0.053491 0.050314 -0.045055
v 0.054251 -0.050426 -0.051245
v 0.053755 -0.050408 -0.050427
v 0.053496 -0.050385 -0.049419
v 0.053544 -0.050301 -0.044464
v 0.053464 -0.050225 -0.040999
v 0.053461 -0.050181 -0.038180
v 0.054546 0.049781 -0.015151
v 0.053714 0.049794 -0.016382
v 0.053458 0.049807 -0.017392
v 0.053522 0.049896 -0.022347
v 0.053460 0.049966 -0.025812
v 0.053363 -0.050081 -0.032106
v 0.053280 -0.050053 -0.030661
v 0.053436 -0.049937 -0.024555
v 0.053436 -0.049923 -0.021755
v 0.053424 -0.049795 -0.014251
v 0.053426 -0.049830 -0.017696
v 0.053500 0.050415 -0.052561
v 0.053563 -0.050031 -0.029056
v 0.053522 -0.050185 -0.029230
v 0.053275 -0.050214 -0.031267
v 0.056060 -0.050200 -0.031031
v 0.053593 0.050165 -0.037754
v 0.053299 0.050284 -0.035539
v 0.053553 0.050326 -0.037575
v 0.056085 0.050277 -0.035766
v 0.053701 -0.050256 -0.033182
v 0.056271 -0.050212 -0.032117
v 0.053719 0.050259 -0.033622
v 0.056292 0.050251 -0.034679
v 0.053440 -0.049983 -0.017696
v 0.056315 -0.050169 -0.029652
v 0.059298 -0.049756 -0.018204
v 0.054203 -0.050016 -0.027757
v 0.053452 -0.050102 -0.024555
v 0.058073 -0.049880 -0.020649
v 0.053514 0.050054 -0.022247
v 0.053483 0.049966 -0.017307
v 0.058077 -0.049937 -0.021755
v 0.059304 -0.049883 -0.024555
v 0.054155 0.049922 -0.023425
v 0.053471 0.050116 -0.025806
v 0.053476 0.050166 -0.028626
v 0.054764 0.050094 -0.023914
v 0.056257 0.049947 -0.017557
v 0.054106 0.050085 -0.032806
v 0.054095 -0.050127 -0.034006
v 0.053475 -0.050338 -0.038179
v 0.056345 0.050294 -0.037144
v 0.054174 -0.050290 -0.043381
v 0.053479 -0.050387 -0.040999
v 0.059322 0.049893 -0.025794
v 0.059327 0.049943 -0.028614
v 0.053512 -0.050452 -0.044757
v 0.059326 -0.050117 -0.038179
v 0.053520 -0.050534 -0.049498
v 0.059331 -0.050166 -0.040999
v 0.054238 0.050195 -0.039051
v 0.053499 0.050406 -0.042250
v 0.054583 -0.050434 -0.043008
v 0.056294 -0.050508 -0.049239
v 0.053516 0.050588 -0.052555
v 0.053510 0.050527 -0.049109
v 0.059350 0.050185 -0.042238
v 0.058133 0.050338 -0.045038
v 0.053772 0.049953 -0.016279
v 0.058132 0.050316 -0.046146
v 0.059368 0.050298 -0.048591
v 0.053813 -0.050557 -0.050525
v 0.053869 -0.050442 -0.043819
v 0.054218 -0.050167 -0.027757
v 0.054127 0.050082 -0.023372
v 0.054254 0.050360 -0.039045
v 0.054448 0.049939 -0.015283
v 0.056592 0.049926 -0.017062
v 0.054460 -0.050285 -0.034521
v 0.056833 -0.050206 -0.033070
v 0.054745 0.050235 -0.031887
v 0.054492 -0.050579 -0.051518
v 0.056630 -0.050504 -0.049734
v 0.056851 0.050211 -0.033725
v 0.055166 -0.049993 -0.026553
v 0.055198 -0.050146 -0.026558
v 0.055165 0.050381 -0.040183
v 0.059351 0.050115 -0.048597
v 0.058117 0.050170 -0.045044
v 0.055278 0.050213 -0.040308
v 0.056476 0.050195 -0.041124
v 0.060615 0.049878 -0.042245
v 0.060586 0.049642 -0.028620
v 0.058797 0.049850 -0.029837
v 0.057211 0.049970 -0.030175
v 0.055435 0.050052 -0.031212
v 0.054813 0.049932 -0.023958
v 0.055624 0.049926 -0.024278
v 0.056237 0.049909 -0.024337
v 0.060580 0.049593 -0.025800
v 0.057010 0.049699 -0.014152
v 0.055834 0.049748 -0.014369
v 0.057060 -0.050386 -0.052648
v 0.055882 -0.050430 -0.052434
v 0.054880 -0.050437 -0.051880
v 0.054829 -0.050280 -0.042848
v 0.055640 -0.050263 -0.042526
v 0.059249 -0.050009 -0.040999
v 0.059306 -0.049963 -0.038179
v 0.058793 -0.049993 -0.036962
v 0.057206 -0.050102 -0.036625
v 0.055427 -0.050147 -0.035592
v 0.056434 -0.049943 -0.025677
v 0.060454 -0.049553 -0.024553
v 0.058062 -0.049785 -0.021755
v 0.060573 -0.049403 -0.017320
v 0.055584 -0.050295 -0.035707
v 0.055681 0.049910 -0.014407
v 0.055728 -0.050580 -0.052391
v 0.057124 -0.050116 -0.028559
v 0.055564 0.050087 -0.024254
v 0.056252 0.050069 -0.024331
v 0.055578 -0.050413 -0.042544
v 0.056266 -0.050392 -0.042466
v 0.057158 0.050279 -0.038235
v 0.057897 -0.050162 -0.033918
v 0.056453 0.050172 -0.030523
v 0.057913 0.050137 -0.032876
v 0.056449 -0.050098 -0.025677
v 0.057768 -0.050068 -0.028116
v 0.056492 0.050362 -0.041118
v 0.057803 0.050247 -0.038678
v 0.056251 -0.050243 -0.042466
v 0.057389 -0.050241 -0.036685
v 0.059746 -0.049869 -0.034192
v 0.056068 -0.050042 -0.030575
v 0.056185 -0.050062 -0.031973
v 0.058812 0.049894 -0.032619
v 0.056209 0.050127 -0.036770
v 0.056072 0.050112 -0.035673
v 0.056312 0.050085 -0.034593
v 0.056385 -0.050012 -0.029516
v 0.057132 0.049849 -0.014147
v 0.057204 0.049895 -0.016925
v 0.057161 0.049739 -0.016918
v 0.056250 0.049789 -0.017533
v 0.057944 0.049771 -0.021581
v 0.058234 0.049769 -0.022608
v 0.058901 0.049732 -0.023599
v 0.059757 0.049661 -0.024268
v 0.057180 -0.050528 -0.052648
v 0.057243 -0.050477 -0.049870
v 0.056287 -0.050361 -0.049269
v 0.057120 -0.050336 -0.049867
v 0.057968 -0.050202 -0.045219
v 0.058255 -0.050164 -0.044191
v 0.058919 -0.050091 -0.043200
v 0.056558 0.049770 -0.017091
v 0.056705 0.050125 -0.037758
v 0.056652 -0.050355 -0.049758
v 0.056883 -0.050055 -0.033144
v 0.056900 0.050044 -0.033656
v 0.057753 -0.049919 -0.028116
v 0.057039 -0.049968 -0.028625
v 0.058304 0.050056 -0.029884
v 0.057761 0.050084 -0.038711
v 0.057752 -0.050018 -0.033829
v 0.057766 0.049983 -0.032970
v 0.057903 0.049705 -0.017624
v 0.057712 0.049711 -0.017213
v 0.057932 -0.050275 -0.049239
v 0.057598 -0.050305 -0.049734
v 0.058540 0.049760 -0.014438
v 0.058586 -0.050430 -0.052355
v 0.058190 0.049628 -0.014330
v 0.057700 0.049869 -0.017177
v 0.058225 -0.050308 -0.052473
v 0.057684 -0.050447 -0.049659
v 0.059720 0.049668 -0.015280
v 0.059764 -0.050309 -0.051513
v 0.057939 -0.050424 -0.049269
v 0.059319 -0.050098 -0.036986
v 0.059608 -0.050023 -0.034230
v 0.059266 0.050020 -0.032576
v 0.057913 0.049862 -0.017592
v 0.057950 0.049930 -0.021496
v 0.058904 0.049896 -0.023590
v 0.057973 -0.050352 -0.045298
v 0.058920 -0.050246 -0.043203
v 0.058749 -0.049949 -0.034172
v 0.058207 0.049929 -0.022504
v 0.058226 -0.050317 -0.044289
v 0.059238 0.049548 -0.014882
v 0.059523 -0.050186 -0.051747
v 0.060217 -0.049852 -0.036922
v 0.060216 0.049709 -0.029876
v 0.060271 0.049869 -0.029857
v 0.059793 0.049803 -0.032610
v 0.059779 -0.050001 -0.042527
v 0.060791 -0.049730 -0.033862
v 0.060653 0.049709 -0.032881
v 0.065063 -0.048727 -0.014250
v 0.060543 -0.049680 -0.020648
v 0.060545 -0.049699 -0.021755
v 0.065074 -0.048844 -0.024555
v 0.065085 -0.048935 -0.021755
v 0.060074 0.049791 -0.024425
v 0.060717 0.049659 -0.021347
v 0.061024 0.049627 -0.021788
v 0.065109 0.048993 -0.025806
v 0.065113 0.049043 -0.028626
v 0.065113 -0.049219 -0.038179
v 0.065102 -0.049128 -0.041000
v 0.059879 -0.050136 -0.042481
v 0.060730 -0.050090 -0.045514
v 0.060987 -0.050049 -0.045043
v 0.065136 0.049284 -0.042250
v 0.060601 0.050099 -0.045038
v 0.065141 0.049333 -0.045050
v 0.065154 0.049466 -0.052556
v 0.060603 0.050119 -0.046145
v 0.060065 0.049477 -0.015751
v 0.060618 0.049880 -0.032823
v 0.060832 -0.049925 -0.036787
v 0.060390 0.049608 -0.016319
v 0.060398 -0.050068 -0.050525
v 0.060455 -0.050209 -0.050427
v 0.060668 0.049593 -0.017325
v 0.060706 -0.050162 -0.049455
v 0.060638 0.049565 -0.024610
v 0.060937 -0.049854 -0.042119
v 0.060958 -0.050003 -0.042124
v 0.060856 -0.049872 -0.033828
v 0.060610 0.049435 -0.017021
v 0.060682 -0.050016 -0.049514
v 0.060530 -0.049546 -0.021755
v 0.060528 -0.049527 -0.020648
v 0.062343 0.049142 -0.014228
v 0.065065 -0.048740 -0.017696
v 0.061893 0.049397 -0.024734
v 0.065093 0.048829 -0.025812
v 0.060585 0.049931 -0.045044
v 0.060587 0.049950 -0.046151
v 0.065097 0.048878 -0.028632
v 0.062165 0.049457 -0.030529
v 0.060819 -0.049622 -0.028116
v 0.062120 -0.049398 -0.025677
v 0.065070 -0.048779 -0.021755
v 0.065134 0.049270 -0.049113
v 0.060852 0.049785 -0.038684
v 0.062161 0.049646 -0.041125
v 0.065120 0.049116 -0.042256
v 0.065098 -0.049067 -0.038179
v 0.062158 -0.049580 -0.036273
v 0.065125 0.049165 -0.045056
v 0.065137 0.049297 -0.052562
v 0.062176 -0.049679 -0.042126
v 0.061483 0.049619 -0.024727
v 0.061390 0.049620 -0.033339
v 0.062330 -0.049705 -0.036184
v 0.062386 -0.049829 -0.052554
v 0.061551 0.049559 -0.021957
v 0.062337 0.049599 -0.030612
v 0.061572 -0.049967 -0.044838
v 0.061503 0.049404 -0.021951
v 0.060694 0.049500 -0.021322
v 0.061518 -0.049824 -0.044838
v 0.060711 -0.049942 -0.045541
v 0.062135 -0.049460 -0.029428
v 0.061458 -0.049545 -0.028558
v 0.062483 -0.049423 -0.030477
v 0.061764 -0.049580 -0.033070
v 0.062426 -0.049457 -0.031838
v 0.062164 0.049577 -0.037373
v 0.061490 0.049692 -0.038243
v 0.062509 0.049504 -0.036325
v 0.062099 0.049531 -0.034185
v 0.062486 0.049488 -0.035220
v 0.060941 -0.049905 -0.045073
v 0.061028 0.049466 -0.021818
v 0.060860 -0.049777 -0.028089
v 0.062134 -0.049550 -0.025677
v 0.060895 0.049956 -0.038705
v 0.062177 0.049812 -0.041119
v 0.061715 -0.049743 -0.033143
v 0.061733 0.049744 -0.033651
v 0.062088 -0.049844 -0.042109
v 0.061907 -0.049642 -0.029042
v 0.063319 -0.049365 -0.026499
v 0.061938 0.049786 -0.037753
v 0.063359 0.049598 -0.040299
v 0.061966 0.049334 -0.021843
v 0.062325 0.049269 -0.021355
v 0.061984 -0.049758 -0.044973
v 0.062335 -0.049711 -0.045379
v 0.063880 -0.049412 -0.034866
v 0.063892 0.049353 -0.031934
v 0.063009 -0.049730 -0.052489
v 0.062652 0.049437 -0.024550
v 0.064338 -0.049196 -0.027756
v 0.064374 0.049385 -0.039046
v 0.062068 0.049479 -0.021765
v 0.062090 -0.049894 -0.045031
v 0.063211 -0.049666 -0.042480
v 0.063697 0.049244 -0.023999
v 0.062296 -0.049638 -0.032208
v 0.062317 0.049672 -0.034588
v 0.064153 -0.049504 -0.043200
v 0.062398 -0.049583 -0.030031
v 0.064969 -0.049089 -0.029055
v 0.062426 0.049693 -0.036765
v 0.065001 0.049232 -0.037750
v 0.064666 0.049035 -0.022910
v 0.062969 -0.049267 -0.026239
v 0.063471 0.049409 -0.040184
v 0.062348 0.049427 -0.021320
v 0.064901 -0.049176 -0.033098
v 0.062372 -0.049858 -0.045477
v 0.064813 -0.049389 -0.044191
v 0.064919 0.049178 -0.033707
v 0.065076 0.048924 -0.021586
v 0.062353 0.049300 -0.014243
v 0.065099 -0.049346 -0.045218
v 0.063360 0.049138 -0.014410
v 0.062532 -0.049581 -0.031130
v 0.062400 -0.049978 -0.052554
v 0.064064 -0.049679 -0.052010
v 0.062557 0.049653 -0.035667
v 0.063274 0.049162 -0.024274
v 0.063079 -0.049865 -0.052475
v 0.063289 -0.049501 -0.042531
v 0.065279 -0.049058 -0.031082
v 0.065303 0.049130 -0.035723
v 0.063748 -0.049284 -0.035003
v 0.063758 0.049207 -0.031803
v 0.063461 0.048954 -0.014485
v 0.064104 -0.049081 -0.027395
v 0.063788 -0.049580 -0.052172
v 0.064192 0.048975 -0.023529
v 0.064210 -0.049342 -0.043279
v 0.064251 0.048812 -0.015029
v 0.064327 0.048962 -0.015085
v 0.064881 0.048864 -0.015923
v 0.065084 0.048835 -0.016730
v 0.064667 0.049147 -0.038535
v 0.064759 -0.049524 -0.051200
v 0.065107 -0.049434 -0.050262
v 0.064447 -0.049442 -0.051616
v 0.064821 -0.049039 -0.033267
v 0.064837 0.049022 -0.033543
v 0.065010 -0.048926 -0.029230
v 0.064819 0.048829 -0.022521
v 0.064840 -0.049231 -0.044289
v 0.064756 0.048720 -0.015716
v 0.065048 -0.049299 -0.050556
v 0.065047 0.048673 -0.016516
v 0.065246 0.048988 -0.036574
v 0.065069 0.048757 -0.021513
v 0.065094 -0.049195 -0.045298
v 0.065258 -0.048908 -0.031266
v 0.065225 0.048966 -0.035126
v 0.104858 -0.003276 -0.072804
v 0.081195 -0.042751 -0.067341
v 0.085451 -0.039769 -0.068324
v 0.086459 -0.039057 -0.068552
v 0.089996 0.035826 -0.069374
v 0.090558 -0.035330 -0.069496
v 0.093404 0.032077 -0.070160
v 0.094226 -0.031121 -0.070346
v 0.096684 0.027652 -0.070918
v 0.097430 -0.026594 -0.071082
v 0.099223 0.023370 -0.071503
v 0.100102 -0.021678 -0.071701
v 0.101999 0.017099 -0.072143
v 0.102677 -0.015170 -0.072295
v 0.102919 0.014270 -0.072356
v 0.104003 0.009772 -0.072607
v 0.104576 0.006259 -0.072740
vn -0.2246 -0.0003 -0.9745
vn -0.2293 -0.0000 -0.9734
vn -0.2302 -0.0000 -0.9732
vn -0.2249 0.0003 -0.9744
vn -0.2249 0.0002 -0.9744
vn -0.2248 -0.0000 -0.9744
vn -0.2246 -0.0004 -0.9745
vn -0.2250 -0.0013 -0.9744
vn -0.2249 -0.0003 -0.9744
vn -0.2249 -0.0000 -0.9744
vn -0.2250 -0.0004 -0.9744
vn -0.2247 0.0006 -0.9744
vn -0.2251 -0.0006 -0.9743
vn -0.2247 0.0004 -0.9744
vn -0.2242 0.0015 -0.9745
vn -0.2604 -0.0644 -0.9633
vn 0.2250 -0.0000 0.9744
vn -0.2241 -0.0006 -0.9746
vn -0.2249 -0.0011 -0.9744
vn -0.2250 0.0004 -0.9744
vn 0.2249 -0.0001 0.9744
vn -0.2250 0.0011 -0.9744
vn -0.2239 0.0022 -0.9746
vn -0.2218 0.0427 -0.9742
vn -0.2370 0.0896 -0.9674
vn -0.2376 0.0989 -0.9663
vn -0.9828 0.0668 0.1724
vn -0.9060 -0.4071 0.1157
vn -0.9645 0.2572 -0.0604
vn 0.0039 -0.9999 0.0138
vn -0.9705 -0.2358 0.0494
vn -0.9152 0.3887 -0.1062
vn -0.9830 -0.0468 -0.1776
vn 0.0042 0.9998 0.0212
vn -0.8254 -0.5378 -0.1718
vn 0.0074 -0.9997 0.0236
vn 0.0040 -0.9999 0.0118
vn -0.8434 0.5021 0.1913
vn 0.0078 0.9999 0.0113
vn 0.0044 0.9997 0.0231
vn -0.9958 -0.0912 0.0003
vn 0.0089 -0.9997 0.0208
vn 0.0434 -0.9976 0.0546
vn -0.9953 -0.0965 0.0005
vn -0.5361 -0.0491 -0.8427
vn 0.0413 -0.9987 0.0300
vn -0.9990 -0.0419 -0.0137
vn -0.9876 0.1570 -0.0034
vn -0.0030 -0.9980 0.0638
vn -0.0000 -0.0000 -1.0000
vn 0.0374 -0.9993 -0.0029
vn -0.9999 0.0137 -0.0047
vn -0.9973 0.0732 -0.0005
vn -0.0083 0.9998 0.0178
vn 0.0087 0.9997 0.0211
vn -0.9960 -0.0888 0.0003
vn 0.0093 0.9999 0.0141
vn -0.9957 -0.0922 0.0002
vn -0.0036 -0.0397 0.9992
vn 0.0380 0.9991 0.0178
vn -0.9806 0.1958 0.0062
vn -0.0002 0.0064 1.0000
vn 0.0377 -0.9991 0.0174
vn 0.0028 0.0205 -0.9998
vn -0.9872 -0.1596 0.0011
vn -0.9970 0.0777 0.0003
vn -0.0114 -0.9998 0.0173
vn -0.9691 0.0209 0.2459
vn 0.0081 -0.9999 0.0141
vn -0.9957 0.0921 -0.0003
vn -0.9954 0.0959 -0.0000
vn -0.0038 -0.0451 0.9990
vn -0.0050 0.9995 -0.0328
vn 0.0376 0.9986 0.0382
vn -0.9478 0.1717 0.2686
vn 0.0078 0.9999 0.0105
vn -0.5389 0.0215 0.8421
vn 0.0380 0.9992 0.0119
vn 0.0375 0.9991 0.0178
vn 0.5599 -0.0231 -0.8283
vn -0.8385 0.4309 -0.3335
vn -0.9684 -0.0243 -0.2483
vn -0.9446 -0.1933 -0.2652
vn 0.0071 -0.9997 0.0244
vn -0.8575 -0.4021 0.3209
vn -0.8338 -0.4484 0.3221
vn -0.0016 -0.9999 0.0113
vn -0.8770 -0.2380 0.4173
vn -0.8931 -0.0887 0.4410
vn 0.0071 -0.9999 0.0089
vn -0.8534 0.2472 -0.4589
vn -0.8624 0.0167 -0.5060
vn -0.8782 0.2411 -0.4132
vn -0.8916 0.1025 -0.4411
vn 0.0044 0.9996 0.0273
vn -0.8304 0.2826 0.4802
vn 0.0073 0.9996 0.0266
vn -0.8273 -0.0600 0.5585
vn -0.8269 -0.0446 0.5606
vn 0.0113 0.9999 0.0064
vn 0.0180 0.9994 0.0302
vn -0.8014 -0.3989 -0.4456
vn -0.8550 0.0083 -0.5186
vn 0.0149 -0.9994 0.0301
vn 0.0159 -0.9999 0.0031
vn -0.7660 0.4498 0.4592
vn -0.7923 -0.2929 -0.5353
vn 0.0106 -0.9995 0.0294
vn 0.0177 -0.9998 0.0040
vn 0.0155 0.9999 0.0047
vn 0.0164 0.9993 0.0323
vn -0.6929 -0.3783 0.6138
vn -0.7779 -0.0773 0.6236
vn -0.7602 -0.1794 0.6245
vn 0.0086 -0.9999 0.0105
vn -0.7778 0.0980 -0.6208
vn 0.0086 0.9996 0.0253
vn -0.6434 0.1369 -0.7532
vn 0.5599 -0.0248 -0.8282
vn 0.0035 0.0354 -0.9994
vn -0.0037 -0.0379 0.9993
vn -0.7694 -0.0434 -0.6372
vn 0.0030 0.0324 -0.9995
vn -0.0035 -0.0347 0.9994
vn -0.6295 0.0205 -0.7767
vn -0.0002 -0.0000 1.0000
vn -0.7023 0.1393 -0.6981
vn -0.0001 0.0063 -1.0000
vn -0.6199 0.2027 0.7580
vn -0.0000 -0.0000 1.0000
vn -0.7229 0.3221 -0.6112
vn -0.6688 -0.5033 0.5472
vn -0.7072 -0.2309 -0.6683
vn 0.0178 -0.9995 0.0253
vn -0.5455 0.3117 0.7780
vn 0.0155 0.9998 0.0113
vn -0.5153 -0.4506 -0.7290
vn 0.0156 -0.9996 0.0233
vn 0.0372 -0.9991 0.0209
vn 0.0218 0.9996 0.0180
vn 0.0323 0.9979 0.0556
vn 0.0194 -0.9997 0.0172
vn 0.0335 -0.9991 -0.0267
vn 0.0374 0.9992 0.0141
vn -0.3868 0.1309 -0.9128
vn -0.3670 0.0019 -0.9302
vn -0.4027 -0.2665 0.8757
vn -0.3695 0.0413 0.9283
vn -0.5030 -0.2835 0.8165
vn -0.4710 0.2402 -0.8488
vn 0.0495 -0.9987 0.0103
vn -0.5175 0.5291 0.6725
vn 0.0326 0.9995 0.0054
vn 0.0418 0.9985 0.0348
vn -0.5660 -0.1449 0.8116
vn -0.5661 -0.0548 0.8225
vn 0.0340 -0.9994 0.0061
vn 0.0510 -0.9981 0.0341
vn -0.5600 0.2180 -0.7993
vn -0.5602 0.0833 -0.8242
vn 0.0344 0.9990 0.0286
vn 0.0502 0.9987 0.0009
vn -0.1078 0.1072 -0.9884
vn -0.0944 0.0461 -0.9945
vn -0.1101 -0.0734 0.9912
vn -0.0974 -0.0098 0.9952
vn -0.5002 0.1342 -0.8555
vn -0.4689 -0.4353 0.7686
vn -0.4579 -0.2325 -0.8581
vn 0.0412 -0.9989 0.0210
vn 0.9532 -0.2905 0.0839
vn 0.8752 0.4521 -0.1720
vn 0.9171 0.3586 0.1742
vn 0.9923 -0.0084 0.1238
vn 0.9143 -0.3685 0.1680
vn 0.9762 0.0053 -0.2168
vn 0.9651 -0.1821 -0.1881
vn 0.9437 -0.1805 -0.2774
vn -0.1786 0.0616 0.9820
vn -0.1710 0.1065 0.9795
vn 0.0389 0.9991 0.0175
vn 0.0457 0.9987 0.0217
vn -0.1741 -0.1020 -0.9794
vn 0.9990 -0.0446 -0.0027
vn 0.9956 -0.0932 -0.0024
vn -0.1676 -0.1416 -0.9756
vn 0.0389 -0.9991 0.0175
vn 0.0468 -0.9988 0.0127
vn 0.9988 0.0484 0.0044
vn 0.9950 0.1002 0.0024
vn 0.8196 -0.1214 -0.5599
vn 0.8169 -0.0716 -0.5723
vn 0.8617 0.2659 0.4321
vn 0.8172 0.1523 0.5559
vn 0.8013 -0.0220 0.5979
vn 0.8586 -0.0336 0.5116
vn 0.8614 0.0062 0.5080
vn 0.8472 0.0295 -0.5304
vn 0.8489 -0.1589 -0.5041
vn 0.8761 0.0848 0.4746
vn 0.7924 0.1572 -0.5894
vn 0.7851 0.1878 -0.5902
vn 0.7185 -0.4365 0.5415
vn 0.2794 0.1163 -0.9531
vn -0.2614 0.4708 0.8426
vn 0.0557 0.9982 0.0197
vn 0.2124 -0.1021 -0.9718
vn 0.2096 0.1252 0.9697
vn 0.2171 0.1689 0.9614
vn 0.6490 0.2809 0.7070
vn 0.6102 0.1316 0.7812
vn 0.6089 0.1773 0.7732
vn 0.6127 -0.1070 -0.7830
vn 0.6121 -0.1418 -0.7780
vn 0.8757 0.0882 0.4747
vn 0.8794 -0.0673 -0.4714
vn 0.8711 -0.1285 -0.4741
vn -0.2464 -0.2349 0.9403
vn 0.0668 0.9976 0.0183
vn 0.5815 -0.0286 -0.8130
vn 0.5630 0.0567 -0.8245
vn 0.0660 -0.9977 0.0168
vn 0.5305 -0.2974 0.7938
vn 0.1390 -0.1457 0.9795
vn 0.2108 0.2204 0.9524
vn -0.4479 0.0835 -0.8902
vn -0.4591 0.1641 -0.8731
vn 0.1398 0.1181 -0.9831
vn 0.0627 0.9978 0.0205
vn 0.2145 -0.2726 -0.9379
vn -0.4339 0.2011 0.8782
vn 0.0611 -0.9980 0.0142
vn 0.0869 0.9961 0.0130
vn 0.0862 -0.9960 0.0226
vn -0.8135 -0.2053 0.5441
vn -0.8152 -0.1509 0.5592
vn -0.2147 0.1349 -0.9673
vn 0.0749 -0.9971 0.0098
vn -0.2206 -0.3175 0.9223
vn -0.1162 -0.3713 -0.9212
vn 0.0768 -0.9969 0.0191
vn 0.0833 -0.9964 0.0131
vn 0.0826 0.9965 0.0162
vn -0.8888 0.0365 -0.4568
vn -0.8968 0.1425 -0.4188
vn 0.0776 0.9967 0.0230
vn -0.9990 0.0428 -0.0096
vn -0.9978 0.0653 -0.0083
vn 0.0823 0.9964 0.0193
vn 0.0752 0.9970 0.0181
vn -0.9992 -0.0384 0.0096
vn -0.9988 -0.0488 0.0094
vn 0.0730 -0.9972 0.0175
vn 0.3308 -0.2323 0.9147
vn 0.0824 -0.9965 0.0159
vn -0.9623 0.0143 -0.2718
vn -0.9555 0.1663 -0.2438
vn 0.3271 0.2449 -0.9127
vn 0.0758 0.9970 0.0183
vn -0.9632 0.0105 0.2685
vn -0.9560 -0.1610 0.2453
vn 0.0788 -0.9968 0.0148
vn -0.9952 -0.0982 0.0015
vn 0.1606 -0.9857 0.0514
vn 0.0611 -0.9979 0.0200
vn -0.9955 0.0949 -0.0010
vn 0.1693 0.9854 -0.0197
vn 0.0500 0.9986 0.0179
vn -0.8279 0.0458 -0.5589
vn -0.8203 0.2079 -0.5328
vn -0.8301 -0.0161 0.5574
vn -0.8219 -0.1886 0.5376
vn 0.1038 0.5626 0.8202
vn 0.1780 -0.3242 -0.9291
vn 0.4039 -0.3966 0.8243
vn 0.4088 0.4325 -0.8036
vn 0.0035 0.2397 -0.9709
vn 0.0150 -0.1230 0.9923
vn 0.0100 0.2451 0.9694
vn 0.0943 0.9953 0.0204
vn 0.0413 -0.2741 0.9608
vn 0.0298 0.2250 -0.9739
vn 0.5736 0.2659 0.7748
vn -0.6121 0.0545 -0.7889
vn 0.5730 -0.3160 -0.7562
vn -0.6149 -0.0192 0.7884
vn -0.5569 -0.0629 0.8282
vn 0.1463 -0.9883 0.0438
vn 0.0946 -0.9954 0.0173
vn 0.1024 -0.9945 0.0200
vn -0.0029 0.0163 -0.9999
vn 0.1659 -0.9861 -0.0087
vn 0.1771 -0.9836 -0.0327
vn -0.5257 0.3406 -0.7795
vn 0.1095 0.9939 0.0165
vn 0.1176 0.9930 0.0098
vn 0.1061 0.9941 0.0236
vn -0.0030 -0.0325 0.9995
vn 0.1537 0.9880 0.0177
vn 0.1537 0.9880 0.0178
vn 0.1533 -0.9880 0.0174
vn 0.0029 0.0322 -0.9995
vn -0.0002 -0.0001 -1.0000
vn 0.1769 -0.9837 -0.0324
vn -0.5820 -0.1594 0.7974
vn 0.1095 -0.9938 0.0187
vn 0.1155 -0.9930 0.0234
vn 0.1052 -0.9944 0.0117
vn -0.0041 -0.0397 0.9992
vn 0.1086 0.9939 0.0180
vn 0.1663 0.9851 0.0441
vn 0.1539 0.9879 0.0176
vn -0.5558 0.0788 -0.8276
vn 0.1426 0.9898 0.0004
vn 0.1081 0.9940 0.0182
vn 0.6360 -0.4305 0.6405
vn -0.2033 -0.3505 -0.9142
vn 0.1059 0.9942 0.0161
vn 0.1613 -0.3486 -0.9233
vn 0.1116 -0.9936 0.0153
vn 0.8274 0.2086 0.5215
vn 0.7374 0.3720 -0.5639
vn 0.8446 -0.0302 -0.5346
vn 0.1155 0.9932 0.0171
vn 0.1168 0.9930 0.0177
vn 0.1149 -0.9932 0.0184
vn 0.1169 -0.9930 0.0174
vn -0.3731 -0.1874 -0.9086
vn -0.3392 0.0684 0.9382
vn -0.3049 -0.0748 0.9494
vn 0.1168 -0.9930 0.0168
vn -0.3056 0.0391 0.9513
vn -0.2641 0.2609 -0.9285
vn -0.3146 0.0824 0.9456
vn 0.1147 -0.9933 0.0169
vn 0.8181 -0.4438 0.3657
vn 0.9532 0.1526 0.2611
vn 0.9426 0.1902 -0.2746
vn 0.9952 0.0976 0.0001
vn 0.9952 0.0975 0.0001
vn 0.9660 0.0569 -0.2522
vn 0.5382 0.0528 -0.8412
vn 0.2011 -0.9796 0.0038
vn -0.0035 -0.0362 0.9993
vn 0.9955 -0.0949 0.0002
vn 0.0034 0.0360 -0.9993
vn 0.9955 -0.0943 0.0001
vn 0.0033 0.0354 -0.9994
vn 0.5356 -0.0806 0.8406
vn 0.2196 0.9739 0.0567
vn -0.0035 -0.0354 0.9994
vn -0.5550 0.0852 -0.8275
vn -0.1223 -0.1951 -0.9731
vn -0.1506 0.3734 -0.9153
vn -0.5028 0.1836 -0.8447
vn 0.1387 -0.9902 0.0166
vn 0.1324 0.9911 0.0140
vn 0.1250 0.9920 0.0184
vn 0.1366 0.9904 0.0197
vn 0.1330 -0.9910 0.0169
vn 0.9469 -0.3213 0.0136
vn 0.9899 -0.1417 0.0097
vn 0.9873 0.1583 -0.0102
vn 0.9920 0.1259 -0.0083
vn 0.8959 0.0342 -0.4430
vn 0.8581 0.1734 -0.4833
vn 0.8281 -0.0318 0.5597
vn 0.8147 -0.0866 0.5734
vn 0.2414 0.3936 -0.8870
vn -0.8672 -0.1464 0.4760
vn -0.5234 -0.2787 -0.8052
vn 0.2862 -0.2094 0.9350
vn 0.3859 -0.1203 -0.9147
vn -0.8782 -0.0809 0.4714
vn 0.3541 0.1137 0.9283
vn -0.5297 0.2333 0.8155
vn -0.8662 0.1597 -0.4736
vn -0.8761 0.1015 -0.4713
vn -0.6123 -0.0923 0.7852
vn -0.6071 -0.1656 0.7772
vn 0.1366 -0.9905 0.0152
vn -0.5957 -0.2623 -0.7592
vn 0.1359 0.9905 0.0203
vn 0.2811 -0.1690 0.9447
vn 0.3846 -0.0689 -0.9205
vn 0.3136 0.1184 -0.9422
vn -0.0096 0.1075 0.9942
vn -0.0084 -0.0347 0.9994
vn 0.1391 -0.9901 0.0183
vn -0.6585 0.3291 -0.6768
vn 0.1599 -0.9871 0.0084
vn 0.1498 -0.9884 0.0245
vn 0.2640 -0.0445 0.9635
vn -0.6658 -0.3259 0.6712
vn 0.1604 0.9867 0.0263
vn 0.1509 0.9885 0.0112
vn 0.1679 -0.9856 0.0216
vn -0.6955 0.3616 -0.6209
vn 0.1676 0.9858 0.0137
vn -0.2112 0.1030 0.9720
vn 0.1512 0.9883 0.0177
vn -0.7187 -0.3605 -0.5945
vn 0.1754 -0.9844 0.0098
vn -0.7299 0.3144 0.6070
vn 0.1754 0.9842 0.0252
vn -0.3696 -0.2249 0.9016
vn 0.1471 0.9890 0.0159
vn -0.2638 -0.0996 -0.9594
vn -0.3609 0.1135 -0.9257
vn 0.1611 -0.9868 0.0140
vn 0.1480 -0.9887 0.0233
vn 0.1971 0.3924 -0.8984
vn 0.1709 0.9851 0.0210
vn -0.8502 0.0200 0.5261
vn -0.7980 -0.3812 0.4668
vn 0.1600 -0.9871 0.0114
vn -0.8429 -0.1626 -0.5129
vn 0.1598 0.9869 0.0238
vn 0.1770 -0.9842 0.0102
vn -0.8820 0.2017 -0.4259
vn 0.1777 -0.9841 0.0053
vn 0.1778 -0.9836 0.0296
vn -0.8864 -0.1960 0.4194
vn 0.1779 0.9836 0.0301
vn 0.1780 0.9840 0.0047
vn 0.1804 0.9832 0.0281
vn -0.7105 -0.2780 -0.6464
vn 0.5617 -0.1515 0.8133
vn 0.5637 0.0519 0.8243
vn 0.5551 -0.1669 -0.8148
vn 0.5668 -0.0249 -0.8235
vn -0.7712 0.2214 0.5968
vn -0.8461 0.0051 0.5330
vn 0.1715 0.9852 0.0072
vn 0.1830 -0.9828 0.0255
vn -0.8653 0.3692 -0.3389
vn -0.8423 0.1357 -0.5216
vn 0.1805 -0.9836 0.0061
vn 0.1733 -0.9844 0.0301
vn 0.1835 0.9830 0.0093
vn -0.8734 -0.3812 -0.3032
vn -0.8840 0.3453 0.3151
vn 0.1837 0.9827 0.0255
vn -0.9897 0.1429 0.0050
vn -0.9980 0.0633 0.0018
vn 0.1836 -0.9829 0.0100
vn 0.1759 0.0820 0.9810
vn 0.1617 0.9867 0.0176
vn 0.1827 0.9831 0.0144
vn -0.9702 -0.2422 -0.0029
vn -0.9394 0.2851 0.1906
vn -0.9956 -0.0935 -0.0024
vn 0.1022 0.0096 -0.9947
vn 0.1826 -0.9830 0.0204
vn 0.1713 -0.9851 0.0174
vn 0.1789 -0.9838 0.0129
vn -0.9644 -0.1586 -0.2117
vn 0.2374 -0.3660 -0.8998
vn 0.1220 -0.0396 -0.9917
vn 0.1568 -0.9857 0.0621
vn 0.3189 0.1390 0.9375
vn 0.3236 -0.0754 0.9432
vn 0.1791 0.9836 0.0225
vn -0.9751 0.1875 -0.1186
vn 0.1839 -0.9829 0.0131
vn 0.1866 -0.9822 0.0210
vn -0.9788 -0.1726 0.1105
vn 0.1843 0.9826 0.0220
vn 0.1873 0.9822 0.0134
vn -0.8793 -0.4738 0.0487
vn 0.1866 -0.9822 0.0225
vn -0.9318 0.3627 -0.0141
vn 0.1873 0.9822 0.0123
vn 0.5781 0.2403 -0.7798
vn 0.5805 -0.2501 0.7749
vn 0.6562 -0.1206 -0.7449
vn 0.6528 0.0769 0.7536
vn 0.1674 -0.2920 0.9417
vn 0.4876 0.2695 -0.8304
vn 0.6144 0.4162 0.6702
vn 0.3603 0.0906 -0.9284
vn 0.4478 -0.1836 -0.8751
vn 0.5596 -0.3118 -0.7678
vn 0.6040 0.1675 0.7792
vn 0.6115 -0.0449 0.7900
vn 0.5636 -0.0272 0.8256
vn 0.7647 -0.2742 0.5831
vn 0.5741 0.0147 0.8186
vn 0.1961 0.9804 0.0176
vn 0.1832 0.9831 0.0062
vn 0.1891 0.9819 0.0123
vn 0.7271 -0.3599 -0.5846
vn 0.7813 0.0869 -0.6181
vn 0.1922 -0.9811 0.0228
vn 0.2009 -0.9795 0.0174
vn 0.7380 0.3169 -0.5958
vn 0.5638 0.3402 -0.7526
vn 0.8050 0.2585 -0.5340
vn 0.8063 -0.2661 0.5283
vn 0.8675 -0.0957 -0.4882
vn 0.8662 0.0654 0.4953
vn 0.8563 0.2622 0.4449
vn 0.8352 0.3384 0.4336
vn 0.7614 -0.2117 -0.6128
vn 0.7342 -0.4365 -0.5200
vn 0.8233 0.1909 0.5345
vn 0.8333 -0.0239 0.5523
vn 0.8867 0.2284 -0.4020
vn 0.7824 -0.1731 0.5983
vn 0.8359 0.0589 0.5457
vn 0.7636 0.4209 -0.4897
vn 0.8953 -0.2849 0.3424
vn 0.7915 -0.5443 -0.2779
vn 0.9088 -0.2788 -0.3104
vn 0.9573 -0.1485 -0.2480
vn 0.9442 0.1772 -0.2775
vn 0.9555 0.1621 0.2463
vn 0.9633 0.0019 0.2684
vn 0.9661 0.0957 0.2396
vn 0.9362 0.2724 -0.2223
vn 0.9804 -0.0822 -0.1790
vn 0.9401 -0.2429 0.2390
vn 0.9646 0.1933 0.1791
vn 0.9954 0.0956 -0.0008
vn 0.9750 -0.2220 0.0006
vn 0.9991 -0.0429 -0.0024
vn 0.9953 -0.0971 -0.0003
vn 0.9530 0.2788 0.1185
vn 0.9849 -0.0874 0.1493
vn 0.9953 -0.0965 -0.0003
vn 0.9952 0.0983 -0.0007
vn 0.9281 0.3720 -0.0155
vn 0.9994 0.0336 0.0010
vn 0.9955 -0.0948 0.0001
vn 0.9955 -0.0949 0.0001
vn 0.9287 0.3506 -0.1207
vn 0.9950 -0.1002 0.0001
vn 0.9127 -0.4085 0.0070
vn 0.2248 0.0002 0.9744
vn 0.2250 0.0001 0.9744
vn 0.2228 -0.0018 0.9749
vn 0.2241 -0.0002 0.9746
vn 0.2256 -0.0000 0.9742
vn 0.2247 -0.0002 0.9744
s 0
f 3//1 2//1 1//1
f 5//2 4//2 2//2
f 3//3 5//3 2//3
f 6//4 7//4 4//4
f 8//5 6//5 4//5
f 5//6 8//6 4//6
f 9//7 3//7 1//7
f 10//8 11//8 5//8
f 11//5 12//5 5//5
f 12//9 405//9 5//9
f 405//10 403//10 5//10
f 403//11 401//11 5//11
f 401//12 399//12 5//12
f 399//13 397//13 5//13
f 397//14 395//14 5//14
f 395//15 14//15 5//15
f 15//16 16//16 5//16
f 16//10 7//10 5//10
f 13//17 10//17 5//17
f 17//18 3//18 9//18
f 19//19 17//19 9//19
f 19//20 20//20 17//20
f 21//21 7//21 18//21
f 22//20 20//20 19//20
f 22//22 23//22 20//22
f 25//23 23//23 22//23
f 25//24 24//24 23//24
f 25//25 26//25 24//25
f 27//26 26//26 25//26
f 53//27 52//27 46//27
f 54//28 53//28 46//28
f 45//29 54//29 46//29
f 55//30 53//30 54//30
f 30//31 57//31 28//31
f 57//32 58//32 28//32
f 58//33 56//33 28//33
f 59//34 58//34 57//34
f 45//35 60//35 54//35
f 60//36 61//36 54//36
f 61//37 55//37 54//37
f 30//38 62//38 57//38
f 62//39 63//39 57//39
f 63//40 59//40 57//40
f 64//41 49//41 50//41
f 55//42 65//42 53//42
f 64//43 66//43 49//43
f 68//44 48//44 47//44
f 50//45 69//45 64//45
f 69//46 66//46 64//46
f 70//47 43//47 42//47
f 71//48 70//48 42//48
f 68//49 72//49 48//49
f 47//50 73//50 68//50
f 73//51 72//51 68//51
f 76//52 31//52 44//52
f 75//53 76//53 44//53
f 77//54 70//54 71//54
f 78//55 77//55 71//55
f 38//56 81//56 39//56
f 59//57 82//57 58//57
f 84//58 81//58 38//58
f 44//59 85//59 75//59
f 85//60 86//60 75//60
f 86//60 76//60 75//60
f 36//61 87//61 37//61
f 88//62 39//62 81//62
f 84//63 88//63 81//63
f 86//64 31//64 76//64
f 89//65 87//65 36//65
f 38//50 90//50 84//50
f 90//63 88//63 84//63
f 92//66 33//66 29//66
f 89//67 93//67 87//67
f 41//68 71//68 42//68
f 94//69 93//69 89//69
f 95//70 51//70 32//70
f 96//71 95//71 32//71
f 29//72 97//72 92//72
f 98//73 33//73 92//73
f 97//74 98//74 92//74
f 41//75 99//75 71//75
f 99//76 78//76 71//76
f 32//77 100//77 96//77
f 100//78 101//78 96//78
f 101//79 95//79 96//79
f 101//80 51//80 95//80
f 80//81 60//81 45//81
f 35//82 89//82 36//82
f 35//83 102//83 89//83
f 102//84 94//84 89//84
f 79//85 62//85 30//85
f 87//86 103//86 37//86
f 93//87 103//87 87//87
f 53//88 104//88 52//88
f 104//89 67//89 52//89
f 65//90 104//90 53//90
f 70//91 105//91 43//91
f 105//92 74//92 43//92
f 58//93 106//93 56//93
f 106//94 91//94 56//94
f 77//95 105//95 70//95
f 103//96 83//96 37//96
f 82//97 106//97 58//97
f 40//98 99//98 41//98
f 40//99 107//99 99//99
f 107//100 108//100 99//100
f 108//101 78//101 99//101
f 109//102 60//102 80//102
f 34//103 102//103 35//103
f 109//104 110//104 60//104
f 110//105 61//105 60//105
f 111//106 62//106 79//106
f 34//107 112//107 102//107
f 112//108 113//108 102//108
f 113//109 94//109 102//109
f 111//110 114//110 62//110
f 114//111 63//111 62//111
f 103//112 93//112 83//112
f 115//113 67//113 104//113
f 116//114 115//114 104//114
f 65//115 116//115 104//115
f 117//116 91//116 106//116
f 82//117 117//117 106//117
f 77//118 74//118 105//118
f 101//119 118//119 51//119
f 98//120 119//120 33//120
f 122//121 97//121 29//121
f 117//122 120//122 91//122
f 86//123 123//123 31//123
f 130//124 85//124 44//124
f 77//125 127//125 74//125
f 138//50 90//50 38//50
f 88//126 139//126 39//126
f 135//127 112//127 34//127
f 144//128 73//128 47//128
f 93//129 136//129 83//129
f 72//130 145//130 48//130
f 142//131 109//131 80//131
f 126//132 111//132 79//132
f 142//133 147//133 109//133
f 147//134 110//134 109//134
f 40//135 148//135 107//135
f 148//136 108//136 107//136
f 135//137 149//137 112//137
f 149//138 113//138 112//138
f 65//139 150//139 116//139
f 78//140 152//140 77//140
f 152//141 151//141 77//141
f 94//142 154//142 93//142
f 154//143 153//143 93//143
f 82//144 155//144 117//144
f 77//145 151//145 127//145
f 151//146 128//146 127//146
f 93//147 153//147 136//147
f 153//148 137//148 136//148
f 132//149 148//149 40//149
f 134//150 149//150 135//150
f 156//151 110//151 147//151
f 126//152 157//152 111//152
f 157//153 158//153 111//153
f 158//154 114//154 111//154
f 116//155 159//155 115//155
f 159//156 143//156 115//156
f 160//157 159//157 116//157
f 150//158 160//158 116//158
f 117//159 161//159 120//159
f 161//160 121//160 120//160
f 162//161 161//161 117//161
f 155//162 162//162 117//162
f 151//163 152//163 128//163
f 152//164 129//164 128//164
f 153//165 154//165 137//165
f 154//166 163//166 137//166
f 141//167 147//167 142//167
f 125//168 157//168 126//168
f 141//169 164//169 147//169
f 164//170 156//170 147//170
f 55//171 167//171 166//171
f 166//172 65//172 55//172
f 55//173 61//173 167//173
f 169//174 59//174 170//174
f 169//175 82//175 59//175
f 63//176 171//176 170//176
f 59//177 63//177 170//177
f 172//178 65//178 166//178
f 131//179 148//179 132//179
f 131//180 173//180 148//180
f 173//181 174//181 148//181
f 174//182 108//182 148//182
f 133//183 149//183 134//183
f 129//184 78//184 176//184
f 152//185 78//185 129//185
f 133//186 181//186 149//186
f 181//187 182//187 149//187
f 182//188 113//188 149//188
f 94//189 183//189 163//189
f 154//190 94//190 163//190
f 78//191 108//191 176//191
f 108//192 188//192 176//192
f 189//193 82//193 169//193
f 94//194 113//194 183//194
f 113//195 190//195 183//195
f 110//196 191//196 167//196
f 61//197 110//197 167//197
f 114//198 192//198 171//198
f 63//199 114//199 171//199
f 159//200 193//200 143//200
f 194//201 65//201 172//201
f 194//202 150//202 65//202
f 189//203 155//203 82//203
f 108//204 175//204 188//204
f 125//205 195//205 157//205
f 195//206 158//206 157//206
f 108//207 174//207 175//207
f 113//208 182//208 190//208
f 182//209 184//209 190//209
f 196//210 155//210 189//210
f 156//211 197//211 191//211
f 110//212 156//212 191//212
f 158//213 198//213 192//213
f 114//214 158//214 192//214
f 160//215 193//215 159//215
f 161//216 196//216 121//216
f 162//217 196//217 161//217
f 182//218 202//218 184//218
f 173//219 203//219 174//219
f 193//220 150//220 194//220
f 193//221 160//221 150//221
f 181//222 204//222 182//222
f 196//223 162//223 155//223
f 205//224 173//224 131//224
f 205//225 203//225 173//225
f 174//226 206//226 175//226
f 206//227 200//227 175//227
f 207//228 181//228 133//228
f 203//229 206//229 174//229
f 207//230 204//230 181//230
f 182//231 208//231 202//231
f 204//232 208//232 182//232
f 203//233 209//233 206//233
f 204//234 210//234 208//234
f 208//235 211//235 202//235
f 211//236 201//236 202//236
f 140//237 164//237 141//237
f 210//238 211//238 208//238
f 124//239 195//239 125//239
f 140//240 212//240 164//240
f 212//241 213//241 164//241
f 213//242 156//242 164//242
f 214//243 158//243 195//243
f 206//244 215//244 200//244
f 215//245 199//245 200//245
f 209//246 215//246 206//246
f 216//247 177//247 199//247
f 215//248 216//248 199//248
f 209//249 217//249 215//249
f 217//250 216//250 215//250
f 201//251 218//251 185//251
f 211//252 218//252 201//252
f 211//253 219//253 218//253
f 156//254 220//254 197//254
f 210//255 219//255 211//255
f 221//256 178//256 177//256
f 216//257 221//257 177//257
f 158//258 168//258 198//258
f 217//259 221//259 216//259
f 222//260 186//260 185//260
f 218//261 222//261 185//261
f 219//262 222//262 218//262
f 72//263 69//263 145//263
f 72//264 73//264 69//264
f 73//265 66//265 69//265
f 98//266 100//266 119//266
f 97//267 100//267 98//267
f 97//268 101//268 100//268
f 217//269 179//269 178//269
f 221//270 217//270 178//270
f 219//271 187//271 186//271
f 222//272 219//272 186//272
f 156//273 213//273 220//273
f 158//274 214//274 168//274
f 223//275 203//275 205//275
f 224//276 204//276 207//276
f 225//277 212//277 140//277
f 226//278 227//278 124//278
f 227//279 195//279 124//279
f 227//280 214//280 195//280
f 213//281 165//281 220//281
f 214//282 228//282 168//282
f 209//283 203//283 223//283
f 217//284 180//284 179//284
f 210//285 204//285 224//285
f 219//286 229//286 187//286
f 232//287 146//287 66//287
f 233//288 232//288 66//288
f 234//289 233//289 66//289
f 73//290 234//290 66//290
f 144//291 235//291 73//291
f 236//292 234//292 73//292
f 235//293 236//293 73//293
f 237//294 180//294 217//294
f 209//295 238//295 217//295
f 238//296 239//296 217//296
f 239//297 237//297 217//297
f 130//298 240//298 85//298
f 240//299 241//299 85//299
f 241//300 86//300 85//300
f 242//130 139//130 88//130
f 90//301 242//301 88//301
f 241//302 123//302 86//302
f 138//303 243//303 90//303
f 243//304 242//304 90//304
f 244//305 229//305 219//305
f 210//306 245//306 219//306
f 245//307 246//307 219//307
f 246//308 244//308 219//308
f 122//309 247//309 97//309
f 248//310 101//310 97//310
f 249//311 248//311 97//311
f 247//312 249//312 97//312
f 250//313 118//313 101//313
f 251//314 250//314 101//314
f 248//315 251//315 101//315
f 252//316 209//316 223//316
f 214//317 253//317 228//317
f 227//318 253//318 214//318
f 254//319 212//319 225//319
f 254//320 213//320 212//320
f 252//321 255//321 209//321
f 256//322 210//322 224//322
f 256//323 257//323 210//323
f 255//324 258//324 209//324
f 258//325 238//325 209//325
f 257//326 259//326 210//326
f 259//327 245//327 210//327
f 237//328 260//328 180//328
f 244//329 261//329 229//329
f 262//330 261//330 244//330
f 246//331 262//331 244//331
f 213//332 230//332 165//332
f 253//333 231//333 228//333
f 263//334 230//334 213//334
f 254//335 263//335 213//335
f 264//336 255//336 252//336
f 258//337 255//337 264//337
f 265//338 257//338 256//338
f 234//339 266//339 267//339
f 233//340 234//340 267//340
f 265//341 259//341 257//341
f 267//342 269//342 233//342
f 269//343 232//343 233//343
f 236//130 266//130 234//130
f 271//344 240//344 130//344
f 273//345 248//345 272//345
f 241//346 274//346 123//346
f 251//347 248//347 273//347
f 236//130 278//130 266//130
f 249//348 272//348 248//348
f 273//349 279//349 251//349
f 279//350 250//350 251//350
f 282//351 247//351 122//351
f 242//130 283//130 139//130
f 249//348 285//348 272//348
f 250//352 286//352 118//352
f 288//353 270//353 260//353
f 237//354 288//354 260//354
f 253//355 289//355 231//355
f 254//356 290//356 263//356
f 239//357 292//357 237//357
f 292//358 288//358 237//358
f 227//359 293//359 253//359
f 246//360 294//360 262//360
f 296//361 258//361 264//361
f 238//362 258//362 296//362
f 259//363 265//363 298//363
f 245//364 259//364 298//364
f 309//365 245//365 298//365
f 309//366 246//366 245//366
f 310//367 238//367 296//367
f 310//368 239//368 238//368
f 284//369 254//369 225//369
f 311//370 277//370 276//370
f 300//371 311//371 276//371
f 275//372 227//372 226//372
f 284//373 290//373 254//373
f 312//374 277//374 311//374
f 275//375 293//375 227//375
f 305//376 313//376 280//376
f 313//377 281//377 280//377
f 314//378 281//378 313//378
f 263//379 315//379 230//379
f 315//380 302//380 230//380
f 290//381 315//381 263//381
f 253//382 316//382 289//382
f 293//383 316//383 253//383
f 310//384 292//384 239//384
f 297//385 246//385 309//385
f 297//386 294//386 246//386
f 317//387 287//387 261//387
f 262//388 317//388 261//388
f 294//389 317//389 262//389
f 300//390 318//390 311//390
f 319//391 312//391 311//391
f 318//392 319//392 311//392
f 295//393 292//393 310//393
f 305//394 320//394 313//394
f 321//395 314//395 313//395
f 320//396 321//396 313//396
f 290//397 326//397 315//397
f 316//398 307//398 289//398
f 293//399 327//399 316//399
f 322//400 292//400 295//400
f 329//401 288//401 292//401
f 299//402 318//402 300//402
f 330//403 319//403 318//403
f 304//404 320//404 305//404
f 331//405 321//405 320//405
f 322//406 332//406 292//406
f 332//407 329//407 292//407
f 324//408 294//408 297//408
f 324//409 333//409 294//409
f 334//410 317//410 294//410
f 333//411 334//411 294//411
f 288//412 329//412 270//412
f 335//413 329//413 332//413
f 315//414 336//414 302//414
f 336//415 303//415 302//415
f 326//416 336//416 315//416
f 316//417 337//417 307//417
f 327//418 337//418 316//418
f 338//419 334//419 333//419
f 299//420 339//420 318//420
f 340//421 330//421 318//421
f 339//422 340//422 318//422
f 304//423 341//423 320//423
f 342//424 331//424 320//424
f 341//425 342//425 320//425
f 343//426 335//426 332//426
f 325//427 333//427 324//427
f 319//428 344//428 277//428
f 312//429 319//429 277//429
f 321//430 345//430 281//430
f 314//431 321//431 281//431
f 323//432 332//432 322//432
f 323//433 346//433 332//433
f 346//434 343//434 332//434
f 326//435 347//435 336//435
f 337//436 308//436 307//436
f 325//437 348//437 333//437
f 349//438 338//438 333//438
f 348//439 349//439 333//439
f 327//440 350//440 337//440
f 301//441 339//441 299//441
f 306//442 341//442 304//442
f 351//443 343//443 346//443
f 346//444 323//444 268//444
f 352//445 346//445 268//445
f 353//446 349//446 348//446
f 268//447 354//447 352//447
f 354//448 346//448 352//448
f 354//449 351//449 346//449
f 291//450 348//450 325//450
f 336//451 355//451 303//451
f 356//452 348//452 291//452
f 328//453 356//453 291//453
f 357//454 353//454 348//454
f 356//455 357//455 348//455
f 347//456 355//456 336//456
f 337//457 358//457 308//457
f 329//458 359//458 270//458
f 328//459 360//459 356//459
f 360//460 357//460 356//460
f 334//461 361//461 287//461
f 317//462 334//462 287//462
f 350//463 358//463 337//463
f 301//464 355//464 339//464
f 362//465 340//465 339//465
f 355//466 362//466 339//466
f 306//467 358//467 341//467
f 363//468 342//468 341//468
f 358//469 363//469 341//469
f 355//470 301//470 303//470
f 347//471 362//471 355//471
f 358//472 306//472 308//472
f 350//473 363//473 358//473
f 364//474 290//474 284//474
f 365//475 293//475 275//475
f 364//476 326//476 290//476
f 365//477 327//477 293//477
f 366//478 354//478 268//478
f 329//479 335//479 359//479
f 319//480 367//480 344//480
f 368//481 360//481 328//481
f 368//482 357//482 360//482
f 335//483 369//483 359//483
f 338//484 370//484 361//484
f 334//485 338//485 361//485
f 371//486 354//486 366//486
f 319//487 330//487 367//487
f 371//488 372//488 354//488
f 374//489 351//489 354//489
f 372//490 373//490 354//490
f 373//491 374//491 354//491
f 331//492 375//492 345//492
f 321//493 331//493 345//493
f 376//494 377//494 357//494
f 377//495 353//495 357//495
f 335//496 343//496 369//496
f 378//497 357//497 368//497
f 379//498 326//498 364//498
f 380//499 327//499 365//499
f 379//500 347//500 326//500
f 380//501 350//501 327//501
f 340//502 381//502 367//502
f 330//503 340//503 367//503
f 378//504 376//504 357//504
f 343//505 382//505 369//505
f 349//506 383//506 370//506
f 338//507 349//507 370//507
f 331//508 342//508 375//508
f 384//509 372//509 371//509
f 384//510 373//510 372//510
f 385//511 376//511 378//511
f 386//512 373//512 384//512
f 342//513 387//513 375//513
f 385//514 377//514 376//514
f 351//515 388//515 382//515
f 343//516 351//516 382//516
f 353//517 389//517 383//517
f 349//518 353//518 383//518
f 374//519 373//519 386//519
f 390//520 347//520 379//520
f 390//521 362//521 347//521
f 391//522 350//522 380//522
f 391//523 363//523 350//523
f 236//524 235//524 278//524
f 388//525 374//525 386//525
f 351//526 374//526 388//526
f 274//527 240//527 271//527
f 362//528 390//528 381//528
f 340//529 362//529 381//529
f 241//530 240//530 274//530
f 242//531 243//531 283//531
f 377//532 385//532 389//532
f 353//533 377//533 389//533
f 285//534 247//534 282//534
f 249//535 247//535 285//535
f 342//536 363//536 387//536
f 250//537 279//537 286//537
f 387//538 363//538 391//538
f 392//539 10//539 13//539
f 393//540 14//540 15//540
f 393//540 394//540 14//540
f 400//541 398//541 396//541
f 404//542 402//542 400//542
f 407//543 406//543 404//543
f 408//544 407//544 404//544
