# Blender 4.2.22 LTS
# www.blender.org
o node0
v -0.000000 -0.006350 0.052124
v -0.000000 0.006350 0.052124
v -0.000000 0.006350 0.018677
v -0.000000 -0.012700 0.008897
v -0.000000 0.006510 0.016251
v -0.000000 -0.006510 0.016251
v -0.000000 0.006510 0.016251
v -0.000000 -0.006948 0.014795
v -0.000000 0.006948 0.014795
v -0.000000 -0.007988 0.013503
v -0.000000 0.007988 0.013503
v -0.000000 -0.009834 0.012245
v -0.000000 0.009834 0.012245
v -0.000000 -0.011406 0.011456
v -0.000000 0.011406 0.011456
v -0.000000 -0.012354 0.010376
v -0.000000 0.012354 0.010376
v -0.000000 0.012700 0.008897
v -0.000000 -0.012700 0.006520
v -0.000000 0.012700 0.006520
v 0.000000 0.006948 0.014795
v 0.000000 0.007988 0.013503
v 0.000000 0.009834 0.012245
v 0.000000 0.011406 0.011456
v 0.000000 0.012354 0.010376
v 0.000000 -0.006350 0.018677
v 0.000000 -0.006510 0.016251
v 0.000000 -0.006948 0.014795
v 0.000000 -0.007988 0.013503
v 0.000000 -0.009834 0.012245
v 0.000000 -0.011406 0.011456
v 0.000000 -0.012354 0.010376
v 0.000496 -0.012700 0.004025
v 0.000496 0.012700 0.004025
v 0.000611 -0.006350 0.054879
v 0.000611 0.006350 0.054879
v 0.001910 -0.012700 0.001910
v 0.001910 0.012700 0.001910
v 0.002329 -0.006350 0.057118
v 0.002329 0.006350 0.057118
v 0.003260 -0.012700 0.006520
v 0.003260 -0.012700 0.008897
v 0.003260 -0.012354 0.010376
v 0.003260 -0.011406 0.011456
v 0.003260 -0.009834 0.012245
v 0.003260 -0.007988 0.013503
v 0.003260 -0.006948 0.014795
v 0.003260 -0.006510 0.016251
v 0.003260 -0.006350 0.018677
v 0.003260 -0.006350 0.052124
v 0.003260 0.006350 0.018677
v 0.003260 0.006350 0.052124
v 0.003260 0.006510 0.016251
v 0.003260 0.006948 0.014795
v 0.003260 0.007988 0.013503
v 0.003260 0.009834 0.012245
v 0.003260 0.011406 0.011456
v 0.003260 0.012354 0.010376
v 0.003260 0.012700 0.006520
v 0.003260 0.012700 0.008897
v 0.003565 -0.006350 0.053501
v 0.003565 0.006350 0.053501
v 0.003697 -0.012700 0.004890
v 0.003697 0.012700 0.004890
v 0.004025 -0.012700 0.000496
v 0.004025 0.012700 0.000496
v 0.004425 -0.006350 0.054621
v 0.004425 0.006350 0.054621
v 0.004833 -0.006350 0.058421
v 0.004833 0.006350 0.058421
v 0.004890 -0.012700 0.003697
v 0.004890 0.012700 0.003697
v 0.005676 -0.006350 0.055272
v 0.005676 0.006350 0.055272
v 0.006520 -0.012700 0.000000
v 0.006520 -0.012700 0.003260
v 0.006520 0.012700 0.000000
v 0.006520 0.012700 0.003260
v 0.015750 -0.000000 -0.000000
v 0.015750 -0.000000 0.003260
v 0.015750 0.000000 0.003260
v 0.016051 -0.001125 -0.000000
v 0.016051 -0.001125 0.000000
v 0.016051 -0.001125 0.003260
v 0.016051 0.001125 -0.000000
v 0.016051 0.001125 0.000000
v 0.016051 0.001125 0.003260
v 0.016875 -0.001949 -0.000000
v 0.016875 -0.001949 0.000000
v 0.016875 -0.001949 0.003260
v 0.016875 0.001949 -0.000000
v 0.016875 0.001949 0.000000
v 0.016875 0.001949 0.003260
v 0.018000 -0.002250 -0.000000
v 0.018000 -0.002250 0.000000
v 0.018000 -0.002250 0.003260
v 0.018000 0.002250 -0.000000
v 0.018000 0.002250 0.000000
v 0.018000 0.002250 0.003260
v 0.019000 -0.012700 0.000000
v 0.019000 -0.012700 0.003260
v 0.019000 0.012700 0.000000
v 0.019000 0.012700 0.003260
v 0.019125 -0.001949 -0.000000
v 0.019125 -0.001949 0.000000
v 0.019125 -0.001949 0.003260
v 0.019125 0.001949 -0.000000
v 0.019125 0.001949 0.000000
v 0.019125 0.001949 0.003260
v 0.019949 -0.001125 -0.000000
v 0.019949 -0.001125 0.000000
v 0.019949 -0.001125 0.003260
v 0.019949 0.001125 -0.000000
v 0.019949 0.001125 0.000000
v 0.019949 0.001125 0.003260
v 0.020250 0.000000 0.000000
v 0.020250 0.000000 0.003260
v 0.020250 0.000000 -0.000000
v 0.020913 -0.013081 0.000000
v 0.020913 -0.013081 0.003260
v 0.020913 0.013081 0.000000
v 0.020913 0.013081 0.003260
v 0.022536 -0.014164 0.000000
v 0.022536 -0.014164 0.003260
v 0.022536 0.014164 0.000000
v 0.022536 0.014164 0.003260
v 0.023619 -0.015787 0.000000
v 0.023619 -0.015787 0.003260
v 0.023619 0.015787 0.000000
v 0.023619 0.015787 0.003260
v 0.024000 -0.024000 0.000000
v 0.024000 -0.024000 0.003260
v 0.024000 -0.017700 0.000000
v 0.024000 -0.017700 0.003260
v 0.024000 0.017700 0.000000
v 0.024000 0.017700 0.003260
v 0.024000 0.024000 0.000000
v 0.024000 0.024000 0.003260
v 0.024594 -0.026603 0.000000
v 0.024594 -0.026603 0.003260
v 0.024594 0.026603 0.000000
v 0.024594 0.026603 0.003260
v 0.026259 -0.028691 0.000000
v 0.026259 -0.028691 0.003260
v 0.026259 0.028691 0.000000
v 0.026259 0.028691 0.003260
v 0.027750 -0.024000 -0.000000
v 0.027750 -0.024000 0.003260
v 0.027750 0.024000 -0.000000
v 0.027750 0.024000 0.003260
v 0.028051 -0.025125 -0.000000
v 0.028051 -0.025125 0.000000
v 0.028051 -0.025125 0.003260
v 0.028051 -0.022875 -0.000000
v 0.028051 -0.022875 0.000000
v 0.028051 -0.022875 0.003260
v 0.028051 0.022875 -0.000000
v 0.028051 0.022875 0.000000
v 0.028051 0.022875 0.003260
v 0.028051 0.025125 -0.000000
v 0.028051 0.025125 0.000000
v 0.028051 0.025125 0.003260
v 0.028665 -0.029850 0.000000
v 0.028665 -0.029850 0.003260
v 0.028665 0.029850 0.000000
v 0.028665 0.029850 0.003260
v 0.028875 -0.025949 -0.000000
v 0.028875 -0.025949 0.000000
v 0.028875 -0.025949 0.003260
v 0.028875 -0.022051 -0.000000
v 0.028875 -0.022051 0.000000
v 0.028875 -0.022051 0.003260
v 0.028875 0.022051 -0.000000
v 0.028875 0.022051 0.000000
v 0.028875 0.022051 0.003260
v 0.028875 0.025949 -0.000000
v 0.028875 0.025949 0.000000
v 0.028875 0.025949 0.003260
v 0.030000 -0.026250 -0.000000
v 0.030000 -0.026250 0.000000
v 0.030000 -0.026250 0.003260
v 0.030000 -0.021750 -0.000000
v 0.030000 -0.021750 0.000000
v 0.030000 -0.021750 0.003260
v 0.030000 0.021750 -0.000000
v 0.030000 0.021750 0.000000
v 0.030000 0.021750 0.003260
v 0.030000 0.026250 -0.000000
v 0.030000 0.026250 0.000000
v 0.030000 0.026250 0.003260
v 0.030063 -0.006350 0.065182
v 0.030063 0.006350 0.065182
v 0.030907 -0.006350 0.062033
v 0.030907 0.006350 0.062033
v 0.031125 -0.025949 -0.000000
v 0.031125 -0.025949 0.000000
v 0.031125 -0.025949 0.003260
v 0.031125 -0.022051 -0.000000
v 0.031125 -0.022051 0.000000
v 0.031125 -0.022051 0.003260
v 0.031125 0.022051 -0.000000
v 0.031125 0.022051 0.000000
v 0.031125 0.022051 0.003260
v 0.031125 0.025949 -0.000000
v 0.031125 0.025949 0.000000
v 0.031125 0.025949 0.003260
v 0.031315 -0.006350 0.065833
v 0.031315 0.006350 0.065833
v 0.031335 -0.029850 0.000000
v 0.031335 -0.029850 0.003260
v 0.031335 0.029850 0.000000
v 0.031335 0.029850 0.003260
v 0.031949 -0.025125 -0.000000
v 0.031949 -0.025125 0.000000
v 0.031949 -0.025125 0.003260
v 0.031949 -0.022875 -0.000000
v 0.031949 -0.022875 0.000000
v 0.031949 -0.022875 0.003260
v 0.031949 0.022875 -0.000000
v 0.031949 0.022875 0.000000
v 0.031949 0.022875 0.003260
v 0.031949 0.025125 -0.000000
v 0.031949 0.025125 0.000000
v 0.031949 0.025125 0.003260
v 0.032174 -0.006350 0.066953
v 0.032174 0.006350 0.066953
v 0.032250 -0.024000 -0.000000
v 0.032250 -0.024000 0.000000
v 0.032250 -0.024000 0.003260
v 0.032250 0.024000 -0.000000
v 0.032250 0.024000 0.000000
v 0.032250 0.024000 0.003260
v 0.032479 -0.044500 0.092000
v 0.032479 -0.043967 0.089321
v 0.032479 -0.043967 0.094679
v 0.032479 -0.042450 0.087050
v 0.032479 -0.042450 0.096950
v 0.032479 -0.040500 0.092000
v 0.032479 -0.040199 0.090875
v 0.032479 -0.040199 0.093125
v 0.032479 -0.040179 0.085533
v 0.032479 -0.040179 0.098467
v 0.032479 -0.039375 0.090051
v 0.032479 -0.039375 0.093949
v 0.032479 -0.038250 0.089750
v 0.032479 -0.038250 0.094250
v 0.032479 -0.037500 0.085000
v 0.032479 -0.037500 0.099000
v 0.032479 -0.036750 0.089750
v 0.032479 -0.036750 0.094250
v 0.032479 -0.035625 0.090051
v 0.032479 -0.035625 0.093949
v 0.032479 -0.034801 0.090875
v 0.032479 -0.034801 0.093125
v 0.032479 -0.034500 0.092000
v 0.032479 -0.024200 0.092000
v 0.032479 -0.023972 0.091150
v 0.032479 -0.023972 0.092850
v 0.032479 -0.023350 0.090528
v 0.032479 -0.023350 0.093472
v 0.032479 -0.022500 0.090300
v 0.032479 -0.022500 0.093700
v 0.032479 -0.021650 0.090528
v 0.032479 -0.021650 0.093472
v 0.032479 -0.021350 0.085000
v 0.032479 -0.021028 0.091150
v 0.032479 -0.021028 0.092850
v 0.032479 -0.020800 0.092000
v 0.032479 -0.018807 0.084855
v 0.032479 -0.014947 0.084043
v 0.032479 -0.011529 0.082558
v 0.032479 -0.010493 0.081900
v 0.032479 -0.008199 0.079810
v 0.032479 -0.006796 0.077421
v 0.032479 -0.006350 0.068331
v 0.032479 -0.006350 0.075000
v 0.032479 0.006350 0.068331
v 0.032479 0.006350 0.075000
v 0.032479 0.006796 0.077421
v 0.032479 0.008199 0.079810
v 0.032479 0.010493 0.081900
v 0.032479 0.011529 0.082558
v 0.032479 0.014947 0.084043
v 0.032479 0.018807 0.084855
v 0.032479 0.020000 0.092000
v 0.032479 0.020228 0.091150
v 0.032479 0.020228 0.092850
v 0.032479 0.020850 0.090528
v 0.032479 0.020850 0.093472
v 0.032479 0.021350 0.085000
v 0.032479 0.021700 0.090300
v 0.032479 0.021700 0.093700
v 0.032479 0.023300 0.090300
v 0.032479 0.023300 0.093700
v 0.032479 0.024150 0.090528
v 0.032479 0.024150 0.093472
v 0.032479 0.024772 0.091150
v 0.032479 0.024772 0.092850
v 0.032479 0.025000 0.092000
v 0.032479 0.035250 0.092000
v 0.032479 0.035551 0.090875
v 0.032479 0.035551 0.093125
v 0.032479 0.036375 0.090051
v 0.032479 0.036375 0.093949
v 0.032479 0.037500 0.085000
v 0.032479 0.037500 0.089750
v 0.032479 0.037500 0.094250
v 0.032479 0.037500 0.099000
v 0.032479 0.038625 0.090051
v 0.032479 0.038625 0.093949
v 0.032479 0.039449 0.090875
v 0.032479 0.039449 0.093125
v 0.032479 0.039750 0.092000
v 0.032479 0.040179 0.085533
v 0.032479 0.040179 0.098467
v 0.032479 0.042450 0.087050
v 0.032479 0.042450 0.096950
v 0.032479 0.043967 0.089321
v 0.032479 0.043967 0.094679
v 0.032479 0.044500 0.092000
v 0.033410 -0.006350 0.063336
v 0.033410 0.006350 0.063336
v 0.033741 -0.028691 0.000000
v 0.033741 -0.028691 0.003260
v 0.033741 0.028691 0.000000
v 0.033741 0.028691 0.003260
v 0.035128 -0.006350 0.065575
v 0.035128 0.006350 0.065575
v 0.035406 -0.026603 0.000000
v 0.035406 -0.026603 0.003260
v 0.035406 0.026603 0.000000
v 0.035406 0.026603 0.003260
v 0.035739 -0.044500 0.092000
v 0.035739 -0.043967 0.089321
v 0.035739 -0.043967 0.094679
v 0.035739 -0.042450 0.087050
v 0.035739 -0.042450 0.096950
v 0.035739 -0.040500 0.092000
v 0.035739 -0.040199 0.090875
v 0.035739 -0.040199 0.093125
v 0.035739 -0.040179 0.085533
v 0.035739 -0.040179 0.098467
v 0.035739 -0.039375 0.090051
v 0.035739 -0.039375 0.093949
v 0.035739 -0.038250 0.089750
v 0.035739 -0.038250 0.094250
v 0.035739 -0.037500 0.085000
v 0.035739 -0.037500 0.099000
v 0.035739 -0.036750 0.089750
v 0.035739 -0.036750 0.094250
v 0.035739 -0.035625 0.090051
v 0.035739 -0.035625 0.093949
v 0.035739 -0.034801 0.090875
v 0.035739 -0.034801 0.093125
v 0.035739 -0.034500 0.092000
v 0.035739 -0.024200 0.092000
v 0.035739 -0.023972 0.091150
v 0.035739 -0.023972 0.092850
v 0.035739 -0.023350 0.090528
v 0.035739 -0.023350 0.093472
v 0.035739 -0.022500 0.090300
v 0.035739 -0.022500 0.093700
v 0.035739 -0.021650 0.090528
v 0.035739 -0.021650 0.093472
v 0.035739 -0.021350 0.085000
v 0.035739 -0.021028 0.091150
v 0.035739 -0.021028 0.092850
v 0.035739 -0.020800 0.092000
v 0.035739 -0.018807 0.084855
v 0.035739 -0.014947 0.084043
v 0.035739 -0.011529 0.082558
v 0.035739 -0.010493 0.081900
v 0.035739 -0.008199 0.079810
v 0.035739 -0.006796 0.077421
v 0.035739 -0.006350 0.068331
v 0.035739 -0.006350 0.075000
v 0.035739 0.006350 0.068331
v 0.035739 0.006350 0.075000
v 0.035739 0.006796 0.077421
v 0.035739 0.008199 0.079810
v 0.035739 0.010493 0.081900
v 0.035739 0.011529 0.082558
v 0.035739 0.014947 0.084043
v 0.035739 0.018807 0.084855
v 0.035739 0.020000 0.092000
v 0.035739 0.020228 0.091150
v 0.035739 0.020228 0.092850
v 0.035739 0.020850 0.090528
v 0.035739 0.020850 0.093472
v 0.035739 0.021350 0.085000
v 0.035739 0.021700 0.090300
v 0.035739 0.021700 0.093700
v 0.035739 0.023300 0.090300
v 0.035739 0.023300 0.093700
v 0.035739 0.024150 0.090528
v 0.035739 0.024150 0.093472
v 0.035739 0.024772 0.091150
v 0.035739 0.024772 0.092850
v 0.035739 0.025000 0.092000
v 0.035739 0.035250 0.092000
v 0.035739 0.035551 0.090875
v 0.035739 0.035551 0.093125
v 0.035739 0.036375 0.090051
v 0.035739 0.036375 0.093949
v 0.035739 0.037500 0.085000
v 0.035739 0.037500 0.089750
v 0.035739 0.037500 0.094250
v 0.035739 0.037500 0.099000
v 0.035739 0.038625 0.090051
v 0.035739 0.038625 0.093949
v 0.035739 0.039449 0.090875
v 0.035739 0.039449 0.093125
v 0.035739 0.039750 0.092000
v 0.035739 0.040179 0.085533
v 0.035739 0.040179 0.098467
v 0.035739 0.042450 0.087050
v 0.035739 0.042450 0.096950
v 0.035739 0.043967 0.089321
v 0.035739 0.043967 0.094679
v 0.035739 0.044500 0.092000
v 0.036000 -0.024000 0.000000
v 0.036000 -0.024000 0.003260
v 0.036000 0.024000 0.000000
v 0.036000 0.024000 0.003260
vn -1.0000 -0.0000 -0.0000
vn -0.0000 -0.0000 -1.0000
vn -0.0000 -1.0000 -0.0000
vn -0.0000 1.0000 -0.0000
vn -0.2588 -0.0000 0.9659
vn 0.2588 -0.0000 -0.9659
vn 1.0000 -0.0000 -0.0000
vn -0.0000 -0.0000 1.0000
vn 0.9749 -0.2225 -0.0000
vn 0.7818 -0.6235 -0.0000
vn 0.4339 -0.9010 -0.0000
vn -0.4339 -0.9010 -0.0000
vn -0.7818 -0.6235 -0.0000
vn -0.9749 -0.2225 -0.0000
vn -0.9749 0.2225 -0.0000
vn -0.7818 0.6235 -0.0000
vn -0.4339 0.9010 -0.0000
vn 0.4339 0.9010 -0.0000
vn 0.7818 0.6235 -0.0000
vn 0.9749 0.2225 -0.0000
vn -0.1951 -0.0000 -0.9808
vn -0.5556 -0.0000 -0.8315
vn -0.8315 -0.0000 -0.5556
vn -0.9808 -0.0000 -0.1951
vn 0.9659 -0.0000 0.2588
vn 0.7071 -0.0000 0.7071
vn 0.2588 -0.0000 0.9659
vn -0.0000 -0.9737 0.2279
vn -0.0000 -0.7513 0.6599
vn -0.0000 -0.4488 0.8936
vn -0.0000 -0.5633 0.8263
vn -0.0000 -0.7789 0.6271
vn -0.0000 -0.9576 0.2881
vn -0.0000 -0.9978 0.0659
vn -0.0000 0.9978 0.0659
vn -0.0000 0.9576 0.2881
vn -0.0000 0.7789 0.6271
vn -0.0000 0.5633 0.8263
vn -0.0000 0.4488 0.8936
vn -0.0000 0.7513 0.6599
vn -0.0000 0.9737 0.2279
vn -0.9763 -0.0000 0.2164
vn -0.7934 -0.0000 0.6088
vn -0.4617 -0.0000 0.8870
vn 0.4617 -0.0000 -0.8870
vn 0.7934 -0.0000 -0.6088
vn 0.9763 -0.0000 -0.2164
vn -0.4618 -0.0000 0.8870
vn -0.0000 -0.1951 0.9808
vn -0.0000 -0.5556 0.8315
vn -0.0000 -0.8315 0.5556
vn -0.0000 -0.9808 0.1951
vn -0.0000 -0.9808 -0.1951
vn -0.0000 -0.8315 -0.5556
vn -0.0000 -0.5556 -0.8315
vn -0.0000 -0.1951 -0.9808
vn -0.0000 0.1951 -0.9808
vn -0.0000 0.5556 -0.8315
vn -0.0000 0.8315 -0.5556
vn -0.0000 0.9808 -0.1951
vn -0.0000 0.9808 0.1951
vn -0.0000 0.8315 0.5556
vn -0.0000 0.5556 0.8315
vn -0.0000 0.1951 0.9808
vn -0.9808 0.1951 -0.0000
vn -0.8315 0.5556 -0.0000
vn -0.5556 0.8315 -0.0000
vn -0.1951 0.9808 -0.0000
vn -0.1951 -0.9808 -0.0000
vn -0.5556 -0.8315 -0.0000
vn -0.8315 -0.5556 -0.0000
vn -0.9808 -0.1951 -0.0000
vn -0.0000 -0.0568 -0.9984
vn -0.0000 -0.2059 -0.9786
vn -0.0000 -0.3984 -0.9172
vn -0.0000 -0.5364 -0.8440
vn -0.0000 -0.6735 -0.7392
vn -0.0000 -0.8623 -0.5064
vn -0.0000 -0.9834 -0.1812
vn -0.0000 0.0568 -0.9984
vn -0.0000 0.2059 -0.9786
vn -0.0000 0.3984 -0.9172
vn -0.0000 0.5364 -0.8440
vn -0.0000 0.6735 -0.7392
vn -0.0000 0.8623 -0.5064
vn -0.0000 0.9834 -0.1812
vn 0.9659 -0.2588 -0.0000
vn 0.7071 -0.7071 -0.0000
vn 0.2588 -0.9659 -0.0000
vn -0.2588 -0.9659 -0.0000
vn -0.7071 -0.7071 -0.0000
vn -0.9659 -0.2588 -0.0000
vn -0.9659 0.2588 -0.0000
vn -0.7071 0.7071 -0.0000
vn -0.2588 0.9659 -0.0000
vn 0.2588 0.9659 -0.0000
vn 0.7071 0.7071 -0.0000
vn 0.9659 0.2588 -0.0000
vn -0.0000 -0.2588 0.9659
vn -0.0000 -0.7071 0.7071
vn -0.0000 -0.9659 0.2588
vn -0.0000 -0.9659 -0.2588
vn -0.0000 -0.7071 -0.7071
vn -0.0000 -0.2588 -0.9659
vn -0.0000 0.2588 -0.9659
vn -0.0000 0.7071 -0.7071
vn -0.0000 0.9659 -0.2588
vn -0.0000 0.9659 0.2588
vn -0.0000 0.7071 0.7071
vn -0.0000 0.2588 0.9659
s 0
f 305//1 295//1 297//1
f 259//1 251//1 253//1
f 314//1 305//1 306//1
f 309//1 314//1 306//1
f 316//1 314//1 309//1
f 311//1 316//1 309//1
f 248//1 308//1 262//1
f 260//1 248//1 262//1
f 254//1 248//1 260//1
f 258//1 254//1 260//1
f 255//1 254//1 258//1
f 256//1 255//1 258//1
f 253//1 255//1 256//1
f 257//1 253//1 256//1
f 259//1 253//1 257//1
f 275//1 286//1 288//1
f 299//1 298//1 302//1
f 300//1 299//1 302//1
f 297//1 299//1 300//1
f 301//1 297//1 300//1
f 305//1 297//1 301//1
f 303//1 305//1 301//1
f 306//1 305//1 303//1
f 310//1 308//1 315//1
f 317//1 310//1 315//1
f 312//1 310//1 317//1
f 319//1 312//1 317//1
f 313//1 312//1 319//1
f 320//1 313//1 319//1
f 311//1 313//1 320//1
f 318//1 311//1 320//1
f 316//1 311//1 318//1
f 263//1 287//1 285//1
f 261//1 263//1 285//1
f 266//1 268//1 308//1
f 263//1 266//1 308//1
f 308//1 268//1 267//1
f 264//1 308//1 267//1
f 262//1 308//1 264//1
f 248//1 254//1 252//1
f 250//1 248//1 252//1
f 246//1 248//1 250//1
f 278//1 277//1 275//1
f 279//1 278//1 275//1
f 286//1 275//1 276//1
f 274//1 286//1 276//1
f 285//1 286//1 274//1
f 273//1 285//1 274//1
f 272//1 285//1 273//1
f 308//1 310//1 307//1
f 304//1 308//1 307//1
f 302//1 308//1 304//1
f 245//1 249//1 247//1
f 241//1 245//1 247//1
f 243//1 245//1 241//1
f 236//1 243//1 241//1
f 239//1 243//1 236//1
f 234//1 239//1 236//1
f 238//1 239//1 234//1
f 233//1 238//1 234//1
f 240//1 238//1 233//1
f 235//1 240//1 233//1
f 244//1 240//1 235//1
f 237//1 244//1 235//1
f 246//1 244//1 237//1
f 242//1 246//1 237//1
f 248//1 246//1 242//1
f 285//1 272//1 271//1
f 270//1 285//1 271//1
f 261//1 285//1 270//1
f 247//1 249//1 251//1
f 259//1 247//1 251//1
f 265//1 247//1 259//1
f 261//1 265//1 259//1
f 269//1 265//1 261//1
f 270//1 269//1 261//1
f 302//1 298//1 296//1
f 294//1 302//1 296//1
f 308//1 302//1 294//1
f 292//1 308//1 294//1
f 263//1 308//1 292//1
f 289//1 263//1 292//1
f 287//1 263//1 289//1
f 293//1 295//1 305//1
f 290//1 293//1 305//1
f 291//1 293//1 290//1
f 288//1 291//1 290//1
f 284//1 288//1 290//1
f 283//1 288//1 284//1
f 288//1 283//1 282//1
f 281//1 288//1 282//1
f 275//1 288//1 281//1
f 280//1 275//1 281//1
f 279//1 275//1 280//1
f 323//2 180//2 196//2
f 95//2 119//2 100//2
f 89//2 95//2 100//2
f 75//2 89//2 100//2
f 83//2 89//2 75//2
f 329//2 323//2 196//2
f 214//2 329//2 196//2
f 421//2 329//2 214//2
f 421//2 214//2 228//2
f 217//2 421//2 228//2
f 116//2 421//2 217//2
f 98//2 77//2 102//2
f 205//2 189//2 211//2
f 325//2 205//2 211//2
f 223//2 205//2 325//2
f 331//2 223//2 325//2
f 231//2 223//2 331//2
f 423//2 231//2 331//2
f 220//2 231//2 423//2
f 108//2 174//2 186//2
f 114//2 108//2 186//2
f 202//2 220//2 423//2
f 421//2 202//2 423//2
f 186//2 202//2 421//2
f 116//2 186//2 421//2
f 114//2 186//2 116//2
f 77//2 98//2 92//2
f 86//2 77//2 92//2
f 75//2 77//2 86//2
f 79//2 75//2 86//2
f 83//2 75//2 79//2
f 95//2 105//2 183//2
f 171//2 95//2 183//2
f 155//2 95//2 171//2
f 116//2 217//2 199//2
f 183//2 116//2 199//2
f 111//2 116//2 183//2
f 105//2 111//2 183//2
f 180//2 323//2 209//2
f 163//2 180//2 209//2
f 168//2 180//2 163//2
f 143//2 168//2 163//2
f 152//2 168//2 143//2
f 139//2 152//2 143//2
f 147//2 152//2 139//2
f 131//2 147//2 139//2
f 155//2 147//2 131//2
f 155//2 131//2 133//2
f 127//2 155//2 133//2
f 95//2 155//2 127//2
f 123//2 95//2 127//2
f 119//2 95//2 123//2
f 98//2 102//2 121//2
f 125//2 98//2 121//2
f 129//2 98//2 125//2
f 174//2 108//2 98//2
f 129//2 174//2 98//2
f 158//2 174//2 129//2
f 135//2 158//2 129//2
f 149//2 158//2 135//2
f 137//2 149//2 135//2
f 161//2 149//2 137//2
f 141//2 161//2 137//2
f 177//2 161//2 141//2
f 145//2 177//2 141//2
f 189//2 177//2 145//2
f 165//2 189//2 145//2
f 211//2 189//2 165//2
f 191//3 69//3 73//3
f 193//3 191//3 73//3
f 194//4 74//4 70//4
f 192//4 194//4 70//4
f 192//5 70//5 69//5
f 191//5 192//5 69//5
f 194//6 193//6 73//6
f 74//6 194//6 73//6
f 19//1 18//1 20//1
f 9//1 12//1 10//1
f 8//1 9//1 10//1
f 6//1 9//1 8//1
f 4//1 16//1 14//1
f 12//1 4//1 14//1
f 19//1 4//1 12//1
f 9//1 19//1 12//1
f 11//1 19//1 9//1
f 26//1 1//1 2//1
f 3//1 26//1 2//1
f 6//1 26//1 3//1
f 7//1 6//1 3//1
f 9//1 6//1 7//1
f 15//1 17//1 18//1
f 19//1 15//1 18//1
f 13//1 15//1 19//1
f 11//1 13//1 19//1
f 59//7 42//7 41//7
f 47//7 56//7 55//7
f 54//7 47//7 55//7
f 53//7 47//7 54//7
f 60//7 58//7 57//7
f 56//7 60//7 57//7
f 59//7 60//7 56//7
f 47//7 59//7 56//7
f 46//7 59//7 47//7
f 51//7 52//7 50//7
f 49//7 51//7 50//7
f 53//7 51//7 49//7
f 48//7 53//7 49//7
f 47//7 53//7 48//7
f 44//7 43//7 42//7
f 59//7 44//7 42//7
f 45//7 44//7 59//7
f 46//7 45//7 59//7
f 1//3 26//3 49//3
f 50//3 1//3 49//3
f 4//3 19//3 41//3
f 42//3 4//3 41//3
f 100//3 101//3 76//3
f 75//3 100//3 76//3
f 330//8 422//8 229//8
f 215//8 330//8 229//8
f 324//8 330//8 215//8
f 197//8 324//8 215//8
f 210//8 324//8 197//8
f 181//8 210//8 197//8
f 164//8 210//8 181//8
f 169//8 164//8 181//8
f 332//8 206//8 224//8
f 76//8 84//8 81//8
f 87//8 76//8 81//8
f 159//8 76//8 87//8
f 103//8 78//8 76//8
f 122//8 103//8 76//8
f 424//8 332//8 224//8
f 101//8 120//8 106//8
f 96//8 101//8 106//8
f 76//8 101//8 96//8
f 90//8 76//8 96//8
f 84//8 76//8 90//8
f 128//8 134//8 153//8
f 106//8 128//8 153//8
f 124//8 128//8 106//8
f 120//8 124//8 106//8
f 153//8 134//8 132//8
f 140//8 153//8 132//8
f 169//8 153//8 140//8
f 144//8 169//8 140//8
f 164//8 169//8 144//8
f 156//8 187//8 148//8
f 422//8 424//8 200//8
f 218//8 422//8 200//8
f 229//8 422//8 218//8
f 206//8 332//8 326//8
f 212//8 206//8 326//8
f 190//8 206//8 212//8
f 166//8 190//8 212//8
f 178//8 190//8 166//8
f 146//8 178//8 166//8
f 162//8 178//8 146//8
f 142//8 162//8 146//8
f 150//8 162//8 142//8
f 138//8 150//8 142//8
f 159//8 150//8 138//8
f 159//8 87//8 93//8
f 99//8 159//8 93//8
f 175//8 159//8 99//8
f 187//8 175//8 99//8
f 187//8 99//8 109//8
f 115//8 187//8 109//8
f 148//8 187//8 115//8
f 117//8 148//8 115//8
f 153//8 148//8 117//8
f 112//8 153//8 117//8
f 106//8 153//8 112//8
f 187//8 156//8 172//8
f 184//8 187//8 172//8
f 203//8 187//8 184//8
f 200//8 203//8 184//8
f 221//8 203//8 200//8
f 424//8 221//8 200//8
f 232//8 221//8 424//8
f 224//8 232//8 424//8
f 159//8 138//8 136//8
f 130//8 159//8 136//8
f 76//8 159//8 130//8
f 126//8 76//8 130//8
f 122//8 76//8 126//8
f 135//1 136//1 138//1
f 137//1 135//1 138//1
f 103//4 102//4 77//4
f 78//4 103//4 77//4
f 134//1 133//1 131//1
f 132//1 134//1 131//1
f 330//9 421//9 422//9
f 329//9 421//9 330//9
f 324//10 329//10 330//10
f 323//10 329//10 324//10
f 210//11 323//11 324//11
f 209//11 323//11 210//11
f 164//3 209//3 210//3
f 163//3 209//3 164//3
f 144//12 163//12 164//12
f 143//12 163//12 144//12
f 140//13 143//13 144//13
f 139//13 143//13 140//13
f 132//14 139//14 140//14
f 131//14 139//14 132//14
f 421//7 423//7 424//7
f 422//7 421//7 424//7
f 142//15 137//15 138//15
f 141//15 137//15 142//15
f 146//16 141//16 142//16
f 145//16 141//16 146//16
f 166//17 145//17 146//17
f 165//17 145//17 166//17
f 212//4 165//4 166//4
f 211//4 165//4 212//4
f 326//18 211//18 212//18
f 325//18 211//18 326//18
f 332//19 325//19 326//19
f 331//19 325//19 332//19
f 424//20 331//20 332//20
f 423//20 331//20 424//20
f 77//4 72//4 78//4
f 34//4 20//4 59//4
f 64//4 34//4 59//4
f 38//4 34//4 64//4
f 72//4 38//4 64//4
f 66//4 38//4 72//4
f 77//4 66//4 72//4
f 19//3 63//3 41//3
f 65//3 75//3 76//3
f 71//3 65//3 76//3
f 37//3 65//3 71//3
f 63//3 37//3 71//3
f 33//3 37//3 63//3
f 19//3 33//3 63//3
f 65//21 77//21 75//21
f 66//21 77//21 65//21
f 37//22 66//22 65//22
f 38//22 66//22 37//22
f 33//23 38//23 37//23
f 34//23 38//23 33//23
f 19//24 34//24 33//24
f 20//24 34//24 19//24
f 64//25 59//25 41//25
f 63//25 64//25 41//25
f 72//26 64//26 63//26
f 71//26 72//26 63//26
f 78//27 72//27 71//27
f 76//27 78//27 71//27
f 18//4 60//4 59//4
f 20//4 18//4 59//4
f 43//28 4//28 42//28
f 32//28 4//28 43//28
f 44//29 32//29 43//29
f 31//29 32//29 44//29
f 45//30 31//30 44//30
f 30//30 31//30 45//30
f 46//31 30//31 45//31
f 29//31 30//31 46//31
f 47//32 29//32 46//32
f 28//32 29//32 47//32
f 48//33 28//33 47//33
f 27//33 28//33 48//33
f 49//34 27//34 48//34
f 26//34 27//34 49//34
f 53//35 3//35 51//35
f 5//35 3//35 53//35
f 54//36 5//36 53//36
f 21//36 5//36 54//36
f 55//37 21//37 54//37
f 22//37 21//37 55//37
f 56//38 22//38 55//38
f 23//38 22//38 56//38
f 57//39 23//39 56//39
f 24//39 23//39 57//39
f 58//40 24//40 57//40
f 25//40 24//40 58//40
f 60//41 25//41 58//41
f 18//41 25//41 60//41
f 52//4 51//4 3//4
f 2//4 52//4 3//4
f 62//4 52//4 2//4
f 36//4 62//4 2//4
f 68//4 62//4 36//4
f 40//4 68//4 36//4
f 74//4 68//4 40//4
f 70//4 74//4 40//4
f 67//3 73//3 69//3
f 39//3 67//3 69//3
f 61//3 67//3 39//3
f 35//3 61//3 39//3
f 50//3 61//3 35//3
f 1//3 50//3 35//3
f 35//42 2//42 1//42
f 36//42 2//42 35//42
f 39//43 36//43 35//43
f 40//43 36//43 39//43
f 69//44 40//44 39//44
f 70//44 40//44 69//44
f 68//45 74//45 73//45
f 67//45 68//45 73//45
f 62//46 68//46 67//46
f 61//46 62//46 67//46
f 52//47 62//47 61//47
f 50//47 52//47 61//47
f 207//3 191//3 193//3
f 321//3 207//3 193//3
f 225//3 207//3 321//3
f 327//3 225//3 321//3
f 275//3 225//3 327//3
f 375//3 275//3 327//3
f 226//4 277//4 377//4
f 328//4 226//4 377//4
f 208//4 226//4 328//4
f 322//4 208//4 328//4
f 192//4 208//4 322//4
f 194//4 192//4 322//4
f 322//45 193//45 194//45
f 321//45 193//45 322//45
f 328//46 321//46 322//46
f 327//46 321//46 328//46
f 377//47 327//47 328//47
f 375//47 327//47 377//47
f 225//42 275//42 277//42
f 226//42 225//42 277//42
f 207//43 225//43 226//43
f 208//43 207//43 226//43
f 191//48 207//48 208//48
f 192//44 191//44 208//44
f 278//4 378//4 377//4
f 277//4 278//4 377//4
f 376//3 276//3 275//3
f 375//3 376//3 275//3
f 388//7 368//7 391//7
f 411//7 409//7 416//7
f 418//7 411//7 416//7
f 413//7 411//7 418//7
f 420//7 413//7 418//7
f 412//7 413//7 420//7
f 347//7 353//7 351//7
f 368//7 388//7 386//7
f 385//7 368//7 386//7
f 367//7 368//7 385//7
f 387//7 367//7 385//7
f 364//7 367//7 387//7
f 389//7 364//7 387//7
f 403//7 383//7 384//7
f 390//7 403//7 384//7
f 406//7 403//7 390//7
f 405//7 406//7 390//7
f 409//7 406//7 405//7
f 414//7 409//7 405//7
f 416//7 409//7 414//7
f 369//7 366//7 363//7
f 376//7 375//7 377//7
f 378//7 376//7 377//7
f 374//7 376//7 378//7
f 373//7 374//7 378//7
f 347//7 351//7 349//7
f 345//7 347//7 349//7
f 341//7 347//7 345//7
f 365//7 369//7 363//7
f 361//7 365//7 363//7
f 347//7 365//7 361//7
f 359//7 347//7 361//7
f 353//7 347//7 359//7
f 357//7 353//7 359//7
f 355//7 353//7 357//7
f 356//7 355//7 357//7
f 354//7 355//7 356//7
f 358//7 354//7 356//7
f 360//7 354//7 358//7
f 394//7 408//7 392//7
f 379//7 380//7 368//7
f 366//7 379//7 368//7
f 378//7 379//7 366//7
f 364//7 389//7 392//7
f 408//7 364//7 392//7
f 362//7 364//7 408//7
f 348//7 362//7 408//7
f 360//7 362//7 348//7
f 352//7 360//7 348//7
f 354//7 360//7 352//7
f 412//7 420//7 419//7
f 417//7 412//7 419//7
f 410//7 412//7 417//7
f 415//7 410//7 417//7
f 407//7 410//7 415//7
f 408//7 407//7 415//7
f 404//7 407//7 408//7
f 394//7 404//7 408//7
f 402//7 404//7 394//7
f 402//7 394//7 396//7
f 398//7 402//7 396//7
f 400//7 402//7 398//7
f 399//7 400//7 398//7
f 401//7 400//7 399//7
f 397//7 401//7 399//7
f 403//7 401//7 397//7
f 395//7 403//7 397//7
f 383//7 403//7 395//7
f 366//7 369//7 370//7
f 371//7 366//7 370//7
f 378//7 366//7 371//7
f 372//7 378//7 371//7
f 373//7 378//7 372//7
f 336//7 341//7 345//7
f 343//7 336//7 345//7
f 334//7 336//7 343//7
f 339//7 334//7 343//7
f 333//7 334//7 339//7
f 338//7 333//7 339//7
f 335//7 333//7 338//7
f 340//7 335//7 338//7
f 337//7 335//7 340//7
f 344//7 337//7 340//7
f 342//7 337//7 344//7
f 346//7 342//7 344//7
f 348//7 342//7 346//7
f 350//7 348//7 346//7
f 352//7 348//7 350//7
f 368//7 380//7 381//7
f 382//7 368//7 381//7
f 391//7 368//7 382//7
f 383//7 391//7 382//7
f 393//7 391//7 383//7
f 395//7 393//7 383//7
f 390//2 290//2 305//2
f 405//2 390//2 305//2
f 265//2 365//2 347//2
f 247//2 265//2 347//2
f 242//49 348//49 248//49
f 342//49 348//49 242//49
f 237//50 342//50 242//50
f 337//50 342//50 237//50
f 235//51 337//51 237//51
f 335//51 337//51 235//51
f 233//52 335//52 235//52
f 333//52 335//52 233//52
f 234//53 333//53 233//53
f 334//53 333//53 234//53
f 236//54 334//54 234//54
f 336//54 334//54 236//54
f 241//55 336//55 236//55
f 341//55 336//55 241//55
f 247//56 341//56 241//56
f 347//56 341//56 247//56
f 348//8 408//8 308//8
f 248//8 348//8 308//8
f 314//57 405//57 305//57
f 414//57 405//57 314//57
f 316//58 414//58 314//58
f 416//58 414//58 316//58
f 318//59 416//59 316//59
f 418//59 416//59 318//59
f 320//60 418//60 318//60
f 420//60 418//60 320//60
f 319//61 420//61 320//61
f 419//61 420//61 319//61
f 317//62 419//62 319//62
f 417//62 419//62 317//62
f 315//63 417//63 317//63
f 415//63 417//63 315//63
f 308//64 415//64 315//64
f 408//64 415//64 308//64
f 130//65 136//65 135//65
f 129//65 130//65 135//65
f 126//66 130//66 129//66
f 125//66 126//66 129//66
f 122//67 126//67 125//67
f 121//67 122//67 125//67
f 103//68 122//68 121//68
f 102//68 103//68 121//68
f 120//69 101//69 100//69
f 119//69 120//69 100//69
f 124//70 120//70 119//70
f 123//70 124//70 119//70
f 128//71 124//71 123//71
f 127//71 128//71 123//71
f 134//72 128//72 127//72
f 133//72 134//72 127//72
f 269//73 365//73 265//73
f 369//73 365//73 269//73
f 270//74 369//74 269//74
f 370//74 369//74 270//74
f 271//75 370//75 270//75
f 371//75 370//75 271//75
f 272//76 371//76 271//76
f 372//76 371//76 272//76
f 273//77 372//77 272//77
f 373//77 372//77 273//77
f 274//78 373//78 273//78
f 374//78 373//78 274//78
f 276//79 374//79 274//79
f 376//79 374//79 276//79
f 384//80 290//80 390//80
f 284//80 290//80 384//80
f 383//81 284//81 384//81
f 283//81 284//81 383//81
f 382//82 283//82 383//82
f 282//82 283//82 382//82
f 381//83 282//83 382//83
f 281//83 282//83 381//83
f 380//84 281//84 381//84
f 280//84 281//84 380//84
f 379//85 280//85 380//85
f 279//85 280//85 379//85
f 378//86 279//86 379//86
f 278//86 279//86 378//86
f 87//87 80//87 79//87
f 85//87 87//87 79//87
f 93//88 87//88 85//88
f 91//88 93//88 85//88
f 99//89 93//89 91//89
f 97//89 99//89 91//89
f 109//90 99//90 97//90
f 107//90 109//90 97//90
f 115//91 109//91 107//91
f 113//91 115//91 107//91
f 117//92 115//92 113//92
f 118//92 117//92 113//92
f 112//93 117//93 118//93
f 110//93 112//93 118//93
f 106//94 112//94 110//94
f 104//94 106//94 110//94
f 96//95 106//95 104//95
f 94//95 96//95 104//95
f 90//96 96//96 94//96
f 88//96 90//96 94//96
f 84//97 90//97 88//97
f 82//97 84//97 88//97
f 80//98 84//98 82//98
f 79//98 80//98 82//98
f 162//87 150//87 149//87
f 160//87 162//87 149//87
f 178//88 162//88 160//88
f 176//88 178//88 160//88
f 190//89 178//89 176//89
f 188//89 190//89 176//89
f 206//90 190//90 188//90
f 204//90 206//90 188//90
f 224//91 206//91 204//91
f 222//91 224//91 204//91
f 232//92 224//92 222//92
f 230//92 232//92 222//92
f 221//93 232//93 230//93
f 219//93 221//93 230//93
f 203//94 221//94 219//94
f 201//94 203//94 219//94
f 187//95 203//95 201//95
f 185//95 187//95 201//95
f 175//96 187//96 185//96
f 173//96 175//96 185//96
f 159//97 175//97 173//97
f 157//97 159//97 173//97
f 150//98 159//98 157//98
f 149//98 150//98 157//98
f 156//87 148//87 147//87
f 154//87 156//87 147//87
f 172//88 156//88 154//88
f 170//88 172//88 154//88
f 184//89 172//89 170//89
f 182//89 184//89 170//89
f 200//90 184//90 182//90
f 198//90 200//90 182//90
f 218//91 200//91 198//91
f 216//91 218//91 198//91
f 229//92 218//92 216//92
f 227//92 229//92 216//92
f 215//93 229//93 227//93
f 213//93 215//93 227//93
f 197//94 215//94 213//94
f 195//94 197//94 213//94
f 181//95 197//95 195//95
f 179//95 181//95 195//95
f 169//96 181//96 179//96
f 167//96 169//96 179//96
f 153//97 169//97 167//97
f 151//97 153//97 167//97
f 148//98 153//98 151//98
f 147//98 148//98 151//98
f 309//99 306//99 406//99
f 409//99 309//99 406//99
f 311//100 309//100 409//100
f 411//100 311//100 409//100
f 313//101 311//101 411//101
f 413//101 313//101 411//101
f 312//102 313//102 413//102
f 412//102 312//102 413//102
f 310//103 312//103 412//103
f 410//103 310//103 412//103
f 307//104 310//104 410//104
f 407//104 307//104 410//104
f 304//105 307//105 407//105
f 404//105 304//105 407//105
f 302//106 304//106 404//106
f 402//106 302//106 404//106
f 300//107 302//107 402//107
f 400//107 300//107 402//107
f 301//108 300//108 400//108
f 401//108 301//108 400//108
f 303//109 301//109 401//109
f 403//109 303//109 401//109
f 306//110 303//110 403//110
f 406//110 306//110 403//110
f 346//2 246//2 250//2
f 350//2 346//2 250//2
f 349//8 249//8 245//8
f 345//8 349//8 245//8
f 352//104 350//104 250//104
f 252//104 352//104 250//104
f 354//103 352//103 252//103
f 254//103 354//103 252//103
f 355//102 354//102 254//102
f 255//102 355//102 254//102
f 353//101 355//101 255//101
f 253//101 353//101 255//101
f 351//100 353//100 253//100
f 251//100 351//100 253//100
f 349//99 351//99 251//99
f 249//99 349//99 251//99
f 343//110 345//110 245//110
f 243//110 343//110 245//110
f 339//109 343//109 243//109
f 239//109 339//109 243//109
f 338//108 339//108 239//108
f 238//108 338//108 239//108
f 340//107 338//107 238//107
f 240//107 340//107 238//107
f 344//106 340//106 240//106
f 244//106 344//106 240//106
f 346//105 344//105 244//105
f 246//105 346//105 244//105
f 263//99 261//99 361//99
f 363//99 263//99 361//99
f 266//100 263//100 363//100
f 366//100 266//100 363//100
f 268//101 266//101 366//101
f 368//101 268//101 366//101
f 267//102 268//102 368//102
f 367//102 267//102 368//102
f 264//103 267//103 367//103
f 364//103 264//103 367//103
f 262//104 264//104 364//104
f 362//104 262//104 364//104
f 260//105 262//105 362//105
f 360//105 260//105 362//105
f 258//106 260//106 360//106
f 358//106 258//106 360//106
f 256//107 258//107 358//107
f 356//107 256//107 358//107
f 257//108 256//108 356//108
f 357//108 257//108 356//108
f 259//109 257//109 357//109
f 359//109 259//109 357//109
f 261//110 259//110 359//110
f 361//110 261//110 359//110
f 391//8 393//8 293//8
f 291//8 391//8 293//8
f 392//2 292//2 294//2
f 394//2 392//2 294//2
f 388//110 391//110 291//110
f 288//110 388//110 291//110
f 386//109 388//109 288//109
f 286//109 386//109 288//109
f 385//108 386//108 286//108
f 285//108 385//108 286//108
f 387//107 385//107 285//107
f 287//107 387//107 285//107
f 389//106 387//106 287//106
f 289//106 389//106 287//106
f 392//105 389//105 289//105
f 292//105 392//105 289//105
f 396//104 394//104 294//104
f 296//104 396//104 294//104
f 398//103 396//103 296//103
f 298//103 398//103 296//103
f 399//102 398//102 298//102
f 299//102 399//102 298//102
f 397//101 399//101 299//101
f 297//101 397//101 299//101
f 395//100 397//100 297//100
f 295//100 395//100 297//100
f 393//99 395//99 295//99
f 293//99 393//99 295//99
