# Blender 3.6.23
# www.blender.org
o node0
v -0.134584 -0.010586 0.000000
v -0.134584 -0.010586 0.003000
v -0.134584 0.010586 0.000000
v -0.134584 0.010586 0.003000
v -0.131274 -0.031497 0.000000
v -0.131274 -0.031497 0.003000
v -0.131274 0.031497 0.000000
v -0.131274 0.031497 0.003000
v -0.124736 -0.051634 0.000000
v -0.124736 -0.051634 0.003000
v -0.124736 0.051634 0.000000
v -0.124736 0.051634 0.003000
v -0.115129 -0.070501 0.000000
v -0.115129 -0.070501 0.003000
v -0.115129 0.070501 0.000000
v -0.115129 0.070501 0.003000
v -0.102691 -0.087633 0.000000
v -0.102691 -0.087633 0.003000
v -0.102691 0.087633 0.000000
v -0.102691 0.087633 0.003000
v -0.087727 -0.102611 0.000000
v -0.087727 -0.102611 0.003000
v -0.087727 0.102611 0.000000
v -0.087727 0.102611 0.003000
v -0.078319 -0.090626 0.000000
v -0.078319 -0.090626 0.003000
v -0.078319 0.090656 0.000000
v -0.078319 0.090656 0.003000
v -0.078018 -0.091751 0.000000
v -0.078018 -0.091751 0.003000
v -0.078018 -0.089501 0.000000
v -0.078018 -0.089501 0.003000
v -0.078018 0.089531 0.000000
v -0.078018 0.089531 0.003000
v -0.078018 0.091781 0.000000
v -0.078018 0.091781 0.003000
v -0.077194 -0.092575 0.000000
v -0.077194 -0.092575 0.003000
v -0.077194 -0.088678 0.000000
v -0.077194 -0.088678 0.003000
v -0.077194 0.088707 0.000000
v -0.077194 0.088707 0.003000
v -0.077194 0.092605 0.000000
v -0.077194 0.092605 0.003000
v -0.076069 -0.092876 0.000000
v -0.076069 -0.092876 0.003000
v -0.076069 -0.088376 0.000000
v -0.076069 -0.088376 0.003000
v -0.076069 0.088406 0.000000
v -0.076069 0.088406 0.003000
v -0.076069 0.092906 0.000000
v -0.076069 0.092906 0.003000
v -0.074944 -0.092575 0.000000
v -0.074944 -0.092575 0.003000
v -0.074944 -0.088678 0.000000
v -0.074944 -0.088678 0.003000
v -0.074944 0.088707 0.000000
v -0.074944 0.088707 0.003000
v -0.074944 0.092605 0.000000
v -0.074944 0.092605 0.003000
v -0.074121 -0.091751 0.000000
v -0.074121 -0.091751 0.003000
v -0.074121 -0.089501 0.000000
v -0.074121 -0.089501 0.003000
v -0.074121 0.089531 0.000000
v -0.074121 0.089531 0.003000
v -0.074121 0.091781 0.000000
v -0.074121 0.091781 0.003000
v -0.073819 -0.090626 0.000000
v -0.073819 -0.090626 0.003000
v -0.073819 0.090656 0.000000
v -0.073819 0.090656 0.003000
v -0.070606 -0.115065 0.000000
v -0.070606 -0.115065 0.003000
v -0.070606 0.115065 0.000000
v -0.070606 0.115065 0.003000
v -0.051748 -0.124688 0.000000
v -0.051748 -0.124688 0.003000
v -0.051748 0.124688 0.000000
v -0.051748 0.124688 0.003000
v -0.031617 -0.131245 0.000000
v -0.031617 -0.131245 0.003000
v -0.031617 0.131245 0.000000
v -0.031617 0.131245 0.003000
v -0.010709 -0.134575 0.000000
v -0.010709 -0.134575 0.003000
v -0.010709 0.134575 0.000000
v -0.010709 0.134575 0.003000
v 0.010463 -0.134594 0.000000
v 0.010463 -0.134594 0.003000
v 0.010463 0.134594 0.000000
v 0.010463 0.134594 0.003000
v 0.028379 -0.114281 0.000000
v 0.028379 -0.114281 0.003000
v 0.028379 0.114311 0.000000
v 0.028379 0.114311 0.003000
v 0.028681 -0.115406 0.000000
v 0.028681 -0.115406 0.003000
v 0.028681 -0.113156 0.000000
v 0.028681 -0.113156 0.003000
v 0.028681 0.113186 0.000000
v 0.028681 0.113186 0.003000
v 0.028681 0.115436 0.000000
v 0.028681 0.115436 0.003000
v 0.029504 -0.116229 0.000000
v 0.029504 -0.116229 0.003000
v 0.029504 -0.112332 0.000000
v 0.029504 -0.112332 0.003000
v 0.029504 0.112362 0.000000
v 0.029504 0.112362 0.003000
v 0.029504 0.116259 0.000000
v 0.029504 0.116259 0.003000
v 0.030629 -0.116531 0.000000
v 0.030629 -0.116531 0.003000
v 0.030629 -0.112031 0.000000
v 0.030629 -0.112031 0.003000
v 0.030629 0.112061 0.000000
v 0.030629 0.112061 0.003000
v 0.030629 0.116561 0.000000
v 0.030629 0.116561 0.003000
v 0.031377 -0.131303 0.000000
v 0.031377 -0.131303 0.003000
v 0.031377 0.131303 0.000000
v 0.031377 0.131303 0.003000
v 0.031754 -0.116229 0.000000
v 0.031754 -0.116229 0.003000
v 0.031754 -0.112332 0.000000
v 0.031754 -0.112332 0.003000
v 0.031754 0.112362 0.000000
v 0.031754 0.112362 0.003000
v 0.031754 0.116259 0.000000
v 0.031754 0.116259 0.003000
v 0.032578 -0.115406 0.000000
v 0.032578 -0.115406 0.003000
v 0.032578 -0.113156 0.000000
v 0.032578 -0.113156 0.003000
v 0.032578 0.113186 0.000000
v 0.032578 0.113186 0.003000
v 0.032578 0.115436 0.000000
v 0.032578 0.115436 0.003000
v 0.032879 -0.114281 0.000000
v 0.032879 -0.114281 0.003000
v 0.032879 0.114311 0.000000
v 0.032879 0.114311 0.003000
v 0.051520 -0.124783 0.000000
v 0.051520 -0.124783 0.003000
v 0.051520 0.124783 0.000000
v 0.051520 0.124783 0.003000
v 0.070395 -0.115193 0.000000
v 0.070395 -0.115193 0.003000
v 0.070395 0.115193 0.000000
v 0.070395 0.115193 0.003000
v 0.087539 -0.102771 0.000000
v 0.087539 -0.102771 0.003000
v 0.087539 0.102771 0.000000
v 0.087539 0.102771 0.003000
v 0.102531 -0.087821 0.000000
v 0.102531 -0.087821 0.003000
v 0.102531 0.087821 0.000000
v 0.102531 0.087821 0.003000
v 0.115000 -0.070711 0.000000
v 0.115000 -0.070711 0.003000
v 0.115000 0.070711 0.000000
v 0.115000 0.070711 0.003000
vn 0.8082 0.5890 -0.0000
vn 0.7061 0.7081 -0.0000
vn 0.5868 0.8098 -0.0000
vn 0.4529 0.8915 -0.0000
vn 0.3080 0.9514 -0.0000
vn 0.1554 0.9878 -0.0000
vn -0.0009 1.0000 -0.0000
vn -0.1572 0.9876 -0.0000
vn -0.3097 0.9508 -0.0000
vn -0.4546 0.8907 -0.0000
vn -0.5882 0.8087 -0.0000
vn -0.7074 0.7068 -0.0000
vn -0.8092 0.5875 -0.0000
vn -0.8911 0.4537 -0.0000
vn -0.9511 0.3088 -0.0000
vn -0.9877 0.1563 -0.0000
vn -1.0000 -0.0000 -0.0000
vn -0.9877 -0.1563 -0.0000
vn -0.9511 -0.3088 -0.0000
vn -0.8911 -0.4537 -0.0000
vn -0.8092 -0.5875 -0.0000
vn -0.7074 -0.7068 -0.0000
vn -0.5882 -0.8087 -0.0000
vn -0.4546 -0.8907 -0.0000
vn -0.3097 -0.9508 -0.0000
vn -0.1572 -0.9876 -0.0000
vn -0.0009 -1.0000 -0.0000
vn 0.1554 -0.9878 -0.0000
vn 0.3080 -0.9514 -0.0000
vn 0.4529 -0.8915 -0.0000
vn 0.5868 -0.8098 -0.0000
vn 0.7061 -0.7081 -0.0000
vn 0.8082 -0.5890 -0.0000
vn -0.0000 -0.0000 1.0000
vn -0.0000 -0.0000 -1.0000
vn -0.9659 -0.2588 -0.0000
vn -0.7071 -0.7071 -0.0000
vn -0.2588 -0.9659 -0.0000
vn 0.2588 -0.9659 -0.0000
vn 0.7071 -0.7071 -0.0000
vn 0.9659 -0.2588 -0.0000
vn 0.9659 0.2588 -0.0000
vn 0.7071 0.7071 -0.0000
vn 0.2588 0.9659 -0.0000
vn -0.2588 0.9659 -0.0000
vn -0.7071 0.7071 -0.0000
vn -0.9659 0.2588 -0.0000
vn 0.2589 0.9659 -0.0000
vn -0.2589 0.9659 -0.0000
vn 1.0000 -0.0000 -0.0000
s 0
f 159//1 164//1 163//1
f 160//1 164//1 159//1
f 155//2 160//2 159//2
f 156//2 160//2 155//2
f 151//3 156//3 155//3
f 152//3 156//3 151//3
f 147//4 152//4 151//4
f 148//4 152//4 147//4
f 123//5 148//5 147//5
f 124//5 148//5 123//5
f 91//6 124//6 123//6
f 92//6 124//6 91//6
f 87//7 92//7 91//7
f 88//7 92//7 87//7
f 83//8 88//8 87//8
f 84//8 88//8 83//8
f 79//9 84//9 83//9
f 80//9 84//9 79//9
f 75//10 80//10 79//10
f 76//10 80//10 75//10
f 23//11 76//11 75//11
f 24//11 76//11 23//11
f 19//12 24//12 23//12
f 20//12 24//12 19//12
f 15//13 20//13 19//13
f 16//13 20//13 15//13
f 11//14 16//14 15//14
f 12//14 16//14 11//14
f 7//15 12//15 11//15
f 8//15 12//15 7//15
f 3//16 8//16 7//16
f 4//16 8//16 3//16
f 1//17 4//17 3//17
f 2//17 4//17 1//17
f 5//18 2//18 1//18
f 6//18 2//18 5//18
f 9//19 6//19 5//19
f 10//19 6//19 9//19
f 13//20 10//20 9//20
f 14//20 10//20 13//20
f 17//21 14//21 13//21
f 18//21 14//21 17//21
f 21//22 18//22 17//22
f 22//22 18//22 21//22
f 73//23 22//23 21//23
f 74//23 22//23 73//23
f 77//24 74//24 73//24
f 78//24 74//24 77//24
f 81//25 78//25 77//25
f 82//25 78//25 81//25
f 85//26 82//26 81//26
f 86//26 82//26 85//26
f 89//27 86//27 85//27
f 90//27 86//27 89//27
f 121//28 90//28 89//28
f 122//28 90//28 121//28
f 145//29 122//29 121//29
f 146//29 122//29 145//29
f 149//30 146//30 145//30
f 150//30 146//30 149//30
f 153//31 150//31 149//31
f 154//31 150//31 153//31
f 157//32 154//32 153//32
f 158//32 154//32 157//32
f 161//33 158//33 157//33
f 162//33 158//33 161//33
f 58//34 40//34 48//34
f 164//34 160//34 56//34
f 64//34 164//34 56//34
f 134//34 122//34 146//34
f 156//34 138//34 160//34
f 58//34 48//34 56//34
f 160//34 58//34 56//34
f 66//34 58//34 160//34
f 72//34 66//34 160//34
f 128//34 136//34 158//34
f 116//34 128//34 158//34
f 58//34 50//34 26//34
f 32//34 58//34 26//34
f 40//34 58//34 32//34
f 142//34 134//34 146//34
f 150//34 142//34 146//34
f 136//34 142//34 150//34
f 154//34 136//34 150//34
f 158//34 136//34 154//34
f 44//34 24//34 36//34
f 70//34 108//34 116//34
f 158//34 70//34 116//34
f 64//34 70//34 158//34
f 162//34 64//34 158//34
f 164//34 64//34 162//34
f 74//34 78//34 54//34
f 46//34 74//34 54//34
f 22//34 74//34 46//34
f 76//34 24//34 44//34
f 96//34 80//34 76//34
f 70//34 62//34 94//34
f 100//34 70//34 94//34
f 108//34 70//34 100//34
f 122//34 134//34 126//34
f 114//34 122//34 126//34
f 90//34 122//34 114//34
f 106//34 90//34 114//34
f 86//34 90//34 106//34
f 98//34 86//34 106//34
f 82//34 86//34 98//34
f 94//34 82//34 98//34
f 78//34 82//34 94//34
f 62//34 78//34 94//34
f 54//34 78//34 62//34
f 144//34 138//34 156//34
f 152//34 144//34 156//34
f 140//34 144//34 152//34
f 148//34 140//34 152//34
f 132//34 140//34 148//34
f 124//34 132//34 148//34
f 120//34 132//34 124//34
f 160//34 138//34 130//34
f 118//34 160//34 130//34
f 72//34 160//34 118//34
f 28//34 36//34 24//34
f 20//34 28//34 24//34
f 34//34 28//34 20//34
f 16//34 34//34 20//34
f 42//34 34//34 16//34
f 12//34 42//34 16//34
f 8//34 42//34 12//34
f 112//34 120//34 124//34
f 92//34 112//34 124//34
f 104//34 112//34 92//34
f 88//34 104//34 92//34
f 96//34 104//34 88//34
f 84//34 96//34 88//34
f 80//34 96//34 84//34
f 42//34 8//34 4//34
f 2//34 42//34 4//34
f 50//34 42//34 2//34
f 6//34 50//34 2//34
f 72//34 118//34 110//34
f 102//34 72//34 110//34
f 68//34 72//34 102//34
f 96//34 68//34 102//34
f 60//34 68//34 96//34
f 76//34 60//34 96//34
f 52//34 60//34 76//34
f 44//34 52//34 76//34
f 22//34 46//34 38//34
f 30//34 22//34 38//34
f 18//34 22//34 30//34
f 26//34 18//34 30//34
f 14//34 18//34 26//34
f 50//34 14//34 26//34
f 10//34 14//34 50//34
f 6//34 10//34 50//34
f 93//35 45//35 99//35
f 107//35 99//35 45//35
f 37//35 21//35 29//35
f 73//35 21//35 37//35
f 115//35 107//35 45//35
f 53//35 115//35 45//35
f 61//35 115//35 53//35
f 73//35 37//35 45//35
f 93//35 73//35 45//35
f 77//35 73//35 93//35
f 81//35 77//35 93//35
f 49//35 3//35 41//35
f 51//35 23//35 75//35
f 85//35 81//35 93//35
f 97//35 85//35 93//35
f 89//35 85//35 97//35
f 105//35 89//35 97//35
f 121//35 89//35 105//35
f 161//35 157//35 57//35
f 65//35 161//35 57//35
f 71//35 161//35 65//35
f 91//35 123//35 119//35
f 111//35 91//35 119//35
f 87//35 91//35 111//35
f 103//35 87//35 111//35
f 83//35 87//35 103//35
f 95//35 83//35 103//35
f 79//35 83//35 95//35
f 75//35 79//35 95//35
f 57//35 157//35 153//35
f 149//35 57//35 153//35
f 145//35 57//35 149//35
f 121//35 105//35 113//35
f 125//35 121//35 113//35
f 145//35 121//35 125//35
f 133//35 145//35 125//35
f 95//35 101//35 71//35
f 67//35 95//35 71//35
f 75//35 95//35 67//35
f 59//35 75//35 67//35
f 51//35 75//35 59//35
f 151//35 155//35 137//35
f 143//35 151//35 137//35
f 147//35 151//35 143//35
f 139//35 147//35 143//35
f 123//35 147//35 139//35
f 131//35 123//35 139//35
f 119//35 123//35 131//35
f 71//35 101//35 109//35
f 117//35 71//35 109//35
f 161//35 71//35 117//35
f 129//35 161//35 117//35
f 163//35 161//35 129//35
f 137//35 163//35 129//35
f 159//35 163//35 137//35
f 155//35 159//35 137//35
f 135//35 127//35 57//35
f 145//35 135//35 57//35
f 141//35 135//35 145//35
f 133//35 141//35 145//35
f 115//35 61//35 69//35
f 63//35 115//35 69//35
f 55//35 115//35 63//35
f 23//35 51//35 43//35
f 35//35 23//35 43//35
f 19//35 23//35 35//35
f 27//35 19//35 35//35
f 15//35 19//35 27//35
f 33//35 15//35 27//35
f 11//35 15//35 33//35
f 41//35 11//35 33//35
f 7//35 11//35 41//35
f 3//35 7//35 41//35
f 25//35 29//35 21//35
f 17//35 25//35 21//35
f 31//35 25//35 17//35
f 13//35 31//35 17//35
f 39//35 31//35 13//35
f 9//35 39//35 13//35
f 5//35 39//35 9//35
f 39//35 5//35 1//35
f 3//35 39//35 1//35
f 47//35 39//35 3//35
f 49//35 47//35 3//35
f 55//35 47//35 49//35
f 57//35 55//35 49//35
f 115//35 55//35 57//35
f 127//35 115//35 57//35
f 67//36 71//36 72//36
f 68//36 67//36 72//36
f 59//37 67//37 68//37
f 60//37 59//37 68//37
f 51//38 59//38 60//38
f 52//38 51//38 60//38
f 43//39 51//39 52//39
f 44//39 43//39 52//39
f 35//40 43//40 44//40
f 36//40 35//40 44//40
f 27//41 35//41 36//41
f 28//41 27//41 36//41
f 33//42 27//42 28//42
f 34//42 33//42 28//42
f 41//43 33//43 34//43
f 42//43 41//43 34//43
f 49//44 41//44 42//44
f 50//44 49//44 42//44
f 57//45 49//45 50//45
f 58//45 57//45 50//45
f 65//46 57//46 58//46
f 66//46 65//46 58//46
f 71//47 65//47 66//47
f 72//47 71//47 66//47
f 139//36 143//36 144//36
f 140//36 139//36 144//36
f 131//37 139//37 140//37
f 132//37 131//37 140//37
f 119//38 131//38 132//38
f 120//38 119//38 132//38
f 111//39 119//39 120//39
f 112//39 111//39 120//39
f 103//40 111//40 112//40
f 104//40 103//40 112//40
f 95//41 103//41 104//41
f 96//41 95//41 104//41
f 101//42 95//42 96//42
f 102//42 101//42 96//42
f 109//43 101//43 102//43
f 110//43 109//43 102//43
f 117//48 109//48 110//48
f 118//48 117//48 110//48
f 129//49 117//49 118//49
f 130//49 129//49 118//49
f 137//46 129//46 130//46
f 138//46 137//46 130//46
f 143//47 137//47 138//47
f 144//47 143//47 138//47
f 135//36 141//36 142//36
f 136//36 135//36 142//36
f 127//37 135//37 136//37
f 128//37 127//37 136//37
f 115//38 127//38 128//38
f 116//38 115//38 128//38
f 107//39 115//39 116//39
f 108//39 107//39 116//39
f 99//40 107//40 108//40
f 100//40 99//40 108//40
f 93//41 99//41 100//41
f 94//41 93//41 100//41
f 97//42 93//42 94//42
f 98//42 97//42 94//42
f 105//43 97//43 98//43
f 106//43 105//43 98//43
f 113//48 105//48 106//48
f 114//48 113//48 106//48
f 125//49 113//49 114//49
f 126//49 125//49 114//49
f 133//46 125//46 126//46
f 134//46 133//46 126//46
f 141//47 133//47 134//47
f 142//47 141//47 134//47
f 63//36 69//36 70//36
f 64//36 63//36 70//36
f 55//37 63//37 64//37
f 56//37 55//37 64//37
f 47//38 55//38 56//38
f 48//38 47//38 56//38
f 39//39 47//39 48//39
f 40//39 39//39 48//39
f 31//40 39//40 40//40
f 32//40 31//40 40//40
f 25//41 31//41 32//41
f 26//41 25//41 32//41
f 29//42 25//42 26//42
f 30//42 29//42 26//42
f 37//43 29//43 30//43
f 38//43 37//43 30//43
f 45//44 37//44 38//44
f 46//44 45//44 38//44
f 53//45 45//45 46//45
f 54//45 53//45 46//45
f 61//46 53//46 54//46
f 62//46 61//46 54//46
f 69//47 61//47 62//47
f 70//47 69//47 62//47
f 162//50 161//50 163//50
f 164//50 162//50 163//50
