# Blender 4.0.2
# www.blender.org
o MP-400-BODY__m3
v 47.294552 -183.641098 380.000000
v 50.279701 -183.641098 380.000000
v 47.294552 -171.358902 380.000000
v 50.279701 -171.358902 380.000000
v -6.750002 -173.363907 380.000000
v -0.051982 -173.363907 380.000000
v -6.750002 -176.259903 380.000000
v -0.051982 -176.259903 380.000000
v 0.608909 -176.209793 380.000000
v 1.017325 -176.059402 380.000000
v 1.228959 -175.790207 380.000000
v 1.299503 -175.383698 380.000000
v 1.299503 -174.225204 380.000000
v 1.230815 -173.820602 380.000000
v 1.024751 -173.556900 380.000000
v 0.618191 -173.412094 380.000000
v -6.750002 -178.294601 380.000000
v -0.051982 -178.294601 380.000000
v -6.750002 -181.428207 380.000000
v -0.051982 -181.428207 380.000000
v 0.670172 -181.368805 380.000000
v 1.113860 -181.190598 380.000000
v 1.342201 -180.856400 380.000000
v 1.418315 -180.329193 380.000000
v 1.418315 -179.393600 380.000000
v 1.342201 -178.875595 380.000000
v 1.113860 -178.539597 380.000000
v 0.670172 -178.355804 380.000000
v 1.329206 -171.358902 380.000000
v -9.705449 -171.358902 380.000000
v 2.146038 -177.314407 380.000000
v 2.658414 -171.500000 380.000000
v 3.038983 -177.035904 380.000000
v 3.556929 -171.923294 380.000000
v 3.698018 -176.586594 380.000000
v 4.069305 -172.662094 380.000000
v 4.104578 -175.977707 380.000000
v 4.240097 -173.750000 380.000000
v 4.240097 -175.220306 380.000000
v 2.186880 -183.490707 380.000000
v 0.512375 -183.641098 380.000000
v -9.705449 -183.641098 380.000000
v 3.068686 -177.592804 380.000000
v 3.378711 -183.039597 380.000000
v 3.757424 -178.101501 380.000000
v 4.091583 -182.287704 380.000000
v 4.186261 -178.803207 380.000000
v 4.329206 -179.660904 380.000000
v 4.329206 -181.235107 380.000000
v -17.873760 -181.279694 380.000000
v -27.764851 -181.279694 380.000000
v -17.873760 -173.616302 380.000000
v -27.764851 -173.616302 380.000000
v -18.066830 -183.641098 380.000000
v -16.498140 -183.488907 380.000000
v -16.479580 -171.511093 380.000000
v -15.534650 -183.032196 380.000000
v -15.519800 -171.967804 380.000000
v -14.873760 -174.254898 380.000000
v -15.035270 -172.844101 380.000000
v -29.149750 -171.511093 380.000000
v -29.149750 -183.488907 380.000000
v -27.571779 -183.641098 380.000000
v -27.571779 -171.358902 380.000000
v -18.066830 -171.358902 380.000000
v -30.111389 -183.032196 380.000000
v -30.111389 -171.967804 380.000000
v -30.764860 -180.730194 380.000000
v -30.764860 -174.254898 380.000000
v -30.601490 -172.844101 380.000000
v -30.601490 -182.152206 380.000000
v -15.038990 -182.152206 380.000000
v -14.873760 -180.730194 380.000000
v -66.750000 -171.358902 380.000000
v -68.814362 -171.358902 380.000000
v -66.096542 -175.354004 380.000000
v -68.814362 -183.641098 380.000000
v -66.096542 -183.641098 380.000000
v -56.324261 -179.512405 380.000000
v -55.700500 -183.641098 380.000000
v -53.621288 -183.641098 380.000000
v -53.621288 -171.358902 380.000000
v -56.324261 -171.358902 380.000000
v -48.126240 -183.641098 380.000000
v -45.111389 -178.324295 380.000000
v -48.126240 -171.358902 380.000000
v -45.111389 -176.215302 380.000000
v -45.111389 -173.527206 380.000000
v -45.111389 -181.339096 380.000000
v -34.804451 -183.641098 380.000000
v -34.804451 -181.339096 380.000000
v -39.200500 -178.324295 380.000000
v -39.200500 -176.215302 380.000000
v -34.967819 -173.527206 380.000000
v -34.967819 -171.358902 380.000000
v 21.987619 -181.279694 380.000000
v 12.096530 -181.279694 380.000000
v 21.987619 -173.616302 380.000000
v 12.096530 -173.616302 380.000000
v 21.794550 -183.641098 380.000000
v 23.363239 -183.488907 380.000000
v 23.381809 -171.511093 380.000000
v 24.326731 -183.032196 380.000000
v 24.341579 -171.967804 380.000000
v 24.987619 -174.254898 380.000000
v 24.826111 -172.844101 380.000000
v 10.711630 -171.511093 380.000000
v 10.711630 -183.488907 380.000000
v 12.289600 -183.641098 380.000000
v 12.289600 -171.358902 380.000000
v 21.794550 -171.358902 380.000000
v 9.750000 -183.032196 380.000000
v 9.750000 -171.967804 380.000000
v 9.096533 -180.730194 380.000000
v 9.096533 -174.254898 380.000000
v 9.259901 -172.844101 380.000000
v 9.259901 -182.152206 380.000000
v 24.822399 -182.152206 380.000000
v 24.987619 -180.730194 380.000000
v 34.492569 -183.641098 380.000000
v 37.492569 -183.641098 380.000000
v 34.492569 -173.556900 380.000000
v 37.492569 -173.556900 380.000000
v 28.566830 -171.358902 380.000000
v 43.433170 -171.358902 380.000000
v 43.433170 -173.556900 380.000000
v 28.566830 -173.556900 380.000000
v 54.497520 -183.641098 380.000000
v 58.032181 -183.641098 380.000000
v 60.556931 -177.344101 380.000000
v 62.368809 -179.052002 380.000000
v 62.517319 -175.324203 380.000000
v 64.269798 -176.987595 380.000000
v 66.408417 -171.358902 380.000000
v 69.868820 -171.358902 380.000000
v 67.076729 -183.641098 380.000000
v 71.175751 -183.641098 380.000000
v 58.388611 -171.358902 380.000000
v 54.378712 -171.358902 380.000000
vn -0.0000 -0.0000 1.0000
vn -0.0002 -0.0000 1.0000
vn -0.0005 -0.0000 1.0000
vn 0.0001 -0.0000 1.0000
vn -0.0001 -0.0000 1.0000
s 0
f 1//1 2//1 3//1
f 3//1 2//1 4//1
f 6//1 29//1 5//1
f 5//1 29//1 30//1
f 5//1 30//1 7//1
f 7//1 30//1 17//1
f 7//1 17//1 18//1
f 6//1 16//1 29//1
f 29//1 16//1 15//1
f 29//1 15//1 14//1
f 14//1 13//1 29//1
f 29//1 13//1 31//1
f 29//1 31//1 32//1
f 32//1 31//1 33//1
f 32//1 33//1 34//1
f 34//1 33//1 35//1
f 34//1 35//1 36//1
f 36//1 35//1 37//1
f 36//1 37//1 38//1
f 38//1 37//1 39//1
f 13//1 12//1 31//1
f 31//1 12//1 25//1
f 31//2 25//2 24//2
f 25//1 12//1 26//1
f 26//3 12//3 11//3
f 26//1 11//1 27//1
f 27//1 11//1 10//1
f 27//1 10//1 28//1
f 28//1 10//1 9//1
f 28//1 9//1 18//1
f 18//1 9//1 8//1
f 18//1 8//1 7//1
f 31//1 24//1 40//1
f 40//2 24//2 23//2
f 40//1 23//1 22//1
f 40//1 22//1 41//1
f 41//1 22//1 21//1
f 41//1 21//1 20//1
f 20//1 19//1 41//1
f 41//1 19//1 42//1
f 42//1 19//1 17//1
f 42//1 17//1 30//1
f 31//1 40//1 43//1
f 43//1 40//1 44//1
f 43//4 44//4 45//4
f 45//1 44//1 46//1
f 45//1 46//1 47//1
f 47//1 46//1 48//1
f 48//1 46//1 49//1
f 51//1 54//1 50//1
f 50//1 54//1 55//1
f 50//1 55//1 56//1
f 56//1 55//1 57//1
f 56//1 57//1 58//1
f 58//5 57//5 59//5
f 58//1 59//1 60//1
f 53//1 61//1 51//1
f 51//1 61//1 62//1
f 51//1 62//1 63//1
f 61//1 53//1 64//1
f 64//1 53//1 52//1
f 64//1 52//1 65//1
f 65//1 52//1 56//1
f 56//1 52//1 50//1
f 62//1 61//1 66//1
f 66//1 61//1 67//1
f 66//4 67//4 68//4
f 68//1 67//1 69//1
f 69//1 67//1 70//1
f 68//1 71//1 66//1
f 63//1 54//1 51//1
f 72//1 73//1 57//1
f 57//1 73//1 59//1
f 74//1 75//1 76//1
f 76//1 75//1 77//1
f 76//1 77//1 78//1
f 74//1 76//1 79//1
f 79//1 76//1 80//1
f 79//1 80//1 81//1
f 81//1 82//1 79//1
f 79//1 82//1 83//1
f 84//1 85//1 86//1
f 86//1 85//1 87//1
f 86//1 87//1 88//1
f 85//1 84//1 89//1
f 89//1 84//1 90//1
f 89//1 90//1 91//1
f 85//1 92//1 87//1
f 87//1 92//1 93//1
f 94//1 95//1 88//1
f 88//1 95//1 86//1
f 97//1 100//1 96//1
f 96//1 100//1 101//1
f 96//1 101//1 102//1
f 102//1 101//1 103//1
f 102//1 103//1 104//1
f 104//5 103//5 105//5
f 104//1 105//1 106//1
f 99//1 107//1 97//1
f 97//1 107//1 108//1
f 97//1 108//1 109//1
f 107//1 99//1 110//1
f 110//1 99//1 98//1
f 110//1 98//1 111//1
f 111//1 98//1 102//1
f 102//1 98//1 96//1
f 108//1 107//1 112//1
f 112//1 107//1 113//1
f 112//4 113//4 114//4
f 114//1 113//1 115//1
f 115//1 113//1 116//1
f 114//1 117//1 112//1
f 109//1 100//1 97//1
f 118//1 119//1 103//1
f 103//1 119//1 105//1
f 120//1 121//1 122//1
f 122//1 121//1 123//1
f 122//1 123//1 124//1
f 124//1 123//1 125//1
f 125//1 123//1 126//1
f 124//1 127//1 122//1
f 128//1 129//1 130//1
f 130//1 129//1 131//1
f 130//1 131//1 132//1
f 132//1 131//1 133//1
f 132//1 133//1 134//1
f 134//1 133//1 135//1
f 131//1 136//1 133//1
f 133//1 136//1 137//1
f 132//1 138//1 130//1
f 130//1 138//1 139//1
