# Blender 4.0.2
# www.blender.org
o MP-400-FIXED-WHEEL-LEFT__m1
v -11.082130 74.575111 -7.972000
v -12.582110 74.360260 -5.951874
v -11.082130 75.000000 0.000015
v -12.582110 74.571640 1.985855
v -11.082130 74.575111 7.972031
v -12.582110 73.938103 9.901085
v -11.082130 73.305252 15.853710
v -12.582110 72.466812 17.704130
v -11.082130 71.204819 23.555771
v -12.582110 70.174431 25.306580
v -11.082130 68.297607 30.990931
v -12.582110 67.086952 32.622292
v -11.082130 64.616562 38.074940
v -12.582110 63.239349 39.568390
v -11.082130 60.203369 44.727570
v -12.582110 58.675228 46.066170
v -11.082130 55.108059 50.873402
v -12.582110 53.446289 52.041981
v -11.082130 49.388351 56.442822
v -12.582110 47.611790 57.428150
v -11.082130 43.109051 61.372730
v -12.582110 41.237820 62.163631
v -11.082130 36.341309 65.607262
v -12.582110 34.396610 66.194771
v -11.082130 29.161810 69.098412
v -12.582110 27.165680 69.475906
v -11.082130 21.651899 71.806671
v -12.582110 19.626949 71.969841
v -11.082130 13.896650 73.701332
v -12.582110 11.865830 73.648331
v -11.082130 5.983958 74.760933
v -12.582110 3.993068 74.491150
v -11.082130 -1.996539 74.973442
v -12.582110 -3.993067 74.491150
v -11.082130 -9.954415 74.336472
v -12.582110 -11.865830 73.648331
v -11.082130 -17.799500 72.857262
v -12.582110 -19.626949 71.969841
v -11.082130 -25.442921 70.552544
v -12.582110 -27.165680 69.475906
v -11.082130 -32.798050 67.448433
v -12.582110 -34.396610 66.194771
v -11.082130 -39.781570 63.580090
v -12.582110 -41.237820 62.163631
v -11.082130 -46.314339 58.991379
v -12.582110 -47.611790 57.428150
v -11.082130 -52.322361 53.734268
v -12.582110 -53.446289 52.041981
v -11.082130 -57.737549 47.868320
v -12.582110 -58.675228 46.066170
v -11.082130 -62.498550 41.460018
v -12.582110 -63.239349 39.568390
v -11.082130 -66.551407 34.581951
v -12.582110 -67.086952 32.622292
v -11.082130 -69.850212 27.312059
v -12.582110 -70.174431 25.306580
v -11.082130 -72.357590 19.732710
v -12.582110 -72.466812 17.704130
v -11.082130 -74.045128 11.929780
v -12.582110 -73.938103 9.901085
v -11.082130 -74.893700 3.991676
v -12.582110 -74.571640 1.985855
v -11.082130 -74.893700 -3.991646
v -12.582110 -74.360260 -5.951874
v -11.082130 -74.045128 -11.929740
v -12.582110 -73.306351 -13.822170
v -11.082130 -72.357590 -19.732679
v -12.582110 -71.421852 -21.535851
v -11.082130 -69.850212 -27.312031
v -12.582110 -68.728104 -29.005520
v -11.082130 -66.551407 -34.581921
v -12.582110 -65.255653 -36.146542
v -11.082130 -62.498550 -41.459991
v -12.582110 -61.043812 -42.878021
v -11.082130 -57.737549 -47.868301
v -12.582110 -56.140331 -49.123669
v -11.082130 -52.322361 -53.734241
v -12.582110 -50.600761 -54.812721
v -11.082130 -46.314339 -58.991348
v -12.582110 -44.487862 -59.880730
v -11.082130 -39.781570 -63.580070
v -12.582110 -37.870892 -64.270271
v -11.082130 -32.798050 -67.448402
v -12.582110 -30.824841 -67.931587
v -11.082130 -25.442921 -70.552513
v -12.582110 -23.429520 -70.823219
v -11.082130 -17.799500 -72.857231
v -12.582110 -15.768740 -72.912399
v -11.082130 -9.954415 -74.336449
v -12.582110 -7.929289 -74.175453
v -11.082130 -1.996539 -74.973412
v -12.582110 0.000000 -74.598061
v -11.082130 5.983958 -74.760887
v -12.582110 7.929289 -74.175453
v -11.082130 13.896650 -73.701302
v -12.582110 15.768740 -72.912399
v -11.082130 21.651899 -71.806641
v -12.582110 23.429520 -70.823219
v -11.082130 29.161810 -69.098381
v -12.582110 30.824841 -67.931587
v -11.082130 36.341309 -65.607224
v -12.582110 37.870892 -64.270271
v -11.082130 43.109051 -61.372688
v -12.582110 44.487862 -59.880730
v -11.082130 49.388351 -56.442791
v -12.582110 50.600761 -54.812721
v -11.082130 55.108059 -50.873371
v -12.582110 56.140331 -49.123669
v -11.082130 60.203369 -44.727539
v -12.582110 61.043812 -42.878021
v -11.082130 64.616562 -38.074921
v -12.582110 65.255653 -36.146542
v -11.082130 68.297607 -30.990900
v -12.582110 68.728104 -29.005520
v -11.082130 71.204819 -23.555740
v -12.582110 71.421852 -21.535851
v -11.082130 73.305252 -15.853680
v -12.582110 73.306351 -13.822170
v -14.082110 71.577942 7.784584
v -13.680190 73.473961 1.956627
v -14.082110 72.000000 0.000015
v -13.680190 73.265678 -5.864265
v -14.082110 71.577942 -7.784554
v -13.680190 72.227280 -13.618710
v -14.082110 70.316681 -15.477860
v -13.680190 70.370522 -21.218840
v -14.082110 68.231041 -22.989700
v -13.680190 67.716431 -28.578560
v -14.082110 65.345428 -30.232000
v -13.680190 64.295090 -35.614471
v -14.082110 61.693710 -37.119862
v -13.680190 60.145248 -42.246861
v -14.082110 57.318699 -43.572521
v -13.680190 55.313950 -48.400570
v -14.082110 52.271671 -49.514339
v -13.680190 49.855919 -54.005878
v -14.082110 46.611809 -54.875648
v -13.680190 43.833000 -58.999290
v -14.082110 40.405472 -59.593590
v -13.680190 37.313438 -63.324211
v -14.082110 33.725410 -63.612850
v -13.680190 30.371099 -66.931641
v -14.082110 26.649950 -66.886307
v -13.680190 23.084641 -69.780708
v -14.082110 19.262039 -69.375587
v -13.680190 15.536620 -71.839142
v -14.082110 11.648300 -71.051498
v -13.680190 7.812571 -73.083603
v -14.082110 3.898001 -71.894402
v -13.680190 0.000000 -73.499992
v -14.082110 -3.898000 -71.894402
v -13.680190 -7.812571 -73.083603
v -14.082110 -11.648300 -71.051498
v -13.680190 -15.536620 -71.839142
v -14.082110 -19.262039 -69.375587
v -13.680190 -23.084641 -69.780708
v -14.082110 -26.649950 -66.886307
v -13.680190 -30.371099 -66.931641
v -14.082110 -33.725410 -63.612850
v -13.680190 -37.313438 -63.324211
v -14.082110 -40.405472 -59.593590
v -13.680190 -43.833000 -58.999290
v -14.082110 -46.611809 -54.875648
v -13.680190 -49.855919 -54.005878
v -14.082110 -52.271671 -49.514339
v -13.680190 -55.313950 -48.400570
v -14.082110 -57.318699 -43.572521
v -13.680190 -60.145248 -42.246861
v -14.082110 -61.693710 -37.119862
v -13.680190 -64.295090 -35.614471
v -14.082110 -65.345428 -30.232000
v -13.680190 -67.716431 -28.578560
v -14.082110 -68.231041 -22.989700
v -13.680190 -70.370522 -21.218840
v -14.082110 -70.316681 -15.477860
v -13.680190 -72.227280 -13.618710
v -14.082110 -71.577942 -7.784554
v -13.680190 -73.265678 -5.864265
v -14.082110 -72.000000 0.000015
v -13.680190 -73.473961 1.956627
v -14.082110 -71.577942 7.784584
v -13.680190 -72.849731 9.755341
v -14.082110 -70.316681 15.477880
v -13.680190 -71.400101 17.443529
v -14.082110 -68.231041 22.989731
v -13.680190 -69.141472 24.934071
v -14.082110 -65.345428 30.232031
v -13.680190 -66.099442 32.142101
v -14.082110 -61.693710 37.119888
v -13.680190 -62.308479 38.985950
v -14.082110 -57.318699 43.572552
v -13.680190 -57.811539 45.388081
v -14.082110 -52.271671 49.514370
v -13.680190 -52.659569 51.275940
v -14.082110 -46.611809 54.875690
v -13.680190 -46.910950 56.582809
v -14.082110 -40.405472 59.593632
v -13.680190 -40.630798 61.248581
v -14.082110 -33.725410 63.612881
v -13.680190 -33.890301 65.220390
v -14.082110 -26.649950 66.886337
v -13.680190 -26.765800 68.453217
v -14.082110 -19.262039 69.375610
v -13.680190 -19.338039 70.910454
v -14.082110 -11.648300 71.051529
v -13.680190 -11.691170 72.564240
v -14.082110 -3.898000 71.894432
v -13.680190 -3.956749 73.393440
v -13.680190 3.956750 73.393440
v -13.680190 72.849731 9.755341
v -14.082110 70.316681 15.477880
v -13.680190 71.400101 17.443529
v -14.082110 68.231041 22.989731
v -13.680190 69.141472 24.934071
v -14.082110 65.345428 30.232031
v -13.680190 66.099442 32.142101
v -14.082110 61.693710 37.119888
v -13.680190 62.308479 38.985950
v -14.082110 57.318699 43.572552
v -13.680190 57.811539 45.388081
v -14.082110 52.271671 49.514370
v -13.680190 52.659569 51.275940
v -14.082110 46.611809 54.875690
v -13.680190 46.910950 56.582809
v -14.082110 40.405472 59.593632
v -13.680190 40.630798 61.248581
v -14.082110 33.725410 63.612881
v -13.680190 33.890301 65.220390
v -14.082110 26.649950 66.886337
v -13.680190 26.765800 68.453217
v -14.082110 19.262039 69.375610
v -13.680190 19.338039 70.910454
v -14.082110 11.648300 71.051529
v -13.680190 11.691170 72.564240
v -14.082110 3.898001 71.894432
v 12.917890 74.575111 -7.972000
v 12.917890 75.000000 0.000015
v 12.917890 74.575111 7.972031
v 12.917890 73.305252 15.853710
v 12.917890 71.204819 23.555771
v 12.917890 68.297607 30.990931
v 12.917890 64.616562 38.074940
v 12.917890 60.203369 44.727570
v 12.917890 55.108059 50.873402
v 12.917890 49.388351 56.442822
v 12.917890 43.109051 61.372730
v 12.917890 36.341309 65.607262
v 12.917890 29.161810 69.098412
v 12.917890 21.651899 71.806671
v 12.917890 13.896650 73.701332
v 12.917890 5.983958 74.760933
v 12.917890 -1.996539 74.973442
v 12.917890 -9.954415 74.336472
v 12.917890 -17.799500 72.857262
v 12.917890 -25.442921 70.552544
v 12.917890 -32.798050 67.448433
v 12.917890 -39.781570 63.580090
v 12.917890 -46.314339 58.991379
v 12.917890 -52.322361 53.734268
v 12.917890 -57.737549 47.868320
v 12.917890 -62.498550 41.460018
v 12.917890 -66.551407 34.581951
v 12.917890 -69.850212 27.312059
v 12.917890 -72.357590 19.732710
v 12.917890 -74.045128 11.929780
v 12.917890 -74.893700 3.991676
v 12.917890 -74.893700 -3.991646
v 12.917890 -74.045128 -11.929740
v 12.917890 -72.357590 -19.732679
v 12.917890 -69.850212 -27.312031
v 12.917890 -66.551407 -34.581921
v 12.917890 -62.498550 -41.459991
v 12.917890 -57.737549 -47.868301
v 12.917890 -52.322361 -53.734241
v 12.917890 -46.314339 -58.991348
v 12.917890 -39.781570 -63.580070
v 12.917890 -32.798050 -67.448402
v 12.917890 -25.442921 -70.552513
v 12.917890 -17.799500 -72.857231
v 12.917890 -9.954415 -74.336449
v 12.917890 -1.996539 -74.973412
v 12.917890 5.983958 -74.760887
v 12.917890 13.896650 -73.701302
v 12.917890 21.651899 -71.806641
v 12.917890 29.161810 -69.098381
v 12.917890 36.341309 -65.607224
v 12.917890 43.109051 -61.372688
v 12.917890 49.388351 -56.442791
v 12.917890 55.108059 -50.873371
v 12.917890 60.203369 -44.727539
v 12.917890 64.616562 -38.074921
v 12.917890 68.297607 -30.990900
v 12.917890 71.204819 -23.555740
v 12.917890 73.305252 -15.853680
v -14.082110 6.758856 -54.583111
v -14.082110 0.000000 -54.999981
v -14.082110 -6.758856 -54.583111
v -14.082110 -13.415250 -53.338810
v -14.082110 -19.868290 -51.285961
v -14.082110 -26.020149 -48.455650
v -14.082110 13.415250 -53.338810
v -14.082110 19.868290 -51.285961
v -14.082110 26.020149 -48.455650
v -14.082110 31.777559 -44.890808
v -14.082110 37.053261 -40.645470
v -14.082110 41.767269 -35.783989
v -14.082110 45.848129 -30.380060
v -14.082110 49.233978 -24.515600
v -14.082110 51.873489 -18.279499
v -14.082110 53.726662 -11.766300
v -14.082110 54.765381 -5.074745
v -14.082110 54.973911 1.693748
v -14.082110 54.349098 8.436554
v -14.082110 52.900410 15.051480
v -14.082110 50.649799 21.438240
v -14.082110 47.631401 27.500019
v -14.082110 43.890949 33.144920
v -14.082110 39.485161 38.287380
v -14.082110 34.480808 42.849449
v -14.082110 28.953770 46.761951
v -14.082110 22.987820 49.965611
v -14.082110 16.673401 52.411831
v -14.082110 10.106220 54.063541
v -14.082110 3.385850 54.895699
v -14.082110 -3.385849 54.895699
v -14.082110 -10.106220 54.063541
v -14.082110 -16.673401 52.411831
v -14.082110 -22.987820 49.965611
v -14.082110 -28.953770 46.761951
v -14.082110 -34.480808 42.849449
v -14.082110 -39.485161 38.287380
v -14.082110 -43.890949 33.144920
v -14.082110 -47.631401 27.500019
v -14.082110 -50.649799 21.438240
v -14.082110 -52.900410 15.051480
v -14.082110 -54.349098 8.436554
v -14.082110 -54.973911 1.693748
v -14.082110 -54.765381 -5.074745
v -14.082110 -53.726662 -11.766300
v -14.082110 -51.873489 -18.279499
v -14.082110 -49.233978 -24.515600
v -14.082110 -45.848129 -30.380060
v -14.082110 -41.767269 -35.783989
v -14.082110 -37.053261 -40.645470
v -14.082110 -31.777559 -44.890808
v 15.917890 71.577942 -7.784554
v 15.515970 73.265678 -5.864265
v 15.917890 72.000000 0.000015
v 15.515970 73.473961 1.956627
v 15.917890 71.577942 7.784584
v 15.515970 72.849731 9.755341
v 15.917890 70.316681 15.477880
v 15.515970 71.400101 17.443529
v 15.917890 68.231041 22.989731
v 15.515970 69.141472 24.934071
v 15.917890 65.345428 30.232031
v 15.515970 66.099442 32.142101
v 15.917890 61.693710 37.119888
v 15.515970 62.308479 38.985950
v 15.917890 57.318699 43.572552
v 15.515970 57.811539 45.388081
v 15.917890 52.271671 49.514370
v 15.515970 52.659569 51.275940
v 15.917890 46.611809 54.875690
v 15.515970 46.910950 56.582809
v 15.917890 40.405472 59.593632
v 15.515970 40.630798 61.248581
v 15.917890 33.725410 63.612881
v 15.515970 33.890301 65.220390
v 15.917890 26.649950 66.886337
v 15.515970 26.765800 68.453217
v 15.917890 19.262039 69.375610
v 15.515970 19.338039 70.910454
v 15.917890 11.648300 71.051529
v 15.515970 11.691170 72.564240
v 15.917890 3.898001 71.894432
v 15.515970 3.956750 73.393440
v 15.917890 -3.898000 71.894432
v 15.515970 -3.956749 73.393440
v 15.515970 -11.691170 72.564240
v 14.417890 -11.865830 73.648331
v 15.515970 -19.338039 70.910454
v 14.417890 -19.626949 71.969841
v 15.515970 -26.765800 68.453217
v 14.417890 -27.165680 69.475906
v 15.515970 -33.890301 65.220390
v 14.417890 -34.396610 66.194771
v 15.515970 -40.630798 61.248581
v 14.417890 -41.237820 62.163631
v 15.515970 -46.910950 56.582809
v 14.417890 -47.611790 57.428150
v 15.515970 -52.659569 51.275940
v 14.417890 -53.446289 52.041981
v 15.515970 -57.811539 45.388081
v 14.417890 -58.675228 46.066170
v 15.515970 -62.308479 38.985950
v 14.417890 -63.239349 39.568390
v 15.515970 -66.099442 32.142101
v 14.417890 -67.086952 32.622292
v 15.515970 -69.141472 24.934071
v 14.417890 -70.174431 25.306580
v 15.515970 -71.400101 17.443529
v 14.417890 -72.466812 17.704130
v 15.515970 -72.849731 9.755341
v 14.417890 -73.938103 9.901085
v 15.515970 -73.473961 1.956627
v 14.417890 -74.571640 1.985855
v 15.515970 -73.265678 -5.864265
v 14.417890 -74.360260 -5.951874
v 15.515970 -72.227280 -13.618710
v 14.417890 -73.306351 -13.822170
v 15.515970 -70.370522 -21.218840
v 14.417890 -71.421852 -21.535851
v 15.515970 -67.716431 -28.578560
v 14.417890 -68.728104 -29.005520
v 15.515970 -64.295090 -35.614471
v 14.417890 -65.255653 -36.146542
v 15.515970 -60.145248 -42.246861
v 14.417890 -61.043812 -42.878021
v 15.515970 -55.313950 -48.400570
v 14.417890 -56.140331 -49.123669
v 15.515970 -49.855919 -54.005878
v 14.417890 -50.600761 -54.812721
v 15.515970 -43.833000 -58.999290
v 14.417890 -44.487862 -59.880730
v 15.515970 -37.313438 -63.324211
v 14.417890 -37.870892 -64.270271
v 15.515970 -30.371099 -66.931641
v 14.417890 -30.824841 -67.931587
v 15.515970 -23.084641 -69.780708
v 14.417890 -23.429520 -70.823219
v 15.515970 -15.536620 -71.839142
v 14.417890 -15.768740 -72.912399
v 15.515970 -7.812571 -73.083603
v 14.417890 -7.929289 -74.175453
v 15.515970 0.000000 -73.499992
v 14.417890 0.000000 -74.598061
v 15.515970 7.812571 -73.083603
v 14.417890 7.929289 -74.175453
v 15.515970 15.536620 -71.839142
v 14.417890 15.768740 -72.912399
v 15.515970 23.084641 -69.780708
v 14.417890 23.429520 -70.823219
v 15.515970 30.371099 -66.931641
v 14.417890 30.824841 -67.931587
v 15.515970 37.313438 -63.324211
v 14.417890 37.870892 -64.270271
v 15.515970 43.833000 -58.999290
v 14.417890 44.487862 -59.880730
v 15.515970 49.855919 -54.005878
v 14.417890 50.600761 -54.812721
v 15.515970 55.313950 -48.400570
v 14.417890 56.140331 -49.123669
v 15.515970 60.145248 -42.246861
v 14.417890 61.043812 -42.878021
v 15.515970 64.295090 -35.614471
v 14.417890 65.255653 -36.146542
v 15.515970 67.716431 -28.578560
v 14.417890 68.728104 -29.005520
v 15.515970 70.370522 -21.218840
v 14.417890 71.421852 -21.535851
v 15.515970 72.227280 -13.618710
v 14.417890 73.306351 -13.822170
v 14.417890 74.360260 -5.951874
v 14.417890 74.571640 1.985855
v 14.417890 73.938103 9.901085
v 14.417890 72.466812 17.704130
v 14.417890 70.174431 25.306580
v 14.417890 67.086952 32.622292
v 14.417890 63.239349 39.568390
v 14.417890 58.675228 46.066170
v 14.417890 53.446289 52.041981
v 14.417890 47.611790 57.428150
v 14.417890 41.237820 62.163631
v 14.417890 34.396610 66.194771
v 14.417890 27.165680 69.475906
v 14.417890 19.626949 71.969841
v 14.417890 11.865830 73.648331
v 14.417890 3.993068 74.491150
v 14.417890 -3.993067 74.491150
v 15.917890 70.316681 -15.477860
v 15.917890 68.231041 -22.989700
v 15.917890 65.345428 -30.232000
v 15.917890 61.693710 -37.119862
v 15.917890 57.318699 -43.572521
v 15.917890 52.271671 -49.514339
v 15.917890 46.611809 -54.875648
v 15.917890 40.405472 -59.593590
v 15.917890 33.725410 -63.612850
v 15.917890 26.649950 -66.886307
v 15.917890 19.262039 -69.375587
v 15.917890 11.648300 -71.051498
v 15.917890 3.898001 -71.894402
v 15.917890 -3.898000 -71.894402
v 15.917890 -11.648300 -71.051498
v 15.917890 -19.262039 -69.375587
v 15.917890 -26.649950 -66.886307
v 15.917890 -33.725410 -63.612850
v 15.917890 -40.405472 -59.593590
v 15.917890 -46.611809 -54.875648
v 15.917890 -52.271671 -49.514339
v 15.917890 -57.318699 -43.572521
v 15.917890 -61.693710 -37.119862
v 15.917890 -65.345428 -30.232000
v 15.917890 -68.231041 -22.989700
v 15.917890 -70.316681 -15.477860
v 15.917890 -71.577942 -7.784554
v 15.917890 -72.000000 0.000015
v 15.917890 -71.577942 7.784584
v 15.917890 -70.316681 15.477880
v 15.917890 -68.231041 22.989731
v 15.917890 -65.345428 30.232031
v 15.917890 -61.693710 37.119888
v 15.917890 -57.318699 43.572552
v 15.917890 -52.271671 49.514370
v 15.917890 -46.611809 54.875690
v 15.917890 -40.405472 59.593632
v 15.917890 -33.725410 63.612881
v 15.917890 -26.649950 66.886337
v 15.917890 -19.262039 69.375610
v 15.917890 -11.648300 71.051529
v 15.917890 -6.758856 -54.583111
v 15.917890 0.000000 -54.999981
v 15.917890 6.758856 -54.583111
v 15.917890 13.415250 -53.338810
v 15.917890 19.868290 -51.285961
v 15.917890 26.020149 -48.455650
v 15.917890 -13.415250 -53.338810
v 15.917890 -19.868290 -51.285961
v 15.917890 -26.020149 -48.455650
v 15.917890 -31.777559 -44.890808
v 15.917890 -37.053261 -40.645470
v 15.917890 -41.767269 -35.783989
v 15.917890 -45.848129 -30.380060
v 15.917890 -49.233978 -24.515600
v 15.917890 -51.873489 -18.279499
v 15.917890 -53.726662 -11.766300
v 15.917890 -54.765381 -5.074745
v 15.917890 -54.973911 1.693748
v 15.917890 -54.349098 8.436554
v 15.917890 -52.900410 15.051480
v 15.917890 -50.649799 21.438240
v 15.917890 -47.631401 27.500019
v 15.917890 -43.890949 33.144920
v 15.917890 -39.485161 38.287380
v 15.917890 -34.480808 42.849449
v 15.917890 -28.953770 46.761951
v 15.917890 -22.987820 49.965611
v 15.917890 -16.673401 52.411831
v 15.917890 -10.106220 54.063541
v 15.917890 -3.385849 54.895699
v 15.917890 3.385850 54.895699
v 15.917890 10.106220 54.063541
v 15.917890 16.673401 52.411831
v 15.917890 22.987820 49.965611
v 15.917890 28.953770 46.761951
v 15.917890 34.480808 42.849449
v 15.917890 39.485161 38.287380
v 15.917890 43.890949 33.144920
v 15.917890 47.631401 27.500019
v 15.917890 50.649799 21.438240
v 15.917890 52.900410 15.051480
v 15.917890 54.349098 8.436554
v 15.917890 54.973911 1.693748
v 15.917890 54.765381 -5.074745
v 15.917890 53.726662 -11.766300
v 15.917890 51.873489 -18.279499
v 15.917890 49.233978 -24.515600
v 15.917890 45.848129 -30.380060
v 15.917890 41.767269 -35.783989
v 15.917890 37.053261 -40.645470
v 15.917890 31.777559 -44.890808
vn -0.2099 0.9763 -0.0520
vn -0.3054 0.9519 -0.0253
vn -0.2099 0.9763 0.0520
vn -0.3054 0.9492 0.0760
vn -0.2099 0.9653 0.1555
vn -0.3054 0.9357 0.1764
vn -0.2099 0.9433 0.2572
vn -0.3054 0.9117 0.2749
vn -0.2099 0.9106 0.3560
vn -0.3054 0.8773 0.3703
vn -0.2099 0.8676 0.4508
vn -0.3054 0.8330 0.4614
vn -0.2099 0.8147 0.5405
vn -0.3054 0.7792 0.5473
vn -0.2099 0.7527 0.6240
vn -0.3054 0.7166 0.6271
vn -0.2099 0.6821 0.7005
vn -0.3054 0.6459 0.6997
vn -0.2099 0.6038 0.7690
vn -0.3054 0.5679 0.7644
vn -0.2099 0.5186 0.8288
vn -0.3054 0.4834 0.8204
vn -0.2099 0.4276 0.8793
vn -0.3054 0.3935 0.8671
vn -0.2099 0.3317 0.9197
vn -0.3054 0.2991 0.9040
vn -0.2099 0.2320 0.9498
vn -0.3054 0.2013 0.9307
vn -0.2099 0.1298 0.9691
vn -0.3049 0.1014 0.9470
vn -0.2103 0.0260 0.9773
vn -0.3061 -0.0000 0.9520
vn -0.2095 -0.0780 0.9747
vn -0.3052 -0.1014 0.9469
vn -0.2099 -0.1812 0.9608
vn -0.3054 -0.2013 0.9307
vn -0.2099 -0.2823 0.9361
vn -0.3054 -0.2991 0.9040
vn -0.2099 -0.3802 0.9008
vn -0.3054 -0.3935 0.8671
vn -0.2099 -0.4738 0.8553
vn -0.3054 -0.4834 0.8204
vn -0.2099 -0.5620 0.8001
vn -0.3054 -0.5679 0.7644
vn -0.2099 -0.6438 0.7358
vn -0.3054 -0.6459 0.6997
vn -0.2099 -0.7184 0.6632
vn -0.3054 -0.7166 0.6271
vn -0.2099 -0.7848 0.5831
vn -0.3054 -0.7792 0.5473
vn -0.2099 -0.8424 0.4964
vn -0.3054 -0.8330 0.4614
vn -0.2099 -0.8903 0.4040
vn -0.3054 -0.8773 0.3702
vn -0.2099 -0.9282 0.3071
vn -0.3054 -0.9117 0.2749
vn -0.2099 -0.9556 0.2067
vn -0.3054 -0.9357 0.1764
vn -0.2099 -0.9722 0.1039
vn -0.3054 -0.9492 0.0760
vn -0.2099 -0.9777 -0.0000
vn -0.3054 -0.9519 -0.0253
vn -0.2099 -0.9722 -0.1039
vn -0.3054 -0.9438 -0.1264
vn -0.2099 -0.9556 -0.2067
vn -0.3054 -0.9250 -0.2260
vn -0.2099 -0.9282 -0.3071
vn -0.3054 -0.8958 -0.3230
vn -0.2099 -0.8903 -0.4040
vn -0.3054 -0.8563 -0.4164
vn -0.2099 -0.8424 -0.4964
vn -0.3054 -0.8072 -0.5051
vn -0.2099 -0.7848 -0.5831
vn -0.3054 -0.7490 -0.5880
vn -0.2099 -0.7184 -0.6632
vn -0.3054 -0.6822 -0.6643
vn -0.2099 -0.6438 -0.7358
vn -0.3054 -0.6078 -0.7331
vn -0.2099 -0.5620 -0.8001
vn -0.3054 -0.5264 -0.7935
vn -0.2099 -0.4738 -0.8553
vn -0.3054 -0.4391 -0.8450
vn -0.2099 -0.3802 -0.9008
vn -0.3054 -0.3468 -0.8868
vn -0.2099 -0.2823 -0.9361
vn -0.3054 -0.2505 -0.9187
vn -0.2099 -0.1812 -0.9608
vn -0.3054 -0.1515 -0.9401
vn -0.2099 -0.0780 -0.9746
vn -0.3054 -0.0507 -0.9509
vn -0.2099 0.0260 -0.9774
vn -0.3054 0.0507 -0.9509
vn -0.2099 0.1298 -0.9691
vn -0.3054 0.1515 -0.9401
vn -0.2099 0.2320 -0.9498
vn -0.3054 0.2505 -0.9187
vn -0.2099 0.3317 -0.9197
vn -0.3054 0.3468 -0.8868
vn -0.2099 0.4276 -0.8793
vn -0.3054 0.4391 -0.8450
vn -0.2099 0.5186 -0.8288
vn -0.3054 0.5264 -0.7935
vn -0.2099 0.6038 -0.7690
vn -0.3054 0.6078 -0.7331
vn -0.2099 0.6821 -0.7005
vn -0.3054 0.6822 -0.6643
vn -0.2099 0.7527 -0.6240
vn -0.3054 0.7490 -0.5880
vn -0.2099 0.8147 -0.5405
vn -0.3054 0.8072 -0.5051
vn -0.2099 0.8676 -0.4508
vn -0.3054 0.8563 -0.4164
vn -0.2099 0.9106 -0.3560
vn -0.3054 0.8958 -0.3230
vn -0.2099 0.9433 -0.2572
vn -0.3054 0.9250 -0.2260
vn -0.2099 0.9653 -0.1555
vn -0.3054 0.9438 -0.1264
vn -0.9691 0.2465 0.0134
vn -0.9623 0.2720 -0.0072
vn -0.9692 0.2460 -0.0133
vn -0.9621 0.2703 -0.0362
vn -0.9693 0.2426 -0.0398
vn -0.9619 0.2655 -0.0649
vn -0.9694 0.2365 -0.0657
vn -0.9618 0.2576 -0.0929
vn -0.9695 0.2276 -0.0907
vn -0.9617 0.2467 -0.1199
vn -0.9696 0.2161 -0.1146
vn -0.9615 0.2329 -0.1457
vn -0.9697 0.2022 -0.1371
vn -0.9614 0.2164 -0.1699
vn -0.9698 0.1859 -0.1579
vn -0.9613 0.1974 -0.1922
vn -0.9699 0.1676 -0.1769
vn -0.9612 0.1760 -0.2123
vn -0.9699 0.1473 -0.1938
vn -0.9611 0.1526 -0.2300
vn -0.9700 0.1254 -0.2085
vn -0.9611 0.1274 -0.2451
vn -0.9700 0.1021 -0.2206
vn -0.9610 0.1007 -0.2575
vn -0.9700 0.0776 -0.2303
vn -0.9610 0.0728 -0.2668
vn -0.9701 0.0522 -0.2372
vn -0.9610 0.0440 -0.2731
vn -0.9701 0.0263 -0.2414
vn -0.9610 0.0147 -0.2763
vn -0.9701 -0.0000 -0.2428
vn -0.9610 -0.0147 -0.2763
vn -0.9701 -0.0263 -0.2414
vn -0.9610 -0.0440 -0.2731
vn -0.9701 -0.0522 -0.2372
vn -0.9610 -0.0728 -0.2668
vn -0.9700 -0.0776 -0.2303
vn -0.9610 -0.1007 -0.2575
vn -0.9700 -0.1021 -0.2206
vn -0.9611 -0.1274 -0.2451
vn -0.9700 -0.1254 -0.2085
vn -0.9611 -0.1526 -0.2300
vn -0.9699 -0.1473 -0.1938
vn -0.9612 -0.1760 -0.2123
vn -0.9699 -0.1676 -0.1769
vn -0.9613 -0.1974 -0.1922
vn -0.9698 -0.1859 -0.1579
vn -0.9614 -0.2164 -0.1699
vn -0.9697 -0.2022 -0.1371
vn -0.9615 -0.2329 -0.1457
vn -0.9696 -0.2161 -0.1146
vn -0.9617 -0.2467 -0.1199
vn -0.9695 -0.2276 -0.0907
vn -0.9618 -0.2576 -0.0929
vn -0.9694 -0.2365 -0.0657
vn -0.9619 -0.2655 -0.0649
vn -0.9693 -0.2426 -0.0398
vn -0.9621 -0.2703 -0.0362
vn -0.9692 -0.2460 -0.0133
vn -0.9623 -0.2720 -0.0072
vn -0.9691 -0.2465 0.0134
vn -0.9624 -0.2706 0.0217
vn -0.9689 -0.2442 0.0400
vn -0.9626 -0.2661 0.0502
vn -0.9688 -0.2390 0.0664
vn -0.9628 -0.2586 0.0780
vn -0.9686 -0.2310 0.0920
vn -0.9631 -0.2481 0.1047
vn -0.9684 -0.2203 0.1168
vn -0.9633 -0.2349 0.1301
vn -0.9682 -0.2070 0.1403
vn -0.9635 -0.2190 0.1538
vn -0.9680 -0.1912 0.1624
vn -0.9638 -0.2008 0.1757
vn -0.9678 -0.1731 0.1827
vn -0.9640 -0.1803 0.1954
vn -0.9676 -0.1528 0.2010
vn -0.9643 -0.1580 0.2127
vn -0.9674 -0.1306 0.2171
vn -0.9645 -0.1340 0.2274
vn -0.9671 -0.1068 0.2309
vn -0.9648 -0.1087 0.2394
vn -0.9669 -0.0815 0.2420
vn -0.9651 -0.0823 0.2486
vn -0.9666 -0.0551 0.2504
vn -0.9654 -0.0551 0.2549
vn -0.9663 -0.0278 0.2559
vn -0.9658 -0.0276 0.2579
vn -0.9659 -0.0000 0.2590
vn -0.7070 -0.0000 0.7072
vn -0.7062 0.0754 0.7040
vn -0.9624 0.2706 0.0217
vn -0.9689 0.2442 0.0400
vn -0.9626 0.2661 0.0502
vn -0.9688 0.2390 0.0664
vn -0.9628 0.2586 0.0780
vn -0.9686 0.2310 0.0920
vn -0.9631 0.2481 0.1047
vn -0.9684 0.2203 0.1168
vn -0.9633 0.2349 0.1301
vn -0.9682 0.2070 0.1403
vn -0.9635 0.2190 0.1538
vn -0.9680 0.1912 0.1624
vn -0.9638 0.2008 0.1757
vn -0.9678 0.1731 0.1827
vn -0.9640 0.1803 0.1954
vn -0.9676 0.1528 0.2010
vn -0.9643 0.1580 0.2127
vn -0.9674 0.1306 0.2171
vn -0.9645 0.1340 0.2274
vn -0.9671 0.1068 0.2309
vn -0.9648 0.1087 0.2394
vn -0.9669 0.0815 0.2420
vn -0.9651 0.0823 0.2486
vn -0.9666 0.0551 0.2504
vn -0.9654 0.0551 0.2549
vn -0.9663 0.0278 0.2559
vn -0.9658 0.0276 0.2579
vn -0.7066 0.0377 -0.7066
vn -0.7066 0.1126 -0.6986
vn -0.7066 0.1862 -0.6827
vn -0.7066 0.2577 -0.6590
vn -0.7066 0.3263 -0.6279
vn -0.7066 0.3912 -0.5897
vn -0.7066 0.4516 -0.5447
vn -0.7066 0.5070 -0.4936
vn -0.7066 0.5070 -0.4937
vn -0.7066 0.5566 -0.4370
vn -0.7066 0.5999 -0.3753
vn -0.7066 0.6364 -0.3094
vn -0.7066 0.6656 -0.2400
vn -0.7066 0.6874 -0.1679
vn -0.7066 0.7013 -0.0939
vn -0.7066 0.7074 -0.0188
vn -0.7066 0.7054 0.0565
vn -0.7066 0.6954 0.1311
vn -0.7066 0.6775 0.2043
vn -0.7066 0.6519 0.2751
vn -0.7066 0.6190 0.3429
vn -0.7066 0.5790 0.4067
vn -0.7066 0.5325 0.4660
vn -0.7066 0.4800 0.5199
vn -0.7066 0.4220 0.5680
vn -0.7066 0.3592 0.6096
vn -0.7066 0.2924 0.6444
vn -0.7066 0.2222 0.6718
vn -0.7066 0.1496 0.6916
vn -0.7066 0.0754 0.7036
vn -0.7066 -0.0377 -0.7066
vn -0.7066 -0.1126 -0.6986
vn -0.7066 -0.1862 -0.6827
vn -0.7066 -0.2577 -0.6590
vn -0.7066 -0.3263 -0.6279
vn -0.7066 -0.3912 -0.5897
vn -0.7066 -0.4516 -0.5447
vn -0.7066 -0.5070 -0.4936
vn -0.7066 -0.5070 -0.4937
vn -0.7066 -0.5566 -0.4370
vn -0.7066 -0.5999 -0.3753
vn -0.7066 -0.6364 -0.3094
vn -0.7066 -0.6656 -0.2400
vn -0.7066 -0.6874 -0.1679
vn -0.7066 -0.7013 -0.0939
vn -0.7066 -0.7074 -0.0188
vn -0.7066 -0.7054 0.0565
vn -0.7066 -0.7053 0.0565
vn -0.7066 -0.6954 0.1311
vn -0.7066 -0.6775 0.2043
vn -0.7066 -0.6519 0.2751
vn -0.7066 -0.6190 0.3429
vn -0.7066 -0.5790 0.4067
vn -0.7066 -0.5325 0.4660
vn -0.7066 -0.4800 0.5199
vn -0.7066 -0.4220 0.5680
vn -0.7066 -0.3592 0.6096
vn -0.7066 -0.2924 0.6444
vn -0.7066 -0.2222 0.6718
vn -0.7066 -0.1496 0.6916
vn -0.7066 -0.0754 0.7036
vn -0.7062 -0.0754 0.7040
vn -0.0000 0.9986 -0.0532
vn -0.0000 0.9986 0.0532
vn -0.0000 0.9873 0.1591
vn -0.0000 0.9648 0.2631
vn -0.0000 0.9313 0.3642
vn -0.0000 0.8874 0.4611
vn -0.0000 0.8333 0.5528
vn -0.0000 0.7698 0.6382
vn -0.0000 0.6976 0.7165
vn -0.0000 0.6175 0.7866
vn -0.0000 0.5304 0.8477
vn -0.0000 0.4373 0.8993
vn -0.0000 0.3392 0.9407
vn -0.0000 0.2373 0.9714
vn -0.0000 0.1327 0.9912
vn -0.0000 0.0266 0.9996
vn -0.0000 -0.0798 0.9968
vn -0.0000 -0.1853 0.9827
vn -0.0000 -0.2887 0.9574
vn -0.0000 -0.3888 0.9213
vn -0.0000 -0.4846 0.8748
vn -0.0000 -0.5748 0.8183
vn -0.0000 -0.6585 0.7526
vn -0.0000 -0.7348 0.6783
vn -0.0000 -0.8027 0.5964
vn -0.0000 -0.8616 0.5077
vn -0.0000 -0.9106 0.4132
vn -0.0000 -0.9494 0.3141
vn -0.0000 -0.9774 0.2114
vn -0.0000 -0.9943 0.1063
vn -0.0000 -1.0000 -0.0000
vn -0.0000 -0.9943 -0.1063
vn -0.0000 -0.9774 -0.2114
vn -0.0000 -0.9494 -0.3141
vn -0.0000 -0.9106 -0.4132
vn -0.0000 -0.8616 -0.5077
vn -0.0000 -0.8027 -0.5964
vn -0.0000 -0.7348 -0.6783
vn -0.0000 -0.6585 -0.7526
vn -0.0000 -0.5748 -0.8183
vn -0.0000 -0.4846 -0.8748
vn -0.0000 -0.3888 -0.9213
vn -0.0000 -0.2887 -0.9574
vn -0.0000 -0.1853 -0.9827
vn -0.0000 -0.0798 -0.9968
vn -0.0000 0.0266 -0.9996
vn -0.0000 0.1327 -0.9912
vn -0.0000 0.2373 -0.9714
vn -0.0000 0.3392 -0.9407
vn -0.0000 0.4373 -0.8993
vn -0.0000 0.5304 -0.8477
vn -0.0000 0.6175 -0.7866
vn -0.0000 0.6976 -0.7165
vn -0.0000 0.7698 -0.6382
vn -0.0000 0.8333 -0.5528
vn -0.0000 0.8874 -0.4611
vn -0.0000 0.9313 -0.3642
vn -0.0000 0.9648 -0.2631
vn -0.0000 0.9873 -0.1591
vn -1.0000 -0.0000 -0.0000
vn 0.9692 0.2460 -0.0133
vn 0.9623 0.2720 -0.0072
vn 0.9691 0.2465 0.0134
vn 0.9624 0.2706 0.0217
vn 0.9689 0.2442 0.0400
vn 0.9626 0.2661 0.0502
vn 0.9688 0.2390 0.0664
vn 0.9628 0.2586 0.0780
vn 0.9686 0.2310 0.0920
vn 0.9631 0.2481 0.1047
vn 0.9684 0.2203 0.1168
vn 0.9633 0.2349 0.1301
vn 0.9682 0.2070 0.1403
vn 0.9635 0.2190 0.1538
vn 0.9680 0.1912 0.1624
vn 0.9638 0.2008 0.1757
vn 0.9678 0.1731 0.1827
vn 0.9640 0.1803 0.1954
vn 0.9676 0.1528 0.2010
vn 0.9643 0.1580 0.2127
vn 0.9674 0.1306 0.2171
vn 0.9645 0.1340 0.2274
vn 0.9671 0.1068 0.2308
vn 0.9648 0.1087 0.2394
vn 0.9669 0.0815 0.2420
vn 0.9651 0.0823 0.2486
vn 0.9666 0.0551 0.2504
vn 0.9654 0.0551 0.2549
vn 0.9663 0.0278 0.2559
vn 0.9658 0.0276 0.2579
vn 0.9659 -0.0000 0.2590
vn 0.9658 -0.0276 0.2579
vn 0.7066 -0.0754 0.7036
vn 0.7066 -0.1496 0.6916
vn 0.7066 -0.2222 0.6718
vn 0.7066 -0.2924 0.6444
vn 0.7066 -0.3592 0.6096
vn 0.7066 -0.4220 0.5680
vn 0.7066 -0.4800 0.5199
vn 0.7066 -0.5325 0.4660
vn 0.7066 -0.5790 0.4067
vn 0.7066 -0.6190 0.3429
vn 0.7066 -0.6519 0.2751
vn 0.7066 -0.6775 0.2043
vn 0.7066 -0.6954 0.1311
vn 0.7066 -0.7053 0.0565
vn 0.7066 -0.7054 0.0565
vn 0.7066 -0.7074 -0.0188
vn 0.7066 -0.7013 -0.0939
vn 0.7066 -0.6874 -0.1679
vn 0.7066 -0.6656 -0.2400
vn 0.7066 -0.6364 -0.3094
vn 0.7066 -0.5999 -0.3753
vn 0.7066 -0.5566 -0.4370
vn 0.7066 -0.5070 -0.4937
vn 0.7066 -0.5070 -0.4936
vn 0.7066 -0.4516 -0.5447
vn 0.7066 -0.3912 -0.5897
vn 0.7066 -0.3263 -0.6279
vn 0.7066 -0.2577 -0.6590
vn 0.7066 -0.1862 -0.6827
vn 0.7066 -0.1126 -0.6986
vn 0.7066 -0.0377 -0.7066
vn 0.7066 0.0377 -0.7066
vn 0.7066 0.1126 -0.6986
vn 0.7066 0.1862 -0.6827
vn 0.7066 0.2577 -0.6590
vn 0.7066 0.3263 -0.6279
vn 0.7066 0.3912 -0.5897
vn 0.7066 0.4516 -0.5447
vn 0.7066 0.5070 -0.4937
vn 0.7066 0.5566 -0.4370
vn 0.7066 0.5999 -0.3753
vn 0.7066 0.6364 -0.3094
vn 0.7066 0.6656 -0.2400
vn 0.7066 0.6874 -0.1679
vn 0.7066 0.7013 -0.0939
vn 0.7066 0.7074 -0.0188
vn 0.7066 0.7054 0.0565
vn 0.7066 0.6954 0.1311
vn 0.7066 0.6775 0.2043
vn 0.7066 0.6519 0.2751
vn 0.7066 0.6190 0.3429
vn 0.7066 0.5790 0.4067
vn 0.7066 0.5325 0.4660
vn 0.7066 0.4800 0.5199
vn 0.7066 0.4220 0.5680
vn 0.7066 0.3592 0.6096
vn 0.7066 0.2924 0.6444
vn 0.7066 0.2222 0.6718
vn 0.7066 0.1496 0.6916
vn 0.7066 0.0754 0.7036
vn 0.7062 0.0754 0.7040
vn 0.7070 -0.0000 0.7072
vn 0.7062 -0.0754 0.7040
vn 0.3052 -0.1014 0.9469
vn 0.2099 -0.1812 0.9608
vn 0.9621 0.2703 -0.0362
vn 0.9693 0.2426 -0.0398
vn 0.9619 0.2655 -0.0649
vn 0.9694 0.2365 -0.0657
vn 0.9618 0.2576 -0.0929
vn 0.9695 0.2276 -0.0907
vn 0.9617 0.2467 -0.1199
vn 0.9696 0.2161 -0.1146
vn 0.9615 0.2329 -0.1457
vn 0.9697 0.2022 -0.1371
vn 0.9614 0.2164 -0.1699
vn 0.9698 0.1859 -0.1579
vn 0.9613 0.1974 -0.1922
vn 0.9699 0.1676 -0.1769
vn 0.9612 0.1760 -0.2123
vn 0.9699 0.1473 -0.1938
vn 0.9611 0.1526 -0.2300
vn 0.9700 0.1254 -0.2084
vn 0.9611 0.1274 -0.2451
vn 0.9700 0.1021 -0.2206
vn 0.9610 0.1007 -0.2574
vn 0.9700 0.0776 -0.2303
vn 0.9610 0.0728 -0.2668
vn 0.9700 0.0522 -0.2372
vn 0.9610 0.0440 -0.2731
vn 0.9701 0.0263 -0.2414
vn 0.9610 0.0147 -0.2763
vn 0.9701 -0.0000 -0.2428
vn 0.9610 -0.0147 -0.2763
vn 0.9701 -0.0263 -0.2414
vn 0.9610 -0.0440 -0.2731
vn 0.9700 -0.0522 -0.2372
vn 0.9610 -0.0728 -0.2668
vn 0.9700 -0.0776 -0.2303
vn 0.9610 -0.1007 -0.2574
vn 0.9700 -0.1021 -0.2206
vn 0.9611 -0.1274 -0.2451
vn 0.9700 -0.1254 -0.2084
vn 0.9611 -0.1526 -0.2300
vn 0.9699 -0.1473 -0.1938
vn 0.9612 -0.1760 -0.2123
vn 0.9699 -0.1676 -0.1769
vn 0.9613 -0.1974 -0.1922
vn 0.9698 -0.1859 -0.1579
vn 0.9614 -0.2164 -0.1699
vn 0.9697 -0.2022 -0.1371
vn 0.9615 -0.2329 -0.1457
vn 0.9696 -0.2161 -0.1146
vn 0.9617 -0.2467 -0.1199
vn 0.9695 -0.2276 -0.0907
vn 0.9618 -0.2576 -0.0929
vn 0.9694 -0.2365 -0.0657
vn 0.9619 -0.2655 -0.0649
vn 0.9693 -0.2426 -0.0398
vn 0.9621 -0.2703 -0.0362
vn 0.9692 -0.2460 -0.0133
vn 0.9623 -0.2720 -0.0072
vn 0.9691 -0.2465 0.0134
vn 0.9624 -0.2706 0.0217
vn 0.9689 -0.2442 0.0400
vn 0.9626 -0.2661 0.0502
vn 0.9688 -0.2390 0.0664
vn 0.9628 -0.2586 0.0780
vn 0.9686 -0.2310 0.0920
vn 0.9631 -0.2481 0.1047
vn 0.9684 -0.2203 0.1168
vn 0.9633 -0.2349 0.1301
vn 0.9682 -0.2070 0.1403
vn 0.9635 -0.2190 0.1538
vn 0.9680 -0.1912 0.1624
vn 0.9638 -0.2008 0.1757
vn 0.9678 -0.1731 0.1827
vn 0.9640 -0.1803 0.1954
vn 0.9676 -0.1528 0.2010
vn 0.9643 -0.1580 0.2127
vn 0.9674 -0.1306 0.2171
vn 0.9645 -0.1340 0.2274
vn 0.9671 -0.1068 0.2308
vn 0.9648 -0.1087 0.2394
vn 0.9669 -0.0815 0.2420
vn 0.9651 -0.0823 0.2486
vn 0.9666 -0.0551 0.2504
vn 0.9654 -0.0551 0.2549
vn 0.9663 -0.0278 0.2559
vn 0.2099 0.9763 0.0520
vn 0.3054 0.9519 -0.0253
vn 0.2099 0.9763 -0.0520
vn 0.3054 0.9438 -0.1264
vn 0.2099 0.9653 -0.1555
vn 0.3054 0.9250 -0.2260
vn 0.2099 0.9433 -0.2572
vn 0.3054 0.8958 -0.3230
vn 0.2099 0.9106 -0.3560
vn 0.3054 0.8563 -0.4164
vn 0.2099 0.8676 -0.4508
vn 0.3054 0.8072 -0.5051
vn 0.2099 0.8147 -0.5405
vn 0.3054 0.7490 -0.5880
vn 0.2099 0.7527 -0.6240
vn 0.3054 0.6822 -0.6643
vn 0.2099 0.6821 -0.7005
vn 0.3054 0.6078 -0.7331
vn 0.2099 0.6038 -0.7690
vn 0.3054 0.5264 -0.7935
vn 0.2099 0.5186 -0.8288
vn 0.3054 0.4391 -0.8450
vn 0.2099 0.4276 -0.8793
vn 0.3054 0.3468 -0.8868
vn 0.2099 0.3317 -0.9197
vn 0.3054 0.2505 -0.9187
vn 0.2099 0.2320 -0.9498
vn 0.3054 0.1515 -0.9401
vn 0.2099 0.1298 -0.9691
vn 0.3054 0.0507 -0.9509
vn 0.2099 0.0260 -0.9774
vn 0.3054 -0.0507 -0.9509
vn 0.2099 -0.0780 -0.9746
vn 0.3054 -0.1515 -0.9401
vn 0.2099 -0.1812 -0.9608
vn 0.3054 -0.2505 -0.9187
vn 0.2099 -0.2823 -0.9361
vn 0.3054 -0.3468 -0.8868
vn 0.2099 -0.3802 -0.9008
vn 0.3054 -0.4391 -0.8450
vn 0.2099 -0.4738 -0.8553
vn 0.3054 -0.5264 -0.7935
vn 0.2099 -0.5620 -0.8001
vn 0.3054 -0.6078 -0.7331
vn 0.2099 -0.6438 -0.7358
vn 0.3054 -0.6822 -0.6643
vn 0.2099 -0.7184 -0.6632
vn 0.3054 -0.7490 -0.5880
vn 0.2099 -0.7848 -0.5831
vn 0.3054 -0.8072 -0.5051
vn 0.2099 -0.8424 -0.4964
vn 0.3054 -0.8564 -0.4164
vn 0.2099 -0.8903 -0.4040
vn 0.3054 -0.8958 -0.3230
vn 0.2099 -0.9282 -0.3071
vn 0.3054 -0.9250 -0.2260
vn 0.2099 -0.9556 -0.2067
vn 0.3054 -0.9438 -0.1264
vn 0.2099 -0.9722 -0.1039
vn 0.3054 -0.9519 -0.0253
vn 0.2099 -0.9777 -0.0000
vn 0.3054 -0.9492 0.0760
vn 0.2099 -0.9722 0.1039
vn 0.3054 -0.9357 0.1764
vn 0.2099 -0.9556 0.2067
vn 0.3054 -0.9117 0.2749
vn 0.2099 -0.9282 0.3071
vn 0.3054 -0.8773 0.3702
vn 0.2099 -0.8903 0.4040
vn 0.3054 -0.8330 0.4614
vn 0.2099 -0.8424 0.4964
vn 0.3054 -0.7792 0.5473
vn 0.2099 -0.7848 0.5831
vn 0.3054 -0.7166 0.6271
vn 0.2099 -0.7184 0.6632
vn 0.3054 -0.6459 0.6997
vn 0.2099 -0.6438 0.7358
vn 0.3054 -0.5679 0.7644
vn 0.2099 -0.5620 0.8001
vn 0.3054 -0.4834 0.8204
vn 0.2099 -0.4738 0.8553
vn 0.3054 -0.3935 0.8671
vn 0.2099 -0.3802 0.9008
vn 0.3054 -0.2991 0.9040
vn 0.2099 -0.2823 0.9361
vn 0.3054 -0.2013 0.9307
vn 0.3054 0.9492 0.0760
vn 0.2099 0.9653 0.1555
vn 0.3054 0.9357 0.1764
vn 0.2099 0.9433 0.2572
vn 0.3054 0.9117 0.2749
vn 0.2099 0.9106 0.3560
vn 0.3054 0.8773 0.3703
vn 0.2099 0.8676 0.4508
vn 0.3054 0.8330 0.4614
vn 0.2099 0.8147 0.5405
vn 0.3054 0.7792 0.5473
vn 0.2099 0.7527 0.6240
vn 0.3054 0.7166 0.6271
vn 0.2099 0.6821 0.7005
vn 0.3054 0.6459 0.6997
vn 0.2099 0.6038 0.7690
vn 0.3054 0.5679 0.7644
vn 0.2099 0.5186 0.8288
vn 0.3054 0.4834 0.8204
vn 0.2099 0.4276 0.8793
vn 0.3054 0.3935 0.8671
vn 0.2099 0.3317 0.9197
vn 0.3054 0.2991 0.9040
vn 0.2099 0.2320 0.9498
vn 0.3054 0.2013 0.9307
vn 0.2099 0.1298 0.9691
vn 0.3049 0.1014 0.9470
vn 0.2103 0.0260 0.9773
vn 0.3061 -0.0000 0.9520
vn 0.2095 -0.0780 0.9747
vn 1.0000 -0.0000 -0.0000
s 0
f 1//1 2//1 3//1
f 3//2 2//2 4//2
f 3//3 4//3 5//3
f 5//4 4//4 6//4
f 5//5 6//5 7//5
f 7//6 6//6 8//6
f 7//7 8//7 9//7
f 9//8 8//8 10//8
f 9//9 10//9 11//9
f 11//10 10//10 12//10
f 11//11 12//11 13//11
f 13//12 12//12 14//12
f 13//13 14//13 15//13
f 15//14 14//14 16//14
f 15//15 16//15 17//15
f 17//16 16//16 18//16
f 17//17 18//17 19//17
f 19//18 18//18 20//18
f 19//19 20//19 21//19
f 21//20 20//20 22//20
f 21//21 22//21 23//21
f 23//22 22//22 24//22
f 23//23 24//23 25//23
f 25//24 24//24 26//24
f 25//25 26//25 27//25
f 27//26 26//26 28//26
f 27//27 28//27 29//27
f 29//28 28//28 30//28
f 29//29 30//29 31//29
f 31//30 30//30 32//30
f 31//31 32//31 33//31
f 33//32 32//32 34//32
f 33//33 34//33 35//33
f 35//34 34//34 36//34
f 35//35 36//35 37//35
f 37//36 36//36 38//36
f 37//37 38//37 39//37
f 39//38 38//38 40//38
f 39//39 40//39 41//39
f 41//40 40//40 42//40
f 41//41 42//41 43//41
f 43//42 42//42 44//42
f 43//43 44//43 45//43
f 45//44 44//44 46//44
f 45//45 46//45 47//45
f 47//46 46//46 48//46
f 47//47 48//47 49//47
f 49//48 48//48 50//48
f 49//49 50//49 51//49
f 51//50 50//50 52//50
f 51//51 52//51 53//51
f 53//52 52//52 54//52
f 53//53 54//53 55//53
f 55//54 54//54 56//54
f 55//55 56//55 57//55
f 57//56 56//56 58//56
f 57//57 58//57 59//57
f 59//58 58//58 60//58
f 59//59 60//59 61//59
f 61//60 60//60 62//60
f 61//61 62//61 63//61
f 63//62 62//62 64//62
f 63//63 64//63 65//63
f 65//64 64//64 66//64
f 65//65 66//65 67//65
f 67//66 66//66 68//66
f 67//67 68//67 69//67
f 69//68 68//68 70//68
f 69//69 70//69 71//69
f 71//70 70//70 72//70
f 71//71 72//71 73//71
f 73//72 72//72 74//72
f 73//73 74//73 75//73
f 75//74 74//74 76//74
f 75//75 76//75 77//75
f 77//76 76//76 78//76
f 77//77 78//77 79//77
f 79//78 78//78 80//78
f 79//79 80//79 81//79
f 81//80 80//80 82//80
f 81//81 82//81 83//81
f 83//82 82//82 84//82
f 83//83 84//83 85//83
f 85//84 84//84 86//84
f 85//85 86//85 87//85
f 87//86 86//86 88//86
f 87//87 88//87 89//87
f 89//88 88//88 90//88
f 89//89 90//89 91//89
f 91//90 90//90 92//90
f 91//91 92//91 93//91
f 93//92 92//92 94//92
f 93//93 94//93 95//93
f 95//94 94//94 96//94
f 95//95 96//95 97//95
f 97//96 96//96 98//96
f 97//97 98//97 99//97
f 99//98 98//98 100//98
f 99//99 100//99 101//99
f 101//100 100//100 102//100
f 101//101 102//101 103//101
f 103//102 102//102 104//102
f 103//103 104//103 105//103
f 105//104 104//104 106//104
f 105//105 106//105 107//105
f 107//106 106//106 108//106
f 107//107 108//107 109//107
f 109//108 108//108 110//108
f 109//109 110//109 111//109
f 111//110 110//110 112//110
f 111//111 112//111 113//111
f 113//112 112//112 114//112
f 113//113 114//113 115//113
f 115//114 114//114 116//114
f 115//115 116//115 117//115
f 117//116 116//116 118//116
f 117//117 118//117 1//117
f 1//118 118//118 2//118
f 119//119 120//119 121//119
f 121//120 120//120 122//120
f 121//121 122//121 123//121
f 123//122 122//122 124//122
f 123//123 124//123 125//123
f 125//124 124//124 126//124
f 125//125 126//125 127//125
f 127//126 126//126 128//126
f 127//127 128//127 129//127
f 129//128 128//128 130//128
f 129//129 130//129 131//129
f 131//130 130//130 132//130
f 131//131 132//131 133//131
f 133//132 132//132 134//132
f 133//133 134//133 135//133
f 135//134 134//134 136//134
f 135//135 136//135 137//135
f 137//136 136//136 138//136
f 137//137 138//137 139//137
f 139//138 138//138 140//138
f 139//139 140//139 141//139
f 141//140 140//140 142//140
f 141//141 142//141 143//141
f 143//142 142//142 144//142
f 143//143 144//143 145//143
f 145//144 144//144 146//144
f 145//145 146//145 147//145
f 147//146 146//146 148//146
f 147//147 148//147 149//147
f 149//148 148//148 150//148
f 149//149 150//149 151//149
f 151//150 150//150 152//150
f 151//151 152//151 153//151
f 153//152 152//152 154//152
f 153//153 154//153 155//153
f 155//154 154//154 156//154
f 155//155 156//155 157//155
f 157//156 156//156 158//156
f 157//157 158//157 159//157
f 159//158 158//158 160//158
f 159//159 160//159 161//159
f 161//160 160//160 162//160
f 161//161 162//161 163//161
f 163//162 162//162 164//162
f 163//163 164//163 165//163
f 165//164 164//164 166//164
f 165//165 166//165 167//165
f 167//166 166//166 168//166
f 167//167 168//167 169//167
f 169//168 168//168 170//168
f 169//169 170//169 171//169
f 171//170 170//170 172//170
f 171//171 172//171 173//171
f 173//172 172//172 174//172
f 173//173 174//173 175//173
f 175//174 174//174 176//174
f 175//175 176//175 177//175
f 177//176 176//176 178//176
f 177//177 178//177 179//177
f 179//178 178//178 180//178
f 179//179 180//179 181//179
f 181//180 180//180 182//180
f 181//181 182//181 183//181
f 183//182 182//182 184//182
f 183//183 184//183 185//183
f 185//184 184//184 186//184
f 185//185 186//185 187//185
f 187//186 186//186 188//186
f 187//187 188//187 189//187
f 189//188 188//188 190//188
f 189//189 190//189 191//189
f 191//190 190//190 192//190
f 191//191 192//191 193//191
f 193//192 192//192 194//192
f 193//193 194//193 195//193
f 195//194 194//194 196//194
f 195//195 196//195 197//195
f 197//196 196//196 198//196
f 197//197 198//197 199//197
f 199//198 198//198 200//198
f 199//199 200//199 201//199
f 201//200 200//200 202//200
f 201//201 202//201 203//201
f 203//202 202//202 204//202
f 203//203 204//203 205//203
f 205//204 204//204 206//204
f 205//205 206//205 207//205
f 207//206 206//206 208//206
f 207//207 208//207 209//207
f 209//208 208//208 32//208
f 209//209 32//209 30//209
f 120//210 119//210 210//210
f 210//211 119//211 211//211
f 210//212 211//212 212//212
f 212//213 211//213 213//213
f 212//214 213//214 214//214
f 214//215 213//215 215//215
f 214//216 215//216 216//216
f 216//217 215//217 217//217
f 216//218 217//218 218//218
f 218//219 217//219 219//219
f 218//220 219//220 220//220
f 220//221 219//221 221//221
f 220//222 221//222 222//222
f 222//223 221//223 223//223
f 222//224 223//224 224//224
f 224//225 223//225 225//225
f 224//226 225//226 226//226
f 226//227 225//227 227//227
f 226//228 227//228 228//228
f 228//229 227//229 229//229
f 228//230 229//230 230//230
f 230//231 229//231 231//231
f 230//232 231//232 232//232
f 232//233 231//233 233//233
f 232//234 233//234 234//234
f 234//235 233//235 235//235
f 234//236 235//236 209//236
f 209//207 235//207 207//207
f 92//237 150//237 94//237
f 94//237 150//237 148//237
f 94//238 148//238 96//238
f 96//238 148//238 146//238
f 96//239 146//239 98//239
f 98//239 146//239 144//239
f 98//240 144//240 100//240
f 100//240 144//240 142//240
f 100//241 142//241 102//241
f 102//241 142//241 140//241
f 102//242 140//242 104//242
f 104//242 140//242 138//242
f 104//243 138//243 106//243
f 106//243 138//243 136//243
f 106//244 136//244 108//244
f 108//245 136//245 134//245
f 108//246 134//246 110//246
f 110//246 134//246 132//246
f 110//247 132//247 112//247
f 112//247 132//247 130//247
f 112//248 130//248 114//248
f 114//248 130//248 128//248
f 114//249 128//249 116//249
f 116//249 128//249 126//249
f 116//250 126//250 118//250
f 118//250 126//250 124//250
f 118//251 124//251 2//251
f 2//251 124//251 122//251
f 2//252 122//252 4//252
f 4//252 122//252 120//252
f 4//253 120//253 6//253
f 6//253 120//253 210//253
f 6//254 210//254 8//254
f 8//254 210//254 212//254
f 8//255 212//255 10//255
f 10//255 212//255 214//255
f 10//256 214//256 12//256
f 12//256 214//256 216//256
f 12//257 216//257 14//257
f 14//257 216//257 218//257
f 14//258 218//258 16//258
f 16//258 218//258 220//258
f 16//259 220//259 18//259
f 18//259 220//259 222//259
f 18//260 222//260 20//260
f 20//260 222//260 224//260
f 20//261 224//261 22//261
f 22//261 224//261 226//261
f 22//262 226//262 24//262
f 24//262 226//262 228//262
f 24//263 228//263 26//263
f 26//263 228//263 230//263
f 26//264 230//264 28//264
f 28//264 230//264 232//264
f 28//265 232//265 30//265
f 30//265 232//265 234//265
f 30//266 234//266 209//266
f 150//267 92//267 152//267
f 152//267 92//267 90//267
f 152//268 90//268 154//268
f 154//268 90//268 88//268
f 154//269 88//269 156//269
f 156//269 88//269 86//269
f 156//270 86//270 158//270
f 158//270 86//270 84//270
f 158//271 84//271 160//271
f 160//271 84//271 82//271
f 160//272 82//272 162//272
f 162//272 82//272 80//272
f 162//273 80//273 164//273
f 164//273 80//273 78//273
f 164//274 78//274 166//274
f 166//275 78//275 76//275
f 166//276 76//276 168//276
f 168//276 76//276 74//276
f 168//277 74//277 170//277
f 170//277 74//277 72//277
f 170//278 72//278 172//278
f 172//278 72//278 70//278
f 172//279 70//279 174//279
f 174//279 70//279 68//279
f 174//280 68//280 176//280
f 176//280 68//280 66//280
f 176//281 66//281 178//281
f 178//281 66//281 64//281
f 178//282 64//282 180//282
f 180//282 64//282 62//282
f 180//283 62//283 182//283
f 182//284 62//284 60//284
f 182//285 60//285 184//285
f 184//285 60//285 58//285
f 184//286 58//286 186//286
f 186//286 58//286 56//286
f 186//287 56//287 188//287
f 188//287 56//287 54//287
f 188//288 54//288 190//288
f 190//288 54//288 52//288
f 190//289 52//289 192//289
f 192//289 52//289 50//289
f 192//290 50//290 194//290
f 194//290 50//290 48//290
f 194//291 48//291 196//291
f 196//291 48//291 46//291
f 196//292 46//292 198//292
f 198//292 46//292 44//292
f 198//293 44//293 200//293
f 200//293 44//293 42//293
f 200//294 42//294 202//294
f 202//294 42//294 40//294
f 202//295 40//295 204//295
f 204//295 40//295 38//295
f 204//296 38//296 206//296
f 206//296 38//296 36//296
f 206//297 36//297 208//297
f 208//298 36//298 34//298
f 208//208 34//208 32//208
f 236//299 1//299 237//299
f 237//299 1//299 3//299
f 237//300 3//300 238//300
f 238//300 3//300 5//300
f 238//301 5//301 239//301
f 239//301 5//301 7//301
f 239//302 7//302 240//302
f 240//302 7//302 9//302
f 240//303 9//303 241//303
f 241//303 9//303 11//303
f 241//304 11//304 242//304
f 242//304 11//304 13//304
f 242//305 13//305 243//305
f 243//305 13//305 15//305
f 243//306 15//306 244//306
f 244//306 15//306 17//306
f 244//307 17//307 245//307
f 245//307 17//307 19//307
f 245//308 19//308 246//308
f 246//308 19//308 21//308
f 246//309 21//309 247//309
f 247//309 21//309 23//309
f 247//310 23//310 248//310
f 248//310 23//310 25//310
f 248//311 25//311 249//311
f 249//311 25//311 27//311
f 249//312 27//312 250//312
f 250//312 27//312 29//312
f 250//313 29//313 251//313
f 251//313 29//313 31//313
f 251//314 31//314 252//314
f 252//314 31//314 33//314
f 252//315 33//315 253//315
f 253//315 33//315 35//315
f 253//316 35//316 254//316
f 254//316 35//316 37//316
f 254//317 37//317 255//317
f 255//317 37//317 39//317
f 255//318 39//318 256//318
f 256//318 39//318 41//318
f 256//319 41//319 257//319
f 257//319 41//319 43//319
f 257//320 43//320 258//320
f 258//320 43//320 45//320
f 258//321 45//321 259//321
f 259//321 45//321 47//321
f 259//322 47//322 260//322
f 260//322 47//322 49//322
f 260//323 49//323 261//323
f 261//323 49//323 51//323
f 261//324 51//324 262//324
f 262//324 51//324 53//324
f 262//325 53//325 263//325
f 263//325 53//325 55//325
f 263//326 55//326 264//326
f 264//326 55//326 57//326
f 264//327 57//327 265//327
f 265//327 57//327 59//327
f 265//328 59//328 266//328
f 266//328 59//328 61//328
f 266//329 61//329 267//329
f 267//329 61//329 63//329
f 267//330 63//330 268//330
f 268//330 63//330 65//330
f 268//331 65//331 269//331
f 269//331 65//331 67//331
f 269//332 67//332 270//332
f 270//332 67//332 69//332
f 270//333 69//333 271//333
f 271//333 69//333 71//333
f 271//334 71//334 272//334
f 272//334 71//334 73//334
f 272//335 73//335 273//335
f 273//335 73//335 75//335
f 273//336 75//336 274//336
f 274//336 75//336 77//336
f 274//337 77//337 275//337
f 275//337 77//337 79//337
f 275//338 79//338 276//338
f 276//338 79//338 81//338
f 276//339 81//339 277//339
f 277//339 81//339 83//339
f 277//340 83//340 278//340
f 278//340 83//340 85//340
f 278//341 85//341 279//341
f 279//341 85//341 87//341
f 279//342 87//342 280//342
f 280//342 87//342 89//342
f 280//343 89//343 281//343
f 281//343 89//343 91//343
f 281//344 91//344 282//344
f 282//344 91//344 93//344
f 282//345 93//345 283//345
f 283//345 93//345 95//345
f 283//346 95//346 284//346
f 284//346 95//346 97//346
f 284//347 97//347 285//347
f 285//347 97//347 99//347
f 285//348 99//348 286//348
f 286//348 99//348 101//348
f 286//349 101//349 287//349
f 287//349 101//349 103//349
f 287//350 103//350 288//350
f 288//350 103//350 105//350
f 288//351 105//351 289//351
f 289//351 105//351 107//351
f 289//352 107//352 290//352
f 290//352 107//352 109//352
f 290//353 109//353 291//353
f 291//353 109//353 111//353
f 291//354 111//354 292//354
f 292//354 111//354 113//354
f 292//355 113//355 293//355
f 293//355 113//355 115//355
f 293//356 115//356 294//356
f 294//356 115//356 117//356
f 294//357 117//357 236//357
f 236//357 117//357 1//357
f 295//358 149//358 296//358
f 296//358 149//358 151//358
f 296//358 151//358 297//358
f 297//358 151//358 153//358
f 297//358 153//358 298//358
f 298//358 153//358 155//358
f 298//358 155//358 299//358
f 299//358 155//358 157//358
f 299//358 157//358 300//358
f 300//358 157//358 159//358
f 300//358 159//358 161//358
f 149//358 295//358 147//358
f 147//358 295//358 301//358
f 147//358 301//358 145//358
f 145//358 301//358 302//358
f 145//358 302//358 143//358
f 143//358 302//358 303//358
f 143//358 303//358 141//358
f 141//358 303//358 139//358
f 139//358 303//358 304//358
f 139//358 304//358 137//358
f 137//358 304//358 305//358
f 137//358 305//358 135//358
f 135//358 305//358 306//358
f 135//358 306//358 133//358
f 133//358 306//358 307//358
f 133//358 307//358 131//358
f 131//358 307//358 308//358
f 131//358 308//358 129//358
f 129//358 308//358 309//358
f 129//358 309//358 127//358
f 127//358 309//358 310//358
f 127//358 310//358 125//358
f 125//358 310//358 123//358
f 123//358 310//358 311//358
f 123//358 311//358 121//358
f 121//358 311//358 312//358
f 121//358 312//358 119//358
f 119//358 312//358 313//358
f 119//358 313//358 211//358
f 211//358 313//358 314//358
f 211//358 314//358 213//358
f 213//358 314//358 315//358
f 213//358 315//358 215//358
f 215//358 315//358 316//358
f 215//358 316//358 217//358
f 217//358 316//358 317//358
f 217//358 317//358 219//358
f 219//358 317//358 221//358
f 221//358 317//358 318//358
f 221//358 318//358 223//358
f 223//358 318//358 319//358
f 223//358 319//358 225//358
f 225//358 319//358 320//358
f 225//358 320//358 227//358
f 227//358 320//358 321//358
f 227//358 321//358 229//358
f 229//358 321//358 322//358
f 229//358 322//358 231//358
f 231//358 322//358 323//358
f 231//358 323//358 233//358
f 233//358 323//358 324//358
f 233//358 324//358 235//358
f 235//358 324//358 207//358
f 207//358 324//358 325//358
f 207//358 325//358 205//358
f 205//358 325//358 326//358
f 205//358 326//358 203//358
f 203//358 326//358 327//358
f 203//358 327//358 201//358
f 201//358 327//358 328//358
f 201//358 328//358 199//358
f 199//358 328//358 329//358
f 199//358 329//358 197//358
f 197//358 329//358 330//358
f 197//358 330//358 195//358
f 195//358 330//358 331//358
f 195//358 331//358 193//358
f 193//358 331//358 332//358
f 193//358 332//358 191//358
f 191//358 332//358 189//358
f 189//358 332//358 333//358
f 189//358 333//358 187//358
f 187//358 333//358 334//358
f 187//358 334//358 185//358
f 185//358 334//358 335//358
f 185//358 335//358 183//358
f 183//358 335//358 336//358
f 183//358 336//358 181//358
f 181//358 336//358 337//358
f 181//358 337//358 179//358
f 179//358 337//358 338//358
f 179//358 338//358 177//358
f 177//358 338//358 339//358
f 177//358 339//358 175//358
f 175//358 339//358 173//358
f 173//358 339//358 340//358
f 173//358 340//358 171//358
f 171//358 340//358 341//358
f 171//358 341//358 169//358
f 169//358 341//358 342//358
f 169//358 342//358 167//358
f 167//358 342//358 343//358
f 167//358 343//358 165//358
f 165//358 343//358 344//358
f 165//358 344//358 163//358
f 163//358 344//358 345//358
f 163//358 345//358 161//358
f 161//358 345//358 300//358
f 346//359 347//359 348//359
f 348//360 347//360 349//360
f 348//361 349//361 350//361
f 350//362 349//362 351//362
f 350//363 351//363 352//363
f 352//364 351//364 353//364
f 352//365 353//365 354//365
f 354//366 353//366 355//366
f 354//367 355//367 356//367
f 356//368 355//368 357//368
f 356//369 357//369 358//369
f 358//370 357//370 359//370
f 358//371 359//371 360//371
f 360//372 359//372 361//372
f 360//373 361//373 362//373
f 362//374 361//374 363//374
f 362//375 363//375 364//375
f 364//376 363//376 365//376
f 364//377 365//377 366//377
f 366//378 365//378 367//378
f 366//379 367//379 368//379
f 368//380 367//380 369//380
f 368//381 369//381 370//381
f 370//382 369//382 371//382
f 370//383 371//383 372//383
f 372//384 371//384 373//384
f 372//385 373//385 374//385
f 374//386 373//386 375//386
f 374//387 375//387 376//387
f 376//388 375//388 377//388
f 376//389 377//389 378//389
f 378//389 377//389 379//389
f 378//390 379//390 380//390
f 380//391 379//391 381//391
f 380//392 381//392 382//392
f 382//392 381//392 383//392
f 382//393 383//393 384//393
f 384//393 383//393 385//393
f 384//394 385//394 386//394
f 386//394 385//394 387//394
f 386//395 387//395 388//395
f 388//395 387//395 389//395
f 388//396 389//396 390//396
f 390//396 389//396 391//396
f 390//397 391//397 392//397
f 392//397 391//397 393//397
f 392//398 393//398 394//398
f 394//398 393//398 395//398
f 394//399 395//399 396//399
f 396//399 395//399 397//399
f 396//400 397//400 398//400
f 398//400 397//400 399//400
f 398//401 399//401 400//401
f 400//401 399//401 401//401
f 400//402 401//402 402//402
f 402//402 401//402 403//402
f 402//403 403//403 404//403
f 404//403 403//403 405//403
f 404//404 405//404 406//404
f 406//405 405//405 407//405
f 406//406 407//406 408//406
f 408//406 407//406 409//406
f 408//407 409//407 410//407
f 410//407 409//407 411//407
f 410//408 411//408 412//408
f 412//408 411//408 413//408
f 412//409 413//409 414//409
f 414//409 413//409 415//409
f 414//410 415//410 416//410
f 416//410 415//410 417//410
f 416//411 417//411 418//411
f 418//411 417//411 419//411
f 418//412 419//412 420//412
f 420//412 419//412 421//412
f 420//413 421//413 422//413
f 422//414 421//414 423//414
f 422//415 423//415 424//415
f 424//415 423//415 425//415
f 424//416 425//416 426//416
f 426//416 425//416 427//416
f 426//417 427//417 428//417
f 428//417 427//417 429//417
f 428//418 429//418 430//418
f 430//418 429//418 431//418
f 430//419 431//419 432//419
f 432//419 431//419 433//419
f 432//420 433//420 434//420
f 434//420 433//420 435//420
f 434//421 435//421 436//421
f 436//421 435//421 437//421
f 436//422 437//422 438//422
f 438//422 437//422 439//422
f 438//423 439//423 440//423
f 440//423 439//423 441//423
f 440//424 441//424 442//424
f 442//424 441//424 443//424
f 442//425 443//425 444//425
f 444//425 443//425 445//425
f 444//426 445//426 446//426
f 446//426 445//426 447//426
f 446//427 447//427 448//427
f 448//427 447//427 449//427
f 448//428 449//428 450//428
f 450//428 449//428 451//428
f 450//429 451//429 452//429
f 452//429 451//429 453//429
f 452//430 453//430 454//430
f 454//430 453//430 455//430
f 454//431 455//431 456//431
f 456//431 455//431 457//431
f 456//432 457//432 458//432
f 458//432 457//432 459//432
f 458//433 459//433 460//433
f 460//433 459//433 461//433
f 460//434 461//434 462//434
f 462//434 461//434 463//434
f 462//435 463//435 347//435
f 347//435 463//435 464//435
f 347//436 464//436 349//436
f 349//436 464//436 465//436
f 349//437 465//437 351//437
f 351//437 465//437 466//437
f 351//438 466//438 353//438
f 353//438 466//438 467//438
f 353//439 467//439 355//439
f 355//439 467//439 468//439
f 355//440 468//440 357//440
f 357//440 468//440 469//440
f 357//441 469//441 359//441
f 359//441 469//441 470//441
f 359//442 470//442 361//442
f 361//442 470//442 471//442
f 361//443 471//443 363//443
f 363//443 471//443 472//443
f 363//444 472//444 365//444
f 365//444 472//444 473//444
f 365//445 473//445 367//445
f 367//445 473//445 474//445
f 367//446 474//446 369//446
f 369//446 474//446 475//446
f 369//447 475//447 371//447
f 371//447 475//447 476//447
f 371//448 476//448 373//448
f 373//448 476//448 477//448
f 373//449 477//449 375//449
f 375//449 477//449 478//449
f 375//450 478//450 377//450
f 377//451 478//451 479//451
f 377//452 479//452 379//452
f 379//452 479//452 480//452
f 379//453 480//453 381//453
f 381//454 480//454 253//454
f 381//455 253//455 254//455
f 347//456 346//456 462//456
f 462//457 346//457 481//457
f 462//458 481//458 460//458
f 460//459 481//459 482//459
f 460//460 482//460 458//460
f 458//461 482//461 483//461
f 458//462 483//462 456//462
f 456//463 483//463 484//463
f 456//464 484//464 454//464
f 454//465 484//465 485//465
f 454//466 485//466 452//466
f 452//467 485//467 486//467
f 452//468 486//468 450//468
f 450//469 486//469 487//469
f 450//470 487//470 448//470
f 448//471 487//471 488//471
f 448//472 488//472 446//472
f 446//473 488//473 489//473
f 446//474 489//474 444//474
f 444//475 489//475 490//475
f 444//476 490//476 442//476
f 442//477 490//477 491//477
f 442//478 491//478 440//478
f 440//479 491//479 492//479
f 440//480 492//480 438//480
f 438//481 492//481 493//481
f 438//482 493//482 436//482
f 436//483 493//483 494//483
f 436//484 494//484 434//484
f 434//485 494//485 495//485
f 434//486 495//486 432//486
f 432//487 495//487 496//487
f 432//488 496//488 430//488
f 430//489 496//489 497//489
f 430//490 497//490 428//490
f 428//491 497//491 498//491
f 428//492 498//492 426//492
f 426//493 498//493 499//493
f 426//494 499//494 424//494
f 424//495 499//495 500//495
f 424//496 500//496 422//496
f 422//497 500//497 501//497
f 422//498 501//498 420//498
f 420//499 501//499 502//499
f 420//500 502//500 418//500
f 418//501 502//501 503//501
f 418//502 503//502 416//502
f 416//503 503//503 504//503
f 416//504 504//504 414//504
f 414//505 504//505 505//505
f 414//506 505//506 412//506
f 412//507 505//507 506//507
f 412//508 506//508 410//508
f 410//509 506//509 507//509
f 410//510 507//510 408//510
f 408//511 507//511 508//511
f 408//512 508//512 406//512
f 406//513 508//513 509//513
f 406//514 509//514 404//514
f 404//515 509//515 510//515
f 404//516 510//516 402//516
f 402//517 510//517 511//517
f 402//518 511//518 400//518
f 400//519 511//519 512//519
f 400//520 512//520 398//520
f 398//521 512//521 513//521
f 398//522 513//522 396//522
f 396//523 513//523 514//523
f 396//524 514//524 394//524
f 394//525 514//525 515//525
f 394//526 515//526 392//526
f 392//527 515//527 516//527
f 392//528 516//528 390//528
f 390//529 516//529 517//529
f 390//530 517//530 388//530
f 388//531 517//531 518//531
f 388//532 518//532 386//532
f 386//533 518//533 519//533
f 386//534 519//534 384//534
f 384//535 519//535 520//535
f 384//536 520//536 382//536
f 382//537 520//537 521//537
f 382//538 521//538 380//538
f 380//539 521//539 378//539
f 238//540 465//540 237//540
f 237//541 465//541 464//541
f 237//542 464//542 236//542
f 236//543 464//543 463//543
f 236//544 463//544 294//544
f 294//545 463//545 461//545
f 294//546 461//546 293//546
f 293//547 461//547 459//547
f 293//548 459//548 292//548
f 292//549 459//549 457//549
f 292//550 457//550 291//550
f 291//551 457//551 455//551
f 291//552 455//552 290//552
f 290//553 455//553 453//553
f 290//554 453//554 289//554
f 289//555 453//555 451//555
f 289//556 451//556 288//556
f 288//557 451//557 449//557
f 288//558 449//558 287//558
f 287//559 449//559 447//559
f 287//560 447//560 286//560
f 286//561 447//561 445//561
f 286//562 445//562 285//562
f 285//563 445//563 443//563
f 285//564 443//564 284//564
f 284//565 443//565 441//565
f 284//566 441//566 283//566
f 283//567 441//567 439//567
f 283//568 439//568 282//568
f 282//569 439//569 437//569
f 282//570 437//570 281//570
f 281//571 437//571 435//571
f 281//572 435//572 280//572
f 280//573 435//573 433//573
f 280//574 433//574 279//574
f 279//575 433//575 431//575
f 279//576 431//576 278//576
f 278//577 431//577 429//577
f 278//578 429//578 277//578
f 277//579 429//579 427//579
f 277//580 427//580 276//580
f 276//581 427//581 425//581
f 276//582 425//582 275//582
f 275//583 425//583 423//583
f 275//584 423//584 274//584
f 274//585 423//585 421//585
f 274//586 421//586 273//586
f 273//587 421//587 419//587
f 273//588 419//588 272//588
f 272//589 419//589 417//589
f 272//590 417//590 271//590
f 271//591 417//591 415//591
f 271//592 415//592 270//592
f 270//593 415//593 413//593
f 270//594 413//594 269//594
f 269//595 413//595 411//595
f 269//596 411//596 268//596
f 268//597 411//597 409//597
f 268//598 409//598 267//598
f 267//599 409//599 407//599
f 267//600 407//600 266//600
f 266//601 407//601 405//601
f 266//602 405//602 265//602
f 265//603 405//603 403//603
f 265//604 403//604 264//604
f 264//605 403//605 401//605
f 264//606 401//606 263//606
f 263//607 401//607 399//607
f 263//608 399//608 262//608
f 262//609 399//609 397//609
f 262//610 397//610 261//610
f 261//611 397//611 395//611
f 261//612 395//612 260//612
f 260//613 395//613 393//613
f 260//614 393//614 259//614
f 259//615 393//615 391//615
f 259//616 391//616 258//616
f 258//617 391//617 389//617
f 258//618 389//618 257//618
f 257//619 389//619 387//619
f 257//620 387//620 256//620
f 256//621 387//621 385//621
f 256//622 385//622 255//622
f 255//623 385//623 383//623
f 255//624 383//624 254//624
f 254//625 383//625 381//625
f 465//626 238//626 466//626
f 466//627 238//627 239//627
f 466//628 239//628 467//628
f 467//629 239//629 240//629
f 467//630 240//630 468//630
f 468//631 240//631 241//631
f 468//632 241//632 469//632
f 469//633 241//633 242//633
f 469//634 242//634 470//634
f 470//635 242//635 243//635
f 470//636 243//636 471//636
f 471//637 243//637 244//637
f 471//638 244//638 472//638
f 472//639 244//639 245//639
f 472//640 245//640 473//640
f 473//641 245//641 246//641
f 473//642 246//642 474//642
f 474//643 246//643 247//643
f 474//644 247//644 475//644
f 475//645 247//645 248//645
f 475//646 248//646 476//646
f 476//647 248//647 249//647
f 476//648 249//648 477//648
f 477//649 249//649 250//649
f 477//650 250//650 478//650
f 478//651 250//651 251//651
f 478//652 251//652 479//652
f 479//653 251//653 252//653
f 479//654 252//654 480//654
f 480//655 252//655 253//655
f 522//656 494//656 523//656
f 523//656 494//656 493//656
f 523//656 493//656 524//656
f 524//656 493//656 492//656
f 524//656 492//656 525//656
f 525//656 492//656 491//656
f 525//656 491//656 526//656
f 526//656 491//656 490//656
f 526//656 490//656 527//656
f 527//656 490//656 489//656
f 527//656 489//656 488//656
f 494//656 522//656 495//656
f 495//656 522//656 528//656
f 495//656 528//656 496//656
f 496//656 528//656 529//656
f 496//656 529//656 497//656
f 497//656 529//656 530//656
f 497//656 530//656 498//656
f 498//656 530//656 499//656
f 499//656 530//656 531//656
f 499//656 531//656 500//656
f 500//656 531//656 532//656
f 500//656 532//656 501//656
f 501//656 532//656 533//656
f 501//656 533//656 502//656
f 502//656 533//656 534//656
f 502//656 534//656 503//656
f 503//656 534//656 535//656
f 503//656 535//656 504//656
f 504//656 535//656 536//656
f 504//656 536//656 505//656
f 505//656 536//656 537//656
f 505//656 537//656 506//656
f 506//656 537//656 507//656
f 507//656 537//656 538//656
f 507//656 538//656 508//656
f 508//656 538//656 539//656
f 508//656 539//656 509//656
f 509//656 539//656 540//656
f 509//656 540//656 510//656
f 510//656 540//656 541//656
f 510//656 541//656 511//656
f 511//656 541//656 542//656
f 511//656 542//656 512//656
f 512//656 542//656 543//656
f 512//656 543//656 513//656
f 513//656 543//656 544//656
f 513//656 544//656 514//656
f 514//656 544//656 515//656
f 515//656 544//656 545//656
f 515//656 545//656 516//656
f 516//656 545//656 546//656
f 516//656 546//656 517//656
f 517//656 546//656 547//656
f 517//656 547//656 518//656
f 518//656 547//656 548//656
f 518//656 548//656 519//656
f 519//656 548//656 549//656
f 519//656 549//656 520//656
f 520//656 549//656 550//656
f 520//656 550//656 521//656
f 521//656 550//656 551//656
f 521//656 551//656 378//656
f 378//656 551//656 552//656
f 378//656 552//656 376//656
f 376//656 552//656 374//656
f 374//656 552//656 553//656
f 374//656 553//656 372//656
f 372//656 553//656 554//656
f 372//656 554//656 370//656
f 370//656 554//656 555//656
f 370//656 555//656 368//656
f 368//656 555//656 556//656
f 368//656 556//656 366//656
f 366//656 556//656 557//656
f 366//656 557//656 364//656
f 364//656 557//656 558//656
f 364//656 558//656 362//656
f 362//656 558//656 559//656
f 362//656 559//656 360//656
f 360//656 559//656 358//656
f 358//656 559//656 560//656
f 358//656 560//656 356//656
f 356//656 560//656 561//656
f 356//656 561//656 354//656
f 354//656 561//656 562//656
f 354//656 562//656 352//656
f 352//656 562//656 563//656
f 352//656 563//656 350//656
f 350//656 563//656 564//656
f 350//656 564//656 348//656
f 348//656 564//656 565//656
f 348//656 565//656 346//656
f 346//656 565//656 566//656
f 346//656 566//656 481//656
f 481//656 566//656 482//656
f 482//656 566//656 567//656
f 482//656 567//656 483//656
f 483//656 567//656 568//656
f 483//656 568//656 484//656
f 484//656 568//656 569//656
f 484//656 569//656 485//656
f 485//656 569//656 570//656
f 485//656 570//656 486//656
f 486//656 570//656 571//656
f 486//656 571//656 487//656
f 487//656 571//656 572//656
f 487//656 572//656 488//656
f 488//656 572//656 527//656
