# Blender 4.0.2
# www.blender.org
o MP-400-CASTER-WHEEL__m0
v 27.315720 -36.546539 47.988338
v 27.471100 -35.247162 47.888340
v 27.595640 -32.632889 47.988338
v 27.561741 -31.267759 47.888340
v 27.315720 -28.719231 47.988338
v 27.076950 -27.316959 47.888340
v 26.481710 -24.885241 47.988338
v 26.026890 -23.477501 47.888340
v 25.110519 -21.208960 47.988338
v 24.433550 -19.829901 47.888340
v 23.230101 -17.765261 47.988338
v 22.330290 -16.450491 47.888340
v 20.878750 -14.624220 47.988338
v 19.761230 -13.410110 47.888340
v 18.104309 -11.849780 47.988338
v 16.780170 -10.772480 47.888340
v 14.963260 -9.498414 47.988338
v 13.449540 -8.592836 47.888340
v 11.519550 -7.617997 47.988338
v 9.839143 -6.916856 47.888340
v 7.843293 -6.246827 47.988338
v 6.024613 -5.779633 47.888340
v 4.009293 -5.412797 47.988338
v 2.085862 -5.204988 47.888340
v 0.095643 -5.132890 47.988338
v -1.894576 -5.204988 47.888340
v -3.818023 -5.412797 47.988338
v -5.833328 -5.779633 47.888340
v -7.652008 -6.246827 47.988338
v -9.647842 -6.916856 47.888340
v -11.328260 -7.617997 47.988338
v -13.258250 -8.592836 47.888340
v -14.771970 -9.498414 47.988338
v -16.588881 -10.772480 47.888340
v -17.913031 -11.849780 47.988338
v -19.569950 -13.410110 47.888340
v -20.687469 -14.624220 47.988338
v -22.139021 -16.450491 47.888340
v -23.038830 -17.765261 47.988338
v -24.242250 -19.829901 47.888340
v -24.919250 -21.208960 47.988338
v -25.835590 -23.477501 47.888340
v -26.290421 -24.885241 47.988338
v -26.885670 -27.316959 47.888340
v -27.124451 -28.719231 47.988338
v -27.370449 -31.267759 47.888340
v -27.404341 -32.632889 47.988338
v -27.279819 -35.247162 47.888340
v -27.124451 -36.546539 47.988338
v -26.615650 -39.171810 47.888340
v -26.290421 -40.380520 47.988338
v -25.391850 -42.959438 47.888340
v -24.919250 -44.056789 47.988338
v -23.634081 -46.530750 47.888340
v -23.038830 -47.500500 47.988338
v -21.379150 -49.810871 47.888340
v -20.687469 -50.641541 47.988338
v -18.674299 -52.731110 47.888340
v -17.913031 -53.415981 47.988338
v -15.576230 -55.230270 47.888340
v -14.771970 -55.767349 47.988338
v -12.149810 -57.256008 47.888340
v -11.328260 -57.647758 47.988338
v -8.466857 -58.765869 47.888340
v -7.652008 -59.018929 47.988338
v -5.097335 -59.638119 47.888340
v -3.818023 -59.852970 47.988338
v -1.644637 -60.077770 47.888340
v 0.095643 -60.132889 47.988338
v 1.835938 -60.077770 47.888340
v 4.009293 -59.852970 47.988338
v 5.288620 -59.638119 47.888340
v 7.843293 -59.018929 47.988338
v 8.658143 -58.765869 47.888340
v 11.519550 -57.647758 47.988338
v 12.341110 -57.256008 47.888340
v 14.963260 -55.767349 47.988338
v 15.767520 -55.230270 47.888340
v 18.104309 -53.415981 47.988338
v 18.865589 -52.731110 47.888340
v 20.878750 -50.641541 47.988338
v 21.570440 -49.810871 47.888340
v 23.230101 -47.500500 47.988338
v 23.825350 -46.530750 47.888340
v 25.110519 -44.056789 47.988338
v 25.583130 -42.959438 47.888340
v 26.481710 -40.380520 47.988338
v 26.806931 -39.171810 47.888340
v -23.904369 -31.310350 18.785650
v -25.066530 -31.134020 18.621210
v -26.041180 -30.636810 18.157570
v -26.682039 -29.903410 17.473660
v -26.904360 -29.047001 16.675039
v -23.904369 9.866683 36.912300
v -25.065451 9.866683 36.672192
v -26.040010 9.866683 35.994652
v -26.681601 9.866683 34.994080
v -26.904360 9.866683 33.824848
v -26.904360 9.866683 26.264080
v -26.904360 -23.499001 11.501440
v -25.904360 13.253690 22.381510
v -25.904360 9.866683 23.898979
v -26.645950 9.866683 24.979019
v -25.904360 26.205990 -2.441778
v -25.904360 25.513269 -6.087944
v -25.904360 24.288420 -9.591376
v -25.904360 22.558380 -12.874870
v -25.904360 20.361280 -15.866050
v -25.904360 17.745590 -18.499010
v -25.904360 14.768920 -20.715700
v -25.904360 11.496860 -22.467291
v -25.904360 -16.064140 -17.532770
v -25.904360 -18.525209 -14.754720
v -25.904360 -20.547871 -11.642940
v -25.904360 -22.087561 -8.266007
v -26.646259 -22.555559 10.621680
v -25.904360 -21.761070 9.880793
v -25.904360 -22.911520 6.352224
v -25.904360 -23.526920 2.692220
v -25.904360 -23.593679 -1.018564
v -25.904360 -23.110340 -4.698336
v -25.904360 -13.218900 -19.915840
v -25.904360 -10.052250 -21.851440
v -25.904360 -6.633897 -23.296890
v -25.904360 -3.039247 -24.220350
v -25.904360 0.652511 -24.601450
v -25.904360 4.360015 -24.431810
v -25.904360 8.001556 -23.715160
v -25.904360 26.351259 1.266760
v -25.904360 25.945890 4.955938
v -25.904360 24.998819 8.544451
v -25.904360 23.530939 11.953210
v -25.904360 21.574570 15.107100
v -25.904360 19.172850 17.936590
v -25.904360 16.378691 20.379339
v 26.095640 -22.911520 6.352224
v 26.095640 -21.761070 9.880793
v 26.837540 -22.555559 10.621680
v 27.095640 -23.499001 11.501440
v 26.095640 -13.218900 -19.915840
v 26.095640 -10.052250 -21.851440
v 26.095640 -6.633897 -23.296890
v 26.095640 -3.039247 -24.220350
v 26.095640 0.652511 -24.601450
v 26.095640 4.360015 -24.431810
v 26.095640 8.001556 -23.715160
v 26.095640 11.496860 -22.467291
v 26.095640 26.351259 1.266760
v 26.095640 25.945890 4.955938
v 26.095640 24.998819 8.544451
v 26.095640 23.530939 11.953210
v 27.095640 9.866683 26.264080
v 26.837240 9.866683 24.979019
v 26.095640 9.866683 23.898979
v 26.095640 13.253690 22.381510
v 26.095640 16.378691 20.379339
v 26.095640 19.172850 17.936590
v 26.095640 21.574570 15.107100
v 26.095640 26.205990 -2.441778
v 26.095640 25.513269 -6.087944
v 26.095640 24.288420 -9.591376
v 26.095640 22.558380 -12.874870
v 26.095640 20.361280 -15.866050
v 26.095640 17.745590 -18.499010
v 26.095640 14.768920 -20.715700
v 26.095640 -16.064140 -17.532770
v 26.095640 -18.525209 -14.754720
v 26.095640 -20.547871 -11.642940
v 26.095640 -22.087561 -8.266007
v 26.095640 -23.110340 -4.698336
v 26.095640 -23.593679 -1.018564
v 26.095640 -23.526920 2.692220
v 24.095640 9.866683 36.912300
v 25.256710 9.866683 36.672192
v 26.231279 9.866683 35.994652
v 26.872881 9.866683 34.994080
v 27.095640 9.866683 33.824848
v 24.095640 -31.310350 18.785650
v 25.257811 -31.134020 18.621210
v 26.232470 -30.636810 18.157570
v 26.873320 -29.903410 17.473660
v 27.095640 -29.047001 16.675039
v -25.904360 9.866683 -19.612570
v -31.904360 9.866683 -19.612570
v -31.904360 -58.765869 44.388329
v 32.095631 -58.765869 44.388329
v 32.095631 9.866683 -19.612570
v 26.095640 9.866683 -19.612570
v -31.904360 -58.765869 47.888340
v -31.904360 9.866683 47.888340
v 32.095631 9.866683 47.888340
v 32.095631 -58.765869 47.888340
vn 0.8467 -0.0606 0.5287
vn 0.8383 -0.0191 -0.5449
vn 0.8417 0.0602 0.5365
vn 0.8276 0.1016 -0.5520
vn 0.8202 0.1784 0.5435
vn 0.8001 0.2188 -0.5586
vn 0.7826 0.2919 0.5498
vn 0.7566 0.3305 -0.5642
vn 0.7300 0.3986 0.5552
vn 0.6981 0.4345 -0.5691
vn 0.6633 0.4965 0.5599
vn 0.6258 0.5288 -0.5734
vn 0.5839 0.5839 0.5640
vn 0.5413 0.6118 -0.5769
vn 0.4935 0.6592 0.5673
vn 0.4462 0.6818 -0.5798
vn 0.3938 0.7212 0.5699
vn 0.3424 0.7375 -0.5821
vn 0.2867 0.7687 0.5718
vn 0.2320 0.7781 -0.5837
vn 0.1742 0.8008 0.5731
vn 0.1171 0.8028 -0.5846
vn 0.0584 0.8169 0.5738
vn -0.0000 0.8112 -0.5848
vn -0.0584 0.8169 0.5738
vn -0.1171 0.8028 -0.5846
vn -0.1742 0.8008 0.5731
vn -0.2320 0.7781 -0.5837
vn -0.2867 0.7687 0.5718
vn -0.3424 0.7375 -0.5821
vn -0.3938 0.7212 0.5699
vn -0.4462 0.6818 -0.5798
vn -0.4935 0.6592 0.5673
vn -0.5413 0.6118 -0.5769
vn -0.5839 0.5839 0.5640
vn -0.6258 0.5288 -0.5733
vn -0.6633 0.4965 0.5599
vn -0.6981 0.4344 -0.5692
vn -0.7300 0.3986 0.5551
vn -0.7565 0.3305 -0.5644
vn -0.7827 0.2919 0.5497
vn -0.8001 0.2188 -0.5586
vn -0.8202 0.1784 0.5435
vn -0.8276 0.1015 -0.5521
vn -0.8417 0.0602 0.5365
vn -0.8383 -0.0191 -0.5448
vn -0.8467 -0.0605 0.5287
vn -0.8319 -0.1408 -0.5368
vn -0.8347 -0.1816 0.5199
vn -0.8082 -0.2611 -0.5278
vn -0.8058 -0.3006 0.5102
vn -0.7674 -0.3777 -0.5181
vn -0.7603 -0.4151 0.4997
vn -0.7102 -0.4883 -0.5071
vn -0.6987 -0.5231 0.4880
vn -0.6373 -0.5903 -0.4954
vn -0.6221 -0.6221 0.4753
vn -0.5500 -0.6818 -0.4825
vn -0.5317 -0.7102 0.4615
vn -0.4496 -0.7605 -0.4684
vn -0.4288 -0.7853 0.4465
vn -0.3381 -0.8248 -0.4531
vn -0.3155 -0.8458 0.4302
vn -0.2321 -0.8964 -0.3775
vn -0.1807 -0.8305 0.5269
vn -0.1123 -0.8818 -0.4581
vn -0.0587 -0.8203 0.5689
vn -0.0000 -0.8758 -0.4827
vn 0.0587 -0.8202 0.5690
vn 0.1123 -0.8818 -0.4581
vn 0.1807 -0.8305 0.5269
vn 0.2321 -0.8964 -0.3776
vn 0.3154 -0.8458 0.4303
vn 0.3381 -0.8248 -0.4532
vn 0.4288 -0.7853 0.4465
vn 0.4497 -0.7606 -0.4684
vn 0.5317 -0.7102 0.4615
vn 0.5500 -0.6818 -0.4824
vn 0.6221 -0.6221 0.4753
vn 0.6373 -0.5903 -0.4953
vn 0.6987 -0.5230 0.4881
vn 0.7102 -0.4882 -0.5072
vn 0.7603 -0.4151 0.4997
vn 0.7674 -0.3777 -0.5180
vn 0.8058 -0.3006 0.5102
vn 0.8082 -0.2611 -0.5279
vn 0.8347 -0.1816 0.5199
vn 0.8320 -0.1408 -0.5367
vn -0.0000 -0.0000 -1.0000
vn -0.0000 -0.0000 1.0000
vn -0.0000 -0.6820 -0.7314
vn -1.0000 -0.0000 -0.0000
vn 1.0000 -0.0000 -0.0000
vn -0.0000 1.0000 -0.0000
vn -0.0000 -1.0000 -0.0000
s 0
f 1//1 2//1 3//1
f 3//2 2//2 4//2
f 3//3 4//3 5//3
f 5//4 4//4 6//4
f 5//5 6//5 7//5
f 7//6 6//6 8//6
f 7//7 8//7 9//7
f 9//8 8//8 10//8
f 9//9 10//9 11//9
f 11//10 10//10 12//10
f 11//11 12//11 13//11
f 13//12 12//12 14//12
f 13//13 14//13 15//13
f 15//14 14//14 16//14
f 15//15 16//15 17//15
f 17//16 16//16 18//16
f 17//17 18//17 19//17
f 19//18 18//18 20//18
f 19//19 20//19 21//19
f 21//20 20//20 22//20
f 21//21 22//21 23//21
f 23//22 22//22 24//22
f 23//23 24//23 25//23
f 25//24 24//24 26//24
f 25//25 26//25 27//25
f 27//26 26//26 28//26
f 27//27 28//27 29//27
f 29//28 28//28 30//28
f 29//29 30//29 31//29
f 31//30 30//30 32//30
f 31//31 32//31 33//31
f 33//32 32//32 34//32
f 33//33 34//33 35//33
f 35//34 34//34 36//34
f 35//35 36//35 37//35
f 37//36 36//36 38//36
f 37//37 38//37 39//37
f 39//38 38//38 40//38
f 39//39 40//39 41//39
f 41//40 40//40 42//40
f 41//41 42//41 43//41
f 43//42 42//42 44//42
f 43//43 44//43 45//43
f 45//44 44//44 46//44
f 45//45 46//45 47//45
f 47//46 46//46 48//46
f 47//47 48//47 49//47
f 49//48 48//48 50//48
f 49//49 50//49 51//49
f 51//50 50//50 52//50
f 51//51 52//51 53//51
f 53//52 52//52 54//52
f 53//53 54//53 55//53
f 55//54 54//54 56//54
f 55//55 56//55 57//55
f 57//56 56//56 58//56
f 57//57 58//57 59//57
f 59//58 58//58 60//58
f 59//59 60//59 61//59
f 61//60 60//60 62//60
f 61//61 62//61 63//61
f 63//62 62//62 64//62
f 63//63 64//63 65//63
f 65//64 64//64 66//64
f 65//65 66//65 67//65
f 67//66 66//66 68//66
f 67//67 68//67 69//67
f 69//68 68//68 70//68
f 69//69 70//69 71//69
f 71//70 70//70 72//70
f 71//71 72//71 73//71
f 73//72 72//72 74//72
f 73//73 74//73 75//73
f 75//74 74//74 76//74
f 75//75 76//75 77//75
f 77//76 76//76 78//76
f 77//77 78//77 79//77
f 79//78 78//78 80//78
f 79//79 80//79 81//79
f 81//80 80//80 82//80
f 81//81 82//81 83//81
f 83//82 82//82 84//82
f 83//83 84//83 85//83
f 85//84 84//84 86//84
f 85//85 86//85 87//85
f 87//86 86//86 88//86
f 87//87 88//87 1//87
f 1//88 88//88 2//88
f 64//89 74//89 66//89
f 66//89 74//89 68//89
f 68//89 74//89 70//89
f 70//89 74//89 72//89
f 5//90 45//90 3//90
f 3//90 45//90 47//90
f 3//90 47//90 1//90
f 1//90 47//90 49//90
f 1//90 49//90 87//90
f 87//90 49//90 51//90
f 87//90 51//90 85//90
f 85//90 51//90 53//90
f 85//90 53//90 83//90
f 83//90 53//90 55//90
f 83//90 55//90 81//90
f 81//90 55//90 57//90
f 81//90 57//90 79//90
f 79//90 57//90 59//90
f 79//90 59//90 77//90
f 77//90 59//90 61//90
f 77//90 61//90 75//90
f 75//90 61//90 63//90
f 75//90 63//90 73//90
f 73//90 63//90 65//90
f 73//90 65//90 71//90
f 71//90 65//90 67//90
f 71//90 67//90 69//90
f 45//90 5//90 43//90
f 43//90 5//90 7//90
f 43//90 7//90 41//90
f 41//90 7//90 9//90
f 41//90 9//90 39//90
f 39//90 9//90 11//90
f 39//90 11//90 37//90
f 37//90 11//90 13//90
f 37//90 13//90 35//90
f 35//90 13//90 15//90
f 35//90 15//90 33//90
f 33//90 15//90 17//90
f 33//90 17//90 31//90
f 31//90 17//90 19//90
f 31//90 19//90 29//90
f 29//90 19//90 21//90
f 29//90 21//90 27//90
f 27//90 21//90 23//90
f 27//90 23//90 25//90
f 183//91 117//91 184//91
f 184//91 117//91 116//91
f 184//91 116//91 100//91
f 184//91 100//91 185//91
f 185//91 100//91 93//91
f 185//91 93//91 92//91
f 92//91 91//91 185//91
f 185//91 91//91 90//91
f 185//91 90//91 89//91
f 89//91 178//91 185//91
f 185//91 178//91 186//91
f 186//91 178//91 179//91
f 186//91 179//91 180//91
f 180//91 181//91 186//91
f 186//91 181//91 182//91
f 186//91 182//91 139//91
f 186//91 139//91 187//91
f 187//91 139//91 138//91
f 187//91 138//91 137//91
f 137//91 188//91 187//91
f 117//92 183//92 118//92
f 118//92 183//92 119//92
f 119//92 183//92 120//92
f 120//92 183//92 121//92
f 121//92 183//92 115//92
f 115//92 183//92 114//92
f 114//92 183//92 113//92
f 113//92 183//92 112//92
f 112//92 183//92 122//92
f 122//92 183//92 123//92
f 123//92 183//92 124//92
f 124//92 183//92 125//92
f 125//92 183//92 126//92
f 126//92 183//92 127//92
f 127//92 183//92 128//92
f 128//92 183//92 111//92
f 111//92 183//92 110//92
f 110//92 183//92 109//92
f 109//92 183//92 108//92
f 108//92 183//92 107//92
f 107//92 183//92 106//92
f 106//92 183//92 105//92
f 105//92 183//92 104//92
f 104//92 183//92 129//92
f 129//92 183//92 130//92
f 130//92 183//92 131//92
f 131//92 183//92 132//92
f 132//92 183//92 133//92
f 133//92 183//92 134//92
f 134//92 183//92 135//92
f 135//92 183//92 101//92
f 101//92 183//92 102//92
f 137//93 136//93 188//93
f 188//93 136//93 172//93
f 188//93 172//93 171//93
f 171//93 170//93 188//93
f 188//93 170//93 169//93
f 188//93 169//93 168//93
f 168//93 167//93 188//93
f 188//93 167//93 166//93
f 188//93 166//93 140//93
f 140//93 141//93 188//93
f 188//93 141//93 142//93
f 188//93 142//93 143//93
f 143//93 144//93 188//93
f 188//93 144//93 145//93
f 188//93 145//93 146//93
f 146//93 147//93 188//93
f 188//93 147//93 165//93
f 188//93 165//93 164//93
f 164//93 163//93 188//93
f 188//93 163//93 162//93
f 188//93 162//93 161//93
f 161//93 160//93 188//93
f 188//93 160//93 159//93
f 188//93 159//93 148//93
f 148//93 149//93 188//93
f 188//93 149//93 150//93
f 188//93 150//93 151//93
f 151//93 158//93 188//93
f 188//93 158//93 157//93
f 188//93 157//93 156//93
f 156//93 155//93 188//93
f 188//93 155//93 154//93
f 189//92 190//92 185//92
f 185//92 190//92 184//92
f 183//94 184//94 102//94
f 102//94 184//94 103//94
f 103//94 184//94 99//94
f 99//94 184//94 190//94
f 99//94 190//94 98//94
f 98//94 190//94 97//94
f 97//94 190//94 96//94
f 96//94 190//94 95//94
f 95//94 190//94 94//94
f 94//94 190//94 173//94
f 173//94 190//94 191//94
f 173//94 191//94 174//94
f 174//94 191//94 175//94
f 175//94 191//94 176//94
f 176//94 191//94 177//94
f 177//94 191//94 152//94
f 152//94 191//94 187//94
f 152//94 187//94 153//94
f 153//94 187//94 154//94
f 154//94 187//94 188//94
f 192//95 74//95 186//95
f 186//95 74//95 185//95
f 185//95 74//95 64//95
f 185//95 64//95 189//95
f 64//90 62//90 189//90
f 189//90 62//90 60//90
f 189//90 60//90 58//90
f 58//90 56//90 189//90
f 189//90 56//90 54//90
f 189//90 54//90 52//90
f 52//90 50//90 189//90
f 189//90 50//90 48//90
f 189//90 48//90 46//90
f 189//90 46//90 190//90
f 190//90 46//90 44//90
f 190//90 44//90 42//90
f 42//90 40//90 190//90
f 190//90 40//90 38//90
f 190//90 38//90 36//90
f 36//90 34//90 190//90
f 190//90 34//90 32//90
f 190//90 32//90 30//90
f 30//90 28//90 190//90
f 190//90 28//90 26//90
f 190//90 26//90 24//90
f 190//90 24//90 191//90
f 191//90 24//90 22//90
f 191//90 22//90 20//90
f 20//90 18//90 191//90
f 191//90 18//90 16//90
f 191//90 16//90 14//90
f 14//90 12//90 191//90
f 191//90 12//90 10//90
f 191//90 10//90 8//90
f 8//90 6//90 191//90
f 191//90 6//90 4//90
f 191//90 4//90 192//90
f 192//90 4//90 2//90
f 192//90 2//90 88//90
f 88//90 86//90 192//90
f 192//90 86//90 84//90
f 192//90 84//90 82//90
f 82//90 80//90 192//90
f 192//90 80//90 78//90
f 192//90 78//90 76//90
f 76//90 74//90 192//90
f 187//93 191//93 186//93
f 186//93 191//93 192//93
