# Blender 4.0.2
# www.blender.org
o MP-400-FIXED-WHEEL-RIGHT__m0
v -14.082110 6.758856 -54.583111
v -14.082110 0.000000 -54.999981
v -14.082110 -6.758856 -54.583111
v -14.082110 -13.415250 -53.338810
v -14.082110 -19.868290 -51.285961
v -14.082110 -26.020149 -48.455650
v -14.082110 13.415250 -53.338810
v -14.082110 19.868290 -51.285961
v -14.082110 26.020149 -48.455650
v -14.082110 31.777559 -44.890808
v -14.082110 37.053261 -40.645470
v -14.082110 41.767269 -35.783989
v -14.082110 45.848129 -30.380060
v -14.082110 49.233978 -24.515600
v -14.082110 51.873489 -18.279499
v -14.082110 53.726662 -11.766300
v -14.082110 54.765381 -5.074745
v -14.082110 54.973911 1.693748
v -14.082110 54.349098 8.436554
v -14.082110 52.900410 15.051480
v -14.082110 50.649799 21.438240
v -14.082110 47.631401 27.500019
v -14.082110 43.890949 33.144920
v -14.082110 39.485161 38.287380
v -14.082110 34.480808 42.849449
v -14.082110 28.953770 46.761951
v -14.082110 22.987820 49.965611
v -14.082110 16.673401 52.411831
v -14.082110 10.106220 54.063541
v -14.082110 3.385850 54.895699
v -14.082110 -3.385849 54.895699
v -14.082110 -10.106220 54.063541
v -14.082110 -16.673401 52.411831
v -14.082110 -22.987820 49.965611
v -14.082110 -28.953770 46.761951
v -14.082110 -34.480808 42.849449
v -14.082110 -39.485161 38.287380
v -14.082110 -43.890949 33.144920
v -14.082110 -47.631401 27.500019
v -14.082110 -50.649799 21.438240
v -14.082110 -52.900410 15.051480
v -14.082110 -54.349098 8.436554
v -14.082110 -54.973911 1.693748
v -14.082110 -54.765381 -5.074745
v -14.082110 -53.726662 -11.766300
v -14.082110 -51.873489 -18.279499
v -14.082110 -49.233978 -24.515600
v -14.082110 -45.848129 -30.380060
v -14.082110 -41.767269 -35.783989
v -14.082110 -37.053261 -40.645470
v -14.082110 -31.777559 -44.890808
v 15.917890 -6.758856 -54.583111
v 15.917890 0.000000 -54.999981
v 15.917890 6.758856 -54.583111
v 15.917890 13.415250 -53.338810
v 15.917890 19.868290 -51.285961
v 15.917890 26.020149 -48.455650
v 15.917890 -13.415250 -53.338810
v 15.917890 -19.868290 -51.285961
v 15.917890 -26.020149 -48.455650
v 15.917890 -31.777559 -44.890808
v 15.917890 -37.053261 -40.645470
v 15.917890 -41.767269 -35.783989
v 15.917890 -45.848129 -30.380060
v 15.917890 -49.233978 -24.515600
v 15.917890 -51.873489 -18.279499
v 15.917890 -53.726662 -11.766300
v 15.917890 -54.765381 -5.074745
v 15.917890 -54.973911 1.693748
v 15.917890 -54.349098 8.436554
v 15.917890 -52.900410 15.051480
v 15.917890 -50.649799 21.438240
v 15.917890 -47.631401 27.500019
v 15.917890 -43.890949 33.144920
v 15.917890 -39.485161 38.287380
v 15.917890 -34.480808 42.849449
v 15.917890 -28.953770 46.761951
v 15.917890 -22.987820 49.965611
v 15.917890 -16.673401 52.411831
v 15.917890 -10.106220 54.063541
v 15.917890 -3.385849 54.895699
v 15.917890 3.385850 54.895699
v 15.917890 10.106220 54.063541
v 15.917890 16.673401 52.411831
v 15.917890 22.987820 49.965611
v 15.917890 28.953770 46.761951
v 15.917890 34.480808 42.849449
v 15.917890 39.485161 38.287380
v 15.917890 43.890949 33.144920
v 15.917890 47.631401 27.500019
v 15.917890 50.649799 21.438240
v 15.917890 52.900410 15.051480
v 15.917890 54.349098 8.436554
v 15.917890 54.973911 1.693748
v 15.917890 54.765381 -5.074745
v 15.917890 53.726662 -11.766300
v 15.917890 51.873489 -18.279499
v 15.917890 49.233978 -24.515600
v 15.917890 45.848129 -30.380060
v 15.917890 41.767269 -35.783989
v 15.917890 37.053261 -40.645470
v 15.917890 31.777559 -44.890808
v -14.382110 -6.264487 -46.580631
v -14.082110 -6.264487 -46.580631
v -14.382110 0.000000 -46.999981
v -14.082110 0.000000 -46.999981
v -14.382110 6.264487 -46.580631
v -14.082110 6.264487 -46.580631
v -14.382110 12.417180 -45.330029
v -14.082110 12.417180 -45.330029
v -14.382110 18.348301 -43.270531
v -14.082110 18.348301 -43.270531
v -14.382110 23.951981 -40.438862
v -14.082110 23.951981 -40.438862
v -14.382110 29.128250 -36.885551
v -14.082110 29.128250 -36.885551
v -14.382110 33.784710 -32.674030
v -14.082110 33.784710 -32.674030
v -14.382110 37.838291 -27.879431
v -14.082110 37.838291 -27.879431
v -14.382110 41.216640 -22.587330
v -14.082110 41.216640 -22.587330
v -14.382110 43.859482 -16.892151
v -14.082110 43.859482 -16.892151
v -14.382110 45.719662 -10.895530
v -14.082110 45.719662 -10.895530
v -14.382110 46.763962 -4.704483
v -14.082110 46.763962 -4.704483
v -14.382110 46.973751 1.570518
v -14.082110 46.973751 1.570518
v -14.382110 46.345299 7.817490
v -14.082110 46.345299 7.817490
v -14.382110 44.889820 13.924960
v -14.082110 44.889820 13.924960
v -14.382110 42.633270 19.783951
v -14.082110 42.633270 19.783951
v -14.382110 39.615940 25.289890
v -14.082110 39.615940 25.289890
v -14.382110 35.891651 30.344521
v -14.082110 35.891651 30.344521
v -14.382110 31.526880 34.857658
v -14.082110 31.526880 34.857658
v -14.382110 26.599510 38.748760
v -14.082110 26.599510 38.748760
v -14.382110 21.197479 41.948399
v -14.082110 21.197479 41.948399
v -14.382110 15.417170 44.399460
v -14.082110 15.417170 44.399460
v -14.382110 9.361742 46.058208
v -14.082110 9.361742 46.058208
v -14.382110 3.139255 46.895061
v -14.082110 3.139255 46.895061
v -14.382110 -3.139254 46.895061
v -14.082110 -3.139254 46.895061
v -14.382110 -9.361742 46.058208
v -14.082110 -9.361742 46.058208
v -14.382110 -15.417170 44.399460
v -14.082110 -15.417170 44.399460
v -14.382110 -21.197479 41.948399
v -14.082110 -21.197479 41.948399
v -14.382110 -26.599510 38.748760
v -14.082110 -26.599510 38.748760
v -14.382110 -31.526880 34.857658
v -14.082110 -31.526880 34.857658
v -14.382110 -35.891651 30.344521
v -14.082110 -35.891651 30.344521
v -14.382110 -39.615940 25.289890
v -14.082110 -39.615940 25.289890
v -14.382110 -42.633270 19.783951
v -14.082110 -42.633270 19.783951
v -14.382110 -44.889820 13.924960
v -14.082110 -44.889820 13.924960
v -14.382110 -46.345299 7.817490
v -14.082110 -46.345299 7.817490
v -14.382110 -46.973751 1.570518
v -14.082110 -46.973751 1.570518
v -14.382110 -46.763962 -4.704483
v -14.082110 -46.763962 -4.704483
v -14.382110 -45.719662 -10.895530
v -14.082110 -45.719662 -10.895530
v -14.382110 -43.859482 -16.892151
v -14.082110 -43.859482 -16.892151
v -14.382110 -41.216640 -22.587330
v -14.082110 -41.216640 -22.587330
v -14.382110 -37.838291 -27.879431
v -14.082110 -37.838291 -27.879431
v -14.382110 -33.784710 -32.674030
v -14.082110 -33.784710 -32.674030
v -14.382110 -29.128250 -36.885551
v -14.082110 -29.128250 -36.885551
v -14.382110 -23.951981 -40.438862
v -14.082110 -23.951981 -40.438862
v -14.382110 -18.348301 -43.270531
v -14.082110 -18.348301 -43.270531
v -14.382110 -12.417180 -45.330029
v -14.082110 -12.417180 -45.330029
v -14.382110 6.758856 -54.583111
v -14.382110 0.000000 -54.999981
v -14.382110 -6.758856 -54.583111
v -14.382110 -13.415250 -53.338810
v -14.382110 -19.868290 -51.285961
v -14.382110 -26.020149 -48.455650
v -14.382110 -31.777559 -44.890808
v -14.382110 -37.053261 -40.645470
v -14.382110 -41.767269 -35.783989
v -14.382110 -45.848129 -30.380060
v -14.382110 -49.233978 -24.515600
v -14.382110 -51.873489 -18.279499
v -14.382110 -53.726662 -11.766300
v -14.382110 -54.765381 -5.074745
v -14.382110 -54.973911 1.693748
v -14.382110 -54.349098 8.436554
v -14.382110 -52.900410 15.051480
v -14.382110 -50.649799 21.438240
v -14.382110 -47.631401 27.500019
v -14.382110 -43.890949 33.144920
v -14.382110 -39.485161 38.287380
v -14.382110 -34.480808 42.849449
v -14.382110 -28.953770 46.761951
v -14.382110 -22.987820 49.965611
v -14.382110 -16.673401 52.411831
v -14.382110 -10.106220 54.063541
v -14.382110 -3.385849 54.895699
v -14.382110 3.385850 54.895699
v -14.382110 10.106220 54.063541
v -14.382110 16.673401 52.411831
v -14.382110 22.987820 49.965611
v -14.382110 28.953770 46.761951
v -14.382110 34.480808 42.849449
v -14.382110 39.485161 38.287380
v -14.382110 43.890949 33.144920
v -14.382110 47.631401 27.500019
v -14.382110 50.649799 21.438240
v -14.382110 52.900410 15.051480
v -14.382110 54.349098 8.436554
v -14.382110 54.973911 1.693748
v -14.382110 54.765381 -5.074745
v -14.382110 53.726662 -11.766300
v -14.382110 51.873489 -18.279499
v -14.382110 49.233978 -24.515600
v -14.382110 45.848129 -30.380060
v -14.382110 41.767269 -35.783989
v -14.382110 37.053261 -40.645470
v -14.382110 31.777559 -44.890808
v -14.382110 26.020149 -48.455650
v -14.382110 19.868290 -51.285961
v -14.382110 13.415250 -53.338810
v 15.817880 -6.758856 -54.583111
v 15.817880 0.000000 -54.999981
v 15.817880 6.758856 -54.583111
v 15.817880 13.415250 -53.338810
v 15.817880 19.868290 -51.285961
v 15.817880 26.020149 -48.455650
v 15.817880 31.777559 -44.890808
v 15.817880 37.053261 -40.645470
v 15.817880 41.767269 -35.783989
v 15.817880 45.848129 -30.380060
v 15.817880 49.233978 -24.515600
v 15.817880 51.873489 -18.279499
v 15.817880 53.726662 -11.766300
v 15.817880 54.765381 -5.074745
v 15.817880 54.973911 1.693748
v 15.817880 54.349098 8.436554
v 15.817880 52.900410 15.051480
v 15.817880 50.649799 21.438240
v 15.817880 47.631401 27.500019
v 15.817880 43.890949 33.144920
v 15.817880 39.485161 38.287380
v 15.817880 34.480808 42.849449
v 15.817880 28.953770 46.761951
v 15.817880 22.987820 49.965611
v 15.817880 16.673401 52.411831
v 15.817880 10.106220 54.063541
v 15.817880 3.385850 54.895699
v 15.817880 -3.385849 54.895699
v 15.817880 -10.106220 54.063541
v 15.817880 -16.673401 52.411831
v 15.817880 -22.987820 49.965611
v 15.817880 -28.953770 46.761951
v 15.817880 -34.480808 42.849449
v 15.817880 -39.485161 38.287380
v 15.817880 -43.890949 33.144920
v 15.817880 -47.631401 27.500019
v 15.817880 -50.649799 21.438240
v 15.817880 -52.900410 15.051480
v 15.817880 -54.349098 8.436554
v 15.817880 -54.973911 1.693748
v 15.817880 -54.765381 -5.074745
v 15.817880 -53.726662 -11.766300
v 15.817880 -51.873489 -18.279499
v 15.817880 -49.233978 -24.515600
v 15.817880 -45.848129 -30.380060
v 15.817880 -41.767269 -35.783989
v 15.817880 -37.053261 -40.645470
v 15.817880 -31.777559 -44.890808
v 15.817880 -26.020149 -48.455650
v 15.817880 -19.868290 -51.285961
v 15.817880 -13.415250 -53.338810
v 15.817880 -6.264487 -46.580631
v 15.817880 0.000000 -46.999981
v 15.817880 -12.417180 -45.330029
v 15.817880 -18.348301 -43.270531
v 15.817880 -23.951981 -40.438862
v 15.817880 -29.128250 -36.885551
v 15.817880 -33.784710 -32.674030
v 15.817880 -37.838291 -27.879431
v 15.817880 -41.216640 -22.587330
v 15.817880 -43.859482 -16.892151
v 15.817880 -45.719662 -10.895530
v 15.817880 -46.763962 -4.704483
v 15.817880 -46.973751 1.570518
v 15.817880 -46.345299 7.817490
v 15.817880 -44.889820 13.924960
v 15.817880 -42.633270 19.783951
v 15.817880 -39.615940 25.289890
v 15.817880 -35.891651 30.344521
v 15.817880 -31.526880 34.857658
v 15.817880 -26.599510 38.748760
v 15.817880 -21.197479 41.948399
v 15.817880 -15.417170 44.399460
v 15.817880 -9.361742 46.058208
v 15.817880 -3.139254 46.895061
v 15.817880 3.139255 46.895061
v 15.817880 9.361742 46.058208
v 15.817880 15.417170 44.399460
v 15.817880 21.197479 41.948399
v 15.817880 26.599510 38.748760
v 15.817880 31.526880 34.857658
v 15.817880 35.891651 30.344521
v 15.817880 39.615940 25.289890
v 15.817880 42.633270 19.783951
v 15.817880 44.889820 13.924960
v 15.817880 46.345299 7.817490
v 15.817880 46.973751 1.570518
v 15.817880 46.763962 -4.704483
v 15.817880 45.719662 -10.895530
v 15.817880 43.859482 -16.892151
v 15.817880 41.216640 -22.587330
v 15.817880 37.838291 -27.879431
v 15.817880 33.784710 -32.674030
v 15.817880 29.128250 -36.885551
v 15.817880 23.951981 -40.438862
v 15.817880 18.348301 -43.270531
v 15.817880 12.417180 -45.330029
v 15.817880 6.264487 -46.580631
v -0.082111 6.264487 -46.580631
v -0.082111 0.000000 -46.999981
v -0.082111 -6.264487 -46.580631
v -0.082111 -12.417180 -45.330029
v -0.082111 -18.348301 -43.270531
v -0.082111 -23.951981 -40.438862
v -0.082111 -29.128250 -36.885551
v -0.082111 -33.784710 -32.674030
v -0.082111 -37.838291 -27.879431
v -0.082111 -41.216640 -22.587330
v -0.082111 -43.859482 -16.892151
v -0.082111 -45.719662 -10.895530
v -0.082111 -46.763962 -4.704483
v -0.082111 -46.973751 1.570518
v -0.082111 -46.345299 7.817490
v -0.082111 -44.889820 13.924960
v -0.082111 -42.633270 19.783951
v -0.082111 -39.615940 25.289890
v -0.082111 -35.891651 30.344521
v -0.082111 -31.526880 34.857658
v -0.082111 -26.599510 38.748760
v -0.082111 -21.197479 41.948399
v -0.082111 -15.417170 44.399460
v -0.082111 -9.361742 46.058208
v -0.082111 -3.139254 46.895061
v -0.082111 3.139255 46.895061
v -0.082111 9.361742 46.058208
v -0.082111 15.417170 44.399460
v -0.082111 21.197479 41.948399
v -0.082111 26.599510 38.748760
v -0.082111 31.526880 34.857658
v -0.082111 35.891651 30.344521
v -0.082111 39.615940 25.289890
v -0.082111 42.633270 19.783951
v -0.082111 44.889820 13.924960
v -0.082111 46.345299 7.817490
v -0.082111 46.973751 1.570518
v -0.082111 46.763962 -4.704483
v -0.082111 45.719662 -10.895530
v -0.082111 43.859482 -16.892151
v -0.082111 41.216640 -22.587330
v -0.082111 37.838291 -27.879431
v -0.082111 33.784710 -32.674030
v -0.082111 29.128250 -36.885551
v -0.082111 23.951981 -40.438862
v -0.082111 18.348301 -43.270531
v -0.082111 12.417180 -45.330029
vn -0.0000 0.0668 0.9978
vn -0.0000 -0.0668 0.9978
vn -0.0000 -0.1992 0.9800
vn -0.0000 -0.3280 0.9447
vn -0.0000 -0.4510 0.8925
vn -0.0000 -0.5659 0.8244
vn -0.0000 -0.6708 0.7417
vn -0.0000 -0.7637 0.6456
vn -0.0000 -0.8429 0.5381
vn -0.0000 -0.9071 0.4209
vn -0.0000 -0.9551 0.2963
vn -0.0000 -0.9861 0.1663
vn -0.0000 -0.9994 0.0334
vn -0.0000 -0.9950 -0.1001
vn -0.0000 -0.9728 -0.2318
vn -0.0000 -0.9332 -0.3594
vn -0.0000 -0.8770 -0.4806
vn -0.0000 -0.8051 -0.5932
vn -0.0000 -0.7188 -0.6952
vn -0.0000 -0.6197 -0.7848
vn -0.0000 -0.5096 -0.8604
vn -0.0000 -0.3904 -0.9207
vn -0.0000 -0.3904 -0.9206
vn -0.0000 -0.2642 -0.9645
vn -0.0000 -0.1333 -0.9911
vn -0.0000 -0.0000 -1.0000
vn -0.0000 0.1333 -0.9911
vn -0.0000 0.2642 -0.9645
vn -0.0000 0.3904 -0.9207
vn -0.0000 0.3904 -0.9206
vn -0.0000 0.5096 -0.8604
vn -0.0000 0.6197 -0.7848
vn -0.0000 0.7188 -0.6952
vn -0.0000 0.8051 -0.5932
vn -0.0000 0.8770 -0.4806
vn -0.0000 0.9332 -0.3594
vn -0.0000 0.9728 -0.2318
vn -0.0000 0.9950 -0.1001
vn -0.0000 0.9994 0.0334
vn -0.0000 0.9861 0.1663
vn -0.0000 0.9551 0.2963
vn -0.0000 0.9071 0.4209
vn -0.0000 0.8429 0.5381
vn -0.0000 0.7637 0.6456
vn -0.0000 0.6708 0.7417
vn -0.0000 0.5659 0.8244
vn -0.0000 0.4510 0.8925
vn -0.0000 0.3280 0.9447
vn -0.0000 0.1992 0.9800
vn -0.0000 0.0616 -0.9981
vn -0.0000 -0.0616 -0.9981
vn -0.0000 -0.1838 -0.9830
vn -0.0000 -0.1837 -0.9830
vn -0.0000 -0.3032 -0.9529
vn -0.0000 -0.4180 -0.9085
vn -0.0000 -0.5264 -0.8502
vn -0.0000 -0.6269 -0.7791
vn -0.0000 -0.7179 -0.6961
vn -0.0000 -0.7980 -0.6026
vn -0.0000 -0.8660 -0.5000
vn -0.0000 -0.9209 -0.3898
vn -0.0000 -0.9618 -0.2737
vn -0.0000 -0.9882 -0.1534
vn -0.0000 -0.9995 -0.0308
vn -0.0000 -0.9957 0.0923
vn -0.0000 -0.9768 0.2139
vn -0.0000 -0.9432 0.3324
vn -0.0000 -0.8952 0.4457
vn -0.0000 -0.8336 0.5524
vn -0.0000 -0.7594 0.6506
vn -0.0000 -0.6737 0.7390
vn -0.0000 -0.5778 0.8162
vn -0.0000 -0.4731 0.8810
vn -0.0000 -0.3612 0.9325
vn -0.0000 -0.2439 0.9698
vn -0.0000 -0.1229 0.9924
vn -0.0000 -0.0000 1.0000
vn -0.0000 0.1229 0.9924
vn -0.0000 0.2439 0.9698
vn -0.0000 0.3612 0.9325
vn -0.0000 0.4731 0.8810
vn -0.0000 0.5778 0.8162
vn -0.0000 0.6737 0.7390
vn -0.0000 0.7594 0.6506
vn -0.0000 0.8336 0.5524
vn -0.0000 0.8952 0.4457
vn -0.0000 0.9432 0.3324
vn -0.0000 0.9768 0.2139
vn -0.0000 0.9957 0.0923
vn -0.0000 0.9995 -0.0308
vn -0.0000 0.9882 -0.1534
vn -0.0000 0.9618 -0.2737
vn -0.0000 0.9209 -0.3898
vn -0.0000 0.8660 -0.5000
vn -0.0000 0.7980 -0.6026
vn -0.0000 0.7179 -0.6961
vn -0.0000 0.6269 -0.7791
vn -0.0000 0.5264 -0.8502
vn -0.0000 0.4180 -0.9085
vn -0.0000 0.3032 -0.9529
vn -0.0000 0.1838 -0.9830
vn -0.0000 0.1837 -0.9830
vn -1.0000 -0.0000 -0.0000
vn -0.0000 0.0616 0.9981
vn -0.0000 -0.0616 0.9981
vn -0.0000 -0.1838 0.9830
vn -0.0000 -0.1837 0.9830
vn -0.0000 -0.3032 0.9529
vn -0.0000 -0.4180 0.9085
vn -0.0000 -0.5264 0.8502
vn -0.0000 -0.6269 0.7791
vn -0.0000 -0.7179 0.6961
vn -0.0000 -0.7980 0.6026
vn -0.0000 -0.8660 0.5000
vn -0.0000 -0.9209 0.3898
vn -0.0000 -0.9618 0.2737
vn -0.0000 -0.9882 0.1534
vn -0.0000 -0.9995 0.0308
vn -0.0000 -0.9957 -0.0923
vn -0.0000 -0.9768 -0.2139
vn -0.0000 -0.9432 -0.3324
vn -0.0000 -0.8952 -0.4457
vn -0.0000 -0.8336 -0.5524
vn -0.0000 -0.7594 -0.6506
vn -0.0000 -0.6737 -0.7390
vn -0.0000 -0.5778 -0.8162
vn -0.0000 -0.4731 -0.8810
vn -0.0000 -0.3612 -0.9325
vn -0.0000 -0.2439 -0.9698
vn -0.0000 -0.1229 -0.9924
vn -0.0000 0.1229 -0.9924
vn -0.0000 0.2439 -0.9698
vn -0.0000 0.3612 -0.9325
vn -0.0000 0.4731 -0.8810
vn -0.0000 0.5778 -0.8162
vn -0.0000 0.6737 -0.7390
vn -0.0000 0.7594 -0.6506
vn -0.0000 0.8336 -0.5524
vn -0.0000 0.8952 -0.4457
vn -0.0000 0.9432 -0.3324
vn -0.0000 0.9768 -0.2139
vn -0.0000 0.9957 -0.0923
vn -0.0000 0.9995 0.0308
vn -0.0000 0.9882 0.1534
vn -0.0000 0.9618 0.2737
vn -0.0000 0.9209 0.3898
vn -0.0000 0.8660 0.5000
vn -0.0000 0.7980 0.6026
vn -0.0000 0.7179 0.6961
vn -0.0000 0.6269 0.7791
vn -0.0000 0.5264 0.8502
vn -0.0000 0.4180 0.9085
vn -0.0000 0.3032 0.9529
vn -0.0000 0.1838 0.9830
vn -0.0000 0.1837 0.9830
vn 1.0000 -0.0000 -0.0000
s 0
f 103//1 104//1 105//1
f 105//1 104//1 106//1
f 105//2 106//2 107//2
f 107//2 106//2 108//2
f 107//3 108//3 109//3
f 109//3 108//3 110//3
f 109//4 110//4 111//4
f 111//4 110//4 112//4
f 111//5 112//5 113//5
f 113//5 112//5 114//5
f 113//6 114//6 115//6
f 115//6 114//6 116//6
f 115//7 116//7 117//7
f 117//7 116//7 118//7
f 117//8 118//8 119//8
f 119//8 118//8 120//8
f 119//9 120//9 121//9
f 121//9 120//9 122//9
f 121//10 122//10 123//10
f 123//10 122//10 124//10
f 123//11 124//11 125//11
f 125//11 124//11 126//11
f 125//12 126//12 127//12
f 127//12 126//12 128//12
f 127//13 128//13 129//13
f 129//13 128//13 130//13
f 129//14 130//14 131//14
f 131//14 130//14 132//14
f 131//15 132//15 133//15
f 133//15 132//15 134//15
f 133//16 134//16 135//16
f 135//16 134//16 136//16
f 135//17 136//17 137//17
f 137//17 136//17 138//17
f 137//18 138//18 139//18
f 139//18 138//18 140//18
f 139//19 140//19 141//19
f 141//19 140//19 142//19
f 141//20 142//20 143//20
f 143//20 142//20 144//20
f 143//21 144//21 145//21
f 145//21 144//21 146//21
f 145//22 146//22 147//22
f 147//23 146//23 148//23
f 147//24 148//24 149//24
f 149//24 148//24 150//24
f 149//25 150//25 151//25
f 151//25 150//25 152//25
f 151//26 152//26 153//26
f 153//26 152//26 154//26
f 153//27 154//27 155//27
f 155//27 154//27 156//27
f 155//28 156//28 157//28
f 157//28 156//28 158//28
f 157//29 158//29 159//29
f 159//30 158//30 160//30
f 159//31 160//31 161//31
f 161//31 160//31 162//31
f 161//32 162//32 163//32
f 163//32 162//32 164//32
f 163//33 164//33 165//33
f 165//33 164//33 166//33
f 165//34 166//34 167//34
f 167//34 166//34 168//34
f 167//35 168//35 169//35
f 169//35 168//35 170//35
f 169//36 170//36 171//36
f 171//36 170//36 172//36
f 171//37 172//37 173//37
f 173//37 172//37 174//37
f 173//38 174//38 175//38
f 175//38 174//38 176//38
f 175//39 176//39 177//39
f 177//39 176//39 178//39
f 177//40 178//40 179//40
f 179//40 178//40 180//40
f 179//41 180//41 181//41
f 181//41 180//41 182//41
f 181//42 182//42 183//42
f 183//42 182//42 184//42
f 183//43 184//43 185//43
f 185//43 184//43 186//43
f 185//44 186//44 187//44
f 187//44 186//44 188//44
f 187//45 188//45 189//45
f 189//45 188//45 190//45
f 189//46 190//46 191//46
f 191//46 190//46 192//46
f 191//47 192//47 193//47
f 193//47 192//47 194//47
f 193//48 194//48 195//48
f 195//48 194//48 196//48
f 195//49 196//49 103//49
f 103//49 196//49 104//49
f 197//50 1//50 198//50
f 198//50 1//50 2//50
f 198//51 2//51 199//51
f 199//51 2//51 3//51
f 199//52 3//52 200//52
f 200//53 3//53 4//53
f 200//54 4//54 201//54
f 201//54 4//54 5//54
f 201//55 5//55 202//55
f 202//55 5//55 6//55
f 202//56 6//56 203//56
f 203//56 6//56 51//56
f 203//57 51//57 204//57
f 204//57 51//57 50//57
f 204//58 50//58 205//58
f 205//58 50//58 49//58
f 205//59 49//59 206//59
f 206//59 49//59 48//59
f 206//60 48//60 207//60
f 207//60 48//60 47//60
f 207//61 47//61 208//61
f 208//61 47//61 46//61
f 208//62 46//62 209//62
f 209//62 46//62 45//62
f 209//63 45//63 210//63
f 210//63 45//63 44//63
f 210//64 44//64 211//64
f 211//64 44//64 43//64
f 211//65 43//65 212//65
f 212//65 43//65 42//65
f 212//66 42//66 213//66
f 213//66 42//66 41//66
f 213//67 41//67 214//67
f 214//67 41//67 40//67
f 214//68 40//68 215//68
f 215//68 40//68 39//68
f 215//69 39//69 216//69
f 216//69 39//69 38//69
f 216//70 38//70 217//70
f 217//70 38//70 37//70
f 217//71 37//71 218//71
f 218//71 37//71 36//71
f 218//72 36//72 219//72
f 219//72 36//72 35//72
f 219//73 35//73 220//73
f 220//73 35//73 34//73
f 220//74 34//74 221//74
f 221//74 34//74 33//74
f 221//75 33//75 222//75
f 222//75 33//75 32//75
f 222//76 32//76 223//76
f 223//76 32//76 31//76
f 223//77 31//77 224//77
f 224//77 31//77 30//77
f 224//78 30//78 225//78
f 225//78 30//78 29//78
f 225//79 29//79 226//79
f 226//79 29//79 28//79
f 226//80 28//80 227//80
f 227//80 28//80 27//80
f 227//81 27//81 228//81
f 228//81 27//81 26//81
f 228//82 26//82 229//82
f 229//82 26//82 25//82
f 229//83 25//83 230//83
f 230//83 25//83 24//83
f 230//84 24//84 231//84
f 231//84 24//84 23//84
f 231//85 23//85 232//85
f 232//85 23//85 22//85
f 232//86 22//86 233//86
f 233//86 22//86 21//86
f 233//87 21//87 234//87
f 234//87 21//87 20//87
f 234//88 20//88 235//88
f 235//88 20//88 19//88
f 235//89 19//89 236//89
f 236//89 19//89 18//89
f 236//90 18//90 237//90
f 237//90 18//90 17//90
f 237//91 17//91 238//91
f 238//91 17//91 16//91
f 238//92 16//92 239//92
f 239//92 16//92 15//92
f 239//93 15//93 240//93
f 240//93 15//93 14//93
f 240//94 14//94 241//94
f 241//94 14//94 13//94
f 241//95 13//95 242//95
f 242//95 13//95 12//95
f 242//96 12//96 243//96
f 243//96 12//96 11//96
f 243//97 11//97 244//97
f 244//97 11//97 10//97
f 244//98 10//98 245//98
f 245//98 10//98 9//98
f 245//99 9//99 246//99
f 246//99 9//99 8//99
f 246//100 8//100 247//100
f 247//100 8//100 7//100
f 247//101 7//101 197//101
f 197//102 7//102 1//102
f 107//103 197//103 105//103
f 105//103 197//103 198//103
f 105//103 198//103 199//103
f 197//103 107//103 247//103
f 247//103 107//103 109//103
f 247//103 109//103 246//103
f 246//103 109//103 111//103
f 246//103 111//103 245//103
f 245//103 111//103 113//103
f 245//103 113//103 244//103
f 244//103 113//103 115//103
f 244//103 115//103 243//103
f 243//103 115//103 117//103
f 243//103 117//103 242//103
f 242//103 117//103 119//103
f 242//103 119//103 241//103
f 241//103 119//103 121//103
f 241//103 121//103 240//103
f 240//103 121//103 123//103
f 240//103 123//103 239//103
f 239//103 123//103 125//103
f 239//103 125//103 238//103
f 238//103 125//103 127//103
f 238//103 127//103 237//103
f 237//103 127//103 129//103
f 237//103 129//103 236//103
f 236//103 129//103 235//103
f 235//103 129//103 131//103
f 235//103 131//103 234//103
f 234//103 131//103 133//103
f 234//103 133//103 233//103
f 233//103 133//103 135//103
f 233//103 135//103 232//103
f 232//103 135//103 137//103
f 232//103 137//103 231//103
f 231//103 137//103 139//103
f 231//103 139//103 230//103
f 230//103 139//103 141//103
f 230//103 141//103 229//103
f 229//103 141//103 143//103
f 229//103 143//103 228//103
f 228//103 143//103 145//103
f 228//103 145//103 227//103
f 227//103 145//103 147//103
f 227//103 147//103 226//103
f 226//103 147//103 149//103
f 226//103 149//103 225//103
f 225//103 149//103 151//103
f 225//103 151//103 224//103
f 224//103 151//103 223//103
f 223//103 151//103 153//103
f 223//103 153//103 222//103
f 222//103 153//103 155//103
f 222//103 155//103 221//103
f 221//103 155//103 157//103
f 221//103 157//103 220//103
f 220//103 157//103 159//103
f 220//103 159//103 219//103
f 219//103 159//103 161//103
f 219//103 161//103 218//103
f 218//103 161//103 163//103
f 218//103 163//103 217//103
f 217//103 163//103 165//103
f 217//103 165//103 216//103
f 216//103 165//103 167//103
f 216//103 167//103 215//103
f 215//103 167//103 169//103
f 215//103 169//103 214//103
f 214//103 169//103 171//103
f 214//103 171//103 213//103
f 213//103 171//103 173//103
f 213//103 173//103 212//103
f 212//103 173//103 175//103
f 212//103 175//103 211//103
f 211//103 175//103 210//103
f 210//103 175//103 177//103
f 210//103 177//103 209//103
f 209//103 177//103 179//103
f 209//103 179//103 208//103
f 208//103 179//103 181//103
f 208//103 181//103 207//103
f 207//103 181//103 183//103
f 207//103 183//103 206//103
f 206//103 183//103 185//103
f 206//103 185//103 205//103
f 205//103 185//103 187//103
f 205//103 187//103 204//103
f 204//103 187//103 189//103
f 204//103 189//103 203//103
f 203//103 189//103 191//103
f 203//103 191//103 202//103
f 202//103 191//103 193//103
f 202//103 193//103 201//103
f 201//103 193//103 195//103
f 201//103 195//103 200//103
f 200//103 195//103 103//103
f 200//103 103//103 199//103
f 199//103 103//103 105//103
f 248//104 52//104 249//104
f 249//104 52//104 53//104
f 249//105 53//105 250//105
f 250//105 53//105 54//105
f 250//106 54//106 251//106
f 251//107 54//107 55//107
f 251//108 55//108 252//108
f 252//108 55//108 56//108
f 252//109 56//109 253//109
f 253//109 56//109 57//109
f 253//110 57//110 254//110
f 254//110 57//110 102//110
f 254//111 102//111 255//111
f 255//111 102//111 101//111
f 255//112 101//112 256//112
f 256//112 101//112 100//112
f 256//113 100//113 257//113
f 257//113 100//113 99//113
f 257//114 99//114 258//114
f 258//114 99//114 98//114
f 258//115 98//115 259//115
f 259//115 98//115 97//115
f 259//116 97//116 260//116
f 260//116 97//116 96//116
f 260//117 96//117 261//117
f 261//117 96//117 95//117
f 261//118 95//118 262//118
f 262//118 95//118 94//118
f 262//119 94//119 263//119
f 263//119 94//119 93//119
f 263//120 93//120 264//120
f 264//120 93//120 92//120
f 264//121 92//121 265//121
f 265//121 92//121 91//121
f 265//122 91//122 266//122
f 266//122 91//122 90//122
f 266//123 90//123 267//123
f 267//123 90//123 89//123
f 267//124 89//124 268//124
f 268//124 89//124 88//124
f 268//125 88//125 269//125
f 269//125 88//125 87//125
f 269//126 87//126 270//126
f 270//126 87//126 86//126
f 270//127 86//127 271//127
f 271//127 86//127 85//127
f 271//128 85//128 272//128
f 272//128 85//128 84//128
f 272//129 84//129 273//129
f 273//129 84//129 83//129
f 273//130 83//130 274//130
f 274//130 83//130 82//130
f 274//26 82//26 275//26
f 275//26 82//26 81//26
f 275//131 81//131 276//131
f 276//131 81//131 80//131
f 276//132 80//132 277//132
f 277//132 80//132 79//132
f 277//133 79//133 278//133
f 278//133 79//133 78//133
f 278//134 78//134 279//134
f 279//134 78//134 77//134
f 279//135 77//135 280//135
f 280//135 77//135 76//135
f 280//136 76//136 281//136
f 281//136 76//136 75//136
f 281//137 75//137 282//137
f 282//137 75//137 74//137
f 282//138 74//138 283//138
f 283//138 74//138 73//138
f 283//139 73//139 284//139
f 284//139 73//139 72//139
f 284//140 72//140 285//140
f 285//140 72//140 71//140
f 285//141 71//141 286//141
f 286//141 71//141 70//141
f 286//142 70//142 287//142
f 287//142 70//142 69//142
f 287//143 69//143 288//143
f 288//143 69//143 68//143
f 288//144 68//144 289//144
f 289//144 68//144 67//144
f 289//145 67//145 290//145
f 290//145 67//145 66//145
f 290//146 66//146 291//146
f 291//146 66//146 65//146
f 291//147 65//147 292//147
f 292//147 65//147 64//147
f 292//148 64//148 293//148
f 293//148 64//148 63//148
f 293//149 63//149 294//149
f 294//149 63//149 62//149
f 294//150 62//150 295//150
f 295//150 62//150 61//150
f 295//151 61//151 296//151
f 296//151 61//151 60//151
f 296//152 60//152 297//152
f 297//152 60//152 59//152
f 297//153 59//153 298//153
f 298//153 59//153 58//153
f 298//154 58//154 248//154
f 248//155 58//155 52//155
f 299//156 248//156 300//156
f 300//156 248//156 249//156
f 300//156 249//156 250//156
f 248//156 299//156 298//156
f 298//156 299//156 301//156
f 298//156 301//156 297//156
f 297//156 301//156 302//156
f 297//156 302//156 296//156
f 296//156 302//156 303//156
f 296//156 303//156 295//156
f 295//156 303//156 304//156
f 295//156 304//156 294//156
f 294//156 304//156 305//156
f 294//156 305//156 293//156
f 293//156 305//156 306//156
f 293//156 306//156 292//156
f 292//156 306//156 307//156
f 292//156 307//156 291//156
f 291//156 307//156 308//156
f 291//156 308//156 290//156
f 290//156 308//156 309//156
f 290//156 309//156 289//156
f 289//156 309//156 310//156
f 289//156 310//156 288//156
f 288//156 310//156 311//156
f 288//156 311//156 287//156
f 287//156 311//156 286//156
f 286//156 311//156 312//156
f 286//156 312//156 285//156
f 285//156 312//156 313//156
f 285//156 313//156 284//156
f 284//156 313//156 314//156
f 284//156 314//156 283//156
f 283//156 314//156 315//156
f 283//156 315//156 282//156
f 282//156 315//156 316//156
f 282//156 316//156 281//156
f 281//156 316//156 317//156
f 281//156 317//156 280//156
f 280//156 317//156 318//156
f 280//156 318//156 279//156
f 279//156 318//156 319//156
f 279//156 319//156 278//156
f 278//156 319//156 320//156
f 278//156 320//156 277//156
f 277//156 320//156 321//156
f 277//156 321//156 276//156
f 276//156 321//156 322//156
f 276//156 322//156 275//156
f 275//156 322//156 323//156
f 275//156 323//156 274//156
f 274//156 323//156 273//156
f 273//156 323//156 324//156
f 273//156 324//156 272//156
f 272//156 324//156 325//156
f 272//156 325//156 271//156
f 271//156 325//156 326//156
f 271//156 326//156 270//156
f 270//156 326//156 327//156
f 270//156 327//156 269//156
f 269//156 327//156 328//156
f 269//156 328//156 268//156
f 268//156 328//156 329//156
f 268//156 329//156 267//156
f 267//156 329//156 330//156
f 267//156 330//156 266//156
f 266//156 330//156 331//156
f 266//156 331//156 265//156
f 265//156 331//156 332//156
f 265//156 332//156 264//156
f 264//156 332//156 333//156
f 264//156 333//156 263//156
f 263//156 333//156 334//156
f 263//156 334//156 262//156
f 262//156 334//156 261//156
f 261//156 334//156 335//156
f 261//156 335//156 260//156
f 260//156 335//156 336//156
f 260//156 336//156 259//156
f 259//156 336//156 337//156
f 259//156 337//156 258//156
f 258//156 337//156 338//156
f 258//156 338//156 257//156
f 257//156 338//156 339//156
f 257//156 339//156 256//156
f 256//156 339//156 340//156
f 256//156 340//156 255//156
f 255//156 340//156 341//156
f 255//156 341//156 254//156
f 254//156 341//156 342//156
f 254//156 342//156 253//156
f 253//156 342//156 343//156
f 253//156 343//156 252//156
f 252//156 343//156 344//156
f 252//156 344//156 251//156
f 251//156 344//156 345//156
f 251//156 345//156 250//156
f 250//156 345//156 300//156
f 345//2 346//2 300//2
f 300//2 346//2 347//2
f 300//1 347//1 299//1
f 299//1 347//1 348//1
f 299//49 348//49 301//49
f 301//49 348//49 349//49
f 301//48 349//48 302//48
f 302//48 349//48 350//48
f 302//47 350//47 303//47
f 303//47 350//47 351//47
f 303//46 351//46 304//46
f 304//46 351//46 352//46
f 304//45 352//45 305//45
f 305//45 352//45 353//45
f 305//44 353//44 306//44
f 306//44 353//44 354//44
f 306//43 354//43 307//43
f 307//43 354//43 355//43
f 307//42 355//42 308//42
f 308//42 355//42 356//42
f 308//41 356//41 309//41
f 309//41 356//41 357//41
f 309//40 357//40 310//40
f 310//40 357//40 358//40
f 310//39 358//39 311//39
f 311//39 358//39 359//39
f 311//38 359//38 312//38
f 312//38 359//38 360//38
f 312//37 360//37 313//37
f 313//37 360//37 361//37
f 313//36 361//36 314//36
f 314//36 361//36 362//36
f 314//35 362//35 315//35
f 315//35 362//35 363//35
f 315//34 363//34 316//34
f 316//34 363//34 364//34
f 316//33 364//33 317//33
f 317//33 364//33 365//33
f 317//32 365//32 318//32
f 318//32 365//32 366//32
f 318//31 366//31 319//31
f 319//31 366//31 367//31
f 319//29 367//29 320//29
f 320//29 367//29 368//29
f 320//28 368//28 321//28
f 321//28 368//28 369//28
f 321//27 369//27 322//27
f 322//27 369//27 370//27
f 322//26 370//26 323//26
f 323//26 370//26 371//26
f 323//25 371//25 324//25
f 324//25 371//25 372//25
f 324//24 372//24 325//24
f 325//24 372//24 373//24
f 325//22 373//22 326//22
f 326//22 373//22 374//22
f 326//21 374//21 327//21
f 327//21 374//21 375//21
f 327//20 375//20 328//20
f 328//20 375//20 376//20
f 328//19 376//19 329//19
f 329//19 376//19 377//19
f 329//18 377//18 330//18
f 330//18 377//18 378//18
f 330//17 378//17 331//17
f 331//17 378//17 379//17
f 331//16 379//16 332//16
f 332//16 379//16 380//16
f 332//15 380//15 333//15
f 333//15 380//15 381//15
f 333//14 381//14 334//14
f 334//14 381//14 382//14
f 334//13 382//13 335//13
f 335//13 382//13 383//13
f 335//12 383//12 336//12
f 336//12 383//12 384//12
f 336//11 384//11 337//11
f 337//11 384//11 385//11
f 337//10 385//10 338//10
f 338//10 385//10 386//10
f 338//9 386//9 339//9
f 339//9 386//9 387//9
f 339//8 387//8 340//8
f 340//8 387//8 388//8
f 340//7 388//7 341//7
f 341//7 388//7 389//7
f 341//6 389//6 342//6
f 342//6 389//6 390//6
f 342//5 390//5 343//5
f 343//5 390//5 391//5
f 343//4 391//4 344//4
f 344//4 391//4 392//4
f 344//3 392//3 345//3
f 345//3 392//3 346//3
f 346//156 371//156 347//156
f 347//156 371//156 370//156
f 347//156 370//156 348//156
f 348//156 370//156 369//156
f 348//156 369//156 349//156
f 349//156 369//156 368//156
f 349//156 368//156 350//156
f 350//156 368//156 367//156
f 350//156 367//156 351//156
f 351//156 367//156 366//156
f 351//156 366//156 352//156
f 352//156 366//156 365//156
f 352//156 365//156 353//156
f 353//156 365//156 364//156
f 353//156 364//156 354//156
f 354//156 364//156 363//156
f 354//156 363//156 355//156
f 355//156 363//156 362//156
f 355//156 362//156 356//156
f 356//156 362//156 361//156
f 356//156 361//156 357//156
f 357//156 361//156 360//156
f 357//156 360//156 358//156
f 358//156 360//156 359//156
f 392//156 386//156 346//156
f 346//156 386//156 385//156
f 346//156 385//156 384//156
f 391//156 390//156 392//156
f 392//156 390//156 389//156
f 392//156 389//156 388//156
f 388//156 387//156 392//156
f 392//156 387//156 386//156
f 384//156 383//156 346//156
f 346//156 383//156 382//156
f 346//156 382//156 381//156
f 381//156 380//156 346//156
f 346//156 380//156 379//156
f 346//156 379//156 378//156
f 378//156 377//156 346//156
f 346//156 377//156 376//156
f 346//156 376//156 375//156
f 375//156 374//156 346//156
f 346//156 374//156 373//156
f 346//156 373//156 372//156
f 372//156 371//156 346//156
f 104//103 154//103 106//103
f 106//103 154//103 152//103
f 106//103 152//103 108//103
f 108//103 152//103 150//103
f 108//103 150//103 148//103
f 154//103 104//103 156//103
f 156//103 104//103 196//103
f 156//103 196//103 158//103
f 158//103 196//103 194//103
f 158//103 194//103 160//103
f 160//103 194//103 192//103
f 160//103 192//103 162//103
f 162//103 192//103 190//103
f 162//103 190//103 164//103
f 164//103 190//103 188//103
f 164//103 188//103 166//103
f 166//103 188//103 186//103
f 166//103 186//103 168//103
f 168//103 186//103 184//103
f 168//103 184//103 170//103
f 170//103 184//103 182//103
f 170//103 182//103 172//103
f 172//103 182//103 180//103
f 172//103 180//103 174//103
f 174//103 180//103 178//103
f 174//103 178//103 176//103
f 148//103 146//103 108//103
f 108//103 146//103 144//103
f 108//103 144//103 142//103
f 142//103 140//103 108//103
f 108//103 140//103 138//103
f 108//103 138//103 136//103
f 136//103 134//103 108//103
f 108//103 134//103 132//103
f 108//103 132//103 130//103
f 130//103 128//103 108//103
f 108//103 128//103 126//103
f 108//103 126//103 124//103
f 124//103 122//103 108//103
f 108//103 122//103 110//103
f 110//103 122//103 120//103
f 110//103 120//103 118//103
f 118//103 116//103 110//103
f 110//103 116//103 114//103
f 110//103 114//103 112//103
