# Blender 4.0.2
# www.blender.org
o MP-400-BODY__m7
v 260.000000 56.738491 237.160904
v 260.342102 53.455639 235.979904
v 260.000000 50.000000 235.500000
v 260.342102 46.544361 235.979904
v 260.000000 43.261509 237.160904
v 260.342102 40.424709 239.191696
v 260.000000 38.066730 241.763107
v 260.342102 36.498650 244.879593
v 260.000000 35.605721 248.252197
v 260.342102 35.665588 251.740494
v 260.000000 36.442261 255.141800
v 260.342102 38.116371 258.202698
v 260.000000 40.384720 260.853394
v 260.342102 43.289539 262.785706
v 260.000000 46.529919 264.078705
v 260.342102 50.000000 264.439697
v 260.000000 53.470081 264.078705
v 260.342102 56.710461 262.785706
v 260.000000 59.615280 260.853394
v 260.342102 61.883640 258.202698
v 260.000000 63.557732 255.141800
v 260.342102 64.334412 251.740494
v 260.000000 64.394279 248.252197
v 260.342102 63.501350 244.879593
v 260.000000 61.933262 241.763107
v 260.342102 59.575291 239.191696
v 261.000000 43.726238 238.046295
v 260.865997 46.649578 236.406799
v 261.000000 50.000000 236.500000
v 260.865997 53.350422 236.406799
v 261.000000 56.273762 238.046295
v 260.865997 59.283718 239.520905
v 261.000000 61.110279 242.331100
v 260.865997 63.090229 245.035507
v 261.000000 63.401569 248.372696
v 260.865997 63.897919 251.687500
v 261.000000 62.622719 254.787201
v 260.865997 61.521770 257.952911
v 261.000000 58.952148 260.104889
v 260.865997 56.506119 262.396393
v 261.000000 53.230759 263.107697
v 260.865997 50.000000 264.000000
v 261.000000 46.769241 263.107697
v 260.865997 43.493881 262.396393
v 261.000000 41.047840 260.104889
v 260.865997 38.478222 257.952911
v 261.000000 37.377281 254.787201
v 260.865997 36.102081 251.687500
v 261.000000 36.598431 248.372696
v 260.865997 36.909771 245.035507
v 261.000000 38.889721 242.331100
v 260.865997 40.716282 239.520905
vn -0.7259 0.1646 -0.6679
vn 0.8143 -0.0000 -0.5805
vn -0.7259 -0.1646 -0.6679
vn 0.8143 -0.2698 -0.5140
vn -0.7259 -0.4561 -0.5148
vn 0.8142 -0.4778 -0.3298
vn -0.7259 -0.6431 -0.2439
vn 0.8143 -0.5762 -0.0700
vn -0.7259 -0.6828 0.0829
vn 0.8143 -0.5428 0.2058
vn -0.7259 -0.5660 0.3907
vn 0.8143 -0.3849 0.4345
vn -0.7258 -0.3197 0.6091
vn 0.8143 -0.1389 0.5636
vn -0.7259 -0.0000 0.6878
vn 0.8143 0.1389 0.5636
vn -0.7258 0.3197 0.6091
vn 0.8143 0.3849 0.4345
vn -0.7259 0.5660 0.3907
vn 0.8143 0.5428 0.2058
vn -0.7259 0.6828 0.0829
vn 0.8143 0.5762 -0.0700
vn -0.7259 0.6431 -0.2439
vn 0.8143 0.4777 -0.3298
vn -0.7259 0.4561 -0.5148
vn 0.8143 0.2698 -0.5140
vn 0.9889 -0.0355 -0.1442
vn 0.5710 -0.0000 -0.8210
vn 0.9889 0.0355 -0.1442
vn 0.5707 0.3816 -0.7271
vn 0.9889 0.0985 -0.1112
vn 0.5708 0.6757 -0.4664
vn 0.9889 0.1389 -0.0527
vn 0.5709 0.8150 -0.0990
vn 0.9889 0.1475 0.0179
vn 0.5708 0.7677 0.2912
vn 0.9889 0.1222 0.0844
vn 0.5710 0.5444 0.6145
vn 0.9889 0.0690 0.1315
vn 0.5710 0.1964 0.7971
vn 0.9889 -0.0000 0.1485
vn 0.5710 -0.1964 0.7971
vn 0.9889 -0.0690 0.1315
vn 0.5708 -0.5445 0.6146
vn 0.9889 -0.1222 0.0844
vn 0.5708 -0.7677 0.2911
vn 0.9889 -0.1475 0.0179
vn 0.5709 -0.8150 -0.0990
vn 0.9889 -0.1389 -0.0527
vn 0.5708 -0.6757 -0.4664
vn 0.9889 -0.0985 -0.1112
vn 0.5707 -0.3816 -0.7271
vn 0.6317 0.1855 0.7527
vn 0.6316 0.5141 0.5803
vn 0.6317 0.5140 0.5803
vn 0.6317 0.7249 0.2749
vn 0.6318 0.7248 0.2749
vn 0.6317 0.7696 -0.0934
vn 0.6317 0.7695 -0.0934
vn 0.6317 0.6380 -0.4404
vn 0.6318 0.6379 -0.4404
vn 0.6318 0.3603 -0.6864
vn 0.6317 0.3602 -0.6864
vn 0.6317 -0.0000 -0.7752
vn 0.6317 -0.3603 -0.6864
vn 0.6318 -0.3602 -0.6864
vn 0.6317 -0.6380 -0.4403
vn 0.6317 -0.6379 -0.4404
vn 0.6317 -0.7696 -0.0934
vn 0.6317 -0.7695 -0.0934
vn 0.6317 -0.7248 0.2749
vn 0.6317 -0.5141 0.5803
vn 0.6317 -0.5140 0.5802
vn 0.6317 -0.1855 0.7527
vn 1.0000 -0.0000 -0.0000
s 0
f 1//1 2//1 3//1
f 3//2 2//2 4//2
f 3//3 4//3 5//3
f 5//4 4//4 6//4
f 5//5 6//5 7//5
f 7//6 6//6 8//6
f 7//7 8//7 9//7
f 9//8 8//8 10//8
f 9//9 10//9 11//9
f 11//10 10//10 12//10
f 11//11 12//11 13//11
f 13//12 12//12 14//12
f 13//13 14//13 15//13
f 15//14 14//14 16//14
f 15//15 16//15 17//15
f 17//16 16//16 18//16
f 17//17 18//17 19//17
f 19//18 18//18 20//18
f 19//19 20//19 21//19
f 21//20 20//20 22//20
f 21//21 22//21 23//21
f 23//22 22//22 24//22
f 23//23 24//23 25//23
f 25//24 24//24 26//24
f 25//25 26//25 1//25
f 1//26 26//26 2//26
f 27//27 28//27 29//27
f 29//28 28//28 30//28
f 29//29 30//29 31//29
f 31//30 30//30 32//30
f 31//31 32//31 33//31
f 33//32 32//32 34//32
f 33//33 34//33 35//33
f 35//34 34//34 36//34
f 35//35 36//35 37//35
f 37//36 36//36 38//36
f 37//37 38//37 39//37
f 39//38 38//38 40//38
f 39//39 40//39 41//39
f 41//40 40//40 42//40
f 41//41 42//41 43//41
f 43//42 42//42 44//42
f 43//43 44//43 45//43
f 45//44 44//44 46//44
f 45//45 46//45 47//45
f 47//46 46//46 48//46
f 47//47 48//47 49//47
f 49//48 48//48 50//48
f 49//49 50//49 51//49
f 51//50 50//50 52//50
f 51//51 52//51 27//51
f 27//52 52//52 28//52
f 16//53 42//53 18//53
f 18//53 42//53 40//53
f 18//54 40//54 20//54
f 20//55 40//55 38//55
f 20//56 38//56 22//56
f 22//57 38//57 36//57
f 22//58 36//58 24//58
f 24//59 36//59 34//59
f 24//60 34//60 26//60
f 26//61 34//61 32//61
f 26//62 32//62 2//62
f 2//63 32//63 30//63
f 2//64 30//64 4//64
f 4//64 30//64 28//64
f 4//65 28//65 6//65
f 6//66 28//66 52//66
f 6//67 52//67 8//67
f 8//68 52//68 50//68
f 8//69 50//69 10//69
f 10//70 50//70 48//70
f 10//71 48//71 12//71
f 12//71 48//71 46//71
f 12//72 46//72 14//72
f 14//73 46//73 44//73
f 14//74 44//74 16//74
f 16//74 44//74 42//74
f 29//75 31//75 27//75
f 27//75 31//75 51//75
f 51//75 31//75 33//75
f 51//75 33//75 49//75
f 49//75 33//75 35//75
f 49//75 35//75 47//75
f 47//75 35//75 37//75
f 47//75 37//75 45//75
f 45//75 37//75 39//75
f 45//75 39//75 43//75
f 43//75 39//75 41//75
