# Blender 4.0.2
# www.blender.org
o MP-400-BODY__m6
v -259.500000 44.450001 331.387085
v -259.500000 50.000000 329.899994
v -259.500000 50.000000 331.250000
v -259.500000 55.549999 331.387085
v -259.500000 55.271252 332.797791
v -259.500000 59.612881 335.450012
v -259.500000 58.868912 336.949707
v -259.500000 61.099998 341.000000
v -259.500000 59.650761 342.387604
v -259.500000 59.612881 346.549988
v -259.500000 57.368561 347.384888
v -259.500000 55.549999 350.612915
v -259.500000 52.746891 350.355103
v -259.500000 50.000000 352.100006
v -259.500000 47.253109 350.355103
v -259.500000 44.450001 350.612915
v -259.500000 42.631439 347.384888
v -259.500000 40.387119 346.549988
v -259.500000 40.349239 342.387604
v -259.500000 38.900002 341.000000
v -259.500000 41.131081 336.949707
v -259.500000 40.387119 335.450012
v -259.500000 44.728748 332.797791
v -271.000000 43.194031 328.032410
v -272.026093 46.538471 326.955994
v -271.000000 50.000000 326.354797
v -272.026093 53.461529 326.955994
v -271.000000 56.805962 328.032410
v -272.026093 59.591591 330.173401
v -271.000000 62.052761 332.680603
v -272.026093 63.524330 335.870911
v -271.000000 64.538422 339.234802
v -272.026093 64.358810 342.743500
v -271.000000 63.693501 346.193298
v -272.026093 61.903858 349.216705
v -271.000000 59.711559 351.962097
v -272.026093 56.721882 353.807495
v -271.000000 53.504822 355.219604
v -272.026093 50.000000 355.464294
v -271.000000 46.495171 355.219604
v -272.026093 43.278118 353.807495
v -271.000000 40.288441 351.962097
v -272.026093 38.096142 349.216705
v -271.000000 36.306499 346.193298
v -272.026093 35.641190 342.743500
v -271.000000 35.461578 339.234802
v -272.026093 36.475670 335.870911
v -271.000000 37.947239 332.680603
v -272.026093 40.408409 330.173401
v -274.000000 55.822601 330.915009
v -273.598114 53.145851 328.236786
v -274.000000 50.000000 329.354797
v -273.598114 46.854149 328.236786
v -274.000000 44.177399 330.915009
v -273.598114 41.283131 331.160706
v -274.000000 39.914970 335.177399
v -273.598114 37.709030 336.338715
v -274.000000 38.354809 341.000000
v -273.598114 36.950649 342.584503
v -274.000000 39.914970 346.822601
v -273.598114 39.181721 348.467407
v -274.000000 44.177399 351.085114
v -273.598114 43.891121 352.639496
v -274.000000 50.000000 352.645203
v -273.598114 50.000000 354.145203
v -273.598114 56.108871 352.639496
v -273.598114 58.716869 331.160706
v -274.000000 60.085030 335.177399
v -273.598114 62.290970 336.338715
v -274.000000 61.645191 341.000000
v -273.598114 63.049351 342.584503
v -274.000000 60.085030 346.822601
v -273.598114 60.818279 348.467407
v -274.000000 55.822601 351.085114
v -268.500000 43.194031 328.032410
v -268.500000 50.000000 326.354797
v -268.500000 56.805962 328.032410
v -268.500000 62.052761 332.680603
v -268.500000 64.538422 339.234802
v -268.500000 63.693501 346.193298
v -268.500000 59.711559 351.962097
v -268.500000 53.504822 355.219604
v -268.500000 46.495171 355.219604
v -268.500000 40.288441 351.962097
v -268.500000 36.306499 346.193298
v -268.500000 35.461578 339.234802
v -268.500000 37.947239 332.680603
v 271.000000 56.805962 328.032410
v 272.026093 53.461529 326.955994
v 271.000000 50.000000 326.354797
v 272.026093 46.538471 326.955994
v 271.000000 43.194031 328.032410
v 272.026093 40.408409 330.173401
v 271.000000 37.947239 332.680603
v 272.026093 36.475670 335.870911
v 271.000000 35.461578 339.234802
v 272.026093 35.641190 342.743500
v 271.000000 36.306499 346.193298
v 272.026093 38.096142 349.216705
v 271.000000 40.288441 351.962097
v 272.026093 43.278118 353.807495
v 271.000000 46.495171 355.219604
v 272.026093 50.000000 355.464294
v 271.000000 53.504822 355.219604
v 272.026093 56.721882 353.807495
v 271.000000 59.711559 351.962097
v 272.026093 61.903858 349.216705
v 271.000000 63.693501 346.193298
v 272.026093 64.358810 342.743500
v 271.000000 64.538422 339.234802
v 272.026093 63.524330 335.870911
v 271.000000 62.052761 332.680603
v 272.026093 59.591591 330.173401
v 274.000000 44.177399 330.915009
v 273.598114 46.854149 328.236786
v 274.000000 50.000000 329.354797
v 273.598114 53.145851 328.236786
v 274.000000 55.822601 330.915009
v 273.598114 58.716869 331.160706
v 274.000000 60.085030 335.177399
v 273.598114 62.290970 336.338715
v 274.000000 61.645191 341.000000
v 273.598114 63.049351 342.584503
v 274.000000 60.085030 346.822601
v 273.598114 60.818279 348.467407
v 274.000000 55.822601 351.085114
v 273.598114 56.108871 352.639496
v 274.000000 50.000000 352.645203
v 273.598114 50.000000 354.145203
v 273.598114 43.891121 352.639496
v 273.598114 41.283131 331.160706
v 274.000000 39.914970 335.177399
v 273.598114 37.709030 336.338715
v 274.000000 38.354809 341.000000
v 273.598114 36.950649 342.584503
v 274.000000 39.914970 346.822601
v 273.598114 39.181721 348.467407
v 274.000000 44.177399 351.085114
v 268.500000 56.805962 328.032410
v 268.500000 50.000000 326.354797
v 268.500000 43.194031 328.032410
v 268.500000 37.947239 332.680603
v 268.500000 35.461578 339.234802
v 268.500000 36.306499 346.193298
v 268.500000 40.288441 351.962097
v 268.500000 46.495171 355.219604
v 268.500000 53.504822 355.219604
v 268.500000 59.711559 351.962097
v 268.500000 63.693501 346.193298
v 268.500000 64.538422 339.234802
v 268.500000 62.052761 332.680603
v 259.500000 55.549999 331.387085
v 259.500000 50.000000 329.899994
v 259.500000 50.000000 331.250000
v 259.500000 44.450001 331.387085
v 259.500000 44.728748 332.797791
v 259.500000 40.387119 335.450012
v 259.500000 41.131081 336.949707
v 259.500000 38.900002 341.000000
v 259.500000 40.349239 342.387604
v 259.500000 40.387119 346.549988
v 259.500000 42.631439 347.384888
v 259.500000 44.450001 350.612915
v 259.500000 47.253109 350.355103
v 259.500000 50.000000 352.100006
v 259.500000 52.746891 350.355103
v 259.500000 55.549999 350.612915
v 259.500000 57.368561 347.384888
v 259.500000 59.612881 346.549988
v 259.500000 59.650761 342.387604
v 259.500000 61.099998 341.000000
v 259.500000 58.868912 336.949707
v 259.500000 59.612881 335.450012
v 259.500000 55.271252 332.797791
vn 1.0000 -0.0000 -0.0000
vn 0.2320 -0.2328 -0.9444
vn -0.5055 -0.0000 -0.8628
vn 0.2320 0.2328 -0.9444
vn -0.5055 0.4010 -0.7640
vn 0.2319 0.6451 -0.7281
vn -0.5056 0.7101 -0.4901
vn 0.2319 0.9095 -0.3449
vn -0.5056 0.8565 -0.1040
vn 0.2319 0.9656 0.1172
vn -0.5056 0.8067 0.3059
vn 0.2320 0.8005 0.5526
vn -0.5056 0.5721 0.6458
vn 0.2319 0.4521 0.8613
vn -0.5055 0.2065 0.8378
vn 0.2320 -0.0000 0.9727
vn -0.5055 -0.2065 0.8377
vn 0.2319 -0.4521 0.8613
vn -0.5056 -0.5721 0.6458
vn 0.2320 -0.8005 0.5526
vn -0.5056 -0.8067 0.3059
vn 0.2319 -0.9656 0.1172
vn -0.5056 -0.8565 -0.1040
vn 0.2319 -0.9095 -0.3449
vn -0.5056 -0.7101 -0.4901
vn 0.2319 -0.6451 -0.7281
vn -0.5055 -0.4010 -0.7640
vn -0.9782 0.0537 -0.2005
vn -0.9410 -0.0000 -0.3383
vn -0.9782 -0.0537 -0.2005
vn -0.9419 -0.1560 -0.2973
vn -0.9777 -0.1483 -0.1484
vn -0.9445 -0.2703 -0.1866
vn -0.9767 -0.2072 -0.0555
vn -0.9485 -0.3146 -0.0382
vn -0.9751 -0.2143 0.0574
vn -0.9533 -0.2823 0.1071
vn -0.9726 -0.1644 0.1644
vn -0.9586 -0.1888 0.2131
vn -0.9690 -0.0640 0.2388
vn -0.9640 -0.0637 0.2583
vn -0.9640 0.0637 0.2583
vn -0.6316 0.1855 0.7527
vn -0.9419 0.1560 -0.2973
vn -0.9777 0.1483 -0.1484
vn -0.9445 0.2703 -0.1866
vn -0.9767 0.2072 -0.0555
vn -0.9485 0.3146 -0.0382
vn -0.9751 0.2143 0.0574
vn -0.9533 0.2823 0.1071
vn -0.9726 0.1644 0.1644
vn -0.9586 0.1888 0.2131
vn -0.9690 0.0640 0.2388
vn -0.6316 -0.1855 0.7527
vn -0.6316 -0.5141 0.5803
vn -0.6316 -0.7249 0.2749
vn -0.6316 -0.7696 -0.0934
vn -0.6316 -0.7696 -0.0935
vn -0.6316 -0.6380 -0.4404
vn -0.6316 -0.3603 -0.6865
vn -0.6316 -0.0000 -0.7753
vn -0.6317 -0.0000 -0.7753
vn -0.6316 0.3603 -0.6865
vn -0.6316 0.6380 -0.4404
vn -0.6316 0.7696 -0.0934
vn -0.6316 0.7249 0.2749
vn -0.6316 0.5141 0.5803
vn -0.0000 -0.2393 -0.9709
vn -0.0000 0.2393 -0.9709
vn -0.0000 0.6631 -0.7485
vn -0.0000 0.9350 -0.3546
vn -0.0000 0.9927 0.1205
vn -0.0000 0.8230 0.5681
vn -0.0000 0.4647 0.8855
vn -0.0000 -0.0000 1.0000
vn -0.0000 -0.4647 0.8855
vn -0.0000 -0.8230 0.5681
vn -0.0000 -0.9927 0.1205
vn -0.0000 -0.9350 -0.3546
vn -0.0000 -0.6631 -0.7485
vn -1.0000 -0.0000 -0.0000
vn 0.3572 -0.2235 -0.9069
vn 0.3572 0.2235 -0.9069
vn 0.3683 0.2406 -0.8980
vn 0.3483 0.6216 -0.7017
vn 0.3788 0.6544 -0.6544
vn 0.3409 0.8790 -0.3334
vn 0.3871 0.8906 -0.2386
vn 0.3351 0.9353 0.1136
vn 0.3932 0.8881 0.2380
vn 0.3309 0.7766 0.5361
vn 0.3973 0.6489 0.6489
vn 0.3283 0.4390 0.8364
vn 0.3994 0.2373 0.8856
vn 0.3275 -0.0000 0.9448
vn 0.3994 -0.2373 0.8856
vn 0.3283 -0.4390 0.8364
vn 0.3973 -0.6489 0.6489
vn 0.3309 -0.7766 0.5361
vn 0.3932 -0.8881 0.2380
vn 0.3351 -0.9353 0.1136
vn 0.3871 -0.8906 -0.2386
vn 0.3409 -0.8790 -0.3334
vn 0.3788 -0.6544 -0.6544
vn 0.3483 -0.6216 -0.7017
vn 0.3683 -0.2406 -0.8980
vn -0.2320 0.2328 -0.9444
vn 0.5055 -0.0000 -0.8628
vn -0.2320 -0.2328 -0.9444
vn 0.5055 -0.4010 -0.7640
vn -0.2319 -0.6451 -0.7281
vn 0.5056 -0.7101 -0.4901
vn -0.2319 -0.9095 -0.3449
vn 0.5056 -0.8565 -0.1040
vn -0.2319 -0.9656 0.1172
vn 0.5056 -0.8067 0.3059
vn -0.2320 -0.8005 0.5526
vn 0.5056 -0.5721 0.6458
vn -0.2319 -0.4521 0.8613
vn 0.5055 -0.2065 0.8377
vn -0.2320 -0.0000 0.9727
vn 0.5055 0.2065 0.8378
vn -0.2319 0.4521 0.8613
vn 0.5056 0.5721 0.6458
vn -0.2320 0.8005 0.5526
vn 0.5056 0.8067 0.3059
vn -0.2319 0.9656 0.1172
vn 0.5056 0.8565 -0.1040
vn -0.2319 0.9095 -0.3449
vn 0.5056 0.7101 -0.4901
vn -0.2319 0.6451 -0.7281
vn 0.5055 0.4010 -0.7640
vn 0.9782 -0.0537 -0.2005
vn 0.9410 -0.0000 -0.3383
vn 0.9782 0.0537 -0.2005
vn 0.9419 0.1560 -0.2973
vn 0.9777 0.1483 -0.1484
vn 0.9445 0.2703 -0.1866
vn 0.9767 0.2072 -0.0555
vn 0.9485 0.3146 -0.0382
vn 0.9751 0.2143 0.0574
vn 0.9533 0.2823 0.1071
vn 0.9726 0.1644 0.1644
vn 0.9586 0.1888 0.2131
vn 0.9690 0.0640 0.2388
vn 0.9640 0.0637 0.2583
vn 0.9640 -0.0637 0.2583
vn 0.6316 -0.1855 0.7527
vn 0.9419 -0.1560 -0.2973
vn 0.9777 -0.1483 -0.1484
vn 0.9445 -0.2703 -0.1866
vn 0.9767 -0.2072 -0.0555
vn 0.9485 -0.3146 -0.0382
vn 0.9751 -0.2143 0.0574
vn 0.9533 -0.2823 0.1071
vn 0.9726 -0.1644 0.1644
vn 0.9586 -0.1888 0.2131
vn 0.9690 -0.0640 0.2388
vn 0.6316 0.1855 0.7527
vn 0.6316 0.5141 0.5803
vn 0.6316 0.7249 0.2749
vn 0.6316 0.7696 -0.0934
vn 0.6316 0.7696 -0.0935
vn 0.6316 0.6380 -0.4404
vn 0.6316 0.3603 -0.6865
vn 0.6316 -0.0000 -0.7753
vn 0.6317 -0.0000 -0.7753
vn 0.6316 -0.3603 -0.6865
vn 0.6316 -0.6380 -0.4404
vn 0.6316 -0.7696 -0.0934
vn 0.6316 -0.7249 0.2749
vn 0.6316 -0.5141 0.5803
vn -0.3572 0.2235 -0.9069
vn -0.3572 -0.2235 -0.9069
vn -0.3683 -0.2406 -0.8980
vn -0.3483 -0.6216 -0.7017
vn -0.3788 -0.6544 -0.6544
vn -0.3409 -0.8790 -0.3334
vn -0.3871 -0.8906 -0.2386
vn -0.3351 -0.9353 0.1136
vn -0.3932 -0.8881 0.2380
vn -0.3309 -0.7766 0.5361
vn -0.3973 -0.6489 0.6489
vn -0.3283 -0.4390 0.8364
vn -0.3994 -0.2373 0.8856
vn -0.3275 -0.0000 0.9448
vn -0.3994 0.2373 0.8856
vn -0.3283 0.4390 0.8364
vn -0.3973 0.6489 0.6489
vn -0.3309 0.7766 0.5361
vn -0.3932 0.8881 0.2380
vn -0.3351 0.9353 0.1136
vn -0.3871 0.8906 -0.2386
vn -0.3409 0.8790 -0.3334
vn -0.3788 0.6544 -0.6544
vn -0.3483 0.6216 -0.7017
vn -0.3683 0.2406 -0.8980
s 0
f 1//1 2//1 3//1
f 3//1 2//1 4//1
f 3//1 4//1 5//1
f 5//1 4//1 6//1
f 5//1 6//1 7//1
f 7//1 6//1 8//1
f 7//1 8//1 9//1
f 9//1 8//1 10//1
f 9//1 10//1 11//1
f 11//1 10//1 12//1
f 11//1 12//1 13//1
f 13//1 12//1 14//1
f 13//1 14//1 15//1
f 15//1 14//1 16//1
f 15//1 16//1 17//1
f 17//1 16//1 18//1
f 17//1 18//1 19//1
f 19//1 18//1 20//1
f 19//1 20//1 21//1
f 21//1 20//1 22//1
f 21//1 22//1 23//1
f 23//1 22//1 1//1
f 23//1 1//1 3//1
f 24//2 25//2 26//2
f 26//3 25//3 27//3
f 26//4 27//4 28//4
f 28//5 27//5 29//5
f 28//6 29//6 30//6
f 30//7 29//7 31//7
f 30//8 31//8 32//8
f 32//9 31//9 33//9
f 32//10 33//10 34//10
f 34//11 33//11 35//11
f 34//12 35//12 36//12
f 36//13 35//13 37//13
f 36//14 37//14 38//14
f 38//15 37//15 39//15
f 38//16 39//16 40//16
f 40//17 39//17 41//17
f 40//18 41//18 42//18
f 42//19 41//19 43//19
f 42//20 43//20 44//20
f 44//21 43//21 45//21
f 44//22 45//22 46//22
f 46//23 45//23 47//23
f 46//24 47//24 48//24
f 48//25 47//25 49//25
f 48//26 49//26 24//26
f 24//27 49//27 25//27
f 50//28 51//28 52//28
f 52//29 51//29 53//29
f 52//30 53//30 54//30
f 54//31 53//31 55//31
f 54//32 55//32 56//32
f 56//33 55//33 57//33
f 56//34 57//34 58//34
f 58//35 57//35 59//35
f 58//36 59//36 60//36
f 60//37 59//37 61//37
f 60//38 61//38 62//38
f 62//39 61//39 63//39
f 62//40 63//40 64//40
f 64//41 63//41 65//41
f 64//42 65//42 66//42
f 66//43 65//43 39//43
f 66//43 39//43 37//43
f 51//44 50//44 67//44
f 67//45 50//45 68//45
f 67//46 68//46 69//46
f 69//47 68//47 70//47
f 69//48 70//48 71//48
f 71//49 70//49 72//49
f 71//50 72//50 73//50
f 73//51 72//51 74//51
f 73//52 74//52 66//52
f 66//53 74//53 64//53
f 39//54 65//54 41//54
f 41//54 65//54 63//54
f 41//55 63//55 43//55
f 43//55 63//55 61//55
f 43//56 61//56 45//56
f 45//56 61//56 59//56
f 45//57 59//57 47//57
f 47//58 59//58 57//58
f 47//59 57//59 49//59
f 49//59 57//59 55//59
f 49//60 55//60 25//60
f 25//60 55//60 53//60
f 25//61 53//61 27//61
f 27//62 53//62 51//62
f 27//63 51//63 29//63
f 29//63 51//63 67//63
f 29//64 67//64 31//64
f 31//64 67//64 69//64
f 31//65 69//65 33//65
f 33//65 69//65 71//65
f 33//66 71//66 35//66
f 35//66 71//66 73//66
f 35//67 73//67 37//67
f 37//67 73//67 66//67
f 75//68 24//68 76//68
f 76//68 24//68 26//68
f 76//69 26//69 77//69
f 77//69 26//69 28//69
f 77//70 28//70 78//70
f 78//70 28//70 30//70
f 78//71 30//71 79//71
f 79//71 30//71 32//71
f 79//72 32//72 80//72
f 80//72 32//72 34//72
f 80//73 34//73 81//73
f 81//73 34//73 36//73
f 81//74 36//74 82//74
f 82//74 36//74 38//74
f 82//75 38//75 83//75
f 83//75 38//75 40//75
f 83//76 40//76 84//76
f 84//76 40//76 42//76
f 84//77 42//77 85//77
f 85//77 42//77 44//77
f 85//78 44//78 86//78
f 86//78 44//78 46//78
f 86//79 46//79 87//79
f 87//79 46//79 48//79
f 87//80 48//80 75//80
f 75//80 48//80 24//80
f 54//81 62//81 52//81
f 52//81 62//81 64//81
f 52//81 64//81 50//81
f 50//81 64//81 74//81
f 50//81 74//81 68//81
f 68//81 74//81 72//81
f 68//81 72//81 70//81
f 62//81 54//81 60//81
f 60//81 54//81 56//81
f 60//81 56//81 58//81
f 75//82 76//82 2//82
f 2//83 76//83 77//83
f 2//84 77//84 4//84
f 4//85 77//85 78//85
f 4//86 78//86 6//86
f 6//87 78//87 79//87
f 6//88 79//88 8//88
f 8//89 79//89 80//89
f 8//90 80//90 10//90
f 10//91 80//91 81//91
f 10//92 81//92 12//92
f 12//93 81//93 82//93
f 12//94 82//94 14//94
f 14//95 82//95 83//95
f 14//96 83//96 16//96
f 16//97 83//97 84//97
f 16//98 84//98 18//98
f 18//99 84//99 85//99
f 18//100 85//100 20//100
f 20//101 85//101 86//101
f 20//102 86//102 22//102
f 22//103 86//103 87//103
f 22//104 87//104 1//104
f 1//105 87//105 75//105
f 1//106 75//106 2//106
f 88//107 89//107 90//107
f 90//108 89//108 91//108
f 90//109 91//109 92//109
f 92//110 91//110 93//110
f 92//111 93//111 94//111
f 94//112 93//112 95//112
f 94//113 95//113 96//113
f 96//114 95//114 97//114
f 96//115 97//115 98//115
f 98//116 97//116 99//116
f 98//117 99//117 100//117
f 100//118 99//118 101//118
f 100//119 101//119 102//119
f 102//120 101//120 103//120
f 102//121 103//121 104//121
f 104//122 103//122 105//122
f 104//123 105//123 106//123
f 106//124 105//124 107//124
f 106//125 107//125 108//125
f 108//126 107//126 109//126
f 108//127 109//127 110//127
f 110//128 109//128 111//128
f 110//129 111//129 112//129
f 112//130 111//130 113//130
f 112//131 113//131 88//131
f 88//132 113//132 89//132
f 114//133 115//133 116//133
f 116//134 115//134 117//134
f 116//135 117//135 118//135
f 118//136 117//136 119//136
f 118//137 119//137 120//137
f 120//138 119//138 121//138
f 120//139 121//139 122//139
f 122//140 121//140 123//140
f 122//141 123//141 124//141
f 124//142 123//142 125//142
f 124//143 125//143 126//143
f 126//144 125//144 127//144
f 126//145 127//145 128//145
f 128//146 127//146 129//146
f 128//147 129//147 130//147
f 130//148 129//148 103//148
f 130//148 103//148 101//148
f 115//149 114//149 131//149
f 131//150 114//150 132//150
f 131//151 132//151 133//151
f 133//152 132//152 134//152
f 133//153 134//153 135//153
f 135//154 134//154 136//154
f 135//155 136//155 137//155
f 137//156 136//156 138//156
f 137//157 138//157 130//157
f 130//158 138//158 128//158
f 103//159 129//159 105//159
f 105//159 129//159 127//159
f 105//160 127//160 107//160
f 107//160 127//160 125//160
f 107//161 125//161 109//161
f 109//161 125//161 123//161
f 109//162 123//162 111//162
f 111//163 123//163 121//163
f 111//164 121//164 113//164
f 113//164 121//164 119//164
f 113//165 119//165 89//165
f 89//165 119//165 117//165
f 89//166 117//166 91//166
f 91//167 117//167 115//167
f 91//168 115//168 93//168
f 93//168 115//168 131//168
f 93//169 131//169 95//169
f 95//169 131//169 133//169
f 95//170 133//170 97//170
f 97//170 133//170 135//170
f 97//171 135//171 99//171
f 99//171 135//171 137//171
f 99//172 137//172 101//172
f 101//172 137//172 130//172
f 139//69 88//69 140//69
f 140//69 88//69 90//69
f 140//68 90//68 141//68
f 141//68 90//68 92//68
f 141//80 92//80 142//80
f 142//80 92//80 94//80
f 142//79 94//79 143//79
f 143//79 94//79 96//79
f 143//78 96//78 144//78
f 144//78 96//78 98//78
f 144//77 98//77 145//77
f 145//77 98//77 100//77
f 145//76 100//76 146//76
f 146//76 100//76 102//76
f 146//75 102//75 147//75
f 147//75 102//75 104//75
f 147//74 104//74 148//74
f 148//74 104//74 106//74
f 148//73 106//73 149//73
f 149//73 106//73 108//73
f 149//72 108//72 150//72
f 150//72 108//72 110//72
f 150//71 110//71 151//71
f 151//71 110//71 112//71
f 151//70 112//70 139//70
f 139//70 112//70 88//70
f 118//1 126//1 116//1
f 116//1 126//1 128//1
f 116//1 128//1 114//1
f 114//1 128//1 138//1
f 114//1 138//1 132//1
f 132//1 138//1 136//1
f 132//1 136//1 134//1
f 126//1 118//1 124//1
f 124//1 118//1 120//1
f 124//1 120//1 122//1
f 152//81 153//81 154//81
f 154//81 153//81 155//81
f 154//81 155//81 156//81
f 156//81 155//81 157//81
f 156//81 157//81 158//81
f 158//81 157//81 159//81
f 158//81 159//81 160//81
f 160//81 159//81 161//81
f 160//81 161//81 162//81
f 162//81 161//81 163//81
f 162//81 163//81 164//81
f 164//81 163//81 165//81
f 164//81 165//81 166//81
f 166//81 165//81 167//81
f 166//81 167//81 168//81
f 168//81 167//81 169//81
f 168//81 169//81 170//81
f 170//81 169//81 171//81
f 170//81 171//81 172//81
f 172//81 171//81 173//81
f 172//81 173//81 174//81
f 174//81 173//81 152//81
f 174//81 152//81 154//81
f 139//173 140//173 153//173
f 153//174 140//174 141//174
f 153//175 141//175 155//175
f 155//176 141//176 142//176
f 155//177 142//177 157//177
f 157//178 142//178 143//178
f 157//179 143//179 159//179
f 159//180 143//180 144//180
f 159//181 144//181 161//181
f 161//182 144//182 145//182
f 161//183 145//183 163//183
f 163//184 145//184 146//184
f 163//185 146//185 165//185
f 165//186 146//186 147//186
f 165//187 147//187 167//187
f 167//188 147//188 148//188
f 167//189 148//189 169//189
f 169//190 148//190 149//190
f 169//191 149//191 171//191
f 171//192 149//192 150//192
f 171//193 150//193 173//193
f 173//194 150//194 151//194
f 173//195 151//195 152//195
f 152//196 151//196 139//196
f 152//197 139//197 153//197
