# Blender 4.0.2
# www.blender.org
o MP-400-CASTER-WHEEL__m1
v -23.904369 -33.304459 14.676830
v -23.904369 -31.310350 18.785650
v -24.528090 -32.143230 17.074310
v -25.066530 -31.134020 18.621210
v -25.667709 -31.689039 16.848150
v -26.041180 -30.636810 18.157570
v -26.502439 -30.859190 16.434919
v -26.682039 -29.903410 17.473660
v -26.887920 -29.797140 15.906090
v -26.904360 -29.047001 16.675039
v -26.904360 -30.865589 12.689980
v -26.887920 -31.467880 11.958800
v -26.904360 -32.164532 8.506602
v -26.887920 -32.640900 7.836118
v -26.904360 -32.922939 4.192342
v -26.887920 -33.298382 3.600534
v -26.904360 -33.128571 -0.183233
v -26.887920 -33.430370 -0.683745
v -26.904360 -32.778091 -4.549597
v -26.887920 -33.034882 -4.951773
v -26.904360 -31.877180 -8.836354
v -26.887920 -32.117901 -9.138848
v -26.904360 -30.440340 -12.974400
v -26.887920 -30.693331 -13.181500
v -26.904360 -28.490730 -16.897030
v -26.887920 -28.763491 -17.051769
v -26.887920 -26.415150 -20.591530
v -26.502439 -27.361910 -21.306511
v -26.502439 -24.478140 -24.672480
v -25.667709 -25.143660 -25.317829
v -25.667709 -21.783760 -28.380810
v -24.528090 -22.101839 -28.776110
v -24.528090 -18.340000 -31.439060
v -23.904369 -20.458000 -30.106449
v -23.904369 -16.589050 -32.533401
v -24.528090 -14.279400 -33.619549
v -23.904369 -12.453770 -34.472019
v -24.528090 -9.981660 -35.284512
v -23.904369 -8.113481 -35.893559
v -24.528090 -5.511857 -36.408710
v -23.904369 -3.632569 -36.776932
v -24.528090 -0.937791 -36.975101
v -23.904369 0.922484 -37.109032
v -24.528090 3.671203 -36.975101
v -23.904369 5.484130 -36.884930
v -24.528090 8.245254 -36.408710
v -23.904369 9.984695 -36.107960
v -24.528090 12.715060 -35.284512
v -23.904369 14.357450 -34.789639
v -24.528090 17.012819 -33.619549
v -23.904369 18.537491 -32.949532
v -24.528090 21.073389 -31.439060
v -23.904369 22.462860 -30.614920
v -24.528090 24.835230 -28.776110
v -23.904369 26.075319 -27.820440
v -24.528090 28.241329 -25.671049
v -23.904369 29.321260 -24.607531
v -24.528090 31.240021 -22.170950
v -23.904369 32.152531 -21.023870
v -24.528090 33.785858 -18.328880
v -23.904369 34.527161 -17.122601
v -24.528090 35.840271 -14.203080
v -23.904369 36.409939 -12.961590
v -24.528090 37.372101 -9.856081
v -23.904369 37.772949 -8.602562
v -24.528090 38.358120 -5.353789
v -23.904369 38.595890 -4.110171
v -24.528090 38.783390 -0.764456
v -23.904369 38.866638 0.448946
v -24.528090 38.641449 3.842355
v -23.904369 38.581150 5.007162
v -24.528090 37.934479 8.396807
v -23.904369 37.743679 9.496870
v -24.528090 36.673161 12.829860
v -23.904369 36.366611 13.851470
v -24.528090 34.876621 17.074310
v -23.904369 34.470402 18.006371
v -24.528090 32.572140 21.065821
v -23.904369 32.083160 21.899950
v -24.528090 29.794580 24.743879
v -23.904369 29.240290 25.474440
v -24.528090 26.586121 28.052731
v -23.904369 25.984011 28.676830
v -24.528090 22.995331 30.942221
v -23.904369 22.362530 31.459620
v -24.528090 19.076691 33.368542
v -23.904369 18.429661 33.781528
v -24.528090 14.889590 35.294922
v -23.904369 14.243670 35.608131
v -24.528090 10.499330 36.691681
v -23.904369 9.866683 36.912300
v -25.065451 9.866683 36.672192
v -25.667709 10.379190 36.198700
v -26.040010 9.866683 35.994652
v -26.502439 10.156510 35.298779
v -26.681601 9.866683 34.994080
v -26.502439 14.371380 33.957340
v -26.887920 13.942810 32.851040
v -26.887920 17.836781 31.059530
v -26.904360 14.034990 32.478271
v -26.904360 17.999069 30.614389
v -26.887920 21.481060 28.803080
v -26.904360 21.695021 28.263229
v -26.887920 24.820450 26.115891
v -26.904360 25.063250 25.462709
v -26.887920 27.804319 23.038700
v -26.904360 28.049471 22.257950
v -26.887920 30.387390 19.618139
v -26.904360 30.605530 18.700640
v -26.887920 32.530548 15.906090
v -26.904360 32.690250 14.848110
v -26.887920 34.201290 11.958800
v -26.904360 34.269989 10.762490
v -26.887920 35.374298 7.836118
v -26.904360 35.319302 6.509618
v -26.887920 36.031769 3.600534
v -26.904360 35.821289 2.158067
v -26.887920 36.163761 -0.683745
v -26.904360 35.767792 -2.222014
v -26.887920 35.768280 -4.951773
v -26.904360 35.159760 -6.560011
v -26.887920 34.851292 -9.138848
v -26.904360 34.006931 -10.786000
v -26.887920 33.426731 -13.181500
v -26.904360 32.327911 -14.831840
v -26.887920 31.516140 -17.018450
v -26.904360 30.149750 -18.632320
v -26.887920 29.148529 -20.591530
v -26.904360 27.507601 -22.126169
v -26.887920 26.359770 -23.846581
v -26.904360 24.444040 -25.257059
v -26.887920 23.192169 -26.734249
v -26.904360 21.008421 -27.974529
v -26.887920 19.693689 -29.210760
v -26.904360 17.256189 -30.234760
v -26.887920 15.917390 -31.238590
v -26.904360 13.247790 -32.001308
v -26.887920 11.920520 -32.786991
v -26.904360 9.047866 -33.245708
v -26.887920 7.763686 -33.832481
v -26.904360 4.724105 -33.947910
v -26.887920 3.509856 -34.359211
v -26.904360 0.346221 -34.096561
v -26.887920 -0.776444 -34.359211
v -26.904360 -4.015199 -33.689289
v -26.887920 -5.030274 -33.832481
v -26.904360 -8.289873 -32.732658
v -26.887920 -9.187135 -32.786991
v -26.904360 -12.408880 -31.242081
v -26.887920 -13.183990 -31.238590
v -26.904360 -16.305799 -29.241590
v -26.887920 -16.960300 -29.210760
v -26.904360 -19.917820 -26.763439
v -26.887920 -20.458759 -26.734249
v -26.904360 -23.186720 -23.847570
v -26.887920 -23.626390 -23.846581
v -26.904360 -26.059799 -20.541000
v -26.904360 9.866683 33.824848
v -23.904369 -24.003220 -27.227180
v -24.528090 -25.507940 -25.671049
v -25.667709 -28.101721 -21.865179
v -26.502439 -29.795990 -17.636271
v -23.904369 -27.172140 -23.938280
v -24.528090 -28.506620 -22.170950
v -25.667709 -30.604309 -18.090330
v -26.502439 -31.785891 -13.643950
v -23.904369 -29.917740 -20.288549
v -24.528090 -31.049530 -18.334000
v -25.667709 -32.639622 -14.005300
v -26.502439 -33.259029 -9.463526
v -23.904369 -32.199291 -16.332130
v -24.528090 -33.106892 -14.203080
v -25.667709 -34.150681 -9.717226
v -26.502439 -34.207260 -5.133757
v -23.904369 -33.982971 -12.127680
v -24.528090 -34.638721 -9.856081
v -25.667709 -35.123341 -5.275959
v -26.502439 -34.616230 -0.720282
v -23.904369 -35.242310 -7.737586
v -24.528090 -35.624722 -5.353789
v -25.667709 -35.542831 -0.748831
v -26.502439 -34.479740 3.710005
v -23.904369 -35.958618 -3.226961
v -24.528090 -36.049969 -0.764456
v -25.667709 -35.402828 3.795538
v -26.502439 -33.799831 8.089934
v -23.904369 -36.121288 1.337290
v -24.528090 -35.908051 3.842355
v -25.667709 -34.705429 8.288260
v -26.502439 -32.586868 12.353120
v -23.904369 -35.727901 5.887468
v -24.528090 -35.201080 8.396807
v -25.667709 -33.461208 12.661220
v -23.904369 -34.784302 10.356070
v -24.528090 -33.939758 12.829860
v -26.502439 -21.202551 -27.658560
v -25.667709 -18.072889 -31.007669
v -26.502439 -17.584869 -30.219481
v -25.667709 -14.067350 -33.158600
v -26.502439 -13.679870 -32.316410
v -25.667709 -9.827836 -34.800999
v -26.502439 -9.546800 -33.917568
v -25.667709 -5.418626 -35.909962
v -26.502439 -5.248292 -34.998692
v -25.667709 -0.906572 -36.468670
v -26.502439 -0.849504 -35.543381
v -25.667709 3.639953 -36.468670
v -26.502439 3.582885 -35.543381
v -25.667709 8.152023 -35.909962
v -26.502439 7.981673 -34.998692
v -25.667709 12.561250 -34.800999
v -26.502439 12.280200 -33.917568
v -25.667709 16.800751 -33.158600
v -26.502439 16.413271 -32.316410
v -25.667709 20.806290 -31.007669
v -26.502439 20.318251 -30.219481
v -25.667709 24.517151 -28.380810
v -26.502439 23.935961 -27.658560
v -25.667709 27.877069 -25.317829
v -26.502439 27.211519 -24.672480
v -25.667709 30.835140 -21.865179
v -26.502439 30.095341 -21.306511
v -25.667709 33.346458 -18.075180
v -26.502439 32.543610 -17.611660
v -25.667709 35.373020 -14.005300
v -26.502439 34.519321 -13.643950
v -25.667709 36.884060 -9.717226
v -26.502439 35.992432 -9.463526
v -25.667709 37.856720 -5.275959
v -26.502439 36.940639 -5.133757
v -25.667709 38.276241 -0.748831
v -26.502439 37.349609 -0.720282
v -25.667709 38.136230 3.795538
v -26.502439 37.213131 3.710005
v -25.667709 37.438808 8.288260
v -26.502439 36.533230 8.089934
v -25.667709 36.194611 12.661220
v -26.502439 35.320251 12.353120
v -25.667709 34.422421 16.848150
v -26.502439 33.592590 16.434919
v -25.667709 32.149170 20.785549
v -26.502439 31.376369 20.273479
v -25.667709 29.409300 24.413759
v -26.502439 28.705259 23.810600
v -25.667709 26.244289 27.677759
v -26.502439 25.619749 26.992670
v -25.667709 22.702181 30.528090
v -26.502439 22.166550 29.771429
v -25.667709 18.836651 32.921520
v -26.502439 18.398069 32.104778
v -25.667709 14.706280 34.821789
v -26.904360 9.866683 26.264080
v -26.904360 13.538730 24.753180
v -26.904360 16.952040 22.724430
v -26.904360 20.034069 20.220949
v -26.904360 22.719370 17.295919
v -26.904360 24.950850 14.011550
v -26.904360 26.681030 10.437620
v -26.904360 27.873199 6.650106
v -26.904360 28.501949 2.729498
v -26.904360 28.553980 -1.240870
v -26.904360 28.028170 -5.176611
v -26.904360 26.935699 -8.994071
v -26.904360 25.299761 -12.612110
v -26.904360 23.155149 -15.953840
v -26.904360 20.547421 -18.948231
v -26.904360 17.532040 -21.531630
v -26.904360 14.173060 -23.649130
v -26.904360 10.541910 -25.255739
v -26.904360 6.715728 -26.317301
v -26.904360 2.775878 -26.811251
v -26.904360 -1.193940 -26.727091
v -26.904360 -5.109330 -26.066610
v -26.904360 -8.887086 -24.843849
v -26.904360 -12.446900 -23.084789
v -26.904360 -15.713100 -20.826830
v -26.904360 -18.616310 -18.117960
v -26.904360 -21.094770 -15.015740
v -26.904360 -23.095840 -11.586130
v -26.904360 -24.576950 -7.902005
v -26.904360 -25.506670 -4.041674
v -26.904360 -25.865219 -0.087187
v -26.904360 -25.644960 3.877405
v -26.904360 -24.850590 7.767843
v -26.904360 -23.499001 11.501440
v -25.904360 13.253690 22.381510
v -25.904360 9.866683 23.898979
v -26.642981 11.552050 24.322580
v -26.645950 9.866683 24.979019
v -26.642981 14.716220 22.712749
v -26.642981 17.631710 20.687059
v -26.642981 20.244230 18.283239
v -26.642981 22.505110 15.546080
v -26.642981 24.372190 12.526550
v -26.642981 25.810730 9.280913
v -26.642981 26.793940 5.869623
v -26.642981 27.303499 2.356226
v -26.642981 27.330660 -1.180716
v -26.642981 26.872589 -4.714404
v -25.904360 26.205990 -2.441778
v -25.904360 25.513269 -6.087944
v -26.642981 25.940210 -8.139931
v -25.904360 24.288420 -9.591376
v -26.642981 24.550060 -11.406590
v -25.904360 22.558380 -12.874870
v -26.642981 22.728060 -14.453530
v -25.904360 20.361280 -15.866050
v -26.642981 20.508129 -17.224001
v -25.904360 17.745590 -18.499010
v -26.642981 17.931620 -19.666380
v -25.904360 14.768920 -20.715700
v -26.642981 15.046550 -21.735180
v -25.904360 11.496860 -22.467291
v -26.642981 11.906660 -23.391859
v -26.642981 8.570419 -24.605560
v -26.642981 5.099975 -25.353680
v -26.642981 1.560012 -25.622259
v -26.642981 -1.983567 -25.406321
v -26.642981 -5.464738 -24.709869
v -26.642981 -8.818651 -23.545891
v -26.642981 -11.982820 -21.936060
v -26.642981 -14.898320 -19.910370
v -26.642981 -17.510839 -17.506559
v -25.904360 -16.064140 -17.532770
v -25.904360 -18.525209 -14.754720
v -26.642981 -19.771700 -14.769390
v -25.904360 -20.547871 -11.642940
v -26.642981 -21.638800 -11.749860
v -25.904360 -22.087561 -8.266007
v -26.642981 -23.077330 -8.504229
v -26.642981 -24.060530 -5.092940
v -26.642981 -24.570070 -1.579542
v -26.642981 -24.596470 1.970510
v -26.642981 -24.139210 5.491090
v -26.642981 -23.206800 8.916613
v -26.646259 -22.555559 10.621680
v -25.904360 -21.761070 9.880793
v -25.904360 -22.911520 6.352224
v -25.904360 -23.526920 2.692220
v -25.904360 -23.593679 -1.018564
v -25.904360 -23.110340 -4.698336
v -25.904360 -13.218900 -19.915840
v -25.904360 -10.052250 -21.851440
v -25.904360 -6.633897 -23.296890
v -25.904360 -3.039247 -24.220350
v -25.904360 0.652511 -24.601450
v -25.904360 4.360015 -24.431810
v -25.904360 8.001556 -23.715160
v -25.904360 26.351259 1.266760
v -25.904360 25.945890 4.955938
v -25.904360 24.998819 8.544451
v -25.904360 23.530939 11.953210
v -25.904360 21.574570 15.107100
v -25.904360 19.172850 17.936590
v -25.904360 16.378691 20.379339
v 26.095640 -22.911520 6.352224
v 26.095640 -21.761070 9.880793
v 26.834261 -23.206800 8.916613
v 26.837540 -22.555559 10.621680
v 27.095640 -24.850590 7.767843
v 27.095640 -23.499001 11.501440
v 26.834261 -24.139210 5.491090
v 27.095640 -25.644960 3.877405
v 26.834261 -24.596470 1.970510
v 27.095640 -25.865219 -0.087187
v 26.834261 -24.570070 -1.579542
v 27.095640 -25.506670 -4.041674
v 26.834261 -24.060530 -5.092940
v 27.095640 -24.576950 -7.902005
v 26.834261 -23.077330 -8.504229
v 27.095640 -23.095840 -11.586130
v 26.834261 -21.638800 -11.749860
v 27.095640 -21.094770 -15.015740
v 26.834261 -19.771700 -14.769390
v 27.095640 -18.616310 -18.117960
v 26.834261 -17.510839 -17.506559
v 27.095640 -15.713100 -20.826830
v 26.834261 -14.898320 -19.910370
v 26.834261 -11.982820 -21.936060
v 26.095640 -13.218900 -19.915840
v 26.095640 -10.052250 -21.851440
v 26.834261 -8.818651 -23.545891
v 26.095640 -6.633897 -23.296890
v 26.834261 -5.464738 -24.709869
v 26.095640 -3.039247 -24.220350
v 26.834261 -1.983567 -25.406321
v 26.095640 0.652511 -24.601450
v 26.834261 1.560012 -25.622259
v 26.095640 4.360015 -24.431810
v 26.834261 5.099975 -25.353680
v 26.095640 8.001556 -23.715160
v 26.834261 8.570419 -24.605560
v 26.095640 11.496860 -22.467291
v 26.834261 11.906660 -23.391859
v 26.834261 15.046550 -21.735180
v 27.095640 14.173060 -23.649130
v 27.095640 17.532040 -21.531630
v 27.095640 -12.446900 -23.084789
v 27.095640 -8.887086 -24.843849
v 27.095640 -5.109330 -26.066610
v 27.095640 -1.193940 -26.727091
v 27.095640 2.775878 -26.811251
v 27.095640 6.715728 -26.317301
v 27.095640 10.541910 -25.255739
v 26.834261 17.931620 -19.666380
v 27.095640 20.547421 -18.948231
v 26.834261 20.508129 -17.224001
v 27.095640 23.155149 -15.953840
v 26.834261 22.728060 -14.453530
v 27.095640 25.299761 -12.612110
v 26.834261 24.550060 -11.406590
v 27.095640 26.935699 -8.994071
v 26.834261 25.940210 -8.139931
v 27.095640 28.028170 -5.176611
v 26.834261 26.872589 -4.714404
v 27.095640 28.553980 -1.240870
v 26.834261 27.330660 -1.180716
v 26.834261 27.303499 2.356226
v 26.095640 26.351259 1.266760
v 26.095640 25.945890 4.955938
v 26.834261 26.793940 5.869623
v 26.095640 24.998819 8.544451
v 26.834261 25.810730 9.280913
v 26.095640 23.530939 11.953210
v 26.834261 24.372190 12.526550
v 26.834261 22.505110 15.546080
v 27.095640 24.950850 14.011550
v 27.095640 22.719370 17.295919
v 27.095640 28.501949 2.729498
v 27.095640 27.873199 6.650106
v 27.095640 26.681030 10.437620
v 26.834261 20.244230 18.283239
v 27.095640 20.034069 20.220949
v 26.834261 17.631710 20.687059
v 27.095640 16.952040 22.724430
v 26.834261 14.716220 22.712749
v 27.095640 13.538730 24.753180
v 26.834261 11.552050 24.322580
v 27.095640 9.866683 26.264080
v 26.837240 9.866683 24.979019
v 26.095640 9.866683 23.898979
v 26.095640 13.253690 22.381510
v 26.095640 16.378691 20.379339
v 26.095640 19.172850 17.936590
v 26.095640 21.574570 15.107100
v 26.095640 26.205990 -2.441778
v 26.095640 25.513269 -6.087944
v 26.095640 24.288420 -9.591376
v 26.095640 22.558380 -12.874870
v 26.095640 20.361280 -15.866050
v 26.095640 17.745590 -18.499010
v 26.095640 14.768920 -20.715700
v 26.095640 -16.064140 -17.532770
v 26.095640 -18.525209 -14.754720
v 26.095640 -20.547871 -11.642940
v 26.095640 -22.087561 -8.266007
v 26.095640 -23.110340 -4.698336
v 26.095640 -23.593679 -1.018564
v 26.095640 -23.526920 2.692220
v 24.095640 14.243670 35.608131
v 24.095640 9.866683 36.912300
v 24.719379 12.715060 36.061192
v 25.256710 9.866683 36.672192
v 25.858990 12.561250 35.577679
v 26.231279 9.866683 35.994652
v 26.693729 12.280200 34.694248
v 26.872881 9.866683 34.994080
v 27.079210 11.920520 33.563660
v 27.095640 9.866683 33.824848
v 27.095640 14.034990 32.478271
v 27.079210 15.917390 32.015282
v 27.095640 17.999069 30.614389
v 27.079210 19.693689 29.987450
v 27.095640 21.695021 28.263229
v 27.079210 23.192169 27.510929
v 27.095640 25.063250 25.462709
v 27.079210 26.359770 24.623260
v 27.095640 28.049471 22.257950
v 27.079210 29.148529 21.368219
v 27.095640 30.605530 18.700640
v 27.079210 31.516140 17.795130
v 27.095640 32.690250 14.848110
v 27.079210 33.426731 13.958190
v 27.095640 34.269989 10.762490
v 27.079210 34.851292 9.915534
v 27.095640 35.319302 6.509618
v 27.079210 35.768280 5.728456
v 27.095640 35.821289 2.158067
v 27.079210 36.163761 1.460428
v 27.095640 35.767792 -2.222014
v 27.079210 36.031769 -2.823851
v 27.095640 35.159760 -6.560011
v 27.079210 35.374298 -7.059435
v 27.095640 34.006931 -10.786000
v 27.079210 34.201290 -11.182120
v 27.095640 32.327911 -14.831840
v 27.079210 32.530548 -15.129410
v 27.095640 30.149750 -18.632320
v 27.079210 30.387390 -18.841459
v 27.079210 27.804319 -22.262020
v 26.693729 28.705259 -23.033920
v 26.693729 25.619749 -26.215981
v 25.858990 26.244289 -26.901079
v 25.858990 22.702181 -29.751400
v 24.719379 22.995331 -30.165541
v 24.719379 19.076691 -32.591862
v 24.095640 22.462860 -30.614920
v 24.095640 18.537491 -32.949532
v 24.719379 14.889590 -34.518242
v 24.095640 14.357450 -34.789639
v 24.719379 10.497470 -35.915470
v 24.095640 9.984695 -36.107960
v 24.719379 5.966948 -36.762371
v 24.095640 5.484130 -36.884930
v 24.719379 1.366714 -37.046101
v 24.095640 0.922484 -37.109032
v 24.719379 -3.233552 -36.762371
v 24.095640 -3.632569 -36.776932
v 24.719379 -7.764070 -35.915470
v 24.095640 -8.113481 -35.893559
v 24.719379 -12.156190 -34.518242
v 24.095640 -12.453770 -34.472019
v 24.719379 -16.343290 -32.591862
v 24.095640 -16.589050 -32.533401
v 24.719379 -20.261940 -30.165541
v 24.095640 -20.458000 -30.106449
v 24.719379 -23.852720 -27.276051
v 24.095640 -24.003220 -27.227180
v 24.719379 -27.061211 -23.967190
v 24.095640 -27.172140 -23.938280
v 24.719379 -29.859819 -20.257311
v 24.095640 -29.917740 -20.288549
v 24.719379 -32.140961 -16.302191
v 24.095640 -32.199291 -16.332130
v 24.095640 -33.982971 -12.127680
v 24.719379 -33.939758 -12.053170
v 24.095640 -35.242310 -7.737586
v 24.719379 -35.201080 -7.620125
v 24.095640 -35.958618 -3.226961
v 24.719379 -35.908051 -3.065672
v 24.095640 -36.121288 1.337290
v 24.719379 -36.049969 1.541139
v 24.095640 -35.727901 5.887468
v 24.719379 -35.624722 6.130472
v 24.095640 -34.784302 10.356070
v 24.719379 -34.638721 10.632760
v 24.095640 -33.304459 14.676830
v 24.719379 -33.106892 14.979760
v 24.095640 -31.310350 18.785650
v 25.257811 -31.134020 18.621210
v 25.858990 -32.639622 14.781980
v 26.232470 -30.636810 18.157570
v 26.693729 -31.785891 14.420630
v 26.873320 -29.903410 17.473660
v 27.079210 -30.693331 13.958190
v 27.095640 -29.047001 16.675039
v 27.095640 -30.865589 12.689980
v 27.079210 -32.117901 9.915534
v 27.095640 -32.164532 8.506602
v 27.079210 -33.034882 5.728456
v 27.095640 -32.922939 4.192342
v 27.079210 -33.430370 1.460428
v 27.095640 -33.128571 -0.183233
v 27.079210 -33.298382 -2.823851
v 27.095640 -32.778091 -4.549597
v 27.079210 -32.640900 -7.059435
v 27.095640 -31.877180 -8.836354
v 27.079210 -31.467880 -11.182120
v 27.095640 -30.440340 -12.974400
v 27.079210 -29.796980 -15.129730
v 27.095640 -28.490730 -16.897030
v 27.079210 -27.655491 -18.839190
v 27.095640 -26.059799 -20.541000
v 27.079210 -25.070890 -22.262020
v 27.095640 -23.186720 -23.847570
v 27.079210 -22.087070 -25.339211
v 27.095640 -19.917820 -26.763439
v 27.079210 -18.747681 -28.026400
v 27.095640 -16.305799 -29.241590
v 27.079210 -15.103380 -30.282850
v 27.095640 -12.408880 -31.242081
v 27.079210 -11.209410 -32.074360
v 27.095640 -8.289873 -32.732658
v 27.079210 -7.124803 -33.373772
v 27.095640 -4.015199 -33.689289
v 27.079210 -2.911469 -34.161381
v 27.095640 0.346221 -34.096561
v 27.079210 1.366714 -34.425240
v 27.095640 4.724105 -33.947910
v 27.079210 5.644896 -34.161381
v 27.095640 9.047866 -33.245708
v 27.079210 9.858200 -33.373772
v 27.095640 13.247790 -32.001308
v 27.079210 13.942810 -32.074360
v 27.095640 17.256189 -30.234760
v 27.079210 17.836781 -30.282850
v 27.095640 21.008421 -27.974529
v 27.079210 21.481060 -28.026400
v 27.095640 24.444040 -25.257059
v 27.079210 24.820450 -25.339211
v 27.095640 27.507601 -22.126169
v 24.095640 26.075319 -27.820440
v 24.719379 26.586121 -27.276051
v 25.858990 29.409300 -23.637070
v 26.693729 31.376369 -19.496799
v 24.095640 29.321260 -24.607531
v 24.719379 29.794580 -23.967190
v 25.858990 32.149170 -20.008869
v 26.693729 33.592590 -15.658240
v 24.095640 32.152531 -21.023870
v 24.719379 32.572140 -20.289129
v 25.858990 34.422421 -16.071461
v 26.693729 35.320251 -11.576430
v 24.095640 34.527161 -17.122601
v 24.719379 34.876621 -16.297630
v 25.858990 36.194611 -11.884540
v 26.693729 36.533230 -7.313248
v 24.095640 36.409939 -12.961590
v 24.719379 36.673161 -12.053170
v 25.858990 37.438808 -7.511578
v 26.693729 37.213131 -2.933321
v 24.095640 37.772949 -8.602562
v 24.719379 37.934479 -7.620125
v 25.858990 38.136230 -3.018858
v 26.693729 37.349609 1.496965
v 24.095640 38.595890 -4.110171
v 24.719379 38.641449 -3.065672
v 25.858990 38.276241 1.525514
v 26.693729 36.940639 5.910440
v 24.095640 38.866638 0.448946
v 24.719379 38.783390 1.541139
v 25.858990 37.856720 6.052644
v 26.693729 35.992432 10.240210
v 24.095640 38.581150 5.007162
v 24.719379 38.358120 6.130472
v 25.858990 36.884060 10.493910
v 26.693729 34.519321 14.420630
v 24.095640 37.743679 9.496870
v 24.719379 37.372101 10.632760
v 25.858990 35.373020 14.781980
v 26.693729 32.543610 18.388350
v 24.095640 36.366611 13.851470
v 24.719379 35.840271 14.979760
v 25.858990 33.346458 18.851870
v 26.693729 30.095341 22.083191
v 24.095640 34.470402 18.006371
v 24.719379 33.785858 19.105560
v 25.858990 30.835140 22.641859
v 26.693729 27.211519 25.449160
v 24.095640 32.083160 21.899950
v 24.719379 31.240021 22.947630
v 25.858990 27.877069 26.094521
v 26.693729 23.935961 28.435240
v 24.095640 29.240290 25.474440
v 24.719379 28.241329 26.447729
v 25.858990 24.517151 29.157490
v 26.693729 20.318251 30.996161
v 24.095640 25.984011 28.676830
v 24.719379 24.835230 29.552790
v 25.858990 20.806290 31.784349
v 26.693729 16.413271 33.093090
v 24.095640 22.362530 31.459620
v 24.719379 21.073389 32.215752
v 25.858990 16.800751 33.935280
v 24.095640 18.429661 33.781528
v 24.719379 17.012819 34.396240
v 26.693729 1.366714 -35.611660
v 26.693729 5.790664 -35.338799
v 26.693729 10.147580 -34.524349
v 26.693729 14.371380 -33.180660
v 26.693729 18.398069 -31.328100
v 26.693729 22.166550 -28.994749
v 25.858990 1.366714 -36.538712
v 25.858990 5.904586 -36.258820
v 25.858990 10.373720 -35.423401
v 25.858990 14.706280 -34.045109
v 25.858990 18.836651 -32.144840
v 26.693729 -3.057267 -35.338799
v 26.693729 -7.414186 -34.524349
v 26.693729 -11.638000 -33.180660
v 26.693729 -15.664670 -31.328100
v 26.693729 -19.433149 -28.994749
v 26.693729 -22.886339 -26.215981
v 26.693729 -25.971880 -23.033920
v 25.858990 -3.171205 -36.258820
v 25.858990 -7.640305 -35.423401
v 25.858990 -11.972890 -34.045109
v 25.858990 -16.103260 -32.144840
v 25.858990 -19.968781 -29.751400
v 25.858990 -23.510900 -26.901079
v 25.858990 -26.675880 -23.637070
v 26.693729 -28.650789 -19.485029
v 25.858990 -29.430161 -19.987141
v 26.693729 -30.858339 -15.659930
v 26.693729 -32.586868 -11.576430
v 26.693729 -33.799831 -7.313248
v 26.693729 -34.479740 -2.933321
v 26.693729 -34.616230 1.496965
v 26.693729 -34.207260 5.910440
v 26.693729 -33.259029 10.240210
v 25.858990 -31.687500 -16.074579
v 25.858990 -33.461208 -11.884540
v 25.858990 -34.705429 -7.511578
v 25.858990 -35.402828 -3.018858
v 25.858990 -35.542831 1.525514
v 25.858990 -35.123341 6.052644
v 25.858990 -34.150681 10.493910
vn 0.0034 -0.8996 0.4366
vn -0.1979 -0.8511 0.4863
vn -0.4067 -0.8234 0.3957
vn -0.5622 -0.7155 0.4146
vn -0.7429 -0.6091 0.2776
vn -0.8375 -0.4665 0.2845
vn -0.9504 -0.2927 0.1050
vn -0.9824 -0.1438 0.1193
vn -0.9990 -0.0411 0.0188
vn -0.9981 -0.0560 0.0237
vn -0.9990 -0.0438 0.0136
vn -0.9982 -0.0575 0.0163
vn -0.9989 -0.0458 0.0081
vn -0.9983 -0.0579 0.0090
vn -0.9989 -0.0472 0.0022
vn -0.9984 -0.0573 0.0018
vn -0.9988 -0.0480 -0.0039
vn -0.9984 -0.0558 -0.0052
vn -0.9988 -0.0481 -0.0101
vn -0.9985 -0.0535 -0.0117
vn -0.9987 -0.0475 -0.0165
vn -0.9986 -0.0504 -0.0177
vn -0.9987 -0.0461 -0.0229
vn -0.9986 -0.0469 -0.0234
vn -0.9986 -0.0437 -0.0290
vn -0.9509 -0.2579 -0.1711
vn -0.9509 -0.2351 -0.2014
vn -0.7425 -0.5087 -0.4358
vn -0.7425 -0.4513 -0.4950
vn -0.4061 -0.6156 -0.6753
vn -0.4061 -0.5280 -0.7459
vn -0.2131 -0.5645 -0.7974
vn 0.0054 -0.5314 -0.8471
vn -0.2127 -0.4623 -0.8609
vn 0.0049 -0.4245 -0.9054
vn -0.2122 -0.3530 -0.9112
vn 0.0043 -0.3113 -0.9503
vn -0.2115 -0.2384 -0.9479
vn 0.0036 -0.1934 -0.9811
vn -0.2108 -0.1201 -0.9701
vn 0.0027 -0.0727 -0.9973
vn -0.2100 -0.0000 -0.9777
vn 0.0018 0.0491 -0.9988
vn -0.2090 0.1202 -0.9705
vn 0.0007 0.1701 -0.9854
vn -0.2080 0.2386 -0.9486
vn -0.0004 0.2887 -0.9574
vn -0.2068 0.3534 -0.9123
vn -0.0017 0.4029 -0.9152
vn -0.2056 0.4630 -0.8622
vn -0.0031 0.5112 -0.8595
vn -0.2042 0.5656 -0.7990
vn -0.0046 0.6119 -0.7910
vn -0.2028 0.6597 -0.7236
vn -0.0062 0.7035 -0.7107
vn -0.2013 0.7439 -0.6373
vn -0.0079 0.7846 -0.6199
vn -0.1996 0.8168 -0.5412
vn -0.0097 0.8542 -0.5199
vn -0.1979 0.8775 -0.4369
vn -0.0116 0.9110 -0.4122
vn -0.1960 0.9249 -0.3259
vn -0.0136 0.9543 -0.2984
vn -0.1941 0.9583 -0.2099
vn -0.0157 0.9835 -0.1802
vn -0.1920 0.9772 -0.0906
vn -0.0179 0.9981 -0.0593
vn -0.1898 0.9814 0.0302
vn -0.0202 0.9978 0.0625
vn -0.1875 0.9706 0.1507
vn -0.0227 0.9828 0.1833
vn -0.1852 0.9452 0.2689
vn -0.0252 0.9532 0.3014
vn -0.1827 0.9054 0.3832
vn -0.0279 0.9094 0.4150
vn -0.1801 0.8519 0.4918
vn -0.0307 0.8521 0.5225
vn -0.1775 0.7854 0.5931
vn -0.0335 0.7822 0.6221
vn -0.1747 0.7069 0.6854
vn -0.0365 0.7007 0.7125
vn -0.1718 0.6176 0.7675
vn -0.0396 0.6088 0.7923
vn -0.1687 0.5189 0.8380
vn -0.0428 0.5079 0.8603
vn -0.1656 0.4122 0.8959
vn -0.0460 0.3995 0.9156
vn -0.1624 0.2992 0.9403
vn -0.0493 0.2852 0.9572
vn -0.2005 0.1404 0.9696
vn -0.4045 0.3172 0.8578
vn -0.5686 0.0874 0.8179
vn -0.7362 0.2917 0.6107
vn -0.8409 -0.0471 0.5392
vn -0.9037 0.1298 0.4079
vn -0.9510 0.1048 0.2908
vn -0.9509 0.1294 0.2812
vn -0.9985 0.0229 0.0497
vn -0.9988 0.0209 0.0445
vn -0.9984 0.0295 0.0476
vn -0.9988 0.0259 0.0407
vn -0.9984 0.0359 0.0446
vn -0.9989 0.0303 0.0364
vn -0.9983 0.0420 0.0407
vn -0.9989 0.0340 0.0317
vn -0.9982 0.0476 0.0360
vn -0.9989 0.0372 0.0267
vn -0.9981 0.0527 0.0304
vn -0.9990 0.0398 0.0215
vn -0.9981 0.0570 0.0241
vn -0.9990 0.0417 0.0161
vn -0.9980 0.0604 0.0172
vn -0.9990 0.0430 0.0106
vn -0.9980 0.0629 0.0098
vn -0.9990 0.0436 0.0050
vn -0.9979 0.0644 0.0020
vn -0.9991 0.0435 -0.0005
vn -0.9979 0.0647 -0.0060
vn -0.9991 0.0429 -0.0060
vn -0.9979 0.0640 -0.0140
vn -0.9991 0.0416 -0.0113
vn -0.9978 0.0622 -0.0219
vn -0.9991 0.0397 -0.0165
vn -0.9978 0.0592 -0.0295
vn -0.9991 0.0372 -0.0213
vn -0.9978 0.0552 -0.0366
vn -0.9991 0.0342 -0.0259
vn -0.9978 0.0503 -0.0431
vn -0.9991 0.0307 -0.0300
vn -0.9978 0.0445 -0.0488
vn -0.9991 0.0267 -0.0337
vn -0.9978 0.0380 -0.0537
vn -0.9991 0.0223 -0.0370
vn -0.9979 0.0309 -0.0576
vn -0.9991 0.0175 -0.0397
vn -0.9979 0.0234 -0.0604
vn -0.9990 0.0124 -0.0419
vn -0.9979 0.0156 -0.0622
vn -0.9990 0.0071 -0.0434
vn -0.9980 0.0078 -0.0629
vn -0.9990 0.0015 -0.0444
vn -0.9980 -0.0000 -0.0625
vn -0.9990 -0.0042 -0.0447
vn -0.9981 -0.0076 -0.0610
vn -0.9990 -0.0099 -0.0443
vn -0.9982 -0.0147 -0.0586
vn -0.9989 -0.0157 -0.0433
vn -0.9982 -0.0214 -0.0553
vn -0.9989 -0.0214 -0.0416
vn -0.9983 -0.0275 -0.0512
vn -0.9989 -0.0269 -0.0393
vn -0.9984 -0.0328 -0.0464
vn -0.9988 -0.0323 -0.0362
vn -0.9985 -0.0374 -0.0411
vn -0.9988 -0.0374 -0.0325
vn -0.9985 -0.0412 -0.0353
vn -0.9987 -0.0422 -0.0282
vn -0.9987 0.0155 0.0479
vn -0.9812 0.0486 0.1869
vn 0.0059 -0.6304 -0.7762
vn -0.2135 -0.6582 -0.7220
vn -0.4061 -0.6940 -0.5946
vn -0.7425 -0.5582 -0.3702
vn -0.9508 -0.2581 -0.1712
vn -0.9509 -0.2769 -0.1381
vn 0.0062 -0.7201 -0.6938
vn -0.2137 -0.7419 -0.6356
vn -0.4061 -0.7617 -0.5050
vn -0.7423 -0.5585 -0.3703
vn -0.7428 -0.5992 -0.2987
vn -0.9509 -0.2770 -0.1381
vn -0.9509 -0.2919 -0.1029
vn 0.0064 -0.7991 -0.6012
vn -0.2136 -0.8143 -0.5397
vn -0.4056 -0.7619 -0.5049
vn -0.4066 -0.8177 -0.4074
vn -0.7425 -0.5995 -0.2987
vn -0.7425 -0.6318 -0.2226
vn -0.9509 -0.3024 -0.0662
vn 0.0065 -0.8663 -0.4995
vn -0.2141 -0.8744 -0.4355
vn -0.4061 -0.8180 -0.4074
vn -0.4061 -0.8619 -0.3037
vn -0.7425 -0.6543 -0.1433
vn -0.9509 -0.3082 -0.0286
vn 0.0065 -0.9206 -0.3905
vn -0.2138 -0.9213 -0.3247
vn -0.4061 -0.8927 -0.1955
vn -0.7425 -0.6670 -0.0618
vn -0.9509 -0.3094 0.0095
vn 0.0064 -0.9612 -0.2757
vn -0.2136 -0.9543 -0.2090
vn -0.4061 -0.9099 -0.0843
vn -0.7425 -0.6695 0.0206
vn -0.9509 -0.3059 0.0475
vn 0.0061 -0.9876 -0.1568
vn -0.2134 -0.9728 -0.0901
vn -0.4061 -0.9134 0.0281
vn -0.7425 -0.6619 0.1028
vn -0.9509 -0.2977 0.0847
vn 0.0057 -0.9993 -0.0356
vn -0.2130 -0.9766 0.0301
vn -0.4061 -0.9030 0.1402
vn -0.7425 -0.6619 0.1027
vn -0.7425 -0.6443 0.1833
vn -0.9509 -0.2851 0.1207
vn 0.0053 -0.9963 0.0861
vn -0.2126 -0.9656 0.1499
vn -0.4061 -0.8789 0.2501
vn -0.7425 -0.6169 0.2611
vn 0.0048 -0.9784 0.2066
vn -0.2120 -0.9400 0.2674
vn -0.4061 -0.8416 0.3562
vn 0.0041 -0.9460 0.3240
vn -0.2114 -0.9001 0.3810
vn -0.9509 -0.2085 -0.2288
vn -0.7425 -0.3870 -0.5467
vn -0.4061 -0.4323 -0.8051
vn -0.9509 -0.1788 -0.2526
vn -0.7425 -0.3169 -0.5901
vn -0.4061 -0.3301 -0.8521
vn -0.9509 -0.1464 -0.2727
vn -0.7425 -0.2420 -0.6246
vn -0.4061 -0.2229 -0.8862
vn -0.9509 -0.1118 -0.2886
vn -0.7425 -0.1634 -0.6496
vn -0.4061 -0.1123 -0.9069
vn -0.9509 -0.0755 -0.3002
vn -0.7425 -0.0823 -0.6648
vn -0.4061 -0.0000 -0.9138
vn -0.9509 -0.0380 -0.3072
vn -0.7425 -0.0000 -0.6698
vn -0.4061 0.1123 -0.9069
vn -0.9509 -0.0000 -0.3095
vn -0.7425 0.0823 -0.6648
vn -0.4061 0.2229 -0.8862
vn -0.9509 0.0380 -0.3072
vn -0.7425 0.1634 -0.6496
vn -0.4061 0.3301 -0.8521
vn -0.9509 0.0755 -0.3002
vn -0.7425 0.2420 -0.6246
vn -0.4061 0.4323 -0.8051
vn -0.9509 0.1118 -0.2886
vn -0.7425 0.3169 -0.5901
vn -0.4061 0.5280 -0.7459
vn -0.9509 0.1464 -0.2727
vn -0.7425 0.3870 -0.5467
vn -0.4061 0.6156 -0.6753
vn -0.9509 0.1788 -0.2526
vn -0.7425 0.4513 -0.4950
vn -0.4061 0.6940 -0.5946
vn -0.9509 0.2085 -0.2288
vn -0.7425 0.5087 -0.4358
vn -0.4061 0.7618 -0.5048
vn -0.9509 0.2351 -0.2014
vn -0.7425 0.5584 -0.3700
vn -0.4061 0.8180 -0.4073
vn -0.9509 0.2580 -0.1710
vn -0.7425 0.5996 -0.2986
vn -0.4061 0.8619 -0.3037
vn -0.9509 0.2771 -0.1380
vn -0.7425 0.6318 -0.2226
vn -0.4061 0.8927 -0.1955
vn -0.9509 0.2919 -0.1029
vn -0.7425 0.6543 -0.1433
vn -0.4061 0.9099 -0.0843
vn -0.9509 0.3024 -0.0662
vn -0.7425 0.6670 -0.0618
vn -0.4061 0.9134 0.0281
vn -0.9509 0.3082 -0.0286
vn -0.7425 0.6695 0.0206
vn -0.4061 0.9030 0.1402
vn -0.9509 0.3094 0.0095
vn -0.7425 0.6619 0.1028
vn -0.4061 0.8789 0.2501
vn -0.9509 0.3059 0.0475
vn -0.7425 0.6619 0.1027
vn -0.7425 0.6443 0.1833
vn -0.4061 0.8416 0.3562
vn -0.9509 0.2977 0.0847
vn -0.7425 0.6169 0.2611
vn -0.4061 0.7914 0.4569
vn -0.9509 0.2851 0.1207
vn -0.7425 0.5801 0.3349
vn -0.4061 0.7293 0.5507
vn -0.9509 0.2681 0.1548
vn -0.7425 0.5345 0.4037
vn -0.4061 0.6561 0.6362
vn -0.9509 0.2470 0.1865
vn -0.7425 0.4809 0.4663
vn -0.4061 0.6560 0.6362
vn -0.4061 0.5729 0.7119
vn -0.9509 0.2222 0.2155
vn -0.7425 0.4199 0.5219
vn -0.4061 0.4811 0.7770
vn -0.9509 0.1941 0.2412
vn -0.7425 0.3526 0.5695
vn -0.4061 0.3819 0.8302
vn -0.9509 0.1629 0.2632
vn -0.7425 0.2800 0.6085
vn -0.4061 0.2771 0.8708
vn -0.4059 0.2771 0.8709
vn -0.9509 0.1630 0.2632
vn -0.7425 0.2031 0.6383
vn -0.7424 0.2031 0.6384
vn -1.0000 -0.0000 -0.0000
vn -0.8244 -0.2314 -0.5166
vn -0.8053 -0.2139 -0.5529
vn -0.9734 -0.0817 -0.2141
vn -0.9772 -0.0809 -0.1965
vn -0.9799 -0.0904 -0.1777
vn -0.9752 -0.1130 -0.1901
vn -0.9799 -0.1137 -0.1637
vn -0.9752 -0.1394 -0.1716
vn -0.9799 -0.1351 -0.1468
vn -0.9754 -0.1625 -0.1492
vn -0.9798 -0.1543 -0.1275
vn -0.9756 -0.1817 -0.1235
vn -0.9796 -0.1710 -0.1058
vn -0.9759 -0.1966 -0.0952
vn -0.9793 -0.1851 -0.0820
vn -0.9762 -0.2067 -0.0651
vn -0.9789 -0.1962 -0.0565
vn -0.9767 -0.2120 -0.0340
vn -0.9785 -0.2042 -0.0296
vn -0.9772 -0.2123 -0.0028
vn -0.9779 -0.2090 -0.0016
vn -0.9778 -0.2076 0.0269
vn -0.7905 -0.6074 0.0787
vn -0.8252 -0.5549 0.1054
vn -0.7897 -0.5919 0.1611
vn -0.8255 -0.5328 0.1863
vn -0.7899 -0.5642 0.2401
vn -0.8248 -0.5002 0.2635
vn -0.7913 -0.5248 0.3138
vn -0.8233 -0.4575 0.3360
vn -0.7937 -0.4747 0.3804
vn -0.8208 -0.4053 0.4026
vn -0.7972 -0.4154 0.4382
vn -0.8172 -0.3442 0.4622
vn -0.8016 -0.3484 0.4859
vn -0.8126 -0.2751 0.5138
vn -0.8069 -0.2756 0.5224
vn -0.8069 -0.2019 0.5551
vn -0.9799 -0.0681 0.1873
vn -0.9753 -0.0591 0.2129
vn -0.9773 -0.2098 0.0280
vn -0.9784 -0.1996 0.0543
vn -0.9768 -0.2059 0.0589
vn -0.9788 -0.1883 0.0801
vn -0.9763 -0.1971 0.0891
vn -0.9792 -0.1740 0.1041
vn -0.9759 -0.1835 0.1178
vn -0.9795 -0.1571 0.1259
vn -0.9756 -0.1655 0.1441
vn -0.9797 -0.1378 0.1454
vn -0.9754 -0.1434 0.1674
vn -0.9799 -0.1163 0.1622
vn -0.9753 -0.1179 0.1870
vn -0.9799 -0.0930 0.1763
vn -0.9752 -0.0895 0.2023
vn -0.9799 -0.0421 0.1952
vn -0.9754 -0.0274 0.2186
vn -0.9797 -0.0152 0.1999
vn -0.9757 0.0046 0.2192
vn -0.9795 0.0123 0.2012
vn -0.9760 0.0362 0.2148
vn -0.9792 0.0398 0.1991
vn -0.9764 0.0665 0.2055
vn -0.9788 0.0672 0.1936
vn -0.9769 0.0947 0.1917
vn -0.9783 0.0939 0.1846
vn -0.9774 0.1202 0.1738
vn -0.9777 0.1198 0.1724
vn -0.9780 0.1412 0.1534
vn -0.7926 0.4128 0.4487
vn -0.8218 0.4264 0.3778
vn -0.7957 0.4670 0.3857
vn -0.8187 0.4814 0.3129
vn -0.7998 0.5106 0.3157
vn -0.8145 0.5279 0.2407
vn -0.8048 0.5427 0.2405
vn -0.8091 0.5646 0.1627
vn -0.9796 0.1931 0.0557
vn -0.9755 0.2137 0.0515
vn -0.9771 0.1451 0.1555
vn -0.9786 0.1588 0.1312
vn -0.9766 0.1680 0.1342
vn -0.9790 0.1734 0.1072
vn -0.9762 0.1874 0.1093
vn -0.9793 0.1849 0.0819
vn -0.9758 0.2028 0.0815
vn -0.9798 0.1980 0.0287
vn -0.9753 0.2198 0.0199
vn -0.9799 0.1995 0.0015
vn -0.9752 0.2208 -0.0123
vn -0.9799 0.1976 -0.0257
vn -0.9752 0.2167 -0.0442
vn -0.9799 0.1924 -0.0524
vn -0.9753 0.2076 -0.0752
vn -0.9776 0.1959 -0.0767
vn -0.8052 0.5534 -0.2129
vn -0.8244 0.5382 -0.1755
vn -0.7921 0.5890 -0.1603
vn -0.8224 0.5610 -0.0943
vn -0.7949 0.6017 -0.0781
vn -0.8195 0.5729 -0.0103
vn -0.7987 0.6017 0.0045
vn -0.8156 0.5737 0.0754
vn -0.8035 0.5891 0.0854
vn -0.8105 0.5630 0.1614
vn -0.8240 0.3638 0.4344
vn -0.7906 0.3494 0.5028
vn -0.8252 0.2946 0.4819
vn -0.7897 0.2782 0.5468
vn -0.8255 0.2198 0.5199
vn -0.7899 0.2010 0.5793
vn -0.8248 0.1407 0.5476
vn -0.7913 0.1200 0.5996
vn -0.8233 0.0583 0.5646
vn -0.7937 0.0370 0.6072
vn -0.8208 -0.0261 0.5707
vn -0.7972 -0.0457 0.6020
vn -0.8172 -0.1113 0.5655
vn -0.8016 -0.1260 0.5845
vn -0.8126 -0.1960 0.5489
vn -0.8241 -0.5661 0.0222
vn -0.7927 -0.6095 -0.0047
vn -0.8219 -0.5663 -0.0622
vn -0.7957 -0.5994 -0.0869
vn -0.8187 -0.5552 -0.1465
vn -0.7998 -0.5768 -0.1662
vn -0.8145 -0.5328 -0.2295
vn -0.8048 -0.5427 -0.2405
vn -0.8091 -0.4993 -0.3097
vn -0.8106 -0.4981 -0.3080
vn -0.8035 -0.4590 -0.3791
vn -0.8156 -0.4411 -0.3744
vn -0.7987 -0.4074 -0.4428
vn -0.8195 -0.3772 -0.4314
vn -0.7949 -0.3462 -0.4983
vn -0.8224 -0.3069 -0.4790
vn -0.7921 -0.2768 -0.5441
vn 0.8244 0.5382 -0.1755
vn 0.8052 0.5534 -0.2129
vn 0.9735 0.2130 -0.0832
vn 0.9772 0.1999 -0.0723
vn 0.9799 0.1924 -0.0524
vn 0.9752 0.2167 -0.0442
vn 0.9799 0.1976 -0.0257
vn 0.9752 0.2208 -0.0123
vn 0.9799 0.1995 0.0015
vn 0.9753 0.2198 0.0199
vn 0.9798 0.1980 0.0287
vn 0.9755 0.2137 0.0515
vn 0.9796 0.1931 0.0557
vn 0.9758 0.2028 0.0815
vn 0.9793 0.1849 0.0819
vn 0.9762 0.1874 0.1093
vn 0.9790 0.1734 0.1072
vn 0.9766 0.1680 0.1342
vn 0.9786 0.1588 0.1312
vn 0.9771 0.1451 0.1555
vn 0.9780 0.1412 0.1534
vn 0.9777 0.1198 0.1724
vn 0.7906 0.3494 0.5028
vn 0.8252 0.2946 0.4819
vn 0.7897 0.2782 0.5468
vn 0.8255 0.2198 0.5199
vn 0.7899 0.2010 0.5793
vn 0.8248 0.1407 0.5476
vn 0.7913 0.1200 0.5996
vn 0.8233 0.0583 0.5646
vn 0.7937 0.0370 0.6072
vn 0.8208 -0.0261 0.5707
vn 0.7972 -0.0457 0.6020
vn 0.8172 -0.1113 0.5655
vn 0.8016 -0.1260 0.5845
vn 0.8126 -0.1960 0.5489
vn 0.8069 -0.2019 0.5551
vn 0.8069 -0.2756 0.5224
vn 0.9799 -0.0930 0.1763
vn 0.9753 -0.1179 0.1870
vn 0.9774 0.1202 0.1738
vn 0.9783 0.0939 0.1846
vn 0.9769 0.0947 0.1917
vn 0.9788 0.0672 0.1936
vn 0.9764 0.0665 0.2055
vn 0.9792 0.0398 0.1991
vn 0.9760 0.0362 0.2148
vn 0.9795 0.0123 0.2012
vn 0.9757 0.0046 0.2192
vn 0.9797 -0.0152 0.1999
vn 0.9754 -0.0274 0.2186
vn 0.9799 -0.0421 0.1952
vn 0.9753 -0.0591 0.2129
vn 0.9799 -0.0681 0.1873
vn 0.9752 -0.0895 0.2023
vn 0.9799 -0.1163 0.1622
vn 0.9754 -0.1434 0.1674
vn 0.9797 -0.1378 0.1454
vn 0.9756 -0.1655 0.1441
vn 0.9795 -0.1571 0.1259
vn 0.9759 -0.1835 0.1178
vn 0.9792 -0.1740 0.1041
vn 0.9763 -0.1971 0.0891
vn 0.9788 -0.1883 0.0801
vn 0.9768 -0.2059 0.0589
vn 0.9784 -0.1996 0.0543
vn 0.9773 -0.2098 0.0280
vn 0.9778 -0.2076 0.0269
vn 0.9779 -0.2090 -0.0016
vn 0.7927 -0.6095 -0.0047
vn 0.8219 -0.5663 -0.0622
vn 0.7957 -0.5994 -0.0869
vn 0.8187 -0.5552 -0.1465
vn 0.7998 -0.5768 -0.1662
vn 0.8145 -0.5329 -0.2295
vn 0.8048 -0.5427 -0.2405
vn 0.8091 -0.4998 -0.3090
vn 0.9796 -0.1710 -0.1058
vn 0.9756 -0.1817 -0.1235
vn 0.9772 -0.2123 -0.0028
vn 0.9785 -0.2042 -0.0296
vn 0.9767 -0.2120 -0.0340
vn 0.9789 -0.1962 -0.0565
vn 0.9762 -0.2067 -0.0651
vn 0.9793 -0.1851 -0.0820
vn 0.9759 -0.1966 -0.0952
vn 0.9798 -0.1543 -0.1275
vn 0.9754 -0.1625 -0.1492
vn 0.9799 -0.1351 -0.1468
vn 0.9752 -0.1394 -0.1716
vn 0.9799 -0.1137 -0.1637
vn 0.9752 -0.1130 -0.1901
vn 0.9799 -0.0904 -0.1777
vn 0.9753 -0.0840 -0.2043
vn 0.9776 -0.0748 -0.1966
vn 0.8053 -0.2139 -0.5529
vn 0.8244 -0.2314 -0.5166
vn 0.7921 -0.2768 -0.5441
vn 0.8224 -0.3069 -0.4790
vn 0.7949 -0.3462 -0.4983
vn 0.8195 -0.3772 -0.4314
vn 0.7987 -0.4074 -0.4428
vn 0.8156 -0.4411 -0.3744
vn 0.8035 -0.4590 -0.3791
vn 0.8105 -0.4977 -0.3087
vn 0.8241 -0.5661 0.0222
vn 0.7905 -0.6074 0.0787
vn 0.8252 -0.5549 0.1054
vn 0.7897 -0.5919 0.1611
vn 0.8255 -0.5328 0.1863
vn 0.7899 -0.5642 0.2401
vn 0.8248 -0.5002 0.2635
vn 0.7913 -0.5248 0.3138
vn 0.8233 -0.4575 0.3360
vn 0.7937 -0.4747 0.3804
vn 0.8208 -0.4053 0.4026
vn 0.7972 -0.4154 0.4382
vn 0.8172 -0.3442 0.4622
vn 0.8016 -0.3484 0.4859
vn 0.8126 -0.2751 0.5138
vn 0.8240 0.3638 0.4344
vn 0.7926 0.4128 0.4487
vn 0.8218 0.4264 0.3778
vn 0.7957 0.4670 0.3857
vn 0.8187 0.4814 0.3129
vn 0.7998 0.5106 0.3157
vn 0.8145 0.5279 0.2407
vn 0.8048 0.5427 0.2405
vn 0.8091 0.5649 0.1619
vn 0.8106 0.5627 0.1622
vn 0.8035 0.5891 0.0854
vn 0.8156 0.5737 0.0754
vn 0.7987 0.6017 0.0045
vn 0.8195 0.5729 -0.0103
vn 0.7949 0.6017 -0.0781
vn 0.8224 0.5610 -0.0943
vn 0.7921 0.5890 -0.1603
vn 0.0037 0.2856 0.9584
vn 0.1966 0.2410 0.9504
vn 0.4067 0.2643 0.8745
vn 0.5591 0.2017 0.8042
vn 0.7431 0.2014 0.6381
vn 0.8348 0.1285 0.5353
vn 0.9510 0.1067 0.2903
vn 0.9818 0.0316 0.1871
vn 0.9991 0.0132 0.0408
vn 0.9978 0.0239 0.0616
vn 0.9991 0.0183 0.0389
vn 0.9978 0.0311 0.0579
vn 0.9991 0.0231 0.0364
vn 0.9979 0.0377 0.0533
vn 0.9991 0.0277 0.0333
vn 0.9979 0.0436 0.0479
vn 0.9990 0.0319 0.0297
vn 0.9979 0.0487 0.0417
vn 0.9990 0.0357 0.0257
vn 0.9980 0.0528 0.0350
vn 0.9990 0.0390 0.0211
vn 0.9980 0.0559 0.0278
vn 0.9990 0.0418 0.0162
vn 0.9981 0.0580 0.0204
vn 0.9990 0.0441 0.0109
vn 0.9982 0.0590 0.0129
vn 0.9989 0.0457 0.0053
vn 0.9982 0.0590 0.0055
vn 0.9989 0.0468 -0.0006
vn 0.9983 0.0581 -0.0018
vn 0.9989 0.0471 -0.0066
vn 0.9984 0.0562 -0.0087
vn 0.9988 0.0468 -0.0128
vn 0.9985 0.0534 -0.0152
vn 0.9988 0.0457 -0.0190
vn 0.9985 0.0499 -0.0211
vn 0.9987 0.0440 -0.0252
vn 0.9986 0.0458 -0.0264
vn 0.9986 0.0415 -0.0313
vn 0.9509 0.2470 -0.1865
vn 0.9509 0.2222 -0.2155
vn 0.7425 0.4809 -0.4663
vn 0.7425 0.4199 -0.5219
vn 0.4061 0.5729 -0.7119
vn 0.4061 0.4811 -0.7770
vn 0.1610 0.5196 -0.8391
vn 0.0509 0.5105 -0.8584
vn 0.1576 0.4127 -0.8971
vn 0.0544 0.4023 -0.9139
vn 0.1541 0.2995 -0.9416
vn 0.0581 0.2882 -0.9558
vn 0.1506 0.1817 -0.9718
vn 0.0618 0.1698 -0.9835
vn 0.1468 0.0609 -0.9873
vn 0.0657 0.0490 -0.9966
vn 0.1430 -0.0609 -0.9878
vn 0.0696 -0.0725 -0.9949
vn 0.1391 -0.1820 -0.9734
vn 0.0737 -0.1929 -0.9785
vn 0.1351 -0.3004 -0.9442
vn 0.0778 -0.3103 -0.9474
vn 0.1309 -0.4144 -0.9006
vn 0.0821 -0.4230 -0.9024
vn 0.1267 -0.5222 -0.8434
vn 0.0865 -0.5294 -0.8440
vn 0.1223 -0.6222 -0.7732
vn 0.0909 -0.6278 -0.7730
vn 0.1179 -0.7129 -0.6913
vn 0.0955 -0.7168 -0.6907
vn 0.1133 -0.7932 -0.5983
vn 0.1037 -0.7948 -0.5979
vn 0.1049 -0.8615 -0.4969
vn 0.1044 -0.8615 -0.4968
vn 0.1043 -0.9156 -0.3884
vn 0.1097 -0.9153 -0.3875
vn 0.0990 -0.9565 -0.2744
vn 0.1144 -0.9555 -0.2719
vn 0.0944 -0.9832 -0.1561
vn 0.1189 -0.9812 -0.1523
vn 0.0899 -0.9953 -0.0355
vn 0.1234 -0.9919 -0.0306
vn 0.0855 -0.9926 0.0858
vn 0.1277 -0.9876 0.0915
vn 0.0811 -0.9752 0.2059
vn 0.1319 -0.9683 0.2121
vn 0.0768 -0.9433 0.3231
vn 0.1360 -0.9344 0.3293
vn 0.0727 -0.8973 0.4355
vn 0.1955 -0.8741 0.4447
vn 0.4065 -0.8272 0.3880
vn 0.5569 -0.7399 0.3774
vn 0.7430 -0.6085 0.2788
vn 0.8332 -0.4913 0.2539
vn 0.9511 -0.2849 0.1197
vn 0.9815 -0.1663 0.0949
vn 0.9990 -0.0404 0.0184
vn 0.9980 -0.0597 0.0210
vn 0.9990 -0.0420 0.0130
vn 0.9979 -0.0626 0.0137
vn 0.9990 -0.0430 0.0076
vn 0.9979 -0.0645 0.0060
vn 0.9991 -0.0433 0.0020
vn 0.9979 -0.0653 -0.0020
vn 0.9991 -0.0430 -0.0035
vn 0.9978 -0.0650 -0.0101
vn 0.9991 -0.0421 -0.0088
vn 0.9978 -0.0635 -0.0181
vn 0.9991 -0.0405 -0.0141
vn 0.9978 -0.0610 -0.0258
vn 0.9991 -0.0384 -0.0191
vn 0.9978 -0.0573 -0.0331
vn 0.9991 -0.0356 -0.0238
vn 0.9978 -0.0528 -0.0398
vn 0.9991 -0.0324 -0.0282
vn 0.9978 -0.0473 -0.0458
vn 0.9991 -0.0287 -0.0321
vn 0.9979 -0.0410 -0.0510
vn 0.9991 -0.0245 -0.0357
vn 0.9979 -0.0342 -0.0552
vn 0.9991 -0.0199 -0.0387
vn 0.9979 -0.0269 -0.0585
vn 0.9990 -0.0149 -0.0412
vn 0.9980 -0.0193 -0.0606
vn 0.9990 -0.0097 -0.0432
vn 0.9980 -0.0115 -0.0617
vn 0.9990 -0.0042 -0.0445
vn 0.9981 -0.0038 -0.0617
vn 0.9990 0.0015 -0.0452
vn 0.9982 0.0037 -0.0607
vn 0.9990 0.0073 -0.0452
vn 0.9982 0.0110 -0.0587
vn 0.9989 0.0132 -0.0446
vn 0.9983 0.0177 -0.0558
vn 0.9989 0.0191 -0.0433
vn 0.9984 0.0239 -0.0520
vn 0.9988 0.0248 -0.0413
vn 0.9984 0.0295 -0.0476
vn 0.9988 0.0305 -0.0385
vn 0.9985 0.0343 -0.0426
vn 0.9987 0.0359 -0.0351
vn 0.9986 0.0383 -0.0371
vn 0.9987 0.0411 -0.0311
vn 0.0475 0.6112 -0.7901
vn 0.1643 0.6184 -0.7685
vn 0.4061 0.6560 -0.6361
vn 0.7425 0.5345 -0.4037
vn 0.9509 0.2681 -0.1548
vn 0.0442 0.7028 -0.7100
vn 0.1675 0.7078 -0.6863
vn 0.4061 0.6561 -0.6362
vn 0.4061 0.7293 -0.5507
vn 0.7425 0.5801 -0.3349
vn 0.9509 0.2851 -0.1207
vn 0.0410 0.7840 -0.6194
vn 0.1705 0.7863 -0.5938
vn 0.4061 0.7914 -0.4569
vn 0.7425 0.6169 -0.2611
vn 0.9509 0.2977 -0.0847
vn 0.0378 0.8536 -0.5196
vn 0.1734 0.8529 -0.4924
vn 0.4061 0.8415 -0.3562
vn 0.7425 0.6443 -0.1833
vn 0.9509 0.3059 -0.0475
vn 0.0348 0.9105 -0.4120
vn 0.1763 0.9065 -0.3837
vn 0.4061 0.8416 -0.3562
vn 0.4061 0.8789 -0.2501
vn 0.7425 0.6619 -0.1028
vn 0.9509 0.3094 -0.0095
vn 0.0319 0.9539 -0.2983
vn 0.1790 0.9463 -0.2692
vn 0.4061 0.9030 -0.1402
vn 0.7425 0.6695 -0.0206
vn 0.9509 0.3082 0.0286
vn 0.0291 0.9832 -0.1801
vn 0.1816 0.9717 -0.1508
vn 0.4061 0.9134 -0.0281
vn 0.7425 0.6670 0.0618
vn 0.9509 0.3024 0.0662
vn 0.0263 0.9979 -0.0593
vn 0.1841 0.9824 -0.0303
vn 0.4061 0.9099 0.0843
vn 0.7425 0.6543 0.1433
vn 0.9509 0.2919 0.1029
vn 0.0237 0.9978 0.0625
vn 0.1865 0.9783 0.0906
vn 0.4061 0.8927 0.1955
vn 0.7425 0.6318 0.2226
vn 0.9509 0.2771 0.1380
vn 0.0213 0.9828 0.1833
vn 0.1889 0.9593 0.2101
vn 0.4061 0.8619 0.3037
vn 0.7425 0.5996 0.2986
vn 0.9509 0.2580 0.1710
vn 0.0189 0.9533 0.3015
vn 0.1911 0.9258 0.3262
vn 0.4061 0.8180 0.4073
vn 0.7425 0.5584 0.3700
vn 0.9509 0.2351 0.2014
vn 0.0166 0.9096 0.4151
vn 0.1932 0.8783 0.4373
vn 0.4061 0.7618 0.5048
vn 0.7425 0.5087 0.4358
vn 0.9509 0.2085 0.2288
vn 0.0145 0.8524 0.5226
vn 0.1952 0.8176 0.5417
vn 0.4061 0.6940 0.5946
vn 0.7425 0.4513 0.4950
vn 0.9509 0.1788 0.2526
vn 0.0124 0.7826 0.6224
vn 0.1971 0.7445 0.6379
vn 0.4061 0.6156 0.6753
vn 0.7425 0.3870 0.5467
vn 0.9509 0.1464 0.2727
vn 0.0104 0.7011 0.7129
vn 0.1989 0.6602 0.7242
vn 0.4061 0.5280 0.7459
vn 0.7425 0.3169 0.5901
vn 0.9509 0.1118 0.2886
vn 0.0086 0.6093 0.7929
vn 0.2005 0.5660 0.7996
vn 0.4061 0.4323 0.8051
vn 0.7425 0.2420 0.6246
vn 0.0068 0.5084 0.8611
vn 0.2021 0.4633 0.8628
vn 0.4061 0.3301 0.8521
vn 0.0052 0.3999 0.9165
vn 0.2036 0.3537 0.9129
vn 0.9509 0.0191 -0.3090
vn 0.9509 0.0569 -0.3043
vn 0.9509 0.0938 -0.2950
vn 0.9509 0.1294 -0.2812
vn 0.9509 0.1630 -0.2632
vn 0.9509 0.1941 -0.2412
vn 0.7425 0.0412 -0.6686
vn 0.7425 0.1231 -0.6584
vn 0.7425 0.2031 -0.6383
vn 0.7425 0.2800 -0.6085
vn 0.7425 0.3526 -0.5695
vn 0.9509 -0.0191 -0.3090
vn 0.9509 -0.0569 -0.3043
vn 0.9509 -0.0938 -0.2950
vn 0.9509 -0.1294 -0.2812
vn 0.9509 -0.1630 -0.2632
vn 0.9509 -0.1941 -0.2412
vn 0.9509 -0.2222 -0.2155
vn 0.9509 -0.2470 -0.1865
vn 0.4061 0.0563 -0.9121
vn 0.4061 0.1679 -0.8983
vn 0.4061 0.2770 -0.8708
vn 0.4061 0.3819 -0.8302
vn 0.7425 -0.0412 -0.6686
vn 0.7425 -0.1231 -0.6584
vn 0.7425 -0.2031 -0.6383
vn 0.7425 -0.2800 -0.6085
vn 0.7425 -0.3526 -0.5695
vn 0.7425 -0.4199 -0.5219
vn 0.7425 -0.4809 -0.4663
vn 0.7425 -0.5346 -0.4036
vn 0.9508 -0.2472 -0.1866
vn 0.9509 -0.2679 -0.1547
vn 0.4061 -0.0563 -0.9121
vn 0.4061 -0.1679 -0.8983
vn 0.4061 -0.2770 -0.8708
vn 0.4061 -0.3819 -0.8302
vn 0.4061 -0.4811 -0.7770
vn 0.4061 -0.5729 -0.7119
vn 0.4061 -0.5729 -0.7120
vn 0.4061 -0.6561 -0.6362
vn 0.4061 -0.6560 -0.6361
vn 0.4061 -0.7294 -0.5505
vn 0.7422 -0.5349 -0.4037
vn 0.7428 -0.5799 -0.3347
vn 0.9509 -0.2681 -0.1547
vn 0.9509 -0.2851 -0.1207
vn 0.9509 -0.2977 -0.0847
vn 0.9509 -0.3059 -0.0475
vn 0.9509 -0.3094 -0.0095
vn 0.9509 -0.3082 0.0286
vn 0.9509 -0.3024 0.0662
vn 0.9509 -0.2919 0.1029
vn 0.4056 -0.7297 -0.5505
vn 0.4066 -0.7913 -0.4566
vn 0.7426 -0.5802 -0.3347
vn 0.7425 -0.6169 -0.2611
vn 0.7425 -0.6443 -0.1833
vn 0.7425 -0.6619 -0.1027
vn 0.7425 -0.6619 -0.1028
vn 0.7425 -0.6695 -0.0206
vn 0.7425 -0.6670 0.0618
vn 0.7425 -0.6543 0.1433
vn 0.7425 -0.6318 0.2226
vn 0.4060 -0.8416 -0.3563
vn 0.4062 -0.7916 -0.4565
vn 0.4061 -0.8415 -0.3562
vn 0.4061 -0.8789 -0.2501
vn 0.4061 -0.9030 -0.1402
vn 0.4061 -0.9134 -0.0281
vn 0.4061 -0.9099 0.0843
vn 0.4061 -0.8927 0.1955
vn 0.4061 -0.8619 0.3037
vn 1.0000 -0.0000 -0.0000
vn -0.0000 -0.8996 0.4366
vn -0.0000 -0.9461 0.3240
vn -0.0000 -0.9784 0.2066
vn -0.0000 -0.9963 0.0861
vn -0.0000 -0.9994 -0.0356
vn -0.0000 -0.9876 -0.1568
vn -0.0000 -0.9612 -0.2757
vn -0.0000 -0.9206 -0.3905
vn -0.0000 -0.8663 -0.4996
vn -0.0000 -0.7991 -0.6012
vn -0.0000 -0.7201 -0.6938
vn -0.0000 -0.6304 -0.7762
vn -0.0000 -0.5314 -0.8471
vn -0.0000 -0.4245 -0.9054
vn -0.0000 -0.3113 -0.9503
vn -0.0000 -0.1934 -0.9811
vn -0.0000 -0.0727 -0.9974
vn -0.0000 0.0491 -0.9988
vn -0.0000 0.1701 -0.9854
vn -0.0000 0.2887 -0.9574
vn -0.0000 0.4029 -0.9152
vn -0.0000 0.5112 -0.8595
vn -0.0000 0.6119 -0.7910
vn -0.0000 0.7035 -0.7107
vn -0.0000 0.7847 -0.6199
vn -0.0000 0.8542 -0.5199
vn -0.0000 0.9111 -0.4122
vn -0.0000 0.9544 -0.2984
vn -0.0000 0.9836 -0.1802
vn -0.0000 0.9982 -0.0593
vn -0.0000 0.9980 0.0625
vn -0.0000 0.9830 0.1834
vn -0.0000 0.9535 0.3015
vn -0.0000 0.9097 0.4152
vn -0.0000 0.8525 0.5227
vn -0.0000 0.7827 0.6225
vn -0.0000 0.7012 0.7130
vn -0.0000 0.6093 0.7929
vn -0.0000 0.5084 0.8611
vn -0.0000 0.3999 0.9165
vn -0.0000 0.2856 0.9584
s 0
f 1//1 2//1 3//1
f 3//2 2//2 4//2
f 3//3 4//3 5//3
f 5//4 4//4 6//4
f 5//5 6//5 7//5
f 7//6 6//6 8//6
f 7//7 8//7 9//7
f 9//8 8//8 10//8
f 9//9 10//9 11//9
f 9//10 11//10 12//10
f 12//11 11//11 13//11
f 12//12 13//12 14//12
f 14//13 13//13 15//13
f 14//14 15//14 16//14
f 16//15 15//15 17//15
f 16//16 17//16 18//16
f 18//17 17//17 19//17
f 18//18 19//18 20//18
f 20//19 19//19 21//19
f 20//20 21//20 22//20
f 22//21 21//21 23//21
f 22//22 23//22 24//22
f 24//23 23//23 25//23
f 24//24 25//24 26//24
f 26//25 25//25 27//25
f 26//26 27//26 28//26
f 28//27 27//27 29//27
f 28//28 29//28 30//28
f 30//29 29//29 31//29
f 30//30 31//30 32//30
f 32//31 31//31 33//31
f 32//32 33//32 34//32
f 34//33 33//33 35//33
f 35//34 33//34 36//34
f 35//35 36//35 37//35
f 37//36 36//36 38//36
f 37//37 38//37 39//37
f 39//38 38//38 40//38
f 39//39 40//39 41//39
f 41//40 40//40 42//40
f 41//41 42//41 43//41
f 43//42 42//42 44//42
f 43//43 44//43 45//43
f 45//44 44//44 46//44
f 45//45 46//45 47//45
f 47//46 46//46 48//46
f 47//47 48//47 49//47
f 49//48 48//48 50//48
f 49//49 50//49 51//49
f 51//50 50//50 52//50
f 51//51 52//51 53//51
f 53//52 52//52 54//52
f 53//53 54//53 55//53
f 55//54 54//54 56//54
f 55//55 56//55 57//55
f 57//56 56//56 58//56
f 57//57 58//57 59//57
f 59//58 58//58 60//58
f 59//59 60//59 61//59
f 61//60 60//60 62//60
f 61//61 62//61 63//61
f 63//62 62//62 64//62
f 63//63 64//63 65//63
f 65//64 64//64 66//64
f 65//65 66//65 67//65
f 67//66 66//66 68//66
f 67//67 68//67 69//67
f 69//68 68//68 70//68
f 69//69 70//69 71//69
f 71//70 70//70 72//70
f 71//71 72//71 73//71
f 73//72 72//72 74//72
f 73//73 74//73 75//73
f 75//74 74//74 76//74
f 75//75 76//75 77//75
f 77//76 76//76 78//76
f 77//77 78//77 79//77
f 79//78 78//78 80//78
f 79//79 80//79 81//79
f 81//80 80//80 82//80
f 81//81 82//81 83//81
f 83//82 82//82 84//82
f 83//83 84//83 85//83
f 85//84 84//84 86//84
f 85//85 86//85 87//85
f 87//86 86//86 88//86
f 87//87 88//87 89//87
f 89//88 88//88 90//88
f 89//89 90//89 91//89
f 91//90 90//90 92//90
f 92//91 90//91 93//91
f 92//92 93//92 94//92
f 94//93 93//93 95//93
f 94//94 95//94 96//94
f 96//95 95//95 97//95
f 96//96 97//96 98//96
f 98//97 97//97 99//97
f 98//98 99//98 100//98
f 100//99 99//99 101//99
f 101//100 99//100 102//100
f 101//101 102//101 103//101
f 103//102 102//102 104//102
f 103//103 104//103 105//103
f 105//104 104//104 106//104
f 105//105 106//105 107//105
f 107//106 106//106 108//106
f 107//107 108//107 109//107
f 109//108 108//108 110//108
f 109//109 110//109 111//109
f 111//110 110//110 112//110
f 111//111 112//111 113//111
f 113//112 112//112 114//112
f 113//113 114//113 115//113
f 115//114 114//114 116//114
f 115//115 116//115 117//115
f 117//116 116//116 118//116
f 117//117 118//117 119//117
f 119//118 118//118 120//118
f 119//119 120//119 121//119
f 121//120 120//120 122//120
f 121//121 122//121 123//121
f 123//122 122//122 124//122
f 123//123 124//123 125//123
f 125//124 124//124 126//124
f 125//125 126//125 127//125
f 127//126 126//126 128//126
f 127//127 128//127 129//127
f 129//128 128//128 130//128
f 129//129 130//129 131//129
f 131//130 130//130 132//130
f 131//131 132//131 133//131
f 133//132 132//132 134//132
f 133//133 134//133 135//133
f 135//134 134//134 136//134
f 135//135 136//135 137//135
f 137//136 136//136 138//136
f 137//137 138//137 139//137
f 139//138 138//138 140//138
f 139//139 140//139 141//139
f 141//140 140//140 142//140
f 141//141 142//141 143//141
f 143//142 142//142 144//142
f 143//143 144//143 145//143
f 145//144 144//144 146//144
f 145//145 146//145 147//145
f 147//146 146//146 148//146
f 147//147 148//147 149//147
f 149//148 148//148 150//148
f 149//149 150//149 151//149
f 151//150 150//150 152//150
f 151//151 152//151 153//151
f 153//152 152//152 154//152
f 153//153 154//153 155//153
f 155//154 154//154 156//154
f 155//155 156//155 157//155
f 157//156 156//156 27//156
f 157//157 27//157 25//157
f 100//158 158//158 98//158
f 98//159 158//159 96//159
f 34//160 159//160 32//160
f 32//161 159//161 160//161
f 32//30 160//30 30//30
f 30//162 160//162 161//162
f 30//28 161//28 28//28
f 28//163 161//163 162//163
f 28//164 162//164 26//164
f 26//165 162//165 24//165
f 159//166 163//166 160//166
f 160//167 163//167 164//167
f 160//162 164//162 161//162
f 161//168 164//168 165//168
f 161//169 165//169 162//169
f 162//170 165//170 166//170
f 162//171 166//171 24//171
f 24//172 166//172 22//172
f 163//173 167//173 164//173
f 164//174 167//174 168//174
f 164//175 168//175 165//175
f 165//176 168//176 169//176
f 165//177 169//177 166//177
f 166//178 169//178 170//178
f 166//172 170//172 22//172
f 22//179 170//179 20//179
f 167//180 171//180 168//180
f 168//181 171//181 172//181
f 168//182 172//182 169//182
f 169//183 172//183 173//183
f 169//178 173//178 170//178
f 170//184 173//184 174//184
f 170//179 174//179 20//179
f 20//185 174//185 18//185
f 171//186 175//186 172//186
f 172//187 175//187 176//187
f 172//183 176//183 173//183
f 173//188 176//188 177//188
f 173//184 177//184 174//184
f 174//189 177//189 178//189
f 174//185 178//185 18//185
f 18//190 178//190 16//190
f 175//191 179//191 176//191
f 176//192 179//192 180//192
f 176//188 180//188 177//188
f 177//193 180//193 181//193
f 177//189 181//189 178//189
f 178//194 181//194 182//194
f 178//190 182//190 16//190
f 16//195 182//195 14//195
f 179//196 183//196 180//196
f 180//197 183//197 184//197
f 180//193 184//193 181//193
f 181//198 184//198 185//198
f 181//194 185//194 182//194
f 182//199 185//199 186//199
f 182//195 186//195 14//195
f 14//200 186//200 12//200
f 183//201 187//201 184//201
f 184//202 187//202 188//202
f 184//198 188//198 185//198
f 185//203 188//203 189//203
f 185//204 189//204 186//204
f 186//205 189//205 190//205
f 186//200 190//200 12//200
f 12//206 190//206 9//206
f 187//207 191//207 188//207
f 188//208 191//208 192//208
f 188//203 192//203 189//203
f 189//209 192//209 193//209
f 189//205 193//205 190//205
f 190//210 193//210 7//210
f 190//206 7//206 9//206
f 191//211 194//211 192//211
f 192//212 194//212 195//212
f 192//209 195//209 193//209
f 193//213 195//213 5//213
f 193//210 5//210 7//210
f 194//214 1//214 195//214
f 195//215 1//215 3//215
f 195//213 3//213 5//213
f 27//27 156//27 29//27
f 29//216 156//216 196//216
f 29//29 196//29 31//29
f 31//217 196//217 197//217
f 31//31 197//31 33//31
f 33//218 197//218 36//218
f 156//216 154//216 196//216
f 196//219 154//219 198//219
f 196//217 198//217 197//217
f 197//220 198//220 199//220
f 197//218 199//218 36//218
f 36//221 199//221 38//221
f 154//219 152//219 198//219
f 198//222 152//222 200//222
f 198//220 200//220 199//220
f 199//223 200//223 201//223
f 199//221 201//221 38//221
f 38//224 201//224 40//224
f 152//222 150//222 200//222
f 200//225 150//225 202//225
f 200//223 202//223 201//223
f 201//226 202//226 203//226
f 201//224 203//224 40//224
f 40//227 203//227 42//227
f 150//225 148//225 202//225
f 202//228 148//228 204//228
f 202//226 204//226 203//226
f 203//229 204//229 205//229
f 203//227 205//227 42//227
f 42//230 205//230 44//230
f 148//228 146//228 204//228
f 204//231 146//231 206//231
f 204//229 206//229 205//229
f 205//232 206//232 207//232
f 205//230 207//230 44//230
f 44//233 207//233 46//233
f 146//231 144//231 206//231
f 206//234 144//234 208//234
f 206//232 208//232 207//232
f 207//235 208//235 209//235
f 207//233 209//233 46//233
f 46//236 209//236 48//236
f 144//234 142//234 208//234
f 208//237 142//237 210//237
f 208//235 210//235 209//235
f 209//238 210//238 211//238
f 209//236 211//236 48//236
f 48//239 211//239 50//239
f 142//237 140//237 210//237
f 210//240 140//240 212//240
f 210//238 212//238 211//238
f 211//241 212//241 213//241
f 211//239 213//239 50//239
f 50//242 213//242 52//242
f 140//240 138//240 212//240
f 212//243 138//243 214//243
f 212//241 214//241 213//241
f 213//244 214//244 215//244
f 213//242 215//242 52//242
f 52//245 215//245 54//245
f 138//243 136//243 214//243
f 214//246 136//246 216//246
f 214//244 216//244 215//244
f 215//247 216//247 217//247
f 215//245 217//245 54//245
f 54//248 217//248 56//248
f 136//246 134//246 216//246
f 216//249 134//249 218//249
f 216//247 218//247 217//247
f 217//250 218//250 219//250
f 217//248 219//248 56//248
f 56//251 219//251 58//251
f 134//249 132//249 218//249
f 218//252 132//252 220//252
f 218//250 220//250 219//250
f 219//253 220//253 221//253
f 219//251 221//251 58//251
f 58//254 221//254 60//254
f 132//252 130//252 220//252
f 220//255 130//255 222//255
f 220//253 222//253 221//253
f 221//256 222//256 223//256
f 221//254 223//254 60//254
f 60//257 223//257 62//257
f 130//255 128//255 222//255
f 222//258 128//258 224//258
f 222//256 224//256 223//256
f 223//259 224//259 225//259
f 223//257 225//257 62//257
f 62//260 225//260 64//260
f 128//258 126//258 224//258
f 224//261 126//261 226//261
f 224//259 226//259 225//259
f 225//262 226//262 227//262
f 225//260 227//260 64//260
f 64//263 227//263 66//263
f 126//261 124//261 226//261
f 226//264 124//264 228//264
f 226//262 228//262 227//262
f 227//265 228//265 229//265
f 227//263 229//263 66//263
f 66//266 229//266 68//266
f 124//264 122//264 228//264
f 228//267 122//267 230//267
f 228//265 230//265 229//265
f 229//268 230//268 231//268
f 229//266 231//266 68//266
f 68//269 231//269 70//269
f 122//267 120//267 230//267
f 230//270 120//270 232//270
f 230//268 232//268 231//268
f 231//271 232//271 233//271
f 231//269 233//269 70//269
f 70//272 233//272 72//272
f 120//270 118//270 232//270
f 232//273 118//273 234//273
f 232//271 234//271 233//271
f 233//274 234//274 235//274
f 233//272 235//272 72//272
f 72//275 235//275 74//275
f 118//273 116//273 234//273
f 234//276 116//276 236//276
f 234//277 236//277 235//277
f 235//278 236//278 237//278
f 235//275 237//275 74//275
f 74//279 237//279 76//279
f 116//276 114//276 236//276
f 236//280 114//280 238//280
f 236//278 238//278 237//278
f 237//281 238//281 239//281
f 237//279 239//279 76//279
f 76//282 239//282 78//282
f 114//280 112//280 238//280
f 238//283 112//283 240//283
f 238//281 240//281 239//281
f 239//284 240//284 241//284
f 239//282 241//282 78//282
f 78//285 241//285 80//285
f 112//283 110//283 240//283
f 240//286 110//286 242//286
f 240//284 242//284 241//284
f 241//287 242//287 243//287
f 241//285 243//285 80//285
f 80//288 243//288 82//288
f 110//286 108//286 242//286
f 242//289 108//289 244//289
f 242//287 244//287 243//287
f 243//290 244//290 245//290
f 243//291 245//291 82//291
f 82//292 245//292 84//292
f 108//289 106//289 244//289
f 244//293 106//293 246//293
f 244//290 246//290 245//290
f 245//294 246//294 247//294
f 245//292 247//292 84//292
f 84//295 247//295 86//295
f 106//293 104//293 246//293
f 246//296 104//296 248//296
f 246//294 248//294 247//294
f 247//297 248//297 249//297
f 247//295 249//295 86//295
f 86//298 249//298 88//298
f 104//296 102//296 248//296
f 248//299 102//299 250//299
f 248//297 250//297 249//297
f 249//300 250//300 251//300
f 249//298 251//298 88//298
f 88//301 251//301 93//301
f 88//302 93//302 90//302
f 102//303 99//303 250//303
f 250//97 99//97 97//97
f 250//300 97//300 251//300
f 251//304 97//304 95//304
f 251//305 95//305 93//305
f 158//306 100//306 252//306
f 252//306 100//306 253//306
f 253//306 100//306 101//306
f 253//306 101//306 254//306
f 254//306 101//306 103//306
f 254//306 103//306 255//306
f 255//306 103//306 105//306
f 255//306 105//306 107//306
f 255//306 107//306 256//306
f 256//306 107//306 109//306
f 256//306 109//306 257//306
f 257//306 109//306 111//306
f 257//306 111//306 258//306
f 258//306 111//306 113//306
f 258//306 113//306 259//306
f 259//306 113//306 115//306
f 259//306 115//306 260//306
f 260//306 115//306 117//306
f 260//306 117//306 261//306
f 261//306 117//306 119//306
f 261//306 119//306 262//306
f 262//306 119//306 121//306
f 262//306 121//306 123//306
f 262//306 123//306 263//306
f 263//306 123//306 125//306
f 263//306 125//306 264//306
f 264//306 125//306 127//306
f 264//306 127//306 265//306
f 265//306 127//306 129//306
f 265//306 129//306 266//306
f 266//306 129//306 131//306
f 266//306 131//306 267//306
f 267//306 131//306 133//306
f 267//306 133//306 268//306
f 268//306 133//306 135//306
f 268//306 135//306 269//306
f 269//306 135//306 137//306
f 269//306 137//306 139//306
f 269//306 139//306 270//306
f 270//306 139//306 141//306
f 270//306 141//306 271//306
f 271//306 141//306 143//306
f 271//306 143//306 272//306
f 272//306 143//306 145//306
f 272//306 145//306 273//306
f 273//306 145//306 147//306
f 273//306 147//306 274//306
f 274//306 147//306 149//306
f 274//306 149//306 275//306
f 275//306 149//306 151//306
f 275//306 151//306 153//306
f 275//306 153//306 276//306
f 276//306 153//306 155//306
f 276//306 155//306 277//306
f 277//306 155//306 157//306
f 277//306 157//306 278//306
f 278//306 157//306 25//306
f 278//306 25//306 279//306
f 279//306 25//306 23//306
f 279//306 23//306 280//306
f 280//306 23//306 21//306
f 280//306 21//306 281//306
f 281//306 21//306 19//306
f 281//306 19//306 282//306
f 282//306 19//306 17//306
f 282//306 17//306 15//306
f 282//306 15//306 283//306
f 283//306 15//306 13//306
f 283//306 13//306 284//306
f 284//306 13//306 11//306
f 284//306 11//306 285//306
f 285//306 11//306 10//306
f 286//307 287//307 288//307
f 288//308 287//308 289//308
f 288//309 289//309 253//309
f 253//310 289//310 252//310
f 288//311 253//311 290//311
f 290//312 253//312 254//312
f 290//313 254//313 291//313
f 291//314 254//314 255//314
f 291//315 255//315 292//315
f 292//316 255//316 256//316
f 292//317 256//317 293//317
f 293//318 256//318 257//318
f 293//319 257//319 294//319
f 294//320 257//320 258//320
f 294//321 258//321 295//321
f 295//322 258//322 259//322
f 295//323 259//323 296//323
f 296//324 259//324 260//324
f 296//325 260//325 297//325
f 297//326 260//326 261//326
f 297//327 261//327 298//327
f 298//328 261//328 299//328
f 298//329 299//329 300//329
f 300//330 299//330 301//330
f 301//331 299//331 302//331
f 301//332 302//332 303//332
f 303//333 302//333 304//333
f 303//334 304//334 305//334
f 305//335 304//335 306//335
f 305//336 306//336 307//336
f 307//337 306//337 308//337
f 307//338 308//338 309//338
f 309//339 308//339 310//339
f 309//340 310//340 311//340
f 311//341 310//341 312//341
f 311//342 312//342 313//342
f 313//343 312//343 314//343
f 313//344 314//344 315//344
f 315//345 314//345 269//345
f 315//346 269//346 270//346
f 261//347 262//347 299//347
f 299//348 262//348 302//348
f 262//349 263//349 302//349
f 302//350 263//350 304//350
f 263//351 264//351 304//351
f 304//352 264//352 306//352
f 264//353 265//353 306//353
f 306//354 265//354 308//354
f 265//355 266//355 308//355
f 308//356 266//356 310//356
f 266//357 267//357 310//357
f 310//358 267//358 312//358
f 267//359 268//359 312//359
f 312//360 268//360 314//360
f 268//361 269//361 314//361
f 315//362 270//362 316//362
f 316//363 270//363 271//363
f 316//364 271//364 317//364
f 317//365 271//365 272//365
f 317//366 272//366 318//366
f 318//367 272//367 273//367
f 318//368 273//368 319//368
f 319//369 273//369 274//369
f 319//370 274//370 320//370
f 320//371 274//371 275//371
f 320//372 275//372 321//372
f 321//373 275//373 276//373
f 321//374 276//374 322//374
f 322//375 276//375 323//375
f 322//376 323//376 324//376
f 324//377 323//377 325//377
f 325//378 323//378 326//378
f 325//379 326//379 327//379
f 327//380 326//380 328//380
f 327//381 328//381 329//381
f 329//382 328//382 330//382
f 329//383 330//383 331//383
f 331//384 330//384 280//384
f 331//385 280//385 281//385
f 276//386 277//386 323//386
f 323//387 277//387 326//387
f 277//388 278//388 326//388
f 326//389 278//389 328//389
f 278//390 279//390 328//390
f 328//391 279//391 330//391
f 279//392 280//392 330//392
f 331//393 281//393 332//393
f 332//394 281//394 282//394
f 332//395 282//395 333//395
f 333//396 282//396 283//396
f 333//397 283//397 334//397
f 334//398 283//398 284//398
f 334//399 284//399 335//399
f 335//400 284//400 285//400
f 335//401 285//401 336//401
f 336//402 337//402 335//402
f 335//403 337//403 338//403
f 335//404 338//404 334//404
f 334//405 338//405 339//405
f 334//406 339//406 333//406
f 333//407 339//407 340//407
f 333//408 340//408 332//408
f 332//409 340//409 341//409
f 332//410 341//410 331//410
f 331//411 341//411 329//411
f 324//412 342//412 322//412
f 322//413 342//413 321//413
f 342//414 343//414 321//414
f 321//415 343//415 320//415
f 343//416 344//416 320//416
f 320//417 344//417 319//417
f 344//418 345//418 319//418
f 319//419 345//419 318//419
f 345//420 346//420 318//420
f 318//421 346//421 317//421
f 346//422 347//422 317//422
f 317//423 347//423 316//423
f 347//424 348//424 316//424
f 316//425 348//425 315//425
f 348//426 313//426 315//426
f 300//427 349//427 298//427
f 298//428 349//428 297//428
f 349//429 350//429 297//429
f 297//430 350//430 296//430
f 350//431 351//431 296//431
f 296//432 351//432 295//432
f 351//433 352//433 295//433
f 295//434 352//434 294//434
f 352//435 353//435 294//435
f 294//436 353//436 293//436
f 293//437 353//437 292//437
f 292//438 353//438 354//438
f 292//439 354//439 291//439
f 291//440 354//440 355//440
f 291//441 355//441 290//441
f 290//442 355//442 286//442
f 290//443 286//443 288//443
f 356//444 357//444 358//444
f 358//445 357//445 359//445
f 358//446 359//446 360//446
f 360//447 359//447 361//447
f 358//448 360//448 362//448
f 362//449 360//449 363//449
f 362//450 363//450 364//450
f 364//451 363//451 365//451
f 364//452 365//452 366//452
f 366//453 365//453 367//453
f 366//454 367//454 368//454
f 368//455 367//455 369//455
f 368//456 369//456 370//456
f 370//457 369//457 371//457
f 370//458 371//458 372//458
f 372//459 371//459 373//459
f 372//460 373//460 374//460
f 374//461 373//461 375//461
f 374//462 375//462 376//462
f 376//463 375//463 377//463
f 376//464 377//464 378//464
f 378//465 377//465 379//465
f 378//466 379//466 380//466
f 380//467 379//467 381//467
f 381//468 379//468 382//468
f 381//469 382//469 383//469
f 383//470 382//470 384//470
f 383//471 384//471 385//471
f 385//472 384//472 386//472
f 385//473 386//473 387//473
f 387//474 386//474 388//474
f 387//475 388//475 389//475
f 389//476 388//476 390//476
f 389//477 390//477 391//477
f 391//478 390//478 392//478
f 391//479 392//479 393//479
f 393//480 392//480 394//480
f 393//481 394//481 395//481
f 395//482 394//482 396//482
f 395//483 396//483 397//483
f 377//484 398//484 379//484
f 379//485 398//485 382//485
f 398//486 399//486 382//486
f 382//487 399//487 384//487
f 399//488 400//488 384//488
f 384//489 400//489 386//489
f 400//490 401//490 386//490
f 386//491 401//491 388//491
f 401//492 402//492 388//492
f 388//493 402//493 390//493
f 402//494 403//494 390//494
f 390//495 403//495 392//495
f 403//496 404//496 392//496
f 392//497 404//497 394//497
f 404//498 396//498 394//498
f 395//499 397//499 405//499
f 405//500 397//500 406//500
f 405//501 406//501 407//501
f 407//502 406//502 408//502
f 407//503 408//503 409//503
f 409//504 408//504 410//504
f 409//505 410//505 411//505
f 411//506 410//506 412//506
f 411//507 412//507 413//507
f 413//508 412//508 414//508
f 413//509 414//509 415//509
f 415//510 414//510 416//510
f 415//511 416//511 417//511
f 417//512 416//512 418//512
f 417//513 418//513 419//513
f 419//514 418//514 420//514
f 420//515 418//515 421//515
f 420//516 421//516 422//516
f 422//517 421//517 423//517
f 422//518 423//518 424//518
f 424//519 423//519 425//519
f 424//520 425//520 426//520
f 426//521 425//521 427//521
f 426//522 427//522 428//522
f 416//523 429//523 418//523
f 418//524 429//524 421//524
f 429//525 430//525 421//525
f 421//526 430//526 423//526
f 430//527 431//527 423//527
f 423//528 431//528 425//528
f 431//529 427//529 425//529
f 426//530 428//530 432//530
f 432//531 428//531 433//531
f 432//532 433//532 434//532
f 434//533 433//533 435//533
f 434//534 435//534 436//534
f 436//535 435//535 437//535
f 436//536 437//536 438//536
f 438//537 437//537 439//537
f 438//538 439//538 440//538
f 440//539 441//539 438//539
f 438//540 441//540 442//540
f 438//541 442//541 436//541
f 436//542 442//542 443//542
f 436//543 443//543 434//543
f 434//544 443//544 444//544
f 434//545 444//545 432//545
f 432//546 444//546 445//546
f 432//547 445//547 426//547
f 426//548 445//548 424//548
f 419//549 446//549 417//549
f 417//550 446//550 415//550
f 446//551 447//551 415//551
f 415//552 447//552 413//552
f 447//553 448//553 413//553
f 413//554 448//554 411//554
f 448//555 449//555 411//555
f 411//556 449//556 409//556
f 449//557 450//557 409//557
f 409//558 450//558 407//558
f 450//559 451//559 407//559
f 407//560 451//560 405//560
f 451//561 452//561 405//561
f 405//562 452//562 395//562
f 452//563 393//563 395//563
f 380//564 453//564 378//564
f 378//565 453//565 376//565
f 453//566 454//566 376//566
f 376//567 454//567 374//567
f 454//568 455//568 374//568
f 374//569 455//569 372//569
f 455//570 456//570 372//570
f 372//571 456//571 370//571
f 456//572 457//572 370//572
f 370//573 457//573 368//573
f 368//574 457//574 366//574
f 366//575 457//575 458//575
f 366//576 458//576 364//576
f 364//577 458//577 459//577
f 364//578 459//578 362//578
f 362//579 459//579 356//579
f 362//580 356//580 358//580
f 460//581 461//581 462//581
f 462//582 461//582 463//582
f 462//583 463//583 464//583
f 464//584 463//584 465//584
f 464//585 465//585 466//585
f 466//586 465//586 467//586
f 466//587 467//587 468//587
f 468//588 467//588 469//588
f 468//589 469//589 470//589
f 468//590 470//590 471//590
f 471//591 470//591 472//591
f 471//592 472//592 473//592
f 473//593 472//593 474//593
f 473//594 474//594 475//594
f 475//595 474//595 476//595
f 475//596 476//596 477//596
f 477//597 476//597 478//597
f 477//598 478//598 479//598
f 479//599 478//599 480//599
f 479//600 480//600 481//600
f 481//601 480//601 482//601
f 481//602 482//602 483//602
f 483//603 482//603 484//603
f 483//604 484//604 485//604
f 485//605 484//605 486//605
f 485//606 486//606 487//606
f 487//607 486//607 488//607
f 487//608 488//608 489//608
f 489//609 488//609 490//609
f 489//610 490//610 491//610
f 491//611 490//611 492//611
f 491//612 492//612 493//612
f 493//613 492//613 494//613
f 493//614 494//614 495//614
f 495//615 494//615 496//615
f 495//616 496//616 497//616
f 497//617 496//617 498//617
f 497//618 498//618 499//618
f 499//619 498//619 500//619
f 499//620 500//620 501//620
f 501//621 500//621 502//621
f 501//622 502//622 503//622
f 503//623 502//623 504//623
f 503//624 504//624 505//624
f 505//625 504//625 506//625
f 505//626 506//626 507//626
f 507//627 506//627 508//627
f 508//628 506//628 509//628
f 508//629 509//629 510//629
f 510//630 509//630 511//630
f 510//631 511//631 512//631
f 512//632 511//632 513//632
f 512//633 513//633 514//633
f 514//634 513//634 515//634
f 514//635 515//635 516//635
f 516//636 515//636 517//636
f 516//637 517//637 518//637
f 518//638 517//638 519//638
f 518//639 519//639 520//639
f 520//640 519//640 521//640
f 520//641 521//641 522//641
f 522//642 521//642 523//642
f 522//643 523//643 524//643
f 524//644 523//644 525//644
f 524//645 525//645 526//645
f 526//646 525//646 527//646
f 526//647 527//647 528//647
f 528//648 527//648 529//648
f 528//649 529//649 530//649
f 530//650 529//650 531//650
f 530//651 531//651 532//651
f 532//652 531//652 533//652
f 532//653 533//653 534//653
f 534//654 533//654 535//654
f 535//655 533//655 536//655
f 535//656 536//656 537//656
f 537//657 536//657 538//657
f 537//658 538//658 539//658
f 539//659 538//659 540//659
f 539//660 540//660 541//660
f 541//661 540//661 542//661
f 541//662 542//662 543//662
f 543//663 542//663 544//663
f 543//664 544//664 545//664
f 545//665 544//665 546//665
f 545//666 546//666 547//666
f 547//667 546//667 548//667
f 547//668 548//668 549//668
f 549//669 548//669 550//669
f 550//670 548//670 551//670
f 550//671 551//671 552//671
f 552//672 551//672 553//672
f 552//673 553//673 554//673
f 554//674 553//674 555//674
f 554//675 555//675 556//675
f 556//676 555//676 557//676
f 557//677 555//677 558//677
f 557//678 558//678 559//678
f 559//679 558//679 560//679
f 559//680 560//680 561//680
f 561//681 560//681 562//681
f 561//682 562//682 563//682
f 563//683 562//683 564//683
f 563//684 564//684 565//684
f 565//685 564//685 566//685
f 565//686 566//686 567//686
f 567//687 566//687 568//687
f 567//688 568//688 569//688
f 569//689 568//689 570//689
f 569//690 570//690 571//690
f 571//691 570//691 572//691
f 571//692 572//692 573//692
f 573//693 572//693 574//693
f 573//694 574//694 575//694
f 575//695 574//695 576//695
f 575//696 576//696 577//696
f 577//697 576//697 578//697
f 577//698 578//698 579//698
f 579//699 578//699 580//699
f 579//700 580//700 581//700
f 581//701 580//701 582//701
f 581//702 582//702 583//702
f 583//703 582//703 584//703
f 583//704 584//704 585//704
f 585//705 584//705 586//705
f 585//706 586//706 587//706
f 587//707 586//707 588//707
f 587//708 588//708 589//708
f 589//709 588//709 590//709
f 589//710 590//710 591//710
f 591//711 590//711 592//711
f 591//712 592//712 593//712
f 593//713 592//713 594//713
f 593//714 594//714 595//714
f 595//715 594//715 596//715
f 595//716 596//716 597//716
f 597//717 596//717 598//717
f 597//718 598//718 599//718
f 599//719 598//719 600//719
f 599//720 600//720 601//720
f 601//721 600//721 500//721
f 601//722 500//722 498//722
f 507//723 602//723 505//723
f 505//724 602//724 603//724
f 505//624 603//624 503//624
f 503//725 603//725 604//725
f 503//622 604//622 501//622
f 501//726 604//726 605//726
f 501//620 605//620 499//620
f 499//727 605//727 497//727
f 602//728 606//728 603//728
f 603//729 606//729 607//729
f 603//730 607//730 604//730
f 604//731 607//731 608//731
f 604//726 608//726 605//726
f 605//732 608//732 609//732
f 605//727 609//727 497//727
f 497//733 609//733 495//733
f 606//734 610//734 607//734
f 607//735 610//735 611//735
f 607//731 611//731 608//731
f 608//736 611//736 612//736
f 608//732 612//732 609//732
f 609//737 612//737 613//737
f 609//733 613//733 495//733
f 495//738 613//738 493//738
f 610//739 614//739 611//739
f 611//740 614//740 615//740
f 611//736 615//736 612//736
f 612//741 615//741 616//741
f 612//737 616//737 613//737
f 613//742 616//742 617//742
f 613//738 617//738 493//738
f 493//743 617//743 491//743
f 614//744 618//744 615//744
f 615//745 618//745 619//745
f 615//746 619//746 616//746
f 616//747 619//747 620//747
f 616//742 620//742 617//742
f 617//748 620//748 621//748
f 617//743 621//743 491//743
f 491//749 621//749 489//749
f 618//750 622//750 619//750
f 619//751 622//751 623//751
f 619//747 623//747 620//747
f 620//752 623//752 624//752
f 620//748 624//748 621//748
f 621//753 624//753 625//753
f 621//749 625//749 489//749
f 489//754 625//754 487//754
f 622//755 626//755 623//755
f 623//756 626//756 627//756
f 623//752 627//752 624//752
f 624//757 627//757 628//757
f 624//753 628//753 625//753
f 625//758 628//758 629//758
f 625//754 629//754 487//754
f 487//759 629//759 485//759
f 626//760 630//760 627//760
f 627//761 630//761 631//761
f 627//757 631//757 628//757
f 628//762 631//762 632//762
f 628//758 632//758 629//758
f 629//763 632//763 633//763
f 629//759 633//759 485//759
f 485//764 633//764 483//764
f 630//765 634//765 631//765
f 631//766 634//766 635//766
f 631//762 635//762 632//762
f 632//767 635//767 636//767
f 632//763 636//763 633//763
f 633//768 636//768 637//768
f 633//764 637//764 483//764
f 483//769 637//769 481//769
f 634//770 638//770 635//770
f 635//771 638//771 639//771
f 635//767 639//767 636//767
f 636//772 639//772 640//772
f 636//768 640//768 637//768
f 637//773 640//773 641//773
f 637//769 641//769 481//769
f 481//774 641//774 479//774
f 638//775 642//775 639//775
f 639//776 642//776 643//776
f 639//772 643//772 640//772
f 640//777 643//777 644//777
f 640//773 644//773 641//773
f 641//778 644//778 645//778
f 641//774 645//774 479//774
f 479//779 645//779 477//779
f 642//780 646//780 643//780
f 643//781 646//781 647//781
f 643//777 647//777 644//777
f 644//782 647//782 648//782
f 644//778 648//778 645//778
f 645//783 648//783 649//783
f 645//779 649//779 477//779
f 477//784 649//784 475//784
f 646//785 650//785 647//785
f 647//786 650//786 651//786
f 647//782 651//782 648//782
f 648//787 651//787 652//787
f 648//783 652//783 649//783
f 649//788 652//788 653//788
f 649//784 653//784 475//784
f 475//789 653//789 473//789
f 650//790 654//790 651//790
f 651//791 654//791 655//791
f 651//787 655//787 652//787
f 652//792 655//792 656//792
f 652//788 656//788 653//788
f 653//793 656//793 657//793
f 653//789 657//789 473//789
f 473//794 657//794 471//794
f 654//795 658//795 655//795
f 655//796 658//796 659//796
f 655//792 659//792 656//792
f 656//797 659//797 660//797
f 656//793 660//793 657//793
f 657//798 660//798 661//798
f 657//794 661//794 471//794
f 471//799 661//799 468//799
f 658//800 662//800 659//800
f 659//801 662//801 663//801
f 659//797 663//797 660//797
f 660//802 663//802 664//802
f 660//798 664//798 661//798
f 661//803 664//803 466//803
f 661//799 466//799 468//799
f 662//804 665//804 663//804
f 663//805 665//805 666//805
f 663//802 666//802 664//802
f 664//806 666//806 464//806
f 664//803 464//803 466//803
f 665//807 460//807 666//807
f 666//808 460//808 462//808
f 666//806 462//806 464//806
f 588//809 667//809 590//809
f 590//809 667//809 668//809
f 590//810 668//810 592//810
f 592//810 668//810 669//810
f 592//811 669//811 594//811
f 594//811 669//811 670//811
f 594//812 670//812 596//812
f 596//812 670//812 671//812
f 596//813 671//813 598//813
f 598//813 671//813 672//813
f 598//814 672//814 600//814
f 600//814 672//814 502//814
f 600//621 502//621 500//621
f 667//815 673//815 668//815
f 668//815 673//815 674//815
f 668//816 674//816 669//816
f 669//816 674//816 675//816
f 669//817 675//817 670//817
f 670//817 675//817 676//817
f 670//818 676//818 671//818
f 671//818 676//818 677//818
f 671//819 677//819 672//819
f 672//819 677//819 504//819
f 672//623 504//623 502//623
f 667//820 588//820 678//820
f 678//820 588//820 586//820
f 678//821 586//821 679//821
f 679//821 586//821 584//821
f 679//822 584//822 680//822
f 680//822 584//822 582//822
f 680//823 582//823 681//823
f 681//823 582//823 580//823
f 681//824 580//824 682//824
f 682//824 580//824 578//824
f 682//825 578//825 683//825
f 683//825 578//825 576//825
f 683//826 576//826 684//826
f 684//826 576//826 574//826
f 684//827 574//827 572//827
f 673//828 515//828 674//828
f 674//828 515//828 513//828
f 674//829 513//829 675//829
f 675//829 513//829 511//829
f 675//830 511//830 676//830
f 676//830 511//830 509//830
f 676//831 509//831 677//831
f 677//831 509//831 506//831
f 677//625 506//625 504//625
f 673//832 667//832 685//832
f 685//832 667//832 678//832
f 685//833 678//833 686//833
f 686//833 678//833 679//833
f 686//834 679//834 687//834
f 687//834 679//834 680//834
f 687//835 680//835 688//835
f 688//835 680//835 681//835
f 688//836 681//836 689//836
f 689//836 681//836 682//836
f 689//837 682//837 690//837
f 690//837 682//837 683//837
f 690//838 683//838 691//838
f 691//838 683//838 684//838
f 691//839 684//839 692//839
f 692//840 684//840 572//840
f 692//841 572//841 570//841
f 515//842 673//842 517//842
f 517//842 673//842 685//842
f 517//843 685//843 519//843
f 519//843 685//843 686//843
f 519//844 686//844 521//844
f 521//844 686//844 687//844
f 521//845 687//845 523//845
f 523//845 687//845 688//845
f 523//846 688//846 525//846
f 525//846 688//846 689//846
f 525//847 689//847 527//847
f 527//848 689//848 690//848
f 527//849 690//849 529//849
f 529//850 690//850 691//850
f 529//851 691//851 693//851
f 693//852 691//852 692//852
f 693//853 692//853 694//853
f 694//854 692//854 570//854
f 694//855 570//855 695//855
f 695//855 570//855 568//855
f 695//856 568//856 696//856
f 696//856 568//856 566//856
f 696//857 566//857 697//857
f 697//857 566//857 564//857
f 697//858 564//858 698//858
f 698//858 564//858 562//858
f 698//859 562//859 699//859
f 699//859 562//859 560//859
f 699//860 560//860 700//860
f 700//860 560//860 558//860
f 700//861 558//861 553//861
f 553//861 558//861 555//861
f 531//862 529//862 693//862
f 531//863 693//863 701//863
f 701//864 693//864 694//864
f 701//865 694//865 702//865
f 702//865 694//865 695//865
f 702//866 695//866 703//866
f 703//866 695//866 696//866
f 703//867 696//867 704//867
f 704//868 696//868 697//868
f 704//869 697//869 705//869
f 705//869 697//869 698//869
f 705//870 698//870 706//870
f 706//870 698//870 699//870
f 706//871 699//871 707//871
f 707//871 699//871 700//871
f 707//872 700//872 551//872
f 551//872 700//872 553//872
f 536//873 533//873 701//873
f 701//874 533//874 531//874
f 536//875 701//875 702//875
f 538//876 536//876 702//876
f 538//876 702//876 703//876
f 540//877 538//877 703//877
f 540//877 703//877 704//877
f 542//878 540//878 704//878
f 542//878 704//878 705//878
f 544//879 542//879 705//879
f 544//879 705//879 706//879
f 546//880 544//880 706//880
f 546//880 706//880 707//880
f 548//881 546//881 707//881
f 548//881 707//881 551//881
f 469//882 439//882 470//882
f 470//882 439//882 437//882
f 470//882 437//882 472//882
f 472//882 437//882 435//882
f 472//882 435//882 474//882
f 474//882 435//882 433//882
f 474//882 433//882 476//882
f 476//882 433//882 478//882
f 478//882 433//882 428//882
f 478//882 428//882 480//882
f 480//882 428//882 427//882
f 480//882 427//882 482//882
f 482//882 427//882 431//882
f 482//882 431//882 484//882
f 484//882 431//882 430//882
f 484//882 430//882 486//882
f 486//882 430//882 429//882
f 486//882 429//882 488//882
f 488//882 429//882 416//882
f 488//882 416//882 490//882
f 490//882 416//882 414//882
f 490//882 414//882 492//882
f 492//882 414//882 494//882
f 494//882 414//882 412//882
f 494//882 412//882 496//882
f 496//882 412//882 410//882
f 496//882 410//882 498//882
f 498//882 410//882 408//882
f 498//882 408//882 601//882
f 601//882 408//882 406//882
f 601//882 406//882 599//882
f 599//882 406//882 397//882
f 599//882 397//882 597//882
f 597//882 397//882 396//882
f 597//882 396//882 595//882
f 595//882 396//882 404//882
f 595//882 404//882 593//882
f 593//882 404//882 591//882
f 591//882 404//882 403//882
f 591//882 403//882 589//882
f 589//882 403//882 402//882
f 589//882 402//882 587//882
f 587//882 402//882 401//882
f 587//882 401//882 585//882
f 585//882 401//882 400//882
f 585//882 400//882 583//882
f 583//882 400//882 399//882
f 583//882 399//882 581//882
f 581//882 399//882 398//882
f 581//882 398//882 579//882
f 579//882 398//882 577//882
f 577//882 398//882 377//882
f 577//882 377//882 575//882
f 575//882 377//882 375//882
f 575//882 375//882 573//882
f 573//882 375//882 373//882
f 573//882 373//882 571//882
f 571//882 373//882 371//882
f 571//882 371//882 569//882
f 569//882 371//882 369//882
f 569//882 369//882 567//882
f 567//882 369//882 367//882
f 567//882 367//882 565//882
f 565//882 367//882 365//882
f 565//882 365//882 563//882
f 563//882 365//882 561//882
f 561//882 365//882 363//882
f 561//882 363//882 559//882
f 559//882 363//882 360//882
f 559//882 360//882 557//882
f 557//882 360//882 361//882
f 557//882 361//882 556//882
f 2//883 1//883 549//883
f 549//883 1//883 547//883
f 547//884 1//884 194//884
f 547//884 194//884 545//884
f 545//885 194//885 191//885
f 545//885 191//885 543//885
f 543//886 191//886 187//886
f 543//886 187//886 541//886
f 541//887 187//887 183//887
f 541//887 183//887 539//887
f 539//888 183//888 179//888
f 539//888 179//888 537//888
f 537//889 179//889 175//889
f 537//889 175//889 535//889
f 535//890 175//890 171//890
f 535//890 171//890 534//890
f 534//891 171//891 167//891
f 534//891 167//891 532//891
f 532//892 167//892 163//892
f 532//892 163//892 530//892
f 530//893 163//893 159//893
f 530//893 159//893 528//893
f 528//894 159//894 34//894
f 528//894 34//894 526//894
f 526//895 34//895 35//895
f 526//895 35//895 524//895
f 524//896 35//896 37//896
f 524//896 37//896 522//896
f 522//897 37//897 39//897
f 522//897 39//897 520//897
f 520//898 39//898 41//898
f 520//898 41//898 518//898
f 518//899 41//899 43//899
f 518//899 43//899 516//899
f 516//900 43//900 45//900
f 516//900 45//900 514//900
f 514//901 45//901 47//901
f 514//901 47//901 512//901
f 512//902 47//902 49//902
f 512//902 49//902 510//902
f 510//903 49//903 51//903
f 510//903 51//903 508//903
f 508//904 51//904 53//904
f 508//904 53//904 507//904
f 507//905 53//905 55//905
f 507//905 55//905 602//905
f 602//906 55//906 57//906
f 602//906 57//906 606//906
f 606//907 57//907 59//907
f 606//907 59//907 610//907
f 610//908 59//908 61//908
f 610//908 61//908 614//908
f 614//909 61//909 63//909
f 614//909 63//909 618//909
f 618//910 63//910 65//910
f 618//910 65//910 622//910
f 622//911 65//911 67//911
f 622//911 67//911 626//911
f 626//912 67//912 69//912
f 626//912 69//912 630//912
f 630//913 69//913 71//913
f 630//913 71//913 634//913
f 634//914 71//914 73//914
f 634//914 73//914 638//914
f 638//915 73//915 75//915
f 638//915 75//915 642//915
f 642//916 75//916 77//916
f 642//916 77//916 646//916
f 646//917 77//917 79//917
f 646//917 79//917 650//917
f 650//918 79//918 81//918
f 650//918 81//918 654//918
f 654//919 81//919 83//919
f 654//919 83//919 658//919
f 658//920 83//920 85//920
f 658//920 85//920 662//920
f 662//921 85//921 87//921
f 662//921 87//921 665//921
f 665//922 87//922 89//922
f 665//922 89//922 460//922
f 460//923 89//923 91//923
f 460//923 91//923 461//923
