# Blender 4.0.2
# www.blender.org
o MP-400-BODY__m1
v -246.000000 6.500000 339.500000
v -248.000000 6.500000 339.500000
v -246.000000 7.500000 339.232086
v -248.000000 7.500000 339.232086
v -248.000000 8.232051 338.500000
v -246.000000 8.232051 338.500000
v -248.000000 8.500000 337.500000
v -246.000000 8.500000 337.500000
v -248.000000 8.500000 316.500000
v -246.000000 8.500000 316.500000
v -246.000000 8.232051 315.500000
v -248.000000 8.232051 315.500000
v -248.000000 7.500000 314.768005
v -246.000000 7.500000 314.768005
v -248.000000 6.500000 314.500000
v -246.000000 6.500000 314.500000
v -248.000000 -65.500000 314.500000
v -246.000000 -65.500000 314.500000
v -246.000000 -66.500000 314.768005
v -248.000000 -66.500000 314.768005
v -248.000000 -67.232048 315.500000
v -246.000000 -67.232048 315.500000
v -248.000000 -67.500000 316.500000
v -246.000000 -67.500000 316.500000
v -248.000000 -67.500000 337.500000
v -246.000000 -67.500000 337.500000
v -246.000000 -67.232048 338.500000
v -248.000000 -67.232048 338.500000
v -248.000000 -66.500000 339.232086
v -246.000000 -66.500000 339.232086
v -248.000000 -65.500000 339.500000
v -246.000000 -65.500000 339.500000
vn -0.0000 -0.2588 -0.9659
vn -0.0000 -0.7071 -0.7071
vn -0.0000 -0.9659 -0.2588
vn -0.0000 -1.0000 -0.0000
vn -0.0000 -0.9659 0.2588
vn -0.0000 -0.7071 0.7071
vn -0.0000 -0.2589 0.9659
vn -0.0000 -0.0000 1.0000
vn -0.0000 0.2589 0.9659
vn -0.0000 0.7071 0.7071
vn -0.0000 0.9659 0.2588
vn -0.0000 1.0000 -0.0000
vn -0.0000 0.9659 -0.2588
vn -0.0000 0.7071 -0.7071
vn -0.0000 0.2588 -0.9659
vn -0.0000 -0.0000 -1.0000
vn -1.0000 -0.0000 -0.0000
s 0
f 1//1 2//1 3//1
f 3//1 2//1 4//1
f 3//2 4//2 5//2
f 3//2 5//2 6//2
f 6//3 5//3 7//3
f 6//3 7//3 8//3
f 7//4 9//4 8//4
f 8//4 9//4 10//4
f 10//5 9//5 11//5
f 11//5 9//5 12//5
f 11//6 12//6 13//6
f 11//6 13//6 14//6
f 14//7 13//7 15//7
f 14//7 15//7 16//7
f 15//8 17//8 16//8
f 16//8 17//8 18//8
f 18//9 17//9 19//9
f 19//9 17//9 20//9
f 19//10 20//10 21//10
f 19//10 21//10 22//10
f 22//11 21//11 23//11
f 22//11 23//11 24//11
f 23//12 25//12 24//12
f 24//12 25//12 26//12
f 26//13 25//13 27//13
f 27//13 25//13 28//13
f 27//14 28//14 29//14
f 27//14 29//14 30//14
f 30//15 29//15 31//15
f 30//15 31//15 32//15
f 31//16 2//16 32//16
f 32//16 2//16 1//16
f 1//17 8//17 32//17
f 32//17 8//17 26//17
f 32//17 26//17 27//17
f 3//17 6//17 1//17
f 1//17 6//17 8//17
f 8//17 10//17 26//17
f 26//17 10//17 24//17
f 24//17 10//17 18//17
f 24//17 18//17 22//17
f 22//17 18//17 19//17
f 18//17 10//17 16//17
f 16//17 10//17 11//17
f 16//17 11//17 14//17
f 27//17 30//17 32//17
