# Blender 4.0.2
# www.blender.org
o MP-400-BODY__m2
v -48.500000 -290.000000 217.500000
v 48.500000 -290.000000 217.500000
v -48.500000 -293.000000 217.500000
v 48.500000 -293.000000 217.500000
v -48.500000 -290.000000 237.500000
v -48.500000 -293.000000 237.500000
v 48.500000 -290.000000 237.500000
v 48.500000 -293.000000 237.500000
v -48.500000 -290.000000 182.500000
v 48.500000 -290.000000 182.500000
v -48.500000 -293.000000 182.500000
v 48.500000 -293.000000 182.500000
v -48.500000 -290.000000 202.500000
v -48.500000 -293.000000 202.500000
v 48.500000 -290.000000 202.500000
v 48.500000 -293.000000 202.500000
vn -0.0000 -0.0000 -1.0000
vn -1.0000 -0.0000 -0.0000
vn -0.0000 -0.0000 1.0000
vn 1.0000 -0.0000 -0.0000
vn -0.0000 -1.0000 -0.0000
s 0
f 1//1 2//1 3//1
f 3//1 2//1 4//1
f 5//2 1//2 6//2
f 6//2 1//2 3//2
f 7//3 5//3 8//3
f 8//3 5//3 6//3
f 2//4 7//4 4//4
f 4//4 7//4 8//4
f 4//5 8//5 3//5
f 3//5 8//5 6//5
f 9//1 10//1 11//1
f 11//1 10//1 12//1
f 13//2 9//2 14//2
f 14//2 9//2 11//2
f 15//3 13//3 16//3
f 16//3 13//3 14//3
f 10//4 15//4 12//4
f 12//4 15//4 16//4
f 12//5 16//5 11//5
f 11//5 16//5 14//5
