# Blender 4.0.2
# www.blender.org
o MP-400-BODY__m8
v -233.000000 -10.390380 44.733849
v -233.000000 0.000000 43.000000
v -233.000000 10.390380 44.733849
v -233.000000 19.654810 49.747501
v -233.000000 26.789330 57.497662
v -233.000000 31.020809 67.144470
v -233.000000 31.890711 77.642540
v -233.000000 29.304750 87.854271
v -233.000000 23.543171 96.673012
v -233.000000 15.230320 103.143204
v -233.000000 5.267027 106.563599
v -233.000000 -5.267027 106.563599
v -233.000000 -15.230320 103.143204
v -233.000000 -23.543171 96.673012
v -233.000000 -29.304750 87.854271
v -233.000000 -31.890711 77.642540
v -233.000000 -31.020809 67.144470
v -233.000000 -26.789330 57.497662
v -233.000000 -19.654810 49.747501
v -233.000000 12.114500 33.741798
v -229.000000 12.114500 33.741798
v -233.000000 0.000000 32.000000
v -229.000000 0.000000 32.000000
v -233.000000 -12.114500 33.741798
v -229.000000 -12.114500 33.741798
v -233.000000 -23.247561 38.826099
v -229.000000 -23.247561 38.826099
v -233.000000 -32.497231 46.840988
v -229.000000 -32.497231 46.840988
v -233.000000 -39.114170 57.137161
v -229.000000 -39.114170 57.137161
v -233.000000 -42.562321 68.880470
v -229.000000 -42.562321 68.880470
v -233.000000 -42.562321 81.119537
v -229.000000 -42.562321 81.119537
v -233.000000 -39.114170 92.862846
v -229.000000 -39.114170 92.862846
v -233.000000 -32.497231 103.158997
v -229.000000 -32.497231 103.158997
v -233.000000 -23.247561 111.173897
v -229.000000 -23.247561 111.173897
v -233.000000 -12.114500 116.258202
v -229.000000 -12.114500 116.258202
v -233.000000 0.000000 118.000000
v -229.000000 0.000000 118.000000
v -233.000000 12.114500 116.258202
v -229.000000 12.114500 116.258202
v -233.000000 23.247561 111.173897
v -229.000000 23.247561 111.173897
v -233.000000 32.497231 103.158997
v -229.000000 32.497231 103.158997
v -233.000000 39.114170 92.862846
v -229.000000 39.114170 92.862846
v -233.000000 42.562321 81.119537
v -229.000000 42.562321 81.119537
v -233.000000 42.562321 68.880470
v -229.000000 42.562321 68.880470
v -233.000000 39.114170 57.137161
v -229.000000 39.114170 57.137161
v -233.000000 32.497231 46.840988
v -229.000000 32.497231 46.840988
v -233.000000 23.247561 38.826099
v -229.000000 23.247561 38.826099
v -219.000000 28.374519 65.259018
v -219.000000 28.374519 84.740982
v -219.000000 30.000000 75.000000
v -219.000000 23.674219 93.426376
v -219.000000 16.408449 100.114998
v -219.000000 7.364565 104.082001
v -219.000000 -2.477380 104.897499
v -219.000000 -12.050860 102.473198
v -219.000000 -20.318451 97.071716
v -219.000000 23.674219 56.573620
v -219.000000 16.408449 49.884998
v -219.000000 7.364565 45.917992
v -219.000000 -2.477380 45.102470
v -219.000000 -12.050860 47.526798
v -219.000000 -20.318451 52.928280
v -219.000000 -26.384211 60.721581
v -219.000000 -29.590839 70.062157
v -219.000000 -29.590839 79.937851
v -219.000000 -26.384211 89.278419
v -207.500000 28.374519 65.259018
v -207.500000 30.000000 75.000000
v -207.500000 28.374519 84.740982
v -207.500000 23.674219 93.426376
v -207.500000 16.408449 100.114998
v -207.500000 7.364565 104.082001
v -207.500000 -2.477380 104.897499
v -207.500000 -12.050860 102.473198
v -207.500000 -20.318451 97.071716
v -207.500000 -26.384211 89.278419
v -207.500000 -29.590839 79.937851
v -207.500000 -29.590839 70.062157
v -207.500000 -26.384211 60.721581
v -207.500000 -20.318451 52.928280
v -207.500000 -12.050860 47.526798
v -207.500000 -2.477380 45.102470
v -207.500000 7.364565 45.917992
v -207.500000 16.408449 49.884998
v -207.500000 23.674219 56.573620
v 233.000000 10.390380 44.733849
v 233.000000 0.000000 43.000000
v 233.000000 -10.390380 44.733849
v 233.000000 -19.654810 49.747501
v 233.000000 -26.789330 57.497662
v 233.000000 -31.020809 67.144470
v 233.000000 -31.890711 77.642540
v 233.000000 -29.304750 87.854271
v 233.000000 -23.543171 96.673012
v 233.000000 -15.230320 103.143204
v 233.000000 -5.267027 106.563599
v 233.000000 5.267027 106.563599
v 233.000000 15.230320 103.143204
v 233.000000 23.543171 96.673012
v 233.000000 29.304750 87.854271
v 233.000000 31.890711 77.642540
v 233.000000 31.020809 67.144470
v 233.000000 26.789330 57.497662
v 233.000000 19.654810 49.747501
v 233.000000 -12.114500 33.741798
v 229.000000 -12.114500 33.741798
v 233.000000 0.000000 32.000000
v 229.000000 0.000000 32.000000
v 233.000000 12.114500 33.741798
v 229.000000 12.114500 33.741798
v 233.000000 23.247561 38.826099
v 229.000000 23.247561 38.826099
v 233.000000 32.497231 46.840988
v 229.000000 32.497231 46.840988
v 233.000000 39.114170 57.137161
v 229.000000 39.114170 57.137161
v 233.000000 42.562321 68.880470
v 229.000000 42.562321 68.880470
v 233.000000 42.562321 81.119537
v 229.000000 42.562321 81.119537
v 233.000000 39.114170 92.862846
v 229.000000 39.114170 92.862846
v 233.000000 32.497231 103.158997
v 229.000000 32.497231 103.158997
v 233.000000 23.247561 111.173897
v 229.000000 23.247561 111.173897
v 233.000000 12.114500 116.258202
v 229.000000 12.114500 116.258202
v 233.000000 0.000000 118.000000
v 229.000000 0.000000 118.000000
v 233.000000 -12.114500 116.258202
v 229.000000 -12.114500 116.258202
v 233.000000 -23.247561 111.173897
v 229.000000 -23.247561 111.173897
v 233.000000 -32.497231 103.158997
v 229.000000 -32.497231 103.158997
v 233.000000 -39.114170 92.862846
v 229.000000 -39.114170 92.862846
v 233.000000 -42.562321 81.119537
v 229.000000 -42.562321 81.119537
v 233.000000 -42.562321 68.880470
v 229.000000 -42.562321 68.880470
v 233.000000 -39.114170 57.137161
v 229.000000 -39.114170 57.137161
v 233.000000 -32.497231 46.840988
v 229.000000 -32.497231 46.840988
v 233.000000 -23.247561 38.826099
v 229.000000 -23.247561 38.826099
v 219.000000 28.374519 65.259018
v 219.000000 30.000000 75.000000
v 219.000000 28.374519 84.740982
v 219.000000 23.674219 93.426376
v 219.000000 16.408449 100.114998
v 219.000000 7.364565 104.082001
v 219.000000 -2.477380 104.897499
v 219.000000 -12.050860 102.473198
v 219.000000 -20.318451 97.071716
v 219.000000 -26.384211 89.278419
v 219.000000 -29.590839 79.937851
v 219.000000 -29.590839 70.062157
v 219.000000 -26.384211 60.721581
v 219.000000 -20.318451 52.928280
v 219.000000 -12.050860 47.526798
v 219.000000 -2.477380 45.102470
v 219.000000 7.364565 45.917992
v 219.000000 16.408449 49.884998
v 219.000000 23.674219 56.573620
v 207.500000 28.374519 84.740982
v 207.500000 30.000000 75.000000
v 207.500000 28.374519 65.259018
v 207.500000 23.674219 56.573620
v 207.500000 16.408449 49.884998
v 207.500000 7.364565 45.917992
v 207.500000 -2.477380 45.102470
v 207.500000 -12.050860 47.526798
v 207.500000 -20.318451 52.928280
v 207.500000 -26.384211 60.721581
v 207.500000 -29.590839 70.062157
v 207.500000 -29.590839 79.937851
v 207.500000 -26.384211 89.278419
v 207.500000 -20.318451 97.071716
v 207.500000 -12.050860 102.473198
v 207.500000 -2.477380 104.897499
v 207.500000 7.364565 104.082001
v 207.500000 16.408449 100.114998
v 207.500000 23.674219 93.426376
vn -0.0000 0.1423 -0.9898
vn -0.0000 -0.1423 -0.9898
vn -0.0000 -0.4154 -0.9096
vn -0.0000 -0.6549 -0.7557
vn -0.0000 -0.8413 -0.5406
vn -0.0000 -0.9595 -0.2817
vn -0.0000 -1.0000 -0.0000
vn -0.0000 -0.9595 0.2817
vn -0.0000 -0.8413 0.5406
vn -0.0000 -0.6549 0.7557
vn -0.0000 -0.4154 0.9096
vn -0.0000 -0.1423 0.9898
vn -0.0000 0.1423 0.9898
vn -0.0000 0.4154 0.9096
vn -0.0000 0.6549 0.7557
vn -0.0000 0.8413 0.5406
vn -0.0000 0.9595 0.2817
vn -0.0000 1.0000 -0.0000
vn -0.0000 0.9595 -0.2817
vn -0.0000 0.8413 -0.5406
vn -0.0000 0.6549 -0.7557
vn -0.0000 0.4154 -0.9096
vn -1.0000 -0.0000 -0.0000
vn -0.0000 0.9864 -0.1646
vn -0.0000 0.9864 0.1646
vn -0.0000 0.8795 0.4759
vn -0.0000 0.6773 0.7357
vn -0.0000 0.4017 0.9158
vn -0.0000 0.0826 0.9966
vn -0.0000 -0.2455 0.9694
vn -0.0000 -0.5469 0.8372
vn -0.0000 -0.7891 0.6142
vn -0.0000 -0.9458 0.3247
vn -0.0000 -0.9458 -0.3247
vn -0.0000 -0.7891 -0.6142
vn -0.0000 -0.5469 -0.8372
vn -0.0000 -0.2455 -0.9694
vn -0.0000 0.0826 -0.9966
vn -0.0000 0.4017 -0.9158
vn -0.0000 0.6773 -0.7357
vn -0.0000 0.8795 -0.4759
vn 1.0000 -0.0000 -0.0000
s 0
f 20//1 21//1 22//1
f 22//1 21//1 23//1
f 22//2 23//2 24//2
f 24//2 23//2 25//2
f 24//3 25//3 26//3
f 26//3 25//3 27//3
f 26//4 27//4 28//4
f 28//4 27//4 29//4
f 28//5 29//5 30//5
f 30//5 29//5 31//5
f 30//6 31//6 32//6
f 32//6 31//6 33//6
f 32//7 33//7 34//7
f 34//7 33//7 35//7
f 34//8 35//8 36//8
f 36//8 35//8 37//8
f 36//9 37//9 38//9
f 38//9 37//9 39//9
f 38//10 39//10 40//10
f 40//10 39//10 41//10
f 40//11 41//11 42//11
f 42//11 41//11 43//11
f 42//12 43//12 44//12
f 44//12 43//12 45//12
f 44//13 45//13 46//13
f 46//13 45//13 47//13
f 46//14 47//14 48//14
f 48//14 47//14 49//14
f 48//15 49//15 50//15
f 50//15 49//15 51//15
f 50//16 51//16 52//16
f 52//16 51//16 53//16
f 52//17 53//17 54//17
f 54//17 53//17 55//17
f 54//18 55//18 56//18
f 56//18 55//18 57//18
f 56//19 57//19 58//19
f 58//19 57//19 59//19
f 58//20 59//20 60//20
f 60//20 59//20 61//20
f 60//21 61//21 62//21
f 62//21 61//21 63//21
f 62//22 63//22 20//22
f 20//22 63//22 21//22
f 3//23 20//23 2//23
f 2//23 20//23 22//23
f 2//23 22//23 24//23
f 20//23 3//23 62//23
f 62//23 3//23 4//23
f 62//23 4//23 60//23
f 60//23 4//23 5//23
f 60//23 5//23 58//23
f 58//23 5//23 6//23
f 58//23 6//23 56//23
f 56//23 6//23 7//23
f 56//23 7//23 54//23
f 54//23 7//23 8//23
f 54//23 8//23 52//23
f 52//23 8//23 50//23
f 50//23 8//23 9//23
f 50//23 9//23 48//23
f 48//23 9//23 10//23
f 48//23 10//23 46//23
f 46//23 10//23 11//23
f 46//23 11//23 44//23
f 44//23 11//23 12//23
f 44//23 12//23 42//23
f 42//23 12//23 13//23
f 42//23 13//23 40//23
f 40//23 13//23 14//23
f 40//23 14//23 38//23
f 38//23 14//23 15//23
f 38//23 15//23 36//23
f 36//23 15//23 34//23
f 34//23 15//23 16//23
f 34//23 16//23 32//23
f 32//23 16//23 17//23
f 32//23 17//23 30//23
f 30//23 17//23 18//23
f 30//23 18//23 28//23
f 28//23 18//23 19//23
f 28//23 19//23 26//23
f 26//23 19//23 1//23
f 26//23 1//23 24//23
f 24//23 1//23 2//23
f 83//24 64//24 84//24
f 84//24 64//24 66//24
f 84//25 66//25 85//25
f 85//25 66//25 65//25
f 85//26 65//26 86//26
f 86//26 65//26 67//26
f 86//27 67//27 87//27
f 87//27 67//27 68//27
f 87//28 68//28 88//28
f 88//28 68//28 69//28
f 88//29 69//29 89//29
f 89//29 69//29 70//29
f 89//30 70//30 90//30
f 90//30 70//30 71//30
f 90//31 71//31 91//31
f 91//31 71//31 72//31
f 91//32 72//32 92//32
f 92//32 72//32 82//32
f 92//33 82//33 93//33
f 93//33 82//33 81//33
f 93//7 81//7 94//7
f 94//7 81//7 80//7
f 94//34 80//34 95//34
f 95//34 80//34 79//34
f 95//35 79//35 96//35
f 96//35 79//35 78//35
f 96//36 78//36 97//36
f 97//36 78//36 77//36
f 97//37 77//37 98//37
f 98//37 77//37 76//37
f 98//38 76//38 99//38
f 99//38 76//38 75//38
f 99//39 75//39 100//39
f 100//39 75//39 74//39
f 100//40 74//40 101//40
f 101//40 74//40 73//40
f 101//41 73//41 83//41
f 83//41 73//41 64//41
f 121//2 122//2 123//2
f 123//2 122//2 124//2
f 123//1 124//1 125//1
f 125//1 124//1 126//1
f 125//22 126//22 127//22
f 127//22 126//22 128//22
f 127//21 128//21 129//21
f 129//21 128//21 130//21
f 129//20 130//20 131//20
f 131//20 130//20 132//20
f 131//19 132//19 133//19
f 133//19 132//19 134//19
f 133//18 134//18 135//18
f 135//18 134//18 136//18
f 135//17 136//17 137//17
f 137//17 136//17 138//17
f 137//16 138//16 139//16
f 139//16 138//16 140//16
f 139//15 140//15 141//15
f 141//15 140//15 142//15
f 141//14 142//14 143//14
f 143//14 142//14 144//14
f 143//13 144//13 145//13
f 145//13 144//13 146//13
f 145//12 146//12 147//12
f 147//12 146//12 148//12
f 147//11 148//11 149//11
f 149//11 148//11 150//11
f 149//10 150//10 151//10
f 151//10 150//10 152//10
f 151//9 152//9 153//9
f 153//9 152//9 154//9
f 153//8 154//8 155//8
f 155//8 154//8 156//8
f 155//7 156//7 157//7
f 157//7 156//7 158//7
f 157//6 158//6 159//6
f 159//6 158//6 160//6
f 159//5 160//5 161//5
f 161//5 160//5 162//5
f 161//4 162//4 163//4
f 163//4 162//4 164//4
f 163//3 164//3 121//3
f 121//3 164//3 122//3
f 104//42 121//42 103//42
f 103//42 121//42 123//42
f 103//42 123//42 125//42
f 121//42 104//42 163//42
f 163//42 104//42 105//42
f 163//42 105//42 161//42
f 161//42 105//42 106//42
f 161//42 106//42 159//42
f 159//42 106//42 107//42
f 159//42 107//42 157//42
f 157//42 107//42 108//42
f 157//42 108//42 155//42
f 155//42 108//42 109//42
f 155//42 109//42 153//42
f 153//42 109//42 151//42
f 151//42 109//42 110//42
f 151//42 110//42 149//42
f 149//42 110//42 111//42
f 149//42 111//42 147//42
f 147//42 111//42 112//42
f 147//42 112//42 145//42
f 145//42 112//42 113//42
f 145//42 113//42 143//42
f 143//42 113//42 114//42
f 143//42 114//42 141//42
f 141//42 114//42 115//42
f 141//42 115//42 139//42
f 139//42 115//42 116//42
f 139//42 116//42 137//42
f 137//42 116//42 135//42
f 135//42 116//42 117//42
f 135//42 117//42 133//42
f 133//42 117//42 118//42
f 133//42 118//42 131//42
f 131//42 118//42 119//42
f 131//42 119//42 129//42
f 129//42 119//42 120//42
f 129//42 120//42 127//42
f 127//42 120//42 102//42
f 127//42 102//42 125//42
f 125//42 102//42 103//42
f 184//25 167//25 185//25
f 185//25 167//25 166//25
f 185//24 166//24 186//24
f 186//24 166//24 165//24
f 186//41 165//41 187//41
f 187//41 165//41 183//41
f 187//40 183//40 188//40
f 188//40 183//40 182//40
f 188//39 182//39 189//39
f 189//39 182//39 181//39
f 189//38 181//38 190//38
f 190//38 181//38 180//38
f 190//37 180//37 191//37
f 191//37 180//37 179//37
f 191//36 179//36 192//36
f 192//36 179//36 178//36
f 192//35 178//35 193//35
f 193//35 178//35 177//35
f 193//34 177//34 194//34
f 194//34 177//34 176//34
f 194//7 176//7 195//7
f 195//7 176//7 175//7
f 195//33 175//33 196//33
f 196//33 175//33 174//33
f 196//32 174//32 197//32
f 197//32 174//32 173//32
f 197//31 173//31 198//31
f 198//31 173//31 172//31
f 198//30 172//30 199//30
f 199//30 172//30 171//30
f 199//29 171//29 200//29
f 200//29 171//29 170//29
f 200//28 170//28 201//28
f 201//28 170//28 169//28
f 201//27 169//27 202//27
f 202//27 169//27 168//27
f 202//26 168//26 184//26
f 184//26 168//26 167//26
