# Blender 4.0.2
# www.blender.org
o MP-400-BODY__m5
v 132.158401 -207.405502 100.000000
v 130.500000 -198.000000 100.000000
v 132.158401 -188.594406 100.000000
v 136.933807 -180.323303 100.000000
v 144.250000 -174.184296 100.000000
v 153.224701 -170.917801 100.000000
v 162.775299 -170.917801 100.000000
v 171.750000 -174.184296 100.000000
v 179.066193 -180.323303 100.000000
v 183.841507 -188.594406 100.000000
v 185.500000 -198.000000 100.000000
v 183.841507 -207.405502 100.000000
v 179.066193 -215.676605 100.000000
v 171.750000 -221.815704 100.000000
v 162.775299 -225.082199 100.000000
v 153.224701 -225.082199 100.000000
v 144.250000 -221.815704 100.000000
v 136.933807 -215.676605 100.000000
v -183.841507 -207.405502 100.000000
v -185.500000 -198.000000 100.000000
v -183.841507 -188.594406 100.000000
v -179.066193 -180.323303 100.000000
v -171.750000 -174.184296 100.000000
v -162.775299 -170.917801 100.000000
v -153.224701 -170.917801 100.000000
v -144.250000 -174.184296 100.000000
v -136.933807 -180.323303 100.000000
v -132.158401 -188.594406 100.000000
v -130.500000 -198.000000 100.000000
v -132.158401 -207.405502 100.000000
v -136.933807 -215.676605 100.000000
v -144.250000 -221.815704 100.000000
v -153.224701 -225.082199 100.000000
v -162.775299 -225.082199 100.000000
v -171.750000 -221.815704 100.000000
v -179.066193 -215.676605 100.000000
v -183.841507 188.594406 100.000000
v -185.500000 198.000000 100.000000
v -183.841507 207.405502 100.000000
v -179.066193 215.676605 100.000000
v -171.750000 221.815704 100.000000
v -162.775299 225.082199 100.000000
v -153.224701 225.082199 100.000000
v -144.250000 221.815704 100.000000
v -136.933807 215.676605 100.000000
v -132.158401 207.405502 100.000000
v -130.500000 198.000000 100.000000
v -132.158401 188.594406 100.000000
v -136.933807 180.323303 100.000000
v -144.250000 174.184296 100.000000
v -153.224701 170.917801 100.000000
v -162.775299 170.917801 100.000000
v -171.750000 174.184296 100.000000
v -179.066193 180.323303 100.000000
v 132.158401 188.594406 100.000000
v 130.500000 198.000000 100.000000
v 132.158401 207.405502 100.000000
v 136.933807 215.676605 100.000000
v 144.250000 221.815704 100.000000
v 153.224701 225.082199 100.000000
v 162.775299 225.082199 100.000000
v 171.750000 221.815704 100.000000
v 179.066193 215.676605 100.000000
v 183.841507 207.405502 100.000000
v 185.500000 198.000000 100.000000
v 183.841507 188.594406 100.000000
v 179.066193 180.323303 100.000000
v 171.750000 174.184296 100.000000
v 162.775299 170.917801 100.000000
v 153.224701 170.917801 100.000000
v 144.250000 174.184296 100.000000
v 136.933807 180.323303 100.000000
v -188.000000 -228.000000 100.000000
v -188.000000 -228.000000 125.000000
v -188.000000 -168.000000 100.000000
v -188.000000 -168.000000 125.000000
v -128.000000 -228.000000 100.000000
v -128.000000 -228.000000 125.000000
v -128.000000 -168.000000 100.000000
v -128.000000 -168.000000 125.000000
v 128.000000 -228.000000 100.000000
v 128.000000 -228.000000 125.000000
v 128.000000 -168.000000 100.000000
v 128.000000 -168.000000 125.000000
v 188.000000 -228.000000 100.000000
v 188.000000 -228.000000 125.000000
v 188.000000 -168.000000 100.000000
v 188.000000 -168.000000 125.000000
v 188.000000 228.000000 100.000000
v 188.000000 228.000000 125.000000
v 188.000000 168.000000 100.000000
v 188.000000 168.000000 125.000000
v 128.000000 228.000000 100.000000
v 128.000000 228.000000 125.000000
v 128.000000 168.000000 100.000000
v 128.000000 168.000000 125.000000
v -188.000000 168.000000 100.000000
v -188.000000 168.000000 125.000000
v -188.000000 228.000000 100.000000
v -188.000000 228.000000 125.000000
v -128.000000 168.000000 100.000000
v -128.000000 168.000000 125.000000
v -128.000000 228.000000 100.000000
v -128.000000 228.000000 125.000000
vn -1.0000 -0.0000 -0.0000
vn -0.0000 -1.0000 -0.0000
vn 1.0000 -0.0000 -0.0000
vn -0.0000 1.0000 -0.0000
vn -0.0000 -0.0000 -1.0000
s 0
f 73//1 74//1 75//1
f 75//1 74//1 76//1
f 77//2 78//2 73//2
f 73//2 78//2 74//2
f 79//3 80//3 77//3
f 77//3 80//3 78//3
f 75//4 76//4 79//4
f 79//4 76//4 80//4
f 19//5 73//5 20//5
f 20//5 73//5 75//5
f 20//5 75//5 21//5
f 21//5 75//5 22//5
f 22//5 75//5 23//5
f 23//5 75//5 24//5
f 24//5 75//5 79//5
f 24//5 79//5 25//5
f 25//5 79//5 26//5
f 26//5 79//5 27//5
f 27//5 79//5 28//5
f 28//5 79//5 29//5
f 29//5 79//5 77//5
f 29//5 77//5 30//5
f 30//5 77//5 31//5
f 31//5 77//5 32//5
f 32//5 77//5 33//5
f 33//5 77//5 73//5
f 33//5 73//5 34//5
f 34//5 73//5 35//5
f 35//5 73//5 36//5
f 36//5 73//5 19//5
f 81//1 82//1 83//1
f 83//1 82//1 84//1
f 85//2 86//2 81//2
f 81//2 86//2 82//2
f 87//3 88//3 85//3
f 85//3 88//3 86//3
f 83//4 84//4 87//4
f 87//4 84//4 88//4
f 1//5 81//5 2//5
f 2//5 81//5 83//5
f 2//5 83//5 3//5
f 3//5 83//5 4//5
f 4//5 83//5 5//5
f 5//5 83//5 6//5
f 6//5 83//5 87//5
f 6//5 87//5 7//5
f 7//5 87//5 8//5
f 8//5 87//5 9//5
f 9//5 87//5 10//5
f 10//5 87//5 11//5
f 11//5 87//5 85//5
f 11//5 85//5 12//5
f 12//5 85//5 13//5
f 13//5 85//5 14//5
f 14//5 85//5 15//5
f 15//5 85//5 81//5
f 15//5 81//5 16//5
f 16//5 81//5 17//5
f 17//5 81//5 18//5
f 18//5 81//5 1//5
f 89//3 90//3 91//3
f 91//3 90//3 92//3
f 93//4 94//4 89//4
f 89//4 94//4 90//4
f 95//1 96//1 93//1
f 93//1 96//1 94//1
f 91//2 92//2 95//2
f 95//2 92//2 96//2
f 55//5 95//5 56//5
f 56//5 95//5 93//5
f 56//5 93//5 57//5
f 57//5 93//5 58//5
f 58//5 93//5 59//5
f 59//5 93//5 60//5
f 60//5 93//5 89//5
f 60//5 89//5 61//5
f 61//5 89//5 62//5
f 62//5 89//5 63//5
f 63//5 89//5 64//5
f 64//5 89//5 65//5
f 65//5 89//5 91//5
f 65//5 91//5 66//5
f 66//5 91//5 67//5
f 67//5 91//5 68//5
f 68//5 91//5 69//5
f 69//5 91//5 95//5
f 69//5 95//5 70//5
f 70//5 95//5 71//5
f 71//5 95//5 72//5
f 72//5 95//5 55//5
f 97//1 98//1 99//1
f 99//1 98//1 100//1
f 101//2 102//2 97//2
f 97//2 102//2 98//2
f 103//3 104//3 101//3
f 101//3 104//3 102//3
f 99//4 100//4 103//4
f 103//4 100//4 104//4
f 37//5 97//5 38//5
f 38//5 97//5 99//5
f 38//5 99//5 39//5
f 39//5 99//5 40//5
f 40//5 99//5 41//5
f 41//5 99//5 42//5
f 42//5 99//5 103//5
f 42//5 103//5 43//5
f 43//5 103//5 44//5
f 44//5 103//5 45//5
f 45//5 103//5 46//5
f 46//5 103//5 47//5
f 47//5 103//5 101//5
f 47//5 101//5 48//5
f 48//5 101//5 49//5
f 49//5 101//5 50//5
f 50//5 101//5 51//5
f 51//5 101//5 97//5
f 51//5 97//5 52//5
f 52//5 97//5 53//5
f 53//5 97//5 54//5
f 54//5 97//5 37//5
