# Blender 4.0.2
# www.blender.org
o SICK-S300__m2
v -1.304482 -77.769272 -51.000004
v -1.000000 -79.300003 -51.000004
v -1.304482 -80.830742 -51.000004
v -2.171573 -82.128433 -51.000004
v -3.469266 -82.995522 -51.000004
v -5.000000 -83.300003 -51.000004
v -6.530734 -82.995522 -51.000004
v -7.828427 -82.128433 -51.000004
v -8.695518 -80.830742 -51.000004
v -9.000000 -79.300003 -51.000004
v -8.695518 -77.769272 -51.000004
v -7.828427 -76.471581 -51.000004
v -6.530734 -75.604492 -51.000004
v -5.000000 -75.300011 -51.000004
v -3.469266 -75.604492 -51.000004
v -2.171573 -76.471581 -51.000004
v 47.695518 -77.769272 -51.000004
v 48.000000 -79.300003 -51.000004
v 47.695518 -80.830742 -51.000004
v 46.828430 -82.128433 -51.000004
v 45.530731 -82.995522 -51.000004
v 44.000000 -83.300003 -51.000004
v 42.469269 -82.995522 -51.000004
v 41.171570 -82.128433 -51.000004
v 40.304482 -80.830742 -51.000004
v 40.000000 -79.300003 -51.000004
v 40.304482 -77.769272 -51.000004
v 41.171570 -76.471581 -51.000004
v 42.469269 -75.604492 -51.000004
v 44.000000 -75.300011 -51.000004
v 45.530731 -75.604492 -51.000004
v 46.828430 -76.471581 -51.000004
v 47.695518 -80.830742 50.999996
v 48.000000 -79.300003 50.999996
v 47.695518 -77.769272 50.999996
v 46.828430 -76.471581 50.999996
v 45.530731 -75.604492 50.999996
v 44.000000 -75.300011 50.999996
v 42.469269 -75.604492 50.999996
v 41.171570 -76.471581 50.999996
v 40.304482 -77.769272 50.999996
v 40.000000 -79.300003 50.999996
v 40.304482 -80.830742 50.999996
v 41.171570 -82.128433 50.999996
v 42.469269 -82.995522 50.999996
v 44.000000 -83.300003 50.999996
v 45.530731 -82.995522 50.999996
v 46.828430 -82.128433 50.999996
v -1.304482 -80.830742 50.999996
v -1.000000 -79.300003 50.999996
v -1.304482 -77.769272 50.999996
v -2.171573 -76.471581 50.999996
v -3.469266 -75.604492 50.999996
v -5.000000 -75.300011 50.999996
v -6.530734 -75.604492 50.999996
v -7.828427 -76.471581 50.999996
v -8.695518 -77.769272 50.999996
v -9.000000 -79.300003 50.999996
v -8.695518 -80.830742 50.999996
v -7.828427 -82.128433 50.999996
v -6.530734 -82.995522 50.999996
v -5.000000 -83.300003 50.999996
v -3.469266 -82.995522 50.999996
v -2.171573 -82.128433 50.999996
v 0.300000 -85.300003 -51.000004
v -10.300000 -85.300003 -51.000004
v 0.300000 -74.699997 -51.000004
v 0.300000 -85.300003 50.999996
v 0.300000 -74.699997 50.999996
v -10.300000 -74.699997 -51.000004
v -10.300000 -85.300003 50.999996
v -10.300000 -74.699997 50.999996
v 38.700001 -85.300003 -51.000004
v 49.299999 -85.300003 -51.000004
v 38.700001 -74.699997 -51.000004
v 49.299999 -74.699997 -51.000004
v 49.299999 -85.300003 50.999996
v 49.299999 -74.699997 50.999996
v 38.700001 -85.300003 50.999996
v 38.700001 -74.699997 50.999996
v 55.000000 -74.699997 41.749996
v 55.000000 -74.699997 -41.750004
v 55.000000 -77.769272 -32.804485
v 55.000000 -79.300003 -32.500004
v 55.000000 -80.830742 -32.804485
v 55.000000 -82.128433 -33.671574
v 55.000000 -82.995522 -34.969265
v 55.000000 -83.300003 -36.500004
v 55.000000 -82.995522 -38.030735
v 55.000000 -82.128433 -39.328434
v 55.000000 -80.830742 -40.195522
v 55.000000 -79.300003 -40.500004
v 55.000000 -77.769272 -40.195522
v 55.000000 -76.471581 -39.328434
v 55.000000 -75.604492 -38.030735
v 55.000000 -75.300011 -36.500004
v 55.000000 -75.604492 -34.969265
v 55.000000 -76.471581 -33.671574
v 55.000000 -77.769272 40.195515
v 55.000000 -79.300003 40.499996
v 55.000000 -80.830742 40.195515
v 55.000000 -82.128433 39.328426
v 55.000000 -82.995522 38.030727
v 55.000000 -83.300003 36.499996
v 55.000000 -82.995522 34.969257
v 55.000000 -82.128433 33.671566
v 55.000000 -80.830742 32.804478
v 55.000000 -79.300003 32.499996
v 55.000000 -77.769272 32.804478
v 55.000000 -76.471581 33.671566
v 55.000000 -75.604492 34.969257
v 55.000000 -75.300011 36.499996
v 55.000000 -75.604492 38.030727
v 55.000000 -76.471581 39.328426
v 55.000000 -85.300003 -31.150003
v 55.000000 -77.500000 -31.150003
v 55.000000 -85.300003 -41.750004
v 55.000000 -77.500000 31.149996
v 55.000000 -85.300003 31.149996
v 55.000000 -85.300003 41.749996
vn -0.0000 -0.0000 -1.0000
vn -0.0000 -0.0000 1.0000
vn 1.0000 -0.0000 -0.0000
s 0
f 1//1 67//1 2//1
f 2//1 67//1 65//1
f 2//1 65//1 3//1
f 3//1 65//1 4//1
f 4//1 65//1 5//1
f 5//1 65//1 6//1
f 6//1 65//1 66//1
f 6//1 66//1 7//1
f 7//1 66//1 8//1
f 8//1 66//1 9//1
f 9//1 66//1 10//1
f 10//1 66//1 70//1
f 10//1 70//1 11//1
f 11//1 70//1 12//1
f 12//1 70//1 13//1
f 13//1 70//1 14//1
f 14//1 70//1 67//1
f 14//1 67//1 15//1
f 15//1 67//1 16//1
f 16//1 67//1 1//1
f 49//2 68//2 50//2
f 50//2 68//2 69//2
f 50//2 69//2 51//2
f 51//2 69//2 52//2
f 52//2 69//2 53//2
f 53//2 69//2 54//2
f 54//2 69//2 72//2
f 54//2 72//2 55//2
f 55//2 72//2 56//2
f 56//2 72//2 57//2
f 57//2 72//2 58//2
f 58//2 72//2 71//2
f 58//2 71//2 59//2
f 59//2 71//2 60//2
f 60//2 71//2 61//2
f 61//2 71//2 62//2
f 62//2 71//2 68//2
f 62//2 68//2 63//2
f 63//2 68//2 64//2
f 64//2 68//2 49//2
f 17//1 76//1 18//1
f 18//1 76//1 74//1
f 18//1 74//1 19//1
f 19//1 74//1 20//1
f 20//1 74//1 21//1
f 21//1 74//1 22//1
f 22//1 74//1 73//1
f 22//1 73//1 23//1
f 23//1 73//1 24//1
f 24//1 73//1 25//1
f 25//1 73//1 26//1
f 26//1 73//1 75//1
f 26//1 75//1 27//1
f 27//1 75//1 28//1
f 28//1 75//1 29//1
f 29//1 75//1 30//1
f 30//1 75//1 76//1
f 30//1 76//1 31//1
f 31//1 76//1 32//1
f 32//1 76//1 17//1
f 33//2 77//2 34//2
f 34//2 77//2 78//2
f 34//2 78//2 35//2
f 35//2 78//2 36//2
f 36//2 78//2 37//2
f 37//2 78//2 38//2
f 38//2 78//2 80//2
f 38//2 80//2 39//2
f 39//2 80//2 40//2
f 40//2 80//2 41//2
f 41//2 80//2 42//2
f 42//2 80//2 79//2
f 42//2 79//2 43//2
f 43//2 79//2 44//2
f 44//2 79//2 45//2
f 45//2 79//2 46//2
f 46//2 79//2 77//2
f 46//2 77//2 47//2
f 47//2 77//2 48//2
f 48//2 77//2 33//2
f 85//3 84//3 116//3
f 116//3 84//3 83//3
f 116//3 83//3 98//3
f 116//3 98//3 118//3
f 118//3 98//3 97//3
f 118//3 97//3 110//3
f 110//3 97//3 111//3
f 111//3 97//3 96//3
f 111//3 96//3 112//3
f 112//3 96//3 82//3
f 112//3 82//3 81//3
f 96//3 95//3 82//3
f 82//3 95//3 94//3
f 82//3 94//3 93//3
f 93//3 92//3 82//3
f 82//3 92//3 117//3
f 117//3 92//3 91//3
f 117//3 91//3 90//3
f 90//3 89//3 117//3
f 117//3 89//3 88//3
f 117//3 88//3 115//3
f 115//3 88//3 87//3
f 115//3 87//3 86//3
f 86//3 85//3 115//3
f 115//3 85//3 116//3
f 99//3 81//3 100//3
f 100//3 81//3 120//3
f 100//3 120//3 101//3
f 101//3 120//3 102//3
f 102//3 120//3 103//3
f 103//3 120//3 104//3
f 104//3 120//3 119//3
f 104//3 119//3 105//3
f 105//3 119//3 106//3
f 106//3 119//3 107//3
f 107//3 119//3 118//3
f 107//3 118//3 108//3
f 108//3 118//3 109//3
f 109//3 118//3 110//3
f 99//3 114//3 81//3
f 81//3 114//3 113//3
f 81//3 113//3 112//3
