# Blender 4.0.2
# www.blender.org
o SICK-S300__m6
v -47.086449 -70.837929 -16.000004
v -47.086449 -70.837929 15.999997
v -47.502689 -44.341190 -15.000002
v -47.502689 -44.341190 14.999998
v -47.535069 -42.279671 11.575829
v -47.558781 -40.770870 7.874641
v -47.573231 -39.850910 3.985002
v -47.578091 -39.541790 -0.000002
v -47.573231 -39.850910 -3.985006
v -47.558781 -40.770870 -7.874645
v -47.535069 -42.279671 -11.575832
v -3.261129 -80.417511 -43.500004
v -5.000000 -79.300003 -42.258022
v -2.933000 -79.300003 -43.500004
v -5.294165 -81.345970 -43.500004
v -4.141337 -81.180206 -43.500004
v -6.983272 -79.882339 -43.500004
v -6.353597 -80.862129 -43.500004
v -6.353597 -77.737862 -43.500004
v -6.983272 -78.717659 -43.500004
v -4.141337 -77.419792 -43.500004
v -5.294165 -77.254044 -43.500004
v -3.261129 -78.182503 -43.500004
v -1.304482 -77.769272 -51.000004
v -1.000000 -79.300003 -51.000004
v -2.933000 -79.300003 -49.067005
v -1.304482 -80.830742 -51.000004
v -3.261129 -80.417511 -49.067005
v -2.171573 -82.128433 -51.000004
v -4.141337 -81.180206 -49.067005
v -3.469266 -82.995522 -51.000004
v -5.000000 -83.300003 -51.000004
v -5.294165 -81.345970 -49.067005
v -6.530734 -82.995522 -51.000004
v -6.353597 -80.862129 -49.067005
v -7.828427 -82.128433 -51.000004
v -8.695518 -80.830742 -51.000004
v -6.983272 -79.882339 -49.067005
v -9.000000 -79.300003 -51.000004
v -6.983272 -78.717659 -49.067005
v -8.695518 -77.769272 -51.000004
v -6.353597 -77.737862 -49.067005
v -7.828427 -76.471581 -51.000004
v -6.530734 -75.604492 -51.000004
v -5.294165 -77.254044 -49.067005
v -5.000000 -75.300011 -51.000004
v -4.141337 -77.419792 -49.067005
v -3.469266 -75.604492 -51.000004
v -2.171573 -76.471581 -51.000004
v -3.261129 -78.182503 -49.067005
v 45.738869 -80.417511 -43.500004
v 44.000000 -79.300003 -42.258022
v 46.067001 -79.300003 -43.500004
v 43.705830 -81.345970 -43.500004
v 44.858662 -81.180206 -43.500004
v 42.016731 -79.882339 -43.500004
v 42.646400 -80.862129 -43.500004
v 42.646400 -77.737862 -43.500004
v 42.016731 -78.717659 -43.500004
v 44.858662 -77.419792 -43.500004
v 43.705830 -77.254044 -43.500004
v 45.738869 -78.182503 -43.500004
v 47.695518 -77.769272 -51.000004
v 48.000000 -79.300003 -51.000004
v 46.067001 -79.300003 -49.067005
v 47.695518 -80.830742 -51.000004
v 45.738869 -80.417511 -49.067005
v 46.828430 -82.128433 -51.000004
v 44.858662 -81.180206 -49.067005
v 45.530731 -82.995522 -51.000004
v 44.000000 -83.300003 -51.000004
v 43.705830 -81.345970 -49.067005
v 42.469269 -82.995522 -51.000004
v 42.646400 -80.862129 -49.067005
v 41.171570 -82.128433 -51.000004
v 40.304482 -80.830742 -51.000004
v 42.016731 -79.882339 -49.067005
v 40.000000 -79.300003 -51.000004
v 42.016731 -78.717659 -49.067005
v 40.304482 -77.769272 -51.000004
v 42.646400 -77.737862 -49.067005
v 41.171570 -76.471581 -51.000004
v 42.469269 -75.604492 -51.000004
v 43.705830 -77.254044 -49.067005
v 44.000000 -75.300011 -51.000004
v 44.858662 -77.419792 -49.067005
v 45.530731 -75.604492 -51.000004
v 46.828430 -76.471581 -51.000004
v 45.738869 -78.182503 -49.067005
v 45.738869 -78.182503 43.499996
v 44.000000 -79.300003 42.258015
v 46.067001 -79.300003 43.499996
v 43.705830 -77.254044 43.499996
v 44.858662 -77.419792 43.499996
v 42.016731 -78.717659 43.499996
v 42.646400 -77.737862 43.499996
v 42.646400 -80.862129 43.499996
v 42.016731 -79.882339 43.499996
v 44.858662 -81.180206 43.499996
v 43.705830 -81.345970 43.499996
v 45.738869 -80.417511 43.499996
v 47.695518 -80.830742 50.999996
v 48.000000 -79.300003 50.999996
v 46.067001 -79.300003 49.066998
v 47.695518 -77.769272 50.999996
v 45.738869 -78.182503 49.066998
v 46.828430 -76.471581 50.999996
v 44.858662 -77.419792 49.066998
v 45.530731 -75.604492 50.999996
v 44.000000 -75.300011 50.999996
v 43.705830 -77.254044 49.066998
v 42.469269 -75.604492 50.999996
v 42.646400 -77.737862 49.066998
v 41.171570 -76.471581 50.999996
v 40.304482 -77.769272 50.999996
v 42.016731 -78.717659 49.066998
v 40.000000 -79.300003 50.999996
v 42.016731 -79.882339 49.066998
v 40.304482 -80.830742 50.999996
v 42.646400 -80.862129 49.066998
v 41.171570 -82.128433 50.999996
v 42.469269 -82.995522 50.999996
v 43.705830 -81.345970 49.066998
v 44.000000 -83.300003 50.999996
v 44.858662 -81.180206 49.066998
v 45.530731 -82.995522 50.999996
v 46.828430 -82.128433 50.999996
v 45.738869 -80.417511 49.066998
v -3.261129 -78.182503 43.499996
v -5.000000 -79.300003 42.258015
v -2.933000 -79.300003 43.499996
v -5.294165 -77.254044 43.499996
v -4.141337 -77.419792 43.499996
v -6.983272 -78.717659 43.499996
v -6.353597 -77.737862 43.499996
v -6.353597 -80.862129 43.499996
v -6.983272 -79.882339 43.499996
v -4.141337 -81.180206 43.499996
v -5.294165 -81.345970 43.499996
v -3.261129 -80.417511 43.499996
v -1.304482 -80.830742 50.999996
v -1.000000 -79.300003 50.999996
v -2.933000 -79.300003 49.066998
v -1.304482 -77.769272 50.999996
v -3.261129 -78.182503 49.066998
v -2.171573 -76.471581 50.999996
v -4.141337 -77.419792 49.066998
v -3.469266 -75.604492 50.999996
v -5.000000 -75.300011 50.999996
v -5.294165 -77.254044 49.066998
v -6.530734 -75.604492 50.999996
v -6.353597 -77.737862 49.066998
v -7.828427 -76.471581 50.999996
v -8.695518 -77.769272 50.999996
v -6.983272 -78.717659 49.066998
v -9.000000 -79.300003 50.999996
v -6.983272 -79.882339 49.066998
v -8.695518 -80.830742 50.999996
v -6.353597 -80.862129 49.066998
v -7.828427 -82.128433 50.999996
v -6.530734 -82.995522 50.999996
v -5.294165 -81.345970 49.066998
v -5.000000 -83.300003 50.999996
v -4.141337 -81.180206 49.066998
v -3.469266 -82.995522 50.999996
v -2.171573 -82.128433 50.999996
v -3.261129 -80.417511 49.066998
v 49.299999 -78.182503 34.761127
v 49.299999 -78.717659 38.483265
v 49.299999 -79.300003 34.432995
v 49.299999 -79.882339 38.483265
v 49.299999 -80.417511 34.761127
v 49.299999 -80.862129 37.853584
v 49.299999 -81.180206 35.641327
v 49.299999 -81.345970 36.794155
v 49.299999 -77.737862 37.853584
v 49.299999 -77.419792 35.641327
v 49.299999 -77.254044 36.794155
v 49.299999 -78.182503 -38.238873
v 49.299999 -78.717659 -34.516735
v 49.299999 -79.300003 -38.567005
v 49.299999 -79.882339 -34.516735
v 49.299999 -80.417511 -38.238873
v 49.299999 -80.862129 -35.146404
v 49.299999 -81.180206 -37.358665
v 49.299999 -81.345970 -36.205833
v 49.299999 -77.737862 -35.146404
v 49.299999 -77.419792 -37.358665
v 49.299999 -77.254044 -36.205833
v 55.000000 -77.769272 -32.804485
v 55.000000 -79.300003 -32.500004
v 53.067001 -79.300003 -34.433002
v 55.000000 -80.830742 -32.804485
v 53.067001 -80.417511 -34.761135
v 55.000000 -82.128433 -33.671574
v 53.067001 -81.180206 -35.641335
v 55.000000 -82.995522 -34.969265
v 55.000000 -83.300003 -36.500004
v 53.067001 -81.345970 -36.794163
v 55.000000 -82.995522 -38.030735
v 53.067001 -80.862129 -37.853592
v 55.000000 -82.128433 -39.328434
v 55.000000 -80.830742 -40.195522
v 53.067001 -79.882339 -38.483273
v 55.000000 -79.300003 -40.500004
v 53.067001 -78.717659 -38.483273
v 55.000000 -77.769272 -40.195522
v 53.067001 -77.737862 -37.853592
v 55.000000 -76.471581 -39.328434
v 55.000000 -75.604492 -38.030735
v 53.067001 -77.254044 -36.794163
v 55.000000 -75.300011 -36.500004
v 53.067001 -77.419792 -35.641335
v 55.000000 -75.604492 -34.969265
v 55.000000 -76.471581 -33.671574
v 53.067001 -78.182503 -34.761135
v 55.000000 -77.769272 40.195515
v 55.000000 -79.300003 40.499996
v 53.067001 -79.300003 38.566998
v 55.000000 -80.830742 40.195515
v 53.067001 -80.417511 38.238865
v 55.000000 -82.128433 39.328426
v 53.067001 -81.180206 37.358658
v 55.000000 -82.995522 38.030727
v 55.000000 -83.300003 36.499996
v 53.067001 -81.345970 36.205826
v 55.000000 -82.995522 34.969257
v 53.067001 -80.862129 35.146397
v 55.000000 -82.128433 33.671566
v 55.000000 -80.830742 32.804478
v 53.067001 -79.882339 34.516727
v 55.000000 -79.300003 32.499996
v 53.067001 -78.717659 34.516727
v 55.000000 -77.769272 32.804478
v 53.067001 -77.737862 35.146397
v 55.000000 -76.471581 33.671566
v 55.000000 -75.604492 34.969257
v 53.067001 -77.254044 36.205826
v 55.000000 -75.300011 36.499996
v 53.067001 -77.419792 37.358658
v 55.000000 -75.604492 38.030727
v 55.000000 -76.471581 39.328426
v 53.067001 -78.182503 38.238865
v 1.437367 -27.232250 -19.000002
v 1.437367 -72.260788 -19.000004
v 1.437367 -27.232250 18.999998
v 1.437367 -72.260788 18.999996
v 1.524339 -72.260788 -19.000004
v 1.524339 -72.260788 18.999996
v 1.524339 -90.745773 -19.000004
v -43.998791 -90.745773 -19.000004
v 1.524339 -90.745773 18.999996
v -43.998791 -90.745773 18.999996
v -43.998791 -8.747272 19.000000
v 1.524339 -8.747272 19.000000
v 1.524339 -27.232250 18.999998
v 1.524339 -8.747271 -19.000000
v 1.524339 -27.232250 -19.000002
v -43.998791 -8.747271 -19.000000
vn -0.9999 -0.0157 -0.0000
vn -0.5092 0.1495 -0.8475
vn -0.0755 0.5253 -0.8475
vn 0.4465 0.2869 -0.8475
vn 0.4465 -0.2869 -0.8475
vn -0.0755 -0.5253 -0.8475
vn -0.3476 -0.4011 -0.8475
vn 0.5307 -0.0000 -0.8475
vn 0.2205 0.4828 -0.8475
vn -0.3476 0.4011 -0.8475
vn -0.5093 -0.1495 -0.8475
vn 0.2205 -0.4828 -0.8475
vn -0.7002 -0.1393 -0.7002
vn -0.7002 0.1393 -0.7002
vn -0.6679 0.1961 -0.7180
vn -0.5997 0.4007 -0.6927
vn -0.4543 0.5243 -0.7202
vn -0.3980 0.5956 -0.6977
vn -0.1387 0.6974 -0.7032
vn -0.0995 0.6922 -0.7148
vn 0.1406 0.7069 -0.6932
vn 0.2876 0.6298 -0.7215
vn 0.3991 0.5972 -0.6957
vn 0.5884 0.3932 -0.7065
vn 0.5918 0.3803 -0.7108
vn 0.7059 0.1404 -0.6942
vn 0.6920 -0.0000 -0.7219
vn 0.7059 -0.1404 -0.6942
vn 0.5918 -0.3803 -0.7108
vn 0.5884 -0.3932 -0.7065
vn 0.3991 -0.5973 -0.6957
vn 0.2876 -0.6298 -0.7215
vn 0.1406 -0.7069 -0.6932
vn -0.0995 -0.6922 -0.7148
vn -0.1387 -0.6974 -0.7031
vn -0.3980 -0.5956 -0.6977
vn -0.4543 -0.5243 -0.7202
vn -0.5997 -0.4007 -0.6927
vn -0.6679 -0.1961 -0.7180
vn -0.9595 0.2817 -0.0000
vn -0.9595 -0.2817 -0.0000
vn -0.6549 -0.7557 -0.0000
vn -0.1423 -0.9898 -0.0000
vn 0.4154 -0.9096 -0.0000
vn 0.8413 -0.5406 -0.0000
vn 1.0000 -0.0000 -0.0000
vn 0.8413 0.5406 -0.0000
vn 0.4154 0.9096 -0.0000
vn -0.1423 0.9898 -0.0000
vn -0.6549 0.7558 -0.0000
vn 0.5308 -0.0000 -0.8475
vn 0.2877 0.6298 -0.7215
vn -0.5093 -0.1495 0.8475
vn -0.0755 -0.5253 0.8475
vn 0.4465 -0.2869 0.8475
vn 0.4465 0.2869 0.8475
vn -0.0755 0.5253 0.8475
vn -0.3476 0.4011 0.8475
vn 0.5308 -0.0000 0.8475
vn 0.2205 -0.4828 0.8475
vn -0.3476 -0.4011 0.8475
vn -0.5092 0.1495 0.8475
vn 0.2205 0.4828 0.8475
vn -0.7002 0.1393 0.7002
vn -0.7002 -0.1393 0.7002
vn -0.6679 -0.1961 0.7180
vn -0.5997 -0.4007 0.6927
vn -0.4543 -0.5243 0.7202
vn -0.3980 -0.5956 0.6977
vn -0.1387 -0.6974 0.7031
vn -0.0995 -0.6922 0.7148
vn 0.1406 -0.7069 0.6932
vn 0.2876 -0.6298 0.7215
vn 0.3991 -0.5973 0.6957
vn 0.5884 -0.3932 0.7065
vn 0.5918 -0.3803 0.7108
vn 0.7059 -0.1404 0.6942
vn 0.6920 -0.0000 0.7219
vn 0.7059 0.1404 0.6942
vn 0.5918 0.3803 0.7108
vn 0.5884 0.3932 0.7065
vn 0.3991 0.5972 0.6957
vn 0.2877 0.6298 0.7215
vn 0.1406 0.7069 0.6932
vn -0.0995 0.6922 0.7148
vn -0.1387 0.6974 0.7032
vn -0.3980 0.5956 0.6977
vn -0.4543 0.5243 0.7202
vn -0.5997 0.4007 0.6927
vn -0.6679 0.1961 0.7180
vn 0.5307 -0.0000 0.8475
vn 0.2876 0.6298 0.7215
vn 0.7002 -0.1393 -0.7002
vn 0.7002 0.1393 -0.7002
vn 0.7180 0.1961 -0.6679
vn 0.6927 0.4007 -0.5997
vn 0.7202 0.5243 -0.4543
vn 0.6977 0.5956 -0.3980
vn 0.7032 0.6974 -0.1387
vn 0.7148 0.6922 -0.0995
vn 0.6932 0.7069 0.1406
vn 0.7215 0.6298 0.2876
vn 0.6957 0.5972 0.3991
vn 0.7065 0.3932 0.5884
vn 0.7108 0.3803 0.5918
vn 0.6942 0.1404 0.7059
vn 0.7219 -0.0000 0.6920
vn 0.6942 -0.1404 0.7059
vn 0.7108 -0.3803 0.5918
vn 0.7065 -0.3932 0.5884
vn 0.6957 -0.5972 0.3991
vn 0.7215 -0.6298 0.2876
vn 0.6932 -0.7069 0.1406
vn 0.7148 -0.6922 -0.0995
vn 0.7032 -0.6974 -0.1387
vn 0.6977 -0.5956 -0.3980
vn 0.7202 -0.5243 -0.4543
vn 0.6927 -0.4007 -0.5997
vn 0.7180 -0.1961 -0.6679
vn 0.0222 0.2817 0.9593
vn -0.0222 -0.0000 0.9998
vn 0.0222 -0.2817 0.9593
vn -0.0222 -0.5405 0.8410
vn 0.0222 -0.7556 0.6547
vn -0.0222 -0.9094 0.4153
vn 0.0222 -0.9896 0.1423
vn -0.0222 -0.9896 -0.1423
vn 0.0222 -0.9094 -0.4153
vn -0.0222 -0.7556 -0.6547
vn 0.0222 -0.5405 -0.8410
vn -0.0222 -0.2817 -0.9593
vn 0.0222 -0.0000 -0.9998
vn -0.0222 0.2817 -0.9593
vn 0.0222 0.5405 -0.8410
vn -0.0222 0.7556 -0.6547
vn 0.0222 0.9094 -0.4153
vn -0.0222 0.9896 -0.1423
vn 0.0222 0.9896 0.1423
vn -0.0222 0.9094 0.4153
vn 0.0222 0.7556 0.6547
vn -0.0222 0.5405 0.8410
vn 0.7215 -0.6299 0.2876
vn 0.7031 -0.6974 -0.1387
vn -1.0000 -0.0000 -0.0000
vn -0.0000 -1.0000 -0.0000
vn -0.0000 1.0000 -0.0000
vn -0.0000 -0.0000 -1.0000
vn -0.0000 -0.0000 1.0000
s 0
f 4//1 5//1 2//1
f 2//1 5//1 6//1
f 2//1 6//1 7//1
f 7//1 8//1 2//1
f 2//1 8//1 1//1
f 1//1 8//1 9//1
f 1//1 9//1 10//1
f 10//1 11//1 1//1
f 1//1 11//1 3//1
f 12//2 13//2 14//2
f 15//3 13//3 16//3
f 17//4 13//4 18//4
f 19//5 13//5 20//5
f 21//6 13//6 22//6
f 23//7 13//7 21//7
f 20//8 13//8 17//8
f 18//9 13//9 15//9
f 16//10 13//10 12//10
f 14//11 13//11 23//11
f 22//12 13//12 19//12
f 24//13 25//13 26//13
f 26//14 25//14 27//14
f 26//15 27//15 28//15
f 28//16 27//16 29//16
f 28//17 29//17 30//17
f 30//18 29//18 31//18
f 30//19 31//19 32//19
f 30//20 32//20 33//20
f 33//21 32//21 34//21
f 33//22 34//22 35//22
f 35//23 34//23 36//23
f 35//24 36//24 37//24
f 35//25 37//25 38//25
f 38//26 37//26 39//26
f 38//27 39//27 40//27
f 40//28 39//28 41//28
f 40//29 41//29 42//29
f 42//30 41//30 43//30
f 42//31 43//31 44//31
f 42//32 44//32 45//32
f 45//33 44//33 46//33
f 45//34 46//34 47//34
f 47//35 46//35 48//35
f 47//36 48//36 49//36
f 47//37 49//37 50//37
f 50//38 49//38 24//38
f 50//39 24//39 26//39
f 28//40 14//40 26//40
f 26//41 14//41 23//41
f 26//41 23//41 50//41
f 50//42 23//42 21//42
f 50//42 21//42 47//42
f 47//43 21//43 22//43
f 47//43 22//43 45//43
f 45//44 22//44 19//44
f 45//44 19//44 42//44
f 42//45 19//45 20//45
f 42//45 20//45 40//45
f 40//46 20//46 17//46
f 40//46 17//46 38//46
f 38//47 17//47 18//47
f 38//47 18//47 35//47
f 35//48 18//48 15//48
f 35//48 15//48 33//48
f 33//49 15//49 16//49
f 33//49 16//49 30//49
f 30//50 16//50 12//50
f 30//50 12//50 28//50
f 28//40 12//40 14//40
f 51//2 52//2 53//2
f 54//3 52//3 55//3
f 56//4 52//4 57//4
f 58//5 52//5 59//5
f 60//6 52//6 61//6
f 62//7 52//7 60//7
f 59//51 52//51 56//51
f 57//9 52//9 54//9
f 55//10 52//10 51//10
f 53//11 52//11 62//11
f 61//12 52//12 58//12
f 63//13 64//13 65//13
f 65//14 64//14 66//14
f 65//15 66//15 67//15
f 67//16 66//16 68//16
f 67//17 68//17 69//17
f 69//18 68//18 70//18
f 69//19 70//19 71//19
f 69//20 71//20 72//20
f 72//21 71//21 73//21
f 72//52 73//52 74//52
f 74//23 73//23 75//23
f 74//24 75//24 76//24
f 74//25 76//25 77//25
f 77//26 76//26 78//26
f 77//27 78//27 79//27
f 79//28 78//28 80//28
f 79//29 80//29 81//29
f 81//30 80//30 82//30
f 81//31 82//31 83//31
f 81//32 83//32 84//32
f 84//33 83//33 85//33
f 84//34 85//34 86//34
f 86//35 85//35 87//35
f 86//36 87//36 88//36
f 86//37 88//37 89//37
f 89//38 88//38 63//38
f 89//39 63//39 65//39
f 67//40 53//40 65//40
f 65//41 53//41 62//41
f 65//41 62//41 89//41
f 89//42 62//42 60//42
f 89//42 60//42 86//42
f 86//43 60//43 61//43
f 86//43 61//43 84//43
f 84//44 61//44 58//44
f 84//44 58//44 81//44
f 81//45 58//45 59//45
f 81//45 59//45 79//45
f 79//46 59//46 56//46
f 79//46 56//46 77//46
f 77//47 56//47 57//47
f 77//47 57//47 74//47
f 74//48 57//48 54//48
f 74//48 54//48 72//48
f 72//49 54//49 55//49
f 72//49 55//49 69//49
f 69//50 55//50 51//50
f 69//50 51//50 67//50
f 67//40 51//40 53//40
f 90//53 91//53 92//53
f 93//54 91//54 94//54
f 95//55 91//55 96//55
f 97//56 91//56 98//56
f 99//57 91//57 100//57
f 101//58 91//58 99//58
f 98//59 91//59 95//59
f 96//60 91//60 93//60
f 94//61 91//61 90//61
f 92//62 91//62 101//62
f 100//63 91//63 97//63
f 102//64 103//64 104//64
f 104//65 103//65 105//65
f 104//66 105//66 106//66
f 106//67 105//67 107//67
f 106//68 107//68 108//68
f 108//69 107//69 109//69
f 108//70 109//70 110//70
f 108//71 110//71 111//71
f 111//72 110//72 112//72
f 111//73 112//73 113//73
f 113//74 112//74 114//74
f 113//75 114//75 115//75
f 113//76 115//76 116//76
f 116//77 115//77 117//77
f 116//78 117//78 118//78
f 118//79 117//79 119//79
f 118//80 119//80 120//80
f 120//81 119//81 121//81
f 120//82 121//82 122//82
f 120//83 122//83 123//83
f 123//84 122//84 124//84
f 123//85 124//85 125//85
f 125//86 124//86 126//86
f 125//87 126//87 127//87
f 125//88 127//88 128//88
f 128//89 127//89 102//89
f 128//90 102//90 104//90
f 106//41 92//41 104//41
f 104//40 92//40 101//40
f 104//40 101//40 128//40
f 128//50 101//50 99//50
f 128//50 99//50 125//50
f 125//49 99//49 100//49
f 125//49 100//49 123//49
f 123//48 100//48 97//48
f 123//48 97//48 120//48
f 120//47 97//47 98//47
f 120//47 98//47 118//47
f 118//46 98//46 95//46
f 118//46 95//46 116//46
f 116//45 95//45 96//45
f 116//45 96//45 113//45
f 113//44 96//44 93//44
f 113//44 93//44 111//44
f 111//43 93//43 94//43
f 111//43 94//43 108//43
f 108//42 94//42 90//42
f 108//42 90//42 106//42
f 106//41 90//41 92//41
f 129//53 130//53 131//53
f 132//54 130//54 133//54
f 134//55 130//55 135//55
f 136//56 130//56 137//56
f 138//57 130//57 139//57
f 140//58 130//58 138//58
f 137//91 130//91 134//91
f 135//60 130//60 132//60
f 133//61 130//61 129//61
f 131//62 130//62 140//62
f 139//63 130//63 136//63
f 141//64 142//64 143//64
f 143//65 142//65 144//65
f 143//66 144//66 145//66
f 145//67 144//67 146//67
f 145//68 146//68 147//68
f 147//69 146//69 148//69
f 147//70 148//70 149//70
f 147//71 149//71 150//71
f 150//72 149//72 151//72
f 150//73 151//73 152//73
f 152//74 151//74 153//74
f 152//75 153//75 154//75
f 152//76 154//76 155//76
f 155//77 154//77 156//77
f 155//78 156//78 157//78
f 157//79 156//79 158//79
f 157//80 158//80 159//80
f 159//81 158//81 160//81
f 159//82 160//82 161//82
f 159//92 161//92 162//92
f 162//84 161//84 163//84
f 162//85 163//85 164//85
f 164//86 163//86 165//86
f 164//87 165//87 166//87
f 164//88 166//88 167//88
f 167//89 166//89 141//89
f 167//90 141//90 143//90
f 145//41 131//41 143//41
f 143//40 131//40 140//40
f 143//40 140//40 167//40
f 167//50 140//50 138//50
f 167//50 138//50 164//50
f 164//49 138//49 139//49
f 164//49 139//49 162//49
f 162//48 139//48 136//48
f 162//48 136//48 159//48
f 159//47 136//47 137//47
f 159//47 137//47 157//47
f 157//46 137//46 134//46
f 157//46 134//46 155//46
f 155//45 134//45 135//45
f 155//45 135//45 152//45
f 152//44 135//44 132//44
f 152//44 132//44 150//44
f 150//43 132//43 133//43
f 150//43 133//43 147//43
f 147//42 133//42 129//42
f 147//42 129//42 145//42
f 145//41 129//41 131//41
f 190//93 191//93 192//93
f 192//94 191//94 193//94
f 192//95 193//95 194//95
f 194//96 193//96 195//96
f 194//97 195//97 196//97
f 196//98 195//98 197//98
f 196//99 197//99 198//99
f 196//100 198//100 199//100
f 199//101 198//101 200//101
f 199//102 200//102 201//102
f 201//103 200//103 202//103
f 201//104 202//104 203//104
f 201//105 203//105 204//105
f 204//106 203//106 205//106
f 204//107 205//107 206//107
f 206//108 205//108 207//108
f 206//109 207//109 208//109
f 208//110 207//110 209//110
f 208//111 209//111 210//111
f 208//112 210//112 211//112
f 211//113 210//113 212//113
f 211//114 212//114 213//114
f 213//115 212//115 214//115
f 213//116 214//116 215//116
f 213//117 215//117 216//117
f 216//118 215//118 190//118
f 216//119 190//119 192//119
f 183//120 204//120 181//120
f 181//121 204//121 206//121
f 181//122 206//122 179//122
f 179//123 206//123 208//123
f 179//124 208//124 188//124
f 188//125 208//125 211//125
f 188//126 211//126 189//126
f 189//127 211//127 213//127
f 189//128 213//128 187//128
f 187//129 213//129 216//129
f 187//130 216//130 180//130
f 180//131 216//131 192//131
f 180//132 192//132 182//132
f 182//133 192//133 194//133
f 182//134 194//134 184//134
f 184//135 194//135 196//135
f 184//136 196//136 186//136
f 186//137 196//137 199//137
f 186//138 199//138 185//138
f 185//139 199//139 201//139
f 185//140 201//140 183//140
f 183//141 201//141 204//141
f 217//93 218//93 219//93
f 219//94 218//94 220//94
f 219//95 220//95 221//95
f 221//96 220//96 222//96
f 221//97 222//97 223//97
f 223//98 222//98 224//98
f 223//99 224//99 225//99
f 223//100 225//100 226//100
f 226//101 225//101 227//101
f 226//102 227//102 228//102
f 228//103 227//103 229//103
f 228//104 229//104 230//104
f 228//105 230//105 231//105
f 231//106 230//106 232//106
f 231//107 232//107 233//107
f 233//108 232//108 234//108
f 233//109 234//109 235//109
f 235//110 234//110 236//110
f 235//111 236//111 237//111
f 235//142 237//142 238//142
f 238//113 237//113 239//113
f 238//114 239//114 240//114
f 240//143 239//143 241//143
f 240//116 241//116 242//116
f 240//117 242//117 243//117
f 243//118 242//118 217//118
f 243//119 217//119 219//119
f 172//120 231//120 170//120
f 170//121 231//121 233//121
f 170//122 233//122 168//122
f 168//123 233//123 235//123
f 168//124 235//124 177//124
f 177//125 235//125 238//125
f 177//126 238//126 178//126
f 178//127 238//127 240//127
f 178//128 240//128 176//128
f 176//129 240//129 243//129
f 176//130 243//130 169//130
f 169//131 243//131 219//131
f 169//132 219//132 171//132
f 171//133 219//133 221//133
f 171//134 221//134 173//134
f 173//135 221//135 223//135
f 173//136 223//136 175//136
f 175//137 223//137 226//137
f 175//138 226//138 174//138
f 174//139 226//139 228//139
f 174//140 228//140 172//140
f 172//141 228//141 231//141
f 244//144 245//144 246//144
f 246//144 245//144 247//144
f 245//145 248//145 247//145
f 247//145 248//145 249//145
f 250//146 251//146 252//146
f 252//146 251//146 253//146
f 248//144 250//144 249//144
f 249//144 250//144 252//144
f 252//147 253//147 247//147
f 247//147 253//147 254//147
f 247//147 254//147 246//147
f 246//147 254//147 255//147
f 246//147 255//147 256//147
f 247//147 249//147 252//147
f 257//144 258//144 255//144
f 255//144 258//144 256//144
f 259//145 257//145 254//145
f 254//145 257//145 255//145
f 251//46 259//46 253//46
f 253//46 259//46 254//46
f 246//146 256//146 244//146
f 244//146 256//146 258//146
f 258//148 257//148 244//148
f 244//148 257//148 259//148
f 244//148 259//148 251//148
f 244//148 251//148 245//148
f 245//148 251//148 250//148
f 245//148 250//148 248//148
