# Blender 4.0.2
# www.blender.org
o SICK-S300__m5
v -47.146191 -70.838860 -16.000004
v -48.607201 -70.861816 -10.773423
v -47.086449 -70.837929 -16.000004
v -48.607201 -70.861816 10.773417
v -47.086449 -70.837929 15.999997
v -47.146191 -70.838860 15.999997
v -49.490810 -70.875702 5.418882
v -49.490810 -70.875702 -5.418888
v -49.786518 -70.880341 -0.000003
v -47.910061 -44.347591 -15.000002
v -47.502689 -44.341190 -15.000002
v -47.910061 -44.347591 14.999998
v -48.879211 -42.309662 11.592818
v -47.502689 -44.341190 14.999998
v -47.535069 -42.279671 11.575829
v -49.640579 -40.798851 7.858478
v -47.558781 -40.770870 7.874641
v -47.573231 -39.850910 3.985002
v -50.118858 -39.883720 3.937255
v -47.578091 -39.541790 -0.000002
v -50.278160 -39.584202 -0.000002
v -50.118858 -39.883720 -3.937259
v -47.573231 -39.850910 -3.985006
v -49.640579 -40.798851 -7.858482
v -47.558781 -40.770870 -7.874645
v -47.535069 -42.279671 -11.575832
v -48.879211 -42.309662 -11.592822
v 53.719292 -30.599998 -50.659580
v 53.719292 -30.600002 50.659580
v -49.092499 -33.886589 -11.261802
v -47.453140 -33.886589 -16.884941
v -47.104221 -57.461891 -16.760792
v -44.839909 -57.461891 -22.115921
v -46.719460 -73.000000 -17.107754
v -44.402889 -73.000000 -22.444744
v -41.969219 -57.461891 -27.171982
v -41.479130 -73.000000 -27.474813
v -38.530960 -57.461891 -31.860582
v -37.988152 -73.000000 -32.129173
v -34.571640 -57.461891 -36.118324
v -33.977699 -73.000000 -36.344185
v -30.144800 -57.461891 -39.887634
v -29.502621 -73.000000 -40.062195
v -25.310301 -57.461891 -43.117523
v -24.624100 -73.000000 -43.232365
v -20.133520 -57.461887 -45.764324
v -19.408850 -73.000000 -45.811356
v -14.684470 -57.461887 -47.792233
v -13.928190 -73.000000 -47.763885
v -9.036844 -57.461887 -49.173855
v -8.257074 -73.000000 -49.063274
v -3.267004 -57.461887 -49.890465
v -2.473041 -73.000000 -49.691734
v 2.547016 -57.461887 -49.932404
v 3.344809 -73.000000 -49.640663
v 8.326591 -57.461887 -49.299084
v 9.116921 -73.000000 -48.910793
v 9.175176 -21.941498 -49.715752
v 8.388271 -33.886585 -49.664261
v 3.494100 -20.837208 -50.451809
v 2.565882 -33.886585 -50.302261
v -2.233769 -19.723827 -50.540810
v -3.291204 -33.886585 -50.260021
v -7.934971 -18.615627 -49.981609
v -9.103783 -33.886585 -49.538101
v -13.536380 -17.526817 -48.781380
v -14.793250 -33.886585 -48.146252
v -18.966169 -16.471378 -46.955509
v -20.282660 -33.886585 -46.103310
v -24.154690 -15.462828 -44.527431
v -25.497789 -33.886589 -43.436909
v -29.035400 -14.514118 -41.528259
v -30.368090 -33.886589 -40.183090
v -33.545712 -13.637398 -37.996479
v -34.827728 -33.886589 -36.385860
v -37.627750 -12.843928 -33.977390
v -38.816368 -33.886589 -32.096581
v -41.229191 -12.143879 -29.522520
v -42.280102 -33.886589 -27.373251
v -44.303841 -11.546229 -24.689020
v -45.172058 -33.886589 -22.279741
v -46.812260 -11.058649 -19.538870
v -48.722279 -10.687369 -14.138130
v -50.009392 -10.437190 -8.556066
v -50.067970 -33.886589 -5.486360
v -50.366360 -33.886589 0.363275
v -49.983620 -33.886589 6.207995
v -50.657101 -10.311280 2.864267
v -50.657101 -10.311280 -2.864268
v -48.924938 -33.886589 11.968758
v -47.204651 -33.886589 17.567678
v -46.857552 -57.461891 17.438498
v -46.719460 -73.000000 17.107746
v -44.402889 -73.000000 22.444736
v -48.397160 -73.000000 11.536818
v -49.413052 -73.000000 5.808116
v -49.753220 -73.000000 -0.000003
v -49.413052 -73.000000 -5.808123
v -48.397160 -73.000000 -11.536823
v 9.116921 -73.000000 48.910786
v 9.175176 -21.941502 49.715752
v 9.132386 -33.886593 49.532829
v 3.494100 -20.837212 50.451809
v 3.291204 -33.886593 50.260021
v -2.233769 -19.723831 50.540810
v -2.565882 -33.886593 50.302261
v -7.934971 -18.615631 49.981609
v -8.380027 -33.886593 49.665649
v -13.536380 -17.526821 48.781380
v -14.098100 -33.886593 48.354370
v -18.966169 -16.471382 46.955509
v -19.625759 -33.886593 46.386761
v -24.154690 -15.462831 44.527431
v -24.868570 -33.886593 43.800179
v -29.035400 -14.514122 41.528259
v -29.785311 -33.886589 40.616951
v -33.545712 -13.637402 37.996479
v -34.299252 -33.886589 36.884460
v -37.627750 -12.843932 33.977390
v -38.349361 -33.886589 32.653160
v -41.229191 -12.143881 29.522520
v -41.880852 -33.886589 27.980278
v -44.303841 -11.546231 24.689020
v -44.845982 -33.886589 22.929008
v -46.812260 -11.058651 19.538870
v -48.722279 -10.687371 14.138130
v -50.009392 -10.437190 8.556066
v -44.516232 -57.461891 22.760418
v -41.479130 -73.000000 27.474806
v -41.572910 -57.461891 27.774538
v -37.988152 -73.000000 32.129166
v -38.067379 -57.461891 32.413055
v -33.977699 -73.000000 36.344177
v -34.047050 -57.461891 36.613235
v -29.502621 -73.000000 40.062187
v -29.566299 -57.461891 40.318295
v -24.624100 -73.000000 43.232357
v -24.685720 -57.461891 43.478115
v -19.408850 -73.000000 45.811348
v -19.495090 -57.461895 46.039906
v -13.928190 -73.000000 47.763878
v -13.995700 -57.461895 47.998455
v -8.305857 -57.461895 49.302578
v -8.257074 -73.000000 49.063267
v -2.547016 -57.461895 49.932396
v -2.473041 -73.000000 49.691727
v 3.267004 -57.461895 49.890457
v 9.048124 -57.461895 49.171764
v 3.344809 -73.000000 49.640656
v 15.851670 -23.239283 49.933891
v 22.529409 -24.537302 50.110050
v 29.208120 -25.835512 50.244221
v 15.817630 -73.000000 -49.150665
v 15.851670 -23.239279 -49.933891
v 22.519720 -73.000000 -49.348225
v 22.529409 -24.537298 -50.110050
v 29.208120 -25.835508 -50.244221
v 29.222931 -73.000000 -49.503452
v 53.053230 -73.000000 -49.980064
v 0.300000 -85.300003 -49.559093
v -3.256194 -85.300003 -49.452915
v -6.795607 -85.300003 -49.091892
v -10.300000 -85.300003 -48.477875
v 0.300000 -74.699997 -49.725613
v 0.300000 -85.300003 49.559086
v 0.300000 -74.699997 49.725605
v -10.300000 -74.699997 -48.648094
v -10.300000 -85.300003 48.477867
v -10.300000 -74.699997 48.648087
v -6.795607 -85.300003 49.091885
v -3.256194 -85.300003 49.452908
v 38.700001 -85.300003 -49.499733
v 49.299999 -85.300003 -49.711735
v 38.700001 -74.699997 -49.666294
v 49.299999 -74.699997 -49.878284
v 3.191569 -95.300003 -49.299706
v 6.195061 -74.699997 -49.339115
v 9.000000 -95.300003 -48.576202
v 9.114969 -74.699997 -48.883995
v 9.098431 -89.077728 -48.657314
v -2.661666 -95.300003 -49.331154
v 3.253275 -74.699997 -49.619984
v -8.477537 -95.300003 -48.670105
v -14.174400 -95.300003 -47.325825
v -15.976640 -74.699997 -47.090065
v -19.672291 -95.300003 -45.317192
v -21.429390 -74.699997 -44.872135
v -24.894020 -95.300003 -42.672424
v -26.581829 -74.699997 -42.025383
v -29.766291 -95.300003 -39.428616
v -31.361780 -74.699997 -38.589714
v -34.220711 -95.300003 -35.631313
v -35.702221 -74.699997 -34.613262
v -38.194752 -95.300003 -31.333834
v -39.542358 -74.699997 -30.151754
v -41.632610 -95.300003 -26.596483
v -42.828369 -74.699997 -25.267714
v -44.486038 -95.300003 -21.485794
v -45.514198 -74.699997 -20.029583
v -46.715000 -95.300003 -16.073473
v -47.562210 -74.699997 -14.510773
v -48.288170 -95.300003 -10.435524
v -48.943710 -74.699997 -8.788609
v -49.183479 -95.300003 -4.651085
v -49.639332 -74.699997 -2.943287
v -49.388371 -95.300003 1.198646
v -49.639332 -74.699997 2.943281
v -48.899940 -95.300003 7.031552
v -48.943710 -74.699997 8.788603
v -47.725079 -95.300003 12.765746
v -47.562210 -74.699997 14.510767
v -45.880249 -95.300003 18.320745
v -45.514198 -74.699997 20.029575
v -43.391369 -95.300003 23.618557
v -42.828369 -74.699997 25.267706
v -40.293369 -95.300003 28.584816
v -39.542358 -74.699997 30.151747
v -36.629742 -95.300003 33.149807
v -35.702221 -74.699997 34.613255
v -32.451900 -95.300003 37.249447
v -31.361780 -74.699997 38.589706
v -27.818520 -95.300003 40.826187
v -26.581829 -74.699997 42.025375
v -22.794621 -95.300003 43.829815
v -21.429390 -74.699997 44.872128
v -17.450729 -95.300003 46.218166
v -15.976640 -74.699997 47.090057
v -11.861880 -95.300003 47.957718
v -6.106509 -95.300003 49.024048
v -0.265418 -95.300003 49.402187
v 5.579399 -95.300003 49.086838
v 3.253275 -74.699997 49.619976
v 6.195061 -74.699997 49.339108
v 9.098431 -89.077728 48.657307
v 9.114969 -74.699997 48.883987
v 11.345890 -95.300003 48.082405
v 13.306130 -89.297318 47.674377
v 16.953119 -95.300003 46.403008
v 17.437550 -89.592239 46.318695
v 21.436600 -89.952927 44.602417
v 22.322359 -95.300003 44.072205
v 25.255989 -90.365929 42.548725
v 27.378241 -95.300003 41.122738
v 28.848619 -90.815063 40.191376
v 32.049789 -95.300003 37.595985
v 32.172852 -91.282921 37.572784
v 35.196190 -91.751602 34.747437
v 36.271431 -95.300003 33.541477
v 37.982479 -92.219963 31.665066
v 39.983898 -95.300003 29.016106
v 40.553082 -92.682449 28.286945
v 43.135078 -95.300003 24.083426
v 42.854271 -93.121330 24.647007
v 44.846439 -93.520103 20.788807
v 45.680752 -95.300003 18.812666
v 46.496830 -93.863541 16.759447
v 47.585152 -95.300003 13.277816
v 47.785309 -94.139908 12.607566
v 48.700378 -94.340637 8.390088
v 48.821571 -95.300003 7.556569
v 49.239262 -94.460411 4.166566
v 49.372631 -95.300003 1.729248
v 49.415470 -94.500000 -0.000004
v 49.230621 -95.300003 -4.122347
v 49.239262 -94.460411 -4.166574
v 48.700378 -94.340637 -8.390096
v 48.397511 -95.300003 -9.916074
v 47.785309 -94.139908 -12.607574
v 46.885010 -95.300003 -15.570603
v 46.496830 -93.863541 -16.759455
v 44.714340 -95.300003 -21.006554
v 44.846439 -93.520103 -20.788815
v 42.854271 -93.121330 -24.647015
v 41.915981 -95.300003 -26.147614
v 40.553082 -92.682449 -28.286953
v 38.529221 -95.300003 -30.921623
v 37.982479 -92.219963 -31.665073
v 34.601589 -95.300003 -35.261562
v 35.196190 -91.751602 -34.747444
v 32.172852 -91.282921 -37.572792
v 30.188231 -95.300003 -39.106503
v 28.848619 -90.815063 -40.191383
v 25.351089 -95.300003 -42.402473
v 25.255989 -90.365929 -42.548733
v 21.436600 -89.952927 -44.602425
v 20.158079 -95.300003 -45.103214
v 17.437550 -89.592239 -46.318703
v 14.682090 -95.300003 -47.170795
v 13.306130 -89.297318 -47.674385
v 53.026520 -74.699997 49.952805
v 52.804489 -88.833702 49.726295
v 29.227940 -88.942421 49.253056
v 29.223471 -74.699997 49.476746
v 15.816510 -74.699997 -49.123905
v 22.519430 -74.699997 -49.321495
v 29.223471 -74.699997 -49.476753
v 15.816510 -74.699997 49.123898
v 22.519430 -74.699997 49.321487
v 53.026520 -74.699997 41.749996
v 53.026520 -74.699997 -41.750004
v 53.026520 -74.699997 -49.952812
v 53.584202 -39.200001 4.999998
v 53.636028 -35.900002 4.999999
v 53.584202 -39.200001 -5.000002
v 53.636028 -35.900002 -5.000001
v 52.860001 -85.300003 -31.150003
v 52.982529 -77.500000 -31.150003
v 52.860001 -85.300003 -41.750004
v 52.982529 -77.500000 31.149996
v 52.860001 -85.300003 31.149996
v 52.860001 -85.300003 41.749996
v 52.804489 -88.833702 -49.726303
v 52.769409 -91.066422 -38.807735
v 52.743031 -92.745941 -27.790504
v 52.725410 -93.868011 -16.702614
v 52.716579 -94.429749 -5.572262
v 52.716579 -94.429749 5.572254
v 52.725410 -93.868011 16.702606
v 52.743031 -92.745941 27.790497
v 52.769409 -91.066422 38.807728
v 29.227940 -88.942421 -49.253063
v 15.817630 -73.000000 49.150658
v 53.053230 -73.000000 49.980057
v 29.222931 -73.000000 49.503445
v 22.519720 -73.000000 49.348217
v -48.777420 -95.300003 6.421666
v -49.250381 -95.300003 3.879109
v -49.198318 -95.300003 -0.000004
v -49.335361 -95.300003 -2.582541
v -48.777420 -95.300003 -6.421674
v -48.576199 -95.300003 -9.000004
v -47.521931 -95.300003 -12.733464
v -46.985889 -95.300003 -15.263474
v -45.453320 -95.300003 -18.827394
v -44.591640 -95.300003 -21.265783
v -42.606998 -95.300003 -24.599163
v -41.434410 -95.300003 -26.904224
v -39.031651 -95.300003 -29.950045
v -37.568218 -95.300003 -32.082333
v -34.788471 -95.300003 -34.788475
v -33.059238 -95.300003 -36.711502
v -29.950041 -95.300003 -39.031654
v -27.984600 -95.300003 -40.712524
v -24.599159 -95.300003 -42.607002
v -22.431141 -95.300003 -44.016945
v -18.827391 -95.300003 -45.453323
v -16.493870 -95.300003 -46.568222
v -12.733460 -95.300003 -47.521935
v -10.274390 -95.300003 -48.322712
v -6.421670 -95.300003 -48.777424
v -3.879113 -95.300003 -49.250385
v 0.000000 -95.300003 -49.198322
v 2.582537 -95.300003 -49.335365
v 6.421670 -95.300003 -48.777424
v 12.733460 -95.300003 -47.521935
v 15.263470 -95.300003 -46.985893
v 18.827391 -95.300003 -45.453323
v 21.265779 -95.300003 -44.591644
v 24.599159 -95.300003 -42.607002
v 26.904221 -95.300003 -41.434414
v 29.950041 -95.300003 -39.031654
v 32.082329 -95.300003 -37.568222
v 34.788471 -95.300003 -34.788475
v 36.711498 -95.300003 -33.059242
v 39.031651 -95.300003 -29.950045
v 40.712521 -95.300003 -27.984604
v 42.606998 -95.300003 -24.599163
v 44.016941 -95.300003 -22.431145
v 45.453320 -95.300003 -18.827394
v 46.568218 -95.300003 -16.493874
v 47.521931 -95.300003 -12.733464
v 48.322708 -95.300003 -10.274394
v 48.777420 -95.300003 -6.421674
v 49.250381 -95.300003 -3.879117
v 49.198318 -95.300003 -0.000004
v 49.335361 -95.300003 2.582533
v 48.777420 -95.300003 6.421666
v 48.576199 -95.300003 8.999996
v 47.521931 -95.300003 12.733457
v 46.985889 -95.300003 15.263466
v 45.453320 -95.300003 18.827387
v 44.591640 -95.300003 21.265776
v 42.606998 -95.300003 24.599155
v 41.434410 -95.300003 26.904217
v 39.031651 -95.300003 29.950037
v 37.568218 -95.300003 32.082325
v 34.788471 -95.300003 34.788467
v 33.059238 -95.300003 36.711494
v 29.950041 -95.300003 39.031647
v 27.984600 -95.300003 40.712517
v 24.599159 -95.300003 42.606995
v 22.431141 -95.300003 44.016937
v 18.827391 -95.300003 45.453316
v 16.493870 -95.300003 46.568214
v 12.733460 -95.300003 47.521927
v 10.274390 -95.300003 48.322704
v 6.421670 -95.300003 48.777416
v 3.879113 -95.300003 49.250378
v 0.000000 -95.300003 49.198315
v -2.582537 -95.300003 49.335358
v -6.421670 -95.300003 48.777416
v -9.000000 -95.300003 48.576195
v -12.733460 -95.300003 47.521927
v -15.263470 -95.300003 46.985886
v -18.827391 -95.300003 45.453316
v -21.265779 -95.300003 44.591637
v -24.599159 -95.300003 42.606995
v -26.904221 -95.300003 41.434406
v -29.950041 -95.300003 39.031647
v -32.082329 -95.300003 37.568214
v -34.788471 -95.300003 34.788467
v -36.711498 -95.300003 33.059235
v -39.031651 -95.300003 29.950037
v -40.712521 -95.300003 27.984596
v -42.606998 -95.300003 24.599155
v -44.016941 -95.300003 22.431137
v -45.453320 -95.300003 18.827387
v -46.568218 -95.300003 16.493866
v -47.521931 -95.300003 12.733457
v -48.322708 -95.300003 10.274386
vn -0.0156 0.9999 -0.0000
vn -0.0157 0.9999 -0.0000
vn 0.0006 -0.0377 0.9993
vn 0.0135 -0.8564 -0.5161
vn 0.0126 -0.8566 -0.5158
vn 0.0159 -0.9258 -0.3778
vn 0.0154 -0.9259 -0.3775
vn 0.0149 -0.9730 -0.2302
vn 0.0168 -0.9732 -0.2292
vn 0.0143 -0.9969 -0.0773
vn 0.0157 -0.9969 -0.0765
vn 0.0157 -0.9969 0.0765
vn 0.0143 -0.9969 0.0773
vn 0.0168 -0.9732 0.2292
vn 0.0149 -0.9730 0.2302
vn 0.0154 -0.9259 0.3775
vn 0.0159 -0.9258 0.3778
vn 0.0126 -0.8566 0.5158
vn 0.0135 -0.8564 0.5161
vn 0.0006 -0.0377 -0.9993
vn -0.9639 -0.0140 -0.2658
vn -0.9600 -0.0085 -0.2799
vn -0.9483 -0.0157 -0.3170
vn -0.9209 -0.0157 -0.3894
vn -0.9210 -0.0141 -0.3894
vn -0.9172 -0.0174 -0.3981
vn -0.8695 -0.0140 -0.4937
vn -0.8644 -0.0175 -0.5025
vn -0.8063 -0.0139 -0.5913
vn -0.7999 -0.0176 -0.5999
vn -0.7322 -0.0138 -0.6809
vn -0.7244 -0.0177 -0.6892
vn -0.6482 -0.0137 -0.7613
vn -0.6389 -0.0178 -0.7690
vn -0.5555 -0.0136 -0.8314
vn -0.5448 -0.0179 -0.8384
vn -0.4552 -0.0135 -0.8903
vn -0.4432 -0.0180 -0.8962
vn -0.3488 -0.0134 -0.9371
vn -0.3355 -0.0180 -0.9419
vn -0.2376 -0.0133 -0.9713
vn -0.2233 -0.0181 -0.9746
vn -0.1232 -0.0132 -0.9923
vn -0.1080 -0.0182 -0.9940
vn -0.0072 -0.0132 -0.9999
vn 0.0088 -0.0183 -0.9998
vn 0.1089 -0.0131 -0.9940
vn 0.1254 -0.0184 -0.9919
vn 0.1746 -0.0157 -0.9845
vn 0.1740 -0.0157 -0.9846
vn 0.1261 -0.0126 -0.9919
vn 0.1089 -0.0191 -0.9939
vn 0.0131 -0.0124 -0.9998
vn -0.0072 -0.0193 -0.9998
vn -0.1000 -0.0123 -0.9949
vn -0.1232 -0.0194 -0.9922
vn -0.2118 -0.0122 -0.9772
vn -0.2376 -0.0195 -0.9712
vn -0.3208 -0.0121 -0.9471
vn -0.3487 -0.0195 -0.9370
vn -0.4258 -0.0121 -0.9048
vn -0.4551 -0.0195 -0.8902
vn -0.5252 -0.0121 -0.8509
vn -0.5554 -0.0195 -0.8313
vn -0.6179 -0.0121 -0.7861
vn -0.6482 -0.0195 -0.7612
vn -0.7027 -0.0121 -0.7114
vn -0.7322 -0.0195 -0.6808
vn -0.7785 -0.0121 -0.6275
vn -0.8063 -0.0195 -0.5912
vn -0.8444 -0.0121 -0.5356
vn -0.8694 -0.0194 -0.4936
vn -0.8994 -0.0122 -0.4369
vn -0.9209 -0.0194 -0.3894
vn -0.9430 -0.0122 -0.3327
vn -0.9599 -0.0194 -0.2798
vn -0.9745 -0.0122 -0.2241
vn -0.9814 -0.0163 -0.1912
vn -0.9908 -0.0151 -0.1344
vn -0.9930 -0.0216 -0.1161
vn -0.9987 -0.0047 -0.0509
vn -0.9991 -0.0129 -0.0394
vn -0.9991 -0.0180 0.0391
vn -0.9810 -0.0173 -0.1930
vn -0.9930 -0.0216 0.1161
vn -0.9951 -0.0146 0.0977
vn -0.9990 -0.0167 0.0412
vn -0.9999 -0.0123 -0.0000
vn -0.9985 -0.0193 -0.0509
vn -0.9935 -0.0123 -0.1128
vn -0.9835 -0.0057 0.1807
vn -0.9808 -0.0140 0.1943
vn -0.9643 -0.0170 0.2641
vn -0.9559 -0.0076 0.2937
vn -0.9467 -0.0151 0.3218
vn -0.9421 -0.0157 0.3351
vn -0.9428 -0.0155 0.3330
vn -0.9172 -0.0166 0.3981
vn -0.9567 -0.0412 0.2881
vn -0.9631 0.0015 0.2692
vn -0.9841 -0.0344 0.1745
vn -0.9866 -0.0063 0.1628
vn -0.9980 -0.0258 0.0584
vn -0.9984 -0.0157 0.0545
vn -0.9984 -0.0157 -0.0545
vn -0.9980 -0.0258 -0.0584
vn -0.9866 -0.0063 -0.1628
vn -0.9841 -0.0344 -0.1745
vn -0.9631 0.0015 -0.2692
vn -0.9567 -0.0412 -0.2881
vn -0.9431 -0.0159 -0.3322
vn -0.9473 -0.0152 -0.3201
vn 0.1819 -0.0157 0.9832
vn 0.1255 -0.0156 0.9920
vn 0.1235 -0.0165 0.9922
vn 0.0126 -0.0149 0.9998
vn 0.0072 -0.0170 0.9998
vn -0.1004 -0.0144 0.9948
vn -0.1088 -0.0174 0.9939
vn -0.2121 -0.0140 0.9771
vn -0.2235 -0.0178 0.9745
vn -0.3211 -0.0137 0.9469
vn -0.3353 -0.0181 0.9419
vn -0.4260 -0.0134 0.9046
vn -0.4424 -0.0183 0.8966
vn -0.5254 -0.0132 0.8508
vn -0.5434 -0.0184 0.8393
vn -0.6180 -0.0131 0.7860
vn -0.6371 -0.0186 0.7705
vn -0.7028 -0.0129 0.7113
vn -0.7223 -0.0187 0.6913
vn -0.7786 -0.0128 0.6274
vn -0.7977 -0.0189 0.6028
vn -0.8444 -0.0127 0.5356
vn -0.8622 -0.0190 0.5061
vn -0.8994 -0.0126 0.4369
vn -0.9152 -0.0190 0.4026
vn -0.9430 -0.0125 0.3326
vn -0.9557 -0.0191 0.2936
vn -0.9745 -0.0124 0.2241
vn -0.9833 -0.0192 0.1807
vn -0.9935 -0.0124 0.1128
vn -0.9152 -0.0149 0.4026
vn -0.8644 -0.0165 0.5025
vn -0.8623 -0.0150 0.5062
vn -0.7999 -0.0164 0.5999
vn -0.7977 -0.0151 0.6029
vn -0.7244 -0.0163 0.6892
vn -0.7223 -0.0152 0.6914
vn -0.6390 -0.0162 0.7691
vn -0.6372 -0.0153 0.7706
vn -0.5448 -0.0161 0.8384
vn -0.5434 -0.0154 0.8393
vn -0.4432 -0.0159 0.8963
vn -0.4425 -0.0156 0.8966
vn -0.3356 -0.0157 0.9419
vn -0.3355 -0.0157 0.9419
vn -0.2234 -0.0157 0.9746
vn -0.1088 -0.0156 0.9939
vn -0.2233 -0.0157 0.9746
vn -0.1087 -0.0156 0.9940
vn -0.1087 -0.0157 0.9940
vn 0.0072 -0.0157 0.9999
vn -0.1080 -0.0159 0.9940
vn 0.0072 -0.0155 0.9999
vn 0.1234 -0.0157 0.9922
vn 0.1235 -0.0156 0.9922
vn 0.1818 -0.0157 0.9832
vn 0.0088 -0.0160 0.9998
vn 0.1234 -0.0153 0.9922
vn 0.1254 -0.0161 0.9920
vn -0.2376 -0.0157 -0.9712
vn -0.3487 -0.0157 -0.9371
vn -0.4552 -0.0157 -0.8903
vn -0.5555 -0.0157 -0.8314
vn -0.6482 -0.0157 -0.7613
vn -0.7322 -0.0157 -0.6809
vn -0.8063 -0.0157 -0.5913
vn -0.8695 -0.0157 -0.4937
vn -0.1232 -0.0157 -0.9923
vn -0.0072 -0.0157 -0.9999
vn 0.1089 -0.0157 -0.9939
vn -0.9152 -0.0157 0.4026
vn -0.2235 -0.0157 0.9746
vn -0.3353 -0.0157 0.9420
vn -0.4424 -0.0156 0.8967
vn -0.4425 -0.0157 0.8966
vn -0.5434 -0.0157 0.8393
vn -0.6372 -0.0157 0.7706
vn -0.7223 -0.0157 0.6914
vn -0.7977 -0.0157 0.6029
vn -0.8623 -0.0157 0.5062
vn -0.0358 -0.0157 -0.9992
vn -0.0357 -0.0157 -0.9992
vn -0.0295 -0.0157 -0.9994
vn -0.0294 -0.0157 -0.9994
vn -0.0231 -0.0157 -0.9996
vn -0.0200 -0.0157 -0.9997
vn 0.1236 -0.0199 -0.9921
vn 0.1540 -0.0156 -0.9879
vn 0.1830 -0.0157 -0.9830
vn 0.0054 -0.0244 -0.9997
vn 0.0355 -0.0156 -0.9992
vn 0.0950 -0.0158 -0.9953
vn -0.1129 -0.0229 -0.9933
vn -0.1015 -0.0181 -0.9947
vn -0.0298 -0.0139 -0.9995
vn -0.2297 -0.0024 -0.9733
vn -0.1724 -0.0466 -0.9839
vn -0.2479 -0.0156 -0.9687
vn -0.2647 -0.0121 -0.9643
vn -0.3431 -0.0193 -0.9391
vn -0.3768 -0.0121 -0.9262
vn -0.4518 -0.0193 -0.8919
vn -0.4836 -0.0121 -0.8752
vn -0.5541 -0.0193 -0.8322
vn -0.5836 -0.0121 -0.8119
vn -0.6486 -0.0193 -0.7609
vn -0.6755 -0.0121 -0.7373
vn -0.7341 -0.0192 -0.6788
vn -0.7579 -0.0121 -0.6523
vn -0.8092 -0.0192 -0.5872
vn -0.8296 -0.0122 -0.5582
vn -0.8730 -0.0192 -0.4874
vn -0.8898 -0.0122 -0.4562
vn -0.9245 -0.0192 -0.3807
vn -0.9375 -0.0122 -0.3479
vn -0.9630 -0.0192 -0.2687
vn -0.9720 -0.0122 -0.2347
vn -0.9881 -0.0192 -0.1529
vn -0.9929 -0.0122 -0.1182
vn -0.9992 -0.0192 -0.0350
vn -0.9999 -0.0122 -0.0000
vn -0.9963 -0.0192 0.0834
vn -0.9929 -0.0122 0.1182
vn -0.9795 -0.0192 0.2007
vn -0.9720 -0.0122 0.2347
vn -0.9489 -0.0192 0.3151
vn -0.9375 -0.0122 0.3479
vn -0.9049 -0.0192 0.4251
vn -0.8898 -0.0122 0.4562
vn -0.8483 -0.0192 0.5292
vn -0.8296 -0.0122 0.5582
vn -0.7798 -0.0192 0.6258
vn -0.7579 -0.0122 0.6523
vn -0.7003 -0.0192 0.7136
vn -0.6755 -0.0122 0.7373
vn -0.6109 -0.0192 0.7914
vn -0.5836 -0.0122 0.8119
vn -0.5131 -0.0192 0.8581
vn -0.4836 -0.0122 0.8752
vn -0.4080 -0.0191 0.9128
vn -0.3768 -0.0122 0.9262
vn -0.2971 -0.0191 0.9546
vn -0.2557 -0.0104 0.9667
vn -0.1821 -0.0227 0.9830
vn -0.1726 -0.0186 0.9848
vn -0.1015 -0.0137 0.9947
vn -0.0646 -0.0244 0.9976
vn -0.0298 -0.0140 0.9995
vn 0.0539 -0.0187 0.9984
vn 0.0514 -0.0200 0.9985
vn 0.0950 -0.0150 0.9954
vn 0.1500 -0.0166 0.9885
vn 0.1540 -0.0158 0.9879
vn 0.1715 -0.0290 0.9848
vn 0.2271 -0.0080 0.9738
vn 0.2868 -0.0286 0.9576
vn 0.3110 -0.0124 0.9503
vn 0.3928 -0.0198 0.9194
vn 0.3981 -0.0250 0.9170
vn 0.4728 -0.0091 0.8811
vn 0.5036 -0.0329 0.8633
vn 0.5481 -0.0060 0.8364
vn 0.6022 -0.0318 0.7977
vn 0.6175 -0.0144 0.7864
vn 0.6813 -0.0166 0.7318
vn 0.6923 -0.0352 0.7208
vn 0.7416 -0.0033 0.6709
vn 0.7724 -0.0431 0.6337
vn 0.7955 -0.0042 0.6059
vn 0.8422 -0.0333 0.5381
vn 0.8432 -0.0302 0.5367
vn 0.8884 -0.0043 0.4591
vn 0.8988 -0.0607 0.4341
vn 0.9257 0.0143 0.3779
vn 0.9431 -0.0720 0.3245
vn 0.9552 0.0062 0.2960
vn 0.9758 -0.0448 0.2139
vn 0.9757 -0.0599 0.2109
vn 0.9919 0.0157 0.1261
vn 0.9890 -0.1144 0.0935
vn 0.9984 0.0371 0.0419
vn 0.9941 -0.1054 -0.0241
vn 0.9990 -0.0125 -0.0424
vn 0.9918 -0.0169 -0.1270
vn 0.9862 -0.0858 -0.1418
vn 0.9772 0.0267 -0.2107
vn 0.9622 -0.0893 -0.2574
vn 0.9552 0.0135 -0.2955
vn 0.9272 -0.0559 -0.3703
vn 0.9245 -0.0221 -0.3805
vn 0.8881 -0.0097 -0.4596
vn 0.8773 -0.0489 -0.4775
vn 0.8454 0.0037 -0.5340
vn 0.8147 -0.0482 -0.5779
vn 0.7955 -0.0051 -0.6060
vn 0.7411 -0.0303 -0.6707
vn 0.7396 -0.0265 -0.6726
vn 0.6821 -0.0083 -0.7312
vn 0.6564 -0.0366 -0.7535
vn 0.6183 -0.0054 -0.7859
vn 0.5628 -0.0317 -0.8260
vn 0.5473 -0.0143 -0.8368
vn 0.4721 -0.0170 -0.8814
vn 0.4612 -0.0272 -0.8869
vn 0.3938 -0.0081 -0.9192
vn 0.3531 -0.0308 -0.9351
vn 0.3112 -0.0084 -0.9503
vn 0.2400 -0.0264 -0.9704
vn 0.2266 -0.0163 -0.9738
vn 0.0357 -0.0157 0.9992
vn -0.2646 -0.0155 0.9642
vn 0.0357 -0.0157 -0.9992
vn 0.9999 -0.0157 -0.0000
vn -0.0232 -0.0157 -0.9996
vn -0.0295 -0.0187 -0.9994
vn -0.0200 -0.0157 0.9997
vn -0.0231 -0.0157 0.9996
vn -0.0294 -0.0157 0.9994
vn -0.0295 -0.0157 0.9994
vn -0.0357 -0.0157 0.9992
vn -0.0358 -0.0157 0.9992
vn -0.0295 -0.0187 0.9994
vn -0.0000 -1.0000 -0.0000
vn -0.0000 -1.0000 -0.0001
vn -0.0000 -1.0000 0.0002
vn -0.0000 -1.0000 -0.0002
vn -0.0000 -1.0000 0.0001
s 0
f 1//1 2//1 3//1
f 3//2 2//2 4//2
f 3//2 4//2 5//2
f 5//1 4//1 6//1
f 4//2 2//2 7//2
f 7//2 2//2 8//2
f 7//2 8//2 9//2
f 10//3 1//3 11//3
f 11//3 1//3 3//3
f 12//4 13//4 14//4
f 14//5 13//5 15//5
f 15//6 13//6 16//6
f 15//7 16//7 17//7
f 17//8 16//8 18//8
f 18//9 16//9 19//9
f 18//10 19//10 20//10
f 20//11 19//11 21//11
f 20//12 21//12 22//12
f 20//13 22//13 23//13
f 23//14 22//14 24//14
f 23//15 24//15 25//15
f 25//16 24//16 26//16
f 26//17 24//17 27//17
f 26//18 27//18 11//18
f 11//19 27//19 10//19
f 12//20 14//20 6//20
f 6//20 14//20 5//20
f 27//21 30//21 10//21
f 10//22 30//22 31//22
f 10//23 31//23 32//23
f 32//24 31//24 33//24
f 32//25 33//25 34//25
f 34//26 33//26 35//26
f 35//27 33//27 36//27
f 35//28 36//28 37//28
f 37//29 36//29 38//29
f 37//30 38//30 39//30
f 39//31 38//31 40//31
f 39//32 40//32 41//32
f 41//33 40//33 42//33
f 41//34 42//34 43//34
f 43//35 42//35 44//35
f 43//36 44//36 45//36
f 45//37 44//37 46//37
f 45//38 46//38 47//38
f 47//39 46//39 48//39
f 47//40 48//40 49//40
f 49//41 48//41 50//41
f 49//42 50//42 51//42
f 51//43 50//43 52//43
f 51//44 52//44 53//44
f 53//45 52//45 54//45
f 53//46 54//46 55//46
f 55//47 54//47 56//47
f 55//48 56//48 57//48
f 57//49 56//49 58//49
f 58//50 56//50 59//50
f 58//51 59//51 60//51
f 60//52 59//52 61//52
f 60//53 61//53 62//53
f 62//54 61//54 63//54
f 62//55 63//55 64//55
f 64//56 63//56 65//56
f 64//57 65//57 66//57
f 66//58 65//58 67//58
f 66//59 67//59 68//59
f 68//60 67//60 69//60
f 68//61 69//61 70//61
f 70//62 69//62 71//62
f 70//63 71//63 72//63
f 72//64 71//64 73//64
f 72//65 73//65 74//65
f 74//66 73//66 75//66
f 74//67 75//67 76//67
f 76//68 75//68 77//68
f 76//69 77//69 78//69
f 78//70 77//70 79//70
f 78//71 79//71 80//71
f 80//72 79//72 81//72
f 80//73 81//73 82//73
f 82//74 81//74 31//74
f 82//75 31//75 83//75
f 83//76 31//76 30//76
f 83//77 30//77 84//77
f 84//78 30//78 24//78
f 84//79 24//79 85//79
f 85//80 24//80 22//80
f 85//81 22//81 86//81
f 86//82 22//82 21//82
f 86//83 21//83 19//83
f 27//84 24//84 30//84
f 16//85 87//85 19//85
f 19//86 87//86 88//86
f 19//87 88//87 86//87
f 86//88 88//88 89//88
f 86//89 89//89 85//89
f 85//90 89//90 84//90
f 87//91 16//91 90//91
f 90//92 16//92 13//92
f 90//93 13//93 12//93
f 90//94 12//94 91//94
f 91//95 12//95 6//95
f 91//96 6//96 92//96
f 92//97 6//97 93//97
f 92//98 93//98 94//98
f 93//99 6//99 95//99
f 95//100 6//100 4//100
f 95//101 4//101 96//101
f 96//102 4//102 7//102
f 96//103 7//103 97//103
f 97//104 7//104 9//104
f 97//105 9//105 8//105
f 97//106 8//106 98//106
f 98//107 8//107 2//107
f 98//108 2//108 99//108
f 99//109 2//109 1//109
f 99//110 1//110 34//110
f 34//111 1//111 32//111
f 1//112 10//112 32//112
f 100//113 101//113 102//113
f 102//114 101//114 103//114
f 102//115 103//115 104//115
f 104//116 103//116 105//116
f 104//117 105//117 106//117
f 106//118 105//118 107//118
f 106//119 107//119 108//119
f 108//120 107//120 109//120
f 108//121 109//121 110//121
f 110//122 109//122 111//122
f 110//123 111//123 112//123
f 112//124 111//124 113//124
f 112//125 113//125 114//125
f 114//126 113//126 115//126
f 114//127 115//127 116//127
f 116//128 115//128 117//128
f 116//129 117//129 118//129
f 118//130 117//130 119//130
f 118//131 119//131 120//131
f 120//132 119//132 121//132
f 120//133 121//133 122//133
f 122//134 121//134 123//134
f 122//135 123//135 124//135
f 124//136 123//136 125//136
f 124//137 125//137 91//137
f 91//138 125//138 126//138
f 91//139 126//139 90//139
f 90//140 126//140 127//140
f 90//141 127//141 87//141
f 87//142 127//142 88//142
f 92//143 94//143 128//143
f 128//144 94//144 129//144
f 128//145 129//145 130//145
f 130//146 129//146 131//146
f 130//147 131//147 132//147
f 132//148 131//148 133//148
f 132//149 133//149 134//149
f 134//150 133//150 135//150
f 134//151 135//151 136//151
f 136//152 135//152 137//152
f 136//153 137//153 138//153
f 138//154 137//154 139//154
f 138//155 139//155 140//155
f 140//156 139//156 141//156
f 140//157 141//157 142//157
f 142//158 141//158 143//158
f 142//158 143//158 108//158
f 108//159 143//159 106//159
f 141//160 144//160 143//160
f 143//161 144//161 145//161
f 143//162 145//162 106//162
f 106//163 145//163 104//163
f 144//164 146//164 145//164
f 145//165 146//165 147//165
f 145//163 147//163 104//163
f 104//166 147//166 148//166
f 104//167 148//167 102//167
f 102//168 148//168 100//168
f 146//169 149//169 147//169
f 147//170 149//170 148//170
f 149//171 100//171 148//171
f 65//172 50//172 67//172
f 67//172 50//172 48//172
f 67//173 48//173 69//173
f 69//173 48//173 46//173
f 69//174 46//174 71//174
f 71//174 46//174 44//174
f 71//175 44//175 73//175
f 73//175 44//175 42//175
f 73//176 42//176 75//176
f 75//176 42//176 40//176
f 75//177 40//177 77//177
f 77//177 40//177 38//177
f 77//178 38//178 79//178
f 79//178 38//178 36//178
f 79//179 36//179 81//179
f 81//179 36//179 33//179
f 81//24 33//24 31//24
f 50//180 65//180 52//180
f 52//180 65//180 63//180
f 52//181 63//181 54//181
f 54//181 63//181 61//181
f 54//182 61//182 56//182
f 56//182 61//182 59//182
f 124//183 91//183 92//183
f 108//184 110//184 142//184
f 142//185 110//185 112//185
f 142//157 112//157 140//157
f 140//186 112//186 114//186
f 140//187 114//187 138//187
f 138//188 114//188 136//188
f 134//189 136//189 116//189
f 116//188 136//188 114//188
f 132//190 134//190 118//190
f 118//189 134//189 116//189
f 130//191 132//191 120//191
f 120//190 132//190 118//190
f 128//192 130//192 122//192
f 122//191 130//191 120//191
f 92//183 128//183 124//183
f 124//192 128//192 122//192
f 57//193 58//193 153//193
f 153//194 58//194 154//194
f 153//195 154//195 155//195
f 155//196 154//196 156//196
f 155//197 156//197 157//197
f 157//197 158//197 155//197
f 157//198 28//198 158//198
f 158//198 28//198 159//198
f 176//199 177//199 178//199
f 178//200 177//200 179//200
f 178//201 179//201 180//201
f 181//202 160//202 176//202
f 176//203 160//203 182//203
f 176//204 182//204 177//204
f 183//205 162//205 181//205
f 181//206 162//206 161//206
f 181//207 161//207 160//207
f 183//208 184//208 162//208
f 162//209 184//209 163//209
f 163//210 184//210 167//210
f 167//211 184//211 185//211
f 185//212 184//212 186//212
f 185//213 186//213 187//213
f 187//214 186//214 188//214
f 187//215 188//215 189//215
f 189//216 188//216 190//216
f 189//217 190//217 191//217
f 191//218 190//218 192//218
f 191//219 192//219 193//219
f 193//220 192//220 194//220
f 193//221 194//221 195//221
f 195//222 194//222 196//222
f 195//223 196//223 197//223
f 197//224 196//224 198//224
f 197//225 198//225 199//225
f 199//226 198//226 200//226
f 199//227 200//227 201//227
f 201//228 200//228 202//228
f 201//229 202//229 203//229
f 203//230 202//230 204//230
f 203//231 204//231 205//231
f 205//232 204//232 206//232
f 205//233 206//233 207//233
f 207//234 206//234 208//234
f 207//235 208//235 209//235
f 209//236 208//236 210//236
f 209//237 210//237 211//237
f 211//238 210//238 212//238
f 211//239 212//239 213//239
f 213//240 212//240 214//240
f 213//241 214//241 215//241
f 215//242 214//242 216//242
f 215//243 216//243 217//243
f 217//244 216//244 218//244
f 217//245 218//245 219//245
f 219//246 218//246 220//246
f 219//247 220//247 221//247
f 221//248 220//248 222//248
f 221//249 222//249 223//249
f 223//250 222//250 224//250
f 223//251 224//251 225//251
f 225//252 224//252 226//252
f 225//253 226//253 227//253
f 227//254 226//254 228//254
f 227//255 228//255 168//255
f 168//256 228//256 229//256
f 168//257 229//257 170//257
f 170//258 229//258 171//258
f 171//259 229//259 230//259
f 171//260 230//260 165//260
f 165//261 230//261 231//261
f 165//262 231//262 232//262
f 232//263 231//263 233//263
f 233//264 231//264 234//264
f 233//265 234//265 235//265
f 231//266 236//266 234//266
f 234//267 236//267 237//267
f 237//268 236//268 238//268
f 237//269 238//269 239//269
f 239//270 238//270 240//270
f 240//271 238//271 241//271
f 240//272 241//272 242//272
f 242//273 241//273 243//273
f 242//274 243//274 244//274
f 244//275 243//275 245//275
f 244//276 245//276 246//276
f 246//277 245//277 247//277
f 247//278 245//278 248//278
f 247//279 248//279 249//279
f 249//280 248//280 250//280
f 249//281 250//281 251//281
f 251//282 250//282 252//282
f 251//283 252//283 253//283
f 253//284 252//284 254//284
f 254//285 252//285 255//285
f 254//286 255//286 256//286
f 256//287 255//287 257//287
f 256//288 257//288 258//288
f 258//289 257//289 259//289
f 259//290 257//290 260//290
f 259//291 260//291 261//291
f 261//292 260//292 262//292
f 261//293 262//293 263//293
f 263//294 262//294 264//294
f 263//295 264//295 265//295
f 265//296 264//296 266//296
f 266//297 264//297 267//297
f 266//298 267//298 268//298
f 268//299 267//299 269//299
f 268//300 269//300 270//300
f 270//301 269//301 271//301
f 270//302 271//302 272//302
f 272//303 271//303 273//303
f 273//304 271//304 274//304
f 273//305 274//305 275//305
f 275//306 274//306 276//306
f 275//307 276//307 277//307
f 277//308 276//308 278//308
f 277//309 278//309 279//309
f 279//310 278//310 280//310
f 280//311 278//311 281//311
f 280//312 281//312 282//312
f 282//313 281//313 283//313
f 282//314 283//314 284//314
f 284//315 283//315 285//315
f 285//316 283//316 286//316
f 285//317 286//317 287//317
f 287//318 286//318 288//318
f 287//319 288//319 289//319
f 289//320 288//320 178//320
f 289//321 178//321 180//321
f 166//322 165//322 232//322
f 168//323 169//323 227//323
f 160//324 164//324 182//324
f 300//325 308//325 301//325
f 301//325 308//325 312//325
f 312//325 308//325 313//325
f 313//325 308//325 306//325
f 313//325 306//325 314//325
f 314//325 306//325 315//325
f 315//325 306//325 307//325
f 315//325 307//325 316//325
f 316//325 307//325 309//325
f 316//325 309//325 317//325
f 317//325 309//325 318//325
f 318//325 309//325 310//325
f 318//325 310//325 319//325
f 319//325 310//325 320//325
f 320//325 310//325 311//325
f 320//325 311//325 291//325
f 291//325 311//325 290//325
f 290//325 311//325 299//325
f 175//198 301//198 173//198
f 173//198 301//198 312//198
f 173//198 312//198 172//198
f 172//198 312//198 321//198
f 172//198 321//198 296//198
f 296//198 174//198 172//198
f 296//326 321//326 295//326
f 295//327 321//327 180//327
f 295//327 180//327 294//327
f 294//193 180//193 179//193
f 29//325 305//325 28//325
f 28//325 305//325 304//325
f 28//325 304//325 159//325
f 159//325 304//325 302//325
f 159//325 302//325 323//325
f 323//325 302//325 29//325
f 29//325 302//325 303//325
f 29//325 303//325 305//325
f 152//328 324//328 29//328
f 29//328 324//328 323//328
f 152//329 151//329 324//329
f 324//329 151//329 325//329
f 325//330 151//330 150//330
f 325//331 150//331 322//331
f 322//332 150//332 101//332
f 322//333 101//333 100//333
f 235//333 234//333 297//333
f 297//334 234//334 292//334
f 297//334 292//334 298//334
f 298//329 292//329 293//329
f 326//335 327//335 328//335
f 328//335 327//335 329//335
f 328//335 329//335 330//335
f 330//335 329//335 331//335
f 330//335 331//335 332//335
f 332//335 331//335 333//335
f 332//335 333//335 334//335
f 334//335 333//335 335//335
f 334//335 335//335 336//335
f 336//335 335//335 337//335
f 336//335 337//335 338//335
f 338//335 337//335 339//335
f 338//335 339//335 340//335
f 340//336 339//336 341//336
f 340//335 341//335 342//335
f 342//335 341//335 343//335
f 342//335 343//335 344//335
f 344//337 343//337 345//337
f 344//335 345//335 346//335
f 346//335 345//335 347//335
f 346//335 347//335 348//335
f 348//335 347//335 349//335
f 348//335 349//335 350//335
f 350//338 349//338 351//338
f 350//335 351//335 352//335
f 352//338 351//338 353//338
f 352//335 353//335 354//335
f 354//337 353//337 178//337
f 354//335 178//335 355//335
f 355//335 178//335 356//335
f 355//335 356//335 357//335
f 357//335 356//335 358//335
f 357//335 358//335 359//335
f 359//335 358//335 360//335
f 359//335 360//335 361//335
f 361//339 360//339 362//339
f 361//335 362//335 363//335
f 363//335 362//335 364//335
f 363//335 364//335 365//335
f 365//339 364//339 366//339
f 365//335 366//335 367//335
f 367//335 366//335 368//335
f 367//335 368//335 369//335
f 369//335 368//335 370//335
f 369//335 370//335 371//335
f 371//335 370//335 372//335
f 371//335 372//335 373//335
f 373//335 372//335 374//335
f 373//335 374//335 375//335
f 375//335 374//335 376//335
f 375//335 376//335 377//335
f 377//335 376//335 378//335
f 377//335 378//335 379//335
f 379//335 378//335 380//335
f 379//335 380//335 381//335
f 381//335 380//335 382//335
f 381//335 382//335 383//335
f 383//335 382//335 384//335
f 383//335 384//335 385//335
f 385//335 384//335 386//335
f 385//335 386//335 387//335
f 387//339 386//339 388//339
f 387//335 388//335 389//335
f 389//335 388//335 390//335
f 389//335 390//335 391//335
f 391//338 390//338 392//338
f 391//335 392//335 393//335
f 393//335 392//335 394//335
f 393//335 394//335 395//335
f 395//335 394//335 396//335
f 395//335 396//335 397//335
f 397//337 396//337 398//337
f 397//335 398//335 399//335
f 399//337 398//337 400//337
f 399//335 400//335 401//335
f 401//338 400//338 402//338
f 401//335 402//335 403//335
f 403//335 402//335 404//335
f 403//335 404//335 405//335
f 405//335 404//335 406//335
f 405//335 406//335 407//335
f 407//335 406//335 408//335
f 407//335 408//335 409//335
f 409//336 408//336 410//336
f 409//335 410//335 411//335
f 411//335 410//335 412//335
f 411//335 412//335 413//335
f 413//336 412//336 414//336
f 413//335 414//335 415//335
f 415//335 414//335 416//335
f 415//335 416//335 417//335
f 417//335 416//335 418//335
f 417//335 418//335 419//335
f 419//335 418//335 420//335
f 419//335 420//335 326//335
f 326//335 420//335 327//335
