# Blender 4.0.2
# www.blender.org
o SICK-S300__m1
v 53.299999 -5.540740 -29.188190
v 50.799999 -5.540740 -29.188190
v 53.299999 -5.199999 -26.600000
v 50.799999 -5.199999 -26.600000
v 53.299999 -5.540741 -24.011810
v 50.799999 -5.540741 -24.011810
v 53.299999 -6.539745 -21.600000
v 50.799999 -6.539745 -21.600000
v 53.299999 -8.128931 -19.528931
v 50.799999 -8.128931 -19.528931
v 53.299999 -10.199999 -17.939751
v 50.799999 -10.199999 -17.939751
v 53.299999 -12.611809 -16.940741
v 50.799999 -12.611809 -16.940741
v 53.299999 -15.199999 -16.600000
v 50.799999 -15.199999 -16.600000
v 53.299999 -17.788191 -16.940741
v 50.799999 -17.788191 -16.940741
v 53.299999 -20.200001 -17.939751
v 50.799999 -20.200001 -17.939751
v 53.299999 -22.271070 -19.528933
v 50.799999 -22.271070 -19.528933
v 53.299999 -23.860260 -21.600002
v 50.799999 -23.860260 -21.600002
v 53.299999 -24.859259 -24.011812
v 50.799999 -24.859259 -24.011812
v 53.299999 -25.199999 -26.600002
v 50.799999 -25.199999 -26.600002
v 53.299999 -24.859259 -29.188192
v 50.799999 -24.859259 -29.188192
v 53.299999 -23.860258 -31.600002
v 50.799999 -23.860258 -31.600002
v 53.299999 -22.271069 -33.671070
v 50.799999 -22.271069 -33.671070
v 53.299999 -20.199999 -35.260250
v 50.799999 -20.199999 -35.260250
v 53.299999 -17.788189 -36.259258
v 50.799999 -17.788189 -36.259258
v 53.299999 -15.199998 -36.599998
v 50.799999 -15.199998 -36.599998
v 53.299999 -12.611808 -36.259258
v 50.799999 -12.611808 -36.259258
v 53.299999 -10.199998 -35.260250
v 50.799999 -10.199998 -35.260250
v 53.299999 -8.128930 -33.671070
v 50.799999 -8.128930 -33.671070
v 53.299999 -6.539744 -31.600000
v 50.799999 -6.539744 -31.600000
v 53.299999 -7.990157 -8.647668
v 50.799999 -7.990157 -8.647668
v 53.299999 -7.650000 -6.500000
v 50.799999 -7.650000 -6.500000
v 53.299999 -7.990157 -4.352333
v 50.799999 -7.990157 -4.352333
v 53.299999 -8.977333 -2.414892
v 50.799999 -8.977333 -2.414892
v 53.299999 -10.514890 -0.877332
v 50.799999 -10.514890 -0.877332
v 53.299999 -12.452330 0.109842
v 50.799999 -12.452330 0.109842
v 53.299999 -14.600000 0.449999
v 50.799999 -14.600000 0.449999
v 53.299999 -16.747669 0.109842
v 50.799999 -16.747669 0.109842
v 53.299999 -18.685110 -0.877333
v 50.799999 -18.685110 -0.877333
v 53.299999 -20.222670 -2.414893
v 50.799999 -20.222670 -2.414893
v 53.299999 -21.209841 -4.352333
v 50.799999 -21.209841 -4.352333
v 53.299999 -21.549999 -6.500001
v 50.799999 -21.549999 -6.500001
v 53.299999 -21.209841 -8.647669
v 50.799999 -21.209841 -8.647669
v 53.299999 -20.222670 -10.585111
v 50.799999 -20.222670 -10.585111
v 53.299999 -18.685110 -12.122671
v 50.799999 -18.685110 -12.122671
v 53.299999 -16.747669 -13.109841
v 50.799999 -16.747669 -13.109841
v 53.299999 -14.599999 -13.450001
v 50.799999 -14.599999 -13.450001
v 53.299999 -12.452329 -13.109841
v 50.799999 -12.452329 -13.109841
v 53.299999 -10.514889 -12.122670
v 50.799999 -10.514889 -12.122670
v 53.299999 -8.977333 -10.585110
v 50.799999 -8.977333 -10.585110
v 53.299999 -7.990158 9.152333
v 50.799999 -7.990158 9.152333
v 53.299999 -7.650001 11.300000
v 50.799999 -7.650001 11.300000
v 53.299999 -7.990158 13.447670
v 50.799999 -7.990158 13.447670
v 53.299999 -8.977334 15.385110
v 50.799999 -8.977334 15.385110
v 53.299999 -10.514891 16.922670
v 50.799999 -10.514891 16.922670
v 53.299999 -12.452331 17.909840
v 50.799999 -12.452331 17.909840
v 53.299999 -14.600001 18.250000
v 50.799999 -14.600001 18.250000
v 53.299999 -16.747669 17.909840
v 50.799999 -16.747669 17.909840
v 53.299999 -18.685110 16.922670
v 50.799999 -18.685110 16.922670
v 53.299999 -20.222670 15.385109
v 50.799999 -20.222670 15.385109
v 53.299999 -21.209841 13.447669
v 50.799999 -21.209841 13.447669
v 53.299999 -21.549999 11.299999
v 50.799999 -21.549999 11.299999
v 53.299999 -21.209841 9.152332
v 50.799999 -21.209841 9.152332
v 53.299999 -20.222670 7.214892
v 50.799999 -20.222670 7.214892
v 53.299999 -18.685110 5.677331
v 50.799999 -18.685110 5.677331
v 53.299999 -16.747669 4.690156
v 50.799999 -16.747669 4.690156
v 53.299999 -14.600000 4.349999
v 50.799999 -14.600000 4.349999
v 53.299999 -12.452330 4.690156
v 50.799999 -12.452330 4.690156
v 53.299999 -10.514890 5.677331
v 50.799999 -10.514890 5.677331
v 53.299999 -8.977333 7.214892
v 50.799999 -8.977333 7.214892
v 53.299999 -7.990158 26.952330
v 50.799999 -7.990158 26.952330
v 53.299999 -7.650002 29.100000
v 50.799999 -7.650002 29.100000
v 53.299999 -7.990159 31.247669
v 50.799999 -7.990159 31.247669
v 53.299999 -8.977335 33.185108
v 50.799999 -8.977335 33.185108
v 53.299999 -10.514892 34.722672
v 50.799999 -10.514892 34.722672
v 53.299999 -12.452332 35.709839
v 50.799999 -12.452332 35.709839
v 53.299999 -14.600002 36.049999
v 50.799999 -14.600002 36.049999
v 53.299999 -16.747671 35.709839
v 50.799999 -16.747671 35.709839
v 53.299999 -18.685112 34.722672
v 50.799999 -18.685112 34.722672
v 53.299999 -20.222672 33.185108
v 50.799999 -20.222672 33.185108
v 53.299999 -21.209843 31.247669
v 50.799999 -21.209843 31.247669
v 53.299999 -21.550001 29.100000
v 50.799999 -21.550001 29.100000
v 53.299999 -21.209843 26.952330
v 50.799999 -21.209843 26.952330
v 53.299999 -20.222672 25.014891
v 50.799999 -20.222672 25.014891
v 53.299999 -18.685112 23.477329
v 50.799999 -18.685112 23.477329
v 53.299999 -16.747671 22.490160
v 50.799999 -16.747671 22.490160
v 53.299999 -14.600001 22.150000
v 50.799999 -14.600001 22.150000
v 53.299999 -12.452331 22.490160
v 50.799999 -12.452331 22.490160
v 53.299999 -10.514891 23.477329
v 50.799999 -10.514891 23.477329
v 53.299999 -8.977334 25.014891
v 50.799999 -8.977334 25.014891
v 27.940741 -0.899999 -29.188190
v 27.940741 -3.399999 -29.188190
v 27.600000 -0.899999 -26.600000
v 27.600000 -3.399999 -26.600000
v 27.940741 -0.899999 -24.011810
v 27.940741 -3.399999 -24.011810
v 28.939751 -0.899999 -21.600000
v 28.939751 -3.399999 -21.600000
v 30.528931 -0.899999 -19.528931
v 30.528931 -3.399999 -19.528931
v 32.599998 -0.899999 -17.939751
v 32.599998 -3.399999 -17.939751
v 35.011810 -0.899999 -16.940741
v 35.011810 -3.399999 -16.940741
v 37.599998 -0.899999 -16.600000
v 37.599998 -3.399999 -16.600000
v 40.188190 -0.899999 -16.940741
v 40.188190 -3.399999 -16.940741
v 42.599998 -0.899999 -17.939751
v 42.599998 -3.399999 -17.939751
v 44.671070 -0.899999 -19.528931
v 44.671070 -3.399999 -19.528931
v 46.260250 -0.899999 -21.600000
v 46.260250 -3.399999 -21.600000
v 47.259258 -0.899999 -24.011810
v 47.259258 -3.399999 -24.011810
v 47.599998 -0.899999 -26.600000
v 47.599998 -3.399999 -26.600000
v 47.259258 -0.899999 -29.188190
v 47.259258 -3.399999 -29.188190
v 46.260250 -0.899999 -31.600000
v 46.260250 -3.399999 -31.600000
v 44.671070 -0.899998 -33.671070
v 44.671070 -3.399999 -33.671070
v 42.599998 -0.899998 -35.260250
v 42.599998 -3.399999 -35.260250
v 40.188190 -0.899998 -36.259258
v 40.188190 -3.399998 -36.259258
v 37.599998 -0.899998 -36.599998
v 37.599998 -3.399998 -36.599998
v 35.011810 -0.899998 -36.259258
v 35.011810 -3.399998 -36.259258
v 32.599998 -0.899998 -35.260250
v 32.599998 -3.399999 -35.260250
v 30.528931 -0.899998 -33.671070
v 30.528931 -3.399999 -33.671070
v 28.939751 -0.899999 -31.600000
v 28.939751 -3.399999 -31.600000
v 30.990160 -0.900000 -8.647668
v 30.990160 -3.400000 -8.647668
v 30.650000 -0.900000 -6.500000
v 30.650000 -3.400000 -6.500000
v 30.990160 -0.900000 -4.352332
v 30.990160 -3.400000 -4.352332
v 31.977329 -0.900000 -2.414892
v 31.977329 -3.400000 -2.414892
v 33.514889 -0.900000 -0.877332
v 33.514889 -3.400000 -0.877332
v 35.452332 -0.900000 0.109843
v 35.452332 -3.400000 0.109843
v 37.599998 -0.900000 0.450000
v 37.599998 -3.400000 0.450000
v 39.747662 -0.900000 0.109843
v 39.747662 -3.400000 0.109843
v 41.685108 -0.900000 -0.877332
v 41.685108 -3.400000 -0.877332
v 43.222672 -0.900000 -2.414892
v 43.222672 -3.400000 -2.414892
v 44.209839 -0.900000 -4.352332
v 44.209839 -3.400000 -4.352332
v 44.549999 -0.900000 -6.500000
v 44.549999 -3.400000 -6.500000
v 44.209839 -0.900000 -8.647668
v 44.209839 -3.400000 -8.647668
v 43.222672 -0.899999 -10.585110
v 43.222672 -3.400000 -10.585110
v 41.685108 -0.899999 -12.122670
v 41.685108 -3.400000 -12.122670
v 39.747662 -0.899999 -13.109840
v 39.747662 -3.400000 -13.109840
v 37.599998 -0.899999 -13.450000
v 37.599998 -3.400000 -13.450000
v 35.452332 -0.899999 -13.109840
v 35.452332 -3.400000 -13.109840
v 33.514889 -0.899999 -12.122670
v 33.514889 -3.400000 -12.122670
v 31.977329 -0.899999 -10.585110
v 31.977329 -3.400000 -10.585110
v 30.990160 -0.900000 9.152333
v 30.990160 -3.400001 9.152333
v 30.650000 -0.900000 11.300000
v 30.650000 -3.400001 11.300000
v 30.990160 -0.900001 13.447670
v 30.990160 -3.400001 13.447670
v 31.977329 -0.900001 15.385110
v 31.977329 -3.400001 15.385110
v 33.514889 -0.900001 16.922670
v 33.514889 -3.400001 16.922670
v 35.452332 -0.900001 17.909840
v 35.452332 -3.400001 17.909840
v 37.599998 -0.900001 18.250000
v 37.599998 -3.400001 18.250000
v 39.747662 -0.900001 17.909840
v 39.747662 -3.400001 17.909840
v 41.685108 -0.900001 16.922670
v 41.685108 -3.400001 16.922670
v 43.222672 -0.900001 15.385110
v 43.222672 -3.400001 15.385110
v 44.209839 -0.900001 13.447670
v 44.209839 -3.400001 13.447670
v 44.549999 -0.900000 11.300000
v 44.549999 -3.400001 11.300000
v 44.209839 -0.900000 9.152333
v 44.209839 -3.400001 9.152333
v 43.222672 -0.900000 7.214893
v 43.222672 -3.400000 7.214893
v 41.685108 -0.900000 5.677332
v 41.685108 -3.400000 5.677332
v 39.747662 -0.900000 4.690157
v 39.747662 -3.400000 4.690157
v 37.599998 -0.900000 4.350000
v 37.599998 -3.400000 4.350000
v 35.452332 -0.900000 4.690157
v 35.452332 -3.400000 4.690157
v 33.514889 -0.900000 5.677332
v 33.514889 -3.400000 5.677332
v 31.977329 -0.900000 7.214893
v 31.977329 -3.400000 7.214893
v 30.990160 -0.900001 26.952330
v 30.990160 -3.400001 26.952330
v 30.650000 -0.900001 29.100000
v 30.650000 -3.400001 29.100000
v 30.990160 -0.900001 31.247669
v 30.990160 -3.400002 31.247669
v 31.977329 -0.900001 33.185108
v 31.977329 -3.400002 33.185108
v 33.514889 -0.900001 34.722672
v 33.514889 -3.400002 34.722672
v 35.452332 -0.900002 35.709839
v 35.452332 -3.400002 35.709839
v 37.599998 -0.900002 36.049999
v 37.599998 -3.400002 36.049999
v 39.747662 -0.900002 35.709839
v 39.747662 -3.400002 35.709839
v 41.685108 -0.900001 34.722672
v 41.685108 -3.400002 34.722672
v 43.222672 -0.900001 33.185108
v 43.222672 -3.400002 33.185108
v 44.209839 -0.900001 31.247669
v 44.209839 -3.400002 31.247669
v 44.549999 -0.900001 29.100000
v 44.549999 -3.400001 29.100000
v 44.209839 -0.900001 26.952330
v 44.209839 -3.400001 26.952330
v 43.222672 -0.900001 25.014891
v 43.222672 -3.400001 25.014891
v 41.685108 -0.900001 23.477329
v 41.685108 -3.400001 23.477329
v 39.747662 -0.900001 22.490160
v 39.747662 -3.400001 22.490160
v 37.599998 -0.900001 22.150000
v 37.599998 -3.400001 22.150000
v 35.452332 -0.900001 22.490160
v 35.452332 -3.400001 22.490160
v 33.514889 -0.900001 23.477329
v 33.514889 -3.400001 23.477329
v 31.977329 -0.900001 25.014891
v 31.977329 -3.400001 25.014891
vn -0.0000 0.9914 -0.1305
vn -0.0000 0.9914 0.1305
vn -0.0000 0.9239 0.3827
vn -0.0000 0.7934 0.6088
vn -0.0000 0.6088 0.7934
vn -0.0000 0.3827 0.9239
vn -0.0000 0.1305 0.9914
vn -0.0000 -0.1305 0.9914
vn -0.0000 -0.3827 0.9239
vn -0.0000 -0.6088 0.7934
vn -0.0000 -0.7934 0.6088
vn -0.0000 -0.9239 0.3827
vn -0.0000 -0.9914 0.1305
vn -0.0000 -0.9914 -0.1305
vn -0.0000 -0.9239 -0.3827
vn -0.0000 -0.7934 -0.6088
vn -0.0000 -0.6088 -0.7934
vn -0.0000 -0.3827 -0.9239
vn -0.0000 -0.1305 -0.9914
vn -0.0000 0.1305 -0.9914
vn -0.0000 0.3827 -0.9239
vn -0.0000 0.6088 -0.7934
vn -0.0000 0.7934 -0.6088
vn -0.0000 0.9239 -0.3827
vn 1.0000 -0.0000 -0.0000
vn -0.0000 0.9877 -0.1564
vn -0.0000 0.9877 0.1564
vn -0.0000 0.8910 0.4540
vn -0.0000 0.7071 0.7071
vn -0.0000 0.4540 0.8910
vn -0.0000 0.1564 0.9877
vn -0.0000 -0.1564 0.9877
vn -0.0000 -0.4540 0.8910
vn -0.0000 -0.7071 0.7071
vn -0.0000 -0.8910 0.4540
vn -0.0000 -0.9877 0.1564
vn -0.0000 -0.9877 -0.1564
vn -0.0000 -0.8910 -0.4540
vn -0.0000 -0.7071 -0.7071
vn -0.0000 -0.4540 -0.8910
vn -0.0000 -0.1564 -0.9877
vn -0.0000 0.1564 -0.9877
vn -0.0000 0.4540 -0.8910
vn -0.0000 0.7071 -0.7071
vn -0.0000 0.8910 -0.4540
vn -0.9914 -0.0000 -0.1305
vn -0.9914 -0.0000 0.1305
vn -0.9239 -0.0000 0.3827
vn -0.7934 -0.0000 0.6088
vn -0.6088 -0.0000 0.7934
vn -0.3827 -0.0000 0.9239
vn -0.1305 -0.0000 0.9914
vn 0.1305 -0.0000 0.9914
vn 0.3827 -0.0000 0.9239
vn 0.6088 -0.0000 0.7934
vn 0.7934 -0.0000 0.6088
vn 0.9239 -0.0000 0.3827
vn 0.9914 -0.0000 0.1305
vn 0.9914 -0.0000 -0.1305
vn 0.9239 -0.0000 -0.3827
vn 0.7934 -0.0000 -0.6088
vn 0.6088 -0.0000 -0.7934
vn 0.3827 -0.0000 -0.9239
vn 0.1305 -0.0000 -0.9914
vn -0.1305 -0.0000 -0.9914
vn -0.3827 -0.0000 -0.9239
vn -0.6088 -0.0000 -0.7934
vn -0.7934 -0.0000 -0.6088
vn -0.9239 -0.0000 -0.3827
vn -0.0000 1.0000 -0.0000
vn -0.9877 -0.0000 -0.1564
vn -0.9877 -0.0000 0.1564
vn -0.8910 -0.0000 0.4540
vn -0.7071 -0.0000 0.7071
vn -0.4540 -0.0000 0.8910
vn -0.1564 -0.0000 0.9877
vn 0.1564 -0.0000 0.9877
vn 0.4540 -0.0000 0.8910
vn 0.7071 -0.0000 0.7071
vn 0.8910 -0.0000 0.4540
vn 0.9877 -0.0000 0.1564
vn 0.9877 -0.0000 -0.1564
vn 0.8910 -0.0000 -0.4540
vn 0.7071 -0.0000 -0.7071
vn 0.4540 -0.0000 -0.8910
vn 0.1564 -0.0000 -0.9877
vn -0.1564 -0.0000 -0.9877
vn -0.4540 -0.0000 -0.8910
vn -0.7071 -0.0000 -0.7071
vn -0.8910 -0.0000 -0.4540
s 0
f 1//1 2//1 3//1
f 3//1 2//1 4//1
f 3//2 4//2 5//2
f 5//2 4//2 6//2
f 5//3 6//3 7//3
f 7//3 6//3 8//3
f 7//4 8//4 9//4
f 9//4 8//4 10//4
f 9//5 10//5 11//5
f 11//5 10//5 12//5
f 11//6 12//6 13//6
f 13//6 12//6 14//6
f 13//7 14//7 15//7
f 15//7 14//7 16//7
f 15//8 16//8 17//8
f 17//8 16//8 18//8
f 17//9 18//9 19//9
f 19//9 18//9 20//9
f 19//10 20//10 21//10
f 21//10 20//10 22//10
f 21//11 22//11 23//11
f 23//11 22//11 24//11
f 23//12 24//12 25//12
f 25//12 24//12 26//12
f 25//13 26//13 27//13
f 27//13 26//13 28//13
f 27//14 28//14 29//14
f 29//14 28//14 30//14
f 29//15 30//15 31//15
f 31//15 30//15 32//15
f 31//16 32//16 33//16
f 33//16 32//16 34//16
f 33//17 34//17 35//17
f 35//17 34//17 36//17
f 35//18 36//18 37//18
f 37//18 36//18 38//18
f 37//19 38//19 39//19
f 39//19 38//19 40//19
f 39//20 40//20 41//20
f 41//20 40//20 42//20
f 41//21 42//21 43//21
f 43//21 42//21 44//21
f 43//22 44//22 45//22
f 45//22 44//22 46//22
f 45//23 46//23 47//23
f 47//23 46//23 48//23
f 47//24 48//24 1//24
f 1//24 48//24 2//24
f 5//25 25//25 3//25
f 3//25 25//25 27//25
f 3//25 27//25 1//25
f 1//25 27//25 29//25
f 1//25 29//25 47//25
f 47//25 29//25 31//25
f 47//25 31//25 45//25
f 45//25 31//25 33//25
f 45//25 33//25 43//25
f 43//25 33//25 35//25
f 43//25 35//25 41//25
f 41//25 35//25 37//25
f 41//25 37//25 39//25
f 25//25 5//25 23//25
f 23//25 5//25 7//25
f 23//25 7//25 21//25
f 21//25 7//25 9//25
f 21//25 9//25 19//25
f 19//25 9//25 11//25
f 19//25 11//25 17//25
f 17//25 11//25 13//25
f 17//25 13//25 15//25
f 49//26 50//26 51//26
f 51//26 50//26 52//26
f 51//27 52//27 53//27
f 53//27 52//27 54//27
f 53//28 54//28 55//28
f 55//28 54//28 56//28
f 55//29 56//29 57//29
f 57//29 56//29 58//29
f 57//30 58//30 59//30
f 59//30 58//30 60//30
f 59//31 60//31 61//31
f 61//31 60//31 62//31
f 61//32 62//32 63//32
f 63//32 62//32 64//32
f 63//33 64//33 65//33
f 65//33 64//33 66//33
f 65//34 66//34 67//34
f 67//34 66//34 68//34
f 67//35 68//35 69//35
f 69//35 68//35 70//35
f 69//36 70//36 71//36
f 71//36 70//36 72//36
f 71//37 72//37 73//37
f 73//37 72//37 74//37
f 73//38 74//38 75//38
f 75//38 74//38 76//38
f 75//39 76//39 77//39
f 77//39 76//39 78//39
f 77//40 78//40 79//40
f 79//40 78//40 80//40
f 79//41 80//41 81//41
f 81//41 80//41 82//41
f 81//42 82//42 83//42
f 83//42 82//42 84//42
f 83//43 84//43 85//43
f 85//43 84//43 86//43
f 85//44 86//44 87//44
f 87//44 86//44 88//44
f 87//45 88//45 49//45
f 49//45 88//45 50//45
f 53//25 69//25 51//25
f 51//25 69//25 71//25
f 51//25 71//25 49//25
f 49//25 71//25 73//25
f 49//25 73//25 87//25
f 87//25 73//25 75//25
f 87//25 75//25 85//25
f 85//25 75//25 77//25
f 85//25 77//25 83//25
f 83//25 77//25 79//25
f 83//25 79//25 81//25
f 69//25 53//25 67//25
f 67//25 53//25 55//25
f 67//25 55//25 65//25
f 65//25 55//25 57//25
f 65//25 57//25 63//25
f 63//25 57//25 59//25
f 63//25 59//25 61//25
f 89//26 90//26 91//26
f 91//26 90//26 92//26
f 91//27 92//27 93//27
f 93//27 92//27 94//27
f 93//28 94//28 95//28
f 95//28 94//28 96//28
f 95//29 96//29 97//29
f 97//29 96//29 98//29
f 97//30 98//30 99//30
f 99//30 98//30 100//30
f 99//31 100//31 101//31
f 101//31 100//31 102//31
f 101//32 102//32 103//32
f 103//32 102//32 104//32
f 103//33 104//33 105//33
f 105//33 104//33 106//33
f 105//34 106//34 107//34
f 107//34 106//34 108//34
f 107//35 108//35 109//35
f 109//35 108//35 110//35
f 109//36 110//36 111//36
f 111//36 110//36 112//36
f 111//37 112//37 113//37
f 113//37 112//37 114//37
f 113//38 114//38 115//38
f 115//38 114//38 116//38
f 115//39 116//39 117//39
f 117//39 116//39 118//39
f 117//40 118//40 119//40
f 119//40 118//40 120//40
f 119//41 120//41 121//41
f 121//41 120//41 122//41
f 121//42 122//42 123//42
f 123//42 122//42 124//42
f 123//43 124//43 125//43
f 125//43 124//43 126//43
f 125//44 126//44 127//44
f 127//44 126//44 128//44
f 127//45 128//45 89//45
f 89//45 128//45 90//45
f 93//25 109//25 91//25
f 91//25 109//25 111//25
f 91//25 111//25 89//25
f 89//25 111//25 113//25
f 89//25 113//25 127//25
f 127//25 113//25 115//25
f 127//25 115//25 125//25
f 125//25 115//25 117//25
f 125//25 117//25 123//25
f 123//25 117//25 119//25
f 123//25 119//25 121//25
f 109//25 93//25 107//25
f 107//25 93//25 95//25
f 107//25 95//25 105//25
f 105//25 95//25 97//25
f 105//25 97//25 103//25
f 103//25 97//25 99//25
f 103//25 99//25 101//25
f 129//26 130//26 131//26
f 131//26 130//26 132//26
f 131//27 132//27 133//27
f 133//27 132//27 134//27
f 133//28 134//28 135//28
f 135//28 134//28 136//28
f 135//29 136//29 137//29
f 137//29 136//29 138//29
f 137//30 138//30 139//30
f 139//30 138//30 140//30
f 139//31 140//31 141//31
f 141//31 140//31 142//31
f 141//32 142//32 143//32
f 143//32 142//32 144//32
f 143//33 144//33 145//33
f 145//33 144//33 146//33
f 145//34 146//34 147//34
f 147//34 146//34 148//34
f 147//35 148//35 149//35
f 149//35 148//35 150//35
f 149//36 150//36 151//36
f 151//36 150//36 152//36
f 151//37 152//37 153//37
f 153//37 152//37 154//37
f 153//38 154//38 155//38
f 155//38 154//38 156//38
f 155//39 156//39 157//39
f 157//39 156//39 158//39
f 157//40 158//40 159//40
f 159//40 158//40 160//40
f 159//41 160//41 161//41
f 161//41 160//41 162//41
f 161//42 162//42 163//42
f 163//42 162//42 164//42
f 163//43 164//43 165//43
f 165//43 164//43 166//43
f 165//44 166//44 167//44
f 167//44 166//44 168//44
f 167//45 168//45 129//45
f 129//45 168//45 130//45
f 133//25 149//25 131//25
f 131//25 149//25 151//25
f 131//25 151//25 129//25
f 129//25 151//25 153//25
f 129//25 153//25 167//25
f 167//25 153//25 155//25
f 167//25 155//25 165//25
f 165//25 155//25 157//25
f 165//25 157//25 163//25
f 163//25 157//25 159//25
f 163//25 159//25 161//25
f 149//25 133//25 147//25
f 147//25 133//25 135//25
f 147//25 135//25 145//25
f 145//25 135//25 137//25
f 145//25 137//25 143//25
f 143//25 137//25 139//25
f 143//25 139//25 141//25
f 169//46 170//46 171//46
f 171//46 170//46 172//46
f 171//47 172//47 173//47
f 173//47 172//47 174//47
f 173//48 174//48 175//48
f 175//48 174//48 176//48
f 175//49 176//49 177//49
f 177//49 176//49 178//49
f 177//50 178//50 179//50
f 179//50 178//50 180//50
f 179//51 180//51 181//51
f 181//51 180//51 182//51
f 181//52 182//52 183//52
f 183//52 182//52 184//52
f 183//53 184//53 185//53
f 185//53 184//53 186//53
f 185//54 186//54 187//54
f 187//54 186//54 188//54
f 187//55 188//55 189//55
f 189//55 188//55 190//55
f 189//56 190//56 191//56
f 191//56 190//56 192//56
f 191//57 192//57 193//57
f 193//57 192//57 194//57
f 193//58 194//58 195//58
f 195//58 194//58 196//58
f 195//59 196//59 197//59
f 197//59 196//59 198//59
f 197//60 198//60 199//60
f 199//60 198//60 200//60
f 199//61 200//61 201//61
f 201//61 200//61 202//61
f 201//62 202//62 203//62
f 203//62 202//62 204//62
f 203//63 204//63 205//63
f 205//63 204//63 206//63
f 205//64 206//64 207//64
f 207//64 206//64 208//64
f 207//65 208//65 209//65
f 209//65 208//65 210//65
f 209//66 210//66 211//66
f 211//66 210//66 212//66
f 211//67 212//67 213//67
f 213//67 212//67 214//67
f 213//68 214//68 215//68
f 215//68 214//68 216//68
f 215//69 216//69 169//69
f 169//69 216//69 170//69
f 173//70 193//70 171//70
f 171//70 193//70 195//70
f 171//70 195//70 169//70
f 169//70 195//70 197//70
f 169//70 197//70 215//70
f 215//70 197//70 199//70
f 215//70 199//70 213//70
f 213//70 199//70 201//70
f 213//70 201//70 211//70
f 211//70 201//70 203//70
f 211//70 203//70 209//70
f 209//70 203//70 205//70
f 209//70 205//70 207//70
f 193//70 173//70 191//70
f 191//70 173//70 175//70
f 191//70 175//70 189//70
f 189//70 175//70 177//70
f 189//70 177//70 187//70
f 187//70 177//70 179//70
f 187//70 179//70 185//70
f 185//70 179//70 181//70
f 185//70 181//70 183//70
f 217//71 218//71 219//71
f 219//71 218//71 220//71
f 219//72 220//72 221//72
f 221//72 220//72 222//72
f 221//73 222//73 223//73
f 223//73 222//73 224//73
f 223//74 224//74 225//74
f 225//74 224//74 226//74
f 225//75 226//75 227//75
f 227//75 226//75 228//75
f 227//76 228//76 229//76
f 229//76 228//76 230//76
f 229//77 230//77 231//77
f 231//77 230//77 232//77
f 231//78 232//78 233//78
f 233//78 232//78 234//78
f 233//79 234//79 235//79
f 235//79 234//79 236//79
f 235//80 236//80 237//80
f 237//80 236//80 238//80
f 237//81 238//81 239//81
f 239//81 238//81 240//81
f 239//82 240//82 241//82
f 241//82 240//82 242//82
f 241//83 242//83 243//83
f 243//83 242//83 244//83
f 243//84 244//84 245//84
f 245//84 244//84 246//84
f 245//85 246//85 247//85
f 247//85 246//85 248//85
f 247//86 248//86 249//86
f 249//86 248//86 250//86
f 249//87 250//87 251//87
f 251//87 250//87 252//87
f 251//88 252//88 253//88
f 253//88 252//88 254//88
f 253//89 254//89 255//89
f 255//89 254//89 256//89
f 255//90 256//90 217//90
f 217//90 256//90 218//90
f 221//70 237//70 219//70
f 219//70 237//70 239//70
f 219//70 239//70 217//70
f 217//70 239//70 241//70
f 217//70 241//70 255//70
f 255//70 241//70 243//70
f 255//70 243//70 253//70
f 253//70 243//70 245//70
f 253//70 245//70 251//70
f 251//70 245//70 247//70
f 251//70 247//70 249//70
f 237//70 221//70 235//70
f 235//70 221//70 223//70
f 235//70 223//70 233//70
f 233//70 223//70 225//70
f 233//70 225//70 231//70
f 231//70 225//70 227//70
f 231//70 227//70 229//70
f 257//71 258//71 259//71
f 259//71 258//71 260//71
f 259//72 260//72 261//72
f 261//72 260//72 262//72
f 261//73 262//73 263//73
f 263//73 262//73 264//73
f 263//74 264//74 265//74
f 265//74 264//74 266//74
f 265//75 266//75 267//75
f 267//75 266//75 268//75
f 267//76 268//76 269//76
f 269//76 268//76 270//76
f 269//77 270//77 271//77
f 271//77 270//77 272//77
f 271//78 272//78 273//78
f 273//78 272//78 274//78
f 273//79 274//79 275//79
f 275//79 274//79 276//79
f 275//80 276//80 277//80
f 277//80 276//80 278//80
f 277//81 278//81 279//81
f 279//81 278//81 280//81
f 279//82 280//82 281//82
f 281//82 280//82 282//82
f 281//83 282//83 283//83
f 283//83 282//83 284//83
f 283//84 284//84 285//84
f 285//84 284//84 286//84
f 285//85 286//85 287//85
f 287//85 286//85 288//85
f 287//86 288//86 289//86
f 289//86 288//86 290//86
f 289//87 290//87 291//87
f 291//87 290//87 292//87
f 291//88 292//88 293//88
f 293//88 292//88 294//88
f 293//89 294//89 295//89
f 295//89 294//89 296//89
f 295//90 296//90 257//90
f 257//90 296//90 258//90
f 261//70 277//70 259//70
f 259//70 277//70 279//70
f 259//70 279//70 257//70
f 257//70 279//70 281//70
f 257//70 281//70 295//70
f 295//70 281//70 283//70
f 295//70 283//70 293//70
f 293//70 283//70 285//70
f 293//70 285//70 291//70
f 291//70 285//70 287//70
f 291//70 287//70 289//70
f 277//70 261//70 275//70
f 275//70 261//70 263//70
f 275//70 263//70 273//70
f 273//70 263//70 265//70
f 273//70 265//70 271//70
f 271//70 265//70 267//70
f 271//70 267//70 269//70
f 297//71 298//71 299//71
f 299//71 298//71 300//71
f 299//72 300//72 301//72
f 301//72 300//72 302//72
f 301//73 302//73 303//73
f 303//73 302//73 304//73
f 303//74 304//74 305//74
f 305//74 304//74 306//74
f 305//75 306//75 307//75
f 307//75 306//75 308//75
f 307//76 308//76 309//76
f 309//76 308//76 310//76
f 309//77 310//77 311//77
f 311//77 310//77 312//77
f 311//78 312//78 313//78
f 313//78 312//78 314//78
f 313//79 314//79 315//79
f 315//79 314//79 316//79
f 315//80 316//80 317//80
f 317//80 316//80 318//80
f 317//81 318//81 319//81
f 319//81 318//81 320//81
f 319//82 320//82 321//82
f 321//82 320//82 322//82
f 321//83 322//83 323//83
f 323//83 322//83 324//83
f 323//84 324//84 325//84
f 325//84 324//84 326//84
f 325//85 326//85 327//85
f 327//85 326//85 328//85
f 327//86 328//86 329//86
f 329//86 328//86 330//86
f 329//87 330//87 331//87
f 331//87 330//87 332//87
f 331//88 332//88 333//88
f 333//88 332//88 334//88
f 333//89 334//89 335//89
f 335//89 334//89 336//89
f 335//90 336//90 297//90
f 297//90 336//90 298//90
f 301//70 317//70 299//70
f 299//70 317//70 319//70
f 299//70 319//70 297//70
f 297//70 319//70 321//70
f 297//70 321//70 335//70
f 335//70 321//70 323//70
f 335//70 323//70 333//70
f 333//70 323//70 325//70
f 333//70 325//70 331//70
f 331//70 325//70 327//70
f 331//70 327//70 329//70
f 317//70 301//70 315//70
f 315//70 301//70 303//70
f 315//70 303//70 313//70
f 313//70 303//70 305//70
f 313//70 305//70 311//70
f 311//70 305//70 307//70
f 311//70 307//70 309//70
