# Blender 4.0.2
# www.blender.org
o n_light
v -0.027800 -0.018800 0.000000
v -0.027800 -0.018800 0.018000
v -0.027800 0.018800 -0.000000
v -0.027800 0.018800 0.018000
v -0.021581 -0.027360 0.018000
v -0.026081 -0.024090 0.018000
v -0.024090 -0.026081 0.018000
v -0.018800 -0.027800 0.018000
v -0.027800 -0.018800 0.018000
v -0.027360 -0.021581 0.018000
v -0.027800 0.018800 0.018000
v -0.026081 0.024090 0.018000
v -0.027360 0.021581 0.018000
v 0.024090 -0.026081 0.018000
v 0.018800 -0.027800 0.018000
v 0.021581 -0.027360 0.018000
v 0.026081 -0.024090 0.018000
v -0.021581 0.027360 0.018000
v -0.024090 0.026081 0.018000
v 0.027800 -0.018800 0.018000
v 0.027360 -0.021581 0.018000
v -0.018800 0.027800 0.018000
v 0.018800 0.027800 0.018000
v 0.027800 0.018800 0.018000
v 0.024090 0.026081 0.018000
v 0.027360 0.021581 0.018000
v 0.026081 0.024090 0.018000
v 0.021581 0.027360 0.018000
v -0.027800 -0.018800 0.018000
v -0.027800 -0.018800 0.000000
v -0.027360 -0.021581 0.000000
v -0.027360 -0.021581 0.018000
v -0.027360 -0.021581 0.000000
v -0.026081 -0.024090 0.000000
v -0.027360 -0.021581 0.018000
v -0.026081 -0.024090 0.018000
v -0.024090 -0.026081 0.018000
v -0.026081 -0.024090 0.000000
v -0.024090 -0.026081 0.000000
v -0.024090 -0.026081 0.018000
v -0.024090 -0.026081 0.000000
v -0.021581 -0.027360 0.000000
v -0.026081 -0.024090 0.018000
v -0.021581 -0.027360 0.018000
v -0.018800 -0.027800 0.018000
v -0.021581 -0.027360 0.000000
v -0.018800 -0.027800 0.000000
v -0.021581 -0.027360 0.018000
v -0.027800 0.018800 -0.000000
v -0.027800 0.018800 0.018000
v -0.027360 0.021581 -0.000000
v -0.027360 0.021581 -0.000000
v -0.027360 0.021581 0.018000
v -0.026081 0.024090 -0.000000
v -0.027360 0.021581 0.018000
v -0.026081 0.024090 0.018000
v -0.026081 0.024090 -0.000000
v -0.024090 0.026081 0.018000
v -0.024090 0.026081 -0.000000
v -0.024090 0.026081 -0.000000
v -0.024090 0.026081 0.018000
v -0.021581 0.027360 -0.000000
v -0.026081 0.024090 0.018000
v -0.021581 0.027360 0.018000
v -0.021581 0.027360 -0.000000
v -0.018800 0.027800 0.018000
v -0.018800 0.027800 -0.000000
v -0.021581 0.027360 0.018000
v -0.026081 -0.024090 0.000000
v -0.021581 -0.027360 0.000000
v -0.024090 -0.026081 0.000000
v -0.027800 -0.018800 0.000000
v -0.018800 -0.027800 0.000000
v -0.027360 -0.021581 0.000000
v -0.027800 0.018800 -0.000000
v -0.027360 0.021581 -0.000000
v -0.026081 0.024090 -0.000000
v 0.018800 -0.027800 0.000000
v 0.024090 -0.026081 0.000000
v 0.021581 -0.027360 0.000000
v 0.026081 -0.024090 0.000000
v -0.024090 0.026081 -0.000000
v -0.021581 0.027360 -0.000000
v 0.027800 -0.018800 0.000000
v 0.027360 -0.021581 0.000000
v -0.018800 0.027800 -0.000000
v 0.018800 0.027800 -0.000000
v 0.027800 0.018800 -0.000000
v 0.024090 0.026081 -0.000000
v 0.027360 0.021581 -0.000000
v 0.026081 0.024090 -0.000000
v 0.021581 0.027360 -0.000000
v 0.018800 -0.027800 0.000000
v 0.018800 -0.027800 0.018000
v -0.018800 -0.027800 0.000000
v -0.018800 -0.027800 0.018000
v 0.018800 0.027800 0.018000
v 0.018800 0.027800 -0.000000
v -0.018800 0.027800 -0.000000
v -0.018800 0.027800 0.018000
v 0.027800 -0.018800 0.000000
v 0.027800 -0.018800 0.018000
v 0.027360 -0.021581 0.000000
v 0.027360 -0.021581 0.000000
v 0.027360 -0.021581 0.018000
v 0.026081 -0.024090 0.000000
v 0.027360 -0.021581 0.018000
v 0.026081 -0.024090 0.018000
v 0.026081 -0.024090 0.000000
v 0.024090 -0.026081 0.018000
v 0.024090 -0.026081 0.000000
v 0.024090 -0.026081 0.000000
v 0.024090 -0.026081 0.018000
v 0.021581 -0.027360 0.000000
v 0.026081 -0.024090 0.018000
v 0.021581 -0.027360 0.018000
v 0.021581 -0.027360 0.000000
v 0.018800 -0.027800 0.018000
v 0.018800 -0.027800 0.000000
v 0.021581 -0.027360 0.018000
v 0.027800 0.018800 0.018000
v 0.027800 0.018800 -0.000000
v 0.027360 0.021581 -0.000000
v 0.027360 0.021581 0.018000
v 0.027360 0.021581 -0.000000
v 0.026081 0.024090 -0.000000
v 0.027360 0.021581 0.018000
v 0.026081 0.024090 0.018000
v 0.024090 0.026081 0.018000
v 0.026081 0.024090 -0.000000
v 0.024090 0.026081 -0.000000
v 0.024090 0.026081 0.018000
v 0.024090 0.026081 -0.000000
v 0.021581 0.027360 -0.000000
v 0.026081 0.024090 0.018000
v 0.021581 0.027360 0.018000
v 0.018800 0.027800 0.018000
v 0.021581 0.027360 -0.000000
v 0.018800 0.027800 -0.000000
v 0.021581 0.027360 0.018000
v 0.027800 -0.018800 0.018000
v 0.027800 -0.018800 0.000000
v 0.027800 0.018800 -0.000000
v 0.027800 0.018800 0.018000
vn -1.0000 -0.0000 -0.0000
vn -0.0000 -0.0000 1.0000
vn -0.9877 -0.1564 -0.0000
vn -0.8910 -0.4540 -0.0000
vn -0.7071 -0.7071 -0.0000
vn -0.4540 -0.8910 -0.0000
vn -0.1564 -0.9877 -0.0000
vn -0.9877 0.1564 -0.0000
vn -0.8910 0.4540 -0.0000
vn -0.7071 0.7071 -0.0000
vn -0.4540 0.8910 -0.0000
vn -0.1564 0.9877 -0.0000
vn -0.0000 -0.0000 -1.0000
vn -0.0000 -1.0000 -0.0000
vn -0.0000 1.0000 -0.0000
vn 0.9877 -0.1564 -0.0000
vn 0.8910 -0.4540 -0.0000
vn 0.7071 -0.7071 -0.0000
vn 0.4540 -0.8910 -0.0000
vn 0.1564 -0.9877 -0.0000
vn 0.9877 0.1564 -0.0000
vn 0.8910 0.4540 -0.0000
vn 0.7071 0.7071 -0.0000
vn 0.4540 0.8910 -0.0000
vn 0.1564 0.9877 -0.0000
vn 1.0000 -0.0000 -0.0000
s 0
f 1//1 2//1 3//1
f 3//1 2//1 4//1
f 5//2 6//2 7//2
f 8//2 9//2 10//2
f 8//2 10//2 6//2
f 8//2 6//2 5//2
f 11//2 9//2 8//2
f 12//2 13//2 11//2
f 14//2 15//2 16//2
f 17//2 15//2 14//2
f 18//2 19//2 12//2
f 18//2 12//2 11//2
f 20//2 17//2 21//2
f 20//2 15//2 17//2
f 22//2 18//2 11//2
f 23//2 8//2 15//2
f 23//2 11//2 8//2
f 23//2 22//2 11//2
f 24//2 15//2 20//2
f 24//2 23//2 15//2
f 25//2 24//2 26//2
f 25//2 26//2 27//2
f 25//2 28//2 23//2
f 25//2 23//2 24//2
f 29//3 30//3 31//3
f 32//4 33//4 34//4
f 35//3 29//3 31//3
f 36//4 32//4 34//4
f 37//5 38//5 39//5
f 40//6 41//6 42//6
f 37//5 43//5 38//5
f 44//6 40//6 42//6
f 45//7 46//7 47//7
f 45//7 48//7 46//7
f 49//8 50//8 51//8
f 52//9 53//9 54//9
f 50//8 55//8 51//8
f 53//9 56//9 54//9
f 57//10 58//10 59//10
f 60//11 61//11 62//11
f 63//10 58//10 57//10
f 61//11 64//11 62//11
f 65//12 66//12 67//12
f 68//12 66//12 65//12
f 69//13 70//13 71//13
f 72//13 73//13 74//13
f 74//13 73//13 69//13
f 69//13 73//13 70//13
f 72//13 75//13 73//13
f 76//13 77//13 75//13
f 78//13 79//13 80//13
f 78//13 81//13 79//13
f 82//13 83//13 77//13
f 77//13 83//13 75//13
f 81//13 84//13 85//13
f 78//13 84//13 81//13
f 83//13 86//13 75//13
f 73//13 87//13 78//13
f 75//13 87//13 73//13
f 86//13 87//13 75//13
f 78//13 88//13 84//13
f 87//13 88//13 78//13
f 88//13 89//13 90//13
f 90//13 89//13 91//13
f 92//13 89//13 87//13
f 87//13 89//13 88//13
f 93//14 94//14 95//14
f 95//14 94//14 96//14
f 97//15 98//15 99//15
f 97//15 99//15 100//15
f 101//16 102//16 103//16
f 104//17 105//17 106//17
f 102//16 107//16 103//16
f 105//17 108//17 106//17
f 109//18 110//18 111//18
f 112//19 113//19 114//19
f 115//18 110//18 109//18
f 113//19 116//19 114//19
f 117//20 118//20 119//20
f 120//20 118//20 117//20
f 121//21 122//21 123//21
f 124//22 125//22 126//22
f 127//21 121//21 123//21
f 128//22 124//22 126//22
f 129//23 130//23 131//23
f 132//24 133//24 134//24
f 129//23 135//23 130//23
f 136//24 132//24 134//24
f 137//25 138//25 139//25
f 137//25 140//25 138//25
f 141//26 142//26 143//26
f 141//26 143//26 144//26
