# Blender 4.0.2
# www.blender.org
o n_dark
v -0.027800 -0.018800 0.018000
v -0.027800 -0.018800 0.023100
v -0.027800 0.018800 0.018000
v -0.027800 0.018800 0.023100
v -0.021581 -0.027360 0.023100
v -0.026081 -0.024090 0.023100
v -0.024090 -0.026081 0.023100
v -0.018800 -0.027800 0.023100
v -0.027800 -0.018800 0.023100
v -0.027360 -0.021581 0.023100
v -0.027800 0.018800 0.023100
v -0.026081 0.024090 0.023100
v -0.027360 0.021581 0.023100
v 0.024090 -0.026081 0.023100
v 0.018800 -0.027800 0.023100
v 0.021581 -0.027360 0.023100
v 0.026081 -0.024090 0.023100
v -0.021581 0.027360 0.023100
v -0.024090 0.026081 0.023100
v 0.027800 -0.018800 0.023100
v 0.027360 -0.021581 0.023100
v -0.018800 0.027800 0.023100
v 0.018800 0.027800 0.023100
v 0.027800 0.018800 0.023100
v 0.024090 0.026081 0.023100
v 0.027360 0.021581 0.023100
v 0.026081 0.024090 0.023100
v 0.021581 0.027360 0.023100
v -0.027360 -0.021581 0.023100
v -0.027800 -0.018800 0.018000
v -0.027360 -0.021581 0.018000
v -0.027800 -0.018800 0.023100
v -0.026081 -0.024090 0.023100
v -0.027360 -0.021581 0.018000
v -0.026081 -0.024090 0.018000
v -0.027360 -0.021581 0.023100
v -0.024090 -0.026081 0.023100
v -0.026081 -0.024090 0.018000
v -0.024090 -0.026081 0.018000
v -0.026081 -0.024090 0.023100
v -0.021581 -0.027360 0.023100
v -0.024090 -0.026081 0.018000
v -0.021581 -0.027360 0.018000
v -0.024090 -0.026081 0.023100
v -0.018800 -0.027800 0.023100
v -0.021581 -0.027360 0.018000
v -0.018800 -0.027800 0.018000
v -0.021581 -0.027360 0.023100
v -0.027800 0.018800 0.018000
v -0.027360 0.021581 0.023100
v -0.027360 0.021581 0.018000
v -0.027800 0.018800 0.023100
v -0.027360 0.021581 0.018000
v -0.026081 0.024090 0.023100
v -0.026081 0.024090 0.018000
v -0.027360 0.021581 0.023100
v -0.026081 0.024090 0.018000
v -0.024090 0.026081 0.023100
v -0.024090 0.026081 0.018000
v -0.026081 0.024090 0.023100
v -0.024090 0.026081 0.018000
v -0.021581 0.027360 0.023100
v -0.021581 0.027360 0.018000
v -0.024090 0.026081 0.023100
v -0.021581 0.027360 0.018000
v -0.018800 0.027800 0.023100
v -0.018800 0.027800 0.018000
v -0.021581 0.027360 0.023100
v -0.026081 -0.024090 0.018000
v -0.021581 -0.027360 0.018000
v -0.024090 -0.026081 0.018000
v -0.027800 -0.018800 0.018000
v -0.018800 -0.027800 0.018000
v -0.027360 -0.021581 0.018000
v -0.027800 0.018800 0.018000
v -0.027360 0.021581 0.018000
v -0.026081 0.024090 0.018000
v 0.018800 -0.027800 0.018000
v 0.024090 -0.026081 0.018000
v 0.021581 -0.027360 0.018000
v 0.026081 -0.024090 0.018000
v -0.024090 0.026081 0.018000
v -0.021581 0.027360 0.018000
v 0.027800 -0.018800 0.018000
v 0.027360 -0.021581 0.018000
v -0.018800 0.027800 0.018000
v 0.018800 0.027800 0.018000
v 0.027800 0.018800 0.018000
v 0.024090 0.026081 0.018000
v 0.027360 0.021581 0.018000
v 0.026081 0.024090 0.018000
v 0.021581 0.027360 0.018000
v 0.018800 -0.027800 0.018000
v 0.018800 -0.027800 0.023100
v -0.018800 -0.027800 0.018000
v -0.018800 -0.027800 0.023100
v 0.018800 0.027800 0.023100
v 0.018800 0.027800 0.018000
v -0.018800 0.027800 0.018000
v -0.018800 0.027800 0.023100
v 0.027800 -0.018800 0.018000
v 0.027360 -0.021581 0.023100
v 0.027360 -0.021581 0.018000
v 0.027800 -0.018800 0.023100
v 0.027360 -0.021581 0.018000
v 0.026081 -0.024090 0.023100
v 0.026081 -0.024090 0.018000
v 0.027360 -0.021581 0.023100
v 0.026081 -0.024090 0.018000
v 0.024090 -0.026081 0.023100
v 0.024090 -0.026081 0.018000
v 0.026081 -0.024090 0.023100
v 0.024090 -0.026081 0.018000
v 0.021581 -0.027360 0.023100
v 0.021581 -0.027360 0.018000
v 0.024090 -0.026081 0.023100
v 0.021581 -0.027360 0.018000
v 0.018800 -0.027800 0.023100
v 0.018800 -0.027800 0.018000
v 0.021581 -0.027360 0.023100
v 0.027360 0.021581 0.023100
v 0.027800 0.018800 0.018000
v 0.027360 0.021581 0.018000
v 0.027800 0.018800 0.023100
v 0.026081 0.024090 0.023100
v 0.027360 0.021581 0.018000
v 0.026081 0.024090 0.018000
v 0.027360 0.021581 0.023100
v 0.024090 0.026081 0.023100
v 0.026081 0.024090 0.018000
v 0.024090 0.026081 0.018000
v 0.026081 0.024090 0.023100
v 0.021581 0.027360 0.023100
v 0.024090 0.026081 0.018000
v 0.021581 0.027360 0.018000
v 0.024090 0.026081 0.023100
v 0.018800 0.027800 0.023100
v 0.021581 0.027360 0.018000
v 0.018800 0.027800 0.018000
v 0.021581 0.027360 0.023100
v 0.027800 -0.018800 0.023100
v 0.027800 -0.018800 0.018000
v 0.027800 0.018800 0.018000
v 0.027800 0.018800 0.023100
v 0.024073 0.006745 0.039800
v 0.025000 0.000000 0.039800
v 0.025000 0.000000 0.023100
v 0.024073 0.006745 0.023100
v 0.021360 0.012990 0.039800
v 0.024073 0.006745 0.023100
v 0.021360 0.012990 0.023100
v 0.024073 0.006745 0.039800
v 0.017064 0.018271 0.039800
v 0.021360 0.012990 0.023100
v 0.017064 0.018271 0.023100
v 0.017064 0.018271 0.039800
v 0.017064 0.018271 0.023100
v 0.011502 0.022197 0.023100
v 0.021360 0.012990 0.039800
v 0.011502 0.022197 0.039800
v 0.005086 0.024477 0.039800
v 0.011502 0.022197 0.023100
v 0.005086 0.024477 0.023100
v 0.011502 0.022197 0.039800
v -0.001706 0.024942 0.039800
v 0.005086 0.024477 0.023100
v -0.001706 0.024942 0.023100
v 0.005086 0.024477 0.039800
v -0.008372 0.023557 0.039800
v -0.001706 0.024942 0.023100
v -0.008372 0.023557 0.023100
v -0.008372 0.023557 0.039800
v -0.008372 0.023557 0.023100
v -0.014417 0.020424 0.023100
v -0.001706 0.024942 0.039800
v -0.014417 0.020424 0.039800
v -0.019393 0.015777 0.039800
v -0.014417 0.020424 0.023100
v -0.019393 0.015777 0.023100
v -0.014417 0.020424 0.039800
v -0.022930 0.009960 0.039800
v -0.019393 0.015777 0.023100
v -0.022930 0.009960 0.023100
v -0.019393 0.015777 0.039800
v -0.024767 0.003404 0.039800
v -0.022930 0.009960 0.023100
v -0.024767 0.003404 0.023100
v -0.022930 0.009960 0.039800
v -0.024767 -0.003404 0.039800
v -0.024767 0.003404 0.023100
v -0.024767 -0.003404 0.023100
v -0.024767 0.003404 0.039800
v -0.022930 -0.009960 0.039800
v -0.024767 -0.003404 0.039800
v -0.024767 -0.003404 0.023100
v -0.022930 -0.009960 0.023100
v -0.019393 -0.015777 0.039800
v -0.022930 -0.009960 0.039800
v -0.022930 -0.009960 0.023100
v -0.019393 -0.015777 0.023100
v -0.019393 -0.015777 0.039800
v -0.019393 -0.015777 0.023100
v -0.014417 -0.020424 0.023100
v -0.014417 -0.020424 0.039800
v -0.014417 -0.020424 0.023100
v -0.008372 -0.023557 0.023100
v -0.014417 -0.020424 0.039800
v -0.008372 -0.023557 0.039800
v -0.001706 -0.024942 0.039800
v -0.008372 -0.023557 0.039800
v -0.008372 -0.023557 0.023100
v -0.001706 -0.024942 0.023100
v 0.005086 -0.024477 0.039800
v -0.001706 -0.024942 0.039800
v -0.001706 -0.024942 0.023100
v 0.005086 -0.024477 0.023100
v 0.011502 -0.022197 0.039800
v 0.005086 -0.024477 0.039800
v 0.005086 -0.024477 0.023100
v 0.011502 -0.022197 0.023100
v 0.017064 -0.018271 0.039800
v 0.011502 -0.022197 0.039800
v 0.011502 -0.022197 0.023100
v 0.017064 -0.018271 0.023100
v 0.021360 -0.012990 0.039800
v 0.017064 -0.018271 0.039800
v 0.017064 -0.018271 0.023100
v 0.021360 -0.012990 0.023100
v 0.024073 -0.006745 0.039800
v 0.021360 -0.012990 0.039800
v 0.021360 -0.012990 0.023100
v 0.024073 -0.006745 0.023100
v 0.025000 0.000000 0.039800
v 0.024073 -0.006745 0.039800
v 0.024073 -0.006745 0.023100
v 0.025000 0.000000 0.023100
v 0.024073 0.006745 0.039800
v 0.023500 0.000000 0.041300
v 0.025000 0.000000 0.039800
v 0.022548 0.006621 0.041300
v 0.023500 0.000000 0.041300
v 0.024073 0.006745 0.039800
v 0.021360 0.012990 0.039800
v 0.022548 0.006621 0.041300
v 0.024073 0.006745 0.039800
v 0.019769 0.012705 0.041300
v 0.022548 0.006621 0.041300
v 0.021360 0.012990 0.039800
v 0.017064 0.018271 0.039800
v 0.019769 0.012705 0.041300
v 0.021360 0.012990 0.039800
v 0.015389 0.017760 0.041300
v 0.019769 0.012705 0.041300
v 0.017064 0.018271 0.039800
v 0.011502 0.022197 0.039800
v 0.015389 0.017760 0.041300
v 0.017064 0.018271 0.039800
v 0.009762 0.021376 0.041300
v 0.015389 0.017760 0.041300
v 0.011502 0.022197 0.039800
v 0.005086 0.024477 0.039800
v 0.009762 0.021376 0.041300
v 0.011502 0.022197 0.039800
v 0.003344 0.023261 0.041300
v 0.009762 0.021376 0.041300
v 0.005086 0.024477 0.039800
v -0.001706 0.024942 0.039800
v 0.003344 0.023261 0.041300
v 0.005086 0.024477 0.039800
v -0.003344 0.023261 0.041300
v 0.003344 0.023261 0.041300
v -0.001706 0.024942 0.039800
v -0.008372 0.023557 0.039800
v -0.003344 0.023261 0.041300
v -0.001706 0.024942 0.039800
v -0.009762 0.021376 0.041300
v -0.003344 0.023261 0.041300
v -0.008372 0.023557 0.039800
v -0.014417 0.020424 0.039800
v -0.009762 0.021376 0.041300
v -0.008372 0.023557 0.039800
v -0.015389 0.017760 0.041300
v -0.009762 0.021376 0.041300
v -0.014417 0.020424 0.039800
v -0.019393 0.015777 0.039800
v -0.015389 0.017760 0.041300
v -0.014417 0.020424 0.039800
v -0.019769 0.012705 0.041300
v -0.015389 0.017760 0.041300
v -0.019393 0.015777 0.039800
v -0.022930 0.009960 0.039800
v -0.019769 0.012705 0.041300
v -0.019393 0.015777 0.039800
v -0.022548 0.006621 0.041300
v -0.019769 0.012705 0.041300
v -0.022930 0.009960 0.039800
v -0.024767 0.003404 0.039800
v -0.022548 0.006621 0.041300
v -0.022930 0.009960 0.039800
v -0.023500 0.000000 0.041300
v -0.022548 0.006621 0.041300
v -0.024767 0.003404 0.039800
v -0.024767 -0.003404 0.039800
v -0.023500 0.000000 0.041300
v -0.024767 0.003404 0.039800
v -0.022548 -0.006621 0.041300
v -0.023500 0.000000 0.041300
v -0.024767 -0.003404 0.039800
v -0.022930 -0.009960 0.039800
v -0.022548 -0.006621 0.041300
v -0.024767 -0.003404 0.039800
v -0.019769 -0.012705 0.041300
v -0.022548 -0.006621 0.041300
v -0.022930 -0.009960 0.039800
v -0.019393 -0.015777 0.039800
v -0.019769 -0.012705 0.041300
v -0.022930 -0.009960 0.039800
v -0.015389 -0.017760 0.041300
v -0.019769 -0.012705 0.041300
v -0.019393 -0.015777 0.039800
v -0.014417 -0.020424 0.039800
v -0.015389 -0.017760 0.041300
v -0.019393 -0.015777 0.039800
v -0.009762 -0.021376 0.041300
v -0.015389 -0.017760 0.041300
v -0.014417 -0.020424 0.039800
v -0.009762 -0.021376 0.041300
v -0.014417 -0.020424 0.039800
v -0.008372 -0.023557 0.039800
v -0.003344 -0.023261 0.041300
v -0.009762 -0.021376 0.041300
v -0.008372 -0.023557 0.039800
v -0.003344 -0.023261 0.041300
v -0.008372 -0.023557 0.039800
v -0.001706 -0.024942 0.039800
v 0.003344 -0.023261 0.041300
v -0.001706 -0.024942 0.039800
v 0.005086 -0.024477 0.039800
v 0.003344 -0.023261 0.041300
v -0.003344 -0.023261 0.041300
v -0.001706 -0.024942 0.039800
v 0.009762 -0.021376 0.041300
v 0.005086 -0.024477 0.039800
v 0.011502 -0.022197 0.039800
v 0.009762 -0.021376 0.041300
v 0.003344 -0.023261 0.041300
v 0.005086 -0.024477 0.039800
v 0.015389 -0.017760 0.041300
v 0.011502 -0.022197 0.039800
v 0.017064 -0.018271 0.039800
v 0.015389 -0.017760 0.041300
v 0.009762 -0.021376 0.041300
v 0.011502 -0.022197 0.039800
v 0.019769 -0.012705 0.041300
v 0.017064 -0.018271 0.039800
v 0.021360 -0.012990 0.039800
v 0.019769 -0.012705 0.041300
v 0.015389 -0.017760 0.041300
v 0.017064 -0.018271 0.039800
v 0.022548 -0.006621 0.041300
v 0.021360 -0.012990 0.039800
v 0.024073 -0.006745 0.039800
v 0.022548 -0.006621 0.041300
v 0.019769 -0.012705 0.041300
v 0.021360 -0.012990 0.039800
v 0.023500 0.000000 0.041300
v 0.024073 -0.006745 0.039800
v 0.025000 0.000000 0.039800
v 0.023500 0.000000 0.041300
v 0.022548 -0.006621 0.041300
v 0.024073 -0.006745 0.039800
v -0.019393 -0.015777 0.023100
v -0.022930 -0.009960 0.023100
v -0.014417 -0.020424 0.023100
v -0.008372 -0.023557 0.023100
v 0.005086 -0.024477 0.023100
v -0.001706 -0.024942 0.023100
v -0.022930 0.009960 0.023100
v -0.019393 0.015777 0.023100
v -0.024767 0.003404 0.023100
v -0.024767 -0.003404 0.023100
v 0.017064 -0.018271 0.023100
v 0.011502 -0.022197 0.023100
v -0.014417 0.020424 0.023100
v -0.008372 0.023557 0.023100
v -0.001706 0.024942 0.023100
v 0.025000 0.000000 0.023100
v 0.021360 -0.012990 0.023100
v 0.024073 -0.006745 0.023100
v 0.005086 0.024477 0.023100
v 0.017064 0.018271 0.023100
v 0.024073 0.006745 0.023100
v 0.021360 0.012990 0.023100
v 0.011502 0.022197 0.023100
v -0.022548 -0.006621 0.041300
v -0.019769 -0.012705 0.041300
v -0.015389 -0.017760 0.041300
v -0.009762 -0.021376 0.041300
v -0.022548 0.006621 0.041300
v -0.023500 0.000000 0.041300
v 0.015389 -0.017760 0.041300
v 0.003344 -0.023261 0.041300
v 0.009762 -0.021376 0.041300
v -0.015389 0.017760 0.041300
v -0.019769 0.012705 0.041300
v 0.022548 -0.006621 0.041300
v 0.019769 -0.012705 0.041300
v -0.003344 0.023261 0.041300
v -0.009762 0.021376 0.041300
v -0.003344 -0.023261 0.041300
v 0.003344 0.023261 0.041300
v 0.009762 0.021376 0.041300
v 0.019769 0.012705 0.041300
v 0.023500 0.000000 0.041300
v 0.022548 0.006621 0.041300
v 0.015389 0.017760 0.041300
vn -1.0000 -0.0000 -0.0000
vn -0.0000 -0.0000 1.0000
vn -0.9877 -0.1564 -0.0000
vn -0.8910 -0.4540 -0.0000
vn -0.7071 -0.7071 -0.0000
vn -0.4540 -0.8910 -0.0000
vn -0.1564 -0.9877 -0.0000
vn -0.9877 0.1564 -0.0000
vn -0.8910 0.4540 -0.0000
vn -0.7071 0.7071 -0.0000
vn -0.4540 0.8910 -0.0000
vn -0.1564 0.9877 -0.0000
vn -0.0000 -0.0000 -1.0000
vn -0.0000 -1.0000 -0.0000
vn -0.0000 1.0000 -0.0000
vn 0.9877 -0.1564 -0.0000
vn 0.8910 -0.4540 -0.0000
vn 0.7071 -0.7071 -0.0000
vn 0.4540 -0.8910 -0.0000
vn 0.1564 -0.9877 -0.0000
vn 0.9877 0.1564 -0.0000
vn 0.8910 0.4540 -0.0000
vn 0.7071 0.7071 -0.0000
vn 0.4540 0.8910 -0.0000
vn 0.1564 0.9877 -0.0000
vn 1.0000 -0.0000 -0.0000
vn 0.9907 0.1362 -0.0000
vn 0.9172 0.3984 -0.0000
vn 0.7757 0.6311 -0.0000
vn 0.5767 0.8170 -0.0000
vn 0.3349 0.9423 -0.0000
vn 0.0682 0.9977 -0.0000
vn -0.2035 0.9791 -0.0000
vn -0.4601 0.8879 -0.0000
vn -0.6826 0.7308 -0.0000
vn -0.8544 0.5196 -0.0000
vn -0.9629 0.2698 -0.0000
vn -0.9629 -0.2698 -0.0000
vn -0.8544 -0.5196 -0.0000
vn -0.6826 -0.7308 -0.0000
vn -0.4601 -0.8879 -0.0000
vn -0.2035 -0.9791 -0.0000
vn 0.0682 -0.9977 -0.0000
vn 0.3349 -0.9423 -0.0000
vn 0.5767 -0.8170 -0.0000
vn 0.7757 -0.6311 -0.0000
vn 0.9172 -0.3984 -0.0000
vn 0.9907 -0.1362 -0.0000
vn 0.7038 0.0967 0.7038
vn 0.6936 0.0997 0.7134
vn 0.6599 0.2866 0.6945
vn 0.6293 0.2874 0.7220
vn 0.5645 0.4593 0.6859
vn 0.5169 0.4479 0.7296
vn 0.4240 0.6006 0.6779
vn 0.3660 0.5695 0.7360
vn 0.2484 0.6990 0.6706
vn 0.1890 0.6438 0.7415
vn 0.0510 0.7459 0.6641
vn -0.0000 0.6658 0.7461
vn -0.1531 0.7369 0.6585
vn -0.1864 0.6348 0.7499
vn -0.3481 0.6718 0.6538
vn -0.3559 0.5537 0.7528
vn -0.5186 0.5553 0.6501
vn -0.4956 0.4294 0.7550
vn -0.6511 0.3960 0.6475
vn -0.5949 0.2717 0.7565
vn -0.7351 0.2060 0.6459
vn -0.6466 0.0930 0.7572
vn -0.7639 -0.0000 0.6453
vn -0.6466 -0.0930 0.7572
vn -0.7351 -0.2060 0.6459
vn -0.5949 -0.2717 0.7565
vn -0.6511 -0.3960 0.6475
vn -0.4956 -0.4294 0.7550
vn -0.5186 -0.5553 0.6501
vn -0.3559 -0.5537 0.7528
vn -0.3481 -0.6718 0.6538
vn -0.1864 -0.6348 0.7499
vn -0.1531 -0.7369 0.6585
vn 0.0510 -0.7459 0.6641
vn -0.0000 -0.6658 0.7461
vn 0.2484 -0.6990 0.6706
vn 0.1890 -0.6438 0.7415
vn 0.4240 -0.6006 0.6779
vn 0.3660 -0.5695 0.7360
vn 0.5645 -0.4593 0.6859
vn 0.5169 -0.4479 0.7296
vn 0.6599 -0.2866 0.6945
vn 0.6293 -0.2874 0.7220
vn 0.7038 -0.0967 0.7038
vn 0.6936 -0.0997 0.7134
s 0
f 1//1 2//1 3//1
f 3//1 2//1 4//1
f 5//2 6//2 7//2
f 8//2 9//2 10//2
f 8//2 10//2 6//2
f 8//2 6//2 5//2
f 11//2 9//2 8//2
f 12//2 13//2 11//2
f 14//2 15//2 16//2
f 17//2 15//2 14//2
f 18//2 19//2 12//2
f 18//2 12//2 11//2
f 20//2 17//2 21//2
f 20//2 15//2 17//2
f 22//2 18//2 11//2
f 23//2 8//2 15//2
f 23//2 11//2 8//2
f 23//2 22//2 11//2
f 24//2 15//2 20//2
f 24//2 23//2 15//2
f 25//2 24//2 26//2
f 25//2 26//2 27//2
f 25//2 28//2 23//2
f 25//2 23//2 24//2
f 29//3 30//3 31//3
f 29//3 32//3 30//3
f 33//4 34//4 35//4
f 33//4 36//4 34//4
f 37//5 38//5 39//5
f 37//5 40//5 38//5
f 41//6 42//6 43//6
f 41//6 44//6 42//6
f 45//7 46//7 47//7
f 45//7 48//7 46//7
f 49//8 50//8 51//8
f 52//8 50//8 49//8
f 53//9 54//9 55//9
f 56//9 54//9 53//9
f 57//10 58//10 59//10
f 60//10 58//10 57//10
f 61//11 62//11 63//11
f 64//11 62//11 61//11
f 65//12 66//12 67//12
f 68//12 66//12 65//12
f 69//13 70//13 71//13
f 72//13 73//13 74//13
f 74//13 73//13 69//13
f 69//13 73//13 70//13
f 72//13 75//13 73//13
f 76//13 77//13 75//13
f 78//13 79//13 80//13
f 78//13 81//13 79//13
f 82//13 83//13 77//13
f 77//13 83//13 75//13
f 81//13 84//13 85//13
f 78//13 84//13 81//13
f 83//13 86//13 75//13
f 73//13 87//13 78//13
f 75//13 87//13 73//13
f 86//13 87//13 75//13
f 78//13 88//13 84//13
f 87//13 88//13 78//13
f 88//13 89//13 90//13
f 90//13 89//13 91//13
f 92//13 89//13 87//13
f 87//13 89//13 88//13
f 93//14 94//14 95//14
f 95//14 94//14 96//14
f 97//15 98//15 99//15
f 97//15 99//15 100//15
f 101//16 102//16 103//16
f 104//16 102//16 101//16
f 105//17 106//17 107//17
f 108//17 106//17 105//17
f 109//18 110//18 111//18
f 112//18 110//18 109//18
f 113//19 114//19 115//19
f 116//19 114//19 113//19
f 117//20 118//20 119//20
f 120//20 118//20 117//20
f 121//21 122//21 123//21
f 121//21 124//21 122//21
f 125//22 126//22 127//22
f 125//22 128//22 126//22
f 129//23 130//23 131//23
f 129//23 132//23 130//23
f 133//24 134//24 135//24
f 133//24 136//24 134//24
f 137//25 138//25 139//25
f 137//25 140//25 138//25
f 141//26 142//26 143//26
f 141//26 143//26 144//26
f 145//27 146//27 147//27
f 145//27 147//27 148//27
f 149//28 150//28 151//28
f 149//28 152//28 150//28
f 153//29 154//29 155//29
f 156//30 157//30 158//30
f 153//29 159//29 154//29
f 160//30 156//30 158//30
f 161//31 162//31 163//31
f 161//31 164//31 162//31
f 165//32 166//32 167//32
f 165//32 168//32 166//32
f 169//33 170//33 171//33
f 172//34 173//34 174//34
f 169//33 175//33 170//33
f 176//34 172//34 174//34
f 177//35 178//35 179//35
f 177//35 180//35 178//35
f 181//36 182//36 183//36
f 181//36 184//36 182//36
f 185//37 186//37 187//37
f 185//37 188//37 186//37
f 189//1 190//1 191//1
f 189//1 192//1 190//1
f 193//38 194//38 195//38
f 193//38 195//38 196//38
f 197//39 198//39 199//39
f 197//39 199//39 200//39
f 201//40 202//40 203//40
f 204//41 205//41 206//41
f 207//40 201//40 203//40
f 208//41 204//41 206//41
f 209//42 210//42 211//42
f 209//42 211//42 212//42
f 213//43 214//43 215//43
f 213//43 215//43 216//43
f 217//44 218//44 219//44
f 217//44 219//44 220//44
f 221//45 222//45 223//45
f 221//45 223//45 224//45
f 225//46 226//46 227//46
f 225//46 227//46 228//46
f 229//47 230//47 231//47
f 229//47 231//47 232//47
f 233//48 234//48 235//48
f 233//48 235//48 236//48
f 237//49 238//49 239//49
f 240//50 241//50 242//50
f 243//51 244//51 245//51
f 246//52 247//52 248//52
f 249//53 250//53 251//53
f 252//54 253//54 254//54
f 255//55 256//55 257//55
f 258//56 259//56 260//56
f 261//57 262//57 263//57
f 264//58 265//58 266//58
f 267//59 268//59 269//59
f 270//60 271//60 272//60
f 273//61 274//61 275//61
f 276//62 277//62 278//62
f 279//63 280//63 281//63
f 282//64 283//64 284//64
f 285//65 286//65 287//65
f 288//66 289//66 290//66
f 291//67 292//67 293//67
f 294//68 295//68 296//68
f 297//69 298//69 299//69
f 300//70 301//70 302//70
f 303//71 304//71 305//71
f 306//72 307//72 308//72
f 309//73 310//73 311//73
f 312//74 313//74 314//74
f 315//75 316//75 317//75
f 318//76 319//76 320//76
f 321//77 322//77 323//77
f 324//78 325//78 326//78
f 327//79 328//79 329//79
f 330//80 331//80 332//80
f 333//81 334//81 335//81
f 336//82 337//82 338//82
f 339//83 340//83 341//83
f 342//84 343//84 344//84
f 345//85 346//85 347//85
f 348//86 349//86 350//86
f 351//87 352//87 353//87
f 354//88 355//88 356//88
f 357//89 358//89 359//89
f 360//90 361//90 362//90
f 363//91 364//91 365//91
f 366//92 367//92 368//92
f 369//93 370//93 371//93
f 372//13 373//13 374//13
f 373//13 375//13 374//13
f 375//13 376//13 377//13
f 378//13 379//13 380//13
f 380//13 379//13 381//13
f 381//13 382//13 373//13
f 376//13 382//13 383//13
f 373//13 382//13 375//13
f 375//13 382//13 376//13
f 379//13 384//13 381//13
f 385//13 386//13 384//13
f 382//13 387//13 388//13
f 388//13 387//13 389//13
f 381//13 387//13 382//13
f 386//13 390//13 384//13
f 384//13 390//13 381//13
f 381//13 390//13 387//13
f 387//13 391//13 392//13
f 392//13 391//13 393//13
f 394//13 391//13 390//13
f 390//13 391//13 387//13
f 395//2 396//2 397//2
f 395//2 397//2 398//2
f 399//2 400//2 395//2
f 399//2 395//2 398//2
f 401//2 402//2 403//2
f 404//2 405//2 399//2
f 404//2 399//2 398//2
f 406//2 401//2 407//2
f 408//2 409//2 404//2
f 408//2 398//2 410//2
f 408//2 404//2 398//2
f 411//2 410//2 402//2
f 411//2 402//2 401//2
f 411//2 408//2 410//2
f 412//2 411//2 401//2
f 413//2 414//2 415//2
f 416//2 406//2 414//2
f 416//2 401//2 406//2
f 416//2 414//2 413//2
f 416//2 412//2 401//2
