# Blender 4.0.2
# www.blender.org
o raspimouse_wheel__m0
v 0.021957 0.001371 0.008000
v 0.021957 0.001371 0.000500
v 0.022000 0.000003 0.008000
v 0.021830 0.002733 0.000500
v 0.021830 0.002733 0.008000
v 0.021617 0.004085 0.000500
v 0.021617 0.004085 0.008000
v 0.021322 0.005421 0.000500
v 0.021322 0.005421 0.008000
v 0.020943 0.006736 0.000500
v 0.020943 0.006736 0.008000
v 0.020484 0.008025 0.000500
v 0.020484 0.008025 0.008000
v 0.019945 0.009283 0.000500
v 0.019945 0.009283 0.008000
v 0.019330 0.010505 0.000500
v 0.019330 0.010505 0.008000
v 0.018639 0.011687 0.000500
v 0.018639 0.011687 0.008000
v 0.017877 0.012823 0.000500
v 0.017877 0.012823 0.008000
v 0.017045 0.013909 0.000500
v 0.017045 0.013909 0.008000
v 0.016147 0.014942 0.000500
v 0.016147 0.014942 0.008000
v 0.015187 0.015917 0.000500
v 0.015187 0.015917 0.008000
v 0.014168 0.016831 0.000500
v 0.014168 0.016831 0.008000
v 0.013094 0.017679 0.000500
v 0.013094 0.017679 0.008000
v 0.011970 0.018459 0.000500
v 0.011970 0.018459 0.008000
v 0.010799 0.019167 0.000500
v 0.010799 0.019167 0.008000
v 0.009587 0.019801 0.000500
v 0.009587 0.019801 0.008000
v 0.008337 0.020359 0.000500
v 0.008337 0.020359 0.008000
v 0.007055 0.020838 0.000500
v 0.007055 0.020838 0.008000
v 0.005746 0.021236 0.000500
v 0.005746 0.021236 0.008000
v 0.004415 0.021552 0.000500
v 0.004415 0.021552 0.008000
v 0.003066 0.021785 0.000500
v 0.003066 0.021785 0.008000
v 0.001706 0.021934 0.000500
v 0.001706 0.021934 0.008000
v 0.000339 0.021997 0.000500
v 0.000339 0.021997 0.008000
v -0.001029 0.021976 0.000500
v -0.001029 0.021976 0.008000
v -0.002393 0.021869 0.000500
v -0.002393 0.021869 0.008000
v -0.003748 0.021678 0.000500
v -0.003748 0.021678 0.008000
v -0.005089 0.021403 0.000500
v -0.005089 0.021403 0.008000
v -0.006410 0.021046 0.000500
v -0.006410 0.021046 0.008000
v -0.007706 0.020606 0.000500
v -0.007706 0.020606 0.008000
v -0.008972 0.020087 0.000500
v -0.008972 0.020087 0.008000
v -0.010203 0.019491 0.000500
v -0.010203 0.019491 0.008000
v -0.011395 0.018819 0.000500
v -0.011395 0.018819 0.008000
v -0.012543 0.018074 0.000500
v -0.012543 0.018074 0.008000
v -0.013643 0.017259 0.000500
v -0.013643 0.017259 0.008000
v -0.014689 0.016377 0.000500
v -0.014689 0.016377 0.008000
v -0.015679 0.015433 0.000500
v -0.015679 0.015433 0.008000
v -0.016608 0.014428 0.000500
v -0.016608 0.014428 0.008000
v -0.017473 0.013368 0.000500
v -0.017473 0.013368 0.008000
v -0.018270 0.012255 0.000500
v -0.018270 0.012255 0.008000
v -0.018997 0.011096 0.000500
v -0.018997 0.011096 0.008000
v -0.019650 0.009893 0.000500
v -0.019650 0.009893 0.008000
v -0.020227 0.008653 0.000500
v -0.020227 0.008653 0.008000
v -0.020726 0.007378 0.000500
v -0.020726 0.007378 0.008000
v -0.021144 0.006076 0.000500
v -0.021144 0.006076 0.008000
v -0.021481 0.004749 0.000500
v -0.021481 0.004749 0.008000
v -0.021735 0.003405 0.000500
v -0.021735 0.003405 0.008000
v -0.021904 0.002047 0.000500
v -0.021904 0.002047 0.008000
v -0.021989 0.000681 0.000500
v -0.021989 0.000681 0.008000
v -0.021989 -0.000687 0.000500
v -0.021989 -0.000687 0.008000
v -0.021904 -0.002053 0.000500
v -0.021904 -0.002053 0.008000
v -0.021734 -0.003411 0.000500
v -0.021734 -0.003411 0.008000
v -0.021480 -0.004755 0.000500
v -0.021480 -0.004755 0.008000
v -0.021143 -0.006082 0.000500
v -0.021143 -0.006082 0.008000
v -0.020724 -0.007384 0.000500
v -0.020724 -0.007384 0.008000
v -0.020225 -0.008658 0.000500
v -0.020225 -0.008658 0.008000
v -0.019647 -0.009899 0.000500
v -0.019647 -0.009899 0.008000
v -0.018994 -0.011101 0.000500
v -0.018994 -0.011101 0.008000
v -0.018267 -0.012261 0.000500
v -0.018267 -0.012261 0.008000
v -0.017469 -0.013373 0.000500
v -0.017469 -0.013373 0.008000
v -0.016604 -0.014433 0.000500
v -0.016604 -0.014433 0.008000
v -0.015675 -0.015437 0.000500
v -0.015675 -0.015437 0.008000
v -0.014685 -0.016382 0.000500
v -0.014685 -0.016382 0.008000
v -0.013638 -0.017263 0.000500
v -0.013638 -0.017263 0.008000
v -0.012538 -0.018077 0.000500
v -0.012538 -0.018077 0.008000
v -0.011390 -0.018822 0.000500
v -0.011390 -0.018822 0.008000
v -0.010198 -0.019494 0.000500
v -0.010198 -0.019494 0.008000
v -0.008966 -0.020090 0.000500
v -0.008966 -0.020090 0.008000
v -0.007700 -0.020609 0.000500
v -0.007700 -0.020609 0.008000
v -0.006404 -0.021047 0.000500
v -0.006404 -0.021047 0.008000
v -0.005083 -0.021405 0.000500
v -0.005083 -0.021405 0.008000
v -0.003742 -0.021679 0.000500
v -0.003742 -0.021679 0.008000
v -0.002387 -0.021870 0.000500
v -0.002387 -0.021870 0.008000
v -0.001023 -0.021976 0.000500
v -0.001023 -0.021976 0.008000
v 0.000345 -0.021997 0.000500
v 0.000345 -0.021997 0.008000
v 0.001712 -0.021933 0.000500
v 0.001712 -0.021933 0.008000
v 0.003072 -0.021784 0.000500
v 0.003072 -0.021784 0.008000
v 0.004421 -0.021551 0.000500
v 0.004421 -0.021551 0.008000
v 0.005752 -0.021235 0.000500
v 0.005752 -0.021235 0.008000
v 0.007061 -0.020836 0.000500
v 0.007061 -0.020836 0.008000
v 0.008343 -0.020357 0.000500
v 0.008343 -0.020357 0.008000
v 0.009592 -0.019799 0.000500
v 0.009592 -0.019799 0.008000
v 0.010805 -0.019164 0.000500
v 0.010805 -0.019164 0.008000
v 0.011975 -0.018455 0.000500
v 0.011975 -0.018455 0.008000
v 0.013099 -0.017675 0.000500
v 0.013099 -0.017675 0.008000
v 0.014173 -0.016826 0.000500
v 0.014173 -0.016826 0.008000
v 0.015191 -0.015913 0.000500
v 0.015191 -0.015913 0.008000
v 0.016151 -0.014938 0.000500
v 0.016151 -0.014938 0.008000
v 0.017049 -0.013905 0.000500
v 0.017049 -0.013905 0.008000
v 0.017880 -0.012818 0.000500
v 0.017880 -0.012818 0.008000
v 0.018643 -0.011681 0.000500
v 0.018643 -0.011681 0.008000
v 0.019333 -0.010500 0.000500
v 0.019333 -0.010500 0.008000
v 0.019948 -0.009278 0.000500
v 0.019948 -0.009278 0.008000
v 0.020486 -0.008019 0.000500
v 0.020486 -0.008019 0.008000
v 0.020945 -0.006730 0.000500
v 0.020945 -0.006730 0.008000
v 0.021323 -0.005415 0.000500
v 0.021323 -0.005415 0.008000
v 0.021619 -0.004079 0.000500
v 0.021619 -0.004079 0.008000
v 0.021830 -0.002727 0.000500
v 0.021830 -0.002727 0.008000
v 0.021958 -0.001365 0.000500
v 0.021958 -0.001365 0.008000
v 0.022000 0.000003 0.000500
v 0.023957 -0.001432 0.008000
v 0.023957 -0.001432 0.000500
v 0.024000 0.000003 0.008000
v 0.023829 -0.002862 0.000500
v 0.023829 -0.002862 0.008000
v 0.023615 -0.004282 0.000500
v 0.023615 -0.004282 0.008000
v 0.023317 -0.005687 0.000500
v 0.023317 -0.005687 0.008000
v 0.022935 -0.007071 0.000500
v 0.022935 -0.007071 0.008000
v 0.022471 -0.008430 0.000500
v 0.022471 -0.008430 0.008000
v 0.021926 -0.009759 0.000500
v 0.021926 -0.009759 0.008000
v 0.021304 -0.011052 0.000500
v 0.021304 -0.011052 0.008000
v 0.020604 -0.012307 0.000500
v 0.020604 -0.012307 0.008000
v 0.019832 -0.013517 0.000500
v 0.019832 -0.013517 0.008000
v 0.018988 -0.014679 0.000500
v 0.018988 -0.014679 0.008000
v 0.018076 -0.015788 0.000500
v 0.018076 -0.015788 0.008000
v 0.017099 -0.016841 0.000500
v 0.017099 -0.016841 0.008000
v 0.016062 -0.017833 0.000500
v 0.016062 -0.017833 0.008000
v 0.014966 -0.018762 0.000500
v 0.014966 -0.018762 0.008000
v 0.013817 -0.019623 0.000500
v 0.013817 -0.019623 0.008000
v 0.012619 -0.020415 0.000500
v 0.012619 -0.020415 0.008000
v 0.011376 -0.021133 0.000500
v 0.011376 -0.021133 0.008000
v 0.010092 -0.021775 0.000500
v 0.010092 -0.021775 0.008000
v 0.008771 -0.022340 0.000500
v 0.008771 -0.022340 0.008000
v 0.007420 -0.022824 0.000500
v 0.007420 -0.022824 0.008000
v 0.006041 -0.023227 0.000500
v 0.006041 -0.023227 0.008000
v 0.004641 -0.023547 0.000500
v 0.004641 -0.023547 0.008000
v 0.003225 -0.023782 0.000500
v 0.003225 -0.023782 0.008000
v 0.001797 -0.023933 0.000500
v 0.001797 -0.023933 0.008000
v 0.000362 -0.023997 0.000500
v 0.000362 -0.023997 0.008000
v -0.001073 -0.023976 0.000500
v -0.001073 -0.023976 0.008000
v -0.002505 -0.023869 0.000500
v -0.002505 -0.023869 0.008000
v -0.003928 -0.023676 0.000500
v -0.003928 -0.023676 0.008000
v -0.005337 -0.023399 0.000500
v -0.005337 -0.023399 0.008000
v -0.006727 -0.023038 0.000500
v -0.006727 -0.023038 0.008000
v -0.008093 -0.022594 0.000500
v -0.008093 -0.022594 0.008000
v -0.009429 -0.022070 0.000500
v -0.009429 -0.022070 0.008000
v -0.010732 -0.021467 0.000500
v -0.010732 -0.021467 0.008000
v -0.011997 -0.020786 0.000500
v -0.011997 -0.020786 0.008000
v -0.013219 -0.020032 0.000500
v -0.013219 -0.020032 0.008000
v -0.014393 -0.019205 0.000500
v -0.014393 -0.019205 0.008000
v -0.015516 -0.018310 0.000500
v -0.015516 -0.018310 0.008000
v -0.016583 -0.017349 0.000500
v -0.016583 -0.017349 0.008000
v -0.017591 -0.016327 0.000500
v -0.017591 -0.016327 0.008000
v -0.018536 -0.015245 0.000500
v -0.018536 -0.015245 0.008000
v -0.019414 -0.014110 0.000500
v -0.019414 -0.014110 0.008000
v -0.020223 -0.012923 0.000500
v -0.020223 -0.012923 0.008000
v -0.020960 -0.011691 0.000500
v -0.020960 -0.011691 0.008000
v -0.021622 -0.010416 0.000500
v -0.021622 -0.010416 0.008000
v -0.022206 -0.009105 0.000500
v -0.022206 -0.009105 0.008000
v -0.022711 -0.007760 0.000500
v -0.022711 -0.007760 0.008000
v -0.023134 -0.006388 0.000500
v -0.023134 -0.006388 0.008000
v -0.023475 -0.004993 0.000500
v -0.023475 -0.004993 0.008000
v -0.023731 -0.003580 0.000500
v -0.023731 -0.003580 0.008000
v -0.023903 -0.002155 0.000500
v -0.023903 -0.002155 0.008000
v -0.023989 -0.000721 0.000500
v -0.023989 -0.000721 0.008000
v -0.023989 0.000715 0.000500
v -0.023989 0.000715 0.008000
v -0.023904 0.002148 0.000500
v -0.023904 0.002148 0.008000
v -0.023732 0.003574 0.000500
v -0.023732 0.003574 0.008000
v -0.023476 0.004987 0.000500
v -0.023476 0.004987 0.008000
v -0.023136 0.006382 0.000500
v -0.023136 0.006382 0.008000
v -0.022713 0.007754 0.000500
v -0.022713 0.007754 0.008000
v -0.022209 0.009098 0.000500
v -0.022209 0.009098 0.008000
v -0.021625 0.010410 0.000500
v -0.021625 0.010410 0.008000
v -0.020963 0.011685 0.000500
v -0.020963 0.011685 0.008000
v -0.020227 0.012917 0.000500
v -0.020227 0.012917 0.008000
v -0.019418 0.014104 0.000500
v -0.019418 0.014104 0.008000
v -0.018540 0.015240 0.000500
v -0.018540 0.015240 0.008000
v -0.017595 0.016322 0.000500
v -0.017595 0.016322 0.008000
v -0.016588 0.017345 0.000500
v -0.016588 0.017345 0.008000
v -0.015521 0.018306 0.000500
v -0.015521 0.018306 0.008000
v -0.014398 0.019201 0.000500
v -0.014398 0.019201 0.008000
v -0.013224 0.020028 0.000500
v -0.013224 0.020028 0.008000
v -0.012003 0.020783 0.000500
v -0.012003 0.020783 0.008000
v -0.010739 0.021464 0.000500
v -0.010739 0.021464 0.008000
v -0.009436 0.022067 0.000500
v -0.009436 0.022067 0.008000
v -0.008099 0.022592 0.000500
v -0.008099 0.022592 0.008000
v -0.006733 0.023036 0.000500
v -0.006733 0.023036 0.008000
v -0.005344 0.023397 0.000500
v -0.005344 0.023397 0.008000
v -0.003935 0.023675 0.000500
v -0.003935 0.023675 0.008000
v -0.002512 0.023868 0.000500
v -0.002512 0.023868 0.008000
v -0.001080 0.023976 0.000500
v -0.001080 0.023976 0.008000
v 0.000356 0.023997 0.000500
v 0.000356 0.023997 0.008000
v 0.001790 0.023933 0.000500
v 0.001790 0.023933 0.008000
v 0.003218 0.023783 0.000500
v 0.003218 0.023783 0.008000
v 0.004635 0.023548 0.000500
v 0.004635 0.023548 0.008000
v 0.006035 0.023229 0.000500
v 0.006035 0.023229 0.008000
v 0.007413 0.022826 0.000500
v 0.007413 0.022826 0.008000
v 0.008765 0.022342 0.000500
v 0.008765 0.022342 0.008000
v 0.010085 0.021778 0.000500
v 0.010085 0.021778 0.008000
v 0.011370 0.021136 0.000500
v 0.011370 0.021136 0.008000
v 0.012613 0.020418 0.000500
v 0.012613 0.020418 0.008000
v 0.013812 0.019627 0.000500
v 0.013812 0.019627 0.008000
v 0.014961 0.018766 0.000500
v 0.014961 0.018766 0.008000
v 0.016057 0.017838 0.000500
v 0.016057 0.017838 0.008000
v 0.017095 0.016846 0.000500
v 0.017095 0.016846 0.008000
v 0.018071 0.015793 0.000500
v 0.018071 0.015793 0.008000
v 0.018984 0.014684 0.000500
v 0.018984 0.014684 0.008000
v 0.019828 0.013522 0.000500
v 0.019828 0.013522 0.008000
v 0.020601 0.012312 0.000500
v 0.020601 0.012312 0.008000
v 0.021300 0.011058 0.000500
v 0.021300 0.011058 0.008000
v 0.021924 0.009765 0.000500
v 0.021924 0.009765 0.008000
v 0.022468 0.008436 0.000500
v 0.022468 0.008436 0.008000
v 0.022933 0.007077 0.000500
v 0.022933 0.007077 0.008000
v 0.023315 0.005693 0.000500
v 0.023315 0.005693 0.008000
v 0.023614 0.004289 0.000500
v 0.023614 0.004289 0.008000
v 0.023828 0.002869 0.000500
v 0.023828 0.002869 0.008000
v 0.023957 0.001439 0.000500
v 0.023957 0.001439 0.008000
v 0.024000 0.000003 0.000500
vn -0.9995 -0.0314 -0.0000
vn -0.9957 -0.0928 -0.0000
vn -0.9878 -0.1556 -0.0000
vn -0.9765 -0.2156 -0.0000
vn -0.9609 -0.2769 -0.0000
vn -0.9421 -0.3355 -0.0000
vn -0.9192 -0.3938 -0.0000
vn -0.8933 -0.4495 -0.0000
vn -0.8633 -0.5047 -0.0000
vn -0.8305 -0.5571 -0.0000
vn -0.7938 -0.6082 -0.0000
vn -0.7547 -0.6561 -0.0000
vn -0.7126 -0.7016 -0.0000
vn -0.6677 -0.7444 -0.0000
vn -0.6197 -0.7848 -0.0000
vn -0.5701 -0.8216 -0.0000
vn -0.5174 -0.8557 -0.0000
vn -0.4635 -0.8861 -0.0000
vn -0.4076 -0.9131 -0.0000
vn -0.3500 -0.9367 -0.0000
vn -0.2909 -0.9568 -0.0000
vn -0.2310 -0.9730 -0.0000
vn -0.1702 -0.9854 -0.0000
vn -0.1089 -0.9941 -0.0000
vn -0.0460 -0.9989 -0.0000
vn 0.0153 -0.9999 -0.0000
vn 0.0782 -0.9969 -0.0000
vn 0.1396 -0.9902 -0.0000
vn 0.2009 -0.9796 -0.0000
vn 0.2609 -0.9654 -0.0000
vn 0.3215 -0.9469 -0.0000
vn 0.3793 -0.9253 -0.0000
vn 0.4358 -0.9001 -0.0000
vn 0.4911 -0.8711 -0.0000
vn 0.5444 -0.8388 -0.0000
vn 0.5953 -0.8035 -0.0000
vn 0.6446 -0.7645 -0.0000
vn 0.6901 -0.7237 -0.0000
vn 0.7343 -0.6788 -0.0000
vn 0.7748 -0.6322 -0.0000
vn 0.8130 -0.5822 -0.0000
vn 0.8471 -0.5314 -0.0000
vn 0.8789 -0.4771 -0.0000
vn 0.9066 -0.4219 -0.0000
vn 0.9312 -0.3645 -0.0000
vn 0.9521 -0.3057 -0.0000
vn 0.9692 -0.2461 -0.0000
vn 0.9826 -0.1857 -0.0000
vn 0.9923 -0.1235 -0.0000
vn 0.9981 -0.0621 -0.0000
vn 1.0000 -0.0000 -0.0000
vn 0.9981 0.0621 -0.0000
vn 0.9923 0.1242 -0.0000
vn 0.9826 0.1857 -0.0000
vn 0.9692 0.2461 -0.0000
vn 0.9519 0.3063 -0.0000
vn 0.9311 0.3647 -0.0000
vn 0.9065 0.4222 -0.0000
vn 0.8787 0.4774 -0.0000
vn 0.8473 0.5310 -0.0000
vn 0.8124 0.5830 -0.0000
vn 0.7748 0.6322 -0.0000
vn 0.7340 0.6792 -0.0000
vn 0.6905 0.7234 -0.0000
vn 0.6438 0.7652 -0.0000
vn 0.5948 0.8038 -0.0000
vn 0.5444 0.8388 -0.0000
vn 0.4911 0.8711 -0.0000
vn 0.4355 0.9002 -0.0000
vn 0.3793 0.9253 -0.0000
vn 0.3202 0.9474 -0.0000
vn 0.2616 0.9652 -0.0000
vn 0.2002 0.9798 -0.0000
vn 0.1396 0.9902 -0.0000
vn 0.0775 0.9970 -0.0000
vn 0.0153 0.9999 -0.0000
vn -0.0468 0.9989 -0.0000
vn -0.1089 0.9941 -0.0000
vn -0.1702 0.9854 -0.0000
vn -0.2310 0.9730 -0.0000
vn -0.2916 0.9565 -0.0000
vn -0.3500 0.9367 -0.0000
vn -0.4079 0.9130 -0.0000
vn -0.4638 0.8859 -0.0000
vn -0.5183 0.8552 -0.0000
vn -0.5701 0.8216 -0.0000
vn -0.6201 0.7845 -0.0000
vn -0.6677 0.7445 -0.0000
vn -0.7126 0.7016 -0.0000
vn -0.7547 0.6561 -0.0000
vn -0.7944 0.6073 -0.0000
vn -0.8304 0.5572 -0.0000
vn -0.8634 0.5045 -0.0000
vn -0.8933 0.4496 -0.0000
vn -0.9196 0.3929 -0.0000
vn -0.9421 0.3355 -0.0000
vn -0.9611 0.2763 -0.0000
vn -0.9763 0.2163 -0.0000
vn -0.9880 0.1542 -0.0000
vn -0.9956 0.0936 -0.0000
vn -0.9995 0.0307 -0.0000
vn -0.8933 -0.4496 -0.0000
vn 0.9067 -0.4219 -0.0000
vn -0.9196 0.3930 -0.0000
vn 0.9996 -0.0300 -0.0000
vn 0.9960 -0.0892 -0.0000
vn 0.9888 -0.1490 -0.0000
vn 0.9782 -0.2075 -0.0000
vn 0.9640 -0.2661 -0.0000
vn 0.9464 -0.3231 -0.0000
vn 0.9252 -0.3794 -0.0000
vn 0.9012 -0.4335 -0.0000
vn 0.8733 -0.4871 -0.0000
vn 0.8430 -0.5379 -0.0000
vn 0.8091 -0.5877 -0.0000
vn 0.7724 -0.6352 -0.0000
vn 0.7331 -0.6802 -0.0000
vn 0.6913 -0.7226 -0.0000
vn 0.6466 -0.7628 -0.0000
vn 0.5997 -0.8003 -0.0000
vn 0.5515 -0.8342 -0.0000
vn 0.5002 -0.8659 -0.0000
vn 0.4472 -0.8944 -0.0000
vn 0.3932 -0.9194 -0.0000
vn 0.3373 -0.9414 -0.0000
vn 0.2805 -0.9599 -0.0000
vn 0.2228 -0.9749 -0.0000
vn 0.1637 -0.9865 -0.0000
vn 0.1052 -0.9945 -0.0000
vn 0.0446 -0.9990 -0.0000
vn -0.0146 -0.9999 -0.0000
vn -0.0745 -0.9972 -0.0000
vn -0.1344 -0.9909 -0.0000
vn -0.1929 -0.9812 -0.0000
vn -0.2514 -0.9679 -0.0000
vn -0.3091 -0.9510 -0.0000
vn -0.3651 -0.9310 -0.0000
vn -0.4200 -0.9075 -0.0000
vn -0.4740 -0.8805 -0.0000
vn -0.5251 -0.8510 -0.0000
vn -0.5759 -0.8175 -0.0000
vn -0.6233 -0.7820 -0.0000
vn -0.6692 -0.7431 -0.0000
vn -0.7120 -0.7022 -0.0000
vn -0.7532 -0.6578 -0.0000
vn -0.7910 -0.6119 -0.0000
vn -0.8263 -0.5632 -0.0000
vn -0.8582 -0.5134 -0.0000
vn -0.8875 -0.4608 -0.0000
vn -0.9135 -0.4069 -0.0000
vn -0.9362 -0.3515 -0.0000
vn -0.9556 -0.2946 -0.0000
vn -0.9714 -0.2375 -0.0000
vn -0.9840 -0.1783 -0.0000
vn -0.9928 -0.1198 -0.0000
vn -0.9982 -0.0599 -0.0000
vn -1.0000 -0.0000 -0.0000
vn -0.9982 0.0592 -0.0000
vn -0.9928 0.1197 -0.0000
vn -0.9840 0.1783 -0.0000
vn -0.9716 0.2368 -0.0000
vn -0.9556 0.2946 -0.0000
vn -0.9363 0.3511 -0.0000
vn -0.9136 0.4067 -0.0000
vn -0.8875 0.4608 -0.0000
vn -0.8585 0.5129 -0.0000
vn -0.8263 0.5632 -0.0000
vn -0.7912 0.6115 -0.0000
vn -0.7532 0.6578 -0.0000
vn -0.7127 0.7015 -0.0000
vn -0.6692 0.7431 -0.0000
vn -0.6232 0.7820 -0.0000
vn -0.5759 0.8175 -0.0000
vn -0.5259 0.8505 -0.0000
vn -0.4743 0.8804 -0.0000
vn -0.4200 0.9075 -0.0000
vn -0.3655 0.9308 -0.0000
vn -0.3091 0.9510 -0.0000
vn -0.2515 0.9678 -0.0000
vn -0.1936 0.9811 -0.0000
vn -0.1344 0.9909 -0.0000
vn -0.0752 0.9972 -0.0000
vn -0.0146 0.9999 -0.0000
vn 0.0446 0.9990 -0.0000
vn 0.1045 0.9945 -0.0000
vn 0.1636 0.9865 -0.0000
vn 0.2222 0.9750 -0.0000
vn 0.2807 0.9598 -0.0000
vn 0.3370 0.9415 -0.0000
vn 0.3929 0.9196 -0.0000
vn 0.4469 0.8946 -0.0000
vn 0.5002 0.8659 -0.0000
vn 0.5507 0.8347 -0.0000
vn 0.5997 0.8003 -0.0000
vn 0.6462 0.7632 -0.0000
vn 0.6909 0.7229 -0.0000
vn 0.7334 0.6798 -0.0000
vn 0.7720 0.6356 -0.0000
vn 0.8091 0.5877 -0.0000
vn 0.8427 0.5384 -0.0000
vn 0.8735 0.4869 -0.0000
vn 0.9006 0.4346 -0.0000
vn 0.9255 0.3788 -0.0000
vn 0.9461 0.3237 -0.0000
vn 0.9640 0.2661 -0.0000
vn 0.9781 0.2083 -0.0000
vn 0.9888 0.1490 -0.0000
vn 0.9960 0.0898 -0.0000
vn 0.9996 0.0299 -0.0000
vn -0.0000 -0.0000 1.0000
vn -0.0000 -0.0000 -1.0000
s 0
f 1//1 2//1 3//1
f 1//2 4//2 2//2
f 1//2 5//2 4//2
f 4//3 5//3 6//3
f 6//3 5//3 7//3
f 8//4 7//4 9//4
f 10//5 9//5 11//5
f 12//6 11//6 13//6
f 14//7 13//7 15//7
f 16//8 15//8 17//8
f 18//9 17//9 19//9
f 20//10 19//10 21//10
f 22//11 21//11 23//11
f 24//12 23//12 25//12
f 26//13 25//13 27//13
f 28//14 27//14 29//14
f 30//15 29//15 31//15
f 32//16 31//16 33//16
f 34//17 33//17 35//17
f 36//18 35//18 37//18
f 38//19 37//19 39//19
f 40//20 39//20 41//20
f 42//21 41//21 43//21
f 44//22 43//22 45//22
f 46//23 45//23 47//23
f 48//24 47//24 49//24
f 50//25 49//25 51//25
f 52//26 51//26 53//26
f 54//27 53//27 55//27
f 56//28 55//28 57//28
f 58//29 57//29 59//29
f 60//30 59//30 61//30
f 62//31 61//31 63//31
f 64//32 63//32 65//32
f 66//33 65//33 67//33
f 68//34 67//34 69//34
f 70//35 69//35 71//35
f 72//36 71//36 73//36
f 74//37 73//37 75//37
f 76//38 75//38 77//38
f 78//39 77//39 79//39
f 80//40 79//40 81//40
f 82//41 81//41 83//41
f 84//42 83//42 85//42
f 86//43 85//43 87//43
f 88//44 87//44 89//44
f 90//45 89//45 91//45
f 92//46 91//46 93//46
f 94//47 93//47 95//47
f 96//48 95//48 97//48
f 98//49 97//49 99//49
f 100//50 99//50 101//50
f 102//51 101//51 103//51
f 104//52 103//52 105//52
f 106//53 105//53 107//53
f 108//54 107//54 109//54
f 110//55 109//55 111//55
f 112//56 111//56 113//56
f 114//57 113//57 115//57
f 116//58 115//58 117//58
f 118//59 117//59 119//59
f 120//60 119//60 121//60
f 122//61 121//61 123//61
f 124//62 123//62 125//62
f 126//63 125//63 127//63
f 128//64 127//64 129//64
f 130//65 129//65 131//65
f 132//66 131//66 133//66
f 134//67 133//67 135//67
f 136//68 135//68 137//68
f 138//69 137//69 139//69
f 140//70 139//70 141//70
f 142//71 141//71 143//71
f 144//72 143//72 145//72
f 146//73 145//73 147//73
f 148//74 147//74 149//74
f 150//75 149//75 151//75
f 152//76 151//76 153//76
f 154//77 153//77 155//77
f 156//78 155//78 157//78
f 158//79 157//79 159//79
f 160//80 159//80 161//80
f 162//81 161//81 163//81
f 164//82 163//82 165//82
f 166//83 165//83 167//83
f 168//84 167//84 169//84
f 170//85 169//85 171//85
f 172//86 171//86 173//86
f 174//87 173//87 175//87
f 176//88 175//88 177//88
f 178//89 177//89 179//89
f 180//90 179//90 181//90
f 182//91 181//91 183//91
f 184//92 183//92 185//92
f 186//93 185//93 187//93
f 188//94 187//94 189//94
f 190//95 189//95 191//95
f 192//96 191//96 193//96
f 194//97 193//97 195//97
f 196//98 195//98 197//98
f 198//99 197//99 199//99
f 200//100 199//100 201//100
f 202//101 201//101 3//101
f 2//1 202//1 3//1
f 6//4 7//4 8//4
f 8//5 9//5 10//5
f 10//6 11//6 12//6
f 12//7 13//7 14//7
f 14//102 15//102 16//102
f 16//9 17//9 18//9
f 18//10 19//10 20//10
f 20//11 21//11 22//11
f 22//12 23//12 24//12
f 24//13 25//13 26//13
f 26//14 27//14 28//14
f 28//15 29//15 30//15
f 30//16 31//16 32//16
f 32//17 33//17 34//17
f 34//18 35//18 36//18
f 36//19 37//19 38//19
f 38//20 39//20 40//20
f 40//21 41//21 42//21
f 42//22 43//22 44//22
f 44//23 45//23 46//23
f 46//24 47//24 48//24
f 48//25 49//25 50//25
f 50//26 51//26 52//26
f 52//27 53//27 54//27
f 54//28 55//28 56//28
f 56//29 57//29 58//29
f 58//30 59//30 60//30
f 60//31 61//31 62//31
f 62//32 63//32 64//32
f 64//33 65//33 66//33
f 66//34 67//34 68//34
f 68//35 69//35 70//35
f 70//36 71//36 72//36
f 72//37 73//37 74//37
f 74//38 75//38 76//38
f 76//39 77//39 78//39
f 78//40 79//40 80//40
f 80//41 81//41 82//41
f 82//42 83//42 84//42
f 84//43 85//43 86//43
f 86//103 87//103 88//103
f 88//45 89//45 90//45
f 90//46 91//46 92//46
f 92//47 93//47 94//47
f 94//48 95//48 96//48
f 96//49 97//49 98//49
f 98//50 99//50 100//50
f 100//51 101//51 102//51
f 102//52 103//52 104//52
f 104//53 105//53 106//53
f 106//54 107//54 108//54
f 108//55 109//55 110//55
f 110//56 111//56 112//56
f 112//57 113//57 114//57
f 114//58 115//58 116//58
f 116//59 117//59 118//59
f 118//60 119//60 120//60
f 120//61 121//61 122//61
f 122//62 123//62 124//62
f 124//63 125//63 126//63
f 126//64 127//64 128//64
f 128//65 129//65 130//65
f 130//66 131//66 132//66
f 132//67 133//67 134//67
f 134//68 135//68 136//68
f 136//69 137//69 138//69
f 138//70 139//70 140//70
f 140//71 141//71 142//71
f 142//72 143//72 144//72
f 144//73 145//73 146//73
f 146//74 147//74 148//74
f 148//75 149//75 150//75
f 150//76 151//76 152//76
f 152//77 153//77 154//77
f 154//78 155//78 156//78
f 156//79 157//79 158//79
f 158//80 159//80 160//80
f 160//81 161//81 162//81
f 162//82 163//82 164//82
f 164//83 165//83 166//83
f 166//84 167//84 168//84
f 168//85 169//85 170//85
f 170//86 171//86 172//86
f 172//87 173//87 174//87
f 174//88 175//88 176//88
f 176//89 177//89 178//89
f 178//90 179//90 180//90
f 180//91 181//91 182//91
f 182//92 183//92 184//92
f 184//93 185//93 186//93
f 186//94 187//94 188//94
f 188//104 189//104 190//104
f 190//96 191//96 192//96
f 192//97 193//97 194//97
f 194//98 195//98 196//98
f 196//99 197//99 198//99
f 198//100 199//100 200//100
f 200//101 201//101 202//101
f 203//105 204//105 205//105
f 203//106 206//106 204//106
f 203//106 207//106 206//106
f 206//107 207//107 208//107
f 208//107 207//107 209//107
f 210//108 209//108 211//108
f 212//109 211//109 213//109
f 214//110 213//110 215//110
f 216//111 215//111 217//111
f 218//112 217//112 219//112
f 220//113 219//113 221//113
f 222//114 221//114 223//114
f 224//115 223//115 225//115
f 226//116 225//116 227//116
f 228//117 227//117 229//117
f 230//118 229//118 231//118
f 232//119 231//119 233//119
f 234//120 233//120 235//120
f 236//121 235//121 237//121
f 238//122 237//122 239//122
f 240//123 239//123 241//123
f 242//124 241//124 243//124
f 244//125 243//125 245//125
f 246//126 245//126 247//126
f 248//127 247//127 249//127
f 250//128 249//128 251//128
f 252//129 251//129 253//129
f 254//130 253//130 255//130
f 256//131 255//131 257//131
f 258//132 257//132 259//132
f 260//133 259//133 261//133
f 262//134 261//134 263//134
f 264//135 263//135 265//135
f 266//136 265//136 267//136
f 268//137 267//137 269//137
f 270//138 269//138 271//138
f 272//139 271//139 273//139
f 274//140 273//140 275//140
f 276//141 275//141 277//141
f 278//142 277//142 279//142
f 280//143 279//143 281//143
f 282//144 281//144 283//144
f 284//145 283//145 285//145
f 286//146 285//146 287//146
f 288//147 287//147 289//147
f 290//148 289//148 291//148
f 292//149 291//149 293//149
f 294//150 293//150 295//150
f 296//151 295//151 297//151
f 298//152 297//152 299//152
f 300//153 299//153 301//153
f 302//154 301//154 303//154
f 304//155 303//155 305//155
f 306//156 305//156 307//156
f 308//157 307//157 309//157
f 310//158 309//158 311//158
f 312//159 311//159 313//159
f 314//160 313//160 315//160
f 316//161 315//161 317//161
f 318//162 317//162 319//162
f 320//163 319//163 321//163
f 322//164 321//164 323//164
f 324//165 323//165 325//165
f 326//166 325//166 327//166
f 328//167 327//167 329//167
f 330//168 329//168 331//168
f 332//169 331//169 333//169
f 334//170 333//170 335//170
f 336//171 335//171 337//171
f 338//172 337//172 339//172
f 340//173 339//173 341//173
f 342//174 341//174 343//174
f 344//175 343//175 345//175
f 346//176 345//176 347//176
f 348//177 347//177 349//177
f 350//178 349//178 351//178
f 352//179 351//179 353//179
f 354//180 353//180 355//180
f 356//181 355//181 357//181
f 358//182 357//182 359//182
f 360//183 359//183 361//183
f 362//184 361//184 363//184
f 364//185 363//185 365//185
f 366//186 365//186 367//186
f 368//187 367//187 369//187
f 370//188 369//188 371//188
f 372//189 371//189 373//189
f 374//190 373//190 375//190
f 376//191 375//191 377//191
f 378//192 377//192 379//192
f 380//193 379//193 381//193
f 382//194 381//194 383//194
f 384//195 383//195 385//195
f 386//196 385//196 387//196
f 388//197 387//197 389//197
f 390//198 389//198 391//198
f 392//199 391//199 393//199
f 394//200 393//200 395//200
f 396//201 395//201 397//201
f 398//202 397//202 399//202
f 400//203 399//203 401//203
f 402//204 401//204 403//204
f 404//205 403//205 405//205
f 406//206 405//206 407//206
f 408//207 407//207 409//207
f 410//208 409//208 411//208
f 412//209 411//209 205//209
f 204//105 412//105 205//105
f 208//108 209//108 210//108
f 210//109 211//109 212//109
f 212//110 213//110 214//110
f 214//111 215//111 216//111
f 216//112 217//112 218//112
f 218//113 219//113 220//113
f 220//114 221//114 222//114
f 222//115 223//115 224//115
f 224//116 225//116 226//116
f 226//117 227//117 228//117
f 228//118 229//118 230//118
f 230//119 231//119 232//119
f 232//120 233//120 234//120
f 234//121 235//121 236//121
f 236//122 237//122 238//122
f 238//123 239//123 240//123
f 240//124 241//124 242//124
f 242//125 243//125 244//125
f 244//126 245//126 246//126
f 246//127 247//127 248//127
f 248//128 249//128 250//128
f 250//129 251//129 252//129
f 252//130 253//130 254//130
f 254//131 255//131 256//131
f 256//132 257//132 258//132
f 258//133 259//133 260//133
f 260//134 261//134 262//134
f 262//135 263//135 264//135
f 264//136 265//136 266//136
f 266//137 267//137 268//137
f 268//138 269//138 270//138
f 270//139 271//139 272//139
f 272//140 273//140 274//140
f 274//141 275//141 276//141
f 276//142 277//142 278//142
f 278//143 279//143 280//143
f 280//144 281//144 282//144
f 282//145 283//145 284//145
f 284//146 285//146 286//146
f 286//147 287//147 288//147
f 288//148 289//148 290//148
f 290//149 291//149 292//149
f 292//150 293//150 294//150
f 294//151 295//151 296//151
f 296//152 297//152 298//152
f 298//153 299//153 300//153
f 300//154 301//154 302//154
f 302//155 303//155 304//155
f 304//156 305//156 306//156
f 306//157 307//157 308//157
f 308//158 309//158 310//158
f 310//159 311//159 312//159
f 312//160 313//160 314//160
f 314//161 315//161 316//161
f 316//162 317//162 318//162
f 318//163 319//163 320//163
f 320//164 321//164 322//164
f 322//165 323//165 324//165
f 324//166 325//166 326//166
f 326//167 327//167 328//167
f 328//168 329//168 330//168
f 330//169 331//169 332//169
f 332//170 333//170 334//170
f 334//171 335//171 336//171
f 336//172 337//172 338//172
f 338//173 339//173 340//173
f 340//174 341//174 342//174
f 342//175 343//175 344//175
f 344//176 345//176 346//176
f 346//177 347//177 348//177
f 348//178 349//178 350//178
f 350//179 351//179 352//179
f 352//180 353//180 354//180
f 354//181 355//181 356//181
f 356//182 357//182 358//182
f 358//183 359//183 360//183
f 360//184 361//184 362//184
f 362//185 363//185 364//185
f 364//186 365//186 366//186
f 366//187 367//187 368//187
f 368//188 369//188 370//188
f 370//189 371//189 372//189
f 372//190 373//190 374//190
f 374//191 375//191 376//191
f 376//192 377//192 378//192
f 378//193 379//193 380//193
f 380//194 381//194 382//194
f 382//195 383//195 384//195
f 384//196 385//196 386//196
f 386//197 387//197 388//197
f 388//198 389//198 390//198
f 390//199 391//199 392//199
f 392//200 393//200 394//200
f 394//201 395//201 396//201
f 396//202 397//202 398//202
f 398//203 399//203 400//203
f 400//204 401//204 402//204
f 402//205 403//205 404//205
f 404//206 405//206 406//206
f 406//207 407//207 408//207
f 408//208 409//208 410//208
f 410//209 411//209 412//209
f 203//210 205//210 3//210
f 201//210 203//210 3//210
f 201//210 207//210 203//210
f 201//210 199//210 207//210
f 207//210 199//210 209//210
f 209//210 199//210 197//210
f 211//210 197//210 195//210
f 213//210 195//210 193//210
f 215//210 193//210 191//210
f 217//210 191//210 189//210
f 219//210 189//210 187//210
f 221//210 187//210 185//210
f 223//210 185//210 183//210
f 225//210 183//210 181//210
f 227//210 181//210 179//210
f 229//210 179//210 177//210
f 231//210 177//210 175//210
f 233//210 175//210 173//210
f 235//210 173//210 171//210
f 237//210 171//210 169//210
f 239//210 169//210 167//210
f 241//210 167//210 165//210
f 243//210 165//210 163//210
f 245//210 163//210 161//210
f 247//210 161//210 159//210
f 249//210 159//210 157//210
f 251//210 157//210 155//210
f 253//210 155//210 153//210
f 255//210 153//210 257//210
f 255//210 253//210 153//210
f 409//210 1//210 411//210
f 409//210 5//210 1//210
f 409//210 407//210 5//210
f 5//210 407//210 7//210
f 7//210 407//210 405//210
f 9//210 405//210 403//210
f 11//210 403//210 401//210
f 13//210 401//210 399//210
f 15//210 399//210 397//210
f 17//210 397//210 395//210
f 19//210 395//210 393//210
f 21//210 393//210 391//210
f 23//210 391//210 389//210
f 25//210 389//210 387//210
f 27//210 387//210 385//210
f 29//210 385//210 383//210
f 31//210 383//210 381//210
f 33//210 381//210 379//210
f 35//210 379//210 377//210
f 37//210 377//210 375//210
f 39//210 375//210 373//210
f 41//210 373//210 371//210
f 43//210 371//210 369//210
f 45//210 369//210 367//210
f 47//210 367//210 365//210
f 49//210 365//210 363//210
f 51//210 363//210 361//210
f 359//210 51//210 361//210
f 359//210 53//210 51//210
f 359//210 357//210 53//210
f 53//210 357//210 55//210
f 55//210 357//210 355//210
f 57//210 355//210 353//210
f 59//210 353//210 351//210
f 61//210 351//210 349//210
f 63//210 349//210 347//210
f 65//210 347//210 345//210
f 67//210 345//210 343//210
f 69//210 343//210 341//210
f 71//210 341//210 339//210
f 73//210 339//210 337//210
f 75//210 337//210 335//210
f 77//210 335//210 333//210
f 79//210 333//210 331//210
f 81//210 331//210 329//210
f 83//210 329//210 327//210
f 85//210 327//210 325//210
f 87//210 325//210 323//210
f 89//210 323//210 321//210
f 91//210 321//210 319//210
f 93//210 319//210 317//210
f 95//210 317//210 315//210
f 97//210 315//210 313//210
f 99//210 313//210 311//210
f 101//210 311//210 309//210
f 307//210 101//210 309//210
f 307//210 103//210 101//210
f 307//210 305//210 103//210
f 103//210 305//210 105//210
f 105//210 305//210 303//210
f 107//210 303//210 301//210
f 109//210 301//210 299//210
f 111//210 299//210 297//210
f 113//210 297//210 295//210
f 115//210 295//210 293//210
f 117//210 293//210 291//210
f 119//210 291//210 289//210
f 121//210 289//210 287//210
f 123//210 287//210 285//210
f 125//210 285//210 283//210
f 127//210 283//210 281//210
f 129//210 281//210 279//210
f 131//210 279//210 277//210
f 133//210 277//210 275//210
f 135//210 275//210 273//210
f 137//210 273//210 271//210
f 139//210 271//210 269//210
f 141//210 269//210 267//210
f 143//210 267//210 265//210
f 145//210 265//210 263//210
f 147//210 263//210 261//210
f 149//210 261//210 259//210
f 151//210 259//210 257//210
f 153//210 151//210 257//210
f 7//210 405//210 9//210
f 9//210 403//210 11//210
f 11//210 401//210 13//210
f 13//210 399//210 15//210
f 15//210 397//210 17//210
f 17//210 395//210 19//210
f 19//210 393//210 21//210
f 21//210 391//210 23//210
f 23//210 389//210 25//210
f 25//210 387//210 27//210
f 27//210 385//210 29//210
f 29//210 383//210 31//210
f 31//210 381//210 33//210
f 33//210 379//210 35//210
f 35//210 377//210 37//210
f 37//210 375//210 39//210
f 39//210 373//210 41//210
f 41//210 371//210 43//210
f 43//210 369//210 45//210
f 45//210 367//210 47//210
f 47//210 365//210 49//210
f 49//210 363//210 51//210
f 55//210 355//210 57//210
f 57//210 353//210 59//210
f 59//210 351//210 61//210
f 61//210 349//210 63//210
f 63//210 347//210 65//210
f 65//210 345//210 67//210
f 67//210 343//210 69//210
f 69//210 341//210 71//210
f 71//210 339//210 73//210
f 73//210 337//210 75//210
f 75//210 335//210 77//210
f 77//210 333//210 79//210
f 79//210 331//210 81//210
f 81//210 329//210 83//210
f 83//210 327//210 85//210
f 85//210 325//210 87//210
f 87//210 323//210 89//210
f 89//210 321//210 91//210
f 91//210 319//210 93//210
f 93//210 317//210 95//210
f 95//210 315//210 97//210
f 97//210 313//210 99//210
f 99//210 311//210 101//210
f 105//210 303//210 107//210
f 107//210 301//210 109//210
f 109//210 299//210 111//210
f 111//210 297//210 113//210
f 113//210 295//210 115//210
f 115//210 293//210 117//210
f 117//210 291//210 119//210
f 119//210 289//210 121//210
f 121//210 287//210 123//210
f 123//210 285//210 125//210
f 125//210 283//210 127//210
f 127//210 281//210 129//210
f 129//210 279//210 131//210
f 131//210 277//210 133//210
f 133//210 275//210 135//210
f 135//210 273//210 137//210
f 137//210 271//210 139//210
f 139//210 269//210 141//210
f 141//210 267//210 143//210
f 143//210 265//210 145//210
f 145//210 263//210 147//210
f 147//210 261//210 149//210
f 149//210 259//210 151//210
f 253//210 251//210 155//210
f 251//210 249//210 157//210
f 249//210 247//210 159//210
f 247//210 245//210 161//210
f 245//210 243//210 163//210
f 243//210 241//210 165//210
f 241//210 239//210 167//210
f 239//210 237//210 169//210
f 237//210 235//210 171//210
f 235//210 233//210 173//210
f 233//210 231//210 175//210
f 231//210 229//210 177//210
f 229//210 227//210 179//210
f 227//210 225//210 181//210
f 225//210 223//210 183//210
f 223//210 221//210 185//210
f 221//210 219//210 187//210
f 219//210 217//210 189//210
f 217//210 215//210 191//210
f 215//210 213//210 193//210
f 213//210 211//210 195//210
f 211//210 209//210 197//210
f 1//210 3//210 411//210
f 411//210 3//210 205//210
f 410//211 412//211 202//211
f 2//211 410//211 202//211
f 2//211 408//211 410//211
f 2//211 4//211 408//211
f 408//211 4//211 406//211
f 406//211 4//211 6//211
f 404//211 6//211 8//211
f 402//211 8//211 10//211
f 400//211 10//211 12//211
f 398//211 12//211 14//211
f 396//211 14//211 16//211
f 394//211 16//211 18//211
f 392//211 18//211 20//211
f 390//211 20//211 22//211
f 388//211 22//211 24//211
f 386//211 24//211 26//211
f 384//211 26//211 28//211
f 382//211 28//211 30//211
f 380//211 30//211 32//211
f 378//211 32//211 34//211
f 376//211 34//211 36//211
f 374//211 36//211 38//211
f 372//211 38//211 40//211
f 370//211 40//211 42//211
f 368//211 42//211 44//211
f 366//211 44//211 46//211
f 364//211 46//211 48//211
f 362//211 48//211 50//211
f 360//211 50//211 358//211
f 360//211 362//211 50//211
f 206//211 200//211 204//211
f 206//211 198//211 200//211
f 206//211 208//211 198//211
f 198//211 208//211 196//211
f 196//211 208//211 210//211
f 194//211 210//211 212//211
f 192//211 212//211 214//211
f 190//211 214//211 216//211
f 188//211 216//211 218//211
f 186//211 218//211 220//211
f 184//211 220//211 222//211
f 182//211 222//211 224//211
f 180//211 224//211 226//211
f 178//211 226//211 228//211
f 176//211 228//211 230//211
f 174//211 230//211 232//211
f 172//211 232//211 234//211
f 170//211 234//211 236//211
f 168//211 236//211 238//211
f 166//211 238//211 240//211
f 164//211 240//211 242//211
f 162//211 242//211 244//211
f 160//211 244//211 246//211
f 158//211 246//211 248//211
f 156//211 248//211 250//211
f 154//211 250//211 252//211
f 152//211 252//211 254//211
f 256//211 152//211 254//211
f 256//211 150//211 152//211
f 256//211 258//211 150//211
f 150//211 258//211 148//211
f 148//211 258//211 260//211
f 146//211 260//211 262//211
f 144//211 262//211 264//211
f 142//211 264//211 266//211
f 140//211 266//211 268//211
f 138//211 268//211 270//211
f 136//211 270//211 272//211
f 134//211 272//211 274//211
f 132//211 274//211 276//211
f 130//211 276//211 278//211
f 128//211 278//211 280//211
f 126//211 280//211 282//211
f 124//211 282//211 284//211
f 122//211 284//211 286//211
f 120//211 286//211 288//211
f 118//211 288//211 290//211
f 116//211 290//211 292//211
f 114//211 292//211 294//211
f 112//211 294//211 296//211
f 110//211 296//211 298//211
f 108//211 298//211 300//211
f 106//211 300//211 302//211
f 104//211 302//211 304//211
f 102//211 304//211 306//211
f 100//211 306//211 308//211
f 310//211 100//211 308//211
f 310//211 98//211 100//211
f 310//211 312//211 98//211
f 98//211 312//211 96//211
f 96//211 312//211 314//211
f 94//211 314//211 316//211
f 92//211 316//211 318//211
f 90//211 318//211 320//211
f 88//211 320//211 322//211
f 86//211 322//211 324//211
f 84//211 324//211 326//211
f 82//211 326//211 328//211
f 80//211 328//211 330//211
f 78//211 330//211 332//211
f 76//211 332//211 334//211
f 74//211 334//211 336//211
f 72//211 336//211 338//211
f 70//211 338//211 340//211
f 68//211 340//211 342//211
f 66//211 342//211 344//211
f 64//211 344//211 346//211
f 62//211 346//211 348//211
f 60//211 348//211 350//211
f 58//211 350//211 352//211
f 56//211 352//211 354//211
f 54//211 354//211 356//211
f 52//211 356//211 358//211
f 50//211 52//211 358//211
f 196//211 210//211 194//211
f 194//211 212//211 192//211
f 192//211 214//211 190//211
f 190//211 216//211 188//211
f 188//211 218//211 186//211
f 186//211 220//211 184//211
f 184//211 222//211 182//211
f 182//211 224//211 180//211
f 180//211 226//211 178//211
f 178//211 228//211 176//211
f 176//211 230//211 174//211
f 174//211 232//211 172//211
f 172//211 234//211 170//211
f 170//211 236//211 168//211
f 168//211 238//211 166//211
f 166//211 240//211 164//211
f 164//211 242//211 162//211
f 162//211 244//211 160//211
f 160//211 246//211 158//211
f 158//211 248//211 156//211
f 156//211 250//211 154//211
f 154//211 252//211 152//211
f 148//211 260//211 146//211
f 146//211 262//211 144//211
f 144//211 264//211 142//211
f 142//211 266//211 140//211
f 140//211 268//211 138//211
f 138//211 270//211 136//211
f 136//211 272//211 134//211
f 134//211 274//211 132//211
f 132//211 276//211 130//211
f 130//211 278//211 128//211
f 128//211 280//211 126//211
f 126//211 282//211 124//211
f 124//211 284//211 122//211
f 122//211 286//211 120//211
f 120//211 288//211 118//211
f 118//211 290//211 116//211
f 116//211 292//211 114//211
f 114//211 294//211 112//211
f 112//211 296//211 110//211
f 110//211 298//211 108//211
f 108//211 300//211 106//211
f 106//211 302//211 104//211
f 104//211 304//211 102//211
f 102//211 306//211 100//211
f 96//211 314//211 94//211
f 94//211 316//211 92//211
f 92//211 318//211 90//211
f 90//211 320//211 88//211
f 88//211 322//211 86//211
f 86//211 324//211 84//211
f 84//211 326//211 82//211
f 82//211 328//211 80//211
f 80//211 330//211 78//211
f 78//211 332//211 76//211
f 76//211 334//211 74//211
f 74//211 336//211 72//211
f 72//211 338//211 70//211
f 70//211 340//211 68//211
f 68//211 342//211 66//211
f 66//211 344//211 64//211
f 64//211 346//211 62//211
f 62//211 348//211 60//211
f 60//211 350//211 58//211
f 58//211 352//211 56//211
f 56//211 354//211 54//211
f 54//211 356//211 52//211
f 362//211 364//211 48//211
f 364//211 366//211 46//211
f 366//211 368//211 44//211
f 368//211 370//211 42//211
f 370//211 372//211 40//211
f 372//211 374//211 38//211
f 374//211 376//211 36//211
f 376//211 378//211 34//211
f 378//211 380//211 32//211
f 380//211 382//211 30//211
f 382//211 384//211 28//211
f 384//211 386//211 26//211
f 386//211 388//211 24//211
f 388//211 390//211 22//211
f 390//211 392//211 20//211
f 392//211 394//211 18//211
f 394//211 396//211 16//211
f 396//211 398//211 14//211
f 398//211 400//211 12//211
f 400//211 402//211 10//211
f 402//211 404//211 8//211
f 404//211 406//211 6//211
f 200//211 202//211 204//211
f 204//211 202//211 412//211
