# Blender 4.0.2
# www.blender.org
o raspimouse_body__m2
v -0.038699 -0.041170 0.012343
v -0.038699 -0.034170 0.012343
v -0.038699 -0.041170 0.017158
v -0.038699 -0.034170 0.017158
v -0.042403 -0.041170 0.012343
v -0.042403 -0.034170 0.012343
v -0.042403 -0.041170 0.017158
v -0.042403 -0.034170 0.017158
v -0.038034 -0.044170 0.020853
v -0.038034 -0.034170 0.020853
v -0.038034 -0.044170 0.023160
v -0.038034 -0.034170 0.023160
v -0.041696 -0.044170 0.020853
v -0.041696 -0.034170 0.020853
v -0.041696 -0.044170 0.023160
v -0.041696 -0.034170 0.023160
v -0.052500 -0.034170 0.001000
v -0.052500 -0.034170 0.036000
v -0.031000 -0.034170 0.001000
v -0.031000 -0.034170 0.036000
v -0.052500 0.033830 0.001000
v -0.031000 0.033830 0.001000
v -0.052500 0.033830 0.036000
v -0.031000 0.033830 0.036000
vn 1.0000 -0.0000 -0.0000
vn -0.0000 -0.0000 -1.0000
vn -1.0000 -0.0000 -0.0000
vn -0.0000 -0.0000 1.0000
vn -0.0000 -1.0000 -0.0000
vn -0.0000 1.0000 -0.0000
s 0
f 1//1 2//1 3//1
f 3//1 2//1 4//1
f 1//2 5//2 2//2
f 2//2 5//2 6//2
f 7//3 8//3 5//3
f 5//3 8//3 6//3
f 7//4 3//4 8//4
f 8//4 3//4 4//4
f 3//5 7//5 1//5
f 1//5 7//5 5//5
f 9//1 10//1 11//1
f 11//1 10//1 12//1
f 9//2 13//2 10//2
f 10//2 13//2 14//2
f 15//3 16//3 13//3
f 13//3 16//3 14//3
f 15//4 11//4 16//4
f 16//4 11//4 12//4
f 11//5 15//5 9//5
f 9//5 15//5 13//5
f 17//5 8//5 18//5
f 17//5 6//5 8//5
f 17//5 19//5 6//5
f 6//5 19//5 2//5
f 2//5 19//5 4//5
f 4//5 19//5 10//5
f 14//5 4//5 10//5
f 14//5 8//5 4//5
f 14//5 16//5 8//5
f 8//5 16//5 18//5
f 18//5 16//5 20//5
f 20//5 16//5 12//5
f 10//5 20//5 12//5
f 10//5 19//5 20//5
f 21//2 22//2 17//2
f 17//2 22//2 19//2
f 23//6 24//6 21//6
f 21//6 24//6 22//6
f 18//4 20//4 23//4
f 23//4 20//4 24//4
f 18//3 23//3 17//3
f 17//3 23//3 21//3
f 24//1 20//1 22//1
f 22//1 20//1 19//1
