# Blender 4.0.2
# www.blender.org
o raspimouse_body__m3
v -0.049500 -0.028000 0.065300
v -0.050085 -0.027942 0.065300
v -0.049500 -0.028000 0.063700
v -0.050085 -0.027942 0.063700
v -0.050648 -0.027772 0.065300
v -0.050648 -0.027772 0.063700
v -0.051167 -0.027494 0.065300
v -0.051167 -0.027494 0.063700
v -0.051621 -0.027121 0.065300
v -0.051621 -0.027121 0.063700
v -0.051994 -0.026667 0.065300
v -0.051994 -0.026667 0.063700
v -0.052272 -0.026148 0.065300
v -0.052272 -0.026148 0.063700
v -0.052442 -0.025585 0.065300
v -0.052442 -0.025585 0.063700
v -0.052500 -0.025000 0.065300
v -0.052500 -0.025000 0.063700
v -0.049500 0.028000 0.065300
v -0.029000 0.025875 0.065300
v 0.029500 0.028000 0.065300
v -0.029356 0.025828 0.065300
v -0.029687 0.025691 0.065300
v -0.029972 0.025472 0.065300
v -0.030191 0.025187 0.065300
v -0.030328 0.024856 0.065300
v -0.030375 0.024500 0.065300
v -0.030328 0.024144 0.065300
v -0.052500 0.025000 0.065300
v -0.052442 0.025585 0.065300
v -0.052272 0.026148 0.065300
v -0.051994 0.026667 0.065300
v -0.051621 0.027121 0.065300
v -0.051167 0.027494 0.065300
v -0.050648 0.027772 0.065300
v -0.050085 0.027942 0.065300
v -0.029356 -0.023172 0.065300
v -0.029687 -0.023309 0.065300
v -0.029972 -0.023528 0.065300
v -0.030191 -0.023812 0.065300
v -0.030328 -0.024144 0.065300
v 0.029500 -0.028000 0.065300
v -0.029000 -0.025875 0.065300
v -0.028644 -0.025828 0.065300
v -0.028313 -0.025691 0.065300
v -0.028028 -0.025472 0.065300
v -0.027809 -0.025187 0.065300
v 0.027809 -0.025187 0.065300
v 0.028028 -0.025472 0.065300
v 0.028313 -0.025691 0.065300
v 0.028644 -0.025828 0.065300
v 0.029000 -0.025875 0.065300
v 0.029356 -0.025828 0.065300
v 0.030085 -0.027942 0.065300
v 0.030648 -0.027772 0.065300
v 0.031167 -0.027494 0.065300
v 0.031621 -0.027121 0.065300
v 0.029687 -0.025691 0.065300
v 0.031994 -0.026667 0.065300
v 0.029972 -0.025472 0.065300
v 0.032272 -0.026148 0.065300
v 0.032442 -0.025585 0.065300
v 0.030191 -0.025187 0.065300
v 0.032500 -0.025000 0.065300
v 0.030328 -0.024856 0.065300
v 0.030375 -0.024500 0.065300
v 0.030328 -0.024144 0.065300
v 0.030191 -0.023812 0.065300
v 0.029972 -0.023528 0.065300
v 0.029687 -0.023309 0.065300
v 0.032500 0.025000 0.065300
v 0.029687 0.023309 0.065300
v 0.029972 0.023528 0.065300
v 0.029356 -0.023172 0.065300
v 0.029356 0.023172 0.065300
v 0.029000 -0.023125 0.065300
v 0.029000 0.023125 0.065300
v 0.028644 0.023172 0.065300
v 0.028644 -0.023172 0.065300
v 0.028313 0.023309 0.065300
v 0.028313 -0.023309 0.065300
v -0.028313 0.023309 0.065300
v -0.028313 -0.023309 0.065300
v -0.028644 -0.023172 0.065300
v 0.028028 -0.023528 0.065300
v -0.028028 -0.023528 0.065300
v 0.027809 -0.023812 0.065300
v -0.027809 -0.023812 0.065300
v 0.027672 -0.024144 0.065300
v -0.027672 -0.024144 0.065300
v 0.027625 -0.024500 0.065300
v -0.027625 -0.024500 0.065300
v 0.027672 -0.024856 0.065300
v -0.027672 -0.024856 0.065300
v 0.032442 0.025585 0.065300
v 0.030191 0.025187 0.065300
v 0.029972 0.025472 0.065300
v 0.032272 0.026148 0.065300
v 0.031994 0.026667 0.065300
v 0.029687 0.025691 0.065300
v 0.031621 0.027121 0.065300
v 0.029356 0.025828 0.065300
v 0.031167 0.027494 0.065300
v 0.030648 0.027772 0.065300
v 0.030085 0.027942 0.065300
v 0.029000 0.025875 0.065300
v 0.028644 0.025828 0.065300
v -0.030328 -0.024856 0.065300
v -0.030375 -0.024500 0.065300
v -0.030191 -0.025187 0.065300
v -0.029972 -0.025472 0.065300
v -0.029000 -0.023125 0.065300
v -0.029000 0.023125 0.065300
v -0.028644 0.023172 0.065300
v -0.029356 -0.025828 0.065300
v -0.029687 -0.025691 0.065300
v -0.028644 0.025828 0.065300
v -0.028313 0.025691 0.065300
v -0.028028 0.025472 0.065300
v -0.027809 0.025187 0.065300
v 0.027809 0.025187 0.065300
v 0.028028 0.025472 0.065300
v 0.028313 0.025691 0.065300
v 0.027672 0.024856 0.065300
v -0.027672 0.024856 0.065300
v 0.027625 0.024500 0.065300
v -0.027625 0.024500 0.065300
v 0.027672 0.024144 0.065300
v -0.027672 0.024144 0.065300
v 0.027809 0.023812 0.065300
v -0.027809 0.023812 0.065300
v 0.028028 0.023528 0.065300
v -0.028028 0.023528 0.065300
v -0.029356 0.023172 0.065300
v -0.029687 0.023309 0.065300
v -0.029972 0.023528 0.065300
v -0.030191 0.023812 0.065300
v 0.030328 0.024856 0.065300
v 0.030375 0.024500 0.065300
v 0.030328 0.024144 0.065300
v 0.030191 0.023812 0.065300
v 0.029500 -0.028000 0.063700
v 0.030328 -0.024856 0.063700
v 0.030375 -0.024500 0.063700
v 0.032500 -0.025000 0.063700
v 0.030191 -0.025187 0.063700
v 0.032442 -0.025585 0.063700
v 0.029972 -0.025472 0.063700
v 0.032272 -0.026148 0.063700
v 0.031994 -0.026667 0.063700
v 0.029687 -0.025691 0.063700
v 0.031621 -0.027121 0.063700
v 0.029356 -0.025828 0.063700
v 0.031167 -0.027494 0.063700
v 0.030648 -0.027772 0.063700
v 0.030085 -0.027942 0.063700
v 0.029000 -0.025875 0.063700
v 0.028644 -0.025828 0.063700
v 0.030328 -0.024144 0.063700
v 0.030191 -0.023812 0.063700
v 0.029972 -0.023528 0.063700
v 0.029687 -0.023309 0.063700
v 0.032500 0.025000 0.063700
v 0.029687 0.023309 0.063700
v 0.029972 0.023528 0.063700
v 0.030191 0.023812 0.063700
v 0.030328 0.024144 0.063700
v 0.030375 0.024500 0.063700
v 0.030328 0.024856 0.063700
v 0.030191 0.025187 0.063700
v 0.032442 0.025585 0.063700
v 0.029972 0.025472 0.063700
v 0.032272 0.026148 0.063700
v 0.031994 0.026667 0.063700
v 0.029356 -0.023172 0.063700
v 0.029356 0.023172 0.063700
v 0.029000 -0.023125 0.063700
v 0.029000 0.023125 0.063700
v 0.028644 0.023172 0.063700
v 0.028644 -0.023172 0.063700
v 0.028313 0.023309 0.063700
v 0.028313 -0.023309 0.063700
v -0.028313 -0.023309 0.063700
v -0.028028 -0.023528 0.063700
v -0.028313 0.023309 0.063700
v -0.028644 -0.023172 0.063700
v -0.028644 0.023172 0.063700
v -0.029000 -0.023125 0.063700
v -0.029000 0.023125 0.063700
v -0.029356 -0.023172 0.063700
v -0.029356 0.023172 0.063700
v -0.052500 0.025000 0.063700
v -0.029687 0.023309 0.063700
v -0.029972 0.023528 0.063700
v 0.028028 -0.023528 0.063700
v -0.027809 -0.023812 0.063700
v 0.027809 -0.023812 0.063700
v -0.027672 -0.024144 0.063700
v 0.027672 -0.024144 0.063700
v -0.027625 -0.024500 0.063700
v 0.027625 -0.024500 0.063700
v -0.027672 -0.024856 0.063700
v 0.027672 -0.024856 0.063700
v -0.027809 -0.025187 0.063700
v 0.027809 -0.025187 0.063700
v 0.028028 -0.025472 0.063700
v 0.028313 -0.025691 0.063700
v -0.028028 -0.025472 0.063700
v -0.028313 -0.025691 0.063700
v 0.029687 0.025691 0.063700
v 0.031621 0.027121 0.063700
v 0.029356 0.025828 0.063700
v 0.031167 0.027494 0.063700
v 0.030648 0.027772 0.063700
v 0.029000 0.025875 0.063700
v 0.029500 0.028000 0.063700
v 0.028644 0.025828 0.063700
v 0.028313 0.025691 0.063700
v 0.028028 0.025472 0.063700
v 0.027809 0.025187 0.063700
v -0.027809 0.025187 0.063700
v -0.028028 0.025472 0.063700
v -0.028313 0.025691 0.063700
v -0.028644 0.025828 0.063700
v -0.029000 0.025875 0.063700
v -0.049500 0.028000 0.063700
v -0.029356 0.025828 0.063700
v -0.029687 0.025691 0.063700
v -0.029972 0.025472 0.063700
v -0.030191 0.025187 0.063700
v -0.030328 0.024856 0.063700
v -0.030375 0.024500 0.063700
v -0.030328 0.024144 0.063700
v -0.052442 0.025585 0.063700
v -0.052272 0.026148 0.063700
v -0.051994 0.026667 0.063700
v -0.051621 0.027121 0.063700
v -0.051167 0.027494 0.063700
v -0.050648 0.027772 0.063700
v -0.050085 0.027942 0.063700
v -0.027672 0.024856 0.063700
v 0.027672 0.024856 0.063700
v -0.027625 0.024500 0.063700
v 0.027625 0.024500 0.063700
v -0.027672 0.024144 0.063700
v 0.027672 0.024144 0.063700
v -0.027809 0.023812 0.063700
v 0.027809 0.023812 0.063700
v -0.028028 0.023528 0.063700
v 0.028028 0.023528 0.063700
v -0.030191 0.023812 0.063700
v -0.029687 -0.023309 0.063700
v -0.029972 -0.023528 0.063700
v -0.030191 -0.023812 0.063700
v -0.030328 -0.024144 0.063700
v -0.030375 -0.024500 0.063700
v -0.030328 -0.024856 0.063700
v -0.030191 -0.025187 0.063700
v -0.029972 -0.025472 0.063700
v -0.029687 -0.025691 0.063700
v -0.029356 -0.025828 0.063700
v -0.029000 -0.025875 0.063700
v -0.028644 -0.025828 0.063700
v 0.030085 0.027942 0.063700
vn -0.0987 -0.9951 -0.0000
vn -0.2891 -0.9573 -0.0000
vn -0.4722 -0.8815 -0.0000
vn -0.6348 -0.7727 -0.0000
vn -0.7727 -0.6348 -0.0000
vn -0.8815 -0.4722 -0.0000
vn -0.9573 -0.2891 -0.0000
vn -0.9951 -0.0986 -0.0000
vn -0.9951 -0.0987 -0.0000
vn -0.0000 -0.0000 1.0000
vn -0.0000 -1.0000 -0.0000
vn -0.0000 -0.0000 -1.0000
vn 0.0001 -0.0000 -1.0000
vn 0.9951 -0.0987 -0.0000
vn 0.9573 -0.2891 -0.0000
vn 0.8815 -0.4722 -0.0000
vn 0.7727 -0.6348 -0.0000
vn 0.6348 -0.7727 -0.0000
vn 0.4722 -0.8815 -0.0000
vn 0.2891 -0.9573 -0.0000
vn 0.0987 -0.9951 -0.0000
vn 1.0000 -0.0000 -0.0000
vn 0.0987 0.9951 -0.0000
vn 0.2891 0.9573 -0.0000
vn 0.4722 0.8815 -0.0000
vn 0.6348 0.7727 -0.0000
vn 0.7727 0.6348 -0.0000
vn 0.8815 0.4722 -0.0000
vn 0.9573 0.2891 -0.0000
vn 0.9951 0.0987 -0.0000
vn -0.0000 1.0000 -0.0000
vn -0.9951 0.0987 -0.0000
vn -0.9951 0.0986 -0.0000
vn -0.9573 0.2891 -0.0000
vn -0.8815 0.4722 -0.0000
vn -0.7727 0.6348 -0.0000
vn -0.6348 0.7727 -0.0000
vn -0.4722 0.8815 -0.0000
vn -0.2891 0.9573 -0.0000
vn -0.0987 0.9951 -0.0000
vn -1.0000 -0.0000 -0.0000
vn -0.9914 0.1309 -0.0000
vn -0.9240 0.3824 -0.0000
vn -0.7929 0.6093 -0.0000
vn -0.6093 0.7929 -0.0000
vn -0.3824 0.9240 -0.0000
vn -0.1309 0.9914 -0.0000
vn 0.1309 0.9914 -0.0000
vn 0.3824 0.9240 -0.0000
vn 0.6093 0.7929 -0.0000
vn 0.7929 0.6093 -0.0000
vn 0.9240 0.3824 -0.0000
vn 0.9914 0.1309 -0.0000
vn 0.9914 -0.1309 -0.0000
vn 0.9244 -0.3815 -0.0000
vn 0.7919 -0.6107 -0.0000
vn 0.6093 -0.7929 -0.0000
vn 0.3824 -0.9240 -0.0000
vn 0.1309 -0.9914 -0.0000
vn -0.1309 -0.9914 -0.0000
vn -0.3824 -0.9240 -0.0000
vn -0.6093 -0.7929 -0.0000
vn -0.7919 -0.6107 -0.0000
vn -0.9244 -0.3814 -0.0000
vn -0.9914 -0.1309 -0.0000
vn -0.9244 -0.3815 -0.0000
vn -0.9244 0.3814 -0.0000
vn -0.9244 0.3815 -0.0000
vn -0.7919 0.6107 -0.0000
vn -0.7919 0.6106 -0.0000
vn 0.7919 0.6106 -0.0000
vn 0.9244 0.3815 -0.0000
vn 0.9240 -0.3824 -0.0000
vn 0.7929 -0.6093 -0.0000
vn -0.7929 -0.6093 -0.0000
vn -0.9240 -0.3824 -0.0000
vn 0.7919 0.6107 -0.0000
vn 0.9244 0.3814 -0.0000
vn 0.7919 -0.6106 -0.0000
vn -0.7919 -0.6106 -0.0000
vn 0.9244 -0.3814 -0.0000
s 0
f 1//1 2//1 3//1
f 3//1 2//1 4//1
f 4//2 2//2 5//2
f 6//3 5//3 7//3
f 8//4 7//4 9//4
f 10//5 9//5 11//5
f 12//6 11//6 13//6
f 14//7 13//7 15//7
f 16//8 15//8 17//8
f 18//9 16//9 17//9
f 4//2 5//2 6//2
f 6//3 7//3 8//3
f 8//4 9//4 10//4
f 10//5 11//5 12//5
f 12//6 13//6 14//6
f 14//7 15//7 16//7
f 19//10 20//10 21//10
f 19//10 22//10 20//10
f 19//10 23//10 22//10
f 19//10 24//10 23//10
f 19//10 25//10 24//10
f 19//10 26//10 25//10
f 19//10 27//10 26//10
f 19//10 28//10 27//10
f 19//10 29//10 28//10
f 19//10 30//10 29//10
f 19//10 31//10 30//10
f 19//10 32//10 31//10
f 19//10 33//10 32//10
f 19//10 34//10 33//10
f 19//10 35//10 34//10
f 19//10 36//10 35//10
f 17//10 37//10 29//10
f 17//10 38//10 37//10
f 17//10 39//10 38//10
f 17//10 40//10 39//10
f 17//10 41//10 40//10
f 17//10 1//10 41//10
f 17//10 15//10 1//10
f 1//10 15//10 13//10
f 11//10 1//10 13//10
f 11//10 9//10 1//10
f 1//10 9//10 7//10
f 5//10 1//10 7//10
f 5//10 2//10 1//10
f 42//10 43//10 1//10
f 42//10 44//10 43//10
f 42//10 45//10 44//10
f 42//10 46//10 45//10
f 42//10 47//10 46//10
f 42//10 48//10 47//10
f 42//10 49//10 48//10
f 42//10 50//10 49//10
f 42//10 51//10 50//10
f 42//10 52//10 51//10
f 42//10 53//10 52//10
f 42//10 54//10 53//10
f 53//10 54//10 55//10
f 56//10 53//10 55//10
f 56//10 57//10 53//10
f 53//10 57//10 58//10
f 58//10 57//10 59//10
f 60//10 59//10 61//10
f 62//10 60//10 61//10
f 62//10 63//10 60//10
f 62//10 64//10 63//10
f 63//10 64//10 65//10
f 65//10 64//10 66//10
f 66//10 64//10 67//10
f 67//10 64//10 68//10
f 68//10 64//10 69//10
f 69//10 64//10 70//10
f 70//10 64//10 71//10
f 72//10 71//10 73//10
f 72//10 70//10 71//10
f 72//10 74//10 70//10
f 72//10 75//10 74//10
f 74//10 75//10 76//10
f 76//10 75//10 77//10
f 78//10 76//10 77//10
f 78//10 79//10 76//10
f 78//10 80//10 79//10
f 79//10 80//10 81//10
f 81//10 80//10 82//10
f 83//10 82//10 84//10
f 83//10 81//10 82//10
f 83//10 85//10 81//10
f 83//10 86//10 85//10
f 85//10 86//10 87//10
f 87//10 86//10 88//10
f 89//10 88//10 90//10
f 91//10 90//10 92//10
f 93//10 92//10 94//10
f 48//10 94//10 47//10
f 48//10 93//10 94//10
f 58//10 59//10 60//10
f 95//10 96//10 71//10
f 95//10 97//10 96//10
f 95//10 98//10 97//10
f 97//10 98//10 99//10
f 100//10 99//10 101//10
f 102//10 101//10 103//10
f 104//10 102//10 103//10
f 104//10 105//10 102//10
f 102//10 105//10 21//10
f 106//10 21//10 107//10
f 106//10 102//10 21//10
f 97//10 99//10 100//10
f 100//10 101//10 102//10
f 108//10 109//10 1//10
f 110//10 1//10 111//10
f 110//10 108//10 1//10
f 112//10 113//10 37//10
f 112//10 114//10 113//10
f 112//10 84//10 114//10
f 114//10 84//10 82//10
f 87//10 88//10 89//10
f 89//10 90//10 91//10
f 91//10 92//10 93//10
f 43//10 115//10 1//10
f 1//10 115//10 116//10
f 111//10 1//10 116//10
f 20//10 117//10 21//10
f 21//10 117//10 118//10
f 119//10 21//10 118//10
f 119//10 120//10 21//10
f 21//10 120//10 121//10
f 122//10 21//10 121//10
f 122//10 123//10 21//10
f 21//10 123//10 107//10
f 121//10 120//10 124//10
f 124//10 120//10 125//10
f 126//10 125//10 127//10
f 128//10 127//10 129//10
f 130//10 129//10 131//10
f 132//10 131//10 133//10
f 80//10 133//10 82//10
f 80//10 132//10 133//10
f 124//10 125//10 126//10
f 126//10 127//10 128//10
f 128//10 129//10 130//10
f 130//10 131//10 132//10
f 113//10 134//10 37//10
f 37//10 134//10 29//10
f 29//10 134//10 135//10
f 136//10 29//10 135//10
f 136//10 137//10 29//10
f 29//10 137//10 28//10
f 96//10 138//10 71//10
f 71//10 138//10 139//10
f 140//10 71//10 139//10
f 140//10 141//10 71//10
f 71//10 141//10 73//10
f 109//10 41//10 1//10
f 3//11 142//11 1//11
f 1//11 142//11 42//11
f 143//12 144//12 145//12
f 146//12 145//12 147//12
f 148//12 147//12 149//12
f 150//12 148//12 149//12
f 150//12 151//12 148//12
f 150//12 152//12 151//12
f 151//12 152//12 153//12
f 153//12 152//12 154//12
f 155//12 153//12 154//12
f 155//12 156//12 153//12
f 153//12 156//12 142//12
f 157//12 142//12 158//12
f 157//12 153//12 142//12
f 144//12 159//12 145//12
f 145//12 159//12 160//12
f 161//12 145//12 160//12
f 161//12 162//12 145//12
f 145//12 162//12 163//12
f 163//12 162//12 164//12
f 165//12 163//12 164//12
f 165//12 166//12 163//12
f 163//12 166//12 167//12
f 168//12 163//12 167//12
f 168//12 169//12 163//12
f 163//12 169//12 170//12
f 171//12 170//12 172//12
f 173//12 172//12 174//12
f 173//12 171//12 172//12
f 162//12 175//12 164//12
f 164//12 175//12 176//12
f 176//12 175//12 177//12
f 178//12 177//12 179//12
f 178//12 176//12 177//12
f 177//12 180//12 179//12
f 179//12 180//12 181//12
f 181//12 180//12 182//12
f 183//12 182//12 184//12
f 183//12 181//12 182//12
f 183//12 185//12 181//12
f 183//12 186//12 185//12
f 185//12 186//12 187//12
f 187//12 186//12 188//12
f 189//12 188//12 190//12
f 191//12 190//12 192//12
f 193//12 192//12 194//12
f 193//12 191//12 192//12
f 182//12 195//12 184//12
f 184//12 195//12 196//12
f 196//12 195//12 197//12
f 198//12 197//12 199//12
f 200//12 199//12 201//12
f 202//12 201//12 203//12
f 204//12 203//12 205//12
f 142//12 205//12 206//12
f 207//13 142//13 206//13
f 207//12 158//12 142//12
f 196//12 197//12 198//12
f 198//12 199//12 200//12
f 200//12 201//12 202//12
f 202//12 203//12 204//12
f 204//12 205//12 142//12
f 208//12 142//12 209//12
f 208//12 204//12 142//12
f 148//12 146//12 147//12
f 146//12 143//12 145//12
f 163//12 170//12 171//12
f 172//12 210//12 174//12
f 174//12 210//12 211//12
f 211//12 210//12 212//12
f 213//12 212//12 214//12
f 213//12 211//12 212//12
f 215//12 216//12 212//12
f 215//12 217//12 216//12
f 216//12 217//12 218//12
f 219//12 216//12 218//12
f 219//12 220//12 216//12
f 216//12 220//12 221//12
f 222//12 216//12 221//12
f 222//12 223//12 216//12
f 216//12 223//12 224//12
f 225//12 216//12 224//12
f 225//12 226//12 216//12
f 225//12 227//12 226//12
f 226//12 227//12 228//12
f 229//12 226//12 228//12
f 229//12 230//12 226//12
f 226//12 230//12 231//12
f 232//12 226//12 231//12
f 232//12 233//12 226//12
f 226//12 233//12 192//12
f 234//12 226//12 192//12
f 234//12 235//12 226//12
f 226//12 235//12 236//12
f 237//12 226//12 236//12
f 237//12 238//12 226//12
f 226//12 238//12 239//12
f 240//12 226//12 239//12
f 221//12 220//12 241//12
f 241//12 220//12 242//12
f 243//12 242//12 244//12
f 245//12 244//12 246//12
f 247//12 246//12 248//12
f 249//12 248//12 250//12
f 185//12 250//12 181//12
f 185//12 249//12 250//12
f 241//12 242//12 243//12
f 243//12 244//12 245//12
f 245//12 246//12 247//12
f 247//12 248//12 249//12
f 233//12 251//12 192//12
f 192//12 251//12 194//12
f 191//12 189//12 190//12
f 189//12 187//12 188//12
f 192//12 190//12 18//12
f 18//12 190//12 252//12
f 253//12 18//12 252//12
f 253//12 254//12 18//12
f 18//12 254//12 255//12
f 3//12 255//12 256//12
f 257//12 3//12 256//12
f 257//12 258//12 3//12
f 3//12 258//12 259//12
f 260//12 3//12 259//12
f 260//12 261//12 3//12
f 3//12 261//12 262//12
f 142//12 262//12 263//12
f 209//12 142//12 263//12
f 18//12 255//12 3//12
f 16//12 3//12 14//12
f 16//12 18//12 3//12
f 3//12 262//12 142//12
f 4//12 6//12 3//12
f 3//12 6//12 8//12
f 10//12 3//12 8//12
f 10//12 12//12 3//12
f 3//12 12//12 14//12
f 216//12 264//12 212//12
f 212//12 264//12 214//12
f 64//14 62//14 145//14
f 145//14 62//14 147//14
f 147//15 62//15 61//15
f 149//16 61//16 59//16
f 150//17 59//17 57//17
f 152//18 57//18 56//18
f 154//19 56//19 55//19
f 155//20 55//20 54//20
f 156//21 54//21 42//21
f 142//21 156//21 42//21
f 147//15 61//15 149//15
f 149//16 59//16 150//16
f 150//17 57//17 152//17
f 152//18 56//18 154//18
f 154//19 55//19 155//19
f 155//20 54//20 156//20
f 145//22 163//22 64//22
f 64//22 163//22 71//22
f 21//23 105//23 216//23
f 216//23 105//23 264//23
f 264//24 105//24 104//24
f 214//25 104//25 103//25
f 213//26 103//26 101//26
f 211//27 101//27 99//27
f 174//28 99//28 98//28
f 173//29 98//29 95//29
f 171//30 95//30 71//30
f 163//30 171//30 71//30
f 264//24 104//24 214//24
f 214//25 103//25 213//25
f 213//26 101//26 211//26
f 211//27 99//27 174//27
f 174//28 98//28 173//28
f 173//29 95//29 171//29
f 216//31 226//31 21//31
f 21//31 226//31 19//31
f 29//32 30//32 192//32
f 192//33 30//33 234//33
f 234//34 30//34 31//34
f 235//35 31//35 32//35
f 236//36 32//36 33//36
f 237//37 33//37 34//37
f 238//38 34//38 35//38
f 239//39 35//39 36//39
f 240//40 36//40 19//40
f 226//40 240//40 19//40
f 234//34 31//34 235//34
f 235//35 32//35 236//35
f 236//36 33//36 237//36
f 237//37 34//37 238//37
f 238//38 35//38 239//38
f 239//39 36//39 240//39
f 17//41 29//41 18//41
f 18//41 29//41 192//41
f 143//42 65//42 144//42
f 143//43 63//43 65//43
f 143//43 146//43 63//43
f 63//44 146//44 60//44
f 60//44 146//44 148//44
f 58//45 148//45 151//45
f 53//46 151//46 153//46
f 52//47 153//47 157//47
f 51//48 157//48 158//48
f 50//49 158//49 207//49
f 49//50 207//50 206//50
f 48//51 206//51 205//51
f 93//52 205//52 203//52
f 91//53 203//53 201//53
f 89//54 201//54 199//54
f 87//55 199//55 197//55
f 85//56 197//56 195//56
f 81//57 195//57 182//57
f 79//58 182//58 180//58
f 76//59 180//59 177//59
f 74//60 177//60 175//60
f 70//61 175//61 162//61
f 69//62 162//62 161//62
f 68//63 161//63 160//63
f 67//64 160//64 159//64
f 66//65 159//65 144//65
f 65//42 66//42 144//42
f 60//45 148//45 58//45
f 58//46 151//46 53//46
f 53//47 153//47 52//47
f 52//48 157//48 51//48
f 51//49 158//49 50//49
f 50//50 207//50 49//50
f 49//51 206//51 48//51
f 48//52 205//52 93//52
f 93//53 203//53 91//53
f 91//54 201//54 89//54
f 89//55 199//55 87//55
f 87//56 197//56 85//56
f 85//57 195//57 81//57
f 81//58 182//58 79//58
f 79//59 180//59 76//59
f 76//60 177//60 74//60
f 74//61 175//61 70//61
f 70//62 162//62 69//62
f 69//63 161//63 68//63
f 68//66 160//66 67//66
f 67//65 159//65 66//65
f 167//42 140//42 168//42
f 167//67 141//67 140//67
f 167//68 166//68 141//68
f 141//69 166//69 73//69
f 73//70 166//70 165//70
f 72//45 165//45 164//45
f 75//46 164//46 176//46
f 77//47 176//47 178//47
f 78//48 178//48 179//48
f 80//49 179//49 181//49
f 132//50 181//50 250//50
f 130//71 250//71 248//71
f 128//72 248//72 246//72
f 126//53 246//53 244//53
f 124//54 244//54 242//54
f 121//73 242//73 220//73
f 122//74 220//74 219//74
f 123//57 219//57 218//57
f 107//58 218//58 217//58
f 106//59 217//59 215//59
f 102//60 215//60 212//60
f 100//61 212//61 210//61
f 97//62 210//62 172//62
f 96//75 172//75 170//75
f 138//76 170//76 169//76
f 139//65 169//65 168//65
f 140//42 139//42 168//42
f 73//45 165//45 72//45
f 72//46 164//46 75//46
f 75//47 176//47 77//47
f 77//48 178//48 78//48
f 78//49 179//49 80//49
f 80//50 181//50 132//50
f 132//77 250//77 130//77
f 130//72 248//72 128//72
f 128//53 246//53 126//53
f 126//54 244//54 124//54
f 124//73 242//73 121//73
f 121//74 220//74 122//74
f 122//57 219//57 123//57
f 123//58 218//58 107//58
f 107//59 217//59 106//59
f 106//60 215//60 102//60
f 102//61 212//61 100//61
f 100//62 210//62 97//62
f 97//75 172//75 96//75
f 96//76 170//76 138//76
f 138//65 169//65 139//65
f 245//42 129//42 243//42
f 245//68 131//68 129//68
f 245//68 247//68 131//68
f 131//69 247//69 133//69
f 133//69 247//69 249//69
f 82//45 249//45 185//45
f 114//46 185//46 187//46
f 113//47 187//47 189//47
f 134//48 189//48 191//48
f 135//49 191//49 193//49
f 136//50 193//50 194//50
f 137//77 194//77 251//77
f 28//78 251//78 233//78
f 27//53 233//53 232//53
f 26//54 232//54 231//54
f 25//73 231//73 230//73
f 24//74 230//74 229//74
f 23//57 229//57 228//57
f 22//58 228//58 227//58
f 20//59 227//59 225//59
f 117//60 225//60 224//60
f 118//61 224//61 223//61
f 119//62 223//62 222//62
f 120//75 222//75 221//75
f 125//76 221//76 241//76
f 127//65 241//65 243//65
f 129//42 127//42 243//42
f 133//45 249//45 82//45
f 82//46 185//46 114//46
f 114//47 187//47 113//47
f 113//48 189//48 134//48
f 134//49 191//49 135//49
f 135//50 193//50 136//50
f 136//77 194//77 137//77
f 137//72 251//72 28//72
f 28//53 233//53 27//53
f 27//54 232//54 26//54
f 26//73 231//73 25//73
f 25//74 230//74 24//74
f 24//57 229//57 23//57
f 23//58 228//58 22//58
f 22//59 227//59 20//59
f 20//60 225//60 117//60
f 117//61 224//61 118//61
f 118//62 223//62 119//62
f 119//75 222//75 120//75
f 120//76 221//76 125//76
f 125//65 241//65 127//65
f 202//42 94//42 200//42
f 202//43 47//43 94//43
f 202//43 204//43 47//43
f 47//44 204//44 46//44
f 46//44 204//44 208//44
f 45//45 208//45 209//45
f 44//46 209//46 263//46
f 43//47 263//47 262//47
f 115//48 262//48 261//48
f 116//49 261//49 260//49
f 111//50 260//50 259//50
f 110//51 259//51 258//51
f 108//52 258//52 257//52
f 109//53 257//53 256//53
f 41//54 256//54 255//54
f 40//55 255//55 254//55
f 39//79 254//79 253//79
f 38//57 253//57 252//57
f 37//58 252//58 190//58
f 112//59 190//59 188//59
f 84//60 188//60 186//60
f 83//61 186//61 183//61
f 86//62 183//62 184//62
f 88//80 184//80 196//80
f 90//66 196//66 198//66
f 92//65 198//65 200//65
f 94//42 92//42 200//42
f 46//45 208//45 45//45
f 45//46 209//46 44//46
f 44//47 263//47 43//47
f 43//48 262//48 115//48
f 115//49 261//49 116//49
f 116//50 260//50 111//50
f 111//51 259//51 110//51
f 110//52 258//52 108//52
f 108//53 257//53 109//53
f 109//54 256//54 41//54
f 41//81 255//81 40//81
f 40//56 254//56 39//56
f 39//57 253//57 38//57
f 38//58 252//58 37//58
f 37//59 190//59 112//59
f 112//60 188//60 84//60
f 84//61 186//61 83//61
f 83//62 183//62 86//62
f 86//63 184//63 88//63
f 88//66 196//66 90//66
f 90//65 198//65 92//65
