# Blender 4.0.2
# www.blender.org
o SICK-S300__m5
v -0.047146 -0.070839 -0.016000
v -0.048607 -0.070862 -0.010773
v -0.047086 -0.070838 -0.016000
v -0.048607 -0.070862 0.010773
v -0.047086 -0.070838 0.016000
v -0.047146 -0.070839 0.016000
v -0.049491 -0.070876 0.005419
v -0.049491 -0.070876 -0.005419
v -0.049787 -0.070880 -0.000000
v -0.047910 -0.044348 -0.015000
v -0.047503 -0.044341 -0.015000
v -0.047910 -0.044348 0.015000
v -0.048879 -0.042310 0.011593
v -0.047503 -0.044341 0.015000
v -0.047535 -0.042280 0.011576
v -0.049641 -0.040799 0.007858
v -0.047559 -0.040771 0.007875
v -0.047573 -0.039851 0.003985
v -0.050119 -0.039884 0.003937
v -0.047578 -0.039542 -0.000000
v -0.050278 -0.039584 -0.000000
v -0.050119 -0.039884 -0.003937
v -0.047573 -0.039851 -0.003985
v -0.049641 -0.040799 -0.007858
v -0.047559 -0.040771 -0.007875
v -0.047535 -0.042280 -0.011576
v -0.048879 -0.042310 -0.011593
v 0.053719 -0.030600 -0.050660
v 0.053719 -0.030600 0.050660
v -0.049093 -0.033887 -0.011262
v -0.047453 -0.033887 -0.016885
v -0.047104 -0.057462 -0.016761
v -0.044840 -0.057462 -0.022116
v -0.046719 -0.073000 -0.017108
v -0.044403 -0.073000 -0.022445
v -0.041969 -0.057462 -0.027172
v -0.041479 -0.073000 -0.027475
v -0.038531 -0.057462 -0.031861
v -0.037988 -0.073000 -0.032129
v -0.034572 -0.057462 -0.036118
v -0.033978 -0.073000 -0.036344
v -0.030145 -0.057462 -0.039888
v -0.029503 -0.073000 -0.040062
v -0.025310 -0.057462 -0.043118
v -0.024624 -0.073000 -0.043232
v -0.020134 -0.057462 -0.045764
v -0.019409 -0.073000 -0.045811
v -0.014684 -0.057462 -0.047792
v -0.013928 -0.073000 -0.047764
v -0.009037 -0.057462 -0.049174
v -0.008257 -0.073000 -0.049063
v -0.003267 -0.057462 -0.049890
v -0.002473 -0.073000 -0.049692
v 0.002547 -0.057462 -0.049932
v 0.003345 -0.073000 -0.049641
v 0.008327 -0.057462 -0.049299
v 0.009117 -0.073000 -0.048911
v 0.009175 -0.021941 -0.049716
v 0.008388 -0.033887 -0.049664
v 0.003494 -0.020837 -0.050452
v 0.002566 -0.033887 -0.050302
v -0.002234 -0.019724 -0.050541
v -0.003291 -0.033887 -0.050260
v -0.007935 -0.018616 -0.049982
v -0.009104 -0.033887 -0.049538
v -0.013536 -0.017527 -0.048781
v -0.014793 -0.033887 -0.048146
v -0.018966 -0.016471 -0.046956
v -0.020283 -0.033887 -0.046103
v -0.024155 -0.015463 -0.044527
v -0.025498 -0.033887 -0.043437
v -0.029035 -0.014514 -0.041528
v -0.030368 -0.033887 -0.040183
v -0.033546 -0.013637 -0.037996
v -0.034828 -0.033887 -0.036386
v -0.037628 -0.012844 -0.033977
v -0.038816 -0.033887 -0.032097
v -0.041229 -0.012144 -0.029523
v -0.042280 -0.033887 -0.027373
v -0.044304 -0.011546 -0.024689
v -0.045172 -0.033887 -0.022280
v -0.046812 -0.011059 -0.019539
v -0.048722 -0.010687 -0.014138
v -0.050009 -0.010437 -0.008556
v -0.050068 -0.033887 -0.005486
v -0.050366 -0.033887 0.000363
v -0.049984 -0.033887 0.006208
v -0.050657 -0.010311 0.002864
v -0.050657 -0.010311 -0.002864
v -0.048925 -0.033887 0.011969
v -0.047205 -0.033887 0.017568
v -0.046858 -0.057462 0.017438
v -0.046719 -0.073000 0.017108
v -0.044403 -0.073000 0.022445
v -0.048397 -0.073000 0.011537
v -0.049413 -0.073000 0.005808
v -0.049753 -0.073000 -0.000000
v -0.049413 -0.073000 -0.005808
v -0.048397 -0.073000 -0.011537
v 0.009117 -0.073000 0.048911
v 0.009175 -0.021942 0.049716
v 0.009132 -0.033887 0.049533
v 0.003494 -0.020837 0.050452
v 0.003291 -0.033887 0.050260
v -0.002234 -0.019724 0.050541
v -0.002566 -0.033887 0.050302
v -0.007935 -0.018616 0.049982
v -0.008380 -0.033887 0.049666
v -0.013536 -0.017527 0.048781
v -0.014098 -0.033887 0.048354
v -0.018966 -0.016471 0.046956
v -0.019626 -0.033887 0.046387
v -0.024155 -0.015463 0.044527
v -0.024869 -0.033887 0.043800
v -0.029035 -0.014514 0.041528
v -0.029785 -0.033887 0.040617
v -0.033546 -0.013637 0.037996
v -0.034299 -0.033887 0.036884
v -0.037628 -0.012844 0.033977
v -0.038349 -0.033887 0.032653
v -0.041229 -0.012144 0.029523
v -0.041881 -0.033887 0.027980
v -0.044304 -0.011546 0.024689
v -0.044846 -0.033887 0.022929
v -0.046812 -0.011059 0.019539
v -0.048722 -0.010687 0.014138
v -0.050009 -0.010437 0.008556
v -0.044516 -0.057462 0.022760
v -0.041479 -0.073000 0.027475
v -0.041573 -0.057462 0.027775
v -0.037988 -0.073000 0.032129
v -0.038067 -0.057462 0.032413
v -0.033978 -0.073000 0.036344
v -0.034047 -0.057462 0.036613
v -0.029503 -0.073000 0.040062
v -0.029566 -0.057462 0.040318
v -0.024624 -0.073000 0.043232
v -0.024686 -0.057462 0.043478
v -0.019409 -0.073000 0.045811
v -0.019495 -0.057462 0.046040
v -0.013928 -0.073000 0.047764
v -0.013996 -0.057462 0.047998
v -0.008306 -0.057462 0.049303
v -0.008257 -0.073000 0.049063
v -0.002547 -0.057462 0.049932
v -0.002473 -0.073000 0.049692
v 0.003267 -0.057462 0.049890
v 0.009048 -0.057462 0.049172
v 0.003345 -0.073000 0.049641
v 0.015852 -0.023239 0.049934
v 0.022529 -0.024537 0.050110
v 0.029208 -0.025836 0.050244
v 0.015818 -0.073000 -0.049151
v 0.015852 -0.023239 -0.049934
v 0.022520 -0.073000 -0.049348
v 0.022529 -0.024537 -0.050110
v 0.029208 -0.025836 -0.050244
v 0.029223 -0.073000 -0.049503
v 0.053053 -0.073000 -0.049980
v 0.000300 -0.085300 -0.049559
v -0.003256 -0.085300 -0.049453
v -0.006796 -0.085300 -0.049092
v -0.010300 -0.085300 -0.048478
v 0.000300 -0.074700 -0.049726
v 0.000300 -0.085300 0.049559
v 0.000300 -0.074700 0.049726
v -0.010300 -0.074700 -0.048648
v -0.010300 -0.085300 0.048478
v -0.010300 -0.074700 0.048648
v -0.006796 -0.085300 0.049092
v -0.003256 -0.085300 0.049453
v 0.038700 -0.085300 -0.049500
v 0.049300 -0.085300 -0.049712
v 0.038700 -0.074700 -0.049666
v 0.049300 -0.074700 -0.049878
v 0.003192 -0.095300 -0.049300
v 0.006195 -0.074700 -0.049339
v 0.009000 -0.095300 -0.048576
v 0.009115 -0.074700 -0.048884
v 0.009098 -0.089078 -0.048657
v -0.002662 -0.095300 -0.049331
v 0.003253 -0.074700 -0.049620
v -0.008478 -0.095300 -0.048670
v -0.014174 -0.095300 -0.047326
v -0.015977 -0.074700 -0.047090
v -0.019672 -0.095300 -0.045317
v -0.021429 -0.074700 -0.044872
v -0.024894 -0.095300 -0.042672
v -0.026582 -0.074700 -0.042025
v -0.029766 -0.095300 -0.039429
v -0.031362 -0.074700 -0.038590
v -0.034221 -0.095300 -0.035631
v -0.035702 -0.074700 -0.034613
v -0.038195 -0.095300 -0.031334
v -0.039542 -0.074700 -0.030152
v -0.041633 -0.095300 -0.026596
v -0.042828 -0.074700 -0.025268
v -0.044486 -0.095300 -0.021486
v -0.045514 -0.074700 -0.020030
v -0.046715 -0.095300 -0.016073
v -0.047562 -0.074700 -0.014511
v -0.048288 -0.095300 -0.010436
v -0.048944 -0.074700 -0.008789
v -0.049183 -0.095300 -0.004651
v -0.049639 -0.074700 -0.002943
v -0.049388 -0.095300 0.001199
v -0.049639 -0.074700 0.002943
v -0.048900 -0.095300 0.007032
v -0.048944 -0.074700 0.008789
v -0.047725 -0.095300 0.012766
v -0.047562 -0.074700 0.014511
v -0.045880 -0.095300 0.018321
v -0.045514 -0.074700 0.020030
v -0.043391 -0.095300 0.023619
v -0.042828 -0.074700 0.025268
v -0.040293 -0.095300 0.028585
v -0.039542 -0.074700 0.030152
v -0.036630 -0.095300 0.033150
v -0.035702 -0.074700 0.034613
v -0.032452 -0.095300 0.037249
v -0.031362 -0.074700 0.038590
v -0.027819 -0.095300 0.040826
v -0.026582 -0.074700 0.042025
v -0.022795 -0.095300 0.043830
v -0.021429 -0.074700 0.044872
v -0.017451 -0.095300 0.046218
v -0.015977 -0.074700 0.047090
v -0.011862 -0.095300 0.047958
v -0.006107 -0.095300 0.049024
v -0.000265 -0.095300 0.049402
v 0.005579 -0.095300 0.049087
v 0.003253 -0.074700 0.049620
v 0.006195 -0.074700 0.049339
v 0.009098 -0.089078 0.048657
v 0.009115 -0.074700 0.048884
v 0.011346 -0.095300 0.048082
v 0.013306 -0.089297 0.047674
v 0.016953 -0.095300 0.046403
v 0.017438 -0.089592 0.046319
v 0.021437 -0.089953 0.044602
v 0.022322 -0.095300 0.044072
v 0.025256 -0.090366 0.042549
v 0.027378 -0.095300 0.041123
v 0.028849 -0.090815 0.040191
v 0.032050 -0.095300 0.037596
v 0.032173 -0.091283 0.037573
v 0.035196 -0.091752 0.034747
v 0.036271 -0.095300 0.033541
v 0.037982 -0.092220 0.031665
v 0.039984 -0.095300 0.029016
v 0.040553 -0.092682 0.028287
v 0.043135 -0.095300 0.024083
v 0.042854 -0.093121 0.024647
v 0.044846 -0.093520 0.020789
v 0.045681 -0.095300 0.018813
v 0.046497 -0.093864 0.016759
v 0.047585 -0.095300 0.013278
v 0.047785 -0.094140 0.012608
v 0.048700 -0.094341 0.008390
v 0.048822 -0.095300 0.007557
v 0.049239 -0.094460 0.004167
v 0.049373 -0.095300 0.001729
v 0.049415 -0.094500 -0.000000
v 0.049231 -0.095300 -0.004122
v 0.049239 -0.094460 -0.004167
v 0.048700 -0.094341 -0.008390
v 0.048398 -0.095300 -0.009916
v 0.047785 -0.094140 -0.012608
v 0.046885 -0.095300 -0.015571
v 0.046497 -0.093864 -0.016759
v 0.044714 -0.095300 -0.021007
v 0.044846 -0.093520 -0.020789
v 0.042854 -0.093121 -0.024647
v 0.041916 -0.095300 -0.026148
v 0.040553 -0.092682 -0.028287
v 0.038529 -0.095300 -0.030922
v 0.037982 -0.092220 -0.031665
v 0.034602 -0.095300 -0.035262
v 0.035196 -0.091752 -0.034747
v 0.032173 -0.091283 -0.037573
v 0.030188 -0.095300 -0.039107
v 0.028849 -0.090815 -0.040191
v 0.025351 -0.095300 -0.042402
v 0.025256 -0.090366 -0.042549
v 0.021437 -0.089953 -0.044602
v 0.020158 -0.095300 -0.045103
v 0.017438 -0.089592 -0.046319
v 0.014682 -0.095300 -0.047171
v 0.013306 -0.089297 -0.047674
v 0.053027 -0.074700 0.049953
v 0.052804 -0.088834 0.049726
v 0.029228 -0.088942 0.049253
v 0.029223 -0.074700 0.049477
v 0.015817 -0.074700 -0.049124
v 0.022519 -0.074700 -0.049321
v 0.029223 -0.074700 -0.049477
v 0.015817 -0.074700 0.049124
v 0.022519 -0.074700 0.049321
v 0.053027 -0.074700 0.041750
v 0.053027 -0.074700 -0.041750
v 0.053027 -0.074700 -0.049953
v 0.053584 -0.039200 0.005000
v 0.053636 -0.035900 0.005000
v 0.053584 -0.039200 -0.005000
v 0.053636 -0.035900 -0.005000
v 0.052860 -0.085300 -0.031150
v 0.052983 -0.077500 -0.031150
v 0.052860 -0.085300 -0.041750
v 0.052983 -0.077500 0.031150
v 0.052860 -0.085300 0.031150
v 0.052860 -0.085300 0.041750
v 0.052804 -0.088834 -0.049726
v 0.052769 -0.091066 -0.038808
v 0.052743 -0.092746 -0.027791
v 0.052725 -0.093868 -0.016703
v 0.052717 -0.094430 -0.005572
v 0.052717 -0.094430 0.005572
v 0.052725 -0.093868 0.016703
v 0.052743 -0.092746 0.027790
v 0.052769 -0.091066 0.038808
v 0.029228 -0.088942 -0.049253
v 0.015818 -0.073000 0.049151
v 0.053053 -0.073000 0.049980
v 0.029223 -0.073000 0.049503
v 0.022520 -0.073000 0.049348
v -0.048777 -0.095300 0.006422
v -0.049250 -0.095300 0.003879
v -0.049198 -0.095300 -0.000000
v -0.049335 -0.095300 -0.002583
v -0.048777 -0.095300 -0.006422
v -0.048576 -0.095300 -0.009000
v -0.047522 -0.095300 -0.012733
v -0.046986 -0.095300 -0.015263
v -0.045453 -0.095300 -0.018827
v -0.044592 -0.095300 -0.021266
v -0.042607 -0.095300 -0.024599
v -0.041434 -0.095300 -0.026904
v -0.039032 -0.095300 -0.029950
v -0.037568 -0.095300 -0.032082
v -0.034788 -0.095300 -0.034788
v -0.033059 -0.095300 -0.036712
v -0.029950 -0.095300 -0.039032
v -0.027985 -0.095300 -0.040713
v -0.024599 -0.095300 -0.042607
v -0.022431 -0.095300 -0.044017
v -0.018827 -0.095300 -0.045453
v -0.016494 -0.095300 -0.046568
v -0.012733 -0.095300 -0.047522
v -0.010274 -0.095300 -0.048323
v -0.006422 -0.095300 -0.048777
v -0.003879 -0.095300 -0.049250
v 0.000000 -0.095300 -0.049198
v 0.002583 -0.095300 -0.049335
v 0.006422 -0.095300 -0.048777
v 0.012733 -0.095300 -0.047522
v 0.015263 -0.095300 -0.046986
v 0.018827 -0.095300 -0.045453
v 0.021266 -0.095300 -0.044592
v 0.024599 -0.095300 -0.042607
v 0.026904 -0.095300 -0.041434
v 0.029950 -0.095300 -0.039032
v 0.032082 -0.095300 -0.037568
v 0.034788 -0.095300 -0.034788
v 0.036711 -0.095300 -0.033059
v 0.039032 -0.095300 -0.029950
v 0.040713 -0.095300 -0.027985
v 0.042607 -0.095300 -0.024599
v 0.044017 -0.095300 -0.022431
v 0.045453 -0.095300 -0.018827
v 0.046568 -0.095300 -0.016494
v 0.047522 -0.095300 -0.012733
v 0.048323 -0.095300 -0.010274
v 0.048777 -0.095300 -0.006422
v 0.049250 -0.095300 -0.003879
v 0.049198 -0.095300 -0.000000
v 0.049335 -0.095300 0.002583
v 0.048777 -0.095300 0.006422
v 0.048576 -0.095300 0.009000
v 0.047522 -0.095300 0.012733
v 0.046986 -0.095300 0.015263
v 0.045453 -0.095300 0.018827
v 0.044592 -0.095300 0.021266
v 0.042607 -0.095300 0.024599
v 0.041434 -0.095300 0.026904
v 0.039032 -0.095300 0.029950
v 0.037568 -0.095300 0.032082
v 0.034788 -0.095300 0.034788
v 0.033059 -0.095300 0.036711
v 0.029950 -0.095300 0.039032
v 0.027985 -0.095300 0.040713
v 0.024599 -0.095300 0.042607
v 0.022431 -0.095300 0.044017
v 0.018827 -0.095300 0.045453
v 0.016494 -0.095300 0.046568
v 0.012733 -0.095300 0.047522
v 0.010274 -0.095300 0.048323
v 0.006422 -0.095300 0.048777
v 0.003879 -0.095300 0.049250
v 0.000000 -0.095300 0.049198
v -0.002583 -0.095300 0.049335
v -0.006422 -0.095300 0.048777
v -0.009000 -0.095300 0.048576
v -0.012733 -0.095300 0.047522
v -0.015263 -0.095300 0.046986
v -0.018827 -0.095300 0.045453
v -0.021266 -0.095300 0.044592
v -0.024599 -0.095300 0.042607
v -0.026904 -0.095300 0.041434
v -0.029950 -0.095300 0.039032
v -0.032082 -0.095300 0.037568
v -0.034788 -0.095300 0.034788
v -0.036711 -0.095300 0.033059
v -0.039032 -0.095300 0.029950
v -0.040713 -0.095300 0.027985
v -0.042607 -0.095300 0.024599
v -0.044017 -0.095300 0.022431
v -0.045453 -0.095300 0.018827
v -0.046568 -0.095300 0.016494
v -0.047522 -0.095300 0.012733
v -0.048323 -0.095300 0.010274
vn -0.0156 0.9999 -0.0000
vn -0.0157 0.9999 -0.0000
vn 0.0006 -0.0377 0.9993
vn 0.0135 -0.8564 -0.5161
vn 0.0126 -0.8566 -0.5158
vn 0.0159 -0.9258 -0.3778
vn 0.0154 -0.9259 -0.3775
vn 0.0149 -0.9730 -0.2302
vn 0.0168 -0.9732 -0.2292
vn 0.0143 -0.9969 -0.0773
vn 0.0157 -0.9969 -0.0765
vn 0.0157 -0.9969 0.0765
vn 0.0143 -0.9969 0.0773
vn 0.0168 -0.9732 0.2292
vn 0.0149 -0.9730 0.2302
vn 0.0154 -0.9259 0.3775
vn 0.0159 -0.9258 0.3778
vn 0.0126 -0.8566 0.5158
vn 0.0135 -0.8564 0.5161
vn 0.0006 -0.0377 -0.9993
vn -0.9639 -0.0140 -0.2658
vn -0.9600 -0.0085 -0.2799
vn -0.9483 -0.0157 -0.3170
vn -0.9209 -0.0157 -0.3894
vn -0.9210 -0.0141 -0.3894
vn -0.9172 -0.0174 -0.3981
vn -0.8695 -0.0140 -0.4937
vn -0.8644 -0.0175 -0.5025
vn -0.8063 -0.0139 -0.5913
vn -0.7999 -0.0176 -0.5999
vn -0.7322 -0.0138 -0.6809
vn -0.7244 -0.0177 -0.6892
vn -0.6482 -0.0137 -0.7613
vn -0.6389 -0.0178 -0.7690
vn -0.5555 -0.0136 -0.8314
vn -0.5448 -0.0179 -0.8384
vn -0.4552 -0.0135 -0.8903
vn -0.4432 -0.0180 -0.8962
vn -0.3488 -0.0134 -0.9371
vn -0.3355 -0.0180 -0.9419
vn -0.2376 -0.0133 -0.9713
vn -0.2233 -0.0181 -0.9746
vn -0.1232 -0.0132 -0.9923
vn -0.1080 -0.0182 -0.9940
vn -0.0072 -0.0132 -0.9999
vn 0.0088 -0.0183 -0.9998
vn 0.1089 -0.0131 -0.9940
vn 0.1254 -0.0184 -0.9919
vn 0.1746 -0.0157 -0.9845
vn 0.1740 -0.0157 -0.9846
vn 0.1261 -0.0126 -0.9919
vn 0.1089 -0.0191 -0.9939
vn 0.0131 -0.0124 -0.9998
vn -0.0072 -0.0193 -0.9998
vn -0.1000 -0.0123 -0.9949
vn -0.1232 -0.0194 -0.9922
vn -0.2118 -0.0122 -0.9772
vn -0.2376 -0.0195 -0.9712
vn -0.3208 -0.0121 -0.9471
vn -0.3487 -0.0195 -0.9370
vn -0.4258 -0.0121 -0.9048
vn -0.4551 -0.0195 -0.8902
vn -0.5252 -0.0121 -0.8509
vn -0.5554 -0.0195 -0.8313
vn -0.6179 -0.0121 -0.7861
vn -0.6482 -0.0195 -0.7612
vn -0.7027 -0.0121 -0.7114
vn -0.7322 -0.0195 -0.6808
vn -0.7785 -0.0121 -0.6275
vn -0.8063 -0.0195 -0.5912
vn -0.8444 -0.0121 -0.5356
vn -0.8694 -0.0194 -0.4936
vn -0.8994 -0.0122 -0.4369
vn -0.9209 -0.0194 -0.3894
vn -0.9430 -0.0122 -0.3327
vn -0.9599 -0.0194 -0.2798
vn -0.9745 -0.0122 -0.2241
vn -0.9814 -0.0163 -0.1912
vn -0.9908 -0.0151 -0.1344
vn -0.9930 -0.0216 -0.1161
vn -0.9987 -0.0047 -0.0509
vn -0.9991 -0.0129 -0.0394
vn -0.9991 -0.0180 0.0391
vn -0.9810 -0.0173 -0.1930
vn -0.9930 -0.0216 0.1161
vn -0.9951 -0.0146 0.0977
vn -0.9990 -0.0167 0.0412
vn -0.9999 -0.0123 -0.0000
vn -0.9985 -0.0193 -0.0509
vn -0.9935 -0.0123 -0.1128
vn -0.9835 -0.0057 0.1807
vn -0.9808 -0.0140 0.1943
vn -0.9643 -0.0170 0.2641
vn -0.9559 -0.0076 0.2937
vn -0.9467 -0.0151 0.3218
vn -0.9421 -0.0157 0.3351
vn -0.9428 -0.0155 0.3330
vn -0.9172 -0.0166 0.3981
vn -0.9567 -0.0412 0.2881
vn -0.9631 0.0015 0.2692
vn -0.9841 -0.0344 0.1745
vn -0.9866 -0.0063 0.1628
vn -0.9980 -0.0258 0.0584
vn -0.9984 -0.0157 0.0545
vn -0.9984 -0.0157 -0.0545
vn -0.9980 -0.0258 -0.0584
vn -0.9866 -0.0063 -0.1628
vn -0.9841 -0.0344 -0.1745
vn -0.9631 0.0015 -0.2692
vn -0.9567 -0.0412 -0.2881
vn -0.9431 -0.0159 -0.3322
vn -0.9473 -0.0152 -0.3201
vn 0.1819 -0.0157 0.9832
vn 0.1255 -0.0156 0.9920
vn 0.1235 -0.0165 0.9922
vn 0.0126 -0.0149 0.9998
vn 0.0072 -0.0170 0.9998
vn -0.1004 -0.0144 0.9948
vn -0.1088 -0.0174 0.9939
vn -0.2121 -0.0140 0.9771
vn -0.2235 -0.0178 0.9745
vn -0.3211 -0.0137 0.9469
vn -0.3353 -0.0181 0.9419
vn -0.4260 -0.0134 0.9046
vn -0.4424 -0.0183 0.8966
vn -0.5254 -0.0132 0.8508
vn -0.5434 -0.0184 0.8393
vn -0.6180 -0.0131 0.7860
vn -0.6371 -0.0186 0.7705
vn -0.7028 -0.0129 0.7113
vn -0.7223 -0.0187 0.6913
vn -0.7786 -0.0128 0.6274
vn -0.7977 -0.0189 0.6028
vn -0.8444 -0.0127 0.5356
vn -0.8622 -0.0190 0.5061
vn -0.8994 -0.0126 0.4369
vn -0.9152 -0.0190 0.4026
vn -0.9430 -0.0125 0.3326
vn -0.9557 -0.0191 0.2936
vn -0.9745 -0.0124 0.2241
vn -0.9833 -0.0192 0.1807
vn -0.9935 -0.0124 0.1128
vn -0.9152 -0.0149 0.4026
vn -0.8644 -0.0165 0.5025
vn -0.8623 -0.0150 0.5062
vn -0.7999 -0.0164 0.5999
vn -0.7977 -0.0151 0.6029
vn -0.7244 -0.0163 0.6892
vn -0.7223 -0.0152 0.6914
vn -0.6390 -0.0162 0.7691
vn -0.6372 -0.0153 0.7706
vn -0.5448 -0.0161 0.8384
vn -0.5434 -0.0154 0.8393
vn -0.4432 -0.0159 0.8963
vn -0.4425 -0.0156 0.8966
vn -0.3356 -0.0157 0.9419
vn -0.3355 -0.0157 0.9419
vn -0.2234 -0.0157 0.9746
vn -0.1088 -0.0156 0.9939
vn -0.2233 -0.0157 0.9746
vn -0.1087 -0.0156 0.9940
vn -0.1087 -0.0157 0.9940
vn 0.0072 -0.0157 0.9999
vn -0.1080 -0.0159 0.9940
vn 0.0072 -0.0155 0.9999
vn 0.1234 -0.0157 0.9922
vn 0.1235 -0.0156 0.9922
vn 0.1818 -0.0157 0.9832
vn 0.0088 -0.0160 0.9998
vn 0.1234 -0.0153 0.9922
vn 0.1254 -0.0161 0.9920
vn -0.2376 -0.0157 -0.9712
vn -0.3487 -0.0157 -0.9371
vn -0.4552 -0.0157 -0.8903
vn -0.5555 -0.0157 -0.8314
vn -0.6482 -0.0157 -0.7613
vn -0.7322 -0.0157 -0.6809
vn -0.8063 -0.0157 -0.5913
vn -0.8695 -0.0157 -0.4937
vn -0.1232 -0.0157 -0.9923
vn -0.0072 -0.0157 -0.9999
vn 0.1089 -0.0157 -0.9939
vn -0.9152 -0.0157 0.4026
vn -0.2235 -0.0157 0.9746
vn -0.3353 -0.0157 0.9420
vn -0.4424 -0.0156 0.8967
vn -0.4425 -0.0157 0.8966
vn -0.5434 -0.0157 0.8393
vn -0.6372 -0.0157 0.7706
vn -0.7223 -0.0157 0.6914
vn -0.7977 -0.0157 0.6029
vn -0.8623 -0.0157 0.5062
vn -0.0358 -0.0157 -0.9992
vn -0.0357 -0.0157 -0.9992
vn -0.0295 -0.0157 -0.9994
vn -0.0294 -0.0157 -0.9994
vn -0.0231 -0.0157 -0.9996
vn -0.0200 -0.0157 -0.9997
vn 0.1236 -0.0199 -0.9921
vn 0.1540 -0.0156 -0.9879
vn 0.1830 -0.0157 -0.9830
vn 0.0054 -0.0244 -0.9997
vn 0.0355 -0.0156 -0.9992
vn 0.0950 -0.0158 -0.9953
vn -0.1129 -0.0229 -0.9933
vn -0.1015 -0.0181 -0.9947
vn -0.0298 -0.0139 -0.9995
vn -0.2297 -0.0024 -0.9733
vn -0.1724 -0.0466 -0.9839
vn -0.2479 -0.0156 -0.9687
vn -0.2647 -0.0121 -0.9643
vn -0.3431 -0.0193 -0.9391
vn -0.3768 -0.0121 -0.9262
vn -0.4518 -0.0193 -0.8919
vn -0.4836 -0.0121 -0.8752
vn -0.5541 -0.0193 -0.8322
vn -0.5836 -0.0121 -0.8119
vn -0.6486 -0.0193 -0.7609
vn -0.6755 -0.0121 -0.7373
vn -0.7341 -0.0192 -0.6788
vn -0.7579 -0.0121 -0.6523
vn -0.8092 -0.0192 -0.5872
vn -0.8296 -0.0122 -0.5582
vn -0.8730 -0.0192 -0.4874
vn -0.8898 -0.0122 -0.4562
vn -0.9245 -0.0192 -0.3807
vn -0.9375 -0.0122 -0.3479
vn -0.9630 -0.0192 -0.2687
vn -0.9720 -0.0122 -0.2347
vn -0.9881 -0.0192 -0.1529
vn -0.9929 -0.0122 -0.1182
vn -0.9992 -0.0192 -0.0350
vn -0.9999 -0.0122 -0.0000
vn -0.9963 -0.0192 0.0834
vn -0.9929 -0.0122 0.1182
vn -0.9795 -0.0192 0.2007
vn -0.9720 -0.0122 0.2347
vn -0.9489 -0.0192 0.3151
vn -0.9375 -0.0122 0.3479
vn -0.9049 -0.0192 0.4251
vn -0.8898 -0.0122 0.4562
vn -0.8483 -0.0192 0.5292
vn -0.8296 -0.0122 0.5582
vn -0.7798 -0.0192 0.6258
vn -0.7579 -0.0122 0.6523
vn -0.7003 -0.0192 0.7136
vn -0.6755 -0.0122 0.7373
vn -0.6109 -0.0192 0.7914
vn -0.5836 -0.0122 0.8119
vn -0.5131 -0.0192 0.8581
vn -0.4836 -0.0122 0.8752
vn -0.4080 -0.0191 0.9128
vn -0.3768 -0.0122 0.9262
vn -0.2971 -0.0191 0.9546
vn -0.2557 -0.0104 0.9667
vn -0.1821 -0.0227 0.9830
vn -0.1726 -0.0186 0.9848
vn -0.1015 -0.0137 0.9947
vn -0.0646 -0.0244 0.9976
vn -0.0298 -0.0140 0.9995
vn 0.0539 -0.0187 0.9984
vn 0.0514 -0.0200 0.9985
vn 0.0950 -0.0150 0.9954
vn 0.1500 -0.0166 0.9885
vn 0.1540 -0.0158 0.9879
vn 0.1715 -0.0290 0.9848
vn 0.2271 -0.0080 0.9738
vn 0.2868 -0.0286 0.9576
vn 0.3110 -0.0124 0.9503
vn 0.3928 -0.0198 0.9194
vn 0.3981 -0.0250 0.9170
vn 0.4728 -0.0091 0.8811
vn 0.5036 -0.0329 0.8633
vn 0.5481 -0.0060 0.8364
vn 0.6022 -0.0318 0.7977
vn 0.6175 -0.0144 0.7864
vn 0.6813 -0.0166 0.7318
vn 0.6923 -0.0352 0.7208
vn 0.7416 -0.0033 0.6709
vn 0.7724 -0.0431 0.6337
vn 0.7955 -0.0042 0.6059
vn 0.8422 -0.0333 0.5381
vn 0.8432 -0.0302 0.5367
vn 0.8884 -0.0043 0.4591
vn 0.8988 -0.0607 0.4341
vn 0.9257 0.0143 0.3779
vn 0.9431 -0.0720 0.3245
vn 0.9552 0.0062 0.2960
vn 0.9758 -0.0448 0.2139
vn 0.9757 -0.0599 0.2109
vn 0.9919 0.0157 0.1261
vn 0.9890 -0.1144 0.0935
vn 0.9984 0.0371 0.0419
vn 0.9941 -0.1054 -0.0241
vn 0.9990 -0.0125 -0.0424
vn 0.9918 -0.0169 -0.1270
vn 0.9862 -0.0858 -0.1418
vn 0.9772 0.0267 -0.2107
vn 0.9622 -0.0893 -0.2574
vn 0.9552 0.0135 -0.2955
vn 0.9272 -0.0559 -0.3703
vn 0.9245 -0.0221 -0.3805
vn 0.8881 -0.0097 -0.4596
vn 0.8773 -0.0489 -0.4775
vn 0.8454 0.0037 -0.5340
vn 0.8147 -0.0482 -0.5779
vn 0.7955 -0.0051 -0.6060
vn 0.7411 -0.0303 -0.6707
vn 0.7396 -0.0265 -0.6726
vn 0.6821 -0.0083 -0.7312
vn 0.6564 -0.0366 -0.7535
vn 0.6183 -0.0054 -0.7859
vn 0.5628 -0.0317 -0.8260
vn 0.5473 -0.0143 -0.8368
vn 0.4721 -0.0170 -0.8814
vn 0.4612 -0.0272 -0.8869
vn 0.3938 -0.0081 -0.9192
vn 0.3531 -0.0308 -0.9351
vn 0.3112 -0.0084 -0.9503
vn 0.2400 -0.0264 -0.9704
vn 0.2266 -0.0163 -0.9738
vn 0.0357 -0.0157 0.9992
vn -0.2646 -0.0155 0.9642
vn 0.0357 -0.0157 -0.9992
vn 0.9999 -0.0157 -0.0000
vn -0.0232 -0.0157 -0.9996
vn -0.0295 -0.0187 -0.9994
vn -0.0200 -0.0157 0.9997
vn -0.0231 -0.0157 0.9996
vn -0.0294 -0.0157 0.9994
vn -0.0295 -0.0157 0.9994
vn -0.0357 -0.0157 0.9992
vn -0.0358 -0.0157 0.9992
vn -0.0295 -0.0187 0.9994
vn -0.0000 -1.0000 -0.0000
vn -0.0000 -1.0000 -0.0001
vn -0.0000 -1.0000 0.0002
vn -0.0000 -1.0000 -0.0002
vn -0.0000 -1.0000 0.0001
s 0
f 1//1 2//1 3//1
f 3//2 2//2 4//2
f 3//2 4//2 5//2
f 5//1 4//1 6//1
f 4//2 2//2 7//2
f 7//2 2//2 8//2
f 7//2 8//2 9//2
f 10//3 1//3 11//3
f 11//3 1//3 3//3
f 12//4 13//4 14//4
f 14//5 13//5 15//5
f 15//6 13//6 16//6
f 15//7 16//7 17//7
f 17//8 16//8 18//8
f 18//9 16//9 19//9
f 18//10 19//10 20//10
f 20//11 19//11 21//11
f 20//12 21//12 22//12
f 20//13 22//13 23//13
f 23//14 22//14 24//14
f 23//15 24//15 25//15
f 25//16 24//16 26//16
f 26//17 24//17 27//17
f 26//18 27//18 11//18
f 11//19 27//19 10//19
f 12//20 14//20 6//20
f 6//20 14//20 5//20
f 27//21 30//21 10//21
f 10//22 30//22 31//22
f 10//23 31//23 32//23
f 32//24 31//24 33//24
f 32//25 33//25 34//25
f 34//26 33//26 35//26
f 35//27 33//27 36//27
f 35//28 36//28 37//28
f 37//29 36//29 38//29
f 37//30 38//30 39//30
f 39//31 38//31 40//31
f 39//32 40//32 41//32
f 41//33 40//33 42//33
f 41//34 42//34 43//34
f 43//35 42//35 44//35
f 43//36 44//36 45//36
f 45//37 44//37 46//37
f 45//38 46//38 47//38
f 47//39 46//39 48//39
f 47//40 48//40 49//40
f 49//41 48//41 50//41
f 49//42 50//42 51//42
f 51//43 50//43 52//43
f 51//44 52//44 53//44
f 53//45 52//45 54//45
f 53//46 54//46 55//46
f 55//47 54//47 56//47
f 55//48 56//48 57//48
f 57//49 56//49 58//49
f 58//50 56//50 59//50
f 58//51 59//51 60//51
f 60//52 59//52 61//52
f 60//53 61//53 62//53
f 62//54 61//54 63//54
f 62//55 63//55 64//55
f 64//56 63//56 65//56
f 64//57 65//57 66//57
f 66//58 65//58 67//58
f 66//59 67//59 68//59
f 68//60 67//60 69//60
f 68//61 69//61 70//61
f 70//62 69//62 71//62
f 70//63 71//63 72//63
f 72//64 71//64 73//64
f 72//65 73//65 74//65
f 74//66 73//66 75//66
f 74//67 75//67 76//67
f 76//68 75//68 77//68
f 76//69 77//69 78//69
f 78//70 77//70 79//70
f 78//71 79//71 80//71
f 80//72 79//72 81//72
f 80//73 81//73 82//73
f 82//74 81//74 31//74
f 82//75 31//75 83//75
f 83//76 31//76 30//76
f 83//77 30//77 84//77
f 84//78 30//78 24//78
f 84//79 24//79 85//79
f 85//80 24//80 22//80
f 85//81 22//81 86//81
f 86//82 22//82 21//82
f 86//83 21//83 19//83
f 27//84 24//84 30//84
f 16//85 87//85 19//85
f 19//86 87//86 88//86
f 19//87 88//87 86//87
f 86//88 88//88 89//88
f 86//89 89//89 85//89
f 85//90 89//90 84//90
f 87//91 16//91 90//91
f 90//92 16//92 13//92
f 90//93 13//93 12//93
f 90//94 12//94 91//94
f 91//95 12//95 6//95
f 91//96 6//96 92//96
f 92//97 6//97 93//97
f 92//98 93//98 94//98
f 93//99 6//99 95//99
f 95//100 6//100 4//100
f 95//101 4//101 96//101
f 96//102 4//102 7//102
f 96//103 7//103 97//103
f 97//104 7//104 9//104
f 97//105 9//105 8//105
f 97//106 8//106 98//106
f 98//107 8//107 2//107
f 98//108 2//108 99//108
f 99//109 2//109 1//109
f 99//110 1//110 34//110
f 34//111 1//111 32//111
f 1//112 10//112 32//112
f 100//113 101//113 102//113
f 102//114 101//114 103//114
f 102//115 103//115 104//115
f 104//116 103//116 105//116
f 104//117 105//117 106//117
f 106//118 105//118 107//118
f 106//119 107//119 108//119
f 108//120 107//120 109//120
f 108//121 109//121 110//121
f 110//122 109//122 111//122
f 110//123 111//123 112//123
f 112//124 111//124 113//124
f 112//125 113//125 114//125
f 114//126 113//126 115//126
f 114//127 115//127 116//127
f 116//128 115//128 117//128
f 116//129 117//129 118//129
f 118//130 117//130 119//130
f 118//131 119//131 120//131
f 120//132 119//132 121//132
f 120//133 121//133 122//133
f 122//134 121//134 123//134
f 122//135 123//135 124//135
f 124//136 123//136 125//136
f 124//137 125//137 91//137
f 91//138 125//138 126//138
f 91//139 126//139 90//139
f 90//140 126//140 127//140
f 90//141 127//141 87//141
f 87//142 127//142 88//142
f 92//143 94//143 128//143
f 128//144 94//144 129//144
f 128//145 129//145 130//145
f 130//146 129//146 131//146
f 130//147 131//147 132//147
f 132//148 131//148 133//148
f 132//149 133//149 134//149
f 134//150 133//150 135//150
f 134//151 135//151 136//151
f 136//152 135//152 137//152
f 136//153 137//153 138//153
f 138//154 137//154 139//154
f 138//155 139//155 140//155
f 140//156 139//156 141//156
f 140//157 141//157 142//157
f 142//158 141//158 143//158
f 142//158 143//158 108//158
f 108//159 143//159 106//159
f 141//160 144//160 143//160
f 143//161 144//161 145//161
f 143//162 145//162 106//162
f 106//163 145//163 104//163
f 144//164 146//164 145//164
f 145//165 146//165 147//165
f 145//163 147//163 104//163
f 104//166 147//166 148//166
f 104//167 148//167 102//167
f 102//168 148//168 100//168
f 146//169 149//169 147//169
f 147//170 149//170 148//170
f 149//171 100//171 148//171
f 65//172 50//172 67//172
f 67//172 50//172 48//172
f 67//173 48//173 69//173
f 69//173 48//173 46//173
f 69//174 46//174 71//174
f 71//174 46//174 44//174
f 71//175 44//175 73//175
f 73//175 44//175 42//175
f 73//176 42//176 75//176
f 75//176 42//176 40//176
f 75//177 40//177 77//177
f 77//177 40//177 38//177
f 77//178 38//178 79//178
f 79//178 38//178 36//178
f 79//179 36//179 81//179
f 81//179 36//179 33//179
f 81//24 33//24 31//24
f 50//180 65//180 52//180
f 52//180 65//180 63//180
f 52//181 63//181 54//181
f 54//181 63//181 61//181
f 54//182 61//182 56//182
f 56//182 61//182 59//182
f 124//183 91//183 92//183
f 108//184 110//184 142//184
f 142//185 110//185 112//185
f 142//157 112//157 140//157
f 140//186 112//186 114//186
f 140//187 114//187 138//187
f 138//188 114//188 136//188
f 134//189 136//189 116//189
f 116//188 136//188 114//188
f 132//190 134//190 118//190
f 118//189 134//189 116//189
f 130//191 132//191 120//191
f 120//190 132//190 118//190
f 128//192 130//192 122//192
f 122//191 130//191 120//191
f 92//183 128//183 124//183
f 124//192 128//192 122//192
f 57//193 58//193 153//193
f 153//194 58//194 154//194
f 153//195 154//195 155//195
f 155//196 154//196 156//196
f 155//197 156//197 157//197
f 157//197 158//197 155//197
f 157//198 28//198 158//198
f 158//198 28//198 159//198
f 176//199 177//199 178//199
f 178//200 177//200 179//200
f 178//201 179//201 180//201
f 181//202 160//202 176//202
f 176//203 160//203 182//203
f 176//204 182//204 177//204
f 183//205 162//205 181//205
f 181//206 162//206 161//206
f 181//207 161//207 160//207
f 183//208 184//208 162//208
f 162//209 184//209 163//209
f 163//210 184//210 167//210
f 167//211 184//211 185//211
f 185//212 184//212 186//212
f 185//213 186//213 187//213
f 187//214 186//214 188//214
f 187//215 188//215 189//215
f 189//216 188//216 190//216
f 189//217 190//217 191//217
f 191//218 190//218 192//218
f 191//219 192//219 193//219
f 193//220 192//220 194//220
f 193//221 194//221 195//221
f 195//222 194//222 196//222
f 195//223 196//223 197//223
f 197//224 196//224 198//224
f 197//225 198//225 199//225
f 199//226 198//226 200//226
f 199//227 200//227 201//227
f 201//228 200//228 202//228
f 201//229 202//229 203//229
f 203//230 202//230 204//230
f 203//231 204//231 205//231
f 205//232 204//232 206//232
f 205//233 206//233 207//233
f 207//234 206//234 208//234
f 207//235 208//235 209//235
f 209//236 208//236 210//236
f 209//237 210//237 211//237
f 211//238 210//238 212//238
f 211//239 212//239 213//239
f 213//240 212//240 214//240
f 213//241 214//241 215//241
f 215//242 214//242 216//242
f 215//243 216//243 217//243
f 217//244 216//244 218//244
f 217//245 218//245 219//245
f 219//246 218//246 220//246
f 219//247 220//247 221//247
f 221//248 220//248 222//248
f 221//249 222//249 223//249
f 223//250 222//250 224//250
f 223//251 224//251 225//251
f 225//252 224//252 226//252
f 225//253 226//253 227//253
f 227//254 226//254 228//254
f 227//255 228//255 168//255
f 168//256 228//256 229//256
f 168//257 229//257 170//257
f 170//258 229//258 171//258
f 171//259 229//259 230//259
f 171//260 230//260 165//260
f 165//261 230//261 231//261
f 165//262 231//262 232//262
f 232//263 231//263 233//263
f 233//264 231//264 234//264
f 233//265 234//265 235//265
f 231//266 236//266 234//266
f 234//267 236//267 237//267
f 237//268 236//268 238//268
f 237//269 238//269 239//269
f 239//270 238//270 240//270
f 240//271 238//271 241//271
f 240//272 241//272 242//272
f 242//273 241//273 243//273
f 242//274 243//274 244//274
f 244//275 243//275 245//275
f 244//276 245//276 246//276
f 246//277 245//277 247//277
f 247//278 245//278 248//278
f 247//279 248//279 249//279
f 249//280 248//280 250//280
f 249//281 250//281 251//281
f 251//282 250//282 252//282
f 251//283 252//283 253//283
f 253//284 252//284 254//284
f 254//285 252//285 255//285
f 254//286 255//286 256//286
f 256//287 255//287 257//287
f 256//288 257//288 258//288
f 258//289 257//289 259//289
f 259//290 257//290 260//290
f 259//291 260//291 261//291
f 261//292 260//292 262//292
f 261//293 262//293 263//293
f 263//294 262//294 264//294
f 263//295 264//295 265//295
f 265//296 264//296 266//296
f 266//297 264//297 267//297
f 266//298 267//298 268//298
f 268//299 267//299 269//299
f 268//300 269//300 270//300
f 270//301 269//301 271//301
f 270//302 271//302 272//302
f 272//303 271//303 273//303
f 273//304 271//304 274//304
f 273//305 274//305 275//305
f 275//306 274//306 276//306
f 275//307 276//307 277//307
f 277//308 276//308 278//308
f 277//309 278//309 279//309
f 279//310 278//310 280//310
f 280//311 278//311 281//311
f 280//312 281//312 282//312
f 282//313 281//313 283//313
f 282//314 283//314 284//314
f 284//315 283//315 285//315
f 285//316 283//316 286//316
f 285//317 286//317 287//317
f 287//318 286//318 288//318
f 287//319 288//319 289//319
f 289//320 288//320 178//320
f 289//321 178//321 180//321
f 166//322 165//322 232//322
f 168//323 169//323 227//323
f 160//324 164//324 182//324
f 300//325 308//325 301//325
f 301//325 308//325 312//325
f 312//325 308//325 313//325
f 313//325 308//325 306//325
f 313//325 306//325 314//325
f 314//325 306//325 315//325
f 315//325 306//325 307//325
f 315//325 307//325 316//325
f 316//325 307//325 309//325
f 316//325 309//325 317//325
f 317//325 309//325 318//325
f 318//325 309//325 310//325
f 318//325 310//325 319//325
f 319//325 310//325 320//325
f 320//325 310//325 311//325
f 320//325 311//325 291//325
f 291//325 311//325 290//325
f 290//325 311//325 299//325
f 175//198 301//198 173//198
f 173//198 301//198 312//198
f 173//198 312//198 172//198
f 172//198 312//198 321//198
f 172//198 321//198 296//198
f 296//198 174//198 172//198
f 296//326 321//326 295//326
f 295//327 321//327 180//327
f 295//327 180//327 294//327
f 294//193 180//193 179//193
f 29//325 305//325 28//325
f 28//325 305//325 304//325
f 28//325 304//325 159//325
f 159//325 304//325 302//325
f 159//325 302//325 323//325
f 323//325 302//325 29//325
f 29//325 302//325 303//325
f 29//325 303//325 305//325
f 152//328 324//328 29//328
f 29//328 324//328 323//328
f 152//329 151//329 324//329
f 324//329 151//329 325//329
f 325//330 151//330 150//330
f 325//331 150//331 322//331
f 322//332 150//332 101//332
f 322//333 101//333 100//333
f 235//333 234//333 297//333
f 297//334 234//334 292//334
f 297//334 292//334 298//334
f 298//329 292//329 293//329
f 326//335 327//335 328//335
f 328//335 327//335 329//335
f 328//335 329//335 330//335
f 330//335 329//335 331//335
f 330//335 331//335 332//335
f 332//335 331//335 333//335
f 332//335 333//335 334//335
f 334//335 333//335 335//335
f 334//335 335//335 336//335
f 336//335 335//335 337//335
f 336//335 337//335 338//335
f 338//335 337//335 339//335
f 338//335 339//335 340//335
f 340//336 339//336 341//336
f 340//335 341//335 342//335
f 342//335 341//335 343//335
f 342//335 343//335 344//335
f 344//337 343//337 345//337
f 344//335 345//335 346//335
f 346//335 345//335 347//335
f 346//335 347//335 348//335
f 348//335 347//335 349//335
f 348//335 349//335 350//335
f 350//338 349//338 351//338
f 350//335 351//335 352//335
f 352//338 351//338 353//338
f 352//335 353//335 354//335
f 354//337 353//337 178//337
f 354//335 178//335 355//335
f 355//335 178//335 356//335
f 355//335 356//335 357//335
f 357//335 356//335 358//335
f 357//335 358//335 359//335
f 359//335 358//335 360//335
f 359//335 360//335 361//335
f 361//339 360//339 362//339
f 361//335 362//335 363//335
f 363//335 362//335 364//335
f 363//335 364//335 365//335
f 365//339 364//339 366//339
f 365//335 366//335 367//335
f 367//335 366//335 368//335
f 367//335 368//335 369//335
f 369//335 368//335 370//335
f 369//335 370//335 371//335
f 371//335 370//335 372//335
f 371//335 372//335 373//335
f 373//335 372//335 374//335
f 373//335 374//335 375//335
f 375//335 374//335 376//335
f 375//335 376//335 377//335
f 377//335 376//335 378//335
f 377//335 378//335 379//335
f 379//335 378//335 380//335
f 379//335 380//335 381//335
f 381//335 380//335 382//335
f 381//335 382//335 383//335
f 383//335 382//335 384//335
f 383//335 384//335 385//335
f 385//335 384//335 386//335
f 385//335 386//335 387//335
f 387//339 386//339 388//339
f 387//335 388//335 389//335
f 389//335 388//335 390//335
f 389//335 390//335 391//335
f 391//338 390//338 392//338
f 391//335 392//335 393//335
f 393//335 392//335 394//335
f 393//335 394//335 395//335
f 395//335 394//335 396//335
f 395//335 396//335 397//335
f 397//337 396//337 398//337
f 397//335 398//335 399//335
f 399//337 398//337 400//337
f 399//335 400//335 401//335
f 401//338 400//338 402//338
f 401//335 402//335 403//335
f 403//335 402//335 404//335
f 403//335 404//335 405//335
f 405//335 404//335 406//335
f 405//335 406//335 407//335
f 407//335 406//335 408//335
f 407//335 408//335 409//335
f 409//336 408//336 410//336
f 409//335 410//335 411//335
f 411//335 410//335 412//335
f 411//335 412//335 413//335
f 413//336 412//336 414//336
f 413//335 414//335 415//335
f 415//335 414//335 416//335
f 415//335 416//335 417//335
f 417//335 416//335 418//335
f 417//335 418//335 419//335
f 419//335 418//335 420//335
f 419//335 420//335 326//335
f 326//335 420//335 327//335
