# Blender 4.0.2
# www.blender.org
o SICK-S300__m3
v 0.050800 -0.005541 -0.029188
v 0.050800 -0.005200 -0.026600
v 0.050800 -0.005541 -0.024012
v 0.050800 -0.006540 -0.021600
v 0.050800 -0.008129 -0.019529
v 0.050800 -0.010200 -0.017940
v 0.050800 -0.012612 -0.016941
v 0.050800 -0.015200 -0.016600
v 0.050800 -0.017788 -0.016941
v 0.050800 -0.020200 -0.017940
v 0.050800 -0.022271 -0.019529
v 0.050800 -0.023860 -0.021600
v 0.050800 -0.024859 -0.024012
v 0.050800 -0.025200 -0.026600
v 0.050800 -0.024859 -0.029188
v 0.050800 -0.023860 -0.031600
v 0.050800 -0.022271 -0.033671
v 0.050800 -0.020200 -0.035260
v 0.050800 -0.017788 -0.036259
v 0.050800 -0.015200 -0.036600
v 0.050800 -0.012612 -0.036259
v 0.050800 -0.010200 -0.035260
v 0.050800 -0.008129 -0.033671
v 0.050800 -0.006540 -0.031600
v 0.050800 -0.007990 -0.008648
v 0.050800 -0.007650 -0.006500
v 0.050800 -0.007990 -0.004352
v 0.050800 -0.008977 -0.002415
v 0.050800 -0.010515 -0.000877
v 0.050800 -0.012452 0.000110
v 0.050800 -0.014600 0.000450
v 0.050800 -0.016748 0.000110
v 0.050800 -0.018685 -0.000877
v 0.050800 -0.020223 -0.002415
v 0.050800 -0.021210 -0.004352
v 0.050800 -0.021550 -0.006500
v 0.050800 -0.021210 -0.008648
v 0.050800 -0.020223 -0.010585
v 0.050800 -0.018685 -0.012123
v 0.050800 -0.016748 -0.013110
v 0.050800 -0.014600 -0.013450
v 0.050800 -0.012452 -0.013110
v 0.050800 -0.010515 -0.012123
v 0.050800 -0.008977 -0.010585
v 0.050800 -0.007990 0.009152
v 0.050800 -0.007650 0.011300
v 0.050800 -0.007990 0.013448
v 0.050800 -0.008977 0.015385
v 0.050800 -0.010515 0.016923
v 0.050800 -0.012452 0.017910
v 0.050800 -0.014600 0.018250
v 0.050800 -0.016748 0.017910
v 0.050800 -0.018685 0.016923
v 0.050800 -0.020223 0.015385
v 0.050800 -0.021210 0.013448
v 0.050800 -0.021550 0.011300
v 0.050800 -0.021210 0.009152
v 0.050800 -0.020223 0.007215
v 0.050800 -0.018685 0.005677
v 0.050800 -0.016748 0.004690
v 0.050800 -0.014600 0.004350
v 0.050800 -0.012452 0.004690
v 0.050800 -0.010515 0.005677
v 0.050800 -0.008977 0.007215
v 0.050800 -0.007990 0.026952
v 0.050800 -0.007650 0.029100
v 0.050800 -0.007990 0.031248
v 0.050800 -0.008977 0.033185
v 0.050800 -0.010515 0.034723
v 0.050800 -0.012452 0.035710
v 0.050800 -0.014600 0.036050
v 0.050800 -0.016748 0.035710
v 0.050800 -0.018685 0.034723
v 0.050800 -0.020223 0.033185
v 0.050800 -0.021210 0.031248
v 0.050800 -0.021550 0.029100
v 0.050800 -0.021210 0.026952
v 0.050800 -0.020223 0.025015
v 0.050800 -0.018685 0.023477
v 0.050800 -0.016748 0.022490
v 0.050800 -0.014600 0.022150
v 0.050800 -0.012452 0.022490
v 0.050800 -0.010515 0.023477
v 0.050800 -0.008977 0.025015
v 0.027941 -0.003400 -0.029188
v 0.027600 -0.003400 -0.026600
v 0.027941 -0.003400 -0.024012
v 0.028940 -0.003400 -0.021600
v 0.030529 -0.003400 -0.019529
v 0.032600 -0.003400 -0.017940
v 0.035012 -0.003400 -0.016941
v 0.037600 -0.003400 -0.016600
v 0.040188 -0.003400 -0.016941
v 0.042600 -0.003400 -0.017940
v 0.044671 -0.003400 -0.019529
v 0.046260 -0.003400 -0.021600
v 0.047259 -0.003400 -0.024012
v 0.047600 -0.003400 -0.026600
v 0.047259 -0.003400 -0.029188
v 0.046260 -0.003400 -0.031600
v 0.044671 -0.003400 -0.033671
v 0.042600 -0.003400 -0.035260
v 0.040188 -0.003400 -0.036259
v 0.037600 -0.003400 -0.036600
v 0.035012 -0.003400 -0.036259
v 0.032600 -0.003400 -0.035260
v 0.030529 -0.003400 -0.033671
v 0.028940 -0.003400 -0.031600
v 0.030990 -0.003400 -0.008648
v 0.030650 -0.003400 -0.006500
v 0.030990 -0.003400 -0.004352
v 0.031977 -0.003400 -0.002415
v 0.033515 -0.003400 -0.000877
v 0.035452 -0.003400 0.000110
v 0.037600 -0.003400 0.000450
v 0.039748 -0.003400 0.000110
v 0.041685 -0.003400 -0.000877
v 0.043223 -0.003400 -0.002415
v 0.044210 -0.003400 -0.004352
v 0.044550 -0.003400 -0.006500
v 0.044210 -0.003400 -0.008648
v 0.043223 -0.003400 -0.010585
v 0.041685 -0.003400 -0.012123
v 0.039748 -0.003400 -0.013110
v 0.037600 -0.003400 -0.013450
v 0.035452 -0.003400 -0.013110
v 0.033515 -0.003400 -0.012123
v 0.031977 -0.003400 -0.010585
v 0.030990 -0.003400 0.009152
v 0.030650 -0.003400 0.011300
v 0.030990 -0.003400 0.013448
v 0.031977 -0.003400 0.015385
v 0.033515 -0.003400 0.016923
v 0.035452 -0.003400 0.017910
v 0.037600 -0.003400 0.018250
v 0.039748 -0.003400 0.017910
v 0.041685 -0.003400 0.016923
v 0.043223 -0.003400 0.015385
v 0.044210 -0.003400 0.013448
v 0.044550 -0.003400 0.011300
v 0.044210 -0.003400 0.009152
v 0.043223 -0.003400 0.007215
v 0.041685 -0.003400 0.005677
v 0.039748 -0.003400 0.004690
v 0.037600 -0.003400 0.004350
v 0.035452 -0.003400 0.004690
v 0.033515 -0.003400 0.005677
v 0.031977 -0.003400 0.007215
v 0.030990 -0.003400 0.026952
v 0.030650 -0.003400 0.029100
v 0.030990 -0.003400 0.031248
v 0.031977 -0.003400 0.033185
v 0.033515 -0.003400 0.034723
v 0.035452 -0.003400 0.035710
v 0.037600 -0.003400 0.036050
v 0.039748 -0.003400 0.035710
v 0.041685 -0.003400 0.034723
v 0.043223 -0.003400 0.033185
v 0.044210 -0.003400 0.031248
v 0.044550 -0.003400 0.029100
v 0.044210 -0.003400 0.026952
v 0.043223 -0.003400 0.025015
v 0.041685 -0.003400 0.023477
v 0.039748 -0.003400 0.022490
v 0.037600 -0.003400 0.022150
v 0.035452 -0.003400 0.022490
v 0.033515 -0.003400 0.023477
v 0.031977 -0.003400 0.025015
v 0.050800 -0.027000 -0.039000
v 0.053776 -0.027000 -0.039000
v 0.050800 -0.003400 -0.039000
v 0.054200 0.000000 -0.039000
v 0.024200 0.000000 -0.039000
v 0.024200 -0.003400 -0.039000
v 0.053776 -0.027000 0.039000
v 0.050800 -0.027000 0.039000
v 0.024200 -0.000000 0.039000
v 0.054200 -0.000000 0.039000
v 0.050800 -0.003400 0.039000
v 0.024200 -0.003400 0.039000
v 0.054200 0.000000 -0.051150
v 0.053719 -0.030600 -0.050660
v 0.053719 -0.030600 0.050660
v 0.054200 -0.000000 0.051150
v -0.046719 -0.073000 -0.017108
v -0.044403 -0.073000 -0.022445
v -0.041479 -0.073000 -0.027475
v -0.037988 -0.073000 -0.032129
v -0.033978 -0.073000 -0.036344
v -0.029503 -0.073000 -0.040062
v -0.024624 -0.073000 -0.043232
v -0.019409 -0.073000 -0.045811
v -0.013928 -0.073000 -0.047764
v -0.008257 -0.073000 -0.049063
v -0.002473 -0.073000 -0.049692
v 0.003345 -0.073000 -0.049641
v 0.009117 -0.073000 -0.048911
v 0.009175 -0.021941 -0.049716
v 0.003494 -0.020837 -0.050452
v -0.002234 -0.019724 -0.050541
v -0.007935 -0.018616 -0.049982
v -0.013536 -0.017527 -0.048781
v -0.018966 -0.016471 -0.046956
v -0.024155 -0.015463 -0.044527
v -0.029035 -0.014514 -0.041528
v -0.033546 -0.013637 -0.037996
v -0.037628 -0.012844 -0.033977
v -0.041229 -0.012144 -0.029523
v -0.044304 -0.011546 -0.024689
v -0.046812 -0.011059 -0.019539
v -0.048722 -0.010687 -0.014138
v -0.050009 -0.010437 -0.008556
v -0.050657 -0.010311 0.002864
v -0.050657 -0.010311 -0.002864
v -0.046719 -0.073000 0.017108
v -0.044403 -0.073000 0.022445
v -0.048397 -0.073000 0.011537
v -0.049413 -0.073000 0.005808
v -0.049753 -0.073000 -0.000000
v -0.049413 -0.073000 -0.005808
v -0.048397 -0.073000 -0.011537
v 0.009117 -0.073000 0.048911
v 0.009175 -0.021942 0.049716
v 0.003494 -0.020837 0.050452
v -0.002234 -0.019724 0.050541
v -0.007935 -0.018616 0.049982
v -0.013536 -0.017527 0.048781
v -0.018966 -0.016471 0.046956
v -0.024155 -0.015463 0.044527
v -0.029035 -0.014514 0.041528
v -0.033546 -0.013637 0.037996
v -0.037628 -0.012844 0.033977
v -0.041229 -0.012144 0.029523
v -0.044304 -0.011546 0.024689
v -0.046812 -0.011059 0.019539
v -0.048722 -0.010687 0.014138
v -0.050009 -0.010437 0.008556
v -0.041479 -0.073000 0.027475
v -0.037988 -0.073000 0.032129
v -0.033978 -0.073000 0.036344
v -0.029503 -0.073000 0.040062
v -0.024624 -0.073000 0.043232
v -0.019409 -0.073000 0.045811
v -0.013928 -0.073000 0.047764
v -0.008257 -0.073000 0.049063
v -0.002473 -0.073000 0.049692
v 0.003345 -0.073000 0.049641
v 0.015852 -0.023239 0.049934
v 0.009188 -0.010881 0.049890
v 0.009200 -0.000000 0.050062
v 0.015865 -0.000000 0.050300
v 0.022529 -0.024537 0.050110
v 0.022532 -0.000000 0.050496
v 0.029208 -0.025836 0.050244
v 0.029200 -0.000000 0.050650
v 0.015818 -0.073000 -0.049151
v 0.015852 -0.023239 -0.049934
v 0.022520 -0.073000 -0.049348
v 0.022529 -0.024537 -0.050110
v 0.029208 -0.025836 -0.050244
v 0.029223 -0.073000 -0.049503
v 0.053053 -0.073000 -0.049980
v 0.051703 -0.073000 0.048602
v 0.008031 -0.073000 0.047729
v 0.051703 -0.073000 -0.048602
v 0.008031 -0.073000 -0.047729
v 0.002268 -0.073000 -0.048347
v -0.003528 -0.073000 -0.048271
v -0.009273 -0.073000 -0.047503
v -0.014885 -0.073000 -0.046054
v -0.020284 -0.073000 -0.043945
v -0.025391 -0.073000 -0.041205
v -0.030135 -0.073000 -0.037874
v -0.034446 -0.073000 -0.034000
v -0.038264 -0.073000 -0.029639
v -0.041532 -0.073000 -0.024852
v -0.044205 -0.073000 -0.019709
v -0.046244 -0.073000 -0.014283
v -0.047620 -0.073000 -0.008653
v -0.048313 -0.073000 -0.002898
v -0.048313 -0.073000 0.002898
v -0.047620 -0.073000 0.008653
v -0.046244 -0.073000 0.014283
v -0.044205 -0.073000 0.019709
v -0.041532 -0.073000 0.024852
v -0.038264 -0.073000 0.029639
v -0.034446 -0.073000 0.034000
v -0.030135 -0.073000 0.037874
v -0.025391 -0.073000 0.041205
v -0.020284 -0.073000 0.043945
v -0.014885 -0.073000 0.046054
v -0.009273 -0.073000 0.047503
v -0.003528 -0.073000 0.048271
v 0.002268 -0.073000 0.048347
v 0.015818 -0.073000 0.049151
v 0.053053 -0.073000 0.049980
v 0.029223 -0.073000 0.049503
v 0.022520 -0.073000 0.049348
v 0.029200 0.000000 -0.050650
v 0.022532 0.000000 -0.050496
v 0.015865 0.000000 -0.050300
v 0.009200 0.000000 -0.050062
v 0.009188 -0.010881 -0.049890
v 0.003302 0.000000 -0.050793
v -0.002642 0.000000 -0.050831
v -0.008549 0.000000 -0.050177
v -0.014340 0.000000 -0.048838
v -0.019935 0.000000 -0.046834
v -0.025259 0.000000 -0.044190
v -0.030238 0.000000 -0.040945
v -0.034805 0.000000 -0.037141
v -0.038897 0.000000 -0.032830
v -0.042459 0.000000 -0.028072
v -0.045442 0.000000 -0.022931
v -0.047805 0.000000 -0.017478
v -0.049517 0.000000 -0.011786
v -0.050553 0.000000 -0.005933
v -0.050900 0.000000 0.000000
v -0.050553 0.000000 0.005933
v -0.049517 -0.000000 0.011786
v -0.047805 -0.000000 0.017478
v -0.045442 -0.000000 0.022931
v -0.042459 -0.000000 0.028072
v -0.038897 -0.000000 0.032830
v -0.034805 -0.000000 0.037141
v -0.030238 -0.000000 0.040945
v -0.025259 -0.000000 0.044190
v -0.019935 -0.000000 0.046834
v -0.014340 -0.000000 0.048838
v -0.008549 -0.000000 0.050177
v -0.002642 -0.000000 0.050831
v 0.003302 -0.000000 0.050793
vn -0.0000 -0.0000 1.0000
vn -0.0000 1.0000 -0.0000
vn -0.0000 -0.0000 -1.0000
vn 1.0000 -0.0000 -0.0000
vn 0.9999 -0.0157 -0.0000
vn -0.0357 -0.0157 0.9992
vn -0.0294 -0.0157 0.9994
vn -0.0231 -0.0157 0.9996
vn -0.0200 -0.0157 0.9997
vn -0.0000 -1.0000 -0.0000
vn -0.0200 -0.0157 -0.9997
vn -0.0231 -0.0157 -0.9996
vn -0.0294 -0.0157 -0.9994
vn -0.0357 -0.0157 -0.9992
vn 0.1255 -0.0158 -0.9920
vn 0.1230 -0.0151 -0.9923
vn 0.0124 -0.0162 -0.9998
vn 0.0065 -0.0146 -0.9999
vn -0.1008 -0.0167 -0.9948
vn -0.1101 -0.0141 -0.9938
vn -0.2127 -0.0173 -0.9770
vn -0.2252 -0.0135 -0.9742
vn -0.3218 -0.0178 -0.9466
vn -0.3372 -0.0129 -0.9413
vn -0.4267 -0.0184 -0.9042
vn -0.4447 -0.0122 -0.8956
vn -0.5261 -0.0190 -0.8502
vn -0.5461 -0.0116 -0.8377
vn -0.6188 -0.0197 -0.7853
vn -0.6400 -0.0109 -0.7683
vn -0.7035 -0.0204 -0.7104
vn -0.7252 -0.0102 -0.6885
vn -0.7791 -0.0210 -0.6265
vn -0.8005 -0.0095 -0.5993
vn -0.8448 -0.0217 -0.5347
vn -0.8649 -0.0089 -0.5019
vn -0.8996 -0.0223 -0.4361
vn -0.9175 -0.0083 -0.3976
vn -0.9430 -0.0228 -0.3319
vn -0.9576 -0.0078 -0.2879
vn -0.9744 -0.0232 -0.2236
vn -0.9847 -0.0075 -0.1744
vn -0.9934 -0.0235 -0.1125
vn -0.9983 -0.0073 -0.0584
vn -0.9997 -0.0236 -0.0000
vn -0.9983 -0.0073 0.0584
vn -0.9934 -0.0235 0.1125
vn -0.9847 -0.0075 0.1744
vn -0.9744 -0.0232 0.2236
vn -0.9576 -0.0078 0.2879
vn -0.9430 -0.0228 0.3319
vn -0.9175 -0.0083 0.3976
vn -0.8996 -0.0223 0.4361
vn -0.8649 -0.0089 0.5019
vn -0.8448 -0.0217 0.5347
vn -0.8005 -0.0095 0.5993
vn -0.7791 -0.0210 0.6265
vn -0.7252 -0.0102 0.6885
vn -0.7035 -0.0204 0.7104
vn -0.6400 -0.0109 0.7683
vn -0.6188 -0.0197 0.7853
vn -0.5461 -0.0116 0.8377
vn -0.5261 -0.0190 0.8502
vn -0.4447 -0.0122 0.8956
vn -0.4267 -0.0184 0.9042
vn -0.3372 -0.0129 0.9413
vn -0.3218 -0.0178 0.9466
vn -0.2252 -0.0135 0.9742
vn -0.2127 -0.0173 0.9770
vn -0.1101 -0.0141 0.9938
vn -0.1008 -0.0167 0.9948
vn 0.0065 -0.0146 0.9999
vn 0.0124 -0.0162 0.9998
vn 0.1230 -0.0151 0.9923
vn 0.1255 -0.0158 0.9920
s 0
f 169//1 170//1 171//1
f 171//1 170//1 172//1
f 171//1 172//1 173//1
f 173//1 174//1 171//1
f 170//2 169//2 175//2
f 175//2 169//2 176//2
f 177//3 178//3 179//3
f 179//3 178//3 175//3
f 179//3 175//3 176//3
f 179//3 180//3 177//3
f 174//4 173//4 180//4
f 180//4 173//4 177//4
f 87//2 86//2 174//2
f 174//2 86//2 85//2
f 174//2 85//2 108//2
f 108//2 107//2 174//2
f 174//2 107//2 106//2
f 174//2 106//2 105//2
f 105//2 104//2 174//2
f 174//2 104//2 171//2
f 171//2 104//2 103//2
f 171//2 103//2 102//2
f 102//2 101//2 171//2
f 171//2 101//2 100//2
f 171//2 100//2 99//2
f 99//2 98//2 171//2
f 171//2 98//2 97//2
f 171//2 97//2 179//2
f 179//2 97//2 120//2
f 179//2 120//2 140//2
f 140//2 120//2 119//2
f 140//2 119//2 141//2
f 141//2 119//2 142//2
f 142//2 119//2 118//2
f 142//2 118//2 143//2
f 143//2 118//2 117//2
f 143//2 117//2 144//2
f 144//2 117//2 116//2
f 144//2 116//2 145//2
f 145//2 116//2 115//2
f 145//2 115//2 114//2
f 97//2 96//2 120//2
f 120//2 96//2 121//2
f 121//2 96//2 95//2
f 121//2 95//2 122//2
f 122//2 95//2 94//2
f 122//2 94//2 123//2
f 123//2 94//2 93//2
f 123//2 93//2 124//2
f 124//2 93//2 92//2
f 124//2 92//2 125//2
f 125//2 92//2 126//2
f 126//2 92//2 91//2
f 126//2 91//2 127//2
f 127//2 91//2 90//2
f 127//2 90//2 128//2
f 128//2 90//2 89//2
f 128//2 89//2 109//2
f 109//2 89//2 88//2
f 109//2 88//2 110//2
f 110//2 88//2 87//2
f 110//2 87//2 180//2
f 180//2 87//2 174//2
f 145//2 114//2 146//2
f 146//2 114//2 113//2
f 146//2 113//2 147//2
f 147//2 113//2 112//2
f 147//2 112//2 148//2
f 148//2 112//2 111//2
f 148//2 111//2 129//2
f 129//2 111//2 130//2
f 130//2 111//2 110//2
f 130//2 110//2 180//2
f 139//2 161//2 140//2
f 140//2 161//2 160//2
f 140//2 160//2 179//2
f 179//2 160//2 159//2
f 179//2 159//2 158//2
f 161//2 139//2 162//2
f 162//2 139//2 138//2
f 162//2 138//2 163//2
f 163//2 138//2 137//2
f 163//2 137//2 164//2
f 164//2 137//2 136//2
f 164//2 136//2 165//2
f 165//2 136//2 135//2
f 165//2 135//2 134//2
f 165//2 134//2 166//2
f 166//2 134//2 133//2
f 166//2 133//2 167//2
f 167//2 133//2 132//2
f 167//2 132//2 168//2
f 168//2 132//2 131//2
f 168//2 131//2 149//2
f 149//2 131//2 130//2
f 149//2 130//2 150//2
f 150//2 130//2 180//2
f 150//2 180//2 151//2
f 151//2 180//2 152//2
f 152//2 180//2 153//2
f 153//2 180//2 154//2
f 154//2 180//2 155//2
f 155//2 180//2 179//2
f 155//2 179//2 156//2
f 156//2 179//2 157//2
f 157//2 179//2 158//2
f 1//4 171//4 2//4
f 2//4 171//4 179//4
f 2//4 179//4 3//4
f 3//4 179//4 26//4
f 3//4 26//4 4//4
f 4//4 26//4 25//4
f 4//4 25//4 5//4
f 5//4 25//4 44//4
f 5//4 44//4 6//4
f 6//4 44//4 43//4
f 6//4 43//4 42//4
f 1//4 24//4 171//4
f 171//4 24//4 23//4
f 171//4 23//4 22//4
f 22//4 21//4 171//4
f 171//4 21//4 20//4
f 171//4 20//4 169//4
f 169//4 20//4 19//4
f 169//4 19//4 18//4
f 18//4 17//4 169//4
f 169//4 17//4 16//4
f 169//4 16//4 15//4
f 15//4 14//4 169//4
f 169//4 14//4 176//4
f 176//4 14//4 13//4
f 176//4 13//4 56//4
f 56//4 13//4 36//4
f 56//4 36//4 35//4
f 13//4 12//4 36//4
f 36//4 12//4 11//4
f 36//4 11//4 37//4
f 37//4 11//4 38//4
f 38//4 11//4 10//4
f 38//4 10//4 39//4
f 39//4 10//4 9//4
f 39//4 9//4 40//4
f 40//4 9//4 8//4
f 40//4 8//4 41//4
f 41//4 8//4 7//4
f 41//4 7//4 42//4
f 42//4 7//4 6//4
f 34//4 58//4 35//4
f 35//4 58//4 57//4
f 35//4 57//4 56//4
f 58//4 34//4 59//4
f 59//4 34//4 33//4
f 59//4 33//4 60//4
f 60//4 33//4 32//4
f 60//4 32//4 61//4
f 61//4 32//4 31//4
f 61//4 31//4 30//4
f 61//4 30//4 62//4
f 62//4 30//4 29//4
f 62//4 29//4 63//4
f 63//4 29//4 28//4
f 63//4 28//4 64//4
f 64//4 28//4 27//4
f 64//4 27//4 45//4
f 45//4 27//4 26//4
f 45//4 26//4 46//4
f 46//4 26//4 179//4
f 46//4 179//4 66//4
f 66//4 179//4 67//4
f 67//4 179//4 68//4
f 68//4 179//4 69//4
f 69//4 179//4 70//4
f 70//4 179//4 71//4
f 71//4 179//4 176//4
f 71//4 176//4 72//4
f 72//4 176//4 73//4
f 73//4 176//4 74//4
f 74//4 176//4 75//4
f 75//4 176//4 76//4
f 76//4 176//4 56//4
f 76//4 56//4 77//4
f 77//4 56//4 55//4
f 77//4 55//4 78//4
f 78//4 55//4 54//4
f 78//4 54//4 79//4
f 79//4 54//4 53//4
f 79//4 53//4 80//4
f 80//4 53//4 52//4
f 80//4 52//4 81//4
f 81//4 52//4 51//4
f 81//4 51//4 50//4
f 81//4 50//4 82//4
f 82//4 50//4 49//4
f 82//4 49//4 83//4
f 83//4 49//4 48//4
f 83//4 48//4 84//4
f 84//4 48//4 47//4
f 84//4 47//4 65//4
f 65//4 47//4 46//4
f 65//4 46//4 66//4
f 172//5 170//5 181//5
f 181//5 170//5 182//5
f 182//5 170//5 175//5
f 182//5 175//5 183//5
f 183//5 175//5 184//5
f 184//5 175//5 178//5
f 223//6 248//6 249//6
f 249//6 248//6 250//6
f 250//6 248//6 251//6
f 251//7 248//7 252//7
f 251//7 252//7 253//7
f 253//8 252//8 254//8
f 253//8 254//8 255//8
f 183//9 184//9 254//9
f 254//9 184//9 255//9
f 295//10 222//10 264//10
f 264//10 222//10 247//10
f 264//10 247//10 294//10
f 294//10 247//10 246//10
f 294//10 246//10 293//10
f 293//10 246//10 245//10
f 293//10 245//10 292//10
f 292//10 245//10 244//10
f 292//10 244//10 291//10
f 291//10 244//10 243//10
f 291//10 243//10 290//10
f 290//10 243//10 242//10
f 290//10 242//10 289//10
f 289//10 242//10 241//10
f 289//10 241//10 288//10
f 288//10 241//10 240//10
f 288//10 240//10 287//10
f 287//10 240//10 239//10
f 287//10 239//10 286//10
f 286//10 239//10 238//10
f 286//10 238//10 285//10
f 285//10 238//10 216//10
f 285//10 216//10 284//10
f 284//10 216//10 215//10
f 284//10 215//10 283//10
f 283//10 215//10 217//10
f 283//10 217//10 282//10
f 282//10 217//10 218//10
f 282//10 218//10 281//10
f 281//10 218//10 219//10
f 281//10 219//10 280//10
f 280//10 219//10 220//10
f 280//10 220//10 279//10
f 279//10 220//10 221//10
f 279//10 221//10 278//10
f 278//10 221//10 185//10
f 278//10 185//10 277//10
f 277//10 185//10 186//10
f 277//10 186//10 276//10
f 276//10 186//10 187//10
f 276//10 187//10 275//10
f 275//10 187//10 188//10
f 275//10 188//10 274//10
f 274//10 188//10 189//10
f 274//10 189//10 273//10
f 273//10 189//10 190//10
f 273//10 190//10 272//10
f 272//10 190//10 191//10
f 272//10 191//10 271//10
f 271//10 191//10 192//10
f 271//10 192//10 270//10
f 270//10 192//10 193//10
f 270//10 193//10 269//10
f 269//10 193//10 194//10
f 269//10 194//10 268//10
f 268//10 194//10 195//10
f 268//10 195//10 267//10
f 267//10 195//10 196//10
f 267//10 196//10 266//10
f 266//10 196//10 197//10
f 266//10 197//10 256//10
f 256//10 258//10 266//10
f 266//10 258//10 261//10
f 266//10 261//10 265//10
f 265//10 261//10 262//10
f 265//10 262//10 263//10
f 263//10 262//10 296//10
f 263//10 296//10 297//10
f 263//10 297//10 264//10
f 264//10 297//10 298//10
f 264//10 298//10 295//10
f 182//11 260//11 181//11
f 181//11 260//11 299//11
f 260//12 259//12 299//12
f 299//12 259//12 300//12
f 300//13 259//13 301//13
f 301//13 259//13 257//13
f 301//14 257//14 302//14
f 302//14 257//14 303//14
f 303//14 257//14 198//14
f 198//15 199//15 303//15
f 303//15 199//15 302//15
f 302//16 199//16 304//16
f 304//17 199//17 200//17
f 304//18 200//18 305//18
f 305//19 200//19 201//19
f 305//20 201//20 306//20
f 306//21 201//21 202//21
f 306//22 202//22 307//22
f 307//23 202//23 203//23
f 307//24 203//24 308//24
f 308//25 203//25 204//25
f 308//26 204//26 309//26
f 309//27 204//27 205//27
f 309//28 205//28 310//28
f 310//29 205//29 206//29
f 310//30 206//30 311//30
f 311//31 206//31 207//31
f 311//32 207//32 312//32
f 312//33 207//33 208//33
f 312//34 208//34 313//34
f 313//35 208//35 209//35
f 313//36 209//36 314//36
f 314//37 209//37 210//37
f 314//38 210//38 315//38
f 315//39 210//39 211//39
f 315//40 211//40 316//40
f 316//41 211//41 212//41
f 316//42 212//42 317//42
f 317//43 212//43 214//43
f 317//44 214//44 318//44
f 318//45 214//45 213//45
f 318//46 213//46 319//46
f 319//47 213//47 237//47
f 319//48 237//48 320//48
f 320//49 237//49 236//49
f 320//50 236//50 321//50
f 321//51 236//51 235//51
f 321//52 235//52 322//52
f 322//53 235//53 234//53
f 322//54 234//54 323//54
f 323//55 234//55 233//55
f 323//56 233//56 324//56
f 324//57 233//57 232//57
f 324//58 232//58 325//58
f 325//59 232//59 231//59
f 325//60 231//60 326//60
f 326//61 231//61 230//61
f 326//62 230//62 327//62
f 327//63 230//63 229//63
f 327//64 229//64 328//64
f 328//65 229//65 228//65
f 328//66 228//66 329//66
f 329//67 228//67 227//67
f 329//68 227//68 330//68
f 330//69 227//69 226//69
f 330//70 226//70 331//70
f 331//71 226//71 225//71
f 331//72 225//72 332//72
f 332//73 225//73 224//73
f 332//74 224//74 250//74
f 250//75 224//75 249//75
f 249//75 224//75 223//75
f 172//2 299//2 173//2
f 173//2 299//2 300//2
f 173//2 300//2 301//2
f 172//2 181//2 299//2
f 301//2 302//2 173//2
f 173//2 302//2 304//2
f 173//2 304//2 305//2
f 305//2 306//2 173//2
f 173//2 306//2 307//2
f 173//2 307//2 308//2
f 308//2 309//2 173//2
f 173//2 309//2 310//2
f 173//2 310//2 311//2
f 311//2 312//2 173//2
f 173//2 312//2 313//2
f 173//2 313//2 314//2
f 314//2 315//2 173//2
f 173//2 315//2 316//2
f 173//2 316//2 317//2
f 317//2 318//2 173//2
f 173//2 318//2 177//2
f 177//2 318//2 319//2
f 177//2 319//2 320//2
f 320//2 321//2 177//2
f 177//2 321//2 322//2
f 177//2 322//2 323//2
f 323//2 324//2 177//2
f 177//2 324//2 325//2
f 177//2 325//2 326//2
f 326//2 327//2 177//2
f 177//2 327//2 328//2
f 177//2 328//2 329//2
f 329//2 330//2 177//2
f 177//2 330//2 331//2
f 177//2 331//2 332//2
f 332//2 250//2 177//2
f 177//2 250//2 251//2
f 177//2 251//2 253//2
f 253//2 255//2 177//2
f 177//2 255//2 178//2
f 178//2 255//2 184//2
