v 0.048767 -0.006424 -0.024695
v 0.049198 -0.000002 -0.024700
v 0.048787 0.006420 -0.024705
v 0.047542 0.012733 -0.024710
v 0.045483 0.018830 -0.024715
v 0.042646 0.024607 -0.024720
v 0.039080 0.029964 -0.024724
v 0.034843 0.034808 -0.024728
v 0.030012 0.039060 -0.024731
v 0.024667 0.042644 -0.024734
v 0.018899 0.045499 -0.024736
v 0.012809 0.047578 -0.024738
v 0.006500 0.048843 -0.024739
v 0.000078 0.049274 -0.024739
v -0.006344 0.048863 -0.024739
v -0.012657 0.047618 -0.024738
v -0.018754 0.045559 -0.024736
v -0.024531 0.042722 -0.024734
v -0.029888 0.039156 -0.024731
v -0.034732 0.034919 -0.024728
v -0.038984 0.030088 -0.024724
v -0.042568 0.024743 -0.024720
v -0.045423 0.018975 -0.024715
v -0.047502 0.012885 -0.024710
v -0.048767 0.006576 -0.024705
v -0.049198 0.000154 -0.024700
v -0.048787 -0.006268 -0.024695
v -0.047542 -0.012581 -0.024690
v -0.045483 -0.018679 -0.024685
v -0.042646 -0.024455 -0.024680
v -0.039080 -0.029812 -0.024676
v -0.034843 -0.034657 -0.024672
v -0.030012 -0.038908 -0.024669
v -0.024667 -0.042492 -0.024666
v -0.018899 -0.045347 -0.024664
v -0.012809 -0.047426 -0.024662
v -0.006500 -0.048691 -0.024661
v -0.000078 -0.049122 -0.024661
v 0.006344 -0.048711 -0.024661
v 0.012657 -0.047466 -0.024662
v 0.018755 -0.045407 -0.024664
v 0.024531 -0.042570 -0.024666
v 0.029888 -0.039004 -0.024669
v 0.034733 -0.034767 -0.024672
v 0.038984 -0.029936 -0.024676
v 0.042568 -0.024591 -0.024680
v 0.045423 -0.018823 -0.024685
v 0.047502 -0.012733 -0.024690
v 0.048767 -0.006423 -0.024252
v 0.049198 -0.000002 -0.024257
v 0.048787 0.006421 -0.024262
v 0.047542 0.012734 -0.024267
v 0.045483 0.018831 -0.024272
v 0.042646 0.024607 -0.024277
v 0.039080 0.029964 -0.024281
v 0.034843 0.034809 -0.024285
v 0.030012 0.039060 -0.024288
v 0.024667 0.042644 -0.024291
v 0.018899 0.045499 -0.024293
v 0.012809 0.047578 -0.024295
v 0.006500 0.048843 -0.024296
v 0.000078 0.049274 -0.024296
v -0.006344 0.048863 -0.024296
v -0.012657 0.047618 -0.024295
v -0.018754 0.045559 -0.024293
v -0.024531 0.042722 -0.024291
v -0.029888 0.039156 -0.024288
v -0.034732 0.034920 -0.024285
v -0.038984 0.030088 -0.024281
v -0.042568 0.024743 -0.024277
v -0.045423 0.018976 -0.024272
v -0.047502 0.012885 -0.024267
v -0.048767 0.006576 -0.024262
v -0.049198 0.000155 -0.024257
v -0.048787 -0.006268 -0.024252
v -0.047542 -0.012581 -0.024247
v -0.045483 -0.018678 -0.024242
v -0.042646 -0.024455 -0.024237
v -0.039080 -0.029812 -0.024233
v -0.034843 -0.034656 -0.024229
v -0.030012 -0.038908 -0.024226
v -0.024667 -0.042492 -0.024223
v -0.018899 -0.045347 -0.024221
v -0.012809 -0.047425 -0.024219
v -0.006500 -0.048690 -0.024218
v -0.000078 -0.049122 -0.024218
v 0.006344 -0.048711 -0.024218
v 0.012657 -0.047466 -0.024219
v 0.018755 -0.045407 -0.024221
v 0.024531 -0.042570 -0.024223
v 0.029888 -0.039003 -0.024226
v 0.034733 -0.034767 -0.024229
v 0.038984 -0.029936 -0.024233
v 0.042568 -0.024591 -0.024237
v 0.045423 -0.018823 -0.024242
v 0.047502 -0.012732 -0.024247
v 0.046559 -0.006232 0.011802
v 0.046988 0.000030 0.011797
v 0.045299 -0.012381 0.011807
v 0.043231 -0.018308 0.011812
v 0.040391 -0.023905 0.011816
v 0.036830 -0.029075 0.011820
v 0.032612 -0.033723 0.011824
v 0.027812 -0.037768 0.011827
v 0.022517 -0.041137 0.011830
v 0.016818 -0.043770 0.011832
v 0.010820 -0.045620 0.011833
v 0.004629 -0.046654 0.011834
v -0.001645 -0.046854 0.011834
v -0.007889 -0.046217 0.011834
v -0.013992 -0.044751 0.011833
v -0.019847 -0.042485 0.011831
v -0.025346 -0.039461 0.011828
v -0.030394 -0.035730 0.011826
v -0.034899 -0.031358 0.011822
v -0.038781 -0.026426 0.011818
v -0.041972 -0.021020 0.011814
v -0.044412 -0.015237 0.011809
v -0.046062 -0.009181 0.011804
v -0.046888 -0.002958 0.011799
v -0.046878 0.003318 0.011794
v -0.046032 0.009537 0.011790
v -0.044363 0.015589 0.011785
v -0.041904 0.021364 0.011780
v -0.038696 0.026760 0.011776
v -0.034799 0.031679 0.011772
v -0.030280 0.036036 0.011768
v -0.025220 0.039751 0.011765
v -0.019711 0.042758 0.011763
v -0.013849 0.045005 0.011761
v -0.007741 0.046451 0.011760
v -0.001495 0.047069 0.011760
v 0.004778 0.046849 0.011760
v 0.010966 0.045796 0.011761
v 0.016958 0.043926 0.011762
v 0.022648 0.041275 0.011764
v 0.027932 0.037890 0.011767
v 0.032720 0.033829 0.011770
v 0.036923 0.029167 0.011774
v 0.040467 0.023987 0.011778
v 0.043289 0.018380 0.011782
v 0.045339 0.012447 0.011787
v 0.046579 0.006294 0.011792
v 0.044788 -0.006109 0.029753
v 0.045220 0.000047 0.029748
v 0.043524 -0.012150 0.029758
v 0.041447 -0.017963 0.029762
v 0.038600 -0.023437 0.029767
v 0.035032 -0.028475 0.029771
v 0.030813 -0.032978 0.029774
v 0.026018 -0.036865 0.029777
v 0.020740 -0.040064 0.029780
v 0.015075 -0.042514 0.029782
v 0.009130 -0.044169 0.029783
v 0.003014 -0.045000 0.029784
v -0.003158 -0.044990 0.029784
v -0.009270 -0.044140 0.029783
v -0.015211 -0.042466 0.029782
v -0.020868 -0.039998 0.029780
v -0.026136 -0.036782 0.029777
v -0.030917 -0.032880 0.029774
v -0.035122 -0.028363 0.029771
v -0.038674 -0.023314 0.029767
v -0.041504 -0.017831 0.029762
v -0.043562 -0.012011 0.029758
v -0.044808 -0.005966 0.029753
v -0.045220 0.000191 0.029748
v -0.044788 0.006348 0.029743
v -0.043523 0.012389 0.029738
v -0.041447 0.018201 0.029734
v -0.038599 0.023676 0.029729
v -0.035031 0.028713 0.029725
v -0.030812 0.033216 0.029722
v -0.026018 0.037104 0.029719
v -0.020740 0.040302 0.029716
v -0.015075 0.042752 0.029714
v -0.009129 0.044408 0.029713
v -0.003014 0.045238 0.029712
v 0.003158 0.045228 0.029712
v 0.009271 0.044379 0.029713
v 0.015211 0.042704 0.029714
v 0.020868 0.040236 0.029716
v 0.026136 0.037021 0.029719
v 0.030918 0.033118 0.029722
v 0.035123 0.028601 0.029725
v 0.038675 0.023553 0.029729
v 0.041505 0.018069 0.029734
v 0.043563 0.012250 0.029738
v 0.044808 0.006205 0.029743
v 0.026113 -0.004526 0.032283
v 0.026523 0.000079 0.032279
v 0.024910 -0.008990 0.032286
v 0.022949 -0.013177 0.032290
v 0.020291 -0.016960 0.032293
v 0.017017 -0.020224 0.032295
v 0.013226 -0.022870 0.032297
v 0.009032 -0.024817 0.032299
v 0.004565 -0.026006 0.032300
v -0.000042 -0.026402 0.032300
v -0.004647 -0.025991 0.032300
v -0.009111 -0.024788 0.032299
v -0.013298 -0.022828 0.032297
v -0.017081 -0.020170 0.032295
v -0.020345 -0.016895 0.032293
v -0.022991 -0.013104 0.032290
v -0.024938 -0.008911 0.032286
v -0.026127 -0.004443 0.032283
v -0.026523 0.000164 0.032279
v -0.026112 0.004769 0.032275
v -0.024909 0.009233 0.032272
v -0.022949 0.013420 0.032268
v -0.020291 0.017203 0.032265
v -0.017016 0.020466 0.032263
v -0.013225 0.023112 0.032261
v -0.009032 0.025060 0.032259
v -0.004564 0.026249 0.032258
v 0.000042 0.026644 0.032258
v 0.004648 0.026234 0.032258
v 0.009112 0.025031 0.032259
v 0.013299 0.023070 0.032261
v 0.017082 0.020412 0.032263
v 0.020345 0.017138 0.032265
v 0.022991 0.013347 0.032268
v 0.024939 0.009154 0.032272
v 0.026127 0.004686 0.032275
f 147 101 100
f 103 150 104
f 79 115 116
f 73 121 122
f 163 205 164
f 117 164 118
f 117 116 163
f 117 163 164
f 170 124 123
f 70 124 125
f 148 147 193
f 148 101 147
f 197 153 152
f 197 152 196
f 97 96 49
f 141 53 54
f 141 142 53
f 151 104 150
f 151 150 195
f 151 195 196
f 151 196 152
f 105 90 104
f 105 104 151
f 105 151 152
f 77 118 76
f 77 117 118
f 80 115 79
f 160 113 159
f 160 203 161
f 160 202 203
f 160 159 202
f 204 161 203
f 204 205 163
f 206 164 205
f 78 79 116
f 78 116 117
f 78 117 77
f 168 122 121
f 171 172 125
f 171 124 170
f 171 125 124
f 126 125 172
f 71 123 124
f 71 124 70
f 128 67 127
f 192 193 147
f 189 143 142
f 149 150 103
f 216 217 178
f 176 175 215
f 212 172 171
f 59 136 58
f 139 138 185
f 56 138 139
f 57 138 56
f 52 53 142
f 52 142 143
f 52 143 51
f 98 49 50
f 98 97 49
f 98 50 51
f 98 51 143
f 99 96 97
f 99 95 96
f 99 100 95
f 102 93 101
f 102 149 103
f 102 103 92
f 102 92 93
f 102 101 148
f 102 148 149
f 87 88 107
f 89 90 105
f 106 152 153
f 106 105 152
f 106 153 107
f 106 89 105
f 106 107 88
f 106 88 89
f 131 63 64
f 131 64 130
f 131 132 63
f 131 178 132
f 62 63 132
f 62 132 133
f 62 133 61
f 119 76 118
f 114 115 80
f 114 161 115
f 114 160 161
f 114 113 160
f 81 82 113
f 81 113 114
f 81 114 80
f 111 110 157
f 201 202 159
f 155 198 199
f 162 161 204
f 162 204 163
f 162 115 161
f 162 116 115
f 162 163 116
f 166 120 119
f 209 168 208
f 169 210 170
f 169 209 210
f 169 168 209
f 169 170 123
f 169 123 122
f 169 122 168
f 69 125 126
f 69 70 125
f 68 127 67
f 68 126 127
f 68 69 126
f 72 123 71
f 72 122 123
f 72 73 122
f 129 128 175
f 129 175 176
f 129 176 130
f 144 99 97
f 225 191 189
f 187 223 224
f 194 148 193
f 194 149 148
f 194 195 150
f 194 150 149
f 211 212 171
f 211 170 210
f 211 171 170
f 173 172 212
f 173 126 172
f 173 127 126
f 135 136 59
f 135 59 60
f 137 136 183
f 137 138 57
f 137 58 136
f 137 57 58
f 221 183 220
f 55 56 139
f 179 180 133
f 179 178 217
f 179 132 178
f 179 133 132
f 218 219 180
f 218 179 217
f 218 180 179
f 91 92 103
f 91 103 104
f 91 104 90
f 177 178 131
f 177 216 178
f 177 130 176
f 177 131 130
f 177 215 216
f 177 176 215
f 74 120 121
f 74 121 73
f 84 85 110
f 84 110 111
f 84 111 83
f 112 83 111
f 112 82 83
f 112 113 82
f 112 159 113
f 200 201 157
f 158 201 159
f 158 157 201
f 158 111 157
f 158 159 112
f 158 112 111
f 156 155 199
f 156 199 200
f 156 200 157
f 156 157 110
f 154 198 155
f 154 197 198
f 154 153 197
f 154 107 153
f 108 87 107
f 108 107 154
f 108 154 155
f 108 86 87
f 207 208 166
f 165 164 206
f 165 118 164
f 165 206 207
f 165 207 166
f 165 119 118
f 165 166 119
f 167 208 168
f 167 166 208
f 167 168 121
f 167 121 120
f 167 120 166
f 66 128 129
f 66 67 128
f 190 144 191
f 146 192 147
f 146 99 144
f 146 190 192
f 146 144 190
f 146 147 100
f 146 100 99
f 145 189 191
f 145 191 144
f 145 143 189
f 145 98 143
f 145 97 98
f 145 144 97
f 188 187 224
f 188 224 225
f 188 225 189
f 188 189 142
f 188 142 141
f 188 141 187
f 186 223 187
f 186 222 223
f 186 185 222
f 186 139 185
f 213 173 212
f 181 180 219
f 134 133 180
f 134 180 181
f 134 181 135
f 134 135 60
f 134 60 61
f 134 61 133
f 184 221 222
f 184 222 185
f 184 183 221
f 184 185 138
f 184 138 137
f 184 137 183
f 94 101 93
f 94 100 101
f 94 95 100
f 75 120 74
f 75 119 120
f 75 76 119
f 109 155 156
f 109 108 155
f 109 156 110
f 109 86 108
f 109 85 86
f 109 110 85
f 65 66 129
f 65 129 130
f 65 130 64
f 140 139 186
f 140 141 54
f 140 187 141
f 140 186 187
f 140 54 55
f 140 55 139
f 174 173 213
f 174 175 128
f 174 128 127
f 174 127 173
f 214 215 175
f 214 175 174
f 214 174 213
f 182 219 220
f 182 181 219
f 182 220 183
f 182 183 136
f 182 136 135
f 182 135 181
f 49 1 2
f 49 2 50
f 48 95 47
f 48 96 95
f 48 1 49
f 48 49 96
f 16 63 15
f 16 64 63
f 77 28 29
f 77 76 28
f 80 31 32
f 80 79 31
f 3 4 52
f 3 52 51
f 3 50 2
f 3 51 50
f 5 52 4
f 5 53 52
f 5 6 54
f 5 54 53
f 87 39 40
f 87 40 88
f 62 15 63
f 62 14 15
f 62 13 14
f 62 61 13
f 34 35 83
f 34 83 82
f 81 33 34
f 81 34 82
f 81 32 33
f 81 80 32
f 30 77 29
f 30 78 77
f 30 31 79
f 30 79 78
f 69 21 22
f 69 22 70
f 72 24 25
f 72 25 73
f 23 24 72
f 23 72 71
f 23 70 22
f 23 71 70
f 60 12 13
f 60 13 61
f 11 12 60
f 11 60 59
f 11 58 10
f 11 59 58
f 9 56 8
f 9 57 56
f 9 10 58
f 9 58 57
f 91 42 43
f 91 90 42
f 44 91 43
f 44 92 91
f 44 45 93
f 44 93 92
f 41 88 40
f 41 89 88
f 41 42 90
f 41 90 89
f 74 25 26
f 74 73 25
f 86 37 38
f 86 85 37
f 86 38 39
f 86 39 87
f 84 36 37
f 84 37 85
f 84 35 36
f 84 83 35
f 20 21 69
f 20 69 68
f 20 67 19
f 20 68 67
f 66 18 19
f 66 19 67
f 7 33 32
f 7 24 23
f 7 21 20
f 7 12 11
f 7 9 8
f 7 43 42
f 7 5 4
f 7 48 47
f 7 22 21
f 7 32 31
f 7 13 12
f 7 41 40
f 7 26 25
f 7 2 1
f 7 39 38
f 7 17 16
f 7 36 35
f 7 27 26
f 7 4 3
f 7 1 48
f 7 40 39
f 7 44 43
f 7 16 15
f 7 15 14
f 7 29 28
f 7 35 34
f 7 25 24
f 7 30 29
f 7 38 37
f 7 18 17
f 7 3 2
f 7 6 5
f 7 47 46
f 7 14 13
f 7 28 27
f 7 34 33
f 7 31 30
f 7 23 22
f 7 19 18
f 7 11 10
f 7 10 9
f 7 46 45
f 7 45 44
f 7 42 41
f 7 37 36
f 7 20 19
f 7 8 56
f 7 56 55
f 7 54 6
f 7 55 54
f 94 45 46
f 94 93 45
f 94 47 95
f 94 46 47
f 75 26 27
f 75 74 26
f 75 28 76
f 75 27 28
f 65 17 18
f 65 18 66
f 65 16 17
f 65 64 16
f 214 224 223
f 214 225 224
f 214 221 220
f 214 218 217
f 214 210 209
f 214 217 216
f 214 193 192
f 214 194 193
f 214 203 202
f 214 205 204
f 214 206 205
f 214 197 196
f 214 196 195
f 214 199 198
f 214 211 210
f 214 204 203
f 214 200 199
f 214 208 207
f 214 198 197
f 214 216 215
f 214 190 191
f 214 220 219
f 214 223 222
f 214 202 201
f 214 209 208
f 214 191 225
f 214 195 194
f 214 212 211
f 214 222 221
f 214 219 218
f 214 201 200
f 214 207 206
f 214 192 190
f 214 213 212
