# Blender 4.0.2
# www.blender.org
o SICK-S300__m4
v 0.000300 -0.085300 -0.049559
v -0.003256 -0.085300 -0.049453
v 0.000300 -0.085300 -0.051000
v -0.010300 -0.085300 -0.051000
v -0.006796 -0.085300 -0.049092
v -0.010300 -0.085300 -0.048478
v 0.000300 -0.074700 -0.049726
v 0.000300 -0.074700 -0.051000
v 0.000300 -0.085300 0.049559
v 0.000300 -0.074700 0.049726
v 0.000300 -0.085300 0.051000
v 0.000300 -0.074700 0.051000
v -0.010300 -0.074700 -0.048648
v -0.010300 -0.074700 -0.051000
v -0.010300 -0.085300 0.048478
v -0.010300 -0.085300 0.051000
v -0.010300 -0.074700 0.048648
v -0.010300 -0.074700 0.051000
v -0.006796 -0.085300 0.049092
v -0.003256 -0.085300 0.049453
v 0.038700 -0.085300 -0.049500
v 0.038700 -0.085300 -0.051000
v 0.049300 -0.085300 -0.049712
v 0.049300 -0.085300 -0.051000
v 0.038700 -0.074700 -0.049666
v 0.038700 -0.074700 -0.051000
v 0.049300 -0.078183 0.034761
v 0.049300 -0.078718 0.038483
v 0.049300 -0.079300 0.034433
v 0.049300 -0.079882 0.038483
v 0.049300 -0.080418 0.034761
v 0.049300 -0.080862 0.037854
v 0.049300 -0.081180 0.035641
v 0.049300 -0.081346 0.036794
v 0.049300 -0.077738 0.037854
v 0.049300 -0.077420 0.035641
v 0.049300 -0.077254 0.036794
v 0.049300 -0.078183 -0.038239
v 0.049300 -0.078718 -0.034517
v 0.049300 -0.079300 -0.038567
v 0.049300 -0.079882 -0.034517
v 0.049300 -0.080418 -0.038239
v 0.049300 -0.080862 -0.035146
v 0.049300 -0.081180 -0.037359
v 0.049300 -0.081346 -0.036206
v 0.049300 -0.077738 -0.035146
v 0.049300 -0.077420 -0.037359
v 0.049300 -0.077254 -0.036206
v 0.049300 -0.074700 -0.049878
v 0.049300 -0.074700 -0.051000
v 0.049300 -0.085300 0.049712
v 0.049300 -0.074700 0.049878
v 0.049300 -0.085300 0.051000
v 0.049300 -0.074700 0.051000
v 0.038700 -0.085300 0.049500
v 0.038700 -0.085300 0.051000
v 0.038700 -0.074700 0.049666
v 0.038700 -0.074700 0.051000
v 0.006195 -0.074700 -0.049339
v 0.009115 -0.074700 -0.048884
v 0.009098 -0.089078 -0.048657
v 0.003253 -0.074700 -0.049620
v -0.015977 -0.074700 -0.047090
v -0.021429 -0.074700 -0.044872
v -0.026582 -0.074700 -0.042025
v -0.031362 -0.074700 -0.038590
v -0.035702 -0.074700 -0.034613
v -0.039542 -0.074700 -0.030152
v -0.042828 -0.074700 -0.025268
v -0.045514 -0.074700 -0.020030
v -0.047562 -0.074700 -0.014511
v -0.048944 -0.074700 -0.008789
v -0.049639 -0.074700 -0.002943
v -0.049639 -0.074700 0.002943
v -0.048944 -0.074700 0.008789
v -0.047562 -0.074700 0.014511
v -0.045514 -0.074700 0.020030
v -0.042828 -0.074700 0.025268
v -0.039542 -0.074700 0.030152
v -0.035702 -0.074700 0.034613
v -0.031362 -0.074700 0.038590
v -0.026582 -0.074700 0.042025
v -0.021429 -0.074700 0.044872
v -0.015977 -0.074700 0.047090
v 0.003253 -0.074700 0.049620
v 0.006195 -0.074700 0.049339
v 0.009098 -0.089078 0.048657
v 0.009115 -0.074700 0.048884
v 0.013306 -0.089297 0.047674
v 0.017438 -0.089592 0.046319
v 0.021437 -0.089953 0.044602
v 0.025256 -0.090366 0.042549
v 0.028849 -0.090815 0.040191
v 0.032173 -0.091283 0.037573
v 0.035196 -0.091752 0.034747
v 0.037982 -0.092220 0.031665
v 0.040553 -0.092682 0.028287
v 0.042854 -0.093121 0.024647
v 0.044846 -0.093520 0.020789
v 0.046497 -0.093864 0.016759
v 0.047785 -0.094140 0.012608
v 0.048700 -0.094341 0.008390
v 0.049239 -0.094460 0.004167
v 0.049415 -0.094500 -0.000000
v 0.049239 -0.094460 -0.004167
v 0.048700 -0.094341 -0.008390
v 0.047785 -0.094140 -0.012608
v 0.046497 -0.093864 -0.016759
v 0.044846 -0.093520 -0.020789
v 0.042854 -0.093121 -0.024647
v 0.040553 -0.092682 -0.028287
v 0.037982 -0.092220 -0.031665
v 0.035196 -0.091752 -0.034747
v 0.032173 -0.091283 -0.037573
v 0.028849 -0.090815 -0.040191
v 0.025256 -0.090366 -0.042549
v 0.021437 -0.089953 -0.044602
v 0.017438 -0.089592 -0.046319
v 0.013306 -0.089297 -0.047674
v 0.053027 -0.074700 0.049953
v 0.052804 -0.088834 0.049726
v 0.029228 -0.088942 0.049253
v 0.029223 -0.074700 0.049477
v 0.002268 -0.074700 0.048347
v -0.003528 -0.074700 0.048271
v -0.009273 -0.074700 0.047503
v -0.014885 -0.074700 0.046054
v -0.020284 -0.074700 0.043945
v -0.025391 -0.074700 0.041205
v -0.030135 -0.074700 0.037874
v -0.034446 -0.074700 0.034000
v -0.038264 -0.074700 0.029639
v -0.041532 -0.074700 0.024852
v -0.044205 -0.074700 0.019709
v -0.046244 -0.074700 0.014283
v -0.047620 -0.074700 0.008653
v -0.048313 -0.074700 0.002898
v -0.048313 -0.074700 -0.002898
v -0.047620 -0.074700 -0.008653
v -0.046244 -0.074700 -0.014283
v -0.044205 -0.074700 -0.019709
v -0.041532 -0.074700 -0.024852
v -0.038264 -0.074700 -0.029639
v -0.034446 -0.074700 -0.034000
v -0.030135 -0.074700 -0.037874
v -0.025391 -0.074700 -0.041205
v -0.020284 -0.074700 -0.043945
v -0.014885 -0.074700 -0.046054
v -0.009273 -0.074700 -0.047503
v -0.003528 -0.074700 -0.048271
v 0.002268 -0.074700 -0.048347
v 0.008031 -0.074700 -0.047729
v 0.015817 -0.074700 -0.049124
v 0.022519 -0.074700 -0.049321
v 0.029223 -0.074700 -0.049477
v 0.051703 -0.074700 -0.048602
v 0.008031 -0.074700 0.047729
v 0.015817 -0.074700 0.049124
v 0.022519 -0.074700 0.049321
v 0.051703 -0.074700 0.048602
v 0.053027 -0.074700 0.041750
v 0.053027 -0.074700 -0.041750
v 0.053027 -0.074700 -0.049953
v 0.055000 -0.074700 0.041750
v 0.055000 -0.074700 -0.041750
v 0.053584 -0.039200 0.005000
v 0.055000 -0.039200 0.005000
v 0.053636 -0.035900 0.005000
v 0.055000 -0.035900 0.005000
v 0.053584 -0.039200 -0.005000
v 0.055000 -0.039200 -0.005000
v 0.053636 -0.035900 -0.005000
v 0.055000 -0.035900 -0.005000
v 0.052860 -0.085300 -0.031150
v 0.055000 -0.085300 -0.031150
v 0.052983 -0.077500 -0.031150
v 0.055000 -0.077500 -0.031150
v 0.052860 -0.085300 -0.041750
v 0.055000 -0.085300 -0.041750
v 0.052983 -0.077500 0.031150
v 0.055000 -0.077500 0.031150
v 0.052860 -0.085300 0.031150
v 0.055000 -0.085300 0.031150
v 0.052860 -0.085300 0.041750
v 0.055000 -0.085300 0.041750
v 0.052804 -0.088834 -0.049726
v 0.052769 -0.091066 -0.038808
v 0.052743 -0.092746 -0.027791
v 0.052725 -0.093868 -0.016703
v 0.052717 -0.094430 -0.005572
v 0.052717 -0.094430 0.005572
v 0.052725 -0.093868 0.016703
v 0.052743 -0.092746 0.027790
v 0.052769 -0.091066 0.038808
v 0.029228 -0.088942 -0.049253
v 0.051703 -0.073000 0.048602
v 0.008031 -0.073000 0.047729
v 0.051703 -0.073000 -0.048602
v 0.008031 -0.073000 -0.047729
v 0.002268 -0.073000 -0.048347
v -0.003528 -0.073000 -0.048271
v -0.009273 -0.073000 -0.047503
v -0.014885 -0.073000 -0.046054
v -0.020284 -0.073000 -0.043945
v -0.025391 -0.073000 -0.041205
v -0.030135 -0.073000 -0.037874
v -0.034446 -0.073000 -0.034000
v -0.038264 -0.073000 -0.029639
v -0.041532 -0.073000 -0.024852
v -0.044205 -0.073000 -0.019709
v -0.046244 -0.073000 -0.014283
v -0.047620 -0.073000 -0.008653
v -0.048313 -0.073000 -0.002898
v -0.048313 -0.073000 0.002898
v -0.047620 -0.073000 0.008653
v -0.046244 -0.073000 0.014283
v -0.044205 -0.073000 0.019709
v -0.041532 -0.073000 0.024852
v -0.038264 -0.073000 0.029639
v -0.034446 -0.073000 0.034000
v -0.030135 -0.073000 0.037874
v -0.025391 -0.073000 0.041205
v -0.020284 -0.073000 0.043945
v -0.014885 -0.073000 0.046054
v -0.009273 -0.073000 0.047503
v -0.003528 -0.073000 0.048271
v 0.002268 -0.073000 0.048347
vn -0.0000 -1.0000 -0.0000
vn 1.0000 -0.0000 -0.0000
vn -1.0000 -0.0000 -0.0000
vn -0.0200 -0.0157 0.9997
vn -0.0000 1.0000 -0.0000
vn -0.0000 -0.0000 1.0000
vn -0.0000 -0.0000 -1.0000
vn 0.0002 -0.9763 0.2164
vn 0.0001 -0.9758 0.2185
vn 0.0004 -0.9769 0.2136
vn 0.0010 -0.9782 0.2078
vn 0.0022 -0.9797 0.2003
vn 0.0025 -0.9795 0.2016
vn 0.0006 -0.9822 0.1880
vn -0.0002 -0.9845 0.1757
vn 0.0005 -0.9864 0.1642
vn 0.0037 -0.9886 0.1507
vn 0.0055 -0.9879 0.1551
vn 0.0004 -0.9907 0.1359
vn -0.0003 -0.9928 0.1195
vn 0.0044 -0.9945 0.1050
vn 0.0083 -0.9949 0.1007
vn 0.0001 -0.9964 0.0849
vn -0.0001 -0.9978 0.0664
vn 0.0132 -0.9986 0.0504
vn -0.0025 -0.9996 0.0280
vn 0.0049 -0.9999 0.0097
vn 0.0213 -0.9998 -0.0000
vn 0.0049 -0.9999 -0.0097
vn -0.0025 -0.9996 -0.0280
vn 0.0132 -0.9986 -0.0504
vn -0.0001 -0.9978 -0.0664
vn 0.0001 -0.9964 -0.0849
vn 0.0083 -0.9949 -0.1007
vn 0.0044 -0.9945 -0.1050
vn -0.0003 -0.9928 -0.1195
vn 0.0004 -0.9907 -0.1359
vn 0.0043 -0.9886 -0.1507
vn 0.0032 -0.9882 -0.1530
vn 0.0005 -0.9864 -0.1642
vn -0.0002 -0.9845 -0.1757
vn 0.0006 -0.9822 -0.1880
vn 0.0023 -0.9797 -0.2003
vn 0.0021 -0.9796 -0.2010
vn 0.0010 -0.9782 -0.2078
vn 0.0004 -0.9769 -0.2136
vn 0.0001 -0.9758 -0.2185
vn 0.0002 -0.9763 -0.2164
vn -0.0200 -0.0000 0.9998
vn -0.0200 -0.0000 -0.9998
vn 0.1066 -0.0000 -0.9943
vn -0.0130 -0.0000 -0.9999
vn -0.1325 -0.0000 -0.9912
vn -0.2500 -0.0000 -0.9682
vn -0.3640 -0.0000 -0.9314
vn -0.4727 -0.0000 -0.8812
vn -0.5747 -0.0000 -0.8184
vn -0.6684 -0.0000 -0.7438
vn -0.7525 -0.0000 -0.6586
vn -0.8258 -0.0000 -0.5639
vn -0.8873 -0.0000 -0.4612
vn -0.9361 -0.0000 -0.3518
vn -0.9714 -0.0000 -0.2374
vn -0.9928 -0.0000 -0.1195
vn -0.9928 -0.0000 0.1195
vn -0.9714 -0.0000 0.2374
vn -0.9361 -0.0000 0.3518
vn -0.8873 -0.0000 0.4612
vn -0.8258 -0.0000 0.5639
vn -0.7525 -0.0000 0.6586
vn -0.6684 -0.0000 0.7438
vn -0.5747 -0.0000 0.8184
vn -0.4727 -0.0000 0.8812
vn -0.3640 -0.0000 0.9314
vn -0.2500 -0.0000 0.9682
vn -0.1325 -0.0000 0.9912
vn -0.0130 -0.0000 0.9999
vn 0.1066 -0.0000 0.9943
s 0
f 1//1 2//1 3//1
f 3//1 2//1 4//1
f 4//1 2//1 5//1
f 4//1 5//1 6//1
f 1//2 3//2 7//2
f 7//2 3//2 8//2
f 9//2 10//2 11//2
f 11//2 10//2 12//2
f 6//3 13//3 4//3
f 4//3 13//3 14//3
f 15//3 16//3 17//3
f 17//3 16//3 18//3
f 15//1 19//1 16//1
f 16//1 19//1 20//1
f 16//1 20//1 11//1
f 11//1 20//1 9//1
f 21//1 22//1 23//1
f 23//1 22//1 24//1
f 21//3 25//3 22//3
f 22//3 25//3 26//3
f 27//2 28//2 29//2
f 29//2 28//2 30//2
f 29//2 30//2 31//2
f 31//2 30//2 32//2
f 31//2 32//2 33//2
f 33//2 32//2 34//2
f 28//2 27//2 35//2
f 35//2 27//2 36//2
f 35//2 36//2 37//2
f 38//2 39//2 40//2
f 40//2 39//2 41//2
f 40//2 41//2 42//2
f 42//2 41//2 43//2
f 42//2 43//2 44//2
f 44//2 43//2 45//2
f 39//2 38//2 46//2
f 46//2 38//2 47//2
f 46//2 47//2 48//2
f 23//2 24//2 49//2
f 49//2 24//2 50//2
f 51//2 52//2 53//2
f 53//2 52//2 54//2
f 55//3 56//3 57//3
f 57//3 56//3 58//3
f 55//1 51//1 56//1
f 56//1 51//1 53//1
f 52//4 51//4 120//4
f 120//4 51//4 121//4
f 121//4 51//4 55//4
f 121//4 55//4 122//4
f 122//4 55//4 123//4
f 123//4 55//4 57//4
f 85//5 124//5 10//5
f 10//5 124//5 125//5
f 10//5 125//5 12//5
f 12//5 125//5 18//5
f 18//5 125//5 126//5
f 18//5 126//5 17//5
f 17//5 126//5 127//5
f 17//5 127//5 84//5
f 84//5 127//5 128//5
f 84//5 128//5 83//5
f 83//5 128//5 129//5
f 83//5 129//5 82//5
f 82//5 129//5 130//5
f 82//5 130//5 81//5
f 81//5 130//5 131//5
f 81//5 131//5 80//5
f 80//5 131//5 132//5
f 80//5 132//5 79//5
f 79//5 132//5 133//5
f 79//5 133//5 78//5
f 78//5 133//5 134//5
f 78//5 134//5 77//5
f 77//5 134//5 135//5
f 77//5 135//5 76//5
f 76//5 135//5 136//5
f 76//5 136//5 75//5
f 75//5 136//5 137//5
f 75//5 137//5 74//5
f 74//5 137//5 73//5
f 73//5 137//5 138//5
f 73//5 138//5 72//5
f 72//5 138//5 139//5
f 72//5 139//5 71//5
f 71//5 139//5 140//5
f 71//5 140//5 70//5
f 70//5 140//5 141//5
f 70//5 141//5 69//5
f 69//5 141//5 142//5
f 69//5 142//5 68//5
f 68//5 142//5 143//5
f 68//5 143//5 67//5
f 67//5 143//5 144//5
f 67//5 144//5 66//5
f 66//5 144//5 145//5
f 66//5 145//5 65//5
f 65//5 145//5 146//5
f 65//5 146//5 64//5
f 64//5 146//5 147//5
f 64//5 147//5 63//5
f 63//5 147//5 148//5
f 63//5 148//5 13//5
f 13//5 148//5 149//5
f 13//5 149//5 14//5
f 14//5 149//5 150//5
f 14//5 150//5 8//5
f 8//5 150//5 7//5
f 7//5 150//5 151//5
f 7//5 151//5 62//5
f 62//5 151//5 59//5
f 59//5 151//5 152//5
f 59//5 152//5 60//5
f 60//5 152//5 153//5
f 153//5 152//5 154//5
f 154//5 152//5 155//5
f 155//5 152//5 156//5
f 155//5 156//5 25//5
f 25//5 156//5 49//5
f 25//5 49//5 26//5
f 26//5 49//5 50//5
f 85//5 86//5 124//5
f 124//5 86//5 157//5
f 157//5 86//5 88//5
f 157//5 88//5 158//5
f 158//5 159//5 157//5
f 157//5 159//5 123//5
f 157//5 123//5 160//5
f 160//5 123//5 57//5
f 160//5 57//5 52//5
f 52//5 57//5 58//5
f 52//5 58//5 54//5
f 52//5 120//5 160//5
f 160//5 120//5 161//5
f 160//5 161//5 156//5
f 156//5 161//5 162//5
f 156//5 162//5 163//5
f 161//5 164//5 162//5
f 162//5 164//5 165//5
f 163//5 49//5 156//5
f 166//6 167//6 168//6
f 168//6 167//6 169//6
f 170//1 171//1 166//1
f 166//1 171//1 167//1
f 168//5 169//5 172//5
f 172//5 169//5 173//5
f 170//7 172//7 171//7
f 171//7 172//7 173//7
f 171//2 173//2 167//2
f 167//2 173//2 169//2
f 174//6 175//6 176//6
f 176//6 175//6 177//6
f 178//1 179//1 174//1
f 174//1 179//1 175//1
f 178//7 162//7 179//7
f 179//7 162//7 165//7
f 176//1 177//1 180//1
f 180//1 177//1 181//1
f 182//7 180//7 183//7
f 183//7 180//7 181//7
f 182//1 183//1 184//1
f 184//1 183//1 185//1
f 184//6 185//6 161//6
f 161//6 185//6 164//6
f 122//8 87//8 121//8
f 121//9 87//9 89//9
f 121//10 89//10 90//10
f 90//11 91//11 121//11
f 121//12 91//12 194//12
f 194//13 91//13 92//13
f 194//14 92//14 93//14
f 93//15 94//15 194//15
f 194//16 94//16 95//16
f 194//17 95//17 193//17
f 193//18 95//18 96//18
f 193//19 96//19 97//19
f 97//20 98//20 193//20
f 193//21 98//21 99//21
f 193//22 99//22 192//22
f 192//23 99//23 100//23
f 192//24 100//24 101//24
f 101//25 102//25 192//25
f 192//25 102//25 191//25
f 191//26 102//26 103//26
f 191//27 103//27 104//27
f 191//28 104//28 190//28
f 190//29 104//29 105//29
f 190//30 105//30 106//30
f 106//31 107//31 190//31
f 190//31 107//31 189//31
f 189//32 107//32 108//32
f 189//33 108//33 109//33
f 189//34 109//34 188//34
f 188//35 109//35 110//35
f 188//36 110//36 111//36
f 111//37 112//37 188//37
f 188//38 112//38 187//38
f 187//39 112//39 113//39
f 187//40 113//40 114//40
f 114//41 115//41 187//41
f 187//42 115//42 116//42
f 187//43 116//43 186//43
f 186//44 116//44 117//44
f 186//45 117//45 118//45
f 118//46 119//46 186//46
f 186//47 119//47 61//47
f 186//48 61//48 195//48
f 160//49 196//49 157//49
f 157//49 196//49 197//49
f 156//2 198//2 160//2
f 160//2 198//2 196//2
f 152//50 199//50 156//50
f 156//50 199//50 198//50
f 152//51 151//51 199//51
f 199//51 151//51 200//51
f 200//52 151//52 150//52
f 200//52 150//52 201//52
f 201//53 150//53 149//53
f 201//53 149//53 202//53
f 202//54 149//54 148//54
f 202//54 148//54 203//54
f 203//55 148//55 147//55
f 203//55 147//55 204//55
f 204//56 147//56 146//56
f 204//56 146//56 205//56
f 205//57 146//57 145//57
f 205//57 145//57 206//57
f 206//58 145//58 144//58
f 206//58 144//58 207//58
f 207//59 144//59 143//59
f 207//59 143//59 208//59
f 208//60 143//60 142//60
f 208//60 142//60 209//60
f 209//61 142//61 141//61
f 209//61 141//61 210//61
f 210//62 141//62 140//62
f 210//62 140//62 211//62
f 211//63 140//63 139//63
f 211//63 139//63 212//63
f 212//64 139//64 138//64
f 212//64 138//64 213//64
f 213//3 138//3 137//3
f 213//3 137//3 214//3
f 214//65 137//65 136//65
f 214//65 136//65 215//65
f 215//66 136//66 135//66
f 215//66 135//66 216//66
f 216//67 135//67 134//67
f 216//67 134//67 217//67
f 217//68 134//68 133//68
f 217//68 133//68 218//68
f 218//69 133//69 132//69
f 218//69 132//69 219//69
f 219//70 132//70 131//70
f 219//70 131//70 220//70
f 220//71 131//71 130//71
f 220//71 130//71 221//71
f 221//72 130//72 129//72
f 221//72 129//72 222//72
f 222//73 129//73 128//73
f 222//73 128//73 223//73
f 223//74 128//74 127//74
f 223//74 127//74 224//74
f 224//75 127//75 126//75
f 224//75 126//75 225//75
f 225//76 126//76 125//76
f 225//76 125//76 226//76
f 226//77 125//77 124//77
f 226//77 124//77 227//77
f 227//78 124//78 157//78
f 227//78 157//78 197//78
