# Blender 4.2.3 LTS
# www.blender.org
o link_0__m1
v -0.136000 -0.063570 0.005840
v -0.131500 -0.063570 0.005840
v -0.136000 -0.057875 0.032393
v -0.131500 -0.057875 0.032393
v -0.136000 -0.053095 0.059127
v -0.131500 -0.053095 0.059127
v -0.136000 -0.049236 0.086008
v -0.131500 -0.049236 0.086008
v -0.136000 -0.046303 0.113007
v -0.131500 -0.046303 0.113007
v -0.136000 -0.044299 0.140090
v -0.131500 -0.044299 0.140090
v -0.136000 -0.038417 0.147355
v -0.131500 -0.038417 0.147355
v -0.136000 -0.025780 0.150206
v -0.131500 -0.025780 0.150206
v -0.136000 -0.012941 0.151925
v -0.131500 -0.012941 0.151925
v -0.136000 0.000000 0.152500
v -0.131500 0.000000 0.152500
v -0.136000 0.012941 0.151925
v -0.131500 0.012941 0.151925
v -0.136000 0.025780 0.150206
v -0.131500 0.025780 0.150206
v -0.136000 0.038417 0.147355
v -0.131500 0.038417 0.147355
v -0.136000 0.044299 0.140090
v -0.131500 0.044299 0.140090
v -0.136000 0.046303 0.113007
v -0.131500 0.046303 0.113007
v -0.136000 0.049236 0.086008
v -0.131500 0.049236 0.086008
v -0.136000 0.053095 0.059127
v -0.131500 0.053095 0.059127
v -0.136000 0.057875 0.032393
v -0.131500 0.057875 0.032393
v -0.136000 0.063570 0.005840
v -0.131500 0.063570 0.005840
v -0.131500 0.062109 0.004000
v -0.131500 -0.062109 0.004000
v -0.136000 0.062109 0.004000
v -0.136000 -0.062109 0.004000
v -0.136000 0.062761 0.004149
v -0.136000 0.063284 0.004567
v -0.136000 0.063572 0.005171
v -0.136000 -0.062761 0.004149
v -0.136000 -0.040684 0.146336
v -0.136000 -0.042529 0.144671
v -0.136000 -0.043774 0.142520
v -0.136000 -0.063284 0.004567
v -0.136000 -0.063572 0.005171
v -0.136000 0.040684 0.146336
v -0.136000 0.042529 0.144671
v -0.136000 0.043774 0.142520
v -0.131500 -0.043774 0.142520
v -0.131500 -0.042529 0.144671
v -0.131500 -0.040684 0.146336
v -0.131500 0.040684 0.146336
v -0.131500 0.042529 0.144671
v -0.131500 0.043774 0.142520
v -0.131500 -0.062761 0.004149
v -0.131500 -0.063284 0.004567
v -0.131500 -0.063572 0.005171
v -0.131500 0.063572 0.005171
v -0.131500 0.063284 0.004567
v -0.131500 0.062761 0.004149
vn -0.0000 -0.9778 0.2097
vn -0.0000 -0.9844 0.1760
vn -0.0000 -0.9899 0.1421
vn -0.0000 -0.9942 0.1080
vn -0.0000 -0.9973 0.0738
vn -0.0000 -0.2201 0.9755
vn -0.0000 -0.1327 0.9912
vn -0.0000 -0.0444 0.9990
vn -0.0000 0.0444 0.9990
vn -0.0000 0.1327 0.9912
vn -0.0000 0.2201 0.9755
vn -0.0000 0.9973 0.0738
vn -0.0000 0.9942 0.1080
vn -0.0000 0.9899 0.1421
vn -0.0000 0.9844 0.1760
vn -0.0000 0.9778 0.2097
vn -0.0000 -0.0000 -1.0000
vn -1.0000 -0.0000 -0.0000
vn -1.0000 0.0001 -0.0000
vn -1.0000 -0.0001 -0.0000
vn -0.0000 -0.9774 0.2112
vn -0.0000 -0.8655 0.5009
vn -0.0000 -0.6700 0.7424
vn -0.0000 -0.4100 0.9121
vn -0.0000 0.4100 0.9121
vn -0.0000 0.6700 0.7424
vn -0.0000 0.8655 0.5009
vn -0.0000 0.9774 0.2112
vn -0.0000 -0.2228 -0.9749
vn -0.0000 -0.6243 -0.7812
vn -0.0000 -0.9026 -0.4304
vn -0.0000 -1.0000 0.0030
vn -0.0000 1.0000 0.0030
vn -0.0000 0.9026 -0.4304
vn -0.0000 0.6243 -0.7812
vn -0.0000 0.2228 -0.9749
s 0
f 1//1 2//1 3//1
f 3//1 2//1 4//1
f 3//2 4//2 5//2
f 5//2 4//2 6//2
f 5//3 6//3 7//3
f 7//3 6//3 8//3
f 7//4 8//4 9//4
f 9//4 8//4 10//4
f 9//5 10//5 11//5
f 11//5 10//5 12//5
f 13//6 14//6 15//6
f 15//6 14//6 16//6
f 15//7 16//7 17//7
f 17//7 16//7 18//7
f 17//8 18//8 19//8
f 19//8 18//8 20//8
f 19//9 20//9 21//9
f 21//9 20//9 22//9
f 21//10 22//10 23//10
f 23//10 22//10 24//10
f 23//11 24//11 25//11
f 25//11 24//11 26//11
f 27//12 28//12 29//12
f 29//12 28//12 30//12
f 29//13 30//13 31//13
f 31//13 30//13 32//13
f 31//14 32//14 33//14
f 33//14 32//14 34//14
f 33//15 34//15 35//15
f 35//15 34//15 36//15
f 35//16 36//16 37//16
f 37//16 36//16 38//16
f 39//17 40//17 41//17
f 41//17 40//17 42//17
f 42//18 35//18 41//18
f 41//18 35//18 37//18
f 41//18 37//18 43//18
f 43//18 37//18 44//18
f 44//19 37//19 45//19
f 46//18 1//18 42//18
f 42//18 1//18 3//18
f 42//18 3//18 35//18
f 35//18 3//18 33//18
f 33//18 3//18 5//18
f 33//18 5//18 31//18
f 31//18 5//18 7//18
f 31//18 7//18 29//18
f 29//18 7//18 9//18
f 29//18 9//18 19//18
f 19//18 9//18 17//18
f 17//18 9//18 15//18
f 15//18 9//18 11//18
f 15//18 11//18 13//18
f 13//18 11//18 47//18
f 47//18 11//18 48//18
f 48//18 11//18 49//18
f 46//18 50//18 1//18
f 1//20 50//20 51//20
f 19//18 21//18 29//18
f 29//18 21//18 23//18
f 29//18 23//18 27//18
f 27//18 23//18 25//18
f 27//18 25//18 52//18
f 52//18 53//18 27//18
f 27//18 53//18 54//18
f 11//21 12//21 49//21
f 49//21 12//21 55//21
f 49//22 55//22 48//22
f 48//22 55//22 56//22
f 48//23 56//23 47//23
f 47//23 56//23 57//23
f 47//24 57//24 13//24
f 13//24 57//24 14//24
f 25//25 26//25 52//25
f 52//25 26//25 58//25
f 52//26 58//26 53//26
f 53//26 58//26 59//26
f 53//27 59//27 54//27
f 54//27 59//27 60//27
f 54//28 60//28 27//28
f 27//28 60//28 28//28
f 42//29 40//29 46//29
f 46//29 40//29 61//29
f 46//30 61//30 50//30
f 50//30 61//30 62//30
f 50//31 62//31 51//31
f 51//31 62//31 63//31
f 51//32 63//32 1//32
f 1//32 63//32 2//32
f 37//33 38//33 45//33
f 45//33 38//33 64//33
f 45//34 64//34 44//34
f 44//34 64//34 65//34
f 44//35 65//35 43//35
f 43//35 65//35 66//35
f 43//36 66//36 41//36
f 41//36 66//36 39//36
