# Blender 4.2.3 LTS
# www.blender.org
o link_6__m2
v -0.039639 0.032792 1.261000
v -0.035216 0.037502 1.261000
v -0.030238 0.041620 1.261000
v -0.024784 0.045081 1.261000
v -0.018938 0.047832 1.261000
v -0.012794 0.049828 1.261000
v -0.006448 0.051039 1.261000
v 0.000000 0.051445 1.261000
v 0.006448 0.051039 1.261000
v 0.012794 0.049828 1.261000
v 0.018938 0.047832 1.261000
v 0.024784 0.045081 1.261000
v 0.030238 0.041620 1.261000
v 0.035216 0.037502 1.261000
v 0.039639 0.032792 1.261000
v 0.043436 0.027565 1.261000
v 0.046549 0.021904 1.261000
v 0.048927 0.015897 1.261000
v 0.050533 0.009640 1.261000
v 0.051343 0.003230 1.261000
v 0.051343 -0.003230 1.261000
v 0.050533 -0.009640 1.261000
v 0.048927 -0.015897 1.261000
v 0.046549 -0.021904 1.261000
v 0.043436 -0.027565 1.261000
v 0.039639 -0.032792 1.261000
v 0.035216 -0.037502 1.261000
v 0.030238 -0.041620 1.261000
v 0.024784 -0.045081 1.261000
v 0.018938 -0.047832 1.261000
v 0.012794 -0.049828 1.261000
v 0.006448 -0.051039 1.261000
v 0.000000 -0.051445 1.261000
v -0.006448 -0.051039 1.261000
v -0.012794 -0.049828 1.261000
v -0.018938 -0.047832 1.261000
v -0.024784 -0.045081 1.261000
v -0.030238 -0.041620 1.261000
v -0.035216 -0.037502 1.261000
v -0.039639 -0.032792 1.261000
v -0.043436 -0.027565 1.261000
v -0.046549 -0.021904 1.261000
v -0.048927 -0.015897 1.261000
v -0.050533 -0.009640 1.261000
v -0.051343 -0.003230 1.261000
v -0.051343 0.003230 1.261000
v -0.050533 0.009640 1.261000
v -0.048927 0.015897 1.261000
v -0.046549 0.021904 1.261000
v -0.043436 0.027565 1.261000
v -0.006331 0.048085 1.271000
v -0.006331 -0.048085 1.271000
v 0.000000 0.048500 1.271000
v 0.000000 -0.048500 1.271000
v 0.006331 0.048085 1.271000
v 0.006331 -0.048085 1.271000
v 0.012553 0.046847 1.271000
v 0.012553 -0.046847 1.271000
v 0.018560 0.044808 1.271000
v 0.018560 -0.044808 1.271000
v 0.024250 0.042002 1.271000
v 0.024250 -0.042002 1.271000
v 0.029525 0.038478 1.271000
v 0.029525 -0.038478 1.271000
v 0.034295 0.034295 1.271000
v 0.034295 -0.034295 1.271000
v 0.038478 0.029525 1.271000
v 0.038478 -0.029525 1.271000
v 0.042002 0.024250 1.271000
v 0.042002 -0.024250 1.271000
v 0.044808 0.018560 1.271000
v 0.044808 -0.018560 1.271000
v 0.046847 0.012553 1.271000
v 0.046847 -0.012553 1.271000
v 0.048085 0.006331 1.271000
v 0.048085 -0.006331 1.271000
v 0.048500 0.000000 1.271000
v -0.012553 -0.046847 1.271000
v -0.012553 0.046847 1.271000
v -0.018560 -0.044808 1.271000
v -0.018560 0.044808 1.271000
v -0.024250 -0.042002 1.271000
v -0.024250 0.042002 1.271000
v -0.029525 -0.038478 1.271000
v -0.029525 0.038478 1.271000
v -0.034295 -0.034295 1.271000
v -0.034295 0.034295 1.271000
v -0.038478 -0.029525 1.271000
v -0.038478 0.029525 1.271000
v -0.042002 -0.024250 1.271000
v -0.042002 0.024250 1.271000
v -0.044808 -0.018560 1.271000
v -0.044808 0.018560 1.271000
v -0.046847 -0.012553 1.271000
v -0.046847 0.012553 1.271000
v -0.048085 -0.006331 1.271000
v -0.048085 0.006331 1.271000
v -0.048500 0.000000 1.271000
v -0.006331 0.048085 1.267500
v 0.000000 0.048500 1.267500
v 0.006331 0.048085 1.267500
v 0.012553 0.046847 1.267500
v 0.018560 0.044808 1.267500
v 0.024250 0.042002 1.267500
v 0.029525 0.038478 1.267500
v 0.034295 0.034295 1.267500
v 0.038478 0.029525 1.267500
v 0.042002 0.024250 1.267500
v 0.044808 0.018560 1.267500
v 0.046847 0.012553 1.267500
v 0.048085 0.006331 1.267500
v 0.048500 0.000000 1.267500
v 0.048085 -0.006331 1.267500
v 0.046847 -0.012553 1.267500
v 0.044808 -0.018560 1.267500
v 0.042002 -0.024250 1.267500
v 0.038478 -0.029525 1.267500
v 0.034295 -0.034295 1.267500
v 0.029525 -0.038478 1.267500
v 0.024250 -0.042002 1.267500
v 0.018560 -0.044808 1.267500
v 0.012553 -0.046847 1.267500
v 0.006331 -0.048085 1.267500
v 0.000000 -0.048500 1.267500
v -0.006331 -0.048085 1.267500
v -0.012553 -0.046847 1.267500
v -0.018560 -0.044808 1.267500
v -0.024250 -0.042002 1.267500
v -0.029525 -0.038478 1.267500
v -0.034295 -0.034295 1.267500
v -0.038478 -0.029525 1.267500
v -0.042002 -0.024250 1.267500
v -0.044808 -0.018560 1.267500
v -0.046847 -0.012553 1.267500
v -0.048085 -0.006331 1.267500
v -0.048500 0.000000 1.267500
v -0.048085 0.006331 1.267500
v -0.046847 0.012553 1.267500
v -0.044808 0.018560 1.267500
v -0.042002 0.024250 1.267500
v -0.038478 0.029525 1.267500
v -0.034295 0.034295 1.267500
v -0.029525 0.038478 1.267500
v -0.024250 0.042002 1.267500
v -0.018560 0.044808 1.267500
v -0.012553 0.046847 1.267500
v 0.006432 0.050912 1.267500
v 0.000000 0.051317 1.267500
v -0.006432 0.050912 1.267500
v -0.012762 0.049705 1.267500
v -0.018891 0.047713 1.267500
v -0.024722 0.044969 1.267500
v -0.030163 0.041516 1.267500
v -0.035129 0.037408 1.267500
v -0.039540 0.032711 1.267500
v -0.043328 0.027497 1.267500
v -0.046433 0.021850 1.267500
v -0.048805 0.015858 1.267500
v -0.050408 0.009616 1.267500
v -0.051216 0.003222 1.267500
v -0.051216 -0.003222 1.267500
v -0.050408 -0.009616 1.267500
v -0.048805 -0.015858 1.267500
v -0.046433 -0.021850 1.267500
v -0.043328 -0.027497 1.267500
v -0.039540 -0.032711 1.267500
v -0.035129 -0.037408 1.267500
v -0.030163 -0.041516 1.267500
v -0.024722 -0.044969 1.267500
v -0.018891 -0.047713 1.267500
v -0.012762 -0.049705 1.267500
v -0.006432 -0.050912 1.267500
v 0.000000 -0.051317 1.267500
v 0.006432 -0.050912 1.267500
v 0.012762 -0.049705 1.267500
v 0.018891 -0.047713 1.267500
v 0.024722 -0.044969 1.267500
v 0.030163 -0.041516 1.267500
v 0.035129 -0.037408 1.267500
v 0.039540 -0.032711 1.267500
v 0.043328 -0.027497 1.267500
v 0.046433 -0.021850 1.267500
v 0.048805 -0.015858 1.267500
v 0.050408 -0.009616 1.267500
v 0.051216 -0.003222 1.267500
v 0.051216 0.003222 1.267500
v 0.050408 0.009616 1.267500
v 0.048805 0.015858 1.267500
v 0.046433 0.021850 1.267500
v 0.043328 0.027497 1.267500
v 0.039540 0.032711 1.267500
v 0.035129 0.037408 1.267500
v 0.030163 0.041516 1.267500
v 0.024722 0.044969 1.267500
v 0.018891 0.047713 1.267500
v 0.012762 0.049705 1.267500
v -0.006510 0.051532 1.261552
v 0.000000 0.051942 1.261552
v 0.006510 0.051532 1.261552
v 0.012917 0.050310 1.261552
v 0.019121 0.048294 1.261552
v 0.025023 0.045517 1.261552
v 0.030531 0.042022 1.261552
v 0.035557 0.037864 1.261552
v 0.040022 0.033109 1.261552
v 0.043856 0.027832 1.261552
v 0.046998 0.022116 1.261552
v 0.049400 0.016051 1.261552
v 0.051022 0.009733 1.261552
v 0.051839 0.003261 1.261552
v 0.051839 -0.003261 1.261552
v 0.051022 -0.009733 1.261552
v 0.049400 -0.016051 1.261552
v 0.046998 -0.022116 1.261552
v 0.043856 -0.027832 1.261552
v 0.040022 -0.033109 1.261552
v 0.035557 -0.037864 1.261552
v 0.030531 -0.042022 1.261552
v 0.025023 -0.045517 1.261552
v 0.019121 -0.048294 1.261552
v 0.012917 -0.050310 1.261552
v 0.006510 -0.051532 1.261552
v 0.000000 -0.051942 1.261552
v -0.006510 -0.051532 1.261552
v -0.012917 -0.050310 1.261552
v -0.019121 -0.048294 1.261552
v -0.025023 -0.045517 1.261552
v -0.030531 -0.042022 1.261552
v -0.035557 -0.037864 1.261552
v -0.040022 -0.033109 1.261552
v -0.043856 -0.027832 1.261552
v -0.046998 -0.022116 1.261552
v -0.049400 -0.016051 1.261552
v -0.051022 -0.009733 1.261552
v -0.051839 -0.003261 1.261552
v -0.051839 0.003261 1.261552
v -0.051022 0.009733 1.261552
v -0.049400 0.016051 1.261552
v -0.046998 0.022116 1.261552
v -0.043856 0.027832 1.261552
v -0.040022 0.033109 1.261552
v -0.035557 0.037864 1.261552
v -0.030531 0.042022 1.261552
v -0.025023 0.045517 1.261552
v -0.019121 0.048294 1.261552
v -0.012917 0.050310 1.261552
v -0.002222 0.051600 1.261043
v 0.002222 0.051600 1.261043
v 0.006650 0.051218 1.261043
v 0.011028 0.050457 1.261043
v 0.006671 0.051385 1.261165
v 0.011064 0.050621 1.261165
v 0.006685 0.051488 1.261345
v 0.011086 0.050723 1.261345
v -0.011028 0.050457 1.261043
v -0.006650 0.051218 1.261043
v -0.006671 0.051385 1.261165
v -0.002229 0.051768 1.261165
v -0.006685 0.051488 1.261345
v -0.002234 0.051872 1.261345
v -0.015325 0.049322 1.261043
v -0.019508 0.047822 1.261043
v -0.023547 0.045968 1.261043
v -0.023623 0.046118 1.261165
v -0.027500 0.043916 1.261165
v -0.027556 0.044005 1.261345
v -0.031236 0.041473 1.261345
v -0.034686 0.038634 1.261345
v -0.037879 0.035509 1.261345
v -0.040791 0.032122 1.261345
v -0.043401 0.028496 1.261345
v -0.045690 0.024660 1.261345
v -0.043315 0.028439 1.261165
v -0.045599 0.024610 1.261165
v -0.043174 0.028347 1.261043
v -0.045451 0.024530 1.261043
v -0.027411 0.043774 1.261043
v -0.031174 0.041390 1.261165
v -0.031073 0.041255 1.261043
v -0.034617 0.038557 1.261165
v -0.034504 0.038432 1.261043
v -0.037680 0.035323 1.261043
v -0.040577 0.031953 1.261043
v -0.047391 0.020532 1.261043
v -0.048981 0.016382 1.261043
v -0.050208 0.012111 1.261043
v -0.050372 0.012150 1.261165
v -0.051230 0.007775 1.261165
v -0.051332 0.007791 1.261345
v -0.051812 0.003349 1.261345
v -0.051908 -0.001117 1.261345
v -0.051620 -0.005575 1.261345
v -0.050950 -0.009992 1.261345
v -0.049902 -0.014335 1.261345
v -0.050848 -0.009972 1.261165
v -0.049802 -0.014306 1.261165
v -0.050683 -0.009940 1.261043
v -0.049640 -0.014260 1.261043
v -0.051063 0.007750 1.261043
v -0.051708 0.003343 1.261165
v -0.051540 0.003332 1.261043
v -0.051804 -0.001115 1.261165
v -0.051636 -0.001111 1.261043
v -0.051349 -0.005546 1.261043
v -0.048231 -0.018474 1.261043
v -0.046464 -0.022552 1.261043
v -0.044353 -0.026463 1.261043
v -0.044498 -0.026549 1.261165
v -0.042051 -0.030276 1.261165
v -0.042135 -0.030337 1.261345
v -0.039371 -0.033847 1.261345
v -0.036316 -0.037106 1.261345
v -0.032992 -0.040091 1.261345
v -0.029423 -0.042778 1.261345
v -0.025637 -0.045149 1.261345
v -0.021661 -0.047186 1.261345
v -0.025586 -0.045059 1.261165
v -0.021617 -0.047092 1.261165
v -0.025503 -0.044913 1.261043
v -0.021547 -0.046939 1.261043
v -0.041914 -0.030178 1.261043
v -0.039293 -0.033779 1.261165
v -0.039165 -0.033669 1.261043
v -0.036243 -0.037032 1.261165
v -0.036126 -0.036911 1.261043
v -0.032819 -0.039880 1.261043
v -0.029269 -0.042554 1.261043
v -0.017432 -0.048617 1.261043
v -0.013189 -0.049936 1.261043
v -0.008847 -0.050885 1.261043
v -0.008876 -0.051050 1.261165
v -0.004454 -0.051624 1.261165
v -0.004463 -0.051728 1.261345
v 0.000000 -0.051920 1.261345
v 0.004463 -0.051728 1.261345
v 0.008894 -0.051153 1.261345
v 0.013258 -0.050199 1.261345
v 0.017524 -0.048873 1.261345
v 0.013231 -0.050098 1.261165
v 0.017489 -0.048776 1.261165
v 0.013189 -0.049936 1.261043
v 0.017432 -0.048617 1.261043
v -0.004440 -0.051457 1.261043
v 0.000000 -0.051816 1.261165
v 0.000000 -0.051648 1.261043
v 0.004454 -0.051624 1.261165
v 0.004440 -0.051457 1.261043
v 0.008847 -0.050885 1.261043
v 0.021547 -0.046939 1.261043
v 0.025503 -0.044913 1.261043
v 0.029269 -0.042554 1.261043
v 0.029364 -0.042693 1.261165
v 0.032926 -0.040010 1.261165
v 0.032992 -0.040091 1.261345
v 0.036316 -0.037106 1.261345
v 0.039371 -0.033847 1.261345
v 0.042135 -0.030337 1.261345
v 0.039293 -0.033779 1.261165
v 0.042051 -0.030276 1.261165
v 0.039165 -0.033669 1.261043
v 0.041914 -0.030178 1.261043
v 0.032819 -0.039880 1.261043
v 0.036243 -0.037032 1.261165
v 0.036126 -0.036911 1.261043
v 0.044353 -0.026463 1.261043
v 0.046464 -0.022552 1.261043
v 0.048231 -0.018474 1.261043
v 0.048388 -0.018535 1.261165
v 0.049802 -0.014306 1.261165
v 0.049902 -0.014335 1.261345
v 0.050950 -0.009992 1.261345
v 0.051620 -0.005575 1.261345
v 0.051908 -0.001117 1.261345
v 0.051812 0.003349 1.261345
v 0.051332 0.007791 1.261345
v 0.051708 0.003343 1.261165
v 0.051230 0.007775 1.261165
v 0.051540 0.003332 1.261043
v 0.051063 0.007750 1.261043
v 0.049640 -0.014260 1.261043
v 0.050848 -0.009972 1.261165
v 0.050683 -0.009940 1.261043
v 0.051517 -0.005564 1.261165
v 0.051349 -0.005546 1.261043
v 0.051636 -0.001111 1.261043
v 0.050208 0.012111 1.261043
v 0.048981 0.016382 1.261043
v 0.047391 0.020532 1.261043
v 0.047546 0.020599 1.261165
v 0.045599 0.024610 1.261165
v 0.045690 0.024660 1.261345
v 0.043401 0.028496 1.261345
v 0.040791 0.032122 1.261345
v 0.037879 0.035509 1.261345
v 0.034686 0.038634 1.261345
v 0.031236 0.041473 1.261345
v 0.027556 0.044005 1.261345
v 0.031174 0.041390 1.261165
v 0.027500 0.043916 1.261165
v 0.031073 0.041255 1.261043
v 0.027411 0.043774 1.261043
v 0.045451 0.024530 1.261043
v 0.043315 0.028439 1.261165
v 0.043174 0.028347 1.261043
v 0.040709 0.032057 1.261165
v 0.040577 0.031953 1.261043
v 0.037680 0.035323 1.261043
v 0.034504 0.038432 1.261043
v 0.023547 0.045968 1.261043
v 0.019508 0.047822 1.261043
v 0.015325 0.049322 1.261043
v 0.015375 0.049483 1.261165
v 0.002234 0.051872 1.261345
v 0.015405 0.049582 1.261345
v 0.019611 0.048074 1.261345
v 0.023671 0.046210 1.261345
v 0.023623 0.046118 1.261165
v 0.047641 0.020641 1.261345
v 0.049141 0.016436 1.261165
v 0.049239 0.016469 1.261345
v 0.050372 0.012150 1.261165
v 0.050473 0.012175 1.261345
v 0.048485 -0.018572 1.261345
v 0.046616 -0.022626 1.261165
v 0.046709 -0.022671 1.261345
v 0.044498 -0.026549 1.261165
v 0.044587 -0.026602 1.261345
v 0.029423 -0.042778 1.261345
v 0.025586 -0.045059 1.261165
v 0.025637 -0.045149 1.261345
v 0.021617 -0.047092 1.261165
v 0.021661 -0.047186 1.261345
v -0.008894 -0.051153 1.261345
v -0.013231 -0.050098 1.261165
v -0.013258 -0.050199 1.261345
v -0.017489 -0.048776 1.261165
v -0.017524 -0.048873 1.261345
v -0.044587 -0.026602 1.261345
v -0.046616 -0.022626 1.261165
v -0.046709 -0.022671 1.261345
v -0.048388 -0.018535 1.261165
v -0.048485 -0.018572 1.261345
v -0.050473 0.012175 1.261345
v -0.049141 0.016436 1.261165
v -0.049239 0.016469 1.261345
v -0.047546 0.020599 1.261165
v -0.047641 0.020641 1.261345
v -0.023671 0.046210 1.261345
v -0.019571 0.047978 1.261165
v -0.019611 0.048074 1.261345
v -0.015375 0.049483 1.261165
v -0.015405 0.049582 1.261345
v -0.011086 0.050723 1.261345
v 0.002229 0.051768 1.261165
v -0.011064 0.050621 1.261165
v -0.037803 0.035438 1.261165
v -0.040709 0.032057 1.261165
v -0.051517 -0.005564 1.261165
v -0.032926 -0.040010 1.261165
v -0.029364 -0.042693 1.261165
v 0.008876 -0.051050 1.261165
v 0.051804 -0.001115 1.261165
v 0.037803 0.035438 1.261165
v 0.034617 0.038557 1.261165
v 0.019571 0.047978 1.261165
vn -0.0000 -0.0000 1.0000
vn -0.0001 -0.0000 1.0000
vn 0.0001 -0.0000 1.0000
vn -0.0002 -0.0000 1.0000
vn 0.0002 -0.0000 1.0000
vn -0.0654 0.9979 -0.0000
vn 0.0654 0.9979 -0.0000
vn 0.1951 0.9808 -0.0000
vn 0.3214 0.9469 -0.0000
vn 0.4423 0.8969 -0.0000
vn 0.5555 0.8315 -0.0000
vn 0.6594 0.7518 -0.0000
vn 0.6593 0.7519 -0.0000
vn 0.7519 0.6593 -0.0000
vn 0.8315 0.5555 -0.0000
vn 0.8969 0.4423 -0.0000
vn 0.9469 0.3214 -0.0000
vn 0.9808 0.1952 -0.0000
vn 0.9979 0.0654 -0.0000
vn 0.9979 -0.0654 -0.0000
vn 0.9808 -0.1952 -0.0000
vn 0.9469 -0.3214 -0.0000
vn 0.8969 -0.4423 -0.0000
vn 0.8315 -0.5555 -0.0000
vn 0.7519 -0.6593 -0.0000
vn 0.6594 -0.7518 -0.0000
vn 0.6593 -0.7519 -0.0000
vn 0.5555 -0.8315 -0.0000
vn 0.4423 -0.8969 -0.0000
vn 0.3214 -0.9469 -0.0000
vn 0.1951 -0.9808 -0.0000
vn 0.0654 -0.9979 -0.0000
vn -0.0654 -0.9979 -0.0000
vn -0.1951 -0.9808 -0.0000
vn -0.3214 -0.9469 -0.0000
vn -0.4423 -0.8969 -0.0000
vn -0.5555 -0.8315 -0.0000
vn -0.6594 -0.7518 -0.0000
vn -0.6593 -0.7519 -0.0000
vn -0.7519 -0.6593 -0.0000
vn -0.8315 -0.5555 -0.0000
vn -0.8969 -0.4423 -0.0000
vn -0.9469 -0.3214 -0.0000
vn -0.9808 -0.1952 -0.0000
vn -0.9979 -0.0654 -0.0000
vn -0.9979 0.0654 -0.0000
vn -0.9808 0.1952 -0.0000
vn -0.9469 0.3214 -0.0000
vn -0.8969 0.4423 -0.0000
vn -0.8315 0.5555 -0.0000
vn -0.7519 0.6593 -0.0000
vn -0.6594 0.7518 -0.0000
vn -0.6593 0.7519 -0.0000
vn -0.5555 0.8315 -0.0000
vn -0.4423 0.8969 -0.0000
vn -0.3214 0.9469 -0.0000
vn -0.1951 0.9808 -0.0000
vn -0.0625 0.9926 0.1043
vn 0.0625 0.9926 0.1043
vn 0.1863 0.9769 0.1043
vn 0.1863 0.9770 0.1042
vn 0.3074 0.9459 0.1042
vn 0.3074 0.9458 0.1043
vn 0.4234 0.8999 0.1043
vn 0.4235 0.8999 0.1043
vn 0.5329 0.8398 0.1043
vn 0.5329 0.8397 0.1044
vn 0.6340 0.7663 0.1044
vn 0.6339 0.7663 0.1044
vn 0.7250 0.6808 0.1044
vn 0.7250 0.6808 0.1043
vn 0.8046 0.5846 0.1043
vn 0.8046 0.5845 0.1043
vn 0.8715 0.4791 0.1043
vn 0.8715 0.4792 0.1042
vn 0.9247 0.3662 0.1042
vn 0.9247 0.3661 0.1044
vn 0.9633 0.2473 0.1044
vn 0.9633 0.2474 0.1043
vn 0.9867 0.1246 0.1043
vn 0.9867 0.1247 0.1042
vn 0.9946 -0.0000 0.1042
vn 0.9867 -0.1246 0.1042
vn 0.9867 -0.1247 0.1043
vn 0.9633 -0.2473 0.1043
vn 0.9633 -0.2474 0.1044
vn 0.9247 -0.3662 0.1044
vn 0.9247 -0.3661 0.1042
vn 0.8716 -0.4791 0.1042
vn 0.8715 -0.4792 0.1044
vn 0.8046 -0.5846 0.1043
vn 0.8046 -0.5845 0.1043
vn 0.7250 -0.6808 0.1043
vn 0.7250 -0.6808 0.1044
vn 0.6340 -0.7663 0.1044
vn 0.6339 -0.7663 0.1044
vn 0.5329 -0.8397 0.1044
vn 0.5329 -0.8397 0.1043
vn 0.4234 -0.8999 0.1043
vn 0.4235 -0.8999 0.1043
vn 0.3074 -0.9459 0.1043
vn 0.3074 -0.9459 0.1042
vn 0.1863 -0.9769 0.1042
vn 0.1863 -0.9769 0.1043
vn 0.0625 -0.9926 0.1043
vn -0.0625 -0.9926 0.1043
vn -0.1863 -0.9769 0.1043
vn -0.1863 -0.9770 0.1042
vn -0.3074 -0.9459 0.1042
vn -0.3074 -0.9458 0.1043
vn -0.4234 -0.8999 0.1043
vn -0.4235 -0.8999 0.1043
vn -0.5329 -0.8398 0.1043
vn -0.5329 -0.8397 0.1044
vn -0.6340 -0.7663 0.1044
vn -0.6339 -0.7663 0.1044
vn -0.7250 -0.6808 0.1044
vn -0.7250 -0.6808 0.1043
vn -0.8046 -0.5846 0.1043
vn -0.8046 -0.5845 0.1043
vn -0.8715 -0.4791 0.1043
vn -0.8715 -0.4792 0.1042
vn -0.9247 -0.3662 0.1042
vn -0.9247 -0.3661 0.1044
vn -0.9633 -0.2473 0.1044
vn -0.9633 -0.2474 0.1043
vn -0.9867 -0.1246 0.1043
vn -0.9867 -0.1247 0.1042
vn -0.9946 -0.0000 0.1042
vn -0.9867 0.1246 0.1042
vn -0.9867 0.1247 0.1043
vn -0.9633 0.2473 0.1043
vn -0.9633 0.2474 0.1044
vn -0.9247 0.3662 0.1044
vn -0.9247 0.3661 0.1042
vn -0.8716 0.4791 0.1042
vn -0.8715 0.4792 0.1044
vn -0.8046 0.5846 0.1043
vn -0.8046 0.5845 0.1043
vn -0.7250 0.6808 0.1043
vn -0.7250 0.6808 0.1044
vn -0.6340 0.7663 0.1044
vn -0.6339 0.7663 0.1044
vn -0.5329 0.8397 0.1044
vn -0.5329 0.8397 0.1043
vn -0.4234 0.8999 0.1043
vn -0.4235 0.8999 0.1043
vn -0.3074 0.9459 0.1043
vn -0.3074 0.9459 0.1042
vn -0.1863 0.9769 0.1042
vn -0.1863 0.9769 0.1043
vn -0.0091 0.1440 -0.9895
vn -0.0000 0.2668 -0.9637
vn 0.0091 0.1440 -0.9895
vn 0.0183 0.2134 -0.9768
vn 0.0342 0.1964 -0.9799
vn 0.1006 0.5788 -0.8092
vn 0.1008 0.5797 -0.8086
vn 0.1485 0.8533 -0.4998
vn 0.1481 0.8526 -0.5012
vn 0.1708 0.9832 -0.0645
vn 0.1793 0.9402 0.2897
vn -0.0277 0.1454 -0.9890
vn -0.0342 0.1964 -0.9799
vn -0.0183 0.2134 -0.9768
vn -0.0505 0.5852 -0.8093
vn -0.0505 0.5857 -0.8090
vn -0.0744 0.8631 -0.4996
vn -0.0744 0.8626 -0.5004
vn -0.0851 0.9868 -0.1378
vn -0.0595 0.9446 0.3227
vn -0.0672 0.2547 -0.9647
vn -0.0434 0.1343 -0.9900
vn -0.0772 0.2149 -0.9736
vn -0.0770 0.1676 -0.9828
vn -0.2450 0.5342 -0.8091
vn -0.2898 0.5113 -0.8091
vn -0.4266 0.7510 -0.5040
vn -0.4896 0.7115 -0.5040
vn -0.5495 0.7983 -0.2466
vn -0.6313 0.7669 0.1155
vn -0.6266 0.7580 0.1810
vn -0.6725 0.6875 -0.2739
vn -0.6792 0.6378 0.3631
vn -0.7281 0.6257 -0.2798
vn -0.7927 0.5762 0.1989
vn -0.8084 0.5817 0.0896
vn -0.8345 0.4976 -0.2368
vn -0.7452 0.4447 -0.4969
vn -0.7440 0.4438 -0.4995
vn -0.5046 0.3008 -0.8092
vn -0.5044 0.3011 -0.8093
vn -0.2043 0.1216 -0.9713
vn -0.1229 0.0675 -0.9901
vn -0.0656 0.1391 -0.9881
vn -0.1271 0.2246 -0.9661
vn -0.2913 0.5123 -0.8079
vn -0.3337 0.4855 -0.8081
vn -0.4910 0.7144 -0.4986
vn -0.5511 0.6693 -0.4983
vn -0.0751 0.1180 -0.9902
vn -0.1367 0.1989 -0.9704
vn -0.3326 0.4834 -0.8098
vn -0.3730 0.4531 -0.8096
vn -0.5511 0.6698 -0.4977
vn -0.6067 0.6199 -0.4977
vn -0.1088 0.1313 -0.9854
vn -0.1029 0.1242 -0.9869
vn -0.1737 0.1784 -0.9685
vn -0.1012 0.0955 -0.9903
vn -0.1915 0.1647 -0.9676
vn -0.1290 0.0937 -0.9872
vn -0.1408 0.1011 -0.9849
vn -0.2354 0.1140 -0.9652
vn -0.1415 0.0562 -0.9883
vn -0.1758 0.0673 -0.9821
vn -0.2165 0.0621 -0.9743
vn -0.5642 0.1620 -0.8096
vn -0.5755 0.1130 -0.8099
vn -0.8514 0.1669 -0.4972
vn -0.8625 0.0933 -0.4974
vn -0.9907 0.1070 -0.0837
vn -0.9925 0.0213 -0.1205
vn -0.9487 -0.0000 0.3162
vn -0.9461 -0.0612 -0.3180
vn -0.9363 -0.1182 0.3308
vn -0.9769 -0.1481 -0.1543
vn -0.9711 -0.2344 -0.0446
vn -0.8419 -0.2033 -0.4999
vn -0.8418 -0.2031 -0.5002
vn -0.5713 -0.1380 -0.8091
vn -0.5713 -0.1377 -0.8091
vn -0.1892 -0.0457 -0.9809
vn -0.1457 -0.0372 -0.9886
vn -0.1377 0.0353 -0.9898
vn -0.2590 0.0509 -0.9645
vn -0.5755 0.1128 -0.8100
vn -0.5822 0.0629 -0.8106
vn -0.8608 0.0928 -0.5004
vn -0.8657 0.0186 -0.5003
vn -0.1461 0.0184 -0.9891
vn -0.2010 0.0218 -0.9793
vn -0.5848 0.0630 -0.8087
vn -0.5870 0.0126 -0.8095
vn -0.8656 0.0187 -0.5004
vn -0.8643 -0.0558 -0.4998
vn -0.2109 0.0046 -0.9775
vn -0.1451 -0.0000 -0.9894
vn -0.2662 -0.0172 -0.9638
vn -0.1425 -0.0180 -0.9896
vn -0.2148 -0.0325 -0.9761
vn -0.2497 -0.0836 -0.9647
vn -0.1312 -0.0519 -0.9900
vn -0.2130 -0.0924 -0.9727
vn -0.1592 -0.0860 -0.9835
vn -0.5161 -0.2788 -0.8099
vn -0.4910 -0.3220 -0.8095
vn -0.7245 -0.4755 -0.4991
vn -0.6805 -0.5362 -0.4994
vn -0.7594 -0.5980 -0.2563
vn -0.7221 -0.6770 0.1424
vn -0.7190 -0.6754 0.1641
vn -0.6444 -0.7174 -0.2648
vn -0.5935 -0.7178 0.3641
vn -0.5758 -0.7649 -0.2889
vn -0.5239 -0.8252 0.2111
vn -0.5293 -0.8457 0.0675
vn -0.4443 -0.8674 -0.2239
vn -0.3955 -0.7718 -0.4979
vn -0.3951 -0.7712 -0.4992
vn -0.2681 -0.5236 -0.8087
vn -0.2678 -0.5230 -0.8091
vn -0.1066 -0.2084 -0.9722
vn -0.0598 -0.1269 -0.9901
vn -0.1368 -0.0750 -0.9878
vn -0.2147 -0.1407 -0.9665
vn -0.4901 -0.3224 -0.8098
vn -0.4613 -0.3633 -0.8095
vn -0.6816 -0.5363 -0.4978
vn -0.6327 -0.5930 -0.4981
vn -0.1130 -0.0821 -0.9902
vn -0.1926 -0.1513 -0.9696
vn -0.4602 -0.3629 -0.8102
vn -0.4275 -0.4012 -0.8101
vn -0.6323 -0.5922 -0.4996
vn -0.5788 -0.6445 -0.4997
vn -0.1213 -0.1140 -0.9861
vn -0.1192 -0.1120 -0.9865
vn -0.1654 -0.1840 -0.9689
vn -0.0886 -0.1076 -0.9902
vn -0.1532 -0.2033 -0.9671
vn -0.0846 -0.1328 -0.9875
vn -0.0933 -0.1496 -0.9843
vn -0.0987 -0.2424 -0.9651
vn -0.0464 -0.1435 -0.9886
vn -0.0568 -0.1825 -0.9816
vn -0.0471 -0.2154 -0.9754
vn -0.1259 -0.5756 -0.8080
vn -0.0757 -0.5844 -0.8079
vn -0.1114 -0.8580 -0.5013
vn -0.0372 -0.8644 -0.5013
vn -0.0427 -0.9935 -0.1056
vn 0.0427 -0.9935 -0.1056
vn 0.0598 -0.9496 0.3078
vn 0.1221 -0.9407 -0.3165
vn 0.1763 -0.9244 0.3382
vn 0.2105 -0.9628 -0.1697
vn 0.2966 -0.9547 -0.0231
vn 0.2568 -0.8259 -0.5019
vn 0.2573 -0.8289 -0.4967
vn 0.1749 -0.5632 -0.8076
vn 0.1741 -0.5597 -0.8102
vn 0.0568 -0.1825 -0.9816
vn 0.0464 -0.1435 -0.9886
vn -0.0266 -0.1398 -0.9898
vn -0.0342 -0.2629 -0.9642
vn -0.0759 -0.5842 -0.8080
vn -0.0254 -0.5886 -0.8081
vn -0.0373 -0.8653 -0.4999
vn 0.0372 -0.8653 -0.4999
vn -0.0091 -0.1456 -0.9893
vn -0.0089 -0.2068 -0.9783
vn -0.0252 -0.5876 -0.8088
vn 0.0253 -0.5876 -0.8087
vn 0.0372 -0.8645 -0.5013
vn 0.1115 -0.8581 -0.5013
vn 0.0089 -0.2068 -0.9783
vn 0.0091 -0.1456 -0.9893
vn 0.0342 -0.2629 -0.9642
vn 0.0267 -0.1398 -0.9898
vn 0.0470 -0.2154 -0.9754
vn 0.0987 -0.2424 -0.9651
vn 0.0598 -0.1269 -0.9901
vn 0.1066 -0.2084 -0.9722
vn 0.0935 -0.1496 -0.9843
vn 0.3121 -0.4976 -0.8093
vn 0.3537 -0.4691 -0.8092
vn 0.5206 -0.6909 -0.5017
vn 0.5784 -0.6435 -0.5014
vn 0.6443 -0.7175 -0.2649
vn 0.7189 -0.6754 0.1642
vn 0.7221 -0.6770 0.1424
vn 0.7594 -0.5980 -0.2563
vn 0.6813 -0.5365 -0.4979
vn 0.6807 -0.5360 -0.4993
vn 0.4606 -0.3628 -0.8101
vn 0.4609 -0.3634 -0.8096
vn 0.1926 -0.1513 -0.9696
vn 0.1130 -0.0821 -0.9902
vn 0.0844 -0.1328 -0.9875
vn 0.1529 -0.2033 -0.9671
vn 0.3534 -0.4691 -0.8094
vn 0.3921 -0.4371 -0.8095
vn 0.5787 -0.6446 -0.4997
vn 0.6320 -0.5923 -0.4998
vn 0.0889 -0.1076 -0.9902
vn 0.1654 -0.1840 -0.9689
vn 0.3926 -0.4370 -0.8093
vn 0.4283 -0.4019 -0.8093
vn 0.6325 -0.5931 -0.4982
vn 0.1192 -0.1120 -0.9865
vn 0.1215 -0.1140 -0.9860
vn 0.4279 -0.4010 -0.8100
vn 0.2150 -0.1407 -0.9664
vn 0.1369 -0.0749 -0.9877
vn 0.1594 -0.0860 -0.9835
vn 0.2133 -0.0924 -0.9726
vn 0.5388 -0.2334 -0.8095
vn 0.5567 -0.1863 -0.8095
vn 0.8210 -0.2747 -0.5006
vn 0.8416 -0.2032 -0.5005
vn 0.9711 -0.2344 -0.0446
vn 0.9769 -0.1481 -0.1543
vn 0.9363 -0.1182 0.3308
vn 0.9461 -0.0612 -0.3180
vn 0.9486 -0.0000 0.3163
vn 0.9925 0.0213 -0.1205
vn 0.9907 0.1071 -0.0837
vn 0.8605 0.0931 -0.5008
vn 0.8628 0.0930 -0.4970
vn 0.5830 0.0630 -0.8101
vn 0.5841 0.0629 -0.8093
vn 0.2010 0.0218 -0.9793
vn 0.1461 0.0184 -0.9891
vn 0.1309 -0.0519 -0.9900
vn 0.2497 -0.0836 -0.9647
vn 0.5570 -0.1862 -0.8093
vn 0.5708 -0.1378 -0.8095
vn 0.8421 -0.2032 -0.4996
vn 0.8562 -0.1300 -0.5000
vn 0.1457 -0.0372 -0.9886
vn 0.1892 -0.0457 -0.9809
vn 0.5718 -0.1380 -0.8087
vn 0.5808 -0.0883 -0.8092
vn 0.8572 -0.1300 -0.4982
vn 0.8652 -0.0559 -0.4983
vn 0.2149 -0.0325 -0.9761
vn 0.1425 -0.0180 -0.9896
vn 0.2662 -0.0172 -0.9638
vn 0.1451 -0.0000 -0.9894
vn 0.2113 0.0045 -0.9774
vn 0.2590 0.0509 -0.9645
vn 0.1372 0.0353 -0.9899
vn 0.2162 0.0621 -0.9744
vn 0.1755 0.0673 -0.9822
vn 0.5477 0.2097 -0.8100
vn 0.5283 0.2558 -0.8096
vn 0.7792 0.3786 -0.4995
vn 0.7438 0.4441 -0.4996
vn 0.8344 0.4977 -0.2369
vn 0.8084 0.5817 0.0896
vn 0.7927 0.5762 0.1989
vn 0.7281 0.6257 -0.2798
vn 0.6792 0.6378 0.3631
vn 0.6725 0.6875 -0.2739
vn 0.6265 0.7581 0.1810
vn 0.6313 0.7669 0.1155
vn 0.5496 0.7982 -0.2466
vn 0.4911 0.7143 -0.4986
vn 0.4895 0.7116 -0.5040
vn 0.3325 0.4835 -0.8097
vn 0.3337 0.4854 -0.8081
vn 0.1367 0.1989 -0.9704
vn 0.0751 0.1180 -0.9902
vn 0.1415 0.0562 -0.9883
vn 0.2354 0.1140 -0.9652
vn 0.5282 0.2566 -0.8094
vn 0.5048 0.3010 -0.8091
vn 0.7454 0.4445 -0.4968
vn 0.7044 0.5069 -0.4969
vn 0.1231 0.0675 -0.9901
vn 0.2043 0.1216 -0.9713
vn 0.5043 0.3009 -0.8094
vn 0.4772 0.3432 -0.8090
vn 0.7015 0.5056 -0.5023
vn 0.6553 0.5640 -0.5025
vn 0.1410 0.1011 -0.9848
vn 0.1290 0.0937 -0.9872
vn 0.1912 0.1647 -0.9676
vn 0.1012 0.0955 -0.9903
vn 0.1740 0.1784 -0.9685
vn 0.1029 0.1242 -0.9869
vn 0.1084 0.1313 -0.9854
vn 0.1271 0.2246 -0.9661
vn 0.0656 0.1391 -0.9881
vn 0.0772 0.1676 -0.9828
vn 0.0772 0.2149 -0.9736
vn 0.1979 0.5524 -0.8097
vn 0.1496 0.5674 -0.8097
vn 0.2208 0.8367 -0.5011
vn 0.0435 0.1343 -0.9900
vn 0.0672 0.2547 -0.9647
vn 0.1503 0.5689 -0.8086
vn 0.0277 0.1454 -0.9890
vn -0.0000 0.9473 -0.3204
vn 0.0595 0.9446 0.3227
vn 0.0851 0.9868 -0.1378
vn 0.2426 0.9180 -0.3137
vn 0.2902 0.8919 0.3469
vn 0.3308 0.9228 -0.1976
vn 0.4170 0.9087 0.0218
vn 0.3615 0.7876 -0.4990
vn 0.4283 0.7533 -0.4991
vn 0.2908 0.5123 -0.8081
vn 0.4133 0.8780 0.2412
vn 0.4710 0.8302 -0.2983
vn 0.4263 0.7511 -0.5040
vn 0.4996 0.7869 0.3623
vn 0.8185 0.4498 0.3574
vn 0.8574 0.4163 -0.3026
vn 0.7794 0.3782 -0.4994
vn 0.8092 0.3099 -0.4992
vn 0.5474 0.2097 -0.8102
vn 0.5636 0.1619 -0.8100
vn 0.8989 0.3559 0.2555
vn 0.9337 0.3580 -0.0041
vn 0.8100 0.3102 -0.4977
vn 0.8335 0.2395 -0.4979
vn 0.5643 0.1620 -0.8096
vn 0.5761 0.1129 -0.8095
vn 0.9443 0.2711 -0.1864
vn 0.9100 0.2336 0.3426
vn 0.9306 0.1825 -0.3173
vn 0.9474 0.1196 0.2969
vn 0.9309 -0.2388 0.2762
vn 0.9007 -0.3014 -0.3130
vn 0.8219 -0.2746 -0.4990
vn 0.7948 -0.3446 -0.4995
vn 0.5377 -0.2328 -0.8104
vn 0.5157 -0.2782 -0.8103
vn 0.8707 -0.3447 0.3509
vn 0.8971 -0.3887 -0.2104
vn 0.7960 -0.3448 -0.4974
vn 0.7633 -0.4122 -0.4975
vn 0.5164 -0.2788 -0.8097
vn 0.4906 -0.3221 -0.8096
vn 0.8790 -0.4747 0.0450
vn 0.8537 -0.4690 0.2263
vn 0.7985 -0.5245 -0.2953
vn 0.7546 -0.5481 0.3609
vn 0.5935 -0.7178 0.3641
vn 0.5758 -0.7648 -0.2889
vn 0.5213 -0.6929 -0.4982
vn 0.4601 -0.7351 -0.4980
vn 0.3122 -0.4986 -0.8086
vn 0.2686 -0.5236 -0.8085
vn 0.5239 -0.8252 0.2111
vn 0.5293 -0.8457 0.0675
vn 0.4607 -0.7348 -0.4978
vn 0.3958 -0.7717 -0.4978
vn 0.2676 -0.5230 -0.8092
vn 0.2219 -0.5441 -0.8091
vn 0.4443 -0.8674 -0.2239
vn 0.3978 -0.8456 0.3559
vn 0.3592 -0.8811 -0.3075
vn 0.2982 -0.9167 0.2660
vn -0.0598 -0.9496 0.3078
vn -0.1221 -0.9407 -0.3165
vn -0.1113 -0.8577 -0.5019
vn -0.1849 -0.8449 -0.5019
vn -0.1258 -0.5760 -0.8077
vn -0.1749 -0.5632 -0.8076
vn -0.1763 -0.9244 0.3382
vn -0.2105 -0.9628 -0.1696
vn -0.1845 -0.8450 -0.5018
vn -0.2562 -0.8261 -0.5020
vn -0.1739 -0.5597 -0.8102
vn -0.2214 -0.5427 -0.8102
vn -0.2966 -0.9547 -0.0231
vn -0.2982 -0.9167 0.2660
vn -0.3592 -0.8811 -0.3075
vn -0.3978 -0.8456 0.3559
vn -0.7545 -0.5482 0.3610
vn -0.7985 -0.5245 -0.2953
vn -0.7248 -0.4757 -0.4984
vn -0.7627 -0.4119 -0.4985
vn -0.5157 -0.2782 -0.8103
vn -0.5371 -0.2330 -0.8107
vn -0.8537 -0.4690 0.2263
vn -0.8790 -0.4747 0.0450
vn -0.7633 -0.4121 -0.4975
vn -0.7958 -0.3450 -0.4977
vn -0.5390 -0.2333 -0.8094
vn -0.5567 -0.1863 -0.8095
vn -0.8971 -0.3886 -0.2103
vn -0.8707 -0.3447 0.3509
vn -0.9007 -0.3014 -0.3130
vn -0.9309 -0.2390 0.2764
vn -0.9475 0.1195 0.2967
vn -0.9306 0.1825 -0.3173
vn -0.8500 0.1665 -0.4998
vn -0.8321 0.2391 -0.5004
vn -0.5638 0.1618 -0.8099
vn -0.5481 0.2096 -0.8097
vn -0.9101 0.2335 0.3424
vn -0.9443 0.2712 -0.1864
vn -0.8334 0.2397 -0.4980
vn -0.8100 0.3102 -0.4976
vn -0.5472 0.2098 -0.8103
vn -0.5274 0.2559 -0.8102
vn -0.9337 0.3580 -0.0041
vn -0.8990 0.3557 0.2554
vn -0.8574 0.4163 -0.3026
vn -0.8186 0.4497 0.3573
vn -0.4994 0.7870 0.3623
vn -0.4711 0.8301 -0.2983
vn -0.4278 0.7535 -0.4992
vn -0.3615 0.7876 -0.4989
vn -0.2450 0.5341 -0.8091
vn -0.1982 0.5531 -0.8092
vn -0.4134 0.8780 0.2412
vn -0.4171 0.9086 0.0218
vn -0.3612 0.7871 -0.5000
vn -0.2923 0.8153 -0.4998
vn -0.1982 0.5524 -0.8097
vn -0.1499 0.5674 -0.8097
vn -0.3308 0.9228 -0.1976
vn -0.2902 0.8919 0.3469
vn -0.2426 0.9180 -0.3137
vn -0.1793 0.9402 0.2897
vn -0.1708 0.9832 -0.0645
vn 0.0253 -0.5885 -0.8081
vn -0.0000 0.5878 -0.8090
vn 0.0506 0.5857 -0.8090
vn 0.0505 0.5852 -0.8093
vn -0.0000 0.8658 -0.5003
vn -0.0000 0.8659 -0.5002
vn 0.0743 0.8626 -0.5004
vn 0.0745 0.8630 -0.4996
vn -0.1483 0.8533 -0.4998
vn -0.1007 0.5788 -0.8092
vn -0.1008 0.5797 -0.8086
vn -0.1500 0.5689 -0.8086
vn -0.2211 0.8385 -0.4980
vn -0.2210 0.8367 -0.5011
vn -0.1482 0.8525 -0.5012
vn -0.2927 0.8164 -0.4978
vn -0.4112 0.4196 -0.8092
vn -0.4099 0.4196 -0.8099
vn -0.3726 0.4534 -0.8097
vn -0.6563 0.5649 -0.5002
vn -0.6060 0.6188 -0.4999
vn -0.4452 0.3828 -0.8095
vn -0.4462 0.3833 -0.8087
vn -0.4770 0.3437 -0.8089
vn -0.4769 0.3432 -0.8092
vn -0.7019 0.5052 -0.5021
vn -0.6561 0.5635 -0.5021
vn -0.7040 0.5073 -0.4971
vn -0.7794 0.3785 -0.4993
vn -0.7792 0.3784 -0.4997
vn -0.5291 0.2565 -0.8089
vn -0.8093 0.3098 -0.4991
vn -0.5885 0.0127 -0.8084
vn -0.5867 -0.0379 -0.8089
vn -0.8651 -0.0558 -0.4986
vn -0.8569 -0.1301 -0.4987
vn -0.5846 -0.0378 -0.8105
vn -0.5795 -0.0879 -0.8102
vn -0.8564 -0.1300 -0.4997
vn -0.5807 -0.0882 -0.8093
vn -0.5568 -0.1863 -0.8095
vn -0.8211 -0.2746 -0.5004
vn -0.8219 -0.2746 -0.4990
vn -0.7950 -0.3445 -0.4993
vn -0.3931 -0.4369 -0.8091
vn -0.3921 -0.4371 -0.8094
vn -0.4287 -0.4018 -0.8092
vn -0.5202 -0.6911 -0.5018
vn -0.5782 -0.6436 -0.5015
vn -0.3532 -0.4692 -0.8094
vn -0.3539 -0.4691 -0.8091
vn -0.3116 -0.4978 -0.8094
vn -0.3126 -0.4985 -0.8086
vn -0.4604 -0.7349 -0.4979
vn -0.5217 -0.6927 -0.4981
vn -0.4601 -0.7351 -0.4980
vn -0.3272 -0.8025 -0.4990
vn -0.3278 -0.8036 -0.4968
vn -0.2220 -0.5440 -0.8091
vn -0.2578 -0.8288 -0.4967
vn 0.0759 -0.5843 -0.8080
vn 0.0758 -0.5844 -0.8079
vn 0.1258 -0.5756 -0.8080
vn 0.1260 -0.5760 -0.8077
vn 0.1845 -0.8450 -0.5020
vn 0.1113 -0.8577 -0.5020
vn 0.1850 -0.8450 -0.5018
vn 0.2214 -0.5427 -0.8102
vn 0.3277 -0.8037 -0.4968
vn 0.3273 -0.8024 -0.4990
vn 0.3949 -0.7712 -0.4993
vn 0.7242 -0.4756 -0.4993
vn 0.7250 -0.4756 -0.4982
vn 0.4905 -0.3223 -0.8097
vn 0.7630 -0.4117 -0.4984
vn 0.5794 -0.0878 -0.8103
vn 0.5847 -0.0377 -0.8104
vn 0.8643 -0.0557 -0.4999
vn 0.8658 0.0186 -0.5001
vn 0.5865 -0.0380 -0.8090
vn 0.5884 0.0127 -0.8085
vn 0.8656 0.0186 -0.5003
vn 0.5870 0.0127 -0.8095
vn 0.5750 0.1129 -0.8103
vn 0.8516 0.1667 -0.4970
vn 0.8500 0.1666 -0.4998
vn 0.8319 0.2394 -0.5006
vn 0.4456 0.3828 -0.8093
vn 0.4458 0.3833 -0.8089
vn 0.4767 0.3438 -0.8091
vn 0.6058 0.6189 -0.4999
vn 0.6571 0.5643 -0.4998
vn 0.4102 0.4198 -0.8096
vn 0.4110 0.4194 -0.8095
vn 0.3732 0.4533 -0.8095
vn 0.3728 0.4532 -0.8097
vn 0.5513 0.6696 -0.4976
vn 0.6069 0.6197 -0.4977
vn 0.5508 0.6695 -0.4984
vn 0.2904 0.5112 -0.8089
vn 0.2454 0.5341 -0.8090
vn 0.3614 0.7870 -0.5000
vn 0.2924 0.8153 -0.4998
vn 0.1986 0.5530 -0.8091
vn 0.2926 0.8164 -0.4978
vn 0.2215 0.8384 -0.4980
vn 0.2447 0.5342 -0.8092
s 0
f 51//1 52//1 53//1
f 53//1 52//1 54//1
f 53//1 54//1 55//1
f 55//1 54//1 56//1
f 55//1 56//1 57//1
f 57//1 56//1 58//1
f 57//1 58//1 59//1
f 59//1 58//1 60//1
f 59//1 60//1 61//1
f 61//1 60//1 62//1
f 61//1 62//1 63//1
f 63//1 62//1 64//1
f 63//1 64//1 65//1
f 65//1 64//1 66//1
f 65//2 66//2 67//2
f 67//3 66//3 68//3
f 67//1 68//1 69//1
f 69//1 68//1 70//1
f 69//1 70//1 71//1
f 71//1 70//1 72//1
f 71//1 72//1 73//1
f 73//1 72//1 74//1
f 73//3 74//3 75//3
f 75//4 74//4 76//4
f 75//1 76//1 77//1
f 52//1 51//1 78//1
f 78//1 51//1 79//1
f 78//1 79//1 80//1
f 80//1 79//1 81//1
f 80//1 81//1 82//1
f 82//1 81//1 83//1
f 82//1 83//1 84//1
f 84//1 83//1 85//1
f 84//1 85//1 86//1
f 86//1 85//1 87//1
f 86//3 87//3 88//3
f 88//2 87//2 89//2
f 88//1 89//1 90//1
f 90//1 89//1 91//1
f 90//1 91//1 92//1
f 92//1 91//1 93//1
f 92//1 93//1 94//1
f 94//1 93//1 95//1
f 94//2 95//2 96//2
f 96//5 95//5 97//5
f 96//1 97//1 98//1
f 99//6 51//6 100//6
f 100//6 51//6 53//6
f 100//7 53//7 101//7
f 101//7 53//7 55//7
f 101//8 55//8 102//8
f 102//8 55//8 57//8
f 102//9 57//9 103//9
f 103//9 57//9 59//9
f 103//10 59//10 104//10
f 104//10 59//10 61//10
f 104//11 61//11 105//11
f 105//11 61//11 63//11
f 105//12 63//12 106//12
f 106//13 63//13 65//13
f 106//14 65//14 107//14
f 107//14 65//14 67//14
f 107//15 67//15 108//15
f 108//15 67//15 69//15
f 108//16 69//16 109//16
f 109//16 69//16 71//16
f 109//17 71//17 110//17
f 110//17 71//17 73//17
f 110//18 73//18 111//18
f 111//18 73//18 75//18
f 111//19 75//19 112//19
f 112//19 75//19 77//19
f 112//20 77//20 113//20
f 113//20 77//20 76//20
f 113//21 76//21 114//21
f 114//21 76//21 74//21
f 114//22 74//22 115//22
f 115//22 74//22 72//22
f 115//23 72//23 116//23
f 116//23 72//23 70//23
f 116//24 70//24 117//24
f 117//24 70//24 68//24
f 117//25 68//25 118//25
f 118//25 68//25 66//25
f 118//26 66//26 119//26
f 119//27 66//27 64//27
f 119//28 64//28 120//28
f 120//28 64//28 62//28
f 120//29 62//29 121//29
f 121//29 62//29 60//29
f 121//30 60//30 122//30
f 122//30 60//30 58//30
f 122//31 58//31 123//31
f 123//31 58//31 56//31
f 123//32 56//32 124//32
f 124//32 56//32 54//32
f 124//33 54//33 125//33
f 125//33 54//33 52//33
f 125//34 52//34 126//34
f 126//34 52//34 78//34
f 126//35 78//35 127//35
f 127//35 78//35 80//35
f 127//36 80//36 128//36
f 128//36 80//36 82//36
f 128//37 82//37 129//37
f 129//37 82//37 84//37
f 129//38 84//38 130//38
f 130//39 84//39 86//39
f 130//40 86//40 131//40
f 131//40 86//40 88//40
f 131//41 88//41 132//41
f 132//41 88//41 90//41
f 132//42 90//42 133//42
f 133//42 90//42 92//42
f 133//43 92//43 134//43
f 134//43 92//43 94//43
f 134//44 94//44 135//44
f 135//44 94//44 96//44
f 135//45 96//45 136//45
f 136//45 96//45 98//45
f 136//46 98//46 137//46
f 137//46 98//46 97//46
f 137//47 97//47 138//47
f 138//47 97//47 95//47
f 138//48 95//48 139//48
f 139//48 95//48 93//48
f 139//49 93//49 140//49
f 140//49 93//49 91//49
f 140//50 91//50 141//50
f 141//50 91//50 89//50
f 141//51 89//51 142//51
f 142//51 89//51 87//51
f 142//52 87//52 143//52
f 143//53 87//53 85//53
f 143//54 85//54 144//54
f 144//54 85//54 83//54
f 144//55 83//55 145//55
f 145//55 83//55 81//55
f 145//56 81//56 146//56
f 146//56 81//56 79//56
f 146//57 79//57 99//57
f 99//57 79//57 51//57
f 147//1 148//1 100//1
f 100//1 148//1 149//1
f 100//1 149//1 99//1
f 99//1 149//1 150//1
f 99//1 150//1 146//1
f 146//1 150//1 151//1
f 146//1 151//1 145//1
f 145//1 151//1 152//1
f 145//1 152//1 144//1
f 144//2 152//2 153//2
f 144//1 153//1 143//1
f 143//1 153//1 154//1
f 143//1 154//1 142//1
f 142//1 154//1 155//1
f 142//2 155//2 141//2
f 141//3 155//3 156//3
f 141//3 156//3 140//3
f 140//1 156//1 157//1
f 140//3 157//3 139//3
f 139//1 157//1 158//1
f 139//1 158//1 138//1
f 138//1 158//1 159//1
f 138//1 159//1 137//1
f 137//1 159//1 160//1
f 137//3 160//3 136//3
f 136//1 160//1 161//1
f 136//3 161//3 135//3
f 135//1 161//1 162//1
f 135//1 162//1 134//1
f 134//1 162//1 163//1
f 134//1 163//1 133//1
f 133//1 163//1 164//1
f 133//1 164//1 132//1
f 132//1 164//1 165//1
f 132//1 165//1 131//1
f 131//3 165//3 166//3
f 131//1 166//1 130//1
f 130//1 166//1 167//1
f 130//1 167//1 129//1
f 129//1 167//1 168//1
f 129//1 168//1 128//1
f 128//2 168//2 169//2
f 128//1 169//1 127//1
f 127//1 169//1 170//1
f 127//1 170//1 126//1
f 126//1 170//1 171//1
f 126//1 171//1 125//1
f 125//1 171//1 172//1
f 125//1 172//1 124//1
f 124//1 172//1 173//1
f 124//1 173//1 174//1
f 124//1 174//1 123//1
f 123//1 174//1 175//1
f 123//1 175//1 122//1
f 122//1 175//1 176//1
f 122//1 176//1 121//1
f 121//1 176//1 177//1
f 121//1 177//1 120//1
f 120//3 177//3 178//3
f 120//1 178//1 119//1
f 119//1 178//1 179//1
f 119//1 179//1 118//1
f 118//1 179//1 180//1
f 118//3 180//3 117//3
f 117//2 180//2 181//2
f 117//2 181//2 116//2
f 116//1 181//1 182//1
f 116//2 182//2 115//2
f 115//1 182//1 183//1
f 115//1 183//1 114//1
f 114//1 183//1 184//1
f 114//1 184//1 113//1
f 113//1 184//1 185//1
f 113//2 185//2 112//2
f 112//1 185//1 186//1
f 112//2 186//2 111//2
f 111//1 186//1 187//1
f 111//1 187//1 110//1
f 110//1 187//1 188//1
f 110//1 188//1 109//1
f 109//1 188//1 189//1
f 109//1 189//1 108//1
f 108//1 189//1 190//1
f 108//1 190//1 107//1
f 107//2 190//2 191//2
f 107//1 191//1 106//1
f 106//1 191//1 192//1
f 106//1 192//1 105//1
f 105//1 192//1 193//1
f 105//1 193//1 104//1
f 104//3 193//3 194//3
f 104//1 194//1 103//1
f 103//1 194//1 195//1
f 103//1 195//1 102//1
f 102//1 195//1 196//1
f 102//1 196//1 101//1
f 101//1 196//1 147//1
f 101//1 147//1 100//1
f 197//58 149//58 198//58
f 198//58 149//58 148//58
f 198//59 148//59 199//59
f 199//59 148//59 147//59
f 199//60 147//60 200//60
f 200//61 147//61 196//61
f 200//62 196//62 201//62
f 201//63 196//63 195//63
f 201//64 195//64 202//64
f 202//65 195//65 194//65
f 202//66 194//66 203//66
f 203//67 194//67 193//67
f 203//68 193//68 204//68
f 204//69 193//69 192//69
f 204//70 192//70 205//70
f 205//71 192//71 191//71
f 205//72 191//72 206//72
f 206//73 191//73 190//73
f 206//74 190//74 207//74
f 207//75 190//75 189//75
f 207//76 189//76 208//76
f 208//77 189//77 188//77
f 208//78 188//78 209//78
f 209//79 188//79 187//79
f 209//80 187//80 210//80
f 210//81 187//81 186//81
f 210//82 186//82 211//82
f 211//82 186//82 185//82
f 211//83 185//83 212//83
f 212//84 185//84 184//84
f 212//85 184//85 213//85
f 213//86 184//86 183//86
f 213//87 183//87 214//87
f 214//88 183//88 182//88
f 214//89 182//89 215//89
f 215//90 182//90 181//90
f 215//91 181//91 216//91
f 216//92 181//92 180//92
f 216//93 180//93 217//93
f 217//94 180//94 179//94
f 217//95 179//95 218//95
f 218//96 179//96 178//96
f 218//97 178//97 219//97
f 219//98 178//98 177//98
f 219//99 177//99 220//99
f 220//100 177//100 176//100
f 220//101 176//101 221//101
f 221//102 176//102 175//102
f 221//103 175//103 222//103
f 222//104 175//104 174//104
f 222//105 174//105 223//105
f 223//105 174//105 173//105
f 223//106 173//106 224//106
f 224//106 173//106 172//106
f 224//107 172//107 225//107
f 225//108 172//108 171//108
f 225//109 171//109 226//109
f 226//110 171//110 170//110
f 226//111 170//111 227//111
f 227//112 170//112 169//112
f 227//113 169//113 228//113
f 228//114 169//114 168//114
f 228//115 168//115 229//115
f 229//116 168//116 167//116
f 229//117 167//117 230//117
f 230//118 167//118 166//118
f 230//119 166//119 231//119
f 231//120 166//120 165//120
f 231//121 165//121 232//121
f 232//122 165//122 164//122
f 232//123 164//123 233//123
f 233//124 164//124 163//124
f 233//125 163//125 234//125
f 234//126 163//126 162//126
f 234//127 162//127 235//127
f 235//128 162//128 161//128
f 235//129 161//129 236//129
f 236//129 161//129 160//129
f 236//130 160//130 237//130
f 237//131 160//131 159//131
f 237//132 159//132 238//132
f 238//133 159//133 158//133
f 238//134 158//134 239//134
f 239//135 158//135 157//135
f 239//136 157//136 240//136
f 240//137 157//137 156//137
f 240//138 156//138 241//138
f 241//139 156//139 155//139
f 241//140 155//140 242//140
f 242//141 155//141 154//141
f 242//142 154//142 243//142
f 243//143 154//143 153//143
f 243//144 153//144 244//144
f 244//145 153//145 152//145
f 244//146 152//146 245//146
f 245//147 152//147 151//147
f 245//148 151//148 246//148
f 246//149 151//149 150//149
f 246//150 150//150 197//150
f 197//151 150//151 149//151
f 7//152 247//152 8//152
f 8//153 247//153 248//153
f 8//154 248//154 9//154
f 9//155 248//155 249//155
f 9//156 249//156 250//156
f 250//157 249//157 251//157
f 250//158 251//158 252//158
f 252//159 251//159 253//159
f 252//160 253//160 254//160
f 254//161 253//161 199//161
f 254//162 199//162 200//162
f 6//163 255//163 7//163
f 7//164 255//164 256//164
f 7//165 256//165 247//165
f 247//166 256//166 257//166
f 247//167 257//167 258//167
f 258//168 257//168 259//168
f 258//169 259//169 260//169
f 260//170 259//170 197//170
f 260//171 197//171 198//171
f 255//172 6//172 261//172
f 261//173 6//173 5//173
f 261//174 5//174 262//174
f 262//175 5//175 263//175
f 262//176 263//176 264//176
f 264//177 263//177 265//177
f 264//178 265//178 266//178
f 266//179 265//179 267//179
f 266//180 267//180 243//180
f 243//181 267//181 268//181
f 243//182 268//182 242//182
f 242//183 268//183 269//183
f 242//184 269//184 241//184
f 241//185 269//185 270//185
f 241//186 270//186 240//186
f 240//187 270//187 271//187
f 240//188 271//188 272//188
f 272//189 271//189 273//189
f 272//190 273//190 274//190
f 274//191 273//191 275//191
f 274//192 275//192 276//192
f 276//193 275//193 50//193
f 276//194 50//194 49//194
f 5//195 4//195 263//195
f 263//196 4//196 277//196
f 263//197 277//197 265//197
f 265//198 277//198 278//198
f 265//199 278//199 267//199
f 267//200 278//200 268//200
f 4//201 3//201 277//201
f 277//202 3//202 279//202
f 277//203 279//203 278//203
f 278//204 279//204 280//204
f 278//205 280//205 268//205
f 268//206 280//206 269//206
f 279//207 3//207 281//207
f 281//208 3//208 2//208
f 281//209 2//209 282//209
f 282//210 2//210 1//210
f 282//211 1//211 283//211
f 283//212 1//212 50//212
f 283//213 50//213 275//213
f 276//214 49//214 284//214
f 284//215 49//215 48//215
f 284//216 48//216 285//216
f 285//217 48//217 286//217
f 285//218 286//218 287//218
f 287//219 286//219 288//219
f 287//220 288//220 289//220
f 289//221 288//221 290//221
f 289//222 290//222 236//222
f 236//223 290//223 291//223
f 236//224 291//224 235//224
f 235//225 291//225 292//225
f 235//226 292//226 234//226
f 234//227 292//227 293//227
f 234//228 293//228 294//228
f 294//229 293//229 295//229
f 294//230 295//230 296//230
f 296//231 295//231 297//231
f 296//232 297//232 298//232
f 298//233 297//233 44//233
f 298//234 44//234 43//234
f 48//235 47//235 286//235
f 286//236 47//236 299//236
f 286//237 299//237 288//237
f 288//238 299//238 300//238
f 288//239 300//239 290//239
f 290//240 300//240 291//240
f 47//241 46//241 299//241
f 299//242 46//242 301//242
f 299//243 301//243 300//243
f 300//244 301//244 302//244
f 300//245 302//245 291//245
f 291//246 302//246 292//246
f 301//247 46//247 303//247
f 303//248 46//248 45//248
f 303//249 45//249 304//249
f 304//250 45//250 44//250
f 304//251 44//251 297//251
f 298//252 43//252 305//252
f 305//253 43//253 42//253
f 305//254 42//254 306//254
f 306//255 42//255 307//255
f 306//256 307//256 308//256
f 308//257 307//257 309//257
f 308//258 309//258 310//258
f 310//259 309//259 311//259
f 310//260 311//260 230//260
f 230//261 311//261 312//261
f 230//262 312//262 229//262
f 229//263 312//263 313//263
f 229//264 313//264 228//264
f 228//265 313//265 314//265
f 228//266 314//266 227//266
f 227//267 314//267 315//267
f 227//268 315//268 316//268
f 316//269 315//269 317//269
f 316//270 317//270 318//270
f 318//271 317//271 319//271
f 318//272 319//272 320//272
f 320//273 319//273 37//273
f 320//274 37//274 36//274
f 42//275 41//275 307//275
f 307//276 41//276 321//276
f 307//277 321//277 309//277
f 309//278 321//278 322//278
f 309//279 322//279 311//279
f 311//280 322//280 312//280
f 41//281 40//281 321//281
f 321//282 40//282 323//282
f 321//283 323//283 322//283
f 322//284 323//284 324//284
f 322//285 324//285 312//285
f 312//286 324//286 313//286
f 323//287 40//287 325//287
f 325//288 40//288 39//288
f 325//289 39//289 326//289
f 326//290 39//290 38//290
f 326//291 38//291 327//291
f 327//292 38//292 37//292
f 327//293 37//293 319//293
f 320//294 36//294 328//294
f 328//295 36//295 35//295
f 328//296 35//296 329//296
f 329//297 35//297 330//297
f 329//298 330//298 331//298
f 331//299 330//299 332//299
f 331//300 332//300 333//300
f 333//301 332//301 334//301
f 333//302 334//302 223//302
f 223//303 334//303 335//303
f 223//304 335//304 222//304
f 222//305 335//305 336//305
f 222//306 336//306 221//306
f 221//307 336//307 337//307
f 221//308 337//308 338//308
f 338//309 337//309 339//309
f 338//310 339//310 340//310
f 340//311 339//311 341//311
f 340//312 341//312 342//312
f 342//313 341//313 31//313
f 342//314 31//314 30//314
f 35//315 34//315 330//315
f 330//316 34//316 343//316
f 330//317 343//317 332//317
f 332//318 343//318 344//318
f 332//319 344//319 334//319
f 334//320 344//320 335//320
f 34//321 33//321 343//321
f 343//322 33//322 345//322
f 343//323 345//323 344//323
f 344//324 345//324 346//324
f 344//325 346//325 335//325
f 335//326 346//326 336//326
f 345//327 33//327 347//327
f 347//328 33//328 32//328
f 347//329 32//329 348//329
f 348//330 32//330 31//330
f 348//331 31//331 341//331
f 342//332 30//332 349//332
f 349//333 30//333 29//333
f 349//334 29//334 350//334
f 350//335 29//335 351//335
f 350//336 351//336 352//336
f 352//337 351//337 353//337
f 352//338 353//338 354//338
f 354//339 353//339 355//339
f 354//340 355//340 217//340
f 217//341 355//341 216//341
f 216//342 355//342 356//342
f 216//343 356//343 357//343
f 357//344 356//344 358//344
f 357//345 358//345 359//345
f 359//346 358//346 360//346
f 359//347 360//347 361//347
f 361//348 360//348 26//348
f 361//349 26//349 25//349
f 29//350 28//350 351//350
f 351//351 28//351 362//351
f 351//352 362//352 353//352
f 353//353 362//353 363//353
f 353//354 363//354 355//354
f 355//355 363//355 356//355
f 28//356 27//356 362//356
f 362//357 27//357 364//357
f 362//358 364//358 363//358
f 363//359 364//359 358//359
f 363//360 358//360 356//360
f 27//361 26//361 364//361
f 364//362 26//362 360//362
f 364//363 360//363 358//363
f 361//364 25//364 365//364
f 365//365 25//365 24//365
f 365//366 24//366 366//366
f 366//367 24//367 367//367
f 366//368 367//368 368//368
f 368//369 367//369 369//369
f 368//370 369//370 370//370
f 370//371 369//371 371//371
f 370//372 371//372 212//372
f 212//373 371//373 372//373
f 212//374 372//374 211//374
f 211//375 372//375 373//375
f 211//376 373//376 210//376
f 210//377 373//377 374//377
f 210//378 374//378 375//378
f 375//379 374//379 376//379
f 375//380 376//380 377//380
f 377//381 376//381 378//381
f 377//382 378//382 379//382
f 379//383 378//383 20//383
f 379//384 20//384 19//384
f 24//385 23//385 367//385
f 367//386 23//386 380//386
f 367//387 380//387 369//387
f 369//388 380//388 381//388
f 369//389 381//389 371//389
f 371//390 381//390 372//390
f 23//391 22//391 380//391
f 380//392 22//392 382//392
f 380//393 382//393 381//393
f 381//394 382//394 383//394
f 381//395 383//395 372//395
f 372//396 383//396 373//396
f 382//397 22//397 384//397
f 384//398 22//398 21//398
f 384//399 21//399 385//399
f 385//400 21//400 20//400
f 385//401 20//401 378//401
f 379//402 19//402 386//402
f 386//403 19//403 18//403
f 386//404 18//404 387//404
f 387//405 18//405 388//405
f 387//406 388//406 389//406
f 389//407 388//407 390//407
f 389//408 390//408 391//408
f 391//409 390//409 392//409
f 391//410 392//410 206//410
f 206//411 392//411 393//411
f 206//412 393//412 205//412
f 205//413 393//413 394//413
f 205//414 394//414 204//414
f 204//415 394//415 395//415
f 204//416 395//416 203//416
f 203//417 395//417 396//417
f 203//418 396//418 397//418
f 397//419 396//419 398//419
f 397//420 398//420 399//420
f 399//421 398//421 400//421
f 399//422 400//422 401//422
f 401//423 400//423 13//423
f 401//424 13//424 12//424
f 18//425 17//425 388//425
f 388//426 17//426 402//426
f 388//427 402//427 390//427
f 390//428 402//428 403//428
f 390//429 403//429 392//429
f 392//430 403//430 393//430
f 17//431 16//431 402//431
f 402//432 16//432 404//432
f 402//433 404//433 403//433
f 403//434 404//434 405//434
f 403//435 405//435 393//435
f 393//436 405//436 394//436
f 404//437 16//437 406//437
f 406//438 16//438 15//438
f 406//439 15//439 407//439
f 407//440 15//440 14//440
f 407//441 14//441 408//441
f 408//442 14//442 13//442
f 408//443 13//443 400//443
f 401//444 12//444 409//444
f 409//445 12//445 11//445
f 409//446 11//446 410//446
f 410//447 11//447 411//447
f 410//448 411//448 412//448
f 412//449 411//449 252//449
f 412//450 252//450 254//450
f 11//451 10//451 411//451
f 411//452 10//452 250//452
f 411//453 250//453 252//453
f 10//454 9//454 250//454
f 260//455 198//455 413//455
f 413//456 198//456 199//456
f 413//457 199//457 253//457
f 254//458 200//458 414//458
f 414//459 200//459 201//459
f 414//460 201//460 415//460
f 415//461 201//461 416//461
f 415//462 416//462 417//462
f 417//463 416//463 399//463
f 417//464 399//464 401//464
f 201//465 202//465 416//465
f 416//466 202//466 397//466
f 416//467 397//467 399//467
f 202//468 203//468 397//468
f 206//469 207//469 391//469
f 391//470 207//470 418//470
f 391//471 418//471 389//471
f 389//472 418//472 419//472
f 389//473 419//473 387//473
f 387//474 419//474 386//474
f 207//475 208//475 418//475
f 418//476 208//476 420//476
f 418//477 420//477 419//477
f 419//478 420//478 421//478
f 419//479 421//479 386//479
f 386//480 421//480 379//480
f 420//481 208//481 422//481
f 422//482 208//482 209//482
f 422//483 209//483 375//483
f 375//484 209//484 210//484
f 212//485 213//485 370//485
f 370//486 213//486 423//486
f 370//487 423//487 368//487
f 368//488 423//488 424//488
f 368//489 424//489 366//489
f 366//490 424//490 365//490
f 213//491 214//491 423//491
f 423//492 214//492 425//492
f 423//493 425//493 424//493
f 424//494 425//494 426//494
f 424//495 426//495 365//495
f 365//496 426//496 361//496
f 425//497 214//497 427//497
f 427//498 214//498 215//498
f 427//499 215//499 357//499
f 357//500 215//500 216//500
f 217//501 218//501 354//501
f 354//502 218//502 428//502
f 354//503 428//503 352//503
f 352//504 428//504 429//504
f 352//505 429//505 350//505
f 350//506 429//506 349//506
f 218//507 219//507 428//507
f 428//508 219//508 430//508
f 428//509 430//509 429//509
f 429//510 430//510 431//510
f 429//511 431//511 349//511
f 349//512 431//512 342//512
f 430//513 219//513 432//513
f 432//514 219//514 220//514
f 432//515 220//515 338//515
f 338//516 220//516 221//516
f 223//517 224//517 333//517
f 333//518 224//518 433//518
f 333//519 433//519 331//519
f 331//520 433//520 434//520
f 331//521 434//521 329//521
f 329//522 434//522 328//522
f 224//523 225//523 433//523
f 433//524 225//524 435//524
f 433//525 435//525 434//525
f 434//526 435//526 436//526
f 434//527 436//527 328//527
f 328//528 436//528 320//528
f 435//529 225//529 437//529
f 437//530 225//530 226//530
f 437//531 226//531 316//531
f 316//532 226//532 227//532
f 230//533 231//533 310//533
f 310//534 231//534 438//534
f 310//535 438//535 308//535
f 308//536 438//536 439//536
f 308//537 439//537 306//537
f 306//538 439//538 305//538
f 231//539 232//539 438//539
f 438//540 232//540 440//540
f 438//541 440//541 439//541
f 439//542 440//542 441//542
f 439//543 441//543 305//543
f 305//544 441//544 298//544
f 440//545 232//545 442//545
f 442//546 232//546 233//546
f 442//547 233//547 294//547
f 294//548 233//548 234//548
f 236//549 237//549 289//549
f 289//550 237//550 443//550
f 289//551 443//551 287//551
f 287//552 443//552 444//552
f 287//553 444//553 285//553
f 285//554 444//554 284//554
f 237//555 238//555 443//555
f 443//556 238//556 445//556
f 443//557 445//557 444//557
f 444//558 445//558 446//558
f 444//559 446//559 284//559
f 284//560 446//560 276//560
f 445//561 238//561 447//561
f 447//562 238//562 239//562
f 447//563 239//563 272//563
f 272//564 239//564 240//564
f 243//565 244//565 266//565
f 266//566 244//566 448//566
f 266//567 448//567 264//567
f 264//568 448//568 449//568
f 264//569 449//569 262//569
f 262//570 449//570 261//570
f 244//571 245//571 448//571
f 448//572 245//572 450//572
f 448//573 450//573 449//573
f 449//574 450//574 451//574
f 449//575 451//575 261//575
f 261//576 451//576 255//576
f 450//577 245//577 452//577
f 452//578 245//578 246//578
f 452//579 246//579 453//579
f 453//580 246//580 197//580
f 453//581 197//581 259//581
f 346//582 345//582 347//582
f 247//583 258//583 248//583
f 248//583 258//583 454//583
f 248//584 454//584 249//584
f 249//585 454//585 251//585
f 258//586 260//586 454//586
f 454//587 260//587 413//587
f 454//588 413//588 251//588
f 251//589 413//589 253//589
f 453//590 259//590 257//590
f 257//591 256//591 455//591
f 455//592 256//592 255//592
f 455//593 255//593 451//593
f 451//594 452//594 455//594
f 455//595 452//595 453//595
f 455//596 453//596 257//596
f 452//597 451//597 450//597
f 282//598 456//598 281//598
f 281//599 456//599 280//599
f 281//600 280//600 279//600
f 270//601 269//601 456//601
f 456//602 269//602 280//602
f 456//603 282//603 457//603
f 457//604 282//604 283//604
f 457//605 283//605 273//605
f 273//606 283//606 275//606
f 271//607 270//607 457//607
f 457//608 270//608 456//608
f 271//609 457//609 273//609
f 447//610 272//610 274//610
f 447//611 274//611 446//611
f 446//612 274//612 276//612
f 445//613 447//613 446//613
f 301//614 303//614 302//614
f 302//615 303//615 458//615
f 302//616 458//616 292//616
f 292//617 458//617 293//617
f 303//618 304//618 458//618
f 458//619 304//619 295//619
f 458//620 295//620 293//620
f 297//621 295//621 304//621
f 296//622 298//622 441//622
f 294//623 296//623 442//623
f 442//624 296//624 441//624
f 442//625 441//625 440//625
f 326//626 459//626 325//626
f 325//627 459//627 324//627
f 325//628 324//628 323//628
f 314//629 313//629 459//629
f 459//630 313//630 324//630
f 459//631 326//631 460//631
f 460//632 326//632 327//632
f 460//633 327//633 317//633
f 317//634 327//634 319//634
f 315//635 314//635 460//635
f 460//636 314//636 459//636
f 315//637 460//637 317//637
f 437//638 316//638 318//638
f 437//639 318//639 436//639
f 436//640 318//640 320//640
f 435//641 437//641 436//641
f 346//642 347//642 461//642
f 461//643 347//643 348//643
f 461//644 348//644 339//644
f 339//645 348//645 341//645
f 337//646 336//646 461//646
f 461//647 336//647 346//647
f 337//648 461//648 339//648
f 340//649 342//649 431//649
f 338//650 340//650 432//650
f 432//651 340//651 431//651
f 432//652 431//652 430//652
f 427//653 357//653 359//653
f 427//654 359//654 426//654
f 426//655 359//655 361//655
f 425//656 427//656 426//656
f 382//657 384//657 383//657
f 383//658 384//658 462//658
f 383//659 462//659 373//659
f 373//660 462//660 374//660
f 384//661 385//661 462//661
f 462//662 385//662 376//662
f 462//663 376//663 374//663
f 378//664 376//664 385//664
f 377//665 379//665 421//665
f 375//666 377//666 422//666
f 422//667 377//667 421//667
f 422//668 421//668 420//668
f 407//669 463//669 406//669
f 406//670 463//670 405//670
f 406//671 405//671 404//671
f 395//672 394//672 463//672
f 463//673 394//673 405//673
f 463//674 407//674 464//674
f 464//675 407//675 408//675
f 464//676 408//676 398//676
f 398//677 408//677 400//677
f 396//678 395//678 464//678
f 464//679 395//679 463//679
f 396//680 464//680 398//680
f 401//681 409//681 417//681
f 417//682 409//682 465//682
f 417//683 465//683 415//683
f 415//684 465//684 414//684
f 410//685 412//685 465//685
f 465//686 412//686 414//686
f 414//687 412//687 254//687
f 409//688 410//688 465//688
