# Blender 4.2.3 LTS
# www.blender.org
o link_7__m1
v 0.044443 0.015659 1.280650
v 0.043551 0.015063 1.280650
v 0.042498 0.014853 1.280650
v 0.041446 0.015063 1.280650
v 0.040554 0.015659 1.280650
v 0.039958 0.016551 1.280650
v 0.039748 0.017603 1.280650
v 0.039958 0.018656 1.280650
v 0.040554 0.019548 1.280650
v 0.041446 0.020144 1.280650
v 0.042498 0.020353 1.280650
v 0.043551 0.020144 1.280650
v 0.044443 0.019548 1.280650
v 0.045248 0.017603 1.280650
v 0.045039 0.016551 1.280650
v 0.045039 0.018656 1.280650
v 0.042498 -0.020353 1.280650
v 0.043551 -0.020144 1.280650
v 0.044443 -0.019548 1.280650
v 0.045039 -0.018656 1.280650
v 0.045248 -0.017603 1.280650
v 0.045039 -0.016551 1.280650
v 0.044443 -0.015659 1.280650
v 0.043551 -0.015063 1.280650
v 0.042498 -0.014853 1.280650
v 0.041446 -0.015063 1.280650
v 0.040554 -0.015659 1.280650
v 0.039958 -0.016551 1.280650
v 0.039748 -0.017603 1.280650
v 0.039958 -0.018656 1.280650
v 0.040554 -0.019548 1.280650
v 0.041446 -0.020144 1.280650
v 0.020353 0.042498 1.280650
v 0.020144 0.043551 1.280650
v 0.019548 0.044443 1.280650
v 0.018656 0.045039 1.280650
v 0.017603 0.045248 1.280650
v 0.016551 0.045039 1.280650
v 0.015659 0.044443 1.280650
v 0.015063 0.043551 1.280650
v 0.014853 0.042498 1.280650
v 0.015063 0.041446 1.280650
v 0.015659 0.040554 1.280650
v 0.016551 0.039958 1.280650
v 0.017603 0.039748 1.280650
v 0.018656 0.039958 1.280650
v 0.019548 0.040554 1.280650
v 0.020144 0.041446 1.280650
v 0.015659 -0.044443 1.280650
v 0.015063 -0.043551 1.280650
v 0.014853 -0.042498 1.280650
v 0.015063 -0.041446 1.280650
v 0.015659 -0.040554 1.280650
v 0.016551 -0.039958 1.280650
v 0.017603 -0.039748 1.280650
v 0.018656 -0.039958 1.280650
v 0.019548 -0.040554 1.280650
v 0.020144 -0.041446 1.280650
v 0.020353 -0.042498 1.280650
v 0.020144 -0.043551 1.280650
v 0.019548 -0.044443 1.280650
v 0.017603 -0.045248 1.280650
v 0.016551 -0.045039 1.280650
v 0.018656 -0.045039 1.280650
v -0.015659 0.044443 1.280650
v -0.015063 0.043551 1.280650
v -0.014853 0.042498 1.280650
v -0.015063 0.041446 1.280650
v -0.015659 0.040554 1.280650
v -0.016551 0.039958 1.280650
v -0.017603 0.039748 1.280650
v -0.018656 0.039958 1.280650
v -0.019548 0.040554 1.280650
v -0.020144 0.041446 1.280650
v -0.020353 0.042498 1.280650
v -0.020144 0.043551 1.280650
v -0.019548 0.044443 1.280650
v -0.017603 0.045248 1.280650
v -0.016551 0.045039 1.280650
v -0.018656 0.045039 1.280650
v -0.020353 -0.042498 1.280650
v -0.020144 -0.043551 1.280650
v -0.019548 -0.044443 1.280650
v -0.018656 -0.045039 1.280650
v -0.017603 -0.045248 1.280650
v -0.016551 -0.045039 1.280650
v -0.015659 -0.044443 1.280650
v -0.015063 -0.043551 1.280650
v -0.014853 -0.042498 1.280650
v -0.015063 -0.041446 1.280650
v -0.015659 -0.040554 1.280650
v -0.016551 -0.039958 1.280650
v -0.017603 -0.039748 1.280650
v -0.018656 -0.039958 1.280650
v -0.019548 -0.040554 1.280650
v -0.020144 -0.041446 1.280650
v -0.042498 0.020353 1.280650
v -0.043551 0.020144 1.280650
v -0.044443 0.019548 1.280650
v -0.045039 0.018656 1.280650
v -0.045248 0.017603 1.280650
v -0.045039 0.016551 1.280650
v -0.044443 0.015659 1.280650
v -0.043551 0.015063 1.280650
v -0.042498 0.014853 1.280650
v -0.041446 0.015063 1.280650
v -0.040554 0.015659 1.280650
v -0.039958 0.016551 1.280650
v -0.039748 0.017603 1.280650
v -0.039958 0.018656 1.280650
v -0.040554 0.019548 1.280650
v -0.041446 0.020144 1.280650
v -0.044443 -0.015659 1.280650
v -0.043551 -0.015063 1.280650
v -0.042498 -0.014853 1.280650
v -0.041446 -0.015063 1.280650
v -0.040554 -0.015659 1.280650
v -0.039958 -0.016551 1.280650
v -0.039748 -0.017603 1.280650
v -0.039958 -0.018656 1.280650
v -0.040554 -0.019548 1.280650
v -0.041446 -0.020144 1.280650
v -0.042498 -0.020353 1.280650
v -0.043551 -0.020144 1.280650
v -0.044443 -0.019548 1.280650
v -0.045248 -0.017603 1.280650
v -0.045039 -0.016551 1.280650
v -0.045039 -0.018656 1.280650
v -0.039958 0.018656 1.283650
v -0.045039 0.018656 1.283650
v -0.039748 0.017603 1.283650
v -0.045248 0.017603 1.283650
v -0.039958 0.016551 1.283650
v -0.045039 0.016551 1.283650
v -0.040554 0.015659 1.283650
v -0.044443 0.015659 1.283650
v -0.041446 0.015063 1.283650
v -0.043551 0.015063 1.283650
v -0.042498 0.014853 1.283650
v -0.044443 0.019548 1.283650
v -0.040554 0.019548 1.283650
v -0.043551 0.020144 1.283650
v -0.041446 0.020144 1.283650
v -0.042498 0.020353 1.283650
v -0.039958 -0.016551 1.283650
v -0.045039 -0.016551 1.283650
v -0.039748 -0.017603 1.283650
v -0.045248 -0.017603 1.283650
v -0.039958 -0.018656 1.283650
v -0.045039 -0.018656 1.283650
v -0.040554 -0.019548 1.283650
v -0.044443 -0.019548 1.283650
v -0.041446 -0.020144 1.283650
v -0.043551 -0.020144 1.283650
v -0.042498 -0.020353 1.283650
v -0.044443 -0.015659 1.283650
v -0.040554 -0.015659 1.283650
v -0.043551 -0.015063 1.283650
v -0.041446 -0.015063 1.283650
v -0.042498 -0.014853 1.283650
v -0.015063 -0.041446 1.283650
v -0.020144 -0.041446 1.283650
v -0.014853 -0.042498 1.283650
v -0.020353 -0.042498 1.283650
v -0.015063 -0.043551 1.283650
v -0.020144 -0.043551 1.283650
v -0.015659 -0.044443 1.283650
v -0.019548 -0.044443 1.283650
v -0.016551 -0.045039 1.283650
v -0.018656 -0.045039 1.283650
v -0.017603 -0.045248 1.283650
v -0.019548 -0.040554 1.283650
v -0.015659 -0.040554 1.283650
v -0.018656 -0.039958 1.283650
v -0.016551 -0.039958 1.283650
v -0.017603 -0.039748 1.283650
v 0.020144 -0.041446 1.283650
v 0.015063 -0.041446 1.283650
v 0.020353 -0.042498 1.283650
v 0.014853 -0.042498 1.283650
v 0.020144 -0.043551 1.283650
v 0.015063 -0.043551 1.283650
v 0.019548 -0.044443 1.283650
v 0.015659 -0.044443 1.283650
v 0.018656 -0.045039 1.283650
v 0.016551 -0.045039 1.283650
v 0.017603 -0.045248 1.283650
v 0.015659 -0.040554 1.283650
v 0.019548 -0.040554 1.283650
v 0.016551 -0.039958 1.283650
v 0.018656 -0.039958 1.283650
v 0.017603 -0.039748 1.283650
v 0.045039 -0.016551 1.283650
v 0.039958 -0.016551 1.283650
v 0.045248 -0.017603 1.283650
v 0.039748 -0.017603 1.283650
v 0.045039 -0.018656 1.283650
v 0.039958 -0.018656 1.283650
v 0.044443 -0.019548 1.283650
v 0.040554 -0.019548 1.283650
v 0.043551 -0.020144 1.283650
v 0.041446 -0.020144 1.283650
v 0.042498 -0.020353 1.283650
v 0.040554 -0.015659 1.283650
v 0.044443 -0.015659 1.283650
v 0.041446 -0.015063 1.283650
v 0.043551 -0.015063 1.283650
v 0.042498 -0.014853 1.283650
v 0.045039 0.018656 1.283650
v 0.039958 0.018656 1.283650
v 0.045248 0.017603 1.283650
v 0.039748 0.017603 1.283650
v 0.045039 0.016551 1.283650
v 0.039958 0.016551 1.283650
v 0.044443 0.015659 1.283650
v 0.040554 0.015659 1.283650
v 0.043551 0.015063 1.283650
v 0.041446 0.015063 1.283650
v 0.042498 0.014853 1.283650
v 0.040554 0.019548 1.283650
v 0.044443 0.019548 1.283650
v 0.041446 0.020144 1.283650
v 0.043551 0.020144 1.283650
v 0.042498 0.020353 1.283650
v 0.020144 0.043551 1.283650
v 0.015063 0.043551 1.283650
v 0.020353 0.042498 1.283650
v 0.014853 0.042498 1.283650
v 0.020144 0.041446 1.283650
v 0.015063 0.041446 1.283650
v 0.019548 0.040554 1.283650
v 0.015659 0.040554 1.283650
v 0.018656 0.039958 1.283650
v 0.016551 0.039958 1.283650
v 0.017603 0.039748 1.283650
v 0.015659 0.044443 1.283650
v 0.019548 0.044443 1.283650
v 0.016551 0.045039 1.283650
v 0.018656 0.045039 1.283650
v 0.017603 0.045248 1.283650
v -0.015063 0.043551 1.283650
v -0.020144 0.043551 1.283650
v -0.014853 0.042498 1.283650
v -0.020353 0.042498 1.283650
v -0.015063 0.041446 1.283650
v -0.020144 0.041446 1.283650
v -0.015659 0.040554 1.283650
v -0.019548 0.040554 1.283650
v -0.016551 0.039958 1.283650
v -0.018656 0.039958 1.283650
v -0.017603 0.039748 1.283650
v -0.019548 0.044443 1.283650
v -0.015659 0.044443 1.283650
v -0.018656 0.045039 1.283650
v -0.016551 0.045039 1.283650
v -0.017603 0.045248 1.283650
vn -0.0000 -0.0000 1.0000
vn 0.9807 -0.1958 -0.0000
vn 0.9807 0.1956 -0.0000
vn 0.8315 0.5555 -0.0000
vn 0.8315 0.5556 -0.0000
vn 0.5556 0.8315 -0.0000
vn 0.5555 0.8315 -0.0000
vn 0.1949 0.9808 -0.0000
vn -0.1947 0.9809 -0.0000
vn -0.5556 0.8315 -0.0000
vn -0.5555 0.8315 -0.0000
vn -0.8315 0.5555 -0.0000
vn -0.8315 0.5556 -0.0000
vn -0.9809 0.1947 -0.0000
vn -0.9808 -0.1949 -0.0000
vn -0.8315 -0.5556 -0.0000
vn 0.8315 -0.5555 -0.0000
vn 0.8315 -0.5556 -0.0000
vn 0.5556 -0.8315 -0.0000
vn 0.1958 -0.9807 -0.0000
vn -0.1956 -0.9807 -0.0000
vn -0.5556 -0.8315 -0.0000
vn -0.8315 -0.5555 -0.0000
vn 0.9807 -0.1956 -0.0000
vn 0.9807 0.1958 -0.0000
vn 0.1958 0.9807 -0.0000
vn -0.1956 0.9807 -0.0000
vn -0.9808 0.1949 -0.0000
vn -0.9809 -0.1947 -0.0000
vn 0.5555 -0.8315 -0.0000
vn 0.1949 -0.9808 -0.0000
vn -0.1947 -0.9809 -0.0000
vn -0.5555 -0.8315 -0.0000
vn 0.9809 -0.1947 -0.0000
vn 0.9808 0.1949 -0.0000
vn 0.1956 0.9807 -0.0000
vn -0.1958 0.9807 -0.0000
vn -0.9807 0.1958 -0.0000
vn -0.9807 -0.1956 -0.0000
vn 0.1947 -0.9809 -0.0000
vn -0.1949 -0.9808 -0.0000
vn 0.9808 -0.1949 -0.0000
vn 0.9809 0.1947 -0.0000
vn 0.1947 0.9809 -0.0000
vn -0.1949 0.9808 -0.0000
vn -0.9807 0.1956 -0.0000
vn -0.9807 -0.1958 -0.0000
vn 0.1956 -0.9807 -0.0000
vn -0.1958 -0.9807 -0.0000
s 0
f 129//1 130//1 131//1
f 131//1 130//1 132//1
f 131//1 132//1 133//1
f 133//1 132//1 134//1
f 133//1 134//1 135//1
f 135//1 134//1 136//1
f 135//1 136//1 137//1
f 137//1 136//1 138//1
f 137//1 138//1 139//1
f 130//1 129//1 140//1
f 140//1 129//1 141//1
f 140//1 141//1 142//1
f 142//1 141//1 143//1
f 142//1 143//1 144//1
f 133//2 109//2 131//2
f 131//3 109//3 110//3
f 131//3 110//3 129//3
f 129//4 110//4 111//4
f 129//5 111//5 141//5
f 141//6 111//6 112//6
f 141//7 112//7 143//7
f 143//8 112//8 97//8
f 143//8 97//8 144//8
f 144//9 97//9 98//9
f 144//9 98//9 142//9
f 142//10 98//10 99//10
f 142//11 99//11 140//11
f 140//12 99//12 100//12
f 140//13 100//13 130//13
f 130//14 100//14 132//14
f 132//14 100//14 101//14
f 132//15 101//15 134//15
f 134//15 101//15 102//15
f 134//16 102//16 103//16
f 109//2 133//2 108//2
f 108//17 133//17 135//17
f 108//18 135//18 107//18
f 107//19 135//19 137//19
f 107//19 137//19 106//19
f 106//20 137//20 139//20
f 106//20 139//20 105//20
f 105//21 139//21 138//21
f 105//21 138//21 104//21
f 104//22 138//22 136//22
f 104//22 136//22 103//22
f 103//23 136//23 134//23
f 145//1 146//1 147//1
f 147//1 146//1 148//1
f 147//1 148//1 149//1
f 149//1 148//1 150//1
f 149//1 150//1 151//1
f 151//1 150//1 152//1
f 151//1 152//1 153//1
f 153//1 152//1 154//1
f 153//1 154//1 155//1
f 146//1 145//1 156//1
f 156//1 145//1 157//1
f 156//1 157//1 158//1
f 158//1 157//1 159//1
f 158//1 159//1 160//1
f 149//24 119//24 147//24
f 147//25 119//25 118//25
f 147//25 118//25 145//25
f 145//5 118//5 117//5
f 145//4 117//4 157//4
f 157//6 117//6 116//6
f 157//6 116//6 159//6
f 159//26 116//26 115//26
f 159//26 115//26 160//26
f 160//27 115//27 114//27
f 160//27 114//27 158//27
f 158//10 114//10 113//10
f 158//10 113//10 156//10
f 156//13 113//13 127//13
f 156//12 127//12 146//12
f 146//28 127//28 148//28
f 148//28 127//28 126//28
f 148//29 126//29 150//29
f 150//29 126//29 128//29
f 150//23 128//23 125//23
f 119//24 149//24 120//24
f 120//18 149//18 151//18
f 120//17 151//17 121//17
f 121//30 151//30 153//30
f 121//19 153//19 122//19
f 122//31 153//31 155//31
f 122//31 155//31 123//31
f 123//32 155//32 154//32
f 123//32 154//32 124//32
f 124//33 154//33 152//33
f 124//22 152//22 125//22
f 125//16 152//16 150//16
f 161//1 162//1 163//1
f 163//1 162//1 164//1
f 163//1 164//1 165//1
f 165//1 164//1 166//1
f 165//1 166//1 167//1
f 167//1 166//1 168//1
f 167//1 168//1 169//1
f 169//1 168//1 170//1
f 169//1 170//1 171//1
f 162//1 161//1 172//1
f 172//1 161//1 173//1
f 172//1 173//1 174//1
f 174//1 173//1 175//1
f 174//1 175//1 176//1
f 165//24 89//24 163//24
f 163//25 89//25 90//25
f 163//25 90//25 161//25
f 161//5 90//5 91//5
f 161//4 91//4 173//4
f 173//6 91//6 92//6
f 173//7 92//7 175//7
f 175//26 92//26 93//26
f 175//26 93//26 176//26
f 176//27 93//27 94//27
f 176//27 94//27 174//27
f 174//10 94//10 95//10
f 174//11 95//11 172//11
f 172//13 95//13 96//13
f 172//12 96//12 162//12
f 162//28 96//28 164//28
f 164//28 96//28 81//28
f 164//29 81//29 166//29
f 166//29 81//29 82//29
f 166//16 82//16 83//16
f 89//24 165//24 88//24
f 88//17 165//17 167//17
f 88//18 167//18 87//18
f 87//19 167//19 169//19
f 87//19 169//19 86//19
f 86//31 169//31 171//31
f 86//31 171//31 85//31
f 85//32 171//32 170//32
f 85//32 170//32 84//32
f 84//22 170//22 168//22
f 84//22 168//22 83//22
f 83//23 168//23 166//23
f 177//1 178//1 179//1
f 179//1 178//1 180//1
f 179//1 180//1 181//1
f 181//1 180//1 182//1
f 181//1 182//1 183//1
f 183//1 182//1 184//1
f 183//1 184//1 185//1
f 185//1 184//1 186//1
f 185//1 186//1 187//1
f 178//1 177//1 188//1
f 188//1 177//1 189//1
f 188//1 189//1 190//1
f 190//1 189//1 191//1
f 190//1 191//1 192//1
f 181//34 59//34 179//34
f 179//35 59//35 58//35
f 179//35 58//35 177//35
f 177//5 58//5 57//5
f 177//4 57//4 189//4
f 189//6 57//6 56//6
f 189//7 56//7 191//7
f 191//36 56//36 55//36
f 191//36 55//36 192//36
f 192//37 55//37 54//37
f 192//37 54//37 190//37
f 190//10 54//10 53//10
f 190//11 53//11 188//11
f 188//13 53//13 52//13
f 188//12 52//12 178//12
f 178//38 52//38 180//38
f 180//38 52//38 51//38
f 180//39 51//39 182//39
f 182//39 51//39 50//39
f 182//16 50//16 49//16
f 59//34 181//34 60//34
f 60//17 181//17 183//17
f 60//18 183//18 61//18
f 61//19 183//19 185//19
f 61//19 185//19 64//19
f 64//40 185//40 187//40
f 64//40 187//40 62//40
f 62//41 187//41 186//41
f 62//41 186//41 63//41
f 63//22 186//22 184//22
f 63//22 184//22 49//22
f 49//23 184//23 182//23
f 193//1 194//1 195//1
f 195//1 194//1 196//1
f 195//1 196//1 197//1
f 197//1 196//1 198//1
f 197//1 198//1 199//1
f 199//1 198//1 200//1
f 199//1 200//1 201//1
f 201//1 200//1 202//1
f 201//1 202//1 203//1
f 194//1 193//1 204//1
f 204//1 193//1 205//1
f 204//1 205//1 206//1
f 206//1 205//1 207//1
f 206//1 207//1 208//1
f 197//34 21//34 195//34
f 195//35 21//35 22//35
f 195//35 22//35 193//35
f 193//5 22//5 23//5
f 193//4 23//4 205//4
f 205//6 23//6 24//6
f 205//6 24//6 207//6
f 207//36 24//36 25//36
f 207//36 25//36 208//36
f 208//37 25//37 26//37
f 208//37 26//37 206//37
f 206//10 26//10 27//10
f 206//10 27//10 204//10
f 204//13 27//13 28//13
f 204//12 28//12 194//12
f 194//38 28//38 196//38
f 196//38 28//38 29//38
f 196//39 29//39 198//39
f 198//39 29//39 30//39
f 198//23 30//23 31//23
f 21//34 197//34 20//34
f 20//18 197//18 199//18
f 20//17 199//17 19//17
f 19//30 199//30 201//30
f 19//19 201//19 18//19
f 18//40 201//40 203//40
f 18//40 203//40 17//40
f 17//41 203//41 202//41
f 17//41 202//41 32//41
f 32//33 202//33 200//33
f 32//22 200//22 31//22
f 31//16 200//16 198//16
f 209//1 210//1 211//1
f 211//1 210//1 212//1
f 211//1 212//1 213//1
f 213//1 212//1 214//1
f 213//1 214//1 215//1
f 215//1 214//1 216//1
f 215//1 216//1 217//1
f 217//1 216//1 218//1
f 217//1 218//1 219//1
f 210//1 209//1 220//1
f 220//1 209//1 221//1
f 220//1 221//1 222//1
f 222//1 221//1 223//1
f 222//1 223//1 224//1
f 213//42 14//42 211//42
f 211//43 14//43 16//43
f 211//43 16//43 209//43
f 209//4 16//4 13//4
f 209//5 13//5 221//5
f 221//6 13//6 12//6
f 221//7 12//7 223//7
f 223//44 12//44 11//44
f 223//44 11//44 224//44
f 224//45 11//45 10//45
f 224//45 10//45 222//45
f 222//10 10//10 9//10
f 222//11 9//11 220//11
f 220//12 9//12 8//12
f 220//13 8//13 210//13
f 210//46 8//46 212//46
f 212//46 8//46 7//46
f 212//47 7//47 214//47
f 214//47 7//47 6//47
f 214//16 6//16 5//16
f 14//42 213//42 15//42
f 15//17 213//17 215//17
f 15//18 215//18 1//18
f 1//19 215//19 217//19
f 1//19 217//19 2//19
f 2//48 217//48 219//48
f 2//48 219//48 3//48
f 3//49 219//49 218//49
f 3//49 218//49 4//49
f 4//22 218//22 216//22
f 4//22 216//22 5//22
f 5//23 216//23 214//23
f 225//1 226//1 227//1
f 227//1 226//1 228//1
f 227//1 228//1 229//1
f 229//1 228//1 230//1
f 229//1 230//1 231//1
f 231//1 230//1 232//1
f 231//1 232//1 233//1
f 233//1 232//1 234//1
f 233//1 234//1 235//1
f 226//1 225//1 236//1
f 236//1 225//1 237//1
f 236//1 237//1 238//1
f 238//1 237//1 239//1
f 238//1 239//1 240//1
f 229//42 33//42 227//42
f 227//43 33//43 34//43
f 227//43 34//43 225//43
f 225//5 34//5 35//5
f 225//4 35//4 237//4
f 237//6 35//6 36//6
f 237//6 36//6 239//6
f 239//44 36//44 37//44
f 239//44 37//44 240//44
f 240//45 37//45 38//45
f 240//45 38//45 238//45
f 238//10 38//10 39//10
f 238//10 39//10 236//10
f 236//13 39//13 40//13
f 236//12 40//12 226//12
f 226//46 40//46 228//46
f 228//46 40//46 41//46
f 228//47 41//47 230//47
f 230//47 41//47 42//47
f 230//16 42//16 43//16
f 33//42 229//42 48//42
f 48//17 229//17 231//17
f 48//18 231//18 47//18
f 47//30 231//30 233//30
f 47//19 233//19 46//19
f 46//48 233//48 235//48
f 46//48 235//48 45//48
f 45//49 235//49 234//49
f 45//49 234//49 44//49
f 44//33 234//33 232//33
f 44//22 232//22 43//22
f 43//23 232//23 230//23
f 241//1 242//1 243//1
f 243//1 242//1 244//1
f 243//1 244//1 245//1
f 245//1 244//1 246//1
f 245//1 246//1 247//1
f 247//1 246//1 248//1
f 247//1 248//1 249//1
f 249//1 248//1 250//1
f 249//1 250//1 251//1
f 242//1 241//1 252//1
f 252//1 241//1 253//1
f 252//1 253//1 254//1
f 254//1 253//1 255//1
f 254//1 255//1 256//1
f 245//2 67//2 243//2
f 243//3 67//3 66//3
f 243//3 66//3 241//3
f 241//5 66//5 65//5
f 241//4 65//4 253//4
f 253//6 65//6 79//6
f 253//6 79//6 255//6
f 255//8 79//8 78//8
f 255//8 78//8 256//8
f 256//9 78//9 80//9
f 256//9 80//9 254//9
f 254//10 80//10 77//10
f 254//10 77//10 252//10
f 252//13 77//13 76//13
f 252//12 76//12 242//12
f 242//14 76//14 244//14
f 244//14 76//14 75//14
f 244//15 75//15 246//15
f 246//15 75//15 74//15
f 246//16 74//16 73//16
f 67//2 245//2 68//2
f 68//17 245//17 247//17
f 68//18 247//18 69//18
f 69//30 247//30 249//30
f 69//19 249//19 70//19
f 70//20 249//20 251//20
f 70//20 251//20 71//20
f 71//21 251//21 250//21
f 71//21 250//21 72//21
f 72//33 250//33 248//33
f 72//22 248//22 73//22
f 73//23 248//23 246//23
