# Blender 4.2.3 LTS
# www.blender.org
o link_2__m2
v 0.040978 0.054266 0.564500
v 0.033676 0.059076 0.564500
v 0.025817 0.062908 0.564500
v 0.017531 0.065701 0.564500
v 0.008955 0.067408 0.564500
v 0.000232 0.068000 0.564500
v 0.047603 0.048559 0.564500
v 0.053441 0.042049 0.564500
v 0.058395 0.034844 0.564500
v 0.062383 0.027062 0.564500
v 0.065340 0.018833 0.564500
v 0.067216 0.010293 0.564500
v 0.067982 0.001583 0.564500
v 0.067992 0.001056 0.564500
v 0.067998 0.000529 0.564500
v 0.068000 0.000002 0.564500
v -0.067982 0.001583 0.564500
v -0.067992 0.001056 0.564500
v -0.068000 0.000001 0.564500
v -0.067998 0.000529 0.564500
v 0.067900 -0.003719 0.564500
v 0.067496 -0.008267 0.564499
v 0.066625 -0.013612 0.564498
v 0.065090 -0.019678 0.564498
v 0.062681 -0.026366 0.564498
v 0.059175 -0.033501 0.564499
v 0.056942 -0.037170 0.564499
v 0.054354 -0.040861 0.564499
v 0.051388 -0.044534 0.564500
v 0.048024 -0.048142 0.564500
v 0.041855 -0.053592 0.564500
v 0.035451 -0.058027 0.564501
v 0.028984 -0.061514 0.564501
v 0.022610 -0.064131 0.564502
v 0.016449 -0.065982 0.564501
v 0.010584 -0.067173 0.564501
v 0.005081 -0.067810 0.564500
v 0.000000 -0.068000 0.564500
v -0.048129 -0.048037 0.564500
v -0.041943 -0.053524 0.564500
v -0.035523 -0.057983 0.564501
v -0.029046 -0.061484 0.564501
v -0.022655 -0.064115 0.564502
v -0.016475 -0.065975 0.564501
v -0.010601 -0.067171 0.564501
v -0.005090 -0.067810 0.564500
v -0.051463 -0.044448 0.564500
v -0.054404 -0.040795 0.564499
v -0.056974 -0.037121 0.564499
v -0.059194 -0.033467 0.564499
v -0.062682 -0.026364 0.564498
v -0.065084 -0.019700 0.564498
v -0.066618 -0.013646 0.564498
v -0.067491 -0.008303 0.564499
v -0.067898 -0.003743 0.564500
v -0.047437 0.048720 0.564500
v -0.040763 0.054428 0.564500
v -0.033408 0.059228 0.564500
v -0.025496 0.063039 0.564500
v -0.017158 0.065800 0.564500
v -0.008534 0.067462 0.564500
v -0.053321 0.042200 0.564500
v -0.058315 0.034976 0.564500
v -0.062337 0.027168 0.564500
v -0.065318 0.018908 0.564500
v -0.067211 0.010331 0.564500
v 0.067338 -0.009464 0.597300
v 0.068000 0.000000 0.597300
v 0.067338 0.009464 0.597300
v 0.065366 0.018743 0.597300
v 0.062121 0.027658 0.597300
v 0.057667 0.036035 0.597300
v 0.052091 0.043710 0.597300
v 0.045501 0.050534 0.597300
v 0.038025 0.056375 0.597300
v 0.029809 0.061118 0.597300
v 0.021013 0.064672 0.597300
v 0.011808 0.066967 0.597300
v 0.002373 0.067959 0.597300
v -0.007108 0.067627 0.597300
v -0.016451 0.065980 0.597300
v -0.025473 0.063049 0.597300
v -0.034000 0.058890 0.597300
v -0.041865 0.053585 0.597300
v -0.048915 0.047237 0.597300
v -0.055013 0.039969 0.597300
v -0.060040 0.031924 0.597300
v -0.063899 0.023257 0.597300
v -0.066514 0.014138 0.597300
v -0.067834 0.004743 0.597300
v -0.067834 -0.004743 0.597300
v -0.066514 -0.014138 0.597300
v -0.063899 -0.023257 0.597300
v -0.060040 -0.031924 0.597300
v -0.055013 -0.039969 0.597300
v -0.048915 -0.047237 0.597300
v -0.041865 -0.053585 0.597300
v -0.034000 -0.058890 0.597300
v -0.025473 -0.063049 0.597300
v -0.016451 -0.065980 0.597300
v -0.007108 -0.067627 0.597300
v 0.002373 -0.067959 0.597300
v 0.011808 -0.066967 0.597300
v 0.021013 -0.064672 0.597300
v 0.029809 -0.061118 0.597300
v 0.038025 -0.056375 0.597300
v 0.045501 -0.050534 0.597300
v 0.052091 -0.043710 0.597300
v 0.057667 -0.036035 0.597300
v 0.062121 -0.027658 0.597300
v 0.065366 -0.018743 0.597300
v 0.023718 0.063729 0.572884
v 0.021410 0.064541 0.572884
v 0.019352 0.065188 0.576027
v 0.018859 0.065333 0.575060
v 0.017853 0.065615 0.573960
v 0.015526 0.066204 0.572818
v 0.012943 0.066757 0.572582
v 0.010502 0.067184 0.572582
v 0.008047 0.067522 0.572582
v 0.005581 0.067771 0.572582
v 0.002975 0.067935 0.572811
v 0.000601 0.067997 0.573917
v -0.000331 0.068000 0.574831
v -0.000988 0.067993 0.575964
v -0.001299 0.067988 0.577236
v -0.005884 0.067745 0.572884
v -0.005884 0.067745 0.589151
v 0.025996 0.062835 0.572884
v 0.028240 0.061859 0.572884
v 0.034602 0.058538 0.579130
v 0.036555 0.057339 0.572884
v 0.035258 0.058145 0.579130
v 0.035908 0.057746 0.579130
v 0.036555 0.057339 0.579130
v 0.038002 0.056390 0.572884
v 0.039424 0.055405 0.572884
v 0.040821 0.054384 0.572884
v 0.040821 0.054384 0.589151
v 0.047992 -0.048174 0.572884
v 0.046555 -0.049564 0.572884
v 0.045078 -0.050912 0.572884
v 0.039424 0.055405 0.589151
v 0.038002 0.056390 0.589151
v 0.036555 0.057339 0.589151
v 0.034482 0.058609 0.583174
v 0.028240 0.061859 0.589151
v 0.025996 0.062835 0.589151
v 0.036555 0.057339 0.583174
v 0.035869 0.057771 0.583174
v 0.035178 0.058194 0.583174
v 0.023718 0.063729 0.589151
v 0.021410 0.064541 0.589151
v 0.026066 0.062806 0.585174
v 0.026073 0.062803 0.577047
v 0.030582 0.060735 0.581197
v 0.019681 0.065090 0.578553
v 0.019681 0.065090 0.589151
v 0.018018 0.065569 0.589151
v 0.016344 0.066006 0.589151
v 0.014660 0.066401 0.589151
v 0.011817 0.066965 0.576757
v 0.012967 0.066752 0.576890
v 0.013951 0.066553 0.577498
v 0.014534 0.066429 0.578487
v 0.014660 0.066401 0.579630
v 0.010124 0.067242 0.576757
v 0.008426 0.067476 0.576757
v 0.003832 0.067892 0.589151
v 0.006722 0.067667 0.576757
v 0.005555 0.067773 0.576891
v 0.004562 0.067847 0.577492
v 0.003961 0.067885 0.578484
v 0.003832 0.067892 0.579630
v 0.002103 0.067967 0.589151
v 0.000374 0.067999 0.589151
v -0.001356 0.067986 0.589151
v -0.007606 0.067573 0.589151
v -0.001356 0.067986 0.578553
v -0.020242 0.064917 0.589151
v -0.013425 0.066662 0.583174
v -0.011033 0.067099 0.589151
v -0.012630 0.066817 0.583174
v -0.011832 0.066963 0.583174
v -0.011033 0.067099 0.583174
v -0.022565 0.064147 0.589151
v -0.024858 0.063293 0.589151
v -0.027120 0.062358 0.589151
v -0.033875 0.058962 0.589151
v -0.036987 0.057061 0.589151
v -0.023657 0.063752 0.586164
v -0.027120 0.062358 0.572884
v -0.027748 0.062081 0.572884
v -0.017748 0.065643 0.581197
v -0.022501 0.064169 0.577034
v -0.024858 0.063293 0.572884
v -0.022565 0.064147 0.572884
v -0.020242 0.064917 0.572884
v -0.013288 0.066689 0.579130
v -0.011033 0.067099 0.572884
v -0.009323 0.067358 0.572884
v -0.012538 0.066834 0.579130
v -0.011786 0.066971 0.579130
v -0.011033 0.067099 0.579130
v -0.007606 0.067573 0.572884
v -0.009323 0.067358 0.589151
v -0.028240 -0.061859 0.589151
v -0.034482 -0.058609 0.583174
v -0.036555 -0.057339 0.589151
v -0.035178 -0.058194 0.583174
v -0.035869 -0.057771 0.583174
v -0.036555 -0.057339 0.583174
v -0.025996 -0.062835 0.589151
v -0.023718 -0.063729 0.589151
v -0.021410 -0.064541 0.589151
v -0.019681 -0.065090 0.589151
v -0.018018 -0.065569 0.589151
v -0.026073 -0.062803 0.585168
v -0.026066 -0.062806 0.577040
v -0.021410 -0.064541 0.572884
v -0.019681 -0.065090 0.578553
v -0.019629 -0.065105 0.577267
v -0.019347 -0.065190 0.576013
v -0.030582 -0.060735 0.581197
v -0.023718 -0.063729 0.572884
v -0.025996 -0.062835 0.572884
v -0.028240 -0.061859 0.572884
v -0.034602 -0.058538 0.579130
v -0.035258 -0.058145 0.579130
v -0.035908 -0.057746 0.579130
v -0.036555 -0.057339 0.579130
v -0.036555 -0.057339 0.572884
v -0.038002 -0.056390 0.572884
v -0.039424 -0.055405 0.572884
v -0.040821 -0.054384 0.572884
v -0.040821 -0.054384 0.589151
v -0.039424 -0.055405 0.589151
v -0.038002 -0.056390 0.589151
v -0.002957 -0.067936 0.572815
v -0.005581 -0.067771 0.572582
v -0.008047 -0.067522 0.572582
v -0.010502 -0.067184 0.572582
v -0.012943 -0.066757 0.572582
v -0.015513 -0.066207 0.572815
v -0.017842 -0.065617 0.573951
v -0.018733 -0.065369 0.574882
v -0.016344 -0.066006 0.589151
v -0.014660 -0.066401 0.589151
v -0.011817 -0.066965 0.576757
v -0.012977 -0.066750 0.576893
v -0.013957 -0.066552 0.577504
v -0.014537 -0.066428 0.578496
v -0.014660 -0.066401 0.579630
v -0.010124 -0.067242 0.576757
v -0.008426 -0.067476 0.576757
v -0.006722 -0.067667 0.576757
v -0.005565 -0.067772 0.576887
v -0.003832 -0.067892 0.589151
v -0.004568 -0.067846 0.577486
v -0.003832 -0.067892 0.579630
v -0.003964 -0.067884 0.578473
v -0.002103 -0.067967 0.589151
v -0.000374 -0.067999 0.589151
v 0.001356 -0.067986 0.589151
v 0.001356 -0.067986 0.578553
v 0.005884 -0.067745 0.589151
v 0.005884 -0.067745 0.572884
v 0.007606 -0.067573 0.572884
v 0.009323 -0.067358 0.572884
v 0.011033 -0.067099 0.572884
v 0.011786 -0.066971 0.579130
v 0.011033 -0.067099 0.579130
v 0.000993 -0.067993 0.575977
v 0.000453 -0.067999 0.574994
v -0.000589 -0.067997 0.573926
v 0.012630 -0.066817 0.583174
v 0.013425 -0.066662 0.583174
v 0.020242 -0.064917 0.589151
v 0.022565 -0.064147 0.589151
v 0.024858 -0.063293 0.589151
v 0.027120 -0.062358 0.589151
v 0.027748 -0.062081 0.572884
v 0.027120 -0.062358 0.572884
v 0.024858 -0.063293 0.572884
v 0.022565 -0.064147 0.572884
v 0.020242 -0.064917 0.572884
v 0.023657 -0.063752 0.576006
v 0.022501 -0.064169 0.585180
v 0.017748 -0.065643 0.581197
v 0.013288 -0.066689 0.579130
v 0.012538 -0.066834 0.579130
v 0.007606 -0.067573 0.589151
v 0.009323 -0.067358 0.589151
v 0.011033 -0.067099 0.589151
v 0.011033 -0.067099 0.583174
v 0.011832 -0.066963 0.583174
v 0.043561 -0.052215 0.572884
v 0.043251 -0.052472 0.573835
v 0.042940 -0.052727 0.574787
v 0.042627 -0.052980 0.575738
v 0.039904 -0.055061 0.575738
v 0.037078 -0.057002 0.575738
v 0.034159 -0.058798 0.575738
v 0.033110 -0.059395 0.572884
v 0.031349 -0.060343 0.572884
v 0.029561 -0.061238 0.572884
v 0.033875 -0.058962 0.589151
v 0.036987 -0.057061 0.589151
v 0.039992 -0.054997 0.589151
v 0.042882 -0.052774 0.589151
v -0.039992 0.054997 0.589151
v -0.042882 0.052774 0.589151
v -0.047992 0.048174 0.572884
v -0.046555 0.049564 0.572884
v -0.045078 0.050912 0.572884
v -0.043561 0.052215 0.572884
v -0.043251 0.052472 0.573835
v -0.042940 0.052727 0.574787
v -0.042627 0.052980 0.575738
v -0.039904 0.055061 0.575738
v -0.037078 0.057002 0.575738
v -0.034159 0.058798 0.575738
v -0.033110 0.059395 0.572884
v -0.031349 0.060343 0.572884
v -0.029561 0.061238 0.572884
v 0.037524 -0.056709 0.585107
v 0.037007 -0.057048 0.583645
v 0.036487 -0.057382 0.582182
v 0.035964 -0.057711 0.580720
v 0.035437 -0.058036 0.579258
v 0.037493 -0.056730 0.579258
v 0.039501 -0.055351 0.579258
v 0.041458 -0.053901 0.579258
v 0.040966 -0.054275 0.580720
v 0.040471 -0.054646 0.582182
v 0.039972 -0.055011 0.583644
v 0.039470 -0.055372 0.585107
v 0.038827 -0.055825 0.585107
v 0.038178 -0.056271 0.585107
v -0.039470 0.055372 0.585107
v -0.041458 0.053901 0.579258
v -0.039501 0.055351 0.579258
v -0.037493 0.056730 0.579258
v -0.035437 0.058036 0.579258
v -0.037524 0.056709 0.585107
v -0.038178 0.056271 0.585107
v -0.038827 0.055825 0.585107
vn 0.3319 0.9433 -0.0093
vn 0.3194 0.9475 -0.0167
vn 0.2944 0.9557 -0.0040
vn 0.2871 0.9579 -0.0027
vn 0.2704 0.9628 -0.0005
vn 0.2452 0.9695 0.0005
vn 0.2101 0.9776 -0.0085
vn 0.1952 0.9806 -0.0173
vn 0.1723 0.9850 -0.0057
vn 0.1364 0.9907 0.0014
vn 0.1005 0.9949 -0.0027
vn 0.0677 0.9976 -0.0165
vn 0.0617 0.9980 -0.0126
vn 0.0258 0.9997 -0.0007
vn 0.0034 1.0000 0.0002
vn -0.0118 0.9999 -0.0006
vn -0.0240 0.9997 -0.0020
vn -0.0483 0.9988 -0.0049
vn -0.0529 0.9986 -0.0000
vn 0.3653 0.9309 0.0003
vn 0.3989 0.9170 -0.0005
vn 0.4382 0.8988 -0.0142
vn 0.4600 0.8879 0.0035
vn 0.5197 0.8543 -0.0015
vn 0.5139 0.8578 -0.0040
vn 0.5232 0.8522 -0.0013
vn 0.5325 0.8465 -0.0000
vn 0.5484 0.8361 -0.0151
vn 0.5500 0.8350 -0.0163
vn 0.5694 0.8220 -0.0061
vn 0.5901 0.8074 -0.0003
vn 0.6009 0.7994 -0.0000
vn 0.6349 0.7726 0.0003
vn 0.6527 0.7576 -0.0038
vn 0.7193 0.6947 0.0043
vn 0.7445 0.6676 -0.0032
vn 0.8090 0.5878 0.0035
vn 0.8240 0.5666 -0.0023
vn 0.8830 0.4695 0.0026
vn 0.8899 0.4561 -0.0012
vn 0.9397 0.3420 0.0013
vn 0.9411 0.3382 0.0002
vn 0.9767 0.2146 -0.0002
vn 0.9782 0.2079 0.0016
vn 0.9962 0.0876 -0.0015
vn 0.9976 0.0698 0.0028
vn 0.9998 0.0190 0.0004
vn 0.9999 0.0114 0.0001
vn 1.0000 0.0038 -0.0000
vn 0.9996 -0.0269 -0.0000
vn 0.9976 -0.0698 0.0049
vn 0.9961 -0.0885 0.0016
vn 0.9870 -0.1608 -0.0011
vn 0.9781 -0.2079 0.0050
vn 0.9694 -0.2453 -0.0012
vn 0.9408 -0.3389 0.0017
vn 0.9397 -0.3420 0.0026
vn 0.8975 -0.4410 -0.0020
vn 0.8829 -0.4695 0.0043
vn 0.8542 -0.5199 -0.0009
vn 0.8188 -0.5741 0.0018
vn 0.8090 -0.5878 0.0048
vn 0.7780 -0.6283 -0.0009
vn 0.7328 -0.6805 0.0014
vn 0.7314 -0.6819 0.0002
vn 0.6953 -0.7188 -0.0001
vn 0.6741 -0.7386 -0.0072
vn 0.6156 0.7879 0.0187
vn 0.5900 0.8074 0.0052
vn 0.5694 0.8220 -0.0001
vn 0.5484 0.8362 -0.0000
vn 0.4925 0.8702 0.0141
vn 0.4999 0.8660 0.0116
vn 0.4565 0.8897 -0.0070
vn 0.3988 0.9170 0.0066
vn 0.5329 0.8462 -0.0000
vn 0.5221 0.8529 0.0017
vn 0.5121 0.8589 0.0049
vn 0.3745 0.9270 0.0201
vn 0.3653 0.9308 0.0135
vn 0.3319 0.9433 0.0010
vn 0.3134 0.9496 -0.0000
vn 0.3492 0.9371 -0.0000
vn 0.3493 0.9370 -0.0000
vn 0.4169 0.9090 -0.0000
vn 0.2975 0.9547 -0.0017
vn 0.3026 0.9531 -0.0000
vn 0.3007 0.9537 -0.0002
vn 0.2768 0.9609 0.0040
vn 0.2526 0.9675 0.0137
vn 0.2419 0.9701 0.0202
vn 0.2283 0.9735 0.0123
vn 0.1946 0.9809 -0.0000
vn 0.1818 0.9833 0.0031
vn 0.1978 0.9802 0.0008
vn 0.2079 0.9782 0.0001
vn 0.2169 0.9762 -0.0000
vn 0.1615 0.9869 -0.0000
vn 0.1365 0.9906 0.0021
vn 0.1083 0.9941 0.0068
vn 0.1114 0.9937 0.0079
vn 0.0908 0.9959 0.0031
vn 0.0748 0.9972 0.0008
vn 0.0633 0.9980 0.0001
vn 0.0542 0.9985 -0.0000
vn 0.1046 0.9945 0.0105
vn 0.0433 0.9991 -0.0005
vn 0.0185 0.9998 0.0004
vn -0.0075 0.9999 0.0068
vn -0.0350 0.9992 0.0193
vn -0.0531 0.9986 0.0065
vn -0.0994 0.9950 -0.0005
vn -0.0531 0.9986 -0.0000
vn -0.0552 0.9985 -0.0009
vn -0.2544 0.9671 -0.0078
vn -0.1938 0.9810 0.0058
vn -0.1914 0.9815 0.0048
vn -0.1800 0.9837 0.0017
vn -0.1678 0.9858 -0.0000
vn -0.3089 0.9509 0.0197
vn -0.3146 0.9491 0.0156
vn -0.3490 0.9371 0.0017
vn -0.3820 0.9242 -0.0012
vn -0.4384 0.8987 0.0124
vn -0.4492 0.8934 0.0010
vn -0.5213 0.8534 -0.0005
vn -0.3734 0.9277 -0.0000
vn -0.4036 0.9150 -0.0000
vn -0.4492 0.8934 0.0021
vn -0.3006 0.9537 0.0055
vn -0.3624 0.9320 -0.0033
vn -0.4036 0.9149 -0.0039
vn -0.3820 0.9242 0.0011
vn -0.3490 0.9371 -0.0018
vn -0.3146 0.9491 -0.0154
vn -0.3143 0.9492 -0.0156
vn -0.2540 0.9672 0.0084
vn -0.1892 0.9819 -0.0096
vn -0.3338 0.9408 -0.0588
vn -0.1498 0.9887 -0.0018
vn -0.1898 0.9818 -0.0041
vn -0.1792 0.9838 -0.0014
vn -0.1676 0.9859 -0.0000
vn -0.1243 0.9923 0.0006
vn -0.0994 0.9950 -0.0022
vn -0.0613 0.9980 -0.0143
vn -0.1242 0.9923 0.0010
vn -0.1498 0.9887 0.0081
vn -0.1736 0.9846 0.0198
vn -0.4603 -0.8877 -0.0020
vn -0.5207 -0.8537 0.0008
vn -0.5121 -0.8589 0.0049
vn -0.5221 -0.8529 0.0017
vn -0.5329 -0.8462 -0.0000
vn -0.4383 -0.8986 0.0176
vn -0.3988 -0.9170 0.0015
vn -0.3653 -0.9309 -0.0010
vn -0.3319 -0.9433 0.0072
vn -0.3089 -0.9509 0.0201
vn -0.3026 -0.9530 0.0159
vn -0.2768 -0.9609 0.0048
vn -0.3493 -0.9370 -0.0000
vn -0.3492 -0.9371 -0.0000
vn -0.3026 -0.9531 -0.0000
vn -0.2997 -0.9540 -0.0010
vn -0.2972 -0.9548 -0.0021
vn -0.2931 -0.9561 -0.0051
vn -0.2882 -0.9575 -0.0066
vn -0.4169 -0.9090 -0.0000
vn -0.3319 -0.9433 0.0014
vn -0.3653 -0.9309 -0.0035
vn -0.3807 -0.9247 -0.0105
vn -0.3988 -0.9170 -0.0027
vn -0.4593 -0.8883 0.0044
vn -0.4755 -0.8797 -0.0034
vn -0.5139 -0.8578 -0.0002
vn -0.5232 -0.8522 -0.0000
vn -0.5325 -0.8465 -0.0000
vn -0.5308 -0.8475 -0.0002
vn -0.5484 -0.8362 -0.0033
vn -0.5694 -0.8220 -0.0122
vn -0.5704 -0.8213 -0.0129
vn -0.5901 -0.8074 -0.0039
vn -0.6083 -0.7937 -0.0000
vn -0.6079 -0.7940 -0.0000
vn -0.5901 -0.8074 0.0036
vn -0.5694 -0.8220 0.0130
vn -0.5591 -0.8289 0.0203
vn -0.5484 -0.8361 0.0128
vn -0.0628 -0.9980 0.0010
vn -0.1005 -0.9949 -0.0013
vn -0.1152 -0.9933 -0.0067
vn -0.1364 -0.9907 0.0001
vn -0.1723 -0.9850 0.0005
vn -0.1995 -0.9799 -0.0076
vn -0.2095 -0.9778 -0.0030
vn -0.2450 -0.9695 0.0013
vn -0.2708 -0.9626 -0.0027
vn -0.2935 -0.9559 -0.0080
vn -0.2526 -0.9676 -0.0002
vn -0.2284 -0.9736 0.0001
vn 0.5328 -0.8310 0.1600
vn -0.1819 -0.9833 0.0030
vn -0.1976 -0.9803 0.0008
vn -0.2090 -0.9779 0.0001
vn -0.2144 -0.9767 -0.0000
vn -0.1736 -0.9848 0.0081
vn -0.1615 -0.9869 0.0052
vn -0.1365 -0.9906 0.0015
vn -0.1114 -0.9938 -0.0002
vn -0.0904 -0.9959 0.0002
vn -0.0776 -0.9970 0.0012
vn -0.0745 -0.9972 0.0008
vn -0.0624 -0.9981 -0.0000
vn -0.0633 -0.9980 0.0003
vn -0.0433 -0.9989 0.0151
vn -0.0350 -0.9992 0.0202
vn -0.0185 -0.9998 0.0111
vn 0.0075 -1.0000 0.0024
vn 0.0265 -0.9996 -0.0000
vn 0.0437 -0.9990 -0.0009
vn 0.0622 -0.9981 0.0006
vn 0.0807 -0.9967 -0.0000
vn 0.0994 -0.9950 -0.0018
vn 0.1150 -0.9933 -0.0066
vn 0.1242 -0.9922 -0.0032
vn 0.1498 -0.9887 0.0007
vn 0.1715 -0.9852 -0.0005
vn 0.1676 -0.9859 -0.0000
vn 0.0374 -0.9993 -0.0026
vn 0.0387 -0.9992 -0.0027
vn 0.0119 -0.9999 -0.0004
vn -0.0021 -1.0000 0.0002
vn -0.0252 -0.9997 -0.0013
vn -0.0373 -0.9993 -0.0056
vn 0.1914 -0.9815 0.0007
vn 0.2424 -0.9702 0.0068
vn 0.2419 -0.9703 0.0063
vn 0.3146 -0.9492 -0.0012
vn 0.3490 -0.9371 0.0061
vn 0.3746 -0.9270 0.0199
vn 0.3820 -0.9241 0.0146
vn 0.4172 -0.9088 0.0006
vn 0.4036 -0.9150 -0.0000
vn 0.4036 -0.9150 -0.0024
vn 0.3820 -0.9241 -0.0081
vn 0.3798 -0.9250 -0.0094
vn 0.3490 -0.9371 0.0001
vn 0.3146 -0.9492 -0.0001
vn 0.3734 -0.9277 -0.0000
vn 0.3625 -0.9320 0.0033
vn 0.3004 -0.9538 -0.0055
vn 0.2877 -0.9577 -0.0085
vn 0.2537 -0.9672 0.0081
vn 0.1990 -0.9800 -0.0044
vn 0.1898 -0.9818 -0.0026
vn 0.1792 -0.9838 -0.0011
vn 0.0994 -0.9949 0.0167
vn 0.1045 -0.9943 0.0200
vn 0.1242 -0.9922 0.0097
vn 0.1498 -0.9887 0.0018
vn 0.1679 -0.9858 -0.0000
vn 0.1678 -0.9858 -0.0000
vn 0.1800 -0.9837 -0.0000
vn 0.6516 -0.7586 -0.0080
vn 0.6344 -0.7730 -0.0021
vn 0.6315 -0.7754 -0.0014
vn 0.6274 -0.7787 -0.0007
vn 0.6072 -0.7945 0.0016
vn 0.5693 -0.8221 -0.0086
vn 0.5661 -0.8243 -0.0068
vn 0.5240 -0.8517 0.0018
vn 0.4989 -0.8666 -0.0021
vn 0.4746 -0.8801 -0.0111
vn 0.4740 -0.8805 -0.0107
vn 0.4476 -0.8942 -0.0014
vn 0.4216 -0.9068 0.0008
vn 0.4621 -0.8868 -0.0040
vn 0.4999 -0.8659 0.0203
vn 0.5213 -0.8534 0.0054
vn 0.5662 -0.8243 -0.0027
vn 0.6096 -0.7926 0.0131
vn 0.6156 -0.7879 0.0187
vn 0.6596 -0.7516 -0.0054
vn 0.7193 -0.6947 0.0062
vn 0.6620 -0.7494 -0.0150
vn -0.5591 0.8289 0.0189
vn -0.5661 0.8242 0.0127
vn -0.6097 0.7926 -0.0028
vn -0.6954 0.7184 0.0153
vn -0.6691 0.7431 0.0032
vn -0.7445 0.6676 -0.0025
vn -0.7661 0.6427 0.0042
vn -0.8226 0.5686 -0.0038
vn -0.8480 0.5299 0.0047
vn -0.8890 0.4579 -0.0041
vn -0.9135 0.4068 0.0050
vn -0.9406 0.3395 -0.0043
vn -0.9612 0.2757 0.0050
vn -0.9765 0.2155 -0.0043
vn -0.9903 0.1391 0.0049
vn -0.9961 0.0878 -0.0040
vn -0.9998 0.0189 0.0027
vn -0.7424 0.6700 -0.0055
vn -0.6953 0.7188 0.0008
vn -0.6741 0.7386 -0.0034
vn -0.6515 0.7585 -0.0150
vn -0.6499 0.7599 -0.0163
vn -0.6293 0.7771 -0.0049
vn -0.6269 0.7791 -0.0039
vn -0.6236 0.7817 -0.0027
vn -0.6072 0.7945 0.0017
vn -0.5662 0.8243 -0.0032
vn -0.5465 0.8374 -0.0126
vn -0.5240 0.8517 -0.0024
vn -0.4941 0.8694 0.0002
vn -0.4740 0.8805 -0.0007
vn -0.4476 0.8942 -0.0090
vn -0.4339 0.9008 -0.0169
vn -0.4216 0.9067 -0.0096
vn -0.6636 -0.7481 0.0002
vn -0.6691 -0.7431 0.0021
vn -0.7327 -0.6806 -0.0010
vn -0.7661 -0.6427 0.0049
vn -0.7789 -0.6271 0.0013
vn -0.8194 -0.5732 -0.0008
vn -0.8480 -0.5299 0.0047
vn -0.8546 -0.5192 0.0024
vn -0.8976 -0.4408 -0.0024
vn -0.9135 -0.4068 0.0046
vn -0.9408 -0.3391 -0.0028
vn -0.9612 -0.2756 0.0048
vn -0.9694 -0.2456 -0.0006
vn -0.9869 -0.1613 0.0007
vn -0.9903 -0.1391 0.0047
vn -0.9960 -0.0889 -0.0008
vn -0.9996 -0.0272 0.0011
vn -1.0000 -0.0000 0.0051
vn -1.0000 0.0038 0.0045
vn -0.9999 0.0114 0.0035
vn 0.5565 -0.8309 -0.0000
vn 0.5481 -0.8364 0.0001
vn 0.5421 -0.8403 -0.0009
vn 0.5381 -0.8429 -0.0028
vn 0.5362 -0.8441 -0.0056
vn 0.5661 -0.8243 -0.0016
vn 0.5664 -0.8241 -0.0015
vn 0.5759 -0.8175 0.0001
vn 0.5842 -0.8116 0.0002
vn 0.5892 -0.8080 -0.0006
vn 0.5939 -0.8045 -0.0031
vn 0.5953 -0.8035 -0.0052
vn -0.5953 0.8035 0.0003
vn -0.5759 0.8175 0.0001
vn -0.5664 0.8241 -0.0015
vn -0.5661 0.8243 -0.0016
vn -0.5565 0.8309 -0.0000
vn -0.5362 0.8441 0.0002
s 0
f 112//1 3//1 113//1
f 113//2 3//2 4//2
f 113//3 4//3 114//3
f 114//4 4//4 115//4
f 115//5 4//5 116//5
f 116//6 4//6 117//6
f 117//7 4//7 118//7
f 118//8 4//8 5//8
f 118//9 5//9 119//9
f 119//10 5//10 120//10
f 120//11 5//11 121//11
f 121//12 5//12 6//12
f 121//13 6//13 122//13
f 122//14 6//14 123//14
f 123//15 6//15 124//15
f 124//16 6//16 125//16
f 125//17 6//17 126//17
f 126//18 6//18 127//18
f 126//19 127//19 128//19
f 112//20 129//20 3//20
f 3//21 129//21 130//21
f 3//22 130//22 2//22
f 2//23 130//23 131//23
f 2//24 131//24 132//24
f 132//25 131//25 133//25
f 132//26 133//26 134//26
f 134//27 135//27 132//27
f 132//28 136//28 2//28
f 2//29 136//29 1//29
f 1//30 136//30 137//30
f 1//31 137//31 138//31
f 138//32 139//32 1//32
f 1//33 139//33 74//33
f 1//34 74//34 7//34
f 7//35 74//35 73//35
f 7//36 73//36 8//36
f 8//37 73//37 72//37
f 8//38 72//38 9//38
f 9//39 72//39 71//39
f 9//40 71//40 10//40
f 10//41 71//41 70//41
f 10//42 70//42 11//42
f 11//43 70//43 12//43
f 12//44 70//44 69//44
f 12//45 69//45 13//45
f 13//46 69//46 68//46
f 13//47 68//47 14//47
f 14//48 68//48 15//48
f 15//49 68//49 16//49
f 16//50 68//50 21//50
f 21//51 68//51 67//51
f 21//52 67//52 22//52
f 22//53 67//53 23//53
f 23//54 67//54 111//54
f 23//55 111//55 24//55
f 24//56 111//56 25//56
f 25//57 111//57 110//57
f 25//58 110//58 26//58
f 26//59 110//59 109//59
f 26//60 109//60 27//60
f 27//61 109//61 28//61
f 28//62 109//62 108//62
f 28//63 108//63 29//63
f 29//64 108//64 140//64
f 29//65 140//65 30//65
f 30//66 140//66 141//66
f 30//67 141//67 142//67
f 74//68 139//68 75//68
f 75//69 139//69 143//69
f 75//70 143//70 144//70
f 144//71 145//71 75//71
f 75//72 145//72 146//72
f 75//73 146//73 76//73
f 76//74 146//74 147//74
f 76//75 147//75 148//75
f 149//76 150//76 145//76
f 145//77 150//77 151//77
f 145//78 151//78 146//78
f 76//79 148//79 77//79
f 77//80 148//80 152//80
f 77//81 152//81 153//81
f 77//82 153//82 113//82
f 113//83 153//83 154//83
f 113//84 154//84 155//84
f 155//85 154//85 156//85
f 114//86 157//86 113//86
f 113//87 157//87 158//87
f 113//88 158//88 77//88
f 77//89 158//89 159//89
f 77//90 159//90 160//90
f 77//91 160//91 78//91
f 78//92 160//92 161//92
f 78//93 161//93 162//93
f 162//94 161//94 163//94
f 163//95 161//95 164//95
f 164//96 161//96 165//96
f 165//97 161//97 166//97
f 162//98 167//98 78//98
f 78//99 167//99 168//99
f 78//100 168//100 169//100
f 169//101 168//101 170//101
f 169//102 170//102 171//102
f 171//103 172//103 169//103
f 169//104 172//104 173//104
f 169//105 173//105 174//105
f 78//106 169//106 79//106
f 79//107 169//107 175//107
f 79//108 175//108 176//108
f 176//109 177//109 79//109
f 79//110 177//110 80//110
f 80//111 177//111 128//111
f 80//112 128//112 178//112
f 177//113 179//113 128//113
f 128//114 179//114 126//114
f 180//115 81//115 181//115
f 181//116 81//116 182//116
f 181//117 182//117 183//117
f 183//118 182//118 184//118
f 184//119 182//119 185//119
f 81//120 180//120 82//120
f 82//121 180//121 186//121
f 82//122 186//122 187//122
f 187//123 188//123 82//123
f 82//124 188//124 83//124
f 83//125 188//125 189//125
f 83//126 189//126 190//126
f 191//127 192//127 188//127
f 188//128 192//128 193//128
f 188//129 193//129 189//129
f 194//130 195//130 191//130
f 191//131 195//131 192//131
f 193//132 192//132 59//132
f 59//133 192//133 196//133
f 59//134 196//134 197//134
f 197//135 198//135 59//135
f 59//136 198//136 60//136
f 60//137 198//137 199//137
f 60//138 199//138 61//138
f 61//139 199//139 200//139
f 61//140 200//140 201//140
f 199//141 202//141 200//141
f 200//142 202//142 203//142
f 200//143 203//143 204//143
f 201//144 205//144 61//144
f 61//145 205//145 127//145
f 61//146 127//146 6//146
f 178//147 206//147 80//147
f 80//148 206//148 182//148
f 80//149 182//149 81//149
f 207//150 98//150 208//150
f 208//151 98//151 209//151
f 208//152 209//152 210//152
f 210//153 209//153 211//153
f 211//154 209//154 212//154
f 98//155 207//155 99//155
f 99//156 207//156 213//156
f 99//157 213//157 214//157
f 214//158 215//158 99//158
f 99//159 215//159 100//159
f 100//160 215//160 216//160
f 100//161 216//161 217//161
f 218//162 219//162 215//162
f 215//163 219//163 220//163
f 215//164 220//164 221//164
f 221//165 220//165 222//165
f 222//166 220//166 223//166
f 223//167 220//167 43//167
f 223//168 43//168 44//168
f 218//169 224//169 219//169
f 220//170 225//170 43//170
f 43//171 225//171 226//171
f 43//172 226//172 42//172
f 42//173 226//173 227//173
f 42//174 227//174 228//174
f 42//175 228//175 41//175
f 41//176 228//176 229//176
f 41//177 229//177 230//177
f 231//178 232//178 230//178
f 230//179 232//179 41//179
f 232//180 233//180 41//180
f 41//181 233//181 234//181
f 41//182 234//182 40//182
f 40//183 234//183 235//183
f 40//184 235//184 236//184
f 40//185 236//185 97//185
f 97//186 236//186 237//186
f 97//187 237//187 238//187
f 97//188 238//188 98//188
f 98//189 238//189 209//189
f 239//190 240//190 46//190
f 46//191 240//191 241//191
f 46//192 241//192 45//192
f 45//193 241//193 242//193
f 45//194 242//194 243//194
f 45//195 243//195 44//195
f 44//196 243//196 244//196
f 44//197 244//197 245//197
f 245//198 246//198 44//198
f 44//199 246//199 223//199
f 221//164 216//164 215//164
f 217//200 247//200 100//200
f 100//201 247//201 248//201
f 100//202 248//202 249//202
f 249//203 248//203 250//203
f 250//204 248//204 251//204
f 251//205 248//205 252//205
f 252//206 248//206 253//206
f 100//207 249//207 101//207
f 101//208 249//208 254//208
f 101//209 254//209 255//209
f 255//210 256//210 101//210
f 101//211 256//211 257//211
f 101//212 257//212 258//212
f 258//213 257//213 259//213
f 258//214 259//214 260//214
f 260//215 259//215 261//215
f 258//216 262//216 101//216
f 101//217 262//217 102//217
f 102//218 262//218 263//218
f 102//219 263//219 264//219
f 264//220 265//220 102//220
f 102//221 265//221 37//221
f 102//222 37//222 266//222
f 266//223 37//223 267//223
f 267//224 37//224 268//224
f 268//225 37//225 36//225
f 268//226 36//226 269//226
f 269//227 36//227 270//227
f 270//228 36//228 271//228
f 270//229 271//229 272//229
f 37//230 265//230 38//230
f 38//231 265//231 273//231
f 38//232 273//232 274//232
f 274//233 275//233 38//233
f 38//234 275//234 239//234
f 38//235 239//235 46//235
f 276//236 277//236 103//236
f 103//237 277//237 278//237
f 103//238 278//238 104//238
f 104//239 278//239 279//239
f 104//240 279//240 280//240
f 104//241 280//241 105//241
f 105//242 280//242 281//242
f 105//243 281//243 282//243
f 282//244 281//244 283//244
f 282//245 283//245 33//245
f 33//246 283//246 284//246
f 33//247 284//247 34//247
f 34//248 284//248 285//248
f 34//249 285//249 286//249
f 283//250 281//250 287//250
f 287//251 281//251 288//251
f 287//252 288//252 289//252
f 34//253 286//253 35//253
f 35//254 286//254 290//254
f 35//255 290//255 36//255
f 36//256 290//256 291//256
f 36//257 291//257 271//257
f 266//258 292//258 102//258
f 102//259 292//259 103//259
f 103//260 292//260 293//260
f 103//261 293//261 294//261
f 294//262 295//262 103//262
f 103//263 295//263 296//263
f 103//264 296//264 276//264
f 142//265 297//265 31//265
f 31//266 297//266 298//266
f 31//267 298//267 299//267
f 299//268 300//268 31//268
f 31//269 300//269 301//269
f 31//270 301//270 32//270
f 32//271 301//271 302//271
f 32//272 302//272 303//272
f 303//273 304//273 32//273
f 32//274 304//274 33//274
f 33//275 304//275 305//275
f 33//276 305//276 306//276
f 306//277 282//277 33//277
f 282//278 307//278 105//278
f 105//279 307//279 106//279
f 106//280 307//280 308//280
f 106//281 308//281 309//281
f 309//282 310//282 106//282
f 106//283 310//283 107//283
f 107//284 310//284 140//284
f 107//285 140//285 108//285
f 30//286 142//286 31//286
f 83//287 190//287 84//287
f 84//288 190//288 311//288
f 84//289 311//289 312//289
f 312//290 313//290 84//290
f 84//291 313//291 85//291
f 85//292 313//292 62//292
f 85//293 62//293 86//293
f 86//294 62//294 63//294
f 86//295 63//295 87//295
f 87//296 63//296 64//296
f 87//297 64//297 88//297
f 88//298 64//298 65//298
f 88//299 65//299 89//299
f 89//300 65//300 66//300
f 89//301 66//301 90//301
f 90//302 66//302 17//302
f 90//303 17//303 18//303
f 62//304 313//304 56//304
f 56//305 313//305 314//305
f 56//306 314//306 315//306
f 315//307 316//307 56//307
f 56//308 316//308 57//308
f 57//309 316//309 317//309
f 57//310 317//310 318//310
f 318//311 319//311 57//311
f 57//312 319//312 320//312
f 57//313 320//313 321//313
f 57//314 321//314 58//314
f 58//315 321//315 322//315
f 58//316 322//316 323//316
f 323//317 324//317 58//317
f 58//318 324//318 325//318
f 58//319 325//319 59//319
f 59//320 325//320 193//320
f 40//321 97//321 39//321
f 39//322 97//322 96//322
f 39//323 96//323 47//323
f 47//324 96//324 95//324
f 47//325 95//325 48//325
f 48//326 95//326 49//326
f 49//327 95//327 94//327
f 49//328 94//328 50//328
f 50//329 94//329 51//329
f 51//330 94//330 93//330
f 51//331 93//331 52//331
f 52//332 93//332 92//332
f 52//333 92//333 53//333
f 53//334 92//334 54//334
f 54//335 92//335 91//335
f 54//336 91//336 55//336
f 55//337 91//337 19//337
f 19//338 91//338 90//338
f 19//339 90//339 20//339
f 20//340 90//340 18//340
f 339//341 326//341 331//341
f 331//342 326//342 327//342
f 331//343 327//343 328//343
f 328//344 329//344 331//344
f 331//345 329//345 330//345
f 331//346 332//346 339//346
f 339//347 332//347 338//347
f 338//348 332//348 337//348
f 337//349 332//349 336//349
f 336//350 332//350 335//350
f 335//351 332//351 334//351
f 334//352 332//352 333//352
f 341//353 340//353 342//353
f 342//354 340//354 347//354
f 342//355 347//355 346//355
f 342//356 346//356 343//356
f 343//357 346//357 345//357
f 343//358 345//358 344//358
