# Blender 4.2.3 LTS
# www.blender.org
o link_4__m3
v 0.021418 0.064434 0.989151
v 0.023726 0.063620 0.989151
v 0.026081 0.062691 0.985168
v 0.026004 0.062723 0.989151
v 0.028248 0.061745 0.989151
v 0.030590 0.060619 0.981197
v 0.034490 0.058488 0.983174
v 0.034611 0.058417 0.979130
v 0.035186 0.058072 0.983174
v 0.035266 0.058023 0.979130
v 0.035877 0.057647 0.983174
v 0.035917 0.057623 0.979130
v 0.036563 0.057215 0.983174
v 0.036563 0.057215 0.979130
v 0.036563 0.057215 0.989151
v 0.038011 0.056264 0.989151
v 0.039433 0.055276 0.989151
v 0.039433 0.055276 0.972884
v 0.038011 0.056264 0.972884
v 0.036563 0.057215 0.972884
v 0.040830 0.054252 0.989151
v 0.040830 0.054252 0.972884
v 0.028248 0.061745 0.972884
v 0.026074 0.062694 0.977040
v 0.026004 0.062723 0.972884
v 0.023726 0.063620 0.972884
v 0.021418 0.064434 0.972884
v 0.005588 0.067670 0.972582
v 0.008054 0.067421 0.972582
v 0.010509 0.067082 0.972582
v 0.012950 0.066654 0.972582
v 0.015520 0.066103 0.972815
v 0.017850 0.065512 0.973951
v 0.018741 0.065263 0.974882
v 0.019354 0.065083 0.976013
v 0.019637 0.064999 0.977267
v 0.019688 0.064983 0.978553
v 0.019688 0.064983 0.989151
v 0.018026 0.065464 0.989151
v 0.016352 0.065902 0.989151
v 0.014667 0.066297 0.989151
v 0.014667 0.066297 0.979630
v 0.014544 0.066324 0.978496
v 0.013964 0.066449 0.977504
v 0.012984 0.066647 0.976893
v 0.011824 0.066863 0.976757
v 0.010132 0.067140 0.976757
v 0.008433 0.067374 0.976757
v 0.006729 0.067566 0.976757
v 0.005573 0.067671 0.976887
v 0.004575 0.067746 0.977486
v 0.003971 0.067784 0.978473
v 0.003839 0.067791 0.979630
v 0.003839 0.067791 0.989151
v 0.002110 0.067867 0.989151
v 0.000381 0.067899 0.989151
v -0.001349 0.067887 0.989151
v -0.001349 0.067887 0.978553
v -0.000986 0.067893 0.975977
v -0.000446 0.067899 0.974994
v 0.000596 0.067897 0.973926
v 0.002964 0.067836 0.972815
v -0.020235 0.064815 0.989151
v -0.013418 0.066561 0.983174
v -0.022558 0.064043 0.989151
v -0.024851 0.063189 0.989151
v -0.027112 0.062252 0.989151
v -0.022494 0.064066 0.985181
v -0.017741 0.065541 0.981197
v -0.023650 0.063648 0.976006
v -0.027112 0.062252 0.972884
v -0.024851 0.063189 0.972884
v -0.022558 0.064043 0.972884
v -0.020235 0.064815 0.972884
v -0.013281 0.066589 0.979130
v -0.012531 0.066734 0.979130
v -0.011779 0.066870 0.979130
v -0.011026 0.066999 0.979130
v -0.011026 0.066999 0.972884
v -0.009316 0.067258 0.972884
v -0.007599 0.067473 0.972884
v -0.005878 0.067645 0.972884
v -0.005878 0.067645 0.989151
v -0.007599 0.067473 0.989151
v -0.009316 0.067258 0.989151
v -0.011026 0.066999 0.989151
v -0.011026 0.066999 0.983174
v -0.011825 0.066862 0.983174
v -0.012623 0.066716 0.983174
v -0.037516 0.056594 0.985107
v -0.036999 0.056934 0.983645
v -0.036479 0.057269 0.982182
v -0.035956 0.057599 0.980720
v -0.035430 0.057924 0.979258
v -0.037485 0.056615 0.979258
v -0.039493 0.055233 0.979258
v -0.041449 0.053781 0.979258
v -0.040957 0.054156 0.980720
v -0.040462 0.054527 0.982182
v -0.039964 0.054894 0.983644
v -0.039462 0.055255 0.985107
v -0.038819 0.055709 0.985107
v -0.038170 0.056156 0.985107
v -0.034151 0.058687 0.975738
v -0.037071 0.056887 0.975738
v -0.039896 0.054943 0.975738
v -0.042619 0.052859 0.975738
v -0.042932 0.052605 0.974787
v -0.043243 0.052350 0.973835
v -0.043552 0.052092 0.972884
v -0.045069 0.050786 0.972884
v -0.046546 0.049435 0.972884
v -0.047983 0.048042 0.972884
v -0.042873 0.052652 0.989151
v -0.039984 0.054879 0.989151
v -0.036979 0.056947 0.989151
v -0.033867 0.058851 0.989151
v -0.027740 0.061975 0.972884
v -0.029554 0.061131 0.972884
v -0.031341 0.060234 0.972884
v -0.033102 0.059285 0.972884
v 0.039462 -0.055255 0.985107
v 0.041449 -0.053781 0.979258
v 0.039493 -0.055233 0.979258
v 0.037485 -0.056615 0.979258
v 0.035430 -0.057924 0.979258
v 0.037516 -0.056594 0.985107
v 0.033867 -0.058851 0.989151
v 0.036979 -0.056947 0.989151
v 0.039984 -0.054879 0.989151
v 0.042873 -0.052652 0.989151
v 0.027740 -0.061975 0.972884
v 0.033102 -0.059285 0.972884
v 0.031341 -0.060234 0.972884
v 0.029554 -0.061131 0.972884
v 0.034151 -0.058687 0.975738
v 0.042619 -0.052859 0.975738
v 0.039896 -0.054943 0.975738
v 0.037071 -0.056887 0.975738
v 0.043552 -0.052092 0.972884
v 0.043243 -0.052350 0.973835
v 0.042932 -0.052605 0.974787
v 0.047983 -0.048042 0.972884
v 0.046546 -0.049435 0.972884
v 0.045069 -0.050786 0.972884
v 0.038170 -0.056156 0.985107
v 0.038819 -0.055709 0.985107
v 0.013418 -0.066561 0.983174
v 0.020235 -0.064815 0.989151
v 0.027112 -0.062252 0.989151
v 0.024851 -0.063189 0.989151
v 0.022558 -0.064043 0.989151
v 0.017741 -0.065541 0.981197
v 0.022572 -0.064038 0.985247
v 0.027112 -0.062252 0.972884
v 0.023650 -0.063648 0.976006
v 0.020235 -0.064815 0.972884
v 0.022558 -0.064043 0.972884
v 0.024851 -0.063189 0.972884
v 0.013281 -0.066589 0.979130
v 0.011026 -0.066999 0.979130
v 0.011779 -0.066870 0.979130
v 0.012531 -0.066734 0.979130
v 0.011026 -0.066999 0.972884
v 0.005878 -0.067645 0.972884
v 0.007599 -0.067473 0.972884
v 0.009316 -0.067258 0.972884
v 0.005878 -0.067645 0.989151
v 0.011026 -0.066999 0.989151
v 0.009316 -0.067258 0.989151
v 0.007599 -0.067473 0.989151
v 0.011026 -0.066999 0.983174
v 0.012623 -0.066716 0.983174
v 0.011825 -0.066862 0.983174
v -0.012950 -0.066654 0.972582
v -0.010509 -0.067082 0.972582
v -0.008054 -0.067421 0.972582
v -0.005588 -0.067670 0.972582
v -0.019688 -0.064983 0.978553
v -0.019359 -0.065082 0.976027
v -0.018866 -0.065227 0.975059
v -0.015533 -0.066100 0.972818
v -0.017860 -0.065509 0.973960
v -0.019688 -0.064983 0.989151
v -0.014667 -0.066297 0.989151
v -0.016352 -0.065902 0.989151
v -0.018026 -0.065464 0.989151
v -0.014667 -0.066297 0.979630
v -0.011824 -0.066863 0.976757
v -0.012974 -0.066649 0.976890
v -0.013958 -0.066450 0.977498
v -0.014542 -0.066325 0.978487
v -0.006729 -0.067566 0.976757
v -0.008433 -0.067374 0.976757
v -0.010132 -0.067140 0.976757
v -0.003839 -0.067791 0.979630
v -0.003968 -0.067784 0.978484
v -0.004569 -0.067746 0.977492
v -0.005562 -0.067672 0.976891
v -0.003839 -0.067791 0.989151
v 0.001349 -0.067887 0.989151
v -0.000381 -0.067899 0.989151
v -0.002110 -0.067867 0.989151
v 0.001349 -0.067887 0.978553
v -0.002982 -0.067835 0.972811
v -0.000608 -0.067897 0.973917
v 0.000323 -0.067899 0.974831
v 0.000981 -0.067893 0.975964
v 0.001292 -0.067888 0.977236
v -0.028248 -0.061745 0.972884
v -0.030590 -0.060619 0.981197
v -0.034611 -0.058417 0.979130
v -0.032187 -0.059786 0.985417
v -0.033345 -0.059148 0.984296
v -0.025723 -0.062839 0.976723
v -0.026004 -0.062723 0.972884
v -0.023726 -0.063620 0.972884
v -0.021418 -0.064434 0.972884
v -0.026074 -0.062694 0.985174
v -0.028248 -0.061745 0.989151
v -0.029838 -0.060993 0.987658
v -0.021418 -0.064434 0.989151
v -0.023726 -0.063620 0.989151
v -0.026004 -0.062723 0.989151
v -0.034490 -0.058488 0.983174
v -0.035186 -0.058072 0.983174
v -0.035266 -0.058023 0.979130
v -0.035877 -0.057647 0.983174
v -0.035917 -0.057623 0.979130
v -0.036563 -0.057215 0.983174
v -0.036563 -0.057215 0.979130
v -0.036563 -0.057215 0.989151
v -0.038011 -0.056264 0.989151
v -0.039433 -0.055276 0.989151
v -0.039433 -0.055276 0.972884
v -0.038011 -0.056264 0.972884
v -0.036563 -0.057215 0.972884
v -0.040830 -0.054252 0.989151
v -0.040830 -0.054252 0.972884
vn 0.3325 0.9428 -0.0233
vn 0.3664 0.9305 -0.0004
vn 0.3995 0.9167 0.0004
vn 0.4119 0.9112 -0.0077
vn 0.4737 0.8806 0.0148
vn 0.4799 0.8773 -0.0010
vn 0.5131 0.8584 0.0003
vn 0.5155 0.8569 -0.0002
vn 0.5239 0.8518 -0.0000
vn 0.5235 0.8520 0.0001
vn 0.5329 0.8462 0.0003
vn 0.5340 0.8455 -0.0000
vn -0.0000 -0.0000 1.0000
vn 0.5490 0.8358 -0.0000
vn 0.5706 0.8212 -0.0000
vn 0.5490 0.8359 -0.0000
vn 0.5912 0.8065 -0.0000
vn 0.4745 0.8801 -0.0145
vn 0.4119 0.9112 0.0074
vn 0.3995 0.9167 -0.0003
vn 0.3664 0.9305 0.0003
vn 0.3325 0.9428 0.0222
vn 0.0630 0.9980 -0.0020
vn 0.0566 0.9984 -0.0038
vn 0.0750 0.9972 -0.0000
vn 0.0255 0.9997 -0.0006
vn 0.0439 0.9990 0.0004
vn 0.0514 0.9987 -0.0000
vn 0.0185 0.9998 0.0001
vn 0.0018 1.0000 -0.0001
vn -0.0108 0.9999 0.0006
vn -0.0093 1.0000 0.0010
vn -0.0069 1.0000 -0.0000
vn 0.0521 0.9986 -0.0001
vn 0.0905 0.9959 0.0001
vn 0.1005 0.9949 -0.0027
vn 0.1120 0.9937 0.0010
vn 0.1364 0.9906 -0.0012
vn 0.1368 0.9906 -0.0014
vn 0.1616 0.9869 0.0009
vn 0.1727 0.9850 -0.0027
vn 0.1830 0.9831 0.0002
vn 0.1980 0.9802 -0.0000
vn 0.2099 0.9777 -0.0025
vn 0.2130 0.9771 -0.0014
vn 0.2184 0.9759 -0.0004
vn 0.2282 0.9736 -0.0000
vn 0.2256 0.9742 0.0005
vn 0.2461 0.9692 -0.0006
vn 0.2531 0.9674 0.0001
vn 0.2692 0.9631 -0.0001
vn 0.2780 0.9606 0.0004
vn 0.2815 0.9596 0.0001
vn 0.2843 0.9587 0.0001
vn 0.2993 0.9542 -0.0000
vn -0.1914 0.9815 0.0003
vn -0.2292 0.9734 -0.0010
vn -0.2360 0.9716 0.0147
vn -0.3023 0.9532 -0.0078
vn -0.3154 0.9490 0.0004
vn -0.3490 0.9371 -0.0002
vn -0.3827 0.9236 -0.0232
vn -0.1898 0.9818 0.0001
vn -0.1800 0.9837 0.0003
vn -0.1780 0.9840 -0.0001
vn -0.1690 0.9856 -0.0000
vn -0.1689 0.9856 -0.0000
vn -0.0000 -1.0000 -0.0000
vn -0.1498 0.9887 -0.0000
vn -0.1242 0.9923 -0.0000
vn -0.0994 0.9950 -0.0000
vn -0.2350 0.9719 -0.0144
vn -0.3141 0.9493 0.0113
vn -0.3154 0.9489 0.0098
vn -0.3490 0.9371 -0.0035
vn -0.3828 0.9238 0.0115
vn -0.5247 0.8512 -0.0061
vn -0.5117 0.8592 0.0003
vn -0.4955 0.8686 -0.0001
vn -0.4744 0.8803 0.0012
vn -0.4486 0.8937 0.0063
vn -0.4218 0.9066 0.0152
vn -0.5669 0.8238 -0.0030
vn -0.5670 0.8237 -0.0030
vn -0.5372 0.8434 0.0020
vn -0.5961 0.8029 0.0021
vn -0.6077 0.7941 -0.0060
vn -0.6196 0.7849 0.0004
vn -0.6302 0.7764 -0.0000
vn -0.6342 0.7732 0.0001
vn -0.6416 0.7670 0.0004
vn -0.6524 0.7578 0.0011
vn -0.6749 0.7379 0.0065
vn -0.6960 0.7179 0.0152
vn -0.6105 0.7920 0.0025
vn -0.6112 0.7915 0.0027
vn -0.6014 0.7989 0.0009
vn -0.5933 0.8050 -0.0000
vn -0.5840 0.8117 0.0001
vn -0.5768 0.8169 0.0015
vn -0.5669 0.8238 0.0058
vn -0.5672 0.8236 0.0060
vn -0.5565 0.8309 0.0014
vn -0.5494 0.8355 -0.0000
vn -0.5416 0.8406 -0.0000
vn -0.5219 0.8530 0.0020
vn -0.5257 0.8507 0.0039
vn -0.5210 0.8536 0.0023
vn 0.6105 -0.7920 0.0025
vn 0.6196 -0.7849 0.0004
vn 0.6302 -0.7764 -0.0000
vn 0.5669 -0.8238 0.0058
vn 0.5768 -0.8169 0.0015
vn 0.5927 -0.8054 -0.0016
vn 0.5219 -0.8530 0.0025
vn 0.5408 -0.8411 -0.0016
vn 0.5565 -0.8309 0.0014
vn 0.4218 -0.9066 0.0152
vn 0.4486 -0.8937 0.0063
vn 0.4744 -0.8803 0.0012
vn 0.4955 -0.8686 -0.0001
vn 0.5117 -0.8592 0.0003
vn 0.5247 -0.8513 -0.0061
vn 0.5372 -0.8434 0.0020
vn 0.5669 -0.8238 -0.0030
vn 0.5961 -0.8029 0.0021
vn 0.6077 -0.7941 -0.0060
vn 0.6342 -0.7732 0.0001
vn 0.6416 -0.7670 0.0004
vn 0.6524 -0.7578 0.0011
vn 0.6749 -0.7379 0.0065
vn 0.6960 -0.7179 0.0152
vn 0.5672 -0.8236 0.0060
vn 0.1914 -0.9815 0.0003
vn 0.2292 -0.9734 -0.0010
vn 0.2360 -0.9716 0.0147
vn 0.3033 -0.9529 -0.0081
vn 0.3154 -0.9490 -0.0001
vn 0.3490 -0.9371 0.0001
vn 0.3827 -0.9236 -0.0226
vn 0.1898 -0.9818 0.0001
vn 0.1800 -0.9837 0.0003
vn 0.1780 -0.9840 -0.0001
vn 0.1690 -0.9856 -0.0000
vn 0.1689 -0.9856 -0.0000
vn -0.0000 1.0000 -0.0000
vn 0.1498 -0.9887 -0.0000
vn 0.1242 -0.9923 -0.0000
vn 0.1497 -0.9887 -0.0000
vn 0.0994 -0.9950 -0.0000
vn 0.2350 -0.9719 -0.0144
vn 0.3141 -0.9493 0.0113
vn 0.3154 -0.9489 0.0098
vn 0.3490 -0.9371 -0.0035
vn 0.3828 -0.9238 0.0115
vn -0.0630 -0.9980 -0.0024
vn -0.0743 -0.9972 -0.0000
vn -0.0905 -0.9959 0.0001
vn -0.0258 -0.9997 -0.0006
vn -0.0439 -0.9990 0.0004
vn -0.0513 -0.9987 -0.0000
vn -0.0185 -0.9998 0.0001
vn -0.0021 -1.0000 -0.0001
vn 0.0101 -0.9999 0.0005
vn 0.0041 -1.0000 0.0029
vn 0.0175 -0.9998 -0.0000
vn 0.0069 -1.0000 0.0001
vn -0.0527 -0.9986 -0.0002
vn -0.0606 -0.9982 -0.0015
vn -0.1005 -0.9949 -0.0027
vn -0.1120 -0.9937 0.0010
vn -0.1364 -0.9906 -0.0012
vn -0.1368 -0.9906 -0.0014
vn -0.1616 -0.9869 0.0009
vn -0.1727 -0.9850 -0.0027
vn -0.1829 -0.9831 0.0001
vn -0.1982 -0.9802 -0.0000
vn -0.2099 -0.9777 -0.0025
vn -0.2121 -0.9772 -0.0017
vn -0.2203 -0.9754 -0.0002
vn -0.2218 -0.9751 -0.0000
vn -0.2282 -0.9736 0.0004
vn -0.2464 -0.9692 -0.0006
vn -0.2531 -0.9674 0.0001
vn -0.2700 -0.9629 -0.0001
vn -0.2780 -0.9606 0.0004
vn -0.2819 -0.9595 0.0002
vn -0.2881 -0.9576 -0.0000
vn -0.4745 -0.8801 -0.0145
vn -0.4774 -0.8786 -0.0072
vn -0.4770 -0.8789 -0.0075
vn -0.4085 -0.9127 0.0086
vn -0.3995 -0.9167 0.0015
vn -0.3664 -0.9305 -0.0013
vn -0.3326 -0.9429 0.0188
vn -0.4119 -0.9112 -0.0077
vn -0.4253 -0.9050 -0.0029
vn -0.4585 -0.8887 0.0019
vn -0.3325 -0.9428 -0.0232
vn -0.3664 -0.9305 -0.0003
vn -0.3995 -0.9167 0.0003
vn -0.4992 -0.8665 -0.0003
vn -0.5131 -0.8584 0.0003
vn -0.5155 -0.8569 -0.0002
vn -0.5239 -0.8518 -0.0000
vn -0.5235 -0.8520 0.0001
vn -0.5329 -0.8462 0.0003
vn -0.5340 -0.8455 -0.0000
vn -0.5490 -0.8358 -0.0000
vn -0.5706 -0.8212 -0.0000
vn -0.5490 -0.8359 -0.0000
vn -0.5912 -0.8065 -0.0000
s 0
f 1//1 2//1 3//1
f 3//2 2//2 4//2
f 3//3 4//3 5//3
f 3//4 5//4 6//4
f 6//5 5//5 7//5
f 6//6 7//6 8//6
f 8//7 7//7 9//7
f 8//8 9//8 10//8
f 10//9 9//9 11//9
f 10//10 11//10 12//10
f 12//11 11//11 13//11
f 12//12 13//12 14//12
f 14//13 13//13 15//13
f 14//14 15//14 16//14
f 17//15 18//15 16//15
f 16//15 18//15 19//15
f 16//14 19//14 14//14
f 14//16 19//16 20//16
f 21//17 22//17 17//17
f 17//17 22//17 18//17
f 8//18 23//18 6//18
f 6//19 23//19 24//19
f 24//20 23//20 25//20
f 24//21 25//21 26//21
f 26//22 27//22 24//22
f 62//23 52//23 28//23
f 28//24 52//24 51//24
f 28//25 51//25 50//25
f 61//26 55//26 62//26
f 62//27 55//27 54//27
f 62//28 54//28 53//28
f 55//29 61//29 56//29
f 56//30 61//30 60//30
f 56//31 60//31 58//31
f 58//32 60//32 59//32
f 58//33 57//33 56//33
f 53//34 52//34 62//34
f 50//35 49//35 28//35
f 28//36 49//36 29//36
f 29//37 49//37 48//37
f 29//38 48//38 47//38
f 29//39 47//39 30//39
f 30//40 47//40 46//40
f 30//41 46//41 31//41
f 31//42 46//42 45//42
f 31//43 45//43 44//43
f 31//44 44//44 32//44
f 32//45 44//45 43//45
f 32//46 43//46 42//46
f 41//47 40//47 42//47
f 42//48 40//48 32//48
f 32//49 40//49 33//49
f 33//50 40//50 39//50
f 33//51 39//51 34//51
f 34//52 39//52 38//52
f 34//53 38//53 35//53
f 35//54 38//54 36//54
f 36//55 38//55 37//55
f 89//56 75//56 64//56
f 64//57 75//57 69//57
f 64//58 69//58 63//58
f 63//59 69//59 68//59
f 63//60 68//60 65//60
f 65//61 68//61 66//61
f 66//62 68//62 67//62
f 75//63 89//63 76//63
f 76//64 89//64 88//64
f 76//65 88//65 77//65
f 77//66 88//66 87//66
f 77//67 87//67 78//67
f 78//68 87//68 86//68
f 78//13 86//13 79//13
f 79//69 86//69 85//69
f 79//69 85//69 80//69
f 80//70 85//70 81//70
f 81//70 85//70 84//70
f 81//71 84//71 82//71
f 82//71 84//71 83//71
f 75//72 74//72 69//72
f 69//73 74//73 70//73
f 70//74 74//74 73//74
f 70//75 73//75 72//75
f 72//76 71//76 70//76
f 105//77 94//77 104//77
f 104//78 94//78 117//78
f 104//79 117//79 121//79
f 121//80 117//80 120//80
f 120//81 117//81 119//81
f 119//82 117//82 118//82
f 106//83 96//83 105//83
f 105//84 96//84 95//84
f 105//85 95//85 94//85
f 96//86 106//86 97//86
f 97//87 106//87 107//87
f 97//88 107//88 114//88
f 114//89 107//89 108//89
f 114//90 108//90 109//90
f 109//91 110//91 114//91
f 114//92 110//92 111//92
f 114//93 111//93 112//93
f 112//94 113//94 114//94
f 114//95 115//95 97//95
f 97//96 115//96 98//96
f 98//97 115//97 99//97
f 99//98 115//98 100//98
f 100//99 115//99 101//99
f 101//100 115//100 102//100
f 102//101 115//101 116//101
f 102//102 116//102 103//102
f 103//103 116//103 90//103
f 90//104 116//104 91//104
f 91//105 116//105 92//105
f 92//106 116//106 117//106
f 92//107 117//107 93//107
f 93//108 117//108 94//108
f 130//109 123//109 131//109
f 131//110 123//110 137//110
f 131//111 137//111 142//111
f 129//112 147//112 130//112
f 130//113 147//113 122//113
f 130//114 122//114 123//114
f 128//115 126//115 129//115
f 129//116 126//116 127//116
f 129//117 127//117 146//117
f 132//118 135//118 128//118
f 128//119 135//119 134//119
f 128//120 134//120 133//120
f 133//121 136//121 128//121
f 128//122 136//122 126//122
f 136//123 139//123 126//123
f 126//124 139//124 125//124
f 125//125 139//125 124//125
f 124//125 139//125 138//125
f 124//126 138//126 123//126
f 123//127 138//127 137//127
f 142//128 141//128 131//128
f 131//129 141//129 140//129
f 131//130 140//130 145//130
f 145//131 144//131 131//131
f 131//132 144//132 143//132
f 146//133 147//133 129//133
f 173//134 160//134 148//134
f 148//135 160//135 153//135
f 148//136 153//136 149//136
f 149//137 153//137 154//137
f 149//138 154//138 152//138
f 152//139 154//139 151//139
f 151//140 154//140 150//140
f 160//141 173//141 163//141
f 163//142 173//142 174//142
f 163//143 174//143 162//143
f 162//144 174//144 172//144
f 162//145 172//145 161//145
f 161//146 172//146 169//146
f 161//147 169//147 170//147
f 171//148 166//148 170//148
f 170//148 166//148 167//148
f 170//147 167//147 161//147
f 161//149 167//149 164//149
f 168//150 165//150 171//150
f 171//150 165//150 166//150
f 160//151 157//151 153//151
f 153//152 157//152 156//152
f 156//153 157//153 158//153
f 156//154 158//154 159//154
f 159//155 155//155 156//155
f 205//156 198//156 178//156
f 178//157 198//157 199//157
f 178//158 199//158 193//158
f 206//159 203//159 205//159
f 205//160 203//160 200//160
f 205//161 200//161 196//161
f 203//162 206//162 202//162
f 202//163 206//163 207//163
f 202//164 207//164 209//164
f 209//165 207//165 208//165
f 204//166 201//166 209//166
f 209//167 201//167 202//167
f 196//168 197//168 205//168
f 205//169 197//169 198//169
f 178//170 193//170 177//170
f 177//171 193//171 194//171
f 177//172 194//172 195//172
f 177//173 195//173 176//173
f 176//174 195//174 189//174
f 176//175 189//175 175//175
f 175//176 189//176 190//176
f 175//177 190//177 191//177
f 175//178 191//178 182//178
f 182//179 191//179 192//179
f 182//180 192//180 188//180
f 188//181 185//181 182//181
f 182//182 185//182 186//182
f 182//183 186//183 183//183
f 183//184 186//184 187//184
f 183//185 187//185 181//185
f 181//186 187//186 184//186
f 181//187 184//187 180//187
f 180//188 184//188 179//188
f 210//189 211//189 212//189
f 212//190 211//190 213//190
f 212//191 213//191 214//191
f 211//192 210//192 215//192
f 215//193 210//193 216//193
f 215//194 216//194 217//194
f 217//195 218//195 215//195
f 219//196 220//196 211//196
f 211//197 220//197 221//197
f 211//198 221//198 213//198
f 222//199 223//199 219//199
f 219//200 223//200 224//200
f 219//201 224//201 220//201
f 214//202 225//202 212//202
f 212//203 225//203 226//203
f 212//204 226//204 227//204
f 227//205 226//205 228//205
f 227//206 228//206 229//206
f 229//207 228//207 230//207
f 229//208 230//208 231//208
f 231//13 230//13 232//13
f 231//209 232//209 233//209
f 234//210 235//210 233//210
f 233//210 235//210 236//210
f 233//209 236//209 231//209
f 231//211 236//211 237//211
f 238//212 239//212 234//212
f 234//212 239//212 235//212
