# Blender 4.0.2
# www.blender.org
o b_LGDXRobot2_Board_001_
v -0.010000 -0.037500 0.063310
v -0.010000 0.037500 0.063310
v -0.010000 -0.037500 0.064880
v -0.010000 0.037500 0.064880
v -0.120000 -0.037500 0.063310
v -0.120000 -0.037500 0.064880
v -0.120000 0.037500 0.063310
v -0.120000 0.037500 0.064880
v -0.013538 -0.034076 0.063310
v -0.013461 -0.034001 0.063310
v -0.013388 -0.033923 0.063310
v -0.013618 -0.034147 0.063310
v -0.013319 -0.033840 0.063310
v -0.013702 -0.034214 0.063310
v -0.013254 -0.033755 0.063310
v -0.013789 -0.034276 0.063310
v -0.013194 -0.033666 0.063310
v -0.013879 -0.034335 0.063310
v -0.013138 -0.033575 0.063310
v -0.013972 -0.034388 0.063310
v -0.013087 -0.033481 0.063310
v -0.014067 -0.034437 0.063310
v -0.013040 -0.033384 0.063310
v -0.014165 -0.034481 0.063310
v -0.012999 -0.033285 0.063310
v -0.014265 -0.034520 0.063310
v -0.012962 -0.033185 0.063310
v -0.014366 -0.034554 0.063310
v -0.012930 -0.033082 0.063310
v -0.014469 -0.034584 0.063310
v -0.012904 -0.032978 0.063310
v -0.014574 -0.034607 0.063310
v -0.012883 -0.032873 0.063310
v -0.014680 -0.034626 0.063310
v -0.012867 -0.032767 0.063310
v -0.014786 -0.034639 0.063310
v -0.012856 -0.032661 0.063310
v -0.014893 -0.034647 0.063310
v -0.012851 -0.032554 0.063310
v -0.015000 -0.034650 0.063310
v -0.012851 -0.032446 0.063310
v -0.015107 -0.034647 0.063310
v -0.012856 -0.032339 0.063310
v -0.015214 -0.034639 0.063310
v -0.012867 -0.032233 0.063310
v -0.015320 -0.034626 0.063310
v -0.012883 -0.032127 0.063310
v -0.015426 -0.034607 0.063310
v -0.012904 -0.032022 0.063310
v -0.015531 -0.034584 0.063310
v -0.012930 -0.031918 0.063310
v -0.015634 -0.034554 0.063310
v -0.012962 -0.031815 0.063310
v -0.015735 -0.034520 0.063310
v -0.012999 -0.031714 0.063310
v -0.015835 -0.034481 0.063310
v -0.013040 -0.031616 0.063310
v -0.015933 -0.034437 0.063310
v -0.013461 -0.030999 0.063310
v -0.013538 0.030924 0.063310
v -0.013461 0.030999 0.063310
v -0.013538 -0.030924 0.063310
v -0.013388 0.031077 0.063310
v -0.013388 -0.031077 0.063310
v -0.013319 -0.031159 0.063310
v -0.013618 -0.030853 0.063310
v -0.013618 0.030853 0.063310
v -0.013319 0.031159 0.063310
v -0.013702 -0.030786 0.063310
v -0.013702 0.030786 0.063310
v -0.013254 -0.031245 0.063310
v -0.013254 0.031245 0.063310
v -0.013194 -0.031333 0.063310
v -0.013789 -0.030724 0.063310
v -0.013789 0.030724 0.063310
v -0.013194 0.031333 0.063310
v -0.013879 -0.030665 0.063310
v -0.013879 0.030665 0.063310
v -0.013138 -0.031425 0.063310
v -0.013138 0.031425 0.063310
v -0.013087 -0.031519 0.063310
v -0.013972 -0.030612 0.063310
v -0.013972 0.030612 0.063310
v -0.014067 -0.030563 0.063310
v -0.013087 0.031519 0.063310
v -0.014165 -0.030519 0.063310
v -0.014067 0.030563 0.063310
v -0.013040 0.031616 0.063310
v -0.014165 0.030519 0.063310
v -0.014265 -0.030480 0.063310
v -0.014265 0.030480 0.063310
v -0.014366 -0.030446 0.063310
v -0.014366 0.030446 0.063310
v -0.014469 -0.030416 0.063310
v -0.014469 0.030416 0.063310
v -0.014574 0.030393 0.063310
v -0.014574 -0.030393 0.063310
v -0.014680 -0.030374 0.063310
v -0.014680 0.030374 0.063310
v -0.014786 0.030361 0.063310
v -0.014786 -0.030361 0.063310
v -0.014893 -0.030353 0.063310
v -0.014893 0.030353 0.063310
v -0.015000 0.030350 0.063310
v -0.015000 -0.030350 0.063310
v -0.015107 -0.030353 0.063310
v -0.015107 0.030353 0.063310
v -0.015214 -0.030361 0.063310
v -0.015214 0.030361 0.063310
v -0.015320 -0.030374 0.063310
v -0.015320 0.030374 0.063310
v -0.015426 -0.030393 0.063310
v -0.015426 0.030393 0.063310
v -0.015531 -0.030416 0.063310
v -0.015531 0.030416 0.063310
v -0.015634 -0.030446 0.063310
v -0.015634 0.030446 0.063310
v -0.015735 -0.030480 0.063310
v -0.015735 0.030480 0.063310
v -0.015835 -0.030519 0.063310
v -0.015835 0.030519 0.063310
v -0.015933 -0.030563 0.063310
v -0.015933 0.030563 0.063310
v -0.016028 -0.030612 0.063310
v -0.016028 0.030612 0.063310
v -0.016121 -0.030665 0.063310
v -0.016121 0.030665 0.063310
v -0.016211 -0.030724 0.063310
v -0.016298 -0.030786 0.063310
v -0.016211 0.030724 0.063310
v -0.016298 0.030786 0.063310
v -0.016382 -0.030853 0.063310
v -0.016382 0.030853 0.063310
v -0.016462 -0.030924 0.063310
v -0.016539 -0.030999 0.063310
v -0.016462 0.030924 0.063310
v -0.012999 0.031714 0.063310
v -0.012962 0.031815 0.063310
v -0.012930 0.031918 0.063310
v -0.012904 0.032022 0.063310
v -0.012883 0.032127 0.063310
v -0.012867 0.032233 0.063310
v -0.012856 0.032339 0.063310
v -0.012851 0.032446 0.063310
v -0.012851 0.032554 0.063310
v -0.012856 0.032661 0.063310
v -0.012867 0.032767 0.063310
v -0.012883 0.032873 0.063310
v -0.012904 0.032978 0.063310
v -0.012930 0.033082 0.063310
v -0.012962 0.033185 0.063310
v -0.012999 0.033285 0.063310
v -0.013040 0.033384 0.063310
v -0.013087 0.033481 0.063310
v -0.013138 0.033575 0.063310
v -0.013194 0.033666 0.063310
v -0.013254 0.033755 0.063310
v -0.013319 0.033840 0.063310
v -0.013388 0.033923 0.063310
v -0.013461 0.034001 0.063310
v -0.016539 0.030999 0.063310
v -0.013538 0.034076 0.063310
v -0.016612 -0.031077 0.063310
v -0.016612 0.031077 0.063310
v -0.013618 0.034147 0.063310
v -0.016681 -0.031159 0.063310
v -0.016681 0.031159 0.063310
v -0.013702 0.034214 0.063310
v -0.016746 -0.031245 0.063310
v -0.016746 0.031245 0.063310
v -0.016806 -0.031333 0.063310
v -0.013789 0.034276 0.063310
v -0.016806 0.031333 0.063310
v -0.013879 0.034335 0.063310
v -0.013972 0.034388 0.063310
v -0.014067 0.034437 0.063310
v -0.014165 0.034481 0.063310
v -0.014265 0.034520 0.063310
v -0.014366 0.034554 0.063310
v -0.014469 0.034584 0.063310
v -0.014574 0.034607 0.063310
v -0.014680 0.034626 0.063310
v -0.014786 0.034639 0.063310
v -0.014893 0.034647 0.063310
v -0.015000 0.034650 0.063310
v -0.015107 0.034647 0.063310
v -0.015214 0.034639 0.063310
v -0.015320 0.034626 0.063310
v -0.015426 0.034607 0.063310
v -0.015531 0.034584 0.063310
v -0.015634 0.034554 0.063310
v -0.015735 0.034520 0.063310
v -0.015835 0.034481 0.063310
v -0.015933 0.034437 0.063310
v -0.016539 -0.034001 0.063310
v -0.113461 -0.034001 0.063310
v -0.016612 -0.033923 0.063310
v -0.113538 -0.034076 0.063310
v -0.016462 -0.034076 0.063310
v -0.113388 -0.033923 0.063310
v -0.113618 -0.034147 0.063310
v -0.016382 -0.034147 0.063310
v -0.113319 -0.033840 0.063310
v -0.016681 -0.033840 0.063310
v -0.016298 -0.034214 0.063310
v -0.113702 -0.034214 0.063310
v -0.016211 -0.034276 0.063310
v -0.016746 -0.033755 0.063310
v -0.113254 -0.033755 0.063310
v -0.016806 -0.033666 0.063310
v -0.113789 -0.034276 0.063310
v -0.113194 -0.033666 0.063310
v -0.113879 -0.034335 0.063310
v -0.016121 -0.034335 0.063310
v -0.113138 -0.033575 0.063310
v -0.016862 -0.033575 0.063310
v -0.113972 -0.034388 0.063310
v -0.016028 -0.034388 0.063310
v -0.113087 -0.033481 0.063310
v -0.016913 -0.033481 0.063310
v -0.114067 -0.034437 0.063310
v -0.113040 -0.033384 0.063310
v -0.016960 -0.033384 0.063310
v -0.112999 -0.033285 0.063310
v -0.017001 -0.033285 0.063310
v -0.112962 -0.033185 0.063310
v -0.017038 -0.033185 0.063310
v -0.112930 -0.033082 0.063310
v -0.017070 -0.033082 0.063310
v -0.112904 -0.032978 0.063310
v -0.017096 -0.032978 0.063310
v -0.112883 -0.032873 0.063310
v -0.017117 -0.032873 0.063310
v -0.112867 -0.032767 0.063310
v -0.017133 -0.032767 0.063310
v -0.112856 -0.032661 0.063310
v -0.017144 -0.032661 0.063310
v -0.017149 -0.032554 0.063310
v -0.112851 -0.032554 0.063310
v -0.017149 -0.032446 0.063310
v -0.112851 -0.032446 0.063310
v -0.112856 -0.032339 0.063310
v -0.017144 -0.032339 0.063310
v -0.112867 -0.032233 0.063310
v -0.017133 -0.032233 0.063310
v -0.017117 -0.032127 0.063310
v -0.112883 -0.032127 0.063310
v -0.017096 -0.032022 0.063310
v -0.112904 -0.032022 0.063310
v -0.112930 -0.031918 0.063310
v -0.017070 -0.031918 0.063310
v -0.112962 -0.031815 0.063310
v -0.017038 -0.031815 0.063310
v -0.112999 -0.031714 0.063310
v -0.017001 -0.031714 0.063310
v -0.113040 -0.031616 0.063310
v -0.016960 -0.031616 0.063310
v -0.113087 -0.031519 0.063310
v -0.016913 -0.031519 0.063310
v -0.016862 -0.031425 0.063310
v -0.113138 -0.031425 0.063310
v -0.113194 -0.031333 0.063310
v -0.116382 -0.034147 0.063310
v -0.116462 -0.034076 0.063310
v -0.116298 -0.034214 0.063310
v -0.116211 -0.034276 0.063310
v -0.116121 -0.034335 0.063310
v -0.116028 -0.034388 0.063310
v -0.115933 -0.034437 0.063310
v -0.115835 -0.034481 0.063310
v -0.115735 -0.034520 0.063310
v -0.115634 -0.034554 0.063310
v -0.115530 -0.034584 0.063310
v -0.115426 -0.034607 0.063310
v -0.115320 -0.034626 0.063310
v -0.115214 -0.034639 0.063310
v -0.115107 -0.034647 0.063310
v -0.115000 -0.034650 0.063310
v -0.114893 -0.034647 0.063310
v -0.114786 -0.034639 0.063310
v -0.114680 -0.034626 0.063310
v -0.114574 -0.034607 0.063310
v -0.114469 -0.034584 0.063310
v -0.114366 -0.034554 0.063310
v -0.114265 -0.034520 0.063310
v -0.114165 -0.034481 0.063310
v -0.116539 -0.034001 0.063310
v -0.116612 -0.033923 0.063310
v -0.116681 -0.033840 0.063310
v -0.116746 -0.033755 0.063310
v -0.116806 -0.033666 0.063310
v -0.116862 -0.033575 0.063310
v -0.116913 -0.033481 0.063310
v -0.116960 -0.033384 0.063310
v -0.117001 -0.033285 0.063310
v -0.117038 -0.033185 0.063310
v -0.117070 -0.033082 0.063310
v -0.117096 -0.032978 0.063310
v -0.117117 -0.032873 0.063310
v -0.117133 -0.032767 0.063310
v -0.117144 -0.032661 0.063310
v -0.117149 -0.032554 0.063310
v -0.117149 -0.032446 0.063310
v -0.117144 -0.032339 0.063310
v -0.117133 -0.032233 0.063310
v -0.117117 -0.032127 0.063310
v -0.117096 -0.032022 0.063310
v -0.117070 -0.031918 0.063310
v -0.117038 -0.031815 0.063310
v -0.117001 -0.031714 0.063310
v -0.116960 -0.031616 0.063310
v -0.113538 -0.030924 0.063310
v -0.113538 0.030924 0.063310
v -0.113461 -0.030999 0.063310
v -0.113461 0.030999 0.063310
v -0.113388 0.031077 0.063310
v -0.113388 -0.031077 0.063310
v -0.113618 0.030853 0.063310
v -0.113618 -0.030853 0.063310
v -0.113319 0.031159 0.063310
v -0.113319 -0.031159 0.063310
v -0.113702 0.030786 0.063310
v -0.113702 -0.030786 0.063310
v -0.113789 -0.030724 0.063310
v -0.113254 -0.031245 0.063310
v -0.113254 0.031245 0.063310
v -0.113789 0.030724 0.063310
v -0.113194 0.031333 0.063310
v -0.113879 0.030665 0.063310
v -0.113879 -0.030665 0.063310
v -0.113138 0.031425 0.063310
v -0.016862 0.031425 0.063310
v -0.113972 -0.030612 0.063310
v -0.113972 0.030612 0.063310
v -0.114067 -0.030563 0.063310
v -0.016913 0.031519 0.063310
v -0.113087 0.031519 0.063310
v -0.016960 0.031616 0.063310
v -0.114067 0.030563 0.063310
v -0.114165 -0.030519 0.063310
v -0.113040 0.031616 0.063310
v -0.114165 0.030519 0.063310
v -0.112999 0.031714 0.063310
v -0.017001 0.031714 0.063310
v -0.114265 -0.030480 0.063310
v -0.114265 0.030480 0.063310
v -0.114366 -0.030446 0.063310
v -0.112962 0.031815 0.063310
v -0.017038 0.031815 0.063310
v -0.114366 0.030446 0.063310
v -0.112930 0.031918 0.063310
v -0.017070 0.031918 0.063310
v -0.114469 -0.030416 0.063310
v -0.114469 0.030416 0.063310
v -0.112904 0.032022 0.063310
v -0.017096 0.032022 0.063310
v -0.114574 0.030393 0.063310
v -0.114574 -0.030393 0.063310
v -0.114680 -0.030374 0.063310
v -0.112883 0.032127 0.063310
v -0.017117 0.032127 0.063310
v -0.114680 0.030374 0.063310
v -0.112867 0.032233 0.063310
v -0.017133 0.032233 0.063310
v -0.114786 0.030361 0.063310
v -0.114786 -0.030361 0.063310
v -0.112856 0.032339 0.063310
v -0.017144 0.032339 0.063310
v -0.114893 0.030353 0.063310
v -0.114893 -0.030353 0.063310
v -0.112851 0.032446 0.063310
v -0.017149 0.032446 0.063310
v -0.017149 0.032554 0.063310
v -0.115000 0.030350 0.063310
v -0.115000 -0.030350 0.063310
v -0.112851 0.032554 0.063310
v -0.115107 0.030353 0.063310
v -0.115107 -0.030353 0.063310
v -0.112856 0.032661 0.063310
v -0.017144 0.032661 0.063310
v -0.115214 0.030361 0.063310
v -0.115214 -0.030361 0.063310
v -0.115320 -0.030374 0.063310
v -0.112867 0.032767 0.063310
v -0.017133 0.032767 0.063310
v -0.115320 0.030374 0.063310
v -0.112883 0.032873 0.063310
v -0.017117 0.032873 0.063310
v -0.017096 0.032978 0.063310
v -0.115426 0.030393 0.063310
v -0.115426 -0.030393 0.063310
v -0.115530 -0.030416 0.063310
v -0.112904 0.032978 0.063310
v -0.017070 0.033082 0.063310
v -0.115530 0.030416 0.063310
v -0.112930 0.033082 0.063310
v -0.115634 -0.030446 0.063310
v -0.115634 0.030446 0.063310
v -0.017038 0.033185 0.063310
v -0.112962 0.033185 0.063310
v -0.017001 0.033285 0.063310
v -0.115735 0.030480 0.063310
v -0.115735 -0.030480 0.063310
v -0.115835 -0.030519 0.063310
v -0.112999 0.033285 0.063310
v -0.016960 0.033384 0.063310
v -0.115835 0.030519 0.063310
v -0.113040 0.033384 0.063310
v -0.115933 0.030563 0.063310
v -0.115933 -0.030563 0.063310
v -0.116028 -0.030612 0.063310
v -0.016913 0.033481 0.063310
v -0.113087 0.033481 0.063310
v -0.016862 0.033575 0.063310
v -0.116028 0.030612 0.063310
v -0.116121 -0.030665 0.063310
v -0.113138 0.033575 0.063310
v -0.016806 0.033666 0.063310
v -0.116121 0.030665 0.063310
v -0.113194 0.033666 0.063310
v -0.116211 0.030724 0.063310
v -0.116211 -0.030724 0.063310
v -0.116298 -0.030786 0.063310
v -0.113254 0.033755 0.063310
v -0.016746 0.033755 0.063310
v -0.116298 0.030786 0.063310
v -0.116382 -0.030853 0.063310
v -0.113319 0.033840 0.063310
v -0.016681 0.033840 0.063310
v -0.016612 0.033923 0.063310
v -0.116382 0.030853 0.063310
v -0.113388 0.033923 0.063310
v -0.016539 0.034001 0.063310
v -0.116462 -0.030924 0.063310
v -0.116462 0.030924 0.063310
v -0.113461 0.034001 0.063310
v -0.016462 0.034076 0.063310
v -0.116539 -0.030999 0.063310
v -0.116539 0.030999 0.063310
v -0.113538 0.034076 0.063310
v -0.116612 0.031077 0.063310
v -0.116612 -0.031077 0.063310
v -0.113618 0.034147 0.063310
v -0.016382 0.034147 0.063310
v -0.116681 -0.031159 0.063310
v -0.116681 0.031159 0.063310
v -0.113702 0.034214 0.063310
v -0.016298 0.034214 0.063310
v -0.016211 0.034276 0.063310
v -0.116746 0.031245 0.063310
v -0.116746 -0.031245 0.063310
v -0.116806 -0.031333 0.063310
v -0.113789 0.034276 0.063310
v -0.116806 0.031333 0.063310
v -0.113879 0.034335 0.063310
v -0.016121 0.034335 0.063310
v -0.116862 0.031425 0.063310
v -0.116862 -0.031425 0.063310
v -0.113972 0.034388 0.063310
v -0.016028 0.034388 0.063310
v -0.114067 0.034437 0.063310
v -0.114680 0.034626 0.063310
v -0.114574 0.034607 0.063310
v -0.116913 0.033481 0.063310
v -0.116862 0.033575 0.063310
v -0.114786 0.034639 0.063310
v -0.116960 0.033384 0.063310
v -0.114893 0.034647 0.063310
v -0.117001 0.033285 0.063310
v -0.115000 0.034650 0.063310
v -0.117038 0.033185 0.063310
v -0.117070 0.033082 0.063310
v -0.117096 0.032978 0.063310
v -0.117117 0.032873 0.063310
v -0.117133 0.032767 0.063310
v -0.117144 0.032661 0.063310
v -0.117149 0.032554 0.063310
v -0.117149 0.032446 0.063310
v -0.117144 0.032339 0.063310
v -0.117133 0.032233 0.063310
v -0.117117 0.032127 0.063310
v -0.117096 0.032022 0.063310
v -0.117070 0.031918 0.063310
v -0.117038 0.031815 0.063310
v -0.117001 0.031714 0.063310
v -0.116960 0.031616 0.063310
v -0.115107 0.034647 0.063310
v -0.115214 0.034639 0.063310
v -0.115320 0.034626 0.063310
v -0.115426 0.034607 0.063310
v -0.115530 0.034584 0.063310
v -0.115634 0.034554 0.063310
v -0.115735 0.034520 0.063310
v -0.115835 0.034481 0.063310
v -0.115933 0.034437 0.063310
v -0.116028 0.034388 0.063310
v -0.116121 0.034335 0.063310
v -0.116211 0.034276 0.063310
v -0.116298 0.034214 0.063310
v -0.116382 0.034147 0.063310
v -0.116462 0.034076 0.063310
v -0.116539 0.034001 0.063310
v -0.114165 0.034481 0.063310
v -0.116612 0.033923 0.063310
v -0.114265 0.034520 0.063310
v -0.116681 0.033840 0.063310
v -0.114366 0.034554 0.063310
v -0.116746 0.033755 0.063310
v -0.114469 0.034584 0.063310
v -0.116806 0.033666 0.063310
v -0.116913 -0.031519 0.063310
v -0.116913 0.031519 0.063310
v -0.013538 -0.034076 0.064880
v -0.013461 -0.034001 0.064880
v -0.013388 -0.033923 0.064880
v -0.013618 -0.034147 0.064880
v -0.013319 -0.033840 0.064880
v -0.013702 -0.034214 0.064880
v -0.013254 -0.033755 0.064880
v -0.013789 -0.034276 0.064880
v -0.013194 -0.033666 0.064880
v -0.013879 -0.034335 0.064880
v -0.013138 -0.033575 0.064880
v -0.013972 -0.034388 0.064880
v -0.013087 -0.033481 0.064880
v -0.014067 -0.034437 0.064880
v -0.013040 -0.033384 0.064880
v -0.014165 -0.034481 0.064880
v -0.012999 -0.033285 0.064880
v -0.014265 -0.034520 0.064880
v -0.012962 -0.033185 0.064880
v -0.014366 -0.034554 0.064880
v -0.012930 -0.033082 0.064880
v -0.014469 -0.034584 0.064880
v -0.012904 -0.032978 0.064880
v -0.014574 -0.034607 0.064880
v -0.012883 -0.032873 0.064880
v -0.014680 -0.034626 0.064880
v -0.012867 -0.032767 0.064880
v -0.014786 -0.034639 0.064880
v -0.012856 -0.032661 0.064880
v -0.014893 -0.034647 0.064880
v -0.012851 -0.032554 0.064880
v -0.015000 -0.034650 0.064880
v -0.012851 -0.032446 0.064880
v -0.015107 -0.034647 0.064880
v -0.012856 -0.032339 0.064880
v -0.015214 -0.034639 0.064880
v -0.012867 -0.032233 0.064880
v -0.015320 -0.034626 0.064880
v -0.012883 -0.032127 0.064880
v -0.015426 -0.034607 0.064880
v -0.012904 -0.032022 0.064880
v -0.015531 -0.034584 0.064880
v -0.012930 -0.031918 0.064880
v -0.015634 -0.034554 0.064880
v -0.012962 -0.031815 0.064880
v -0.015735 -0.034520 0.064880
v -0.012999 -0.031714 0.064880
v -0.015835 -0.034481 0.064880
v -0.013040 -0.031616 0.064880
v -0.015933 -0.034437 0.064880
v -0.013538 0.030924 0.064880
v -0.013461 -0.030999 0.064880
v -0.013461 0.030999 0.064880
v -0.013538 -0.030924 0.064880
v -0.013388 0.031077 0.064880
v -0.013388 -0.031077 0.064880
v -0.013319 -0.031159 0.064880
v -0.013618 0.030853 0.064880
v -0.013618 -0.030853 0.064880
v -0.013319 0.031159 0.064880
v -0.013702 0.030786 0.064880
v -0.013702 -0.030786 0.064880
v -0.013254 0.031245 0.064880
v -0.013254 -0.031245 0.064880
v -0.013194 -0.031333 0.064880
v -0.013789 0.030724 0.064880
v -0.013789 -0.030724 0.064880
v -0.013194 0.031333 0.064880
v -0.013879 0.030665 0.064880
v -0.013879 -0.030665 0.064880
v -0.013138 0.031425 0.064880
v -0.013138 -0.031425 0.064880
v -0.013087 -0.031519 0.064880
v -0.013972 0.030612 0.064880
v -0.013972 -0.030612 0.064880
v -0.014067 -0.030563 0.064880
v -0.013087 0.031519 0.064880
v -0.014067 0.030563 0.064880
v -0.014165 -0.030519 0.064880
v -0.013040 0.031616 0.064880
v -0.014165 0.030519 0.064880
v -0.014265 0.030480 0.064880
v -0.014265 -0.030480 0.064880
v -0.014366 0.030446 0.064880
v -0.014366 -0.030446 0.064880
v -0.014469 0.030416 0.064880
v -0.014469 -0.030416 0.064880
v -0.014574 0.030393 0.064880
v -0.014574 -0.030393 0.064880
v -0.014680 0.030374 0.064880
v -0.014680 -0.030374 0.064880
v -0.014786 0.030361 0.064880
v -0.014786 -0.030361 0.064880
v -0.014893 -0.030353 0.064880
v -0.014893 0.030353 0.064880
v -0.015000 0.030350 0.064880
v -0.015000 -0.030350 0.064880
v -0.015107 0.030353 0.064880
v -0.015107 -0.030353 0.064880
v -0.015214 0.030361 0.064880
v -0.015214 -0.030361 0.064880
v -0.015320 0.030374 0.064880
v -0.015320 -0.030374 0.064880
v -0.015426 0.030393 0.064880
v -0.015426 -0.030393 0.064880
v -0.015531 -0.030416 0.064880
v -0.015531 0.030416 0.064880
v -0.015634 0.030446 0.064880
v -0.015634 -0.030446 0.064880
v -0.015735 -0.030480 0.064880
v -0.015735 0.030480 0.064880
v -0.015835 -0.030519 0.064880
v -0.015835 0.030519 0.064880
v -0.015933 0.030563 0.064880
v -0.015933 -0.030563 0.064880
v -0.016028 0.030612 0.064880
v -0.016028 -0.030612 0.064880
v -0.016121 0.030665 0.064880
v -0.016121 -0.030665 0.064880
v -0.016211 -0.030724 0.064880
v -0.016211 0.030724 0.064880
v -0.016298 -0.030786 0.064880
v -0.016298 0.030786 0.064880
v -0.016382 0.030853 0.064880
v -0.016382 -0.030853 0.064880
v -0.016462 -0.030924 0.064880
v -0.016462 0.030924 0.064880
v -0.016539 -0.030999 0.064880
v -0.012999 0.031714 0.064880
v -0.012962 0.031815 0.064880
v -0.012930 0.031918 0.064880
v -0.012904 0.032022 0.064880
v -0.012883 0.032127 0.064880
v -0.012867 0.032233 0.064880
v -0.012856 0.032339 0.064880
v -0.012851 0.032446 0.064880
v -0.012851 0.032554 0.064880
v -0.012856 0.032661 0.064880
v -0.012867 0.032767 0.064880
v -0.012883 0.032873 0.064880
v -0.012904 0.032978 0.064880
v -0.012930 0.033082 0.064880
v -0.012962 0.033185 0.064880
v -0.012999 0.033285 0.064880
v -0.013040 0.033384 0.064880
v -0.013087 0.033481 0.064880
v -0.013138 0.033575 0.064880
v -0.013194 0.033666 0.064880
v -0.013254 0.033755 0.064880
v -0.013319 0.033840 0.064880
v -0.013388 0.033923 0.064880
v -0.013461 0.034001 0.064880
v -0.016539 0.030999 0.064880
v -0.013538 0.034076 0.064880
v -0.016612 0.031077 0.064880
v -0.016612 -0.031077 0.064880
v -0.013618 0.034147 0.064880
v -0.016681 0.031159 0.064880
v -0.016681 -0.031159 0.064880
v -0.013702 0.034214 0.064880
v -0.016746 0.031245 0.064880
v -0.016746 -0.031245 0.064880
v -0.016806 -0.031333 0.064880
v -0.013789 0.034276 0.064880
v -0.016806 0.031333 0.064880
v -0.013879 0.034335 0.064880
v -0.013972 0.034388 0.064880
v -0.014067 0.034437 0.064880
v -0.014165 0.034481 0.064880
v -0.014265 0.034520 0.064880
v -0.014366 0.034554 0.064880
v -0.014469 0.034584 0.064880
v -0.014574 0.034607 0.064880
v -0.014680 0.034626 0.064880
v -0.014786 0.034639 0.064880
v -0.014893 0.034647 0.064880
v -0.015000 0.034650 0.064880
v -0.015107 0.034647 0.064880
v -0.015214 0.034639 0.064880
v -0.015320 0.034626 0.064880
v -0.015426 0.034607 0.064880
v -0.015531 0.034584 0.064880
v -0.015634 0.034554 0.064880
v -0.015735 0.034520 0.064880
v -0.015835 0.034481 0.064880
v -0.015933 0.034437 0.064880
v -0.113461 -0.034001 0.064880
v -0.016539 -0.034001 0.064880
v -0.016612 -0.033923 0.064880
v -0.113538 -0.034076 0.064880
v -0.016462 -0.034076 0.064880
v -0.113388 -0.033923 0.064880
v -0.113618 -0.034147 0.064880
v -0.016382 -0.034147 0.064880
v -0.113319 -0.033840 0.064880
v -0.016681 -0.033840 0.064880
v -0.113702 -0.034214 0.064880
v -0.016298 -0.034214 0.064880
v -0.016211 -0.034276 0.064880
v -0.113254 -0.033755 0.064880
v -0.016746 -0.033755 0.064880
v -0.016806 -0.033666 0.064880
v -0.113789 -0.034276 0.064880
v -0.113194 -0.033666 0.064880
v -0.113879 -0.034335 0.064880
v -0.016121 -0.034335 0.064880
v -0.113138 -0.033575 0.064880
v -0.016862 -0.033575 0.064880
v -0.113972 -0.034388 0.064880
v -0.016028 -0.034388 0.064880
v -0.113087 -0.033481 0.064880
v -0.016913 -0.033481 0.064880
v -0.114067 -0.034437 0.064880
v -0.113040 -0.033384 0.064880
v -0.016960 -0.033384 0.064880
v -0.112999 -0.033285 0.064880
v -0.017001 -0.033285 0.064880
v -0.112962 -0.033185 0.064880
v -0.017038 -0.033185 0.064880
v -0.112930 -0.033082 0.064880
v -0.017070 -0.033082 0.064880
v -0.112904 -0.032978 0.064880
v -0.017096 -0.032978 0.064880
v -0.112883 -0.032873 0.064880
v -0.017117 -0.032873 0.064880
v -0.112867 -0.032767 0.064880
v -0.017133 -0.032767 0.064880
v -0.112856 -0.032661 0.064880
v -0.017144 -0.032661 0.064880
v -0.112851 -0.032554 0.064880
v -0.017149 -0.032554 0.064880
v -0.017149 -0.032446 0.064880
v -0.112851 -0.032446 0.064880
v -0.112856 -0.032339 0.064880
v -0.017144 -0.032339 0.064880
v -0.112867 -0.032233 0.064880
v -0.017133 -0.032233 0.064880
v -0.112883 -0.032127 0.064880
v -0.017117 -0.032127 0.064880
v -0.017096 -0.032022 0.064880
v -0.112904 -0.032022 0.064880
v -0.112930 -0.031918 0.064880
v -0.017070 -0.031918 0.064880
v -0.112962 -0.031815 0.064880
v -0.017038 -0.031815 0.064880
v -0.112999 -0.031714 0.064880
v -0.017001 -0.031714 0.064880
v -0.113040 -0.031616 0.064880
v -0.016960 -0.031616 0.064880
v -0.113087 -0.031519 0.064880
v -0.016913 -0.031519 0.064880
v -0.113138 -0.031425 0.064880
v -0.016862 -0.031425 0.064880
v -0.113194 -0.031333 0.064880
v -0.116382 -0.034147 0.064880
v -0.116462 -0.034076 0.064880
v -0.116298 -0.034214 0.064880
v -0.116211 -0.034276 0.064880
v -0.116121 -0.034335 0.064880
v -0.116028 -0.034388 0.064880
v -0.115933 -0.034437 0.064880
v -0.115835 -0.034481 0.064880
v -0.115735 -0.034520 0.064880
v -0.115634 -0.034554 0.064880
v -0.115530 -0.034584 0.064880
v -0.115426 -0.034607 0.064880
v -0.115320 -0.034626 0.064880
v -0.115214 -0.034639 0.064880
v -0.115107 -0.034647 0.064880
v -0.115000 -0.034650 0.064880
v -0.114893 -0.034647 0.064880
v -0.114786 -0.034639 0.064880
v -0.114680 -0.034626 0.064880
v -0.114574 -0.034607 0.064880
v -0.114469 -0.034584 0.064880
v -0.114366 -0.034554 0.064880
v -0.114265 -0.034520 0.064880
v -0.114165 -0.034481 0.064880
v -0.116539 -0.034001 0.064880
v -0.116612 -0.033923 0.064880
v -0.116681 -0.033840 0.064880
v -0.116746 -0.033755 0.064880
v -0.116806 -0.033666 0.064880
v -0.116862 -0.033575 0.064880
v -0.116913 -0.033481 0.064880
v -0.116960 -0.033384 0.064880
v -0.117001 -0.033285 0.064880
v -0.117038 -0.033185 0.064880
v -0.117070 -0.033082 0.064880
v -0.117096 -0.032978 0.064880
v -0.117117 -0.032873 0.064880
v -0.117133 -0.032767 0.064880
v -0.117144 -0.032661 0.064880
v -0.117149 -0.032554 0.064880
v -0.117149 -0.032446 0.064880
v -0.117144 -0.032339 0.064880
v -0.117133 -0.032233 0.064880
v -0.117117 -0.032127 0.064880
v -0.117096 -0.032022 0.064880
v -0.117070 -0.031918 0.064880
v -0.117038 -0.031815 0.064880
v -0.117001 -0.031714 0.064880
v -0.116960 -0.031616 0.064880
v -0.113538 0.030924 0.064880
v -0.113538 -0.030924 0.064880
v -0.113461 -0.030999 0.064880
v -0.113461 0.030999 0.064880
v -0.113388 0.031077 0.064880
v -0.113388 -0.031077 0.064880
v -0.113618 0.030853 0.064880
v -0.113618 -0.030853 0.064880
v -0.113319 0.031159 0.064880
v -0.113319 -0.031159 0.064880
v -0.113702 0.030786 0.064880
v -0.113702 -0.030786 0.064880
v -0.113789 -0.030724 0.064880
v -0.113254 0.031245 0.064880
v -0.113254 -0.031245 0.064880
v -0.113789 0.030724 0.064880
v -0.113194 0.031333 0.064880
v -0.113879 0.030665 0.064880
v -0.113879 -0.030665 0.064880
v -0.113138 0.031425 0.064880
v -0.016862 0.031425 0.064880
v -0.113972 0.030612 0.064880
v -0.113972 -0.030612 0.064880
v -0.114067 -0.030563 0.064880
v -0.113087 0.031519 0.064880
v -0.016913 0.031519 0.064880
v -0.016960 0.031616 0.064880
v -0.114067 0.030563 0.064880
v -0.114165 -0.030519 0.064880
v -0.113040 0.031616 0.064880
v -0.114165 0.030519 0.064880
v -0.112999 0.031714 0.064880
v -0.017001 0.031714 0.064880
v -0.114265 0.030480 0.064880
v -0.114265 -0.030480 0.064880
v -0.114366 -0.030446 0.064880
v -0.112962 0.031815 0.064880
v -0.017038 0.031815 0.064880
v -0.114366 0.030446 0.064880
v -0.112930 0.031918 0.064880
v -0.017070 0.031918 0.064880
v -0.114469 0.030416 0.064880
v -0.114469 -0.030416 0.064880
v -0.112904 0.032022 0.064880
v -0.017096 0.032022 0.064880
v -0.114574 0.030393 0.064880
v -0.114574 -0.030393 0.064880
v -0.114680 -0.030374 0.064880
v -0.112883 0.032127 0.064880
v -0.017117 0.032127 0.064880
v -0.114680 0.030374 0.064880
v -0.112867 0.032233 0.064880
v -0.017133 0.032233 0.064880
v -0.114786 0.030361 0.064880
v -0.114786 -0.030361 0.064880
v -0.112856 0.032339 0.064880
v -0.017144 0.032339 0.064880
v -0.114893 0.030353 0.064880
v -0.114893 -0.030353 0.064880
v -0.112851 0.032446 0.064880
v -0.017149 0.032446 0.064880
v -0.017149 0.032554 0.064880
v -0.115000 0.030350 0.064880
v -0.115000 -0.030350 0.064880
v -0.112851 0.032554 0.064880
v -0.115107 0.030353 0.064880
v -0.115107 -0.030353 0.064880
v -0.112856 0.032661 0.064880
v -0.017144 0.032661 0.064880
v -0.115214 0.030361 0.064880
v -0.115214 -0.030361 0.064880
v -0.115320 -0.030374 0.064880
v -0.112867 0.032767 0.064880
v -0.017133 0.032767 0.064880
v -0.115320 0.030374 0.064880
v -0.112883 0.032873 0.064880
v -0.017117 0.032873 0.064880
v -0.017096 0.032978 0.064880
v -0.115426 0.030393 0.064880
v -0.115426 -0.030393 0.064880
v -0.115530 -0.030416 0.064880
v -0.112904 0.032978 0.064880
v -0.017070 0.033082 0.064880
v -0.115530 0.030416 0.064880
v -0.112930 0.033082 0.064880
v -0.115634 0.030446 0.064880
v -0.115634 -0.030446 0.064880
v -0.112962 0.033185 0.064880
v -0.017038 0.033185 0.064880
v -0.017001 0.033285 0.064880
v -0.115735 0.030480 0.064880
v -0.115735 -0.030480 0.064880
v -0.115835 -0.030519 0.064880
v -0.112999 0.033285 0.064880
v -0.016960 0.033384 0.064880
v -0.115835 0.030519 0.064880
v -0.113040 0.033384 0.064880
v -0.115933 0.030563 0.064880
v -0.115933 -0.030563 0.064880
v -0.116028 -0.030612 0.064880
v -0.113087 0.033481 0.064880
v -0.016913 0.033481 0.064880
v -0.016862 0.033575 0.064880
v -0.116028 0.030612 0.064880
v -0.116121 -0.030665 0.064880
v -0.113138 0.033575 0.064880
v -0.016806 0.033666 0.064880
v -0.116121 0.030665 0.064880
v -0.113194 0.033666 0.064880
v -0.116211 0.030724 0.064880
v -0.116211 -0.030724 0.064880
v -0.116298 -0.030786 0.064880
v -0.113254 0.033755 0.064880
v -0.016746 0.033755 0.064880
v -0.116298 0.030786 0.064880
v -0.116382 -0.030853 0.064880
v -0.113319 0.033840 0.064880
v -0.016681 0.033840 0.064880
v -0.016612 0.033923 0.064880
v -0.116382 0.030853 0.064880
v -0.113388 0.033923 0.064880
v -0.016539 0.034001 0.064880
v -0.116462 0.030924 0.064880
v -0.116462 -0.030924 0.064880
v -0.113461 0.034001 0.064880
v -0.016462 0.034076 0.064880
v -0.116539 0.030999 0.064880
v -0.116539 -0.030999 0.064880
v -0.113538 0.034076 0.064880
v -0.116612 0.031077 0.064880
v -0.116612 -0.031077 0.064880
v -0.113618 0.034147 0.064880
v -0.016382 0.034147 0.064880
v -0.116681 0.031159 0.064880
v -0.116681 -0.031159 0.064880
v -0.113702 0.034214 0.064880
v -0.016298 0.034214 0.064880
v -0.016211 0.034276 0.064880
v -0.116746 0.031245 0.064880
v -0.116746 -0.031245 0.064880
v -0.116806 -0.031333 0.064880
v -0.113789 0.034276 0.064880
v -0.116806 0.031333 0.064880
v -0.113879 0.034335 0.064880
v -0.016121 0.034335 0.064880
v -0.116862 0.031425 0.064880
v -0.116862 -0.031425 0.064880
v -0.113972 0.034388 0.064880
v -0.016028 0.034388 0.064880
v -0.114067 0.034437 0.064880
v -0.114680 0.034626 0.064880
v -0.114574 0.034607 0.064880
v -0.116913 0.033481 0.064880
v -0.116862 0.033575 0.064880
v -0.114786 0.034639 0.064880
v -0.116960 0.033384 0.064880
v -0.114893 0.034647 0.064880
v -0.117001 0.033285 0.064880
v -0.115000 0.034650 0.064880
v -0.117038 0.033185 0.064880
v -0.117070 0.033082 0.064880
v -0.117096 0.032978 0.064880
v -0.117117 0.032873 0.064880
v -0.117133 0.032767 0.064880
v -0.117144 0.032661 0.064880
v -0.117149 0.032554 0.064880
v -0.117149 0.032446 0.064880
v -0.117144 0.032339 0.064880
v -0.117133 0.032233 0.064880
v -0.117117 0.032127 0.064880
v -0.117096 0.032022 0.064880
v -0.117070 0.031918 0.064880
v -0.117038 0.031815 0.064880
v -0.117001 0.031714 0.064880
v -0.116960 0.031616 0.064880
v -0.115107 0.034647 0.064880
v -0.115214 0.034639 0.064880
v -0.115320 0.034626 0.064880
v -0.115426 0.034607 0.064880
v -0.115530 0.034584 0.064880
v -0.115634 0.034554 0.064880
v -0.115735 0.034520 0.064880
v -0.115835 0.034481 0.064880
v -0.115933 0.034437 0.064880
v -0.116028 0.034388 0.064880
v -0.116121 0.034335 0.064880
v -0.116211 0.034276 0.064880
v -0.116298 0.034214 0.064880
v -0.116382 0.034147 0.064880
v -0.116462 0.034076 0.064880
v -0.116539 0.034001 0.064880
v -0.114165 0.034481 0.064880
v -0.116612 0.033923 0.064880
v -0.114265 0.034520 0.064880
v -0.116681 0.033840 0.064880
v -0.114366 0.034554 0.064880
v -0.116746 0.033755 0.064880
v -0.114469 0.034584 0.064880
v -0.116806 0.033666 0.064880
v -0.116913 -0.031519 0.064880
v -0.116913 0.031519 0.064880
vn 1.0000 -0.0000 -0.0000
vn -0.0000 -1.0000 -0.0000
vn -0.0000 1.0000 -0.0000
vn -0.0000 -0.0000 -1.0000
vn 0.0001 -0.0000 -1.0000
vn -0.0001 -0.0000 -1.0000
vn 0.0002 -0.0000 -1.0000
vn -0.0002 -0.0000 -1.0000
vn 0.0003 -0.0000 -1.0000
vn -0.0010 -0.0000 -1.0000
vn -0.0007 -0.0000 -1.0000
vn -0.0003 -0.0000 -1.0000
vn 0.0004 -0.0000 -1.0000
vn -0.0004 -0.0000 -1.0000
vn 0.0007 -0.0000 -1.0000
vn 0.0005 -0.0000 -1.0000
vn -0.0000 -0.0000 1.0000
vn 0.0001 -0.0000 1.0000
vn -0.0001 -0.0000 1.0000
vn 0.0004 -0.0000 1.0000
vn -0.0002 -0.0000 1.0000
vn -0.0007 -0.0000 1.0000
vn -0.0004 -0.0000 1.0000
vn 0.0007 -0.0000 1.0000
vn 0.0002 -0.0000 1.0000
vn 0.0003 -0.0000 1.0000
vn -0.0003 -0.0000 1.0000
vn -0.0006 -0.0000 1.0000
vn -0.0005 -0.0000 1.0000
vn -1.0000 -0.0000 -0.0000
vn 0.0280 -0.9996 -0.0000
vn 0.0746 -0.9972 -0.0000
vn 0.1217 -0.9926 -0.0000
vn 0.1764 -0.9843 -0.0000
vn 0.2140 -0.9768 -0.0000
vn 0.2796 -0.9601 -0.0000
vn 0.3190 -0.9477 -0.0000
vn 0.3633 -0.9317 -0.0000
vn 0.4096 -0.9123 -0.0000
vn 0.3634 -0.9317 -0.0000
vn 0.4584 -0.8887 -0.0000
vn 0.4584 -0.8888 -0.0000
vn 0.4951 -0.8688 -0.0000
vn 0.4952 -0.8688 -0.0000
vn 0.5482 -0.8363 -0.0000
vn 0.5803 -0.8144 -0.0000
vn 0.6236 -0.7818 -0.0000
vn 0.6638 -0.7479 -0.0000
vn 0.6977 -0.7163 -0.0000
vn 0.6977 -0.7164 -0.0000
vn 0.7301 -0.6833 -0.0000
vn 0.7652 -0.6438 -0.0000
vn 0.7978 -0.6030 -0.0000
vn 0.8262 -0.5633 -0.0000
vn 0.8262 -0.5634 -0.0000
vn 0.8542 -0.5199 -0.0000
vn 0.8790 -0.4769 -0.0000
vn 0.8999 -0.4361 -0.0000
vn 0.8999 -0.4360 -0.0000
vn 0.9225 -0.3859 -0.0000
vn 0.9390 -0.3440 -0.0000
vn 0.9550 -0.2967 -0.0000
vn 0.9701 -0.2425 -0.0000
vn 0.9806 -0.1961 -0.0000
vn 0.9888 -0.1493 -0.0000
vn 0.9947 -0.1032 -0.0000
vn 0.9989 -0.0467 -0.0000
vn 0.9989 0.0467 -0.0000
vn 0.9947 0.1032 -0.0000
vn 0.9888 0.1493 -0.0000
vn 0.9806 0.1961 -0.0000
vn 0.9701 0.2425 -0.0000
vn 0.9550 0.2967 -0.0000
vn 0.9379 0.3470 -0.0000
vn 0.9239 0.3826 -0.0000
vn 0.8999 0.4360 -0.0000
vn 0.8790 0.4769 -0.0000
vn 0.8517 0.5241 -0.0000
vn 0.8292 0.5590 -0.0000
vn 0.7944 0.6074 -0.0000
vn 0.7690 0.6393 -0.0000
vn 0.7301 0.6833 -0.0000
vn 0.6977 0.7164 -0.0000
vn 0.6978 0.7163 -0.0000
vn 0.6638 0.7479 -0.0000
vn 0.6236 0.7818 -0.0000
vn 0.5803 0.8144 -0.0000
vn 0.5482 0.8363 -0.0000
vn 0.4951 0.8688 -0.0000
vn 0.4584 0.8887 -0.0000
vn 0.4096 0.9123 -0.0000
vn 0.3634 0.9317 -0.0000
vn 0.3633 0.9317 -0.0000
vn 0.3190 0.9477 -0.0000
vn 0.2796 0.9601 -0.0000
vn 0.2140 0.9768 -0.0000
vn 0.1764 0.9843 -0.0000
vn 0.1217 0.9926 -0.0000
vn 0.0745 0.9972 -0.0000
vn 0.0281 0.9996 -0.0000
vn -0.0281 0.9996 -0.0000
vn -0.0745 0.9972 -0.0000
vn -0.1217 0.9926 -0.0000
vn -0.1764 0.9843 -0.0000
vn -0.2140 0.9768 -0.0000
vn -0.2796 0.9601 -0.0000
vn -0.3190 0.9477 -0.0000
vn -0.3634 0.9317 -0.0000
vn -0.3633 0.9317 -0.0000
vn -0.4096 0.9123 -0.0000
vn -0.4584 0.8887 -0.0000
vn -0.5482 0.8363 -0.0000
vn -0.4951 0.8688 -0.0000
vn -0.5803 0.8144 -0.0000
vn -0.6236 0.7818 -0.0000
vn -0.5804 0.8144 -0.0000
vn -0.6638 0.7479 -0.0000
vn -0.6977 0.7163 -0.0000
vn -0.7301 0.6833 -0.0000
vn -0.7690 0.6393 -0.0000
vn -0.7944 0.6074 -0.0000
vn -0.8292 0.5590 -0.0000
vn -0.8517 0.5241 -0.0000
vn -0.8790 0.4769 -0.0000
vn -0.8999 0.4360 -0.0000
vn -0.9239 0.3826 -0.0000
vn -0.9379 0.3470 -0.0000
vn -0.9550 0.2967 -0.0000
vn -0.9701 0.2425 -0.0000
vn -0.9806 0.1961 -0.0000
vn -0.9888 0.1493 -0.0000
vn -0.9947 0.1032 -0.0000
vn -0.9989 0.0467 -0.0000
vn -0.9989 -0.0467 -0.0000
vn -0.9947 -0.1032 -0.0000
vn -0.9888 -0.1493 -0.0000
vn -0.9806 -0.1961 -0.0000
vn -0.9701 -0.2425 -0.0000
vn -0.9550 -0.2967 -0.0000
vn -0.9390 -0.3440 -0.0000
vn -0.9225 -0.3859 -0.0000
vn -0.8999 -0.4361 -0.0000
vn -0.8999 -0.4360 -0.0000
vn -0.8790 -0.4769 -0.0000
vn -0.8542 -0.5200 -0.0000
vn -0.8542 -0.5199 -0.0000
vn -0.8262 -0.5634 -0.0000
vn -0.8262 -0.5633 -0.0000
vn -0.7978 -0.6030 -0.0000
vn -0.7652 -0.6438 -0.0000
vn -0.7301 -0.6833 -0.0000
vn -0.6977 -0.7164 -0.0000
vn -0.6638 -0.7479 -0.0000
vn -0.6236 -0.7818 -0.0000
vn -0.5803 -0.8144 -0.0000
vn -0.5483 -0.8363 -0.0000
vn -0.5804 -0.8144 -0.0000
vn -0.5482 -0.8363 -0.0000
vn -0.4951 -0.8688 -0.0000
vn -0.4584 -0.8888 -0.0000
vn -0.4584 -0.8887 -0.0000
vn -0.4096 -0.9123 -0.0000
vn -0.3633 -0.9317 -0.0000
vn -0.3634 -0.9317 -0.0000
vn -0.3190 -0.9477 -0.0000
vn -0.2796 -0.9601 -0.0000
vn -0.2140 -0.9768 -0.0000
vn -0.1764 -0.9843 -0.0000
vn -0.1217 -0.9926 -0.0000
vn -0.0746 -0.9972 -0.0000
vn -0.0280 -0.9996 -0.0000
vn 0.0281 -0.9996 -0.0000
vn 0.0745 -0.9972 -0.0000
vn 0.3191 -0.9477 -0.0000
vn 0.6978 -0.7163 -0.0000
vn 0.7690 -0.6393 -0.0000
vn 0.7944 -0.6074 -0.0000
vn 0.8292 -0.5590 -0.0000
vn 0.8517 -0.5241 -0.0000
vn 0.9239 -0.3826 -0.0000
vn 0.9379 -0.3470 -0.0000
vn 0.9390 0.3440 -0.0000
vn 0.9225 0.3859 -0.0000
vn 0.8999 0.4361 -0.0000
vn 0.8542 0.5199 -0.0000
vn 0.8262 0.5634 -0.0000
vn 0.8262 0.5633 -0.0000
vn 0.7978 0.6030 -0.0000
vn 0.7652 0.6438 -0.0000
vn 0.6977 0.7163 -0.0000
vn 0.4952 0.8688 -0.0000
vn 0.4584 0.8888 -0.0000
vn 0.0746 0.9972 -0.0000
vn 0.0280 0.9996 -0.0000
vn -0.0280 0.9996 -0.0000
vn -0.0746 0.9972 -0.0000
vn -0.4584 0.8888 -0.0000
vn -0.5483 0.8363 -0.0000
vn -0.6977 0.7164 -0.0000
vn -0.7652 0.6438 -0.0000
vn -0.7978 0.6030 -0.0000
vn -0.8262 0.5634 -0.0000
vn -0.8262 0.5633 -0.0000
vn -0.8542 0.5200 -0.0000
vn -0.8542 0.5199 -0.0000
vn -0.8999 0.4361 -0.0000
vn -0.9225 0.3859 -0.0000
vn -0.9390 0.3440 -0.0000
vn -0.9379 -0.3470 -0.0000
vn -0.9239 -0.3826 -0.0000
vn -0.8517 -0.5241 -0.0000
vn -0.8292 -0.5590 -0.0000
vn -0.7944 -0.6074 -0.0000
vn -0.7690 -0.6393 -0.0000
vn -0.6977 -0.7163 -0.0000
vn -0.3191 -0.9477 -0.0000
vn -0.0745 -0.9972 -0.0000
vn -0.0281 -0.9996 -0.0000
vn 0.2159 -0.9764 -0.0000
vn 0.2772 -0.9608 -0.0000
vn 0.2771 -0.9608 -0.0000
vn 0.4096 -0.9122 -0.0000
vn 0.5483 -0.8363 -0.0000
vn 0.5804 -0.8144 -0.0000
vn 0.6235 -0.7818 -0.0000
vn 0.6637 -0.7480 -0.0000
vn 0.6976 -0.7165 -0.0000
vn 0.7978 -0.6029 -0.0000
vn 0.7977 -0.6030 -0.0000
vn 0.8263 -0.5633 -0.0000
vn 0.8542 -0.5200 -0.0000
vn 0.9000 -0.4360 -0.0000
vn 0.9226 -0.3858 -0.0000
vn 0.9225 -0.3860 -0.0000
vn 0.9549 -0.2968 -0.0000
vn 0.9702 -0.2424 -0.0000
vn 0.9701 -0.2426 -0.0000
vn 0.9888 -0.1492 -0.0000
vn 0.9946 -0.1033 -0.0000
vn 0.9946 0.1033 -0.0000
vn 0.9888 0.1492 -0.0000
vn 0.9947 0.1031 -0.0000
vn 0.9701 0.2426 -0.0000
vn 0.9702 0.2424 -0.0000
vn 0.9549 0.2968 -0.0000
vn 0.9239 0.3827 -0.0000
vn 0.9239 0.3825 -0.0000
vn 0.9000 0.4360 -0.0000
vn 0.8292 0.5589 -0.0000
vn 0.8291 0.5590 -0.0000
vn 0.7943 0.6075 -0.0000
vn 0.6976 0.7164 -0.0000
vn 0.6637 0.7480 -0.0000
vn 0.6235 0.7818 -0.0000
vn 0.5804 0.8144 -0.0000
vn 0.5483 0.8363 -0.0000
vn 0.4585 0.8887 -0.0000
vn 0.3191 0.9477 -0.0000
vn 0.2772 0.9608 -0.0000
vn 0.2771 0.9608 -0.0000
vn 0.2159 0.9764 -0.0000
vn -0.1218 0.9926 -0.0000
vn -0.2139 0.9768 -0.0000
vn -0.2797 0.9601 -0.0000
vn -0.3191 0.9477 -0.0000
vn -0.3634 0.9316 -0.0000
vn -0.4583 0.8888 -0.0000
vn -0.4585 0.8887 -0.0000
vn -0.6637 0.7480 -0.0000
vn -0.6978 0.7163 -0.0000
vn -0.7689 0.6394 -0.0000
vn -0.7691 0.6392 -0.0000
vn -0.7943 0.6075 -0.0000
vn -0.8291 0.5590 -0.0000
vn -0.8292 0.5589 -0.0000
vn -0.8789 0.4770 -0.0000
vn -0.9000 0.4360 -0.0000
vn -0.9239 0.3825 -0.0000
vn -0.9238 0.3828 -0.0000
vn -0.9701 0.2426 -0.0000
vn -0.9806 0.1960 -0.0000
vn -0.9888 0.1492 -0.0000
vn -0.9888 0.1494 -0.0000
vn -0.9947 0.1031 -0.0000
vn -0.9989 0.0466 -0.0000
vn -0.9989 -0.0466 -0.0000
vn -0.9888 -0.1492 -0.0000
vn -0.9888 -0.1494 -0.0000
vn -0.9806 -0.1960 -0.0000
vn -0.9701 -0.2426 -0.0000
vn -0.9224 -0.3861 -0.0000
vn -0.9000 -0.4360 -0.0000
vn -0.9226 -0.3858 -0.0000
vn -0.8789 -0.4770 -0.0000
vn -0.8263 -0.5633 -0.0000
vn -0.7978 -0.6029 -0.0000
vn -0.7977 -0.6030 -0.0000
vn -0.7653 -0.6437 -0.0000
vn -0.7651 -0.6439 -0.0000
vn -0.6978 -0.7163 -0.0000
vn -0.6637 -0.7480 -0.0000
vn -0.4583 -0.8888 -0.0000
vn -0.4096 -0.9122 -0.0000
vn -0.3634 -0.9316 -0.0000
vn -0.3190 -0.9478 -0.0000
vn -0.2797 -0.9601 -0.0000
vn -0.2139 -0.9768 -0.0000
vn 0.4585 -0.8887 -0.0000
vn 0.6976 -0.7164 -0.0000
vn 0.7943 -0.6075 -0.0000
vn 0.8292 -0.5589 -0.0000
vn 0.9239 -0.3825 -0.0000
vn 0.9239 -0.3827 -0.0000
vn 0.9947 -0.1031 -0.0000
vn 0.9225 0.3860 -0.0000
vn 0.9226 0.3858 -0.0000
vn 0.8542 0.5200 -0.0000
vn 0.8263 0.5633 -0.0000
vn 0.7977 0.6030 -0.0000
vn 0.7978 0.6029 -0.0000
vn 0.6976 0.7165 -0.0000
vn 0.4096 0.9122 -0.0000
vn -0.3190 0.9478 -0.0000
vn -0.4096 0.9122 -0.0000
vn -0.7651 0.6439 -0.0000
vn -0.7653 0.6437 -0.0000
vn -0.7977 0.6030 -0.0000
vn -0.7978 0.6029 -0.0000
vn -0.8263 0.5633 -0.0000
vn -0.9226 0.3858 -0.0000
vn -0.9224 0.3861 -0.0000
vn -0.9947 -0.1031 -0.0000
vn -0.9238 -0.3828 -0.0000
vn -0.9239 -0.3825 -0.0000
vn -0.8291 -0.5590 -0.0000
vn -0.8292 -0.5589 -0.0000
vn -0.7943 -0.6075 -0.0000
vn -0.7691 -0.6392 -0.0000
vn -0.7689 -0.6394 -0.0000
vn -0.4585 -0.8887 -0.0000
vn -0.1218 -0.9926 -0.0000
s 0
f 1//1 2//1 3//1
f 3//1 2//1 4//1
f 5//2 1//2 6//2
f 6//2 1//2 3//2
f 2//3 7//3 4//3
f 4//3 7//3 8//3
f 1//4 9//4 10//4
f 10//4 11//4 1//4
f 1//4 12//4 9//4
f 11//4 13//4 1//4
f 1//4 14//4 12//4
f 13//4 15//4 1//4
f 1//4 16//4 14//4
f 15//4 17//4 1//4
f 1//4 18//4 16//4
f 17//4 19//4 1//4
f 1//4 20//4 18//4
f 19//4 21//4 1//4
f 1//4 22//4 20//4
f 21//4 23//4 1//4
f 1//5 24//5 22//5
f 23//4 25//4 1//4
f 1//6 26//6 24//6
f 25//4 27//4 1//4
f 1//4 28//4 26//4
f 27//4 29//4 1//4
f 1//4 30//4 28//4
f 29//6 31//6 1//6
f 1//4 32//4 30//4
f 31//4 33//4 1//4
f 1//4 34//4 32//4
f 33//7 35//7 1//7
f 1//6 36//6 34//6
f 35//4 37//4 1//4
f 1//4 38//4 36//4
f 37//4 39//4 1//4
f 1//5 40//5 38//5
f 39//8 41//8 1//8
f 1//6 42//6 40//6
f 41//4 43//4 1//4
f 1//4 44//4 42//4
f 43//4 45//4 1//4
f 1//5 46//5 44//5
f 45//9 47//9 1//9
f 1//6 48//6 46//6
f 47//4 49//4 1//4
f 1//4 50//4 48//4
f 49//4 51//4 1//4
f 1//4 52//4 50//4
f 51//4 53//4 1//4
f 1//6 54//6 52//6
f 53//4 55//4 1//4
f 1//9 56//9 54//9
f 55//10 57//10 1//10
f 1//11 58//11 56//11
f 59//5 60//5 61//5
f 62//8 60//8 59//8
f 61//4 63//4 59//4
f 64//8 63//8 65//8
f 59//4 63//4 64//4
f 66//4 67//4 62//4
f 62//4 67//4 60//4
f 63//4 68//4 65//4
f 69//4 70//4 66//4
f 66//4 70//4 67//4
f 71//4 72//4 73//4
f 65//7 72//7 71//7
f 68//4 72//4 65//4
f 74//4 75//4 69//4
f 69//4 75//4 70//4
f 72//4 76//4 73//4
f 77//6 78//6 74//6
f 74//4 78//4 75//4
f 79//12 80//12 81//12
f 73//4 80//4 79//4
f 76//4 80//4 73//4
f 82//4 83//4 77//4
f 84//5 83//5 82//5
f 77//4 83//4 78//4
f 80//9 85//9 81//9
f 86//4 87//4 84//4
f 84//4 87//4 83//4
f 57//4 88//4 1//4
f 81//12 88//12 57//12
f 85//4 88//4 81//4
f 86//4 89//4 87//4
f 90//4 91//4 86//4
f 86//4 91//4 89//4
f 92//6 93//6 90//6
f 90//4 93//4 91//4
f 94//5 95//5 92//5
f 92//4 95//4 93//4
f 94//4 96//4 95//4
f 97//4 96//4 94//4
f 98//4 99//4 97//4
f 97//4 99//4 96//4
f 98//6 100//6 99//6
f 101//5 100//5 98//5
f 102//4 100//4 101//4
f 102//4 103//4 100//4
f 102//4 104//4 103//4
f 105//4 104//4 102//4
f 106//4 107//4 105//4
f 105//4 107//4 104//4
f 108//4 109//4 106//4
f 106//4 109//4 107//4
f 110//5 111//5 108//5
f 108//6 111//6 109//6
f 112//5 113//5 110//5
f 114//4 113//4 112//4
f 110//4 113//4 111//4
f 114//4 115//4 113//4
f 116//4 117//4 114//4
f 118//5 117//5 116//5
f 114//4 117//4 115//4
f 118//4 119//4 117//4
f 120//4 119//4 118//4
f 120//4 121//4 119//4
f 122//4 123//4 120//4
f 120//4 123//4 121//4
f 124//6 125//6 122//6
f 122//4 125//4 123//4
f 126//4 127//4 124//4
f 128//5 127//5 126//5
f 124//4 127//4 125//4
f 129//4 130//4 128//4
f 128//4 130//4 127//4
f 129//4 131//4 130//4
f 132//4 133//4 129//4
f 134//4 133//4 132//4
f 129//4 133//4 131//4
f 135//7 136//7 134//7
f 134//4 136//4 133//4
f 137//10 2//10 88//10
f 138//4 2//4 137//4
f 139//4 2//4 138//4
f 140//4 2//4 139//4
f 141//4 2//4 140//4
f 142//9 2//9 141//9
f 143//4 2//4 142//4
f 144//4 2//4 143//4
f 145//8 2//8 144//8
f 146//4 2//4 145//4
f 147//4 2//4 146//4
f 148//7 2//7 147//7
f 149//4 2//4 148//4
f 150//6 2//6 149//6
f 151//4 2//4 150//4
f 152//4 2//4 151//4
f 153//4 2//4 152//4
f 154//4 2//4 153//4
f 155//4 2//4 154//4
f 156//4 2//4 155//4
f 157//4 2//4 156//4
f 158//4 2//4 157//4
f 159//4 2//4 158//4
f 160//4 2//4 159//4
f 88//4 2//4 1//4
f 135//6 161//6 136//6
f 160//6 162//6 2//6
f 163//4 164//4 135//4
f 135//6 164//6 161//6
f 162//4 165//4 2//4
f 166//4 167//4 163//4
f 163//5 167//5 164//5
f 165//5 168//5 2//5
f 169//8 170//8 166//8
f 171//4 170//4 169//4
f 166//5 170//5 167//5
f 168//4 172//4 2//4
f 171//4 173//4 170//4
f 172//4 174//4 2//4
f 174//4 175//4 2//4
f 175//6 176//6 2//6
f 176//5 177//5 2//5
f 177//6 178//6 2//6
f 178//4 179//4 2//4
f 179//4 180//4 2//4
f 180//4 181//4 2//4
f 181//4 182//4 2//4
f 182//6 183//6 2//6
f 183//4 184//4 2//4
f 184//5 185//5 2//5
f 185//6 186//6 2//6
f 186//4 187//4 2//4
f 187//5 188//5 2//5
f 188//4 189//4 2//4
f 189//4 190//4 2//4
f 190//4 191//4 2//4
f 191//4 192//4 2//4
f 192//13 193//13 2//13
f 193//11 194//11 2//11
f 195//4 196//4 197//4
f 195//4 198//4 196//4
f 199//4 198//4 195//4
f 196//4 200//4 197//4
f 199//4 201//4 198//4
f 202//4 201//4 199//4
f 197//4 203//4 204//4
f 200//4 203//4 197//4
f 205//4 206//4 202//4
f 207//4 206//4 205//4
f 202//4 206//4 201//4
f 208//4 209//4 210//4
f 204//4 209//4 208//4
f 203//4 209//4 204//4
f 207//4 211//4 206//4
f 209//4 212//4 210//4
f 207//4 213//4 211//4
f 214//4 213//4 207//4
f 210//4 215//4 216//4
f 212//4 215//4 210//4
f 214//4 217//4 213//4
f 218//4 217//4 214//4
f 216//4 219//4 220//4
f 215//4 219//4 216//4
f 218//4 221//4 217//4
f 58//4 221//4 218//4
f 219//4 222//4 220//4
f 220//4 222//4 223//4
f 222//4 224//4 223//4
f 223//4 224//4 225//4
f 225//4 226//4 227//4
f 224//4 226//4 225//4
f 227//4 228//4 229//4
f 226//4 228//4 227//4
f 228//4 230//4 229//4
f 229//4 230//4 231//4
f 231//4 232//4 233//4
f 230//4 232//4 231//4
f 233//4 234//4 235//4
f 232//4 234//4 233//4
f 234//4 236//4 235//4
f 235//4 236//4 237//4
f 238//4 239//4 240//4
f 237//4 239//4 238//4
f 236//4 239//4 237//4
f 239//4 241//4 240//4
f 241//4 242//4 240//4
f 240//4 242//4 243//4
f 242//4 244//4 243//4
f 243//4 244//4 245//4
f 246//4 247//4 248//4
f 245//4 247//4 246//4
f 244//4 247//4 245//4
f 247//4 249//4 248//4
f 249//4 250//4 248//4
f 248//4 250//4 251//4
f 250//4 252//4 251//4
f 251//4 252//4 253//4
f 253//4 254//4 255//4
f 252//4 254//4 253//4
f 255//4 256//4 257//4
f 254//4 256//4 255//4
f 257//4 258//4 259//4
f 256//4 258//4 257//4
f 260//4 261//4 171//4
f 259//4 261//4 260//4
f 258//4 261//4 259//4
f 261//4 262//4 171//4
f 263//4 5//4 264//4
f 265//6 5//6 263//6
f 266//4 5//4 265//4
f 267//4 5//4 266//4
f 268//4 5//4 267//4
f 269//5 5//5 268//5
f 270//6 5//6 269//6
f 1//4 5//4 58//4
f 271//5 5//5 270//5
f 272//4 5//4 271//4
f 273//4 5//4 272//4
f 274//4 5//4 273//4
f 275//4 5//4 274//4
f 276//5 5//5 275//5
f 277//4 5//4 276//4
f 278//6 5//6 277//6
f 279//5 5//5 278//5
f 280//4 5//4 279//4
f 281//6 5//6 280//6
f 282//4 5//4 281//4
f 283//4 5//4 282//4
f 284//4 5//4 283//4
f 285//4 5//4 284//4
f 286//14 5//14 285//14
f 221//15 5//15 286//15
f 58//4 5//4 221//4
f 5//4 287//4 264//4
f 5//4 288//4 287//4
f 5//4 289//4 288//4
f 5//4 290//4 289//4
f 5//4 291//4 290//4
f 5//4 292//4 291//4
f 5//4 293//4 292//4
f 5//4 294//4 293//4
f 5//4 295//4 294//4
f 5//4 296//4 295//4
f 5//4 297//4 296//4
f 5//5 298//5 297//5
f 5//4 299//4 298//4
f 5//6 300//6 299//6
f 5//4 301//4 300//4
f 5//4 302//4 301//4
f 5//5 303//5 302//5
f 5//4 304//4 303//4
f 5//4 305//4 304//4
f 5//8 306//8 305//8
f 5//5 307//5 306//5
f 5//7 308//7 307//7
f 5//8 309//8 308//8
f 5//4 310//4 309//4
f 5//16 311//16 310//16
f 312//8 313//8 314//8
f 314//5 313//5 315//5
f 314//4 316//4 317//4
f 315//4 316//4 314//4
f 312//4 318//4 313//4
f 319//4 318//4 312//4
f 316//8 320//8 317//8
f 317//4 320//4 321//4
f 319//4 322//4 318//4
f 323//4 322//4 319//4
f 324//4 322//4 323//4
f 325//4 326//4 262//4
f 321//7 326//7 325//7
f 320//4 326//4 321//4
f 324//4 327//4 322//4
f 262//4 328//4 171//4
f 171//4 328//4 173//4
f 326//4 328//4 262//4
f 324//4 329//4 327//4
f 330//6 329//6 324//6
f 328//4 331//4 173//4
f 173//4 331//4 332//4
f 333//4 334//4 330//4
f 335//5 334//5 333//5
f 330//4 334//4 329//4
f 336//4 337//4 338//4
f 332//4 337//4 336//4
f 331//4 337//4 332//4
f 335//4 339//4 334//4
f 340//4 339//4 335//4
f 337//4 341//4 338//4
f 340//4 342//4 339//4
f 338//4 343//4 344//4
f 341//4 343//4 338//4
f 345//4 346//4 340//4
f 347//4 346//4 345//4
f 340//4 346//4 342//4
f 344//4 348//4 349//4
f 343//4 348//4 344//4
f 347//6 350//6 346//6
f 349//4 351//4 352//4
f 348//4 351//4 349//4
f 353//5 354//5 347//5
f 347//4 354//4 350//4
f 352//4 355//4 356//4
f 351//4 355//4 352//4
f 353//4 357//4 354//4
f 358//4 357//4 353//4
f 359//6 357//6 358//6
f 356//4 360//4 361//4
f 355//4 360//4 356//4
f 359//4 362//4 357//4
f 361//4 363//4 364//4
f 360//4 363//4 361//4
f 359//6 365//6 362//6
f 366//5 365//5 359//5
f 363//4 367//4 364//4
f 364//4 367//4 368//4
f 366//4 369//4 365//4
f 370//4 369//4 366//4
f 367//4 371//4 368//4
f 372//4 371//4 373//4
f 368//4 371//4 372//4
f 370//4 374//4 369//4
f 375//4 374//4 370//4
f 371//4 376//4 373//4
f 375//4 377//4 374//4
f 378//4 377//4 375//4
f 373//4 379//4 380//4
f 376//4 379//4 373//4
f 378//4 381//4 377//4
f 382//4 381//4 378//4
f 383//6 381//6 382//6
f 379//4 384//4 380//4
f 380//4 384//4 385//4
f 383//5 386//5 381//5
f 384//4 387//4 385//4
f 388//4 387//4 389//4
f 385//4 387//4 388//4
f 383//4 390//4 386//4
f 391//5 390//5 383//5
f 392//4 390//4 391//4
f 387//4 393//4 389//4
f 389//4 393//4 394//4
f 392//4 395//4 390//4
f 393//4 396//4 394//4
f 397//4 398//4 392//4
f 392//4 398//4 395//4
f 399//4 400//4 401//4
f 394//4 400//4 399//4
f 396//4 400//4 394//4
f 397//5 402//5 398//5
f 403//4 402//4 397//4
f 404//4 402//4 403//4
f 400//4 405//4 401//4
f 401//4 405//4 406//4
f 404//4 407//4 402//4
f 405//4 408//4 406//4
f 404//4 409//4 407//4
f 410//4 409//4 404//4
f 411//4 409//4 410//4
f 412//4 413//4 414//4
f 406//4 413//4 412//4
f 408//4 413//4 406//4
f 411//4 415//4 409//4
f 416//4 415//4 411//4
f 413//4 417//4 414//4
f 414//4 417//4 418//4
f 416//4 419//4 415//4
f 417//4 420//4 418//4
f 416//5 421//5 419//5
f 422//4 421//4 416//4
f 423//4 421//4 422//4
f 418//4 424//4 425//4
f 420//4 424//4 418//4
f 423//4 426//4 421//4
f 427//4 426//4 423//4
f 424//4 428//4 425//4
f 429//4 428//4 430//4
f 425//4 428//4 429//4
f 427//4 431//4 426//4
f 430//4 432//4 433//4
f 428//4 432//4 430//4
f 434//4 435//4 427//4
f 427//4 435//4 431//4
f 432//4 436//4 433//4
f 433//4 436//4 437//4
f 438//4 439//4 434//4
f 434//5 439//5 435//5
f 436//4 440//4 437//4
f 438//6 441//6 439//6
f 442//4 441//4 438//4
f 437//4 443//4 444//4
f 440//4 443//4 437//4
f 445//4 446//4 442//4
f 442//5 446//5 441//5
f 443//4 447//4 444//4
f 448//4 447//4 449//4
f 444//4 447//4 448//4
f 445//5 450//5 446//5
f 451//8 450//8 445//8
f 452//4 450//4 451//4
f 447//4 453//4 449//4
f 452//4 454//4 450//4
f 449//4 455//4 456//4
f 453//4 455//4 449//4
f 452//4 457//4 454//4
f 458//4 457//4 452//4
f 455//4 459//4 456//4
f 456//4 459//4 460//4
f 459//4 461//4 460//4
f 460//4 461//4 194//4
f 462//4 7//4 463//4
f 464//4 7//4 465//4
f 466//6 7//6 462//6
f 467//4 7//4 464//4
f 468//4 7//4 466//4
f 469//4 7//4 467//4
f 470//5 7//5 468//5
f 471//4 7//4 469//4
f 472//4 7//4 471//4
f 461//4 7//4 194//4
f 473//5 7//5 472//5
f 474//4 7//4 473//4
f 475//8 7//8 474//8
f 476//4 7//4 475//4
f 477//4 7//4 476//4
f 478//7 7//7 477//7
f 479//4 7//4 478//4
f 480//4 7//4 479//4
f 481//12 7//12 480//12
f 482//4 7//4 481//4
f 483//4 7//4 482//4
f 484//4 7//4 483//4
f 485//4 7//4 484//4
f 486//4 7//4 485//4
f 194//4 7//4 2//4
f 487//6 7//6 470//6
f 488//4 7//4 487//4
f 489//5 7//5 488//5
f 490//4 7//4 489//4
f 491//4 7//4 490//4
f 492//4 7//4 491//4
f 493//4 7//4 492//4
f 494//5 7//5 493//5
f 495//6 7//6 494//6
f 496//5 7//5 495//5
f 497//4 7//4 496//4
f 498//4 7//4 497//4
f 499//4 7//4 498//4
f 500//6 7//6 499//6
f 501//4 7//4 500//4
f 502//5 7//5 501//5
f 503//15 7//15 461//15
f 504//4 7//4 502//4
f 505//14 7//14 503//14
f 506//4 7//4 504//4
f 507//4 7//4 505//4
f 508//4 7//4 506//4
f 509//4 7//4 507//4
f 510//4 7//4 508//4
f 463//4 7//4 509//4
f 465//6 7//6 510//6
f 5//4 7//4 311//4
f 311//16 7//16 511//16
f 511//8 7//8 458//8
f 458//4 7//4 486//4
f 458//14 486//14 512//14
f 458//9 512//9 457//9
f 513//17 3//17 514//17
f 515//17 514//17 3//17
f 516//17 3//17 513//17
f 517//18 515//18 3//18
f 518//17 3//17 516//17
f 519//17 517//17 3//17
f 520//17 3//17 518//17
f 521//19 519//19 3//19
f 522//19 3//19 520//19
f 523//17 521//17 3//17
f 524//17 3//17 522//17
f 525//18 523//18 3//18
f 526//17 3//17 524//17
f 527//17 525//17 3//17
f 528//19 3//19 526//19
f 529//17 527//17 3//17
f 530//18 3//18 528//18
f 531//17 529//17 3//17
f 532//17 3//17 530//17
f 533//17 531//17 3//17
f 534//18 3//18 532//18
f 535//17 533//17 3//17
f 536//17 3//17 534//17
f 537//17 535//17 3//17
f 538//19 3//19 536//19
f 539//17 537//17 3//17
f 540//17 3//17 538//17
f 541//17 539//17 3//17
f 542//17 3//17 540//17
f 543//17 541//17 3//17
f 544//17 3//17 542//17
f 545//17 543//17 3//17
f 546//17 3//17 544//17
f 547//17 545//17 3//17
f 548//17 3//17 546//17
f 549//17 547//17 3//17
f 550//17 3//17 548//17
f 551//17 549//17 3//17
f 552//18 3//18 550//18
f 553//17 551//17 3//17
f 554//17 3//17 552//17
f 555//20 553//20 3//20
f 556//21 3//21 554//21
f 557//17 555//17 3//17
f 558//17 3//17 556//17
f 559//22 557//22 3//22
f 560//23 3//23 558//23
f 561//17 559//17 3//17
f 562//24 3//24 560//24
f 563//17 564//17 565//17
f 563//18 566//18 564//18
f 567//25 565//25 564//25
f 567//17 568//17 569//17
f 567//19 564//19 568//19
f 570//18 571//18 566//18
f 570//21 566//21 563//21
f 572//17 567//17 569//17
f 573//17 574//17 571//17
f 573//17 571//17 570//17
f 575//19 576//19 577//19
f 575//21 569//21 576//21
f 575//17 572//17 569//17
f 578//19 579//19 574//19
f 578//17 574//17 573//17
f 580//25 575//25 577//25
f 581//17 582//17 579//17
f 581//17 579//17 578//17
f 583//26 584//26 585//26
f 583//18 577//18 584//18
f 583//27 580//27 577//27
f 586//19 587//19 582//19
f 586//17 588//17 587//17
f 586//17 582//17 581//17
f 589//27 583//27 585//27
f 590//18 591//18 588//18
f 590//17 588//17 586//17
f 592//17 561//17 3//17
f 592//19 585//19 561//19
f 592//26 589//26 585//26
f 593//17 591//17 590//17
f 594//18 595//18 591//18
f 594//17 591//17 593//17
f 596//25 597//25 595//25
f 596//21 595//21 594//21
f 598//17 599//17 597//17
f 598//17 597//17 596//17
f 600//17 599//17 598//17
f 600//18 601//18 599//18
f 602//19 603//19 601//19
f 602//17 601//17 600//17
f 604//17 603//17 602//17
f 604//17 605//17 603//17
f 604//19 606//19 605//19
f 607//17 606//17 604//17
f 608//18 606//18 607//18
f 608//19 609//19 606//19
f 610//21 611//21 609//21
f 610//18 609//18 608//18
f 612//18 613//18 611//18
f 612//17 611//17 610//17
f 614//17 615//17 613//17
f 614//17 613//17 612//17
f 616//19 617//19 615//19
f 616//19 618//19 617//19
f 616//18 615//18 614//18
f 619//17 618//17 616//17
f 620//17 621//17 618//17
f 620//21 622//21 621//21
f 620//17 618//17 619//17
f 623//25 622//25 620//25
f 623//19 624//19 622//19
f 625//17 624//17 623//17
f 626//19 627//19 624//19
f 626//17 624//17 625//17
f 628//17 629//17 627//17
f 628//17 627//17 626//17
f 630//18 631//18 629//18
f 630//17 632//17 631//17
f 630//17 629//17 628//17
f 633//18 634//18 632//18
f 633//17 632//17 630//17
f 635//17 634//17 633//17
f 636//17 637//17 634//17
f 636//19 638//19 637//19
f 636//17 634//17 635//17
f 639//19 640//19 638//19
f 639//25 638//25 636//25
f 4//25 641//25 592//25
f 4//23 642//23 641//23
f 4//17 643//17 642//17
f 4//25 644//25 643//25
f 4//19 645//19 644//19
f 4//18 646//18 645//18
f 4//18 647//18 646//18
f 4//17 648//17 647//17
f 4//17 649//17 648//17
f 4//17 650//17 649//17
f 4//19 651//19 650//19
f 4//17 652//17 651//17
f 4//17 653//17 652//17
f 4//17 654//17 653//17
f 4//17 655//17 654//17
f 4//18 656//18 655//18
f 4//17 657//17 656//17
f 4//19 658//19 657//19
f 4//18 659//18 658//18
f 4//17 660//17 659//17
f 4//17 661//17 660//17
f 4//17 662//17 661//17
f 4//17 663//17 662//17
f 4//17 664//17 663//17
f 4//17 592//17 3//17
f 665//17 640//17 639//17
f 666//17 664//17 4//17
f 667//18 668//18 640//18
f 667//21 640//21 665//21
f 669//17 666//17 4//17
f 670//17 671//17 668//17
f 670//17 668//17 667//17
f 672//17 669//17 4//17
f 673//25 674//25 671//25
f 673//18 675//18 674//18
f 673//17 671//17 670//17
f 676//17 672//17 4//17
f 677//21 675//21 673//21
f 678//19 676//19 4//19
f 679//17 678//17 4//17
f 680//17 679//17 4//17
f 681//19 680//19 4//19
f 682//18 681//18 4//18
f 683//17 682//17 4//17
f 684//18 683//18 4//18
f 685//17 684//17 4//17
f 686//19 685//19 4//19
f 687//17 686//17 4//17
f 688//17 687//17 4//17
f 689//17 688//17 4//17
f 690//17 689//17 4//17
f 691//17 690//17 4//17
f 692//17 691//17 4//17
f 693//18 692//18 4//18
f 694//17 693//17 4//17
f 695//21 694//21 4//21
f 696//17 695//17 4//17
f 697//23 696//23 4//23
f 698//24 697//24 4//24
f 699//17 700//17 701//17
f 702//17 700//17 699//17
f 702//17 703//17 700//17
f 704//17 699//17 701//17
f 705//17 703//17 702//17
f 705//17 706//17 703//17
f 707//17 701//17 708//17
f 707//17 704//17 701//17
f 709//17 710//17 706//17
f 709//17 711//17 710//17
f 709//17 706//17 705//17
f 712//17 713//17 714//17
f 712//17 708//17 713//17
f 712//17 707//17 708//17
f 715//17 711//17 709//17
f 716//17 712//17 714//17
f 717//17 711//17 715//17
f 717//17 718//17 711//17
f 719//17 714//17 720//17
f 719//17 716//17 714//17
f 721//17 718//17 717//17
f 721//17 722//17 718//17
f 723//17 720//17 724//17
f 723//17 719//17 720//17
f 725//17 722//17 721//17
f 725//17 562//17 722//17
f 726//17 723//17 724//17
f 726//17 724//17 727//17
f 728//17 726//17 727//17
f 728//17 727//17 729//17
f 730//17 729//17 731//17
f 730//17 728//17 729//17
f 732//17 731//17 733//17
f 732//17 730//17 731//17
f 734//17 732//17 733//17
f 734//17 733//17 735//17
f 736//17 735//17 737//17
f 736//17 734//17 735//17
f 738//17 737//17 739//17
f 738//17 736//17 737//17
f 740//17 738//17 739//17
f 740//17 739//17 741//17
f 742//17 743//17 744//17
f 742//17 741//17 743//17
f 742//17 740//17 741//17
f 745//17 742//17 744//17
f 746//17 745//17 744//17
f 746//17 744//17 747//17
f 748//17 746//17 747//17
f 748//17 747//17 749//17
f 750//17 751//17 752//17
f 750//17 749//17 751//17
f 750//17 748//17 749//17
f 753//17 750//17 752//17
f 754//17 753//17 752//17
f 754//17 752//17 755//17
f 756//17 754//17 755//17
f 756//17 755//17 757//17
f 758//17 757//17 759//17
f 758//17 756//17 757//17
f 760//17 759//17 761//17
f 760//17 758//17 759//17
f 762//17 761//17 763//17
f 762//17 760//17 761//17
f 764//17 765//17 675//17
f 764//17 763//17 765//17
f 764//17 762//17 763//17
f 766//17 764//17 675//17
f 6//17 767//17 768//17
f 6//17 769//17 767//17
f 6//17 770//17 769//17
f 6//17 771//17 770//17
f 6//17 772//17 771//17
f 6//17 773//17 772//17
f 6//17 774//17 773//17
f 6//17 3//17 562//17
f 6//17 775//17 774//17
f 6//17 776//17 775//17
f 6//17 777//17 776//17
f 6//17 778//17 777//17
f 6//17 779//17 778//17
f 6//17 780//17 779//17
f 6//17 781//17 780//17
f 6//17 782//17 781//17
f 6//17 783//17 782//17
f 6//17 784//17 783//17
f 6//17 785//17 784//17
f 6//19 786//19 785//19
f 6//17 787//17 786//17
f 6//18 788//18 787//18
f 6//17 789//17 788//17
f 6//25 790//25 789//25
f 6//28 725//28 790//28
f 6//17 562//17 725//17
f 791//17 6//17 768//17
f 792//17 6//17 791//17
f 793//19 6//19 792//19
f 794//17 6//17 793//17
f 795//18 6//18 794//18
f 796//17 6//17 795//17
f 797//19 6//19 796//19
f 798//17 6//17 797//17
f 799//17 6//17 798//17
f 800//17 6//17 799//17
f 801//17 6//17 800//17
f 802//17 6//17 801//17
f 803//17 6//17 802//17
f 804//17 6//17 803//17
f 805//17 6//17 804//17
f 806//17 6//17 805//17
f 807//17 6//17 806//17
f 808//17 6//17 807//17
f 809//17 6//17 808//17
f 810//17 6//17 809//17
f 811//17 6//17 810//17
f 812//23 6//23 811//23
f 813//17 6//17 812//17
f 814//24 6//24 813//24
f 815//17 6//17 814//17
f 816//18 817//18 818//18
f 816//17 818//17 819//17
f 820//19 818//19 821//19
f 820//25 819//25 818//25
f 822//21 817//21 816//21
f 822//18 823//18 817//18
f 824//17 820//17 821//17
f 824//17 821//17 825//17
f 826//17 823//17 822//17
f 826//17 827//17 823//17
f 826//18 828//18 827//18
f 829//19 830//19 766//19
f 829//21 825//21 830//21
f 829//17 824//17 825//17
f 831//21 828//21 826//21
f 832//17 766//17 675//17
f 832//17 675//17 677//17
f 832//25 829//25 766//25
f 833//17 828//17 831//17
f 833//17 834//17 828//17
f 835//17 832//17 677//17
f 835//17 677//17 836//17
f 837//19 838//19 834//19
f 837//17 839//17 838//17
f 837//17 834//17 833//17
f 840//17 841//17 842//17
f 840//17 836//17 841//17
f 840//17 835//17 836//17
f 843//17 839//17 837//17
f 843//18 844//18 839//18
f 845//17 840//17 842//17
f 846//17 844//17 843//17
f 847//17 842//17 848//17
f 847//17 845//17 842//17
f 849//18 850//18 844//18
f 849//19 851//19 850//19
f 849//17 844//17 846//17
f 852//17 848//17 853//17
f 852//17 847//17 848//17
f 854//25 851//25 849//25
f 855//17 853//17 856//17
f 855//17 852//17 853//17
f 857//17 858//17 851//17
f 857//17 851//17 854//17
f 859//17 856//17 860//17
f 859//17 855//17 856//17
f 861//17 858//17 857//17
f 861//18 862//18 858//18
f 861//18 863//18 862//18
f 864//17 860//17 865//17
f 864//17 859//17 860//17
f 866//19 863//19 861//19
f 867//17 865//17 868//17
f 867//17 864//17 865//17
f 869//17 863//17 866//17
f 869//17 870//17 863//17
f 871//17 867//17 868//17
f 871//17 868//17 872//17
f 873//17 870//17 869//17
f 873//19 874//19 870//19
f 875//17 871//17 872//17
f 875//17 876//17 877//17
f 875//17 872//17 876//17
f 878//18 874//18 873//18
f 878//19 879//19 874//19
f 880//17 875//17 877//17
f 881//18 879//18 878//18
f 881//21 882//21 879//21
f 883//17 877//17 884//17
f 883//17 880//17 877//17
f 885//17 882//17 881//17
f 885//18 886//18 882//18
f 885//17 887//17 886//17
f 888//17 883//17 884//17
f 888//17 884//17 889//17
f 890//17 887//17 885//17
f 891//17 888//17 889//17
f 891//17 892//17 893//17
f 891//17 889//17 892//17
f 894//18 887//18 890//18
f 894//19 895//19 887//19
f 894//19 896//19 895//19
f 897//17 891//17 893//17
f 897//17 893//17 898//17
f 899//17 896//17 894//17
f 900//17 897//17 898//17
f 901//17 902//17 896//17
f 901//17 896//17 899//17
f 903//17 904//17 905//17
f 903//17 898//17 904//17
f 903//17 900//17 898//17
f 906//21 902//21 901//21
f 906//18 907//18 902//18
f 906//19 908//19 907//19
f 909//17 903//17 905//17
f 909//17 905//17 910//17
f 911//17 908//17 906//17
f 912//17 909//17 910//17
f 913//17 908//17 911//17
f 913//19 914//19 908//19
f 913//17 915//17 914//17
f 916//17 917//17 918//17
f 916//17 910//17 917//17
f 916//17 912//17 910//17
f 919//17 915//17 913//17
f 919//18 920//18 915//18
f 921//17 916//17 918//17
f 921//17 918//17 922//17
f 923//17 920//17 919//17
f 924//17 921//17 922//17
f 925//17 920//17 923//17
f 925//17 926//17 920//17
f 925//18 927//18 926//18
f 928//17 922//17 929//17
f 928//17 924//17 922//17
f 930//17 927//17 925//17
f 930//17 931//17 927//17
f 932//17 928//17 929//17
f 932//17 933//17 934//17
f 932//17 929//17 933//17
f 935//17 931//17 930//17
f 936//17 934//17 937//17
f 936//17 932//17 934//17
f 938//18 939//18 931//18
f 938//17 931//17 935//17
f 940//17 936//17 937//17
f 940//17 937//17 941//17
f 942//18 943//18 939//18
f 942//21 939//21 938//21
f 944//17 940//17 941//17
f 945//21 943//21 942//21
f 945//18 946//18 943//18
f 947//17 941//17 948//17
f 947//17 944//17 941//17
f 949//17 950//17 946//17
f 949//17 946//17 945//17
f 951//17 947//17 948//17
f 951//17 952//17 953//17
f 951//17 948//17 952//17
f 954//17 950//17 949//17
f 954//25 955//25 950//25
f 954//18 956//18 955//18
f 957//17 951//17 953//17
f 958//21 956//21 954//21
f 959//17 953//17 960//17
f 959//17 957//17 953//17
f 961//26 956//26 958//26
f 961//19 962//19 956//19
f 963//17 959//17 960//17
f 963//17 960//17 964//17
f 965//17 963//17 964//17
f 965//17 964//17 698//17
f 8//19 966//19 967//19
f 8//19 968//19 969//19
f 8//17 970//17 966//17
f 8//18 971//18 968//18
f 8//17 972//17 970//17
f 8//17 973//17 971//17
f 8//17 974//17 972//17
f 8//19 975//19 973//19
f 8//17 976//17 975//17
f 8//17 965//17 698//17
f 8//17 977//17 976//17
f 8//17 978//17 977//17
f 8//17 979//17 978//17
f 8//18 980//18 979//18
f 8//17 981//17 980//17
f 8//17 982//17 981//17
f 8//17 983//17 982//17
f 8//19 984//19 983//19
f 8//19 985//19 984//19
f 8//18 986//18 985//18
f 8//21 987//21 986//21
f 8//17 988//17 987//17
f 8//20 989//20 988//20
f 8//21 990//21 989//21
f 8//17 698//17 4//17
f 8//17 991//17 974//17
f 8//17 992//17 991//17
f 8//17 993//17 992//17
f 8//17 994//17 993//17
f 8//17 995//17 994//17
f 8//17 996//17 995//17
f 8//17 997//17 996//17
f 8//17 998//17 997//17
f 8//17 999//17 998//17
f 8//17 1000//17 999//17
f 8//17 1001//17 1000//17
f 8//17 1002//17 1001//17
f 8//17 1003//17 1002//17
f 8//17 1004//17 1003//17
f 8//17 1005//17 1004//17
f 8//17 1006//17 1005//17
f 8//28 1007//28 965//28
f 8//17 1008//17 1006//17
f 8//25 1009//25 1007//25
f 8//17 1010//17 1008//17
f 8//17 1011//17 1009//17
f 8//17 1012//17 1010//17
f 8//18 1013//18 1011//18
f 8//17 1014//17 1012//17
f 8//17 967//17 1013//17
f 8//17 969//17 1014//17
f 8//17 6//17 815//17
f 8//29 815//29 1015//29
f 8//26 1015//26 962//26
f 8//17 962//17 990//17
f 990//26 962//26 1016//26
f 1016//27 962//27 961//27
f 7//30 5//30 8//30
f 8//30 5//30 6//30
f 609//31 611//31 105//31
f 105//31 611//31 106//31
f 106//32 613//32 108//32
f 611//32 613//32 106//32
f 108//33 615//33 110//33
f 613//33 615//33 108//33
f 110//34 617//34 112//34
f 615//34 617//34 110//34
f 112//35 618//35 114//35
f 617//35 618//35 112//35
f 114//36 621//36 116//36
f 618//36 621//36 114//36
f 116//37 622//37 118//37
f 118//38 622//38 120//38
f 621//37 622//37 116//37
f 120//39 624//39 122//39
f 622//40 624//40 120//40
f 624//39 627//39 122//39
f 122//41 629//41 124//41
f 627//42 629//42 122//42
f 629//43 631//43 124//43
f 124//44 631//44 126//44
f 631//45 632//45 126//45
f 126//45 632//45 128//45
f 632//46 634//46 128//46
f 128//46 634//46 129//46
f 634//47 637//47 129//47
f 129//47 637//47 132//47
f 637//48 638//48 132//48
f 132//48 638//48 134//48
f 638//49 640//49 134//49
f 134//50 640//50 135//50
f 640//51 668//51 135//51
f 135//51 668//51 163//51
f 668//52 671//52 163//52
f 163//52 671//52 166//52
f 671//53 674//53 166//53
f 166//53 674//53 169//53
f 674//54 675//54 169//54
f 169//55 675//55 171//55
f 675//56 765//56 171//56
f 171//56 765//56 260//56
f 260//57 765//57 259//57
f 765//57 763//57 259//57
f 259//58 761//58 257//58
f 763//59 761//59 259//59
f 257//60 761//60 255//60
f 255//61 759//61 253//61
f 761//60 759//60 255//60
f 253//62 757//62 251//62
f 759//61 757//61 253//61
f 251//63 755//63 248//63
f 757//62 755//62 251//62
f 755//63 752//63 248//63
f 248//64 751//64 246//64
f 752//64 751//64 248//64
f 246//65 749//65 245//65
f 245//66 749//66 243//66
f 751//65 749//65 246//65
f 243//67 747//67 240//67
f 749//66 747//66 243//66
f 747//67 744//67 240//67
f 240//1 743//1 238//1
f 238//68 743//68 237//68
f 744//1 743//1 240//1
f 743//68 741//68 237//68
f 237//69 739//69 235//69
f 235//70 739//70 233//70
f 741//69 739//69 237//69
f 739//70 737//70 233//70
f 737//71 735//71 233//71
f 233//71 735//71 231//71
f 735//72 733//72 231//72
f 231//72 733//72 229//72
f 733//73 731//73 229//73
f 229//73 731//73 227//73
f 731//74 729//74 227//74
f 227//74 729//74 225//74
f 729//75 727//75 225//75
f 225//75 727//75 223//75
f 727//76 724//76 223//76
f 223//76 724//76 220//76
f 724//77 720//77 220//77
f 220//77 720//77 216//77
f 216//78 720//78 210//78
f 720//78 714//78 210//78
f 714//79 713//79 210//79
f 210//79 713//79 208//79
f 713//80 708//80 208//80
f 208//80 708//80 204//80
f 204//81 708//81 197//81
f 708//81 701//81 197//81
f 701//82 700//82 197//82
f 197//82 700//82 195//82
f 195//83 700//83 199//83
f 700//84 703//84 199//84
f 703//85 706//85 199//85
f 199//85 706//85 202//85
f 706//86 710//86 202//86
f 202//86 710//86 205//86
f 710//87 711//87 205//87
f 205//87 711//87 207//87
f 711//88 718//88 207//88
f 207//88 718//88 214//88
f 718//89 722//89 214//89
f 214//89 722//89 218//89
f 722//90 562//90 218//90
f 218//90 562//90 58//90
f 562//91 560//91 58//91
f 58//91 560//91 56//91
f 560//92 558//92 56//92
f 56//93 558//93 54//93
f 558//94 556//94 54//94
f 54//94 556//94 52//94
f 52//95 556//95 50//95
f 556//95 554//95 50//95
f 50//96 552//96 48//96
f 48//97 552//97 46//97
f 554//96 552//96 50//96
f 552//97 550//97 46//97
f 46//98 548//98 44//98
f 550//98 548//98 46//98
f 548//99 546//99 44//99
f 44//99 546//99 42//99
f 546//100 544//100 42//100
f 42//100 544//100 40//100
f 544//101 542//101 40//101
f 40//101 542//101 38//101
f 542//102 540//102 38//102
f 38//102 540//102 36//102
f 36//103 540//103 34//103
f 540//103 538//103 34//103
f 34//104 538//104 32//104
f 538//104 536//104 32//104
f 536//105 534//105 32//105
f 32//105 534//105 30//105
f 30//106 534//106 28//106
f 534//106 532//106 28//106
f 532//107 530//107 28//107
f 28//107 530//107 26//107
f 530//108 528//108 26//108
f 26//109 528//109 24//109
f 528//110 526//110 24//110
f 24//110 526//110 22//110
f 526//111 524//111 22//111
f 22//111 524//111 20//111
f 18//112 522//112 16//112
f 524//113 522//113 20//113
f 20//113 522//113 18//113
f 522//112 520//112 16//112
f 16//114 518//114 14//114
f 14//115 518//115 12//115
f 520//116 518//116 16//116
f 518//115 516//115 12//115
f 12//117 513//117 9//117
f 516//117 513//117 12//117
f 9//118 514//118 10//118
f 513//118 514//118 9//118
f 10//119 515//119 11//119
f 514//119 515//119 10//119
f 11//120 517//120 13//120
f 515//120 517//120 11//120
f 13//121 519//121 15//121
f 15//122 519//122 17//122
f 517//121 519//121 13//121
f 519//122 521//122 17//122
f 17//123 523//123 19//123
f 19//124 523//124 21//124
f 521//123 523//123 17//123
f 523//124 525//124 21//124
f 21//125 527//125 23//125
f 525//125 527//125 21//125
f 23//126 529//126 25//126
f 25//127 529//127 27//127
f 527//126 529//126 23//126
f 529//127 531//127 27//127
f 531//128 533//128 27//128
f 27//128 533//128 29//128
f 533//129 535//129 29//129
f 29//129 535//129 31//129
f 31//130 535//130 33//130
f 535//130 537//130 33//130
f 33//131 537//131 35//131
f 537//131 539//131 35//131
f 35//132 541//132 37//132
f 539//132 541//132 35//132
f 37//133 543//133 39//133
f 39//30 543//30 41//30
f 541//133 543//133 37//133
f 543//30 545//30 41//30
f 41//134 547//134 43//134
f 545//134 547//134 41//134
f 43//135 549//135 45//135
f 547//135 549//135 43//135
f 45//136 551//136 47//136
f 549//136 551//136 45//136
f 47//137 553//137 49//137
f 551//137 553//137 47//137
f 49//138 555//138 51//138
f 553//138 555//138 49//138
f 51//139 557//139 53//139
f 555//139 557//139 51//139
f 53//140 559//140 55//140
f 557//140 559//140 53//140
f 55//141 561//141 57//141
f 57//142 561//142 81//142
f 559//141 561//141 55//141
f 561//143 585//143 81//143
f 81//144 584//144 79//144
f 79//145 584//145 73//145
f 585//144 584//144 81//144
f 584//146 577//146 73//146
f 73//147 576//147 71//147
f 577//148 576//148 73//148
f 71//149 569//149 65//149
f 576//149 569//149 71//149
f 65//150 568//150 64//150
f 64//151 568//151 59//151
f 569//150 568//150 65//150
f 568//151 564//151 59//151
f 59//152 566//152 62//152
f 564//152 566//152 59//152
f 566//153 571//153 62//153
f 62//153 571//153 66//153
f 66//154 571//154 69//154
f 571//154 574//154 69//154
f 69//155 579//155 74//155
f 74//156 579//156 77//156
f 574//157 579//157 69//157
f 579//158 582//158 77//158
f 77//159 587//159 82//159
f 582//159 587//159 77//159
f 587//160 588//160 82//160
f 82//161 588//161 84//161
f 588//162 591//162 84//162
f 84//162 591//162 86//162
f 591//163 595//163 86//163
f 86//164 595//164 90//164
f 595//165 597//165 90//165
f 90//165 597//165 92//165
f 597//166 599//166 92//166
f 92//166 599//166 94//166
f 94//167 599//167 97//167
f 599//167 601//167 97//167
f 601//168 603//168 97//168
f 97//168 603//168 98//168
f 603//169 605//169 98//169
f 98//169 605//169 101//169
f 101//170 605//170 102//170
f 605//170 606//170 102//170
f 102//171 609//171 105//171
f 606//171 609//171 102//171
f 689//172 690//172 185//172
f 185//172 690//172 186//172
f 186//173 691//173 187//173
f 690//173 691//173 186//173
f 187//33 692//33 188//33
f 691//33 692//33 187//33
f 188//34 693//34 189//34
f 692//34 693//34 188//34
f 189//35 694//35 190//35
f 693//35 694//35 189//35
f 190//36 695//36 191//36
f 694//36 695//36 190//36
f 191//174 696//174 192//174
f 192//38 696//38 193//38
f 695//37 696//37 191//37
f 193//39 697//39 194//39
f 696//40 697//40 193//40
f 697//39 698//39 194//39
f 194//41 964//41 460//41
f 698//41 964//41 194//41
f 964//43 960//43 460//43
f 460//43 960//43 456//43
f 960//45 953//45 456//45
f 456//45 953//45 449//45
f 953//46 952//46 449//46
f 449//46 952//46 448//46
f 952//47 948//47 448//47
f 448//47 948//47 444//47
f 948//48 941//48 444//48
f 444//48 941//48 437//48
f 941//175 937//175 437//175
f 437//50 937//50 433//50
f 937//51 934//51 433//51
f 433//51 934//51 430//51
f 934//176 933//176 430//176
f 430//176 933//176 429//176
f 933//177 929//177 429//177
f 429//177 929//177 425//177
f 929//178 922//178 425//178
f 425//178 922//178 418//178
f 922//179 918//179 418//179
f 418//179 918//179 414//179
f 414//57 918//57 412//57
f 918//57 917//57 412//57
f 412//59 910//59 406//59
f 917//59 910//59 412//59
f 406//180 910//180 401//180
f 401//181 905//181 399//181
f 910//180 905//180 401//180
f 399//62 904//62 394//62
f 905//181 904//181 399//181
f 394//63 898//63 389//63
f 904//62 898//62 394//62
f 898//63 893//63 389//63
f 389//64 892//64 388//64
f 893//64 892//64 389//64
f 388//65 889//65 385//65
f 385//66 889//66 380//66
f 892//65 889//65 388//65
f 380//67 884//67 373//67
f 889//66 884//66 380//66
f 884//67 877//67 373//67
f 373//1 876//1 372//1
f 372//68 876//68 368//68
f 877//1 876//1 373//1
f 876//68 872//68 368//68
f 368//69 868//69 364//69
f 364//70 868//70 361//70
f 872//69 868//69 368//69
f 868//70 865//70 361//70
f 865//71 860//71 361//71
f 361//71 860//71 356//71
f 860//72 856//72 356//72
f 356//72 856//72 352//72
f 856//73 853//73 352//73
f 352//73 853//73 349//73
f 853//182 848//182 349//182
f 349//182 848//182 344//182
f 848//183 842//183 344//183
f 344//183 842//183 338//183
f 842//184 841//184 338//184
f 338//76 841//76 336//76
f 841//77 836//77 336//77
f 336//77 836//77 332//77
f 332//185 836//185 173//185
f 836//185 677//185 173//185
f 677//186 673//186 173//186
f 173//187 673//187 170//187
f 673//188 670//188 170//188
f 170//188 670//188 167//188
f 167//189 670//189 164//189
f 670//189 667//189 164//189
f 667//82 665//82 164//82
f 164//82 665//82 161//82
f 161//83 665//83 136//83
f 665//190 639//190 136//190
f 639//85 636//85 136//85
f 136//85 636//85 133//85
f 636//86 635//86 133//86
f 133//86 635//86 131//86
f 635//87 633//87 131//87
f 131//87 633//87 130//87
f 633//88 630//88 130//88
f 130//88 630//88 127//88
f 630//191 628//191 127//191
f 127//89 628//89 125//89
f 628//90 626//90 125//90
f 125//192 626//192 123//192
f 626//91 625//91 123//91
f 123//91 625//91 121//91
f 625//92 623//92 121//92
f 121//93 623//93 119//93
f 623//94 620//94 119//94
f 119//94 620//94 117//94
f 117//95 620//95 115//95
f 620//95 619//95 115//95
f 115//96 616//96 113//96
f 113//97 616//97 111//97
f 619//96 616//96 115//96
f 616//97 614//97 111//97
f 111//98 612//98 109//98
f 614//98 612//98 111//98
f 612//193 610//193 109//193
f 109//193 610//193 107//193
f 610//194 608//194 107//194
f 107//194 608//194 104//194
f 608//195 607//195 104//195
f 104//195 607//195 103//195
f 607//196 604//196 103//196
f 103//196 604//196 100//196
f 100//103 604//103 99//103
f 604//103 602//103 99//103
f 99//104 602//104 96//104
f 602//104 600//104 96//104
f 600//105 598//105 96//105
f 96//105 598//105 95//105
f 95//106 598//106 93//106
f 598//106 596//106 93//106
f 596//107 594//107 93//107
f 93//107 594//107 91//107
f 594//108 593//108 91//108
f 91//109 593//109 89//109
f 593//110 590//110 89//110
f 89//110 590//110 87//110
f 590//111 586//111 87//111
f 87//197 586//197 83//197
f 78//198 581//198 75//198
f 586//113 581//113 83//113
f 83//113 581//113 78//113
f 581//112 578//112 75//112
f 75//114 573//114 70//114
f 70//115 573//115 67//115
f 578//116 573//116 75//116
f 573//115 570//115 67//115
f 67//117 563//117 60//117
f 570//117 563//117 67//117
f 60//199 565//199 61//199
f 563//199 565//199 60//199
f 61//119 567//119 63//119
f 565//119 567//119 61//119
f 63//200 572//200 68//200
f 567//200 572//200 63//200
f 68//201 575//201 72//201
f 72//202 575//202 76//202
f 572//201 575//201 68//201
f 575//203 580//203 76//203
f 76//204 583//204 80//204
f 80//124 583//124 85//124
f 580//205 583//205 76//205
f 583//124 589//124 85//124
f 85//206 592//206 88//206
f 589//125 592//125 85//125
f 88//207 641//207 137//207
f 137//208 641//208 138//208
f 592//207 641//207 88//207
f 641//208 642//208 138//208
f 642//128 643//128 138//128
f 138//128 643//128 139//128
f 643//129 644//129 139//129
f 139//129 644//129 140//129
f 140//130 644//130 141//130
f 644//130 645//130 141//130
f 141//131 645//131 142//131
f 645//131 646//131 142//131
f 142//132 647//132 143//132
f 646//132 647//132 142//132
f 143//133 648//133 144//133
f 144//30 648//30 145//30
f 647//133 648//133 143//133
f 648//30 649//30 145//30
f 145//134 650//134 146//134
f 649//134 650//134 145//134
f 146//135 651//135 147//135
f 650//135 651//135 146//135
f 147//136 652//136 148//136
f 651//136 652//136 147//136
f 148//137 653//137 149//137
f 652//137 653//137 148//137
f 149//138 654//138 150//138
f 653//138 654//138 149//138
f 150//139 655//139 151//139
f 654//139 655//139 150//139
f 151//209 656//209 152//209
f 655//209 656//209 151//209
f 152//210 657//210 153//210
f 153//143 657//143 154//143
f 656//210 657//210 152//210
f 657//143 658//143 154//143
f 154//144 659//144 155//144
f 155//211 659//211 156//211
f 658//144 659//144 154//144
f 659//211 660//211 156//211
f 156//212 661//212 157//212
f 660//212 661//212 156//212
f 157//213 662//213 158//213
f 661//213 662//213 157//213
f 158//214 663//214 159//214
f 159//151 663//151 160//151
f 662//214 663//214 158//214
f 663//151 664//151 160//151
f 160//215 666//215 162//215
f 664//215 666//215 160//215
f 666//153 669//153 162//153
f 162//153 669//153 165//153
f 165//154 669//154 168//154
f 669//154 672//154 168//154
f 168//155 676//155 172//155
f 172//158 676//158 174//158
f 672//157 676//157 168//157
f 676//158 678//158 174//158
f 174//159 679//159 175//159
f 678//159 679//159 174//159
f 679//161 680//161 175//161
f 175//161 680//161 176//161
f 680//162 681//162 176//162
f 176//162 681//162 177//162
f 681//163 682//163 177//163
f 177//164 682//164 178//164
f 682//165 683//165 178//165
f 178//216 683//216 179//216
f 683//166 684//166 179//166
f 179//166 684//166 180//166
f 180//167 684//167 181//167
f 684//167 685//167 181//167
f 685//168 686//168 181//168
f 181//168 686//168 182//168
f 686//169 687//169 182//169
f 182//169 687//169 183//169
f 183//217 687//217 184//217
f 687//217 688//217 184//217
f 184//218 689//218 185//218
f 688//218 689//218 184//218
f 879//31 882//31 375//31
f 375//31 882//31 378//31
f 378//32 886//32 382//32
f 882//32 886//32 378//32
f 382//33 887//33 383//33
f 886//33 887//33 382//33
f 383//34 895//34 391//34
f 887//34 895//34 383//34
f 391//219 896//219 392//219
f 895//219 896//219 391//219
f 392//220 902//220 397//220
f 896//221 902//221 392//221
f 397//174 907//174 403//174
f 403//38 907//38 404//38
f 902//174 907//174 397//174
f 404//222 908//222 410//222
f 907//38 908//38 404//38
f 908//39 914//39 410//39
f 410//41 915//41 411//41
f 914//42 915//42 410//42
f 915//43 920//43 411//43
f 411//43 920//43 416//43
f 920//223 926//223 416//223
f 416//45 926//45 422//45
f 926//224 927//224 422//224
f 422//46 927//46 423//46
f 927//47 931//47 423//47
f 423//225 931//225 427//225
f 931//48 939//48 427//48
f 427//226 939//226 434//226
f 939//175 943//175 434//175
f 434//227 943//227 438//227
f 943//51 946//51 438//51
f 438//51 946//51 442//51
f 946//52 950//52 442//52
f 442//52 950//52 445//52
f 950//228 955//228 445//228
f 445//229 955//229 451//229
f 955//55 956//55 451//55
f 451//230 956//230 452//230
f 956//231 962//231 452//231
f 452//231 962//231 458//231
f 458//57 962//57 511//57
f 962//57 1015//57 511//57
f 511//58 815//58 311//58
f 1015//232 815//232 511//232
f 311//233 815//233 310//233
f 310//61 814//61 309//61
f 815//234 814//234 310//234
f 309//235 813//235 308//235
f 814//61 813//61 309//61
f 308//236 812//236 307//236
f 813//62 812//62 308//62
f 812//237 811//237 307//237
f 307//64 810//64 306//64
f 811//64 810//64 307//64
f 306//238 809//238 305//238
f 305//239 809//239 304//239
f 810//238 809//238 306//238
f 304//67 808//67 303//67
f 809//66 808//66 304//66
f 808//67 807//67 303//67
f 303//1 806//1 302//1
f 302//68 806//68 301//68
f 807//1 806//1 303//1
f 806//68 805//68 301//68
f 301//240 804//240 300//240
f 300//241 804//241 299//241
f 805//242 804//242 301//242
f 804//241 803//241 299//241
f 803//71 802//71 299//71
f 299//71 802//71 298//71
f 802//243 801//243 298//243
f 298//244 801//244 297//244
f 801//73 800//73 297//73
f 297//245 800//245 296//245
f 800//74 799//74 296//74
f 296//74 799//74 295//74
f 799//246 798//246 295//246
f 295//247 798//247 294//247
f 798//184 797//184 294//184
f 294//248 797//248 293//248
f 797//77 796//77 293//77
f 293//77 796//77 292//77
f 292//78 796//78 291//78
f 796//78 795//78 291//78
f 795//249 794//249 291//249
f 291//250 794//250 290//250
f 794//251 793//251 290//251
f 290//80 793//80 289//80
f 289//81 793//81 288//81
f 793//81 792//81 288//81
f 792//82 791//82 288//82
f 288//82 791//82 287//82
f 287//252 791//252 264//252
f 791//84 768//84 264//84
f 768//253 767//253 264//253
f 264//85 767//85 263//85
f 767//254 769//254 263//254
f 263//86 769//86 265//86
f 769//87 770//87 265//87
f 265//255 770//255 266//255
f 770//88 771//88 266//88
f 266//256 771//256 267//256
f 771//89 772//89 267//89
f 267//89 772//89 268//89
f 772//257 773//257 268//257
f 268//90 773//90 269//90
f 773//91 774//91 269//91
f 269//91 774//91 270//91
f 774//93 775//93 270//93
f 270//93 775//93 271//93
f 775//258 776//258 271//258
f 271//258 776//258 272//258
f 272//259 776//259 273//259
f 776//260 777//260 273//260
f 273//261 778//261 274//261
f 274//97 778//97 275//97
f 777//261 778//261 273//261
f 778//97 779//97 275//97
f 275//98 780//98 276//98
f 779//98 780//98 275//98
f 780//99 781//99 276//99
f 276//193 781//193 277//193
f 781//100 782//100 277//100
f 277//100 782//100 278//100
f 782//195 783//195 278//195
f 278//101 783//101 279//101
f 783//102 784//102 279//102
f 279//196 784//196 280//196
f 280//103 784//103 281//103
f 784//262 785//262 281//262
f 281//104 785//104 282//104
f 785//104 786//104 282//104
f 786//105 787//105 282//105
f 282//263 787//263 283//263
f 283//264 787//264 284//264
f 787//264 788//264 284//264
f 788//107 789//107 284//107
f 284//265 789//265 285//265
f 789//109 790//109 285//109
f 285//266 790//266 286//266
f 790//110 725//110 286//110
f 286//110 725//110 221//110
f 725//267 721//267 221//267
f 221//268 721//268 217//268
f 213//112 717//112 211//112
f 721//113 717//113 217//113
f 217//113 717//113 213//113
f 717//112 715//112 211//112
f 211//116 709//116 206//116
f 206//115 709//115 201//115
f 715//114 709//114 211//114
f 709//115 705//115 201//115
f 201//269 702//269 198//269
f 705//269 702//269 201//269
f 198//199 699//199 196//199
f 702//270 699//270 198//270
f 196//119 704//119 200//119
f 699//119 704//119 196//119
f 200//271 707//271 203//271
f 704//272 707//272 200//272
f 203//273 712//273 209//273
f 209//274 712//274 212//274
f 707//121 712//121 203//121
f 712//275 716//275 212//275
f 212//123 719//123 215//123
f 215//276 719//276 219//276
f 716//123 719//123 212//123
f 719//124 723//124 219//124
f 219//277 726//277 222//277
f 723//277 726//277 219//277
f 222//278 728//278 224//278
f 224//127 728//127 226//127
f 726//279 728//279 222//279
f 728//127 730//127 226//127
f 730//128 732//128 226//128
f 226//128 732//128 228//128
f 732//280 734//280 228//280
f 228//280 734//280 230//280
f 230//281 734//281 232//281
f 734//130 736//130 232//130
f 232//282 736//282 234//282
f 736//283 738//283 234//283
f 234//284 740//284 236//284
f 738//284 740//284 234//284
f 236//285 742//285 239//285
f 239//30 742//30 241//30
f 740//133 742//133 236//133
f 742//30 745//30 241//30
f 241//134 746//134 242//134
f 745//286 746//286 241//286
f 242//135 748//135 244//135
f 746//135 748//135 242//135
f 244//287 750//287 247//287
f 748//288 750//288 244//288
f 247//289 753//289 249//289
f 750//137 753//137 247//137
f 249//290 754//290 250//290
f 753//290 754//290 249//290
f 250//139 756//139 252//139
f 754//139 756//139 250//139
f 252//140 758//140 254//140
f 756//140 758//140 252//140
f 254//291 760//291 256//291
f 256//292 760//292 258//292
f 758//293 760//293 254//293
f 760//292 762//292 258//292
f 258//294 764//294 261//294
f 261//145 764//145 262//145
f 762//144 764//144 258//144
f 764//145 766//145 262//145
f 262//147 830//147 325//147
f 766//295 830//295 262//295
f 325//296 825//296 321//296
f 830//297 825//297 325//297
f 321//298 821//298 317//298
f 317//151 821//151 314//151
f 825//299 821//299 321//299
f 821//151 818//151 314//151
f 314//300 817//300 312//300
f 818//152 817//152 314//152
f 817//301 823//301 312//301
f 312//301 823//301 319//301
f 319//154 823//154 323//154
f 823//154 827//154 323//154
f 323//155 828//155 324//155
f 324//156 828//156 330//156
f 827//157 828//157 323//157
f 828//158 834//158 330//158
f 330//159 838//159 333//159
f 834//159 838//159 330//159
f 838//161 839//161 333//161
f 333//302 839//302 335//302
f 839//303 844//303 335//303
f 335//162 844//162 340//162
f 844//304 850//304 340//304
f 340//163 850//163 345//163
f 850//216 851//216 345//216
f 345//305 851//305 347//305
f 851//306 858//306 347//306
f 347//306 858//306 353//306
f 353//307 858//307 358//307
f 858//167 862//167 358//167
f 862//168 863//168 358//168
f 358//168 863//168 359//168
f 863//169 870//169 359//169
f 359//169 870//169 366//169
f 366//170 870//170 370//170
f 870//217 874//217 370//217
f 370//171 879//171 375//171
f 874//171 879//171 370//171
f 974//172 991//172 470//172
f 470//172 991//172 487//172
f 487//173 992//173 488//173
f 991//32 992//32 487//32
f 488//33 993//33 489//33
f 992//33 993//33 488//33
f 489//34 994//34 490//34
f 993//34 994//34 489//34
f 490//219 995//219 491//219
f 994//219 995//219 490//219
f 491//220 996//220 492//220
f 995//221 996//221 491//221
f 492//174 997//174 493//174
f 493//38 997//38 494//38
f 996//174 997//174 492//174
f 494//39 998//39 495//39
f 997//38 998//38 494//38
f 998//39 999//39 495//39
f 495//308 1000//308 496//308
f 999//41 1000//41 495//41
f 1000//43 1001//43 496//43
f 496//43 1001//43 497//43
f 1001//223 1002//223 497//223
f 497//45 1002//45 498//45
f 1002//224 1003//224 498//224
f 498//46 1003//46 499//46
f 1003//47 1004//47 499//47
f 499//225 1004//225 500//225
f 1004//48 1005//48 500//48
f 500//226 1005//226 501//226
f 1005//175 1006//175 501//175
f 501//309 1006//309 502//309
f 1006//51 1008//51 502//51
f 502//51 1008//51 504//51
f 1008//176 1010//176 504//176
f 504//176 1010//176 506//176
f 1010//177 1012//177 506//177
f 506//310 1012//310 508//310
f 1012//178 1014//178 508//178
f 508//311 1014//311 510//311
f 1014//179 969//179 510//179
f 510//179 969//179 465//179
f 465//57 969//57 464//57
f 969//57 968//57 464//57
f 464//58 971//58 467//58
f 968//232 971//232 464//232
f 467//312 971//312 469//312
f 469//181 973//181 471//181
f 971//313 973//313 469//313
f 471//235 975//235 472//235
f 973//181 975//181 471//181
f 472//236 976//236 473//236
f 975//62 976//62 472//62
f 976//237 977//237 473//237
f 473//64 978//64 474//64
f 977//64 978//64 473//64
f 474//238 979//238 475//238
f 475//239 979//239 476//239
f 978//238 979//238 474//238
f 476//67 980//67 477//67
f 979//314 980//314 476//314
f 980//67 981//67 477//67
f 477//1 982//1 478//1
f 478//68 982//68 479//68
f 981//1 982//1 477//1
f 982//68 983//68 479//68
f 479//240 984//240 480//240
f 480//241 984//241 481//241
f 983//69 984//69 479//69
f 984//241 985//241 481//241
f 985//71 986//71 481//71
f 481//71 986//71 482//71
f 986//243 987//243 482//243
f 482//244 987//244 483//244
f 987//73 988//73 483//73
f 483//245 988//245 484//245
f 988//182 989//182 484//182
f 484//182 989//182 485//182
f 989//315 990//315 485//315
f 485//316 990//316 486//316
f 990//184 1016//184 486//184
f 486//248 1016//248 512//248
f 1016//77 961//77 512//77
f 512//77 961//77 457//77
f 457//317 961//317 454//317
f 961//317 958//317 454//317
f 958//318 954//318 454//318
f 454//186 954//186 450//186
f 954//319 949//319 450//319
f 450//320 949//320 446//320
f 446//189 949//189 441//189
f 949//189 945//189 441//189
f 945//82 942//82 441//82
f 441//82 942//82 439//82
f 439//321 942//321 435//321
f 942//84 938//84 435//84
f 938//253 935//253 435//253
f 435//85 935//85 431//85
f 935//254 930//254 431//254
f 431//86 930//86 426//86
f 930//87 925//87 426//87
f 426//255 925//255 421//255
f 925//88 923//88 421//88
f 421//256 923//256 419//256
f 923//89 919//89 419//89
f 419//89 919//89 415//89
f 919//90 913//90 415//90
f 415//192 913//192 409//192
f 913//91 911//91 409//91
f 409//322 911//322 407//322
f 911//93 906//93 407//93
f 407//93 906//93 402//93
f 906//258 901//258 402//258
f 402//258 901//258 398//258
f 398//259 901//259 395//259
f 901//260 899//260 395//260
f 395//261 894//261 390//261
f 390//97 894//97 386//97
f 899//261 894//261 395//261
f 894//97 890//97 386//97
f 386//98 885//98 381//98
f 890//98 885//98 386//98
f 885//193 881//193 381//193
f 381//193 881//193 377//193
f 881//194 878//194 377//194
f 377//194 878//194 374//194
f 878//195 873//195 374//195
f 374//195 873//195 369//195
f 873//102 869//102 369//102
f 369//196 869//196 365//196
f 365//103 869//103 362//103
f 869//103 866//103 362//103
f 362//104 866//104 357//104
f 866//104 861//104 357//104
f 861//105 857//105 357//105
f 357//263 857//263 354//263
f 354//264 857//264 350//264
f 857//264 854//264 350//264
f 854//323 849//323 350//323
f 350//265 849//265 346//265
f 849//109 846//109 346//109
f 346//266 846//266 342//266
f 846//110 843//110 342//110
f 342//324 843//324 339//324
f 843//267 837//267 339//267
f 339//111 837//111 334//111
f 329//198 833//198 327//198
f 837//113 833//113 334//113
f 334//113 833//113 329//113
f 833//112 831//112 327//112
f 327//116 826//116 322//116
f 322//115 826//115 318//115
f 831//114 826//114 327//114
f 826//115 822//115 318//115
f 318//269 816//269 313//269
f 822//269 816//269 318//269
f 313//199 819//199 315//199
f 816//270 819//270 313//270
f 315//119 820//119 316//119
f 819//119 820//119 315//119
f 316//325 824//325 320//325
f 820//326 824//326 316//326
f 320//327 829//327 326//327
f 326//202 829//202 328//202
f 824//328 829//328 320//328
f 829//329 832//329 328//329
f 328//204 835//204 331//204
f 331//276 835//276 337//276
f 832//204 835//204 328//204
f 835//124 840//124 337//124
f 337//277 845//277 341//277
f 840//277 845//277 337//277
f 341//330 847//330 343//330
f 343//208 847//208 348//208
f 845//331 847//331 341//331
f 847//208 852//208 348//208
f 852//128 855//128 348//128
f 348//128 855//128 351//128
f 855//280 859//280 351//280
f 351//280 859//280 355//280
f 355//281 859//281 360//281
f 859//130 864//130 360//130
f 360//282 864//282 363//282
f 864//283 867//283 363//283
f 363//132 871//132 367//132
f 867//132 871//132 363//132
f 367//285 875//285 371//285
f 371//30 875//30 376//30
f 871//133 875//133 367//133
f 875//30 880//30 376//30
f 376//134 883//134 379//134
f 880//286 883//286 376//286
f 379//332 888//332 384//332
f 883//332 888//332 379//332
f 384//287 891//287 387//287
f 888//288 891//288 384//288
f 387//289 897//289 393//289
f 891//137 897//137 387//137
f 393//290 900//290 396//290
f 897//290 900//290 393//290
f 396//139 903//139 400//139
f 900//139 903//139 396//139
f 400//209 909//209 405//209
f 903//209 909//209 400//209
f 405//333 912//333 408//333
f 408//292 912//292 413//292
f 909//334 912//334 405//334
f 912//292 916//292 413//292
f 413//294 921//294 417//294
f 417//211 921//211 420//211
f 916//144 921//144 413//144
f 921//211 924//211 420//211
f 420//335 928//335 424//335
f 924//336 928//336 420//336
f 424//213 932//213 428//213
f 928//337 932//337 424//337
f 428//338 936//338 432//338
f 432//151 936//151 436//151
f 932//339 936//339 428//339
f 936//151 940//151 436//151
f 436//300 944//300 440//300
f 940//152 944//152 436//152
f 944//301 947//301 440//301
f 440//301 947//301 443//301
f 443//154 947//154 447//154
f 947//154 951//154 447//154
f 447//155 957//155 453//155
f 453//158 957//158 455//158
f 951//157 957//157 447//157
f 957//158 959//158 455//158
f 455//159 963//159 459//159
f 959//159 963//159 455//159
f 963//340 965//340 459//340
f 459//302 965//302 461//302
f 965//162 1007//162 461//162
f 461//162 1007//162 503//162
f 1007//304 1009//304 503//304
f 503//163 1009//163 505//163
f 1009//216 1011//216 505//216
f 505//165 1011//165 507//165
f 1011//306 1013//306 507//306
f 507//306 1013//306 509//306
f 509//307 1013//307 463//307
f 1013//167 967//167 463//167
f 967//168 966//168 463//168
f 463//168 966//168 462//168
f 966//341 970//341 462//341
f 462//169 970//169 466//169
f 466//170 970//170 468//170
f 970//217 972//217 468//217
f 468//171 974//171 470//171
f 972//218 974//218 468//218
