# door_panel: leaf panel extracted from the Sketchfab door unit, reoriented for the door plugin
o door_panel
v 0.900000 0.054257 0.000000
v 0.900000 0.054257 0.000000
v 0.900000 0.054257 0.000000
v 0.898445 0.052555 0.000000
v 0.898445 0.052555 0.000000
v 0.000022 0.052555 0.000000
v 0.000022 0.052555 0.000000
v 0.000022 0.052555 0.000000
v 0.001583 0.050858 0.000000
v 0.001583 0.050858 0.000000
v 0.001583 0.050858 0.000000
v 0.001583 0.050858 0.000000
v 0.898442 0.054254 2.000000
v 0.898442 0.054254 2.000000
v 0.898442 0.054254 2.000000
v 0.898442 0.054254 2.000000
v 0.898442 0.054254 2.000000
v 0.898442 0.054254 2.000000
v 0.900000 0.054257 1.998616
v 0.900000 0.054257 1.998616
v 0.900000 0.054257 1.998616
v 0.900000 0.054257 1.998616
v 0.900000 0.054257 1.998616
v 0.900000 0.054257 1.998616
v 0.898446 0.052554 1.998616
v 0.898446 0.052554 1.998616
v 0.898446 0.052554 1.998616
v 0.898446 0.052554 1.998616
v 0.898446 0.052554 1.998616
v 0.898446 0.052554 1.998616
v 0.898446 0.052554 1.998616
v 0.000023 0.052555 1.998616
v 0.000023 0.052555 1.998616
v 0.000023 0.052555 1.998616
v 0.000023 0.052555 1.998616
v 0.000023 0.052555 1.998616
v 0.001580 0.052558 2.000000
v 0.001580 0.052558 2.000000
v 0.001580 0.052558 2.000000
v 0.001580 0.052558 2.000000
v 0.001580 0.052558 2.000000
v 0.001582 0.050857 1.998616
v 0.001582 0.050857 1.998616
v 0.001582 0.050857 1.998616
v 0.001582 0.050857 1.998616
v 0.001582 0.050857 1.998616
v 0.001582 0.050857 1.998616
v 0.001582 0.050857 1.998616
v 0.898421 0.067702 2.000000
v 0.898421 0.067702 2.000000
v 0.898421 0.067702 2.000000
v 0.898421 0.067702 2.000000
v 0.898421 0.067702 2.000000
v 0.898419 0.069402 1.998616
v 0.898419 0.069402 1.998616
v 0.898419 0.069402 1.998616
v 0.898419 0.069402 1.998616
v 0.898419 0.069402 1.998616
v 0.898419 0.069402 1.998616
v 0.899979 0.067705 1.998616
v 0.899979 0.067705 1.998616
v 0.899979 0.067705 1.998616
v 0.899979 0.067705 1.998616
v 0.899979 0.067705 1.998616
v 0.000001 0.066003 1.998616
v 0.000001 0.066003 1.998616
v 0.000001 0.066003 1.998616
v 0.000001 0.066003 1.998616
v 0.000001 0.066003 1.998616
v 0.000001 0.066003 1.998616
v 0.001555 0.067706 1.998616
v 0.001555 0.067706 1.998616
v 0.001555 0.067706 1.998616
v 0.001555 0.067706 1.998616
v 0.001555 0.067706 1.998616
v 0.001558 0.066006 2.000000
v 0.001558 0.066006 2.000000
v 0.001558 0.066006 2.000000
v 0.001558 0.066006 2.000000
v 0.001558 0.066006 2.000000
v 0.001558 0.066006 2.000000
v 0.899978 0.067705 0.000000
v 0.899978 0.067705 0.000000
v 0.899978 0.067705 0.000000
v 0.898419 0.069402 0.000000
v 0.898419 0.069402 0.000000
v 0.898419 0.069402 0.000000
v 0.001555 0.067706 0.000000
v 0.001555 0.067706 0.000000
v 0.001555 0.067706 0.000000
v 0.000000 0.066002 0.000000
v 0.000000 0.066002 0.000000
v 0.000000 0.066002 0.000000
v 0.888818 0.052535 1.989934
v 0.888818 0.052535 1.989934
v 0.888818 0.052535 1.989934
v 0.888818 0.052535 1.989934
v 0.888818 0.052535 1.989934
v 0.888818 0.052535 1.989934
v 0.888818 0.052535 0.000000
v 0.888818 0.052535 0.000000
v 0.888818 0.052535 0.000000
v 0.011350 0.050876 0.000000
v 0.011350 0.050876 0.000000
v 0.011350 0.050876 0.000000
v 0.011350 0.050876 1.989934
v 0.011350 0.050876 1.989934
v 0.011350 0.050876 1.989934
v 0.011350 0.050876 1.989934
v 0.011350 0.050876 1.989934
v 0.011350 0.050876 1.989934
v 0.888870 0.020231 1.989934
v 0.888870 0.020231 1.989934
v 0.888870 0.020231 1.989934
v 0.888870 0.020231 1.989934
v 0.888870 0.020231 0.000000
v 0.888870 0.020231 0.000000
v 0.888870 0.020231 0.000000
v 0.011402 0.018571 0.000000
v 0.011402 0.018571 0.000000
v 0.011402 0.018571 1.989934
v 0.011402 0.018571 1.989934
v 0.011402 0.018571 1.989934
v 0.011402 0.018571 1.989934
f 16 25 23
f 34 42 40
f 50 62 59
f 66 78 75
f 98 101 30
f 29 102 5
f 105 110 12
f 11 111 47
f 109 97 46
f 48 99 31
f 33 69 7
f 6 70 93
f 63 20 84
f 83 19 1
f 37 15 80
f 79 14 53
f 71 55 88
f 89 54 85
f 4 3 27
f 26 2 24
f 28 17 44
f 43 18 41
f 8 10 36
f 35 9 45
f 13 22 52
f 51 21 64
f 49 57 76
f 77 58 72
f 32 38 67
f 68 39 81
f 56 60 86
f 87 61 82
f 65 73 91
f 92 74 90
f 112 116 95
f 94 117 100
f 119 123 104
f 103 122 108
f 121 114 107
f 106 113 96
f 115 124 120
f 115 120 118
