# Blender 4.0.2
# www.blender.org
o MPO-700-BODY__m2
v 85.526283 -321.799988 309.299988
v 87.000000 -321.799988 314.799988
v 83.800011 -325.000000 314.799988
v 85.526283 -321.799988 320.299988
v 82.310341 -325.000000 319.384705
v 81.500000 -321.799988 324.326294
v 78.410332 -325.000000 322.218201
v 76.000000 -321.799988 325.799988
v 73.589668 -325.000000 322.218201
v 70.500000 -321.799988 324.326294
v 69.689667 -325.000000 319.384705
v 66.473732 -321.799988 320.299988
v 68.200012 -325.000000 314.799988
v 65.000000 -321.799988 314.799988
v 66.473732 -321.799988 309.299988
v 69.689667 -325.000000 310.215302
v 70.500000 -321.799988 305.273712
v 73.589668 -325.000000 307.381805
v 76.000000 -321.799988 303.799988
v 78.410332 -325.000000 307.381805
v 81.500000 -321.799988 305.273712
v 82.310341 -325.000000 310.215302
v 85.526283 -314.500000 320.299988
v 87.000000 -314.500000 314.799988
v 85.526283 -314.500000 309.299988
v 81.500000 -314.500000 305.273712
v 76.000000 -314.500000 303.799988
v 70.500000 -314.500000 305.273712
v 66.473732 -314.500000 309.299988
v 65.000000 -314.500000 314.799988
v 66.473732 -314.500000 320.299988
v 70.500000 -314.500000 324.326294
v 76.000000 -314.500000 325.799988
v 81.500000 -314.500000 324.326294
v 89.514542 -310.500000 321.308289
v 91.000008 -310.500000 314.799988
v 89.514542 -310.500000 308.291809
v 85.352348 -310.500000 303.072601
v 79.337822 -310.500000 300.176086
v 72.662193 -310.500000 300.176086
v 66.647652 -310.500000 303.072601
v 62.485458 -310.500000 308.291809
v 61.000000 -310.500000 314.799988
v 62.485458 -310.500000 321.308289
v 66.647652 -310.500000 326.527496
v 72.662193 -310.500000 329.423889
v 79.337822 -310.500000 329.423889
v 85.352348 -310.500000 326.527496
v 89.514542 -305.000000 321.308289
v 91.000008 -305.000000 314.799988
v 89.514542 -305.000000 308.291809
v 85.352348 -305.000000 303.072601
v 79.337822 -305.000000 300.176086
v 72.662193 -305.000000 300.176086
v 66.647652 -305.000000 303.072601
v 62.485458 -305.000000 308.291809
v 61.000000 -305.000000 314.799988
v 62.485458 -305.000000 321.308289
v 66.647652 -305.000000 326.527496
v 72.662193 -305.000000 329.423889
v 79.337822 -305.000000 329.423889
v 85.352348 -305.000000 326.527496
v -225.000000 -129.000000 191.800003
v -225.000000 129.000000 191.800003
v -225.000000 -129.000000 197.300003
v -225.000000 -136.500000 197.300003
v -225.000000 -136.500000 200.300003
v -225.000000 136.500000 200.300003
v -225.000000 136.500000 197.300003
v -225.000000 129.000000 197.300003
v -180.000000 -136.500000 197.300003
v 193.000000 -136.500000 200.300003
v 180.000000 -136.500000 197.300003
v 193.000000 -136.500000 197.300003
v -180.000000 136.500000 197.300003
v 193.000000 136.500000 200.300003
v 180.000000 136.500000 197.300003
v 193.000000 136.500000 197.300003
v -225.000000 -129.000000 26.198709
v -225.000000 -128.464096 24.198709
v 193.000000 -129.000000 26.198709
v 193.000000 -128.464096 24.198709
v 193.000000 -127.000000 22.734610
v -225.000000 -127.000000 22.734610
v 193.000000 -125.000000 22.198709
v -225.000000 -125.000000 22.198709
v -225.000000 125.000000 22.198709
v 193.000000 125.000000 22.198709
v -225.000000 127.000000 22.734610
v 193.000000 127.000000 22.734610
v 193.000000 128.464096 24.198709
v -225.000000 128.464096 24.198709
v 193.000000 129.000000 26.198709
v -225.000000 129.000000 26.198709
v 193.000000 69.500000 156.800003
v 193.000000 86.353912 168.582306
v 193.000000 69.500000 183.800003
v 193.000000 87.176018 175.353104
v 193.000000 91.050499 180.966293
v 193.000000 56.173019 150.300003
v 193.000000 93.877701 157.682205
v 193.000000 88.772476 162.205093
v 193.000000 54.826981 150.300003
v 193.000000 100.500000 156.050003
v 193.000000 41.500000 156.800003
v 193.000000 -129.000000 197.300003
v 193.000000 41.500000 183.800003
v 193.000000 54.826981 190.300003
v 193.000000 56.173019 190.300003
v 193.000000 97.089752 184.135895
v 193.000000 129.000000 197.300003
v 193.000000 103.910301 184.135895
v 193.000000 109.949501 180.966293
v 193.000000 113.823997 175.353104
v 193.000000 114.646103 168.582306
v 193.000000 112.227501 162.205093
v 193.000000 107.122299 157.682205
v -180.000000 -129.000000 197.300003
v -180.000000 -129.000000 191.800003
v 180.000000 -129.000000 191.800003
v 180.000000 -129.000000 197.300003
v 180.000000 129.000000 197.300003
v 180.000000 129.000000 191.800003
v -180.000000 129.000000 191.800003
v -180.000000 129.000000 197.300003
v 224.000000 100.500000 156.050003
v 224.000000 107.122299 157.682205
v 224.000000 93.877701 157.682205
v 224.000000 88.772476 162.205093
v 224.000000 112.227501 162.205093
v 224.000000 86.353912 168.582306
v 224.000000 114.646103 168.582306
v 224.000000 87.176018 175.353104
v 224.000000 113.823997 175.353104
v 224.000000 91.050499 180.966293
v 224.000000 109.949501 180.966293
v 224.000000 97.089752 184.135895
v 224.000000 103.910301 184.135895
vn 0.6947 -0.6947 -0.1862
vn 0.6947 -0.6947 0.1862
vn 0.6578 -0.7222 0.2137
vn 0.5222 -0.6742 0.5222
vn 0.3953 -0.7401 0.5441
vn 0.1937 -0.6632 0.7229
vn -0.0000 -0.7457 0.6662
vn -0.1937 -0.6632 0.7229
vn -0.3953 -0.7401 0.5441
vn -0.5222 -0.6742 0.5222
vn -0.6578 -0.7222 0.2137
vn -0.6947 -0.6947 0.1862
vn -0.6947 -0.6947 -0.1862
vn -0.6578 -0.7222 -0.2137
vn -0.5222 -0.6742 -0.5222
vn -0.3953 -0.7401 -0.5441
vn -0.1937 -0.6632 -0.7229
vn -0.0000 -0.7457 -0.6662
vn 0.1937 -0.6632 -0.7229
vn 0.3953 -0.7401 -0.5441
vn 0.5222 -0.6742 -0.5222
vn 0.6578 -0.7222 -0.2137
vn 0.9659 -0.0000 0.2588
vn 0.9659 -0.0000 -0.2588
vn 0.7071 -0.0000 -0.7071
vn 0.2588 -0.0000 -0.9659
vn -0.2588 -0.0000 -0.9659
vn -0.7071 -0.0000 -0.7071
vn -0.9659 -0.0000 -0.2588
vn -0.9659 -0.0000 0.2588
vn -0.7071 -0.0000 0.7071
vn -0.2588 -0.0000 0.9659
vn 0.2588 -0.0000 0.9659
vn 0.7071 -0.0000 0.7071
vn -0.0000 -1.0000 -0.0000
vn 0.9749 -0.0000 0.2225
vn 0.9749 -0.0000 -0.2225
vn 0.7818 -0.0000 -0.6235
vn 0.4339 -0.0000 -0.9010
vn -0.0000 -0.0000 -1.0000
vn -0.4339 -0.0000 -0.9010
vn -0.7818 -0.0000 -0.6235
vn -0.9749 -0.0000 -0.2225
vn -0.9749 -0.0000 0.2225
vn -0.7818 -0.0000 0.6235
vn -0.4339 -0.0000 0.9010
vn -0.0000 -0.0000 1.0000
vn 0.4339 -0.0000 0.9010
vn 0.7818 -0.0000 0.6235
vn -0.0000 1.0000 -0.0000
vn -0.0000 -0.9659 -0.2588
vn -0.0000 -0.7071 -0.7071
vn -0.0000 -0.2588 -0.9659
vn -0.0000 0.2588 -0.9659
vn -0.0000 0.7071 -0.7071
vn -0.0000 0.9659 -0.2588
vn 1.0000 -0.0000 -0.0000
vn -1.0000 -0.0000 -0.0000
vn -0.0000 -0.2393 -0.9709
vn -0.0000 0.2393 -0.9709
vn -0.0000 0.6631 -0.7485
vn -0.0000 0.9350 -0.3546
vn -0.0000 0.9927 0.1205
vn -0.0000 0.8230 0.5681
vn -0.0000 0.4647 0.8855
vn -0.0000 -0.4647 0.8855
vn -0.0000 -0.8230 0.5681
vn -0.0000 -0.9927 0.1205
vn -0.0000 -0.9350 -0.3546
vn -0.0000 -0.6631 -0.7485
s 0
f 1//1 2//1 3//1
f 3//2 2//2 4//2
f 3//3 4//3 5//3
f 5//4 4//4 6//4
f 5//5 6//5 7//5
f 7//6 6//6 8//6
f 7//7 8//7 9//7
f 9//8 8//8 10//8
f 9//9 10//9 11//9
f 11//10 10//10 12//10
f 11//11 12//11 13//11
f 13//12 12//12 14//12
f 13//13 14//13 15//13
f 13//14 15//14 16//14
f 16//15 15//15 17//15
f 16//16 17//16 18//16
f 18//17 17//17 19//17
f 18//18 19//18 20//18
f 20//19 19//19 21//19
f 20//20 21//20 22//20
f 22//21 21//21 1//21
f 22//22 1//22 3//22
f 23//23 4//23 24//23
f 24//23 4//23 2//23
f 24//24 2//24 25//24
f 25//24 2//24 1//24
f 25//25 1//25 26//25
f 26//25 1//25 21//25
f 26//26 21//26 27//26
f 27//26 21//26 19//26
f 27//27 19//27 28//27
f 28//27 19//27 17//27
f 28//28 17//28 29//28
f 29//28 17//28 15//28
f 29//29 15//29 30//29
f 30//29 15//29 14//29
f 30//30 14//30 31//30
f 31//30 14//30 12//30
f 31//31 12//31 32//31
f 32//31 12//31 10//31
f 32//32 10//32 33//32
f 33//32 10//32 8//32
f 33//33 8//33 34//33
f 34//33 8//33 6//33
f 34//34 6//34 23//34
f 23//34 6//34 4//34
f 5//35 13//35 3//35
f 3//35 13//35 16//35
f 3//35 16//35 22//35
f 22//35 16//35 18//35
f 22//35 18//35 20//35
f 13//35 5//35 11//35
f 11//35 5//35 7//35
f 11//35 7//35 9//35
f 49//36 35//36 50//36
f 50//36 35//36 36//36
f 50//37 36//37 51//37
f 51//37 36//37 37//37
f 51//38 37//38 52//38
f 52//38 37//38 38//38
f 52//39 38//39 53//39
f 53//39 38//39 39//39
f 53//40 39//40 54//40
f 54//40 39//40 40//40
f 54//41 40//41 55//41
f 55//41 40//41 41//41
f 55//42 41//42 56//42
f 56//42 41//42 42//42
f 56//43 42//43 57//43
f 57//43 42//43 43//43
f 57//44 43//44 58//44
f 58//44 43//44 44//44
f 58//45 44//45 59//45
f 59//45 44//45 45//45
f 59//46 45//46 60//46
f 60//46 45//46 46//46
f 60//47 46//47 61//47
f 61//47 46//47 47//47
f 61//48 47//48 62//48
f 62//48 47//48 48//48
f 62//49 48//49 49//49
f 49//49 48//49 35//49
f 66//35 71//35 67//35
f 67//35 71//35 72//35
f 72//35 71//35 73//35
f 72//35 73//35 74//35
f 69//50 68//50 75//50
f 75//50 68//50 76//50
f 75//50 76//50 77//50
f 77//50 76//50 78//50
f 79//51 80//51 81//51
f 81//51 80//51 82//51
f 82//52 80//52 83//52
f 83//52 80//52 84//52
f 83//53 84//53 85//53
f 85//53 84//53 86//53
f 86//40 87//40 85//40
f 85//40 87//40 88//40
f 87//54 89//54 88//54
f 88//54 89//54 90//54
f 90//55 89//55 91//55
f 91//55 89//55 92//55
f 91//56 92//56 93//56
f 93//56 92//56 94//56
f 95//57 96//57 97//57
f 97//57 96//57 98//57
f 97//57 98//57 99//57
f 100//57 101//57 95//57
f 95//57 101//57 102//57
f 95//57 102//57 96//57
f 103//57 93//57 100//57
f 100//57 93//57 104//57
f 100//57 104//57 101//57
f 105//57 81//57 103//57
f 103//57 81//57 85//57
f 103//57 85//57 88//57
f 81//57 105//57 106//57
f 106//57 105//57 107//57
f 106//57 107//57 108//57
f 109//57 76//57 108//57
f 108//57 76//57 72//57
f 108//57 72//57 106//57
f 106//57 72//57 74//57
f 97//57 110//57 109//57
f 109//57 110//57 111//57
f 109//57 111//57 76//57
f 76//57 111//57 78//57
f 99//57 110//57 97//57
f 110//57 112//57 111//57
f 111//57 112//57 113//57
f 111//57 113//57 114//57
f 114//57 115//57 111//57
f 111//57 115//57 93//57
f 93//57 115//57 116//57
f 93//57 116//57 117//57
f 117//57 104//57 93//57
f 81//57 82//57 85//57
f 85//57 82//57 83//57
f 90//57 91//57 88//57
f 88//57 91//57 93//57
f 88//57 93//57 103//57
f 68//47 67//47 76//47
f 76//47 67//47 72//47
f 118//35 63//35 119//35
f 119//35 63//35 79//35
f 119//35 79//35 81//35
f 118//35 65//35 63//35
f 119//35 81//35 120//35
f 120//35 81//35 106//35
f 120//35 106//35 121//35
f 122//50 111//50 123//50
f 123//50 111//50 93//50
f 123//50 93//50 124//50
f 124//50 93//50 94//50
f 124//50 94//50 64//50
f 64//50 70//50 124//50
f 124//50 70//50 125//50
f 122//40 77//40 111//40
f 111//40 77//40 78//40
f 118//40 71//40 65//40
f 65//40 71//40 66//40
f 64//58 94//58 63//58
f 63//58 94//58 79//58
f 79//58 94//58 86//58
f 79//58 86//58 80//58
f 80//58 86//58 84//58
f 86//58 94//58 87//58
f 87//58 94//58 92//58
f 87//58 92//58 89//58
f 73//40 121//40 74//40
f 74//40 121//40 106//40
f 75//40 125//40 69//40
f 69//40 125//40 70//40
f 126//57 127//57 128//57
f 128//57 127//57 129//57
f 129//57 127//57 130//57
f 129//57 130//57 131//57
f 131//57 130//57 132//57
f 131//57 132//57 133//57
f 133//57 132//57 134//57
f 133//57 134//57 135//57
f 135//57 134//57 136//57
f 135//57 136//57 137//57
f 137//57 136//57 138//57
f 128//59 101//59 126//59
f 126//59 101//59 104//59
f 126//60 104//60 127//60
f 127//60 104//60 117//60
f 127//61 117//61 130//61
f 130//61 117//61 116//61
f 130//62 116//62 132//62
f 132//62 116//62 115//62
f 132//63 115//63 134//63
f 134//63 115//63 114//63
f 134//64 114//64 136//64
f 136//64 114//64 113//64
f 136//65 113//65 138//65
f 138//65 113//65 112//65
f 138//47 112//47 137//47
f 137//47 112//47 110//47
f 137//66 110//66 135//66
f 135//66 110//66 99//66
f 135//67 99//67 133//67
f 133//67 99//67 98//67
f 133//68 98//68 131//68
f 131//68 98//68 96//68
f 131//69 96//69 129//69
f 129//69 96//69 102//69
f 129//70 102//70 128//70
f 128//70 102//70 101//70
