# Blender 4.0.2
# www.blender.org
o MPO-700-BODY__m4
v -37.500000 -253.000000 345.799988
v 39.500000 -255.000000 345.799988
v 37.500000 -253.000000 345.799988
v 39.232052 -254.000000 345.799988
v 38.500000 -253.268005 345.799988
v -38.500000 -253.268005 345.799988
v -39.232052 -254.000000 345.799988
v -39.500000 -255.000000 345.799988
v 39.500000 -280.000000 345.799988
v -39.500000 -280.000000 345.799988
v 37.500000 -282.000000 345.799988
v -37.500000 -282.000000 345.799988
v -39.232052 -281.000000 345.799988
v -38.500000 -281.732086 345.799988
v 38.500000 -281.732086 345.799988
v 39.232052 -281.000000 345.799988
v 37.500000 -253.000000 347.799988
v -37.500000 -253.000000 347.799988
v 39.500000 -255.000000 347.799988
v 39.232052 -254.000000 347.799988
v 38.500000 -253.268005 347.799988
v 39.500000 -280.000000 347.799988
v 37.500000 -282.000000 347.799988
v 38.500000 -281.732086 347.799988
v 39.232052 -281.000000 347.799988
v -37.500000 -282.000000 347.799988
v -39.500000 -280.000000 347.799988
v -39.232052 -281.000000 347.799988
v -38.500000 -281.732086 347.799988
v -39.500000 -255.000000 347.799988
v -38.500000 -253.268005 347.799988
v -39.232052 -254.000000 347.799988
vn -0.0000 -0.0000 1.0000
vn -0.0000 -1.0000 -0.0000
vn -0.9659 -0.2588 -0.0000
vn -0.7071 -0.7071 -0.0000
vn -0.2589 -0.9659 -0.0000
vn -1.0000 -0.0000 -0.0000
vn -0.2588 0.9659 -0.0000
vn -0.7071 0.7071 -0.0000
vn -0.9659 0.2588 -0.0000
vn -0.0000 1.0000 -0.0000
vn 0.9659 0.2588 -0.0000
vn 0.7071 0.7071 -0.0000
vn 0.2588 0.9659 -0.0000
vn 1.0000 -0.0000 -0.0000
vn 0.2589 -0.9659 -0.0000
vn 0.7071 -0.7071 -0.0000
vn 0.9659 -0.2588 -0.0000
s 0
f 1//1 2//1 3//1
f 3//1 2//1 4//1
f 3//1 4//1 5//1
f 6//1 7//1 1//1
f 1//1 7//1 8//1
f 1//1 8//1 2//1
f 2//1 8//1 9//1
f 9//1 8//1 10//1
f 9//1 10//1 11//1
f 11//1 10//1 12//1
f 12//1 10//1 13//1
f 12//1 13//1 14//1
f 15//1 16//1 11//1
f 11//1 16//1 9//1
f 17//2 18//2 3//2
f 3//2 18//2 1//2
f 2//3 19//3 4//3
f 4//3 19//3 20//3
f 4//4 20//4 21//4
f 4//4 21//4 5//4
f 5//5 21//5 17//5
f 5//5 17//5 3//5
f 22//6 19//6 9//6
f 9//6 19//6 2//6
f 11//7 23//7 15//7
f 15//7 23//7 24//7
f 15//8 24//8 25//8
f 15//8 25//8 16//8
f 16//9 25//9 22//9
f 16//9 22//9 9//9
f 26//10 23//10 12//10
f 12//10 23//10 11//10
f 10//11 27//11 13//11
f 13//11 27//11 28//11
f 13//12 28//12 29//12
f 13//12 29//12 14//12
f 14//13 29//13 26//13
f 14//13 26//13 12//13
f 30//14 27//14 8//14
f 8//14 27//14 10//14
f 1//15 18//15 6//15
f 6//15 18//15 31//15
f 6//16 31//16 32//16
f 6//16 32//16 7//16
f 7//17 32//17 30//17
f 7//17 30//17 8//17
