# Blender 4.0.2
# www.blender.org
o MPO-700-WHEEL__m0
v 4.574057 5.000000 -21.519251
v 4.574057 15.000000 -21.519251
v 0.000000 5.000000 -22.000000
v -0.000001 15.000000 -22.000000
v -4.574057 5.000000 -21.519251
v -4.574058 15.000000 -21.519251
v -8.948207 15.000000 -20.098000
v 8.948206 5.000000 -20.098000
v 8.948205 15.000000 -20.098000
v 12.931280 5.000000 -17.798370
v 12.931279 15.000001 -17.798370
v 16.349190 5.000000 -14.720870
v 16.349190 15.000001 -14.720870
v 19.052561 5.000001 -11.000000
v 19.052561 15.000001 -11.000000
v 20.923241 5.000001 -6.798374
v 20.923241 15.000001 -6.798374
v 21.879480 5.000001 -2.299626
v 21.879480 15.000001 -2.299626
v 21.879480 5.000001 2.299626
v 21.879480 15.000001 2.299626
v 20.923241 5.000001 6.798374
v 20.923241 15.000001 6.798374
v 19.052561 5.000001 11.000000
v 19.052561 15.000001 11.000000
v 16.349190 5.000000 14.720870
v 16.349190 15.000001 14.720870
v 12.931280 5.000000 17.798370
v 12.931279 15.000001 17.798370
v 8.948206 5.000000 20.098000
v 8.948205 15.000000 20.098000
v 4.574057 5.000000 21.519251
v 4.574057 15.000000 21.519251
v 0.000000 5.000000 22.000000
v -0.000001 15.000000 22.000000
v -4.574057 5.000000 21.519251
v -4.574058 15.000000 21.519251
v -8.948206 5.000000 20.098000
v -8.948207 15.000000 20.098000
v -12.931280 5.000000 17.798370
v -12.931281 14.999999 17.798370
v -16.349190 5.000000 14.720870
v -16.349190 14.999999 14.720870
v -19.052561 4.999999 11.000000
v -19.052561 14.999999 11.000000
v -20.923241 4.999999 6.798374
v -20.923241 14.999999 6.798374
v -21.879480 4.999999 2.299626
v -21.879480 14.999999 2.299626
v -21.879480 4.999999 -2.299626
v -21.879480 14.999999 -2.299626
v -20.923241 4.999999 -6.798374
v -20.923241 14.999999 -6.798374
v -19.052561 4.999999 -11.000000
v -19.052561 14.999999 -11.000000
v -16.349190 5.000000 -14.720870
v -16.349190 14.999999 -14.720870
v -12.931280 5.000000 -17.798370
v -12.931281 14.999999 -17.798370
v -8.948206 5.000000 -20.098000
v -64.507332 14.999997 -7.987739
v -64.507332 14.899997 -7.987739
v -65.000000 14.999997 0.000000
v -65.000000 14.899997 0.000000
v -64.507332 14.999997 7.987739
v -64.507332 14.899997 7.987739
v -63.036800 14.899997 15.854390
v -63.036800 14.999997 -15.854390
v -63.036800 14.899997 -15.854390
v -60.610691 14.999997 -23.480709
v -60.610691 14.899997 -23.480709
v -57.265789 14.999997 -30.751080
v -57.265789 14.899997 -30.751080
v -53.052792 14.999998 -37.555302
v -53.052792 14.899998 -37.555302
v -48.035580 14.999998 -43.790211
v -48.035580 14.899998 -43.790211
v -42.290192 14.999998 -49.361320
v -42.290192 14.899998 -49.361320
v -35.903721 14.999998 -54.184151
v -35.903721 14.899998 -54.184151
v -28.972990 14.999999 -58.185612
v -28.972990 14.899999 -58.185612
v -21.603060 14.999999 -61.305038
v -21.603060 14.899999 -61.305038
v -13.905651 14.999999 -63.495140
v -13.905651 14.899999 -63.495140
v -5.997444 15.000000 -64.722717
v -5.997444 14.900000 -64.722717
v 2.001678 15.000000 -64.969170
v 2.001678 14.900000 -64.969170
v 9.970457 15.000000 -64.230759
v 9.970457 14.900000 -64.230759
v 17.788090 15.000001 -62.518669
v 17.788090 14.900001 -62.518669
v 25.336081 15.000001 -59.858860
v 25.336081 14.900001 -59.858860
v 32.500000 15.000001 -56.291649
v 32.500000 14.900001 -56.291649
v 39.171249 15.000002 -51.871120
v 39.171249 14.900002 -51.871120
v 45.248711 15.000002 -46.664268
v 45.248711 14.900002 -46.664268
v 50.640240 15.000002 -40.750038
v 50.640240 14.900002 -40.750038
v 55.264111 15.000003 -34.218090
v 55.264111 14.900002 -34.218090
v 59.050240 15.000003 -27.167419
v 59.050240 14.900002 -27.167419
v 61.941231 15.000003 -19.704920
v 61.941231 14.900002 -19.704920
v 63.893250 15.000003 -11.943720
v 63.893250 14.900002 -11.943720
v 64.876717 15.000003 -4.001459
v 64.876717 14.900002 -4.001459
v 64.876717 15.000003 4.001459
v 64.876717 14.900002 4.001459
v 63.893250 15.000003 11.943720
v 63.893250 14.900002 11.943720
v 61.941231 15.000003 19.704920
v 61.941231 14.900002 19.704920
v 59.050240 15.000003 27.167419
v 59.050240 14.900002 27.167419
v 55.264111 15.000003 34.218090
v 55.264111 14.900002 34.218090
v 50.640240 15.000002 40.750038
v 50.640240 14.900002 40.750038
v 45.248711 15.000002 46.664268
v 45.248711 14.900002 46.664268
v 39.171249 15.000002 51.871120
v 39.171249 14.900002 51.871120
v 32.500000 15.000001 56.291649
v 32.500000 14.900001 56.291649
v 25.336081 15.000001 59.858860
v 25.336081 14.900001 59.858860
v 17.788090 15.000001 62.518669
v 17.788090 14.900001 62.518669
v 9.970457 15.000000 64.230759
v 9.970457 14.900000 64.230759
v 2.001678 15.000000 64.969170
v 2.001678 14.900000 64.969170
v -5.997444 15.000000 64.722717
v -5.997444 14.900000 64.722717
v -13.905651 14.999999 63.495140
v -13.905651 14.899999 63.495140
v -21.603060 14.999999 61.305038
v -21.603060 14.899999 61.305038
v -28.972990 14.999999 58.185612
v -28.972990 14.899999 58.185612
v -35.903721 14.999998 54.184151
v -35.903721 14.899998 54.184151
v -42.290192 14.999998 49.361320
v -42.290192 14.899998 49.361320
v -48.035580 14.999998 43.790211
v -48.035580 14.899998 43.790211
v -53.052792 14.999998 37.555302
v -53.052792 14.899998 37.555302
v -57.265789 14.999997 30.751080
v -57.265789 14.899997 30.751080
v -60.610691 14.999997 23.480709
v -60.610691 14.899997 23.480709
v -63.036800 14.999997 15.854390
v -64.507332 -15.000003 7.987739
v -64.507332 -14.900002 7.987739
v -65.000000 -15.000003 0.000000
v -65.000000 -14.900002 0.000000
v -64.507332 -15.000003 -7.987739
v -64.507332 -14.900002 -7.987739
v -63.036800 -14.900002 -15.854390
v -63.036800 -15.000003 15.854390
v -63.036800 -14.900002 15.854390
v -60.610691 -15.000003 23.480709
v -60.610691 -14.900002 23.480709
v -57.265789 -15.000003 30.751080
v -57.265789 -14.900002 30.751080
v -53.052792 -15.000002 37.555302
v -53.052792 -14.900002 37.555302
v -48.035580 -15.000002 43.790211
v -48.035580 -14.900002 43.790211
v -42.290192 -15.000002 49.361320
v -42.290192 -14.900002 49.361320
v -35.903721 -15.000002 54.184151
v -35.903721 -14.900002 54.184151
v -28.972990 -15.000001 58.185612
v -28.972990 -14.900001 58.185612
v -21.603060 -15.000001 61.305038
v -21.603060 -14.900001 61.305038
v -13.905649 -15.000001 63.495140
v -13.905649 -14.900001 63.495140
v -5.997443 -15.000000 64.722717
v -5.997443 -14.900000 64.722717
v 2.001680 -15.000000 64.969170
v 2.001680 -14.900000 64.969170
v 9.970459 -15.000000 64.230759
v 9.970459 -14.900000 64.230759
v 17.788090 -14.999999 62.518669
v 17.788090 -14.899999 62.518669
v 25.336081 -14.999999 59.858860
v 25.336081 -14.899999 59.858860
v 32.500000 -14.999999 56.291649
v 32.500000 -14.899999 56.291649
v 39.171249 -14.999998 51.871120
v 39.171249 -14.899998 51.871120
v 45.248711 -14.999998 46.664268
v 45.248711 -14.899998 46.664268
v 50.640240 -14.999998 40.750038
v 50.640240 -14.899998 40.750038
v 55.264111 -14.999997 34.218090
v 55.264111 -14.899997 34.218090
v 59.050240 -14.999997 27.167419
v 59.050240 -14.899997 27.167419
v 61.941231 -14.999997 19.704920
v 61.941231 -14.899997 19.704920
v 63.893250 -14.999997 11.943720
v 63.893250 -14.899997 11.943720
v 64.876717 -14.999997 4.001459
v 64.876717 -14.899997 4.001459
v 64.876717 -14.999997 -4.001459
v 64.876717 -14.899997 -4.001459
v 63.893250 -14.999997 -11.943720
v 63.893250 -14.899997 -11.943720
v 61.941231 -14.999997 -19.704920
v 61.941231 -14.899997 -19.704920
v 59.050240 -14.999997 -27.167419
v 59.050240 -14.899997 -27.167419
v 55.264111 -14.999997 -34.218090
v 55.264111 -14.899997 -34.218090
v 50.640240 -14.999998 -40.750038
v 50.640240 -14.899998 -40.750038
v 45.248711 -14.999998 -46.664268
v 45.248711 -14.899998 -46.664268
v 39.171249 -14.999998 -51.871120
v 39.171249 -14.899998 -51.871120
v 32.500000 -14.999999 -56.291649
v 32.500000 -14.899999 -56.291649
v 25.336081 -14.999999 -59.858860
v 25.336081 -14.899999 -59.858860
v 17.788090 -14.999999 -62.518669
v 17.788090 -14.899999 -62.518669
v 9.970459 -15.000000 -64.230759
v 9.970459 -14.900000 -64.230759
v 2.001680 -15.000000 -64.969170
v 2.001680 -14.900000 -64.969170
v -5.997443 -15.000000 -64.722717
v -5.997443 -14.900000 -64.722717
v -13.905649 -15.000001 -63.495140
v -13.905649 -14.900001 -63.495140
v -21.603060 -15.000001 -61.305038
v -21.603060 -14.900001 -61.305038
v -28.972990 -15.000001 -58.185612
v -28.972990 -14.900001 -58.185612
v -35.903721 -15.000002 -54.184151
v -35.903721 -14.900002 -54.184151
v -42.290192 -15.000002 -49.361320
v -42.290192 -14.900002 -49.361320
v -48.035580 -15.000002 -43.790211
v -48.035580 -14.900002 -43.790211
v -53.052792 -15.000002 -37.555302
v -53.052792 -14.900002 -37.555302
v -57.265789 -15.000003 -30.751080
v -57.265789 -14.900002 -30.751080
v -60.610691 -15.000003 -23.480709
v -60.610691 -14.900002 -23.480709
v -63.036800 -15.000003 -15.854390
vn -0.1045 -0.0000 0.9945
vn 0.1045 -0.0000 0.9945
vn 0.3090 -0.0000 0.9511
vn -0.3090 -0.0000 0.9511
vn -0.5000 -0.0000 0.8660
vn -0.6691 -0.0000 0.7431
vn -0.8090 -0.0000 0.5878
vn -0.9135 -0.0000 0.4067
vn -0.9781 -0.0000 0.2079
vn -1.0000 -0.0000 -0.0000
vn -0.9781 -0.0000 -0.2079
vn -0.9135 -0.0000 -0.4067
vn -0.8090 -0.0000 -0.5878
vn -0.6691 -0.0000 -0.7431
vn -0.5000 -0.0000 -0.8660
vn -0.3090 -0.0000 -0.9511
vn -0.1045 -0.0000 -0.9945
vn 0.1045 -0.0000 -0.9945
vn 0.3090 -0.0000 -0.9511
vn 0.5000 -0.0000 -0.8660
vn 0.6691 -0.0000 -0.7431
vn 0.8090 -0.0000 -0.5878
vn 0.9135 -0.0000 -0.4067
vn 0.9781 -0.0000 -0.2079
vn 1.0000 -0.0000 -0.0000
vn 0.9781 -0.0000 0.2079
vn 0.9135 -0.0000 0.4067
vn 0.8090 -0.0000 0.5878
vn 0.6691 -0.0000 0.7431
vn 0.5000 -0.0000 0.8660
vn -0.0000 1.0000 -0.0000
vn -0.9981 -0.0000 -0.0616
vn -0.9981 -0.0000 0.0616
vn -0.9830 -0.0000 0.1838
vn -0.9830 -0.0000 -0.1837
vn -0.9830 -0.0000 -0.1838
vn -0.9529 -0.0000 -0.3031
vn -0.9529 -0.0000 -0.3032
vn -0.9085 -0.0000 -0.4180
vn -0.8502 -0.0000 -0.5264
vn -0.7791 -0.0000 -0.6269
vn -0.6961 -0.0000 -0.7179
vn -0.6026 -0.0000 -0.7980
vn -0.3898 -0.0000 -0.9209
vn -0.2737 -0.0000 -0.9618
vn -0.1534 -0.0000 -0.9882
vn -0.0308 -0.0000 -0.9995
vn 0.0923 -0.0000 -0.9957
vn 0.2139 -0.0000 -0.9768
vn 0.3324 -0.0000 -0.9432
vn 0.4457 -0.0000 -0.8952
vn 0.5524 -0.0000 -0.8336
vn 0.6506 -0.0000 -0.7594
vn 0.7390 -0.0000 -0.6737
vn 0.8162 -0.0000 -0.5778
vn 0.8810 -0.0000 -0.4731
vn 0.9325 -0.0000 -0.3612
vn 0.9698 -0.0000 -0.2439
vn 0.9924 -0.0000 -0.1229
vn 0.9924 -0.0000 0.1229
vn 0.9698 -0.0000 0.2439
vn 0.9325 -0.0000 0.3612
vn 0.8810 -0.0000 0.4731
vn 0.8162 -0.0000 0.5778
vn 0.7390 -0.0000 0.6737
vn 0.6506 -0.0000 0.7594
vn 0.5524 -0.0000 0.8336
vn 0.4457 -0.0000 0.8952
vn 0.3324 -0.0000 0.9432
vn 0.2139 -0.0000 0.9768
vn 0.0923 -0.0000 0.9957
vn -0.0308 -0.0000 0.9995
vn -0.1534 -0.0000 0.9882
vn -0.2737 -0.0000 0.9618
vn -0.3898 -0.0000 0.9209
vn -0.6026 -0.0000 0.7980
vn -0.6961 -0.0000 0.7179
vn -0.7791 -0.0000 0.6269
vn -0.8502 -0.0000 0.5264
vn -0.9085 -0.0000 0.4180
vn -0.9529 -0.0000 0.3031
vn -0.9529 -0.0000 0.3032
vn -0.9830 -0.0000 0.1837
vn -0.0000 -1.0000 -0.0000
s 0
f 1//1 2//1 3//1
f 3//1 2//1 4//1
f 3//2 4//2 5//2
f 5//2 4//2 6//2
f 5//3 6//3 7//3
f 1//4 8//4 2//4
f 2//4 8//4 9//4
f 9//5 8//5 10//5
f 9//5 10//5 11//5
f 11//6 10//6 12//6
f 11//6 12//6 13//6
f 13//7 12//7 14//7
f 13//7 14//7 15//7
f 15//8 14//8 16//8
f 15//8 16//8 17//8
f 17//9 16//9 18//9
f 17//9 18//9 19//9
f 19//10 18//10 20//10
f 19//10 20//10 21//10
f 21//11 20//11 22//11
f 21//11 22//11 23//11
f 23//12 22//12 24//12
f 23//12 24//12 25//12
f 25//13 24//13 26//13
f 25//13 26//13 27//13
f 27//14 26//14 28//14
f 27//14 28//14 29//14
f 29//15 28//15 30//15
f 29//15 30//15 31//15
f 31//16 30//16 32//16
f 31//16 32//16 33//16
f 33//17 32//17 34//17
f 33//17 34//17 35//17
f 35//18 34//18 36//18
f 35//18 36//18 37//18
f 37//19 36//19 38//19
f 37//19 38//19 39//19
f 39//20 38//20 40//20
f 39//20 40//20 41//20
f 41//21 40//21 42//21
f 41//21 42//21 43//21
f 43//22 42//22 44//22
f 43//22 44//22 45//22
f 45//23 44//23 46//23
f 45//23 46//23 47//23
f 47//24 46//24 48//24
f 47//24 48//24 49//24
f 49//25 48//25 50//25
f 49//25 50//25 51//25
f 51//26 50//26 52//26
f 51//26 52//26 53//26
f 53//27 52//27 54//27
f 53//27 54//27 55//27
f 55//28 54//28 56//28
f 55//28 56//28 57//28
f 57//29 56//29 58//29
f 57//29 58//29 59//29
f 59//30 58//30 60//30
f 59//30 60//30 7//30
f 7//3 60//3 5//3
f 5//31 36//31 3//31
f 3//31 36//31 34//31
f 3//31 34//31 1//31
f 1//31 34//31 32//31
f 1//31 32//31 8//31
f 8//31 32//31 30//31
f 8//31 30//31 10//31
f 10//31 30//31 28//31
f 10//31 28//31 12//31
f 12//31 28//31 26//31
f 12//31 26//31 14//31
f 14//31 26//31 24//31
f 14//31 24//31 16//31
f 16//31 24//31 22//31
f 16//31 22//31 18//31
f 18//31 22//31 20//31
f 36//31 5//31 38//31
f 38//31 5//31 60//31
f 38//31 60//31 40//31
f 40//31 60//31 58//31
f 40//31 58//31 42//31
f 42//31 58//31 56//31
f 42//31 56//31 44//31
f 44//31 56//31 54//31
f 44//31 54//31 46//31
f 46//31 54//31 52//31
f 46//31 52//31 48//31
f 48//31 52//31 50//31
f 61//32 62//32 63//32
f 63//32 62//32 64//32
f 63//33 64//33 65//33
f 65//33 64//33 66//33
f 65//34 66//34 67//34
f 61//35 68//35 62//35
f 62//36 68//36 69//36
f 69//37 68//37 70//37
f 69//38 70//38 71//38
f 71//39 70//39 72//39
f 71//39 72//39 73//39
f 73//40 72//40 74//40
f 73//40 74//40 75//40
f 75//41 74//41 76//41
f 75//41 76//41 77//41
f 77//42 76//42 78//42
f 77//42 78//42 79//42
f 79//43 78//43 80//43
f 79//43 80//43 81//43
f 81//15 80//15 82//15
f 81//15 82//15 83//15
f 83//44 82//44 84//44
f 83//44 84//44 85//44
f 85//45 84//45 86//45
f 85//45 86//45 87//45
f 87//46 86//46 88//46
f 87//46 88//46 89//46
f 89//47 88//47 90//47
f 89//47 90//47 91//47
f 91//48 90//48 92//48
f 91//48 92//48 93//48
f 93//49 92//49 94//49
f 93//49 94//49 95//49
f 95//50 94//50 96//50
f 95//50 96//50 97//50
f 97//51 96//51 98//51
f 97//51 98//51 99//51
f 99//52 98//52 100//52
f 99//52 100//52 101//52
f 101//53 100//53 102//53
f 101//53 102//53 103//53
f 103//54 102//54 104//54
f 103//54 104//54 105//54
f 105//55 104//55 106//55
f 105//55 106//55 107//55
f 107//56 106//56 108//56
f 107//56 108//56 109//56
f 109//57 108//57 110//57
f 109//57 110//57 111//57
f 111//58 110//58 112//58
f 111//58 112//58 113//58
f 113//59 112//59 114//59
f 113//59 114//59 115//59
f 115//25 114//25 116//25
f 115//25 116//25 117//25
f 117//60 116//60 118//60
f 117//60 118//60 119//60
f 119//61 118//61 120//61
f 119//61 120//61 121//61
f 121//62 120//62 122//62
f 121//62 122//62 123//62
f 123//63 122//63 124//63
f 123//63 124//63 125//63
f 125//64 124//64 126//64
f 125//64 126//64 127//64
f 127//65 126//65 128//65
f 127//65 128//65 129//65
f 129//66 128//66 130//66
f 129//66 130//66 131//66
f 131//67 130//67 132//67
f 131//67 132//67 133//67
f 133//68 132//68 134//68
f 133//68 134//68 135//68
f 135//69 134//69 136//69
f 135//69 136//69 137//69
f 137//70 136//70 138//70
f 137//70 138//70 139//70
f 139//71 138//71 140//71
f 139//71 140//71 141//71
f 141//72 140//72 142//72
f 141//72 142//72 143//72
f 143//73 142//73 144//73
f 143//73 144//73 145//73
f 145//74 144//74 146//74
f 145//74 146//74 147//74
f 147//75 146//75 148//75
f 147//75 148//75 149//75
f 149//5 148//5 150//5
f 149//5 150//5 151//5
f 151//76 150//76 152//76
f 151//76 152//76 153//76
f 153//77 152//77 154//77
f 153//77 154//77 155//77
f 155//78 154//78 156//78
f 155//78 156//78 157//78
f 157//79 156//79 158//79
f 157//79 158//79 159//79
f 159//80 158//80 160//80
f 159//80 160//80 161//80
f 161//81 160//81 162//81
f 161//82 162//82 67//82
f 67//83 162//83 65//83
f 163//33 164//33 165//33
f 165//33 164//33 166//33
f 165//32 166//32 167//32
f 167//32 166//32 168//32
f 167//36 168//36 169//36
f 163//83 170//83 164//83
f 164//34 170//34 171//34
f 171//82 170//82 172//82
f 171//82 172//82 173//82
f 173//80 172//80 174//80
f 173//80 174//80 175//80
f 175//79 174//79 176//79
f 175//79 176//79 177//79
f 177//78 176//78 178//78
f 177//78 178//78 179//78
f 179//77 178//77 180//77
f 179//77 180//77 181//77
f 181//76 180//76 182//76
f 181//76 182//76 183//76
f 183//5 182//5 184//5
f 183//5 184//5 185//5
f 185//75 184//75 186//75
f 185//75 186//75 187//75
f 187//74 186//74 188//74
f 187//74 188//74 189//74
f 189//73 188//73 190//73
f 189//73 190//73 191//73
f 191//72 190//72 192//72
f 191//72 192//72 193//72
f 193//71 192//71 194//71
f 193//71 194//71 195//71
f 195//70 194//70 196//70
f 195//70 196//70 197//70
f 197//69 196//69 198//69
f 197//69 198//69 199//69
f 199//68 198//68 200//68
f 199//68 200//68 201//68
f 201//67 200//67 202//67
f 201//67 202//67 203//67
f 203//66 202//66 204//66
f 203//66 204//66 205//66
f 205//65 204//65 206//65
f 205//65 206//65 207//65
f 207//64 206//64 208//64
f 207//64 208//64 209//64
f 209//63 208//63 210//63
f 209//63 210//63 211//63
f 211//62 210//62 212//62
f 211//62 212//62 213//62
f 213//61 212//61 214//61
f 213//61 214//61 215//61
f 215//60 214//60 216//60
f 215//60 216//60 217//60
f 217//25 216//25 218//25
f 217//25 218//25 219//25
f 219//59 218//59 220//59
f 219//59 220//59 221//59
f 221//58 220//58 222//58
f 221//58 222//58 223//58
f 223//57 222//57 224//57
f 223//57 224//57 225//57
f 225//56 224//56 226//56
f 225//56 226//56 227//56
f 227//55 226//55 228//55
f 227//55 228//55 229//55
f 229//54 228//54 230//54
f 229//54 230//54 231//54
f 231//53 230//53 232//53
f 231//53 232//53 233//53
f 233//52 232//52 234//52
f 233//52 234//52 235//52
f 235//51 234//51 236//51
f 235//51 236//51 237//51
f 237//50 236//50 238//50
f 237//50 238//50 239//50
f 239//49 238//49 240//49
f 239//49 240//49 241//49
f 241//48 240//48 242//48
f 241//48 242//48 243//48
f 243//47 242//47 244//47
f 243//47 244//47 245//47
f 245//46 244//46 246//46
f 245//46 246//46 247//46
f 247//45 246//45 248//45
f 247//45 248//45 249//45
f 249//44 248//44 250//44
f 249//44 250//44 251//44
f 251//15 250//15 252//15
f 251//15 252//15 253//15
f 253//43 252//43 254//43
f 253//43 254//43 255//43
f 255//42 254//42 256//42
f 255//42 256//42 257//42
f 257//41 256//41 258//41
f 257//41 258//41 259//41
f 259//40 258//40 260//40
f 259//40 260//40 261//40
f 261//39 260//39 262//39
f 261//39 262//39 263//39
f 263//38 262//38 264//38
f 263//38 264//38 169//38
f 169//35 264//35 167//35
f 165//84 167//84 163//84
f 163//84 167//84 170//84
f 170//84 167//84 264//84
f 170//84 264//84 172//84
f 172//84 264//84 262//84
f 172//84 262//84 174//84
f 174//84 262//84 260//84
f 174//84 260//84 176//84
f 176//84 260//84 258//84
f 176//84 258//84 178//84
f 178//84 258//84 256//84
f 178//84 256//84 180//84
f 180//84 256//84 254//84
f 180//84 254//84 182//84
f 182//84 254//84 252//84
f 182//84 252//84 184//84
f 184//84 252//84 250//84
f 184//84 250//84 186//84
f 186//84 250//84 248//84
f 186//84 248//84 188//84
f 188//84 248//84 246//84
f 188//84 246//84 190//84
f 190//84 246//84 244//84
f 190//84 244//84 192//84
f 192//84 244//84 242//84
f 192//84 242//84 194//84
f 194//84 242//84 240//84
f 194//84 240//84 196//84
f 196//84 240//84 238//84
f 196//84 238//84 198//84
f 198//84 238//84 236//84
f 198//84 236//84 200//84
f 200//84 236//84 234//84
f 200//84 234//84 202//84
f 202//84 234//84 232//84
f 202//84 232//84 204//84
f 204//84 232//84 230//84
f 204//84 230//84 206//84
f 206//84 230//84 228//84
f 206//84 228//84 208//84
f 208//84 228//84 226//84
f 208//84 226//84 210//84
f 210//84 226//84 224//84
f 210//84 224//84 212//84
f 212//84 224//84 222//84
f 212//84 222//84 214//84
f 214//84 222//84 220//84
f 214//84 220//84 216//84
f 216//84 220//84 218//84
f 2//31 92//31 4//31
f 4//31 92//31 90//31
f 4//31 90//31 88//31
f 92//31 2//31 94//31
f 94//31 2//31 9//31
f 94//31 9//31 96//31
f 96//31 9//31 98//31
f 98//31 9//31 11//31
f 98//31 11//31 100//31
f 100//31 11//31 102//31
f 102//31 11//31 13//31
f 102//31 13//31 104//31
f 104//31 13//31 15//31
f 104//31 15//31 106//31
f 106//31 15//31 108//31
f 108//31 15//31 17//31
f 108//31 17//31 110//31
f 110//31 17//31 112//31
f 112//31 17//31 19//31
f 112//31 19//31 114//31
f 114//31 19//31 21//31
f 114//31 21//31 116//31
f 116//31 21//31 118//31
f 118//31 21//31 23//31
f 118//31 23//31 120//31
f 120//31 23//31 122//31
f 122//31 23//31 25//31
f 122//31 25//31 124//31
f 124//31 25//31 126//31
f 126//31 25//31 27//31
f 126//31 27//31 128//31
f 128//31 27//31 29//31
f 128//31 29//31 130//31
f 130//31 29//31 132//31
f 132//31 29//31 31//31
f 132//31 31//31 134//31
f 134//31 31//31 136//31
f 136//31 31//31 33//31
f 136//31 33//31 138//31
f 138//31 33//31 35//31
f 138//31 35//31 140//31
f 140//31 35//31 142//31
f 142//31 35//31 37//31
f 142//31 37//31 144//31
f 144//31 37//31 146//31
f 146//31 37//31 39//31
f 146//31 39//31 148//31
f 148//31 39//31 41//31
f 148//31 41//31 150//31
f 150//31 41//31 152//31
f 152//31 41//31 43//31
f 152//31 43//31 154//31
f 154//31 43//31 156//31
f 156//31 43//31 45//31
f 156//31 45//31 158//31
f 158//31 45//31 160//31
f 160//31 45//31 47//31
f 160//31 47//31 162//31
f 162//31 47//31 49//31
f 162//31 49//31 65//31
f 65//31 49//31 63//31
f 63//31 49//31 51//31
f 63//31 51//31 61//31
f 61//31 51//31 68//31
f 68//31 51//31 53//31
f 68//31 53//31 70//31
f 70//31 53//31 55//31
f 70//31 55//31 72//31
f 72//31 55//31 74//31
f 74//31 55//31 57//31
f 74//31 57//31 76//31
f 76//31 57//31 78//31
f 78//31 57//31 59//31
f 78//31 59//31 80//31
f 80//31 59//31 82//31
f 82//31 59//31 7//31
f 82//31 7//31 84//31
f 84//31 7//31 6//31
f 84//31 6//31 86//31
f 86//31 6//31 88//31
f 88//31 6//31 4//31
