# Blender 4.0.2
# www.blender.org
o MPO-700-WHEEL__m1
v -64.507332 14.899997 -7.987739
v -65.000000 14.899997 0.000000
v -64.507332 14.899997 7.987739
v -63.036800 14.899997 15.854390
v -63.036800 14.899997 -15.854390
v -60.610691 14.899997 -23.480709
v -57.265789 14.899997 -30.751080
v -53.052792 14.899998 -37.555302
v -48.035580 14.899998 -43.790211
v -42.290192 14.899998 -49.361320
v -35.903721 14.899998 -54.184151
v -28.972990 14.899999 -58.185612
v -21.603060 14.899999 -61.305038
v -13.905651 14.899999 -63.495140
v -5.997444 14.900000 -64.722717
v 2.001678 14.900000 -64.969170
v 9.970457 14.900000 -64.230759
v 17.788090 14.900001 -62.518669
v 25.336081 14.900001 -59.858860
v 32.500000 14.900001 -56.291649
v 39.171249 14.900002 -51.871120
v 45.248711 14.900002 -46.664268
v 50.640240 14.900002 -40.750038
v 55.264111 14.900002 -34.218090
v 59.050240 14.900002 -27.167419
v 61.941231 14.900002 -19.704920
v 63.893250 14.900002 -11.943720
v 64.876717 14.900002 -4.001459
v 64.876717 14.900002 4.001459
v 63.893250 14.900002 11.943720
v 61.941231 14.900002 19.704920
v 59.050240 14.900002 27.167419
v 55.264111 14.900002 34.218090
v 50.640240 14.900002 40.750038
v 45.248711 14.900002 46.664268
v 39.171249 14.900002 51.871120
v 32.500000 14.900001 56.291649
v 25.336081 14.900001 59.858860
v 17.788090 14.900001 62.518669
v 9.970457 14.900000 64.230759
v 2.001678 14.900000 64.969170
v -5.997444 14.900000 64.722717
v -13.905651 14.899999 63.495140
v -21.603060 14.899999 61.305038
v -28.972990 14.899999 58.185612
v -35.903721 14.899998 54.184151
v -42.290192 14.899998 49.361320
v -48.035580 14.899998 43.790211
v -53.052792 14.899998 37.555302
v -57.265789 14.899997 30.751080
v -60.610691 14.899997 23.480709
v -64.507332 -14.900002 7.987739
v -65.000000 -14.900002 0.000000
v -64.507332 -14.900002 -7.987739
v -63.036800 -14.900002 -15.854390
v -63.036800 -14.900002 15.854390
v -60.610691 -14.900002 23.480709
v -57.265789 -14.900002 30.751080
v -53.052792 -14.900002 37.555302
v -48.035580 -14.900002 43.790211
v -42.290192 -14.900002 49.361320
v -35.903721 -14.900002 54.184151
v -28.972990 -14.900001 58.185612
v -21.603060 -14.900001 61.305038
v -13.905649 -14.900001 63.495140
v -5.997443 -14.900000 64.722717
v 2.001680 -14.900000 64.969170
v 9.970459 -14.900000 64.230759
v 17.788090 -14.899999 62.518669
v 25.336081 -14.899999 59.858860
v 32.500000 -14.899999 56.291649
v 39.171249 -14.899998 51.871120
v 45.248711 -14.899998 46.664268
v 50.640240 -14.899998 40.750038
v 55.264111 -14.899997 34.218090
v 59.050240 -14.899997 27.167419
v 61.941231 -14.899997 19.704920
v 63.893250 -14.899997 11.943720
v 64.876717 -14.899997 4.001459
v 64.876717 -14.899997 -4.001459
v 63.893250 -14.899997 -11.943720
v 61.941231 -14.899997 -19.704920
v 59.050240 -14.899997 -27.167419
v 55.264111 -14.899997 -34.218090
v 50.640240 -14.899998 -40.750038
v 45.248711 -14.899998 -46.664268
v 39.171249 -14.899998 -51.871120
v 32.500000 -14.899999 -56.291649
v 25.336081 -14.899999 -59.858860
v 17.788090 -14.899999 -62.518669
v 9.970459 -14.900000 -64.230759
v 2.001680 -14.900000 -64.969170
v -5.997443 -14.900000 -64.722717
v -13.905649 -14.900001 -63.495140
v -21.603060 -14.900001 -61.305038
v -28.972990 -14.900001 -58.185612
v -35.903721 -14.900002 -54.184151
v -42.290192 -14.900002 -49.361320
v -48.035580 -14.900002 -43.790211
v -53.052792 -14.900002 -37.555302
v -57.265789 -14.900002 -30.751080
v -60.610691 -14.900002 -23.480709
v 9.419467 14.900000 -86.610580
v 9.358322 12.360680 -87.543488
v -0.000001 14.900000 -87.121292
v -0.000001 12.360680 -88.042259
v -9.358324 12.360680 -87.543488
v 0.000000 6.257378 -89.507530
v -9.514068 6.257378 -89.000458
v 0.000000 0.000000 -90.000000
v -9.566414 0.000000 -89.490128
v 0.000000 -6.257378 -89.507530
v -9.514068 -6.257379 -89.000458
v 0.000001 -12.360680 -88.042259
v -9.358322 -12.360680 -87.543488
v 0.000001 -14.900000 -87.121292
v -9.419467 -14.900000 -86.610580
v 18.610600 12.360681 -86.052811
v 18.728500 14.900001 -85.084442
v 27.652020 12.360681 -83.587120
v 27.817961 14.900001 -82.560768
v 36.380131 12.360682 -80.174339
v 36.581280 14.900002 -79.069138
v 44.696041 12.360682 -75.853172
v 44.915710 14.900002 -74.650520
v 52.505531 12.360682 -70.672546
v 52.723560 14.900002 -69.356651
v 59.720100 12.360682 -64.691177
v 59.913261 14.900002 -63.249660
v 66.258041 12.360682 -57.976830
v 66.400551 14.900002 -56.401131
v 72.045227 12.360682 -50.605579
v 72.109329 14.900002 -48.891338
v 77.016121 12.360683 -42.660961
v 76.972710 14.900003 -40.808350
v 81.114388 12.360683 -34.232960
v 80.933647 14.900003 -32.246910
v 84.293602 12.360683 -25.417089
v 83.945709 14.900003 -23.307409
v 86.517738 12.360683 -16.313240
v 85.973602 14.900003 -14.094660
v 87.761581 12.360683 -7.024549
v 86.993530 14.900003 -4.716651
v 88.011070 12.360683 2.343731
v 86.993530 14.900003 4.716651
v 87.263351 12.360683 11.685460
v 85.973602 14.900003 14.094660
v 85.526901 12.360683 20.894779
v 83.945709 14.900003 23.307409
v 82.821381 12.360683 29.867359
v 80.933647 14.900003 32.246910
v 79.177490 12.360683 38.501518
v 76.972710 14.900003 40.808350
v 74.636452 12.360682 46.699451
v 72.109329 14.900002 48.891338
v 69.249779 12.360682 54.368259
v 66.400551 14.900002 56.401131
v 63.078468 12.360682 61.421051
v 59.913261 14.900002 63.249660
v 56.192459 12.360682 67.777931
v 52.723560 14.900002 69.356651
v 48.669762 12.360682 73.366852
v 44.915710 14.900002 74.650520
v 40.595631 12.360682 78.124481
v 36.581280 14.900002 79.069138
v 32.061520 12.360681 81.996948
v 27.817961 14.900001 82.560768
v 23.164150 12.360681 84.940361
v 18.728500 14.900001 85.084442
v 14.004309 12.360681 86.921341
v 9.419467 14.900000 86.610580
v 4.685801 12.360680 87.917480
v -0.000001 14.900000 87.121292
v -4.685802 12.360680 87.917480
v -9.419469 14.900000 86.610580
v -14.004311 12.360679 86.921341
v -18.728500 14.899999 85.084442
v -23.164150 12.360679 84.940361
v -27.817961 14.899999 82.560768
v -32.061520 12.360679 81.996948
v -36.581280 14.899998 79.069138
v -40.595631 12.360678 78.124481
v -44.915710 14.899998 74.650520
v -48.669762 12.360678 73.366852
v -52.723560 14.899998 69.356651
v -56.192459 12.360677 67.777931
v -59.913261 14.899997 63.249660
v -63.078468 12.360677 61.421051
v -66.400551 14.899997 56.401131
v -69.249779 12.360677 54.368259
v -72.109329 14.899997 48.891338
v -74.636452 12.360677 46.699451
v -76.972710 14.899996 40.808350
v -79.177490 12.360676 38.501518
v -80.933647 14.899996 32.246910
v -82.821381 12.360676 29.867359
v -83.945709 14.899996 23.307409
v -85.526901 12.360676 20.894779
v -85.973602 14.899996 14.094660
v -87.263351 12.360676 11.685460
v -86.993530 14.899996 4.716651
v -88.011070 12.360676 2.343731
v -86.993530 14.899996 -4.716651
v -87.761581 12.360676 -7.024549
v -85.973602 14.899996 -14.094660
v -86.517738 12.360676 -16.313240
v -83.945709 14.899996 -23.307409
v -84.293602 12.360676 -25.417089
v -80.933647 14.899996 -32.246910
v -81.114388 12.360676 -34.232960
v -76.972710 14.899996 -40.808350
v -77.016121 12.360676 -42.660961
v -72.109329 14.899997 -48.891338
v -72.045227 12.360677 -50.605579
v -66.400551 14.899997 -56.401131
v -66.258041 12.360677 -57.976830
v -59.913261 14.899997 -63.249660
v -59.720100 12.360677 -64.691177
v -52.723560 14.899998 -69.356651
v -52.505531 12.360678 -70.672546
v -44.915710 14.899998 -74.650520
v -44.696041 12.360678 -75.853172
v -36.581280 14.899998 -79.069138
v -36.380131 12.360678 -80.174339
v -27.817961 14.899999 -82.560768
v -27.652020 12.360679 -83.587120
v -18.728500 14.899999 -85.084442
v -18.610600 12.360679 -86.052811
v -9.419469 14.900000 -86.610580
v -18.610600 -12.360681 -86.052811
v -18.728500 -14.900001 -85.084442
v -27.652020 -12.360681 -83.587120
v -27.817961 -14.900001 -82.560768
v -36.380131 -12.360682 -80.174339
v -36.581280 -14.900002 -79.069138
v -44.696041 -12.360682 -75.853172
v -44.915710 -14.900002 -74.650520
v -52.505531 -12.360682 -70.672546
v -52.723560 -14.900002 -69.356651
v -59.720100 -12.360682 -64.691177
v -59.913261 -14.900002 -63.249660
v -66.258041 -12.360682 -57.976830
v -66.400551 -14.900002 -56.401131
v -72.045227 -12.360682 -50.605579
v -72.109329 -14.900002 -48.891338
v -77.016121 -12.360683 -42.660961
v -76.972710 -14.900003 -40.808350
v -81.114388 -12.360683 -34.232960
v -80.933647 -14.900003 -32.246910
v -84.293602 -12.360683 -25.417089
v -83.945709 -14.900003 -23.307409
v -86.517738 -12.360683 -16.313240
v -85.973602 -14.900003 -14.094660
v -87.761581 -12.360683 -7.024549
v -86.993530 -14.900003 -4.716651
v -88.011070 -12.360683 2.343731
v -86.993530 -14.900003 4.716651
v -87.263351 -12.360683 11.685460
v -85.973602 -14.900003 14.094660
v -85.526901 -12.360683 20.894779
v -83.945709 -14.900003 23.307409
v -82.821381 -12.360683 29.867359
v -80.933647 -14.900003 32.246910
v -79.177490 -12.360683 38.501518
v -76.972710 -14.900003 40.808350
v -74.636452 -12.360682 46.699451
v -72.109329 -14.900002 48.891338
v -69.249779 -12.360682 54.368259
v -66.400551 -14.900002 56.401131
v -63.078468 -12.360682 61.421051
v -59.913261 -14.900002 63.249660
v -56.192459 -12.360682 67.777931
v -52.723560 -14.900002 69.356651
v -48.669762 -12.360682 73.366852
v -44.915710 -14.900002 74.650520
v -40.595631 -12.360682 78.124481
v -36.581280 -14.900002 79.069138
v -32.061520 -12.360681 81.996948
v -27.817961 -14.900001 82.560768
v -23.164150 -12.360681 84.940361
v -18.728500 -14.900001 85.084442
v -14.004309 -12.360681 86.921341
v -9.419467 -14.900000 86.610580
v -4.685801 -12.360680 87.917480
v 0.000001 -14.900000 87.121292
v 4.685802 -12.360680 87.917480
v 9.419469 -14.900000 86.610580
v 14.004311 -12.360679 86.921341
v 18.728500 -14.899999 85.084442
v 23.164150 -12.360679 84.940361
v 27.817961 -14.899999 82.560768
v 32.061520 -12.360679 81.996948
v 36.581280 -14.899998 79.069138
v 40.595631 -12.360678 78.124481
v 44.915710 -14.899998 74.650520
v 48.669762 -12.360678 73.366852
v 52.723560 -14.899998 69.356651
v 56.192459 -12.360677 67.777931
v 59.913261 -14.899997 63.249660
v 63.078468 -12.360677 61.421051
v 66.400551 -14.899997 56.401131
v 69.249779 -12.360677 54.368259
v 72.109329 -14.899997 48.891338
v 74.636452 -12.360677 46.699451
v 76.972710 -14.899996 40.808350
v 79.177490 -12.360676 38.501518
v 80.933647 -14.899996 32.246910
v 82.821381 -12.360676 29.867359
v 83.945709 -14.899996 23.307409
v 85.526901 -12.360676 20.894779
v 85.973602 -14.899996 14.094660
v 87.263351 -12.360676 11.685460
v 86.993530 -14.899996 4.716651
v 88.011070 -12.360676 2.343731
v 86.993530 -14.899996 -4.716651
v 87.761581 -12.360676 -7.024549
v 85.973602 -14.899996 -14.094660
v 86.517738 -12.360676 -16.313240
v 83.945709 -14.899996 -23.307409
v 84.293602 -12.360676 -25.417089
v 80.933647 -14.899996 -32.246910
v 81.114388 -12.360676 -34.232960
v 76.972710 -14.899996 -40.808350
v 77.016121 -12.360676 -42.660961
v 72.109329 -14.899997 -48.891338
v 72.045227 -12.360677 -50.605579
v 66.400551 -14.899997 -56.401131
v 66.258041 -12.360677 -57.976830
v 59.913261 -14.899997 -63.249660
v 59.720100 -12.360677 -64.691177
v 52.723560 -14.899998 -69.356651
v 52.505531 -12.360678 -70.672546
v 44.915710 -14.899998 -74.650520
v 44.696041 -12.360678 -75.853172
v 36.581280 -14.899998 -79.069138
v 36.380131 -12.360678 -80.174339
v 27.817961 -14.899999 -82.560768
v 27.652020 -12.360679 -83.587120
v 18.728500 -14.899999 -85.084442
v 18.610600 -12.360679 -86.052811
v 9.419469 -14.900000 -86.610580
v 9.358324 -12.360680 -87.543488
v 9.514068 6.257379 -89.000458
v 18.920340 6.257379 -87.484970
v 28.112230 6.257380 -84.978241
v 36.985600 6.257380 -81.508682
v 45.439911 6.257380 -77.115578
v 53.379372 6.257380 -71.848740
v 60.714020 6.257381 -65.767822
v 67.360771 6.257381 -58.941730
v 73.244270 6.257381 -51.447800
v 78.297890 6.257381 -43.370949
v 82.464371 6.257382 -34.802689
v 85.696487 6.257382 -25.840099
v 87.957626 6.257382 -16.584740
v 89.222191 6.257382 -7.141458
v 89.475830 6.257382 2.382737
v 88.715660 6.257382 11.879930
v 86.950302 6.257382 21.242531
v 84.199760 6.257382 30.364441
v 80.495216 6.257381 39.142300
v 75.878616 6.257381 47.476669
v 70.402290 6.257381 55.273102
v 64.128281 6.257381 62.443272
v 57.127659 6.257380 68.905937
v 49.479771 6.257380 74.587891
v 41.271252 6.257380 79.424698
v 32.595112 6.257380 83.361610
v 23.549660 6.257379 86.353989
v 14.237380 6.257379 88.367958
v 4.763785 6.257378 89.380676
v -4.763786 6.257378 89.380676
v -14.237380 6.257378 88.367958
v -23.549660 6.257377 86.353989
v -32.595112 6.257377 83.361610
v -41.271252 6.257376 79.424698
v -49.479771 6.257376 74.587891
v -57.127659 6.257376 68.905937
v -64.128281 6.257375 62.443272
v -70.402290 6.257375 55.273102
v -75.878616 6.257375 47.476669
v -80.495216 6.257375 39.142300
v -84.199760 6.257374 30.364441
v -86.950302 6.257374 21.242531
v -88.715660 6.257374 11.879930
v -89.475830 6.257374 2.382737
v -89.222191 6.257374 -7.141458
v -87.957626 6.257374 -16.584740
v -85.696487 6.257374 -25.840099
v -82.464371 6.257374 -34.802689
v -78.297890 6.257375 -43.370949
v -73.244270 6.257375 -51.447800
v -67.360771 6.257375 -58.941730
v -60.714020 6.257375 -65.767822
v -53.379372 6.257376 -71.848740
v -45.439911 6.257376 -77.115578
v -36.985600 6.257377 -81.508682
v -28.112230 6.257377 -84.978241
v -18.920340 6.257377 -87.484970
v 9.566414 0.000000 -89.490128
v 19.024441 0.000001 -87.966309
v 28.266911 0.000001 -85.445801
v 37.189098 0.000002 -81.957130
v 45.689919 0.000002 -77.539871
v 53.673061 0.000002 -72.244049
v 61.048061 0.000003 -66.129677
v 67.731369 0.000003 -59.266022
v 73.647247 0.000003 -51.730862
v 78.728691 0.000003 -43.609581
v 82.918091 0.000004 -34.994171
v 86.167992 0.000004 -25.982281
v 88.441582 0.000004 -16.675989
v 89.713081 0.000004 -7.180750
v 89.968109 0.000004 2.395847
v 89.203758 0.000004 11.945300
v 87.428711 0.000004 21.359400
v 84.663040 0.000004 30.531500
v 80.938087 0.000004 39.357658
v 76.296112 0.000003 47.737881
v 70.789642 0.000003 55.577221
v 64.481110 0.000003 62.786839
v 57.441978 0.000003 69.285057
v 49.752010 0.000002 74.998260
v 41.498322 0.000002 79.861687
v 32.774448 0.000001 83.820259
v 23.679230 0.000001 86.829109
v 14.315710 0.000001 88.854149
v 4.789996 0.000000 89.872452
v -4.789996 0.000000 89.872452
v -14.315710 -0.000001 88.854149
v -23.679230 -0.000001 86.829109
v -32.774448 -0.000001 83.820259
v -41.498322 -0.000002 79.861687
v -49.752010 -0.000002 74.998260
v -57.441978 -0.000003 69.285057
v -64.481110 -0.000003 62.786839
v -70.789642 -0.000003 55.577221
v -76.296112 -0.000003 47.737881
v -80.938087 -0.000004 39.357658
v -84.663040 -0.000004 30.531500
v -87.428711 -0.000004 21.359400
v -89.203758 -0.000004 11.945300
v -89.968109 -0.000004 2.395847
v -89.713081 -0.000004 -7.180750
v -88.441582 -0.000004 -16.675989
v -86.167992 -0.000004 -25.982281
v -82.918091 -0.000004 -34.994171
v -78.728691 -0.000003 -43.609581
v -73.647247 -0.000003 -51.730862
v -67.731369 -0.000003 -59.266022
v -61.048061 -0.000003 -66.129677
v -53.673061 -0.000002 -72.244049
v -45.689919 -0.000002 -77.539871
v -37.189098 -0.000002 -81.957130
v -28.266911 -0.000001 -85.445801
v -19.024441 -0.000001 -87.966309
v 9.514068 -6.257378 -89.000458
v 18.920340 -6.257377 -87.484970
v 28.112230 -6.257377 -84.978241
v 36.985600 -6.257377 -81.508682
v 45.439911 -6.257376 -77.115578
v 53.379372 -6.257376 -71.848740
v 60.714020 -6.257375 -65.767822
v 67.360771 -6.257375 -58.941730
v 73.244270 -6.257375 -51.447800
v 78.297890 -6.257375 -43.370949
v 82.464371 -6.257374 -34.802689
v 85.696487 -6.257374 -25.840099
v 87.957626 -6.257374 -16.584740
v 89.222191 -6.257374 -7.141458
v 89.475830 -6.257374 2.382737
v 88.715660 -6.257374 11.879930
v 86.950302 -6.257374 21.242531
v 84.199760 -6.257374 30.364441
v 80.495216 -6.257375 39.142300
v 75.878616 -6.257375 47.476669
v 70.402290 -6.257375 55.273102
v 64.128281 -6.257375 62.443272
v 57.127659 -6.257376 68.905937
v 49.479771 -6.257376 74.587891
v 41.271252 -6.257376 79.424698
v 32.595112 -6.257377 83.361610
v 23.549660 -6.257377 86.353989
v 14.237380 -6.257378 88.367958
v 4.763786 -6.257378 89.380676
v -4.763785 -6.257378 89.380676
v -14.237380 -6.257379 88.367958
v -23.549660 -6.257379 86.353989
v -32.595112 -6.257380 83.361610
v -41.271252 -6.257380 79.424698
v -49.479771 -6.257380 74.587891
v -57.127659 -6.257380 68.905937
v -64.128281 -6.257381 62.443272
v -70.402290 -6.257381 55.273102
v -75.878616 -6.257381 47.476669
v -80.495216 -6.257381 39.142300
v -84.199760 -6.257382 30.364441
v -86.950302 -6.257382 21.242531
v -88.715660 -6.257382 11.879930
v -89.475830 -6.257382 2.382737
v -89.222191 -6.257382 -7.141458
v -87.957626 -6.257382 -16.584740
v -85.696487 -6.257382 -25.840099
v -82.464371 -6.257382 -34.802689
v -78.297890 -6.257381 -43.370949
v -73.244270 -6.257381 -51.447800
v -67.360771 -6.257381 -58.941730
v -60.714020 -6.257381 -65.767822
v -53.379372 -6.257380 -71.848740
v -45.439911 -6.257380 -77.115578
v -36.985600 -6.257380 -81.508682
v -28.112230 -6.257380 -84.978241
v -18.920340 -6.257379 -87.484970
vn 0.0508 0.3433 -0.9378
vn 0.0500 0.3405 -0.9389
vn -0.0500 0.3405 -0.9389
vn -0.0518 0.2331 -0.9711
vn -0.0531 0.0783 -0.9955
vn -0.0531 -0.0783 -0.9955
vn -0.0518 -0.2331 -0.9711
vn -0.0500 -0.3405 -0.9389
vn -0.0508 -0.3433 -0.9378
vn 0.1497 0.3378 -0.9292
vn 0.1518 0.3460 -0.9259
vn 0.2479 0.3351 -0.9090
vn 0.2507 0.3486 -0.9031
vn 0.3434 0.3326 -0.8783
vn 0.3466 0.3511 -0.8698
vn 0.4352 0.3301 -0.8376
vn 0.4382 0.3535 -0.8265
vn 0.5223 0.3277 -0.7873
vn 0.5245 0.3558 -0.7735
vn 0.6035 0.3254 -0.7279
vn 0.6045 0.3580 -0.7116
vn 0.6780 0.3232 -0.6602
vn 0.6773 0.3601 -0.6416
vn 0.7449 0.3211 -0.5848
vn 0.7421 0.3621 -0.5641
vn 0.8034 0.3191 -0.5027
vn 0.7981 0.3640 -0.4802
vn 0.8529 0.3172 -0.4147
vn 0.8447 0.3658 -0.3908
vn 0.8927 0.3153 -0.3219
vn 0.8814 0.3675 -0.2970
vn 0.9224 0.3136 -0.2254
vn 0.9077 0.3691 -0.1998
vn 0.9417 0.3120 -0.1261
vn 0.9234 0.3706 -0.1004
vn 0.9503 0.3104 -0.0253
vn 0.9282 0.3720 -0.0000
vn 0.9480 0.3090 0.0759
vn 0.9223 0.3733 0.1003
vn 0.9350 0.3076 0.1763
vn 0.9056 0.3745 0.1993
vn 0.9114 0.3064 0.2748
vn 0.8783 0.3756 0.2959
vn 0.8773 0.3052 0.3703
vn 0.8407 0.3766 0.3890
vn 0.8333 0.3042 0.4616
vn 0.7934 0.3776 0.4774
vn 0.7798 0.3032 0.5477
vn 0.7369 0.3784 0.5602
vn 0.7173 0.3024 0.6277
vn 0.6718 0.3791 0.6364
vn 0.6467 0.3016 0.7005
vn 0.5989 0.3798 0.7051
vn 0.5687 0.3010 0.7655
vn 0.5190 0.3803 0.7655
vn 0.4842 0.3004 0.8218
vn 0.4331 0.3808 0.8170
vn 0.3942 0.3000 0.8687
vn 0.3422 0.3812 0.8588
vn 0.2996 0.2996 0.9058
vn 0.2473 0.3814 0.8907
vn 0.2017 0.2994 0.9326
vn 0.1495 0.3816 0.9121
vn 0.1014 0.2992 0.9488
vn 0.0500 0.3817 0.9229
vn -0.0000 0.2992 0.9542
vn -0.0500 0.3817 0.9229
vn -0.1014 0.2992 0.9488
vn -0.1495 0.3816 0.9121
vn -0.2017 0.2994 0.9326
vn -0.2473 0.3814 0.8907
vn -0.2996 0.2996 0.9058
vn -0.3422 0.3812 0.8588
vn -0.3942 0.3000 0.8687
vn -0.4331 0.3808 0.8170
vn -0.4842 0.3004 0.8218
vn -0.5190 0.3803 0.7655
vn -0.5687 0.3010 0.7655
vn -0.5989 0.3798 0.7051
vn -0.6467 0.3016 0.7005
vn -0.6718 0.3791 0.6364
vn -0.7173 0.3024 0.6277
vn -0.7369 0.3784 0.5602
vn -0.7798 0.3032 0.5477
vn -0.7934 0.3776 0.4774
vn -0.8333 0.3042 0.4616
vn -0.8407 0.3766 0.3890
vn -0.8773 0.3052 0.3703
vn -0.8783 0.3756 0.2959
vn -0.9114 0.3064 0.2748
vn -0.9056 0.3745 0.1993
vn -0.9350 0.3076 0.1763
vn -0.9223 0.3733 0.1003
vn -0.9480 0.3090 0.0759
vn -0.9282 0.3720 -0.0000
vn -0.9503 0.3104 -0.0253
vn -0.9234 0.3706 -0.1004
vn -0.9417 0.3120 -0.1261
vn -0.9077 0.3691 -0.1998
vn -0.9224 0.3136 -0.2254
vn -0.8814 0.3675 -0.2970
vn -0.8927 0.3153 -0.3219
vn -0.8447 0.3658 -0.3908
vn -0.8529 0.3172 -0.4147
vn -0.7981 0.3640 -0.4802
vn -0.8034 0.3191 -0.5027
vn -0.7421 0.3621 -0.5641
vn -0.7449 0.3211 -0.5848
vn -0.6773 0.3601 -0.6416
vn -0.6780 0.3232 -0.6602
vn -0.6045 0.3580 -0.7116
vn -0.6035 0.3254 -0.7279
vn -0.5245 0.3558 -0.7735
vn -0.5223 0.3277 -0.7873
vn -0.4382 0.3535 -0.8265
vn -0.4352 0.3301 -0.8376
vn -0.3466 0.3511 -0.8698
vn -0.3434 0.3326 -0.8783
vn -0.2507 0.3486 -0.9031
vn -0.2479 0.3351 -0.9090
vn -0.1518 0.3460 -0.9259
vn -0.1497 0.3378 -0.9292
vn -0.0508 0.3433 -0.9378
vn -0.1497 -0.3378 -0.9292
vn -0.1518 -0.3460 -0.9259
vn -0.2479 -0.3351 -0.9090
vn -0.2507 -0.3486 -0.9031
vn -0.3434 -0.3326 -0.8783
vn -0.3466 -0.3511 -0.8698
vn -0.4352 -0.3301 -0.8376
vn -0.4382 -0.3535 -0.8265
vn -0.5223 -0.3277 -0.7873
vn -0.5245 -0.3558 -0.7735
vn -0.6035 -0.3254 -0.7279
vn -0.6045 -0.3580 -0.7116
vn -0.6780 -0.3232 -0.6602
vn -0.6773 -0.3601 -0.6416
vn -0.7449 -0.3211 -0.5848
vn -0.7421 -0.3621 -0.5641
vn -0.8034 -0.3191 -0.5027
vn -0.7981 -0.3640 -0.4802
vn -0.8529 -0.3172 -0.4147
vn -0.8447 -0.3658 -0.3908
vn -0.8927 -0.3153 -0.3219
vn -0.8814 -0.3675 -0.2970
vn -0.9224 -0.3136 -0.2254
vn -0.9077 -0.3691 -0.1998
vn -0.9417 -0.3120 -0.1261
vn -0.9234 -0.3706 -0.1004
vn -0.9503 -0.3104 -0.0253
vn -0.9282 -0.3720 -0.0000
vn -0.9480 -0.3090 0.0759
vn -0.9223 -0.3733 0.1003
vn -0.9350 -0.3076 0.1763
vn -0.9056 -0.3745 0.1993
vn -0.9114 -0.3064 0.2748
vn -0.8783 -0.3756 0.2959
vn -0.8773 -0.3052 0.3703
vn -0.8407 -0.3766 0.3890
vn -0.8333 -0.3042 0.4616
vn -0.7934 -0.3776 0.4774
vn -0.7798 -0.3032 0.5477
vn -0.7369 -0.3784 0.5602
vn -0.7173 -0.3024 0.6277
vn -0.6718 -0.3791 0.6364
vn -0.6467 -0.3016 0.7005
vn -0.5989 -0.3798 0.7051
vn -0.5687 -0.3010 0.7655
vn -0.5190 -0.3803 0.7655
vn -0.4842 -0.3004 0.8218
vn -0.4331 -0.3808 0.8170
vn -0.3942 -0.3000 0.8687
vn -0.3422 -0.3812 0.8588
vn -0.2996 -0.2996 0.9058
vn -0.2473 -0.3814 0.8907
vn -0.2017 -0.2994 0.9326
vn -0.1495 -0.3816 0.9121
vn -0.1014 -0.2992 0.9488
vn -0.0500 -0.3817 0.9229
vn -0.0000 -0.2992 0.9542
vn 0.0500 -0.3817 0.9229
vn 0.1014 -0.2992 0.9488
vn 0.1495 -0.3816 0.9121
vn 0.2017 -0.2994 0.9326
vn 0.2473 -0.3814 0.8907
vn 0.2996 -0.2996 0.9058
vn 0.3422 -0.3812 0.8588
vn 0.3942 -0.3000 0.8687
vn 0.4331 -0.3808 0.8170
vn 0.4842 -0.3004 0.8218
vn 0.5190 -0.3803 0.7655
vn 0.5687 -0.3010 0.7655
vn 0.5989 -0.3798 0.7051
vn 0.6467 -0.3016 0.7005
vn 0.6718 -0.3791 0.6364
vn 0.7173 -0.3024 0.6277
vn 0.7369 -0.3784 0.5602
vn 0.7798 -0.3032 0.5477
vn 0.7934 -0.3776 0.4774
vn 0.8333 -0.3042 0.4616
vn 0.8407 -0.3766 0.3890
vn 0.8773 -0.3052 0.3703
vn 0.8783 -0.3756 0.2959
vn 0.9114 -0.3064 0.2748
vn 0.9056 -0.3745 0.1993
vn 0.9350 -0.3076 0.1763
vn 0.9223 -0.3733 0.1003
vn 0.9480 -0.3090 0.0759
vn 0.9282 -0.3720 -0.0000
vn 0.9503 -0.3104 -0.0253
vn 0.9234 -0.3706 -0.1004
vn 0.9417 -0.3120 -0.1261
vn 0.9077 -0.3691 -0.1998
vn 0.9224 -0.3136 -0.2254
vn 0.8814 -0.3675 -0.2970
vn 0.8927 -0.3153 -0.3219
vn 0.8447 -0.3658 -0.3908
vn 0.8529 -0.3172 -0.4147
vn 0.7981 -0.3640 -0.4802
vn 0.8034 -0.3191 -0.5027
vn 0.7421 -0.3621 -0.5641
vn 0.7449 -0.3211 -0.5848
vn 0.6773 -0.3601 -0.6416
vn 0.6780 -0.3232 -0.6602
vn 0.6045 -0.3580 -0.7116
vn 0.6035 -0.3254 -0.7279
vn 0.5245 -0.3558 -0.7735
vn 0.5223 -0.3277 -0.7873
vn 0.4382 -0.3535 -0.8265
vn 0.4352 -0.3301 -0.8376
vn 0.3466 -0.3511 -0.8698
vn 0.3434 -0.3326 -0.8783
vn 0.2507 -0.3486 -0.9031
vn 0.2479 -0.3351 -0.9090
vn 0.1518 -0.3460 -0.9259
vn 0.1497 -0.3378 -0.9292
vn 0.0508 -0.3433 -0.9378
vn 0.0500 -0.3405 -0.9389
vn 0.0518 0.2331 -0.9711
vn 0.1547 0.2331 -0.9601
vn 0.2559 0.2331 -0.9382
vn 0.3541 0.2331 -0.9057
vn 0.4484 0.2331 -0.8629
vn 0.5376 0.2331 -0.8104
vn 0.6207 0.2331 -0.7486
vn 0.6967 0.2331 -0.6784
vn 0.7649 0.2331 -0.6005
vn 0.8244 0.2331 -0.5158
vn 0.8745 0.2331 -0.4253
vn 0.9148 0.2331 -0.3299
vn 0.9447 0.2331 -0.2308
vn 0.9638 0.2331 -0.1291
vn 0.9721 0.2331 -0.0259
vn 0.9693 0.2331 0.0776
vn 0.9556 0.2331 0.1802
vn 0.9310 0.2331 0.2807
vn 0.8959 0.2331 0.3781
vn 0.8507 0.2331 0.4712
vn 0.7958 0.2331 0.5589
vn 0.7318 0.2331 0.6404
vn 0.6596 0.2331 0.7145
vn 0.5799 0.2331 0.7806
vn 0.4937 0.2331 0.8378
vn 0.4018 0.2331 0.8855
vn 0.3054 0.2331 0.9232
vn 0.2056 0.2331 0.9505
vn 0.1034 0.2331 0.9669
vn -0.0000 0.2331 0.9724
vn -0.1034 0.2331 0.9669
vn -0.2056 0.2331 0.9505
vn -0.3054 0.2331 0.9232
vn -0.4018 0.2331 0.8855
vn -0.4937 0.2331 0.8378
vn -0.5799 0.2331 0.7806
vn -0.6596 0.2331 0.7145
vn -0.7318 0.2331 0.6404
vn -0.7958 0.2331 0.5589
vn -0.8507 0.2331 0.4712
vn -0.8959 0.2331 0.3781
vn -0.9310 0.2331 0.2807
vn -0.9556 0.2331 0.1802
vn -0.9693 0.2331 0.0776
vn -0.9721 0.2331 -0.0259
vn -0.9638 0.2331 -0.1291
vn -0.9447 0.2331 -0.2308
vn -0.9148 0.2331 -0.3299
vn -0.8745 0.2331 -0.4253
vn -0.8244 0.2331 -0.5158
vn -0.7649 0.2331 -0.6005
vn -0.6967 0.2331 -0.6784
vn -0.6207 0.2331 -0.7486
vn -0.5376 0.2331 -0.8104
vn -0.4484 0.2331 -0.8629
vn -0.3541 0.2331 -0.9057
vn -0.2559 0.2331 -0.9382
vn -0.1547 0.2331 -0.9601
vn 0.0531 0.0783 -0.9955
vn 0.1586 0.0783 -0.9842
vn 0.2623 0.0783 -0.9618
vn 0.2623 0.0784 -0.9618
vn 0.3630 0.0784 -0.9285
vn 0.3630 0.0783 -0.9285
vn 0.4597 0.0783 -0.8846
vn 0.4597 0.0784 -0.8846
vn 0.5511 0.0783 -0.8308
vn 0.6363 0.0783 -0.7675
vn 0.7143 0.0783 -0.6955
vn 0.7841 0.0783 -0.6156
vn 0.8451 0.0783 -0.5288
vn 0.8965 0.0784 -0.4360
vn 0.8965 0.0783 -0.4360
vn 0.9378 0.0784 -0.3382
vn 0.9378 0.0783 -0.3382
vn 0.9684 0.0784 -0.2366
vn 0.9684 0.0783 -0.2366
vn 0.9881 0.0783 -0.1323
vn 0.9966 0.0783 -0.0265
vn 0.9937 0.0783 0.0795
vn 0.9797 0.0783 0.1847
vn 0.9797 0.0784 0.1847
vn 0.9545 0.0783 0.2878
vn 0.9545 0.0784 0.2878
vn 0.9185 0.0784 0.3876
vn 0.9185 0.0783 0.3876
vn 0.8721 0.0783 0.4831
vn 0.8158 0.0784 0.5730
vn 0.8158 0.0783 0.5730
vn 0.7503 0.0784 0.6565
vn 0.7503 0.0783 0.6565
vn 0.6762 0.0783 0.7325
vn 0.6762 0.0784 0.7325
vn 0.5945 0.0783 0.8002
vn 0.5061 0.0783 0.8589
vn 0.4119 0.0783 0.9078
vn 0.3131 0.0783 0.9465
vn 0.2107 0.0783 0.9744
vn 0.1060 0.0783 0.9913
vn -0.0000 0.0783 0.9969
vn -0.1060 0.0783 0.9913
vn -0.2107 0.0783 0.9744
vn -0.3131 0.0783 0.9465
vn -0.4119 0.0783 0.9078
vn -0.5061 0.0783 0.8589
vn -0.5945 0.0783 0.8002
vn -0.6762 0.0784 0.7325
vn -0.6762 0.0783 0.7325
vn -0.7503 0.0783 0.6565
vn -0.8158 0.0784 0.5730
vn -0.8158 0.0783 0.5730
vn -0.8721 0.0783 0.4831
vn -0.9185 0.0783 0.3876
vn -0.9185 0.0784 0.3876
vn -0.9545 0.0783 0.2878
vn -0.9545 0.0784 0.2878
vn -0.9797 0.0784 0.1847
vn -0.9797 0.0783 0.1847
vn -0.9937 0.0783 0.0795
vn -0.9966 0.0783 -0.0265
vn -0.9881 0.0783 -0.1323
vn -0.9881 0.0784 -0.1323
vn -0.9684 0.0784 -0.2366
vn -0.9684 0.0783 -0.2366
vn -0.9378 0.0783 -0.3382
vn -0.8965 0.0784 -0.4360
vn -0.8965 0.0783 -0.4360
vn -0.8451 0.0784 -0.5288
vn -0.8451 0.0783 -0.5288
vn -0.7841 0.0783 -0.6156
vn -0.7143 0.0783 -0.6955
vn -0.6363 0.0783 -0.7675
vn -0.5511 0.0783 -0.8308
vn -0.4597 0.0783 -0.8846
vn -0.3630 0.0783 -0.9285
vn -0.3630 0.0784 -0.9285
vn -0.2623 0.0784 -0.9618
vn -0.2623 0.0783 -0.9618
vn -0.1586 0.0783 -0.9842
vn 0.0518 -0.2331 -0.9711
vn 0.0531 -0.0783 -0.9955
vn 0.1586 -0.0783 -0.9842
vn 0.2623 -0.0783 -0.9618
vn 0.2623 -0.0784 -0.9618
vn 0.3630 -0.0784 -0.9285
vn 0.3630 -0.0783 -0.9285
vn 0.4597 -0.0783 -0.8846
vn 0.5511 -0.0783 -0.8308
vn 0.6363 -0.0783 -0.7675
vn 0.7143 -0.0783 -0.6955
vn 0.7841 -0.0783 -0.6156
vn 0.8451 -0.0783 -0.5288
vn 0.8451 -0.0784 -0.5288
vn 0.8965 -0.0783 -0.4360
vn 0.8965 -0.0784 -0.4360
vn 0.9378 -0.0783 -0.3382
vn 0.9684 -0.0783 -0.2366
vn 0.9684 -0.0784 -0.2366
vn 0.9881 -0.0784 -0.1323
vn 0.9881 -0.0783 -0.1323
vn 0.9966 -0.0783 -0.0265
vn 0.9937 -0.0783 0.0795
vn 0.9797 -0.0783 0.1847
vn 0.9797 -0.0784 0.1847
vn 0.9545 -0.0784 0.2878
vn 0.9545 -0.0783 0.2878
vn 0.9185 -0.0784 0.3876
vn 0.9185 -0.0783 0.3876
vn 0.8721 -0.0783 0.4831
vn 0.8158 -0.0783 0.5730
vn 0.8158 -0.0784 0.5730
vn 0.7503 -0.0783 0.6565
vn 0.6762 -0.0783 0.7325
vn 0.6762 -0.0784 0.7325
vn 0.5945 -0.0783 0.8002
vn 0.5061 -0.0783 0.8589
vn 0.4119 -0.0783 0.9078
vn 0.3131 -0.0783 0.9465
vn 0.2107 -0.0783 0.9744
vn 0.1060 -0.0783 0.9913
vn -0.0000 -0.0783 0.9969
vn -0.1060 -0.0783 0.9913
vn -0.2107 -0.0783 0.9744
vn -0.3131 -0.0783 0.9465
vn -0.4119 -0.0783 0.9078
vn -0.5061 -0.0783 0.8589
vn -0.5945 -0.0783 0.8002
vn -0.6762 -0.0784 0.7325
vn -0.6762 -0.0783 0.7325
vn -0.7503 -0.0783 0.6565
vn -0.7503 -0.0784 0.6565
vn -0.8158 -0.0783 0.5730
vn -0.8158 -0.0784 0.5730
vn -0.8721 -0.0783 0.4831
vn -0.9185 -0.0783 0.3876
vn -0.9185 -0.0784 0.3876
vn -0.9545 -0.0784 0.2878
vn -0.9545 -0.0783 0.2878
vn -0.9797 -0.0784 0.1847
vn -0.9797 -0.0783 0.1847
vn -0.9937 -0.0783 0.0795
vn -0.9966 -0.0783 -0.0265
vn -0.9881 -0.0783 -0.1323
vn -0.9684 -0.0783 -0.2366
vn -0.9684 -0.0784 -0.2366
vn -0.9378 -0.0783 -0.3382
vn -0.9378 -0.0784 -0.3382
vn -0.8965 -0.0783 -0.4360
vn -0.8965 -0.0784 -0.4360
vn -0.8451 -0.0783 -0.5288
vn -0.7841 -0.0783 -0.6156
vn -0.7143 -0.0783 -0.6955
vn -0.6363 -0.0783 -0.7675
vn -0.5511 -0.0783 -0.8308
vn -0.4597 -0.0784 -0.8846
vn -0.4597 -0.0783 -0.8846
vn -0.3630 -0.0783 -0.9285
vn -0.3630 -0.0784 -0.9285
vn -0.2623 -0.0784 -0.9618
vn -0.2623 -0.0783 -0.9618
vn -0.1586 -0.0783 -0.9842
vn 0.1547 -0.2331 -0.9601
vn 0.2559 -0.2331 -0.9382
vn 0.3541 -0.2331 -0.9057
vn 0.4484 -0.2331 -0.8629
vn 0.5376 -0.2331 -0.8104
vn 0.6207 -0.2331 -0.7486
vn 0.6967 -0.2331 -0.6784
vn 0.7649 -0.2331 -0.6005
vn 0.8244 -0.2331 -0.5158
vn 0.8745 -0.2331 -0.4253
vn 0.9148 -0.2331 -0.3299
vn 0.9447 -0.2331 -0.2308
vn 0.9638 -0.2331 -0.1291
vn 0.9721 -0.2331 -0.0259
vn 0.9693 -0.2331 0.0776
vn 0.9556 -0.2331 0.1802
vn 0.9310 -0.2331 0.2807
vn 0.8959 -0.2331 0.3781
vn 0.8507 -0.2331 0.4712
vn 0.7958 -0.2331 0.5589
vn 0.7318 -0.2331 0.6404
vn 0.6596 -0.2331 0.7145
vn 0.5799 -0.2331 0.7806
vn 0.4937 -0.2331 0.8378
vn 0.4018 -0.2331 0.8855
vn 0.3054 -0.2331 0.9232
vn 0.2056 -0.2331 0.9505
vn 0.1034 -0.2331 0.9669
vn -0.0000 -0.2331 0.9724
vn -0.1034 -0.2331 0.9669
vn -0.2056 -0.2331 0.9505
vn -0.3054 -0.2331 0.9232
vn -0.4018 -0.2331 0.8855
vn -0.4937 -0.2331 0.8378
vn -0.5799 -0.2331 0.7806
vn -0.6596 -0.2331 0.7145
vn -0.7318 -0.2331 0.6404
vn -0.7958 -0.2331 0.5589
vn -0.8507 -0.2331 0.4712
vn -0.8959 -0.2331 0.3781
vn -0.9310 -0.2331 0.2807
vn -0.9556 -0.2331 0.1802
vn -0.9693 -0.2331 0.0776
vn -0.9721 -0.2331 -0.0259
vn -0.9638 -0.2331 -0.1291
vn -0.9447 -0.2331 -0.2308
vn -0.9148 -0.2331 -0.3299
vn -0.8745 -0.2331 -0.4253
vn -0.8244 -0.2331 -0.5158
vn -0.7649 -0.2331 -0.6005
vn -0.6967 -0.2331 -0.6784
vn -0.6207 -0.2331 -0.7486
vn -0.5376 -0.2331 -0.8104
vn -0.4484 -0.2331 -0.8629
vn -0.3541 -0.2331 -0.9057
vn -0.2559 -0.2331 -0.9382
vn -0.1547 -0.2331 -0.9601
vn -0.0000 -1.0000 -0.0000
vn -0.0000 1.0000 -0.0000
s 0
f 103//1 104//1 105//1
f 105//2 104//2 106//2
f 105//3 106//3 107//3
f 107//4 106//4 108//4
f 107//4 108//4 109//4
f 109//5 108//5 110//5
f 109//5 110//5 111//5
f 111//6 110//6 112//6
f 111//6 112//6 113//6
f 113//7 112//7 114//7
f 113//7 114//7 115//7
f 115//8 114//8 116//8
f 115//9 116//9 117//9
f 104//10 103//10 118//10
f 118//11 103//11 119//11
f 118//12 119//12 120//12
f 120//13 119//13 121//13
f 120//14 121//14 122//14
f 122//15 121//15 123//15
f 122//16 123//16 124//16
f 124//17 123//17 125//17
f 124//18 125//18 126//18
f 126//19 125//19 127//19
f 126//20 127//20 128//20
f 128//21 127//21 129//21
f 128//22 129//22 130//22
f 130//23 129//23 131//23
f 130//24 131//24 132//24
f 132//25 131//25 133//25
f 132//26 133//26 134//26
f 134//27 133//27 135//27
f 134//28 135//28 136//28
f 136//29 135//29 137//29
f 136//30 137//30 138//30
f 138//31 137//31 139//31
f 138//32 139//32 140//32
f 140//33 139//33 141//33
f 140//34 141//34 142//34
f 142//35 141//35 143//35
f 142//36 143//36 144//36
f 144//37 143//37 145//37
f 144//38 145//38 146//38
f 146//39 145//39 147//39
f 146//40 147//40 148//40
f 148//41 147//41 149//41
f 148//42 149//42 150//42
f 150//43 149//43 151//43
f 150//44 151//44 152//44
f 152//45 151//45 153//45
f 152//46 153//46 154//46
f 154//47 153//47 155//47
f 154//48 155//48 156//48
f 156//49 155//49 157//49
f 156//50 157//50 158//50
f 158//51 157//51 159//51
f 158//52 159//52 160//52
f 160//53 159//53 161//53
f 160//54 161//54 162//54
f 162//55 161//55 163//55
f 162//56 163//56 164//56
f 164//57 163//57 165//57
f 164//58 165//58 166//58
f 166//59 165//59 167//59
f 166//60 167//60 168//60
f 168//61 167//61 169//61
f 168//62 169//62 170//62
f 170//63 169//63 171//63
f 170//64 171//64 172//64
f 172//65 171//65 173//65
f 172//66 173//66 174//66
f 174//67 173//67 175//67
f 174//68 175//68 176//68
f 176//69 175//69 177//69
f 176//70 177//70 178//70
f 178//71 177//71 179//71
f 178//72 179//72 180//72
f 180//73 179//73 181//73
f 180//74 181//74 182//74
f 182//75 181//75 183//75
f 182//76 183//76 184//76
f 184//77 183//77 185//77
f 184//78 185//78 186//78
f 186//79 185//79 187//79
f 186//80 187//80 188//80
f 188//81 187//81 189//81
f 188//82 189//82 190//82
f 190//83 189//83 191//83
f 190//84 191//84 192//84
f 192//85 191//85 193//85
f 192//86 193//86 194//86
f 194//87 193//87 195//87
f 194//88 195//88 196//88
f 196//89 195//89 197//89
f 196//90 197//90 198//90
f 198//91 197//91 199//91
f 198//92 199//92 200//92
f 200//93 199//93 201//93
f 200//94 201//94 202//94
f 202//95 201//95 203//95
f 202//96 203//96 204//96
f 204//97 203//97 205//97
f 204//98 205//98 206//98
f 206//99 205//99 207//99
f 206//100 207//100 208//100
f 208//101 207//101 209//101
f 208//102 209//102 210//102
f 210//103 209//103 211//103
f 210//104 211//104 212//104
f 212//105 211//105 213//105
f 212//106 213//106 214//106
f 214//107 213//107 215//107
f 214//108 215//108 216//108
f 216//109 215//109 217//109
f 216//110 217//110 218//110
f 218//111 217//111 219//111
f 218//112 219//112 220//112
f 220//113 219//113 221//113
f 220//114 221//114 222//114
f 222//115 221//115 223//115
f 222//116 223//116 224//116
f 224//117 223//117 225//117
f 224//118 225//118 226//118
f 226//119 225//119 227//119
f 226//120 227//120 228//120
f 228//121 227//121 229//121
f 228//122 229//122 107//122
f 107//123 229//123 105//123
f 115//124 117//124 230//124
f 230//125 117//125 231//125
f 230//126 231//126 232//126
f 232//127 231//127 233//127
f 232//128 233//128 234//128
f 234//129 233//129 235//129
f 234//130 235//130 236//130
f 236//131 235//131 237//131
f 236//132 237//132 238//132
f 238//133 237//133 239//133
f 238//134 239//134 240//134
f 240//135 239//135 241//135
f 240//136 241//136 242//136
f 242//137 241//137 243//137
f 242//138 243//138 244//138
f 244//139 243//139 245//139
f 244//140 245//140 246//140
f 246//141 245//141 247//141
f 246//142 247//142 248//142
f 248//143 247//143 249//143
f 248//144 249//144 250//144
f 250//145 249//145 251//145
f 250//146 251//146 252//146
f 252//147 251//147 253//147
f 252//148 253//148 254//148
f 254//149 253//149 255//149
f 254//150 255//150 256//150
f 256//151 255//151 257//151
f 256//152 257//152 258//152
f 258//153 257//153 259//153
f 258//154 259//154 260//154
f 260//155 259//155 261//155
f 260//156 261//156 262//156
f 262//157 261//157 263//157
f 262//158 263//158 264//158
f 264//159 263//159 265//159
f 264//160 265//160 266//160
f 266//161 265//161 267//161
f 266//162 267//162 268//162
f 268//163 267//163 269//163
f 268//164 269//164 270//164
f 270//165 269//165 271//165
f 270//166 271//166 272//166
f 272//167 271//167 273//167
f 272//168 273//168 274//168
f 274//169 273//169 275//169
f 274//170 275//170 276//170
f 276//171 275//171 277//171
f 276//172 277//172 278//172
f 278//173 277//173 279//173
f 278//174 279//174 280//174
f 280//175 279//175 281//175
f 280//176 281//176 282//176
f 282//177 281//177 283//177
f 282//178 283//178 284//178
f 284//179 283//179 285//179
f 284//180 285//180 286//180
f 286//181 285//181 287//181
f 286//182 287//182 288//182
f 288//183 287//183 289//183
f 288//184 289//184 290//184
f 290//185 289//185 291//185
f 290//186 291//186 292//186
f 292//187 291//187 293//187
f 292//188 293//188 294//188
f 294//189 293//189 295//189
f 294//190 295//190 296//190
f 296//191 295//191 297//191
f 296//192 297//192 298//192
f 298//193 297//193 299//193
f 298//194 299//194 300//194
f 300//195 299//195 301//195
f 300//196 301//196 302//196
f 302//197 301//197 303//197
f 302//198 303//198 304//198
f 304//199 303//199 305//199
f 304//200 305//200 306//200
f 306//201 305//201 307//201
f 306//202 307//202 308//202
f 308//203 307//203 309//203
f 308//204 309//204 310//204
f 310//205 309//205 311//205
f 310//206 311//206 312//206
f 312//207 311//207 313//207
f 312//208 313//208 314//208
f 314//209 313//209 315//209
f 314//210 315//210 316//210
f 316//211 315//211 317//211
f 316//212 317//212 318//212
f 318//213 317//213 319//213
f 318//214 319//214 320//214
f 320//215 319//215 321//215
f 320//216 321//216 322//216
f 322//217 321//217 323//217
f 322//218 323//218 324//218
f 324//219 323//219 325//219
f 324//220 325//220 326//220
f 326//221 325//221 327//221
f 326//222 327//222 328//222
f 328//223 327//223 329//223
f 328//224 329//224 330//224
f 330//225 329//225 331//225
f 330//226 331//226 332//226
f 332//227 331//227 333//227
f 332//228 333//228 334//228
f 334//229 333//229 335//229
f 334//230 335//230 336//230
f 336//231 335//231 337//231
f 336//232 337//232 338//232
f 338//233 337//233 339//233
f 338//234 339//234 340//234
f 340//235 339//235 341//235
f 340//236 341//236 342//236
f 342//237 341//237 116//237
f 342//238 116//238 114//238
f 108//239 106//239 343//239
f 343//239 106//239 104//239
f 343//240 104//240 344//240
f 344//240 104//240 118//240
f 344//241 118//241 345//241
f 345//241 118//241 120//241
f 345//242 120//242 346//242
f 346//242 120//242 122//242
f 346//243 122//243 347//243
f 347//243 122//243 124//243
f 347//244 124//244 348//244
f 348//244 124//244 126//244
f 348//245 126//245 349//245
f 349//245 126//245 128//245
f 349//246 128//246 350//246
f 350//246 128//246 130//246
f 350//247 130//247 351//247
f 351//247 130//247 132//247
f 351//248 132//248 352//248
f 352//248 132//248 134//248
f 352//249 134//249 353//249
f 353//249 134//249 136//249
f 353//250 136//250 354//250
f 354//250 136//250 138//250
f 354//251 138//251 355//251
f 355//251 138//251 140//251
f 355//252 140//252 356//252
f 356//252 140//252 142//252
f 356//253 142//253 357//253
f 357//253 142//253 144//253
f 357//254 144//254 358//254
f 358//254 144//254 146//254
f 358//255 146//255 359//255
f 359//255 146//255 148//255
f 359//256 148//256 360//256
f 360//256 148//256 150//256
f 360//257 150//257 361//257
f 361//257 150//257 152//257
f 361//258 152//258 362//258
f 362//258 152//258 154//258
f 362//259 154//259 363//259
f 363//259 154//259 156//259
f 363//260 156//260 364//260
f 364//260 156//260 158//260
f 364//261 158//261 365//261
f 365//261 158//261 160//261
f 365//262 160//262 366//262
f 366//262 160//262 162//262
f 366//263 162//263 367//263
f 367//263 162//263 164//263
f 367//264 164//264 368//264
f 368//264 164//264 166//264
f 368//265 166//265 369//265
f 369//265 166//265 168//265
f 369//266 168//266 370//266
f 370//266 168//266 170//266
f 370//267 170//267 371//267
f 371//267 170//267 172//267
f 371//268 172//268 372//268
f 372//268 172//268 174//268
f 372//269 174//269 373//269
f 373//269 174//269 176//269
f 373//270 176//270 374//270
f 374//270 176//270 178//270
f 374//271 178//271 375//271
f 375//271 178//271 180//271
f 375//272 180//272 376//272
f 376//272 180//272 182//272
f 376//273 182//273 377//273
f 377//273 182//273 184//273
f 377//274 184//274 378//274
f 378//274 184//274 186//274
f 378//275 186//275 379//275
f 379//275 186//275 188//275
f 379//276 188//276 380//276
f 380//276 188//276 190//276
f 380//277 190//277 381//277
f 381//277 190//277 192//277
f 381//278 192//278 382//278
f 382//278 192//278 194//278
f 382//279 194//279 383//279
f 383//279 194//279 196//279
f 383//280 196//280 384//280
f 384//280 196//280 198//280
f 384//281 198//281 385//281
f 385//281 198//281 200//281
f 385//282 200//282 386//282
f 386//282 200//282 202//282
f 386//283 202//283 387//283
f 387//283 202//283 204//283
f 387//284 204//284 388//284
f 388//284 204//284 206//284
f 388//285 206//285 389//285
f 389//285 206//285 208//285
f 389//286 208//286 390//286
f 390//286 208//286 210//286
f 390//287 210//287 391//287
f 391//287 210//287 212//287
f 391//288 212//288 392//288
f 392//288 212//288 214//288
f 392//289 214//289 393//289
f 393//289 214//289 216//289
f 393//290 216//290 394//290
f 394//290 216//290 218//290
f 394//291 218//291 395//291
f 395//291 218//291 220//291
f 395//292 220//292 396//292
f 396//292 220//292 222//292
f 396//293 222//293 397//293
f 397//293 222//293 224//293
f 397//294 224//294 398//294
f 398//294 224//294 226//294
f 398//295 226//295 399//295
f 399//295 226//295 228//295
f 399//296 228//296 109//296
f 109//296 228//296 107//296
f 110//297 108//297 400//297
f 400//297 108//297 343//297
f 400//298 343//298 401//298
f 401//298 343//298 344//298
f 401//299 344//299 402//299
f 402//300 344//300 345//300
f 402//301 345//301 403//301
f 403//302 345//302 346//302
f 403//303 346//303 404//303
f 404//304 346//304 347//304
f 404//305 347//305 405//305
f 405//305 347//305 348//305
f 405//306 348//306 406//306
f 406//306 348//306 349//306
f 406//307 349//307 407//307
f 407//307 349//307 350//307
f 407//308 350//308 408//308
f 408//308 350//308 351//308
f 408//309 351//309 409//309
f 409//309 351//309 352//309
f 409//310 352//310 410//310
f 410//311 352//311 353//311
f 410//312 353//312 411//312
f 411//313 353//313 354//313
f 411//314 354//314 412//314
f 412//315 354//315 355//315
f 412//316 355//316 413//316
f 413//316 355//316 356//316
f 413//317 356//317 414//317
f 414//317 356//317 357//317
f 414//318 357//318 415//318
f 415//318 357//318 358//318
f 415//319 358//319 416//319
f 416//320 358//320 359//320
f 416//321 359//321 417//321
f 417//322 359//322 360//322
f 417//323 360//323 418//323
f 418//324 360//324 361//324
f 418//325 361//325 419//325
f 419//325 361//325 362//325
f 419//326 362//326 420//326
f 420//327 362//327 363//327
f 420//328 363//328 421//328
f 421//329 363//329 364//329
f 421//330 364//330 422//330
f 422//331 364//331 365//331
f 422//332 365//332 423//332
f 423//332 365//332 366//332
f 423//333 366//333 424//333
f 424//333 366//333 367//333
f 424//334 367//334 425//334
f 425//334 367//334 368//334
f 425//335 368//335 426//335
f 426//335 368//335 369//335
f 426//336 369//336 427//336
f 427//336 369//336 370//336
f 427//337 370//337 428//337
f 428//337 370//337 371//337
f 428//338 371//338 429//338
f 429//338 371//338 372//338
f 429//339 372//339 430//339
f 430//339 372//339 373//339
f 430//340 373//340 431//340
f 431//340 373//340 374//340
f 431//341 374//341 432//341
f 432//341 374//341 375//341
f 432//342 375//342 433//342
f 433//342 375//342 376//342
f 433//343 376//343 434//343
f 434//343 376//343 377//343
f 434//344 377//344 435//344
f 435//344 377//344 378//344
f 435//345 378//345 436//345
f 436//346 378//346 379//346
f 436//347 379//347 437//347
f 437//347 379//347 380//347
f 437//348 380//348 438//348
f 438//349 380//349 381//349
f 438//350 381//350 439//350
f 439//350 381//350 382//350
f 439//351 382//351 440//351
f 440//352 382//352 383//352
f 440//353 383//353 441//353
f 441//354 383//354 384//354
f 441//355 384//355 442//355
f 442//356 384//356 385//356
f 442//357 385//357 443//357
f 443//357 385//357 386//357
f 443//358 386//358 444//358
f 444//358 386//358 387//358
f 444//359 387//359 445//359
f 445//360 387//360 388//360
f 445//361 388//361 446//361
f 446//362 388//362 389//362
f 446//363 389//363 447//363
f 447//363 389//363 390//363
f 447//364 390//364 448//364
f 448//365 390//365 391//365
f 448//366 391//366 449//366
f 449//367 391//367 392//367
f 449//368 392//368 450//368
f 450//368 392//368 393//368
f 450//369 393//369 451//369
f 451//369 393//369 394//369
f 451//370 394//370 452//370
f 452//370 394//370 395//370
f 452//371 395//371 453//371
f 453//371 395//371 396//371
f 453//372 396//372 454//372
f 454//372 396//372 397//372
f 454//373 397//373 455//373
f 455//374 397//374 398//374
f 455//375 398//375 456//375
f 456//376 398//376 399//376
f 456//377 399//377 111//377
f 111//377 399//377 109//377
f 342//378 114//378 112//378
f 112//379 110//379 457//379
f 457//379 110//379 400//379
f 457//380 400//380 458//380
f 458//380 400//380 401//380
f 458//381 401//381 459//381
f 459//382 401//382 402//382
f 459//383 402//383 460//383
f 460//384 402//384 403//384
f 460//385 403//385 461//385
f 461//385 403//385 404//385
f 461//386 404//386 462//386
f 462//386 404//386 405//386
f 462//387 405//387 463//387
f 463//387 405//387 406//387
f 463//388 406//388 464//388
f 464//388 406//388 407//388
f 464//389 407//389 465//389
f 465//389 407//389 408//389
f 465//390 408//390 466//390
f 466//391 408//391 409//391
f 466//392 409//392 467//392
f 467//393 409//393 410//393
f 467//394 410//394 468//394
f 468//394 410//394 411//394
f 468//395 411//395 469//395
f 469//396 411//396 412//396
f 469//397 412//397 470//397
f 470//398 412//398 413//398
f 470//399 413//399 471//399
f 471//399 413//399 414//399
f 471//400 414//400 472//400
f 472//400 414//400 415//400
f 472//401 415//401 473//401
f 473//402 415//402 416//402
f 473//403 416//403 474//403
f 474//404 416//404 417//404
f 474//405 417//405 475//405
f 475//406 417//406 418//406
f 475//407 418//407 476//407
f 476//407 418//407 419//407
f 476//408 419//408 477//408
f 477//409 419//409 420//409
f 477//410 420//410 478//410
f 478//410 420//410 421//410
f 478//411 421//411 479//411
f 479//412 421//412 422//412
f 479//413 422//413 480//413
f 480//413 422//413 423//413
f 480//414 423//414 481//414
f 481//414 423//414 424//414
f 481//415 424//415 482//415
f 482//415 424//415 425//415
f 482//416 425//416 483//416
f 483//416 425//416 426//416
f 483//417 426//417 484//417
f 484//417 426//417 427//417
f 484//418 427//418 485//418
f 485//418 427//418 428//418
f 485//419 428//419 486//419
f 486//419 428//419 429//419
f 486//420 429//420 487//420
f 487//420 429//420 430//420
f 487//421 430//421 488//421
f 488//421 430//421 431//421
f 488//422 431//422 489//422
f 489//422 431//422 432//422
f 489//423 432//423 490//423
f 490//423 432//423 433//423
f 490//424 433//424 491//424
f 491//424 433//424 434//424
f 491//425 434//425 492//425
f 492//425 434//425 435//425
f 492//426 435//426 493//426
f 493//427 435//427 436//427
f 493//428 436//428 494//428
f 494//429 436//429 437//429
f 494//430 437//430 495//430
f 495//431 437//431 438//431
f 495//432 438//432 496//432
f 496//432 438//432 439//432
f 496//433 439//433 497//433
f 497//434 439//434 440//434
f 497//435 440//435 498//435
f 498//436 440//436 441//436
f 498//437 441//437 499//437
f 499//438 441//438 442//438
f 499//439 442//439 500//439
f 500//439 442//439 443//439
f 500//440 443//440 501//440
f 501//440 443//440 444//440
f 501//441 444//441 502//441
f 502//441 444//441 445//441
f 502//442 445//442 503//442
f 503//443 445//443 446//443
f 503//444 446//444 504//444
f 504//445 446//445 447//445
f 504//446 447//446 505//446
f 505//447 447//447 448//447
f 505//448 448//448 506//448
f 506//448 448//448 449//448
f 506//449 449//449 507//449
f 507//449 449//449 450//449
f 507//450 450//450 508//450
f 508//450 450//450 451//450
f 508//451 451//451 509//451
f 509//451 451//451 452//451
f 509//452 452//452 510//452
f 510//452 452//452 453//452
f 510//453 453//453 511//453
f 511//454 453//454 454//454
f 511//455 454//455 512//455
f 512//456 454//456 455//456
f 512//457 455//457 513//457
f 513//458 455//458 456//458
f 513//459 456//459 113//459
f 113//459 456//459 111//459
f 340//460 342//460 457//460
f 457//378 342//378 112//378
f 340//460 457//460 458//460
f 338//461 340//461 458//461
f 338//461 458//461 459//461
f 336//462 338//462 459//462
f 336//462 459//462 460//462
f 334//463 336//463 460//463
f 334//463 460//463 461//463
f 332//464 334//464 461//464
f 332//464 461//464 462//464
f 330//465 332//465 462//465
f 330//465 462//465 463//465
f 328//466 330//466 463//466
f 328//466 463//466 464//466
f 326//467 328//467 464//467
f 326//467 464//467 465//467
f 324//468 326//468 465//468
f 324//468 465//468 466//468
f 322//469 324//469 466//469
f 322//469 466//469 467//469
f 320//470 322//470 467//470
f 320//470 467//470 468//470
f 318//471 320//471 468//471
f 318//471 468//471 469//471
f 316//472 318//472 469//472
f 316//472 469//472 470//472
f 314//473 316//473 470//473
f 314//473 470//473 471//473
f 312//474 314//474 471//474
f 312//474 471//474 472//474
f 310//475 312//475 472//475
f 310//475 472//475 473//475
f 308//476 310//476 473//476
f 308//476 473//476 474//476
f 306//477 308//477 474//477
f 306//477 474//477 475//477
f 304//478 306//478 475//478
f 304//478 475//478 476//478
f 302//479 304//479 476//479
f 302//479 476//479 477//479
f 300//480 302//480 477//480
f 300//480 477//480 478//480
f 298//481 300//481 478//481
f 298//481 478//481 479//481
f 296//482 298//482 479//482
f 296//482 479//482 480//482
f 294//483 296//483 480//483
f 294//483 480//483 481//483
f 292//484 294//484 481//484
f 292//484 481//484 482//484
f 290//485 292//485 482//485
f 290//485 482//485 483//485
f 288//486 290//486 483//486
f 288//486 483//486 484//486
f 286//487 288//487 484//487
f 286//487 484//487 485//487
f 284//488 286//488 485//488
f 284//488 485//488 486//488
f 282//489 284//489 486//489
f 282//489 486//489 487//489
f 280//490 282//490 487//490
f 280//490 487//490 488//490
f 278//491 280//491 488//491
f 278//491 488//491 489//491
f 276//492 278//492 489//492
f 276//492 489//492 490//492
f 274//493 276//493 490//493
f 274//493 490//493 491//493
f 272//494 274//494 491//494
f 272//494 491//494 492//494
f 270//495 272//495 492//495
f 270//495 492//495 493//495
f 268//496 270//496 493//496
f 268//496 493//496 494//496
f 266//497 268//497 494//497
f 266//497 494//497 495//497
f 264//498 266//498 495//498
f 264//498 495//498 496//498
f 262//499 264//499 496//499
f 262//499 496//499 497//499
f 260//500 262//500 497//500
f 260//500 497//500 498//500
f 258//501 260//501 498//501
f 258//501 498//501 499//501
f 256//502 258//502 499//502
f 256//502 499//502 500//502
f 254//503 256//503 500//503
f 254//503 500//503 501//503
f 252//504 254//504 501//504
f 252//504 501//504 502//504
f 250//505 252//505 502//505
f 250//505 502//505 503//505
f 248//506 250//506 503//506
f 248//506 503//506 504//506
f 246//507 248//507 504//507
f 246//507 504//507 505//507
f 244//508 246//508 505//508
f 244//508 505//508 506//508
f 242//509 244//509 506//509
f 242//509 506//509 507//509
f 240//510 242//510 507//510
f 240//510 507//510 508//510
f 238//511 240//511 508//511
f 238//511 508//511 509//511
f 236//512 238//512 509//512
f 236//512 509//512 510//512
f 234//513 236//513 510//513
f 234//513 510//513 511//513
f 232//514 234//514 511//514
f 232//514 511//514 512//514
f 230//515 232//515 512//515
f 230//515 512//515 513//515
f 115//516 230//516 513//516
f 115//516 513//516 113//516
f 52//517 257//517 53//517
f 53//517 257//517 255//517
f 53//517 255//517 54//517
f 54//517 255//517 253//517
f 54//517 253//517 55//517
f 55//517 253//517 251//517
f 55//517 251//517 102//517
f 102//517 251//517 249//517
f 102//517 249//517 101//517
f 101//517 249//517 247//517
f 101//517 247//517 245//517
f 257//517 52//517 259//517
f 259//517 52//517 56//517
f 259//517 56//517 261//517
f 261//517 56//517 57//517
f 261//517 57//517 263//517
f 263//517 57//517 58//517
f 263//517 58//517 265//517
f 265//517 58//517 267//517
f 267//517 58//517 59//517
f 267//517 59//517 269//517
f 269//517 59//517 60//517
f 269//517 60//517 271//517
f 271//517 60//517 61//517
f 271//517 61//517 273//517
f 273//517 61//517 62//517
f 273//517 62//517 275//517
f 275//517 62//517 63//517
f 275//517 63//517 277//517
f 277//517 63//517 64//517
f 277//517 64//517 279//517
f 279//517 64//517 65//517
f 279//517 65//517 281//517
f 281//517 65//517 283//517
f 283//517 65//517 66//517
f 283//517 66//517 285//517
f 285//517 66//517 67//517
f 285//517 67//517 287//517
f 287//517 67//517 68//517
f 287//517 68//517 289//517
f 289//517 68//517 69//517
f 289//517 69//517 291//517
f 291//517 69//517 70//517
f 291//517 70//517 293//517
f 293//517 70//517 71//517
f 293//517 71//517 295//517
f 295//517 71//517 72//517
f 295//517 72//517 297//517
f 297//517 72//517 299//517
f 299//517 72//517 73//517
f 299//517 73//517 301//517
f 301//517 73//517 74//517
f 301//517 74//517 303//517
f 303//517 74//517 75//517
f 303//517 75//517 305//517
f 305//517 75//517 76//517
f 305//517 76//517 307//517
f 307//517 76//517 77//517
f 307//517 77//517 309//517
f 309//517 77//517 78//517
f 309//517 78//517 311//517
f 311//517 78//517 79//517
f 311//517 79//517 313//517
f 313//517 79//517 80//517
f 313//517 80//517 315//517
f 315//517 80//517 317//517
f 317//517 80//517 81//517
f 317//517 81//517 319//517
f 319//517 81//517 82//517
f 319//517 82//517 321//517
f 321//517 82//517 83//517
f 321//517 83//517 323//517
f 323//517 83//517 84//517
f 323//517 84//517 325//517
f 325//517 84//517 85//517
f 325//517 85//517 327//517
f 327//517 85//517 86//517
f 327//517 86//517 329//517
f 329//517 86//517 87//517
f 329//517 87//517 331//517
f 331//517 87//517 333//517
f 333//517 87//517 88//517
f 333//517 88//517 335//517
f 335//517 88//517 89//517
f 335//517 89//517 337//517
f 337//517 89//517 90//517
f 337//517 90//517 339//517
f 339//517 90//517 91//517
f 339//517 91//517 341//517
f 341//517 91//517 92//517
f 341//517 92//517 116//517
f 116//517 92//517 93//517
f 116//517 93//517 117//517
f 117//517 93//517 94//517
f 117//517 94//517 231//517
f 231//517 94//517 233//517
f 233//517 94//517 95//517
f 233//517 95//517 235//517
f 235//517 95//517 96//517
f 235//517 96//517 237//517
f 237//517 96//517 97//517
f 237//517 97//517 239//517
f 239//517 97//517 98//517
f 239//517 98//517 241//517
f 241//517 98//517 99//517
f 241//517 99//517 243//517
f 243//517 99//517 100//517
f 243//517 100//517 245//517
f 245//517 100//517 101//517
f 1//518 203//518 2//518
f 2//518 203//518 201//518
f 2//518 201//518 3//518
f 3//518 201//518 199//518
f 3//518 199//518 4//518
f 4//518 199//518 197//518
f 4//518 197//518 51//518
f 51//518 197//518 195//518
f 51//518 195//518 50//518
f 50//518 195//518 193//518
f 50//518 193//518 191//518
f 203//518 1//518 205//518
f 205//518 1//518 5//518
f 205//518 5//518 207//518
f 207//518 5//518 6//518
f 207//518 6//518 209//518
f 209//518 6//518 7//518
f 209//518 7//518 211//518
f 211//518 7//518 213//518
f 213//518 7//518 8//518
f 213//518 8//518 215//518
f 215//518 8//518 9//518
f 215//518 9//518 217//518
f 217//518 9//518 10//518
f 217//518 10//518 219//518
f 219//518 10//518 11//518
f 219//518 11//518 221//518
f 221//518 11//518 12//518
f 221//518 12//518 223//518
f 223//518 12//518 13//518
f 223//518 13//518 225//518
f 225//518 13//518 14//518
f 225//518 14//518 227//518
f 227//518 14//518 229//518
f 229//518 14//518 15//518
f 229//518 15//518 105//518
f 105//518 15//518 16//518
f 105//518 16//518 103//518
f 103//518 16//518 17//518
f 103//518 17//518 119//518
f 119//518 17//518 18//518
f 119//518 18//518 121//518
f 121//518 18//518 19//518
f 121//518 19//518 123//518
f 123//518 19//518 20//518
f 123//518 20//518 125//518
f 125//518 20//518 21//518
f 125//518 21//518 127//518
f 127//518 21//518 129//518
f 129//518 21//518 22//518
f 129//518 22//518 131//518
f 131//518 22//518 23//518
f 131//518 23//518 133//518
f 133//518 23//518 24//518
f 133//518 24//518 135//518
f 135//518 24//518 25//518
f 135//518 25//518 137//518
f 137//518 25//518 26//518
f 137//518 26//518 139//518
f 139//518 26//518 27//518
f 139//518 27//518 141//518
f 141//518 27//518 28//518
f 141//518 28//518 143//518
f 143//518 28//518 29//518
f 143//518 29//518 145//518
f 145//518 29//518 147//518
f 147//518 29//518 30//518
f 147//518 30//518 149//518
f 149//518 30//518 31//518
f 149//518 31//518 151//518
f 151//518 31//518 32//518
f 151//518 32//518 153//518
f 153//518 32//518 33//518
f 153//518 33//518 155//518
f 155//518 33//518 34//518
f 155//518 34//518 157//518
f 157//518 34//518 35//518
f 157//518 35//518 159//518
f 159//518 35//518 36//518
f 159//518 36//518 161//518
f 161//518 36//518 163//518
f 163//518 36//518 37//518
f 163//518 37//518 165//518
f 165//518 37//518 38//518
f 165//518 38//518 167//518
f 167//518 38//518 39//518
f 167//518 39//518 169//518
f 169//518 39//518 40//518
f 169//518 40//518 171//518
f 171//518 40//518 41//518
f 171//518 41//518 173//518
f 173//518 41//518 42//518
f 173//518 42//518 175//518
f 175//518 42//518 43//518
f 175//518 43//518 177//518
f 177//518 43//518 179//518
f 179//518 43//518 44//518
f 179//518 44//518 181//518
f 181//518 44//518 45//518
f 181//518 45//518 183//518
f 183//518 45//518 46//518
f 183//518 46//518 185//518
f 185//518 46//518 47//518
f 185//518 47//518 187//518
f 187//518 47//518 48//518
f 187//518 48//518 189//518
f 189//518 48//518 49//518
f 189//518 49//518 191//518
f 191//518 49//518 50//518
