# Blender 4.0.2
# www.blender.org
o MPO-700-BODY__m5
v -240.649994 0.000000 284.890411
v -240.649994 5.357564 286.463501
v -240.649994 9.014141 290.683411
v -240.649994 9.808790 296.210297
v -240.649994 7.489218 301.289490
v -240.649994 2.791873 304.308289
v -240.649994 -2.791873 304.308289
v -240.649994 -7.489218 301.289490
v -240.649994 -9.808790 296.210297
v -240.649994 -9.014141 290.683411
v -240.649994 -5.357564 286.463501
v -234.949997 5.357564 286.463501
v -234.949997 0.000000 284.890411
v -234.949997 -5.357564 286.463501
v -234.949997 -9.014141 290.683411
v -234.949997 -9.808790 296.210297
v -234.949997 -7.489218 301.289490
v -234.949997 -2.791873 304.308289
v -234.949997 2.791873 304.308289
v -234.949997 7.489218 301.289490
v -234.949997 9.808790 296.210297
v -234.949997 9.014141 290.683411
v -231.000000 6.506124 282.403595
v -231.000000 0.000000 280.799988
v -231.000000 -6.506124 282.403595
v -231.000000 11.521780 286.847107
v -231.000000 13.897920 293.112488
v -231.000000 13.090230 299.764496
v -231.000000 9.283718 305.279205
v -231.000000 3.350419 308.393188
v -231.000000 -3.350419 308.393188
v -231.000000 -9.283718 305.279205
v -231.000000 -13.090230 299.764496
v -231.000000 -13.897920 293.112488
v -231.000000 -11.521780 286.847107
v -229.000000 6.506124 282.403595
v -229.000000 0.000000 280.799988
v -229.000000 -6.506124 282.403595
v -229.000000 -11.521780 286.847107
v -229.000000 -13.897920 293.112488
v -229.000000 -13.090230 299.764496
v -229.000000 -9.283718 305.279205
v -229.000000 -3.350419 308.393188
v -229.000000 3.350419 308.393188
v -229.000000 9.283718 305.279205
v -229.000000 13.090230 299.764496
v -229.000000 13.897920 293.112488
v -229.000000 11.521780 286.847107
v 240.649994 0.000000 284.890411
v 240.649994 -5.357564 286.463501
v 240.649994 -9.014141 290.683411
v 240.649994 -9.808790 296.210297
v 240.649994 -7.489218 301.289490
v 240.649994 -2.791873 304.308289
v 240.649994 2.791873 304.308289
v 240.649994 7.489218 301.289490
v 240.649994 9.808790 296.210297
v 240.649994 9.014141 290.683411
v 240.649994 5.357564 286.463501
v 234.949997 -5.357564 286.463501
v 234.949997 0.000000 284.890411
v 234.949997 5.357564 286.463501
v 234.949997 9.014141 290.683411
v 234.949997 9.808790 296.210297
v 234.949997 7.489218 301.289490
v 234.949997 2.791873 304.308289
v 234.949997 -2.791873 304.308289
v 234.949997 -7.489218 301.289490
v 234.949997 -9.808790 296.210297
v 234.949997 -9.014141 290.683411
v 231.000000 -6.506124 282.403595
v 231.000000 0.000000 280.799988
v 231.000000 6.506124 282.403595
v 231.000000 -11.521780 286.847107
v 231.000000 -13.897920 293.112488
v 231.000000 -13.090230 299.764496
v 231.000000 -9.283718 305.279205
v 231.000000 -3.350419 308.393188
v 231.000000 3.350419 308.393188
v 231.000000 9.283718 305.279205
v 231.000000 13.090230 299.764496
v 231.000000 13.897920 293.112488
v 231.000000 11.521780 286.847107
v 229.000000 -6.506124 282.403595
v 229.000000 0.000000 280.799988
v 229.000000 6.506124 282.403595
v 229.000000 11.521780 286.847107
v 229.000000 13.897920 293.112488
v 229.000000 13.090230 299.764496
v 229.000000 9.283718 305.279205
v 229.000000 3.350419 308.393188
v 229.000000 -3.350419 308.393188
v 229.000000 -9.283718 305.279205
v 229.000000 -13.090230 299.764496
v 229.000000 -13.897920 293.112488
v 229.000000 -11.521780 286.847107
vn -0.0000 0.2817 -0.9595
vn -0.0000 -0.2817 -0.9595
vn -0.0000 -0.7558 -0.6549
vn -0.0000 -0.7557 -0.6549
vn -0.0000 -0.9898 -0.1423
vn -0.0000 -0.9096 0.4154
vn -0.0000 -0.5406 0.8413
vn -0.0000 -0.0000 1.0000
vn -0.0000 0.5406 0.8413
vn -0.0000 0.9096 0.4154
vn -0.0000 0.9898 -0.1423
vn -0.0000 0.7558 -0.6549
vn -0.0000 0.7557 -0.6549
vn -0.7300 0.1925 -0.6558
vn -0.7090 0.1688 -0.6847
vn -0.7090 -0.1688 -0.6847
vn -0.6933 0.4779 -0.5394
vn -0.7447 0.5044 -0.4371
vn -0.6841 0.6820 -0.2586
vn -0.7507 0.6539 -0.0940
vn -0.6822 0.7258 0.0881
vn -0.7487 0.6030 0.2754
vn -0.6879 0.5974 0.4123
vn -0.7385 0.3645 0.5672
vn -0.7004 0.3317 0.6320
vn -0.7189 -0.0000 0.6951
vn -0.7004 -0.3317 0.6320
vn -0.7385 -0.3645 0.5672
vn -0.6879 -0.5974 0.4123
vn -0.7487 -0.6030 0.2754
vn -0.6822 -0.7258 0.0881
vn -0.7507 -0.6539 -0.0940
vn -0.6841 -0.6820 -0.2586
vn -0.7447 -0.5044 -0.4371
vn -0.6933 -0.4779 -0.5394
vn -0.7300 -0.1925 -0.6558
vn -0.0000 0.2393 -0.9709
vn -0.0000 -0.2393 -0.9709
vn -0.0000 -0.6631 -0.7485
vn -0.0000 -0.9350 -0.3546
vn -0.0000 -0.9927 0.1205
vn -0.0000 -0.8230 0.5681
vn -0.0000 -0.4647 0.8855
vn -0.0000 0.4647 0.8855
vn -0.0000 0.8230 0.5681
vn -0.0000 0.9927 0.1205
vn -0.0000 0.9350 -0.3546
vn -0.0000 0.6631 -0.7485
vn 0.7300 -0.1925 -0.6558
vn 0.7090 -0.1688 -0.6847
vn 0.7090 0.1688 -0.6847
vn 0.6933 -0.4779 -0.5394
vn 0.7447 -0.5044 -0.4371
vn 0.6841 -0.6820 -0.2586
vn 0.7507 -0.6539 -0.0940
vn 0.6822 -0.7258 0.0881
vn 0.7487 -0.6030 0.2754
vn 0.6879 -0.5974 0.4123
vn 0.7385 -0.3645 0.5672
vn 0.7004 -0.3317 0.6320
vn 0.7189 -0.0000 0.6951
vn 0.7004 0.3317 0.6320
vn 0.7385 0.3645 0.5672
vn 0.6879 0.5974 0.4123
vn 0.7487 0.6030 0.2754
vn 0.6822 0.7258 0.0881
vn 0.7507 0.6539 -0.0940
vn 0.6841 0.6820 -0.2586
vn 0.7447 0.5044 -0.4371
vn 0.6933 0.4779 -0.5394
vn 0.7300 0.1925 -0.6558
s 0
f 2//1 12//1 1//1
f 1//1 12//1 13//1
f 1//2 13//2 11//2
f 11//2 13//2 14//2
f 11//3 14//3 10//3
f 10//4 14//4 15//4
f 10//5 15//5 9//5
f 9//5 15//5 16//5
f 9//6 16//6 8//6
f 8//6 16//6 17//6
f 8//7 17//7 7//7
f 7//7 17//7 18//7
f 7//8 18//8 6//8
f 6//8 18//8 19//8
f 6//9 19//9 5//9
f 5//9 19//9 20//9
f 5//10 20//10 4//10
f 4//10 20//10 21//10
f 4//11 21//11 3//11
f 3//11 21//11 22//11
f 3//12 22//12 2//12
f 2//13 22//13 12//13
f 12//14 23//14 13//14
f 13//15 23//15 24//15
f 13//16 24//16 25//16
f 23//17 12//17 26//17
f 26//18 12//18 22//18
f 26//19 22//19 27//19
f 27//20 22//20 21//20
f 27//21 21//21 28//21
f 28//22 21//22 20//22
f 28//23 20//23 29//23
f 29//24 20//24 19//24
f 29//25 19//25 30//25
f 30//26 19//26 18//26
f 30//26 18//26 31//26
f 31//27 18//27 32//27
f 32//28 18//28 17//28
f 32//29 17//29 33//29
f 33//30 17//30 16//30
f 33//31 16//31 34//31
f 34//32 16//32 15//32
f 34//33 15//33 35//33
f 35//34 15//34 14//34
f 35//35 14//35 25//35
f 25//36 14//36 13//36
f 23//37 36//37 24//37
f 24//37 36//37 37//37
f 24//38 37//38 25//38
f 25//38 37//38 38//38
f 25//39 38//39 35//39
f 35//39 38//39 39//39
f 35//40 39//40 34//40
f 34//40 39//40 40//40
f 34//41 40//41 33//41
f 33//41 40//41 41//41
f 33//42 41//42 32//42
f 32//42 41//42 42//42
f 32//43 42//43 31//43
f 31//43 42//43 43//43
f 31//8 43//8 30//8
f 30//8 43//8 44//8
f 30//44 44//44 29//44
f 29//44 44//44 45//44
f 29//45 45//45 28//45
f 28//45 45//45 46//45
f 28//46 46//46 27//46
f 27//46 46//46 47//46
f 27//47 47//47 26//47
f 26//47 47//47 48//47
f 26//48 48//48 23//48
f 23//48 48//48 36//48
f 50//2 60//2 49//2
f 49//2 60//2 61//2
f 49//1 61//1 59//1
f 59//1 61//1 62//1
f 59//12 62//12 58//12
f 58//13 62//13 63//13
f 58//11 63//11 57//11
f 57//11 63//11 64//11
f 57//10 64//10 56//10
f 56//10 64//10 65//10
f 56//9 65//9 55//9
f 55//9 65//9 66//9
f 55//8 66//8 54//8
f 54//8 66//8 67//8
f 54//7 67//7 53//7
f 53//7 67//7 68//7
f 53//6 68//6 52//6
f 52//6 68//6 69//6
f 52//5 69//5 51//5
f 51//5 69//5 70//5
f 51//3 70//3 50//3
f 50//4 70//4 60//4
f 60//49 71//49 61//49
f 61//50 71//50 72//50
f 61//51 72//51 73//51
f 71//52 60//52 74//52
f 74//53 60//53 70//53
f 74//54 70//54 75//54
f 75//55 70//55 69//55
f 75//56 69//56 76//56
f 76//57 69//57 68//57
f 76//58 68//58 77//58
f 77//59 68//59 67//59
f 77//60 67//60 78//60
f 78//61 67//61 66//61
f 78//61 66//61 79//61
f 79//62 66//62 80//62
f 80//63 66//63 65//63
f 80//64 65//64 81//64
f 81//65 65//65 64//65
f 81//66 64//66 82//66
f 82//67 64//67 63//67
f 82//68 63//68 83//68
f 83//69 63//69 62//69
f 83//70 62//70 73//70
f 73//71 62//71 61//71
f 71//38 84//38 72//38
f 72//38 84//38 85//38
f 72//37 85//37 73//37
f 73//37 85//37 86//37
f 73//48 86//48 83//48
f 83//48 86//48 87//48
f 83//47 87//47 82//47
f 82//47 87//47 88//47
f 82//46 88//46 81//46
f 81//46 88//46 89//46
f 81//45 89//45 80//45
f 80//45 89//45 90//45
f 80//44 90//44 79//44
f 79//44 90//44 91//44
f 79//8 91//8 78//8
f 78//8 91//8 92//8
f 78//43 92//43 77//43
f 77//43 92//43 93//43
f 77//42 93//42 76//42
f 76//42 93//42 94//42
f 76//41 94//41 75//41
f 75//41 94//41 95//41
f 75//40 95//40 74//40
f 74//40 95//40 96//40
f 74//39 96//39 71//39
f 71//39 96//39 84//39
