# Blender 4.0.2
# www.blender.org
o MPO-700-BODY__m3
v -252.649994 0.000000 282.038696
v -252.649994 -5.930493 283.500397
v -252.649994 5.930493 283.500397
v -252.649994 -10.502380 287.550690
v -252.649994 10.502380 287.550690
v -252.649994 -12.668300 293.261810
v -252.649994 12.668300 293.261810
v -252.649994 -11.932070 299.325195
v -252.649994 11.932070 299.325195
v -252.649994 -8.462339 304.351990
v -252.649994 8.462339 304.351990
v -252.649994 -3.053990 307.190491
v -252.649994 3.053990 307.190491
v -240.649994 -5.625000 285.057190
v -249.966003 -6.352376 281.609192
v -240.649994 0.000000 283.549988
v -249.966003 0.000000 280.159302
v -249.966003 6.352376 281.609192
v -249.966003 -11.446590 285.671692
v -240.649994 -9.742787 289.174988
v -249.966003 -14.273660 291.542206
v -240.649994 -11.250000 294.799988
v -249.966003 -14.273660 298.057892
v -240.649994 -9.742787 300.424988
v -249.966003 -11.446590 303.928406
v -240.649994 -5.625000 304.542786
v -249.966003 -6.352376 307.990906
v -240.649994 0.000000 306.049988
v -249.966003 0.000000 309.440704
v -249.966003 6.352376 307.990906
v -240.649994 5.625000 304.542786
v -249.966003 11.446590 303.928406
v -240.649994 9.742787 300.424988
v -249.966003 14.273660 298.057892
v -240.649994 11.250000 294.799988
v -249.966003 14.273660 291.542206
v -240.649994 9.742787 289.174988
v -249.966003 11.446590 285.671692
v -240.649994 5.625000 285.057190
v -252.382004 5.970824 282.401489
v -252.382004 0.000000 281.038605
v -252.382004 -5.970824 282.401489
v -251.334000 0.000000 280.159302
v -251.334000 -6.352376 281.609192
v -252.382004 10.759050 286.220001
v -252.382004 13.416320 291.737793
v -252.382004 13.416320 297.862213
v -252.382004 10.759050 303.380096
v -252.382004 5.970824 307.198608
v -252.382004 0.000000 308.561401
v -252.382004 -5.970824 307.198608
v -252.382004 -10.759050 303.380096
v -252.382004 -13.416320 297.862213
v -252.382004 -13.416320 291.737793
v -252.382004 -10.759050 286.220001
v -251.334000 -11.446590 285.671692
v -251.334000 -14.273660 291.542206
v -251.334000 -14.273660 298.057892
v -251.334000 -11.446590 303.928406
v -251.334000 -6.352376 307.990906
v -251.334000 0.000000 309.440704
v -251.334000 6.352376 307.990906
v -251.334000 11.446590 303.928406
v -251.334000 14.273660 298.057892
v -251.334000 14.273660 291.542206
v -251.334000 11.446590 285.671692
v -251.334000 6.352376 281.609192
v -240.649994 0.000000 284.890411
v -240.649994 5.357564 286.463501
v -240.649994 9.014141 290.683411
v -240.649994 9.808790 296.210297
v -240.649994 7.489218 301.289490
v -240.649994 2.791873 304.308289
v -240.649994 -2.791873 304.308289
v -240.649994 -7.489218 301.289490
v -240.649994 -9.808790 296.210297
v -240.649994 -9.014141 290.683411
v -240.649994 -5.357564 286.463501
v 252.649994 -5.930493 283.500397
v 252.382004 -5.970824 282.401489
v 252.649994 0.000000 282.038696
v 252.382004 0.000000 281.038605
v 252.382004 5.970824 282.401489
v 251.334000 0.000000 280.159302
v 251.334000 6.352376 281.609192
v 249.966003 0.000000 280.159302
v 249.966003 6.352376 281.609192
v 252.382004 -10.759050 286.220001
v 252.649994 -10.502380 287.550690
v 252.382004 -13.416320 291.737793
v 252.649994 -12.668300 293.261810
v 252.382004 -13.416320 297.862213
v 252.649994 -11.932070 299.325195
v 252.382004 -10.759050 303.380096
v 252.649994 -8.462339 304.351990
v 252.382004 -5.970824 307.198608
v 252.649994 -3.053990 307.190491
v 252.382004 0.000000 308.561401
v 252.649994 3.053990 307.190491
v 252.382004 5.970824 307.198608
v 252.649994 8.462339 304.351990
v 252.382004 10.759050 303.380096
v 252.649994 11.932070 299.325195
v 252.382004 13.416320 297.862213
v 252.649994 12.668300 293.261810
v 252.382004 13.416320 291.737793
v 252.649994 10.502380 287.550690
v 252.382004 10.759050 286.220001
v 252.649994 5.930493 283.500397
v 251.334000 11.446590 285.671692
v 249.966003 11.446590 285.671692
v 251.334000 14.273660 291.542206
v 249.966003 14.273660 291.542206
v 251.334000 14.273660 298.057892
v 249.966003 14.273660 298.057892
v 251.334000 11.446590 303.928406
v 249.966003 11.446590 303.928406
v 251.334000 6.352376 307.990906
v 249.966003 6.352376 307.990906
v 251.334000 0.000000 309.440704
v 249.966003 0.000000 309.440704
v 251.334000 -6.352376 307.990906
v 249.966003 -6.352376 307.990906
v 251.334000 -11.446590 303.928406
v 249.966003 -11.446590 303.928406
v 251.334000 -14.273660 298.057892
v 249.966003 -14.273660 298.057892
v 251.334000 -14.273660 291.542206
v 249.966003 -14.273660 291.542206
v 251.334000 -11.446590 285.671692
v 249.966003 -11.446590 285.671692
v 251.334000 -6.352376 281.609192
v 249.966003 -6.352376 281.609192
v 240.649994 5.625000 285.057190
v 240.649994 0.000000 283.549988
v 240.649994 9.742787 289.174988
v 240.649994 11.250000 294.799988
v 240.649994 9.742787 300.424988
v 240.649994 5.625000 304.542786
v 240.649994 0.000000 306.049988
v 240.649994 -5.625000 304.542786
v 240.649994 -9.742787 300.424988
v 240.649994 -11.250000 294.799988
v 240.649994 -9.742787 289.174988
v 240.649994 -5.625000 285.057190
v 240.649994 0.000000 284.890411
v 240.649994 -5.357564 286.463501
v 240.649994 -9.014141 290.683411
v 240.649994 -9.808790 296.210297
v 240.649994 -7.489218 301.289490
v 240.649994 -2.791873 304.308289
v 240.649994 2.791873 304.308289
v 240.649994 7.489218 301.289490
v 240.649994 9.808790 296.210297
v 240.649994 9.014141 290.683411
v 240.649994 5.357564 286.463501
vn -1.0000 -0.0000 -0.0000
vn 0.3533 -0.2421 -0.9036
vn 0.3344 -0.2097 -0.9188
vn 0.3344 0.2097 -0.9188
vn 0.3202 -0.5907 -0.7407
vn 0.3676 -0.6576 -0.6576
vn 0.3116 -0.8561 -0.4123
vn 0.3746 -0.8956 -0.2400
vn 0.3087 -0.9512 -0.0000
vn 0.3746 -0.8956 0.2400
vn 0.3116 -0.8561 0.4123
vn 0.3676 -0.6576 0.6576
vn 0.3203 -0.5907 0.7407
vn 0.3534 -0.2421 0.9036
vn 0.3344 -0.2097 0.9188
vn 0.3344 0.2097 0.9188
vn 0.3534 0.2421 0.9036
vn 0.3203 0.5907 0.7407
vn 0.3676 0.6576 0.6576
vn 0.3116 0.8561 0.4123
vn 0.3746 0.8956 0.2400
vn 0.3087 0.9512 -0.0000
vn 0.3746 0.8956 -0.2400
vn 0.3116 0.8561 -0.4123
vn 0.3676 0.6576 -0.6576
vn 0.3202 0.5907 -0.7407
vn 0.3533 0.2421 -0.9036
vn -0.9704 0.0578 -0.2345
vn -0.9642 0.0590 -0.2584
vn -0.9642 -0.0590 -0.2584
vn -0.6331 -0.1722 -0.7546
vn -0.6332 -0.1722 -0.7546
vn -0.0000 -0.2225 -0.9749
vn -0.9570 0.1808 -0.2267
vn -0.9746 0.1485 -0.1676
vn -0.9492 0.2834 -0.1365
vn -0.9774 0.1975 -0.0749
vn -0.9414 0.3372 -0.0000
vn -0.9793 0.2009 0.0244
vn -0.9343 0.3211 0.1547
vn -0.9805 0.1616 0.1116
vn -0.9289 0.2309 0.2895
vn -0.9812 0.0897 0.1709
vn -0.9259 0.0840 0.3682
vn -0.9814 -0.0000 0.1919
vn -0.9259 -0.0840 0.3682
vn -0.9812 -0.0897 0.1709
vn -0.9289 -0.2309 0.2896
vn -0.9805 -0.1616 0.1116
vn -0.9343 -0.3211 0.1547
vn -0.9793 -0.2009 0.0244
vn -0.9414 -0.3372 -0.0000
vn -0.9774 -0.1975 -0.0749
vn -0.9492 -0.2834 -0.1365
vn -0.9746 -0.1485 -0.1676
vn -0.9570 -0.1808 -0.2267
vn -0.9704 -0.0578 -0.2345
vn -0.0000 -0.6235 -0.7818
vn -0.0000 -0.9010 -0.4339
vn -0.0000 -1.0000 -0.0000
vn -0.0000 -0.9010 0.4339
vn -0.0000 -0.6235 0.7818
vn -0.0000 -0.2225 0.9749
vn -0.0000 0.2225 0.9749
vn -0.0000 0.6235 0.7818
vn -0.0000 0.9010 0.4339
vn -0.0000 1.0000 -0.0000
vn -0.0000 0.9010 -0.4339
vn -0.0000 0.6235 -0.7818
vn -0.0000 0.2225 -0.9749
vn -0.6332 0.1722 -0.7546
vn -0.6332 0.1723 -0.7546
vn -0.6332 0.4826 -0.6051
vn -0.6332 0.6973 -0.3358
vn -0.6332 0.7740 -0.0000
vn -0.6332 0.6974 -0.3358
vn -0.6332 0.6974 0.3358
vn -0.6332 0.4826 0.6051
vn -0.6332 0.6973 0.3358
vn -0.6332 0.1722 0.7546
vn -0.6332 -0.1722 0.7546
vn -0.6331 0.1722 0.7546
vn -0.6332 -0.4826 0.6051
vn -0.6332 -0.6973 0.3358
vn -0.6332 -0.7740 -0.0000
vn -0.6332 -0.6974 0.3358
vn -0.6332 -0.6974 -0.3358
vn -0.6332 -0.4826 -0.6051
vn -0.6332 -0.6973 -0.3358
vn 1.0000 -0.0000 -0.0000
vn 0.9704 -0.0578 -0.2345
vn 0.9642 -0.0590 -0.2584
vn 0.9642 0.0590 -0.2584
vn 0.6331 0.1722 -0.7546
vn 0.6332 0.1722 -0.7546
vn 0.9570 -0.1808 -0.2267
vn 0.9746 -0.1485 -0.1676
vn 0.9492 -0.2834 -0.1365
vn 0.9774 -0.1975 -0.0749
vn 0.9414 -0.3372 -0.0000
vn 0.9793 -0.2009 0.0244
vn 0.9343 -0.3211 0.1547
vn 0.9805 -0.1616 0.1116
vn 0.9289 -0.2309 0.2895
vn 0.9812 -0.0897 0.1709
vn 0.9259 -0.0840 0.3682
vn 0.9814 -0.0000 0.1919
vn 0.9259 0.0840 0.3682
vn 0.9812 0.0897 0.1709
vn 0.9289 0.2309 0.2896
vn 0.9805 0.1616 0.1116
vn 0.9343 0.3211 0.1547
vn 0.9793 0.2009 0.0244
vn 0.9414 0.3372 -0.0000
vn 0.9774 0.1975 -0.0749
vn 0.9492 0.2834 -0.1365
vn 0.9746 0.1485 -0.1676
vn 0.9570 0.1808 -0.2267
vn 0.9704 0.0578 -0.2345
vn 0.6332 -0.1722 -0.7546
vn 0.6332 -0.1723 -0.7546
vn 0.6332 -0.4826 -0.6051
vn 0.6332 -0.6973 -0.3358
vn 0.6332 -0.7740 -0.0000
vn 0.6332 -0.6974 -0.3358
vn 0.6332 -0.6974 0.3358
vn 0.6332 -0.4826 0.6051
vn 0.6332 -0.6973 0.3358
vn 0.6332 -0.1722 0.7546
vn 0.6332 0.1722 0.7546
vn 0.6331 -0.1722 0.7546
vn 0.6332 0.4826 0.6051
vn 0.6332 0.6973 0.3358
vn 0.6332 0.7740 -0.0000
vn 0.6332 0.6974 0.3358
vn 0.6332 0.6974 -0.3358
vn 0.6332 0.4826 -0.6051
vn 0.6332 0.6973 -0.3358
vn -0.3533 0.2421 -0.9036
vn -0.3344 0.2097 -0.9188
vn -0.3344 -0.2097 -0.9188
vn -0.3202 0.5907 -0.7407
vn -0.3676 0.6576 -0.6576
vn -0.3116 0.8561 -0.4123
vn -0.3746 0.8956 -0.2400
vn -0.3087 0.9512 -0.0000
vn -0.3746 0.8956 0.2400
vn -0.3116 0.8561 0.4123
vn -0.3676 0.6576 0.6576
vn -0.3203 0.5907 0.7407
vn -0.3534 0.2421 0.9036
vn -0.3344 0.2097 0.9188
vn -0.3344 -0.2097 0.9188
vn -0.3534 -0.2421 0.9036
vn -0.3203 -0.5907 0.7407
vn -0.3676 -0.6576 0.6576
vn -0.3116 -0.8561 0.4123
vn -0.3746 -0.8956 0.2400
vn -0.3087 -0.9512 -0.0000
vn -0.3746 -0.8956 -0.2400
vn -0.3116 -0.8561 -0.4123
vn -0.3676 -0.6576 -0.6576
vn -0.3202 -0.5907 -0.7407
vn -0.3533 -0.2421 -0.9036
s 0
f 1//1 2//1 3//1
f 3//1 2//1 4//1
f 3//1 4//1 5//1
f 5//1 4//1 6//1
f 5//1 6//1 7//1
f 7//1 6//1 8//1
f 7//1 8//1 9//1
f 9//1 8//1 10//1
f 9//1 10//1 11//1
f 11//1 10//1 12//1
f 11//1 12//1 13//1
f 14//2 15//2 16//2
f 16//3 15//3 17//3
f 16//4 17//4 18//4
f 15//5 14//5 19//5
f 19//6 14//6 20//6
f 19//7 20//7 21//7
f 21//8 20//8 22//8
f 21//9 22//9 23//9
f 23//10 22//10 24//10
f 23//11 24//11 25//11
f 25//12 24//12 26//12
f 25//13 26//13 27//13
f 27//14 26//14 28//14
f 27//15 28//15 29//15
f 29//16 28//16 30//16
f 30//17 28//17 31//17
f 30//18 31//18 32//18
f 32//19 31//19 33//19
f 32//20 33//20 34//20
f 34//21 33//21 35//21
f 34//22 35//22 36//22
f 36//23 35//23 37//23
f 36//24 37//24 38//24
f 38//25 37//25 39//25
f 38//26 39//26 18//26
f 18//27 39//27 16//27
f 3//28 40//28 1//28
f 1//29 40//29 41//29
f 1//30 41//30 42//30
f 42//31 41//31 43//31
f 42//32 43//32 44//32
f 44//33 43//33 17//33
f 44//33 17//33 15//33
f 40//34 3//34 45//34
f 45//35 3//35 5//35
f 45//36 5//36 46//36
f 46//37 5//37 7//37
f 46//38 7//38 47//38
f 47//39 7//39 9//39
f 47//40 9//40 48//40
f 48//41 9//41 11//41
f 48//42 11//42 49//42
f 49//43 11//43 13//43
f 49//44 13//44 50//44
f 50//45 13//45 12//45
f 50//46 12//46 51//46
f 51//47 12//47 10//47
f 51//48 10//48 52//48
f 52//49 10//49 8//49
f 52//50 8//50 53//50
f 53//51 8//51 6//51
f 53//52 6//52 54//52
f 54//53 6//53 4//53
f 54//54 4//54 55//54
f 55//55 4//55 2//55
f 55//56 2//56 42//56
f 42//57 2//57 1//57
f 44//58 15//58 56//58
f 56//58 15//58 19//58
f 56//59 19//59 57//59
f 57//59 19//59 21//59
f 57//60 21//60 58//60
f 58//60 21//60 23//60
f 58//61 23//61 59//61
f 59//61 23//61 25//61
f 59//62 25//62 60//62
f 60//62 25//62 27//62
f 60//63 27//63 61//63
f 61//63 27//63 29//63
f 61//64 29//64 62//64
f 62//64 29//64 30//64
f 62//65 30//65 63//65
f 63//65 30//65 32//65
f 63//66 32//66 64//66
f 64//66 32//66 34//66
f 64//67 34//67 65//67
f 65//67 34//67 36//67
f 65//68 36//68 66//68
f 66//68 36//68 38//68
f 66//69 38//69 67//69
f 67//69 38//69 18//69
f 67//70 18//70 43//70
f 43//70 18//70 17//70
f 67//71 43//71 41//71
f 67//72 41//72 40//72
f 66//73 67//73 40//73
f 65//74 66//74 45//74
f 45//73 66//73 40//73
f 64//75 65//75 46//75
f 46//76 65//76 45//76
f 63//77 64//77 47//77
f 47//75 64//75 46//75
f 62//78 63//78 48//78
f 48//79 63//79 47//79
f 61//80 62//80 49//80
f 49//78 62//78 48//78
f 60//81 61//81 50//81
f 50//82 61//82 49//82
f 59//83 60//83 51//83
f 51//81 60//81 50//81
f 58//84 59//84 52//84
f 52//83 59//83 51//83
f 57//85 58//85 53//85
f 53//86 58//86 52//86
f 56//87 57//87 54//87
f 54//85 57//85 53//85
f 44//88 56//88 55//88
f 55//89 56//89 54//89
f 42//88 44//88 55//88
f 14//90 16//90 68//90
f 68//90 16//90 39//90
f 68//90 39//90 69//90
f 69//90 39//90 37//90
f 69//90 37//90 70//90
f 70//90 37//90 35//90
f 70//90 35//90 71//90
f 71//90 35//90 33//90
f 71//90 33//90 72//90
f 72//90 33//90 31//90
f 72//90 31//90 73//90
f 73//90 31//90 28//90
f 73//90 28//90 74//90
f 74//90 28//90 26//90
f 74//90 26//90 75//90
f 75//90 26//90 24//90
f 75//90 24//90 76//90
f 76//90 24//90 22//90
f 76//90 22//90 77//90
f 77//90 22//90 20//90
f 77//90 20//90 78//90
f 78//90 20//90 14//90
f 78//90 14//90 68//90
f 79//91 80//91 81//91
f 81//92 80//92 82//92
f 81//93 82//93 83//93
f 83//94 82//94 84//94
f 83//95 84//95 85//95
f 85//70 84//70 86//70
f 85//70 86//70 87//70
f 80//96 79//96 88//96
f 88//97 79//97 89//97
f 88//98 89//98 90//98
f 90//99 89//99 91//99
f 90//100 91//100 92//100
f 92//101 91//101 93//101
f 92//102 93//102 94//102
f 94//103 93//103 95//103
f 94//104 95//104 96//104
f 96//105 95//105 97//105
f 96//106 97//106 98//106
f 98//107 97//107 99//107
f 98//108 99//108 100//108
f 100//109 99//109 101//109
f 100//110 101//110 102//110
f 102//111 101//111 103//111
f 102//112 103//112 104//112
f 104//113 103//113 105//113
f 104//114 105//114 106//114
f 106//115 105//115 107//115
f 106//116 107//116 108//116
f 108//117 107//117 109//117
f 108//118 109//118 83//118
f 83//119 109//119 81//119
f 85//69 87//69 110//69
f 110//69 87//69 111//69
f 110//68 111//68 112//68
f 112//68 111//68 113//68
f 112//67 113//67 114//67
f 114//67 113//67 115//67
f 114//66 115//66 116//66
f 116//66 115//66 117//66
f 116//65 117//65 118//65
f 118//65 117//65 119//65
f 118//64 119//64 120//64
f 120//64 119//64 121//64
f 120//63 121//63 122//63
f 122//63 121//63 123//63
f 122//62 123//62 124//62
f 124//62 123//62 125//62
f 124//61 125//61 126//61
f 126//61 125//61 127//61
f 126//60 127//60 128//60
f 128//60 127//60 129//60
f 128//59 129//59 130//59
f 130//59 129//59 131//59
f 130//58 131//58 132//58
f 132//58 131//58 133//58
f 132//33 133//33 84//33
f 84//33 133//33 86//33
f 132//120 84//120 82//120
f 132//121 82//121 80//121
f 130//122 132//122 80//122
f 128//123 130//123 88//123
f 88//122 130//122 80//122
f 126//124 128//124 90//124
f 90//125 128//125 88//125
f 124//126 126//126 92//126
f 92//124 126//124 90//124
f 122//127 124//127 94//127
f 94//128 124//128 92//128
f 120//129 122//129 96//129
f 96//127 122//127 94//127
f 118//130 120//130 98//130
f 98//131 120//131 96//131
f 116//132 118//132 100//132
f 100//130 118//130 98//130
f 114//133 116//133 102//133
f 102//132 116//132 100//132
f 112//134 114//134 104//134
f 104//135 114//135 102//135
f 110//136 112//136 106//136
f 106//134 112//134 104//134
f 85//137 110//137 108//137
f 108//138 110//138 106//138
f 83//137 85//137 108//137
f 134//139 87//139 135//139
f 135//140 87//140 86//140
f 135//141 86//141 133//141
f 87//142 134//142 111//142
f 111//143 134//143 136//143
f 111//144 136//144 113//144
f 113//145 136//145 137//145
f 113//146 137//146 115//146
f 115//147 137//147 138//147
f 115//148 138//148 117//148
f 117//149 138//149 139//149
f 117//150 139//150 119//150
f 119//151 139//151 140//151
f 119//152 140//152 121//152
f 121//153 140//153 123//153
f 123//154 140//154 141//154
f 123//155 141//155 125//155
f 125//156 141//156 142//156
f 125//157 142//157 127//157
f 127//158 142//158 143//158
f 127//159 143//159 129//159
f 129//160 143//160 144//160
f 129//161 144//161 131//161
f 131//162 144//162 145//162
f 131//163 145//163 133//163
f 133//164 145//164 135//164
f 81//90 109//90 79//90
f 79//90 109//90 89//90
f 89//90 109//90 107//90
f 89//90 107//90 91//90
f 91//90 107//90 105//90
f 91//90 105//90 93//90
f 93//90 105//90 103//90
f 93//90 103//90 95//90
f 95//90 103//90 101//90
f 95//90 101//90 97//90
f 97//90 101//90 99//90
f 134//1 135//1 146//1
f 146//1 135//1 145//1
f 146//1 145//1 147//1
f 147//1 145//1 144//1
f 147//1 144//1 148//1
f 148//1 144//1 143//1
f 148//1 143//1 149//1
f 149//1 143//1 142//1
f 149//1 142//1 150//1
f 150//1 142//1 141//1
f 150//1 141//1 151//1
f 151//1 141//1 140//1
f 151//1 140//1 152//1
f 152//1 140//1 139//1
f 152//1 139//1 153//1
f 153//1 139//1 138//1
f 153//1 138//1 154//1
f 154//1 138//1 137//1
f 154//1 137//1 155//1
f 155//1 137//1 136//1
f 155//1 136//1 156//1
f 156//1 136//1 134//1
f 156//1 134//1 146//1
