# Blender 4.0.2
# www.blender.org
o MPO-700-BODY__m1
v 68.814362 273.358887 346.799988
v 68.814362 285.641113 346.799988
v 66.750000 273.358887 346.799988
v 66.096542 277.354004 346.799988
v 56.324261 281.512390 346.799988
v 55.700500 285.641113 346.799988
v 53.621288 273.358887 346.799988
v 53.621288 285.641113 346.799988
v 66.096542 285.641113 346.799988
v 56.324261 273.358887 346.799988
v 48.126240 285.641113 346.799988
v 45.111389 280.324310 346.799988
v 48.126240 273.358887 346.799988
v 45.111389 278.215393 346.799988
v 45.111389 275.527191 346.799988
v 45.111389 283.339111 346.799988
v 34.804451 285.641113 346.799988
v 34.804451 283.339111 346.799988
v 39.200500 280.324310 346.799988
v 39.200500 278.215393 346.799988
v 34.967819 275.527191 346.799988
v 34.967819 273.358887 346.799988
v 27.764851 283.279694 346.799988
v 18.066830 285.641113 346.799988
v 17.873760 283.279694 346.799988
v 16.498140 285.488892 346.799988
v 16.479580 273.511108 346.799988
v 15.534650 285.032196 346.799988
v 15.519800 273.967804 346.799988
v 15.035270 274.844086 346.799988
v 15.038990 284.152191 346.799988
v 14.873760 276.255005 346.799988
v 14.873760 282.730194 346.799988
v 27.764851 275.616302 346.799988
v 29.149750 273.511108 346.799988
v 29.149750 285.488892 346.799988
v 27.571779 285.641113 346.799988
v 27.571779 273.358887 346.799988
v 17.873760 275.616302 346.799988
v 18.066830 273.358887 346.799988
v 30.111389 285.032196 346.799988
v 30.111389 273.967804 346.799988
v 30.601490 284.152191 346.799988
v 30.601490 274.844086 346.799988
v 30.764860 282.730194 346.799988
v 30.764860 276.255005 346.799988
v 0.051982 275.363892 346.799988
v -1.329206 273.358887 346.799988
v 6.750002 275.363892 346.799988
v 9.705448 273.358887 346.799988
v 6.750002 278.259888 346.799988
v 6.750002 280.294586 346.799988
v 0.051982 280.294586 346.799988
v -0.618191 275.412109 346.799988
v -1.024751 275.556885 346.799988
v -1.230815 275.820496 346.799988
v -1.299503 276.225311 346.799988
v -1.418315 281.393585 346.799988
v -2.146038 279.314392 346.799988
v -1.418315 282.329193 346.799988
v -2.186880 285.490692 346.799988
v -1.342201 282.856415 346.799988
v -1.113860 283.190613 346.799988
v -1.299503 277.383698 346.799988
v -1.342201 280.875702 346.799988
v -1.228959 277.790192 346.799988
v -1.113860 280.539612 346.799988
v -1.017325 278.059387 346.799988
v -0.670172 280.355804 346.799988
v -0.608909 278.209808 346.799988
v 0.051982 278.259888 346.799988
v -0.512375 285.641113 346.799988
v -0.670172 283.368805 346.799988
v 0.051982 283.428192 346.799988
v 6.750002 283.428192 346.799988
v 9.705448 285.641113 346.799988
v -3.068686 279.592804 346.799988
v -3.378711 285.039612 346.799988
v -3.757424 280.101501 346.799988
v -4.091583 284.287811 346.799988
v -4.186261 280.803192 346.799988
v -4.329206 283.235107 346.799988
v -4.329206 281.660889 346.799988
v -2.658414 273.500000 346.799988
v -3.038983 279.035889 346.799988
v -3.556929 273.923309 346.799988
v -3.698018 278.586700 346.799988
v -4.069305 274.662201 346.799988
v -4.104578 277.977692 346.799988
v -4.240097 275.750000 346.799988
v -4.240097 277.220306 346.799988
v -12.096530 283.279694 346.799988
v -21.794550 285.641113 346.799988
v -21.987619 283.279694 346.799988
v -23.363239 285.488892 346.799988
v -23.381809 273.511108 346.799988
v -24.326731 285.032196 346.799988
v -24.341579 273.967804 346.799988
v -24.826111 274.844086 346.799988
v -24.987619 276.255005 346.799988
v -24.987619 282.730194 346.799988
v -24.822399 284.152191 346.799988
v -12.096530 275.616302 346.799988
v -10.711630 273.511108 346.799988
v -10.711630 285.488892 346.799988
v -12.289600 285.641113 346.799988
v -12.289600 273.358887 346.799988
v -21.987619 275.616302 346.799988
v -21.794550 273.358887 346.799988
v -9.749999 285.032196 346.799988
v -9.749999 273.967804 346.799988
v -9.259900 284.152191 346.799988
v -9.096533 282.730194 346.799988
v -9.096533 276.255005 346.799988
v -9.259900 274.844086 346.799988
v -34.492569 285.641113 346.799988
v -37.492569 285.641113 346.799988
v -34.492569 275.556885 346.799988
v -37.492569 275.556885 346.799988
v -28.566830 273.358887 346.799988
v -43.433170 273.358887 346.799988
v -43.433170 275.556885 346.799988
v -28.566830 275.556885 346.799988
v -47.294552 285.641113 346.799988
v -50.279701 285.641113 346.799988
v -47.294552 273.358887 346.799988
v -50.279701 273.358887 346.799988
v -54.497520 285.641113 346.799988
v -58.032181 285.641113 346.799988
v -60.556931 279.344086 346.799988
v -62.368809 281.052002 346.799988
v -62.517319 277.324310 346.799988
v -64.269798 278.987610 346.799988
v -66.408417 273.358887 346.799988
v -69.868820 273.358887 346.799988
v -67.076729 285.641113 346.799988
v -71.175751 285.641113 346.799988
v -58.388611 273.358887 346.799988
v -54.378712 273.358887 346.799988
vn -0.0000 -0.0000 1.0000
vn -0.0001 -0.0000 1.0000
vn -0.0002 -0.0000 1.0000
vn 0.0002 -0.0000 1.0000
vn 0.0005 -0.0000 1.0000
vn 0.0001 -0.0000 1.0000
vn -0.0018 -0.0000 1.0000
vn 0.0003 -0.0000 1.0000
s 0
f 1//1 2//1 3//1
f 3//1 2//1 4//1
f 3//1 4//1 5//1
f 5//1 4//1 6//1
f 5//1 6//1 7//1
f 7//1 6//1 8//1
f 2//1 9//1 4//1
f 7//1 10//1 5//1
f 11//1 12//1 13//1
f 13//1 12//1 14//1
f 13//1 14//1 15//1
f 12//1 11//1 16//1
f 16//1 11//1 17//1
f 16//1 17//1 18//1
f 12//1 19//1 14//1
f 14//1 19//1 20//1
f 21//1 22//1 15//1
f 15//1 22//1 13//1
f 23//1 24//1 25//1
f 25//1 24//1 26//1
f 25//1 26//1 27//1
f 27//1 26//1 28//1
f 27//1 28//1 29//1
f 29//1 28//1 30//1
f 30//2 28//2 31//2
f 30//1 31//1 32//1
f 32//3 31//3 33//3
f 34//1 35//1 23//1
f 23//1 35//1 36//1
f 23//1 36//1 37//1
f 35//1 34//1 38//1
f 38//1 34//1 39//1
f 38//1 39//1 40//1
f 40//1 39//1 27//1
f 27//1 39//1 25//1
f 36//1 35//1 41//1
f 41//1 35//1 42//1
f 41//1 42//1 43//1
f 43//1 42//1 44//1
f 43//1 44//1 45//1
f 45//4 44//4 46//4
f 37//1 24//1 23//1
f 47//1 48//1 49//1
f 49//1 48//1 50//1
f 49//1 50//1 51//1
f 51//1 50//1 52//1
f 51//1 52//1 53//1
f 47//1 54//1 48//1
f 48//2 54//2 55//2
f 48//1 55//1 56//1
f 56//1 57//1 48//1
f 48//5 57//5 58//5
f 48//1 58//1 59//1
f 59//1 58//1 60//1
f 59//2 60//2 61//2
f 61//6 60//6 62//6
f 61//2 62//2 63//2
f 57//7 64//7 58//7
f 58//1 64//1 65//1
f 65//1 64//1 66//1
f 65//1 66//1 67//1
f 67//6 66//6 68//6
f 67//1 68//1 69//1
f 69//2 68//2 70//2
f 69//6 70//6 53//6
f 53//1 70//1 71//1
f 53//1 71//1 51//1
f 61//1 63//1 72//1
f 72//6 63//6 73//6
f 72//1 73//1 74//1
f 74//1 75//1 72//1
f 72//1 75//1 76//1
f 76//1 75//1 52//1
f 76//1 52//1 50//1
f 59//1 61//1 77//1
f 77//1 61//1 78//1
f 77//1 78//1 79//1
f 79//1 78//1 80//1
f 79//1 80//1 81//1
f 81//4 80//4 82//4
f 81//1 82//1 83//1
f 48//1 59//1 84//1
f 84//1 59//1 85//1
f 84//6 85//6 86//6
f 86//1 85//1 87//1
f 86//2 87//2 88//2
f 88//1 87//1 89//1
f 88//1 89//1 90//1
f 90//8 89//8 91//8
f 92//1 93//1 94//1
f 94//1 93//1 95//1
f 94//1 95//1 96//1
f 96//1 95//1 97//1
f 96//1 97//1 98//1
f 98//1 97//1 99//1
f 99//1 97//1 100//1
f 100//1 97//1 101//1
f 101//1 97//1 102//1
f 103//1 104//1 92//1
f 92//1 104//1 105//1
f 92//1 105//1 106//1
f 104//1 103//1 107//1
f 107//1 103//1 108//1
f 107//1 108//1 109//1
f 109//1 108//1 96//1
f 96//1 108//1 94//1
f 105//1 104//1 110//1
f 110//1 104//1 111//1
f 110//1 111//1 112//1
f 112//1 111//1 113//1
f 113//6 111//6 114//6
f 114//2 111//2 115//2
f 106//1 93//1 92//1
f 116//1 117//1 118//1
f 118//1 117//1 119//1
f 118//1 119//1 120//1
f 120//1 119//1 121//1
f 121//1 119//1 122//1
f 120//1 123//1 118//1
f 124//1 125//1 126//1
f 126//1 125//1 127//1
f 128//1 129//1 130//1
f 130//1 129//1 131//1
f 130//1 131//1 132//1
f 132//1 131//1 133//1
f 132//1 133//1 134//1
f 134//1 133//1 135//1
f 131//1 136//1 133//1
f 133//1 136//1 137//1
f 132//1 138//1 130//1
f 130//1 138//1 139//1
