# Blender 4.0.2
# www.blender.org
o SICK-S300__m3
v 50.799999 -5.540740 -29.188190
v 50.799999 -5.199999 -26.600000
v 50.799999 -5.540741 -24.011810
v 50.799999 -6.539745 -21.600000
v 50.799999 -8.128931 -19.528931
v 50.799999 -10.199999 -17.939751
v 50.799999 -12.611809 -16.940741
v 50.799999 -15.199999 -16.600000
v 50.799999 -17.788191 -16.940741
v 50.799999 -20.200001 -17.939751
v 50.799999 -22.271070 -19.528933
v 50.799999 -23.860260 -21.600002
v 50.799999 -24.859259 -24.011812
v 50.799999 -25.199999 -26.600002
v 50.799999 -24.859259 -29.188192
v 50.799999 -23.860258 -31.600002
v 50.799999 -22.271069 -33.671070
v 50.799999 -20.199999 -35.260250
v 50.799999 -17.788189 -36.259258
v 50.799999 -15.199998 -36.599998
v 50.799999 -12.611808 -36.259258
v 50.799999 -10.199998 -35.260250
v 50.799999 -8.128930 -33.671070
v 50.799999 -6.539744 -31.600000
v 50.799999 -7.990157 -8.647668
v 50.799999 -7.650000 -6.500000
v 50.799999 -7.990157 -4.352333
v 50.799999 -8.977333 -2.414892
v 50.799999 -10.514890 -0.877332
v 50.799999 -12.452330 0.109842
v 50.799999 -14.600000 0.449999
v 50.799999 -16.747669 0.109842
v 50.799999 -18.685110 -0.877333
v 50.799999 -20.222670 -2.414893
v 50.799999 -21.209841 -4.352333
v 50.799999 -21.549999 -6.500001
v 50.799999 -21.209841 -8.647669
v 50.799999 -20.222670 -10.585111
v 50.799999 -18.685110 -12.122671
v 50.799999 -16.747669 -13.109841
v 50.799999 -14.599999 -13.450001
v 50.799999 -12.452329 -13.109841
v 50.799999 -10.514889 -12.122670
v 50.799999 -8.977333 -10.585110
v 50.799999 -7.990158 9.152333
v 50.799999 -7.650001 11.300000
v 50.799999 -7.990158 13.447670
v 50.799999 -8.977334 15.385110
v 50.799999 -10.514891 16.922670
v 50.799999 -12.452331 17.909840
v 50.799999 -14.600001 18.250000
v 50.799999 -16.747669 17.909840
v 50.799999 -18.685110 16.922670
v 50.799999 -20.222670 15.385109
v 50.799999 -21.209841 13.447669
v 50.799999 -21.549999 11.299999
v 50.799999 -21.209841 9.152332
v 50.799999 -20.222670 7.214892
v 50.799999 -18.685110 5.677331
v 50.799999 -16.747669 4.690156
v 50.799999 -14.600000 4.349999
v 50.799999 -12.452330 4.690156
v 50.799999 -10.514890 5.677331
v 50.799999 -8.977333 7.214892
v 50.799999 -7.990158 26.952330
v 50.799999 -7.650002 29.100000
v 50.799999 -7.990159 31.247669
v 50.799999 -8.977335 33.185108
v 50.799999 -10.514892 34.722672
v 50.799999 -12.452332 35.709839
v 50.799999 -14.600002 36.049999
v 50.799999 -16.747671 35.709839
v 50.799999 -18.685112 34.722672
v 50.799999 -20.222672 33.185108
v 50.799999 -21.209843 31.247669
v 50.799999 -21.550001 29.100000
v 50.799999 -21.209843 26.952330
v 50.799999 -20.222672 25.014891
v 50.799999 -18.685112 23.477329
v 50.799999 -16.747671 22.490160
v 50.799999 -14.600001 22.150000
v 50.799999 -12.452331 22.490160
v 50.799999 -10.514891 23.477329
v 50.799999 -8.977334 25.014891
v 27.940741 -3.399999 -29.188190
v 27.600000 -3.399999 -26.600000
v 27.940741 -3.399999 -24.011810
v 28.939751 -3.399999 -21.600000
v 30.528931 -3.399999 -19.528931
v 32.599998 -3.399999 -17.939751
v 35.011810 -3.399999 -16.940741
v 37.599998 -3.399999 -16.600000
v 40.188190 -3.399999 -16.940741
v 42.599998 -3.399999 -17.939751
v 44.671070 -3.399999 -19.528931
v 46.260250 -3.399999 -21.600000
v 47.259258 -3.399999 -24.011810
v 47.599998 -3.399999 -26.600000
v 47.259258 -3.399999 -29.188190
v 46.260250 -3.399999 -31.600000
v 44.671070 -3.399999 -33.671070
v 42.599998 -3.399999 -35.260250
v 40.188190 -3.399998 -36.259258
v 37.599998 -3.399998 -36.599998
v 35.011810 -3.399998 -36.259258
v 32.599998 -3.399999 -35.260250
v 30.528931 -3.399999 -33.671070
v 28.939751 -3.399999 -31.600000
v 30.990160 -3.400000 -8.647668
v 30.650000 -3.400000 -6.500000
v 30.990160 -3.400000 -4.352332
v 31.977329 -3.400000 -2.414892
v 33.514889 -3.400000 -0.877332
v 35.452332 -3.400000 0.109843
v 37.599998 -3.400000 0.450000
v 39.747662 -3.400000 0.109843
v 41.685108 -3.400000 -0.877332
v 43.222672 -3.400000 -2.414892
v 44.209839 -3.400000 -4.352332
v 44.549999 -3.400000 -6.500000
v 44.209839 -3.400000 -8.647668
v 43.222672 -3.400000 -10.585110
v 41.685108 -3.400000 -12.122670
v 39.747662 -3.400000 -13.109840
v 37.599998 -3.400000 -13.450000
v 35.452332 -3.400000 -13.109840
v 33.514889 -3.400000 -12.122670
v 31.977329 -3.400000 -10.585110
v 30.990160 -3.400001 9.152333
v 30.650000 -3.400001 11.300000
v 30.990160 -3.400001 13.447670
v 31.977329 -3.400001 15.385110
v 33.514889 -3.400001 16.922670
v 35.452332 -3.400001 17.909840
v 37.599998 -3.400001 18.250000
v 39.747662 -3.400001 17.909840
v 41.685108 -3.400001 16.922670
v 43.222672 -3.400001 15.385110
v 44.209839 -3.400001 13.447670
v 44.549999 -3.400001 11.300000
v 44.209839 -3.400001 9.152333
v 43.222672 -3.400000 7.214893
v 41.685108 -3.400000 5.677332
v 39.747662 -3.400000 4.690157
v 37.599998 -3.400000 4.350000
v 35.452332 -3.400000 4.690157
v 33.514889 -3.400000 5.677332
v 31.977329 -3.400000 7.214893
v 30.990160 -3.400001 26.952330
v 30.650000 -3.400001 29.100000
v 30.990160 -3.400002 31.247669
v 31.977329 -3.400002 33.185108
v 33.514889 -3.400002 34.722672
v 35.452332 -3.400002 35.709839
v 37.599998 -3.400002 36.049999
v 39.747662 -3.400002 35.709839
v 41.685108 -3.400002 34.722672
v 43.222672 -3.400002 33.185108
v 44.209839 -3.400002 31.247669
v 44.549999 -3.400001 29.100000
v 44.209839 -3.400001 26.952330
v 43.222672 -3.400001 25.014891
v 41.685108 -3.400001 23.477329
v 39.747662 -3.400001 22.490160
v 37.599998 -3.400001 22.150000
v 35.452332 -3.400001 22.490160
v 33.514889 -3.400001 23.477329
v 31.977329 -3.400001 25.014891
v 50.799999 -26.999998 -39.000000
v 53.775848 -26.999998 -39.000000
v 50.799999 -3.399998 -39.000000
v 54.200001 0.000002 -39.000000
v 24.200001 0.000002 -39.000000
v 24.200001 -3.399998 -39.000000
v 53.775848 -27.000002 39.000000
v 50.799999 -27.000002 39.000000
v 24.200001 -0.000002 39.000000
v 54.200001 -0.000002 39.000000
v 50.799999 -3.400002 39.000000
v 24.200001 -3.400002 39.000000
v 54.200001 0.000002 -51.150002
v 53.719292 -30.599998 -50.659580
v 53.719292 -30.600002 50.659580
v 54.200001 -0.000002 51.150002
v -46.719460 -73.000000 -17.107754
v -44.402889 -73.000000 -22.444744
v -41.479130 -73.000000 -27.474813
v -37.988152 -73.000000 -32.129173
v -33.977699 -73.000000 -36.344185
v -29.502621 -73.000000 -40.062195
v -24.624100 -73.000000 -43.232365
v -19.408850 -73.000000 -45.811356
v -13.928190 -73.000000 -47.763885
v -8.257074 -73.000000 -49.063274
v -2.473041 -73.000000 -49.691734
v 3.344809 -73.000000 -49.640663
v 9.116921 -73.000000 -48.910793
v 9.175176 -21.941498 -49.715752
v 3.494100 -20.837208 -50.451809
v -2.233769 -19.723827 -50.540810
v -7.934971 -18.615627 -49.981609
v -13.536380 -17.526817 -48.781380
v -18.966169 -16.471378 -46.955509
v -24.154690 -15.462828 -44.527431
v -29.035400 -14.514118 -41.528259
v -33.545712 -13.637398 -37.996479
v -37.627750 -12.843928 -33.977390
v -41.229191 -12.143879 -29.522520
v -44.303841 -11.546229 -24.689020
v -46.812260 -11.058649 -19.538870
v -48.722279 -10.687369 -14.138130
v -50.009392 -10.437190 -8.556066
v -50.657101 -10.311280 2.864267
v -50.657101 -10.311280 -2.864268
v -46.719460 -73.000000 17.107746
v -44.402889 -73.000000 22.444736
v -48.397160 -73.000000 11.536818
v -49.413052 -73.000000 5.808116
v -49.753220 -73.000000 -0.000003
v -49.413052 -73.000000 -5.808123
v -48.397160 -73.000000 -11.536823
v 9.116921 -73.000000 48.910786
v 9.175176 -21.941502 49.715752
v 3.494100 -20.837212 50.451809
v -2.233769 -19.723831 50.540810
v -7.934971 -18.615631 49.981609
v -13.536380 -17.526821 48.781380
v -18.966169 -16.471382 46.955509
v -24.154690 -15.462831 44.527431
v -29.035400 -14.514122 41.528259
v -33.545712 -13.637402 37.996479
v -37.627750 -12.843932 33.977390
v -41.229191 -12.143881 29.522520
v -44.303841 -11.546231 24.689020
v -46.812260 -11.058651 19.538870
v -48.722279 -10.687371 14.138130
v -50.009392 -10.437190 8.556066
v -41.479130 -73.000000 27.474806
v -37.988152 -73.000000 32.129166
v -33.977699 -73.000000 36.344177
v -29.502621 -73.000000 40.062187
v -24.624100 -73.000000 43.232357
v -19.408850 -73.000000 45.811348
v -13.928190 -73.000000 47.763878
v -8.257074 -73.000000 49.063267
v -2.473041 -73.000000 49.691727
v 3.344809 -73.000000 49.640656
v 15.851670 -23.239283 49.933891
v 9.187705 -10.881462 49.890121
v 9.200000 -0.000002 50.061661
v 15.865390 -0.000002 50.299599
v 22.529409 -24.537302 50.110050
v 22.532150 -0.000002 50.495708
v 29.208120 -25.835512 50.244221
v 29.200001 -0.000002 50.650002
v 15.817630 -73.000000 -49.150665
v 15.851670 -23.239279 -49.933891
v 22.519720 -73.000000 -49.348225
v 22.529409 -24.537298 -50.110050
v 29.208120 -25.835508 -50.244221
v 29.222931 -73.000000 -49.503452
v 53.053230 -73.000000 -49.980064
v 51.702911 -73.000000 48.602467
v 8.031161 -73.000000 47.729027
v 51.702911 -73.000000 -48.602474
v 8.031161 -73.000000 -47.729034
v 2.267991 -73.000000 -48.346832
v -3.527704 -73.000000 -48.271275
v -9.272807 -73.000000 -47.503426
v -14.884920 -73.000000 -46.054302
v -20.283569 -73.000000 -43.944702
v -25.391319 -73.000000 -41.204872
v -30.134920 -73.000000 -37.874092
v -34.446331 -73.000000 -34.000153
v -38.263741 -73.000000 -29.638594
v -41.532391 -73.000000 -24.851974
v -44.205399 -73.000000 -19.708944
v -46.244438 -73.000000 -14.283253
v -47.620270 -73.000000 -8.652720
v -48.313148 -73.000000 -2.898097
v -48.313148 -73.000000 2.898091
v -47.620270 -73.000000 8.652715
v -46.244438 -73.000000 14.283247
v -44.205399 -73.000000 19.708937
v -41.532391 -73.000000 24.851967
v -38.263741 -73.000000 29.638586
v -34.446331 -73.000000 34.000145
v -30.134920 -73.000000 37.874084
v -25.391319 -73.000000 41.204865
v -20.283569 -73.000000 43.944695
v -14.884920 -73.000000 46.054295
v -9.272807 -73.000000 47.503418
v -3.527704 -73.000000 48.271267
v 2.267991 -73.000000 48.346825
v 15.817630 -73.000000 49.150658
v 53.053230 -73.000000 49.980057
v 29.222931 -73.000000 49.503445
v 22.519720 -73.000000 49.348217
v 29.200001 0.000002 -50.650002
v 22.532150 0.000002 -50.495708
v 15.865390 0.000002 -50.299599
v 9.200000 0.000002 -50.061661
v 9.187705 -10.881458 -49.890121
v 3.301566 0.000002 -50.792809
v -2.641885 0.000002 -50.831390
v -8.549314 0.000002 -50.176880
v -14.340170 0.000002 -48.838188
v -19.935499 0.000002 -46.833591
v -25.259001 0.000002 -44.190411
v -30.238100 0.000002 -40.944691
v -34.804890 0.000002 -37.140678
v -38.897110 0.000001 -32.830238
v -42.458961 0.000001 -28.072170
v -45.441879 0.000001 -22.931320
v -47.805191 0.000001 -17.477800
v -49.516670 0.000001 -11.785970
v -50.552979 0.000000 -5.933438
v -50.900002 0.000000 0.000000
v -50.552979 0.000000 5.933438
v -49.516670 -0.000001 11.785970
v -47.805191 -0.000001 17.477800
v -45.441879 -0.000001 22.931320
v -42.458961 -0.000001 28.072170
v -38.897110 -0.000001 32.830238
v -34.804890 -0.000002 37.140678
v -30.238100 -0.000002 40.944691
v -25.259001 -0.000002 44.190411
v -19.935499 -0.000002 46.833591
v -14.340170 -0.000002 48.838188
v -8.549314 -0.000002 50.176880
v -2.641885 -0.000002 50.831390
v 3.301566 -0.000002 50.792809
vn -0.0000 -0.0000 1.0000
vn -0.0000 1.0000 -0.0000
vn -0.0000 -0.0000 -1.0000
vn 1.0000 -0.0000 -0.0000
vn 0.9999 -0.0157 -0.0000
vn -0.0357 -0.0157 0.9992
vn -0.0294 -0.0157 0.9994
vn -0.0231 -0.0157 0.9996
vn -0.0200 -0.0157 0.9997
vn -0.0000 -1.0000 -0.0000
vn -0.0200 -0.0157 -0.9997
vn -0.0231 -0.0157 -0.9996
vn -0.0294 -0.0157 -0.9994
vn -0.0357 -0.0157 -0.9992
vn 0.1255 -0.0158 -0.9920
vn 0.1230 -0.0151 -0.9923
vn 0.0124 -0.0162 -0.9998
vn 0.0065 -0.0146 -0.9999
vn -0.1008 -0.0167 -0.9948
vn -0.1101 -0.0141 -0.9938
vn -0.2127 -0.0173 -0.9770
vn -0.2252 -0.0135 -0.9742
vn -0.3218 -0.0178 -0.9466
vn -0.3372 -0.0129 -0.9413
vn -0.4267 -0.0184 -0.9042
vn -0.4447 -0.0122 -0.8956
vn -0.5261 -0.0190 -0.8502
vn -0.5461 -0.0116 -0.8377
vn -0.6188 -0.0197 -0.7853
vn -0.6400 -0.0109 -0.7683
vn -0.7035 -0.0204 -0.7104
vn -0.7252 -0.0102 -0.6885
vn -0.7791 -0.0210 -0.6265
vn -0.8005 -0.0095 -0.5993
vn -0.8448 -0.0217 -0.5347
vn -0.8649 -0.0089 -0.5019
vn -0.8996 -0.0223 -0.4361
vn -0.9175 -0.0083 -0.3976
vn -0.9430 -0.0228 -0.3319
vn -0.9576 -0.0078 -0.2879
vn -0.9744 -0.0232 -0.2236
vn -0.9847 -0.0075 -0.1744
vn -0.9934 -0.0235 -0.1125
vn -0.9983 -0.0073 -0.0584
vn -0.9997 -0.0236 -0.0000
vn -0.9983 -0.0073 0.0584
vn -0.9934 -0.0235 0.1125
vn -0.9847 -0.0075 0.1744
vn -0.9744 -0.0232 0.2236
vn -0.9576 -0.0078 0.2879
vn -0.9430 -0.0228 0.3319
vn -0.9175 -0.0083 0.3976
vn -0.8996 -0.0223 0.4361
vn -0.8649 -0.0089 0.5019
vn -0.8448 -0.0217 0.5347
vn -0.8005 -0.0095 0.5993
vn -0.7791 -0.0210 0.6265
vn -0.7252 -0.0102 0.6885
vn -0.7035 -0.0204 0.7104
vn -0.6400 -0.0109 0.7683
vn -0.6188 -0.0197 0.7853
vn -0.5461 -0.0116 0.8377
vn -0.5261 -0.0190 0.8502
vn -0.4447 -0.0122 0.8956
vn -0.4267 -0.0184 0.9042
vn -0.3372 -0.0129 0.9413
vn -0.3218 -0.0178 0.9466
vn -0.2252 -0.0135 0.9742
vn -0.2127 -0.0173 0.9770
vn -0.1101 -0.0141 0.9938
vn -0.1008 -0.0167 0.9948
vn 0.0065 -0.0146 0.9999
vn 0.0124 -0.0162 0.9998
vn 0.1230 -0.0151 0.9923
vn 0.1255 -0.0158 0.9920
s 0
f 169//1 170//1 171//1
f 171//1 170//1 172//1
f 171//1 172//1 173//1
f 173//1 174//1 171//1
f 170//2 169//2 175//2
f 175//2 169//2 176//2
f 177//3 178//3 179//3
f 179//3 178//3 175//3
f 179//3 175//3 176//3
f 179//3 180//3 177//3
f 174//4 173//4 180//4
f 180//4 173//4 177//4
f 87//2 86//2 174//2
f 174//2 86//2 85//2
f 174//2 85//2 108//2
f 108//2 107//2 174//2
f 174//2 107//2 106//2
f 174//2 106//2 105//2
f 105//2 104//2 174//2
f 174//2 104//2 171//2
f 171//2 104//2 103//2
f 171//2 103//2 102//2
f 102//2 101//2 171//2
f 171//2 101//2 100//2
f 171//2 100//2 99//2
f 99//2 98//2 171//2
f 171//2 98//2 97//2
f 171//2 97//2 179//2
f 179//2 97//2 120//2
f 179//2 120//2 140//2
f 140//2 120//2 119//2
f 140//2 119//2 141//2
f 141//2 119//2 142//2
f 142//2 119//2 118//2
f 142//2 118//2 143//2
f 143//2 118//2 117//2
f 143//2 117//2 144//2
f 144//2 117//2 116//2
f 144//2 116//2 145//2
f 145//2 116//2 115//2
f 145//2 115//2 114//2
f 97//2 96//2 120//2
f 120//2 96//2 121//2
f 121//2 96//2 95//2
f 121//2 95//2 122//2
f 122//2 95//2 94//2
f 122//2 94//2 123//2
f 123//2 94//2 93//2
f 123//2 93//2 124//2
f 124//2 93//2 92//2
f 124//2 92//2 125//2
f 125//2 92//2 126//2
f 126//2 92//2 91//2
f 126//2 91//2 127//2
f 127//2 91//2 90//2
f 127//2 90//2 128//2
f 128//2 90//2 89//2
f 128//2 89//2 109//2
f 109//2 89//2 88//2
f 109//2 88//2 110//2
f 110//2 88//2 87//2
f 110//2 87//2 180//2
f 180//2 87//2 174//2
f 145//2 114//2 146//2
f 146//2 114//2 113//2
f 146//2 113//2 147//2
f 147//2 113//2 112//2
f 147//2 112//2 148//2
f 148//2 112//2 111//2
f 148//2 111//2 129//2
f 129//2 111//2 130//2
f 130//2 111//2 110//2
f 130//2 110//2 180//2
f 139//2 161//2 140//2
f 140//2 161//2 160//2
f 140//2 160//2 179//2
f 179//2 160//2 159//2
f 179//2 159//2 158//2
f 161//2 139//2 162//2
f 162//2 139//2 138//2
f 162//2 138//2 163//2
f 163//2 138//2 137//2
f 163//2 137//2 164//2
f 164//2 137//2 136//2
f 164//2 136//2 165//2
f 165//2 136//2 135//2
f 165//2 135//2 134//2
f 165//2 134//2 166//2
f 166//2 134//2 133//2
f 166//2 133//2 167//2
f 167//2 133//2 132//2
f 167//2 132//2 168//2
f 168//2 132//2 131//2
f 168//2 131//2 149//2
f 149//2 131//2 130//2
f 149//2 130//2 150//2
f 150//2 130//2 180//2
f 150//2 180//2 151//2
f 151//2 180//2 152//2
f 152//2 180//2 153//2
f 153//2 180//2 154//2
f 154//2 180//2 155//2
f 155//2 180//2 179//2
f 155//2 179//2 156//2
f 156//2 179//2 157//2
f 157//2 179//2 158//2
f 1//4 171//4 2//4
f 2//4 171//4 179//4
f 2//4 179//4 3//4
f 3//4 179//4 26//4
f 3//4 26//4 4//4
f 4//4 26//4 25//4
f 4//4 25//4 5//4
f 5//4 25//4 44//4
f 5//4 44//4 6//4
f 6//4 44//4 43//4
f 6//4 43//4 42//4
f 1//4 24//4 171//4
f 171//4 24//4 23//4
f 171//4 23//4 22//4
f 22//4 21//4 171//4
f 171//4 21//4 20//4
f 171//4 20//4 169//4
f 169//4 20//4 19//4
f 169//4 19//4 18//4
f 18//4 17//4 169//4
f 169//4 17//4 16//4
f 169//4 16//4 15//4
f 15//4 14//4 169//4
f 169//4 14//4 176//4
f 176//4 14//4 13//4
f 176//4 13//4 56//4
f 56//4 13//4 36//4
f 56//4 36//4 35//4
f 13//4 12//4 36//4
f 36//4 12//4 11//4
f 36//4 11//4 37//4
f 37//4 11//4 38//4
f 38//4 11//4 10//4
f 38//4 10//4 39//4
f 39//4 10//4 9//4
f 39//4 9//4 40//4
f 40//4 9//4 8//4
f 40//4 8//4 41//4
f 41//4 8//4 7//4
f 41//4 7//4 42//4
f 42//4 7//4 6//4
f 34//4 58//4 35//4
f 35//4 58//4 57//4
f 35//4 57//4 56//4
f 58//4 34//4 59//4
f 59//4 34//4 33//4
f 59//4 33//4 60//4
f 60//4 33//4 32//4
f 60//4 32//4 61//4
f 61//4 32//4 31//4
f 61//4 31//4 30//4
f 61//4 30//4 62//4
f 62//4 30//4 29//4
f 62//4 29//4 63//4
f 63//4 29//4 28//4
f 63//4 28//4 64//4
f 64//4 28//4 27//4
f 64//4 27//4 45//4
f 45//4 27//4 26//4
f 45//4 26//4 46//4
f 46//4 26//4 179//4
f 46//4 179//4 66//4
f 66//4 179//4 67//4
f 67//4 179//4 68//4
f 68//4 179//4 69//4
f 69//4 179//4 70//4
f 70//4 179//4 71//4
f 71//4 179//4 176//4
f 71//4 176//4 72//4
f 72//4 176//4 73//4
f 73//4 176//4 74//4
f 74//4 176//4 75//4
f 75//4 176//4 76//4
f 76//4 176//4 56//4
f 76//4 56//4 77//4
f 77//4 56//4 55//4
f 77//4 55//4 78//4
f 78//4 55//4 54//4
f 78//4 54//4 79//4
f 79//4 54//4 53//4
f 79//4 53//4 80//4
f 80//4 53//4 52//4
f 80//4 52//4 81//4
f 81//4 52//4 51//4
f 81//4 51//4 50//4
f 81//4 50//4 82//4
f 82//4 50//4 49//4
f 82//4 49//4 83//4
f 83//4 49//4 48//4
f 83//4 48//4 84//4
f 84//4 48//4 47//4
f 84//4 47//4 65//4
f 65//4 47//4 46//4
f 65//4 46//4 66//4
f 172//5 170//5 181//5
f 181//5 170//5 182//5
f 182//5 170//5 175//5
f 182//5 175//5 183//5
f 183//5 175//5 184//5
f 184//5 175//5 178//5
f 223//6 248//6 249//6
f 249//6 248//6 250//6
f 250//6 248//6 251//6
f 251//7 248//7 252//7
f 251//7 252//7 253//7
f 253//8 252//8 254//8
f 253//8 254//8 255//8
f 183//9 184//9 254//9
f 254//9 184//9 255//9
f 295//10 222//10 264//10
f 264//10 222//10 247//10
f 264//10 247//10 294//10
f 294//10 247//10 246//10
f 294//10 246//10 293//10
f 293//10 246//10 245//10
f 293//10 245//10 292//10
f 292//10 245//10 244//10
f 292//10 244//10 291//10
f 291//10 244//10 243//10
f 291//10 243//10 290//10
f 290//10 243//10 242//10
f 290//10 242//10 289//10
f 289//10 242//10 241//10
f 289//10 241//10 288//10
f 288//10 241//10 240//10
f 288//10 240//10 287//10
f 287//10 240//10 239//10
f 287//10 239//10 286//10
f 286//10 239//10 238//10
f 286//10 238//10 285//10
f 285//10 238//10 216//10
f 285//10 216//10 284//10
f 284//10 216//10 215//10
f 284//10 215//10 283//10
f 283//10 215//10 217//10
f 283//10 217//10 282//10
f 282//10 217//10 218//10
f 282//10 218//10 281//10
f 281//10 218//10 219//10
f 281//10 219//10 280//10
f 280//10 219//10 220//10
f 280//10 220//10 279//10
f 279//10 220//10 221//10
f 279//10 221//10 278//10
f 278//10 221//10 185//10
f 278//10 185//10 277//10
f 277//10 185//10 186//10
f 277//10 186//10 276//10
f 276//10 186//10 187//10
f 276//10 187//10 275//10
f 275//10 187//10 188//10
f 275//10 188//10 274//10
f 274//10 188//10 189//10
f 274//10 189//10 273//10
f 273//10 189//10 190//10
f 273//10 190//10 272//10
f 272//10 190//10 191//10
f 272//10 191//10 271//10
f 271//10 191//10 192//10
f 271//10 192//10 270//10
f 270//10 192//10 193//10
f 270//10 193//10 269//10
f 269//10 193//10 194//10
f 269//10 194//10 268//10
f 268//10 194//10 195//10
f 268//10 195//10 267//10
f 267//10 195//10 196//10
f 267//10 196//10 266//10
f 266//10 196//10 197//10
f 266//10 197//10 256//10
f 256//10 258//10 266//10
f 266//10 258//10 261//10
f 266//10 261//10 265//10
f 265//10 261//10 262//10
f 265//10 262//10 263//10
f 263//10 262//10 296//10
f 263//10 296//10 297//10
f 263//10 297//10 264//10
f 264//10 297//10 298//10
f 264//10 298//10 295//10
f 182//11 260//11 181//11
f 181//11 260//11 299//11
f 260//12 259//12 299//12
f 299//12 259//12 300//12
f 300//13 259//13 301//13
f 301//13 259//13 257//13
f 301//14 257//14 302//14
f 302//14 257//14 303//14
f 303//14 257//14 198//14
f 198//15 199//15 303//15
f 303//15 199//15 302//15
f 302//16 199//16 304//16
f 304//17 199//17 200//17
f 304//18 200//18 305//18
f 305//19 200//19 201//19
f 305//20 201//20 306//20
f 306//21 201//21 202//21
f 306//22 202//22 307//22
f 307//23 202//23 203//23
f 307//24 203//24 308//24
f 308//25 203//25 204//25
f 308//26 204//26 309//26
f 309//27 204//27 205//27
f 309//28 205//28 310//28
f 310//29 205//29 206//29
f 310//30 206//30 311//30
f 311//31 206//31 207//31
f 311//32 207//32 312//32
f 312//33 207//33 208//33
f 312//34 208//34 313//34
f 313//35 208//35 209//35
f 313//36 209//36 314//36
f 314//37 209//37 210//37
f 314//38 210//38 315//38
f 315//39 210//39 211//39
f 315//40 211//40 316//40
f 316//41 211//41 212//41
f 316//42 212//42 317//42
f 317//43 212//43 214//43
f 317//44 214//44 318//44
f 318//45 214//45 213//45
f 318//46 213//46 319//46
f 319//47 213//47 237//47
f 319//48 237//48 320//48
f 320//49 237//49 236//49
f 320//50 236//50 321//50
f 321//51 236//51 235//51
f 321//52 235//52 322//52
f 322//53 235//53 234//53
f 322//54 234//54 323//54
f 323//55 234//55 233//55
f 323//56 233//56 324//56
f 324//57 233//57 232//57
f 324//58 232//58 325//58
f 325//59 232//59 231//59
f 325//60 231//60 326//60
f 326//61 231//61 230//61
f 326//62 230//62 327//62
f 327//63 230//63 229//63
f 327//64 229//64 328//64
f 328//65 229//65 228//65
f 328//66 228//66 329//66
f 329//67 228//67 227//67
f 329//68 227//68 330//68
f 330//69 227//69 226//69
f 330//70 226//70 331//70
f 331//71 226//71 225//71
f 331//72 225//72 332//72
f 332//73 225//73 224//73
f 332//74 224//74 250//74
f 250//75 224//75 249//75
f 249//75 224//75 223//75
f 172//2 299//2 173//2
f 173//2 299//2 300//2
f 173//2 300//2 301//2
f 172//2 181//2 299//2
f 301//2 302//2 173//2
f 173//2 302//2 304//2
f 173//2 304//2 305//2
f 305//2 306//2 173//2
f 173//2 306//2 307//2
f 173//2 307//2 308//2
f 308//2 309//2 173//2
f 173//2 309//2 310//2
f 173//2 310//2 311//2
f 311//2 312//2 173//2
f 173//2 312//2 313//2
f 173//2 313//2 314//2
f 314//2 315//2 173//2
f 173//2 315//2 316//2
f 173//2 316//2 317//2
f 317//2 318//2 173//2
f 173//2 318//2 177//2
f 177//2 318//2 319//2
f 177//2 319//2 320//2
f 320//2 321//2 177//2
f 177//2 321//2 322//2
f 177//2 322//2 323//2
f 323//2 324//2 177//2
f 177//2 324//2 325//2
f 177//2 325//2 326//2
f 326//2 327//2 177//2
f 177//2 327//2 328//2
f 177//2 328//2 329//2
f 329//2 330//2 177//2
f 177//2 330//2 331//2
f 177//2 331//2 332//2
f 332//2 250//2 177//2
f 177//2 250//2 251//2
f 177//2 251//2 253//2
f 253//2 255//2 177//2
f 177//2 255//2 178//2
f 178//2 255//2 184//2
