# Blender 4.0.2
# www.blender.org
o SICK-S300__m4
v 0.300000 -85.300003 -49.559093
v -3.256194 -85.300003 -49.452915
v 0.300000 -85.300003 -51.000004
v -10.300000 -85.300003 -51.000004
v -6.795607 -85.300003 -49.091892
v -10.300000 -85.300003 -48.477875
v 0.300000 -74.699997 -49.725613
v 0.300000 -74.699997 -51.000004
v 0.300000 -85.300003 49.559086
v 0.300000 -74.699997 49.725605
v 0.300000 -85.300003 50.999996
v 0.300000 -74.699997 50.999996
v -10.300000 -74.699997 -48.648094
v -10.300000 -74.699997 -51.000004
v -10.300000 -85.300003 48.477867
v -10.300000 -85.300003 50.999996
v -10.300000 -74.699997 48.648087
v -10.300000 -74.699997 50.999996
v -6.795607 -85.300003 49.091885
v -3.256194 -85.300003 49.452908
v 38.700001 -85.300003 -49.499733
v 38.700001 -85.300003 -51.000004
v 49.299999 -85.300003 -49.711735
v 49.299999 -85.300003 -51.000004
v 38.700001 -74.699997 -49.666294
v 38.700001 -74.699997 -51.000004
v 49.299999 -78.182503 34.761127
v 49.299999 -78.717659 38.483265
v 49.299999 -79.300003 34.432995
v 49.299999 -79.882339 38.483265
v 49.299999 -80.417511 34.761127
v 49.299999 -80.862129 37.853584
v 49.299999 -81.180206 35.641327
v 49.299999 -81.345970 36.794155
v 49.299999 -77.737862 37.853584
v 49.299999 -77.419792 35.641327
v 49.299999 -77.254044 36.794155
v 49.299999 -78.182503 -38.238873
v 49.299999 -78.717659 -34.516735
v 49.299999 -79.300003 -38.567005
v 49.299999 -79.882339 -34.516735
v 49.299999 -80.417511 -38.238873
v 49.299999 -80.862129 -35.146404
v 49.299999 -81.180206 -37.358665
v 49.299999 -81.345970 -36.205833
v 49.299999 -77.737862 -35.146404
v 49.299999 -77.419792 -37.358665
v 49.299999 -77.254044 -36.205833
v 49.299999 -74.699997 -49.878284
v 49.299999 -74.699997 -51.000004
v 49.299999 -85.300003 49.711727
v 49.299999 -74.699997 49.878277
v 49.299999 -85.300003 50.999996
v 49.299999 -74.699997 50.999996
v 38.700001 -85.300003 49.499725
v 38.700001 -85.300003 50.999996
v 38.700001 -74.699997 49.666286
v 38.700001 -74.699997 50.999996
v 6.195061 -74.699997 -49.339115
v 9.114969 -74.699997 -48.883995
v 9.098431 -89.077728 -48.657314
v 3.253275 -74.699997 -49.619984
v -15.976640 -74.699997 -47.090065
v -21.429390 -74.699997 -44.872135
v -26.581829 -74.699997 -42.025383
v -31.361780 -74.699997 -38.589714
v -35.702221 -74.699997 -34.613262
v -39.542358 -74.699997 -30.151754
v -42.828369 -74.699997 -25.267714
v -45.514198 -74.699997 -20.029583
v -47.562210 -74.699997 -14.510773
v -48.943710 -74.699997 -8.788609
v -49.639332 -74.699997 -2.943287
v -49.639332 -74.699997 2.943281
v -48.943710 -74.699997 8.788603
v -47.562210 -74.699997 14.510767
v -45.514198 -74.699997 20.029575
v -42.828369 -74.699997 25.267706
v -39.542358 -74.699997 30.151747
v -35.702221 -74.699997 34.613255
v -31.361780 -74.699997 38.589706
v -26.581829 -74.699997 42.025375
v -21.429390 -74.699997 44.872128
v -15.976640 -74.699997 47.090057
v 3.253275 -74.699997 49.619976
v 6.195061 -74.699997 49.339108
v 9.098431 -89.077728 48.657307
v 9.114969 -74.699997 48.883987
v 13.306130 -89.297318 47.674377
v 17.437550 -89.592239 46.318695
v 21.436600 -89.952927 44.602417
v 25.255989 -90.365929 42.548725
v 28.848619 -90.815063 40.191376
v 32.172852 -91.282921 37.572784
v 35.196190 -91.751602 34.747437
v 37.982479 -92.219963 31.665066
v 40.553082 -92.682449 28.286945
v 42.854271 -93.121330 24.647007
v 44.846439 -93.520103 20.788807
v 46.496830 -93.863541 16.759447
v 47.785309 -94.139908 12.607566
v 48.700378 -94.340637 8.390088
v 49.239262 -94.460411 4.166566
v 49.415470 -94.500000 -0.000004
v 49.239262 -94.460411 -4.166574
v 48.700378 -94.340637 -8.390096
v 47.785309 -94.139908 -12.607574
v 46.496830 -93.863541 -16.759455
v 44.846439 -93.520103 -20.788815
v 42.854271 -93.121330 -24.647015
v 40.553082 -92.682449 -28.286953
v 37.982479 -92.219963 -31.665073
v 35.196190 -91.751602 -34.747444
v 32.172852 -91.282921 -37.572792
v 28.848619 -90.815063 -40.191383
v 25.255989 -90.365929 -42.548733
v 21.436600 -89.952927 -44.602425
v 17.437550 -89.592239 -46.318703
v 13.306130 -89.297318 -47.674385
v 53.026520 -74.699997 49.952805
v 52.804489 -88.833702 49.726295
v 29.227940 -88.942421 49.253056
v 29.223471 -74.699997 49.476746
v 2.267991 -74.699997 48.346825
v -3.527704 -74.699997 48.271267
v -9.272807 -74.699997 47.503418
v -14.884920 -74.699997 46.054295
v -20.283569 -74.699997 43.944695
v -25.391319 -74.699997 41.204865
v -30.134920 -74.699997 37.874084
v -34.446331 -74.699997 34.000145
v -38.263741 -74.699997 29.638586
v -41.532391 -74.699997 24.851967
v -44.205399 -74.699997 19.708937
v -46.244438 -74.699997 14.283247
v -47.620270 -74.699997 8.652715
v -48.313148 -74.699997 2.898091
v -48.313148 -74.699997 -2.898097
v -47.620270 -74.699997 -8.652720
v -46.244438 -74.699997 -14.283253
v -44.205399 -74.699997 -19.708944
v -41.532391 -74.699997 -24.851974
v -38.263741 -74.699997 -29.638594
v -34.446331 -74.699997 -34.000153
v -30.134920 -74.699997 -37.874092
v -25.391319 -74.699997 -41.204872
v -20.283569 -74.699997 -43.944702
v -14.884920 -74.699997 -46.054302
v -9.272807 -74.699997 -47.503426
v -3.527704 -74.699997 -48.271275
v 2.267991 -74.699997 -48.346832
v 8.031161 -74.699997 -47.729034
v 15.816510 -74.699997 -49.123905
v 22.519430 -74.699997 -49.321495
v 29.223471 -74.699997 -49.476753
v 51.702911 -74.699997 -48.602474
v 8.031161 -74.699997 47.729027
v 15.816510 -74.699997 49.123898
v 22.519430 -74.699997 49.321487
v 51.702911 -74.699997 48.602467
v 53.026520 -74.699997 41.749996
v 53.026520 -74.699997 -41.750004
v 53.026520 -74.699997 -49.952812
v 55.000000 -74.699997 41.749996
v 55.000000 -74.699997 -41.750004
v 53.584202 -39.200001 4.999998
v 55.000000 -39.200001 4.999998
v 53.636028 -35.900002 4.999999
v 55.000000 -35.900002 4.999999
v 53.584202 -39.200001 -5.000002
v 55.000000 -39.200001 -5.000002
v 53.636028 -35.900002 -5.000001
v 55.000000 -35.900002 -5.000001
v 52.860001 -85.300003 -31.150003
v 55.000000 -85.300003 -31.150003
v 52.982529 -77.500000 -31.150003
v 55.000000 -77.500000 -31.150003
v 52.860001 -85.300003 -41.750004
v 55.000000 -85.300003 -41.750004
v 52.982529 -77.500000 31.149996
v 55.000000 -77.500000 31.149996
v 52.860001 -85.300003 31.149996
v 55.000000 -85.300003 31.149996
v 52.860001 -85.300003 41.749996
v 55.000000 -85.300003 41.749996
v 52.804489 -88.833702 -49.726303
v 52.769409 -91.066422 -38.807735
v 52.743031 -92.745941 -27.790504
v 52.725410 -93.868011 -16.702614
v 52.716579 -94.429749 -5.572262
v 52.716579 -94.429749 5.572254
v 52.725410 -93.868011 16.702606
v 52.743031 -92.745941 27.790497
v 52.769409 -91.066422 38.807728
v 29.227940 -88.942421 -49.253063
v 51.702911 -73.000000 48.602467
v 8.031161 -73.000000 47.729027
v 51.702911 -73.000000 -48.602474
v 8.031161 -73.000000 -47.729034
v 2.267991 -73.000000 -48.346832
v -3.527704 -73.000000 -48.271275
v -9.272807 -73.000000 -47.503426
v -14.884920 -73.000000 -46.054302
v -20.283569 -73.000000 -43.944702
v -25.391319 -73.000000 -41.204872
v -30.134920 -73.000000 -37.874092
v -34.446331 -73.000000 -34.000153
v -38.263741 -73.000000 -29.638594
v -41.532391 -73.000000 -24.851974
v -44.205399 -73.000000 -19.708944
v -46.244438 -73.000000 -14.283253
v -47.620270 -73.000000 -8.652720
v -48.313148 -73.000000 -2.898097
v -48.313148 -73.000000 2.898091
v -47.620270 -73.000000 8.652715
v -46.244438 -73.000000 14.283247
v -44.205399 -73.000000 19.708937
v -41.532391 -73.000000 24.851967
v -38.263741 -73.000000 29.638586
v -34.446331 -73.000000 34.000145
v -30.134920 -73.000000 37.874084
v -25.391319 -73.000000 41.204865
v -20.283569 -73.000000 43.944695
v -14.884920 -73.000000 46.054295
v -9.272807 -73.000000 47.503418
v -3.527704 -73.000000 48.271267
v 2.267991 -73.000000 48.346825
vn -0.0000 -1.0000 -0.0000
vn 1.0000 -0.0000 -0.0000
vn -1.0000 -0.0000 -0.0000
vn -0.0200 -0.0157 0.9997
vn -0.0000 1.0000 -0.0000
vn -0.0000 -0.0000 1.0000
vn -0.0000 -0.0000 -1.0000
vn 0.0002 -0.9763 0.2164
vn 0.0001 -0.9758 0.2185
vn 0.0004 -0.9769 0.2136
vn 0.0010 -0.9782 0.2078
vn 0.0022 -0.9797 0.2003
vn 0.0025 -0.9795 0.2016
vn 0.0006 -0.9822 0.1880
vn -0.0002 -0.9845 0.1757
vn 0.0005 -0.9864 0.1642
vn 0.0037 -0.9886 0.1507
vn 0.0055 -0.9879 0.1551
vn 0.0004 -0.9907 0.1359
vn -0.0003 -0.9928 0.1195
vn 0.0044 -0.9945 0.1050
vn 0.0083 -0.9949 0.1007
vn 0.0001 -0.9964 0.0849
vn -0.0001 -0.9978 0.0664
vn 0.0132 -0.9986 0.0504
vn -0.0025 -0.9996 0.0280
vn 0.0049 -0.9999 0.0097
vn 0.0213 -0.9998 -0.0000
vn 0.0049 -0.9999 -0.0097
vn -0.0025 -0.9996 -0.0280
vn 0.0132 -0.9986 -0.0504
vn -0.0001 -0.9978 -0.0664
vn 0.0001 -0.9964 -0.0849
vn 0.0083 -0.9949 -0.1007
vn 0.0044 -0.9945 -0.1050
vn -0.0003 -0.9928 -0.1195
vn 0.0004 -0.9907 -0.1359
vn 0.0043 -0.9886 -0.1507
vn 0.0032 -0.9882 -0.1530
vn 0.0005 -0.9864 -0.1642
vn -0.0002 -0.9845 -0.1757
vn 0.0006 -0.9822 -0.1880
vn 0.0023 -0.9797 -0.2003
vn 0.0021 -0.9796 -0.2010
vn 0.0010 -0.9782 -0.2078
vn 0.0004 -0.9769 -0.2136
vn 0.0001 -0.9758 -0.2185
vn 0.0002 -0.9763 -0.2164
vn -0.0200 -0.0000 0.9998
vn -0.0200 -0.0000 -0.9998
vn 0.1066 -0.0000 -0.9943
vn -0.0130 -0.0000 -0.9999
vn -0.1325 -0.0000 -0.9912
vn -0.2500 -0.0000 -0.9682
vn -0.3640 -0.0000 -0.9314
vn -0.4727 -0.0000 -0.8812
vn -0.5747 -0.0000 -0.8184
vn -0.6684 -0.0000 -0.7438
vn -0.7525 -0.0000 -0.6586
vn -0.8258 -0.0000 -0.5639
vn -0.8873 -0.0000 -0.4612
vn -0.9361 -0.0000 -0.3518
vn -0.9714 -0.0000 -0.2374
vn -0.9928 -0.0000 -0.1195
vn -0.9928 -0.0000 0.1195
vn -0.9714 -0.0000 0.2374
vn -0.9361 -0.0000 0.3518
vn -0.8873 -0.0000 0.4612
vn -0.8258 -0.0000 0.5639
vn -0.7525 -0.0000 0.6586
vn -0.6684 -0.0000 0.7438
vn -0.5747 -0.0000 0.8184
vn -0.4727 -0.0000 0.8812
vn -0.3640 -0.0000 0.9314
vn -0.2500 -0.0000 0.9682
vn -0.1325 -0.0000 0.9912
vn -0.0130 -0.0000 0.9999
vn 0.1066 -0.0000 0.9943
s 0
f 1//1 2//1 3//1
f 3//1 2//1 4//1
f 4//1 2//1 5//1
f 4//1 5//1 6//1
f 1//2 3//2 7//2
f 7//2 3//2 8//2
f 9//2 10//2 11//2
f 11//2 10//2 12//2
f 6//3 13//3 4//3
f 4//3 13//3 14//3
f 15//3 16//3 17//3
f 17//3 16//3 18//3
f 15//1 19//1 16//1
f 16//1 19//1 20//1
f 16//1 20//1 11//1
f 11//1 20//1 9//1
f 21//1 22//1 23//1
f 23//1 22//1 24//1
f 21//3 25//3 22//3
f 22//3 25//3 26//3
f 27//2 28//2 29//2
f 29//2 28//2 30//2
f 29//2 30//2 31//2
f 31//2 30//2 32//2
f 31//2 32//2 33//2
f 33//2 32//2 34//2
f 28//2 27//2 35//2
f 35//2 27//2 36//2
f 35//2 36//2 37//2
f 38//2 39//2 40//2
f 40//2 39//2 41//2
f 40//2 41//2 42//2
f 42//2 41//2 43//2
f 42//2 43//2 44//2
f 44//2 43//2 45//2
f 39//2 38//2 46//2
f 46//2 38//2 47//2
f 46//2 47//2 48//2
f 23//2 24//2 49//2
f 49//2 24//2 50//2
f 51//2 52//2 53//2
f 53//2 52//2 54//2
f 55//3 56//3 57//3
f 57//3 56//3 58//3
f 55//1 51//1 56//1
f 56//1 51//1 53//1
f 52//4 51//4 120//4
f 120//4 51//4 121//4
f 121//4 51//4 55//4
f 121//4 55//4 122//4
f 122//4 55//4 123//4
f 123//4 55//4 57//4
f 85//5 124//5 10//5
f 10//5 124//5 125//5
f 10//5 125//5 12//5
f 12//5 125//5 18//5
f 18//5 125//5 126//5
f 18//5 126//5 17//5
f 17//5 126//5 127//5
f 17//5 127//5 84//5
f 84//5 127//5 128//5
f 84//5 128//5 83//5
f 83//5 128//5 129//5
f 83//5 129//5 82//5
f 82//5 129//5 130//5
f 82//5 130//5 81//5
f 81//5 130//5 131//5
f 81//5 131//5 80//5
f 80//5 131//5 132//5
f 80//5 132//5 79//5
f 79//5 132//5 133//5
f 79//5 133//5 78//5
f 78//5 133//5 134//5
f 78//5 134//5 77//5
f 77//5 134//5 135//5
f 77//5 135//5 76//5
f 76//5 135//5 136//5
f 76//5 136//5 75//5
f 75//5 136//5 137//5
f 75//5 137//5 74//5
f 74//5 137//5 73//5
f 73//5 137//5 138//5
f 73//5 138//5 72//5
f 72//5 138//5 139//5
f 72//5 139//5 71//5
f 71//5 139//5 140//5
f 71//5 140//5 70//5
f 70//5 140//5 141//5
f 70//5 141//5 69//5
f 69//5 141//5 142//5
f 69//5 142//5 68//5
f 68//5 142//5 143//5
f 68//5 143//5 67//5
f 67//5 143//5 144//5
f 67//5 144//5 66//5
f 66//5 144//5 145//5
f 66//5 145//5 65//5
f 65//5 145//5 146//5
f 65//5 146//5 64//5
f 64//5 146//5 147//5
f 64//5 147//5 63//5
f 63//5 147//5 148//5
f 63//5 148//5 13//5
f 13//5 148//5 149//5
f 13//5 149//5 14//5
f 14//5 149//5 150//5
f 14//5 150//5 8//5
f 8//5 150//5 7//5
f 7//5 150//5 151//5
f 7//5 151//5 62//5
f 62//5 151//5 59//5
f 59//5 151//5 152//5
f 59//5 152//5 60//5
f 60//5 152//5 153//5
f 153//5 152//5 154//5
f 154//5 152//5 155//5
f 155//5 152//5 156//5
f 155//5 156//5 25//5
f 25//5 156//5 49//5
f 25//5 49//5 26//5
f 26//5 49//5 50//5
f 85//5 86//5 124//5
f 124//5 86//5 157//5
f 157//5 86//5 88//5
f 157//5 88//5 158//5
f 158//5 159//5 157//5
f 157//5 159//5 123//5
f 157//5 123//5 160//5
f 160//5 123//5 57//5
f 160//5 57//5 52//5
f 52//5 57//5 58//5
f 52//5 58//5 54//5
f 52//5 120//5 160//5
f 160//5 120//5 161//5
f 160//5 161//5 156//5
f 156//5 161//5 162//5
f 156//5 162//5 163//5
f 161//5 164//5 162//5
f 162//5 164//5 165//5
f 163//5 49//5 156//5
f 166//6 167//6 168//6
f 168//6 167//6 169//6
f 170//1 171//1 166//1
f 166//1 171//1 167//1
f 168//5 169//5 172//5
f 172//5 169//5 173//5
f 170//7 172//7 171//7
f 171//7 172//7 173//7
f 171//2 173//2 167//2
f 167//2 173//2 169//2
f 174//6 175//6 176//6
f 176//6 175//6 177//6
f 178//1 179//1 174//1
f 174//1 179//1 175//1
f 178//7 162//7 179//7
f 179//7 162//7 165//7
f 176//1 177//1 180//1
f 180//1 177//1 181//1
f 182//7 180//7 183//7
f 183//7 180//7 181//7
f 182//1 183//1 184//1
f 184//1 183//1 185//1
f 184//6 185//6 161//6
f 161//6 185//6 164//6
f 122//8 87//8 121//8
f 121//9 87//9 89//9
f 121//10 89//10 90//10
f 90//11 91//11 121//11
f 121//12 91//12 194//12
f 194//13 91//13 92//13
f 194//14 92//14 93//14
f 93//15 94//15 194//15
f 194//16 94//16 95//16
f 194//17 95//17 193//17
f 193//18 95//18 96//18
f 193//19 96//19 97//19
f 97//20 98//20 193//20
f 193//21 98//21 99//21
f 193//22 99//22 192//22
f 192//23 99//23 100//23
f 192//24 100//24 101//24
f 101//25 102//25 192//25
f 192//25 102//25 191//25
f 191//26 102//26 103//26
f 191//27 103//27 104//27
f 191//28 104//28 190//28
f 190//29 104//29 105//29
f 190//30 105//30 106//30
f 106//31 107//31 190//31
f 190//31 107//31 189//31
f 189//32 107//32 108//32
f 189//33 108//33 109//33
f 189//34 109//34 188//34
f 188//35 109//35 110//35
f 188//36 110//36 111//36
f 111//37 112//37 188//37
f 188//38 112//38 187//38
f 187//39 112//39 113//39
f 187//40 113//40 114//40
f 114//41 115//41 187//41
f 187//42 115//42 116//42
f 187//43 116//43 186//43
f 186//44 116//44 117//44
f 186//45 117//45 118//45
f 118//46 119//46 186//46
f 186//47 119//47 61//47
f 186//48 61//48 195//48
f 160//49 196//49 157//49
f 157//49 196//49 197//49
f 156//2 198//2 160//2
f 160//2 198//2 196//2
f 152//50 199//50 156//50
f 156//50 199//50 198//50
f 152//51 151//51 199//51
f 199//51 151//51 200//51
f 200//52 151//52 150//52
f 200//52 150//52 201//52
f 201//53 150//53 149//53
f 201//53 149//53 202//53
f 202//54 149//54 148//54
f 202//54 148//54 203//54
f 203//55 148//55 147//55
f 203//55 147//55 204//55
f 204//56 147//56 146//56
f 204//56 146//56 205//56
f 205//57 146//57 145//57
f 205//57 145//57 206//57
f 206//58 145//58 144//58
f 206//58 144//58 207//58
f 207//59 144//59 143//59
f 207//59 143//59 208//59
f 208//60 143//60 142//60
f 208//60 142//60 209//60
f 209//61 142//61 141//61
f 209//61 141//61 210//61
f 210//62 141//62 140//62
f 210//62 140//62 211//62
f 211//63 140//63 139//63
f 211//63 139//63 212//63
f 212//64 139//64 138//64
f 212//64 138//64 213//64
f 213//3 138//3 137//3
f 213//3 137//3 214//3
f 214//65 137//65 136//65
f 214//65 136//65 215//65
f 215//66 136//66 135//66
f 215//66 135//66 216//66
f 216//67 135//67 134//67
f 216//67 134//67 217//67
f 217//68 134//68 133//68
f 217//68 133//68 218//68
f 218//69 133//69 132//69
f 218//69 132//69 219//69
f 219//70 132//70 131//70
f 219//70 131//70 220//70
f 220//71 131//71 130//71
f 220//71 130//71 221//71
f 221//72 130//72 129//72
f 221//72 129//72 222//72
f 222//73 129//73 128//73
f 222//73 128//73 223//73
f 223//74 128//74 127//74
f 223//74 127//74 224//74
f 224//75 127//75 126//75
f 224//75 126//75 225//75
f 225//76 126//76 125//76
f 225//76 125//76 226//76
f 226//77 125//77 124//77
f 226//77 124//77 227//77
f 227//78 124//78 157//78
f 227//78 157//78 197//78
