# generated by roqsim_scenes/tools (world-space, metres, Z-up)
v 2.913412 1.016000 1.532000
v 2.326825 0.000000 -0.500000
v 2.326825 0.000000 1.532000
v 2.913412 1.016000 -0.500000
v 2.326825 0.000000 1.532000
v 2.913412 -1.016000 -0.500000
v 2.913412 -1.016000 1.532000
v 2.326825 0.000000 -0.500000
v 2.913412 -1.016000 1.532000
v 4.086588 -1.016000 -0.500000
v 4.086588 -1.016000 1.532000
v 2.913412 -1.016000 -0.500000
v 4.086588 -1.016000 1.532000
v 4.673175 0.000000 -0.500000
v 4.673175 0.000000 1.532000
v 4.086588 -1.016000 -0.500000
v 4.673175 0.000000 1.532000
v 4.086588 1.016000 -0.500000
v 4.086588 1.016000 1.532000
v 4.673175 0.000000 -0.500000
v 4.086588 1.016000 1.532000
v 2.913412 1.016000 -0.500000
v 2.913412 1.016000 1.532000
v 4.086588 1.016000 -0.500000
v 2.326825 0.000000 1.532000
v 4.673175 0.000000 1.532000
v 2.913412 1.016000 1.532000
v 2.913412 -1.016000 1.532000
v 4.086588 -1.016000 1.532000
v 4.086588 1.016000 1.532000
v 2.326825 0.000000 -0.500000
v 4.086588 -1.016000 -0.500000
v 2.913412 -1.016000 -0.500000
v 4.673175 0.000000 -0.500000
v 2.913412 1.016000 -0.500000
v 4.086588 1.016000 -0.500000
f 1 2 3
f 2 1 4
f 5 6 7
f 6 5 8
f 9 10 11
f 10 9 12
f 13 14 15
f 14 13 16
f 17 18 19
f 18 17 20
f 21 22 23
f 22 21 24
f 25 26 27
f 25 28 29
f 29 26 25
f 27 26 30
f 31 32 33
f 32 31 34
f 34 35 36
f 34 31 35
