# generated by roqsim_scenes/tools (world-space, metres, Z-up)
v 1.466478 2.539995 -0.300000
v 1.466478 2.539995 0.970000
v 2.932938 -0.000011 0.970000
v 2.932938 -0.000011 -0.300000
v 2.932938 -0.000011 -0.300000
v 2.932938 -0.000011 0.970000
v 1.466460 -2.540005 0.970000
v 1.466460 -2.540005 -0.300000
v 1.466460 -2.540005 -0.300000
v 1.466460 -2.540005 0.970000
v -1.466478 -2.539995 0.970000
v -1.466478 -2.539995 -0.300000
v -1.466478 -2.539995 -0.300000
v -1.466478 -2.539995 0.970000
v -2.932938 0.000011 0.970000
v -2.932938 0.000011 -0.300000
v -2.932938 0.000011 -0.300000
v -2.932938 0.000011 0.970000
v -1.466460 2.540005 0.970000
v -1.466460 2.540005 -0.300000
v 1.649770 -2.857506 0.970000
v 3.299555 -0.000012 0.970000
v 3.299555 -0.000012 -0.300000
v 1.649770 -2.857506 -0.300000
v 3.299555 -0.000012 0.970000
v 1.649791 2.857494 0.970000
v 1.649791 2.857494 -0.300000
v 3.299555 -0.000012 -0.300000
v 1.649791 2.857494 0.970000
v -1.649770 2.857506 0.970000
v -1.649770 2.857506 -0.300000
v 1.649791 2.857494 -0.300000
v -1.649770 2.857506 0.970000
v -3.299555 0.000012 0.970000
v -3.299555 0.000012 -0.300000
v -1.649770 2.857506 -0.300000
v -3.299555 0.000012 0.970000
v -1.649791 -2.857494 0.970000
v -1.649791 -2.857494 -0.300000
v -3.299555 0.000012 -0.300000
v -1.649791 -2.857494 -0.300000
v 1.649770 -2.857506 0.970000
v 1.649770 -2.857506 -0.300000
v -1.649791 -2.857494 0.970000
v -1.466460 2.540005 -0.300000
v -1.466460 2.540005 0.970000
v 1.466478 2.539995 0.970000
v 1.466478 2.539995 -0.300000
v -2.932938 0.000011 0.970000
v -3.299555 0.000012 0.970000
v -1.466460 2.540005 0.970000
v -1.649770 2.857506 0.970000
v 1.649791 2.857494 0.970000
v -1.649791 -2.857494 0.970000
v -1.466478 -2.539995 0.970000
v 1.466460 -2.540005 0.970000
v 2.932938 -0.000011 0.970000
v 3.299555 -0.000012 0.970000
v 1.466478 2.539995 0.970000
v 1.649770 -2.857506 0.970000
v -3.299555 0.000012 -0.300000
v -1.466478 -2.539995 -0.300000
v -2.932938 0.000011 -0.300000
v 1.466460 -2.540005 -0.300000
v 3.299555 -0.000012 -0.300000
v 2.932938 -0.000011 -0.300000
v -1.649791 -2.857494 -0.300000
v 1.649770 -2.857506 -0.300000
v 1.466478 2.539995 -0.300000
v 1.649791 2.857494 -0.300000
v -1.466460 2.540005 -0.300000
v -1.649770 2.857506 -0.300000
f 1 3 2
f 1 4 3
f 5 7 6
f 5 8 7
f 9 11 10
f 9 12 11
f 13 15 14
f 13 16 15
f 17 19 18
f 17 20 19
f 21 23 22
f 23 21 24
f 25 27 26
f 27 25 28
f 29 31 30
f 31 29 32
f 33 35 34
f 35 33 36
f 37 39 38
f 39 37 40
f 41 43 42
f 41 42 44
f 45 47 46
f 45 48 47
f 49 51 50
f 51 53 52
f 54 55 50
f 56 58 57
f 49 50 55
f 58 53 59
f 59 57 58
f 54 60 56
f 58 56 60
f 54 56 55
f 50 51 52
f 53 51 59
f 61 63 62
f 64 66 65
f 64 68 67
f 69 70 65
f 67 62 64
f 65 68 64
f 61 62 67
f 61 71 63
f 70 71 72
f 61 72 71
f 65 66 69
f 70 69 71
