# generated by roqsim_scenes/tools (world-space, metres, Z-up)
v 1.250000 -1.100000 0.000000
v 1.244889 -1.061177 0.000000
v 1.229904 -1.025000 0.000000
v 1.206066 -0.993934 0.000000
v 1.175000 -0.970096 0.000000
v 1.138823 -0.955111 0.000000
v 1.100000 -0.950000 0.000000
v 1.061177 -0.955111 0.000000
v 1.025000 -0.970096 0.000000
v 0.993934 -0.993934 0.000000
v 0.970096 -1.025000 0.000000
v 0.955111 -1.061177 0.000000
v 0.950000 -1.100000 0.000000
v 0.955111 -1.138823 0.000000
v 0.970096 -1.175000 0.000000
v 0.993934 -1.206066 0.000000
v 1.025000 -1.229904 0.000000
v 1.061177 -1.244889 0.000000
v 1.100000 -1.250000 0.000000
v 1.138823 -1.244889 0.000000
v 1.175000 -1.229904 0.000000
v 1.206066 -1.206066 0.000000
v 1.229904 -1.175000 0.000000
v 1.244889 -1.138823 0.000000
v 1.250000 -1.100000 0.500000
v 1.244889 -1.061177 0.500000
v 1.229904 -1.025000 0.500000
v 1.206066 -0.993934 0.500000
v 1.175000 -0.970096 0.500000
v 1.138823 -0.955111 0.500000
v 1.100000 -0.950000 0.500000
v 1.061177 -0.955111 0.500000
v 1.025000 -0.970096 0.500000
v 0.993934 -0.993934 0.500000
v 0.970096 -1.025000 0.500000
v 0.955111 -1.061177 0.500000
v 0.950000 -1.100000 0.500000
v 0.955111 -1.138823 0.500000
v 0.970096 -1.175000 0.500000
v 0.993934 -1.206066 0.500000
v 1.025000 -1.229904 0.500000
v 1.061177 -1.244889 0.500000
v 1.100000 -1.250000 0.500000
v 1.138823 -1.244889 0.500000
v 1.175000 -1.229904 0.500000
v 1.206066 -1.206066 0.500000
v 1.229904 -1.175000 0.500000
v 1.244889 -1.138823 0.500000
v 1.100000 -1.100000 0.000000
v 1.100000 -1.100000 0.500000
f 1 2 26
f 1 26 25
f 49 2 1
f 50 25 26
f 2 3 27
f 2 27 26
f 49 3 2
f 50 26 27
f 3 4 28
f 3 28 27
f 49 4 3
f 50 27 28
f 4 5 29
f 4 29 28
f 49 5 4
f 50 28 29
f 5 6 30
f 5 30 29
f 49 6 5
f 50 29 30
f 6 7 31
f 6 31 30
f 49 7 6
f 50 30 31
f 7 8 32
f 7 32 31
f 49 8 7
f 50 31 32
f 8 9 33
f 8 33 32
f 49 9 8
f 50 32 33
f 9 10 34
f 9 34 33
f 49 10 9
f 50 33 34
f 10 11 35
f 10 35 34
f 49 11 10
f 50 34 35
f 11 12 36
f 11 36 35
f 49 12 11
f 50 35 36
f 12 13 37
f 12 37 36
f 49 13 12
f 50 36 37
f 13 14 38
f 13 38 37
f 49 14 13
f 50 37 38
f 14 15 39
f 14 39 38
f 49 15 14
f 50 38 39
f 15 16 40
f 15 40 39
f 49 16 15
f 50 39 40
f 16 17 41
f 16 41 40
f 49 17 16
f 50 40 41
f 17 18 42
f 17 42 41
f 49 18 17
f 50 41 42
f 18 19 43
f 18 43 42
f 49 19 18
f 50 42 43
f 19 20 44
f 19 44 43
f 49 20 19
f 50 43 44
f 20 21 45
f 20 45 44
f 49 21 20
f 50 44 45
f 21 22 46
f 21 46 45
f 49 22 21
f 50 45 46
f 22 23 47
f 22 47 46
f 49 23 22
f 50 46 47
f 23 24 48
f 23 48 47
f 49 24 23
f 50 47 48
f 24 1 25
f 24 25 48
f 49 1 24
f 50 48 25
