# Blender 4.0.2
# www.blender.org
o base__m2
v -0.260525 0.110000 0.135473
v -0.261940 0.110000 0.134059
v -0.261940 0.106000 0.134059
v -0.260525 0.106000 0.135473
v -0.264484 0.116518 0.131515
v -0.269319 0.119466 0.126680
v -0.274417 0.117607 0.121582
v -0.277641 0.111723 0.118357
v -0.277641 0.104277 0.118357
v -0.277535 0.104277 0.118251
v -0.274417 0.098392 0.121582
v -0.269319 0.096534 0.126680
v -0.264484 0.099482 0.131515
v -0.289777 0.120403 0.106009
v -0.291401 0.107144 0.104386
v -0.289314 0.094015 0.106473
v -0.283835 0.083014 0.111952
v -0.257137 0.076454 0.138650
v -0.256653 0.076607 0.138650
v -0.236462 0.107963 0.138650
v -0.284797 0.131775 0.111202
v -0.289886 0.120394 0.106113
v -0.291506 0.107124 0.104492
v -0.289412 0.093988 0.106587
v -0.283921 0.082987 0.112078
v -0.275870 0.075796 0.120129
v -0.266486 0.073512 0.129512
v -0.257199 0.076481 0.138800
v -0.256291 0.076775 0.138800
v -0.256532 0.076663 0.138700
v -0.256412 0.076718 0.138750
v -0.245794 0.084403 0.138800
v -0.245962 0.131775 0.138800
v -0.238948 0.120858 0.138800
v -0.238857 0.095369 0.138800
v -0.236463 0.108122 0.138800
v -0.260349 0.109933 0.135650
v -0.260219 0.109750 0.135780
v -0.260172 0.109500 0.135827
v -0.260172 0.106500 0.135827
v -0.260219 0.106250 0.135780
v -0.260349 0.106067 0.135650
v -0.263861 0.132321 0.132138
v -0.263609 0.138727 0.132390
v -0.273958 0.132058 0.122041
v -0.273734 0.139126 0.122265
v -0.253033 0.132228 0.138800
v -0.252812 0.135197 0.138800
v -0.257199 0.132495 0.138800
v -0.257199 0.137390 0.138800
v -0.268394 0.132203 0.127605
v -0.267897 0.139055 0.128102
v -0.272335 0.132100 0.123664
v -0.271330 0.139097 0.124669
v -0.258903 0.137745 0.137095
v -0.259153 0.132444 0.136846
v -0.261349 0.132387 0.134650
v -0.261645 0.138317 0.134354
v -0.262099 0.132367 0.133900
v -0.262578 0.138512 0.133421
v -0.252898 0.132219 0.138800
v -0.252718 0.135151 0.138800
v -0.266401 0.132255 0.129598
v -0.267228 0.139047 0.128771
v -0.264856 0.132295 0.131143
v -0.265014 0.139021 0.130985
v -0.252512 0.132195 0.138800
v -0.252323 0.134953 0.138800
v -0.275134 0.132027 0.120865
v -0.275488 0.139147 0.120510
v -0.269285 0.132180 0.126714
v -0.269267 0.139072 0.126732
v -0.251722 0.132144 0.138800
v -0.251523 0.134554 0.138800
v -0.258870 0.137738 0.137128
v -0.259114 0.132445 0.136884
v -0.270206 0.132156 0.125793
v -0.270692 0.139089 0.125307
v -0.262551 0.138507 0.133448
v -0.262053 0.132369 0.133946
v -0.250391 0.133988 0.138800
v -0.250211 0.132047 0.138800
vn 0.5590 0.6124 0.5590
vn 0.7071 -0.0000 -0.7071
vn -0.6062 0.5345 -0.5890
vn -0.6876 0.1706 -0.7057
vn -0.7159 0.1701 -0.6771
vn -0.6722 -0.2192 -0.7072
vn -0.7134 -0.2199 -0.6654
vn -0.5479 -0.5754 -0.6072
vn -0.6124 -0.5761 -0.5414
vn 0.0960 -0.9719 0.2147
vn 0.2890 -0.9142 0.2840
vn 0.2932 -0.9056 0.3065
vn 0.0256 -0.6400 0.7680
vn -0.4711 0.2314 0.8512
vn -0.0000 -0.0000 1.0000
vn 0.9633 -0.1809 0.1981
vn -0.7069 0.0002 0.7074
vn -0.7099 -0.0031 0.7043
vn -0.7071 -0.0000 0.7071
vn -0.6978 -0.0008 0.7162
vn -0.7091 -0.0004 0.7051
vn -0.7070 -0.0000 0.7072
vn -0.7069 -0.0002 0.7074
vn -0.7072 0.0001 0.7071
vn -0.7071 0.0001 0.7071
vn -0.7071 -0.0001 0.7071
vn -0.7072 -0.0001 0.7071
vn -0.7073 -0.0000 0.7069
vn -0.7074 -0.0000 0.7068
vn -0.7072 -0.0000 0.7070
vn -0.0001 -0.0000 1.0000
vn -0.6979 -0.0008 0.7162
vn -0.7072 0.0001 0.7070
vn 0.0001 -0.0000 1.0000
vn -0.7073 0.0001 0.7069
s 0
f 10//1 9//1 11//1
f 14//2 10//2 15//2
f 15//2 10//2 16//2
f 16//2 10//2 17//2
f 21//3 14//3 22//3
f 22//4 14//4 15//4
f 22//5 15//5 23//5
f 23//6 15//6 16//6
f 23//7 16//7 24//7
f 24//8 16//8 17//8
f 24//9 17//9 25//9
f 27//10 18//10 28//10
f 28//11 18//11 19//11
f 28//12 19//12 29//12
f 29//13 19//13 30//13
f 29//14 30//14 31//14
f 28//15 47//15 49//15
f 29//15 47//15 28//15
f 33//15 32//15 34//15
f 34//15 32//15 35//15
f 34//15 35//15 36//15
f 35//16 20//16 36//16
f 2//17 1//17 5//17
f 5//18 1//18 37//18
f 5//19 59//19 43//19
f 38//20 76//20 56//20
f 28//19 39//19 40//19
f 28//19 40//19 41//19
f 41//19 42//19 28//19
f 28//21 42//21 4//21
f 28//22 4//22 13//22
f 13//23 4//23 3//23
f 28//19 13//19 27//19
f 27//19 13//19 12//19
f 27//19 12//19 26//19
f 26//19 12//19 11//19
f 26//19 11//19 25//19
f 25//24 11//24 9//24
f 25//19 9//19 24//19
f 24//19 9//19 8//19
f 24//25 8//25 23//25
f 23//26 8//26 22//26
f 22//19 8//19 21//19
f 21//27 8//27 7//27
f 68//15 61//15 67//15
f 67//15 61//15 29//15
f 81//15 73//15 82//15
f 73//15 32//15 82//15
f 72//19 77//19 71//19
f 71//19 77//19 6//19
f 64//19 51//19 63//19
f 63//19 6//19 5//19
f 44//19 65//19 43//19
f 43//19 65//19 5//19
f 50//28 76//28 49//28
f 49//19 39//19 28//19
f 70//25 21//25 69//25
f 69//19 21//19 7//19
f 79//29 59//29 80//29
f 80//30 37//30 38//30
f 55//25 57//25 56//25
f 56//19 57//19 38//19
f 46//19 53//19 54//19
f 53//19 45//19 7//19
f 49//15 48//15 50//15
f 47//31 62//31 48//31
f 74//15 67//15 73//15
f 73//15 67//15 29//15
f 33//15 81//15 82//15
f 82//15 32//15 33//15
f 72//19 51//19 52//19
f 51//19 71//19 6//19
f 46//19 69//19 45//19
f 45//19 69//19 7//19
f 76//32 55//32 56//32
f 66//19 63//19 65//19
f 65//19 63//19 5//19
f 43//19 60//19 44//19
f 58//19 80//19 57//19
f 57//19 80//19 38//19
f 54//19 77//19 78//19
f 53//19 6//19 77//19
f 29//31 61//31 47//31
f 5//19 37//19 59//19
f 38//22 39//22 76//22
f 68//15 62//15 61//15
f 81//15 74//15 73//15
f 73//15 29//15 32//15
f 72//19 78//19 77//19
f 64//19 52//19 51//19
f 63//19 51//19 6//19
f 44//19 66//19 65//19
f 50//28 75//28 76//28
f 49//28 76//28 39//28
f 79//33 60//33 59//33
f 80//26 59//26 37//26
f 55//22 58//22 57//22
f 46//19 45//19 53//19
f 49//15 47//15 48//15
f 47//34 61//34 62//34
f 74//15 68//15 67//15
f 72//19 71//19 51//19
f 46//35 70//35 69//35
f 76//30 75//30 55//30
f 66//19 64//19 63//19
f 43//19 59//19 60//19
f 58//19 79//19 80//19
f 54//19 53//19 77//19
f 53//19 7//19 6//19
