# Blender 4.0.2
# www.blender.org
o base__m5
v -0.269989 -0.100958 0.139799
v -0.283695 -0.100958 0.126092
v -0.268371 -0.108000 0.141417
v -0.285313 -0.108000 0.124475
v -0.269989 -0.115042 0.139799
v -0.283695 -0.115042 0.126092
v -0.274224 -0.119394 0.135563
v -0.279460 -0.119394 0.130328
v -0.274224 -0.096606 0.135563
v -0.279460 -0.096606 0.130328
vn -0.7071 -0.0000 0.7071
vn -0.7071 0.0001 0.7071
vn -0.7071 -0.0001 0.7071
vn -0.7070 0.0003 0.7072
s 0
f 1//1 2//1 3//1
f 3//2 2//2 4//2
f 3//1 4//1 5//1
f 5//3 4//3 6//3
f 5//3 6//3 7//3
f 7//4 6//4 8//4
f 9//4 10//4 1//4
f 1//3 10//3 2//3
