# Blender 4.0.2
# www.blender.org
o base__m0
v -0.256407 -0.262000 0.137400
v -0.295950 -0.262000 0.097857
v 0.256407 -0.262000 0.137400
v 0.295950 -0.262000 0.097857
v -0.165703 -0.262000 -0.026950
v 0.165703 -0.262000 -0.026950
v -0.295950 -0.262000 -0.018024
v -0.270025 -0.262000 -0.043950
v -0.182703 -0.262000 -0.043950
v 0.182703 -0.262000 -0.043950
v 0.270025 -0.262000 -0.043950
v 0.295950 -0.262000 -0.018024
v 0.256407 0.262000 0.137400
v 0.295950 0.262000 0.097857
v -0.256407 0.262000 0.137400
v -0.295950 0.262000 0.097857
v 0.295400 0.262000 0.093947
v -0.295400 0.262000 0.093947
v -0.295400 0.262000 0.096143
v 0.295400 0.262000 0.096143
v 0.295703 0.262000 0.095444
v 0.295888 0.262000 0.094706
v 0.295950 0.262000 0.093947
v 0.295950 0.262000 -0.018024
v 0.165703 0.262000 -0.026950
v -0.165703 0.262000 -0.026950
v -0.295950 0.262000 -0.018024
v -0.270025 0.262000 -0.043950
v -0.182703 0.262000 -0.043950
v 0.270025 0.262000 -0.043950
v 0.182703 0.262000 -0.043950
v -0.295950 0.262000 0.093947
v -0.295703 0.262000 0.095444
v -0.295888 0.262000 0.094706
v -0.260525 0.110000 0.135473
v -0.261940 0.110000 0.134059
v -0.260419 0.110000 0.135367
v -0.261834 0.110000 0.133953
v -0.261940 0.106000 0.134059
v -0.260525 0.106000 0.135473
v -0.261834 0.106000 0.133953
v -0.264484 0.116518 0.131515
v -0.264378 0.116518 0.131409
v -0.269319 0.119466 0.126680
v -0.269213 0.119466 0.126574
v -0.274417 0.117607 0.121582
v -0.274310 0.117607 0.121476
v -0.277641 0.111723 0.118357
v -0.277535 0.111723 0.118251
v -0.277641 0.104277 0.118357
v -0.277535 0.104277 0.118251
v -0.274417 0.098392 0.121582
v -0.274310 0.098392 0.121476
v -0.269319 0.096534 0.126680
v -0.269213 0.096534 0.126574
v -0.264484 0.099482 0.131515
v -0.264378 0.099482 0.131409
v -0.260243 0.109933 0.135544
v -0.263162 0.147363 0.132624
v -0.260113 0.109750 0.135673
v -0.262178 0.151119 0.133609
v -0.257137 0.173931 0.138650
v -0.262210 0.155125 0.133577
v -0.263254 0.158849 0.132533
v -0.267541 0.142492 0.128245
v -0.265033 0.144354 0.130754
v -0.270795 0.142083 0.124992
v -0.269153 0.142043 0.126634
v -0.284691 0.131775 0.111096
v -0.275713 0.145785 0.120074
v -0.273496 0.143290 0.122291
v -0.289777 0.120403 0.106009
v -0.283835 0.083014 0.111952
v -0.275796 0.075814 0.119990
v -0.266422 0.073510 0.129365
v -0.257137 0.076454 0.138650
v -0.260243 0.106067 0.135544
v -0.260113 0.106250 0.135673
v -0.260066 0.106500 0.135721
v -0.260066 0.109500 0.135721
v -0.265172 0.161798 0.130614
v -0.269841 0.174000 0.125945
v -0.256987 0.174000 0.138800
v -0.267710 0.163579 0.128077
v -0.270530 0.163957 0.125256
v -0.273259 0.162881 0.122528
v -0.277266 0.171187 0.118521
v -0.275535 0.160495 0.120252
v -0.277055 0.157115 0.118732
v -0.282701 0.163500 0.113085
v -0.277618 0.153188 0.118168
v -0.284691 0.153000 0.111096
v -0.277150 0.149237 0.118636
v -0.256987 0.173947 0.138800
v -0.256653 0.076607 0.138650
v -0.245962 0.131775 0.138650
v -0.246014 0.084171 0.138650
v -0.238946 0.095147 0.138650
v -0.238918 0.120784 0.138650
v -0.236462 0.107963 0.138650
v -0.251657 0.173026 0.138650
v -0.247505 0.169336 0.138650
v -0.245962 0.164000 0.138650
v -0.284797 0.131775 0.111202
v -0.283921 0.082987 0.112078
v -0.275870 0.075796 0.120129
v -0.266486 0.073512 0.129512
v -0.256291 0.076775 0.138800
v -0.256532 0.076663 0.138700
v -0.256412 0.076718 0.138750
v -0.245962 0.164000 0.138800
v -0.247478 0.169293 0.138800
v -0.251566 0.172982 0.138800
v -0.257199 0.174000 0.138800
v -0.269947 0.174000 0.126051
v -0.249003 0.155095 0.138800
v -0.252252 0.155476 0.138800
v -0.252252 0.155095 0.138800
v -0.252252 0.154444 0.138800
v -0.252252 0.153420 0.138800
v -0.250986 0.154137 0.138800
v -0.249003 0.153877 0.138800
v -0.248999 0.156644 0.138800
v -0.248962 0.150690 0.138800
v -0.249082 0.153363 0.138800
v -0.249085 0.151346 0.138800
v -0.249297 0.152997 0.138800
v -0.249428 0.151871 0.138800
v -0.249614 0.152777 0.138800
v -0.249953 0.152220 0.138800
v -0.249999 0.152703 0.138800
v -0.250624 0.152347 0.138800
v -0.250563 0.152878 0.138800
v -0.250934 0.153443 0.138800
v -0.251292 0.152220 0.138800
v -0.252252 0.152665 0.138800
v -0.251816 0.151871 0.138800
v -0.252158 0.151344 0.138800
v -0.252281 0.150686 0.138800
v -0.250986 0.154444 0.138800
v -0.248962 0.163704 0.138800
v -0.249003 0.161650 0.138800
v -0.249003 0.160998 0.138800
v -0.249428 0.164878 0.138800
v -0.249085 0.164356 0.138800
v -0.252281 0.163704 0.138800
v -0.252158 0.164356 0.138800
v -0.251816 0.164878 0.138800
v -0.252281 0.142305 0.138800
v -0.252252 0.145124 0.138800
v -0.252252 0.146601 0.138800
v -0.250023 0.146601 0.138800
v -0.251895 0.141235 0.138800
v -0.251015 0.140718 0.138800
v -0.245794 0.084403 0.138800
v -0.245962 0.131775 0.138800
v -0.238948 0.120858 0.138800
v -0.238857 0.095369 0.138800
v -0.236463 0.108122 0.138800
v -0.248999 0.147252 0.138800
v -0.248999 0.146601 0.138800
v -0.248999 0.145124 0.138800
v -0.251233 0.145124 0.138800
v -0.252006 0.162752 0.138800
v -0.252252 0.161650 0.138800
v -0.251229 0.162176 0.138800
v -0.250014 0.162176 0.138800
v -0.249239 0.162752 0.138800
v -0.252252 0.160998 0.138800
v -0.252252 0.159607 0.138800
v -0.250869 0.159607 0.138800
v -0.251292 0.165224 0.138800
v -0.250624 0.165350 0.138800
v -0.249953 0.165224 0.138800
v -0.250624 0.164680 0.138800
v -0.250014 0.162926 0.138800
v -0.250177 0.164608 0.138800
v -0.249838 0.164407 0.138800
v -0.249665 0.163243 0.138800
v -0.249624 0.164099 0.138800
v -0.249549 0.163708 0.138800
v -0.251229 0.162926 0.138800
v -0.251069 0.164608 0.138800
v -0.251407 0.164407 0.138800
v -0.251582 0.163243 0.138800
v -0.251623 0.164099 0.138800
v -0.251698 0.163708 0.138800
v -0.249003 0.159607 0.138800
v -0.250339 0.160998 0.138800
v -0.250339 0.159607 0.138800
v -0.249003 0.158955 0.138800
v -0.248999 0.157403 0.138800
v -0.252252 0.158571 0.138800
v -0.252252 0.158955 0.138800
v -0.250869 0.160998 0.138800
v -0.251694 0.150663 0.138800
v -0.251492 0.150050 0.138800
v -0.251619 0.151077 0.138800
v -0.251406 0.151397 0.138800
v -0.251069 0.151604 0.138800
v -0.250944 0.150859 0.138800
v -0.250624 0.151677 0.138800
v -0.250446 0.150859 0.138800
v -0.250155 0.151594 0.138800
v -0.249981 0.149928 0.138800
v -0.249720 0.151246 0.138800
v -0.249669 0.150236 0.138800
v -0.249563 0.150690 0.138800
v -0.250944 0.149741 0.138800
v -0.250446 0.149099 0.138800
v -0.249981 0.149178 0.138800
v -0.249003 0.148574 0.138800
v -0.249227 0.149740 0.138800
v -0.252252 0.148574 0.138800
v -0.251015 0.149099 0.138800
v -0.251895 0.149616 0.138800
v -0.252252 0.147922 0.138800
v -0.252252 0.147252 0.138800
v -0.249003 0.147922 0.138800
v -0.252252 0.144474 0.138800
v -0.252158 0.142963 0.138800
v -0.251816 0.143489 0.138800
v -0.248999 0.144474 0.138800
v -0.248962 0.142309 0.138800
v -0.249227 0.141359 0.138800
v -0.250624 0.143966 0.138800
v -0.249953 0.143839 0.138800
v -0.249428 0.143490 0.138800
v -0.249563 0.142309 0.138800
v -0.249719 0.142864 0.138800
v -0.249669 0.141854 0.138800
v -0.249981 0.141545 0.138800
v -0.250153 0.143212 0.138800
v -0.250446 0.142476 0.138800
v -0.250624 0.143296 0.138800
v -0.250944 0.142476 0.138800
v -0.251069 0.143223 0.138800
v -0.251492 0.141669 0.138800
v -0.251406 0.143016 0.138800
v -0.251619 0.142695 0.138800
v -0.251694 0.142280 0.138800
v -0.250944 0.141360 0.138800
v -0.250446 0.140718 0.138800
v -0.249981 0.140796 0.138800
v -0.251292 0.143839 0.138800
v -0.249085 0.142965 0.138800
v -0.252252 0.156165 0.138800
v -0.252252 0.157888 0.138800
v -0.251633 0.156379 0.138800
v -0.251633 0.157672 0.138800
v -0.260349 0.109933 0.135650
v -0.263269 0.147363 0.132730
v -0.260219 0.109750 0.135780
v -0.262284 0.151119 0.133715
v -0.262316 0.155125 0.133683
v -0.263360 0.158849 0.132639
v -0.265278 0.161798 0.130720
v -0.267816 0.163579 0.128183
v -0.270636 0.163957 0.125363
v -0.273365 0.162881 0.122634
v -0.277372 0.171187 0.118627
v -0.275641 0.160495 0.120358
v -0.277161 0.157115 0.118838
v -0.282807 0.163500 0.113192
v -0.277725 0.153188 0.118274
v -0.284797 0.153000 0.111202
v -0.277256 0.149237 0.118742
v -0.275819 0.145785 0.120180
v -0.273602 0.143290 0.122397
v -0.270901 0.142083 0.125098
v -0.269259 0.142043 0.126740
v -0.267648 0.142492 0.128351
v -0.265139 0.144354 0.130860
v -0.260172 0.109500 0.135827
v -0.260172 0.106500 0.135827
v -0.260219 0.106250 0.135780
v -0.260349 0.106067 0.135650
v -0.252281 0.163704 0.138790
v -0.249239 0.162752 0.138790
v -0.248962 0.163704 0.138790
v -0.249085 0.164356 0.138790
v -0.249428 0.164878 0.138790
v -0.249953 0.165224 0.138790
v -0.250624 0.165350 0.138790
v -0.251292 0.165224 0.138790
v -0.251816 0.164878 0.138790
v -0.252158 0.164356 0.138790
v -0.249227 0.141359 0.138790
v -0.248962 0.142309 0.138790
v -0.249085 0.142965 0.138790
v -0.249428 0.143490 0.138790
v -0.249953 0.143839 0.138790
v -0.250624 0.143966 0.138790
v -0.251292 0.143839 0.138790
v -0.251816 0.143489 0.138790
v -0.252158 0.142963 0.138790
v -0.252281 0.142305 0.138790
v -0.251895 0.141235 0.138790
v -0.251112 0.156557 0.138800
v -0.251112 0.157496 0.138800
v -0.249754 0.157026 0.138800
v -0.252252 0.158571 0.138790
v -0.251633 0.157672 0.138790
v -0.252252 0.161650 0.138790
v -0.252252 0.159607 0.138790
v -0.252252 0.158955 0.138790
v -0.249003 0.158955 0.138790
v -0.249003 0.160998 0.138790
v -0.249003 0.161650 0.138790
v -0.248999 0.144474 0.138790
v -0.248999 0.145124 0.138790
v -0.248999 0.146601 0.138790
v -0.248999 0.147252 0.138790
v -0.252252 0.147252 0.138790
v -0.252252 0.148574 0.138790
v -0.249543 0.154444 0.138800
v -0.249543 0.153899 0.138800
v -0.249576 0.153664 0.138800
v -0.249670 0.153500 0.138800
v -0.249819 0.153404 0.138800
v -0.250014 0.153373 0.138800
v -0.250213 0.153404 0.138800
v -0.250463 0.153664 0.138800
v -0.250498 0.153899 0.138800
v -0.250498 0.154444 0.138800
v -0.252252 0.153420 0.138790
v -0.252252 0.152665 0.138790
v -0.249669 0.150236 0.138790
v -0.249227 0.149740 0.138790
v -0.250624 0.152347 0.138790
v -0.251292 0.152220 0.138790
v -0.251816 0.151871 0.138790
v -0.252158 0.151344 0.138790
v -0.252281 0.150686 0.138790
v -0.251895 0.149616 0.138790
v -0.255962 -0.042000 0.139001
v -0.250962 -0.043340 0.139001
v -0.255962 -0.042000 0.138851
v -0.250962 -0.043340 0.138851
v -0.247302 -0.047000 0.139001
v -0.247302 -0.047000 0.138851
v -0.245962 -0.052000 0.139001
v -0.245962 -0.052000 0.138851
v -0.269841 -0.174000 0.126147
v -0.257137 -0.174000 0.138851
v -0.269947 -0.174000 0.126253
v -0.257199 -0.174000 0.139001
v -0.255962 -0.174000 0.139001
v -0.255962 -0.174000 0.138851
v -0.269841 -0.042000 0.126147
v -0.269947 -0.042000 0.126253
v -0.257137 -0.042000 0.138851
v -0.257199 -0.042000 0.139001
v -0.245962 -0.164000 0.138851
v -0.247302 -0.169000 0.138851
v -0.250962 -0.172660 0.138851
v -0.258315 -0.145286 0.137885
v -0.257755 -0.145286 0.138445
v -0.257755 -0.146518 0.138445
v -0.257533 -0.146518 0.138390
v -0.257380 -0.146518 0.138821
v -0.257391 -0.146518 0.138465
v -0.257246 -0.146518 0.138536
v -0.257755 -0.144232 0.138445
v -0.257533 -0.144232 0.138390
v -0.257380 -0.144232 0.138821
v -0.257391 -0.144232 0.138465
v -0.257246 -0.144232 0.138536
v -0.257246 -0.144695 0.138536
v -0.257380 -0.144695 0.138821
v -0.257246 -0.142409 0.138536
v -0.257380 -0.142409 0.138821
v -0.258483 -0.141925 0.137717
v -0.258026 -0.141799 0.138174
v -0.257674 -0.141476 0.138527
v -0.257431 -0.140992 0.138770
v -0.257312 -0.141005 0.138508
v -0.257344 -0.140414 0.138856
v -0.257206 -0.140414 0.138555
v -0.258483 -0.138899 0.137717
v -0.258058 -0.139008 0.138142
v -0.257691 -0.139330 0.138509
v -0.257312 -0.139826 0.138508
v -0.257436 -0.139821 0.138764
v -0.250962 -0.172660 0.139001
v -0.247302 -0.169000 0.139001
v -0.245962 -0.164000 0.139001
v -0.248962 -0.162847 0.139001
v -0.251080 -0.161748 0.139001
v -0.252211 -0.161748 0.139001
v -0.252211 -0.161097 0.139001
v -0.252211 -0.159709 0.139001
v -0.251080 -0.161097 0.139001
v -0.250894 -0.158932 0.139001
v -0.250522 -0.159497 0.139001
v -0.249958 -0.159671 0.139001
v -0.248962 -0.159994 0.139001
v -0.249364 -0.159477 0.139001
v -0.249072 -0.159091 0.139001
v -0.248962 -0.158498 0.139001
v -0.248958 -0.156686 0.139001
v -0.248958 -0.154802 0.139001
v -0.248962 -0.151943 0.139001
v -0.248962 -0.154326 0.139001
v -0.248962 -0.160729 0.139001
v -0.248962 -0.162121 0.139001
v -0.250448 -0.161428 0.139001
v -0.250304 -0.111348 0.139001
v -0.250304 -0.112443 0.139001
v -0.249488 -0.111348 0.139001
v -0.249488 -0.112582 0.139001
v -0.248962 -0.113173 0.139001
v -0.248958 -0.112582 0.139001
v -0.248962 -0.114394 0.139001
v -0.248962 -0.143100 0.139001
v -0.248962 -0.144440 0.139001
v -0.250819 -0.112443 0.139001
v -0.252211 -0.113173 0.139001
v -0.251680 -0.112582 0.139001
v -0.252211 -0.112582 0.139001
v -0.250819 -0.111348 0.139001
v -0.251680 -0.111348 0.139001
v -0.252211 -0.110697 0.139001
v -0.252244 -0.103781 0.139001
v -0.252211 -0.109363 0.139001
v -0.252211 -0.108596 0.139001
v -0.248962 -0.110271 0.139001
v -0.248958 -0.110697 0.139001
v -0.248962 -0.109567 0.139001
v -0.248917 -0.103781 0.139001
v -0.248962 -0.108367 0.139001
v -0.248962 -0.107641 0.139001
v -0.248962 -0.106408 0.139001
v -0.251485 -0.106980 0.139001
v -0.251592 -0.148086 0.139001
v -0.252211 -0.146579 0.139001
v -0.252211 -0.148301 0.139001
v -0.252211 -0.148989 0.139001
v -0.252211 -0.150121 0.139001
v -0.249488 -0.149256 0.139001
v -0.249488 -0.150121 0.139001
v -0.251592 -0.146793 0.139001
v -0.252211 -0.145894 0.139001
v -0.252211 -0.144501 0.139001
v -0.252211 -0.143100 0.139001
v -0.248958 -0.147062 0.139001
v -0.251332 -0.145571 0.139001
v -0.251840 -0.145408 0.139001
v -0.252112 -0.145046 0.139001
v -0.248958 -0.147820 0.139001
v -0.249200 -0.145223 0.139001
v -0.248962 -0.149256 0.139001
v -0.248962 -0.151639 0.139001
v -0.249488 -0.151639 0.139001
v -0.249488 -0.151943 0.139001
v -0.252211 -0.152809 0.139001
v -0.249488 -0.152809 0.139001
v -0.249205 -0.063816 0.139001
v -0.249008 -0.064881 0.139001
v -0.248962 -0.063000 0.139001
v -0.249008 -0.066221 0.139001
v -0.248962 -0.099441 0.139001
v -0.248962 -0.100637 0.139001
v -0.249040 -0.101151 0.139001
v -0.249496 -0.064057 0.139001
v -0.249888 -0.064163 0.139001
v -0.250858 -0.064077 0.139001
v -0.250581 -0.063769 0.139001
v -0.250391 -0.063293 0.139001
v -0.250207 -0.062767 0.139001
v -0.250075 -0.062598 0.139001
v -0.249888 -0.063447 0.139001
v -0.249884 -0.062535 0.139001
v -0.249738 -0.063407 0.139001
v -0.249710 -0.062568 0.139001
v -0.249616 -0.063313 0.139001
v -0.249589 -0.062662 0.139001
v -0.249500 -0.062982 0.139001
v -0.251316 -0.064201 0.139001
v -0.252256 -0.064881 0.139001
v -0.251685 -0.064125 0.139001
v -0.251995 -0.063903 0.139001
v -0.252210 -0.063543 0.139001
v -0.252290 -0.063052 0.139001
v -0.252256 -0.066282 0.139001
v -0.252211 -0.099441 0.139001
v -0.252036 -0.062199 0.139001
v -0.252211 -0.060364 0.139001
v -0.252290 -0.059856 0.139001
v -0.252211 -0.059353 0.139001
v -0.251973 -0.058940 0.139001
v -0.251575 -0.058661 0.139001
v -0.251973 -0.060786 0.139001
v -0.251732 -0.061943 0.139001
v -0.251575 -0.061075 0.139001
v -0.251321 -0.061846 0.139001
v -0.251015 -0.061182 0.139001
v -0.251144 -0.063455 0.139001
v -0.251002 -0.063268 0.139001
v -0.251321 -0.062544 0.139001
v -0.251359 -0.063526 0.139001
v -0.251499 -0.062586 0.139001
v -0.251518 -0.063493 0.139001
v -0.251635 -0.062684 0.139001
v -0.251644 -0.063397 0.139001
v -0.251723 -0.062835 0.139001
v -0.250812 -0.062700 0.139001
v -0.250630 -0.062257 0.139001
v -0.250356 -0.061969 0.139001
v -0.249902 -0.061855 0.139001
v -0.249008 -0.061182 0.139001
v -0.249508 -0.061940 0.139001
v -0.249212 -0.062176 0.139001
v -0.249008 -0.060526 0.139001
v -0.249008 -0.059209 0.139001
v -0.251019 -0.059209 0.139001
v -0.249908 -0.102247 0.139001
v -0.250331 -0.101745 0.139001
v -0.250578 -0.102115 0.139001
v -0.250650 -0.101538 0.139001
v -0.250877 -0.101174 0.139001
v -0.249382 -0.102604 0.139001
v -0.249573 -0.101737 0.139001
v -0.249967 -0.101811 0.139001
v -0.249254 -0.101517 0.139001
v -0.249040 -0.103134 0.139001
v -0.248962 -0.105709 0.139001
v -0.249040 -0.104432 0.139001
v -0.249382 -0.104959 0.139001
v -0.249908 -0.105313 0.139001
v -0.250578 -0.105443 0.139001
v -0.252215 -0.106584 0.139001
v -0.251250 -0.105313 0.139001
v -0.251777 -0.104957 0.139001
v -0.252121 -0.104430 0.139001
v -0.252211 -0.100093 0.139001
v -0.252121 -0.103134 0.139001
v -0.251777 -0.102604 0.139001
v -0.251250 -0.102247 0.139001
v -0.250963 -0.100093 0.139001
v -0.250963 -0.100637 0.139001
v -0.249488 -0.150773 0.139001
v -0.252211 -0.150773 0.139001
v -0.250687 -0.066978 0.139001
v -0.250865 -0.067177 0.139001
v -0.251377 -0.067353 0.139001
v -0.250522 -0.115392 0.139001
v -0.250894 -0.114826 0.139001
v -0.252211 -0.115603 0.139001
v -0.249465 -0.145427 0.139001
v -0.249801 -0.145497 0.139001
v -0.250282 -0.145339 0.139001
v -0.250545 -0.144943 0.139001
v -0.250641 -0.145196 0.139001
v -0.250819 -0.145395 0.139001
v -0.249897 -0.107986 0.139001
v -0.252211 -0.107348 0.139001
v -0.251471 -0.108991 0.139001
v -0.249245 -0.067005 0.139001
v -0.249511 -0.067208 0.139001
v -0.249846 -0.067278 0.139001
v -0.250328 -0.067120 0.139001
v -0.250590 -0.066724 0.139001
v -0.251732 -0.067281 0.139001
v -0.252010 -0.067071 0.139001
v -0.249041 -0.114907 0.139001
v -0.249256 -0.115274 0.139001
v -0.249573 -0.115493 0.139001
v -0.249958 -0.115567 0.139001
v -0.252211 -0.114850 0.139001
v -0.252211 -0.113825 0.139001
v -0.250945 -0.114133 0.139001
v -0.250945 -0.113825 0.139001
v -0.249488 -0.154326 0.139001
v -0.252211 -0.154802 0.139001
v -0.252211 -0.153461 0.139001
v -0.249488 -0.153461 0.139001
v -0.249008 -0.058559 0.139001
v -0.251015 -0.058559 0.139001
v -0.251019 -0.060526 0.139001
v -0.251313 -0.059253 0.139001
v -0.251313 -0.060482 0.139001
v -0.251526 -0.060353 0.139001
v -0.251526 -0.059382 0.139001
v -0.251655 -0.060146 0.139001
v -0.251655 -0.059588 0.139001
v -0.251698 -0.059865 0.139001
v -0.252211 -0.158954 0.139001
v -0.252211 -0.157931 0.139001
v -0.252211 -0.157279 0.139001
v -0.250945 -0.158237 0.139001
v -0.250945 -0.157931 0.139001
v -0.248962 -0.157279 0.139001
v -0.250819 -0.156547 0.139001
v -0.251680 -0.156686 0.139001
v -0.252211 -0.156686 0.139001
v -0.249488 -0.156686 0.139001
v -0.250304 -0.156547 0.139001
v -0.249488 -0.155454 0.139001
v -0.250304 -0.155454 0.139001
v -0.250819 -0.155454 0.139001
v -0.251680 -0.155454 0.139001
v -0.258431 -0.162283 0.137747
v -0.258442 -0.162283 0.137759
v -0.257951 -0.162166 0.138131
v -0.257984 -0.162158 0.138216
v -0.257630 -0.161837 0.138570
v -0.257543 -0.161844 0.138389
v -0.257385 -0.161355 0.138816
v -0.257259 -0.161365 0.138534
v -0.257297 -0.160774 0.138904
v -0.257153 -0.160774 0.138579
v -0.257390 -0.160180 0.138811
v -0.257259 -0.160185 0.138534
v -0.257647 -0.159689 0.138554
v -0.258015 -0.159369 0.138185
v -0.258442 -0.159259 0.137759
v -0.258315 -0.143000 0.137885
v -0.257755 -0.143000 0.138445
v -0.257889 -0.143000 0.138172
v -0.257673 -0.143000 0.138309
v -0.258608 -0.162769 0.137593
v -0.257329 -0.162769 0.138871
v -0.261648 -0.155000 0.134552
v -0.261542 -0.155000 0.134446
v -0.261803 -0.155051 0.134397
v -0.261821 -0.155192 0.134167
v -0.261888 -0.155396 0.134100
v -0.261994 -0.155396 0.134206
v -0.261927 -0.155192 0.134273
v -0.260525 -0.155000 0.135675
v -0.260419 -0.155000 0.135569
v -0.257329 -0.165295 0.138871
v -0.258608 -0.165295 0.137593
v -0.259494 -0.165295 0.136707
v -0.264650 -0.161725 0.131550
v -0.269477 -0.164481 0.126724
v -0.259494 -0.164702 0.136707
v -0.259494 -0.163360 0.136707
v -0.258608 -0.163872 0.137593
v -0.258608 -0.163360 0.137593
v -0.259494 -0.162769 0.136707
v -0.259516 -0.160774 0.136685
v -0.259264 -0.161767 0.136936
v -0.258978 -0.162097 0.137223
v -0.258608 -0.162268 0.137593
v -0.257329 -0.163360 0.138871
v -0.257329 -0.164702 0.138871
v -0.258608 -0.164485 0.137593
v -0.258608 -0.164702 0.137593
v -0.258839 -0.164702 0.137361
v -0.260172 -0.106500 0.136028
v -0.260196 -0.067481 0.136004
v -0.260219 -0.106250 0.135981
v -0.260349 -0.106067 0.135852
v -0.260525 -0.106000 0.135675
v -0.263921 -0.074731 0.132280
v -0.261994 -0.105604 0.134206
v -0.264650 -0.099275 0.131550
v -0.269477 -0.096519 0.126724
v -0.269947 -0.077500 0.126253
v -0.274496 -0.098467 0.121705
v -0.275974 -0.074731 0.120226
v -0.277652 -0.104320 0.118549
v -0.279699 -0.067481 0.116502
v -0.284797 -0.063000 0.111404
v -0.282807 -0.052500 0.113393
v -0.279699 -0.058519 0.116502
v -0.277372 -0.044813 0.118828
v -0.275974 -0.051269 0.120226
v -0.269947 -0.048500 0.126253
v -0.263921 -0.051269 0.132280
v -0.260196 -0.058519 0.136004
v -0.277652 -0.111680 0.118549
v -0.284797 -0.153000 0.111404
v -0.277652 -0.149320 0.118549
v -0.282807 -0.163500 0.113393
v -0.277652 -0.156680 0.118549
v -0.277372 -0.171187 0.118828
v -0.274496 -0.162533 0.121705
v -0.258994 -0.139068 0.137207
v -0.258608 -0.138907 0.137593
v -0.260219 -0.109750 0.135981
v -0.260172 -0.109500 0.136028
v -0.258608 -0.144695 0.137593
v -0.258315 -0.143944 0.137885
v -0.258608 -0.143944 0.137593
v -0.258608 -0.142409 0.137593
v -0.258608 -0.141916 0.137593
v -0.258994 -0.141757 0.137207
v -0.259535 -0.142409 0.136666
v -0.259293 -0.141428 0.136907
v -0.259488 -0.140967 0.136713
v -0.259557 -0.140414 0.136644
v -0.261994 -0.150604 0.134206
v -0.261648 -0.151000 0.134552
v -0.261803 -0.150949 0.134397
v -0.261927 -0.150808 0.134273
v -0.264650 -0.144275 0.131550
v -0.259488 -0.139862 0.136713
v -0.264650 -0.116725 0.131550
v -0.261994 -0.110396 0.134206
v -0.261648 -0.110000 0.134552
v -0.261803 -0.110051 0.134397
v -0.260525 -0.110000 0.135675
v -0.259293 -0.139400 0.136907
v -0.260349 -0.109933 0.135852
v -0.258653 -0.143944 0.137547
v -0.259535 -0.144695 0.136666
v -0.259535 -0.143000 0.136666
v -0.258653 -0.143000 0.137547
v -0.258315 -0.146231 0.137885
v -0.258608 -0.146231 0.137593
v -0.258608 -0.159275 0.137593
v -0.258653 -0.146231 0.137547
v -0.260172 -0.151500 0.136028
v -0.259535 -0.145286 0.136666
v -0.260219 -0.151250 0.135981
v -0.260349 -0.151067 0.135852
v -0.260525 -0.151000 0.135675
v -0.258653 -0.145286 0.137547
v -0.259264 -0.159779 0.136936
v -0.260219 -0.154750 0.135981
v -0.260349 -0.154933 0.135852
v -0.260172 -0.154500 0.136028
v -0.258978 -0.159447 0.137223
v -0.274496 -0.143467 0.121705
v -0.274496 -0.117533 0.121705
v -0.269477 -0.141519 0.126724
v -0.269477 -0.119481 0.126724
v -0.261927 -0.105808 0.134273
v -0.261803 -0.105949 0.134397
v -0.261648 -0.106000 0.134552
v -0.261888 -0.150604 0.134100
v -0.261821 -0.150808 0.134167
v -0.261697 -0.150949 0.134291
v -0.261542 -0.151000 0.134446
v -0.260419 -0.151000 0.135569
v -0.260066 -0.151500 0.135922
v -0.260113 -0.151250 0.135875
v -0.260243 -0.151067 0.135746
v -0.260243 -0.154933 0.135746
v -0.260066 -0.154500 0.135922
v -0.261542 -0.110000 0.134446
v -0.264544 -0.116725 0.131444
v -0.269371 -0.119481 0.126618
v -0.274390 -0.117533 0.121599
v -0.277546 -0.111680 0.118443
v -0.277546 -0.104320 0.118443
v -0.274390 -0.098467 0.121599
v -0.269371 -0.096519 0.126618
v -0.264544 -0.099275 0.131444
v -0.261888 -0.105604 0.134100
v -0.260419 -0.110000 0.135569
v -0.260243 -0.109933 0.135746
v -0.260113 -0.109750 0.135875
v -0.260066 -0.109500 0.135922
v -0.260066 -0.106500 0.135922
v -0.260113 -0.106250 0.135875
v -0.260419 -0.106000 0.135569
v -0.261542 -0.106000 0.134446
v -0.261697 -0.105949 0.134291
v -0.257189 -0.165295 0.138563
v -0.257698 -0.165295 0.138294
v -0.258601 -0.163872 0.137586
v -0.259487 -0.164702 0.136699
v -0.258543 -0.139511 0.137649
v -0.258608 -0.139519 0.137593
v -0.258481 -0.139508 0.137715
v -0.259487 -0.165295 0.136699
v -0.258481 -0.141315 0.137715
v -0.258608 -0.141304 0.137593
v -0.258543 -0.141312 0.137649
v -0.258606 -0.141304 0.137591
v -0.257684 -0.140414 0.138303
v -0.258971 -0.162097 0.137216
v -0.259257 -0.161767 0.136929
v -0.259509 -0.160774 0.136678
v -0.258608 -0.161656 0.137593
v -0.258998 -0.161356 0.137202
v -0.258601 -0.161656 0.137586
v -0.259142 -0.160774 0.137059
v -0.257733 -0.142409 0.138272
v -0.258608 -0.159889 0.137593
v -0.258998 -0.160188 0.137202
v -0.259257 -0.159779 0.136929
v -0.258971 -0.159447 0.137216
v -0.257733 -0.144695 0.138272
v -0.258502 -0.146231 0.137681
v -0.249488 -0.152809 0.138991
v -0.249488 -0.154326 0.138991
v -0.248962 -0.151943 0.138991
v -0.249488 -0.151943 0.138991
v -0.258010 -0.163360 0.138100
v -0.258317 -0.163616 0.137854
v -0.257189 -0.164702 0.138563
v -0.249973 -0.114895 0.139001
v -0.250172 -0.114864 0.139001
v -0.250172 -0.114864 0.138991
v -0.250325 -0.114769 0.139001
v -0.250325 -0.114769 0.138991
v -0.250423 -0.114606 0.139001
v -0.250457 -0.114371 0.139001
v -0.250457 -0.113825 0.139001
v -0.249502 -0.113825 0.139001
v -0.249502 -0.114371 0.139001
v -0.249535 -0.114606 0.139001
v -0.249629 -0.114769 0.139001
v -0.249777 -0.114864 0.139001
v -0.252211 -0.115603 0.138991
v -0.250894 -0.114826 0.138991
v -0.257700 -0.161139 0.138307
v -0.257837 -0.161390 0.138217
v -0.257868 -0.161424 0.138202
v -0.258099 -0.161600 0.138030
v -0.258122 -0.161609 0.138019
v -0.258438 -0.161675 0.137754
v -0.258431 -0.161675 0.137747
v -0.258116 -0.161609 0.138011
v -0.258524 -0.161670 0.137668
v -0.258431 -0.159869 0.137747
v -0.258524 -0.159874 0.137668
v -0.258438 -0.159869 0.137754
v -0.258128 -0.159931 0.138008
v -0.258122 -0.159935 0.138019
v -0.257868 -0.160120 0.138202
v -0.257700 -0.160406 0.138307
v -0.258116 -0.159935 0.138011
v -0.250851 -0.065533 0.139001
v -0.250851 -0.066176 0.139001
v -0.251111 -0.066656 0.139001
v -0.251111 -0.066656 0.138991
v -0.251298 -0.066693 0.139001
v -0.251481 -0.066658 0.139001
v -0.251615 -0.066560 0.139001
v -0.251726 -0.066189 0.139001
v -0.251726 -0.065533 0.139001
v -0.249534 -0.066129 0.139001
v -0.249769 -0.066580 0.139001
v -0.249943 -0.066612 0.139001
v -0.250118 -0.066580 0.139001
v -0.250349 -0.066129 0.139001
v -0.250349 -0.065533 0.139001
v -0.249534 -0.065533 0.139001
v -0.252256 -0.066282 0.138991
v -0.252010 -0.067071 0.138991
v -0.251732 -0.067281 0.138991
v -0.251377 -0.067353 0.138991
v -0.250865 -0.067177 0.138991
v -0.250687 -0.066978 0.138991
v -0.250590 -0.066724 0.138991
v -0.250328 -0.067120 0.138991
v -0.249846 -0.067278 0.138991
v -0.249511 -0.067208 0.138991
v -0.249245 -0.067005 0.138991
v -0.248958 -0.156686 0.138991
v -0.248958 -0.154802 0.138991
v -0.252211 -0.154802 0.138991
v -0.250304 -0.156547 0.138991
v -0.250304 -0.155454 0.138991
v -0.248962 -0.108367 0.138991
v -0.248962 -0.107641 0.138991
v -0.251485 -0.106980 0.138991
v -0.248962 -0.106408 0.138991
v -0.252211 -0.107348 0.138991
v -0.249897 -0.107986 0.138991
v -0.251680 -0.143752 0.139001
v -0.250806 -0.143752 0.139001
v -0.250806 -0.144395 0.139001
v -0.250924 -0.144771 0.139001
v -0.251065 -0.144874 0.139001
v -0.251253 -0.144910 0.139001
v -0.251435 -0.144876 0.139001
v -0.251569 -0.144778 0.139001
v -0.251680 -0.144408 0.139001
v -0.249488 -0.144348 0.139001
v -0.249724 -0.144799 0.139001
v -0.249897 -0.144831 0.139001
v -0.250073 -0.144799 0.139001
v -0.250304 -0.144348 0.139001
v -0.250304 -0.143752 0.139001
v -0.250304 -0.143752 0.138991
v -0.249488 -0.143752 0.139001
v -0.251965 -0.145289 0.138991
v -0.251687 -0.145498 0.138991
v -0.251332 -0.145571 0.138991
v -0.250819 -0.145395 0.138991
v -0.250641 -0.145196 0.138991
v -0.257689 -0.140414 0.138311
v -0.257739 -0.140755 0.138277
v -0.257750 -0.140780 0.138277
v -0.257884 -0.141028 0.138186
v -0.257917 -0.141064 0.138169
v -0.258144 -0.141239 0.137996
v -0.258169 -0.141249 0.137983
v -0.259028 -0.141015 0.137172
v -0.259143 -0.140746 0.137058
v -0.259183 -0.140414 0.137018
v -0.259028 -0.139809 0.137172
v -0.259143 -0.140079 0.137058
v -0.258169 -0.139574 0.137983
v -0.257917 -0.139760 0.138169
v -0.257750 -0.140046 0.138277
v -0.259481 -0.140967 0.136706
v -0.249967 -0.101141 0.139001
v -0.250163 -0.101109 0.139001
v -0.250406 -0.100848 0.139001
v -0.250406 -0.100848 0.138991
v -0.250439 -0.100610 0.139001
v -0.250439 -0.100093 0.139001
v -0.250439 -0.100093 0.138991
v -0.249493 -0.100093 0.139001
v -0.249493 -0.100093 0.138991
v -0.249493 -0.100610 0.139001
v -0.249493 -0.100610 0.138991
v -0.249525 -0.100848 0.139001
v -0.249768 -0.101109 0.139001
v -0.252211 -0.099441 0.138991
v -0.250877 -0.101174 0.138991
v -0.250650 -0.101538 0.138991
v -0.250331 -0.101745 0.138991
v -0.249967 -0.101811 0.138991
v -0.249573 -0.101737 0.138991
v -0.249254 -0.101517 0.138991
v -0.249040 -0.101151 0.138991
v -0.248962 -0.100637 0.138991
v -0.248962 -0.099441 0.138991
v -0.249488 -0.150121 0.138991
v -0.248962 -0.151639 0.138991
v -0.248962 -0.149256 0.138991
v -0.249488 -0.149256 0.138991
v -0.248962 -0.162847 0.138991
v -0.248962 -0.159994 0.138991
v -0.250578 -0.104773 0.139001
v -0.251026 -0.104700 0.139001
v -0.251026 -0.104700 0.138991
v -0.251367 -0.104497 0.139001
v -0.251585 -0.104184 0.139001
v -0.251662 -0.103781 0.139001
v -0.251585 -0.103376 0.139001
v -0.251367 -0.103062 0.139001
v -0.251026 -0.102858 0.139001
v -0.250578 -0.102785 0.139001
v -0.250131 -0.102858 0.139001
v -0.249792 -0.103062 0.139001
v -0.249577 -0.103376 0.139001
v -0.249502 -0.103781 0.139001
v -0.249577 -0.104184 0.139001
v -0.249792 -0.104497 0.139001
v -0.250131 -0.104700 0.139001
v -0.251250 -0.102247 0.138991
v -0.251777 -0.102604 0.138991
v -0.252121 -0.103134 0.138991
v -0.252244 -0.103781 0.138991
v -0.252121 -0.104430 0.138991
v -0.251777 -0.104957 0.138991
v -0.251250 -0.105313 0.138991
v -0.250578 -0.105443 0.138991
v -0.249908 -0.105313 0.138991
v -0.249382 -0.104959 0.138991
v -0.249040 -0.104432 0.138991
v -0.249888 -0.064163 0.138991
v -0.249496 -0.064057 0.138991
v -0.252036 -0.062199 0.138991
v -0.252290 -0.063052 0.138991
v -0.252210 -0.063543 0.138991
v -0.251995 -0.063903 0.138991
v -0.249008 -0.060526 0.138991
v -0.251019 -0.059209 0.138991
v -0.249008 -0.059209 0.138991
v -0.249008 -0.058559 0.138991
v -0.251575 -0.058661 0.138991
v -0.251973 -0.058940 0.138991
v -0.252211 -0.059353 0.138991
v -0.252290 -0.059856 0.138991
v -0.251575 -0.061075 0.138991
v -0.249008 -0.061182 0.138991
v -0.251071 -0.147910 0.139001
v -0.251071 -0.146968 0.139001
v -0.251071 -0.146968 0.138991
v -0.249713 -0.147440 0.139001
v -0.249713 -0.147440 0.138991
v -0.252211 -0.148301 0.138991
v -0.252211 -0.148989 0.138991
v -0.248958 -0.112582 0.138991
v -0.248958 -0.110697 0.138991
v -0.252211 -0.110697 0.138991
v -0.252211 -0.112582 0.138991
v -0.251680 -0.112582 0.138991
v -0.249502 -0.158475 0.139001
v -0.249535 -0.158711 0.139001
v -0.249629 -0.158875 0.139001
v -0.249777 -0.158970 0.139001
v -0.249973 -0.159001 0.139001
v -0.250172 -0.158970 0.139001
v -0.250325 -0.158875 0.139001
v -0.250423 -0.158711 0.139001
v -0.250457 -0.158475 0.139001
v -0.250457 -0.157931 0.139001
v -0.250457 -0.157931 0.138991
v -0.249502 -0.157931 0.139001
v -0.249502 -0.157931 0.138991
v -0.249041 -0.159011 0.138991
v -0.248962 -0.158498 0.138991
v -0.248962 -0.157279 0.138991
v -0.252211 -0.157279 0.138991
v -0.264544 -0.161725 0.131444
v -0.269371 -0.164481 0.126618
v -0.274390 -0.162533 0.121599
v -0.277546 -0.156680 0.118443
v -0.277546 -0.149320 0.118443
v -0.274390 -0.143467 0.121599
v -0.269371 -0.141519 0.126618
v -0.264544 -0.144275 0.131444
v -0.277266 -0.044813 0.118722
v -0.282701 -0.052500 0.113287
v -0.284691 -0.063000 0.111298
v -0.284691 -0.153000 0.111298
v -0.282701 -0.163500 0.113287
v -0.277266 -0.171187 0.118722
v -0.263815 -0.051269 0.132173
v -0.269841 -0.048500 0.126147
v -0.275868 -0.051269 0.120120
v -0.279593 -0.058519 0.116396
v -0.279593 -0.067481 0.116396
v -0.275868 -0.074731 0.120120
v -0.269841 -0.077500 0.126147
v -0.263815 -0.074731 0.132173
v -0.260090 -0.067481 0.135898
v -0.260090 -0.058519 0.135898
v 0.298950 -0.195068 0.048850
v 0.298950 -0.163500 0.048850
v 0.295950 -0.192068 0.048850
v 0.295950 -0.163500 0.048850
v 0.318950 -0.210826 -0.010000
v 0.298950 -0.190826 -0.010000
v 0.318950 -0.210826 0.034120
v 0.298950 -0.190826 0.043700
v 0.319334 -0.211209 0.034120
v 0.298950 -0.163500 -0.010000
v 0.298950 -0.195068 0.042703
v 0.295950 -0.163500 -0.010000
v 0.295950 -0.192068 -0.010000
v 0.315091 -0.211209 0.035117
v 0.318950 -0.215068 -0.010000
v 0.318950 -0.215068 0.035117
v 0.338355 -0.191420 0.025000
v 0.340477 -0.193541 0.025000
v 0.341950 -0.192068 0.025000
v 0.341950 -0.152068 0.025000
v 0.338950 -0.152068 0.025000
v 0.338950 -0.190826 0.025000
v 0.338950 -0.190826 -0.010000
v 0.341950 -0.192068 -0.010000
v 0.341950 -0.152068 -0.010000
v 0.338950 -0.152068 -0.010000
v 0.298950 0.195068 0.048850
v 0.295950 0.192068 0.048850
v 0.298950 0.163500 0.048850
v 0.295950 0.163500 0.048850
v 0.318950 0.210826 0.034120
v 0.338355 0.191420 0.025000
v 0.319334 0.211209 0.034120
v 0.340477 0.193541 0.025000
v 0.318950 0.215068 0.035117
v 0.315091 0.211209 0.035117
v 0.338950 0.190826 0.025000
v 0.338950 0.152068 0.025000
v 0.341950 0.152068 0.025000
v 0.341950 0.192068 0.025000
v 0.298950 0.195068 0.042703
v 0.298950 0.190826 0.043700
v 0.338950 0.190826 -0.010000
v 0.318950 0.210826 -0.010000
v 0.295950 0.163500 -0.010000
v 0.298950 0.163500 -0.010000
v 0.298950 0.190826 -0.010000
v 0.295950 0.192068 -0.010000
v 0.318950 0.215068 -0.010000
v 0.341950 0.192068 -0.010000
v 0.338950 0.152068 -0.010000
v 0.341950 0.152068 -0.010000
v -0.319334 0.211209 0.034120
v -0.298950 0.190826 0.043700
v -0.315091 0.211209 0.035117
v -0.298950 0.195068 0.042703
v -0.318950 0.215068 0.035117
v -0.340477 0.193541 0.025000
v -0.338355 0.191420 0.025000
v -0.318950 0.210826 0.034120
v -0.318950 0.215068 -0.010000
v -0.341950 0.192068 -0.010000
v -0.341950 0.192068 0.025000
v -0.298950 0.163500 0.048850
v -0.298950 0.163500 -0.010000
v -0.295950 0.163500 0.048850
v -0.295950 0.163500 -0.010000
v -0.298950 0.190826 -0.010000
v -0.318950 0.210826 -0.010000
v -0.338950 0.152068 -0.010000
v -0.338950 0.152068 0.025000
v -0.341950 0.152068 -0.010000
v -0.341950 0.152068 0.025000
v -0.295950 0.192068 -0.010000
v -0.298950 0.195068 0.048850
v -0.295950 0.192068 0.048850
v -0.338950 0.190826 -0.010000
v -0.338950 0.190826 0.025000
v -0.295950 -0.192068 0.048850
v -0.295950 -0.192068 -0.010000
v -0.295950 -0.163500 0.048850
v -0.295950 -0.163500 -0.010000
v -0.341950 -0.152068 0.025000
v -0.341950 -0.152068 -0.010000
v -0.341950 -0.192068 0.025000
v -0.341950 -0.192068 -0.010000
v -0.340477 -0.193541 0.025000
v -0.338950 -0.152068 0.025000
v -0.338950 -0.190826 0.025000
v -0.338355 -0.191420 0.025000
v -0.298950 -0.190826 -0.010000
v -0.298950 -0.190826 0.043700
v -0.298950 -0.163500 -0.010000
v -0.298950 -0.163500 0.048850
v -0.298950 -0.195068 0.048850
v -0.298950 -0.195068 0.042703
v -0.318950 -0.215068 -0.010000
v -0.338950 -0.190826 -0.010000
v -0.318950 -0.210826 -0.010000
v -0.338950 -0.152068 -0.010000
v -0.318950 -0.210826 0.034120
v -0.319334 -0.211209 0.034120
v -0.318950 -0.215068 0.035117
v -0.315091 -0.211209 0.035117
v -0.263609 0.138727 0.132390
v -0.273734 0.139126 0.122265
v -0.252812 0.135197 0.138800
v -0.257199 0.137390 0.138800
v -0.267897 0.139055 0.128102
v -0.271330 0.139097 0.124669
v -0.258903 0.137745 0.137095
v -0.261645 0.138317 0.134354
v -0.262578 0.138512 0.133421
v -0.252718 0.135151 0.138800
v -0.267228 0.139047 0.128771
v -0.265014 0.139021 0.130985
v -0.252323 0.134953 0.138800
v -0.275488 0.139147 0.120510
v -0.269267 0.139072 0.126732
v -0.251523 0.134554 0.138800
v -0.258870 0.137738 0.137128
v -0.270692 0.139089 0.125307
v -0.262551 0.138507 0.133448
v -0.250391 0.133988 0.138800
v 0.358795 -0.250000 0.012000
v 0.358795 -0.250000 0.025000
v 0.358795 0.250000 0.012000
v 0.358795 0.250000 0.025000
v 0.361600 -0.250000 0.025000
v 0.361600 0.250000 0.025000
v 0.361600 -0.250000 0.012000
v 0.361600 0.250000 0.012000
v -0.358795 -0.250000 0.025000
v -0.358795 -0.250000 0.012000
v -0.358795 0.250000 0.025000
v -0.358795 0.250000 0.012000
v -0.361600 -0.250000 0.012000
v -0.361600 0.250000 0.012000
v -0.361600 -0.250000 0.025000
v -0.361600 0.250000 0.025000
v -0.290440 -0.146609 0.143386
v -0.284973 -0.150181 0.146668
v -0.283880 -0.148306 0.140985
v -0.278250 -0.153036 0.146940
v -0.277269 -0.151115 0.141253
v -0.271675 -0.154580 0.144146
v -0.274799 -0.162233 0.141022
v -0.281374 -0.160690 0.143816
v -0.280393 -0.158768 0.138128
v -0.287005 -0.155960 0.137861
v -0.288097 -0.157834 0.143544
v -0.293564 -0.154262 0.140261
vn -0.0000 -1.0000 -0.0000
vn 0.7071 -0.0000 0.7071
vn -0.0000 -0.0000 1.0000
vn -0.7071 -0.0000 0.7071
vn -0.0000 1.0000 -0.0000
vn -0.0000 -0.0000 -1.0000
vn -1.0000 -0.0000 -0.0000
vn -0.7071 -0.0000 -0.7071
vn 0.7071 -0.0000 -0.7071
vn 1.0000 -0.0000 -0.0000
vn -0.6189 -0.4834 -0.6191
vn -0.6191 -0.4832 -0.6190
vn -0.2799 -0.9183 -0.2799
vn -0.2800 -0.9183 -0.2800
vn 0.1766 -0.9683 0.1766
vn 0.1757 -0.9683 0.1775
vn 0.5563 -0.6125 0.5616
vn 0.5588 -0.6127 0.5589
vn 0.7070 -0.0000 0.7072
vn 0.5561 0.6127 0.5616
vn 0.1756 0.9684 0.1773
vn 0.1765 0.9684 0.1765
vn -0.2799 0.9183 -0.2800
vn -0.2800 0.9183 -0.2799
vn -0.6190 0.4833 -0.6191
vn 0.7072 -0.0000 -0.7070
vn 0.7071 -0.0000 -0.7072
vn 0.7072 -0.0001 -0.7070
vn -0.5976 0.5346 -0.5976
vn -0.3418 -0.8437 -0.4140
vn -0.4205 -0.8439 -0.3331
vn -0.0746 -0.9831 -0.1671
vn -0.1759 -0.9824 -0.0632
vn 0.2058 -0.9732 0.1028
vn 0.9613 0.2753 -0.0000
vn 0.9565 0.2766 -0.0929
vn 0.6671 0.7393 0.0917
vn 0.6533 0.7352 -0.1807
vn 0.1724 0.9685 0.1794
vn -0.0000 1.0000 -0.0002
vn -0.0000 1.0000 0.0001
vn -0.0001 -0.0000 1.0000
vn 0.0001 -0.0000 1.0000
vn 0.0031 -0.0000 1.0000
vn 0.5207 -0.7320 -0.4393
vn 0.5236 -0.7366 -0.4282
vn 0.5478 -0.7540 0.3625
vn 0.7818 -0.5034 -0.3680
vn 0.8117 -0.5134 0.2783
vn 0.9401 -0.1822 -0.2881
vn 0.9644 0.1847 -0.1894
vn 0.9764 0.1905 0.1013
vn 0.8379 0.5370 -0.0973
vn 0.8413 0.5405 -0.0000
vn -0.7074 -0.0000 0.7069
vn -0.7070 -0.0000 0.7072
vn -0.7072 0.0001 0.7070
vn -0.7069 0.0001 0.7073
vn -0.7071 0.0001 0.7071
vn -0.7071 -0.0002 0.7071
vn -0.7071 -0.0000 0.7072
vn -0.7070 -0.0001 0.7072
vn -0.7072 -0.0001 0.7070
vn -0.7073 -0.0000 0.7069
vn 0.9609 0.2768 -0.0000
vn -0.9604 0.2786 -0.0000
vn -0.9827 -0.1850 -0.0000
vn -0.9826 -0.1857 -0.0000
vn -0.8360 -0.5488 -0.0000
vn -0.5507 -0.8347 -0.0000
vn -0.5499 -0.8352 -0.0000
vn -0.1849 -0.9828 -0.0000
vn -0.1844 -0.9829 -0.0000
vn 0.1857 -0.9826 -0.0000
vn 0.1852 -0.9827 -0.0000
vn 0.5514 -0.8342 -0.0000
vn 0.5506 -0.8347 -0.0000
vn 0.8367 -0.5476 -0.0000
vn 0.8367 -0.5477 -0.0000
vn 0.9827 -0.1850 -0.0000
vn 0.9826 -0.1858 -0.0000
vn -0.9634 0.2682 -0.0000
vn -0.9631 0.2690 -0.0000
vn -0.9829 -0.1842 -0.0000
vn -0.8381 -0.5456 -0.0000
vn -0.8366 -0.5478 -0.0000
vn -0.5539 -0.8326 -0.0000
vn -0.5531 -0.8331 -0.0000
vn -0.1859 -0.9826 -0.0000
vn 0.1867 -0.9824 -0.0000
vn 0.1868 -0.9824 -0.0000
vn 0.5562 -0.8310 -0.0000
vn 0.5547 -0.8321 -0.0000
vn 0.8388 -0.5444 -0.0000
vn 0.8381 -0.5456 -0.0000
vn 0.9830 -0.1834 -0.0000
vn 0.9830 -0.1838 -0.0000
vn 0.9408 0.3390 -0.0000
vn 0.9405 0.3399 -0.0000
vn 0.5074 0.8617 -0.0000
vn -0.5086 0.8610 -0.0000
vn 0.7032 -0.7110 -0.0000
vn 0.5546 -0.8321 -0.0000
vn 0.8395 -0.5434 -0.0000
vn 0.8388 -0.5445 -0.0000
vn 0.9411 0.3382 -0.0000
vn -0.1830 0.9659 -0.1830
vn -0.1829 0.9660 -0.1829
vn -0.5000 0.7071 -0.5000
vn -0.5024 0.7070 -0.4978
vn -0.6862 0.2587 -0.6798
vn -0.6830 0.2590 -0.6830
vn -0.7070 -0.0000 -0.7072
vn -0.1832 0.9658 -0.1834
vn -0.4998 0.7074 -0.4998
vn -0.5012 0.7088 -0.4964
vn -0.6835 0.2568 -0.6833
vn -0.6829 -0.2593 -0.6830
vn -0.6866 -0.2568 -0.6802
vn -0.4990 -0.7085 -0.4990
vn -0.1833 -0.9658 -0.1833
vn -0.1833 -0.9658 -0.1834
vn 0.0122 0.9999 0.0122
vn 0.2131 0.9535 0.2131
vn 0.2130 0.9535 0.2131
vn 0.4403 0.7824 0.4403
vn 0.4402 0.7826 0.4402
vn 0.6093 0.5074 0.6093
vn 0.6093 0.5075 0.6093
vn 0.6974 0.1652 0.6974
vn 0.6940 0.1654 0.7007
vn 0.6897 -0.1989 0.6962
vn 0.6929 -0.1990 0.6931
vn 0.5966 -0.5366 0.5967
vn 0.5967 -0.5365 0.5967
vn 0.4211 -0.8033 0.4210
vn 0.4211 -0.8033 0.4211
vn 0.1900 -0.9633 0.1898
vn 0.1909 -0.9632 0.1891
vn -0.0670 -0.9955 -0.0665
vn -0.0667 -0.9955 -0.0667
vn -0.3143 -0.8958 -0.3144
vn -0.3144 -0.8958 -0.3142
vn -0.5204 -0.6771 -0.5204
vn -0.5203 -0.6771 -0.5204
vn -0.6573 -0.3686 -0.6573
vn -0.6574 -0.3685 -0.6572
vn -0.7072 -0.0113 -0.7069
vn -0.7070 -0.0113 -0.7071
vn -0.6630 0.3476 -0.6630
vn -0.6599 0.3477 -0.6661
vn -0.5285 0.6602 -0.5336
vn -0.5311 0.6602 -0.5311
vn -0.3286 0.8855 -0.3286
vn -0.3270 0.8855 -0.3302
vn -0.1361 0.9811 -0.1374
vn -0.1367 0.9811 -0.1367
vn 0.0122 0.9999 0.0121
vn 0.2589 0.9659 -0.0000
vn 0.7071 0.7072 -0.0000
vn 0.7071 0.7071 -0.0000
vn 0.9659 0.2589 -0.0000
vn -0.9049 -0.0000 -0.4255
vn -0.8892 0.1954 -0.4137
vn -0.8920 0.1926 -0.4090
vn -0.7448 -0.5684 -0.3496
vn -0.8845 -0.1933 -0.4247
vn -0.8903 -0.2015 -0.4083
vn 0.2589 -0.9659 -0.0000
vn 0.7071 -0.7071 -0.0000
vn 0.9659 -0.2589 -0.0000
vn -0.0002 -0.0000 1.0000
vn -0.0060 -0.0000 1.0000
vn -0.0029 -0.0000 1.0000
vn 0.0104 -0.0000 0.9999
vn 0.0016 -0.0000 1.0000
vn -0.0036 -0.0000 1.0000
vn 0.0010 -0.0000 1.0000
vn 0.0002 -0.0000 1.0000
vn 0.0005 -0.0000 1.0000
vn 0.0011 -0.0000 1.0000
vn 0.0019 -0.0000 1.0000
vn 0.0029 -0.0000 1.0000
vn -0.0004 -0.0000 1.0000
vn -0.0003 -0.0000 1.0000
vn -0.1380 0.9822 -0.1272
vn -0.1266 0.9818 -0.1412
vn -0.4869 0.8316 -0.2673
vn -0.7350 0.5649 -0.3750
vn -0.7527 0.5539 -0.3559
vn -0.8926 0.1966 -0.4057
vn -0.8974 0.1913 -0.3976
vn -0.8954 -0.2023 -0.3967
vn -0.8886 -0.1918 -0.4167
vn -0.7467 -0.5701 -0.3427
vn -0.1603 0.9740 -0.1603
vn -0.6414 0.4212 -0.6413
vn -0.6412 0.4212 -0.6415
vn -0.7068 -0.0000 0.7074
vn -0.7071 -0.0001 0.7071
vn -0.7072 -0.0000 0.7071
vn -0.7072 -0.0000 0.7070
vn -0.7073 -0.0000 0.7070
vn -0.7056 -0.0000 0.7086
vn -0.7078 0.0010 0.7064
vn -0.7063 -0.0006 0.7079
vn -0.7068 0.0005 0.7074
vn -0.7080 -0.0006 0.7062
vn -0.7058 -0.0004 0.7084
vn -0.7086 -0.0000 0.7056
vn -0.7107 -0.0001 0.7035
vn -0.6985 0.0001 0.7156
vn -0.7043 -0.0000 0.7099
vn -0.7092 -0.0000 0.7050
vn -0.7072 0.0001 0.7071
vn -0.7072 -0.0001 0.7071
vn -0.7042 0.0003 0.7100
vn -0.7069 -0.0000 0.7073
vn -0.7038 0.0002 0.7104
vn -0.6967 -0.0000 0.7174
vn -0.6972 -0.0000 0.7169
vn -0.7080 -0.0000 0.7062
vn -0.7071 0.0015 0.7071
vn -0.7069 0.0008 0.7073
vn -0.7059 -0.0000 0.7083
vn -0.7079 -0.0005 0.7063
vn -0.7071 0.0012 0.7071
vn -0.7074 0.0015 0.7068
vn -0.7041 -0.0000 0.7101
vn -0.7078 0.0011 0.7064
vn -0.7054 -0.0001 0.7088
vn -0.7071 0.0001 0.7072
vn -0.7055 0.0001 0.7087
vn -0.7091 -0.0002 0.7051
vn -0.7083 -0.0001 0.7059
vn -0.7045 0.0002 0.7097
vn -0.7150 -0.0000 0.6992
vn -0.7071 0.0010 0.7071
vn -0.7067 -0.0000 0.7075
vn -0.6977 -0.0000 0.7164
vn -0.7020 0.0001 0.7122
vn -0.7081 -0.0000 0.7061
vn -0.7063 -0.0000 0.7079
vn -0.7149 -0.0000 0.6992
vn -0.7068 -0.0002 0.7074
vn -0.7073 -0.0001 0.7069
vn -0.7048 -0.0006 0.7094
vn -0.7090 0.0005 0.7052
vn -0.7074 -0.0000 0.7068
vn -0.7063 0.0003 0.7079
vn -0.7048 0.0007 0.7094
vn -0.7090 -0.0006 0.7052
vn -0.7081 -0.0004 0.7061
vn -0.7070 0.0001 0.7072
vn -0.7071 -0.0001 0.7072
vn -0.6413 -0.4212 -0.6414
vn -0.6413 -0.4212 -0.6413
vn -0.4429 -0.7794 -0.4431
vn -0.1602 -0.9740 -0.1602
vn -0.1603 -0.9740 -0.1603
vn -0.4430 -0.7795 -0.4429
vn -0.0000 -1.0000 -0.0001
vn -0.6834 -0.2569 -0.6834
vn -0.6834 -0.2568 -0.6834
vn -0.4999 -0.7071 -0.5000
vn -0.1834 -0.9658 -0.1834
vn -0.1833 0.9658 -0.1831
vn -0.1833 0.9658 -0.1834
vn -0.6834 0.2569 -0.6833
vn -0.6082 0.5103 -0.6080
vn -0.2647 0.9273 -0.2647
vn -0.2649 0.9272 -0.2648
vn 0.1871 0.9643 0.1872
vn 0.1872 0.9643 0.1871
vn 0.5624 0.6064 0.5622
vn 0.5623 0.6063 0.5623
vn 0.7071 -0.0000 0.7072
vn 0.5623 -0.6062 0.5623
vn 0.5623 -0.6064 0.5622
vn 0.1872 -0.9643 0.1872
vn 0.1872 -0.9643 0.1871
vn -0.2648 -0.9272 -0.2647
vn -0.2648 -0.9272 -0.2648
vn -0.6082 -0.5103 -0.6080
vn -0.6082 -0.5103 -0.6081
vn -0.1834 0.9658 -0.1833
vn -0.6833 0.2568 -0.6835
vn -0.6833 -0.2569 -0.6834
vn 0.3882 -0.8349 0.3901
vn -0.3836 0.8685 0.3140
vn -0.3829 -0.8671 0.3186
vn -0.0649 -0.9956 -0.0669
vn 0.2199 0.9503 0.2203
vn 0.4469 0.7758 0.4455
vn 0.4457 0.7755 0.4472
vn 0.6657 0.3375 0.6655
vn -0.3368 -0.8788 -0.3380
vn -0.5355 -0.0015 0.8445
vn 0.4487 -0.7745 0.4459
vn 0.4473 -0.7731 0.4498
vn 0.6651 -0.3367 0.6665
vn 0.6656 -0.3360 0.6664
vn -0.3764 0.8354 -0.4006
vn 0.3902 -0.8352 0.3875
vn 0.7524 -0.0000 0.6587
vn 0.7514 -0.0000 0.6599
vn -0.0000 1.0000 -0.0004
vn -0.4673 -0.0000 0.8841
vn -0.5274 -0.8496 -0.0000
vn -0.5280 -0.8493 -0.0000
vn -0.8565 -0.5162 -0.0000
vn -0.5075 0.8616 -0.0000
vn -0.5089 0.8608 -0.0000
vn 0.8350 0.5502 -0.0000
vn -0.2168 -0.2235 0.9503
vn 0.7267 -0.4219 -0.5422
vn -0.1597 -0.5766 0.8013
vn 0.4937 -0.7752 -0.3941
vn 0.1127 -0.9871 0.1136
vn -0.3919 -0.6453 0.6557
vn -0.6033 -0.5566 0.5712
vn -0.0290 -0.9992 -0.0288
vn -0.6198 0.5180 0.5895
vn -0.0290 0.9992 -0.0288
vn 0.1093 0.9879 0.1098
vn -0.1590 0.8965 0.4135
vn 0.3518 0.9162 -0.1916
vn 0.0470 0.9979 0.0436
vn 0.1938 -0.9810 -0.0000
vn 0.9545 0.2982 -0.0000
vn 0.9548 0.2972 -0.0000
vn 0.6019 0.7985 -0.0000
vn 0.6033 0.7975 -0.0000
vn 0.1984 0.9801 -0.0000
vn -0.3246 0.9458 -0.0000
vn -0.3259 0.9454 -0.0000
vn -0.7447 0.6674 -0.0000
vn -0.9341 0.3570 -0.0000
vn -0.9342 0.3567 -0.0000
vn 0.8335 0.5526 -0.0000
vn 0.8344 0.5512 -0.0000
vn 0.3107 0.9505 -0.0000
vn 0.3120 0.9501 -0.0000
vn -0.2041 0.9789 -0.0000
vn -0.6060 0.7955 -0.0000
vn -0.6074 0.7944 -0.0000
vn -0.9571 0.2897 -0.0000
vn -0.2528 -0.9675 -0.0000
vn -0.2216 0.9751 -0.0000
vn 0.2650 0.9642 -0.0000
vn 0.2662 0.9639 -0.0000
vn 0.2644 0.1992 -0.9436
vn 0.2686 0.3569 0.8947
vn 0.0760 0.2368 -0.9686
vn -0.3241 0.9460 -0.0000
vn -0.7448 0.6673 -0.0000
vn -0.7460 0.6660 -0.0000
vn -0.9348 0.3553 -0.0000
vn 0.8348 -0.1742 0.5223
vn 0.3192 -0.1412 0.9371
vn 0.7317 -0.4158 -0.5402
vn -0.2104 -0.5338 0.8190
vn 0.5176 -0.7480 -0.4153
vn 0.6112 0.5096 0.6056
vn -0.9906 -0.1371 -0.0000
vn 0.9911 -0.1334 -0.0000
vn 0.8480 0.5301 -0.0000
vn 0.8489 0.5286 -0.0000
vn 0.5437 0.8393 -0.0000
vn 0.1785 0.9839 -0.0000
vn -0.1843 0.9829 -0.0000
vn -0.5673 0.8235 -0.0000
vn -0.5686 0.8226 -0.0000
vn -0.8633 0.5047 -0.0000
vn -0.8632 0.5048 -0.0000
vn -0.9886 0.1505 -0.0000
vn -0.9887 0.1497 -0.0000
vn 0.4619 -0.8869 -0.0000
vn -0.5109 -0.8597 -0.0000
vn 0.5619 -0.8272 -0.0000
vn 0.8387 -0.5446 -0.0000
vn 0.9824 -0.1870 -0.0000
vn 0.9825 -0.1862 -0.0000
vn 0.9824 0.1866 -0.0000
vn 0.8366 0.5477 -0.0000
vn 0.8380 0.5457 -0.0000
vn 0.5588 0.8293 -0.0000
vn 0.1893 0.9819 -0.0000
vn 0.1903 0.9817 -0.0000
vn -0.1898 0.9818 -0.0000
vn -0.5580 0.8299 -0.0000
vn -0.5588 0.8293 -0.0000
vn -0.8381 0.5456 -0.0000
vn -0.8394 0.5434 -0.0000
vn -0.9826 0.1857 -0.0000
vn 0.8563 -0.0000 0.5164
vn -0.2603 0.9655 -0.0000
vn -0.2616 0.9652 -0.0000
vn -0.6376 0.7704 -0.0000
vn 0.9584 -0.2854 -0.0000
vn 0.9585 -0.2850 -0.0000
vn 0.9870 0.1609 -0.0000
vn 0.9870 0.1606 -0.0000
vn 0.8582 0.5133 -0.0000
vn 0.8587 0.5125 -0.0000
vn 0.5809 0.8140 -0.0000
vn 0.5736 -0.8192 -0.0000
vn 0.5747 -0.8184 -0.0000
vn 0.8658 -0.5003 -0.0000
vn 0.9878 -0.1554 -0.0000
vn 0.9879 -0.1550 -0.0000
vn 0.9881 0.1537 -0.0000
vn 0.1873 0.9823 -0.0000
vn 0.3280 0.9447 -0.0000
vn 0.3271 -0.9450 -0.0000
vn -0.5233 0.0972 -0.8466
vn -0.9884 0.1520 -0.0000
vn -0.6516 -0.0000 0.7585
vn -0.6926 -0.0000 0.7213
vn -0.6928 -0.0000 0.7211
vn -0.6516 -0.0000 0.7586
vn -0.5939 -0.0000 0.8046
vn -0.5938 -0.0000 0.8046
vn -0.5430 -0.0000 0.8397
vn -0.4869 -0.0000 0.8734
vn -0.6875 -0.0000 0.7261
vn -0.6426 -0.0000 0.7662
vn -0.5845 -0.0000 0.8114
vn -0.5846 -0.0000 0.8113
vn -0.5300 -0.0000 0.8480
vn -0.5301 -0.0000 0.8479
vn -0.7080 -0.0000 0.7063
vn -0.7040 -0.0000 0.7102
vn -0.7039 -0.0000 0.7103
vn -0.7046 -0.0000 0.7096
vn -0.6081 0.5103 -0.6081
vn -0.6082 0.5103 -0.6079
vn -0.2649 0.9272 -0.2647
vn 0.1872 0.9643 0.1872
vn 0.5623 0.6063 0.5624
vn 0.5623 -0.6063 0.5623
vn 0.5623 -0.6064 0.5623
vn -0.2648 -0.9273 -0.2647
vn -0.5001 0.7070 -0.5001
vn -0.6831 0.2587 -0.6830
vn -0.6830 0.2589 -0.6830
vn -0.6830 -0.2588 -0.6831
vn -0.6830 -0.2589 -0.6830
vn -0.5000 -0.7072 -0.5000
vn -0.5001 -0.7069 -0.5001
vn -0.1830 -0.9659 -0.1830
vn -0.1830 -0.9660 -0.1829
vn -0.2186 -0.9510 -0.2186
vn 0.2185 -0.9511 0.2185
vn 0.5721 -0.5878 0.5720
vn 0.5720 -0.5878 0.5721
vn 0.5721 0.5878 0.5720
vn 0.5721 0.5878 0.5721
vn 0.2185 0.9511 0.2185
vn 0.2185 0.9510 0.2185
vn -0.2184 0.9511 -0.2186
vn -0.2196 0.9510 -0.2175
vn -0.5749 0.5876 -0.5694
vn -0.5720 0.5879 -0.5720
vn -0.5722 -0.5877 -0.5720
vn -0.5746 -0.5879 -0.5693
vn -0.2195 -0.9511 -0.2175
vn 0.7072 0.0001 -0.7071
vn 0.7070 -0.0000 -0.7072
vn 0.7062 0.7080 -0.0036
vn -0.7071 -0.7071 -0.0000
vn 0.2230 -0.2230 0.9490
vn 0.2227 0.2233 0.9490
vn 0.2229 0.2231 0.9490
vn 0.2230 0.2230 0.9490
vn -0.7071 0.7071 -0.0000
vn -0.7065 0.7077 -0.0000
vn 0.2227 -0.2233 0.9490
vn 0.2229 -0.2231 0.9490
vn -0.7065 -0.7077 -0.0000
vn 0.7062 -0.7080 -0.0036
vn -0.2230 0.2230 0.9490
vn -0.2230 -0.2230 0.9490
vn -0.2229 -0.2231 0.9490
vn -0.2227 -0.2233 0.9490
vn -0.7062 -0.7080 -0.0036
vn 0.7065 -0.7077 -0.0000
vn -0.2227 0.2233 0.9490
vn -0.2229 0.2231 0.9490
vn 0.7065 0.7077 -0.0000
vn -0.7062 0.7080 -0.0036
vn 0.3535 0.8660 0.3537
vn 0.3534 0.8660 0.3537
vn 0.3536 0.8660 0.3535
vn -0.3535 -0.8660 -0.3536
vn -0.3536 -0.8660 -0.3535
vn 0.2564 -0.4532 0.8537
vn 0.2564 -0.4531 0.8538
vn -0.1703 -0.3120 0.9347
vn -0.5618 -0.1056 0.8205
vn -0.5617 -0.1058 0.8205
vn -0.2056 0.4407 -0.8738
vn -0.2058 0.4407 -0.8738
vn 0.1704 0.3119 -0.9347
vn 0.5190 0.1328 -0.8444
vn 0.5191 0.1329 -0.8443
vn 0.1703 0.3121 -0.9347
s 0
f 1//1 2//1 3//1
f 3//1 2//1 4//1
f 4//1 2//1 5//1
f 4//1 5//1 6//1
f 2//1 7//1 5//1
f 5//1 7//1 8//1
f 5//1 8//1 9//1
f 10//1 11//1 6//1
f 6//1 11//1 12//1
f 6//1 12//1 4//1
f 3//2 4//2 13//2
f 13//2 4//2 14//2
f 1//3 3//3 15//3
f 15//3 3//3 13//3
f 2//4 1//4 16//4
f 16//4 1//4 15//4
f 13//5 17//5 15//5
f 15//5 17//5 18//5
f 15//5 18//5 19//5
f 17//5 13//5 20//5
f 20//5 13//5 14//5
f 20//5 14//5 21//5
f 21//5 14//5 22//5
f 22//5 14//5 23//5
f 23//5 24//5 17//5
f 17//5 24//5 25//5
f 17//5 25//5 18//5
f 18//5 25//5 26//5
f 18//5 26//5 27//5
f 27//5 26//5 28//5
f 28//5 26//5 29//5
f 24//5 30//5 25//5
f 25//5 30//5 31//5
f 27//5 32//5 18//5
f 15//5 19//5 16//5
f 16//5 19//5 33//5
f 16//5 33//5 34//5
f 34//5 32//5 16//5
f 28//6 29//6 8//6
f 8//6 29//6 9//6
f 19//5 18//5 33//5
f 33//5 18//5 34//5
f 34//5 18//5 32//5
f 11//6 10//6 30//6
f 30//6 10//6 31//6
f 20//5 21//5 17//5
f 17//5 21//5 22//5
f 17//5 22//5 23//5
f 27//7 7//7 32//7
f 32//7 7//7 2//7
f 32//7 2//7 16//7
f 8//8 7//8 28//8
f 28//8 7//8 27//8
f 5//9 9//9 26//9
f 26//9 9//9 29//9
f 12//9 11//9 24//9
f 24//9 11//9 30//9
f 6//6 5//6 25//6
f 25//6 5//6 26//6
f 25//8 31//8 6//8
f 6//8 31//8 10//8
f 24//10 23//10 12//10
f 12//10 23//10 4//10
f 4//10 23//10 14//10
f 35//1 36//1 37//1
f 37//1 36//1 38//1
f 39//5 40//5 41//5
f 36//11 42//11 38//11
f 38//12 42//12 43//12
f 43//13 42//13 44//13
f 43//14 44//14 45//14
f 45//15 44//15 46//15
f 45//16 46//16 47//16
f 47//17 46//17 48//17
f 47//18 48//18 49//18
f 49//2 48//2 50//2
f 49//19 50//19 51//19
f 51//20 52//20 53//20
f 53//21 52//21 54//21
f 53//22 54//22 55//22
f 55//23 54//23 56//23
f 55//24 56//24 57//24
f 57//25 56//25 39//25
f 57//25 39//25 41//25
f 62//9 61//9 63//9
f 62//9 63//9 64//9
f 73//9 51//9 53//9
f 73//9 53//9 74//9
f 74//26 53//26 55//26
f 92//27 91//27 93//27
f 92//27 93//27 69//27
f 69//28 93//28 70//28
f 76//6 62//6 95//6
f 95//6 62//6 96//6
f 95//6 96//6 97//6
f 97//6 96//6 98//6
f 98//6 96//6 99//6
f 98//6 99//6 100//6
f 62//6 101//6 96//6
f 96//6 101//6 102//6
f 96//6 102//6 103//6
f 69//29 72//29 104//29
f 105//30 73//30 74//30
f 105//31 74//31 106//31
f 106//32 74//32 75//32
f 106//33 75//33 107//33
f 107//34 75//34 76//34
f 111//35 103//35 112//35
f 112//36 103//36 102//36
f 112//37 102//37 113//37
f 113//38 102//38 101//38
f 113//39 101//39 94//39
f 83//40 82//40 114//40
f 114//41 82//41 115//41
f 116//3 117//3 118//3
f 118//3 117//3 94//3
f 118//3 94//3 119//3
f 119//42 94//42 120//42
f 119//3 120//3 121//3
f 122//3 111//3 116//3
f 116//3 111//3 123//3
f 116//3 123//3 117//3
f 111//3 122//3 124//3
f 124//42 122//42 125//42
f 124//3 125//3 126//3
f 126//3 125//3 127//3
f 126//3 127//3 128//3
f 128//3 127//3 129//3
f 128//3 129//3 130//3
f 130//3 129//3 131//3
f 130//3 131//3 132//3
f 132//3 131//3 133//3
f 132//43 133//43 134//43
f 132//3 134//3 135//3
f 135//3 134//3 136//3
f 135//3 136//3 137//3
f 137//43 136//43 138//43
f 138//3 136//3 139//3
f 139//3 136//3 94//3
f 139//3 94//3 114//3
f 114//3 94//3 83//3
f 136//43 120//43 94//43
f 121//3 140//3 119//3
f 112//3 141//3 111//3
f 111//3 141//3 142//3
f 111//3 142//3 143//3
f 113//3 144//3 112//3
f 112//3 144//3 145//3
f 112//3 145//3 141//3
f 94//3 146//3 113//3
f 113//43 146//43 147//43
f 113//3 147//3 148//3
f 114//42 149//42 150//42
f 114//3 150//3 151//3
f 151//3 150//3 152//3
f 1144//3 153//3 149//3
f 1147//3 154//3 153//3
f 154//3 1150//3 1154//3
f 154//3 1154//3 156//3
f 111//3 160//3 156//3
f 156//43 160//43 161//43
f 156//3 161//3 162//3
f 162//3 161//3 163//3
f 164//3 165//3 166//3
f 166//3 165//3 142//3
f 166//3 142//3 167//3
f 167//3 142//3 168//3
f 168//3 142//3 141//3
f 164//3 146//3 165//3
f 165//3 146//3 94//3
f 165//3 94//3 169//3
f 169//3 94//3 170//3
f 169//3 170//3 171//3
f 148//3 172//3 113//3
f 113//3 172//3 173//3
f 113//3 173//3 174//3
f 174//3 144//3 113//3
f 166//3 167//3 175//3
f 175//3 167//3 176//3
f 175//3 176//3 177//3
f 177//3 176//3 178//3
f 178//3 176//3 179//3
f 178//42 179//42 180//42
f 180//3 179//3 181//3
f 166//43 175//43 182//43
f 182//3 175//3 183//3
f 182//3 183//3 184//3
f 182//3 184//3 185//3
f 185//3 184//3 186//3
f 185//3 186//3 187//3
f 111//3 143//3 188//3
f 188//3 143//3 189//3
f 188//3 189//3 190//3
f 188//3 191//3 111//3
f 111//3 191//3 192//3
f 111//3 192//3 123//3
f 192//3 191//3 193//3
f 193//3 191//3 194//3
f 193//3 194//3 94//3
f 94//43 194//43 170//43
f 171//3 195//3 169//3
f 196//3 197//3 198//3
f 198//3 197//3 199//3
f 199//3 197//3 200//3
f 200//3 197//3 201//3
f 200//3 201//3 202//3
f 202//3 201//3 203//3
f 202//3 203//3 204//3
f 204//3 203//3 205//3
f 204//3 205//3 206//3
f 206//3 205//3 207//3
f 206//42 207//42 208//42
f 197//3 209//3 201//3
f 203//3 210//3 205//3
f 205//3 210//3 211//3
f 211//3 210//3 212//3
f 211//3 212//3 213//3
f 213//3 212//3 124//3
f 124//3 212//3 111//3
f 212//3 210//3 214//3
f 214//3 210//3 215//3
f 214//3 215//3 216//3
f 216//42 139//42 214//42
f 214//44 139//44 217//44
f 217//3 139//3 114//3
f 217//3 114//3 218//3
f 218//43 114//43 151//43
f 212//3 219//3 111//3
f 111//43 219//43 160//43
f 160//3 219//3 218//3
f 218//3 219//3 217//3
f 150//44 149//44 220//44
f 220//42 149//42 221//42
f 220//3 221//3 222//3
f 162//3 223//3 156//3
f 156//3 223//3 224//3
f 156//3 224//3 225//3
f 220//3 226//3 223//3
f 223//3 226//3 227//3
f 223//3 227//3 228//3
f 229//3 230//3 231//3
f 231//43 230//43 232//43
f 232//3 230//3 233//3
f 232//3 233//3 234//3
f 234//3 233//3 235//3
f 234//3 235//3 236//3
f 236//3 235//3 237//3
f 236//3 237//3 238//3
f 238//3 237//3 239//3
f 238//3 239//3 240//3
f 240//43 241//43 238//43
f 238//3 242//3 236//3
f 234//3 243//3 232//3
f 232//3 243//3 244//3
f 244//3 243//3 156//3
f 244//3 156//3 225//3
f 243//3 154//3 156//3
f 222//3 245//3 220//3
f 220//3 245//3 226//3
f 228//3 246//3 223//3
f 223//42 246//42 224//42
f 117//3 247//3 94//3
f 94//3 247//3 248//3
f 94//3 248//3 193//3
f 249//3 250//3 247//3
f 247//3 250//3 248//3
f 95//45 97//45 109//45
f 110//46 97//46 108//46
f 108//47 97//47 155//47
f 155//48 97//48 98//48
f 155//49 98//49 158//49
f 158//50 98//50 100//50
f 159//51 100//51 99//51
f 159//52 99//52 157//52
f 157//53 99//53 96//53
f 157//54 96//54 156//54
f 252//55 1143//55 1153//55
f 252//4 1142//4 254//4
f 254//56 1141//56 114//56
f 254//4 114//4 255//4
f 255//4 114//4 256//4
f 256//57 114//57 257//57
f 257//4 114//4 115//4
f 257//58 115//58 258//58
f 258//59 115//59 259//59
f 259//59 115//59 260//59
f 260//4 115//4 261//4
f 260//4 261//4 262//4
f 262//4 261//4 263//4
f 263//4 261//4 264//4
f 263//4 264//4 265//4
f 265//4 264//4 266//4
f 265//60 266//60 267//60
f 267//61 266//61 104//61
f 267//57 104//57 268//57
f 268//62 104//62 1148//62
f 1148//63 269//63 268//63
f 1136//4 270//4 269//4
f 270//4 1140//4 1152//4
f 1152//4 271//4 270//4
f 271//4 1139//4 272//4
f 272//4 1139//4 1145//4
f 272//4 1146//4 273//4
f 273//4 1135//4 252//4
f 114//64 1151//64 1138//64
f 146//65 164//65 278//65
f 279//66 168//66 141//66
f 141//67 145//67 280//67
f 280//68 145//68 281//68
f 281//69 145//69 144//69
f 282//70 144//70 174//70
f 282//71 174//71 283//71
f 283//72 174//72 173//72
f 283//73 173//73 284//73
f 173//74 172//74 284//74
f 284//75 172//75 285//75
f 285//76 172//76 148//76
f 285//77 148//77 286//77
f 286//78 148//78 147//78
f 286//79 147//79 287//79
f 287//80 147//80 146//80
f 287//81 146//81 278//81
f 288//82 225//82 224//82
f 288//83 224//83 289//83
f 224//84 246//84 289//84
f 290//85 246//85 228//85
f 290//86 228//86 291//86
f 291//87 228//87 227//87
f 291//88 227//88 292//88
f 292//89 227//89 226//89
f 226//90 245//90 293//90
f 293//91 245//91 294//91
f 294//92 245//92 222//92
f 294//93 222//93 295//93
f 295//94 222//94 221//94
f 295//95 221//95 296//95
f 296//96 221//96 149//96
f 296//97 149//97 297//97
f 149//98 153//98 297//98
f 297//99 153//99 298//99
f 298//100 153//100 154//100
f 193//10 248//10 302//10
f 250//10 249//10 303//10
f 165//10 169//10 304//10
f 170//10 194//10 305//10
f 305//10 194//10 306//10
f 194//5 191//5 306//5
f 306//5 191//5 307//5
f 191//7 188//7 307//7
f 143//7 142//7 308//7
f 308//7 142//7 309//7
f 142//1 165//1 309//1
f 309//1 165//1 304//1
f 223//7 162//7 310//7
f 310//7 162//7 311//7
f 162//1 163//1 311//1
f 161//7 160//7 312//7
f 312//7 160//7 313//7
f 160//1 218//1 313//1
f 313//1 218//1 314//1
f 218//10 151//10 314//10
f 214//10 217//10 315//10
f 120//10 136//10 326//10
f 326//10 136//10 327//10
f 136//101 134//101 327//101
f 328//102 207//102 205//102
f 329//82 213//82 124//82
f 132//90 135//90 330//90
f 330//91 135//91 331//91
f 331//103 135//103 137//103
f 332//104 137//104 138//104
f 332//105 138//105 333//105
f 333//96 138//96 139//96
f 333//97 139//97 334//97
f 139//106 216//106 334//106
f 334//99 216//99 335//99
f 335//100 216//100 215//100
f 316//3 325//3 317//3
f 317//3 325//3 324//3
f 317//3 324//3 321//3
f 321//3 324//3 322//3
f 322//3 324//3 323//3
f 321//3 320//3 317//3
f 317//3 320//3 318//3
f 318//42 320//42 319//42
f 82//107 87//107 115//107
f 115//108 87//108 261//108
f 261//109 87//109 90//109
f 261//110 90//110 264//110
f 264//111 90//111 92//111
f 264//112 92//112 266//112
f 92//113 69//113 266//113
f 266//8 69//8 104//8
f 96//10 103//10 156//10
f 156//10 103//10 111//10
f 300//3 299//3 301//3
f 77//114 40//114 277//114
f 77//115 277//115 78//115
f 78//116 277//116 276//116
f 79//117 276//117 275//117
f 275//8 274//8 79//8
f 79//8 274//8 80//8
f 80//118 274//118 60//118
f 60//119 274//119 253//119
f 58//120 253//120 251//120
f 58//121 251//121 37//121
f 37//122 251//122 35//122
f 271//123 67//123 270//123
f 270//124 67//124 71//124
f 270//125 71//125 269//125
f 269//126 71//126 70//126
f 269//127 70//127 268//127
f 268//128 70//128 93//128
f 268//129 93//129 267//129
f 267//130 93//130 91//130
f 267//131 91//131 265//131
f 265//132 91//132 89//132
f 265//133 89//133 263//133
f 263//134 89//134 88//134
f 263//135 88//135 262//135
f 262//136 88//136 86//136
f 262//137 86//137 260//137
f 260//138 86//138 85//138
f 260//139 85//139 259//139
f 259//140 85//140 84//140
f 259//141 84//141 258//141
f 258//142 84//142 81//142
f 258//143 81//143 257//143
f 257//144 81//144 64//144
f 257//145 64//145 256//145
f 256//146 64//146 63//146
f 256//147 63//147 255//147
f 255//148 63//148 61//148
f 255//149 61//149 254//149
f 254//150 61//150 59//150
f 254//151 59//151 252//151
f 252//152 59//152 66//152
f 252//153 66//153 273//153
f 273//154 66//154 65//154
f 273//155 65//155 272//155
f 272//156 65//156 68//156
f 272//157 68//157 271//157
f 271//158 68//158 67//158
f 336//159 337//159 338//159
f 338//159 337//159 339//159
f 339//160 337//160 340//160
f 339//161 340//161 341//161
f 341//162 340//162 342//162
f 341//162 342//162 343//162
f 344//1 345//1 346//1
f 346//1 345//1 347//1
f 347//1 345//1 348//1
f 348//1 345//1 349//1
f 350//5 351//5 352//5
f 352//5 351//5 353//5
f 352//5 353//5 336//5
f 336//5 338//5 352//5
f 341//6 355//6 339//6
f 339//6 355//6 356//6
f 339//6 356//6 338//6
f 360//41 359//41 361//41
f 360//5 361//5 362//5
f 362//5 361//5 363//5
f 365//5 364//5 366//5
f 365//5 366//5 367//5
f 367//5 366//5 368//5
f 369//163 363//163 370//163
f 370//163 363//163 361//163
f 371//163 368//163 372//163
f 372//163 368//163 366//163
f 377//164 376//164 378//164
f 377//165 378//165 379//165
f 382//166 383//166 384//166
f 384//167 383//167 379//167
f 384//168 379//168 378//168
f 349//169 356//169 348//169
f 348//169 356//169 385//169
f 385//170 356//170 355//170
f 385//170 355//170 386//170
f 386//171 355//171 354//171
f 386//171 354//171 387//171
f 388//3 389//3 385//3
f 385//3 389//3 390//3
f 385//3 390//3 348//3
f 348//3 390//3 391//3
f 348//3 391//3 392//3
f 392//3 391//3 393//3
f 392//3 393//3 394//3
f 394//3 393//3 395//3
f 395//3 393//3 396//3
f 396//3 393//3 397//3
f 396//3 397//3 398//3
f 398//43 397//43 399//43
f 399//172 397//172 400//172
f 400//43 397//43 386//43
f 400//42 386//42 401//42
f 401//3 386//3 402//3
f 402//42 386//42 403//42
f 402//3 403//3 404//3
f 397//3 405//3 386//3
f 386//3 405//3 406//3
f 386//3 406//3 388//3
f 405//3 407//3 406//3
f 386//3 388//3 385//3
f 408//3 409//3 410//3
f 410//3 409//3 411//3
f 411//3 409//3 412//3
f 411//3 412//3 413//3
f 413//173 412//173 414//173
f 413//172 414//172 387//172
f 387//3 414//3 415//3
f 387//42 415//42 416//42
f 409//3 417//3 412//3
f 412//3 417//3 418//3
f 418//3 417//3 419//3
f 418//3 419//3 420//3
f 421//3 422//3 417//3
f 417//3 422//3 419//3
f 418//3 420//3 347//3
f 347//3 420//3 423//3
f 347//3 423//3 424//3
f 424//3 423//3 425//3
f 424//174 425//174 426//174
f 425//3 423//3 427//3
f 427//3 423//3 428//3
f 427//175 428//175 429//175
f 429//176 428//176 430//176
f 429//3 430//3 431//3
f 431//177 430//177 432//177
f 432//178 430//178 433//178
f 432//3 433//3 434//3
f 430//3 428//3 387//3
f 387//3 428//3 413//3
f 435//3 436//3 437//3
f 437//42 436//42 348//42
f 437//179 348//179 438//179
f 438//3 348//3 439//3
f 438//3 439//3 440//3
f 440//3 439//3 441//3
f 435//3 442//3 436//3
f 436//3 443//3 348//3
f 348//43 443//43 444//43
f 348//3 444//3 445//3
f 446//3 447//3 443//3
f 443//3 447//3 448//3
f 443//3 448//3 449//3
f 450//3 387//3 446//3
f 446//3 387//3 416//3
f 446//3 416//3 451//3
f 438//3 440//3 450//3
f 450//3 440//3 452//3
f 450//3 452//3 386//3
f 386//42 452//42 453//42
f 386//180 453//180 403//180
f 403//3 453//3 454//3
f 403//3 454//3 455//3
f 455//3 454//3 456//3
f 455//3 456//3 457//3
f 458//3 459//3 460//3
f 460//3 461//3 340//3
f 340//3 461//3 342//3
f 342//3 461//3 462//3
f 342//3 462//3 430//3
f 430//181 462//181 463//181
f 430//42 463//42 464//42
f 458//3 465//3 459//3
f 459//3 465//3 466//3
f 459//3 466//3 467//3
f 467//3 466//3 468//3
f 468//3 466//3 469//3
f 469//43 466//43 470//43
f 470//42 466//42 471//42
f 471//3 466//3 472//3
f 471//3 472//3 473//3
f 473//43 472//43 474//43
f 473//3 474//3 475//3
f 475//3 474//3 476//3
f 475//172 476//172 477//172
f 477//43 476//43 478//43
f 467//3 479//3 459//3
f 459//3 479//3 480//3
f 480//3 479//3 481//3
f 480//3 481//3 482//3
f 482//3 483//3 480//3
f 480//172 483//172 484//172
f 480//3 484//3 485//3
f 485//3 484//3 336//3
f 485//3 336//3 486//3
f 486//3 336//3 353//3
f 486//3 353//3 424//3
f 424//3 353//3 347//3
f 487//43 488//43 484//43
f 484//42 488//42 489//42
f 484//3 489//3 336//3
f 336//43 489//43 490//43
f 336//3 490//3 337//3
f 337//3 490//3 491//3
f 337//3 491//3 492//3
f 488//3 487//3 493//3
f 493//3 487//3 494//3
f 493//3 494//3 495//3
f 495//3 494//3 496//3
f 495//3 496//3 497//3
f 497//3 496//3 498//3
f 497//3 498//3 499//3
f 496//3 500//3 498//3
f 498//3 500//3 501//3
f 501//3 500//3 502//3
f 501//3 502//3 503//3
f 503//42 502//42 504//42
f 503//3 504//3 505//3
f 505//42 504//42 506//42
f 499//3 507//3 497//3
f 497//3 507//3 508//3
f 497//3 508//3 509//3
f 509//3 510//3 497//3
f 497//3 510//3 511//3
f 511//3 510//3 512//3
f 511//3 512//3 513//3
f 513//3 460//3 511//3
f 511//3 460//3 514//3
f 514//182 460//182 515//182
f 514//3 515//3 516//3
f 517//3 518//3 519//3
f 519//3 518//3 520//3
f 519//43 520//43 521//43
f 522//3 523//3 517//3
f 517//3 523//3 524//3
f 517//3 524//3 518//3
f 523//3 522//3 525//3
f 525//3 522//3 526//3
f 525//3 526//3 464//3
f 464//43 526//43 430//43
f 433//3 430//3 527//3
f 527//3 430//3 528//3
f 527//3 528//3 529//3
f 529//3 530//3 527//3
f 527//3 530//3 531//3
f 527//3 531//3 532//3
f 532//3 531//3 533//3
f 532//3 533//3 534//3
f 534//3 535//3 532//3
f 532//3 535//3 424//3
f 532//3 424//3 426//3
f 536//3 424//3 537//3
f 536//3 537//3 538//3
f 538//3 539//3 536//3
f 536//3 539//3 540//3
f 540//172 539//172 541//172
f 541//3 539//3 521//3
f 521//3 539//3 519//3
f 542//3 543//3 454//3
f 454//3 543//3 456//3
f 456//3 543//3 348//3
f 348//42 543//42 439//42
f 462//3 544//3 486//3
f 486//3 544//3 545//3
f 486//3 545//3 546//3
f 415//3 547//3 445//3
f 445//3 547//3 548//3
f 445//3 548//3 549//3
f 451//43 550//43 446//43
f 446//3 550//3 551//3
f 446//3 551//3 552//3
f 553//3 554//3 552//3
f 552//3 554//3 555//3
f 552//3 555//3 446//3
f 446//3 555//3 447//3
f 449//3 444//3 443//3
f 556//3 557//3 426//3
f 426//183 557//183 532//183
f 431//3 558//3 429//3
f 461//3 559//3 462//3
f 462//43 559//43 560//43
f 462//3 560//3 561//3
f 561//43 562//43 462//43
f 462//3 562//3 544//3
f 562//43 563//43 544//43
f 546//3 564//3 486//3
f 486//3 564//3 565//3
f 486//3 565//3 485//3
f 414//184 566//184 415//184
f 415//43 566//43 567//43
f 415//3 567//3 568//3
f 568//3 569//3 415//3
f 415//3 569//3 547//3
f 570//3 347//3 549//3
f 549//3 347//3 348//3
f 549//3 348//3 445//3
f 347//42 570//42 571//42
f 571//3 570//3 572//3
f 571//3 572//3 573//3
f 571//3 418//3 347//3
f 404//3 574//3 402//3
f 402//3 574//3 575//3
f 575//3 574//3 576//3
f 575//43 576//43 348//43
f 348//42 576//42 456//42
f 574//3 577//3 576//3
f 515//3 340//3 578//3
f 578//3 340//3 337//3
f 578//3 337//3 579//3
f 579//42 337//42 492//42
f 514//3 516//3 580//3
f 580//3 516//3 581//3
f 580//3 581//3 582//3
f 582//3 581//3 583//3
f 583//43 581//43 584//43
f 583//3 584//3 585//3
f 585//185 586//185 587//185
f 392//3 588//3 348//3
f 348//42 588//42 589//42
f 348//42 589//42 590//42
f 588//3 591//3 589//3
f 589//3 591//3 592//3
f 593//3 594//3 590//3
f 590//3 594//3 595//3
f 590//3 595//3 596//3
f 400//3 401//3 593//3
f 593//3 401//3 597//3
f 593//3 597//3 598//3
f 598//3 597//3 599//3
f 598//3 599//3 600//3
f 386//3 387//3 450//3
f 387//3 342//3 430//3
f 598//3 594//3 593//3
f 601//3 602//3 594//3
f 594//3 602//3 595//3
f 590//3 596//3 348//3
f 348//3 596//3 575//3
f 515//3 460//3 340//3
f 603//186 604//186 605//186
f 605//187 604//187 606//187
f 605//188 606//188 607//188
f 608//189 607//189 609//189
f 608//190 609//190 610//190
f 610//191 609//191 611//191
f 610//192 611//192 612//192
f 611//193 613//193 612//193
f 612//194 613//194 614//194
f 614//195 613//195 615//195
f 620//41 619//41 621//41
f 624//196 625//196 626//196
f 628//197 629//197 627//197
f 627//198 629//198 630//198
f 624//5 631//5 625//5
f 625//5 631//5 632//5
f 633//199 634//199 347//199
f 347//200 634//200 635//200
f 347//200 635//200 346//200
f 346//201 635//201 636//201
f 346//62 636//62 637//62
f 636//201 635//201 629//201
f 629//64 635//64 638//64
f 629//202 638//202 639//202
f 639//4 638//4 640//4
f 639//4 640//4 641//4
f 629//4 639//4 624//4
f 624//203 639//203 642//203
f 624//64 642//64 643//64
f 643//204 642//204 644//204
f 644//205 642//205 645//205
f 645//4 642//4 622//4
f 645//4 622//4 646//4
f 646//4 622//4 604//4
f 604//206 622//206 606//206
f 606//207 622//207 623//207
f 606//4 623//4 607//4
f 607//208 623//208 609//208
f 609//209 623//209 611//209
f 648//199 647//199 649//199
f 648//199 649//199 650//199
f 650//210 649//210 651//210
f 611//211 633//211 347//211
f 611//212 347//212 378//212
f 378//56 347//56 353//56
f 378//4 353//4 652//4
f 652//4 353//4 653//4
f 652//55 653//55 654//55
f 654//213 653//213 655//213
f 655//214 653//214 656//214
f 656//56 653//56 657//56
f 656//4 657//4 658//4
f 658//4 657//4 659//4
f 659//56 657//56 660//56
f 660//202 657//202 661//202
f 660//4 661//4 662//4
f 662//4 661//4 663//4
f 662//4 663//4 664//4
f 664//56 663//56 665//56
f 664//4 665//4 666//4
f 666//59 665//59 667//59
f 667//202 665//202 668//202
f 667//215 668//215 669//215
f 669//56 668//56 670//56
f 669//4 670//4 351//4
f 351//4 670//4 671//4
f 351//202 671//202 672//202
f 351//59 672//59 353//59
f 353//56 672//56 673//56
f 353//4 673//4 653//4
f 664//4 666//4 674//4
f 674//4 666//4 675//4
f 674//4 675//4 676//4
f 676//200 675//200 677//200
f 676//202 677//202 678//202
f 678//200 677//200 679//200
f 678//216 679//216 680//216
f 680//200 679//200 346//200
f 680//200 346//200 637//200
f 681//4 682//4 683//4
f 683//217 682//217 380//217
f 683//4 380//4 381//4
f 683//202 381//202 684//202
f 684//4 381//4 382//4
f 684//4 382//4 384//4
f 684//4 384//4 652//4
f 652//218 384//218 378//218
f 376//219 372//219 378//219
f 378//220 372//220 366//220
f 378//221 366//221 370//221
f 370//222 366//222 364//222
f 370//223 364//223 685//223
f 685//224 364//224 686//224
f 685//225 686//225 687//225
f 376//4 375//4 372//4
f 372//226 375//226 374//226
f 372//227 374//227 688//227
f 688//228 374//228 373//228
f 688//229 373//229 689//229
f 689//4 690//4 688//4
f 688//4 690//4 691//4
f 691//230 690//230 692//230
f 691//231 692//231 693//231
f 693//56 694//56 691//56
f 691//203 694//203 695//203
f 691//4 695//4 696//4
f 696//62 695//62 697//62
f 697//4 695//4 698//4
f 695//201 694//201 699//201
f 699//57 694//57 700//57
f 699//202 700//202 701//202
f 701//4 700//4 702//4
f 702//4 700//4 703//4
f 702//232 703//232 704//232
f 703//4 700//4 705//4
f 705//233 700//233 706//233
f 705//234 706//234 707//234
f 707//235 706//235 681//235
f 707//236 681//236 683//236
f 364//4 619//4 686//4
f 686//4 619//4 618//4
f 687//237 708//237 685//237
f 685//238 708//238 709//238
f 709//239 708//239 710//239
f 709//64 710//64 696//64
f 696//64 710//64 691//64
f 708//239 711//239 710//239
f 370//240 361//240 378//240
f 378//241 361//241 611//241
f 359//242 615//242 361//242
f 361//4 615//4 613//4
f 361//202 613//202 611//202
f 358//4 712//4 359//4
f 359//59 712//59 617//59
f 359//243 617//243 616//243
f 358//4 357//4 712//4
f 712//225 713//225 617//225
f 617//4 713//4 714//4
f 714//244 713//244 715//244
f 714//202 715//202 716//202
f 716//245 715//245 717//245
f 716//246 717//246 718//246
f 718//247 717//247 719//247
f 719//248 717//248 720//248
f 720//249 717//249 709//249
f 720//200 709//200 696//200
f 715//239 721//239 717//239
f 616//242 615//242 359//242
f 722//250 723//250 643//250
f 643//251 723//251 724//251
f 643//252 724//252 631//252
f 723//203 722//203 725//203
f 725//253 722//253 726//253
f 725//215 726//215 714//215
f 624//254 626//254 629//254
f 629//64 626//64 630//64
f 676//4 727//4 674//4
f 674//4 727//4 728//4
f 728//4 727//4 729//4
f 728//4 729//4 730//4
f 730//56 729//56 699//56
f 730//56 699//56 701//56
f 716//64 725//64 714//64
f 631//59 624//59 643//59
f 731//202 732//202 658//202
f 658//255 732//255 733//255
f 658//59 733//59 656//59
f 695//256 734//256 698//256
f 698//257 734//257 735//257
f 698//258 735//258 736//258
f 737//259 696//259 736//259
f 736//260 696//260 697//260
f 736//261 697//261 698//261
f 737//1 738//1 696//1
f 696//262 738//262 720//262
f 739//263 716//263 740//263
f 740//264 716//264 718//264
f 741//265 718//265 719//265
f 741//122 719//122 738//122
f 738//266 719//266 720//266
f 632//267 631//267 742//267
f 742//268 631//268 724//268
f 743//269 723//269 725//269
f 739//8 743//8 716//8
f 716//8 743//8 725//8
f 703//196 744//196 704//196
f 702//270 745//270 701//270
f 701//271 745//271 746//271
f 701//272 746//272 730//272
f 730//273 746//273 747//273
f 730//274 747//274 728//274
f 728//275 747//275 748//275
f 728//276 748//276 674//276
f 674//2 748//2 749//2
f 674//277 749//277 664//277
f 664//278 749//278 750//278
f 664//279 750//279 662//279
f 662//280 750//280 751//280
f 662//281 751//281 660//281
f 660//282 751//282 752//282
f 660//283 752//283 659//283
f 659//284 752//284 753//284
f 659//285 753//285 658//285
f 754//286 705//286 755//286
f 755//268 705//268 707//268
f 756//115 707//115 683//115
f 756//287 683//287 757//287
f 757//117 683//117 684//117
f 684//8 652//8 757//8
f 757//8 652//8 758//8
f 758//288 652//288 759//288
f 759//264 652//264 654//264
f 656//1 733//1 760//1
f 760//1 733//1 761//1
f 761//260 733//260 762//260
f 762//260 733//260 732//260
f 762//261 732//261 731//261
f 763//5 764//5 633//5
f 640//289 638//289 765//289
f 767//290 768//290 769//290
f 771//291 772//291 773//291
f 773//292 772//292 774//292
f 646//293 776//293 645//293
f 645//294 776//294 777//294
f 645//295 777//295 644//295
f 644//296 778//296 643//296
f 779//297 780//297 781//297
f 372//1 783//1 371//1
f 783//298 620//298 621//298
f 787//299 726//299 722//299
f 787//300 722//300 786//300
f 786//301 722//301 643//301
f 786//302 643//302 778//302
f 370//1 788//1 369//1
f 457//1 456//1 790//1
f 574//5 404//5 791//5
f 403//1 455//1 792//1
f 455//10 457//10 793//10
f 793//10 457//10 790//10
f 794//303 640//303 795//303
f 795//304 640//304 765//304
f 638//305 635//305 766//305
f 766//306 635//306 770//306
f 634//307 770//307 635//307
f 796//308 764//308 763//308
f 799//309 798//309 800//309
f 799//310 800//310 801//310
f 801//311 800//311 802//311
f 549//312 548//312 810//312
f 810//313 548//313 811//313
f 548//314 547//314 811//314
f 813//315 812//315 814//315
f 813//316 814//316 815//316
f 815//317 814//317 816//317
f 815//318 816//318 817//318
f 818//319 819//319 817//319
f 817//320 819//320 815//320
f 817//321 779//321 820//321
f 818//322 817//322 820//322
f 822//323 784//323 823//323
f 823//324 821//324 822//324
f 821//325 823//325 824//325
f 824//326 823//326 825//326
f 828//327 821//327 824//327
f 603//328 646//328 604//328
f 832//329 831//329 833//329
f 485//330 565//330 845//330
f 845//331 565//331 846//331
f 846//332 565//332 564//332
f 846//333 564//333 847//333
f 847//334 564//334 546//334
f 546//335 545//335 848//335
f 848//336 545//336 849//336
f 849//337 545//337 544//337
f 850//338 544//338 563//338
f 850//339 563//339 851//339
f 563//340 562//340 851//340
f 851//341 562//341 852//341
f 852//342 562//342 561//342
f 852//343 561//343 853//343
f 561//344 560//344 853//344
f 854//345 560//345 559//345
f 854//346 559//346 855//346
f 855//347 559//347 461//347
f 401//7 402//7 856//7
f 856//7 402//7 857//7
f 402//1 575//1 857//1
f 857//1 575//1 858//1
f 575//10 596//10 858//10
f 598//7 600//7 859//7
f 859//7 600//7 860//7
f 600//5 599//5 860//5
f 431//7 432//7 861//7
f 861//7 432//7 862//7
f 432//348 434//348 862//348
f 863//349 433//349 864//349
f 433//7 527//7 864//7
f 557//350 556//350 865//350
f 865//351 556//351 866//351
f 881//5 883//5 882//5
f 884//352 449//352 448//352
f 884//353 448//353 885//353
f 885//354 448//354 447//354
f 447//355 555//355 886//355
f 887//356 555//356 554//356
f 887//357 554//357 888//357
f 888//358 554//358 553//358
f 775//359 889//359 890//359
f 890//360 889//360 891//360
f 892//361 893//361 894//361
f 894//362 893//362 895//362
f 894//363 895//363 771//363
f 692//364 904//364 693//364
f 908//365 907//365 909//365
f 910//5 912//5 911//5
f 911//5 912//5 913//5
f 912//10 914//10 913//10
f 913//10 914//10 915//10
f 914//366 916//366 915//366
f 919//367 521//367 520//367
f 919//368 520//368 920//368
f 920//369 520//369 518//369
f 921//370 518//370 524//370
f 921//370 524//370 922//370
f 524//371 523//371 922//371
f 923//372 523//372 525//372
f 923//373 525//373 924//373
f 924//374 525//374 464//374
f 924//375 464//375 925//375
f 925//376 464//376 463//376
f 925//377 463//377 926//377
f 463//7 462//7 926//7
f 926//7 462//7 927//7
f 462//1 486//1 927//1
f 927//1 486//1 918//1
f 441//1 439//1 928//1
f 453//7 452//7 929//7
f 452//1 440//1 930//1
f 440//10 441//10 931//10
f 931//10 441//10 928//10
f 388//7 406//7 932//7
f 397//378 393//378 933//378
f 936//379 935//379 937//379
f 951//380 538//380 952//380
f 952//381 538//381 537//381
f 952//381 537//381 953//381
f 953//382 537//382 424//382
f 953//383 424//383 954//383
f 424//384 535//384 954//384
f 955//385 535//385 534//385
f 955//386 534//386 956//386
f 956//387 534//387 533//387
f 957//388 533//388 531//388
f 957//389 531//389 958//389
f 531//390 530//390 958//390
f 959//391 530//391 529//391
f 959//392 529//392 960//392
f 960//393 529//393 528//393
f 960//394 528//394 961//394
f 961//395 528//395 430//395
f 364//396 621//396 619//396
f 466//397 465//397 962//397
f 962//398 465//398 963//398
f 963//399 465//399 458//399
f 964//400 487//400 484//400
f 964//401 484//401 965//401
f 484//402 483//402 965//402
f 965//403 483//403 966//403
f 966//404 483//404 482//404
f 966//405 482//405 967//405
f 967//406 482//406 481//406
f 789//5 713//5 712//5
f 969//5 515//5 970//5
f 515//7 578//7 970//7
f 970//7 578//7 971//7
f 578//1 579//1 971//1
f 972//407 492//407 491//407
f 972//408 491//408 973//408
f 973//409 491//409 490//409
f 974//410 490//410 489//410
f 974//411 489//411 975//411
f 489//412 488//412 975//412
f 976//413 495//413 497//413
f 511//7 514//7 977//7
f 977//7 514//7 968//7
f 979//414 981//414 980//414
f 980//414 981//414 982//414
f 981//415 978//415 982//415
f 437//10 438//10 983//10
f 983//10 438//10 984//10
f 413//7 428//7 985//7
f 428//1 423//1 986//1
f 423//10 420//10 987//10
f 987//10 420//10 988//10
f 420//5 419//5 988//5
f 988//5 419//5 989//5
f 419//7 422//7 989//7
f 999//5 1001//5 1000//5
f 1000//5 1001//5 1002//5
f 1001//10 990//10 1002//10
f 1003//416 399//416 400//416
f 1003//417 400//417 1004//417
f 400//7 593//7 1004//7
f 1004//7 593//7 1005//7
f 593//1 590//1 1005//1
f 590//10 589//10 1006//10
f 901//418 769//418 771//418
f 771//419 769//419 768//419
f 771//420 768//420 772//420
f 771//421 895//421 901//421
f 901//422 895//422 902//422
f 902//423 895//423 893//423
f 902//424 893//424 903//424
f 903//424 893//424 891//424
f 903//425 891//425 889//425
f 784//426 779//426 823//426
f 823//426 779//426 817//426
f 823//427 817//427 816//427
f 823//427 816//427 825//427
f 825//428 816//428 814//428
f 825//429 814//429 826//429
f 826//430 814//430 827//430
f 827//431 814//431 812//431
f 768//432 899//432 772//432
f 772//222 899//222 896//222
f 896//433 899//433 900//433
f 896//434 900//434 897//434
f 897//249 900//249 898//249
f 779//222 784//222 780//222
f 780//222 784//222 785//222
f 780//435 785//435 782//435
f 993//3 990//3 994//3
f 994//3 990//3 998//3
f 994//3 998//3 995//3
f 995//3 998//3 997//3
f 995//3 997//3 996//3
f 992//3 991//3 993//3
f 993//3 991//3 990//3
f 1001//3 999//3 990//3
f 990//3 999//3 998//3
f 979//3 978//3 981//3
f 938//3 934//3 939//3
f 939//3 934//3 950//3
f 939//3 950//3 949//3
f 937//172 935//172 938//172
f 938//3 935//3 934//3
f 949//3 948//3 939//3
f 939//3 948//3 947//3
f 939//3 947//3 940//3
f 940//3 947//3 941//3
f 941//3 947//3 942//3
f 942//3 947//3 943//3
f 943//3 947//3 946//3
f 943//43 946//43 944//43
f 944//42 946//42 945//42
f 907//3 906//3 909//3
f 909//43 906//43 905//43
f 909//3 905//3 914//3
f 914//42 905//42 917//42
f 914//43 917//43 916//43
f 912//3 910//3 914//3
f 914//3 910//3 909//3
f 877//172 876//172 878//172
f 878//3 876//3 880//3
f 878//179 880//179 879//179
f 883//3 881//3 876//3
f 876//3 881//3 880//3
f 868//3 867//3 869//3
f 869//3 867//3 875//3
f 869//3 875//3 872//3
f 872//3 875//3 873//3
f 873//172 875//172 874//172
f 872//3 871//3 869//3
f 869//43 871//43 870//43
f 839//3 838//3 840//3
f 840//3 838//3 842//3
f 840//179 842//179 841//179
f 844//3 843//3 838//3
f 838//3 843//3 842//3
f 829//3 837//3 830//3
f 830//3 837//3 836//3
f 830//3 836//3 833//3
f 833//3 836//3 834//3
f 834//3 836//3 835//3
f 833//172 831//172 830//172
f 628//436 1007//436 629//436
f 629//437 1007//437 636//437
f 636//271 1007//271 1008//271
f 636//438 1008//438 637//438
f 637//273 1008//273 1009//273
f 637//439 1009//439 680//439
f 680//275 1009//275 1010//275
f 680//440 1010//440 678//440
f 678//2 1010//2 1011//2
f 678//277 1011//277 676//277
f 676//441 1011//441 1012//441
f 676//442 1012//442 727//442
f 727//281 1012//281 1013//281
f 727//280 1013//280 729//280
f 729//283 1013//283 1014//283
f 729//443 1014//443 699//443
f 699//284 1014//284 734//284
f 699//285 734//285 695//285
f 703//5 705//5 744//5
f 744//5 705//5 754//5
f 350//107 1015//107 351//107
f 351//108 1015//108 669//108
f 669//109 1015//109 1016//109
f 669//444 1016//444 667//444
f 667//445 1016//445 1017//445
f 667//446 1017//446 666//446
f 1017//8 1018//8 666//8
f 666//8 1018//8 675//8
f 1018//447 1019//447 675//447
f 675//448 1019//448 677//448
f 677//449 1019//449 1020//449
f 677//450 1020//450 679//450
f 679//451 1020//451 344//451
f 679//452 344//452 346//452
f 1021//453 671//453 1022//453
f 1022//454 671//454 670//454
f 1022//454 670//454 1023//454
f 1023//455 670//455 668//455
f 1023//456 668//456 1024//456
f 1024//2 668//2 665//2
f 1024//2 665//2 1025//2
f 1025//457 665//457 663//457
f 1025//458 663//458 1026//458
f 1026//459 663//459 661//459
f 1026//460 661//460 1027//460
f 1027//461 661//461 657//461
f 1027//462 657//462 1028//462
f 1028//463 657//463 653//463
f 1028//464 653//464 1029//464
f 1029//8 653//8 673//8
f 1029//8 673//8 1030//8
f 1030//465 673//465 672//465
f 1030//466 672//466 1021//466
f 1021//467 672//467 671//467
f 354//10 343//10 387//10
f 387//10 343//10 342//10
f 802//3 798//3 803//3
f 803//42 798//42 797//42
f 803//3 797//3 806//3
f 806//43 797//43 809//43
f 806//172 809//172 807//172
f 807//43 809//43 808//43
f 802//42 800//42 798//42
f 805//3 804//3 806//3
f 806//3 804//3 803//3
f 1009//468 1020//468 1010//468
f 1010//9 1020//9 1019//9
f 1010//26 1019//26 1011//26
f 748//9 1017//9 749//9
f 749//9 1017//9 1025//9
f 749//469 1025//469 1026//469
f 749//9 1026//9 750//9
f 750//9 1027//9 751//9
f 751//9 1027//9 1028//9
f 751//469 1028//469 752//469
f 743//9 739//9 345//9
f 345//9 739//9 757//9
f 757//469 739//469 756//469
f 756//26 739//26 740//26
f 1031//3 1032//3 1033//3
f 1033//3 1032//3 1034//3
f 1035//161 1036//161 1037//161
f 1037//161 1036//161 1038//161
f 1037//470 1038//470 1039//470
f 1040//10 1032//10 1038//10
f 1038//10 1032//10 1031//10
f 1038//10 1031//10 1041//10
f 1038//10 1036//10 1040//10
f 1032//5 1040//5 1034//5
f 1034//5 1040//5 1042//5
f 1031//471 1033//471 1041//471
f 1041//471 1033//471 1043//471
f 1041//471 1043//471 1044//471
f 1044//471 1043//471 1045//471
f 1044//471 1045//471 1046//471
f 1039//472 1038//472 1044//472
f 1044//472 1038//472 1041//472
f 1037//473 1039//473 1047//473
f 1047//474 1039//474 1048//474
f 1048//475 1039//475 1046//475
f 1046//475 1039//475 1044//475
f 1049//3 1050//3 1048//3
f 1048//3 1050//3 1051//3
f 1048//3 1051//3 1052//3
f 1052//3 1047//3 1048//3
f 1037//476 1047//476 1035//476
f 1035//476 1047//476 1053//476
f 1053//477 1047//477 1052//477
f 1034//7 1042//7 1033//7
f 1033//7 1042//7 1043//7
f 1046//170 1045//170 1048//170
f 1048//170 1045//170 1054//170
f 1048//170 1054//170 1049//170
f 1049//10 1054//10 1050//10
f 1050//10 1054//10 1055//10
f 1050//5 1055//5 1051//5
f 1051//5 1055//5 1056//5
f 1052//7 1051//7 1053//7
f 1053//7 1051//7 1056//7
f 1040//6 1036//6 1042//6
f 1042//6 1036//6 1043//6
f 1043//6 1036//6 1045//6
f 1045//6 1036//6 1035//6
f 1045//6 1035//6 1053//6
f 1056//6 1055//6 1053//6
f 1053//6 1055//6 1054//6
f 1053//6 1054//6 1045//6
f 1057//3 1058//3 1059//3
f 1059//3 1058//3 1060//3
f 1061//478 1062//478 1063//478
f 1063//479 1062//479 1064//479
f 1063//472 1064//472 1065//472
f 1065//472 1066//472 1063//472
f 1062//3 1067//3 1064//3
f 1064//3 1067//3 1068//3
f 1064//3 1068//3 1069//3
f 1069//3 1070//3 1064//3
f 1066//475 1071//475 1063//475
f 1063//475 1071//475 1072//475
f 1067//480 1062//480 1073//480
f 1073//471 1062//471 1074//471
f 1074//471 1062//471 1061//471
f 1060//1 1075//1 1059//1
f 1059//1 1075//1 1076//1
f 1063//481 1072//481 1061//481
f 1061//170 1072//170 1077//170
f 1061//170 1077//170 1074//170
f 1071//10 1057//10 1072//10
f 1072//10 1057//10 1059//10
f 1072//10 1059//10 1076//10
f 1076//10 1077//10 1072//10
f 1057//476 1071//476 1058//476
f 1058//476 1071//476 1078//476
f 1078//476 1071//476 1066//476
f 1078//476 1066//476 1079//476
f 1079//476 1066//476 1065//476
f 1058//7 1078//7 1060//7
f 1060//7 1078//7 1075//7
f 1065//161 1064//161 1079//161
f 1079//161 1064//161 1080//161
f 1080//161 1064//161 1070//161
f 1068//1 1081//1 1069//1
f 1069//1 1081//1 1082//1
f 1069//10 1082//10 1070//10
f 1070//10 1082//10 1080//10
f 1068//7 1067//7 1081//7
f 1081//7 1067//7 1073//7
f 1076//6 1075//6 1077//6
f 1077//6 1075//6 1078//6
f 1077//6 1078//6 1079//6
f 1080//6 1073//6 1079//6
f 1079//6 1073//6 1074//6
f 1079//6 1074//6 1077//6
f 1080//6 1082//6 1073//6
f 1073//6 1082//6 1081//6
f 1083//482 1084//482 1085//482
f 1085//482 1084//482 1086//482
f 1085//483 1087//483 1083//483
f 1083//483 1087//483 1088//483
f 1083//484 1088//484 1089//484
f 1089//485 1090//485 1083//485
f 1087//476 1091//476 1088//476
f 1088//476 1091//476 1092//476
f 1088//476 1092//476 1093//476
f 1094//1 1095//1 1096//1
f 1096//1 1095//1 1097//1
f 1083//486 1090//486 1084//486
f 1084//471 1090//471 1098//471
f 1098//471 1090//471 1099//471
f 1100//1 1101//1 1102//1
f 1102//1 1101//1 1103//1
f 1086//161 1104//161 1085//161
f 1085//161 1104//161 1091//161
f 1085//161 1091//161 1087//161
f 1105//161 1106//161 1086//161
f 1086//161 1106//161 1104//161
f 1105//3 1094//3 1106//3
f 1106//3 1094//3 1096//3
f 1100//10 1107//10 1101//10
f 1101//10 1107//10 1108//10
f 1095//6 1098//6 1097//6
f 1097//6 1098//6 1104//6
f 1104//6 1098//6 1091//6
f 1091//6 1098//6 1099//6
f 1091//6 1099//6 1107//6
f 1100//6 1102//6 1107//6
f 1107//6 1102//6 1092//6
f 1107//6 1092//6 1091//6
f 1098//7 1095//7 1084//7
f 1084//7 1095//7 1094//7
f 1084//7 1094//7 1105//7
f 1105//7 1086//7 1084//7
f 1103//3 1101//3 1088//3
f 1088//3 1101//3 1108//3
f 1088//3 1108//3 1089//3
f 1088//3 1093//3 1103//3
f 1108//487 1107//487 1089//487
f 1089//170 1107//170 1099//170
f 1089//170 1099//170 1090//170
f 1093//7 1092//7 1103//7
f 1103//7 1092//7 1102//7
f 1096//10 1097//10 1106//10
f 1106//10 1097//10 1104//10
f 1109//10 1110//10 1111//10
f 1111//10 1110//10 1112//10
f 1113//7 1114//7 1115//7
f 1115//7 1114//7 1116//7
f 1115//3 1117//3 1113//3
f 1113//3 1117//3 1118//3
f 1118//3 1117//3 1119//3
f 1119//3 1117//3 1120//3
f 1121//7 1122//7 1123//7
f 1123//7 1122//7 1124//7
f 1124//7 1122//7 1125//7
f 1125//7 1122//7 1126//7
f 1123//6 1112//6 1121//6
f 1121//6 1112//6 1110//6
f 1121//6 1110//6 1127//6
f 1116//6 1128//6 1127//6
f 1127//6 1128//6 1129//6
f 1127//6 1129//6 1121//6
f 1116//6 1114//6 1128//6
f 1128//6 1114//6 1130//6
f 1118//10 1119//10 1130//10
f 1130//10 1119//10 1128//10
f 1111//3 1124//3 1109//3
f 1109//3 1124//3 1125//3
f 1114//5 1113//5 1130//5
f 1130//5 1113//5 1118//5
f 1111//5 1112//5 1124//5
f 1124//5 1112//5 1123//5
f 1131//488 1120//488 1132//488
f 1132//489 1120//489 1117//489
f 1132//482 1117//482 1133//482
f 1133//482 1134//482 1132//482
f 1133//471 1117//471 1127//471
f 1127//471 1117//471 1116//471
f 1116//471 1117//471 1115//471
f 1122//483 1132//483 1126//483
f 1126//483 1132//483 1134//483
f 1131//161 1129//161 1120//161
f 1120//161 1129//161 1128//161
f 1120//490 1128//490 1119//490
f 1133//170 1127//170 1134//170
f 1134//170 1127//170 1110//170
f 1134//170 1110//170 1126//170
f 1126//170 1110//170 1109//170
f 1126//170 1109//170 1125//170
f 1132//491 1122//491 1131//491
f 1131//476 1122//476 1121//476
f 1131//476 1121//476 1129//476
f 1138//3 149//3 114//3
f 1137//3 1144//3 149//3
f 1141//4 1151//4 114//4
f 1135//4 1143//4 252//4
f 1144//3 1147//3 153//3
f 1147//3 1150//3 154//3
f 252//4 1153//4 1142//4
f 254//56 1142//56 1141//56
f 1148//64 1136//64 269//64
f 1136//4 1140//4 270//4
f 1152//4 1149//4 271//4
f 271//4 1149//4 1139//4
f 272//4 1145//4 1146//4
f 273//4 1146//4 1135//4
f 1138//3 1137//3 149//3
f 1155//7 1156//7 1157//7
f 1157//7 1156//7 1158//7
f 1156//3 1159//3 1158//3
f 1158//3 1159//3 1160//3
f 1159//10 1161//10 1160//10
f 1160//10 1161//10 1162//10
f 1161//6 1155//6 1162//6
f 1162//6 1155//6 1157//6
f 1155//1 1161//1 1156//1
f 1156//1 1161//1 1159//1
f 1158//5 1160//5 1157//5
f 1157//5 1160//5 1162//5
f 1163//10 1164//10 1165//10
f 1165//10 1164//10 1166//10
f 1164//6 1167//6 1166//6
f 1166//6 1167//6 1168//6
f 1169//3 1163//3 1170//3
f 1170//3 1163//3 1165//3
f 1167//7 1169//7 1168//7
f 1168//7 1169//7 1170//7
f 1166//5 1168//5 1165//5
f 1165//5 1168//5 1170//5
f 1163//1 1169//1 1164//1
f 1164//1 1169//1 1167//1
f 1171//492 1172//492 1173//492
f 1173//493 1172//493 1174//493
f 1173//494 1174//494 1175//494
f 1175//494 1174//494 1176//494
f 1177//495 1178//495 1179//495
f 1179//495 1178//495 1180//495
f 1180//496 1178//496 1181//496
f 1180//496 1181//496 1182//496
f 1177//497 1176//497 1178//497
f 1178//498 1176//498 1174//498
f 1178//499 1174//499 1181//499
f 1181//499 1174//499 1172//499
f 1181//500 1172//500 1182//500
f 1182//501 1172//501 1171//501
f 1182//502 1171//502 1180//502
f 1180//503 1171//503 1173//503
f 1180//504 1173//504 1175//504
f 1176//505 1177//505 1175//505
f 1175//506 1177//506 1179//506
f 1175//507 1179//507 1180//507
