# Blender 4.0.2
# www.blender.org
o base__m4
v -0.266199 0.245830 0.130855
v -0.265979 0.246149 0.131074
v -0.265939 0.257221 0.131114
v -0.265955 0.257344 0.131099
v -0.266001 0.257445 0.131053
v -0.266071 0.257515 0.130983
v -0.266157 0.257543 0.130897
v -0.273741 0.257598 0.123312
v -0.273828 0.257571 0.123225
v -0.273899 0.257503 0.123154
v -0.273946 0.257402 0.123107
v -0.273962 0.257279 0.123091
v -0.274002 0.246207 0.123051
v -0.273987 0.246083 0.123067
v -0.273941 0.245982 0.123113
v -0.273871 0.245912 0.123183
v -0.273785 0.245885 0.123269
v -0.266113 0.245856 0.130941
v -0.265767 0.246149 0.130862
v -0.265783 0.246026 0.130846
v -0.265830 0.245925 0.130799
v -0.265901 0.245856 0.130729
v -0.265987 0.245830 0.130643
v -0.273573 0.245885 0.123057
v -0.273659 0.245912 0.122970
v -0.273729 0.245982 0.122901
v -0.273775 0.246083 0.122855
v -0.273790 0.246207 0.122839
v -0.273750 0.257279 0.122879
v -0.273734 0.257402 0.122895
v -0.273687 0.257503 0.122942
v -0.273616 0.257571 0.123013
v -0.273529 0.257598 0.123100
v -0.265945 0.257543 0.130685
v -0.265859 0.257515 0.130771
v -0.265789 0.257445 0.130840
v -0.265743 0.257344 0.130887
v -0.265727 0.257221 0.130902
v -0.270377 0.249375 0.126253
v -0.272623 0.249391 0.124006
v -0.272662 0.249396 0.123967
v -0.272699 0.249415 0.123930
v -0.267441 0.250691 0.129188
v -0.267821 0.250831 0.128808
v -0.266267 0.251137 0.130362
v -0.266275 0.251109 0.130354
v -0.266299 0.251078 0.130330
v -0.269221 0.255367 0.127408
v -0.269204 0.255352 0.127426
v -0.267883 0.254825 0.128746
v -0.267914 0.254811 0.128716
v -0.269185 0.255315 0.127444
v -0.267999 0.254737 0.128630
v -0.269147 0.255181 0.127482
v -0.268237 0.254440 0.128392
v -0.269078 0.254734 0.127551
v -0.268723 0.253574 0.127906
v -0.269041 0.253617 0.127588
v -0.268834 0.253027 0.127795
v -0.269178 0.253082 0.127452
v -0.268795 0.252874 0.127834
v -0.268940 0.252287 0.127689
v -0.268733 0.252781 0.127896
v -0.268881 0.252276 0.127748
v -0.268696 0.252748 0.127933
v -0.268831 0.252234 0.127798
v -0.268656 0.252719 0.127973
v -0.268571 0.252685 0.128059
v -0.268795 0.252165 0.127834
v -0.268198 0.252274 0.128431
v -0.268780 0.252084 0.127850
v -0.268178 0.252148 0.128452
v -0.268781 0.251761 0.127848
v -0.268157 0.252089 0.128472
v -0.268133 0.252037 0.128497
v -0.268069 0.251944 0.128560
v -0.268797 0.251680 0.127832
v -0.267914 0.251215 0.128715
v -0.267917 0.251182 0.128713
v -0.267918 0.251149 0.128712
v -0.268834 0.251612 0.127796
v -0.267917 0.251117 0.128713
v -0.267915 0.251083 0.128714
v -0.267891 0.250958 0.128738
v -0.268884 0.251570 0.127745
v -0.268942 0.251559 0.127687
v -0.271397 0.255212 0.125232
v -0.271349 0.255340 0.125280
v -0.272774 0.251790 0.123856
v -0.272773 0.252113 0.123857
v -0.272757 0.252194 0.123872
v -0.271361 0.252983 0.125268
v -0.272613 0.252314 0.124017
v -0.271272 0.252982 0.125357
v -0.270387 0.252976 0.126242
v -0.271186 0.253017 0.125443
v -0.270472 0.253012 0.126157
v -0.270559 0.253116 0.126070
v -0.271447 0.253019 0.125182
v -0.271534 0.253123 0.125096
v -0.271627 0.253679 0.125003
v -0.272651 0.252310 0.123978
v -0.271502 0.254780 0.125128
v -0.272688 0.252293 0.123941
v -0.272721 0.252262 0.123908
v -0.271327 0.255374 0.125302
v -0.271309 0.255386 0.125321
v -0.270333 0.255379 0.126296
v -0.271289 0.255374 0.125340
v -0.270352 0.255367 0.126277
v -0.271268 0.255340 0.125361
v -0.270374 0.255333 0.126256
v -0.271220 0.255212 0.125409
v -0.270422 0.255205 0.126207
v -0.271119 0.254779 0.125510
v -0.270527 0.254773 0.126103
v -0.271003 0.253674 0.125627
v -0.270651 0.253671 0.125978
v -0.271099 0.253119 0.125530
v -0.270212 0.253010 0.126418
v -0.270298 0.252975 0.126332
v -0.270314 0.255367 0.126315
v -0.269241 0.255358 0.127388
v -0.269265 0.255328 0.127365
v -0.270293 0.255333 0.126337
v -0.269322 0.255208 0.127308
v -0.270245 0.255205 0.126384
v -0.269457 0.254796 0.127172
v -0.270144 0.254772 0.126485
v -0.269663 0.253717 0.126966
v -0.270027 0.253667 0.126602
v -0.269611 0.253151 0.127019
v -0.270124 0.253112 0.126505
v -0.269532 0.253034 0.127097
v -0.269450 0.252985 0.127180
v -0.269406 0.252975 0.127224
v -0.269361 0.252970 0.127269
v -0.269272 0.252993 0.127357
v -0.267863 0.254821 0.128766
v -0.267851 0.254797 0.128779
v -0.266771 0.253308 0.129858
v -0.266740 0.253298 0.129889
v -0.267844 0.254752 0.128785
v -0.266871 0.253306 0.129759
v -0.267847 0.254606 0.128782
v -0.267179 0.253223 0.129451
v -0.267908 0.254158 0.128721
v -0.267896 0.252830 0.128733
v -0.268187 0.253115 0.128443
v -0.268180 0.252436 0.128449
v -0.268460 0.252709 0.128169
v -0.266724 0.253280 0.129905
v -0.266721 0.253250 0.129908
v -0.266275 0.251165 0.130354
v -0.266299 0.251196 0.130330
v -0.266731 0.253206 0.129898
v -0.266387 0.251267 0.130243
v -0.266783 0.253083 0.129846
v -0.266682 0.251419 0.129947
v -0.266989 0.252739 0.129640
v -0.267438 0.251600 0.129192
v -0.267589 0.252038 0.129041
v -0.267819 0.251465 0.128811
v -0.267965 0.251884 0.128664
v -0.267890 0.251339 0.128740
v -0.266387 0.251009 0.130242
v -0.266684 0.250861 0.129946
v -0.270216 0.249578 0.126413
v -0.270232 0.249496 0.126397
v -0.270299 0.250084 0.126331
v -0.270265 0.250052 0.126364
v -0.270231 0.249985 0.126399
v -0.270215 0.249904 0.126414
v -0.270268 0.249428 0.126362
v -0.270318 0.249387 0.126312
v -0.272731 0.249446 0.123898
v -0.272767 0.249514 0.123863
v -0.272782 0.249596 0.123848
v -0.272781 0.249921 0.123849
v -0.272759 0.251708 0.123870
v -0.272765 0.250003 0.123864
v -0.272729 0.250070 0.123900
v -0.272696 0.250101 0.123933
v -0.272691 0.251609 0.123939
v -0.272723 0.251640 0.123906
v -0.272654 0.251591 0.123976
v -0.272659 0.250118 0.123970
v -0.272615 0.251587 0.124014
v -0.272620 0.250122 0.124009
v -0.271749 0.251581 0.124880
v -0.271755 0.250116 0.124875
v -0.270335 0.250102 0.126294
v -0.271249 0.251575 0.125380
v -0.270374 0.250106 0.126255
v -0.271255 0.250112 0.125375
v -0.269096 0.251570 0.127957
v -0.269046 0.251612 0.128008
v -0.272871 0.250118 0.124182
v -0.272908 0.250101 0.124146
v -0.272941 0.250070 0.124112
v -0.272977 0.250003 0.124076
v -0.270530 0.249387 0.126524
v -0.270480 0.249428 0.126574
v -0.270444 0.249496 0.126610
v -0.268063 0.254797 0.128991
v -0.268075 0.254821 0.128978
v 0.134750 -0.248521 0.137400
v 0.134750 0.248521 0.137400
v 0.134806 -0.246853 0.137400
v 0.134806 0.246853 0.137400
v 0.134973 -0.245192 0.137400
v 0.134973 0.245192 0.137400
v 0.135250 -0.243546 0.137400
v 0.135250 0.243546 0.137400
v -0.135250 0.243546 0.137400
v -0.134973 0.245192 0.137400
v -0.135250 -0.243546 0.137400
v -0.134973 -0.245192 0.137400
v -0.134806 0.246853 0.137400
v -0.134806 -0.246853 0.137400
v -0.134750 0.248521 0.137400
v -0.134750 -0.248521 0.137400
v -0.135250 0.248840 0.137400
v -0.135792 0.243661 0.137400
v -0.137952 0.236279 0.137400
v -0.140679 0.233285 0.137400
v -0.142751 0.230190 0.137400
v -0.149685 0.226182 0.137400
v -0.149184 0.225864 0.137400
v -0.169515 0.216383 0.137400
v -0.170015 0.216702 0.137400
v -0.177134 0.210881 0.137400
v -0.177634 0.211200 0.137400
v -0.182184 0.202955 0.137400
v -0.182684 0.203274 0.137400
v -0.183950 0.193725 0.137400
v -0.184450 0.194044 0.137400
v -0.184450 -0.194044 0.137400
v -0.183950 -0.193725 0.137400
v -0.182684 -0.203274 0.137400
v -0.182184 -0.202955 0.137400
v -0.177634 -0.211200 0.137400
v -0.177134 -0.210881 0.137400
v -0.170015 -0.216702 0.137400
v -0.169515 -0.216383 0.137400
v -0.149685 -0.226182 0.137400
v -0.149184 -0.225864 0.137400
v -0.142751 -0.230190 0.137400
v -0.140679 -0.233285 0.137400
v -0.137952 -0.236279 0.137400
v -0.135792 -0.243661 0.137400
v -0.135250 -0.248840 0.137400
v 0.135250 -0.248840 0.137400
v 0.135792 -0.243661 0.137400
v 0.137952 -0.236279 0.137400
v 0.140679 -0.233285 0.137400
v 0.142751 -0.230190 0.137400
v 0.149685 -0.226182 0.137400
v 0.149184 -0.225864 0.137400
v 0.161500 -0.220121 0.137400
v 0.161500 -0.220672 0.137400
v -0.306000 0.000000 0.054068
v -0.306000 0.089210 0.065813
v -0.306000 -0.089210 0.065813
v -0.306000 0.266000 0.079500
v -0.306000 -0.266000 0.079500
v -0.306000 0.266000 0.087665
v -0.306000 -0.266000 0.087665
v -0.306000 0.264660 0.074500
v -0.306000 0.230000 0.069500
v -0.306000 0.261000 0.070840
v -0.306000 0.256000 0.069500
v -0.306000 -0.264660 0.074500
v -0.306000 -0.230000 0.069500
v -0.306000 -0.261000 0.070840
v -0.306000 -0.256000 0.069500
v -0.256515 0.266000 0.137150
v -0.256515 -0.266000 0.137150
v 0.307500 0.256000 0.069500
v 0.307500 0.261000 0.070840
v 0.307500 0.230000 0.069500
v 0.307500 0.264660 0.074500
v 0.307500 0.089210 0.065813
v 0.307500 0.266000 0.079500
v 0.307500 -0.089210 0.065813
v 0.307500 -0.266000 0.079500
v 0.307500 -0.264660 0.074500
v 0.307500 0.266000 0.088287
v 0.307500 -0.266000 0.088287
v 0.307500 -0.230000 0.069500
v 0.307500 -0.261000 0.070840
v 0.307500 -0.256000 0.069500
v 0.307500 0.000000 0.054068
v 0.256515 0.266000 0.137150
v 0.306000 0.266000 0.087665
v 0.256515 -0.266000 0.137150
v 0.306000 -0.266000 0.087665
v 0.306000 0.000000 0.054068
v 0.306000 -0.089210 0.065813
v 0.306000 0.089210 0.065813
v 0.306000 0.266000 0.079500
v 0.306000 0.264660 0.074500
v 0.306000 -0.230000 0.069500
v 0.306000 -0.264660 0.074500
v 0.306000 -0.266000 0.079500
v 0.306000 -0.256000 0.069500
v 0.306000 -0.261000 0.070840
v 0.306000 0.230000 0.069500
v 0.306000 0.261000 0.070840
v 0.306000 0.256000 0.069500
v -0.307500 -0.256000 0.069500
v -0.307500 -0.261000 0.070840
v -0.307500 -0.230000 0.069500
v -0.307500 -0.264660 0.074500
v -0.307500 -0.089210 0.065813
v -0.307500 -0.266000 0.079500
v -0.307500 0.266000 0.079500
v -0.307500 0.266000 0.088287
v -0.307500 -0.266000 0.088287
v -0.307500 0.089210 0.065813
v -0.307500 0.264660 0.074500
v -0.307500 0.230000 0.069500
v -0.307500 0.261000 0.070840
v -0.307500 0.256000 0.069500
v -0.307500 0.000000 0.054068
v 0.134750 0.266000 0.138650
v -0.134750 0.266000 0.138650
v 0.134750 0.248521 0.138650
v -0.134750 0.248521 0.138650
v 0.136516 0.239291 0.138650
v -0.136516 0.239291 0.138650
v 0.141566 0.231365 0.138650
v -0.141566 0.231365 0.138650
v 0.141566 -0.231365 0.138650
v -0.141566 -0.231365 0.138650
v 0.136516 -0.239291 0.138650
v -0.136516 -0.239291 0.138650
v 0.134750 -0.248521 0.138650
v -0.134750 -0.248521 0.138650
v 0.134750 -0.266000 0.138650
v -0.134750 -0.266000 0.138650
v -0.149184 0.225864 0.138650
v -0.149184 -0.225864 0.138650
v -0.183950 0.193725 0.138650
v -0.183950 -0.193725 0.138650
v -0.169515 0.216383 0.138650
v -0.177134 0.210881 0.138650
v -0.182184 0.202955 0.138650
v -0.182184 -0.202955 0.138650
v -0.177134 -0.210881 0.138650
v -0.169515 -0.216383 0.138650
v 0.149184 0.225864 0.138650
v 0.149184 -0.225864 0.138650
v 0.183950 0.193725 0.138650
v 0.183950 -0.193725 0.138650
v 0.169515 -0.216383 0.138650
v 0.177134 -0.210881 0.138650
v 0.182184 -0.202955 0.138650
v 0.182184 0.202955 0.138650
v 0.177134 0.210881 0.138650
v 0.169515 0.216383 0.138650
v 0.161500 -0.220121 0.138000
v 0.169515 -0.216383 0.138000
v 0.177134 -0.210881 0.138000
v 0.182184 -0.202955 0.138000
v 0.183950 -0.193725 0.138000
v -0.134750 0.266000 0.137150
v -0.134750 -0.266000 0.137150
v 0.134750 -0.266000 0.137150
v 0.134750 0.266000 0.137150
v 0.137952 0.236279 0.137400
v 0.142751 0.230190 0.137400
v 0.149184 0.225864 0.137400
v 0.183950 0.193725 0.138000
v 0.182184 0.202955 0.138000
v 0.177134 0.210881 0.138000
v 0.169515 0.216383 0.138000
v 0.161500 0.220121 0.137400
v 0.161500 0.220121 0.138000
v 0.161500 -0.220672 0.138000
v 0.161500 0.220672 0.137400
v 0.161500 0.220672 0.138000
v 0.135250 0.248840 0.137400
v 0.135792 0.243661 0.137400
v 0.140679 0.233285 0.137400
v 0.149685 0.226182 0.137400
v 0.170015 0.216702 0.138000
v 0.177634 0.211200 0.138000
v 0.182684 0.203274 0.138000
v 0.184450 0.194044 0.138000
v 0.184450 -0.194044 0.138000
v 0.182684 -0.203274 0.138000
v 0.177634 -0.211200 0.138000
v 0.170015 -0.216702 0.138000
v 0.184450 -0.194044 0.138650
v 0.182684 -0.203274 0.138650
v 0.177634 -0.211200 0.138650
v 0.170015 -0.216702 0.138650
v 0.149685 -0.226182 0.138650
v 0.142066 -0.231684 0.138650
v 0.137016 -0.239610 0.138650
v 0.135250 -0.248840 0.138650
v 0.135250 0.266000 0.137150
v 0.135250 -0.266000 0.137150
v 0.135250 0.248840 0.138650
v 0.135250 0.266000 0.138650
v 0.135250 -0.266000 0.138650
v 0.170015 0.216702 0.138650
v 0.177634 0.211200 0.138650
v 0.182684 0.203274 0.138650
v 0.184450 0.194044 0.138650
v 0.149685 0.226182 0.138650
v 0.137016 0.239610 0.138650
v 0.142066 0.231684 0.138650
v 0.257137 0.266000 0.138650
v 0.257137 -0.266000 0.138650
v -0.275993 0.119973 0.119794
v -0.269841 0.122800 0.125945
v -0.263690 0.119973 0.132096
v -0.259888 0.112573 0.135898
v -0.259888 0.103427 0.135898
v -0.263690 0.096027 0.132096
v -0.269841 0.093200 0.125945
v -0.275993 0.096027 0.119794
v -0.279795 0.103427 0.115992
v -0.279795 0.112573 0.115992
v -0.284445 0.120459 0.127747
v -0.278044 0.123400 0.134148
v -0.271643 0.120459 0.140548
v -0.267687 0.112759 0.144504
v -0.267687 0.103241 0.144504
v -0.271643 0.095541 0.140548
v -0.278044 0.092600 0.134148
v -0.284445 0.095541 0.127747
v -0.288400 0.103241 0.123791
v -0.288400 0.112759 0.123791
v -0.284734 0.122722 0.127458
v -0.278044 0.125500 0.134148
v -0.271354 0.122722 0.140838
v -0.266788 0.115270 0.145404
v -0.265795 0.105509 0.146396
v -0.268692 0.096540 0.143500
v -0.274558 0.091209 0.137634
v -0.281530 0.091209 0.130661
v -0.287396 0.096540 0.124796
v -0.290292 0.105509 0.121899
v -0.289300 0.115270 0.122892
v -0.291887 0.125500 0.147991
v -0.285197 0.122722 0.154681
v -0.280631 0.115270 0.159247
v -0.279639 0.105509 0.160240
v -0.282535 0.096540 0.157343
v -0.288401 0.091209 0.151477
v -0.295374 0.091209 0.144505
v -0.301239 0.096540 0.138639
v -0.304136 0.105509 0.135743
v -0.303144 0.115270 0.136735
v -0.298577 0.122722 0.141301
v -0.305276 0.123884 0.146943
v -0.298058 0.126882 0.154162
v -0.290840 0.123884 0.161380
v -0.285913 0.115844 0.166307
v -0.284843 0.105313 0.167377
v -0.287968 0.095635 0.164252
v -0.294297 0.089883 0.157923
v -0.301820 0.089883 0.150400
v -0.308148 0.095635 0.144072
v -0.311273 0.105313 0.140946
v -0.310203 0.115844 0.142017
v -0.305322 0.123984 0.146898
v -0.298058 0.127000 0.154162
v -0.290794 0.123984 0.161425
v -0.285837 0.115893 0.166383
v -0.284760 0.105296 0.167460
v -0.287905 0.095558 0.164315
v -0.294273 0.089770 0.157947
v -0.301843 0.089770 0.150377
v -0.308212 0.095558 0.144008
v -0.311356 0.105296 0.140863
v -0.310279 0.115893 0.141941
v -0.294875 0.120674 0.164000
v -0.296470 0.125270 0.159745
v -0.301386 0.123665 0.157489
v -0.303641 0.125270 0.152574
v -0.307897 0.120674 0.150978
v -0.309674 0.119787 0.146541
v -0.311921 0.112841 0.146954
v -0.312653 0.110561 0.143562
v -0.311921 0.103159 0.146954
v -0.311633 0.100523 0.144582
v -0.307897 0.095326 0.150978
v -0.306937 0.092858 0.149279
v -0.301386 0.092334 0.157489
v -0.300056 0.090001 0.156159
v -0.293175 0.092858 0.163040
v -0.290437 0.119787 0.165778
v -0.290850 0.112841 0.168024
v -0.287458 0.110561 0.168757
v -0.290850 0.103159 0.168024
v -0.288478 0.100523 0.167737
v -0.294875 0.095326 0.164000
v -0.304886 0.113197 0.157945
v -0.303364 0.113625 0.159468
v -0.301842 0.113197 0.160990
v -0.300551 0.111978 0.162280
v -0.299689 0.110153 0.163142
v -0.299386 0.108000 0.163445
v -0.299689 0.105847 0.163142
v -0.300551 0.104023 0.162280
v -0.301842 0.102803 0.160990
v -0.303364 0.102375 0.159468
v -0.304886 0.102803 0.157945
v -0.306176 0.104023 0.156655
v -0.307039 0.105847 0.155793
v -0.307341 0.108000 0.155490
v -0.307039 0.110153 0.155793
v -0.306176 0.111978 0.156655
v -0.302190 0.102803 0.161338
v -0.302190 0.113197 0.161338
v -0.303712 0.102375 0.159816
v -0.303712 0.113625 0.159816
v -0.305234 0.102803 0.158294
v -0.305234 0.113197 0.158294
v -0.306524 0.104023 0.157003
v -0.306524 0.111978 0.157003
v -0.307387 0.105847 0.156141
v -0.307387 0.110153 0.156141
v -0.307689 0.108000 0.155838
v -0.300899 0.111978 0.162628
v -0.300899 0.104023 0.162628
v -0.300037 0.110153 0.163490
v -0.300037 0.105847 0.163490
v -0.299734 0.108000 0.163793
v -0.135250 -0.266000 0.138650
v -0.257137 -0.266000 0.138650
v -0.135250 -0.266000 0.137150
v -0.184450 -0.194044 0.138650
v -0.184450 0.194044 0.138650
v -0.135250 -0.248840 0.138650
v -0.137016 -0.239610 0.138650
v -0.142066 -0.231684 0.138650
v -0.149685 -0.226182 0.138650
v -0.170015 -0.216702 0.138650
v -0.177634 -0.211200 0.138650
v -0.182684 -0.203274 0.138650
v -0.257137 0.266000 0.138650
v -0.182684 0.203274 0.138650
v -0.177634 0.211200 0.138650
v -0.170015 0.216702 0.138650
v -0.135250 0.266000 0.138650
v -0.149685 0.226182 0.138650
v -0.142066 0.231684 0.138650
v -0.137016 0.239610 0.138650
v -0.135250 0.248840 0.138650
v -0.135250 0.266000 0.137150
vn -0.6954 0.1806 -0.6956
vn -0.1478 0.9779 -0.1480
vn -0.1479 0.9779 -0.1477
vn 0.0036 1.0000 0.0037
vn 0.0036 1.0000 0.0035
vn 0.1525 0.9765 0.1525
vn 0.1536 0.9762 0.1529
vn 0.4110 0.8146 0.4092
vn 0.4083 0.8164 0.4084
vn 0.5945 0.5416 0.5943
vn 0.5945 0.5414 0.5945
vn 0.6963 0.1741 0.6964
vn 0.6965 0.1737 0.6963
vn 0.7071 -0.0051 0.7071
vn 0.6956 -0.1809 0.6953
vn 0.6954 -0.1807 0.6955
vn 0.5906 -0.5499 0.5906
vn 0.3966 -0.8279 0.3966
vn 0.3966 -0.8280 0.3965
vn 0.1516 -0.9768 0.1515
vn -0.0036 -1.0000 -0.0035
vn -0.0036 -1.0000 -0.0038
vn -0.1586 -0.9746 -0.1583
vn -0.1585 -0.9745 -0.1586
vn -0.4103 -0.8144 -0.4103
vn -0.4094 -0.8163 -0.4075
vn -0.5940 -0.5457 -0.5911
vn -0.5945 -0.5415 -0.5945
vn -0.6960 -0.1752 -0.6963
vn -0.6963 -0.1755 -0.6960
vn -0.7071 0.0051 -0.7071
vn -0.7071 0.0051 -0.7070
vn -0.7071 -0.0000 0.7071
vn -0.7073 0.0003 0.7070
vn -0.7082 0.0008 0.7060
vn -0.7071 -0.0005 0.7071
vn -0.7073 0.0004 0.7070
vn -0.7073 0.0028 0.7069
vn -0.7060 0.0008 0.7082
vn -0.7071 0.0001 0.7071
vn -0.7003 -0.0040 0.7138
vn -0.7066 -0.0003 0.7076
vn -0.7084 -0.0005 0.7058
vn -0.7067 -0.0000 0.7075
vn -0.7263 -0.0099 0.6873
vn -0.6999 0.0041 0.7142
vn -0.7073 -0.0030 0.7069
vn -0.7072 -0.0002 0.7071
vn -0.7154 0.0249 0.6983
vn -0.7069 -0.0005 0.7073
vn -0.7004 0.0262 0.7132
vn -0.7126 -0.0232 0.7012
vn -0.7084 -0.0063 0.7058
vn -0.7072 -0.0003 0.7070
vn -0.7071 -0.0000 0.7072
vn -0.7061 0.0006 0.7082
vn -0.7063 -0.0004 0.7079
vn -0.7069 -0.0001 0.7073
vn -0.7070 -0.0000 0.7072
vn -0.7070 0.0004 0.7072
vn -0.7072 -0.0000 0.7070
vn -0.7107 0.0028 0.7035
vn -0.7077 -0.0007 0.7065
vn -0.7070 -0.0015 0.7072
vn -0.7078 0.0081 0.7064
vn -0.7074 0.0053 0.7068
vn -0.7070 -0.0021 0.7072
vn -0.7046 -0.0099 0.7095
vn -0.7100 0.0107 0.7041
vn -0.7063 -0.0066 0.7079
vn -0.7069 0.0001 0.7073
vn -0.7012 0.0210 0.7127
vn -0.7076 -0.0000 0.7066
vn -0.7051 0.0080 0.7091
vn -0.7068 -0.0000 0.7075
vn -0.7123 -0.0216 0.7015
vn -0.7094 -0.0097 0.7047
vn -0.7075 -0.0000 0.7067
vn -0.7071 -0.0002 0.7071
vn -0.7071 -0.0001 0.7071
vn -0.7070 0.0002 0.7072
vn -0.7071 0.0003 0.7071
vn -0.7075 -0.0000 0.7068
vn -0.7074 0.0002 0.7068
vn -0.6956 0.0042 0.7184
vn -0.6983 0.0087 0.7157
vn -0.6976 0.0077 0.7164
vn -0.7119 -0.0044 0.7023
vn -0.7070 0.0014 0.7072
vn -0.7071 0.0010 0.7071
vn -0.7069 -0.0000 0.7073
vn -0.7071 0.0004 0.7071
vn -0.7069 0.0004 0.7073
vn -0.7055 -0.0041 0.7087
vn -0.7171 0.0144 0.6968
vn -0.7075 0.0001 0.7067
vn -0.7068 -0.0006 0.7074
vn -0.7073 -0.0001 0.7069
vn -0.7065 0.0013 0.7077
vn -0.7074 -0.0000 0.7068
vn -0.7174 -0.0229 0.6963
vn -0.7068 0.0011 0.7075
vn -0.7078 -0.0571 0.7041
vn -0.7056 -0.0000 0.7087
vn -0.7072 0.0006 0.7070
vn -0.7075 0.0215 0.7063
vn -0.7075 -0.0002 0.7067
vn -0.7069 -0.0056 0.7073
vn -0.7077 0.0020 0.7065
vn -0.7077 0.0005 0.7065
vn -0.7061 -0.0009 0.7081
vn -0.7061 -0.0016 0.7081
vn -0.7069 -0.0012 0.7073
vn -0.7108 -0.0162 0.7032
vn -0.7086 -0.0000 0.7056
vn -0.7065 -0.0011 0.7077
vn -0.7061 0.0241 0.7077
vn -0.7069 0.0201 0.7070
vn -0.7075 -0.0062 0.7067
vn -0.7075 -0.0015 0.7067
vn -0.7072 0.0013 0.7070
vn -0.7078 0.0001 0.7064
vn -0.7072 -0.0065 0.7069
vn -0.7069 0.0064 0.7073
vn -0.7069 0.0152 0.7072
vn -0.7071 -0.0010 0.7071
vn -0.7075 -0.0008 0.7067
vn -0.7073 -0.0011 0.7069
vn -0.7036 0.0032 0.7106
vn -0.7097 -0.0025 0.7045
vn -0.7074 -0.0013 0.7068
vn -0.7064 -0.0012 0.7078
vn -0.7165 0.0182 0.6973
vn -0.7195 -0.0190 0.6942
vn -0.7037 0.0051 0.7105
vn -0.7075 0.0004 0.7067
vn -0.7059 -0.0000 0.7083
vn -0.7064 -0.0010 0.7078
vn -0.7076 -0.0009 0.7066
vn -0.7043 0.0033 0.7099
vn -0.7074 0.0005 0.7069
vn -0.7071 -0.0001 0.7072
vn -0.7079 -0.0000 0.7064
vn -0.7020 0.0021 0.7122
vn -0.7075 0.0002 0.7068
vn -0.7083 -0.0001 0.7059
vn -0.7066 0.0002 0.7076
vn -0.7066 0.0003 0.7076
vn -0.7082 0.0009 0.7060
vn -0.7081 0.0011 0.7061
vn -0.7066 0.0014 0.7077
vn -0.7142 -0.0031 0.6999
vn -0.7060 0.0003 0.7082
vn -0.7075 -0.0003 0.7067
vn -0.7072 0.0005 0.7070
vn -0.7072 0.0003 0.7071
vn -0.7082 -0.0000 0.7060
vn -0.7014 -0.0098 0.7127
vn -0.7109 0.0067 0.7032
vn -0.7025 -0.0068 0.7117
vn -0.7072 -0.0000 0.7071
vn -0.7041 0.0072 0.7100
vn -0.7071 0.0002 0.7072
vn -0.7069 -0.0006 0.7073
vn -0.7070 -0.0003 0.7073
vn -0.7010 -0.0040 0.7132
vn -0.7073 0.0002 0.7069
vn -0.7074 -0.0001 0.7068
vn -0.6840 -0.0001 0.7295
vn -0.7065 -0.0005 0.7077
vn -0.7182 0.0001 0.6958
vn -0.6978 -0.0006 0.7163
vn -0.7075 0.0005 0.7067
vn -0.7136 0.0126 0.7004
vn -0.7065 -0.0000 0.7077
vn -0.7067 0.0005 0.7075
vn 0.3587 -0.8617 0.3590
vn 0.3587 -0.8620 0.3582
vn 0.5631 -0.6050 0.5629
vn -0.2184 0.9511 -0.2183
vn -0.2215 0.9499 -0.2204
vn -0.3918 0.8333 -0.3899
vn -0.3872 0.8368 -0.3871
vn -0.5630 0.6051 -0.5630
vn -0.6833 0.2578 -0.6831
vn 0.3546 -0.8652 0.3545
vn 0.3549 -0.8649 0.3549
vn 0.5687 -0.5936 0.5695
vn 0.5674 -0.5995 0.5644
vn 0.6833 -0.2660 0.6799
vn 0.5696 0.5923 0.5699
vn 0.5694 0.5938 0.5685
vn 0.0988 0.9902 0.0985
vn -0.0000 -0.0000 -1.0000
vn 0.0003 -0.0000 -1.0000
vn -0.0002 -0.0000 -1.0000
vn 0.0002 -0.0000 -1.0000
vn -0.0003 -0.0000 -1.0000
vn -0.0000 -0.0000 1.0000
vn 1.0000 -0.0000 -0.0000
vn 0.7071 -0.0000 -0.7071
vn -0.7071 -0.0000 -0.7071
vn -1.0000 -0.0000 -0.0000
vn -0.9822 -0.1879 -0.0000
vn -0.8434 -0.5373 -0.0000
vn -0.5854 -0.8107 -0.0000
vn -0.5855 -0.8107 -0.0000
vn -0.4226 -0.9063 -0.0000
vn -0.9530 -0.1604 -0.2571
vn -0.9256 -0.1771 -0.3346
vn -0.9120 -0.3391 0.2306
vn -0.8018 -0.5109 -0.3099
vn -0.7752 -0.6110 0.1606
vn -0.5733 -0.7939 -0.2028
vn -0.5580 -0.8298 -0.0000
vn -0.9911 -0.0997 -0.0886
vn -0.9994 -0.0336 -0.0000
vn 0.9120 -0.3391 0.2306
vn 0.9256 -0.1771 -0.3346
vn 0.9530 -0.1604 -0.2571
vn 0.9911 -0.0997 -0.0886
vn 0.9994 -0.0336 -0.0000
vn 0.8018 -0.5109 -0.3099
vn 0.7752 -0.6110 0.1606
vn 0.5733 -0.7939 -0.2028
vn 0.5580 -0.8298 -0.0000
vn 0.4226 -0.9063 -0.0000
vn 0.4226 -0.9063 0.0005
vn 0.4227 -0.9063 -0.0000
vn 0.5854 -0.8107 -0.0000
vn 0.5855 -0.8107 -0.0000
vn 0.8433 -0.5374 -0.0000
vn 0.8434 -0.5373 -0.0000
vn 0.9822 -0.1879 -0.0000
vn -0.9120 0.3391 0.2306
vn -0.9256 0.1771 -0.3346
vn -0.9530 0.1604 -0.2571
vn -0.9911 0.0997 -0.0886
vn -0.9994 0.0336 -0.0000
vn -0.8018 0.5109 -0.3099
vn -0.7752 0.6110 0.1606
vn -0.5733 0.7939 -0.2028
vn -0.5580 0.8298 -0.0000
vn -0.5854 0.8107 -0.0000
vn -0.5855 0.8107 -0.0000
vn -0.8434 0.5373 -0.0000
vn -0.9822 0.1879 -0.0000
vn -0.4226 0.9063 -0.0000
vn 0.9530 0.1604 -0.2571
vn 0.9256 0.1771 -0.3346
vn 0.9120 0.3391 0.2306
vn 0.8018 0.5109 -0.3099
vn 0.7752 0.6110 0.1606
vn 0.5733 0.7939 -0.2028
vn 0.5580 0.8298 -0.0000
vn 0.9911 0.0997 -0.0886
vn 0.9994 0.0336 -0.0000
vn 0.9822 0.1879 -0.0000
vn 0.8434 0.5374 -0.0000
vn 0.8434 0.5373 -0.0000
vn 0.5854 0.8107 -0.0000
vn 0.5855 0.8107 -0.0000
vn -0.0000 1.0000 -0.0000
vn 0.4226 0.9063 -0.0000
vn 0.4226 0.9063 0.0005
vn 0.4227 0.9063 -0.0000
vn -0.0000 -1.0000 -0.0000
vn 0.0001 -0.0000 1.0000
vn -0.8433 0.5374 -0.0000
vn -0.4226 0.9063 0.0008
vn -0.4227 0.9063 -0.0000
vn -0.5901 0.7481 -0.3035
vn -0.8186 0.5216 0.2403
vn -0.8108 0.3819 -0.4437
vn -0.9263 0.1772 0.3326
vn -0.9946 0.1041 -0.0000
vn -0.8433 -0.5374 -0.0000
vn -0.4226 -0.9063 0.0008
vn -0.4227 -0.9063 -0.0000
vn -0.9946 -0.1041 -0.0000
vn -0.9263 -0.1772 0.3326
vn -0.8108 -0.3819 -0.4437
vn -0.8186 -0.5216 0.2403
vn -0.5901 -0.7481 -0.3035
vn -0.0000 0.0262 -0.9997
vn -0.0000 0.1305 -0.9914
vn -0.0000 0.2589 -0.9659
vn -0.0000 0.7071 -0.7071
vn -0.0000 0.9659 -0.2589
vn 0.7071 -0.0000 0.7071
vn -0.0000 -0.0262 -0.9997
vn -0.0000 -0.1305 -0.9914
vn -0.0000 -0.9659 -0.2589
vn -0.0000 -0.7071 -0.7071
vn -0.0000 -0.2589 -0.9659
vn 0.7071 0.0003 -0.7071
vn 0.7073 0.0002 -0.7069
vn 0.7073 0.0001 -0.7069
vn 0.7072 -0.0001 -0.7070
vn 0.7073 -0.0004 -0.7069
vn 0.7071 -0.0001 -0.7071
vn 0.7072 0.0003 -0.7071
vn 0.7072 0.0002 -0.7071
vn 0.7071 0.0002 -0.7071
vn 0.7070 -0.0001 -0.7072
vn 0.7069 0.0001 -0.7073
vn 0.7070 0.0002 -0.7072
vn -0.1992 0.9595 -0.1992
vn 0.1992 0.9595 0.1992
vn 0.5344 0.6549 0.5344
vn 0.6999 0.1423 0.6999
vn 0.6432 -0.4154 0.6432
vn 0.3823 -0.8413 0.3823
vn -0.3823 -0.8412 -0.3823
vn -0.3823 -0.8413 -0.3823
vn -0.6432 -0.4154 -0.6432
vn -0.6999 0.1423 -0.6999
vn -0.5343 0.6549 -0.5344
vn -0.5344 0.6549 -0.5344
vn -0.0908 0.9486 -0.3031
vn -0.0908 0.9486 -0.3032
vn 0.3032 0.9486 0.0907
vn 0.3032 0.9486 0.0908
vn 0.6345 0.6474 0.4222
vn 0.6345 0.6475 0.4221
vn 0.7982 0.1407 0.5857
vn 0.7981 0.1406 0.5858
vn 0.7420 -0.4107 0.5298
vn 0.7421 -0.4107 0.5298
vn 0.4841 -0.8317 0.2717
vn 0.1062 -0.9887 -0.1062
vn -0.2717 -0.8317 -0.4842
vn -0.2718 -0.8317 -0.4842
vn -0.5297 -0.4107 -0.7421
vn -0.5858 0.1406 -0.7982
vn -0.5858 0.1407 -0.7982
vn -0.4221 0.6475 -0.6345
vn -0.4221 0.6474 -0.6345
vn 0.7071 -0.0000 -0.7072
vn 0.7070 -0.0000 -0.7072
vn 0.7059 -0.0062 -0.7083
vn 0.7039 -0.0042 -0.7103
vn 0.7070 -0.0002 -0.7072
vn 0.7072 -0.0000 -0.7071
vn 0.7072 -0.0001 -0.7071
vn 0.7071 0.0002 -0.7072
vn 0.7071 0.0004 -0.7071
vn 0.7071 -0.0002 -0.7071
vn 0.7072 0.0004 -0.7071
vn 0.7071 0.0001 -0.7071
vn 0.7039 0.0038 -0.7103
vn 0.7059 0.0058 -0.7083
vn -0.4907 0.4942 0.7177
vn -0.4590 0.7607 0.4590
vn -0.7177 0.4942 0.4906
vn -0.7519 0.6359 0.1740
vn -0.9024 0.3097 0.2995
vn -0.9515 0.3077 -0.0015
vn -0.9775 -0.0000 0.2109
vn -0.9948 -0.1019 -0.0076
vn -0.9067 -0.3325 0.2594
vn -0.8815 -0.4472 0.1515
vn -0.6969 -0.5704 0.4348
vn -0.6695 -0.6173 0.4133
vn -0.4132 -0.6172 0.6695
vn -0.1994 -0.8183 0.5391
vn 0.3234 -0.8384 0.4386
vn -0.1742 0.6357 0.7520
vn -0.2997 0.3096 0.9024
vn 0.0011 0.3076 0.9515
vn -0.2112 -0.0000 0.9774
vn 0.0072 -0.1018 0.9948
vn -0.2597 -0.3324 0.9067
vn -0.1516 -0.4473 0.8815
vn -0.4347 -0.5705 0.6968
vn -0.2563 0.9563 -0.1408
vn -0.3693 0.8528 0.3693
vn 0.1408 0.9563 0.2563
vn -0.0432 0.7174 0.6953
vn 0.4749 0.6527 0.5903
vn 0.1791 0.3542 0.9179
vn 0.6398 0.1418 0.7553
vn 0.2277 -0.1213 0.9661
vn 0.5836 -0.4141 0.6985
vn 0.0866 -0.5586 0.8249
vn -0.6954 0.7173 0.0434
vn -0.5904 0.6526 -0.4748
vn -0.9179 0.3542 -0.1791
vn -0.7554 0.1419 -0.6397
vn -0.9662 -0.1213 -0.2276
vn -0.6988 -0.4140 -0.5834
vn -0.8250 -0.5584 -0.0865
vn -0.4386 -0.8385 -0.3234
vn -0.5391 -0.8184 0.1993
vn -0.0576 -0.9967 0.0576
vn -0.7181 0.2681 0.6423
vn -0.6425 0.2681 0.7179
vn -0.6141 0.2743 0.7401
vn -0.5770 0.2211 0.7863
vn -0.5133 0.1686 0.8415
vn -0.5135 0.1560 0.8438
vn -0.4950 0.0524 0.8673
vn -0.4727 -0.0000 0.8812
vn -0.4950 -0.0524 0.8673
vn -0.5135 -0.1561 0.8438
vn -0.5133 -0.1686 0.8415
vn -0.5769 -0.2210 0.7864
vn -0.6141 -0.2742 0.7401
vn -0.6425 -0.2681 0.7179
vn -0.7181 -0.2680 0.6423
vn -0.7401 -0.2742 0.6141
vn -0.7862 -0.2211 0.5771
vn -0.8415 -0.1686 0.5133
vn -0.8437 -0.1565 0.5136
vn -0.8674 -0.0520 0.4949
vn -0.8812 -0.0000 0.4728
vn -0.8674 0.0520 0.4949
vn -0.8437 0.1564 0.5135
vn -0.8415 0.1686 0.5133
vn -0.7861 0.2212 0.5771
vn -0.7401 0.2742 0.6141
vn -0.7068 -0.0000 0.7074
vn -0.1379 0.9808 -0.1379
vn 0.1379 0.9808 0.1379
vn 0.3928 0.8315 0.3928
vn 0.3927 0.8316 0.3927
vn 0.5880 0.5554 0.5880
vn -0.3929 0.8314 -0.3929
vn -0.3933 0.8316 -0.3922
vn -0.1381 0.9808 -0.1377
vn -0.5879 0.5557 -0.5879
vn -0.6936 0.1949 -0.6935
vn -0.6935 0.1949 -0.6935
vn -0.6935 -0.1949 -0.6935
vn -0.5878 -0.5559 -0.5878
vn -0.6936 -0.1949 -0.6936
vn -0.3931 -0.8312 -0.3931
vn -0.3935 -0.8314 -0.3924
vn -0.1381 -0.9808 -0.1377
vn -0.1379 -0.9808 -0.1379
vn 0.1379 -0.9808 0.1379
vn 0.3930 -0.8313 0.3930
vn 0.5879 -0.5557 0.5879
vn 0.3930 -0.8314 0.3930
vn 0.6935 -0.1952 0.6935
vn 0.6935 0.1952 0.6935
vn 0.5901 -0.7481 -0.3035
vn 0.8186 -0.5216 0.2403
vn 0.8108 -0.3819 -0.4437
vn 0.9263 -0.1772 0.3326
vn 0.9946 -0.1041 -0.0000
vn -0.7073 -0.0000 0.7069
vn 0.9946 0.1041 -0.0000
vn 0.9263 0.1772 0.3326
vn 0.8108 0.3819 -0.4437
vn 0.8186 0.5216 0.2403
vn 0.5901 0.7481 -0.3035
s 0
f 19//1 20//1 2//1
f 18//2 22//2 23//2
f 18//3 23//3 1//3
f 24//4 17//4 23//4
f 23//5 17//5 1//5
f 24//6 25//6 17//6
f 17//7 25//7 16//7
f 16//8 25//8 26//8
f 16//9 26//9 15//9
f 15//10 26//10 27//10
f 15//11 27//11 14//11
f 14//12 27//12 28//12
f 14//13 28//13 13//13
f 29//14 12//14 28//14
f 28//14 12//14 13//14
f 29//15 30//15 12//15
f 12//16 30//16 11//16
f 11//17 30//17 31//17
f 11//17 31//17 10//17
f 10//18 31//18 32//18
f 10//19 32//19 9//19
f 9//20 32//20 33//20
f 9//20 33//20 8//20
f 34//21 7//21 33//21
f 33//22 7//22 8//22
f 34//23 35//23 7//23
f 7//24 35//24 6//24
f 6//25 35//25 36//25
f 6//26 36//26 5//26
f 5//27 36//27 37//27
f 5//28 37//28 4//28
f 4//29 37//29 38//29
f 4//30 38//30 3//30
f 19//31 2//31 38//31
f 38//32 2//32 3//32
f 23//33 39//33 24//33
f 24//34 39//34 40//34
f 24//35 40//35 28//35
f 28//36 40//36 41//36
f 28//37 41//37 42//37
f 22//38 19//38 23//38
f 23//39 19//39 43//39
f 23//40 43//40 44//40
f 22//41 21//41 19//41
f 19//42 21//42 20//42
f 38//33 45//33 19//33
f 19//43 45//43 46//43
f 19//44 46//44 47//44
f 37//45 36//45 38//45
f 38//46 36//46 35//46
f 38//47 35//47 34//47
f 33//48 48//48 34//48
f 34//49 48//49 49//49
f 34//50 49//50 50//50
f 50//51 49//51 51//51
f 51//52 49//52 52//52
f 51//53 52//53 53//53
f 53//54 52//54 54//54
f 53//40 54//40 55//40
f 55//55 54//55 56//55
f 55//33 56//33 57//33
f 57//33 56//33 58//33
f 57//33 58//33 59//33
f 59//39 58//39 60//39
f 59//56 60//56 61//56
f 61//57 60//57 62//57
f 61//58 62//58 63//58
f 63//59 62//59 64//59
f 63//60 64//60 65//60
f 65//61 64//61 66//61
f 65//61 66//61 67//61
f 67//62 66//62 68//62
f 68//63 66//63 69//63
f 68//64 69//64 70//64
f 70//65 69//65 71//65
f 70//66 71//66 72//66
f 72//67 71//67 73//67
f 72//68 73//68 74//68
f 74//69 73//69 75//69
f 75//70 73//70 76//70
f 76//71 73//71 77//71
f 76//33 77//33 78//33
f 78//72 77//72 79//72
f 79//73 77//73 80//73
f 80//74 77//74 81//74
f 80//75 81//75 82//75
f 82//76 81//76 83//76
f 83//55 81//55 84//55
f 84//77 81//77 85//77
f 84//78 85//78 86//78
f 32//79 29//79 33//79
f 33//40 29//40 87//40
f 33//80 87//80 88//80
f 32//81 31//81 29//81
f 29//82 31//82 30//82
f 28//83 89//83 29//83
f 29//84 89//84 90//84
f 29//85 90//85 91//85
f 27//86 26//86 28//86
f 28//87 26//87 25//87
f 28//88 25//88 24//88
f 92//89 93//89 94//89
f 94//90 93//90 95//90
f 94//91 95//91 96//91
f 96//92 95//92 97//92
f 96//61 97//61 98//61
f 92//93 99//93 93//93
f 93//94 99//94 100//94
f 93//33 100//33 101//33
f 93//95 101//95 102//95
f 102//96 101//96 103//96
f 102//97 103//97 104//97
f 104//98 103//98 29//98
f 104//61 29//61 105//61
f 105//59 29//59 91//59
f 103//99 87//99 29//99
f 88//100 106//100 33//100
f 33//101 106//101 107//101
f 33//102 107//102 108//102
f 108//103 107//103 109//103
f 108//104 109//104 110//104
f 110//105 109//105 111//105
f 110//106 111//106 112//106
f 112//107 111//107 113//107
f 112//108 113//108 114//108
f 114//80 113//80 115//80
f 114//109 115//109 116//109
f 116//110 115//110 117//110
f 116//111 117//111 118//111
f 118//112 117//112 119//112
f 118//33 119//33 98//33
f 98//54 119//54 96//54
f 120//113 121//113 62//113
f 62//114 121//114 95//114
f 62//60 95//60 93//60
f 122//115 123//115 108//115
f 108//116 123//116 48//116
f 108//33 48//33 33//33
f 123//117 122//117 124//117
f 124//118 122//118 125//118
f 124//59 125//59 126//59
f 126//119 125//119 127//119
f 126//120 127//120 128//120
f 128//80 127//80 129//80
f 128//33 129//33 130//33
f 130//33 129//33 131//33
f 130//121 131//121 132//121
f 132//122 131//122 133//122
f 132//123 133//123 134//123
f 134//124 133//124 120//124
f 134//125 120//125 135//125
f 135//126 120//126 62//126
f 135//127 62//127 136//127
f 136//128 62//128 137//128
f 137//129 62//129 138//129
f 138//130 62//130 60//130
f 50//131 139//131 34//131
f 34//132 139//132 38//132
f 139//133 140//133 38//133
f 38//58 140//58 141//58
f 38//61 141//61 142//61
f 140//134 143//134 141//134
f 141//135 143//135 144//135
f 144//136 143//136 145//136
f 144//92 145//92 146//92
f 146//96 145//96 147//96
f 146//73 147//73 148//73
f 148//137 147//137 149//137
f 148//138 149//138 150//138
f 150//139 149//139 151//139
f 150//59 151//59 70//59
f 70//140 151//140 68//140
f 142//141 152//141 38//141
f 38//142 152//142 153//142
f 38//33 153//33 154//33
f 154//33 153//33 155//33
f 155//143 153//143 156//143
f 155//144 156//144 157//144
f 157//145 156//145 158//145
f 157//146 158//146 159//146
f 159//33 158//33 160//33
f 159//147 160//147 161//147
f 161//148 160//148 162//148
f 161//80 162//80 163//80
f 163//149 162//149 164//149
f 163//150 164//150 165//150
f 165//151 164//151 76//151
f 165//152 76//152 78//152
f 47//61 166//61 19//61
f 19//153 166//153 167//153
f 19//154 167//154 43//154
f 84//155 86//155 44//155
f 44//33 86//33 168//33
f 44//156 168//156 169//156
f 154//157 45//157 38//157
f 170//158 171//158 86//158
f 86//159 171//159 172//159
f 86//160 172//160 173//160
f 173//161 168//161 86//161
f 44//40 169//40 23//40
f 23//162 169//162 174//162
f 23//163 174//163 175//163
f 175//164 39//164 23//164
f 42//165 176//165 28//165
f 28//166 176//166 177//166
f 28//167 177//167 178//167
f 178//168 179//168 28//168
f 28//78 179//78 89//78
f 180//169 179//169 181//169
f 180//59 181//59 182//59
f 183//170 184//170 182//170
f 182//171 184//171 185//171
f 182//33 185//33 180//33
f 184//36 183//36 186//36
f 186//50 183//50 187//50
f 186//172 187//172 188//172
f 188//59 187//59 189//59
f 188//33 189//33 190//33
f 190//173 189//173 191//173
f 170//174 86//174 192//174
f 192//33 86//33 193//33
f 192//175 193//175 194//175
f 194//176 193//176 195//176
f 196//177 85//177 81//177
f 196//178 81//178 197//178
f 81//179 77//179 197//179
f 198//180 187//180 183//180
f 198//181 183//181 199//181
f 199//182 183//182 182//182
f 199//183 182//183 200//183
f 182//184 181//184 200//184
f 200//184 181//184 201//184
f 201//185 181//185 179//185
f 202//186 175//186 174//186
f 202//187 174//187 203//187
f 174//188 169//188 203//188
f 203//189 169//189 204//189
f 204//190 169//190 168//190
f 205//191 140//191 139//191
f 205//192 139//192 206//192
f 139//193 50//193 206//193
f 207//194 208//194 209//194
f 209//195 208//195 210//195
f 209//196 210//196 211//196
f 211//197 210//197 212//197
f 211//194 212//194 213//194
f 213//194 212//194 214//194
f 215//194 216//194 217//194
f 217//194 216//194 218//194
f 218//196 216//196 219//196
f 218//197 219//197 220//197
f 220//198 219//198 221//198
f 220//194 221//194 222//194
f 223//199 224//199 215//199
f 215//199 224//199 225//199
f 225//199 224//199 226//199
f 225//199 226//199 227//199
f 227//199 226//199 228//199
f 227//199 228//199 229//199
f 229//199 228//199 230//199
f 230//199 228//199 231//199
f 230//199 231//199 232//199
f 232//199 231//199 233//199
f 232//199 233//199 234//199
f 234//199 233//199 235//199
f 234//199 235//199 236//199
f 236//199 235//199 237//199
f 236//199 237//199 238//199
f 236//199 238//199 239//199
f 239//199 238//199 240//199
f 239//199 240//199 241//199
f 241//199 240//199 242//199
f 241//199 242//199 243//199
f 243//199 242//199 244//199
f 243//199 244//199 245//199
f 245//199 244//199 246//199
f 245//199 246//199 247//199
f 247//199 246//199 248//199
f 248//199 246//199 249//199
f 248//199 249//199 250//199
f 250//199 249//199 251//199
f 250//199 251//199 217//199
f 217//199 251//199 252//199
f 253//199 254//199 213//199
f 213//199 254//199 255//199
f 255//199 254//199 256//199
f 255//199 256//199 257//199
f 257//199 256//199 258//199
f 257//199 258//199 259//199
f 259//199 258//199 260//199
f 260//199 258//199 261//199
f 262//200 263//200 264//200
f 264//200 263//200 265//200
f 264//200 265//200 266//200
f 266//200 265//200 267//200
f 266//200 267//200 268//200
f 265//200 263//200 269//200
f 269//200 263//200 270//200
f 269//200 270//200 271//200
f 271//200 270//200 272//200
f 266//200 273//200 264//200
f 264//200 273//200 274//200
f 274//200 273//200 275//200
f 274//200 275//200 276//200
f 267//201 277//201 268//201
f 268//201 277//201 278//201
f 279//200 280//200 281//200
f 281//200 280//200 282//200
f 281//200 282//200 283//200
f 283//200 282//200 284//200
f 283//200 284//200 285//200
f 285//200 284//200 286//200
f 285//200 286//200 287//200
f 284//200 288//200 286//200
f 286//200 288//200 289//200
f 285//200 287//200 290//200
f 290//200 287//200 291//200
f 290//200 291//200 292//200
f 285//200 293//200 283//200
f 294//202 295//202 296//202
f 296//202 295//202 297//202
f 298//203 299//203 300//203
f 300//203 299//203 301//203
f 300//203 301//203 302//203
f 303//203 304//203 299//203
f 299//203 304//203 305//203
f 299//203 305//203 301//203
f 301//203 305//203 295//203
f 295//203 305//203 297//203
f 306//203 307//203 303//203
f 303//203 307//203 304//203
f 300//203 302//203 308//203
f 308//203 302//203 309//203
f 308//203 309//203 310//203
f 311//203 312//203 313//203
f 313//203 312//203 314//203
f 313//203 314//203 315//203
f 315//203 314//203 316//203
f 315//203 316//203 317//203
f 317//203 316//203 318//203
f 318//203 316//203 319//203
f 315//203 317//203 320//203
f 320//203 317//203 321//203
f 320//203 321//203 322//203
f 322//203 321//203 323//203
f 322//203 323//203 324//203
f 320//203 325//203 315//203
f 326//199 327//199 328//199
f 328//199 327//199 329//199
f 328//199 329//199 330//199
f 330//199 329//199 331//199
f 330//199 331//199 332//199
f 332//199 331//199 333//199
f 332//199 333//199 334//199
f 334//199 333//199 335//199
f 334//199 335//199 336//199
f 336//199 335//199 337//199
f 336//199 337//199 338//199
f 338//199 337//199 339//199
f 338//199 339//199 340//199
f 340//199 339//199 341//199
f 333//199 342//199 335//199
f 335//199 342//199 343//199
f 343//199 342//199 344//199
f 343//199 344//199 345//199
f 342//199 346//199 344//199
f 344//199 346//199 347//199
f 344//199 347//199 348//199
f 349//199 350//199 345//199
f 345//199 350//199 351//199
f 345//199 351//199 343//199
f 332//199 334//199 352//199
f 352//199 334//199 353//199
f 352//199 353//199 354//199
f 354//199 353//199 355//199
f 355//199 353//199 356//199
f 355//199 356//199 357//199
f 357//199 358//199 355//199
f 359//199 360//199 354//199
f 354//199 360//199 361//199
f 354//199 361//199 352//199
f 236//203 239//203 344//203
f 344//203 239//203 345//203
f 345//204 239//204 349//204
f 349//204 239//204 241//204
f 349//205 241//205 350//205
f 350//205 241//205 243//205
f 350//206 243//206 351//206
f 351//207 243//207 245//207
f 245//208 247//208 351//208
f 351//208 247//208 343//208
f 218//209 339//209 217//209
f 217//210 339//210 337//210
f 217//211 337//211 250//211
f 250//212 337//212 335//212
f 250//213 335//213 248//213
f 248//214 335//214 343//214
f 248//215 343//215 247//215
f 218//216 220//216 339//216
f 339//217 220//217 222//217
f 255//218 336//218 213//218
f 213//219 336//219 338//219
f 213//220 338//220 211//220
f 211//221 338//221 209//221
f 209//222 338//222 207//222
f 336//223 255//223 334//223
f 334//224 255//224 257//224
f 334//225 257//225 353//225
f 353//226 257//226 259//226
f 260//227 362//227 259//227
f 259//227 362//227 353//227
f 353//228 362//228 356//228
f 356//229 362//229 363//229
f 356//230 363//230 357//230
f 357//231 363//231 364//231
f 357//232 364//232 358//232
f 358//233 364//233 365//233
f 358//234 365//234 355//234
f 355//234 365//234 366//234
f 329//203 327//203 221//203
f 221//203 327//203 367//203
f 221//203 367//203 368//203
f 221//203 368//203 222//203
f 222//203 368//203 341//203
f 222//203 341//203 339//203
f 225//235 331//235 215//235
f 215//236 331//236 329//236
f 215//237 329//237 216//237
f 216//238 329//238 219//238
f 219//239 329//239 221//239
f 331//240 225//240 333//240
f 333//241 225//241 227//241
f 333//242 227//242 342//242
f 342//243 227//243 229//243
f 346//244 230//244 347//244
f 347//245 230//245 232//245
f 347//246 232//246 348//246
f 348//246 232//246 234//246
f 348//247 234//247 344//247
f 344//247 234//247 236//247
f 229//248 230//248 342//248
f 342//248 230//248 346//248
f 340//200 369//200 207//200
f 207//200 369//200 370//200
f 207//200 370//200 208//200
f 208//200 370//200 326//200
f 208//200 326//200 328//200
f 207//200 338//200 340//200
f 212//249 328//249 214//249
f 214//250 328//250 330//250
f 214//251 330//251 371//251
f 371//252 330//252 332//252
f 371//253 332//253 372//253
f 372//254 332//254 352//254
f 372//255 352//255 373//255
f 212//256 210//256 328//256
f 328//257 210//257 208//257
f 354//258 374//258 359//258
f 359//258 374//258 375//258
f 359//259 375//259 360//259
f 360//260 375//260 376//260
f 360//261 376//261 361//261
f 361//262 376//262 377//262
f 367//263 327//263 370//263
f 370//263 327//263 326//263
f 378//264 373//264 379//264
f 379//264 373//264 352//264
f 379//265 352//265 361//265
f 361//266 377//266 379//266
f 367//194 370//194 368//194
f 368//194 370//194 369//194
f 366//200 374//200 355//200
f 355//200 374//200 354//200
f 341//267 368//267 340//267
f 340//267 368//267 369//267
f 362//203 260//203 380//203
f 380//203 260//203 261//203
f 378//203 379//203 381//203
f 381//203 379//203 382//203
f 383//199 214//199 384//199
f 384//199 214//199 371//199
f 384//199 371//199 385//199
f 385//268 371//268 372//268
f 385//199 372//199 386//199
f 386//199 372//199 373//199
f 386//199 373//199 378//199
f 378//199 381//199 386//199
f 379//199 377//199 382//199
f 382//199 377//199 387//199
f 387//199 377//199 376//199
f 387//199 376//199 388//199
f 388//199 376//199 375//199
f 388//199 375//199 389//199
f 389//199 375//199 374//199
f 389//199 374//199 390//199
f 390//199 374//199 391//199
f 391//199 374//199 366//199
f 391//199 366//199 392//199
f 392//199 366//199 365//199
f 392//199 365//199 393//199
f 393//199 365//199 364//199
f 393//199 364//199 394//199
f 394//199 364//199 363//199
f 394//199 363//199 380//199
f 380//199 363//199 362//199
f 395//247 391//247 396//247
f 396//247 391//247 392//247
f 396//269 392//269 397//269
f 397//246 392//246 393//246
f 397//244 393//244 398//244
f 398//245 393//245 394//245
f 394//248 380//248 398//248
f 398//270 380//270 399//270
f 399//271 380//271 258//271
f 258//248 380//248 261//248
f 399//244 258//244 400//244
f 400//272 258//272 256//272
f 400//273 256//273 401//273
f 401//274 256//274 254//274
f 401//275 254//275 402//275
f 402//276 254//276 253//276
f 403//194 294//194 404//194
f 404//194 294//194 296//194
f 405//203 406//203 383//203
f 383//203 406//203 403//203
f 383//203 403//203 214//203
f 214//203 403//203 213//203
f 213//203 403//203 404//203
f 213//203 404//203 253//203
f 253//203 404//203 407//203
f 253//203 407//203 402//203
f 408//206 387//206 409//206
f 409//207 387//207 388//207
f 409//277 388//277 410//277
f 410//205 388//205 389//205
f 410//204 389//204 411//204
f 411//204 389//204 390//204
f 387//208 408//208 382//208
f 382//278 408//278 412//278
f 382//279 412//279 386//279
f 386//208 381//208 382//208
f 383//280 384//280 405//280
f 405//281 384//281 413//281
f 413//282 384//282 385//282
f 413//283 385//283 414//283
f 414//284 385//284 386//284
f 414//206 386//206 412//206
f 281//285 283//285 308//285
f 308//285 283//285 300//285
f 283//286 293//286 300//286
f 300//286 293//286 298//286
f 279//287 310//287 280//287
f 280//287 310//287 309//287
f 280//288 309//288 282//288
f 282//288 309//288 302//288
f 282//289 302//289 284//289
f 284//289 302//289 301//289
f 308//194 310//194 281//194
f 281//194 310//194 279//194
f 403//263 406//263 294//263
f 294//263 406//263 415//263
f 294//263 415//263 288//263
f 294//263 288//263 295//263
f 295//263 288//263 284//263
f 295//263 284//263 301//263
f 416//199 398//199 407//199
f 407//199 398//199 399//199
f 407//199 399//199 400//199
f 415//199 395//199 416//199
f 416//199 395//199 396//199
f 416//199 396//199 397//199
f 406//199 408//199 415//199
f 415//199 408//199 409//199
f 415//199 409//199 410//199
f 405//199 413//199 406//199
f 406//199 413//199 414//199
f 406//199 414//199 412//199
f 412//199 408//199 406//199
f 410//199 411//199 415//199
f 415//199 411//199 395//199
f 397//199 398//199 416//199
f 400//199 401//199 407//199
f 407//199 401//199 402//199
f 390//203 391//203 411//203
f 411//203 391//203 395//203
f 288//290 415//290 289//290
f 289//290 415//290 416//290
f 303//291 299//291 290//291
f 290//291 299//291 285//291
f 299//292 298//292 285//292
f 285//292 298//292 293//292
f 286//293 305//293 287//293
f 287//293 305//293 304//293
f 287//294 304//294 291//294
f 291//294 304//294 307//294
f 291//295 307//295 292//295
f 292//295 307//295 306//295
f 290//194 292//194 303//194
f 303//194 292//194 306//194
f 404//267 296//267 407//267
f 407//267 296//267 416//267
f 416//267 296//267 289//267
f 289//267 296//267 297//267
f 289//267 297//267 286//267
f 286//267 297//267 305//267
f 437//201 438//201 428//201
f 428//201 438//201 439//201
f 428//296 439//296 429//296
f 429//297 439//297 440//297
f 429//297 440//297 430//297
f 430//298 440//298 441//298
f 430//201 441//201 431//201
f 431//299 441//299 442//299
f 431//299 442//299 432//299
f 432//300 442//300 443//300
f 432//301 443//301 433//301
f 433//302 443//302 444//302
f 433//303 444//303 434//303
f 434//304 444//304 445//304
f 434//301 445//301 435//301
f 435//305 445//305 446//305
f 435//201 446//201 436//201
f 436//306 446//306 447//306
f 436//307 447//307 427//307
f 427//201 447//201 437//201
f 427//201 437//201 428//201
f 437//308 448//308 438//308
f 438//309 448//309 449//309
f 438//309 449//309 439//309
f 439//310 449//310 450//310
f 439//310 450//310 440//310
f 440//311 450//311 451//311
f 440//311 451//311 441//311
f 441//312 451//312 452//312
f 441//312 452//312 442//312
f 442//313 452//313 453//313
f 442//313 453//313 443//313
f 443//267 453//267 454//267
f 443//267 454//267 444//267
f 444//314 454//314 455//314
f 444//315 455//315 445//315
f 445//316 455//316 456//316
f 445//316 456//316 446//316
f 446//317 456//317 457//317
f 446//317 457//317 447//317
f 447//318 457//318 458//318
f 447//319 458//319 437//319
f 437//308 458//308 448//308
f 458//320 459//320 448//320
f 448//321 459//321 460//321
f 448//322 460//322 449//322
f 449//323 460//323 461//323
f 449//324 461//324 450//324
f 450//325 461//325 462//325
f 450//326 462//326 451//326
f 451//327 462//327 463//327
f 451//328 463//328 452//328
f 452//329 463//329 464//329
f 452//330 464//330 453//330
f 453//330 464//330 465//330
f 453//331 465//331 454//331
f 454//331 465//331 466//331
f 454//332 466//332 455//332
f 455//333 466//333 467//333
f 455//334 467//334 456//334
f 456//334 467//334 468//334
f 456//335 468//335 457//335
f 457//336 468//336 469//336
f 457//337 469//337 458//337
f 458//338 469//338 459//338
f 470//339 471//339 460//339
f 460//340 471//340 472//340
f 460//341 472//341 461//341
f 461//342 472//342 473//342
f 461//343 473//343 462//343
f 462//344 473//344 474//344
f 462//201 474//201 463//201
f 463//345 474//345 464//345
f 464//304 474//304 475//304
f 464//346 475//346 465//346
f 465//339 475//339 476//339
f 465//347 476//347 477//347
f 465//348 477//348 466//348
f 466//349 477//349 478//349
f 466//343 478//343 467//343
f 467//299 478//299 479//299
f 467//201 479//201 468//201
f 468//350 479//350 469//350
f 469//340 479//340 480//340
f 469//346 480//346 459//346
f 459//351 480//351 470//351
f 459//352 470//352 460//352
f 481//353 482//353 483//353
f 483//354 482//354 484//354
f 483//355 484//355 485//355
f 485//356 484//356 486//356
f 485//357 486//357 487//357
f 487//358 486//358 488//358
f 487//359 488//359 489//359
f 489//360 488//360 490//360
f 489//361 490//361 491//361
f 491//362 490//362 492//362
f 491//363 492//363 493//363
f 493//364 492//364 494//364
f 493//365 494//365 495//365
f 495//366 494//366 476//366
f 495//367 476//367 475//367
f 482//368 481//368 496//368
f 496//369 481//369 497//369
f 496//370 497//370 498//370
f 498//371 497//371 499//371
f 498//372 499//372 500//372
f 500//373 499//373 501//373
f 500//374 501//374 495//374
f 495//375 501//375 493//375
f 470//376 484//376 471//376
f 471//377 484//377 482//377
f 471//378 482//378 472//378
f 472//379 482//379 496//379
f 472//380 496//380 473//380
f 473//381 496//381 498//381
f 473//382 498//382 474//382
f 474//383 498//383 500//383
f 474//384 500//384 475//384
f 475//385 500//385 495//385
f 484//386 470//386 486//386
f 486//387 470//387 480//387
f 486//388 480//388 488//388
f 488//389 480//389 479//389
f 488//390 479//390 490//390
f 490//391 479//391 478//391
f 490//392 478//392 492//392
f 492//393 478//393 477//393
f 492//394 477//394 494//394
f 494//395 477//395 476//395
f 502//396 503//396 483//396
f 483//397 503//397 504//397
f 483//398 504//398 481//398
f 481//399 504//399 505//399
f 481//400 505//400 497//400
f 497//401 505//401 506//401
f 497//402 506//402 507//402
f 497//403 507//403 499//403
f 499//404 507//404 508//404
f 499//405 508//405 509//405
f 499//406 509//406 501//406
f 501//407 509//407 510//407
f 501//408 510//408 493//408
f 493//409 510//409 511//409
f 493//410 511//410 512//410
f 493//411 512//411 491//411
f 491//412 512//412 513//412
f 491//413 513//413 489//413
f 489//414 513//414 514//414
f 489//415 514//415 515//415
f 489//416 515//416 487//416
f 487//417 515//417 516//417
f 487//418 516//418 517//418
f 487//419 517//419 485//419
f 485//420 517//420 502//420
f 485//421 502//421 483//421
f 518//33 519//33 520//33
f 520//33 519//33 521//33
f 520//33 521//33 522//33
f 522//33 521//33 523//33
f 522//100 523//100 524//100
f 524//100 523//100 525//100
f 524//44 525//44 526//44
f 526//44 525//44 527//44
f 526//157 527//157 528//157
f 519//422 518//422 529//422
f 529//422 518//422 530//422
f 529//33 530//33 531//33
f 531//33 530//33 532//33
f 531//33 532//33 533//33
f 502//423 521//423 503//423
f 503//424 521//424 519//424
f 503//424 519//424 504//424
f 504//425 519//425 505//425
f 505//426 519//426 529//426
f 505//427 529//427 531//427
f 517//428 525//428 502//428
f 502//429 525//429 523//429
f 502//430 523//430 521//430
f 517//431 516//431 525//431
f 525//431 516//431 527//431
f 527//432 516//432 528//432
f 528//433 516//433 515//433
f 528//434 515//434 514//434
f 513//435 524//435 514//435
f 514//435 524//435 526//435
f 514//436 526//436 528//436
f 513//437 512//437 524//437
f 524//438 512//438 522//438
f 522//439 512//439 520//439
f 520//440 512//440 511//440
f 520//441 511//441 518//441
f 518//441 511//441 510//441
f 518//442 510//442 509//442
f 508//443 532//443 509//443
f 509//443 532//443 530//443
f 509//444 530//444 518//444
f 508//445 507//445 532//445
f 532//445 507//445 533//445
f 533//446 507//446 531//446
f 531//446 507//446 506//446
f 531//427 506//427 505//427
f 534//267 535//267 278//267
f 278//267 535//267 319//267
f 278//267 319//267 268//267
f 268//267 319//267 316//267
f 268//267 316//267 266//267
f 278//267 536//267 534//267
f 274//194 276//194 313//194
f 313//194 276//194 311//194
f 311//295 276//295 312//295
f 312//295 276//295 275//295
f 312//294 275//294 314//294
f 314//294 275//294 273//294
f 314//293 273//293 316//293
f 316//293 273//293 266//293
f 315//292 325//292 264//292
f 264//292 325//292 262//292
f 313//291 315//291 274//291
f 274//291 315//291 264//291
f 238//200 237//200 537//200
f 537//200 237//200 538//200
f 539//199 540//199 534//199
f 534//199 540//199 541//199
f 534//199 541//199 542//199
f 542//199 543//199 534//199
f 534//199 543//199 535//199
f 535//199 543//199 544//199
f 535//199 544//199 545//199
f 545//199 537//199 535//199
f 535//199 537//199 546//199
f 546//199 537//199 538//199
f 546//199 538//199 547//199
f 547//199 548//199 546//199
f 546//199 548//199 549//199
f 546//199 549//199 550//199
f 550//199 549//199 551//199
f 550//199 551//199 552//199
f 552//199 553//199 550//199
f 550//199 553//199 554//199
f 277//194 555//194 278//194
f 278//194 555//194 536//194
f 555//263 277//263 550//263
f 550//263 277//263 546//263
f 546//263 277//263 318//263
f 318//263 277//263 267//263
f 318//263 267//263 317//263
f 317//263 267//263 265//263
f 322//194 324//194 270//194
f 270//194 324//194 272//194
f 317//289 265//289 321//289
f 321//289 265//289 269//289
f 321//288 269//288 323//288
f 323//288 269//288 271//288
f 323//287 271//287 324//287
f 324//287 271//287 272//287
f 263//286 262//286 320//286
f 320//286 262//286 325//286
f 270//285 263//285 322//285
f 322//285 263//285 320//285
f 551//230 228//230 552//230
f 552//447 228//447 226//447
f 552//448 226//448 553//448
f 553//449 226//449 224//449
f 553//450 224//450 554//450
f 554//451 224//451 223//451
f 231//227 228//227 549//227
f 549//227 228//227 551//227
f 538//234 237//234 547//234
f 547//234 237//234 235//234
f 547//233 235//233 548//233
f 548//233 235//233 233//233
f 548//230 233//230 549//230
f 549//231 233//231 231//231
f 555//200 215//200 536//200
f 536//200 215//200 217//200
f 536//200 217//200 252//200
f 215//200 555//200 223//200
f 223//200 555//200 550//200
f 223//200 550//200 554//200
f 539//200 534//200 252//200
f 252//200 534//200 536//200
f 417//59 418//59 546//59
f 546//33 418//33 419//33
f 546//33 419//33 420//33
f 420//452 421//452 546//452
f 546//61 421//61 535//61
f 535//33 421//33 422//33
f 535//33 422//33 423//33
f 423//59 424//59 535//59
f 535//33 424//33 319//33
f 319//33 424//33 425//33
f 319//33 425//33 318//33
f 318//33 425//33 426//33
f 318//33 426//33 417//33
f 318//33 417//33 546//33
f 543//261 244//261 544//261
f 544//262 244//262 242//262
f 544//260 242//260 545//260
f 545//260 242//260 240//260
f 545//258 240//258 537//258
f 537//258 240//258 238//258
f 246//264 244//264 542//264
f 542//264 244//264 543//264
f 252//453 251//453 539//453
f 539//454 251//454 540//454
f 540//455 251//455 249//455
f 540//456 249//456 541//456
f 541//457 249//457 246//457
f 541//261 246//261 542//261
