# Blender 4.0.2
# www.blender.org
o fl_wheel__m1
v -0.055161 0.002064 0.015637
v -0.078400 -0.057357 0.009239
v -0.057310 0.002064 0.000000
v -0.078400 -0.057357 -0.009239
v -0.055161 0.002064 -0.015637
v -0.074138 -0.057357 -0.027220
v -0.048873 0.002064 -0.030114
v -0.065845 -0.057357 -0.043732
v -0.038912 0.002064 -0.042357
v -0.053968 -0.057357 -0.057888
v -0.039146 -0.057357 -0.068922
v -0.074138 -0.057357 0.027220
v -0.048873 0.002064 0.030114
v -0.065845 -0.057357 0.043732
v -0.038912 0.002064 0.042357
v -0.053968 -0.057357 0.057888
v -0.039146 -0.057357 0.068922
v -0.026017 0.002064 0.051459
v -0.022178 -0.057357 0.076241
v -0.011145 0.002064 0.056745
v -0.003981 -0.057357 0.079450
v 0.004602 0.002064 0.057822
v 0.014466 -0.057357 0.078376
v 0.020055 0.002064 0.054611
v 0.032169 -0.057357 0.073076
v 0.034070 0.002064 0.047349
v 0.048171 -0.057357 0.063837
v 0.045605 0.002064 0.036576
v 0.061612 -0.057357 0.051156
v 0.071766 -0.057357 0.035717
v 0.053806 0.002064 0.023090
v 0.078086 -0.057357 0.018353
v 0.058064 0.002064 0.007892
v 0.080231 -0.057357 0.000000
v 0.058064 0.002064 -0.007892
v 0.078086 -0.057357 -0.018353
v 0.053806 0.002064 -0.023090
v 0.071766 -0.057357 -0.035717
v 0.045605 0.002064 -0.036576
v 0.061612 -0.057357 -0.051156
v 0.048171 -0.057357 -0.063837
v 0.034070 0.002064 -0.047349
v 0.032169 -0.057357 -0.073076
v 0.020055 0.002064 -0.054611
v 0.014466 -0.057357 -0.078376
v 0.004602 0.002064 -0.057822
v -0.003981 -0.057357 -0.079450
v -0.011145 0.002064 -0.056745
v -0.022178 -0.057357 -0.076241
v -0.026017 0.002064 -0.051459
v -0.051343 0.005064 -0.015266
v -0.054496 0.022540 -0.015450
v -0.053538 0.005064 0.000000
v -0.056620 0.022540 0.000000
v -0.054496 0.022540 0.015450
v -0.048283 0.022540 -0.029755
v -0.044936 0.005064 -0.029295
v -0.038441 0.022540 -0.041852
v -0.034837 0.005064 -0.040950
v -0.025699 0.022540 -0.050846
v -0.021862 0.005064 -0.049288
v -0.011004 0.022540 -0.056069
v -0.007065 0.005064 -0.053633
v 0.004555 0.022540 -0.057133
v 0.008358 0.005064 -0.053633
v 0.019824 0.022540 -0.053960
v 0.023156 0.005064 -0.049288
v 0.033671 0.022540 -0.046785
v 0.036130 0.005064 -0.040950
v 0.045069 0.022540 -0.036140
v 0.046230 0.005064 -0.029295
v 0.053172 0.022540 -0.022815
v 0.052637 0.005064 -0.015266
v 0.057380 0.022540 -0.007798
v 0.054832 0.005064 0.000000
v 0.057380 0.022540 0.007798
v 0.052637 0.005064 0.015266
v 0.053172 0.022540 0.022815
v 0.046230 0.005064 0.029295
v 0.045069 0.022540 0.036140
v 0.036130 0.005064 0.040950
v 0.033671 0.022540 0.046785
v 0.023156 0.005064 0.049288
v 0.019824 0.022540 0.053960
v 0.008358 0.005064 0.053633
v 0.004555 0.022540 0.057133
v -0.007065 0.005064 0.053633
v -0.011004 0.022540 0.056069
v -0.021862 0.005064 0.049288
v -0.025699 0.022540 0.050846
v -0.034837 0.005064 0.040950
v -0.038441 0.022540 0.041852
v -0.044936 0.005064 0.029295
v -0.048283 0.022540 0.029755
v -0.051343 0.005064 0.015266
v -0.065743 0.026644 -0.017046
v -0.067896 0.026644 0.000000
v -0.065743 0.026644 0.017046
v -0.059418 0.026644 -0.033021
v -0.049319 0.026644 -0.046921
v -0.036080 0.026644 -0.057873
v -0.020534 0.026644 -0.065188
v -0.003657 0.026644 -0.068407
v 0.013490 0.026644 -0.067329
v 0.029831 0.026644 -0.062019
v 0.044338 0.026644 -0.052813
v 0.056099 0.026644 -0.040288
v 0.064376 0.026644 -0.025232
v 0.068649 0.026644 -0.008591
v 0.068649 0.026644 0.008591
v 0.064376 0.026644 0.025232
v 0.056099 0.026644 0.040288
v 0.044338 0.026644 0.052813
v 0.029831 0.026644 0.062019
v 0.013490 0.026644 0.067329
v -0.003657 0.026644 0.068407
v -0.020534 0.026644 0.065188
v -0.036080 0.026644 0.057873
v -0.049319 0.026644 0.046921
v -0.059418 0.026644 0.033021
v -0.069276 0.046340 -0.017234
v -0.071369 0.046340 0.000000
v -0.069276 0.046340 0.017234
v -0.063120 0.046340 -0.033467
v -0.053258 0.046340 -0.047755
v -0.040263 0.046340 -0.059268
v -0.024890 0.046340 -0.067336
v -0.008034 0.046340 -0.071491
v 0.009327 0.046340 -0.071491
v 0.026184 0.046340 -0.067336
v 0.041556 0.046340 -0.059268
v 0.054551 0.046340 -0.047755
v 0.064414 0.046340 -0.033467
v 0.070570 0.046340 -0.017234
v 0.072663 0.046340 0.000000
v 0.070570 0.046340 0.017234
v 0.064414 0.046340 0.033467
v 0.054551 0.046340 0.047755
v 0.041556 0.046340 0.059268
v 0.026184 0.046340 0.067336
v 0.009327 0.046340 0.071491
v -0.008034 0.046340 0.071491
v -0.024890 0.046340 0.067336
v -0.040263 0.046340 0.059268
v -0.053258 0.046340 0.047755
v -0.063120 0.046340 0.033467
v -0.077094 0.047730 -0.018425
v -0.079247 0.047730 0.000000
v -0.077094 0.047730 0.018425
v -0.070749 0.047730 -0.035856
v -0.060556 0.047730 -0.051355
v -0.047063 0.047730 -0.064085
v -0.030998 0.047730 -0.073360
v -0.013227 0.047730 -0.078680
v 0.005292 0.047730 -0.079759
v 0.023561 0.047730 -0.076538
v 0.040594 0.047730 -0.069190
v 0.055474 0.047730 -0.058113
v 0.067397 0.047730 -0.043903
v 0.075723 0.047730 -0.027325
v 0.080001 0.047730 -0.009275
v 0.080001 0.047730 0.009275
v 0.075723 0.047730 0.027325
v 0.067397 0.047730 0.043903
v 0.055474 0.047730 0.058113
v 0.040594 0.047730 0.069190
v 0.023561 0.047730 0.076538
v 0.005292 0.047730 0.079759
v -0.013227 0.047730 0.078680
v -0.030998 0.047730 0.073360
v -0.047063 0.047730 0.064085
v -0.060556 0.047730 0.051355
v -0.070749 0.047730 0.035856
v -0.081401 0.063643 -0.018727
v -0.083511 0.063643 0.000000
v -0.081401 0.063643 0.018727
v -0.075177 0.063643 -0.036515
v -0.065151 0.063643 -0.052472
v -0.051825 0.063643 -0.065798
v -0.035868 0.063643 -0.075824
v -0.018080 0.063643 -0.082048
v 0.000647 0.063643 -0.084158
v 0.019374 0.063643 -0.082048
v 0.037162 0.063643 -0.075824
v 0.053118 0.063643 -0.065798
v 0.066444 0.063643 -0.052472
v 0.076471 0.063643 -0.036515
v 0.082695 0.063643 -0.018727
v 0.084805 0.063643 0.000000
v 0.082695 0.063643 0.018727
v 0.076471 0.063643 0.036515
v 0.066444 0.063643 0.052472
v 0.053118 0.063643 0.065798
v 0.037162 0.063643 0.075824
v 0.019374 0.063643 0.082048
v 0.000647 0.063643 0.084158
v -0.018080 0.063643 0.082048
v -0.035868 0.063643 0.075824
v -0.051825 0.063643 0.065798
v -0.065151 0.063643 0.052472
v -0.075177 0.063643 0.036515
v -0.087249 0.063643 -0.019347
v -0.089353 0.063643 0.000000
v -0.087249 0.063643 0.019347
v -0.081035 0.063643 -0.037790
v -0.071002 0.063643 -0.054466
v -0.057618 0.063643 -0.068595
v -0.041510 0.063643 -0.079516
v -0.023431 0.063643 -0.086719
v -0.004226 0.063643 -0.089868
v 0.015207 0.063643 -0.088814
v 0.033959 0.063643 -0.083608
v 0.051154 0.063643 -0.074492
v 0.065986 0.063643 -0.061893
v 0.077764 0.063643 -0.046400
v 0.085936 0.063643 -0.028737
v 0.090119 0.063643 -0.009731
v 0.090119 0.063643 0.009731
v 0.085936 0.063643 0.028737
v 0.077764 0.063643 0.046400
v 0.065986 0.063643 0.061893
v 0.051154 0.063643 0.074492
v 0.033959 0.063643 0.083608
v 0.015207 0.063643 0.088814
v -0.004226 0.063643 0.089868
v -0.023431 0.063643 0.086719
v -0.041510 0.063643 0.079516
v -0.057618 0.063643 0.068595
v -0.071002 0.063643 0.054466
v -0.081035 0.063643 0.037790
v 0.085936 -0.057357 -0.028737
v 0.077764 -0.057357 -0.046400
v 0.051154 -0.057357 0.074492
v 0.033959 -0.057357 0.083608
v 0.015207 -0.057357 0.088814
v -0.081035 -0.057357 0.037790
v -0.087249 -0.057357 0.019347
v -0.089353 -0.057357 0.000000
v -0.023431 -0.057357 -0.086719
v -0.004226 -0.057357 -0.089868
v 0.015207 -0.057357 -0.088814
v 0.033959 -0.057357 -0.083608
v -0.071002 -0.057357 0.054466
v -0.057618 -0.057357 0.068595
v -0.041510 -0.057357 0.079516
v -0.023431 -0.057357 0.086719
v -0.004226 -0.057357 0.089868
v 0.065986 -0.057357 0.061893
v 0.077764 -0.057357 0.046400
v 0.085936 -0.057357 0.028737
v 0.090119 -0.057357 0.009731
v 0.090119 -0.057357 -0.009731
v 0.065986 -0.057357 -0.061893
v 0.051154 -0.057357 -0.074492
v -0.041510 -0.057357 -0.079516
v -0.057618 -0.057357 -0.068595
v -0.071002 -0.057357 -0.054466
v -0.081035 -0.057357 -0.037790
v -0.087249 -0.057357 -0.019347
v -0.025853 0.002064 0.000000
v -0.023836 0.002064 -0.010141
v -0.018092 0.002064 -0.018738
v -0.009494 0.002064 -0.024483
v 0.000647 0.002064 -0.026500
v 0.010788 0.002064 -0.024483
v 0.019385 0.002064 -0.018738
v 0.025130 0.002064 -0.010141
v 0.027147 0.002064 0.000000
v 0.025130 0.002064 0.010141
v 0.019385 0.002064 0.018738
v 0.010788 0.002064 0.024483
v 0.000647 0.002064 0.026500
v -0.009494 0.002064 0.024483
v -0.018092 0.002064 0.018738
v -0.023836 0.002064 0.010141
v -0.023836 0.005064 -0.010141
v -0.025853 0.005064 0.000000
v -0.023836 0.005064 0.010141
v -0.018092 0.005064 0.018738
v -0.009494 0.005064 0.024483
v 0.000647 0.005064 0.026500
v 0.010788 0.005064 0.024483
v 0.019385 0.005064 0.018738
v 0.025130 0.005064 0.010141
v 0.027147 0.005064 0.000000
v 0.025130 0.005064 -0.010141
v 0.019385 0.005064 -0.018738
v 0.010788 0.005064 -0.024483
v 0.000647 0.005064 -0.026500
v -0.009494 0.005064 -0.024483
v -0.018092 0.005064 -0.018738
vn 0.9283 -0.3493 -0.1276
vn 0.9424 -0.3345 -0.0000
vn 0.9283 -0.3493 0.1276
vn 0.9168 -0.3351 0.2173
vn 0.8601 -0.3475 0.3736
vn 0.8413 -0.3371 0.4225
vn 0.7284 -0.3439 0.5926
vn 0.7203 -0.3405 0.6043
vn 0.5617 -0.3395 0.7545
vn 0.9168 -0.3351 -0.2173
vn 0.8601 -0.3475 -0.3736
vn 0.8413 -0.3371 -0.4225
vn 0.7284 -0.3439 -0.5926
vn 0.7203 -0.3405 -0.6043
vn 0.5617 -0.3395 -0.7545
vn 0.5413 -0.3450 -0.7668
vn 0.3730 -0.3365 -0.8647
vn 0.3140 -0.3481 -0.8833
vn 0.1636 -0.3348 -0.9280
vn 0.0639 -0.3495 -0.9348
vn -0.0548 -0.3345 -0.9408
vn -0.1907 -0.3490 -0.9175
vn -0.2702 -0.3355 -0.9025
vn -0.4315 -0.3468 -0.8328
vn -0.4706 -0.3379 -0.8151
vn -0.6412 -0.3427 -0.6866
vn -0.6450 -0.3415 -0.6836
vn -0.7861 -0.3386 -0.5170
vn -0.8017 -0.3459 -0.4875
vn -0.8851 -0.3360 -0.3221
vn -0.9025 -0.3486 -0.2529
vn -0.9360 -0.3346 -0.1094
vn -0.9369 -0.3495 -0.0000
vn -0.9360 -0.3346 0.1094
vn -0.9025 -0.3486 0.2529
vn -0.8851 -0.3360 0.3221
vn -0.8017 -0.3459 0.4875
vn -0.7861 -0.3386 0.5170
vn -0.6450 -0.3415 0.6836
vn -0.6412 -0.3427 0.6866
vn -0.4706 -0.3379 0.8151
vn -0.4315 -0.3468 0.8328
vn -0.2702 -0.3355 0.9025
vn -0.1907 -0.3490 0.9175
vn -0.0548 -0.3345 0.9408
vn 0.0639 -0.3495 0.9348
vn 0.1636 -0.3348 0.9280
vn 0.3140 -0.3481 0.8833
vn 0.3730 -0.3365 0.8647
vn 0.5413 -0.3450 0.7668
vn 0.9742 0.1772 0.1401
vn 0.9759 0.1721 0.1342
vn 0.9759 0.1721 -0.1342
vn 0.9043 0.1673 0.3928
vn 0.8944 0.1821 0.4085
vn 0.7653 0.1630 0.6227
vn 0.7425 0.1863 0.6434
vn 0.5693 0.1590 0.8066
vn 0.5308 0.1902 0.8259
vn 0.3308 0.1556 0.9308
vn 0.2764 0.1935 0.9414
vn 0.0674 0.1526 0.9860
vn -0.0000 0.1964 0.9805
vn -0.2012 0.1501 0.9680
vn -0.2761 0.1987 0.9404
vn -0.4550 0.1480 0.8781
vn -0.5297 0.2006 0.8241
vn -0.6752 0.1464 0.7230
vn -0.7401 0.2020 0.6414
vn -0.8454 0.1452 0.5141
vn -0.8907 0.2030 0.4068
vn -0.9528 0.1445 0.2670
vn -0.9691 0.2035 0.1393
vn -0.9895 0.1443 -0.0000
vn -0.9691 0.2035 -0.1393
vn -0.9528 0.1445 -0.2670
vn -0.8907 0.2030 -0.4068
vn -0.8454 0.1452 -0.5141
vn -0.7401 0.2020 -0.6414
vn -0.6752 0.1464 -0.7230
vn -0.5297 0.2006 -0.8241
vn -0.4550 0.1480 -0.8781
vn -0.2761 0.1987 -0.9404
vn -0.2012 0.1501 -0.9680
vn -0.0000 0.1964 -0.9805
vn 0.0674 0.1526 -0.9860
vn 0.2764 0.1935 -0.9414
vn 0.3308 0.1556 -0.9308
vn 0.5308 0.1902 -0.8259
vn 0.5693 0.1590 -0.8066
vn 0.7425 0.1863 -0.6434
vn 0.7653 0.1630 -0.6227
vn 0.8944 0.1821 -0.4085
vn 0.9043 0.1673 -0.3928
vn 0.9742 0.1772 -0.1401
vn 0.3366 0.9405 0.0463
vn 0.3417 0.9388 0.0432
vn 0.3417 0.9388 -0.0432
vn 0.3239 0.9374 0.1282
vn 0.3079 0.9420 0.1337
vn 0.2844 0.9362 0.2066
vn 0.2580 0.9431 0.2099
vn 0.2257 0.9352 0.2728
vn 0.1905 0.9439 0.2699
vn 0.1515 0.9345 0.3220
vn 0.1101 0.9444 0.3099
vn 0.0669 0.9342 0.3505
vn 0.0224 0.9446 0.3275
vn -0.0224 0.9341 0.3563
vn -0.0668 0.9445 0.3216
vn -0.1102 0.9343 0.3390
vn -0.1516 0.9442 0.2926
vn -0.1902 0.9348 0.2998
vn -0.2262 0.9435 0.2422
vn -0.2573 0.9357 0.2416
vn -0.2854 0.9426 0.1736
vn -0.3067 0.9367 0.1686
vn -0.3251 0.9413 0.0911
vn -0.3356 0.9381 0.0862
vn -0.3422 0.9396 -0.0000
vn -0.3356 0.9381 -0.0862
vn -0.3251 0.9413 -0.0911
vn -0.3067 0.9367 -0.1686
vn -0.2854 0.9426 -0.1736
vn -0.2573 0.9357 -0.2416
vn -0.2262 0.9435 -0.2422
vn -0.1902 0.9348 -0.2998
vn -0.1516 0.9442 -0.2926
vn -0.1102 0.9343 -0.3390
vn -0.0668 0.9445 -0.3216
vn -0.0224 0.9341 -0.3563
vn 0.0224 0.9446 -0.3275
vn 0.0669 0.9342 -0.3505
vn 0.1101 0.9444 -0.3099
vn 0.1515 0.9345 -0.3220
vn 0.1905 0.9439 -0.2699
vn 0.2257 0.9352 -0.2728
vn 0.2580 0.9431 -0.2099
vn 0.2844 0.9362 -0.2066
vn 0.3079 0.9420 -0.1337
vn 0.3239 0.9374 -0.1282
vn 0.3366 0.9405 -0.0463
vn 0.9766 0.1764 0.1233
vn 0.9778 0.1724 0.1188
vn 0.9778 0.1724 -0.1188
vn 0.9216 0.1687 0.3495
vn 0.9146 0.1801 0.3621
vn 0.8117 0.1652 0.5602
vn 0.7953 0.1835 0.5778
vn 0.6544 0.1621 0.7386
vn 0.6262 0.1866 0.7570
vn 0.4588 0.1593 0.8742
vn 0.4181 0.1894 0.8885
vn 0.2364 0.1569 0.9589
vn 0.1839 0.1918 0.9641
vn -0.0000 0.1547 0.9880
vn -0.0616 0.1939 0.9791
vn -0.2365 0.1528 0.9595
vn -0.3031 0.1957 0.9327
vn -0.4594 0.1512 0.8753
vn -0.5253 0.1971 0.8278
vn -0.6556 0.1499 0.7400
vn -0.7145 0.1982 0.6709
vn -0.8138 0.1490 0.5617
vn -0.8588 0.1990 0.4721
vn -0.9247 0.1484 0.3507
vn -0.9491 0.1995 0.2437
vn -0.9818 0.1481 0.1192
vn -0.9799 0.1997 -0.0000
vn -0.9818 0.1481 -0.1192
vn -0.9491 0.1995 -0.2437
vn -0.9247 0.1484 -0.3507
vn -0.8588 0.1990 -0.4721
vn -0.8138 0.1490 -0.5618
vn -0.7145 0.1982 -0.6709
vn -0.6556 0.1499 -0.7400
vn -0.5253 0.1971 -0.8278
vn -0.4594 0.1512 -0.8753
vn -0.3031 0.1957 -0.9327
vn -0.2365 0.1528 -0.9595
vn -0.0616 0.1939 -0.9791
vn -0.0000 0.1547 -0.9880
vn 0.1839 0.1918 -0.9641
vn 0.2364 0.1569 -0.9589
vn 0.4181 0.1894 -0.8885
vn 0.4588 0.1593 -0.8742
vn 0.6262 0.1866 -0.7570
vn 0.6544 0.1621 -0.7386
vn 0.7953 0.1835 -0.5778
vn 0.8117 0.1652 -0.5602
vn 0.9146 0.1801 -0.3621
vn 0.9216 0.1687 -0.3495
vn 0.9766 0.1764 -0.1233
vn 0.1719 0.9849 0.0209
vn 0.1737 0.9846 0.0203
vn 0.1737 0.9846 -0.0203
vn 0.1658 0.9843 0.0604
vn 0.1604 0.9852 0.0608
vn 0.1487 0.9840 0.0978
vn 0.1400 0.9854 0.0966
vn 0.1230 0.9838 0.1304
vn 0.1120 0.9856 0.1264
vn 0.0903 0.9836 0.1564
vn 0.0779 0.9858 0.1485
vn 0.0521 0.9834 0.1741
vn 0.0399 0.9860 0.1618
vn 0.0106 0.9832 0.1824
vn -0.0000 0.9862 0.1658
vn -0.0319 0.9830 0.1808
vn -0.0395 0.9863 0.1602
vn -0.0730 0.9829 0.1693
vn -0.0764 0.9864 0.1456
vn -0.1105 0.9827 0.1484
vn -0.1087 0.9865 0.1227
vn -0.1421 0.9827 0.1192
vn -0.1346 0.9865 0.0929
vn -0.1661 0.9826 0.0834
vn -0.1527 0.9866 0.0579
vn -0.1810 0.9825 0.0429
vn -0.1620 0.9866 0.0197
vn -0.1861 0.9825 -0.0000
vn -0.1620 0.9866 -0.0197
vn -0.1810 0.9825 -0.0429
vn -0.1527 0.9866 -0.0579
vn -0.1661 0.9826 -0.0834
vn -0.1346 0.9865 -0.0929
vn -0.1421 0.9827 -0.1192
vn -0.1087 0.9865 -0.1227
vn -0.1105 0.9827 -0.1484
vn -0.0764 0.9864 -0.1456
vn -0.0730 0.9829 -0.1693
vn -0.0395 0.9863 -0.1602
vn -0.0319 0.9830 -0.1808
vn -0.0000 0.9862 -0.1658
vn 0.0106 0.9832 -0.1824
vn 0.0399 0.9860 -0.1618
vn 0.0521 0.9834 -0.1741
vn 0.0779 0.9858 -0.1485
vn 0.0903 0.9836 -0.1564
vn 0.1120 0.9856 -0.1264
vn 0.1230 0.9838 -0.1304
vn 0.1400 0.9854 -0.0966
vn 0.1487 0.9840 -0.0978
vn 0.1604 0.9852 -0.0608
vn 0.1658 0.9843 -0.0604
vn 0.1719 0.9849 -0.0209
vn 0.9587 0.2616 0.1120
vn 0.9603 0.2573 0.1082
vn 0.9603 0.2573 -0.1082
vn 0.9131 0.2532 0.3195
vn 0.9059 0.2657 0.3298
vn 0.8200 0.2495 0.5152
vn 0.8046 0.2695 0.5292
vn 0.6854 0.2460 0.6854
vn 0.6602 0.2729 0.6998
vn 0.5161 0.2429 0.8214
vn 0.4806 0.2760 0.8324
vn 0.3206 0.2400 0.9163
vn 0.2754 0.2787 0.9200
vn 0.1088 0.2375 0.9653
vn 0.0558 0.2811 0.9580
vn -0.1088 0.2352 0.9658
vn -0.1665 0.2832 0.9445
vn -0.3212 0.2333 0.9178
vn -0.3797 0.2850 0.8801
vn -0.5176 0.2318 0.8237
vn -0.5721 0.2864 0.7685
vn -0.6881 0.2304 0.6881
vn -0.7337 0.2876 0.6156
vn -0.8241 0.2295 0.5179
vn -0.8557 0.2884 0.4297
vn -0.9188 0.2289 0.3215
vn -0.9316 0.2889 0.2208
vn -0.9674 0.2285 0.1090
vn -0.9573 0.2890 -0.0000
vn -0.9674 0.2285 -0.1090
vn -0.9316 0.2889 -0.2208
vn -0.9188 0.2289 -0.3215
vn -0.8557 0.2884 -0.4297
vn -0.8241 0.2295 -0.5179
vn -0.7337 0.2876 -0.6156
vn -0.6881 0.2304 -0.6881
vn -0.5721 0.2864 -0.7685
vn -0.5176 0.2318 -0.8237
vn -0.3797 0.2850 -0.8801
vn -0.3212 0.2333 -0.9178
vn -0.1665 0.2832 -0.9445
vn -0.1088 0.2352 -0.9658
vn 0.0558 0.2811 -0.9580
vn 0.1088 0.2375 -0.9653
vn 0.2754 0.2787 -0.9200
vn 0.3206 0.2400 -0.9163
vn 0.4806 0.2760 -0.8324
vn 0.5161 0.2429 -0.8214
vn 0.6602 0.2729 -0.6998
vn 0.6854 0.2460 -0.6854
vn 0.8046 0.2695 -0.5292
vn 0.8200 0.2495 -0.5152
vn 0.9059 0.2657 -0.3298
vn 0.9131 0.2532 -0.3195
vn 0.9587 0.2616 -0.1120
vn -0.0000 1.0000 -0.0000
vn -0.0000 -1.0000 -0.0000
vn 0.9808 -0.0000 0.1951
vn 0.9808 -0.0000 -0.1951
vn 0.8315 -0.0000 -0.5555
vn 0.5556 -0.0000 -0.8315
vn 0.1951 -0.0000 -0.9808
vn -0.1951 -0.0000 -0.9808
vn -0.5556 -0.0000 -0.8314
vn -0.8314 -0.0000 -0.5556
vn -0.9808 -0.0000 -0.1951
vn -0.9808 -0.0000 0.1951
vn -0.8314 -0.0000 0.5556
vn -0.5556 -0.0000 0.8314
vn -0.1951 -0.0000 0.9808
vn 0.1951 -0.0000 0.9808
vn 0.5556 -0.0000 0.8315
vn 0.8315 -0.0000 0.5555
s 0
f 1//1 2//1 3//1
f 3//2 2//2 4//2
f 3//3 4//3 5//3
f 5//4 4//4 6//4
f 5//5 6//5 7//5
f 7//6 6//6 8//6
f 7//7 8//7 9//7
f 9//8 8//8 10//8
f 9//9 10//9 11//9
f 2//10 1//10 12//10
f 12//11 1//11 13//11
f 12//12 13//12 14//12
f 14//13 13//13 15//13
f 14//14 15//14 16//14
f 16//15 15//15 17//15
f 17//16 15//16 18//16
f 17//17 18//17 19//17
f 19//18 18//18 20//18
f 19//19 20//19 21//19
f 21//20 20//20 22//20
f 21//21 22//21 23//21
f 23//22 22//22 24//22
f 23//23 24//23 25//23
f 25//24 24//24 26//24
f 25//25 26//25 27//25
f 27//26 26//26 28//26
f 27//27 28//27 29//27
f 29//28 28//28 30//28
f 30//29 28//29 31//29
f 30//30 31//30 32//30
f 32//31 31//31 33//31
f 32//32 33//32 34//32
f 34//33 33//33 35//33
f 34//34 35//34 36//34
f 36//35 35//35 37//35
f 36//36 37//36 38//36
f 38//37 37//37 39//37
f 38//38 39//38 40//38
f 40//39 39//39 41//39
f 41//40 39//40 42//40
f 41//41 42//41 43//41
f 43//42 42//42 44//42
f 43//43 44//43 45//43
f 45//44 44//44 46//44
f 45//45 46//45 47//45
f 47//46 46//46 48//46
f 47//47 48//47 49//47
f 49//48 48//48 50//48
f 49//49 50//49 11//49
f 11//50 50//50 9//50
f 51//51 52//51 53//51
f 53//52 52//52 54//52
f 53//53 54//53 55//53
f 52//54 51//54 56//54
f 56//55 51//55 57//55
f 56//56 57//56 58//56
f 58//57 57//57 59//57
f 58//58 59//58 60//58
f 60//59 59//59 61//59
f 60//60 61//60 62//60
f 62//61 61//61 63//61
f 62//62 63//62 64//62
f 64//63 63//63 65//63
f 64//64 65//64 66//64
f 66//65 65//65 67//65
f 66//66 67//66 68//66
f 68//67 67//67 69//67
f 68//68 69//68 70//68
f 70//69 69//69 71//69
f 70//70 71//70 72//70
f 72//71 71//71 73//71
f 72//72 73//72 74//72
f 74//73 73//73 75//73
f 74//74 75//74 76//74
f 76//75 75//75 77//75
f 76//76 77//76 78//76
f 78//77 77//77 79//77
f 78//78 79//78 80//78
f 80//79 79//79 81//79
f 80//80 81//80 82//80
f 82//81 81//81 83//81
f 82//82 83//82 84//82
f 84//83 83//83 85//83
f 84//84 85//84 86//84
f 86//85 85//85 87//85
f 86//86 87//86 88//86
f 88//87 87//87 89//87
f 88//88 89//88 90//88
f 90//89 89//89 91//89
f 90//90 91//90 92//90
f 92//91 91//91 93//91
f 92//92 93//92 94//92
f 94//93 93//93 95//93
f 94//94 95//94 55//94
f 55//95 95//95 53//95
f 52//96 96//96 54//96
f 54//97 96//97 97//97
f 54//98 97//98 98//98
f 96//99 52//99 99//99
f 99//100 52//100 56//100
f 99//101 56//101 100//101
f 100//102 56//102 58//102
f 100//103 58//103 101//103
f 101//104 58//104 60//104
f 101//105 60//105 102//105
f 102//106 60//106 62//106
f 102//107 62//107 103//107
f 103//108 62//108 64//108
f 103//109 64//109 104//109
f 104//110 64//110 66//110
f 104//111 66//111 105//111
f 105//112 66//112 68//112
f 105//113 68//113 106//113
f 106//114 68//114 70//114
f 106//115 70//115 107//115
f 107//116 70//116 72//116
f 107//117 72//117 108//117
f 108//118 72//118 74//118
f 108//119 74//119 109//119
f 109//120 74//120 76//120
f 109//120 76//120 110//120
f 110//121 76//121 111//121
f 111//122 76//122 78//122
f 111//123 78//123 112//123
f 112//124 78//124 80//124
f 112//125 80//125 113//125
f 113//126 80//126 82//126
f 113//127 82//127 114//127
f 114//128 82//128 84//128
f 114//129 84//129 115//129
f 115//130 84//130 86//130
f 115//131 86//131 116//131
f 116//132 86//132 88//132
f 116//133 88//133 117//133
f 117//134 88//134 90//134
f 117//135 90//135 118//135
f 118//136 90//136 92//136
f 118//137 92//137 119//137
f 119//138 92//138 94//138
f 119//139 94//139 120//139
f 120//140 94//140 55//140
f 120//141 55//141 98//141
f 98//142 55//142 54//142
f 96//143 121//143 97//143
f 97//144 121//144 122//144
f 97//145 122//145 123//145
f 121//146 96//146 124//146
f 124//147 96//147 99//147
f 124//148 99//148 125//148
f 125//149 99//149 100//149
f 125//150 100//150 126//150
f 126//151 100//151 101//151
f 126//152 101//152 127//152
f 127//153 101//153 102//153
f 127//154 102//154 128//154
f 128//155 102//155 103//155
f 128//156 103//156 129//156
f 129//157 103//157 104//157
f 129//158 104//158 130//158
f 130//159 104//159 105//159
f 130//160 105//160 131//160
f 131//161 105//161 106//161
f 131//162 106//162 132//162
f 132//163 106//163 107//163
f 132//164 107//164 133//164
f 133//165 107//165 108//165
f 133//166 108//166 134//166
f 134//167 108//167 109//167
f 134//168 109//168 135//168
f 135//169 109//169 110//169
f 135//170 110//170 136//170
f 136//171 110//171 111//171
f 136//172 111//172 137//172
f 137//173 111//173 112//173
f 137//174 112//174 138//174
f 138//175 112//175 113//175
f 138//176 113//176 139//176
f 139//177 113//177 114//177
f 139//178 114//178 140//178
f 140//179 114//179 115//179
f 140//180 115//180 141//180
f 141//181 115//181 116//181
f 141//182 116//182 142//182
f 142//183 116//183 117//183
f 142//184 117//184 143//184
f 143//185 117//185 118//185
f 143//186 118//186 144//186
f 144//187 118//187 119//187
f 144//188 119//188 145//188
f 145//189 119//189 120//189
f 145//190 120//190 146//190
f 146//191 120//191 98//191
f 146//192 98//192 123//192
f 123//193 98//193 97//193
f 121//194 147//194 122//194
f 122//195 147//195 148//195
f 122//196 148//196 149//196
f 147//197 121//197 150//197
f 150//198 121//198 124//198
f 150//199 124//199 151//199
f 151//200 124//200 125//200
f 151//201 125//201 152//201
f 152//202 125//202 126//202
f 152//203 126//203 153//203
f 153//204 126//204 127//204
f 153//205 127//205 154//205
f 154//206 127//206 128//206
f 154//207 128//207 155//207
f 155//208 128//208 129//208
f 155//209 129//209 156//209
f 156//210 129//210 130//210
f 156//211 130//211 157//211
f 157//212 130//212 131//212
f 157//213 131//213 158//213
f 158//214 131//214 132//214
f 158//215 132//215 159//215
f 159//216 132//216 133//216
f 159//217 133//217 160//217
f 160//218 133//218 134//218
f 160//219 134//219 161//219
f 161//220 134//220 135//220
f 161//221 135//221 162//221
f 162//222 135//222 136//222
f 162//223 136//223 163//223
f 163//224 136//224 137//224
f 163//225 137//225 164//225
f 164//226 137//226 138//226
f 164//227 138//227 165//227
f 165//228 138//228 139//228
f 165//229 139//229 166//229
f 166//230 139//230 140//230
f 166//231 140//231 167//231
f 167//232 140//232 141//232
f 167//233 141//233 168//233
f 168//234 141//234 142//234
f 168//235 142//235 169//235
f 169//236 142//236 143//236
f 169//237 143//237 170//237
f 170//238 143//238 144//238
f 170//239 144//239 171//239
f 171//240 144//240 145//240
f 171//241 145//241 172//241
f 172//242 145//242 146//242
f 172//243 146//243 173//243
f 173//244 146//244 123//244
f 173//245 123//245 149//245
f 149//246 123//246 122//246
f 147//247 174//247 148//247
f 148//248 174//248 175//248
f 148//249 175//249 176//249
f 174//250 147//250 177//250
f 177//251 147//251 150//251
f 177//252 150//252 178//252
f 178//253 150//253 151//253
f 178//254 151//254 179//254
f 179//255 151//255 152//255
f 179//256 152//256 180//256
f 180//257 152//257 153//257
f 180//258 153//258 181//258
f 181//259 153//259 154//259
f 181//260 154//260 182//260
f 182//261 154//261 155//261
f 182//262 155//262 183//262
f 183//263 155//263 156//263
f 183//264 156//264 184//264
f 184//265 156//265 157//265
f 184//266 157//266 185//266
f 185//267 157//267 158//267
f 185//268 158//268 186//268
f 186//269 158//269 159//269
f 186//270 159//270 187//270
f 187//271 159//271 160//271
f 187//272 160//272 188//272
f 188//273 160//273 161//273
f 188//274 161//274 189//274
f 189//275 161//275 162//275
f 189//276 162//276 190//276
f 190//277 162//277 163//277
f 190//278 163//278 191//278
f 191//279 163//279 164//279
f 191//280 164//280 192//280
f 192//281 164//281 165//281
f 192//282 165//282 193//282
f 193//283 165//283 166//283
f 193//284 166//284 194//284
f 194//285 166//285 167//285
f 194//286 167//286 195//286
f 195//287 167//287 168//287
f 195//288 168//288 196//288
f 196//289 168//289 169//289
f 196//290 169//290 197//290
f 197//291 169//291 170//291
f 197//292 170//292 198//292
f 198//293 170//293 171//293
f 198//294 171//294 199//294
f 199//295 171//295 172//295
f 199//296 172//296 200//296
f 200//297 172//297 173//297
f 200//298 173//298 201//298
f 201//299 173//299 149//299
f 201//300 149//300 176//300
f 176//301 149//301 148//301
f 174//302 202//302 175//302
f 175//302 202//302 203//302
f 175//302 203//302 204//302
f 202//302 174//302 205//302
f 205//302 174//302 177//302
f 205//302 177//302 206//302
f 206//302 177//302 178//302
f 206//302 178//302 207//302
f 207//302 178//302 179//302
f 207//302 179//302 208//302
f 208//302 179//302 180//302
f 208//302 180//302 209//302
f 209//302 180//302 181//302
f 209//302 181//302 210//302
f 210//302 181//302 182//302
f 210//302 182//302 211//302
f 211//302 182//302 183//302
f 211//302 183//302 212//302
f 212//302 183//302 184//302
f 212//302 184//302 213//302
f 213//302 184//302 185//302
f 213//302 185//302 214//302
f 214//302 185//302 186//302
f 214//302 186//302 215//302
f 215//302 186//302 187//302
f 215//302 187//302 216//302
f 216//302 187//302 188//302
f 216//302 188//302 217//302
f 217//302 188//302 189//302
f 217//302 189//302 218//302
f 218//302 189//302 190//302
f 218//302 190//302 219//302
f 219//302 190//302 191//302
f 219//302 191//302 220//302
f 220//302 191//302 192//302
f 220//302 192//302 221//302
f 221//302 192//302 193//302
f 221//302 193//302 222//302
f 222//302 193//302 194//302
f 222//302 194//302 223//302
f 223//302 194//302 195//302
f 223//302 195//302 224//302
f 224//302 195//302 196//302
f 224//302 196//302 225//302
f 225//302 196//302 197//302
f 225//302 197//302 226//302
f 226//302 197//302 198//302
f 226//302 198//302 227//302
f 227//302 198//302 199//302
f 227//302 199//302 228//302
f 228//302 199//302 200//302
f 228//302 200//302 229//302
f 229//302 200//302 201//302
f 229//302 201//302 230//302
f 230//302 201//302 176//302
f 230//302 176//302 204//302
f 204//302 176//302 175//302
f 36//303 252//303 34//303
f 34//303 252//303 251//303
f 34//303 251//303 32//303
f 32//303 251//303 250//303
f 32//303 250//303 30//303
f 30//303 250//303 249//303
f 30//303 249//303 29//303
f 29//303 249//303 248//303
f 29//303 248//303 27//303
f 27//303 248//303 233//303
f 27//303 233//303 25//303
f 25//303 233//303 234//303
f 25//303 234//303 23//303
f 23//303 234//303 235//303
f 23//303 235//303 21//303
f 21//303 235//303 247//303
f 21//303 247//303 246//303
f 252//303 36//303 231//303
f 231//303 36//303 38//303
f 231//303 38//303 232//303
f 232//303 38//303 40//303
f 232//303 40//303 253//303
f 253//303 40//303 41//303
f 253//303 41//303 254//303
f 254//303 41//303 43//303
f 254//303 43//303 242//303
f 242//303 43//303 45//303
f 242//303 45//303 241//303
f 241//303 45//303 47//303
f 241//303 47//303 240//303
f 240//303 47//303 239//303
f 239//303 47//303 49//303
f 239//303 49//303 255//303
f 255//303 49//303 11//303
f 255//303 11//303 256//303
f 256//303 11//303 10//303
f 256//303 10//303 257//303
f 257//303 10//303 8//303
f 257//303 8//303 258//303
f 258//303 8//303 6//303
f 258//303 6//303 259//303
f 259//303 6//303 4//303
f 259//303 4//303 238//303
f 238//303 4//303 2//303
f 238//303 2//303 237//303
f 237//303 2//303 12//303
f 237//303 12//303 236//303
f 236//303 12//303 14//303
f 236//303 14//303 243//303
f 243//303 14//303 16//303
f 243//303 16//303 244//303
f 244//303 16//303 17//303
f 244//303 17//303 245//303
f 245//303 17//303 19//303
f 245//303 19//303 246//303
f 246//303 19//303 21//303
f 1//303 3//303 260//303
f 260//303 3//303 5//303
f 260//303 5//303 261//303
f 261//303 5//303 7//303
f 261//303 7//303 262//303
f 262//303 7//303 9//303
f 262//303 9//303 50//303
f 262//303 50//303 263//303
f 263//303 50//303 48//303
f 263//303 48//303 264//303
f 264//303 48//303 46//303
f 264//303 46//303 265//303
f 265//303 46//303 44//303
f 265//303 44//303 42//303
f 265//303 42//303 266//303
f 266//303 42//303 39//303
f 266//303 39//303 267//303
f 267//303 39//303 37//303
f 267//303 37//303 35//303
f 267//303 35//303 268//303
f 268//303 35//303 33//303
f 268//303 33//303 269//303
f 269//303 33//303 31//303
f 269//303 31//303 28//303
f 269//303 28//303 270//303
f 270//303 28//303 26//303
f 270//303 26//303 271//303
f 271//303 26//303 24//303
f 271//303 24//303 22//303
f 271//303 22//303 272//303
f 272//303 22//303 20//303
f 272//303 20//303 273//303
f 273//303 20//303 18//303
f 273//303 18//303 274//303
f 274//303 18//303 15//303
f 274//303 15//303 13//303
f 274//303 13//303 275//303
f 275//303 13//303 1//303
f 275//303 1//303 260//303
f 261//304 276//304 260//304
f 260//304 276//304 277//304
f 260//305 277//305 275//305
f 275//305 277//305 278//305
f 275//306 278//306 274//306
f 274//306 278//306 279//306
f 274//307 279//307 273//307
f 273//307 279//307 280//307
f 273//308 280//308 272//308
f 272//308 280//308 281//308
f 272//309 281//309 271//309
f 271//309 281//309 282//309
f 271//310 282//310 270//310
f 270//310 282//310 283//310
f 270//311 283//311 269//311
f 269//311 283//311 284//311
f 269//312 284//312 268//312
f 268//312 284//312 285//312
f 268//313 285//313 267//313
f 267//313 285//313 286//313
f 267//314 286//314 266//314
f 266//314 286//314 287//314
f 266//315 287//315 265//315
f 265//315 287//315 288//315
f 265//316 288//316 264//316
f 264//316 288//316 289//316
f 264//317 289//317 263//317
f 263//317 289//317 290//317
f 263//318 290//318 262//318
f 262//318 290//318 291//318
f 262//319 291//319 261//319
f 261//319 291//319 276//319
f 276//302 51//302 277//302
f 277//302 51//302 53//302
f 277//302 53//302 95//302
f 51//302 276//302 57//302
f 57//302 276//302 291//302
f 57//302 291//302 59//302
f 59//302 291//302 290//302
f 59//302 290//302 61//302
f 61//302 290//302 63//302
f 63//302 290//302 289//302
f 63//302 289//302 65//302
f 65//302 289//302 288//302
f 65//302 288//302 67//302
f 67//302 288//302 69//302
f 69//302 288//302 287//302
f 69//302 287//302 71//302
f 71//302 287//302 286//302
f 71//302 286//302 73//302
f 73//302 286//302 285//302
f 73//302 285//302 75//302
f 75//302 285//302 77//302
f 77//302 285//302 284//302
f 77//302 284//302 79//302
f 79//302 284//302 283//302
f 79//302 283//302 81//302
f 81//302 283//302 282//302
f 81//302 282//302 83//302
f 83//302 282//302 85//302
f 85//302 282//302 281//302
f 85//302 281//302 87//302
f 87//302 281//302 280//302
f 87//302 280//302 89//302
f 89//302 280//302 91//302
f 91//302 280//302 279//302
f 91//302 279//302 93//302
f 93//302 279//302 278//302
f 93//302 278//302 95//302
f 95//302 278//302 277//302
