# Blender 4.0.2
# www.blender.org
o fr_wheel__m0
v -0.024958 -0.002943 -0.032995
v -0.024958 -0.010943 -0.032995
v -0.022471 -0.002943 -0.032500
v -0.022471 -0.010943 -0.032500
v -0.019983 -0.002943 -0.032995
v -0.019983 -0.010943 -0.032995
v -0.017874 -0.002943 -0.034404
v -0.017874 -0.010943 -0.034404
v -0.016465 -0.002943 -0.036513
v -0.016465 -0.010943 -0.036513
v -0.015970 -0.002943 -0.039000
v -0.015970 -0.010943 -0.039000
v -0.016465 -0.002943 -0.041487
v -0.016465 -0.010943 -0.041487
v -0.017874 -0.002943 -0.043596
v -0.017874 -0.010943 -0.043596
v -0.019983 -0.002943 -0.045005
v -0.019983 -0.010943 -0.045005
v -0.022471 -0.002943 -0.045500
v -0.022471 -0.010943 -0.045500
v -0.024958 -0.002943 -0.045005
v -0.024958 -0.010943 -0.045005
v -0.027067 -0.002943 -0.043596
v -0.027067 -0.010943 -0.043596
v -0.028476 -0.002943 -0.041487
v -0.028476 -0.010943 -0.041487
v -0.028971 -0.002943 -0.039000
v -0.028971 -0.010943 -0.039000
v -0.028476 -0.002943 -0.036513
v -0.028476 -0.010943 -0.036513
v -0.027067 -0.002943 -0.034404
v -0.027067 -0.010943 -0.034404
v -0.024958 -0.002943 0.045005
v -0.024958 -0.010943 0.045005
v -0.022471 -0.002943 0.045500
v -0.022471 -0.010943 0.045500
v -0.019983 -0.002943 0.045005
v -0.019983 -0.010943 0.045005
v -0.017874 -0.002943 0.043596
v -0.017874 -0.010943 0.043596
v -0.016465 -0.002943 0.041487
v -0.016465 -0.010943 0.041487
v -0.015970 -0.002943 0.039000
v -0.015970 -0.010943 0.039000
v -0.016465 -0.002943 0.036513
v -0.016465 -0.010943 0.036513
v -0.017874 -0.002943 0.034404
v -0.017874 -0.010943 0.034404
v -0.019983 -0.002943 0.032995
v -0.019983 -0.010943 0.032995
v -0.022471 -0.002943 0.032500
v -0.022471 -0.010943 0.032500
v -0.024958 -0.002943 0.032995
v -0.024958 -0.010943 0.032995
v -0.027067 -0.002943 0.034404
v -0.027067 -0.010943 0.034404
v -0.028476 -0.002943 0.036513
v -0.028476 -0.010943 0.036513
v -0.028971 -0.002943 0.039000
v -0.028971 -0.010943 0.039000
v -0.028476 -0.002943 0.041487
v -0.028476 -0.010943 0.041487
v -0.027067 -0.002943 0.043596
v -0.027067 -0.010943 0.043596
v 0.042592 -0.002943 0.006005
v 0.042592 -0.010943 0.006005
v 0.045079 -0.002943 0.006500
v 0.045079 -0.010943 0.006500
v 0.047567 -0.002943 0.006005
v 0.047567 -0.010943 0.006005
v 0.049676 -0.002943 0.004596
v 0.049676 -0.010943 0.004596
v 0.051085 -0.002943 0.002487
v 0.051085 -0.010943 0.002487
v 0.051580 -0.002943 0.000000
v 0.051580 -0.010943 0.000000
v 0.051085 -0.002943 -0.002487
v 0.051085 -0.010943 -0.002487
v 0.049676 -0.002943 -0.004596
v 0.049676 -0.010943 -0.004596
v 0.047567 -0.002943 -0.006005
v 0.047567 -0.010943 -0.006005
v 0.045079 -0.002943 -0.006500
v 0.045079 -0.010943 -0.006500
v 0.042592 -0.002943 -0.006005
v 0.042592 -0.010943 -0.006005
v 0.040483 -0.002943 -0.004596
v 0.040483 -0.010943 -0.004596
v 0.039074 -0.002943 -0.002487
v 0.039074 -0.010943 -0.002487
v 0.038579 -0.002943 0.000000
v 0.038579 -0.010943 0.000000
v 0.039074 -0.002943 0.002487
v 0.039074 -0.010943 0.002487
v 0.040483 -0.002943 0.004596
v 0.040483 -0.010943 0.004596
v -0.024329 0.000057 -0.042542
v -0.024329 0.005057 -0.042542
v -0.022471 0.000057 -0.043000
v -0.022471 0.005057 -0.043000
v -0.020612 0.000057 -0.042542
v -0.020612 0.005057 -0.042542
v -0.019179 0.005057 -0.041272
v -0.025762 0.000057 -0.041272
v -0.025762 0.005057 -0.041272
v -0.026441 0.000057 -0.039482
v -0.026441 0.005057 -0.039482
v -0.026211 0.000057 -0.037582
v -0.026211 0.005057 -0.037582
v -0.025123 0.000057 -0.036006
v -0.025123 0.005057 -0.036006
v -0.023428 0.000057 -0.035116
v -0.023428 0.005057 -0.035116
v -0.021513 0.000057 -0.035116
v -0.021513 0.005057 -0.035116
v -0.019818 0.000057 -0.036006
v -0.019818 0.005057 -0.036006
v -0.018730 0.000057 -0.037582
v -0.018730 0.005057 -0.037582
v -0.018500 0.000057 -0.039482
v -0.018500 0.005057 -0.039482
v -0.019179 0.000057 -0.041272
v -0.022471 0.005057 0.035000
v -0.024329 0.005057 0.035458
v -0.020612 0.005057 0.035458
v -0.019179 0.005057 0.036728
v -0.025762 0.005057 0.036728
v -0.018500 0.005057 0.038518
v -0.026441 0.005057 0.038518
v -0.018730 0.005057 0.040418
v -0.026211 0.005057 0.040418
v -0.019818 0.005057 0.041994
v -0.025123 0.005057 0.041994
v -0.021513 0.005057 0.042884
v -0.023428 0.005057 0.042884
v -0.022471 0.000057 0.035000
v -0.020612 0.000057 0.035458
v -0.024329 0.000057 0.035458
v -0.019179 0.000057 0.036728
v -0.025762 0.000057 0.036728
v -0.018500 0.000057 0.038518
v -0.026441 0.000057 0.038518
v -0.018730 0.000057 0.040418
v -0.026211 0.000057 0.040418
v -0.019818 0.000057 0.041994
v -0.025123 0.000057 0.041994
v -0.021513 0.000057 0.042884
v -0.023428 0.000057 0.042884
v 0.043221 0.000057 -0.003542
v 0.043221 0.005057 -0.003542
v 0.045079 0.000057 -0.004000
v 0.045079 0.005057 -0.004000
v 0.046938 0.000057 -0.003542
v 0.046938 0.005057 -0.003542
v 0.048371 0.005057 -0.002272
v 0.041788 0.000057 -0.002272
v 0.041788 0.005057 -0.002272
v 0.041109 0.000057 -0.000482
v 0.041109 0.005057 -0.000482
v 0.041339 0.000057 0.001418
v 0.041339 0.005057 0.001418
v 0.042427 0.000057 0.002994
v 0.042427 0.005057 0.002994
v 0.044122 0.000057 0.003884
v 0.044122 0.005057 0.003884
v 0.046037 0.000057 0.003884
v 0.046037 0.005057 0.003884
v 0.047732 0.000057 0.002994
v 0.047732 0.005057 0.002994
v 0.048820 0.000057 0.001418
v 0.048820 0.005057 0.001418
v 0.049050 0.000057 -0.000482
v 0.049050 0.005057 -0.000482
v 0.048371 0.000057 -0.002272
v -0.010021 0.000057 0.014950
v -0.010021 -0.005943 0.014950
v -0.010516 0.000057 0.017119
v -0.010516 -0.005943 0.017119
v -0.010021 0.000057 0.019288
v -0.010021 -0.005943 0.019288
v -0.008634 0.000057 0.021028
v -0.008634 -0.005943 0.021028
v -0.006629 0.000057 0.021994
v -0.006629 -0.005943 0.021994
v -0.004404 0.000057 0.021994
v -0.004404 -0.005943 0.021994
v -0.002399 0.000057 0.021028
v -0.002399 -0.005943 0.021028
v -0.001011 0.000057 0.019288
v -0.001011 -0.005943 0.019288
v -0.000516 0.000057 0.017119
v -0.000516 -0.005943 0.017119
v -0.001011 0.000057 0.014950
v -0.001011 -0.005943 0.014950
v -0.002399 0.000057 0.013210
v -0.002399 -0.005943 0.013210
v -0.004404 0.000057 0.012244
v -0.004404 -0.005943 0.012244
v -0.006629 0.000057 0.012244
v -0.006629 -0.005943 0.012244
v -0.008634 0.000057 0.013210
v -0.008634 -0.005943 0.013210
v -0.017283 0.000057 -0.004955
v -0.017283 -0.005943 -0.004955
v -0.019499 0.000057 -0.004755
v -0.019499 -0.005943 -0.004755
v -0.021409 0.000057 -0.003614
v -0.021409 -0.005943 -0.003614
v -0.022635 0.000057 -0.001757
v -0.022635 -0.005943 -0.001757
v -0.022934 0.000057 0.000448
v -0.022934 -0.005943 0.000448
v -0.022246 0.000057 0.002564
v -0.022246 -0.005943 0.002564
v -0.020708 0.000057 0.004173
v -0.020708 -0.005943 0.004173
v -0.018625 0.000057 0.004955
v -0.018625 -0.005943 0.004955
v -0.016409 0.000057 0.004755
v -0.016409 -0.005943 0.004755
v -0.014499 0.000057 0.003614
v -0.014499 -0.005943 0.003614
v -0.013273 0.000057 0.001757
v -0.013273 -0.005943 0.001757
v -0.012974 0.000057 -0.000448
v -0.012974 -0.005943 -0.000448
v -0.013662 0.000057 -0.002564
v -0.013662 -0.005943 -0.002564
v -0.015199 0.000057 -0.004173
v -0.015199 -0.005943 -0.004173
v 0.014072 0.000057 0.005609
v 0.013937 -0.005943 0.005625
v 0.011968 0.000057 0.006334
v 0.011854 -0.005943 0.006407
v 0.010387 0.000057 0.007900
v 0.010316 -0.005943 0.008016
v 0.009642 0.000057 0.009997
v 0.009629 -0.005943 0.010132
v 0.009881 0.000057 0.012210
v 0.009927 -0.005943 0.012337
v 0.011057 0.000057 0.014099
v 0.011153 -0.005943 0.014194
v 0.012935 0.000057 0.015292
v 0.013063 -0.005943 0.015335
v 0.015145 0.000057 0.015551
v 0.015280 -0.005943 0.015535
v 0.017249 0.000057 0.014826
v 0.017363 -0.005943 0.014753
v 0.018830 0.000057 0.013260
v 0.018901 -0.005943 0.013145
v 0.019574 0.000057 0.011163
v 0.019588 -0.005943 0.011028
v 0.019335 0.000057 0.008950
v 0.019290 -0.005943 0.008823
v 0.018160 0.000057 0.007061
v 0.018064 -0.005943 0.006966
v 0.016282 0.000057 0.005868
v 0.016154 -0.005943 0.005825
v -0.000597 0.000057 -0.018012
v -0.000597 -0.005943 -0.018012
v -0.001471 0.000057 -0.020058
v -0.001471 -0.005943 -0.020058
v -0.003147 0.000057 -0.021522
v -0.003147 -0.005943 -0.021522
v -0.005292 0.000057 -0.022114
v -0.005292 -0.005943 -0.022114
v -0.007481 0.000057 -0.021717
v -0.007481 -0.005943 -0.021717
v -0.009282 0.000057 -0.020409
v -0.009282 -0.005943 -0.020409
v -0.010336 0.000057 -0.018449
v -0.010336 -0.005943 -0.018449
v -0.010436 0.000057 -0.016226
v -0.010436 -0.005943 -0.016226
v -0.009561 0.000057 -0.014180
v -0.009561 -0.005943 -0.014180
v -0.007886 0.000057 -0.012716
v -0.007886 -0.005943 -0.012716
v -0.005741 0.000057 -0.012124
v -0.005741 -0.005943 -0.012124
v -0.003551 0.000057 -0.012521
v -0.003551 -0.005943 -0.012521
v -0.001751 0.000057 -0.013829
v -0.001751 -0.005943 -0.013829
v -0.000696 0.000057 -0.015789
v -0.000696 -0.005943 -0.015789
v 0.009715 0.000057 -0.011606
v 0.009689 -0.005943 -0.011473
v 0.009754 0.000057 -0.009381
v 0.009789 -0.005943 -0.009250
v 0.010755 0.000057 -0.007393
v 0.010843 -0.005943 -0.007290
v 0.012520 0.000057 -0.006037
v 0.012643 -0.005943 -0.005982
v 0.014698 0.000057 -0.005581
v 0.014833 -0.005943 -0.005585
v 0.016858 0.000057 -0.006115
v 0.016978 -0.005943 -0.006177
v 0.018573 0.000057 -0.007533
v 0.018654 -0.005943 -0.007641
v 0.019502 0.000057 -0.009555
v 0.019528 -0.005943 -0.009687
v 0.019462 0.000057 -0.011779
v 0.019428 -0.005943 -0.011910
v 0.018461 0.000057 -0.013767
v 0.018374 -0.005943 -0.013870
v 0.016697 0.000057 -0.015123
v 0.016574 -0.005943 -0.015178
v 0.014519 0.000057 -0.015579
v 0.014384 -0.005943 -0.015575
v 0.012359 0.000057 -0.015046
v 0.012239 -0.005943 -0.014983
v 0.010644 0.000057 -0.013627
v 0.010563 -0.005943 -0.013519
v 0.013546 0.054707 0.000000
v 0.013045 0.054707 -0.003642
v 0.013045 0.054707 0.003642
v 0.011581 0.054707 0.007014
v 0.011581 0.054707 -0.007014
v 0.009261 0.054707 0.009866
v 0.009261 0.054707 -0.009866
v 0.006257 0.054707 0.011986
v 0.006257 0.054707 -0.011986
v 0.002793 0.054707 0.013218
v 0.002793 0.054707 -0.013218
v -0.000875 0.054707 0.013469
v -0.000875 0.054707 -0.013469
v -0.004475 0.054707 0.012721
v -0.004475 0.054707 -0.012721
v -0.007739 0.054707 0.011029
v -0.007739 0.054707 -0.011029
v -0.010426 0.054707 0.008520
v -0.010426 0.054707 -0.008520
v -0.012336 0.054707 0.005378
v -0.012336 0.054707 -0.005378
v -0.013328 0.054707 0.001838
v -0.013328 0.054707 -0.001838
v 0.013045 0.005057 0.003642
v 0.048079 0.005057 0.006928
v 0.013546 0.005057 0.000000
v 0.048079 0.005057 -0.006928
v 0.013045 0.005057 -0.003642
v 0.011581 0.005057 -0.007014
v 0.009261 0.005057 -0.009866
v 0.006257 0.005057 -0.011986
v -0.017971 0.005057 -0.045062
v 0.002793 0.005057 -0.013218
v -0.000875 0.005057 -0.013469
v -0.004475 0.005057 -0.012721
v -0.007739 0.005057 -0.011029
v -0.029971 0.005057 -0.038134
v -0.010426 0.005057 -0.008520
v -0.012336 0.005057 -0.005378
v -0.013328 0.005057 -0.001838
v -0.029971 0.005057 0.038134
v -0.013328 0.005057 0.001838
v -0.012336 0.005057 0.005378
v -0.010426 0.005057 0.008520
v -0.007739 0.005057 0.011029
v -0.017971 0.005057 0.045062
v -0.004475 0.005057 0.012721
v -0.000875 0.005057 0.013469
v 0.002793 0.005057 0.013218
v 0.006257 0.005057 0.011986
v 0.009261 0.005057 0.009866
v 0.011581 0.005057 0.007014
v -0.029488 0.005057 0.040870
v -0.028099 0.005057 0.043276
v -0.025971 0.005057 0.045062
v -0.023360 0.005057 0.046012
v -0.020581 0.005057 0.046012
v 0.050208 0.005057 -0.005142
v 0.050208 0.005057 0.005142
v 0.051597 0.005057 -0.002736
v 0.051597 0.005057 0.002736
v 0.052079 0.005057 0.000000
v -0.020581 0.005057 -0.046012
v -0.023360 0.005057 -0.046012
v -0.025971 0.005057 -0.045062
v -0.028099 0.005057 -0.043276
v -0.029488 0.005057 -0.040870
v -0.020581 0.000057 0.046012
v -0.029971 0.000057 0.038134
v -0.017971 0.000057 0.045062
v -0.029971 0.000057 -0.038134
v -0.017971 0.000057 -0.045062
v -0.020581 0.000057 -0.046012
v -0.023360 0.000057 -0.046012
v -0.025971 0.000057 -0.045062
v -0.028099 0.000057 -0.043276
v -0.029488 0.000057 -0.040870
v -0.023360 0.000057 0.046012
v -0.025971 0.000057 0.045062
v -0.028099 0.000057 0.043276
v -0.029488 0.000057 0.040870
v 0.048079 0.000057 0.006928
v 0.048079 0.000057 -0.006928
v 0.050208 0.000057 0.005142
v 0.050208 0.000057 -0.005142
v 0.051597 0.000057 0.002736
v 0.051597 0.000057 -0.002736
v 0.052079 0.000057 0.000000
vn -0.1952 -0.0000 0.9808
vn 0.1951 -0.0000 0.9808
vn 0.5555 -0.0000 0.8315
vn 0.8315 -0.0000 0.5555
vn 0.9808 -0.0000 0.1952
vn 0.9808 -0.0000 -0.1952
vn 0.8315 -0.0000 -0.5555
vn 0.5555 -0.0000 -0.8315
vn 0.1951 -0.0000 -0.9808
vn -0.1952 -0.0000 -0.9808
vn -0.5555 -0.0000 -0.8315
vn -0.8315 -0.0000 -0.5555
vn -0.9808 -0.0000 -0.1952
vn -0.9808 -0.0000 0.1952
vn -0.8315 -0.0000 0.5555
vn -0.5555 -0.0000 0.8315
vn -0.0000 -1.0000 -0.0000
vn -0.0000 1.0000 -0.0000
vn -0.2393 -0.0000 -0.9709
vn 0.2392 -0.0000 -0.9710
vn 0.6633 -0.0000 -0.7484
vn -0.6633 -0.0000 -0.7484
vn -0.9350 -0.0000 -0.3547
vn -0.9928 -0.0000 0.1202
vn -0.8229 -0.0000 0.5681
vn -0.4649 -0.0000 0.8854
vn -0.0000 -0.0000 1.0000
vn 0.4649 -0.0000 0.8854
vn 0.8229 -0.0000 0.5681
vn 0.9928 -0.0000 0.1202
vn 0.9350 -0.0000 -0.3547
vn -0.9749 -0.0000 -0.2225
vn -0.9749 -0.0000 0.2225
vn -0.7820 -0.0000 0.6233
vn -0.4340 -0.0000 0.9009
vn 0.4340 -0.0000 0.9009
vn 0.7817 -0.0000 0.6236
vn 0.9749 -0.0000 0.2225
vn 0.9749 -0.0000 -0.2225
vn 0.7817 -0.0000 -0.6236
vn 0.4340 -0.0000 -0.9009
vn -0.0000 -0.0000 -1.0000
vn -0.4340 -0.0000 -0.9009
vn -0.7820 -0.0000 -0.6233
vn -0.0899 -0.0000 -0.9960
vn -0.5128 -0.0000 -0.8585
vn -0.8345 -0.0000 -0.5510
vn -0.9909 -0.0000 -0.1344
vn -0.9510 -0.0000 0.3092
vn -0.7229 -0.0000 0.6910
vn -0.3515 -0.0000 0.9362
vn 0.0899 -0.0000 0.9960
vn 0.5128 -0.0000 0.8585
vn 0.8345 -0.0000 0.5510
vn 0.9909 -0.0000 0.1344
vn 0.9510 -0.0000 -0.3092
vn 0.7231 -0.0000 -0.6907
vn 0.3513 -0.0000 -0.9363
vn -0.3258 0.0048 -0.9454
vn -0.3515 -0.0047 -0.9362
vn -0.7037 0.0047 -0.7105
vn -0.7229 -0.0048 -0.6910
vn -0.9423 0.0047 -0.3348
vn -0.9511 -0.0049 -0.3088
vn -0.9942 0.0046 0.1074
vn -0.9910 -0.0048 0.1339
vn -0.8489 0.0047 0.5285
vn -0.8345 -0.0046 0.5510
vn -0.5362 0.0048 0.8441
vn -0.5128 -0.0048 0.8585
vn -0.1164 0.0046 0.9932
vn -0.0898 -0.0047 0.9959
vn 0.3258 0.0048 0.9454
vn 0.3515 -0.0047 0.9362
vn 0.7037 0.0047 0.7105
vn 0.7227 -0.0047 0.6912
vn 0.9424 0.0047 0.3344
vn 0.9512 -0.0047 0.3087
vn 0.9942 0.0047 -0.1074
vn 0.9910 -0.0046 -0.1339
vn 0.8491 0.0048 -0.5282
vn 0.8345 -0.0046 -0.5510
vn 0.5362 0.0048 -0.8441
vn 0.5128 -0.0048 -0.8585
vn 0.1164 0.0046 -0.9932
vn 0.0898 -0.0047 -0.9959
vn 0.9196 -0.0000 -0.3928
vn 0.6579 -0.0000 -0.7531
vn 0.2660 -0.0000 -0.9640
vn -0.1785 -0.0000 -0.9839
vn -0.1784 -0.0000 -0.9839
vn -0.5876 -0.0000 -0.8091
vn -0.8807 -0.0000 -0.4736
vn -0.9990 -0.0000 -0.0449
vn -0.9194 -0.0000 0.3932
vn -0.6581 -0.0000 0.7529
vn -0.2660 -0.0000 0.9640
vn 0.1784 -0.0000 0.9840
vn 0.5879 -0.0000 0.8090
vn 0.8805 -0.0000 0.4740
vn 0.9990 -0.0000 0.0445
vn -0.9998 0.0047 0.0175
vn -0.9990 -0.0048 0.0449
vn -0.8932 0.0046 0.4497
vn -0.8807 -0.0048 0.4736
vn -0.6092 0.0047 0.7930
vn -0.5878 -0.0046 0.8090
vn -0.2049 0.0048 0.9788
vn -0.1784 -0.0047 0.9840
vn 0.2400 0.0048 0.9708
vn 0.2660 -0.0046 0.9640
vn 0.6372 0.0048 0.7707
vn 0.6579 -0.0047 0.7531
vn 0.9087 0.0048 0.4175
vn 0.9196 -0.0047 0.3928
vn 0.9998 0.0047 -0.0180
vn 0.9990 -0.0047 -0.0449
vn 0.8932 0.0048 -0.4497
vn 0.8807 -0.0046 -0.4736
vn 0.6094 0.0048 -0.7928
vn 0.5878 -0.0046 -0.8090
vn 0.2049 0.0048 -0.9788
vn 0.1784 -0.0047 -0.9840
vn -0.2396 0.0047 -0.9709
vn -0.2660 -0.0048 -0.9639
vn -0.6375 0.0047 -0.7705
vn -0.6579 -0.0047 -0.7531
vn -0.9086 0.0047 -0.4177
vn -0.9196 -0.0047 -0.3928
vn 0.3420 -0.0000 0.9397
vn -0.3419 -0.0000 0.9397
vn -0.6429 -0.0000 0.7660
vn -0.8660 -0.0000 0.5000
vn -0.9848 -0.0000 0.1738
vn -1.0000 -0.0000 -0.0000
vn -0.9848 -0.0000 -0.1738
vn -0.8660 -0.0000 -0.5000
vn -0.6429 -0.0000 -0.7660
vn -0.3419 -0.0000 -0.9397
vn 0.3420 -0.0000 -0.9397
vn 0.5000 -0.0000 -0.8660
vn 0.6427 -0.0000 -0.7661
vn 0.8660 -0.0000 -0.5000
vn 0.9848 -0.0000 -0.1735
vn 0.9848 -0.0000 0.1735
vn 0.8660 -0.0000 0.5000
vn 0.6427 -0.0000 0.7661
vn 0.5000 -0.0000 0.8660
vn 0.9907 -0.0000 -0.1363
vn 0.9907 -0.0000 0.1363
vn 0.9173 -0.0000 0.3982
vn 0.7757 -0.0000 0.6310
vn 0.5766 -0.0000 0.8170
vn 0.3351 -0.0000 0.9422
vn 0.0683 -0.0000 0.9977
vn -0.2034 -0.0000 0.9791
vn -0.4602 -0.0000 0.8878
vn -0.6825 -0.0000 0.7309
vn -0.8545 -0.0000 0.5194
vn -0.9629 -0.0000 0.2698
vn -0.9629 -0.0000 -0.2698
vn -0.8545 -0.0000 -0.5194
vn -0.6825 -0.0000 -0.7309
vn -0.4602 -0.0000 -0.8878
vn -0.2034 -0.0000 -0.9791
vn 0.0683 -0.0000 -0.9977
vn 0.3351 -0.0000 -0.9422
vn 0.5766 -0.0000 -0.8170
vn 0.7757 -0.0000 -0.6310
vn 0.9173 -0.0000 -0.3982
s 0
f 1//1 2//1 3//1
f 3//1 2//1 4//1
f 3//2 4//2 5//2
f 5//2 4//2 6//2
f 5//3 6//3 7//3
f 7//3 6//3 8//3
f 7//4 8//4 9//4
f 9//4 8//4 10//4
f 9//5 10//5 11//5
f 11//5 10//5 12//5
f 11//6 12//6 13//6
f 13//6 12//6 14//6
f 13//7 14//7 15//7
f 15//7 14//7 16//7
f 15//8 16//8 17//8
f 17//8 16//8 18//8
f 17//9 18//9 19//9
f 19//9 18//9 20//9
f 19//10 20//10 21//10
f 21//10 20//10 22//10
f 21//11 22//11 23//11
f 23//11 22//11 24//11
f 23//12 24//12 25//12
f 25//12 24//12 26//12
f 25//13 26//13 27//13
f 27//13 26//13 28//13
f 27//14 28//14 29//14
f 29//14 28//14 30//14
f 29//15 30//15 31//15
f 31//15 30//15 32//15
f 31//16 32//16 1//16
f 1//16 32//16 2//16
f 18//17 6//17 20//17
f 20//17 6//17 4//17
f 20//17 4//17 22//17
f 22//17 4//17 2//17
f 22//17 2//17 24//17
f 24//17 2//17 32//17
f 24//17 32//17 26//17
f 26//17 32//17 30//17
f 26//17 30//17 28//17
f 6//17 18//17 8//17
f 8//17 18//17 16//17
f 8//17 16//17 10//17
f 10//17 16//17 14//17
f 10//17 14//17 12//17
f 5//18 17//18 3//18
f 3//18 17//18 19//18
f 3//18 19//18 1//18
f 1//18 19//18 21//18
f 1//18 21//18 31//18
f 31//18 21//18 23//18
f 31//18 23//18 29//18
f 29//18 23//18 25//18
f 29//18 25//18 27//18
f 17//18 5//18 15//18
f 15//18 5//18 7//18
f 15//18 7//18 13//18
f 13//18 7//18 9//18
f 13//18 9//18 11//18
f 33//1 34//1 35//1
f 35//1 34//1 36//1
f 35//2 36//2 37//2
f 37//2 36//2 38//2
f 37//3 38//3 39//3
f 39//3 38//3 40//3
f 39//4 40//4 41//4
f 41//4 40//4 42//4
f 41//5 42//5 43//5
f 43//5 42//5 44//5
f 43//6 44//6 45//6
f 45//6 44//6 46//6
f 45//7 46//7 47//7
f 47//7 46//7 48//7
f 47//8 48//8 49//8
f 49//8 48//8 50//8
f 49//9 50//9 51//9
f 51//9 50//9 52//9
f 51//10 52//10 53//10
f 53//10 52//10 54//10
f 53//11 54//11 55//11
f 55//11 54//11 56//11
f 55//12 56//12 57//12
f 57//12 56//12 58//12
f 57//13 58//13 59//13
f 59//13 58//13 60//13
f 59//14 60//14 61//14
f 61//14 60//14 62//14
f 61//15 62//15 63//15
f 63//15 62//15 64//15
f 63//16 64//16 33//16
f 33//16 64//16 34//16
f 37//18 49//18 35//18
f 35//18 49//18 51//18
f 35//18 51//18 33//18
f 33//18 51//18 53//18
f 33//18 53//18 63//18
f 63//18 53//18 55//18
f 63//18 55//18 61//18
f 61//18 55//18 57//18
f 61//18 57//18 59//18
f 49//18 37//18 47//18
f 47//18 37//18 39//18
f 47//18 39//18 45//18
f 45//18 39//18 41//18
f 45//18 41//18 43//18
f 50//17 38//17 52//17
f 52//17 38//17 36//17
f 52//17 36//17 54//17
f 54//17 36//17 34//17
f 54//17 34//17 56//17
f 56//17 34//17 64//17
f 56//17 64//17 58//17
f 58//17 64//17 62//17
f 58//17 62//17 60//17
f 38//17 50//17 40//17
f 40//17 50//17 48//17
f 40//17 48//17 42//17
f 42//17 48//17 46//17
f 42//17 46//17 44//17
f 65//1 66//1 67//1
f 67//1 66//1 68//1
f 67//2 68//2 69//2
f 69//2 68//2 70//2
f 69//3 70//3 71//3
f 71//3 70//3 72//3
f 71//4 72//4 73//4
f 73//4 72//4 74//4
f 73//5 74//5 75//5
f 75//5 74//5 76//5
f 75//6 76//6 77//6
f 77//6 76//6 78//6
f 77//7 78//7 79//7
f 79//7 78//7 80//7
f 79//8 80//8 81//8
f 81//8 80//8 82//8
f 81//9 82//9 83//9
f 83//9 82//9 84//9
f 83//10 84//10 85//10
f 85//10 84//10 86//10
f 85//11 86//11 87//11
f 87//11 86//11 88//11
f 87//12 88//12 89//12
f 89//12 88//12 90//12
f 89//13 90//13 91//13
f 91//13 90//13 92//13
f 91//14 92//14 93//14
f 93//14 92//14 94//14
f 93//15 94//15 95//15
f 95//15 94//15 96//15
f 95//16 96//16 65//16
f 65//16 96//16 66//16
f 82//17 70//17 84//17
f 84//17 70//17 68//17
f 84//17 68//17 86//17
f 86//17 68//17 66//17
f 86//17 66//17 88//17
f 88//17 66//17 96//17
f 88//17 96//17 90//17
f 90//17 96//17 94//17
f 90//17 94//17 92//17
f 70//17 82//17 72//17
f 72//17 82//17 80//17
f 72//17 80//17 74//17
f 74//17 80//17 78//17
f 74//17 78//17 76//17
f 69//18 81//18 67//18
f 67//18 81//18 83//18
f 67//18 83//18 65//18
f 65//18 83//18 85//18
f 65//18 85//18 95//18
f 95//18 85//18 87//18
f 95//18 87//18 93//18
f 93//18 87//18 89//18
f 93//18 89//18 91//18
f 81//18 69//18 79//18
f 79//18 69//18 71//18
f 79//18 71//18 77//18
f 77//18 71//18 73//18
f 77//18 73//18 75//18
f 97//19 98//19 99//19
f 99//19 98//19 100//19
f 99//20 100//20 101//20
f 101//20 100//20 102//20
f 101//21 102//21 103//21
f 97//22 104//22 98//22
f 98//22 104//22 105//22
f 105//23 104//23 106//23
f 105//23 106//23 107//23
f 107//24 106//24 108//24
f 107//24 108//24 109//24
f 109//25 108//25 110//25
f 109//25 110//25 111//25
f 111//26 110//26 112//26
f 111//26 112//26 113//26
f 113//27 112//27 114//27
f 113//27 114//27 115//27
f 115//28 114//28 116//28
f 115//28 116//28 117//28
f 117//29 116//29 118//29
f 117//29 118//29 119//29
f 119//30 118//30 120//30
f 119//30 120//30 121//30
f 121//31 120//31 122//31
f 121//31 122//31 103//31
f 103//21 122//21 101//21
f 99//17 101//17 97//17
f 97//17 101//17 122//17
f 97//17 122//17 104//17
f 104//17 122//17 120//17
f 104//17 120//17 106//17
f 106//17 120//17 118//17
f 106//17 118//17 108//17
f 108//17 118//17 116//17
f 108//17 116//17 110//17
f 110//17 116//17 114//17
f 110//17 114//17 112//17
f 100//18 98//18 102//18
f 102//18 98//18 103//18
f 103//18 98//18 105//18
f 103//18 105//18 121//18
f 121//18 105//18 107//18
f 121//18 107//18 119//18
f 119//18 107//18 109//18
f 119//18 109//18 117//18
f 117//18 109//18 111//18
f 117//18 111//18 115//18
f 115//18 111//18 113//18
f 123//18 124//18 125//18
f 125//18 124//18 126//18
f 126//18 124//18 127//18
f 126//18 127//18 128//18
f 128//18 127//18 129//18
f 128//18 129//18 130//18
f 130//18 129//18 131//18
f 130//18 131//18 132//18
f 132//18 131//18 133//18
f 132//18 133//18 134//18
f 134//18 133//18 135//18
f 136//17 137//17 138//17
f 138//17 137//17 139//17
f 138//17 139//17 140//17
f 140//17 139//17 141//17
f 140//17 141//17 142//17
f 142//17 141//17 143//17
f 142//17 143//17 144//17
f 144//17 143//17 145//17
f 144//17 145//17 146//17
f 146//17 145//17 147//17
f 146//17 147//17 148//17
f 138//19 124//19 136//19
f 136//19 124//19 123//19
f 136//20 123//20 137//20
f 137//20 123//20 125//20
f 137//21 125//21 126//21
f 138//22 140//22 124//22
f 124//22 140//22 127//22
f 127//23 140//23 142//23
f 127//23 142//23 129//23
f 129//24 142//24 144//24
f 129//24 144//24 131//24
f 131//25 144//25 146//25
f 131//25 146//25 133//25
f 133//26 146//26 148//26
f 133//26 148//26 135//26
f 135//27 148//27 147//27
f 135//27 147//27 134//27
f 134//28 147//28 145//28
f 134//28 145//28 132//28
f 132//29 145//29 143//29
f 132//29 143//29 130//29
f 130//30 143//30 141//30
f 130//30 141//30 128//30
f 128//31 141//31 139//31
f 128//31 139//31 126//31
f 126//21 139//21 137//21
f 149//19 150//19 151//19
f 151//19 150//19 152//19
f 151//20 152//20 153//20
f 153//20 152//20 154//20
f 153//21 154//21 155//21
f 149//22 156//22 150//22
f 150//22 156//22 157//22
f 157//23 156//23 158//23
f 157//23 158//23 159//23
f 159//24 158//24 160//24
f 159//24 160//24 161//24
f 161//25 160//25 162//25
f 161//25 162//25 163//25
f 163//26 162//26 164//26
f 163//26 164//26 165//26
f 165//27 164//27 166//27
f 165//27 166//27 167//27
f 167//28 166//28 168//28
f 167//28 168//28 169//28
f 169//29 168//29 170//29
f 169//29 170//29 171//29
f 171//30 170//30 172//30
f 171//30 172//30 173//30
f 173//31 172//31 174//31
f 173//31 174//31 155//31
f 155//21 174//21 153//21
f 151//17 153//17 149//17
f 149//17 153//17 174//17
f 149//17 174//17 156//17
f 156//17 174//17 172//17
f 156//17 172//17 158//17
f 158//17 172//17 170//17
f 158//17 170//17 160//17
f 160//17 170//17 168//17
f 160//17 168//17 162//17
f 162//17 168//17 166//17
f 162//17 166//17 164//17
f 152//18 150//18 154//18
f 154//18 150//18 155//18
f 155//18 150//18 157//18
f 155//18 157//18 173//18
f 173//18 157//18 159//18
f 173//18 159//18 171//18
f 171//18 159//18 161//18
f 171//18 161//18 169//18
f 169//18 161//18 163//18
f 169//18 163//18 167//18
f 167//18 163//18 165//18
f 175//32 176//32 177//32
f 177//32 176//32 178//32
f 177//33 178//33 179//33
f 179//33 178//33 180//33
f 179//34 180//34 181//34
f 181//34 180//34 182//34
f 181//35 182//35 183//35
f 183//35 182//35 184//35
f 183//27 184//27 185//27
f 185//27 184//27 186//27
f 185//36 186//36 187//36
f 187//36 186//36 188//36
f 187//37 188//37 189//37
f 189//37 188//37 190//37
f 189//38 190//38 191//38
f 191//38 190//38 192//38
f 191//39 192//39 193//39
f 193//39 192//39 194//39
f 193//40 194//40 195//40
f 195//40 194//40 196//40
f 195//41 196//41 197//41
f 197//41 196//41 198//41
f 197//42 198//42 199//42
f 199//42 198//42 200//42
f 199//43 200//43 201//43
f 201//43 200//43 202//43
f 201//44 202//44 175//44
f 175//44 202//44 176//44
f 179//18 191//18 177//18
f 177//18 191//18 193//18
f 177//18 193//18 175//18
f 175//18 193//18 195//18
f 175//18 195//18 201//18
f 201//18 195//18 197//18
f 201//18 197//18 199//18
f 191//18 179//18 189//18
f 189//18 179//18 181//18
f 189//18 181//18 187//18
f 187//18 181//18 183//18
f 187//18 183//18 185//18
f 190//17 180//17 192//17
f 192//17 180//17 178//17
f 192//17 178//17 194//17
f 194//17 178//17 176//17
f 194//17 176//17 196//17
f 196//17 176//17 202//17
f 196//17 202//17 198//17
f 198//17 202//17 200//17
f 180//17 190//17 182//17
f 182//17 190//17 188//17
f 182//17 188//17 184//17
f 184//17 188//17 186//17
f 203//45 204//45 205//45
f 205//45 204//45 206//45
f 205//46 206//46 207//46
f 207//46 206//46 208//46
f 207//47 208//47 209//47
f 209//47 208//47 210//47
f 209//48 210//48 211//48
f 211//48 210//48 212//48
f 211//49 212//49 213//49
f 213//49 212//49 214//49
f 213//50 214//50 215//50
f 215//50 214//50 216//50
f 215//51 216//51 217//51
f 217//51 216//51 218//51
f 217//52 218//52 219//52
f 219//52 218//52 220//52
f 219//53 220//53 221//53
f 221//53 220//53 222//53
f 221//54 222//54 223//54
f 223//54 222//54 224//54
f 223//55 224//55 225//55
f 225//55 224//55 226//55
f 225//56 226//56 227//56
f 227//56 226//56 228//56
f 227//57 228//57 229//57
f 229//57 228//57 230//57
f 229//58 230//58 203//58
f 203//58 230//58 204//58
f 218//17 208//17 220//17
f 220//17 208//17 206//17
f 220//17 206//17 222//17
f 222//17 206//17 204//17
f 222//17 204//17 224//17
f 224//17 204//17 230//17
f 224//17 230//17 226//17
f 226//17 230//17 228//17
f 208//17 218//17 210//17
f 210//17 218//17 216//17
f 210//17 216//17 212//17
f 212//17 216//17 214//17
f 203//18 205//18 229//18
f 229//18 205//18 207//18
f 229//18 207//18 227//18
f 227//18 207//18 209//18
f 227//18 209//18 225//18
f 225//18 209//18 211//18
f 225//18 211//18 223//18
f 223//18 211//18 213//18
f 223//18 213//18 221//18
f 221//18 213//18 215//18
f 221//18 215//18 219//18
f 219//18 215//18 217//18
f 231//59 232//59 233//59
f 233//60 232//60 234//60
f 233//61 234//61 235//61
f 235//62 234//62 236//62
f 235//63 236//63 237//63
f 237//64 236//64 238//64
f 237//65 238//65 239//65
f 239//66 238//66 240//66
f 239//67 240//67 241//67
f 241//68 240//68 242//68
f 241//69 242//69 243//69
f 243//70 242//70 244//70
f 243//71 244//71 245//71
f 245//72 244//72 246//72
f 245//73 246//73 247//73
f 247//74 246//74 248//74
f 247//75 248//75 249//75
f 249//76 248//76 250//76
f 249//77 250//77 251//77
f 251//78 250//78 252//78
f 251//79 252//79 253//79
f 253//80 252//80 254//80
f 253//81 254//81 255//81
f 255//82 254//82 256//82
f 255//83 256//83 257//83
f 257//84 256//84 258//84
f 257//85 258//85 231//85
f 231//86 258//86 232//86
f 235//18 241//18 233//18
f 233//18 241//18 243//18
f 233//18 243//18 231//18
f 231//18 243//18 245//18
f 231//18 245//18 257//18
f 257//18 245//18 247//18
f 257//18 247//18 255//18
f 255//18 247//18 249//18
f 255//18 249//18 253//18
f 253//18 249//18 251//18
f 237//18 239//18 235//18
f 235//18 239//18 241//18
f 256//17 246//17 258//17
f 258//17 246//17 244//17
f 258//17 244//17 232//17
f 232//17 244//17 242//17
f 232//17 242//17 234//17
f 234//17 242//17 240//17
f 234//17 240//17 236//17
f 236//17 240//17 238//17
f 246//17 256//17 248//17
f 248//17 256//17 254//17
f 248//17 254//17 250//17
f 250//17 254//17 252//17
f 259//87 260//87 261//87
f 261//87 260//87 262//87
f 261//88 262//88 263//88
f 263//88 262//88 264//88
f 263//89 264//89 265//89
f 265//89 264//89 266//89
f 265//90 266//90 267//90
f 267//91 266//91 268//91
f 267//92 268//92 269//92
f 269//92 268//92 270//92
f 269//93 270//93 271//93
f 271//93 270//93 272//93
f 271//94 272//94 273//94
f 273//94 272//94 274//94
f 273//95 274//95 275//95
f 275//95 274//95 276//95
f 275//96 276//96 277//96
f 277//96 276//96 278//96
f 277//97 278//97 279//97
f 279//97 278//97 280//97
f 279//98 280//98 281//98
f 281//98 280//98 282//98
f 281//99 282//99 283//99
f 283//99 282//99 284//99
f 283//100 284//100 285//100
f 285//100 284//100 286//100
f 285//101 286//101 259//101
f 259//101 286//101 260//101
f 274//17 264//17 276//17
f 276//17 264//17 262//17
f 276//17 262//17 278//17
f 278//17 262//17 260//17
f 278//17 260//17 280//17
f 280//17 260//17 286//17
f 280//17 286//17 282//17
f 282//17 286//17 284//17
f 264//17 274//17 266//17
f 266//17 274//17 272//17
f 266//17 272//17 268//17
f 268//17 272//17 270//17
f 263//18 283//18 261//18
f 261//18 283//18 285//18
f 261//18 285//18 259//18
f 283//18 263//18 281//18
f 281//18 263//18 265//18
f 281//18 265//18 279//18
f 279//18 265//18 267//18
f 279//18 267//18 277//18
f 277//18 267//18 269//18
f 277//18 269//18 275//18
f 275//18 269//18 271//18
f 275//18 271//18 273//18
f 287//102 288//102 289//102
f 289//103 288//103 290//103
f 289//104 290//104 291//104
f 291//105 290//105 292//105
f 291//106 292//106 293//106
f 293//107 292//107 294//107
f 293//108 294//108 295//108
f 295//109 294//109 296//109
f 295//110 296//110 297//110
f 297//111 296//111 298//111
f 297//112 298//112 299//112
f 299//113 298//113 300//113
f 299//114 300//114 301//114
f 301//115 300//115 302//115
f 301//116 302//116 303//116
f 303//117 302//117 304//117
f 303//118 304//118 305//118
f 305//119 304//119 306//119
f 305//120 306//120 307//120
f 307//121 306//121 308//121
f 307//122 308//122 309//122
f 309//123 308//123 310//123
f 309//124 310//124 311//124
f 311//125 310//125 312//125
f 311//126 312//126 313//126
f 313//127 312//127 314//127
f 313//128 314//128 287//128
f 287//129 314//129 288//129
f 287//18 289//18 313//18
f 313//18 289//18 291//18
f 313//18 291//18 311//18
f 311//18 291//18 293//18
f 311//18 293//18 309//18
f 309//18 293//18 295//18
f 309//18 295//18 307//18
f 307//18 295//18 297//18
f 307//18 297//18 305//18
f 305//18 297//18 299//18
f 305//18 299//18 303//18
f 303//18 299//18 301//18
f 312//17 302//17 314//17
f 314//17 302//17 300//17
f 314//17 300//17 288//17
f 288//17 300//17 298//17
f 288//17 298//17 290//17
f 290//17 298//17 296//17
f 290//17 296//17 292//17
f 292//17 296//17 294//17
f 302//17 312//17 304//17
f 304//17 312//17 310//17
f 304//17 310//17 306//17
f 306//17 310//17 308//17
f 315//18 316//18 317//18
f 317//18 316//18 318//18
f 318//18 316//18 319//18
f 318//18 319//18 320//18
f 320//18 319//18 321//18
f 320//18 321//18 322//18
f 322//18 321//18 323//18
f 322//18 323//18 324//18
f 324//18 323//18 325//18
f 324//18 325//18 326//18
f 326//18 325//18 327//18
f 326//18 327//18 328//18
f 328//18 327//18 329//18
f 328//18 329//18 330//18
f 330//18 329//18 331//18
f 330//18 331//18 332//18
f 332//18 331//18 333//18
f 332//18 333//18 334//18
f 334//18 333//18 335//18
f 334//18 335//18 336//18
f 336//18 335//18 337//18
f 338//18 339//18 340//18
f 340//18 339//18 341//18
f 340//18 341//18 342//18
f 342//18 341//18 343//18
f 343//18 341//18 344//18
f 344//18 341//18 345//18
f 345//18 341//18 346//18
f 345//18 346//18 347//18
f 347//18 346//18 348//18
f 348//18 346//18 349//18
f 349//18 346//18 350//18
f 350//18 346//18 351//18
f 350//18 351//18 352//18
f 352//18 351//18 353//18
f 353//18 351//18 354//18
f 354//18 351//18 355//18
f 354//18 355//18 356//18
f 356//18 355//18 357//18
f 357//18 355//18 358//18
f 358//18 355//18 359//18
f 359//18 355//18 360//18
f 359//18 360//18 361//18
f 361//18 360//18 362//18
f 362//18 360//18 363//18
f 363//18 360//18 364//18
f 364//18 360//18 339//18
f 364//18 339//18 365//18
f 365//18 339//18 366//18
f 366//18 339//18 338//18
f 367//18 368//18 355//18
f 355//18 368//18 369//18
f 355//18 369//18 370//18
f 370//18 371//18 355//18
f 355//18 371//18 360//18
f 341//18 339//18 372//18
f 372//18 339//18 373//18
f 372//18 373//18 374//18
f 374//18 373//18 375//18
f 374//18 375//18 376//18
f 346//18 377//18 351//18
f 351//18 377//18 378//18
f 351//18 378//18 379//18
f 379//18 380//18 351//18
f 351//18 380//18 381//18
f 382//17 383//17 384//17
f 384//17 383//17 385//17
f 384//17 385//17 386//17
f 386//17 385//17 387//17
f 387//17 385//17 388//17
f 388//17 385//17 389//17
f 389//17 385//17 390//17
f 390//17 385//17 391//17
f 382//17 392//17 383//17
f 383//17 392//17 393//17
f 383//17 393//17 394//17
f 394//17 395//17 383//17
f 384//17 386//17 396//17
f 396//17 386//17 397//17
f 396//17 397//17 398//17
f 398//17 397//17 399//17
f 398//17 399//17 400//17
f 400//17 399//17 401//17
f 400//17 401//17 402//17
f 384//130 360//130 382//130
f 382//130 360//130 371//130
f 382//27 371//27 392//27
f 392//27 371//27 370//27
f 392//131 370//131 393//131
f 393//131 370//131 369//131
f 393//132 369//132 394//132
f 394//132 369//132 368//132
f 394//133 368//133 395//133
f 395//133 368//133 367//133
f 395//134 367//134 383//134
f 383//134 367//134 355//134
f 355//135 351//135 383//135
f 383//135 351//135 385//135
f 385//136 351//136 391//136
f 391//136 351//136 381//136
f 391//137 381//137 390//137
f 390//137 381//137 380//137
f 390//138 380//138 389//138
f 389//138 380//138 379//138
f 389//139 379//139 388//139
f 388//139 379//139 378//139
f 388//42 378//42 387//42
f 387//42 378//42 377//42
f 387//140 377//140 386//140
f 386//140 377//140 346//140
f 346//141 341//141 386//141
f 386//141 341//141 397//141
f 397//142 341//142 399//142
f 399//142 341//142 372//142
f 399//143 372//143 401//143
f 401//143 372//143 374//143
f 401//144 374//144 402//144
f 402//144 374//144 376//144
f 402//145 376//145 400//145
f 400//145 376//145 375//145
f 400//146 375//146 398//146
f 398//146 375//146 373//146
f 398//147 373//147 396//147
f 396//147 373//147 339//147
f 339//148 360//148 396//148
f 396//148 360//148 384//148
f 342//149 316//149 340//149
f 340//149 316//149 315//149
f 340//150 315//150 338//150
f 338//150 315//150 317//150
f 338//151 317//151 366//151
f 366//151 317//151 318//151
f 366//152 318//152 365//152
f 365//152 318//152 320//152
f 365//153 320//153 364//153
f 364//153 320//153 322//153
f 364//154 322//154 363//154
f 363//154 322//154 324//154
f 363//155 324//155 362//155
f 362//155 324//155 326//155
f 362//156 326//156 361//156
f 361//156 326//156 328//156
f 361//157 328//157 359//157
f 359//157 328//157 330//157
f 359//158 330//158 358//158
f 358//158 330//158 332//158
f 358//159 332//159 357//159
f 357//159 332//159 334//159
f 357//160 334//160 356//160
f 356//160 334//160 336//160
f 356//135 336//135 354//135
f 354//135 336//135 337//135
f 354//161 337//161 353//161
f 353//161 337//161 335//161
f 353//162 335//162 352//162
f 352//162 335//162 333//162
f 352//163 333//163 350//163
f 350//163 333//163 331//163
f 350//164 331//164 349//164
f 349//164 331//164 329//164
f 349//165 329//165 348//165
f 348//165 329//165 327//165
f 348//166 327//166 347//166
f 347//166 327//166 325//166
f 347//167 325//167 345//167
f 345//167 325//167 323//167
f 345//168 323//168 344//168
f 344//168 323//168 321//168
f 344//169 321//169 343//169
f 343//169 321//169 319//169
f 343//170 319//170 342//170
f 342//170 319//170 316//170
