# Blender 4.0.2
# www.blender.org
o MPO-500-BODY__m5
v -256.000000 -265.875702 -5.500011
v -256.000000 -264.000000 1.499988
v -256.000000 -265.875702 8.499989
v -256.000000 -292.000000 1.499987
v -256.000000 -290.124390 -5.500013
v -256.000000 -285.000000 -10.624372
v -256.000000 -278.000000 -12.500012
v -256.000000 -271.000000 -10.624372
v -256.000000 -271.000000 13.624349
v -256.000000 -278.000000 15.499988
v -256.000000 -285.000000 13.624348
v -256.000000 -290.124390 8.499988
v -267.500000 -288.000000 1.499987
v -267.500000 -286.090210 -4.377864
v -267.500000 -281.090210 -8.010577
v -267.500000 -274.909790 -8.010577
v -267.500000 -269.909790 -4.377864
v -267.500000 -268.000000 1.499988
v -267.500000 -269.909790 7.377841
v -267.500000 -274.909790 11.010557
v -267.500000 -281.090210 11.010557
v -267.500000 -286.090210 7.377841
v -262.000000 -286.090210 -4.377864
v -262.000000 -288.000000 1.499987
v -262.000000 -286.090210 7.377841
v -262.000000 -281.090210 11.010557
v -262.000000 -274.909790 11.010557
v -262.000000 -269.909790 7.377841
v -262.000000 -268.000000 1.499988
v -262.000000 -269.909790 -4.377864
v -262.000000 -274.909790 -8.010577
v -262.000000 -281.090210 -8.010577
v -258.000000 -290.124390 -5.500013
v -258.000000 -292.000000 1.499987
v -258.000000 -290.124390 8.499988
v -258.000000 -285.000000 -10.624372
v -258.000000 -278.000000 -12.500012
v -258.000000 -271.000000 -10.624372
v -258.000000 -265.875702 -5.500011
v -258.000000 -264.000000 1.499988
v -258.000000 -265.875702 8.499989
v -258.000000 -271.000000 13.624349
v -258.000000 -278.000000 15.499988
v -258.000000 -285.000000 13.624348
v 261.500000 -275.142090 -0.000012
v 261.500000 -277.024811 -5.794328
v 261.500000 -281.953796 -9.375412
v 261.500000 -288.046204 -9.375412
v 261.500000 -292.975189 -5.794329
v 261.500000 -294.857910 -0.000013
v 261.500000 -292.975189 5.794303
v 261.500000 -288.046204 9.375387
v 261.500000 -281.953796 9.375387
v 261.500000 -277.024811 5.794304
v 256.000000 -277.024811 -5.794328
v 256.000000 -275.142090 -0.000012
v 256.000000 -277.024811 5.794304
v 256.000000 -281.953796 9.375387
v 256.000000 -288.046204 9.375387
v 256.000000 -292.975189 5.794303
v 256.000000 -294.857910 -0.000013
v 256.000000 -292.975189 -5.794329
v 256.000000 -288.046204 -9.375412
v 256.000000 -281.953796 -9.375412
v 252.000000 -272.875702 -7.000012
v 252.000000 -271.000000 -0.000012
v 252.000000 -272.875702 6.999988
v 252.000000 -278.000000 -12.124372
v 252.000000 -285.000000 -14.000012
v 252.000000 -292.000000 -12.124372
v 252.000000 -297.124390 -7.000013
v 252.000000 -299.000000 -0.000013
v 252.000000 -297.124390 6.999987
v 252.000000 -292.000000 12.124348
v 252.000000 -285.000000 13.999988
v 252.000000 -278.000000 12.124348
v 250.000000 -272.875702 -7.000012
v 250.000000 -271.000000 -0.000012
v 250.000000 -272.875702 6.999988
v 250.000000 -278.000000 12.124348
v 250.000000 -285.000000 13.999988
v 250.000000 -292.000000 12.124348
v 250.000000 -297.124390 6.999987
v 250.000000 -299.000000 -0.000013
v 250.000000 -297.124390 -7.000013
v 250.000000 -292.000000 -12.124372
v 250.000000 -285.000000 -14.000012
v 250.000000 -278.000000 -12.124372
vn -0.0000 -0.9511 -0.3090
vn -0.0000 -0.9511 0.3090
vn -0.0000 -0.5878 0.8090
vn -0.0000 -0.0000 1.0000
vn -0.0000 0.5878 0.8090
vn -0.0000 0.9511 0.3090
vn -0.0000 0.9511 -0.3090
vn -0.0000 0.5878 -0.8090
vn -0.0000 -0.0000 -1.0000
vn -0.0000 -0.5878 -0.8090
vn -0.7228 -0.6573 -0.2136
vn -0.6947 -0.6947 -0.1862
vn -0.6947 -0.6947 0.1862
vn -0.6737 -0.5226 -0.5226
vn -0.7409 -0.3948 -0.5433
vn -0.6624 -0.1939 -0.7236
vn -0.7466 -0.0000 -0.6652
vn -0.6624 0.1939 -0.7236
vn -0.7409 0.3948 -0.5433
vn -0.6737 0.5226 -0.5226
vn -0.7228 0.6573 -0.2136
vn -0.6947 0.6947 -0.1862
vn -0.6947 0.6947 0.1862
vn -0.7228 0.6573 0.2136
vn -0.6736 0.5226 0.5226
vn -0.7409 0.3948 0.5433
vn -0.6624 0.1939 0.7236
vn -0.7466 -0.0000 0.6652
vn -0.6624 -0.1939 0.7236
vn -0.7409 -0.3948 0.5433
vn -0.6737 -0.5226 0.5226
vn -0.7228 -0.6573 0.2136
vn -0.0000 -0.9659 -0.2588
vn -0.0000 -0.9659 0.2588
vn -0.0000 -0.7071 0.7071
vn -0.0000 -0.2588 0.9659
vn -0.0000 0.2588 0.9659
vn -0.0000 0.7071 0.7071
vn -0.0000 0.9659 0.2588
vn -0.0000 0.9659 -0.2588
vn -0.0000 0.7071 -0.7071
vn -0.0000 0.2588 -0.9659
vn -0.0000 -0.2588 -0.9659
vn -0.0000 -0.7071 -0.7071
vn 0.7337 0.6463 -0.2100
vn 0.7072 0.6829 -0.1830
vn 0.7072 0.6829 0.1830
vn 0.6875 0.5135 -0.5135
vn 0.7509 0.3882 -0.5343
vn 0.6769 0.1905 -0.7110
vn 0.7563 -0.0000 -0.6542
vn 0.6769 -0.1905 -0.7110
vn 0.7509 -0.3882 -0.5343
vn 0.6875 -0.5135 -0.5135
vn 0.7337 -0.6463 -0.2100
vn 0.7072 -0.6829 -0.1830
vn 0.7072 -0.6829 0.1830
vn 0.7337 -0.6463 0.2100
vn 0.6875 -0.5135 0.5135
vn 0.7509 -0.3882 0.5343
vn 0.6769 -0.1905 0.7110
vn 0.7563 -0.0000 0.6542
vn 0.6769 0.1905 0.7110
vn 0.7509 0.3882 0.5343
vn 0.6875 0.5135 0.5135
vn 0.7337 0.6463 0.2100
s 0
f 14//1 23//1 13//1
f 13//1 23//1 24//1
f 13//2 24//2 22//2
f 22//2 24//2 25//2
f 22//3 25//3 21//3
f 21//3 25//3 26//3
f 21//4 26//4 20//4
f 20//4 26//4 27//4
f 20//5 27//5 19//5
f 19//5 27//5 28//5
f 19//6 28//6 18//6
f 18//6 28//6 29//6
f 18//7 29//7 17//7
f 17//7 29//7 30//7
f 17//8 30//8 16//8
f 16//8 30//8 31//8
f 16//9 31//9 15//9
f 15//9 31//9 32//9
f 15//10 32//10 14//10
f 14//10 32//10 23//10
f 23//11 33//11 24//11
f 24//12 33//12 34//12
f 24//13 34//13 35//13
f 33//14 23//14 36//14
f 36//15 23//15 32//15
f 36//16 32//16 37//16
f 37//17 32//17 31//17
f 37//18 31//18 38//18
f 38//19 31//19 30//19
f 38//20 30//20 39//20
f 39//21 30//21 29//21
f 39//22 29//22 40//22
f 40//23 29//23 41//23
f 41//24 29//24 28//24
f 41//25 28//25 42//25
f 42//26 28//26 27//26
f 42//27 27//27 43//27
f 43//28 27//28 26//28
f 43//29 26//29 44//29
f 44//30 26//30 25//30
f 44//31 25//31 35//31
f 35//32 25//32 24//32
f 33//33 5//33 34//33
f 34//33 5//33 4//33
f 34//34 4//34 35//34
f 35//34 4//34 12//34
f 35//35 12//35 44//35
f 44//35 12//35 11//35
f 44//36 11//36 43//36
f 43//36 11//36 10//36
f 43//37 10//37 42//37
f 42//37 10//37 9//37
f 42//38 9//38 41//38
f 41//38 9//38 3//38
f 41//39 3//39 40//39
f 40//39 3//39 2//39
f 40//40 2//40 39//40
f 39//40 2//40 1//40
f 39//41 1//41 38//41
f 38//41 1//41 8//41
f 38//42 8//42 37//42
f 37//42 8//42 7//42
f 37//43 7//43 36//43
f 36//43 7//43 6//43
f 36//44 6//44 33//44
f 33//44 6//44 5//44
f 46//7 55//7 45//7
f 45//7 55//7 56//7
f 45//6 56//6 54//6
f 54//6 56//6 57//6
f 54//5 57//5 53//5
f 53//5 57//5 58//5
f 53//4 58//4 52//4
f 52//4 58//4 59//4
f 52//3 59//3 51//3
f 51//3 59//3 60//3
f 51//2 60//2 50//2
f 50//2 60//2 61//2
f 50//1 61//1 49//1
f 49//1 61//1 62//1
f 49//10 62//10 48//10
f 48//10 62//10 63//10
f 48//9 63//9 47//9
f 47//9 63//9 64//9
f 47//8 64//8 46//8
f 46//8 64//8 55//8
f 55//45 65//45 56//45
f 56//46 65//46 66//46
f 56//47 66//47 67//47
f 65//48 55//48 68//48
f 68//49 55//49 64//49
f 68//50 64//50 69//50
f 69//51 64//51 63//51
f 69//52 63//52 70//52
f 70//53 63//53 62//53
f 70//54 62//54 71//54
f 71//55 62//55 61//55
f 71//56 61//56 72//56
f 72//57 61//57 73//57
f 73//58 61//58 60//58
f 73//59 60//59 74//59
f 74//60 60//60 59//60
f 74//61 59//61 75//61
f 75//62 59//62 58//62
f 75//63 58//63 76//63
f 76//64 58//64 57//64
f 76//65 57//65 67//65
f 67//66 57//66 56//66
f 65//40 77//40 66//40
f 66//40 77//40 78//40
f 66//39 78//39 67//39
f 67//39 78//39 79//39
f 67//38 79//38 76//38
f 76//38 79//38 80//38
f 76//37 80//37 75//37
f 75//37 80//37 81//37
f 75//36 81//36 74//36
f 74//36 81//36 82//36
f 74//35 82//35 73//35
f 73//35 82//35 83//35
f 73//34 83//34 72//34
f 72//34 83//34 84//34
f 72//33 84//33 71//33
f 71//33 84//33 85//33
f 71//44 85//44 70//44
f 70//44 85//44 86//44
f 70//43 86//43 69//43
f 69//43 86//43 87//43
f 69//42 87//42 68//42
f 68//42 87//42 88//42
f 68//41 88//41 65//41
f 65//41 88//41 77//41
