# Blender 4.0.2
# www.blender.org
o MPO-500-BODY__m4
v -279.500000 -289.157196 -4.941609
v -279.232086 -290.023193 -5.441610
v -279.500000 -290.883209 1.499987
v -279.232086 -291.883209 1.499987
v -279.500000 -289.157196 7.941584
v -279.232086 -290.023193 8.441585
v -279.500000 -284.441589 12.657158
v -279.232086 -284.941589 13.523188
v -279.500000 -278.000000 14.383178
v -279.232086 -278.000000 15.383178
v -279.500000 -271.558411 12.657159
v -279.232086 -271.058411 13.523189
v -279.500000 -266.842804 7.941586
v -279.232086 -265.976807 8.441586
v -279.500000 -265.116791 1.499988
v -279.232086 -264.116791 1.499988
v -279.500000 -266.842804 -4.941607
v -279.232086 -265.976807 -5.441608
v -279.500000 -271.558411 -9.657185
v -279.232086 -271.058411 -10.523211
v -279.500000 -278.000000 -11.383203
v -279.232086 -278.000000 -12.383203
v -279.500000 -284.441589 -9.657186
v -279.232086 -284.941589 -10.523212
v -276.750793 -290.763092 8.868769
v -276.816010 -290.784790 8.881276
v -276.750793 -292.737610 1.499987
v -276.816010 -292.762604 1.499987
v -276.750793 -290.763092 -5.868793
v -276.816010 -290.784790 -5.881302
v -276.750793 -285.368805 -11.263112
v -276.816010 -285.381287 -11.284782
v -276.750793 -278.000000 -13.237573
v -276.816010 -278.000000 -13.262592
v -276.750793 -270.631195 -11.263111
v -276.816010 -270.618713 -11.284781
v -276.750793 -265.236908 -5.868792
v -276.816010 -265.215210 -5.881300
v -276.750793 -263.262512 1.499988
v -276.816010 -263.237396 1.499988
v -276.750793 -265.236908 8.868770
v -276.816010 -265.215210 8.881277
v -276.750793 -270.631195 14.263088
v -276.816010 -270.618713 14.284759
v -276.750793 -278.000000 16.237549
v -276.816010 -278.000000 16.262569
v -276.750793 -285.368805 14.263087
v -276.816010 -285.381287 14.284758
v -278.183990 -292.762604 1.499987
v -278.183990 -290.784790 8.881276
v -278.183990 -285.381287 14.284758
v -278.183990 -278.000000 16.262569
v -278.183990 -270.618713 14.284759
v -278.183990 -265.215210 8.881277
v -278.183990 -263.237396 1.499988
v -278.183990 -265.215210 -5.881300
v -278.183990 -270.618713 -11.284781
v -278.183990 -278.000000 -13.262592
v -278.183990 -285.381287 -11.284782
v -278.183990 -290.784790 -5.881302
v -267.500000 -287.253815 7.447037
v -267.500000 -289.000000 1.499987
v -267.500000 -282.569611 11.505938
v -267.500000 -276.434601 12.388027
v -267.500000 -270.796600 9.813234
v -267.500000 -267.445587 4.599046
v -267.500000 -267.445587 -1.599070
v -267.500000 -270.796600 -6.813257
v -267.500000 -276.434601 -9.388048
v -267.500000 -282.569611 -8.505964
v -267.500000 -287.253815 -4.447062
v -267.500000 -288.000000 1.499987
v -267.500000 -286.090210 -4.377864
v -267.500000 -281.090210 -8.010577
v -267.500000 -274.909790 -8.010577
v -267.500000 -269.909790 -4.377864
v -267.500000 -268.000000 1.499988
v -267.500000 -269.909790 7.377841
v -267.500000 -274.909790 11.010557
v -267.500000 -281.090210 11.010557
v -267.500000 -286.090210 7.377841
v 273.500000 -273.842804 -6.441608
v 273.232086 -272.976807 -6.941608
v 273.500000 -272.116791 -0.000012
v 273.232086 -271.116791 -0.000012
v 273.500000 -273.842804 6.441584
v 273.232086 -272.976807 6.941584
v 273.500000 -278.558411 11.157158
v 273.232086 -278.058411 12.023188
v 273.500000 -285.000000 12.883178
v 273.232086 -285.000000 13.883178
v 273.500000 -291.441589 11.157158
v 273.232086 -291.941589 12.023188
v 273.500000 -296.157196 6.441583
v 273.232086 -297.023193 6.941583
v 273.500000 -297.883209 -0.000013
v 273.232086 -298.883209 -0.000013
v 273.500000 -296.157196 -6.441609
v 273.232086 -297.023193 -6.941609
v 273.500000 -291.441589 -11.157183
v 273.232086 -291.941589 -12.023212
v 273.500000 -285.000000 -12.883203
v 273.232086 -285.000000 -13.883203
v 273.500000 -278.558411 -11.157183
v 273.232086 -278.058411 -12.023212
v 270.750793 -272.236908 7.368768
v 270.816010 -272.215302 7.381277
v 270.750793 -270.262390 -0.000012
v 270.816010 -270.237396 -0.000012
v 270.750793 -272.236908 -7.368792
v 270.816010 -272.215302 -7.381301
v 270.750793 -277.631195 -12.763112
v 270.816010 -277.618713 -12.784782
v 270.750793 -285.000000 -14.737573
v 270.816010 -285.000000 -14.762592
v 270.750793 -292.368805 -12.763112
v 270.816010 -292.381287 -12.784782
v 270.750793 -297.763092 -7.368793
v 270.816010 -297.784790 -7.381302
v 270.750793 -299.737610 -0.000013
v 270.816010 -299.762604 -0.000013
v 270.750793 -297.763092 7.368767
v 270.816010 -297.784790 7.381276
v 270.750793 -292.368805 12.763087
v 270.816010 -292.381287 12.784758
v 270.750793 -285.000000 14.737548
v 270.816010 -285.000000 14.762568
v 270.750793 -277.631195 12.763087
v 270.816010 -277.618713 12.784758
v 272.184113 -270.237396 -0.000012
v 272.184113 -272.215302 7.381277
v 272.184113 -277.618713 12.784758
v 272.184113 -285.000000 14.762568
v 272.184113 -292.381287 12.784758
v 272.184113 -297.784790 7.381276
v 272.184113 -299.762604 -0.000013
v 272.184113 -297.784790 -7.381302
v 272.184113 -292.381287 -12.784782
v 272.184113 -285.000000 -14.762592
v 272.184113 -277.618713 -12.784782
v 272.184113 -272.215302 -7.381301
v 261.500000 -275.746185 5.947037
v 261.500000 -274.000000 -0.000012
v 261.500000 -280.430389 10.005938
v 261.500000 -286.565491 10.888018
v 261.500000 -292.203491 8.313232
v 261.500000 -295.554413 3.099045
v 261.500000 -295.554413 -3.099071
v 261.500000 -292.203491 -8.313257
v 261.500000 -286.565491 -10.888042
v 261.500000 -280.430389 -10.005962
v 261.500000 -275.746185 -5.947061
v 261.500000 -275.142090 -0.000012
v 261.500000 -277.024811 -5.794328
v 261.500000 -281.953796 -9.375412
v 261.500000 -288.046204 -9.375412
v 261.500000 -292.975189 -5.794329
v 261.500000 -294.857910 -0.000013
v 261.500000 -292.975189 5.794303
v 261.500000 -288.046204 9.375387
v 261.500000 -281.953796 9.375387
v 261.500000 -277.024811 5.794304
vn -0.9636 -0.2582 -0.0692
vn -0.9636 -0.2581 -0.0692
vn -0.9636 -0.2582 0.0692
vn -0.9636 -0.2581 0.0692
vn -0.9636 -0.1890 0.1890
vn -0.9636 -0.0692 0.2582
vn -0.9636 0.0692 0.2582
vn -0.9636 0.1890 0.1890
vn -0.9636 0.2582 0.0692
vn -0.9636 0.2581 0.0692
vn -0.9636 0.2582 -0.0692
vn -0.9636 0.1890 -0.1890
vn -0.9636 0.1889 -0.1890
vn -0.9636 0.0692 -0.2582
vn -0.9636 -0.0692 -0.2582
vn -0.9636 -0.1890 -0.1890
vn 0.3479 -0.9056 0.2427
vn 0.3471 -0.9059 0.2427
vn 0.3474 -0.9057 -0.2429
vn 0.3478 -0.9056 -0.2426
vn 0.3477 -0.6630 -0.6630
vn 0.3473 -0.6630 -0.6632
vn 0.3474 -0.2425 -0.9058
vn 0.3475 -0.2428 -0.9057
vn 0.3475 0.2425 -0.9058
vn 0.3474 0.2428 -0.9057
vn 0.3474 0.6629 -0.6633
vn 0.3477 0.6631 -0.6629
vn 0.3480 0.9055 -0.2428
vn 0.3486 0.9053 -0.2426
vn 0.3489 0.9052 0.2427
vn 0.3477 0.9057 0.2425
vn 0.3478 0.6627 0.6632
vn 0.3473 0.6630 0.6632
vn 0.3474 0.2425 0.9058
vn 0.3475 0.2428 0.9057
vn 0.3475 -0.2427 0.9057
vn 0.3474 -0.2428 0.9057
vn 0.3474 -0.6629 0.6633
vn 0.3478 -0.6629 0.6631
vn -0.6296 -0.7504 0.2011
vn -0.6296 -0.5494 0.5493
vn -0.6296 -0.5493 0.5493
vn -0.6296 -0.2011 0.7504
vn -0.6296 0.2011 0.7504
vn -0.6296 0.5494 0.5493
vn -0.6296 0.7504 0.2011
vn -0.6296 0.7504 -0.2011
vn -0.6296 0.5494 -0.5493
vn -0.6296 0.2011 -0.7504
vn -0.6296 -0.2011 -0.7504
vn -0.6296 -0.5493 -0.5494
vn -0.6296 -0.5494 -0.5493
vn -0.6296 -0.7504 -0.2011
vn -0.0000 -0.9659 0.2588
vn -0.0000 -0.7071 0.7071
vn -0.0000 -0.2588 0.9659
vn -0.0000 0.2588 0.9659
vn -0.0000 0.7071 0.7071
vn -0.0000 0.9659 0.2588
vn -0.0000 0.9659 -0.2588
vn -0.0000 0.7071 -0.7071
vn -0.0000 0.2588 -0.9659
vn -0.0000 -0.2588 -0.9659
vn -0.0000 -0.7071 -0.7071
vn -0.0000 -0.9659 -0.2588
vn 0.3772 -0.8886 0.2609
vn 0.3636 -0.8998 0.2411
vn 0.3636 -0.8998 -0.2411
vn 0.3527 -0.6617 0.6617
vn 0.3899 -0.6030 0.6959
vn 0.3439 -0.2430 0.9070
vn 0.3996 -0.1305 0.9073
vn 0.3372 0.2437 0.9094
vn 0.4066 0.3795 0.8311
vn 0.3327 0.6668 0.6668
vn 0.4107 0.7670 0.4930
vn 0.3304 0.9117 0.2443
vn 0.4120 0.9112 -0.0000
vn 0.3304 0.9117 -0.2443
vn 0.4107 0.7670 -0.4930
vn 0.3327 0.6668 -0.6668
vn 0.4066 0.3795 -0.8311
vn 0.3372 0.2437 -0.9094
vn 0.3996 -0.1305 -0.9073
vn 0.3439 -0.2430 -0.9070
vn 0.3899 -0.6030 -0.6959
vn 0.3527 -0.6617 -0.6617
vn 0.3772 -0.8886 -0.2609
vn -1.0000 -0.0000 -0.0000
vn 1.0000 -0.0000 -0.0000
vn 0.9636 0.2582 -0.0692
vn 0.9636 0.2582 0.0692
vn 0.9636 0.1890 0.1890
vn 0.9636 0.1889 0.1890
vn 0.9636 0.0692 0.2582
vn 0.9636 -0.0692 0.2582
vn 0.9636 -0.1890 0.1890
vn 0.9636 -0.2582 0.0692
vn 0.9636 -0.2582 -0.0692
vn 0.9636 -0.1890 -0.1890
vn 0.9636 -0.1889 -0.1890
vn 0.9636 -0.0692 -0.2582
vn 0.9636 0.0692 -0.2582
vn 0.9636 0.1890 -0.1890
vn -0.3468 0.9060 0.2428
vn -0.3471 0.9059 0.2427
vn -0.3472 0.9058 -0.2428
vn -0.3467 0.9060 -0.2427
vn -0.3470 0.6629 -0.6634
vn -0.3472 0.6633 -0.6630
vn -0.3474 0.2425 -0.9058
vn -0.3475 0.2428 -0.9057
vn -0.3475 -0.2425 -0.9058
vn -0.3474 -0.2428 -0.9057
vn -0.3472 -0.6631 -0.6631
vn -0.3477 -0.6631 -0.6629
vn -0.3479 -0.9056 -0.2427
vn -0.3471 -0.9059 -0.2427
vn -0.3472 -0.9058 0.2428
vn -0.3478 -0.9056 0.2426
vn -0.3478 -0.6627 0.6632
vn -0.3472 -0.6633 0.6630
vn -0.3474 -0.2425 0.9058
vn -0.3475 -0.2430 0.9057
vn -0.3475 0.2425 0.9058
vn -0.3474 0.2430 0.9057
vn -0.3472 0.6631 0.6631
vn -0.3469 0.6634 0.6631
vn 0.6297 0.7504 0.2011
vn 0.6296 0.7504 0.2011
vn 0.6297 0.5493 0.5493
vn 0.6297 0.2011 0.7504
vn 0.6297 -0.2011 0.7504
vn 0.6297 -0.5493 0.5493
vn 0.6297 -0.7504 0.2011
vn 0.6297 -0.7504 -0.2011
vn 0.6297 -0.5493 -0.5493
vn 0.6297 -0.2011 -0.7504
vn 0.6297 0.2011 -0.7504
vn 0.6297 0.5493 -0.5493
vn 0.6296 0.7504 -0.2011
vn 0.6297 0.7504 -0.2011
vn -0.3772 0.8886 0.2609
vn -0.3636 0.8998 0.2411
vn -0.3636 0.8998 -0.2411
vn -0.3527 0.6617 0.6617
vn -0.3899 0.6030 0.6959
vn -0.3439 0.2430 0.9070
vn -0.3997 0.1305 0.9073
vn -0.3372 -0.2437 0.9094
vn -0.4065 -0.3795 0.8311
vn -0.3327 -0.6668 0.6668
vn -0.4107 -0.7670 0.4929
vn -0.3304 -0.9117 0.2443
vn -0.4120 -0.9112 -0.0000
vn -0.3304 -0.9117 -0.2443
vn -0.4107 -0.7670 -0.4929
vn -0.3327 -0.6668 -0.6668
vn -0.4066 -0.3795 -0.8311
vn -0.3372 -0.2437 -0.9094
vn -0.3997 0.1305 -0.9073
vn -0.3439 0.2430 -0.9070
vn -0.3899 0.6030 -0.6959
vn -0.3527 0.6617 -0.6617
vn -0.3772 0.8886 -0.2609
vn -1.0000 0.0001 -0.0000
s 0
f 1//1 2//1 3//1
f 3//2 2//2 4//2
f 3//3 4//3 5//3
f 5//4 4//4 6//4
f 5//5 6//5 7//5
f 7//5 6//5 8//5
f 7//6 8//6 9//6
f 9//6 8//6 10//6
f 9//7 10//7 11//7
f 11//7 10//7 12//7
f 11//8 12//8 13//8
f 13//8 12//8 14//8
f 13//9 14//9 15//9
f 15//10 14//10 16//10
f 15//11 16//11 17//11
f 17//11 16//11 18//11
f 17//12 18//12 19//12
f 19//13 18//13 20//13
f 19//14 20//14 21//14
f 21//14 20//14 22//14
f 21//15 22//15 23//15
f 23//15 22//15 24//15
f 23//16 24//16 1//16
f 1//16 24//16 2//16
f 25//17 26//17 27//17
f 27//18 26//18 28//18
f 27//19 28//19 29//19
f 29//20 28//20 30//20
f 29//21 30//21 31//21
f 31//22 30//22 32//22
f 31//23 32//23 33//23
f 33//24 32//24 34//24
f 33//25 34//25 35//25
f 35//26 34//26 36//26
f 35//27 36//27 37//27
f 37//28 36//28 38//28
f 37//29 38//29 39//29
f 39//30 38//30 40//30
f 39//31 40//31 41//31
f 41//32 40//32 42//32
f 41//33 42//33 43//33
f 43//34 42//34 44//34
f 43//35 44//35 45//35
f 45//36 44//36 46//36
f 45//37 46//37 47//37
f 47//38 46//38 48//38
f 47//39 48//39 25//39
f 25//40 48//40 26//40
f 4//41 49//41 6//41
f 6//41 49//41 50//41
f 6//42 50//42 8//42
f 8//43 50//43 51//43
f 8//44 51//44 10//44
f 10//44 51//44 52//44
f 10//45 52//45 12//45
f 12//45 52//45 53//45
f 12//46 53//46 14//46
f 14//46 53//46 54//46
f 14//47 54//47 16//47
f 16//47 54//47 55//47
f 16//48 55//48 18//48
f 18//48 55//48 56//48
f 18//49 56//49 20//49
f 20//49 56//49 57//49
f 20//50 57//50 22//50
f 22//50 57//50 58//50
f 22//51 58//51 24//51
f 24//51 58//51 59//51
f 24//52 59//52 2//52
f 2//53 59//53 60//53
f 2//54 60//54 4//54
f 4//54 60//54 49//54
f 49//55 28//55 50//55
f 50//55 28//55 26//55
f 50//56 26//56 51//56
f 51//56 26//56 48//56
f 51//57 48//57 52//57
f 52//57 48//57 46//57
f 52//58 46//58 53//58
f 53//58 46//58 44//58
f 53//59 44//59 54//59
f 54//59 44//59 42//59
f 54//60 42//60 55//60
f 55//60 42//60 40//60
f 55//61 40//61 56//61
f 56//61 40//61 38//61
f 56//62 38//62 57//62
f 57//62 38//62 36//62
f 57//63 36//63 58//63
f 58//63 36//63 34//63
f 58//64 34//64 59//64
f 59//64 34//64 32//64
f 59//65 32//65 60//65
f 60//65 32//65 30//65
f 60//66 30//66 49//66
f 49//66 30//66 28//66
f 61//67 25//67 62//67
f 62//68 25//68 27//68
f 62//69 27//69 29//69
f 25//70 61//70 47//70
f 47//71 61//71 63//71
f 47//72 63//72 45//72
f 45//73 63//73 64//73
f 45//74 64//74 43//74
f 43//75 64//75 65//75
f 43//76 65//76 41//76
f 41//77 65//77 66//77
f 41//78 66//78 39//78
f 39//79 66//79 67//79
f 39//80 67//80 37//80
f 37//81 67//81 68//81
f 37//82 68//82 35//82
f 35//83 68//83 69//83
f 35//84 69//84 33//84
f 33//85 69//85 70//85
f 33//86 70//86 31//86
f 31//87 70//87 71//87
f 31//88 71//88 29//88
f 29//89 71//89 62//89
f 5//90 13//90 3//90
f 3//90 13//90 15//90
f 3//90 15//90 1//90
f 1//90 15//90 17//90
f 1//90 17//90 23//90
f 23//90 17//90 19//90
f 23//90 19//90 21//90
f 13//90 5//90 11//90
f 11//90 5//90 7//90
f 11//90 7//90 9//90
f 61//91 62//91 72//91
f 72//91 62//91 71//91
f 72//91 71//91 73//91
f 73//91 71//91 70//91
f 73//91 70//91 74//91
f 74//91 70//91 69//91
f 74//91 69//91 75//91
f 75//91 69//91 68//91
f 75//91 68//91 76//91
f 76//91 68//91 67//91
f 76//91 67//91 77//91
f 77//91 67//91 66//91
f 77//91 66//91 78//91
f 78//91 66//91 65//91
f 78//91 65//91 79//91
f 79//91 65//91 64//91
f 79//91 64//91 80//91
f 80//91 64//91 63//91
f 80//91 63//91 81//91
f 81//91 63//91 61//91
f 81//91 61//91 72//91
f 82//92 83//92 84//92
f 84//92 83//92 85//92
f 84//93 85//93 86//93
f 86//93 85//93 87//93
f 86//94 87//94 88//94
f 88//95 87//95 89//95
f 88//96 89//96 90//96
f 90//96 89//96 91//96
f 90//97 91//97 92//97
f 92//97 91//97 93//97
f 92//98 93//98 94//98
f 94//98 93//98 95//98
f 94//99 95//99 96//99
f 96//99 95//99 97//99
f 96//100 97//100 98//100
f 98//100 97//100 99//100
f 98//101 99//101 100//101
f 100//102 99//102 101//102
f 100//103 101//103 102//103
f 102//103 101//103 103//103
f 102//104 103//104 104//104
f 104//104 103//104 105//104
f 104//105 105//105 82//105
f 82//105 105//105 83//105
f 106//106 107//106 108//106
f 108//107 107//107 109//107
f 108//108 109//108 110//108
f 110//109 109//109 111//109
f 110//110 111//110 112//110
f 112//111 111//111 113//111
f 112//112 113//112 114//112
f 114//113 113//113 115//113
f 114//114 115//114 116//114
f 116//115 115//115 117//115
f 116//116 117//116 118//116
f 118//117 117//117 119//117
f 118//118 119//118 120//118
f 120//119 119//119 121//119
f 120//120 121//120 122//120
f 122//121 121//121 123//121
f 122//122 123//122 124//122
f 124//123 123//123 125//123
f 124//124 125//124 126//124
f 126//125 125//125 127//125
f 126//126 127//126 128//126
f 128//127 127//127 129//127
f 128//128 129//128 106//128
f 106//129 129//129 107//129
f 85//130 130//130 87//130
f 87//131 130//131 131//131
f 87//132 131//132 89//132
f 89//132 131//132 132//132
f 89//133 132//133 91//133
f 91//133 132//133 133//133
f 91//134 133//134 93//134
f 93//134 133//134 134//134
f 93//135 134//135 95//135
f 95//135 134//135 135//135
f 95//136 135//136 97//136
f 97//136 135//136 136//136
f 97//137 136//137 99//137
f 99//137 136//137 137//137
f 99//138 137//138 101//138
f 101//138 137//138 138//138
f 101//139 138//139 103//139
f 103//139 138//139 139//139
f 103//140 139//140 105//140
f 105//140 139//140 140//140
f 105//141 140//141 83//141
f 83//141 140//141 141//141
f 83//142 141//142 85//142
f 85//143 141//143 130//143
f 130//60 109//60 131//60
f 131//60 109//60 107//60
f 131//59 107//59 132//59
f 132//59 107//59 129//59
f 132//58 129//58 133//58
f 133//58 129//58 127//58
f 133//57 127//57 134//57
f 134//57 127//57 125//57
f 134//56 125//56 135//56
f 135//56 125//56 123//56
f 135//55 123//55 136//55
f 136//55 123//55 121//55
f 136//66 121//66 137//66
f 137//66 121//66 119//66
f 137//65 119//65 138//65
f 138//65 119//65 117//65
f 138//64 117//64 139//64
f 139//64 117//64 115//64
f 139//63 115//63 140//63
f 140//63 115//63 113//63
f 140//62 113//62 141//62
f 141//62 113//62 111//62
f 141//61 111//61 130//61
f 130//61 111//61 109//61
f 142//144 106//144 143//144
f 143//145 106//145 108//145
f 143//146 108//146 110//146
f 106//147 142//147 128//147
f 128//148 142//148 144//148
f 128//149 144//149 126//149
f 126//150 144//150 145//150
f 126//151 145//151 124//151
f 124//152 145//152 146//152
f 124//153 146//153 122//153
f 122//154 146//154 147//154
f 122//155 147//155 120//155
f 120//156 147//156 148//156
f 120//157 148//157 118//157
f 118//158 148//158 149//158
f 118//159 149//159 116//159
f 116//160 149//160 150//160
f 116//161 150//161 114//161
f 114//162 150//162 151//162
f 114//163 151//163 112//163
f 112//164 151//164 152//164
f 112//165 152//165 110//165
f 110//166 152//166 143//166
f 86//91 94//91 84//91
f 84//91 94//91 96//91
f 84//91 96//91 82//91
f 82//91 96//91 98//91
f 82//91 98//91 104//91
f 104//91 98//91 100//91
f 104//91 100//91 102//91
f 94//91 86//91 92//91
f 92//91 86//91 88//91
f 92//91 88//91 90//91
f 142//90 143//90 153//90
f 153//90 143//90 152//90
f 153//90 152//90 154//90
f 154//90 152//90 151//90
f 154//90 151//90 155//90
f 155//90 151//90 150//90
f 155//90 150//90 156//90
f 156//90 150//90 149//90
f 156//90 149//90 157//90
f 157//167 149//167 148//167
f 157//90 148//90 158//90
f 158//90 148//90 147//90
f 158//90 147//90 159//90
f 159//90 147//90 146//90
f 159//90 146//90 160//90
f 160//90 146//90 145//90
f 160//90 145//90 161//90
f 161//90 145//90 144//90
f 161//90 144//90 162//90
f 162//90 144//90 142//90
f 162//90 142//90 153//90
