# Blender 4.0.2
# www.blender.org
o MPO-500-BODY__m2
v 57.549500 -354.999969 -365.000031
v 61.039600 -354.999969 -365.000031
v 57.549500 -354.999969 -350.000031
v 61.039600 -354.999969 -350.000031
v 57.549500 -355.999969 -350.000031
v 57.549500 -355.999969 -365.000031
v 61.039600 -355.999969 -365.000031
v 61.039600 -355.999969 -350.000031
v -5.762374 -354.999969 -352.435638
v -5.762374 -355.999969 -352.435638
v 2.183170 -354.999969 -352.435638
v 2.183170 -355.999969 -352.435638
v -5.762374 -354.999969 -356.014923
v -5.762374 -355.999969 -356.014923
v 2.183170 -354.999969 -356.014923
v 2.183170 -355.999969 -356.014923
v 2.949878 -354.999969 -355.953644
v 2.949878 -355.999969 -355.953644
v 3.438120 -354.999969 -355.769836
v 3.438120 -355.999969 -355.769836
v 3.699878 -354.999969 -355.437531
v 3.699878 -355.999969 -355.437531
v 3.787130 -354.999969 -354.930725
v 3.787130 -355.999969 -354.930725
v 3.787130 -354.999969 -353.519836
v 3.787130 -355.999969 -353.519836
v 3.699878 -354.999969 -353.013031
v 3.699878 -355.999969 -353.013031
v 3.438120 -354.999969 -352.680725
v 3.438120 -355.999969 -352.680725
v 2.949878 -354.999969 -352.496918
v 2.949878 -355.999969 -352.496918
v -5.762374 -354.999969 -358.480225
v -5.762374 -355.999969 -358.480225
v 2.183170 -354.999969 -358.480225
v 2.183170 -355.999969 -358.480225
v -5.762374 -354.999969 -362.311920
v -5.762374 -355.999969 -362.311920
v 2.183170 -354.999969 -362.311920
v 2.183170 -355.999969 -362.311920
v 3.016709 -354.999969 -362.237640
v 3.016709 -355.999969 -362.237640
v 3.527229 -354.999969 -362.014923
v 3.527229 -355.999969 -362.014923
v 3.788987 -354.999969 -361.602722
v 3.788987 -355.999969 -361.602722
v 3.876239 -354.999969 -360.960419
v 3.876239 -355.999969 -360.960419
v 3.876239 -354.999969 -359.816833
v 3.876239 -355.999969 -359.816833
v 3.788987 -354.999969 -359.176422
v 3.788987 -355.999969 -359.176422
v 3.527229 -354.999969 -358.769836
v 3.527229 -355.999969 -358.769836
v 3.016709 -354.999969 -358.552643
v 3.016709 -355.999969 -358.552643
v 3.638615 -354.999969 -350.000031
v -9.193068 -354.999969 -350.000031
v 4.425744 -354.999969 -357.262421
v 5.173888 -354.999969 -350.172638
v 5.528467 -354.999969 -356.980225
v 6.215348 -354.999969 -350.690643
v 6.341586 -354.999969 -356.460419
v 6.811264 -354.999969 -351.591034
v 6.842824 -354.999969 -355.710419
v 7.009903 -354.999969 -352.910919
v 7.009903 -354.999969 -354.737640
v 4.661511 -354.999969 -364.819916
v 2.717823 -354.999969 -365.000031
v -9.193068 -354.999969 -365.000031
v 5.571165 -354.999969 -357.574341
v 6.037130 -354.999969 -364.279724
v 6.423269 -354.999969 -358.183228
v 6.855819 -354.999969 -363.368225
v 6.952353 -354.999969 -359.052032
v 7.128714 -354.999969 -362.074341
v 7.128714 -354.999969 -360.143616
v -9.193068 -355.999969 -350.000031
v -9.193068 -355.999969 -365.000031
v 2.717823 -355.999969 -365.000031
v 7.128714 -355.999969 -362.074341
v 6.855819 -355.999969 -363.368225
v 6.037130 -355.999969 -364.279724
v 4.661511 -355.999969 -364.819916
v 7.128714 -355.999969 -360.143616
v 4.425744 -355.999969 -357.262421
v 5.571165 -355.999969 -357.574341
v 6.423269 -355.999969 -358.183228
v 6.952353 -355.999969 -359.052032
v 7.009903 -355.999969 -354.737640
v 6.842824 -355.999969 -355.710419
v 6.341586 -355.999969 -356.460419
v 5.528467 -355.999969 -356.980225
v 7.009903 -355.999969 -352.910919
v 3.638615 -355.999969 -350.000031
v 5.173888 -355.999969 -350.172638
v 6.215348 -355.999969 -350.690643
v 6.811264 -355.999969 -351.591034
v -20.019800 -354.999969 -362.178223
v -20.019800 -355.999969 -362.178223
v -31.529699 -354.999969 -362.178223
v -31.529699 -355.999969 -362.178223
v -20.019800 -354.999969 -352.688141
v -20.019800 -355.999969 -352.688141
v -31.529699 -354.999969 -352.688141
v -31.529699 -355.999969 -352.688141
v -20.257429 -354.999969 -365.000031
v -18.428841 -354.999969 -364.814331
v -18.428841 -354.999969 -350.187531
v -17.309410 -354.999969 -350.750031
v -17.309410 -354.999969 -364.257416
v -16.544550 -354.999969 -361.450531
v -16.735769 -354.999969 -363.184418
v -33.135521 -354.999969 -350.187531
v -33.135521 -354.999969 -364.814331
v -31.306931 -354.999969 -365.000031
v -20.257429 -354.999969 -350.000031
v -31.306931 -354.999969 -350.000031
v -34.254951 -354.999969 -350.750031
v -34.254951 -354.999969 -364.257416
v -35.019798 -354.999969 -361.450531
v -34.828590 -354.999969 -363.184418
v -34.828590 -354.999969 -351.824921
v -35.019798 -354.999969 -353.549530
v -16.544550 -354.999969 -353.549530
v -16.735769 -354.999969 -351.824921
v -35.019798 -355.999969 -353.549530
v -34.828590 -355.999969 -351.824921
v -34.254951 -355.999969 -350.750031
v -33.135521 -355.999969 -350.187531
v -31.306931 -355.999969 -350.000031
v -35.019798 -355.999969 -361.450531
v -31.306931 -355.999969 -365.000031
v -33.135521 -355.999969 -364.814331
v -34.254951 -355.999969 -364.257416
v -34.828590 -355.999969 -363.184418
v -20.257429 -355.999969 -365.000031
v -16.544550 -355.999969 -361.450531
v -16.735769 -355.999969 -363.184418
v -17.309410 -355.999969 -364.257416
v -18.428841 -355.999969 -364.814331
v -16.544550 -355.999969 -353.549530
v -20.257429 -355.999969 -350.000031
v -18.428841 -355.999969 -350.187531
v -17.309410 -355.999969 -350.750031
v -16.735769 -355.999969 -351.824921
v -79.544563 -354.999969 -350.000031
v -81.920792 -354.999969 -350.000031
v -78.935638 -354.999969 -354.514923
v -81.920792 -354.999969 -365.000031
v -78.787132 -354.999969 -356.891144
v -78.787132 -354.999969 -365.000031
v -78.796410 -354.999969 -356.402924
v -78.824257 -354.999969 -355.829224
v -78.870667 -354.999969 -355.192535
v -78.660889 -354.999969 -354.808228
v -78.371292 -354.999969 -355.094116
v -78.048271 -354.999969 -355.394836
v -77.673271 -354.999969 -355.732727
v -68.985153 -354.999969 -358.836731
v -66.668312 -354.999969 -365.000031
v -68.480202 -354.999969 -359.267334
v -68.034660 -354.999969 -359.668335
v -67.637383 -354.999969 -360.061920
v -67.277229 -354.999969 -360.470337
v -64.292084 -354.999969 -365.000031
v -67.351486 -354.999969 -359.391724
v -64.292084 -354.999969 -350.000031
v -67.396042 -354.999969 -358.680725
v -67.425751 -354.999969 -357.871338
v -67.418312 -354.999969 -358.214722
v -67.425751 -354.999969 -350.000031
v -81.920792 -355.999969 -350.000031
v -81.920792 -355.999969 -365.000031
v -78.787132 -355.999969 -365.000031
v -78.787132 -355.999969 -356.891144
v -78.935638 -355.999969 -354.514923
v -78.870667 -355.999969 -355.192535
v -78.824257 -355.999969 -355.829224
v -78.796410 -355.999969 -356.402924
v -77.673271 -355.999969 -355.732727
v -78.048271 -355.999969 -355.394836
v -78.371292 -355.999969 -355.094116
v -78.660889 -355.999969 -354.808228
v -66.668312 -355.999969 -365.000031
v -64.292084 -355.999969 -365.000031
v -64.292084 -355.999969 -350.000031
v -67.425751 -355.999969 -350.000031
v -67.425751 -355.999969 -357.871338
v -67.277229 -355.999969 -360.470337
v -67.351486 -355.999969 -359.391724
v -67.396042 -355.999969 -358.680725
v -67.418312 -355.999969 -358.214722
v -68.985153 -355.999969 -358.836731
v -68.480202 -355.999969 -359.267334
v -68.034660 -355.999969 -359.668335
v -67.637383 -355.999969 -360.061920
v -79.544563 -355.999969 -350.000031
v -56.643559 -354.999969 -365.000031
v -53.153461 -354.999969 -358.450531
v -56.643559 -354.999969 -350.000031
v -53.153461 -354.999969 -355.896027
v -53.153461 -354.999969 -352.554535
v -53.153461 -354.999969 -362.178223
v -41.153461 -354.999969 -365.000031
v -41.153461 -354.999969 -362.178223
v -46.232670 -354.999969 -358.450531
v -46.232670 -354.999969 -355.896027
v -41.301979 -354.999969 -352.554535
v -41.301979 -354.999969 -350.000031
v -56.643559 -355.999969 -350.000031
v -56.643559 -355.999969 -365.000031
v -41.153461 -355.999969 -365.000031
v -41.153461 -355.999969 -362.178223
v -53.153461 -355.999969 -362.178223
v -53.153461 -355.999969 -358.450531
v -46.232670 -355.999969 -358.450531
v -46.232670 -355.999969 -355.896027
v -53.153461 -355.999969 -355.896027
v -53.153461 -355.999969 -352.554535
v -41.301979 -355.999969 -352.554535
v -41.301979 -355.999969 -350.000031
v 28.559410 -354.999969 -362.178223
v 28.559410 -355.999969 -362.178223
v 17.049509 -354.999969 -362.178223
v 17.049509 -355.999969 -362.178223
v 28.559410 -354.999969 -352.688141
v 28.559410 -355.999969 -352.688141
v 17.049509 -354.999969 -352.688141
v 17.049509 -355.999969 -352.688141
v 28.321779 -354.999969 -365.000031
v 30.150370 -354.999969 -364.814331
v 30.150370 -354.999969 -350.187531
v 31.269800 -354.999969 -350.750031
v 31.269800 -354.999969 -364.257416
v 31.843439 -354.999969 -351.824921
v 31.843439 -354.999969 -363.184418
v 32.034660 -354.999969 -361.450531
v 15.443690 -354.999969 -350.187531
v 15.443690 -354.999969 -364.814331
v 17.272280 -354.999969 -365.000031
v 28.321779 -354.999969 -350.000031
v 17.272280 -354.999969 -350.000031
v 14.324260 -354.999969 -350.750031
v 14.324260 -354.999969 -364.257416
v 13.750620 -354.999969 -351.824921
v 13.750620 -354.999969 -363.184418
v 13.559410 -354.999969 -361.450531
v 13.559410 -354.999969 -353.549530
v 32.034660 -354.999969 -353.549530
v 13.559410 -355.999969 -353.549530
v 13.750620 -355.999969 -351.824921
v 14.324260 -355.999969 -350.750031
v 15.443690 -355.999969 -350.187531
v 17.272280 -355.999969 -350.000031
v 13.559410 -355.999969 -361.450531
v 17.272280 -355.999969 -365.000031
v 15.443690 -355.999969 -364.814331
v 14.324260 -355.999969 -364.257416
v 13.750620 -355.999969 -363.184418
v 28.321779 -355.999969 -365.000031
v 32.034660 -355.999969 -361.450531
v 31.843439 -355.999969 -363.184418
v 31.269800 -355.999969 -364.257416
v 30.150370 -355.999969 -364.814331
v 32.034660 -355.999969 -353.549530
v 28.321779 -355.999969 -350.000031
v 30.150370 -355.999969 -350.187531
v 31.269800 -355.999969 -350.750031
v 31.843439 -355.999969 -351.824921
v 42.876240 -354.999969 -365.000031
v 46.366341 -354.999969 -365.000031
v 42.876240 -354.999969 -352.688141
v 46.366341 -354.999969 -352.688141
v 36.000000 -354.999969 -350.000031
v 53.272282 -354.999969 -350.000031
v 53.272282 -354.999969 -352.688141
v 36.000000 -354.999969 -352.688141
v 46.366341 -355.999969 -365.000031
v 46.366341 -355.999969 -352.688141
v 53.272282 -355.999969 -352.688141
v 53.272282 -355.999969 -350.000031
v 36.000000 -355.999969 -350.000031
v 36.000000 -355.999969 -352.688141
v 42.876240 -355.999969 -352.688141
v 42.876240 -355.999969 -365.000031
v 66.430702 -354.999969 -365.000031
v 70.544563 -354.999969 -365.000031
v 73.529709 -354.999969 -357.292145
v 75.594070 -354.999969 -359.178223
v 75.712883 -354.999969 -355.094116
v 77.747528 -354.999969 -356.891144
v 80.272293 -354.999969 -350.000031
v 84.282181 -354.999969 -350.000031
v 81.089111 -354.999969 -365.000031
v 85.826729 -354.999969 -365.000031
v 70.915840 -354.999969 -350.000031
v 66.297028 -354.999969 -350.000031
v 73.529709 -355.999969 -357.292145
v 66.430702 -355.999969 -365.000031
v 70.544563 -355.999969 -365.000031
v 75.594070 -355.999969 -359.178223
v 81.089111 -355.999969 -365.000031
v 85.826729 -355.999969 -365.000031
v 77.747528 -355.999969 -356.891144
v 84.282181 -355.999969 -350.000031
v 80.272293 -355.999969 -350.000031
v 75.712883 -355.999969 -355.094116
v 70.915840 -355.999969 -350.000031
v 66.297028 -355.999969 -350.000031
vn -0.0000 -1.0000 -0.0000
vn 1.0000 -0.0000 -0.0000
vn -0.0000 -0.0000 1.0000
vn -1.0000 -0.0000 -0.0000
vn -0.0000 -0.0000 -1.0000
vn 0.0797 -0.0000 -0.9968
vn 0.3523 -0.0000 -0.9359
vn 0.3524 -0.0000 -0.9359
vn 0.7855 -0.0000 -0.6188
vn 0.7856 -0.0000 -0.6188
vn 0.9855 -0.0000 -0.1697
vn 0.9855 -0.0000 0.1697
vn 0.7856 -0.0000 0.6188
vn 0.7855 -0.0000 0.6188
vn 0.3524 -0.0000 0.9359
vn 0.3523 -0.0000 0.9359
vn 0.0797 -0.0000 0.9968
vn 0.0888 -0.0000 -0.9961
vn 0.3999 -0.0000 -0.9166
vn 0.8441 -0.0000 -0.5361
vn 0.8442 -0.0000 -0.5360
vn 0.9909 -0.0000 -0.1346
vn 0.9908 -0.0000 0.1350
vn 0.8408 -0.0000 0.5414
vn 0.8408 -0.0000 0.5413
vn 0.3914 -0.0000 0.9202
vn 0.3915 -0.0000 0.9202
vn 0.0866 -0.0000 0.9962
vn 0.0865 -0.0000 0.9963
vn -0.9785 -0.0000 0.2064
vn -0.7440 -0.0000 0.6682
vn -0.3655 -0.0000 0.9308
vn -0.0923 -0.0000 0.9957
vn -0.2628 -0.0000 -0.9649
vn -0.2627 -0.0000 -0.9649
vn -0.5814 -0.0000 -0.8136
vn -0.8541 -0.0000 -0.5201
vn -0.9872 -0.0000 -0.1595
vn -0.9856 -0.0000 0.1693
vn -0.8314 -0.0000 0.5557
vn -0.8314 -0.0000 0.5556
vn -0.5386 -0.0000 0.8425
vn -0.5386 -0.0000 0.8426
vn -0.2479 -0.0000 0.9688
vn -0.1117 -0.0000 -0.9937
vn -0.4453 -0.0000 -0.8954
vn -0.8339 -0.0000 -0.5519
vn -0.9889 -0.0000 -0.1488
vn 0.9939 -0.0000 -0.1102
vn 0.8822 -0.0000 -0.4708
vn 0.4490 -0.0000 -0.8935
vn 0.1020 -0.0000 -0.9948
vn 0.1010 -0.0000 0.9949
vn 0.4454 -0.0000 0.8953
vn 0.8819 -0.0000 0.4715
vn 0.9940 -0.0000 0.1096
vn -0.9940 -0.0000 0.1096
vn -0.8819 -0.0000 0.4715
vn -0.4454 -0.0000 0.8953
vn -0.1010 -0.0000 0.9949
vn -0.1011 -0.0000 0.9949
vn -0.1020 -0.0000 -0.9948
vn -0.4490 -0.0000 -0.8935
vn -0.8822 -0.0000 -0.4708
vn -0.9939 -0.0000 -0.1102
vn -0.0000 -1.0000 0.0001
vn -0.9954 -0.0000 -0.0954
vn -0.9974 -0.0000 -0.0727
vn -0.9988 -0.0000 -0.0485
vn -0.9998 -0.0000 -0.0190
vn 0.6694 -0.0000 0.7429
vn 0.6814 -0.0000 0.7319
vn 0.7025 -0.0000 0.7116
vn 0.7298 -0.0000 0.6836
vn 0.7298 -0.0000 0.6837
vn 0.6441 -0.0000 0.7649
vn 0.9976 -0.0000 0.0687
vn 0.9980 -0.0000 0.0625
vn 0.9989 -0.0000 0.0477
vn 0.9998 -0.0000 0.0217
vn -0.6489 -0.0000 -0.7609
vn -0.6690 -0.0000 -0.7433
vn -0.7038 -0.0000 -0.7104
vn -0.7500 -0.0000 -0.6614
vn -0.7501 -0.0000 -0.6614
vn -0.6418 -0.0000 -0.7669
vn 0.7356 -0.0000 -0.6774
vn 0.7356 -0.0000 -0.6775
vn -0.7554 -0.0000 0.6552
vn 0.7272 -0.0000 0.6864
vn -0.7084 -0.0000 -0.7058
vn -0.7256 -0.0000 0.6881
vn 0.7451 -0.0000 -0.6669
vn -0.7280 -0.0000 -0.6856
vn 0.7100 -0.0000 0.7042
s 0
f 1//1 2//1 3//1
f 3//1 2//1 4//1
f 3//2 5//2 1//2
f 1//2 5//2 6//2
f 1//3 6//3 2//3
f 2//3 6//3 7//3
f 2//4 7//4 4//4
f 4//4 7//4 8//4
f 4//5 8//5 3//5
f 3//5 8//5 5//5
f 9//3 10//3 11//3
f 11//3 10//3 12//3
f 13//4 14//4 9//4
f 9//4 14//4 10//4
f 15//5 16//5 13//5
f 13//5 16//5 14//5
f 15//6 17//6 16//6
f 16//6 17//6 18//6
f 18//7 17//7 19//7
f 18//8 19//8 20//8
f 20//9 19//9 21//9
f 20//10 21//10 22//10
f 22//11 21//11 23//11
f 22//11 23//11 24//11
f 25//2 26//2 23//2
f 23//2 26//2 24//2
f 25//12 27//12 26//12
f 26//12 27//12 28//12
f 28//13 27//13 29//13
f 28//14 29//14 30//14
f 30//15 29//15 31//15
f 30//16 31//16 32//16
f 32//17 31//17 11//17
f 32//17 11//17 12//17
f 33//3 34//3 35//3
f 35//3 34//3 36//3
f 37//4 38//4 33//4
f 33//4 38//4 34//4
f 39//5 40//5 37//5
f 37//5 40//5 38//5
f 39//18 41//18 40//18
f 40//18 41//18 42//18
f 42//19 41//19 43//19
f 42//19 43//19 44//19
f 44//20 43//20 45//20
f 44//21 45//21 46//21
f 46//22 45//22 47//22
f 46//22 47//22 48//22
f 49//2 50//2 47//2
f 47//2 50//2 48//2
f 49//23 51//23 50//23
f 50//23 51//23 52//23
f 52//24 51//24 53//24
f 52//25 53//25 54//25
f 54//26 53//26 55//26
f 54//27 55//27 56//27
f 56//28 55//28 35//28
f 56//29 35//29 36//29
f 11//1 57//1 9//1
f 9//1 57//1 58//1
f 9//1 58//1 13//1
f 13//1 58//1 33//1
f 13//1 33//1 35//1
f 11//1 31//1 57//1
f 57//1 31//1 29//1
f 57//1 29//1 27//1
f 27//1 25//1 57//1
f 57//1 25//1 59//1
f 57//1 59//1 60//1
f 60//1 59//1 61//1
f 60//1 61//1 62//1
f 62//1 61//1 63//1
f 62//1 63//1 64//1
f 64//1 63//1 65//1
f 64//1 65//1 66//1
f 66//1 65//1 67//1
f 25//1 23//1 59//1
f 59//1 23//1 49//1
f 59//1 49//1 47//1
f 49//1 23//1 51//1
f 51//1 23//1 21//1
f 51//1 21//1 53//1
f 53//1 21//1 19//1
f 53//1 19//1 55//1
f 55//1 19//1 17//1
f 55//1 17//1 35//1
f 35//1 17//1 15//1
f 35//1 15//1 13//1
f 59//1 47//1 68//1
f 68//1 47//1 45//1
f 68//1 45//1 43//1
f 68//1 43//1 69//1
f 69//1 43//1 41//1
f 69//1 41//1 39//1
f 39//1 37//1 69//1
f 69//1 37//1 70//1
f 70//1 37//1 33//1
f 70//1 33//1 58//1
f 59//1 68//1 71//1
f 71//1 68//1 72//1
f 71//1 72//1 73//1
f 73//1 72//1 74//1
f 73//1 74//1 75//1
f 75//1 74//1 76//1
f 75//1 76//1 77//1
f 58//2 78//2 70//2
f 70//2 78//2 79//2
f 70//3 79//3 69//3
f 69//3 79//3 80//3
f 76//30 74//30 81//30
f 81//30 74//30 82//30
f 82//31 74//31 72//31
f 82//31 72//31 83//31
f 83//32 72//32 68//32
f 83//32 68//32 84//32
f 84//33 68//33 69//33
f 84//33 69//33 80//33
f 76//4 81//4 77//4
f 77//4 81//4 85//4
f 59//34 71//34 86//34
f 86//35 71//35 87//35
f 87//36 71//36 73//36
f 87//36 73//36 88//36
f 88//37 73//37 75//37
f 88//37 75//37 89//37
f 89//38 75//38 77//38
f 89//38 77//38 85//38
f 67//39 65//39 90//39
f 90//39 65//39 91//39
f 91//40 65//40 63//40
f 91//41 63//41 92//41
f 92//42 63//42 61//42
f 92//43 61//43 93//43
f 93//44 61//44 59//44
f 93//44 59//44 86//44
f 67//4 90//4 66//4
f 66//4 90//4 94//4
f 57//45 60//45 95//45
f 95//45 60//45 96//45
f 96//46 60//46 62//46
f 96//46 62//46 97//46
f 97//47 62//47 64//47
f 97//47 64//47 98//47
f 98//48 64//48 66//48
f 98//48 66//48 94//48
f 57//5 95//5 58//5
f 58//5 95//5 78//5
f 99//5 100//5 101//5
f 101//5 100//5 102//5
f 103//2 104//2 99//2
f 99//2 104//2 100//2
f 105//3 106//3 103//3
f 103//3 106//3 104//3
f 101//4 102//4 105//4
f 105//4 102//4 106//4
f 101//1 107//1 99//1
f 99//1 107//1 108//1
f 99//1 108//1 109//1
f 109//1 108//1 110//1
f 110//1 108//1 111//1
f 110//1 111//1 112//1
f 112//1 111//1 113//1
f 105//1 114//1 101//1
f 101//1 114//1 115//1
f 101//1 115//1 116//1
f 103//1 117//1 105//1
f 105//1 117//1 118//1
f 105//1 118//1 114//1
f 117//1 103//1 109//1
f 109//1 103//1 99//1
f 114//1 119//1 115//1
f 115//1 119//1 120//1
f 120//1 119//1 121//1
f 120//1 121//1 122//1
f 123//1 124//1 119//1
f 119//1 124//1 121//1
f 116//1 107//1 101//1
f 112//1 125//1 110//1
f 110//1 125//1 126//1
f 124//49 123//49 127//49
f 127//49 123//49 128//49
f 128//50 123//50 119//50
f 128//50 119//50 129//50
f 129//51 119//51 114//51
f 129//51 114//51 130//51
f 130//52 114//52 118//52
f 130//52 118//52 131//52
f 124//2 127//2 121//2
f 121//2 127//2 132//2
f 116//53 115//53 133//53
f 133//53 115//53 134//53
f 134//54 115//54 120//54
f 134//54 120//54 135//54
f 135//55 120//55 122//55
f 135//55 122//55 136//55
f 136//56 122//56 121//56
f 136//56 121//56 132//56
f 116//3 133//3 107//3
f 107//3 133//3 137//3
f 112//57 113//57 138//57
f 138//57 113//57 139//57
f 139//58 113//58 111//58
f 139//58 111//58 140//58
f 140//59 111//59 108//59
f 140//59 108//59 141//59
f 141//60 108//60 107//60
f 141//61 107//61 137//61
f 112//4 138//4 125//4
f 125//4 138//4 142//4
f 117//62 109//62 143//62
f 143//62 109//62 144//62
f 144//63 109//63 110//63
f 144//63 110//63 145//63
f 145//64 110//64 126//64
f 145//64 126//64 146//64
f 146//65 126//65 125//65
f 146//65 125//65 142//65
f 117//5 143//5 118//5
f 118//5 143//5 131//5
f 147//1 148//1 149//1
f 149//1 148//1 150//1
f 149//1 150//1 151//1
f 151//1 150//1 152//1
f 153//1 154//1 151//1
f 151//66 154//66 155//66
f 151//1 155//1 149//1
f 149//1 156//1 147//1
f 147//1 156//1 157//1
f 147//1 157//1 158//1
f 158//1 159//1 147//1
f 147//1 159//1 160//1
f 160//1 159//1 161//1
f 160//1 161//1 162//1
f 162//1 161//1 163//1
f 163//1 161//1 164//1
f 164//1 161//1 165//1
f 165//1 161//1 166//1
f 165//1 166//1 167//1
f 167//1 166//1 168//1
f 167//1 168//1 169//1
f 169//1 168//1 170//1
f 169//66 170//66 171//66
f 168//1 172//1 170//1
f 148//2 173//2 150//2
f 150//2 173//2 174//2
f 150//3 174//3 152//3
f 152//3 174//3 175//3
f 152//4 175//4 151//4
f 151//4 175//4 176//4
f 149//67 155//67 177//67
f 177//67 155//67 178//67
f 178//68 155//68 154//68
f 178//68 154//68 179//68
f 179//69 154//69 153//69
f 179//69 153//69 180//69
f 180//70 153//70 151//70
f 180//70 151//70 176//70
f 159//71 158//71 181//71
f 181//71 158//71 182//71
f 182//72 158//72 157//72
f 182//72 157//72 183//72
f 183//73 157//73 156//73
f 183//73 156//73 184//73
f 184//74 156//74 149//74
f 184//75 149//75 177//75
f 159//76 181//76 161//76
f 161//76 181//76 185//76
f 161//3 185//3 166//3
f 166//3 185//3 186//3
f 166//4 186//4 168//4
f 168//4 186//4 187//4
f 168//5 187//5 172//5
f 172//5 187//5 188//5
f 172//2 188//2 170//2
f 170//2 188//2 189//2
f 165//77 167//77 190//77
f 190//77 167//77 191//77
f 191//78 167//78 169//78
f 191//78 169//78 192//78
f 192//79 169//79 171//79
f 192//79 171//79 193//79
f 193//80 171//80 170//80
f 193//80 170//80 189//80
f 160//81 162//81 194//81
f 194//81 162//81 195//81
f 195//82 162//82 163//82
f 195//82 163//82 196//82
f 196//83 163//83 164//83
f 196//83 164//83 197//83
f 197//84 164//84 165//84
f 197//85 165//85 190//85
f 160//86 194//86 147//86
f 147//86 194//86 198//86
f 147//5 198//5 148//5
f 148//5 198//5 173//5
f 199//1 200//1 201//1
f 201//1 200//1 202//1
f 201//1 202//1 203//1
f 200//1 199//1 204//1
f 204//1 199//1 205//1
f 204//1 205//1 206//1
f 200//1 207//1 202//1
f 202//1 207//1 208//1
f 209//1 210//1 203//1
f 203//1 210//1 201//1
f 201//2 211//2 199//2
f 199//2 211//2 212//2
f 199//3 212//3 205//3
f 205//3 212//3 213//3
f 205//4 213//4 206//4
f 206//4 213//4 214//4
f 206//5 214//5 204//5
f 204//5 214//5 215//5
f 204//4 215//4 200//4
f 200//4 215//4 216//4
f 200//3 216//3 207//3
f 207//3 216//3 217//3
f 207//4 217//4 208//4
f 208//4 217//4 218//4
f 208//5 218//5 202//5
f 202//5 218//5 219//5
f 202//4 219//4 203//4
f 203//4 219//4 220//4
f 203//3 220//3 209//3
f 209//3 220//3 221//3
f 209//4 221//4 210//4
f 210//4 221//4 222//4
f 210//5 222//5 201//5
f 201//5 222//5 211//5
f 223//5 224//5 225//5
f 225//5 224//5 226//5
f 227//2 228//2 223//2
f 223//2 228//2 224//2
f 229//3 230//3 227//3
f 227//3 230//3 228//3
f 225//4 226//4 229//4
f 229//4 226//4 230//4
f 225//1 231//1 223//1
f 223//1 231//1 232//1
f 223//1 232//1 233//1
f 233//1 232//1 234//1
f 234//1 232//1 235//1
f 234//1 235//1 236//1
f 236//1 235//1 237//1
f 236//1 237//1 238//1
f 229//1 239//1 225//1
f 225//1 239//1 240//1
f 225//1 240//1 241//1
f 227//1 242//1 229//1
f 229//1 242//1 243//1
f 229//1 243//1 239//1
f 242//1 227//1 233//1
f 233//1 227//1 223//1
f 239//1 244//1 240//1
f 240//1 244//1 245//1
f 245//1 244//1 246//1
f 245//1 246//1 247//1
f 247//1 246//1 248//1
f 248//1 246//1 249//1
f 241//1 231//1 225//1
f 238//1 250//1 236//1
f 249//49 246//49 251//49
f 251//49 246//49 252//49
f 252//50 246//50 244//50
f 252//50 244//50 253//50
f 253//51 244//51 239//51
f 253//51 239//51 254//51
f 254//52 239//52 243//52
f 254//52 243//52 255//52
f 249//2 251//2 248//2
f 248//2 251//2 256//2
f 241//53 240//53 257//53
f 257//53 240//53 258//53
f 258//54 240//54 245//54
f 258//54 245//54 259//54
f 259//55 245//55 247//55
f 259//55 247//55 260//55
f 260//56 247//56 248//56
f 260//56 248//56 256//56
f 241//3 257//3 231//3
f 231//3 257//3 261//3
f 238//57 237//57 262//57
f 262//57 237//57 263//57
f 263//58 237//58 235//58
f 263//58 235//58 264//58
f 264//59 235//59 232//59
f 264//59 232//59 265//59
f 265//60 232//60 231//60
f 265//60 231//60 261//60
f 238//4 262//4 250//4
f 250//4 262//4 266//4
f 242//62 233//62 267//62
f 267//62 233//62 268//62
f 268//63 233//63 234//63
f 268//63 234//63 269//63
f 269//64 234//64 236//64
f 269//64 236//64 270//64
f 270//65 236//65 250//65
f 270//65 250//65 266//65
f 242//5 267//5 243//5
f 243//5 267//5 255//5
f 271//1 272//1 273//1
f 273//1 272//1 274//1
f 273//66 274//66 275//66
f 275//1 274//1 276//1
f 276//1 274//1 277//1
f 275//1 278//1 273//1
f 272//4 279//4 274//4
f 274//4 279//4 280//4
f 274//3 280//3 277//3
f 277//3 280//3 281//3
f 277//4 281//4 276//4
f 276//4 281//4 282//4
f 276//5 282//5 275//5
f 275//5 282//5 283//5
f 275//2 283//2 278//2
f 278//2 283//2 284//2
f 278//3 284//3 273//3
f 273//3 284//3 285//3
f 273//2 285//2 271//2
f 271//2 285//2 286//2
f 271//3 286//3 272//3
f 272//3 286//3 279//3
f 287//1 288//1 289//1
f 289//1 288//1 290//1
f 289//1 290//1 291//1
f 291//1 290//1 292//1
f 291//1 292//1 293//1
f 293//1 292//1 294//1
f 290//1 295//1 292//1
f 292//1 295//1 296//1
f 291//1 297//1 289//1
f 289//1 297//1 298//1
f 289//87 299//87 287//87
f 287//88 299//88 300//88
f 287//3 300//3 288//3
f 288//3 300//3 301//3
f 288//89 301//89 290//89
f 290//89 301//89 302//89
f 290//90 302//90 295//90
f 295//90 302//90 303//90
f 295//3 303//3 296//3
f 296//3 303//3 304//3
f 296//91 304//91 292//91
f 292//91 304//91 305//91
f 292//92 305//92 294//92
f 294//92 305//92 306//92
f 294//5 306//5 293//5
f 293//5 306//5 307//5
f 293//93 307//93 291//93
f 291//93 307//93 308//93
f 291//94 308//94 297//94
f 297//94 308//94 309//94
f 297//5 309//5 298//5
f 298//5 309//5 310//5
f 298//95 310//95 289//95
f 289//95 310//95 299//95
