# Blender 4.0.2
# www.blender.org
o MPO-500-BODY__m1
v -90.700958 -356.000000 264.249969
v -90.500000 -356.000000 264.999969
v -90.500000 -356.000000 286.999969
v -90.700958 -356.000000 287.749969
v -91.250000 -356.000000 288.299072
v -92.000000 -356.000000 288.499969
v -165.000000 -356.000000 288.499969
v -165.750000 -356.000000 288.299072
v -91.250000 -356.000000 263.700958
v -92.000000 -356.000000 263.499969
v -165.000000 -356.000000 263.499969
v -165.750000 -356.000000 263.700958
v -166.298996 -356.000000 264.249969
v -166.500000 -356.000000 264.999969
v -166.500000 -356.000000 286.999969
v -166.298996 -356.000000 287.749969
v -90.500000 -355.000000 264.999969
v -90.700958 -355.000000 264.249969
v -91.250000 -355.000000 263.700958
v -92.000000 -355.000000 263.499969
v -90.500000 -355.000000 286.999969
v -92.000000 -355.000000 288.499969
v -91.250000 -355.000000 288.299072
v -90.700958 -355.000000 287.749969
v -165.000000 -355.000000 288.499969
v -166.500000 -355.000000 286.999969
v -166.298996 -355.000000 287.749969
v -165.750000 -355.000000 288.299072
v -166.500000 -355.000000 264.999969
v -165.000000 -355.000000 263.499969
v -165.750000 -355.000000 263.700958
v -166.298996 -355.000000 264.249969
vn -0.9659 -0.0000 0.2588
vn -0.7071 -0.0000 0.7071
vn -0.2589 -0.0000 0.9659
vn -1.0000 -0.0000 -0.0000
vn -0.2587 -0.0000 -0.9660
vn -0.2588 -0.0000 -0.9659
vn -0.7071 -0.0000 -0.7071
vn -0.7072 -0.0000 -0.7070
vn -0.9659 -0.0000 -0.2588
vn -0.0000 -0.0000 -1.0000
vn 0.9659 -0.0000 -0.2589
vn 0.7072 -0.0000 -0.7070
vn 0.2588 -0.0000 -0.9659
vn 0.2587 -0.0000 -0.9660
vn 1.0000 -0.0000 -0.0000
vn 0.2589 -0.0000 0.9659
vn 0.7071 -0.0000 0.7071
vn 0.9659 -0.0000 0.2589
vn -0.0000 -0.0000 1.0000
vn -0.0000 -1.0000 -0.0000
vn -0.0000 -1.0000 0.0001
s 0
f 2//1 17//1 1//1
f 1//1 17//1 18//1
f 1//2 18//2 9//2
f 9//2 18//2 19//2
f 9//3 19//3 20//3
f 20//3 10//3 9//3
f 17//4 2//4 21//4
f 21//4 2//4 3//4
f 6//5 22//5 5//5
f 5//6 22//6 23//6
f 5//7 23//7 4//7
f 4//8 23//8 24//8
f 4//9 24//9 21//9
f 21//9 3//9 4//9
f 22//10 6//10 25//10
f 25//10 6//10 7//10
f 15//11 26//11 16//11
f 16//11 26//11 27//11
f 16//12 27//12 8//12
f 8//12 27//12 28//12
f 8//13 28//13 25//13
f 25//14 7//14 8//14
f 26//15 15//15 29//15
f 29//15 15//15 14//15
f 11//16 30//16 12//16
f 12//16 30//16 31//16
f 12//17 31//17 13//17
f 13//17 31//17 32//17
f 13//18 32//18 29//18
f 29//18 14//18 13//18
f 30//19 11//19 20//19
f 20//19 11//19 10//19
f 19//20 18//20 20//20
f 20//20 18//20 17//20
f 20//20 17//20 29//20
f 29//20 17//20 26//20
f 26//20 17//20 21//20
f 26//20 21//20 25//20
f 25//20 21//20 22//20
f 22//20 21//20 24//20
f 22//20 24//20 23//20
f 28//20 27//20 25//20
f 25//20 27//20 26//20
f 20//20 29//20 30//20
f 30//20 29//20 32//20
f 30//21 32//21 31//21
