# Blender 4.0.2
# www.blender.org
o SICK-MICROSCAN3__m0
v -49.616199 -46.250919 50.058491
v -50.234192 -46.250919 49.239410
v -49.481770 -46.250919 47.463902
v -48.463428 -46.250919 47.338242
v -47.602581 -46.250919 47.896561
v -47.301998 -46.250919 48.877609
v -47.702351 -46.250919 49.822338
v -48.616299 -46.250919 50.288712
v -47.390450 -13.140920 49.313030
v -48.049992 -13.140920 50.099041
v -49.060459 -13.140920 50.277210
v -49.949059 -13.140920 49.764179
v -50.299992 -13.140920 48.799999
v -50.181099 -46.250919 48.214722
v -49.949059 -13.140920 47.835812
v -49.060459 -13.140920 47.322788
v -48.049992 -13.140920 47.500961
v -47.390450 -13.140920 48.286968
v -48.646912 -6.307641 50.040588
v -47.885288 -6.307641 49.651951
v -47.551670 -6.307641 48.864670
v -47.802151 -6.307641 48.047138
v -48.519531 -6.307641 47.581871
v -49.368141 -6.307641 47.686581
v -49.950909 -6.307641 48.312271
v -49.995152 -6.307641 49.166180
v -49.480171 -6.307641 49.848740
v -47.608311 -6.250923 48.861740
v -47.926788 -6.250923 49.613300
v -48.653858 -6.250923 49.984299
v -47.847420 -6.250923 48.081299
v -48.532261 -6.250923 47.637138
v -49.342361 -6.250923 47.737099
v -49.898689 -6.250923 48.334400
v -49.940922 -6.250923 49.149559
v -49.449310 -6.250923 49.801159
v -47.301411 -13.140920 -48.865261
v -47.610062 -13.140920 -47.886719
v -48.475498 -13.140920 -47.335522
v -49.492760 -13.140920 -47.469559
v -50.185871 -13.140920 -48.226131
v -50.230518 -13.140920 -49.251221
v -49.605801 -13.140920 -50.065182
v -48.604031 -13.140920 -50.287151
v -47.693958 -13.140920 -49.813259
v -48.475498 -46.250919 -47.335522
v -47.610062 -46.250919 -47.886719
v -47.301411 -46.250919 -48.865261
v -47.693958 -46.250919 -49.813259
v -48.604031 -46.250919 -50.287151
v -49.605801 -46.250919 -50.065182
v -50.230518 -46.250919 -49.251221
v -50.185871 -46.250919 -48.226131
v -49.492760 -46.250919 -47.469559
v -48.529579 -6.307641 -47.579601
v -47.808380 -6.307641 -48.038940
v -47.551170 -6.307641 -48.854382
v -47.878300 -6.307641 -49.644379
v -48.636688 -6.307641 -50.039291
v -49.471500 -6.307641 -49.854321
v -49.992088 -6.307641 -49.176022
v -49.954891 -6.307641 -48.321781
v -49.377300 -6.307641 -47.691299
v -47.853378 -6.250923 -48.073471
v -48.541851 -6.250923 -47.634972
v -49.351109 -6.250923 -47.741611
v -49.902489 -6.250923 -48.343472
v -49.938011 -6.250923 -49.158951
v -49.441029 -6.250923 -49.806480
v -48.644100 -6.250923 -49.983059
v -47.920120 -6.250923 -49.606071
v -47.607841 -6.250923 -48.851910
v 30.065479 -13.140920 40.500938
v 29.896690 -13.140920 41.513031
v 29.116819 -13.140920 42.179821
v 28.090811 -13.140920 42.189331
v 27.298719 -13.140920 41.537109
v 27.111191 -13.140920 40.528332
v 27.615959 -13.140920 39.635021
v 28.576851 -13.140920 39.275162
v 29.544241 -13.140920 39.617142
v 30.065479 -46.250919 40.500938
v 29.896690 -46.250919 41.513031
v 29.116819 -46.250919 42.179821
v 28.090811 -46.250919 42.189331
v 27.298719 -46.250919 41.537109
v 27.111191 -46.250919 40.528332
v 29.544241 -46.250919 39.617142
v 28.576851 -46.250919 39.275162
v 27.615959 -46.250919 39.635021
v 29.029150 -6.307641 41.945702
v 29.679029 -6.307641 41.390041
v 29.819700 -6.307641 40.546638
v 29.385330 -6.307641 39.810139
v 28.579170 -6.307641 39.525150
v 27.778419 -6.307641 39.825031
v 27.357780 -6.307641 40.569462
v 27.514059 -6.307641 41.410110
v 28.174129 -6.307641 41.953629
v 29.629650 -6.250923 41.362141
v 29.009260 -6.250923 41.892590
v 28.193041 -6.250923 41.900162
v 27.562910 -6.250923 41.381302
v 27.413731 -6.250923 40.578789
v 27.815281 -6.250923 39.868141
v 28.579691 -6.250923 39.581871
v 29.349270 -6.250923 39.853920
v 29.763929 -6.250923 40.557011
vn 0.9207 -0.0027 0.3902
vn 0.7660 0.0027 0.6428
vn 0.4545 -0.0027 0.8907
vn 0.1736 0.0027 0.9848
vn -0.2244 -0.0027 0.9745
vn -0.5000 0.0027 0.8660
vn -0.7983 -0.0027 0.6023
vn -0.9397 0.0027 0.3420
vn -0.9987 -0.0027 -0.0517
vn -0.9397 0.0027 -0.3420
vn -0.7318 -0.0027 -0.6816
vn -0.5000 0.0027 -0.8660
vn -0.1225 -0.0027 -0.9925
vn 0.1737 0.0027 -0.9848
vn 0.5441 -0.0027 -0.8390
vn 0.7660 0.0027 -0.6428
vn 0.9561 -0.0027 -0.2929
vn 1.0000 0.0027 -0.0000
vn 0.6709 0.6848 0.2843
vn 0.6711 0.6847 0.2844
vn 0.3313 0.6847 0.6492
vn 0.6968 0.6848 -0.2135
vn 0.3966 0.6848 -0.6114
vn 0.3965 0.6848 -0.6114
vn -0.0892 0.6848 -0.7233
vn -0.5333 0.6848 -0.4967
vn -0.7278 0.6847 -0.0377
vn -0.7278 0.6848 -0.0377
vn -0.5817 0.6848 0.4389
vn -0.1635 0.6847 0.7102
vn -0.1635 0.6848 0.7102
vn 0.3312 0.6848 0.6491
vn 0.5372 -0.0000 0.8435
vn 0.9537 -0.0000 0.3008
vn 0.9239 -0.0000 -0.3826
vn 0.4619 -0.0000 -0.8870
vn -0.2163 -0.0000 -0.9763
vn -0.7933 -0.0000 -0.6089
vn -0.9991 -0.0000 0.0435
vn -0.7374 -0.0000 0.6755
vn -0.1306 -0.0000 0.9914
vn 0.6950 0.6848 0.2192
vn 0.3915 0.6848 0.6146
vn 0.3915 0.6848 0.6147
vn -0.0952 0.6848 0.7225
vn -0.5374 0.6847 0.4923
vn -0.5373 0.6848 0.4923
vn -0.7281 0.6847 0.0317
vn -0.7282 0.6847 0.0317
vn -0.5782 0.6847 -0.4437
vn -0.5781 0.6848 -0.4437
vn -0.1577 0.6848 -0.7115
vn -0.1576 0.6848 -0.7115
vn 0.3366 0.6848 -0.6464
vn 0.6734 0.6847 -0.2788
vn 0.6732 0.6849 -0.2788
vn 0.6949 0.6848 0.2192
vn 0.9864 -0.0000 0.1645
vn 0.6499 -0.0000 0.7601
vn 0.6498 -0.0000 0.7601
vn 0.0093 -0.0000 1.0000
vn -0.6357 -0.0000 0.7720
vn -0.9832 -0.0000 0.1828
vn -0.8706 -0.0000 -0.4920
vn 0.8614 -0.0000 -0.5080
vn 0.3333 -0.0000 -0.9428
vn -0.3507 -0.0000 -0.9365
vn -0.8706 -0.0000 -0.4919
vn 0.7188 0.6848 0.1199
vn 0.4736 0.6848 0.5539
vn 0.0068 0.6848 0.7287
vn 0.0068 0.6847 0.7288
vn -0.4632 0.6848 0.5626
vn -0.4633 0.6847 0.5626
vn -0.7165 0.6847 0.1332
vn -0.7165 0.6848 0.1332
vn -0.6344 0.6848 -0.3585
vn -0.2556 0.6848 -0.6824
vn 0.2429 0.6848 -0.6870
vn 0.2429 0.6848 -0.6871
vn 0.6277 0.6848 -0.3702
s 0
f 6//1 9//1 7//1
f 7//2 9//2 10//2
f 7//3 10//3 8//3
f 8//4 10//4 11//4
f 8//5 11//5 1//5
f 1//6 11//6 12//6
f 1//7 12//7 2//7
f 2//8 12//8 13//8
f 2//9 13//9 14//9
f 14//10 13//10 15//10
f 14//11 15//11 3//11
f 3//12 15//12 16//12
f 3//13 16//13 4//13
f 4//14 16//14 17//14
f 4//15 17//15 5//15
f 5//16 17//16 18//16
f 5//17 18//17 6//17
f 6//18 18//18 9//18
f 21//19 28//19 20//19
f 20//20 28//20 29//20
f 20//21 29//21 30//21
f 28//22 21//22 31//22
f 31//22 21//22 22//22
f 31//23 22//23 23//23
f 31//24 23//24 32//24
f 32//25 23//25 24//25
f 32//25 24//25 33//25
f 33//26 24//26 25//26
f 33//26 25//26 34//26
f 34//27 25//27 26//27
f 34//28 26//28 35//28
f 35//29 26//29 27//29
f 35//29 27//29 36//29
f 36//30 27//30 19//30
f 36//31 19//31 30//31
f 30//32 19//32 20//32
f 46//33 47//33 38//33
f 38//34 47//34 48//34
f 38//34 48//34 37//34
f 37//35 48//35 45//35
f 45//35 48//35 49//35
f 45//36 49//36 44//36
f 44//36 49//36 50//36
f 44//37 50//37 43//37
f 43//37 50//37 51//37
f 43//38 51//38 42//38
f 42//38 51//38 52//38
f 42//39 52//39 41//39
f 41//39 52//39 53//39
f 41//40 53//40 40//40
f 40//40 53//40 54//40
f 40//41 54//41 39//41
f 39//41 54//41 46//41
f 39//33 46//33 38//33
f 57//42 64//42 56//42
f 56//43 64//43 65//43
f 56//44 65//44 55//44
f 55//45 65//45 66//45
f 55//45 66//45 63//45
f 63//46 66//46 67//46
f 63//47 67//47 62//47
f 62//48 67//48 68//48
f 62//49 68//49 61//49
f 61//50 68//50 69//50
f 61//51 69//51 60//51
f 60//52 69//52 70//52
f 60//53 70//53 59//53
f 59//54 70//54 71//54
f 59//54 71//54 58//54
f 58//55 71//55 72//55
f 58//56 72//56 57//56
f 57//57 72//57 64//57
f 82//58 73//58 83//58
f 83//58 73//58 74//58
f 83//59 74//59 84//59
f 84//60 74//60 75//60
f 84//61 75//61 85//61
f 85//61 75//61 76//61
f 85//62 76//62 86//62
f 86//62 76//62 77//62
f 86//63 77//63 87//63
f 87//63 77//63 78//63
f 87//64 78//64 79//64
f 82//65 88//65 73//65
f 73//65 88//65 81//65
f 81//66 88//66 89//66
f 81//66 89//66 80//66
f 80//67 89//67 90//67
f 80//67 90//67 79//67
f 79//68 90//68 87//68
f 93//69 100//69 92//69
f 92//70 100//70 101//70
f 92//70 101//70 91//70
f 91//71 101//71 102//71
f 91//72 102//72 99//72
f 99//73 102//73 103//73
f 99//74 103//74 98//74
f 98//75 103//75 104//75
f 98//76 104//76 97//76
f 97//77 104//77 105//77
f 97//77 105//77 96//77
f 96//78 105//78 106//78
f 96//78 106//78 95//78
f 95//79 106//79 107//79
f 95//80 107//80 94//80
f 94//81 107//81 108//81
f 94//81 108//81 93//81
f 93//69 108//69 100//69
