# Blender 4.0.2
# www.blender.org
o SICK-MICROSCAN3__m4
v 38.220341 24.997190 -37.463131
v 38.220341 24.097191 -37.463131
v 41.733940 25.149450 -32.800430
v 41.713051 25.298170 -32.828152
v 41.740959 24.997190 -32.791119
v 41.678780 25.439871 -32.873631
v 41.678780 23.654510 -32.873631
v 41.740959 24.097191 -32.791119
v 41.713051 23.796209 -32.828152
v 41.733940 23.944920 -32.800430
v 39.489712 25.524851 -31.283190
v 39.489712 23.569530 -31.283190
v 39.296131 23.247810 -31.540091
v 41.405651 23.200590 -33.236092
v 41.320351 23.143600 -33.349289
v 41.230808 23.108860 -33.468102
v 41.139141 23.097191 -33.589748
v 39.370312 23.338160 -31.441641
v 39.435349 23.446239 -31.355330
v 38.822159 23.097191 -36.664501
v 36.150341 23.569410 -35.714691
v 38.282558 23.654350 -37.380562
v 38.248268 23.796101 -37.426071
v 38.227360 23.944860 -37.453812
v 36.204700 23.446171 -35.642551
v 36.269718 23.338131 -35.556271
v 36.343891 23.247810 -35.457840
v 38.555649 23.200590 -37.018162
v 38.640949 23.143600 -36.904961
v 38.730480 23.108860 -36.786152
v 39.296131 25.846569 -31.540091
v 41.405651 25.893789 -33.236092
v 36.343891 25.846569 -35.457840
v 38.555649 25.893789 -37.018162
v 39.435349 25.648140 -31.355330
v 36.150341 25.524969 -35.714691
v 36.204700 25.648211 -35.642551
v 36.269718 25.756250 -35.556271
v 39.370312 25.756220 -31.441641
v 38.282558 25.440020 -37.380562
v 38.640949 25.950790 -36.904961
v 38.730480 25.985519 -36.786152
v 38.822159 25.997190 -36.664501
v 38.248268 25.298281 -37.426071
v 38.227360 25.149509 -37.453812
v 41.320351 25.950790 -33.349289
v 41.139141 25.997190 -33.589748
v 41.230808 25.985519 -33.468102
v 43.636681 23.097191 -30.275419
v 45.953671 23.097191 -27.200670
v 43.097038 23.654510 -30.991541
v 43.097038 25.439871 -30.991541
v 43.034859 24.997190 -31.074051
v 43.062771 25.298170 -31.037020
v 43.041882 25.149450 -31.064739
v 43.034859 24.097191 -31.074051
v 43.062771 23.796209 -31.037020
v 43.041882 23.944920 -31.064739
v 40.964821 25.524851 -29.325661
v 40.964821 23.569530 -29.325661
v 46.555481 24.097191 -26.402040
v 46.548458 23.944860 -26.411350
v 46.527550 23.796101 -26.439100
v 46.493252 23.654350 -26.484610
v 44.304192 23.569410 -24.894159
v 44.249828 23.446171 -24.966299
v 44.184818 23.338131 -25.052580
v 44.110649 23.247810 -25.151011
v 46.220169 23.200590 -26.847010
v 46.134869 23.143600 -26.960211
v 46.045341 23.108860 -27.079020
v 45.953671 25.997190 -27.200670
v 46.045341 25.985519 -27.079020
v 46.134869 25.950790 -26.960211
v 46.220169 25.893789 -26.847010
v 44.110649 25.846569 -25.151011
v 44.184818 25.756250 -25.052580
v 44.249828 25.648211 -24.966299
v 44.304192 25.524969 -24.894159
v 46.493252 25.440020 -26.484610
v 46.527550 25.298281 -26.439100
v 46.548458 25.149509 -26.411350
v 46.555481 24.997190 -26.402040
v 41.019180 25.648140 -29.253519
v 41.084221 25.756220 -29.167210
v 41.158409 25.846569 -29.068760
v 43.370171 25.893789 -30.629080
v 43.455471 25.950790 -30.515881
v 43.545010 25.985519 -30.397070
v 43.636681 25.997190 -30.275419
v 43.545010 23.108860 -30.397070
v 43.455471 23.143600 -30.515881
v 43.370171 23.200590 -30.629080
v 41.158409 23.247810 -29.068760
v 41.084221 23.338160 -29.167210
v 41.019180 23.446239 -29.253519
v 46.469040 0.406717 -24.855101
v 46.573830 1.056649 -24.716040
v 46.573830 21.047310 -24.716040
v 46.557709 21.147310 -24.737431
v 46.513672 21.220501 -24.795891
v 46.453491 21.247280 -24.875740
v 36.594151 21.247280 -37.959518
v 36.594151 13.218010 -37.959518
v 46.182732 -0.069026 -25.235050
v 45.791592 -0.243153 -25.754110
v 37.376389 -0.243153 -36.921452
v 37.233250 -0.221212 -37.111408
v 37.094952 -0.156129 -37.294941
v 36.966148 -0.050101 -37.465851
v 37.382278 21.264740 -38.575279
v 47.262630 21.264740 -25.463610
v 40.903450 8.575168 -36.884472
v 40.537369 8.575168 -36.608608
v 40.852890 8.648894 -36.951580
v 40.481812 8.648879 -36.671940
v 40.834042 8.756193 -36.976601
v 40.462181 8.756321 -36.696388
v 40.484749 8.863701 -36.674278
v 40.852772 8.863547 -36.951729
v 40.542221 8.937423 -36.612671
v 40.903259 8.937423 -36.884731
v 37.067009 0.514689 -37.323021
v 37.067009 12.239690 -37.323021
v 37.869968 22.161180 -37.928101
v 37.683559 22.112000 -38.175468
v 37.515491 21.969271 -38.398510
v 47.322811 21.237949 -25.383760
v 47.382980 21.751410 -25.303909
v 47.249931 21.971380 -25.480471
v 47.082569 22.112551 -25.702560
v 47.366852 21.164761 -25.325310
v 47.382980 21.064770 -25.303909
v 46.897190 22.161180 -25.948561
v 37.382278 21.747049 -38.575279
v 41.195141 9.393185 -35.888748
v 41.487671 9.393185 -36.109192
v 40.978931 9.241187 -36.131351
v 40.761292 9.089263 -36.372662
v 41.856850 7.705885 -35.069118
v 41.867722 7.782464 -35.058231
v 42.121269 7.705885 -35.268372
v 42.137402 7.805884 -35.246979
v 41.896500 7.847342 -35.025600
v 42.181450 7.879090 -35.188511
v 41.938740 7.890670 -34.976212
v 42.241631 7.905884 -35.108650
v 41.987991 7.905884 -34.917511
v 41.968170 6.486532 -34.902580
v 42.241631 6.486532 -35.108650
v 42.162270 6.486532 -34.667931
v 42.355061 6.486532 -34.432190
v 42.791000 6.486532 -34.379608
v 42.546520 6.486532 -34.195381
v 47.262630 21.264740 -25.463610
v 42.674389 6.686532 -34.041309
v 42.911362 6.686532 -34.219891
v 42.677570 6.914580 -34.043709
v 42.911362 6.914580 -34.219891
v 41.367001 8.302743 -35.661430
v 41.349468 8.206416 -35.679180
v 41.659168 8.302743 -35.881599
v 41.633209 8.178661 -35.916061
v 41.303921 8.133967 -35.729961
v 41.566521 8.108114 -36.004570
v 41.241531 8.103162 -35.801109
v 41.487869 8.121540 -36.108929
v 41.177582 8.121540 -35.875111
v 41.259579 9.411740 -35.815170
v 41.566368 9.406820 -36.004749
v 41.321201 9.381046 -35.743252
v 41.633160 9.336312 -35.916119
v 41.364841 9.308547 -35.690819
v 41.659168 9.212135 -35.881599
v 41.379700 9.212135 -35.671009
v 36.961868 -0.049994 -37.462528
v 37.019489 0.125240 -37.386070
v 37.055012 0.316004 -37.338940
v 41.919369 6.501739 -34.961578
v 42.181450 6.513327 -35.188511
v 41.878319 6.545073 -35.011902
v 42.137402 6.586532 -35.246979
v 41.851349 6.609969 -35.045898
v 42.121269 6.686532 -35.268372
v 41.842621 6.686532 -35.058399
v 40.752232 8.424024 -36.365379
v 40.965630 8.272812 -36.120880
v 42.663818 6.609979 -34.052422
v 42.895241 6.586532 -34.241291
v 42.635841 6.545098 -34.085621
v 42.851181 6.513327 -34.299751
v 42.594662 6.501753 -34.135841
v 42.566319 7.905884 -34.210300
v 42.614029 7.890667 -34.150440
v 42.791000 7.905884 -34.379608
v 42.851181 7.879090 -34.299751
v 42.653999 7.847316 -34.099312
v 42.895241 7.805884 -34.241291
v 42.680168 7.782425 -34.064732
v 42.911362 7.705885 -34.219891
v 42.688610 7.705885 -34.052021
v 47.382980 25.447390 -25.303909
v 47.278179 26.097321 -25.442970
v 46.991871 26.573059 -25.822920
v 46.600731 26.747190 -26.341980
v 38.164520 26.747190 -37.537209
v 37.773380 26.573059 -38.056271
v 37.487068 26.097321 -38.436211
v 37.382278 25.447390 -38.575279
v 45.849529 9.534989 -30.320810
v 46.782520 9.044748 -29.082689
v 45.638710 9.017864 -30.600580
v 45.633492 8.512284 -30.607500
v 45.150391 9.303756 -31.248600
v 44.848431 9.035121 -31.649321
v 44.758930 9.943000 -31.768089
v 44.357349 9.895414 -32.300999
v 44.297119 10.545540 -32.380932
v 44.228748 10.040780 -32.471661
v 44.078751 10.065630 -32.670712
v 46.204578 9.740081 -29.849640
v 46.562981 9.551758 -29.374020
v 46.776070 8.420236 -29.091240
v 45.833511 7.983449 -30.342070
v 46.546211 7.926034 -29.396290
v 46.184132 7.758245 -29.876789
v 44.775791 8.512284 -31.745710
v 44.300388 8.239852 -32.376579
v 44.009151 8.512284 -32.763081
v 43.927608 7.583059 -32.871281
v 43.544701 7.676468 -33.379429
v 43.483398 6.971899 -33.460770
v 43.252701 7.480071 -33.766918
v 42.911362 7.480844 -34.219891
v 41.659168 9.035121 -35.881599
v 41.659168 8.512284 -35.881599
v 43.720680 10.570440 -33.145889
v 43.721500 10.044690 -33.144798
v 42.918991 10.304110 -34.209770
v 43.014462 9.864883 -34.083069
v 43.533890 9.696972 -33.393768
v 43.256081 9.626321 -33.762440
v 43.013088 10.744150 -34.084888
v 43.531990 10.916540 -33.396301
v 43.253948 10.984790 -33.765251
v 41.369930 8.512284 -35.663639
v 43.813629 8.512284 -32.615742
v 43.023369 8.512284 -33.651031
v 42.208641 8.512284 -34.667191
v 42.374851 7.905884 -34.447109
v 42.182072 7.905884 -34.682850
v 36.589882 13.217990 -37.956188
v 36.835468 13.028000 -37.630280
v 37.006031 12.678280 -37.403931
v 36.589882 1.056743 -37.956188
v 37.996540 1.025590 -39.055191
v 36.634548 0.623757 -37.896912
v 38.061581 0.526474 -38.979649
v 36.763451 0.240249 -37.725849
v 38.259201 0.104181 -38.775391
v 38.556438 -0.177496 -38.472950
v 38.906281 -0.277036 -38.116741
v 42.044830 -0.284105 -34.624641
v 44.871101 -0.284118 -30.875320
v 47.364109 -0.277076 -26.896601
v 47.610229 -0.177536 -26.462219
v 47.819141 0.104144 -26.093210
v 47.961090 0.526436 -25.847000
v 48.015800 1.025542 -25.763680
v 48.364151 25.468550 -26.016769
v 48.323559 25.968060 -26.110399
v 48.193508 26.390301 -26.364941
v 47.992378 26.672159 -26.739290
v 47.748451 26.771950 -27.175850
v 39.280659 26.771910 -38.409229
v 42.420731 26.778940 -34.911270
v 45.250240 26.778950 -31.157650
v 38.335861 25.468510 -39.320290
v 38.414700 25.968019 -39.255489
v 38.623470 26.390079 -39.060501
v 38.928181 26.672150 -38.763889
v 37.803391 10.378060 -38.904289
v 37.712181 10.532090 -38.833031
v 37.834221 10.190950 -38.928371
v 37.736858 3.192046 -38.852310
v 37.700851 3.006439 -38.824169
v 37.605412 2.856591 -38.749611
v 37.472221 2.768427 -38.645550
v 37.321091 2.743031 -38.527470
v 37.170761 2.775180 -38.410011
v 37.040100 2.869254 -38.307941
v 36.948891 3.023284 -38.236679
v 36.918060 3.210388 -38.212601
v 37.015419 10.209300 -38.288658
v 37.051430 10.394910 -38.316792
v 37.146870 10.544750 -38.391361
v 37.280060 10.632920 -38.495419
v 37.431190 10.658310 -38.613491
v 37.581532 10.626170 -38.730949
v 37.651562 3.197595 -38.450878
v 37.700581 3.020998 -38.668098
v 37.506008 3.027366 -38.331120
v 37.328201 3.204839 -38.198238
v 37.140350 3.033898 -38.198078
v 37.357140 2.764094 -38.501331
v 37.748920 10.196500 -38.526951
v 37.425549 10.203750 -38.274300
v 37.242538 10.379810 -38.277908
v 37.608200 10.373280 -38.410950
v 37.802761 10.366910 -38.747929
v 37.466648 10.636830 -38.586899
v 41.377232 9.035121 -35.669151
v 42.509548 9.035121 -34.312180
v 42.732738 10.304210 -34.069420
v 42.825359 9.864922 -33.940620
v 43.368969 10.916570 -33.273529
v 43.087078 10.984780 -33.639610
v 42.836239 10.744170 -33.951599
v 46.177818 9.615645 -29.209520
v 45.998310 9.729508 -29.495001
v 45.804920 9.717669 -29.793961
v 46.437302 8.731865 -28.766069
v 46.411541 9.083038 -28.819220
v 46.136902 7.865312 -29.217020
v 46.291012 8.080877 -28.979410
v 46.395432 8.382681 -28.821980
v 43.356812 7.043742 -33.178268
v 43.618801 7.407335 -32.843781
v 44.049320 8.170995 -32.286751
v 45.372341 8.512284 -30.410709
v 45.448761 8.187568 -30.286200
v 45.105839 8.512284 -30.804501
v 44.835911 8.512284 -31.195959
v 44.562592 8.512284 -31.585051
v 44.351650 8.465213 -31.879070
v 45.583912 7.935272 -30.074471
v 45.759480 7.787538 -29.802019
v 45.952000 7.763239 -29.503599
v 46.321411 9.390627 -28.973940
v 45.622742 9.581271 -30.067789
v 45.475842 9.337557 -30.281759
v 45.384239 9.017864 -30.408810
v 44.983959 9.235882 -31.004410
v 44.730011 9.627667 -31.381639
v 44.497101 10.075990 -31.724270
v 44.341221 10.344020 -31.949711
v 43.956150 10.586750 -32.484428
v 43.554359 10.570440 -33.020561
v 43.070351 9.626322 -33.622501
v 43.597389 9.035121 -32.919300
v 43.353931 9.696971 -33.258171
v 43.547852 10.044690 -33.013962
v 43.892021 10.064270 -32.555691
v 44.059200 10.035760 -32.328300
v 44.193138 9.868371 -32.140041
v 44.639610 9.035121 -31.491961
v 43.034340 7.479774 -33.607738
v 42.685471 7.480844 -34.049660
v 43.342209 7.684286 -33.215721
v 42.996380 6.919007 -33.640411
v 44.628132 9.202465 -31.703279
v 44.519939 9.399745 -31.846849
v 44.373268 9.677723 -32.041489
v 44.284939 9.830116 -32.158710
v 44.243660 9.894100 -32.213490
v 44.203800 9.950696 -32.266392
v 44.166431 9.996013 -32.315971
v 44.130772 10.029060 -32.363300
v 44.093269 10.052480 -32.413052
v 44.054878 10.065380 -32.464001
v 43.980122 10.067200 -32.563221
v 43.931610 10.061950 -32.627590
v 43.867691 10.056160 -32.712410
v 43.788021 10.051980 -32.818138
v 45.439941 9.028011 -30.599621
v 45.214931 9.111508 -30.898220
v 45.152481 9.162307 -30.981100
v 44.891159 9.489019 -31.327881
v 44.963799 9.382205 -31.231489
v 44.798538 9.641579 -31.450790
v 44.730911 9.761647 -31.540541
v 44.652481 9.904996 -31.644630
v 44.526661 10.130900 -31.811590
v 44.460339 10.242960 -31.899599
v 44.404942 10.327520 -31.973120
v 44.301331 10.451700 -32.110611
v 44.199409 10.529700 -32.245861
v 44.090569 10.575020 -32.390301
v 44.012051 10.586430 -32.494492
v 43.692871 10.570420 -32.918060
v 43.840672 10.575550 -32.721920
v 43.915230 10.582560 -32.622990
v 43.839481 8.417593 -32.750740
v 43.726330 8.208231 -32.900890
v 43.602329 7.970191 -33.065449
v 43.331081 7.543739 -33.425411
v 43.451431 7.707483 -33.265701
v 43.546291 7.866386 -33.139809
v 42.954990 7.473878 -33.924500
v 43.141850 7.480455 -33.676521
v 43.225990 7.490472 -33.564869
v 43.283192 7.495495 -33.488960
v 42.891682 7.476737 -34.008511
v 44.522209 8.491837 -31.845140
v 44.448318 8.467000 -31.943190
v 44.329762 8.396028 -32.100521
v 44.187691 8.241544 -32.289059
v 44.025959 7.981596 -32.503689
v 43.574471 7.181531 -33.102829
v 43.685631 7.356862 -32.955318
v 43.751621 7.471253 -32.867748
v 43.825069 7.604011 -32.770271
v 43.967312 7.872410 -32.581520
v 43.341171 6.955927 -33.412441
v 43.425671 7.013096 -33.300301
v 42.955040 6.912373 -33.924839
v 43.062759 6.917402 -33.781891
v 43.169682 6.919638 -33.640011
v 43.251202 6.926323 -33.531818
v 42.882000 6.911706 -34.021778
vn -0.7987 0.0001 0.6017
vn -0.7986 -0.0000 0.6018
vn -0.7987 -0.0000 0.6018
vn -0.7985 -0.0001 0.6021
vn 0.5878 -0.0000 0.8090
vn -0.0139 0.9998 0.0105
vn -0.7986 -0.0000 0.6019
vn -0.7987 -0.0001 0.6017
vn -0.7986 -0.0003 0.6018
vn -0.7988 -0.0002 0.6016
vn -0.7985 -0.0000 0.6020
vn -0.7988 0.0001 0.6016
vn -0.7986 0.0003 0.6018
vn -0.0139 -0.9998 0.0105
vn -0.6157 -0.0000 -0.7880
vn -0.7986 -0.0002 0.6019
vn -0.7986 0.0001 0.6018
vn -0.7986 -0.0001 0.6018
vn -0.7986 -0.0002 0.6018
vn -0.7985 0.0003 0.6020
vn -0.7987 -0.0003 0.6018
vn -0.7983 -0.0000 0.6022
vn -0.7988 -0.0000 0.6016
vn -0.7987 -0.0000 0.6017
vn -0.7985 0.0002 0.6019
vn -0.7986 0.0001 0.6019
vn -0.7986 -0.0003 0.6019
vn -0.7988 0.0003 0.6017
vn -0.7986 0.0002 0.6019
vn -0.7987 -0.0005 0.6017
vn -0.7985 -0.0000 0.6019
vn -0.7988 -0.0001 0.6017
vn -0.7988 0.0003 0.6015
vn -0.7987 -0.0002 0.6018
vn -0.7987 0.0004 0.6018
vn -0.3969 -0.7517 -0.5267
vn -0.5777 -0.2802 -0.7666
vn -0.5778 -0.2801 -0.7666
vn -0.5778 0.2793 -0.7669
vn -0.5781 0.2786 -0.7670
vn -0.3975 0.7507 -0.5276
vn -0.3977 0.7505 -0.5278
vn -0.2557 0.9053 -0.3393
vn -0.5902 0.1952 -0.7833
vn -0.5689 0.2588 -0.7807
vn -0.5084 0.5562 -0.6574
vn -0.4088 0.7069 -0.5772
vn -0.3424 0.8318 -0.4369
vn -0.1431 0.9658 -0.2162
vn -0.1174 0.9808 -0.1557
vn -0.0000 -1.0000 -0.0000
vn 0.1386 0.9657 0.2194
vn 0.1387 0.9657 0.2195
vn 0.4057 0.7069 0.5794
vn 0.4057 0.7068 0.5794
vn 0.5641 0.2588 0.7841
vn 0.5641 0.2587 0.7841
vn 0.6018 -0.0000 0.7986
vn 0.5829 -0.2487 0.7735
vn 0.5862 -0.3284 0.7406
vn 0.4273 -0.6835 0.5919
vn 0.3467 -0.8432 0.4109
vn 0.1756 -0.9502 0.2574
vn -0.0441 -0.9945 -0.0947
vn -0.1114 -0.9827 -0.1478
vn -0.1125 0.9824 -0.1492
vn -0.0439 0.9943 -0.0968
vn 0.1739 0.9507 0.2567
vn 0.3477 0.8436 0.4091
vn 0.4260 0.6844 0.5917
vn 0.5872 0.3286 0.7398
vn 0.5829 0.2488 0.7735
vn -0.1174 -0.9808 -0.1557
vn -0.1440 -0.9658 -0.2156
vn -0.3419 -0.8318 -0.4373
vn -0.4098 -0.7070 -0.5764
vn -0.5081 -0.5558 -0.6580
vn -0.5696 -0.2588 -0.7801
vn -0.5902 -0.1952 -0.7833
vn -0.2547 -0.9060 -0.3380
vn 0.5902 -0.1952 0.7833
vn 0.5949 -0.2588 0.7610
vn 0.4914 -0.5552 0.6710
vn 0.4435 -0.7069 0.5509
vn 0.3255 -0.8313 0.4506
vn 0.1692 -0.9658 0.1966
vn 0.1174 -0.9808 0.1558
vn 0.1174 0.9808 0.1558
vn 0.1703 0.9658 0.1957
vn 0.3246 0.8313 0.4511
vn 0.4450 0.7069 0.5498
vn 0.4905 0.5556 0.6714
vn 0.5959 0.2588 0.7602
vn 0.5903 0.1952 0.7833
vn 0.7986 -0.0000 -0.6018
vn 0.7987 -0.0001 -0.6017
vn 0.7986 -0.0000 -0.6019
vn 0.7987 0.0001 -0.6017
vn 0.7986 0.0001 -0.6018
vn 0.7986 -0.0002 -0.6019
vn 0.7986 -0.0001 -0.6018
vn 0.7986 0.0002 -0.6019
vn 0.7987 -0.0000 -0.6018
vn 0.7987 -0.0000 -0.6017
vn 0.7986 0.0003 -0.6018
vn -0.6018 -0.0000 -0.7986
vn -0.0000 1.0000 -0.0000
vn -0.6091 -0.1689 -0.7749
vn -0.6012 -0.1956 -0.7748
vn -0.5486 -0.4874 -0.6793
vn -0.5107 -0.5561 -0.6557
vn -0.4242 -0.7502 -0.5073
vn -0.3913 -0.7861 -0.4785
vn -0.3433 -0.8314 -0.4369
vn -0.2868 -0.8958 -0.3396
vn -0.1798 -0.9620 -0.2056
vn -0.1241 -0.9805 -0.1521
vn -0.0704 -0.9956 -0.0619
vn 0.1007 -0.9807 0.1677
vn 0.1244 -0.9652 0.2301
vn 0.3245 -0.8315 0.4510
vn 0.3860 -0.7063 0.5935
vn 0.4906 -0.5561 0.6709
vn 0.5491 -0.2586 0.7948
vn 0.5737 -0.1957 0.7954
vn 0.5736 0.1957 0.7954
vn 0.5423 0.2585 0.7994
vn 0.4952 0.5553 0.6681
vn 0.3777 0.7059 0.5993
vn 0.3289 0.8309 0.4489
vn 0.1189 0.9649 0.2341
vn 0.1008 0.9806 0.1678
vn -0.6064 0.1957 -0.7707
vn -0.6190 0.2585 -0.7416
vn -0.5058 0.5552 -0.6603
vn -0.4720 0.7059 -0.5282
vn -0.3409 0.8308 -0.4399
vn -0.1923 0.9649 -0.1788
vn -0.1335 0.9807 -0.1431
vn -0.6156 -0.0000 -0.7880
vn -0.6155 -0.0000 -0.7881
vn -0.6156 -0.0000 -0.7881
vn -0.6150 0.0003 -0.7886
vn -0.9781 -0.0161 -0.2076
vn -0.9821 0.1876 -0.0192
vn -0.8535 0.5188 -0.0499
vn -0.7003 0.5984 -0.3893
vn -0.6939 0.5907 -0.4118
vn -0.8060 0.3570 -0.4721
vn -0.6158 -0.0274 -0.7874
vn -0.3154 0.3457 -0.8837
vn 0.0344 -0.0388 -0.9987
vn 0.3466 0.3654 -0.8639
vn -0.6157 -0.0001 -0.7880
vn -0.6072 0.6441 -0.4652
vn -0.3471 0.9040 -0.2498
vn -0.1741 0.8701 -0.4610
vn -0.1615 0.6139 -0.7726
vn -0.2662 0.5919 -0.7608
vn -0.3097 0.6335 -0.7090
vn -0.9781 0.0113 -0.2080
vn 0.0348 -0.0113 -0.9993
vn 0.0349 -0.0113 -0.9993
vn 0.0352 0.0161 -0.9993
vn 0.1823 -0.1818 -0.9663
vn 0.1330 -0.5082 -0.8509
vn -0.1788 -0.6259 -0.7591
vn -0.2828 -0.6007 -0.7478
vn -0.3251 -0.3559 -0.8761
vn -0.6150 0.0275 -0.7880
vn -0.8158 -0.3446 -0.4645
vn -0.9773 0.0388 -0.2082
vn -0.9869 -0.1606 -0.0154
vn -0.8676 -0.4958 -0.0388
vn -0.7168 -0.5870 -0.3764
vn -0.7102 -0.5799 -0.3991
vn -0.6250 -0.6370 -0.4513
vn -0.3274 -0.6399 -0.6952
vn -0.1984 -0.8748 -0.4420
vn -0.3720 -0.8992 -0.2302
vn 0.6978 -0.0175 -0.7161
vn 0.6986 -0.0175 -0.7153
vn 0.7003 -0.0175 -0.7136
vn 0.7011 -0.0174 -0.7129
vn 0.7049 -0.0175 -0.7091
vn 0.7057 -0.0174 -0.7083
vn 0.7109 -0.0175 -0.7031
vn 0.7116 -0.0174 -0.7023
vn 0.7276 -0.0175 -0.6858
vn 0.7373 -0.0159 -0.6754
vn 0.7403 -0.0153 -0.6721
vn 0.7432 -0.0148 -0.6690
vn 0.7441 -0.0146 -0.6679
vn 0.7473 -0.0152 -0.6644
vn 0.7514 -0.0159 -0.6597
vn 0.7542 -0.0163 -0.6564
vn 0.7557 -0.0165 -0.6547
vn 0.7571 -0.0166 -0.6531
vn 0.7590 -0.0168 -0.6509
vn 0.7639 -0.0174 -0.6451
vn 0.7677 -0.0178 -0.6406
vn 0.7793 -0.0172 -0.6264
vn 0.7814 -0.0181 -0.6237
vn 0.7985 -0.0144 -0.6019
vn 0.7908 -0.0159 -0.6119
vn 0.7855 -0.0167 -0.6187
vn 0.8470 -0.0145 -0.5314
vn 0.8437 -0.0153 -0.5366
vn 0.8398 -0.0161 -0.5426
vn 0.8711 -0.0174 -0.4907
vn 0.8597 -0.0175 -0.5105
vn 0.8537 -0.0162 -0.5205
vn 0.8716 -0.0175 -0.4899
vn 0.8752 -0.0174 -0.4834
vn 0.8757 -0.0175 -0.4825
vn 0.8783 -0.0174 -0.4777
vn 0.8789 -0.0175 -0.4767
vn 0.8800 -0.0175 -0.4746
vn 0.8805 -0.0175 -0.4736
vn 0.8472 -0.0236 -0.5308
vn 0.8482 -0.0230 -0.5292
vn 0.8515 -0.0213 -0.5240
vn 0.7983 -0.0242 -0.6018
vn 0.7993 -0.0235 -0.6005
vn 0.8047 -0.0208 -0.5933
vn 0.7435 -0.0232 -0.6683
vn 0.7464 -0.0222 -0.6652
vn 0.7508 -0.0208 -0.6602
vn 0.8280 -0.0200 -0.5604
vn 0.8287 -0.0176 -0.5594
vn 0.8231 -0.0174 -0.5676
vn 0.8182 -0.0177 -0.5747
vn 0.8138 -0.0183 -0.5809
vn 0.8097 -0.0192 -0.5866
vn 0.8327 -0.0183 -0.5534
vn 0.8357 -0.0190 -0.5488
vn 0.8394 -0.0202 -0.5432
vn 0.8436 -0.0219 -0.5365
vn 0.8551 -0.0196 -0.5182
vn 0.8503 -0.0154 -0.5260
vn 0.8475 -0.0147 -0.5306
vn 0.8363 -0.0166 -0.5481
vn 0.8332 -0.0170 -0.5527
vn 0.8310 -0.0172 -0.5560
vn 0.8269 -0.0175 -0.5621
vn 0.8209 -0.0174 -0.5708
vn 0.8163 -0.0172 -0.5774
vn 0.8129 -0.0169 -0.5822
vn 0.8079 -0.0163 -0.5892
vn 0.7992 -0.0146 -0.6008
vn 0.8003 -0.0095 -0.5995
vn 0.7819 -0.0170 -0.6232
vn 0.7844 -0.0210 -0.6199
vn 0.7878 -0.0295 -0.6153
vn 0.7910 -0.0221 -0.6114
vn 0.7952 -0.0178 -0.6061
vn 0.7998 -0.0170 -0.6000
vn 0.8043 -0.0204 -0.5939
vn 0.8054 -0.0218 -0.5924
vn 0.8073 -0.0259 -0.5895
vn 0.7349 -0.0200 -0.6779
vn 0.7390 -0.0215 -0.6733
vn 0.7422 -0.0227 -0.6697
vn 0.7541 -0.0199 -0.6565
vn 0.7598 -0.0184 -0.6499
vn 0.7666 -0.0177 -0.6419
vn 0.7563 -0.0218 -0.6538
vn 0.7583 -0.0201 -0.6516
vn 0.7602 -0.0187 -0.6495
vn 0.7582 -0.0199 -0.6517
vn 0.7618 -0.0175 -0.6476
vn 0.7618 -0.0174 -0.6476
vn 0.7626 -0.0164 -0.6467
vn 0.7638 -0.0143 -0.6453
vn 0.7650 -0.0120 -0.6439
vn 0.7653 -0.0122 -0.6435
vn 0.7679 -0.0151 -0.6404
vn 0.7705 -0.0173 -0.6372
vn 0.7740 -0.0176 -0.6329
vn 0.7775 -0.0150 -0.6287
vn 0.7801 -0.0111 -0.6255
vn 0.7805 -0.0118 -0.6251
vn 0.7819 -0.0142 -0.6232
vn 0.7830 -0.0157 -0.6219
vn 0.7838 -0.0166 -0.6208
vn 0.7847 -0.0176 -0.6196
vn 0.7848 -0.0174 -0.6196
vn 0.7948 -0.0129 -0.6067
vn 0.7907 -0.0173 -0.6120
vn 0.7673 -0.0176 -0.6411
vn 0.7682 -0.0176 -0.6400
vn 0.7704 -0.0174 -0.6373
vn 0.7740 -0.0175 -0.6330
vn 0.7775 -0.0178 -0.6286
vn 0.7797 -0.0181 -0.6258
vn 0.7808 -0.0183 -0.6245
vn 0.7821 -0.0185 -0.6229
vn 0.7849 -0.0191 -0.6193
vn 0.7847 -0.0183 -0.6196
vn 0.7845 -0.0175 -0.6199
vn 0.7911 -0.0210 -0.6113
vn -0.4151 -0.7241 -0.5508
vn -0.3470 -0.6688 -0.6575
vn -0.3974 -0.6874 -0.6079
vn -0.5562 -0.6532 -0.5138
vn -0.4619 -0.6933 -0.5532
vn -0.4095 -0.6934 -0.5929
vn -0.4149 -0.7312 -0.5415
vn -0.3795 -0.7602 -0.5274
vn -0.3907 -0.7603 -0.5190
vn -0.3904 -0.8069 -0.4432
vn -0.4030 -0.8240 -0.3982
vn -0.3108 -0.8732 -0.3755
vn -0.2047 -0.9360 -0.2863
vn -0.2214 -0.9360 -0.2737
vn -0.0473 -0.9762 -0.2116
vn 0.1278 -0.9681 -0.2154
vn 0.0297 -0.9987 -0.0407
vn 0.0377 -0.9979 0.0529
vn 0.0400 -0.9979 0.0513
vn 0.0368 -0.9985 0.0404
vn 0.0435 -0.9990 0.0067
vn -0.0204 -0.9983 0.0548
vn -0.0116 -0.9986 0.0513
vn -0.5549 -0.6666 -0.4977
vn -0.5012 -0.6824 -0.5321
vn -0.3059 -0.6491 -0.6965
vn -0.2400 -0.8040 -0.5441
vn -0.2323 -0.7988 -0.5550
vn 0.0146 -0.9997 0.0193
vn 0.0397 -0.9991 0.0142
vn -0.0197 -0.9998 -0.0035
vn -0.1408 -0.9899 -0.0175
vn -0.1447 -0.9797 -0.1390
vn -0.4108 -0.7312 -0.5446
vn -0.2777 -0.8732 -0.4005
vn 0.0276 -0.9985 0.0474
vn 0.4481 -0.6675 0.5947
vn 0.0910 -0.9885 0.1208
vn -0.3074 -0.8597 -0.4080
vn -0.3075 -0.8597 -0.4080
vn -0.5659 -0.3397 -0.7512
vn -0.5662 -0.3396 -0.7511
vn -0.5669 0.3349 -0.7526
vn -0.5671 0.3348 -0.7525
vn -0.3101 0.8570 -0.4116
vn -0.3100 0.8570 -0.4116
vn 0.0878 0.9893 0.1167
vn 0.0880 0.9893 0.1166
vn 0.4459 0.6714 0.5919
vn 0.4460 0.6714 0.5919
vn -0.5405 0.4399 -0.7172
vn -0.3707 0.5543 -0.7452
vn -0.4394 0.7275 -0.5269
vn -0.1863 0.9233 -0.3359
vn -0.0990 0.9375 -0.3335
vn -0.0564 0.9984 -0.0031
vn 0.2602 0.9487 0.1796
vn 0.2500 0.9432 0.2190
vn 0.3527 0.7746 0.5249
vn 0.5721 0.5806 0.5793
vn 0.5353 0.4995 0.6812
vn 0.5824 0.1632 0.7963
vn 0.6842 -0.0170 0.7291
vn 0.5791 -0.1961 0.7913
vn 0.5241 -0.5293 0.6671
vn 0.5561 -0.6083 0.5664
vn 0.3382 -0.7957 0.5026
vn 0.2265 -0.9545 0.1938
vn 0.2342 -0.9592 0.1585
vn -0.0746 -0.9967 -0.0330
vn -0.1262 -0.9269 -0.3535
vn -0.2089 -0.9098 -0.3587
vn -0.4526 -0.7029 -0.5487
vn -0.5492 -0.4088 -0.7289
vn -0.3891 -0.5265 -0.7559
vn 0.0512 0.9964 0.0679
vn 0.2103 0.9711 0.1130
vn 0.4722 0.8815 0.0053
vn 0.3506 0.8927 0.2830
vn 0.3065 0.8425 0.4431
vn 0.0993 0.8800 0.4645
vn -0.1610 0.8525 0.4974
vn 0.0507 0.9711 0.2333
vn 0.3107 0.7068 0.6355
vn 0.3654 0.7482 0.5538
vn 0.3773 0.7934 0.4777
vn 0.5033 0.7460 0.4361
vn 0.4876 0.7440 0.4569
vn 0.4234 0.7102 0.5624
vn 0.3267 0.7053 0.6292
vn 0.4214 0.6832 0.5964
vn 0.4452 0.6727 0.5910
vn 0.4729 0.6723 0.5695
vn 0.4473 0.6781 0.5832
vn 0.4504 0.6792 0.5796
vn 0.4137 0.7010 0.5809
vn 0.4653 0.7004 0.5412
vn 0.5405 0.7251 0.4267
vn 0.6607 0.7205 0.2105
vn 0.5813 0.7715 0.2588
vn 0.2823 0.9076 0.3107
vn -0.1473 0.8047 0.5751
vn -0.4576 0.6381 0.6192
vn -0.2410 0.8593 0.4512
vn 0.0223 0.9955 0.0922
vn 0.1412 0.9900 0.0020
vn 0.1822 0.9776 -0.1055
vn 0.0001 1.0000 0.0001
vn -0.0300 0.9995 -0.0036
vn -0.1240 0.9920 0.0231
vn -0.0882 0.9961 -0.0040
vn 0.0003 0.9995 -0.0303
vn 0.0440 0.9973 -0.0592
vn 0.0633 0.9950 -0.0777
vn 0.3506 0.7138 0.6063
vn 0.3930 0.7363 0.5508
vn 0.3751 0.8107 0.4496
vn 0.4453 0.6833 0.5787
vn 0.4394 0.6792 0.5879
vn 0.1290 0.9698 0.2071
vn -0.0182 0.9997 -0.0164
vn -0.4310 0.6979 -0.5720
vn -0.4892 0.6672 -0.5617
vn -0.5518 0.6493 -0.5233
vn -0.3813 0.6518 -0.6555
vn -0.4992 0.6766 -0.5413
vn -0.5213 0.8525 -0.0393
vn -0.3700 0.7736 -0.5144
vn -0.4428 0.7041 -0.5551
vn -0.4136 0.7042 -0.5771
vn -0.3433 0.6624 -0.6659
vn -0.3727 0.6742 -0.6376
vn -0.0361 0.9989 0.0289
vn -0.0112 0.9998 -0.0180
vn -0.0431 0.9974 -0.0570
vn -0.0429 0.9974 -0.0572
vn -0.0493 0.9984 -0.0290
vn 0.2308 0.7765 -0.5864
vn -0.1050 0.8287 -0.5498
vn -0.3921 0.7736 -0.4978
vn 0.0172 0.9996 0.0210
vn 0.0157 0.9997 0.0209
vn 0.0154 0.9996 0.0224
vn 0.0390 0.9988 -0.0284
vn -0.0157 0.9998 -0.0147
vn -0.4175 0.6677 -0.6164
vn -0.5358 0.6635 -0.5222
vn -0.0166 0.9984 -0.0536
vn -0.7369 0.6746 0.0434
vn 0.0528 -0.9961 0.0701
vn 0.1432 -0.9881 0.0554
vn 0.1219 -0.9801 0.1564
vn 0.1993 -0.9408 0.2742
vn -0.1511 -0.8534 0.4989
vn 0.3279 -0.8368 0.4385
vn 0.4196 -0.7188 0.5543
vn 0.3758 -0.7178 0.5862
vn 0.5060 -0.6760 0.5357
vn 0.5256 -0.8254 0.2059
vn 0.4291 -0.8299 0.3567
vn 0.2635 -0.7490 0.6079
vn 0.3945 -0.7251 0.5645
vn 0.4367 -0.6920 0.5748
vn 0.4509 -0.6918 0.5640
vn 0.4418 -0.6768 0.5889
vn 0.4538 -0.6609 0.5977
vn 0.4029 -0.6597 0.6344
vn 0.4286 -0.6657 0.6109
vn -0.1363 -0.9246 0.3558
vn 0.1815 -0.9247 0.3346
vn 0.3770 -0.8255 0.4201
vn 0.4389 -0.8196 0.3683
vn 0.6483 -0.7173 0.2552
vn -0.0191 -0.9995 0.0261
vn 0.0195 -0.9996 0.0205
vn 0.0036 -0.9999 0.0130
vn 0.2622 -0.9476 -0.1827
vn 0.2233 -0.9687 -0.1084
vn 0.1533 -0.9799 0.1274
vn -0.1069 -0.9432 0.3145
vn -0.0161 -0.9997 0.0190
vn -0.0123 -0.9998 -0.0163
vn 0.0237 -0.9997 -0.0110
vn 0.0703 -0.9974 -0.0179
vn 0.1667 -0.9847 -0.0513
vn 0.3648 -0.6834 0.6324
vn 0.2929 -0.6543 0.6972
vn -0.1885 -0.8419 0.5056
vn -0.0256 -0.9643 0.2635
vn 0.0035 -0.9982 0.0590
vn 0.2105 -0.9260 0.3135
vn 0.5089 -0.7199 0.4721
vn 0.4331 -0.6768 0.5954
s 0
f 3//1 4//1 5//1
f 5//2 4//2 6//2
f 5//2 6//2 7//2
f 5//2 7//2 8//2
f 8//3 7//3 9//3
f 8//4 9//4 10//4
f 11//5 12//5 6//5
f 6//5 12//5 7//5
f 31//6 32//6 33//6
f 33//6 32//6 34//6
f 25//7 27//7 21//7
f 21//2 27//2 12//2
f 21//2 12//2 11//2
f 25//8 26//8 27//8
f 27//2 13//2 12//2
f 12//1 13//1 19//1
f 19//9 13//9 18//9
f 35//10 31//10 11//10
f 11//2 31//2 33//2
f 11//2 33//2 36//2
f 36//11 33//11 37//11
f 37//12 33//12 38//12
f 35//13 39//13 31//13
f 36//2 21//2 11//2
f 28//14 14//14 27//14
f 27//14 14//14 13//14
f 36//15 40//15 21//15
f 21//15 40//15 22//15
f 42//16 34//16 43//16
f 43//17 34//17 32//17
f 43//18 32//18 47//18
f 47//19 32//19 48//19
f 48//20 32//20 46//20
f 42//21 41//21 34//21
f 24//22 23//22 2//22
f 2//23 23//23 22//23
f 2//3 22//3 1//3
f 1//3 22//3 40//3
f 1//24 40//24 44//24
f 44//11 45//11 1//11
f 30//25 20//25 28//25
f 28//18 20//18 17//18
f 28//17 17//17 14//17
f 14//26 17//26 16//26
f 14//27 16//27 15//27
f 28//28 29//28 30//28
f 51//2 52//2 53//2
f 53//23 52//23 54//23
f 53//12 54//12 55//12
f 53//2 56//2 51//2
f 51//23 56//23 57//23
f 57//8 56//8 58//8
f 59//15 52//15 60//15
f 60//15 52//15 51//15
f 50//2 93//2 49//2
f 49//29 93//29 92//29
f 49//30 92//30 91//30
f 71//7 70//7 50//7
f 50//26 70//26 69//26
f 50//18 69//18 93//18
f 73//2 72//2 75//2
f 75//17 72//17 90//17
f 75//2 90//2 87//2
f 87//2 90//2 89//2
f 87//7 89//7 88//7
f 75//27 74//27 73//27
f 63//31 62//31 64//31
f 64//1 62//1 61//1
f 64//7 61//7 83//7
f 64//7 83//7 80//7
f 80//32 83//32 82//32
f 80//11 82//11 81//11
f 69//14 68//14 93//14
f 93//14 68//14 94//14
f 68//3 67//3 94//3
f 94//2 67//2 86//2
f 94//2 86//2 60//2
f 60//2 86//2 59//2
f 59//18 86//18 84//18
f 84//3 86//3 85//3
f 66//33 65//33 67//33
f 67//3 65//3 76//3
f 67//2 76//2 86//2
f 65//2 79//2 76//2
f 76//34 79//34 78//34
f 76//35 78//35 77//35
f 96//2 95//2 60//2
f 60//26 95//26 94//26
f 64//5 80//5 65//5
f 65//5 80//5 79//5
f 86//6 76//6 87//6
f 87//6 76//6 75//6
f 103//6 102//6 111//6
f 111//6 102//6 112//6
f 113//36 114//36 115//36
f 115//36 114//36 116//36
f 115//37 116//37 117//37
f 117//38 116//38 118//38
f 117//39 118//39 119//39
f 117//40 119//40 120//40
f 120//41 119//41 121//41
f 120//42 121//42 122//42
f 112//2 125//2 111//2
f 111//2 125//2 126//2
f 111//2 126//2 127//2
f 128//7 129//7 112//7
f 112//2 129//2 130//2
f 112//2 130//2 131//2
f 128//3 132//3 129//3
f 129//2 132//2 133//2
f 131//2 134//2 112//2
f 112//2 134//2 125//2
f 127//2 135//2 111//2
f 136//43 137//43 138//43
f 138//43 137//43 122//43
f 138//43 122//43 139//43
f 139//43 122//43 121//43
f 140//44 141//44 142//44
f 142//45 141//45 143//45
f 143//46 141//46 144//46
f 143//47 144//47 145//47
f 145//48 144//48 146//48
f 145//49 146//49 147//49
f 147//50 146//50 148//50
f 149//51 150//51 151//51
f 151//51 150//51 152//51
f 152//51 150//51 153//51
f 152//51 153//51 154//51
f 102//52 101//52 155//52
f 155//53 101//53 128//53
f 128//54 101//54 100//54
f 128//55 100//55 132//55
f 132//56 100//56 133//56
f 133//57 100//57 99//57
f 156//58 157//58 158//58
f 158//58 157//58 159//58
f 160//59 161//59 162//59
f 162//60 161//60 163//60
f 163//61 161//61 164//61
f 163//62 164//62 165//62
f 165//63 164//63 166//63
f 165//64 166//64 167//64
f 167//65 166//65 168//65
f 136//66 169//66 137//66
f 137//67 169//67 170//67
f 170//68 169//68 171//68
f 170//69 171//69 172//69
f 172//70 171//70 173//70
f 172//71 173//71 174//71
f 174//72 173//72 175//72
f 149//73 179//73 150//73
f 150//74 179//74 180//74
f 180//75 179//75 181//75
f 180//76 181//76 182//76
f 182//77 181//77 183//77
f 182//78 183//78 184//78
f 184//79 183//79 185//79
f 114//80 113//80 186//80
f 186//80 113//80 187//80
f 187//80 113//80 167//80
f 187//80 167//80 168//80
f 156//81 188//81 157//81
f 157//82 188//82 189//82
f 189//83 188//83 190//83
f 189//84 190//84 191//84
f 191//85 190//85 192//85
f 191//86 192//86 153//86
f 153//87 192//87 154//87
f 193//88 194//88 195//88
f 195//89 194//89 196//89
f 196//90 194//90 197//90
f 196//91 197//91 198//91
f 198//92 197//92 199//92
f 198//93 199//93 200//93
f 200//94 199//94 201//94
f 210//95 211//95 212//95
f 212//95 211//95 213//95
f 212//95 213//95 214//95
f 214//95 213//95 215//95
f 214//95 215//95 216//95
f 216//95 215//95 217//95
f 216//95 217//95 218//95
f 218//95 217//95 219//95
f 218//95 219//95 220//95
f 221//95 222//95 210//95
f 210//95 222//95 211//95
f 211//95 223//95 213//95
f 213//95 223//95 224//95
f 224//95 223//95 225//95
f 224//95 225//95 226//95
f 213//95 227//95 215//95
f 215//95 227//95 228//95
f 215//95 228//95 229//95
f 229//95 228//95 230//95
f 229//95 230//95 231//95
f 231//95 230//95 232//95
f 231//95 232//95 233//95
f 233//95 232//95 159//95
f 233//95 159//95 234//95
f 234//95 159//95 142//95
f 234//95 142//95 147//95
f 147//96 142//96 143//96
f 147//97 143//97 145//97
f 157//95 153//95 159//95
f 159//95 153//95 150//95
f 159//95 150//95 184//95
f 184//98 150//98 182//98
f 182//97 150//97 180//97
f 157//99 189//99 153//99
f 153//100 189//100 191//100
f 184//95 142//95 159//95
f 147//95 195//95 234//95
f 234//95 195//95 200//95
f 200//101 195//101 198//101
f 198//102 195//102 196//102
f 215//95 229//95 235//95
f 235//95 229//95 236//95
f 235//95 236//95 122//95
f 122//95 236//95 113//95
f 122//103 113//103 115//103
f 113//95 236//95 167//95
f 167//95 236//95 162//95
f 167//99 162//99 163//99
f 163//102 165//102 167//102
f 115//104 117//104 122//104
f 122//102 117//102 120//102
f 122//95 137//95 235//95
f 235//95 137//95 174//95
f 174//101 137//101 172//101
f 172//105 137//105 170//105
f 218//95 220//95 237//95
f 237//95 220//95 238//95
f 237//95 238//95 239//95
f 239//95 238//95 240//95
f 240//95 238//95 241//95
f 240//95 241//95 242//95
f 239//95 243//95 237//95
f 237//95 243//95 244//95
f 244//95 243//95 245//95
f 160//58 162//58 246//58
f 246//58 162//58 236//58
f 247//51 248//51 229//51
f 229//51 248//51 236//51
f 236//51 248//51 249//51
f 236//51 249//51 246//51
f 142//106 184//106 140//106
f 140//106 184//106 185//106
f 193//107 195//107 250//107
f 250//107 195//107 147//107
f 250//107 147//107 251//107
f 251//107 147//107 148//107
f 255//108 256//108 257//108
f 257//109 256//109 258//109
f 257//110 258//110 259//110
f 259//111 258//111 260//111
f 259//112 260//112 176//112
f 176//113 260//113 110//113
f 110//114 260//114 261//114
f 110//115 261//115 109//115
f 109//116 261//116 108//116
f 108//117 261//117 262//117
f 108//118 262//118 107//118
f 107//14 263//14 106//14
f 106//14 263//14 264//14
f 106//14 264//14 265//14
f 107//14 262//14 263//14
f 265//119 266//119 106//119
f 106//120 266//120 105//120
f 105//121 266//121 267//121
f 105//122 267//122 97//122
f 97//123 267//123 268//123
f 97//124 268//124 98//124
f 98//125 268//125 269//125
f 99//5 98//5 133//5
f 133//5 98//5 269//5
f 133//5 269//5 270//5
f 202//5 129//5 270//5
f 270//5 129//5 133//5
f 270//126 271//126 202//126
f 202//127 271//127 203//127
f 203//128 271//128 272//128
f 203//129 272//129 204//129
f 204//130 272//130 273//130
f 204//131 273//131 205//131
f 205//132 273//132 274//132
f 275//6 206//6 276//6
f 276//6 206//6 205//6
f 276//6 205//6 277//6
f 277//6 205//6 274//6
f 278//133 209//133 279//133
f 279//134 209//134 208//134
f 279//135 208//135 280//135
f 280//136 208//136 207//136
f 280//137 207//137 281//137
f 281//138 207//138 206//138
f 281//139 206//139 275//139
f 209//15 278//15 135//15
f 135//140 278//140 111//140
f 111//15 278//15 282//15
f 111//15 282//15 283//15
f 282//141 278//141 284//141
f 284//15 278//15 256//15
f 284//15 256//15 285//15
f 285//15 256//15 286//15
f 286//140 256//140 287//140
f 287//15 256//15 288//15
f 288//15 256//15 289//15
f 289//15 256//15 255//15
f 289//15 255//15 290//15
f 290//142 255//142 291//142
f 291//15 255//15 292//15
f 292//142 255//142 293//142
f 293//15 255//15 252//15
f 293//15 252//15 294//15
f 294//15 252//15 295//15
f 295//143 252//143 104//143
f 295//15 104//15 296//15
f 296//15 104//15 297//15
f 297//140 104//140 298//140
f 298//140 104//140 299//140
f 299//15 104//15 283//15
f 283//15 104//15 111//15
f 104//15 103//15 111//15
f 300//144 285//144 301//144
f 301//145 285//145 286//145
f 301//146 286//146 287//146
f 287//147 288//147 301//147
f 301//148 288//148 302//148
f 301//149 302//149 300//149
f 300//150 302//150 303//150
f 303//151 302//151 304//151
f 303//152 304//152 293//152
f 293//153 304//153 291//153
f 293//154 291//154 292//154
f 302//155 288//155 305//155
f 305//156 288//156 289//156
f 305//157 289//157 290//157
f 291//158 304//158 290//158
f 290//159 304//159 302//159
f 290//160 302//160 305//160
f 284//161 285//161 306//161
f 306//161 285//161 300//161
f 306//15 300//15 303//15
f 306//15 303//15 307//15
f 307//162 303//162 293//162
f 307//163 293//163 294//163
f 307//164 294//164 308//164
f 308//165 294//165 295//165
f 308//166 295//166 296//166
f 296//167 297//167 308//167
f 308//168 297//168 309//168
f 308//169 309//169 307//169
f 307//170 309//170 306//170
f 306//171 309//171 310//171
f 306//172 310//172 284//172
f 284//173 310//173 282//173
f 282//174 310//174 283//174
f 283//175 310//175 299//175
f 299//176 310//176 309//176
f 299//177 309//177 311//177
f 311//178 309//178 297//178
f 311//179 297//179 298//179
f 298//180 299//180 311//180
f 124//2 255//2 123//2
f 123//2 255//2 257//2
f 123//2 257//2 259//2
f 255//2 124//2 252//2
f 252//2 124//2 254//2
f 252//2 254//2 253//2
f 176//2 177//2 259//2
f 259//2 177//2 178//2
f 259//2 178//2 123//2
f 256//181 278//181 258//181
f 258//182 278//182 279//182
f 258//183 279//183 260//183
f 260//184 279//184 280//184
f 260//185 280//185 261//185
f 261//186 280//186 281//186
f 261//187 281//187 262//187
f 262//188 281//188 275//188
f 262//189 275//189 118//189
f 118//190 275//190 119//190
f 119//191 275//191 121//191
f 121//192 275//192 139//192
f 139//193 275//193 276//193
f 139//194 276//194 138//194
f 138//195 276//195 136//195
f 136//196 276//196 169//196
f 169//197 276//197 171//197
f 171//198 276//198 173//198
f 173//199 276//199 175//199
f 175//200 276//200 312//200
f 312//201 276//201 313//201
f 313//202 276//202 314//202
f 313//203 314//203 315//203
f 277//204 316//204 276//204
f 276//205 316//205 317//205
f 276//206 317//206 318//206
f 274//207 319//207 277//207
f 277//208 319//208 320//208
f 277//209 320//209 321//209
f 273//210 265//210 274//210
f 274//211 265//211 322//211
f 274//212 322//212 323//212
f 265//213 273//213 266//213
f 266//214 273//214 272//214
f 266//215 272//215 267//215
f 267//216 272//216 271//216
f 267//217 271//217 268//217
f 268//218 271//218 270//218
f 268//219 270//219 269//219
f 264//220 324//220 265//220
f 265//221 324//221 325//221
f 265//222 325//222 326//222
f 263//223 327//223 264//223
f 264//224 327//224 328//224
f 264//225 328//225 329//225
f 262//226 186//226 263//226
f 263//227 186//227 187//227
f 263//228 187//228 168//228
f 330//229 331//229 332//229
f 332//230 331//230 264//230
f 332//231 264//231 333//231
f 333//232 264//232 334//232
f 334//233 264//233 335//233
f 335//234 264//234 329//234
f 331//235 336//235 264//235
f 264//236 336//236 337//236
f 264//237 337//237 338//237
f 338//238 324//238 264//238
f 326//239 322//239 265//239
f 323//240 339//240 274//240
f 274//241 339//241 319//241
f 321//242 340//242 277//242
f 277//243 340//243 341//243
f 277//244 341//244 342//244
f 342//245 343//245 277//245
f 277//246 343//246 344//246
f 277//247 344//247 345//247
f 345//248 346//248 277//248
f 277//249 346//249 347//249
f 277//250 347//250 316//250
f 316//251 347//251 348//251
f 318//252 314//252 276//252
f 315//253 349//253 313//253
f 313//254 349//254 350//254
f 350//255 349//255 351//255
f 350//256 351//256 352//256
f 352//257 353//257 350//257
f 350//258 353//258 354//258
f 350//259 354//259 355//259
f 355//260 356//260 350//260
f 118//261 116//261 262//261
f 262//262 116//262 114//262
f 262//263 114//263 186//263
f 168//264 166//264 263//264
f 263//265 166//265 183//265
f 263//266 183//266 181//266
f 166//267 164//267 183//267
f 183//268 164//268 161//268
f 183//269 161//269 160//269
f 183//270 160//270 185//270
f 185//271 160//271 246//271
f 185//272 246//272 140//272
f 140//273 246//273 141//273
f 141//274 246//274 144//274
f 144//275 246//275 249//275
f 144//276 249//276 146//276
f 146//277 249//277 148//277
f 148//278 249//278 251//278
f 251//279 249//279 250//279
f 250//280 249//280 193//280
f 193//281 249//281 248//281
f 193//282 248//282 194//282
f 194//283 248//283 197//283
f 197//284 248//284 199//284
f 199//285 248//285 201//285
f 201//286 248//286 357//286
f 201//287 357//287 358//287
f 247//288 359//288 248//288
f 248//289 359//289 357//289
f 181//290 179//290 263//290
f 263//291 179//291 149//291
f 263//292 149//292 151//292
f 151//293 152//293 263//293
f 263//294 152//294 154//294
f 263//295 154//295 192//295
f 192//296 190//296 263//296
f 263//297 190//297 188//297
f 263//298 188//298 360//298
f 360//299 188//299 156//299
f 360//300 156//300 158//300
f 360//301 327//301 263//301
f 356//107 215//107 350//107
f 350//107 215//107 235//107
f 350//107 235//107 313//107
f 313//107 235//107 312//107
f 312//58 235//58 175//58
f 175//58 235//58 174//58
f 356//302 361//302 215//302
f 215//303 361//303 362//303
f 215//304 362//304 217//304
f 217//305 362//305 363//305
f 217//306 363//306 364//306
f 364//307 363//307 355//307
f 364//308 355//308 365//308
f 365//309 355//309 366//309
f 365//310 366//310 217//310
f 217//311 366//311 367//311
f 217//312 367//312 219//312
f 219//313 367//313 368//313
f 219//314 368//314 369//314
f 369//315 368//315 354//315
f 369//316 354//316 370//316
f 370//317 354//317 353//317
f 370//318 353//318 371//318
f 371//319 353//319 372//319
f 371//320 372//320 220//320
f 220//321 372//321 373//321
f 220//322 373//322 374//322
f 374//323 373//323 353//323
f 374//324 353//324 352//324
f 361//325 356//325 362//325
f 362//326 356//326 355//326
f 362//327 355//327 363//327
f 355//328 354//328 366//328
f 366//329 354//329 367//329
f 352//330 238//330 374//330
f 374//331 238//331 220//331
f 371//332 220//332 370//332
f 370//333 220//333 219//333
f 370//334 219//334 369//334
f 365//335 217//335 364//335
f 354//336 368//336 367//336
f 353//337 373//337 372//337
f 238//338 352//338 241//338
f 241//338 352//338 351//338
f 241//339 351//339 242//339
f 242//339 351//339 349//339
f 242//340 349//340 240//340
f 240//341 349//341 315//341
f 240//342 315//342 239//342
f 239//343 315//343 314//343
f 239//344 314//344 318//344
f 239//345 318//345 243//345
f 243//346 318//346 317//346
f 243//347 317//347 245//347
f 245//348 317//348 316//348
f 245//349 316//349 244//349
f 244//350 316//350 348//350
f 244//351 348//351 237//351
f 342//352 341//352 212//352
f 212//353 341//353 210//353
f 210//354 341//354 340//354
f 210//355 340//355 321//355
f 210//356 321//356 221//356
f 221//357 321//357 320//357
f 221//358 320//358 222//358
f 222//359 320//359 319//359
f 222//360 319//360 339//360
f 222//361 339//361 211//361
f 211//362 339//362 323//362
f 211//363 323//363 322//363
f 211//364 322//364 223//364
f 223//365 322//365 326//365
f 223//366 326//366 325//366
f 223//367 325//367 225//367
f 225//368 325//368 324//368
f 225//369 324//369 338//369
f 225//370 338//370 226//370
f 226//371 338//371 337//371
f 226//372 337//372 224//372
f 224//373 337//373 336//373
f 224//374 336//374 331//374
f 330//375 213//375 331//375
f 331//376 213//376 224//376
f 330//51 332//51 213//51
f 213//51 332//51 333//51
f 213//51 333//51 227//51
f 227//51 333//51 334//51
f 212//377 375//377 342//377
f 342//378 375//378 376//378
f 342//379 376//379 343//379
f 343//380 376//380 377//380
f 343//381 377//381 214//381
f 214//382 377//382 376//382
f 214//383 376//383 212//383
f 212//384 376//384 375//384
f 216//385 378//385 214//385
f 214//386 378//386 379//386
f 214//387 379//387 343//387
f 343//388 379//388 344//388
f 344//389 379//389 378//389
f 344//390 378//390 380//390
f 380//391 378//391 216//391
f 380//392 216//392 381//392
f 381//393 216//393 382//393
f 381//394 382//394 344//394
f 344//395 382//395 345//395
f 345//396 382//396 383//396
f 345//397 383//397 384//397
f 384//398 383//398 216//398
f 384//399 216//399 385//399
f 385//400 216//400 218//400
f 385//401 218//401 386//401
f 386//402 218//402 387//402
f 386//403 387//403 346//403
f 346//404 387//404 347//404
f 347//405 387//405 388//405
f 347//406 388//406 389//406
f 389//407 388//407 218//407
f 389//408 218//408 237//408
f 348//409 390//409 237//409
f 237//410 390//410 391//410
f 237//411 391//411 392//411
f 392//412 391//412 347//412
f 392//413 347//413 389//413
f 390//414 348//414 391//414
f 391//415 348//415 347//415
f 345//416 384//416 346//416
f 346//417 384//417 385//417
f 346//418 385//418 386//418
f 381//419 344//419 380//419
f 216//420 383//420 382//420
f 218//421 388//421 387//421
f 237//422 392//422 389//422
f 358//58 234//58 201//58
f 201//58 234//58 200//58
f 229//423 393//423 247//423
f 247//424 393//424 394//424
f 247//425 394//425 395//425
f 395//426 394//426 229//426
f 395//427 229//427 231//427
f 233//428 396//428 231//428
f 231//429 396//429 397//429
f 231//430 397//430 398//430
f 398//431 397//431 359//431
f 398//432 359//432 395//432
f 395//433 359//433 247//433
f 234//434 399//434 233//434
f 233//435 399//435 400//435
f 233//436 400//436 401//436
f 401//437 400//437 357//437
f 401//438 357//438 402//438
f 402//439 357//439 359//439
f 402//440 359//440 396//440
f 396//441 359//441 397//441
f 399//442 234//442 403//442
f 403//443 234//443 358//443
f 403//444 358//444 399//444
f 399//445 358//445 357//445
f 399//446 357//446 400//446
f 229//447 394//447 393//447
f 231//448 398//448 395//448
f 233//449 401//449 402//449
f 402//450 396//450 233//450
f 227//451 334//451 404//451
f 404//452 334//452 335//452
f 404//453 335//453 405//453
f 405//454 335//454 406//454
f 405//455 406//455 228//455
f 228//456 406//456 407//456
f 228//457 407//457 408//457
f 408//458 407//458 329//458
f 408//459 329//459 328//459
f 335//460 329//460 406//460
f 406//461 329//461 407//461
f 327//462 409//462 328//462
f 328//463 409//463 410//463
f 328//464 410//464 411//464
f 411//465 410//465 230//465
f 411//466 230//466 412//466
f 412//467 230//467 413//467
f 412//468 413//468 328//468
f 328//469 413//469 408//469
f 360//470 414//470 327//470
f 327//471 414//471 415//471
f 327//472 415//472 409//472
f 409//473 415//473 232//473
f 409//474 232//474 230//474
f 158//475 416//475 360//475
f 360//476 416//476 417//476
f 360//477 417//477 418//477
f 418//478 417//478 232//478
f 418//479 232//479 419//479
f 419//480 232//480 414//480
f 419//481 414//481 360//481
f 416//482 158//482 420//482
f 420//483 158//483 159//483
f 420//484 159//484 416//484
f 416//485 159//485 417//485
f 159//486 232//486 417//486
f 230//487 228//487 413//487
f 413//488 228//488 408//488
f 228//489 227//489 405//489
f 405//490 227//490 404//490
f 419//491 360//491 418//491
f 232//492 415//492 414//492
f 230//493 410//493 409//493
f 412//494 328//494 411//494
