# Blender 4.0.2
# www.blender.org
o SICK-MICROSCAN3__m7
v -53.500000 23.062531 -44.021099
v -53.500000 22.416121 -43.139931
v -53.500000 23.468901 -42.495499
v -53.500000 22.416121 -41.842060
v -53.500000 23.058029 -40.971100
v -53.500000 21.653250 -40.792061
v -53.500000 21.940001 -39.856369
v -53.500000 20.418900 -40.390999
v -53.500000 20.414400 -39.450001
v -53.500000 18.889999 -39.860870
v -53.500000 19.184549 -40.792061
v -53.500000 17.775280 -40.978901
v -53.500000 18.421680 -41.842060
v -53.500000 17.368900 -42.504501
v -53.500000 18.421680 -43.139931
v -53.500000 17.779779 -44.028900
v -53.500000 19.184549 -44.189930
v -53.500000 18.897800 -45.143620
v -53.500000 20.418900 -44.591000
v -53.500000 20.423401 -45.549999
v -53.500000 21.947800 -45.139118
v -53.500000 21.653250 -44.189930
v -48.500000 19.184549 -40.792061
v -48.500000 20.418900 -40.390999
v -48.500000 21.653250 -40.792061
v -48.500000 22.416121 -41.842060
v -48.500000 22.416121 -43.139931
v -48.500000 21.653250 -44.189930
v -48.500000 20.418900 -44.591000
v -48.500000 19.184549 -44.189930
v -48.500000 18.421680 -43.139931
v -48.500000 18.421680 -41.842060
v -53.999981 23.060280 -40.974998
v -53.999981 23.468901 -42.500000
v -53.999981 23.060280 -44.025002
v -53.999981 21.943899 -45.141380
v -53.999981 20.418900 -45.549999
v -53.999981 18.893900 -45.141380
v -53.999981 17.777519 -44.025002
v -53.999981 17.368900 -42.500000
v -53.999981 17.777519 -40.974998
v -53.999981 18.893900 -39.858620
v -53.999981 20.418900 -39.450001
v -53.999981 21.943899 -39.858620
v -53.500000 23.062370 40.978901
v -53.500000 22.415970 41.851059
v -53.500000 23.468750 42.504501
v -53.500000 22.415970 43.148941
v -53.500000 23.057871 44.028900
v -53.500000 21.653099 44.198940
v -53.500000 21.939850 45.143620
v -53.500000 20.418751 44.599998
v -53.500000 20.414249 45.549999
v -53.500000 18.889851 45.139118
v -53.500000 19.184401 44.198940
v -53.500000 17.775120 44.021099
v -53.500000 18.421530 43.148941
v -53.500000 17.368750 42.495499
v -53.500000 18.421530 41.851059
v -53.500000 17.779619 40.971100
v -53.500000 19.184401 40.801060
v -53.500000 18.897650 39.856369
v -53.500000 20.418751 40.400002
v -53.500000 20.423250 39.450001
v -53.500000 21.947639 39.860870
v -53.500000 21.653099 40.801060
v -48.500000 19.184401 44.198940
v -48.500000 20.418751 44.599998
v -48.500000 21.653099 44.198940
v -48.500000 22.415970 43.148941
v -48.500000 22.415970 41.851059
v -48.500000 21.653099 40.801060
v -48.500000 20.418751 40.400002
v -48.500000 19.184401 40.801060
v -48.500000 18.421530 41.851059
v -48.500000 18.421530 43.148941
v -53.999981 23.060129 44.025002
v -53.999981 23.468750 42.500000
v -53.999981 23.060129 40.974998
v -53.999981 21.943750 39.858620
v -53.999981 20.418751 39.450001
v -53.999981 18.893749 39.858620
v -53.999981 17.777370 40.974998
v -53.999981 17.368750 42.500000
v -53.999981 17.777370 44.025002
v -53.999981 18.893749 45.141380
v -53.999981 20.418751 45.549999
v -53.999981 21.943750 45.141380
v -53.500000 1.058025 44.028900
v -53.999981 1.060278 44.025002
v -53.500000 1.468897 42.504501
v -53.999981 1.468900 42.500000
v -53.500000 1.062525 40.978901
v -53.999981 1.060278 40.974998
v -53.500000 -0.052204 39.860870
v -53.999981 -0.056100 39.858620
v -53.500000 -1.576600 39.450001
v -53.999981 -1.581100 39.450001
v -53.500000 -3.102201 39.856369
v -53.999981 -3.106100 39.858620
v -53.500000 -4.220224 40.971100
v -53.999981 -4.222477 40.974998
v -53.500000 -4.631096 42.495499
v -53.999981 -4.631100 42.500000
v -53.500000 -4.224724 44.021099
v -53.999981 -4.222477 44.025002
v -53.500000 -3.109995 45.139118
v -53.999981 -3.106100 45.141380
v -53.500000 -1.585600 45.549999
v -53.999981 -1.581100 45.549999
v -53.500000 -0.059999 45.143620
v -53.999981 -0.056100 45.141380
v -53.500000 0.416119 41.851059
v -53.500000 0.416119 43.148941
v -53.500000 -0.346751 44.198940
v -53.500000 -1.581100 44.599998
v -53.500000 -2.815449 44.198940
v -53.500000 -3.578319 43.148941
v -53.500000 -3.578319 41.851059
v -53.500000 -2.815449 40.801060
v -53.500000 -1.581100 40.400002
v -53.500000 -0.346751 40.801060
v -48.500000 -2.815449 44.198940
v -48.500000 -1.581100 44.599998
v -48.500000 -0.346751 44.198940
v -48.500000 0.416119 43.148941
v -48.500000 0.416119 41.851059
v -48.500000 -0.346751 40.801060
v -48.500000 -1.581100 40.400002
v -48.500000 -2.815449 40.801060
v -48.500000 -3.578319 41.851059
v -48.500000 -3.578319 43.148941
v -55.999969 2.207204 44.324348
v -55.999969 2.623601 42.500000
v -55.999969 2.207204 40.675652
v -55.999969 1.040488 45.787369
v -55.999969 -0.645466 46.599281
v -55.999969 -2.516734 46.599281
v -55.999969 -4.202688 45.787369
v -55.999969 -5.369404 44.324348
v -55.999969 -5.785800 42.500000
v -55.999969 -5.369404 40.675652
v -55.999969 -4.202688 39.212631
v -55.999969 -2.516734 38.400719
v -55.999969 -0.645466 38.400719
v -55.999969 1.040488 39.212631
v -48.656239 7.338167 -56.000000
v -47.429249 6.985845 -56.000000
v -47.505539 5.714689 -56.000000
v -46.033981 5.738898 -56.000000
v -45.821152 4.655143 -56.000000
v -44.235859 5.220820 -56.000000
v -43.859520 4.320835 -56.000000
v -42.391029 5.534224 -56.000000
v -41.919270 4.762662 -56.000000
v -40.864868 6.617035 -56.000000
v -40.295792 5.913359 -56.000000
v -39.959660 8.254791 -56.000000
v -39.236240 7.597743 -56.000000
v -38.901932 9.559383 -56.000000
v -39.854691 10.123110 -56.000000
v -39.343761 11.499630 -56.000000
v -40.570751 11.851960 -56.000000
v -40.494461 13.123110 -56.000000
v -41.966011 13.098900 -56.000000
v -42.178841 14.182660 -56.000000
v -43.764141 13.616980 -56.000000
v -44.140480 14.516960 -56.000000
v -45.608971 13.303580 -56.000000
v -46.080730 14.075140 -56.000000
v -47.135132 12.220760 -56.000000
v -47.704208 12.924440 -56.000000
v -48.040340 10.583010 -56.000000
v -48.763748 11.240060 -56.000000
v -49.098061 9.278419 -56.000000
v -48.145309 8.714690 -56.000000
v -55.999969 25.918900 -37.182541
v -55.999969 -0.645466 -38.400719
v -55.999969 -7.081100 -37.182541
v -55.999969 -2.516734 -38.400719
v -55.999969 -4.202688 -39.212631
v -55.999969 25.918900 -47.930672
v -55.999969 24.623600 -42.500000
v -55.999969 24.207199 -40.675652
v -55.999969 23.040489 -39.212631
v -55.999969 -7.081100 -47.354660
v -55.999969 -0.645466 -46.599281
v -55.999969 19.483271 -46.599281
v -55.999969 21.354530 -46.599281
v -55.999969 -5.785800 -42.500000
v -55.999969 -5.369404 -44.324348
v -55.999969 -4.202688 -45.787369
v -55.999969 21.354530 -38.400719
v -55.999969 19.483271 -38.400719
v -55.999969 17.797310 -39.212631
v -55.999969 1.040488 -39.212631
v -55.999969 16.630600 -40.675652
v -55.999969 2.207204 -40.675652
v -55.999969 16.214199 -42.500000
v -55.999969 2.623601 -42.500000
v -55.999969 2.207204 -44.324348
v -55.999969 16.630600 -44.324348
v -55.999969 1.040488 -45.787369
v -55.999969 17.797310 -45.787369
v -55.999969 23.040489 -45.787369
v -55.999969 24.207199 -44.324348
v -55.999969 -5.369404 -40.675652
v -55.999969 -2.516734 -46.599281
v -45.525002 12.060280 53.508308
v -44.648930 11.416120 53.508308
v -44.000000 12.468900 53.508308
v -43.351059 11.416120 53.508308
v -42.474998 12.060280 53.508308
v -42.301060 10.653250 53.508308
v -41.358620 10.943900 53.508308
v -41.900002 9.418900 53.508308
v -40.950001 9.418900 53.508308
v -41.358620 7.893900 53.508308
v -42.301060 8.184552 53.508308
v -42.474998 6.777523 53.508308
v -43.351059 7.421681 53.508308
v -44.000000 6.368901 53.508308
v -44.648930 7.421681 53.508308
v -45.525002 6.777523 53.508308
v -45.698929 8.184552 53.508308
v -46.641380 7.893900 53.508308
v -46.099998 9.418900 53.508308
v -47.049999 9.418900 53.508308
v -46.641380 10.943900 53.508308
v -45.698929 10.653250 53.508308
v -53.999981 1.060278 -40.974998
v -53.999981 1.468900 -42.500000
v -53.999981 -0.056100 -39.858620
v -53.999981 -1.581100 -39.450001
v -53.999981 -3.106100 -39.858620
v -53.999981 -4.222477 -40.974998
v -53.999981 -4.631100 -42.500000
v -53.999981 -4.222477 -44.025002
v -53.999981 -3.106100 -45.141380
v -53.999981 -1.581100 -45.549999
v -53.999981 -0.056100 -45.141380
v -53.999981 1.060278 -44.025002
v -1.525000 12.060280 53.508308
v -0.648936 11.416120 53.508308
v 0.000000 12.468900 53.508308
v 0.648936 11.416120 53.508308
v 1.525000 12.060280 53.508308
v 1.698936 10.653250 53.508308
v 2.641377 10.943900 53.508308
v 2.100000 9.418900 53.508308
v 3.050000 9.418900 53.508308
v 2.641377 7.893900 53.508308
v 1.698936 8.184552 53.508308
v 1.525000 6.777523 53.508308
v 0.648936 7.421681 53.508308
v 0.000000 6.368901 53.508308
v -0.648936 7.421681 53.508308
v -1.525000 6.777523 53.508308
v -1.698936 8.184552 53.508308
v -2.641377 7.893900 53.508308
v -2.100000 9.418900 53.508308
v -3.050000 9.418900 53.508308
v -2.641377 10.943900 53.508308
v -1.698936 10.653250 53.508308
v -48.770020 6.680859 51.799999
v -49.454731 8.714690 55.599998
v -49.454731 8.714690 51.799999
v -49.308998 10.855730 55.599998
v -49.308998 10.855730 51.799999
v -48.355030 12.778020 55.599998
v -48.355030 12.778020 51.799999
v -46.738041 14.188920 55.599998
v -46.738041 14.188920 51.799999
v -44.704208 14.873630 51.799999
v -44.704208 14.873630 55.599998
v -42.563171 14.727910 51.799999
v -42.563171 14.727910 55.599998
v -40.640869 13.773930 51.799999
v -40.640869 13.773930 55.599998
v -39.229980 12.156940 51.799999
v -39.229980 12.156940 55.599998
v -38.545269 10.123110 51.799999
v -38.545269 10.123110 55.599998
v -38.690990 7.982072 51.799999
v -38.690990 7.982072 55.599998
v -39.644970 6.059776 51.799999
v -39.644970 6.059776 55.599998
v -41.261959 4.648876 51.799999
v -41.261959 4.648876 55.599998
v -43.295792 3.964170 51.799999
v -43.295792 3.964170 55.599998
v -45.436829 4.109896 51.799999
v -45.436829 4.109896 55.599998
v -47.359119 5.063871 51.799999
v -47.359119 5.063871 55.599998
v -48.770020 6.680859 55.599998
v -45.698929 10.653250 -48.491692
v -42.301060 10.653250 -48.491692
v -46.099998 9.418900 -48.491692
v -41.900002 9.418900 -48.491692
v -45.698929 8.184552 -48.491692
v -42.301060 8.184552 -48.491692
v -44.648930 7.421681 -48.491692
v -43.351059 7.421681 -48.491692
v -44.648930 11.416120 -48.491692
v -43.351059 11.416120 -48.491692
v -4.936141 10.701280 -56.000000
v -4.136536 10.172940 -56.000000
v -5.051147 8.714690 -56.000000
v -4.054056 8.303493 -56.000000
v -4.397161 6.835303 -56.000000
v -3.168622 6.654964 -56.000000
v -3.073748 5.349247 -56.000000
v -1.655602 5.553866 -56.000000
v -1.282384 4.482759 -56.000000
v 0.185329 5.218286 -56.000000
v 0.704211 4.367753 -56.000000
v 1.989554 5.714689 -56.000000
v 2.583597 5.021739 -56.000000
v 4.069653 6.345152 -56.000000
v 3.399723 6.944757 -56.000000
v 4.936141 8.136516 -56.000000
v 4.136536 8.664858 -56.000000
v 5.051147 10.123110 -56.000000
v 4.054056 10.534310 -56.000000
v 4.397161 12.002500 -56.000000
v 3.168622 12.182840 -56.000000
v 3.073748 13.488550 -56.000000
v 1.655602 13.283930 -56.000000
v 1.282384 14.355040 -56.000000
v -0.185329 13.619520 -56.000000
v -0.704211 14.470050 -56.000000
v -1.989554 13.123110 -56.000000
v -2.583597 13.816060 -56.000000
v -4.069653 12.492650 -56.000000
v -3.399723 11.893050 -56.000000
v -46.104759 14.500240 -55.599998
v -45.866421 14.592530 -51.799999
v -44.000000 14.918900 -55.599998
v -43.744480 14.912960 -51.799999
v -41.895241 14.500240 -55.599998
v -41.661449 14.396970 -51.799999
v -40.110909 13.307990 -55.599998
v -39.934441 13.123110 -51.799999
v -38.918659 11.523660 -55.599998
v -38.826370 11.285320 -51.799999
v -38.500000 9.418900 -55.599998
v -38.505939 9.163385 -51.799999
v -38.918659 7.314141 -55.599998
v -39.021931 7.080348 -51.799999
v -40.110909 5.529813 -55.599998
v -40.295792 5.353335 -51.799999
v -41.895241 4.337563 -55.599998
v -42.133579 4.245268 -51.799999
v -44.000000 3.918900 -55.599998
v -44.255508 3.924839 -51.799999
v -46.104759 4.337563 -55.599998
v -46.338551 4.440831 -51.799999
v -47.889091 5.529813 -55.599998
v -48.065571 5.714689 -51.799999
v -49.081329 7.314141 -55.599998
v -49.173630 7.552480 -51.799999
v -49.500000 9.418900 -55.599998
v -49.494061 9.674416 -51.799999
v -49.081329 11.523660 -55.599998
v -48.978069 11.757450 -51.799999
v -47.889091 13.307990 -55.599998
v -47.704208 13.484460 -51.799999
v -4.770024 6.680859 51.799999
v -5.454730 8.714690 55.599998
v -5.454730 8.714690 51.799999
v -5.309004 10.855730 55.599998
v -5.309004 10.855730 51.799999
v -4.355030 12.778020 51.799999
v -4.355030 12.778020 55.599998
v -2.738042 14.188920 51.799999
v -2.738042 14.188920 55.599998
v -0.704211 14.873630 51.799999
v -0.704211 14.873630 55.599998
v 1.436829 14.727910 51.799999
v 1.436829 14.727910 55.599998
v 3.359124 13.773930 51.799999
v 3.359124 13.773930 55.599998
v 4.770024 12.156940 51.799999
v 4.770024 12.156940 55.599998
v 5.454730 10.123110 51.799999
v 5.454730 10.123110 55.599998
v 5.309004 7.982072 51.799999
v 5.309004 7.982072 55.599998
v 4.355030 6.059776 51.799999
v 4.355030 6.059776 55.599998
v 2.738042 4.648876 51.799999
v 2.738042 4.648876 55.599998
v 0.704211 3.964170 51.799999
v 0.704211 3.964170 55.599998
v -1.436829 4.109896 51.799999
v -1.436829 4.109896 55.599998
v -3.359124 5.063871 51.799999
v -3.359124 5.063871 55.599998
v -4.770024 6.680859 55.599998
v 4.711786 11.370590 56.000000
v 4.099280 10.354530 56.000000
v 5.100000 9.418900 56.000000
v 4.099280 8.483266 56.000000
v 4.711786 7.467214 56.000000
v 3.287367 6.797312 56.000000
v 3.606245 5.812656 56.000000
v 1.824351 5.630596 56.000000
v 1.951686 4.707115 56.000000
v 0.000000 5.214199 56.000000
v 0.000000 4.318900 56.000000
v -1.951686 4.707115 56.000000
v -1.824351 5.630596 56.000000
v -3.606245 5.812656 56.000000
v -3.287367 6.797312 56.000000
v -4.711786 7.467214 56.000000
v -4.099280 8.483266 56.000000
v -5.100000 9.418900 56.000000
v -4.099280 10.354530 56.000000
v -4.711786 11.370590 56.000000
v -3.287367 12.040490 56.000000
v -3.606245 13.025140 56.000000
v -1.824351 13.207200 56.000000
v -1.951686 14.130680 56.000000
v 0.000000 13.623600 56.000000
v 0.000000 14.518900 56.000000
v 1.951686 14.130680 56.000000
v 1.824351 13.207200 56.000000
v 3.606245 13.025140 56.000000
v 3.287367 12.040490 56.000000
v -43.126068 12.341010 54.000000
v -44.704208 12.386490 54.000000
v -46.093658 11.636800 54.000000
v -46.922112 10.292830 54.000000
v -46.967590 8.714690 54.000000
v -46.217899 7.325241 54.000000
v -44.873932 6.496787 54.000000
v -43.295792 6.451311 54.000000
v -41.906342 7.200998 54.000000
v -41.077881 8.544972 54.000000
v -41.032410 10.123110 54.000000
v -41.782101 11.512560 54.000000
v -51.997238 9.208689 51.799999
v -51.495670 6.623380 51.799999
v -50.181831 4.341009 51.799999
v -48.198090 2.608906 51.799999
v -51.632179 11.816780 51.799999
v -50.440060 14.165020 51.799999
v -48.550060 15.998950 51.799999
v -46.166981 17.119820 51.799999
v -43.549080 17.406179 51.799999
v -40.980049 16.827000 51.799999
v -38.738281 15.445030 51.799999
v -37.066689 13.410040 51.799999
v -36.146431 10.942550 51.799999
v -36.077229 8.309943 51.799999
v -36.866589 5.797511 51.799999
v -38.428959 3.677514 51.799999
v -40.595039 2.179684 51.799999
v -43.130100 1.466336 51.799999
v -45.759418 1.614772 51.799999
v -2.338552 4.440831 -55.599998
v -3.359124 5.063871 -51.799999
v -4.065565 5.714689 -55.599998
v -4.770024 6.680859 -51.799999
v -5.173633 7.552480 -55.599998
v -5.454730 8.714690 -51.799999
v -5.494062 9.674416 -55.599998
v -5.309004 10.855730 -51.799999
v -4.978069 11.757450 -55.599998
v -4.355030 12.778020 -51.799999
v -3.704211 13.484460 -55.599998
v -2.738042 14.188920 -51.799999
v -1.866421 14.592530 -55.599998
v -0.704211 14.873630 -51.799999
v 0.255516 14.912960 -55.599998
v 1.436829 14.727910 -51.799999
v 2.338552 14.396970 -55.599998
v 3.359124 13.773930 -51.799999
v 4.065565 13.123110 -55.599998
v 4.770024 12.156940 -51.799999
v 5.454730 10.123110 -51.799999
v -1.436829 4.109896 -51.799999
v -0.255516 3.924839 -55.599998
v 0.704211 3.964170 -51.799999
v 1.866421 4.245268 -55.599998
v 2.738042 4.648876 -51.799999
v 3.704211 5.353335 -55.599998
v 4.355030 6.059776 -51.799999
v 4.978069 7.080348 -55.599998
v 5.309004 7.982072 -51.799999
v 5.494062 9.163385 -55.599998
v 5.173633 11.285320 -55.599998
v -50.181831 14.496790 -51.799999
v -51.495670 12.214420 -51.799999
v -51.997238 9.629115 -51.799999
v -51.632179 7.021025 -51.799999
v -50.440060 4.672784 -51.799999
v -48.550060 2.838857 -51.799999
v -46.166988 1.717980 -51.799999
v -43.549091 1.431618 -51.799999
v -40.980049 2.010801 -51.799999
v -38.738281 3.392767 -51.799999
v -37.066689 5.427758 -51.799999
v -36.146431 7.895252 -51.799999
v -36.077229 10.527850 -51.799999
v -36.866589 13.040290 -51.799999
v -38.428959 15.160280 -51.799999
v -40.595032 16.658119 -51.799999
v -43.130100 17.371460 -51.799999
v -45.759418 17.223030 -51.799999
v -48.198090 16.228901 -51.799999
v -53.500000 1.058025 -40.971100
v -53.500000 1.468897 -42.495499
v -53.500000 1.062525 -44.021099
v -53.500000 -0.052204 -45.139118
v -53.500000 -1.576600 -45.549999
v -53.500000 -3.102201 -45.143620
v -53.500000 -4.220224 -44.028900
v -53.500000 -4.631096 -42.504501
v -53.500000 -4.224724 -40.978901
v -53.500000 -3.109995 -39.860870
v -53.500000 -1.585600 -39.450001
v -53.500000 -0.059999 -39.856369
v -53.500000 0.416119 -43.139931
v -53.500000 0.416119 -41.842060
v -53.500000 -0.346751 -40.792061
v -53.500000 -1.581100 -40.390999
v -53.500000 -2.815449 -40.792061
v -53.500000 -3.578319 -41.842060
v -53.500000 -3.578319 -43.139931
v -53.500000 -2.815449 -44.189930
v -53.500000 -1.581100 -44.591000
v -53.500000 -0.346751 -44.189930
v 7.090756 5.714689 -51.799999
v 7.909315 8.217759 -51.799999
v 7.870777 10.850990 -51.799999
v 6.979318 13.329030 -51.799999
v 5.331541 15.383350 -51.799999
v 3.106010 16.791330 -51.799999
v 0.543894 17.400391 -51.799999
v -2.077161 17.144529 -51.799999
v -4.473124 16.051479 -51.799999
v -6.384354 14.239690 -51.799999
v -7.603740 11.905490 -51.799999
v -7.999144 9.301831 -51.799999
v -7.527715 6.710856 -51.799999
v -6.240542 4.413340 -51.799999
v -4.277110 2.658254 -51.799999
v -1.850186 1.635790 -51.799999
v 0.777234 1.456746 -51.799999
v 3.320429 2.140525 -51.799999
v 5.503803 3.613029 -51.799999
v 1.698936 8.184552 48.508308
v 2.100000 9.418900 48.508308
v 1.698936 10.653250 48.508308
v 0.648936 11.416120 48.508308
v -0.648936 11.416120 48.508308
v -1.698936 10.653250 48.508308
v -2.100000 9.418900 48.508308
v -1.698936 8.184552 48.508308
v -0.648936 7.421681 48.508308
v 0.648936 7.421681 48.508308
v -42.301060 8.184552 48.508308
v -41.900002 9.418900 48.508308
v -42.301060 10.653250 48.508308
v -43.351059 11.416120 48.508308
v -44.648930 11.416120 48.508308
v -45.698929 10.653250 48.508308
v -46.099998 9.418900 48.508308
v -45.698929 8.184552 48.508308
v -44.648930 7.421681 48.508308
v -43.351059 7.421681 48.508308
v -48.397160 6.835303 56.000000
v -48.099281 8.483266 56.000000
v -49.051151 8.714690 56.000000
v -48.099281 10.354530 56.000000
v -48.936138 10.701280 56.000000
v -48.069649 12.492650 56.000000
v -47.287369 12.040490 56.000000
v -46.583591 13.816060 56.000000
v -45.824348 13.207200 56.000000
v -44.704208 14.470050 56.000000
v -44.000000 13.623600 56.000000
v -42.717609 14.355040 56.000000
v -42.175652 13.207200 56.000000
v -40.926250 13.488550 56.000000
v -40.712631 12.040490 56.000000
v -39.602840 12.002500 56.000000
v -39.900719 10.354530 56.000000
v -38.948849 10.123110 56.000000
v -39.900719 8.483266 56.000000
v -39.063862 8.136516 56.000000
v -39.930351 6.345152 56.000000
v -40.712631 6.797312 56.000000
v -41.416401 5.021739 56.000000
v -42.175652 5.630596 56.000000
v -43.295792 4.367753 56.000000
v -44.000000 5.214199 56.000000
v -45.282379 4.482759 56.000000
v -45.824348 5.630596 56.000000
v -47.073738 5.349247 56.000000
v -47.287369 6.797312 56.000000
v -42.474998 12.060280 -53.491692
v -43.351059 11.416120 -53.491692
v -44.000000 12.468900 -53.491692
v -44.648930 11.416120 -53.491692
v -45.525002 12.060280 -53.491692
v -45.698929 10.653250 -53.491692
v -46.641380 10.943900 -53.491692
v -46.099998 9.418900 -53.491692
v -47.049999 9.418900 -53.491692
v -46.641380 7.893900 -53.491692
v -45.698929 8.184552 -53.491692
v -45.525002 6.777523 -53.491692
v -44.648930 7.421681 -53.491692
v -44.000000 6.368901 -53.491692
v -43.351059 7.421681 -53.491692
v -42.474998 6.777523 -53.491692
v -42.301060 8.184552 -53.491692
v -41.358620 7.893900 -53.491692
v -41.900002 9.418900 -53.491692
v -40.950001 9.418900 -53.491692
v -41.358620 10.943900 -53.491692
v -42.301060 10.653250 -53.491692
v -2.597596 16.985439 51.799999
v 0.000000 17.418900 51.799999
v 2.597596 16.985439 51.799999
v 4.913702 15.732020 51.799999
v 6.697332 13.794480 51.799999
v 7.755202 11.382780 51.799999
v 7.972676 8.758265 51.799999
v 7.326187 6.205337 51.799999
v 5.885791 4.000648 51.799999
v 3.807579 2.383110 51.799999
v 1.316757 1.528010 51.799999
v -1.316757 1.528010 51.799999
v -3.807579 2.383110 51.799999
v -5.885791 4.000648 51.799999
v -7.326187 6.205337 51.799999
v -7.972676 8.758265 51.799999
v -7.755202 11.382780 51.799999
v -6.697332 13.794480 51.799999
v -4.913702 15.732020 51.799999
v -1.698936 8.184552 -48.491692
v -1.698936 8.184552 -53.491692
v -2.100000 9.418900 -48.491692
v -2.100000 9.418900 -53.491692
v -1.698936 10.653250 -48.491692
v -1.698936 10.653250 -53.491692
v -0.648936 11.416120 -48.491692
v -0.648936 11.416120 -53.491692
v 0.648936 11.416120 -48.491692
v 0.648936 11.416120 -53.491692
v 1.698936 10.653250 -48.491692
v 1.698936 10.653250 -53.491692
v 2.100000 9.418900 -48.491692
v 2.100000 9.418900 -53.491692
v 1.698936 8.184552 -48.491692
v 1.698936 8.184552 -53.491692
v 0.648936 7.421681 -48.491692
v 0.648936 7.421681 -53.491692
v -0.648936 7.421681 -48.491692
v -0.648936 7.421681 -53.491692
v -48.500000 -0.346751 -40.792061
v -48.500000 -0.346751 -44.189930
v -48.500000 -1.581100 -40.390999
v -48.500000 -1.581100 -44.591000
v -48.500000 -2.815449 -40.792061
v -48.500000 -2.815449 -44.189930
v -48.500000 -3.578319 -41.842060
v -48.500000 -3.578319 -43.139931
v -48.500000 0.416119 -41.842060
v -48.500000 0.416119 -43.139931
v -1.525000 12.060280 -53.491692
v -1.525000 12.060280 -54.000000
v 0.000000 12.468900 -53.491692
v 0.000000 12.468900 -54.000000
v 1.525000 12.060280 -53.491692
v 1.525000 12.060280 -54.000000
v 2.641377 10.943900 -53.491692
v 2.641377 10.943900 -54.000000
v 3.050000 9.418900 -53.491692
v 3.050000 9.418900 -54.000000
v 2.641377 7.893900 -53.491692
v 2.641377 7.893900 -54.000000
v 1.525000 6.777523 -53.491692
v 1.525000 6.777523 -54.000000
v 0.000000 6.368901 -53.491692
v 0.000000 6.368901 -54.000000
v -1.525000 6.777523 -53.491692
v -1.525000 6.777523 -54.000000
v -2.641377 7.893900 -53.491692
v -2.641377 7.893900 -54.000000
v -3.050000 9.418900 -53.491692
v -3.050000 9.418900 -54.000000
v -2.641377 10.943900 -53.491692
v -2.641377 10.943900 -54.000000
v -55.999969 24.207050 44.324348
v -55.999969 24.623449 42.500000
v -55.999969 24.207050 40.675652
v -55.999969 23.040340 45.787369
v -55.999969 21.354380 46.599281
v -55.999969 19.483110 46.599281
v -55.999969 17.797159 45.787369
v -55.999969 16.630440 44.324348
v -55.999969 16.214050 42.500000
v -55.999969 16.630440 40.675652
v -55.999969 17.797159 39.212631
v -55.999969 19.483110 38.400719
v -55.999969 21.354380 38.400719
v -55.999969 23.040340 39.212631
v 2.641377 7.893900 -53.491692
v 0.873930 12.341010 54.000000
v -0.704211 12.386490 54.000000
v -2.093660 11.636800 54.000000
v -2.922114 10.292830 54.000000
v -2.967589 8.714690 54.000000
v -2.217902 7.325241 54.000000
v -0.873930 6.496787 54.000000
v 0.704211 6.451311 54.000000
v 2.093659 7.200998 54.000000
v 2.641377 7.893900 53.508308
v 2.922114 8.544972 54.000000
v 2.967589 10.123110 54.000000
v 2.641377 10.943900 53.508308
v 2.217902 11.512560 54.000000
v -45.525002 12.060280 -54.000000
v -44.000000 12.468900 -54.000000
v -42.474998 12.060280 -54.000000
v -41.358620 10.943900 -54.000000
v -40.950001 9.418900 -54.000000
v -41.358620 7.893900 -54.000000
v -42.474998 6.777523 -54.000000
v -44.000000 6.368901 -54.000000
v -45.525002 6.777523 -54.000000
v -46.641380 7.893900 -54.000000
v -47.049999 9.418900 -54.000000
v -46.641380 10.943900 -54.000000
v 2.641377 10.943900 -54.000000
v -55.999969 25.918900 37.182541
v -55.999969 25.918900 47.930672
v -55.999969 -7.081100 37.182541
v -55.999969 -7.081100 47.354660
v 47.554550 93.328568 -13.656110
v 47.789700 93.333061 -12.808510
v 48.009739 93.337288 -11.956870
v 48.214619 93.341263 -11.101450
v 48.813511 93.353088 -8.068626
v 48.923901 93.355339 -7.369350
v 49.024281 93.357407 -6.668567
v 49.114632 93.359306 -5.966420
v 49.278801 91.482010 -4.930786
v 49.264408 91.076363 -5.175174
v 47.220390 90.564430 15.010910
v 47.346310 86.504181 14.965520
v 47.310902 89.508858 14.815930
v 47.508732 88.613861 14.250510
v 47.840611 86.512039 13.300190
v 47.773159 88.015518 13.395390
v 48.053329 87.807533 12.374540
v 48.276390 86.518867 11.618600
v 48.255810 87.810692 11.559420
v 48.444481 87.813606 10.741000
v 48.653111 86.524673 9.922799
v 48.619270 87.816277 9.919496
v 48.669048 87.767342 9.678843
v 48.700272 86.575027 9.681934
v 48.712711 87.627068 9.475862
v 48.736549 86.716423 9.478235
v 48.744270 87.417908 9.341317
v 48.757130 86.926170 9.342636
v 48.759720 87.172203 9.294771
v 47.567871 85.007668 14.381610
v 47.415600 85.694229 14.815790
v 48.708271 84.400932 9.930617
v 48.491482 84.397591 10.940650
v 48.253761 84.393921 11.945960
v 49.293171 84.409531 6.424419
v 49.058750 93.363991 6.408745
v 49.145470 93.365181 5.705533
v 49.222111 93.366180 5.001152
v 49.686230 84.314217 -1.617642
v 49.709492 84.431610 0.000000
v 49.674068 85.042122 1.389381
v 48.450661 84.386810 -11.121270
v 49.048981 84.398651 -8.081814
v 49.159260 84.400887 -7.381073
v 47.791100 84.374130 -13.681870
v 48.026070 84.378632 -12.832270
v 48.245949 84.382851 -11.978650
v 49.446880 93.477669 -1.595058
v 49.384731 93.041740 -3.133116
v 49.310242 92.103691 -4.427262
v 49.288658 93.367020 4.295746
v 49.455238 91.720161 2.504825
v 49.472160 92.749481 1.389634
v 48.542000 93.356407 9.566959
v 48.695930 93.194618 8.773771
v 48.823860 92.732872 8.105541
v 47.405830 92.522690 14.237310
v 47.638691 93.129532 13.378940
v 47.908039 93.346619 12.357080
v 48.418011 88.860588 -10.733700
v 48.812420 87.913200 -8.906463
v 48.862000 87.914192 -8.630126
v 48.910030 87.915161 -8.353513
v 48.956490 87.916100 -8.076635
v 49.259521 84.402962 -6.678830
v 49.349758 84.404846 -5.975229
v 49.474159 85.722633 -4.469957
v 49.410511 86.348389 -4.964741
v 49.379631 86.701591 -5.174811
v 49.450630 90.072052 -3.317557
v 48.906551 89.815224 -8.073838
v 48.860081 89.814278 -8.350592
v 48.812038 89.813309 -8.627079
v 48.762440 89.812317 -8.903290
v 49.475689 93.359917 0.000000
v 49.512550 87.713272 -3.317265
v 49.465599 90.744278 -2.789380
v 49.568871 86.974861 -2.709903
v 49.493210 91.245102 -1.936236
v 49.619549 86.522392 -1.868966
v 49.518532 91.372421 -0.954913
v 49.648869 86.421410 -0.919368
v 49.650440 86.686592 0.000000
v 49.534721 91.105331 0.000000
v 49.616711 87.600830 0.985516
v 49.548889 90.189781 0.986504
v 49.574200 88.895866 1.350245
v 49.599350 84.763992 -3.173548
v 49.603630 86.066681 2.501615
v 49.523029 84.412567 4.307208
v 49.456478 84.411728 5.014015
v 49.527248 87.396729 3.221234
v 49.471081 88.890907 3.471209
v 49.448589 90.388046 3.223027
v 49.379860 84.410721 5.719799
v 47.902481 91.172363 12.604260
v 47.933769 89.979820 12.608050
v 47.963139 91.222870 12.366140
v 47.997021 89.931259 12.370210
v 48.199558 89.934433 11.555520
v 47.876820 90.119560 12.808480
v 47.852909 91.030960 12.805500
v 47.835419 90.328453 12.941310
v 47.822510 90.821007 12.939660
v 47.816299 90.574562 12.987200
v 48.349030 91.228867 10.758250
v 48.388279 89.937347 10.737530
v 48.563129 89.940018 9.916453
v 48.681061 91.233917 9.138385
v 48.768372 89.730522 8.882713
v 48.958858 91.238022 7.508342
v 48.935520 89.128159 8.008463
v 49.050701 88.230560 7.428418
v 49.108639 87.176048 7.227345
v 49.105782 86.120956 7.433633
v 49.037571 85.221626 8.018309
v 48.902130 84.615929 8.895761
v 47.995201 84.389847 12.946120
v 47.773720 84.549049 13.725840
v 47.255260 91.621971 14.808420
v 48.137272 93.350189 11.431170
v 48.348621 93.353462 10.501010
v 48.913609 92.045502 7.662235
v 48.063881 91.224632 12.397080
v 48.450932 91.230652 10.785020
v 48.783951 91.235733 9.160943
v 49.062569 91.239838 7.526650
v 49.017159 92.048141 7.681280
v 48.927109 92.735603 8.126305
v 48.798840 93.196800 8.796245
v 48.644642 93.358223 9.590654
v 48.450680 93.355263 10.527140
v 48.238708 93.351982 11.459710
v 48.008789 93.348389 12.388020
v 47.738911 93.131767 13.411420
v 47.505322 92.525658 14.271930
v 47.354031 91.624840 14.845200
v 47.318859 90.566116 15.048660
v 47.409721 89.509468 14.852730
v 47.608292 88.614403 14.285130
v 47.873402 88.016808 13.427860
v 48.154079 87.809303 12.405480
v 48.357159 87.812462 11.588250
v 48.546391 87.815392 10.767700
v 48.721699 87.818077 9.944072
v 48.771568 87.769272 9.703088
v 48.815350 87.629181 9.499574
v 48.847012 87.420052 9.364520
v 48.862518 87.174004 9.317717
v 48.859901 86.927780 9.365791
v 48.839199 86.717918 9.501949
v 48.802799 86.576729 9.706132
v 48.755550 86.526466 9.947375
v 48.377701 86.520660 11.647570
v 47.940620 86.513802 13.333500
v 47.444839 86.505920 15.003110
v 47.514400 85.695160 14.852670
v 47.667229 85.008530 14.416860
v 47.873611 84.550468 13.759460
v 48.095509 84.391609 12.978500
v 48.354832 84.395691 11.975760
v 48.593269 84.399391 10.967850
v 48.810711 84.402718 9.955200
v 49.004951 84.617233 8.918837
v 49.140869 85.222122 8.039209
v 49.209480 86.121613 7.452194
v 49.212471 87.177872 7.244897
v 49.154339 88.233551 7.446973
v 49.038769 89.131233 8.029280
v 48.871181 89.732811 8.905744
v 48.665562 89.941818 9.941037
v 48.490200 89.939133 10.764240
v 48.300911 89.936203 11.584360
v 48.097759 89.933037 12.401160
v 48.034279 89.981667 12.639830
v 47.977211 90.121361 12.840600
v 47.935699 90.330307 12.973770
v 47.916550 90.576622 13.019740
v 47.922840 90.823242 12.971890
v 47.953400 91.033112 12.837200
v 48.003120 91.174271 12.635500
v 49.393478 93.368874 4.305642
v 49.627850 84.414398 4.317104
v 49.397339 84.411346 6.439858
v 49.484280 84.412552 5.733395
v 49.561119 84.413559 5.025762
v 49.162910 93.365807 6.424184
v 49.326740 93.368011 5.012899
v 49.249882 93.367012 5.719128
v 49.485069 86.703438 -5.178801
v 49.617802 87.715103 -3.321248
v 49.369850 91.078194 -5.179164
v 49.380661 91.394531 -4.993844
v 49.408871 91.990730 -4.538389
v 49.481300 92.957947 -3.304766
v 49.545280 93.452042 -1.817585
v 49.578838 93.417183 -0.250895
v 49.579319 92.860260 1.210807
v 49.562531 91.845802 2.401359
v 49.554031 90.490692 3.183251
v 49.575459 88.948219 3.466918
v 49.632839 87.402138 3.218452
v 49.711750 86.030251 2.467521
v 49.783340 84.987877 1.297515
v 49.815460 84.397583 -0.155784
v 49.794041 84.334122 -0.509379
v 49.787769 84.327660 -1.721990
v 49.760349 84.298622 -1.416120
v 49.688061 84.739571 -3.123474
v 49.701389 84.786537 -3.218916
v 49.580189 85.718353 -4.468153
v 49.517872 86.329048 -4.954632
v 49.555882 90.073883 -3.321539
v 49.630161 91.329041 -0.633293
v 49.641891 91.028107 0.138521
v 49.650230 90.489990 0.768502
v 49.611961 91.359680 -1.458630
v 49.588791 91.117661 -2.248276
v 49.566860 90.628326 -2.915797
v 49.660702 89.776550 1.185568
v 49.677891 88.964981 1.345350
v 49.702358 88.145660 1.229524
v 49.729549 87.409798 0.850740
v 49.751122 86.839699 0.251866
v 49.758190 86.497551 -0.500211
v 49.745178 86.420357 -1.321492
v 49.712360 86.615898 -2.121741
v 49.666260 87.063332 -2.813725
v 49.580189 85.718353 -4.468153
v 47.653511 93.330276 -13.692900
v 47.889400 93.334793 -12.843150
v 48.110149 93.339027 -11.989340
v 48.315681 93.343010 -11.131730
v 48.864971 89.814102 -8.927902
v 48.914730 89.815102 -8.650977
v 48.962921 89.816071 -8.373775
v 49.009541 89.817001 -8.096305
v 48.916500 93.354881 -8.091094
v 49.027260 93.357132 -7.390003
v 49.127972 93.359222 -6.687401
v 49.218620 93.361122 -5.983429
v 49.453751 84.406662 -5.992238
v 49.363209 84.404762 -6.697665
v 49.262611 84.402679 -7.401727
v 49.151981 84.400429 -8.104284
v 49.059479 87.917877 -8.099102
v 49.012871 87.916939 -8.376697
v 48.964691 87.915977 -8.654025
v 48.914940 87.914993 -8.931075
v 48.551731 84.388557 -11.151550
v 48.346352 84.384590 -12.011120
v 48.125778 84.380341 -12.866910
v 47.890060 84.375839 -13.718660
v 48.519341 88.862350 -10.763020
v 48.057190 85.448486 -13.014160
v 48.002640 85.090881 -13.249190
v 47.946930 84.733337 -13.484020
vn -1.0000 -0.0000 -0.0000
vn -0.0000 0.3090 -0.9511
vn -0.0000 -0.3090 -0.9511
vn -0.0000 -0.8090 -0.5878
vn -0.0000 -1.0000 -0.0000
vn -0.0000 -0.8090 0.5878
vn -0.0000 -0.3090 0.9511
vn -0.0000 0.3090 0.9511
vn -0.0000 0.8090 0.5878
vn -0.0000 1.0000 -0.0000
vn -0.0000 0.8090 -0.5878
vn -0.0023 -0.9655 -0.2602
vn 0.0023 -0.9659 -0.2588
vn -0.0023 -0.9663 0.2574
vn 0.0023 -0.9659 0.2588
vn -0.0023 -0.7081 0.7061
vn 0.0023 -0.7071 0.7071
vn -0.0023 -0.2602 0.9655
vn 0.0023 -0.2588 0.9659
vn -0.0023 0.2574 0.9663
vn 0.0023 0.2588 0.9659
vn -0.0023 0.7061 0.7082
vn 0.0023 0.7071 0.7071
vn -0.0023 0.9655 0.2602
vn 0.0023 0.9659 0.2588
vn -0.0023 0.9663 -0.2574
vn 0.0023 0.9659 -0.2588
vn -0.0023 0.7082 -0.7061
vn 0.0023 0.7071 -0.7071
vn -0.0023 0.2602 -0.9655
vn 0.0023 0.2588 -0.9659
vn -0.0023 -0.2574 -0.9663
vn 0.0023 -0.2588 -0.9659
vn -0.0023 -0.7061 -0.7082
vn 0.0023 -0.7071 -0.7071
vn -0.0023 0.7061 0.7081
vn -0.0023 0.7081 -0.7061
vn -0.5098 -0.8310 -0.2227
vn -0.4905 -0.8496 -0.1939
vn -0.4905 -0.8496 0.1939
vn -0.4763 -0.6875 -0.5482
vn -0.5245 -0.6020 -0.6020
vn -0.4675 -0.3835 -0.7964
vn -0.5317 -0.2192 -0.8181
vn -0.4646 -0.0000 -0.8855
vn -0.5317 0.2192 -0.8181
vn -0.4675 0.3835 -0.7964
vn -0.5245 0.6020 -0.6020
vn -0.4763 0.6875 -0.5482
vn -0.5098 0.8310 -0.2227
vn -0.4905 0.8496 -0.1939
vn -0.4905 0.8496 0.1939
vn -0.5098 0.8310 0.2227
vn -0.4763 0.6875 0.5482
vn -0.5245 0.6020 0.6020
vn -0.4675 0.3835 0.7964
vn -0.5317 0.2192 0.8181
vn -0.4646 -0.0000 0.8855
vn -0.5317 -0.2192 0.8181
vn -0.4675 -0.3835 0.7964
vn -0.5245 -0.6020 0.6020
vn -0.4763 -0.6875 0.5482
vn -0.5098 -0.8310 0.2227
vn -0.0000 -0.0000 -1.0000
vn -0.0000 -0.0000 1.0000
vn -0.9477 -0.3191 -0.0000
vn -0.9977 0.0679 -0.0000
vn -0.8958 0.4445 -0.0000
vn -0.6575 0.7535 -0.0000
vn -0.3191 0.9477 -0.0000
vn 0.0679 0.9977 -0.0000
vn 0.4445 0.8958 -0.0000
vn 0.7535 0.6575 -0.0000
vn 0.9477 0.3191 -0.0000
vn 0.9977 -0.0679 -0.0000
vn 0.8958 -0.4445 -0.0000
vn 0.6575 -0.7535 -0.0000
vn 0.3191 -0.9477 -0.0000
vn -0.0679 -0.9977 -0.0000
vn -0.4445 -0.8958 -0.0000
vn -0.7535 -0.6575 -0.0000
vn -0.1951 0.9807 -0.0116
vn -0.1493 0.9887 0.0116
vn 0.1951 0.9807 -0.0116
vn 0.2404 0.9706 0.0116
vn 0.5555 0.8314 -0.0116
vn 0.5936 0.8047 0.0116
vn 0.8314 0.5555 -0.0116
vn 0.8563 0.5163 0.0116
vn 0.9807 0.1951 -0.0116
vn 0.9887 0.1493 0.0116
vn 0.9807 -0.1951 -0.0116
vn 0.9706 -0.2404 0.0116
vn 0.8314 -0.5555 -0.0116
vn 0.8047 -0.5936 0.0116
vn 0.5555 -0.8314 -0.0116
vn 0.5163 -0.8563 0.0116
vn 0.1951 -0.9807 -0.0116
vn 0.1493 -0.9887 0.0116
vn -0.1951 -0.9807 -0.0116
vn -0.2404 -0.9706 0.0116
vn -0.5555 -0.8314 -0.0116
vn -0.5936 -0.8047 0.0116
vn -0.8314 -0.5555 -0.0116
vn -0.8563 -0.5163 0.0116
vn -0.9807 -0.1951 -0.0116
vn -0.9887 -0.1493 0.0116
vn -0.9807 0.1951 -0.0116
vn -0.9706 0.2404 0.0116
vn -0.8314 0.5555 -0.0116
vn -0.8047 0.5936 0.0116
vn -0.5555 0.8314 -0.0116
vn -0.5163 0.8563 0.0116
vn -0.2534 -0.9455 0.2044
vn -0.0282 -0.9785 -0.2044
vn 0.2534 -0.9455 0.2044
vn 0.4648 -0.8615 -0.2044
vn 0.6922 -0.6922 0.2044
vn 0.8333 -0.5137 -0.2044
vn 0.9455 -0.2534 0.2044
vn 0.9785 -0.0282 -0.2044
vn 0.9455 0.2534 0.2044
vn 0.8615 0.4648 -0.2044
vn 0.6922 0.6922 0.2044
vn 0.5137 0.8333 -0.2044
vn 0.2534 0.9455 0.2044
vn 0.0282 0.9785 -0.2044
vn -0.2534 0.9455 0.2044
vn -0.4648 0.8615 -0.2044
vn -0.6922 0.6922 0.2044
vn -0.8333 0.5137 -0.2044
vn -0.9455 0.2534 0.2044
vn -0.9785 0.0282 -0.2044
vn -0.9455 -0.2534 0.2044
vn -0.8615 -0.4648 -0.2044
vn -0.6922 -0.6922 0.2044
vn -0.5137 -0.8333 -0.2044
vn -0.5934 -0.8045 -0.0275
vn -0.7532 -0.6572 0.0275
vn -0.8561 -0.5161 -0.0275
vn -0.9474 -0.3189 0.0275
vn -0.9884 -0.1493 -0.0275
vn -0.9973 0.0679 0.0275
vn -0.9703 0.2404 -0.0275
vn -0.8954 0.4444 0.0275
vn -0.8045 0.5934 -0.0275
vn -0.6572 0.7532 0.0275
vn -0.5161 0.8561 -0.0275
vn -0.3189 0.9474 0.0275
vn -0.1493 0.9884 -0.0275
vn 0.0679 0.9973 0.0275
vn 0.2404 0.9703 -0.0275
vn 0.4444 0.8954 0.0275
vn 0.5934 0.8045 -0.0275
vn 0.7532 0.6572 0.0275
vn 0.9435 0.3176 -0.0942
vn -0.4444 -0.8954 0.0275
vn -0.2404 -0.9703 -0.0275
vn -0.0679 -0.9973 0.0275
vn 0.1493 -0.9884 -0.0275
vn 0.3189 -0.9474 0.0275
vn 0.5161 -0.8561 -0.0275
vn 0.6572 -0.7532 0.0275
vn 0.8045 -0.5934 -0.0275
vn 0.8954 -0.4444 0.0275
vn 0.9703 -0.2404 -0.0275
vn 0.9844 0.1487 0.0942
vn 0.9933 -0.0676 -0.0942
vn 0.8526 0.5140 0.0942
vn -0.0023 -0.7061 -0.7081
vn -0.9511 0.3090 -0.0000
vn -0.9511 -0.3090 -0.0000
vn -0.5878 -0.8090 -0.0000
vn 0.5878 -0.8090 -0.0000
vn 0.9511 -0.3090 -0.0000
vn 0.9511 0.3090 -0.0000
vn 0.5878 0.8090 -0.0000
vn -0.5878 0.8090 -0.0000
vn 0.2588 -0.9659 -0.0000
vn -0.2588 -0.9659 -0.0000
vn -0.7071 -0.7071 -0.0000
vn -0.9659 -0.2588 -0.0000
vn -0.9659 0.2588 -0.0000
vn -0.7071 0.7071 -0.0000
vn -0.2588 0.9659 -0.0000
vn 0.2588 0.9659 -0.0000
vn 0.7071 0.7071 -0.0000
vn 0.9659 0.2588 -0.0000
vn 0.9659 -0.2588 -0.0000
vn 0.7071 -0.7071 -0.0000
vn -0.5098 -0.8310 -0.2226
vn -0.5098 0.8310 -0.2226
vn -0.5098 0.8310 0.2226
vn -0.5098 -0.8310 0.2226
vn 0.2239 -0.8357 -0.5015
vn -0.1572 -0.8622 -0.4815
vn -0.2212 -0.8254 -0.5194
vn -0.5192 -0.7135 -0.4704
vn -0.5998 -0.5998 -0.5297
vn -0.7799 -0.4189 -0.4651
vn -0.8175 -0.2191 -0.5326
vn -0.8841 -0.0390 -0.4656
vn -0.8201 0.2197 -0.5284
vn -0.8104 0.3471 -0.4720
vn -0.6054 0.6054 -0.5168
vn -0.5752 0.6594 -0.4840
vn -0.2301 0.8362 -0.4978
vn 0.6054 -0.6054 -0.5168
vn 0.5752 -0.6594 -0.4840
vn 0.2301 -0.8362 -0.4978
vn 0.8104 -0.3471 -0.4720
vn 0.8201 -0.2197 -0.5284
vn 0.8841 0.0390 -0.4656
vn 0.8175 0.2191 -0.5326
vn 0.7799 0.4189 -0.4651
vn 0.5998 0.5998 -0.5297
vn 0.2498 0.9321 -0.2624
vn -0.2239 0.8357 -0.5015
vn 0.1572 0.8622 -0.4815
vn 0.4558 0.6263 -0.6325
vn -0.5917 -0.2059 -0.7794
vn -0.7961 -0.1202 -0.5931
vn -0.6254 0.0362 -0.7794
vn -0.7815 0.1936 -0.5931
vn -0.5640 0.2728 -0.7794
vn -0.6479 0.4779 -0.5931
vn -0.4167 0.4679 -0.7794
vn -0.4157 0.6895 -0.5931
vn -0.2059 0.5917 -0.7794
vn -0.1202 0.7961 -0.5931
vn 0.0362 0.6255 -0.7794
vn 0.1936 0.7815 -0.5931
vn 0.2728 0.5640 -0.7794
vn 0.4779 0.6480 -0.5931
vn 0.4679 0.4167 -0.7794
vn 0.6895 0.4157 -0.5931
vn 0.5917 0.2059 -0.7794
vn 0.7961 0.1202 -0.5931
vn 0.6254 -0.0362 -0.7794
vn 0.7815 -0.1936 -0.5931
vn 0.5640 -0.2728 -0.7794
vn 0.6479 -0.4779 -0.5931
vn 0.4167 -0.4679 -0.7794
vn 0.4157 -0.6895 -0.5931
vn 0.2059 -0.5917 -0.7794
vn 0.1202 -0.7961 -0.5931
vn -0.0362 -0.6255 -0.7794
vn -0.1936 -0.7815 -0.5931
vn -0.2728 -0.5640 -0.7794
vn -0.4779 -0.6479 -0.5931
vn -0.4679 -0.4167 -0.7794
vn -0.6895 -0.4157 -0.5931
vn 0.1970 -0.8633 0.4646
vn -0.0244 -0.8463 0.5321
vn -0.1968 -0.8621 0.4669
vn -0.4464 -0.7241 0.5257
vn -0.5487 -0.6880 0.4750
vn -0.7560 -0.4079 0.5119
vn -0.7861 -0.3786 0.4886
vn -0.8703 -0.0000 0.4925
vn -0.8612 0.0248 0.5077
vn -0.7915 0.3812 0.4777
vn -0.7254 0.4472 0.5232
vn -0.5509 0.6908 0.4683
vn -0.4023 0.7456 0.5313
vn -0.1970 0.8633 0.4646
vn 0.0244 0.8463 0.5321
vn 0.1968 0.8621 0.4669
vn 0.4464 0.7241 0.5257
vn 0.5487 0.6880 0.4750
vn 0.7560 0.4079 0.5119
vn 0.7861 0.3786 0.4886
vn 0.8703 -0.0000 0.4925
vn 0.8612 -0.0248 0.5077
vn 0.7915 -0.3812 0.4777
vn 0.7254 -0.4472 0.5232
vn 0.5509 -0.6908 0.4683
vn 0.4023 -0.7456 0.5313
vn -0.3673 -0.5839 -0.7240
vn -0.4095 -0.6128 -0.6759
vn -0.5628 -0.3989 -0.7240
vn -0.6128 -0.4095 -0.6759
vn -0.6726 -0.1532 -0.7240
vn -0.7229 -0.1438 -0.6759
vn -0.6800 0.1159 -0.7240
vn -0.7229 0.1438 -0.6759
vn -0.5839 0.3673 -0.7240
vn -0.6128 0.4095 -0.6759
vn -0.3989 0.5628 -0.7240
vn -0.4095 0.6128 -0.6759
vn -0.1532 0.6726 -0.7240
vn -0.1438 0.7229 -0.6759
vn 0.1159 0.6800 -0.7240
vn 0.1438 0.7229 -0.6759
vn 0.3673 0.5839 -0.7240
vn 0.4095 0.6128 -0.6759
vn 0.5628 0.3989 -0.7240
vn 0.6128 0.4095 -0.6759
vn 0.6726 0.1532 -0.7240
vn 0.7229 0.1438 -0.6759
vn 0.6800 -0.1159 -0.7240
vn 0.7229 -0.1438 -0.6759
vn 0.5839 -0.3673 -0.7240
vn 0.6128 -0.4095 -0.6759
vn 0.3989 -0.5628 -0.7240
vn 0.4095 -0.6128 -0.6759
vn 0.1532 -0.6726 -0.7240
vn 0.1438 -0.7229 -0.6759
vn -0.1159 -0.6800 -0.7240
vn -0.1438 -0.7229 -0.6759
vn -0.7034 0.0407 0.7097
vn -0.6850 -0.2306 0.6911
vn -0.6654 -0.2315 0.7097
vn -0.5446 -0.4752 0.6911
vn -0.5261 -0.4686 0.7097
vn -0.3213 -0.6474 0.6911
vn -0.3068 -0.6342 0.7097
vn -0.0491 -0.7211 0.6911
vn -0.0407 -0.7034 0.7097
vn 0.2306 -0.6850 0.6911
vn 0.2315 -0.6654 0.7097
vn 0.4752 -0.5446 0.6911
vn 0.4686 -0.5261 0.7097
vn 0.6474 -0.3213 0.6911
vn 0.6342 -0.3068 0.7097
vn 0.7211 -0.0491 0.6911
vn 0.7034 -0.0407 0.7097
vn 0.6850 0.2306 0.6911
vn 0.6654 0.2316 0.7097
vn 0.5446 0.4752 0.6911
vn 0.5261 0.4686 0.7097
vn 0.3213 0.6474 0.6911
vn 0.3068 0.6342 0.7097
vn 0.0491 0.7211 0.6911
vn 0.0407 0.7034 0.7097
vn -0.2306 0.6850 0.6911
vn -0.2315 0.6654 0.7097
vn -0.4752 0.5446 0.6911
vn -0.4686 0.5261 0.7097
vn -0.6474 0.3213 0.6911
vn -0.6342 0.3068 0.7097
vn -0.7211 0.0491 0.6911
vn 0.6238 -0.1241 0.7717
vn 0.7923 -0.0539 0.6077
vn 0.6238 0.1241 0.7717
vn 0.7527 0.2534 0.6077
vn 0.5288 0.3534 0.7717
vn 0.5984 0.5221 0.6077
vn 0.3534 0.5288 0.7717
vn 0.3530 0.7114 0.6077
vn 0.1241 0.6238 0.7717
vn 0.0539 0.7923 0.6077
vn -0.1241 0.6238 0.7717
vn -0.2534 0.7526 0.6077
vn -0.3534 0.5288 0.7717
vn -0.5221 0.5984 0.6077
vn -0.5288 0.3534 0.7717
vn -0.7114 0.3530 0.6077
vn -0.6238 0.1241 0.7717
vn -0.7923 0.0539 0.6077
vn -0.6238 -0.1241 0.7717
vn -0.7527 -0.2534 0.6077
vn -0.5288 -0.3534 0.7717
vn -0.5984 -0.5221 0.6077
vn -0.3534 -0.5288 0.7717
vn -0.3530 -0.7114 0.6077
vn -0.1241 -0.6238 0.7717
vn -0.0539 -0.7923 0.6077
vn 0.1241 -0.6238 0.7717
vn 0.2534 -0.7527 0.6077
vn 0.3534 -0.5288 0.7717
vn 0.5221 -0.5984 0.6077
vn 0.5288 -0.3534 0.7717
vn 0.7114 -0.3530 0.6077
vn 0.2208 -0.8241 -0.5216
vn 0.1470 -0.8652 -0.4793
vn -0.2234 -0.8337 -0.5049
vn -0.2406 -0.8350 -0.4949
vn -0.5822 -0.6515 -0.4865
vn 0.5110 -0.7202 -0.4692
vn 0.5994 -0.5994 -0.5306
vn 0.7749 -0.4283 -0.4648
vn 0.8177 -0.2191 -0.5324
vn 0.8833 -0.0496 -0.4662
vn 0.8209 0.2200 -0.5270
vn 0.8137 0.3370 -0.4736
vn 0.6064 0.6064 -0.5142
vn 0.5822 0.6515 -0.4865
vn 0.2251 0.8401 -0.4936
vn 0.2390 0.8297 -0.5045
vn -0.1470 0.8652 -0.4793
vn -0.2208 0.8241 -0.5216
vn -0.5110 0.7202 -0.4692
vn -0.5994 0.5994 -0.5306
vn -0.7749 0.4283 -0.4648
vn -0.8177 0.2191 -0.5324
vn -0.8833 0.0496 -0.4662
vn -0.8209 -0.2200 -0.5270
vn -0.8137 -0.3370 -0.4736
vn -0.6064 -0.6064 -0.5142
vn 0.0174 -0.9998 0.0004
vn 0.0174 -0.9998 0.0005
vn 0.0175 -0.9998 0.0005
vn 0.1672 0.1943 -0.9666
vn 0.1727 0.1937 -0.9657
vn 0.1376 0.5495 -0.8241
vn 0.1505 0.5510 -0.8208
vn 0.0896 0.8273 -0.5545
vn 0.1027 0.8284 -0.5506
vn 0.0220 0.9804 -0.1957
vn 0.0274 0.9806 -0.1939
vn -0.0176 0.9998 -0.0005
vn -0.0175 0.9998 -0.0005
vn -0.0174 0.9998 -0.0005
vn -0.0748 0.9794 0.1876
vn -0.0822 0.9790 0.1863
vn -0.1907 0.8252 0.5317
vn -0.2073 0.8254 0.5251
vn -0.2897 0.5466 0.7857
vn -0.3060 0.5472 0.7791
vn -0.3476 0.1874 0.9187
vn -0.3544 0.1878 0.9160
vn -0.3478 -0.1991 0.9162
vn -0.3409 -0.1996 0.9187
vn -0.2870 -0.5562 0.7799
vn -0.2699 -0.5576 0.7850
vn -0.1785 -0.8313 0.5264
vn -0.1611 -0.8323 0.5304
vn -0.0477 -0.9814 0.1861
vn -0.0407 -0.9812 0.1887
vn 0.0173 -0.9998 0.0004
vn -0.0290 -0.9808 0.1926
vn -0.0274 -0.9807 0.1937
vn -0.1136 -0.8296 0.5467
vn -0.1098 -0.8286 0.5489
vn -0.1768 -0.5527 0.8144
vn -0.1728 -0.5511 0.8163
vn -0.2122 -0.1948 0.9576
vn -0.2104 -0.1955 0.9579
vn -0.2171 0.1886 0.9578
vn -0.2187 0.1892 0.9573
vn -0.1923 0.5460 0.8154
vn -0.1960 0.5472 0.8137
vn -0.1386 0.8250 0.5479
vn -0.1425 0.8259 0.5456
vn -0.0617 0.9793 0.1926
vn -0.0631 0.9794 0.1917
vn -0.0174 0.9998 -0.0004
vn -0.3462 -0.1998 0.9166
vn -0.3410 -0.1990 0.9187
vn -0.2859 -0.5567 0.7800
vn -0.2731 -0.5581 0.7835
vn -0.1792 -0.8317 0.5254
vn -0.1659 -0.8328 0.5282
vn -0.0486 -0.9814 0.1859
vn -0.0434 -0.9812 0.1879
vn 0.0176 -0.9998 0.0005
vn 0.0173 -0.9999 0.0004
vn 0.0629 -0.9796 -0.1910
vn 0.0558 -0.9796 -0.1931
vn 0.1333 -0.8261 -0.5475
vn 0.1157 -0.8257 -0.5521
vn 0.1685 -0.5477 -0.8195
vn 0.1509 -0.5468 -0.8235
vn 0.1741 -0.1901 -0.9662
vn 0.1669 -0.1896 -0.9676
vn 0.1602 0.1934 -0.9680
vn 0.1674 0.1942 -0.9666
vn 0.1318 0.5499 -0.8248
vn 0.1490 0.5516 -0.8207
vn 0.0870 0.8280 -0.5539
vn 0.1046 0.8292 -0.5491
vn 0.0217 0.9807 -0.1944
vn 0.0289 0.9809 -0.1923
vn -0.0173 0.9998 -0.0004
vn -0.0175 0.9998 -0.0004
vn 0.0409 0.9810 -0.1895
vn 0.0417 0.9811 -0.1888
vn 0.1540 0.8305 -0.5353
vn 0.1559 0.8310 -0.5340
vn 0.2446 0.5544 -0.7955
vn 0.2468 0.5552 -0.7942
vn 0.2986 0.1973 -0.9338
vn 0.2990 0.1975 -0.9336
vn 0.3067 -0.1877 -0.9331
vn 0.3042 -0.1889 -0.9337
vn 0.2672 -0.5461 -0.7940
vn 0.2623 -0.5479 -0.7943
vn 0.1861 -0.8249 -0.5338
vn 0.1813 -0.8262 -0.5335
vn 0.0767 -0.9793 -0.1873
vn 0.0750 -0.9792 -0.1886
vn 0.9777 0.0261 0.2082
vn 0.9800 0.0262 0.1975
vn 0.9809 0.0268 0.1926
vn 0.9815 0.0274 0.1894
vn 0.9818 0.0271 0.1882
vn 0.9822 0.0266 0.1857
vn 0.9827 0.0262 0.1832
vn 0.9823 0.0258 0.1855
vn 0.9818 0.0252 0.1882
vn 0.9816 0.0250 0.1891
vn 0.9809 0.0256 0.1926
vn 0.9800 0.0262 0.1974
vn 0.9774 0.0262 0.2100
vn 0.9757 0.0296 0.2169
vn 0.9728 0.0251 0.2302
vn 0.9677 0.0283 0.2504
vn 0.9676 0.0286 0.2510
vn 0.9630 0.0254 0.2684
vn 0.9592 0.0283 0.2814
vn 0.9581 0.0309 0.2847
vn 0.9563 0.0280 0.2912
vn 0.9850 0.0262 0.1704
vn 0.9851 0.0262 0.1702
vn 0.9875 0.0262 0.1556
vn 0.9875 0.0262 0.1555
vn 0.9887 0.0262 0.1477
vn 0.9777 0.0262 0.2084
vn 0.9741 0.0261 0.2247
vn 0.9740 0.0262 0.2249
vn 0.9701 0.0261 0.2412
vn 0.9701 0.0262 0.2414
vn 0.9674 0.0262 0.2520
vn 0.9661 0.0256 0.2568
vn 0.9653 0.0249 0.2599
vn 0.9650 0.0253 0.2611
vn 0.9643 0.0258 0.2636
vn 0.9636 0.0262 0.2662
vn 0.9642 0.0266 0.2638
vn 0.9651 0.0273 0.2603
vn 0.9646 0.0278 0.2622
vn 0.9661 0.0267 0.2568
vn 0.9674 0.0262 0.2521
vn 0.9703 0.0262 0.2404
vn 0.9721 0.0230 0.2335
vn 0.9748 0.0270 0.2217
vn 0.9789 0.0247 0.2028
vn 0.9793 0.0236 0.2009
vn 0.9823 0.0270 0.1852
vn 0.9848 0.0244 0.1717
vn 0.9855 0.0219 0.1681
vn 0.9865 0.0245 0.1618
vn 0.9600 0.0261 0.2787
vn 0.9599 0.0262 0.2790
vn 0.9557 0.0262 0.2931
vn 0.9556 0.0262 0.2934
vn 0.9533 0.0262 0.3010
vn 0.0940 0.0012 -0.9956
vn 0.0175 -0.9998 0.0004
vn -0.1466 -0.0021 0.9892
vn -0.0176 0.9998 -0.0004
vn 0.9953 0.0262 0.0937
vn 0.9952 0.0262 0.0939
vn 0.9938 0.0262 0.1080
vn 0.9938 0.0262 0.1082
vn 0.9922 0.0262 0.1221
vn 0.9921 0.0262 0.1224
vn -0.0334 0.8787 -0.4762
vn -0.0333 0.8787 -0.4762
vn -0.0413 0.5167 -0.8552
vn -0.0966 0.5056 -0.8574
vn 0.0283 0.6060 -0.7950
vn -0.1440 0.6272 -0.7654
vn 0.1885 0.7674 -0.6128
vn -0.2981 0.7809 -0.5489
vn 0.2366 0.9190 -0.3155
vn -0.3191 0.9151 -0.2465
vn 0.2842 0.9587 0.0153
vn -0.3376 0.9383 0.0754
vn 0.3278 0.8829 0.3363
vn -0.2666 0.8827 0.3871
vn 0.2889 0.7267 0.6233
vn -0.2055 0.7207 0.6621
vn 0.2444 0.4834 0.8406
vn -0.1294 0.4711 0.8726
vn 0.1888 0.1802 0.9654
vn -0.0488 0.1626 0.9855
vn 0.1275 -0.1590 0.9790
vn 0.0341 -0.1574 0.9870
vn 0.0474 -0.4732 0.8797
vn 0.1167 -0.4717 0.8740
vn -0.0349 -0.7362 0.6759
vn 0.1935 -0.7266 0.6592
vn -0.1181 -0.9102 0.3970
vn 0.2550 -0.8939 0.3687
vn -0.0517 -0.9824 0.1794
vn 0.9530 -0.3030 -0.0033
vn 0.7265 -0.6871 -0.0001
vn 0.0382 -0.9951 -0.0910
vn -0.3320 -0.9420 0.0492
vn -0.5488 -0.8331 0.0683
vn -0.1504 -0.9513 -0.2689
vn -0.1107 -0.9564 -0.2703
vn 0.0021 -0.8974 -0.4413
vn -0.0832 -0.8051 -0.5873
vn -0.0222 -0.8024 -0.5964
vn -0.0119 -0.6238 -0.7815
vn -0.0385 -0.6222 -0.7819
vn -0.0119 -0.5144 -0.8574
vn -0.0235 -0.5126 -0.8583
vn 0.6624 -0.7047 -0.2542
vn -0.0027 -0.8798 -0.4754
vn -0.0027 -0.8798 -0.4753
vn 0.3885 -0.8857 -0.2543
vn -0.2019 -0.9135 -0.3531
vn 0.2837 -0.7273 -0.6250
vn -0.2879 -0.9572 -0.0292
vn 0.4407 -0.8916 0.1043
vn -0.2782 -0.9161 0.2889
vn 0.4165 -0.7898 0.4502
vn -0.1748 -0.7914 0.5858
vn 0.2574 -0.6005 0.7570
vn 0.0408 -0.5906 0.8059
vn 0.5636 -0.6014 -0.5663
vn -0.3271 -0.4805 -0.8137
vn 0.6113 -0.2031 -0.7649
vn 0.0811 -0.1909 -0.9783
vn -0.1361 0.1347 -0.9815
vn 0.6411 0.2275 -0.7329
vn -0.2943 0.4288 -0.8541
vn 0.4117 0.6751 -0.6122
vn 0.5018 0.6354 -0.5869
vn -0.3218 0.8607 -0.3946
vn 0.3681 0.8932 -0.2583
vn -0.3358 0.9383 -0.0829
vn 0.3724 0.9240 0.0868
vn -0.2855 0.9282 0.2385
vn 0.3302 0.8394 0.4317
vn -0.1683 0.8226 0.5431
vn 0.2220 0.6294 0.7447
vn 0.0191 0.6152 0.7882
vn 0.9972 0.0089 -0.0736
vn 0.9958 0.0199 -0.0890
vn 0.9965 0.0262 -0.0791
vn 0.9977 0.0262 -0.0627
vn 0.9982 0.0278 -0.0532
vn 0.9982 0.0283 -0.0523
vn 0.9990 0.0255 -0.0371
vn 0.9994 0.0282 -0.0210
vn 0.9994 0.0284 -0.0208
vn 0.9997 0.0255 -0.0052
vn 0.9995 0.0281 0.0108
vn 0.9996 0.0280 0.0103
vn 0.9995 0.0262 0.0198
vn 0.9990 0.0261 0.0363
vn 0.9991 0.0277 0.0334
vn 0.9989 0.0260 0.0381
vn 0.9993 0.0262 0.0259
vn 0.9994 0.0261 0.0211
vn 0.9996 0.0244 0.0122
vn 0.9996 0.0242 0.0130
vn 0.9996 0.0268 -0.0028
vn 0.9995 0.0243 -0.0181
vn 0.9995 0.0239 -0.0187
vn 0.9990 0.0269 -0.0344
vn 0.9984 0.0241 -0.0502
vn 0.9984 0.0244 -0.0507
vn 0.9978 0.0263 -0.0615
vn 0.9967 0.0257 -0.0775
vn 0.9955 0.0322 -0.0887
vn 0.9964 0.0438 -0.0726
vn 0.9989 0.0261 0.0379
vn 0.9981 0.0262 0.0563
vn 0.9980 0.0261 0.0572
vn 0.9974 0.0262 0.0672
vn 0.1875 0.5401 0.8204
vn 0.2328 0.5410 0.8082
vn -0.2131 -0.0042 -0.9770
vn -0.0174 0.9998 -0.0006
vn 0.1614 0.0033 0.9869
vn 0.2060 -0.5355 0.8190
vn 0.2511 -0.5342 0.8072
vn 0.0173 -0.9999 0.0005
vn -0.2399 0.5564 -0.7956
vn -0.2660 0.5555 -0.7878
vn -0.2923 0.5560 -0.7781
vn -0.2960 0.5562 -0.7766
vn -0.2980 0.5564 -0.7756
vn -0.2206 -0.5634 -0.7962
vn -0.2792 -0.5638 -0.7773
vn 0.9797 0.0244 -0.1990
vn 0.9722 0.0272 -0.2324
vn 0.9687 0.0312 -0.2462
vn 0.9679 0.0277 -0.2496
vn 0.9645 0.0257 -0.2629
vn 0.9638 0.0242 -0.2655
vn 0.9635 0.0218 -0.2668
vn 0.9657 0.0173 -0.2590
vn 0.9721 0.0250 -0.2331
vn 0.9796 0.0281 -0.1991
vn 0.0187 -0.9998 0.0003
vn 0.9798 0.0261 -0.1981
vn 0.9839 0.0262 -0.1769
vn 0.9839 0.0262 -0.1768
vn 0.9849 0.0262 -0.1713
vn 0.9849 0.0262 -0.1712
vn 0.9858 0.0262 -0.1657
vn 0.9858 0.0262 -0.1656
vn 0.9874 0.0262 -0.1561
vn 0.9875 0.0262 -0.1556
vn 0.9895 0.0262 -0.1419
vn 0.9896 0.0262 -0.1415
vn 0.9915 0.0262 -0.1277
vn 0.9915 0.0262 -0.1273
s 0
f 1//1 2//1 3//1
f 3//1 2//1 4//1
f 3//1 4//1 5//1
f 5//1 4//1 6//1
f 5//1 6//1 7//1
f 7//1 6//1 8//1
f 7//1 8//1 9//1
f 9//1 8//1 10//1
f 10//1 8//1 11//1
f 10//1 11//1 12//1
f 12//1 11//1 13//1
f 12//1 13//1 14//1
f 14//1 13//1 15//1
f 14//1 15//1 16//1
f 16//1 15//1 17//1
f 16//1 17//1 18//1
f 18//1 17//1 19//1
f 18//1 19//1 20//1
f 20//1 19//1 21//1
f 21//1 19//1 22//1
f 21//1 22//1 1//1
f 1//1 22//1 2//1
f 23//2 11//2 24//2
f 24//2 11//2 8//2
f 24//3 8//3 25//3
f 25//3 8//3 6//3
f 25//4 6//4 26//4
f 26//4 6//4 4//4
f 26//5 4//5 27//5
f 27//5 4//5 2//5
f 27//6 2//6 28//6
f 28//6 2//6 22//6
f 28//7 22//7 29//7
f 29//7 22//7 19//7
f 29//8 19//8 30//8
f 30//8 19//8 17//8
f 30//9 17//9 31//9
f 31//9 17//9 15//9
f 31//10 15//10 32//10
f 32//10 15//10 13//10
f 32//11 13//11 23//11
f 23//11 13//11 11//11
f 5//12 33//12 3//12
f 3//13 33//13 34//13
f 3//14 34//14 1//14
f 1//15 34//15 35//15
f 1//16 35//16 21//16
f 21//17 35//17 36//17
f 21//18 36//18 20//18
f 20//19 36//19 37//19
f 20//20 37//20 18//20
f 18//21 37//21 38//21
f 18//22 38//22 16//22
f 16//23 38//23 39//23
f 16//24 39//24 14//24
f 14//25 39//25 40//25
f 14//26 40//26 12//26
f 12//27 40//27 41//27
f 12//28 41//28 10//28
f 10//29 41//29 42//29
f 10//30 42//30 9//30
f 9//31 42//31 43//31
f 9//32 43//32 7//32
f 7//33 43//33 44//33
f 7//34 44//34 5//34
f 5//35 44//35 33//35
f 45//1 46//1 47//1
f 47//1 46//1 48//1
f 47//1 48//1 49//1
f 49//1 48//1 50//1
f 49//1 50//1 51//1
f 51//1 50//1 52//1
f 51//1 52//1 53//1
f 53//1 52//1 54//1
f 54//1 52//1 55//1
f 54//1 55//1 56//1
f 56//1 55//1 57//1
f 56//1 57//1 58//1
f 58//1 57//1 59//1
f 58//1 59//1 60//1
f 60//1 59//1 61//1
f 60//1 61//1 62//1
f 62//1 61//1 63//1
f 62//1 63//1 64//1
f 64//1 63//1 65//1
f 65//1 63//1 66//1
f 65//1 66//1 45//1
f 45//1 66//1 46//1
f 67//2 55//2 68//2
f 68//2 55//2 52//2
f 68//3 52//3 69//3
f 69//3 52//3 50//3
f 69//4 50//4 70//4
f 70//4 50//4 48//4
f 70//5 48//5 71//5
f 71//5 48//5 46//5
f 71//6 46//6 72//6
f 72//6 46//6 66//6
f 72//7 66//7 73//7
f 73//7 66//7 63//7
f 73//8 63//8 74//8
f 74//8 63//8 61//8
f 74//9 61//9 75//9
f 75//9 61//9 59//9
f 75//10 59//10 76//10
f 76//10 59//10 57//10
f 76//11 57//11 67//11
f 67//11 57//11 55//11
f 49//12 77//12 47//12
f 47//13 77//13 78//13
f 47//14 78//14 45//14
f 45//15 78//15 79//15
f 45//16 79//16 65//16
f 65//17 79//17 80//17
f 65//18 80//18 64//18
f 64//19 80//19 81//19
f 64//20 81//20 62//20
f 62//21 81//21 82//21
f 62//36 82//36 60//36
f 60//23 82//23 83//23
f 60//24 83//24 58//24
f 58//25 83//25 84//25
f 58//26 84//26 56//26
f 56//27 84//27 85//27
f 56//37 85//37 54//37
f 54//29 85//29 86//29
f 54//30 86//30 53//30
f 53//31 86//31 87//31
f 53//32 87//32 51//32
f 51//33 87//33 88//33
f 51//34 88//34 49//34
f 49//35 88//35 77//35
f 89//12 90//12 91//12
f 91//13 90//13 92//13
f 91//14 92//14 93//14
f 93//15 92//15 94//15
f 93//16 94//16 95//16
f 95//17 94//17 96//17
f 95//18 96//18 97//18
f 97//19 96//19 98//19
f 97//20 98//20 99//20
f 99//21 98//21 100//21
f 99//36 100//36 101//36
f 101//23 100//23 102//23
f 101//24 102//24 103//24
f 103//25 102//25 104//25
f 103//26 104//26 105//26
f 105//27 104//27 106//27
f 105//37 106//37 107//37
f 107//29 106//29 108//29
f 107//30 108//30 109//30
f 109//31 108//31 110//31
f 109//32 110//32 111//32
f 111//33 110//33 112//33
f 111//34 112//34 89//34
f 89//35 112//35 90//35
f 93//1 113//1 91//1
f 91//1 113//1 114//1
f 91//1 114//1 89//1
f 89//1 114//1 115//1
f 89//1 115//1 111//1
f 111//1 115//1 116//1
f 111//1 116//1 109//1
f 109//1 116//1 107//1
f 107//1 116//1 117//1
f 107//1 117//1 105//1
f 105//1 117//1 118//1
f 105//1 118//1 103//1
f 103//1 118//1 119//1
f 103//1 119//1 101//1
f 101//1 119//1 120//1
f 101//1 120//1 99//1
f 99//1 120//1 121//1
f 99//1 121//1 97//1
f 97//1 121//1 95//1
f 95//1 121//1 122//1
f 95//1 122//1 93//1
f 93//1 122//1 113//1
f 123//2 117//2 124//2
f 124//2 117//2 116//2
f 124//3 116//3 125//3
f 125//3 116//3 115//3
f 125//4 115//4 126//4
f 126//4 115//4 114//4
f 126//5 114//5 127//5
f 127//5 114//5 113//5
f 127//6 113//6 128//6
f 128//6 113//6 122//6
f 128//7 122//7 129//7
f 129//7 122//7 121//7
f 129//8 121//8 130//8
f 130//8 121//8 120//8
f 130//9 120//9 131//9
f 131//9 120//9 119//9
f 131//10 119//10 132//10
f 132//10 119//10 118//10
f 132//11 118//11 123//11
f 123//11 118//11 117//11
f 90//38 133//38 92//38
f 92//39 133//39 134//39
f 92//40 134//40 135//40
f 133//41 90//41 136//41
f 136//42 90//42 112//42
f 136//43 112//43 137//43
f 137//44 112//44 110//44
f 137//45 110//45 138//45
f 138//46 110//46 108//46
f 138//47 108//47 139//47
f 139//48 108//48 106//48
f 139//49 106//49 140//49
f 140//50 106//50 104//50
f 140//51 104//51 141//51
f 141//52 104//52 142//52
f 142//53 104//53 102//53
f 142//54 102//54 143//54
f 143//55 102//55 100//55
f 143//56 100//56 144//56
f 144//57 100//57 98//57
f 144//58 98//58 145//58
f 145//59 98//59 96//59
f 145//60 96//60 146//60
f 146//61 96//61 94//61
f 146//62 94//62 135//62
f 135//63 94//63 92//63
f 147//64 148//64 149//64
f 149//64 148//64 150//64
f 149//64 150//64 151//64
f 151//64 150//64 152//64
f 151//64 152//64 153//64
f 153//64 152//64 154//64
f 153//64 154//64 155//64
f 155//64 154//64 156//64
f 155//64 156//64 157//64
f 157//64 156//64 158//64
f 157//64 158//64 159//64
f 159//64 158//64 160//64
f 160//64 158//64 161//64
f 160//64 161//64 162//64
f 162//64 161//64 163//64
f 162//64 163//64 164//64
f 164//64 163//64 165//64
f 164//64 165//64 166//64
f 166//64 165//64 167//64
f 166//64 167//64 168//64
f 168//64 167//64 169//64
f 168//64 169//64 170//64
f 170//64 169//64 171//64
f 170//64 171//64 172//64
f 172//64 171//64 173//64
f 172//64 173//64 174//64
f 174//64 173//64 175//64
f 175//64 173//64 176//64
f 175//64 176//64 147//64
f 147//64 176//64 148//64
f 177//1 178//1 179//1
f 179//1 178//1 180//1
f 179//1 180//1 181//1
f 182//1 183//1 177//1
f 177//1 183//1 184//1
f 177//1 184//1 185//1
f 186//1 187//1 182//1
f 182//1 187//1 188//1
f 182//1 188//1 189//1
f 179//1 190//1 186//1
f 186//1 190//1 191//1
f 186//1 191//1 192//1
f 185//1 193//1 177//1
f 177//1 193//1 194//1
f 177//1 194//1 178//1
f 178//1 194//1 195//1
f 178//1 195//1 196//1
f 196//1 195//1 197//1
f 196//1 197//1 198//1
f 198//1 197//1 199//1
f 198//1 199//1 200//1
f 200//1 199//1 201//1
f 201//1 199//1 202//1
f 201//1 202//1 203//1
f 203//1 202//1 204//1
f 203//1 204//1 187//1
f 187//1 204//1 188//1
f 189//1 205//1 182//1
f 182//1 205//1 206//1
f 182//1 206//1 183//1
f 181//1 207//1 179//1
f 179//1 207//1 190//1
f 192//1 208//1 186//1
f 186//1 208//1 187//1
f 209//65 210//65 211//65
f 211//65 210//65 212//65
f 211//65 212//65 213//65
f 213//65 212//65 214//65
f 213//65 214//65 215//65
f 215//65 214//65 216//65
f 215//65 216//65 217//65
f 217//65 216//65 218//65
f 218//65 216//65 219//65
f 218//65 219//65 220//65
f 220//65 219//65 221//65
f 220//65 221//65 222//65
f 222//65 221//65 223//65
f 222//65 223//65 224//65
f 224//65 223//65 225//65
f 224//65 225//65 226//65
f 226//65 225//65 227//65
f 226//65 227//65 228//65
f 228//65 227//65 229//65
f 229//65 227//65 230//65
f 229//65 230//65 209//65
f 209//65 230//65 210//65
f 231//38 198//38 232//38
f 232//39 198//39 200//39
f 232//40 200//40 201//40
f 198//41 231//41 196//41
f 196//42 231//42 233//42
f 196//43 233//43 178//43
f 178//44 233//44 234//44
f 178//45 234//45 180//45
f 180//46 234//46 235//46
f 180//47 235//47 181//47
f 181//48 235//48 236//48
f 181//49 236//49 207//49
f 207//50 236//50 237//50
f 207//51 237//51 190//51
f 190//52 237//52 191//52
f 191//53 237//53 238//53
f 191//54 238//54 192//54
f 192//55 238//55 239//55
f 192//56 239//56 208//56
f 208//57 239//57 240//57
f 208//58 240//58 187//58
f 187//59 240//59 241//59
f 187//60 241//60 203//60
f 203//61 241//61 242//61
f 203//62 242//62 201//62
f 201//63 242//63 232//63
f 243//65 244//65 245//65
f 245//65 244//65 246//65
f 245//65 246//65 247//65
f 247//65 246//65 248//65
f 247//65 248//65 249//65
f 249//65 248//65 250//65
f 249//65 250//65 251//65
f 251//65 250//65 252//65
f 252//65 250//65 253//65
f 252//65 253//65 254//65
f 254//65 253//65 255//65
f 254//65 255//65 256//65
f 256//65 255//65 257//65
f 256//65 257//65 258//65
f 258//65 257//65 259//65
f 258//65 259//65 260//65
f 260//65 259//65 261//65
f 260//65 261//65 262//65
f 262//65 261//65 263//65
f 263//65 261//65 264//65
f 263//65 264//65 243//65
f 243//65 264//65 244//65
f 265//66 266//66 267//66
f 267//67 266//67 268//67
f 267//67 268//67 269//67
f 269//68 268//68 270//68
f 269//68 270//68 271//68
f 271//69 270//69 272//69
f 271//69 272//69 273//69
f 273//70 272//70 274//70
f 274//70 272//70 275//70
f 274//71 275//71 276//71
f 276//71 275//71 277//71
f 276//72 277//72 278//72
f 278//72 277//72 279//72
f 278//73 279//73 280//73
f 280//73 279//73 281//73
f 280//74 281//74 282//74
f 282//74 281//74 283//74
f 282//75 283//75 284//75
f 284//75 283//75 285//75
f 284//76 285//76 286//76
f 286//76 285//76 287//76
f 286//77 287//77 288//77
f 288//77 287//77 289//77
f 288//78 289//78 290//78
f 290//78 289//78 291//78
f 290//79 291//79 292//79
f 292//79 291//79 293//79
f 292//80 293//80 294//80
f 294//80 293//80 295//80
f 294//81 295//81 296//81
f 266//66 265//66 296//66
f 296//81 265//81 294//81
f 297//64 298//64 299//64
f 299//64 298//64 300//64
f 299//64 300//64 301//64
f 301//64 300//64 302//64
f 301//64 302//64 303//64
f 303//64 302//64 304//64
f 305//64 306//64 297//64
f 297//64 306//64 298//64
f 307//64 308//64 309//64
f 309//64 308//64 310//64
f 309//64 310//64 311//64
f 311//64 310//64 312//64
f 311//64 312//64 313//64
f 313//64 312//64 314//64
f 313//64 314//64 315//64
f 315//64 314//64 316//64
f 315//64 316//64 317//64
f 317//64 316//64 318//64
f 317//64 318//64 319//64
f 319//64 318//64 320//64
f 320//64 318//64 321//64
f 320//64 321//64 322//64
f 322//64 321//64 323//64
f 322//64 323//64 324//64
f 324//64 323//64 325//64
f 324//64 325//64 326//64
f 326//64 325//64 327//64
f 326//64 327//64 328//64
f 328//64 327//64 329//64
f 328//64 329//64 330//64
f 330//64 329//64 331//64
f 330//64 331//64 332//64
f 332//64 331//64 333//64
f 332//64 333//64 334//64
f 334//64 333//64 335//64
f 335//64 333//64 336//64
f 335//64 336//64 307//64
f 307//64 336//64 308//64
f 337//82 338//82 339//82
f 339//83 338//83 340//83
f 339//84 340//84 341//84
f 341//85 340//85 342//85
f 341//86 342//86 343//86
f 343//87 342//87 344//87
f 343//88 344//88 345//88
f 345//89 344//89 346//89
f 345//90 346//90 347//90
f 347//91 346//91 348//91
f 347//92 348//92 349//92
f 349//93 348//93 350//93
f 349//94 350//94 351//94
f 351//95 350//95 352//95
f 351//96 352//96 353//96
f 353//97 352//97 354//97
f 353//98 354//98 355//98
f 355//99 354//99 356//99
f 355//100 356//100 357//100
f 357//101 356//101 358//101
f 357//102 358//102 359//102
f 359//103 358//103 360//103
f 359//104 360//104 361//104
f 361//105 360//105 362//105
f 361//106 362//106 363//106
f 363//107 362//107 364//107
f 363//108 364//108 365//108
f 365//109 364//109 366//109
f 365//110 366//110 367//110
f 367//111 366//111 368//111
f 367//112 368//112 337//112
f 337//113 368//113 338//113
f 369//66 370//66 371//66
f 371//67 370//67 372//67
f 371//67 372//67 373//67
f 373//68 372//68 374//68
f 374//68 372//68 375//68
f 374//69 375//69 376//69
f 376//69 375//69 377//69
f 376//70 377//70 378//70
f 378//70 377//70 379//70
f 378//71 379//71 380//71
f 380//71 379//71 381//71
f 380//72 381//72 382//72
f 382//72 381//72 383//72
f 382//73 383//73 384//73
f 384//73 383//73 385//73
f 384//74 385//74 386//74
f 386//74 385//74 387//74
f 386//75 387//75 388//75
f 388//75 387//75 389//75
f 388//76 389//76 390//76
f 390//76 389//76 391//76
f 390//77 391//77 392//77
f 392//77 391//77 393//77
f 392//78 393//78 394//78
f 394//78 393//78 395//78
f 394//79 395//79 396//79
f 396//79 395//79 397//79
f 396//80 397//80 398//80
f 398//80 397//80 399//80
f 398//81 399//81 369//81
f 369//81 399//81 400//81
f 369//66 400//66 370//66
f 401//65 402//65 403//65
f 403//65 402//65 404//65
f 403//65 404//65 405//65
f 405//65 404//65 406//65
f 405//65 406//65 407//65
f 407//65 406//65 408//65
f 407//65 408//65 409//65
f 409//65 408//65 410//65
f 409//65 410//65 411//65
f 411//65 410//65 412//65
f 412//65 410//65 413//65
f 412//65 413//65 414//65
f 414//65 413//65 415//65
f 414//65 415//65 416//65
f 416//65 415//65 417//65
f 416//65 417//65 418//65
f 418//65 417//65 419//65
f 418//65 419//65 420//65
f 420//65 419//65 421//65
f 420//65 421//65 422//65
f 422//65 421//65 423//65
f 422//65 423//65 424//65
f 424//65 423//65 425//65
f 424//65 425//65 426//65
f 426//65 425//65 427//65
f 427//65 425//65 428//65
f 427//65 428//65 429//65
f 429//65 428//65 430//65
f 429//65 430//65 401//65
f 401//65 430//65 402//65
f 213//114 431//114 211//114
f 211//115 431//115 432//115
f 211//116 432//116 209//116
f 209//117 432//117 433//117
f 209//118 433//118 229//118
f 229//119 433//119 434//119
f 229//120 434//120 228//120
f 228//121 434//121 435//121
f 228//122 435//122 226//122
f 226//123 435//123 436//123
f 226//124 436//124 224//124
f 224//125 436//125 437//125
f 224//126 437//126 222//126
f 222//127 437//127 438//127
f 222//128 438//128 220//128
f 220//129 438//129 439//129
f 220//130 439//130 218//130
f 218//131 439//131 440//131
f 218//132 440//132 217//132
f 217//133 440//133 441//133
f 217//134 441//134 215//134
f 215//135 441//135 442//135
f 215//136 442//136 213//136
f 213//137 442//137 431//137
f 462//138 463//138 464//138
f 464//139 463//139 465//139
f 464//140 465//140 466//140
f 466//141 465//141 467//141
f 466//142 467//142 468//142
f 468//143 467//143 469//143
f 468//144 469//144 470//144
f 470//145 469//145 471//145
f 470//146 471//146 472//146
f 472//147 471//147 473//147
f 472//148 473//148 474//148
f 474//149 473//149 475//149
f 474//150 475//150 476//150
f 476//151 475//151 477//151
f 476//152 477//152 478//152
f 478//153 477//153 479//153
f 478//154 479//154 480//154
f 480//155 479//155 481//155
f 480//156 481//156 482//156
f 463//157 462//157 483//157
f 483//158 462//158 484//158
f 483//159 484//159 485//159
f 485//160 484//160 486//160
f 485//161 486//161 487//161
f 487//162 486//162 488//162
f 487//163 488//163 489//163
f 489//164 488//164 490//164
f 489//165 490//165 491//165
f 491//166 490//166 492//166
f 491//167 492//167 493//167
f 491//168 493//168 482//168
f 482//169 493//169 480//169
f 494//64 366//64 495//64
f 495//64 366//64 364//64
f 495//64 364//64 496//64
f 496//64 364//64 362//64
f 496//64 362//64 497//64
f 497//64 362//64 360//64
f 497//64 360//64 498//64
f 498//64 360//64 499//64
f 499//64 360//64 358//64
f 499//64 358//64 500//64
f 500//64 358//64 356//64
f 500//64 356//64 501//64
f 501//64 356//64 354//64
f 501//64 354//64 502//64
f 502//64 354//64 503//64
f 503//64 354//64 352//64
f 503//64 352//64 504//64
f 504//64 352//64 350//64
f 504//64 350//64 505//64
f 505//64 350//64 348//64
f 505//64 348//64 506//64
f 506//64 348//64 346//64
f 506//64 346//64 507//64
f 507//64 346//64 344//64
f 507//64 344//64 508//64
f 508//64 344//64 342//64
f 508//64 342//64 509//64
f 509//64 342//64 340//64
f 509//64 340//64 510//64
f 510//64 340//64 511//64
f 511//64 340//64 338//64
f 511//64 338//64 512//64
f 512//64 338//64 368//64
f 512//64 368//64 494//64
f 494//64 368//64 366//64
f 513//12 231//12 514//12
f 514//13 231//13 232//13
f 514//14 232//14 515//14
f 515//15 232//15 242//15
f 515//16 242//16 516//16
f 516//17 242//17 241//17
f 516//18 241//18 517//18
f 517//19 241//19 240//19
f 517//20 240//20 518//20
f 518//21 240//21 239//21
f 518//22 239//22 519//22
f 519//23 239//23 238//23
f 519//24 238//24 520//24
f 520//25 238//25 237//25
f 520//26 237//26 521//26
f 521//27 237//27 236//27
f 521//37 236//37 522//37
f 522//29 236//29 235//29
f 522//30 235//30 523//30
f 523//31 235//31 234//31
f 523//32 234//32 524//32
f 524//33 234//33 233//33
f 524//170 233//170 513//170
f 513//35 233//35 231//35
f 515//1 525//1 514//1
f 514//1 525//1 526//1
f 514//1 526//1 513//1
f 513//1 526//1 527//1
f 513//1 527//1 524//1
f 524//1 527//1 528//1
f 524//1 528//1 523//1
f 523//1 528//1 522//1
f 522//1 528//1 529//1
f 522//1 529//1 521//1
f 521//1 529//1 530//1
f 521//1 530//1 520//1
f 520//1 530//1 531//1
f 520//1 531//1 519//1
f 519//1 531//1 532//1
f 519//1 532//1 518//1
f 518//1 532//1 533//1
f 518//1 533//1 517//1
f 517//1 533//1 516//1
f 516//1 533//1 534//1
f 516//1 534//1 515//1
f 515//1 534//1 525//1
f 554//171 253//171 555//171
f 555//171 253//171 250//171
f 555//172 250//172 556//172
f 556//172 250//172 248//172
f 556//173 248//173 557//173
f 557//173 248//173 246//173
f 557//5 246//5 558//5
f 558//5 246//5 244//5
f 558//174 244//174 559//174
f 559//174 244//174 264//174
f 559//175 264//175 560//175
f 560//175 264//175 261//175
f 560//176 261//176 561//176
f 561//176 261//176 259//176
f 561//177 259//177 562//177
f 562//177 259//177 257//177
f 562//10 257//10 563//10
f 563//10 257//10 255//10
f 563//178 255//178 554//178
f 554//178 255//178 253//178
f 564//171 219//171 565//171
f 565//171 219//171 216//171
f 565//172 216//172 566//172
f 566//172 216//172 214//172
f 566//173 214//173 567//173
f 567//173 214//173 212//173
f 567//5 212//5 568//5
f 568//5 212//5 210//5
f 568//174 210//174 569//174
f 569//174 210//174 230//174
f 569//175 230//175 570//175
f 570//175 230//175 227//175
f 570//176 227//176 571//176
f 571//176 227//176 225//176
f 571//177 225//177 572//177
f 572//177 225//177 223//177
f 572//10 223//10 573//10
f 573//10 223//10 221//10
f 573//178 221//178 564//178
f 564//178 221//178 219//178
f 553//64 487//64 535//64
f 535//64 487//64 489//64
f 535//64 489//64 491//64
f 487//64 553//64 485//64
f 485//64 553//64 552//64
f 485//64 552//64 551//64
f 551//64 550//64 485//64
f 485//64 550//64 483//64
f 483//64 550//64 549//64
f 483//64 549//64 548//64
f 547//64 465//64 548//64
f 548//64 465//64 463//64
f 548//64 463//64 483//64
f 465//64 547//64 467//64
f 467//64 547//64 546//64
f 467//64 546//64 469//64
f 469//64 546//64 545//64
f 469//64 545//64 471//64
f 471//64 545//64 544//64
f 471//64 544//64 473//64
f 473//64 544//64 543//64
f 473//64 543//64 475//64
f 475//64 543//64 542//64
f 475//64 542//64 541//64
f 541//64 540//64 475//64
f 475//64 540//64 477//64
f 477//64 540//64 539//64
f 477//64 539//64 479//64
f 479//64 539//64 538//64
f 479//64 538//64 481//64
f 481//64 538//64 537//64
f 481//64 537//64 482//64
f 482//64 537//64 536//64
f 482//64 536//64 491//64
f 491//64 536//64 535//64
f 574//65 575//65 576//65
f 576//65 575//65 577//65
f 576//65 577//65 578//65
f 578//65 577//65 579//65
f 579//65 577//65 580//65
f 579//65 580//65 581//65
f 581//65 580//65 582//65
f 581//65 582//65 583//65
f 583//65 582//65 584//65
f 583//65 584//65 585//65
f 585//65 584//65 586//65
f 585//65 586//65 587//65
f 587//65 586//65 588//65
f 587//65 588//65 589//65
f 589//65 588//65 590//65
f 589//65 590//65 591//65
f 591//65 590//65 592//65
f 591//65 592//65 593//65
f 593//65 592//65 594//65
f 594//65 592//65 595//65
f 594//65 595//65 596//65
f 596//65 595//65 597//65
f 596//65 597//65 598//65
f 598//65 597//65 599//65
f 598//65 599//65 600//65
f 600//65 599//65 601//65
f 600//65 601//65 602//65
f 602//65 601//65 603//65
f 602//65 603//65 574//65
f 574//65 603//65 575//65
f 604//64 605//64 606//64
f 606//64 605//64 607//64
f 606//64 607//64 608//64
f 608//64 607//64 609//64
f 608//64 609//64 610//64
f 610//64 609//64 611//64
f 610//64 611//64 612//64
f 612//64 611//64 613//64
f 613//64 611//64 614//64
f 613//64 614//64 615//64
f 615//64 614//64 616//64
f 615//64 616//64 617//64
f 617//64 616//64 618//64
f 617//64 618//64 619//64
f 619//64 618//64 620//64
f 619//64 620//64 621//64
f 621//64 620//64 622//64
f 621//64 622//64 623//64
f 623//64 622//64 624//64
f 624//64 622//64 625//64
f 624//64 625//64 604//64
f 604//64 625//64 605//64
f 301//176 614//176 299//176
f 299//176 614//176 611//176
f 299//175 611//175 297//175
f 297//175 611//175 609//175
f 297//174 609//174 305//174
f 305//174 609//174 607//174
f 305//5 607//5 306//5
f 306//5 607//5 605//5
f 306//173 605//173 298//173
f 298//173 605//173 625//173
f 298//172 625//172 300//172
f 300//172 625//172 622//172
f 300//171 622//171 302//171
f 302//171 622//171 620//171
f 302//178 620//178 304//178
f 304//178 620//178 618//178
f 304//10 618//10 303//10
f 303//10 618//10 616//10
f 303//177 616//177 301//177
f 301//177 616//177 614//177
f 626//65 378//65 627//65
f 627//65 378//65 380//65
f 627//65 380//65 628//65
f 628//65 380//65 629//65
f 629//65 380//65 382//65
f 629//65 382//65 630//65
f 630//65 382//65 384//65
f 630//65 384//65 631//65
f 631//65 384//65 386//65
f 631//65 386//65 632//65
f 632//65 386//65 388//65
f 632//65 388//65 633//65
f 633//65 388//65 390//65
f 633//65 390//65 634//65
f 634//65 390//65 392//65
f 634//65 392//65 635//65
f 635//65 392//65 394//65
f 635//65 394//65 636//65
f 636//65 394//65 637//65
f 637//65 394//65 396//65
f 637//65 396//65 638//65
f 638//65 396//65 398//65
f 638//65 398//65 639//65
f 639//65 398//65 369//65
f 639//65 369//65 640//65
f 640//65 369//65 371//65
f 640//65 371//65 641//65
f 641//65 371//65 373//65
f 641//65 373//65 642//65
f 642//65 373//65 643//65
f 643//65 373//65 374//65
f 643//65 374//65 644//65
f 644//65 374//65 376//65
f 644//65 376//65 626//65
f 626//65 376//65 378//65
f 645//176 646//176 647//176
f 647//176 646//176 648//176
f 647//175 648//175 649//175
f 649//175 648//175 650//175
f 649//174 650//174 651//174
f 651//174 650//174 652//174
f 651//5 652//5 653//5
f 653//5 652//5 654//5
f 653//173 654//173 655//173
f 655//173 654//173 656//173
f 655//172 656//172 657//172
f 657//172 656//172 658//172
f 657//171 658//171 659//171
f 659//171 658//171 660//171
f 659//178 660//178 661//178
f 661//178 660//178 662//178
f 661//10 662//10 663//10
f 663//10 662//10 664//10
f 663//177 664//177 645//177
f 645//177 664//177 646//177
f 556//65 559//65 555//65
f 555//65 559//65 560//65
f 555//65 560//65 554//65
f 554//65 560//65 561//65
f 554//65 561//65 563//65
f 563//65 561//65 562//65
f 557//65 558//65 556//65
f 556//65 558//65 559//65
f 675//179 676//179 677//179
f 677//179 676//179 678//179
f 677//180 678//180 679//180
f 679//180 678//180 680//180
f 679//181 680//181 681//181
f 681//181 680//181 682//181
f 681//182 682//182 683//182
f 683//182 682//182 684//182
f 683//183 684//183 685//183
f 685//183 684//183 686//183
f 685//184 686//184 687//184
f 687//184 686//184 688//184
f 687//185 688//185 689//185
f 689//185 688//185 690//185
f 689//186 690//186 691//186
f 691//186 690//186 692//186
f 691//187 692//187 693//187
f 693//187 692//187 694//187
f 693//188 694//188 695//188
f 695//188 694//188 696//188
f 695//189 696//189 697//189
f 697//189 696//189 698//189
f 697//190 698//190 675//190
f 675//190 698//190 676//190
f 77//191 699//191 78//191
f 78//39 699//39 700//39
f 78//40 700//40 701//40
f 699//41 77//41 702//41
f 702//42 77//42 88//42
f 702//43 88//43 703//43
f 703//44 88//44 87//44
f 703//45 87//45 704//45
f 704//46 87//46 86//46
f 704//47 86//47 705//47
f 705//48 86//48 85//48
f 705//49 85//49 706//49
f 706//192 85//192 84//192
f 706//51 84//51 707//51
f 707//52 84//52 708//52
f 708//193 84//193 83//193
f 708//54 83//54 709//54
f 709//55 83//55 82//55
f 709//56 82//56 710//56
f 710//57 82//57 81//57
f 710//58 81//58 711//58
f 711//59 81//59 80//59
f 711//60 80//60 712//60
f 712//61 80//61 79//61
f 712//62 79//62 701//62
f 701//194 79//194 78//194
f 679//64 654//64 677//64
f 677//64 654//64 652//64
f 677//64 652//64 675//64
f 675//64 652//64 650//64
f 675//64 650//64 697//64
f 697//64 650//64 648//64
f 697//64 648//64 695//64
f 695//64 648//64 693//64
f 693//64 648//64 646//64
f 693//64 646//64 691//64
f 691//64 646//64 664//64
f 691//64 664//64 689//64
f 689//64 664//64 662//64
f 689//64 662//64 687//64
f 687//64 662//64 660//64
f 687//64 660//64 713//64
f 713//64 660//64 658//64
f 713//64 658//64 683//64
f 683//64 658//64 681//64
f 681//64 658//64 656//64
f 681//64 656//64 679//64
f 679//64 656//64 654//64
f 649//64 655//64 647//64
f 647//64 655//64 657//64
f 647//64 657//64 645//64
f 645//64 657//64 659//64
f 645//64 659//64 663//64
f 663//64 659//64 661//64
f 651//64 653//64 649//64
f 649//64 653//64 655//64
f 247//114 714//114 245//114
f 245//115 714//115 715//115
f 245//116 715//116 243//116
f 243//117 715//117 716//117
f 243//118 716//118 263//118
f 263//119 716//119 717//119
f 263//120 717//120 262//120
f 262//121 717//121 718//121
f 262//122 718//122 260//122
f 260//123 718//123 719//123
f 260//124 719//124 258//124
f 258//125 719//125 720//125
f 258//126 720//126 256//126
f 256//127 720//127 721//127
f 256//128 721//128 254//128
f 254//129 721//129 722//129
f 254//130 722//130 723//130
f 723//131 722//131 724//131
f 723//132 724//132 251//132
f 251//133 724//133 725//133
f 251//134 725//134 726//134
f 726//135 725//135 727//135
f 726//136 727//136 247//136
f 247//137 727//137 714//137
f 33//38 184//38 34//38
f 34//39 184//39 183//39
f 34//40 183//40 206//40
f 184//41 33//41 185//41
f 185//42 33//42 44//42
f 185//43 44//43 193//43
f 193//44 44//44 43//44
f 193//45 43//45 194//45
f 194//46 43//46 42//46
f 194//47 42//47 195//47
f 195//48 42//48 41//48
f 195//49 41//49 197//49
f 197//192 41//192 40//192
f 197//51 40//51 199//51
f 199//52 40//52 202//52
f 202//193 40//193 39//193
f 202//54 39//54 204//54
f 204//55 39//55 38//55
f 204//56 38//56 188//56
f 188//57 38//57 37//57
f 188//58 37//58 189//58
f 189//59 37//59 36//59
f 189//60 36//60 205//60
f 205//61 36//61 35//61
f 205//62 35//62 206//62
f 206//63 35//63 34//63
f 669//2 529//2 667//2
f 667//2 529//2 528//2
f 667//3 528//3 665//3
f 665//3 528//3 527//3
f 665//4 527//4 673//4
f 673//4 527//4 526//4
f 673//5 526//5 674//5
f 674//5 526//5 525//5
f 674//6 525//6 666//6
f 666//6 525//6 534//6
f 666//7 534//7 668//7
f 668//7 534//7 533//7
f 668//8 533//8 670//8
f 670//8 533//8 532//8
f 670//9 532//9 672//9
f 672//9 532//9 531//9
f 672//10 531//10 671//10
f 671//10 531//10 530//10
f 671//11 530//11 669//11
f 669//11 530//11 529//11
f 445//65 265//65 444//65
f 444//65 265//65 267//65
f 444//65 267//65 443//65
f 443//65 267//65 269//65
f 443//65 269//65 447//65
f 447//65 269//65 271//65
f 447//65 271//65 448//65
f 448//65 271//65 273//65
f 448//65 273//65 449//65
f 449//65 273//65 274//65
f 449//65 274//65 450//65
f 450//65 274//65 451//65
f 451//65 274//65 452//65
f 452//65 274//65 276//65
f 452//65 276//65 453//65
f 453//65 276//65 278//65
f 453//65 278//65 454//65
f 454//65 278//65 280//65
f 454//65 280//65 455//65
f 455//65 280//65 282//65
f 455//65 282//65 456//65
f 456//65 282//65 284//65
f 456//65 284//65 457//65
f 457//65 284//65 286//65
f 457//65 286//65 288//65
f 446//65 292//65 445//65
f 445//65 292//65 294//65
f 445//65 294//65 265//65
f 446//65 461//65 292//65
f 292//65 461//65 290//65
f 290//65 461//65 460//65
f 290//65 460//65 459//65
f 459//65 458//65 290//65
f 290//65 458//65 288//65
f 288//65 458//65 457//65
f 608//179 728//179 606//179
f 606//179 728//179 729//179
f 606//180 729//180 604//180
f 604//180 729//180 730//180
f 604//181 730//181 624//181
f 624//181 730//181 731//181
f 624//182 731//182 623//182
f 623//182 731//182 732//182
f 623//183 732//183 621//183
f 621//183 732//183 733//183
f 621//184 733//184 619//184
f 619//184 733//184 734//184
f 619//185 734//185 617//185
f 617//185 734//185 735//185
f 617//186 735//186 615//186
f 615//186 735//186 736//186
f 615//187 736//187 613//187
f 613//187 736//187 737//187
f 613//188 737//188 612//188
f 612//188 737//188 738//188
f 612//189 738//189 610//189
f 610//189 738//189 739//189
f 610//190 739//190 608//190
f 608//190 739//190 728//190
f 676//195 331//195 678//195
f 678//196 331//196 329//196
f 678//197 329//197 680//197
f 680//198 329//198 327//198
f 680//199 327//199 740//199
f 740//200 327//200 325//200
f 740//201 325//201 684//201
f 684//202 325//202 323//202
f 684//203 323//203 686//203
f 686//204 323//204 321//204
f 686//205 321//205 688//205
f 688//206 321//206 318//206
f 688//207 318//207 316//207
f 698//208 336//208 676//208
f 676//209 336//209 333//209
f 676//210 333//210 331//210
f 336//211 698//211 308//211
f 308//212 698//212 696//212
f 308//213 696//213 310//213
f 310//214 696//214 694//214
f 310//215 694//215 312//215
f 312//216 694//216 692//216
f 312//217 692//217 690//217
f 688//218 316//218 690//218
f 690//219 316//219 314//219
f 690//220 314//220 312//220
f 311//221 466//221 309//221
f 309//222 466//222 468//222
f 309//223 468//223 307//223
f 307//224 468//224 470//224
f 307//225 470//225 335//225
f 335//226 470//226 472//226
f 335//227 472//227 334//227
f 334//228 472//228 474//228
f 334//229 474//229 332//229
f 332//230 474//230 476//230
f 332//231 476//231 330//231
f 330//232 476//232 478//232
f 330//233 478//233 328//233
f 328//234 478//234 480//234
f 328//235 480//235 326//235
f 326//236 480//236 493//236
f 326//237 493//237 324//237
f 324//238 493//238 492//238
f 324//239 492//239 322//239
f 322//240 492//240 490//240
f 322//241 490//241 320//241
f 320//242 490//242 488//242
f 320//243 488//243 319//243
f 319//244 488//244 486//244
f 319//245 486//245 317//245
f 317//246 486//246 484//246
f 317//247 484//247 315//247
f 315//248 484//248 462//248
f 315//249 462//249 313//249
f 313//250 462//250 464//250
f 313//251 464//251 311//251
f 311//252 464//252 466//252
f 582//253 432//253 584//253
f 584//254 432//254 431//254
f 584//255 431//255 586//255
f 586//256 431//256 442//256
f 586//257 442//257 588//257
f 588//258 442//258 441//258
f 588//259 441//259 590//259
f 590//260 441//260 592//260
f 592//261 441//261 440//261
f 592//262 440//262 595//262
f 595//263 440//263 439//263
f 595//264 439//264 597//264
f 597//265 439//265 438//265
f 597//266 438//266 599//266
f 599//267 438//267 437//267
f 599//268 437//268 601//268
f 601//269 437//269 436//269
f 601//270 436//270 603//270
f 603//271 436//271 435//271
f 603//272 435//272 575//272
f 575//273 435//273 577//273
f 577//274 435//274 434//274
f 577//275 434//275 580//275
f 580//276 434//276 433//276
f 580//277 433//277 582//277
f 582//278 433//278 432//278
f 743//1 710//1 741//1
f 741//1 710//1 711//1
f 741//1 711//1 712//1
f 744//1 141//1 743//1
f 743//1 141//1 142//1
f 743//1 142//1 143//1
f 742//1 137//1 744//1
f 744//1 137//1 138//1
f 744//1 138//1 139//1
f 741//1 700//1 742//1
f 742//1 700//1 699//1
f 742//1 699//1 702//1
f 702//1 703//1 742//1
f 742//1 703//1 704//1
f 742//1 704//1 137//1
f 137//1 704//1 705//1
f 137//1 705//1 136//1
f 136//1 705//1 706//1
f 136//1 706//1 133//1
f 133//1 706//1 707//1
f 133//1 707//1 134//1
f 134//1 707//1 135//1
f 135//1 707//1 708//1
f 135//1 708//1 146//1
f 146//1 708//1 709//1
f 146//1 709//1 145//1
f 145//1 709//1 710//1
f 145//1 710//1 743//1
f 712//1 701//1 741//1
f 741//1 701//1 700//1
f 139//1 140//1 744//1
f 744//1 140//1 141//1
f 143//1 144//1 743//1
f 743//1 144//1 145//1
f 151//279 357//279 149//279
f 149//280 357//280 359//280
f 149//281 359//281 147//281
f 147//282 359//282 361//282
f 147//283 361//283 175//283
f 175//284 361//284 363//284
f 175//285 363//285 174//285
f 174//286 363//286 365//286
f 174//287 365//287 172//287
f 172//288 365//288 367//288
f 172//289 367//289 170//289
f 170//290 367//290 337//290
f 170//291 337//291 168//291
f 168//292 337//292 339//292
f 168//293 339//293 166//293
f 166//294 339//294 341//294
f 166//295 341//295 164//295
f 164//296 341//296 343//296
f 164//297 343//297 162//297
f 162//298 343//298 345//298
f 162//299 345//299 160//299
f 160//300 345//300 347//300
f 160//301 347//301 159//301
f 159//302 347//302 349//302
f 159//303 349//303 157//303
f 157//304 349//304 351//304
f 157//305 351//305 155//305
f 155//306 351//306 353//306
f 155//307 353//307 153//307
f 153//308 353//308 355//308
f 153//309 355//309 151//309
f 151//310 355//310 357//310
f 578//311 266//311 576//311
f 576//312 266//312 296//312
f 576//313 296//313 574//313
f 574//314 296//314 295//314
f 574//315 295//315 602//315
f 602//316 295//316 293//316
f 602//317 293//317 600//317
f 600//318 293//318 291//318
f 600//319 291//319 598//319
f 598//320 291//320 289//320
f 598//321 289//321 596//321
f 596//322 289//322 287//322
f 596//323 287//323 594//323
f 594//324 287//324 285//324
f 594//325 285//325 593//325
f 593//326 285//326 283//326
f 593//327 283//327 591//327
f 591//328 283//328 281//328
f 591//329 281//329 589//329
f 589//330 281//330 279//330
f 589//331 279//331 587//331
f 587//332 279//332 277//332
f 587//333 277//333 585//333
f 585//334 277//334 275//334
f 585//335 275//335 583//335
f 583//336 275//336 272//336
f 583//337 272//337 581//337
f 581//338 272//338 270//338
f 581//339 270//339 579//339
f 579//340 270//340 268//340
f 579//341 268//341 578//341
f 578//342 268//342 266//342
f 405//343 389//343 403//343
f 403//344 389//344 387//344
f 403//345 387//345 401//345
f 401//346 387//346 385//346
f 401//347 385//347 429//347
f 429//348 385//348 383//348
f 429//349 383//349 427//349
f 427//350 383//350 381//350
f 427//351 381//351 426//351
f 426//352 381//352 379//352
f 426//353 379//353 424//353
f 424//354 379//354 377//354
f 424//355 377//355 422//355
f 422//356 377//356 375//356
f 422//357 375//357 420//357
f 420//358 375//358 372//358
f 420//359 372//359 418//359
f 418//360 372//360 370//360
f 418//361 370//361 416//361
f 416//362 370//362 400//362
f 416//363 400//363 414//363
f 414//364 400//364 399//364
f 414//365 399//365 412//365
f 412//366 399//366 397//366
f 412//367 397//367 411//367
f 411//368 397//368 395//368
f 411//369 395//369 409//369
f 409//370 395//370 393//370
f 409//371 393//371 407//371
f 407//372 393//372 391//372
f 407//373 391//373 405//373
f 405//374 391//374 389//374
f 566//65 569//65 565//65
f 565//65 569//65 570//65
f 565//65 570//65 564//65
f 564//65 570//65 571//65
f 564//65 571//65 573//65
f 573//65 571//65 572//65
f 567//65 568//65 566//65
f 566//65 568//65 569//65
f 423//253 715//253 425//253
f 425//254 715//254 714//254
f 425//255 714//255 428//255
f 428//256 714//256 727//256
f 428//257 727//257 430//257
f 430//258 727//258 725//258
f 430//259 725//259 402//259
f 402//260 725//260 404//260
f 404//261 725//261 724//261
f 404//262 724//262 406//262
f 406//263 724//263 722//263
f 406//264 722//264 408//264
f 408//265 722//265 721//265
f 408//266 721//266 410//266
f 410//267 721//267 720//267
f 410//268 720//268 413//268
f 413//269 720//269 719//269
f 413//270 719//270 415//270
f 415//271 719//271 718//271
f 415//272 718//272 417//272
f 417//273 718//273 419//273
f 419//274 718//274 717//274
f 419//275 717//275 421//275
f 421//276 717//276 716//276
f 421//277 716//277 423//277
f 423//278 716//278 715//278
f 728//375 169//375 729//375
f 729//376 169//376 167//376
f 729//377 167//377 730//377
f 730//378 167//378 165//378
f 730//379 165//379 163//379
f 169//380 728//380 171//380
f 171//381 728//381 739//381
f 171//382 739//382 173//382
f 173//383 739//383 738//383
f 173//384 738//384 176//384
f 176//385 738//385 737//385
f 176//386 737//386 148//386
f 148//387 737//387 736//387
f 148//388 736//388 150//388
f 150//389 736//389 735//389
f 150//390 735//390 152//390
f 152//391 735//391 154//391
f 154//392 735//392 734//392
f 154//393 734//393 156//393
f 156//394 734//394 733//394
f 156//395 733//395 158//395
f 158//396 733//396 732//396
f 158//397 732//397 161//397
f 161//398 732//398 731//398
f 161//399 731//399 163//399
f 163//400 731//400 730//400
f 842//401 850//401 868//401
f 868//402 850//402 869//402
f 869//401 850//401 853//401
f 869//403 853//403 870//403
f 870//403 853//403 855//403
f 870//402 855//402 871//402
f 871//404 855//404 872//404
f 872//405 855//405 867//405
f 872//406 867//406 800//406
f 872//407 800//407 873//407
f 873//408 800//408 799//408
f 873//409 799//409 874//409
f 874//410 799//410 798//410
f 874//411 798//411 875//411
f 875//412 798//412 876//412
f 876//413 798//413 866//413
f 876//413 866//413 877//413
f 877//413 866//413 865//413
f 877//413 865//413 878//413
f 878//414 865//414 803//414
f 878//415 803//415 879//415
f 879//416 803//416 802//416
f 879//417 802//417 801//417
f 879//418 801//418 880//418
f 880//419 801//419 864//419
f 880//420 864//420 881//420
f 881//421 864//421 755//421
f 881//422 755//422 882//422
f 882//423 755//423 757//423
f 882//424 757//424 883//424
f 883//425 757//425 758//425
f 883//426 758//426 884//426
f 884//427 758//427 760//427
f 884//428 760//428 885//428
f 885//429 760//429 886//429
f 886//430 760//430 761//430
f 761//402 763//402 886//402
f 886//431 763//431 887//431
f 887//431 763//431 764//431
f 887//402 764//402 888//402
f 888//402 764//402 766//402
f 888//403 766//403 889//403
f 889//432 766//432 890//432
f 890//433 766//433 767//433
f 890//434 767//434 891//434
f 891//435 767//435 769//435
f 891//436 769//436 892//436
f 892//437 769//437 771//437
f 892//438 771//438 773//438
f 892//439 773//439 893//439
f 893//440 773//440 772//440
f 893//441 772//441 894//441
f 894//442 772//442 770//442
f 894//443 770//443 895//443
f 895//444 770//444 768//444
f 895//445 768//445 896//445
f 896//446 768//446 765//446
f 896//447 765//447 897//447
f 897//448 765//448 898//448
f 898//412 765//412 762//412
f 898//412 762//412 899//412
f 899//413 762//413 759//413
f 899//413 759//413 900//413
f 900//413 759//413 756//413
f 900//449 756//449 901//449
f 901//450 756//450 775//450
f 901//451 775//451 774//451
f 901//452 774//452 902//452
f 902//453 774//453 863//453
f 902//454 863//454 903//454
f 903//455 863//455 904//455
f 904//456 863//456 862//456
f 862//401 778//401 904//401
f 904//401 778//401 905//401
f 905//402 778//402 777//402
f 905//457 777//457 906//457
f 906//457 777//457 776//457
f 906//458 776//458 907//458
f 907//459 776//459 908//459
f 908//460 776//460 861//460
f 908//461 861//461 909//461
f 909//462 861//462 860//462
f 909//463 860//463 910//463
f 910//464 860//464 859//464
f 910//465 859//465 911//465
f 911//466 859//466 858//466
f 911//467 858//467 857//467
f 911//468 857//468 912//468
f 912//469 857//469 856//469
f 912//470 856//470 913//470
f 913//471 856//471 854//471
f 913//472 854//472 914//472
f 914//473 854//473 852//473
f 914//474 852//474 915//474
f 915//413 852//413 916//413
f 916//414 852//414 851//414
f 916//448 851//448 917//448
f 917//475 851//475 844//475
f 917//475 844//475 918//475
f 918//476 844//476 843//476
f 843//477 841//477 918//477
f 918//478 841//478 919//478
f 919//479 841//479 845//479
f 919//480 845//480 920//480
f 920//481 845//481 847//481
f 920//482 847//482 921//482
f 921//483 847//483 849//483
f 921//484 849//484 922//484
f 922//485 849//485 848//485
f 922//486 848//486 923//486
f 923//487 848//487 846//487
f 923//488 846//488 924//488
f 924//489 846//489 840//489
f 924//490 840//490 925//490
f 925//491 840//491 868//491
f 868//492 840//492 842//492
f 888//493 889//493 915//493
f 915//494 889//494 890//494
f 915//495 890//495 891//495
f 915//496 891//496 914//496
f 914//497 891//497 892//497
f 914//498 892//498 893//498
f 914//499 893//499 908//499
f 908//500 893//500 894//500
f 908//501 894//501 895//501
f 908//502 895//502 907//502
f 907//503 895//503 896//503
f 907//504 896//504 897//504
f 907//505 897//505 906//505
f 906//506 897//506 898//506
f 906//507 898//507 905//507
f 905//508 898//508 904//508
f 904//509 898//509 899//509
f 904//510 899//510 903//510
f 903//511 899//511 902//511
f 902//512 899//512 900//512
f 902//513 900//513 901//513
f 914//514 908//514 913//514
f 913//515 908//515 909//515
f 913//516 909//516 912//516
f 912//517 909//517 910//517
f 912//518 910//518 911//518
f 915//519 916//519 888//519
f 888//520 916//520 887//520
f 887//521 916//521 917//521
f 887//522 917//522 886//522
f 886//523 917//523 918//523
f 886//524 918//524 919//524
f 919//525 920//525 886//525
f 886//526 920//526 885//526
f 885//527 920//527 921//527
f 885//528 921//528 922//528
f 885//529 922//529 879//529
f 879//530 922//530 923//530
f 879//531 923//531 878//531
f 878//532 923//532 924//532
f 878//533 924//533 925//533
f 925//534 868//534 878//534
f 878//535 868//535 877//535
f 877//536 868//536 869//536
f 877//537 869//537 876//537
f 876//538 869//538 875//538
f 875//539 869//539 870//539
f 875//540 870//540 874//540
f 874//541 870//541 873//541
f 873//542 870//542 871//542
f 873//543 871//543 872//543
f 885//544 879//544 884//544
f 884//545 879//545 880//545
f 884//546 880//546 883//546
f 883//547 880//547 881//547
f 883//548 881//548 882//548
f 795//549 926//549 834//549
f 834//549 926//549 927//549
f 779//401 839//401 928//401
f 928//550 839//550 929//550
f 929//403 839//403 835//403
f 929//402 835//402 930//402
f 930//401 835//401 834//401
f 930//402 834//402 927//402
f 780//551 779//551 931//551
f 931//551 779//551 928//551
f 926//552 795//552 932//552
f 932//448 795//448 782//448
f 932//414 782//414 933//414
f 933//413 782//413 781//413
f 933//476 781//476 931//476
f 931//448 781//448 780//448
f 927//553 926//553 930//553
f 930//554 926//554 932//554
f 930//555 932//555 929//555
f 929//556 932//556 933//556
f 929//557 933//557 928//557
f 928//558 933//558 931//558
f 813//559 820//559 934//559
f 934//560 820//560 935//560
f 754//561 753//561 936//561
f 936//562 753//562 937//562
f 937//563 753//563 938//563
f 938//564 753//564 794//564
f 938//565 794//565 939//565
f 939//566 794//566 793//566
f 939//567 793//567 940//567
f 940//568 793//568 792//568
f 940//569 792//569 941//569
f 941//570 792//570 819//570
f 941//571 819//571 942//571
f 942//572 819//572 797//572
f 942//573 797//573 943//573
f 943//574 797//574 796//574
f 943//575 796//575 944//575
f 944//576 796//576 838//576
f 944//577 838//577 945//577
f 945//578 838//578 837//578
f 945//579 837//579 836//579
f 945//580 836//580 946//580
f 946//581 836//581 833//581
f 946//582 833//582 947//582
f 947//583 833//583 785//583
f 947//584 785//584 948//584
f 948//585 785//585 784//585
f 948//586 784//586 949//586
f 949//587 784//587 950//587
f 949//588 950//588 951//588
f 951//589 950//589 952//589
f 951//590 952//590 783//590
f 783//591 952//591 950//591
f 783//592 950//592 784//592
f 951//593 783//593 953//593
f 953//594 783//594 832//594
f 953//595 832//595 954//595
f 954//596 832//596 811//596
f 954//597 811//597 955//597
f 955//598 811//598 956//598
f 956//599 811//599 812//599
f 956//600 812//600 934//600
f 934//601 812//601 813//601
f 954//602 951//602 953//602
f 754//603 936//603 814//603
f 814//604 936//604 957//604
f 825//605 958//605 828//605
f 828//606 958//606 959//606
f 828//607 959//607 960//607
f 958//608 825//608 961//608
f 961//609 825//609 823//609
f 961//610 823//610 962//610
f 962//611 823//611 821//611
f 962//612 821//612 963//612
f 963//613 821//613 814//613
f 963//614 814//614 957//614
f 828//615 960//615 830//615
f 830//616 960//616 964//616
f 830//617 964//617 831//617
f 831//618 964//618 965//618
f 831//619 965//619 966//619
f 831//620 966//620 829//620
f 829//621 966//621 967//621
f 829//622 967//622 827//622
f 827//623 967//623 968//623
f 827//624 968//624 969//624
f 827//625 969//625 826//625
f 826//626 969//626 970//626
f 826//627 970//627 824//627
f 824//628 970//628 971//628
f 824//629 971//629 822//629
f 822//630 971//630 972//630
f 822//631 972//631 820//631
f 820//632 972//632 935//632
f 937//633 938//633 936//633
f 936//634 938//634 957//634
f 957//635 938//635 939//635
f 957//636 939//636 963//636
f 963//637 939//637 962//637
f 962//638 939//638 940//638
f 962//639 940//639 961//639
f 961//640 940//640 958//640
f 958//641 940//641 941//641
f 958//642 941//642 959//642
f 959//643 941//643 960//643
f 960//644 941//644 942//644
f 960//645 942//645 964//645
f 964//646 942//646 943//646
f 964//647 943//647 965//647
f 965//648 943//648 948//648
f 965//649 948//649 966//649
f 966//650 948//650 967//650
f 967//651 948//651 949//651
f 967//652 949//652 968//652
f 968//653 949//653 969//653
f 969//654 949//654 970//654
f 970//655 949//655 951//655
f 970//656 951//656 971//656
f 971//657 951//657 954//657
f 971//658 954//658 972//658
f 972//659 954//659 935//659
f 935//660 954//660 973//660
f 935//661 973//661 934//661
f 934//662 973//662 956//662
f 948//663 943//663 947//663
f 947//664 943//664 944//664
f 947//665 944//665 946//665
f 946//666 944//666 945//666
f 745//414 746//414 974//414
f 974//476 746//476 975//476
f 975//413 746//413 747//413
f 975//476 747//476 976//476
f 976//413 747//413 748//413
f 976//414 748//414 977//414
f 818//667 978//667 748//667
f 748//668 978//668 977//668
f 978//476 818//476 979//476
f 979//412 818//412 817//412
f 979//412 817//412 980//412
f 980//413 817//413 816//413
f 980//413 816//413 981//413
f 981//414 816//414 815//414
f 749//669 982//669 815//669
f 815//669 982//669 981//669
f 982//413 749//413 983//413
f 983//448 749//448 750//448
f 983//670 750//670 984//670
f 984//552 750//552 751//552
f 984//412 751//412 985//412
f 985//476 751//476 752//476
f 752//671 810//671 985//671
f 985//671 810//671 986//671
f 986//550 810//550 987//550
f 987//401 810//401 809//401
f 987//402 809//402 988//402
f 988//402 809//402 788//402
f 988//402 788//402 989//402
f 989//401 788//401 787//401
f 808//669 990//669 787//669
f 787//669 990//669 989//669
f 808//402 807//402 990//402
f 990//402 807//402 991//402
f 991//402 807//402 806//402
f 991//550 806//550 992//550
f 992//550 806//550 805//550
f 992//457 805//457 993//457
f 805//672 786//672 993//672
f 993//673 786//673 994//673
f 994//402 786//402 995//402
f 995//403 786//403 791//403
f 995//403 791//403 996//403
f 996//674 791//674 790//674
f 996//674 790//674 997//674
f 997//402 790//402 789//402
f 804//675 998//675 789//675
f 789//676 998//676 999//676
f 789//677 999//677 1000//677
f 1000//678 1001//678 789//678
f 789//679 1001//679 997//679
f 804//680 745//680 998//680
f 998//681 745//681 974//681
f 993//682 994//682 998//682
f 998//683 994//683 995//683
f 998//684 995//684 999//684
f 999//685 995//685 996//685
f 999//686 996//686 1000//686
f 1000//687 996//687 1001//687
f 1001//688 996//688 997//688
f 974//689 976//689 998//689
f 998//690 976//690 977//690
f 998//691 977//691 978//691
f 974//692 975//692 976//692
f 998//693 978//693 993//693
f 993//694 978//694 979//694
f 993//695 979//695 992//695
f 992//696 979//696 980//696
f 992//697 980//697 991//697
f 991//698 980//698 981//698
f 991//699 981//699 990//699
f 990//700 981//700 983//700
f 990//700 983//700 989//700
f 989//701 983//701 988//701
f 988//702 983//702 984//702
f 988//703 984//703 987//703
f 987//704 984//704 985//704
f 987//705 985//705 986//705
f 981//700 982//700 983//700
