# Blender 4.0.2
# www.blender.org
o SICK-MICROSCAN3__m1
v 49.454208 -25.140930 -10.438390
v 49.454208 -25.140930 -10.900000
v 49.451630 -25.288300 -11.450000
v 49.444611 -25.690920 11.852630
v 49.451630 -25.288300 11.450000
v 49.403591 -28.040920 12.000000
v 49.435001 -26.240919 12.000000
v 49.375809 -29.632280 10.500000
v 49.375809 -29.632280 -10.500000
v 49.403591 -28.040920 -12.000000
v 49.393990 -28.590919 -11.852630
v 49.386959 -28.993549 -11.450000
v 49.444611 -25.690920 -11.852630
v 49.454208 -25.140930 10.900000
v 49.454208 -25.140930 10.438390
v 49.435001 -26.240919 -12.000000
v 49.384392 -29.140921 -10.900000
v 49.384392 -29.140921 -10.763870
v 49.380089 -29.386950 -10.500000
v 49.384392 -29.140921 10.763870
v 49.380089 -29.386950 10.500000
v 49.384392 -29.140921 10.900000
v 49.386959 -28.993549 11.450000
v 49.393990 -28.590919 11.852630
v 50.101849 -28.239071 11.500000
v 50.109402 -27.806120 11.250000
v 50.106220 -27.989100 11.433010
v 50.155708 -25.153170 6.251626
v 50.110580 -27.739140 11.000000
v 50.109402 -27.806120 -11.250000
v 50.106220 -27.989100 -11.433010
v 50.101849 -28.239071 -11.500000
v 50.052429 -31.070330 10.500000
v 50.052429 -31.070330 -10.500000
v 50.110580 -27.739140 -11.000000
v 50.155708 -25.153170 -6.251626
v 50.110580 -27.739140 -6.603687
v 50.110580 -27.739140 6.603687
v 50.351810 -28.243429 11.500000
v 50.356171 -27.993469 11.433010
v 50.359371 -27.810480 11.250000
v 50.360538 -27.743500 11.000000
v 50.335850 -29.157530 4.580405
v 50.335850 -29.157530 -4.580405
v 50.360538 -27.743500 4.300550
v 50.360538 -27.743500 -4.300550
v 50.360538 -27.743500 -11.000000
v 50.351810 -28.243429 -11.500000
v 50.359371 -27.810480 -11.250000
v 50.356171 -27.993469 -11.433010
v 49.854328 -29.841080 -10.500000
v 49.746201 -30.034189 -10.500000
v 50.155930 -30.424330 -10.500000
v 49.978889 -30.528740 -10.500000
v 50.252399 -31.073820 -10.500000
v 50.252399 -31.073820 10.500000
v 50.155930 -30.424330 10.500000
v 49.854328 -29.841080 10.500000
v 49.746201 -30.034189 10.500000
v 49.978889 -30.528740 10.500000
v 50.205631 -27.740801 5.837278
v 50.288952 -27.742250 5.069506
v 50.205631 -27.740801 -5.837278
v 50.288952 -27.742250 -5.069506
v 51.059078 -30.698170 14.189690
v 51.071018 -30.014231 14.189690
v 51.137611 -26.198851 14.189690
v 51.128471 -26.722780 13.750000
v 51.080158 -29.490311 13.750000
v 51.126389 -26.841539 13.076350
v 51.082230 -29.371540 13.076350
v 51.127880 -26.756750 11.250000
v 51.080750 -29.456591 11.250000
v 51.080750 -29.456591 10.988910
v 51.048710 -31.292290 9.274779
v 51.049339 -31.256060 10.160220
v 51.049339 -31.256060 9.433704
v 51.049759 -31.231911 9.569927
v 51.047859 -31.340860 -2.673648
v 51.049931 -31.222090 -2.000000
v 51.049339 -31.256060 9.059092
v 51.050598 -31.183599 8.922870
v 51.052921 -31.050760 8.809352
v 51.059078 -30.698170 -1.560307
v 51.055241 -30.917910 8.752593
v 51.057770 -30.772980 8.729889
v 51.127239 -26.792980 3.349111
v 51.127239 -26.792980 4.393482
v 51.127880 -26.756750 4.211852
v 51.127880 -26.756750 3.519389
v 51.129570 -26.660130 4.075630
v 51.129768 -26.648050 3.621556
v 51.131672 -26.539360 4.018870
v 51.132092 -26.515209 3.655611
v 51.135250 -26.334049 3.973463
v 51.143688 -25.850969 3.973463
v 51.143051 -25.887199 4.155093
v 51.048710 -31.292290 -6.781722
v 51.049339 -31.256060 -6.997408
v 51.049129 -31.268141 -6.883889
v 51.127880 -26.756750 -14.262590
v 51.052921 -31.050760 -7.247148
v 51.050598 -31.183599 -7.133629
v 51.159920 -24.921049 -13.763110
v 51.159500 -24.945200 -13.922040
v 51.159698 -24.933130 1.782556
v 51.160770 -24.872231 -2.673648
v 51.159290 -24.957279 -4.500000
v 51.154800 -25.214199 -3.266045
v 51.143581 -25.856880 -3.500000
v 51.160770 -24.872231 13.076350
v 51.158699 -24.990990 13.750000
v 51.149551 -25.514919 14.189690
v 51.132359 -26.499580 12.483960
v 51.143581 -25.856880 12.250000
v 51.159290 -24.957279 11.250000
v 51.154800 -25.214199 12.483960
v 51.127880 -26.756750 -5.737352
v 51.127880 -26.756750 -6.123315
v 51.151058 -25.428280 -5.737352
v 51.151058 -25.428280 -6.123315
v 51.155281 -25.186741 -5.737352
v 51.159290 -24.957279 -5.737352
v 51.151058 -25.428280 -6.304944
v 51.151272 -25.416201 -6.486574
v 51.150009 -25.488670 -6.384407
v 51.148750 -25.561131 -6.339000
v 51.147270 -25.645660 -6.304944
v 51.127880 -26.756750 -5.544370
v 51.080750 -29.456591 -5.589778
v 51.080750 -29.456591 -5.884926
v 51.127880 -26.756750 -6.316296
v 51.080750 -29.456591 -6.566037
v 51.081379 -29.420361 -6.759018
v 51.151058 -25.428280 -5.544370
v 51.131039 -26.575590 -5.351389
v 51.127880 -26.756750 -5.351389
v 51.080750 -29.456591 -4.795148
v 51.055450 -30.905830 -5.192463
v 51.155281 -25.186741 -5.533019
v 51.159290 -24.957279 -4.704333
v 51.159290 -24.957279 -5.533019
v 51.159290 -24.957279 -7.349315
v 51.151909 -25.379971 -6.611444
v 51.151482 -25.404119 -6.724963
v 51.127880 -26.756750 -4.500000
v 51.132359 -26.499580 -3.266045
v 51.126389 -26.841539 -2.673648
v 51.131039 -26.575590 -4.704333
v 51.080750 -29.456591 -4.500000
v 51.082230 -29.371540 -2.673648
v 51.076260 -29.713511 -3.266045
v 51.153591 -25.283360 2.293389
v 51.156120 -25.138430 2.100407
v 51.156750 -25.102200 3.462630
v 51.159698 -24.933130 1.930130
v 51.159290 -24.957279 5.517315
v 51.159290 -24.957279 5.755703
v 51.159290 -24.957279 6.459519
v 51.127880 -26.756750 6.232482
v 51.120071 -27.203600 7.310907
v 51.127880 -26.756750 6.028148
v 51.127880 -26.756750 5.267574
v 51.136940 -26.237440 5.903278
v 51.136940 -26.237440 5.392445
v 51.130829 -26.587669 1.782556
v 51.130829 -26.587669 1.510111
v 51.149551 -25.514919 -1.560307
v 51.158699 -24.990990 -2.000000
v 51.137611 -26.198851 -1.560307
v 51.127880 -26.756750 1.510111
v 51.128471 -26.722780 -2.000000
v 51.080158 -29.490311 -2.000000
v 51.071018 -30.014231 -1.560307
v 51.127880 -26.756750 2.282037
v 51.127670 -26.768820 3.167481
v 51.127670 -26.768820 3.269648
v 51.130402 -26.611820 3.167481
v 51.130829 -26.587669 2.282037
v 51.148109 -25.597361 3.224241
v 51.149799 -25.500740 2.293389
v 51.151058 -25.428280 3.224241
v 51.130829 -26.587669 1.986889
v 51.151909 -25.379971 2.123111
v 51.154442 -25.235050 1.986889
v 51.130619 -26.599751 3.405870
v 51.130192 -26.623899 3.281000
v 51.132301 -26.503130 3.451278
v 51.130192 -26.623899 3.235593
v 51.148109 -25.597361 3.655611
v 51.148109 -25.597361 3.837241
v 51.145802 -25.730209 3.996167
v 51.147900 -25.609430 4.030222
v 51.151058 -25.428280 3.837241
v 51.149590 -25.512819 4.086981
v 51.151272 -25.416201 4.211852
v 51.156330 -25.126350 3.655611
v 51.151909 -25.379971 4.382130
v 51.148750 -25.561131 4.734037
v 51.139259 -26.104589 4.847555
v 51.127880 -26.756750 5.063241
v 51.133781 -26.418591 4.824852
v 51.129978 -26.635981 4.722685
v 51.127880 -26.756750 4.586463
v 51.073372 -29.879290 8.786648
v 51.059460 -30.676371 8.741242
v 51.061138 -30.579750 8.775297
v 51.062618 -30.495211 8.820705
v 51.063881 -30.422750 8.877464
v 51.065571 -30.326139 9.013686
v 51.072311 -29.939671 8.968278
v 51.067261 -30.229521 9.218019
v 51.067890 -30.193291 9.331538
v 51.068729 -30.144979 9.411001
v 51.069370 -30.108749 9.479111
v 51.070210 -30.060440 9.524518
v 51.074429 -29.818899 9.013686
v 51.071468 -29.987980 9.569927
v 51.073158 -29.891359 9.581278
v 51.075062 -29.782669 9.569927
v 51.076111 -29.722290 9.059092
v 51.076752 -29.686050 9.513168
v 51.077801 -29.625669 9.422352
v 51.077591 -29.637751 9.161260
v 51.078220 -29.601521 9.308834
v 51.151058 -25.428280 3.655611
v 51.151058 -25.428280 3.462630
v 51.148109 -25.597361 3.462630
v 51.133781 -26.418591 3.462630
v 51.120071 -27.203600 -8.291520
v 51.078640 -29.577360 -7.122278
v 51.120071 -27.203600 -8.439093
v 51.076321 -29.710211 -7.201741
v 51.073372 -29.879290 -7.269852
v 51.159290 -24.957279 -9.131556
v 51.127880 -26.756750 -8.234760
v 51.127880 -26.756750 -8.030426
v 51.127880 -26.756750 -7.542296
v 51.135040 -26.346130 -7.542296
v 51.140099 -26.056280 -7.735278
v 51.159290 -24.957279 -9.290481
v 51.159290 -24.957279 -7.542296
v 51.151058 -25.428280 -8.189352
v 51.151058 -25.428280 -7.985018
v 51.139469 -26.092510 -7.542296
v 51.127880 -26.756750 -9.517518
v 51.159290 -24.957279 -9.994297
v 51.159290 -24.957279 -10.232680
v 51.156750 -25.102200 -12.287370
v 51.156330 -25.126350 -12.094390
v 51.151909 -25.379971 -11.367870
v 51.151272 -25.416201 -11.538150
v 51.142841 -25.899281 -7.860148
v 51.127880 -26.756750 -7.349315
v 51.127880 -26.756750 -6.952000
v 51.127880 -26.756750 -6.759018
v 51.140308 -26.044210 -6.316296
v 51.141998 -25.947590 -6.759018
v 51.143688 -25.850969 -6.327648
v 51.144112 -25.826820 -6.747667
v 51.146221 -25.706051 -6.361704
v 51.145370 -25.754360 -6.747667
v 51.147060 -25.657740 -6.724963
v 51.142632 -25.911360 -6.952000
v 51.144741 -25.790590 -6.940648
v 51.146431 -25.693970 -6.940648
v 51.148750 -25.561131 -6.895241
v 51.150639 -25.452431 -6.827130
v 51.148319 -25.585279 -6.679556
v 51.148750 -25.561131 -6.622796
v 51.148109 -25.597361 -6.441166
v 51.148960 -25.549049 -6.566037
v 51.130402 -26.611820 4.495648
v 51.130192 -26.623899 4.382130
v 51.131672 -26.539360 4.575111
v 51.132301 -26.503130 4.200500
v 51.133572 -26.430670 4.177796
v 51.130619 -26.599751 4.268611
v 51.134411 -26.382360 4.631870
v 51.135681 -26.309900 4.155093
v 51.138618 -26.140820 4.643222
v 51.143051 -25.887199 4.631870
v 51.145370 -25.754360 4.189148
v 51.146221 -25.706051 4.597815
v 51.147060 -25.657740 4.211852
v 51.148319 -25.585279 4.291315
v 51.148960 -25.549049 4.393482
v 51.148109 -25.597361 4.518352
v 51.131248 -26.563520 -13.456610
v 51.131248 -26.563520 -14.262590
v 51.138000 -26.177050 -13.887980
v 51.143471 -25.863050 -14.137720
v 51.146851 -25.669821 -14.228540
v 51.150429 -25.464510 -14.262590
v 51.154861 -25.210890 -14.205830
v 51.158230 -25.017660 -14.058260
v 51.055241 -30.917910 -7.303907
v 51.127880 -26.756750 -13.229570
v 51.057770 -30.772980 -7.326611
v 51.127239 -26.792980 -12.400890
v 51.059460 -30.676371 -7.315259
v 51.127239 -26.792980 -11.356520
v 51.127880 -26.756750 -10.686760
v 51.127880 -26.756750 -10.482430
v 51.131039 -26.575590 -13.229570
v 51.130402 -26.611820 -12.582520
v 51.127670 -26.768820 -12.582520
v 51.127670 -26.768820 -12.480350
v 51.148109 -25.597361 -12.525760
v 51.136520 -26.261589 -13.558780
v 51.150639 -25.452431 -13.229570
v 51.150009 -25.488670 -13.399850
v 51.141151 -25.995899 -13.808520
v 51.143902 -25.838900 -13.922040
v 51.146221 -25.706051 -14.001500
v 51.148109 -25.597361 -14.035550
v 51.150219 -25.476589 -14.058260
v 51.152538 -25.343740 -13.433910
v 51.152748 -25.331659 -14.035550
v 51.154442 -25.235050 -13.490670
v 51.155071 -25.198820 -13.967450
v 51.156330 -25.126350 -13.865280
v 51.156750 -25.102200 -13.740410
v 51.156120 -25.138430 -13.592830
v 51.151058 -25.428280 -12.525760
v 51.152962 -25.319590 -13.252280
v 51.154861 -25.210890 -13.297680
v 51.157391 -25.065969 -13.399850
v 51.159081 -24.969360 -13.558780
v 51.159698 -24.933130 -13.649590
v 51.148109 -25.597361 -12.287370
v 51.133781 -26.418591 -12.287370
v 51.132301 -26.503130 -12.298720
v 51.130192 -26.623899 -12.514410
v 51.130192 -26.623899 -12.469000
v 51.130619 -26.599751 -12.344130
v 51.127880 -26.756750 -11.538150
v 51.127880 -26.756750 -12.230610
v 51.129570 -26.660130 -11.674370
v 51.129768 -26.648050 -12.128440
v 51.131672 -26.539360 -11.731130
v 51.132092 -26.515209 -12.094390
v 51.135250 -26.334049 -11.776540
v 51.143688 -25.850969 -11.776540
v 51.143051 -25.887199 -11.594910
v 51.148109 -25.597361 -12.094390
v 51.148109 -25.597361 -11.912760
v 51.145802 -25.730209 -11.753830
v 51.147900 -25.609430 -11.719780
v 51.151058 -25.428280 -11.912760
v 51.149590 -25.512819 -11.663020
v 51.151058 -25.428280 -12.094390
v 51.151058 -25.428280 -12.287370
v 51.148960 -25.549049 -11.356520
v 51.148109 -25.597361 -11.231650
v 51.148319 -25.585279 -11.458680
v 51.146221 -25.706051 -11.152190
v 51.147060 -25.657740 -11.538150
v 51.145370 -25.754360 -11.560850
v 51.143051 -25.887199 -11.118130
v 51.138618 -26.140820 -11.106780
v 51.135681 -26.309900 -11.594910
v 51.134411 -26.382360 -11.118130
v 51.133572 -26.430670 -11.572200
v 51.131672 -26.539360 -11.174890
v 51.132301 -26.503130 -11.549500
v 51.130192 -26.623899 -11.367870
v 51.130619 -26.599751 -11.481390
v 51.130402 -26.611820 -11.254350
v 51.127880 -26.756750 -11.163540
v 51.129978 -26.635981 -11.027310
v 51.133781 -26.418591 -10.925150
v 51.139259 -26.104589 -10.902440
v 51.148750 -25.561131 -11.015960
v 51.136940 -26.237440 -10.357560
v 51.136940 -26.237440 -9.846722
v 51.127880 -26.756750 -9.721853
v 51.049339 -31.256060 -5.884926
v 51.057560 -30.785061 -6.191426
v 51.071049 -30.012131 -6.282241
v 51.072948 -29.903440 -6.270889
v 51.049339 -31.256060 -5.691944
v 51.049339 -31.256060 -6.622796
v 51.049759 -31.231911 -6.486574
v 51.076530 -29.698130 -5.691944
v 51.049339 -31.256060 -5.249222
v 51.049339 -31.256060 -5.101648
v 51.049339 -31.256060 -4.681630
v 51.049339 -31.256060 -4.500000
v 51.076530 -29.698130 -4.681630
v 51.065048 -30.356199 -3.500000
v 51.053829 -30.998890 -3.266045
v 51.053982 -30.990370 -6.497926
v 51.057140 -30.809210 -7.110926
v 51.055660 -30.893749 -6.429815
v 51.059250 -30.688440 -7.088223
v 51.060928 -30.591829 -7.020111
v 51.052292 -31.086990 -6.611444
v 51.051868 -31.111139 -6.781722
v 51.053131 -31.038679 -7.008759
v 51.054821 -30.942060 -7.076870
v 51.052078 -31.099060 -6.906593
v 51.061989 -30.531441 -6.917945
v 51.058411 -30.736750 -6.384407
v 51.063251 -30.458981 -6.770371
v 51.064522 -30.386520 -6.611444
v 51.065361 -30.338209 -6.520630
v 51.067051 -30.241600 -6.395759
v 51.069370 -30.108749 -6.316296
v 51.076321 -29.710211 -6.304944
v 51.079060 -29.553209 -6.418463
v 51.080540 -29.468670 -6.963352
v 51.072311 -29.939671 -7.088223
v 51.065571 -30.326139 -7.042815
v 51.063881 -30.422750 -7.179037
v 51.062618 -30.495211 -7.235796
v 51.074429 -29.818899 -7.042815
v 51.070210 -30.060440 -6.531981
v 51.069370 -30.108749 -6.577389
v 51.068729 -30.144979 -6.645500
v 51.076111 -29.722290 -6.997408
v 51.075062 -29.782669 -6.486574
v 51.073158 -29.891359 -6.475222
v 51.071468 -29.987980 -6.486574
v 51.077591 -29.637751 -6.895241
v 51.077801 -29.625669 -6.634148
v 51.076752 -29.686050 -6.543334
v 51.078220 -29.601521 -6.747667
v 51.067890 -30.193291 -6.724963
v 51.067261 -30.229521 -6.838481
v 51.061138 -30.579750 -7.281204
v 51.051659 -31.123220 -6.327648
v 51.054821 -30.942060 -6.236833
v 51.055870 -30.881670 -6.214129
v 51.049129 -31.268141 9.172612
v 51.051659 -31.123220 9.728853
v 51.054821 -30.942060 9.819667
v 51.055870 -30.881670 9.842370
v 51.057560 -30.785061 9.865075
v 51.080750 -29.456591 10.160220
v 51.071049 -30.012131 9.774259
v 51.072948 -29.903440 9.785612
v 51.058411 -30.736750 9.672094
v 51.067051 -30.241600 9.660740
v 51.069370 -30.108749 9.740204
v 51.055660 -30.893749 9.626686
v 51.061989 -30.531441 9.138556
v 51.063251 -30.458981 9.286129
v 51.064522 -30.386520 9.445056
v 51.053982 -30.990370 9.558574
v 51.057140 -30.809210 8.945574
v 51.059250 -30.688440 8.968278
v 51.060928 -30.591829 9.036390
v 51.052292 -31.086990 9.445056
v 51.051868 -31.111139 9.274779
v 51.053131 -31.038679 9.047741
v 51.054821 -30.942060 8.979631
v 51.052078 -31.099060 9.149908
v 51.065361 -30.338209 9.535871
v 51.076321 -29.710211 9.751556
v 51.079060 -29.553209 9.638037
v 51.080750 -29.456591 9.490464
v 51.081379 -29.420361 9.297482
v 51.127880 -26.756750 9.626686
v 51.127880 -26.756750 10.012650
v 51.127880 -26.756750 10.205630
v 51.080750 -29.456591 10.341850
v 51.127880 -26.756750 10.398610
v 51.080540 -29.468670 9.093149
v 51.120071 -27.203600 7.458482
v 51.127880 -26.756750 8.798001
v 51.127880 -26.756750 8.990983
v 51.078640 -29.577360 8.934223
v 51.076321 -29.710211 8.854760
v 51.049339 -31.256060 10.375910
v 51.049339 -31.256060 11.068370
v 51.049339 -31.256060 11.250000
v 51.075901 -29.734360 11.068370
v 51.065048 -30.356199 12.250000
v 51.053829 -30.998890 12.483960
v 51.047859 -31.340860 13.076350
v 51.055870 -30.881670 10.341850
v 51.159290 -24.957279 6.618444
v 51.127880 -26.756750 7.515241
v 51.127880 -26.756750 7.719574
v 51.127880 -26.756750 8.207704
v 51.135040 -26.346130 8.207704
v 51.140099 -26.056280 8.014722
v 51.159290 -24.957279 8.207704
v 51.151058 -25.428280 7.560648
v 51.151058 -25.428280 7.764981
v 51.139469 -26.092510 8.207704
v 51.142841 -25.899281 7.889852
v 51.127880 -26.756750 8.400686
v 51.142632 -25.911360 8.798001
v 51.159290 -24.957279 8.400686
v 51.144741 -25.790590 8.809352
v 51.146431 -25.693970 8.809352
v 51.148750 -25.561131 8.854760
v 51.150639 -25.452431 8.922870
v 51.151482 -25.404119 9.025037
v 51.151909 -25.379971 9.138556
v 51.159290 -24.957279 10.012650
v 51.151272 -25.416201 9.263426
v 51.151058 -25.428280 9.445056
v 51.150009 -25.488670 9.365593
v 51.148750 -25.561131 9.411001
v 51.147270 -25.645660 9.445056
v 51.141998 -25.947590 8.990983
v 51.140308 -26.044210 9.433704
v 51.127880 -26.756750 9.433704
v 51.143688 -25.850969 9.422352
v 51.144112 -25.826820 9.002333
v 51.146221 -25.706051 9.388298
v 51.145370 -25.754360 9.002333
v 51.147060 -25.657740 9.025037
v 51.148319 -25.585279 9.070446
v 51.148750 -25.561131 9.127204
v 51.148109 -25.597361 9.308834
v 51.148960 -25.549049 9.183963
v 51.151058 -25.428280 10.012650
v 51.151058 -25.428280 9.626686
v 51.155281 -25.186741 10.012650
v 51.151058 -25.428280 10.205630
v 51.155281 -25.186741 10.216980
v 51.159290 -24.957279 11.045670
v 51.159290 -24.957279 10.216980
v 51.131039 -26.575590 10.398610
v 51.131039 -26.575590 11.045670
v 51.049931 -31.222090 13.750000
v 51.076260 -29.713511 12.483960
v 51.140099 -26.056280 -9.892130
v 51.155491 -25.174660 -10.107810
v 51.140099 -26.056280 -10.312150
v 51.140099 -26.056280 5.857871
v 51.155491 -25.174660 5.642185
v 51.140099 -26.056280 5.437852
v 49.727100 -25.145691 -9.049533
v 49.727100 -25.145691 9.049533
v 49.960999 -25.149771 -7.653580
v 49.960999 -25.149771 7.653580
v 49.374470 -29.140921 -10.809260
v 49.388222 -25.140930 -10.746230
v 49.421459 -25.140930 -10.592360
v 49.354519 -25.140930 -10.900000
v 49.364510 -29.140921 -10.854630
v 49.354519 -29.140921 -10.900000
v 49.260620 -25.222940 -11.316800
v 49.260620 -29.058901 -11.316800
v 49.177429 -28.823540 -11.672990
v 49.177429 -25.458309 -11.672990
v 49.119518 -28.466530 -11.914330
v 49.119518 -25.815319 -11.914330
v 49.098660 -26.240919 -12.000000
v 49.098660 -28.040920 -12.000000
v 49.786572 -29.147940 -8.716399
v 50.103909 -29.153481 -6.654072
v 49.786572 -29.147940 8.716399
v 50.103909 -29.153481 6.654072
v 49.421459 -25.140930 10.592360
v 49.388222 -25.140930 10.746230
v 49.374470 -29.140921 10.809260
v 49.354519 -25.140930 10.900000
v 49.364510 -29.140921 10.854630
v 49.354519 -29.140921 10.900000
v 49.260620 -29.058901 11.316800
v 49.260620 -25.222950 11.316800
v 49.177429 -25.458309 11.672990
v 49.177429 -28.823540 11.672990
v 49.119518 -25.815319 11.914330
v 49.119518 -28.466530 11.914330
v 49.098660 -28.040920 12.000000
v 49.098660 -26.240919 12.000000
vn 0.9891 0.1469 -0.0000
vn 0.9892 0.1469 -0.0000
vn 0.8883 0.4593 -0.0000
vn 0.6916 0.7223 -0.0000
vn -0.0174 -0.9998 -0.0000
vn -0.0175 -0.9998 -0.0000
vn -0.0045 -0.2588 -0.9659
vn -0.0124 -0.7070 -0.7071
vn -0.0123 -0.7070 -0.7071
vn -0.0168 -0.9658 -0.2588
vn -0.9909 -0.1346 -0.0000
vn -0.9048 -0.4257 -0.0000
vn -0.7353 -0.6777 -0.0000
vn -0.7354 -0.6777 -0.0000
vn -0.0168 -0.9658 0.2588
vn -0.0123 -0.7070 0.7071
vn -0.0124 -0.7070 0.7071
vn -0.0045 -0.2588 0.9659
vn 0.9998 -0.0175 -0.0000
vn 0.9998 -0.0174 -0.0000
vn 0.9998 -0.0174 0.0001
vn 0.9998 -0.0174 -0.0001
vn 0.9998 -0.0173 -0.0000
vn 0.9998 -0.0175 0.0001
vn 0.9998 -0.0175 -0.0001
vn 0.9998 -0.0175 -0.0002
vn 0.9998 -0.0176 -0.0000
vn 0.9999 -0.0173 -0.0000
vn 0.9998 -0.0174 -0.0002
vn 0.0174 0.9998 -0.0000
vn 0.0175 0.9998 -0.0000
vn 0.9769 -0.0000 -0.2136
vn 0.9775 -0.0000 -0.2111
vn 0.9781 -0.0001 -0.2080
vn 0.9768 -0.0000 -0.2141
vn 0.9767 -0.0000 -0.2144
vn 0.9766 -0.0000 -0.2151
vn 0.9756 -0.0000 -0.2198
vn 0.9738 -0.0000 -0.2274
vn 0.9724 -0.0000 -0.2333
vn 0.9716 -0.0000 -0.2366
vn 0.9812 -0.0014 -0.1928
vn 0.9812 -0.0015 -0.1927
vn 0.9863 0.0009 -0.1652
vn 0.9884 -0.0027 -0.1521
vn 0.9901 0.0003 -0.1403
vn 0.9924 -0.0003 -0.1231
vn 0.9905 0.0014 -0.1376
vn 0.9938 -0.0073 -0.1112
vn 0.9942 -0.0043 -0.1079
vn 0.9957 0.0010 -0.0927
vn 0.9957 0.0010 0.0927
vn 0.9942 -0.0043 0.1079
vn 0.9938 -0.0073 0.1112
vn 0.9924 -0.0003 0.1231
vn 0.9901 0.0003 0.1403
vn 0.9905 0.0014 0.1376
vn 0.9884 -0.0027 0.1521
vn 0.9863 0.0009 0.1652
vn 0.9812 -0.0015 0.1927
vn 0.9812 -0.0014 0.1928
vn 0.9781 -0.0001 0.2080
vn 0.9775 -0.0000 0.2111
vn 0.9769 -0.0000 0.2136
vn 0.9768 -0.0000 0.2141
vn 0.9767 -0.0000 0.2144
vn 0.9766 -0.0000 0.2151
vn 0.9756 -0.0000 0.2198
vn 0.9738 -0.0000 0.2274
vn 0.9724 -0.0000 0.2333
vn 0.9716 -0.0000 0.2366
vn -0.0000 1.0000 -0.0000
vn -0.0000 0.1973 -0.9803
vn -0.0985 0.2592 -0.9608
vn 0.0723 0.5666 -0.8208
vn -0.1733 0.6979 -0.6949
vn 0.1210 0.8410 -0.5274
vn -0.2223 0.9420 -0.2514
vn -0.0000 0.9812 -0.1931
vn -0.0000 -0.0000 -1.0000
vn -0.0000 -0.1973 -0.9803
vn -0.0846 -0.2565 -0.9628
vn 0.0604 -0.5657 -0.8224
vn -0.1370 -0.6992 -0.7016
vn 0.0857 -0.8403 -0.5352
vn -0.1478 -0.9551 -0.2566
vn -0.0000 -0.9812 -0.1931
vn -0.0000 -1.0000 -0.0000
vn -0.0000 -0.9812 0.1930
vn -0.1479 -0.9551 0.2566
vn 0.0857 -0.8403 0.5353
vn -0.1370 -0.6992 0.7016
vn 0.0604 -0.5657 0.8224
vn -0.0846 -0.2565 0.9628
vn -0.0000 -0.1973 0.9803
vn -0.0000 -0.0000 1.0000
vn -0.0000 0.1973 0.9803
vn -0.0985 0.2592 0.9608
vn 0.0723 0.5666 0.8208
vn -0.1733 0.6979 0.6949
vn 0.1210 0.8410 0.5274
vn -0.2223 0.9420 0.2514
vn -0.0000 0.9812 0.1931
vn -0.0000 1.0000 0.0001
s 0
f 55//1 53//1 56//1
f 56//2 53//2 57//2
f 57//3 53//3 58//3
f 58//3 53//3 51//3
f 58//4 51//4 19//4
f 19//4 21//4 58//4
f 29//5 38//5 42//5
f 42//6 38//6 61//6
f 42//5 61//5 62//5
f 62//6 45//6 42//6
f 25//7 27//7 39//7
f 39//7 27//7 40//7
f 40//8 27//8 41//8
f 41//9 27//9 26//9
f 41//10 26//10 42//10
f 42//10 26//10 29//10
f 34//11 33//11 54//11
f 54//11 33//11 60//11
f 54//12 60//12 59//12
f 8//13 9//13 59//13
f 59//14 9//14 52//14
f 59//12 52//12 54//12
f 35//5 47//5 37//5
f 37//6 47//6 63//6
f 63//5 47//5 64//5
f 64//6 47//6 46//6
f 35//15 30//15 47//15
f 47//15 30//15 49//15
f 49//16 30//16 31//16
f 49//17 31//17 50//17
f 50//18 31//18 48//18
f 48//18 31//18 32//18
f 531//19 66//19 479//19
f 479//20 66//20 65//20
f 479//20 65//20 480//20
f 480//19 65//19 530//19
f 480//20 530//20 481//20
f 71//19 69//19 531//19
f 531//20 69//20 66//20
f 115//19 117//19 114//19
f 114//19 117//19 70//19
f 70//19 117//19 111//19
f 70//19 111//19 68//19
f 68//19 111//19 112//19
f 68//19 112//19 67//19
f 67//19 112//19 113//19
f 120//19 135//19 118//19
f 118//20 135//20 129//20
f 141//19 108//19 149//19
f 149//19 108//19 146//19
f 149//20 146//20 137//20
f 137//20 136//20 149//20
f 106//20 156//20 185//20
f 185//20 156//20 154//20
f 185//21 154//21 184//21
f 184//20 154//20 153//20
f 184//20 153//20 181//20
f 106//22 185//22 166//22
f 166//19 185//19 183//19
f 166//20 183//20 171//20
f 171//19 183//19 175//19
f 175//20 183//20 179//20
f 171//20 167//20 166//20
f 188//20 90//20 186//20
f 186//19 90//19 87//19
f 186//19 87//19 187//19
f 187//21 87//21 177//21
f 187//20 177//20 189//20
f 189//23 177//23 176//23
f 189//20 176//20 178//20
f 229//19 94//19 188//19
f 188//20 94//20 92//20
f 188//24 92//24 90//24
f 94//19 229//19 190//19
f 190//20 229//20 228//20
f 190//20 228//20 226//20
f 226//19 228//19 227//19
f 226//19 227//19 197//19
f 197//20 227//20 155//20
f 228//20 180//20 227//20
f 227//19 180//19 182//19
f 194//20 191//20 226//20
f 226//20 191//20 190//20
f 230//20 232//20 235//20
f 235//19 232//19 241//19
f 243//19 244//19 253//19
f 253//20 244//20 245//20
f 253//19 245//19 240//19
f 240//19 245//19 239//19
f 239//25 245//25 254//25
f 239//20 254//20 238//20
f 242//19 143//19 245//19
f 245//19 143//19 254//19
f 237//20 236//20 240//20
f 240//19 236//19 253//19
f 261//21 128//21 259//21
f 259//20 128//20 121//20
f 259//24 121//24 257//24
f 257//20 121//20 119//20
f 257//20 119//20 132//20
f 261//20 271//20 128//20
f 128//25 271//25 127//25
f 127//22 271//22 126//22
f 126//19 271//19 125//19
f 125//21 271//21 272//21
f 125//20 272//20 144//20
f 144//20 272//20 270//20
f 144//22 270//22 145//22
f 145//26 270//26 269//26
f 145//19 269//19 268//19
f 268//20 269//20 263//20
f 268//21 263//21 267//21
f 267//20 263//20 266//20
f 266//19 263//19 262//19
f 266//20 262//20 265//20
f 265//19 262//19 260//19
f 265//20 260//20 264//20
f 264//19 260//19 258//19
f 264//20 258//20 255//20
f 255//19 258//19 256//19
f 128//20 124//20 121//20
f 123//20 142//20 122//20
f 122//19 142//19 140//19
f 275//22 204//22 273//22
f 273//19 204//19 88//19
f 273//20 88//20 274//20
f 274//21 88//21 278//21
f 278//19 88//19 89//19
f 278//20 89//20 276//20
f 276//20 89//20 91//20
f 276//24 91//24 277//24
f 277//20 91//20 93//20
f 277//20 93//20 280//20
f 280//25 93//25 95//25
f 204//21 275//21 203//21
f 203//19 275//19 279//19
f 203//19 279//19 202//19
f 202//19 279//19 281//19
f 202//20 281//20 200//20
f 200//19 281//19 282//19
f 200//19 282//19 199//19
f 199//19 282//19 284//19
f 199//20 284//20 288//20
f 199//19 288//19 198//19
f 198//21 288//21 287//21
f 198//25 287//25 286//25
f 198//19 286//19 196//19
f 196//21 286//21 285//21
f 196//20 285//20 195//20
f 195//20 285//20 283//20
f 195//19 283//19 193//19
f 193//24 283//24 192//24
f 192//20 283//20 97//20
f 192//20 97//20 96//20
f 291//19 310//19 289//19
f 289//19 310//19 305//19
f 289//20 305//20 298//20
f 310//20 291//20 313//20
f 313//20 291//20 292//20
f 313//19 292//19 314//19
f 314//19 292//19 315//19
f 315//19 292//19 293//19
f 315//23 293//23 316//23
f 316//20 293//20 294//20
f 316//20 294//20 317//20
f 317//19 294//19 319//19
f 319//19 294//19 295//19
f 319//27 295//27 321//27
f 321//20 295//20 296//20
f 321//20 296//20 322//20
f 322//19 296//19 105//19
f 322//27 105//27 323//27
f 323//19 105//19 104//19
f 323//24 104//24 330//24
f 330//22 329//22 323//22
f 323//19 329//19 324//19
f 324//19 329//19 328//19
f 324//20 328//20 320//20
f 320//20 328//20 327//20
f 320//19 327//19 318//19
f 318//27 327//27 326//27
f 318//19 326//19 311//19
f 311//19 312//19 318//19
f 298//20 101//20 289//20
f 289//19 101//19 290//19
f 325//19 353//19 309//19
f 309//20 353//20 331//20
f 331//20 353//20 346//20
f 331//20 346//20 332//20
f 332//19 346//19 342//19
f 332//19 342//19 333//19
f 333//20 342//20 340//20
f 333//19 340//19 336//19
f 336//19 340//19 338//19
f 336//20 338//20 300//20
f 249//20 250//20 353//20
f 353//19 250//19 352//19
f 353//19 352//19 346//19
f 346//20 352//20 350//20
f 346//20 350//20 347//20
f 336//19 300//19 335//19
f 335//21 300//21 308//21
f 335//20 308//20 334//20
f 334//20 308//20 307//20
f 334//20 307//20 306//20
f 360//19 357//19 374//19
f 374//20 357//20 355//20
f 374//19 355//19 251//19
f 251//21 355//21 354//21
f 251//20 354//20 252//20
f 252//25 354//25 356//25
f 252//20 356//20 351//20
f 351//20 356//20 358//20
f 351//19 358//19 349//19
f 349//20 358//20 348//20
f 348//20 358//20 359//20
f 348//19 359//19 344//19
f 344//20 359//20 345//20
f 374//19 373//19 360//19
f 360//19 373//19 361//19
f 361//20 373//20 372//20
f 361//20 372//20 363//20
f 363//20 372//20 365//20
f 365//19 372//19 371//19
f 365//19 371//19 369//19
f 369//20 371//20 370//20
f 369//20 370//20 302//20
f 369//20 302//20 367//20
f 367//20 302//20 337//20
f 367//19 337//19 368//19
f 368//19 337//19 339//19
f 368//23 339//23 366//23
f 366//20 339//20 341//20
f 366//19 341//19 364//19
f 364//19 341//19 343//19
f 364//19 343//19 362//19
f 246//19 532//19 247//19
f 247//19 532//19 533//19
f 247//19 533//19 248//19
f 248//19 533//19 534//19
f 248//19 534//19 303//19
f 303//20 534//20 375//20
f 303//19 375//19 304//19
f 377//20 376//20 246//20
f 246//20 376//20 532//20
f 376//20 375//20 532//20
f 532//20 375//20 534//20
f 534//19 533//19 532//19
f 378//19 131//19 385//19
f 385//19 131//19 130//19
f 385//19 130//19 139//19
f 138//19 390//19 139//19
f 139//20 390//20 387//20
f 139//20 387//20 386//20
f 138//19 150//19 390//19
f 390//19 150//19 389//19
f 390//20 389//20 388//20
f 386//19 385//19 139//19
f 385//20 382//20 378//20
f 395//28 433//28 393//28
f 393//19 433//19 432//19
f 393//19 432//19 398//19
f 398//19 432//19 384//19
f 398//19 384//19 383//19
f 433//23 395//23 434//23
f 434//19 395//19 404//19
f 434//19 404//19 379//19
f 398//19 383//19 399//19
f 399//20 383//20 98//20
f 399//20 98//20 100//20
f 399//20 100//20 402//20
f 402//19 100//19 99//19
f 402//20 99//20 103//20
f 402//19 103//19 400//19
f 400//20 103//20 102//20
f 400//19 102//19 401//19
f 401//20 102//20 297//20
f 401//19 297//19 394//19
f 394//19 297//19 299//19
f 394//19 299//19 396//19
f 396//19 299//19 301//19
f 396//23 301//23 431//23
f 396//20 431//20 397//20
f 397//19 431//19 416//19
f 397//20 416//20 415//20
f 397//19 415//19 403//19
f 403//19 415//19 414//19
f 403//20 414//20 405//20
f 405//19 414//19 430//19
f 405//19 430//19 406//19
f 406//20 430//20 429//20
f 406//19 429//19 407//19
f 407//20 429//20 420//20
f 407//25 420//25 419//25
f 407//20 419//20 408//20
f 408//19 419//19 418//19
f 408//19 418//19 409//19
f 409//20 418//20 424//20
f 409//23 424//23 380//23
f 380//20 424//20 381//20
f 381//19 424//19 423//19
f 381//27 423//27 422//27
f 381//19 422//19 410//19
f 410//19 422//19 427//19
f 410//20 427//20 411//20
f 411//20 427//20 426//20
f 411//20 426//20 133//20
f 133//23 426//23 428//23
f 133//20 428//20 134//20
f 134//20 428//20 412//20
f 412//20 428//20 425//20
f 412//20 425//20 231//20
f 231//19 425//19 421//19
f 231//20 421//20 233//20
f 233//20 421//20 417//20
f 233//19 417//19 234//19
f 234//19 417//19 413//19
f 217//20 474//20 221//20
f 221//19 474//19 473//19
f 221//20 473//20 224//20
f 224//20 473//20 469//20
f 224//20 469//20 463//20
f 211//19 205//19 217//19
f 217//20 205//20 474//20
f 224//19 463//19 225//19
f 225//20 463//20 462//20
f 225//20 462//20 223//20
f 223//20 462//20 222//20
f 222//20 462//20 461//20
f 222//21 461//21 220//21
f 220//20 461//20 460//20
f 220//19 460//19 442//19
f 220//19 442//19 219//19
f 219//20 442//20 441//20
f 219//19 441//19 218//19
f 218//20 441//20 445//20
f 218//23 445//23 216//23
f 216//19 445//19 444//19
f 216//20 444//20 215//20
f 215//19 444//19 459//19
f 215//25 459//25 214//25
f 214//19 459//19 449//19
f 214//20 449//20 213//20
f 213//20 449//20 448//20
f 213//20 448//20 212//20
f 212//20 448//20 447//20
f 212//20 447//20 210//20
f 210//19 447//19 453//19
f 210//19 453//19 209//19
f 209//23 453//23 208//23
f 208//20 453//20 452//20
f 208//25 452//25 207//25
f 207//23 452//23 206//23
f 206//19 452//19 451//19
f 206//20 451//20 86//20
f 86//19 451//19 85//19
f 85//20 451//20 457//20
f 85//20 457//20 83//20
f 83//19 457//19 82//19
f 82//19 457//19 456//19
f 82//20 456//20 81//20
f 81//20 456//20 458//20
f 81//19 458//19 435//19
f 435//20 458//20 455//20
f 435//20 455//20 75//20
f 75//20 455//20 77//20
f 77//20 455//20 454//20
f 77//19 454//19 78//19
f 78//19 454//19 450//19
f 78//19 450//19 436//19
f 436//21 450//21 446//21
f 436//20 446//20 437//20
f 437//23 446//23 438//23
f 438//27 446//27 443//27
f 438//19 443//19 439//19
f 475//19 76//19 482//19
f 482//19 76//19 440//19
f 482//19 440//19 467//19
f 475//19 482//19 478//19
f 478//20 482//20 74//20
f 478//19 74//19 73//19
f 73//20 477//20 478//20
f 478//19 477//19 476//19
f 160//19 535//19 158//19
f 158//19 535//19 536//19
f 158//19 536//19 157//19
f 157//19 536//19 537//19
f 157//19 537//19 201//19
f 201//20 537//20 165//20
f 201//19 165//19 163//19
f 162//20 164//20 160//20
f 160//20 164//20 535//20
f 164//20 165//20 535//20
f 535//20 165//20 537//20
f 536//19 535//19 537//19
f 470//20 161//20 483//20
f 483//19 161//19 159//19
f 110//19 109//19 147//19
f 147//19 109//19 107//19
f 147//19 107//19 148//19
f 148//19 107//19 172//19
f 172//19 107//19 169//19
f 172//19 169//19 170//19
f 170//19 169//19 168//19
f 391//19 152//19 392//19
f 392//20 152//20 79//20
f 79//19 152//19 151//19
f 79//20 151//20 80//20
f 80//19 151//19 173//19
f 80//19 173//19 84//19
f 84//19 173//19 174//19
f 490//19 491//19 493//19
f 493//19 491//19 492//19
f 493//19 492//19 488//19
f 488//19 492//19 487//19
f 487//25 492//25 494//25
f 487//20 494//20 486//20
f 489//19 496//19 492//19
f 492//19 496//19 494//19
f 488//19 485//19 493//19
f 493//20 485//20 484//20
f 500//21 516//21 499//21
f 499//20 516//20 515//20
f 499//19 515//19 498//19
f 498//19 515//19 497//19
f 497//19 515//19 513//19
f 497//20 513//20 509//20
f 516//20 500//20 517//20
f 517//19 500//19 501//19
f 517//29 501//29 518//29
f 518//22 501//22 502//22
f 518//20 502//20 520//20
f 520//20 502//20 504//20
f 520//21 504//21 519//21
f 519//19 504//19 506//19
f 519//22 506//22 507//22
f 519//25 507//25 514//25
f 514//24 507//24 508//24
f 514//24 508//24 512//24
f 512//20 508//20 522//20
f 512//24 522//24 510//24
f 510//20 522//20 464//20
f 510//20 464//20 511//20
f 508//20 505//20 522//20
f 472//19 471//19 509//19
f 509//20 471//20 495//20
f 509//19 495//19 497//19
f 503//20 527//20 523//20
f 523//19 527//19 525//19
f 466//20 465//20 524//20
f 524//20 465//20 521//20
f 526//19 116//19 529//19
f 529//19 116//19 72//19
f 529//19 72//19 468//19
f 468//20 528//20 529//20
f 1//30 15//30 538//30
f 538//30 15//30 539//30
f 538//30 539//30 540//30
f 540//30 539//30 541//30
f 540//31 541//31 36//31
f 36//31 541//31 28//31
f 542//32 543//32 18//32
f 18//33 543//33 544//33
f 18//34 544//34 1//34
f 543//35 542//35 545//35
f 545//36 542//36 546//36
f 545//37 546//37 547//37
f 545//38 547//38 548//38
f 548//38 547//38 549//38
f 548//39 549//39 550//39
f 548//39 550//39 551//39
f 551//40 550//40 552//40
f 551//40 552//40 553//40
f 553//41 552//41 554//41
f 554//41 552//41 555//41
f 1//42 538//42 18//42
f 18//43 538//43 556//43
f 556//44 538//44 540//44
f 556//45 540//45 557//45
f 557//46 540//46 37//46
f 557//47 37//47 63//47
f 540//48 36//48 37//48
f 557//49 63//49 44//49
f 44//50 63//50 64//50
f 44//51 64//51 46//51
f 20//5 18//5 558//5
f 558//5 18//5 556//5
f 558//6 556//6 559//6
f 559//6 556//6 557//6
f 559//6 557//6 43//6
f 43//6 557//6 44//6
f 45//52 62//52 43//52
f 43//53 62//53 61//53
f 43//54 61//54 559//54
f 559//55 61//55 38//55
f 559//56 38//56 541//56
f 541//57 38//57 28//57
f 559//58 541//58 558//58
f 558//59 541//59 539//59
f 558//60 539//60 20//60
f 20//61 539//61 15//61
f 20//62 15//62 560//62
f 560//63 561//63 20//63
f 20//64 561//64 562//64
f 562//65 561//65 563//65
f 562//66 563//66 564//66
f 564//67 563//67 565//67
f 565//68 563//68 566//68
f 566//68 563//68 567//68
f 566//69 567//69 568//69
f 566//69 568//69 569//69
f 569//70 568//70 570//70
f 569//70 570//70 571//70
f 571//71 570//71 572//71
f 572//71 570//71 573//71
f 20//72 562//72 22//72
f 22//72 562//72 564//72
f 22//72 564//72 565//72
f 572//73 6//73 571//73
f 571//74 6//74 24//74
f 571//75 24//75 569//75
f 569//76 24//76 23//76
f 569//77 23//77 566//77
f 566//78 23//78 22//78
f 566//79 22//79 565//79
f 572//80 573//80 6//80
f 6//80 573//80 7//80
f 573//81 570//81 7//81
f 7//82 570//82 4//82
f 4//83 570//83 568//83
f 4//84 568//84 5//84
f 5//85 568//85 567//85
f 5//86 567//86 14//86
f 14//87 567//87 563//87
f 563//88 561//88 14//88
f 14//88 561//88 560//88
f 14//88 560//88 15//88
f 1//88 544//88 2//88
f 2//88 544//88 543//88
f 2//88 543//88 545//88
f 545//89 548//89 2//89
f 2//90 548//90 3//90
f 3//91 548//91 551//91
f 3//92 551//92 13//92
f 13//93 551//93 553//93
f 13//94 553//94 16//94
f 16//95 553//95 554//95
f 555//96 10//96 554//96
f 554//96 10//96 16//96
f 555//97 552//97 10//97
f 10//98 552//98 11//98
f 11//99 552//99 550//99
f 11//100 550//100 12//100
f 12//101 550//101 549//101
f 12//102 549//102 17//102
f 17//103 549//103 547//103
f 547//104 546//104 17//104
f 17//72 546//72 542//72
f 17//72 542//72 18//72
