# Blender 4.0.2
# www.blender.org
o SICK-MICROSCAN3__m6
v -53.557678 -41.684071 -46.400002
v -53.537800 -42.822868 -46.250069
v -53.519272 -43.884071 -45.810509
v -53.503368 -44.795341 -45.111271
v -53.422081 -49.452190 -40.454411
v -32.840721 -30.091141 -46.400002
v -33.470779 -29.740919 -46.400002
v -32.571209 -30.216949 -46.400002
v -32.269001 -30.285410 -46.400002
v -31.966789 -30.216949 -46.400002
v -31.697281 -30.091141 -46.400002
v -31.067221 -29.740919 -46.400002
v -31.067221 -21.190920 46.400002
v -30.705601 -20.840160 46.400002
v -33.832401 -20.840160 46.400002
v -33.470779 -21.190920 46.400002
v -53.409882 -50.151428 -39.543140
v -53.402210 -50.590988 -38.481949
v -53.399578 -50.740921 -37.343151
v -53.374241 -52.193050 -4.903487
v -53.369579 -52.460190 -4.637820
v -53.349998 -52.193050 -4.903487
v -53.349998 -52.459850 -4.637820
v -53.366581 -52.631779 -4.302417
v -53.349998 -52.631779 -4.302417
v -53.349998 -52.690651 -3.930339
v -53.365551 -52.690922 -3.930339
v -53.365551 -52.690922 4.269661
v -53.349998 -52.690651 4.269661
v -53.374241 -52.193050 5.242809
v -53.349998 -52.193050 5.242809
v -53.369579 -52.460190 4.977142
v -53.349998 -52.459850 4.977142
v -53.366581 -52.631779 4.641739
v -53.349998 -52.631779 4.641739
v -53.422081 -49.452190 40.454411
v -53.409882 -50.151428 39.543140
v -53.402210 -50.590988 38.481949
v -53.399578 -50.740921 37.343151
v -53.503368 -44.795341 45.111271
v -53.557678 -41.684071 46.400002
v -53.537800 -42.822868 46.250069
v -53.519272 -43.884071 45.810509
v -53.399578 -50.740921 8.081157
v -53.387840 -51.413898 6.017670
v -53.396580 -50.913422 6.995928
v -53.399578 -50.740921 -7.741835
v -53.396580 -50.913422 -6.656606
v -53.387840 -51.413898 -5.678348
v -31.067221 -29.740919 46.400002
v -33.470779 -29.740919 46.400002
v -31.067221 -21.190920 -46.400002
v -33.470779 -21.190920 -46.400002
v -53.349998 -51.428619 -5.657451
v -53.349998 -51.413479 -5.678034
v -53.349998 -50.929062 -6.607398
v -53.349998 -50.913422 -6.656606
v -53.349998 -50.740921 -7.664012
v -53.349998 -51.428619 5.996773
v -53.349998 -51.413898 6.017670
v -53.349998 -50.929062 6.946720
v -53.349998 -50.913422 6.995928
v -53.349998 -50.740921 8.003334
v -52.628300 -50.740921 -7.435191
v -51.049999 -50.740921 -7.207684
v -30.705601 -20.840160 -46.400002
v -33.832401 -20.840160 -46.400002
v -31.697281 -30.091141 46.400002
v -31.966789 -30.216949 46.400002
v -32.269001 -30.285410 46.400002
v -32.571209 -30.216949 46.400002
v -32.840721 -30.091141 46.400002
v -51.049999 -50.699909 23.492310
v -51.849998 -50.713879 23.381380
v -51.049999 -43.840961 -45.810509
v -51.049999 -44.752522 -45.111271
v -51.049999 -49.410789 -40.454411
v -51.049999 -50.110241 -39.543140
v -51.049999 -50.549938 -38.481949
v -51.049999 -50.699909 -37.343151
v -51.049999 -50.699909 -7.741835
v -51.049999 -50.718159 -7.384958
v -51.049999 -42.779449 -46.250069
v -51.049999 -41.640301 -46.400002
v -51.049999 -50.704472 -7.563164
v -51.849998 -50.713879 36.933079
v -51.049999 -50.699909 36.848862
v -43.029999 -45.724129 44.000000
v -43.028770 -45.724110 44.000000
v -43.029999 -45.725330 43.998798
v -51.049999 -50.740921 7.547006
v -52.628300 -50.740921 7.774513
v -51.049999 -41.640301 46.400002
v -51.049999 -42.779449 46.250069
v -51.049999 -43.840961 45.810509
v -51.049999 -44.752522 45.111271
v -51.049999 -49.410789 40.454411
v -51.049999 -50.110241 39.543140
v -51.049999 -50.549938 38.481949
v -51.049999 -50.699909 37.343151
v -51.049999 -50.704472 7.902486
v -51.049999 -50.718159 7.724280
v -51.049999 -50.699909 8.081157
v -50.489311 -46.250919 48.990211
v -49.971821 -46.250919 50.031582
v -48.906021 -46.250919 50.496689
v -47.790600 -46.250919 50.167889
v -47.147491 -46.250919 49.199051
v -47.277599 -46.250919 48.043480
v -48.120049 -46.250919 47.241901
v -49.280659 -46.250919 47.169369
v -50.216351 -46.250919 47.859829
v -49.616199 -46.250919 50.058491
v -50.234192 -46.250919 49.239410
v -50.181099 -46.250919 48.214722
v -49.481770 -46.250919 47.463902
v -48.463428 -46.250919 47.338242
v -47.602581 -46.250919 47.896561
v -47.301998 -46.250919 48.877609
v -47.702351 -46.250919 49.822338
v -48.616299 -46.250919 50.288712
v -47.608311 -6.250923 48.861740
v -47.926788 -6.250923 49.613300
v -48.653858 -6.250923 49.984299
v -47.847420 -6.250923 48.081299
v -48.532261 -6.250923 47.637138
v -49.342361 -6.250923 47.737099
v -49.898689 -6.250923 48.334400
v -49.940922 -6.250923 49.149559
v -49.449310 -6.250923 49.801159
v -48.475498 -46.250919 -47.335522
v -47.610062 -46.250919 -47.886719
v -47.301411 -46.250919 -48.865261
v -47.693958 -46.250919 -49.813259
v -48.604031 -46.250919 -50.287151
v -49.605801 -46.250919 -50.065182
v -50.230518 -46.250919 -49.251221
v -50.185871 -46.250919 -48.226131
v -49.492760 -46.250919 -47.469559
v -47.110668 -46.250919 -48.609791
v -47.628159 -46.250919 -47.568409
v -48.693958 -46.250919 -47.103310
v -49.809380 -46.250919 -47.432110
v -50.452492 -46.250919 -48.400951
v -50.322380 -46.250919 -49.556519
v -49.479931 -46.250919 -50.358101
v -48.319321 -46.250919 -50.430630
v -47.383629 -46.250919 -49.740162
v -47.853378 -6.250923 -48.073471
v -48.541851 -6.250923 -47.634972
v -49.351109 -6.250923 -47.741611
v -49.902489 -6.250923 -48.343472
v -49.938011 -6.250923 -49.158951
v -49.441029 -6.250923 -49.806480
v -48.644100 -6.250923 -49.983059
v -47.920120 -6.250923 -49.606071
v -47.607841 -6.250923 -48.851910
v 30.065479 -46.250919 40.500938
v 29.896690 -46.250919 41.513031
v 29.116819 -46.250919 42.179821
v 28.090811 -46.250919 42.189331
v 27.298719 -46.250919 41.537109
v 27.111191 -46.250919 40.528332
v 29.544241 -46.250919 39.617142
v 27.615959 -46.250919 39.635021
v 27.498011 -46.250919 39.472820
v 28.576851 -46.250919 39.275162
v 28.590750 -46.250919 39.075100
v 29.683491 -46.250919 39.472820
v 30.264919 -46.250919 40.479900
v 30.062990 -46.250919 41.625099
v 29.172180 -46.250919 42.372581
v 28.009319 -46.250919 42.372581
v 27.118509 -46.250919 41.625099
v 26.916580 -46.250919 40.479900
v 29.629650 -6.250923 41.362141
v 29.009260 -6.250923 41.892590
v 28.193041 -6.250923 41.900162
v 27.562910 -6.250923 41.381302
v 27.413731 -6.250923 40.578789
v 27.815281 -6.250923 39.868141
v 28.579691 -6.250923 39.581871
v 29.349270 -6.250923 39.853920
v 29.763929 -6.250923 40.557011
v 27.347490 -49.250919 41.508350
v 27.975809 -49.076752 41.863380
v 27.673250 -49.250919 41.889339
v 28.109680 -49.250919 42.135948
v 28.604130 -49.250919 42.218418
v -50.180050 -49.250919 49.222832
v -49.651951 -49.076752 49.714699
v -49.952202 -49.250919 49.669331
v -49.585388 -49.250919 50.010990
v -49.123840 -49.250919 50.206570
v 31.340750 -46.340919 -40.775101
v 30.972321 -46.340919 -39.400101
v 29.965750 -46.340919 -38.393532
v 28.590750 -46.340919 -38.025101
v 27.215750 -46.340919 -38.393532
v 26.209181 -46.340919 -39.400101
v 25.840750 -46.340919 -40.775101
v 26.209181 -46.340919 -42.150101
v 27.215750 -46.340919 -43.156670
v 28.590750 -46.340919 -43.525101
v 29.965750 -46.340919 -43.156670
v 30.972321 -46.340919 -42.150101
v 29.834009 -49.250919 40.041859
v 29.205690 -49.076752 39.686821
v 29.508249 -49.250919 39.660858
v 29.071819 -49.250919 39.414261
v 28.577370 -49.250919 39.331791
v -50.133560 -49.250919 -48.247791
v -49.561062 -49.076752 -47.808392
v -49.864269 -49.250919 -47.824989
v -49.466610 -49.250919 -47.519779
v -48.988548 -49.250919 -47.368992
v -48.476139 -49.250919 47.393429
v -49.166168 -49.076752 47.604832
v -48.976749 -49.250919 47.367489
v -49.456039 -49.250919 47.514332
v -49.856190 -49.250919 47.816250
v -47.743790 -49.250919 49.783749
v -47.581860 -49.076752 49.080460
v -47.471020 -49.250919 49.363178
v -47.358551 -49.250919 48.874680
v -47.419941 -49.250919 48.377171
v -48.143940 -49.250919 50.085670
v -48.433811 -49.076752 49.995171
v -48.623230 -49.250919 50.232510
v -50.180050 -47.950920 49.222832
v -49.856190 -47.950920 47.816250
v -49.123840 -47.950920 50.206570
v -48.476139 -47.950920 47.393429
v -47.743790 -47.950920 49.783749
v -47.419941 -47.950920 48.377171
v -48.611431 -49.250919 -50.230999
v -49.278221 -49.076752 -49.954910
v -49.112228 -49.250919 -50.209202
v -49.575378 -49.250919 -50.017422
v -49.944988 -49.250919 -49.678799
v -47.654991 -49.250919 -47.921200
v -47.560711 -49.076752 -48.636700
v -47.423470 -49.250919 -48.365810
v -47.357979 -49.250919 -48.862801
v -47.466431 -49.250919 -49.352200
v -48.024609 -49.250919 -47.582581
v -48.321758 -49.076752 -47.645088
v -48.487751 -49.250919 -47.390800
v -50.133560 -47.950920 -48.247791
v -49.944988 -47.950920 -49.678799
v -48.988548 -47.950920 -47.368992
v -48.611431 -47.950920 -50.230999
v -47.654991 -47.950920 -47.921200
v -47.466431 -47.950920 -49.352200
v -51.340778 -46.340919 -47.747910
v -50.474331 -46.340919 -46.618462
v -49.159248 -46.340919 -46.073570
v -47.747898 -46.340919 -46.259209
v -46.618462 -46.340919 -47.125660
v -46.073559 -46.340919 -48.440739
v -46.259201 -46.340919 -49.852089
v -47.125648 -46.340919 -50.981529
v -48.440731 -46.340919 -51.526428
v -51.526421 -46.340919 -49.159248
v -50.981522 -46.340919 -50.474339
v -49.852081 -46.340919 -51.340790
v -48.038921 -49.076752 -49.791599
v -47.735710 -49.250919 -49.775009
v -48.133369 -49.250919 -50.080212
v 29.847389 -49.250919 41.485168
v 29.840700 -49.076752 40.763512
v 30.014460 -49.250919 41.012550
v 30.009809 -49.250919 40.511299
v 29.528740 -49.250919 41.872139
v 29.225760 -49.076752 41.851791
v 29.096970 -49.250919 42.126801
v 27.334110 -47.950920 40.065029
v 28.577370 -47.950920 39.331791
v 27.347490 -47.950920 41.508350
v 28.604130 -47.950920 42.218418
v 29.834009 -47.950920 40.041859
v 29.847389 -47.950920 41.485168
v 27.334110 -49.250919 40.065029
v 27.340799 -49.076752 40.786690
v 27.167040 -49.250919 40.537651
v 27.171690 -49.250919 41.038910
v -47.994400 -46.340919 51.429359
v -46.787651 -46.340919 50.674290
v -46.120098 -46.340919 49.417019
v -46.170631 -46.340919 47.994411
v -46.925701 -46.340919 46.787659
v -48.182968 -46.340919 46.120110
v -49.605579 -46.340919 46.170639
v -50.812328 -46.340919 46.925701
v -51.479881 -46.340919 48.182980
v -49.417011 -46.340919 51.479889
v -50.674278 -46.340919 50.812340
v -51.429352 -46.340919 49.605591
v 28.577370 -49.250919 39.331791
v 27.955740 -49.076752 39.698410
v 28.084539 -49.250919 39.423401
v 27.652760 -49.250919 39.678059
v -50.039280 -49.076752 -48.963299
v -50.176521 -49.250919 -49.234192
v -50.242001 -49.250919 -48.737202
v -47.948040 -49.076752 47.885300
v -47.647781 -49.250919 47.930672
v -48.014591 -49.250919 47.589008
v -40.067822 36.294411 12.709590
v -36.769360 36.452671 12.704060
v -40.057880 36.579311 12.699640
v -33.468460 36.547649 12.700750
v -30.166349 36.579311 12.699640
v -44.576221 35.975330 -8.223472
v -44.231892 36.003899 -9.946588
v -43.252190 36.081379 -11.403590
v -41.789570 36.186588 -12.372560
v -40.067822 36.294411 -12.709590
v -36.769360 36.452671 -12.704060
v -33.468460 36.547649 -12.700740
v -30.166349 36.579311 -12.699640
v -44.555130 36.579311 -8.202382
v -40.057880 36.579311 -12.699640
v -41.779320 36.579311 -12.357410
v -43.238251 36.579311 -11.382760
v -44.212910 36.579311 -9.923822
v 31.340630 -46.340919 40.749611
v 30.959471 -46.340919 39.378078
v 29.943609 -46.340919 38.380890
v 28.565260 -46.340919 38.025219
v 27.193729 -46.340919 38.406380
v 26.196541 -46.340919 39.422241
v 25.840870 -46.340919 40.800591
v 26.222031 -46.340919 42.172112
v 27.237890 -46.340919 43.169312
v 28.616240 -46.340919 43.524990
v 29.987770 -46.340919 43.143822
v 30.984970 -46.340919 42.127972
v -50.018120 -49.076752 48.519539
v -50.128960 -49.250919 48.236820
v -50.241428 -49.250919 48.725319
v -49.405418 -49.250919 46.425991
v -50.592800 -49.250919 47.130180
v -48.025822 -49.250919 46.475529
v -46.892021 -49.250919 47.263081
v -46.363979 -49.250919 48.538589
v -46.609348 -49.250919 49.897091
v -47.550240 -49.250919 50.907280
v -48.887920 -49.250919 51.248421
v -50.197681 -49.250919 50.812210
v -51.063679 -49.250919 49.737129
v -51.210979 -49.250919 48.364521
v -51.165031 -49.210732 47.719921
v -50.205662 -49.210732 46.612740
v -48.799992 -49.210732 46.200001
v -47.394329 -49.210732 46.612740
v -46.434952 -49.210732 47.719921
v -46.226460 -49.210732 49.170021
v -46.835041 -49.210732 50.502640
v -47.550240 -49.250919 50.907280
v -48.067490 -49.210732 51.294682
v -49.532490 -49.210732 51.294682
v -50.764938 -49.210732 50.502640
v -51.373531 -49.210732 49.170021
v -49.605579 -48.950920 46.170639
v -50.276970 -49.053532 46.501770
v -50.812328 -48.950920 46.925701
v -51.285019 -49.053532 47.665119
v -51.479881 -48.950920 48.182980
v -51.504089 -49.053532 49.188789
v -51.429352 -48.950920 49.605591
v -50.864632 -49.053532 50.589020
v -50.674278 -48.950920 50.812340
v -49.569660 -49.053532 51.421242
v -49.417011 -48.950920 51.479889
v -48.030319 -49.053532 51.421242
v -47.994400 -48.950920 51.429359
v -46.787651 -48.950920 50.674290
v -46.735352 -49.053532 50.589020
v -46.120098 -48.950920 49.417019
v -46.095890 -49.053532 49.188789
v -46.170631 -48.950920 47.994411
v -46.314960 -49.053532 47.665119
v -46.925701 -48.950920 46.787659
v -47.323009 -49.053532 46.501770
v -48.182968 -48.950920 46.120110
v -48.799992 -49.053532 46.068089
v -49.628540 -49.250919 -51.105652
v -50.743542 -49.250919 -50.291691
v -48.250481 -49.250919 -51.187580
v -47.046890 -49.250919 -50.511471
v -46.399899 -49.250919 -49.291988
v -46.514912 -49.250919 -47.916302
v -47.355431 -49.250919 -46.821171
v -48.654579 -49.250919 -46.354321
v -49.999901 -49.250919 -46.663952
v -50.964260 -49.250919 -47.651760
v -51.241470 -49.250919 -49.004131
v -51.165031 -49.210732 -49.880081
v -50.205662 -49.210732 -50.987259
v -48.799992 -49.210732 -51.400002
v -47.394329 -49.210732 -50.987259
v -46.434952 -49.210732 -49.880081
v -46.226460 -49.210732 -48.429981
v -46.835041 -49.210732 -47.097359
v -48.067490 -49.210732 -46.305321
v -49.532490 -49.210732 -46.305321
v -50.764938 -49.210732 -47.097359
v -51.373531 -49.210732 -48.429981
v -49.852081 -48.950920 -51.340790
v -50.276970 -49.053532 -51.098228
v -50.981522 -48.950920 -50.474339
v -51.285019 -49.053532 -49.934872
v -51.526421 -48.950920 -49.159248
v -51.504089 -49.053532 -48.411201
v -51.340778 -48.950920 -47.747910
v -50.864632 -49.053532 -47.010979
v -50.474331 -48.950920 -46.618462
v -49.569660 -49.053532 -46.178749
v -49.159248 -48.950920 -46.073570
v -48.030319 -49.053532 -46.178749
v -47.747898 -48.950920 -46.259209
v -46.735352 -49.053532 -47.010979
v -46.618462 -48.950920 -47.125660
v -46.095890 -49.053532 -48.411201
v -46.073559 -48.950920 -48.440739
v -46.259201 -48.950920 -49.852089
v -46.314960 -49.053532 -49.934872
v -47.125648 -48.950920 -50.981529
v -47.323009 -49.053532 -51.098228
v -48.440731 -48.950920 -51.526428
v -48.799992 -49.053532 -51.531898
v 28.699120 -49.250919 -39.335800
v 29.295271 -49.076752 -39.742550
v 29.184860 -49.250919 -39.459671
v 29.598930 -49.250919 -39.742191
v 29.891411 -49.250919 -40.149311
v 27.398460 -49.250919 -39.961601
v 28.048790 -49.076752 -39.648701
v 27.748600 -49.250919 -39.602871
v 28.200319 -49.250919 -39.385540
v 27.290091 -49.250919 -41.400902
v 27.344280 -49.076752 -40.681252
v 27.154499 -49.250919 -40.918308
v 27.192129 -49.250919 -40.418442
v 28.482380 -49.250919 -42.214401
v 27.886230 -49.076752 -41.807652
v 27.996639 -49.250919 -42.090530
v 27.582569 -49.250919 -41.808010
v 29.783030 -49.250919 -41.588612
v 29.132710 -49.076752 -41.901501
v 29.432899 -49.250919 -41.947330
v 28.981180 -49.250919 -42.164669
v 29.989370 -49.250919 -41.131760
v 29.837219 -49.076752 -40.868950
v 30.027000 -49.250919 -40.631889
v 27.398460 -47.950920 -39.961601
v 28.482380 -47.950920 -42.214401
v 28.699120 -47.950920 -39.335800
v 29.783030 -47.950920 -41.588612
v 29.891411 -47.950920 -40.149311
v 27.290091 -47.950920 -41.400902
v 25.840870 -48.950920 40.800591
v 26.196541 -48.950920 39.422241
v 27.193729 -48.950920 38.406380
v 28.565260 -48.950920 38.025219
v 29.943609 -48.950920 38.380890
v 30.959471 -48.950920 39.378078
v 31.340630 -48.950920 40.749611
v 30.984970 -48.950920 42.127972
v 29.987770 -48.950920 43.143822
v 26.222031 -48.950920 42.172112
v 27.237890 -48.950920 43.169312
v 28.616240 -48.950920 43.524990
v 26.144711 -49.250919 40.914360
v 26.225710 -49.210732 39.695019
v 26.457729 -49.250919 39.569820
v 27.185089 -49.210732 38.587841
v 27.447960 -49.250919 38.607948
v 28.590750 -49.210732 38.175098
v 28.801020 -49.250919 38.334141
v 29.996420 -49.210732 38.587841
v 30.087320 -49.250919 38.835312
v 30.955790 -49.210732 39.695019
v 30.898479 -49.250919 39.952358
v 31.164289 -49.210732 41.145119
v 30.976940 -49.250919 41.330608
v 30.555700 -49.210732 42.477741
v 30.297810 -49.250919 42.532501
v 29.323250 -49.210732 43.269779
v 29.076700 -49.250919 43.176418
v 27.858250 -49.210732 43.269779
v 27.701300 -49.250919 43.057941
v 26.625799 -49.210732 42.477741
v 26.608299 -49.250919 42.214680
v 26.017220 -49.210732 41.145119
v 27.113770 -49.053532 38.476871
v 26.105721 -49.053532 39.640221
v 25.886650 -49.053532 41.163891
v 26.526110 -49.053532 42.564121
v 27.821079 -49.053532 43.396351
v 29.360420 -49.053532 43.396351
v 30.655390 -49.053532 42.564121
v 31.294849 -49.053532 41.163891
v 31.075781 -49.053532 39.640221
v 30.067730 -49.053532 38.476871
v 28.590750 -49.053532 38.043190
v 26.141680 -49.250919 -40.707600
v 26.566950 -49.250919 -39.394249
v 26.493971 -49.250919 -42.042381
v 27.511971 -49.250919 -42.974812
v 28.872480 -49.250919 -43.208851
v 30.143539 -49.250919 -42.670189
v 30.921600 -49.250919 -41.529850
v 30.959629 -49.250919 -40.149879
v 30.245560 -49.250919 -38.968418
v 29.006100 -49.250919 -38.360561
v 27.634769 -49.250919 -38.519310
v 26.625799 -49.210732 -39.072460
v 26.017220 -49.210732 -40.405079
v 26.225710 -49.210732 -41.855179
v 27.185089 -49.210732 -42.962360
v 28.590750 -49.210732 -43.375099
v 29.996420 -49.210732 -42.962360
v 30.955790 -49.210732 -41.855179
v 31.164289 -49.210732 -40.405079
v 30.555700 -49.210732 -39.072460
v 29.323250 -49.210732 -38.280418
v 27.858250 -49.210732 -38.280418
v 25.848511 -48.950920 -40.568619
v 25.886650 -49.053532 -40.386311
v 26.319139 -48.950920 -39.225170
v 26.526110 -49.053532 -38.986080
v 27.398451 -48.950920 -38.297009
v 27.821079 -49.053532 -38.153851
v 28.797230 -48.950920 -38.032860
v 29.360420 -49.053532 -38.153851
v 30.140690 -48.950920 -38.503490
v 30.655390 -49.053532 -38.986080
v 31.068840 -48.950920 -39.582802
v 31.294849 -49.053532 -40.386311
v 31.332991 -48.950920 -40.981579
v 31.075781 -49.053532 -41.909981
v 30.862360 -48.950920 -42.325039
v 30.067730 -49.053532 -43.073330
v 29.783051 -48.950920 -43.253189
v 28.590750 -49.053532 -43.507011
v 28.384270 -48.950920 -43.517342
v 27.113770 -49.053532 -43.073330
v 27.040819 -48.950920 -43.046711
v 26.105721 -49.053532 -41.909981
v 26.112659 -48.950920 -41.967411
vn -0.0000 -0.0000 -1.0000
vn -0.0000 -0.0000 1.0000
vn 0.0023 -0.1305 -0.9914
vn 0.0067 -0.3826 -0.9239
vn 0.0106 -0.6086 -0.7934
vn 0.0123 -0.7069 -0.7072
vn 0.0138 -0.7932 -0.6088
vn 0.0161 -0.9237 -0.3827
vn 0.0173 -0.9913 -0.1305
vn 0.0173 -0.9913 -0.1306
vn 0.0175 -0.9998 -0.0000
vn 0.0175 -0.9998 -0.0112
vn 0.0170 -0.9995 -0.0255
vn 0.0184 -0.9982 -0.0579
vn 0.0168 -0.9969 -0.0765
vn 0.0184 -0.9917 -0.1274
vn 0.2402 -0.9586 -0.1530
vn -0.0000 -0.9857 -0.1687
vn -0.0000 -0.9530 -0.3029
vn 0.1808 -0.8750 -0.4492
vn 0.0137 -0.8867 -0.4621
vn 0.0138 -0.8055 -0.5925
vn -0.0000 -0.7023 -0.7119
vn 0.1174 -0.6992 -0.7052
vn -0.0000 -0.7057 -0.7085
vn 0.0122 -0.7048 -0.7093
vn 0.0154 -0.8897 -0.4562
vn -0.0000 -0.8904 -0.4552
vn 0.0174 -0.9998 -0.0000
vn 0.0172 -0.9874 0.1570
vn -0.0000 -0.9877 0.1562
vn -0.0000 -0.8904 0.4552
vn 0.0154 -0.8897 0.4562
vn 0.0122 -0.7050 0.7092
vn -0.0000 -0.7056 0.7086
vn -0.0000 -0.7023 0.7119
vn 0.1174 -0.6993 0.7052
vn -0.0000 -0.8176 0.5758
vn -0.0000 -0.8865 0.4627
vn 0.1808 -0.8749 0.4492
vn -0.0000 -0.9530 0.3029
vn -0.0000 -0.9857 0.1688
vn 0.0184 -0.9982 0.0579
vn 0.0170 -0.9995 0.0255
vn 0.0175 -0.9998 0.0112
vn 0.0184 -0.9917 0.1274
vn 0.0168 -0.9969 0.0765
vn 0.2402 -0.9586 0.1530
vn 0.0143 -0.7088 0.7052
vn 0.0173 -0.9913 0.1306
vn 0.0173 -0.9913 0.1305
vn 0.0161 -0.9237 0.3827
vn 0.0138 -0.7932 0.6088
vn 0.0123 -0.7069 0.7072
vn 0.0106 -0.6086 0.7934
vn 0.0067 -0.3826 0.9239
vn 0.0023 -0.1305 0.9914
vn -0.0000 1.0000 -0.0000
vn 0.4382 -0.8171 -0.3747
vn 0.3506 -0.7015 -0.6205
vn 0.0949 -0.8171 -0.5687
vn 0.5136 -0.8171 -0.2621
vn 0.4857 -0.7015 -0.5215
vn 0.2249 -0.8171 -0.5308
vn -0.4382 -0.8171 0.3747
vn -0.3506 -0.7015 0.6205
vn -0.0948 -0.8171 0.5687
vn 0.4863 -0.8171 -0.3097
vn 0.4339 -0.7015 -0.5653
vn 0.1734 -0.8171 -0.5498
vn -0.0298 -0.8171 0.5758
vn 0.2088 -0.7015 0.6814
vn 0.3473 -0.8171 0.4602
vn -0.4837 -0.8171 -0.3137
vn -0.6945 -0.7015 -0.1599
vn -0.5722 -0.8171 0.0706
vn -0.3473 -0.8171 -0.4602
vn -0.2088 -0.7015 -0.6814
vn 0.0298 -0.8171 -0.5758
vn -0.0000 -1.0000 -0.0000
vn 0.0251 -0.8171 0.5760
vn 0.2726 -0.7015 0.6585
vn 0.3895 -0.8171 0.4251
vn -0.5113 -0.8171 -0.2663
vn -0.7065 -0.7015 -0.0931
vn -0.5628 -0.8171 0.1247
vn -0.3895 -0.8170 -0.4252
vn -0.2727 -0.7015 -0.6585
vn -0.0251 -0.8171 -0.5760
vn -0.4863 -0.8171 0.3097
vn -0.4339 -0.7015 0.5654
vn -0.1734 -0.8171 0.5498
vn -0.5436 -0.8171 -0.1922
vn -0.7126 -0.7015 0.0066
vn -0.5399 -0.8171 0.2022
vn -0.4451 -0.8171 -0.3665
vn -0.3620 -0.7015 -0.6138
vn -0.1054 -0.8171 -0.5668
vn 0.5436 -0.8171 0.1922
vn 0.7126 -0.7015 -0.0066
vn 0.5399 -0.8171 -0.2022
vn 0.1054 -0.8171 0.5668
vn 0.3620 -0.7015 0.6138
vn 0.4451 -0.8171 0.3665
vn 0.5113 -0.8171 0.2663
vn 0.7065 -0.7015 0.0931
vn 0.5629 -0.8171 -0.1247
vn -0.5135 -0.8171 0.2620
vn -0.4857 -0.7015 0.5215
vn -0.2249 -0.8171 0.5308
vn -0.0000 0.0349 0.9994
vn -0.0000 0.0350 0.9994
vn -0.1944 0.0410 -0.9801
vn -0.1948 0.0429 -0.9799
vn -0.5540 0.0465 -0.8312
vn -0.5548 0.0503 -0.8305
vn -0.8301 0.0465 -0.5557
vn -0.8305 0.0493 -0.5548
vn -0.9800 0.0400 -0.1952
vn -0.9800 0.0410 -0.1948
vn -0.0000 0.0347 -0.9994
vn -0.0000 0.0349 -0.9994
vn 0.4837 -0.8171 0.3137
vn 0.6945 -0.7015 0.1599
vn 0.5722 -0.8171 -0.0706
vn 0.2929 -0.0000 0.9561
vn -0.6816 -0.0000 0.7318
vn -0.9745 -0.0000 -0.2244
vn 0.9745 -0.0000 0.2244
vn 0.6816 -0.0000 -0.7318
vn -0.2930 -0.0000 -0.9561
vn -0.2929 -0.0000 -0.9561
vn -0.1433 -0.9871 -0.0717
vn -0.4956 -0.7550 -0.4294
vn -0.0817 -0.9871 -0.1378
vn -0.1847 -0.7549 -0.6293
vn 0.0057 -0.9871 -0.1601
vn 0.1848 -0.7549 -0.6293
vn 0.0914 -0.9871 -0.1316
vn 0.4956 -0.7549 -0.4295
vn 0.1481 -0.9871 -0.0613
vn 0.6491 -0.7550 -0.0933
vn 0.1577 -0.9871 0.0285
vn 0.5966 -0.7549 0.2724
vn 0.1173 -0.9871 0.1092
vn 0.3545 -0.7549 0.5517
vn 0.0396 -0.9871 0.1553
vn -0.0000 -0.7549 0.6559
vn -0.0506 -0.9871 0.1520
vn -0.3546 -0.7548 0.5518
vn -0.1248 -0.9871 0.1005
vn -0.5964 -0.7550 0.2724
vn -0.1593 -0.9871 0.0171
vn -0.6491 -0.7550 -0.0933
vn -0.4274 0.5922 -0.6831
vn -0.4750 -0.7778 -0.4116
vn -0.7271 0.5676 -0.3861
vn -0.6458 -0.7578 -0.0929
vn -0.8631 0.5041 0.0307
vn -0.6353 -0.7157 0.2901
vn -0.7821 0.3858 0.4894
vn -0.4164 -0.6377 0.6480
vn -0.4605 0.1893 0.8673
vn -0.0000 -0.4962 0.8682
vn 0.0354 -0.0911 0.9952
vn 0.5142 -0.2450 0.8219
vn 0.4979 -0.3900 0.7746
vn 0.8816 0.0603 0.4681
vn 0.7420 -0.5785 0.3388
vn 0.9533 0.3002 -0.0339
vn 0.7228 -0.6832 -0.1039
vn 0.7553 0.4542 -0.4726
vn 0.5079 -0.7405 -0.4401
vn 0.3941 0.5420 -0.7422
vn 0.1797 -0.7702 -0.6119
vn -0.0288 0.5843 -0.8110
vn -0.1758 -0.7816 -0.5985
vn 0.2195 -0.6271 -0.7474
vn 0.2194 -0.6271 -0.7474
vn 0.5887 -0.6272 -0.5101
vn 0.5887 -0.6271 -0.5101
vn 0.7710 -0.6271 -0.1109
vn 0.7085 -0.6271 0.3236
vn 0.4211 -0.6271 0.6553
vn -0.0000 -0.6271 0.7789
vn -0.0000 -0.6271 0.7790
vn -0.4211 -0.6271 0.6553
vn -0.7085 -0.6271 0.3236
vn -0.7086 -0.6271 0.3236
vn -0.7710 -0.6271 -0.1108
vn -0.7710 -0.6271 -0.1109
vn -0.5887 -0.6271 -0.5101
vn -0.2194 -0.6271 -0.7474
vn -0.8832 -0.0000 -0.4689
vn -0.5304 -0.0000 -0.8477
vn -0.0355 -0.0000 -0.9994
vn 0.4690 -0.0000 -0.8832
vn 0.4689 -0.0000 -0.8832
vn 0.8477 -0.0000 -0.5304
vn 0.9994 -0.0000 -0.0355
vn 0.8832 -0.0000 0.4690
vn 0.8832 -0.0000 0.4689
vn 0.5304 -0.0000 0.8477
vn 0.0355 -0.0000 0.9994
vn -0.9994 -0.0000 0.0355
vn -0.8477 -0.0000 0.5304
vn -0.4690 -0.0000 0.8832
vn 0.3826 -0.0000 0.9239
vn -0.6088 -0.0000 0.7933
vn -0.6089 -0.0000 0.7933
vn -0.9914 -0.0000 -0.1306
vn 0.9914 -0.0000 0.1306
vn 0.9914 -0.0000 0.1307
vn 0.6088 -0.0000 -0.7933
vn 0.6089 -0.0000 -0.7933
vn -0.3826 -0.0000 -0.9239
vn -0.1512 -0.9868 -0.0585
vn -0.4792 -0.7732 -0.4153
vn -0.0956 -0.9868 -0.1309
vn -0.1787 -0.7732 -0.6085
vn -0.0096 -0.9868 -0.1618
vn 0.1786 -0.7732 -0.6085
vn 0.0794 -0.9868 -0.1413
vn 0.4793 -0.7732 -0.4153
vn 0.1432 -0.9868 -0.0760
vn 0.6277 -0.7732 -0.0902
vn 0.1615 -0.9868 0.0135
vn 0.5769 -0.7732 0.2634
vn 0.1286 -0.9868 0.0987
vn 0.3428 -0.7732 0.5336
vn 0.0548 -0.9868 0.1525
vn -0.0000 -0.7732 0.6342
vn -0.0364 -0.9868 0.1580
vn -0.3428 -0.7732 0.5335
vn -0.1160 -0.9868 0.1132
vn -0.5769 -0.7732 0.2635
vn -0.1588 -0.9868 0.0325
vn -0.6277 -0.7732 -0.0902
vn -0.5116 0.5419 -0.6668
vn -0.4820 -0.7702 -0.4177
vn -0.7497 0.5843 -0.3106
vn -0.6175 -0.7816 -0.0888
vn -0.7989 0.5922 0.1051
vn -0.5717 -0.7778 0.2611
vn -0.6532 0.5677 0.5011
vn -0.3527 -0.7579 0.5489
vn -0.3305 0.5044 0.7977
vn -0.0000 -0.7158 0.6983
vn 0.1203 0.3860 0.9146
vn 0.4163 -0.6380 0.6478
vn 0.5976 0.1899 0.7790
vn 0.7896 -0.4964 0.3606
vn 0.9200 -0.0906 0.3812
vn 0.9611 -0.2455 -0.1264
vn 0.9116 -0.3897 -0.1311
vn 0.7920 0.0597 -0.6076
vn 0.6166 -0.5783 -0.5343
vn 0.3652 0.2999 -0.8813
vn 0.2058 -0.6831 -0.7008
vn -0.1162 0.4539 -0.8834
vn -0.1894 -0.7404 -0.6449
vn 0.7710 -0.6271 -0.1108
vn 0.7085 -0.6272 0.3235
vn 0.4211 -0.6272 0.6552
vn -0.0000 -0.6272 0.7789
vn -0.4211 -0.6272 0.6552
vn -0.9238 -0.0000 -0.3828
vn -0.6087 -0.0000 -0.7934
vn -0.1304 -0.0000 -0.9915
vn 0.3828 -0.0000 -0.9238
vn 0.7934 -0.0000 -0.6087
vn 0.9915 -0.0000 -0.1304
vn 0.9238 -0.0000 0.3828
vn 0.6087 -0.0000 0.7934
vn 0.1304 -0.0000 0.9915
vn -0.9915 -0.0000 0.1304
vn -0.7934 -0.0000 0.6087
vn -0.3828 -0.0000 0.9238
vn -0.1425 -0.8171 -0.5587
vn -0.4017 -0.7015 -0.5887
vn -0.4682 -0.8171 -0.3364
vn 0.4126 -0.8171 -0.4027
vn 0.3090 -0.7015 -0.6422
vn 0.0572 -0.8171 -0.5737
vn 0.5550 -0.8171 0.1559
vn 0.7106 -0.7015 -0.0535
vn 0.5254 -0.8171 -0.2373
vn 0.1425 -0.8171 0.5587
vn 0.4017 -0.7015 0.5887
vn 0.4682 -0.8171 0.3364
vn -0.4126 -0.8171 0.4027
vn -0.3090 -0.7015 0.6422
vn -0.0572 -0.8171 0.5737
vn -0.5254 -0.8171 0.2373
vn -0.7106 -0.7015 0.0535
vn -0.5550 -0.8171 -0.1560
vn 0.9972 -0.0000 -0.0751
vn 0.5636 -0.0000 0.8260
vn -0.9683 -0.0000 -0.2499
vn -0.7136 -0.0000 -0.7005
vn -0.2678 -0.0000 -0.9635
vn 0.2499 -0.0000 -0.9683
vn 0.7005 -0.0000 -0.7136
vn 0.9635 -0.0000 -0.2678
vn 0.9683 -0.0000 0.2498
vn 0.7136 -0.0000 0.7005
vn 0.2678 -0.0000 0.9635
vn -0.9635 -0.0000 0.2678
vn -0.7005 -0.0000 0.7136
vn -0.2499 -0.0000 0.9683
vn -0.1941 -0.9799 -0.0452
vn -0.2988 -0.9185 -0.2589
vn -0.1389 -0.9799 -0.1429
vn -0.1114 -0.9185 -0.3794
vn -0.0395 -0.9799 -0.1953
vn 0.1114 -0.9185 -0.3794
vn 0.0724 -0.9799 -0.1857
vn 0.2988 -0.9185 -0.2589
vn 0.1613 -0.9799 -0.1171
vn 0.3914 -0.9185 -0.0563
vn 0.1990 -0.9799 -0.0113
vn 0.3596 -0.9185 0.1643
vn 0.1735 -0.9799 0.0980
vn 0.2138 -0.9185 0.3327
vn 0.0930 -0.9799 0.1763
vn -0.0000 -0.9185 0.3954
vn -0.0171 -0.9799 0.1985
vn -0.2138 -0.9185 0.3327
vn -0.1217 -0.9799 0.1578
vn -0.3597 -0.9185 0.1643
vn -0.1877 -0.9799 0.0669
vn -0.3914 -0.9185 -0.0563
vn -0.7116 0.0747 -0.6986
vn -0.6127 -0.5855 -0.5309
vn -0.9205 0.3102 -0.2375
vn -0.7193 -0.6870 -0.1034
vn -0.8554 0.4601 0.2378
vn -0.6093 -0.7425 0.2782
vn -0.5872 0.5452 0.5983
vn -0.3442 -0.7712 0.5355
vn -0.2025 0.5855 0.7849
vn -0.0000 -0.7818 0.6236
vn 0.2158 0.5917 0.7767
vn 0.3402 -0.7772 0.5294
vn 0.5886 0.5654 0.5778
vn 0.5951 -0.7563 0.2718
vn 0.8388 0.4996 0.2164
vn 0.6942 -0.7128 -0.0998
vn 0.8921 0.3778 -0.2479
vn 0.5855 -0.6324 -0.5073
vn 0.6895 0.1770 -0.7024
vn 0.2462 -0.4864 -0.8383
vn 0.2484 -0.1069 -0.9627
vn -0.2606 -0.2290 -0.9379
vn -0.2579 -0.4025 -0.8784
vn 0.4211 -0.6271 0.6552
vn 0.4211 -0.6272 0.6553
vn -0.2195 -0.6271 -0.7473
vn -0.4336 -0.0000 0.9011
vn 0.4336 -0.0000 -0.9011
vn -0.5636 -0.0000 -0.8260
vn -0.9972 -0.0000 0.0751
vn -0.1183 -0.9824 0.1443
vn -0.4078 -0.8939 0.1862
vn -0.1775 -0.9824 0.0575
vn -0.4437 -0.8939 -0.0638
vn -0.1804 -0.9824 -0.0476
vn -0.3387 -0.8939 -0.2935
vn -0.1260 -0.9824 -0.1376
vn -0.1263 -0.8939 -0.4301
vn -0.0316 -0.9824 -0.1839
vn 0.1263 -0.8939 -0.4302
vn 0.0728 -0.9824 -0.1718
vn 0.3388 -0.8939 -0.2936
vn 0.1541 -0.9824 -0.1052
vn 0.4437 -0.8939 -0.0638
vn 0.1865 -0.9824 -0.0051
vn 0.4077 -0.8939 0.1862
vn 0.1597 -0.9824 0.0965
vn 0.2423 -0.8939 0.3771
vn 0.0822 -0.9824 0.1675
vn -0.0000 -0.8939 0.4483
vn -0.0215 -0.9824 0.1853
vn -0.2423 -0.8939 0.3771
vn -0.9184 0.2303 0.3217
vn -0.6874 -0.6550 0.3139
vn -0.5943 0.4115 0.6910
vn -0.3723 -0.7251 0.5793
vn -0.1586 0.5186 0.8401
vn -0.0000 -0.7627 0.6468
vn 0.2706 0.5744 0.7725
vn 0.3386 -0.7796 0.5269
vn 0.6104 0.5931 0.5250
vn 0.5684 -0.7807 0.2596
vn 0.8007 0.5796 0.1512
vn 0.6357 -0.7665 -0.0914
vn 0.8001 0.5304 -0.2803
vn 0.5142 -0.7328 -0.4455
vn 0.5878 0.4327 -0.6836
vn 0.2094 -0.6691 -0.7131
vn 0.1789 0.2647 -0.9476
vn -0.2348 -0.5529 -0.7995
vn -0.3306 0.0098 -0.9437
vn -0.7094 -0.3449 -0.6147
vn -0.7234 -0.2992 -0.6222
vn -0.9819 -0.0374 -0.1854
vn -0.8410 -0.5274 -0.1209
vn 0.2194 -0.6272 -0.7473
vn 0.7086 -0.6271 0.3236
vn -0.7710 -0.6272 -0.1108
vn -0.2194 -0.6271 -0.7473
vn -0.6519 -0.0176 0.7581
vn -0.7070 0.0176 0.7070
vn -0.9436 -0.0176 0.3306
vn -0.9658 0.0176 0.2588
vn -0.9825 -0.0176 -0.1855
vn -0.9658 0.0176 -0.2588
vn -0.7581 -0.0176 -0.6519
vn -0.7070 0.0176 -0.7070
vn -0.3306 -0.0176 -0.9436
vn -0.2588 0.0176 -0.9658
vn 0.1855 -0.0176 -0.9825
vn 0.2588 0.0176 -0.9658
vn 0.6519 -0.0176 -0.7581
vn 0.7070 0.0176 -0.7070
vn 0.9436 -0.0176 -0.3306
vn 0.9658 0.0176 -0.2588
vn 0.9825 -0.0176 0.1855
vn 0.9658 0.0176 0.2588
vn 0.7581 -0.0176 0.6519
vn 0.7070 0.0176 0.7070
vn 0.3306 -0.0176 0.9436
vn 0.2588 0.0176 0.9658
vn -0.1855 -0.0176 0.9825
vn -0.2588 0.0176 0.9658
vn 0.5080 -0.0000 0.8614
vn -0.4920 -0.0000 0.8706
vn -0.4919 -0.0000 0.8706
vn -1.0000 -0.0000 0.0093
vn 1.0000 -0.0000 -0.0093
vn 0.4920 -0.0000 -0.8706
vn 0.4919 -0.0000 -0.8706
vn -0.5080 -0.0000 -0.8614
vn -0.5080 -0.0000 -0.8613
s 0
f 12//1 11//1 52//1
f 52//1 11//1 10//1
f 52//1 10//1 9//1
f 52//1 9//1 53//1
f 53//1 9//1 8//1
f 53//1 8//1 6//1
f 6//1 7//1 53//1
f 67//1 66//1 53//1
f 53//1 66//1 52//1
f 50//2 13//2 68//2
f 68//2 13//2 69//2
f 69//2 13//2 70//2
f 70//2 13//2 16//2
f 70//2 16//2 71//2
f 71//2 16//2 72//2
f 72//2 16//2 51//2
f 14//2 15//2 13//2
f 13//2 15//2 16//2
f 84//3 83//3 1//3
f 1//3 83//3 2//3
f 2//4 83//4 75//4
f 2//4 75//4 3//4
f 3//5 75//5 76//5
f 3//5 76//5 4//5
f 76//6 77//6 4//6
f 4//6 77//6 5//6
f 77//7 78//7 5//7
f 5//7 78//7 17//7
f 17//8 78//8 79//8
f 17//8 79//8 18//8
f 18//9 79//9 80//9
f 18//10 80//10 19//10
f 80//11 81//11 19//11
f 19//11 81//11 47//11
f 47//12 81//12 58//12
f 58//13 81//13 85//13
f 58//14 85//14 64//14
f 64//15 85//15 82//15
f 64//16 82//16 65//16
f 47//17 58//17 48//17
f 48//18 58//18 57//18
f 48//19 57//19 56//19
f 48//20 56//20 49//20
f 49//21 56//21 55//21
f 49//22 55//22 54//22
f 22//23 20//23 54//23
f 54//24 20//24 49//24
f 22//25 23//25 20//25
f 20//26 23//26 21//26
f 21//27 23//27 25//27
f 21//28 25//28 24//28
f 26//29 29//29 27//29
f 27//29 29//29 28//29
f 28//30 29//30 34//30
f 34//31 29//31 35//31
f 34//32 35//32 32//32
f 32//33 35//33 33//33
f 32//34 33//34 30//34
f 30//35 33//35 31//35
f 31//36 59//36 30//36
f 30//37 59//37 45//37
f 45//38 59//38 60//38
f 45//39 60//39 61//39
f 45//40 61//40 46//40
f 46//41 61//41 62//41
f 46//42 62//42 63//42
f 92//43 101//43 63//43
f 63//44 101//44 103//44
f 63//45 103//45 44//45
f 91//46 102//46 92//46
f 92//47 102//47 101//47
f 44//48 46//48 63//48
f 73//11 74//11 103//11
f 103//11 74//11 44//11
f 44//29 74//29 39//29
f 39//29 74//29 86//29
f 39//11 86//11 100//11
f 100//11 86//11 87//11
f 90//49 89//49 88//49
f 39//50 100//50 38//50
f 38//51 100//51 99//51
f 38//52 99//52 37//52
f 37//52 99//52 98//52
f 37//53 98//53 36//53
f 36//53 98//53 97//53
f 96//54 40//54 97//54
f 97//54 40//54 36//54
f 40//55 96//55 43//55
f 43//55 96//55 95//55
f 43//56 95//56 42//56
f 42//56 95//56 94//56
f 42//57 94//57 41//57
f 41//57 94//57 93//57
f 106//58 113//58 105//58
f 105//58 113//58 114//58
f 105//58 114//58 104//58
f 104//58 114//58 115//58
f 104//58 115//58 112//58
f 112//58 115//58 116//58
f 112//58 116//58 111//58
f 111//58 116//58 117//58
f 111//58 117//58 110//58
f 110//58 117//58 118//58
f 110//58 118//58 109//58
f 109//58 118//58 119//58
f 109//58 119//58 108//58
f 108//58 119//58 120//58
f 108//58 120//58 107//58
f 107//58 120//58 121//58
f 107//58 121//58 106//58
f 106//58 121//58 113//58
f 122//58 129//58 123//58
f 123//58 129//58 130//58
f 123//58 130//58 124//58
f 129//58 122//58 128//58
f 128//58 122//58 125//58
f 128//58 125//58 127//58
f 127//58 125//58 126//58
f 140//58 132//58 141//58
f 141//58 132//58 131//58
f 141//58 131//58 142//58
f 142//58 131//58 139//58
f 142//58 139//58 143//58
f 143//58 139//58 138//58
f 143//58 138//58 144//58
f 144//58 138//58 137//58
f 144//58 137//58 145//58
f 145//58 137//58 136//58
f 145//58 136//58 146//58
f 146//58 136//58 135//58
f 146//58 135//58 147//58
f 147//58 135//58 134//58
f 147//58 134//58 148//58
f 148//58 134//58 133//58
f 148//58 133//58 140//58
f 140//58 133//58 132//58
f 157//58 152//58 149//58
f 149//58 152//58 151//58
f 149//58 151//58 150//58
f 152//58 157//58 153//58
f 153//58 157//58 156//58
f 153//58 156//58 154//58
f 154//58 156//58 155//58
f 166//58 167//58 168//58
f 168//58 167//58 164//58
f 168//58 164//58 169//58
f 169//58 164//58 158//58
f 169//58 158//58 170//58
f 170//58 158//58 159//58
f 170//58 159//58 171//58
f 171//58 159//58 160//58
f 171//58 160//58 172//58
f 172//58 160//58 161//58
f 172//58 161//58 173//58
f 173//58 161//58 162//58
f 173//58 162//58 174//58
f 174//58 162//58 163//58
f 174//58 163//58 175//58
f 175//58 163//58 165//58
f 175//58 165//58 166//58
f 166//58 165//58 167//58
f 184//58 180//58 176//58
f 176//58 180//58 179//58
f 176//58 179//58 177//58
f 177//58 179//58 178//58
f 184//58 183//58 180//58
f 180//58 183//58 182//58
f 180//58 182//58 181//58
f 185//59 186//59 187//59
f 187//60 186//60 188//60
f 188//61 186//61 189//61
f 190//62 191//62 192//62
f 192//63 191//63 193//63
f 193//64 191//64 194//64
f 207//65 208//65 209//65
f 209//66 208//66 210//66
f 210//67 208//67 211//67
f 212//68 213//68 214//68
f 214//69 213//69 215//69
f 215//70 213//70 216//70
f 217//71 218//71 219//71
f 219//72 218//72 220//72
f 220//73 218//73 221//73
f 222//74 223//74 224//74
f 224//75 223//75 225//75
f 225//76 223//76 226//76
f 222//77 227//77 228//77
f 228//78 227//78 229//78
f 228//79 229//79 194//79
f 230//80 231//80 232//80
f 232//80 231//80 233//80
f 232//80 233//80 234//80
f 234//80 233//80 235//80
f 236//81 237//81 238//81
f 238//82 237//82 239//82
f 239//83 237//83 240//83
f 241//84 242//84 243//84
f 243//85 242//85 244//85
f 244//86 242//86 245//86
f 241//87 246//87 247//87
f 247//88 246//88 248//88
f 247//89 248//89 216//89
f 249//80 250//80 251//80
f 251//80 250//80 252//80
f 251//80 252//80 253//80
f 253//80 252//80 254//80
f 245//90 267//90 268//90
f 268//91 267//91 269//91
f 269//92 267//92 236//92
f 270//93 271//93 272//93
f 272//94 271//94 273//94
f 273//95 271//95 207//95
f 270//96 274//96 275//96
f 275//97 274//97 276//97
f 275//98 276//98 189//98
f 277//80 278//80 279//80
f 279//80 278//80 280//80
f 280//80 278//80 281//80
f 280//80 281//80 282//80
f 283//99 284//99 285//99
f 285//100 284//100 286//100
f 286//101 284//101 185//101
f 299//102 300//102 301//102
f 301//103 300//103 302//103
f 302//104 300//104 283//104
f 240//105 303//105 304//105
f 304//106 303//106 305//106
f 305//107 303//107 212//107
f 226//108 306//108 307//108
f 307//109 306//109 308//109
f 308//110 306//110 217//110
f 309//111 310//111 311//111
f 311//111 310//111 312//111
f 311//112 312//112 313//112
f 318//113 317//113 323//113
f 323//114 317//114 324//114
f 324//115 317//115 316//115
f 324//116 316//116 325//116
f 325//117 316//117 315//117
f 325//118 315//118 326//118
f 326//119 315//119 314//119
f 326//120 314//120 322//120
f 321//121 320//121 323//121
f 323//122 320//122 319//122
f 323//122 319//122 318//122
f 221//123 339//123 340//123
f 340//124 339//124 341//124
f 341//125 339//125 190//125
f 221//126 218//126 231//126
f 231//126 218//126 233//126
f 233//126 218//126 217//126
f 217//127 306//127 233//127
f 233//127 306//127 235//127
f 235//127 306//127 226//127
f 226//128 223//128 235//128
f 235//128 223//128 234//128
f 234//128 223//128 222//128
f 190//129 339//129 230//129
f 230//129 339//129 231//129
f 231//129 339//129 221//129
f 194//130 191//130 232//130
f 232//130 191//130 230//130
f 230//130 191//130 190//130
f 222//131 228//131 234//131
f 234//132 228//132 232//132
f 232//132 228//132 194//132
f 342//80 220//80 343//80
f 343//80 220//80 221//80
f 343//80 221//80 340//80
f 220//80 342//80 219//80
f 219//80 342//80 344//80
f 219//80 344//80 217//80
f 217//80 344//80 308//80
f 308//80 344//80 345//80
f 308//80 345//80 307//80
f 307//80 345//80 226//80
f 226//80 345//80 346//80
f 226//80 346//80 225//80
f 225//80 346//80 347//80
f 225//80 347//80 224//80
f 224//80 347//80 222//80
f 222//80 347//80 348//80
f 222//80 348//80 227//80
f 227//80 348//80 229//80
f 229//80 348//80 349//80
f 229//80 349//80 194//80
f 194//80 349//80 350//80
f 194//80 350//80 193//80
f 193//80 350//80 192//80
f 192//80 350//80 351//80
f 192//80 351//80 190//80
f 190//80 351//80 341//80
f 341//80 351//80 352//80
f 341//80 352//80 340//80
f 340//80 352//80 343//80
f 352//133 353//133 343//133
f 343//134 353//134 354//134
f 343//135 354//135 342//135
f 342//136 354//136 355//136
f 342//137 355//137 344//137
f 344//138 355//138 356//138
f 344//139 356//139 345//139
f 345//140 356//140 357//140
f 345//141 357//141 346//141
f 346//142 357//142 358//142
f 346//143 358//143 347//143
f 347//144 358//144 359//144
f 347//145 359//145 360//145
f 360//146 359//146 361//146
f 360//147 361//147 349//147
f 349//148 361//148 362//148
f 349//149 362//149 350//149
f 350//150 362//150 363//150
f 350//151 363//151 351//151
f 351//152 363//152 364//152
f 351//153 364//153 352//153
f 352//154 364//154 353//154
f 365//155 366//155 367//155
f 367//156 366//156 368//156
f 367//157 368//157 369//157
f 369//158 368//158 370//158
f 369//159 370//159 371//159
f 371//160 370//160 372//160
f 371//161 372//161 373//161
f 373//162 372//162 374//162
f 373//163 374//163 375//163
f 375//164 374//164 376//164
f 375//165 376//165 377//165
f 377//166 376//166 378//166
f 378//167 376//167 379//167
f 378//168 379//168 380//168
f 380//169 379//169 381//169
f 380//170 381//170 382//170
f 382//171 381//171 383//171
f 382//172 383//172 384//172
f 384//173 383//173 385//173
f 384//174 385//174 386//174
f 386//175 385//175 387//175
f 386//176 387//176 365//176
f 365//177 387//177 366//177
f 355//178 387//178 356//178
f 356//179 387//179 385//179
f 356//180 385//180 357//180
f 357//181 385//181 383//181
f 357//182 383//182 358//182
f 358//182 383//182 381//182
f 358//183 381//183 359//183
f 359//183 381//183 379//183
f 359//184 379//184 361//184
f 361//184 379//184 376//184
f 361//185 376//185 362//185
f 362//186 376//186 374//186
f 362//187 374//187 363//187
f 363//187 374//187 372//187
f 363//188 372//188 364//188
f 364//189 372//189 370//189
f 364//190 370//190 353//190
f 353//191 370//191 368//191
f 353//192 368//192 354//192
f 354//192 368//192 366//192
f 354//193 366//193 355//193
f 355//193 366//193 387//193
f 369//194 294//194 367//194
f 367//195 294//195 293//195
f 367//195 293//195 365//195
f 365//196 293//196 292//196
f 365//196 292//196 386//196
f 386//197 292//197 291//197
f 386//198 291//198 384//198
f 384//199 291//199 290//199
f 384//199 290//199 382//199
f 382//200 290//200 289//200
f 382//200 289//200 380//200
f 380//201 289//201 378//201
f 378//202 289//202 288//202
f 378//203 288//203 377//203
f 377//203 288//203 287//203
f 377//204 287//204 296//204
f 294//194 369//194 295//194
f 295//205 369//205 371//205
f 295//205 371//205 298//205
f 298//206 371//206 373//206
f 298//206 373//206 297//206
f 297//207 373//207 375//207
f 297//207 375//207 296//207
f 296//204 375//204 377//204
f 240//208 237//208 250//208
f 250//208 237//208 252//208
f 252//208 237//208 236//208
f 236//209 267//209 252//209
f 252//210 267//210 254//210
f 254//210 267//210 245//210
f 245//211 242//211 254//211
f 254//211 242//211 253//211
f 253//211 242//211 241//211
f 212//212 303//212 249//212
f 249//212 303//212 250//212
f 250//213 303//213 240//213
f 216//214 213//214 251//214
f 251//214 213//214 249//214
f 249//215 213//215 212//215
f 241//216 247//216 253//216
f 253//216 247//216 251//216
f 251//216 247//216 216//216
f 388//80 239//80 389//80
f 389//80 239//80 240//80
f 389//80 240//80 304//80
f 239//80 388//80 238//80
f 238//80 388//80 390//80
f 238//80 390//80 236//80
f 236//80 390//80 269//80
f 269//80 390//80 391//80
f 269//80 391//80 268//80
f 268//80 391//80 245//80
f 245//80 391//80 392//80
f 245//80 392//80 244//80
f 244//80 392//80 393//80
f 244//80 393//80 243//80
f 243//80 393//80 241//80
f 241//80 393//80 394//80
f 241//80 394//80 246//80
f 246//80 394//80 248//80
f 248//80 394//80 395//80
f 248//80 395//80 216//80
f 216//80 395//80 396//80
f 216//80 396//80 215//80
f 215//80 396//80 214//80
f 214//80 396//80 397//80
f 214//80 397//80 212//80
f 212//80 397//80 305//80
f 305//80 397//80 398//80
f 305//80 398//80 304//80
f 304//80 398//80 389//80
f 398//217 399//217 389//217
f 389//218 399//218 400//218
f 389//219 400//219 388//219
f 388//220 400//220 401//220
f 388//221 401//221 390//221
f 390//222 401//222 402//222
f 390//223 402//223 391//223
f 391//224 402//224 403//224
f 391//225 403//225 392//225
f 392//226 403//226 404//226
f 392//227 404//227 393//227
f 393//228 404//228 405//228
f 393//229 405//229 394//229
f 394//230 405//230 406//230
f 394//231 406//231 395//231
f 395//232 406//232 407//232
f 395//233 407//233 396//233
f 396//234 407//234 408//234
f 396//235 408//235 397//235
f 397//236 408//236 409//236
f 397//237 409//237 398//237
f 398//238 409//238 399//238
f 410//239 411//239 412//239
f 412//240 411//240 413//240
f 412//241 413//241 414//241
f 414//242 413//242 415//242
f 414//243 415//243 416//243
f 416//244 415//244 417//244
f 416//245 417//245 418//245
f 418//246 417//246 419//246
f 418//247 419//247 420//247
f 420//248 419//248 421//248
f 420//249 421//249 422//249
f 422//250 421//250 423//250
f 422//251 423//251 424//251
f 424//252 423//252 425//252
f 424//253 425//253 426//253
f 426//254 425//254 427//254
f 427//255 425//255 428//255
f 427//256 428//256 429//256
f 429//257 428//257 430//257
f 429//258 430//258 431//258
f 431//259 430//259 432//259
f 431//260 432//260 410//260
f 410//261 432//261 411//261
f 401//178 432//178 402//178
f 402//179 432//179 430//179
f 402//180 430//180 403//180
f 403//181 430//181 428//181
f 403//262 428//262 404//262
f 404//182 428//182 425//182
f 404//263 425//263 405//263
f 405//183 425//183 423//183
f 405//184 423//184 406//184
f 406//264 423//264 421//264
f 406//265 421//265 407//265
f 407//185 421//185 419//185
f 407//266 419//266 408//266
f 408//187 419//187 417//187
f 408//188 417//188 409//188
f 409//188 417//188 415//188
f 409//190 415//190 399//190
f 399//191 415//191 413//191
f 399//192 413//192 400//192
f 400//192 413//192 411//192
f 400//193 411//193 401//193
f 401//193 411//193 432//193
f 414//267 265//267 412//267
f 412//268 265//268 266//268
f 412//268 266//268 410//268
f 410//269 266//269 263//269
f 410//269 263//269 431//269
f 431//270 263//270 262//270
f 431//270 262//270 429//270
f 429//271 262//271 261//271
f 429//271 261//271 427//271
f 427//272 261//272 260//272
f 427//272 260//272 426//272
f 426//273 260//273 424//273
f 424//273 260//273 259//273
f 424//274 259//274 422//274
f 422//274 259//274 258//274
f 422//275 258//275 257//275
f 265//267 414//267 264//267
f 264//276 414//276 416//276
f 264//276 416//276 255//276
f 255//277 416//277 418//277
f 255//277 418//277 256//277
f 256//278 418//278 420//278
f 256//278 420//278 257//278
f 257//275 420//275 422//275
f 433//279 434//279 435//279
f 435//280 434//280 436//280
f 436//281 434//281 437//281
f 438//282 439//282 440//282
f 440//283 439//283 441//283
f 441//284 439//284 433//284
f 442//285 443//285 444//285
f 444//286 443//286 445//286
f 445//287 443//287 438//287
f 446//288 447//288 448//288
f 448//289 447//289 449//289
f 449//290 447//290 442//290
f 450//291 451//291 452//291
f 452//292 451//292 453//292
f 453//293 451//293 446//293
f 450//294 454//294 455//294
f 455//295 454//295 456//295
f 455//296 456//296 437//296
f 457//80 458//80 459//80
f 459//80 458//80 460//80
f 459//80 460//80 461//80
f 457//80 462//80 458//80
f 438//297 443//297 457//297
f 457//297 443//297 462//297
f 462//297 443//297 442//297
f 442//298 447//298 462//298
f 462//298 447//298 458//298
f 458//298 447//298 446//298
f 463//299 332//299 464//299
f 464//300 332//300 331//300
f 464//300 331//300 465//300
f 465//301 331//301 330//301
f 465//301 330//301 466//301
f 466//302 330//302 329//302
f 466//302 329//302 467//302
f 467//303 329//303 328//303
f 467//303 328//303 468//303
f 468//304 328//304 327//304
f 468//304 327//304 469//304
f 469//305 327//305 470//305
f 470//305 327//305 338//305
f 470//306 338//306 471//306
f 471//306 338//306 337//306
f 471//307 337//307 336//307
f 332//299 463//299 333//299
f 333//308 463//308 472//308
f 333//308 472//308 334//308
f 334//309 472//309 473//309
f 334//309 473//309 335//309
f 335//310 473//310 474//310
f 335//310 474//310 336//310
f 336//307 474//307 471//307
f 475//311 476//311 477//311
f 477//312 476//312 478//312
f 477//313 478//313 479//313
f 479//314 478//314 480//314
f 479//315 480//315 481//315
f 481//316 480//316 482//316
f 481//317 482//317 483//317
f 483//318 482//318 484//318
f 483//319 484//319 485//319
f 485//320 484//320 486//320
f 485//321 486//321 487//321
f 487//322 486//322 488//322
f 487//323 488//323 489//323
f 489//324 488//324 490//324
f 489//325 490//325 491//325
f 491//326 490//326 492//326
f 491//327 492//327 493//327
f 493//328 492//328 494//328
f 493//329 494//329 495//329
f 495//330 494//330 496//330
f 495//331 496//331 475//331
f 475//332 496//332 476//332
f 465//333 497//333 464//333
f 464//334 497//334 498//334
f 464//335 498//335 463//335
f 463//336 498//336 499//336
f 463//337 499//337 472//337
f 472//338 499//338 500//338
f 472//339 500//339 473//339
f 473//340 500//340 501//340
f 473//341 501//341 474//341
f 474//342 501//342 502//342
f 474//343 502//343 471//343
f 471//344 502//344 503//344
f 471//345 503//345 470//345
f 470//346 503//346 504//346
f 470//347 504//347 469//347
f 469//348 504//348 505//348
f 469//349 505//349 468//349
f 468//350 505//350 506//350
f 468//351 506//351 467//351
f 467//352 506//352 507//352
f 467//353 507//353 466//353
f 466//354 507//354 465//354
f 465//355 507//355 497//355
f 480//179 507//179 482//179
f 482//179 507//179 506//179
f 482//181 506//181 484//181
f 484//181 506//181 505//181
f 484//182 505//182 486//182
f 486//182 505//182 504//182
f 486//183 504//183 488//183
f 488//183 504//183 503//183
f 488//356 503//356 490//356
f 490//357 503//357 502//357
f 490//265 502//265 492//265
f 492//185 502//185 501//185
f 492//266 501//266 494//266
f 494//187 501//187 500//187
f 494//188 500//188 496//188
f 496//188 500//188 499//188
f 496//190 499//190 476//190
f 476//191 499//191 498//191
f 476//192 498//192 478//192
f 478//192 498//192 497//192
f 478//358 497//358 480//358
f 480//193 497//193 507//193
f 446//359 451//359 458//359
f 458//359 451//359 460//359
f 460//359 451//359 450//359
f 433//360 439//360 459//360
f 459//360 439//360 457//360
f 457//360 439//360 438//360
f 437//361 434//361 461//361
f 461//361 434//361 459//361
f 459//361 434//361 433//361
f 479//80 302//80 477//80
f 477//80 302//80 283//80
f 477//80 283//80 285//80
f 302//80 479//80 301//80
f 301//80 479//80 481//80
f 301//80 481//80 211//80
f 211//80 481//80 210//80
f 210//80 481//80 483//80
f 210//80 483//80 209//80
f 209//80 483//80 207//80
f 207//80 483//80 485//80
f 207//80 485//80 273//80
f 273//80 485//80 487//80
f 273//80 487//80 272//80
f 272//80 487//80 270//80
f 270//80 487//80 489//80
f 270//80 489//80 274//80
f 274//80 489//80 276//80
f 276//80 489//80 491//80
f 276//80 491//80 189//80
f 189//80 491//80 493//80
f 189//80 493//80 188//80
f 188//80 493//80 187//80
f 187//80 493//80 495//80
f 187//80 495//80 185//80
f 185//80 495//80 286//80
f 286//80 495//80 475//80
f 286//80 475//80 285//80
f 285//80 475//80 477//80
f 450//362 455//362 460//362
f 460//362 455//362 461//362
f 461//362 455//362 437//362
f 508//80 445//80 509//80
f 509//80 445//80 438//80
f 509//80 438//80 440//80
f 510//80 442//80 508//80
f 508//80 442//80 444//80
f 508//80 444//80 445//80
f 442//80 510//80 449//80
f 449//80 510//80 511//80
f 449//80 511//80 448//80
f 448//80 511//80 446//80
f 446//80 511//80 512//80
f 446//80 512//80 453//80
f 453//80 512//80 513//80
f 453//80 513//80 452//80
f 452//80 513//80 450//80
f 450//80 513//80 514//80
f 450//80 514//80 454//80
f 454//80 514//80 456//80
f 456//80 514//80 515//80
f 456//80 515//80 437//80
f 437//80 515//80 516//80
f 437//80 516//80 436//80
f 436//80 516//80 435//80
f 435//80 516//80 517//80
f 435//80 517//80 433//80
f 433//80 517//80 518//80
f 433//80 518//80 441//80
f 441//80 518//80 440//80
f 440//80 518//80 509//80
f 518//363 519//363 509//363
f 509//364 519//364 520//364
f 509//365 520//365 508//365
f 508//366 520//366 521//366
f 508//367 521//367 510//367
f 510//368 521//368 522//368
f 510//369 522//369 511//369
f 511//370 522//370 523//370
f 511//371 523//371 512//371
f 512//372 523//372 524//372
f 512//373 524//373 513//373
f 513//374 524//374 525//374
f 513//375 525//375 514//375
f 514//376 525//376 526//376
f 514//377 526//377 515//377
f 515//378 526//378 527//378
f 515//379 527//379 516//379
f 516//380 527//380 528//380
f 516//381 528//381 517//381
f 517//382 528//382 529//382
f 517//383 529//383 518//383
f 518//384 529//384 519//384
f 530//385 531//385 532//385
f 532//386 531//386 533//386
f 532//387 533//387 534//387
f 534//388 533//388 535//388
f 534//389 535//389 536//389
f 536//390 535//390 537//390
f 536//391 537//391 538//391
f 538//392 537//392 539//392
f 538//393 539//393 540//393
f 540//394 539//394 541//394
f 540//395 541//395 542//395
f 542//396 541//396 543//396
f 542//397 543//397 544//397
f 544//398 543//398 545//398
f 544//399 545//399 546//399
f 546//400 545//400 547//400
f 546//401 547//401 548//401
f 548//402 547//402 549//402
f 548//403 549//403 550//403
f 550//404 549//404 551//404
f 550//405 551//405 552//405
f 552//406 551//406 530//406
f 530//407 551//407 531//407
f 523//408 547//408 524//408
f 524//179 547//179 545//179
f 524//181 545//181 525//181
f 525//181 545//181 543//181
f 525//182 543//182 526//182
f 526//182 543//182 541//182
f 526//409 541//409 527//409
f 527//183 541//183 539//183
f 527//356 539//356 528//356
f 528//184 539//184 537//184
f 528//265 537//265 529//265
f 529//185 537//185 535//185
f 529//187 535//187 519//187
f 519//187 535//187 533//187
f 519//188 533//188 520//188
f 520//188 533//188 531//188
f 520//410 531//410 521//410
f 521//191 531//191 551//191
f 521//192 551//192 522//192
f 522//192 551//192 549//192
f 522//411 549//411 523//411
f 523//193 549//193 547//193
f 534//412 199//412 532//412
f 532//413 199//413 200//413
f 532//414 200//414 530//414
f 530//415 200//415 201//415
f 530//416 201//416 552//416
f 552//417 201//417 202//417
f 552//418 202//418 550//418
f 550//419 202//419 203//419
f 550//420 203//420 548//420
f 548//421 203//421 204//421
f 548//422 204//422 546//422
f 546//423 204//423 205//423
f 546//424 205//424 544//424
f 544//425 205//425 206//425
f 544//426 206//426 542//426
f 542//427 206//427 195//427
f 542//428 195//428 540//428
f 540//429 195//429 196//429
f 540//430 196//430 538//430
f 538//431 196//431 197//431
f 538//432 197//432 536//432
f 536//433 197//433 198//433
f 536//434 198//434 534//434
f 534//435 198//435 199//435
f 283//436 300//436 277//436
f 277//436 300//436 278//436
f 278//436 300//436 211//436
f 211//437 208//437 278//437
f 278//438 208//438 281//438
f 281//437 208//437 207//437
f 207//439 271//439 281//439
f 281//439 271//439 282//439
f 282//439 271//439 270//439
f 185//440 284//440 279//440
f 279//440 284//440 277//440
f 277//440 284//440 283//440
f 189//441 186//441 280//441
f 280//442 186//442 279//442
f 279//441 186//441 185//441
f 270//443 275//443 282//443
f 282//443 275//443 280//443
f 280//444 275//444 189//444
