v -0.134781 0.156805 0.320920
v -0.131122 0.182272 0.317931
v -0.119257 0.185698 0.317451
v -0.112681 0.189947 0.316833
v -0.108258 0.196835 0.315605
v -0.094673 0.259989 0.299578
v -0.097144 0.267316 0.296982
v -0.103180 0.271401 0.295344
v -0.110692 0.273793 0.294226
v -0.106382 0.286035 0.289422
v -0.029621 0.288015 0.288991
v -0.073417 0.160859 0.322717
v -0.074376 0.157359 0.322215
v -0.134376 0.160251 0.321275
v -0.027810 0.296468 0.283364
v -0.027615 0.300915 0.274531
v -0.009453 -0.307690 0.251143
v -0.029634 0.307793 0.251042
v -0.072726 -0.306418 0.252461
v -0.072480 0.306627 0.252013
v -0.094425 0.298556 0.276111
v -0.101425 0.294263 0.283809
v 0.021019 0.157261 0.321680
v 0.022217 0.160808 0.322040
v 0.045445 0.288246 0.286759
v 0.046382 0.295604 0.281297
v 0.047300 0.300421 0.272111
v 0.049568 0.306946 0.248070
v -0.060627 0.193760 0.317244
v -0.049502 0.228350 0.309641
v -0.038213 0.261242 0.299874
v -0.101236 0.228098 0.308693
v 0.041267 0.260163 0.299076
v 0.034689 0.228067 0.309163
v 0.026867 0.194238 0.316814
v 0.103043 0.155795 0.318158
v 0.102994 0.159787 0.319039
v 0.092879 0.192153 0.321437
v 0.094116 0.230187 0.316500
v 0.113656 0.259650 0.298341
v 0.118246 0.283901 0.284097
v 0.242233 0.173639 0.300105
v 0.260573 0.168146 0.295769
v 0.277378 0.158518 0.291289
v 0.292444 0.143480 0.286571
v 0.297792 0.158762 0.283816
v 0.284780 0.175315 0.287329
v 0.268850 0.189018 0.291107
v 0.250207 0.199829 0.294769
v 0.185240 0.256348 0.293225
v 0.212804 0.248264 0.291379
v 0.237679 0.237928 0.288342
v 0.258657 0.224583 0.286715
v 0.278156 0.211636 0.283372
v 0.293181 0.193447 0.280862
v 0.306145 0.173492 0.278018
v 0.315317 0.184956 0.270711
v 0.301271 0.209725 0.272541
v 0.284649 0.228838 0.274882
v 0.264978 0.246125 0.276409
v 0.242738 0.258859 0.277871
v 0.215646 0.268594 0.279506
v 0.187481 0.275346 0.280720
v 0.164856 0.157380 0.313844
v 0.190874 0.156187 0.310553
v 0.214042 0.153982 0.307064
v 0.235266 0.152465 0.302959
v 0.253986 0.150392 0.298650
v 0.271895 0.147835 0.293750
v 0.134888 0.158715 0.316631
v 0.150267 0.259124 0.296075
v 0.157237 0.279801 0.282471
v 0.134585 0.154924 0.315950
v 0.164488 0.153752 0.313194
v 0.191511 0.152270 0.309780
v 0.213674 0.150703 0.306397
v 0.234390 0.148815 0.302255
v 0.251850 0.146983 0.298274
v 0.271086 0.144512 0.293158
v 0.291594 0.141006 0.286120
v 0.325929 0.160819 0.268816
v 0.334457 0.134069 0.267167
v 0.333688 0.130586 0.266828
v 0.315083 0.153987 0.275903
v 0.320927 0.138408 0.274649
v 0.306139 0.142139 0.281515
v 0.305123 0.138489 0.281231
v 0.320203 0.134733 0.274225
v 0.119118 0.291679 0.278194
v 0.159440 0.287095 0.276521
v 0.189820 0.282218 0.274683
v 0.217853 0.275571 0.273416
v 0.245349 0.265381 0.271542
v 0.268700 0.251935 0.270170
v 0.288780 0.235067 0.268221
v 0.305094 0.215590 0.266300
v 0.320696 0.190024 0.263728
v 0.333117 0.161898 0.261995
v 0.343150 0.130671 0.260423
v 0.350003 0.124089 0.250853
v 0.337809 0.162377 0.252578
v 0.324173 0.191540 0.254846
v 0.308468 0.217350 0.256862
v 0.292027 0.237453 0.258709
v 0.272033 0.254789 0.260664
v 0.247193 0.269298 0.262484
v 0.219596 0.279528 0.264061
v 0.190719 0.286475 0.266114
v 0.159739 0.291367 0.267480
v 0.119743 0.295751 0.269436
v 0.120674 0.302859 0.242775
v 0.160309 0.302577 0.215409
v 0.160075 0.297607 0.243148
v 0.120699 0.302165 0.245091
v 0.132596 0.305971 0.216950
v 0.130642 0.304083 0.230789
v 0.127266 0.303087 0.238273
v 0.190407 0.292876 0.241449
v 0.220550 0.285703 0.239510
v 0.249435 0.274526 0.237736
v 0.275935 0.258335 0.236036
v 0.296815 0.239636 0.234006
v 0.313980 0.217622 0.232409
v 0.329996 0.192095 0.231025
v 0.343854 0.163220 0.229826
v 0.354905 0.132063 0.228916
v 0.363045 0.101593 0.227889
v 0.357269 0.115040 0.237355
v 0.189490 0.297608 0.214353
v 0.221994 0.289493 0.212943
v 0.251793 0.277846 0.211520
v 0.279918 0.260261 0.210032
v 0.301241 0.239972 0.208823
v 0.318744 0.217371 0.207955
v 0.334199 0.192049 0.207077
v 0.348387 0.162986 0.206089
v 0.357753 0.138791 0.205576
v 0.365582 0.112306 0.205104
v 0.342084 0.126904 0.260404
v 0.348552 0.121473 0.251646
v 0.355786 0.112138 0.238449
v 0.360910 0.099508 0.230616
v 0.377918 0.000000 0.204468
v 0.371483 0.000000 0.223123
v 0.372778 0.037190 0.221507
v 0.369146 0.072352 0.223126
v 0.376755 0.037517 0.204578
v 0.373077 0.073822 0.204645
v 0.366988 0.071002 0.225139
v 0.370583 0.036663 0.223314
v -0.134781 -0.156806 0.320919
v -0.131122 -0.182272 0.317931
v -0.119257 -0.185698 0.317451
v -0.112681 -0.189948 0.316833
v -0.108258 -0.196835 0.315605
v -0.094673 -0.259989 0.299578
v -0.097144 -0.267316 0.296982
v -0.103180 -0.271401 0.295344
v -0.110692 -0.273793 0.294225
v -0.106382 -0.286035 0.289422
v -0.029621 -0.288015 0.288991
v -0.073417 -0.160859 0.322717
v -0.074376 -0.157359 0.322215
v -0.134376 -0.160251 0.321275
v -0.027810 -0.296468 0.283364
v -0.027615 -0.300915 0.274530
v -0.009453 0.307690 0.251143
v -0.029634 -0.307793 0.251042
v -0.072726 0.306418 0.252462
v -0.072480 -0.306627 0.252013
v -0.094425 -0.298556 0.276111
v -0.101425 -0.294264 0.283809
v 0.021019 -0.157261 0.321679
v 0.022217 -0.160808 0.322040
v 0.045445 -0.288247 0.286759
v 0.046382 -0.295604 0.281297
v 0.047300 -0.300421 0.272111
v 0.049568 -0.306946 0.248070
v -0.060627 -0.193760 0.317244
v -0.049502 -0.228350 0.309641
v -0.038213 -0.261242 0.299874
v -0.101236 -0.228098 0.308693
v 0.041267 -0.260164 0.299076
v 0.034689 -0.228067 0.309163
v 0.026867 -0.194239 0.316814
v 0.103043 -0.155795 0.318158
v 0.102994 -0.159787 0.319039
v 0.106568 -0.192170 0.314273
v 0.111309 -0.225524 0.306895
v 0.115276 -0.256900 0.296724
v 0.118246 -0.283901 0.284097
v 0.170522 -0.188201 0.309886
v 0.197135 -0.185064 0.307068
v 0.220957 -0.180490 0.303774
v 0.241816 -0.174939 0.300006
v 0.260573 -0.168147 0.295769
v 0.277378 -0.158518 0.291289
v 0.292443 -0.143480 0.286571
v 0.297792 -0.158762 0.283816
v 0.284780 -0.175315 0.287329
v 0.268850 -0.189019 0.291107
v 0.250207 -0.199829 0.294769
v 0.228933 -0.208321 0.298031
v 0.204136 -0.214783 0.300910
v 0.176683 -0.219529 0.303275
v 0.181316 -0.248515 0.293931
v 0.210303 -0.243287 0.291765
v 0.237127 -0.235655 0.289143
v 0.259218 -0.224964 0.286456
v 0.278156 -0.211636 0.283372
v 0.293181 -0.193448 0.280862
v 0.306144 -0.173492 0.278018
v 0.315317 -0.184956 0.270711
v 0.301271 -0.209725 0.272541
v 0.284649 -0.228839 0.274882
v 0.264978 -0.246125 0.276409
v 0.242738 -0.258860 0.277871
v 0.215646 -0.268594 0.279506
v 0.187481 -0.275346 0.280720
v 0.165044 -0.157080 0.313832
v 0.190874 -0.156187 0.310553
v 0.214042 -0.153982 0.307064
v 0.235266 -0.152465 0.302959
v 0.253986 -0.150392 0.298650
v 0.271895 -0.147836 0.293750
v 0.134888 -0.158715 0.316631
v 0.138328 -0.190273 0.312088
v 0.143471 -0.222836 0.305413
v 0.149515 -0.252681 0.295636
v 0.157237 -0.279801 0.282471
v 0.134585 -0.154925 0.315950
v 0.164488 -0.153752 0.313194
v 0.191511 -0.152270 0.309780
v 0.213674 -0.150704 0.306397
v 0.234390 -0.148815 0.302255
v 0.251850 -0.146983 0.298273
v 0.271086 -0.144512 0.293158
v 0.291594 -0.141006 0.286120
v 0.325929 -0.160820 0.268816
v 0.334457 -0.134069 0.267166
v 0.333688 -0.130586 0.266828
v 0.315083 -0.153988 0.275903
v 0.320927 -0.138409 0.274649
v 0.305996 -0.141625 0.281475
v 0.305123 -0.138490 0.281231
v 0.320203 -0.134733 0.274225
v 0.119118 -0.291679 0.278194
v 0.159440 -0.287095 0.276521
v 0.189820 -0.282218 0.274683
v 0.217853 -0.275571 0.273416
v 0.245349 -0.265381 0.271542
v 0.268700 -0.251935 0.270169
v 0.288780 -0.235067 0.268220
v 0.305093 -0.215590 0.266300
v 0.320696 -0.190025 0.263728
v 0.333117 -0.161898 0.261995
v 0.343150 -0.130671 0.260423
v 0.350003 -0.124089 0.250853
v 0.337809 -0.162377 0.252578
v 0.324173 -0.191540 0.254846
v 0.308468 -0.217350 0.256862
v 0.292027 -0.237453 0.258709
v 0.272033 -0.254789 0.260664
v 0.247192 -0.269299 0.262484
v 0.219596 -0.279528 0.264061
v 0.190719 -0.286475 0.266114
v 0.159739 -0.291367 0.267480
v 0.119743 -0.295751 0.269436
v 0.120674 -0.302859 0.242775
v 0.160309 -0.302577 0.215409
v 0.160075 -0.297607 0.243148
v 0.120698 -0.302165 0.245091
v 0.132147 -0.305717 0.216840
v 0.130642 -0.304083 0.230789
v 0.127266 -0.303087 0.238273
v 0.190407 -0.292876 0.241449
v 0.220550 -0.285703 0.239510
v 0.249435 -0.274526 0.237735
v 0.276983 -0.257696 0.235968
v 0.297172 -0.239312 0.233970
v 0.313980 -0.217622 0.232409
v 0.329996 -0.192095 0.231025
v 0.343950 -0.163019 0.229817
v 0.355067 -0.131588 0.228902
v 0.363045 -0.101594 0.227889
v 0.357269 -0.115040 0.237355
v 0.189490 -0.297608 0.214353
v 0.221994 -0.289493 0.212943
v 0.251793 -0.277846 0.211520
v 0.279918 -0.260261 0.210032
v 0.301241 -0.239972 0.208823
v 0.318744 -0.217372 0.207955
v 0.334199 -0.192050 0.207077
v 0.348387 -0.162986 0.206089
v 0.357753 -0.138791 0.205576
v 0.365582 -0.112306 0.205104
v 0.342084 -0.126905 0.260404
v 0.348552 -0.121473 0.251646
v 0.355786 -0.112138 0.238449
v 0.360910 -0.099508 0.230616
v 0.373574 0.000000 0.221957
v 0.372778 -0.037190 0.221507
v 0.369146 -0.072352 0.223126
v 0.376755 -0.037517 0.204578
v 0.373077 -0.073822 0.204645
v 0.366988 -0.071002 0.225139
v 0.370583 -0.036663 0.223314
v 0.239940 0.221927 0.292632
v 0.238538 0.200685 0.297579
v 0.230125 0.179576 0.302146
v 0.211325 0.166444 0.306801
v 0.191129 0.209319 0.323129
v 0.190062 0.202821 0.323314
v 0.187486 0.196954 0.323766
v 0.183583 0.191859 0.324453
v 0.178053 0.187704 0.325432
v 0.172456 0.185634 0.326406
v 0.166067 0.185029 0.327530
v 0.160256 0.186103 0.328565
v 0.154734 0.188604 0.329544
v 0.149781 0.192442 0.330412
v 0.145953 0.197506 0.331085
v 0.143707 0.203190 0.331483
v 0.142827 0.209391 0.331646
v 0.143735 0.215629 0.331477
v 0.146052 0.221437 0.331070
v 0.149351 0.226278 0.330488
v 0.154198 0.230347 0.329633
v 0.160081 0.232918 0.328597
v 0.166511 0.234079 0.327457
v 0.172595 0.233187 0.326388
v 0.178604 0.230969 0.325337
v 0.183875 0.227053 0.324409
v 0.187918 0.221922 0.323680
v 0.190283 0.215784 0.323268
v 0.140343 0.209542 0.331833
v 0.141204 0.216383 0.331620
v 0.144018 0.222758 0.331137
v 0.147311 0.227820 0.330551
v 0.152801 0.232344 0.329509
v 0.159534 0.235163 0.328424
v 0.166543 0.236429 0.327156
v 0.173231 0.235418 0.326000
v 0.180057 0.232926 0.324796
v 0.185887 0.228227 0.323807
v 0.190216 0.222456 0.322985
v 0.192466 0.216237 0.322588
v 0.193509 0.209211 0.322446
v 0.192429 0.202346 0.322623
v 0.189371 0.195620 0.323149
v 0.185213 0.189958 0.323837
v 0.179107 0.185558 0.325001
v 0.173118 0.183365 0.325791
v 0.166124 0.182566 0.327130
v 0.159715 0.183523 0.328200
v 0.153740 0.186045 0.329296
v 0.147608 0.190705 0.330456
v 0.143444 0.196828 0.331224
v 0.141187 0.202862 0.331596
v 0.129471 0.209699 0.330028
v 0.131608 0.219305 0.330009
v 0.136877 0.226721 0.329814
v 0.143550 0.231853 0.329312
v 0.151113 0.235127 0.328348
v 0.159101 0.237528 0.326968
v 0.166369 0.237932 0.325982
v 0.173816 0.237054 0.324528
v 0.181104 0.234429 0.323447
v 0.188623 0.230335 0.321547
v 0.194657 0.224692 0.319596
v 0.197486 0.217638 0.318666
v 0.198904 0.209642 0.318145
v 0.197635 0.200893 0.318578
v 0.193499 0.193350 0.320018
v 0.186789 0.187894 0.322012
v 0.179984 0.184249 0.323427
v 0.173285 0.182213 0.324770
v 0.166164 0.181398 0.325988
v 0.159434 0.182181 0.327114
v 0.152137 0.183900 0.328237
v 0.144104 0.187566 0.329254
v 0.135731 0.193969 0.329837
v 0.131588 0.201109 0.330013
v 0.115280 0.210192 0.329110
v 0.116670 0.223589 0.328822
v 0.122537 0.235287 0.327748
v 0.134745 0.241708 0.325911
v 0.146926 0.243876 0.323514
v 0.158064 0.244151 0.322008
v 0.165860 0.244160 0.320515
v 0.175046 0.243657 0.318923
v 0.186378 0.241723 0.317027
v 0.196702 0.237903 0.314608
v 0.203546 0.229176 0.313884
v 0.206290 0.219245 0.313260
v 0.206716 0.209729 0.313381
v 0.206128 0.198921 0.313247
v 0.201787 0.187686 0.314188
v 0.191594 0.179986 0.315892
v 0.181643 0.176808 0.317189
v 0.172533 0.176336 0.319283
v 0.164511 0.176262 0.320917
v 0.156423 0.176095 0.321962
v 0.144858 0.177043 0.324329
v 0.133759 0.178839 0.326035
v 0.121568 0.186590 0.328166
v 0.116627 0.198059 0.329028
v 0.219752 0.206380 0.303371
v 0.216201 0.232044 0.299033
v 0.220149 0.219893 0.300240
v 0.215571 0.191008 0.306133
v 0.205565 0.177238 0.308610
v 0.202803 0.242426 0.301347
v 0.165225 0.167901 0.313993
v 0.187413 0.169139 0.311086
v 0.142644 0.170965 0.317820
v 0.106832 0.196871 0.326039
v 0.107532 0.224533 0.324272
v 0.123255 0.246362 0.315075
v 0.180034 0.248675 0.303966
v 0.152090 0.249621 0.309613
v 0.117183 0.176251 0.321529
v -0.356384 -0.077174 0.099274
v -0.350824 -0.099153 0.089800
v -0.346851 -0.104744 0.079031
v -0.342941 -0.109085 0.068594
v -0.329178 -0.120977 0.034988
v -0.311766 -0.131759 -0.000767
v -0.358802 -0.062496 0.101304
v -0.361429 -0.029201 0.101605
v -0.361995 -0.012021 0.101459
v -0.361709 -0.010476 0.100186
v -0.361810 0.000000 0.100229
v -0.353966 -0.091852 0.097244
v -0.331648 0.000000 0.021409
v -0.331631 0.000000 0.066518
v -0.354649 -0.011880 0.073355
v -0.354137 -0.027969 0.073537
v -0.351855 -0.057472 0.073087
v -0.347712 -0.067847 0.062874
v -0.338991 -0.064667 0.035099
v -0.335408 -0.062866 0.024407
v -0.334163 -0.061536 0.020637
v -0.333497 -0.057298 0.017627
v -0.333606 -0.053172 0.016803
v -0.335281 -0.028037 0.016463
v -0.335868 -0.010934 0.016373
v -0.349339 -0.067451 0.068144
v -0.350893 -0.063560 0.071953
v -0.331726 -0.012170 0.066547
v -0.331838 -0.028451 0.066583
v -0.331769 -0.042722 0.066563
v -0.331575 -0.045010 0.056618
v -0.331583 -0.045034 0.033949
v -0.331633 -0.045154 0.026855
v -0.331576 -0.041856 0.021494
v -0.331633 -0.027467 0.021417
v -0.331628 -0.011220 0.021432
v -0.331593 -0.045013 0.064309
v -0.331577 -0.045011 0.060777
v -0.331574 -0.044343 0.021786
v -0.331578 -0.045055 0.023747
v -0.328268 -0.028416 -0.001360
v -0.326026 -0.056905 -0.001285
v -0.328887 -0.010671 -0.001422
v -0.345481 -0.088910 0.065464
v -0.348141 -0.088023 0.073674
v -0.335412 -0.088616 0.034779
v -0.321743 -0.088857 -0.001101
v -0.350306 -0.084359 0.079694
v -0.352416 -0.077829 0.084063
v -0.353764 -0.072221 0.086329
v -0.355288 -0.060520 0.087190
v -0.357573 -0.028819 0.086820
v -0.358152 -0.012060 0.086666
v -0.325736 0.000000 -0.001716
v -0.325448 -0.010712 -0.001715
v -0.324886 -0.028250 -0.001714
v -0.322542 -0.056333 -0.001712
v -0.318317 -0.088491 -0.001707
v -0.308732 -0.131003 -0.001538
v -0.356384 0.077174 0.099274
v -0.350824 0.099153 0.089800
v -0.346851 0.104744 0.079031
v -0.342941 0.109085 0.068594
v -0.329178 0.120977 0.034988
v -0.311766 0.131759 -0.000767
v -0.358802 0.062496 0.101304
v -0.361429 0.029201 0.101605
v -0.361995 0.012021 0.101459
v -0.361709 0.010476 0.100186
v -0.353966 0.091852 0.097244
v -0.335952 0.000000 0.016451
v -0.354506 0.000000 0.073220
v -0.354649 0.011880 0.073355
v -0.354137 0.027969 0.073537
v -0.351855 0.057472 0.073087
v -0.347712 0.067847 0.062874
v -0.338991 0.064667 0.035099
v -0.335408 0.062866 0.024407
v -0.334163 0.061536 0.020637
v -0.333497 0.057298 0.017627
v -0.333606 0.053172 0.016803
v -0.335281 0.028037 0.016463
v -0.335868 0.010934 0.016373
v -0.349339 0.067451 0.068144
v -0.350893 0.063560 0.071953
v -0.331726 0.012170 0.066547
v -0.331838 0.028451 0.066583
v -0.331769 0.042722 0.066563
v -0.331575 0.045010 0.056618
v -0.331583 0.045034 0.033949
v -0.331633 0.045154 0.026855
v -0.331576 0.041856 0.021494
v -0.331633 0.027467 0.021417
v -0.331628 0.011220 0.021432
v -0.331593 0.045013 0.064309
v -0.331577 0.045011 0.060777
v -0.331574 0.044343 0.021786
v -0.331578 0.045055 0.023747
v -0.328268 0.028416 -0.001360
v -0.326026 0.056905 -0.001285
v -0.329037 0.000000 -0.001389
v -0.328887 0.010671 -0.001422
v -0.345481 0.088910 0.065464
v -0.348141 0.088023 0.073674
v -0.335412 0.088616 0.034779
v -0.321743 0.088857 -0.001101
v -0.350306 0.084359 0.079694
v -0.352416 0.077829 0.084063
v -0.353764 0.072221 0.086329
v -0.355288 0.060520 0.087190
v -0.357573 0.028819 0.086820
v -0.358152 0.012060 0.086666
v -0.358256 0.000000 0.086497
v -0.325448 0.010712 -0.001715
v -0.324886 0.028250 -0.001714
v -0.322542 0.056333 -0.001712
v -0.318317 0.088491 -0.001707
v -0.308732 0.131003 -0.001538
v -0.125860 0.295758 0.051995
v -0.124637 0.280573 0.000444
v -0.073774 0.307058 0.081663
v -0.038050 0.308435 0.081145
v -0.104684 0.304979 0.082485
v 0.000184 0.302386 0.052127
v -0.036895 0.301943 0.052429
v -0.071192 0.300576 0.052516
v -0.102496 0.298450 0.052934
v 0.076824 0.284539 0.000530
v 0.038170 0.286605 0.001097
v 0.002893 0.287126 0.000672
v -0.034763 0.286815 0.000656
v -0.069849 0.285277 0.000416
v -0.099841 0.283204 0.000419
v -0.125240 0.288571 0.025700
v -0.099623 0.291432 0.026105
v -0.069216 0.293724 0.026774
v -0.035152 0.294947 0.026443
v 0.001330 0.295472 0.026848
v 0.038272 0.294841 0.026608
v 0.076645 0.292309 0.024176
v 0.037789 0.301753 0.051330
v -0.001521 0.308581 0.078800
v -0.029015 0.311892 0.097472
v -0.034888 0.312408 0.101101
v -0.042698 0.312586 0.103380
v -0.076226 0.311394 0.105043
v -0.106228 0.309420 0.105934
v -0.123257 0.307136 0.102304
v -0.125749 0.305926 0.095891
v -0.126153 0.302940 0.083175
v -0.117386 0.308313 0.105594
v 0.038139 0.285522 -0.000081
v 0.076494 0.283646 -0.000086
v 0.002817 0.286203 -0.000077
v -0.034657 0.285964 -0.000063
v -0.069811 0.284537 -0.000066
v -0.099811 0.282421 -0.000074
v -0.124141 0.279805 -0.000081
v -0.125860 -0.295758 0.051995
v -0.124637 -0.280573 0.000444
v -0.073774 -0.307058 0.081663
v -0.038050 -0.308435 0.081145
v -0.104684 -0.304979 0.082485
v 0.000184 -0.302386 0.052127
v -0.036895 -0.301943 0.052429
v -0.071192 -0.300576 0.052516
v -0.102496 -0.298450 0.052934
v 0.076824 -0.284539 0.000530
v 0.038170 -0.286605 0.001097
v 0.002893 -0.287126 0.000672
v -0.034763 -0.286815 0.000656
v -0.069849 -0.285277 0.000416
v -0.099841 -0.283204 0.000419
v -0.125240 -0.288571 0.025700
v -0.099623 -0.291432 0.026105
v -0.069216 -0.293724 0.026773
v -0.035152 -0.294947 0.026443
v 0.001330 -0.295472 0.026848
v 0.038272 -0.294841 0.026608
v 0.076645 -0.292309 0.024176
v 0.037789 -0.301753 0.051330
v -0.001521 -0.308581 0.078800
v -0.029015 -0.311892 0.097472
v -0.034888 -0.312408 0.101101
v -0.042698 -0.312586 0.103380
v -0.076226 -0.311394 0.105043
v -0.106228 -0.309420 0.105934
v -0.123257 -0.307136 0.102304
v -0.125749 -0.305926 0.095891
v -0.126153 -0.302940 0.083175
v -0.117386 -0.308313 0.105594
v 0.038139 -0.285522 -0.000081
v 0.076494 -0.283646 -0.000087
v 0.002817 -0.286203 -0.000077
v -0.034657 -0.285964 -0.000063
v -0.069811 -0.284537 -0.000066
v -0.099811 -0.282421 -0.000074
v -0.124141 -0.279805 -0.000081
v 0.112162 0.281506 0.000403
v 0.076698 0.291576 0.024904
v 0.037674 0.299860 0.052258
v -0.001951 0.305014 0.079516
v -0.029230 0.307391 0.097887
v -0.035371 0.307815 0.101420
v -0.042106 0.308035 0.103588
v -0.106228 0.304607 0.105934
v -0.117386 0.302856 0.105594
v -0.123257 0.301267 0.102304
v -0.125749 0.299148 0.095891
v -0.126428 0.296497 0.083066
v -0.076806 0.306476 0.105201
v -0.126022 0.289953 0.051447
v -0.125567 0.283185 0.025070
v -0.124693 0.275972 -0.000055
v 0.112128 0.280701 -0.000081
v 0.112162 -0.281506 0.000403
v 0.076698 -0.291576 0.024904
v 0.037674 -0.299860 0.052258
v -0.001951 -0.305014 0.079516
v -0.029230 -0.307391 0.097887
v -0.035371 -0.307815 0.101420
v -0.042106 -0.308035 0.103588
v -0.106228 -0.304607 0.105934
v -0.117386 -0.302856 0.105594
v -0.123257 -0.301267 0.102304
v -0.125749 -0.299148 0.095891
v -0.126428 -0.296497 0.083066
v -0.076806 -0.306476 0.105201
v -0.126022 -0.289953 0.051447
v -0.125567 -0.283185 0.025070
v -0.124693 -0.275972 -0.000055
v 0.112128 -0.280701 -0.000081
f 14 3 2
f 8 10 9
f 16 20 21
f 20 16 18
f 15 21 22
f 21 15 16
f 14 13 12
f 13 14 1
f 12 3 14
f 3 12 4
f 11 10 7
f 7 10 8
f 22 11 15
f 11 22 10
f 7 31 11
f 31 7 6
f 6 30 31
f 30 6 32
f 12 5 4
f 5 12 29
f 32 29 30
f 29 32 5
f 12 23 24
f 23 12 13
f 29 24 35
f 24 29 12
f 30 35 34
f 35 30 29
f 11 33 25
f 33 11 31
f 31 34 33
f 34 31 30
f 47 43 44
f 43 47 48
f 55 48 47
f 48 55 54
f 69 44 43
f 43 68 69
f 78 79 68
f 69 68 79
f 56 47 46
f 47 56 55
f 69 45 44
f 46 44 45
f 44 46 47
f 84 86 85
f 45 86 46
f 84 46 86
f 46 84 56
f 69 80 45
f 80 69 79
f 45 87 86
f 87 45 80
f 87 85 86
f 85 87 88
f 15 25 26
f 25 15 11
f 26 16 15
f 16 26 27
f 26 41 89
f 41 26 25
f 89 72 90
f 72 89 41
f 90 63 91
f 63 90 72
f 91 62 92
f 62 91 63
f 93 62 61
f 62 93 92
f 94 61 60
f 61 94 93
f 95 60 59
f 60 95 94
f 58 54 55
f 54 58 59
f 96 59 58
f 59 96 95
f 55 56 57
f 57 58 55
f 97 58 57
f 58 97 96
f 81 56 84
f 56 81 57
f 98 57 81
f 57 98 97
f 84 85 81
f 85 82 81
f 109 110 90
f 89 90 110
f 110 27 89
f 26 89 27
f 110 28 27
f 28 110 114
f 113 116 117
f 27 18 16
f 18 27 28
f 111 28 114
f 109 114 110
f 114 109 113
f 117 114 113
f 114 117 111
f 108 109 91
f 90 91 109
f 107 108 92
f 91 92 108
f 106 107 93
f 92 93 107
f 105 106 94
f 93 94 106
f 104 105 95
f 94 95 105
f 103 95 96
f 95 103 104
f 102 96 97
f 96 102 103
f 101 97 98
f 97 101 102
f 109 108 113
f 108 118 113
f 108 107 118
f 107 119 118
f 107 106 119
f 106 120 119
f 106 105 120
f 105 121 120
f 105 104 121
f 104 122 121
f 104 103 122
f 103 123 122
f 103 102 123
f 102 124 123
f 102 101 124
f 101 125 124
f 116 113 112
f 116 112 115
f 118 112 113
f 112 118 129
f 118 119 129
f 119 130 129
f 120 130 119
f 130 120 131
f 120 121 131
f 121 132 131
f 122 132 121
f 132 122 133
f 122 123 133
f 123 134 133
f 124 134 123
f 134 124 135
f 124 125 135
f 125 136 135
f 125 126 137
f 125 137 136
f 82 85 88
f 82 88 83
f 126 128 127
f 126 101 100
f 101 126 125
f 100 128 126
f 140 128 100
f 128 140 141
f 99 98 82
f 81 82 98
f 100 101 99
f 98 99 101
f 139 100 99
f 100 139 140
f 99 83 139
f 83 99 82
f 138 126 127
f 126 138 137
f 127 141 142
f 141 127 128
f 148 127 146
f 127 148 138
f 146 142 149
f 142 146 127
f 147 146 145
f 146 147 148
f 301 145 150
f 150 144 301
f 145 149 150
f 149 145 146
f 145 301 143
f 145 143 147
f 164 152 153
f 158 159 160
f 170 166 171
f 166 170 168
f 171 165 172
f 165 171 166
f 164 163 151
f 163 164 162
f 154 162 153
f 162 164 153
f 160 157 158
f 160 161 157
f 161 160 172
f 161 172 165
f 157 181 156
f 181 157 161
f 156 180 182
f 180 156 181
f 162 155 179
f 155 162 154
f 182 179 155
f 179 182 180
f 173 163 162
f 173 162 174
f 174 179 185
f 179 174 162
f 185 179 180
f 185 180 184
f 161 183 181
f 183 161 175
f 184 180 181
f 184 181 183
f 204 194 193
f 194 204 203
f 204 208 203
f 208 204 207
f 194 202 195
f 202 194 203
f 203 209 202
f 209 203 208
f 195 201 196
f 201 195 202
f 202 210 201
f 210 202 209
f 196 200 197
f 200 196 201
f 211 201 210
f 201 211 200
f 187 185 188
f 185 187 174
f 184 188 185
f 188 184 189
f 193 192 205
f 205 204 193
f 192 227 228
f 228 205 192
f 189 227 188
f 227 189 228
f 189 183 190
f 183 189 184
f 204 205 206
f 206 207 204
f 190 228 189
f 228 190 229
f 205 229 206
f 229 205 228
f 174 186 173
f 186 174 187
f 224 196 225
f 196 197 225
f 237 236 224
f 224 225 237
f 223 195 224
f 195 196 224
f 236 235 223
f 223 224 236
f 222 194 223
f 194 195 223
f 235 234 222
f 222 223 235
f 221 193 222
f 193 194 222
f 233 222 234
f 222 233 221
f 221 220 192
f 192 193 221
f 232 221 233
f 221 232 220
f 187 231 186
f 231 187 226
f 188 226 187
f 226 188 227
f 220 226 227
f 227 192 220
f 232 231 226
f 232 226 220
f 212 200 211
f 200 212 199
f 225 197 198
f 199 197 200
f 197 199 198
f 242 243 244
f 198 199 244
f 242 199 212
f 199 242 244
f 225 238 237
f 238 225 198
f 198 245 238
f 245 198 244
f 244 246 245
f 246 244 243
f 175 165 176
f 165 175 161
f 176 166 177
f 166 176 165
f 190 175 191
f 175 190 183
f 176 191 175
f 191 176 247
f 191 229 190
f 229 191 230
f 247 230 191
f 230 247 248
f 230 206 229
f 206 230 219
f 248 219 230
f 219 248 249
f 219 207 206
f 207 219 218
f 249 218 219
f 218 249 250
f 207 217 208
f 217 207 218
f 218 251 217
f 251 218 250
f 208 216 209
f 216 208 217
f 217 252 216
f 252 217 251
f 209 215 210
f 215 209 216
f 253 216 252
f 216 253 215
f 214 210 215
f 210 214 211
f 254 215 253
f 215 254 214
f 214 213 211
f 213 212 211
f 255 214 254
f 214 255 213
f 239 212 213
f 212 239 242
f 256 213 255
f 213 256 239
f 239 240 243
f 239 243 242
f 248 247 268
f 248 268 267
f 247 176 177
f 247 177 268
f 268 178 272
f 178 268 177
f 271 275 274
f 177 168 178
f 168 177 166
f 269 272 178
f 267 272 271
f 272 267 268
f 275 272 269
f 272 275 271
f 249 248 267
f 249 267 266
f 250 249 266
f 250 266 265
f 251 250 265
f 251 265 264
f 252 251 264
f 252 264 263
f 253 252 263
f 253 263 262
f 253 261 254
f 261 253 262
f 254 260 255
f 260 254 261
f 255 259 256
f 259 255 260
f 267 271 266
f 266 271 276
f 266 276 265
f 265 276 277
f 265 277 264
f 264 277 278
f 264 278 263
f 263 278 279
f 263 279 262
f 262 279 280
f 262 280 261
f 261 280 281
f 261 281 260
f 260 281 282
f 260 282 259
f 259 282 283
f 274 270 271
f 270 274 273
f 276 270 287
f 270 276 271
f 276 287 277
f 277 287 288
f 278 288 289
f 288 278 277
f 278 289 279
f 279 289 290
f 290 280 279
f 280 290 291
f 280 291 281
f 281 291 292
f 282 292 293
f 292 282 281
f 282 293 283
f 283 293 294
f 283 295 284
f 295 283 294
f 243 240 246
f 241 246 240
f 284 285 286
f 259 284 258
f 284 259 283
f 258 284 286
f 286 298 258
f 298 286 299
f 256 257 240
f 240 239 256
f 257 256 259
f 257 259 258
f 258 297 257
f 297 258 298
f 241 257 297
f 257 241 240
f 284 296 285
f 296 284 295
f 285 299 286
f 299 285 300
f 285 305 303
f 305 285 296
f 303 300 285
f 300 303 306
f 303 304 302
f 304 303 305
f 144 307 301
f 301 307 302
f 302 306 303
f 306 302 307
f 302 143 301
f 143 302 304
f 66 77 67
f 77 66 76
f 59 53 54
f 53 59 60
f 67 78 68
f 78 67 77
f 42 68 43
f 68 42 67
f 48 42 43
f 42 48 49
f 54 49 48
f 49 54 53
f 60 52 53
f 52 60 61
f 325 336 324
f 336 325 337
f 326 337 325
f 337 326 338
f 327 338 326
f 338 327 339
f 340 327 328
f 327 340 339
f 328 341 340
f 341 328 329
f 341 330 342
f 330 341 329
f 343 342 330
f 343 330 331
f 332 343 331
f 343 332 344
f 333 344 332
f 344 333 345
f 334 345 333
f 345 334 346
f 335 346 334
f 346 335 347
f 312 347 335
f 347 312 348
f 312 349 348
f 349 312 313
f 313 350 349
f 350 313 314
f 350 315 351
f 315 350 314
f 316 351 315
f 351 316 352
f 316 317 353
f 353 352 316
f 317 318 354
f 354 353 317
f 355 318 319
f 318 355 354
f 356 319 320
f 319 356 355
f 320 357 356
f 357 320 321
f 357 322 358
f 322 357 321
f 358 323 359
f 323 358 322
f 359 324 336
f 324 359 323
f 337 361 336
f 361 360 336
f 337 338 362
f 362 361 337
f 363 338 339
f 338 363 362
f 339 364 363
f 364 339 340
f 340 365 364
f 365 340 341
f 341 366 365
f 366 341 342
f 367 366 342
f 367 342 343
f 344 367 343
f 367 344 368
f 345 368 344
f 368 345 369
f 346 369 345
f 369 346 370
f 371 346 347
f 346 371 370
f 372 347 348
f 347 372 371
f 348 373 372
f 373 348 349
f 349 374 373
f 374 349 350
f 375 350 351
f 350 375 374
f 351 352 376
f 376 375 351
f 352 353 377
f 377 376 352
f 354 377 353
f 377 354 378
f 354 355 379
f 354 379 378
f 356 379 355
f 379 356 380
f 357 380 356
f 380 357 381
f 359 383 382
f 382 358 359
f 336 360 383
f 336 383 359
f 381 358 382
f 358 381 357
f 371 394 370
f 394 371 395
f 395 372 396
f 372 395 371
f 308 49 53
f 49 308 309
f 308 53 52
f 396 373 397
f 373 396 372
f 309 42 49
f 42 309 310
f 373 398 397
f 398 373 374
f 311 66 67
f 370 393 369
f 393 370 394
f 61 62 51
f 61 51 52
f 66 65 75
f 66 75 76
f 70 74 64
f 74 70 73
f 34 38 39
f 38 34 35
f 25 40 41
f 40 25 33
f 33 39 40
f 39 33 34
f 62 63 50
f 62 50 51
f 41 71 72
f 71 41 40
f 72 50 63
f 50 72 71
f 399 398 374
f 399 374 375
f 24 36 37
f 36 24 23
f 38 35 24
f 38 24 37
f 36 73 37
f 70 37 73
f 405 382 406
f 382 405 381
f 406 383 407
f 383 406 382
f 361 362 386
f 386 385 361
f 363 387 362
f 386 362 387
f 379 402 378
f 402 379 403
f 380 403 379
f 403 380 404
f 363 388 387
f 388 363 364
f 389 388 364
f 389 364 365
f 409 393 394
f 393 409 413
f 52 409 410
f 52 410 308
f 308 410 408
f 308 408 309
f 410 394 395
f 394 410 409
f 396 410 395
f 410 396 408
f 309 411 310
f 411 309 408
f 411 408 397
f 408 396 397
f 412 411 398
f 411 397 398
f 65 64 74
f 65 74 75
f 65 66 311
f 310 67 42
f 311 67 310
f 310 412 311
f 412 310 411
f 376 399 375
f 399 376 400
f 65 311 415
f 415 311 412
f 399 400 415
f 412 399 415
f 399 412 398
f 403 414 402
f 416 414 403
f 422 405 406
f 386 387 419
f 386 418 385
f 419 418 386
f 71 419 421
f 419 71 40
f 52 51 409
f 413 409 51
f 377 400 376
f 400 377 401
f 415 401 414
f 401 415 400
f 378 401 377
f 401 378 402
f 401 402 414
f 64 415 414
f 415 64 65
f 391 368 392
f 368 391 367
f 420 391 392
f 369 392 368
f 392 369 393
f 393 420 392
f 420 393 413
f 51 50 413
f 420 413 50
f 389 365 390
f 390 365 366
f 421 389 390
f 391 390 366
f 391 366 367
f 420 390 391
f 390 420 421
f 388 389 421
f 50 71 420
f 421 420 71
f 421 387 388
f 387 421 419
f 38 422 417
f 422 38 37
f 406 417 422
f 417 406 407
f 385 360 361
f 360 385 384
f 360 384 407
f 407 383 360
f 384 385 418
f 417 407 384
f 418 417 384
f 39 38 418
f 418 38 417
f 40 39 419
f 418 419 39
f 381 404 380
f 404 381 405
f 416 404 405
f 405 422 416
f 416 422 70
f 422 37 70
f 70 64 416
f 414 416 64
f 403 404 416
f 446 445 456
f 456 457 446
f 457 458 447
f 457 447 446
f 435 447 458
f 447 435 493
f 453 441 440
f 441 453 454
f 468 426 466
f 426 468 427
f 466 425 467
f 425 466 426
f 453 440 460
f 448 460 440
f 440 466 448
f 467 448 466
f 424 470 467
f 467 425 424
f 448 467 470
f 470 434 471
f 434 470 424
f 460 449 459
f 449 460 448
f 448 471 449
f 471 448 470
f 434 423 471
f 471 423 472
f 449 471 472
f 459 439 452
f 439 459 449
f 429 472 423
f 472 429 473
f 473 449 472
f 449 473 439
f 452 438 451
f 438 452 439
f 430 473 429
f 473 430 474
f 474 439 473
f 439 474 438
f 438 450 451
f 450 438 437
f 450 437 494
f 450 494 436
f 475 431 432
f 433 535 432
f 432 535 475
f 431 474 430
f 474 431 475
f 475 438 474
f 438 475 437
f 475 535 437
f 535 494 437
f 444 461 445
f 456 445 461
f 468 441 442
f 440 468 466
f 468 440 441
f 454 442 441
f 442 454 455
f 462 443 455
f 442 455 443
f 469 468 442
f 469 443 444
f 443 462 444
f 444 462 461
f 447 463 446
f 463 447 465
f 493 465 447
f 465 493 523
f 476 477 465
f 465 523 476
f 463 477 478
f 477 463 465
f 446 463 445
f 445 463 464
f 444 445 464
f 479 463 478
f 463 479 464
f 444 464 469
f 442 443 469
f 480 464 479
f 464 480 469
f 469 427 468
f 427 469 428
f 480 481 428
f 428 469 480
f 503 504 514
f 515 514 504
f 515 505 516
f 505 515 504
f 505 435 516
f 435 505 493
f 511 498 499
f 511 499 512
f 485 527 525
f 527 485 486
f 484 525 526
f 525 484 485
f 498 511 518
f 518 506 498
f 506 526 525
f 506 525 498
f 529 483 526
f 526 483 484
f 506 529 526
f 529 492 483
f 492 529 530
f 518 507 506
f 507 518 517
f 506 530 529
f 530 506 507
f 492 530 482
f 530 531 482
f 507 531 530
f 517 497 507
f 497 517 510
f 488 482 531
f 488 531 532
f 507 532 531
f 532 507 497
f 496 510 509
f 510 496 497
f 489 488 532
f 489 532 533
f 533 497 496
f 497 533 532
f 495 496 508
f 508 496 509
f 495 508 494
f 436 494 508
f 534 491 490
f 433 491 535
f 491 534 535
f 490 489 533
f 490 533 534
f 534 496 495
f 496 534 533
f 534 495 535
f 535 495 494
f 503 514 519
f 519 502 503
f 527 500 499
f 498 527 499
f 527 498 525
f 512 499 500
f 512 500 513
f 501 513 500
f 513 501 520
f 528 500 527
f 528 502 501
f 520 501 502
f 502 519 520
f 505 521 524
f 521 505 504
f 493 524 523
f 524 493 505
f 523 524 476
f 476 524 536
f 536 521 537
f 521 536 524
f 504 503 521
f 503 522 521
f 502 522 503
f 521 538 537
f 538 521 522
f 502 528 522
f 500 528 501
f 539 522 528
f 522 539 538
f 486 528 527
f 528 486 487
f 540 539 487
f 528 487 539
f 548 557 549
f 557 548 558
f 547 558 548
f 558 547 559
f 546 559 547
f 559 546 560
f 562 563 623
f 562 623 622
f 563 562 561
f 546 563 560
f 563 561 560
f 564 563 546
f 549 556 541
f 556 549 557
f 541 556 634
f 634 556 635
f 563 564 624
f 563 624 623
f 572 631 571
f 631 572 632
f 634 632 541
f 572 541 632
f 545 571 570
f 571 545 572
f 572 545 541
f 545 549 541
f 569 545 573
f 545 570 573
f 629 628 573
f 569 573 628
f 543 549 545
f 549 543 548
f 568 545 569
f 545 568 543
f 569 633 568
f 633 569 628
f 544 548 543
f 548 544 547
f 567 566 544
f 566 567 627
f 566 627 626
f 633 627 568
f 567 568 627
f 573 570 629
f 570 630 629
f 630 570 571
f 571 631 630
f 567 543 568
f 543 567 544
f 544 564 547
f 564 546 547
f 565 564 544
f 544 566 565
f 625 564 565
f 564 625 624
f 565 626 625
f 626 565 566
f 562 622 621
f 562 621 550
f 562 551 561
f 551 562 550
f 550 637 575
f 637 550 621
f 561 552 560
f 552 561 551
f 551 575 574
f 575 551 550
f 560 553 559
f 553 560 552
f 552 574 576
f 574 552 551
f 553 558 559
f 558 553 554
f 553 552 577
f 576 577 552
f 558 554 557
f 557 554 555
f 554 553 578
f 577 578 553
f 555 578 579
f 578 555 554
f 557 542 556
f 542 557 555
f 580 555 579
f 555 580 542
f 542 635 556
f 635 542 636
f 588 597 598
f 597 588 589
f 587 598 599
f 598 587 588
f 586 599 600
f 599 586 587
f 603 602 640
f 639 640 602
f 603 601 602
f 586 600 603
f 603 600 601
f 604 586 603
f 589 581 596
f 589 596 597
f 596 581 651
f 651 652 596
f 604 603 641
f 640 641 603
f 648 612 611
f 612 648 649
f 649 581 612
f 581 649 651
f 585 610 611
f 585 611 612
f 612 581 585
f 585 581 589
f 613 585 609
f 610 585 613
f 645 646 613
f 645 613 609
f 583 589 588
f 589 583 585
f 608 585 583
f 585 608 609
f 650 609 608
f 609 650 645
f 584 588 587
f 588 584 583
f 607 584 606
f 643 644 606
f 644 607 606
f 644 650 608
f 644 608 607
f 646 647 610
f 646 610 613
f 647 611 610
f 611 647 648
f 583 607 608
f 607 583 584
f 584 587 604
f 604 587 586
f 605 584 604
f 584 605 606
f 642 604 641
f 604 642 605
f 643 605 642
f 605 643 606
f 602 638 639
f 602 590 638
f 602 601 591
f 602 591 590
f 590 654 638
f 654 590 615
f 601 592 591
f 592 601 600
f 591 615 590
f 615 591 614
f 600 593 592
f 593 600 599
f 592 614 591
f 614 592 616
f 599 598 593
f 598 594 593
f 592 593 617
f 592 617 616
f 598 597 594
f 597 595 594
f 593 594 618
f 593 618 617
f 595 618 594
f 618 595 619
f 597 582 595
f 582 597 596
f 620 595 582
f 595 620 619
f 652 582 596
f 582 652 653
