v 0.110802 0.000000 0.131500
v 0.107173 -0.028739 0.131498
v 0.096148 -0.055625 0.131482
v 0.078316 -0.078324 0.131487
v 0.055027 -0.095595 0.131499
v 0.028501 -0.106587 0.131474
v 0.000055 -0.110410 0.131479
v -0.028609 -0.106551 0.131482
v -0.055355 -0.095653 0.131491
v -0.078343 -0.078119 0.131489
v -0.096030 -0.055394 0.131479
v -0.107106 -0.028680 0.131478
v -0.111073 0.000000 0.131490
v -0.112837 0.000000 0.130237
v -0.108773 -0.029109 0.130277
v -0.097539 -0.056374 0.130129
v -0.079652 -0.079428 0.130086
v -0.056265 -0.097350 0.129885
v -0.029111 -0.108370 0.129847
v 0.000089 -0.112314 0.129728
v 0.029028 -0.108347 0.129443
v 0.056026 -0.097342 0.129865
v 0.079511 -0.079753 0.130118
v 0.112767 0.000000 0.130201
v 0.109036 -0.029216 0.130147
v 0.097630 -0.056510 0.130223
v 0.029978 -0.111277 0.110678
v 0.030163 -0.111703 0.106768
v 0.030387 -0.111851 0.099479
v 0.030336 -0.111286 0.096729
v 0.029901 -0.108949 0.090870
v 0.058989 -0.100791 0.110546
v 0.085149 -0.086893 0.108341
v 0.104742 -0.076819 0.099728
v 0.115976 -0.071107 0.083102
v 0.119141 -0.066959 0.053543
v 0.119077 -0.064190 0.031991
v 0.119096 -0.060830 0.009406
v 0.119128 -0.057358 -0.010678
v 0.123125 -0.021175 -0.045117
v 0.121423 -0.039569 -0.042252
v 0.119730 -0.051334 -0.032897
v 0.059201 -0.101698 0.106572
v 0.085097 -0.088742 0.104900
v 0.103956 -0.079389 0.096798
v 0.114158 -0.074340 0.081446
v 0.117467 -0.070667 0.053691
v 0.117400 -0.067864 0.031628
v 0.117521 -0.064401 0.008308
v 0.117607 -0.060900 -0.011653
v 0.118370 -0.054367 -0.035101
v 0.120272 -0.040852 -0.045791
v 0.121907 -0.021705 -0.049011
v 0.120461 -0.046727 -0.038680
v 0.119278 -0.048877 -0.041686
v 0.117860 -0.057498 -0.026785
v 0.119338 -0.054055 -0.025525
v 0.121294 -0.030983 -0.047821
v 0.122456 -0.030140 -0.044117
v 0.123566 -0.010687 -0.045873
v 0.122396 -0.010782 -0.049552
v 0.045084 -0.106721 0.110628
v 0.045237 -0.107342 0.106790
v 0.072105 -0.094113 0.109801
v 0.072368 -0.095337 0.106260
v 0.095745 -0.081267 0.105063
v 0.095382 -0.083603 0.101831
v 0.111304 -0.073665 0.092611
v 0.109733 -0.076748 0.090379
v 0.118524 -0.069149 0.070376
v 0.116536 -0.072829 0.070165
v 0.042083 -0.101919 0.131499
v 0.042739 -0.103803 0.129810
v 0.067952 -0.089681 0.129961
v 0.066746 -0.088126 0.131499
v 0.089180 -0.069096 0.130225
v 0.087790 -0.067946 0.131488
v 0.103975 -0.043783 0.130347
v 0.102353 -0.043012 0.131498
v 0.111653 -0.015113 0.130298
v 0.109919 -0.014710 0.131490
v 0.014350 -0.111323 0.129783
v 0.013994 -0.109320 0.131499
v -0.014420 -0.111369 0.129796
v -0.014139 -0.109393 0.131499
v -0.043084 -0.103835 0.129890
v -0.042285 -0.101892 0.131497
v -0.068364 -0.089160 0.130125
v -0.067297 -0.087768 0.131473
v -0.088907 -0.069064 0.130156
v -0.087543 -0.067823 0.131491
v -0.104114 -0.043274 0.130225
v -0.102404 -0.042349 0.131500
v -0.111548 -0.015371 0.130263
v -0.109766 -0.015173 0.131490
v 0.115160 -0.060662 0.098712
v 0.118970 -0.045498 0.101941
v 0.121780 -0.030228 0.103306
v 0.123237 -0.015123 0.103464
v 0.124018 0.000000 0.103638
v 0.057339 -0.099022 0.120191
v 0.069877 -0.091598 0.119840
v 0.081855 -0.083091 0.118866
v 0.092964 -0.074084 0.116867
v 0.117055 -0.015137 0.117766
v 0.114968 -0.030108 0.117431
v 0.110862 -0.045589 0.116062
v 0.104896 -0.063006 0.112933
v 0.029497 -0.109649 0.120238
v 0.043850 -0.105249 0.120293
v 0.122609 -0.056346 0.069545
v 0.125729 -0.042696 0.069431
v 0.127696 -0.028597 0.069734
v 0.128999 -0.014339 0.069797
v 0.129546 0.000000 0.069766
v 0.120508 -0.058493 0.084828
v 0.123965 -0.044365 0.086389
v 0.126048 -0.029664 0.087403
v 0.127512 -0.014849 0.087454
v 0.128261 0.000000 0.087368
v 0.122806 -0.053986 0.051903
v 0.125605 -0.040757 0.051518
v 0.127450 -0.027287 0.051666
v 0.128586 -0.013698 0.051874
v 0.128988 0.000000 0.051971
v 0.122492 -0.051485 0.032298
v 0.125067 -0.038763 0.032886
v 0.126713 -0.025931 0.033449
v 0.127706 -0.013010 0.033873
v 0.128030 0.000000 0.034032
v 0.122205 -0.048813 0.012381
v 0.124481 -0.036749 0.014382
v 0.125989 -0.024576 0.015484
v 0.126829 -0.012331 0.016298
v 0.127096 0.000000 0.016533
v 0.121659 -0.041468 -0.031662
v 0.122940 -0.031487 -0.031181
v 0.123844 -0.021380 -0.031105
v 0.124362 -0.010786 -0.031131
v 0.124553 0.000000 -0.031094
v 0.121838 -0.043677 -0.020159
v 0.123428 -0.033044 -0.017697
v 0.124538 -0.022198 -0.016687
v 0.125141 -0.011137 -0.016268
v 0.125358 0.000000 -0.016009
v 0.126203 0.000000 -0.000195
v 0.125961 -0.011683 -0.000554
v 0.125242 -0.023278 -0.001379
v 0.123964 -0.034819 -0.002621
v 0.122038 -0.046165 -0.005491
v 0.045319 -0.107706 0.099490
v 0.059297 -0.102619 0.099515
v 0.072695 -0.097303 0.098189
v 0.084806 -0.092607 0.095081
v 0.092116 -0.089918 0.091624
v 0.097806 -0.087902 0.086840
v 0.102495 -0.086142 0.080660
v 0.105548 -0.084826 0.074473
v 0.107917 -0.083470 0.066095
v 0.109298 -0.081580 0.050992
v 0.109784 -0.078335 0.028880
v 0.109555 -0.075370 0.004454
v 0.109558 -0.072566 -0.014305
v 0.109531 -0.069209 -0.032853
v 0.109248 -0.066195 -0.045040
v 0.109095 -0.059176 -0.056063
v 0.108611 -0.047980 -0.063154
v 0.108481 -0.035104 -0.066172
v 0.108284 -0.022864 -0.067466
v 0.108248 -0.011646 -0.067935
v 0.045134 -0.107297 0.096601
v 0.059021 -0.102526 0.096484
v 0.072592 -0.097460 0.095265
v 0.083796 -0.093321 0.092278
v 0.090766 -0.090823 0.088621
v 0.095781 -0.088967 0.083927
v 0.099998 -0.087428 0.078799
v 0.103061 -0.086196 0.073259
v 0.105344 -0.084927 0.065437
v 0.106656 -0.082984 0.050551
v 0.107030 -0.080057 0.028380
v 0.106897 -0.076822 0.003985
v 0.106761 -0.074116 -0.014608
v 0.106591 -0.070766 -0.033726
v 0.106865 -0.067317 -0.046233
v 0.106371 -0.060335 -0.057415
v 0.106137 -0.048677 -0.064459
v 0.105534 -0.035614 -0.067884
v 0.105202 -0.023035 -0.069204
v 0.105441 -0.011695 -0.069588
v 0.092119 -0.011592 -0.071136
v 0.092035 -0.023810 -0.070621
v 0.092245 -0.036517 -0.069308
v 0.092378 -0.050593 -0.065321
v 0.092076 -0.061747 -0.058185
v 0.092001 -0.068797 -0.046818
v 0.092079 -0.072146 -0.034142
v 0.092255 -0.075712 -0.013952
v 0.092232 -0.078683 0.004981
v 0.092159 -0.082053 0.028778
v 0.090326 -0.084827 0.046468
v 0.086556 -0.087700 0.060696
v 0.082255 -0.089940 0.068325
v 0.044185 -0.105032 0.090041
v 0.057497 -0.100472 0.087153
v 0.068580 -0.096192 0.082255
v 0.077660 -0.092260 0.074839
v 0.015027 -0.114280 0.110633
v 0.000339 -0.115565 0.110662
v -0.014661 -0.114862 0.111029
v -0.029865 -0.112398 0.110687
v -0.044768 -0.107965 0.110715
v -0.058903 -0.101632 0.110877
v -0.072335 -0.093459 0.110975
v -0.084458 -0.083636 0.111064
v -0.094932 -0.072656 0.110938
v -0.103739 -0.062100 0.109173
v -0.110373 -0.054341 0.105040
v -0.115116 -0.049847 0.099123
v -0.118981 -0.047702 0.090978
v -0.121629 -0.048133 0.081947
v -0.124006 -0.050788 0.069099
v -0.125039 -0.054718 0.058767
v -0.125747 -0.059580 0.046614
v -0.125933 -0.066334 0.032802
v 0.014797 -0.112445 0.120319
v 0.000230 -0.113718 0.120383
v -0.014626 -0.112909 0.120503
v -0.029545 -0.110280 0.120531
v -0.043873 -0.105831 0.120582
v -0.057462 -0.099273 0.120644
v -0.070247 -0.091145 0.120718
v -0.081945 -0.081599 0.120722
v -0.091977 -0.070835 0.120384
v -0.100882 -0.059001 0.119047
v -0.109675 -0.045598 0.115416
v -0.113858 -0.029496 0.117780
v -0.116160 -0.014855 0.118632
v -0.117144 0.000000 0.118890
v 0.015041 -0.114748 0.106746
v 0.015015 -0.114711 0.099512
v 0.014863 -0.114178 0.096598
v 0.014596 -0.111890 0.091058
v 0.000398 -0.116046 0.106547
v -0.014812 -0.115473 0.106550
v -0.030100 -0.113005 0.106839
v -0.045149 -0.108500 0.106748
v -0.059598 -0.102104 0.106750
v -0.073122 -0.093911 0.106760
v -0.084989 -0.084393 0.106680
v -0.095357 -0.073697 0.106730
v -0.103595 -0.063814 0.105084
v -0.109656 -0.056755 0.101550
v -0.113621 -0.052970 0.096806
v -0.116997 -0.051100 0.090020
v -0.119096 -0.051742 0.081895
v -0.121779 -0.054466 0.069689
v -0.122936 -0.057975 0.059957
v -0.123742 -0.062931 0.048133
v -0.124194 -0.068684 0.034443
v -0.125889 -0.058332 0.045689
v -0.125875 -0.048469 0.056469
v -0.126059 -0.038365 0.063702
v -0.126327 -0.025161 0.070787
v -0.125675 -0.015257 0.082130
v -0.126073 0.000000 0.082053
v -0.116515 -0.040579 0.103638
v -0.118873 -0.027848 0.105794
v -0.120426 -0.014258 0.106795
v -0.121041 0.000000 0.106936
v -0.120813 -0.038253 0.092923
v -0.122535 -0.026643 0.094128
v -0.123548 -0.014054 0.094553
v -0.123547 -0.037715 0.082309
v -0.124935 -0.026190 0.082452
v -0.125211 -0.038017 0.071507
v -0.124022 -0.073098 0.022702
v -0.124337 -0.075842 0.008385
v -0.124160 -0.075956 -0.008981
v -0.123923 -0.072323 -0.025558
v -0.124118 -0.064632 -0.041112
v -0.124270 -0.053929 -0.054278
v -0.124337 -0.040303 -0.065003
v -0.124071 -0.024698 -0.072628
v -0.124182 -0.011966 -0.075642
v -0.125832 -0.011534 -0.073641
v -0.125836 -0.023953 -0.070644
v -0.125821 -0.039168 -0.063561
v -0.125851 -0.052339 -0.053001
v -0.125829 -0.063106 -0.039703
v -0.125778 -0.070409 -0.024842
v -0.125815 -0.074082 -0.008304
v -0.125834 -0.073961 0.008304
v -0.125899 -0.070809 0.022143
v 0.000413 -0.115998 0.099594
v 0.000452 -0.115390 0.096499
v 0.000586 -0.113136 0.090967
v -0.014843 -0.115425 0.099593
v -0.030036 -0.112920 0.099601
v -0.045117 -0.108484 0.099681
v -0.059869 -0.101922 0.099679
v -0.073425 -0.093706 0.099766
v -0.085141 -0.084230 0.099549
v -0.095394 -0.073609 0.099568
v -0.094900 -0.072619 0.096601
v -0.084860 -0.083167 0.096443
v -0.073212 -0.092700 0.096459
v -0.059478 -0.101368 0.096466
v -0.044736 -0.107940 0.096557
v -0.029693 -0.112369 0.096576
v -0.014691 -0.114917 0.096591
v -0.014084 -0.112694 0.091099
v -0.028618 -0.110393 0.091141
v -0.043770 -0.105840 0.091187
v -0.058102 -0.099281 0.091189
v -0.072044 -0.090026 0.091123
v -0.083328 -0.079634 0.091000
v -0.092557 -0.068739 0.090899
v -0.102353 -0.065146 0.099258
v -0.101190 -0.065086 0.096348
v -0.096659 -0.063243 0.090006
v -0.109678 -0.056691 0.095378
v -0.108065 -0.057174 0.092834
v -0.101247 -0.057614 0.086284
v -0.115450 -0.053109 0.086054
v -0.112882 -0.054257 0.084905
v -0.103663 -0.055954 0.080553
v -0.118769 -0.056523 0.070163
v -0.119656 -0.060308 0.060379
v -0.120181 -0.065233 0.048989
v -0.120555 -0.071019 0.035498
v -0.120543 -0.075301 0.023893
v -0.120437 -0.078416 0.008686
v -0.120064 -0.078785 -0.008959
v -0.120433 -0.074649 -0.026296
v -0.120496 -0.066786 -0.042341
v -0.120260 -0.056884 -0.055210
v -0.120217 -0.043063 -0.066582
v -0.120423 -0.026050 -0.074779
v -0.120458 -0.012616 -0.078239
v -0.115968 -0.057474 0.069956
v -0.105667 -0.058227 0.069027
v -0.116649 -0.061245 0.060476
v -0.106057 -0.061495 0.060475
v -0.106199 -0.066692 0.048727
v -0.117110 -0.066180 0.049163
v -0.117210 -0.072149 0.035571
v -0.105928 -0.072247 0.036177
v -0.105722 -0.076476 0.024854
v -0.117494 -0.076157 0.024562
v -0.117714 -0.079310 0.008953
v -0.105843 -0.079840 0.009369
v -0.105834 -0.079965 -0.008847
v -0.117523 -0.079520 -0.008757
v -0.117411 -0.075471 -0.026796
v -0.105507 -0.075691 -0.027356
v -0.105579 -0.067779 -0.043358
v -0.117799 -0.067565 -0.043002
v -0.117433 -0.057664 -0.055610
v -0.105570 -0.057878 -0.056032
v -0.105591 -0.043666 -0.067676
v -0.117462 -0.043859 -0.067145
v -0.117528 -0.026405 -0.075553
v -0.105498 -0.026663 -0.076014
v -0.105542 -0.013751 -0.079432
v -0.117598 -0.013016 -0.079057
v 0.106672 0.000000 0.131500
v 0.103179 -0.027668 0.131497
v 0.092564 -0.053553 0.131482
v 0.075397 -0.075406 0.131487
v 0.052975 -0.092033 0.131499
v 0.027438 -0.102616 0.131475
v 0.000052 -0.106297 0.131479
v -0.027545 -0.102581 0.131483
v -0.053294 -0.092089 0.131491
v -0.075426 -0.075208 0.131489
v -0.092453 -0.053330 0.131479
v -0.103117 -0.027612 0.131478
v -0.106936 0.000000 0.131490
v 0.040514 -0.098122 0.131499
v 0.064257 -0.084843 0.131499
v 0.084518 -0.065414 0.131488
v 0.098539 -0.041409 0.131498
v 0.105822 -0.014162 0.131490
v 0.013471 -0.105247 0.131499
v -0.013613 -0.105317 0.131499
v -0.040711 -0.098096 0.131497
v -0.064791 -0.084497 0.131474
v -0.084283 -0.065296 0.131491
v -0.098590 -0.040771 0.131500
v -0.105678 -0.014608 0.131490
v 0.106672 0.000000 0.135650
v 0.103179 -0.027668 0.135648
v 0.092564 -0.053553 0.135632
v 0.075397 -0.075406 0.135637
v 0.052975 -0.092033 0.135649
v 0.027438 -0.102616 0.135625
v 0.000052 -0.106297 0.135630
v -0.027545 -0.102581 0.135633
v -0.053294 -0.092089 0.135641
v -0.075426 -0.075208 0.135640
v -0.092453 -0.053330 0.135630
v -0.103117 -0.027612 0.135629
v -0.106936 0.000000 0.135641
v 0.040514 -0.098122 0.135649
v 0.064257 -0.084843 0.135649
v 0.084518 -0.065414 0.135638
v 0.098539 -0.041409 0.135648
v 0.105822 -0.014162 0.135641
v 0.013471 -0.105247 0.135649
v -0.013613 -0.105317 0.135649
v -0.040711 -0.098096 0.135647
v -0.064791 -0.084497 0.135624
v -0.084283 -0.065296 0.135642
v -0.098590 -0.040771 0.135650
v -0.105678 -0.014608 0.135641
v 0.109637 0.000000 0.127679
v 0.098138 -0.048781 0.127668
v -0.035020 -0.102884 0.127763
v -0.060530 -0.090505 0.127777
v -0.077395 -0.077138 0.127741
v -0.105814 -0.028330 0.127745
v 0.036758 -0.105757 0.098746
v 0.029103 -0.105330 0.092376
v 0.119397 0.000000 -0.046535
v 0.104839 0.000000 -0.065488
v 0.117598 -0.034746 -0.043914
v 0.119003 -0.015860 -0.046133
v 0.034794 -0.102744 0.127794
v 0.060160 -0.090682 0.127769
v 0.082064 -0.072274 0.127722
v 0.107333 -0.021539 0.127679
v 0.006952 -0.108353 0.127824
v -0.013969 -0.107940 0.127801
v -0.090648 -0.060895 0.127727
v -0.101269 -0.041981 0.127700
v -0.108490 -0.014962 0.127744
v 0.117233 0.000000 0.109344
v 0.115597 -0.022138 0.108993
v 0.109176 -0.052294 0.105674
v 0.124652 0.000000 0.047573
v 0.118448 -0.050417 0.084848
v 0.122860 -0.021865 0.086745
v 0.124316 0.000000 0.086708
v 0.120074 -0.045968 0.046688
v 0.123714 -0.019903 0.047320
v 0.121808 0.000000 -0.007479
v 0.121251 -0.016939 -0.007961
v 0.118875 -0.038905 -0.010071
v 0.064488 -0.096265 0.097405
v 0.086329 -0.088042 0.091493
v 0.097317 -0.084053 0.082298
v 0.105823 -0.077883 0.043783
v 0.106135 -0.068298 -0.021511
v 0.105203 -0.040932 -0.062199
v 0.102402 -0.082058 0.073783
v 0.104851 -0.017151 -0.065149
v 0.091591 -0.023520 -0.066656
v 0.091677 -0.068262 -0.033276
v 0.091853 -0.071787 -0.013299
v 0.089754 -0.080911 0.047047
v 0.085810 -0.083809 0.061248
v 0.081306 -0.086100 0.068919
v 0.043127 -0.101412 0.091375
v 0.076577 -0.088459 0.075454
v -0.120641 -0.054571 0.058381
v -0.121345 -0.059540 0.046514
v -0.122500 -0.064468 0.031946
v 0.007369 -0.111180 0.098815
v -0.119574 -0.050801 0.068393
v -0.121906 -0.058047 0.045463
v -0.122107 -0.037959 0.063237
v -0.122371 -0.024821 0.070303
v -0.114987 -0.038528 0.096997
v -0.118133 -0.013839 0.099667
v -0.116922 -0.026626 0.098831
v -0.119667 -0.037164 0.081512
v -0.121005 -0.025802 0.081815
v -0.121266 -0.037624 0.070969
v -0.122711 -0.071477 0.008027
v -0.122784 -0.071485 -0.008049
v -0.122717 0.000000 -0.071976
v -0.122715 -0.011142 -0.071165
v -0.122760 -0.023105 -0.068232
v -0.122719 -0.037853 -0.061405
v -0.122698 -0.050616 -0.051242
v -0.122762 -0.060920 -0.038356
v -0.122813 -0.067871 -0.023965
v -0.122747 -0.068444 0.021451
v 0.000481 -0.109434 0.092479
v -0.014371 -0.111277 0.098824
v -0.036281 -0.106697 0.098898
v -0.064466 -0.094153 0.099034
v -0.095691 -0.066566 0.099147
v -0.082440 -0.080919 0.099167
v -0.042485 -0.102393 0.092756
v -0.069869 -0.087228 0.092978
v -0.080925 -0.077269 0.093152
v -0.090157 -0.066590 0.093271
v -0.094460 -0.060737 0.092217
v -0.109603 -0.051903 0.089899
v -0.099729 -0.054153 0.087593
v -0.117834 -0.075120 0.008426
v -0.117648 -0.075380 -0.008462
v -0.117719 -0.071502 -0.025292
v -0.117668 -0.054551 -0.052786
v -0.117625 -0.041418 -0.063695
v -0.117805 -0.024915 -0.071615
v -0.116142 -0.053452 0.068801
v -0.105486 -0.054405 0.067864
v -0.116961 -0.057316 0.058922
v -0.106094 -0.063032 0.047116
v -0.117451 -0.062261 0.047536
v -0.117657 -0.068096 0.034126
v -0.105808 -0.068542 0.034674
v -0.105575 -0.072636 0.023743
v -0.117778 -0.072115 0.023193
v -0.105381 -0.071928 -0.026005
v -0.117848 -0.064004 -0.040686
v -0.105430 -0.055013 -0.053244
v -0.105467 -0.041523 -0.064302
v -0.105322 -0.025267 -0.072270
v -0.105383 -0.013054 -0.075497
v -0.117817 -0.012182 -0.074932
v -0.117752 0.000000 -0.075938
v 0.102672 0.000000 0.135650
v 0.099313 -0.026642 0.135648
v 0.089106 -0.051542 0.135632
v 0.072621 -0.072526 0.135637
v 0.051019 -0.088544 0.135649
v 0.026415 -0.098749 0.135625
v 0.000039 -0.102297 0.135630
v -0.026512 -0.098716 0.135633
v -0.051326 -0.088606 0.135641
v -0.072613 -0.072364 0.135640
v -0.088995 -0.051319 0.135630
v -0.099254 -0.026572 0.135629
v -0.102936 0.000000 0.135641
v 0.038983 -0.094426 0.135649
v 0.061884 -0.081622 0.135649
v 0.081378 -0.062937 0.135638
v 0.094841 -0.039883 0.135648
v 0.101854 -0.013657 0.135641
v 0.012944 -0.101282 0.135649
v -0.013084 -0.101352 0.135649
v -0.039201 -0.094391 0.135647
v -0.062368 -0.081315 0.135624
v -0.081133 -0.062830 0.135642
v -0.094895 -0.039239 0.135650
v -0.101717 -0.014049 0.135641
v 0.091664 -0.011502 -0.067163
v 0.091777 -0.035767 -0.065407
v 0.091900 -0.048944 -0.061708
v 0.091617 -0.058915 -0.055398
v 0.091568 -0.065147 -0.045239
v 0.091783 -0.074750 0.005554
v 0.091654 -0.078123 0.029327
v 0.056352 -0.096753 0.088079
v 0.067434 -0.092422 0.082943
v 0.014087 -0.108232 0.092594
v -0.013741 -0.109013 0.092627
v -0.027790 -0.106775 0.092633
v -0.056365 -0.096101 0.092884
v -0.103004 -0.052012 0.080411
v -0.105969 -0.057797 0.058951
v -0.105655 -0.075871 0.008914
v -0.105687 -0.075991 -0.008411
v -0.105454 -0.064398 -0.041224
v -0.105115 0.000000 -0.076601
v -0.121921 -0.048085 0.056005
v -0.121735 -0.015045 0.081471
v 0.107173 0.028739 0.131498
v 0.096148 0.055625 0.131482
v 0.078316 0.078324 0.131487
v 0.055027 0.095595 0.131499
v 0.028501 0.106587 0.131474
v 0.000055 0.110410 0.131479
v -0.028609 0.106551 0.131482
v -0.055355 0.095653 0.131491
v -0.078343 0.078119 0.131489
v -0.096030 0.055394 0.131479
v -0.107106 0.028680 0.131478
v -0.108773 0.029109 0.130277
v -0.097539 0.056374 0.130129
v -0.079652 0.079428 0.130086
v -0.056265 0.097350 0.129885
v -0.029111 0.108370 0.129847
v 0.000089 0.112314 0.129728
v 0.029028 0.108347 0.129443
v 0.056026 0.097342 0.129865
v 0.079511 0.079753 0.130118
v 0.109036 0.029216 0.130147
v 0.097630 0.056510 0.130223
v 0.029978 0.111277 0.110678
v 0.030163 0.111703 0.106768
v 0.030387 0.111851 0.099479
v 0.030336 0.111286 0.096729
v 0.029901 0.108949 0.090870
v 0.058989 0.100791 0.110546
v 0.085149 0.086893 0.108341
v 0.104742 0.076819 0.099728
v 0.115976 0.071107 0.083102
v 0.119141 0.066959 0.053543
v 0.119077 0.064190 0.031991
v 0.119096 0.060830 0.009406
v 0.119128 0.057358 -0.010678
v 0.123747 0.000000 -0.045959
v 0.123125 0.021175 -0.045117
v 0.121423 0.039569 -0.042252
v 0.119730 0.051334 -0.032897
v 0.059201 0.101698 0.106572
v 0.085097 0.088742 0.104900
v 0.103956 0.079389 0.096798
v 0.114158 0.074340 0.081446
v 0.117467 0.070667 0.053691
v 0.117400 0.067864 0.031628
v 0.117521 0.064401 0.008308
v 0.117607 0.060900 -0.011653
v 0.118370 0.054367 -0.035101
v 0.120272 0.040852 -0.045791
v 0.121907 0.021705 -0.049011
v 0.122510 0.000000 -0.049728
v 0.108213 0.000000 -0.068086
v 0.120461 0.046727 -0.038680
v 0.119278 0.048877 -0.041686
v 0.117860 0.057498 -0.026785
v 0.119338 0.054055 -0.025525
v 0.121294 0.030983 -0.047821
v 0.122456 0.030140 -0.044117
v 0.123566 0.010687 -0.045873
v 0.122396 0.010782 -0.049552
v 0.045084 0.106721 0.110628
v 0.045237 0.107342 0.106790
v 0.072105 0.094113 0.109801
v 0.072368 0.095337 0.106260
v 0.095745 0.081267 0.105063
v 0.095382 0.083603 0.101831
v 0.111304 0.073665 0.092611
v 0.109733 0.076748 0.090379
v 0.118524 0.069149 0.070376
v 0.116536 0.072829 0.070165
v 0.042083 0.101919 0.131499
v 0.042739 0.103803 0.129810
v 0.067952 0.089681 0.129961
v 0.066746 0.088126 0.131499
v 0.089180 0.069096 0.130225
v 0.087790 0.067946 0.131488
v 0.103975 0.043783 0.130347
v 0.102353 0.043012 0.131498
v 0.111653 0.015113 0.130298
v 0.109919 0.014710 0.131490
v 0.014350 0.111323 0.129783
v 0.013994 0.109320 0.131499
v -0.014420 0.111369 0.129796
v -0.014139 0.109393 0.131499
v -0.043084 0.103835 0.129890
v -0.042285 0.101892 0.131497
v -0.068364 0.089160 0.130125
v -0.067297 0.087768 0.131473
v -0.088907 0.069064 0.130156
v -0.087543 0.067823 0.131491
v -0.104114 0.043274 0.130225
v -0.102404 0.042349 0.131500
v -0.111548 0.015371 0.130263
v -0.109766 0.015173 0.131490
v 0.115160 0.060662 0.098712
v 0.118970 0.045498 0.101941
v 0.121780 0.030228 0.103306
v 0.123237 0.015123 0.103464
v 0.057339 0.099022 0.120191
v 0.069877 0.091598 0.119840
v 0.081855 0.083091 0.118866
v 0.092964 0.074084 0.116867
v 0.117911 0.000000 0.117915
v 0.117055 0.015137 0.117766
v 0.114968 0.030108 0.117431
v 0.110862 0.045589 0.116062
v 0.104896 0.063006 0.112933
v 0.029497 0.109649 0.120238
v 0.043850 0.105249 0.120293
v 0.122609 0.056346 0.069545
v 0.125729 0.042696 0.069431
v 0.127696 0.028597 0.069734
v 0.128999 0.014339 0.069797
v 0.120508 0.058493 0.084828
v 0.123965 0.044365 0.086389
v 0.126048 0.029664 0.087403
v 0.127512 0.014849 0.087454
v 0.122806 0.053986 0.051903
v 0.125605 0.040757 0.051518
v 0.127450 0.027287 0.051666
v 0.128586 0.013698 0.051874
v 0.122492 0.051485 0.032298
v 0.125067 0.038763 0.032886
v 0.126713 0.025931 0.033449
v 0.127706 0.013010 0.033873
v 0.122205 0.048813 0.012381
v 0.124481 0.036749 0.014382
v 0.125989 0.024576 0.015484
v 0.126829 0.012331 0.016298
v 0.121659 0.041468 -0.031662
v 0.122940 0.031487 -0.031181
v 0.123844 0.021380 -0.031105
v 0.124362 0.010786 -0.031131
v 0.121838 0.043677 -0.020159
v 0.123428 0.033044 -0.017697
v 0.124538 0.022198 -0.016687
v 0.125141 0.011137 -0.016268
v 0.125961 0.011683 -0.000554
v 0.125242 0.023278 -0.001379
v 0.123964 0.034819 -0.002621
v 0.122038 0.046165 -0.005491
v 0.045319 0.107706 0.099490
v 0.059297 0.102619 0.099515
v 0.072695 0.097303 0.098189
v 0.084806 0.092607 0.095081
v 0.092116 0.089918 0.091624
v 0.097806 0.087902 0.086840
v 0.102495 0.086142 0.080660
v 0.105548 0.084826 0.074473
v 0.107917 0.083470 0.066095
v 0.109298 0.081580 0.050992
v 0.109784 0.078335 0.028880
v 0.109555 0.075370 0.004454
v 0.109558 0.072566 -0.014305
v 0.109531 0.069209 -0.032853
v 0.109248 0.066195 -0.045040
v 0.109095 0.059176 -0.056063
v 0.108611 0.047980 -0.063154
v 0.108481 0.035104 -0.066172
v 0.108284 0.022864 -0.067466
v 0.108248 0.011646 -0.067935
v 0.045134 0.107297 0.096601
v 0.059021 0.102526 0.096484
v 0.072592 0.097460 0.095265
v 0.083796 0.093321 0.092278
v 0.090766 0.090823 0.088621
v 0.095781 0.088967 0.083927
v 0.099998 0.087428 0.078799
v 0.103061 0.086196 0.073259
v 0.105344 0.084927 0.065437
v 0.106656 0.082984 0.050551
v 0.107030 0.080057 0.028380
v 0.106897 0.076822 0.003985
v 0.106761 0.074116 -0.014608
v 0.106591 0.070766 -0.033726
v 0.106865 0.067317 -0.046233
v 0.106371 0.060335 -0.057415
v 0.106137 0.048677 -0.064459
v 0.105534 0.035614 -0.067884
v 0.105202 0.023035 -0.069204
v 0.105441 0.011695 -0.069588
v 0.105304 0.000000 -0.069726
v 0.091878 0.000000 -0.071227
v 0.092119 0.011592 -0.071136
v 0.092035 0.023810 -0.070621
v 0.092245 0.036517 -0.069308
v 0.092378 0.050593 -0.065321
v 0.092076 0.061747 -0.058185
v 0.092001 0.068797 -0.046818
v 0.092079 0.072146 -0.034142
v 0.092255 0.075712 -0.013952
v 0.092232 0.078683 0.004981
v 0.092159 0.082053 0.028778
v 0.090326 0.084827 0.046468
v 0.086556 0.087700 0.060696
v 0.082255 0.089940 0.068325
v 0.044185 0.105032 0.090041
v 0.057497 0.100472 0.087153
v 0.068580 0.096192 0.082255
v 0.077660 0.092260 0.074839
v 0.015027 0.114280 0.110633
v 0.000339 0.115565 0.110662
v -0.014661 0.114862 0.111029
v -0.029865 0.112398 0.110687
v -0.044768 0.107965 0.110715
v -0.058903 0.101632 0.110877
v -0.072335 0.093459 0.110975
v -0.084458 0.083636 0.111064
v -0.094932 0.072656 0.110938
v -0.103739 0.062100 0.109173
v -0.110373 0.054341 0.105040
v -0.115116 0.049847 0.099123
v -0.118981 0.047702 0.090978
v -0.121629 0.048133 0.081947
v -0.124006 0.050788 0.069099
v -0.125039 0.054718 0.058767
v -0.125747 0.059580 0.046614
v -0.125933 0.066334 0.032802
v 0.014797 0.112445 0.120319
v 0.000230 0.113718 0.120383
v -0.014626 0.112909 0.120503
v -0.029545 0.110280 0.120531
v -0.043873 0.105831 0.120582
v -0.057462 0.099273 0.120644
v -0.070247 0.091145 0.120718
v -0.081945 0.081599 0.120722
v -0.091977 0.070835 0.120384
v -0.100882 0.059001 0.119047
v -0.109675 0.045598 0.115416
v -0.113858 0.029496 0.117780
v -0.116160 0.014855 0.118632
v 0.015041 0.114748 0.106746
v 0.015015 0.114711 0.099512
v 0.014863 0.114178 0.096598
v 0.014596 0.111890 0.091058
v 0.000398 0.116046 0.106547
v -0.014812 0.115473 0.106550
v -0.030100 0.113005 0.106839
v -0.045149 0.108500 0.106748
v -0.059598 0.102104 0.106750
v -0.073122 0.093911 0.106760
v -0.084989 0.084393 0.106680
v -0.095357 0.073697 0.106730
v -0.103595 0.063814 0.105084
v -0.109656 0.056755 0.101550
v -0.113621 0.052970 0.096806
v -0.116997 0.051100 0.090020
v -0.119096 0.051742 0.081895
v -0.121779 0.054466 0.069689
v -0.122936 0.057975 0.059957
v -0.123742 0.062931 0.048133
v -0.124194 0.068684 0.034443
v -0.125889 0.058332 0.045689
v -0.125875 0.048469 0.056469
v -0.126059 0.038365 0.063702
v -0.126327 0.025161 0.070787
v -0.125675 0.015257 0.082130
v -0.116515 0.040579 0.103638
v -0.118873 0.027848 0.105794
v -0.120426 0.014258 0.106795
v -0.120813 0.038253 0.092923
v -0.122535 0.026643 0.094128
v -0.123548 0.014054 0.094553
v -0.124084 0.000000 0.094648
v -0.123547 0.037715 0.082309
v -0.124935 0.026190 0.082452
v -0.125211 0.038017 0.071507
v -0.124022 0.073098 0.022702
v -0.124337 0.075842 0.008385
v -0.124160 0.075956 -0.008981
v -0.123923 0.072323 -0.025558
v -0.124118 0.064632 -0.041112
v -0.124270 0.053929 -0.054278
v -0.124337 0.040303 -0.065003
v -0.124071 0.024698 -0.072628
v -0.124182 0.011966 -0.075642
v -0.124221 0.000000 -0.076596
v -0.125888 0.000000 -0.074414
v -0.125832 0.011534 -0.073641
v -0.125836 0.023953 -0.070644
v -0.125821 0.039168 -0.063561
v -0.125851 0.052339 -0.053001
v -0.125829 0.063106 -0.039703
v -0.125778 0.070409 -0.024842
v -0.125815 0.074082 -0.008304
v -0.125834 0.073961 0.008304
v -0.125899 0.070809 0.022143
v 0.000413 0.115998 0.099594
v 0.000452 0.115390 0.096499
v 0.000586 0.113136 0.090967
v -0.014843 0.115425 0.099593
v -0.030036 0.112920 0.099601
v -0.045117 0.108484 0.099681
v -0.059869 0.101922 0.099679
v -0.073425 0.093706 0.099766
v -0.085141 0.084230 0.099549
v -0.095394 0.073609 0.099568
v -0.094900 0.072619 0.096601
v -0.084860 0.083167 0.096443
v -0.073212 0.092700 0.096459
v -0.059478 0.101368 0.096466
v -0.044736 0.107940 0.096557
v -0.029693 0.112369 0.096576
v -0.014691 0.114917 0.096591
v -0.014084 0.112694 0.091099
v -0.028618 0.110393 0.091141
v -0.043770 0.105840 0.091187
v -0.058102 0.099281 0.091189
v -0.072044 0.090026 0.091123
v -0.083328 0.079634 0.091000
v -0.092557 0.068739 0.090899
v -0.102353 0.065146 0.099258
v -0.101190 0.065086 0.096348
v -0.096659 0.063243 0.090006
v -0.109678 0.056691 0.095378
v -0.108065 0.057174 0.092834
v -0.101247 0.057614 0.086284
v -0.115450 0.053109 0.086054
v -0.112882 0.054257 0.084905
v -0.103663 0.055954 0.080553
v -0.118769 0.056523 0.070163
v -0.119656 0.060308 0.060379
v -0.120181 0.065233 0.048989
v -0.120555 0.071019 0.035498
v -0.120543 0.075301 0.023893
v -0.120437 0.078416 0.008686
v -0.120064 0.078785 -0.008959
v -0.120433 0.074649 -0.026296
v -0.120496 0.066786 -0.042341
v -0.120260 0.056884 -0.055210
v -0.120217 0.043063 -0.066582
v -0.120423 0.026050 -0.074779
v -0.120458 0.012616 -0.078239
v -0.120596 0.000000 -0.079158
v -0.115968 0.057474 0.069956
v -0.105667 0.058227 0.069027
v -0.116649 0.061245 0.060476
v -0.106057 0.061495 0.060475
v -0.106199 0.066692 0.048727
v -0.117110 0.066180 0.049163
v -0.117210 0.072149 0.035571
v -0.105928 0.072247 0.036177
v -0.105722 0.076476 0.024854
v -0.117494 0.076157 0.024562
v -0.117714 0.079310 0.008953
v -0.105843 0.079840 0.009369
v -0.105834 0.079965 -0.008847
v -0.117523 0.079520 -0.008757
v -0.117411 0.075471 -0.026796
v -0.105507 0.075691 -0.027356
v -0.105579 0.067779 -0.043358
v -0.117799 0.067565 -0.043002
v -0.117433 0.057664 -0.055610
v -0.105570 0.057878 -0.056032
v -0.105591 0.043666 -0.067676
v -0.117462 0.043859 -0.067145
v -0.117528 0.026405 -0.075553
v -0.105498 0.026663 -0.076014
v -0.105542 0.013751 -0.079432
v -0.117598 0.013016 -0.079057
v -0.117398 0.000000 -0.080230
v -0.105242 0.000000 -0.080599
v 0.103179 0.027668 0.131497
v 0.092564 0.053553 0.131482
v 0.075397 0.075406 0.131487
v 0.052975 0.092033 0.131499
v 0.027438 0.102616 0.131475
v 0.000052 0.106297 0.131479
v -0.027545 0.102581 0.131483
v -0.053294 0.092089 0.131491
v -0.075426 0.075208 0.131489
v -0.092453 0.053330 0.131479
v -0.103117 0.027612 0.131478
v 0.040514 0.098122 0.131499
v 0.064257 0.084843 0.131499
v 0.084518 0.065414 0.131488
v 0.098539 0.041409 0.131498
v 0.105822 0.014162 0.131490
v 0.013471 0.105247 0.131499
v -0.013613 0.105317 0.131499
v -0.040711 0.098096 0.131497
v -0.064791 0.084497 0.131474
v -0.084283 0.065296 0.131491
v -0.098590 0.040771 0.131500
v -0.105678 0.014608 0.131490
v 0.103179 0.027668 0.135648
v 0.092564 0.053553 0.135632
v 0.075397 0.075406 0.135637
v 0.052975 0.092033 0.135649
v 0.027438 0.102616 0.135625
v 0.000052 0.106297 0.135630
v -0.027545 0.102581 0.135633
v -0.053294 0.092089 0.135641
v -0.075426 0.075208 0.135640
v -0.092453 0.053330 0.135630
v -0.103117 0.027612 0.135629
v 0.040514 0.098122 0.135649
v 0.064257 0.084843 0.135649
v 0.084518 0.065414 0.135638
v 0.098539 0.041409 0.135648
v 0.105822 0.014162 0.135641
v 0.013471 0.105247 0.135649
v -0.013613 0.105317 0.135649
v -0.040711 0.098096 0.135647
v -0.064791 0.084497 0.135624
v -0.084283 0.065296 0.135642
v -0.098590 0.040771 0.135650
v -0.105678 0.014608 0.135641
v 0.098138 0.048781 0.127668
v -0.035020 0.102884 0.127763
v -0.060530 0.090505 0.127777
v -0.077395 0.077138 0.127741
v -0.105814 0.028330 0.127745
v -0.109727 0.000000 0.127757
v 0.036758 0.105757 0.098746
v 0.029103 0.105330 0.092376
v 0.117598 0.034746 -0.043914
v 0.119003 0.015860 -0.046133
v 0.034794 0.102744 0.127794
v 0.060160 0.090682 0.127769
v 0.082064 0.072274 0.127722
v 0.107333 0.021539 0.127679
v 0.006952 0.108353 0.127824
v -0.013969 0.107940 0.127801
v -0.090648 0.060895 0.127727
v -0.101269 0.041981 0.127700
v -0.108490 0.014962 0.127744
v 0.115597 0.022138 0.108993
v 0.109176 0.052294 0.105674
v 0.118448 0.050417 0.084848
v 0.122860 0.021865 0.086745
v 0.120074 0.045968 0.046688
v 0.123714 0.019903 0.047320
v 0.121251 0.016939 -0.007961
v 0.118875 0.038905 -0.010071
v 0.064488 0.096265 0.097405
v 0.086329 0.088042 0.091493
v 0.097317 0.084053 0.082298
v 0.105823 0.077883 0.043783
v 0.106135 0.068298 -0.021511
v 0.105203 0.040932 -0.062199
v 0.102402 0.082058 0.073783
v 0.104851 0.017151 -0.065149
v 0.091429 0.000000 -0.067252
v 0.091591 0.023520 -0.066656
v 0.091677 0.068262 -0.033276
v 0.091853 0.071787 -0.013299
v 0.089754 0.080911 0.047047
v 0.085810 0.083809 0.061248
v 0.081306 0.086100 0.068919
v 0.043127 0.101412 0.091375
v 0.076577 0.088459 0.075454
v -0.120641 0.054571 0.058381
v -0.121345 0.059540 0.046514
v -0.122500 0.064468 0.031946
v 0.007369 0.111180 0.098815
v -0.119574 0.050801 0.068393
v -0.121906 0.058047 0.045463
v -0.122107 0.037959 0.063237
v -0.122371 0.024821 0.070303
v -0.122125 0.000000 0.081415
v -0.114987 0.038528 0.096997
v -0.118133 0.013839 0.099667
v -0.116922 0.026626 0.098831
v -0.118682 0.000000 0.099833
v -0.119667 0.037164 0.081512
v -0.121005 0.025802 0.081815
v -0.121266 0.037624 0.070969
v -0.122711 0.071477 0.008027
v -0.122784 0.071485 -0.008049
v -0.122715 0.011142 -0.071165
v -0.122760 0.023105 -0.068232
v -0.122719 0.037853 -0.061405
v -0.122698 0.050616 -0.051242
v -0.122762 0.060920 -0.038356
v -0.122813 0.067871 -0.023965
v -0.122747 0.068444 0.021451
v 0.000481 0.109434 0.092479
v -0.014371 0.111277 0.098824
v -0.036281 0.106697 0.098898
v -0.064466 0.094153 0.099034
v -0.095691 0.066566 0.099147
v -0.082440 0.080919 0.099167
v -0.042485 0.102393 0.092756
v -0.069869 0.087228 0.092978
v -0.080925 0.077269 0.093152
v -0.090157 0.066590 0.093271
v -0.094460 0.060737 0.092217
v -0.109603 0.051903 0.089899
v -0.099729 0.054153 0.087593
v -0.117834 0.075120 0.008426
v -0.117648 0.075380 -0.008462
v -0.117719 0.071502 -0.025292
v -0.117668 0.054551 -0.052786
v -0.117625 0.041418 -0.063695
v -0.117805 0.024915 -0.071615
v -0.116142 0.053452 0.068801
v -0.105486 0.054405 0.067864
v -0.116961 0.057316 0.058922
v -0.106094 0.063032 0.047116
v -0.117451 0.062261 0.047536
v -0.117657 0.068096 0.034126
v -0.105808 0.068542 0.034674
v -0.105575 0.072636 0.023743
v -0.117778 0.072115 0.023193
v -0.105381 0.071928 -0.026005
v -0.117848 0.064004 -0.040686
v -0.105430 0.055013 -0.053244
v -0.105467 0.041523 -0.064302
v -0.105322 0.025267 -0.072270
v -0.105383 0.013054 -0.075497
v -0.117817 0.012182 -0.074932
v 0.099313 0.026642 0.135648
v 0.089106 0.051542 0.135632
v 0.072621 0.072526 0.135637
v 0.051019 0.088544 0.135649
v 0.026415 0.098749 0.135625
v 0.000039 0.102297 0.135630
v -0.026512 0.098716 0.135633
v -0.051326 0.088606 0.135641
v -0.072613 0.072364 0.135640
v -0.088995 0.051319 0.135630
v -0.099254 0.026572 0.135629
v 0.038983 0.094426 0.135649
v 0.061884 0.081622 0.135649
v 0.081378 0.062937 0.135638
v 0.094841 0.039883 0.135648
v 0.101854 0.013657 0.135641
v 0.012944 0.101282 0.135649
v -0.013084 0.101352 0.135649
v -0.039201 0.094391 0.135647
v -0.062368 0.081315 0.135624
v -0.081133 0.062830 0.135642
v -0.094895 0.039239 0.135650
v -0.101717 0.014049 0.135641
v 0.091664 0.011502 -0.067163
v 0.091777 0.035767 -0.065407
v 0.091900 0.048944 -0.061708
v 0.091617 0.058915 -0.055398
v 0.091568 0.065147 -0.045239
v 0.091783 0.074750 0.005554
v 0.091654 0.078123 0.029327
v 0.056352 0.096753 0.088079
v 0.067434 0.092422 0.082943
v 0.014087 0.108232 0.092594
v -0.013741 0.109013 0.092627
v -0.027790 0.106775 0.092633
v -0.056365 0.096101 0.092884
v -0.103004 0.052012 0.080411
v -0.105969 0.057797 0.058951
v -0.105655 0.075871 0.008914
v -0.105687 0.075991 -0.008411
v -0.105454 0.064398 -0.041224
v -0.121921 0.048085 0.056005
v -0.121735 0.015045 0.081471
f 22 74 75
f 75 5 22
f 101 102 74
f 74 22 101
f 75 74 23
f 23 4 75
f 102 103 23
f 23 74 102
f 64 33 103
f 103 102 64
f 23 76 77
f 77 4 23
f 3 77 76
f 76 26 3
f 26 76 104
f 104 108 26
f 103 104 76
f 76 23 103
f 33 66 104
f 104 103 33
f 108 104 66
f 66 34 108
f 2 25 80
f 80 81 2
f 80 25 106
f 106 105 80
f 2 79 78
f 78 25 2
f 25 78 107
f 107 106 25
f 26 78 79
f 79 3 26
f 108 107 78
f 78 26 108
f 80 24 1
f 1 81 80
f 105 674 24
f 24 80 105
f 102 101 32
f 32 64 102
f 21 73 72
f 72 6 21
f 72 73 22
f 22 5 72
f 101 110 62
f 62 32 101
f 22 73 110
f 110 101 22
f 68 96 108
f 108 34 68
f 96 97 107
f 107 108 96
f 97 98 106
f 106 107 97
f 98 99 105
f 105 106 98
f 99 100 674
f 674 105 99
f 100 99 119
f 119 120 100
f 99 98 118
f 118 119 99
f 98 97 117
f 117 118 98
f 35 116 96
f 96 68 35
f 97 96 116
f 116 117 97
f 70 111 116
f 116 35 70
f 111 112 117
f 117 116 111
f 112 113 118
f 118 117 112
f 113 114 119
f 119 118 113
f 120 119 114
f 114 115 120
f 115 114 124
f 124 125 115
f 114 113 123
f 123 124 114
f 113 112 122
f 122 123 113
f 111 121 122
f 122 112 111
f 70 36 121
f 121 111 70
f 37 126 121
f 121 36 37
f 126 127 122
f 122 121 126
f 127 128 123
f 123 122 127
f 128 129 124
f 124 123 128
f 125 124 129
f 129 130 125
f 61 622 607
f 607 60 61
f 41 136 42
f 42 54 41
f 38 131 126
f 126 37 38
f 131 132 127
f 127 126 131
f 132 133 128
f 128 127 132
f 133 134 129
f 129 128 133
f 134 135 130
f 130 129 134
f 135 134 147
f 147 146 135
f 134 133 148
f 148 147 134
f 133 132 149
f 149 148 133
f 132 131 150
f 150 149 132
f 39 150 131
f 131 38 39
f 136 141 57
f 57 42 136
f 39 57 141
f 141 150 39
f 41 59 137
f 137 136 41
f 136 137 142
f 142 141 136
f 141 142 149
f 149 150 141
f 59 40 138
f 138 137 59
f 137 138 143
f 143 142 137
f 142 143 148
f 148 149 142
f 40 60 139
f 139 138 40
f 138 139 144
f 144 143 138
f 140 139 60
f 60 607 140
f 145 144 139
f 139 140 145
f 143 144 147
f 147 148 143
f 146 147 144
f 144 145 146
f 62 63 43
f 43 32 62
f 43 65 64
f 64 32 43
f 64 65 44
f 44 33 64
f 44 67 66
f 66 33 44
f 68 34 45
f 45 69 68
f 66 67 45
f 45 34 66
f 60 40 53
f 53 61 60
f 40 59 58
f 58 53 40
f 59 41 52
f 52 58 59
f 54 55 52
f 52 41 54
f 54 42 51
f 51 55 54
f 42 57 56
f 56 51 42
f 57 39 50
f 50 56 57
f 39 38 49
f 49 50 39
f 38 37 48
f 48 49 38
f 37 36 47
f 47 48 37
f 70 71 47
f 47 36 70
f 70 35 46
f 46 71 70
f 68 69 46
f 46 35 68
f 622 61 170
f 170 623 622
f 61 53 169
f 169 170 61
f 53 58 168
f 168 169 53
f 58 52 167
f 167 168 58
f 52 55 166
f 166 167 52
f 55 51 165
f 165 166 55
f 51 56 164
f 164 165 51
f 56 50 163
f 163 164 56
f 50 49 162
f 162 163 50
f 49 48 161
f 161 162 49
f 48 47 160
f 160 161 48
f 47 71 159
f 159 160 47
f 71 46 158
f 158 159 71
f 69 157 158
f 158 46 69
f 69 45 156
f 156 157 69
f 45 67 155
f 155 156 45
f 67 44 154
f 154 155 67
f 44 65 153
f 153 154 44
f 65 43 152
f 152 153 65
f 43 63 151
f 151 152 43
f 623 170 190
f 190 753 623
f 171 172 152
f 152 151 171
f 204 205 172
f 172 171 204
f 172 173 153
f 153 152 172
f 205 206 173
f 173 172 205
f 173 174 154
f 154 153 173
f 179 180 160
f 160 159 179
f 180 181 161
f 161 160 180
f 201 200 181
f 181 180 201
f 181 182 162
f 162 161 181
f 200 199 182
f 182 181 200
f 182 183 163
f 163 162 182
f 199 198 183
f 183 182 199
f 183 184 164
f 164 163 183
f 198 197 184
f 184 183 198
f 184 185 165
f 165 164 184
f 197 196 185
f 185 184 197
f 185 186 166
f 166 165 185
f 196 195 186
f 186 185 196
f 186 187 167
f 167 166 186
f 195 194 187
f 187 186 195
f 187 188 168
f 168 167 187
f 194 193 188
f 188 187 194
f 188 189 169
f 169 168 188
f 193 192 189
f 189 188 193
f 170 169 189
f 189 190 170
f 190 191 754
f 754 753 190
f 189 192 191
f 191 190 189
f 174 175 155
f 155 154 174
f 156 155 175
f 175 176 156
f 159 158 178
f 178 179 159
f 180 179 202
f 202 201 180
f 176 177 157
f 157 156 176
f 158 157 177
f 177 178 158
f 179 178 202
f 175 207 203
f 203 176 175
f 177 176 203
f 177 203 202
f 202 178 177
f 206 207 174
f 174 173 206
f 175 174 207
f 21 109 110
f 110 73 21
f 62 110 109
f 109 27 62
f 95 94 15
f 15 12 95
f 13 14 94
f 94 95 13
f 15 92 93
f 93 12 15
f 93 92 16
f 16 11 93
f 16 90 91
f 91 11 16
f 91 90 17
f 17 10 91
f 17 88 89
f 89 10 17
f 89 88 18
f 18 9 89
f 18 86 87
f 87 9 18
f 87 86 19
f 19 8 87
f 19 84 85
f 85 8 19
f 85 84 20
f 20 7 85
f 20 82 83
f 83 7 20
f 6 83 82
f 82 21 6
f 21 82 226
f 226 109 21
f 82 20 227
f 227 226 82
f 20 84 228
f 228 227 20
f 84 19 229
f 229 228 84
f 19 86 230
f 230 229 19
f 86 18 231
f 231 230 86
f 18 88 232
f 232 231 18
f 88 17 233
f 233 232 88
f 17 90 234
f 234 233 17
f 90 16 235
f 235 234 90
f 16 92 236
f 236 235 16
f 109 226 208
f 208 27 109
f 171 151 29
f 29 30 171
f 204 171 30
f 30 31 204
f 27 28 63
f 63 62 27
f 151 63 28
f 28 29 151
f 208 240 28
f 28 27 208
f 92 15 237
f 237 236 92
f 15 94 238
f 238 237 15
f 239 238 94
f 94 14 239
f 236 237 268
f 268 267 236
f 237 238 269
f 269 268 237
f 239 270 269
f 269 238 239
f 269 270 835
f 835 273 269
f 266 265 273
f 273 835 266
f 267 268 272
f 272 271 267
f 273 272 268
f 268 269 273
f 275 265 264
f 265 275 272
f 272 273 265
f 275 274 271
f 271 272 275
f 276 264 263
f 264 276 274
f 274 275 264
f 263 262 222
f 222 276 263
f 218 217 235
f 235 236 218
f 217 216 234
f 234 235 217
f 216 215 233
f 233 234 216
f 215 214 232
f 232 233 215
f 214 213 231
f 231 232 214
f 213 212 230
f 230 231 213
f 212 211 229
f 229 230 212
f 211 210 228
f 228 229 211
f 226 227 209
f 209 208 226
f 210 209 227
f 227 228 210
f 236 267 219
f 219 218 236
f 267 271 220
f 220 219 267
f 271 274 221
f 221 220 271
f 274 276 222
f 222 221 274
f 223 222 262
f 262 261 224
f 224 223 262
f 261 225 224
f 240 241 29
f 29 28 240
f 241 242 30
f 30 29 241
f 242 243 31
f 31 30 242
f 208 209 244
f 244 240 208
f 240 244 295
f 295 241 240
f 295 296 242
f 242 241 295
f 242 296 297
f 297 243 242
f 251 250 215
f 215 216 251
f 317 316 307
f 307 306 317
f 250 249 214
f 214 215 250
f 303 302 249
f 249 250 303
f 306 307 302
f 302 303 306
f 249 248 213
f 213 214 249
f 302 301 248
f 248 249 302
f 316 315 308
f 308 307 316
f 307 308 301
f 301 302 307
f 315 314 309
f 309 308 315
f 248 247 212
f 212 213 248
f 301 300 247
f 247 248 301
f 308 309 300
f 300 301 308
f 247 246 211
f 211 212 247
f 309 310 299
f 299 300 309
f 300 299 246
f 246 247 300
f 314 313 310
f 310 309 314
f 209 210 245
f 245 244 209
f 244 245 298
f 298 295 244
f 246 245 210
f 210 211 246
f 299 298 245
f 245 246 299
f 313 312 311
f 311 310 313
f 310 311 298
f 298 299 310
f 295 298 311
f 311 296 295
f 296 311 312
f 312 297 296
f 216 217 252
f 252 251 216
f 217 218 253
f 253 252 217
f 218 219 254
f 254 253 218
f 219 220 255
f 255 254 219
f 220 221 256
f 256 255 220
f 325 255 256
f 322 253 254
f 250 251 304
f 304 303 250
f 252 319 304
f 304 251 252
f 253 322 319
f 319 252 253
f 304 305 306
f 306 303 304
f 319 320 305
f 305 304 319
f 322 323 320
f 320 319 322
f 306 305 318
f 318 317 306
f 320 321 318
f 318 305 320
f 323 324 321
f 321 320 323
f 255 325 322
f 322 254 255
f 278 277 294
f 294 293 278
f 294 277 260
f 260 225 294
f 260 259 224
f 224 225 260
f 259 258 223
f 223 224 259
f 221 222 257
f 257 256 221
f 258 257 222
f 222 223 258
f 848 285 286
f 286 849 848
f 285 284 287
f 287 286 285
f 284 283 288
f 288 287 284
f 283 282 289
f 289 288 283
f 282 281 290
f 290 289 282
f 281 280 291
f 291 290 281
f 293 292 279
f 279 278 293
f 280 279 292
f 292 291 280
f 256 257 328
f 328 325 256
f 325 326 323
f 323 322 325
f 326 327 324
f 324 323 326
f 257 258 329
f 329 328 257
f 328 341 326
f 326 325 328
f 326 341 342
f 342 327 326
f 258 259 330
f 330 329 258
f 329 343 341
f 341 328 329
f 342 341 343
f 343 344 342
f 330 346 343
f 343 329 330
f 905 340 285
f 285 848 905
f 340 339 284
f 284 285 340
f 340 366 363
f 363 339 340
f 932 366 340
f 340 905 932
f 932 933 365
f 365 366 932
f 366 365 364
f 364 363 366
f 339 338 283
f 283 284 339
f 361 362 363
f 363 364 361
f 363 362 338
f 338 339 363
f 338 337 282
f 282 283 338
f 362 359 337
f 337 338 362
f 337 336 281
f 281 282 337
f 362 361 360
f 360 359 362
f 336 335 280
f 280 281 336
f 336 358 355
f 355 335 336
f 357 358 359
f 359 360 357
f 359 358 336
f 336 337 359
f 335 334 279
f 279 280 335
f 358 357 356
f 356 355 358
f 353 354 355
f 355 356 353
f 355 354 334
f 334 335 355
f 279 334 333
f 333 278 279
f 354 351 333
f 333 334 354
f 333 332 277
f 277 278 333
f 259 260 331
f 331 330 259
f 332 331 260
f 260 277 332
f 330 331 347
f 347 346 330
f 332 350 347
f 347 331 332
f 351 350 332
f 332 333 351
f 351 352 349
f 349 350 351
f 354 353 352
f 352 351 354
f 343 346 345
f 345 344 343
f 347 348 345
f 345 346 347
f 350 349 348
f 348 347 350
f 381 371 5
f 5 75 381
f 370 381 75
f 75 4 370
f 382 370 4
f 4 77 382
f 369 382 77
f 77 3 369
f 384 368 2
f 2 81 384
f 368 383 79
f 79 2 368
f 383 369 3
f 3 79 383
f 367 384 81
f 81 1 367
f 380 372 6
f 6 72 380
f 371 380 72
f 72 5 371
f 378 391 95
f 95 12 378
f 391 379 13
f 13 95 391
f 390 378 12
f 12 93 390
f 377 390 93
f 93 11 377
f 389 377 11
f 11 91 389
f 376 389 91
f 91 10 376
f 388 376 10
f 10 89 388
f 375 388 89
f 89 9 375
f 387 375 9
f 9 87 387
f 374 387 87
f 87 8 374
f 386 374 8
f 8 85 386
f 373 386 85
f 85 7 373
f 385 373 7
f 7 83 385
f 372 385 83
f 83 6 372
f 406 396 371
f 371 381 406
f 395 406 381
f 381 370 395
f 407 395 370
f 370 382 407
f 394 407 382
f 382 369 394
f 409 393 368
f 368 384 409
f 393 408 383
f 383 368 393
f 408 394 369
f 369 383 408
f 392 409 384
f 384 367 392
f 405 397 372
f 372 380 405
f 396 405 380
f 380 371 396
f 403 416 391
f 391 378 403
f 416 404 379
f 379 391 416
f 415 403 378
f 378 390 415
f 402 415 390
f 390 377 402
f 414 402 377
f 377 389 414
f 401 414 389
f 389 376 401
f 413 401 376
f 376 388 413
f 400 413 388
f 388 375 400
f 412 400 375
f 375 387 412
f 399 412 387
f 387 374 399
f 411 399 374
f 374 386 411
f 398 411 386
f 386 373 398
f 410 398 373
f 373 385 410
f 397 410 385
f 385 372 397
f 431 451 450
f 450 430 431
f 440 452 451
f 418 440 451
f 418 451 431
f 440 418 432
f 432 439 440
f 417 438 439
f 439 432 417
f 450 423 429
f 429 430 450
f 443 439 438
f 438 444 443
f 442 440 439
f 439 443 442
f 452 440 442
f 442 456 452
f 453 456 442
f 442 445 453
f 443 446 445
f 445 442 443
f 446 443 444
f 444 441 446
f 427 454 449
f 453 445 449
f 449 454 453
f 446 448 449
f 449 445 446
f 441 447 448
f 448 446 441
f 448 428 427
f 427 449 448
f 428 448 447
f 447 425 428
f 457 428 425
f 425 426 457
f 455 427 428
f 428 457 455
f 427 455 454
f 450 558 464
f 464 423 450
f 558 450 559
f 461 453 557
f 454 556 557
f 557 453 454
f 556 454 460
f 460 454 459
f 459 454 555
f 555 454 455
f 455 553 555
f 553 455 552
f 457 458 552
f 552 455 457
f 1015 551 457
f 457 426 1015
f 457 551 458
f 453 461 462
f 462 456 453
f 463 465 451
f 451 452 463
f 462 463 452
f 452 456 462
f 451 465 559
f 559 450 451
f 429 423 469
f 469 433 429
f 433 469 491
f 491 434 433
f 434 491 492
f 492 419 434
f 419 492 493
f 493 420 419
f 420 493 495
f 495 421 420
f 421 495 494
f 494 435 421
f 464 424 423
f 436 474 476
f 476 422 436
f 422 476 475
f 475 437 422
f 985 437 475
f 475 1036 985
f 475 571 1032
f 1032 1036 475
f 473 571 478
f 476 478 571
f 571 475 476
f 474 477 478
f 478 476 474
f 472 473 479
f 477 479 473
f 473 478 477
f 470 570 472
f 472 479 470
f 436 501 474
f 474 501 477
f 477 501 470
f 470 479 477
f 570 470 466
f 467 471 570
f 570 466 467
f 467 468 471
f 424 560 469
f 469 423 424
f 469 560 490
f 493 497 498
f 498 495 493
f 497 493 563
f 492 496 563
f 563 493 492
f 496 492 562
f 491 561 562
f 562 492 491
f 561 491 469
f 469 490 561
f 499 494 495
f 495 498 499
f 494 499 500
f 500 502 501
f 501 494 500
f 501 502 564
f 511 466 470
f 470 509 511
f 510 509 501
f 501 564 510
f 513 467 466
f 466 511 513
f 511 509 510
f 510 565 511
f 483 524 525
f 525 482 483
f 484 508 524
f 524 483 484
f 523 569 525
f 525 524 523
f 522 523 524
f 524 508 522
f 485 507 508
f 508 484 485
f 508 507 521
f 521 522 508
f 486 506 507
f 507 485 486
f 487 519 506
f 506 486 487
f 520 521 507
f 507 506 520
f 488 505 519
f 519 487 488
f 506 519 568
f 568 520 506
f 481 504 505
f 505 488 481
f 518 568 519
f 519 505 518
f 505 504 567
f 567 518 505
f 503 504 481
f 481 480 503
f 489 517 503
f 503 480 489
f 514 468 467
f 467 513 514
f 468 514 517
f 517 489 468
f 516 566 503
f 503 517 516
f 566 567 504
f 504 503 566
f 512 513 511
f 511 565 512
f 512 515 514
f 514 513 512
f 515 516 517
f 517 514 515
f 464 558 205
f 205 204 464
f 558 559 206
f 206 205 558
f 461 557 200
f 200 201 461
f 557 556 199
f 199 200 557
f 556 460 198
f 198 199 556
f 460 459 197
f 197 198 460
f 459 555 196
f 196 197 459
f 555 554 195
f 195 196 555
f 554 553 194
f 194 195 554
f 553 552 193
f 193 194 553
f 552 458 192
f 192 193 552
f 551 1015 754
f 754 191 551
f 458 551 191
f 191 192 458
f 462 461 201
f 201 202 462
f 465 463 203
f 203 207 465
f 463 462 202
f 202 203 463
f 559 465 207
f 207 206 559
f 424 464 204
f 204 31 424
f 1032 571 265
f 265 266 1032
f 571 473 264
f 264 265 571
f 473 472 263
f 263 264 473
f 472 570 262
f 262 263 472
f 570 471 261
f 261 262 570
f 471 468 225
f 225 261 471
f 560 424 31
f 31 243 560
f 490 560 243
f 243 297 490
f 498 497 316
f 316 317 498
f 497 563 315
f 315 316 497
f 563 496 314
f 314 315 563
f 496 562 313
f 313 314 496
f 562 561 312
f 312 313 562
f 561 490 297
f 297 312 561
f 499 498 317
f 317 318 499
f 500 499 318
f 318 321 500
f 502 500 321
f 321 324 502
f 489 480 293
f 293 294 489
f 468 489 294
f 294 225 468
f 483 482 849
f 849 286 483
f 484 483 286
f 286 287 484
f 485 484 287
f 287 288 485
f 486 485 288
f 288 289 486
f 487 486 289
f 289 290 487
f 488 487 290
f 290 291 488
f 480 481 292
f 292 293 480
f 481 488 291
f 291 292 481
f 564 502 324
f 324 327 564
f 510 564 327
f 327 342 510
f 565 510 342
f 342 344 565
f 569 523 365
f 365 933 569
f 523 522 364
f 364 365 523
f 522 521 361
f 361 364 522
f 521 520 360
f 360 361 521
f 520 568 357
f 357 360 520
f 568 518 356
f 356 357 568
f 518 567 353
f 353 356 518
f 566 516 349
f 349 352 566
f 567 566 352
f 352 353 567
f 512 565 344
f 344 345 512
f 515 512 345
f 345 348 515
f 516 515 348
f 348 349 516
f 540 530 396
f 396 406 540
f 529 540 406
f 406 395 529
f 541 529 395
f 395 407 541
f 528 541 407
f 407 394 528
f 543 527 393
f 393 409 543
f 527 542 408
f 408 393 527
f 542 528 394
f 394 408 542
f 526 543 409
f 409 392 526
f 539 531 397
f 397 405 539
f 530 539 405
f 405 396 530
f 537 550 416
f 416 403 537
f 550 538 404
f 404 416 550
f 549 537 403
f 403 415 549
f 536 549 415
f 415 402 536
f 548 536 402
f 402 414 548
f 535 548 414
f 414 401 535
f 547 535 401
f 401 413 547
f 534 547 413
f 413 400 534
f 546 534 400
f 400 412 546
f 533 546 412
f 412 399 533
f 545 533 399
f 399 411 545
f 532 545 411
f 411 398 532
f 544 532 398
f 398 410 544
f 531 544 410
f 410 397 531
f 501 509 470
f 435 494 501
f 501 436 435
f 590 575 645
f 645 644 590
f 670 590 644
f 644 671 670
f 645 574 591
f 591 644 645
f 671 644 591
f 591 672 671
f 634 671 672
f 672 600 634
f 591 574 647
f 647 646 591
f 573 593 646
f 646 647 573
f 593 678 673
f 673 646 593
f 672 591 646
f 646 673 672
f 600 672 673
f 673 636 600
f 678 601 636
f 636 673 678
f 572 651 650
f 650 592 572
f 650 675 676
f 676 592 650
f 572 592 648
f 648 649 572
f 592 676 677
f 677 648 592
f 593 573 649
f 649 648 593
f 678 593 648
f 648 677 678
f 650 651 1
f 1 24 650
f 675 650 24
f 24 674 675
f 671 634 599
f 599 670 671
f 589 576 642
f 642 643 589
f 642 575 590
f 590 643 642
f 670 599 632
f 632 680 670
f 590 670 680
f 680 643 590
f 638 601 678
f 678 666 638
f 666 678 677
f 677 667 666
f 667 677 676
f 676 668 667
f 668 676 675
f 675 669 668
f 669 675 674
f 674 100 669
f 100 120 688
f 688 669 100
f 669 688 687
f 687 668 669
f 668 687 686
f 686 667 668
f 602 638 666
f 666 685 602
f 667 686 685
f 685 666 667
f 640 602 685
f 685 681 640
f 681 685 686
f 686 682 681
f 682 686 687
f 687 683 682
f 683 687 688
f 688 684 683
f 120 115 684
f 684 688 120
f 115 125 692
f 692 684 115
f 684 692 691
f 691 683 684
f 683 691 690
f 690 682 683
f 681 682 690
f 690 689 681
f 640 681 689
f 689 603 640
f 604 603 689
f 689 693 604
f 693 689 690
f 690 694 693
f 694 690 691
f 691 695 694
f 695 691 692
f 692 696 695
f 125 130 696
f 696 692 125
f 631 630 607
f 607 622 631
f 609 624 610
f 610 701 609
f 605 604 693
f 693 697 605
f 697 693 694
f 694 698 697
f 698 694 695
f 695 699 698
f 699 695 696
f 696 700 699
f 700 696 130
f 130 135 700
f 135 146 709
f 709 700 135
f 700 709 710
f 710 699 700
f 699 710 711
f 711 698 699
f 698 711 712
f 712 697 698
f 606 605 697
f 697 712 606
f 701 610 627
f 627 705 701
f 606 712 705
f 705 627 606
f 609 701 702
f 702 629 609
f 701 705 706
f 706 702 701
f 705 712 711
f 711 706 705
f 629 702 703
f 703 608 629
f 702 706 707
f 707 703 702
f 706 711 710
f 710 707 706
f 608 703 704
f 704 630 608
f 703 707 708
f 708 704 703
f 140 607 630
f 630 704 140
f 145 140 704
f 704 708 145
f 707 710 709
f 709 708 707
f 146 145 708
f 708 709 146
f 632 599 611
f 611 633 632
f 611 599 634
f 634 635 611
f 634 600 612
f 612 635 634
f 612 600 636
f 636 637 612
f 638 639 613
f 613 601 638
f 636 601 613
f 613 637 636
f 630 631 621
f 621 608 630
f 608 621 628
f 628 629 608
f 629 628 620
f 620 609 629
f 624 609 620
f 620 625 624
f 624 625 619
f 619 610 624
f 610 619 626
f 626 627 610
f 627 626 618
f 618 606 627
f 606 618 617
f 617 605 606
f 605 617 616
f 616 604 605
f 604 616 615
f 615 603 604
f 640 603 615
f 615 641 640
f 640 641 614
f 614 602 640
f 638 602 614
f 614 639 638
f 622 623 732
f 732 631 622
f 631 732 731
f 731 621 631
f 621 731 730
f 730 628 621
f 628 730 729
f 729 620 628
f 620 729 728
f 728 625 620
f 625 728 727
f 727 619 625
f 619 727 726
f 726 626 619
f 626 726 725
f 725 618 626
f 618 725 724
f 724 617 618
f 617 724 723
f 723 616 617
f 616 723 722
f 722 615 616
f 615 722 721
f 721 641 615
f 641 721 720
f 720 614 641
f 639 614 720
f 720 719 639
f 639 719 718
f 718 613 639
f 613 718 717
f 717 637 613
f 637 717 716
f 716 612 637
f 612 716 715
f 715 635 612
f 635 715 714
f 714 611 635
f 611 714 713
f 713 633 611
f 623 753 752
f 752 732 623
f 733 713 714
f 714 734 733
f 768 733 734
f 734 769 768
f 734 714 715
f 715 735 734
f 769 734 735
f 735 770 769
f 735 715 716
f 716 736 735
f 741 721 722
f 722 742 741
f 742 722 723
f 723 743 742
f 765 742 743
f 743 764 765
f 743 723 724
f 724 744 743
f 764 743 744
f 744 763 764
f 744 724 725
f 725 745 744
f 763 744 745
f 745 762 763
f 745 725 726
f 726 746 745
f 762 745 746
f 746 761 762
f 746 726 727
f 727 747 746
f 761 746 747
f 747 760 761
f 747 727 728
f 728 748 747
f 760 747 748
f 748 759 760
f 748 728 729
f 729 749 748
f 759 748 749
f 749 758 759
f 749 729 730
f 730 750 749
f 758 749 750
f 750 757 758
f 750 730 731
f 731 751 750
f 757 750 751
f 751 756 757
f 732 752 751
f 751 731 732
f 752 753 754
f 754 755 752
f 751 752 755
f 755 756 751
f 736 716 717
f 717 737 736
f 718 738 737
f 737 717 718
f 721 741 740
f 740 720 721
f 742 765 766
f 766 741 742
f 738 718 719
f 719 739 738
f 720 740 739
f 739 719 720
f 741 766 740
f 737 738 767
f 767 771 737
f 739 767 738
f 739 740 766
f 766 767 739
f 770 735 736
f 736 771 770
f 737 771 736
f 589 643 680
f 680 679 589
f 632 594 679
f 679 680 632
f 665 582 583
f 583 664 665
f 13 665 664
f 664 14 13
f 583 582 663
f 663 662 583
f 663 581 584
f 584 662 663
f 584 581 661
f 661 660 584
f 661 580 585
f 585 660 661
f 585 580 659
f 659 658 585
f 659 579 586
f 586 658 659
f 586 579 657
f 657 656 586
f 657 578 587
f 587 656 657
f 587 578 655
f 655 654 587
f 655 577 588
f 588 654 655
f 588 577 653
f 653 652 588
f 576 589 652
f 652 653 576
f 589 679 790
f 790 652 589
f 652 790 791
f 791 588 652
f 588 791 792
f 792 654 588
f 654 792 793
f 793 587 654
f 587 793 794
f 794 656 587
f 656 794 795
f 795 586 656
f 586 795 796
f 796 658 586
f 658 796 797
f 797 585 658
f 585 797 798
f 798 660 585
f 660 798 799
f 799 584 660
f 584 799 800
f 800 662 584
f 679 594 772
f 772 790 679
f 733 597 596
f 596 713 733
f 768 598 597
f 597 733 768
f 594 632 633
f 633 595 594
f 713 596 595
f 595 633 713
f 772 594 595
f 595 803 772
f 662 800 801
f 801 583 662
f 583 801 802
f 802 664 583
f 239 14 664
f 664 802 239
f 800 829 830
f 830 801 800
f 801 830 831
f 831 802 801
f 239 802 831
f 831 270 239
f 831 834 835
f 835 270 831
f 266 835 834
f 834 828 266
f 829 832 833
f 833 830 829
f 834 831 830
f 830 833 834
f 837 827 828
f 828 834 833
f 833 837 828
f 837 833 832
f 832 836 837
f 838 826 827
f 827 837 836
f 836 838 827
f 826 838 786
f 786 825 826
f 782 800 799
f 799 781 782
f 781 799 798
f 798 780 781
f 780 798 797
f 797 779 780
f 779 797 796
f 796 778 779
f 778 796 795
f 795 777 778
f 777 795 794
f 794 776 777
f 776 794 793
f 793 775 776
f 775 793 792
f 792 774 775
f 790 772 773
f 773 791 790
f 774 792 791
f 791 773 774
f 800 782 783
f 783 829 800
f 829 783 784
f 784 832 829
f 832 784 785
f 785 836 832
f 836 785 786
f 786 838 836
f 787 825 786
f 825 787 788
f 788 824 825
f 824 788 789
f 803 595 596
f 596 804 803
f 804 596 597
f 597 805 804
f 805 597 598
f 598 806 805
f 772 803 807
f 807 773 772
f 803 804 859
f 859 807 803
f 859 804 805
f 805 860 859
f 805 806 861
f 861 860 805
f 814 780 779
f 779 813 814
f 881 870 871
f 871 880 881
f 813 779 778
f 778 812 813
f 867 813 812
f 812 866 867
f 870 867 866
f 866 871 870
f 812 778 777
f 777 811 812
f 866 812 811
f 811 865 866
f 880 871 872
f 872 879 880
f 871 866 865
f 865 872 871
f 879 872 873
f 873 878 879
f 811 777 776
f 776 810 811
f 865 811 810
f 810 864 865
f 872 865 864
f 864 873 872
f 810 776 775
f 775 809 810
f 873 864 863
f 863 874 873
f 864 810 809
f 809 863 864
f 878 873 874
f 874 877 878
f 773 807 808
f 808 774 773
f 807 859 862
f 862 808 807
f 809 775 774
f 774 808 809
f 863 809 808
f 808 862 863
f 877 874 875
f 875 876 877
f 874 863 862
f 862 875 874
f 859 860 875
f 875 862 859
f 860 861 876
f 876 875 860
f 780 814 815
f 815 781 780
f 781 815 816
f 816 782 781
f 782 816 817
f 817 783 782
f 783 817 818
f 818 784 783
f 784 818 819
f 819 785 784
f 889 819 818
f 886 817 816
f 813 867 868
f 868 814 813
f 815 814 868
f 868 883 815
f 816 815 883
f 883 886 816
f 868 867 870
f 870 869 868
f 883 868 869
f 869 884 883
f 886 883 884
f 884 887 886
f 870 881 882
f 882 869 870
f 884 869 882
f 882 885 884
f 887 884 885
f 885 888 887
f 818 817 886
f 886 889 818
f 840 857 858
f 858 839 840
f 858 789 823
f 823 839 858
f 823 789 788
f 788 822 823
f 822 788 787
f 787 821 822
f 785 819 820
f 820 786 785
f 821 787 786
f 786 820 821
f 848 849 850
f 850 847 848
f 847 850 851
f 851 846 847
f 846 851 852
f 852 845 846
f 845 852 853
f 853 844 845
f 844 853 854
f 854 843 844
f 843 854 855
f 855 842 843
f 857 840 841
f 841 856 857
f 842 855 856
f 856 841 842
f 819 889 892
f 892 820 819
f 889 886 887
f 887 890 889
f 890 887 888
f 888 891 890
f 820 892 893
f 893 821 820
f 892 889 890
f 890 906 892
f 890 891 907
f 907 906 890
f 821 893 894
f 894 822 821
f 893 892 906
f 906 908 893
f 907 909 908
f 908 906 907
f 894 893 908
f 908 911 894
f 905 848 847
f 847 904 905
f 904 847 846
f 846 903 904
f 904 903 928
f 928 931 904
f 932 905 904
f 904 931 932
f 932 931 930
f 930 933 932
f 931 928 929
f 929 930 931
f 903 846 845
f 845 902 903
f 926 929 928
f 928 927 926
f 928 903 902
f 902 927 928
f 902 845 844
f 844 901 902
f 927 902 901
f 901 924 927
f 901 844 843
f 843 900 901
f 927 924 925
f 925 926 927
f 900 843 842
f 842 899 900
f 900 899 920
f 920 923 900
f 922 925 924
f 924 923 922
f 924 901 900
f 900 923 924
f 899 842 841
f 841 898 899
f 923 920 921
f 921 922 923
f 918 921 920
f 920 919 918
f 920 899 898
f 898 919 920
f 841 840 897
f 897 898 841
f 919 898 897
f 897 916 919
f 897 840 839
f 839 896 897
f 822 894 895
f 895 823 822
f 896 839 823
f 823 895 896
f 894 911 912
f 912 895 894
f 896 895 912
f 912 915 896
f 916 897 896
f 896 915 916
f 916 915 914
f 914 917 916
f 919 916 917
f 917 918 919
f 908 909 910
f 910 911 908
f 912 911 910
f 910 913 912
f 915 912 913
f 913 914 915
f 946 645 575
f 575 937 946
f 936 574 645
f 645 946 936
f 947 647 574
f 574 936 947
f 935 573 647
f 647 947 935
f 949 651 572
f 572 934 949
f 934 572 649
f 649 948 934
f 948 649 573
f 573 935 948
f 367 1 651
f 651 949 367
f 945 642 576
f 576 938 945
f 937 575 642
f 642 945 937
f 944 582 665
f 665 956 944
f 956 665 13
f 13 379 956
f 955 663 582
f 582 944 955
f 943 581 663
f 663 955 943
f 954 661 581
f 581 943 954
f 942 580 661
f 661 954 942
f 953 659 580
f 580 942 953
f 941 579 659
f 659 953 941
f 952 657 579
f 579 941 952
f 940 578 657
f 657 952 940
f 951 655 578
f 578 940 951
f 939 577 655
f 655 951 939
f 950 653 577
f 577 939 950
f 938 576 653
f 653 950 938
f 969 946 937
f 937 960 969
f 959 936 946
f 946 969 959
f 970 947 936
f 936 959 970
f 958 935 947
f 947 970 958
f 972 949 934
f 934 957 972
f 957 934 948
f 948 971 957
f 971 948 935
f 935 958 971
f 392 367 949
f 949 972 392
f 968 945 938
f 938 961 968
f 960 937 945
f 945 968 960
f 967 944 956
f 956 979 967
f 979 956 379
f 379 404 979
f 978 955 944
f 944 967 978
f 966 943 955
f 955 978 966
f 977 954 943
f 943 966 977
f 965 942 954
f 954 977 965
f 976 953 942
f 942 965 976
f 964 941 953
f 953 976 964
f 975 952 941
f 941 964 975
f 963 940 952
f 952 975 963
f 974 951 940
f 940 963 974
f 962 939 951
f 951 974 962
f 973 950 939
f 939 962 973
f 961 938 950
f 950 973 961
f 992 991 1007
f 1007 1008 992
f 980 992 1008
f 1008 1009 1000
f 980 1008 1000
f 1000 999 993
f 993 980 1000
f 417 993 999
f 999 438 417
f 1007 991 990
f 990 986 1007
f 1002 444 438
f 438 999 1002
f 1001 1002 999
f 999 1000 1001
f 1009 1013 1001
f 1001 1000 1009
f 1010 1003 1001
f 1001 1013 1010
f 1002 1001 1003
f 1003 1004 1002
f 1004 441 444
f 444 1002 1004
f 988 1006 1011
f 1010 1011 1006
f 1006 1003 1010
f 1004 1003 1006
f 1006 1005 1004
f 441 1004 1005
f 1005 447 441
f 1005 1006 988
f 988 989 1005
f 989 425 447
f 447 1005 989
f 1014 426 425
f 425 989 1014
f 1012 1014 989
f 989 988 1012
f 988 1011 1012
f 1007 986 1022
f 1022 1114 1007
f 1114 1115 1007
f 1019 1113 1010
f 1011 1010 1113
f 1113 1112 1011
f 1112 1018 1011
f 1018 1017 1011
f 1017 1111 1011
f 1111 1109 1012
f 1012 1011 1111
f 1109 1108 1012
f 1014 1012 1108
f 1108 1016 1014
f 1015 426 1014
f 1014 1107 1015
f 1014 1016 1107
f 1010 1020 1019
f 1020 1010 1013
f 1021 1009 1008
f 1008 1023 1021
f 1020 1013 1009
f 1009 1021 1020
f 1008 1007 1115
f 1115 1023 1008
f 990 994 1027
f 1027 986 990
f 994 995 1050
f 1050 1027 994
f 995 981 1051
f 1051 1050 995
f 981 982 1052
f 1052 1051 981
f 982 983 1054
f 1054 1052 982
f 983 996 1053
f 1053 1054 983
f 1022 986 987
f 997 984 1035
f 1035 1033 997
f 984 998 1034
f 1034 1035 984
f 985 1036 1034
f 1034 998 985
f 1034 1036 1032
f 1032 1126 1034
f 1031 1038 1126
f 1035 1034 1126
f 1126 1038 1035
f 1033 1035 1038
f 1038 1037 1033
f 1030 1039 1031
f 1037 1038 1031
f 1031 1039 1037
f 1028 1039 1030
f 1030 1125 1028
f 997 1033 1060
f 1033 1037 1060
f 1037 1039 1028
f 1028 1060 1037
f 1125 1024 1028
f 1025 1024 1125
f 1125 1029 1025
f 1025 1029 1026
f 987 986 1027
f 1027 1116 987
f 1027 1049 1116
f 1052 1054 1057
f 1057 1056 1052
f 1056 1119 1052
f 1051 1052 1119
f 1119 1055 1051
f 1055 1118 1051
f 1050 1051 1118
f 1118 1117 1050
f 1117 1049 1027
f 1027 1050 1117
f 1058 1057 1054
f 1054 1053 1058
f 1053 1059 1058
f 1059 1053 1060
f 1060 1061 1059
f 1060 1120 1061
f 1070 1068 1028
f 1028 1024 1070
f 1069 1120 1060
f 1060 1068 1069
f 1072 1070 1024
f 1024 1025 1072
f 1070 1121 1069
f 1069 1068 1070
f 1042 482 525
f 525 1083 1042
f 1043 1042 1083
f 1083 1067 1043
f 1082 1083 525
f 525 569 1082
f 1081 1067 1083
f 1083 1082 1081
f 1044 1043 1067
f 1067 1066 1044
f 1067 1081 1080
f 1080 1066 1067
f 1045 1044 1066
f 1066 1065 1045
f 1046 1045 1065
f 1065 1078 1046
f 1079 1065 1066
f 1066 1080 1079
f 1047 1046 1078
f 1078 1064 1047
f 1065 1079 1124
f 1124 1078 1065
f 1041 1047 1064
f 1064 1063 1041
f 1077 1064 1078
f 1078 1124 1077
f 1064 1077 1123
f 1123 1063 1064
f 1062 1040 1041
f 1041 1063 1062
f 1048 1040 1062
f 1062 1076 1048
f 1073 1072 1025
f 1025 1026 1073
f 1026 1048 1076
f 1076 1073 1026
f 1075 1076 1062
f 1062 1122 1075
f 1122 1062 1063
f 1063 1123 1122
f 1071 1121 1070
f 1070 1072 1071
f 1071 1072 1073
f 1073 1074 1071
f 1074 1073 1076
f 1076 1075 1074
f 1022 768 769
f 769 1114 1022
f 1114 769 770
f 770 1115 1114
f 1019 765 764
f 764 1113 1019
f 1113 764 763
f 763 1112 1113
f 1112 763 762
f 762 1018 1112
f 1018 762 761
f 761 1017 1018
f 1017 761 760
f 760 1111 1017
f 1111 760 759
f 759 1110 1111
f 1110 759 758
f 758 1109 1110
f 1109 758 757
f 757 1108 1109
f 1108 757 756
f 756 1016 1108
f 1107 755 754
f 754 1015 1107
f 1016 756 755
f 755 1107 1016
f 1020 766 765
f 765 1019 1020
f 1023 771 767
f 767 1021 1023
f 1021 767 766
f 766 1020 1021
f 1115 770 771
f 771 1023 1115
f 987 598 768
f 768 1022 987
f 1032 266 828
f 828 1126 1032
f 1126 828 827
f 827 1031 1126
f 1031 827 826
f 826 1030 1031
f 1030 826 825
f 825 1125 1030
f 1125 825 824
f 824 1029 1125
f 1029 824 789
f 789 1026 1029
f 1116 806 598
f 598 987 1116
f 1049 861 806
f 806 1116 1049
f 1057 881 880
f 880 1056 1057
f 1056 880 879
f 879 1119 1056
f 1119 879 878
f 878 1055 1119
f 1055 878 877
f 877 1118 1055
f 1118 877 876
f 876 1117 1118
f 1117 876 861
f 861 1049 1117
f 1058 882 881
f 881 1057 1058
f 1059 885 882
f 882 1058 1059
f 1061 888 885
f 885 1059 1061
f 1048 858 857
f 857 1040 1048
f 1026 789 858
f 858 1048 1026
f 1042 850 849
f 849 482 1042
f 1043 851 850
f 850 1042 1043
f 1044 852 851
f 851 1043 1044
f 1045 853 852
f 852 1044 1045
f 1046 854 853
f 853 1045 1046
f 1047 855 854
f 854 1046 1047
f 1040 857 856
f 856 1041 1040
f 1041 856 855
f 855 1047 1041
f 1120 891 888
f 888 1061 1120
f 1069 907 891
f 891 1120 1069
f 1121 909 907
f 907 1069 1121
f 569 933 930
f 930 1082 569
f 1082 930 929
f 929 1081 1082
f 1081 929 926
f 926 1080 1081
f 1080 926 925
f 925 1079 1080
f 1079 925 922
f 922 1124 1079
f 1124 922 921
f 921 1077 1124
f 1077 921 918
f 918 1123 1077
f 1122 917 914
f 914 1075 1122
f 1123 918 917
f 917 1122 1123
f 1071 910 909
f 909 1121 1071
f 1074 913 910
f 910 1071 1074
f 1075 914 913
f 913 1074 1075
f 1096 969 960
f 960 1087 1096
f 1086 959 969
f 969 1096 1086
f 1097 970 959
f 959 1086 1097
f 1085 958 970
f 970 1097 1085
f 1099 972 957
f 957 1084 1099
f 1084 957 971
f 971 1098 1084
f 1098 971 958
f 958 1085 1098
f 526 392 972
f 972 1099 526
f 1095 968 961
f 961 1088 1095
f 1087 960 968
f 968 1095 1087
f 1094 967 979
f 979 1106 1094
f 1106 979 404
f 404 538 1106
f 1105 978 967
f 967 1094 1105
f 1093 966 978
f 978 1105 1093
f 1104 977 966
f 966 1093 1104
f 1092 965 977
f 977 1104 1092
f 1103 976 965
f 965 1092 1103
f 1091 964 976
f 976 1103 1091
f 1102 975 964
f 964 1091 1102
f 1090 963 975
f 975 1102 1090
f 1101 974 963
f 963 1090 1101
f 1089 962 974
f 974 1101 1089
f 1100 973 962
f 962 1089 1100
f 1088 961 973
f 973 1100 1088
f 1060 1028 1068
f 996 997 1060
f 1060 1053 996
f 529 541 528
f 528 542 527
f 527 543 526
f 528 527 526
f 526 1099 1084
f 1084 1098 1085
f 526 1084 1085
f 1085 1097 1086
f 1086 1096 1087
f 1085 1086 1087
f 526 1085 1087
f 1087 1095 1088
f 1088 1100 1089
f 1087 1088 1089
f 1089 1101 1090
f 1090 1102 1091
f 1089 1090 1091
f 1087 1089 1091
f 1091 1103 1092
f 1092 1104 1093
f 1091 1092 1093
f 1093 1105 1094
f 1094 1106 538
f 1093 1094 538
f 1091 1093 538
f 1087 1091 538
f 538 550 537
f 537 549 536
f 538 537 536
f 536 548 535
f 535 547 534
f 536 535 534
f 538 536 534
f 534 546 533
f 533 545 532
f 534 533 532
f 532 544 531
f 531 539 530
f 532 531 530
f 534 532 530
f 538 534 530
f 1087 538 530
f 526 1087 530
f 528 526 530
f 529 528 530
f 540 529 530
