v -0.039048 0.120876 0.310156
v -0.050623 0.120922 0.362051
v -0.053707 0.120845 0.379945
v -0.050792 0.120840 0.397675
v -0.042073 0.120783 0.413546
v -0.028705 0.120814 0.425449
v -0.011758 0.120868 0.431957
v 0.006116 0.120810 0.433412
v 0.023441 0.120833 0.428345
v 0.037893 0.120887 0.417993
v 0.048135 0.120885 0.403548
v 0.053833 0.120780 0.386399
v 0.065690 0.120849 0.334639
v 0.069167 0.120796 0.316532
v -0.034040 0.120685 0.291540
v -0.024071 0.120886 0.276591
v -0.010670 0.120968 0.266222
v 0.006622 0.120975 0.259813
v 0.028705 0.120857 0.260968
v 0.059695 0.120800 0.282100
v 0.067337 0.120776 0.297537
v 0.046840 0.120969 0.269712
v 0.046772 0.121000 0.384404
v 0.041772 0.121000 0.400179
v 0.033044 0.121000 0.413181
v 0.021245 0.121000 0.421749
v 0.005417 0.121000 0.426207
v -0.010352 0.121000 0.424856
v -0.025744 0.121000 0.418568
v -0.036641 0.121000 0.408336
v -0.044300 0.121000 0.394561
v -0.046494 0.121000 0.380206
v -0.044004 0.121000 0.363377
v -0.032052 0.121000 0.311517
v -0.027032 0.121000 0.293780
v -0.019007 0.121000 0.281228
v -0.007567 0.121000 0.272171
v 0.006956 0.121000 0.266895
v 0.026681 0.121000 0.268069
v 0.043105 0.121000 0.275037
v 0.053498 0.121000 0.285474
v 0.060148 0.121000 0.299434
v 0.061976 0.121000 0.317095
v 0.059013 0.121000 0.333179
v -0.009649 0.121000 0.421663
v 0.005236 0.121000 0.422567
v 0.020013 0.121000 0.418267
v 0.030739 0.121001 0.410610
v 0.038943 0.121001 0.398897
v 0.043660 0.121000 0.383867
v 0.055901 0.121000 0.332635
v 0.058328 0.121000 0.317238
v 0.056784 0.121001 0.300211
v 0.050287 0.121000 0.287105
v 0.041025 0.121000 0.277890
v 0.026142 0.121000 0.271332
v 0.007309 0.121000 0.270598
v -0.006067 0.121000 0.275491
v -0.016545 0.121001 0.283665
v -0.023985 0.121000 0.295268
v -0.029038 0.121000 0.312422
v -0.040850 0.121000 0.363971
v -0.043385 0.121000 0.380239
v -0.041349 0.121000 0.393535
v -0.034738 0.121000 0.406325
v -0.024513 0.121000 0.415733
v -0.065603 0.104395 0.358252
v 0.068063 0.104438 0.390412
v 0.080330 0.104503 0.338052
v -0.053719 0.104606 0.306812
v 0.061463 0.104363 0.410880
v 0.049126 0.104427 0.428169
v 0.028562 0.104441 0.442368
v 0.009282 0.104463 0.447951
v -0.015423 0.104231 0.446413
v -0.034845 0.104265 0.439040
v -0.053681 0.104399 0.422897
v -0.064995 0.104408 0.402218
v -0.068691 0.104332 0.379553
v -0.051602 0.104738 0.287929
v 0.084445 0.104374 0.317566
v 0.075635 0.114415 0.296195
v 0.086337 0.104132 0.295977
v 0.068185 0.117314 0.278080
v 0.085548 0.104478 0.273766
v 0.052781 0.118171 0.260393
v 0.031608 0.118468 0.251474
v 0.007164 0.118540 0.249485
v -0.014862 0.118312 0.256852
v -0.030902 0.117995 0.268406
v -0.040066 0.114039 0.280033
v 0.063812 0.117490 0.240317
v 0.070021 0.104552 0.019338
v 0.050763 0.117399 0.021056
v -0.047367 0.117462 0.029135
v -0.066926 0.104875 0.030496
v -0.059071 0.113003 0.029903
v 0.061261 0.113645 0.020521
v 0.060343 0.117303 0.173485
v 0.056089 0.117220 0.099588
v 0.065780 0.113315 0.098332
v 0.074960 0.104487 0.097568
v 0.070526 0.112651 0.173042
v 0.079644 0.103960 0.172348
v 0.073999 0.112687 0.239393
v 0.083551 0.104469 0.239211
v 0.076876 0.111923 0.276039
v 0.039542 0.117991 0.234340
v 0.009805 0.118113 0.232490
v -0.018216 0.117853 0.239701
v -0.034687 0.117058 0.253248
v -0.043985 0.111749 0.257334
v -0.052801 0.104951 0.258047
v -0.038108 0.117495 0.179803
v -0.042024 0.117501 0.106494
v -0.049365 0.112435 0.181185
v -0.054416 0.112291 0.108059
v -0.062334 0.104578 0.108169
v -0.057580 0.104962 0.182030
v 0.034868 0.117762 0.174620
v 0.009030 0.117896 0.174999
v -0.015479 0.117719 0.177669
v 0.005955 0.117621 0.102924
v 0.030800 0.117562 0.100990
v -0.018637 0.117560 0.104363
v 0.001871 0.117341 0.033332
v 0.026203 0.117417 0.029066
v -0.022535 0.117440 0.033553
v -0.003326 0.117006 -0.048294
v 0.013691 0.117035 -0.046878
v 0.030563 0.117147 -0.037871
v 0.042782 0.117300 -0.023323
v 0.048530 0.117435 0.000250
v -0.020605 0.117042 -0.044065
v -0.035698 0.117155 -0.033069
v -0.046395 0.117275 -0.015442
v -0.048253 0.117441 0.007231
v -0.059146 0.113714 0.008199
v -0.068035 0.104376 0.008585
v -0.055517 0.113802 -0.018477
v -0.064692 0.104559 -0.021982
v -0.042664 0.113461 -0.040752
v -0.048908 0.104380 -0.047874
v -0.024293 0.113409 -0.053903
v -0.029629 0.103880 -0.061941
v -0.004034 0.113284 -0.058434
v -0.005109 0.104581 -0.067850
v 0.058901 0.113924 -0.002749
v 0.067887 0.104079 -0.005259
v 0.050710 0.113822 -0.029074
v 0.058615 0.104340 -0.035193
v 0.033791 0.113671 -0.047762
v 0.035674 0.104806 -0.058512
v 0.014627 0.113446 -0.057094
v 0.014711 0.105099 -0.066564
v 0.023638 0.117325 0.002188
v 0.019679 0.117209 -0.022274
v -0.023613 0.117330 0.006183
v -0.023155 0.117220 -0.018910
v 0.000018 0.117225 0.004906
v -0.001717 0.117118 -0.021323
v 0.072638 0.104349 0.058604
v 0.063862 0.113275 0.059265
v 0.053480 0.117327 0.060117
v 0.028611 0.117532 0.063615
v 0.003953 0.117477 0.066723
v -0.020483 0.117553 0.067568
v -0.044176 0.117499 0.067362
v -0.056455 0.112943 0.067920
v -0.064636 0.104814 0.068453
v 0.077482 0.103819 0.136389
v 0.068378 0.112803 0.137150
v 0.058235 0.117279 0.137760
v 0.032924 0.117610 0.138613
v 0.007748 0.117762 0.139653
v -0.016889 0.117573 0.141995
v -0.039523 0.117502 0.143838
v -0.051801 0.112434 0.144591
v -0.060152 0.104409 0.145049
v 0.081700 0.103975 0.206197
v 0.072691 0.112380 0.206753
v 0.062728 0.117209 0.207471
v 0.036730 0.117894 0.206048
v 0.009231 0.118014 0.206145
v -0.015955 0.117839 0.210495
v -0.036572 0.117272 0.215964
v -0.046388 0.112266 0.222414
v -0.054841 0.105202 0.223125
v -0.067602 0.090552 0.030448
v -0.052383 0.090548 0.288219
v -0.053814 0.090630 0.258160
v -0.055895 0.090606 0.223721
v -0.058409 0.090705 0.182558
v -0.060709 0.090558 0.145024
v -0.062973 0.090632 0.107972
v -0.065368 0.090553 0.068850
v -0.068620 0.090819 0.008909
v -0.065659 0.090672 -0.021797
v -0.049857 0.090821 -0.048096
v -0.029787 0.090625 -0.062607
v -0.005295 0.090572 -0.068503
v 0.014925 0.090572 -0.067522
v 0.036179 0.090689 -0.059162
v 0.059399 0.090627 -0.035687
v 0.070699 0.090570 0.019093
v 0.068628 0.090659 -0.005129
v 0.086270 0.090659 0.273758
v 0.084186 0.090557 0.238841
v 0.082164 0.090608 0.205794
v 0.080113 0.090622 0.172253
v 0.077884 0.090814 0.135911
v 0.075507 0.090629 0.096950
v 0.073102 0.090668 0.057712
v 0.081004 0.090566 0.337776
v 0.068707 0.090545 0.390604
v -0.054555 0.090593 0.307016
v -0.066195 0.090556 0.358144
v -0.069336 0.090567 0.379533
v -0.065643 0.090583 0.402203
v -0.053952 0.090639 0.423321
v -0.034869 0.090596 0.439756
v 0.062147 0.090545 0.410776
v 0.049799 0.090561 0.428204
v 0.029434 0.090558 0.442784
v 0.008574 0.090582 0.448790
v -0.015316 0.090770 0.446991
v 0.084991 0.090656 0.317204
v 0.086792 0.090567 0.296096
v -0.050904 0.090606 0.223417
v -0.053418 0.090705 0.182253
v -0.055719 0.090558 0.144719
v -0.057982 0.090632 0.107667
v -0.060377 0.090553 0.068552
v -0.062609 0.090552 0.030185
v -0.063608 0.090819 0.009032
v -0.060791 0.090672 -0.020191
v -0.046098 0.090821 -0.044644
v -0.027657 0.090625 -0.057977
v -0.004821 0.090571 -0.063475
v 0.013861 0.090571 -0.062568
v 0.033367 0.090688 -0.054896
v 0.054972 0.090627 -0.033053
v 0.063690 0.090659 -0.004183
v 0.065713 0.090570 0.019461
v 0.068112 0.090668 0.058020
v 0.070517 0.090629 0.097255
v 0.072893 0.090814 0.136216
v 0.075122 0.090622 0.172559
v 0.077174 0.090608 0.206099
v 0.079195 0.090557 0.239142
v 0.081273 0.090659 0.273966
v 0.081787 0.090567 0.295941
v 0.080032 0.090656 0.316514
v 0.076113 0.090566 0.336733
v 0.063886 0.090545 0.389261
v 0.057627 0.090545 0.408506
v 0.046205 0.090561 0.424628
v 0.027223 0.090558 0.438217
v 0.008054 0.090582 0.443736
v -0.014240 0.090771 0.442057
v -0.032289 0.090597 0.435379
v -0.050011 0.090639 0.420116
v -0.060848 0.090583 0.400541
v -0.064277 0.090567 0.379493
v -0.061276 0.090556 0.359064
v -0.049619 0.090593 0.307860
v -0.047370 0.090548 0.288388
v -0.048821 0.090630 0.257891
v -0.039048 -0.120876 0.310156
v -0.050623 -0.120922 0.362051
v -0.053707 -0.120845 0.379945
v -0.050792 -0.120840 0.397675
v -0.042073 -0.120783 0.413546
v -0.028705 -0.120814 0.425449
v -0.011758 -0.120868 0.431957
v 0.006116 -0.120810 0.433412
v 0.023441 -0.120833 0.428345
v 0.037893 -0.120887 0.417993
v 0.048135 -0.120885 0.403548
v 0.053833 -0.120780 0.386399
v 0.065690 -0.120849 0.334639
v 0.069167 -0.120796 0.316532
v -0.034040 -0.120685 0.291540
v -0.024071 -0.120886 0.276591
v -0.010670 -0.120968 0.266222
v 0.006622 -0.120975 0.259813
v 0.028705 -0.120857 0.260968
v 0.059695 -0.120800 0.282100
v 0.067337 -0.120776 0.297537
v 0.046840 -0.120969 0.269712
v 0.046772 -0.121000 0.384404
v 0.041772 -0.121000 0.400179
v 0.033044 -0.121000 0.413181
v 0.021245 -0.121000 0.421749
v 0.005417 -0.121000 0.426207
v -0.010352 -0.121000 0.424856
v -0.025744 -0.121000 0.418568
v -0.036641 -0.121000 0.408336
v -0.044300 -0.121000 0.394561
v -0.046494 -0.121000 0.380206
v -0.044004 -0.121000 0.363377
v -0.032052 -0.121000 0.311517
v -0.027032 -0.121000 0.293780
v -0.019007 -0.121000 0.281228
v -0.007567 -0.121000 0.272171
v 0.006956 -0.121000 0.266895
v 0.026681 -0.121000 0.268069
v 0.043105 -0.121000 0.275037
v 0.053498 -0.121000 0.285474
v 0.060148 -0.121000 0.299434
v 0.061976 -0.121000 0.317095
v 0.059013 -0.121000 0.333179
v -0.009649 -0.121000 0.421663
v 0.005236 -0.121000 0.422567
v 0.020013 -0.121000 0.418267
v 0.030739 -0.121001 0.410610
v 0.038943 -0.121001 0.398897
v 0.043660 -0.121000 0.383867
v 0.055901 -0.121000 0.332635
v 0.058328 -0.121000 0.317238
v 0.056784 -0.121001 0.300211
v 0.050287 -0.121000 0.287105
v 0.041025 -0.121000 0.277890
v 0.026142 -0.121000 0.271332
v 0.007309 -0.121000 0.270598
v -0.006067 -0.121000 0.275491
v -0.016545 -0.121001 0.283665
v -0.023985 -0.121000 0.295268
v -0.029038 -0.121000 0.312422
v -0.040850 -0.121000 0.363971
v -0.043385 -0.121000 0.380239
v -0.041349 -0.121000 0.393535
v -0.034738 -0.121000 0.406325
v -0.024513 -0.121000 0.415733
v -0.065603 -0.104395 0.358252
v 0.068063 -0.104438 0.390412
v 0.080330 -0.104503 0.338052
v -0.053719 -0.104606 0.306812
v 0.061463 -0.104363 0.410880
v 0.049126 -0.104427 0.428169
v 0.028562 -0.104441 0.442368
v 0.009282 -0.104463 0.447951
v -0.015423 -0.104231 0.446413
v -0.034845 -0.104265 0.439040
v -0.053681 -0.104399 0.422897
v -0.064995 -0.104408 0.402218
v -0.068691 -0.104332 0.379553
v -0.051602 -0.104738 0.287929
v 0.084445 -0.104374 0.317566
v 0.075635 -0.114415 0.296195
v 0.086337 -0.104132 0.295977
v 0.068185 -0.117314 0.278080
v 0.085548 -0.104478 0.273766
v 0.052781 -0.118171 0.260393
v 0.031608 -0.118468 0.251474
v 0.007164 -0.118540 0.249485
v -0.014862 -0.118312 0.256852
v -0.030902 -0.117995 0.268406
v -0.040066 -0.114039 0.280033
v 0.063812 -0.117490 0.240317
v 0.070021 -0.104552 0.019338
v 0.050763 -0.117399 0.021056
v -0.047367 -0.117462 0.029135
v -0.066926 -0.104875 0.030496
v -0.059071 -0.113003 0.029903
v 0.061261 -0.113645 0.020521
v 0.060343 -0.117303 0.173485
v 0.056089 -0.117220 0.099588
v 0.065780 -0.113315 0.098332
v 0.074960 -0.104487 0.097568
v 0.070526 -0.112651 0.173042
v 0.079644 -0.103960 0.172348
v 0.073999 -0.112687 0.239393
v 0.083551 -0.104469 0.239211
v 0.076876 -0.111923 0.276039
v 0.039542 -0.117991 0.234340
v 0.009805 -0.118113 0.232490
v -0.018216 -0.117853 0.239701
v -0.034687 -0.117058 0.253248
v -0.043985 -0.111749 0.257334
v -0.052801 -0.104951 0.258047
v -0.038108 -0.117495 0.179803
v -0.042024 -0.117501 0.106494
v -0.049365 -0.112435 0.181185
v -0.054416 -0.112291 0.108059
v -0.062334 -0.104578 0.108169
v -0.057580 -0.104962 0.182030
v 0.034868 -0.117762 0.174620
v 0.009030 -0.117896 0.174999
v -0.015479 -0.117719 0.177669
v 0.005955 -0.117621 0.102924
v 0.030800 -0.117562 0.100990
v -0.018637 -0.117560 0.104363
v 0.001871 -0.117341 0.033332
v 0.026203 -0.117417 0.029066
v -0.022535 -0.117440 0.033553
v -0.003326 -0.117006 -0.048294
v 0.013691 -0.117035 -0.046878
v 0.030563 -0.117147 -0.037871
v 0.042782 -0.117300 -0.023323
v 0.048530 -0.117435 0.000250
v -0.020605 -0.117042 -0.044065
v -0.035698 -0.117155 -0.033069
v -0.046395 -0.117275 -0.015442
v -0.048253 -0.117441 0.007231
v -0.059146 -0.113714 0.008199
v -0.068035 -0.104376 0.008585
v -0.055517 -0.113802 -0.018477
v -0.064692 -0.104559 -0.021982
v -0.042664 -0.113461 -0.040752
v -0.048908 -0.104380 -0.047874
v -0.024293 -0.113409 -0.053903
v -0.029629 -0.103880 -0.061941
v -0.004034 -0.113284 -0.058434
v -0.005109 -0.104581 -0.067850
v 0.058901 -0.113924 -0.002749
v 0.067887 -0.104079 -0.005259
v 0.050710 -0.113822 -0.029074
v 0.058615 -0.104340 -0.035193
v 0.033791 -0.113671 -0.047762
v 0.035674 -0.104806 -0.058512
v 0.014627 -0.113446 -0.057094
v 0.014711 -0.105099 -0.066564
v 0.023638 -0.117325 0.002188
v 0.019679 -0.117209 -0.022274
v -0.023613 -0.117330 0.006183
v -0.023155 -0.117220 -0.018910
v 0.000018 -0.117225 0.004906
v -0.001717 -0.117118 -0.021323
v 0.072638 -0.104349 0.058604
v 0.063862 -0.113275 0.059265
v 0.053480 -0.117327 0.060117
v 0.028611 -0.117532 0.063615
v 0.003953 -0.117477 0.066723
v -0.020483 -0.117553 0.067568
v -0.044176 -0.117499 0.067362
v -0.056455 -0.112943 0.067920
v -0.064636 -0.104814 0.068453
v 0.077482 -0.103819 0.136389
v 0.068378 -0.112803 0.137150
v 0.058235 -0.117279 0.137760
v 0.032924 -0.117610 0.138613
v 0.007748 -0.117762 0.139653
v -0.016889 -0.117573 0.141995
v -0.039523 -0.117502 0.143838
v -0.051801 -0.112434 0.144591
v -0.060152 -0.104409 0.145049
v 0.081700 -0.103975 0.206197
v 0.072691 -0.112380 0.206753
v 0.062728 -0.117209 0.207471
v 0.036730 -0.117894 0.206048
v 0.009231 -0.118014 0.206145
v -0.015955 -0.117839 0.210495
v -0.036572 -0.117272 0.215964
v -0.046388 -0.112266 0.222414
v -0.054841 -0.105202 0.223125
v -0.067602 -0.090552 0.030448
v -0.052383 -0.090548 0.288219
v -0.053814 -0.090630 0.258160
v -0.055895 -0.090606 0.223721
v -0.058409 -0.090705 0.182558
v -0.060709 -0.090558 0.145024
v -0.062973 -0.090632 0.107972
v -0.065368 -0.090553 0.068850
v -0.068620 -0.090819 0.008909
v -0.065659 -0.090672 -0.021797
v -0.049857 -0.090821 -0.048096
v -0.029787 -0.090625 -0.062607
v -0.005295 -0.090572 -0.068503
v 0.014925 -0.090572 -0.067522
v 0.036179 -0.090689 -0.059162
v 0.059399 -0.090627 -0.035687
v 0.070699 -0.090570 0.019093
v 0.068628 -0.090659 -0.005129
v 0.086270 -0.090659 0.273758
v 0.084186 -0.090557 0.238841
v 0.082164 -0.090608 0.205794
v 0.080113 -0.090622 0.172253
v 0.077884 -0.090814 0.135911
v 0.075507 -0.090629 0.096950
v 0.073102 -0.090668 0.057712
v 0.081004 -0.090566 0.337776
v 0.068707 -0.090545 0.390604
v -0.054555 -0.090593 0.307016
v -0.066195 -0.090556 0.358144
v -0.069336 -0.090567 0.379533
v -0.065643 -0.090583 0.402203
v -0.053952 -0.090639 0.423321
v -0.034869 -0.090596 0.439756
v 0.062147 -0.090545 0.410776
v 0.049799 -0.090561 0.428204
v 0.029434 -0.090558 0.442784
v 0.008574 -0.090582 0.448790
v -0.015316 -0.090770 0.446991
v 0.084991 -0.090656 0.317204
v 0.086792 -0.090567 0.296096
v -0.050904 -0.090606 0.223417
v -0.053418 -0.090705 0.182253
v -0.055719 -0.090558 0.144719
v -0.057982 -0.090632 0.107667
v -0.060377 -0.090553 0.068552
v -0.062609 -0.090552 0.030185
v -0.063608 -0.090819 0.009032
v -0.060791 -0.090672 -0.020191
v -0.046098 -0.090821 -0.044644
v -0.027657 -0.090625 -0.057977
v -0.004821 -0.090571 -0.063475
v 0.013861 -0.090571 -0.062568
v 0.033367 -0.090688 -0.054896
v 0.054972 -0.090627 -0.033053
v 0.063690 -0.090659 -0.004183
v 0.065713 -0.090570 0.019461
v 0.068112 -0.090668 0.058020
v 0.070517 -0.090629 0.097255
v 0.072893 -0.090814 0.136216
v 0.075122 -0.090622 0.172559
v 0.077174 -0.090608 0.206099
v 0.079195 -0.090557 0.239142
v 0.081273 -0.090659 0.273966
v 0.081787 -0.090567 0.295941
v 0.080032 -0.090656 0.316514
v 0.076113 -0.090566 0.336733
v 0.063886 -0.090545 0.389261
v 0.057627 -0.090545 0.408506
v 0.046205 -0.090561 0.424628
v 0.027223 -0.090558 0.438217
v 0.008054 -0.090582 0.443736
v -0.014240 -0.090771 0.442057
v -0.032289 -0.090597 0.435379
v -0.050011 -0.090639 0.420116
v -0.060848 -0.090583 0.400541
v -0.064277 -0.090567 0.379493
v -0.061276 -0.090556 0.359064
v -0.049619 -0.090593 0.307860
v -0.047370 -0.090548 0.288388
v -0.048821 -0.090630 0.257891
v -0.059362 -0.000000 0.167850
v -0.059995 -0.000000 0.157526
v -0.059179 -0.000000 0.152046
v -0.059099 -0.000000 0.147599
v -0.063075 -0.000000 0.082608
v -0.063794 -0.000000 0.077686
v -0.065161 -0.000000 0.072913
v -0.065804 -0.000000 0.062550
v -0.065199 -0.000000 0.060611
v -0.062944 -0.000000 0.059358
v -0.053044 -0.000000 0.058753
v -0.058368 -0.000000 0.169892
v -0.056167 -0.000000 0.170652
v -0.046311 -0.000109 0.170049
v -0.059361 -0.043773 0.167890
v -0.059361 0.043773 0.167890
v -0.057914 -0.070515 0.191467
v -0.057914 0.070515 0.191467
v -0.059317 -0.051664 0.168479
v -0.059320 0.051663 0.168480
v -0.059225 -0.057975 0.170119
v -0.059225 0.057975 0.170119
v -0.058958 -0.063297 0.174196
v -0.058971 0.063295 0.174199
v -0.058659 -0.067470 0.179305
v -0.058659 0.067470 0.179305
v -0.058294 -0.069792 0.185259
v -0.058299 0.069793 0.185261
v -0.055738 -0.070499 0.226754
v -0.055757 0.070495 0.226755
v -0.055353 -0.071454 0.233316
v -0.055353 0.071454 0.233316
v -0.055037 -0.074068 0.238597
v -0.055037 0.074068 0.238599
v -0.054793 -0.076823 0.242582
v -0.054794 0.076820 0.242566
v -0.054546 -0.080163 0.246189
v -0.054559 0.080161 0.246192
v -0.054401 -0.084426 0.248744
v -0.054401 0.084426 0.248744
v -0.054386 -0.088796 0.249202
v -0.054386 0.088796 0.249202
v -0.059988 -0.043989 0.157635
v -0.059988 0.043989 0.157635
v -0.060027 -0.054785 0.156999
v -0.060027 0.054785 0.156999
v -0.060272 -0.063137 0.152995
v -0.060272 0.063138 0.153000
v -0.060623 -0.068495 0.147235
v -0.060625 0.068495 0.147235
v -0.061040 -0.071273 0.140447
v -0.061040 0.071273 0.140447
v -0.061483 -0.071605 0.133072
v -0.061483 0.071605 0.133072
v -0.063438 -0.071866 0.101235
v -0.063438 0.071866 0.101235
v -0.065161 -0.044541 0.072879
v -0.065161 0.044541 0.072879
v -0.065082 -0.055811 0.073997
v -0.065075 0.055811 0.073995
v -0.064848 -0.064286 0.078188
v -0.064848 0.064286 0.078188
v -0.064489 -0.069223 0.084055
v -0.064489 0.069223 0.084055
v -0.063976 -0.071644 0.092438
v -0.063976 0.071644 0.092438
v -0.059112 -0.043898 0.152384
v -0.059112 0.043898 0.152384
v -0.059084 -0.043887 0.147866
v -0.059084 0.043887 0.147866
v -0.059196 -0.053448 0.151907
v -0.059196 0.053448 0.151907
v -0.059404 -0.060052 0.149147
v -0.059404 0.060052 0.149147
v -0.059728 -0.064290 0.144810
v -0.059728 0.064290 0.144810
v -0.060010 -0.066360 0.139192
v -0.060010 0.066360 0.139192
v -0.060510 -0.066853 0.132982
v -0.060504 0.066855 0.132981
v -0.062464 -0.067269 0.101025
v -0.062464 0.067269 0.101025
v -0.062838 -0.066772 0.093358
v -0.062864 0.066763 0.093361
v -0.063333 -0.064998 0.086360
v -0.063353 0.064993 0.086364
v -0.063491 -0.061137 0.082158
v -0.063491 0.061137 0.082158
v -0.063717 -0.054550 0.078475
v -0.063726 0.054549 0.078477
v -0.063822 -0.044200 0.077193
v -0.063822 0.044200 0.077193
v -0.059116 -0.052131 0.147358
v -0.059115 0.052131 0.147358
v -0.059222 -0.057020 0.145605
v -0.059223 0.057020 0.145605
v -0.059414 -0.059971 0.142469
v -0.059414 0.059971 0.142470
v -0.059689 -0.061170 0.137950
v -0.059689 0.061170 0.137950
v -0.060000 -0.061908 0.132877
v -0.060000 0.061908 0.132877
v -0.061957 -0.061908 0.100873
v -0.061957 0.061908 0.100873
v -0.062375 -0.061908 0.094048
v -0.062375 0.061908 0.094048
v -0.062685 -0.060617 0.088975
v -0.062685 0.060617 0.088975
v -0.062882 -0.058126 0.085747
v -0.062883 0.058126 0.085747
v -0.063029 -0.053330 0.083349
v -0.063030 0.053330 0.083349
v -0.063080 -0.043923 0.082519
v -0.063080 0.043923 0.082519
v -0.059997 0.057209 0.132935
v -0.059997 -0.057209 0.132935
v -0.059997 0.052403 0.132935
v -0.059997 -0.052403 0.132935
v -0.059992 0.044116 0.133018
v -0.059992 -0.044116 0.133018
v -0.059981 -0.000000 0.133184
v -0.061958 0.058038 0.100866
v -0.061958 -0.058038 0.100866
v -0.061963 0.053232 0.100784
v -0.061963 -0.053232 0.100784
v -0.061963 0.044199 0.100784
v -0.061963 -0.044199 0.100784
v -0.061999 -0.000000 0.100204
v -0.065805 -0.088687 0.062540
v -0.065805 0.088687 0.062540
v -0.057887 -0.088783 0.191997
v -0.057887 0.088783 0.191997
v -0.061470 -0.088801 0.133421
v -0.061470 0.088801 0.133421
v -0.063411 -0.088781 0.101679
v -0.063411 0.088781 0.101679
v -0.065804 -0.044494 0.062548
v -0.065804 0.044494 0.062548
v -0.059617 -0.088782 0.163709
v -0.059617 0.088782 0.163709
v -0.055741 -0.088797 0.227077
v -0.055741 0.088797 0.227077
v -0.053334 -0.088793 0.251249
v -0.053334 0.088793 0.251249
v -0.051212 -0.088736 0.252000
v -0.051212 0.088734 0.251993
v -0.056180 -0.043702 0.170703
v -0.056180 0.043702 0.170706
v -0.056134 -0.051320 0.171237
v -0.056134 0.051320 0.171237
v -0.056010 -0.056603 0.172911
v -0.056009 0.056585 0.172950
v -0.055838 -0.061320 0.176148
v -0.055838 0.061320 0.176148
v -0.055540 -0.064952 0.180715
v -0.055540 0.064952 0.180715
v -0.055214 -0.066891 0.185732
v -0.055213 0.066799 0.185758
v -0.054962 -0.067547 0.191247
v -0.054980 0.067452 0.191255
v -0.052771 -0.067615 0.226572
v -0.052790 0.067519 0.226575
v -0.052212 -0.068573 0.233811
v -0.052212 0.068573 0.233811
v -0.051847 -0.071312 0.239837
v -0.051844 0.071240 0.239886
v -0.051489 -0.074589 0.244354
v -0.051486 0.074532 0.244404
v -0.051179 -0.078276 0.248147
v -0.051176 0.078233 0.248197
v -0.051040 -0.083369 0.251278
v -0.051039 0.083361 0.251306
v -0.058311 -0.043701 0.169983
v -0.058311 0.043701 0.169984
v -0.058263 -0.051335 0.170514
v -0.058270 0.051332 0.170526
v -0.058178 -0.056828 0.172206
v -0.058196 0.056815 0.172234
v -0.057911 -0.061916 0.175711
v -0.057943 0.061879 0.175748
v -0.057715 -0.065639 0.180286
v -0.057757 0.065614 0.180302
v -0.057353 -0.067752 0.185768
v -0.057410 0.067714 0.185781
v -0.057044 -0.068427 0.191445
v -0.057090 0.068397 0.191448
v -0.054817 -0.068447 0.226677
v -0.054863 0.068378 0.226681
v -0.054408 -0.069401 0.233760
v -0.054468 0.069361 0.233775
v -0.054058 -0.072063 0.239571
v -0.054110 0.072033 0.239594
v -0.053804 -0.075203 0.243891
v -0.053848 0.075179 0.243914
v -0.053520 -0.078826 0.247677
v -0.053548 0.078797 0.247713
v -0.053288 -0.083555 0.250643
v -0.053288 0.083555 0.250643
v -0.051249 -0.089300 0.251496
v -0.051249 0.089200 0.251496
v -0.053119 -0.089300 0.250764
v -0.053119 0.089200 0.250764
v -0.053890 -0.089300 0.249166
v -0.053889 0.089200 0.249166
v -0.055264 -0.089296 0.227023
v -0.055264 0.089296 0.227023
v -0.065066 -0.088682 0.060384
v -0.065066 0.088682 0.060384
v -0.063010 -0.088685 0.059365
v -0.063010 0.088685 0.059365
v -0.062981 -0.044500 0.059360
v -0.062981 0.044500 0.059360
v -0.065102 -0.044504 0.060445
v -0.065102 0.044504 0.060445
v -0.053019 0.088692 0.058751
v -0.053019 -0.088692 0.058751
v -0.053061 -0.044701 0.058754
v -0.053061 0.044701 0.058754
v -0.057385 -0.089300 0.191951
v -0.057385 0.089300 0.191951
v -0.059117 -0.089300 0.163672
v -0.059117 0.089300 0.163672
v -0.060989 -0.089297 0.133363
v -0.060972 0.089200 0.133362
v -0.062923 -0.089298 0.101656
v -0.062912 0.089200 0.101655
v -0.065312 -0.089299 0.062529
v -0.065305 0.089200 0.062528
v -0.064686 -0.089300 0.060707
v -0.064686 0.089200 0.060707
v -0.062977 -0.089300 0.059884
v -0.062977 0.089200 0.059884
v -0.052983 -0.089300 0.059263
v -0.052983 0.089300 0.059263
v -0.041230 -0.088799 0.251390
v -0.041230 0.088799 0.251390
v -0.041260 -0.089298 0.250903
v -0.041260 0.089298 0.250903
v -0.042841 -0.089300 0.225862
v -0.042841 0.089300 0.225862
v -0.041436 -0.089300 0.248319
v -0.041436 0.089300 0.248319
v -0.044981 -0.089300 0.190676
v -0.044981 0.089300 0.190676
v -0.046749 -0.089300 0.162458
v -0.046749 0.089300 0.162458
v -0.048553 -0.089300 0.132205
v -0.048553 0.089300 0.132205
v -0.050534 -0.089300 0.100543
v -0.050534 0.089300 0.100543
v -0.052829 -0.089300 0.061981
v -0.052829 0.089300 0.061981
v -0.041290 -0.083352 0.250501
v -0.041290 0.083352 0.250501
v -0.041500 -0.078279 0.247368
v -0.041500 0.078279 0.247368
v -0.041728 -0.074502 0.243571
v -0.041728 0.074502 0.243571
v -0.042024 -0.071214 0.239004
v -0.042020 0.071132 0.239043
v -0.042416 -0.068522 0.232820
v -0.042416 0.068522 0.232820
v -0.042855 -0.067673 0.225187
v -0.042855 0.067673 0.225187
v -0.044996 -0.067508 0.190855
v -0.044996 0.067408 0.190862
v -0.046212 -0.043737 0.170187
v -0.046212 0.043737 0.170187
v -0.046185 -0.050829 0.170704
v -0.046185 0.050829 0.170704
v -0.046070 -0.056265 0.172349
v -0.046070 0.056265 0.172349
v -0.045898 -0.061071 0.175607
v -0.045898 0.061071 0.175607
v -0.045701 -0.064821 0.180260
v -0.045701 0.064821 0.180260
v -0.045283 -0.066813 0.185311
v -0.045283 0.066813 0.185311
v -0.046291 -0.000000 0.168650
v -0.052928 -0.000000 0.060128
v -0.052929 -0.044575 0.060118
v -0.052929 0.044575 0.060118
v -0.052927 -0.087730 0.060141
v -0.052927 0.087730 0.060141
v -0.050442 -0.087740 0.100767
v -0.050442 0.087740 0.100767
v -0.048504 -0.087737 0.132461
v -0.048504 0.087737 0.132461
v -0.046655 -0.087739 0.162685
v -0.046655 0.087739 0.162685
v -0.044942 -0.087743 0.190697
v -0.044942 0.087743 0.190697
v -0.042795 -0.087723 0.225799
v -0.042795 0.087723 0.225799
v -0.041314 -0.087700 0.250012
v -0.041314 0.087700 0.250012
v -0.041355 -0.083802 0.249342
v -0.041355 0.083802 0.249342
v -0.041533 -0.079159 0.246434
v -0.041533 0.079159 0.246434
v -0.041764 -0.075474 0.242663
v -0.041764 0.075474 0.242663
v -0.042035 -0.072315 0.238231
v -0.042035 0.072315 0.238231
v -0.042391 -0.069770 0.232400
v -0.042391 0.069770 0.232400
v -0.042837 -0.069006 0.225121
v -0.042837 0.069006 0.225121
v -0.046289 -0.043744 0.168674
v -0.046289 0.043744 0.168674
v -0.046254 -0.051226 0.169249
v -0.046254 0.051226 0.169249
v -0.046153 -0.056954 0.170898
v -0.046153 0.056954 0.170898
v -0.045939 -0.062022 0.174394
v -0.045939 0.062022 0.174394
v -0.045638 -0.066000 0.179321
v -0.045638 0.066000 0.179321
v -0.045309 -0.068150 0.184703
v -0.045309 0.068150 0.184703
v -0.044944 -0.068883 0.190671
v -0.044944 0.068883 0.190671
v -0.046979 -0.043746 0.157395
v -0.046979 0.043746 0.157395
v -0.047013 -0.000000 0.157071
v -0.048507 -0.071888 0.132407
v -0.048507 0.071888 0.132407
v -0.047916 -0.070863 0.142075
v -0.047916 0.070863 0.142075
v -0.047484 -0.066750 0.149161
v -0.047484 0.066750 0.149161
v -0.047174 -0.061789 0.154209
v -0.047174 0.061789 0.154209
v -0.046994 -0.051781 0.157155
v -0.046994 0.051781 0.157155
v -0.050441 -0.071726 0.100820
v -0.050439 0.071726 0.100820
v -0.052172 -0.044513 0.072490
v -0.052172 0.044513 0.072490
v -0.052162 -0.000000 0.072812
v -0.052138 -0.053550 0.073046
v -0.052138 0.053550 0.073046
v -0.051934 -0.062293 0.076381
v -0.051934 0.062293 0.076381
v -0.051519 -0.068593 0.083305
v -0.051519 0.068593 0.083305
v -0.051031 -0.071366 0.091151
v -0.051031 0.071366 0.091151
v -0.048332 0.043954 0.152970
v -0.048332 -0.043954 0.152970
v -0.049064 0.044163 0.147865
v -0.049064 -0.044163 0.147865
v -0.049078 -0.000000 0.147653
v -0.048235 -0.000000 0.152798
v -0.048351 0.051196 0.152600
v -0.048354 -0.051196 0.152601
v -0.048510 0.059079 0.149794
v -0.048525 -0.059080 0.149797
v -0.048763 0.062979 0.146178
v -0.048777 -0.062981 0.146181
v -0.049125 0.066028 0.140142
v -0.049140 -0.066030 0.140143
v -0.049584 0.066890 0.132218
v -0.049606 -0.066894 0.132220
v -0.051506 0.066892 0.100877
v -0.051526 -0.066895 0.100879
v -0.052029 0.066551 0.092634
v -0.052047 -0.066554 0.092635
v -0.052395 0.064770 0.086501
v -0.052409 -0.064772 0.086501
v -0.052762 0.059663 0.080798
v -0.052769 -0.059663 0.080797
v -0.052945 0.052216 0.077716
v -0.052947 -0.052216 0.077716
v -0.052968 0.044429 0.077045
v -0.052968 -0.044429 0.077045
v -0.052887 -0.000000 0.077312
v -0.053070 -0.000000 0.082373
v -0.053063 -0.044380 0.082492
v -0.053063 0.044380 0.082492
v -0.053035 -0.050605 0.082951
v -0.053035 0.050605 0.082951
v -0.052913 -0.056627 0.084947
v -0.052913 0.056627 0.084947
v -0.052635 -0.061102 0.089469
v -0.052635 0.061102 0.089469
v -0.052362 -0.061907 0.093957
v -0.052362 0.061907 0.093957
v -0.051933 -0.062179 0.100963
v -0.051932 0.062179 0.100963
v -0.050019 -0.062056 0.132267
v -0.050016 0.062056 0.132267
v -0.049638 -0.061629 0.138490
v -0.049638 0.061629 0.138490
v -0.049349 -0.059283 0.143214
v -0.049348 0.059283 0.143214
v -0.049197 -0.056780 0.145682
v -0.049196 0.056780 0.145682
v -0.049074 -0.050513 0.147673
v -0.049074 0.050513 0.147673
v -0.051954 0.056596 0.100636
v -0.051953 -0.056596 0.100636
v -0.051959 0.050574 0.100549
v -0.051959 -0.050574 0.100549
v -0.051971 0.044411 0.100339
v -0.051971 -0.044411 0.100339
v -0.051980 -0.000000 0.100197
v -0.050010 0.056509 0.132410
v -0.050010 -0.056507 0.132409
v -0.050005 0.050281 0.132498
v -0.050004 -0.050281 0.132498
v -0.050013 0.044273 0.132345
v -0.050014 -0.044267 0.132339
v -0.050006 -0.000050 0.132478
f 51 62 50
f 62 51 61
f 61 52 60
f 52 61 51
f 58 54 57
f 57 54 55
f 55 56 57
f 62 49 50
f 49 62 63
f 49 63 48
f 48 63 64
f 48 64 47
f 47 64 65
f 66 45 46
f 47 65 46
f 46 65 66
f 13 23 12
f 23 13 44
f 33 34 1
f 1 2 33
f 12 24 11
f 24 12 23
f 11 25 10
f 25 11 24
f 26 10 25
f 10 26 9
f 27 9 26
f 9 27 8
f 27 28 7
f 27 7 8
f 6 28 29
f 28 6 7
f 29 5 6
f 5 29 30
f 4 5 30
f 4 30 31
f 2 32 33
f 32 2 3
f 3 4 31
f 3 31 32
f 13 14 43
f 43 44 13
f 14 42 43
f 42 14 21
f 82 21 14
f 42 20 41
f 20 42 21
f 41 22 40
f 22 41 20
f 19 40 22
f 40 19 39
f 18 39 19
f 39 18 38
f 17 38 18
f 38 17 37
f 37 16 36
f 16 37 17
f 35 36 16
f 35 16 15
f 15 34 35
f 34 15 1
f 21 84 20
f 84 21 82
f 82 107 84
f 107 82 83
f 86 20 84
f 20 86 22
f 17 90 16
f 90 17 89
f 17 18 89
f 88 89 18
f 18 19 88
f 87 88 19
f 86 87 22
f 22 87 19
f 16 91 15
f 91 16 90
f 131 132 150
f 150 152 131
f 148 132 133
f 132 148 150
f 135 140 136
f 140 135 142
f 136 138 137
f 138 136 140
f 131 130 157
f 157 132 131
f 152 130 131
f 152 154 130
f 156 132 157
f 132 156 133
f 159 134 135
f 135 136 159
f 134 142 135
f 142 134 144
f 159 136 158
f 136 137 158
f 154 146 129
f 154 129 130
f 129 161 130
f 161 157 130
f 144 129 146
f 129 144 134
f 134 161 129
f 161 134 159
f 160 157 161
f 157 160 156
f 161 159 160
f 159 158 160
f 133 98 148
f 98 133 94
f 94 164 98
f 164 163 98
f 156 94 133
f 94 156 127
f 127 164 94
f 164 127 165
f 160 127 156
f 127 160 126
f 126 165 127
f 165 126 166
f 160 158 128
f 160 128 126
f 126 128 167
f 126 167 166
f 158 137 95
f 158 95 128
f 128 95 168
f 128 168 167
f 138 95 137
f 95 138 97
f 97 169 95
f 169 168 95
f 164 101 163
f 101 164 100
f 100 172 101
f 172 100 173
f 165 100 164
f 100 165 124
f 100 124 174
f 100 174 173
f 166 124 165
f 124 166 123
f 123 174 124
f 174 123 175
f 166 167 125
f 166 125 123
f 125 175 123
f 175 125 176
f 167 115 125
f 115 167 168
f 115 176 125
f 176 115 177
f 169 115 168
f 115 169 117
f 117 177 115
f 177 117 178
f 86 84 92
f 107 105 92
f 92 84 107
f 172 99 103
f 99 172 173
f 105 181 182
f 182 92 105
f 99 182 103
f 103 182 181
f 108 86 92
f 86 108 87
f 173 174 120
f 173 120 99
f 182 108 92
f 108 182 183
f 99 120 183
f 99 183 182
f 109 87 108
f 87 109 88
f 174 175 121
f 174 121 120
f 183 109 108
f 109 183 184
f 120 121 184
f 120 184 183
f 110 88 109
f 88 110 89
f 176 121 175
f 121 176 122
f 184 185 109
f 185 110 109
f 122 184 121
f 184 122 185
f 89 111 90
f 111 89 110
f 177 122 176
f 122 177 114
f 185 186 110
f 186 111 110
f 114 185 122
f 185 114 186
f 112 90 111
f 90 112 91
f 178 114 177
f 114 178 116
f 111 186 187
f 187 112 111
f 116 186 114
f 186 116 187
f 80 15 91
f 113 91 112
f 91 113 80
f 188 112 187
f 112 188 113
f 187 116 119
f 119 188 187
f 179 116 178
f 116 179 119
f 188 193 192
f 193 188 119
f 117 179 178
f 179 117 118
f 96 170 169
f 96 169 97
f 170 118 169
f 118 117 169
f 179 118 194
f 195 194 118
f 119 194 193
f 194 119 179
f 118 196 195
f 196 118 170
f 97 139 96
f 139 97 138
f 138 140 139
f 141 139 140
f 170 189 196
f 189 170 96
f 197 96 139
f 96 197 189
f 139 198 197
f 198 139 141
f 142 145 143
f 145 142 144
f 142 141 140
f 141 142 143
f 198 143 199
f 143 198 141
f 144 147 145
f 147 144 146
f 200 143 145
f 143 200 199
f 146 155 147
f 155 146 154
f 145 201 200
f 201 145 147
f 153 154 152
f 154 153 155
f 202 147 155
f 147 202 201
f 151 152 150
f 152 151 153
f 203 202 153
f 202 155 153
f 148 93 149
f 93 148 98
f 150 149 151
f 149 150 148
f 151 206 204
f 206 151 149
f 153 204 203
f 204 153 151
f 105 85 106
f 85 105 107
f 180 105 106
f 105 180 181
f 103 180 104
f 180 103 181
f 104 171 172
f 172 103 104
f 101 171 102
f 171 101 172
f 98 162 93
f 162 98 163
f 102 162 163
f 163 101 102
f 149 205 206
f 205 149 93
f 93 213 205
f 213 93 162
f 162 212 213
f 212 162 102
f 102 211 212
f 211 102 171
f 180 208 209
f 208 180 106
f 104 209 210
f 209 104 180
f 171 210 211
f 210 171 104
f 83 85 107
f 69 81 13
f 81 14 13
f 82 14 81
f 81 83 82
f 106 207 208
f 207 106 85
f 13 12 69
f 68 69 12
f 15 70 1
f 70 15 80
f 2 1 67
f 70 67 1
f 67 79 2
f 79 3 2
f 79 4 3
f 4 79 78
f 217 218 67
f 218 79 67
f 78 77 4
f 77 5 4
f 218 219 79
f 219 78 79
f 6 77 76
f 77 6 5
f 219 77 78
f 77 219 220
f 71 68 11
f 68 12 11
f 69 215 214
f 215 69 68
f 72 71 10
f 71 11 10
f 222 215 71
f 215 68 71
f 73 72 9
f 9 72 10
f 223 71 72
f 71 223 222
f 9 74 73
f 74 9 8
f 224 72 73
f 72 224 223
f 76 75 6
f 75 7 6
f 75 74 7
f 74 8 7
f 58 53 54
f 59 53 58
f 60 53 59
f 53 60 52
f 67 216 217
f 216 67 70
f 225 73 74
f 73 225 224
f 220 221 77
f 221 76 77
f 221 226 76
f 226 75 76
f 74 75 225
f 226 225 75
f 190 70 80
f 70 190 216
f 191 190 80
f 191 80 113
f 113 192 191
f 192 113 188
f 227 83 81
f 83 227 228
f 214 227 81
f 214 81 69
f 207 83 228
f 83 207 85
f 230 229 192
f 192 193 230
f 231 230 193
f 193 194 231
f 231 195 232
f 195 231 194
f 233 232 195
f 195 196 233
f 234 233 196
f 196 189 234
f 235 234 189
f 189 197 235
f 236 235 197
f 197 198 236
f 199 236 198
f 236 199 237
f 200 237 199
f 237 200 238
f 238 201 239
f 201 238 200
f 240 239 201
f 240 201 202
f 241 240 202
f 202 203 241
f 242 241 203
f 203 204 242
f 206 242 204
f 242 206 243
f 205 243 206
f 243 205 244
f 213 244 205
f 244 213 245
f 212 245 213
f 245 212 246
f 211 246 212
f 246 211 247
f 248 211 210
f 211 248 247
f 209 248 210
f 248 209 249
f 250 209 208
f 209 250 249
f 251 208 207
f 208 251 250
f 252 207 228
f 207 252 251
f 252 227 253
f 227 252 228
f 253 214 254
f 214 253 227
f 214 255 254
f 255 214 215
f 215 256 255
f 256 215 222
f 257 256 222
f 222 223 257
f 258 257 223
f 223 224 258
f 259 258 224
f 224 225 259
f 226 259 225
f 259 226 260
f 261 226 221
f 226 261 260
f 261 220 262
f 220 261 221
f 262 219 263
f 219 262 220
f 263 218 264
f 218 263 219
f 264 217 265
f 217 264 218
f 265 216 266
f 216 265 217
f 266 190 267
f 190 266 216
f 268 267 190
f 190 191 268
f 229 268 191
f 191 192 229
f 330 319 318
f 319 330 329
f 329 320 319
f 320 329 328
f 322 326 325
f 322 325 323
f 323 325 324
f 330 317 331
f 317 330 318
f 331 316 332
f 316 331 317
f 332 315 333
f 332 316 315
f 334 314 313
f 333 314 334
f 333 315 314
f 281 291 312
f 291 281 280
f 302 301 269
f 270 269 301
f 292 280 279
f 280 292 291
f 279 293 292
f 293 279 278
f 278 294 293
f 294 278 277
f 277 295 294
f 295 277 276
f 296 295 275
f 276 275 295
f 297 296 274
f 275 274 296
f 297 273 298
f 273 297 274
f 298 272 299
f 272 298 273
f 270 300 271
f 300 270 301
f 271 299 272
f 299 271 300
f 312 311 281
f 311 282 281
f 311 310 282
f 282 310 289
f 350 282 289
f 288 310 309
f 310 288 289
f 290 309 308
f 309 290 288
f 287 308 307
f 308 287 290
f 286 307 306
f 307 286 287
f 306 285 286
f 285 306 305
f 305 284 285
f 284 305 304
f 284 303 283
f 303 284 304
f 283 302 269
f 302 283 303
f 289 352 350
f 352 289 288
f 350 375 351
f 375 350 352
f 354 352 288
f 354 288 290
f 285 358 357
f 358 285 284
f 357 286 285
f 286 357 356
f 287 286 356
f 356 355 287
f 290 287 355
f 355 354 290
f 284 359 358
f 359 284 283
f 420 418 399
f 418 400 399
f 401 400 416
f 418 416 400
f 408 403 404
f 403 408 410
f 406 404 405
f 404 406 408
f 400 425 399
f 425 398 399
f 422 420 398
f 398 420 399
f 424 400 401
f 400 424 425
f 427 403 402
f 403 427 404
f 402 410 412
f 410 402 403
f 426 405 404
f 426 404 427
f 414 422 397
f 398 397 422
f 425 429 398
f 429 397 398
f 397 412 414
f 412 397 402
f 429 402 397
f 402 429 427
f 428 425 424
f 425 428 429
f 428 426 427
f 428 427 429
f 366 401 416
f 401 366 362
f 366 431 432
f 432 362 366
f 362 424 401
f 424 362 395
f 432 395 362
f 395 432 433
f 395 428 424
f 428 395 394
f 433 394 395
f 394 433 434
f 394 396 428
f 396 426 428
f 434 435 394
f 435 396 394
f 396 363 426
f 363 405 426
f 435 436 396
f 436 363 396
f 363 406 405
f 406 363 365
f 363 436 437
f 437 365 363
f 368 432 369
f 369 432 431
f 440 368 369
f 368 440 441
f 368 433 432
f 433 368 392
f 441 442 368
f 442 392 368
f 392 434 433
f 434 392 391
f 442 391 392
f 391 442 443
f 391 393 434
f 393 435 434
f 443 393 391
f 393 443 444
f 383 435 393
f 435 383 436
f 444 383 393
f 383 444 445
f 385 437 383
f 383 437 436
f 445 385 383
f 385 445 446
f 354 360 352
f 352 360 375
f 375 360 373
f 367 440 371
f 440 367 441
f 360 450 373
f 373 450 449
f 371 449 450
f 450 367 371
f 376 354 355
f 354 376 360
f 367 388 441
f 388 442 441
f 376 450 360
f 450 376 451
f 450 451 367
f 451 388 367
f 377 355 356
f 355 377 376
f 388 389 442
f 389 443 442
f 377 451 376
f 451 377 452
f 451 452 388
f 452 389 388
f 356 378 377
f 378 356 357
f 389 444 443
f 444 389 390
f 377 378 453
f 377 453 452
f 452 390 389
f 390 452 453
f 357 379 378
f 379 357 358
f 382 445 390
f 390 445 444
f 378 379 454
f 378 454 453
f 453 382 390
f 382 453 454
f 358 380 379
f 380 358 359
f 384 446 382
f 382 446 445
f 380 455 379
f 379 455 454
f 454 384 382
f 384 454 455
f 348 359 283
f 359 381 380
f 381 359 348
f 380 456 455
f 456 380 381
f 456 387 455
f 455 387 384
f 384 447 446
f 447 384 387
f 456 461 387
f 461 456 460
f 447 385 446
f 385 447 386
f 438 364 437
f 365 437 364
f 437 385 386
f 386 438 437
f 386 447 462
f 386 462 463
f 387 462 447
f 462 387 461
f 386 464 438
f 464 386 463
f 365 407 406
f 407 365 364
f 408 406 407
f 407 409 408
f 438 457 364
f 457 438 464
f 364 465 407
f 465 364 457
f 407 466 409
f 466 407 465
f 413 410 411
f 410 413 412
f 410 409 411
f 409 410 408
f 411 466 467
f 466 411 409
f 412 415 414
f 415 412 413
f 411 468 413
f 468 411 467
f 414 423 422
f 423 414 415
f 413 469 415
f 469 413 468
f 422 421 420
f 421 422 423
f 415 470 423
f 470 415 469
f 419 420 421
f 420 419 418
f 421 423 470
f 421 470 471
f 416 361 366
f 361 416 417
f 417 418 419
f 418 417 416
f 419 474 417
f 474 419 472
f 421 472 419
f 472 421 471
f 353 373 374
f 373 353 375
f 373 448 374
f 448 373 449
f 448 371 372
f 371 448 449
f 371 440 372
f 372 440 439
f 439 369 370
f 369 439 440
f 366 430 431
f 430 366 361
f 369 431 370
f 370 431 430
f 417 473 361
f 473 417 474
f 361 481 430
f 481 361 473
f 430 480 370
f 480 430 481
f 370 479 439
f 479 370 480
f 448 476 374
f 476 448 477
f 372 477 448
f 477 372 478
f 439 478 372
f 478 439 479
f 351 375 353
f 281 282 349
f 349 337 281
f 350 349 282
f 349 350 351
f 374 475 353
f 475 374 476
f 280 281 337
f 337 336 280
f 338 283 269
f 283 338 348
f 269 270 335
f 269 335 338
f 270 271 347
f 347 335 270
f 272 347 271
f 347 272 346
f 335 347 486
f 335 486 485
f 345 346 272
f 345 272 273
f 347 346 487
f 347 487 486
f 274 345 273
f 345 274 344
f 345 487 346
f 487 345 488
f 279 280 336
f 336 339 279
f 337 483 336
f 483 337 482
f 278 279 339
f 339 340 278
f 339 336 483
f 339 483 490
f 277 278 340
f 340 341 277
f 339 491 340
f 491 339 490
f 277 342 276
f 342 277 341
f 340 492 341
f 492 340 491
f 274 275 343
f 343 344 274
f 342 343 275
f 342 275 276
f 326 321 327
f 321 326 322
f 328 321 320
f 321 328 327
f 335 484 338
f 484 335 485
f 341 493 342
f 493 341 492
f 345 344 489
f 345 489 488
f 344 343 494
f 344 494 489
f 343 342 493
f 343 493 494
f 338 458 348
f 458 338 484
f 348 459 381
f 459 348 458
f 381 460 456
f 460 381 459
f 351 495 349
f 495 351 496
f 349 482 337
f 482 349 495
f 353 475 351
f 351 475 496
f 461 460 498
f 460 497 498
f 462 461 499
f 461 498 499
f 463 499 500
f 499 463 462
f 464 463 501
f 463 500 501
f 457 464 502
f 464 501 502
f 465 457 503
f 503 457 502
f 466 465 504
f 504 465 503
f 504 467 466
f 467 504 505
f 505 468 467
f 468 505 506
f 506 469 468
f 469 506 507
f 507 508 469
f 470 469 508
f 471 470 509
f 470 508 509
f 472 471 510
f 510 471 509
f 510 474 472
f 474 510 511
f 511 473 474
f 473 511 512
f 512 481 473
f 481 512 513
f 513 480 481
f 480 513 514
f 514 479 480
f 479 514 515
f 516 479 515
f 479 516 478
f 516 477 478
f 477 516 517
f 518 477 517
f 477 518 476
f 519 476 518
f 476 519 475
f 520 475 519
f 475 520 496
f 520 495 496
f 495 520 521
f 521 482 495
f 482 521 522
f 522 523 482
f 482 523 483
f 523 524 483
f 490 483 524
f 524 525 490
f 491 490 525
f 492 491 526
f 491 525 526
f 493 492 527
f 527 492 526
f 527 494 493
f 494 527 528
f 529 494 528
f 494 529 489
f 529 488 489
f 488 529 530
f 530 487 488
f 487 530 531
f 486 531 532
f 531 486 487
f 485 532 533
f 532 485 486
f 484 533 534
f 533 484 485
f 458 534 535
f 534 458 484
f 459 458 536
f 458 535 536
f 460 459 497
f 459 536 497
f 633 609 631
f 609 633 611
f 634 610 612
f 610 634 632
f 631 607 629
f 607 631 609
f 610 632 608
f 608 632 630
f 604 630 606
f 630 604 608
f 607 603 629
f 629 603 605
f 603 539 605
f 605 539 540
f 539 606 540
f 606 539 604
f 638 618 640
f 618 638 616
f 637 617 615
f 617 637 639
f 622 646 644
f 646 622 624
f 645 621 643
f 621 645 623
f 624 626 648
f 624 648 646
f 623 647 625
f 647 623 645
f 658 646 660
f 648 660 646
f 661 645 659
f 645 661 647
f 628 648 626
f 648 628 650
f 655 606 630
f 655 630 653
f 627 647 649
f 647 627 625
f 629 656 654
f 656 629 605
f 662 655 653
f 662 653 660
f 660 648 662
f 650 662 648
f 654 663 661
f 663 654 656
f 647 663 649
f 663 647 661
f 649 542 627
f 542 649 541
f 541 650 542
f 542 650 628
f 605 657 656
f 657 605 540
f 606 657 540
f 657 606 655
f 657 662 664
f 662 657 655
f 657 663 656
f 663 657 664
f 650 541 664
f 664 662 650
f 649 664 541
f 664 649 663
f 617 641 619
f 641 617 639
f 641 639 659
f 659 645 643
f 659 643 641
f 619 643 621
f 643 619 641
f 652 661 659
f 661 652 654
f 640 618 642
f 642 618 620
f 658 640 642
f 658 644 646
f 644 658 642
f 644 642 620
f 620 622 644
f 660 653 651
f 660 651 658
f 633 652 635
f 652 633 631
f 633 613 611
f 613 633 635
f 615 613 635
f 615 635 637
f 652 637 635
f 631 654 652
f 654 631 629
f 637 659 639
f 659 637 652
f 651 632 634
f 651 634 636
f 634 614 636
f 614 634 612
f 636 616 638
f 616 636 614
f 636 638 651
f 653 630 632
f 653 632 651
f 638 658 651
f 658 638 640
f 603 538 539
f 538 603 579
f 538 604 539
f 604 538 580
f 615 591 589
f 591 615 617
f 616 592 618
f 592 616 590
f 543 593 627
f 627 542 543
f 543 628 594
f 628 543 542
f 597 621 623
f 621 597 599
f 598 622 600
f 622 598 624
f 601 621 599
f 621 601 619
f 591 619 601
f 619 591 617
f 622 620 602
f 602 600 622
f 592 620 618
f 620 592 602
f 593 595 625
f 625 627 593
f 625 597 623
f 597 625 595
f 594 626 596
f 626 594 628
f 598 596 626
f 598 626 624
f 607 579 603
f 579 607 581
f 580 608 604
f 608 580 582
f 584 586 612
f 612 610 584
f 611 587 585
f 587 611 613
f 589 587 613
f 589 613 615
f 612 588 614
f 588 612 586
f 614 590 616
f 590 614 588
f 609 581 607
f 581 609 583
f 611 583 609
f 583 611 585
f 675 585 587
f 582 584 610
f 582 610 608
f 588 586 676
f 551 538 579
f 538 551 537
f 709 537 551
f 537 709 548
f 537 552 538
f 538 552 580
f 710 537 548
f 537 710 552
f 581 555 579
f 555 551 579
f 551 555 711
f 711 709 551
f 580 556 582
f 556 580 552
f 552 712 556
f 712 552 710
f 557 555 581
f 582 556 558
f 713 711 555
f 713 555 557
f 556 714 558
f 714 556 712
f 557 583 559
f 583 557 581
f 584 558 560
f 558 584 582
f 713 559 715
f 559 713 557
f 560 558 714
f 560 714 716
f 675 563 561
f 562 564 676
f 559 717 715
f 717 559 561
f 719 717 561
f 561 563 719
f 718 560 716
f 560 718 562
f 564 718 720
f 718 564 562
f 563 553 721
f 563 721 719
f 720 722 554
f 554 564 720
f 733 731 573
f 733 573 575
f 574 734 576
f 734 574 732
f 729 573 731
f 573 729 571
f 730 574 572
f 574 730 732
f 729 727 569
f 569 571 729
f 570 730 572
f 730 570 728
f 727 725 567
f 567 569 727
f 728 568 726
f 568 728 570
f 677 567 565
f 567 677 569
f 678 568 570
f 568 678 566
f 553 565 723
f 553 723 721
f 565 567 725
f 565 725 723
f 724 554 722
f 554 724 566
f 726 566 724
f 566 726 568
f 679 733 575
f 679 575 577
f 576 680 578
f 680 576 734
f 577 573 677
f 573 577 575
f 571 677 573
f 569 677 571
f 578 678 574
f 578 574 576
f 678 570 572
f 572 574 678
f 599 597 665
f 666 598 600
f 593 543 673
f 673 543 544
f 543 674 544
f 674 543 594
f 673 545 749
f 545 673 544
f 544 674 545
f 545 674 750
f 749 545 747
f 747 545 546
f 545 748 546
f 748 545 750
f 565 667 677
f 667 565 553
f 667 563 675
f 563 667 553
f 583 585 675
f 675 561 559
f 675 559 583
f 676 586 584
f 560 562 676
f 584 560 676
f 587 669 675
f 669 587 589
f 588 670 590
f 670 588 676
f 671 669 589
f 671 589 591
f 590 672 592
f 672 590 670
f 665 595 673
f 595 593 673
f 671 601 665
f 601 671 591
f 665 597 595
f 601 599 665
f 674 596 666
f 596 674 594
f 592 672 602
f 672 666 602
f 596 598 666
f 666 600 602
f 665 749 743
f 749 665 673
f 674 666 750
f 750 666 744
f 749 745 743
f 745 749 747
f 750 746 748
f 746 750 744
f 577 677 739
f 741 739 677
f 737 735 681
f 737 681 679
f 679 577 737
f 739 737 577
f 680 736 738
f 736 680 682
f 578 738 740
f 738 578 680
f 741 667 755
f 667 741 677
f 667 675 755
f 757 755 675
f 757 669 759
f 669 757 675
f 758 760 670
f 670 676 758
f 676 668 756
f 676 756 758
f 668 564 554
f 564 668 676
f 566 668 554
f 668 566 678
f 742 668 678
f 668 742 756
f 740 742 678
f 678 578 740
f 759 671 761
f 671 759 669
f 760 762 672
f 672 670 760
f 761 665 763
f 665 761 671
f 665 765 763
f 765 665 743
f 764 672 762
f 672 764 666
f 744 666 766
f 766 666 764
f 765 745 767
f 745 765 743
f 766 746 744
f 746 766 768
f 681 733 679
f 733 681 707
f 734 682 680
f 682 734 708
f 707 731 733
f 731 707 705
f 732 708 734
f 708 732 706
f 703 731 705
f 731 703 729
f 730 706 732
f 706 730 704
f 701 729 703
f 729 701 727
f 730 702 704
f 702 730 728
f 699 727 701
f 727 699 725
f 728 700 702
f 700 728 726
f 697 725 699
f 725 697 723
f 726 698 700
f 698 726 724
f 697 695 721
f 721 723 697
f 698 722 696
f 722 698 724
f 709 549 548
f 549 709 683
f 549 710 548
f 710 549 684
f 711 683 709
f 683 711 685
f 684 712 710
f 712 684 686
f 695 693 719
f 719 721 695
f 696 720 694
f 720 696 722
f 691 719 693
f 719 691 717
f 720 692 694
f 692 720 718
f 689 717 691
f 717 689 715
f 718 690 692
f 690 718 716
f 711 713 687
f 687 685 711
f 689 713 715
f 713 689 687
f 712 688 714
f 688 712 686
f 714 690 716
f 690 714 688
f 747 547 753
f 547 747 546
f 748 547 546
f 547 748 754
f 745 753 752
f 753 745 747
f 748 746 754
f 754 746 751
f 767 752 769
f 752 767 745
f 751 746 768
f 751 768 770
f 759 761 783
f 783 761 785
f 762 784 786
f 784 762 760
f 757 759 781
f 781 759 783
f 760 782 784
f 782 760 758
f 755 757 779
f 779 757 781
f 758 780 782
f 780 758 756
f 741 755 775
f 775 755 779
f 756 776 780
f 776 756 742
f 773 681 735
f 681 773 771
f 682 774 736
f 774 682 772
f 771 707 681
f 707 771 789
f 708 790 772
f 708 772 682
f 707 789 791
f 707 791 705
f 792 708 706
f 708 792 790
f 703 791 793
f 791 703 705
f 792 706 704
f 792 704 794
f 701 793 795
f 793 701 703
f 794 704 702
f 794 702 796
f 699 795 797
f 795 699 701
f 796 702 700
f 796 700 798
f 697 797 799
f 797 697 699
f 700 698 798
f 798 698 800
f 803 550 683
f 683 550 549
f 550 804 549
f 549 804 684
f 805 683 685
f 683 805 803
f 684 804 806
f 684 806 686
f 805 685 807
f 687 807 685
f 686 808 688
f 808 686 806
f 807 689 809
f 689 807 687
f 808 690 688
f 690 808 810
f 809 691 811
f 691 809 689
f 690 810 692
f 812 692 810
f 811 693 813
f 693 811 691
f 814 694 812
f 694 692 812
f 695 813 693
f 813 695 801
f 695 799 801
f 799 695 697
f 696 814 802
f 814 696 694
f 698 696 800
f 800 696 802
f 815 804 550
f 804 815 846
f 845 550 803
f 550 845 815
f 547 818 816
f 818 547 754
f 753 547 817
f 817 547 816
f 785 763 787
f 763 785 761
f 786 788 764
f 764 762 786
f 767 763 765
f 763 767 787
f 767 769 787
f 764 768 766
f 764 788 768
f 788 770 768
f 783 785 821
f 783 821 823
f 822 784 824
f 784 822 786
f 769 752 819
f 820 751 770
f 819 753 817
f 753 819 752
f 787 769 819
f 787 821 785
f 821 787 819
f 754 820 818
f 754 751 820
f 820 770 788
f 788 822 820
f 822 788 786
f 807 851 849
f 851 807 809
f 810 808 852
f 850 852 808
f 805 845 803
f 845 805 847
f 847 807 849
f 807 847 805
f 806 846 848
f 846 806 804
f 808 848 850
f 848 808 806
f 853 809 811
f 809 853 851
f 854 810 852
f 810 854 812
f 781 783 823
f 781 823 825
f 779 781 825
f 779 825 827
f 825 855 827
f 827 855 857
f 825 853 855
f 811 855 853
f 855 811 813
f 813 857 855
f 857 813 801
f 824 782 826
f 782 824 784
f 826 780 828
f 780 826 782
f 856 828 858
f 828 856 826
f 856 854 826
f 856 812 854
f 812 856 814
f 814 858 802
f 858 814 856
f 841 843 799
f 799 797 841
f 801 843 857
f 843 801 799
f 800 842 798
f 842 800 844
f 802 844 800
f 844 802 858
f 735 777 773
f 737 777 735
f 778 738 736
f 778 736 774
f 777 741 775
f 741 777 739
f 737 739 777
f 771 773 831
f 742 778 776
f 778 742 740
f 778 740 738
f 832 774 772
f 831 773 777
f 789 831 833
f 831 789 771
f 778 774 832
f 834 832 790
f 832 772 790
f 827 843 829
f 843 827 857
f 789 835 791
f 835 789 833
f 793 835 837
f 835 793 791
f 844 858 828
f 844 828 830
f 790 836 834
f 836 790 792
f 792 794 836
f 836 794 838
f 779 829 775
f 829 779 827
f 829 777 775
f 777 829 831
f 829 843 841
f 829 841 839
f 829 833 831
f 833 829 835
f 837 829 839
f 835 829 837
f 837 839 795
f 795 793 837
f 797 839 841
f 839 797 795
f 780 830 828
f 830 780 776
f 776 778 830
f 832 830 778
f 830 842 844
f 842 830 840
f 830 834 836
f 834 830 832
f 830 836 838
f 830 838 840
f 838 796 840
f 796 838 794
f 796 798 840
f 840 798 842
f 815 860 846
f 860 815 861
f 859 815 845
f 815 859 861
f 890 860 861
f 860 890 885
f 886 890 859
f 859 890 861
f 847 870 845
f 870 859 845
f 847 849 870
f 846 871 848
f 871 846 860
f 871 850 848
f 870 892 859
f 892 886 859
f 860 891 871
f 891 860 885
f 870 849 868
f 851 868 849
f 825 851 853
f 851 825 868
f 869 850 871
f 850 869 852
f 869 826 852
f 826 854 852
f 894 892 870
f 894 870 868
f 871 893 869
f 893 871 891
f 866 868 825
f 826 869 867
f 894 866 896
f 866 894 868
f 867 869 893
f 867 893 895
f 864 866 825
f 826 867 865
f 896 864 898
f 864 896 866
f 897 865 895
f 865 867 895
f 825 823 864
f 864 823 862
f 862 898 864
f 898 862 900
f 824 865 863
f 865 824 826
f 897 899 863
f 863 865 897
f 821 862 823
f 862 821 872
f 863 873 822
f 863 822 824
f 872 900 862
f 900 872 902
f 899 901 873
f 899 873 863
f 821 819 883
f 821 883 872
f 884 822 873
f 822 884 820
f 872 883 904
f 872 904 902
f 903 873 901
f 873 903 884
f 881 883 819
f 820 884 882
f 883 881 906
f 906 904 883
f 905 884 903
f 884 905 882
f 879 881 819
f 908 906 881
f 908 881 879
f 820 882 880
f 882 907 880
f 907 882 905
f 877 879 819
f 820 880 878
f 908 877 910
f 877 908 879
f 878 880 907
f 878 907 909
f 819 817 877
f 877 817 874
f 910 874 912
f 874 910 877
f 818 878 875
f 878 818 820
f 911 875 909
f 875 878 909
f 874 816 876
f 816 874 817
f 912 876 913
f 876 912 874
f 875 876 816
f 816 818 875
f 911 913 876
f 876 875 911
f 905 920 907
f 920 905 922
f 919 921 906
f 919 906 908
f 907 920 909
f 909 920 918
f 919 910 917
f 910 919 908
f 916 911 918
f 911 909 918
f 917 912 915
f 912 917 910
f 915 913 914
f 913 915 912
f 916 914 913
f 913 911 916
f 926 899 928
f 899 926 901
f 900 902 925
f 900 925 927
f 895 893 934
f 895 934 932
f 933 896 931
f 896 933 894
f 885 887 936
f 885 936 891
f 893 891 936
f 893 936 934
f 935 894 933
f 894 935 892
f 945 940 947
f 940 945 938
f 918 941 916
f 941 918 939
f 935 886 892
f 886 935 888
f 917 942 940
f 942 917 915
f 887 948 946
f 887 946 936
f 939 948 941
f 948 939 946
f 947 888 935
f 888 947 949
f 940 949 947
f 949 940 942
f 885 890 889
f 889 887 885
f 886 889 890
f 889 886 888
f 943 916 941
f 916 943 914
f 915 943 942
f 943 915 914
f 950 887 889
f 887 950 948
f 949 950 888
f 888 950 889
f 950 943 948
f 943 941 948
f 949 943 950
f 943 949 942
f 899 930 928
f 930 899 897
f 944 928 930
f 944 932 934
f 932 944 930
f 930 897 932
f 897 895 932
f 946 934 936
f 934 946 944
f 900 929 898
f 929 900 927
f 929 927 945
f 945 933 931
f 945 931 929
f 931 898 929
f 898 931 896
f 933 945 947
f 947 935 933
f 922 937 920
f 937 922 924
f 922 903 924
f 903 922 905
f 924 901 926
f 901 924 903
f 924 926 937
f 926 944 937
f 944 926 928
f 920 939 918
f 939 920 937
f 939 944 946
f 944 939 937
f 921 938 923
f 938 921 919
f 921 904 906
f 904 921 923
f 902 904 923
f 902 923 925
f 938 925 923
f 925 945 927
f 945 925 938
f 919 940 938
f 940 919 917
