v 0.092362 -0.000000 0.388492
v 0.094587 -0.000000 0.387935
v 0.145891 -0.000003 0.270334
v 0.147733 -0.000000 0.273901
v 0.130611 -0.000000 0.259669
v 0.122644 -0.000000 0.236560
v 0.125173 -0.000000 0.230568
v 0.146955 -0.015455 0.273572
v 0.146955 0.015455 0.273572
v 0.145595 -0.029926 0.273321
v 0.145596 0.029926 0.273321
v 0.142791 -0.046571 0.272465
v 0.142792 0.046571 0.272465
v 0.139410 -0.059341 0.270766
v 0.139410 0.059341 0.270766
v 0.089890 -0.028386 0.391254
v 0.089890 0.028386 0.391254
v 0.093895 -0.015476 0.388410
v 0.093895 0.015476 0.388410
v 0.107238 -0.000011 0.373851
v 0.120165 -0.000079 0.357143
v 0.131446 -0.000097 0.337078
v 0.140130 -0.000126 0.316203
v 0.145597 -0.000077 0.294847
v 0.106434 0.016896 0.374901
v 0.106441 -0.016919 0.374917
v 0.102028 0.032916 0.377522
v 0.102045 -0.032932 0.377546
v 0.043329 0.057834 0.420480
v 0.043329 -0.057834 0.420480
v 0.053930 0.052968 0.414290
v 0.053930 -0.052968 0.414290
v 0.064265 0.047586 0.408169
v 0.064265 -0.047586 0.408169
v 0.074112 0.041712 0.402006
v 0.074112 -0.041712 0.402006
v 0.082730 0.035638 0.396218
v 0.082730 -0.035638 0.396218
v 0.041449 0.072848 0.415689
v 0.041449 -0.072848 0.415689
v 0.055549 0.069084 0.407346
v 0.055556 -0.069086 0.407352
v 0.068949 0.063674 0.399315
v 0.068954 -0.063671 0.399313
v 0.081876 0.056749 0.391148
v 0.081883 -0.056742 0.391139
v 0.093902 0.046630 0.382827
v 0.093954 -0.046652 0.382876
v 0.118964 0.018085 0.357689
v 0.119008 -0.018171 0.357718
v 0.130698 0.018270 0.337459
v 0.130686 -0.018378 0.337460
v 0.139472 0.017569 0.316335
v 0.139460 -0.017695 0.316337
v 0.145003 0.016564 0.294853
v 0.144998 -0.016647 0.294858
v 0.143459 0.032916 0.294644
v 0.143408 -0.032982 0.294647
v 0.137601 0.035063 0.316292
v 0.137589 -0.035133 0.316302
v 0.128136 0.036584 0.338496
v 0.128120 -0.036633 0.338509
v 0.115206 0.036637 0.360084
v 0.115219 -0.036657 0.360132
v 0.140643 0.049320 0.293922
v 0.140625 -0.049338 0.293937
v 0.134621 0.052340 0.315654
v 0.134580 -0.052374 0.315660
v 0.124188 0.055265 0.338456
v 0.124171 -0.055272 0.338484
v 0.107476 0.057935 0.364285
v 0.107496 -0.057890 0.364406
v 0.089221 0.070761 0.379712
v 0.089333 -0.070739 0.379788
v 0.072929 0.078710 0.390930
v 0.072944 -0.078692 0.390924
v 0.056247 0.085738 0.400643
v 0.056251 -0.085731 0.400643
v 0.038928 0.091666 0.409930
v 0.038928 -0.091666 0.409930
v 0.037047 0.104273 0.405839
v 0.037047 -0.104273 0.405839
v 0.033182 0.122049 0.400240
v 0.033182 -0.122049 0.400240
v 0.030615 0.128314 0.398370
v 0.030615 -0.128314 0.398370
v 0.025081 0.134028 0.397581
v 0.025081 -0.134028 0.397581
v 0.008448 0.139046 0.399545
v 0.008448 -0.139045 0.399544
v 0.136696 0.064493 0.292418
v 0.136702 -0.064503 0.292415
v 0.131044 0.068524 0.313600
v 0.131045 -0.068538 0.313610
v 0.121436 0.072649 0.334658
v 0.121431 -0.072641 0.334672
v 0.107542 0.077442 0.355070
v 0.107520 -0.077407 0.355112
v 0.091859 0.084936 0.370954
v 0.091916 -0.084915 0.371053
v 0.075874 0.091933 0.383314
v 0.075861 -0.091913 0.383325
v 0.058030 0.100614 0.393270
v 0.057985 -0.100588 0.393221
v 0.136659 0.066136 0.265613
v 0.136658 -0.066136 0.265613
v 0.133310 0.070622 0.254288
v 0.133310 -0.070622 0.254288
v 0.127550 0.075293 0.237654
v 0.127550 -0.075293 0.237654
v 0.121144 0.078949 0.221142
v 0.121144 -0.078949 0.221142
v 0.114348 0.082326 0.204986
v 0.114348 -0.082326 0.204986
v 0.107190 0.085296 0.189209
v 0.107190 -0.085296 0.189209
v 0.098856 0.088634 0.171871
v 0.098856 -0.088634 0.171871
v 0.090248 0.090943 0.155030
v 0.090243 -0.090946 0.155034
v 0.079653 0.094214 0.135724
v 0.079675 -0.094224 0.135710
v 0.068679 0.097314 0.116491
v 0.068679 -0.097314 0.116491
v 0.131231 0.079380 0.290861
v 0.131239 -0.079374 0.290846
v 0.123822 0.093856 0.289206
v 0.123846 -0.093852 0.289218
v 0.115523 0.106957 0.287579
v 0.115503 -0.106922 0.287548
v 0.106135 0.119977 0.286468
v 0.106135 -0.119977 0.286468
v 0.105788 0.092476 0.348357
v 0.105781 -0.092451 0.348393
v 0.102499 0.105348 0.343273
v 0.102550 -0.105348 0.343327
v 0.098247 0.116868 0.338769
v 0.098191 -0.116827 0.338720
v 0.093152 0.128184 0.335082
v 0.093136 -0.128173 0.335076
v 0.117430 0.087596 0.330369
v 0.117437 -0.087582 0.330386
v 0.125887 0.083553 0.310962
v 0.125903 -0.083550 0.310967
v 0.119601 0.097604 0.308254
v 0.119661 -0.097622 0.308252
v 0.112288 0.101399 0.326517
v 0.112331 -0.101396 0.326539
v 0.106526 0.113674 0.323143
v 0.106521 -0.113665 0.323129
v 0.112504 0.110350 0.305663
v 0.112527 -0.110354 0.305639
v 0.104770 0.122051 0.303177
v 0.104764 -0.122046 0.303177
v 0.099843 0.125110 0.320727
v 0.099850 -0.125116 0.320729
v 0.084048 0.131183 0.349183
v 0.084046 -0.131181 0.349182
v 0.073661 0.133907 0.361196
v 0.073661 -0.133907 0.361196
v 0.060632 0.137507 0.371915
v 0.060631 -0.137506 0.371914
v 0.042786 0.141357 0.382695
v 0.042786 -0.141357 0.382695
v 0.087892 0.120604 0.353214
v 0.087895 -0.120596 0.353218
v 0.090311 0.109337 0.357733
v 0.090566 -0.109457 0.357974
v 0.092197 0.097544 0.363561
v 0.092231 -0.097570 0.363652
v 0.078729 0.102385 0.375565
v 0.078717 -0.102400 0.375593
v 0.077778 0.113018 0.370311
v 0.077840 -0.113061 0.370357
v 0.075684 0.124241 0.365772
v 0.075569 -0.124153 0.365634
v 0.062446 0.127203 0.376733
v 0.062447 -0.127202 0.376731
v 0.065202 0.115348 0.380884
v 0.065203 -0.115353 0.380879
v 0.067512 0.106228 0.383467
v 0.067525 -0.106252 0.383507
v 0.008247 0.148339 0.392885
v 0.008247 -0.148339 0.392885
v 0.026564 0.145003 0.388741
v 0.026564 -0.145003 0.388741
v 0.048081 0.126506 0.388491
v 0.048089 -0.126507 0.388496
v 0.035526 0.113661 0.402737
v 0.035526 -0.113661 0.402737
v 0.051874 0.114112 0.391605
v 0.051808 -0.114067 0.391508
v 0.138307 0.056861 0.266666
v 0.138307 -0.056861 0.266666
v 0.141016 0.046457 0.269047
v 0.141015 -0.046457 0.269048
v 0.143712 0.029790 0.269730
v 0.143712 -0.029790 0.269730
v 0.145118 0.015308 0.270127
v 0.145118 -0.015308 0.270127
v 0.136895 0.060176 0.263474
v 0.136895 -0.060176 0.263474
v 0.134686 0.062061 0.255932
v 0.134686 -0.062061 0.255932
v 0.132240 0.062097 0.248583
v 0.132240 -0.062097 0.248583
v 0.129723 0.060764 0.241690
v 0.129723 -0.060764 0.241690
v 0.127062 0.057443 0.235279
v 0.127062 -0.057443 0.235279
v 0.125272 0.048401 0.231286
v 0.125272 -0.048401 0.231286
v 0.125041 0.030423 0.230494
v 0.125041 -0.030410 0.230495
v 0.125091 0.014620 0.230544
v 0.125092 -0.014620 0.230544
v 0.130708 -0.014630 0.259682
v 0.130708 0.014630 0.259682
v 0.130834 -0.026124 0.259112
v 0.130834 0.026124 0.259112
v 0.122674 -0.013855 0.236465
v 0.122674 0.013855 0.236465
v 0.122943 0.026465 0.236866
v 0.122940 -0.026465 0.236867
v 0.129637 0.033953 0.254918
v 0.129644 -0.033952 0.254915
v 0.130558 0.030594 0.257706
v 0.130546 -0.030595 0.257713
v 0.124344 0.032976 0.240321
v 0.124345 -0.032976 0.240320
v 0.125855 0.035472 0.244390
v 0.125855 -0.035472 0.244390
v 0.127693 0.035451 0.249493
v 0.127693 -0.035451 0.249493
v 0.058057 -0.099996 0.099209
v 0.058057 0.099996 0.099209
v 0.051804 -0.099961 0.082918
v 0.051804 0.099961 0.082918
v 0.104936 -0.118133 0.268078
v 0.104902 0.118104 0.268086
v 0.115156 -0.104613 0.269343
v 0.115152 0.104623 0.269350
v 0.124628 -0.090638 0.270406
v 0.124518 0.090593 0.270400
v 0.133756 -0.073493 0.270330
v 0.133714 0.073493 0.270331
v 0.122749 -0.088970 0.253100
v 0.122590 0.088910 0.253127
v 0.112388 -0.103317 0.251787
v 0.112340 0.103312 0.251801
v 0.101907 -0.116546 0.251434
v 0.101907 0.116546 0.251434
v 0.118015 -0.089992 0.236423
v 0.117757 0.089847 0.236476
v 0.107554 -0.103081 0.234822
v 0.107321 0.102948 0.234889
v 0.096617 -0.115159 0.234344
v 0.096617 0.115159 0.234344
v 0.090789 -0.114439 0.220079
v 0.090789 0.114439 0.220079
v 0.083686 -0.113930 0.205405
v 0.083686 0.113930 0.205405
v 0.077050 -0.113672 0.192821
v 0.077050 0.113672 0.192821
v 0.068865 -0.113422 0.178276
v 0.068865 0.113422 0.178276
v 0.058872 -0.113461 0.161823
v 0.058872 0.113461 0.161823
v 0.046703 -0.113821 0.144618
v 0.046703 0.113821 0.144618
v 0.034702 -0.114097 0.130069
v 0.034702 0.114097 0.130069
v 0.021573 -0.114163 0.117268
v 0.021573 0.114163 0.117268
v 0.007041 -0.113576 0.105761
v 0.007041 0.113587 0.105760
v 0.112127 -0.091602 0.220571
v 0.112169 0.091669 0.220563
v 0.101679 -0.103336 0.220076
v 0.101671 0.103375 0.220076
v 0.105546 -0.093487 0.204980
v 0.105417 0.093442 0.205024
v 0.094893 -0.104190 0.204906
v 0.094946 0.104352 0.204883
v 0.087470 -0.105203 0.190308
v 0.087500 0.105327 0.190299
v 0.098155 -0.095818 0.189372
v 0.098000 0.095732 0.189427
v 0.089387 -0.098029 0.173202
v 0.089379 0.098037 0.173198
v 0.079044 -0.106450 0.175305
v 0.079033 0.106396 0.175306
v 0.068935 -0.107624 0.158502
v 0.068936 0.107627 0.158505
v 0.079848 -0.100208 0.156337
v 0.079787 0.100112 0.156353
v 0.069276 -0.102330 0.138758
v 0.069280 0.102332 0.138787
v 0.058046 -0.108606 0.141913
v 0.058077 0.108657 0.141940
v 0.058512 -0.103975 0.121700
v 0.058520 0.103990 0.121712
v 0.046886 -0.109367 0.126181
v 0.046892 0.109372 0.126198
v 0.036195 -0.109995 0.111232
v 0.036190 0.109982 0.111252
v 0.048836 -0.105334 0.105622
v 0.048839 0.105336 0.105631
v 0.027434 -0.110011 0.095869
v 0.027453 0.110116 0.095900
v 0.041483 -0.105719 0.089604
v 0.041464 0.105637 0.089621
v 0.007544 -0.111079 0.078546
v 0.007541 0.111088 0.078549
v 0.007674 -0.109817 0.057406
v 0.007653 0.109836 0.057400
v 0.007889 -0.109304 0.038499
v 0.007877 0.109306 0.038460
v 0.025329 -0.108522 0.076048
v 0.025322 0.108526 0.076058
v 0.054831 -0.095523 0.070332
v 0.054881 0.095815 0.070356
v 0.025082 -0.107277 0.056846
v 0.025082 0.107280 0.056822
v 0.008300 -0.108371 0.020456
v 0.008300 0.108337 0.020393
v 0.008241 -0.111862 -0.015236
v 0.008241 0.111862 -0.015236
v 0.120560 -0.062372 0.219676
v 0.120563 0.062376 0.219674
v 0.121317 -0.047924 0.217214
v 0.121103 0.047902 0.217265
v 0.121844 -0.031677 0.216042
v 0.121618 0.031656 0.216094
v 0.122229 -0.015627 0.215714
v 0.122144 0.015604 0.215731
v 0.122547 -0.000020 0.215653
v 0.114857 -0.065395 0.203866
v 0.114793 0.065383 0.203880
v 0.116619 -0.049267 0.201947
v 0.116216 0.049211 0.202061
v 0.117698 -0.032777 0.200754
v 0.117488 0.032764 0.200788
v 0.118303 -0.016303 0.200225
v 0.118180 0.016292 0.200209
v 0.118745 -0.000027 0.200001
v 0.114534 -0.000016 0.183895
v 0.110052 -0.000005 0.167631
v 0.106051 -0.000009 0.151308
v 0.108982 -0.067934 0.188017
v 0.108875 0.067924 0.188061
v 0.102312 -0.070539 0.170769
v 0.102302 0.070534 0.170769
v 0.095434 -0.073214 0.153229
v 0.095435 0.073200 0.153213
v 0.111442 -0.050948 0.186059
v 0.111606 0.050982 0.185997
v 0.106102 -0.053056 0.169197
v 0.106171 0.053074 0.169144
v 0.100693 -0.055377 0.152065
v 0.100752 0.055390 0.152001
v 0.113082 -0.033928 0.184805
v 0.113077 0.034014 0.184756
v 0.108273 -0.035342 0.168270
v 0.108307 0.035447 0.168278
v 0.103563 -0.036977 0.151621
v 0.103583 0.037021 0.151655
v 0.114003 -0.016885 0.184182
v 0.113960 0.016962 0.184151
v 0.109511 -0.017627 0.167761
v 0.109483 0.017711 0.167842
v 0.105243 -0.018486 0.151371
v 0.105256 0.018517 0.151471
v 0.088738 -0.076473 0.134988
v 0.088692 0.076417 0.134976
v 0.095770 -0.058003 0.134875
v 0.095875 0.058036 0.134781
v 0.099898 -0.038801 0.134943
v 0.099773 0.038772 0.134999
v 0.102181 -0.019428 0.135017
v 0.102211 0.019407 0.135081
v 0.103073 -0.000007 0.135063
v 0.102006 0.000002 0.118941
v 0.102716 0.000005 0.103063
v 0.104145 0.000013 0.087324
v 0.105520 0.000021 0.071506
v 0.106851 0.000026 0.055478
v 0.100905 0.020357 0.118834
v 0.100907 -0.020424 0.118826
v 0.101388 0.021299 0.102865
v 0.101329 -0.021442 0.102919
v 0.102368 0.021974 0.087072
v 0.102319 -0.022216 0.087193
v 0.103584 0.022372 0.071201
v 0.103515 -0.022687 0.071420
v 0.104644 0.022690 0.055106
v 0.104550 -0.023026 0.055368
v 0.097864 0.040681 0.118478
v 0.097843 -0.040785 0.118501
v 0.097112 0.042422 0.102372
v 0.096869 -0.042652 0.102483
v 0.096706 0.043538 0.086565
v 0.096844 -0.044177 0.086703
v 0.097238 0.043990 0.070715
v 0.096960 -0.044696 0.071034
v 0.098147 0.044227 0.054659
v 0.097740 -0.044972 0.055066
v 0.091986 0.060709 0.117904
v 0.091802 -0.060703 0.118074
v 0.089317 0.063055 0.101610
v 0.089091 -0.063123 0.101804
v 0.087502 0.064368 0.085816
v 0.087525 -0.064512 0.085880
v 0.087373 0.064086 0.070142
v 0.086840 -0.064293 0.070319
v 0.087585 0.063507 0.054191
v 0.087325 -0.063924 0.054392
v 0.082019 0.079756 0.117319
v 0.081751 -0.079631 0.117493
v 0.076411 0.082458 0.100804
v 0.076229 -0.082401 0.100971
v 0.072399 0.083818 0.084960
v 0.072539 -0.083798 0.084938
v 0.072731 0.081776 0.069873
v 0.072814 -0.081871 0.069853
v 0.073871 0.080023 0.053977
v 0.073696 -0.080169 0.054072
v 0.074874 -0.079077 0.037521
v 0.075094 0.078867 0.037369
v 0.088272 -0.063388 0.037903
v 0.088604 0.062973 0.037664
v 0.098695 -0.044493 0.038429
v 0.098941 0.043864 0.038093
v 0.105768 -0.023272 0.038973
v 0.105912 0.022847 0.038679
v 0.108212 -0.000010 0.039077
v 0.057589 -0.092834 0.054412
v 0.057659 0.092791 0.054366
v 0.059198 -0.091591 0.037591
v 0.059352 0.091502 0.037487
v 0.041001 -0.103924 0.072865
v 0.040978 0.103935 0.072884
v 0.041345 -0.101448 0.055614
v 0.041355 0.101445 0.055594
v 0.025379 -0.106177 0.038441
v 0.025365 0.105922 0.038377
v 0.042491 -0.100381 0.038014
v 0.042418 0.099894 0.037930
v 0.025973 -0.106008 0.020468
v 0.025990 0.106003 0.020415
v 0.043488 -0.100369 0.020388
v 0.043449 0.100069 0.020275
v 0.060444 -0.091358 0.020346
v 0.060417 0.090987 0.020189
v 0.076128 -0.078770 0.020460
v 0.076146 0.078372 0.020281
v 0.089487 -0.062985 0.020807
v 0.089819 0.062525 0.020574
v 0.100141 -0.044230 0.021237
v 0.100350 0.043827 0.021031
v 0.107090 -0.023233 0.021882
v 0.107110 0.023065 0.021793
v 0.109626 -0.000028 0.022050
v 0.110866 -0.000017 0.003883
v 0.108406 -0.022760 0.003612
v 0.108414 0.022778 0.003621
v 0.101582 -0.043880 0.003316
v 0.101747 0.043773 0.003241
v 0.091110 -0.062641 0.003053
v 0.091221 0.062512 0.002973
v 0.077340 -0.078837 0.002866
v 0.077474 0.078732 0.002793
v 0.061235 -0.092018 0.002758
v 0.061295 0.091696 0.002646
v 0.026498 -0.108770 -0.015310
v 0.026498 0.108770 -0.015310
v 0.045077 -0.102530 -0.015320
v 0.045077 0.102530 -0.015320
v 0.062318 -0.093031 -0.015316
v 0.062318 0.093031 -0.015316
v 0.079250 -0.079092 -0.015230
v 0.079250 0.079092 -0.015230
v 0.093236 -0.062004 -0.015298
v 0.093236 0.062004 -0.015298
v 0.103230 -0.043556 -0.015264
v 0.103230 0.043556 -0.015264
v 0.109688 -0.022573 -0.015248
v 0.109688 0.022573 -0.015248
v 0.112124 0.000000 -0.015314
v 0.044115 -0.101346 0.002599
v 0.043965 0.100803 0.002516
v 0.026382 -0.107093 0.002581
v 0.026374 0.107072 0.002558
v 0.008300 -0.109256 0.002549
v 0.008300 0.109236 0.002520
v -0.091434 -0.000000 0.044801
v -0.109042 0.000000 -0.015281
v -0.103217 -0.000047 0.000476
v -0.098287 -0.000000 0.015917
v -0.094398 -0.000003 0.030671
v -0.010498 0.111126 -0.015220
v -0.010498 -0.111126 -0.015220
v -0.029751 0.107244 -0.015266
v -0.029751 -0.107244 -0.015266
v -0.049725 0.098959 -0.015181
v -0.049725 -0.098959 -0.015181
v -0.066570 0.087996 -0.015227
v -0.066570 -0.087996 -0.015227
v -0.082017 0.073198 -0.015205
v -0.082017 -0.073198 -0.015205
v -0.094620 0.055303 -0.015189
v -0.094620 -0.055303 -0.015189
v -0.102720 0.037467 -0.015255
v -0.102720 -0.037467 -0.015255
v -0.107286 0.019961 -0.015293
v -0.107286 -0.019961 -0.015293
v -0.010598 0.109642 0.002591
v -0.010567 -0.109665 0.002637
v -0.029359 0.105617 0.002580
v -0.029341 -0.105674 0.002618
v -0.047684 0.098133 0.002794
v -0.047590 -0.098037 0.002813
v -0.064414 0.087169 0.002880
v -0.064429 -0.087168 0.002901
v -0.079203 0.072377 0.002366
v -0.079207 -0.072341 0.002356
v -0.090411 0.055160 0.001661
v -0.090404 -0.055157 0.001655
v -0.097659 0.037246 0.001072
v -0.097679 -0.037263 0.001079
v -0.101736 0.018976 0.000637
v -0.101738 -0.019026 0.000635
v -0.010346 0.108789 0.020255
v -0.010217 -0.108902 0.020393
v -0.028473 0.105057 0.020216
v -0.028350 -0.104858 0.020266
v -0.045512 0.097668 0.020635
v -0.045556 -0.097642 0.020675
v -0.061428 0.086939 0.021263
v -0.061780 -0.087213 0.021356
v -0.076648 0.072112 0.019865
v -0.076629 -0.072004 0.019850
v -0.087365 0.054841 0.018214
v -0.087249 -0.054862 0.018208
v -0.093875 0.037057 0.016989
v -0.093917 -0.037071 0.016981
v -0.097278 0.018717 0.016203
v -0.097304 -0.018736 0.016197
v -0.093609 0.018672 0.030970
v -0.093678 -0.018687 0.030981
v -0.090582 0.036750 0.032060
v -0.090660 -0.036712 0.032068
v -0.084917 0.054142 0.034146
v -0.084939 -0.054089 0.034134
v -0.074693 0.071601 0.037323
v -0.074946 -0.071518 0.037293
v -0.057518 0.089026 0.041791
v -0.057656 -0.088970 0.041776
v -0.043205 0.098407 0.038171
v -0.043268 -0.098378 0.038179
v -0.027455 0.105056 0.037239
v -0.027460 -0.105041 0.037266
v -0.010103 0.108689 0.037938
v -0.010070 -0.108651 0.037985
v -0.090503 -0.019122 0.044702
v -0.090503 0.019122 0.044702
v -0.087976 -0.036699 0.046047
v -0.087976 0.036699 0.046047
v -0.083176 -0.052676 0.049668
v -0.083075 0.052635 0.049651
v -0.075191 -0.068520 0.053838
v -0.075178 0.068512 0.053836
v -0.062835 -0.083534 0.058999
v -0.062859 0.083559 0.059000
v -0.045077 -0.097065 0.068833
v -0.045077 0.097065 0.068833
v -0.029670 -0.104712 0.078768
v -0.029670 0.104712 0.078768
v -0.009808 -0.110778 0.093324
v -0.009808 0.110778 0.093324
v -0.009994 -0.108998 0.055945
v -0.009997 0.109005 0.055934
v -0.009983 -0.109688 0.074199
v -0.009972 0.109691 0.074194
v -0.026930 -0.105146 0.052656
v -0.026916 0.105157 0.052652
v -0.027655 -0.105059 0.064384
v -0.027583 0.104989 0.064408
v -0.040728 -0.099546 0.053070
v -0.040687 0.099570 0.053076
v -0.125630 -0.000000 0.165645
v -0.133940 -0.000000 0.175565
v -0.160813 -0.000000 0.222177
v -0.039695 0.077013 0.451721
v -0.039695 -0.077013 0.451721
v -0.039016 0.088151 0.441671
v -0.039016 -0.088151 0.441671
v -0.038412 0.100014 0.431538
v -0.038412 -0.100014 0.431538
v -0.037657 0.111261 0.422674
v -0.037657 -0.111261 0.422674
v -0.036712 0.121213 0.415359
v -0.036712 -0.121213 0.415359
v -0.034885 0.133110 0.406524
v -0.034885 -0.133110 0.406524
v -0.032914 0.137499 0.403289
v -0.032914 -0.137499 0.403289
v -0.026718 0.140641 0.401758
v -0.026718 -0.140641 0.401758
v -0.011916 0.141965 0.400969
v -0.011916 -0.141965 0.400969
v -0.011622 0.150332 0.393944
v -0.011622 -0.150332 0.393944
v -0.050973 0.074481 0.451124
v -0.050973 -0.074481 0.451124
v -0.062802 0.069426 0.448778
v -0.062756 -0.069377 0.448684
v -0.074550 0.064163 0.443495
v -0.074530 -0.064142 0.443473
v -0.084948 0.060060 0.435903
v -0.084893 -0.060047 0.435848
v -0.094935 0.057810 0.424265
v -0.094935 -0.057810 0.424265
v -0.105007 0.055947 0.408662
v -0.105004 -0.055945 0.408660
v -0.113905 0.054898 0.391186
v -0.113905 -0.054898 0.391186
v -0.132309 0.055809 0.348764
v -0.132309 -0.055809 0.348764
v -0.147906 0.068220 0.284542
v -0.147906 -0.068220 0.284542
v -0.151746 0.064320 0.265081
v -0.151746 -0.064320 0.265081
v -0.155070 0.055023 0.247659
v -0.155070 -0.055023 0.247659
v -0.158162 0.039154 0.232703
v -0.158162 -0.039154 0.232703
v -0.160023 0.020975 0.224467
v -0.160023 -0.020975 0.224467
v -0.123565 0.054658 0.370081
v -0.123565 -0.054658 0.370081
v -0.050784 0.085808 0.440675
v -0.050775 -0.085789 0.440654
v -0.050197 0.097948 0.430136
v -0.050193 -0.097982 0.430183
v -0.049462 0.110022 0.420516
v -0.049471 -0.110071 0.420575
v -0.048666 0.122279 0.411058
v -0.048669 -0.122302 0.411085
v -0.047725 0.135513 0.400920
v -0.047712 -0.135492 0.400885
v -0.047105 0.151551 0.387858
v -0.047062 -0.151455 0.387745
v -0.028958 0.151549 0.392252
v -0.028958 -0.151549 0.392252
v -0.058298 0.151123 0.382882
v -0.058298 -0.151122 0.382881
v -0.068720 0.150066 0.376873
v -0.068720 -0.150066 0.376873
v -0.059272 0.135624 0.394962
v -0.059294 -0.135658 0.394993
v -0.070425 0.134327 0.388708
v -0.070417 -0.134328 0.388712
v -0.062344 0.082021 0.437864
v -0.062299 -0.082018 0.437857
v -0.073709 0.079437 0.431460
v -0.073613 -0.079417 0.431459
v -0.072422 0.094744 0.419800
v -0.072402 -0.094749 0.419815
v -0.061622 0.095986 0.426268
v -0.061612 -0.096006 0.426298
v -0.060714 0.108921 0.416073
v -0.060736 -0.108977 0.416145
v -0.070681 0.107601 0.410542
v -0.070669 -0.107609 0.410562
v -0.070794 0.120050 0.400372
v -0.070774 -0.120065 0.400393
v -0.060105 0.121818 0.405796
v -0.060165 -0.121942 0.405942
v -0.153583 -0.022443 0.212925
v -0.153613 0.022409 0.212929
v -0.153791 -0.000047 0.209846
v -0.144995 -0.000031 0.194413
v -0.145219 -0.024759 0.197919
v -0.145236 0.024757 0.197919
v -0.134148 -0.027905 0.178906
v -0.134148 0.027905 0.178906
v -0.143759 -0.066583 0.305846
v -0.143759 0.066583 0.305846
v -0.140274 -0.062364 0.322177
v -0.140274 0.062364 0.322177
v -0.152608 -0.043190 0.222093
v -0.152654 0.043110 0.222087
v -0.150094 -0.060557 0.237935
v -0.150094 0.060557 0.237935
v -0.146440 -0.072569 0.256789
v -0.146440 0.072569 0.256789
v -0.139864 -0.082874 0.284302
v -0.139734 0.082768 0.284236
v -0.138820 -0.075532 0.306835
v -0.138606 0.075474 0.306789
v -0.084025 -0.078596 0.421334
v -0.084100 0.078638 0.421393
v -0.081753 -0.095719 0.409733
v -0.081788 0.095733 0.409748
v -0.077874 -0.106289 0.405174
v -0.077887 0.106283 0.405162
v -0.080372 -0.115307 0.395100
v -0.080369 0.115289 0.395072
v -0.080885 -0.130925 0.381529
v -0.080843 0.130892 0.381477
v -0.080281 -0.147958 0.367854
v -0.080281 0.147958 0.367854
v -0.089359 -0.144889 0.358454
v -0.089359 0.144889 0.358454
v -0.098398 -0.140936 0.345042
v -0.098390 0.140932 0.345038
v -0.105817 -0.135909 0.330752
v -0.105881 0.135934 0.330772
v -0.112343 -0.130226 0.315099
v -0.112352 0.130229 0.315102
v -0.090571 -0.103143 0.392475
v -0.090576 0.103140 0.392469
v -0.090937 -0.125080 0.373306
v -0.090941 0.125081 0.373302
v -0.094178 -0.079336 0.407501
v -0.094187 0.079339 0.407506
v -0.102561 -0.099178 0.375707
v -0.102571 0.099177 0.375710
v -0.100886 -0.120351 0.359687
v -0.100883 0.120355 0.359683
v -0.104467 -0.077349 0.391413
v -0.104466 0.077349 0.391418
v -0.113485 -0.075104 0.374430
v -0.113490 0.075101 0.374434
v -0.111969 -0.095343 0.358945
v -0.111980 0.095340 0.358936
v -0.109529 -0.115522 0.344109
v -0.109530 0.115532 0.344101
v -0.117669 -0.109943 0.326588
v -0.117703 0.109940 0.326569
v -0.120612 -0.091159 0.341316
v -0.120615 0.091160 0.341308
v -0.121868 -0.073311 0.356178
v -0.121869 0.073311 0.356178
v -0.118836 -0.123161 0.295454
v -0.118836 0.123161 0.295454
v -0.127161 -0.101436 0.303596
v -0.127176 0.101417 0.303578
v -0.129400 -0.085059 0.322337
v -0.129558 0.085139 0.322381
v -0.130222 -0.071685 0.337165
v -0.130211 0.071678 0.337162
v -0.137529 -0.069564 0.319674
v -0.137518 0.069570 0.319682
v -0.128027 -0.104902 0.285535
v -0.128170 0.104910 0.285505
v -0.123977 -0.114802 0.277427
v -0.123977 0.114802 0.277427
v -0.144342 -0.048146 0.208125
v -0.144633 0.048151 0.208019
v -0.142215 -0.068523 0.225362
v -0.142215 0.068523 0.225362
v -0.139222 -0.083441 0.247217
v -0.139222 0.083441 0.247217
v -0.134639 -0.094314 0.268351
v -0.134605 0.094284 0.268339
v -0.128108 -0.105476 0.257331
v -0.128135 0.105490 0.257329
v -0.133872 -0.054957 0.190080
v -0.133853 0.054946 0.190094
v -0.132604 -0.077430 0.210750
v -0.132604 0.077430 0.210750
v -0.130570 -0.095709 0.237811
v -0.130568 0.095707 0.237811
v 0.028525 0.063738 0.428586
v 0.028525 -0.063738 0.428586
v 0.012602 0.069670 0.436516
v 0.012602 -0.069670 0.436516
v -0.004496 0.075128 0.443535
v -0.004496 -0.075128 0.443535
v -0.021761 0.077960 0.448942
v -0.021761 -0.077960 0.448942
v 0.022247 0.125667 0.403459
v 0.022247 -0.125667 0.403459
v -0.023522 0.132080 0.408435
v -0.023522 -0.132080 0.408435
v -0.008926 0.131363 0.407975
v -0.008926 -0.131363 0.407975
v 0.007567 0.129113 0.406146
v 0.007567 -0.129113 0.406146
v -0.022269 0.089219 0.439835
v -0.022269 -0.089219 0.439835
v -0.005686 0.087585 0.435527
v -0.005686 -0.087585 0.435527
v 0.011304 0.083355 0.429848
v 0.011304 -0.083355 0.429848
v 0.026963 0.078361 0.422973
v 0.026963 -0.078361 0.422973
v 0.024849 0.093375 0.417531
v 0.024849 -0.093375 0.417531
v 0.009572 0.096538 0.423497
v 0.009572 -0.096538 0.423497
v -0.006560 0.099272 0.428060
v -0.006560 -0.099272 0.428060
v -0.022591 0.100616 0.431082
v -0.022591 -0.100616 0.431082
v -0.022740 0.111614 0.423095
v -0.022740 -0.111614 0.423095
v -0.007261 0.110512 0.421036
v -0.007261 -0.110512 0.421036
v 0.008402 0.108472 0.417463
v 0.008402 -0.108472 0.417463
v 0.023328 0.105974 0.412589
v 0.023328 -0.105974 0.412589
v 0.022398 0.116408 0.408022
v 0.022398 -0.116408 0.408022
v 0.007806 0.119337 0.411731
v 0.007806 -0.119337 0.411731
v -0.007812 0.121135 0.414502
v -0.007812 -0.121135 0.414502
v -0.022903 0.121933 0.415797
v -0.022903 -0.121933 0.415797
v -0.125184 -0.029637 0.169447
v -0.125184 0.029637 0.169447
v -0.124201 -0.057723 0.182304
v -0.124201 0.057723 0.182304
v -0.122448 -0.079153 0.203648
v -0.122448 0.079153 0.203648
v -0.120716 -0.097815 0.232997
v -0.120714 0.097810 0.233000
v -0.117820 -0.107836 0.252176
v -0.117833 0.107886 0.252154
v -0.114264 -0.117386 0.272239
v -0.114265 0.117389 0.272238
v -0.110341 -0.125036 0.289624
v -0.110344 0.125051 0.289619
v -0.104250 -0.133154 0.309094
v -0.104250 0.133154 0.309094
v -0.098486 -0.138927 0.324265
v -0.098486 0.138927 0.324265
v -0.092245 -0.143539 0.337494
v -0.092236 0.143504 0.337501
v -0.084104 -0.147762 0.350620
v -0.084104 0.147762 0.350620
v -0.075446 -0.150541 0.359947
v -0.075398 0.150567 0.359892
v -0.064248 -0.152950 0.368835
v -0.064248 0.152950 0.368835
v -0.055023 -0.153901 0.374399
v -0.055023 0.153901 0.374399
v -0.043931 -0.154711 0.378851
v -0.043931 0.154711 0.378851
v -0.027280 -0.154461 0.382895
v -0.027280 0.154468 0.382896
v -0.009775 -0.153087 0.384637
v -0.009775 0.153088 0.384637
v 0.008667 -0.150530 0.383432
v 0.008667 0.150530 0.383432
v 0.025597 -0.147871 0.379631
v 0.025596 0.147867 0.379631
v 0.040685 -0.144993 0.373716
v 0.040688 0.145002 0.373717
v 0.057402 -0.141231 0.363653
v 0.057407 0.141245 0.363654
v 0.068525 -0.138268 0.354550
v 0.068525 0.138268 0.354550
v 0.078281 -0.135287 0.343804
v 0.078282 0.135290 0.343805
v 0.086737 -0.132276 0.331391
v 0.086739 0.132280 0.331391
v 0.092736 -0.129737 0.317682
v 0.092736 0.129737 0.317682
v 0.097068 -0.127090 0.300391
v 0.097069 0.127093 0.300391
v 0.098026 -0.125231 0.285136
v 0.098030 0.125237 0.285136
v 0.097001 -0.123254 0.268709
v 0.097000 0.123251 0.268709
v 0.093453 -0.121677 0.252269
v 0.093453 0.121677 0.252269
v 0.088271 -0.120202 0.236439
v 0.088274 0.120208 0.236437
v 0.082951 -0.119095 0.223366
v 0.082951 0.119095 0.223366
v 0.075796 -0.118111 0.208532
v 0.075796 0.118111 0.208532
v 0.069518 -0.117434 0.196511
v 0.069522 0.117448 0.196508
v 0.061243 -0.116919 0.182389
v 0.061245 0.116923 0.182389
v 0.050670 -0.116612 0.166358
v 0.050670 0.116612 0.166358
v 0.039773 -0.116368 0.151043
v 0.039773 0.116365 0.151044
v 0.028182 -0.116083 0.136884
v 0.028182 0.116083 0.136884
v 0.017848 -0.115519 0.125511
v 0.017848 0.115519 0.125511
v 0.006147 -0.114410 0.113850
v 0.006147 0.114410 0.113850
v -0.011442 -0.110712 0.096922
v -0.011442 0.110712 0.096922
v -0.091035 -0.000000 0.047682
v -0.090189 -0.019427 0.048014
v -0.090170 0.019425 0.048011
v -0.087682 -0.036547 0.049341
v -0.087658 0.036542 0.049339
v -0.083063 -0.051825 0.052619
v -0.083034 0.051814 0.052616
v -0.075353 -0.067805 0.056408
v -0.075316 0.067778 0.056409
v -0.063458 -0.082789 0.061956
v -0.063475 0.082803 0.061957
v -0.046300 -0.096474 0.071502
v -0.046312 0.096496 0.071501
v -0.031060 -0.104412 0.081765
v -0.031058 0.104408 0.081765
v -0.159879 -0.000000 0.225093
v -0.159213 -0.019991 0.227776
v -0.159213 0.019991 0.227776
v -0.157374 -0.037069 0.235946
v -0.157374 0.037069 0.235946
v -0.154364 -0.051608 0.250360
v -0.154364 0.051608 0.250360
v -0.151483 -0.060185 0.266240
v -0.151483 0.060185 0.266240
v -0.147125 -0.064508 0.289276
v -0.147125 0.064508 0.289276
v -0.143959 -0.063327 0.305231
v -0.143958 0.063327 0.305231
v -0.140422 -0.059968 0.321400
v -0.140422 0.059968 0.321400
v -0.132570 -0.053144 0.348055
v -0.132569 0.053144 0.348055
v -0.123911 -0.051555 0.370516
v -0.123911 0.051555 0.370516
v -0.113792 -0.051973 0.392507
v -0.113878 0.051986 0.392549
v -0.104924 -0.052941 0.409755
v -0.104910 0.052937 0.409748
v -0.094834 -0.054802 0.425797
v -0.094827 0.054800 0.425792
v -0.084567 -0.057380 0.437103
v -0.084567 0.057380 0.437103
v 0.091482 0.014932 0.389130
v 0.091526 -0.014939 0.389076
v 0.088067 0.027468 0.391823
v 0.088068 -0.027467 0.391826
v 0.081241 0.034526 0.396961
v 0.081240 -0.034526 0.396958
v 0.073009 0.040328 0.402722
v 0.073019 -0.040328 0.402737
v 0.063642 0.045778 0.408820
v 0.063642 -0.045778 0.408820
v 0.053463 0.051018 0.414946
v 0.053470 -0.051019 0.414956
v 0.043400 0.055665 0.420837
v 0.043400 -0.055665 0.420837
v 0.028394 0.061803 0.428940
v 0.028394 -0.061803 0.428940
v 0.012179 0.067391 0.436933
v 0.012179 -0.067391 0.436933
v -0.004420 0.072589 0.444249
v -0.004420 -0.072589 0.444249
v -0.021575 0.075654 0.449784
v -0.021575 -0.075654 0.449784
v -0.039692 0.074823 0.453059
v -0.039692 -0.074823 0.453059
v -0.074109 0.061669 0.444739
v -0.074110 -0.061669 0.444741
v -0.062183 0.067460 0.449934
v -0.062142 -0.067424 0.449849
v -0.051035 0.071811 0.452661
v -0.051035 -0.071811 0.452660
f 50 20 26
f 20 50 21
f 20 21 49
f 20 49 25
f 64 26 28
f 26 64 50
f 25 49 63
f 63 27 25
f 52 21 50
f 21 52 22
f 62 50 64
f 50 62 52
f 21 22 51
f 21 51 49
f 49 51 61
f 49 61 63
f 54 22 52
f 22 54 23
f 22 23 53
f 22 53 51
f 60 52 62
f 52 60 54
f 51 53 59
f 51 59 61
f 56 23 54
f 23 56 24
f 58 54 60
f 54 58 56
f 23 24 55
f 23 55 53
f 53 55 57
f 53 57 59
f 63 47 27
f 47 63 71
f 64 48 72
f 48 64 28
f 63 61 69
f 69 71 63
f 70 64 72
f 64 70 62
f 61 59 67
f 61 67 69
f 68 62 70
f 62 68 60
f 59 57 65
f 59 65 67
f 66 60 68
f 60 66 58
f 41 75 77
f 75 41 43
f 76 42 78
f 42 76 44
f 73 47 71
f 47 73 45
f 43 73 75
f 73 43 45
f 74 48 46
f 48 74 72
f 74 44 76
f 44 74 46
f 69 97 71
f 97 69 95
f 98 96 70
f 70 72 98
f 145 149 147
f 149 145 151
f 150 152 146
f 146 148 150
f 67 65 91
f 67 91 93
f 67 95 69
f 95 67 93
f 93 141 95
f 141 93 143
f 143 147 141
f 147 143 145
f 92 68 94
f 68 92 66
f 96 94 68
f 68 70 96
f 142 144 94
f 94 96 142
f 148 146 144
f 144 142 148
f 99 73 97
f 73 71 97
f 98 74 100
f 74 98 72
f 101 75 99
f 75 73 99
f 100 76 102
f 76 100 74
f 95 133 97
f 133 95 141
f 96 134 142
f 134 96 98
f 141 135 133
f 135 141 147
f 142 136 148
f 136 142 134
f 147 137 135
f 137 147 149
f 148 138 150
f 138 148 136
f 167 135 165
f 135 137 165
f 136 166 138
f 166 136 168
f 167 169 133
f 133 135 167
f 99 97 169
f 169 97 133
f 134 168 136
f 168 134 170
f 98 170 134
f 170 98 100
f 101 99 171
f 171 99 169
f 100 172 170
f 172 100 102
f 169 173 171
f 173 169 167
f 170 174 168
f 174 170 172
f 167 175 173
f 175 167 165
f 168 176 166
f 176 168 174
f 175 179 173
f 179 175 177
f 101 181 103
f 181 101 171
f 176 180 178
f 180 176 174
f 102 182 172
f 102 104 182
f 103 77 101
f 77 75 101
f 102 78 104
f 78 102 76
f 177 191 179
f 191 177 187
f 179 103 181
f 103 179 191
f 173 181 171
f 181 173 179
f 178 192 188
f 192 178 180
f 104 192 180
f 104 180 182
f 180 174 182
f 174 172 182
f 12 58 66
f 58 12 10
f 57 13 65
f 13 57 11
f 56 8 24
f 8 4 24
f 10 56 58
f 56 10 8
f 24 9 55
f 9 24 4
f 55 11 57
f 11 55 9
f 4 199 9
f 199 4 3
f 4 8 200
f 200 3 4
f 9 197 11
f 197 9 199
f 8 10 198
f 198 200 8
f 13 193 15
f 193 13 195
f 197 13 11
f 13 197 195
f 12 198 10
f 198 12 196
f 199 220 197
f 220 199 218
f 197 227 195
f 197 220 227
f 198 219 200
f 219 217 200
f 198 228 219
f 228 198 196
f 225 193 195
f 225 195 227
f 201 193 225
f 205 203 233
f 196 226 228
f 226 196 194
f 226 194 202
f 234 204 206
f 233 207 205
f 207 233 231
f 225 203 201
f 203 225 233
f 208 234 206
f 234 208 232
f 204 226 202
f 226 204 234
f 3 5 218
f 3 218 199
f 217 3 200
f 3 217 5
f 12 66 14
f 92 14 66
f 12 14 194
f 194 196 12
f 65 15 91
f 15 65 13
f 146 130 128
f 130 146 152
f 145 129 151
f 129 145 127
f 92 94 126
f 126 94 144
f 144 128 126
f 128 144 146
f 93 125 143
f 125 93 91
f 143 127 145
f 127 143 125
f 206 204 108
f 241 128 130
f 128 241 243
f 127 242 129
f 242 127 244
f 243 126 128
f 126 243 245
f 107 203 205
f 125 244 127
f 244 125 246
f 14 202 194
f 202 14 106
f 106 14 245
f 106 108 204
f 106 204 202
f 245 108 106
f 14 92 245
f 126 245 92
f 15 201 105
f 201 15 193
f 246 15 105
f 203 105 201
f 105 203 107
f 105 107 246
f 91 246 125
f 246 91 15
f 110 206 108
f 206 110 208
f 109 107 205
f 109 205 207
f 243 247 245
f 247 108 245
f 246 248 244
f 248 246 107
f 241 249 243
f 249 247 243
f 244 250 242
f 250 244 248
f 247 110 108
f 110 247 253
f 249 253 247
f 253 249 255
f 109 248 107
f 248 109 254
f 248 254 250
f 254 256 250
f 293 297 295
f 297 293 299
f 299 301 297
f 301 299 303
f 300 294 298
f 294 296 298
f 304 300 302
f 300 298 302
f 285 289 287
f 289 285 291
f 291 295 289
f 295 291 293
f 292 286 290
f 286 288 290
f 294 292 296
f 292 290 296
f 255 277 253
f 277 255 279
f 279 281 277
f 281 279 283
f 283 287 281
f 287 283 285
f 278 256 254
f 256 278 280
f 282 280 278
f 280 282 284
f 286 284 288
f 284 282 288
f 307 303 305
f 303 307 301
f 304 308 306
f 308 304 302
f 253 277 112
f 253 112 110
f 111 254 109
f 254 111 278
f 210 208 110
f 232 208 210
f 109 207 209
f 209 207 231
f 277 281 114
f 277 114 112
f 113 278 111
f 278 113 282
f 232 212 230
f 212 232 210
f 209 231 211
f 211 231 229
f 230 214 224
f 214 230 212
f 211 229 213
f 213 229 223
f 224 216 221
f 216 224 214
f 222 215 223
f 215 213 223
f 216 7 221
f 221 7 6
f 7 222 6
f 222 7 215
f 216 337 7
f 337 216 335
f 337 215 7
f 215 337 336
f 214 335 216
f 335 214 333
f 336 213 215
f 213 336 334
f 212 331 214
f 331 333 214
f 213 332 211
f 332 213 334
f 110 329 210
f 329 110 112
f 329 212 210
f 212 329 331
f 209 330 109
f 330 111 109
f 211 332 330
f 330 209 211
f 112 338 329
f 338 112 114
f 330 339 111
f 339 113 111
f 281 287 116
f 281 116 114
f 115 282 113
f 282 115 288
f 287 289 118
f 287 118 116
f 117 288 115
f 288 117 290
f 289 120 118
f 120 289 295
f 290 119 296
f 119 290 117
f 338 331 329
f 331 338 340
f 339 332 341
f 332 339 330
f 114 350 338
f 350 114 116
f 339 351 113
f 351 115 113
f 116 352 350
f 352 116 118
f 351 353 115
f 353 117 115
f 331 342 333
f 342 331 340
f 334 343 332
f 343 341 332
f 338 356 340
f 356 338 350
f 341 357 339
f 357 351 339
f 350 358 356
f 358 350 352
f 357 359 351
f 359 353 351
f 333 344 335
f 344 333 342
f 336 345 334
f 345 343 334
f 340 362 342
f 362 340 356
f 343 363 341
f 363 357 341
f 342 368 344
f 368 342 362
f 345 369 343
f 369 363 343
f 356 364 362
f 364 356 358
f 363 365 357
f 365 359 357
f 362 370 368
f 370 362 364
f 369 371 363
f 371 365 363
f 337 346 336
f 346 345 336
f 368 348 347
f 348 368 370
f 335 346 337
f 346 335 344
f 344 347 346
f 347 344 368
f 346 347 345
f 347 369 345
f 347 348 369
f 348 371 369
f 122 120 295
f 122 295 297
f 296 121 298
f 121 296 119
f 349 371 348
f 371 349 373
f 370 372 349
f 370 349 348
f 382 373 349
f 373 382 381
f 372 382 349
f 382 372 380
f 373 365 371
f 365 373 367
f 364 366 372
f 364 372 370
f 381 367 373
f 367 381 379
f 366 380 372
f 380 366 378
f 383 381 382
f 381 383 388
f 380 389 383
f 380 383 382
f 384 388 383
f 388 384 390
f 389 391 384
f 389 384 383
f 385 390 384
f 390 385 392
f 391 393 385
f 391 385 384
f 386 392 385
f 392 386 394
f 393 395 386
f 393 386 385
f 367 359 365
f 359 367 361
f 358 360 366
f 358 366 364
f 379 361 367
f 361 379 377
f 360 378 366
f 378 360 376
f 388 379 381
f 379 388 398
f 378 399 389
f 378 389 380
f 390 398 388
f 398 390 400
f 399 401 391
f 399 391 389
f 392 400 390
f 400 392 402
f 401 403 393
f 401 393 391
f 394 402 392
f 402 394 404
f 403 405 395
f 403 395 393
f 353 355 117
f 355 119 117
f 361 353 359
f 353 361 355
f 118 354 352
f 354 118 120
f 352 354 360
f 352 360 358
f 355 375 119
f 375 121 119
f 377 355 361
f 355 377 375
f 120 374 354
f 374 120 122
f 354 376 360
f 376 354 374
f 298 123 302
f 123 298 121
f 398 377 379
f 377 398 408
f 124 122 297
f 124 297 301
f 376 409 399
f 376 399 378
f 375 418 121
f 418 123 121
f 408 375 377
f 375 408 418
f 122 419 374
f 419 122 124
f 374 419 409
f 374 409 376
f 302 236 308
f 236 302 123
f 400 408 398
f 408 400 410
f 235 124 301
f 235 301 307
f 409 411 401
f 409 401 399
f 418 420 123
f 420 236 123
f 410 418 408
f 418 410 420
f 124 421 419
f 421 124 235
f 419 421 411
f 419 411 409
f 402 410 400
f 410 402 412
f 411 413 403
f 411 403 401
f 238 236 422
f 422 236 420
f 412 420 410
f 420 412 422
f 235 423 421
f 423 235 237
f 421 423 413
f 421 413 411
f 404 412 402
f 412 404 414
f 413 415 405
f 413 405 403
f 412 414 424
f 412 424 422
f 425 413 423
f 413 425 415
f 415 417 407
f 415 407 405
f 406 414 404
f 414 406 416
f 405 407 397
f 405 397 395
f 396 404 394
f 404 396 406
f 395 397 387
f 395 387 386
f 387 394 386
f 394 387 396
f 235 311 237
f 311 235 307
f 312 236 238
f 236 312 308
f 427 415 425
f 415 427 417
f 414 416 426
f 414 426 424
f 311 305 309
f 305 311 307
f 306 312 310
f 312 306 308
f 423 321 425
f 321 423 237
f 424 322 422
f 322 238 422
f 311 319 441
f 319 311 309
f 441 237 311
f 237 441 321
f 442 320 312
f 320 310 312
f 322 442 238
f 442 312 238
f 425 437 427
f 437 425 321
f 426 438 424
f 438 322 424
f 443 321 441
f 321 443 437
f 441 323 443
f 323 441 319
f 438 444 322
f 444 442 322
f 444 324 442
f 324 320 442
f 436 396 387
f 396 436 435
f 463 435 436
f 435 463 462
f 397 436 387
f 436 397 434
f 434 463 436
f 463 434 461
f 435 406 396
f 406 435 433
f 462 433 435
f 433 462 460
f 407 434 397
f 434 407 432
f 432 461 434
f 461 432 459
f 406 431 416
f 431 406 433
f 417 432 407
f 432 417 430
f 416 429 426
f 429 416 431
f 427 428 417
f 428 430 417
f 429 440 426
f 440 438 426
f 454 429 456
f 429 454 440
f 427 439 428
f 439 427 437
f 428 439 453
f 428 453 455
f 448 438 440
f 438 448 444
f 437 443 447
f 437 447 439
f 448 446 444
f 446 324 444
f 443 445 447
f 445 443 323
f 447 445 449
f 447 449 451
f 439 447 451
f 439 451 453
f 452 440 454
f 440 452 448
f 473 490 477
f 473 477 479
f 478 474 480
f 474 478 491
f 490 492 475
f 490 475 477
f 450 448 452
f 448 450 446
f 451 492 490
f 492 451 449
f 491 493 452
f 493 450 452
f 476 491 478
f 491 476 493
f 471 479 481
f 479 471 473
f 453 490 473
f 490 453 451
f 480 472 482
f 472 480 474
f 474 491 454
f 491 452 454
f 428 457 430
f 457 428 455
f 430 459 432
f 459 430 457
f 431 456 429
f 456 431 458
f 460 431 433
f 431 460 458
f 481 469 471
f 469 481 483
f 455 473 471
f 473 455 453
f 484 482 470
f 470 482 472
f 472 474 456
f 474 454 456
f 483 467 469
f 467 483 485
f 455 471 469
f 455 469 457
f 486 484 468
f 468 484 470
f 470 456 458
f 456 470 472
f 485 465 467
f 465 485 487
f 469 459 457
f 459 469 467
f 488 486 466
f 466 486 468
f 468 458 460
f 458 468 470
f 487 464 465
f 464 487 489
f 467 461 459
f 461 467 465
f 465 463 461
f 463 465 464
f 464 462 463
f 462 464 466
f 488 464 489
f 464 488 466
f 466 460 462
f 460 466 468
f 328 493 476
f 493 328 495
f 492 494 327
f 492 327 475
f 495 450 493
f 450 495 326
f 449 494 492
f 494 449 325
f 326 446 450
f 446 326 318
f 445 325 449
f 325 445 317
f 501 495 328
f 495 501 517
f 495 517 533
f 495 533 326
f 494 518 502
f 494 502 327
f 534 494 325
f 494 534 518
f 501 503 519
f 501 519 517
f 517 519 535
f 517 535 533
f 520 502 518
f 502 520 504
f 536 518 534
f 518 536 520
f 503 505 521
f 503 521 519
f 519 521 537
f 519 537 535
f 522 504 520
f 504 522 506
f 538 520 536
f 520 538 522
f 505 507 523
f 505 523 521
f 521 523 539
f 521 539 537
f 524 506 522
f 506 524 508
f 540 522 538
f 522 540 524
f 507 509 525
f 507 525 523
f 523 525 541
f 541 539 523
f 526 508 524
f 508 526 510
f 524 542 526
f 542 524 540
f 511 525 509
f 525 511 527
f 527 543 525
f 543 541 525
f 526 512 510
f 512 526 528
f 526 544 528
f 544 526 542
f 513 529 511
f 529 527 511
f 529 545 527
f 545 543 527
f 512 530 514
f 530 512 528
f 528 546 530
f 546 528 544
f 515 529 513
f 529 515 531
f 497 531 515
f 531 497 498
f 531 547 529
f 547 545 529
f 499 531 498
f 531 499 547
f 530 516 514
f 516 530 532
f 516 532 497
f 532 498 497
f 530 548 532
f 548 530 546
f 532 499 498
f 499 532 548
f 548 500 499
f 500 548 550
f 500 547 499
f 547 500 549
f 546 550 548
f 550 546 552
f 549 545 547
f 545 549 551
f 544 552 546
f 552 544 554
f 551 543 545
f 543 551 553
f 542 554 544
f 554 542 556
f 553 541 543
f 541 553 555
f 323 317 445
f 317 323 315
f 318 324 446
f 324 318 316
f 319 315 323
f 315 319 313
f 316 320 324
f 320 316 314
f 564 325 317
f 325 564 534
f 326 533 563
f 326 563 318
f 581 317 315
f 317 581 564
f 318 563 582
f 318 582 316
f 583 315 313
f 315 583 581
f 316 582 584
f 316 584 314
f 540 556 542
f 556 540 558
f 558 538 560
f 538 558 540
f 558 560 589
f 555 539 541
f 539 555 557
f 537 539 557
f 537 557 559
f 590 559 557
f 560 536 562
f 536 560 538
f 589 562 585
f 562 589 560
f 562 534 564
f 534 562 536
f 585 564 581
f 564 585 562
f 587 581 583
f 581 587 585
f 585 587 589
f 559 535 537
f 535 559 561
f 590 561 559
f 561 590 586
f 533 535 561
f 533 561 563
f 563 561 586
f 563 586 582
f 582 588 584
f 582 586 588
f 590 588 586
f 642 670 664
f 670 642 644
f 671 643 665
f 643 671 645
f 644 672 670
f 672 644 646
f 673 645 671
f 645 673 647
f 646 678 672
f 678 646 648
f 678 648 660
f 648 650 660
f 679 647 673
f 647 679 649
f 661 649 679
f 649 661 651
f 682 685 683
f 685 682 681
f 669 665 667
f 665 669 671
f 664 668 666
f 668 664 670
f 671 675 673
f 675 671 669
f 670 674 668
f 674 670 672
f 677 673 675
f 673 677 679
f 672 676 674
f 676 672 678
f 661 679 663
f 663 679 677
f 678 662 676
f 662 678 660
f 708 675 706
f 675 708 677
f 674 676 709
f 674 709 707
f 669 706 675
f 706 669 704
f 707 705 668
f 668 674 707
f 702 704 669
f 702 669 667
f 668 703 666
f 703 668 705
f 710 677 708
f 677 710 663
f 676 711 709
f 711 676 662
f 722 708 706
f 722 706 704
f 723 707 709
f 707 723 705
f 724 708 722
f 708 724 710
f 709 711 725
f 725 723 709
f 724 728 730
f 728 724 722
f 725 729 723
f 729 725 731
f 738 730 736
f 736 730 728
f 731 737 729
f 737 731 739
f 740 738 742
f 742 738 736
f 739 743 737
f 743 739 741
f 742 736 744
f 744 736 734
f 737 745 735
f 745 737 743
f 722 704 726
f 726 704 702
f 728 722 732
f 732 722 726
f 736 728 734
f 734 728 732
f 705 727 703
f 727 705 723
f 723 733 727
f 733 723 729
f 729 735 733
f 735 729 737
f 682 684 680
f 684 682 683
f 765 695 697
f 765 763 695
f 694 764 696
f 764 694 762
f 681 761 685
f 761 681 693
f 763 761 693
f 763 693 695
f 680 760 692
f 760 680 684
f 692 762 694
f 762 692 760
f 766 696 764
f 696 766 698
f 766 756 698
f 748 698 756
f 699 767 697
f 767 765 697
f 699 757 767
f 757 699 749
f 700 698 748
f 700 748 750
f 748 740 750
f 750 740 742
f 749 701 751
f 701 749 699
f 741 751 743
f 751 741 749
f 750 742 752
f 752 742 744
f 700 750 754
f 754 750 752
f 743 753 745
f 753 743 751
f 751 755 753
f 755 751 701
f 650 606 652
f 606 650 604
f 41 77 39
f 39 77 79
f 78 40 80
f 40 78 42
f 596 644 642
f 644 596 598
f 645 597 643
f 597 645 599
f 598 646 644
f 646 598 600
f 647 599 645
f 599 647 601
f 79 103 81
f 103 79 77
f 78 80 104
f 82 104 80
f 81 191 189
f 191 81 103
f 187 189 191
f 189 187 83
f 190 192 82
f 192 104 82
f 188 190 84
f 190 188 192
f 600 648 646
f 648 600 602
f 648 604 650
f 604 648 602
f 649 601 647
f 601 649 603
f 605 649 651
f 649 605 603
f 39 79 798
f 798 79 800
f 80 799 801
f 799 80 40
f 798 800 796
f 796 800 802
f 801 797 803
f 797 801 799
f 796 802 794
f 794 802 804
f 803 795 805
f 795 803 797
f 794 804 792
f 792 804 806
f 792 598 596
f 598 792 806
f 805 793 807
f 793 805 795
f 599 807 793
f 599 793 597
f 806 600 598
f 600 806 808
f 601 809 807
f 601 807 599
f 608 606 786
f 604 786 606
f 822 604 602
f 604 822 786
f 808 602 600
f 602 808 822
f 787 607 609
f 607 787 605
f 605 787 823
f 605 823 603
f 603 823 809
f 603 809 601
f 786 788 610
f 610 608 786
f 611 787 609
f 787 611 789
f 806 804 810
f 806 810 808
f 808 810 820
f 808 820 822
f 822 820 788
f 822 788 786
f 811 807 809
f 807 811 805
f 821 809 823
f 809 821 811
f 789 823 787
f 823 789 821
f 804 802 812
f 804 812 810
f 813 805 811
f 805 813 803
f 788 790 89
f 89 610 788
f 820 818 790
f 820 790 788
f 810 812 818
f 810 818 820
f 90 789 611
f 789 90 791
f 791 821 789
f 821 791 819
f 819 811 821
f 811 819 813
f 87 784 85
f 784 83 85
f 790 87 89
f 87 790 784
f 84 785 86
f 88 86 785
f 88 791 90
f 791 88 785
f 802 800 814
f 802 814 812
f 812 814 816
f 812 816 818
f 79 81 800
f 800 81 814
f 81 189 814
f 814 189 816
f 816 189 83
f 816 83 784
f 818 816 784
f 818 784 790
f 815 803 813
f 803 815 801
f 817 813 819
f 813 817 815
f 82 801 815
f 801 82 80
f 190 815 817
f 815 190 82
f 84 817 785
f 817 84 190
f 785 819 791
f 819 785 817
f 683 686 684
f 686 683 592
f 683 687 592
f 687 683 685
f 824 592 591
f 592 824 686
f 592 825 591
f 825 592 687
f 684 770 760
f 770 684 686
f 686 826 770
f 826 686 824
f 685 771 687
f 771 685 761
f 687 827 825
f 827 687 771
f 760 772 762
f 772 760 770
f 828 770 826
f 770 828 772
f 773 771 761
f 773 761 763
f 771 773 829
f 829 827 771
f 762 774 764
f 774 762 772
f 830 772 828
f 772 830 774
f 765 775 763
f 775 773 763
f 773 831 829
f 773 775 831
f 764 774 768
f 764 768 766
f 832 774 830
f 774 832 768
f 769 765 767
f 765 769 775
f 775 769 833
f 775 833 831
f 766 768 758
f 766 758 756
f 834 768 832
f 768 834 758
f 759 767 757
f 767 759 769
f 769 759 835
f 769 835 833
f 756 758 746
f 746 748 756
f 836 758 834
f 758 836 746
f 747 757 749
f 757 747 759
f 759 747 837
f 759 837 835
f 748 746 720
f 720 740 748
f 838 746 836
f 746 838 720
f 721 749 741
f 749 721 747
f 747 721 839
f 747 839 837
f 718 740 720
f 740 718 738
f 739 719 741
f 719 721 741
f 716 738 718
f 738 716 730
f 731 717 739
f 717 719 739
f 840 720 838
f 720 840 718
f 721 719 841
f 721 841 839
f 840 842 718
f 842 716 718
f 843 719 717
f 719 843 841
f 714 730 716
f 730 714 724
f 717 731 715
f 725 715 731
f 844 716 842
f 716 844 714
f 717 715 845
f 845 843 717
f 724 714 712
f 724 712 710
f 713 725 711
f 725 713 715
f 712 663 710
f 663 712 659
f 662 713 711
f 713 662 658
f 846 714 844
f 714 846 712
f 715 713 847
f 847 845 715
f 659 657 661
f 659 661 663
f 660 658 662
f 658 660 656
f 659 848 850
f 659 850 657
f 846 848 712
f 848 659 712
f 851 658 656
f 658 851 849
f 849 713 658
f 713 849 847
f 605 651 607
f 653 607 651
f 657 651 661
f 651 657 653
f 657 852 653
f 852 657 850
f 650 656 660
f 656 650 652
f 652 853 656
f 853 851 656
f 607 653 655
f 607 655 609
f 852 655 653
f 655 852 854
f 654 606 608
f 606 654 652
f 853 654 855
f 654 853 652
f 655 613 609
f 613 611 609
f 90 611 184
f 613 184 611
f 854 613 655
f 613 854 856
f 612 608 610
f 608 612 654
f 610 183 612
f 183 610 89
f 855 612 857
f 612 855 654
f 186 90 184
f 90 186 88
f 89 87 185
f 89 185 183
f 164 88 186
f 88 164 86
f 188 86 164
f 86 188 84
f 163 87 85
f 87 163 185
f 187 163 85
f 187 85 83
f 162 188 164
f 188 162 178
f 187 177 161
f 161 163 187
f 184 613 856
f 184 856 858
f 186 858 860
f 858 186 184
f 164 860 862
f 860 164 186
f 857 183 859
f 183 857 612
f 183 185 859
f 861 859 185
f 185 163 861
f 861 163 863
f 160 178 162
f 178 160 176
f 177 175 159
f 159 161 177
f 162 862 864
f 862 162 164
f 163 161 863
f 863 161 865
f 160 158 166
f 166 176 160
f 165 159 175
f 159 165 157
f 160 864 866
f 864 160 162
f 161 159 865
f 865 159 867
f 158 866 868
f 866 158 160
f 157 867 159
f 867 157 869
f 138 158 140
f 158 138 166
f 137 157 165
f 157 137 139
f 868 870 140
f 140 158 868
f 139 869 157
f 869 139 871
f 140 156 150
f 150 138 140
f 149 139 137
f 139 149 155
f 870 872 156
f 870 156 140
f 155 871 139
f 871 155 873
f 156 154 152
f 152 150 156
f 151 155 149
f 155 151 153
f 872 874 154
f 872 154 156
f 153 873 155
f 873 153 875
f 130 152 132
f 132 152 154
f 151 131 153
f 131 151 129
f 239 130 132
f 130 239 241
f 129 242 240
f 129 240 131
f 874 132 154
f 132 874 876
f 131 875 153
f 875 131 877
f 876 239 132
f 239 876 878
f 879 877 240
f 240 877 131
f 251 241 239
f 241 251 249
f 242 250 252
f 242 252 240
f 878 251 239
f 251 878 880
f 879 252 881
f 252 879 240
f 251 257 249
f 257 255 249
f 250 258 252
f 258 250 256
f 880 257 251
f 257 880 882
f 881 258 883
f 258 881 252
f 257 259 279
f 257 279 255
f 280 258 256
f 258 280 260
f 259 283 279
f 283 259 261
f 260 284 262
f 284 260 280
f 882 259 257
f 259 882 884
f 883 260 885
f 260 883 258
f 283 261 285
f 285 261 263
f 262 286 264
f 286 262 284
f 261 884 886
f 884 261 259
f 887 885 262
f 885 260 262
f 285 263 291
f 291 263 265
f 264 292 266
f 292 264 286
f 263 886 888
f 886 263 261
f 889 887 264
f 887 262 264
f 265 888 890
f 888 265 263
f 264 266 889
f 891 889 266
f 309 275 313
f 309 313 319
f 314 310 320
f 310 314 276
f 309 305 273
f 309 273 275
f 274 310 276
f 310 274 306
f 305 303 271
f 271 273 305
f 271 898 273
f 898 271 896
f 272 306 274
f 306 272 304
f 899 897 272
f 272 274 899
f 303 299 269
f 269 271 303
f 269 896 271
f 896 269 894
f 270 304 272
f 304 270 300
f 897 895 270
f 270 272 897
f 291 265 293
f 293 265 267
f 267 265 890
f 267 890 892
f 299 293 267
f 267 269 299
f 267 894 269
f 894 267 892
f 266 294 268
f 294 266 292
f 891 268 893
f 268 891 266
f 268 300 270
f 300 268 294
f 895 893 268
f 268 270 895
f 273 900 275
f 900 273 898
f 274 901 899
f 274 276 901
f 313 579 583
f 579 313 275
f 314 580 276
f 314 584 580
f 902 275 900
f 275 902 579
f 276 903 901
f 903 276 580
f 577 583 579
f 583 577 587
f 917 579 902
f 579 917 577
f 584 578 580
f 578 584 588
f 580 918 903
f 918 580 578
f 575 587 577
f 587 575 589
f 915 577 917
f 577 915 575
f 588 576 578
f 576 588 590
f 578 916 918
f 916 578 576
f 573 589 575
f 589 573 558
f 913 575 915
f 575 913 573
f 590 574 576
f 574 590 557
f 576 914 916
f 576 574 914
f 571 558 573
f 558 571 556
f 911 573 913
f 573 911 571
f 555 572 557
f 572 574 557
f 574 572 912
f 912 914 574
f 569 556 571
f 556 569 554
f 569 911 909
f 911 569 571
f 553 570 555
f 570 572 555
f 570 912 572
f 912 570 910
f 554 567 552
f 567 554 569
f 907 569 909
f 569 907 567
f 551 568 553
f 568 570 553
f 570 568 908
f 908 910 570
f 550 496 500
f 496 550 565
f 565 904 496
f 904 565 905
f 552 565 550
f 565 552 567
f 905 567 907
f 567 905 565
f 496 549 500
f 549 496 566
f 904 566 496
f 566 904 906
f 549 566 551
f 566 568 551
f 568 566 906
f 906 908 568
f 593 680 639
f 680 593 682
f 593 681 682
f 681 593 638
f 593 639 920
f 920 919 593
f 593 921 638
f 921 593 919
f 637 694 635
f 694 637 692
f 639 692 637
f 692 639 680
f 920 637 922
f 637 920 639
f 695 693 636
f 695 636 634
f 638 693 681
f 693 638 636
f 921 636 638
f 636 921 923
f 922 635 924
f 635 922 637
f 923 925 634
f 634 636 923
f 635 696 633
f 696 635 694
f 632 697 634
f 697 695 634
f 698 633 696
f 633 698 631
f 632 630 699
f 699 697 632
f 635 926 924
f 926 635 633
f 927 634 925
f 634 927 632
f 631 926 633
f 928 926 631
f 630 927 929
f 927 630 632
f 700 631 698
f 631 700 688
f 630 689 701
f 630 701 699
f 754 688 700
f 688 754 690
f 689 691 755
f 689 755 701
f 688 928 631
f 928 688 930
f 929 931 689
f 689 630 929
f 688 932 930
f 932 688 690
f 691 689 933
f 931 933 689
f 752 690 754
f 690 752 629
f 691 628 753
f 753 755 691
f 744 629 752
f 629 744 641
f 640 745 628
f 745 753 628
f 690 629 934
f 934 932 690
f 935 691 933
f 691 935 628
f 734 641 744
f 641 734 627
f 626 735 640
f 735 745 640
f 934 641 936
f 641 934 629
f 640 935 937
f 935 640 628
f 627 936 641
f 936 627 938
f 626 937 939
f 937 626 640
f 726 625 732
f 625 726 623
f 732 627 734
f 627 732 625
f 625 938 627
f 938 625 940
f 622 727 624
f 624 727 733
f 624 733 626
f 733 735 626
f 939 941 624
f 624 626 939
f 702 623 726
f 623 702 621
f 727 622 703
f 620 703 622
f 623 940 625
f 940 623 942
f 941 943 622
f 622 624 941
f 20 19 2
f 19 20 25
f 18 20 2
f 20 18 26
f 17 25 27
f 25 17 19
f 16 26 18
f 26 16 28
f 2 946 1
f 946 2 19
f 18 2 947
f 947 2 1
f 27 47 37
f 27 37 17
f 48 28 16
f 48 16 38
f 19 948 946
f 948 19 17
f 16 18 949
f 949 18 947
f 45 35 47
f 35 37 47
f 36 48 38
f 48 36 46
f 37 948 17
f 950 948 37
f 38 949 951
f 949 38 16
f 43 33 45
f 33 35 45
f 46 34 44
f 34 46 36
f 35 950 37
f 952 950 35
f 951 36 38
f 36 951 953
f 954 35 33
f 35 954 952
f 953 955 36
f 36 955 34
f 29 31 41
f 41 39 29
f 33 43 31
f 41 31 43
f 33 31 956
f 956 954 33
f 42 30 40
f 30 42 32
f 44 32 42
f 32 44 34
f 34 957 32
f 957 34 955
f 29 39 776
f 776 39 798
f 40 777 799
f 777 40 30
f 31 29 958
f 958 956 31
f 32 959 30
f 959 32 957
f 776 798 778
f 778 798 796
f 799 779 797
f 779 799 777
f 29 960 958
f 960 29 776
f 30 961 777
f 959 961 30
f 780 778 796
f 780 796 794
f 797 781 795
f 781 797 779
f 776 962 960
f 962 776 778
f 777 963 779
f 961 963 777
f 780 794 782
f 782 794 792
f 795 783 793
f 783 795 781
f 778 964 962
f 964 778 780
f 779 965 781
f 963 965 779
f 594 782 596
f 782 792 596
f 597 783 595
f 783 597 793
f 780 966 964
f 966 780 782
f 781 967 783
f 965 967 781
f 703 620 666
f 618 666 620
f 621 667 619
f 667 621 702
f 620 943 945
f 943 620 622
f 623 621 942
f 942 621 944
f 616 666 618
f 666 616 664
f 667 617 619
f 667 665 617
f 618 620 970
f 945 970 620
f 621 971 944
f 971 621 619
f 594 642 614
f 642 594 596
f 614 664 616
f 664 614 642
f 597 595 643
f 643 595 615
f 665 615 617
f 665 643 615
f 616 618 972
f 970 972 618
f 619 973 971
f 973 619 617
f 594 614 968
f 974 968 614
f 782 594 966
f 968 966 594
f 614 616 974
f 974 616 972
f 615 969 975
f 969 615 595
f 595 967 969
f 967 595 783
f 617 975 973
f 975 617 615
