v -0.369814 0.071823 0.177639
v -0.369814 -0.071823 0.177639
v -0.370314 0.062501 0.166892
v -0.370314 -0.062501 0.166892
v -0.372814 0.027683 0.166439
v -0.372814 -0.027683 0.166439
v -0.373420 0.000000 0.166333
v -0.371186 0.062372 0.188756
v -0.371186 -0.062373 0.188756
v -0.373538 0.029793 0.188821
v -0.373538 -0.029793 0.188821
v -0.374320 0.000000 0.188923
v -0.369776 0.069011 0.169551
v -0.369774 -0.069011 0.169552
v -0.370272 0.069952 0.184940
v -0.370272 -0.069952 0.184940
v -0.119701 0.225854 0.308083
v -0.111428 0.226679 0.307870
v -0.105538 0.254169 0.300360
v -0.106207 0.255983 0.299866
v -0.107931 0.256961 0.299672
v -0.111330 0.257005 0.299830
v -0.113195 0.255695 0.300279
v -0.125097 0.199892 0.314307
v -0.123422 0.198161 0.314655
v -0.120152 0.199274 0.314331
v -0.118287 0.200644 0.313959
v -0.116784 0.203049 0.313378
v -0.119701 -0.225854 0.308083
v -0.111428 -0.226679 0.307870
v -0.105538 -0.254169 0.300360
v -0.106207 -0.255983 0.299866
v -0.107931 -0.256962 0.299672
v -0.111330 -0.257005 0.299830
v -0.113195 -0.255695 0.300279
v -0.125097 -0.199892 0.314307
v -0.123422 -0.198161 0.314655
v -0.120152 -0.199274 0.314331
v -0.118287 -0.200644 0.313959
v -0.116784 -0.203050 0.313378
f 12 10 5
f 12 5 7
f 10 3 5
f 3 10 8
f 12 6 11
f 6 12 7
f 11 4 9
f 4 11 6
f 9 4 16
f 16 4 14
f 14 2 16
f 3 8 15
f 3 15 13
f 15 1 13
f 23 18 19
f 18 23 17
f 29 35 30
f 35 31 30
f 36 29 40
f 40 29 30
f 17 28 18
f 28 17 24
f 22 19 20
f 19 22 23
f 20 21 22
f 27 24 25
f 28 24 27
f 25 26 27
f 31 35 34
f 31 34 32
f 34 33 32
f 36 40 39
f 39 37 36
f 39 38 37
