v -0.072672 -0.089499 -0.049500
v -0.049672 -0.089499 -0.072500
v -0.049672 0.088000 -0.072500
v -0.072672 0.088000 -0.049500
v 0.072672 0.088000 -0.049500
v 0.049672 0.088000 -0.072500
v 0.049672 -0.089499 -0.072500
v 0.072672 -0.089499 -0.049500
v 0.072672 -0.089499 0.049500
v 0.049672 -0.089499 0.072500
v 0.049672 0.088000 0.072500
v 0.072672 0.088000 0.049500
v -0.072672 0.088000 0.049500
v -0.049672 0.088000 0.072500
v -0.049672 -0.089499 0.072500
v -0.072672 -0.089499 0.049500
v -0.049672 -0.000750 -0.072500
v 0.049672 -0.000750 -0.072500
v 0.049672 -0.000750 0.072500
v -0.049672 -0.000750 0.072500
v 0.072672 -0.000750 -0.065003
v 0.072672 -0.000750 0.065125
v -0.072672 -0.000750 -0.065616
v -0.072672 -0.000750 0.064749
v 0.049672 0.065911 -0.072500
v -0.049672 0.065911 0.072500
v 0.072672 0.065911 0.049500
v -0.072672 0.065911 -0.049500
v -0.049672 0.065911 -0.072500
v 0.049672 0.065911 0.072500
v 0.072672 0.065911 -0.049500
v -0.072672 0.065911 0.049500
v -0.049672 -0.067410 -0.072500
v 0.049672 -0.067410 0.072500
v 0.072672 -0.067410 -0.049500
v -0.072672 -0.067410 0.049500
v 0.049672 -0.067410 -0.072500
v -0.049672 -0.067410 0.072500
v 0.072672 -0.067410 0.049500
v -0.072672 -0.067410 -0.049500
v 0.087500 -0.000750 -0.065003
v 0.087500 0.065911 -0.049500
v 0.087500 0.065911 0.049500
v 0.087500 -0.000750 0.065125
v 0.087500 -0.067410 0.049500
v 0.087500 -0.067410 -0.049500
v -0.087813 -0.000750 -0.065616
v -0.087813 -0.067410 -0.049500
v -0.087813 -0.067410 0.049500
v -0.087813 -0.000750 0.064749
v -0.087813 0.065911 0.049500
v -0.087813 0.065911 -0.049500
f 33 37 7
f 7 2 33
f 10 34 38
f 38 15 10
f 2 7 8
f 8 9 10
f 10 15 16
f 8 10 16
f 2 8 16
f 1 2 16
f 35 39 9
f 9 8 35
f 6 3 4
f 4 13 14
f 14 11 12
f 4 14 12
f 6 4 12
f 5 6 12
f 28 32 13
f 13 4 28
f 29 28 4
f 4 3 29
f 37 35 8
f 8 7 37
f 30 27 12
f 12 11 30
f 38 36 16
f 16 15 38
f 29 25 18
f 18 17 29
f 30 26 20
f 20 19 30
f 42 43 44
f 44 41 42
f 48 49 50
f 50 47 48
f 33 40 23
f 23 17 33
f 25 31 21
f 21 18 25
f 34 39 22
f 22 19 34
f 26 32 24
f 24 20 26
f 47 50 51
f 51 52 47
f 17 23 28
f 28 29 17
f 19 22 27
f 27 30 19
f 3 6 25
f 25 29 3
f 11 14 26
f 26 30 11
f 5 12 27
f 27 31 5
f 6 5 31
f 31 25 6
f 14 13 32
f 32 26 14
f 17 18 37
f 37 33 17
f 19 20 38
f 38 34 19
f 41 44 45
f 45 46 41
f 18 21 35
f 35 37 18
f 20 24 36
f 36 38 20
f 1 16 36
f 36 40 1
f 2 1 40
f 40 33 2
f 10 9 39
f 39 34 10
f 21 31 42
f 42 41 21
f 31 27 43
f 43 42 31
f 27 22 44
f 44 43 27
f 22 39 45
f 45 44 22
f 39 35 46
f 46 45 39
f 35 21 41
f 41 46 35
f 23 40 48
f 48 47 23
f 40 36 49
f 49 48 40
f 36 24 50
f 50 49 36
f 24 32 51
f 51 50 24
f 32 28 52
f 52 51 32
f 28 23 47
f 47 52 28
