v 0.109121 -0.065443 0.059225
v 0.089776 -0.065443 0.059225
v 0.109121 -0.065443 0.000158
v 0.109121 -0.021702 -0.061502
v 0.089776 -0.021702 -0.061502
v 0.089776 -0.065443 0.000158
v 0.109121 -0.052372 -0.038442
v 0.089776 -0.052372 -0.038442
v 0.099699 -0.065443 0.094778
v 0.084341 -0.065443 0.082529
v 0.108861 -0.065443 0.078417
v 0.089776 -0.065443 0.070784
v 0.067432 -0.065443 0.133046
v 0.057054 -0.065443 0.117338
v -0.066832 -0.050860 0.133046
v -0.056993 -0.050860 0.117338
v -0.105392 -0.047839 0.086340
v -0.089815 -0.047839 0.074525
v 0.109121 0.065443 0.059225
v 0.089776 0.065443 0.059225
v 0.109121 0.065443 0.000158
v 0.109121 0.021702 -0.061502
v 0.089776 0.021702 -0.061502
v 0.089776 0.065443 0.000158
v 0.109121 0.052372 -0.038442
v 0.089776 0.052372 -0.038442
v 0.099699 0.065443 0.094778
v 0.084341 0.065443 0.082529
v 0.108861 0.065443 0.078417
v 0.089776 0.065443 0.070784
v 0.067432 0.065443 0.133046
v 0.057054 0.065443 0.117338
v -0.066832 0.050860 0.133046
v -0.056993 0.050860 0.117338
v -0.105392 0.047839 0.086340
v -0.089815 0.047839 0.074525
v -0.030420 -0.065443 0.133046
v -0.030689 -0.065443 0.117338
v -0.030420 0.065443 0.133046
v -0.030689 0.065443 0.117338
v -0.109995 -0.015554 -0.074594
v -0.089815 -0.015554 -0.074594
v -0.109995 0.015554 -0.074594
v -0.089815 0.015554 -0.074594
v -0.109995 -0.047839 0.072368
v -0.109995 0.047839 0.072368
v -0.089815 -0.075733 -0.000035
v -0.089815 0.075733 -0.000035
v -0.109995 -0.075733 -0.001113
v -0.109995 0.075733 -0.001113
v -0.089815 -0.066923 -0.037314
v -0.089815 0.066923 -0.037314
v -0.109995 -0.066923 -0.037854
v -0.109995 0.066923 -0.037854
v -0.089815 -0.066086 0.037245
v -0.089815 0.066086 0.037245
v -0.109995 -0.066086 0.035627
v -0.109995 0.066086 0.035627
v -0.089815 -0.051796 -0.055954
v -0.089815 0.051796 -0.055954
v -0.109995 -0.051796 -0.056224
v -0.109995 0.051796 -0.056224
v -0.110574 -0.076860 -0.000608
v -0.110574 -0.074241 0.019285
v -0.110574 -0.066563 0.037822
v -0.110574 -0.054348 0.053740
v -0.110574 -0.038430 0.065954
v -0.110574 -0.027288 0.074038
v -0.110574 0.000000 -0.077468
v -0.110574 -0.019893 -0.074849
v -0.110574 -0.038430 -0.067171
v -0.110574 -0.054348 -0.054956
v -0.110574 -0.066563 -0.039038
v -0.110574 -0.074241 -0.020501
v -0.203302 -0.051094 -0.000181
v -0.203302 -0.049353 0.013044
v -0.203302 -0.044249 0.025366
v -0.203302 -0.036129 0.035948
v -0.203302 -0.027354 0.045373
v -0.202549 -0.021582 0.052518
v -0.203302 0.000000 -0.051275
v -0.203302 -0.013224 -0.049534
v -0.203302 -0.025547 -0.044429
v -0.203302 -0.036129 -0.036310
v -0.203302 -0.044249 -0.025728
v -0.203302 -0.049353 -0.013405
v -0.192093 -0.062958 -0.000181
v -0.192093 -0.060813 0.016114
v -0.192093 -0.054523 0.031299
v -0.192093 -0.044518 0.044338
v -0.192093 -0.031479 0.054343
v -0.191430 -0.026536 0.058683
v -0.192093 0.000000 -0.063139
v -0.192093 -0.016295 -0.060994
v -0.192093 -0.031479 -0.054704
v -0.192093 -0.044518 -0.044699
v -0.192093 -0.054523 -0.031660
v -0.192093 -0.060813 -0.016475
v -0.148718 -0.062578 0.016587
v -0.148718 -0.056106 0.032212
v -0.148718 -0.045810 0.045630
v -0.148718 -0.032393 0.055925
v -0.150104 -0.023735 0.064804
v -0.148717 0.000000 -0.064966
v -0.148717 -0.016768 -0.062759
v -0.148717 -0.032393 -0.056287
v -0.148717 -0.045810 -0.045991
v -0.148717 -0.056106 -0.032573
v -0.148717 -0.062578 -0.016948
v -0.148717 -0.064786 -0.000181
v -0.140740 -0.070815 0.018794
v -0.140740 -0.063491 0.036476
v -0.140740 -0.051840 0.051660
v -0.140740 -0.036657 0.063311
v -0.140724 -0.026029 0.068505
v -0.140740 0.000000 -0.073494
v -0.140740 -0.018975 -0.070996
v -0.140740 -0.036657 -0.063672
v -0.140740 -0.051840 -0.052021
v -0.140740 -0.063491 -0.036837
v -0.140740 -0.070815 -0.019156
v -0.140740 -0.073313 -0.000181
v -0.200172 -0.015514 0.063757
v -0.195162 -0.013657 0.072304
v -0.189053 -0.013319 0.076738
v -0.181937 -0.013510 0.078869
v -0.164899 -0.013957 0.079856
v -0.150672 -0.014121 0.080273
v -0.142696 -0.014421 0.080533
v -0.189837 -0.021433 0.064182
v -0.186220 -0.018947 0.068489
v -0.179679 -0.018343 0.070608
v -0.164961 -0.018665 0.071263
v -0.154842 -0.019828 0.069762
v -0.150820 -0.015605 0.077846
v -0.143481 -0.019468 0.073099
v -0.110574 -0.016067 0.084500
v -0.110574 -0.021117 0.077417
v -0.148718 -0.028444 0.059882
v -0.110574 0.076860 -0.000608
v -0.110574 0.074241 0.019285
v -0.110574 0.066563 0.037822
v -0.110574 0.054348 0.053740
v -0.110574 0.038430 0.065954
v -0.110574 0.027288 0.074038
v -0.110574 0.019893 -0.074849
v -0.110574 0.038430 -0.067171
v -0.110574 0.054348 -0.054956
v -0.110574 0.066562 -0.039038
v -0.110574 0.074241 -0.020501
v -0.203302 0.051094 -0.000181
v -0.203302 0.049353 0.013044
v -0.203302 0.044249 0.025366
v -0.203302 0.036129 0.035948
v -0.203302 0.027354 0.045373
v -0.202549 0.021582 0.052518
v -0.203302 0.013224 -0.049534
v -0.203302 0.025547 -0.044429
v -0.203302 0.036129 -0.036310
v -0.203302 0.044249 -0.025728
v -0.203302 0.049353 -0.013405
v -0.192093 0.062958 -0.000181
v -0.192093 0.060813 0.016114
v -0.192093 0.054523 0.031299
v -0.192093 0.044518 0.044338
v -0.192093 0.031479 0.054343
v -0.191430 0.026536 0.058683
v -0.192093 0.016295 -0.060994
v -0.192093 0.031479 -0.054704
v -0.192093 0.044518 -0.044699
v -0.192093 0.054523 -0.031660
v -0.192093 0.060813 -0.016475
v -0.148718 0.062578 0.016587
v -0.148718 0.056106 0.032212
v -0.148718 0.045810 0.045630
v -0.148718 0.032393 0.055925
v -0.150104 0.023735 0.064804
v -0.148717 0.016768 -0.062759
v -0.148717 0.032393 -0.056287
v -0.148718 0.045810 -0.045991
v -0.148718 0.056106 -0.032573
v -0.148718 0.062578 -0.016948
v -0.148718 0.064786 -0.000181
v -0.140740 0.070815 0.018794
v -0.140740 0.063491 0.036476
v -0.140740 0.051840 0.051660
v -0.140740 0.036657 0.063311
v -0.140724 0.026029 0.068505
v -0.140740 0.018975 -0.070996
v -0.140740 0.036657 -0.063672
v -0.140740 0.051840 -0.052021
v -0.140740 0.063491 -0.036837
v -0.140740 0.070815 -0.019155
v -0.140740 0.073313 -0.000181
v -0.200172 0.015514 0.063757
v -0.195162 0.013657 0.072304
v -0.189053 0.013319 0.076738
v -0.181937 0.013510 0.078869
v -0.164899 0.013957 0.079856
v -0.150672 0.014121 0.080273
v -0.142696 0.014421 0.080533
v -0.189837 0.021433 0.064182
v -0.186220 0.018947 0.068489
v -0.179679 0.018343 0.070608
v -0.164961 0.018665 0.071263
v -0.154842 0.019828 0.069762
v -0.150820 0.015605 0.077846
v -0.143481 0.019468 0.073099
v -0.110574 0.016067 0.084500
v -0.110574 0.021117 0.077417
v -0.148718 0.028444 0.059882
f 1 2 6
f 6 3 1
f 7 4 22
f 3 7 22
f 1 3 22
f 22 25 21
f 22 21 19
f 1 22 19
f 6 2 20
f 8 6 20
f 5 8 20
f 20 24 26
f 20 26 23
f 5 20 23
f 4 5 23
f 23 22 4
f 4 7 8
f 8 5 4
f 3 6 8
f 8 7 3
f 2 1 11
f 11 12 2
f 19 29 11
f 11 1 19
f 2 12 30
f 30 20 2
f 11 9 10
f 10 12 11
f 27 9 11
f 11 29 27
f 10 28 30
f 30 12 10
f 10 9 13
f 13 14 10
f 14 32 28
f 28 10 14
f 14 13 37
f 37 38 14
f 38 40 32
f 32 14 38
f 16 15 17
f 17 18 16
f 18 36 34
f 34 16 18
f 19 21 24
f 24 20 19
f 22 23 26
f 26 25 22
f 21 25 26
f 26 24 21
f 20 30 29
f 29 19 20
f 29 30 28
f 28 27 29
f 28 32 31
f 31 27 28
f 27 31 13
f 13 9 27
f 32 40 39
f 39 31 32
f 39 37 13
f 13 31 39
f 34 36 35
f 35 33 34
f 33 35 17
f 17 15 33
f 37 15 16
f 16 38 37
f 16 34 40
f 40 38 16
f 34 33 39
f 39 40 34
f 33 15 37
f 37 39 33
f 45 57 55
f 55 18 45
f 18 55 56
f 56 36 18
f 35 36 46
f 35 46 45
f 45 17 35
f 58 57 45
f 45 46 58
f 18 17 45
f 56 58 46
f 46 36 56
f 43 44 42
f 42 41 43
f 49 53 51
f 51 47 49
f 51 52 48
f 48 47 51
f 54 53 49
f 49 50 54
f 52 54 50
f 50 48 52
f 53 61 59
f 59 51 53
f 59 60 52
f 52 51 59
f 62 61 53
f 53 54 62
f 60 62 54
f 54 52 60
f 57 49 47
f 47 55 57
f 47 48 56
f 56 55 47
f 50 49 57
f 57 58 50
f 48 50 58
f 58 56 48
f 41 42 59
f 59 61 41
f 42 44 60
f 60 59 42
f 43 41 61
f 61 62 43
f 44 43 62
f 62 60 44
f 64 111 122
f 122 63 64
f 65 112 111
f 111 64 65
f 66 113 112
f 112 65 66
f 67 114 113
f 113 66 67
f 70 117 116
f 116 69 70
f 71 118 117
f 117 70 71
f 72 119 118
f 118 71 72
f 73 120 119
f 119 72 73
f 74 121 120
f 120 73 74
f 63 122 121
f 121 74 63
f 76 75 87
f 87 88 76
f 77 76 88
f 88 89 77
f 78 77 89
f 89 90 78
f 79 78 90
f 90 91 79
f 82 81 93
f 93 94 82
f 83 82 94
f 94 95 83
f 84 83 95
f 95 96 84
f 85 84 96
f 96 97 85
f 86 85 97
f 97 98 86
f 75 86 98
f 98 87 75
f 88 87 110
f 110 99 88
f 89 88 99
f 99 100 89
f 90 89 100
f 100 101 90
f 91 90 101
f 101 102 91
f 94 93 104
f 104 105 94
f 95 94 105
f 105 106 95
f 96 95 106
f 106 107 96
f 97 96 107
f 107 108 97
f 98 97 108
f 108 109 98
f 87 98 109
f 109 110 87
f 99 110 122
f 122 111 99
f 100 99 111
f 111 112 100
f 101 100 112
f 112 113 101
f 102 101 113
f 113 114 102
f 105 104 116
f 116 117 105
f 106 105 117
f 117 118 106
f 107 106 118
f 118 119 107
f 108 107 119
f 119 120 108
f 109 108 120
f 120 121 109
f 110 109 121
f 121 122 110
f 92 80 79
f 79 91 92
f 139 102 114
f 114 115 139
f 123 80 92
f 92 130 123
f 125 124 131
f 124 123 130
f 130 131 124
f 126 125 131
f 131 132 126
f 127 126 132
f 132 133 127
f 128 127 135
f 135 127 133
f 133 134 135
f 136 135 134
f 134 103 136
f 129 128 135
f 135 136 129
f 115 114 67
f 67 68 115
f 138 136 115
f 115 68 138
f 137 129 136
f 136 138 137
f 115 136 103
f 103 139 115
f 102 139 92
f 92 91 102
f 92 139 103
f 103 130 92
f 130 103 134
f 134 131 130
f 133 132 131
f 131 134 133
f 141 140 194
f 194 184 141
f 142 141 184
f 184 185 142
f 143 142 185
f 185 186 143
f 144 143 186
f 186 187 144
f 146 69 116
f 116 189 146
f 147 146 189
f 189 190 147
f 148 147 190
f 190 191 148
f 149 148 191
f 191 192 149
f 150 149 192
f 192 193 150
f 140 150 193
f 193 194 140
f 152 163 162
f 162 151 152
f 153 164 163
f 163 152 153
f 154 165 164
f 164 153 154
f 155 166 165
f 165 154 155
f 157 168 93
f 93 81 157
f 158 169 168
f 168 157 158
f 159 170 169
f 169 158 159
f 160 171 170
f 170 159 160
f 161 172 171
f 171 160 161
f 151 162 172
f 172 161 151
f 163 173 183
f 183 162 163
f 164 174 173
f 173 163 164
f 165 175 174
f 174 164 165
f 166 176 175
f 175 165 166
f 168 178 104
f 104 93 168
f 169 179 178
f 178 168 169
f 170 180 179
f 179 169 170
f 171 181 180
f 180 170 171
f 172 182 181
f 181 171 172
f 162 183 182
f 182 172 162
f 173 184 194
f 194 183 173
f 174 185 184
f 184 173 174
f 175 186 185
f 185 174 175
f 176 187 186
f 186 175 176
f 178 189 116
f 116 104 178
f 179 190 189
f 189 178 179
f 180 191 190
f 190 179 180
f 181 192 191
f 191 180 181
f 182 193 192
f 192 181 182
f 183 194 193
f 193 182 183
f 167 166 155
f 155 156 167
f 211 188 187
f 187 176 211
f 195 202 167
f 167 156 195
f 197 203 196
f 196 203 202
f 202 195 196
f 198 204 203
f 203 197 198
f 199 205 204
f 204 198 199
f 200 207 199
f 207 206 205
f 205 199 207
f 208 177 206
f 206 207 208
f 201 208 207
f 207 200 201
f 188 145 144
f 144 187 188
f 210 145 188
f 188 208 210
f 209 210 208
f 208 201 209
f 188 211 177
f 177 208 188
f 176 166 167
f 167 211 176
f 167 202 177
f 177 211 167
f 202 203 206
f 206 177 202
f 205 206 203
f 203 204 205
f 201 129 137
f 137 209 201
f 196 124 125
f 125 197 196
f 197 125 126
f 126 198 197
f 198 126 127
f 127 199 198
f 199 127 128
f 128 200 199
f 200 128 129
f 129 201 200
f 195 123 124
f 124 196 195
f 156 80 123
f 123 195 156
f 152 151 75
f 75 76 152
f 161 86 75
f 75 151 161
f 79 80 156
f 156 155 79
f 79 155 154
f 154 78 79
f 78 154 153
f 153 77 78
f 77 153 152
f 152 76 77
f 160 85 86
f 86 161 160
f 159 84 85
f 85 160 159
f 158 83 84
f 84 159 158
f 157 82 83
f 83 158 157
f 157 81 82
f 74 73 72
f 72 71 70
f 74 72 70
f 70 69 146
f 146 147 148
f 70 146 148
f 74 70 148
f 148 149 150
f 150 140 141
f 148 150 141
f 141 142 143
f 143 144 145
f 141 143 145
f 148 141 145
f 74 148 145
f 210 209 137
f 210 137 138
f 145 210 138
f 138 68 67
f 145 138 67
f 74 145 67
f 67 66 65
f 74 67 65
f 74 65 64
f 63 74 64
