v 0.086902 -0.134602 0.303145
v 0.084727 -0.136109 0.302606
v 0.083733 -0.136710 0.301274
v 0.083433 -0.136790 0.299742
v 0.088554 -0.133376 0.302123
v 0.089243 -0.132829 0.301100
v 0.090033 -0.132083 0.298167
v 0.083596 -0.136448 0.297298
v 0.084320 -0.134375 0.285366
v 0.090664 -0.130174 0.285155
v 0.089464 -0.127939 0.268860
v 0.086216 -0.125827 0.253729
v 0.081522 -0.123835 0.238865
v 0.076328 -0.122467 0.226173
v 0.069371 -0.121295 0.211965
v 0.063291 -0.120484 0.200459
v 0.055216 -0.119750 0.186959
v 0.044678 -0.118942 0.170416
v 0.041715 -0.118898 0.166618
v 0.038926 -0.119353 0.165063
v 0.034920 -0.120358 0.164576
v 0.033591 -0.120860 0.165259
v 0.034119 -0.121057 0.166714
v 0.082714 -0.132081 0.269407
v 0.079699 -0.129930 0.254940
v 0.074998 -0.127884 0.240234
v 0.070121 -0.126422 0.228435
v 0.063784 -0.124999 0.215185
v 0.057696 -0.123878 0.203609
v 0.045983 -0.122381 0.184466
v 0.086902 0.134602 0.303145
v 0.084727 0.136109 0.302606
v 0.083733 0.136710 0.301274
v 0.083433 0.136790 0.299742
v 0.088554 0.133376 0.302123
v 0.089243 0.132829 0.301100
v 0.090033 0.132083 0.298167
v 0.083596 0.136448 0.297298
v 0.084320 0.134375 0.285366
v 0.090664 0.130174 0.285155
v 0.089464 0.127939 0.268860
v 0.086216 0.125827 0.253729
v 0.081522 0.123835 0.238865
v 0.076328 0.122467 0.226173
v 0.069371 0.121295 0.211965
v 0.063291 0.120484 0.200459
v 0.055216 0.119750 0.186959
v 0.044678 0.118942 0.170416
v 0.041715 0.118898 0.166618
v 0.038926 0.119353 0.165063
v 0.034920 0.120358 0.164576
v 0.033591 0.120860 0.165259
v 0.034119 0.121057 0.166714
v 0.082714 0.132081 0.269407
v 0.079699 0.129930 0.254940
v 0.074998 0.127884 0.240234
v 0.070121 0.126422 0.228435
v 0.063784 0.124999 0.215185
v 0.057696 0.123878 0.203609
v 0.045983 0.122381 0.184466
f 3 6 5
f 6 3 4
f 33 36 34
f 36 33 35
f 9 11 10
f 11 9 24
f 41 39 40
f 39 41 54
f 8 9 7
f 7 9 10
f 39 37 40
f 37 39 38
f 24 12 11
f 12 24 25
f 54 42 55
f 42 54 41
f 13 12 25
f 25 26 13
f 55 43 56
f 43 55 42
f 14 13 26
f 14 26 27
f 56 44 57
f 44 56 43
f 15 27 28
f 27 15 14
f 57 45 58
f 45 57 44
f 15 29 16
f 29 15 28
f 59 58 45
f 59 45 46
f 17 16 29
f 29 30 17
f 60 59 47
f 47 59 46
f 18 17 30
f 30 23 18
f 53 60 48
f 48 60 47
f 22 19 23
f 18 23 19
f 53 48 49
f 49 52 53
f 20 22 21
f 19 22 20
f 52 49 50
f 52 50 51
f 4 7 6
f 7 4 8
f 37 34 36
f 34 37 38
f 2 5 1
f 5 2 3
f 32 35 33
f 35 32 31
