v 0.092362 0.000000 0.388492
v 0.091482 0.014932 0.389130
v 0.088067 0.027468 0.391823
v 0.081241 0.034526 0.396961
v 0.073009 0.040328 0.402722
v 0.063642 0.045778 0.408820
v 0.053463 0.051018 0.414946
v 0.043400 0.055665 0.420837
v 0.028394 0.061803 0.428940
v 0.012179 0.067391 0.436933
v -0.004420 0.072589 0.444249
v -0.021575 0.075654 0.449784
v -0.039640 0.074823 0.453059
v -0.051035 0.071811 0.452661
v -0.062189 0.067460 0.449934
v -0.074109 0.061668 0.444739
v -0.084567 0.057380 0.437103
v -0.094827 0.054800 0.425792
v 0.080996 0.017767 0.398994
v 0.067755 0.000000 0.410956
v 0.055506 0.000000 0.424091
v 0.046337 0.000000 0.438147
v 0.067205 0.021810 0.410685
v 0.041709 0.000000 0.475921
v 0.040219 0.011831 0.475540
v 0.040356 0.000000 0.455922
v 0.057588 0.035320 0.418456
v 0.054610 0.015816 0.424343
v 0.048856 0.028492 0.429490
v 0.048070 0.044174 0.424475
v 0.040799 0.038144 0.435048
v 0.045683 0.013114 0.438256
v 0.041493 0.024470 0.442332
v 0.034698 0.033897 0.446528
v 0.039677 0.011797 0.455879
v 0.035954 0.022132 0.458690
v 0.035526 0.022113 0.477538
v 0.029560 0.030969 0.461619
v 0.028078 0.029890 0.480263
v 0.019393 0.036039 0.483066
v 0.021001 0.037874 0.465322
v 0.025734 0.041600 0.450415
v 0.030820 0.045682 0.440253
v 0.037391 0.050818 0.430366
v 0.009814 0.041177 0.485877
v -0.000446 0.045687 0.488767
v -0.011022 0.048789 0.492274
v -0.021715 0.050584 0.495482
v -0.022199 0.054567 0.481156
v -0.021839 0.059393 0.470110
v -0.021147 0.065064 0.462008
v -0.020769 0.070396 0.455534
v 0.011069 0.043989 0.468506
v 0.014912 0.047878 0.455293
v 0.019338 0.052260 0.445637
v 0.024508 0.057189 0.436988
v 0.010135 0.062883 0.443854
v 0.006561 0.057907 0.451461
v 0.003116 0.053155 0.460478
v 0.000392 0.048697 0.472904
v -0.010958 0.052735 0.476500
v -0.009205 0.057614 0.465031
v -0.006953 0.062329 0.456913
v -0.004531 0.067638 0.449848
v -0.062093 0.059422 0.456281
v -0.061143 0.051632 0.464237
v -0.058277 0.046055 0.474596
v -0.055427 0.042124 0.486988
v -0.051968 0.038496 0.501834
v -0.063086 0.000000 0.502993
v -0.074344 0.051030 0.451206
v -0.096504 0.042198 0.427570
v -0.085992 0.044260 0.441429
v -0.097882 0.028949 0.428949
v -0.099205 0.000000 0.430186
v -0.087306 0.031767 0.444127
v -0.074840 0.037487 0.459305
v -0.079608 0.017697 0.459970
v -0.088894 0.015915 0.445298
v -0.098806 0.014138 0.429926
v -0.036314 0.069754 0.458606
v -0.035294 0.064353 0.465062
v -0.034692 0.059031 0.472848
v -0.033797 0.054023 0.484118
v -0.032496 0.049967 0.498023
v -0.042895 0.046225 0.499649
v -0.045260 0.050118 0.484973
v -0.046959 0.054557 0.474294
v -0.048447 0.059959 0.465656
v -0.049590 0.066011 0.458581
v -0.068016 0.033062 0.474113
v -0.072362 0.016713 0.473803
v -0.063122 0.030008 0.487842
v -0.067074 0.015470 0.487726
v -0.058850 0.027507 0.502610
v -0.062397 0.014303 0.502310
v 0.043971 0.000000 0.497360
v 0.043606 0.000000 0.519662
v 0.039373 0.000000 0.533817
v -0.058293 0.000000 0.519915
v -0.053353 0.000000 0.537468
v -0.047451 0.000000 0.550813
v -0.029174 0.000000 0.566186
v 0.042078 0.012772 0.497277
v 0.036084 0.022418 0.498206
v 0.027740 0.029727 0.499990
v 0.018654 0.033912 0.502023
v 0.009464 0.038878 0.504091
v 0.000011 0.043056 0.506403
v -0.010179 0.046270 0.509146
v -0.020280 0.048063 0.511965
v -0.030678 0.047168 0.514605
v -0.040069 0.043370 0.516408
v -0.048711 0.035883 0.518098
v -0.054613 0.025699 0.518980
v -0.057583 0.013202 0.519398
v 0.041356 0.013918 0.518673
v 0.036070 0.021935 0.518907
v 0.026845 0.029775 0.519021
v 0.019598 0.033542 0.520162
v 0.009811 0.038438 0.521807
v 0.002131 0.041748 0.523085
v -0.008887 0.045111 0.525642
v -0.017549 0.046439 0.528177
v -0.029047 0.045061 0.531105
v -0.036789 0.041585 0.532532
v -0.045772 0.033294 0.534035
v -0.050234 0.025098 0.534896
v -0.052803 0.012856 0.536718
v 0.034023 0.016631 0.535494
v 0.020726 0.027584 0.536494
v 0.006043 0.035578 0.537842
v -0.011017 0.040889 0.541463
v -0.029592 0.038717 0.545920
v -0.042135 0.026851 0.548851
v -0.046485 0.012902 0.550329
v 0.017327 0.008052 0.557118
v 0.011730 0.013527 0.558248
v 0.002859 0.018298 0.559989
v -0.009887 0.022095 0.562549
v -0.019358 0.020833 0.564240
v -0.024972 0.015513 0.565508
v -0.028237 0.008836 0.566135
v 0.091482 -0.014932 0.389130
v 0.088067 -0.027468 0.391823
v 0.081241 -0.034526 0.396961
v 0.073009 -0.040328 0.402722
v 0.063642 -0.045778 0.408820
v 0.053463 -0.051018 0.414946
v 0.043400 -0.055665 0.420837
v 0.028394 -0.061804 0.428940
v 0.012179 -0.067392 0.436933
v -0.004420 -0.072589 0.444249
v -0.021575 -0.075654 0.449784
v -0.039640 -0.074823 0.453059
v -0.051035 -0.071811 0.452661
v -0.062189 -0.067460 0.449934
v -0.074109 -0.061669 0.444739
v -0.084567 -0.057380 0.437103
v -0.094827 -0.054800 0.425792
v 0.080996 -0.017767 0.398994
v 0.080791 0.000000 0.399457
v 0.067205 -0.021810 0.410685
v 0.040219 -0.011832 0.475540
v 0.057588 -0.035320 0.418456
v 0.054610 -0.015816 0.424343
v 0.048856 -0.028492 0.429490
v 0.048070 -0.044174 0.424475
v 0.040799 -0.038144 0.435048
v 0.045683 -0.013114 0.438256
v 0.041493 -0.024470 0.442332
v 0.034698 -0.033897 0.446528
v 0.039677 -0.011797 0.455879
v 0.035954 -0.022132 0.458690
v 0.035526 -0.022113 0.477538
v 0.029560 -0.030969 0.461619
v 0.028078 -0.029890 0.480263
v 0.019393 -0.036040 0.483066
v 0.021001 -0.037874 0.465322
v 0.025734 -0.041600 0.450415
v 0.030820 -0.045682 0.440253
v 0.037391 -0.050818 0.430366
v 0.009814 -0.041177 0.485877
v -0.000446 -0.045687 0.488767
v -0.011022 -0.048789 0.492274
v -0.021715 -0.050585 0.495482
v -0.022199 -0.054567 0.481156
v -0.021839 -0.059393 0.470110
v -0.021147 -0.065064 0.462008
v -0.020769 -0.070396 0.455534
v 0.011069 -0.043989 0.468506
v 0.014912 -0.047878 0.455293
v 0.019338 -0.052260 0.445637
v 0.024508 -0.057189 0.436988
v 0.010135 -0.062883 0.443854
v 0.006561 -0.057907 0.451461
v 0.003116 -0.053155 0.460478
v 0.000392 -0.048697 0.472904
v -0.010958 -0.052735 0.476500
v -0.009205 -0.057615 0.465031
v -0.006953 -0.062329 0.456913
v -0.004531 -0.067638 0.449848
v -0.062093 -0.059422 0.456281
v -0.061143 -0.051633 0.464237
v -0.058277 -0.046055 0.474596
v -0.055427 -0.042124 0.486988
v -0.051968 -0.038496 0.501834
v -0.074344 -0.051031 0.451206
v -0.096504 -0.042198 0.427570
v -0.085992 -0.044260 0.441429
v -0.097882 -0.028949 0.428949
v -0.087306 -0.031767 0.444127
v -0.089333 0.000000 0.445787
v -0.074840 -0.037487 0.459305
v -0.080501 0.000000 0.459952
v -0.079608 -0.017697 0.459970
v -0.088894 -0.015915 0.445298
v -0.098806 -0.014138 0.429926
v -0.036314 -0.069754 0.458606
v -0.035294 -0.064353 0.465062
v -0.034692 -0.059031 0.472848
v -0.033797 -0.054023 0.484118
v -0.032496 -0.049967 0.498023
v -0.042895 -0.046226 0.499649
v -0.045260 -0.050118 0.484973
v -0.046959 -0.054557 0.474294
v -0.048447 -0.059959 0.465656
v -0.049590 -0.066011 0.458581
v -0.068016 -0.033062 0.474113
v -0.072362 -0.016714 0.473803
v -0.073196 0.000000 0.473794
v -0.063122 -0.030008 0.487842
v -0.067074 -0.015470 0.487726
v -0.067936 0.000000 0.487818
v -0.058850 -0.027507 0.502610
v -0.062397 -0.014304 0.502310
v 0.020292 0.000000 0.556400
v 0.042078 -0.012773 0.497277
v 0.036084 -0.022418 0.498206
v 0.027740 -0.029727 0.499990
v 0.018654 -0.033912 0.502023
v 0.009464 -0.038879 0.504091
v 0.000011 -0.043056 0.506403
v -0.010179 -0.046270 0.509146
v -0.020280 -0.048063 0.511965
v -0.030678 -0.047168 0.514605
v -0.040069 -0.043370 0.516408
v -0.048711 -0.035883 0.518098
v -0.054613 -0.025699 0.518980
v -0.057583 -0.013203 0.519398
v 0.041356 -0.013919 0.518673
v 0.036070 -0.021936 0.518907
v 0.026845 -0.029775 0.519021
v 0.019598 -0.033542 0.520162
v 0.009811 -0.038438 0.521807
v 0.002131 -0.041748 0.523085
v -0.008887 -0.045111 0.525642
v -0.017549 -0.046440 0.528177
v -0.029047 -0.045062 0.531105
v -0.036789 -0.041585 0.532532
v -0.045772 -0.033294 0.534035
v -0.050234 -0.025098 0.534896
v -0.052803 -0.012856 0.536718
v 0.034023 -0.016631 0.535494
v 0.020726 -0.027584 0.536494
v 0.006043 -0.035578 0.537842
v -0.011017 -0.040889 0.541463
v -0.029592 -0.038718 0.545920
v -0.042135 -0.026851 0.548851
v -0.046485 -0.012902 0.550329
v 0.017327 -0.008052 0.557118
v 0.011730 -0.013527 0.558248
v 0.002859 -0.018298 0.559989
v -0.009887 -0.022095 0.562549
v -0.019358 -0.020833 0.564240
v -0.024972 -0.015513 0.565508
v -0.028237 -0.008837 0.566135
v -0.083078 0.051655 0.052923
v -0.075382 0.067737 0.056801
v -0.075377 -0.067734 0.056801
v -0.063458 -0.082789 0.061956
v -0.046300 -0.096474 0.071502
v -0.031060 -0.104412 0.081765
v -0.011442 -0.110712 0.096922
v 0.006147 -0.114410 0.113850
v 0.017848 -0.115519 0.125511
v 0.028182 -0.116083 0.136884
v 0.039773 -0.116368 0.151043
v 0.050670 -0.116612 0.166358
v 0.061243 -0.116918 0.182389
v 0.069518 -0.117434 0.196511
v 0.075796 -0.118111 0.208532
v 0.082951 -0.119095 0.223366
v 0.088271 -0.120202 0.236439
v 0.093453 -0.121677 0.252269
v 0.097001 -0.123254 0.268709
v 0.098026 -0.125231 0.285136
v 0.097068 -0.127090 0.300391
v 0.092736 -0.129737 0.317682
v 0.086737 -0.132276 0.331391
v 0.078281 -0.135287 0.343804
v 0.068525 -0.138268 0.354550
v 0.057402 -0.141231 0.363653
v 0.040685 -0.144993 0.373716
v 0.025597 -0.147871 0.379631
v 0.008667 -0.150530 0.383432
v -0.009775 -0.153087 0.384637
v -0.027280 -0.154461 0.382895
v -0.043931 -0.154711 0.378851
v -0.055023 -0.153901 0.374399
v -0.064248 -0.152950 0.368835
v -0.075446 -0.150541 0.359947
v -0.084104 -0.147762 0.350620
v -0.092245 -0.143539 0.337494
v -0.098486 -0.138927 0.324265
v -0.104250 -0.133154 0.309094
v -0.110341 -0.125036 0.289624
v -0.114264 -0.117386 0.272239
v -0.117820 -0.107836 0.252176
v -0.120716 -0.097815 0.232997
v -0.122448 -0.079153 0.203648
v -0.124201 -0.057723 0.182304
v -0.125184 -0.029637 0.169447
v -0.120945 -0.031120 0.158270
v -0.118724 -0.042218 0.157547
v -0.115634 -0.050930 0.155495
v -0.110716 -0.057644 0.149636
v -0.101499 -0.063791 0.136102
v -0.093037 -0.068430 0.122598
v -0.085433 -0.072077 0.109760
v -0.070377 -0.079574 0.081326
v 0.008851 -0.155995 0.371862
v 0.008492 -0.159960 0.362720
v 0.024429 -0.154035 0.368666
v 0.024607 -0.158127 0.359667
v 0.035404 -0.156756 0.354541
v 0.045723 -0.155593 0.345585
v 0.052747 -0.154655 0.336167
v 0.056993 -0.154090 0.326891
v 0.038043 -0.152082 0.363010
v 0.050582 -0.149783 0.354472
v 0.060169 -0.147737 0.344986
v 0.067594 -0.145832 0.334547
v 0.059517 -0.153666 0.317437
v -0.003912 -0.161353 0.361608
v -0.015111 -0.162447 0.357601
v -0.024984 -0.163312 0.351200
v -0.031062 -0.163712 0.345829
v -0.036368 -0.163960 0.339523
v -0.041098 -0.164220 0.331061
v 0.060299 -0.153321 0.303818
v 0.057473 -0.153532 0.291398
v 0.051930 -0.154041 0.279358
v 0.008476 -0.158270 0.254134
v 0.021541 -0.157113 0.256541
v 0.035573 -0.155780 0.263013
v 0.044103 -0.154810 0.269526
v -0.006010 -0.159881 0.256085
v -0.019182 -0.161055 0.261743
v -0.032159 -0.161929 0.271888
v -0.040226 -0.163057 0.284329
v -0.044840 -0.163469 0.296411
v -0.046492 -0.163715 0.310168
v -0.044705 -0.164200 0.320605
v 0.073666 -0.143651 0.322387
v 0.079457 -0.139944 0.305961
v 0.086902 -0.134602 0.303145
v 0.084727 -0.136109 0.302606
v 0.083733 -0.136710 0.301274
v 0.083433 -0.136790 0.299742
v 0.088554 -0.133376 0.302123
v 0.089243 -0.132829 0.301100
v 0.090033 -0.132083 0.298167
v 0.083596 -0.136448 0.297298
v 0.084320 -0.134375 0.285366
v 0.069223 -0.144403 0.287207
v 0.073185 -0.143588 0.298568
v 0.090664 -0.130174 0.285155
v 0.061644 -0.145786 0.273663
v 0.072275 -0.137386 0.266657
v 0.089464 -0.127939 0.268860
v 0.086216 -0.125827 0.253729
v 0.081522 -0.123835 0.238865
v 0.076328 -0.122467 0.226173
v 0.069371 -0.121295 0.211965
v 0.063291 -0.120484 0.200459
v 0.055216 -0.119750 0.186959
v 0.044678 -0.118942 0.170416
v 0.041715 -0.118898 0.166618
v 0.038926 -0.119353 0.165063
v 0.034920 -0.120358 0.164576
v 0.033591 -0.120860 0.165259
v 0.034119 -0.121057 0.166714
v 0.082714 -0.132081 0.269407
v 0.079699 -0.129930 0.254940
v 0.074998 -0.127884 0.240234
v 0.070121 -0.126422 0.228435
v 0.063784 -0.124999 0.215185
v 0.057696 -0.123878 0.203609
v 0.045983 -0.122381 0.184466
v -0.111952 -0.072209 0.166240
v -0.057256 -0.093745 0.090202
v -0.076208 -0.088912 0.119316
v -0.087007 -0.085667 0.134439
v -0.099104 -0.080717 0.150362
v -0.042028 -0.104098 0.100754
v -0.064372 -0.101839 0.132432
v -0.077141 -0.099924 0.149790
v -0.091701 -0.096572 0.169045
v -0.108112 -0.088989 0.186707
v 0.052600 -0.146926 0.262172
v 0.062611 -0.138155 0.253107
v 0.041237 -0.148076 0.253509
v 0.050426 -0.140134 0.243468
v 0.061654 -0.131986 0.233538
v 0.026312 -0.149652 0.245777
v 0.035938 -0.141492 0.234065
v 0.049969 -0.132741 0.223387
v -0.006342 -0.157700 0.372042
v -0.020398 -0.158682 0.369287
v -0.032703 -0.159150 0.364773
v -0.041496 -0.158998 0.360160
v -0.047337 -0.158510 0.355954
v -0.052833 -0.159080 0.335448
v -0.057348 -0.156760 0.344945
v -0.068845 -0.152799 0.347969
v -0.074357 -0.150414 0.339416
v -0.064759 -0.153466 0.332043
v -0.057682 -0.156334 0.324264
v -0.060496 -0.153907 0.311145
v -0.069488 -0.150212 0.319282
v -0.080050 -0.146778 0.327515
v -0.084661 -0.142543 0.314114
v -0.088448 -0.137489 0.298845
v -0.091726 -0.130789 0.279312
v -0.096673 -0.122391 0.259971
v -0.100122 -0.113441 0.237965
v -0.102361 -0.103228 0.213017
v -0.072213 -0.146757 0.305793
v -0.072678 -0.143009 0.289552
v -0.070610 -0.137308 0.265645
v -0.077969 -0.127709 0.246368
v -0.080415 -0.119442 0.223839
v -0.079784 -0.110654 0.193380
v -0.060362 -0.151736 0.297003
v -0.056491 -0.150317 0.281726
v -0.047480 -0.148360 0.262133
v -0.027782 -0.150975 0.248920
v -0.008448 -0.150465 0.240315
v 0.011029 -0.149830 0.240358
v -0.025137 -0.111803 0.113792
v -0.050725 -0.111342 0.145822
v 0.016354 -0.140341 0.224607
v 0.018100 -0.120573 0.146848
v -0.008584 -0.116734 0.126544
v 0.006034 -0.119496 0.136381
v 0.038178 -0.132259 0.210792
v -0.064185 -0.110856 0.165755
v -0.060655 -0.136685 0.248526
v -0.062874 -0.131292 0.235528
v -0.047339 -0.141008 0.243966
v -0.062724 -0.125416 0.217462
v -0.058727 -0.120630 0.195818
v -0.048027 -0.118845 0.174587
v -0.035963 -0.118533 0.156290
v -0.029558 -0.143616 0.235069
v -0.009080 -0.143232 0.226880
v -0.078439 -0.075606 0.097144
v -0.066682 -0.091470 0.105242
v -0.052934 -0.103188 0.116723
v -0.037947 -0.111805 0.129115
v -0.022887 -0.117952 0.140314
v -0.048023 -0.134822 0.228973
v -0.047703 -0.129931 0.214337
v -0.031877 -0.137153 0.221358
v -0.009312 -0.121746 0.148675
v -0.021122 -0.123306 0.163466
v -0.032804 -0.124638 0.180479
v -0.041952 -0.126869 0.197880
v -0.036127 -0.133236 0.212169
v -0.027930 -0.131271 0.201080
v -0.019970 -0.128263 0.185183
v -0.005681 -0.125847 0.168573
v 0.000988 -0.123594 0.154630
v -0.012984 -0.135631 0.209581
v 0.017595 -0.125419 0.171502
v 0.027539 -0.129470 0.192504
v -0.002240 -0.131165 0.192915
v 0.007141 -0.134245 0.204849
v -0.089971 0.019475 0.048359
v -0.083073 0.051653 0.052923
v -0.075382 -0.067737 0.056801
v -0.075377 0.067734 0.056801
v -0.075353 -0.067805 0.056408
v -0.083063 -0.051825 0.052619
v -0.087682 -0.036547 0.049341
v -0.091035 -0.000000 0.047682
v -0.105815 -0.012184 0.146724
v -0.106144 -0.017937 0.149090
v -0.105484 -0.032150 0.149022
v -0.104184 -0.044696 0.148519
v -0.103064 -0.049217 0.146562
v -0.102005 -0.051723 0.143844
v -0.098768 -0.056662 0.134917
v -0.093533 -0.062587 0.121290
v -0.089457 -0.065880 0.110540
v -0.089160 -0.064095 0.106394
v -0.090212 -0.060168 0.104463
v -0.095041 -0.041123 0.104518
v -0.104003 -0.012154 0.147265
v -0.103807 -0.017535 0.149740
v -0.103229 -0.031617 0.149795
v -0.103780 -0.031199 0.151107
v -0.102584 -0.044716 0.141332
v -0.094129 -0.053400 0.112097
v -0.097047 -0.050206 0.121510
v -0.100141 -0.046721 0.132189
v -0.097172 -0.038359 0.112693
v -0.099252 -0.036366 0.121719
v -0.101492 -0.034499 0.131242
v -0.103610 -0.033112 0.140427
v -0.104196 -0.020994 0.139861
v -0.102240 -0.022348 0.130851
v -0.100309 -0.023446 0.121787
v -0.098509 -0.024106 0.112933
v -0.096900 -0.024506 0.104409
v -0.104315 -0.010941 0.139082
v -0.104392 -0.000000 0.139133
v -0.102599 -0.011182 0.130547
v -0.100856 -0.011495 0.121737
v -0.099191 -0.011632 0.112960
v -0.097527 -0.011149 0.104265
v -0.104061 -0.000000 0.147174
v -0.102061 -0.043632 0.149314
v -0.102749 -0.043388 0.150829
v -0.104667 -0.000000 0.151372
v -0.096267 -0.057293 0.135367
v -0.096461 -0.059631 0.135882
v -0.091033 -0.062982 0.121623
v -0.090997 -0.065480 0.121988
v -0.099716 -0.052123 0.144641
v -0.100549 -0.053725 0.146353
v -0.102072 -0.049634 0.149374
v -0.100867 -0.049267 0.147379
v -0.104452 -0.017067 0.151328
v -0.095124 -0.000000 0.103651
v -0.086775 -0.066430 0.110703
v -0.086399 -0.064201 0.105541
v -0.087843 -0.059253 0.103663
v -0.092419 -0.040544 0.103492
v -0.094375 -0.024074 0.103535
v -0.095007 -0.010540 0.103503
v -0.085239 -0.069118 0.108741
v -0.079354 -0.073143 0.096603
v -0.090765 -0.000000 0.053377
v -0.104670 -0.000000 0.063467
v -0.089842 -0.019308 0.053311
v -0.088021 -0.034703 0.054207
v -0.085333 -0.045806 0.060091
v -0.084086 -0.051123 0.067522
v -0.084592 -0.053701 0.077348
v -0.095307 -0.000000 0.101587
v -0.095092 -0.010447 0.101589
v -0.093782 -0.034042 0.100884
v -0.090320 -0.046627 0.095073
v -0.086840 -0.052416 0.086942
v -0.094619 -0.023870 0.101276
v -0.090189 -0.019427 0.048014
v -0.082864 -0.063543 0.091472
v -0.078708 -0.066009 0.078607
v -0.095509 -0.018862 0.058455
v -0.095231 -0.032863 0.059047
v -0.093345 -0.042640 0.063920
v -0.092709 -0.046473 0.069316
v -0.093052 -0.048629 0.076763
v -0.095355 -0.047708 0.083884
v -0.097472 -0.043081 0.091346
v -0.099605 -0.033735 0.095947
v -0.098482 -0.023326 0.097037
v -0.098802 -0.009568 0.096941
v -0.104706 -0.016297 0.063548
v -0.104668 -0.031387 0.063611
v -0.104674 -0.039964 0.067064
v -0.104697 -0.043497 0.071764
v -0.104671 -0.044954 0.076847
v -0.104530 -0.044531 0.082403
v -0.104404 -0.041211 0.088442
v -0.104651 -0.033209 0.092410
v -0.104670 -0.022502 0.092652
v -0.104671 -0.009272 0.092611
v 0.008385 -0.160646 0.359906
v 0.023616 -0.158913 0.357021
v 0.033821 -0.157618 0.352176
v 0.043573 -0.156519 0.343712
v 0.050213 -0.155632 0.334810
v 0.054225 -0.155098 0.326043
v 0.056611 -0.154697 0.317108
v -0.003338 -0.161962 0.358856
v -0.013923 -0.162997 0.355068
v -0.023254 -0.163814 0.349018
v -0.028999 -0.164192 0.343942
v -0.034013 -0.164426 0.337982
v -0.038484 -0.164672 0.329984
v 0.057350 -0.154371 0.304236
v 0.054679 -0.154571 0.292497
v 0.049440 -0.155052 0.281119
v 0.008370 -0.159049 0.257278
v 0.020719 -0.157955 0.259553
v 0.033980 -0.156695 0.265670
v 0.042043 -0.155778 0.271826
v -0.005322 -0.160572 0.259122
v -0.017770 -0.161681 0.264470
v -0.030035 -0.162506 0.274058
v -0.037660 -0.163573 0.285817
v -0.042021 -0.163962 0.297236
v -0.043582 -0.164195 0.310238
v -0.041893 -0.164654 0.320102
v -0.083078 -0.051655 0.052923
v -0.075382 -0.067737 0.056801
v -0.075377 0.067734 0.056801
v -0.063458 0.082789 0.061956
v -0.046300 0.096474 0.071502
v -0.031060 0.104412 0.081765
v -0.011442 0.110712 0.096922
v 0.006147 0.114410 0.113850
v 0.017848 0.115519 0.125511
v 0.028182 0.116083 0.136884
v 0.039773 0.116368 0.151043
v 0.050670 0.116612 0.166358
v 0.061243 0.116918 0.182389
v 0.069518 0.117434 0.196511
v 0.075796 0.118111 0.208532
v 0.082951 0.119095 0.223366
v 0.088271 0.120202 0.236439
v 0.093453 0.121677 0.252269
v 0.097001 0.123254 0.268709
v 0.098026 0.125231 0.285136
v 0.097068 0.127090 0.300391
v 0.092736 0.129737 0.317682
v 0.086737 0.132276 0.331391
v 0.078281 0.135287 0.343804
v 0.068525 0.138268 0.354550
v 0.057402 0.141231 0.363653
v 0.040685 0.144993 0.373716
v 0.025597 0.147871 0.379631
v 0.008667 0.150530 0.383432
v -0.009775 0.153087 0.384637
v -0.027280 0.154461 0.382895
v -0.043931 0.154711 0.378851
v -0.055023 0.153901 0.374399
v -0.064248 0.152950 0.368835
v -0.075446 0.150541 0.359947
v -0.084104 0.147762 0.350620
v -0.092245 0.143539 0.337494
v -0.098486 0.138927 0.324265
v -0.104250 0.133154 0.309094
v -0.110341 0.125036 0.289624
v -0.114264 0.117386 0.272239
v -0.117820 0.107836 0.252176
v -0.120716 0.097815 0.232997
v -0.122448 0.079153 0.203648
v -0.124201 0.057723 0.182304
v -0.125184 0.029637 0.169447
v -0.123118 -0.000000 0.158736
v -0.120945 0.031120 0.158270
v -0.118724 0.042218 0.157547
v -0.115634 0.050930 0.155495
v -0.110716 0.057644 0.149636
v -0.101499 0.063791 0.136102
v -0.093037 0.068430 0.122598
v -0.085433 0.072077 0.109760
v -0.070377 0.079574 0.081326
v 0.008851 0.155995 0.371862
v 0.008492 0.159960 0.362720
v 0.024429 0.154035 0.368666
v 0.024607 0.158127 0.359667
v 0.035404 0.156756 0.354541
v 0.045723 0.155593 0.345585
v 0.052747 0.154655 0.336167
v 0.056993 0.154090 0.326891
v 0.038043 0.152082 0.363010
v 0.050582 0.149783 0.354472
v 0.060169 0.147737 0.344986
v 0.067594 0.145832 0.334547
v 0.059517 0.153666 0.317437
v -0.003912 0.161353 0.361608
v -0.015111 0.162447 0.357601
v -0.024984 0.163312 0.351200
v -0.031062 0.163712 0.345829
v -0.036368 0.163960 0.339523
v -0.041098 0.164220 0.331061
v 0.060299 0.153321 0.303818
v 0.057473 0.153532 0.291398
v 0.051930 0.154041 0.279358
v 0.008476 0.158270 0.254134
v 0.021541 0.157113 0.256541
v 0.035573 0.155780 0.263013
v 0.044103 0.154810 0.269526
v -0.006010 0.159881 0.256085
v -0.019182 0.161055 0.261743
v -0.032159 0.161929 0.271888
v -0.040226 0.163057 0.284329
v -0.044840 0.163469 0.296411
v -0.046492 0.163715 0.310168
v -0.044705 0.164200 0.320605
v 0.073666 0.143651 0.322387
v 0.079457 0.139944 0.305961
v 0.086902 0.134602 0.303145
v 0.084727 0.136109 0.302606
v 0.083733 0.136710 0.301274
v 0.083433 0.136790 0.299742
v 0.088554 0.133376 0.302123
v 0.089243 0.132829 0.301100
v 0.090033 0.132083 0.298167
v 0.083596 0.136448 0.297298
v 0.084320 0.134375 0.285366
v 0.069223 0.144403 0.287207
v 0.073185 0.143588 0.298568
v 0.090664 0.130174 0.285155
v 0.061644 0.145786 0.273663
v 0.072275 0.137386 0.266657
v 0.089464 0.127939 0.268860
v 0.086216 0.125827 0.253729
v 0.081522 0.123835 0.238865
v 0.076328 0.122467 0.226173
v 0.069371 0.121295 0.211965
v 0.063291 0.120484 0.200459
v 0.055216 0.119750 0.186959
v 0.044678 0.118942 0.170416
v 0.041715 0.118898 0.166618
v 0.038926 0.119353 0.165063
v 0.034920 0.120358 0.164576
v 0.033591 0.120860 0.165259
v 0.034119 0.121057 0.166714
v 0.082714 0.132081 0.269407
v 0.079699 0.129930 0.254940
v 0.074998 0.127884 0.240234
v 0.070121 0.126422 0.228435
v 0.063784 0.124999 0.215185
v 0.057696 0.123878 0.203609
v 0.045983 0.122381 0.184466
v -0.111952 0.072209 0.166240
v -0.057256 0.093745 0.090202
v -0.076208 0.088912 0.119316
v -0.087007 0.085667 0.134439
v -0.099104 0.080717 0.150362
v -0.042028 0.104098 0.100754
v -0.064372 0.101839 0.132432
v -0.077141 0.099924 0.149790
v -0.091701 0.096572 0.169045
v -0.108112 0.088989 0.186707
v 0.052600 0.146926 0.262172
v 0.062611 0.138155 0.253107
v 0.041237 0.148076 0.253509
v 0.050426 0.140134 0.243468
v 0.061654 0.131986 0.233538
v 0.026312 0.149652 0.245777
v 0.035938 0.141492 0.234065
v 0.049969 0.132741 0.223387
v -0.006342 0.157700 0.372042
v -0.020398 0.158682 0.369287
v -0.032703 0.159150 0.364773
v -0.041496 0.158998 0.360160
v -0.047337 0.158510 0.355954
v -0.052833 0.159080 0.335448
v -0.057348 0.156760 0.344945
v -0.068845 0.152799 0.347969
v -0.074357 0.150414 0.339416
v -0.064759 0.153466 0.332043
v -0.057682 0.156334 0.324264
v -0.060496 0.153907 0.311145
v -0.069488 0.150212 0.319282
v -0.080050 0.146778 0.327515
v -0.084661 0.142543 0.314114
v -0.088448 0.137489 0.298845
v -0.091726 0.130789 0.279312
v -0.096673 0.122391 0.259971
v -0.100122 0.113441 0.237965
v -0.102361 0.103228 0.213017
v -0.072213 0.146757 0.305793
v -0.072678 0.143009 0.289552
v -0.070610 0.137308 0.265645
v -0.077969 0.127709 0.246368
v -0.080415 0.119442 0.223839
v -0.079784 0.110654 0.193380
v -0.060362 0.151736 0.297003
v -0.056491 0.150317 0.281726
v -0.047480 0.148360 0.262133
v -0.027782 0.150975 0.248920
v -0.008448 0.150465 0.240315
v 0.011029 0.149830 0.240358
v -0.025137 0.111803 0.113792
v -0.050725 0.111342 0.145822
v 0.016354 0.140341 0.224607
v 0.018100 0.120573 0.146848
v -0.008584 0.116734 0.126544
v 0.006034 0.119496 0.136381
v 0.038178 0.132259 0.210792
v -0.064185 0.110856 0.165755
v -0.060655 0.136685 0.248526
v -0.062874 0.131292 0.235528
v -0.047339 0.141008 0.243966
v -0.062724 0.125416 0.217462
v -0.058727 0.120630 0.195818
v -0.048027 0.118845 0.174587
v -0.035963 0.118533 0.156290
v -0.029558 0.143616 0.235069
v -0.009080 0.143232 0.226880
v -0.078439 0.075606 0.097144
v -0.066682 0.091470 0.105242
v -0.052934 0.103188 0.116723
v -0.037947 0.111805 0.129115
v -0.022887 0.117952 0.140314
v -0.048023 0.134822 0.228973
v -0.047703 0.129931 0.214337
v -0.031877 0.137153 0.221358
v -0.009312 0.121746 0.148675
v -0.021122 0.123306 0.163466
v -0.032804 0.124638 0.180479
v -0.041952 0.126869 0.197880
v -0.036127 0.133236 0.212169
v -0.027930 0.131271 0.201080
v -0.019970 0.128263 0.185183
v -0.005681 0.125847 0.168573
v 0.000988 0.123594 0.154630
v -0.012984 0.135631 0.209581
v 0.017595 0.125419 0.171502
v 0.027539 0.129470 0.192504
v -0.002240 0.131165 0.192915
v 0.007141 0.134245 0.204849
v -0.089971 -0.019475 0.048359
v -0.083073 -0.051653 0.052923
v -0.075382 0.067737 0.056801
v -0.075377 -0.067734 0.056801
v -0.125630 -0.000000 0.165645
v -0.075353 0.067805 0.056408
v -0.083063 0.051825 0.052619
v -0.087682 0.036547 0.049341
v -0.105892 -0.000000 0.146721
v -0.105815 0.012184 0.146724
v -0.106144 0.017937 0.149090
v -0.105484 0.032150 0.149022
v -0.104184 0.044696 0.148519
v -0.103064 0.049217 0.146562
v -0.102005 0.051723 0.143844
v -0.098768 0.056662 0.134917
v -0.093533 0.062587 0.121290
v -0.089457 0.065880 0.110540
v -0.089160 0.064095 0.106394
v -0.090212 0.060168 0.104463
v -0.095041 0.041123 0.104518
v -0.097728 -0.000000 0.104493
v -0.104003 0.012154 0.147265
v -0.103807 0.017535 0.149740
v -0.103229 0.031617 0.149795
v -0.103780 0.031199 0.151107
v -0.102584 0.044716 0.141332
v -0.094129 0.053400 0.112097
v -0.097047 0.050206 0.121510
v -0.100141 0.046721 0.132189
v -0.097172 0.038359 0.112693
v -0.099252 0.036366 0.121719
v -0.101492 0.034499 0.131242
v -0.103610 0.033112 0.140427
v -0.104196 0.020994 0.139861
v -0.102240 0.022348 0.130851
v -0.100309 0.023446 0.121787
v -0.098509 0.024106 0.112933
v -0.096900 0.024506 0.104409
v -0.104315 0.010941 0.139082
v -0.102705 -0.000000 0.130576
v -0.102599 0.011182 0.130547
v -0.100856 0.011495 0.121737
v -0.099191 0.011632 0.112960
v -0.097527 0.011149 0.104265
v -0.100983 -0.000000 0.121726
v -0.099336 -0.000000 0.113010
v -0.102061 0.043632 0.149314
v -0.102749 0.043388 0.150829
v -0.104061 -0.000000 0.149786
v -0.096267 0.057293 0.135367
v -0.096461 0.059631 0.135882
v -0.091033 0.062982 0.121623
v -0.090997 0.065480 0.121988
v -0.099716 0.052123 0.144641
v -0.100549 0.053725 0.146353
v -0.102072 0.049634 0.149374
v -0.100867 0.049267 0.147379
v -0.104452 0.017067 0.151328
v -0.086775 0.066430 0.110703
v -0.086399 0.064201 0.105541
v -0.087843 0.059253 0.103663
v -0.092419 0.040544 0.103492
v -0.094375 0.024074 0.103535
v -0.095007 0.010540 0.103503
v -0.085239 0.069118 0.108741
v -0.079354 0.073143 0.096603
v -0.096740 -0.000000 0.058858
v -0.089842 0.019308 0.053311
v -0.088021 0.034703 0.054207
v -0.085333 0.045806 0.060091
v -0.084086 0.051123 0.067522
v -0.084592 0.053701 0.077348
v -0.104712 -0.000000 0.092490
v -0.099031 -0.000000 0.096859
v -0.095092 0.010447 0.101589
v -0.093782 0.034042 0.100884
v -0.090320 0.046627 0.095073
v -0.086840 0.052416 0.086942
v -0.094619 0.023870 0.101276
v -0.090189 0.019427 0.048014
v -0.082864 0.063543 0.091472
v -0.078708 0.066009 0.078607
v -0.095509 0.018862 0.058455
v -0.095231 0.032863 0.059047
v -0.093345 0.042640 0.063920
v -0.092709 0.046473 0.069316
v -0.093052 0.048629 0.076763
v -0.095355 0.047708 0.083884
v -0.097472 0.043081 0.091346
v -0.099605 0.033735 0.095947
v -0.098482 0.023326 0.097037
v -0.098802 0.009568 0.096941
v -0.104706 0.016297 0.063548
v -0.104668 0.031387 0.063611
v -0.104674 0.039964 0.067064
v -0.104697 0.043497 0.071764
v -0.104671 0.044954 0.076847
v -0.104530 0.044531 0.082403
v -0.104404 0.041211 0.088442
v -0.104651 0.033209 0.092410
v -0.104670 0.022502 0.092652
v -0.104671 0.009272 0.092611
v 0.008385 0.160646 0.359906
v 0.023616 0.158913 0.357021
v 0.033821 0.157618 0.352176
v 0.043573 0.156519 0.343712
v 0.050213 0.155632 0.334810
v 0.054225 0.155098 0.326043
v 0.056611 0.154697 0.317108
v -0.003338 0.161962 0.358856
v -0.013923 0.162997 0.355068
v -0.023254 0.163814 0.349018
v -0.028999 0.164192 0.343942
v -0.034013 0.164426 0.337982
v -0.038484 0.164672 0.329984
v 0.057350 0.154371 0.304236
v 0.054679 0.154571 0.292497
v 0.049440 0.155052 0.281119
v 0.008370 0.159049 0.257278
v 0.020719 0.157955 0.259553
v 0.033980 0.156695 0.265670
v 0.042043 0.155778 0.271826
v -0.005322 0.160572 0.259122
v -0.017770 0.161681 0.264470
v -0.030035 0.162506 0.274058
v -0.037660 0.163573 0.285817
v -0.042021 0.163962 0.297236
v -0.043582 0.164195 0.310238
v -0.041893 0.164654 0.320102
v -0.098806 -0.014138 0.429926
v -0.097882 -0.028949 0.428949
v -0.096504 -0.042198 0.427570
v -0.094834 -0.054802 0.425797
v -0.104924 -0.052941 0.409755
v -0.113792 -0.051973 0.392507
v -0.123911 -0.051555 0.370516
v -0.132570 -0.053144 0.348055
v -0.140422 -0.059968 0.321400
v -0.143959 -0.063327 0.305231
v -0.147125 -0.064508 0.289276
v -0.151483 -0.060185 0.266240
v -0.154364 -0.051608 0.250360
v -0.157374 -0.037069 0.235946
v -0.159213 -0.019991 0.227776
v -0.159879 -0.000000 0.225093
v -0.103172 -0.000000 0.423146
v -0.105855 -0.000000 0.422761
v -0.120978 -0.000000 0.387758
v -0.105837 -0.008637 0.422532
v -0.105556 -0.017984 0.422085
v -0.118461 -0.008841 0.398345
v -0.118318 -0.016759 0.397827
v -0.106034 -0.023639 0.420375
v -0.108110 -0.027970 0.415870
v -0.110780 -0.029596 0.410579
v -0.113995 -0.028277 0.404676
v -0.116984 -0.023648 0.399540
v -0.103075 -0.008505 0.423004
v -0.102865 -0.018407 0.422434
v -0.103445 -0.024358 0.420426
v -0.105893 -0.029041 0.415113
v -0.108769 -0.030307 0.409505
v -0.111995 -0.028501 0.403612
v -0.114740 -0.023163 0.399018
v -0.116020 -0.008960 0.398025
v -0.115777 -0.016631 0.397563
v -0.108643 -0.018315 0.416510
v -0.111677 -0.018524 0.410838
v -0.114913 -0.018036 0.404599
v -0.109015 -0.008981 0.416807
v -0.112152 -0.009008 0.410944
v -0.115390 -0.008949 0.404608
v -0.107396 -0.040206 0.409099
v -0.115619 -0.038537 0.392944
v -0.118114 -0.011995 0.393135
v -0.117537 -0.024131 0.392978
v -0.118658 -0.038407 0.387048
v -0.120024 -0.024298 0.387520
v -0.120654 -0.012722 0.387722
v -0.120636 -0.046248 0.380054
v -0.124767 -0.046955 0.370314
v -0.128982 -0.046937 0.360129
v -0.132499 -0.046210 0.351392
v -0.118467 -0.042614 0.386160
v -0.119161 -0.045349 0.383685
v -0.137367 -0.012664 0.343833
v -0.136835 -0.024766 0.343931
v -0.135805 -0.037828 0.344495
v -0.135161 -0.042073 0.345241
v -0.134005 -0.045195 0.347601
v -0.160142 -0.026851 0.241148
v -0.161259 -0.014102 0.235797
v -0.141693 -0.000000 0.338594
v -0.142005 -0.012958 0.336957
v -0.142808 -0.024680 0.332649
v -0.144175 -0.035964 0.325181
v -0.146129 -0.044519 0.314882
v -0.148552 -0.050539 0.301879
v -0.151012 -0.053434 0.288237
v -0.153666 -0.051861 0.274137
v -0.156182 -0.046508 0.261019
v -0.158461 -0.037767 0.249328
v -0.139138 -0.044813 0.331089
v -0.137919 -0.037460 0.337347
v -0.136157 -0.042630 0.341809
v -0.136038 -0.046222 0.341112
v -0.135436 -0.044713 0.343517
v -0.135276 -0.012506 0.345836
v -0.134958 -0.024620 0.345838
v -0.133769 -0.037240 0.346559
v -0.133217 -0.040042 0.347547
v -0.132194 -0.041772 0.349527
v -0.131433 -0.042741 0.351773
v -0.128308 -0.043407 0.359607
v -0.124050 -0.043617 0.370074
v -0.120071 -0.042801 0.379476
v -0.118820 -0.042065 0.382596
v -0.118253 -0.040797 0.384414
v -0.118139 -0.038311 0.385545
v -0.119409 -0.024286 0.386440
v -0.119913 -0.012706 0.386363
v -0.099205 -0.000000 0.430186
v -0.098806 0.014138 0.429926
v -0.097882 0.028949 0.428949
v -0.096504 0.042198 0.427570
v -0.094834 0.054802 0.425797
v -0.104924 0.052941 0.409755
v -0.113792 0.051973 0.392507
v -0.123911 0.051555 0.370516
v -0.132570 0.053144 0.348055
v -0.140422 0.059968 0.321400
v -0.143959 0.063327 0.305231
v -0.147125 0.064508 0.289276
v -0.151483 0.060185 0.266240
v -0.154364 0.051608 0.250360
v -0.157374 0.037069 0.235946
v -0.159213 0.019991 0.227776
v -0.116035 -0.000000 0.398173
v -0.118555 -0.000000 0.398353
v -0.105837 0.008637 0.422532
v -0.105556 0.017984 0.422085
v -0.118461 0.008841 0.398345
v -0.118318 0.016759 0.397827
v -0.106034 0.023639 0.420375
v -0.108110 0.027970 0.415870
v -0.110780 0.029596 0.410579
v -0.113995 0.028277 0.404676
v -0.116984 0.023648 0.399540
v -0.103075 0.008505 0.423004
v -0.102865 0.018407 0.422434
v -0.103445 0.024358 0.420426
v -0.105893 0.029041 0.415113
v -0.108769 0.030307 0.409505
v -0.111995 0.028501 0.403612
v -0.114740 0.023163 0.399018
v -0.116020 0.008960 0.398025
v -0.115777 0.016631 0.397563
v -0.108643 0.018315 0.416510
v -0.111677 0.018524 0.410838
v -0.114913 0.018036 0.404599
v -0.109108 -0.000000 0.416976
v -0.112317 -0.000000 0.410967
v -0.115622 -0.000000 0.404485
v -0.109015 0.008981 0.416807
v -0.112152 0.009008 0.410944
v -0.115390 0.008949 0.404608
v -0.107396 0.040206 0.409099
v -0.115619 0.038537 0.392944
v -0.118730 -0.000000 0.392716
v -0.118114 0.011995 0.393135
v -0.117537 0.024131 0.392978
v -0.118658 0.038407 0.387048
v -0.120024 0.024298 0.387520
v -0.120654 0.012722 0.387722
v -0.120636 0.046248 0.380054
v -0.124767 0.046955 0.370314
v -0.128982 0.046937 0.360129
v -0.132499 0.046210 0.351392
v -0.118467 0.042614 0.386160
v -0.119161 0.045349 0.383685
v -0.137529 -0.000000 0.343978
v -0.137367 0.012664 0.343833
v -0.136835 0.024766 0.343931
v -0.135805 0.037828 0.344495
v -0.135161 0.042073 0.345241
v -0.134005 0.045195 0.347601
v -0.160142 0.026851 0.241148
v -0.161259 0.014102 0.235797
v -0.161658 -0.000000 0.233955
v -0.142005 0.012958 0.336957
v -0.142808 0.024680 0.332649
v -0.144175 0.035964 0.325181
v -0.146129 0.044519 0.314882
v -0.148552 0.050539 0.301879
v -0.151012 0.053434 0.288237
v -0.153666 0.051861 0.274137
v -0.156182 0.046508 0.261019
v -0.158461 0.037767 0.249328
v -0.139138 0.044813 0.331089
v -0.137919 0.037460 0.337347
v -0.136157 0.042630 0.341809
v -0.136038 0.046222 0.341112
v -0.135436 0.044713 0.343517
v -0.135609 -0.000000 0.345783
v -0.135276 0.012506 0.345836
v -0.134958 0.024620 0.345838
v -0.133769 0.037240 0.346559
v -0.133217 0.040042 0.347547
v -0.132194 0.041772 0.349527
v -0.131433 0.042741 0.351773
v -0.128308 0.043407 0.359607
v -0.124050 0.043617 0.370074
v -0.120071 0.042801 0.379476
v -0.118820 0.042065 0.382596
v -0.118253 0.040797 0.384414
v -0.118139 0.038311 0.385545
v -0.119409 0.024286 0.386440
v -0.119913 0.012706 0.386363
v -0.120364 -0.000000 0.386420
v -0.130423 -0.000000 0.359608
v -0.126496 -0.000000 0.370075
v -0.122670 -0.000000 0.380272
v -0.133163 -0.000000 0.352303
v -0.132655 -0.012544 0.352147
v -0.129810 -0.012582 0.359607
v -0.125787 -0.012635 0.370075
v -0.121900 -0.012688 0.380036
v -0.121190 -0.024362 0.379819
v -0.125125 -0.024437 0.370074
v -0.129228 -0.024520 0.359607
v -0.132168 -0.024582 0.351998
v -0.121901 0.012663 0.380036
v -0.125788 0.012617 0.370075
v -0.129810 0.012567 0.359607
v -0.132656 0.012530 0.352147
v -0.132169 0.024556 0.351998
v -0.129229 0.024492 0.359607
v -0.125127 0.024403 0.370074
v -0.121193 0.024316 0.379820
v -0.120354 0.038142 0.379562
v -0.124371 0.037887 0.370074
v -0.128591 0.037600 0.359607
v -0.131650 0.037385 0.351839
v -0.120353 -0.038154 0.379562
v -0.124371 -0.037885 0.370074
v -0.128591 -0.037596 0.359607
v -0.131650 -0.037385 0.351839
v -0.159226 -0.024058 0.245948
v -0.160227 -0.012635 0.241154
v -0.142696 -0.000000 0.333257
v -0.142976 -0.011610 0.331790
v -0.143695 -0.022112 0.327931
v -0.144920 -0.032223 0.321239
v -0.146671 -0.039888 0.312012
v -0.148842 -0.045282 0.300361
v -0.151046 -0.047876 0.288138
v -0.153424 -0.046467 0.275506
v -0.155678 -0.041670 0.263752
v -0.157720 -0.033838 0.253277
v -0.159226 0.024058 0.245948
v -0.160227 0.012635 0.241154
v -0.160585 -0.000000 0.239503
v -0.142976 0.011610 0.331790
v -0.143695 0.022112 0.327931
v -0.144920 0.032223 0.321239
v -0.146671 0.039888 0.312012
v -0.148842 0.045282 0.300361
v -0.151046 0.047876 0.288138
v -0.153424 0.046467 0.275506
v -0.155678 0.041670 0.263752
v -0.157720 0.033838 0.253277
v -0.169116 -0.020525 0.253904
v -0.169970 -0.010780 0.249814
v -0.155014 -0.000000 0.328390
v -0.155252 -0.009905 0.327138
v -0.155866 -0.018865 0.323845
v -0.156911 -0.027490 0.318137
v -0.158405 -0.034030 0.310264
v -0.160257 -0.038631 0.300325
v -0.162137 -0.040844 0.289898
v -0.164166 -0.039642 0.279121
v -0.166089 -0.035550 0.269093
v -0.167831 -0.028868 0.260157
v -0.169116 0.020524 0.253904
v -0.169970 0.010780 0.249814
v -0.170275 -0.000000 0.248406
v -0.155252 0.009905 0.327138
v -0.155866 0.018865 0.323845
v -0.156911 0.027490 0.318137
v -0.158405 0.034030 0.310264
v -0.160257 0.038631 0.300325
v -0.162137 0.040844 0.289898
v -0.164166 0.039642 0.279120
v -0.166089 0.035550 0.269093
v -0.167831 0.028868 0.260157
v -0.168214 -0.017773 0.258632
v -0.168954 -0.009335 0.255090
v -0.156002 -0.000000 0.323133
v -0.156209 -0.008577 0.322049
v -0.156740 -0.016336 0.319198
v -0.157645 -0.023805 0.314254
v -0.158939 -0.029468 0.307437
v -0.160543 -0.033453 0.298831
v -0.162171 -0.035369 0.289801
v -0.163928 -0.034328 0.280468
v -0.165593 -0.030784 0.271785
v -0.167102 -0.024998 0.264046
v -0.168214 0.017773 0.258632
v -0.168954 0.009335 0.255090
v -0.169218 -0.000000 0.253871
v -0.156209 0.008577 0.322049
v -0.156740 0.016336 0.319198
v -0.157645 0.023805 0.314254
v -0.158939 0.029468 0.307437
v -0.160543 0.033453 0.298831
v -0.162171 0.035369 0.289801
v -0.163928 0.034328 0.280468
v -0.165593 0.030784 0.271785
v -0.167102 0.024998 0.264046
v -0.190742 0.124376 0.205622
v -0.191133 0.124382 0.205564
v -0.190684 0.128023 0.205948
v -0.191075 0.128049 0.205892
v -0.190513 0.130991 0.206923
v -0.190902 0.131049 0.206877
v -0.190227 0.133292 0.208542
v -0.190612 0.133382 0.208518
v -0.189828 0.134936 0.210808
v -0.190207 0.135049 0.210816
v -0.189312 0.135926 0.213731
v -0.189686 0.136049 0.213771
v -0.188679 0.136257 0.217322
v -0.189049 0.136382 0.217382
v -0.162816 0.136257 0.363999
v -0.163184 0.136382 0.364070
v -0.162183 0.135925 0.367590
v -0.162548 0.136049 0.367681
v -0.161667 0.134936 0.370513
v -0.162027 0.135049 0.370635
v -0.161268 0.133292 0.372780
v -0.161621 0.133382 0.372933
v -0.160982 0.130991 0.374398
v -0.161332 0.131049 0.374574
v -0.160810 0.128023 0.375373
v -0.161158 0.128049 0.375559
v -0.160753 0.124376 0.375699
v -0.161100 0.124382 0.375887
v -0.160753 -0.124375 0.375699
v -0.161101 -0.124381 0.375887
v -0.160811 -0.128022 0.375373
v -0.161158 -0.128048 0.375559
v -0.160982 -0.130990 0.374398
v -0.161332 -0.131048 0.374574
v -0.161268 -0.133291 0.372780
v -0.161621 -0.133381 0.372933
v -0.161667 -0.134935 0.370513
v -0.162027 -0.135048 0.370635
v -0.162183 -0.135924 0.367590
v -0.162548 -0.136048 0.367681
v -0.162816 -0.136256 0.363999
v -0.163184 -0.136381 0.364070
v -0.188679 -0.136256 0.217322
v -0.189049 -0.136381 0.217382
v -0.189312 -0.135924 0.213731
v -0.189686 -0.136048 0.213771
v -0.189828 -0.134935 0.210808
v -0.190207 -0.135048 0.210816
v -0.190227 -0.133291 0.208542
v -0.190612 -0.133381 0.208518
v -0.190513 -0.130990 0.206923
v -0.190902 -0.131048 0.206877
v -0.190685 -0.128022 0.205948
v -0.191075 -0.128048 0.205892
v -0.190742 -0.124375 0.205622
v -0.191133 -0.124381 0.205564
v -0.198329 0.136257 0.219024
v -0.197961 0.136382 0.218953
v -0.198963 0.135926 0.215433
v -0.198598 0.136049 0.215342
v -0.199478 0.134936 0.212509
v -0.199119 0.135049 0.212388
v -0.199878 0.133292 0.210243
v -0.199524 0.133382 0.210090
v -0.200163 0.130991 0.208625
v -0.199813 0.131049 0.208448
v -0.200335 0.128023 0.207650
v -0.199987 0.128049 0.207464
v -0.200393 0.124376 0.207324
v -0.200045 0.124382 0.207135
v -0.200393 -0.124375 0.207324
v -0.200045 -0.124381 0.207135
v -0.200335 -0.128022 0.207650
v -0.199987 -0.128048 0.207464
v -0.200163 -0.130990 0.208625
v -0.199813 -0.131048 0.208448
v -0.199878 -0.133291 0.210243
v -0.199524 -0.133381 0.210090
v -0.199478 -0.134935 0.212509
v -0.199119 -0.135048 0.212388
v -0.198963 -0.135924 0.215433
v -0.198598 -0.136048 0.215342
v -0.198330 -0.136256 0.219024
v -0.197961 -0.136381 0.218953
v -0.172466 -0.136256 0.365701
v -0.172096 -0.136381 0.365641
v -0.171833 -0.135924 0.369292
v -0.171459 -0.136048 0.369252
v -0.171318 -0.134935 0.372215
v -0.170938 -0.135048 0.372206
v -0.170918 -0.133291 0.374481
v -0.170533 -0.133381 0.374504
v -0.170633 -0.130990 0.376100
v -0.170244 -0.131048 0.376146
v -0.170461 -0.128022 0.377074
v -0.170070 -0.128048 0.377131
v -0.170403 -0.124375 0.377401
v -0.170012 -0.124381 0.377459
v -0.170403 0.124376 0.377401
v -0.170012 0.124382 0.377459
v -0.170461 0.128023 0.377074
v -0.170070 0.128049 0.377130
v -0.170633 0.130991 0.376100
v -0.170244 0.131049 0.376146
v -0.170918 0.133292 0.374481
v -0.170533 0.133382 0.374504
v -0.171318 0.134936 0.372215
v -0.170938 0.135049 0.372206
v -0.171833 0.135926 0.369292
v -0.171459 0.136049 0.369252
v -0.172466 0.136257 0.365701
v -0.172096 0.136382 0.365641
v -0.190554 0.124359 0.205970
v -0.190497 0.127946 0.206291
v -0.190331 0.130819 0.207234
v -0.190057 0.133024 0.208785
v -0.189675 0.134598 0.210955
v -0.189176 0.135556 0.213785
v -0.188553 0.135882 0.217317
v -0.162696 0.135882 0.363961
v -0.162073 0.135556 0.367492
v -0.161574 0.134598 0.370322
v -0.161191 0.133024 0.372493
v -0.160918 0.130819 0.374044
v -0.160752 0.127946 0.374987
v -0.160695 0.124359 0.375308
v -0.160695 -0.124358 0.375308
v -0.160752 -0.127945 0.374987
v -0.160918 -0.130818 0.374044
v -0.161191 -0.133023 0.372493
v -0.161574 -0.134597 0.370322
v -0.162073 -0.135555 0.367492
v -0.162696 -0.135881 0.363961
v -0.188553 -0.135881 0.217317
v -0.189176 -0.135555 0.213785
v -0.189675 -0.134597 0.210955
v -0.190058 -0.133023 0.208785
v -0.190331 -0.130818 0.207234
v -0.190497 -0.127945 0.206291
v -0.190554 -0.124358 0.205970
v -0.198450 0.135882 0.219062
v -0.199072 0.135556 0.215530
v -0.199571 0.134598 0.212700
v -0.199954 0.133024 0.210530
v -0.200228 0.130819 0.208979
v -0.200394 0.127946 0.208036
v -0.200450 0.124359 0.207715
v -0.200451 -0.124358 0.207715
v -0.200394 -0.127945 0.208036
v -0.200228 -0.130818 0.208979
v -0.199954 -0.133023 0.210530
v -0.199571 -0.134597 0.212700
v -0.199072 -0.135555 0.215530
v -0.198450 -0.135881 0.219062
v -0.172592 -0.135881 0.365706
v -0.171970 -0.135555 0.369237
v -0.171471 -0.134597 0.372067
v -0.171088 -0.133023 0.374238
v -0.170815 -0.130818 0.375789
v -0.170648 -0.127945 0.376732
v -0.170592 -0.124358 0.377053
v -0.170592 0.124359 0.377053
v -0.170648 0.127946 0.376732
v -0.170814 0.130819 0.375789
v -0.171088 0.133024 0.374238
v -0.171471 0.134598 0.372067
v -0.171970 0.135556 0.369237
v -0.172592 0.135882 0.365706
v 0.130611 -0.000000 0.259669
v 0.122644 -0.000000 0.236560
v 0.130708 -0.014630 0.259682
v 0.130708 0.014630 0.259682
v 0.130834 -0.026124 0.259112
v 0.130834 0.026124 0.259112
v 0.122674 -0.013855 0.236465
v 0.122674 0.013855 0.236465
v 0.122943 0.026465 0.236866
v 0.122940 -0.026465 0.236867
v 0.129637 0.033953 0.254918
v 0.129644 -0.033952 0.254915
v 0.130558 0.030594 0.257706
v 0.130546 -0.030595 0.257713
v 0.124344 0.032976 0.240321
v 0.124345 -0.032976 0.240320
v 0.125855 0.035472 0.244390
v 0.125855 -0.035472 0.244390
v 0.127693 0.035451 0.249493
v 0.127693 -0.035451 0.249493
f 2 162 1
f 162 2 19
f 19 3 4
f 3 19 2
f 4 23 19
f 23 4 5
f 19 20 162
f 20 19 23
f 5 27 23
f 27 5 6
f 21 20 28
f 28 20 23
f 23 29 28
f 29 23 27
f 22 21 32
f 32 21 28
f 26 22 35
f 35 22 32
f 32 29 33
f 29 32 28
f 35 33 36
f 33 35 32
f 36 34 38
f 34 36 33
f 33 31 34
f 31 33 29
f 6 30 27
f 30 6 7
f 29 30 31
f 30 29 27
f 60 62 61
f 62 60 59
f 38 34 42
f 38 42 41
f 41 54 53
f 41 42 54
f 53 59 60
f 53 54 59
f 34 31 43
f 34 43 42
f 31 44 43
f 31 30 44
f 7 8 30
f 30 8 44
f 54 42 55
f 55 42 43
f 54 58 59
f 58 54 55
f 59 63 62
f 63 59 58
f 57 64 58
f 64 63 58
f 43 44 56
f 43 56 55
f 56 57 55
f 57 58 55
f 8 9 44
f 44 9 56
f 9 10 56
f 57 56 10
f 10 11 57
f 64 57 11
f 73 17 72
f 17 18 72
f 17 71 16
f 71 17 73
f 72 76 73
f 76 72 74
f 79 76 74
f 79 74 80
f 213 80 75
f 80 213 79
f 61 50 49
f 50 61 62
f 49 83 84
f 83 49 50
f 87 83 88
f 83 87 84
f 16 65 15
f 16 71 65
f 15 65 90
f 15 90 14
f 88 82 89
f 82 88 83
f 66 89 65
f 65 89 90
f 62 51 50
f 51 62 63
f 50 82 83
f 82 50 51
f 63 52 51
f 52 63 64
f 51 81 82
f 81 51 52
f 11 12 64
f 52 64 12
f 12 81 52
f 81 12 13
f 90 13 14
f 13 90 81
f 89 81 90
f 81 89 82
f 89 67 88
f 67 89 66
f 71 77 66
f 71 66 65
f 73 77 71
f 77 73 76
f 76 78 77
f 78 76 79
f 215 79 213
f 79 215 78
f 88 68 87
f 68 88 67
f 92 215 231
f 215 92 78
f 94 231 234
f 231 94 92
f 67 77 91
f 77 67 66
f 68 91 93
f 91 68 67
f 92 91 78
f 91 77 78
f 93 92 94
f 92 93 91
f 96 234 70
f 234 96 94
f 95 94 96
f 94 95 93
f 95 69 93
f 69 68 93
f 86 87 68
f 86 68 69
f 84 86 85
f 86 84 87
f 85 48 84
f 48 49 84
f 47 49 48
f 49 47 61
f 46 61 47
f 61 46 60
f 45 60 46
f 60 45 53
f 53 45 40
f 40 41 53
f 41 40 39
f 39 38 41
f 38 39 37
f 37 36 38
f 24 26 25
f 25 26 35
f 37 25 36
f 25 35 36
f 97 25 104
f 25 97 24
f 104 37 105
f 37 104 25
f 105 39 106
f 39 105 37
f 106 40 107
f 40 106 39
f 107 45 108
f 45 107 40
f 108 46 109
f 46 108 45
f 109 47 110
f 47 109 46
f 110 48 111
f 48 110 47
f 115 96 116
f 96 115 95
f 116 70 100
f 70 116 96
f 114 95 115
f 95 114 69
f 113 69 114
f 69 113 86
f 111 85 112
f 85 111 48
f 112 86 113
f 86 112 85
f 129 100 101
f 100 129 116
f 128 116 129
f 116 128 115
f 127 115 128
f 115 127 114
f 126 113 127
f 113 114 127
f 125 113 126
f 113 125 112
f 124 112 125
f 112 124 111
f 123 111 124
f 111 123 110
f 122 110 123
f 110 122 109
f 121 109 122
f 109 121 108
f 120 108 121
f 108 120 107
f 119 107 120
f 107 119 106
f 118 106 119
f 106 118 105
f 98 97 117
f 117 97 104
f 117 105 118
f 105 117 104
f 99 117 130
f 117 99 98
f 117 118 130
f 99 137 237
f 137 99 130
f 130 119 131
f 119 130 118
f 137 131 138
f 131 137 130
f 119 120 131
f 131 121 132
f 121 131 120
f 138 132 139
f 132 138 131
f 121 122 132
f 132 123 133
f 123 132 122
f 139 133 140
f 133 139 132
f 123 124 133
f 133 125 134
f 125 133 124
f 133 141 140
f 141 133 134
f 125 126 134
f 126 135 134
f 135 126 127
f 141 135 142
f 135 141 134
f 127 128 135
f 135 129 136
f 129 135 128
f 136 101 102
f 101 136 129
f 142 136 143
f 136 142 135
f 143 136 102
f 143 102 103
f 162 144 1
f 144 162 161
f 161 145 144
f 145 161 146
f 163 146 161
f 146 163 147
f 20 161 162
f 161 20 163
f 147 165 148
f 165 147 163
f 21 166 20
f 166 163 20
f 163 166 167
f 163 167 165
f 22 170 21
f 170 166 21
f 26 173 22
f 173 170 22
f 170 167 166
f 167 170 171
f 173 171 170
f 171 173 174
f 174 172 171
f 172 174 176
f 171 169 167
f 169 171 172
f 148 168 149
f 168 148 165
f 167 168 165
f 168 167 169
f 198 199 200
f 200 197 198
f 176 180 172
f 180 176 179
f 179 191 192
f 192 180 179
f 191 198 197
f 197 192 191
f 172 181 169
f 181 172 180
f 182 168 169
f 182 169 181
f 150 168 182
f 168 150 149
f 180 192 193
f 193 181 180
f 192 197 196
f 196 193 192
f 197 200 201
f 201 196 197
f 196 201 202
f 202 195 196
f 193 194 181
f 194 182 181
f 193 196 195
f 195 194 193
f 151 182 194
f 182 151 150
f 152 151 194
f 194 195 152
f 153 152 195
f 195 202 153
f 210 209 159
f 159 209 160
f 159 158 208
f 208 210 159
f 210 212 209
f 212 211 209
f 217 211 212
f 211 217 218
f 213 218 217
f 218 213 75
f 199 187 188
f 188 200 199
f 187 222 221
f 187 221 188
f 225 221 222
f 221 225 226
f 157 203 158
f 203 208 158
f 228 203 157
f 228 157 156
f 226 220 221
f 220 226 227
f 203 228 227
f 227 204 203
f 200 188 189
f 189 201 200
f 188 221 220
f 188 220 189
f 201 189 190
f 190 202 201
f 189 220 219
f 189 219 190
f 202 190 154
f 202 154 153
f 219 154 190
f 154 219 155
f 228 155 219
f 155 228 156
f 227 219 220
f 219 227 228
f 205 227 226
f 227 205 204
f 208 204 214
f 204 208 203
f 210 208 214
f 214 212 210
f 214 216 212
f 216 217 212
f 215 217 216
f 217 215 213
f 206 226 225
f 226 206 205
f 230 215 216
f 215 230 231
f 233 231 230
f 231 233 234
f 214 205 229
f 205 214 204
f 229 206 232
f 206 229 205
f 230 216 229
f 229 216 214
f 230 232 233
f 232 230 229
f 236 234 233
f 234 236 70
f 233 235 236
f 235 233 232
f 235 232 207
f 207 232 206
f 207 206 224
f 224 206 225
f 224 222 223
f 222 224 225
f 223 222 186
f 186 222 187
f 185 187 199
f 187 185 186
f 184 199 198
f 199 184 185
f 183 198 191
f 198 183 184
f 183 191 178
f 178 191 179
f 178 179 177
f 176 177 179
f 177 176 175
f 175 176 174
f 24 164 26
f 164 173 26
f 175 174 164
f 164 174 173
f 97 164 24
f 164 97 238
f 238 175 164
f 175 238 239
f 239 177 175
f 177 239 240
f 240 178 177
f 178 240 241
f 241 183 178
f 183 241 242
f 242 184 183
f 184 242 243
f 243 185 184
f 185 243 244
f 244 186 185
f 186 244 245
f 249 236 235
f 236 249 250
f 250 70 236
f 70 250 100
f 235 248 249
f 248 235 207
f 247 207 224
f 207 247 248
f 245 223 186
f 223 245 246
f 246 224 223
f 224 246 247
f 263 100 250
f 100 263 101
f 262 250 249
f 250 262 263
f 249 261 262
f 261 249 248
f 261 247 260
f 247 261 248
f 259 247 246
f 247 259 260
f 258 246 245
f 246 258 259
f 257 245 244
f 245 257 258
f 256 244 243
f 244 256 257
f 255 243 242
f 243 255 256
f 254 242 241
f 242 254 255
f 253 241 240
f 241 253 254
f 252 240 239
f 240 252 253
f 98 251 97
f 251 238 97
f 251 239 238
f 239 251 252
f 99 251 98
f 251 99 264
f 251 264 252
f 271 99 237
f 99 271 264
f 264 253 252
f 253 264 265
f 265 271 272
f 271 265 264
f 253 265 254
f 265 255 254
f 255 265 266
f 266 272 273
f 272 266 265
f 255 266 256
f 266 257 256
f 257 266 267
f 267 273 274
f 273 267 266
f 257 267 258
f 267 259 258
f 259 267 268
f 267 274 275
f 275 268 267
f 259 268 260
f 260 268 269
f 269 261 260
f 269 275 276
f 275 269 268
f 261 269 262
f 269 263 262
f 263 269 270
f 270 101 263
f 101 270 102
f 270 276 277
f 276 270 269
f 102 277 103
f 277 102 270
f 304 305 334
f 334 340 304
f 340 334 335
f 335 336 340
f 341 340 336
f 336 337 341
f 303 304 340
f 340 341 303
f 302 303 341
f 341 342 302
f 342 341 337
f 337 338 342
f 343 342 338
f 338 339 343
f 343 301 302
f 302 342 343
f 365 343 339
f 339 344 365
f 300 301 343
f 343 365 300
f 371 372 298
f 298 299 371
f 367 371 299
f 299 300 365
f 365 366 299
f 369 368 366
f 298 372 373
f 366 365 344
f 344 351 366
f 368 367 299
f 299 366 368
f 366 351 377
f 366 374 370
f 377 374 366
f 370 369 366
f 377 351 352
f 352 376 377
f 297 298 373
f 373 378 297
f 381 296 297
f 297 378 381
f 295 296 381
f 381 382 295
f 383 294 295
f 295 382 383
f 293 294 383
f 383 384 293
f 292 293 384
f 384 385 292
f 291 292 385
f 385 386 291
f 387 290 291
f 291 386 387
f 375 374 377
f 377 376 375
f 325 322 323
f 376 352 353
f 353 379 376
f 380 375 376
f 376 379 380
f 395 394 375
f 375 380 395
f 379 353 357
f 357 411 379
f 380 379 411
f 411 412 380
f 396 395 380
f 380 412 396
f 411 357 356
f 356 413 411
f 412 411 413
f 413 414 412
f 396 412 414
f 414 415 396
f 415 397 396
f 419 307 308
f 308 420 419
f 420 308 309
f 309 421 420
f 334 305 306
f 306 332 334
f 332 306 307
f 307 419 332
f 332 333 335
f 335 334 332
f 419 345 333
f 333 332 419
f 420 346 345
f 345 419 420
f 422 310 311
f 311 423 422
f 421 347 346
f 346 420 421
f 422 348 347
f 347 421 422
f 421 309 310
f 310 422 421
f 423 349 348
f 348 422 423
f 425 424 350
f 350 349 425
f 425 349 423
f 423 311 425
f 426 425 311
f 311 312 426
f 426 312 313
f 313 427 426
f 425 426 427
f 427 428 425
f 424 425 428
f 428 429 424
f 429 364 350
f 350 424 429
f 427 313 314
f 314 432 427
f 410 321 322
f 322 401 410
f 428 427 432
f 432 431 428
f 409 410 401
f 401 405 409
f 320 321 410
f 410 438 320
f 319 320 438
f 438 437 319
f 318 319 437
f 437 436 318
f 317 318 436
f 436 435 317
f 316 317 435
f 435 434 316
f 433 432 314
f 314 315 433
f 315 316 434
f 434 433 315
f 430 363 364
f 364 429 430
f 429 428 431
f 431 430 429
f 439 431 432
f 432 433 439
f 440 439 433
f 433 434 440
f 362 363 430
f 430 445 362
f 445 430 431
f 431 439 445
f 361 362 445
f 445 446 361
f 446 445 439
f 439 440 446
f 413 356 355
f 355 416 413
f 414 413 416
f 416 417 414
f 416 355 354
f 354 450 416
f 389 390 288
f 288 289 389
f 289 290 387
f 387 388 289
f 289 388 389
f 288 390 391
f 415 414 417
f 417 418 415
f 418 398 397
f 397 415 418
f 408 409 405
f 405 404 408
f 441 440 434
f 434 435 441
f 442 441 435
f 435 436 442
f 447 446 440
f 440 441 447
f 360 361 446
f 446 447 360
f 443 442 436
f 436 437 443
f 444 443 437
f 437 438 444
f 438 410 409
f 409 444 438
f 458 444 409
f 409 408 458
f 359 360 447
f 447 448 359
f 450 354 358
f 358 449 450
f 449 358 359
f 359 448 449
f 402 282 283
f 283 406 402
f 407 408 404
f 404 403 407
f 469 402 406
f 406 470 469
f 407 403 469
f 469 470 407
f 406 283 284
f 284 451 406
f 458 408 407
f 407 452 458
f 470 406 451
f 451 471 470
f 452 407 470
f 470 471 452
f 451 284 285
f 285 455 451
f 457 418 417
f 417 453 457
f 447 441 459
f 459 461 447
f 460 459 441
f 441 442 460
f 462 460 442
f 442 443 462
f 473 461 459
f 459 460 473
f 448 447 461
f 461 466 448
f 456 455 285
f 285 286 456
f 474 473 460
f 460 462 474
f 454 287 288
f 288 391 454
f 463 462 443
f 443 444 463
f 479 474 462
f 462 463 479
f 464 463 444
f 444 458 464
f 478 479 463
f 463 464 478
f 465 464 458
f 458 452 465
f 477 478 464
f 464 465 477
f 472 465 452
f 452 471 472
f 476 477 465
f 465 472 476
f 472 471 451
f 451 455 472
f 472 455 456
f 456 476 472
f 466 461 473
f 473 475 466
f 475 473 474
f 474 480 475
f 481 480 474
f 474 479 481
f 449 448 466
f 466 467 449
f 477 476 484
f 484 483 477
f 456 286 287
f 287 454 456
f 484 476 456
f 456 454 484
f 454 391 392
f 457 399 398
f 398 418 457
f 392 393 486
f 487 400 399
f 399 457 487
f 482 481 479
f 479 478 482
f 478 477 483
f 483 482 478
f 453 417 416
f 416 450 453
f 453 450 449
f 449 467 453
f 486 483 484
f 484 454 486
f 486 454 392
f 486 393 400
f 400 487 486
f 485 481 482
f 482 488 485
f 488 482 483
f 483 486 488
f 467 466 475
f 475 485 467
f 485 475 480
f 480 481 485
f 489 453 467
f 467 485 489
f 485 488 489
f 489 488 486
f 486 487 489
f 487 457 453
f 453 489 487
f 517 514 521
f 521 520 517
f 516 517 520
f 520 519 516
f 518 515 516
f 516 519 518
f 521 500 499
f 499 522 521
f 520 521 522
f 522 523 520
f 519 520 523
f 523 524 519
f 518 519 524
f 524 525 518
f 527 522 499
f 499 498 527
f 529 523 522
f 522 527 529
f 529 527 528
f 528 871 529
f 524 523 529
f 529 530 524
f 530 531 525
f 525 524 530
f 530 529 871
f 871 876 530
f 876 877 531
f 531 530 876
f 528 527 498
f 498 839 528
f 501 500 521
f 521 514 501
f 533 839 498
f 498 510 533
f 511 499 500
f 500 512 511
f 505 504 517
f 517 516 505
f 404 405 328
f 328 329 404
f 514 517 504
f 504 503 514
f 328 405 401
f 401 327 328
f 326 322 325
f 327 401 322
f 322 326 327
f 502 501 514
f 514 503 502
f 543 326 325
f 325 535 543
f 512 500 501
f 501 534 512
f 534 501 502
f 502 544 534
f 544 543 535
f 535 534 544
f 511 510 498
f 498 499 511
f 880 533 510
f 510 511 880
f 513 512 534
f 534 535 513
f 545 511 512
f 512 513 545
f 325 323 324
f 324 323 835
f 835 664 324
f 324 664 545
f 513 535 325
f 325 324 513
f 545 513 324
f 536 880 511
f 511 545 536
f 664 536 545
f 542 327 326
f 326 543 542
f 538 328 327
f 327 542 538
f 541 503 504
f 504 537 541
f 537 538 542
f 542 541 537
f 544 502 503
f 503 541 544
f 541 542 543
f 543 544 541
f 506 505 516
f 516 515 506
f 537 504 505
f 505 539 537
f 508 507 506
f 506 515 508
f 509 508 515
f 515 518 509
f 526 509 518
f 518 525 526
f 532 526 525
f 525 531 532
f 532 531 877
f 877 852 532
f 403 404 329
f 329 330 403
f 538 537 539
f 539 540 538
f 540 329 328
f 328 538 540
f 469 403 330
f 330 468 469
f 331 402 469
f 469 468 331
f 539 505 506
f 506 547 539
f 553 540 539
f 539 547 553
f 553 330 329
f 329 540 553
f 547 506 507
f 507 548 547
f 468 330 553
f 553 554 468
f 552 532 852
f 852 546 552
f 551 526 532
f 532 552 551
f 550 509 526
f 526 551 550
f 554 553 547
f 547 548 554
f 331 281 282
f 282 402 331
f 331 468 554
f 494 281 331
f 331 570 494
f 549 508 509
f 509 550 549
f 570 331 554
f 554 569 570
f 548 507 508
f 508 549 548
f 569 554 548
f 548 549 569
f 552 546 562
f 562 563 552
f 551 552 563
f 563 567 551
f 550 551 567
f 567 564 550
f 549 550 564
f 564 565 549
f 569 549 565
f 565 566 569
f 570 569 566
f 566 561 570
f 494 570 561
f 561 560 494
f 495 494 560
f 560 559 495
f 496 495 559
f 559 558 496
f 557 555 497
f 497 568 557
f 568 496 558
f 558 557 568
f 563 562 905
f 905 580 563
f 567 563 580
f 580 579 567
f 564 567 579
f 579 578 564
f 565 564 578
f 578 577 565
f 566 565 577
f 577 576 566
f 561 566 576
f 576 575 561
f 560 561 575
f 575 574 560
f 559 560 574
f 574 573 559
f 558 559 573
f 573 572 558
f 571 898 555
f 555 557 571
f 557 558 572
f 572 571 557
f 590 904 556
f 556 581 590
f 580 905 904
f 904 590 580
f 581 556 898
f 898 571 581
f 571 572 582
f 582 581 571
f 581 582 588
f 588 589 581
f 589 590 581
f 589 588 578
f 578 579 589
f 579 580 590
f 590 589 579
f 583 582 572
f 572 573 583
f 587 588 582
f 582 583 587
f 577 578 588
f 588 587 577
f 584 583 573
f 573 574 584
f 586 587 583
f 583 584 586
f 584 585 586
f 574 575 585
f 585 584 574
f 586 585 575
f 575 576 586
f 576 577 587
f 587 586 576
f 336 335 592
f 592 593 336
f 337 336 593
f 593 594 337
f 338 337 594
f 594 595 338
f 339 338 595
f 595 596 339
f 344 339 596
f 596 597 344
f 351 344 597
f 597 604 351
f 352 351 604
f 604 605 352
f 353 352 605
f 605 606 353
f 357 353 606
f 606 610 357
f 356 357 610
f 610 609 356
f 335 333 591
f 591 592 335
f 333 345 598
f 598 591 333
f 345 346 599
f 599 598 345
f 346 347 600
f 600 599 346
f 347 348 601
f 601 600 347
f 348 349 602
f 602 601 348
f 349 350 603
f 603 602 349
f 350 364 617
f 617 603 350
f 364 363 616
f 616 617 364
f 363 362 615
f 615 616 363
f 362 361 614
f 614 615 362
f 355 356 609
f 609 608 355
f 354 355 608
f 608 607 354
f 361 360 613
f 613 614 361
f 360 359 612
f 612 613 360
f 358 354 607
f 607 611 358
f 359 358 611
f 611 612 359
f 644 681 675
f 675 645 644
f 681 677 676
f 676 675 681
f 682 678 677
f 677 681 682
f 643 682 681
f 681 644 643
f 642 683 682
f 682 643 642
f 683 679 678
f 678 682 683
f 684 680 679
f 679 683 684
f 684 683 642
f 642 641 684
f 706 685 680
f 680 684 706
f 640 706 684
f 684 641 640
f 712 639 638
f 638 713 712
f 708 639 712
f 639 707 706
f 706 640 639
f 710 707 709
f 638 714 713
f 707 692 685
f 685 706 707
f 709 707 639
f 639 708 709
f 707 718 692
f 707 711 715
f 718 707 715
f 711 707 710
f 718 717 693
f 693 692 718
f 637 719 714
f 714 638 637
f 722 719 637
f 637 636 722
f 635 723 722
f 722 636 635
f 724 723 635
f 635 634 724
f 633 725 724
f 724 634 633
f 632 726 725
f 725 633 632
f 631 727 726
f 726 632 631
f 728 727 631
f 631 630 728
f 716 717 718
f 718 715 716
f 666 663 662
f 717 720 694
f 694 693 717
f 721 720 717
f 717 716 721
f 736 721 716
f 716 735 736
f 720 752 698
f 698 694 720
f 721 753 752
f 752 720 721
f 737 753 721
f 721 736 737
f 752 754 697
f 697 698 752
f 753 755 754
f 754 752 753
f 737 756 755
f 755 753 737
f 756 737 738
f 760 761 648
f 648 647 760
f 761 762 649
f 649 648 761
f 675 673 646
f 646 645 675
f 673 760 647
f 647 646 673
f 673 675 676
f 676 674 673
f 760 673 674
f 674 686 760
f 761 760 686
f 686 687 761
f 763 764 651
f 651 650 763
f 762 761 687
f 687 688 762
f 763 762 688
f 688 689 763
f 762 763 650
f 650 649 762
f 764 763 689
f 689 690 764
f 766 690 691
f 691 765 766
f 766 651 764
f 764 690 766
f 767 652 651
f 651 766 767
f 767 768 653
f 653 652 767
f 766 769 768
f 768 767 766
f 765 770 769
f 769 766 765
f 770 765 691
f 691 705 770
f 768 773 654
f 654 653 768
f 751 742 662
f 662 661 751
f 769 772 773
f 773 768 769
f 750 746 742
f 742 751 750
f 660 779 751
f 751 661 660
f 659 778 779
f 779 660 659
f 658 777 778
f 778 659 658
f 657 776 777
f 777 658 657
f 656 775 776
f 776 657 656
f 774 655 654
f 654 773 774
f 655 774 775
f 775 656 655
f 771 770 705
f 705 704 771
f 770 771 772
f 772 769 770
f 780 774 773
f 773 772 780
f 781 775 774
f 774 780 781
f 703 786 771
f 771 704 703
f 786 780 772
f 772 771 786
f 702 787 786
f 786 703 702
f 787 781 780
f 780 786 787
f 754 757 696
f 696 697 754
f 755 758 757
f 757 754 755
f 757 791 695
f 695 696 757
f 730 629 628
f 628 731 730
f 629 729 728
f 728 630 629
f 629 730 729
f 628 732 731
f 756 759 758
f 758 755 756
f 759 756 738
f 738 739 759
f 749 745 746
f 746 750 749
f 782 776 775
f 775 781 782
f 783 777 776
f 776 782 783
f 788 782 781
f 781 787 788
f 701 788 787
f 787 702 701
f 784 778 777
f 777 783 784
f 785 779 778
f 778 784 785
f 779 785 750
f 750 751 779
f 799 749 750
f 750 785 799
f 700 789 788
f 788 701 700
f 791 790 699
f 699 695 791
f 790 789 700
f 700 699 790
f 743 747 623
f 623 622 743
f 748 744 745
f 745 749 748
f 810 811 747
f 747 743 810
f 748 811 810
f 810 744 748
f 747 792 624
f 624 623 747
f 799 793 748
f 748 749 799
f 811 812 792
f 792 747 811
f 793 812 811
f 811 748 793
f 792 796 625
f 625 624 792
f 798 794 758
f 758 759 798
f 788 802 800
f 800 782 788
f 801 783 782
f 782 800 801
f 803 784 783
f 783 801 803
f 814 801 800
f 800 802 814
f 789 807 802
f 802 788 789
f 797 626 625
f 625 796 797
f 815 803 801
f 801 814 815
f 795 732 628
f 628 627 795
f 804 785 784
f 784 803 804
f 820 804 803
f 803 815 820
f 805 799 785
f 785 804 805
f 819 805 804
f 804 820 819
f 806 793 799
f 799 805 806
f 818 806 805
f 805 819 818
f 813 812 793
f 793 806 813
f 817 813 806
f 806 818 817
f 813 796 792
f 792 812 813
f 813 817 797
f 797 796 813
f 807 816 814
f 814 802 807
f 816 821 815
f 815 814 816
f 822 820 815
f 815 821 822
f 790 808 807
f 807 789 790
f 818 824 825
f 825 817 818
f 797 795 627
f 627 626 797
f 825 795 797
f 797 817 825
f 795 733 732
f 798 759 739
f 739 740 798
f 733 827 734
f 828 798 740
f 740 741 828
f 823 819 820
f 820 822 823
f 819 823 824
f 824 818 819
f 794 791 757
f 757 758 794
f 794 808 790
f 790 791 794
f 827 795 825
f 825 824 827
f 827 733 795
f 827 828 741
f 741 734 827
f 826 829 823
f 823 822 826
f 829 827 824
f 824 823 829
f 808 826 816
f 816 807 808
f 826 822 821
f 821 816 826
f 830 826 808
f 808 794 830
f 826 830 829
f 830 828 827
f 827 829 830
f 828 830 794
f 794 798 828
f 860 863 864
f 864 857 860
f 859 862 863
f 863 860 859
f 861 862 859
f 859 858 861
f 864 865 841
f 841 842 864
f 863 866 865
f 865 864 863
f 862 867 866
f 866 863 862
f 861 868 867
f 867 862 861
f 870 840 841
f 841 865 870
f 872 870 865
f 865 866 872
f 872 871 528
f 528 870 872
f 867 873 872
f 872 866 867
f 873 867 868
f 868 874 873
f 873 876 871
f 871 872 873
f 876 873 874
f 874 877 876
f 528 839 840
f 840 870 528
f 843 857 864
f 864 842 843
f 533 853 840
f 840 839 533
f 854 855 842
f 842 841 854
f 847 859 860
f 860 846 847
f 745 670 669
f 669 746 745
f 857 845 846
f 846 860 857
f 669 668 742
f 742 746 669
f 667 666 662
f 668 667 662
f 662 742 668
f 844 845 857
f 857 843 844
f 887 879 666
f 666 667 887
f 855 878 843
f 843 842 855
f 878 888 844
f 844 843 878
f 888 878 879
f 879 887 888
f 854 841 840
f 840 853 854
f 880 854 853
f 853 533 880
f 856 879 878
f 878 855 856
f 889 856 855
f 855 854 889
f 666 665 663
f 665 664 835
f 835 663 665
f 665 889 664
f 856 665 666
f 666 879 856
f 889 665 856
f 536 889 854
f 854 880 536
f 664 889 536
f 886 887 667
f 667 668 886
f 882 886 668
f 668 669 882
f 885 881 846
f 846 845 885
f 881 885 886
f 886 882 881
f 888 885 845
f 845 844 888
f 885 888 887
f 887 886 885
f 848 858 859
f 859 847 848
f 881 883 847
f 847 846 881
f 850 858 848
f 848 849 850
f 851 861 858
f 858 850 851
f 869 868 861
f 861 851 869
f 875 874 868
f 868 869 875
f 875 852 877
f 877 874 875
f 744 671 670
f 670 745 744
f 882 884 883
f 883 881 882
f 884 882 669
f 669 670 884
f 810 809 671
f 671 744 810
f 672 809 810
f 810 743 672
f 883 890 848
f 848 847 883
f 896 890 883
f 883 884 896
f 896 884 670
f 670 671 896
f 890 891 849
f 849 848 890
f 809 897 896
f 896 671 809
f 895 546 852
f 852 875 895
f 894 895 875
f 875 869 894
f 893 894 869
f 869 851 893
f 897 891 890
f 890 896 897
f 672 743 622
f 622 621 672
f 672 897 809
f 836 913 672
f 672 621 836
f 892 893 851
f 851 850 892
f 913 912 897
f 897 672 913
f 891 892 850
f 850 849 891
f 912 892 891
f 891 897 912
f 895 906 562
f 562 546 895
f 894 910 906
f 906 895 894
f 893 907 910
f 910 894 893
f 892 908 907
f 907 893 892
f 912 909 908
f 908 892 912
f 913 903 909
f 909 912 913
f 836 902 903
f 903 913 836
f 837 901 902
f 902 836 837
f 838 900 901
f 901 837 838
f 899 911 497
f 497 555 899
f 911 899 900
f 900 838 911
f 906 923 905
f 905 562 906
f 910 922 923
f 923 906 910
f 907 921 922
f 922 910 907
f 908 920 921
f 921 907 908
f 909 919 920
f 920 908 909
f 903 918 919
f 919 909 903
f 902 917 918
f 918 903 902
f 901 916 917
f 917 902 901
f 900 915 916
f 916 901 900
f 914 899 555
f 555 898 914
f 899 914 915
f 915 900 899
f 933 924 556
f 556 904 933
f 923 933 904
f 904 905 923
f 924 914 898
f 898 556 924
f 914 924 925
f 925 915 914
f 924 932 931
f 931 925 924
f 932 924 933
f 932 922 921
f 921 931 932
f 922 932 933
f 933 923 922
f 926 916 915
f 915 925 926
f 930 926 925
f 925 931 930
f 920 930 931
f 931 921 920
f 927 917 916
f 916 926 927
f 929 927 926
f 926 930 929
f 927 929 928
f 917 927 928
f 928 918 917
f 929 919 918
f 918 928 929
f 919 929 930
f 930 920 919
f 677 936 935
f 935 676 677
f 678 937 936
f 936 677 678
f 679 938 937
f 937 678 679
f 680 939 938
f 938 679 680
f 685 940 939
f 939 680 685
f 692 947 940
f 940 685 692
f 693 948 947
f 947 692 693
f 694 949 948
f 948 693 694
f 698 953 949
f 949 694 698
f 697 952 953
f 953 698 697
f 676 935 934
f 934 674 676
f 674 934 941
f 941 686 674
f 686 941 942
f 942 687 686
f 687 942 943
f 943 688 687
f 688 943 944
f 944 689 688
f 689 944 945
f 945 690 689
f 690 945 946
f 946 691 690
f 691 946 960
f 960 705 691
f 705 960 959
f 959 704 705
f 704 959 958
f 958 703 704
f 703 958 957
f 957 702 703
f 696 951 952
f 952 697 696
f 695 950 951
f 951 696 695
f 702 957 956
f 956 701 702
f 701 956 955
f 955 700 701
f 699 954 950
f 950 695 699
f 700 955 954
f 954 699 700
f 998 981 980
f 980 1001 998
f 985 984 981
f 981 998 985
f 999 986 985
f 985 998 999
f 1001 1002 999
f 999 998 1001
f 980 978 1092
f 1092 1001 980
f 987 986 999
f 999 1000 987
f 1000 999 1002
f 1002 1003 1000
f 1003 982 983
f 983 1000 1003
f 1000 983 988
f 988 987 1000
f 1002 1001 1092
f 1092 1093 1002
f 1003 1002 1093
f 1093 1094 1003
f 1094 1070 982
f 982 1003 1094
f 977 978 980
f 980 989 977
f 1053 977 989
f 989 961 1053
f 961 989 990
f 990 989 980
f 980 981 990
f 962 961 990
f 990 991 962
f 990 981 984
f 984 991 990
f 963 962 991
f 991 992 963
f 1004 965 964
f 964 963 1004
f 992 993 1004
f 1004 963 992
f 991 984 985
f 985 992 991
f 992 985 986
f 986 993 992
f 993 986 987
f 987 994 993
f 994 987 988
f 988 995 994
f 1005 994 995
f 995 988 983
f 983 997 995
f 996 982 1070
f 1070 1069 996
f 997 983 982
f 982 996 997
f 1005 1004 993
f 993 994 1005
f 996 1069 1100
f 1100 1006 996
f 997 996 1006
f 1006 1007 997
f 1007 1005 995
f 995 997 1007
f 966 965 1004
f 1004 1005 966
f 1023 1120 976
f 976 975 1023
f 1022 1023 975
f 975 974 1022
f 972 971 1030
f 1030 1031 972
f 973 972 1031
f 1031 1032 973
f 1033 1022 974
f 974 973 1033
f 973 1032 1033
f 1029 1030 971
f 971 970 1029
f 1028 1029 970
f 970 969 1028
f 1027 1028 969
f 969 1034 1027
f 1035 1026 1027
f 1027 1034 1035
f 1037 1036 1035
f 1035 1034 1037
f 1037 1034 969
f 969 968 1037
f 1038 1037 968
f 968 1021 1038
f 1038 1036 1037
f 1010 1009 1007
f 1007 1006 1010
f 1052 1051 1009
f 1009 1010 1052
f 1010 1006 1100
f 1100 979 1010
f 1150 1052 1010
f 1010 979 1150
f 1008 1005 1007
f 1007 1009 1008
f 1008 1009 1051
f 1051 1050 1008
f 966 1005 1008
f 1008 1015 966
f 1015 1008 1050
f 1050 1049 1015
f 966 1015 1016
f 1016 1015 1049
f 1049 1048 1016
f 966 1016 1011
f 1011 1016 1048
f 1048 1047 1011
f 967 966 1011
f 1011 1012 967
f 1012 1011 1047
f 1047 1046 1012
f 968 967 1012
f 1012 1013 968
f 1013 1012 1046
f 1046 1045 1013
f 968 1013 1014
f 1014 1013 1045
f 1045 1044 1014
f 968 1014 1021
f 1021 1014 1044
f 1044 1043 1021
f 1036 1038 1021
f 1021 1020 1036
f 1020 1021 1043
f 1043 1042 1020
f 1035 1036 1020
f 1020 1019 1035
f 1019 1020 1042
f 1042 1041 1019
f 1026 1035 1019
f 1019 1018 1026
f 1018 1019 1041
f 1041 1040 1018
f 1017 1112 1024
f 1024 1025 1017
f 1039 1135 1112
f 1112 1017 1039
f 1025 1026 1018
f 1018 1017 1025
f 1017 1018 1040
f 1040 1039 1017
f 1089 1095 1071
f 1071 1072 1089
f 1076 1089 1072
f 1072 1075 1076
f 1090 1089 1076
f 1076 1077 1090
f 1095 1089 1090
f 1090 1096 1095
f 1071 1095 1092
f 1092 978 1071
f 1078 1091 1090
f 1090 1077 1078
f 1091 1097 1096
f 1096 1090 1091
f 1097 1091 1074
f 1074 1073 1097
f 1091 1078 1079
f 1079 1074 1091
f 1096 1093 1092
f 1092 1095 1096
f 1097 1094 1093
f 1093 1096 1097
f 1094 1097 1073
f 1073 1070 1094
f 977 1080 1071
f 1071 978 977
f 1053 1054 1080
f 1080 977 1053
f 1054 1081 1080
f 1081 1072 1071
f 1071 1080 1081
f 1055 1082 1081
f 1081 1054 1055
f 1081 1082 1075
f 1075 1072 1081
f 1056 1083 1082
f 1082 1055 1056
f 1098 1056 1057
f 1057 1058 1098
f 1083 1056 1098
f 1098 1084 1083
f 1082 1083 1076
f 1076 1075 1082
f 1083 1084 1077
f 1077 1076 1083
f 1084 1085 1078
f 1078 1077 1084
f 1085 1086 1079
f 1079 1078 1085
f 1099 1086 1085
f 1086 1088 1074
f 1074 1079 1086
f 1087 1069 1070
f 1070 1073 1087
f 1088 1087 1073
f 1073 1074 1088
f 1099 1085 1084
f 1084 1098 1099
f 1087 1101 1100
f 1100 1069 1087
f 1088 1102 1101
f 1101 1087 1088
f 1102 1088 1086
f 1086 1099 1102
f 1059 1099 1098
f 1098 1058 1059
f 1119 1068 976
f 976 1120 1119
f 1118 1067 1068
f 1068 1119 1118
f 1065 1127 1126
f 1126 1064 1065
f 1066 1128 1127
f 1127 1065 1066
f 1129 1066 1067
f 1067 1118 1129
f 1066 1129 1128
f 1125 1063 1064
f 1064 1126 1125
f 1124 1062 1063
f 1063 1125 1124
f 1123 1130 1062
f 1062 1124 1123
f 1131 1130 1123
f 1123 1122 1131
f 1133 1130 1131
f 1131 1132 1133
f 1133 1061 1062
f 1062 1130 1133
f 1134 1117 1061
f 1061 1133 1134
f 1134 1133 1132
f 1105 1101 1102
f 1102 1104 1105
f 1149 1105 1104
f 1104 1148 1149
f 1105 979 1100
f 1100 1101 1105
f 1150 979 1105
f 1105 1149 1150
f 1103 1104 1102
f 1102 1099 1103
f 1103 1147 1148
f 1148 1104 1103
f 1059 1110 1103
f 1103 1099 1059
f 1110 1146 1147
f 1147 1103 1110
f 1059 1111 1110
f 1111 1145 1146
f 1146 1110 1111
f 1059 1106 1111
f 1106 1144 1145
f 1145 1111 1106
f 1060 1107 1106
f 1106 1059 1060
f 1107 1143 1144
f 1144 1106 1107
f 1061 1108 1107
f 1107 1060 1061
f 1108 1142 1143
f 1143 1107 1108
f 1061 1109 1108
f 1109 1141 1142
f 1142 1108 1109
f 1061 1117 1109
f 1117 1140 1141
f 1141 1109 1117
f 1132 1116 1117
f 1117 1134 1132
f 1116 1139 1140
f 1140 1117 1116
f 1131 1115 1116
f 1116 1132 1131
f 1115 1138 1139
f 1139 1116 1115
f 1122 1114 1115
f 1115 1131 1122
f 1114 1137 1138
f 1138 1115 1114
f 1113 1121 1024
f 1024 1112 1113
f 1136 1113 1112
f 1112 1135 1136
f 1121 1113 1114
f 1114 1122 1121
f 1113 1136 1137
f 1137 1114 1113
f 1154 1135 1039
f 1039 1155 1154
f 1136 1135 1154
f 1154 1166 1136
f 1153 1152 1157
f 1157 1158 1153
f 1153 1163 1164
f 1164 1152 1153
f 1165 1151 1152
f 1152 1164 1165
f 1152 1151 1156
f 1156 1157 1152
f 1150 1153 1158
f 1158 1052 1150
f 1153 1150 1149
f 1149 1163 1153
f 1151 1154 1155
f 1155 1156 1151
f 1151 1165 1166
f 1166 1154 1151
f 1041 1042 1043
f 1041 1043 1044
f 1041 1044 1178
f 1044 1045 1177
f 1177 1178 1044
f 1045 1046 1176
f 1176 1177 1045
f 1176 1046 1047
f 1047 1175 1176
f 1048 1049 1050
f 1047 1048 1050
f 1175 1047 1050
f 1052 1158 1159
f 1159 1051 1052
f 1158 1157 1160
f 1160 1159 1158
f 1157 1156 1161
f 1161 1160 1157
f 1156 1155 1162
f 1162 1161 1156
f 1155 1039 1040
f 1040 1162 1155
f 1147 1171 1170
f 1170 1148 1147
f 1170 1171 1172
f 1172 1169 1170
f 1169 1172 1173
f 1173 1168 1169
f 1168 1173 1174
f 1174 1167 1168
f 1167 1174 1138
f 1138 1137 1167
f 1136 1166 1167
f 1167 1137 1136
f 1167 1166 1165
f 1165 1168 1167
f 1168 1165 1164
f 1164 1169 1168
f 1169 1164 1163
f 1163 1170 1169
f 1170 1163 1149
f 1149 1148 1170
f 1147 1146 1145
f 1147 1145 1144
f 1147 1144 1171
f 1144 1143 1172
f 1172 1171 1144
f 1172 1143 1142
f 1142 1173 1172
f 1173 1142 1141
f 1141 1174 1173
f 1141 1140 1139
f 1141 1139 1138
f 1174 1141 1138
f 1050 1051 1159
f 1159 1175 1050
f 1159 1160 1176
f 1176 1175 1159
f 1160 1161 1177
f 1177 1176 1160
f 1161 1162 1178
f 1178 1177 1161
f 1041 1178 1162
f 1162 1040 1041
f 1120 1023 1180
f 1180 1193 1120
f 1023 1022 1179
f 1179 1180 1023
f 1031 1030 1187
f 1187 1188 1031
f 1032 1031 1188
f 1188 1189 1032
f 1022 1033 1190
f 1190 1179 1022
f 1033 1032 1189
f 1189 1190 1033
f 1030 1029 1186
f 1186 1187 1030
f 1029 1028 1185
f 1185 1186 1029
f 1028 1027 1184
f 1184 1185 1028
f 1027 1026 1183
f 1183 1184 1027
f 1025 1024 1181
f 1181 1182 1025
f 1026 1025 1182
f 1182 1183 1026
f 1119 1120 1193
f 1193 1192 1119
f 1118 1119 1192
f 1192 1191 1118
f 1126 1127 1200
f 1200 1199 1126
f 1127 1128 1201
f 1201 1200 1127
f 1129 1118 1191
f 1191 1202 1129
f 1128 1129 1202
f 1202 1201 1128
f 1125 1126 1199
f 1199 1198 1125
f 1124 1125 1198
f 1198 1197 1124
f 1123 1124 1197
f 1197 1196 1123
f 1122 1123 1196
f 1196 1195 1122
f 1024 1121 1194
f 1194 1181 1024
f 1121 1122 1195
f 1195 1194 1121
f 1193 1180 1204
f 1204 1217 1193
f 1180 1179 1203
f 1203 1204 1180
f 1188 1187 1211
f 1211 1212 1188
f 1189 1188 1212
f 1212 1213 1189
f 1179 1190 1214
f 1214 1203 1179
f 1190 1189 1213
f 1213 1214 1190
f 1187 1186 1210
f 1210 1211 1187
f 1186 1185 1209
f 1209 1210 1186
f 1185 1184 1208
f 1208 1209 1185
f 1184 1183 1207
f 1207 1208 1184
f 1182 1181 1205
f 1205 1206 1182
f 1183 1182 1206
f 1206 1207 1183
f 1192 1193 1217
f 1217 1216 1192
f 1191 1192 1216
f 1216 1215 1191
f 1199 1200 1224
f 1224 1223 1199
f 1200 1201 1225
f 1225 1224 1200
f 1202 1191 1215
f 1215 1226 1202
f 1201 1202 1226
f 1226 1225 1201
f 1198 1199 1223
f 1223 1222 1198
f 1197 1198 1222
f 1222 1221 1197
f 1196 1197 1221
f 1221 1220 1196
f 1195 1196 1220
f 1220 1219 1195
f 1181 1194 1218
f 1218 1205 1181
f 1194 1195 1219
f 1219 1218 1194
f 1217 1204 1228
f 1228 1241 1217
f 1204 1203 1227
f 1227 1228 1204
f 1212 1211 1235
f 1235 1236 1212
f 1213 1212 1236
f 1236 1237 1213
f 1203 1214 1238
f 1238 1227 1203
f 1214 1213 1237
f 1237 1238 1214
f 1211 1210 1234
f 1234 1235 1211
f 1210 1209 1233
f 1233 1234 1210
f 1209 1208 1232
f 1232 1233 1209
f 1208 1207 1231
f 1231 1232 1208
f 1206 1205 1229
f 1229 1230 1206
f 1207 1206 1230
f 1230 1231 1207
f 1216 1217 1241
f 1241 1240 1216
f 1215 1216 1240
f 1240 1239 1215
f 1223 1224 1248
f 1248 1247 1223
f 1224 1225 1249
f 1249 1248 1224
f 1226 1215 1239
f 1239 1250 1226
f 1225 1226 1250
f 1250 1249 1225
f 1222 1223 1247
f 1247 1246 1222
f 1221 1222 1246
f 1246 1245 1221
f 1220 1221 1245
f 1245 1244 1220
f 1219 1220 1244
f 1244 1243 1219
f 1205 1218 1242
f 1242 1229 1205
f 1218 1219 1243
f 1243 1242 1218
f 1364 1365 1366
f 1366 1367 1368
f 1368 1369 1370
f 1366 1368 1370
f 1370 1371 1372
f 1372 1373 1374
f 1370 1372 1374
f 1374 1375 1376
f 1376 1377 1378
f 1374 1376 1378
f 1370 1374 1378
f 1378 1379 1380
f 1380 1381 1382
f 1378 1380 1382
f 1382 1383 1384
f 1384 1385 1386
f 1382 1384 1386
f 1378 1382 1386
f 1386 1387 1388
f 1388 1389 1390
f 1386 1388 1390
f 1378 1386 1390
f 1370 1378 1390
f 1366 1370 1390
f 1364 1366 1390
f 1363 1364 1390
f 1392 1393 1394
f 1394 1395 1396
f 1396 1397 1398
f 1394 1396 1398
f 1398 1399 1400
f 1400 1401 1402
f 1398 1400 1402
f 1402 1403 1404
f 1404 1405 1406
f 1402 1404 1406
f 1398 1402 1406
f 1406 1407 1408
f 1408 1409 1410
f 1406 1408 1410
f 1410 1411 1412
f 1412 1413 1414
f 1410 1412 1414
f 1406 1410 1414
f 1414 1415 1416
f 1416 1417 1418
f 1414 1416 1418
f 1406 1414 1418
f 1398 1406 1418
f 1394 1398 1418
f 1392 1394 1418
f 1391 1392 1418
f 1306 1322 1320
f 1320 1252 1306
f 1292 1336 1334
f 1334 1294 1292
f 1278 1350 1348
f 1348 1280 1278
f 1264 1308 1362
f 1362 1266 1264
f 1306 1304 1324
f 1324 1322 1306
f 1304 1302 1326
f 1326 1324 1304
f 1302 1300 1328
f 1328 1326 1302
f 1320 1318 1254
f 1254 1252 1320
f 1318 1316 1256
f 1256 1254 1318
f 1316 1314 1258
f 1258 1256 1316
f 1292 1290 1338
f 1338 1336 1292
f 1290 1288 1340
f 1340 1338 1290
f 1288 1286 1342
f 1342 1340 1288
f 1334 1332 1296
f 1296 1294 1334
f 1332 1330 1298
f 1298 1296 1332
f 1330 1328 1300
f 1300 1298 1330
f 1278 1276 1352
f 1352 1350 1278
f 1276 1274 1354
f 1354 1352 1276
f 1274 1272 1356
f 1356 1354 1274
f 1348 1346 1282
f 1282 1280 1348
f 1346 1344 1284
f 1284 1282 1346
f 1344 1342 1286
f 1286 1284 1344
f 1264 1262 1310
f 1310 1308 1264
f 1262 1260 1312
f 1312 1310 1262
f 1260 1258 1314
f 1314 1312 1260
f 1362 1360 1268
f 1268 1266 1362
f 1360 1358 1270
f 1270 1268 1360
f 1358 1356 1272
f 1272 1270 1358
f 1364 1363 1251
f 1251 1253 1364
f 1365 1364 1253
f 1253 1255 1365
f 1366 1365 1255
f 1255 1257 1366
f 1367 1366 1257
f 1257 1259 1367
f 1368 1367 1259
f 1259 1261 1368
f 1369 1368 1261
f 1261 1263 1369
f 1370 1369 1263
f 1263 1265 1370
f 1371 1370 1265
f 1265 1267 1371
f 1372 1371 1267
f 1267 1269 1372
f 1373 1372 1269
f 1269 1271 1373
f 1374 1373 1271
f 1271 1273 1374
f 1375 1374 1273
f 1273 1275 1375
f 1376 1375 1275
f 1275 1277 1376
f 1377 1376 1277
f 1277 1279 1377
f 1378 1377 1279
f 1279 1281 1378
f 1379 1378 1281
f 1281 1283 1379
f 1380 1379 1283
f 1283 1285 1380
f 1381 1380 1285
f 1285 1287 1381
f 1382 1381 1287
f 1287 1289 1382
f 1383 1382 1289
f 1289 1291 1383
f 1384 1383 1291
f 1291 1293 1384
f 1385 1384 1293
f 1293 1295 1385
f 1386 1385 1295
f 1295 1297 1386
f 1387 1386 1297
f 1297 1299 1387
f 1388 1387 1299
f 1299 1301 1388
f 1389 1388 1301
f 1301 1303 1389
f 1390 1389 1303
f 1303 1305 1390
f 1363 1390 1305
f 1305 1251 1363
f 1392 1391 1307
f 1307 1309 1392
f 1393 1392 1309
f 1309 1311 1393
f 1394 1393 1311
f 1311 1313 1394
f 1395 1394 1313
f 1313 1315 1395
f 1396 1395 1315
f 1315 1317 1396
f 1397 1396 1317
f 1317 1319 1397
f 1398 1397 1319
f 1319 1321 1398
f 1399 1398 1321
f 1321 1323 1399
f 1400 1399 1323
f 1323 1325 1400
f 1401 1400 1325
f 1325 1327 1401
f 1402 1401 1327
f 1327 1329 1402
f 1403 1402 1329
f 1329 1331 1403
f 1404 1403 1331
f 1331 1333 1404
f 1405 1404 1333
f 1333 1335 1405
f 1406 1405 1335
f 1335 1337 1406
f 1407 1406 1337
f 1337 1339 1407
f 1408 1407 1339
f 1339 1341 1408
f 1409 1408 1341
f 1341 1343 1409
f 1410 1409 1343
f 1343 1345 1410
f 1411 1410 1345
f 1345 1347 1411
f 1412 1411 1347
f 1347 1349 1412
f 1413 1412 1349
f 1349 1351 1413
f 1414 1413 1351
f 1351 1353 1414
f 1415 1414 1353
f 1353 1355 1415
f 1416 1415 1355
f 1355 1357 1416
f 1417 1416 1357
f 1357 1359 1417
f 1418 1417 1359
f 1359 1361 1418
f 1391 1418 1361
f 1361 1307 1391
f 1306 1252 1251
f 1251 1305 1306
f 1320 1322 1321
f 1321 1319 1320
f 1292 1294 1293
f 1293 1291 1292
f 1334 1336 1335
f 1335 1333 1334
f 1278 1280 1279
f 1279 1277 1278
f 1348 1350 1349
f 1349 1347 1348
f 1264 1266 1265
f 1265 1263 1264
f 1362 1308 1307
f 1307 1361 1362
f 1304 1306 1305
f 1305 1303 1304
f 1322 1324 1323
f 1323 1321 1322
f 1302 1304 1303
f 1303 1301 1302
f 1324 1326 1325
f 1325 1323 1324
f 1300 1302 1301
f 1301 1299 1300
f 1326 1328 1327
f 1327 1325 1326
f 1318 1320 1319
f 1319 1317 1318
f 1252 1254 1253
f 1253 1251 1252
f 1316 1318 1317
f 1317 1315 1316
f 1254 1256 1255
f 1255 1253 1254
f 1314 1316 1315
f 1315 1313 1314
f 1256 1258 1257
f 1257 1255 1256
f 1290 1292 1291
f 1291 1289 1290
f 1336 1338 1337
f 1337 1335 1336
f 1288 1290 1289
f 1289 1287 1288
f 1338 1340 1339
f 1339 1337 1338
f 1286 1288 1287
f 1287 1285 1286
f 1340 1342 1341
f 1341 1339 1340
f 1332 1334 1333
f 1333 1331 1332
f 1294 1296 1295
f 1295 1293 1294
f 1330 1332 1331
f 1331 1329 1330
f 1296 1298 1297
f 1297 1295 1296
f 1328 1330 1329
f 1329 1327 1328
f 1298 1300 1299
f 1299 1297 1298
f 1276 1278 1277
f 1277 1275 1276
f 1350 1352 1351
f 1351 1349 1350
f 1274 1276 1275
f 1275 1273 1274
f 1352 1354 1353
f 1353 1351 1352
f 1272 1274 1273
f 1273 1271 1272
f 1354 1356 1355
f 1355 1353 1354
f 1346 1348 1347
f 1347 1345 1346
f 1280 1282 1281
f 1281 1279 1280
f 1344 1346 1345
f 1345 1343 1344
f 1282 1284 1283
f 1283 1281 1282
f 1342 1344 1343
f 1343 1341 1342
f 1284 1286 1285
f 1285 1283 1284
f 1262 1264 1263
f 1263 1261 1262
f 1308 1310 1309
f 1309 1307 1308
f 1260 1262 1261
f 1261 1259 1260
f 1310 1312 1311
f 1311 1309 1310
f 1258 1260 1259
f 1259 1257 1258
f 1312 1314 1313
f 1313 1311 1312
f 1360 1362 1361
f 1361 1359 1360
f 1266 1268 1267
f 1267 1265 1266
f 1358 1360 1359
f 1359 1357 1358
f 1268 1270 1269
f 1269 1267 1268
f 1356 1358 1357
f 1357 1355 1356
f 1270 1272 1271
f 1271 1269 1270
f 1421 1423 1432
f 1432 1430 1438
f 1421 1432 1438
f 1438 1436 1434
f 1434 1428 1425
f 1438 1434 1425
f 1421 1438 1425
f 1421 1425 1420
f 1419 1421 1420
f 1419 1420 1426
f 1426 1427 1433
f 1419 1426 1433
f 1433 1435 1437
f 1437 1429 1431
f 1433 1437 1431
f 1419 1433 1431
f 1419 1431 1424
f 1422 1419 1424
