v 0.018606 -0.000000 0.139618
v 0.018459 -0.000000 0.221432
v 0.024636 0.049178 0.180382
v -0.041192 0.082112 0.180000
v 0.059707 0.087957 0.000096
v 0.057668 0.087957 -0.015392
v 0.051690 0.087957 -0.029825
v 0.042180 0.087957 -0.042219
v 0.029786 0.087957 -0.051729
v 0.015353 0.087957 -0.057707
v -0.000135 0.087957 -0.059746
v -0.015623 0.087957 -0.057707
v -0.030056 0.087957 -0.051729
v -0.042450 0.087957 -0.042219
v -0.051960 0.087957 -0.029825
v -0.057938 0.087957 -0.015392
v -0.059977 0.087957 0.000096
v -0.057938 0.087957 0.015584
v -0.051960 0.087957 0.030017
v -0.042450 0.087957 0.042411
v -0.030056 0.087957 0.051921
v -0.015623 0.087957 0.057899
v -0.000135 0.087957 0.059938
v 0.015353 0.087957 0.057899
v 0.029786 0.087957 0.051921
v 0.042180 0.087957 0.042411
v 0.051690 0.087957 0.030017
v 0.057668 0.087957 0.015584
v 0.075611 0.087957 0.000096
v 0.073030 0.087957 -0.019508
v 0.065463 0.087957 -0.037777
v 0.053425 0.087957 -0.053464
v 0.037738 0.087957 -0.065501
v 0.019469 0.087957 -0.073069
v -0.000135 0.087957 -0.075649
v -0.019739 0.087957 -0.073069
v -0.038008 0.087957 -0.065501
v -0.053695 0.087957 -0.053464
v -0.065732 0.087957 -0.037777
v -0.073299 0.087957 -0.019508
v -0.075880 0.087957 0.000096
v -0.073299 0.087957 0.019700
v -0.065732 0.087957 0.037969
v -0.053695 0.087957 0.053656
v -0.038008 0.087957 0.065694
v -0.019739 0.087957 0.073261
v -0.000135 0.087957 0.075842
v 0.019469 0.087957 0.073261
v 0.037738 0.087957 0.065694
v 0.053425 0.087957 0.053656
v 0.065463 0.087957 0.037969
v 0.073030 0.087957 0.019701
v 0.042418 0.062494 0.097359
v 0.045735 0.080148 0.084821
v 0.029904 0.046255 0.101032
v 0.025655 0.025000 0.103083
v 0.024776 -0.000000 0.104362
v 0.018415 -0.000000 0.180736
v 0.043943 0.080080 0.133627
v 0.043385 0.064038 0.180000
v 0.043211 0.063666 0.132402
v 0.024942 0.049352 0.134977
v 0.018916 0.025000 0.180457
v 0.018981 0.025134 0.137621
v 0.043564 0.081476 0.084750
v 0.041745 0.081178 0.133627
v 0.019578 0.085516 0.084821
v 0.019968 0.082122 0.133208
v 0.000040 0.085516 0.084821
v -0.000169 0.082504 0.133109
v 0.076457 0.061577 0.000417
v 0.073929 0.061516 -0.019482
v 0.066280 0.061295 -0.038032
v 0.053924 0.061391 -0.053850
v 0.038070 0.061430 -0.066312
v 0.019543 0.061607 -0.073883
v -0.000572 0.061656 -0.076488
v -0.020213 0.061797 -0.073697
v -0.038571 0.061901 -0.066028
v -0.054457 0.061493 -0.053669
v -0.066541 0.061196 -0.037576
v -0.074033 0.060890 -0.018942
v -0.076406 0.060919 0.001005
v -0.073355 0.061347 0.020735
v 0.065981 0.061433 0.038193
v 0.073182 0.061486 0.019945
v 0.077076 0.080148 0.000096
v 0.074445 0.080148 -0.019888
v 0.066732 0.080148 -0.038510
v 0.054462 0.080148 -0.054501
v 0.038471 0.080148 -0.066771
v 0.019670 0.079897 -0.073872
v -0.000135 0.080148 -0.077115
v -0.020119 0.080148 -0.074484
v -0.038740 0.080148 -0.066771
v -0.054731 0.080148 -0.054501
v -0.067002 0.080148 -0.038510
v -0.074715 0.080148 -0.019888
v -0.077346 0.080148 0.000096
v -0.074715 0.080148 0.020080
v 0.066732 0.080148 0.038702
v 0.074445 0.080148 0.020080
v 0.056013 0.061384 0.055086
v 0.056089 0.080148 0.056026
v 0.049660 0.080148 0.069311
v 0.047433 0.062023 0.072903
v 0.065999 0.082577 0.038270
v 0.055162 0.082598 0.056026
v 0.047893 0.082113 0.069037
v 0.073384 0.082653 0.019778
v 0.076377 0.082716 -0.000064
v -0.020669 0.084769 0.084329
v -0.039828 0.083263 0.083863
v -0.064893 0.081140 0.083697
v -0.067010 0.082525 0.041766
v -0.065287 0.081854 0.056129
v -0.020666 0.082546 0.132504
v -0.041080 0.082168 0.132524
v -0.065404 0.080972 0.180000
v -0.065216 0.081020 0.133019
v -0.067885 0.079482 0.041925
v -0.066503 0.079455 0.083723
v -0.066496 0.079424 0.133010
v -0.066500 0.079156 0.180000
v -0.066779 0.079497 0.056241
v -0.068266 0.062094 0.040229
v -0.066755 0.062836 0.056413
v -0.066498 0.062905 0.084801
v -0.073520 0.082751 0.020174
v -0.076374 0.082693 0.000059
v -0.073809 0.082585 -0.019582
v -0.066017 0.082618 -0.038288
v 0.073778 0.082294 -0.019520
v 0.066119 0.082585 -0.037995
v 0.054015 0.082490 -0.053831
v 0.038822 0.082901 -0.065594
v 0.019848 0.082630 -0.073547
v -0.000150 0.082598 -0.076385
v -0.019993 0.082515 -0.073673
v -0.038165 0.082623 -0.066051
v -0.054091 0.082598 -0.053943
v -0.066449 0.062675 0.133235
v -0.066353 0.062049 0.180381
v 0.043411 0.079412 0.180000
v 0.041775 0.081132 0.180000
v 0.019555 0.082597 0.180000
v -0.000069 0.082450 0.180000
v -0.020756 0.082483 0.180006
v 0.059707 0.087957 0.359904
v 0.057668 0.087957 0.375392
v 0.051690 0.087957 0.389825
v 0.042180 0.087957 0.402219
v 0.029786 0.087957 0.411729
v 0.015353 0.087957 0.417707
v -0.000135 0.087957 0.419746
v -0.015623 0.087957 0.417707
v -0.030056 0.087957 0.411729
v -0.042450 0.087957 0.402219
v -0.051960 0.087957 0.389825
v -0.057938 0.087957 0.375392
v -0.059977 0.087957 0.359904
v -0.057938 0.087957 0.344416
v -0.051960 0.087957 0.329983
v -0.042450 0.087957 0.317589
v -0.030056 0.087957 0.308079
v -0.015623 0.087957 0.302101
v -0.000135 0.087957 0.300062
v 0.015353 0.087957 0.302101
v 0.029786 0.087957 0.308079
v 0.042180 0.087957 0.317589
v 0.051690 0.087957 0.329983
v 0.057668 0.087957 0.344416
v 0.075611 0.087957 0.359904
v 0.073030 0.087957 0.379508
v 0.065463 0.087957 0.397777
v 0.053425 0.087957 0.413464
v 0.037738 0.087957 0.425502
v 0.019469 0.087957 0.433069
v -0.000135 0.087957 0.435650
v -0.019739 0.087957 0.433069
v -0.038008 0.087957 0.425502
v -0.053695 0.087957 0.413464
v -0.065732 0.087957 0.397777
v -0.073299 0.087957 0.379508
v -0.075880 0.087957 0.359904
v -0.073299 0.087957 0.340300
v -0.065732 0.087957 0.322031
v -0.053695 0.087957 0.306344
v -0.038008 0.087957 0.294306
v -0.019739 0.087957 0.286739
v -0.000135 0.087957 0.284158
v 0.019469 0.087957 0.286739
v 0.037738 0.087957 0.294306
v 0.053425 0.087957 0.306344
v 0.065463 0.087957 0.322031
v 0.073030 0.087957 0.340300
v 0.045097 0.063190 0.275180
v 0.045735 0.080148 0.275179
v 0.032684 0.046660 0.266514
v 0.026344 0.023887 0.261663
v 0.025554 -0.000000 0.258233
v 0.043943 0.080080 0.226373
v 0.043211 0.063666 0.227598
v 0.025086 0.049540 0.226349
v 0.018975 0.025000 0.222950
v 0.043564 0.081476 0.275250
v 0.041745 0.081178 0.226373
v 0.019578 0.085516 0.275179
v 0.019968 0.082122 0.226792
v 0.000040 0.085516 0.275179
v -0.000169 0.082504 0.226891
v 0.076491 0.063162 0.359911
v 0.073784 0.063146 0.379711
v 0.066162 0.062993 0.398175
v 0.054010 0.062766 0.414053
v 0.038138 0.062425 0.426248
v 0.019573 0.062442 0.433932
v -0.000359 0.062846 0.436493
v -0.020098 0.062700 0.433738
v -0.038469 0.062603 0.425943
v -0.054196 0.062380 0.413826
v -0.066235 0.062007 0.398035
v -0.073763 0.062157 0.379703
v -0.076491 0.061829 0.360132
v -0.073732 0.061554 0.340308
v 0.065935 0.063295 0.321718
v 0.073250 0.063255 0.340214
v 0.077076 0.080148 0.359904
v 0.074445 0.080148 0.379888
v 0.066732 0.080148 0.398510
v 0.054462 0.080148 0.414501
v 0.038471 0.080148 0.426771
v 0.019677 0.079912 0.433893
v -0.000139 0.079443 0.436497
v -0.019941 0.079701 0.433767
v -0.038740 0.080148 0.426771
v -0.054731 0.080148 0.414501
v -0.067002 0.080148 0.398510
v -0.074715 0.080148 0.379888
v -0.077346 0.080148 0.359904
v -0.074715 0.080148 0.339920
v 0.066732 0.080148 0.321298
v 0.074445 0.080148 0.339920
v 0.055770 0.063247 0.303974
v 0.056089 0.080148 0.303974
v 0.049660 0.080148 0.290689
v 0.049182 0.063219 0.290689
v 0.065999 0.082577 0.321730
v 0.055162 0.082598 0.303974
v 0.047893 0.082112 0.290963
v 0.073384 0.082653 0.340222
v 0.076377 0.082716 0.360064
v -0.020669 0.084769 0.275671
v -0.039828 0.083263 0.276137
v -0.064893 0.081140 0.276303
v -0.067010 0.082525 0.318234
v -0.065287 0.081854 0.303871
v -0.020673 0.082550 0.227500
v -0.041080 0.082168 0.227476
v -0.065216 0.081020 0.226981
v -0.067885 0.079482 0.318075
v -0.066503 0.079455 0.276277
v -0.066496 0.079424 0.226990
v -0.066779 0.079497 0.303759
v -0.068198 0.061433 0.320186
v -0.066490 0.061427 0.297258
v -0.066341 0.061900 0.267753
v -0.073520 0.082751 0.339826
v -0.076374 0.082693 0.359941
v -0.073809 0.082585 0.379582
v -0.066017 0.082618 0.398288
v 0.073778 0.082294 0.379520
v 0.066119 0.082585 0.397995
v 0.054015 0.082490 0.413831
v 0.038822 0.082901 0.425594
v 0.019864 0.082607 0.433604
v -0.000153 0.082666 0.436383
v -0.019974 0.082573 0.433630
v -0.038165 0.082623 0.426051
v -0.054091 0.082597 0.413943
v -0.066429 0.062541 0.226284
v 0.038137 -0.000000 0.075722
v 0.055248 0.041511 0.054587
v 0.057171 0.018532 0.051755
v 0.041117 0.043323 0.073989
v 0.039369 0.021968 0.074058
v 0.076440 0.041632 0.000781
v 0.076385 0.020713 0.001116
v 0.076488 -0.000000 0.000123
v 0.073053 0.041667 0.020475
v 0.072682 0.020240 0.022072
v 0.073889 -0.000000 0.017228
v 0.066029 0.042363 0.038097
v 0.066459 0.024483 0.037395
v 0.061129 -0.000000 0.046704
v 0.072039 -0.000000 0.024278
v 0.067731 0.012994 0.035039
v 0.064555 0.011324 0.041112
v 0.062259 0.006868 0.044979
v 0.070120 0.010767 0.029608
v 0.071510 0.006110 0.025878
v 0.069254 0.009016 0.035903
v 0.064434 -0.000000 0.044482
v 0.065319 0.004876 0.043226
v 0.067081 0.008061 0.040233
v 0.071029 0.007583 0.032319
v 0.071981 0.004401 0.029299
v 0.072304 -0.000000 0.028035
v 0.072617 0.007007 0.037506
v 0.070726 0.006344 0.041165
v 0.075573 -0.000000 0.032058
v 0.074037 0.005908 0.034923
v 0.075110 0.003632 0.032867
v 0.069292 0.004026 0.043658
v 0.068814 -0.000000 0.044740
v 0.073986 0.041403 -0.019231
v 0.074013 0.020812 -0.019115
v 0.073971 -0.000000 -0.019297
v 0.066354 0.041331 -0.037899
v 0.066389 0.020842 -0.037838
v 0.019035 0.020985 -0.074057
v -0.001357 0.021122 -0.076472
v -0.000938 0.041683 -0.076481
v 0.019319 0.041505 -0.073960
v 0.037960 0.041398 -0.066369
v 0.037822 0.020914 -0.066442
v 0.053954 0.041347 -0.053818
v 0.053947 0.020875 -0.053826
v -0.074352 0.000000 -0.017631
v -0.067198 0.000000 -0.036445
v -0.055656 0.000000 -0.052440
v -0.067118 0.020637 -0.036582
v -0.074307 0.020509 -0.017818
v -0.074190 0.040949 -0.018298
v -0.066880 0.041139 -0.036994
v -0.054936 0.041434 -0.053215
v -0.055487 0.020916 -0.052634
v -0.039139 0.041800 -0.065667
v -0.039602 0.021105 -0.065372
v -0.020717 0.042020 -0.073552
v -0.021166 0.021282 -0.073423
v -0.067094 0.000000 0.046770
v -0.067245 0.020970 0.045562
v -0.065470 0.021191 0.071201
v -0.065391 0.000000 0.072876
v -0.065868 0.042304 0.065414
v -0.067782 0.041939 0.042155
v -0.073110 0.041408 0.021660
v -0.072575 0.020717 0.023492
v -0.072354 0.000000 0.024133
v -0.076381 0.041023 0.001719
v -0.076317 0.020541 0.002641
v -0.076294 0.000000 0.002978
v -0.076446 0.000000 0.359213
v -0.076484 0.020823 0.359662
v -0.073754 0.020944 0.379726
v -0.073808 0.000000 0.379641
v -0.073699 0.041722 0.379831
v -0.076485 0.041489 0.360233
v -0.073392 0.041374 0.339314
v -0.072915 0.020792 0.337824
v -0.072725 0.000000 0.337208
v -0.067829 0.041513 0.317996
v -0.067368 0.020960 0.315162
v -0.067208 0.000000 0.314232
v -0.065844 0.041882 0.293137
v -0.065518 0.021523 0.289680
v -0.065466 0.000000 0.288614
v -0.064608 0.043619 0.225678
v -0.064158 0.028671 0.226913
v -0.064051 0.000000 0.231306
v -0.064597 0.042565 0.182530
v -0.064138 0.020213 0.187158
v -0.064086 0.000000 0.178683
v -0.064879 0.042901 0.264715
v -0.064469 0.023236 0.260762
v -0.064376 0.000000 0.260430
v -0.064584 0.042952 0.137339
v -0.064315 0.000000 0.103219
v -0.064410 0.021441 0.102066
v -0.064857 0.042682 0.096282
v -0.064148 0.021646 0.139878
v -0.064055 0.000000 0.137751
v -0.064060 0.000000 0.223170
v -0.054959 0.000000 0.203168
v -0.064074 0.000000 0.186324
v -0.064065 0.014254 0.223123
v -0.064076 0.018473 0.221571
v -0.064095 0.021587 0.217455
v -0.064107 0.022577 0.211044
v -0.064102 0.020364 0.201458
v -0.064093 0.016464 0.194555
v -0.064088 0.011288 0.189620
v -0.064086 0.005557 0.186848
v -0.062915 0.014129 0.218454
v -0.060549 0.014313 0.213872
v -0.058017 0.012351 0.208933
v -0.055765 0.007047 0.204800
v -0.063766 0.014270 0.220658
v -0.063491 0.017365 0.217829
v -0.063083 0.017649 0.207508
v -0.063399 0.015098 0.198912
v -0.063646 0.000000 0.189163
v -0.063616 0.007272 0.190863
v -0.063114 0.018173 0.213273
v -0.063462 0.000000 0.220693
v -0.038737 0.042365 0.425650
v -0.038686 0.021262 0.425556
v -0.054528 0.000000 0.413560
v -0.066353 0.000000 0.397928
v -0.066319 0.021084 0.397953
v -0.066263 0.041845 0.398018
v -0.054385 0.042254 0.413656
v -0.054505 0.021211 0.413558
v 0.076453 -0.000000 0.359540
v 0.038669 -0.000000 0.285154
v 0.053430 -0.000000 0.303779
v 0.065586 -0.000000 0.321077
v 0.073166 -0.000000 0.339871
v 0.076460 0.043447 0.359602
v 0.073179 0.043920 0.339923
v 0.065841 0.043934 0.321552
v 0.055231 0.044538 0.305324
v 0.044606 0.045589 0.290898
v 0.040342 0.023091 0.287368
v 0.054298 0.022584 0.304702
v 0.065728 0.022346 0.321341
v 0.073149 0.022228 0.339804
v 0.076453 0.022006 0.359540
v 0.073799 -0.000000 0.379647
v 0.065770 -0.000000 0.398165
v 0.073810 0.043206 0.379603
v 0.066213 0.042840 0.398067
v 0.054005 0.042302 0.414060
v 0.038013 0.042092 0.426328
v 0.019148 0.042226 0.434058
v -0.000761 0.042742 0.436485
v -0.020398 0.042372 0.433669
v -0.020349 0.021398 0.433679
v -0.000719 0.021760 0.436486
v 0.019123 0.021375 0.434063
v 0.037981 0.021216 0.426349
v 0.053950 0.021259 0.414119
v 0.065929 0.021479 0.398229
v 0.073801 0.021776 0.379642
v 0.024636 -0.049178 0.180382
v -0.041192 -0.082112 0.180000
v 0.059707 -0.087957 0.000096
v 0.057668 -0.087957 -0.015392
v 0.051690 -0.087957 -0.029825
v 0.042180 -0.087957 -0.042219
v 0.029786 -0.087957 -0.051729
v 0.015353 -0.087957 -0.057707
v -0.000135 -0.087957 -0.059746
v -0.015623 -0.087957 -0.057707
v -0.030056 -0.087957 -0.051729
v -0.042450 -0.087957 -0.042219
v -0.051960 -0.087957 -0.029825
v -0.057938 -0.087957 -0.015392
v -0.059977 -0.087957 0.000096
v -0.057938 -0.087957 0.015584
v -0.051960 -0.087957 0.030017
v -0.042450 -0.087957 0.042411
v -0.030056 -0.087957 0.051921
v -0.015623 -0.087957 0.057899
v -0.000135 -0.087957 0.059938
v 0.015353 -0.087957 0.057899
v 0.029786 -0.087957 0.051921
v 0.042180 -0.087957 0.042411
v 0.051690 -0.087957 0.030017
v 0.057668 -0.087957 0.015584
v 0.075611 -0.087957 0.000096
v 0.073030 -0.087957 -0.019508
v 0.065463 -0.087957 -0.037777
v 0.053425 -0.087957 -0.053464
v 0.037738 -0.087957 -0.065502
v 0.019469 -0.087957 -0.073069
v -0.000135 -0.087957 -0.075650
v -0.019739 -0.087957 -0.073069
v -0.038008 -0.087957 -0.065502
v -0.053695 -0.087957 -0.053464
v -0.065732 -0.087957 -0.037777
v -0.073299 -0.087957 -0.019508
v -0.075880 -0.087957 0.000096
v -0.073300 -0.087957 0.019700
v -0.065733 -0.087957 0.037969
v -0.053695 -0.087957 0.053656
v -0.038008 -0.087957 0.065694
v -0.019739 -0.087957 0.073261
v -0.000135 -0.087957 0.075842
v 0.019469 -0.087957 0.073261
v 0.037738 -0.087957 0.065694
v 0.053425 -0.087957 0.053656
v 0.065463 -0.087957 0.037969
v 0.073030 -0.087957 0.019700
v 0.042418 -0.062494 0.097359
v 0.045735 -0.080148 0.084821
v 0.029904 -0.046255 0.101032
v 0.025655 -0.025000 0.103083
v 0.043943 -0.080080 0.133627
v 0.043385 -0.064038 0.180000
v 0.043211 -0.063666 0.132402
v 0.024942 -0.049352 0.134977
v 0.018916 -0.025000 0.180457
v 0.018981 -0.025134 0.137621
v 0.043564 -0.081476 0.084750
v 0.041745 -0.081178 0.133627
v 0.019578 -0.085516 0.084821
v 0.019968 -0.082122 0.133208
v 0.000040 -0.085516 0.084821
v -0.000169 -0.082504 0.133109
v 0.076457 -0.061577 0.000417
v 0.073929 -0.061516 -0.019482
v 0.066280 -0.061295 -0.038032
v 0.053924 -0.061391 -0.053850
v 0.038070 -0.061430 -0.066312
v 0.019543 -0.061607 -0.073883
v -0.000572 -0.061656 -0.076488
v -0.020213 -0.061797 -0.073697
v -0.038571 -0.061901 -0.066028
v -0.054457 -0.061493 -0.053669
v -0.066541 -0.061196 -0.037577
v -0.074033 -0.060890 -0.018942
v -0.076406 -0.060919 0.001005
v -0.073355 -0.061347 0.020735
v 0.065981 -0.061433 0.038192
v 0.073182 -0.061487 0.019945
v 0.077076 -0.080148 0.000096
v 0.074445 -0.080148 -0.019888
v 0.066732 -0.080148 -0.038510
v 0.054462 -0.080148 -0.054501
v 0.038471 -0.080148 -0.066771
v 0.019670 -0.079897 -0.073872
v -0.000135 -0.080148 -0.077115
v -0.020119 -0.080148 -0.074484
v -0.038741 -0.080148 -0.066771
v -0.054731 -0.080148 -0.054501
v -0.067002 -0.080148 -0.038510
v -0.074715 -0.080148 -0.019888
v -0.077346 -0.080148 0.000096
v -0.074715 -0.080148 0.020080
v 0.066732 -0.080148 0.038702
v 0.074445 -0.080148 0.020080
v 0.056013 -0.061384 0.055086
v 0.056089 -0.080148 0.056026
v 0.049660 -0.080148 0.069311
v 0.047433 -0.062023 0.072903
v 0.065999 -0.082577 0.038270
v 0.055162 -0.082598 0.056026
v 0.047893 -0.082113 0.069037
v 0.073384 -0.082653 0.019778
v 0.076377 -0.082716 -0.000064
v -0.020669 -0.084769 0.084329
v -0.039828 -0.083263 0.083863
v -0.064893 -0.081140 0.083697
v -0.067010 -0.082525 0.041766
v -0.065287 -0.081854 0.056129
v -0.020666 -0.082546 0.132504
v -0.041080 -0.082168 0.132524
v -0.065404 -0.080972 0.180000
v -0.065216 -0.081020 0.133019
v -0.067885 -0.079482 0.041925
v -0.066503 -0.079455 0.083723
v -0.066496 -0.079424 0.133010
v -0.066500 -0.079156 0.180000
v -0.066779 -0.079497 0.056241
v -0.068267 -0.062094 0.040229
v -0.066755 -0.062836 0.056413
v -0.066498 -0.062905 0.084801
v -0.073520 -0.082751 0.020174
v -0.076374 -0.082693 0.000059
v -0.073809 -0.082585 -0.019582
v -0.066017 -0.082618 -0.038288
v 0.073778 -0.082294 -0.019520
v 0.066119 -0.082585 -0.037995
v 0.054015 -0.082490 -0.053831
v 0.038822 -0.082901 -0.065594
v 0.019848 -0.082630 -0.073547
v -0.000150 -0.082598 -0.076385
v -0.019993 -0.082515 -0.073673
v -0.038165 -0.082623 -0.066051
v -0.054091 -0.082598 -0.053943
v -0.066449 -0.062675 0.133235
v -0.066353 -0.062049 0.180381
v 0.043411 -0.079412 0.180000
v 0.041775 -0.081132 0.180000
v 0.019554 -0.082597 0.180000
v -0.000069 -0.082451 0.180000
v -0.020756 -0.082483 0.180006
v 0.059707 -0.087957 0.359904
v 0.057668 -0.087957 0.375392
v 0.051690 -0.087957 0.389825
v 0.042180 -0.087957 0.402219
v 0.029786 -0.087957 0.411729
v 0.015353 -0.087957 0.417707
v -0.000135 -0.087957 0.419746
v -0.015623 -0.087957 0.417707
v -0.030056 -0.087957 0.411729
v -0.042450 -0.087957 0.402219
v -0.051960 -0.087957 0.389825
v -0.057938 -0.087957 0.375392
v -0.059977 -0.087957 0.359904
v -0.057938 -0.087957 0.344416
v -0.051960 -0.087957 0.329983
v -0.042450 -0.087957 0.317589
v -0.030056 -0.087957 0.308079
v -0.015623 -0.087957 0.302101
v -0.000135 -0.087957 0.300062
v 0.015353 -0.087957 0.302101
v 0.029786 -0.087957 0.308079
v 0.042180 -0.087957 0.317589
v 0.051690 -0.087957 0.329983
v 0.057668 -0.087957 0.344416
v 0.075611 -0.087957 0.359904
v 0.073030 -0.087957 0.379508
v 0.065463 -0.087957 0.397777
v 0.053425 -0.087957 0.413464
v 0.037738 -0.087957 0.425502
v 0.019469 -0.087957 0.433069
v -0.000135 -0.087957 0.435650
v -0.019739 -0.087957 0.433069
v -0.038008 -0.087957 0.425502
v -0.053695 -0.087957 0.413464
v -0.065732 -0.087957 0.397777
v -0.073299 -0.087957 0.379508
v -0.075880 -0.087957 0.359904
v -0.073300 -0.087957 0.340300
v -0.065733 -0.087957 0.322031
v -0.053695 -0.087957 0.306344
v -0.038008 -0.087957 0.294306
v -0.019739 -0.087957 0.286739
v -0.000135 -0.087957 0.284158
v 0.019469 -0.087957 0.286739
v 0.037738 -0.087957 0.294306
v 0.053425 -0.087957 0.306344
v 0.065463 -0.087957 0.322031
v 0.073030 -0.087957 0.340300
v 0.045097 -0.063190 0.275180
v 0.045735 -0.080148 0.275179
v 0.032684 -0.046660 0.266514
v 0.026344 -0.023887 0.261663
v 0.043943 -0.080080 0.226373
v 0.043211 -0.063666 0.227598
v 0.025086 -0.049540 0.226349
v 0.018975 -0.025000 0.222950
v 0.043564 -0.081476 0.275250
v 0.041745 -0.081178 0.226373
v 0.019578 -0.085516 0.275179
v 0.019968 -0.082122 0.226792
v 0.000040 -0.085516 0.275179
v -0.000169 -0.082504 0.226891
v 0.076491 -0.063162 0.359911
v 0.073784 -0.063146 0.379711
v 0.066162 -0.062993 0.398175
v 0.054010 -0.062766 0.414053
v 0.038138 -0.062425 0.426248
v 0.019573 -0.062442 0.433932
v -0.000359 -0.062846 0.436493
v -0.020098 -0.062700 0.433738
v -0.038469 -0.062603 0.425943
v -0.054196 -0.062380 0.413826
v -0.066235 -0.062007 0.398035
v -0.073763 -0.062157 0.379703
v -0.076491 -0.061830 0.360132
v -0.073732 -0.061554 0.340308
v 0.065935 -0.063295 0.321718
v 0.073250 -0.063255 0.340214
v 0.077076 -0.080148 0.359904
v 0.074445 -0.080148 0.379888
v 0.066732 -0.080148 0.398510
v 0.054462 -0.080148 0.414501
v 0.038471 -0.080148 0.426771
v 0.019677 -0.079913 0.433893
v -0.000139 -0.079444 0.436497
v -0.019941 -0.079701 0.433767
v -0.038741 -0.080148 0.426771
v -0.054731 -0.080148 0.414501
v -0.067002 -0.080148 0.398510
v -0.074715 -0.080148 0.379888
v -0.077346 -0.080148 0.359904
v -0.074715 -0.080148 0.339920
v 0.066732 -0.080148 0.321298
v 0.074445 -0.080148 0.339920
v 0.055770 -0.063247 0.303974
v 0.056089 -0.080148 0.303974
v 0.049660 -0.080148 0.290689
v 0.049182 -0.063219 0.290689
v 0.065999 -0.082577 0.321730
v 0.055162 -0.082598 0.303974
v 0.047893 -0.082113 0.290963
v 0.073384 -0.082653 0.340222
v 0.076377 -0.082716 0.360064
v -0.020669 -0.084769 0.275671
v -0.039828 -0.083263 0.276137
v -0.064893 -0.081140 0.276303
v -0.067010 -0.082525 0.318234
v -0.065287 -0.081854 0.303871
v -0.020673 -0.082550 0.227500
v -0.041080 -0.082168 0.227476
v -0.065216 -0.081020 0.226981
v -0.067885 -0.079482 0.318075
v -0.066503 -0.079455 0.276277
v -0.066496 -0.079424 0.226990
v -0.066779 -0.079497 0.303759
v -0.068198 -0.061433 0.320186
v -0.066490 -0.061427 0.297258
v -0.066341 -0.061900 0.267753
v -0.073520 -0.082751 0.339826
v -0.076374 -0.082693 0.359941
v -0.073809 -0.082585 0.379582
v -0.066017 -0.082618 0.398288
v 0.073778 -0.082294 0.379520
v 0.066119 -0.082585 0.397995
v 0.054015 -0.082490 0.413831
v 0.038822 -0.082901 0.425594
v 0.019864 -0.082607 0.433604
v -0.000153 -0.082666 0.436383
v -0.019974 -0.082573 0.433630
v -0.038165 -0.082623 0.426051
v -0.054091 -0.082598 0.413943
v -0.066429 -0.062541 0.226283
v 0.053581 -0.000000 0.056052
v 0.055248 -0.041511 0.054587
v 0.057171 -0.018532 0.051755
v 0.041117 -0.043323 0.073989
v 0.039369 -0.021968 0.074058
v 0.076440 -0.041632 0.000781
v 0.076385 -0.020713 0.001116
v 0.073053 -0.041667 0.020475
v 0.072682 -0.020240 0.022072
v 0.066029 -0.042363 0.038097
v 0.066459 -0.024483 0.037395
v 0.067731 -0.012994 0.035039
v 0.064555 -0.011324 0.041112
v 0.062259 -0.006868 0.044979
v 0.070120 -0.010767 0.029608
v 0.071510 -0.006110 0.025878
v 0.069254 -0.009016 0.035903
v 0.065319 -0.004876 0.043226
v 0.067081 -0.008061 0.040233
v 0.071029 -0.007583 0.032319
v 0.071981 -0.004401 0.029299
v 0.072617 -0.007007 0.037506
v 0.070726 -0.006344 0.041165
v 0.074037 -0.005908 0.034923
v 0.075110 -0.003632 0.032867
v 0.069292 -0.004026 0.043658
v 0.073986 -0.041403 -0.019231
v 0.074013 -0.020812 -0.019115
v 0.066354 -0.041331 -0.037899
v 0.066389 -0.020842 -0.037838
v 0.066370 -0.000000 -0.037872
v -0.001732 0.000000 -0.076465
v 0.018735 -0.000000 -0.074160
v 0.037660 -0.000000 -0.066528
v 0.053895 -0.000000 -0.053881
v 0.019035 -0.020985 -0.074057
v -0.001357 -0.021122 -0.076472
v -0.000938 -0.041683 -0.076481
v 0.019319 -0.041505 -0.073960
v 0.037960 -0.041398 -0.066369
v 0.037822 -0.020914 -0.066442
v 0.053954 -0.041347 -0.053818
v 0.053947 -0.020875 -0.053826
v -0.039877 0.000000 -0.065197
v -0.021557 0.000000 -0.073310
v -0.067118 -0.020637 -0.036582
v -0.074307 -0.020509 -0.017818
v -0.074190 -0.040949 -0.018299
v -0.066880 -0.041139 -0.036994
v -0.054936 -0.041434 -0.053215
v -0.055487 -0.020916 -0.052634
v -0.039139 -0.041799 -0.065667
v -0.039602 -0.021105 -0.065372
v -0.020717 -0.042020 -0.073552
v -0.021166 -0.021282 -0.073423
v -0.067245 -0.020970 0.045562
v -0.065470 -0.021191 0.071201
v -0.065868 -0.042304 0.065414
v -0.067782 -0.041939 0.042155
v -0.073110 -0.041408 0.021660
v -0.072575 -0.020717 0.023492
v -0.076381 -0.041023 0.001719
v -0.076317 -0.020541 0.002641
v -0.076484 -0.020823 0.359662
v -0.073754 -0.020944 0.379726
v -0.073699 -0.041723 0.379831
v -0.076485 -0.041489 0.360233
v -0.073392 -0.041374 0.339314
v -0.072915 -0.020792 0.337824
v -0.067829 -0.041513 0.317996
v -0.067368 -0.020960 0.315162
v -0.065845 -0.041882 0.293137
v -0.065518 -0.021523 0.289680
v -0.064608 -0.043619 0.225678
v -0.064159 -0.028671 0.226913
v -0.064597 -0.042565 0.182530
v -0.064138 -0.020213 0.187158
v -0.064879 -0.042901 0.264715
v -0.064469 -0.023236 0.260762
v -0.064584 -0.042953 0.137339
v -0.064410 -0.021441 0.102066
v -0.064857 -0.042682 0.096282
v -0.064148 -0.021646 0.139878
v -0.062917 0.000000 0.218498
v -0.064065 -0.014254 0.223123
v -0.064076 -0.018473 0.221571
v -0.064095 -0.021587 0.217455
v -0.064107 -0.022577 0.211044
v -0.064102 -0.020364 0.201458
v -0.064093 -0.016464 0.194555
v -0.064088 -0.011288 0.189620
v -0.064086 -0.005557 0.186848
v -0.062915 -0.014129 0.218454
v -0.060549 -0.014313 0.213872
v -0.058017 -0.012351 0.208933
v -0.055765 -0.007047 0.204800
v -0.063766 -0.014270 0.220658
v -0.063491 -0.017365 0.217829
v -0.063083 -0.017649 0.207508
v -0.063399 -0.015098 0.198912
v -0.063616 -0.007272 0.190863
v -0.063114 -0.018173 0.213273
v -0.038737 -0.042365 0.425650
v -0.038686 -0.021262 0.425556
v -0.038456 0.000000 0.425473
v -0.066319 -0.021084 0.397953
v -0.066263 -0.041846 0.398018
v -0.054385 -0.042254 0.413656
v -0.054505 -0.021211 0.413558
v 0.076460 -0.043447 0.359602
v 0.073179 -0.043921 0.339923
v 0.065841 -0.043934 0.321552
v 0.055231 -0.044538 0.305324
v 0.044606 -0.045589 0.290898
v 0.040342 -0.023091 0.287368
v 0.054298 -0.022585 0.304702
v 0.065728 -0.022346 0.321341
v 0.073149 -0.022228 0.339804
v 0.076453 -0.022006 0.359540
v 0.053932 -0.000000 0.414139
v 0.037974 -0.000000 0.426353
v 0.019131 -0.000000 0.434061
v -0.000681 0.000000 0.436487
v -0.020268 0.000000 0.433696
v 0.073810 -0.043206 0.379603
v 0.066213 -0.042840 0.398067
v 0.054005 -0.042303 0.414060
v 0.038013 -0.042092 0.426328
v 0.019148 -0.042226 0.434058
v -0.000761 -0.042742 0.436485
v -0.020398 -0.042372 0.433669
v -0.020349 -0.021398 0.433679
v -0.000719 -0.021760 0.436486
v 0.019123 -0.021375 0.434063
v 0.037981 -0.021216 0.426349
v 0.053950 -0.021260 0.414119
v 0.065929 -0.021479 0.398229
v 0.073801 -0.021776 0.379642
f 22 46 47
f 47 23 22
f 23 47 48
f 48 24 23
f 24 48 49
f 49 25 24
f 25 49 50
f 50 26 25
f 26 50 51
f 51 27 26
f 63 58 1
f 1 64 63
f 3 63 64
f 64 62 3
f 144 60 61
f 61 59 144
f 60 3 62
f 62 61 60
f 59 66 145
f 145 144 59
f 66 68 146
f 146 145 66
f 107 51 50
f 50 108 107
f 54 59 61
f 61 53 54
f 67 65 49
f 49 48 67
f 65 67 68
f 68 66 65
f 108 109 105
f 105 104 108
f 54 65 66
f 66 59 54
f 54 105 109
f 109 65 54
f 109 108 50
f 50 49 109
f 65 109 49
f 107 108 104
f 104 101 107
f 52 29 5
f 5 28 52
f 51 52 28
f 28 27 51
f 110 52 51
f 51 107 110
f 111 110 102
f 102 87 111
f 110 107 101
f 101 102 110
f 69 67 48
f 48 47 69
f 45 46 22
f 22 21 45
f 43 44 20
f 20 19 43
f 44 45 21
f 21 20 44
f 46 112 69
f 69 47 46
f 45 113 112
f 112 46 45
f 69 70 68
f 68 67 69
f 70 147 146
f 146 68 70
f 70 117 148
f 148 147 70
f 117 70 69
f 69 112 117
f 117 118 4
f 4 148 117
f 118 117 112
f 112 113 118
f 118 120 119
f 119 4 118
f 118 113 114
f 114 120 118
f 45 44 114
f 114 113 45
f 44 116 114
f 125 122 114
f 114 116 125
f 42 43 19
f 19 18 42
f 115 116 44
f 44 43 115
f 115 121 125
f 125 116 115
f 115 129 100
f 100 121 115
f 129 115 43
f 43 42 129
f 41 42 18
f 18 17 41
f 39 40 16
f 16 15 39
f 40 41 17
f 17 16 40
f 130 99 100
f 100 129 130
f 41 130 129
f 129 42 41
f 131 130 41
f 41 40 131
f 130 131 98
f 98 99 130
f 29 30 6
f 6 5 29
f 111 29 52
f 52 110 111
f 111 133 30
f 30 29 111
f 30 31 7
f 7 6 30
f 133 111 87
f 87 88 133
f 133 134 31
f 31 30 133
f 31 32 8
f 8 7 31
f 134 133 88
f 88 89 134
f 134 135 32
f 32 31 134
f 32 33 9
f 9 8 32
f 135 134 89
f 89 90 135
f 135 136 33
f 33 32 135
f 33 34 10
f 10 9 33
f 136 135 90
f 90 91 136
f 136 137 34
f 34 33 136
f 34 35 11
f 11 10 34
f 137 136 91
f 91 92 137
f 137 138 35
f 35 34 137
f 35 36 12
f 12 11 35
f 138 137 92
f 92 93 138
f 138 139 36
f 36 35 138
f 139 138 93
f 93 94 139
f 36 37 13
f 13 12 36
f 95 140 139
f 139 94 95
f 37 38 14
f 14 13 37
f 38 39 15
f 15 14 38
f 140 37 36
f 36 139 140
f 140 141 38
f 38 37 140
f 132 141 96
f 96 97 132
f 131 132 97
f 97 98 131
f 141 132 39
f 39 38 141
f 132 131 40
f 40 39 132
f 141 140 95
f 95 96 141
f 123 120 114
f 114 122 123
f 124 119 120
f 120 123 124
f 166 167 191
f 191 190 166
f 167 168 192
f 192 191 167
f 168 169 193
f 193 192 168
f 169 170 194
f 194 193 169
f 170 171 195
f 195 194 170
f 63 205 2
f 2 58 63
f 3 204 205
f 205 63 3
f 144 202 203
f 203 60 144
f 60 203 204
f 204 3 60
f 202 144 145
f 145 207 202
f 207 145 146
f 146 209 207
f 248 249 194
f 194 195 248
f 198 197 203
f 203 202 198
f 208 192 193
f 193 206 208
f 206 207 209
f 209 208 206
f 249 245 246
f 246 250 249
f 198 202 207
f 207 206 198
f 198 206 250
f 250 246 198
f 250 193 194
f 194 249 250
f 206 193 250
f 248 242 245
f 245 249 248
f 196 172 149
f 149 173 196
f 195 171 172
f 172 196 195
f 251 248 195
f 195 196 251
f 252 228 243
f 243 251 252
f 251 243 242
f 242 248 251
f 210 191 192
f 192 208 210
f 189 165 166
f 166 190 189
f 187 163 164
f 164 188 187
f 188 164 165
f 165 189 188
f 190 191 210
f 210 253 190
f 189 190 253
f 253 254 189
f 210 208 209
f 209 211 210
f 211 209 146
f 146 147 211
f 211 147 148
f 148 258 211
f 258 253 210
f 210 211 258
f 258 148 4
f 4 259 258
f 259 254 253
f 253 258 259
f 189 254 255
f 255 188 189
f 259 4 119
f 119 260 259
f 255 254 259
f 259 260 255
f 188 255 257
f 264 257 255
f 255 262 264
f 186 162 163
f 163 187 186
f 256 187 188
f 188 257 256
f 256 257 264
f 264 261 256
f 256 261 241
f 241 268 256
f 268 186 187
f 187 256 268
f 185 161 162
f 162 186 185
f 183 159 160
f 160 184 183
f 184 160 161
f 161 185 184
f 269 268 241
f 241 240 269
f 185 186 268
f 268 269 185
f 270 184 185
f 185 269 270
f 269 240 239
f 239 270 269
f 173 149 150
f 150 174 173
f 252 251 196
f 196 173 252
f 252 173 174
f 174 272 252
f 174 150 151
f 151 175 174
f 272 229 228
f 228 252 272
f 272 174 175
f 175 273 272
f 175 151 152
f 152 176 175
f 273 230 229
f 229 272 273
f 273 175 176
f 176 274 273
f 176 152 153
f 153 177 176
f 274 231 230
f 230 273 274
f 274 176 177
f 177 275 274
f 177 153 154
f 154 178 177
f 275 232 231
f 231 274 275
f 275 177 178
f 178 276 275
f 178 154 155
f 155 179 178
f 276 233 232
f 232 275 276
f 276 178 179
f 179 277 276
f 179 155 156
f 156 180 179
f 277 234 233
f 233 276 277
f 277 179 180
f 180 278 277
f 278 235 234
f 234 277 278
f 180 156 157
f 157 181 180
f 236 235 278
f 278 279 236
f 181 157 158
f 158 182 181
f 182 158 159
f 159 183 182
f 279 278 180
f 180 181 279
f 279 181 182
f 182 280 279
f 271 238 237
f 237 280 271
f 270 239 238
f 238 271 270
f 280 182 183
f 183 271 280
f 271 183 184
f 184 270 271
f 280 237 236
f 236 279 280
f 263 262 255
f 255 260 263
f 124 263 260
f 260 119 124
f 106 105 54
f 54 53 106
f 106 103 104
f 104 105 106
f 62 55 53
f 53 61 62
f 64 56 55
f 55 62 64
f 57 56 64
f 64 1 57
f 286 56 57
f 57 282 286
f 55 285 106
f 106 53 55
f 285 55 56
f 56 286 285
f 102 86 71
f 71 87 102
f 101 85 86
f 86 102 101
f 103 85 101
f 101 104 103
f 285 283 103
f 103 106 285
f 293 290 86
f 86 85 293
f 283 293 85
f 85 103 283
f 284 294 293
f 293 283 284
f 286 284 283
f 283 285 286
f 284 286 282
f 282 722 284
f 294 291 290
f 290 293 294
f 291 301 296
f 296 292 291
f 300 291 294
f 294 297 300
f 291 300 301
f 284 298 297
f 297 294 284
f 284 299 298
f 299 284 722
f 722 295 299
f 298 305 302
f 302 297 298
f 306 300 297
f 297 302 306
f 307 301 300
f 300 306 307
f 301 307 308
f 308 296 301
f 299 304 305
f 305 298 299
f 303 304 299
f 299 295 303
f 310 309 302
f 302 305 310
f 309 312 306
f 306 302 309
f 315 314 304
f 304 303 315
f 314 310 305
f 305 304 314
f 312 313 307
f 307 306 312
f 313 311 308
f 308 307 313
f 72 88 87
f 87 71 72
f 288 291 292
f 292 289 288
f 290 287 71
f 71 86 290
f 287 290 291
f 291 288 287
f 287 316 72
f 72 71 287
f 288 317 316
f 316 287 288
f 317 288 289
f 289 318 317
f 73 89 88
f 88 72 73
f 319 73 72
f 72 316 319
f 89 73 74
f 74 90 89
f 73 319 327
f 327 74 73
f 90 74 75
f 75 91 90
f 74 327 325
f 325 75 74
f 91 75 76
f 76 92 91
f 75 325 324
f 324 76 75
f 319 316 317
f 317 320 319
f 327 319 320
f 320 328 327
f 320 317 318
f 318 752 320
f 328 320 752
f 752 756 328
f 754 321 326
f 326 755 754
f 755 326 328
f 328 756 755
f 326 321 324
f 324 325 326
f 325 327 328
f 328 326 325
f 77 93 92
f 92 76 77
f 323 77 76
f 76 324 323
f 93 77 78
f 78 94 93
f 77 323 340
f 340 78 77
f 94 78 79
f 79 95 94
f 78 340 338
f 338 79 78
f 95 79 80
f 80 96 95
f 79 338 336
f 336 80 79
f 96 80 81
f 81 97 96
f 80 336 335
f 335 81 80
f 753 322 321
f 321 754 753
f 753 766 341
f 341 322 753
f 322 323 324
f 324 321 322
f 322 341 340
f 340 323 322
f 330 332 337
f 337 331 330
f 331 337 339
f 339 765 331
f 765 339 341
f 341 766 765
f 337 332 335
f 335 336 337
f 336 338 339
f 339 337 336
f 338 340 341
f 341 339 338
f 82 98 97
f 97 81 82
f 334 82 81
f 81 335 334
f 98 82 83
f 83 99 98
f 82 334 351
f 351 83 82
f 99 83 84
f 84 100 99
f 83 351 348
f 348 84 83
f 84 126 121
f 121 100 84
f 84 348 347
f 347 126 84
f 126 127 125
f 125 121 126
f 329 333 332
f 332 330 329
f 329 353 352
f 352 333 329
f 333 334 335
f 335 332 333
f 333 352 351
f 351 334 333
f 350 342 343
f 343 349 350
f 349 343 347
f 347 348 349
f 348 351 352
f 352 349 348
f 349 352 353
f 353 350 349
f 224 223 239
f 239 240 224
f 225 224 240
f 240 241 225
f 359 224 225
f 225 360 359
f 265 225 241
f 241 261 265
f 360 225 265
f 265 363 360
f 266 265 261
f 261 264 266
f 362 354 355
f 355 361 362
f 361 355 359
f 359 360 361
f 360 363 364
f 364 361 360
f 361 364 365
f 365 362 361
f 143 281 263
f 263 124 143
f 281 267 262
f 262 263 281
f 267 266 264
f 264 262 267
f 266 366 363
f 363 265 266
f 366 367 364
f 364 363 366
f 367 368 365
f 365 364 367
f 369 375 267
f 267 281 369
f 375 366 266
f 266 267 375
f 376 367 366
f 366 375 376
f 377 368 367
f 367 376 377
f 142 143 124
f 124 123 142
f 128 142 123
f 123 122 128
f 127 128 122
f 122 125 127
f 378 372 143
f 143 142 378
f 372 369 281
f 281 143 372
f 346 127 126
f 126 347 346
f 346 381 128
f 128 127 346
f 381 378 142
f 142 128 381
f 344 346 347
f 347 343 344
f 344 380 381
f 381 346 344
f 380 382 378
f 378 381 380
f 342 345 344
f 344 343 342
f 345 379 380
f 380 344 345
f 379 383 382
f 382 380 379
f 400 395 399
f 405 396 395
f 395 400 405
f 398 404 403
f 403 385 398
f 404 398 402
f 805 406 399
f 399 395 805
f 805 397 398
f 398 385 805
f 397 805 395
f 395 396 397
f 401 397 396
f 396 405 401
f 397 401 402
f 402 398 397
f 404 394 386
f 386 403 404
f 394 374 386
f 373 382 383
f 383 374 373
f 373 393 392
f 393 404 402
f 402 392 393
f 404 393 394
f 370 389 388
f 389 400 388
f 371 387 384
f 387 399 406
f 406 384 387
f 399 387 388
f 388 400 399
f 370 376 375
f 375 369 370
f 376 370 371
f 371 377 376
f 370 388 387
f 387 371 370
f 370 390 389
f 390 405 400
f 400 389 390
f 390 401 405
f 373 370 369
f 369 372 373
f 382 373 372
f 372 378 382
f 393 373 374
f 374 394 393
f 373 391 390
f 390 370 373
f 391 373 392
f 391 401 390
f 402 391 392
f 401 391 402
f 357 356 355
f 355 354 357
f 358 223 224
f 224 359 358
f 356 358 359
f 359 355 356
f 223 222 238
f 238 239 223
f 222 221 237
f 237 238 222
f 412 222 223
f 223 358 412
f 411 356 357
f 357 410 411
f 411 412 358
f 358 356 411
f 412 413 221
f 221 222 412
f 414 413 412
f 412 411 414
f 409 414 411
f 411 410 409
f 227 243 228
f 228 212 227
f 227 226 242
f 242 243 227
f 244 245 242
f 242 226 244
f 247 197 198
f 198 246 247
f 247 246 245
f 245 244 247
f 199 204 203
f 203 197 199
f 200 205 204
f 204 199 200
f 205 200 201
f 201 2 205
f 424 199 197
f 197 247 424
f 425 416 201
f 201 200 425
f 425 200 199
f 199 424 425
f 423 424 247
f 247 244 423
f 426 417 416
f 416 425 426
f 426 425 424
f 424 423 426
f 422 423 244
f 244 226 422
f 427 418 417
f 417 426 427
f 422 427 426
f 426 423 422
f 421 422 226
f 226 227 421
f 428 419 418
f 418 427 428
f 428 427 422
f 422 421 428
f 420 421 227
f 227 212 420
f 229 213 212
f 212 228 229
f 230 214 213
f 213 229 230
f 231 215 214
f 214 230 231
f 232 216 215
f 215 231 232
f 233 217 216
f 216 232 233
f 234 218 217
f 217 233 234
f 235 219 218
f 218 234 235
f 438 437 218
f 218 219 438
f 439 408 826
f 826 845 439
f 439 440 437
f 437 438 439
f 844 440 439
f 439 845 844
f 436 435 216
f 216 217 436
f 437 436 217
f 217 218 437
f 441 440 844
f 844 843 441
f 441 436 437
f 437 440 441
f 435 434 215
f 215 216 435
f 441 442 435
f 435 436 441
f 842 442 441
f 441 843 842
f 434 433 214
f 214 215 434
f 442 443 434
f 434 435 442
f 841 443 442
f 442 842 841
f 431 444 443
f 443 841 431
f 443 444 433
f 433 434 443
f 213 432 420
f 420 212 213
f 433 432 213
f 213 214 433
f 430 445 444
f 444 431 430
f 429 428 421
f 421 420 429
f 445 429 420
f 420 432 445
f 429 415 419
f 419 428 429
f 429 445 430
f 430 415 429
f 445 432 433
f 433 444 445
f 236 220 219
f 219 235 236
f 220 407 438
f 438 219 220
f 221 220 236
f 236 237 221
f 407 220 221
f 221 413 407
f 414 408 407
f 407 413 414
f 408 439 438
f 438 407 408
f 409 826 408
f 408 414 409
f 23 24 25
f 25 26 27
f 23 25 27
f 27 28 5
f 5 6 7
f 27 5 7
f 23 27 7
f 7 8 9
f 9 10 11
f 7 9 11
f 11 12 13
f 13 14 15
f 11 13 15
f 7 11 15
f 23 7 15
f 15 16 17
f 17 18 19
f 15 17 19
f 23 15 19
f 19 20 21
f 23 19 21
f 22 23 21
f 166 165 164
f 164 163 162
f 166 164 162
f 162 161 160
f 160 159 158
f 162 160 158
f 166 162 158
f 158 157 156
f 156 155 154
f 158 156 154
f 154 153 152
f 152 151 150
f 154 152 150
f 158 154 150
f 166 158 150
f 150 149 172
f 172 171 170
f 150 172 170
f 166 150 170
f 170 169 168
f 166 170 168
f 167 166 168
f 465 466 490
f 490 489 465
f 466 467 491
f 491 490 466
f 467 468 492
f 492 491 467
f 468 469 493
f 493 492 468
f 469 470 494
f 494 493 469
f 504 505 1
f 1 58 504
f 446 503 505
f 505 504 446
f 585 500 502
f 502 501 585
f 501 502 503
f 503 446 501
f 500 585 586
f 586 507 500
f 507 586 587
f 587 509 507
f 548 549 493
f 493 494 548
f 497 496 502
f 502 500 497
f 508 491 492
f 492 506 508
f 506 507 509
f 509 508 506
f 549 545 546
f 546 550 549
f 497 500 507
f 507 506 497
f 497 506 550
f 550 546 497
f 550 492 493
f 493 549 550
f 506 492 550
f 548 542 545
f 545 549 548
f 495 471 448
f 448 472 495
f 494 470 471
f 471 495 494
f 551 548 494
f 494 495 551
f 552 528 543
f 543 551 552
f 551 543 542
f 542 548 551
f 510 490 491
f 491 508 510
f 488 464 465
f 465 489 488
f 486 462 463
f 463 487 486
f 487 463 464
f 464 488 487
f 489 490 510
f 510 553 489
f 488 489 553
f 553 554 488
f 510 508 509
f 509 511 510
f 511 509 587
f 587 588 511
f 511 588 589
f 589 558 511
f 558 553 510
f 510 511 558
f 558 589 447
f 447 559 558
f 559 554 553
f 553 558 559
f 559 447 560
f 560 561 559
f 559 561 555
f 555 554 559
f 488 554 555
f 555 487 488
f 487 555 557
f 566 557 555
f 555 563 566
f 485 461 462
f 462 486 485
f 556 486 487
f 487 557 556
f 556 557 566
f 566 562 556
f 556 562 541
f 541 570 556
f 570 485 486
f 486 556 570
f 484 460 461
f 461 485 484
f 482 458 459
f 459 483 482
f 483 459 460
f 460 484 483
f 571 570 541
f 541 540 571
f 484 485 570
f 570 571 484
f 572 483 484
f 484 571 572
f 571 540 539
f 539 572 571
f 472 448 449
f 449 473 472
f 552 551 495
f 495 472 552
f 552 472 473
f 473 574 552
f 473 449 450
f 450 474 473
f 574 529 528
f 528 552 574
f 574 473 474
f 474 575 574
f 474 450 451
f 451 475 474
f 575 530 529
f 529 574 575
f 575 474 475
f 475 576 575
f 475 451 452
f 452 476 475
f 576 531 530
f 530 575 576
f 576 475 476
f 476 577 576
f 476 452 453
f 453 477 476
f 577 532 531
f 531 576 577
f 577 476 477
f 477 578 577
f 477 453 454
f 454 478 477
f 578 533 532
f 532 577 578
f 578 477 478
f 478 579 578
f 478 454 455
f 455 479 478
f 579 534 533
f 533 578 579
f 579 478 479
f 479 580 579
f 580 535 534
f 534 579 580
f 479 455 456
f 456 480 479
f 536 535 580
f 580 581 536
f 480 456 457
f 457 481 480
f 481 457 458
f 458 482 481
f 581 580 479
f 479 480 581
f 581 480 481
f 481 582 581
f 573 538 537
f 537 582 573
f 572 539 538
f 538 573 572
f 582 481 482
f 482 573 582
f 573 482 483
f 483 572 573
f 582 537 536
f 536 581 582
f 564 563 555
f 555 561 564
f 565 564 561
f 561 560 565
f 607 631 632
f 632 608 607
f 608 632 633
f 633 609 608
f 609 633 634
f 634 610 609
f 610 634 635
f 635 611 610
f 611 635 636
f 636 612 611
f 504 58 2
f 2 645 504
f 446 504 645
f 645 644 446
f 585 501 643
f 643 642 585
f 501 446 644
f 644 643 501
f 642 647 586
f 586 585 642
f 647 649 587
f 587 586 647
f 688 636 635
f 635 689 688
f 639 642 643
f 643 638 639
f 648 646 634
f 634 633 648
f 646 648 649
f 649 647 646
f 689 690 686
f 686 685 689
f 639 646 647
f 647 642 639
f 639 686 690
f 690 646 639
f 690 689 635
f 635 634 690
f 646 690 634
f 688 689 685
f 685 682 688
f 637 614 590
f 590 613 637
f 636 637 613
f 613 612 636
f 691 637 636
f 636 688 691
f 692 691 683
f 683 668 692
f 691 688 682
f 682 683 691
f 650 648 633
f 633 632 650
f 630 631 607
f 607 606 630
f 628 629 605
f 605 604 628
f 629 630 606
f 606 605 629
f 631 693 650
f 650 632 631
f 630 694 693
f 693 631 630
f 650 651 649
f 649 648 650
f 651 588 587
f 587 649 651
f 651 698 589
f 589 588 651
f 698 651 650
f 650 693 698
f 698 699 447
f 447 589 698
f 699 698 693
f 693 694 699
f 630 629 695
f 695 694 630
f 699 700 560
f 560 447 699
f 695 700 699
f 699 694 695
f 629 697 695
f 704 702 695
f 695 697 704
f 627 628 604
f 604 603 627
f 696 697 629
f 629 628 696
f 696 701 704
f 704 697 696
f 696 708 681
f 681 701 696
f 708 696 628
f 628 627 708
f 626 627 603
f 603 602 626
f 624 625 601
f 601 600 624
f 625 626 602
f 602 601 625
f 709 680 681
f 681 708 709
f 626 709 708
f 708 627 626
f 710 709 626
f 626 625 710
f 709 710 679
f 679 680 709
f 614 615 591
f 591 590 614
f 692 614 637
f 637 691 692
f 692 712 615
f 615 614 692
f 615 616 592
f 592 591 615
f 712 692 668
f 668 669 712
f 712 713 616
f 616 615 712
f 616 617 593
f 593 592 616
f 713 712 669
f 669 670 713
f 713 714 617
f 617 616 713
f 617 618 594
f 594 593 617
f 714 713 670
f 670 671 714
f 714 715 618
f 618 617 714
f 618 619 595
f 595 594 618
f 715 714 671
f 671 672 715
f 715 716 619
f 619 618 715
f 619 620 596
f 596 595 619
f 716 715 672
f 672 673 716
f 716 717 620
f 620 619 716
f 620 621 597
f 597 596 620
f 717 716 673
f 673 674 717
f 717 718 621
f 621 620 717
f 718 717 674
f 674 675 718
f 621 622 598
f 598 597 621
f 676 719 718
f 718 675 676
f 622 623 599
f 599 598 622
f 623 624 600
f 600 599 623
f 719 622 621
f 621 718 719
f 719 720 623
f 623 622 719
f 711 720 677
f 677 678 711
f 710 711 678
f 678 679 710
f 720 711 624
f 624 623 720
f 711 710 625
f 625 624 711
f 720 719 676
f 676 677 720
f 703 700 695
f 695 702 703
f 565 560 700
f 700 703 565
f 547 496 497
f 497 546 547
f 547 546 545
f 545 544 547
f 503 502 496
f 496 498 503
f 505 503 498
f 498 499 505
f 57 1 505
f 505 499 57
f 726 282 57
f 57 499 726
f 498 496 547
f 547 725 498
f 725 726 499
f 499 498 725
f 543 528 512
f 512 527 543
f 542 543 527
f 527 526 542
f 544 545 542
f 542 526 544
f 725 547 544
f 544 723 725
f 731 526 527
f 527 729 731
f 723 544 526
f 526 731 723
f 724 723 731
f 731 732 724
f 726 725 723
f 723 724 726
f 724 722 282
f 282 726 724
f 732 731 729
f 729 730 732
f 730 292 296
f 296 737 730
f 736 733 732
f 732 730 736
f 730 737 736
f 724 732 733
f 733 734 724
f 724 734 735
f 735 295 722
f 722 724 735
f 734 733 738
f 738 740 734
f 741 738 733
f 733 736 741
f 742 741 736
f 736 737 742
f 737 296 308
f 308 742 737
f 735 734 740
f 740 739 735
f 303 295 735
f 735 739 303
f 744 740 738
f 738 743 744
f 743 738 741
f 741 745 743
f 315 303 739
f 739 747 315
f 747 739 740
f 740 744 747
f 745 741 742
f 742 746 745
f 746 742 308
f 308 311 746
f 513 512 528
f 528 529 513
f 728 289 292
f 292 730 728
f 729 527 512
f 512 727 729
f 727 728 730
f 730 729 727
f 727 512 513
f 513 748 727
f 728 727 748
f 748 749 728
f 749 318 289
f 289 728 749
f 514 513 529
f 529 530 514
f 750 748 513
f 513 514 750
f 530 531 515
f 515 514 530
f 514 515 763
f 763 750 514
f 531 532 516
f 516 515 531
f 515 516 761
f 761 763 515
f 532 533 517
f 517 516 532
f 516 517 760
f 760 761 516
f 750 751 749
f 749 748 750
f 763 764 751
f 751 750 763
f 751 752 318
f 318 749 751
f 764 756 752
f 752 751 764
f 754 755 762
f 762 757 754
f 755 756 764
f 764 762 755
f 762 761 760
f 760 757 762
f 761 762 764
f 764 763 761
f 518 517 533
f 533 534 518
f 759 760 517
f 517 518 759
f 534 535 519
f 519 518 534
f 518 519 775
f 775 759 518
f 535 536 520
f 520 519 535
f 519 520 773
f 773 775 519
f 536 537 521
f 521 520 536
f 520 521 771
f 771 773 520
f 537 538 522
f 522 521 537
f 521 522 770
f 770 771 521
f 753 754 757
f 757 758 753
f 753 758 776
f 776 766 753
f 758 757 760
f 760 759 758
f 758 759 775
f 775 776 758
f 330 331 772
f 772 767 330
f 331 765 774
f 774 772 331
f 765 766 776
f 776 774 765
f 772 771 770
f 770 767 772
f 771 772 774
f 774 773 771
f 773 774 776
f 776 775 773
f 523 522 538
f 538 539 523
f 769 770 522
f 522 523 769
f 539 540 524
f 524 523 539
f 523 524 783
f 783 769 523
f 540 541 525
f 525 524 540
f 524 525 781
f 781 783 524
f 525 541 562
f 562 567 525
f 525 567 780
f 780 781 525
f 567 562 566
f 566 568 567
f 329 330 767
f 767 768 329
f 329 768 784
f 784 353 329
f 768 767 770
f 770 769 768
f 768 769 783
f 783 784 768
f 350 782 777
f 777 342 350
f 782 781 780
f 780 777 782
f 781 782 784
f 784 783 781
f 782 350 353
f 353 784 782
f 664 680 679
f 679 663 664
f 665 681 680
f 680 664 665
f 788 789 665
f 665 664 788
f 705 701 681
f 681 665 705
f 789 791 705
f 705 665 789
f 706 704 701
f 701 705 706
f 362 790 785
f 785 354 362
f 790 789 788
f 788 785 790
f 789 790 792
f 792 791 789
f 790 362 365
f 365 792 790
f 584 565 703
f 703 721 584
f 721 703 702
f 702 707 721
f 707 702 704
f 704 706 707
f 706 705 791
f 791 793 706
f 793 791 792
f 792 794 793
f 794 792 365
f 365 368 794
f 795 721 707
f 707 799 795
f 799 707 706
f 706 793 799
f 800 799 793
f 793 794 800
f 377 800 794
f 794 368 377
f 583 564 565
f 565 584 583
f 569 563 564
f 564 583 569
f 568 566 563
f 563 569 568
f 801 583 584
f 584 797 801
f 797 584 721
f 721 795 797
f 779 780 567
f 567 568 779
f 779 568 569
f 569 803 779
f 803 569 583
f 583 801 803
f 778 777 780
f 780 779 778
f 778 779 803
f 803 802 778
f 802 803 801
f 801 804 802
f 342 777 778
f 778 345 342
f 345 778 802
f 802 379 345
f 379 802 804
f 804 383 379
f 819 818 814
f 823 819 814
f 814 815 823
f 817 385 403
f 403 822 817
f 822 821 817
f 805 814 818
f 818 406 805
f 805 385 817
f 817 816 805
f 816 815 814
f 814 805 816
f 820 823 815
f 815 816 820
f 816 817 821
f 821 820 816
f 822 403 386
f 386 813 822
f 813 386 374
f 798 374 383
f 383 804 798
f 798 811 812
f 812 811 821
f 821 822 812
f 822 813 812
f 796 807 808
f 808 807 819
f 371 384 806
f 806 384 406
f 406 818 806
f 818 819 807
f 807 806 818
f 796 795 799
f 799 800 796
f 800 377 371
f 371 796 800
f 796 371 806
f 806 807 796
f 796 808 809
f 809 808 819
f 819 823 809
f 809 823 820
f 798 797 795
f 795 796 798
f 804 801 797
f 797 798 804
f 812 813 374
f 374 798 812
f 798 796 809
f 809 810 798
f 810 811 798
f 810 809 820
f 821 811 810
f 820 821 810
f 357 354 785
f 785 786 357
f 787 788 664
f 664 663 787
f 786 785 788
f 788 787 786
f 663 679 678
f 678 662 663
f 662 678 677
f 677 661 662
f 828 787 663
f 663 662 828
f 827 410 357
f 357 786 827
f 827 786 787
f 787 828 827
f 828 662 661
f 661 829 828
f 830 827 828
f 828 829 830
f 409 410 827
f 827 830 409
f 667 652 668
f 668 683 667
f 667 683 682
f 682 666 667
f 684 666 682
f 682 685 684
f 687 686 639
f 639 638 687
f 687 684 685
f 685 686 687
f 640 638 643
f 643 644 640
f 641 640 644
f 644 645 641
f 645 2 201
f 201 641 645
f 835 687 638
f 638 640 835
f 836 641 201
f 201 416 836
f 836 835 640
f 640 641 836
f 834 684 687
f 687 835 834
f 837 836 416
f 416 417 837
f 837 834 835
f 835 836 837
f 833 666 684
f 684 834 833
f 838 837 417
f 417 418 838
f 833 834 837
f 837 838 833
f 832 667 666
f 666 833 832
f 839 838 418
f 418 419 839
f 839 832 833
f 833 838 839
f 831 652 667
f 667 832 831
f 669 668 652
f 652 653 669
f 670 669 653
f 653 654 670
f 671 670 654
f 654 655 671
f 672 671 655
f 655 656 672
f 673 672 656
f 656 657 673
f 674 673 657
f 657 658 674
f 675 674 658
f 658 659 675
f 852 659 658
f 658 851 852
f 853 845 826
f 826 825 853
f 853 852 851
f 851 854 853
f 844 845 853
f 853 854 844
f 850 657 656
f 656 849 850
f 851 658 657
f 657 850 851
f 855 843 844
f 844 854 855
f 855 854 851
f 851 850 855
f 849 656 655
f 655 848 849
f 855 850 849
f 849 856 855
f 842 843 855
f 855 856 842
f 848 655 654
f 654 847 848
f 856 849 848
f 848 857 856
f 841 842 856
f 856 857 841
f 431 841 857
f 857 858 431
f 857 848 847
f 847 858 857
f 653 652 831
f 831 846 653
f 847 654 653
f 653 846 847
f 430 431 858
f 858 859 430
f 840 831 832
f 832 839 840
f 859 846 831
f 831 840 859
f 840 839 419
f 419 415 840
f 840 415 430
f 430 859 840
f 859 858 847
f 847 846 859
f 676 675 659
f 659 660 676
f 660 659 852
f 852 824 660
f 661 677 676
f 676 660 661
f 824 829 661
f 661 660 824
f 830 829 824
f 824 825 830
f 825 824 852
f 852 853 825
f 409 830 825
f 825 826 409
f 464 463 462
f 462 461 460
f 460 459 458
f 462 460 458
f 458 457 456
f 456 455 454
f 458 456 454
f 454 453 452
f 452 451 450
f 454 452 450
f 458 454 450
f 450 449 448
f 448 471 470
f 450 448 470
f 470 469 468
f 468 467 466
f 470 468 466
f 450 470 466
f 458 450 466
f 462 458 466
f 464 462 466
f 465 464 466
f 609 610 611
f 611 612 613
f 613 590 591
f 611 613 591
f 591 592 593
f 593 594 595
f 591 593 595
f 595 596 597
f 597 598 599
f 595 597 599
f 591 595 599
f 599 600 601
f 601 602 603
f 599 601 603
f 603 604 605
f 605 606 607
f 603 605 607
f 599 603 607
f 591 599 607
f 611 591 607
f 609 611 607
f 608 609 607
