v -0.050904 0.090606 0.223417
v -0.053418 0.090705 0.182253
v -0.055719 0.090558 0.144719
v -0.057982 0.090632 0.107667
v -0.060377 0.090553 0.068552
v -0.062609 0.090552 0.030185
v -0.063608 0.090819 0.009032
v -0.060791 0.090672 -0.020191
v -0.046098 0.090821 -0.044644
v -0.027657 0.090625 -0.057977
v -0.004821 0.090571 -0.063475
v 0.013861 0.090571 -0.062568
v 0.033367 0.090688 -0.054896
v 0.054972 0.090627 -0.033053
v 0.063690 0.090659 -0.004183
v 0.065713 0.090570 0.019461
v 0.068112 0.090668 0.058020
v 0.070517 0.090629 0.097255
v 0.072893 0.090814 0.136216
v 0.075122 0.090622 0.172559
v 0.077174 0.090608 0.206099
v 0.079195 0.090557 0.239142
v 0.081273 0.090659 0.273966
v 0.081787 0.090567 0.295941
v 0.080032 0.090656 0.316514
v 0.076113 0.090566 0.336733
v 0.063886 0.090545 0.389261
v 0.057627 0.090545 0.408506
v 0.046205 0.090561 0.424628
v 0.027223 0.090558 0.438217
v 0.008054 0.090582 0.443736
v -0.014240 0.090771 0.442057
v -0.032289 0.090597 0.435379
v -0.050011 0.090639 0.420116
v -0.060848 0.090583 0.400541
v -0.064277 0.090567 0.379493
v -0.061276 0.090556 0.359064
v -0.049619 0.090593 0.307860
v -0.047370 0.090548 0.288388
v -0.048821 0.090630 0.257891
v -0.010000 0.120500 0.423183
v -0.025195 0.120500 0.417378
v -0.035718 0.120500 0.407335
v -0.042907 0.120500 0.393985
v -0.045216 0.120500 0.380179
v -0.042789 0.120500 0.363561
v -0.030709 0.120500 0.311824
v -0.025711 0.120500 0.294557
v -0.017936 0.120500 0.282642
v -0.006880 0.120500 0.273858
v 0.007154 0.120500 0.268906
v 0.026491 0.120500 0.269512
v 0.041915 0.120500 0.276400
v 0.051962 0.120500 0.286043
v 0.058675 0.120500 0.299655
v 0.060442 0.120500 0.317073
v 0.057499 0.120500 0.332899
v 0.045415 0.120500 0.384113
v 0.040619 0.120500 0.399592
v 0.032091 0.120500 0.412166
v 0.020849 0.120500 0.420303
v 0.005433 0.120500 0.424621
v 0.046772 0.121000 0.384404
v 0.041772 0.121000 0.400179
v 0.033044 0.121000 0.413181
v 0.021245 0.121000 0.421749
v 0.005417 0.121000 0.426207
v -0.010352 0.121000 0.424856
v -0.025744 0.121000 0.418568
v -0.036641 0.121000 0.408336
v -0.044300 0.121000 0.394561
v -0.046494 0.121000 0.380206
v -0.044004 0.121000 0.363377
v -0.032052 0.121000 0.311517
v -0.027032 0.121000 0.293780
v -0.019007 0.121000 0.281228
v -0.007567 0.121000 0.272171
v 0.006956 0.121000 0.266895
v 0.026681 0.121000 0.268069
v 0.043105 0.121000 0.275037
v 0.053498 0.121000 0.285474
v 0.060148 0.121000 0.299434
v 0.061976 0.121000 0.317095
v 0.059013 0.121000 0.333179
v -0.009649 0.121000 0.421663
v 0.005236 0.121000 0.422567
v 0.020013 0.121000 0.418267
v 0.030739 0.121001 0.410610
v 0.038943 0.121001 0.398897
v 0.043660 0.121000 0.383867
v 0.055901 0.121000 0.332635
v 0.058328 0.121000 0.317238
v 0.056784 0.121001 0.300211
v 0.050287 0.121000 0.287105
v 0.041025 0.121000 0.277890
v 0.026142 0.121000 0.271332
v 0.007309 0.121000 0.270598
v -0.006067 0.121000 0.275491
v -0.016545 0.121001 0.283665
v -0.023985 0.121000 0.295268
v -0.029038 0.121000 0.312422
v -0.040850 0.121000 0.363971
v -0.043385 0.121000 0.380239
v -0.041349 0.121000 0.393535
v -0.034738 0.121000 0.406325
v -0.024513 0.121000 0.415733
v -0.050904 -0.090606 0.223417
v -0.053418 -0.090705 0.182253
v -0.055719 -0.090558 0.144719
v -0.057982 -0.090632 0.107667
v -0.060377 -0.090553 0.068552
v -0.062609 -0.090552 0.030185
v -0.063608 -0.090819 0.009032
v -0.060791 -0.090672 -0.020191
v -0.046098 -0.090821 -0.044644
v -0.027657 -0.090625 -0.057977
v -0.004821 -0.090571 -0.063475
v 0.013861 -0.090571 -0.062568
v 0.033367 -0.090688 -0.054896
v 0.054972 -0.090627 -0.033053
v 0.063690 -0.090659 -0.004183
v 0.065713 -0.090570 0.019461
v 0.068112 -0.090668 0.058020
v 0.070517 -0.090629 0.097255
v 0.072893 -0.090814 0.136216
v 0.075122 -0.090622 0.172559
v 0.077174 -0.090608 0.206099
v 0.079195 -0.090557 0.239142
v 0.081273 -0.090659 0.273966
v 0.081787 -0.090567 0.295941
v 0.080032 -0.090656 0.316514
v 0.076113 -0.090566 0.336733
v 0.063886 -0.090545 0.389261
v 0.057627 -0.090545 0.408506
v 0.046205 -0.090561 0.424628
v 0.027223 -0.090558 0.438217
v 0.008054 -0.090582 0.443736
v -0.014240 -0.090771 0.442057
v -0.032289 -0.090597 0.435379
v -0.050011 -0.090639 0.420116
v -0.060848 -0.090583 0.400541
v -0.064277 -0.090567 0.379493
v -0.061276 -0.090556 0.359064
v -0.049619 -0.090593 0.307860
v -0.047370 -0.090548 0.288388
v -0.048821 -0.090630 0.257891
v -0.010000 -0.120500 0.423183
v -0.025195 -0.120500 0.417378
v -0.035718 -0.120500 0.407335
v -0.042907 -0.120500 0.393985
v -0.045216 -0.120500 0.380179
v -0.042789 -0.120500 0.363561
v -0.030709 -0.120500 0.311824
v -0.025711 -0.120500 0.294557
v -0.017936 -0.120500 0.282642
v -0.006880 -0.120500 0.273858
v 0.007154 -0.120500 0.268906
v 0.026491 -0.120500 0.269512
v 0.041915 -0.120500 0.276400
v 0.051962 -0.120500 0.286043
v 0.058675 -0.120500 0.299655
v 0.060442 -0.120500 0.317073
v 0.057499 -0.120500 0.332899
v 0.045415 -0.120500 0.384113
v 0.040619 -0.120500 0.399592
v 0.032091 -0.120500 0.412166
v 0.020849 -0.120500 0.420303
v 0.005433 -0.120500 0.424621
v 0.046772 -0.121000 0.384404
v 0.041772 -0.121000 0.400179
v 0.033044 -0.121000 0.413181
v 0.021245 -0.121000 0.421749
v 0.005417 -0.121000 0.426207
v -0.010352 -0.121000 0.424856
v -0.025744 -0.121000 0.418568
v -0.036641 -0.121000 0.408336
v -0.044300 -0.121000 0.394561
v -0.046494 -0.121000 0.380206
v -0.044004 -0.121000 0.363377
v -0.032052 -0.121000 0.311517
v -0.027032 -0.121000 0.293780
v -0.019007 -0.121000 0.281228
v -0.007567 -0.121000 0.272171
v 0.006956 -0.121000 0.266895
v 0.026681 -0.121000 0.268069
v 0.043105 -0.121000 0.275037
v 0.053498 -0.121000 0.285474
v 0.060148 -0.121000 0.299434
v 0.061976 -0.121000 0.317095
v 0.059013 -0.121000 0.333179
v -0.009649 -0.121000 0.421663
v 0.005236 -0.121000 0.422567
v 0.020013 -0.121000 0.418267
v 0.030739 -0.121001 0.410610
v 0.038943 -0.121001 0.398897
v 0.043660 -0.121000 0.383867
v 0.055901 -0.121000 0.332635
v 0.058328 -0.121000 0.317238
v 0.056784 -0.121001 0.300211
v 0.050287 -0.121000 0.287105
v 0.041025 -0.121000 0.277890
v 0.026142 -0.121000 0.271332
v 0.007309 -0.121000 0.270598
v -0.006067 -0.121000 0.275491
v -0.016545 -0.121001 0.283665
v -0.023985 -0.121000 0.295268
v -0.029038 -0.121000 0.312422
v -0.040850 -0.121000 0.363971
v -0.043385 -0.121000 0.380239
v -0.041349 -0.121000 0.393535
v -0.034738 -0.121000 0.406325
v -0.024513 -0.121000 0.415733
f 21 1 2
f 21 2 20
f 16 6 7
f 16 7 15
f 17 5 6
f 17 6 16
f 18 4 5
f 18 5 17
f 19 3 4
f 19 4 18
f 20 2 3
f 20 3 19
f 22 40 1
f 22 1 21
f 37 26 27
f 26 37 38
f 38 25 26
f 39 25 38
f 36 27 28
f 27 36 37
f 15 7 8
f 15 8 14
f 9 14 8
f 14 9 13
f 9 12 13
f 12 9 10
f 10 11 12
f 35 28 29
f 28 35 36
f 34 29 30
f 29 34 35
f 33 30 31
f 30 33 34
f 31 32 33
f 22 23 40
f 39 23 24
f 23 39 40
f 24 25 39
f 41 67 62
f 67 41 68
f 62 66 61
f 66 62 67
f 65 61 66
f 61 65 60
f 69 41 42
f 41 69 68
f 42 70 69
f 70 42 43
f 71 70 43
f 71 43 44
f 44 45 72
f 72 71 44
f 45 46 73
f 73 72 45
f 46 47 74
f 74 73 46
f 48 74 47
f 74 48 75
f 49 75 48
f 75 49 76
f 50 76 49
f 76 50 77
f 77 51 78
f 51 77 50
f 79 78 51
f 79 51 52
f 53 79 52
f 79 53 80
f 54 80 53
f 80 54 81
f 55 81 54
f 81 55 82
f 56 82 55
f 82 56 83
f 56 84 83
f 84 56 57
f 57 63 84
f 63 57 58
f 63 59 64
f 59 63 58
f 64 60 65
f 60 64 59
f 91 58 57
f 58 91 90
f 47 46 101
f 101 46 102
f 57 56 92
f 92 91 57
f 100 47 101
f 47 100 48
f 56 55 93
f 93 92 56
f 100 99 49
f 100 49 48
f 93 54 94
f 54 93 55
f 50 99 98
f 99 50 49
f 54 95 94
f 95 54 53
f 96 95 53
f 53 52 96
f 51 96 52
f 96 51 97
f 50 97 51
f 97 50 98
f 90 59 58
f 59 90 89
f 46 103 102
f 103 46 45
f 59 88 60
f 88 59 89
f 44 103 45
f 103 44 104
f 87 60 88
f 60 87 61
f 44 43 105
f 44 105 104
f 86 85 41
f 86 41 62
f 86 61 87
f 61 86 62
f 43 42 106
f 106 105 43
f 42 85 106
f 85 42 41
f 107 127 108
f 126 108 127
f 113 122 121
f 122 113 112
f 112 123 122
f 123 112 111
f 111 124 123
f 124 111 110
f 110 125 124
f 125 110 109
f 109 126 125
f 126 109 108
f 146 128 107
f 127 107 128
f 132 143 133
f 143 132 144
f 144 132 131
f 131 145 144
f 142 133 143
f 133 142 134
f 121 114 113
f 114 121 120
f 120 115 114
f 115 120 119
f 115 118 116
f 118 115 119
f 116 118 117
f 141 134 142
f 134 141 135
f 140 135 141
f 135 140 136
f 139 136 140
f 136 139 137
f 137 139 138
f 128 146 129
f 129 146 145
f 129 145 130
f 130 145 131
f 173 147 168
f 147 173 174
f 172 168 167
f 168 172 173
f 171 167 166
f 167 171 172
f 148 147 175
f 174 175 147
f 148 176 149
f 176 148 175
f 149 177 150
f 177 149 176
f 177 178 150
f 150 178 151
f 152 151 179
f 178 179 151
f 153 152 180
f 179 180 152
f 154 180 181
f 180 154 153
f 155 181 182
f 181 155 154
f 156 182 183
f 182 156 155
f 157 183 184
f 183 157 156
f 157 185 158
f 185 157 184
f 185 159 158
f 159 185 186
f 160 186 187
f 186 160 159
f 161 187 188
f 187 161 160
f 162 188 189
f 188 162 161
f 162 190 163
f 190 162 189
f 163 169 164
f 169 163 190
f 165 169 170
f 169 165 164
f 170 166 165
f 166 170 171
f 197 164 196
f 164 197 163
f 152 153 207
f 152 207 208
f 162 163 198
f 197 198 163
f 206 153 154
f 153 206 207
f 198 199 162
f 162 199 161
f 205 206 155
f 154 155 206
f 160 199 200
f 199 160 161
f 205 156 204
f 155 156 205
f 159 160 201
f 201 160 200
f 158 159 202
f 202 159 201
f 157 202 203
f 202 157 158
f 203 156 157
f 156 203 204
f 196 165 195
f 165 196 164
f 151 152 209
f 209 152 208
f 165 194 195
f 194 165 166
f 150 209 210
f 209 150 151
f 166 193 194
f 193 166 167
f 149 150 211
f 211 150 210
f 147 192 168
f 192 147 191
f 192 167 168
f 167 192 193
f 148 149 212
f 211 212 149
f 212 191 148
f 147 148 191
