v 0.029953 0.000000 0.001250
v 0.025940 -0.014976 0.001250
v 0.014976 -0.025940 0.001250
v 0.000000 -0.029953 0.001250
v -0.014976 -0.025940 0.001250
v -0.025940 -0.014976 0.001250
v -0.029953 -0.000000 0.001250
v -0.025940 0.014976 0.001250
v -0.014976 0.025940 0.001250
v -0.000000 0.029953 0.001250
v 0.014976 0.025940 0.001250
v 0.025940 0.014976 0.001250
v 0.029953 0.000000 -0.061750
v 0.025940 -0.014976 -0.061750
v 0.014976 -0.025940 -0.061750
v -0.000000 -0.029953 -0.061750
v -0.014976 -0.025940 -0.061750
v -0.025940 -0.014976 -0.061750
v -0.029953 -0.000000 -0.061750
v -0.028932 0.007752 -0.061750
v 0.028932 0.007752 -0.061750
v 0.029953 0.000000 -0.035838
v 0.025940 -0.014976 -0.035838
v 0.014976 -0.025940 -0.035838
v -0.000000 -0.029953 -0.035838
v -0.014976 -0.025940 -0.035838
v -0.025940 -0.014976 -0.035838
v -0.029953 -0.000000 -0.035838
v -0.028932 0.007752 -0.035838
v -0.025940 0.014976 -0.035838
v -0.014976 0.025940 -0.035838
v -0.000000 0.029953 -0.035838
v 0.014976 0.025940 -0.035838
v 0.025940 0.014976 -0.035838
v 0.028932 0.007752 -0.035838
v -0.021356 0.061984 -0.137753
v 0.021356 0.061984 -0.137753
v 0.021356 0.039517 -0.137753
v -0.021356 0.039517 -0.137753
v -0.028562 0.056459 -0.057217
v -0.028932 0.041984 -0.044453
v -0.027450 0.061984 -0.081161
v 0.028562 0.056459 -0.057217
v 0.027450 0.061984 -0.081161
v 0.028932 0.041984 -0.044453
v 0.028436 0.034509 -0.072077
v 0.028932 0.019517 -0.061750
v 0.026949 0.039517 -0.081651
v -0.028436 0.034509 -0.072077
v -0.026949 0.039517 -0.081651
v -0.028932 0.019517 -0.061750
f 2 23 22
f 22 1 2
f 3 24 23
f 23 2 3
f 4 25 24
f 24 3 4
f 5 26 25
f 25 4 5
f 6 27 26
f 26 5 6
f 7 28 27
f 27 6 7
f 8 30 29
f 8 29 28
f 7 8 28
f 9 31 30
f 30 8 9
f 10 32 31
f 31 9 10
f 11 33 32
f 32 10 11
f 12 34 33
f 33 11 12
f 1 22 35
f 1 35 34
f 12 1 34
f 14 13 22
f 22 23 14
f 15 14 23
f 23 24 15
f 16 15 24
f 24 25 16
f 17 16 25
f 25 26 17
f 18 17 26
f 26 27 18
f 19 18 27
f 27 28 19
f 20 19 28
f 28 29 20
f 13 21 35
f 35 22 13
f 29 41 51
f 51 20 29
f 31 32 41
f 30 31 41
f 29 30 41
f 35 21 47
f 47 45 35
f 20 51 47
f 47 21 20
f 39 36 37
f 37 38 39
f 44 37 36
f 36 42 44
f 48 38 37
f 37 44 48
f 50 39 38
f 38 48 50
f 50 42 36
f 36 39 50
f 15 16 17
f 17 18 19
f 15 17 19
f 19 20 21
f 15 19 21
f 15 21 13
f 14 15 13
f 51 41 40
f 40 49 51
f 41 45 43
f 43 40 41
f 45 47 46
f 46 43 45
f 47 51 49
f 49 46 47
f 44 42 40
f 40 43 44
f 48 44 43
f 43 46 48
f 50 48 46
f 46 49 50
f 42 50 49
f 49 40 42
f 34 35 45
f 33 34 45
f 32 33 45
f 32 45 41
f 12 11 10
f 10 9 8
f 8 7 6
f 10 8 6
f 6 5 4
f 4 3 2
f 6 4 2
f 10 6 2
f 12 10 2
f 1 12 2
