v -0.064043 0.000224 -0.028149
v -0.064043 0.014166 -0.024413
v -0.064043 0.024373 -0.014206
v -0.064043 0.028109 -0.000264
v -0.064043 0.024373 0.013678
v -0.064043 0.014166 0.023885
v -0.064043 0.000224 0.027621
v -0.064043 -0.013718 0.023885
v -0.064043 -0.023925 0.013678
v -0.064043 -0.027661 -0.000264
v -0.064043 -0.023925 -0.014206
v -0.064043 -0.013718 -0.024413
v 0.000250 0.000224 -0.028149
v 0.000250 0.014166 -0.024413
v 0.000250 0.024373 -0.014206
v 0.000250 0.028109 -0.000264
v 0.000250 0.024373 0.013678
v 0.000250 0.014166 0.023885
v 0.000250 0.000224 0.027621
v 0.000250 -0.013718 0.023885
v 0.000250 -0.023925 0.013678
v 0.000250 -0.027661 -0.000264
v 0.000250 -0.023925 -0.014206
v 0.000250 -0.013718 -0.024413
f 11 10 9
f 9 8 7
f 7 6 5
f 9 7 5
f 5 4 3
f 3 2 1
f 5 3 1
f 9 5 1
f 11 9 1
f 12 11 1
f 1 2 14
f 14 13 1
f 2 3 15
f 15 14 2
f 3 4 16
f 16 15 3
f 4 5 17
f 17 16 4
f 5 6 18
f 18 17 5
f 6 7 19
f 19 18 6
f 7 8 20
f 20 19 7
f 8 9 21
f 21 20 8
f 9 10 22
f 22 21 9
f 10 11 23
f 23 22 10
f 11 12 24
f 24 23 11
f 12 1 13
f 13 24 12
f 13 14 15
f 15 16 17
f 17 18 19
f 15 17 19
f 19 20 21
f 21 22 23
f 19 21 23
f 15 19 23
f 13 15 23
f 24 13 23
