v -0.060145 0.000000 0.010540
v -0.058866 0.000000 0.005868
v -0.059875 -0.010295 0.010678
v -0.059875 0.010295 0.010678
v -0.057882 -0.024909 0.010446
v -0.057742 0.024876 0.010411
v -0.053579 -0.037504 0.010204
v -0.053342 0.037395 0.010242
v -0.046365 -0.049471 0.009876
v -0.046058 0.049226 0.009829
v -0.036975 -0.058903 0.009350
v -0.036683 0.058519 0.009297
v -0.026021 -0.065685 0.008807
v -0.026021 0.065685 0.008807
v -0.018282 -0.068853 0.008299
v -0.018120 0.068368 0.008176
v -0.006999 -0.071988 0.007613
v -0.006894 0.071441 0.007568
v 0.002459 -0.073472 0.006988
v 0.002487 0.072901 0.006959
v 0.003610 -0.073353 0.005910
v 0.003669 0.072844 0.006017
v 0.003937 -0.073060 0.004334
v 0.003937 0.073060 0.004334
v 0.003381 -0.072732 0.002880
v 0.003381 0.072732 0.002880
v 0.001834 -0.072424 0.002350
v 0.001910 0.071869 0.002349
v -0.004140 -0.071548 0.002689
v -0.004065 0.071015 0.002651
v -0.016851 -0.068490 0.003571
v -0.016693 0.067982 0.003516
v -0.027470 -0.064204 0.004072
v -0.027244 0.063765 0.004035
v -0.036916 -0.058149 0.004619
v -0.036655 0.057796 0.004580
v -0.045824 -0.048893 0.005005
v -0.045582 0.048700 0.004818
v -0.052664 -0.036920 0.005401
v -0.052501 0.036852 0.005394
v -0.056533 -0.025207 0.005640
v -0.056422 0.025182 0.005639
v -0.058458 -0.012594 0.005765
v -0.058412 0.012590 0.005765
f 3 1 2
f 2 43 3
f 19 17 29
f 19 29 27
f 31 17 15
f 17 31 29
f 33 31 15
f 33 15 13
f 11 33 13
f 33 11 35
f 44 2 4
f 1 4 2
f 5 3 43
f 5 43 41
f 5 39 7
f 39 5 41
f 7 37 9
f 37 7 39
f 9 35 11
f 35 9 37
f 42 44 6
f 4 6 44
f 40 6 8
f 6 40 42
f 38 8 10
f 8 38 40
f 36 10 12
f 10 36 38
f 34 12 14
f 12 34 36
f 16 34 14
f 34 16 32
f 18 32 16
f 32 18 30
f 18 20 30
f 20 28 30
f 28 20 22
f 28 22 26
f 22 24 26
f 19 27 21
f 21 27 25
f 25 23 21
