v 0.020510 0.000224 -0.144603
v 0.017797 0.010347 -0.144603
v 0.010387 0.017757 -0.144603
v 0.000264 0.020470 -0.144603
v -0.009859 0.017757 -0.144603
v -0.017269 0.010347 -0.144603
v -0.019982 0.000224 -0.144603
v -0.017269 -0.009899 -0.144603
v -0.009859 -0.017309 -0.144603
v 0.000264 -0.020022 -0.144603
v 0.010387 -0.017309 -0.144603
v 0.017797 -0.009899 -0.144603
v 0.020510 0.000224 0.009894
v 0.017797 0.010347 0.009894
v 0.010387 0.017757 0.009894
v 0.000264 0.020470 0.009894
v -0.009859 0.017757 0.009894
v -0.017269 0.010347 0.009894
v -0.019982 0.000224 0.009894
v -0.017269 -0.009899 0.009894
v -0.009859 -0.017309 0.009894
v 0.000264 -0.020022 0.009894
v 0.010387 -0.017309 0.009894
v 0.017797 -0.009899 0.009894
f 11 10 9
f 9 8 7
f 7 6 5
f 9 7 5
f 5 4 3
f 3 2 1
f 5 3 1
f 9 5 1
f 11 9 1
f 12 11 1
f 1 2 14
f 14 13 1
f 2 3 15
f 15 14 2
f 3 4 16
f 16 15 3
f 4 5 17
f 17 16 4
f 5 6 18
f 18 17 5
f 6 7 19
f 19 18 6
f 7 8 20
f 20 19 7
f 8 9 21
f 21 20 8
f 9 10 22
f 22 21 9
f 10 11 23
f 23 22 10
f 11 12 24
f 24 23 11
f 12 1 13
f 13 24 12
f 13 14 15
f 15 16 17
f 17 18 19
f 15 17 19
f 19 20 21
f 21 22 23
f 19 21 23
f 15 19 23
f 13 15 23
f 24 13 23
