# Blender 4.0.2
# www.blender.org
o nanoscan_3__m3
v -0.036084 0.047800 0.001923
v -0.036379 0.047800 0.002135
v -0.036612 0.047800 0.002413
v -0.036769 0.047800 0.002740
v -0.036839 0.047800 0.003096
v -0.036817 0.047800 0.003459
v -0.036707 0.047800 0.003804
v -0.036513 0.047800 0.004111
v -0.036249 0.047800 0.004361
v -0.035931 0.047800 0.004536
v -0.035579 0.047800 0.004626
v -0.035216 0.047800 0.004626
v -0.034865 0.047800 0.004536
v -0.034547 0.047800 0.004361
v -0.034283 0.047800 0.004111
v -0.034089 0.047800 0.003804
v -0.033979 0.047800 0.003459
v -0.033957 0.047800 0.003096
v -0.034027 0.047800 0.002740
v -0.034184 0.047800 0.002413
v -0.034417 0.047800 0.002134
v -0.034712 0.047800 0.001923
v -0.035028 0.047800 0.002509
v -0.034869 0.047800 0.002623
v -0.034743 0.047800 0.002773
v -0.034659 0.047800 0.002949
v -0.034621 0.047800 0.003141
v -0.034633 0.047800 0.003337
v -0.034692 0.047800 0.003523
v -0.034797 0.047800 0.003689
v -0.034939 0.047800 0.003823
v -0.035111 0.047800 0.003917
v -0.035300 0.047800 0.003966
v -0.035496 0.047800 0.003966
v -0.035685 0.047800 0.003917
v -0.035857 0.047800 0.003823
v -0.035999 0.047800 0.003689
v -0.036103 0.047800 0.003523
v -0.036163 0.047800 0.003337
v -0.036175 0.047800 0.003141
v -0.036137 0.047800 0.002949
v -0.036053 0.047800 0.002773
v -0.035927 0.047800 0.002623
v -0.035768 0.047800 0.002509
v -0.036800 0.047800 0.006620
v -0.036800 0.047800 0.007527
v -0.036775 0.047800 0.007735
v -0.036701 0.047800 0.007931
v -0.036582 0.047800 0.008104
v -0.036425 0.047800 0.008242
v -0.036240 0.047800 0.008340
v -0.036037 0.047800 0.008390
v -0.035827 0.047800 0.008390
v -0.035624 0.047800 0.008340
v -0.035438 0.047800 0.008242
v -0.035282 0.047800 0.008104
v -0.035163 0.047800 0.007931
v -0.035089 0.047800 0.007735
v -0.035064 0.047800 0.007527
v -0.035064 0.047800 0.006729
v -0.035058 0.047800 0.006681
v -0.035040 0.047800 0.006635
v -0.035013 0.047800 0.006595
v -0.034976 0.047800 0.006563
v -0.034933 0.047800 0.006540
v -0.034885 0.047800 0.006528
v -0.034837 0.047800 0.006528
v -0.034789 0.047800 0.006540
v -0.034746 0.047800 0.006563
v -0.034710 0.047800 0.006595
v -0.034682 0.047800 0.006635
v -0.034665 0.047800 0.006681
v -0.034659 0.047800 0.006729
v -0.034659 0.047800 0.008376
v -0.034486 0.047800 0.008354
v -0.034326 0.047800 0.008287
v -0.034188 0.047800 0.008181
v -0.034082 0.047800 0.008043
v -0.034016 0.047800 0.007883
v -0.033993 0.047800 0.007710
v -0.033993 0.047800 0.006730
v -0.034018 0.047800 0.006522
v -0.034092 0.047800 0.006326
v -0.034211 0.047800 0.006154
v -0.034368 0.047800 0.006015
v -0.034553 0.047800 0.005918
v -0.034756 0.047800 0.005867
v -0.034966 0.047800 0.005867
v -0.035169 0.047800 0.005918
v -0.035355 0.047800 0.006015
v -0.035511 0.047800 0.006154
v -0.035630 0.047800 0.006326
v -0.035704 0.047800 0.006522
v -0.035729 0.047800 0.006730
v -0.035729 0.047800 0.007528
v -0.035735 0.047800 0.007577
v -0.035753 0.047800 0.007622
v -0.035780 0.047800 0.007662
v -0.035817 0.047800 0.007695
v -0.035860 0.047800 0.007717
v -0.035907 0.047800 0.007729
v -0.035956 0.047800 0.007729
v -0.036004 0.047800 0.007717
v -0.036047 0.047800 0.007695
v -0.036083 0.047800 0.007662
v -0.036111 0.047800 0.007622
v -0.036128 0.047800 0.007577
v -0.036134 0.047800 0.007528
v -0.036134 0.047800 0.005954
v -0.036307 0.047800 0.005977
v -0.036467 0.047800 0.006043
v -0.036605 0.047800 0.006149
v -0.036711 0.047800 0.006287
v -0.036777 0.047800 0.006448
v -0.036800 0.047800 -0.000820
v -0.036800 0.047800 0.000007
v -0.035691 0.047800 0.000716
v -0.035691 0.047800 0.000982
v -0.036800 0.047800 0.000982
v -0.036800 0.047800 0.001654
v -0.033993 0.047800 0.001654
v -0.033993 0.047800 0.000982
v -0.035096 0.047800 0.000982
v -0.035096 0.047800 0.000716
v -0.033993 0.047800 0.000007
v -0.033993 0.047800 -0.000820
v -0.035395 0.047800 0.000129
v -0.023641 0.047800 0.012756
v -0.023772 0.047800 0.011634
v -0.024159 0.047800 0.010572
v -0.024780 0.047800 0.009628
v -0.025602 0.047800 0.008853
v -0.026580 0.047800 0.008288
v -0.027663 0.047800 0.007964
v -0.028791 0.047800 0.007898
v -0.029904 0.047800 0.008094
v -0.030941 0.047800 0.008542
v -0.031847 0.047800 0.009217
v -0.032574 0.047800 0.010082
v -0.033081 0.047800 0.011092
v -0.033342 0.047800 0.012191
v -0.033342 0.047800 0.013321
v -0.033081 0.047800 0.014421
v -0.032574 0.047800 0.015431
v -0.031847 0.047800 0.016296
v -0.030941 0.047800 0.016971
v -0.029904 0.047800 0.017419
v -0.028791 0.047800 0.017615
v -0.027663 0.047800 0.017549
v -0.026580 0.047800 0.017225
v -0.025602 0.047800 0.016660
v -0.024780 0.047800 0.015885
v -0.024159 0.047800 0.014941
v -0.023772 0.047800 0.013879
v -0.033108 0.047800 0.012756
v -0.032974 0.047800 0.011656
v -0.032581 0.047800 0.010619
v -0.031951 0.047800 0.009706
v -0.031121 0.047800 0.008971
v -0.030139 0.047800 0.008455
v -0.029062 0.047800 0.008190
v -0.027953 0.047800 0.008190
v -0.026877 0.047800 0.008455
v -0.025895 0.047800 0.008971
v -0.025065 0.047800 0.009706
v -0.024435 0.047800 0.010619
v -0.024041 0.047800 0.011656
v -0.023908 0.047800 0.012756
v -0.024041 0.047800 0.013857
v -0.024435 0.047800 0.014894
v -0.025065 0.047800 0.015807
v -0.025895 0.047800 0.016542
v -0.026877 0.047800 0.017057
v -0.027953 0.047800 0.017323
v -0.029062 0.047800 0.017323
v -0.030139 0.047800 0.017057
v -0.031121 0.047800 0.016542
v -0.031951 0.047800 0.015807
v -0.032581 0.047800 0.014894
v -0.032974 0.047800 0.013857
v -0.036800 0.047800 0.004925
v -0.036800 0.047800 0.005602
v -0.033993 0.047800 0.005602
v -0.033993 0.047800 0.004925
vn -0.0000 1.0000 -0.0000
vn -0.0000 1.0000 -0.0001
vn -0.0000 1.0000 0.0001
s 0
f 1//1 2//1 44//1
f 44//1 2//1 43//1
f 43//1 2//1 3//1
f 43//1 3//1 42//1
f 42//1 3//1 4//1
f 42//1 4//1 41//1
f 41//1 4//1 5//1
f 41//1 5//1 40//1
f 40//1 5//1 39//1
f 39//1 5//1 6//1
f 39//1 6//1 38//1
f 38//1 6//1 7//1
f 38//1 7//1 37//1
f 37//1 7//1 8//1
f 37//1 8//1 36//1
f 36//1 8//1 9//1
f 36//1 9//1 35//1
f 35//1 9//1 10//1
f 35//1 10//1 34//1
f 34//1 10//1 11//1
f 34//1 11//1 33//1
f 33//1 11//1 12//1
f 33//1 12//1 13//1
f 33//1 13//1 32//1
f 32//1 13//1 14//1
f 32//1 14//1 31//1
f 31//1 14//1 15//1
f 31//1 15//1 30//1
f 30//1 15//1 16//1
f 30//1 16//1 29//1
f 29//1 16//1 17//1
f 29//1 17//1 28//1
f 28//1 17//1 18//1
f 28//1 18//1 27//1
f 27//1 18//1 26//1
f 26//1 18//1 19//1
f 26//1 19//1 25//1
f 25//1 19//1 20//1
f 25//1 20//1 24//1
f 24//1 20//1 21//1
f 24//1 21//1 23//1
f 23//1 21//1 22//1
f 114//1 45//1 108//1
f 108//1 45//1 46//1
f 108//1 46//1 47//1
f 48//1 106//1 47//1
f 47//1 106//1 107//1
f 47//2 107//2 108//2
f 106//1 48//1 105//1
f 105//1 48//1 49//1
f 105//2 49//2 104//2
f 104//1 49//1 50//1
f 104//1 50//1 103//1
f 103//1 50//1 51//1
f 103//1 51//1 102//1
f 102//1 51//1 52//1
f 102//1 52//1 53//1
f 102//1 53//1 101//1
f 101//1 53//1 54//1
f 101//1 54//1 100//1
f 100//1 54//1 55//1
f 100//2 55//2 99//2
f 99//1 55//1 56//1
f 99//1 56//1 98//1
f 98//1 56//1 57//1
f 98//1 57//1 97//1
f 97//1 57//1 58//1
f 97//1 58//1 96//1
f 96//1 58//1 95//1
f 95//1 58//1 59//1
f 95//1 59//1 94//1
f 94//1 59//1 60//1
f 94//1 60//1 93//1
f 93//3 60//3 61//3
f 93//1 61//1 62//1
f 93//1 62//1 92//1
f 92//1 62//1 63//1
f 92//1 63//1 91//1
f 91//2 63//2 64//2
f 91//1 64//1 90//1
f 90//1 64//1 65//1
f 90//1 65//1 89//1
f 89//1 65//1 66//1
f 89//1 66//1 88//1
f 88//1 66//1 67//1
f 88//1 67//1 87//1
f 87//1 67//1 86//1
f 86//1 67//1 68//1
f 86//1 68//1 85//1
f 85//1 68//1 69//1
f 85//1 69//1 84//1
f 84//2 69//2 70//2
f 84//1 70//1 83//1
f 83//1 70//1 71//1
f 83//1 71//1 82//1
f 82//1 71//1 72//1
f 82//3 72//3 73//3
f 74//1 80//1 73//1
f 73//1 80//1 81//1
f 73//1 81//1 82//1
f 75//1 76//1 74//1
f 74//3 76//3 77//3
f 74//1 77//1 78//1
f 78//1 79//1 74//1
f 74//1 79//1 80//1
f 109//1 110//1 108//1
f 108//1 110//1 111//1
f 108//1 111//1 112//1
f 112//1 113//1 108//1
f 108//1 113//1 114//1
f 115//1 116//1 127//1
f 127//1 116//1 117//1
f 127//1 117//1 124//1
f 124//1 117//1 123//1
f 123//1 117//1 118//1
f 123//1 118//1 121//1
f 121//1 118//1 120//1
f 120//1 118//1 119//1
f 121//1 122//1 123//1
f 124//1 125//1 127//1
f 127//1 125//1 126//1
f 154//1 128//1 168//1
f 168//1 128//1 129//1
f 168//1 129//1 167//1
f 167//1 129//1 130//1
f 167//1 130//1 166//1
f 166//1 130//1 131//1
f 166//1 131//1 165//1
f 165//1 131//1 132//1
f 165//1 132//1 164//1
f 164//1 132//1 133//1
f 164//1 133//1 163//1
f 163//1 133//1 134//1
f 163//1 134//1 162//1
f 162//1 134//1 135//1
f 162//1 135//1 161//1
f 161//1 135//1 136//1
f 161//1 136//1 160//1
f 160//1 136//1 137//1
f 160//1 137//1 159//1
f 159//1 137//1 138//1
f 159//1 138//1 158//1
f 158//1 138//1 139//1
f 158//1 139//1 157//1
f 157//1 139//1 140//1
f 157//1 140//1 156//1
f 156//1 140//1 141//1
f 156//1 141//1 155//1
f 155//1 141//1 142//1
f 155//1 142//1 180//1
f 180//1 142//1 143//1
f 180//1 143//1 179//1
f 179//1 143//1 144//1
f 179//1 144//1 178//1
f 178//1 144//1 145//1
f 178//1 145//1 177//1
f 177//1 145//1 146//1
f 177//1 146//1 176//1
f 176//1 146//1 147//1
f 176//1 147//1 175//1
f 175//1 147//1 148//1
f 175//1 148//1 174//1
f 174//1 148//1 149//1
f 174//1 149//1 173//1
f 173//1 149//1 150//1
f 173//1 150//1 172//1
f 172//1 150//1 151//1
f 172//1 151//1 171//1
f 171//1 151//1 152//1
f 171//1 152//1 170//1
f 170//1 152//1 153//1
f 170//1 153//1 169//1
f 169//1 153//1 154//1
f 169//1 154//1 168//1
f 182//1 183//1 181//1
f 181//1 183//1 184//1
