# Blender 4.0.2
# www.blender.org
o nanoscan_3__m4
v 0.040897 -0.052107 -0.003621
v 0.042570 -0.051664 -0.003621
v 0.044158 -0.050976 -0.003621
v 0.045624 -0.050057 -0.003621
v 0.046935 -0.048928 -0.003621
v 0.048063 -0.047616 -0.003621
v 0.048980 -0.046149 -0.003621
v 0.049668 -0.044561 -0.003621
v 0.050109 -0.042888 -0.003621
v -0.033527 -0.052288 -0.003621
v -0.033361 -0.052100 -0.003621
v -0.033154 -0.051959 -0.003621
v -0.032919 -0.051874 -0.003621
v -0.032670 -0.051850 -0.003621
v -0.032422 -0.051889 -0.003621
v -0.032193 -0.051988 -0.003621
v -0.031994 -0.052141 -0.003621
v 0.031994 -0.052141 -0.003621
v 0.032193 -0.051988 -0.003621
v 0.032422 -0.051889 -0.003621
v 0.032670 -0.051850 -0.003621
v 0.032919 -0.051874 -0.003621
v 0.033154 -0.051959 -0.003621
v 0.033361 -0.052100 -0.003621
v 0.033527 -0.052288 -0.003621
v 0.040898 0.048107 -0.003621
v 0.050109 0.038888 -0.003621
v 0.049668 0.040561 -0.003621
v 0.048980 0.042149 -0.003621
v 0.048063 0.043616 -0.003621
v 0.046935 0.044928 -0.003621
v 0.045624 0.046057 -0.003621
v 0.044158 0.046976 -0.003621
v 0.042570 0.047664 -0.003621
v 0.049118 0.041908 -0.010321
v 0.049118 0.041908 -0.006520
v 0.043878 0.047133 -0.006520
v 0.043878 0.047133 -0.010320
v 0.042574 0.047672 -0.003621
v 0.044166 0.046988 -0.003621
v 0.045635 0.046071 -0.003621
v 0.046949 0.044942 -0.003621
v 0.048077 0.043627 -0.003621
v 0.048992 0.042157 -0.003621
v 0.049675 0.040565 -0.003621
v 0.041384 0.044639 -0.010320
v 0.046620 0.039410 -0.010321
v 0.049118 0.041908 -0.010321
v 0.041384 0.044639 -0.006520
v 0.049118 0.041908 -0.006520
v 0.046620 0.039410 -0.006520
v 0.049675 -0.044565 -0.003621
v 0.048992 -0.046157 -0.003621
v 0.048077 -0.047627 -0.003621
v 0.046949 -0.048942 -0.003621
v 0.045635 -0.050071 -0.003621
v 0.044166 -0.050988 -0.003621
v 0.042574 -0.051672 -0.003621
vn 0.7071 -0.7071 -0.0000
vn -0.6397 0.7686 -0.0000
vn -0.7071 0.7071 -0.0000
vn -0.0000 -0.0000 1.0000
vn 0.0001 -0.0000 1.0000
s 0
f 37//1 49//1 38//1
f 38//1 49//1 46//1
f 48//2 50//2 35//2
f 35//2 50//2 36//2
f 48//3 47//3 50//3
f 50//3 47//3 51//3
f 9//4 8//4 52//4
f 52//4 8//4 7//4
f 52//4 7//4 53//4
f 53//4 7//4 6//4
f 53//4 6//4 54//4
f 54//4 6//4 5//4
f 54//4 5//4 55//4
f 55//4 5//4 56//4
f 56//4 5//4 4//4
f 56//4 4//4 57//4
f 57//4 4//4 3//4
f 57//4 3//4 58//4
f 58//4 3//4 2//4
f 58//4 2//4 1//4
f 24//4 18//4 25//4
f 25//4 18//4 17//4
f 25//4 17//4 10//4
f 10//4 17//4 11//4
f 11//4 17//4 16//4
f 11//4 16//4 12//4
f 12//4 16//4 15//4
f 12//4 15//4 13//4
f 13//4 15//4 14//4
f 18//4 24//4 19//4
f 19//4 24//4 23//4
f 19//4 23//4 20//4
f 20//4 23//4 22//4
f 20//4 22//4 21//4
f 26//4 34//4 39//4
f 39//4 34//4 33//4
f 39//4 33//4 40//4
f 40//4 33//4 32//4
f 40//4 32//4 41//4
f 41//4 32//4 31//4
f 41//4 31//4 42//4
f 42//4 31//4 43//4
f 43//4 31//4 30//4
f 43//4 30//4 44//4
f 44//4 30//4 29//4
f 44//4 29//4 45//4
f 45//5 29//5 28//5
f 45//4 28//4 27//4
