# Blender 4.0.2
# www.blender.org
o nanoscan_3__m1
v -0.046356 0.039667 0.028881
v -0.045673 0.039142 0.028881
v -0.044877 0.038812 0.028881
v -0.044023 0.038700 0.028881
v -0.043168 0.038812 0.028881
v -0.042373 0.039142 0.028881
v -0.041689 0.039667 0.028881
v -0.041165 0.040350 0.028881
v -0.040835 0.041146 0.028881
v -0.040723 0.042000 0.028881
v -0.040835 0.042854 0.028881
v -0.041165 0.043650 0.028881
v -0.041689 0.044333 0.028881
v -0.041689 0.044333 0.026281
v -0.041165 0.043650 0.026281
v -0.040835 0.042854 0.026281
v -0.040723 0.042000 0.026281
v -0.040835 0.041146 0.026281
v -0.041165 0.040350 0.026281
v -0.041689 0.039667 0.026281
v -0.042373 0.039142 0.026281
v -0.043168 0.038812 0.026281
v -0.044023 0.038700 0.026281
v -0.044877 0.038812 0.026281
v -0.045673 0.039142 0.026281
v -0.046356 0.039667 0.026281
v 0.048969 0.042325 0.028881
v 0.048969 0.042325 0.026281
v 0.046311 0.039667 0.026281
v 0.046311 0.039667 0.028881
v 0.044296 -0.050985 0.028881
v 0.044296 -0.050985 0.026281
v 0.041644 -0.048333 0.026281
v 0.041644 -0.048333 0.028881
v -0.048985 0.042296 0.028881
v -0.048985 0.042296 0.026281
v -0.049800 -0.041007 0.023380
v -0.049800 0.037007 0.023380
v -0.049667 0.038695 0.023380
v -0.049272 0.040342 0.023380
v -0.048624 0.041907 0.023380
v -0.047739 0.043351 0.023380
v -0.046639 0.044639 0.023380
v -0.045351 0.045739 0.023380
v -0.043907 0.046624 0.023380
v -0.042342 0.047272 0.023380
v -0.040695 0.047667 0.023380
v -0.039007 0.047800 0.023380
v 0.039007 0.047800 0.023380
v 0.040695 0.047667 0.023380
v 0.042342 0.047272 0.023380
v 0.043907 0.046624 0.023380
v 0.045351 0.045739 0.023380
v 0.046639 0.044639 0.023380
v 0.047739 0.043351 0.023380
v 0.048624 0.041907 0.023380
v 0.049272 0.040342 0.023380
v 0.049667 0.038695 0.023380
v 0.049800 0.037007 0.023380
v 0.049800 -0.041007 0.023380
v 0.049667 -0.042695 0.023380
v 0.049272 -0.044342 0.023380
v 0.048624 -0.045907 0.023380
v 0.047739 -0.047351 0.023380
v 0.046639 -0.048639 0.023380
v 0.045351 -0.049739 0.023380
v 0.043907 -0.050624 0.023380
v 0.042342 -0.051272 0.023380
v 0.040695 -0.051667 0.023380
v 0.039007 -0.051800 0.023380
v -0.039007 -0.051800 0.023380
v -0.040695 -0.051667 0.023380
v -0.042342 -0.051272 0.023380
v -0.043907 -0.050624 0.023380
v -0.045351 -0.049739 0.023380
v -0.046639 -0.048639 0.023380
v -0.047739 -0.047351 0.023380
v -0.048624 -0.045907 0.023380
v -0.049272 -0.044342 0.023380
v -0.049667 -0.042695 0.023380
v 0.050300 -0.041007 0.028881
v 0.050300 -0.041007 0.023880
v 0.050300 0.037007 0.023880
v 0.050300 0.037007 0.028881
v 0.041644 0.044333 0.028881
v 0.041120 0.043650 0.028881
v 0.040790 0.042854 0.028881
v 0.040677 0.042000 0.028881
v 0.040790 0.041146 0.028881
v 0.041120 0.040350 0.028881
v 0.041644 0.039667 0.028881
v 0.042328 0.039142 0.028881
v 0.043123 0.038812 0.028881
v 0.043977 0.038700 0.028881
v 0.044832 0.038812 0.028881
v 0.045628 0.039142 0.028881
v 0.045628 0.039142 0.026281
v 0.044832 0.038812 0.026281
v 0.043977 0.038700 0.026281
v 0.043123 0.038812 0.026281
v 0.042328 0.039142 0.026281
v 0.041644 0.039667 0.026281
v 0.041120 0.040350 0.026281
v 0.040790 0.041146 0.026281
v 0.040677 0.042000 0.026281
v 0.040790 0.042854 0.026281
v 0.041120 0.043650 0.026281
v 0.041644 0.044333 0.026281
v 0.048969 -0.046325 0.026281
v 0.048969 -0.046325 0.028881
v 0.046311 -0.043667 0.028881
v 0.046311 -0.043667 0.026281
v -0.044325 0.046969 0.026281
v -0.045738 0.046075 0.026281
v -0.047004 0.044981 0.026281
v -0.048094 0.043712 0.026281
v -0.044023 0.043500 0.026281
v -0.043634 0.043449 0.026281
v -0.043273 0.043299 0.026281
v -0.042962 0.043061 0.026281
v -0.042724 0.042750 0.026281
v -0.042574 0.042388 0.026281
v -0.042523 0.042000 0.026281
v -0.042574 0.041612 0.026281
v -0.042724 0.041250 0.026281
v -0.042962 0.040939 0.026281
v -0.043273 0.040701 0.026281
v -0.043634 0.040551 0.026281
v -0.044023 0.040500 0.026281
v -0.044411 0.040551 0.026281
v -0.044773 0.040701 0.026281
v -0.045083 0.040939 0.026281
v -0.045322 0.041250 0.026281
v -0.045471 0.041612 0.026281
v -0.045522 0.042000 0.026281
v -0.045471 0.042388 0.026281
v -0.045322 0.042750 0.026281
v -0.045083 0.043061 0.026281
v -0.044773 0.043299 0.026281
v -0.044411 0.043449 0.026281
v -0.050300 -0.041007 0.028881
v -0.050300 -0.041007 0.023880
v -0.050185 -0.042614 0.023880
v -0.049843 -0.044188 0.023880
v -0.049279 -0.045698 0.023880
v -0.048507 -0.047112 0.023880
v -0.047542 -0.048402 0.023880
v -0.046402 -0.049542 0.023880
v -0.045112 -0.050507 0.023880
v -0.043698 -0.051279 0.023880
v -0.042189 -0.051842 0.023880
v -0.040614 -0.052185 0.023880
v -0.039007 -0.052300 0.023880
v -0.039007 -0.052300 0.028881
v -0.040388 -0.052215 0.028881
v -0.041748 -0.051962 0.028881
v -0.043067 -0.051545 0.028881
v -0.044325 -0.050969 0.028881
v -0.044325 -0.050969 0.026281
v -0.045738 -0.050074 0.026281
v -0.047004 -0.048981 0.026281
v -0.048094 -0.047712 0.026281
v -0.048985 -0.046296 0.026281
v -0.048985 -0.046296 0.028881
v -0.049554 -0.045044 0.028881
v -0.049966 -0.043732 0.028881
v -0.050216 -0.042380 0.028881
v -0.044325 0.046969 0.028881
v 0.039007 0.048300 0.028881
v 0.039007 0.048300 0.023880
v -0.039007 0.048300 0.023880
v -0.039007 0.048300 0.028881
v 0.039007 -0.052300 0.028881
v 0.039007 -0.052300 0.023880
v 0.040614 -0.052185 0.023880
v 0.042189 -0.051842 0.023880
v 0.043698 -0.051279 0.023880
v 0.045112 -0.050507 0.023880
v 0.046402 -0.049542 0.023880
v 0.047542 -0.048402 0.023880
v 0.048507 -0.047112 0.023880
v 0.049279 -0.045698 0.023880
v 0.049843 -0.044188 0.023880
v 0.050185 -0.042614 0.023880
v 0.050215 -0.042388 0.028881
v 0.049962 -0.043748 0.028881
v 0.049545 -0.045067 0.028881
v 0.048074 -0.047738 0.026281
v 0.046981 -0.049004 0.026281
v 0.045712 -0.050094 0.026281
v 0.043044 -0.051554 0.028881
v 0.041732 -0.051966 0.028881
v 0.040380 -0.052216 0.028881
v 0.045628 -0.043142 0.026281
v 0.044832 -0.042813 0.026281
v 0.043977 -0.042700 0.026281
v 0.043123 -0.042813 0.026281
v 0.042328 -0.043142 0.026281
v 0.041644 -0.043667 0.026281
v 0.041120 -0.044350 0.026281
v 0.040790 -0.045146 0.026281
v 0.040677 -0.046000 0.026281
v 0.040790 -0.046854 0.026281
v 0.041120 -0.047650 0.026281
v 0.043977 -0.044500 0.026281
v 0.044366 -0.044551 0.026281
v 0.044728 -0.044701 0.026281
v 0.045038 -0.044939 0.026281
v 0.045277 -0.045250 0.026281
v 0.045426 -0.045612 0.026281
v 0.045478 -0.046000 0.026281
v 0.045426 -0.046388 0.026281
v 0.045277 -0.046750 0.026281
v 0.045038 -0.047061 0.026281
v 0.044728 -0.047299 0.026281
v 0.044366 -0.047449 0.026281
v 0.043977 -0.047500 0.026281
v 0.043589 -0.047449 0.026281
v 0.043228 -0.047299 0.026281
v 0.042917 -0.047061 0.026281
v 0.042679 -0.046750 0.026281
v 0.042529 -0.046388 0.026281
v 0.042477 -0.046000 0.026281
v 0.042529 -0.045612 0.026281
v 0.042679 -0.045250 0.026281
v 0.042917 -0.044939 0.026281
v 0.043228 -0.044701 0.026281
v 0.043589 -0.044551 0.026281
v 0.050185 0.038614 0.023880
v 0.049843 0.040189 0.023880
v 0.049279 0.041698 0.023880
v 0.048507 0.043112 0.023880
v 0.047542 0.044402 0.023880
v 0.046402 0.045542 0.023880
v 0.045112 0.046507 0.023880
v 0.043698 0.047280 0.023880
v 0.042189 0.047842 0.023880
v 0.040614 0.048185 0.023880
v 0.040380 0.048216 0.028881
v 0.041732 0.047966 0.028881
v 0.043044 0.047554 0.028881
v 0.044296 0.046985 0.028881
v 0.044296 0.046985 0.026281
v 0.045712 0.046094 0.026281
v 0.046981 0.045004 0.026281
v 0.048074 0.043738 0.026281
v 0.049545 0.041067 0.028881
v 0.049962 0.039748 0.028881
v 0.050215 0.038388 0.028881
v -0.040614 0.048185 0.023880
v -0.042189 0.047842 0.023880
v -0.043698 0.047280 0.023880
v -0.045112 0.046507 0.023880
v -0.046402 0.045542 0.023880
v -0.047542 0.044402 0.023880
v -0.048507 0.043112 0.023880
v -0.049279 0.041698 0.023880
v -0.049843 0.040189 0.023880
v -0.050185 0.038614 0.023880
v -0.050300 0.037007 0.023880
v -0.050300 0.037007 0.028881
v -0.050216 0.038380 0.028881
v -0.049966 0.039732 0.028881
v -0.049554 0.041044 0.028881
v -0.043067 0.047545 0.028881
v -0.041748 0.047962 0.028881
v -0.040388 0.048215 0.028881
v -0.041689 -0.048333 0.026281
v -0.041165 -0.047650 0.026281
v -0.040835 -0.046854 0.026281
v -0.040723 -0.046000 0.026281
v -0.040835 -0.045146 0.026281
v -0.041165 -0.044350 0.026281
v -0.041689 -0.043667 0.026281
v -0.042373 -0.043142 0.026281
v -0.043168 -0.042813 0.026281
v -0.044023 -0.042700 0.026281
v -0.044877 -0.042813 0.026281
v -0.045673 -0.043142 0.026281
v -0.046356 -0.043667 0.026281
v -0.044023 -0.044500 0.026281
v -0.043634 -0.044551 0.026281
v -0.043273 -0.044701 0.026281
v -0.042962 -0.044939 0.026281
v -0.042724 -0.045250 0.026281
v -0.042574 -0.045612 0.026281
v -0.042523 -0.046000 0.026281
v -0.042574 -0.046388 0.026281
v -0.042724 -0.046750 0.026281
v -0.042962 -0.047061 0.026281
v -0.043273 -0.047299 0.026281
v -0.043634 -0.047449 0.026281
v -0.044023 -0.047500 0.026281
v -0.044411 -0.047449 0.026281
v -0.044773 -0.047299 0.026281
v -0.045083 -0.047061 0.026281
v -0.045322 -0.046750 0.026281
v -0.045471 -0.046388 0.026281
v -0.045522 -0.046000 0.026281
v -0.045471 -0.045612 0.026281
v -0.045322 -0.045250 0.026281
v -0.045083 -0.044939 0.026281
v -0.044773 -0.044701 0.026281
v -0.044411 -0.044551 0.026281
v 0.043977 0.043500 0.026281
v 0.044366 0.043449 0.026281
v 0.044728 0.043299 0.026281
v 0.045038 0.043061 0.026281
v 0.045277 0.042750 0.026281
v 0.045426 0.042388 0.026281
v 0.045478 0.042000 0.026281
v 0.045426 0.041612 0.026281
v 0.045277 0.041250 0.026281
v 0.045038 0.040939 0.026281
v 0.044728 0.040701 0.026281
v 0.044366 0.040551 0.026281
v 0.043977 0.040500 0.026281
v 0.043589 0.040551 0.026281
v 0.043228 0.040701 0.026281
v 0.042917 0.040939 0.026281
v 0.042679 0.041250 0.026281
v 0.042529 0.041612 0.026281
v 0.042477 0.042000 0.026281
v 0.042529 0.042388 0.026281
v 0.042679 0.042750 0.026281
v 0.042917 0.043061 0.026281
v 0.043228 0.043299 0.026281
v 0.043589 0.043449 0.026281
v -0.046356 -0.043667 0.028881
v 0.045628 -0.043142 0.028881
v 0.044832 -0.042813 0.028881
v 0.043977 -0.042700 0.028881
v 0.043123 -0.042813 0.028881
v 0.042328 -0.043142 0.028881
v 0.041644 -0.043667 0.028881
v 0.041120 -0.044350 0.028881
v 0.040790 -0.045146 0.028881
v 0.040677 -0.046000 0.028881
v 0.040790 -0.046854 0.028881
v 0.041120 -0.047650 0.028881
v -0.041689 -0.048333 0.028881
v -0.041165 -0.047650 0.028881
v -0.040835 -0.046854 0.028881
v -0.040723 -0.046000 0.028881
v -0.040835 -0.045146 0.028881
v -0.041165 -0.044350 0.028881
v -0.041689 -0.043667 0.028881
v -0.042373 -0.043142 0.028881
v -0.043168 -0.042813 0.028881
v -0.044023 -0.042700 0.028881
v -0.044877 -0.042813 0.028881
v -0.045673 -0.043142 0.028881
v -0.001000 0.042000 0.028881
v -0.002119 0.042009 0.028881
v -0.002271 0.042067 0.028881
v -0.002374 0.042146 0.028881
v -0.002454 0.042250 0.028881
v -0.002504 0.042371 0.028881
v -0.002521 0.042500 0.028881
v -0.002504 0.042629 0.028881
v -0.002454 0.042750 0.028881
v -0.000377 0.046330 0.028881
v -0.000250 0.046433 0.028881
v -0.000129 0.046483 0.028881
v 0.000000 0.046500 0.028881
v 0.000129 0.046483 0.028881
v 0.000250 0.046433 0.028881
v 0.000354 0.046354 0.028881
v 0.000433 0.046250 0.028881
v 0.002495 0.042661 0.028881
v 0.002521 0.042500 0.028881
v 0.002504 0.042371 0.028881
v 0.002454 0.042250 0.028881
v 0.002374 0.042146 0.028881
v 0.002271 0.042067 0.028881
v 0.002150 0.042017 0.028881
v 0.002021 0.042000 0.028881
v 0.001000 0.042000 0.028881
v 0.000991 0.036402 0.028881
v 0.000933 0.036250 0.028881
v 0.000854 0.036146 0.028881
v 0.000750 0.036067 0.028881
v 0.000629 0.036017 0.028881
v 0.000500 0.036000 0.028881
v -0.000598 0.036009 0.028881
v -0.000750 0.036067 0.028881
v -0.000854 0.036146 0.028881
v -0.000933 0.036250 0.028881
v -0.000983 0.036371 0.028881
v -0.001000 0.036500 0.028881
v -0.001921 0.033712 0.028881
v -0.001759 0.033756 0.028881
v -0.001615 0.033712 0.028881
v -0.001453 0.033646 0.028881
v -0.001345 0.033514 0.028881
v -0.001291 0.033381 0.028881
v -0.001309 0.033271 0.028881
v -0.001363 0.033183 0.028881
v -0.001435 0.033117 0.028881
v -0.001561 0.033117 0.028881
v -0.001633 0.033161 0.028881
v -0.001833 0.033204 0.028881
v -0.001939 0.033183 0.028881
v -0.002073 0.033048 0.028881
v -0.002137 0.032896 0.028881
v -0.002187 0.032653 0.028881
v -0.002191 0.031550 0.028881
v -0.002227 0.031374 0.028881
v -0.002281 0.031264 0.028881
v -0.002461 0.031175 0.028881
v -0.002636 0.031256 0.028881
v -0.002695 0.031374 0.028881
v -0.002713 0.031550 0.028881
v -0.002713 0.033315 0.028881
v -0.002659 0.033646 0.028881
v -0.002461 0.033756 0.028881
v -0.002353 0.033712 0.028881
v -0.002276 0.033639 0.028881
v -0.002209 0.033337 0.028881
v -0.002119 0.033514 0.028881
v -0.002029 0.033646 0.028881
v -0.000895 0.031705 0.028881
v -0.000985 0.031925 0.028881
v -0.001039 0.032168 0.028881
v -0.001039 0.032455 0.028881
v -0.001021 0.032720 0.028881
v -0.000967 0.032984 0.028881
v -0.000895 0.033205 0.028881
v -0.000769 0.033381 0.028881
v -0.000625 0.033536 0.028881
v -0.000445 0.033646 0.028881
v -0.000247 0.033712 0.028881
v -0.000013 0.033756 0.028881
v 0.000203 0.033712 0.028881
v 0.000401 0.033646 0.028881
v 0.000581 0.033536 0.028881
v 0.000743 0.033381 0.028881
v 0.000869 0.033183 0.028881
v 0.000959 0.032962 0.028881
v 0.001013 0.032720 0.028881
v 0.001031 0.032455 0.028881
v 0.000995 0.032168 0.028881
v 0.000941 0.031925 0.028881
v 0.000851 0.031683 0.028881
v 0.000725 0.031506 0.028881
v 0.000581 0.031352 0.028881
v 0.000401 0.031264 0.028881
v -0.000010 0.031175 0.028881
v -0.000440 0.031261 0.028881
v -0.000625 0.031374 0.028881
v -0.000769 0.031528 0.028881
v 0.002849 0.031374 0.028881
v 0.002831 0.031550 0.028881
v 0.002831 0.032609 0.028881
v 0.002813 0.032874 0.028881
v 0.002759 0.033094 0.028881
v 0.002651 0.033227 0.028881
v 0.002471 0.033271 0.028881
v 0.002327 0.033227 0.028881
v 0.002219 0.033161 0.028881
v 0.002111 0.033028 0.028881
v 0.002057 0.032874 0.028881
v 0.002021 0.032675 0.028881
v 0.002021 0.031550 0.028881
v 0.001985 0.031374 0.028881
v 0.001931 0.031264 0.028881
v 0.001751 0.031175 0.028881
v 0.001576 0.031256 0.028881
v 0.001517 0.031374 0.028881
v 0.001499 0.031550 0.028881
v 0.001499 0.033536 0.028881
v 0.001553 0.033646 0.028881
v 0.001625 0.033712 0.028881
v 0.001731 0.033755 0.028881
v 0.001859 0.033712 0.028881
v 0.001895 0.033646 0.028881
v 0.001949 0.033580 0.028881
v 0.001985 0.033403 0.028881
v 0.001985 0.033315 0.028881
v 0.002111 0.033492 0.028881
v 0.002273 0.033646 0.028881
v 0.002435 0.033712 0.028881
v 0.002651 0.033756 0.028881
v 0.002849 0.033712 0.028881
v 0.003011 0.033646 0.028881
v 0.003155 0.033514 0.028881
v 0.003263 0.033337 0.028881
v 0.003335 0.033073 0.028881
v 0.003335 0.032918 0.028881
v 0.003353 0.032742 0.028881
v 0.003353 0.031550 0.028881
v 0.003335 0.031374 0.028881
v 0.003281 0.031264 0.028881
v 0.003086 0.031174 0.028881
v 0.002908 0.031256 0.028881
v 0.005136 0.031497 0.028881
v 0.005099 0.031330 0.028881
v 0.004994 0.031245 0.028881
v 0.004595 0.031175 0.028881
v 0.004242 0.031257 0.028881
v 0.004127 0.031374 0.028881
v 0.004073 0.031550 0.028881
v 0.004037 0.031749 0.028881
v 0.004037 0.033249 0.028881
v 0.003857 0.033249 0.028881
v 0.003785 0.033293 0.028881
v 0.003731 0.033359 0.028881
v 0.003731 0.033558 0.028881
v 0.003785 0.033646 0.028881
v 0.003857 0.033690 0.028881
v 0.004036 0.033716 0.028881
v 0.004037 0.034374 0.028881
v 0.004073 0.034462 0.028881
v 0.004167 0.034577 0.028881
v 0.004289 0.034617 0.028881
v 0.004379 0.034573 0.028881
v 0.004469 0.034506 0.028881
v 0.004541 0.034374 0.028881
v 0.004541 0.034264 0.028881
v 0.004559 0.034131 0.028881
v 0.004559 0.033712 0.028881
v 0.004739 0.033712 0.028881
v 0.004829 0.033690 0.028881
v 0.004901 0.033646 0.028881
v 0.004955 0.033558 0.028881
v 0.004973 0.033470 0.028881
v 0.004937 0.033359 0.028881
v 0.004883 0.033293 0.028881
v 0.004775 0.033249 0.028881
v 0.004559 0.033249 0.028881
v 0.004562 0.031738 0.028881
v 0.004649 0.031661 0.028881
v 0.004901 0.031661 0.028881
v 0.004973 0.031683 0.028881
v 0.005027 0.031661 0.028881
v 0.005081 0.031617 0.028881
v -0.003361 0.034639 0.028881
v -0.003271 0.034573 0.028881
v -0.003217 0.034484 0.028881
v -0.003199 0.034396 0.028881
v -0.003217 0.034264 0.028881
v -0.003271 0.034198 0.028881
v -0.003361 0.034131 0.028881
v -0.004567 0.034131 0.028881
v -0.004567 0.033249 0.028881
v -0.003649 0.033249 0.028881
v -0.003541 0.033227 0.028881
v -0.003469 0.033161 0.028881
v -0.003415 0.033073 0.028881
v -0.003397 0.032984 0.028881
v -0.003415 0.032874 0.028881
v -0.003535 0.032743 0.028881
v -0.004567 0.032742 0.028881
v -0.004567 0.031594 0.028881
v -0.004603 0.031396 0.028881
v -0.004657 0.031264 0.028881
v -0.004852 0.031175 0.028881
v -0.004981 0.031220 0.028881
v -0.005053 0.031264 0.028881
v -0.005107 0.031396 0.028881
v -0.005125 0.031594 0.028881
v -0.005117 0.034430 0.028881
v -0.005071 0.034550 0.028881
v -0.004994 0.034620 0.028881
v -0.004783 0.034661 0.028881
v -0.003469 0.034661 0.028881
v -0.000500 0.036000 0.028681
v 0.000598 0.036009 0.028681
v 0.000750 0.036067 0.028681
v 0.000854 0.036146 0.028681
v 0.000933 0.036250 0.028681
v 0.000983 0.036371 0.028681
v 0.001000 0.036500 0.028681
v 0.001000 0.042000 0.028681
v 0.002119 0.042009 0.028681
v 0.002271 0.042067 0.028681
v 0.002374 0.042146 0.028681
v 0.002454 0.042250 0.028681
v 0.002504 0.042371 0.028681
v 0.002521 0.042500 0.028681
v 0.002504 0.042629 0.028681
v 0.002454 0.042750 0.028681
v 0.000377 0.046330 0.028681
v 0.000250 0.046433 0.028681
v 0.000129 0.046483 0.028681
v 0.000000 0.046500 0.028681
v -0.000129 0.046483 0.028681
v -0.000250 0.046433 0.028681
v -0.000354 0.046354 0.028681
v -0.000433 0.046250 0.028681
v -0.002495 0.042661 0.028681
v -0.002521 0.042500 0.028681
v -0.002504 0.042371 0.028681
v -0.002454 0.042250 0.028681
v -0.002374 0.042146 0.028681
v -0.002271 0.042067 0.028681
v -0.002150 0.042017 0.028681
v -0.002021 0.042000 0.028681
v -0.001000 0.042000 0.028681
v -0.000991 0.036402 0.028681
v -0.000933 0.036250 0.028681
v -0.000854 0.036146 0.028681
v -0.000750 0.036067 0.028681
v -0.000629 0.036017 0.028681
v -0.002461 0.031175 0.028681
v -0.002281 0.031264 0.028681
v -0.002227 0.031374 0.028681
v -0.002191 0.031550 0.028681
v -0.002184 0.032684 0.028681
v -0.002137 0.032896 0.028681
v -0.002083 0.033028 0.028681
v -0.001948 0.033180 0.028681
v -0.001831 0.033205 0.028681
v -0.001631 0.033159 0.028681
v -0.001561 0.033117 0.028681
v -0.001435 0.033117 0.028681
v -0.001363 0.033183 0.028681
v -0.001309 0.033271 0.028681
v -0.001291 0.033381 0.028681
v -0.001345 0.033514 0.028681
v -0.001453 0.033646 0.028681
v -0.001751 0.033758 0.028681
v -0.001921 0.033712 0.028681
v -0.002029 0.033646 0.028681
v -0.002119 0.033514 0.028681
v -0.002209 0.033337 0.028681
v -0.002278 0.033642 0.028681
v -0.002353 0.033712 0.028681
v -0.002461 0.033756 0.028681
v -0.002659 0.033646 0.028681
v -0.002713 0.033315 0.028681
v -0.002713 0.031550 0.028681
v -0.002695 0.031374 0.028681
v -0.002631 0.031251 0.028681
v -0.000019 0.031174 0.028681
v 0.000397 0.031262 0.028681
v 0.000581 0.031352 0.028681
v 0.000725 0.031506 0.028681
v 0.000851 0.031683 0.028681
v 0.000941 0.031925 0.028681
v 0.000995 0.032168 0.028681
v 0.001031 0.032455 0.028681
v 0.001013 0.032720 0.028681
v 0.000959 0.032962 0.028681
v 0.000869 0.033183 0.028681
v 0.000743 0.033381 0.028681
v 0.000581 0.033536 0.028681
v 0.000401 0.033646 0.028681
v 0.000203 0.033712 0.028681
v -0.000013 0.033756 0.028681
v -0.000247 0.033712 0.028681
v -0.000445 0.033646 0.028681
v -0.000625 0.033536 0.028681
v -0.000769 0.033381 0.028681
v -0.000895 0.033205 0.028681
v -0.000967 0.032984 0.028681
v -0.001021 0.032720 0.028681
v -0.001039 0.032455 0.028681
v -0.001039 0.032168 0.028681
v -0.000985 0.031925 0.028681
v -0.000895 0.031705 0.028681
v -0.000769 0.031528 0.028681
v -0.000625 0.031374 0.028681
v -0.000445 0.031264 0.028681
v 0.000185 0.031683 0.028681
v -0.000013 0.031639 0.028681
v -0.000175 0.031661 0.028681
v -0.000301 0.031727 0.028681
v -0.000409 0.031837 0.028681
v -0.000517 0.032205 0.028681
v -0.000517 0.032675 0.028681
v -0.000418 0.033037 0.028681
v -0.000301 0.033183 0.028681
v -0.000175 0.033249 0.028681
v -0.000013 0.033293 0.028681
v 0.000185 0.033227 0.028681
v 0.000365 0.033073 0.028681
v 0.000473 0.032808 0.028681
v 0.000509 0.032455 0.028681
v 0.000473 0.032102 0.028681
v 0.000365 0.031837 0.028681
v -0.000013 0.033293 0.028881
v -0.000175 0.033249 0.028881
v -0.000301 0.033183 0.028881
v -0.000409 0.033050 0.028881
v -0.000463 0.032896 0.028881
v -0.000517 0.032675 0.028881
v -0.000517 0.032212 0.028881
v -0.000412 0.031840 0.028881
v -0.000301 0.031727 0.028881
v -0.000175 0.031661 0.028881
v -0.000013 0.031639 0.028881
v 0.000185 0.031683 0.028881
v 0.000365 0.031837 0.028881
v 0.000473 0.032102 0.028881
v 0.000509 0.032455 0.028881
v 0.000473 0.032808 0.028881
v 0.000365 0.033073 0.028881
v 0.000185 0.033227 0.028881
v 0.001751 0.031175 0.028681
v 0.001931 0.031264 0.028681
v 0.001985 0.031374 0.028681
v 0.002021 0.031550 0.028681
v 0.002021 0.032675 0.028681
v 0.002057 0.032874 0.028681
v 0.002111 0.033028 0.028681
v 0.002219 0.033161 0.028681
v 0.002327 0.033227 0.028681
v 0.002471 0.033271 0.028681
v 0.002651 0.033227 0.028681
v 0.002759 0.033094 0.028681
v 0.002813 0.032874 0.028681
v 0.002831 0.032609 0.028681
v 0.002831 0.031550 0.028681
v 0.002849 0.031374 0.028681
v 0.002903 0.031264 0.028681
v 0.002975 0.031220 0.028681
v 0.003083 0.031175 0.028681
v 0.003279 0.031261 0.028681
v 0.003335 0.031374 0.028681
v 0.003353 0.031550 0.028681
v 0.003353 0.032742 0.028681
v 0.003335 0.032918 0.028681
v 0.003335 0.033073 0.028681
v 0.003263 0.033337 0.028681
v 0.003155 0.033514 0.028681
v 0.003011 0.033646 0.028681
v 0.002849 0.033712 0.028681
v 0.002651 0.033756 0.028681
v 0.002435 0.033712 0.028681
v 0.002273 0.033646 0.028681
v 0.002111 0.033492 0.028681
v 0.001985 0.033315 0.028681
v 0.001985 0.033403 0.028681
v 0.001949 0.033580 0.028681
v 0.001856 0.033712 0.028681
v 0.001731 0.033755 0.028681
v 0.001625 0.033712 0.028681
v 0.001553 0.033646 0.028681
v 0.001499 0.033536 0.028681
v 0.001499 0.031550 0.028681
v 0.001517 0.031374 0.028681
v 0.001571 0.031264 0.028681
v 0.001643 0.031220 0.028681
v 0.004595 0.031175 0.028681
v 0.004993 0.031244 0.028681
v 0.005099 0.031330 0.028681
v 0.005135 0.031484 0.028681
v 0.005093 0.031603 0.028681
v 0.005027 0.031661 0.028681
v 0.004973 0.031683 0.028681
v 0.004901 0.031661 0.028681
v 0.004649 0.031661 0.028681
v 0.004560 0.031743 0.028681
v 0.004559 0.033249 0.028681
v 0.004775 0.033249 0.028681
v 0.004883 0.033293 0.028681
v 0.004937 0.033359 0.028681
v 0.004973 0.033470 0.028681
v 0.004955 0.033558 0.028681
v 0.004901 0.033646 0.028681
v 0.004829 0.033690 0.028681
v 0.004739 0.033712 0.028681
v 0.004559 0.033712 0.028681
v 0.004559 0.034131 0.028681
v 0.004541 0.034264 0.028681
v 0.004541 0.034374 0.028681
v 0.004469 0.034506 0.028681
v 0.004379 0.034573 0.028681
v 0.004289 0.034617 0.028681
v 0.004165 0.034575 0.028681
v 0.004073 0.034462 0.028681
v 0.004037 0.034374 0.028681
v 0.004037 0.033712 0.028681
v 0.003965 0.033712 0.028681
v 0.003857 0.033690 0.028681
v 0.003785 0.033646 0.028681
v 0.003731 0.033558 0.028681
v 0.003731 0.033359 0.028681
v 0.003785 0.033293 0.028681
v 0.003857 0.033249 0.028681
v 0.004037 0.033249 0.028681
v 0.004037 0.031749 0.028681
v 0.004073 0.031550 0.028681
v 0.004127 0.031374 0.028681
v 0.004235 0.031264 0.028681
v 0.004379 0.031220 0.028681
v -0.004855 0.031175 0.028681
v -0.004659 0.031261 0.028681
v -0.004603 0.031396 0.028681
v -0.004567 0.031594 0.028681
v -0.004567 0.032742 0.028681
v -0.003541 0.032742 0.028681
v -0.003418 0.032866 0.028681
v -0.003397 0.032984 0.028681
v -0.003415 0.033073 0.028681
v -0.003469 0.033161 0.028681
v -0.003541 0.033227 0.028681
v -0.003649 0.033249 0.028681
v -0.004567 0.033249 0.028681
v -0.004567 0.034131 0.028681
v -0.003361 0.034131 0.028681
v -0.003271 0.034198 0.028681
v -0.003217 0.034264 0.028681
v -0.003199 0.034396 0.028681
v -0.003217 0.034484 0.028681
v -0.003271 0.034573 0.028681
v -0.003361 0.034639 0.028681
v -0.003469 0.034661 0.028681
v -0.004783 0.034661 0.028681
v -0.004996 0.034619 0.028681
v -0.005071 0.034550 0.028681
v -0.005121 0.034412 0.028681
v -0.005125 0.031594 0.028681
v -0.005107 0.031396 0.028681
v -0.005053 0.031264 0.028681
v -0.004981 0.031220 0.028681
vn 0.6088 0.7933 -0.0000
vn 0.6088 0.7934 -0.0000
vn 0.3827 0.9239 -0.0000
vn 0.1305 0.9915 -0.0000
vn -0.1305 0.9915 -0.0000
vn -0.3827 0.9239 -0.0000
vn -0.6087 0.7934 -0.0000
vn -0.7934 0.6087 -0.0000
vn -0.9239 0.3827 -0.0000
vn -0.9915 0.1305 -0.0000
vn -0.9915 -0.1305 -0.0000
vn -0.9239 -0.3827 -0.0000
vn -0.7933 -0.6088 -0.0000
vn -0.7071 0.7071 -0.0000
vn 0.7071 0.7071 -0.0000
vn 1.0000 -0.0000 -0.0000
vn 0.7933 -0.6088 -0.0000
vn 0.9239 -0.3827 -0.0000
vn 0.9915 -0.1305 -0.0000
vn 0.9915 0.1305 -0.0000
vn 0.9239 0.3827 -0.0000
vn 0.7933 0.6088 -0.0000
vn -0.7071 -0.7071 -0.0000
vn -0.0000 -0.0000 1.0000
vn -0.9981 -0.0609 -0.0000
vn -0.9974 -0.0714 -0.0029
vn -0.9833 -0.1818 0.0024
vn -0.9771 -0.2126 -0.0048
vn -0.9540 -0.2999 0.0038
vn -0.9370 -0.3494 -0.0057
vn -0.9104 -0.4137 0.0042
vn -0.8970 -0.4421 -0.0000
vn -0.8776 -0.4792 -0.0116
vn -0.8464 -0.5324 0.0127
vn -0.8005 -0.5993 -0.0119
vn -0.7584 -0.6516 0.0129
vn -0.7071 -0.7071 -0.0120
vn -0.6539 -0.7565 0.0129
vn -0.5993 -0.8005 -0.0120
vn -0.5349 -0.8448 0.0128
vn -0.4792 -0.8776 -0.0117
vn -0.4434 -0.8963 -0.0000
vn -0.4160 -0.9093 0.0042
vn -0.3494 -0.9370 -0.0056
vn -0.3016 -0.9534 0.0037
vn -0.2126 -0.9771 -0.0047
vn -0.1829 -0.9831 0.0023
vn -0.0713 -0.9975 -0.0028
vn -0.0612 -0.9981 -0.0000
vn -0.0000 1.0000 -0.0000
vn 0.0609 -0.9981 -0.0000
vn 0.0713 -0.9975 -0.0029
vn 0.1818 -0.9833 0.0024
vn 0.2126 -0.9771 -0.0048
vn 0.2999 -0.9540 0.0038
vn 0.3494 -0.9370 -0.0057
vn 0.4136 -0.9104 0.0042
vn 0.4420 -0.8970 -0.0000
vn 0.4792 -0.8776 -0.0116
vn 0.5324 -0.8464 0.0127
vn 0.5993 -0.8005 -0.0119
vn 0.6516 -0.7584 0.0129
vn 0.7070 -0.7071 -0.0120
vn 0.7565 -0.6538 0.0129
vn 0.8005 -0.5992 -0.0119
vn 0.8448 -0.5350 0.0128
vn 0.8776 -0.4792 -0.0118
vn 0.8963 -0.4434 -0.0000
vn 0.9094 -0.4160 0.0042
vn 0.9369 -0.3495 -0.0056
vn 0.9534 -0.3017 0.0038
vn 0.9771 -0.2125 -0.0047
vn 0.9831 -0.1828 0.0023
vn 0.9974 -0.0714 -0.0028
vn 0.9981 -0.0613 -0.0000
vn 0.9981 0.0613 -0.0000
vn 0.9974 0.0714 -0.0028
vn 0.9831 0.1828 0.0023
vn 0.9771 0.2125 -0.0047
vn 0.9534 0.3017 0.0038
vn 0.9369 0.3495 -0.0056
vn 0.9094 0.4160 0.0042
vn 0.8963 0.4434 -0.0000
vn 0.8776 0.4792 -0.0118
vn 0.8448 0.5349 0.0128
vn 0.8005 0.5992 -0.0119
vn 0.7565 0.6538 0.0129
vn 0.7070 0.7071 -0.0120
vn 0.6516 0.7584 0.0129
vn 0.5993 0.8005 -0.0119
vn 0.5324 0.8464 0.0127
vn 0.4792 0.8776 -0.0116
vn 0.4420 0.8970 -0.0000
vn 0.4136 0.9104 0.0042
vn 0.3494 0.9370 -0.0057
vn 0.2999 0.9540 0.0038
vn 0.2126 0.9771 -0.0048
vn 0.1818 0.9833 0.0024
vn 0.0714 0.9974 -0.0029
vn 0.0609 0.9981 -0.0000
vn -0.0612 0.9981 -0.0000
vn -0.0714 0.9974 -0.0028
vn -0.1829 0.9831 0.0023
vn -0.2126 0.9771 -0.0047
vn -0.3017 0.9534 0.0037
vn -0.3494 0.9370 -0.0056
vn -0.4160 0.9094 0.0043
vn -0.4434 0.8963 -0.0000
vn -0.4792 0.8776 -0.0117
vn -0.5349 0.8448 0.0128
vn -0.5993 0.8005 -0.0120
vn -0.6539 0.7565 0.0129
vn -0.7071 0.7071 -0.0120
vn -0.7584 0.6516 0.0129
vn -0.8005 0.5993 -0.0119
vn -0.8464 0.5324 0.0127
vn -0.8776 0.4792 -0.0116
vn -0.8970 0.4421 -0.0000
vn -0.9104 0.4137 0.0042
vn -0.9370 0.3494 -0.0057
vn -0.9540 0.2999 0.0038
vn -0.9771 0.2126 -0.0048
vn -0.9833 0.1818 0.0024
vn -0.9974 0.0714 -0.0029
vn -0.9981 0.0609 -0.0000
vn -0.0000 -1.0000 -0.0000
vn 0.7071 -0.7071 -0.0000
vn -0.6087 -0.7934 -0.0000
vn -0.3827 -0.9239 -0.0000
vn -0.1305 -0.9915 -0.0000
vn 0.1305 -0.9915 -0.0000
vn 0.3827 -0.9239 -0.0000
vn 0.6088 -0.7933 -0.0000
vn -0.7933 0.6088 -0.0000
vn -0.7934 -0.6087 -0.0000
vn -0.7071 -0.0000 -0.7071
vn -0.7062 -0.0505 -0.7062
vn -0.6980 -0.0549 -0.7140
vn -0.6987 -0.1520 -0.6991
vn -0.6745 -0.1620 -0.7203
vn -0.6751 -0.2518 -0.6934
vn -0.6365 -0.2636 -0.7249
vn -0.6359 -0.3472 -0.6892
vn -0.5847 -0.3583 -0.7279
vn -0.5819 -0.4357 -0.6867
vn -0.5203 -0.4444 -0.7293
vn -0.5146 -0.5146 -0.6858
vn -0.4444 -0.5203 -0.7292
vn -0.4357 -0.5820 -0.6866
vn -0.3583 -0.5847 -0.7278
vn -0.3473 -0.6360 -0.6892
vn -0.2637 -0.6365 -0.7248
vn -0.2518 -0.6752 -0.6933
vn -0.1619 -0.6746 -0.7202
vn -0.1520 -0.6986 -0.6991
vn -0.0549 -0.6979 -0.7141
vn -0.0505 -0.7062 -0.7062
vn -0.0000 -0.7071 -0.7071
vn 0.0505 -0.7062 -0.7062
vn 0.0549 -0.6979 -0.7141
vn 0.1520 -0.6986 -0.6991
vn 0.1619 -0.6746 -0.7202
vn 0.2518 -0.6752 -0.6933
vn 0.2636 -0.6365 -0.7248
vn 0.3472 -0.6359 -0.6893
vn 0.3583 -0.5847 -0.7279
vn 0.4357 -0.5819 -0.6867
vn 0.4444 -0.5203 -0.7293
vn 0.5146 -0.5146 -0.6858
vn 0.5203 -0.4443 -0.7293
vn 0.5819 -0.4356 -0.6867
vn 0.5847 -0.3583 -0.7279
vn 0.6359 -0.3472 -0.6892
vn 0.6365 -0.2636 -0.7249
vn 0.6751 -0.2518 -0.6934
vn 0.6745 -0.1619 -0.7203
vn 0.6987 -0.1520 -0.6991
vn 0.6980 -0.0549 -0.7140
vn 0.7062 -0.0505 -0.7062
vn 0.7071 -0.0000 -0.7071
vn 0.7062 0.0505 -0.7062
vn 0.6980 0.0549 -0.7140
vn 0.6987 0.1520 -0.6991
vn 0.6745 0.1619 -0.7203
vn 0.6751 0.2518 -0.6934
vn 0.6365 0.2636 -0.7249
vn 0.6359 0.3472 -0.6892
vn 0.5847 0.3583 -0.7279
vn 0.5819 0.4356 -0.6867
vn 0.5203 0.4443 -0.7293
vn 0.5146 0.5146 -0.6858
vn 0.4443 0.5203 -0.7293
vn 0.4357 0.5819 -0.6867
vn 0.3583 0.5847 -0.7279
vn 0.3472 0.6359 -0.6892
vn 0.2636 0.6365 -0.7249
vn 0.2518 0.6752 -0.6933
vn 0.1620 0.6746 -0.7202
vn 0.1520 0.6988 -0.6990
vn 0.0549 0.6980 -0.7139
vn 0.0505 0.7063 -0.7061
vn -0.0000 0.7072 -0.7070
vn -0.0000 0.7071 -0.7071
vn -0.0505 0.7062 -0.7062
vn -0.0549 0.6980 -0.7140
vn -0.1520 0.6987 -0.6991
vn -0.1620 0.6745 -0.7203
vn -0.2518 0.6751 -0.6934
vn -0.2636 0.6365 -0.7249
vn -0.3472 0.6359 -0.6892
vn -0.3583 0.5847 -0.7279
vn -0.4357 0.5819 -0.6867
vn -0.4443 0.5203 -0.7293
vn -0.5146 0.5146 -0.6858
vn -0.5203 0.4443 -0.7293
vn -0.5819 0.4357 -0.6867
vn -0.5847 0.3583 -0.7279
vn -0.6359 0.3472 -0.6892
vn -0.6365 0.2636 -0.7249
vn -0.6751 0.2518 -0.6934
vn -0.6745 0.1620 -0.7203
vn -0.6987 0.1520 -0.6991
vn -0.6980 0.0549 -0.7140
vn -0.7062 0.0505 -0.7062
vn -1.0000 -0.0000 -0.0000
vn -0.0001 -0.0000 1.0000
vn 0.0003 -0.0000 1.0000
vn 0.0001 -0.0000 1.0000
vn 0.0077 0.9992 -0.0391
vn 0.9991 0.0015 0.0422
vn 0.9913 0.1302 -0.0211
vn 0.9334 0.3583 0.0173
vn 0.9238 0.3830 -0.0000
vn 0.7937 0.6083 -0.0000
vn 0.6083 0.7937 -0.0000
vn 0.3830 0.9238 -0.0000
vn 0.3583 0.9334 -0.0173
vn 0.1302 0.9913 0.0211
vn 0.0078 0.9992 -0.0391
vn -0.0078 0.9992 0.0391
vn -0.1302 0.9913 -0.0211
vn -0.3583 0.9334 0.0173
vn -0.3830 0.9238 -0.0000
vn -0.6083 0.7937 -0.0000
vn -0.7937 0.6083 -0.0000
vn -0.9238 0.3830 -0.0000
vn -0.9334 0.3584 -0.0173
vn -0.9913 0.1302 0.0211
vn -0.9991 0.0015 -0.0422
vn -0.0077 0.9992 0.0392
vn -0.9915 0.1303 -0.0000
vn -0.9915 -0.1303 -0.0000
vn -0.9875 -0.1564 -0.0173
vn -0.9236 -0.3829 0.0211
vn -0.8663 -0.4978 -0.0419
vn -0.8642 -0.5013 0.0419
vn -0.7932 -0.6085 -0.0211
vn -0.6295 -0.7768 0.0173
vn -0.6088 -0.7933 -0.0000
vn -0.3830 -0.9237 -0.0000
vn -0.3830 -0.9238 -0.0000
vn -0.1303 -0.9915 -0.0000
vn -0.1302 -0.9915 -0.0000
vn 0.1303 -0.9915 -0.0000
vn 0.1302 -0.9915 -0.0000
vn 0.3830 -0.9237 -0.0000
vn 0.3830 -0.9238 -0.0000
vn 0.6295 -0.7768 -0.0173
vn 0.7932 -0.6085 0.0211
vn 0.8642 -0.5014 -0.0419
vn 0.8663 -0.4978 0.0419
vn 0.9235 -0.3829 -0.0211
vn 0.9875 -0.1564 0.0173
vn 0.9915 -0.1303 -0.0000
vn 0.9915 0.1303 -0.0000
vn 0.2627 -0.9649 0.0040
vn 0.2583 -0.9661 -0.0000
vn 0.5226 -0.8526 -0.0000
vn 0.8270 -0.5622 -0.0000
vn 0.8908 -0.4545 -0.0000
vn -0.9766 -0.2151 -0.0000
vn -0.9756 -0.2195 0.0069
vn -0.6848 -0.7287 -0.0037
vn -0.6795 -0.7336 -0.0000
vn -0.3780 -0.9258 -0.0000
vn 0.4867 -0.8736 -0.0000
vn 0.9869 -0.1611 -0.0000
vn 0.9948 0.1015 -0.0000
vn 0.8937 0.4486 -0.0000
vn 0.8860 0.4636 0.0111
vn 0.4196 0.9077 -0.0114
vn 0.4085 0.9128 -0.0000
vn -0.4400 0.8980 -0.0000
vn -0.8981 0.4397 -0.0000
vn -0.9798 0.1999 -0.0000
vn -0.9798 0.1998 -0.0000
vn -1.0000 0.0037 -0.0000
vn -0.9998 0.0067 -0.0163
vn -0.9794 0.2013 0.0136
vn -0.9769 0.2135 -0.0000
vn -0.9208 0.3901 -0.0000
vn -0.9258 0.3779 0.0109
vn -0.7458 0.6657 -0.0264
vn -0.7104 0.7035 0.0205
vn -0.1985 0.9801 -0.0063
vn -0.2099 0.9777 0.0005
vn 0.2219 0.9751 0.0041
vn 0.2135 0.9769 -0.0048
vn 0.5223 0.8528 -0.0009
vn 0.5204 0.8539 -0.0000
vn -0.6768 0.7361 -0.0000
vn -0.8528 0.5222 -0.0000
vn -0.9869 0.1611 -0.0000
vn -0.9258 -0.3779 -0.0000
vn -0.7749 -0.6321 -0.0000
vn -0.3783 -0.9257 -0.0000
vn -0.3506 -0.9362 0.0259
vn -0.2928 -0.9560 -0.0179
vn 0.6511 -0.7590 -0.0000
vn 0.9259 -0.3778 -0.0000
vn 0.9948 -0.1015 -0.0000
vn 0.9259 0.3778 -0.0000
vn 0.6511 0.7590 -0.0000
vn 0.3171 0.9484 -0.0000
vn -0.2632 0.9647 -0.0000
vn -0.4646 0.8855 -0.0000
vn -0.7749 0.6321 -0.0071
vn -0.7797 0.6262 -0.0000
vn -0.9437 0.3301 0.0211
vn -0.9713 0.2378 -0.0000
vn -0.9642 0.2635 -0.0304
vn -1.0000 -0.0000 -0.0014
vn -1.0000 -0.0006 -0.0000
vn -0.9620 -0.2729 0.0089
vn -0.9596 -0.2813 -0.0077
vn -0.7152 -0.6990 -0.0000
vn -0.7145 -0.6996 0.0007
vn -0.4651 -0.8853 -0.0000
vn -0.1352 -0.9908 -0.0000
vn 0.2179 -0.9760 -0.0000
vn 0.9259 0.3777 -0.0000
vn 0.8137 0.5812 -0.0000
vn 0.7315 0.6818 -0.0000
vn 0.5215 0.8532 -0.0000
vn 0.5225 0.8526 -0.0012
vn 0.2048 0.9788 0.0090
vn 0.1957 0.9806 -0.0109
vn -0.2055 0.9786 0.0064
vn -0.2107 0.9775 -0.0048
vn -0.4404 0.8978 0.0005
vn -0.7313 0.6821 -0.0000
vn -0.7313 0.6820 -0.0000
vn -0.8139 0.5810 -0.0000
vn -0.9376 0.3478 -0.0000
vn -0.9761 0.2172 -0.0000
vn -0.9922 0.1246 -0.0000
vn -0.9977 -0.0678 -0.0000
vn -0.9761 -0.2172 -0.0000
vn -0.9259 -0.3778 -0.0000
vn -0.9259 -0.3777 -0.0000
vn -0.8443 -0.5359 -0.0000
vn -0.6899 -0.7239 -0.0000
vn -0.5225 -0.8527 -0.0000
vn -0.5225 -0.8526 -0.0000
vn -0.3171 -0.9484 -0.0000
vn -0.2000 -0.9798 -0.0000
vn -0.2001 -0.9798 -0.0000
vn 0.1852 -0.9827 -0.0000
vn 0.3171 -0.9484 -0.0000
vn 0.5225 -0.8527 -0.0000
vn 0.5225 -0.8526 -0.0000
vn 0.7313 -0.6821 -0.0000
vn 0.7313 -0.6820 -0.0000
vn 0.8139 -0.5810 -0.0000
vn 0.9506 -0.3103 -0.0000
vn 0.9798 -0.1999 -0.0000
vn 0.9977 -0.0678 -0.0000
vn 0.9761 0.2172 -0.0000
vn 0.8981 0.4397 -0.0066
vn 0.5222 0.8526 0.0180
vn 0.4175 0.9083 -0.0272
vn 0.3781 0.9258 -0.0014
vn -0.3990 0.9169 0.0104
vn -0.4159 0.9094 -0.0091
vn -0.8981 0.4397 0.0014
vn -0.8972 0.4416 -0.0000
vn -0.9948 0.1015 -0.0000
vn -0.9948 -0.1015 -0.0000
vn -0.9649 -0.2625 -0.0000
vn -0.8528 -0.5222 -0.0000
vn -0.6768 -0.7361 -0.0000
vn -0.2174 -0.9761 -0.0000
vn 0.2000 -0.9798 -0.0000
vn 0.2001 -0.9798 -0.0000
vn 0.3783 -0.9257 -0.0000
vn 0.6899 -0.7239 -0.0000
vn -0.9798 -0.1999 -0.0000
vn -0.8166 -0.5765 -0.0296
vn -0.8784 -0.4777 0.0148
vn -0.3163 -0.9486 0.0077
vn -0.3331 -0.9429 -0.0039
vn 0.3708 -0.9287 -0.0031
vn 0.3759 -0.9267 -0.0000
vn 0.6768 -0.7361 -0.0000
vn 0.8981 -0.4397 -0.0000
vn 0.4195 0.9074 -0.0264
vn 0.3781 0.9258 -0.0000
vn -0.9839 0.1784 -0.0000
vn -0.9839 0.1785 -0.0000
vn -0.9439 0.3301 -0.0000
vn -0.7749 0.6321 -0.0000
vn -0.5226 0.8526 -0.0000
vn -0.2928 0.9562 -0.0000
vn 0.2380 0.9713 -0.0000
vn 0.7749 0.6321 -0.0000
vn 0.9713 0.2378 -0.0000
vn 0.9977 0.0678 -0.0000
vn -0.9767 0.2147 -0.0000
vn -0.9738 0.2271 -0.0108
vn -0.9439 -0.3292 0.0251
vn -0.9085 -0.4168 -0.0286
vn -0.6325 -0.7745 0.0134
vn -0.6558 -0.7550 -0.0000
vn -0.3788 -0.9255 -0.0000
vn 0.2935 -0.9560 -0.0000
vn -0.6664 -0.7456 -0.0000
vn -0.6784 -0.7346 -0.0095
vn -0.9999 -0.0022 0.0105
vn -1.0000 -0.0008 -0.0000
vn -0.3788 0.9255 -0.0000
vn -0.7744 0.6327 -0.0000
vn -0.9506 0.3103 -0.0000
vn -0.9507 0.3103 -0.0000
vn -0.9798 -0.1997 -0.0000
vn -0.5223 -0.8528 -0.0000
vn -0.5223 -0.8527 -0.0000
vn -0.2385 -0.9712 -0.0000
vn -0.9909 -0.1348 -0.0000
vn -0.8785 -0.4777 -0.0000
vn -0.5925 -0.8056 -0.0000
vn -0.5925 -0.8055 -0.0000
vn -0.4400 -0.8980 -0.0000
vn 0.3131 -0.9497 -0.0000
vn 0.3193 -0.9476 0.0041
vn 0.7706 -0.6373 -0.0031
vn 0.7734 -0.6339 -0.0000
vn 0.9260 -0.3775 -0.0000
vn 1.0000 -0.0016 -0.0000
vn 1.0000 -0.0000 0.0054
vn -0.0000 -0.9998 0.0176
vn 0.1417 -0.9894 -0.0328
vn 0.2005 -0.9797 -0.0000
vn 0.5223 -0.8528 -0.0000
vn 0.5223 -0.8527 -0.0000
vn 0.8528 -0.5222 -0.0000
vn 0.7744 0.6327 -0.0000
vn 0.5232 0.8522 -0.0000
vn 0.9839 0.1784 -0.0000
vn 0.9839 0.1785 -0.0000
vn 0.9562 0.2926 -0.0000
vn 0.7103 0.7039 -0.0000
vn 0.7145 0.6996 -0.0049
vn 0.2928 0.9560 0.0190
vn 0.2263 0.9736 -0.0297
vn 0.2001 0.9798 -0.0000
vn -0.1724 0.9850 -0.0000
vn -0.1695 0.9855 -0.0060
vn -0.6267 0.7793 -0.0036
vn -0.6308 0.7760 -0.0000
vn -0.5919 -0.8060 -0.0000
vn -0.2005 -0.9797 -0.0000
vn 0.1878 -0.9822 -0.0000
vn 0.1922 -0.9813 0.0049
vn 0.6705 -0.7419 -0.0029
vn 0.6747 -0.7381 -0.0000
vn 0.9342 -0.3567 -0.0000
vn 0.9417 -0.3360 0.0141
vn 0.9998 -0.0029 -0.0176
vn 0.9959 0.0903 -0.0000
vn 0.5223 0.8528 -0.0000
vn 0.3283 0.9446 -0.0000
vn 0.3304 0.9439 -0.0015
vn -0.3991 0.9169 0.0105
vn -0.9259 0.3777 0.0013
vn -0.9253 0.3792 -0.0000
vn -0.9840 0.1784 -0.0000
vn -0.0010 1.0000 -0.0000
vn -0.0000 1.0000 -0.0050
vn -0.7089 0.7051 0.0193
vn -0.7393 0.6732 -0.0182
vn -0.9869 0.1611 0.0055
vn -0.9854 0.1702 -0.0000
vn -0.1996 -0.9799 -0.0000
vn -0.5925 0.8056 -0.0000
vn -0.5925 0.8055 -0.0000
vn -0.9909 0.1347 -0.0000
vn -0.9798 -0.2000 -0.0000
vn -0.8531 -0.5217 -0.0000
s 0
f 1//1 2//1 26//1
f 26//2 2//2 25//2
f 25//3 2//3 3//3
f 25//3 3//3 24//3
f 24//4 3//4 4//4
f 24//4 4//4 23//4
f 23//5 4//5 5//5
f 23//5 5//5 22//5
f 22//6 5//6 6//6
f 22//6 6//6 21//6
f 21//7 6//7 7//7
f 21//7 7//7 20//7
f 20//8 7//8 8//8
f 20//8 8//8 19//8
f 19//9 8//9 9//9
f 19//9 9//9 18//9
f 18//10 9//10 10//10
f 18//10 10//10 17//10
f 17//11 10//11 11//11
f 17//11 11//11 16//11
f 16//12 11//12 12//12
f 16//12 12//12 15//12
f 15//13 12//13 13//13
f 15//13 13//13 14//13
f 28//14 29//14 27//14
f 27//14 29//14 30//14
f 32//15 33//15 31//15
f 31//15 33//15 34//15
f 35//15 1//15 36//15
f 36//15 1//15 26//15
f 82//16 83//16 81//16
f 81//16 83//16 84//16
f 85//17 86//17 108//17
f 108//17 86//17 107//17
f 107//18 86//18 87//18
f 107//18 87//18 106//18
f 106//19 87//19 88//19
f 106//19 88//19 105//19
f 105//20 88//20 89//20
f 105//20 89//20 104//20
f 104//21 89//21 90//21
f 104//21 90//21 103//21
f 103//22 90//22 91//22
f 103//22 91//22 102//22
f 102//1 91//1 92//1
f 102//2 92//2 101//2
f 101//3 92//3 93//3
f 101//3 93//3 100//3
f 100//4 93//4 94//4
f 100//4 94//4 99//4
f 99//5 94//5 95//5
f 99//5 95//5 98//5
f 98//6 95//6 96//6
f 98//6 96//6 97//6
f 97//7 96//7 30//7
f 97//7 30//7 29//7
f 110//23 111//23 109//23
f 109//23 111//23 112//23
f 25//24 132//24 26//24
f 26//24 132//24 133//24
f 26//24 133//24 134//24
f 132//24 25//24 131//24
f 131//24 25//24 24//24
f 131//24 24//24 130//24
f 130//24 24//24 23//24
f 130//24 23//24 129//24
f 129//24 23//24 128//24
f 128//24 23//24 22//24
f 128//24 22//24 127//24
f 127//24 22//24 21//24
f 127//24 21//24 126//24
f 126//24 21//24 20//24
f 126//24 20//24 125//24
f 125//24 20//24 19//24
f 125//24 19//24 124//24
f 124//24 19//24 18//24
f 124//24 18//24 123//24
f 123//24 18//24 17//24
f 123//24 17//24 16//24
f 123//24 16//24 122//24
f 122//24 16//24 15//24
f 122//24 15//24 121//24
f 121//24 15//24 14//24
f 121//24 14//24 120//24
f 120//24 14//24 119//24
f 119//24 14//24 118//24
f 118//24 14//24 113//24
f 118//24 113//24 117//24
f 117//24 113//24 114//24
f 117//24 114//24 140//24
f 140//24 114//24 139//24
f 139//24 114//24 115//24
f 139//24 115//24 138//24
f 138//24 115//24 137//24
f 137//24 115//24 116//24
f 137//24 116//24 136//24
f 136//24 116//24 135//24
f 135//24 116//24 36//24
f 135//24 36//24 134//24
f 134//24 36//24 26//24
f 141//25 142//25 167//25
f 167//26 142//26 143//26
f 167//27 143//27 166//27
f 166//28 143//28 144//28
f 166//29 144//29 165//29
f 165//30 144//30 145//30
f 165//31 145//31 164//31
f 164//32 145//32 163//32
f 163//33 145//33 146//33
f 163//34 146//34 162//34
f 162//35 146//35 147//35
f 162//36 147//36 161//36
f 161//37 147//37 148//37
f 161//38 148//38 160//38
f 160//39 148//39 149//39
f 160//40 149//40 159//40
f 159//41 149//41 150//41
f 159//42 150//42 158//42
f 158//43 150//43 157//43
f 157//44 150//44 151//44
f 157//45 151//45 156//45
f 156//46 151//46 152//46
f 156//47 152//47 155//47
f 155//48 152//48 153//48
f 155//49 153//49 154//49
f 113//23 14//23 168//23
f 168//23 14//23 13//23
f 169//50 170//50 172//50
f 172//50 170//50 171//50
f 173//51 174//51 193//51
f 193//52 174//52 175//52
f 193//53 175//53 192//53
f 192//54 175//54 176//54
f 192//55 176//55 191//55
f 191//56 176//56 177//56
f 191//57 177//57 31//57
f 31//58 177//58 32//58
f 32//59 177//59 178//59
f 32//60 178//60 190//60
f 190//61 178//61 179//61
f 190//62 179//62 189//62
f 189//63 179//63 180//63
f 189//64 180//64 188//64
f 188//65 180//65 181//65
f 188//66 181//66 109//66
f 109//67 181//67 182//67
f 109//68 182//68 110//68
f 110//69 182//69 187//69
f 187//70 182//70 183//70
f 187//71 183//71 186//71
f 186//72 183//72 184//72
f 186//73 184//73 185//73
f 185//74 184//74 82//74
f 185//75 82//75 81//75
f 190//24 217//24 32//24
f 32//24 217//24 218//24
f 32//24 218//24 33//24
f 33//24 218//24 219//24
f 33//24 219//24 220//24
f 189//24 215//24 190//24
f 190//24 215//24 216//24
f 190//24 216//24 217//24
f 188//24 213//24 189//24
f 189//24 213//24 214//24
f 189//24 214//24 215//24
f 109//24 211//24 188//24
f 188//24 211//24 212//24
f 188//24 212//24 213//24
f 211//24 109//24 210//24
f 210//24 109//24 112//24
f 210//24 112//24 209//24
f 209//24 112//24 208//24
f 208//24 112//24 207//24
f 207//24 112//24 194//24
f 207//24 194//24 206//24
f 206//24 194//24 195//24
f 206//24 195//24 205//24
f 205//24 195//24 196//24
f 205//24 196//24 197//24
f 205//24 197//24 228//24
f 228//24 197//24 198//24
f 228//24 198//24 227//24
f 227//24 198//24 199//24
f 227//24 199//24 226//24
f 226//24 199//24 200//24
f 226//24 200//24 225//24
f 225//24 200//24 201//24
f 225//24 201//24 224//24
f 224//24 201//24 202//24
f 224//24 202//24 223//24
f 223//24 202//24 222//24
f 222//24 202//24 203//24
f 222//24 203//24 221//24
f 221//24 203//24 204//24
f 221//24 204//24 220//24
f 220//24 204//24 33//24
f 84//76 83//76 249//76
f 249//77 83//77 229//77
f 249//78 229//78 248//78
f 248//79 229//79 230//79
f 248//80 230//80 247//80
f 247//81 230//81 231//81
f 247//82 231//82 27//82
f 27//83 231//83 28//83
f 28//84 231//84 232//84
f 28//85 232//85 246//85
f 246//86 232//86 233//86
f 246//87 233//87 245//87
f 245//88 233//88 234//88
f 245//89 234//89 244//89
f 244//90 234//90 235//90
f 244//91 235//91 243//91
f 243//92 235//92 236//92
f 243//93 236//93 242//93
f 242//94 236//94 241//94
f 241//95 236//95 237//95
f 241//96 237//96 240//96
f 240//97 237//97 238//97
f 240//98 238//98 239//98
f 239//99 238//99 170//99
f 239//100 170//100 169//100
f 172//101 171//101 267//101
f 267//102 171//102 250//102
f 267//103 250//103 266//103
f 266//104 250//104 251//104
f 266//105 251//105 265//105
f 265//106 251//106 252//106
f 265//107 252//107 168//107
f 168//108 252//108 113//108
f 113//109 252//109 253//109
f 113//110 253//110 114//110
f 114//111 253//111 254//111
f 114//112 254//112 115//112
f 115//113 254//113 255//113
f 115//114 255//114 116//114
f 116//115 255//115 256//115
f 116//116 256//116 36//116
f 36//117 256//117 257//117
f 36//118 257//118 35//118
f 35//119 257//119 264//119
f 264//120 257//120 258//120
f 264//121 258//121 263//121
f 263//122 258//122 259//122
f 263//123 259//123 262//123
f 262//124 259//124 260//124
f 262//125 260//125 261//125
f 162//24 299//24 163//24
f 163//24 299//24 300//24
f 163//24 300//24 280//24
f 280//24 300//24 301//24
f 280//24 301//24 302//24
f 161//24 297//24 162//24
f 162//24 297//24 298//24
f 162//24 298//24 299//24
f 160//24 295//24 161//24
f 161//24 295//24 296//24
f 161//24 296//24 297//24
f 159//24 293//24 160//24
f 160//24 293//24 294//24
f 160//24 294//24 295//24
f 293//24 159//24 292//24
f 292//24 159//24 268//24
f 292//24 268//24 291//24
f 291//24 268//24 290//24
f 290//24 268//24 289//24
f 289//24 268//24 269//24
f 289//24 269//24 288//24
f 288//24 269//24 270//24
f 288//24 270//24 287//24
f 287//24 270//24 271//24
f 287//24 271//24 272//24
f 287//24 272//24 286//24
f 286//24 272//24 273//24
f 286//24 273//24 285//24
f 285//24 273//24 274//24
f 285//24 274//24 284//24
f 284//24 274//24 275//24
f 284//24 275//24 283//24
f 283//24 275//24 276//24
f 283//24 276//24 282//24
f 282//24 276//24 277//24
f 282//24 277//24 281//24
f 281//24 277//24 304//24
f 304//24 277//24 278//24
f 304//24 278//24 303//24
f 303//24 278//24 279//24
f 303//24 279//24 302//24
f 302//24 279//24 280//24
f 246//24 311//24 28//24
f 28//24 311//24 312//24
f 28//24 312//24 29//24
f 29//24 312//24 313//24
f 29//24 313//24 314//24
f 245//24 309//24 246//24
f 246//24 309//24 310//24
f 246//24 310//24 311//24
f 244//24 307//24 245//24
f 245//24 307//24 308//24
f 245//24 308//24 309//24
f 243//24 305//24 244//24
f 244//24 305//24 306//24
f 244//24 306//24 307//24
f 305//24 243//24 328//24
f 328//24 243//24 108//24
f 328//24 108//24 327//24
f 327//24 108//24 326//24
f 326//24 108//24 107//24
f 326//24 107//24 325//24
f 325//24 107//24 106//24
f 325//24 106//24 324//24
f 324//24 106//24 105//24
f 324//24 105//24 323//24
f 323//24 105//24 322//24
f 322//24 105//24 104//24
f 322//24 104//24 321//24
f 321//24 104//24 103//24
f 321//24 103//24 320//24
f 320//24 103//24 102//24
f 320//24 102//24 319//24
f 319//24 102//24 101//24
f 319//24 101//24 318//24
f 318//24 101//24 100//24
f 318//24 100//24 317//24
f 317//24 100//24 99//24
f 317//24 99//24 98//24
f 317//24 98//24 316//24
f 316//24 98//24 97//24
f 316//24 97//24 315//24
f 315//24 97//24 29//24
f 315//24 29//24 314//24
f 153//126 174//126 154//126
f 154//126 174//126 173//126
f 163//127 280//127 164//127
f 164//127 280//127 329//127
f 111//128 330//128 112//128
f 112//128 330//128 194//128
f 194//129 330//129 331//129
f 194//129 331//129 195//129
f 195//130 331//130 332//130
f 195//130 332//130 196//130
f 196//131 332//131 333//131
f 196//131 333//131 197//131
f 197//132 333//132 334//132
f 197//132 334//132 198//132
f 198//133 334//133 335//133
f 198//133 335//133 199//133
f 199//17 335//17 336//17
f 199//17 336//17 200//17
f 200//18 336//18 337//18
f 200//18 337//18 201//18
f 201//19 337//19 338//19
f 201//19 338//19 202//19
f 202//20 338//20 339//20
f 202//20 339//20 203//20
f 203//21 339//21 340//21
f 203//21 340//21 204//21
f 204//22 340//22 34//22
f 204//22 34//22 33//22
f 242//127 85//127 243//127
f 243//127 85//127 108//127
f 341//134 342//134 268//134
f 268//134 342//134 269//134
f 269//9 342//9 343//9
f 269//9 343//9 270//9
f 270//10 343//10 344//10
f 270//10 344//10 271//10
f 271//11 344//11 345//11
f 271//11 345//11 272//11
f 272//12 345//12 346//12
f 272//12 346//12 273//12
f 273//135 346//135 347//135
f 273//135 347//135 274//135
f 274//128 347//128 348//128
f 274//128 348//128 275//128
f 275//129 348//129 349//129
f 275//129 349//129 276//129
f 276//130 349//130 350//130
f 276//130 350//130 277//130
f 277//131 350//131 351//131
f 277//131 351//131 278//131
f 278//132 351//132 352//132
f 278//132 352//132 279//132
f 279//133 352//133 329//133
f 279//133 329//133 280//133
f 38//136 37//136 260//136
f 260//136 37//136 142//136
f 142//137 37//137 143//137
f 143//138 37//138 80//138
f 143//139 80//139 144//139
f 144//140 80//140 79//140
f 144//141 79//141 145//141
f 145//142 79//142 78//142
f 145//143 78//143 146//143
f 146//144 78//144 77//144
f 146//145 77//145 147//145
f 147//146 77//146 76//146
f 147//147 76//147 148//147
f 148//148 76//148 75//148
f 148//149 75//149 149//149
f 149//150 75//150 74//150
f 149//151 74//151 150//151
f 150//152 74//152 73//152
f 150//153 73//153 151//153
f 151//154 73//154 72//154
f 151//155 72//155 152//155
f 152//156 72//156 71//156
f 152//157 71//157 153//157
f 71//158 70//158 153//158
f 153//158 70//158 174//158
f 174//159 70//159 175//159
f 175//160 70//160 69//160
f 175//161 69//161 176//161
f 176//162 69//162 68//162
f 176//163 68//163 177//163
f 177//164 68//164 67//164
f 177//165 67//165 178//165
f 178//166 67//166 66//166
f 178//167 66//167 179//167
f 179//168 66//168 65//168
f 179//169 65//169 180//169
f 180//170 65//170 64//170
f 180//171 64//171 181//171
f 181//172 64//172 63//172
f 181//173 63//173 182//173
f 182//174 63//174 62//174
f 182//175 62//175 183//175
f 183//176 62//176 61//176
f 183//177 61//177 184//177
f 184//178 61//178 60//178
f 184//179 60//179 82//179
f 60//180 59//180 82//180
f 82//180 59//180 83//180
f 83//181 59//181 229//181
f 229//182 59//182 58//182
f 229//183 58//183 230//183
f 230//184 58//184 57//184
f 230//185 57//185 231//185
f 231//186 57//186 56//186
f 231//187 56//187 232//187
f 232//188 56//188 55//188
f 232//189 55//189 233//189
f 233//190 55//190 54//190
f 233//191 54//191 234//191
f 234//192 54//192 53//192
f 234//193 53//193 235//193
f 235//194 53//194 52//194
f 235//195 52//195 236//195
f 236//196 52//196 51//196
f 236//197 51//197 237//197
f 237//198 51//198 50//198
f 237//199 50//199 238//199
f 238//200 50//200 49//200
f 238//201 49//201 170//201
f 49//202 48//202 170//202
f 170//203 48//203 171//203
f 171//204 48//204 250//204
f 250//205 48//205 47//205
f 250//206 47//206 251//206
f 251//207 47//207 46//207
f 251//208 46//208 252//208
f 252//209 46//209 45//209
f 252//210 45//210 253//210
f 253//211 45//211 44//211
f 253//212 44//212 254//212
f 254//213 44//213 43//213
f 254//214 43//214 255//214
f 255//215 43//215 42//215
f 255//216 42//216 256//216
f 256//217 42//217 41//217
f 256//218 41//218 257//218
f 257//219 41//219 40//219
f 257//220 40//220 258//220
f 258//221 40//221 39//221
f 258//222 39//222 259//222
f 259//223 39//223 38//223
f 259//224 38//224 260//224
f 261//225 260//225 141//225
f 141//225 260//225 142//225
f 173//24 337//24 154//24
f 154//24 337//24 345//24
f 154//24 345//24 344//24
f 193//24 34//24 173//24
f 173//24 34//24 340//24
f 173//24 340//24 339//24
f 193//24 192//24 34//24
f 34//24 192//24 191//24
f 34//24 191//24 31//24
f 339//24 338//24 173//24
f 173//24 338//24 337//24
f 337//24 336//24 345//24
f 345//24 336//24 346//24
f 346//24 336//24 448//24
f 346//24 448//24 410//24
f 410//24 448//24 449//24
f 335//24 499//24 336//24
f 336//24 499//24 494//24
f 336//24 494//24 467//24
f 467//24 494//24 495//24
f 467//24 495//24 466//24
f 466//24 495//24 452//24
f 499//24 335//24 498//24
f 498//24 335//24 334//24
f 498//24 334//24 333//24
f 332//24 81//24 333//24
f 333//24 81//24 84//24
f 333//24 84//24 93//24
f 93//24 84//24 94//24
f 94//24 84//24 95//24
f 95//24 84//24 96//24
f 96//24 84//24 30//24
f 30//24 84//24 249//24
f 30//24 249//24 248//24
f 332//24 331//24 81//24
f 81//24 331//24 330//24
f 81//24 330//24 111//24
f 110//24 187//24 111//24
f 111//24 187//24 186//24
f 111//24 186//24 185//24
f 185//24 81//24 111//24
f 248//24 247//24 30//24
f 30//24 247//24 27//24
f 92//24 497//24 93//24
f 93//24 497//24 498//24
f 93//24 498//24 333//24
f 92//24 91//24 497//24
f 497//24 91//24 496//24
f 496//24 91//24 90//24
f 496//24 90//24 89//24
f 88//24 525//24 89//24
f 89//24 525//24 526//24
f 89//24 526//24 496//24
f 496//24 526//24 527//24
f 496//24 527//24 536//24
f 536//24 527//24 528//24
f 536//226 528//226 535//226
f 535//24 528//24 534//24
f 534//24 528//24 529//24
f 534//24 529//24 531//24
f 531//24 529//24 530//24
f 525//24 88//24 169//24
f 169//24 88//24 87//24
f 169//24 87//24 86//24
f 86//24 85//24 169//24
f 169//24 85//24 239//24
f 239//24 85//24 240//24
f 240//24 85//24 241//24
f 241//24 85//24 242//24
f 172//24 365//24 169//24
f 169//24 365//24 366//24
f 169//24 366//24 367//24
f 267//24 13//24 172//24
f 172//24 13//24 12//24
f 172//24 12//24 11//24
f 267//24 266//24 13//24
f 13//24 266//24 265//24
f 13//24 265//24 168//24
f 11//24 10//24 172//24
f 172//24 10//24 562//24
f 172//24 562//24 563//24
f 10//24 9//24 562//24
f 562//24 9//24 8//24
f 562//24 8//24 561//24
f 561//24 8//24 560//24
f 560//24 8//24 7//24
f 560//24 7//24 559//24
f 559//24 7//24 6//24
f 559//24 6//24 5//24
f 4//24 261//24 5//24
f 5//24 261//24 141//24
f 5//24 141//24 349//24
f 349//24 141//24 350//24
f 350//24 141//24 351//24
f 351//24 141//24 352//24
f 352//24 141//24 329//24
f 329//24 141//24 167//24
f 329//24 167//24 166//24
f 4//24 3//24 261//24
f 261//24 3//24 2//24
f 261//24 2//24 1//24
f 35//24 264//24 1//24
f 1//24 264//24 263//24
f 1//24 263//24 262//24
f 262//24 261//24 1//24
f 166//24 165//24 329//24
f 329//24 165//24 164//24
f 348//24 558//24 349//24
f 349//24 558//24 559//24
f 349//24 559//24 5//24
f 558//24 348//24 557//24
f 557//24 348//24 347//24
f 557//24 347//24 346//24
f 344//24 343//24 154//24
f 154//24 343//24 342//24
f 154//24 342//24 341//24
f 158//24 157//24 341//24
f 341//24 157//24 156//24
f 341//24 156//24 155//24
f 155//24 154//24 341//24
f 353//24 354//24 390//24
f 390//24 354//24 355//24
f 390//24 355//24 565//24
f 565//24 355//24 356//24
f 565//24 356//24 564//24
f 564//24 356//24 357//24
f 564//24 357//24 358//24
f 564//24 358//24 563//24
f 563//24 358//24 359//24
f 563//24 359//24 172//24
f 172//24 359//24 360//24
f 172//24 360//24 361//24
f 361//24 362//24 172//24
f 172//24 362//24 363//24
f 363//24 364//24 172//24
f 172//24 364//24 365//24
f 367//24 368//24 169//24
f 169//24 368//24 369//24
f 169//24 369//24 370//24
f 169//24 370//24 371//24
f 169//24 371//24 518//24
f 518//24 371//24 517//24
f 517//24 371//24 372//24
f 517//24 372//24 373//24
f 374//24 515//24 373//24
f 373//24 515//24 516//24
f 373//24 516//24 517//24
f 374//24 375//24 515//24
f 515//24 375//24 379//24
f 515//24 379//24 514//24
f 514//24 379//24 513//24
f 513//24 379//24 380//24
f 513//24 380//24 483//24
f 483//24 380//24 482//24
f 482//24 380//24 474//24
f 482//24 474//24 475//24
f 375//24 376//24 379//24
f 379//24 376//24 377//24
f 379//24 377//24 378//24
f 380//24 381//24 474//24
f 474//24 381//24 382//24
f 474//24 382//24 473//24
f 473//24 382//24 383//24
f 473//24 383//24 435//24
f 435//24 383//24 384//24
f 435//24 384//24 434//24
f 434//24 384//24 433//24
f 433//24 384//24 385//24
f 433//24 385//24 432//24
f 432//24 385//24 431//24
f 431//24 385//24 394//24
f 431//24 394//24 430//24
f 430//24 394//24 395//24
f 430//24 395//24 429//24
f 429//24 395//24 396//24
f 429//24 396//24 428//24
f 428//24 396//24 397//24
f 428//24 397//24 427//24
f 427//24 397//24 398//24
f 427//24 398//24 399//24
f 394//24 385//24 393//24
f 393//24 385//24 386//24
f 393//24 386//24 392//24
f 392//24 386//24 387//24
f 392//24 387//24 539//24
f 539//24 387//24 538//24
f 538//24 387//24 388//24
f 538//24 388//24 389//24
f 538//24 389//24 537//24
f 537//24 389//24 390//24
f 537//24 390//24 566//24
f 566//24 390//24 565//24
f 392//24 416//24 391//24
f 391//24 416//24 417//24
f 391//24 417//24 421//24
f 421//24 417//24 418//24
f 421//24 418//24 420//24
f 420//24 418//24 419//24
f 400//24 425//24 399//24
f 399//24 425//24 426//24
f 399//24 426//24 427//24
f 401//24 405//24 400//24
f 400//24 405//24 406//24
f 401//24 402//24 405//24
f 405//24 402//24 404//24
f 404//24 402//24 403//24
f 407//24 424//24 406//24
f 406//24 424//24 425//24
f 406//24 425//24 400//24
f 408//24 422//24 407//24
f 407//24 422//24 423//24
f 407//24 423//24 424//24
f 422//24 408//24 451//24
f 451//24 408//24 409//24
f 451//24 409//24 450//24
f 450//24 409//24 449//24
f 449//24 409//24 410//24
f 346//24 410//24 557//24
f 557//24 410//24 411//24
f 557//24 411//24 556//24
f 556//24 411//24 412//24
f 413//24 554//24 412//24
f 412//24 554//24 555//24
f 412//24 555//24 556//24
f 414//24 551//24 413//24
f 413//24 551//24 552//24
f 415//24 548//24 414//24
f 414//24 548//24 549//24
f 414//24 549//24 550//24
f 416//24 541//24 415//24
f 415//24 541//24 542//24
f 415//24 542//24 543//24
f 435//24 436//24 473//24
f 473//24 436//24 472//24
f 472//24 436//24 437//24
f 472//24 437//24 471//24
f 471//24 437//24 438//24
f 471//24 438//24 439//24
f 439//24 440//24 471//24
f 471//24 440//24 441//24
f 471//24 441//24 470//24
f 470//24 441//24 442//24
f 470//24 442//24 443//24
f 443//24 444//24 470//24
f 470//24 444//24 469//24
f 469//24 444//24 445//24
f 469//24 445//24 468//24
f 468//24 445//24 446//24
f 468//24 446//24 447//24
f 448//24 467//24 447//24
f 447//24 467//24 468//24
f 467//24 448//24 336//24
f 453//24 464//24 452//24
f 452//24 464//24 465//24
f 452//24 465//24 466//24
f 453//24 454//24 464//24
f 464//24 454//24 463//24
f 463//24 454//24 462//24
f 462//24 454//24 455//24
f 462//24 455//24 461//24
f 461//24 455//24 460//24
f 460//24 455//24 459//24
f 459//24 455//24 456//24
f 459//24 456//24 458//24
f 458//24 456//24 457//24
f 482//24 475//24 481//24
f 481//24 475//24 476//24
f 481//24 476//24 477//24
f 481//24 477//24 480//24
f 480//24 477//24 478//24
f 480//24 478//24 479//24
f 513//24 483//24 512//24
f 512//24 483//24 484//24
f 512//24 484//24 485//24
f 512//24 485//24 509//24
f 509//24 485//24 486//24
f 509//24 486//24 508//24
f 508//24 486//24 487//24
f 508//24 487//24 507//24
f 507//24 487//24 488//24
f 507//24 488//24 506//24
f 506//24 488//24 489//24
f 506//24 489//24 505//24
f 505//24 489//24 490//24
f 505//24 490//24 504//24
f 504//24 490//24 503//24
f 503//24 490//24 491//24
f 503//24 491//24 502//24
f 502//24 491//24 492//24
f 502//24 492//24 501//24
f 501//24 492//24 493//24
f 501//24 493//24 500//24
f 500//24 493//24 494//24
f 499//24 500//24 494//24
f 509//24 510//24 512//24
f 512//24 510//24 511//24
f 519//226 524//226 518//226
f 518//227 524//227 525//227
f 518//24 525//24 169//24
f 519//228 520//228 524//228
f 524//226 520//226 523//226
f 523//24 520//24 522//24
f 522//24 520//24 521//24
f 534//24 531//24 533//24
f 533//24 531//24 532//24
f 392//24 539//24 416//24
f 416//24 539//24 540//24
f 416//24 540//24 541//24
f 544//24 546//24 543//24
f 543//24 546//24 547//24
f 543//24 547//24 415//24
f 415//24 547//24 548//24
f 544//24 545//24 546//24
f 550//24 551//24 414//24
f 553//24 554//24 552//24
f 552//24 554//24 413//24
f 568//24 599//24 567//24
f 567//24 599//24 600//24
f 567//24 600//24 604//24
f 604//24 600//24 603//24
f 603//24 600//24 602//24
f 602//24 600//24 601//24
f 599//24 568//24 573//24
f 573//24 568//24 569//24
f 569//24 570//24 573//24
f 573//228 570//228 571//228
f 573//226 571//226 572//226
f 573//24 574//24 599//24
f 599//24 574//24 583//24
f 599//24 583//24 590//24
f 590//24 583//24 586//24
f 590//24 586//24 587//24
f 583//24 574//24 582//24
f 582//24 574//24 575//24
f 575//24 576//24 582//24
f 582//24 576//24 577//24
f 582//24 577//24 578//24
f 582//24 578//24 581//24
f 581//24 578//24 579//24
f 581//24 579//24 580//24
f 583//24 584//24 585//24
f 583//24 585//24 586//24
f 587//226 588//226 590//226
f 590//228 588//228 589//228
f 590//24 591//24 599//24
f 599//24 591//24 598//24
f 598//24 591//24 597//24
f 597//24 591//24 596//24
f 596//24 591//24 595//24
f 595//24 591//24 594//24
f 594//24 591//24 593//24
f 593//24 591//24 592//24
f 354//229 353//229 598//229
f 598//50 353//50 599//50
f 353//16 390//16 599//16
f 599//230 390//230 600//230
f 600//231 390//231 389//231
f 600//232 389//232 601//232
f 601//233 389//233 388//233
f 601//234 388//234 602//234
f 602//234 388//234 387//234
f 602//235 387//235 603//235
f 603//235 387//235 386//235
f 603//236 386//236 604//236
f 604//237 386//237 385//237
f 604//238 385//238 567//238
f 385//239 384//239 567//239
f 567//240 384//240 568//240
f 568//241 384//241 383//241
f 568//242 383//242 569//242
f 569//243 383//243 382//243
f 569//244 382//244 570//244
f 570//244 382//244 381//244
f 570//245 381//245 571//245
f 571//245 381//245 380//245
f 571//246 380//246 572//246
f 572//247 380//247 379//247
f 572//248 379//248 573//248
f 379//249 378//249 573//249
f 573//225 378//225 574//225
f 378//50 377//50 574//50
f 574//250 377//250 575//250
f 575//241 377//241 376//241
f 575//242 376//242 576//242
f 576//243 376//243 375//243
f 576//244 375//244 577//244
f 577//244 375//244 374//244
f 577//245 374//245 578//245
f 578//245 374//245 373//245
f 578//246 373//246 579//246
f 579//246 373//246 372//246
f 579//251 372//251 580//251
f 580//251 372//251 371//251
f 580//252 371//252 581//252
f 581//253 371//253 370//253
f 581//254 370//254 582//254
f 370//255 369//255 582//255
f 582//256 369//256 583//256
f 583//257 369//257 368//257
f 583//258 368//258 584//258
f 584//259 368//259 367//259
f 584//260 367//260 585//260
f 585//261 367//261 366//261
f 585//262 366//262 586//262
f 586//263 366//263 365//263
f 586//264 365//264 587//264
f 587//265 365//265 364//265
f 587//266 364//266 588//266
f 588//267 364//267 363//267
f 588//133 363//133 589//133
f 589//268 363//268 362//268
f 589//269 362//269 590//269
f 362//270 361//270 590//270
f 590//271 361//271 591//271
f 591//272 361//272 360//272
f 591//273 360//273 592//273
f 592//274 360//274 359//274
f 592//275 359//275 593//275
f 593//275 359//275 358//275
f 593//233 358//233 594//233
f 594//233 358//233 357//233
f 594//234 357//234 595//234
f 595//234 357//234 356//234
f 595//235 356//235 596//235
f 596//235 356//235 355//235
f 596//236 355//236 597//236
f 597//237 355//237 354//237
f 597//238 354//238 598//238
f 606//24 607//24 605//24
f 605//24 607//24 608//24
f 605//24 608//24 634//24
f 634//24 608//24 632//24
f 634//24 632//24 633//24
f 608//24 609//24 632//24
f 632//24 609//24 631//24
f 631//24 609//24 626//24
f 626//24 609//24 610//24
f 626//24 610//24 611//24
f 611//24 612//24 626//24
f 626//24 612//24 625//24
f 625//24 612//24 624//24
f 624//24 612//24 623//24
f 623//24 612//24 613//24
f 623//24 613//24 622//24
f 622//24 613//24 614//24
f 622//24 614//24 621//24
f 621//24 614//24 615//24
f 621//24 615//24 616//24
f 616//24 617//24 621//24
f 621//24 617//24 620//24
f 620//24 617//24 618//24
f 620//24 618//24 619//24
f 626//24 627//24 631//24
f 631//24 627//24 628//24
f 631//24 628//24 629//24
f 629//24 630//24 631//24
f 392//276 391//276 622//276
f 622//277 391//277 623//277
f 391//278 421//278 623//278
f 623//278 421//278 624//278
f 421//279 420//279 624//279
f 624//279 420//279 625//279
f 420//280 419//280 625//280
f 625//280 419//280 626//280
f 419//281 418//281 626//281
f 626//282 418//282 627//282
f 418//283 417//283 627//283
f 627//284 417//284 628//284
f 417//285 416//285 628//285
f 628//285 416//285 629//285
f 416//286 415//286 629//286
f 629//286 415//286 630//286
f 415//287 414//287 630//287
f 630//287 414//287 631//287
f 414//16 413//16 631//16
f 631//16 413//16 632//16
f 413//288 412//288 632//288
f 632//288 412//288 633//288
f 412//289 411//289 633//289
f 633//290 411//290 634//290
f 411//291 410//291 634//291
f 634//292 410//292 605//292
f 410//293 409//293 605//293
f 605//293 409//293 606//293
f 409//294 408//294 606//294
f 606//294 408//294 607//294
f 408//295 407//295 607//295
f 607//296 407//296 608//296
f 407//297 406//297 608//297
f 608//298 406//298 609//298
f 406//299 405//299 609//299
f 609//300 405//300 610//300
f 405//301 404//301 610//301
f 610//302 404//302 611//302
f 611//303 404//303 612//303
f 404//304 403//304 612//304
f 403//305 402//305 612//305
f 612//306 402//306 613//306
f 613//307 402//307 614//307
f 402//308 401//308 614//308
f 401//309 400//309 614//309
f 614//310 400//310 615//310
f 400//50 399//50 615//50
f 615//50 399//50 616//50
f 399//311 398//311 616//311
f 616//311 398//311 617//311
f 398//312 397//312 617//312
f 617//312 397//312 618//312
f 397//313 396//313 618//313
f 618//313 396//313 619//313
f 396//314 395//314 619//314
f 619//314 395//314 620//314
f 395//315 394//315 620//315
f 620//315 394//315 621//315
f 394//316 393//316 621//316
f 621//317 393//317 622//317
f 393//318 392//318 622//318
f 666//24 635//24 636//24
f 666//24 636//24 665//24
f 665//24 636//24 681//24
f 681//24 636//24 637//24
f 681//24 637//24 638//24
f 638//24 639//24 681//24
f 681//24 639//24 680//24
f 680//24 639//24 640//24
f 680//24 640//24 641//24
f 680//24 641//24 679//24
f 679//24 641//24 642//24
f 679//24 642//24 643//24
f 679//24 643//24 678//24
f 678//24 643//24 644//24
f 678//24 644//24 645//24
f 678//24 645//24 677//24
f 677//24 645//24 646//24
f 677//24 646//24 647//24
f 647//24 648//24 677//24
f 677//24 648//24 676//24
f 676//24 648//24 649//24
f 676//24 649//24 675//24
f 675//24 649//24 650//24
f 675//24 650//24 651//24
f 675//24 651//24 674//24
f 674//24 651//24 652//24
f 674//24 652//24 673//24
f 673//24 652//24 653//24
f 673//24 653//24 672//24
f 672//24 653//24 654//24
f 672//24 654//24 655//24
f 672//24 655//24 656//24
f 672//24 656//24 671//24
f 671//24 656//24 657//24
f 671//24 657//24 658//24
f 671//24 658//24 670//24
f 670//24 658//24 659//24
f 670//24 659//24 660//24
f 670//24 660//24 661//24
f 670//24 661//24 669//24
f 669//24 661//24 662//24
f 669//24 662//24 663//24
f 669//24 663//24 668//24
f 668//24 663//24 664//24
f 668//24 664//24 667//24
f 667//24 664//24 635//24
f 667//24 635//24 666//24
f 699//24 682//24 692//24
f 692//24 682//24 683//24
f 692//24 683//24 691//24
f 691//24 683//24 689//24
f 691//24 689//24 690//24
f 684//24 686//24 683//24
f 683//24 686//24 687//24
f 683//24 687//24 688//24
f 684//226 685//226 686//226
f 688//24 689//24 683//24
f 692//24 693//24 699//24
f 699//24 693//24 698//24
f 698//24 693//24 697//24
f 697//24 693//24 696//24
f 696//24 693//24 695//24
f 695//24 693//24 694//24
f 694//319 693//319 681//319
f 681//319 693//319 665//319
f 695//320 694//320 680//320
f 680//320 694//320 681//320
f 696//321 695//321 679//321
f 679//321 695//321 680//321
f 697//288 696//288 678//288
f 678//288 696//288 679//288
f 698//322 697//322 677//322
f 677//322 697//322 678//322
f 699//323 698//323 676//323
f 676//323 698//323 677//323
f 682//324 699//324 675//324
f 675//324 699//324 676//324
f 683//325 682//325 674//325
f 674//325 682//325 675//325
f 684//326 683//326 673//326
f 673//326 683//326 674//326
f 685//327 684//327 672//327
f 672//328 684//328 673//328
f 686//329 685//329 672//329
f 687//330 686//330 671//330
f 671//331 686//331 672//331
f 688//332 687//332 670//332
f 670//333 687//333 671//333
f 689//334 688//334 670//334
f 669//335 689//335 670//335
f 690//336 689//336 668//336
f 668//337 689//337 669//337
f 691//338 690//338 667//338
f 667//338 690//338 668//338
f 692//339 691//339 666//339
f 666//339 691//339 667//339
f 693//340 692//340 665//340
f 665//340 692//340 666//340
f 423//322 422//322 660//322
f 660//341 422//341 661//341
f 422//342 451//342 661//342
f 661//342 451//342 662//342
f 451//343 450//343 662//343
f 662//343 450//343 663//343
f 450//344 449//344 663//344
f 663//345 449//345 664//345
f 664//346 449//346 635//346
f 449//347 448//347 635//347
f 635//348 448//348 636//348
f 448//349 447//349 636//349
f 447//350 446//350 636//350
f 636//293 446//293 637//293
f 446//351 445//351 637//351
f 637//352 445//352 638//352
f 445//353 444//353 638//353
f 638//353 444//353 639//353
f 444//354 443//354 639//354
f 639//354 443//354 640//354
f 443//355 442//355 640//355
f 640//355 442//355 641//355
f 442//356 441//356 641//356
f 641//356 441//356 642//356
f 441//357 440//357 642//357
f 642//357 440//357 643//357
f 440//358 439//358 643//358
f 643//358 439//358 644//358
f 439//359 438//359 644//359
f 644//360 438//360 645//360
f 438//361 437//361 645//361
f 645//361 437//361 646//361
f 437//362 436//362 646//362
f 646//362 436//362 647//362
f 436//363 435//363 647//363
f 647//364 435//364 648//364
f 435//365 434//365 648//365
f 648//365 434//365 649//365
f 434//366 433//366 649//366
f 649//367 433//367 650//367
f 433//368 432//368 650//368
f 650//368 432//368 651//368
f 432//369 431//369 651//369
f 651//369 431//369 652//369
f 431//370 430//370 652//370
f 652//371 430//371 653//371
f 430//372 429//372 653//372
f 653//373 429//373 654//373
f 429//374 428//374 654//374
f 654//374 428//374 655//374
f 428//375 427//375 655//375
f 655//375 427//375 656//375
f 427//376 426//376 656//376
f 656//376 426//376 657//376
f 426//377 425//377 657//377
f 657//377 425//377 658//377
f 425//16 424//16 658//16
f 658//16 424//16 659//16
f 424//378 423//378 659//378
f 659//378 423//378 660//378
f 700//24 701//24 744//24
f 744//24 701//24 742//24
f 744//24 742//24 743//24
f 742//24 701//24 741//24
f 741//24 701//24 702//24
f 741//24 702//24 703//24
f 703//24 704//24 741//24
f 741//24 704//24 740//24
f 740//24 704//24 705//24
f 740//24 705//24 733//24
f 733//24 705//24 706//24
f 733//24 706//24 707//24
f 733//24 707//24 732//24
f 732//24 707//24 708//24
f 732//24 708//24 731//24
f 731//24 708//24 709//24
f 731//24 709//24 730//24
f 730//24 709//24 729//24
f 729//24 709//24 710//24
f 729//24 710//24 728//24
f 728//24 710//24 711//24
f 728//24 711//24 727//24
f 727//24 711//24 726//24
f 726//24 711//24 725//24
f 725//24 711//24 712//24
f 725//24 712//24 724//24
f 724//24 712//24 723//24
f 723//24 712//24 722//24
f 722//24 712//24 713//24
f 722//24 713//24 721//24
f 721//24 713//24 714//24
f 721//24 714//24 719//24
f 719//24 714//24 715//24
f 719//24 715//24 717//24
f 717//24 715//24 716//24
f 717//24 718//24 719//24
f 719//24 720//24 721//24
f 733//24 734//24 740//24
f 740//24 734//24 736//24
f 740//24 736//24 739//24
f 739//24 736//24 738//24
f 738//24 736//24 737//24
f 734//24 735//24 736//24
f 453//288 452//288 714//288
f 714//288 452//288 715//288
f 452//289 495//289 715//289
f 715//379 495//379 716//379
f 716//380 495//380 717//380
f 495//381 494//381 717//381
f 717//382 494//382 718//382
f 718//383 494//383 719//383
f 494//384 493//384 719//384
f 493//385 492//385 719//385
f 719//386 492//386 720//386
f 492//387 491//387 720//387
f 720//387 491//387 721//387
f 491//225 490//225 721//225
f 721//225 490//225 722//225
f 490//388 489//388 722//388
f 722//388 489//388 723//388
f 489//225 488//225 723//225
f 723//225 488//225 724//225
f 488//389 487//389 724//389
f 724//389 487//389 725//389
f 487//390 486//390 725//390
f 725//390 486//390 726//390
f 486//391 485//391 726//391
f 726//391 485//391 727//391
f 485//316 484//316 727//316
f 727//316 484//316 728//316
f 484//392 483//392 728//392
f 728//392 483//392 729//392
f 483//393 482//393 729//393
f 729//394 482//394 730//394
f 482//395 481//395 730//395
f 730//395 481//395 731//395
f 481//396 480//396 731//396
f 731//396 480//396 732//396
f 480//374 479//374 732//374
f 732//374 479//374 733//374
f 479//225 478//225 733//225
f 733//225 478//225 734//225
f 478//397 477//397 734//397
f 734//397 477//397 735//397
f 477//315 476//315 735//315
f 735//398 476//398 736//398
f 476//399 475//399 736//399
f 475//400 474//400 736//400
f 736//401 474//401 737//401
f 474//402 473//402 737//402
f 737//403 473//403 738//403
f 473//404 472//404 738//404
f 738//404 472//404 739//404
f 472//405 471//405 739//405
f 739//405 471//405 740//405
f 471//16 470//16 740//16
f 740//16 470//16 741//16
f 470//288 469//288 741//288
f 741//288 469//288 742//288
f 469//289 468//289 742//289
f 742//379 468//379 743//379
f 743//380 468//380 744//380
f 468//406 467//406 744//406
f 744//407 467//407 700//407
f 467//293 466//293 700//293
f 700//293 466//293 701//293
f 466//294 465//294 701//294
f 701//294 465//294 702//294
f 465//295 464//295 702//295
f 702//296 464//296 703//296
f 464//225 463//225 703//225
f 703//225 463//225 704//225
f 463//408 462//408 704//408
f 704//409 462//409 705//409
f 462//410 461//410 705//410
f 705//410 461//410 706//410
f 461//411 460//411 706//411
f 706//411 460//411 707//411
f 460//412 459//412 707//412
f 707//412 459//412 708//412
f 459//413 458//413 708//413
f 708//413 458//413 709//413
f 458//414 457//414 709//414
f 709//414 457//414 710//414
f 457//415 456//415 710//415
f 710//415 456//415 711//415
f 456//416 455//416 711//416
f 711//416 455//416 712//416
f 455//417 454//417 712//417
f 712//417 454//417 713//417
f 454//16 453//16 713//16
f 713//16 453//16 714//16
f 746//24 753//24 745//24
f 745//24 753//24 754//24
f 753//24 746//24 752//24
f 752//228 746//228 751//228
f 751//226 746//226 750//226
f 750//228 746//228 749//228
f 749//24 746//24 747//24
f 749//228 747//228 748//228
f 755//24 782//24 754//24
f 754//24 782//24 783//24
f 754//24 783//24 784//24
f 756//24 763//24 755//24
f 755//24 763//24 764//24
f 755//24 764//24 774//24
f 774//24 764//24 765//24
f 774//24 765//24 769//24
f 769//226 765//226 766//226
f 769//24 766//24 768//24
f 768//228 766//228 767//228
f 763//228 756//228 762//228
f 762//24 756//24 757//24
f 762//24 757//24 761//24
f 761//24 757//24 758//24
f 761//24 758//24 760//24
f 760//24 758//24 759//24
f 769//228 770//228 774//228
f 774//24 770//24 771//24
f 771//24 772//24 774//24
f 774//24 772//24 773//24
f 755//24 774//24 782//24
f 782//24 774//24 775//24
f 782//24 775//24 781//24
f 781//24 775//24 776//24
f 781//228 776//228 780//228
f 780//24 776//24 777//24
f 780//226 777//226 778//226
f 778//228 779//228 780//228
f 785//226 786//226 784//226
f 784//24 786//24 754//24
f 786//24 787//24 754//24
f 754//24 787//24 745//24
f 497//418 496//418 747//418
f 747//419 496//419 748//419
f 748//420 496//420 749//420
f 496//421 536//421 749//421
f 536//422 535//422 749//422
f 749//423 535//423 750//423
f 535//424 534//424 750//424
f 750//424 534//424 751//424
f 534//425 533//425 751//425
f 751//425 533//425 752//425
f 533//126 532//126 752//126
f 752//126 532//126 753//126
f 532//426 531//426 753//426
f 753//427 531//427 754//427
f 531//428 530//428 754//428
f 754//429 530//429 755//429
f 530//50 529//50 755//50
f 755//50 529//50 756//50
f 529//430 528//430 756//430
f 756//430 528//430 757//430
f 528//431 527//431 757//431
f 757//431 527//431 758//431
f 527//432 526//432 758//432
f 758//433 526//433 759//433
f 526//434 525//434 759//434
f 759//434 525//434 760//434
f 525//390 524//390 760//390
f 760//390 524//390 761//390
f 524//435 523//435 761//435
f 761//436 523//436 762//436
f 523//437 522//437 762//437
f 762//437 522//437 763//437
f 522//126 521//126 763//126
f 763//126 521//126 764//126
f 521//225 520//225 764//225
f 764//225 520//225 765//225
f 520//438 519//438 765//438
f 765//438 519//438 766//438
f 519//225 518//225 766//225
f 766//225 518//225 767//225
f 518//439 517//439 767//439
f 767//439 517//439 768//439
f 517//440 516//440 768//440
f 768//441 516//441 769//441
f 516//442 515//442 769//442
f 769//442 515//442 770//442
f 515//443 514//443 770//443
f 770//444 514//444 771//444
f 514//445 513//445 771//445
f 771//446 513//446 772//446
f 513//447 512//447 772//447
f 772//447 512//447 773//447
f 512//448 511//448 773//448
f 773//449 511//449 774//449
f 774//450 511//450 775//450
f 511//451 510//451 775//451
f 775//452 510//452 776//452
f 510//453 509//453 776//453
f 776//454 509//454 777//454
f 509//455 508//455 777//455
f 777//455 508//455 778//455
f 508//16 507//16 778//16
f 778//16 507//16 779//16
f 507//456 506//456 779//456
f 779//456 506//456 780//456
f 506//457 505//457 780//457
f 780//457 505//457 781//457
f 505//50 504//50 781//50
f 781//50 504//50 782//50
f 504//16 503//16 782//16
f 782//16 503//16 783//16
f 503//458 502//458 783//458
f 783//459 502//459 784//459
f 502//460 501//460 784//460
f 784//460 501//460 785//460
f 501//461 500//461 785//461
f 785//462 500//462 786//462
f 786//463 500//463 787//463
f 500//464 499//464 787//464
f 787//465 499//465 745//465
f 499//466 498//466 745//466
f 745//467 498//467 746//467
f 498//468 497//468 746//468
f 746//469 497//469 747//469
f 817//24 788//24 814//24
f 814//24 788//24 789//24
f 814//24 789//24 791//24
f 791//24 789//24 790//24
f 791//24 792//24 814//24
f 814//24 792//24 813//24
f 813//24 792//24 800//24
f 813//24 800//24 801//24
f 800//24 792//24 799//24
f 799//24 792//24 793//24
f 799//24 793//24 798//24
f 798//24 793//24 797//24
f 797//24 793//24 794//24
f 797//24 794//24 796//24
f 796//226 794//226 795//226
f 802//24 809//24 801//24
f 801//24 809//24 810//24
f 801//24 810//24 811//24
f 803//24 807//24 802//24
f 802//24 807//24 808//24
f 802//24 808//24 809//24
f 804//24 805//24 803//24
f 803//24 805//24 806//24
f 803//24 806//24 807//24
f 801//24 811//24 813//24
f 813//24 811//24 812//24
f 814//228 815//228 817//228
f 817//226 815//226 816//226
f 538//470 537//470 807//470
f 807//470 537//470 808//470
f 537//471 566//471 808//471
f 808//471 566//471 809//471
f 566//126 565//126 809//126
f 809//126 565//126 810//126
f 565//472 564//472 810//472
f 810//473 564//473 811//473
f 564//474 563//474 811//474
f 811//475 563//475 812//475
f 563//476 562//476 812//476
f 812//477 562//477 813//477
f 562//478 561//478 813//478
f 813//448 561//448 814//448
f 561//479 560//479 814//479
f 814//479 560//479 815//479
f 560//341 559//341 815//341
f 815//341 559//341 816//341
f 559//480 558//480 816//480
f 816//480 558//480 817//480
f 558//481 557//481 817//481
f 817//482 557//482 788//482
f 788//483 557//483 789//483
f 557//384 556//384 789//384
f 556//484 555//484 789//484
f 789//485 555//485 790//485
f 555//409 554//409 790//409
f 790//486 554//486 791//486
f 554//225 553//225 791//225
f 791//225 553//225 792//225
f 553//487 552//487 792//487
f 792//488 552//488 793//488
f 793//489 552//489 794//489
f 552//490 551//490 794//490
f 551//491 550//491 794//491
f 794//492 550//492 795//492
f 550//434 549//434 795//434
f 795//434 549//434 796//434
f 549//390 548//390 796//390
f 796//390 548//390 797//390
f 548//391 547//391 797//391
f 797//391 547//391 798//391
f 547//493 546//493 798//493
f 798//493 546//493 799//493
f 546//126 545//126 799//126
f 799//126 545//126 800//126
f 545//225 544//225 800//225
f 800//225 544//225 801//225
f 544//50 543//50 801//50
f 801//50 543//50 802//50
f 543//494 542//494 802//494
f 802//495 542//495 803//495
f 542//431 541//431 803//431
f 803//431 541//431 804//431
f 541//496 540//496 804//496
f 804//496 540//496 805//496
f 540//497 539//497 805//497
f 805//497 539//497 806//497
f 539//498 538//498 806//498
f 806//498 538//498 807//498
f 158//14 341//14 159//14
f 159//14 341//14 268//14
