# Blender 4.0.2
# www.blender.org
o nanoscan_3__m2
v 0.053300 -0.026000 0.016880
v 0.053300 -0.027366 0.016745
v 0.053300 -0.028679 0.016347
v 0.053300 -0.029889 0.015700
v 0.053300 -0.030950 0.014829
v 0.053300 -0.031820 0.013769
v 0.053300 -0.032467 0.012558
v 0.053300 -0.032866 0.011245
v 0.053300 -0.033000 0.009879
v 0.053300 -0.032866 0.008514
v 0.053300 -0.032467 0.007201
v 0.053300 -0.031820 0.005991
v 0.053300 -0.030950 0.004930
v 0.053300 -0.029889 0.004059
v 0.053300 -0.028679 0.003412
v 0.053300 -0.027366 0.003014
v 0.053300 -0.026000 0.002880
v 0.053300 -0.024634 0.003014
v 0.053300 -0.023321 0.003412
v 0.053300 -0.022111 0.004059
v 0.053300 -0.021050 0.004930
v 0.053300 -0.020180 0.005991
v 0.053300 -0.019533 0.007201
v 0.053300 -0.019135 0.008514
v 0.053300 -0.019000 0.009879
v 0.053300 -0.019135 0.011245
v 0.053300 -0.019533 0.012558
v 0.053300 -0.020180 0.013769
v 0.053300 -0.021050 0.014829
v 0.053300 -0.022111 0.015700
v 0.053300 -0.023321 0.016347
v 0.053300 -0.024634 0.016745
v 0.053300 -0.028537 0.012386
v 0.053300 -0.027802 0.012958
v 0.053300 -0.026944 0.013319
v 0.053300 -0.026021 0.013446
v 0.053300 -0.025098 0.013330
v 0.053300 -0.024235 0.012979
v 0.053300 -0.023493 0.012417
v 0.053300 -0.022922 0.011681
v 0.053300 -0.022560 0.010823
v 0.053300 -0.022433 0.009901
v 0.053300 -0.022549 0.008977
v 0.053300 -0.022900 0.008115
v 0.053300 -0.023463 0.007372
v 0.053300 -0.024198 0.006801
v 0.053300 -0.025056 0.006440
v 0.053300 -0.025979 0.006313
v 0.053300 -0.026903 0.006429
v 0.053300 -0.027765 0.006780
v 0.053300 -0.028507 0.007342
v 0.053300 -0.029303 0.008488
v 0.053300 -0.029567 0.009858
v 0.053300 -0.029451 0.010782
v 0.053300 -0.029100 0.011644
v 0.031865 -0.052300 0.023221
v -0.031865 -0.052300 0.023221
v -0.050800 -0.026000 0.000880
v -0.050800 -0.027563 0.001016
v -0.050800 -0.029078 0.001422
v -0.050800 -0.030500 0.002085
v -0.050800 -0.031785 0.002985
v -0.050800 -0.032894 0.004095
v -0.050800 -0.033794 0.005379
v -0.050800 -0.034457 0.006801
v -0.050800 -0.034863 0.008317
v -0.050800 -0.035000 0.009879
v -0.050800 -0.034863 0.011442
v -0.050800 -0.034457 0.012958
v -0.050800 -0.033794 0.014380
v -0.050800 -0.032894 0.015665
v -0.050800 -0.031785 0.016774
v -0.050800 -0.030500 0.017674
v -0.050800 -0.029078 0.018337
v -0.050800 -0.027563 0.018743
v -0.050800 -0.026000 0.018880
v -0.050800 -0.024437 0.018743
v -0.050800 -0.022922 0.018337
v -0.050800 -0.021500 0.017674
v -0.050800 -0.020215 0.016774
v -0.050800 -0.019106 0.015665
v -0.050800 -0.018206 0.014380
v -0.050800 -0.017543 0.012958
v -0.050800 -0.017137 0.011442
v -0.050800 -0.017000 0.009879
v -0.050800 -0.017137 0.008317
v -0.050800 -0.017543 0.006801
v -0.050800 -0.018206 0.005379
v -0.050800 -0.019106 0.004095
v -0.050800 -0.020215 0.002985
v -0.050800 -0.021500 0.002085
v -0.050800 -0.022922 0.001422
v -0.050800 -0.024437 0.001016
v -0.050800 -0.025597 0.016868
v -0.050800 -0.026968 0.016812
v -0.050800 -0.028302 0.016490
v -0.050800 -0.029548 0.015914
v -0.050800 -0.030657 0.015106
v -0.050800 -0.031587 0.014097
v -0.050800 -0.032302 0.012926
v -0.050800 -0.032776 0.011638
v -0.050800 -0.032988 0.010283
v -0.050800 -0.032933 0.008911
v -0.050800 -0.032611 0.007577
v -0.050800 -0.032035 0.006332
v -0.050800 -0.031227 0.005223
v -0.050800 -0.030218 0.004293
v -0.050800 -0.029047 0.003577
v -0.050800 -0.027759 0.003104
v -0.050800 -0.026403 0.002891
v -0.050800 -0.025032 0.002947
v -0.050800 -0.023698 0.003269
v -0.050800 -0.022453 0.003845
v -0.050800 -0.021343 0.004653
v -0.050800 -0.020413 0.005662
v -0.050800 -0.019698 0.006833
v -0.050800 -0.019225 0.008121
v -0.050800 -0.019012 0.009477
v -0.050800 -0.019067 0.010848
v -0.050800 -0.019389 0.012182
v -0.050800 -0.019965 0.013427
v -0.050800 -0.020774 0.014536
v -0.050800 -0.021782 0.015466
v -0.050800 -0.022953 0.016182
v -0.050800 -0.024241 0.016655
v -0.053300 -0.026000 0.016880
v -0.053300 -0.027366 0.016745
v -0.053300 -0.028679 0.016347
v -0.053300 -0.029889 0.015700
v -0.053300 -0.030950 0.014829
v -0.053300 -0.031820 0.013769
v -0.053300 -0.032467 0.012558
v -0.053300 -0.032866 0.011245
v -0.053300 -0.033000 0.009879
v -0.053300 -0.032866 0.008514
v -0.053300 -0.032467 0.007201
v -0.053300 -0.031820 0.005991
v -0.053300 -0.030950 0.004930
v -0.053300 -0.029889 0.004059
v -0.053300 -0.028679 0.003412
v -0.053300 -0.027366 0.003014
v -0.053300 -0.026000 0.002880
v -0.053300 -0.024634 0.003014
v -0.053300 -0.023321 0.003412
v -0.053300 -0.022111 0.004059
v -0.053300 -0.021050 0.004930
v -0.053300 -0.020180 0.005991
v -0.053300 -0.019533 0.007201
v -0.053300 -0.019135 0.008514
v -0.053300 -0.019000 0.009879
v -0.053300 -0.019135 0.011245
v -0.053300 -0.019533 0.012558
v -0.053300 -0.020180 0.013769
v -0.053300 -0.021050 0.014829
v -0.053300 -0.022111 0.015700
v -0.053300 -0.023321 0.016347
v -0.053300 -0.024634 0.016745
v -0.025775 -0.044799 0.009758
v -0.026037 -0.044800 0.010354
v -0.026538 -0.044799 0.010871
v -0.027145 -0.044800 0.011107
v -0.027865 -0.044799 0.011118
v -0.028678 -0.044799 0.010705
v -0.029176 -0.044799 0.009940
v -0.029247 -0.044800 0.009292
v -0.029072 -0.044799 0.008594
v -0.028664 -0.044800 0.008086
v -0.028047 -0.044799 0.007717
v -0.027135 -0.044799 0.007668
v -0.026321 -0.044799 0.008081
v -0.025824 -0.044799 0.008846
v -0.027500 -0.043749 0.009393
v -0.031865 -0.052300 -0.003462
v 0.025704 -0.044799 0.009652
v 0.025815 -0.044799 0.008719
v 0.026378 -0.044799 0.007967
v 0.027241 -0.044799 0.007597
v 0.027966 -0.044800 0.007654
v 0.028588 -0.044799 0.007940
v 0.029168 -0.044799 0.008679
v 0.029302 -0.044799 0.009609
v 0.028953 -0.044799 0.010480
v 0.028400 -0.044800 0.010952
v 0.027759 -0.044799 0.011189
v 0.026826 -0.044799 0.011078
v 0.026074 -0.044799 0.010515
v 0.027500 -0.043718 0.009393
v 0.031865 -0.052300 -0.003462
v 0.025689 -0.046300 0.009500
v 0.025985 -0.046300 0.010391
v 0.026687 -0.046300 0.011015
v 0.027607 -0.046300 0.011204
v 0.028309 -0.046300 0.011001
v 0.028856 -0.046300 0.010599
v 0.029209 -0.046300 0.009958
v 0.029311 -0.046300 0.009286
v 0.029108 -0.046300 0.008584
v 0.028705 -0.046300 0.008037
v 0.028065 -0.046300 0.007684
v 0.027393 -0.046300 0.007582
v 0.026691 -0.046300 0.007785
v 0.026143 -0.046300 0.008188
v 0.025791 -0.046300 0.008828
v 0.028732 -0.046300 0.009526
v 0.028500 -0.046300 0.010124
v 0.028001 -0.046300 0.010526
v 0.027500 -0.046300 0.010623
v 0.027053 -0.046300 0.010548
v 0.026535 -0.046300 0.010170
v 0.026276 -0.046300 0.009584
v 0.026345 -0.046300 0.008946
v 0.026631 -0.046300 0.008524
v 0.026999 -0.046300 0.008260
v 0.027500 -0.046300 0.008163
v 0.027947 -0.046300 0.008238
v 0.028369 -0.046300 0.008524
v 0.028633 -0.046300 0.008892
v -0.025761 -0.046300 0.009682
v -0.025849 -0.046300 0.008774
v -0.026380 -0.046300 0.008031
v -0.027211 -0.046300 0.007654
v -0.028119 -0.046300 0.007742
v -0.028862 -0.046300 0.008273
v -0.029239 -0.046300 0.009104
v -0.029151 -0.046300 0.010012
v -0.028620 -0.046300 0.010755
v -0.027789 -0.046300 0.011132
v -0.027145 -0.046300 0.011107
v -0.026475 -0.046300 0.010828
v -0.026037 -0.046300 0.010354
v -0.028724 -0.046300 0.009584
v -0.028655 -0.046300 0.008946
v -0.028369 -0.046300 0.008524
v -0.028001 -0.046300 0.008260
v -0.027500 -0.046300 0.008163
v -0.027053 -0.046300 0.008238
v -0.026631 -0.046300 0.008524
v -0.026367 -0.046300 0.008892
v -0.026268 -0.046300 0.009526
v -0.026500 -0.046300 0.010124
v -0.026999 -0.046300 0.010526
v -0.027500 -0.046300 0.010623
v -0.027947 -0.046300 0.010548
v -0.028465 -0.046300 0.010170
v 0.051800 0.019470 0.008427
v 0.051800 0.019044 0.008096
v 0.051800 0.018547 0.007886
v 0.051800 0.018012 0.007813
v 0.051800 0.017477 0.007880
v 0.051800 0.016977 0.008083
v 0.051800 0.016547 0.008409
v 0.051800 0.016216 0.008835
v 0.051800 0.016007 0.009333
v 0.051800 0.015933 0.009867
v 0.051800 0.016000 0.010402
v 0.051800 0.016204 0.010902
v 0.051800 0.016530 0.011332
v 0.051800 0.016956 0.011663
v 0.051800 0.017453 0.011873
v 0.051800 0.017988 0.011947
v 0.051800 0.018523 0.011879
v 0.051800 0.019023 0.011676
v 0.051800 0.019453 0.011350
v 0.051800 0.019784 0.010924
v 0.051800 0.019993 0.010426
v 0.051800 0.020067 0.009892
v 0.051800 0.020000 0.009357
v 0.051800 0.019796 0.008857
v 0.053300 0.015463 0.012387
v 0.053300 0.014900 0.011645
v 0.053300 0.014549 0.010782
v 0.053300 0.014450 0.009390
v 0.053300 0.014922 0.008078
v 0.053300 0.015493 0.007342
v 0.053300 0.016235 0.006780
v 0.053300 0.017098 0.006429
v 0.053300 0.018021 0.006313
v 0.053300 0.018944 0.006440
v 0.053300 0.019802 0.006801
v 0.053300 0.020537 0.007372
v 0.053300 0.021100 0.008115
v 0.053300 0.021451 0.008977
v 0.053300 0.021567 0.009901
v 0.053300 0.021440 0.010823
v 0.053300 0.021078 0.011681
v 0.053300 0.020507 0.012417
v 0.053300 0.019765 0.012979
v 0.053300 0.018903 0.013330
v 0.053300 0.017979 0.013446
v 0.053300 0.017056 0.013319
v 0.053300 0.016198 0.012958
v -0.042200 0.016401 0.011215
v -0.042200 0.017004 0.011691
v -0.042200 0.017814 0.011954
v -0.042200 0.018876 0.011769
v -0.042200 0.019704 0.011078
v -0.042200 0.020075 0.010066
v -0.042200 0.019890 0.009003
v -0.042200 0.019199 0.008176
v -0.042200 0.018186 0.007805
v -0.042200 0.017124 0.007989
v -0.042200 0.016296 0.008681
v -0.042200 0.015993 0.009386
v -0.042200 0.015948 0.010237
v -0.050800 0.018403 0.016868
v -0.050800 0.019759 0.016655
v -0.050800 0.021047 0.016182
v -0.050800 0.022218 0.015466
v -0.050800 0.023226 0.014536
v -0.050800 0.024035 0.013427
v -0.050800 0.024611 0.012182
v -0.050800 0.024933 0.010848
v -0.050800 0.024988 0.009477
v -0.050800 0.024776 0.008121
v -0.050800 0.024302 0.006833
v -0.050800 0.023587 0.005662
v -0.050800 0.022657 0.004653
v -0.050800 0.021548 0.003845
v -0.050800 0.020302 0.003269
v -0.050800 0.018968 0.002947
v -0.050800 0.017597 0.002891
v -0.050800 0.016241 0.003104
v -0.050800 0.014953 0.003577
v -0.050800 0.013782 0.004293
v -0.050800 0.012774 0.005223
v -0.050800 0.011966 0.006332
v -0.050800 0.011389 0.007577
v -0.050800 0.011067 0.008911
v -0.050800 0.011012 0.010283
v -0.050800 0.011224 0.011638
v -0.050800 0.011698 0.012926
v -0.050800 0.012413 0.014097
v -0.050800 0.013343 0.015106
v -0.050800 0.014453 0.015914
v -0.050800 0.015698 0.016490
v -0.050800 0.017032 0.016812
v -0.053300 0.018000 0.016880
v -0.053300 0.016634 0.016745
v -0.053300 0.015321 0.016347
v -0.053300 0.014111 0.015700
v -0.053300 0.013050 0.014829
v -0.053300 0.012180 0.013769
v -0.053300 0.011533 0.012558
v -0.053300 0.011135 0.011245
v -0.053300 0.011000 0.009880
v -0.053300 0.011135 0.008514
v -0.053300 0.011533 0.007201
v -0.053300 0.012180 0.005991
v -0.053300 0.013050 0.004930
v -0.053300 0.014111 0.004059
v -0.053300 0.015321 0.003412
v -0.053300 0.016634 0.003014
v -0.053300 0.018000 0.002880
v -0.053300 0.019366 0.003014
v -0.053300 0.020679 0.003412
v -0.053300 0.021889 0.004059
v -0.053300 0.022950 0.004930
v -0.053300 0.023820 0.005991
v -0.053300 0.024467 0.007201
v -0.053300 0.024866 0.008514
v -0.053300 0.025000 0.009880
v -0.053300 0.024866 0.011245
v -0.053300 0.024467 0.012558
v -0.053300 0.023820 0.013769
v -0.053300 0.022950 0.014829
v -0.053300 0.021889 0.015700
v -0.053300 0.020679 0.016347
v -0.053300 0.019366 0.016745
v -0.042200 -0.024110 0.009004
v -0.042200 -0.024801 0.008176
v -0.042200 -0.025814 0.007805
v -0.042200 -0.026876 0.007990
v -0.042200 -0.027704 0.008681
v -0.042200 -0.028075 0.009693
v -0.042200 -0.027985 0.010456
v -0.042200 -0.027599 0.011215
v -0.042200 -0.026996 0.011691
v -0.042200 -0.026186 0.011954
v -0.042200 -0.025124 0.011770
v -0.042200 -0.024296 0.011078
v -0.042200 -0.023925 0.010066
v -0.051800 0.018000 0.011947
v -0.051800 0.018535 0.011876
v -0.051799 0.019233 0.011558
v -0.051800 0.019790 0.010913
v -0.051799 0.020059 0.010194
v -0.051800 0.019997 0.009345
v -0.051800 0.019790 0.008846
v -0.051799 0.019302 0.008254
v -0.051799 0.018315 0.007821
v -0.051800 0.017465 0.007883
v -0.051800 0.016966 0.008089
v -0.051799 0.016374 0.008578
v -0.051800 0.016003 0.009345
v -0.051799 0.015930 0.010109
v -0.051800 0.016210 0.010913
v -0.051800 0.016538 0.011341
v -0.051799 0.017163 0.011787
v -0.050800 0.018000 0.000880
v -0.050800 0.019563 0.001016
v -0.050800 0.021078 0.001422
v -0.050800 0.022500 0.002085
v -0.050800 0.023785 0.002985
v -0.050800 0.024894 0.004094
v -0.050800 0.025794 0.005379
v -0.050800 0.026457 0.006801
v -0.050800 0.026863 0.008317
v -0.050800 0.027000 0.009879
v -0.050800 0.026863 0.011442
v -0.050800 0.026457 0.012958
v -0.050800 0.025794 0.014380
v -0.050800 0.024894 0.015665
v -0.050800 0.023785 0.016774
v -0.050800 0.022500 0.017674
v -0.050800 0.021078 0.018337
v -0.050800 0.019563 0.018743
v -0.050800 0.018000 0.018880
v -0.050800 0.016437 0.018743
v -0.050800 0.014922 0.018337
v -0.050800 0.013500 0.017674
v -0.050800 0.012215 0.016774
v -0.050800 0.011106 0.015665
v -0.050800 0.010206 0.014380
v -0.050800 0.009543 0.012958
v -0.050800 0.009137 0.011442
v -0.050800 0.009000 0.009879
v -0.050800 0.009137 0.008317
v -0.050800 0.009543 0.006801
v -0.050800 0.010206 0.005379
v -0.050800 0.011106 0.004094
v -0.050800 0.012215 0.002985
v -0.050800 0.013500 0.002085
v -0.050800 0.014922 0.001422
v -0.050800 0.016437 0.001016
v 0.050800 -0.026000 0.018880
v 0.050800 -0.024437 0.018743
v 0.050800 -0.022922 0.018337
v 0.050800 -0.021500 0.017674
v 0.050800 -0.020215 0.016774
v 0.050800 -0.019106 0.015665
v 0.050800 -0.018206 0.014380
v 0.050800 -0.017543 0.012958
v 0.050800 -0.017137 0.011442
v 0.050800 -0.017000 0.009879
v 0.050800 -0.017137 0.008317
v 0.050800 -0.017543 0.006801
v 0.050800 -0.018206 0.005379
v 0.050800 -0.019106 0.004095
v 0.050800 -0.020215 0.002985
v 0.050800 -0.021500 0.002085
v 0.050800 -0.022922 0.001422
v 0.050800 -0.024437 0.001016
v 0.050800 -0.026000 0.000880
v 0.050800 -0.027563 0.001016
v 0.050800 -0.029078 0.001422
v 0.050800 -0.030500 0.002085
v 0.050800 -0.031785 0.002985
v 0.050800 -0.032894 0.004095
v 0.050800 -0.033794 0.005379
v 0.050800 -0.034457 0.006801
v 0.050800 -0.034863 0.008317
v 0.050800 -0.035000 0.009879
v 0.050800 -0.034863 0.011442
v 0.050800 -0.034457 0.012958
v 0.050800 -0.033794 0.014380
v 0.050800 -0.032894 0.015665
v 0.050800 -0.031785 0.016774
v 0.050800 -0.030500 0.017674
v 0.050800 -0.029078 0.018337
v 0.050800 -0.027563 0.018743
v -0.053300 0.021052 0.008032
v -0.053300 0.020470 0.007306
v -0.053300 0.019719 0.006754
v -0.053300 0.018852 0.006416
v -0.053300 0.017926 0.006313
v -0.053300 0.017006 0.006454
v -0.053300 0.016153 0.006828
v -0.053300 0.015426 0.007410
v -0.053300 0.014875 0.008160
v -0.053300 0.014536 0.009028
v -0.053300 0.014434 0.009953
v -0.053300 0.014574 0.010874
v -0.053300 0.014948 0.011726
v -0.053300 0.015530 0.012453
v -0.053300 0.016281 0.013005
v -0.053300 0.017148 0.013343
v -0.053300 0.018074 0.013446
v -0.053300 0.018994 0.013305
v -0.053300 0.019847 0.012931
v -0.053300 0.020574 0.012349
v -0.053300 0.021125 0.011599
v -0.053300 0.021464 0.010731
v -0.053300 0.021566 0.009806
v -0.053300 0.021426 0.008885
v 0.053300 0.023692 0.005805
v 0.053300 0.024378 0.006994
v 0.053300 0.024818 0.008294
v 0.053300 0.024996 0.009655
v 0.053300 0.024906 0.011024
v 0.053300 0.024550 0.012349
v 0.053300 0.023942 0.013579
v 0.053300 0.023106 0.014668
v 0.053300 0.022074 0.015572
v 0.053300 0.020885 0.016257
v 0.053300 0.019586 0.016698
v 0.053300 0.018225 0.016876
v 0.053300 0.016856 0.016785
v 0.053300 0.015530 0.016429
v 0.053300 0.014300 0.015822
v 0.053300 0.013212 0.014986
v 0.053300 0.012308 0.013954
v 0.053300 0.011622 0.012765
v 0.053300 0.011182 0.011465
v 0.053300 0.011004 0.010104
v 0.053300 0.011094 0.008735
v 0.053300 0.011450 0.007410
v 0.053300 0.012058 0.006180
v 0.053300 0.012894 0.005091
v 0.053300 0.013926 0.004187
v 0.053300 0.015115 0.003502
v 0.053300 0.016414 0.003062
v 0.053300 0.017775 0.002883
v 0.053300 0.019144 0.002974
v 0.053300 0.020470 0.003330
v 0.053300 0.021700 0.003937
v 0.053300 0.022788 0.004773
v 0.027500 -0.051500 0.010623
v 0.027017 -0.051499 0.010534
v 0.026511 -0.051499 0.010139
v 0.026270 -0.051499 0.009545
v 0.026359 -0.051499 0.008910
v 0.026631 -0.051500 0.008524
v 0.027035 -0.051499 0.008244
v 0.027500 -0.051500 0.008163
v 0.027983 -0.051499 0.008252
v 0.028369 -0.051500 0.008524
v 0.028649 -0.051499 0.008928
v 0.028727 -0.051499 0.009564
v 0.028477 -0.051499 0.010155
v 0.027965 -0.051499 0.010542
v 0.050800 0.018403 0.002891
v 0.050800 0.019759 0.003104
v 0.050800 0.021047 0.003577
v 0.050800 0.022218 0.004293
v 0.050800 0.023226 0.005223
v 0.050800 0.024035 0.006332
v 0.050800 0.024611 0.007577
v 0.050800 0.024933 0.008911
v 0.050800 0.024988 0.010283
v 0.050800 0.024776 0.011638
v 0.050800 0.024302 0.012926
v 0.050800 0.023587 0.014097
v 0.050800 0.022657 0.015106
v 0.050800 0.021548 0.015914
v 0.050800 0.020302 0.016490
v 0.050800 0.018968 0.016812
v 0.050800 0.017597 0.016868
v 0.050800 0.016241 0.016655
v 0.050800 0.014953 0.016182
v 0.050800 0.013782 0.015466
v 0.050800 0.012774 0.014536
v 0.050800 0.011966 0.013427
v 0.050800 0.011389 0.012182
v 0.050800 0.011067 0.010848
v 0.050800 0.011012 0.009477
v 0.050800 0.011224 0.008121
v 0.050800 0.011698 0.006833
v 0.050800 0.012413 0.005662
v 0.050800 0.013343 0.004653
v 0.050800 0.014453 0.003845
v 0.050800 0.015698 0.003269
v 0.050800 0.017032 0.002947
v 0.050800 0.018000 0.000880
v 0.050800 0.016437 0.001016
v 0.050800 0.014922 0.001422
v 0.050800 0.013500 0.002085
v 0.050800 0.012215 0.002985
v 0.050800 0.011106 0.004094
v 0.050800 0.010206 0.005379
v 0.050800 0.009543 0.006801
v 0.050800 0.009137 0.008317
v 0.050800 0.009000 0.009879
v 0.050800 0.009137 0.011442
v 0.050800 0.009543 0.012958
v 0.050800 0.010206 0.014380
v 0.050800 0.011106 0.015665
v 0.050800 0.012215 0.016774
v 0.050800 0.013500 0.017674
v 0.050800 0.014922 0.018337
v 0.050800 0.016437 0.018743
v 0.050800 0.018000 0.018880
v 0.050800 0.019563 0.018743
v 0.050800 0.021078 0.018337
v 0.050800 0.022500 0.017674
v 0.050800 0.023785 0.016774
v 0.050800 0.024894 0.015665
v 0.050800 0.025794 0.014380
v 0.050800 0.026457 0.012958
v 0.050800 0.026863 0.011442
v 0.050800 0.027000 0.009879
v 0.050800 0.026863 0.008317
v 0.050800 0.026457 0.006801
v 0.050800 0.025794 0.005379
v 0.050800 0.024894 0.004094
v 0.050800 0.023785 0.002985
v 0.050800 0.022500 0.002085
v 0.050800 0.021078 0.001422
v 0.050800 0.019563 0.001016
v 0.050800 -0.025597 0.002891
v 0.050800 -0.026968 0.002947
v 0.050800 -0.028302 0.003269
v 0.050800 -0.029548 0.003845
v 0.050800 -0.030657 0.004653
v 0.050800 -0.031587 0.005662
v 0.050800 -0.032302 0.006833
v 0.050800 -0.032776 0.008121
v 0.050800 -0.032988 0.009477
v 0.050800 -0.032933 0.010848
v 0.050800 -0.032611 0.012182
v 0.050800 -0.032035 0.013427
v 0.050800 -0.031227 0.014536
v 0.050800 -0.030218 0.015466
v 0.050800 -0.029047 0.016182
v 0.050800 -0.027759 0.016655
v 0.050800 -0.026403 0.016868
v 0.050800 -0.025032 0.016812
v 0.050800 -0.023698 0.016490
v 0.050800 -0.022453 0.015914
v 0.050800 -0.021343 0.015106
v 0.050800 -0.020413 0.014097
v 0.050800 -0.019698 0.012926
v 0.050800 -0.019225 0.011638
v 0.050800 -0.019012 0.010283
v 0.050800 -0.019067 0.008911
v 0.050800 -0.019389 0.007577
v 0.050800 -0.019965 0.006332
v 0.050800 -0.020774 0.005223
v 0.050800 -0.021782 0.004293
v 0.050800 -0.022953 0.003577
v 0.050800 -0.024241 0.003104
v 0.042200 -0.024530 0.008427
v 0.042200 -0.024090 0.009049
v 0.042200 -0.023931 0.010115
v 0.042200 -0.024216 0.010924
v 0.042200 -0.024703 0.011509
v 0.042200 -0.025692 0.011939
v 0.042200 -0.026763 0.011817
v 0.042200 -0.027630 0.011176
v 0.042200 -0.028060 0.010188
v 0.042200 -0.027938 0.009117
v 0.042200 -0.027297 0.008250
v 0.042200 -0.026308 0.007820
v 0.042200 -0.025237 0.007941
v 0.051800 -0.024530 0.008427
v 0.051800 -0.024956 0.008096
v 0.051800 -0.025453 0.007886
v 0.051800 -0.025988 0.007812
v 0.051800 -0.026523 0.007880
v 0.051800 -0.027023 0.008083
v 0.051800 -0.027453 0.008409
v 0.051800 -0.027784 0.008835
v 0.051800 -0.027993 0.009332
v 0.051800 -0.028067 0.009867
v 0.051800 -0.028000 0.010402
v 0.051800 -0.027796 0.010902
v 0.051800 -0.027470 0.011332
v 0.051800 -0.027044 0.011663
v 0.051800 -0.026547 0.011873
v 0.051800 -0.026012 0.011946
v 0.051800 -0.025477 0.011879
v 0.051800 -0.024977 0.011676
v 0.051800 -0.024547 0.011350
v 0.051800 -0.024216 0.010924
v 0.051800 -0.024007 0.010426
v 0.051800 -0.023933 0.009892
v 0.051800 -0.024000 0.009357
v 0.051800 -0.024204 0.008857
v -0.053300 -0.022948 0.008033
v -0.053300 -0.022574 0.008886
v -0.053300 -0.022434 0.009806
v -0.053300 -0.022536 0.010731
v -0.053300 -0.022875 0.011599
v -0.053300 -0.023426 0.012349
v -0.053300 -0.024153 0.012931
v -0.053300 -0.025006 0.013305
v -0.053300 -0.025926 0.013446
v -0.053300 -0.026852 0.013343
v -0.053300 -0.027719 0.013005
v -0.053300 -0.028470 0.012454
v -0.053300 -0.029052 0.011727
v -0.053300 -0.029426 0.010874
v -0.053300 -0.029566 0.009953
v -0.053300 -0.029464 0.009028
v -0.053300 -0.029125 0.008160
v -0.053300 -0.028574 0.007410
v -0.053300 -0.027847 0.006828
v -0.053300 -0.026994 0.006454
v -0.053300 -0.026074 0.006313
v -0.053300 -0.025148 0.006416
v -0.053300 -0.024281 0.006754
v -0.053300 -0.023530 0.007306
v -0.027500 -0.051500 0.010623
v -0.027983 -0.051499 0.010534
v -0.028489 -0.051499 0.010139
v -0.028730 -0.051499 0.009545
v -0.028641 -0.051499 0.008910
v -0.028369 -0.051500 0.008524
v -0.027965 -0.051499 0.008244
v -0.027500 -0.051500 0.008163
v -0.027017 -0.051499 0.008252
v -0.026631 -0.051500 0.008524
v -0.026351 -0.051499 0.008928
v -0.026273 -0.051499 0.009565
v -0.026523 -0.051499 0.010155
v -0.027035 -0.051499 0.010542
v -0.051799 -0.026315 0.011939
v -0.051800 -0.025465 0.011876
v -0.051799 -0.024766 0.011558
v -0.051800 -0.024210 0.010913
v -0.051800 -0.024003 0.010415
v -0.051799 -0.023930 0.009650
v -0.051799 -0.024322 0.008646
v -0.051799 -0.025163 0.007972
v -0.051800 -0.026000 0.007813
v -0.051800 -0.026535 0.007883
v -0.051799 -0.027233 0.008201
v -0.051800 -0.027790 0.008846
v -0.051799 -0.028059 0.009566
v -0.051799 -0.027940 0.010637
v -0.051800 -0.027462 0.011341
v -0.051800 -0.027033 0.011670
v 0.014555 -0.052300 0.001317
v -0.014747 -0.052300 0.001354
v -0.015505 -0.052300 0.001885
v -0.015830 -0.052300 0.002592
v -0.015825 -0.052300 0.010905
v -0.015555 -0.052300 0.011540
v -0.014966 -0.052300 0.012039
v -0.014442 -0.052300 0.012185
v -0.013829 -0.052300 0.012151
v -0.013340 -0.052300 0.011913
v -0.012904 -0.052300 0.011481
v -0.012637 -0.052300 0.010828
v -0.012384 -0.052300 0.010615
v 0.012354 -0.052300 0.010611
v 0.012622 -0.052300 0.010796
v 0.012832 -0.052300 0.011339
v 0.013207 -0.052300 0.011824
v 0.013681 -0.052300 0.012092
v 0.014284 -0.052300 0.012207
v 0.015029 -0.052300 0.012006
v 0.015595 -0.052300 0.011483
v 0.015834 -0.052300 0.010854
v 0.015822 -0.052300 0.002584
v 0.015552 -0.052300 0.001945
v 0.015050 -0.052300 0.001511
v -0.025480 -0.052300 0.009708
v -0.025593 -0.052300 0.008656
v -0.026065 -0.052300 0.007958
v -0.026673 -0.052300 0.007523
v -0.027500 -0.052300 0.007363
v -0.028238 -0.052300 0.007486
v -0.028935 -0.052300 0.007958
v -0.029370 -0.052300 0.008566
v -0.029533 -0.052300 0.009612
v -0.029258 -0.052300 0.010408
v -0.028783 -0.052300 0.010985
v -0.027815 -0.052300 0.011413
v -0.026762 -0.052300 0.011300
v -0.025908 -0.052300 0.010676
v 0.029530 -0.052300 0.009393
v 0.029407 -0.052300 0.008655
v 0.028935 -0.052300 0.007958
v 0.028327 -0.052300 0.007523
v 0.027500 -0.052300 0.007363
v 0.026762 -0.052300 0.007486
v 0.026065 -0.052300 0.007958
v 0.025630 -0.052300 0.008567
v 0.025467 -0.052300 0.009612
v 0.025742 -0.052300 0.010408
v 0.026217 -0.052300 0.010985
v 0.027185 -0.052300 0.011413
v 0.028237 -0.052300 0.011300
v 0.028935 -0.052300 0.010828
v 0.029370 -0.052300 0.010220
v 0.047000 0.019470 0.008427
v 0.047000 0.018763 0.007942
v 0.047000 0.017692 0.007820
v 0.047000 0.016703 0.008250
v 0.047000 0.016062 0.009117
v 0.047000 0.015933 0.009867
v 0.047000 0.016090 0.010710
v 0.047000 0.016762 0.011554
v 0.047000 0.017453 0.011873
v 0.047000 0.018308 0.011939
v 0.047000 0.019297 0.011509
v 0.047000 0.019938 0.010643
v 0.047000 0.020067 0.009892
v 0.047000 0.019910 0.009049
v 0.015830 -0.050300 0.002592
v 0.015795 -0.050300 0.011097
v 0.015291 -0.050300 0.011825
v 0.014600 -0.050300 0.012168
v 0.013829 -0.050300 0.012151
v 0.013340 -0.050300 0.011913
v 0.012904 -0.050300 0.011481
v 0.012637 -0.050300 0.010828
v 0.012384 -0.050300 0.010615
v -0.012354 -0.050300 0.010611
v -0.012622 -0.050300 0.010796
v -0.012832 -0.050300 0.011339
v -0.013207 -0.050300 0.011824
v -0.013681 -0.050300 0.012092
v -0.014284 -0.050300 0.012207
v -0.014817 -0.050300 0.012093
v -0.015343 -0.050300 0.011779
v -0.015814 -0.050300 0.011024
v -0.015822 -0.050300 0.002584
v -0.015552 -0.050300 0.001945
v -0.015050 -0.050300 0.001511
v -0.014555 -0.050300 0.001317
v 0.014747 -0.050300 0.001354
v 0.015505 -0.050300 0.001885
v 0.010051 -0.050300 0.004413
v -0.009569 -0.050300 0.004413
v -0.010069 -0.050300 0.004913
v -0.010069 -0.050300 0.006723
v -0.009569 -0.050300 0.007223
v 0.010051 -0.050300 0.007223
v 0.010051 -0.050300 0.006018
v 0.009651 -0.050300 0.006018
v 0.009651 -0.050300 0.005618
v 0.010051 -0.050300 0.005618
vn 1.0000 -0.0000 -0.0000
vn 1.0000 0.0001 -0.0003
vn 1.0000 0.0001 -0.0000
vn 1.0000 0.0001 0.0001
vn 1.0000 -0.0001 0.0003
vn -1.0000 -0.0000 -0.0000
vn 0.0111 0.1551 0.9878
vn -0.0111 0.0981 0.9951
vn 0.0112 -0.0405 0.9991
vn -0.0112 -0.0981 0.9951
vn 0.0111 -0.2347 0.9720
vn -0.0112 -0.2902 0.9569
vn 0.0112 -0.4198 0.9075
vn -0.0112 -0.4714 0.8819
vn 0.0112 -0.5888 0.8082
vn -0.0112 -0.6343 0.7730
vn 0.0112 -0.7352 0.6778
vn -0.0112 -0.7730 0.6343
vn 0.0112 -0.8533 0.5213
vn -0.0112 -0.8819 0.4714
vn 0.0112 -0.9386 0.3449
vn -0.0112 -0.9569 0.2902
vn 0.0112 -0.9878 0.1551
vn -0.0112 -0.9951 0.0980
vn 0.0112 -0.9991 -0.0406
vn -0.0112 -0.9951 -0.0980
vn 0.0112 -0.9720 -0.2347
vn -0.0112 -0.9569 -0.2902
vn 0.0112 -0.9076 -0.4198
vn -0.0112 -0.8819 -0.4714
vn 0.0112 -0.8082 -0.5888
vn -0.0112 -0.7730 -0.6343
vn 0.0112 -0.6778 -0.7352
vn -0.0112 -0.6343 -0.7730
vn 0.0112 -0.5214 -0.8533
vn -0.0112 -0.4714 -0.8819
vn 0.0112 -0.3449 -0.9386
vn -0.0112 -0.2902 -0.9569
vn 0.0111 -0.1551 -0.9878
vn -0.0112 -0.0981 -0.9951
vn 0.0112 0.0405 -0.9991
vn -0.0112 0.0981 -0.9951
vn 0.0111 0.2347 -0.9720
vn -0.0112 0.2902 -0.9569
vn 0.0112 0.4198 -0.9075
vn -0.0112 0.4714 -0.8819
vn 0.0112 0.5888 -0.8082
vn -0.0112 0.6343 -0.7730
vn 0.0112 0.7352 -0.6778
vn -0.0112 0.7730 -0.6343
vn 0.0112 0.8533 -0.5213
vn -0.0112 0.8819 -0.4714
vn 0.0112 0.9386 -0.3449
vn -0.0112 0.9569 -0.2903
vn 0.0112 0.9878 -0.1551
vn -0.0112 0.9951 -0.0980
vn 0.0112 0.9991 0.0406
vn -0.0112 0.9951 0.0980
vn 0.0112 0.9720 0.2347
vn -0.0112 0.9569 0.2902
vn 0.0112 0.9076 0.4198
vn -0.0112 0.8819 0.4714
vn 0.0112 0.8082 0.5888
vn -0.0112 0.7730 0.6343
vn 0.0112 0.6778 0.7352
vn -0.0112 0.6343 0.7730
vn 0.0112 0.5214 0.8533
vn -0.0112 0.4714 0.8819
vn 0.0112 0.3449 0.9386
vn -0.0112 0.2902 0.9569
vn -0.3757 -0.8532 -0.3618
vn -0.1868 -0.8541 -0.4854
vn 0.5063 -0.8532 0.1254
vn 0.4044 -0.8541 0.3270
vn -0.0098 -0.8532 -0.5215
vn -0.4399 -0.8512 0.2864
vn -0.4753 -0.8541 -0.2111
vn -0.5241 -0.8512 0.0281
vn -0.2378 -0.8512 0.4679
vn 0.0280 -0.8512 0.5241
vn 0.2693 -0.8532 0.4467
vn 0.5172 -0.8541 -0.0548
vn 0.4399 -0.8512 -0.2863
vn 0.2378 -0.8512 -0.4679
vn 0.5212 -0.8512 0.0622
vn 0.4203 -0.8512 0.3145
vn 0.2068 -0.8512 0.4825
vn -0.0419 -0.8534 0.5196
vn -0.1813 -0.8539 -0.4878
vn 0.0622 -0.8512 -0.5212
vn 0.3145 -0.8512 -0.4202
vn 0.4825 -0.8512 -0.2068
vn -0.4126 -0.8512 0.3245
vn -0.3378 -0.8534 -0.3971
vn -0.4873 -0.8512 -0.1951
vn -0.5196 -0.8512 0.0747
vn -0.2169 -0.8539 0.4731
vn -0.0000 1.0000 -0.0000
vn -0.9985 -0.0121 0.0535
vn -0.9952 0.0122 0.0969
vn -0.8380 -0.0121 0.5455
vn -0.8135 0.0122 0.5815
vn -0.4531 -0.0121 0.8914
vn -0.4139 0.0122 0.9102
vn 0.0534 -0.0121 0.9985
vn 0.0968 0.0122 0.9952
vn 0.5138 -0.0103 0.8579
vn 0.5813 0.0245 0.8133
vn 0.7794 -0.0248 0.6261
vn 0.9097 0.0389 0.4135
vn 0.9696 -0.0256 0.2432
vn 0.9939 0.0188 -0.1086
vn 0.9952 0.0122 -0.0968
vn 0.8380 -0.0121 -0.5455
vn 0.8135 0.0122 -0.5814
vn 0.4530 -0.0121 -0.8914
vn 0.4138 0.0122 -0.9103
vn -0.0159 -0.0103 -0.9998
vn -0.0398 -0.0000 -0.9992
vn -0.3622 -0.0000 -0.9321
vn -0.3844 0.0104 -0.9231
vn -0.7182 -0.0103 -0.6958
vn -0.7346 -0.0000 -0.6785
vn -0.9152 -0.0000 -0.4030
vn -0.9245 0.0104 -0.3810
vn 0.7040 -0.4357 0.5608
vn 0.7041 -0.5659 0.4290
vn 0.7041 -0.5660 0.4289
vn 0.7041 -0.6577 0.2678
vn 0.7041 -0.7046 0.0885
vn 0.7040 -0.7046 0.0886
vn 0.7040 -0.7035 -0.0969
vn 0.7041 -0.7035 -0.0970
vn 0.7041 -0.6544 -0.2757
vn 0.7041 -0.5608 -0.4357
vn 0.7041 -0.5608 -0.4356
vn 0.7041 -0.4289 -0.5660
vn 0.7041 -0.2678 -0.6577
vn 0.7041 -0.0885 -0.7046
vn 0.7041 -0.0884 -0.7046
vn 0.7041 0.0969 -0.7035
vn 0.7040 0.0969 -0.7035
vn 0.7041 0.2757 -0.6544
vn 0.7041 0.4357 -0.5608
vn 0.7041 0.4357 -0.5607
vn 0.7041 0.5659 -0.4290
vn 0.7041 0.5659 -0.4289
vn 0.7041 0.6577 -0.2678
vn 0.7041 0.7046 -0.0886
vn 0.6940 0.7181 -0.0515
vn 0.7152 0.6924 0.0955
vn 0.6940 0.6774 0.2438
vn 0.7041 -0.4357 0.5608
vn 0.7041 -0.2757 0.6544
vn 0.7041 -0.0969 0.7035
vn 0.7041 0.0884 0.7046
vn 0.7041 0.0885 0.7046
vn 0.7041 0.2678 0.6577
vn 0.7041 0.4289 0.5660
vn 0.7041 0.5608 0.4356
vn 0.7041 0.5608 0.4357
vn 0.7041 0.6544 0.2757
vn -0.0112 -0.9569 0.2903
vn -0.0112 -0.0980 -0.9951
vn -0.0112 0.0980 -0.9951
vn -0.0112 0.9569 0.2903
vn -0.0112 0.7730 0.6344
vn -0.0112 0.6344 0.7730
vn -0.0017 -0.1306 -0.9914
vn 0.0044 0.1874 -0.9823
vn -0.0044 0.3096 -0.9509
vn 0.0024 0.6197 -0.7849
vn -0.0024 0.5808 -0.8140
vn 0.0033 0.7933 -0.6089
vn -0.0049 0.9072 -0.4206
vn 0.0026 0.9444 -0.3289
vn -0.0026 0.9986 0.0529
vn 0.0007 0.9954 0.0959
vn -0.0007 0.9185 0.3955
vn 0.0026 0.9003 0.4352
vn -0.0031 0.6410 0.7675
vn -0.0024 0.6360 0.7717
vn 0.0033 0.3827 0.9239
vn -0.0048 0.1714 0.9852
vn 0.0026 0.0732 0.9973
vn -0.0031 -0.3441 0.9389
vn 0.0031 -0.4017 0.9158
vn -0.0030 -0.7675 0.6410
vn -0.0024 -0.7717 0.6360
vn 0.0033 -0.9239 0.3827
vn -0.0048 -0.9852 0.1714
vn 0.0026 -0.9973 0.0732
vn -0.0030 -0.9389 -0.3441
vn -0.0024 -0.9366 -0.3503
vn 0.0044 -0.7570 -0.6535
vn -0.0069 -0.6410 -0.7675
vn 0.0046 -0.4146 -0.9100
vn -0.0048 -0.1714 -0.9852
vn -0.7079 -0.5514 0.4415
vn -0.7050 -0.5478 0.4505
vn -0.7028 -0.6514 0.2858
vn -0.7062 -0.6541 0.2710
vn -0.7028 -0.7032 0.1074
vn -0.7143 -0.6979 0.0519
vn -0.6962 -0.7135 -0.0790
vn -0.7079 -0.6580 -0.2568
vn -0.7050 -0.6640 -0.2491
vn -0.7028 -0.5732 -0.4213
vn -0.7143 -0.5302 -0.4568
vn -0.6962 -0.4487 -0.5604
vn -0.7079 -0.2837 -0.6469
vn -0.7050 -0.2934 -0.6457
vn -0.7028 -0.1074 -0.7032
vn -0.7062 -0.0925 -0.7020
vn -0.7028 0.0783 -0.7070
vn -0.7143 0.1305 -0.6876
vn -0.6962 0.2610 -0.6688
vn -0.7079 0.4183 -0.5692
vn -0.7050 0.4125 -0.5769
vn -0.7028 0.5553 -0.4446
vn -0.7062 0.5617 -0.4311
vn -0.7028 0.6515 -0.2857
vn -0.7143 0.6607 -0.2308
vn -0.6961 0.7097 -0.1084
vn -0.7079 0.7021 0.0777
vn -0.7050 0.7059 0.0687
vn -0.7028 0.6627 0.2586
vn -0.7143 0.6304 0.3039
vn -0.6962 0.5784 0.4252
vn -0.7079 0.4415 0.5514
vn -0.7050 0.4505 0.5478
vn -0.7028 0.2857 0.6514
vn -0.7062 0.2710 0.6541
vn -0.7028 0.1074 0.7032
vn -0.7143 0.0519 0.6979
vn -0.6962 -0.0790 0.7135
vn -0.7079 -0.2568 0.6580
vn -0.7163 -0.2803 0.6390
vn -0.6962 -0.4251 0.5785
vn -0.9881 -0.0019 0.1539
vn -0.9925 0.0018 0.1226
vn -0.9327 -0.0019 -0.3606
vn -0.9208 0.0018 -0.3900
vn -0.6273 -0.0019 -0.7788
vn -0.6023 0.0018 -0.7983
vn -0.1891 -0.0016 -0.9819
vn -0.1714 -0.0000 -0.9852
vn 0.1636 -0.0000 -0.9865
vn 0.1801 0.0015 -0.9836
vn 0.5898 -0.0019 -0.8075
vn 0.6151 0.0018 -0.7885
vn 0.9147 -0.0019 -0.4042
vn 0.9270 0.0018 -0.3751
vn 0.9942 -0.0019 0.1071
vn 0.9904 0.0018 0.1385
vn 0.8281 -0.0016 0.5606
vn 0.8179 -0.0000 0.5754
vn 0.5819 -0.0000 0.8133
vn 0.5681 0.0015 0.8230
vn 0.1891 -0.0016 0.9819
vn 0.1714 -0.0000 0.9852
vn -0.1636 -0.0000 0.9865
vn -0.1802 0.0015 0.9836
vn -0.5606 -0.0016 0.8281
vn -0.5754 -0.0000 0.8179
vn -0.8133 -0.0000 0.5818
vn -0.8230 0.0015 0.5681
vn -0.0134 0.1551 -0.9878
vn 0.0134 0.0659 -0.9977
vn -0.0134 -0.0406 -0.9991
vn 0.0134 -0.1299 -0.9914
vn -0.0134 -0.2347 -0.9720
vn 0.0134 -0.3209 -0.9470
vn -0.0134 -0.4198 -0.9075
vn 0.0134 -0.4994 -0.8662
vn -0.0134 -0.5888 -0.8082
vn 0.0134 -0.6588 -0.7522
vn -0.0134 -0.7351 -0.6778
vn 0.0134 -0.7929 -0.6092
vn -0.0134 -0.8533 -0.5213
vn 0.0134 -0.8966 -0.4427
vn -0.0134 -0.9386 -0.3449
vn 0.0134 -0.9657 -0.2593
vn -0.0134 -0.9878 -0.1551
vn 0.0134 -0.9977 -0.0660
vn -0.0134 -0.9991 0.0406
vn 0.0134 -0.9914 0.1299
vn -0.0134 -0.9720 0.2347
vn 0.0134 -0.9470 0.3209
vn -0.0134 -0.9075 0.4198
vn 0.0134 -0.8662 0.4994
vn -0.0134 -0.8082 0.5887
vn 0.0134 -0.7521 0.6589
vn -0.0134 -0.6778 0.7352
vn 0.0134 -0.6092 0.7929
vn -0.0134 -0.5213 0.8532
vn 0.0134 -0.4428 0.8965
vn -0.0134 -0.3448 0.9386
vn 0.0134 -0.2594 0.9657
vn -0.0134 -0.1551 0.9878
vn 0.0134 -0.0659 0.9977
vn -0.0134 0.0405 0.9991
vn 0.0134 0.1299 0.9914
vn -0.0134 0.2347 0.9720
vn 0.0134 0.3208 0.9470
vn -0.0134 0.4199 0.9075
vn 0.0134 0.4995 0.8662
vn -0.0134 0.5888 0.8082
vn 0.0134 0.6588 0.7522
vn -0.0134 0.7351 0.6778
vn 0.0134 0.7929 0.6092
vn -0.0134 0.8533 0.5213
vn 0.0134 0.8966 0.4427
vn -0.0134 0.9386 0.3449
vn 0.0134 0.9657 0.2593
vn -0.0134 0.9878 0.1551
vn 0.0134 0.9977 0.0660
vn -0.0134 0.9991 -0.0406
vn 0.0134 0.9914 -0.1299
vn -0.0134 0.9720 -0.2347
vn 0.0134 0.9470 -0.3209
vn -0.0134 0.9075 -0.4198
vn 0.0134 0.8662 -0.4994
vn -0.0134 0.8082 -0.5888
vn 0.0134 0.7521 -0.6589
vn -0.0134 0.6777 -0.7352
vn 0.0134 0.6092 -0.7929
vn -0.0134 0.5213 -0.8532
vn 0.0134 0.4428 -0.8965
vn -0.0134 0.3449 -0.9385
vn 0.0134 0.2593 -0.9657
vn 0.7040 -0.4356 0.5609
vn 0.7041 -0.7035 -0.0969
vn 0.7040 -0.6545 -0.2756
vn 0.7041 -0.5607 -0.4357
vn 0.7040 -0.4290 -0.5660
vn 0.7041 0.2757 -0.6545
vn 0.7041 0.5660 -0.4289
vn 0.7041 0.7046 -0.0884
vn 0.7041 0.7046 -0.0885
vn 0.7041 0.7035 0.0969
vn 0.6940 0.7070 0.1361
vn 0.7152 0.6441 0.2713
vn 0.6940 0.5913 0.4108
vn -0.8133 -0.0000 0.5819
vn -0.5605 -0.0016 0.8281
vn 0.5818 -0.0000 0.8133
vn 0.9904 0.0018 0.1386
vn -0.0069 -0.7675 0.6410
vn 0.0070 -0.6250 0.7806
vn -0.0069 -0.3441 0.9389
vn 0.0044 -0.1874 0.9823
vn -0.0017 0.1306 0.9914
vn 0.0046 0.4146 0.9100
vn -0.0069 0.6409 0.7676
vn 0.0044 0.7569 0.6535
vn -0.0024 0.9367 0.3501
vn -0.0030 0.9389 0.3443
vn 0.0031 0.9939 -0.1102
vn 0.0024 0.9932 -0.1167
vn -0.0044 0.8913 -0.4535
vn 0.0044 0.8270 -0.5622
vn -0.0017 0.6088 -0.7933
vn -0.0007 0.6197 -0.7849
vn 0.0007 0.3503 -0.9366
vn -0.0026 0.3096 -0.9509
vn 0.0026 -0.0732 -0.9973
vn -0.0049 -0.1714 -0.9852
vn 0.0044 -0.7570 -0.6534
vn -0.0017 -0.9239 -0.3827
vn -0.0048 -0.9389 -0.3441
vn 0.0046 -0.9954 -0.0959
vn -0.0069 -0.9852 0.1714
vn 0.0070 -0.9316 0.3635
vn -0.0000 -1.0000 -0.0000
vn 0.0001 -1.0000 -0.0000
vn -0.0008 -1.0000 -0.0002
vn -0.0016 -1.0000 -0.0003
vn 0.0003 -1.0000 0.0009
vn -0.0003 -1.0000 -0.0006
vn -0.0002 -1.0000 0.0008
vn -0.0000 -1.0000 -0.0002
vn -0.0000 -1.0000 -0.0001
vn -0.0000 -1.0000 0.0004
vn -0.0001 -1.0000 -0.0001
vn 0.0007 -1.0000 0.0001
vn -0.0000 -1.0000 0.0001
vn 0.0001 -1.0000 -0.0001
vn -0.0000 -1.0000 -0.0005
vn 0.0002 -1.0000 0.0009
vn 0.0003 -1.0000 -0.0005
vn -0.0004 -1.0000 0.0010
vn -0.0005 -1.0000 0.0002
vn 0.0005 -1.0000 -0.0001
vn -0.0007 -1.0000 0.0002
vn 0.0003 -1.0000 -0.0000
vn 0.0007 -1.0000 0.0002
vn -0.0006 -1.0000 -0.0002
vn 0.0005 -1.0000 0.0002
vn -0.0005 -1.0000 0.0001
vn 0.0007 -1.0000 -0.0002
vn -0.0014 -1.0000 0.0002
vn 0.0027 -0.7970 0.6039
vn -0.0000 -0.8168 0.5770
vn -0.0000 -0.6134 0.7898
vn 0.0033 -0.5654 0.8248
vn -0.0034 -0.3883 0.9215
vn 0.0026 -0.1364 0.9907
vn 0.0045 -0.1129 0.9936
vn -0.0034 0.1245 0.9922
vn 0.0026 0.3772 0.9261
vn 0.0045 0.3989 0.9170
vn -0.0034 0.6039 0.7970
vn 0.0026 0.7897 0.6135
vn 0.0045 0.8040 0.5946
vn -0.0034 0.9216 0.3882
vn 0.0026 0.9906 0.1364
vn 0.0045 0.9936 0.1130
vn -0.0034 0.9922 -0.1245
vn 0.0026 0.9262 -0.3771
vn 0.0045 0.9170 -0.3988
vn -0.0034 0.7970 -0.6040
vn 0.0027 0.6136 -0.7896
vn 0.0045 0.5948 -0.8039
vn -0.0034 0.3882 -0.9216
vn 0.0027 0.1364 -0.9906
vn 0.0045 0.1130 -0.9936
vn -0.0034 -0.1245 -0.9922
vn 0.0026 -0.3771 -0.9262
vn 0.0045 -0.3988 -0.9170
vn -0.0034 -0.6040 -0.7970
vn 0.0027 -0.7896 -0.6136
vn -0.0000 -0.7687 -0.6396
vn -0.0000 -0.9216 -0.3881
vn 0.0033 -0.9430 -0.3327
vn -0.0034 -0.9906 -0.1366
vn 0.0026 -0.9922 0.1246
vn 0.0045 -0.9890 0.1480
vn -0.0034 -0.9262 0.3771
vn 0.0053 -0.7970 0.6039
vn -0.0000 -0.6135 0.7897
vn 0.0067 -0.5655 0.8247
vn -0.0068 -0.3882 0.9215
vn 0.0053 -0.1364 0.9906
vn 0.0090 -0.1130 0.9936
vn -0.0068 0.1245 0.9922
vn 0.0053 0.3772 0.9261
vn 0.0090 0.3989 0.9169
vn -0.0068 0.6039 0.7970
vn 0.0053 0.7897 0.6135
vn 0.0090 0.8039 0.5946
vn -0.0068 0.9215 0.3882
vn 0.0053 0.9906 0.1366
vn -0.0000 0.9855 0.1696
vn -0.0000 0.9922 -0.1247
vn 0.0067 0.9830 -0.1834
vn -0.0068 0.9262 -0.3771
vn 0.0053 0.7970 -0.6040
vn 0.0090 0.7824 -0.6227
vn -0.0068 0.6136 -0.7896
vn 0.0053 0.3883 -0.9215
vn -0.0000 0.4189 -0.9080
vn -0.0000 0.1364 -0.9907
vn 0.0067 0.0774 -0.9970
vn -0.0068 -0.1245 -0.9922
vn 0.0053 -0.3772 -0.9261
vn 0.0090 -0.3989 -0.9169
vn -0.0068 -0.6039 -0.7970
vn 0.0053 -0.7897 -0.6135
vn 0.0090 -0.8040 -0.5946
vn -0.0068 -0.9215 -0.3882
vn 0.0053 -0.9906 -0.1366
vn -0.0000 -0.9855 -0.1696
vn -0.0000 -0.9922 0.1247
vn 0.0067 -0.9830 0.1834
vn -0.0068 -0.9262 0.3771
vn 0.0112 0.0980 0.9951
vn -0.0112 0.0405 0.9991
vn 0.0112 -0.0980 0.9951
vn -0.0112 -0.1551 0.9878
vn 0.0112 -0.2902 0.9569
vn -0.0112 -0.3448 0.9386
vn 0.0112 -0.4714 0.8819
vn -0.0112 -0.5214 0.8533
vn 0.0112 -0.6343 0.7730
vn -0.0112 -0.6778 0.7352
vn 0.0112 -0.7730 0.6343
vn -0.0112 -0.8082 0.5888
vn 0.0112 -0.8819 0.4714
vn -0.0112 -0.9075 0.4198
vn 0.0112 -0.9569 0.2902
vn -0.0112 -0.9720 0.2347
vn 0.0112 -0.9951 0.0980
vn -0.0112 -0.9991 0.0406
vn 0.0112 -0.9951 -0.0980
vn -0.0112 -0.9878 -0.1551
vn 0.0112 -0.9569 -0.2902
vn -0.0112 -0.9386 -0.3449
vn 0.0112 -0.8819 -0.4714
vn -0.0112 -0.8533 -0.5213
vn 0.0112 -0.7730 -0.6344
vn -0.0112 -0.7352 -0.6778
vn 0.0112 -0.6343 -0.7730
vn -0.0112 -0.5888 -0.8082
vn 0.0112 -0.4714 -0.8819
vn -0.0112 -0.4198 -0.9075
vn 0.0112 -0.2903 -0.9569
vn -0.0112 -0.2347 -0.9720
vn 0.0112 -0.0980 -0.9951
vn -0.0112 -0.0406 -0.9991
vn 0.0112 0.0980 -0.9951
vn -0.0112 0.1551 -0.9878
vn 0.0112 0.2903 -0.9569
vn -0.0112 0.3449 -0.9386
vn 0.0112 0.4714 -0.8819
vn -0.0112 0.5214 -0.8533
vn 0.0112 0.6343 -0.7730
vn -0.0112 0.6778 -0.7352
vn 0.0112 0.7730 -0.6344
vn -0.0112 0.8082 -0.5888
vn 0.0112 0.8819 -0.4714
vn -0.0112 0.9076 -0.4198
vn 0.0112 0.9569 -0.2902
vn -0.0112 0.9720 -0.2347
vn 0.0112 0.9951 -0.0980
vn -0.0112 0.9991 -0.0406
vn 0.0112 0.9951 0.0980
vn -0.0112 0.9878 0.1551
vn 0.0112 0.9569 0.2903
vn -0.0112 0.9386 0.3449
vn 0.0112 0.8819 0.4714
vn -0.0112 0.8533 0.5213
vn 0.0112 0.7730 0.6343
vn -0.0112 0.7352 0.6778
vn 0.0112 0.6343 0.7730
vn -0.0112 0.5888 0.8082
vn 0.0112 0.4714 0.8819
vn -0.0112 0.4199 0.9075
vn 0.0112 0.2902 0.9569
vn -0.0111 0.2347 0.9720
vn 0.9886 -0.0050 0.1508
vn 0.9927 -0.0222 0.1185
vn 0.9488 0.0221 -0.3151
vn 0.9189 -0.0222 -0.3938
vn 0.6641 0.0221 -0.7473
vn 0.5991 -0.0221 -0.8004
vn 0.2014 0.0221 -0.9793
vn 0.1185 -0.0222 -0.9927
vn -0.2783 0.0183 -0.9603
vn -0.3468 -0.0097 -0.9379
vn -0.5923 0.0096 -0.8057
vn -0.6489 -0.0182 -0.7607
vn -0.8758 0.0182 -0.4823
vn -0.9279 -0.0292 -0.3716
vn -0.9882 0.0260 -0.1507
vn -0.9892 -0.0369 0.1422
vn -0.9603 0.0209 0.2782
vn -0.8056 -0.0051 0.5924
vn -0.7859 -0.0221 0.6180
vn -0.4824 0.0183 0.8758
vn -0.4181 -0.0097 0.9084
vn -0.1508 0.0096 0.9885
vn -0.0790 -0.0182 0.9967
vn 0.2783 0.0183 0.9603
vn 0.3937 -0.0293 0.9188
vn 0.5923 0.0259 0.8053
vn 0.8001 -0.0370 0.5987
vn 0.8758 0.0208 0.4822
vn -0.6962 -0.5604 0.4487
vn -0.7079 -0.6469 0.2838
vn -0.7163 -0.6500 0.2536
vn -0.6962 -0.7096 0.1084
vn -0.7079 -0.7020 -0.0778
vn -0.7050 -0.7059 -0.0688
vn -0.7028 -0.6627 -0.2586
vn -0.7062 -0.6541 -0.2710
vn -0.7143 -0.5302 -0.4567
vn -0.7143 -0.0519 -0.6979
vn -0.6962 0.0790 -0.7135
vn -0.7079 0.2568 -0.6580
vn -0.7050 0.2491 -0.6640
vn -0.7028 0.4213 -0.5732
vn -0.7062 0.4310 -0.5617
vn -0.7143 0.5784 -0.3940
vn -0.6962 0.6574 -0.2883
vn -0.7079 0.6982 -0.1066
vn -0.7163 0.6935 -0.0769
vn -0.6962 0.7135 0.0789
vn -0.7079 0.6580 0.2568
vn -0.7050 0.6641 0.2490
vn -0.7028 0.5732 0.4213
vn -0.7143 0.5302 0.4568
vn -0.6962 0.4487 0.5604
vn -0.7079 0.2837 0.6469
vn -0.7050 0.2934 0.6457
vn -0.7062 0.0925 0.7020
vn -0.7028 -0.0783 0.7070
vn -0.7143 -0.1305 0.6875
vn -0.6962 -0.2610 0.6688
vn -0.7079 -0.4183 0.5692
vn -0.7164 -0.4361 0.5446
vn -0.1197 -0.7037 -0.7003
vn -0.0779 -0.6853 -0.7241
vn 0.1226 -0.7218 -0.6812
vn 0.2978 -0.6765 -0.6735
vn 0.4225 -0.7267 -0.5416
vn 0.5592 -0.6900 -0.4595
vn 0.6508 -0.7121 -0.2633
vn 0.6767 -0.6980 -0.2344
vn 0.7070 -0.7003 0.0989
vn 0.7110 -0.6945 0.1106
vn 0.5799 -0.7036 0.4106
vn 0.5790 -0.7023 0.4142
vn 0.4066 -0.7014 0.5854
vn 0.4015 -0.6980 0.5930
vn 0.1197 -0.7036 0.7004
vn 0.1165 -0.7023 0.7023
vn -0.1264 -0.7014 0.7014
vn -0.1355 -0.6979 0.7032
vn -0.4106 -0.7037 0.5799
vn -0.4142 -0.7023 0.5790
vn -0.5854 -0.7014 0.4066
vn -0.5931 -0.6979 0.4014
vn -0.7084 -0.7003 0.0875
vn -0.6897 -0.7150 0.1144
vn -0.7146 -0.6859 -0.1377
vn -0.6326 -0.7267 -0.2679
vn -0.5886 -0.6900 -0.4212
vn -0.4228 -0.7122 -0.5604
vn -0.4014 -0.6979 -0.5931
vn 0.2979 -0.6765 -0.6735
vn 0.4226 -0.7267 -0.5417
vn 0.6768 -0.6979 -0.2342
vn 0.7069 -0.7003 0.0989
vn 0.7110 -0.6944 0.1108
vn 0.5799 -0.7037 0.4106
vn 0.4014 -0.6980 0.5931
vn -0.4105 -0.7037 0.5799
vn -0.4142 -0.7023 0.5789
vn -0.7084 -0.7004 0.0875
vn -0.7154 -0.6944 0.0770
vn -0.6573 -0.7004 -0.2783
vn -0.6581 -0.6944 -0.2910
vn -0.4299 -0.7003 -0.5698
vn -0.4244 -0.6944 -0.5811
vn 0.0013 0.0184 0.9998
vn -0.0013 -0.0184 0.9998
vn -0.3649 0.0178 0.9309
vn -0.5734 -0.0227 0.8189
vn -0.6547 0.0076 0.7558
vn -0.9087 -0.0085 0.4174
vn -0.9205 0.0018 0.3907
vn -1.0000 0.0037 0.0014
vn -0.9998 -0.0193 -0.0041
vn -0.9342 0.0247 -0.3560
vn -0.8221 -0.0274 -0.5686
vn -0.6788 0.0226 -0.7339
vn -0.4448 -0.0227 -0.8953
vn -0.2597 0.0227 -0.9654
vn 0.0225 -0.0226 -0.9995
vn 0.1866 0.0151 -0.9823
vn 0.4924 -0.0108 -0.8703
vn 0.4380 0.0108 -0.8989
vn 0.7037 -0.0151 -0.7104
vn 0.7912 0.0151 -0.6113
vn 0.9323 -0.0077 -0.3616
vn 0.9258 -0.0012 -0.3779
vn 0.6432 0.0071 -0.7657
vn 0.5680 -0.0070 -0.8230
vn -0.0001 0.0017 -1.0000
vn 0.0001 -0.0017 -1.0000
vn -0.5680 0.0070 -0.8230
vn -0.6432 -0.0071 -0.7657
vn -0.9258 0.0012 -0.3779
vn -0.9323 0.0077 -0.3616
vn -0.7912 -0.0151 -0.6113
vn -0.7037 0.0151 -0.7104
vn -0.4380 -0.0108 -0.8989
vn -0.4924 0.0108 -0.8703
vn -0.1866 -0.0151 -0.9823
vn -0.0554 0.0151 -0.9983
vn 0.2684 -0.0108 -0.9632
vn 0.2087 0.0108 -0.9779
vn 0.5121 -0.0151 -0.8588
vn 0.6462 0.0226 -0.7628
vn 0.8482 -0.0266 -0.5290
vn 0.9201 0.0183 -0.3913
vn 1.0000 -0.0054 -0.0006
vn 1.0000 -0.0037 -0.0010
vn 0.9205 -0.0018 0.3907
vn 0.9087 0.0085 0.4174
vn 0.6547 -0.0076 0.7558
vn 0.5734 0.0227 0.8189
vn 0.3649 -0.0178 0.9309
s 0
f 32//1 1//1 36//1
f 36//1 1//1 2//1
f 36//1 2//1 35//1
f 35//1 2//1 3//1
f 35//1 3//1 34//1
f 34//1 3//1 4//1
f 34//1 4//1 33//1
f 33//1 4//1 5//1
f 33//1 5//1 6//1
f 33//1 6//1 55//1
f 55//1 6//1 7//1
f 55//1 7//1 54//1
f 54//1 7//1 8//1
f 54//1 8//1 53//1
f 53//1 8//1 9//1
f 53//1 9//1 10//1
f 53//2 10//2 52//2
f 52//3 10//3 11//3
f 52//4 11//4 12//4
f 52//5 12//5 51//5
f 51//1 12//1 13//1
f 51//1 13//1 14//1
f 51//1 14//1 50//1
f 50//1 14//1 15//1
f 50//1 15//1 49//1
f 49//1 15//1 16//1
f 49//1 16//1 48//1
f 48//1 16//1 17//1
f 48//1 17//1 18//1
f 48//1 18//1 47//1
f 47//1 18//1 19//1
f 47//1 19//1 46//1
f 46//1 19//1 20//1
f 46//1 20//1 45//1
f 45//1 20//1 21//1
f 45//1 21//1 22//1
f 45//1 22//1 44//1
f 44//1 22//1 23//1
f 44//1 23//1 43//1
f 43//1 23//1 24//1
f 43//1 24//1 42//1
f 42//1 24//1 25//1
f 42//1 25//1 26//1
f 42//1 26//1 41//1
f 41//1 26//1 27//1
f 41//1 27//1 40//1
f 40//1 27//1 28//1
f 40//1 28//1 39//1
f 39//1 28//1 29//1
f 39//1 29//1 30//1
f 39//1 30//1 38//1
f 38//1 30//1 31//1
f 38//1 31//1 37//1
f 37//1 31//1 32//1
f 37//1 32//1 36//1
f 59//6 110//6 58//6
f 58//6 110//6 111//6
f 58//6 111//6 93//6
f 93//6 111//6 112//6
f 93//6 112//6 92//6
f 92//6 112//6 113//6
f 92//6 113//6 91//6
f 91//6 113//6 90//6
f 90//6 113//6 114//6
f 90//6 114//6 89//6
f 89//6 114//6 115//6
f 89//6 115//6 88//6
f 88//6 115//6 116//6
f 88//6 116//6 87//6
f 87//6 116//6 117//6
f 87//6 117//6 86//6
f 86//6 117//6 118//6
f 86//6 118//6 85//6
f 85//6 118//6 119//6
f 85//6 119//6 84//6
f 84//6 119//6 120//6
f 84//6 120//6 83//6
f 83//6 120//6 121//6
f 83//6 121//6 82//6
f 82//6 121//6 81//6
f 81//6 121//6 122//6
f 81//6 122//6 80//6
f 80//6 122//6 123//6
f 80//6 123//6 79//6
f 79//6 123//6 124//6
f 79//6 124//6 78//6
f 78//6 124//6 125//6
f 78//6 125//6 77//6
f 77//6 125//6 94//6
f 77//6 94//6 76//6
f 76//6 94//6 95//6
f 76//6 95//6 75//6
f 75//6 95//6 96//6
f 75//6 96//6 74//6
f 74//6 96//6 97//6
f 74//6 97//6 73//6
f 73//6 97//6 72//6
f 72//6 97//6 98//6
f 72//6 98//6 71//6
f 71//6 98//6 99//6
f 71//6 99//6 70//6
f 70//6 99//6 100//6
f 70//6 100//6 69//6
f 69//6 100//6 101//6
f 69//6 101//6 68//6
f 68//6 101//6 102//6
f 68//6 102//6 67//6
f 67//6 102//6 103//6
f 67//6 103//6 66//6
f 66//6 103//6 104//6
f 66//6 104//6 65//6
f 65//6 104//6 105//6
f 65//6 105//6 64//6
f 64//6 105//6 63//6
f 63//6 105//6 106//6
f 63//6 106//6 62//6
f 62//6 106//6 107//6
f 62//6 107//6 61//6
f 61//6 107//6 108//6
f 61//6 108//6 60//6
f 60//6 108//6 109//6
f 60//6 109//6 59//6
f 59//6 109//6 110//6
f 125//7 157//7 94//7
f 94//8 157//8 126//8
f 94//9 126//9 95//9
f 95//10 126//10 127//10
f 95//11 127//11 96//11
f 96//12 127//12 128//12
f 96//13 128//13 97//13
f 97//14 128//14 129//14
f 97//15 129//15 98//15
f 98//16 129//16 130//16
f 98//17 130//17 99//17
f 99//18 130//18 131//18
f 99//19 131//19 100//19
f 100//20 131//20 132//20
f 100//21 132//21 101//21
f 101//22 132//22 133//22
f 101//23 133//23 102//23
f 102//24 133//24 134//24
f 102//25 134//25 103//25
f 103//26 134//26 135//26
f 103//27 135//27 104//27
f 104//28 135//28 136//28
f 104//29 136//29 105//29
f 105//30 136//30 137//30
f 105//31 137//31 106//31
f 106//32 137//32 138//32
f 106//33 138//33 107//33
f 107//34 138//34 139//34
f 107//35 139//35 108//35
f 108//36 139//36 140//36
f 108//37 140//37 109//37
f 109//38 140//38 141//38
f 109//39 141//39 110//39
f 110//40 141//40 142//40
f 110//41 142//41 111//41
f 111//42 142//42 143//42
f 111//43 143//43 112//43
f 112//44 143//44 144//44
f 112//45 144//45 113//45
f 113//46 144//46 145//46
f 113//47 145//47 114//47
f 114//48 145//48 146//48
f 114//49 146//49 115//49
f 115//50 146//50 147//50
f 115//51 147//51 116//51
f 116//52 147//52 148//52
f 116//53 148//53 117//53
f 117//54 148//54 149//54
f 117//55 149//55 118//55
f 118//56 149//56 150//56
f 118//57 150//57 119//57
f 119//58 150//58 151//58
f 119//59 151//59 120//59
f 120//60 151//60 152//60
f 120//61 152//61 121//61
f 121//62 152//62 153//62
f 121//63 153//63 122//63
f 122//64 153//64 154//64
f 122//65 154//65 123//65
f 123//66 154//66 155//66
f 123//67 155//67 124//67
f 124//68 155//68 156//68
f 124//69 156//69 125//69
f 125//70 156//70 157//70
f 160//71 172//71 159//71
f 161//72 172//72 160//72
f 166//73 172//73 165//73
f 167//74 172//74 166//74
f 162//75 172//75 161//75
f 171//76 172//76 170//76
f 159//77 172//77 158//77
f 158//78 172//78 171//78
f 170//79 172//79 169//79
f 169//80 172//80 168//80
f 168//81 172//81 167//81
f 165//82 172//82 164//82
f 164//83 172//83 163//83
f 163//84 172//84 162//84
f 175//85 187//85 174//85
f 176//86 187//86 175//86
f 177//87 187//87 176//87
f 178//88 187//88 177//88
f 184//89 187//89 183//89
f 185//90 187//90 184//90
f 186//91 187//91 185//91
f 174//92 187//92 186//92
f 180//93 187//93 179//93
f 183//94 187//94 182//94
f 182//95 187//95 181//95
f 181//96 187//96 180//96
f 179//97 187//97 178//97
f 189//98 210//98 211//98
f 189//98 211//98 203//98
f 203//98 211//98 202//98
f 202//98 211//98 212//98
f 202//98 212//98 213//98
f 202//98 213//98 201//98
f 201//98 213//98 200//98
f 200//98 213//98 214//98
f 200//98 214//98 215//98
f 200//98 215//98 199//98
f 199//98 215//98 198//98
f 198//98 215//98 216//98
f 198//98 216//98 217//98
f 198//98 217//98 197//98
f 197//98 217//98 196//98
f 196//98 217//98 204//98
f 196//98 204//98 195//98
f 195//98 204//98 205//98
f 195//98 205//98 194//98
f 194//98 205//98 206//98
f 194//98 206//98 193//98
f 193//98 206//98 192//98
f 192//98 206//98 207//98
f 192//98 207//98 208//98
f 192//98 208//98 191//98
f 191//98 208//98 209//98
f 191//98 209//98 190//98
f 190//98 209//98 210//98
f 190//98 210//98 189//98
f 219//98 239//98 218//98
f 218//98 239//98 240//98
f 218//98 240//98 230//98
f 230//98 240//98 229//98
f 229//98 240//98 241//98
f 229//98 241//98 228//98
f 228//98 241//98 242//98
f 228//98 242//98 227//98
f 227//98 242//98 243//98
f 227//98 243//98 226//98
f 226//98 243//98 244//98
f 226//98 244//98 225//98
f 225//98 244//98 231//98
f 225//98 231//98 224//98
f 224//98 231//98 232//98
f 224//98 232//98 223//98
f 223//98 232//98 233//98
f 223//98 233//98 234//98
f 223//98 234//98 222//98
f 222//98 234//98 235//98
f 222//98 235//98 221//98
f 221//98 235//98 236//98
f 221//98 236//98 220//98
f 220//98 236//98 237//98
f 220//98 237//98 238//98
f 220//98 238//98 219//98
f 219//98 238//98 239//98
f 218//99 158//99 171//99
f 218//100 171//100 219//100
f 219//101 171//101 170//101
f 219//102 170//102 220//102
f 220//103 170//103 169//103
f 220//104 169//104 221//104
f 221//105 169//105 168//105
f 221//106 168//106 222//106
f 222//107 168//107 167//107
f 222//108 167//108 223//108
f 223//109 167//109 166//109
f 223//110 166//110 224//110
f 224//111 166//111 165//111
f 224//112 165//112 164//112
f 224//113 164//113 225//113
f 225//114 164//114 163//114
f 225//115 163//115 226//115
f 226//116 163//116 162//116
f 226//117 162//117 227//117
f 227//118 162//118 161//118
f 227//119 161//119 228//119
f 228//120 161//120 160//120
f 228//121 160//121 229//121
f 229//122 160//122 159//122
f 229//123 159//123 230//123
f 230//124 159//124 158//124
f 230//125 158//125 218//125
f 246//126 280//126 245//126
f 245//127 280//127 281//127
f 245//128 281//128 268//128
f 268//129 281//129 282//129
f 268//129 282//129 267//129
f 267//130 282//130 283//130
f 267//131 283//131 266//131
f 266//132 283//132 284//132
f 266//133 284//133 265//133
f 265//134 284//134 285//134
f 265//134 285//134 264//134
f 264//135 285//135 286//135
f 264//136 286//136 263//136
f 263//137 286//137 287//137
f 263//137 287//137 262//137
f 262//138 287//138 288//138
f 262//138 288//138 261//138
f 261//139 288//139 289//139
f 261//140 289//140 260//140
f 260//141 289//141 290//141
f 260//142 290//142 259//142
f 259//143 290//143 291//143
f 259//143 291//143 258//143
f 258//144 291//144 269//144
f 258//145 269//145 257//145
f 257//146 269//146 270//146
f 257//147 270//147 256//147
f 256//148 270//148 271//148
f 256//148 271//148 255//148
f 255//149 271//149 254//149
f 254//150 271//150 272//150
f 254//151 272//151 253//151
f 253//152 272//152 273//152
f 280//153 246//153 279//153
f 279//154 246//154 247//154
f 279//154 247//154 278//154
f 278//155 247//155 248//155
f 278//155 248//155 277//155
f 277//156 248//156 249//156
f 277//157 249//157 276//157
f 276//158 249//158 250//158
f 276//158 250//158 275//158
f 275//159 250//159 251//159
f 275//159 251//159 274//159
f 274//160 251//160 252//160
f 274//161 252//161 273//161
f 273//162 252//162 253//162
f 292//6 302//6 304//6
f 304//6 302//6 303//6
f 302//6 292//6 301//6
f 301//6 292//6 293//6
f 301//6 293//6 294//6
f 301//6 294//6 300//6
f 300//6 294//6 295//6
f 300//6 295//6 299//6
f 299//6 295//6 296//6
f 299//6 296//6 298//6
f 298//6 296//6 297//6
f 306//7 368//7 305//7
f 305//8 368//8 337//8
f 305//9 337//9 336//9
f 336//10 337//10 338//10
f 336//11 338//11 335//11
f 335//12 338//12 339//12
f 335//13 339//13 334//13
f 334//14 339//14 340//14
f 334//15 340//15 333//15
f 333//16 340//16 341//16
f 333//17 341//17 332//17
f 332//18 341//18 342//18
f 332//19 342//19 331//19
f 331//20 342//20 343//20
f 331//21 343//21 330//21
f 330//163 343//163 344//163
f 330//23 344//23 329//23
f 329//24 344//24 345//24
f 329//25 345//25 328//25
f 328//26 345//26 346//26
f 328//27 346//27 327//27
f 327//28 346//28 347//28
f 327//29 347//29 326//29
f 326//30 347//30 348//30
f 326//31 348//31 325//31
f 325//32 348//32 349//32
f 325//33 349//33 324//33
f 324//34 349//34 350//34
f 324//35 350//35 323//35
f 323//36 350//36 351//36
f 323//37 351//37 322//37
f 322//38 351//38 352//38
f 322//39 352//39 321//39
f 321//164 352//164 353//164
f 321//41 353//41 320//41
f 320//165 353//165 354//165
f 320//43 354//43 319//43
f 319//44 354//44 355//44
f 319//45 355//45 318//45
f 318//46 355//46 356//46
f 318//47 356//47 317//47
f 317//48 356//48 357//48
f 317//49 357//49 316//49
f 316//50 357//50 358//50
f 316//51 358//51 315//51
f 315//52 358//52 359//52
f 315//53 359//53 314//53
f 314//54 359//54 360//54
f 314//55 360//55 313//55
f 313//56 360//56 361//56
f 313//57 361//57 312//57
f 312//58 361//58 362//58
f 312//59 362//59 311//59
f 311//166 362//166 363//166
f 311//61 363//61 310//61
f 310//62 363//62 364//62
f 310//63 364//63 309//63
f 309//167 364//167 365//167
f 309//65 365//65 308//65
f 308//168 365//168 366//168
f 308//67 366//67 307//67
f 307//68 366//68 367//68
f 307//69 367//69 306//69
f 306//70 367//70 368//70
f 370//6 380//6 369//6
f 369//6 380//6 381//6
f 380//6 370//6 379//6
f 379//6 370//6 371//6
f 379//6 371//6 378//6
f 378//6 371//6 372//6
f 378//6 372//6 377//6
f 377//6 372//6 376//6
f 376//6 372//6 373//6
f 376//6 373//6 375//6
f 375//6 373//6 374//6
f 383//169 294//169 382//169
f 382//170 294//170 398//170
f 398//171 294//171 293//171
f 398//172 293//172 292//172
f 398//173 292//173 397//173
f 397//174 292//174 396//174
f 396//175 292//175 304//175
f 396//176 304//176 395//176
f 395//177 304//177 303//177
f 395//178 303//178 394//178
f 394//179 303//179 302//179
f 394//180 302//180 393//180
f 393//181 302//181 301//181
f 393//182 301//182 392//182
f 392//183 301//183 391//183
f 391//184 301//184 300//184
f 391//185 300//185 390//185
f 390//186 300//186 299//186
f 390//187 299//187 389//187
f 389//188 299//188 298//188
f 389//189 298//189 388//189
f 388//190 298//190 387//190
f 387//191 298//191 297//191
f 387//192 297//192 386//192
f 386//193 297//193 296//193
f 386//194 296//194 385//194
f 385//195 296//195 384//195
f 384//196 296//196 295//196
f 384//197 295//197 383//197
f 383//198 295//198 294//198
f 434//6 321//6 399//6
f 399//6 321//6 320//6
f 399//6 320//6 400//6
f 400//6 320//6 319//6
f 400//6 319//6 401//6
f 401//6 319//6 318//6
f 401//6 318//6 402//6
f 402//6 318//6 403//6
f 403//6 318//6 317//6
f 403//6 317//6 404//6
f 404//6 317//6 316//6
f 404//6 316//6 405//6
f 405//6 316//6 315//6
f 405//6 315//6 406//6
f 406//6 315//6 314//6
f 406//6 314//6 407//6
f 407//6 314//6 313//6
f 407//6 313//6 408//6
f 408//6 313//6 312//6
f 408//6 312//6 409//6
f 409//6 312//6 311//6
f 409//6 311//6 410//6
f 410//6 311//6 310//6
f 410//6 310//6 411//6
f 411//6 310//6 412//6
f 412//6 310//6 309//6
f 412//6 309//6 413//6
f 413//6 309//6 308//6
f 413//6 308//6 414//6
f 414//6 308//6 307//6
f 414//6 307//6 415//6
f 415//6 307//6 306//6
f 415//6 306//6 416//6
f 416//6 306//6 305//6
f 416//6 305//6 417//6
f 417//6 305//6 336//6
f 417//6 336//6 418//6
f 418//6 336//6 335//6
f 418//6 335//6 419//6
f 419//6 335//6 334//6
f 419//6 334//6 420//6
f 420//6 334//6 421//6
f 421//6 334//6 333//6
f 421//6 333//6 422//6
f 422//6 333//6 332//6
f 422//6 332//6 423//6
f 423//6 332//6 331//6
f 423//6 331//6 424//6
f 424//6 331//6 330//6
f 424//6 330//6 425//6
f 425//6 330//6 329//6
f 425//6 329//6 426//6
f 426//6 329//6 328//6
f 426//6 328//6 427//6
f 427//6 328//6 327//6
f 427//6 327//6 428//6
f 428//6 327//6 326//6
f 428//6 326//6 429//6
f 429//6 326//6 430//6
f 430//6 326//6 325//6
f 430//6 325//6 431//6
f 431//6 325//6 324//6
f 431//6 324//6 432//6
f 432//6 324//6 323//6
f 432//6 323//6 433//6
f 433//6 323//6 322//6
f 433//6 322//6 434//6
f 434//6 322//6 321//6
f 472//199 389//199 471//199
f 471//200 389//200 388//200
f 471//201 388//201 494//201
f 494//202 388//202 387//202
f 494//203 387//203 493//203
f 493//204 387//204 386//204
f 493//205 386//205 492//205
f 492//206 386//206 491//206
f 491//207 386//207 385//207
f 491//208 385//208 490//208
f 490//209 385//209 384//209
f 490//210 384//210 489//210
f 489//211 384//211 488//211
f 488//212 384//212 383//212
f 488//213 383//213 487//213
f 487//214 383//214 382//214
f 487//215 382//215 486//215
f 486//216 382//216 398//216
f 486//217 398//217 485//217
f 485//218 398//218 484//218
f 484//219 398//219 397//219
f 484//220 397//220 483//220
f 483//221 397//221 396//221
f 483//222 396//222 482//222
f 482//223 396//223 395//223
f 482//224 395//224 481//224
f 481//225 395//225 480//225
f 480//226 395//226 394//226
f 480//227 394//227 479//227
f 479//228 394//228 393//228
f 479//229 393//229 478//229
f 478//230 393//230 477//230
f 477//231 393//231 392//231
f 477//232 392//232 476//232
f 476//233 392//233 391//233
f 476//234 391//234 475//234
f 475//235 391//235 390//235
f 475//236 390//236 474//236
f 474//237 390//237 473//237
f 473//238 390//238 389//238
f 473//239 389//239 472//239
f 496//1 281//1 495//1
f 495//1 281//1 280//1
f 495//1 280//1 526//1
f 526//1 280//1 279//1
f 526//1 279//1 525//1
f 525//1 279//1 524//1
f 524//1 279//1 278//1
f 524//1 278//1 523//1
f 523//1 278//1 277//1
f 523//1 277//1 522//1
f 522//1 277//1 276//1
f 522//1 276//1 521//1
f 521//1 276//1 520//1
f 520//1 276//1 275//1
f 520//1 275//1 519//1
f 519//1 275//1 274//1
f 519//1 274//1 518//1
f 518//1 274//1 273//1
f 518//1 273//1 517//1
f 517//1 273//1 516//1
f 516//5 273//5 272//5
f 516//3 272//3 515//3
f 515//3 272//3 514//3
f 514//2 272//2 271//2
f 514//1 271//1 513//1
f 513//1 271//1 512//1
f 512//1 271//1 270//1
f 512//1 270//1 511//1
f 511//1 270//1 269//1
f 511//1 269//1 510//1
f 510//1 269//1 291//1
f 510//1 291//1 509//1
f 509//1 291//1 508//1
f 508//1 291//1 290//1
f 508//1 290//1 507//1
f 507//1 290//1 289//1
f 507//1 289//1 506//1
f 506//1 289//1 288//1
f 506//1 288//1 505//1
f 505//1 288//1 504//1
f 504//1 288//1 287//1
f 504//1 287//1 503//1
f 503//1 287//1 286//1
f 503//1 286//1 502//1
f 502//1 286//1 285//1
f 502//1 285//1 501//1
f 501//1 285//1 500//1
f 500//1 285//1 284//1
f 500//1 284//1 499//1
f 499//1 284//1 283//1
f 499//1 283//1 498//1
f 498//1 283//1 282//1
f 498//1 282//1 497//1
f 497//1 282//1 496//1
f 496//1 282//1 281//1
f 217//240 537//240 204//240
f 204//241 537//241 538//241
f 204//242 538//242 205//242
f 205//243 538//243 539//243
f 205//244 539//244 206//244
f 206//245 539//245 540//245
f 206//246 540//246 207//246
f 207//247 540//247 527//247
f 207//248 527//248 208//248
f 208//249 527//249 528//249
f 208//250 528//250 209//250
f 209//251 528//251 529//251
f 209//252 529//252 210//252
f 210//253 529//253 530//253
f 210//254 530//254 211//254
f 211//255 530//255 531//255
f 211//256 531//256 212//256
f 212//257 531//257 532//257
f 212//258 532//258 213//258
f 213//259 532//259 533//259
f 213//260 533//260 214//260
f 214//261 533//261 534//261
f 214//262 534//262 215//262
f 215//263 534//263 535//263
f 215//264 535//264 216//264
f 216//265 535//265 536//265
f 216//266 536//266 217//266
f 217//267 536//267 537//267
f 542//268 523//268 541//268
f 541//269 523//269 522//269
f 541//270 522//270 572//270
f 572//271 522//271 521//271
f 572//272 521//272 571//272
f 571//273 521//273 520//273
f 571//274 520//274 570//274
f 570//275 520//275 519//275
f 570//276 519//276 569//276
f 569//277 519//277 518//277
f 569//278 518//278 568//278
f 568//279 518//279 517//279
f 568//280 517//280 567//280
f 567//281 517//281 516//281
f 567//282 516//282 566//282
f 566//283 516//283 515//283
f 566//284 515//284 565//284
f 565//285 515//285 514//285
f 565//286 514//286 564//286
f 564//287 514//287 513//287
f 564//288 513//288 563//288
f 563//289 513//289 512//289
f 563//290 512//290 562//290
f 562//291 512//291 511//291
f 562//292 511//292 561//292
f 561//293 511//293 510//293
f 561//294 510//294 560//294
f 560//295 510//295 509//295
f 560//296 509//296 559//296
f 559//297 509//297 508//297
f 559//298 508//298 558//298
f 558//299 508//299 507//299
f 558//300 507//300 557//300
f 557//301 507//301 506//301
f 557//302 506//302 556//302
f 556//303 506//303 505//303
f 556//304 505//304 555//304
f 555//305 505//305 504//305
f 555//306 504//306 554//306
f 554//307 504//307 503//307
f 554//308 503//308 553//308
f 553//309 503//309 502//309
f 553//310 502//310 552//310
f 552//311 502//311 501//311
f 552//312 501//312 551//312
f 551//313 501//313 500//313
f 551//314 500//314 550//314
f 550//315 500//315 499//315
f 550//316 499//316 549//316
f 549//317 499//317 498//317
f 549//318 498//318 548//318
f 548//319 498//319 497//319
f 548//320 497//320 547//320
f 547//321 497//321 496//321
f 547//322 496//322 546//322
f 546//323 496//323 495//323
f 546//324 495//324 545//324
f 545//325 495//325 526//325
f 545//326 526//326 544//326
f 544//327 526//327 525//327
f 544//328 525//328 543//328
f 543//329 525//329 524//329
f 543//330 524//330 542//330
f 542//331 524//331 523//331
f 338//6 337//6 487//6
f 487//6 337//6 368//6
f 487//6 368//6 488//6
f 488//6 368//6 367//6
f 488//6 367//6 489//6
f 489//6 367//6 366//6
f 489//6 366//6 490//6
f 490//6 366//6 365//6
f 490//6 365//6 364//6
f 490//6 364//6 491//6
f 491//6 364//6 363//6
f 491//6 363//6 492//6
f 492//6 363//6 362//6
f 492//6 362//6 493//6
f 493//6 362//6 361//6
f 493//6 361//6 360//6
f 493//6 360//6 494//6
f 494//6 360//6 359//6
f 494//6 359//6 471//6
f 471//6 359//6 358//6
f 471//6 358//6 472//6
f 472//6 358//6 357//6
f 472//6 357//6 356//6
f 472//6 356//6 473//6
f 473//6 356//6 355//6
f 473//6 355//6 474//6
f 474//6 355//6 354//6
f 474//6 354//6 475//6
f 475//6 354//6 353//6
f 475//6 353//6 352//6
f 475//6 352//6 476//6
f 476//6 352//6 351//6
f 476//6 351//6 477//6
f 477//6 351//6 350//6
f 477//6 350//6 478//6
f 478//6 350//6 349//6
f 478//6 349//6 348//6
f 478//6 348//6 479//6
f 479//6 348//6 347//6
f 479//6 347//6 480//6
f 480//6 347//6 346//6
f 480//6 346//6 481//6
f 481//6 346//6 345//6
f 481//6 345//6 344//6
f 481//6 344//6 482//6
f 482//6 344//6 343//6
f 482//6 343//6 483//6
f 483//6 343//6 342//6
f 483//6 342//6 484//6
f 484//6 342//6 341//6
f 484//6 341//6 340//6
f 484//6 340//6 485//6
f 485//6 340//6 339//6
f 485//6 339//6 486//6
f 486//6 339//6 338//6
f 486//6 338//6 487//6
f 470//1 625//1 435//1
f 435//1 625//1 626//1
f 435//1 626//1 436//1
f 436//1 626//1 627//1
f 436//1 627//1 437//1
f 437//1 627//1 628//1
f 437//1 628//1 438//1
f 438//1 628//1 439//1
f 439//1 628//1 629//1
f 439//1 629//1 440//1
f 440//1 629//1 630//1
f 440//1 630//1 441//1
f 441//1 630//1 631//1
f 441//1 631//1 442//1
f 442//1 631//1 632//1
f 442//1 632//1 443//1
f 443//1 632//1 633//1
f 443//1 633//1 444//1
f 444//1 633//1 634//1
f 444//1 634//1 445//1
f 445//1 634//1 635//1
f 445//1 635//1 446//1
f 446//1 635//1 636//1
f 446//1 636//1 447//1
f 447//1 636//1 448//1
f 448//1 636//1 637//1
f 448//1 637//1 449//1
f 449//1 637//1 638//1
f 449//1 638//1 450//1
f 450//1 638//1 639//1
f 450//1 639//1 451//1
f 451//1 639//1 640//1
f 451//1 640//1 452//1
f 452//1 640//1 609//1
f 452//1 609//1 453//1
f 453//1 609//1 610//1
f 453//1 610//1 454//1
f 454//1 610//1 611//1
f 454//1 611//1 455//1
f 455//1 611//1 612//1
f 455//1 612//1 456//1
f 456//1 612//1 457//1
f 457//1 612//1 613//1
f 457//1 613//1 458//1
f 458//1 613//1 614//1
f 458//1 614//1 459//1
f 459//1 614//1 615//1
f 459//1 615//1 460//1
f 460//1 615//1 616//1
f 460//1 616//1 461//1
f 461//1 616//1 617//1
f 461//1 617//1 462//1
f 462//1 617//1 618//1
f 462//1 618//1 463//1
f 463//1 618//1 619//1
f 463//1 619//1 464//1
f 464//1 619//1 620//1
f 464//1 620//1 465//1
f 465//1 620//1 466//1
f 466//1 620//1 621//1
f 466//1 621//1 467//1
f 467//1 621//1 622//1
f 467//1 622//1 468//1
f 468//1 622//1 623//1
f 468//1 623//1 469//1
f 469//1 623//1 624//1
f 469//1 624//1 470//1
f 470//1 624//1 625//1
f 642//1 644//1 641//1
f 641//1 644//1 645//1
f 641//1 645//1 653//1
f 653//1 645//1 646//1
f 653//1 646//1 652//1
f 652//1 646//1 647//1
f 652//1 647//1 651//1
f 651//1 647//1 648//1
f 651//1 648//1 650//1
f 650//1 648//1 649//1
f 644//1 642//1 643//1
f 655//332 45//332 654//332
f 654//128 45//128 44//128
f 654//128 44//128 677//128
f 677//129 44//129 43//129
f 677//129 43//129 676//129
f 676//130 43//130 42//130
f 676//130 42//130 675//130
f 675//333 42//333 41//333
f 675//133 41//133 674//133
f 674//134 41//134 40//134
f 674//334 40//334 673//334
f 673//135 40//135 39//135
f 673//335 39//335 672//335
f 672//137 39//137 38//137
f 672//336 38//336 671//336
f 671//138 38//138 37//138
f 671//138 37//138 670//138
f 670//139 37//139 36//139
f 670//140 36//140 669//140
f 669//141 36//141 35//141
f 669//141 35//141 668//141
f 668//337 35//337 34//337
f 668//143 34//143 667//143
f 667//144 34//144 33//144
f 667//145 33//145 666//145
f 666//338 33//338 55//338
f 666//338 55//338 665//338
f 665//148 55//148 54//148
f 665//148 54//148 664//148
f 664//339 54//339 663//339
f 663//340 54//340 53//340
f 663//341 53//341 662//341
f 662//342 53//342 52//342
f 662//343 52//343 661//343
f 661//344 52//344 51//344
f 45//153 655//153 46//153
f 46//154 655//154 656//154
f 46//154 656//154 47//154
f 47//155 656//155 657//155
f 47//155 657//155 48//155
f 48//156 657//156 658//156
f 48//157 658//157 49//157
f 49//158 658//158 659//158
f 49//158 659//158 50//158
f 50//159 659//159 660//159
f 50//159 660//159 51//159
f 51//161 660//161 661//161
f 127//6 126//6 686//6
f 686//6 126//6 157//6
f 686//6 157//6 685//6
f 685//6 157//6 156//6
f 685//6 156//6 684//6
f 684//6 156//6 155//6
f 684//6 155//6 683//6
f 683//6 155//6 154//6
f 683//6 154//6 153//6
f 683//6 153//6 682//6
f 682//6 153//6 152//6
f 682//6 152//6 681//6
f 681//6 152//6 151//6
f 681//6 151//6 680//6
f 680//6 151//6 150//6
f 680//6 150//6 149//6
f 680//6 149//6 679//6
f 679//6 149//6 148//6
f 679//6 148//6 678//6
f 678//6 148//6 147//6
f 678//6 147//6 701//6
f 701//6 147//6 146//6
f 701//6 146//6 145//6
f 701//6 145//6 700//6
f 700//6 145//6 144//6
f 700//6 144//6 699//6
f 699//6 144//6 143//6
f 699//6 143//6 698//6
f 698//6 143//6 142//6
f 698//6 142//6 141//6
f 698//6 141//6 697//6
f 697//6 141//6 140//6
f 697//6 140//6 696//6
f 696//6 140//6 139//6
f 696//6 139//6 695//6
f 695//6 139//6 138//6
f 695//6 138//6 137//6
f 695//6 137//6 694//6
f 694//6 137//6 136//6
f 694//6 136//6 693//6
f 693//6 136//6 135//6
f 693//6 135//6 692//6
f 692//6 135//6 134//6
f 692//6 134//6 133//6
f 692//6 133//6 691//6
f 691//6 133//6 132//6
f 691//6 132//6 690//6
f 690//6 132//6 131//6
f 690//6 131//6 689//6
f 689//6 131//6 130//6
f 689//6 130//6 129//6
f 689//6 129//6 688//6
f 688//6 129//6 128//6
f 688//6 128//6 687//6
f 687//6 128//6 127//6
f 687//6 127//6 686//6
f 703//249 243//249 702//249
f 702//248 243//248 242//248
f 702//247 242//247 715//247
f 715//246 242//246 241//246
f 715//245 241//245 714//245
f 714//244 241//244 240//244
f 714//243 240//243 713//243
f 713//242 240//242 239//242
f 713//241 239//241 712//241
f 712//240 239//240 238//240
f 712//267 238//267 711//267
f 711//345 238//345 237//345
f 711//265 237//265 710//265
f 710//346 237//346 236//346
f 710//263 236//263 709//263
f 709//262 236//262 235//262
f 709//261 235//261 708//261
f 708//260 235//260 234//260
f 708//259 234//259 707//259
f 707//347 234//347 233//347
f 707//257 233//257 706//257
f 706//256 233//256 232//256
f 706//348 232//348 705//348
f 705//254 232//254 231//254
f 705//253 231//253 704//253
f 704//252 231//252 244//252
f 704//251 244//251 703//251
f 703//250 244//250 243//250
f 369//349 722//349 370//349
f 370//350 722//350 723//350
f 370//351 723//351 371//351
f 371//352 723//352 724//352
f 371//353 724//353 725//353
f 371//184 725//184 372//184
f 372//354 725//354 726//354
f 372//355 726//355 373//355
f 373//356 726//356 727//356
f 373//357 727//357 728//357
f 373//358 728//358 374//358
f 374//359 728//359 729//359
f 374//360 729//360 375//360
f 375//361 729//361 376//361
f 376//362 729//362 730//362
f 376//363 730//363 731//363
f 376//364 731//364 377//364
f 377//365 731//365 716//365
f 377//366 716//366 378//366
f 378//367 716//367 717//367
f 378//368 717//368 379//368
f 379//197 717//197 718//197
f 379//196 718//196 380//196
f 380//369 718//369 719//369
f 380//370 719//370 720//370
f 380//371 720//371 381//371
f 381//372 720//372 721//372
f 381//373 721//373 369//373
f 369//374 721//374 722//374
f 57//375 740//375 56//375
f 56//375 740//375 750//375
f 173//376 765//376 57//376
f 57//377 765//377 766//377
f 188//375 733//375 173//375
f 56//375 771//375 188//375
f 188//378 771//378 772//378
f 188//375 732//375 733//375
f 733//375 734//375 173//375
f 173//375 734//375 735//375
f 173//375 735//375 761//375
f 761//379 735//379 760//379
f 760//380 735//380 759//380
f 759//375 735//375 736//375
f 759//381 736//381 758//381
f 758//375 736//375 757//375
f 757//382 736//382 770//382
f 770//375 736//375 737//375
f 770//383 737//383 769//383
f 769//375 737//375 738//375
f 769//384 738//384 768//384
f 768//375 738//375 57//375
f 768//385 57//385 767//385
f 767//386 57//386 766//386
f 738//375 739//375 57//375
f 57//375 739//375 740//375
f 750//387 740//387 749//387
f 749//375 740//375 741//375
f 749//375 741//375 748//375
f 748//375 741//375 742//375
f 748//375 742//375 747//375
f 747//375 742//375 745//375
f 747//375 745//375 746//375
f 745//375 742//375 744//375
f 744//375 742//375 743//375
f 750//375 751//375 56//375
f 56//375 751//375 782//375
f 56//388 782//388 783//388
f 782//375 751//375 781//375
f 781//375 751//375 752//375
f 781//375 752//375 753//375
f 781//384 753//384 780//384
f 780//389 753//389 779//389
f 779//375 753//375 778//375
f 778//390 753//390 777//390
f 777//375 753//375 754//375
f 777//391 754//391 776//391
f 776//392 754//392 775//392
f 775//375 754//375 188//375
f 188//375 754//375 755//375
f 755//375 756//375 188//375
f 188//375 756//375 732//375
f 761//393 762//393 173//393
f 173//394 762//394 763//394
f 763//395 764//395 173//395
f 173//396 764//396 765//396
f 772//397 773//397 188//397
f 188//398 773//398 774//398
f 774//399 775//399 188//399
f 56//400 783//400 784//400
f 56//401 784//401 785//401
f 56//402 785//402 771//402
f 608//1 541//1 573//1
f 573//1 541//1 572//1
f 573//1 572//1 574//1
f 574//1 572//1 571//1
f 574//1 571//1 575//1
f 575//1 571//1 570//1
f 575//1 570//1 576//1
f 576//1 570//1 577//1
f 577//1 570//1 569//1
f 577//1 569//1 578//1
f 578//1 569//1 568//1
f 578//1 568//1 579//1
f 579//1 568//1 567//1
f 579//1 567//1 580//1
f 580//1 567//1 566//1
f 580//1 566//1 581//1
f 581//1 566//1 565//1
f 581//1 565//1 582//1
f 582//1 565//1 564//1
f 582//1 564//1 583//1
f 583//1 564//1 563//1
f 583//1 563//1 584//1
f 584//1 563//1 562//1
f 584//1 562//1 585//1
f 585//1 562//1 586//1
f 586//1 562//1 561//1
f 586//1 561//1 587//1
f 587//1 561//1 560//1
f 587//1 560//1 588//1
f 588//1 560//1 559//1
f 588//1 559//1 589//1
f 589//1 559//1 558//1
f 589//1 558//1 590//1
f 590//1 558//1 557//1
f 590//1 557//1 591//1
f 591//1 557//1 556//1
f 591//1 556//1 592//1
f 592//1 556//1 555//1
f 592//1 555//1 593//1
f 593//1 555//1 554//1
f 593//1 554//1 594//1
f 594//1 554//1 595//1
f 595//1 554//1 553//1
f 595//1 553//1 596//1
f 596//1 553//1 552//1
f 596//1 552//1 597//1
f 597//1 552//1 551//1
f 597//1 551//1 598//1
f 598//1 551//1 550//1
f 598//1 550//1 599//1
f 599//1 550//1 549//1
f 599//1 549//1 600//1
f 600//1 549//1 548//1
f 600//1 548//1 601//1
f 601//1 548//1 547//1
f 601//1 547//1 602//1
f 602//1 547//1 546//1
f 602//1 546//1 603//1
f 603//1 546//1 604//1
f 604//1 546//1 545//1
f 604//1 545//1 605//1
f 605//1 545//1 544//1
f 605//1 544//1 606//1
f 606//1 544//1 543//1
f 606//1 543//1 607//1
f 607//1 543//1 542//1
f 607//1 542//1 608//1
f 608//1 542//1 541//1
f 677//403 642//403 654//403
f 654//404 642//404 641//404
f 654//405 641//405 655//405
f 655//406 641//406 653//406
f 655//407 653//407 656//407
f 656//408 653//408 657//408
f 657//409 653//409 652//409
f 657//410 652//410 658//410
f 658//411 652//411 659//411
f 659//412 652//412 651//412
f 659//413 651//413 660//413
f 660//414 651//414 661//414
f 661//415 651//415 650//415
f 661//416 650//416 662//416
f 662//417 650//417 663//417
f 663//418 650//418 649//418
f 663//419 649//419 664//419
f 664//420 649//420 665//420
f 665//421 649//421 648//421
f 665//422 648//422 666//422
f 666//423 648//423 667//423
f 667//424 648//424 647//424
f 667//425 647//425 668//425
f 668//426 647//426 669//426
f 669//427 647//427 646//427
f 669//428 646//428 670//428
f 670//429 646//429 671//429
f 671//430 646//430 645//430
f 671//431 645//431 672//431
f 672//432 645//432 673//432
f 673//433 645//433 644//433
f 673//434 644//434 674//434
f 674//435 644//435 643//435
f 674//436 643//436 675//436
f 675//437 643//437 676//437
f 676//438 643//438 642//438
f 676//439 642//439 677//439
f 268//440 799//440 245//440
f 245//404 799//404 786//404
f 245//441 786//441 246//441
f 246//442 786//442 787//442
f 246//443 787//443 247//443
f 247//444 787//444 248//444
f 248//445 787//445 788//445
f 248//446 788//446 249//446
f 249//447 788//447 250//447
f 250//448 788//448 789//448
f 250//449 789//449 251//449
f 251//450 789//450 252//450
f 252//451 789//451 790//451
f 252//452 790//452 253//452
f 253//453 790//453 254//453
f 254//454 790//454 791//454
f 254//455 791//455 255//455
f 255//456 791//456 792//456
f 255//457 792//457 256//457
f 256//458 792//458 257//458
f 257//459 792//459 793//459
f 257//460 793//460 258//460
f 258//461 793//461 259//461
f 259//462 793//462 794//462
f 259//463 794//463 260//463
f 260//464 794//464 795//464
f 260//465 795//465 261//465
f 261//466 795//466 262//466
f 262//467 795//467 796//467
f 262//468 796//468 263//468
f 263//469 796//469 264//469
f 264//470 796//470 797//470
f 264//471 797//471 265//471
f 265//472 797//472 266//472
f 266//473 797//473 798//473
f 266//474 798//474 267//474
f 267//475 798//475 799//475
f 267//476 799//476 268//476
f 32//477 626//477 1//477
f 1//478 626//478 625//478
f 1//479 625//479 2//479
f 2//480 625//480 624//480
f 2//481 624//481 3//481
f 3//482 624//482 623//482
f 3//483 623//483 4//483
f 4//484 623//484 622//484
f 4//485 622//485 5//485
f 5//486 622//486 621//486
f 5//487 621//487 6//487
f 6//488 621//488 620//488
f 6//489 620//489 7//489
f 7//490 620//490 619//490
f 7//491 619//491 8//491
f 8//492 619//492 618//492
f 8//493 618//493 9//493
f 9//494 618//494 617//494
f 9//495 617//495 10//495
f 10//496 617//496 616//496
f 10//497 616//497 11//497
f 11//498 616//498 615//498
f 11//499 615//499 12//499
f 12//500 615//500 614//500
f 12//501 614//501 13//501
f 13//502 614//502 613//502
f 13//503 613//503 14//503
f 14//504 613//504 612//504
f 14//505 612//505 15//505
f 15//506 612//506 611//506
f 15//507 611//507 16//507
f 16//508 611//508 610//508
f 16//509 610//509 17//509
f 17//510 610//510 609//510
f 17//511 609//511 18//511
f 18//512 609//512 640//512
f 18//513 640//513 19//513
f 19//514 640//514 639//514
f 19//515 639//515 20//515
f 20//516 639//516 638//516
f 20//517 638//517 21//517
f 21//518 638//518 637//518
f 21//519 637//519 22//519
f 22//520 637//520 636//520
f 22//521 636//521 23//521
f 23//522 636//522 635//522
f 23//523 635//523 24//523
f 24//524 635//524 634//524
f 24//525 634//525 25//525
f 25//526 634//526 633//526
f 25//527 633//527 26//527
f 26//528 633//528 632//528
f 26//529 632//529 27//529
f 27//530 632//530 631//530
f 27//531 631//531 28//531
f 28//532 631//532 630//532
f 28//533 630//533 29//533
f 29//534 630//534 629//534
f 29//535 629//535 30//535
f 30//536 629//536 628//536
f 30//537 628//537 31//537
f 31//538 628//538 627//538
f 31//539 627//539 32//539
f 32//540 627//540 626//540
f 799//1 797//1 786//1
f 786//1 797//1 796//1
f 786//1 796//1 787//1
f 787//1 796//1 795//1
f 787//1 795//1 788//1
f 788//1 795//1 794//1
f 788//1 794//1 789//1
f 789//1 794//1 793//1
f 789//1 793//1 790//1
f 790//1 793//1 792//1
f 790//1 792//1 791//1
f 797//1 799//1 798//1
f 203//541 175//541 189//541
f 189//542 175//542 174//542
f 189//543 174//543 190//543
f 190//544 174//544 186//544
f 190//545 186//545 191//545
f 191//546 186//546 185//546
f 191//547 185//547 192//547
f 192//548 185//548 184//548
f 192//549 184//549 193//549
f 193//550 184//550 183//550
f 193//551 183//551 194//551
f 194//552 183//552 182//552
f 194//553 182//553 195//553
f 195//554 182//554 181//554
f 195//555 181//555 196//555
f 196//556 181//556 180//556
f 196//557 180//557 197//557
f 197//558 180//558 198//558
f 198//559 180//559 179//559
f 198//560 179//560 199//560
f 199//561 179//561 178//561
f 199//562 178//562 200//562
f 200//563 178//563 177//563
f 200//564 177//564 201//564
f 201//565 177//565 176//565
f 201//566 176//566 202//566
f 202//567 176//567 175//567
f 202//568 175//568 203//568
f 701//569 722//569 678//569
f 678//570 722//570 679//570
f 679//571 722//571 721//571
f 679//572 721//572 680//572
f 680//573 721//573 681//573
f 681//574 721//574 720//574
f 681//575 720//575 682//575
f 682//576 720//576 719//576
f 682//208 719//208 683//208
f 683//577 719//577 718//577
f 683//210 718//210 684//210
f 684//211 718//211 685//211
f 685//212 718//212 717//212
f 685//213 717//213 686//213
f 686//578 717//578 716//578
f 686//579 716//579 687//579
f 687//580 716//580 688//580
f 688//581 716//581 731//581
f 688//582 731//582 689//582
f 689//583 731//583 730//583
f 689//220 730//220 690//220
f 690//584 730//584 729//584
f 690//585 729//585 691//585
f 691//586 729//586 692//586
f 692//587 729//587 728//587
f 692//588 728//588 693//588
f 693//589 728//589 694//589
f 694//590 728//590 727//590
f 694//591 727//591 695//591
f 695//592 727//592 726//592
f 695//593 726//593 696//593
f 696//594 726//594 697//594
f 697//595 726//595 725//595
f 697//234 725//234 698//234
f 698//596 725//596 724//596
f 698//597 724//597 699//597
f 699//598 724//598 723//598
f 699//599 723//599 700//599
f 700//600 723//600 701//600
f 701//601 723//601 722//601
f 540//602 783//602 527//602
f 527//603 783//603 782//603
f 527//604 782//604 528//604
f 528//605 782//605 781//605
f 528//606 781//606 529//606
f 529//607 781//607 780//607
f 529//608 780//608 530//608
f 530//609 780//609 779//609
f 530//610 779//610 531//610
f 531//611 779//611 778//611
f 531//612 778//612 532//612
f 532//613 778//613 777//613
f 532//614 777//614 533//614
f 533//615 777//615 776//615
f 533//616 776//616 534//616
f 534//617 776//617 775//617
f 534//618 775//618 535//618
f 535//619 775//619 774//619
f 535//620 774//620 536//620
f 536//621 774//621 773//621
f 536//622 773//622 537//622
f 537//623 773//623 772//623
f 537//624 772//624 538//624
f 538//625 772//625 771//625
f 538//626 771//626 785//626
f 538//627 785//627 539//627
f 539//628 785//628 784//628
f 539//629 784//629 540//629
f 540//630 784//630 783//630
f 715//602 769//602 702//602
f 702//603 769//603 768//603
f 702//604 768//604 703//604
f 703//631 768//631 767//631
f 703//632 767//632 704//632
f 704//607 767//607 766//607
f 704//608 766//608 705//608
f 705//633 766//633 765//633
f 705//634 765//634 706//634
f 706//635 765//635 764//635
f 706//636 764//636 707//636
f 707//613 764//613 763//613
f 707//614 763//614 708//614
f 708//637 763//637 762//637
f 708//616 762//616 709//616
f 709//617 762//617 761//617
f 709//618 761//618 710//618
f 710//619 761//619 760//619
f 710//638 760//638 711//638
f 711//639 760//639 759//639
f 711//622 759//622 712//622
f 712//623 759//623 758//623
f 712//640 758//640 713//640
f 713//641 758//641 757//641
f 713//642 757//642 714//642
f 714//643 757//643 770//643
f 714//644 770//644 715//644
f 715//645 770//645 769//645
f 801//375 829//375 800//375
f 800//375 829//375 830//375
f 800//375 830//375 833//375
f 833//375 830//375 831//375
f 833//375 831//375 832//375
f 801//375 807//375 808//375
f 801//375 806//375 807//375
f 806//375 801//375 802//375
f 806//375 802//375 805//375
f 805//375 802//375 804//375
f 804//375 802//375 803//375
f 801//375 808//375 829//375
f 829//375 808//375 828//375
f 828//375 808//375 809//375
f 828//375 809//375 817//375
f 809//375 810//375 817//375
f 817//375 810//375 811//375
f 817//375 811//375 812//375
f 817//375 812//375 816//375
f 816//375 812//375 813//375
f 816//375 813//375 815//375
f 815//375 813//375 814//375
f 828//375 817//375 827//375
f 827//375 817//375 818//375
f 827//375 818//375 826//375
f 826//375 818//375 825//375
f 825//375 818//375 821//375
f 821//375 818//375 819//375
f 819//375 820//375 821//375
f 821//375 822//375 825//375
f 825//375 822//375 824//375
f 824//375 822//375 800//375
f 823//375 800//375 822//375
f 833//375 824//375 800//375
f 733//646 732//646 821//646
f 821//647 732//647 822//647
f 822//648 732//648 756//648
f 822//649 756//649 823//649
f 823//650 756//650 755//650
f 823//651 755//651 800//651
f 800//652 755//652 754//652
f 754//653 753//653 800//653
f 800//654 753//654 801//654
f 801//655 753//655 752//655
f 801//656 752//656 802//656
f 802//657 752//657 751//657
f 802//658 751//658 803//658
f 803//659 751//659 750//659
f 803//660 750//660 804//660
f 804//661 750//661 749//661
f 804//662 749//662 748//662
f 804//663 748//663 805//663
f 805//664 748//664 806//664
f 806//665 748//665 747//665
f 806//666 747//666 746//666
f 806//667 746//667 807//667
f 807//668 746//668 808//668
f 808//669 746//669 745//669
f 745//670 744//670 808//670
f 808//671 744//671 809//671
f 809//672 744//672 810//672
f 810//673 744//673 743//673
f 743//674 742//674 810//674
f 810//675 742//675 811//675
f 811//676 742//676 812//676
f 812//677 742//677 741//677
f 812//678 741//678 740//678
f 812//679 740//679 813//679
f 813//680 740//680 814//680
f 814//681 740//681 739//681
f 814//682 739//682 738//682
f 814//683 738//683 815//683
f 815//684 738//684 816//684
f 816//685 738//685 737//685
f 816//686 737//686 817//686
f 817//687 737//687 736//687
f 736//688 735//688 817//688
f 817//689 735//689 818//689
f 818//690 735//690 819//690
f 819//691 735//691 734//691
f 819//692 734//692 820//692
f 820//693 734//693 733//693
f 820//694 733//694 821//694
