# Blender 4.0.2
# www.blender.org
o nanoscan_3__m8
v -0.044023 0.043500 0.026281
v -0.043634 0.043449 0.026281
v -0.043273 0.043299 0.026281
v -0.042962 0.043061 0.026281
v -0.042724 0.042750 0.026281
v -0.042574 0.042388 0.026281
v -0.042523 0.042000 0.026281
v -0.042574 0.041612 0.026281
v -0.042724 0.041250 0.026281
v -0.042962 0.040939 0.026281
v -0.043273 0.040701 0.026281
v -0.043634 0.040551 0.026281
v -0.044023 0.040500 0.026281
v -0.044411 0.040551 0.026281
v -0.044773 0.040701 0.026281
v -0.045083 0.040939 0.026281
v -0.045322 0.041250 0.026281
v -0.045471 0.041612 0.026281
v -0.045522 0.042000 0.026281
v -0.045471 0.042388 0.026281
v -0.045322 0.042750 0.026281
v -0.045083 0.043061 0.026281
v -0.044773 0.043299 0.026281
v -0.044411 0.043449 0.026281
v 0.043977 -0.044500 0.026281
v 0.044366 -0.044551 0.026281
v 0.044728 -0.044701 0.026281
v 0.045038 -0.044939 0.026281
v 0.045277 -0.045250 0.026281
v 0.045426 -0.045612 0.026281
v 0.045478 -0.046000 0.026281
v 0.045426 -0.046388 0.026281
v 0.045277 -0.046750 0.026281
v 0.045038 -0.047061 0.026281
v 0.044728 -0.047299 0.026281
v 0.044366 -0.047449 0.026281
v 0.043977 -0.047500 0.026281
v 0.043589 -0.047449 0.026281
v 0.043228 -0.047299 0.026281
v 0.042917 -0.047061 0.026281
v 0.042679 -0.046750 0.026281
v 0.042529 -0.046388 0.026281
v 0.042477 -0.046000 0.026281
v 0.042529 -0.045612 0.026281
v 0.042679 -0.045250 0.026281
v 0.042917 -0.044939 0.026281
v 0.043228 -0.044701 0.026281
v 0.043589 -0.044551 0.026281
v -0.044023 -0.044500 0.026281
v -0.043634 -0.044551 0.026281
v -0.043273 -0.044701 0.026281
v -0.042962 -0.044939 0.026281
v -0.042724 -0.045250 0.026281
v -0.042574 -0.045612 0.026281
v -0.042523 -0.046000 0.026281
v -0.042574 -0.046388 0.026281
v -0.042724 -0.046750 0.026281
v -0.042962 -0.047061 0.026281
v -0.043273 -0.047299 0.026281
v -0.043634 -0.047449 0.026281
v -0.044023 -0.047500 0.026281
v -0.044411 -0.047449 0.026281
v -0.044773 -0.047299 0.026281
v -0.045083 -0.047061 0.026281
v -0.045322 -0.046750 0.026281
v -0.045471 -0.046388 0.026281
v -0.045522 -0.046000 0.026281
v -0.045471 -0.045612 0.026281
v -0.045322 -0.045250 0.026281
v -0.045083 -0.044939 0.026281
v -0.044773 -0.044701 0.026281
v -0.044411 -0.044551 0.026281
v 0.043977 0.043500 0.026281
v 0.044366 0.043449 0.026281
v 0.044728 0.043299 0.026281
v 0.045038 0.043061 0.026281
v 0.045277 0.042750 0.026281
v 0.045426 0.042388 0.026281
v 0.045478 0.042000 0.026281
v 0.045426 0.041612 0.026281
v 0.045277 0.041250 0.026281
v 0.045038 0.040939 0.026281
v 0.044728 0.040701 0.026281
v 0.044366 0.040551 0.026281
v 0.043977 0.040500 0.026281
v 0.043589 0.040551 0.026281
v 0.043228 0.040701 0.026281
v 0.042917 0.040939 0.026281
v 0.042679 0.041250 0.026281
v 0.042529 0.041612 0.026281
v 0.042477 0.042000 0.026281
v 0.042529 0.042388 0.026281
v 0.042679 0.042750 0.026281
v 0.042917 0.043061 0.026281
v 0.043228 0.043299 0.026281
v 0.043589 0.043449 0.026281
v -0.044023 -0.044500 0.026311
v -0.043634 -0.044551 0.026311
v -0.043273 -0.044701 0.026311
v -0.042962 -0.044939 0.026311
v -0.042724 -0.045250 0.026311
v -0.042574 -0.045612 0.026311
v -0.042523 -0.046000 0.026311
v -0.042574 -0.046388 0.026311
v -0.042724 -0.046750 0.026311
v -0.042962 -0.047061 0.026311
v -0.043273 -0.047299 0.026311
v -0.043634 -0.047449 0.026311
v -0.044023 -0.047500 0.026311
v -0.044411 -0.047449 0.026311
v -0.044773 -0.047299 0.026311
v -0.045083 -0.047061 0.026311
v -0.045322 -0.046750 0.026311
v -0.045471 -0.046388 0.026311
v -0.045522 -0.046000 0.026311
v -0.045471 -0.045612 0.026311
v -0.045322 -0.045250 0.026311
v -0.045083 -0.044939 0.026311
v -0.044773 -0.044701 0.026311
v -0.044411 -0.044551 0.026311
v -0.044023 0.043500 0.026311
v -0.043634 0.043449 0.026311
v -0.043273 0.043299 0.026311
v -0.042962 0.043061 0.026311
v -0.042724 0.042750 0.026311
v -0.042574 0.042388 0.026311
v -0.042523 0.042000 0.026311
v -0.042574 0.041612 0.026311
v -0.042724 0.041250 0.026311
v -0.042962 0.040939 0.026311
v -0.043273 0.040701 0.026311
v -0.043634 0.040551 0.026311
v -0.044023 0.040500 0.026311
v -0.044411 0.040551 0.026311
v -0.044773 0.040701 0.026311
v -0.045083 0.040939 0.026311
v -0.045322 0.041250 0.026311
v -0.045471 0.041612 0.026311
v -0.045522 0.042000 0.026311
v -0.045471 0.042388 0.026311
v -0.045322 0.042750 0.026311
v -0.045083 0.043061 0.026311
v -0.044773 0.043299 0.026311
v -0.044411 0.043449 0.026311
v 0.043977 0.043500 0.026311
v 0.044366 0.043449 0.026311
v 0.044728 0.043299 0.026311
v 0.045038 0.043061 0.026311
v 0.045277 0.042750 0.026311
v 0.045426 0.042388 0.026311
v 0.045478 0.042000 0.026311
v 0.045426 0.041612 0.026311
v 0.045277 0.041250 0.026311
v 0.045038 0.040939 0.026311
v 0.044728 0.040701 0.026311
v 0.044366 0.040551 0.026311
v 0.043977 0.040500 0.026311
v 0.043589 0.040551 0.026311
v 0.043228 0.040701 0.026311
v 0.042917 0.040939 0.026311
v 0.042679 0.041250 0.026311
v 0.042529 0.041612 0.026311
v 0.042477 0.042000 0.026311
v 0.042529 0.042388 0.026311
v 0.042679 0.042750 0.026311
v 0.042917 0.043061 0.026311
v 0.043228 0.043299 0.026311
v 0.043589 0.043449 0.026311
v 0.043977 -0.044500 0.026311
v 0.044366 -0.044551 0.026311
v 0.044728 -0.044701 0.026311
v 0.045038 -0.044939 0.026311
v 0.045277 -0.045250 0.026311
v 0.045426 -0.045612 0.026311
v 0.045478 -0.046000 0.026311
v 0.045426 -0.046388 0.026311
v 0.045277 -0.046750 0.026311
v 0.045038 -0.047061 0.026311
v 0.044728 -0.047299 0.026311
v 0.044366 -0.047449 0.026311
v 0.043977 -0.047500 0.026311
v 0.043589 -0.047449 0.026311
v 0.043228 -0.047299 0.026311
v 0.042917 -0.047061 0.026311
v 0.042679 -0.046750 0.026311
v 0.042529 -0.046388 0.026311
v 0.042477 -0.046000 0.026311
v 0.042529 -0.045612 0.026311
v 0.042679 -0.045250 0.026311
v 0.042917 -0.044939 0.026311
v 0.043228 -0.044701 0.026311
v 0.043589 -0.044551 0.026311
vn 0.1305 0.9914 -0.0000
vn -0.1305 0.9914 -0.0000
vn -0.3825 0.9240 -0.0000
vn -0.3826 0.9239 -0.0000
vn -0.6087 0.7934 -0.0000
vn -0.6088 0.7933 -0.0000
vn -0.7935 0.6086 -0.0000
vn -0.9238 0.3829 -0.0000
vn -0.9238 0.3828 -0.0000
vn -0.9915 0.1305 -0.0000
vn -0.9914 -0.1305 -0.0000
vn -0.9915 -0.1305 -0.0000
vn -0.9238 -0.3828 -0.0000
vn -0.9239 -0.3827 -0.0000
vn -0.7934 -0.6087 -0.0000
vn -0.7934 -0.6086 -0.0000
vn -0.6087 -0.7934 -0.0000
vn -0.6088 -0.7933 -0.0000
vn -0.3827 -0.9239 -0.0000
vn -0.3828 -0.9238 -0.0000
vn -0.1305 -0.9914 -0.0000
vn 0.1305 -0.9914 -0.0000
vn 0.3827 -0.9239 -0.0000
vn 0.3828 -0.9238 -0.0000
vn 0.6087 -0.7934 -0.0000
vn 0.6088 -0.7933 -0.0000
vn 0.7934 -0.6087 -0.0000
vn 0.9238 -0.3828 -0.0000
vn 0.9239 -0.3827 -0.0000
vn 0.9914 -0.1305 -0.0000
vn 0.9914 0.1305 -0.0000
vn 0.9915 0.1305 -0.0000
vn 0.9238 0.3829 -0.0000
vn 0.9238 0.3828 -0.0000
vn 0.7935 0.6086 -0.0000
vn 0.7935 0.6085 -0.0000
vn 0.6087 0.7934 -0.0000
vn 0.6088 0.7933 -0.0000
vn 0.3825 0.9240 -0.0000
vn 0.3826 0.9239 -0.0000
vn -0.3825 0.9239 -0.0000
vn -0.6088 0.7934 -0.0000
vn -0.6088 -0.7934 -0.0000
vn 0.6088 -0.7934 -0.0000
vn 0.6088 0.7934 -0.0000
vn 0.3825 0.9239 -0.0000
s 0
f 98//1 50//1 97//1
f 97//1 50//1 49//1
f 97//2 49//2 120//2
f 120//2 49//2 72//2
f 120//3 72//3 119//3
f 119//4 72//4 71//4
f 119//5 71//5 118//5
f 118//6 71//6 70//6
f 118//7 70//7 117//7
f 117//7 70//7 69//7
f 117//8 69//8 116//8
f 116//9 69//9 68//9
f 116//10 68//10 115//10
f 115//10 68//10 67//10
f 115//11 67//11 114//11
f 114//12 67//12 66//12
f 114//13 66//13 113//13
f 113//14 66//14 65//14
f 113//15 65//15 112//15
f 112//16 65//16 64//16
f 112//17 64//17 111//17
f 111//18 64//18 63//18
f 111//19 63//19 110//19
f 110//20 63//20 62//20
f 110//21 62//21 109//21
f 109//21 62//21 61//21
f 109//22 61//22 108//22
f 108//22 61//22 60//22
f 108//23 60//23 107//23
f 107//24 60//24 59//24
f 107//25 59//25 106//25
f 106//26 59//26 58//26
f 106//27 58//27 105//27
f 105//27 58//27 57//27
f 105//28 57//28 104//28
f 104//29 57//29 56//29
f 104//30 56//30 103//30
f 103//30 56//30 55//30
f 103//31 55//31 102//31
f 102//32 55//32 54//32
f 102//33 54//33 101//33
f 101//34 54//34 53//34
f 101//35 53//35 100//35
f 100//36 53//36 52//36
f 100//37 52//37 99//37
f 99//38 52//38 51//38
f 99//39 51//39 98//39
f 98//40 51//40 50//40
f 122//1 2//1 121//1
f 121//1 2//1 1//1
f 121//2 1//2 144//2
f 144//2 1//2 24//2
f 144//41 24//41 143//41
f 143//41 24//41 23//41
f 143//42 23//42 142//42
f 142//42 23//42 22//42
f 142//7 22//7 141//7
f 141//7 22//7 21//7
f 141//8 21//8 140//8
f 140//9 21//9 20//9
f 140//10 20//10 139//10
f 139//10 20//10 19//10
f 139//11 19//11 138//11
f 138//11 19//11 18//11
f 138//13 18//13 137//13
f 137//14 18//14 17//14
f 137//15 17//15 136//15
f 136//16 17//16 16//16
f 136//43 16//43 135//43
f 135//43 16//43 15//43
f 135//19 15//19 134//19
f 134//20 15//20 14//20
f 134//21 14//21 133//21
f 133//21 14//21 13//21
f 133//22 13//22 132//22
f 132//22 13//22 12//22
f 132//23 12//23 131//23
f 131//24 12//24 11//24
f 131//44 11//44 130//44
f 130//44 11//44 10//44
f 130//27 10//27 129//27
f 129//27 10//27 9//27
f 129//28 9//28 128//28
f 128//29 9//29 8//29
f 128//30 8//30 127//30
f 127//30 8//30 7//30
f 127//31 7//31 126//31
f 126//32 7//32 6//32
f 126//33 6//33 125//33
f 125//34 6//34 5//34
f 125//35 5//35 124//35
f 124//36 5//36 4//36
f 124//45 4//45 123//45
f 123//45 4//45 3//45
f 123//46 3//46 122//46
f 122//46 3//46 2//46
f 146//1 74//1 145//1
f 145//1 74//1 73//1
f 145//2 73//2 168//2
f 168//2 73//2 96//2
f 168//41 96//41 167//41
f 167//41 96//41 95//41
f 167//42 95//42 166//42
f 166//42 95//42 94//42
f 166//7 94//7 165//7
f 165//7 94//7 93//7
f 165//8 93//8 164//8
f 164//9 93//9 92//9
f 164//10 92//10 163//10
f 163//10 92//10 91//10
f 163//11 91//11 162//11
f 162//11 91//11 90//11
f 162//13 90//13 161//13
f 161//14 90//14 89//14
f 161//15 89//15 160//15
f 160//16 89//16 88//16
f 160//43 88//43 159//43
f 159//43 88//43 87//43
f 159//19 87//19 158//19
f 158//20 87//20 86//20
f 158//21 86//21 157//21
f 157//21 86//21 85//21
f 157//22 85//22 156//22
f 156//22 85//22 84//22
f 156//23 84//23 155//23
f 155//24 84//24 83//24
f 155//44 83//44 154//44
f 154//44 83//44 82//44
f 154//27 82//27 153//27
f 153//27 82//27 81//27
f 153//28 81//28 152//28
f 152//29 81//29 80//29
f 152//30 80//30 151//30
f 151//30 80//30 79//30
f 151//31 79//31 150//31
f 150//32 79//32 78//32
f 150//33 78//33 149//33
f 149//34 78//34 77//34
f 149//35 77//35 148//35
f 148//36 77//36 76//36
f 148//45 76//45 147//45
f 147//45 76//45 75//45
f 147//46 75//46 146//46
f 146//46 75//46 74//46
f 170//1 26//1 169//1
f 169//1 26//1 25//1
f 169//2 25//2 192//2
f 192//2 25//2 48//2
f 192//3 48//3 191//3
f 191//4 48//4 47//4
f 191//5 47//5 190//5
f 190//6 47//6 46//6
f 190//7 46//7 189//7
f 189//7 46//7 45//7
f 189//8 45//8 188//8
f 188//9 45//9 44//9
f 188//10 44//10 187//10
f 187//10 44//10 43//10
f 187//11 43//11 186//11
f 186//12 43//12 42//12
f 186//13 42//13 185//13
f 185//14 42//14 41//14
f 185//15 41//15 184//15
f 184//16 41//16 40//16
f 184//17 40//17 183//17
f 183//18 40//18 39//18
f 183//19 39//19 182//19
f 182//20 39//20 38//20
f 182//21 38//21 181//21
f 181//21 38//21 37//21
f 181//22 37//22 180//22
f 180//22 37//22 36//22
f 180//23 36//23 179//23
f 179//24 36//24 35//24
f 179//25 35//25 178//25
f 178//26 35//26 34//26
f 178//27 34//27 177//27
f 177//27 34//27 33//27
f 177//28 33//28 176//28
f 176//29 33//29 32//29
f 176//30 32//30 175//30
f 175//30 32//30 31//30
f 175//31 31//31 174//31
f 174//32 31//32 30//32
f 174//33 30//33 173//33
f 173//34 30//34 29//34
f 173//35 29//35 172//35
f 172//36 29//36 28//36
f 172//37 28//37 171//37
f 171//38 28//38 27//38
f 171//39 27//39 170//39
f 170//40 27//40 26//40
