# Blender 4.0.2
# www.blender.org
o nanoscan_3__m0
v 0.038123 0.048300 -0.002099
v 0.027764 0.050109 0.014188
v 0.029131 0.050093 0.015700
v -0.042182 -0.052025 0.023379
v -0.048142 -0.047762 0.023380
v -0.050275 -0.042353 0.023380
v -0.050237 -0.042836 -0.003620
v -0.047579 -0.048484 -0.003621
v -0.041851 -0.052058 -0.003620
v 0.031865 -0.052300 0.023221
v -0.031853 -0.052292 0.023216
v -0.050802 -0.026835 0.000869
v -0.050798 -0.029915 0.001748
v -0.050797 -0.032426 0.003541
v -0.050776 -0.033798 0.005484
v -0.050781 -0.034688 0.007585
v -0.050793 -0.034985 0.009734
v -0.050781 -0.034686 0.012185
v -0.050783 -0.033399 0.014981
v -0.050797 -0.031245 0.017224
v -0.050771 -0.029057 0.018289
v -0.050802 -0.025165 0.018890
v -0.050767 -0.021607 0.017674
v -0.050797 -0.019574 0.016218
v -0.050797 -0.017807 0.013667
v -0.050781 -0.017047 0.010649
v -0.050797 -0.017277 0.007560
v -0.050763 -0.018447 0.005077
v -0.050797 -0.020755 0.002535
v -0.050771 -0.022943 0.001471
v 0.041577 -0.052106 -0.003620
v 0.047633 -0.048406 -0.003620
v 0.050206 -0.043292 -0.003621
v 0.050275 -0.042351 0.023379
v 0.048939 -0.046291 0.023380
v 0.045760 -0.050143 0.023379
v 0.040725 -0.052190 0.023379
v 0.038074 0.048000 -0.002139
v -0.038108 0.048300 -0.002128
v -0.038090 0.048000 -0.002110
v -0.038103 0.048000 0.021882
v -0.038095 0.048300 0.021875
v 0.029133 0.050136 0.012693
v 0.026737 0.050138 0.013630
v 0.027806 0.050107 0.012534
v 0.032255 0.050073 0.014294
v 0.033355 0.050055 0.013881
v -0.032568 -0.051817 0.023380
v -0.033400 -0.052121 0.023379
v -0.033472 -0.052186 -0.003620
v -0.032551 -0.051820 -0.003621
v -0.031994 -0.052141 -0.003620
v -0.031865 -0.052300 -0.003462
v 0.050273 0.038359 0.023379
v 0.050235 0.038841 -0.003621
v 0.050390 -0.019535 0.016414
v 0.050388 -0.016951 0.011394
v 0.050388 -0.017099 0.007474
v 0.050394 -0.018980 0.003950
v 0.050397 -0.024096 0.000891
v 0.050403 -0.030000 0.001612
v 0.050394 -0.034092 0.005535
v 0.050381 -0.035073 0.008378
v 0.050362 -0.035006 0.012184
v 0.050378 -0.033254 0.015542
v 0.050397 -0.030748 0.017741
v 0.050377 0.015787 0.000955
v 0.050383 0.010779 0.004198
v 0.050375 0.008993 0.007628
v 0.050374 0.009294 0.012868
v 0.050388 0.010955 0.015782
v 0.050386 0.018707 0.019042
v 0.050392 0.023009 0.017566
v 0.050366 0.025787 0.014945
v 0.050381 0.027073 0.011381
v 0.050339 0.027154 0.008160
v 0.050391 0.026058 0.005460
v 0.050388 0.021723 0.001482
v 0.030317 0.050100 0.015930
v 0.031865 -0.052300 -0.003462
v 0.031994 -0.052141 -0.003620
v 0.032567 -0.051817 -0.003621
v 0.033478 -0.052191 -0.003620
v 0.033436 -0.052152 0.023379
v 0.032436 -0.051825 0.023390
v 0.027601 0.050090 0.012059
v 0.032255 0.050053 0.013465
v 0.029987 0.050079 0.012821
v 0.030138 0.050095 0.011940
v 0.029384 0.050132 0.011646
v 0.029336 0.050110 0.015226
v 0.048939 0.042291 0.023380
v 0.045761 0.046143 0.023379
v 0.040360 0.048273 0.023379
v -0.040390 0.048266 0.023380
v -0.044292 0.046938 0.023380
v -0.048142 0.043761 0.023380
v -0.050273 0.038361 0.023380
v -0.049744 -0.042255 0.023380
v -0.049744 0.038255 0.023380
v -0.049272 0.040342 0.023380
v -0.048624 0.041907 0.023380
v -0.047739 0.043351 0.023380
v -0.046639 0.044639 0.023380
v -0.045351 0.045739 0.023380
v -0.043907 0.046624 0.023380
v -0.042342 0.047272 0.023380
v -0.040255 0.047744 0.023380
v 0.040255 0.047744 0.023380
v 0.042342 0.047272 0.023380
v 0.043907 0.046624 0.023380
v 0.045351 0.045739 0.023380
v 0.046639 0.044639 0.023380
v 0.047739 0.043351 0.023380
v 0.048624 0.041907 0.023380
v 0.049272 0.040342 0.023380
v 0.049744 0.038255 0.023380
v 0.049744 -0.042255 0.023380
v 0.049272 -0.044342 0.023380
v 0.048624 -0.045907 0.023380
v 0.047739 -0.047351 0.023380
v 0.046639 -0.048639 0.023380
v 0.045351 -0.049739 0.023380
v 0.043907 -0.050624 0.023380
v 0.042342 -0.051272 0.023380
v 0.040255 -0.051744 0.023380
v -0.040255 -0.051744 0.023380
v -0.042342 -0.051272 0.023380
v -0.043907 -0.050624 0.023380
v -0.045351 -0.049739 0.023380
v -0.046639 -0.048639 0.023380
v -0.047739 -0.047351 0.023380
v -0.048624 -0.045907 0.023380
v -0.049272 -0.044342 0.023380
v -0.040882 0.048223 -0.003620
v -0.045726 0.046095 -0.003620
v -0.048553 0.042964 -0.003620
v -0.050240 0.038780 -0.003620
v 0.038531 0.048300 0.020731
v 0.038307 0.048300 0.021174
v 0.037971 0.048300 0.021955
v 0.037996 0.047998 0.021743
v 0.025704 0.050131 0.013736
v 0.025492 0.050108 0.014176
v -0.050381 0.018129 0.000650
v -0.050388 0.012030 0.002891
v -0.050372 0.009903 0.005497
v -0.050373 0.008920 0.008365
v -0.050374 0.008922 0.011396
v -0.050385 0.010788 0.015571
v -0.050389 0.015680 0.018763
v -0.050384 0.018798 0.019036
v -0.050391 0.024199 0.016665
v -0.050380 0.026085 0.014268
v -0.050381 0.027071 0.011403
v -0.050377 0.027076 0.008368
v -0.050380 0.026093 0.005511
v -0.050397 0.021974 0.001596
v -0.050797 0.017960 0.000786
v -0.050798 0.021914 0.001748
v -0.050763 0.024254 0.003491
v -0.050790 0.025712 0.005289
v -0.050781 0.026686 0.007574
v -0.050781 0.026953 0.010648
v -0.050782 0.026166 0.013629
v -0.050784 0.024427 0.016159
v -0.050786 0.021374 0.018258
v -0.050802 0.017164 0.018890
v -0.050768 0.013635 0.017692
v -0.050797 0.011574 0.016218
v -0.050757 0.009887 0.013603
v -0.050790 0.009186 0.011589
v -0.050781 0.009047 0.009110
v -0.050782 0.009834 0.006130
v -0.050797 0.011574 0.003541
v -0.050769 0.014219 0.001780
v -0.050380 0.021684 0.018313
v 0.050802 -0.025165 0.018890
v 0.050769 -0.022246 0.017991
v 0.050797 -0.019574 0.016218
v 0.050760 -0.017965 0.013804
v 0.050807 -0.016970 0.010534
v 0.050797 -0.017277 0.007560
v 0.050797 -0.018580 0.004740
v 0.050766 -0.020900 0.002537
v 0.050798 -0.023522 0.001202
v 0.050775 -0.026784 0.000977
v 0.050798 -0.029915 0.001748
v 0.050763 -0.032254 0.003491
v 0.050790 -0.033712 0.005289
v 0.050781 -0.034686 0.007574
v 0.050793 -0.034985 0.010025
v 0.050781 -0.034688 0.012174
v 0.050782 -0.033405 0.014970
v 0.050797 -0.031245 0.017224
v 0.050773 -0.028357 0.018501
v 0.050385 -0.024897 0.019013
v 0.038300 0.048000 0.021182
v 0.019553 0.048000 0.021427
v 0.019589 0.048000 -0.001687
v 0.036766 0.048000 -0.001631
v 0.037114 0.048000 0.012165
v 0.038382 0.048142 0.013125
v -0.035782 0.047803 0.002500
v -0.036222 0.047803 0.003138
v -0.035576 0.048000 0.004021
v -0.034582 0.048000 0.003420
v -0.034754 0.047801 0.002690
v -0.034511 0.047804 0.001961
v -0.033930 0.047802 0.003717
v -0.035398 0.047802 0.004693
v -0.036859 0.047801 0.003768
v -0.036920 0.048000 0.003032
v -0.036167 0.047802 0.001908
v -0.034870 0.048000 0.006473
v -0.035229 0.047802 0.008183
v -0.036635 0.047803 0.008183
v -0.036655 0.047801 0.006125
v -0.036173 0.048000 0.005919
v -0.035923 0.048000 0.007785
v -0.035684 0.047802 0.006378
v -0.035018 0.047802 0.005835
v -0.034174 0.048000 0.006002
v -0.034251 0.048000 0.008291
v -0.035128 0.047801 0.000880
v -0.033993 0.047805 0.001318
v -0.036800 0.047806 0.001318
v -0.035658 0.047801 0.000880
v -0.036795 0.047803 -0.000396
v -0.035395 0.047801 0.000129
v -0.033998 0.047805 -0.000397
v -0.023642 0.047802 0.012188
v -0.023904 0.047803 0.014432
v -0.025550 0.047803 0.016729
v -0.028223 0.047803 0.017647
v -0.030779 0.047803 0.017130
v -0.032609 0.047802 0.015454
v -0.033494 0.047802 0.012515
v -0.031906 0.047804 0.009154
v -0.029358 0.047804 0.007932
v -0.026546 0.047803 0.008209
v -0.024415 0.047802 0.010065
v -0.036800 0.048000 0.005151
v -0.033993 0.047804 0.005094
v -0.013010 0.047919 0.016268
v -0.014224 0.047916 0.014836
v -0.014187 0.047936 0.004817
v -0.012893 0.047908 0.003523
v 0.013093 0.047900 0.003523
v 0.014387 0.047882 0.004817
v 0.014308 0.047900 0.015283
v 0.012825 0.047867 0.016351
v 0.024925 0.050078 0.012923
v 0.024094 0.050095 0.012955
v 0.023492 0.050112 0.013880
v 0.024094 0.050112 0.014804
v 0.024925 0.050109 0.014836
v 0.050802 0.017164 0.000869
v 0.050768 0.013635 0.002067
v 0.050797 0.011574 0.003541
v 0.050797 0.009807 0.006092
v 0.050788 0.009025 0.009077
v 0.050781 0.009312 0.012174
v 0.050797 0.010581 0.015020
v 0.050766 0.012901 0.017222
v 0.050794 0.016267 0.018782
v 0.050773 0.020558 0.018433
v 0.050797 0.023245 0.017224
v 0.050789 0.025330 0.015111
v 0.050781 0.026686 0.012185
v 0.050793 0.026985 0.009734
v 0.050781 0.026688 0.007585
v 0.050782 0.025404 0.004787
v 0.050765 0.023597 0.002898
v 0.050798 0.020478 0.001202
v 0.050484 0.018751 0.000794
v 0.050370 0.015730 0.018809
v 0.031537 0.050080 0.014890
v 0.030317 0.050091 0.015070
v -0.050397 -0.030748 0.002018
v -0.050378 -0.033254 0.004217
v -0.050339 -0.035154 0.008160
v -0.050381 -0.035073 0.011381
v -0.050394 -0.034092 0.014224
v -0.050400 -0.031899 0.016924
v -0.050397 -0.024096 0.018868
v -0.050394 -0.018980 0.015809
v -0.050388 -0.017099 0.012285
v -0.050388 -0.016951 0.008365
v -0.050390 -0.019535 0.003345
v -0.050385 -0.024897 0.000746
v -0.050485 -0.028222 0.001038
v -0.050484 -0.026744 0.018965
v 0.041358 0.048194 -0.003620
v 0.038304 0.048160 0.021178
v 0.038302 0.048075 0.021180
v 0.031537 0.050100 0.016110
v 0.047633 0.044406 -0.003620
v -0.033016 0.047803 0.011645
v -0.032838 0.047802 0.014652
v -0.030660 0.047803 0.016859
v -0.028508 0.047801 0.017389
v -0.026040 0.047804 0.016712
v -0.024009 0.047802 0.014209
v -0.024176 0.047803 0.011114
v -0.025436 0.047803 0.009289
v -0.027943 0.047802 0.008103
v -0.031461 0.047804 0.009065
v -0.035320 0.047800 0.004113
v -0.034852 0.047800 0.006473
v -0.034171 0.047800 0.008239
v -0.034080 0.047800 0.006255
v -0.035941 0.047800 0.007785
v -0.036800 0.047800 0.004925
v -0.036800 0.047800 0.005602
v 0.010051 -0.050300 0.004413
v -0.009919 -0.050300 0.004563
v -0.009838 -0.050300 0.007108
v 0.010051 -0.050300 0.007223
v 0.009851 -0.050300 0.005818
v 0.010051 -0.048322 0.004413
v 0.009851 -0.048322 0.005818
v 0.010051 -0.048322 0.007223
v -0.009954 -0.048322 0.006992
v -0.009882 -0.048322 0.004601
v 0.019807 0.049995 0.020966
v 0.019782 0.049980 -0.001341
v 0.035953 0.050067 0.020080
v 0.037453 0.050033 0.018580
v 0.037411 0.050095 0.020038
v 0.034392 0.050043 0.020080
v 0.036953 0.050050 0.017520
v 0.037275 0.049594 0.012369
v 0.036939 0.049671 -0.000987
v 0.036357 0.049680 -0.001784
v 0.020220 0.049678 -0.001856
v 0.019365 0.049683 0.020773
v 0.037800 0.049616 0.021606
v 0.036930 0.049764 0.011680
v 0.036420 0.049979 -0.001435
v 0.037973 0.049974 0.021198
v 0.038413 0.049714 0.013224
v 0.038176 0.049974 0.013541
v 0.019402 0.049648 -0.001216
v 0.038479 0.049619 0.020845
v 0.036897 0.049956 0.012455
v 0.020079 0.049742 0.021570
v 0.050193 0.038787 -0.010320
v 0.049118 0.041908 -0.010321
v 0.049126 0.041914 -0.006520
v 0.046984 0.045006 -0.006521
v 0.043883 0.047141 -0.006520
v 0.043878 0.047133 -0.010320
v 0.041086 0.048146 -0.010320
v 0.045137 0.046592 -0.003620
v 0.048559 0.042966 -0.003620
v -0.043878 0.047133 -0.010320
v -0.040777 0.048194 -0.010320
v 0.041384 0.044639 -0.010320
v 0.040211 0.042716 -0.010321
v 0.041109 0.039607 -0.010321
v 0.043439 0.038297 -0.010321
v 0.046623 0.039397 -0.010321
v 0.050144 -0.043097 -0.010320
v 0.049118 -0.045908 -0.010321
v 0.045332 -0.042447 -0.010321
v 0.041481 -0.043037 -0.010321
v 0.040286 -0.047161 -0.010321
v 0.043878 -0.051133 -0.010321
v 0.040777 -0.052194 -0.010320
v -0.039952 -0.052258 -0.010320
v -0.043923 -0.051211 -0.010320
v -0.040216 -0.046943 -0.010320
v -0.041709 -0.042859 -0.010320
v -0.045519 -0.042531 -0.010320
v -0.049118 -0.045908 -0.010320
v -0.050193 -0.042789 -0.010320
v -0.050144 0.039099 -0.010320
v -0.049118 0.041908 -0.010320
v -0.045332 0.038447 -0.010320
v -0.041481 0.039037 -0.010320
v -0.040286 0.043161 -0.010320
v 0.016229 -0.030488 -0.010321
v 0.018167 -0.029315 -0.010321
v 0.021692 -0.026633 -0.010321
v 0.024842 -0.023430 -0.010321
v 0.027173 -0.020413 -0.010321
v 0.029106 -0.017127 -0.010321
v 0.030249 -0.014692 -0.010321
v 0.031550 -0.011081 -0.010321
v 0.032343 -0.007551 -0.010321
v 0.032706 -0.004737 -0.010321
v 0.032813 -0.001177 -0.010321
v 0.032508 0.002658 -0.010321
v 0.031725 0.006399 -0.010321
v 0.030484 0.010237 -0.010321
v 0.028729 0.013875 -0.010321
v 0.027332 0.016178 -0.010321
v 0.025753 0.018356 -0.010321
v 0.024001 0.020397 -0.010321
v 0.021710 0.022640 -0.010320
v 0.019418 0.024482 -0.010320
v 0.016452 0.026438 -0.010320
v 0.013092 0.028111 -0.010320
v 0.010584 0.029082 -0.010320
v 0.006714 0.030169 -0.010320
v 0.002294 0.030765 -0.010320
v -0.001579 0.030821 -0.010320
v -0.005758 0.030336 -0.010320
v -0.009537 0.029441 -0.010320
v -0.013071 0.028119 -0.010320
v -0.016661 0.026322 -0.010320
v -0.020334 0.023789 -0.010320
v -0.023251 0.021205 -0.010320
v -0.025740 0.018372 -0.010320
v -0.027910 0.015319 -0.010320
v -0.029908 0.011566 -0.010320
v -0.031447 0.007472 -0.010320
v -0.032539 0.002454 -0.010320
v -0.032810 -0.001556 -0.010320
v -0.032734 -0.004245 -0.010320
v -0.032236 -0.008246 -0.010320
v -0.031196 -0.012149 -0.010320
v -0.030258 -0.014671 -0.010320
v -0.029116 -0.017107 -0.010320
v -0.027779 -0.019442 -0.010320
v -0.026255 -0.021659 -0.010320
v -0.023830 -0.024568 -0.010320
v -0.021054 -0.027158 -0.010320
v -0.018515 -0.029068 -0.010321
v -0.016228 -0.030488 -0.010321
v -0.015979 -0.030928 -0.010321
v -0.015943 -0.037289 -0.010321
v -0.015466 -0.038472 -0.010321
v -0.014472 -0.039373 -0.010320
v -0.011014 -0.040567 -0.010321
v -0.007917 -0.041326 -0.010321
v -0.004769 -0.041834 -0.010321
v -0.001590 -0.042088 -0.010321
v 0.001599 -0.042086 -0.010321
v 0.004777 -0.041827 -0.010321
v 0.007925 -0.041313 -0.010321
v 0.011021 -0.040548 -0.010321
v 0.014475 -0.039350 -0.010321
v 0.015467 -0.038449 -0.010321
v 0.015943 -0.037267 -0.010321
v 0.015979 -0.030928 -0.010321
v -0.043900 0.047148 -0.006520
v -0.040656 0.043730 -0.006520
v -0.049131 0.041926 -0.006520
v -0.046983 0.045007 -0.006520
v -0.040372 0.041878 -0.006520
v -0.041109 0.039607 -0.006520
v -0.043418 0.038559 -0.006520
v -0.045519 0.038531 -0.006520
v -0.040927 0.040611 -0.006520
v -0.042245 0.044840 -0.006520
v -0.045175 0.045194 -0.006520
v -0.047176 0.042989 -0.006520
v -0.046759 0.040067 -0.006520
v 0.041384 0.044639 -0.006520
v 0.046618 0.039409 -0.006520
v 0.043639 0.038211 -0.006520
v 0.040965 0.039790 -0.006520
v 0.040256 0.042708 -0.006520
v 0.047073 0.040611 -0.006520
v 0.046544 0.044369 -0.006520
v 0.042825 0.045194 -0.006520
v 0.040542 0.042162 -0.006520
v 0.042588 0.038950 -0.006520
v -0.049134 -0.045927 -0.006520
v -0.046983 -0.049007 -0.006521
v -0.043905 -0.051142 -0.006520
v -0.045332 -0.042447 -0.006520
v -0.042996 -0.042626 -0.006520
v -0.041115 -0.043913 -0.006520
v -0.040286 -0.047161 -0.006520
v -0.042819 -0.049032 -0.006520
v -0.040927 -0.047389 -0.006520
v -0.045175 -0.042806 -0.006520
v -0.047458 -0.045838 -0.006520
v -0.045412 -0.049050 -0.006520
v 0.043901 -0.051148 -0.006520
v 0.046984 -0.049006 -0.006521
v 0.049132 -0.045924 -0.006520
v 0.046527 -0.049553 -0.003620
v 0.040778 -0.047583 -0.006520
v 0.040406 -0.045681 -0.006520
v 0.041109 -0.043607 -0.006520
v 0.043168 -0.042528 -0.006520
v 0.045809 -0.042962 -0.006520
v 0.045181 -0.049032 -0.006520
v 0.047073 -0.047389 -0.006520
v 0.047054 -0.044796 -0.006520
v 0.042588 -0.049050 -0.006520
v -0.004290 0.030555 -0.011700
v -0.009375 0.029466 -0.011708
v -0.014320 0.027577 -0.011702
v -0.018844 0.024897 -0.011708
v -0.023615 0.020899 -0.011696
v -0.028117 0.014987 -0.011701
v -0.030412 0.010370 -0.011708
v -0.032069 0.005064 -0.011704
v -0.032757 -0.000221 -0.011718
v -0.032705 -0.004522 -0.011707
v -0.032183 -0.008445 -0.011707
v -0.030825 -0.013284 -0.011703
v -0.027785 -0.019538 -0.011712
v -0.023944 -0.024461 -0.011698
v -0.020135 -0.027874 -0.011705
v -0.016284 -0.030424 -0.011708
v 0.016268 -0.030422 -0.011722
v 0.020583 -0.027576 -0.011708
v 0.025720 -0.022345 -0.011708
v 0.028629 -0.018099 -0.011696
v 0.030794 -0.013367 -0.011706
v 0.032207 -0.008199 -0.011718
v 0.032705 -0.004521 -0.011707
v 0.032762 -0.000162 -0.011713
v 0.032002 0.005284 -0.011712
v 0.030463 0.010284 -0.011704
v 0.027850 0.015406 -0.011708
v 0.024682 0.019668 -0.011708
v 0.021332 0.022994 -0.011697
v 0.015114 0.027188 -0.011707
v 0.009397 0.029459 -0.011713
v 0.003047 0.030755 -0.011697
v -0.016031 -0.030884 -0.011737
v -0.016273 -0.033568 -0.015916
v -0.016470 -0.035670 -0.020161
v -0.016810 -0.035340 -0.020440
v -0.017010 -0.037165 -0.025330
v -0.016543 -0.038829 -0.031679
v -0.016202 -0.039366 -0.035777
v -0.015875 -0.039650 -0.037283
v -0.015684 -0.039752 -0.037631
v -0.016117 -0.039434 -0.035705
v -0.016376 -0.039011 -0.031831
v -0.016666 -0.037015 -0.023563
v -0.013805 -0.040515 -0.038107
v -0.011888 -0.041183 -0.038514
v -0.009962 -0.041745 -0.038858
v -0.007965 -0.042218 -0.039146
v -0.006036 -0.042569 -0.039357
v -0.004036 -0.042830 -0.039507
v -0.001983 -0.042988 -0.039586
v 0.000002 -0.043035 -0.039591
v 0.009954 -0.041722 -0.038579
v 0.011839 -0.041171 -0.038199
v -0.016543 -0.033072 -0.015972
v -0.016360 -0.030543 -0.011970
v -0.022794 -0.025722 -0.011972
v -0.027323 -0.020288 -0.011971
v -0.029767 -0.015956 -0.011975
v -0.031884 -0.010374 -0.011966
v -0.032938 -0.000626 -0.011969
v -0.031970 0.005766 -0.011971
v -0.030451 0.010524 -0.011968
v -0.027678 0.015844 -0.011973
v -0.023018 0.021513 -0.011972
v -0.018793 0.025048 -0.011968
v -0.014229 0.027686 -0.011973
v -0.009369 0.029612 -0.011964
v -0.003999 0.030701 -0.011975
v 0.000632 0.030900 -0.011974
v 0.006115 0.030353 -0.011970
v 0.011594 0.028800 -0.011973
v 0.017231 0.026038 -0.011973
v 0.020596 0.023681 -0.011970
v 0.024960 0.019484 -0.011968
v 0.029189 0.013257 -0.011975
v 0.031347 0.008024 -0.011973
v 0.032588 0.002456 -0.011972
v 0.032808 -0.005427 -0.011972
v 0.031097 -0.012774 -0.011966
v 0.028433 -0.018508 -0.011973
v 0.025534 -0.022797 -0.011967
v 0.022272 -0.026201 -0.011969
v 0.016346 -0.030525 -0.011974
v 0.016436 -0.032170 -0.014564
v 0.016626 -0.034069 -0.017890
v 0.016798 -0.035495 -0.020883
v 0.016973 -0.037286 -0.025789
v 0.016536 -0.038796 -0.031430
v 0.016089 -0.039441 -0.036041
v 0.013827 -0.040479 -0.037727
v 0.008027 -0.042185 -0.038907
v 0.006050 -0.042553 -0.039179
v 0.004051 -0.042818 -0.039387
v 0.001997 -0.042983 -0.039527
v 0.016049 -0.030886 -0.011728
v 0.016270 -0.033547 -0.015882
v 0.016495 -0.035676 -0.020151
v 0.016654 -0.036919 -0.023280
v 0.016384 -0.038894 -0.031120
v 0.016049 -0.039434 -0.035579
v 0.015786 -0.039660 -0.037028
v 0.015643 -0.039739 -0.037208
v -0.043529 0.038687 -0.007343
v -0.040759 0.041609 -0.007370
v -0.041402 0.044169 -0.007343
v -0.044471 0.045358 -0.007343
v -0.047128 0.043249 -0.007398
v -0.046598 0.039875 -0.007343
v -0.044155 0.040611 -0.008520
v -0.042853 0.041176 -0.008525
v -0.042645 0.042617 -0.008537
v -0.043852 0.043445 -0.008520
v -0.045198 0.042895 -0.008538
v -0.045351 0.041427 -0.008538
v -0.043939 0.039851 -0.008230
v -0.041256 0.040429 -0.007580
v -0.044061 0.044194 -0.008230
v -0.043172 0.042106 -0.008520
v -0.043575 0.042623 -0.008520
v -0.044429 0.042689 -0.008520
v -0.044732 0.042090 -0.008520
v -0.044425 0.041422 -0.008520
v -0.043514 0.041347 -0.008520
v -0.043821 0.043441 -0.007520
v -0.043475 0.042628 -0.007520
v -0.042675 0.042433 -0.007520
v -0.043273 0.041915 -0.007520
v -0.042861 0.041158 -0.007520
v -0.043730 0.041338 -0.007520
v -0.044179 0.040603 -0.007520
v -0.044386 0.041347 -0.007520
v -0.045141 0.041408 -0.007520
v -0.045310 0.041638 -0.007520
v -0.045112 0.042861 -0.007520
v -0.044270 0.042706 -0.007520
v 0.044471 0.038687 -0.007343
v 0.047128 0.040796 -0.007398
v 0.046598 0.044169 -0.007343
v 0.043529 0.045358 -0.007343
v 0.040872 0.043249 -0.007398
v 0.041402 0.039875 -0.007343
v 0.043852 0.040600 -0.008520
v 0.045194 0.041151 -0.008540
v 0.045355 0.042617 -0.008537
v 0.044148 0.043445 -0.008520
v 0.042802 0.042895 -0.008538
v 0.042649 0.041427 -0.008538
v 0.044061 0.039852 -0.008230
v 0.043939 0.044193 -0.008230
v 0.044732 0.041955 -0.008521
v 0.044425 0.042623 -0.008521
v 0.043571 0.042689 -0.008521
v 0.043268 0.042090 -0.008521
v 0.043575 0.041422 -0.008521
v 0.044429 0.041356 -0.008521
v 0.044154 0.043446 -0.007521
v 0.044457 0.042598 -0.007521
v 0.045318 0.042577 -0.007521
v 0.044727 0.041915 -0.007521
v 0.045131 0.041145 -0.007521
v 0.044185 0.041252 -0.007521
v 0.043821 0.040604 -0.007521
v 0.043614 0.041347 -0.007521
v 0.042690 0.041445 -0.007521
v 0.043272 0.042130 -0.007521
v 0.042809 0.042782 -0.007521
v 0.043561 0.042704 -0.007521
v 0.044471 -0.049313 -0.007343
v 0.047128 -0.047204 -0.007398
v 0.046598 -0.043831 -0.007343
v 0.043529 -0.042642 -0.007343
v 0.040872 -0.044751 -0.007398
v 0.041402 -0.048125 -0.007343
v 0.045194 -0.046850 -0.008540
v 0.045355 -0.045383 -0.008537
v 0.044163 -0.044557 -0.008520
v 0.042802 -0.045105 -0.008538
v 0.042652 -0.046570 -0.008542
v 0.043847 -0.047407 -0.008526
v 0.044061 -0.048148 -0.008230
v 0.043939 -0.043807 -0.008230
v 0.044732 -0.046045 -0.008521
v 0.044425 -0.045377 -0.008521
v 0.043693 -0.045309 -0.008520
v 0.043268 -0.045910 -0.008521
v 0.043575 -0.046578 -0.008521
v 0.044429 -0.046644 -0.008521
v 0.044179 -0.044559 -0.007521
v 0.044457 -0.045402 -0.007521
v 0.045318 -0.045423 -0.007521
v 0.044727 -0.046086 -0.007521
v 0.045139 -0.046842 -0.007521
v 0.044450 -0.046654 -0.007521
v 0.043841 -0.047394 -0.007521
v 0.043614 -0.046653 -0.007521
v 0.042690 -0.046555 -0.007521
v 0.043272 -0.045870 -0.007521
v 0.042861 -0.045113 -0.007521
v 0.043730 -0.045294 -0.007520
v -0.043529 -0.049313 -0.007343
v -0.040759 -0.046391 -0.007370
v -0.041402 -0.043831 -0.007343
v -0.044471 -0.042642 -0.007343
v -0.047128 -0.044751 -0.007398
v -0.046598 -0.048125 -0.007343
v -0.044020 -0.047372 -0.008527
v -0.042842 -0.046817 -0.008520
v -0.042645 -0.045383 -0.008537
v -0.043837 -0.044557 -0.008520
v -0.045198 -0.045105 -0.008538
v -0.045348 -0.046570 -0.008542
v -0.044243 -0.047557 -0.008540
v -0.041256 -0.047571 -0.007580
v -0.044061 -0.043806 -0.008230
v -0.043209 -0.045939 -0.008521
v -0.043575 -0.045377 -0.008521
v -0.044307 -0.045309 -0.008520
v -0.044732 -0.045910 -0.008521
v -0.044425 -0.046578 -0.008521
v -0.043693 -0.046646 -0.008521
v -0.043821 -0.044559 -0.007521
v -0.043475 -0.045372 -0.007521
v -0.042675 -0.045567 -0.007521
v -0.043273 -0.046086 -0.007521
v -0.042861 -0.046842 -0.007521
v -0.043550 -0.046654 -0.007521
v -0.044159 -0.047394 -0.007521
v -0.044386 -0.046653 -0.007521
v -0.045126 -0.046582 -0.007521
v -0.045325 -0.046388 -0.007521
v -0.045112 -0.045139 -0.007521
v -0.044270 -0.045294 -0.007520
v -0.044220 -0.044501 0.026311
v -0.043444 -0.044603 0.026311
v -0.042962 -0.044939 0.026311
v -0.042625 -0.045422 0.026311
v -0.042523 -0.046198 0.026311
v -0.042823 -0.046921 0.026311
v -0.043444 -0.047397 0.026311
v -0.044220 -0.047500 0.026311
v -0.044773 -0.047299 0.026311
v -0.045222 -0.046921 0.026311
v -0.045522 -0.046198 0.026311
v -0.045420 -0.045422 0.026311
v -0.044943 -0.044800 0.026311
v -0.046375 -0.047626 0.026311
v -0.046800 -0.045119 0.026311
v -0.045285 -0.043477 0.026311
v -0.042764 -0.043297 0.026311
v -0.041172 -0.045768 0.026311
v -0.042058 -0.048151 0.026311
v -0.044536 -0.048813 0.026311
v -0.046875 -0.046499 0.027918
v -0.046515 -0.044685 0.027961
v -0.045177 -0.043426 0.027858
v -0.043022 -0.043282 0.027915
v -0.041637 -0.044499 0.027961
v -0.041369 -0.047154 0.027926
v -0.043071 -0.048632 0.027944
v -0.045059 -0.048703 0.027907
v -0.043367 -0.044799 0.028524
v -0.043128 -0.045059 0.028542
v -0.043302 -0.045763 0.028665
v -0.042654 -0.045967 0.028521
v -0.042747 -0.046278 0.028563
v -0.043470 -0.046605 0.028648
v -0.043310 -0.047168 0.028524
v -0.043655 -0.047245 0.028542
v -0.044177 -0.046742 0.028665
v -0.044688 -0.047200 0.028521
v -0.044921 -0.046941 0.028548
v -0.044743 -0.046237 0.028666
v -0.045391 -0.046033 0.028524
v -0.045285 -0.045696 0.028542
v -0.044588 -0.045495 0.028665
v -0.044622 -0.044684 0.028525
v -0.043954 -0.045279 0.028667
v -0.044916 -0.047097 0.027151
v -0.044365 -0.046872 0.027151
v -0.043716 -0.047128 0.027151
v -0.043379 -0.047217 0.027151
v -0.043222 -0.046316 0.027151
v -0.042626 -0.046226 0.027151
v -0.043322 -0.045731 0.027151
v -0.043180 -0.044855 0.027151
v -0.043953 -0.045268 0.027151
v -0.044525 -0.044678 0.027151
v -0.044606 -0.045268 0.027151
v -0.045300 -0.045732 0.027151
v -0.045351 -0.046051 0.027151
v -0.044691 -0.046306 0.027151
v -0.043825 0.043499 0.026311
v -0.043102 0.043200 0.026311
v -0.042625 0.042578 0.026311
v -0.042523 0.041802 0.026311
v -0.042823 0.041079 0.026311
v -0.043273 0.040701 0.026311
v -0.043825 0.040500 0.026311
v -0.044601 0.040603 0.026311
v -0.045222 0.041079 0.026311
v -0.045522 0.041802 0.026311
v -0.045420 0.042578 0.026311
v -0.045083 0.043061 0.026311
v -0.044601 0.043397 0.026311
v -0.046609 0.040659 0.026311
v -0.046308 0.043915 0.026311
v -0.042764 0.044703 0.026311
v -0.041172 0.042232 0.026311
v -0.042058 0.039849 0.026311
v -0.044536 0.039187 0.026311
v -0.046875 0.041501 0.027918
v -0.046515 0.043315 0.027961
v -0.045177 0.044574 0.027858
v -0.043022 0.044718 0.027915
v -0.041637 0.043501 0.027961
v -0.041369 0.040846 0.027926
v -0.043071 0.039368 0.027944
v -0.045059 0.039297 0.027907
v -0.043367 0.043201 0.028524
v -0.043128 0.042941 0.028542
v -0.043302 0.042237 0.028665
v -0.042583 0.041861 0.028525
v -0.043270 0.041677 0.028647
v -0.043327 0.040836 0.028531
v -0.043655 0.040755 0.028542
v -0.044177 0.041258 0.028665
v -0.044688 0.040800 0.028521
v -0.044921 0.041059 0.028548
v -0.044743 0.041763 0.028666
v -0.045391 0.041967 0.028524
v -0.045029 0.042321 0.028606
v -0.044697 0.043162 0.028542
v -0.044422 0.043273 0.028556
v -0.043954 0.042721 0.028667
v -0.044846 0.040841 0.027151
v -0.044092 0.041268 0.027151
v -0.043519 0.040678 0.027151
v -0.043439 0.041528 0.027151
v -0.042626 0.041774 0.027151
v -0.043315 0.042245 0.027151
v -0.043180 0.043145 0.027151
v -0.044024 0.042749 0.027151
v -0.044695 0.043245 0.027151
v -0.044622 0.042426 0.027151
v -0.045321 0.042302 0.027151
v -0.045351 0.041949 0.027151
v -0.044691 0.041694 0.027151
v 0.043780 0.043499 0.026311
v 0.044556 0.043397 0.026311
v 0.045038 0.043061 0.026311
v 0.045375 0.042578 0.026311
v 0.045477 0.041802 0.026311
v 0.045177 0.041079 0.026311
v 0.044556 0.040603 0.026311
v 0.043780 0.040500 0.026311
v 0.043228 0.040701 0.026311
v 0.042778 0.041079 0.026311
v 0.042478 0.041802 0.026311
v 0.042580 0.042578 0.026311
v 0.043057 0.043200 0.026311
v 0.041391 0.040659 0.026311
v 0.041692 0.043915 0.026311
v 0.045236 0.044703 0.026311
v 0.046828 0.042232 0.026311
v 0.045942 0.039849 0.026311
v 0.043464 0.039187 0.026311
v 0.041125 0.041501 0.027917
v 0.041485 0.043315 0.027961
v 0.042823 0.044574 0.027858
v 0.044978 0.044718 0.027915
v 0.046363 0.043501 0.027961
v 0.046631 0.040846 0.027926
v 0.044929 0.039368 0.027944
v 0.042941 0.039297 0.027907
v 0.044633 0.043201 0.028524
v 0.044759 0.042711 0.028606
v 0.045321 0.042003 0.028542
v 0.045280 0.041709 0.028556
v 0.044730 0.041677 0.028647
v 0.044673 0.040836 0.028531
v 0.044345 0.040755 0.028542
v 0.043823 0.041258 0.028665
v 0.043312 0.040800 0.028521
v 0.043195 0.041267 0.028615
v 0.042637 0.041987 0.028537
v 0.042971 0.042321 0.028606
v 0.043303 0.043162 0.028542
v 0.043578 0.043273 0.028556
v 0.044046 0.042721 0.028667
v 0.043154 0.040841 0.027151
v 0.043908 0.041268 0.027151
v 0.044481 0.040678 0.027151
v 0.044561 0.041528 0.027151
v 0.045374 0.041774 0.027151
v 0.044685 0.042245 0.027151
v 0.044820 0.043145 0.027151
v 0.043976 0.042749 0.027151
v 0.043305 0.043245 0.027151
v 0.043378 0.042426 0.027151
v 0.042679 0.042302 0.027151
v 0.042649 0.041949 0.027151
v 0.043309 0.041694 0.027151
v 0.043780 -0.044501 0.026311
v 0.044556 -0.044603 0.026311
v 0.045038 -0.044939 0.026311
v 0.045375 -0.045422 0.026311
v 0.045477 -0.046198 0.026311
v 0.045177 -0.046921 0.026311
v 0.044556 -0.047397 0.026311
v 0.043780 -0.047500 0.026311
v 0.043228 -0.047299 0.026311
v 0.042778 -0.046921 0.026311
v 0.042478 -0.046198 0.026311
v 0.042580 -0.045422 0.026311
v 0.043057 -0.044800 0.026311
v 0.041391 -0.047341 0.026311
v 0.041692 -0.044085 0.026311
v 0.045236 -0.043297 0.026311
v 0.046828 -0.045768 0.026311
v 0.045942 -0.048151 0.026311
v 0.043464 -0.048813 0.026311
v 0.041125 -0.046499 0.027917
v 0.041485 -0.044685 0.027961
v 0.042823 -0.043426 0.027858
v 0.044978 -0.043282 0.027915
v 0.046363 -0.044499 0.027961
v 0.046784 -0.046288 0.027858
v 0.045831 -0.048226 0.027915
v 0.042941 -0.048703 0.027907
v 0.044633 -0.044799 0.028524
v 0.044874 -0.045058 0.028540
v 0.044638 -0.045697 0.028675
v 0.045346 -0.045967 0.028521
v 0.045280 -0.046291 0.028556
v 0.044568 -0.046420 0.028667
v 0.044690 -0.047168 0.028524
v 0.044233 -0.047058 0.028622
v 0.043309 -0.047165 0.028542
v 0.043079 -0.046941 0.028548
v 0.043257 -0.046237 0.028666
v 0.042609 -0.046033 0.028524
v 0.042715 -0.045696 0.028542
v 0.043412 -0.045495 0.028665
v 0.043378 -0.044684 0.028525
v 0.044046 -0.045279 0.028667
v 0.043154 -0.047159 0.027151
v 0.043908 -0.046732 0.027151
v 0.044481 -0.047322 0.027151
v 0.044561 -0.046472 0.027151
v 0.045374 -0.046226 0.027151
v 0.044678 -0.045731 0.027151
v 0.044820 -0.044855 0.027151
v 0.043976 -0.045251 0.027151
v 0.043305 -0.044755 0.027151
v 0.043378 -0.045574 0.027151
v 0.042679 -0.045698 0.027151
v 0.042649 -0.046051 0.027151
v 0.043309 -0.046306 0.027151
vn -0.9868 0.1610 0.0184
vn -0.5293 -0.8484 -0.0055
vn -0.5818 -0.8133 0.0096
vn -0.9048 -0.4258 -0.0075
vn -0.9303 -0.3669 0.0053
vn -0.0001 -0.3360 0.9418
vn 0.3765 -0.9264 0.0090
vn 0.5213 -0.8532 -0.0188
vn 0.7713 -0.6363 0.0125
vn 0.8933 -0.4494 -0.0080
vn 0.9470 -0.3212 0.0088
vn -0.0004 -0.1295 0.9916
vn 0.0004 0.0604 0.9982
vn -0.5002 -0.8659 -0.0022
vn -0.7748 -0.6322 0.0005
vn -0.5528 -0.8333 -0.0003
vn 0.3698 -0.9291 0.0003
vn 0.3431 -0.9393 0.0013
vn 0.9997 -0.0000 0.0260
vn 0.9999 -0.0150 -0.0020
vn 0.9995 -0.0004 -0.0329
vn 0.9990 0.0006 -0.0448
vn 1.0000 0.0076 -0.0013
vn 0.9998 -0.0018 0.0179
vn 0.9997 -0.0001 0.0249
vn 0.9975 -0.0000 -0.0704
vn 1.0000 0.0004 0.0055
vn 1.0000 0.0001 0.0022
vn 1.0000 -0.0001 -0.0048
vn 1.0000 0.0005 -0.0001
vn 1.0000 0.0005 -0.0000
vn 1.0000 0.0005 0.0027
vn 1.0000 0.0004 0.0015
vn 1.0000 0.0004 -0.0012
vn 1.0000 0.0005 0.0002
vn 0.9995 -0.0027 -0.0309
vn 0.9999 -0.0112 -0.0094
vn 0.9998 -0.0187 -0.0018
vn 0.9995 -0.0295 0.0056
vn 0.9999 -0.0106 0.0008
vn 1.0000 -0.0095 0.0021
vn 0.9996 0.0006 -0.0279
vn 0.9999 0.0030 0.0123
vn 1.0000 0.0081 -0.0011
vn 1.0000 0.0036 0.0056
vn 0.9997 0.0230 -0.0126
vn 0.9997 0.0201 0.0111
vn 0.9999 0.0066 -0.0079
vn 0.7721 -0.6355 -0.0052
vn 0.6392 -0.7690 -0.0000
vn 0.4924 -0.8704 0.0021
vn -0.3101 -0.9507 -0.0018
vn -0.3800 -0.9250 0.0008
vn -0.0000 -0.0000 1.0000
vn -0.0000 -0.0001 1.0000
vn -0.0002 -0.0178 0.9998
vn -0.0002 -0.3257 0.9455
vn -0.0000 0.1325 0.9912
vn 0.0017 -0.0283 0.9996
vn -0.0000 0.0001 1.0000
vn -0.0001 -0.0000 1.0000
vn -0.0002 -0.0003 1.0000
vn 0.0019 0.0025 1.0000
vn -0.3223 0.9466 0.0044
vn -0.4023 0.9155 -0.0072
vn -0.6364 0.7713 0.0097
vn -0.7421 0.6702 -0.0085
vn -0.9275 0.3738 0.0031
vn -0.9302 0.3670 0.0045
vn -0.0053 -1.0000 -0.0033
vn 0.0105 -0.9999 0.0015
vn -0.0001 0.9998 0.0222
vn -0.0427 0.9991 -0.0045
vn 0.0459 0.9987 -0.0216
vn 0.0004 0.9976 -0.0689
vn -0.0271 0.9996 -0.0011
vn -0.0000 0.9998 0.0187
vn -0.0146 0.9999 -0.0000
vn -0.0000 0.9987 -0.0515
vn 0.0374 0.9993 0.0097
vn 0.0088 1.0000 0.0040
vn 0.0009 1.0000 0.0004
vn 0.0011 -0.0251 -0.9997
vn -0.0015 0.5751 -0.8181
vn -0.3833 0.2193 -0.8972
vn -0.3736 0.2191 -0.9014
vn -0.3652 0.5597 -0.7439
vn -0.5427 0.7733 -0.3277
vn -0.6200 0.7817 -0.0678
vn -0.6077 0.7679 0.2026
vn -0.5919 0.6645 0.4562
vn -0.5901 0.4576 0.6651
vn -0.3014 0.2323 0.9248
vn -0.6848 0.1107 0.7202
vn -0.0068 -0.0875 0.9961
vn -0.6653 -0.2458 0.7049
vn 0.0524 -0.9117 0.4075
vn 0.1597 -0.5758 0.8019
vn -0.6121 -0.6687 0.4221
vn -0.4041 -0.8618 0.3065
vn -0.2955 -0.9553 0.0004
vn -0.5198 -0.8530 0.0459
vn -0.3235 -0.8951 -0.3067
vn -0.6083 -0.7675 -0.2025
vn -0.5830 -0.6759 -0.4509
vn -0.1396 -0.7676 -0.6256
vn 0.6000 -0.2766 -0.7506
vn -0.5829 -0.4460 -0.6792
vn -0.2080 -0.2526 -0.9450
vn 0.5015 -0.4724 0.7248
vn -0.4682 0.4828 0.7400
vn -0.3198 0.7452 0.5851
vn -0.3108 0.8988 0.3092
vn -0.2840 0.9588 0.0012
vn -0.2637 0.9123 -0.3134
vn -0.3532 0.7241 -0.5924
vn 0.4647 0.6090 -0.6427
vn 0.4269 0.2707 0.8629
vn 0.4147 0.5001 0.7602
vn 0.3269 0.7886 0.5208
vn 0.5504 0.7966 0.2502
vn 0.4136 0.9055 -0.0947
vn 0.4344 0.8176 -0.3780
vn 0.0471 0.8812 -0.4704
vn 0.6011 0.5460 -0.5836
vn 0.0413 0.4538 -0.8902
vn 0.5639 0.0529 -0.8241
vn -0.4873 -0.6038 -0.6308
vn 0.3607 -0.2206 -0.9062
vn 0.3765 -0.5570 -0.7402
vn 0.3303 -0.7307 -0.5974
vn 0.2530 -0.9149 -0.3147
vn 0.5401 -0.7749 -0.3284
vn 0.1389 -0.9901 0.0183
vn 0.5789 -0.8091 -0.1015
vn 0.6016 -0.7908 0.1127
vn 0.3050 -0.8449 0.4394
vn 0.5724 -0.7453 0.3418
vn 0.5752 -0.5924 0.5640
vn 0.1499 -0.6530 0.7424
vn -0.5234 -0.1820 0.8324
vn 0.5676 -0.3289 0.7548
vn 0.2081 -0.1203 0.9707
vn -0.5397 -0.1026 -0.8356
vn -0.5226 0.4374 -0.7319
vn -0.4773 0.7812 0.4023
vn -0.5269 0.3710 0.7647
vn -0.0315 0.9988 -0.0377
vn 0.1339 0.9910 0.0001
vn 0.1491 0.9888 -0.0021
vn -0.9753 0.1369 0.1733
vn 0.0064 0.9995 -0.0316
vn -0.0000 1.0000 0.0034
vn -0.0001 0.9999 -0.0150
vn 0.0021 0.9996 -0.0290
vn -0.0212 0.9998 0.0018
vn -0.0169 0.9999 -0.0018
vn -0.0227 0.9997 -0.0000
vn -0.0025 0.9999 0.0161
vn 0.0003 0.9998 0.0196
vn -0.0038 1.0000 -0.0058
vn -0.0049 1.0000 -0.0000
vn -0.0034 1.0000 -0.0000
vn -0.0008 0.9934 0.1149
vn -0.0000 1.0000 -0.0000
vn -0.1062 0.9943 -0.0071
vn -0.0007 0.9934 0.1144
vn 0.1512 0.9885 -0.0009
vn 0.0033 1.0000 -0.0014
vn 0.0020 1.0000 -0.0029
vn -0.0013 1.0000 0.0029
vn -0.0014 1.0000 0.0081
vn 0.0002 1.0000 0.0024
vn 0.0013 1.0000 0.0009
vn -0.0739 0.9666 -0.2455
vn -0.0920 0.9841 -0.1522
vn -0.0047 1.0000 -0.0015
vn -0.0030 0.9997 -0.0249
vn -0.0070 1.0000 0.0034
vn -0.0067 1.0000 -0.0021
vn -0.0010 1.0000 -0.0018
vn 0.0632 0.9719 -0.2266
vn 0.0914 0.9851 -0.1459
vn 0.9937 0.0972 -0.0564
vn 0.3545 0.9316 -0.0807
vn 0.1036 0.9891 -0.1048
vn -0.2052 0.9762 0.0698
vn -0.2127 0.6538 0.7261
vn 0.0003 1.0000 -0.0031
vn -0.0004 1.0000 0.0004
vn 0.0174 0.9998 -0.0125
vn 0.0267 0.9996 -0.0080
vn 0.0155 0.9997 -0.0175
vn -0.2845 0.9302 0.2320
vn 0.1583 0.9789 -0.1292
vn 0.4191 0.9062 -0.0563
vn 0.1803 0.9585 0.2207
vn -0.2744 0.4554 0.8469
vn 0.0400 0.9992 0.0014
vn 0.0469 0.9941 0.0980
vn -0.0007 1.0000 0.0065
vn -0.0116 0.9999 -0.0018
vn -0.0113 0.9999 -0.0082
vn -0.0090 0.9999 0.0057
vn -0.0103 0.9995 -0.0295
vn -0.0149 0.9966 -0.0812
vn -0.0124 0.9912 0.1315
vn 0.0815 0.9775 -0.1945
vn -0.0064 0.9999 0.0158
vn -0.0081 0.9999 0.0096
vn -0.0120 0.9999 0.0020
vn -0.0135 0.9999 0.0052
vn 0.9997 -0.0255 -0.0005
vn 0.9982 0.0599 0.0005
vn -0.0295 -0.0530 -0.9982
vn 0.6591 -0.2475 -0.7102
vn -0.1662 -0.5752 -0.8009
vn 0.5592 -0.6815 -0.4720
vn 0.0307 -0.8865 -0.4617
vn 0.6910 -0.6998 -0.1811
vn 0.5894 -0.7390 0.3262
vn 0.1264 -0.8621 0.4908
vn 0.5930 -0.5502 0.5879
vn 0.1619 -0.0778 0.9837
vn 0.7557 0.0567 0.6525
vn 0.4706 0.3586 0.8062
vn 0.4173 0.6256 0.6591
vn 0.1742 0.7013 0.6912
vn 0.2204 0.9172 0.3320
vn 0.6328 0.7031 0.3243
vn 0.2858 0.9581 0.0202
vn 0.5789 0.8091 0.1014
vn 0.6512 0.7513 -0.1075
vn 0.4480 0.8314 -0.3288
vn -0.5119 0.5810 -0.6328
vn 0.0202 0.7225 -0.6911
vn 0.6258 0.7089 -0.3252
vn -0.9722 0.0225 -0.2330
vn 0.6587 0.3648 -0.6581
vn 0.0221 0.2262 -0.9738
vn 0.5941 0.0812 -0.8003
vn -0.0646 0.3240 0.9439
vn 0.5116 -0.3647 0.7779
vn -0.4122 -0.4889 0.7688
vn 0.1977 -0.9760 0.0907
vn -0.1215 -0.9910 0.0570
vn -0.5193 -0.4650 -0.7170
vn -0.0109 -0.9999 0.0024
vn -0.0153 -0.9999 0.0010
vn -0.7198 0.1118 -0.6852
vn 0.4175 0.4016 -0.8151
vn -0.6738 0.5516 -0.4916
vn 0.1150 0.8992 -0.4222
vn -0.5481 0.8343 -0.0592
vn -0.6568 0.7320 0.1809
vn 0.0636 0.8803 0.4701
vn -0.5352 0.6944 0.4810
vn -0.0326 0.5817 0.8128
vn -0.6350 0.2556 0.7290
vn -0.0469 0.0382 0.9982
vn -0.7187 -0.1119 0.6862
vn -0.0398 -0.4367 0.8987
vn -0.1535 -0.7672 0.6228
vn -0.5561 -0.6011 0.5739
vn -0.2529 -0.9149 0.3147
vn -0.6271 -0.7078 0.3253
vn -0.2859 -0.9581 0.0202
vn -0.1436 -0.8920 -0.4285
vn -0.5789 -0.8091 0.1015
vn -0.6511 -0.7513 -0.1075
vn -0.4183 -0.8360 -0.3552
vn -0.5719 -0.6730 -0.4690
vn -0.0912 -0.6574 -0.7480
vn 0.9762 -0.0480 -0.2115
vn -0.5515 -0.4848 -0.6789
vn -0.1328 -0.3624 -0.9225
vn -0.5689 -0.2265 -0.7906
vn 0.1305 -0.0906 -0.9873
vn 0.5674 -0.2952 0.7687
vn 0.9932 -0.0286 0.1130
vn 0.5624 0.4241 0.7098
vn -0.0251 0.9990 0.0377
vn 0.4237 0.8053 -0.4147
vn 0.4628 0.3869 -0.7976
vn -0.9997 -0.0000 0.0254
vn -0.9996 0.0002 0.0278
vn -0.9999 0.0106 -0.0011
vn -0.9999 0.0108 -0.0012
vn -0.9994 -0.0000 -0.0333
vn -0.9999 -0.0114 -0.0012
vn -0.9997 -0.0028 -0.0223
vn -0.9994 -0.0000 -0.0337
vn -1.0000 0.0001 -0.0030
vn -1.0000 -0.0000 -0.0020
vn -1.0000 0.0001 0.0065
vn -1.0000 0.0006 -0.0003
vn -1.0000 0.0006 0.0001
vn -1.0000 0.0006 -0.0002
vn -1.0000 0.0005 -0.0000
vn -1.0000 0.0004 -0.0027
vn -1.0000 0.0003 -0.0015
vn -1.0000 0.0003 -0.0019
vn -1.0000 0.0002 -0.0007
vn -0.9999 0.0002 0.0152
vn -0.9999 -0.0031 0.0143
vn -0.9999 -0.0089 0.0050
vn -0.9999 -0.0141 0.0003
vn -0.9993 -0.0349 -0.0123
vn -0.9999 -0.0163 0.0020
vn -0.9999 -0.0113 -0.0042
vn -0.9997 0.0019 -0.0239
vn -1.0000 0.0080 -0.0043
vn -1.0000 0.0095 -0.0022
vn -1.0000 0.0067 0.0026
vn -1.0000 0.0076 0.0015
vn -0.9999 0.0031 0.0110
vn -1.0000 0.0036 0.0093
vn -0.0000 -0.7071 -0.7071
vn 0.9719 -0.0128 0.2350
vn -0.7014 0.0333 0.7120
vn -0.9187 0.0085 -0.3948
vn -0.8506 0.2533 -0.4608
vn 0.3669 0.9302 0.0108
vn 0.5167 0.8559 -0.0192
vn 0.7713 0.6363 0.0125
vn 0.9058 0.4235 -0.0106
vn 0.9469 0.3214 0.0044
vn -0.0000 1.0000 0.0002
vn -0.0000 1.0000 0.0004
vn 0.0002 1.0000 -0.0001
vn 0.0002 1.0000 -0.0013
vn -0.0000 1.0000 -0.0009
vn -0.0003 1.0000 -0.0000
vn -0.0002 1.0000 0.0036
vn 0.3911 -0.9073 0.1546
vn 0.3559 0.7260 0.5885
vn -0.6218 -0.5335 0.5734
vn 0.5009 0.8451 0.1871
vn 0.9433 0.0849 -0.3210
vn 0.8448 0.4246 -0.3258
vn -0.9300 -0.3662 -0.0316
vn -0.8843 -0.4651 -0.0405
vn -0.2930 0.6948 0.6569
vn 0.9800 -0.0881 0.1786
vn -0.9872 0.0888 0.1326
vn -0.3256 0.9350 0.1408
vn -0.9729 -0.0876 -0.2142
vn -0.0388 -0.7478 0.6628
vn 0.1301 -0.9065 -0.4017
vn -0.0410 0.9750 -0.2184
vn 1.0000 -0.0000 -0.0000
vn 0.0020 1.0000 -0.0036
vn 0.0001 0.9995 0.0313
vn 0.0005 1.0000 0.0020
vn 0.0019 1.0000 -0.0017
vn 0.0019 0.9998 -0.0200
vn 0.0003 0.9999 0.0133
vn -0.0000 -1.0000 -0.0000
vn 0.0075 -0.0000 1.0000
vn 0.0094 -0.0191 0.9998
vn -0.9900 -0.0000 0.1409
vn 0.9979 0.0564 -0.0317
vn 0.9994 -0.0195 0.0301
vn 0.0058 -0.0000 -1.0000
vn 0.0115 -0.0576 -0.9983
vn -0.9900 -0.0000 -0.1409
vn 0.0033 0.9998 0.0213
vn -0.0001 0.9998 0.0185
vn 0.0004 0.9982 0.0604
vn -0.0024 0.9999 0.0144
vn -0.0159 0.9936 0.1115
vn 0.2745 0.9610 -0.0326
vn 0.1006 0.9949 0.0027
vn 0.0447 0.9990 -0.0054
vn 0.0018 0.9998 -0.0186
vn 0.0203 0.9996 -0.0188
vn 0.0126 0.9992 -0.0378
vn 0.0207 0.9998 -0.0007
vn 0.0205 0.9998 0.0010
vn 0.0435 0.9990 0.0118
vn -0.0000 0.9999 -0.0116
vn -0.0221 0.9997 0.0046
vn -0.0007 1.0000 -0.0078
vn 0.0230 0.9961 0.0851
vn -0.0329 0.9995 -0.0007
vn 0.0258 0.9997 0.0036
vn -0.0153 0.9998 -0.0125
vn -0.0152 0.9938 0.1101
vn -0.0008 1.0000 0.0020
vn 0.0162 0.9999 -0.0008
vn 0.0264 0.9996 -0.0046
vn -0.0035 0.9999 -0.0164
vn 0.0087 1.0000 -0.0018
vn 0.0081 1.0000 -0.0033
vn 0.0157 0.9996 -0.0255
vn -0.0024 0.9999 0.0161
vn -0.0102 0.9997 0.0238
vn -0.0004 0.9999 0.0105
vn 0.0036 1.0000 0.0010
vn -0.0145 0.9999 0.0089
vn 0.0112 0.9999 -0.0114
vn -0.0196 0.9987 -0.0466
vn 0.0059 0.9998 0.0197
vn 0.0152 0.9998 -0.0128
vn 0.0486 0.9913 0.1220
vn -0.0169 0.9988 -0.0455
vn 0.5998 0.0418 -0.7991
vn 0.5974 0.0389 -0.8010
vn 0.8908 -0.0319 -0.4533
vn 0.9950 0.0968 -0.0251
vn 0.9947 -0.1033 0.0015
vn 0.8002 0.1421 -0.5827
vn 0.0032 -0.0897 -0.9960
vn 0.0045 -0.1021 -0.9948
vn -0.6126 0.1520 -0.7757
vn -0.9936 -0.1128 -0.0016
vn -0.9938 -0.1116 -0.0015
vn -0.7403 0.1701 0.6504
vn -0.0171 0.0820 0.9965
vn -0.0026 -0.0812 0.9967
vn 0.8921 -0.0036 0.4517
vn 0.7445 0.0687 0.6640
vn 0.6600 0.0075 0.7512
vn 0.8694 0.1455 0.4722
vn 0.9587 -0.0272 -0.2832
vn -0.7719 -0.0028 -0.6357
vn 0.9996 -0.0186 -0.0192
vn 0.9992 0.0403 -0.0081
vn 0.5154 0.8570 -0.0060
vn 0.9541 0.2976 -0.0322
vn 0.7216 0.4552 -0.5216
vn -0.0039 0.9211 0.3893
vn 0.0040 0.7521 0.6591
vn -0.5778 0.8162 0.0001
vn -0.6583 0.7527 -0.0023
vn 0.7508 0.6602 0.0199
vn 0.5766 0.8170 0.0052
vn -0.5765 0.3897 -0.7182
vn 0.6923 0.3720 0.6183
vn 0.0028 0.7586 -0.6515
vn -0.0028 0.8620 -0.5069
vn 0.3490 0.8352 -0.4250
vn 0.4338 0.6100 -0.6632
vn 0.6655 0.7308 -0.1517
vn -0.6329 0.5692 0.5248
vn -0.0204 0.9989 -0.0427
vn -0.0104 0.9996 -0.0255
vn 0.0167 0.9966 -0.0813
vn -0.0054 0.9987 0.0512
vn 0.0022 1.0000 -0.0002
vn 0.0042 1.0000 -0.0033
vn -0.0007 0.9985 0.0547
vn -0.0013 0.9986 0.0532
vn 0.0163 0.9996 0.0236
vn 0.0086 0.9997 -0.0242
vn 0.0074 0.9997 -0.0242
vn -0.0193 0.9994 0.0275
vn -0.0116 0.9995 0.0309
vn 0.0181 0.9998 -0.0106
vn 0.0016 0.9999 -0.0106
vn 0.0065 0.9998 -0.0164
vn -0.0109 0.9992 -0.0396
vn -0.0064 0.9995 -0.0317
vn -0.0283 0.9994 -0.0222
vn -0.0212 0.9997 -0.0097
vn 0.0456 0.9989 0.0064
vn 0.0628 0.9976 0.0294
vn 0.9455 0.3255 -0.0085
vn 0.9413 0.3376 -0.0023
vn 0.9256 0.3759 0.0443
vn 0.8212 0.5688 -0.0460
vn 0.7245 0.6838 0.0874
vn 0.5647 0.8204 -0.0890
vn 0.2400 0.9675 0.0792
vn 0.3901 0.9205 -0.0225
vn 0.3409 0.9401 -0.0023
vn -0.0000 -0.0000 -1.0000
vn 0.0001 -0.0000 -1.0000
vn -0.0012 0.0022 -1.0000
vn 0.0005 -0.0001 -1.0000
vn -0.0005 -0.0001 -1.0000
vn 0.0009 0.0017 -1.0000
vn -0.7417 -0.6707 -0.0018
vn -0.7248 -0.6881 0.0325
vn -0.0000 0.0001 -1.0000
vn -0.0001 -0.0001 -1.0000
vn 0.6746 0.7380 0.0169
vn 0.6848 0.7287 -0.0011
vn -0.9858 -0.1514 -0.0733
vn -0.9580 0.2776 0.0721
vn -0.9501 0.3083 0.0468
vn -0.4113 0.9065 -0.0956
vn -0.1515 0.9873 0.0470
vn -0.0135 0.9996 -0.0228
vn -0.3731 0.9278 -0.0034
vn -0.3263 0.9445 0.0386
vn 0.4900 0.8717 -0.0061
vn 0.5083 0.8609 -0.0222
vn 0.9605 0.2774 0.0229
vn 0.9716 0.2363 -0.0109
vn 0.8633 -0.5045 -0.0112
vn 0.8537 -0.5208 -0.0000
vn 0.0006 1.0000 -0.0072
vn 0.0004 1.0000 -0.0043
vn -0.3237 0.9461 -0.0092
vn -0.3309 0.9436 -0.0056
vn -0.4010 0.9127 0.0789
vn -0.5694 0.8198 -0.0608
vn -0.7403 0.6686 0.0701
vn -0.8196 0.5715 -0.0412
vn -0.9263 0.3733 0.0510
vn -0.9425 0.3343 0.0024
vn -0.9393 0.3430 -0.0049
vn -0.9999 0.0006 -0.0143
vn -1.0000 -0.0000 -0.0067
vn -0.9454 -0.3257 -0.0086
vn -0.9434 -0.3315 -0.0056
vn -0.8994 -0.4233 0.1090
vn -0.8181 -0.5714 -0.0652
vn -0.5697 -0.8213 0.0309
vn -0.5263 -0.8436 0.1063
vn -0.4288 -0.9032 0.0184
vn -0.2547 -0.9660 -0.0434
vn -0.7399 0.6727 -0.0088
vn -0.7548 0.6556 0.0236
vn -0.0000 -0.0001 -1.0000
vn 0.6842 -0.7293 -0.0008
vn 0.6751 -0.7375 -0.0169
vn -0.0858 -0.9960 0.0263
vn -0.0766 -0.9964 0.0352
vn -0.5592 -0.8173 -0.1393
vn -0.9380 -0.3428 0.0515
vn -0.9684 -0.2472 -0.0319
vn -0.0153 -0.9996 0.0255
vn -0.0001 -0.9999 0.0108
vn 0.0008 -1.0000 0.0013
vn 0.0105 -0.9999 0.0119
vn 0.3236 -0.9458 -0.0262
vn 0.3752 -0.9269 -0.0058
vn 0.4572 -0.8864 0.0734
vn 0.5692 -0.8196 -0.0649
vn 0.8202 -0.5717 0.0213
vn 0.8538 -0.5016 0.1392
vn 0.9329 -0.3596 -0.0190
vn 0.9394 -0.3428 -0.0048
vn 0.7417 0.6707 -0.0018
vn 0.7520 0.6587 -0.0243
vn 0.9759 0.1910 -0.1052
vn 0.9576 -0.2775 0.0777
vn 0.9462 -0.3205 0.0446
vn 0.4623 -0.8824 -0.0870
vn 0.1513 -0.9863 0.0650
vn -0.1609 -0.9805 -0.1127
vn -0.6747 -0.7380 -0.0152
vn -0.6655 -0.7464 -0.0008
vn 1.0000 -0.0006 -0.0092
vn 1.0000 -0.0004 -0.0062
vn -0.8755 -0.4831 0.0132
vn -0.8704 -0.4921 0.0165
vn -0.5431 -0.8212 0.1752
vn -0.6610 -0.7344 0.1541
vn -0.7259 -0.6873 0.0266
vn -0.6469 -0.7612 0.0460
vn -0.6292 -0.7772 0.0100
vn -0.9968 0.0803 0.0063
vn -0.7717 -0.5848 0.2498
vn -0.8139 -0.4702 0.3413
vn -0.5277 -0.7070 0.4709
vn -0.7814 -0.5364 0.3190
vn -0.5389 -0.7200 0.4371
vn -0.8951 -0.3946 0.2077
vn -0.4866 -0.7352 0.4719
vn -0.5639 -0.6304 0.5335
vn -0.7401 -0.6168 -0.2679
vn -0.7394 -0.5759 0.3487
vn -0.6989 -0.3406 0.6289
vn -0.9240 -0.3503 -0.1535
vn -0.7167 -0.2006 0.6679
vn -0.8039 -0.0081 0.5947
vn -0.8830 0.1136 0.4555
vn -0.9884 0.1497 0.0255
vn -0.8775 0.2744 0.3934
vn -0.6122 0.7312 0.3008
vn -0.6114 0.7305 0.3043
vn -0.4635 0.8027 0.3754
vn -0.3274 0.8237 0.4630
vn -0.3455 0.9054 0.2467
vn -0.2014 0.9379 0.2825
vn -0.0245 0.8943 0.4467
vn -0.0322 0.7416 0.6701
vn -0.1727 0.8571 0.4854
vn -0.7476 0.6147 -0.2516
vn -0.8218 0.4286 0.3754
vn -0.9071 0.2895 0.3054
vn -0.8083 -0.0875 -0.5822
vn -0.9791 -0.1304 -0.1563
vn -0.8636 -0.4874 -0.1291
vn -0.5407 -0.7218 -0.4321
vn -0.8946 0.4447 -0.0435
vn -0.6757 0.5142 0.5282
vn -0.5024 0.8476 0.1707
vn 0.4887 -0.7433 0.4568
vn 0.5399 -0.7395 -0.4021
vn 0.5041 -0.4834 0.7157
vn 0.5814 -0.5709 0.5796
vn 0.7663 -0.5261 0.3689
vn 0.9594 -0.2236 -0.1722
vn 0.7534 -0.1038 0.6493
vn 0.9307 0.0260 -0.3650
vn 0.7996 0.1116 0.5901
vn 0.7745 0.5264 -0.3508
vn 0.7360 0.5471 0.3988
vn 0.6755 0.7025 0.2240
vn 0.5098 0.7284 0.4577
vn 0.4243 0.6304 0.6500
vn 0.2938 0.7410 0.6038
vn 0.8058 -0.5443 0.2333
vn 0.9067 -0.4212 -0.0203
vn 0.9629 0.2146 -0.1636
vn 0.4109 0.8383 -0.3584
vn 0.2700 0.9533 -0.1350
vn 0.1557 0.7553 0.6366
vn 0.6999 0.7053 -0.1127
vn 0.6934 0.3542 0.6274
vn 0.9122 0.3760 -0.1626
vn 0.7908 0.2424 0.5621
vn 0.9176 -0.0115 0.3974
vn 0.8545 -0.2326 0.4645
vn 0.9039 -0.4133 0.1102
vn 0.0941 0.9397 -0.3288
vn 0.8740 -0.3867 0.2942
vn 0.8603 -0.4100 0.3029
vn 0.9989 0.0212 0.0422
vn 0.5614 -0.6897 0.4573
vn 0.6613 -0.6617 0.3534
vn 0.8096 -0.5171 0.2777
vn 0.9033 -0.3484 0.2505
vn 0.5370 -0.8222 0.1886
vn 0.7097 -0.6923 0.1304
vn 0.5523 -0.8315 0.0593
vn 0.4672 -0.8826 0.0526
vn 0.6110 -0.7900 0.0512
vn 0.9089 -0.3802 0.1713
vn 0.9036 -0.4271 0.0321
vn 0.8698 -0.4935 0.0011
vn -0.3596 -0.9283 -0.0952
vn -0.4078 -0.9036 0.1307
vn -0.9756 -0.1557 -0.1547
vn -0.9855 -0.1405 -0.0954
vn -0.7313 0.6636 0.1574
vn -0.5787 0.7380 -0.3471
vn 0.1148 0.9505 0.2888
vn 0.3365 0.8689 -0.3630
vn 0.7763 0.4912 0.3951
vn 0.8590 0.2205 -0.4620
vn 0.8794 -0.3856 -0.2791
vn 0.9120 -0.3439 -0.2237
vn 0.6042 -0.7952 -0.0507
vn 0.6228 -0.7561 -0.2011
vn 0.1352 -0.3194 -0.9379
vn 0.2994 -0.4343 -0.8496
vn 0.4808 -0.0768 -0.8734
vn 0.2700 0.4120 -0.8703
vn -0.1218 0.3282 -0.9367
vn -0.3644 0.4799 -0.7980
vn -0.3676 0.5063 -0.7801
vn -0.5006 0.0524 -0.8641
vn -0.6135 -0.1090 -0.7821
vn -0.2895 -0.4270 -0.8567
vn -0.2481 -0.6408 -0.7265
vn -0.2657 -0.4088 -0.8731
vn 0.3046 -0.5072 -0.8062
vn 0.5028 -0.0581 -0.8625
vn 0.5781 0.1534 -0.8014
vn 0.2895 0.4269 -0.8567
vn 0.2481 0.6409 -0.7265
vn -0.0266 -0.0045 -0.9996
vn -0.0176 -0.0051 -0.9998
vn 0.0188 -0.0134 -0.9997
vn 0.0317 -0.0030 -0.9995
vn 0.0191 0.0061 -0.9998
vn -0.0054 0.0044 -1.0000
vn -0.6903 0.7152 0.1091
vn -0.6533 0.7530 0.0783
vn -0.9346 -0.3200 -0.1553
vn -0.8783 -0.4779 -0.0157
vn 0.2502 0.9680 0.0197
vn 0.2032 0.9777 0.0522
vn -0.7446 0.6492 -0.1554
vn -0.8531 0.5216 -0.0164
vn 0.9486 0.3156 0.0254
vn 0.9632 0.2681 -0.0171
vn 0.0812 0.9941 0.0719
vn 0.0044 0.9998 0.0169
vn 0.7960 0.5854 -0.1535
vn 0.7257 -0.6789 0.1118
vn -0.6496 -0.4778 -0.5914
vn 0.9298 -0.0184 0.3675
vn 0.8647 0.4991 -0.0561
vn -0.2585 -0.9660 -0.0102
vn -0.1806 -0.9825 0.0459
vn 0.7900 -0.6023 -0.1148
vn 0.8528 -0.5215 -0.0288
vn -0.9472 -0.3194 0.0287
vn -0.9165 -0.3890 0.0933
vn -0.0056 -1.0000 0.0058
vn -0.2331 -0.9555 -0.1807
vn 0.0980 -0.8605 0.5000
vn -0.3193 -0.8245 -0.4673
vn -0.7196 -0.4584 0.5216
vn -0.8553 -0.1424 -0.4982
vn -0.7298 0.5496 0.4066
vn 0.2023 0.9123 0.3561
vn 0.3540 0.9140 -0.1982
vn 0.9876 0.1546 0.0277
vn 0.9861 0.1389 0.0910
vn 0.6153 -0.7783 -0.1255
vn 0.3973 -0.1504 -0.9053
vn 0.1208 -0.3286 -0.9367
vn 0.2701 0.4121 -0.8702
vn -0.1218 0.3283 -0.9367
vn -0.3677 0.5063 -0.7800
vn -0.6136 -0.1090 -0.7821
vn -0.2699 -0.4120 -0.8703
vn 0.3644 -0.4799 -0.7981
vn 0.3677 -0.5064 -0.7800
vn 0.5005 -0.0534 -0.8641
vn 0.6143 0.1091 -0.7815
vn 0.2481 0.6408 -0.7265
vn -0.0322 0.0057 -0.9995
vn 0.0191 0.0055 -0.9998
vn -0.0213 0.0153 -0.9997
vn -0.7285 0.6850 0.0009
vn -0.7458 0.6657 0.0231
vn -0.8674 -0.4971 -0.0241
vn -0.8843 -0.4633 -0.0572
vn 0.2599 0.9654 0.0212
vn 0.1113 0.9853 0.1298
vn -0.7885 0.6012 -0.1297
vn -0.8715 0.4895 -0.0292
vn 0.9472 0.3193 0.0287
vn 0.9632 0.2682 -0.0171
vn 0.1050 0.9919 0.0708
vn 0.0050 0.9998 -0.0179
vn 0.7319 -0.6812 -0.0175
vn 0.7623 -0.6469 0.0222
vn 0.8655 0.5003 -0.0242
vn 0.8136 0.5785 0.0586
vn -0.1024 -0.9887 -0.1092
vn -0.2589 -0.9658 0.0118
vn 0.7951 -0.6063 0.0175
vn 0.7807 -0.6249 -0.0048
vn -0.9476 -0.3195 0.0064
vn -0.9413 -0.3367 0.0223
vn -0.0061 -0.9997 -0.0240
vn -0.0251 -0.9989 -0.0408
vn 0.0068 -0.9477 0.3189
vn -0.6295 -0.7763 0.0341
vn -0.8312 -0.1392 -0.5383
vn -0.7946 -0.1555 -0.5869
vn -0.7207 0.6312 0.2867
vn -0.5768 0.7358 -0.3547
vn 0.1616 0.9847 -0.0646
vn 0.3043 0.7860 -0.5382
vn 0.8114 0.5506 0.1962
vn 0.9291 0.1513 -0.3375
vn 0.9979 0.0072 0.0640
vn 0.6267 -0.7217 -0.2939
vn 0.1285 -0.3345 -0.9336
vn 0.2757 0.4163 -0.8664
vn -0.1189 0.3260 -0.9379
vn -0.3644 0.4799 -0.7981
vn -0.5004 0.0537 -0.8641
vn -0.6139 -0.1091 -0.7818
vn -0.2855 -0.4245 -0.8593
vn -0.2895 -0.4275 -0.8564
vn 0.5004 -0.0534 -0.8641
vn -0.0322 0.0056 -0.9995
vn -0.0176 -0.0047 -0.9998
vn 0.0171 -0.0097 -0.9998
vn 0.0353 -0.0010 -0.9994
vn 0.0229 0.0136 -0.9996
vn -0.0196 0.0216 -0.9996
vn -0.7286 0.6850 0.0009
vn -0.7459 0.6657 0.0231
vn -0.8673 -0.4971 -0.0241
vn -0.8775 -0.4775 -0.0435
vn 0.2597 0.9657 0.0070
vn 0.2632 0.9647 0.0043
vn -0.7714 0.6359 0.0233
vn -0.7950 0.6064 -0.0127
vn 0.9502 0.3118 0.0015
vn 0.9558 0.2935 -0.0148
vn 0.1050 0.9920 0.0708
vn 0.0084 0.9999 -0.0149
vn 0.7317 -0.6814 -0.0177
vn 0.7623 -0.6469 0.0223
vn 0.8656 0.5002 -0.0243
vn 0.8774 0.4775 -0.0468
vn -0.2236 -0.9747 0.0056
vn -0.2035 -0.9788 0.0231
vn 0.8476 -0.5301 -0.0231
vn 0.8530 -0.5217 -0.0145
vn -0.9524 -0.3044 0.0153
vn -0.9494 -0.3131 0.0231
vn -0.0062 -0.9997 -0.0240
vn -0.0819 0.9884 0.1282
vn 0.3006 0.7763 -0.5540
vn 0.5610 0.8200 -0.1135
vn 0.9247 0.2353 -0.2993
vn 0.9662 0.0521 0.2524
vn 0.9120 -0.3438 -0.2236
vn 0.6042 -0.7952 -0.0506
vn 0.2918 -0.2875 -0.9122
vn 0.2455 -0.5104 -0.8241
vn 0.4810 -0.0766 -0.8733
vn -0.3676 0.5063 -0.7800
vn -0.3427 -0.3851 -0.8569
vn -0.2366 -0.6112 -0.7553
vn 0.2688 -0.4655 -0.8432
vn -0.0199 -0.0092 -0.9998
vn 0.0230 0.0240 -0.9994
vn 0.0025 0.0077 -1.0000
vn -0.6968 0.7091 0.1078
vn -0.6538 0.7536 0.0683
vn -0.9166 -0.3830 -0.1148
vn -0.8780 -0.4778 -0.0288
vn 0.1969 0.9800 0.0288
vn 0.2631 0.9643 -0.0293
vn -0.7665 0.6319 0.1153
vn -0.9051 0.4090 -0.1160
vn -0.6350 0.7693 -0.0710
vn 0.9769 0.1832 -0.1104
vn 0.0949 0.9929 0.0712
vn 0.0078 0.9999 0.0101
vn 0.6936 0.7061 -0.1424
vn 0.7258 -0.6799 0.1050
vn -0.5590 -0.5691 -0.6031
vn 0.9324 -0.0091 0.3612
vn 0.8647 0.4991 -0.0562
vn -0.2232 -0.9747 -0.0134
vn -0.1807 -0.9833 0.0223
vn -0.0057 -1.0000 0.0058
vn -0.2332 -0.9555 -0.1807
vn -0.7554 -0.6233 0.2021
vn -0.5385 -0.8342 -0.1191
vn 0.0342 -0.9962 0.0797
vn 0.2561 -0.9587 -0.1234
vn 0.6458 -0.7414 0.1824
vn 0.9218 -0.3425 -0.1815
vn 0.9749 0.0957 0.2010
vn 0.8274 0.5330 -0.1770
vn 0.6551 0.7491 0.0981
vn -0.0660 0.9976 -0.0201
vn -0.0712 0.9971 -0.0282
vn -0.6840 0.7291 0.0236
vn -0.7342 0.6770 -0.0518
vn -0.9746 0.1902 0.1179
vn -0.9687 -0.1641 -0.1862
vn -0.3535 -0.2955 0.8875
vn -0.3220 -0.0763 0.9437
vn 0.5348 -0.0484 0.8436
vn 0.2655 0.1777 0.9476
vn 0.4359 0.0321 0.8994
vn 0.3356 0.0805 0.9386
vn 0.2491 0.2941 0.9228
vn 0.2443 0.3127 0.9179
vn 0.0248 0.2588 0.9656
vn -0.0536 0.4492 0.8918
vn -0.2824 0.1510 0.9473
vn -0.2669 0.3571 0.8951
vn 0.1864 -0.1603 0.9693
vn 0.2884 -0.2230 0.9312
vn 0.2816 -0.3131 0.9070
vn 0.1269 -0.3471 0.9292
vn 0.0987 -0.3970 0.9125
vn -0.0903 -0.3235 0.9419
vn -0.0031 -0.3969 0.9179
vn -0.2413 -0.3153 0.9178
vn -0.3925 0.0557 0.9181
vn -0.3792 0.0688 0.9228
vn -0.2375 0.2503 0.9386
vn 0.0345 0.3654 0.9302
vn -0.2883 -0.2750 0.9172
vn 0.0006 0.0006 1.0000
vn 0.0001 0.0001 1.0000
vn -0.3031 -0.9528 -0.0165
vn -0.9697 0.2434 0.0180
vn -0.9853 0.1594 0.0607
vn -0.7317 -0.6778 -0.0718
vn 0.6461 -0.7539 0.1188
vn 0.4717 -0.8817 -0.0059
vn -0.7183 -0.6957 -0.0053
vn -0.6581 -0.7513 -0.0500
vn 0.9884 -0.1350 0.0689
vn 0.9991 0.0414 -0.0060
vn 0.5513 -0.8241 -0.1300
vn 0.2732 -0.9617 0.0223
vn 0.9542 -0.2992 -0.0023
vn 0.9868 -0.1593 0.0305
vn 0.3011 0.9536 -0.0035
vn 0.3602 0.9324 -0.0299
vn 0.9665 -0.2528 0.0445
vn 0.9611 -0.2740 0.0340
vn 0.7358 0.6733 -0.0722
vn -0.3749 0.9177 0.1314
vn -0.6704 0.7417 0.0196
vn 0.3643 0.9230 -0.1240
vn 0.6971 0.7163 0.0302
vn 0.2543 0.9645 0.0704
vn -0.2189 0.9755 -0.0232
vn -0.9569 -0.2844 0.0584
vn -0.9769 0.1706 -0.1288
vn -0.3981 0.9107 0.1099
vn -0.1492 0.9885 0.0242
vn -0.9580 0.2774 -0.0721
vn -0.5736 -0.8070 0.1405
vn -0.7555 -0.6233 0.2017
vn -0.5739 -0.8081 -0.1324
vn 0.0341 -0.9962 0.0797
vn 0.2560 -0.9588 -0.1234
vn -0.2103 0.9453 -0.2493
vn -0.6668 0.7234 0.1790
vn -0.9794 0.1953 -0.0521
vn -0.9739 0.0900 -0.2083
vn 0.2720 0.1690 0.9473
vn 0.4659 0.0354 0.8841
vn 0.0457 0.2348 0.9710
vn -0.0536 0.4477 0.8926
vn -0.2325 0.4701 0.8514
vn -0.2506 0.3407 0.9061
vn 0.2114 -0.1479 0.9661
vn 0.2899 -0.2050 0.9348
vn 0.2818 -0.3133 0.9069
vn 0.1178 -0.3507 0.9290
vn -0.0032 -0.3969 0.9179
vn -0.3285 0.1171 0.9372
vn -0.2851 0.1841 0.9406
vn 0.0531 0.3615 0.9309
vn -0.0002 -0.0002 1.0000
vn -0.4629 -0.8864 -0.0009
vn -0.9702 0.2421 0.0094
vn -0.9873 0.1474 0.0591
vn -0.7316 -0.6779 -0.0718
vn 0.4251 -0.9044 -0.0360
vn -0.7649 -0.6437 0.0234
vn 0.3754 -0.9252 -0.0544
vn -0.5892 -0.7974 0.1305
vn 0.9960 0.0893 0.0069
vn 0.9112 -0.3416 0.2303
vn 0.1739 -0.9845 -0.0222
vn 0.7086 -0.6929 -0.1335
vn 0.9960 -0.0839 0.0298
vn 0.3603 0.9324 -0.0299
vn 0.9665 -0.2528 0.0446
vn 0.9807 -0.1783 0.0808
vn 0.7366 0.6732 -0.0648
vn -0.6796 0.7267 0.1001
vn -0.4925 0.8700 -0.0219
vn 0.6985 0.7142 0.0445
vn 0.7179 0.6954 0.0314
vn -0.2420 0.9672 -0.0771
vn -0.9875 0.0934 0.1267
vn -0.9928 0.0532 0.1070
vn -0.2893 0.9552 -0.0622
vn -0.2682 0.9619 -0.0526
vn -0.5626 -0.8238 0.0696
vn -0.5739 -0.8081 -0.1325
vn 0.2560 -0.9588 -0.1235
vn -0.6667 0.7235 0.1790
vn -0.9794 0.1952 -0.0522
vn -0.9739 0.0900 -0.2084
vn -0.3349 -0.2802 0.8996
vn 0.5238 -0.0340 0.8511
vn 0.4394 0.0325 0.8977
vn 0.3021 0.1549 0.9406
vn 0.2657 0.2260 0.9372
vn -0.0535 0.4478 0.8926
vn -0.2325 0.4704 0.8513
vn -0.2507 0.3407 0.9061
vn 0.1705 -0.1463 0.9744
vn 0.2886 -0.2270 0.9302
vn 0.1178 -0.3508 0.9290
vn 0.0988 -0.3971 0.9124
vn -0.3691 -0.2719 0.8887
vn -0.3939 0.0560 0.9175
vn -0.3223 0.1271 0.9381
vn -0.2852 0.1842 0.9406
vn -0.3312 -0.1556 0.9306
vn -0.7503 -0.6177 0.2357
vn -0.9890 0.1476 0.0027
vn -0.9566 -0.2658 -0.1193
vn -0.7649 -0.6437 0.0233
vn 0.3754 -0.9253 -0.0544
vn 0.9960 0.0893 0.0068
vn 0.7142 -0.6868 -0.1347
vn 0.9964 -0.0840 0.0108
vn 0.3603 0.9325 -0.0224
vn 0.7556 0.6105 0.2374
vn 0.9836 -0.1788 0.0248
vn 0.9594 0.2627 -0.1028
vn 0.6985 0.7143 0.0445
vn -0.2421 0.9672 -0.0771
vn -0.0524 0.9977 0.0426
vn -0.9887 0.1375 -0.0603
vn -0.5603 -0.8205 0.1136
vn -0.5739 -0.8082 -0.1325
vn 0.1615 -0.9795 0.1203
vn 0.2580 -0.9658 -0.0270
vn 0.8971 -0.4399 0.0416
vn 0.9336 -0.3469 -0.0902
vn 0.9696 0.2224 0.1020
vn -0.6668 0.7235 0.1790
vn -0.3220 -0.0764 0.9437
vn 0.0708 -0.4439 0.8933
vn 0.4145 -0.1775 0.8926
vn 0.4907 -0.0074 0.8713
vn 0.2709 0.1738 0.9468
vn 0.4204 0.0468 0.9061
vn 0.3377 0.0727 0.9384
vn 0.2500 0.2908 0.9235
vn 0.0248 0.2587 0.9656
vn -0.0536 0.4493 0.8918
vn -0.2825 0.1510 0.9473
vn -0.2669 0.3570 0.8951
vn 0.1805 -0.1570 0.9710
vn 0.2865 -0.2267 0.9309
vn 0.0930 -0.4195 0.9030
vn -0.0367 -0.3741 0.9267
vn -0.2777 -0.3094 0.9095
vn -0.3926 0.0557 0.9180
vn -0.3792 0.0688 0.9227
vn -0.2374 0.2505 0.9386
vn 0.0345 0.3655 0.9302
vn -0.2883 -0.2752 0.9172
vn -0.0001 -0.0002 1.0000
vn -0.3535 -0.9354 0.0111
vn -0.9867 0.1596 -0.0296
vn -0.9279 0.3620 0.0894
vn -0.7276 -0.6823 -0.0711
vn 0.4251 -0.9044 -0.0361
vn -0.6668 -0.7450 0.0170
vn -0.5926 -0.8022 0.0728
vn 0.9980 0.0329 -0.0546
vn 0.9956 0.0893 -0.0270
vn 0.2693 -0.9620 0.0445
vn 0.1739 -0.9848 -0.0030
vn 0.9542 -0.2980 -0.0246
vn 0.9960 -0.0840 0.0298
vn 0.3011 0.9536 -0.0036
vn 0.9665 -0.2529 0.0445
vn 0.9807 -0.1782 0.0808
vn 0.6949 0.7153 -0.0736
vn -0.4918 0.8687 0.0587
vn -0.1330 0.9611 0.2422
vn 0.7182 0.6958 -0.0042
vn 0.2043 0.9689 -0.1399
vn -0.9857 0.0932 0.1402
vn -0.9865 -0.1633 0.0101
vn -0.2897 0.9566 -0.0316
vn -0.1733 0.9843 0.0338
vn -0.9792 0.1950 -0.0570
s 0
f 203//1 1//1 38//1
f 9//2 4//2 8//2
f 8//3 4//3 5//3
f 8//4 5//4 7//4
f 7//5 5//5 6//5
f 85//6 11//6 10//6
f 37//7 31//7 36//7
f 36//8 31//8 32//8
f 36//9 32//9 35//9
f 35//10 32//10 33//10
f 35//11 33//11 34//11
f 1//12 39//12 38//12
f 38//13 39//13 40//13
f 52//14 11//14 51//14
f 52//15 53//15 11//15
f 11//16 48//16 51//16
f 51//17 48//17 50//17
f 50//18 48//18 49//18
f 34//19 72//19 54//19
f 33//20 64//20 34//20
f 55//21 67//21 33//21
f 33//22 67//22 60//22
f 54//23 76//23 55//23
f 66//24 197//24 34//24
f 34//25 197//25 72//25
f 72//26 197//26 277//26
f 277//27 197//27 71//27
f 71//28 197//28 56//28
f 71//29 56//29 70//29
f 70//30 56//30 57//30
f 70//31 57//31 69//31
f 69//31 57//31 58//31
f 69//32 58//32 68//32
f 68//33 58//33 59//33
f 68//34 59//34 67//34
f 67//35 59//35 60//35
f 33//36 60//36 61//36
f 33//37 61//37 62//37
f 62//38 63//38 33//38
f 33//39 63//39 64//39
f 64//40 65//40 34//40
f 34//41 65//41 66//41
f 78//42 67//42 55//42
f 72//43 73//43 54//43
f 54//44 73//44 74//44
f 54//45 74//45 75//45
f 54//46 75//46 76//46
f 76//47 77//47 55//47
f 55//48 77//48 78//48
f 80//49 81//49 85//49
f 85//50 10//50 80//50
f 81//51 82//51 85//51
f 85//52 82//52 84//52
f 84//53 82//53 83//53
f 4//54 49//54 127//54
f 49//55 48//55 127//55
f 127//56 48//56 85//56
f 85//57 48//57 11//57
f 127//58 85//58 126//58
f 126//59 85//59 84//59
f 126//54 84//54 37//54
f 126//54 37//54 125//54
f 125//54 37//54 36//54
f 125//54 36//54 124//54
f 124//54 36//54 123//54
f 123//54 36//54 122//54
f 122//54 36//54 121//54
f 121//54 36//54 35//54
f 121//54 35//54 120//54
f 120//54 35//54 119//54
f 119//54 35//54 34//54
f 119//54 34//54 118//54
f 118//54 34//54 54//54
f 118//54 54//54 117//54
f 117//54 54//54 116//54
f 116//54 54//54 92//54
f 116//54 92//54 115//54
f 115//54 92//54 114//54
f 114//54 92//54 93//54
f 114//54 93//54 113//54
f 113//54 93//54 112//54
f 112//54 93//54 111//54
f 111//54 93//54 110//54
f 110//60 93//60 94//60
f 110//54 94//54 109//54
f 109//54 94//54 95//54
f 109//54 95//54 108//54
f 108//54 95//54 107//54
f 107//54 95//54 96//54
f 107//54 96//54 106//54
f 106//54 96//54 105//54
f 105//54 96//54 97//54
f 105//54 97//54 104//54
f 104//54 97//54 103//54
f 103//54 97//54 102//54
f 102//54 97//54 101//54
f 101//61 97//61 98//61
f 101//54 98//54 100//54
f 100//54 98//54 99//54
f 99//54 98//54 6//54
f 99//54 6//54 134//54
f 134//61 6//61 5//61
f 134//54 5//54 133//54
f 133//54 5//54 132//54
f 132//54 5//54 131//54
f 131//62 5//62 130//62
f 130//63 5//63 4//63
f 130//54 4//54 129//54
f 129//54 4//54 128//54
f 128//54 4//54 127//54
f 95//64 135//64 96//64
f 96//65 135//65 136//65
f 96//66 136//66 97//66
f 97//67 136//67 137//67
f 97//68 137//68 138//68
f 97//69 138//69 98//69
f 37//70 84//70 31//70
f 31//71 84//71 83//71
f 94//72 42//72 95//72
f 294//73 203//73 94//73
f 94//74 203//74 139//74
f 135//75 1//75 294//75
f 95//76 39//76 135//76
f 94//77 141//77 42//77
f 95//78 42//78 39//78
f 135//79 39//79 1//79
f 294//80 1//80 203//80
f 94//81 139//81 141//81
f 139//82 140//82 141//82
f 42//83 141//83 41//83
f 41//84 141//84 142//84
f 145//85 159//85 158//85
f 158//86 159//86 160//86
f 158//87 160//87 161//87
f 157//88 162//88 163//88
f 156//89 163//89 164//89
f 155//90 164//90 165//90
f 154//91 165//91 166//91
f 153//92 166//92 167//92
f 177//93 167//93 152//93
f 152//94 167//94 168//94
f 152//95 168//95 151//95
f 168//96 169//96 151//96
f 150//97 171//97 149//97
f 169//98 170//98 150//98
f 170//99 171//99 150//99
f 171//100 172//100 149//100
f 149//101 173//101 148//101
f 172//102 173//102 149//102
f 148//103 174//103 147//103
f 173//104 174//104 148//104
f 174//105 175//105 147//105
f 147//106 175//106 146//106
f 146//107 176//107 145//107
f 175//108 176//108 146//108
f 176//109 159//109 145//109
f 150//110 151//110 169//110
f 167//111 177//111 153//111
f 166//112 153//112 154//112
f 165//113 154//113 155//113
f 164//114 155//114 156//114
f 163//115 156//115 157//115
f 162//116 157//116 161//116
f 157//117 158//117 161//117
f 197//118 178//118 179//118
f 56//119 179//119 180//119
f 56//120 180//120 181//120
f 57//121 181//121 182//121
f 182//122 183//122 58//122
f 58//123 183//123 184//123
f 58//124 184//124 59//124
f 59//125 184//125 185//125
f 185//126 186//126 60//126
f 60//127 186//127 187//127
f 61//128 189//128 62//128
f 187//129 188//129 61//129
f 61//130 188//130 189//130
f 189//131 190//131 62//131
f 62//132 191//132 63//132
f 190//133 191//133 62//133
f 63//134 192//134 64//134
f 191//135 192//135 63//135
f 192//136 193//136 64//136
f 64//137 194//137 65//137
f 193//138 194//138 64//138
f 194//139 195//139 65//139
f 65//140 195//140 66//140
f 66//141 196//141 197//141
f 195//142 196//142 66//142
f 196//143 178//143 197//143
f 60//144 187//144 61//144
f 185//145 60//145 59//145
f 181//146 57//146 56//146
f 179//147 56//147 197//147
f 182//148 58//148 57//148
f 41//149 217//149 40//149
f 40//150 217//150 218//150
f 40//151 218//151 243//151
f 41//152 235//152 236//152
f 142//153 199//153 41//153
f 41//154 199//154 245//154
f 245//155 199//155 252//155
f 252//156 199//156 251//156
f 251//157 199//157 250//157
f 250//158 199//158 200//158
f 250//159 200//159 249//159
f 249//160 200//160 248//160
f 248//161 200//161 231//161
f 248//162 231//162 226//162
f 226//163 231//163 225//163
f 231//164 200//164 40//164
f 40//165 200//165 38//165
f 38//165 200//165 201//165
f 201//165 202//165 38//165
f 38//166 202//166 203//166
f 231//167 40//167 229//167
f 229//168 40//168 227//168
f 229//169 227//169 228//169
f 204//170 208//170 214//170
f 214//171 208//171 209//171
f 214//172 209//172 227//172
f 227//173 209//173 226//173
f 208//174 204//174 205//174
f 208//175 205//175 207//175
f 207//176 205//176 206//176
f 226//177 209//177 248//177
f 248//178 209//178 247//178
f 247//179 209//179 210//179
f 247//180 210//180 244//180
f 210//181 211//181 244//181
f 244//182 211//182 243//182
f 211//183 212//183 243//183
f 243//184 212//184 213//184
f 243//165 213//165 40//165
f 40//185 213//185 227//185
f 227//186 213//186 214//186
f 215//187 216//187 224//187
f 224//188 216//188 239//188
f 216//189 217//189 239//189
f 239//190 217//190 238//190
f 238//191 217//191 41//191
f 238//192 41//192 237//192
f 237//193 41//193 236//193
f 243//194 218//194 219//194
f 243//195 219//195 222//195
f 220//196 221//196 219//196
f 219//197 221//197 222//197
f 243//198 222//198 223//198
f 240//199 223//199 224//199
f 240//200 224//200 239//200
f 229//201 230//201 231//201
f 246//202 232//202 233//202
f 246//203 233//203 234//203
f 246//204 234//204 245//204
f 245//205 234//205 235//205
f 245//206 235//206 41//206
f 240//207 241//207 223//207
f 223//208 241//208 244//208
f 244//209 241//209 247//209
f 241//210 242//210 247//210
f 247//211 242//211 246//211
f 246//212 242//212 232//212
f 42//213 41//213 39//213
f 39//214 41//214 40//214
f 67//215 276//215 258//215
f 67//216 258//216 259//216
f 259//217 260//217 68//217
f 68//218 260//218 261//218
f 68//219 261//219 69//219
f 69//220 261//220 262//220
f 70//221 263//221 264//221
f 70//222 264//222 71//222
f 71//223 264//223 265//223
f 277//224 266//224 72//224
f 266//225 267//225 72//225
f 267//226 268//226 73//226
f 73//227 269//227 74//227
f 73//228 268//228 269//228
f 74//229 270//229 75//229
f 269//230 270//230 74//230
f 75//231 271//231 76//231
f 270//232 271//232 75//232
f 271//233 272//233 76//233
f 76//234 272//234 77//234
f 77//235 274//235 78//235
f 77//236 273//236 274//236
f 272//237 273//237 77//237
f 78//238 276//238 67//238
f 274//239 275//239 78//239
f 78//240 275//240 276//240
f 275//241 258//241 276//241
f 73//242 72//242 267//242
f 266//243 277//243 265//243
f 277//244 71//244 265//244
f 263//245 70//245 262//245
f 70//246 69//246 262//246
f 68//247 67//247 259//247
f 49//248 4//248 50//248
f 50//249 4//249 9//249
f 291//250 12//250 30//250
f 30//251 29//251 290//251
f 290//252 29//252 28//252
f 28//253 27//253 289//253
f 289//254 27//254 26//254
f 288//255 26//255 25//255
f 288//256 25//256 287//256
f 287//257 25//257 24//257
f 287//258 24//258 23//258
f 286//259 23//259 22//259
f 286//260 22//260 293//260
f 22//261 21//261 293//261
f 21//262 20//262 285//262
f 285//263 19//263 284//263
f 20//264 19//264 285//264
f 284//265 18//265 283//265
f 19//266 18//266 284//266
f 283//267 17//267 282//267
f 282//268 15//268 281//268
f 18//269 17//269 283//269
f 17//270 16//270 282//270
f 282//271 16//271 15//271
f 15//272 14//272 281//272
f 281//273 14//273 280//273
f 280//274 292//274 291//274
f 14//275 13//275 280//275
f 280//276 13//276 292//276
f 13//277 12//277 292//277
f 292//278 12//278 291//278
f 21//279 285//279 293//279
f 285//280 286//280 293//280
f 286//281 287//281 23//281
f 26//282 288//282 289//282
f 289//283 290//283 28//283
f 290//284 291//284 30//284
f 98//285 152//285 6//285
f 6//286 152//286 286//286
f 138//287 156//287 98//287
f 98//288 156//288 155//288
f 7//289 145//289 138//289
f 6//290 282//290 7//290
f 280//291 291//291 7//291
f 7//292 291//292 145//292
f 145//293 291//293 146//293
f 146//294 291//294 290//294
f 146//295 290//295 147//295
f 147//296 290//296 148//296
f 148//297 290//297 289//297
f 148//298 289//298 149//298
f 149//299 289//299 288//299
f 149//300 288//300 150//300
f 150//301 288//301 287//301
f 150//302 287//302 151//302
f 151//303 287//303 286//303
f 151//304 286//304 152//304
f 6//305 286//305 285//305
f 6//306 285//306 284//306
f 284//307 283//307 6//307
f 6//308 283//308 282//308
f 282//309 281//309 7//309
f 7//310 281//310 280//310
f 145//311 158//311 138//311
f 138//312 158//312 157//312
f 157//313 156//313 138//313
f 155//314 154//314 98//314
f 98//315 154//315 153//315
f 153//316 177//316 98//316
f 98//317 177//317 152//317
f 52//318 81//318 53//318
f 53//318 81//318 80//318
f 140//319 295//319 296//319
f 140//320 296//320 198//320
f 140//321 198//321 141//321
f 141//322 198//322 142//322
f 294//323 94//323 93//323
f 294//324 93//324 298//324
f 298//325 93//325 92//325
f 298//326 92//326 55//326
f 55//327 92//327 54//327
f 300//328 304//328 299//328
f 299//328 304//328 305//328
f 299//329 305//329 308//329
f 308//330 305//330 306//330
f 308//331 306//331 307//331
f 304//332 300//332 303//332
f 303//333 300//333 301//333
f 303//334 301//334 302//334
f 208//335 207//335 309//335
f 309//336 207//336 206//336
f 309//337 206//337 205//337
f 214//338 213//338 212//338
f 215//339 224//339 310//339
f 310//340 224//340 311//340
f 224//341 223//341 311//341
f 311//342 223//342 312//342
f 312//343 223//343 222//343
f 221//344 220//344 313//344
f 220//345 219//345 313//345
f 313//346 219//346 218//346
f 216//347 215//347 310//347
f 244//348 243//348 314//348
f 243//349 223//349 315//349
f 315//350 223//350 244//350
f 314//351 243//351 315//351
f 246//352 245//352 252//352
f 246//353 252//353 251//353
f 246//354 251//354 247//354
f 247//355 251//355 250//355
f 247//356 250//356 248//356
f 248//357 250//357 249//357
f 321//358 322//358 325//358
f 325//358 322//358 324//358
f 324//358 322//358 323//358
f 316//359 321//359 317//359
f 317//360 321//360 325//360
f 320//361 319//361 322//361
f 322//361 319//361 323//361
f 318//362 317//362 324//362
f 324//363 317//363 325//363
f 319//364 318//364 323//364
f 323//365 318//365 324//365
f 316//366 320//366 321//366
f 321//366 320//366 322//366
f 256//367 326//367 257//367
f 257//368 326//368 3//368
f 341//369 331//369 326//369
f 326//370 331//370 3//370
f 341//371 330//371 328//371
f 330//372 341//372 329//372
f 329//373 341//373 343//373
f 329//374 343//374 332//374
f 332//375 343//375 346//375
f 332//376 346//376 47//376
f 47//377 346//377 87//377
f 87//378 346//378 89//378
f 89//379 346//379 340//379
f 89//380 340//380 90//380
f 90//381 340//381 327//381
f 90//382 327//382 86//382
f 327//383 254//383 86//383
f 86//384 254//384 253//384
f 326//385 255//385 327//385
f 329//386 332//386 328//386
f 328//387 332//387 331//387
f 328//388 331//388 341//388
f 332//389 47//389 331//389
f 331//390 47//390 46//390
f 331//391 46//391 297//391
f 297//392 46//392 278//392
f 278//393 46//393 279//393
f 279//394 46//394 2//394
f 279//395 2//395 91//395
f 297//396 79//396 331//396
f 331//397 79//397 3//397
f 3//398 2//398 144//398
f 3//399 144//399 257//399
f 326//400 256//400 255//400
f 255//401 254//401 327//401
f 86//402 253//402 143//402
f 89//403 88//403 87//403
f 87//404 88//404 44//404
f 44//405 88//405 43//405
f 43//406 45//406 44//406
f 202//407 333//407 203//407
f 203//408 333//408 342//408
f 333//409 202//409 339//409
f 202//410 201//410 339//410
f 339//411 201//411 334//411
f 334//412 201//412 335//412
f 201//413 200//413 335//413
f 335//414 200//414 336//414
f 336//415 200//415 344//415
f 200//416 199//416 344//416
f 344//417 199//417 337//417
f 337//418 199//418 347//418
f 142//419 338//419 199//419
f 199//420 338//420 347//420
f 139//421 345//421 140//421
f 140//422 345//422 338//422
f 140//423 338//423 198//423
f 198//424 338//424 142//424
f 296//425 295//425 198//425
f 198//426 295//426 140//426
f 203//427 342//427 139//427
f 139//428 342//428 345//428
f 334//429 340//429 339//429
f 339//430 340//430 346//430
f 335//431 340//431 334//431
f 326//432 347//432 341//432
f 341//433 347//433 338//433
f 337//434 326//434 327//434
f 327//435 344//435 337//435
f 343//436 341//436 342//436
f 342//437 341//437 345//437
f 344//438 327//438 336//438
f 345//439 341//439 338//439
f 335//440 336//440 340//440
f 327//441 340//441 336//441
f 346//442 343//442 342//442
f 346//443 342//443 333//443
f 333//444 339//444 346//444
f 347//445 326//445 337//445
f 329//446 328//446 330//446
f 255//447 143//447 254//447
f 254//448 143//448 253//448
f 143//449 255//449 144//449
f 144//450 255//450 257//450
f 257//451 255//451 256//451
f 2//452 44//452 144//452
f 144//453 44//453 143//453
f 44//454 2//454 87//454
f 87//455 2//455 46//455
f 87//456 46//456 47//456
f 91//457 2//457 3//457
f 91//458 3//458 79//458
f 91//459 79//459 279//459
f 279//460 79//460 297//460
f 279//461 297//461 278//461
f 45//462 143//462 44//462
f 143//463 45//463 86//463
f 86//464 45//464 90//464
f 90//465 45//465 43//465
f 90//466 43//466 89//466
f 89//467 43//467 88//467
f 55//468 348//468 349//468
f 55//469 349//469 350//469
f 55//470 350//470 356//470
f 356//471 350//471 351//471
f 356//472 351//472 355//472
f 355//473 351//473 352//473
f 355//474 352//474 354//474
f 355//475 354//475 294//475
f 352//476 353//476 354//476
f 357//477 358//477 382//477
f 354//477 408//477 358//477
f 354//478 359//478 360//478
f 359//477 354//477 353//477
f 354//477 360//477 403//477
f 354//477 403//477 404//477
f 403//477 360//477 402//477
f 402//477 360//477 361//477
f 402//477 361//477 401//477
f 401//477 361//477 400//477
f 400//477 361//477 399//477
f 399//477 361//477 362//477
f 399//477 362//477 398//477
f 398//477 362//477 397//477
f 397//477 362//477 348//477
f 348//477 362//477 363//477
f 348//477 363//477 349//477
f 364//477 393//477 348//477
f 348//477 393//477 394//477
f 366//477 364//477 365//477
f 364//477 366//477 388//477
f 364//477 388//477 389//477
f 366//477 367//477 388//477
f 388//477 367//477 387//477
f 387//477 367//477 386//477
f 386//477 367//477 385//477
f 385//477 367//477 446//477
f 446//477 367//477 368//477
f 446//477 368//477 445//477
f 445//477 368//477 370//477
f 445//477 370//477 444//477
f 444//477 370//477 443//477
f 443//477 370//477 442//477
f 442//477 370//477 441//477
f 441//477 370//477 440//477
f 440//477 370//477 439//477
f 439//477 370//477 371//477
f 439//477 371//477 438//477
f 438//477 371//477 437//477
f 437//477 371//477 436//477
f 436//477 371//477 435//477
f 435//477 371//477 434//477
f 434//477 371//477 373//477
f 369//477 370//477 368//477
f 371//477 372//477 373//477
f 434//477 373//477 433//477
f 433//477 373//477 374//477
f 433//477 374//477 429//477
f 433//477 429//477 430//477
f 429//477 374//477 428//477
f 428//477 374//477 427//477
f 427//477 374//477 426//477
f 426//477 374//477 425//477
f 425//477 374//477 375//477
f 425//477 375//477 377//477
f 377//477 375//477 376//477
f 378//477 420//477 377//477
f 377//477 420//477 421//477
f 377//477 421//477 422//477
f 380//477 378//477 379//477
f 378//477 380//477 416//477
f 378//477 416//477 417//477
f 380//477 381//477 416//477
f 416//477 381//477 415//477
f 415//477 381//477 414//477
f 414//477 381//477 413//477
f 413//477 381//477 412//477
f 412//477 381//477 382//477
f 412//477 382//477 358//477
f 447//479 383//479 384//479
f 447//480 384//480 446//480
f 446//477 384//477 385//477
f 389//477 390//477 364//477
f 390//477 391//477 364//477
f 364//477 391//477 392//477
f 364//477 392//477 393//477
f 348//477 394//477 395//477
f 395//477 396//477 348//477
f 348//477 396//477 397//477
f 404//477 405//477 354//477
f 354//477 405//477 406//477
f 406//477 407//477 354//477
f 354//477 407//477 408//477
f 408//477 409//477 358//477
f 358//477 409//477 410//477
f 358//477 410//477 411//477
f 358//477 411//477 412//477
f 378//477 417//477 418//477
f 378//477 418//477 419//477
f 378//477 419//477 420//477
f 377//477 422//477 423//477
f 377//477 423//477 424//477
f 424//477 425//477 377//477
f 433//481 430//481 432//481
f 432//482 430//482 431//482
f 357//483 382//483 448//483
f 448//484 382//484 449//484
f 450//477 459//477 460//477
f 459//477 450//477 451//477
f 459//477 451//477 458//477
f 458//477 451//477 448//477
f 458//477 448//477 457//477
f 457//485 448//485 449//485
f 457//477 449//477 452//477
f 456//477 452//477 453//477
f 456//477 453//477 454//477
f 454//477 455//477 460//477
f 460//486 455//486 450//486
f 380//487 379//487 455//487
f 455//488 379//488 450//488
f 449//489 382//489 452//489
f 452//490 382//490 381//490
f 452//491 381//491 453//491
f 453//492 381//492 454//492
f 454//493 381//493 380//493
f 454//494 380//494 455//494
f 468//477 352//477 467//477
f 467//477 352//477 351//477
f 467//477 351//477 350//477
f 467//477 350//477 466//477
f 466//477 350//477 462//477
f 462//477 463//477 470//477
f 470//477 463//477 464//477
f 470//477 464//477 469//477
f 469//477 464//477 465//477
f 469//477 465//477 468//477
f 468//477 465//477 461//477
f 468//485 461//485 352//485
f 462//495 363//495 463//495
f 463//496 363//496 362//496
f 463//497 362//497 361//497
f 463//498 361//498 464//498
f 464//499 361//499 360//499
f 464//500 360//500 465//500
f 465//501 360//501 461//501
f 461//502 360//502 359//502
f 354//503 358//503 294//503
f 294//504 358//504 135//504
f 135//505 358//505 357//505
f 135//506 357//506 448//506
f 135//507 448//507 136//507
f 136//508 448//508 451//508
f 136//509 451//509 137//509
f 137//510 451//510 450//510
f 137//511 450//511 138//511
f 138//512 450//512 378//512
f 450//513 379//513 378//513
f 378//514 377//514 138//514
f 138//515 377//515 7//515
f 7//516 377//516 376//516
f 7//517 376//517 471//517
f 7//518 471//518 8//518
f 8//519 471//519 472//519
f 8//520 472//520 473//520
f 8//521 473//521 9//521
f 9//522 473//522 372//522
f 9//523 372//523 371//523
f 473//524 477//524 372//524
f 372//525 477//525 373//525
f 474//477 480//477 481//477
f 474//477 481//477 471//477
f 480//477 474//477 475//477
f 476//477 477//477 479//477
f 479//477 477//477 478//477
f 478//526 477//526 473//526
f 478//477 473//477 482//477
f 482//477 473//477 472//477
f 482//477 472//477 481//477
f 481//477 472//477 471//477
f 376//527 375//527 471//527
f 471//528 375//528 474//528
f 474//529 375//529 374//529
f 474//530 374//530 475//530
f 475//531 374//531 476//531
f 476//532 374//532 373//532
f 476//533 373//533 477//533
f 9//534 371//534 50//534
f 50//535 371//535 83//535
f 83//536 371//536 370//536
f 83//537 370//537 31//537
f 31//538 370//538 369//538
f 31//539 369//539 483//539
f 31//540 483//540 486//540
f 486//541 483//541 484//541
f 486//542 484//542 485//542
f 486//543 485//543 33//543
f 33//544 485//544 364//544
f 485//545 365//545 364//545
f 485//477 494//477 491//477
f 489//477 490//477 488//477
f 487//486 495//486 483//486
f 485//477 493//477 494//477
f 493//477 485//477 484//477
f 493//477 484//477 492//477
f 492//477 484//477 483//477
f 492//477 483//477 495//477
f 369//546 368//546 483//546
f 483//547 368//547 487//547
f 487//548 368//548 488//548
f 488//549 368//549 367//549
f 488//550 367//550 489//550
f 489//551 367//551 490//551
f 490//552 367//552 366//552
f 490//553 366//553 491//553
f 366//554 365//554 491//554
f 491//555 365//555 485//555
f 364//556 348//556 33//556
f 33//557 348//557 55//557
f 431//558 511//558 528//558
f 431//559 528//559 432//559
f 539//560 532//560 533//560
f 539//561 533//561 538//561
f 538//562 533//562 537//562
f 533//563 534//563 537//563
f 537//564 534//564 535//564
f 529//565 528//565 530//565
f 532//566 530//566 531//566
f 528//567 511//567 550//567
f 550//568 511//568 551//568
f 550//569 531//569 530//569
f 528//570 550//570 530//570
f 539//571 530//571 532//571
f 551//572 511//572 510//572
f 552//573 510//573 509//573
f 552//574 509//574 553//574
f 509//575 508//575 553//575
f 554//576 508//576 507//576
f 554//577 507//577 555//577
f 555//578 507//578 506//578
f 556//579 505//579 504//579
f 556//580 504//580 503//580
f 556//581 503//581 557//581
f 557//582 503//582 502//582
f 560//583 500//583 561//583
f 561//584 500//584 499//584
f 561//585 499//585 562//585
f 563//586 562//586 497//586
f 497//587 562//587 498//587
f 564//588 497//588 496//588
f 496//589 527//589 564//589
f 565//590 564//590 527//590
f 564//591 563//591 497//591
f 560//592 559//592 500//592
f 502//593 559//593 558//593
f 502//594 558//594 557//594
f 505//595 556//595 555//595
f 505//596 555//596 506//596
f 508//597 554//597 553//597
f 510//598 552//598 551//598
f 559//599 502//599 501//599
f 501//600 500//600 559//600
f 499//601 498//601 562//601
f 513//602 512//602 579//602
f 513//603 579//603 578//603
f 578//604 577//604 513//604
f 513//605 577//605 514//605
f 514//606 577//606 515//606
f 575//607 574//607 517//607
f 517//608 574//608 518//608
f 519//609 574//609 573//609
f 519//610 573//610 520//610
f 522//611 571//611 570//611
f 522//612 570//612 523//612
f 523//613 570//613 569//613
f 569//614 568//614 524//614
f 524//615 568//615 525//615
f 525//616 567//616 526//616
f 577//617 576//617 515//617
f 515//618 576//618 575//618
f 573//619 572//619 520//619
f 568//620 567//620 525//620
f 526//621 567//621 566//621
f 527//622 526//622 566//622
f 569//623 524//623 523//623
f 571//624 522//624 521//624
f 521//625 572//625 571//625
f 521//626 520//626 572//626
f 574//627 519//627 518//627
f 575//628 517//628 516//628
f 516//629 515//629 575//629
f 565//630 527//630 566//630
f 591//631 592//631 580//631
f 591//632 580//632 512//632
f 592//633 593//633 594//633
f 580//634 579//634 512//634
f 581//635 594//635 582//635
f 592//636 594//636 581//636
f 581//637 580//637 592//637
f 594//638 595//638 583//638
f 583//639 595//639 584//639
f 596//640 585//640 595//640
f 597//641 585//641 596//641
f 584//642 595//642 585//642
f 583//643 582//643 594//643
f 591//644 512//644 447//644
f 447//645 512//645 383//645
f 599//646 454//646 604//646
f 604//647 454//647 460//647
f 604//648 460//648 603//648
f 603//649 460//649 459//649
f 603//650 459//650 458//650
f 603//651 458//651 602//651
f 602//652 458//652 457//652
f 602//653 457//653 601//653
f 601//654 457//654 452//654
f 601//655 452//655 600//655
f 600//656 452//656 456//656
f 600//657 456//657 612//657
f 612//658 456//658 599//658
f 599//659 456//659 454//659
f 606//660 611//660 605//660
f 611//661 606//661 612//661
f 612//662 606//662 607//662
f 613//663 607//663 608//663
f 608//664 609//664 613//664
f 602//665 613//665 603//665
f 613//666 609//666 603//666
f 609//667 610//667 603//667
f 603//668 610//668 604//668
f 610//669 611//669 604//669
f 604//670 611//670 599//670
f 610//671 605//671 611//671
f 599//672 611//672 612//672
f 600//673 612//673 607//673
f 600//674 607//674 601//674
f 601//675 607//675 613//675
f 601//676 613//676 602//676
f 607//677 606//677 614//677
f 615//678 608//678 607//678
f 608//679 616//679 609//679
f 617//680 610//680 609//680
f 618//681 605//681 610//681
f 606//682 605//682 619//682
f 631//477 620//477 621//477
f 631//477 621//477 628//477
f 628//477 621//477 623//477
f 628//477 623//477 627//477
f 627//477 623//477 625//477
f 627//477 625//477 626//477
f 623//477 621//477 622//477
f 625//477 623//477 624//477
f 628//477 630//477 631//477
f 607//683 614//683 622//683
f 622//684 614//684 623//684
f 623//685 614//685 606//685
f 623//686 606//686 624//686
f 606//687 619//687 624//687
f 624//688 619//688 625//688
f 625//689 619//689 605//689
f 625//690 605//690 626//690
f 605//691 618//691 626//691
f 626//692 618//692 627//692
f 627//693 618//693 628//693
f 628//694 618//694 610//694
f 628//695 610//695 629//695
f 610//696 617//696 629//696
f 629//697 617//697 628//697
f 628//698 617//698 630//698
f 630//699 617//699 609//699
f 609//700 616//700 630//700
f 630//701 616//701 631//701
f 631//702 616//702 608//702
f 631//703 608//703 620//703
f 608//704 615//704 620//704
f 620//705 615//705 621//705
f 621//706 615//706 607//706
f 621//707 607//707 622//707
f 632//708 462//708 470//708
f 632//709 470//709 637//709
f 637//710 470//710 469//710
f 637//711 469//711 636//711
f 636//712 469//712 468//712
f 636//651 468//651 635//651
f 635//713 468//713 467//713
f 635//714 467//714 634//714
f 634//715 467//715 633//715
f 633//716 467//716 466//716
f 633//717 466//717 632//717
f 632//718 466//718 462//718
f 639//719 644//719 638//719
f 645//720 640//720 641//720
f 641//721 642//721 645//721
f 635//665 645//665 636//665
f 645//722 642//722 636//722
f 642//667 643//667 636//667
f 636//723 643//723 637//723
f 643//669 644//669 637//669
f 637//670 644//670 632//670
f 643//724 638//724 644//724
f 632//725 644//725 633//725
f 633//726 644//726 639//726
f 633//727 639//727 640//727
f 633//728 640//728 634//728
f 634//675 640//675 645//675
f 634//729 645//729 635//729
f 640//730 639//730 646//730
f 647//678 641//678 640//678
f 641//679 648//679 642//679
f 649//680 643//680 642//680
f 650//731 638//731 643//731
f 638//732 651//732 639//732
f 652//477 653//477 663//477
f 663//477 653//477 661//477
f 661//477 653//477 655//477
f 661//477 655//477 659//477
f 659//477 655//477 657//477
f 659//477 657//477 658//477
f 655//477 653//477 654//477
f 657//477 655//477 656//477
f 661//477 659//477 660//477
f 663//477 661//477 662//477
f 640//733 646//733 654//733
f 654//734 646//734 655//734
f 655//735 646//735 639//735
f 655//736 639//736 656//736
f 639//737 651//737 656//737
f 656//738 651//738 657//738
f 657//739 651//739 638//739
f 657//740 638//740 658//740
f 638//741 650//741 658//741
f 658//742 650//742 659//742
f 659//743 650//743 660//743
f 660//744 650//744 643//744
f 643//745 649//745 660//745
f 660//746 649//746 661//746
f 661//747 649//747 642//747
f 661//748 642//748 662//748
f 662//749 642//749 663//749
f 642//750 648//750 663//750
f 663//751 648//751 641//751
f 663//752 641//752 652//752
f 641//753 647//753 652//753
f 652//754 647//754 653//754
f 653//755 647//755 640//755
f 653//756 640//756 654//756
f 664//757 492//757 495//757
f 664//709 495//709 669//709
f 669//758 495//758 487//758
f 669//759 487//759 668//759
f 668//760 487//760 488//760
f 668//761 488//761 490//761
f 668//762 490//762 667//762
f 667//763 490//763 491//763
f 667//764 491//764 666//764
f 666//765 491//765 494//765
f 666//766 494//766 665//766
f 665//767 494//767 493//767
f 665//717 493//717 664//717
f 664//768 493//768 492//768
f 670//769 676//769 675//769
f 677//770 671//770 672//770
f 672//771 673//771 677//771
f 667//772 677//772 668//772
f 677//722 673//722 668//722
f 673//773 674//773 668//773
f 668//774 674//774 669//774
f 674//775 675//775 676//775
f 674//776 676//776 669//776
f 669//670 676//670 664//670
f 664//725 676//725 665//725
f 665//726 676//726 670//726
f 665//777 670//777 671//777
f 665//728 671//728 666//728
f 666//675 671//675 677//675
f 666//729 677//729 667//729
f 671//778 670//778 678//778
f 679//779 672//779 671//779
f 673//780 672//780 680//780
f 681//781 674//781 673//781
f 675//782 674//782 682//782
f 675//783 683//783 670//783
f 695//477 684//477 685//477
f 695//477 685//477 693//477
f 693//477 685//477 687//477
f 693//477 687//477 691//477
f 691//477 687//477 689//477
f 691//477 689//477 690//477
f 687//477 685//477 686//477
f 689//477 687//477 688//477
f 693//477 691//477 692//477
f 695//477 693//477 694//477
f 671//784 678//784 686//784
f 686//785 678//785 687//785
f 687//786 678//786 670//786
f 687//787 670//787 688//787
f 670//788 683//788 688//788
f 688//789 683//789 689//789
f 689//790 683//790 690//790
f 690//791 683//791 675//791
f 675//792 682//792 690//792
f 690//793 682//793 691//793
f 691//794 682//794 692//794
f 692//795 682//795 674//795
f 674//796 681//796 692//796
f 692//797 681//797 693//797
f 693//798 681//798 673//798
f 693//799 673//799 694//799
f 673//800 680//800 694//800
f 694//801 680//801 695//801
f 695//802 680//802 672//802
f 695//803 672//803 684//803
f 672//804 679//804 684//804
f 684//805 679//805 685//805
f 685//806 679//806 671//806
f 685//756 671//756 686//756
f 696//757 478//757 482//757
f 696//709 482//709 701//709
f 701//710 482//710 481//710
f 701//711 481//711 700//711
f 700//712 481//712 480//712
f 700//651 480//651 699//651
f 699//807 480//807 475//807
f 699//808 475//808 698//808
f 698//809 475//809 476//809
f 698//810 476//810 697//810
f 697//811 476//811 479//811
f 697//812 479//812 709//812
f 709//813 479//813 696//813
f 696//768 479//768 478//768
f 708//814 702//814 709//814
f 709//815 702//815 703//815
f 709//816 703//816 704//816
f 710//770 704//770 705//770
f 705//771 706//771 710//771
f 699//772 710//772 700//772
f 710//817 706//817 700//817
f 706//773 707//773 700//773
f 700//774 707//774 701//774
f 707//818 708//818 701//818
f 701//819 708//819 696//819
f 696//820 708//820 709//820
f 697//673 709//673 704//673
f 697//674 704//674 698//674
f 698//675 704//675 710//675
f 698//729 710//729 699//729
f 703//821 711//821 704//821
f 712//779 705//779 704//779
f 706//780 705//780 713//780
f 714//781 707//781 706//781
f 708//822 707//822 715//822
f 716//823 703//823 702//823
f 728//477 717//477 718//477
f 728//477 718//477 725//477
f 725//477 718//477 720//477
f 725//477 720//477 724//477
f 724//477 720//477 722//477
f 724//477 722//477 723//477
f 720//477 718//477 719//477
f 722//477 720//477 721//477
f 725//477 727//477 728//477
f 704//824 711//824 719//824
f 719//825 711//825 720//825
f 720//826 711//826 703//826
f 720//827 703//827 721//827
f 703//828 716//828 721//828
f 721//829 716//829 722//829
f 722//830 716//830 723//830
f 723//831 716//831 702//831
f 723//832 702//832 708//832
f 708//833 715//833 723//833
f 723//793 715//793 724//793
f 724//834 715//834 725//834
f 725//835 715//835 707//835
f 725//836 707//836 726//836
f 707//837 714//837 726//837
f 726//838 714//838 725//838
f 725//839 714//839 727//839
f 727//840 714//840 706//840
f 706//841 713//841 727//841
f 727//842 713//842 728//842
f 728//802 713//802 705//802
f 728//803 705//803 717//803
f 705//804 712//804 717//804
f 717//705 712//705 718//705
f 718//843 712//843 704//843
f 718//844 704//844 719//844
f 742//477 738//477 737//477
f 742//477 737//477 748//477
f 748//477 737//477 736//477
f 748//477 736//477 735//477
f 748//477 735//477 747//477
f 747//477 735//477 734//477
f 747//477 734//477 733//477
f 747//477 733//477 746//477
f 746//477 733//477 732//477
f 746//477 732//477 745//477
f 745//477 732//477 731//477
f 745//477 731//477 730//477
f 745//477 730//477 729//477
f 745//477 729//477 744//477
f 744//477 729//477 741//477
f 744//477 741//477 743//477
f 743//477 741//477 740//477
f 743//477 740//477 739//477
f 743//477 739//477 742//477
f 742//477 739//477 738//477
f 749//845 742//845 756//845
f 756//846 742//846 748//846
f 756//847 748//847 755//847
f 755//848 748//848 747//848
f 755//849 747//849 754//849
f 754//850 747//850 746//850
f 754//851 746//851 753//851
f 753//852 746//852 745//852
f 753//853 745//853 752//853
f 752//854 745//854 751//854
f 751//855 745//855 744//855
f 751//856 744//856 750//856
f 750//857 744//857 743//857
f 750//858 743//858 749//858
f 749//859 743//859 742//859
f 756//860 767//860 749//860
f 749//861 767//861 768//861
f 760//862 761//862 753//862
f 760//863 753//863 759//863
f 761//864 754//864 753//864
f 759//865 753//865 758//865
f 758//866 753//866 757//866
f 757//867 753//867 752//867
f 773//868 757//868 772//868
f 752//869 751//869 772//869
f 772//870 750//870 771//870
f 772//871 751//871 750//871
f 761//872 762//872 763//872
f 761//873 763//873 754//873
f 754//874 763//874 755//874
f 755//875 763//875 764//875
f 765//876 766//876 756//876
f 765//877 756//877 764//877
f 764//878 756//878 755//878
f 756//879 766//879 767//879
f 749//880 769//880 750//880
f 750//881 769//881 770//881
f 750//882 770//882 771//882
f 772//883 757//883 752//883
f 768//884 769//884 749//884
f 774//54 775//54 787//54
f 787//54 775//54 776//54
f 787//885 776//885 785//885
f 787//886 785//886 786//886
f 785//54 776//54 784//54
f 784//54 776//54 778//54
f 784//54 778//54 780//54
f 780//54 778//54 779//54
f 776//54 777//54 778//54
f 784//54 780//54 782//54
f 782//54 780//54 781//54
f 784//54 782//54 783//54
f 760//887 759//887 780//887
f 780//888 759//888 758//888
f 780//889 758//889 781//889
f 781//890 758//890 757//890
f 757//891 773//891 781//891
f 781//892 773//892 782//892
f 782//893 773//893 783//893
f 783//894 773//894 772//894
f 772//895 784//895 783//895
f 772//896 771//896 784//896
f 784//897 771//897 785//897
f 785//898 771//898 770//898
f 785//899 770//899 769//899
f 786//900 785//900 769//900
f 769//901 768//901 786//901
f 786//902 768//902 787//902
f 787//903 768//903 767//903
f 787//904 767//904 774//904
f 774//905 767//905 766//905
f 766//906 775//906 774//906
f 766//907 765//907 775//907
f 775//908 765//908 776//908
f 776//909 765//909 764//909
f 776//910 764//910 777//910
f 777//911 764//911 763//911
f 763//912 762//912 777//912
f 777//913 762//913 778//913
f 778//914 762//914 761//914
f 778//915 761//915 779//915
f 779//916 761//916 760//916
f 760//917 780//917 779//917
f 801//477 796//477 795//477
f 801//477 795//477 806//477
f 806//477 795//477 794//477
f 806//477 794//477 805//477
f 805//477 794//477 793//477
f 805//477 793//477 792//477
f 805//477 792//477 791//477
f 805//477 791//477 804//477
f 804//477 791//477 790//477
f 804//477 790//477 803//477
f 803//477 790//477 789//477
f 803//477 789//477 788//477
f 803//477 788//477 800//477
f 803//477 800//477 802//477
f 802//477 800//477 799//477
f 802//477 799//477 798//477
f 802//477 798//477 797//477
f 802//477 797//477 801//477
f 801//477 797//477 796//477
f 807//918 801//918 814//918
f 814//919 801//919 806//919
f 814//920 806//920 813//920
f 813//921 806//921 805//921
f 813//849 805//849 812//849
f 812//850 805//850 804//850
f 812//851 804//851 811//851
f 811//852 804//852 803//852
f 811//853 803//853 810//853
f 810//854 803//854 809//854
f 809//922 803//922 802//922
f 809//923 802//923 808//923
f 808//924 802//924 807//924
f 807//925 802//925 801//925
f 814//860 824//860 807//860
f 807//861 824//861 825//861
f 818//926 811//926 817//926
f 818//927 812//927 811//927
f 817//865 811//865 816//865
f 816//866 811//866 815//866
f 815//867 811//867 810//867
f 830//928 815//928 829//928
f 810//929 809//929 829//929
f 828//930 829//930 808//930
f 829//931 809//931 808//931
f 819//932 820//932 818//932
f 818//933 820//933 812//933
f 812//934 820//934 813//934
f 813//935 820//935 821//935
f 822//876 823//876 814//876
f 822//877 814//877 821//877
f 821//936 814//936 813//936
f 814//879 823//879 824//879
f 807//880 826//880 808//880
f 808//937 826//937 827//937
f 808//938 827//938 828//938
f 829//939 815//939 810//939
f 825//884 826//884 807//884
f 831//54 832//54 843//54
f 843//940 832//940 841//940
f 843//54 841//54 842//54
f 841//54 832//54 840//54
f 840//54 832//54 834//54
f 840//54 834//54 836//54
f 836//54 834//54 835//54
f 834//54 832//54 833//54
f 840//54 836//54 838//54
f 838//54 836//54 837//54
f 840//54 838//54 839//54
f 818//941 817//941 836//941
f 836//942 817//942 816//942
f 836//943 816//943 837//943
f 837//944 816//944 815//944
f 815//891 830//891 837//891
f 837//945 830//945 838//945
f 838//946 830//946 829//946
f 839//947 829//947 828//947
f 839//948 838//948 829//948
f 839//949 828//949 840//949
f 840//950 828//950 827//950
f 840//951 827//951 841//951
f 841//952 827//952 826//952
f 842//953 841//953 826//953
f 826//901 825//901 842//901
f 842//954 825//954 843//954
f 843//955 825//955 824//955
f 843//956 824//956 831//956
f 831//957 824//957 823//957
f 823//958 822//958 831//958
f 831//959 822//959 832//959
f 832//960 822//960 821//960
f 832//961 821//961 833//961
f 833//962 821//962 820//962
f 820//963 834//963 833//963
f 834//964 820//964 819//964
f 834//965 819//965 835//965
f 835//966 819//966 818//966
f 818//967 836//967 835//967
f 857//477 853//477 852//477
f 857//477 852//477 862//477
f 862//477 852//477 851//477
f 862//477 851//477 850//477
f 862//477 850//477 861//477
f 861//477 850//477 849//477
f 861//477 849//477 848//477
f 861//477 848//477 860//477
f 860//477 848//477 847//477
f 860//477 847//477 859//477
f 859//477 847//477 846//477
f 859//477 846//477 845//477
f 859//477 845//477 844//477
f 859//477 844//477 858//477
f 858//477 844//477 856//477
f 858//477 856//477 855//477
f 858//477 855//477 854//477
f 858//477 854//477 857//477
f 857//477 854//477 853//477
f 863//918 857//918 870//918
f 870//968 857//968 862//968
f 870//920 862//920 869//920
f 869//969 862//969 861//969
f 869//849 861//849 868//849
f 868//850 861//850 860//850
f 868//851 860//851 867//851
f 867//852 860//852 859//852
f 867//853 859//853 866//853
f 866//854 859//854 865//854
f 865//922 859//922 858//922
f 865//970 858//970 864//970
f 864//971 858//971 863//971
f 863//972 858//972 857//972
f 870//973 880//973 863//973
f 873//974 874//974 867//974
f 874//975 868//975 867//975
f 873//976 867//976 872//976
f 872//977 867//977 871//977
f 871//867 867//867 866//867
f 885//928 871//928 884//928
f 866//978 865//978 884//978
f 883//979 884//979 864//979
f 884//980 865//980 864//980
f 875//981 876//981 874//981
f 874//982 876//982 868//982
f 868//934 876//934 869//934
f 869//983 876//983 877//983
f 878//984 879//984 870//984
f 878//877 870//877 877//877
f 877//936 870//936 869//936
f 870//985 879//985 880//985
f 863//986 881//986 864//986
f 864//987 881//987 882//987
f 864//988 882//988 883//988
f 884//939 871//939 866//939
f 880//989 881//989 863//989
f 886//54 887//54 898//54
f 898//940 887//940 896//940
f 898//54 896//54 897//54
f 896//54 887//54 895//54
f 895//54 887//54 889//54
f 895//54 889//54 891//54
f 891//54 889//54 890//54
f 889//54 887//54 888//54
f 895//54 891//54 893//54
f 893//54 891//54 892//54
f 895//54 893//54 894//54
f 891//990 873//990 872//990
f 891//991 872//991 892//991
f 892//992 872//992 871//992
f 871//891 885//891 892//891
f 892//945 885//945 893//945
f 893//993 885//993 884//993
f 894//994 884//994 883//994
f 894//948 893//948 884//948
f 894//995 883//995 895//995
f 895//950 883//950 882//950
f 895//951 882//951 896//951
f 896//996 882//996 881//996
f 897//997 896//997 881//997
f 897//998 881//998 898//998
f 898//999 881//999 880//999
f 898//1000 880//1000 886//1000
f 886//1001 880//1001 879//1001
f 879//958 878//958 886//958
f 886//959 878//959 887//959
f 887//1002 878//1002 877//1002
f 887//961 877//961 888//961
f 888//1003 877//1003 876//1003
f 876//963 889//963 888//963
f 889//964 876//964 875//964
f 889//965 875//965 890//965
f 890//1004 875//1004 874//1004
f 890//1005 874//1005 873//1005
f 873//1006 891//1006 890//1006
f 912//477 908//477 907//477
f 912//477 907//477 917//477
f 917//477 907//477 906//477
f 917//477 906//477 905//477
f 917//477 905//477 916//477
f 916//477 905//477 904//477
f 916//477 904//477 903//477
f 916//477 903//477 915//477
f 915//477 903//477 902//477
f 915//477 902//477 914//477
f 914//477 902//477 901//477
f 914//477 901//477 900//477
f 914//477 900//477 899//477
f 914//477 899//477 913//477
f 913//477 899//477 911//477
f 913//477 911//477 910//477
f 913//477 910//477 909//477
f 913//477 909//477 912//477
f 912//477 909//477 908//477
f 918//918 912//918 925//918
f 925//1007 912//1007 917//1007
f 925//1008 917//1008 924//1008
f 924//1009 917//1009 916//1009
f 924//1010 916//1010 923//1010
f 923//1011 916//1011 915//1011
f 923//1012 915//1012 922//1012
f 922//852 915//852 914//852
f 922//853 914//853 921//853
f 921//854 914//854 920//854
f 920//922 914//922 913//922
f 920//1013 913//1013 919//1013
f 919//971 913//971 918//971
f 918//972 913//972 912//972
f 925//860 935//860 918//860
f 918//1014 935//1014 936//1014
f 933//1015 925//1015 924//1015
f 924//1016 923//1016 930//1016
f 929//1017 930//1017 922//1017
f 929//1018 922//1018 928//1018
f 930//1019 923//1019 922//1019
f 927//1020 928//1020 922//1020
f 927//1021 922//1021 926//1021
f 926//867 922//867 921//867
f 941//1022 926//1022 940//1022
f 921//1023 920//1023 940//1023
f 940//1024 919//1024 939//1024
f 940//1025 920//1025 919//1025
f 930//1026 931//1026 932//1026
f 930//1027 932//1027 924//1027
f 924//1028 932//1028 933//1028
f 934//1029 925//1029 933//1029
f 925//1030 934//1030 935//1030
f 918//1031 937//1031 919//1031
f 919//1032 937//1032 938//1032
f 919//1033 938//1033 939//1033
f 940//1034 926//1034 921//1034
f 936//1035 937//1035 918//1035
f 942//54 943//54 954//54
f 954//1036 943//1036 952//1036
f 954//54 952//54 953//54
f 952//54 943//54 951//54
f 951//54 943//54 945//54
f 951//54 945//54 947//54
f 947//54 945//54 946//54
f 945//54 943//54 944//54
f 951//54 947//54 949//54
f 949//54 947//54 948//54
f 951//54 949//54 950//54
f 929//1037 928//1037 947//1037
f 947//1038 928//1038 948//1038
f 948//1039 928//1039 927//1039
f 948//1040 927//1040 926//1040
f 926//891 941//891 948//891
f 948//1041 941//1041 949//1041
f 949//1042 941//1042 940//1042
f 950//1043 949//1043 940//1043
f 940//1044 939//1044 950//1044
f 950//1045 939//1045 951//1045
f 951//1046 939//1046 938//1046
f 951//1047 938//1047 952//1047
f 952//1048 938//1048 937//1048
f 953//1049 952//1049 937//1049
f 937//1050 936//1050 953//1050
f 953//902 936//902 954//902
f 954//1051 936//1051 935//1051
f 954//1052 935//1052 942//1052
f 942//1053 935//1053 934//1053
f 942//1054 934//1054 943//1054
f 943//1055 934//1055 933//1055
f 943//1056 933//1056 944//1056
f 944//1057 933//1057 932//1057
f 932//1058 945//1058 944//1058
f 932//1059 931//1059 945//1059
f 945//1060 931//1060 946//1060
f 946//1061 931//1061 930//1061
f 946//1062 930//1062 929//1062
f 929//917 947//917 946//917
l 543 544
l 548 549
l 548 587
l 549 586
l 544 545
l 545 546
l 586 598
l 597 598
l 546 547
l 587 588
l 536 540
l 547 590
l 588 589
l 540 541
l 541 542
l 589 590
l 542 543
l 535 536
