# Blender 4.2.22 LTS
# www.blender.org
o body_collision
v -0.439462 0.000013 0.022201
v 0.452199 0.038968 0.041130
v 0.365418 -0.079768 -0.094480
v 0.159942 -0.106570 0.080558
v -0.238149 0.108099 -0.056805
v -0.166120 0.101850 0.085116
v 0.419288 -0.085193 0.064754
v -0.358704 -0.095883 -0.051880
v 0.366140 0.083651 -0.094269
v -0.416359 -0.066191 0.072284
v -0.432597 0.090177 0.042908
v 0.203115 -0.122224 0.001505
v 0.450825 -0.062455 0.030206
v 0.374164 0.058800 0.083974
v 0.203115 0.122176 0.000807
v -0.316907 0.048683 -0.095120
v -0.253643 0.000000 0.102311
v -0.191421 -0.126016 0.050584
v -0.416170 -0.089138 -0.046244
v -0.191758 0.125876 0.050807
v -0.431346 -0.030267 0.066562
v 0.242060 -0.118187 0.030462
v -0.126851 -0.116015 -0.044480
v 0.428697 -0.089221 0.024233
v 0.447145 -0.060487 0.063041
v 0.385068 0.036848 -0.100947
v 0.374939 -0.059180 0.083786
v 0.428568 0.089313 0.024202
v 0.185122 0.112688 -0.051502
v -0.212028 0.090064 -0.073774
v -0.316772 -0.048346 -0.095320
v -0.416318 0.089022 -0.046266
v -0.166100 -0.100783 0.085845
v 0.127876 0.095486 0.088713
v -0.416518 0.066385 0.072292
v -0.432783 -0.090022 0.042106
v -0.217068 -0.119540 -0.029589
v -0.379792 0.092615 0.064527
v -0.217038 0.119397 -0.030251
v -0.438790 0.038843 0.045489
v 0.244942 -0.107525 0.068347
v -0.119044 -0.128193 0.062608
v 0.185081 -0.113321 -0.050266
v 0.396061 -0.078783 -0.063531
v 0.399275 -0.093714 0.050939
v 0.241814 -0.115772 -0.033248
v 0.452176 -0.038945 0.041582
v 0.447124 0.061394 0.062892
v 0.447332 -0.072551 0.048602
v 0.439111 0.055018 0.002950
v 0.323028 0.066533 -0.102001
v 0.243643 -0.094169 0.085763
v -0.005982 -0.000011 0.102966
v 0.428505 -0.000034 0.070270
v 0.393488 0.092270 -0.036041
v 0.241811 0.115507 -0.034094
v 0.029047 0.113551 -0.050020
v -0.359406 0.089216 -0.068390
v 0.323150 -0.064852 -0.102001
v -0.358371 -0.088345 -0.069412
v -0.417510 -0.000008 -0.062629
v -0.438474 0.069216 0.016896
v -0.297548 -0.069549 0.086929
v -0.046104 0.090346 0.090216
v -0.118975 0.128105 0.062716
v 0.244942 0.107525 0.068347
v -0.297281 0.069874 0.086686
v -0.332230 -0.038283 0.088286
v -0.380395 -0.091521 0.066314
v -0.438791 -0.068671 0.018113
v -0.410659 -0.094754 0.000017
v -0.410589 0.094758 -0.000021
v -0.057343 -0.127655 0.049800
v 0.192787 -0.115271 0.060996
v -0.238074 -0.108259 -0.056543
v 0.109084 -0.119137 -0.031734
v 0.393442 -0.092318 -0.036077
v 0.433304 -0.068196 -0.004290
v 0.385384 -0.036975 -0.100870
v 0.339297 -0.090911 -0.080171
v 0.451723 -0.000010 0.034743
v 0.448942 -0.000054 0.059584
v 0.451144 0.059836 0.030850
v 0.408633 0.060504 -0.059643
v -0.071787 0.011422 -0.102001
v 0.128303 -0.094909 0.088898
v 0.333727 -0.000153 0.088963
v 0.230694 0.065410 0.090381
v 0.232223 -0.063074 0.090397
v 0.109093 0.118831 -0.033515
v 0.242060 0.118187 0.030462
v -0.126806 0.114491 -0.048098
v -0.411638 0.063003 -0.068194
v -0.358761 0.095920 -0.051521
v -0.043456 -0.048750 -0.102001
v 0.373752 0.033896 -0.102001
v -0.211951 -0.089417 -0.074225
v -0.412106 -0.063066 -0.068123
v -0.213080 -0.075242 0.090494
v -0.213010 0.075164 0.090491
v 0.159915 0.107564 0.079303
v -0.240238 0.111283 0.070991
v -0.057278 0.127626 0.049650
v 0.419890 0.085046 0.064591
v -0.331847 0.038707 0.088335
v -0.240338 -0.110887 0.071890
v -0.438830 -0.038831 0.045433
v -0.243891 -0.117918 -0.001660
v -0.243885 0.117936 -0.001829
v 0.029140 -0.113645 -0.049792
v -0.046957 -0.119809 -0.028150
v 0.372014 -0.038513 -0.102001
v 0.408605 -0.061054 -0.059632
v 0.448965 0.069425 0.048501
v 0.439162 -0.055229 0.002890
v 0.396298 0.078804 -0.063573
v 0.400530 -0.000013 -0.076011
v 0.433449 0.067788 -0.004333
v -0.283310 0.012816 -0.096662
v -0.040929 0.048781 -0.102001
v -0.046109 -0.090317 0.090206
v 0.243210 0.093767 0.086450
v 0.192823 0.115137 0.061571
v -0.348017 -0.012140 -0.092739
v -0.060559 -0.023626 -0.102001
v 0.372629 0.038255 -0.102001
v -0.094760 -0.098539 -0.068510
v 0.003893 0.105799 0.081579
v -0.046945 0.120036 -0.026595
v 0.399369 0.093727 0.051451
v 0.373299 -0.031752 -0.102001
v -0.056320 0.031372 -0.102001
vn 0.1607 -0.2008 0.9664
vn 0.3428 -0.6960 0.6309
vn 0.7274 -0.2306 0.6463
vn -0.0241 0.5923 -0.8054
vn -0.0591 0.8338 -0.5489
vn 0.3034 0.6505 -0.6963
vn -0.0241 0.5922 -0.8054
vn 0.3034 0.6504 -0.6963
vn -0.1014 0.2616 -0.9598
vn -0.4757 0.2811 0.8335
vn -0.7222 -0.0398 0.6905
vn -0.4389 -0.3030 0.8459
vn -0.6826 -0.6772 0.2746
vn -0.4390 -0.3030 0.8459
vn -0.7223 -0.0398 0.6905
vn -0.0637 -0.9767 -0.2050
vn -0.6192 -0.6747 -0.4016
vn -0.1300 -0.9455 -0.2987
vn -0.1705 0.7565 0.6313
vn -0.0825 0.9819 0.1705
vn -0.6843 0.6688 0.2906
vn -0.1705 0.7565 0.6314
vn -0.4757 0.2812 0.8334
vn -0.9498 0.0672 0.3055
vn -0.4758 0.2811 0.8334
vn -0.6842 0.6689 0.2906
vn -0.4758 0.2812 0.8334
vn -0.0113 -0.9238 0.3828
vn -0.0827 -0.9821 0.1689
vn -0.0636 -0.9767 -0.2050
vn -0.0112 -0.9238 0.3828
vn 0.0351 -0.7357 0.6764
vn -0.0327 -0.4665 0.8839
vn 0.1728 -0.9653 0.1958
vn 0.5205 -0.8489 -0.0921
vn 0.3427 -0.6960 0.6310
vn 0.1727 -0.9653 0.1958
vn 0.1124 -0.9875 0.1103
vn 0.1038 -0.8881 0.4478
vn 0.1124 -0.9875 0.1104
vn 0.1727 -0.9653 0.1959
vn 0.3427 -0.6960 0.6309
vn 0.1038 -0.8881 0.4479
vn 0.0963 -0.9762 -0.1944
vn 0.0962 -0.9762 -0.1944
vn 0.0504 -0.9981 -0.0358
vn 0.9979 -0.0305 0.0570
vn 0.7274 -0.2305 0.6463
vn 0.9422 -0.2772 -0.1883
vn 0.8111 -0.5543 0.1867
vn 0.5205 -0.8489 -0.0922
vn 0.9422 -0.2773 -0.1883
vn 0.8111 -0.5544 0.1867
vn 0.0052 0.2352 -0.9719
vn 0.3035 0.6504 -0.6963
vn 0.3035 0.6505 -0.6963
vn 0.5294 0.1252 -0.8391
vn 0.0746 -0.4982 0.8639
vn 0.3428 -0.6960 0.6310
vn 0.0746 -0.4982 0.8638
vn 0.1038 -0.8880 0.4479
vn 0.3039 0.0008 0.9527
vn 0.1607 -0.2007 0.9664
vn 0.1610 0.1985 0.9668
vn 0.3038 0.0008 0.9527
vn 0.7170 0.2500 0.6507
vn 0.0954 0.9754 -0.1989
vn 0.0154 0.9140 -0.4054
vn 0.0955 0.9754 -0.1989
vn 0.3610 0.9085 -0.2105
vn -0.0001 0.8948 -0.4465
vn 0.3035 0.6505 -0.6962
vn -0.1582 0.7095 -0.6867
vn -0.1573 -0.6946 -0.7020
vn -0.9729 0.2000 -0.1161
vn -0.6245 0.6682 -0.4044
vn -0.9729 0.1999 -0.1160
vn -0.9498 0.0672 0.3054
vn -0.9729 0.1999 -0.1161
vn -0.9973 0.0010 -0.0729
vn -0.0026 0.2595 0.9657
vn 0.0124 0.3770 0.9261
vn -0.0362 0.4811 0.8759
vn -0.0026 0.2595 0.9658
vn 0.0066 0.0001 1.0000
vn 0.0123 0.3769 0.9262
vn -0.0026 0.2594 0.9658
vn -0.0649 0.0006 0.9979
vn -0.0119 0.9241 0.3819
vn -0.0626 0.9760 -0.2087
vn -0.0825 0.9819 0.1704
vn -0.0974 0.3177 0.9432
vn -0.1486 -0.0896 0.9848
vn -0.4757 0.2811 0.8334
vn -0.0963 -0.3043 0.9477
vn -0.0650 0.0005 0.9979
vn -0.1766 -0.7373 0.6521
vn -0.6826 -0.6772 0.2745
vn -0.1765 -0.7373 0.6520
vn -0.0828 -0.9821 0.1690
vn -0.1765 -0.7373 0.6521
vn -0.0328 -0.4665 0.8839
vn -0.0962 -0.3044 0.9477
vn -0.9751 -0.1931 -0.1092
vn -0.6826 -0.6773 0.2746
vn -0.9751 -0.1930 -0.1092
vn -0.8671 0.0019 -0.4982
vn -0.2241 -0.9734 -0.0476
vn -0.6192 -0.6747 -0.4017
vn -0.2240 -0.9734 -0.0476
vn -0.2240 -0.9734 -0.0475
vn -0.0827 -0.9822 0.1689
vn -0.6827 -0.6772 0.2745
vn -0.2238 0.9734 -0.0496
vn -0.6245 0.6681 -0.4044
vn -0.2239 0.9734 -0.0495
vn -0.6842 0.6688 0.2906
vn -0.2238 0.9734 -0.0495
vn 0.0200 -0.9994 0.0288
vn 0.0504 -0.9981 -0.0357
vn 0.0200 -0.9994 0.0287
vn -0.0636 -0.9767 -0.2049
vn 0.0566 -0.9425 0.3294
vn 0.1037 -0.8881 0.4478
vn 0.0566 -0.9425 0.3295
vn 0.1037 -0.8881 0.4479
vn 0.0351 -0.7357 0.6763
vn -0.0112 -0.9237 0.3828
vn -0.0581 -0.8356 -0.5463
vn -0.0034 -0.9265 -0.3764
vn -0.0582 -0.8356 -0.5463
vn 0.0045 -0.9809 -0.1947
vn -0.0034 -0.9265 -0.3763
vn 0.0151 -0.9088 -0.4170
vn 0.3615 -0.9059 -0.2206
vn 0.6192 -0.6238 -0.4770
vn 0.3614 -0.9059 -0.2206
vn 0.2975 -0.6163 -0.7292
vn 0.3614 -0.9060 -0.2205
vn 0.8262 -0.4138 -0.3823
vn 0.9422 -0.2772 -0.1884
vn 0.5307 -0.1335 -0.8370
vn 0.6192 -0.6237 -0.4770
vn 0.2975 -0.6162 -0.7292
vn 0.0950 -0.9001 -0.4253
vn 0.0962 -0.9762 -0.1945
vn 0.0950 -0.9000 -0.4253
vn 0.0950 -0.9001 -0.4252
vn 0.3614 -0.9060 -0.2206
vn 0.9926 -0.0013 -0.1212
vn 0.9979 -0.0304 0.0569
vn 0.9980 0.0222 0.0588
vn 0.9450 0.0007 0.3269
vn 0.9979 -0.0304 0.0570
vn 0.9980 0.0222 0.0589
vn 0.7170 0.2501 0.6507
vn 0.9450 0.0007 0.3270
vn 0.7275 -0.2305 0.6463
vn 0.9467 0.2509 -0.2019
vn 0.9926 -0.0012 -0.1212
vn 0.9926 -0.0013 -0.1213
vn 0.0127 -0.3574 0.9338
vn 0.0127 -0.3574 0.9339
vn 0.0697 -0.0009 0.9976
vn 0.0360 0.0877 0.9955
vn 0.0360 0.0876 0.9955
vn 0.0382 -0.0923 0.9950
vn 0.0127 -0.3573 0.9339
vn 0.0066 -0.0000 1.0000
vn 0.0046 0.9775 -0.2110
vn 0.0512 0.9979 -0.0396
vn 0.0046 0.9775 -0.2111
vn 0.1121 0.9877 0.1088
vn 0.0954 0.9754 -0.1988
vn 0.5342 0.8410 -0.0860
vn 0.3610 0.9085 -0.2104
vn -0.0027 0.9042 -0.4272
vn -0.0027 0.9042 -0.4271
vn -0.0591 0.8338 -0.5488
vn -0.0626 0.9760 -0.2088
vn -0.6343 0.2477 -0.7324
vn -0.1583 0.7095 -0.6867
vn -0.1296 0.9512 -0.2799
vn -0.0591 0.8339 -0.5488
vn -0.1582 0.7096 -0.6867
vn -0.1582 0.7096 -0.6866
vn -0.1296 0.9513 -0.2798
vn -0.0151 -0.2570 -0.9663
vn 0.0045 -0.2579 -0.9662
vn -0.0914 -0.2617 -0.9608
vn 0.0488 0.0054 -0.9988
vn -0.0215 -0.5900 -0.8071
vn -0.1573 -0.6945 -0.7021
vn 0.2974 -0.6163 -0.7292
vn -0.0581 -0.8355 -0.5463
vn -0.1573 -0.6945 -0.7020
vn -0.6404 -0.2498 -0.7263
vn -0.6404 -0.2497 -0.7264
vn -0.6403 -0.2497 -0.7264
vn -0.8670 0.0020 -0.4983
vn -0.6403 -0.2498 -0.7264
vn -0.9751 -0.1930 -0.1093
vn -0.6192 -0.6748 -0.4016
vn -0.0399 -0.2212 0.9744
vn -0.0962 -0.3043 0.9477
vn -0.0328 -0.4664 0.8839
vn -0.0399 -0.2211 0.9744
vn -0.0649 0.0005 0.9979
vn -0.0413 0.2298 0.9724
vn -0.0362 0.4810 0.8760
vn -0.0974 0.3176 0.9432
vn -0.1234 0.7547 0.6444
vn -0.1233 0.7547 0.6444
vn 0.0196 0.9994 0.0294
vn 0.0197 0.9994 0.0295
vn 0.1120 0.9877 0.1088
vn 0.0196 0.9994 0.0295
vn -0.0119 0.9242 0.3818
vn 0.3556 0.6943 0.6257
vn 0.1610 0.1986 0.9668
vn -0.1470 0.0933 0.9847
vn -0.1469 0.0933 0.9847
vn -0.0650 0.0006 0.9979
vn -0.1487 -0.0896 0.9848
vn -0.4757 0.2812 0.8335
vn -0.1218 -0.7521 0.6477
vn -0.0113 -0.9237 0.3828
vn -0.1218 -0.7521 0.6476
vn -0.1219 -0.7522 0.6476
vn -0.1765 -0.7374 0.6520
vn -0.0827 -0.9821 0.1690
vn -0.9767 -0.0592 0.2063
vn -0.9767 -0.0592 0.2064
vn -0.6826 -0.6773 0.2745
vn -0.7223 -0.0398 0.6904
vn -0.1303 -0.9904 -0.0453
vn -0.0828 -0.9822 0.1689
vn -0.1294 0.9905 -0.0464
vn -0.1294 0.9905 -0.0465
vn -0.0001 -0.8656 -0.5008
vn 0.0150 -0.9088 -0.4171
vn 0.0004 -0.9899 -0.1418
vn 0.0045 -0.9809 -0.1946
vn 0.0638 -0.0892 -0.9940
vn 0.8341 -0.2459 -0.4938
vn 0.8341 -0.2458 -0.4938
vn 0.8262 -0.4137 -0.3823
vn 0.8504 0.5035 0.1528
vn 0.9980 0.0223 0.0589
vn 0.8504 0.5035 0.1527
vn 0.9467 0.2510 -0.2019
vn 0.5343 0.8409 -0.0861
vn 0.8503 0.5036 0.1528
vn 0.5343 0.8409 -0.0860
vn 0.3555 0.6943 0.6257
vn 0.9051 -0.0694 -0.4195
vn 0.9055 0.0743 -0.4178
vn 0.8370 0.2346 -0.4943
vn 0.9055 0.0742 -0.4178
vn 0.6555 0.5951 -0.4649
vn 0.8370 0.2347 -0.4943
vn 0.5295 0.1252 -0.8390
vn 0.6555 0.5952 -0.4649
vn 0.6555 0.5952 -0.4648
vn 0.8748 0.0010 -0.4845
vn 0.5294 0.1253 -0.8391
vn 0.8361 0.3974 -0.3781
vn 0.8361 0.3975 -0.3781
vn -0.0308 0.0051 -0.9995
vn -0.0165 0.0045 -0.9999
vn -0.0914 -0.2616 -0.9608
vn -0.1014 0.2615 -0.9599
vn -0.0148 0.2345 -0.9720
vn -0.0023 -0.2505 0.9681
vn -0.0327 -0.4664 0.8839
vn -0.0023 -0.2506 0.9681
vn 0.0737 0.4932 0.8668
vn 0.0737 0.4933 0.8667
vn 0.0344 0.7545 0.6554
vn 0.0123 0.3770 0.9261
vn 0.0738 0.4932 0.8668
vn 0.3555 0.6944 0.6257
vn 0.1042 0.8884 0.4471
vn 0.0737 0.4933 0.8668
vn 0.0344 0.7546 0.6553
vn 0.0580 0.9421 0.3302
vn -0.0118 0.9242 0.3818
vn 0.1042 0.8885 0.4470
vn 0.1121 0.9877 0.1089
vn 0.0580 0.9421 0.3303
vn -0.2265 -0.0196 -0.9738
vn -0.6342 0.2477 -0.7324
vn -0.2264 -0.0196 -0.9738
vn -0.1014 0.2616 -0.9599
vn -0.2265 -0.0197 -0.9738
vn -0.0915 -0.2616 -0.9608
vn -0.0135 -0.0072 -0.9999
vn -0.0151 -0.2569 -0.9663
vn 0.0620 0.0836 -0.9946
vn 0.0620 0.0835 -0.9946
vn -0.0132 -0.6858 -0.7277
vn -0.0581 -0.8355 -0.5464
vn -0.0214 -0.5900 -0.8071
vn 0.0032 0.6255 0.7802
vn 0.0003 0.9909 -0.1349
vn 0.0003 0.9909 -0.1348
vn 0.1731 0.9630 0.2066
vn 0.1042 0.8884 0.4470
vn 0.1731 0.9630 0.2067
vn 0.1732 0.9630 0.2066
vn 0.0477 -0.0037 -0.9989
vn 0.0638 -0.0891 -0.9940
vn -0.0128 0.0109 -0.9999
vn -0.1014 0.2615 -0.9598
vn -0.0128 0.0108 -0.9999
vn -0.0127 0.0108 -0.9999
vn -0.0147 0.2345 -0.9720
vn 0.0619 0.0835 -0.9946
vn 0.0045 -0.2578 -0.9662
s 0
f 27//1 7//2 25//3
f 30//4 5//5 9//6
f 30//7 9//8 16//9
f 35//10 21//11 10//12
f 36//13 10//14 21//15
f 37//16 19//17 8//18
f 38//19 20//20 11//21
f 38//22 11//21 35//23
f 40//24 35//25 11//26
f 40//24 21//15 35//27
f 42//28 18//29 37//30
f 42//31 4//32 33//33
f 45//34 24//35 7//36
f 45//37 22//38 24//35
f 45//37 41//39 22//40
f 45//41 7//42 41//43
f 46//44 24//35 22//38
f 46//45 22//38 12//46
f 47//47 25//48 13//49
f 49//50 24//51 13//52
f 49//50 13//49 25//48
f 49//50 25//3 7//2
f 49//53 7//2 24//35
f 51//54 16//9 9//55
f 51//54 9//56 26//57
f 52//58 7//59 27//1
f 52//60 41//61 7//42
f 52//60 4//32 41//43
f 54//62 27//63 25//3
f 54//62 14//64 27//63
f 54//65 48//66 14//64
f 54//62 25//3 48//66
f 56//67 9//6 29//68
f 56//69 55//70 9//8
f 57//71 29//68 9//72
f 58//73 30//7 16//9
f 58//73 5//5 30//4
f 60//74 8//18 19//17
f 62//75 11//26 32//76
f 62//77 40//78 11//26
f 62//79 1//80 40//78
f 64//81 34//82 6//83
f 64//84 53//85 34//86
f 64//87 17//88 53//85
f 65//89 39//90 20//91
f 67//92 38//22 35//10
f 67//92 6//83 38//22
f 68//93 35//94 10//12
f 68//93 63//95 17//96
f 68//93 10//12 63//95
f 69//97 10//12 36//98
f 69//99 36//98 18//100
f 69//101 63//95 10//12
f 69//101 33//102 63//103
f 70//104 19//17 36//105
f 70//106 1//80 62//79
f 70//106 62//79 61//107
f 71//108 36//98 19//109
f 71//110 19//109 37//30
f 71//111 18//112 36//113
f 72//114 39//90 32//115
f 72//116 32//76 11//117
f 72//118 11//21 20//91
f 73//119 12//120 22//40
f 73//119 22//40 42//31
f 73//121 42//31 37//122
f 74//123 42//31 22//40
f 74//123 22//40 41//124
f 74//125 41//126 4//32
f 74//125 4//127 42//128
f 75//129 23//130 37//30
f 75//129 37//30 8//18
f 75//131 8//18 60//74
f 76//132 37//30 23//133
f 76//132 23//130 43//134
f 76//132 46//45 12//46
f 76//132 43//134 46//45
f 76//132 12//46 73//121
f 77//135 44//136 24//51
f 77//137 3//138 44//136
f 77//139 24//35 46//45
f 78//140 13//141 24//35
f 78//140 24//35 44//136
f 79//142 44//143 3//144
f 80//145 46//146 43//134
f 80//147 75//129 3//138
f 80//148 77//149 46//45
f 80//148 3//138 77//149
f 81//150 47//151 13//49
f 81//150 2//152 47//151
f 82//153 47//154 2//155
f 82//153 2//155 48//156
f 82//157 48//66 25//158
f 82//153 25//3 47//154
f 83//159 2//155 81//160
f 83//159 81//161 13//49
f 86//162 33//33 4//32
f 86//163 4//32 52//58
f 87//164 27//63 14//64
f 88//165 34//86 53//85
f 88//165 87//164 14//64
f 88//166 53//85 87//164
f 89//167 52//58 27//1
f 89//167 86//168 52//58
f 89//167 53//169 86//163
f 89//167 87//164 53//169
f 89//167 27//63 87//164
f 90//170 15//171 56//67
f 90//170 56//67 29//68
f 90//172 29//68 57//71
f 91//173 56//174 15//171
f 91//173 28//175 55//176
f 91//173 55//70 56//174
f 92//177 57//71 9//6
f 92//177 9//56 5//5
f 92//178 5//179 39//180
f 92//178 90//172 57//71
f 92//178 39//180 90//172
f 93//181 58//73 16//9
f 93//181 32//76 58//182
f 93//181 62//79 32//76
f 93//181 61//107 62//79
f 94//183 39//180 5//184
f 94//183 5//184 58//185
f 94//183 58//186 32//76
f 94//187 32//76 39//90
f 95//188 59//189 3//144
f 95//188 3//138 31//190
f 96//191 26//57 79//142
f 97//192 60//193 31//190
f 97//192 31//190 3//194
f 97//192 75//195 60//196
f 98//197 60//193 19//17
f 98//198 31//190 60//193
f 98//199 61//200 93//181
f 98//201 70//202 61//107
f 98//199 19//203 70//202
f 99//204 63//205 33//206
f 99//207 17//208 63//205
f 100//209 64//81 6//210
f 100//209 17//88 64//87
f 100//209 67//211 17//88
f 100//209 6//210 67//211
f 102//212 38//22 6//83
f 102//213 6//83 65//89
f 102//212 65//89 20//20
f 102//212 20//20 38//19
f 103//214 39//90 65//89
f 103//215 91//216 15//171
f 103//217 65//218 91//216
f 104//219 14//220 48//66
f 105//221 67//211 35//10
f 105//222 17//223 67//211
f 105//221 68//224 17//223
f 105//221 35//225 68//224
f 106//226 42//227 33//33
f 106//228 33//33 69//101
f 106//229 69//230 18//231
f 106//229 18//231 42//31
f 107//232 40//78 1//80
f 107//232 1//80 70//106
f 107//232 21//15 40//24
f 107//232 70//106 36//105
f 107//233 36//234 21//235
f 108//236 71//110 37//122
f 108//236 37//122 18//237
f 108//236 18//112 71//110
f 109//238 72//118 20//91
f 109//239 20//91 39//90
f 109//239 39//90 72//118
f 110//240 43//134 23//130
f 110//240 23//130 75//129
f 110//240 80//145 43//241
f 110//240 75//195 80//147
f 111//242 76//243 73//121
f 111//242 73//121 37//30
f 111//242 37//30 76//243
f 112//244 79//142 3//138
f 112//244 3//138 59//189
f 113//245 78//140 44//143
f 113//245 44//143 79//142
f 113//246 13//141 78//247
f 114//248 48//66 2//155
f 114//248 2//249 83//159
f 114//250 83//251 28//252
f 114//248 104//219 48//66
f 114//253 28//254 104//255
f 115//256 83//159 13//141
f 115//256 50//257 83//159
f 115//256 84//258 50//259
f 115//256 13//49 113//246
f 115//256 113//246 84//258
f 116//260 84//261 26//262
f 116//260 26//262 9//72
f 116//263 9//56 55//70
f 116//264 55//70 28//252
f 117//265 79//142 26//57
f 117//265 26//266 84//258
f 117//265 113//246 79//142
f 117//265 84//258 113//246
f 118//267 83//159 50//257
f 118//267 50//257 84//261
f 118//268 84//261 116//260
f 118//268 116//263 28//254
f 118//268 28//254 83//251
f 119//269 85//270 31//271
f 119//269 31//271 16//272
f 119//269 16//9 85//270
f 120//273 16//9 51//54
f 121//274 86//168 53//169
f 121//274 53//169 17//88
f 121//274 17//88 99//204
f 121//274 99//204 33//275
f 121//276 33//33 86//163
f 122//277 88//165 14//64
f 122//277 34//86 88//165
f 122//278 101//279 34//280
f 122//281 14//220 104//255
f 122//281 104//282 66//283
f 122//284 66//283 101//285
f 123//286 91//216 65//287
f 123//286 66//288 91//289
f 123//290 101//285 66//283
f 123//286 65//89 101//285
f 124//291 93//292 16//9
f 124//293 16//294 31//271
f 124//291 98//199 93//292
f 124//295 31//296 98//199
f 125//297 95//298 31//271
f 125//297 31//271 85//270
f 126//299 51//54 26//266
f 126//300 26//57 96//191
f 127//301 97//192 3//138
f 127//301 3//194 75//302
f 127//301 75//302 97//303
f 128//304 101//279 65//89
f 128//304 65//89 6//83
f 128//304 6//83 34//82
f 128//304 34//280 101//279
f 129//305 90//172 39//180
f 129//306 39//180 103//217
f 129//306 103//215 15//171
f 129//306 15//171 90//170
f 130//307 91//216 66//308
f 130//309 66//308 104//282
f 130//310 104//282 28//175
f 130//307 28//175 91//216
f 131//311 96//191 79//142
f 131//311 79//142 112//312
f 132//313 85//270 16//314
f 132//315 16//9 120//273
f 132//316 120//317 51//54
f 132//316 125//297 85//270
f 132//316 95//298 125//297
f 132//316 51//54 126//318
f 132//316 59//319 95//298
f 132//316 126//300 96//191
f 132//316 96//191 131//311
f 132//316 131//311 112//312
f 132//316 112//312 59//319
