# Blender 4.2.22 LTS
# www.blender.org
o left_upper_leg_collision
v 0.025388 -0.019175 -0.354052
v 0.000640 -0.005965 0.083713
v -0.019797 0.054635 -0.281341
v -0.040259 -0.072606 0.003722
v 0.058889 0.038996 0.020242
v -0.046750 -0.006389 -0.254197
v 0.056426 0.043435 -0.332094
v 0.034039 -0.082141 -0.002889
v -0.028462 0.059782 0.017415
v -0.009877 0.044415 -0.326248
v -0.019812 -0.038178 -0.283256
v 0.045110 -0.001222 0.071623
v -0.005429 -0.072458 0.039996
v 0.057451 -0.026867 -0.311029
v 0.014555 0.066233 -0.072166
v -0.046983 0.046809 -0.069751
v -0.059026 0.017711 0.048166
v -0.033648 0.038139 -0.282529
v 0.021982 0.043310 -0.353506
v -0.027709 -0.033633 -0.284943
v -0.011715 -0.079910 -0.034796
v 0.059127 -0.032520 0.020444
v -0.005937 0.055403 0.059012
v -0.032022 -0.080960 0.015526
v 0.016410 -0.021741 0.080039
v 0.058710 -0.015191 -0.316106
v 0.018159 -0.043102 -0.338500
v 0.036393 0.058506 -0.310694
v -0.013300 0.066826 -0.060134
v -0.046430 0.048853 0.006471
v -0.052188 0.016041 -0.137739
v -0.054980 -0.011022 -0.138545
v -0.017558 -0.025140 -0.314284
v -0.029118 0.045285 -0.287059
v 0.039484 0.033125 -0.350793
v 0.002462 -0.025013 -0.345401
v -0.049458 -0.012779 -0.221032
v 0.040410 -0.027527 0.060243
v 0.059265 0.000125 0.033362
v 0.040134 -0.072987 0.003617
v 0.016676 0.035835 0.074336
v -0.037807 0.019749 0.072067
v -0.038509 0.044422 0.055487
v 0.025110 0.055801 0.050180
v 0.001123 -0.083720 0.008144
v -0.057486 -0.020430 0.046363
v 0.024494 -0.005073 0.080306
v -0.035402 -0.015598 0.076040
v 0.060260 0.028367 0.008577
v 0.054751 -0.031362 -0.333724
v 0.060211 -0.028075 0.008205
v -0.004379 -0.034806 -0.329284
v 0.028855 0.061640 -0.005642
v 0.051892 0.051333 -0.306948
v 0.043743 0.050650 -0.344138
v 0.014411 0.053265 -0.345807
v 0.000584 0.058645 -0.295509
v 0.000712 0.064458 -0.141385
v -0.039004 0.057041 -0.059765
v -0.058012 0.024525 0.046291
v -0.041994 0.021209 -0.266520
v -0.049754 0.004960 -0.207870
v -0.058256 0.009595 -0.049489
v -0.031607 -0.001095 -0.289774
v -0.029491 -0.030139 -0.286135
v -0.005114 0.050225 -0.329715
v -0.038175 0.041321 -0.220922
v 0.028838 0.020785 -0.353884
v 0.013079 -0.025159 -0.351686
v 0.000455 -0.015663 -0.343720
v 0.057472 -0.022933 0.035763
v 0.032136 -0.015593 0.078048
v 0.019750 -0.073196 0.035117
v 0.049437 0.021706 0.060780
v -0.011607 0.029819 0.077794
v 0.008758 -0.016919 0.083706
v 0.008410 0.018010 0.081047
v 0.033695 0.016575 0.075127
v -0.041958 -0.003568 0.073394
v 0.057705 0.027834 -0.311126
v 0.059384 0.036353 -0.040022
v 0.038897 -0.028209 -0.350669
v 0.036654 -0.044938 -0.310640
v 0.056030 0.020462 -0.334341
v 0.060271 0.000189 -0.004045
v 0.010664 -0.030754 -0.349862
v -0.009806 -0.030764 -0.325863
v 0.001795 0.065849 0.005819
v 0.050597 0.047902 0.008189
v 0.055563 0.045980 -0.307768
v 0.039484 0.056869 -0.071997
v -0.012386 0.060021 -0.211415
v -0.027157 0.059016 -0.141343
v -0.040151 0.049083 -0.139087
v -0.048955 0.044715 -0.005201
v -0.047069 0.035345 -0.138332
v -0.046766 0.002333 -0.256603
v -0.045312 0.022630 -0.220230
v -0.060566 -0.000252 0.038794
v -0.055275 -0.007693 -0.138418
v -0.049271 0.040327 -0.073235
v -0.017734 0.026454 -0.314088
v 0.020992 -0.015664 -0.353891
v 0.008463 0.045046 -0.348902
v 0.045976 0.038004 0.054323
v -0.018207 0.011386 0.080594
v -0.018689 -0.015057 0.082271
v -0.012216 -0.020513 0.081841
v -0.058883 -0.014850 0.048381
v 0.043527 -0.035646 -0.342551
v 0.055491 -0.017178 -0.334749
v 0.009726 -0.015561 -0.350512
v 0.024685 -0.030094 -0.353359
v -0.030746 0.052266 -0.209971
v -0.051143 -0.009399 -0.207897
v -0.058252 -0.005328 -0.049478
v 0.014909 0.032022 -0.352476
v 0.001567 0.024986 -0.344737
vn -0.4687 -0.8449 0.2576
vn -0.6882 -0.6918 -0.2186
vn -0.4088 -0.8972 -0.1671
vn -0.8228 -0.5683 0.0016
vn -0.1178 -0.9062 -0.4061
vn -0.1395 -0.9826 -0.1223
vn -0.4687 -0.8450 0.2577
vn -0.1177 -0.9062 -0.4062
vn 0.4767 -0.8755 0.0792
vn -0.1394 -0.9827 -0.1223
vn -0.7940 0.5454 -0.2686
vn -0.8329 0.2222 -0.5068
vn -0.9170 0.2764 -0.2875
vn -0.9381 -0.3294 -0.1073
vn -0.6883 -0.6917 -0.2186
vn -0.8229 -0.5683 0.0016
vn -0.9750 -0.2169 -0.0482
vn 0.7949 -0.5681 0.2130
vn 0.9597 -0.2795 -0.0304
vn 0.9240 -0.3278 0.1967
vn -0.5408 0.6847 0.4886
vn -0.1010 0.8446 0.5257
vn -0.3682 0.9192 0.1395
vn -0.3683 0.9192 0.1395
vn -0.7316 0.6784 0.0679
vn 0.3255 0.8589 0.3953
vn -0.1009 0.8446 0.5258
vn 0.2250 0.5100 0.8302
vn 0.0138 -0.9920 0.1257
vn -0.1036 -0.7862 0.6092
vn -0.4687 -0.8449 0.2577
vn 0.0138 -0.9920 0.1256
vn 0.0139 -0.9920 0.1256
vn 0.4767 -0.8755 0.0793
vn -0.8623 -0.4034 0.3060
vn -0.8228 -0.5683 0.0017
vn -0.8624 -0.4034 0.3060
vn -0.4974 -0.3353 0.8001
vn -0.4974 -0.3352 0.8001
vn 0.9981 0.0565 0.0254
vn 0.8743 0.4567 0.1643
vn 0.9795 0.0053 0.2014
vn 0.8068 -0.4751 -0.3513
vn 0.9957 -0.0505 -0.0773
vn 0.9920 -0.1251 0.0141
vn 0.9957 -0.0505 -0.0772
vn 0.9921 -0.1250 0.0141
vn 0.9241 -0.3278 0.1967
vn -0.5791 -0.7056 -0.4083
vn -0.1178 -0.9062 -0.4062
vn 0.3512 0.9344 0.0588
vn 0.2088 0.9739 -0.0885
vn 0.1610 0.9869 -0.0068
vn 0.4724 0.6536 -0.5913
vn 0.6394 0.7680 -0.0375
vn 0.8684 0.3742 -0.3252
vn 0.2088 0.9739 -0.0886
vn 0.6393 0.7680 -0.0374
vn 0.4767 0.0985 -0.8735
vn -0.0080 0.3288 -0.9444
vn 0.4724 0.6537 -0.5912
vn 0.8684 0.3743 -0.3252
vn -0.1857 0.8225 -0.5376
vn 0.2087 0.9740 -0.0886
vn -0.0081 0.3288 -0.9444
vn -0.1629 0.9808 -0.1068
vn -0.1858 0.8225 -0.5376
vn -0.0131 0.9993 -0.0338
vn -0.1726 0.9850 -0.0037
vn 0.2087 0.9740 -0.0885
vn -0.5865 0.8098 -0.0141
vn -0.3682 0.9192 0.1394
vn -0.5866 0.8098 -0.0141
vn -0.3683 0.9192 0.1394
vn -0.8637 0.5025 -0.0391
vn -0.7316 0.6783 0.0679
vn -0.8824 0.3733 0.2863
vn -0.5408 0.6846 0.4886
vn -0.7316 0.6783 0.0680
vn -0.8824 0.3732 0.2863
vn -0.9248 0.1485 0.3504
vn -0.5273 0.2963 0.7963
vn -0.8825 0.3732 0.2863
vn -0.5273 0.2964 0.7963
vn -0.5409 0.6846 0.4886
vn -0.9912 0.1272 -0.0356
vn -0.9248 0.1485 0.3503
vn -0.8825 0.3732 0.2862
vn -0.9912 0.1273 -0.0356
vn -0.9778 0.2015 -0.0567
vn -0.9869 0.1478 -0.0652
vn -0.8969 -0.0365 -0.4407
vn -0.9510 0.1870 -0.2461
vn -0.8793 -0.3536 -0.3189
vn -0.9529 -0.2105 -0.2182
vn -0.8793 -0.3536 -0.3190
vn -0.8793 -0.3535 -0.3190
vn -0.8969 -0.0365 -0.4406
vn -0.8713 -0.1540 -0.4661
vn -0.8794 -0.3535 -0.3190
vn -0.9529 -0.2105 -0.2183
vn -0.6093 0.6697 -0.4245
vn -0.7939 0.5455 -0.2686
vn -0.4728 0.8729 -0.1206
vn -0.6094 0.6697 -0.4245
vn -0.8329 0.2223 -0.5068
vn -0.1630 0.9808 -0.1068
vn -0.1858 0.8225 -0.5375
vn -0.6093 0.6697 -0.4246
vn -0.4727 0.8729 -0.1206
vn -0.8772 0.4740 -0.0770
vn -0.7940 0.5454 -0.2685
vn -0.9170 0.2764 -0.2874
vn -0.8772 0.4739 -0.0770
vn -0.9170 0.2765 -0.2875
vn -0.9510 0.1870 -0.2460
vn 0.1296 0.0132 -0.9915
vn -0.0080 0.3287 -0.9444
vn 0.4766 0.0985 -0.8736
vn 0.9015 -0.2725 0.3363
vn 0.7256 -0.0547 0.6860
vn 0.6781 -0.4925 0.5455
vn 0.7949 -0.5681 0.2131
vn 0.9240 -0.3278 0.1968
vn 0.9015 -0.2724 0.3363
vn 0.9795 0.0053 0.2015
vn 0.7255 -0.0547 0.6860
vn 0.9015 -0.2724 0.3362
vn 0.9241 -0.3277 0.1967
vn 0.4637 -0.3011 0.8333
vn 0.3489 -0.7794 0.5205
vn 0.4636 -0.3011 0.8333
vn 0.3488 -0.7794 0.5204
vn 0.0139 -0.9920 0.1257
vn 0.3488 -0.7794 0.5205
vn 0.1954 -0.5194 0.8319
vn 0.3488 -0.7793 0.5205
vn 0.1953 -0.5193 0.8319
vn -0.1035 -0.7862 0.6092
vn 0.8057 0.2347 0.5439
vn 0.8743 0.4567 0.1644
vn -0.1630 0.4183 0.8935
vn 0.2249 0.5100 0.8302
vn -0.1631 0.4183 0.8935
vn -0.5408 0.6846 0.4887
vn 0.0842 -0.2543 0.9635
vn 0.4636 -0.3011 0.8334
vn 0.2589 0.0541 0.9644
vn 0.0842 -0.2544 0.9634
vn 0.1953 -0.5193 0.8320
vn 0.0938 0.1971 0.9759
vn 0.2250 0.5100 0.8303
vn -0.1630 0.4183 0.8936
vn 0.0842 -0.2543 0.9634
vn 0.0938 0.1970 0.9759
vn -0.0076 0.0502 0.9987
vn 0.4249 0.2576 0.8678
vn 0.4249 0.2575 0.8678
vn 0.4636 -0.3010 0.8333
vn 0.7255 -0.0546 0.6860
vn 0.8056 0.2347 0.5439
vn 0.4248 0.2576 0.8679
vn 0.2250 0.5099 0.8303
vn -0.6248 -0.0161 0.7806
vn 0.9989 0.0438 -0.0189
vn 0.9989 0.0439 -0.0189
vn 0.9869 0.1610 -0.0055
vn 0.4348 -0.2932 -0.8514
vn 0.1297 0.0132 -0.9915
vn 0.0764 -0.0371 -0.9964
vn 0.3049 -0.9434 -0.1303
vn 0.8067 -0.4751 -0.3514
vn 0.3048 -0.9435 -0.1302
vn -0.1177 -0.9062 -0.4061
vn 0.8899 0.0077 -0.4561
vn 0.8685 0.3742 -0.3252
vn 0.8899 0.0078 -0.4560
vn 1.0000 -0.0008 -0.0021
vn 1.0000 -0.0007 -0.0021
vn 0.9981 0.0564 0.0254
vn -0.4166 -0.4677 -0.7795
vn -0.5791 -0.7056 -0.4084
vn -0.6859 -0.2170 -0.6946
vn -0.4166 -0.4677 -0.7796
vn -0.7956 -0.3691 -0.4805
vn -0.5792 -0.7056 -0.4084
vn -0.7956 -0.3690 -0.4804
vn -0.8712 -0.1540 -0.4661
vn -0.7956 -0.3690 -0.4805
vn -0.7635 -0.0188 -0.6456
vn -0.8712 -0.1539 -0.4661
vn -0.7634 -0.0188 -0.6456
vn -0.7956 -0.3691 -0.4804
vn -0.5792 -0.7056 -0.4083
vn 0.0103 0.9952 0.0978
vn 0.3512 0.9345 0.0588
vn 0.0102 0.9952 0.0978
vn 0.0102 0.9951 0.0978
vn -0.1009 0.8446 0.5257
vn 0.3255 0.8590 0.3953
vn 0.3255 0.8590 0.3952
vn 0.6053 0.7920 0.0792
vn 0.3512 0.9344 0.0589
vn 0.6054 0.7920 0.0793
vn 0.3256 0.8589 0.3953
vn 0.6054 0.7920 0.0792
vn 0.6394 0.7680 -0.0374
vn 0.8867 0.4623 -0.0090
vn 0.8866 0.4624 -0.0090
vn 0.4979 0.8672 0.0069
vn 0.4980 0.8672 0.0069
vn 0.4980 0.8671 0.0069
vn -0.2323 0.9716 -0.0454
vn -0.1727 0.9850 -0.0037
vn -0.3993 0.9155 -0.0486
vn -0.7884 0.6117 -0.0653
vn -0.7884 0.6116 -0.0653
vn -0.8771 0.4740 -0.0770
vn -0.7940 0.5455 -0.2685
vn -0.8889 0.4581 -0.0074
vn -0.8825 0.3733 0.2862
vn -0.8637 0.5024 -0.0391
vn -0.9406 0.3337 -0.0624
vn -0.9708 0.0370 -0.2368
vn -0.9708 0.0370 -0.2369
vn -0.9510 0.1869 -0.2461
vn -0.9584 0.2759 -0.0729
vn -0.9709 0.0370 -0.2368
vn -0.9511 0.1870 -0.2460
vn -0.9989 -0.0145 0.0441
vn -0.9912 0.1272 -0.0355
vn -0.9987 0.0133 -0.0499
vn -0.9511 0.3054 -0.0459
vn -0.9406 0.3336 -0.0624
vn -0.8681 0.0300 -0.4955
vn -0.8330 0.2222 -0.5068
vn -0.1472 -0.0175 -0.9890
vn 0.0763 -0.0371 -0.9964
vn -0.1471 -0.0175 -0.9890
vn -0.5240 0.3272 -0.7864
vn -0.5240 0.3272 -0.7863
vn -0.5241 0.3272 -0.7863
vn 0.6675 0.5542 0.4973
vn 0.8057 0.2347 0.5438
vn 0.6675 0.5543 0.4972
vn 0.6674 0.5543 0.4973
vn 0.6675 0.5543 0.4973
vn -0.2093 0.1431 0.9673
vn 0.0937 0.1971 0.9759
vn -0.1631 0.4183 0.8936
vn -0.2093 0.1432 0.9673
vn -0.5272 0.2964 0.7964
vn -0.5273 0.2963 0.7964
vn -0.2378 -0.1595 0.9581
vn 0.0841 -0.2543 0.9635
vn -0.2379 -0.1595 0.9581
vn -0.4974 -0.3352 0.8002
vn -0.1347 -0.4481 0.8838
vn -0.1036 -0.7862 0.6093
vn -0.1348 -0.4481 0.8838
vn -0.2378 -0.1596 0.9581
vn -0.9167 -0.2058 0.3425
vn -0.6249 -0.0161 0.7806
vn -0.9248 0.1484 0.3503
vn -0.9167 -0.2058 0.3426
vn -0.9167 -0.2059 0.3425
vn 0.4544 -0.7200 -0.5245
vn 0.4349 -0.2932 -0.8514
vn 0.8852 -0.0392 -0.4635
vn 0.8899 0.0078 -0.4561
vn 0.8852 -0.0393 -0.4635
vn 0.8853 -0.0392 -0.4634
vn 0.8853 -0.0393 -0.4634
vn -0.4618 -0.0121 -0.8869
vn -0.3312 -0.0980 -0.9385
vn -0.4167 -0.4677 -0.7796
vn 0.0216 -0.4375 -0.8990
vn 0.4349 -0.2933 -0.8514
vn 0.0215 -0.4374 -0.8990
vn -0.4166 -0.4676 -0.7796
vn -0.3311 -0.0981 -0.9385
vn 0.0216 -0.4374 -0.8990
vn -0.3311 -0.0980 -0.9385
vn -0.6673 0.7418 -0.0662
vn -0.7939 0.5455 -0.2685
vn -0.6674 0.7418 -0.0662
vn -0.9948 -0.0779 -0.0653
vn -0.9948 -0.0780 -0.0653
vn -0.9948 -0.0780 -0.0652
vn -0.9987 0.0132 -0.0499
vn -0.9954 -0.0917 -0.0271
vn -0.9989 -0.0145 0.0440
vn -0.3144 0.0273 -0.9489
vn -0.3145 0.0273 -0.9489
vn -0.5240 0.3271 -0.7864
vn -0.0081 0.3287 -0.9444
vn -0.7122 0.0347 -0.7011
vn -0.7634 -0.0188 -0.6457
s 0
f 24//1 20//2 11//3
f 24//1 4//4 20//2
f 27//5 24//1 11//3
f 27//5 21//6 24//7
f 27//8 8//9 21//10
f 34//11 10//12 18//13
f 37//14 20//15 4//4
f 37//14 4//16 32//17
f 40//18 14//19 22//20
f 43//21 23//22 9//23
f 43//21 9//24 30//25
f 44//26 23//27 41//28
f 45//29 13//30 24//31
f 45//32 24//31 21//10
f 45//33 21//10 8//34
f 46//35 4//36 24//31
f 46//37 32//17 4//4
f 48//38 46//35 24//31
f 48//39 24//31 13//30
f 49//40 5//41 39//42
f 50//43 26//44 14//19
f 50//43 40//18 8//9
f 50//43 14//19 40//18
f 51//45 22//20 14//19
f 51//45 14//19 26//46
f 51//47 49//40 39//42
f 51//45 39//42 22//48
f 52//49 27//50 11//3
f 52//49 11//3 20//2
f 53//51 28//52 15//53
f 55//54 54//55 7//56
f 55//54 28//57 54//58
f 55//54 35//59 19//60
f 55//61 7//62 35//59
f 56//63 28//64 55//54
f 56//63 55//54 19//65
f 57//66 28//64 56//67
f 58//68 29//69 15//53
f 58//68 15//53 28//70
f 58//68 57//66 29//69
f 58//68 28//70 57//66
f 59//71 9//72 29//69
f 59//73 30//25 9//74
f 59//73 16//75 30//76
f 60//77 43//78 30//79
f 60//80 17//81 42//82
f 60//83 42//84 43//85
f 63//86 17//87 60//88
f 63//89 31//90 62//91
f 64//92 61//93 18//13
f 65//94 37//14 6//95
f 65//96 20//15 37//14
f 65//97 64//98 33//99
f 65//100 6//101 64//98
f 66//102 34//103 3//104
f 66//105 10//106 34//11
f 66//102 57//107 56//108
f 66//109 3//110 57//107
f 67//111 34//112 18//113
f 67//114 18//115 61//116
f 68//117 19//118 35//119
f 71//120 12//121 38//122
f 71//120 40//123 22//124
f 71//120 38//122 40//123
f 71//125 39//126 12//127
f 71//128 22//129 39//42
f 72//130 38//122 12//127
f 73//131 38//122 72//132
f 73//133 45//134 8//34
f 73//135 13//30 45//29
f 73//131 40//123 38//122
f 73//131 8//9 40//123
f 73//135 72//132 25//136
f 73//137 25//138 13//139
f 74//140 39//126 5//141
f 74//140 12//127 39//126
f 75//142 41//143 23//27
f 75//144 43//145 42//84
f 75//144 23//27 43//145
f 76//146 72//147 47//148
f 76//149 25//150 72//132
f 77//151 41//152 75//153
f 77//151 76//154 47//148
f 77//155 2//156 76//146
f 78//157 72//132 12//127
f 78//158 47//148 72//159
f 78//157 12//160 74//161
f 78//162 77//155 47//148
f 78//162 41//163 77//151
f 79//164 42//82 17//87
f 80//165 49//40 26//44
f 80//166 26//44 7//56
f 81//167 7//62 5//41
f 81//167 5//141 49//40
f 81//167 80//166 7//62
f 81//167 49//40 80//166
f 82//168 68//169 35//119
f 82//168 1//170 68//117
f 83//171 50//172 8//9
f 83//173 8//9 27//174
f 84//175 35//59 7//176
f 84//177 7//62 26//44
f 85//178 51//47 26//46
f 85//179 26//44 49//40
f 85//179 49//180 51//45
f 86//181 52//182 36//183
f 86//184 27//50 52//182
f 87//185 36//183 52//186
f 87//187 65//96 33//188
f 87//189 70//190 36//183
f 87//189 33//191 70//192
f 87//193 52//194 20//2
f 87//193 20//15 65//96
f 88//195 53//196 15//53
f 88//197 15//53 29//69
f 88//197 29//69 9//23
f 88//198 9//23 23//199
f 88//198 23//199 44//200
f 88//195 44//201 53//196
f 89//202 53//203 44//26
f 89//204 44//205 5//141
f 89//206 5//41 54//207
f 90//208 54//207 5//41
f 90//208 5//41 7//62
f 90//209 7//62 54//207
f 91//210 54//58 28//52
f 91//211 28//57 53//51
f 91//212 89//206 54//207
f 91//211 53//51 89//206
f 92//213 57//107 3//110
f 92//213 3//110 29//214
f 92//213 29//69 57//107
f 93//215 59//71 29//69
f 93//215 29//214 3//110
f 93//215 3//104 59//71
f 94//216 16//75 59//73
f 94//217 67//218 16//75
f 94//216 34//219 67//111
f 95//220 60//221 30//76
f 95//220 30//76 16//75
f 95//220 16//222 60//88
f 96//223 16//222 67//111
f 97//224 64//92 6//101
f 97//225 61//226 64//92
f 98//227 62//91 31//90
f 98//227 31//90 96//223
f 98//227 97//228 62//91
f 98//227 61//93 97//228
f 98//227 96//223 67//114
f 98//227 67//111 61//229
f 99//230 17//87 63//231
f 100//232 63//231 62//91
f 101//233 63//89 60//88
f 101//233 60//88 16//222
f 101//233 16//222 96//223
f 101//233 96//234 31//90
f 101//233 31//90 63//89
f 102//235 64//92 18//13
f 102//235 18//13 10//12
f 102//235 33//191 64//92
f 102//235 70//192 33//191
f 102//235 10//236 70//190
f 103//237 68//117 1//238
f 103//239 19//118 68//117
f 104//240 56//63 19//60
f 104//241 66//109 56//63
f 104//242 10//12 66//102
f 105//243 74//244 5//141
f 105//245 5//141 44//205
f 105//246 44//26 41//28
f 105//247 78//157 74//161
f 105//246 41//28 78//157
f 106//248 77//249 75//250
f 106//248 2//156 77//155
f 106//251 75//250 42//252
f 106//248 42//253 79//164
f 107//254 76//255 2//156
f 107//254 2//156 106//248
f 107//254 106//248 79//164
f 107//256 79//164 48//257
f 108//258 13//259 25//150
f 108//258 25//138 76//149
f 108//260 76//255 107//261
f 108//260 107//261 48//39
f 108//260 48//257 13//259
f 109//262 79//263 17//81
f 109//262 17//264 99//230
f 109//265 46//35 48//39
f 109//266 48//39 79//164
f 109//262 32//17 46//37
f 110//267 82//268 50//172
f 110//267 83//171 27//8
f 110//267 50//172 83//171
f 111//269 82//268 35//59
f 111//269 35//59 84//270
f 111//271 50//172 82//268
f 111//272 84//175 26//44
f 111//273 26//44 50//172
f 112//274 86//184 36//183
f 112//274 69//275 86//276
f 113//277 27//8 86//184
f 113//277 1//170 82//168
f 113//277 110//267 27//8
f 113//277 82//278 110//267
f 113//279 86//280 69//281
f 113//282 103//239 1//238
f 113//277 69//283 103//237
f 114//284 94//216 59//73
f 114//284 59//73 3//104
f 114//284 3//104 34//285
f 114//286 34//219 94//216
f 115//287 97//228 6//95
f 115//288 6//95 37//14
f 115//287 100//232 62//91
f 115//287 62//91 97//228
f 115//288 37//14 32//17
f 115//289 32//17 100//290
f 116//291 99//292 63//86
f 116//291 63//86 100//290
f 116//291 100//290 32//17
f 116//291 109//262 99//230
f 116//291 32//17 109//262
f 117//293 103//237 69//283
f 117//293 19//60 103//237
f 117//294 69//283 112//274
f 117//294 112//274 104//295
f 117//293 104//240 19//296
f 118//297 36//183 70//298
f 118//297 112//274 36//183
f 118//297 104//240 112//274
f 118//297 70//190 10//12
f 118//297 10//12 104//241
