# Blender 4.2.22 LTS
# www.blender.org
o left_lower_leg_collision
v -0.034872 0.005848 -0.330000
v -0.004429 0.001941 0.053953
v 0.032545 -0.015394 -0.330000
v 0.021367 0.023045 -0.319241
v -0.020322 -0.021165 -0.315873
v 0.029133 0.019823 -0.330000
v -0.023461 0.016351 0.033806
v -0.030380 -0.016346 -0.326519
v 0.026043 -0.020368 -0.094086
v -0.031125 0.016838 -0.330000
v 0.027311 0.023228 -0.094634
v -0.034537 -0.006364 -0.329243
v 0.030850 -0.017093 -0.330000
v -0.023766 -0.011854 0.033704
v 0.032788 -0.012799 -0.330000
v -0.029110 0.019901 -0.330000
v -0.034310 0.009024 -0.330000
v 0.034813 0.020986 -0.133089
v 0.009313 0.019021 0.008193
v -0.029032 -0.017736 -0.325401
v 0.018051 -0.021748 -0.314510
v 0.037685 -0.015566 -0.157620
v -0.034848 -0.004265 -0.329473
v 0.011396 -0.014862 0.004855
v -0.004213 -0.019747 -0.074673
v -0.019365 0.002365 0.046722
v -0.029445 -0.008598 -0.150100
v 0.032879 0.013344 -0.330000
v 0.017938 0.023921 -0.316636
v -0.030492 0.018382 -0.330000
v -0.002072 0.023685 -0.079724
v -0.024231 0.015032 0.033878
v 0.028957 0.019897 -0.329733
v 0.029741 0.023073 -0.108254
v 0.005971 0.007384 0.049943
v -0.025120 -0.013361 -0.058406
v -0.023754 -0.018240 -0.240924
v 0.032625 -0.018608 -0.118977
v -0.013713 -0.021799 -0.311474
v 0.038693 -0.013024 -0.171879
v 0.034527 -0.016148 -0.245543
v 0.008779 -0.002604 0.047853
v -0.021304 -0.017202 -0.150458
v -0.006610 -0.014904 0.010626
v -0.015580 -0.005502 0.048682
v -0.015967 0.009235 0.048878
v -0.025616 -0.012659 -0.058109
v -0.032193 -0.006629 -0.242384
v 0.038290 0.016990 -0.172330
v -0.026551 0.017986 -0.150515
v -0.021970 0.022928 -0.319885
v 0.020078 0.023645 -0.078800
v -0.006316 0.019008 0.010760
v -0.026650 0.013905 -0.058266
v -0.032164 0.009407 -0.242565
v -0.024678 0.002195 0.034045
v 0.024749 0.023145 -0.227582
v 0.013962 0.006349 0.039366
v 0.026684 0.023765 -0.097222
v -0.021426 0.016645 0.035603
v -0.023842 -0.019929 -0.318668
v -0.024800 -0.015716 -0.149712
v 0.021084 -0.020964 -0.316432
v 0.029177 -0.019809 -0.106114
v 0.035335 -0.017425 -0.136874
v -0.002158 -0.021785 -0.307967
v -0.015659 -0.021759 -0.312657
v 0.000839 -0.020376 -0.086740
v 0.038364 -0.013852 -0.173374
v 0.036179 0.001292 -0.253030
v -0.021765 -0.012493 0.035383
v 0.001167 0.002194 0.053463
v 0.014104 -0.001878 0.039386
v -0.012325 -0.020675 -0.204885
v 0.020469 -0.020038 -0.078522
v -0.023053 -0.008725 0.039705
v -0.014985 -0.003695 0.050195
v -0.003216 0.005993 0.053732
v -0.021083 0.010782 0.043809
v -0.027227 -0.013992 -0.150381
v 0.031932 0.018146 -0.330000
v 0.037987 0.001599 -0.143861
v -0.028379 0.018411 -0.242686
v -0.023609 0.021018 -0.242778
v -0.006096 0.022760 -0.068159
v -0.014339 0.024029 -0.314133
v -0.001182 0.019035 0.012266
v -0.032599 0.013229 -0.330000
v -0.029468 0.011671 -0.150414
v -0.027132 -0.002706 -0.058021
v -0.032425 0.005296 -0.242530
v 0.033300 0.021241 -0.117934
v 0.010980 0.002174 0.047104
v 0.012109 0.018630 0.003953
v 0.012204 0.007563 0.041687
v 0.024774 0.023877 -0.089742
v -0.008734 0.018971 0.009190
v -0.027150 -0.018514 -0.322038
v -0.023083 -0.020229 -0.318010
v 0.021417 -0.021168 -0.219411
v 0.031075 -0.018806 -0.108469
v 0.026408 -0.019832 -0.232949
v 0.024103 -0.020599 -0.225849
v 0.033075 -0.017262 -0.235193
v 0.015007 -0.021768 -0.312118
v -0.000350 -0.021171 -0.209651
v -0.008054 -0.021181 -0.214037
v 0.038490 -0.013892 -0.160428
v 0.035378 -0.014702 -0.253261
v 0.034882 -0.008685 -0.278953
v 0.033526 0.001204 -0.323958
v 0.039281 0.001562 -0.169506
v 0.006402 -0.014897 0.010655
v -0.000188 -0.002441 0.052847
v 0.012188 -0.002121 0.043995
v 0.036025 -0.016333 -0.132844
v -0.020871 -0.019402 -0.242777
v -0.011023 -0.020775 -0.201603
v -0.000023 -0.014871 0.012344
v 0.006409 -0.019771 -0.074176
v -0.023643 -0.011248 0.035355
v -0.020762 -0.009963 0.040391
v -0.008012 0.005967 0.053189
v -0.015599 0.002186 0.050017
v -0.018377 -0.006025 0.046824
v 0.003858 0.005990 0.052201
v -0.003741 0.007399 0.052653
v -0.019122 0.009630 0.046507
v -0.023603 0.014896 0.036801
v -0.023366 0.002156 0.039711
v 0.035407 0.017212 -0.253125
v 0.034840 0.018476 -0.245728
v 0.038022 0.017937 -0.151950
v 0.014410 0.002020 0.039725
v -0.024499 0.021899 -0.322038
v -0.024255 0.017603 -0.058376
v -0.019014 0.023601 -0.317307
v 0.003827 0.018971 0.011679
v -0.032418 -0.002650 -0.242486
v -0.029843 0.004262 -0.150338
v 0.030215 0.022309 -0.104287
v 0.007657 -0.001617 0.050048
v 0.008811 0.007643 0.046516
v 0.012649 0.005819 0.044021
v 0.002116 0.023902 -0.087185
v 0.012451 0.018998 0.000614
v 0.011162 0.023971 -0.312118
v 0.028057 -0.019436 -0.096587
v 0.027763 -0.019241 -0.241897
v 0.009347 -0.021187 -0.216025
v -0.007381 -0.021789 -0.308986
v 0.035748 0.009983 -0.257243
v 0.033461 -0.001461 -0.323828
v 0.008871 -0.014559 0.009342
v -0.011774 -0.003198 0.051553
v 0.034525 -0.017020 -0.123251
v 0.037076 -0.015715 -0.141433
v -0.013813 -0.006384 0.047204
v -0.017449 -0.004471 0.048310
v -0.012152 0.008029 0.051241
v -0.020375 -0.007206 0.044031
v 0.000448 0.006588 0.052961
v 0.007662 0.005983 0.050023
v 0.000893 0.007648 0.051502
v -0.022752 0.016262 0.036289
v -0.022573 0.013207 0.040302
v 0.038451 0.017153 -0.161024
v 0.037644 0.018708 -0.157296
v 0.036218 0.019899 -0.137220
v 0.024436 -0.009231 -0.041900
v -0.004544 0.023166 -0.075652
v -0.014235 0.022918 -0.201547
v -0.015433 0.023978 -0.314778
v 0.022280 0.014063 -0.032460
v 0.006603 0.002186 0.051099
v 0.004687 -0.001996 0.051541
v 0.010098 0.006851 0.046785
v -0.012761 0.024027 -0.313163
v -0.000448 0.023824 -0.087310
v 0.028376 -0.018136 -0.324432
v -0.000463 -0.021781 -0.307931
v 0.033459 0.003278 -0.324265
v 0.032942 -0.011308 -0.327464
v -0.002707 -0.002533 0.052784
v -0.007310 -0.001499 0.053366
v 0.037961 -0.014999 -0.151757
v -0.020010 0.012033 0.044085
v 0.036673 0.018848 -0.137066
v 0.023519 -0.009390 -0.036943
v -0.012853 0.023204 -0.198640
v -0.010841 0.023667 -0.204423
v 0.030558 -0.017245 -0.329070
v 0.025509 0.012332 -0.048849
v 0.032691 -0.017338 -0.113338
v -0.012077 0.023407 -0.202387
v 0.034127 0.019724 -0.120478
v 0.024070 0.013074 -0.040047
vn 0.3329 -0.6637 -0.6698
vn -0.5841 -0.5812 -0.5667
vn -0.7011 -0.2912 -0.6509
vn 0.6988 -0.0430 -0.7140
vn 0.6864 -0.3260 -0.6501
vn 0.3330 -0.6637 -0.6698
vn 0.6988 -0.0429 -0.7140
vn -0.7295 0.0480 -0.6823
vn -0.6609 0.2704 -0.7001
vn -0.7081 0.2033 -0.6762
vn -0.6609 0.2703 -0.7001
vn -0.7295 0.0481 -0.6823
vn -0.3740 -0.8538 -0.3622
vn 0.3330 -0.6636 -0.6699
vn -0.1552 -0.9788 -0.1335
vn -0.3741 -0.8537 -0.3622
vn -0.5841 -0.5811 -0.5667
vn 0.3329 -0.6636 -0.6699
vn 0.0910 -0.9889 -0.1173
vn -0.1552 -0.9788 -0.1334
vn 0.3330 -0.6636 -0.6698
vn -0.7298 -0.1027 -0.6759
vn -0.7011 -0.2913 -0.6509
vn -0.7297 -0.1028 -0.6760
vn -0.9747 -0.2220 0.0255
vn -0.7010 -0.2913 -0.6509
vn 0.0886 0.9888 -0.1201
vn 0.2100 0.9701 -0.1218
vn 0.2475 0.6812 -0.6890
vn -0.3660 0.6613 -0.6548
vn -0.6330 0.3995 -0.6630
vn -0.3660 0.6613 -0.6547
vn -0.6330 0.3996 -0.6630
vn 0.7063 0.0765 -0.7038
vn -0.9527 0.2795 0.1192
vn -0.5867 0.8046 0.0922
vn -0.6330 0.3995 -0.6631
vn 0.3457 0.9378 -0.0325
vn 0.5351 0.8445 0.0214
vn 0.2474 0.6812 -0.6891
vn 0.2475 0.6811 -0.6891
vn 0.2101 0.9701 -0.1217
vn -0.6192 -0.7849 0.0219
vn -0.7887 -0.6057 0.1054
vn -0.6193 -0.7849 0.0219
vn -0.6193 -0.7849 0.0220
vn 0.9816 -0.1905 -0.0138
vn 0.6863 -0.3261 -0.6501
vn 0.6987 -0.0430 -0.7141
vn 0.6703 -0.7418 -0.0193
vn 0.6863 -0.3260 -0.6502
vn 0.6704 -0.7418 -0.0193
vn 0.7498 -0.6617 -0.0074
vn -0.9155 -0.4018 0.0220
vn -0.7887 -0.6056 0.1054
vn -0.9904 -0.1359 0.0266
vn -0.7010 -0.2913 -0.6510
vn -0.7010 -0.2912 -0.6510
vn -0.6928 0.7209 0.0180
vn -0.5866 0.8046 0.0922
vn -0.1909 0.9735 -0.1260
vn -0.3659 0.6613 -0.6548
vn -0.9311 0.3642 0.0200
vn -0.6608 0.2704 -0.7001
vn -0.9853 0.1693 0.0246
vn -0.7081 0.2032 -0.6763
vn -0.7294 0.0480 -0.6824
vn 0.2770 0.9608 -0.0110
vn 0.4175 0.9080 0.0362
vn 0.0887 0.9888 -0.1200
vn 0.4174 0.9080 0.0362
vn 0.2629 0.9641 0.0370
vn 0.2630 0.9641 0.0370
vn 0.5553 0.8237 0.1144
vn -0.0391 0.9675 0.2499
vn 0.3296 0.7868 0.5218
vn 0.2572 0.9503 0.1754
vn -0.4237 -0.9055 0.0213
vn -0.7887 -0.6057 0.1053
vn -0.3929 -0.9193 0.0206
vn -0.3156 -0.9486 0.0218
vn 0.2419 -0.9667 -0.0842
vn -0.0561 -0.9964 -0.0639
vn -0.0093 -0.9999 -0.0086
vn -0.2069 -0.9302 0.3032
vn -0.1272 -0.9912 0.0371
vn -0.0369 -0.9972 0.0645
vn -0.2070 -0.9302 0.3031
vn -0.1272 -0.9912 0.0370
vn -0.2069 -0.9302 0.3031
vn -0.1765 -0.9841 0.0178
vn -0.1273 -0.9912 0.0370
vn -0.3156 -0.9487 0.0218
vn -0.1764 -0.9842 0.0177
vn -0.1553 -0.9788 -0.1334
vn -0.0562 -0.9964 -0.0638
vn 0.0767 -0.9953 0.0584
vn 0.2834 -0.9565 0.0687
vn 0.4801 -0.8649 0.1465
vn 0.0766 -0.9953 0.0584
vn -0.0393 -0.9990 0.0220
vn 0.2834 -0.9566 0.0687
vn 0.0177 0.3380 0.9410
vn -0.0345 -0.0483 0.9982
vn 0.2371 -0.0343 0.9709
vn -0.9076 -0.4192 0.0219
vn -0.9154 -0.4018 0.0220
vn -0.9154 -0.4019 0.0220
vn -0.9747 -0.2221 0.0255
vn -0.5840 -0.5812 -0.5667
vn 0.6263 0.4467 -0.6389
vn -0.7426 0.6695 0.0178
vn -0.7426 0.6694 0.0178
vn -0.7427 0.6694 0.0178
vn -0.3835 0.9234 0.0157
vn -0.1910 0.9735 -0.1260
vn -0.1814 0.9830 0.0292
vn -0.0391 0.9675 0.2498
vn -0.0895 0.9956 0.0265
vn 0.0050 0.9964 0.0850
vn 0.0486 0.9976 0.0494
vn -0.0358 0.9975 0.0611
vn -0.0359 0.9975 0.0611
vn -0.6652 0.2712 -0.6957
vn -0.6652 0.2712 -0.6956
vn -0.9691 0.2455 0.0230
vn -0.9853 0.1692 0.0246
vn -0.9527 0.2794 0.1192
vn -0.7081 0.2031 -0.6763
vn -0.9981 -0.0540 0.0291
vn -0.9981 -0.0539 0.0291
vn -0.9925 -0.0084 0.1222
vn -0.9994 0.0197 0.0281
vn 0.7956 0.5979 0.0978
vn 0.4175 0.9079 0.0362
vn 0.6045 0.7460 0.2794
vn 0.5982 0.7843 0.1641
vn 0.6046 0.7459 0.2794
vn 0.8943 0.3926 0.2146
vn 0.5983 0.7843 0.1641
vn 0.2220 0.9732 0.0593
vn 0.2220 0.9733 0.0593
vn -0.0661 0.9965 0.0508
vn -0.0662 0.9965 0.0508
vn -0.4102 -0.9118 0.0190
vn -0.3666 -0.9303 -0.0164
vn -0.4102 -0.9118 0.0189
vn -0.4101 -0.9118 0.0189
vn -0.3741 -0.8538 -0.3622
vn -0.3666 -0.9302 -0.0164
vn -0.2916 -0.9541 -0.0685
vn -0.2915 -0.9541 -0.0685
vn -0.2916 -0.9541 -0.0684
vn 0.0897 -0.9960 0.0030
vn 0.3757 -0.9256 0.0463
vn 0.7259 -0.6783 0.1139
vn 0.3758 -0.9256 0.0462
vn 0.5567 -0.8294 0.0473
vn 0.7260 -0.6782 0.1139
vn 0.8756 -0.4121 0.2518
vn 0.4802 -0.8649 0.1464
vn 0.3267 -0.9451 -0.0077
vn 0.3757 -0.9256 0.0462
vn 0.2419 -0.9666 -0.0841
vn 0.3268 -0.9451 -0.0078
vn 0.2554 -0.9668 -0.0044
vn 0.2554 -0.9668 -0.0045
vn 0.4547 -0.8906 -0.0120
vn 0.7497 -0.6617 -0.0074
vn 0.5729 -0.8194 0.0190
vn 0.0048 -1.0000 0.0005
vn 0.0009 -1.0000 0.0037
vn -0.0093 -0.9999 -0.0085
vn 0.0001 -1.0000 0.0064
vn 0.2833 -0.9566 0.0687
vn -0.0334 -0.9994 0.0087
vn -0.0562 -0.9964 -0.0639
vn -0.0561 -0.9964 -0.0638
vn -0.0000 -1.0000 0.0064
vn -0.0335 -0.9994 0.0087
vn 0.9711 -0.2381 0.0172
vn 0.8965 -0.4423 -0.0266
vn 0.9816 -0.1906 -0.0138
vn 0.7498 -0.6616 -0.0074
vn 0.8923 -0.4505 -0.0289
vn 0.8964 -0.4424 -0.0266
vn 0.8923 -0.4504 -0.0289
vn 0.6863 -0.3261 -0.6502
vn 0.8924 -0.4504 -0.0289
vn 0.9985 -0.0392 -0.0372
vn 0.6987 -0.0429 -0.7141
vn 0.9977 -0.0011 -0.0675
vn 0.7062 0.0765 -0.7038
vn 1.0000 0.0073 0.0006
vn 0.9993 -0.0012 -0.0371
vn 0.9711 -0.2380 0.0172
vn 0.9816 -0.1905 -0.0137
vn 0.9959 -0.0010 0.0903
vn 0.9711 -0.2380 0.0173
vn 0.1430 -0.9729 0.1819
vn 0.4720 -0.7544 0.4562
vn 0.1429 -0.9729 0.1818
vn 0.1624 -0.6196 0.7680
vn 0.4720 -0.7544 0.4561
vn 0.1624 -0.6196 0.7679
vn -0.0345 -0.0484 0.9982
vn 0.7531 -0.5121 0.4131
vn 0.4802 -0.8649 0.1465
vn 0.7531 -0.5121 0.4130
vn 0.4802 -0.8648 0.1465
vn 0.8757 -0.4121 0.2518
vn -0.2968 -0.9547 0.0212
vn -0.0994 -0.9950 0.0132
vn -0.0995 -0.9950 0.0132
vn 0.0095 -0.9956 0.0928
vn -0.0369 -0.9972 0.0646
vn -0.0034 -0.9986 0.0534
vn -0.0034 -0.9986 0.0535
vn 0.0094 -0.9956 0.0927
vn -0.8296 -0.4695 0.3023
vn -0.8231 -0.3634 0.4364
vn -0.9925 -0.0084 0.1223
vn -0.8295 -0.4695 0.3024
vn -0.8295 -0.4695 0.3023
vn -0.2070 -0.9302 0.3032
vn -0.2723 -0.8150 0.5115
vn -0.2723 -0.8150 0.5116
vn -0.8231 -0.3635 0.4364
vn -0.2190 0.2738 0.9365
vn -0.5546 -0.4964 0.6679
vn -0.2041 -0.7166 0.6669
vn -0.4192 -0.2897 0.8605
vn -0.2722 -0.8150 0.5116
vn -0.6426 0.2769 0.7144
vn -0.7980 0.2192 0.5614
vn -0.7709 -0.0045 0.6369
vn -0.5308 0.0231 0.8472
vn -0.3707 0.5144 0.7733
vn -0.5308 0.0230 0.8472
vn -0.8727 0.3536 0.3366
vn -0.8728 0.3535 0.3366
vn -0.9333 -0.0020 0.3590
vn -0.7980 0.2192 0.5613
vn -0.9334 -0.0020 0.3590
vn 0.9464 0.3212 -0.0344
vn 0.7062 0.0766 -0.7038
vn 0.6262 0.4467 -0.6390
vn 0.6849 0.7282 -0.0247
vn 0.2474 0.6811 -0.6891
vn 0.9464 0.3213 -0.0344
vn 0.6262 0.4467 -0.6389
vn 0.9484 0.3158 -0.0277
vn 0.9505 0.3076 0.0450
vn 0.9659 -0.0039 0.2590
vn 0.9175 -0.3851 0.0996
vn 0.9959 -0.0010 0.0904
vn 0.9658 -0.0039 0.2591
vn 0.7531 -0.5120 0.4131
vn 0.8757 -0.4120 0.2519
vn -0.3867 0.9222 -0.0044
vn -0.3659 0.6614 -0.6548
vn -0.4314 0.9020 0.0160
vn -0.4315 0.9020 0.0160
vn -0.1068 0.9888 -0.1042
vn 0.0842 0.9840 0.1568
vn -0.9994 -0.0194 0.0283
vn -0.7297 -0.1027 -0.6760
vn -0.7294 0.0481 -0.6824
vn -0.9995 0.0172 0.0282
vn -0.9994 0.0198 0.0281
vn 0.7221 0.6806 0.1235
vn 0.4175 0.9079 0.0363
vn 0.4175 0.9080 0.0363
vn 0.5553 0.8237 0.1143
vn 0.5647 -0.4118 0.7152
vn 0.7989 -0.0192 0.6011
vn 0.5647 -0.4118 0.7153
vn 0.4721 -0.7544 0.4562
vn 0.3597 0.8750 0.3240
vn 0.8434 0.3194 0.4321
vn 0.8434 0.3193 0.4321
vn 0.9659 -0.0039 0.2591
vn 0.8944 0.3925 0.2146
vn 0.7990 -0.0191 0.6010
vn -0.0117 0.9999 0.0125
vn -0.0118 0.9999 0.0125
vn 0.2219 0.9733 0.0593
vn 0.5032 0.8555 0.1223
vn 0.5982 0.7844 0.1641
vn 0.5032 0.8554 0.1223
vn 0.5554 0.8237 0.1144
vn 0.5033 0.8554 0.1223
vn 0.7222 0.6806 0.1235
vn 0.0042 1.0000 -0.0026
vn 0.0886 0.9888 -0.1200
vn -0.0176 0.9994 -0.0291
vn 0.6265 -0.7693 0.1251
vn 0.6265 -0.7694 0.1251
vn 0.3758 -0.9256 0.0463
vn 0.3534 -0.9354 -0.0096
vn 0.3268 -0.9451 -0.0077
vn 0.0028 -1.0000 0.0063
vn 0.0896 -0.9960 0.0030
vn 0.0027 -1.0000 0.0063
vn 0.0025 -1.0000 0.0064
vn -0.0005 -1.0000 0.0055
vn -0.0005 -1.0000 0.0056
vn 0.0010 -1.0000 0.0037
vn -0.0005 -1.0000 0.0054
vn 0.0002 -1.0000 0.0064
vn 0.9981 0.0496 -0.0366
vn 0.9993 -0.0011 -0.0371
vn 0.9981 0.0497 -0.0366
vn 0.9485 0.3157 -0.0277
vn 0.9985 -0.0307 -0.0463
vn 0.9977 -0.0012 -0.0675
vn 0.3045 -0.9203 0.2458
vn 0.1430 -0.9729 0.1818
vn 0.4721 -0.7544 0.4561
vn -0.2335 -0.4258 0.8742
vn -0.2041 -0.7166 0.6670
vn -0.2334 -0.4257 0.8742
vn -0.5307 0.0230 0.8472
vn -0.4192 -0.2896 0.8605
vn -0.2191 0.2737 0.9365
vn 0.8820 -0.4587 0.1081
vn 0.5568 -0.8293 0.0473
vn 0.9175 -0.3852 0.0997
vn 0.9220 -0.3811 0.0681
vn 0.9220 -0.3812 0.0681
vn 0.9174 -0.3852 0.0996
vn 0.9220 -0.3812 0.0680
vn 0.0398 -0.8828 0.4681
vn 0.0398 -0.8828 0.4680
vn -0.2722 -0.8150 0.5115
vn -0.6239 -0.2385 0.7442
vn -0.7709 -0.0045 0.6370
vn -0.6239 -0.2385 0.7443
vn -0.6238 -0.2386 0.7442
vn -0.2654 0.5203 0.8117
vn -0.2191 0.2738 0.9365
vn -0.2655 0.5203 0.8117
vn -0.5307 0.0231 0.8472
vn 0.0176 0.3381 0.9410
vn 0.0176 0.3380 0.9410
vn 0.0065 0.7609 0.6489
vn -0.6685 -0.4196 0.6140
vn -0.6239 -0.2386 0.7442
vn -0.5546 -0.4964 0.6678
vn -0.2723 -0.8149 0.5116
vn 0.1901 0.5026 0.8434
vn 0.1900 0.5026 0.8434
vn 0.2371 -0.0342 0.9709
vn 0.3580 0.3697 0.8574
vn 0.1900 0.5027 0.8433
vn 0.0177 0.3381 0.9410
vn 0.1901 0.5027 0.8433
vn 0.3580 0.3698 0.8574
vn 0.3296 0.7868 0.5219
vn 0.5952 0.3466 0.7250
vn 0.3580 0.3698 0.8573
vn 0.5952 0.3465 0.7250
vn 0.7990 -0.0191 0.6011
vn 0.1556 0.8578 0.4898
vn 0.1556 0.8578 0.4899
vn 0.0065 0.7609 0.6488
vn 0.3295 0.7868 0.5219
vn -0.4258 0.8319 0.3558
vn -0.4258 0.8319 0.3559
vn -0.7858 0.3858 0.4834
vn -0.8727 0.3535 0.3366
vn 0.9635 0.2676 0.0047
vn 0.7345 0.6785 -0.0088
vn 0.6849 0.7283 -0.0247
vn 0.7346 0.6785 -0.0088
vn 0.9635 0.2676 0.0046
vn 0.9504 0.3076 0.0450
vn 0.7868 0.6157 0.0434
vn 0.5352 0.8445 0.0214
vn 0.7956 0.5979 0.0979
vn 0.7868 0.6156 0.0434
vn 0.9504 0.3077 0.0450
vn 0.9561 -0.2550 0.1441
vn 0.8757 -0.4120 0.2518
vn 0.9561 -0.2550 0.1440
vn 0.8820 -0.4586 0.1081
vn -0.1863 0.9824 0.0144
vn -0.2393 0.9708 0.0157
vn -0.0497 0.9970 -0.0586
vn -0.0497 0.9970 -0.0587
vn 0.8363 0.5264 0.1533
vn 0.8363 0.5263 0.1533
vn 0.8943 0.3925 0.2146
vn 0.7956 0.5978 0.0979
vn 0.5338 -0.0089 0.8455
vn 0.2372 -0.0343 0.9709
vn 0.5339 -0.0089 0.8455
vn 0.3581 0.3698 0.8574
vn 0.5646 -0.4118 0.7153
vn 0.7989 -0.0191 0.6011
vn 0.3348 -0.5801 0.7425
vn 0.3349 -0.5801 0.7425
vn 0.5646 -0.4118 0.7152
vn 0.5338 -0.0090 0.8455
vn 0.6419 0.5705 0.5124
vn 0.6045 0.7459 0.2795
vn 0.6419 0.5704 0.5124
vn 0.8434 0.3193 0.4322
vn 0.0019 1.0000 -0.0005
vn 0.0019 1.0000 -0.0006
vn -0.0454 0.9989 0.0062
vn -0.0455 0.9989 0.0061
vn 0.3517 -0.9360 -0.0138
vn 0.0024 -1.0000 0.0059
vn 0.0028 -1.0000 0.0062
vn 0.0023 -1.0000 0.0057
vn 0.0023 -1.0000 0.0055
vn 0.0047 -1.0000 0.0006
vn 0.0025 -1.0000 0.0062
vn 0.9985 0.0283 -0.0474
vn 0.9985 -0.0387 -0.0378
vn 0.9985 -0.0383 -0.0380
vn 0.9985 -0.0386 -0.0379
vn 0.0018 -0.6861 0.7275
vn -0.1605 -0.3235 0.9325
vn -0.0346 -0.0483 0.9982
vn -0.2190 0.2737 0.9365
vn -0.1606 -0.3235 0.9325
vn -0.2335 -0.4257 0.8742
vn -0.1605 -0.3236 0.9325
vn -0.2334 -0.4258 0.8742
vn 0.0018 -0.6860 0.7276
vn 0.9383 -0.3426 0.0463
vn 0.9383 -0.3427 0.0463
vn -0.3667 0.7062 0.6057
vn -0.7858 0.3859 0.4834
vn -0.2655 0.5202 0.8117
vn -0.6426 0.2770 0.7144
vn -0.4257 0.8319 0.3559
vn -0.7980 0.2193 0.5614
vn 0.9692 0.2247 0.1008
vn 0.9959 -0.0009 0.0904
vn 0.9505 0.3076 0.0451
vn 0.9692 0.2248 0.1008
vn 0.7869 0.6156 0.0434
vn 0.7956 0.5978 0.0978
vn 0.8832 -0.4435 0.1526
vn 0.9561 -0.2551 0.1441
vn 0.8832 -0.4436 0.1526
vn 0.8820 -0.4586 0.1082
vn 0.9561 -0.2551 0.1440
vn -0.2131 0.9769 0.0144
vn -0.1442 0.9895 0.0100
vn -0.1863 0.9824 0.0145
vn 0.3598 -0.9323 -0.0363
vn 0.4546 -0.8906 -0.0120
vn 0.9829 0.1261 0.1340
vn 0.9829 0.1260 0.1340
vn 0.8806 -0.4498 0.1489
vn -0.1890 0.9819 0.0131
vn -0.1068 0.9888 -0.1041
vn 0.9581 0.2527 0.1348
vn 0.9420 0.3025 0.1454
vn 0.7957 0.5978 0.0979
vn 0.9420 0.3024 0.1454
vn 0.7957 0.5978 0.0978
s 0
f 13//1 8//2 12//3
f 15//4 3//5 13//6
f 15//7 13//6 1//8
f 15//4 1//8 10//9
f 17//10 10//11 1//12
f 20//13 13//14 5//15
f 20//16 8//17 13//18
f 21//19 5//20 13//21
f 23//22 13//1 12//23
f 23//24 1//12 13//6
f 27//25 12//26 8//17
f 29//27 4//28 6//29
f 29//27 6//29 16//30
f 30//31 16//32 6//29
f 30//33 6//29 28//34
f 30//33 28//34 15//7
f 30//31 15//7 10//9
f 32//35 7//36 30//37
f 33//38 18//39 6//40
f 33//38 6//41 4//42
f 33//38 4//42 18//39
f 36//43 20//16 14//44
f 36//45 14//44 8//17
f 36//46 8//17 20//13
f 40//47 3//48 15//49
f 41//50 13//18 3//51
f 41//52 3//51 22//53
f 47//54 14//55 27//25
f 48//56 27//25 23//24
f 48//56 23//24 12//57
f 48//56 12//58 27//25
f 50//59 30//37 7//36
f 50//59 7//60 16//30
f 51//61 29//27 16//62
f 54//63 32//35 30//37
f 54//63 30//37 10//64
f 55//65 17//66 1//67
f 55//65 1//67 32//35
f 57//68 34//69 18//39
f 57//68 18//39 4//42
f 57//68 4//42 29//70
f 57//68 29//27 34//71
f 59//72 34//71 29//27
f 59//73 11//74 34//69
f 60//75 35//76 19//77
f 62//78 14//79 20//16
f 62//78 20//16 37//80
f 62//78 43//81 14//44
f 62//78 37//80 43//81
f 63//82 21//19 13//14
f 67//83 5//20 21//19
f 67//83 21//19 39//84
f 71//85 25//86 44//87
f 71//88 43//81 25//89
f 71//90 14//79 43//81
f 74//91 25//92 43//93
f 74//94 5//95 67//96
f 75//97 9//98 24//99
f 75//100 68//101 9//102
f 78//103 2//104 72//105
f 80//106 14//44 47//107
f 80//106 47//108 27//109
f 80//106 27//109 8//110
f 80//106 8//17 14//55
f 81//111 28//34 6//29
f 83//112 50//59 16//62
f 83//113 16//30 30//37
f 83//114 30//37 50//59
f 84//115 7//60 51//116
f 85//117 51//116 7//60
f 85//117 60//118 31//119
f 85//117 7//60 60//118
f 87//120 52//121 31//119
f 87//120 53//122 60//118
f 87//120 31//119 53//123
f 88//124 54//63 10//64
f 88//125 10//11 17//10
f 88//124 17//66 54//63
f 89//126 54//63 17//66
f 89//126 32//35 54//63
f 89//126 55//127 32//128
f 89//126 17//129 55//65
f 90//130 27//25 14//44
f 90//131 14//79 56//132
f 90//130 23//24 27//25
f 91//133 32//35 1//67
f 92//134 18//39 34//135
f 95//136 94//137 19//77
f 95//138 58//139 94//140
f 96//141 52//121 19//77
f 96//141 11//74 59//72
f 96//142 59//72 29//27
f 97//143 60//118 53//123
f 97//143 53//122 31//119
f 97//144 31//119 60//118
f 98//145 61//146 37//80
f 98//147 37//80 20//16
f 98//148 20//149 61//150
f 99//151 61//146 20//16
f 99//152 20//149 5//95
f 99//153 43//81 37//80
f 99//153 37//80 61//150
f 100//154 64//155 9//102
f 100//154 21//19 64//155
f 101//156 64//157 38//158
f 101//159 73//160 24//161
f 102//162 64//163 63//164
f 102//165 38//158 64//163
f 103//166 64//155 21//19
f 103//167 21//19 63//164
f 103//167 63//164 64//163
f 104//168 41//50 22//169
f 104//168 22//169 65//170
f 104//168 13//18 41//50
f 105//171 66//172 39//173
f 105//171 39//173 21//19
f 105//171 21//19 100//154
f 106//174 9//175 68//101
f 107//176 68//101 67//177
f 107//176 67//178 39//173
f 107//176 106//179 68//101
f 107//180 39//173 106//174
f 108//181 69//182 40//183
f 108//181 22//184 69//182
f 109//185 69//186 22//53
f 109//187 22//53 3//188
f 109//189 3//51 40//183
f 109//189 40//183 69//182
f 110//190 40//47 15//191
f 111//192 15//191 28//193
f 112//194 110//190 70//195
f 112//194 40//47 110//190
f 112//194 108//196 40//197
f 112//194 82//198 108//199
f 113//200 42//201 71//90
f 113//202 75//97 24//161
f 114//203 71//85 42//204
f 114//205 72//105 2//206
f 115//207 42//204 24//208
f 115//209 24//210 73//211
f 117//212 74//94 43//81
f 117//212 5//95 74//94
f 117//212 99//153 5//95
f 117//212 43//81 99//153
f 118//213 68//101 25//89
f 118//214 25//89 74//94
f 118//214 74//94 67//96
f 118//214 67//96 68//101
f 119//215 44//87 25//89
f 119//215 71//85 44//216
f 119//215 75//100 113//202
f 119//215 113//202 71//85
f 120//217 25//89 68//101
f 120//217 68//101 75//97
f 120//218 119//219 25//86
f 120//217 75//97 119//215
f 121//220 76//221 56//222
f 121//223 56//222 14//79
f 121//224 14//44 71//225
f 122//226 121//223 71//225
f 122//227 76//228 121//223
f 123//229 2//104 78//103
f 125//230 45//231 77//232
f 125//230 122//233 45//231
f 128//234 79//235 26//236
f 128//234 124//237 46//238
f 128//234 26//236 124//239
f 129//240 7//36 32//35
f 129//241 32//35 56//222
f 130//242 76//221 26//236
f 130//242 26//236 79//243
f 130//242 129//241 56//222
f 130//244 56//222 76//221
f 131//245 28//246 81//247
f 132//248 81//111 6//249
f 132//248 6//41 18//39
f 132//248 131//250 81//251
f 132//248 49//252 131//250
f 133//253 82//198 112//194
f 134//254 116//255 82//256
f 134//257 115//258 73//259
f 135//260 84//115 51//116
f 135//260 51//116 16//30
f 135//260 16//261 84//115
f 136//262 84//115 16//30
f 136//263 16//30 7//60
f 136//262 7//60 84//115
f 137//264 29//27 51//61
f 138//265 19//77 52//121
f 138//265 52//121 87//120
f 138//265 87//120 60//75
f 138//265 60//75 19//77
f 139//266 90//131 56//222
f 139//266 23//267 90//131
f 139//266 91//133 1//268
f 139//266 1//67 23//24
f 140//269 56//222 32//128
f 140//269 32//128 91//270
f 140//269 139//266 56//222
f 140//269 91//133 139//266
f 141//271 92//134 34//272
f 141//271 34//273 11//274
f 142//275 115//258 93//276
f 142//277 42//278 115//258
f 143//279 95//136 19//77
f 143//279 19//77 35//76
f 144//280 58//139 95//138
f 144//281 134//282 58//283
f 144//281 93//284 115//207
f 144//281 115//258 134//282
f 145//285 31//119 52//121
f 145//286 52//121 96//287
f 146//288 96//141 19//77
f 146//288 19//77 94//289
f 146//288 11//74 96//141
f 146//290 141//271 11//291
f 146//292 94//140 141//293
f 147//294 96//287 29//295
f 147//294 29//27 86//296
f 148//297 101//156 24//210
f 148//297 24//210 9//98
f 148//298 9//98 64//299
f 148//297 64//299 101//156
f 149//300 65//170 38//158
f 149//300 38//158 102//301
f 149//300 102//301 63//164
f 150//302 105//171 100//303
f 150//304 100//303 9//175
f 150//305 9//102 106//174
f 151//306 106//179 39//173
f 151//307 39//173 66//308
f 151//309 66//172 106//310
f 152//311 112//194 70//312
f 152//313 28//193 131//245
f 152//311 131//245 49//314
f 152//311 49//314 112//194
f 153//315 15//191 111//316
f 153//315 111//192 70//312
f 153//315 70//312 110//190
f 154//317 113//318 24//99
f 154//317 24//208 42//204
f 154//317 42//319 113//200
f 155//320 77//232 45//321
f 155//322 124//323 77//324
f 155//322 123//325 124//323
f 156//326 38//327 65//170
f 156//326 65//170 116//328
f 156//326 101//159 38//327
f 157//329 82//256 116//255
f 157//330 116//331 65//170
f 157//332 65//170 22//169
f 158//333 114//205 45//231
f 158//334 45//231 122//335
f 158//334 122//335 71//85
f 158//334 71//85 114//205
f 159//336 124//239 26//337
f 159//338 77//324 124//239
f 159//339 125//230 77//232
f 160//340 124//323 123//341
f 160//342 46//238 124//343
f 160//340 123//341 78//344
f 160//340 78//345 127//346
f 161//347 26//236 76//221
f 161//347 159//348 26//236
f 161//347 125//349 159//348
f 161//347 76//228 122//227
f 161//347 122//350 125//349
f 162//351 78//103 72//105
f 162//352 72//353 126//354
f 162//355 127//346 78//356
f 162//357 126//358 35//359
f 163//360 35//359 126//361
f 163//362 93//363 144//281
f 164//364 35//76 60//75
f 164//365 60//75 127//366
f 164//365 162//357 35//367
f 164//365 127//366 162//357
f 165//368 60//118 7//60
f 165//369 7//36 129//240
f 166//370 130//242 79//243
f 166//370 129//241 130//242
f 166//370 165//369 129//371
f 167//372 133//253 112//194
f 167//372 112//194 49//314
f 168//373 132//374 18//39
f 168//375 49//252 132//248
f 168//375 167//376 49//252
f 168//375 133//377 167//372
f 169//378 18//379 92//380
f 169//378 168//373 18//39
f 169//381 133//382 168//375
f 170//383 134//254 73//384
f 170//385 116//255 134//254
f 170//385 156//386 116//255
f 171//387 85//117 31//119
f 172//388 137//264 51//116
f 172//388 51//116 85//117
f 173//389 86//296 29//27
f 173//390 29//27 137//264
f 174//391 141//293 94//140
f 174//392 94//140 58//139
f 174//392 58//393 92//394
f 174//392 92//394 141//293
f 175//395 126//358 72//396
f 175//397 163//362 126//398
f 175//397 142//399 93//400
f 175//397 93//400 163//362
f 176//401 114//203 42//204
f 176//402 42//201 142//403
f 176//402 72//105 114//205
f 176//401 175//404 72//396
f 176//402 142//399 175//404
f 177//405 144//280 95//406
f 177//405 95//136 143//279
f 177//407 163//362 144//408
f 177//405 143//279 35//76
f 177//405 35//359 163//362
f 178//409 145//286 96//141
f 178//410 86//296 145//286
f 178//410 147//294 86//296
f 178//409 96//142 147//294
f 179//411 145//286 86//296
f 179//411 31//119 145//286
f 179//411 173//389 31//119
f 179//412 86//296 173//389
f 180//413 65//170 149//300
f 180//413 149//300 63//164
f 181//414 150//415 106//174
f 181//416 106//174 66//172
f 181//417 66//172 105//418
f 181//414 105//171 150//419
f 182//420 111//192 28//193
f 182//420 28//246 152//311
f 182//420 152//313 70//312
f 182//420 70//312 111//192
f 183//421 153//315 110//190
f 183//422 110//190 15//49
f 183//423 15//191 153//315
f 184//424 155//320 45//231
f 184//424 45//321 114//205
f 185//425 2//426 123//427
f 185//428 123//341 155//429
f 185//430 155//431 184//432
f 185//430 184//432 114//203
f 185//425 114//203 2//206
f 186//433 108//199 82//198
f 186//433 82//256 157//329
f 186//434 157//330 22//169
f 186//434 22//184 108//181
f 187//435 46//238 160//340
f 187//435 165//369 166//436
f 187//435 160//437 127//366
f 187//435 128//438 46//238
f 187//435 127//366 60//75
f 187//435 60//75 165//439
f 187//435 166//370 79//440
f 187//435 79//440 128//438
f 188//441 134//254 82//442
f 188//441 82//256 133//443
f 188//444 133//377 169//445
f 188//444 169//445 92//446
f 189//447 170//448 73//384
f 189//449 73//211 101//159
f 189//447 156//450 170//451
f 190//452 85//117 171//387
f 190//452 172//388 85//117
f 190//452 137//264 172//388
f 191//453 171//454 31//119
f 191//453 173//389 137//264
f 191//453 31//119 173//389
f 192//455 104//456 65//170
f 192//455 65//170 180//413
f 192//455 13//14 104//456
f 192//455 180//413 63//164
f 192//455 63//164 13//14
f 193//457 58//283 134//254
f 193//458 134//254 188//444
f 194//459 189//447 101//159
f 194//459 101//159 156//386
f 194//459 156//386 189//447
f 195//460 190//452 171//387
f 195//460 137//264 190//452
f 195//460 191//453 137//461
f 195//460 171//454 191//453
f 196//462 193//457 188//444
f 196//462 188//444 92//394
f 197//463 92//464 58//283
f 197//465 58//283 193//457
f 197//463 196//462 92//466
f 197//465 193//457 196//462
