# Blender 4.2.22 LTS
# www.blender.org
o right_lower_leg_collision
v 0.032580 -0.013276 -0.330000
v -0.003902 0.001298 0.053858
v -0.034867 0.005262 -0.330000
v 0.020830 0.019852 -0.315178
v -0.020050 -0.024624 -0.319984
v 0.036456 0.015664 -0.137241
v -0.022536 0.013080 0.033647
v 0.032275 0.014172 -0.330000
v 0.026020 -0.024052 -0.094227
v -0.028402 -0.021471 -0.330000
v -0.021394 0.019871 -0.315729
v 0.024821 0.020186 -0.089827
v -0.035200 -0.007360 -0.330000
v 0.039183 -0.002006 -0.169651
v 0.030676 0.015930 -0.326821
v 0.018028 -0.024987 -0.318214
v -0.021998 -0.016648 0.034096
v 0.014544 -0.005348 0.039336
v -0.030648 0.015293 -0.325996
v 0.029760 0.019409 -0.108348
v 0.010840 0.015047 0.006591
v -0.002011 0.020013 -0.079771
v -0.014053 0.020787 -0.310860
v -0.024483 -0.001606 0.033991
v 0.038252 0.013361 -0.172458
v 0.033238 -0.001467 -0.323185
v 0.038333 -0.017904 -0.161139
v 0.018238 0.020551 -0.313437
v -0.016020 -0.025049 -0.316412
v 0.028079 -0.021321 -0.330000
v -0.023710 -0.023473 -0.323461
v -0.030850 -0.019472 -0.330000
v 0.010559 -0.018754 0.006699
v -0.000854 -0.006471 0.052742
v -0.024019 0.011185 0.033852
v -0.029291 0.016673 -0.324339
v -0.030717 0.015188 -0.326057
v 0.014550 0.001909 0.039266
v 0.034794 0.017359 -0.133194
v 0.007903 0.003123 0.048575
v 0.012509 0.014923 0.002706
v -0.006217 0.019072 -0.068535
v -0.000960 0.015289 0.011957
v 0.002016 0.020273 -0.087160
v -0.016894 0.020699 -0.312569
v -0.035191 0.003227 -0.330000
v -0.023533 -0.015670 0.033584
v 0.035536 0.006577 -0.257368
v 0.037972 0.014340 -0.152065
v 0.037587 0.015120 -0.157409
v 0.033164 -0.004456 -0.323685
v 0.038571 -0.016587 -0.172051
v 0.034467 -0.020664 -0.123423
v 0.024770 0.019634 -0.227183
v 0.017647 0.020652 -0.313071
v 0.017263 -0.025051 -0.317461
v -0.003121 -0.023611 -0.077311
v 0.033423 -0.021878 -0.126260
v -0.026420 -0.018568 -0.150557
v -0.020955 -0.022741 -0.241271
v 0.005612 -0.007168 0.049520
v -0.023102 0.012707 0.034251
v -0.019153 -0.001508 0.046661
v -0.023567 0.019063 -0.317205
v 0.031602 0.015038 -0.328967
v -0.029397 0.008525 -0.150321
v 0.037925 -0.002013 -0.144005
v 0.033303 0.017589 -0.118036
v 0.023991 0.018675 -0.317297
v -0.021171 0.013013 0.034928
v 0.010437 0.003325 0.046130
v 0.004084 0.002075 0.052114
v 0.027350 0.019543 -0.094724
v -0.021868 0.016658 -0.149242
v 0.020325 0.019936 -0.078872
v -0.007173 0.015228 0.009982
v 0.000604 0.020742 -0.307242
v -0.017911 0.019832 -0.266580
v -0.009283 0.020470 -0.208715
v -0.032623 0.001969 -0.242566
v -0.032351 0.006122 -0.242578
v -0.029555 -0.012102 -0.150709
v 0.035239 0.013831 -0.252847
v 0.038387 0.013571 -0.161141
v 0.034036 0.015514 -0.245568
v 0.032249 -0.018538 -0.330000
v 0.034613 -0.012051 -0.279111
v 0.012382 -0.018422 0.003820
v 0.018486 0.020488 -0.313569
v 0.027287 0.018609 -0.239607
v 0.026720 0.020085 -0.097310
v 0.021343 -0.024612 -0.219644
v 0.022576 -0.024080 -0.089867
v -0.010456 -0.024356 -0.203119
v -0.001517 -0.018716 0.012218
v 0.029521 -0.023281 -0.105862
v 0.021025 -0.024116 -0.320372
v 0.033131 -0.020504 -0.237853
v 0.036375 -0.020040 -0.141741
v -0.026932 -0.022095 -0.327663
v -0.028775 -0.018937 -0.242707
v -0.022749 -0.023800 -0.322041
v -0.006584 -0.022684 -0.067905
v 0.012059 -0.006140 0.044232
v -0.020784 -0.015966 0.036377
v -0.026010 0.014932 -0.150609
v -0.027103 0.013872 -0.150324
v -0.022471 -0.001698 0.041527
v -0.020431 0.007219 0.044120
v -0.014779 -0.007582 0.050115
v -0.021923 0.018350 -0.240983
v 0.034925 0.014680 -0.245328
v -0.034637 0.005779 -0.328958
v -0.026678 0.009940 -0.058206
v 0.014612 -0.001888 0.039616
v 0.025598 0.008567 -0.048956
v 0.035954 -0.019963 -0.133016
v 0.037865 -0.018597 -0.151930
v 0.030239 0.018636 -0.104382
v 0.030217 0.016133 -0.325832
v 0.008450 0.015194 0.009088
v -0.021901 0.012309 0.036993
v 0.012979 0.003497 0.039995
v 0.001389 -0.001720 0.053372
v 0.000567 0.020539 -0.210314
v 0.020654 0.020457 -0.217221
v -0.014013 0.019579 -0.200565
v -0.000064 0.020197 -0.087096
v -0.029912 -0.004521 -0.150360
v -0.034880 -0.009564 -0.330000
v -0.025764 -0.015994 -0.058709
v 0.032639 0.016633 -0.233461
v 0.030403 -0.020421 -0.330000
v 0.038239 -0.017411 -0.173545
v 0.012549 -0.018763 0.000163
v 0.023123 0.020068 -0.226482
v 0.021603 0.020406 -0.220963
v -0.001217 -0.025059 -0.310880
v 0.019621 -0.024626 -0.217464
v 0.001130 -0.024045 -0.086992
v 0.020103 -0.023738 -0.078458
v -0.011865 -0.024191 -0.205186
v 0.004065 -0.018738 0.011710
v -0.007565 -0.018742 0.009831
v 0.023253 -0.024225 -0.224799
v 0.032486 -0.021502 -0.113204
v 0.028035 -0.023119 -0.096754
v 0.024995 -0.022580 -0.324454
v 0.025915 -0.023346 -0.235085
v 0.037299 -0.019372 -0.156164
v -0.022017 -0.018552 -0.057716
v -0.017102 -0.024250 -0.266771
v 0.009281 -0.006049 0.048266
v 0.013911 -0.006485 0.039164
v -0.022500 -0.014508 0.038415
v -0.024273 0.014006 -0.058481
v -0.023354 0.017830 -0.244791
v -0.023758 -0.001701 0.038051
v -0.012174 0.003496 0.051482
v -0.022173 0.009460 0.040293
v -0.009300 -0.005583 0.052760
v -0.013311 -0.010288 0.047025
v -0.032379 0.011114 -0.325720
v 0.026252 -0.002815 -0.052265
v 0.011193 -0.001743 0.046999
v 0.034124 0.016075 -0.120583
v 0.025629 0.006669 -0.048781
v 0.025249 -0.012656 -0.046840
v 0.022395 0.010273 -0.032558
v 0.002022 0.015173 0.012171
v 0.000337 0.003094 0.052423
v 0.012620 0.002290 0.044106
v -0.004790 -0.005604 0.053518
v 0.011970 0.020495 -0.211647
v -0.002388 0.020752 -0.307321
v 0.009079 0.020699 -0.308542
v -0.032442 -0.009814 -0.242711
v 0.031712 -0.021226 -0.229740
v 0.035197 -0.017998 -0.253185
v -0.013941 -0.025056 -0.315052
v 0.002076 -0.025054 -0.310875
v -0.000529 -0.024610 -0.209752
v 0.005445 -0.023627 -0.076928
v 0.007886 -0.018620 0.009835
v 0.024506 -0.013006 -0.042044
v 0.034273 -0.019587 -0.244936
v -0.021303 -0.020710 -0.149482
v 0.006821 -0.001731 0.051001
v 0.004114 -0.005947 0.051851
v 0.023199 -0.013994 -0.037020
v -0.023479 -0.014758 0.036043
v -0.020732 -0.010711 0.043802
v -0.026208 0.017952 -0.320006
v -0.018900 0.005757 0.046459
v -0.015382 -0.001699 0.049951
v -0.019662 0.008748 0.043541
v -0.023501 0.011434 0.035743
v -0.009123 0.002003 0.052865
v -0.020026 -0.012571 0.042838
v 0.007884 0.002066 0.049930
v 0.023927 0.009749 -0.039385
v 0.006266 0.015059 0.010896
v -0.004423 0.002694 0.053201
v -0.011701 -0.007851 0.050998
v 0.005247 0.020719 -0.307606
v 0.027363 -0.021627 -0.327663
v 0.035072 -0.018661 -0.247375
v -0.007709 -0.024580 -0.207976
v 0.009806 -0.024617 -0.210992
v -0.002543 -0.025059 -0.310951
v 0.007869 -0.005534 0.049942
v -0.022866 -0.012581 0.039629
v -0.017009 -0.009254 0.047791
v -0.015743 0.005353 0.048824
v -0.011397 0.004831 0.050773
v -0.017714 -0.012599 0.042829
v -0.014132 0.007254 0.046301
v -0.018310 0.009776 0.041696
vn -0.7306 -0.0519 -0.6808
vn 0.6134 0.4076 -0.6765
vn 0.6959 -0.0288 -0.7175
vn -0.6728 0.2749 -0.6868
vn -0.3133 -0.6765 -0.6665
vn 0.9976 0.0118 -0.0681
vn 0.6959 -0.0288 -0.7176
vn 0.6133 0.4076 -0.6766
vn 0.1150 0.9805 -0.1593
vn 0.3449 0.9181 -0.1953
vn -0.1692 0.9740 -0.1509
vn 0.2170 0.9687 -0.1210
vn 0.3449 0.9181 -0.1952
vn -0.0460 -0.9982 -0.0385
vn -0.1324 -0.9836 -0.1223
vn 0.1144 -0.9854 -0.1263
vn 0.1872 -0.6864 -0.7027
vn -0.3132 -0.6765 -0.6665
vn 0.1873 -0.6864 -0.7027
vn -0.1324 -0.9836 -0.1224
vn 0.1872 -0.6864 -0.7028
vn -0.3132 -0.6765 -0.6666
vn -0.2464 -0.9629 -0.1098
vn -0.6134 -0.4522 -0.6474
vn -0.3731 0.8815 -0.2894
vn -0.1691 0.9740 -0.1509
vn -0.6096 0.5624 -0.5587
vn -0.4965 0.7261 -0.4758
vn 0.6134 0.4075 -0.6765
vn -0.6095 0.5624 -0.5587
vn -0.6729 0.2748 -0.6868
vn 0.5809 0.8020 0.1395
vn 0.2242 0.9726 0.0609
vn 0.3720 0.9124 0.1709
vn -0.1797 0.9833 0.0280
vn -0.2922 0.9509 0.1017
vn -0.0877 0.9957 0.0289
vn -0.0751 0.9921 -0.1000
vn -0.7313 0.0575 -0.6796
vn 0.9981 0.0475 -0.0382
vn 0.9496 0.3124 -0.0277
vn 1.0000 0.0045 0.0001
vn 0.9981 0.0475 -0.0381
vn 0.6133 0.4076 -0.6765
vn 0.7367 0.6762 -0.0079
vn 0.5829 0.8121 0.0266
vn 0.9241 0.3743 0.0769
vn 0.7367 0.6762 -0.0080
vn 0.9462 0.3200 0.0489
vn 0.9983 -0.0226 -0.0545
vn 0.9983 -0.0226 -0.0544
vn 0.9827 -0.1843 -0.0179
vn 0.9388 -0.3444 0.0084
vn 0.0567 0.9919 -0.1134
vn -0.0751 0.9922 -0.1000
vn -0.0108 0.9998 -0.0192
vn 0.0567 0.9919 -0.1135
vn 0.0303 -0.9990 -0.0323
vn -0.6037 -0.7969 0.0213
vn -0.2465 -0.9629 -0.1097
vn -0.2770 -0.9385 0.2061
vn -0.8456 -0.5233 0.1057
vn -0.6135 -0.4522 -0.6475
vn -0.3132 -0.6764 -0.6666
vn -0.6439 0.7417 0.1879
vn -0.4965 0.7260 -0.4758
vn -0.3503 0.9363 -0.0258
vn -0.3731 0.8815 -0.2893
vn 0.3938 0.8481 -0.3545
vn -0.4964 0.7260 -0.4758
vn -0.9366 0.3496 0.0223
vn -0.6728 0.2748 -0.6869
vn -0.9562 0.2690 0.1149
vn 0.9959 -0.0017 0.0900
vn 0.9241 0.3742 0.0770
vn 0.9462 0.3199 0.0488
vn 0.7967 0.5965 0.0974
vn 0.4189 0.9073 0.0373
vn 0.7967 0.5964 0.0975
vn 0.3394 0.9402 -0.0294
vn 0.2170 0.9686 -0.1209
vn -0.0000 0.9703 0.2421
vn 0.0060 0.9965 0.0832
vn -0.2922 0.9509 0.1018
vn 0.5555 0.8236 0.1146
vn 0.2243 0.9726 0.0610
vn 0.5808 0.8020 0.1395
vn -0.2481 0.9686 0.0180
vn -0.1798 0.9833 0.0280
vn 0.0540 0.9972 0.0522
vn -0.0876 0.9957 0.0289
vn 0.0539 0.9972 0.0522
vn -0.0127 0.9998 0.0160
vn -0.0433 0.9975 0.0561
vn 0.0041 1.0000 -0.0006
vn -0.0108 0.9998 -0.0193
vn -0.2128 0.9770 0.0163
vn -0.1692 0.9740 -0.1508
vn -0.0554 0.9984 0.0063
vn -0.0555 0.9984 0.0063
vn -0.9994 0.0186 0.0296
vn -0.7312 0.0574 -0.6797
vn -0.7306 -0.0519 -0.6809
vn -0.9949 -0.0105 0.1004
vn -0.9563 0.2690 0.1150
vn -0.9563 0.2690 0.1149
vn -0.7313 0.0574 -0.6797
vn -0.9872 0.1570 0.0269
vn -0.7313 0.0575 -0.6797
vn -0.9872 0.1571 0.0269
vn -0.6728 0.2749 -0.6869
vn -0.9873 0.1567 0.0269
vn -0.7312 0.0575 -0.6797
vn -0.9761 -0.2158 0.0266
vn -0.8456 -0.5233 0.1056
vn 0.9450 0.3253 -0.0345
vn 0.9496 0.3123 -0.0277
vn 0.9449 0.3254 -0.0345
vn 0.9495 0.3124 -0.0277
vn 0.9639 0.2662 0.0045
vn 0.9462 0.3199 0.0489
vn 0.9639 0.2663 0.0045
vn 0.9495 0.3125 -0.0277
vn 0.6046 0.7963 -0.0208
vn 0.5828 0.8122 0.0266
vn 0.7366 0.6762 -0.0080
vn 0.6046 0.7962 -0.0208
vn 0.6933 -0.3127 -0.6492
vn 0.6959 -0.0289 -0.7176
vn 0.9827 -0.1844 -0.0179
vn 0.9985 -0.0400 -0.0386
vn 0.9985 -0.0400 -0.0387
vn 0.2216 0.9734 -0.0579
vn 0.4188 0.9073 0.0373
vn 0.2891 0.9573 -0.0103
vn 0.2890 0.9573 -0.0103
vn 0.3430 0.9393 -0.0133
vn 0.2170 0.9687 -0.1209
vn 0.3429 0.9393 -0.0133
vn 0.2642 0.9637 0.0383
vn 0.2242 0.9726 0.0610
vn 0.0957 -0.9954 0.0009
vn 0.1144 -0.9854 -0.1262
vn 0.2883 -0.9553 0.0649
vn -0.1021 -0.9947 0.0116
vn -0.0460 -0.9982 -0.0384
vn 0.2570 -0.9632 -0.0785
vn 0.1872 -0.6863 -0.7028
vn -0.4108 -0.9116 0.0154
vn -0.4108 -0.9116 0.0153
vn -0.3131 -0.6765 -0.6666
vn -0.2464 -0.9629 -0.1097
vn -0.6037 -0.7969 0.0212
vn -0.7648 -0.6439 0.0221
vn -0.6038 -0.7969 0.0213
vn -0.7646 -0.6441 0.0221
vn -0.6134 -0.4522 -0.6475
vn -0.7647 -0.6440 0.0221
vn -0.3019 -0.9533 -0.0106
vn -0.3018 -0.9533 -0.0106
vn -0.2860 -0.9580 0.0201
vn -0.3019 -0.9533 -0.0105
vn -0.2112 -0.9771 0.0254
vn -0.1059 -0.9938 0.0330
vn -0.0393 -0.9308 0.3633
vn 0.2868 -0.8461 0.4493
vn 0.1343 -0.6215 0.7718
vn -0.4720 0.8814 0.0178
vn -0.6438 0.7417 0.1879
vn -0.8269 0.5619 0.0213
vn -0.6095 0.5624 -0.5588
vn -0.6096 0.5623 -0.5588
vn -0.7457 0.3000 0.5949
vn -0.8962 0.0118 0.4436
vn -0.7524 -0.0055 0.6587
vn -0.3130 0.9496 0.0175
vn -0.3504 0.9363 -0.0258
vn -0.3129 0.9496 0.0175
vn -0.2923 0.9509 0.1017
vn -0.2127 0.9770 0.0163
vn 0.7701 0.6373 -0.0265
vn 0.7702 0.6373 -0.0265
vn 0.3937 0.8481 -0.3545
vn -0.9266 0.3757 0.0192
vn -0.9265 0.3757 0.0192
vn -0.9346 0.3550 0.0222
vn 0.9844 0.1165 0.1318
vn 0.9031 -0.4208 0.0859
vn 0.8655 -0.4893 0.1073
vn 0.5099 -0.8599 0.0245
vn 0.5100 -0.8599 0.0245
vn 0.6862 -0.7271 0.0194
vn 0.9328 -0.3577 0.0446
vn 0.9959 -0.0018 0.0900
vn 0.9031 -0.4207 0.0858
vn 0.9327 -0.3578 0.0446
vn 0.9031 -0.4207 0.0859
vn 0.6863 -0.7271 0.0194
vn 0.7234 0.6792 0.1237
vn 0.5556 0.8235 0.1146
vn 0.5809 0.8019 0.1395
vn 0.7234 0.6793 0.1237
vn 0.3530 0.9352 -0.0272
vn 0.3430 0.9393 -0.0134
vn 0.1797 0.9673 0.1789
vn -0.0000 0.9702 0.2421
vn 0.3176 0.8352 0.4491
vn 0.5311 0.7128 0.4581
vn 0.3176 0.8351 0.4491
vn 0.1796 0.9673 0.1788
vn 0.1797 0.9673 0.1788
vn -0.3078 0.8477 0.4321
vn -0.0001 0.9702 0.2421
vn -0.2923 0.9509 0.1018
vn -0.6438 0.7417 0.1880
vn 0.6525 0.7201 0.2360
vn 0.3721 0.9123 0.1709
vn 0.9142 0.3291 0.2364
vn 0.2313 -0.0226 0.9726
vn 0.3467 0.4535 0.8210
vn -0.0032 0.1982 0.9801
vn 0.0033 1.0000 0.0021
vn 0.0032 1.0000 0.0021
vn 0.0303 0.9995 0.0011
vn 0.2641 0.9637 0.0383
vn -0.2124 0.9771 0.0163
vn -0.2124 0.9770 0.0163
vn -0.0499 0.9987 0.0091
vn -0.9993 -0.0239 0.0298
vn -0.9994 0.0187 0.0296
vn -0.9761 -0.2159 0.0266
vn -0.7152 -0.1930 -0.6717
vn -0.6135 -0.4522 -0.6474
vn -0.7151 -0.1931 -0.6718
vn -0.9760 -0.2159 0.0266
vn -0.9038 -0.4273 0.0233
vn -0.9038 -0.4274 0.0233
vn 0.4466 0.8946 -0.0161
vn 0.4465 0.8946 -0.0161
vn 0.3430 0.9392 -0.0133
vn 0.4058 -0.6221 -0.6695
vn 0.6959 -0.0289 -0.7175
vn 0.6934 -0.3126 -0.6492
vn 0.9037 -0.4271 -0.0297
vn 0.3374 -0.9360 0.1007
vn 0.5990 -0.7867 0.1494
vn 0.3012 -0.9378 0.1729
vn 0.2883 -0.9553 0.0650
vn 0.2234 0.9747 -0.0071
vn 0.1150 0.9805 -0.1592
vn 0.1265 0.9920 -0.0027
vn 0.1266 0.9920 -0.0027
vn 0.0075 -1.0000 0.0041
vn 0.0956 -0.9954 0.0009
vn 0.2882 -0.9554 0.0650
vn 0.2883 -0.9554 0.0649
vn 0.0288 -0.9992 0.0262
vn 0.0303 -0.9990 -0.0322
vn -0.0338 -0.9992 0.0189
vn -0.1020 -0.9947 0.0116
vn 0.0687 -0.9960 0.0574
vn 0.2882 -0.9554 0.0649
vn 0.0688 -0.9960 0.0574
vn 0.0288 -0.9992 0.0263
vn -0.1729 -0.9848 0.0161
vn 0.0833 -0.9833 0.1615
vn -0.2769 -0.9385 0.2061
vn -0.0058 -0.9972 0.0751
vn 0.0833 -0.9834 0.1615
vn 0.0833 -0.9833 0.1616
vn -0.0392 -0.9308 0.3633
vn -0.0355 -0.9976 0.0587
vn -0.1058 -0.9938 0.0330
vn 0.2404 -0.9707 -0.0052
vn 0.4911 -0.8687 0.0652
vn 0.2570 -0.9632 -0.0784
vn 0.7985 -0.5913 0.1134
vn 0.4911 -0.8686 0.0652
vn 0.7985 -0.5913 0.1133
vn 0.8655 -0.4893 0.1074
vn 0.6562 -0.7436 0.1280
vn 0.5990 -0.7867 0.1495
vn 0.6563 -0.7436 0.1280
vn 0.7985 -0.5912 0.1134
vn 0.5991 -0.7866 0.1495
vn 0.3480 -0.9373 -0.0185
vn 0.3192 -0.9476 -0.0097
vn 0.5098 -0.8599 0.0245
vn 0.4910 -0.8687 0.0652
vn 0.3480 -0.9373 -0.0184
vn 0.6618 -0.7497 -0.0075
vn 0.6618 -0.7496 -0.0075
vn 0.4796 -0.8774 -0.0148
vn 0.6619 -0.7496 -0.0075
vn 0.9387 -0.3445 0.0084
vn -0.3278 -0.9445 0.0197
vn -0.2227 -0.9747 0.0192
vn -0.2112 -0.9771 0.0255
vn -0.1730 -0.9848 0.0161
vn 0.6258 -0.5701 0.5323
vn 0.2868 -0.8461 0.4492
vn 0.3012 -0.9377 0.1729
vn 0.6259 -0.5701 0.5322
vn 0.7200 -0.5518 0.4209
vn 0.7200 -0.6495 0.2444
vn 0.9283 -0.2594 0.2664
vn 0.7200 -0.5518 0.4208
vn 0.7200 -0.6496 0.2444
vn 0.7200 -0.5519 0.4209
vn 0.3013 -0.9377 0.1729
vn 0.5990 -0.7866 0.1495
vn -0.5493 -0.6930 0.4669
vn -0.2770 -0.9385 0.2062
vn -0.4710 0.8820 0.0177
vn -0.3922 0.9197 0.0168
vn -0.4709 0.8820 0.0177
vn -0.9648 0.0075 0.2630
vn -0.7878 0.3870 0.4792
vn -0.9647 0.0075 0.2631
vn 0.0193 -0.8748 0.4840
vn 0.1342 -0.6215 0.7718
vn -0.9252 0.3790 0.0210
vn -0.9251 0.3792 0.0213
vn -0.9251 0.3790 0.0208
vn 0.9916 -0.0297 0.1259
vn 0.9612 -0.0091 0.2756
vn 0.9283 -0.2593 0.2664
vn 0.9916 -0.0298 0.1259
vn 0.9916 -0.0292 0.1259
vn 0.8053 -0.0120 0.5927
vn 0.8053 -0.0119 0.5927
vn 0.9612 -0.0091 0.2757
vn 0.6259 -0.5701 0.5323
vn 0.9641 0.2313 0.1308
vn 0.9844 0.1166 0.1318
vn 0.9640 0.2313 0.1308
vn 0.9241 0.3742 0.0769
vn 0.9917 0.0259 0.1259
vn 0.9917 0.0258 0.1259
vn 0.9851 -0.1108 0.1318
vn 0.8317 0.5337 0.1530
vn 0.7967 0.5964 0.0974
vn 0.0529 0.9906 0.1260
vn 0.0530 0.9906 0.1260
vn 0.1674 0.7040 0.6902
vn 0.1674 0.7039 0.6903
vn -0.0000 0.9702 0.2422
vn -0.0032 0.1983 0.9801
vn 0.8173 0.3929 0.4215
vn 0.8173 0.3928 0.4215
vn 0.9142 0.3290 0.2364
vn -0.0373 -0.3765 0.9257
vn 0.2313 -0.0227 0.9726
vn -0.0033 0.1982 0.9802
vn -0.0374 -0.3765 0.9257
vn -0.2569 -0.2328 0.9380
vn 0.0047 1.0000 0.0020
vn 0.0034 1.0000 0.0021
vn 0.0048 1.0000 0.0020
vn 0.0041 1.0000 -0.0005
vn 0.0051 1.0000 0.0020
vn 0.0302 0.9995 0.0011
vn 0.0029 1.0000 0.0008
vn 0.0030 1.0000 0.0008
vn 0.0039 1.0000 -0.0007
vn 0.0031 1.0000 0.0021
vn 0.0056 1.0000 0.0005
vn -0.9933 -0.1123 0.0284
vn -0.7152 -0.1931 -0.6718
vn -0.9933 -0.1122 0.0284
vn -0.7152 -0.1930 -0.6718
vn 0.3754 -0.9268 -0.0121
vn 0.4058 -0.6221 -0.6696
vn 0.3755 -0.9268 -0.0121
vn 0.4058 -0.6220 -0.6696
vn 0.9283 -0.3704 -0.0330
vn 0.6934 -0.3126 -0.6493
vn 0.9283 -0.3705 -0.0330
vn -0.0027 -1.0000 0.0006
vn 0.0004 -1.0000 0.0020
vn 0.0017 -1.0000 0.0038
vn 0.0003 -1.0000 0.0019
vn 0.0016 -1.0000 0.0036
vn -0.0017 -1.0000 0.0045
vn -0.0338 -0.9993 0.0189
vn -0.0032 -0.9988 0.0491
vn 0.1803 -0.9607 0.2110
vn 0.3012 -0.9378 0.1728
vn 0.1804 -0.9607 0.2110
vn -0.0393 -0.9309 0.3633
vn 0.9487 -0.2820 0.1427
vn 0.9488 -0.2819 0.1427
vn 0.9851 -0.1109 0.1318
vn 0.9488 -0.2820 0.1427
vn 0.6463 -0.7628 -0.0205
vn 0.4796 -0.8773 -0.0148
vn 0.6462 -0.7629 -0.0205
vn 0.6933 -0.3126 -0.6493
vn -0.3279 -0.9445 0.0197
vn 0.5366 -0.0094 0.8438
vn 0.2314 -0.0226 0.9726
vn 0.3192 -0.4847 0.8144
vn 0.3192 -0.4846 0.8144
vn 0.2314 -0.0227 0.9726
vn 0.8340 -0.5298 0.1539
vn 0.7200 -0.6495 0.2443
vn 0.8340 -0.5299 0.1539
vn -0.8687 -0.4344 0.2380
vn -0.5493 -0.6930 0.4668
vn -0.7265 -0.2947 0.6208
vn -0.7524 -0.0056 0.6587
vn -0.8961 0.0118 0.4436
vn -0.4024 0.9153 0.0162
vn -0.4023 0.9154 0.0161
vn -0.3732 0.8815 -0.2893
vn -0.4024 0.9153 0.0161
vn -0.6493 0.2846 0.7053
vn -0.5558 0.0086 0.8313
vn -0.4620 -0.3255 0.8250
vn -0.5557 0.0086 0.8313
vn -0.2570 -0.2328 0.9380
vn -0.3582 0.3040 0.8828
vn -0.5557 0.0086 0.8314
vn -0.4620 -0.3254 0.8250
vn -0.3271 0.7378 0.5905
vn -0.7877 0.3871 0.4792
vn -0.7456 0.3001 0.5949
vn -0.3078 0.8476 0.4321
vn -0.6493 0.2847 0.7053
vn -0.8611 0.3847 0.3325
vn -0.8611 0.3847 0.3324
vn -0.7878 0.3871 0.4792
vn -0.9562 0.2690 0.1150
vn -0.2455 0.2286 0.9420
vn -0.2456 0.2286 0.9420
vn -0.3267 -0.7467 0.5794
vn -0.3268 -0.7466 0.5794
vn -0.7264 -0.2948 0.6208
vn -0.5494 -0.6930 0.4669
vn 0.5598 0.4047 0.7230
vn 0.5311 0.7128 0.4582
vn 0.5599 0.4047 0.7230
vn 0.5598 0.4047 0.7231
vn 0.8053 -0.0119 0.5928
vn 0.5367 -0.0094 0.8437
vn 0.3176 0.8351 0.4492
vn 0.3468 0.4535 0.8210
vn 0.5599 0.4047 0.7231
vn 0.5367 -0.0093 0.8437
vn 0.9068 0.3950 0.1475
vn 0.8318 0.5336 0.1530
vn 0.1135 0.9711 0.2100
vn -0.0094 0.5970 0.8022
vn -0.2456 0.2287 0.9420
vn -0.0033 0.1983 0.9801
vn -0.3581 0.3041 0.8828
vn -0.2455 0.2287 0.9420
vn -0.1443 -0.6600 0.7373
vn -0.2569 -0.2329 0.9380
vn -0.4619 -0.3255 0.8250
vn -0.1442 -0.6600 0.7373
vn 0.0193 -0.8748 0.4841
vn 0.0052 1.0000 0.0005
vn 0.0056 1.0000 0.0006
vn 0.0052 1.0000 0.0006
vn 0.0050 1.0000 0.0020
vn 0.3591 -0.9332 -0.0121
vn 0.3591 -0.9332 -0.0122
vn 0.3592 -0.9332 -0.0121
vn 0.1873 -0.6863 -0.7028
vn 0.8193 -0.5727 -0.0285
vn 0.9037 -0.4272 -0.0297
vn 0.8192 -0.5727 -0.0285
vn 0.9388 -0.3445 0.0084
vn 0.8192 -0.5728 -0.0285
vn 0.6933 -0.3127 -0.6493
vn -0.0147 -0.9999 0.0055
vn -0.0146 -0.9999 0.0055
vn -0.0016 -1.0000 0.0045
vn 0.0008 -1.0000 0.0043
vn 0.0017 -1.0000 0.0037
vn 0.0007 -1.0000 0.0044
vn 0.0004 -1.0000 0.0019
vn 0.0017 -1.0000 0.0036
vn 0.0010 -1.0000 0.0043
vn 0.0009 -1.0000 0.0043
vn 0.0287 -0.9992 0.0262
vn -0.0006 -1.0000 0.0020
vn -0.0015 -1.0000 0.0046
vn 0.5594 -0.3782 0.7376
vn 0.8053 -0.0120 0.5928
vn 0.5593 -0.3783 0.7376
vn 0.5594 -0.3783 0.7376
vn 0.3192 -0.4847 0.8143
vn -0.8704 -0.2530 0.4224
vn -0.9648 0.0075 0.2631
vn -0.8704 -0.2529 0.4224
vn -0.8687 -0.4344 0.2381
vn -0.7265 -0.2948 0.6208
vn -0.4861 -0.4723 0.7353
vn -0.4862 -0.4723 0.7352
vn -0.4861 -0.4723 0.7352
vn -0.4861 -0.4724 0.7352
vn -0.3267 -0.7467 0.5795
vn -0.1443 -0.6600 0.7372
vn -0.4227 0.4621 0.7796
vn -0.5557 0.0087 0.8313
vn -0.4226 0.4622 0.7796
vn -0.0860 0.7395 0.6676
vn 0.1673 0.7040 0.6902
vn -0.0861 0.7395 0.6676
vn -0.3270 0.7378 0.5905
vn -0.0861 0.7395 0.6677
vn -0.3582 0.3041 0.8828
vn -0.0860 0.7395 0.6677
vn 0.0153 -0.8849 0.4655
vn 0.0497 0.8934 0.4464
vn 0.0230 0.8870 0.4612
vn -0.3077 0.8477 0.4321
vn -0.3270 0.7379 0.5905
vn 0.0231 0.8870 0.4612
s 0
f 13//1 8//2 1//3
f 13//1 3//4 8//2
f 13//1 1//3 10//5
f 26//6 1//7 8//8
f 28//9 15//10 11//11
f 28//9 4//12 15//13
f 29//14 5//15 16//16
f 30//17 10//18 1//3
f 30//19 16//16 5//20
f 30//21 5//20 10//22
f 31//23 10//22 5//20
f 32//24 13//1 10//18
f 36//25 11//26 15//10
f 37//27 19//28 8//29
f 37//30 8//2 3//31
f 41//32 12//33 21//34
f 42//35 7//36 22//37
f 45//38 42//35 22//37
f 46//39 3//31 13//1
f 48//40 25//41 14//42
f 48//43 26//6 8//44
f 48//40 14//42 26//6
f 50//45 39//46 6//47
f 50//48 6//47 49//49
f 51//50 26//6 14//42
f 51//51 1//7 26//6
f 52//52 14//42 27//53
f 55//54 45//55 23//56
f 55//57 28//9 11//26
f 55//54 11//11 45//38
f 56//58 29//14 16//16
f 59//59 31//60 17//61
f 59//59 17//61 47//62
f 59//59 32//63 10//64
f 62//65 36//25 19//66
f 64//67 11//11 36//68
f 65//69 36//25 15//10
f 65//69 8//2 19//70
f 65//69 19//66 36//68
f 66//71 3//72 35//73
f 67//74 49//49 6//75
f 67//74 14//42 49//76
f 68//77 39//46 20//78
f 68//79 6//47 39//46
f 69//80 15//13 4//81
f 70//82 43//83 7//84
f 73//85 12//86 41//87
f 74//88 7//36 42//89
f 75//90 22//91 43//83
f 75//92 44//93 22//91
f 75//90 12//33 44//93
f 76//94 43//83 22//91
f 76//94 22//37 7//36
f 76//94 7//84 43//83
f 77//95 55//54 23//96
f 78//97 45//38 11//98
f 79//99 44//93 23//56
f 79//100 23//56 45//38
f 79//100 45//55 22//37
f 80//101 46//102 13//103
f 80//101 24//104 35//105
f 80//101 35//106 46//107
f 81//108 46//109 35//105
f 81//110 35//106 3//111
f 81//112 3//111 46//113
f 82//114 47//115 24//104
f 83//116 48//40 8//44
f 83//116 25//117 48//40
f 83//118 50//48 25//119
f 84//120 49//121 14//42
f 84//120 14//42 25//41
f 84//122 50//48 49//49
f 84//122 25//123 50//48
f 85//124 39//125 50//126
f 85//124 65//69 15//10
f 85//127 50//126 65//69
f 86//128 1//129 52//130
f 87//131 51//51 14//42
f 87//131 14//42 52//52
f 87//131 52//52 1//7
f 87//132 1//129 51//51
f 89//133 20//134 54//135
f 89//133 54//136 4//12
f 89//133 4//12 28//9
f 90//137 4//138 54//135
f 90//139 54//135 20//134
f 90//137 20//134 39//125
f 90//137 69//80 4//138
f 91//140 73//85 20//78
f 91//140 12//141 73//85
f 92//142 56//58 16//143
f 92//142 16//143 9//144
f 94//145 5//15 29//146
f 97//147 16//16 30//148
f 100//149 59//59 10//64
f 100//150 10//151 31//23
f 100//149 31//152 59//153
f 101//154 59//155 47//62
f 101//156 47//62 32//157
f 101//158 32//157 59//59
f 102//159 31//23 5//15
f 102//160 5//15 60//161
f 102//162 17//61 31//152
f 103//163 57//164 17//61
f 105//165 61//166 34//167
f 106//168 36//68 62//169
f 107//170 37//171 35//73
f 107//170 35//73 62//65
f 107//170 62//65 19//66
f 107//170 19//70 37//172
f 109//173 108//174 63//175
f 111//176 11//98 64//177
f 111//178 7//179 74//88
f 111//176 78//180 11//98
f 111//178 74//88 78//97
f 112//181 65//69 50//48
f 112//182 8//44 65//183
f 112//181 83//118 8//8
f 112//181 50//48 83//118
f 113//184 37//171 3//111
f 113//185 3//111 66//71
f 114//186 66//71 35//73
f 114//186 35//73 37//30
f 114//186 37//171 66//71
f 116//187 67//74 6//75
f 117//188 53//189 58//190
f 117//188 58//191 99//192
f 118//193 27//53 14//42
f 118//193 14//42 67//74
f 118//193 67//194 117//195
f 118//196 117//197 99//198
f 119//199 73//200 41//201
f 119//202 68//77 20//78
f 119//202 20//78 73//85
f 120//203 15//13 69//80
f 120//203 69//80 90//204
f 121//205 70//206 40//207
f 121//205 71//208 21//34
f 121//205 40//209 71//208
f 121//210 75//90 43//83
f 121//211 21//34 12//33
f 121//210 12//33 75//90
f 122//212 70//213 7//214
f 122//212 7//214 62//215
f 123//216 41//201 21//217
f 123//216 21//217 71//208
f 123//216 38//218 41//201
f 124//219 72//220 2//221
f 125//222 44//93 12//33
f 125//223 23//56 44//93
f 126//224 12//33 91//225
f 127//226 42//35 45//55
f 127//227 45//38 78//180
f 127//227 78//97 74//88
f 127//227 74//88 42//35
f 128//228 79//100 22//37
f 128//228 22//37 44//93
f 128//228 44//93 79//100
f 129//229 80//230 13//103
f 129//229 24//104 80//230
f 129//229 82//231 24//104
f 129//229 13//103 82//231
f 130//232 13//1 32//233
f 130//234 32//157 82//235
f 131//236 82//235 32//157
f 131//237 32//157 47//62
f 131//237 47//62 82//235
f 132//238 85//124 15//13
f 132//238 39//125 85//124
f 132//239 15//13 120//203
f 132//238 120//203 90//240
f 132//238 90//240 39//125
f 133//241 30//17 1//242
f 133//241 1//3 86//243
f 134//244 52//130 27//53
f 135//245 88//246 33//247
f 135//245 33//247 9//248
f 135//245 9//248 88//246
f 136//249 89//133 28//250
f 136//249 20//134 89//133
f 137//251 28//250 55//54
f 137//252 136//249 28//250
f 137//251 126//224 91//225
f 137//251 55//54 126//224
f 137//252 91//225 20//134
f 137//252 20//134 136//249
f 139//253 92//254 9//255
f 139//253 9//256 93//257
f 139//253 56//258 92//142
f 140//259 94//260 29//146
f 140//259 57//164 94//145
f 141//261 93//257 9//262
f 141//263 9//144 33//247
f 141//261 140//259 93//264
f 142//265 94//145 57//164
f 142//265 5//15 94//145
f 143//266 17//267 95//268
f 143//269 141//261 33//247
f 143//266 95//268 141//261
f 143//270 105//271 17//61
f 144//272 95//268 17//61
f 144//272 17//61 57//273
f 144//272 57//273 95//268
f 145//274 96//275 9//144
f 145//274 9//144 16//143
f 145//274 16//143 97//276
f 146//277 96//278 58//190
f 146//279 58//190 53//280
f 147//281 88//282 9//248
f 147//281 9//248 96//275
f 147//283 146//284 88//285
f 147//283 96//278 146//277
f 148//286 97//147 30//148
f 149//287 58//288 96//289
f 149//287 148//290 58//190
f 149//287 97//276 148//290
f 149//287 145//274 97//276
f 149//287 96//275 145//274
f 150//291 99//192 58//190
f 150//292 58//190 98//293
f 150//292 118//196 99//198
f 150//294 27//295 118//196
f 151//296 17//61 102//162
f 152//297 57//164 103//298
f 152//297 103//163 17//61
f 152//297 60//161 5//15
f 152//297 5//15 142//299
f 152//297 142//265 57//164
f 153//300 61//301 33//302
f 153//303 33//302 104//304
f 154//305 18//306 104//307
f 154//308 104//309 33//310
f 154//308 33//302 88//311
f 155//312 17//313 105//165
f 156//314 106//168 62//169
f 156//314 62//169 7//214
f 157//315 36//68 106//168
f 157//315 106//168 156//316
f 157//315 156//316 7//179
f 157//315 111//176 64//177
f 157//315 7//179 111//176
f 158//317 35//105 24//104
f 160//318 108//174 109//173
f 160//318 158//319 108//174
f 162//320 105//165 34//321
f 163//322 113//184 66//71
f 163//323 66//71 37//171
f 163//324 37//171 113//185
f 164//325 115//326 18//327
f 164//328 18//327 67//194
f 164//329 67//194 115//326
f 165//330 104//304 18//327
f 165//331 18//327 115//332
f 165//330 153//333 104//304
f 166//334 38//218 116//335
f 166//336 116//335 6//337
f 166//336 6//47 68//79
f 167//338 115//326 67//74
f 167//339 67//74 116//187
f 167//338 116//187 38//218
f 167//338 38//218 115//326
f 168//340 117//197 67//194
f 168//340 67//194 18//327
f 169//341 119//199 41//201
f 169//341 41//201 38//218
f 169//341 68//342 119//199
f 170//343 121//210 43//83
f 170//344 43//83 70//82
f 171//345 72//220 40//209
f 171//346 40//209 70//206
f 171//346 70//347 122//212
f 171//346 2//348 72//220
f 172//349 123//216 71//208
f 172//349 38//218 123//216
f 172//350 165//331 115//326
f 172//350 115//326 38//351
f 173//352 124//353 2//354
f 173//352 34//167 124//353
f 173//355 2//354 161//356
f 174//357 125//358 12//33
f 174//359 77//360 125//223
f 174//361 12//33 126//362
f 175//363 125//222 77//95
f 175//364 77//365 23//56
f 175//364 23//56 125//366
f 176//367 126//224 55//54
f 177//368 130//369 82//231
f 177//370 82//114 13//103
f 177//368 13//103 130//371
f 178//372 133//373 98//293
f 178//374 98//293 58//190
f 178//374 30//148 133//375
f 178//372 58//190 148//286
f 179//376 86//377 52//130
f 179//378 52//130 134//244
f 180//379 29//14 56//58
f 180//379 56//58 138//380
f 181//381 138//382 56//58
f 181//383 56//58 139//253
f 182//384 93//257 140//385
f 183//386 141//261 95//268
f 183//386 95//268 57//273
f 183//386 57//273 140//259
f 183//386 140//259 141//261
f 184//387 143//266 33//388
f 184//389 33//247 61//301
f 184//387 61//301 105//271
f 184//387 105//390 143//270
f 185//391 146//284 53//280
f 185//391 18//306 146//284
f 185//392 168//393 18//327
f 185//394 53//280 117//197
f 185//394 117//197 168//393
f 186//395 150//292 98//396
f 186//397 98//396 133//375
f 186//395 133//373 86//398
f 187//161 17//61 151//399
f 187//161 151//399 102//162
f 187//161 102//162 60//161
f 187//161 152//297 17//61
f 187//161 60//161 152//297
f 188//400 72//220 124//401
f 189//402 34//167 61//166
f 189//403 188//400 124//404
f 189//403 124//353 34//167
f 190//405 146//284 18//306
f 190//405 18//306 154//406
f 190//407 154//406 88//285
f 190//405 88//285 146//284
f 191//408 47//62 17//61
f 191//408 17//61 155//409
f 191//408 158//317 24//104
f 191//408 24//104 47//62
f 192//410 63//411 108//412
f 193//413 157//315 64//177
f 193//414 64//177 36//415
f 193//416 36//68 157//315
f 194//417 109//173 63//411
f 195//418 63//411 110//419
f 195//418 194//417 63//175
f 195//420 161//421 159//422
f 195//423 110//424 161//421
f 196//425 160//426 109//427
f 196//425 122//428 160//426
f 196//425 109//427 194//429
f 197//430 35//105 158//317
f 197//431 158//319 160//432
f 197//431 62//65 35//433
f 197//431 160//426 122//212
f 197//431 122//212 62//215
f 198//434 161//421 2//354
f 198//435 159//422 161//421
f 199//436 155//312 105//165
f 199//437 192//438 155//439
f 200//440 71//441 40//209
f 200//442 172//349 71//208
f 200//443 165//444 172//350
f 200//443 188//445 165//444
f 200//440 40//446 72//447
f 200//448 72//447 188//449
f 201//450 166//336 68//79
f 201//450 38//218 166//336
f 201//450 169//341 38//218
f 201//450 68//79 169//451
f 202//452 170//344 70//206
f 202//452 70//206 121//205
f 202//452 121//210 170//343
f 203//453 2//348 171//346
f 203//453 198//454 2//455
f 203//453 159//456 198//457
f 204//458 173//355 161//459
f 204//458 161//421 110//460
f 204//461 199//436 162//462
f 204//458 162//320 34//167
f 204//461 34//167 173//355
f 205//463 126//224 176//464
f 205//463 176//367 55//54
f 205//465 55//54 77//95
f 205//463 77//95 174//361
f 205//463 174//466 126//224
f 206//467 178//372 148//290
f 206//468 148//290 30//148
f 206//469 30//470 178//372
f 207//471 179//378 134//472
f 207//473 134//244 27//474
f 207//471 86//128 179//378
f 207//475 186//395 86//476
f 207//475 27//295 150//294
f 207//475 150//294 186//395
f 208//477 140//259 29//14
f 208//478 29//146 180//379
f 208//478 182//479 140//259
f 208//477 180//379 182//479
f 209//480 181//481 139//253
f 209//480 139//253 93//257
f 209//482 138//483 181//484
f 209//485 182//479 138//380
f 209//486 93//487 182//479
f 210//488 182//489 180//379
f 210//488 180//379 138//380
f 210//488 138//483 182//384
f 211//490 153//333 165//491
f 211//490 165//444 188//445
f 211//492 188//445 189//402
f 211//493 189//494 61//166
f 211//493 61//166 153//300
f 212//495 108//174 158//496
f 212//495 158//317 191//408
f 212//497 192//410 108//412
f 212//495 191//498 155//439
f 212//495 155//439 192//499
f 213//500 110//424 63//411
f 213//501 63//411 192//410
f 213//502 192//410 199//437
f 213//503 204//458 110//460
f 213//503 199//504 204//505
f 214//506 195//507 159//422
f 214//508 194//417 195//507
f 214//508 196//425 194//417
f 215//509 203//453 171//510
f 215//511 196//512 214//508
f 215//513 214//508 159//514
f 215//515 159//514 203//453
f 216//516 199//436 105//165
f 216//516 105//165 162//320
f 216//516 162//320 199//436
f 217//517 215//509 171//345
f 217//517 171//345 122//212
f 218//518 122//519 196//520
f 218//518 196//512 215//509
f 218//521 217//517 122//212
f 218//518 215//509 217//517
