# Blender 4.2.22 LTS
# www.blender.org
o right_upper_leg_collision
v 0.025371 -0.021148 -0.353878
v 0.008331 0.017159 0.083817
v -0.046329 -0.049235 0.007031
v -0.040306 0.072641 0.003635
v 0.059243 -0.037883 0.020526
v -0.059224 0.014928 0.048249
v -0.005984 -0.055234 0.059037
v 0.033605 0.082208 -0.003741
v -0.005237 0.072495 0.040042
v -0.047251 0.000213 -0.255339
v 0.033133 -0.019013 0.074952
v 0.000218 -0.058981 -0.295659
v -0.038735 -0.043822 0.056246
v 0.055676 0.031027 -0.331161
v -0.035795 0.015152 0.076001
v -0.032122 0.081077 0.015276
v 0.019625 0.073199 0.035206
v -0.055034 0.010832 -0.138483
v 0.025428 -0.056391 0.048495
v -0.013392 -0.030070 0.077321
v 0.057386 0.022895 0.035847
v -0.013224 -0.066885 -0.060281
v -0.009797 -0.044900 -0.326406
v 0.052356 -0.051741 -0.307921
v -0.058193 -0.024459 0.046344
v -0.028726 -0.059625 0.017425
v 0.008149 0.030372 -0.348479
v -0.012895 0.020419 0.081771
v -0.057824 0.020536 0.046228
v 0.015932 0.021482 0.080557
v 0.001095 0.083777 0.008216
v -0.049629 0.012453 -0.220889
v 0.016561 -0.035789 0.074473
v 0.045716 -0.037246 0.055719
v -0.038355 -0.019383 0.072042
v 0.059035 0.032482 0.020489
v -0.019837 -0.055058 -0.279923
v 0.043391 -0.051008 -0.344262
v 0.057677 -0.028011 -0.310936
v 0.029026 -0.061548 -0.005577
v 0.036947 -0.058799 -0.310483
v -0.060593 0.000103 0.038433
v -0.058361 -0.009621 -0.049398
v -0.039504 -0.056729 -0.059594
v 0.000881 -0.065930 0.005746
v 0.039314 0.028085 -0.350298
v -0.017789 0.025094 -0.313975
v 0.008533 -0.044873 -0.348916
v 0.016514 0.042780 -0.337876
v -0.017970 -0.010800 0.080755
v 0.040291 0.027342 0.060819
v 0.032827 0.015446 0.077871
v -0.051213 0.009440 -0.207834
v 0.005842 -0.018684 0.081280
v 0.049316 -0.022657 0.060185
v -0.041523 0.004144 0.073893
v 0.040067 0.072991 0.003836
v 0.059099 0.000031 0.033462
v -0.012176 -0.060249 -0.211405
v -0.004950 -0.050705 -0.329794
v -0.033893 -0.037357 -0.282997
v 0.056163 -0.043420 -0.332456
v 0.058707 0.014858 -0.316009
v 0.050525 -0.047833 0.008203
v 0.000830 -0.064600 -0.141445
v -0.059230 -0.017673 0.048224
v -0.058322 0.005206 -0.049667
v -0.047560 -0.046142 -0.070155
v -0.027263 -0.059074 -0.141383
v 0.015021 -0.066317 -0.072192
v 0.023404 0.029709 -0.353229
v 0.038759 -0.033310 -0.350936
v -0.002151 0.015298 -0.340753
v -0.029559 0.029859 -0.286162
v 0.036499 0.044582 -0.310646
v -0.012019 0.080004 -0.034488
v 0.042981 0.035258 -0.342721
v -0.019608 0.014902 0.082156
v 0.025522 0.004225 0.080148
v 0.044924 0.000505 0.071646
v -0.055340 0.007502 -0.138291
v 0.000906 0.006573 0.083814
v 0.060120 0.028020 0.008192
v 0.012933 -0.053508 -0.345210
v -0.017747 -0.026986 -0.313955
v -0.031602 0.000966 -0.289655
v -0.029177 -0.045623 -0.286847
v 0.059593 -0.034597 -0.039877
v 0.055471 -0.046365 -0.307630
v 0.054253 -0.020753 -0.337525
v 0.055821 0.017236 -0.334400
v 0.040899 -0.055944 -0.072238
v -0.048981 -0.044786 -0.004884
v -0.049419 -0.040163 -0.073154
v 0.026350 0.016870 -0.353831
v 0.014435 0.025675 -0.352359
v 0.022719 -0.043312 -0.353367
v -0.009670 0.030482 -0.325891
v 0.002653 -0.024996 -0.345588
v -0.046141 0.004949 -0.256034
v -0.027694 0.033345 -0.285213
v -0.049912 -0.004935 -0.207705
v 0.060117 -0.028581 0.008060
v 0.057521 0.026709 -0.311452
v -0.042142 -0.020964 -0.266370
v -0.038392 -0.041228 -0.220957
v -0.030257 -0.052930 -0.210027
v 0.039954 0.014540 -0.350061
v 0.020950 0.015323 -0.353787
v 0.013262 -0.024884 -0.351790
v 0.002817 0.025252 -0.345570
v -0.004307 0.034494 -0.329218
v -0.019635 0.037969 -0.283314
v -0.052310 -0.016349 -0.138117
v 0.060156 -0.000106 -0.004066
v -0.045593 -0.022067 -0.220340
v -0.039449 -0.050378 -0.139486
v 0.009390 0.015230 -0.350295
v -0.046878 -0.036420 -0.138340
vn -0.4691 0.8453 0.2559
vn -0.5016 0.3413 0.7949
vn -0.1043 0.7860 0.6094
vn -0.1807 -0.4276 0.8857
vn -0.5403 -0.6801 0.4955
vn -0.0984 -0.8450 0.5257
vn -0.8825 -0.3751 0.2837
vn -0.7268 -0.6833 0.0697
vn -0.5403 -0.6801 0.4954
vn -0.3679 -0.9188 0.1432
vn -0.5403 -0.6802 0.4954
vn -0.7268 -0.6834 0.0696
vn -0.0984 -0.8450 0.5256
vn -0.1461 0.4499 0.8811
vn -0.8611 0.4053 0.3069
vn -0.8244 0.5660 0.0002
vn -0.9750 0.2169 -0.0481
vn -0.9183 0.2009 0.3413
vn -0.8244 0.5659 0.0001
vn -0.9182 0.2009 0.3413
vn -0.4691 0.8452 0.2559
vn 0.1957 0.5014 0.8428
vn 0.3485 0.7805 0.5191
vn -0.1042 0.7860 0.6094
vn 0.0758 0.2594 0.9628
vn 0.0164 0.9917 0.1278
vn -0.1042 0.7861 0.6093
vn -0.1042 0.7860 0.6093
vn 0.3485 0.7805 0.5190
vn 0.0164 0.9917 0.1277
vn 0.4655 0.8824 0.0688
vn -0.9400 0.3231 -0.1099
vn -0.8244 0.5660 0.0001
vn 0.2136 -0.5171 0.8289
vn 0.3277 -0.8665 0.3766
vn 0.2136 -0.5170 0.8289
vn -0.1806 -0.4276 0.8857
vn -0.0984 -0.8449 0.5257
vn 0.6633 -0.5500 0.5075
vn 0.3278 -0.8665 0.3766
vn 0.8872 -0.4316 0.1630
vn 0.2137 -0.5171 0.8289
vn 0.3278 -0.8664 0.3766
vn 0.4242 -0.2715 0.8639
vn 0.2137 -0.5170 0.8289
vn -0.5342 -0.2853 0.7958
vn -0.1807 -0.4275 0.8857
vn -0.5342 -0.2853 0.7957
vn -0.8825 -0.3750 0.2837
vn 0.2076 -0.9741 -0.0899
vn 0.6655 -0.7451 -0.0450
vn 0.3539 -0.9336 0.0569
vn 0.4621 -0.6555 -0.5973
vn 0.6654 -0.7451 -0.0450
vn -0.5930 -0.8051 -0.0136
vn -0.7268 -0.6833 0.0696
vn -0.1755 -0.9845 -0.0033
vn -0.3678 -0.9188 0.1432
vn 0.0008 -0.9953 0.0972
vn 0.0007 -0.9953 0.0972
vn 0.3538 -0.9336 0.0569
vn -0.1754 -0.9845 -0.0033
vn -0.2072 -0.1412 0.9680
vn -0.1807 -0.4275 0.8858
vn 0.4778 0.2990 0.8261
vn 0.1957 0.5013 0.8428
vn 0.0759 0.2594 0.9628
vn 0.4778 0.2990 0.8260
vn 0.6811 0.4876 0.5463
vn 0.3485 0.7804 0.5191
vn -0.9945 0.0829 -0.0643
vn -0.9749 0.0120 -0.2224
vn 0.0693 -0.2065 0.9760
vn 0.4241 -0.2714 0.8640
vn 0.0692 -0.2065 0.9760
vn -0.1806 -0.4275 0.8858
vn 0.0692 -0.2064 0.9760
vn -0.2072 -0.1412 0.9681
vn 0.8186 -0.2208 0.5302
vn 0.8873 -0.4315 0.1630
vn 0.6633 -0.5499 0.5075
vn -0.6178 0.0195 0.7861
vn -0.6177 0.0195 0.7862
vn -0.5342 -0.2852 0.7958
vn 0.7840 0.5831 0.2128
vn 0.9251 0.3255 0.1955
vn 0.8139 0.4902 -0.3119
vn 0.7840 0.5832 0.2128
vn 0.4656 0.8823 0.0688
vn 0.7840 0.5832 0.2129
vn 0.3486 0.7805 0.5190
vn 0.7840 0.5831 0.2129
vn 0.6811 0.4876 0.5462
vn 0.9029 0.2691 0.3353
vn 0.9028 0.2691 0.3354
vn 0.9792 -0.0036 0.2031
vn 0.9029 0.2690 0.3353
vn 0.8187 -0.2208 0.5302
vn -0.2302 -0.9721 -0.0444
vn -0.4712 -0.8746 -0.1140
vn -0.1672 -0.9801 -0.1070
vn -0.2303 -0.9721 -0.0444
vn -0.6080 -0.6712 -0.4240
vn -0.1673 -0.9801 -0.1071
vn -0.8291 -0.2312 -0.5090
vn -0.5120 -0.2993 -0.8051
vn 0.8704 -0.3632 -0.3323
vn 0.4622 -0.6555 -0.5973
vn 0.9968 0.0393 -0.0696
vn 0.9985 -0.0505 -0.0219
vn 0.6207 -0.7798 0.0813
vn 0.6655 -0.7450 -0.0449
vn 0.6207 -0.7798 0.0814
vn 0.8872 -0.4315 0.1630
vn 0.3539 -0.9335 0.0569
vn -0.0120 -0.9994 -0.0327
vn 0.2075 -0.9741 -0.0899
vn -0.9256 -0.1470 0.3489
vn -0.9183 0.2008 0.3413
vn -0.9994 0.0085 0.0330
vn -0.9914 -0.1261 -0.0354
vn -0.9914 -0.1260 -0.0354
vn -0.9255 -0.1470 0.3490
vn -0.9182 0.2008 0.3413
vn -0.9961 0.0843 -0.0277
vn -0.9960 0.0844 -0.0277
vn -0.8754 -0.4818 -0.0397
vn -0.4024 -0.9143 -0.0470
vn 0.1653 -0.9862 -0.0053
vn 0.1652 -0.9862 -0.0053
vn 0.0008 -0.9953 0.0971
vn 0.0073 0.4478 -0.8941
vn -0.4732 0.4661 -0.7476
vn -0.1362 0.9044 -0.4044
vn -0.8794 0.3565 -0.3155
vn -0.8703 0.1728 -0.4612
vn 0.2948 0.9460 -0.1347
vn -0.1361 0.9044 -0.4043
vn 0.4655 0.8824 0.0687
vn 0.2949 0.9460 -0.1347
vn 0.4656 0.8823 0.0687
vn -0.1387 0.9827 -0.1226
vn -0.1362 0.9044 -0.4043
vn -0.1387 0.9827 -0.1225
vn 0.0163 0.9917 0.1277
vn 0.4560 0.7184 -0.5253
vn 0.8139 0.4902 -0.3120
vn 0.4376 0.3094 -0.8443
vn 0.4560 0.7185 -0.5252
vn -0.1361 0.9044 -0.4044
vn 0.4375 0.3094 -0.8443
vn -0.2452 0.1669 0.9550
vn -0.1461 0.4498 0.8811
vn -0.2453 0.1670 0.9550
vn -0.2453 0.1669 0.9550
vn -0.5016 0.3413 0.7950
vn 0.2685 -0.0586 0.9615
vn 0.4778 0.2989 0.8260
vn 0.0693 -0.2064 0.9760
vn 0.7278 0.0393 0.6847
vn 0.6811 0.4875 0.5463
vn 0.7278 0.0392 0.6846
vn 0.7278 0.0392 0.6847
vn 0.9791 -0.0036 0.2031
vn 0.8186 -0.2207 0.5302
vn 0.7278 0.0391 0.6847
vn 0.4242 -0.2714 0.8639
vn -0.9987 -0.0105 -0.0496
vn -0.9987 -0.0106 -0.0496
vn -0.0052 -0.0455 0.9989
vn -0.0052 -0.0456 0.9989
vn 0.9922 0.1235 0.0146
vn 0.9251 0.3254 0.1955
vn 0.9792 -0.0036 0.2030
vn -0.2174 -0.8130 -0.5401
vn -0.6080 -0.6712 -0.4241
vn -0.5120 -0.2994 -0.8051
vn -0.1672 -0.9801 -0.1071
vn -0.8691 -0.0279 -0.4938
vn -0.9197 -0.2562 -0.2975
vn -0.7931 0.0366 -0.6080
vn -0.8703 0.1728 -0.4613
vn -0.8958 0.0336 -0.4432
vn -0.9749 0.0120 -0.2225
vn -0.8958 0.0335 -0.4432
vn -0.7910 -0.5535 -0.2609
vn -0.7910 -0.5534 -0.2609
vn 0.9934 -0.1148 -0.0064
vn 0.8704 -0.3632 -0.3324
vn 0.9205 -0.3905 -0.0105
vn 0.9205 -0.3906 -0.0105
vn 0.6655 -0.7450 -0.0450
vn 0.8091 -0.0200 -0.5873
vn 0.8091 -0.0201 -0.5873
vn 0.4467 -0.0949 -0.8896
vn 0.8887 0.0559 -0.4551
vn 0.9968 0.0393 -0.0697
vn 0.8887 0.0560 -0.4551
vn 0.8092 -0.0200 -0.5872
vn 0.8887 0.0559 -0.4552
vn 0.5171 -0.8559 0.0105
vn -0.8886 -0.4586 -0.0054
vn -0.8754 -0.4817 -0.0397
vn -0.8887 -0.4585 -0.0054
vn -0.8826 -0.3750 0.2837
vn -0.8755 -0.4817 -0.0397
vn -0.9572 -0.2858 -0.0453
vn 0.1187 0.0293 -0.9925
vn 0.1187 0.0292 -0.9925
vn 0.4466 -0.0948 -0.8897
vn 0.0550 -0.0131 -0.9984
vn 0.4466 -0.0949 -0.8897
vn -0.3016 0.1621 -0.9395
vn -0.4731 0.4660 -0.7476
vn -0.0045 -0.3257 -0.9455
vn -0.5120 -0.2994 -0.8052
vn -0.2173 -0.8130 -0.5401
vn -0.7900 0.3858 -0.4765
vn -0.6904 -0.0385 -0.7224
vn -0.9350 0.2571 -0.2442
vn -0.9399 0.3231 -0.1099
vn -0.6848 0.6940 -0.2223
vn -0.9399 0.3232 -0.1099
vn -0.6848 0.6939 -0.2224
vn -0.7900 0.3859 -0.4765
vn -0.9873 -0.1442 -0.0660
vn -0.9945 0.0828 -0.0643
vn 0.9990 -0.0404 0.0178
vn 0.9990 -0.0404 0.0177
vn 0.9934 -0.1147 -0.0063
vn 0.9934 -0.1147 -0.0064
vn 0.9741 0.2249 -0.0225
vn 0.9922 0.1236 0.0146
vn 0.9251 0.3255 0.1954
vn -0.9527 -0.1820 -0.2436
vn -0.8814 -0.4660 -0.0777
vn -0.7910 -0.5534 -0.2608
vn -0.9527 -0.1820 -0.2435
vn -0.9197 -0.2562 -0.2974
vn -0.6475 -0.7593 -0.0647
vn 0.5716 0.0109 -0.8205
vn 0.4467 -0.0949 -0.8897
vn -0.1135 0.0121 -0.9935
vn 0.1186 0.0292 -0.9925
vn 0.0549 -0.0131 -0.9984
vn -0.3016 0.1621 -0.9396
vn -0.1135 0.0122 -0.9935
vn -0.3365 -0.0193 -0.9415
vn -0.5120 -0.2993 -0.8052
vn -0.6884 0.1918 -0.6995
vn -0.4732 0.4660 -0.7476
vn -0.6883 0.1918 -0.6996
vn -0.6903 -0.0385 -0.7225
vn -0.7931 0.0366 -0.6081
vn -0.5880 0.7033 -0.3995
vn -0.4124 0.8954 -0.1681
vn -0.4123 0.8954 -0.1681
vn -0.5880 0.7034 -0.3995
vn -0.9779 -0.2013 -0.0567
vn 1.0000 -0.0001 -0.0018
vn -0.9598 -0.2707 -0.0748
vn -0.9749 0.0119 -0.2224
vn -0.9597 -0.2707 -0.0748
vn -0.9597 -0.2708 -0.0748
vn -0.7688 -0.6362 -0.0648
vn -0.6476 -0.7593 -0.0647
vn -0.4824 0.0109 -0.8759
vn -0.3366 -0.0193 -0.9415
vn -0.4825 0.0109 -0.8759
vn -0.3017 0.1621 -0.9395
vn -0.9386 -0.3392 -0.0630
vn -0.9779 -0.2014 -0.0567
s 0
f 16//1 15//2 9//3
f 20//4 13//5 7//6
f 25//7 3//8 13//9
f 26//10 13//11 3//12
f 26//10 7//13 13//9
f 28//14 9//3 15//2
f 29//15 16//1 4//16
f 29//15 18//17 6//18
f 29//15 4//19 18//17
f 29//15 6//20 15//2
f 29//15 15//2 16//21
f 30//22 17//23 9//24
f 30//22 28//14 2//25
f 30//22 9//24 28//14
f 31//26 16//21 9//27
f 31//26 9//28 17//29
f 31//30 17//29 8//31
f 32//32 18//17 4//33
f 33//34 7//6 19//35
f 33//36 20//37 7//38
f 34//39 19//40 5//41
f 34//39 33//42 19//43
f 34//39 11//44 33//45
f 35//46 13//5 20//47
f 35//48 25//49 13//5
f 41//50 24//51 40//52
f 41//50 38//53 24//54
f 44//55 26//10 3//56
f 44//55 22//57 26//58
f 45//59 19//35 7//13
f 45//60 7//6 26//58
f 45//59 40//61 19//35
f 45//60 26//58 22//62
f 50//63 35//46 20//64
f 52//65 30//66 2//67
f 52//68 51//69 17//23
f 52//68 17//70 30//22
f 53//71 32//32 10//72
f 53//71 18//17 32//32
f 54//73 33//45 11//74
f 54//75 20//76 33//36
f 54//77 50//78 20//76
f 55//79 34//39 5//80
f 55//79 11//44 34//81
f 56//82 15//2 6//20
f 56//83 35//84 50//63
f 57//85 36//86 14//87
f 57//88 14//87 8//89
f 57//90 8//89 17//91
f 57//92 17//23 51//93
f 57//90 51//93 21//94
f 57//92 21//95 36//86
f 58//96 36//86 21//97
f 58//96 55//98 5//80
f 59//99 37//100 12//101
f 59//102 12//101 22//62
f 59//99 22//57 37//100
f 60//103 12//104 37//100
f 60//103 23//105 48//106
f 62//107 24//51 38//108
f 63//109 39//110 62//107
f 64//111 24//112 5//41
f 64//113 5//114 19//40
f 64//113 19//40 40//115
f 65//116 22//62 12//101
f 65//116 12//101 41//117
f 66//118 6//119 42//120
f 66//118 43//121 25//49
f 66//118 42//120 43//122
f 66//123 56//82 6//124
f 66//123 25//49 35//84
f 66//123 35//84 56//82
f 67//125 42//120 6//119
f 67//126 6//20 18//17
f 67//125 43//122 42//120
f 68//127 44//55 3//56
f 69//128 44//55 37//100
f 69//128 37//100 22//57
f 69//128 22//57 44//55
f 70//129 41//117 40//61
f 70//129 40//61 45//59
f 70//129 65//116 41//117
f 70//130 45//131 22//62
f 70//130 22//62 65//116
f 71//132 27//133 49//134
f 74//135 47//136 10//72
f 75//137 49//138 8//139
f 75//140 8//141 14//87
f 76//142 31//30 8//31
f 76//142 8//31 49//143
f 76//142 49//134 16//1
f 76//144 16//21 31//145
f 77//146 14//147 46//148
f 77//149 75//140 14//87
f 77//149 49//150 75//137
f 77//149 71//132 49//150
f 77//146 46//151 71//132
f 78//152 2//25 28//153
f 78//154 28//153 15//2
f 78//152 56//83 50//78
f 78//155 15//156 56//83
f 79//157 52//158 2//67
f 79//157 54//159 11//74
f 79//157 2//67 54//159
f 80//160 21//95 51//161
f 80//162 51//161 52//68
f 80//163 58//164 21//97
f 80//163 55//165 58//96
f 80//166 11//167 55//79
f 80//163 79//157 11//74
f 80//163 52//158 79//157
f 81//168 18//17 53//71
f 81//169 67//125 18//17
f 81//169 43//122 67//125
f 82//170 54//159 2//67
f 82//171 50//78 54//77
f 82//170 78//152 50//78
f 82//170 2//25 78//152
f 83//172 36//173 58//174
f 84//175 60//176 48//177
f 84//175 38//108 41//117
f 84//175 41//117 12//101
f 84//175 12//178 60//103
f 85//179 23//105 61//180
f 85//179 73//181 23//105
f 85//179 47//182 73//181
f 86//183 10//184 47//182
f 86//185 85//179 61//180
f 86//183 47//182 85//179
f 87//186 60//103 37//100
f 87//187 61//180 23//105
f 87//187 23//105 60//103
f 88//188 62//189 39//110
f 88//188 5//80 62//107
f 89//190 62//107 5//80
f 89//191 5//41 24//192
f 89//191 24//112 62//107
f 90//193 62//189 38//53
f 90//194 38//53 72//195
f 91//196 63//197 62//107
f 91//198 14//87 63//197
f 91//198 62//189 90//199
f 91//200 90//193 46//148
f 91//198 46//148 14//87
f 92//201 64//111 40//52
f 92//201 40//52 24//54
f 92//201 24//51 64//111
f 93//202 68//203 3//56
f 93//202 3//56 25//49
f 93//204 25//205 68//206
f 94//207 68//206 25//49
f 94//207 25//49 43//121
f 95//208 71//132 46//151
f 95//209 72//210 1//211
f 95//209 46//151 72//212
f 96//213 27//214 71//132
f 97//215 1//211 72//212
f 97//215 72//212 38//108
f 97//215 84//175 48//216
f 97//215 38//53 84//217
f 98//218 73//181 47//182
f 98//218 47//182 74//135
f 99//219 48//106 23//105
f 99//219 23//105 73//181
f 100//220 74//135 10//72
f 100//220 10//72 32//32
f 100//220 32//221 74//135
f 101//222 74//135 32//223
f 101//222 32//223 4//33
f 101//222 4//33 16//21
f 101//224 98//225 74//135
f 102//226 81//169 53//227
f 102//226 53//227 10//72
f 102//226 43//122 81//169
f 103//228 83//172 58//174
f 103//228 58//174 5//80
f 103//229 5//80 88//230
f 103//229 88//231 39//110
f 103//229 39//110 63//109
f 104//232 83//233 63//109
f 104//232 63//109 14//87
f 104//232 14//87 36//234
f 104//232 36//86 83//233
f 105//235 86//185 61//180
f 105//235 10//72 86//183
f 106//236 61//180 87//237
f 106//236 105//238 61//239
f 107//240 87//237 37//100
f 107//240 37//100 44//55
f 108//241 90//194 72//242
f 108//241 72//212 46//151
f 108//241 46//148 90//193
f 109//243 95//244 1//245
f 109//243 96//246 71//132
f 109//247 71//132 95//244
f 109//247 1//245 97//215
f 110//248 97//215 48//249
f 110//248 109//247 97//215
f 110//248 96//246 109//247
f 111//250 98//225 27//251
f 111//250 73//181 98//218
f 111//252 99//253 73//254
f 112//255 49//134 27//133
f 112//255 27//133 98//225
f 112//255 98//225 101//222
f 113//256 101//222 16//1
f 113//257 16//21 49//143
f 113//257 112//258 101//222
f 113//256 49//134 112//258
f 114//259 94//207 43//121
f 114//259 43//122 102//226
f 115//260 103//229 63//109
f 115//260 63//109 83//172
f 115//260 83//172 103//229
f 116//261 102//226 10//262
f 116//263 10//72 105//238
f 116//261 114//259 102//226
f 116//264 105//238 106//236
f 117//265 107//240 44//55
f 117//265 44//55 68//203
f 117//265 68//203 106//236
f 117//265 106//236 87//187
f 117//265 87//187 107//266
f 118//267 110//268 48//249
f 118//269 48//249 99//253
f 118//267 99//253 111//252
f 118//267 96//270 110//248
f 118//267 111//252 27//251
f 118//267 27//251 96//270
f 119//271 94//207 114//259
f 119//271 114//272 116//264
f 119//271 68//206 94//207
f 119//271 116//264 106//236
f 119//271 106//236 68//203
