# Blender 4.0.2
# www.blender.org
o VLP16_base_2
v 0.015630 0.046852 0.069850
v 0.011708 0.047983 0.069850
v -0.015630 -0.046852 0.069850
v 0.019446 0.045402 0.069850
v -0.030674 0.038711 0.069850
v -0.033766 0.036046 0.069850
v -0.016443 0.046573 0.069850
v -0.020233 0.045056 0.069850
v -0.012541 0.047772 0.069850
v 0.023129 0.043641 0.069850
v 0.026654 0.041582 0.069850
v 0.029996 0.039239 0.069850
v 0.043232 0.023884 0.069850
v 0.041112 0.027373 0.069850
v 0.038711 0.030674 0.069850
v 0.045056 0.020233 0.069850
v 0.046573 0.016443 0.069850
v -0.011708 -0.047983 0.069850
v 0.000430 -0.049389 0.069850
v 0.004507 -0.049185 0.069850
v -0.027373 0.041112 0.069850
v -0.023884 0.043232 0.069850
v -0.008553 0.048645 0.069850
v -0.004507 0.049185 0.069850
v -0.000430 0.049389 0.069850
v 0.003650 0.049256 0.069850
v 0.007705 0.048786 0.069850
v 0.033134 0.036628 0.069850
v 0.036046 0.033766 0.069850
v 0.016443 -0.046573 0.069850
v 0.020233 -0.045056 0.069850
v -0.047983 0.011708 0.069850
v -0.026653 -0.041582 0.069850
v -0.023129 -0.043641 0.069850
v -0.019446 -0.045402 0.069850
v -0.036046 -0.033766 0.069850
v -0.033134 -0.036628 0.069850
v -0.038711 -0.030674 0.069850
v 0.023884 -0.043232 0.069850
v -0.041112 -0.027373 0.069850
v -0.043232 -0.023884 0.069850
v -0.045056 -0.020233 0.069850
v -0.046573 -0.016443 0.069850
v -0.047772 -0.012541 0.069850
v -0.048645 -0.008553 0.069850
v -0.049185 -0.004507 0.069850
v -0.049389 -0.000430 0.069850
v -0.049256 0.003650 0.069850
v -0.043641 0.023129 0.069850
v -0.045402 0.019446 0.069850
v -0.041582 0.026654 0.069850
v 0.048645 0.008553 0.069850
v 0.047772 0.012541 0.069850
v 0.030674 -0.038711 0.069850
v 0.049185 0.004507 0.069850
v 0.049389 0.000430 0.069850
v -0.003650 -0.049256 0.069850
v -0.007705 -0.048786 0.069850
v -0.029996 -0.039239 0.069850
v -0.048786 0.007705 0.069850
v -0.046852 0.015630 0.069850
v -0.039239 0.029996 0.069850
v -0.036628 0.033134 0.069850
v 0.043641 -0.023129 0.069850
v 0.045402 -0.019446 0.069850
v 0.046852 -0.015630 0.069850
v 0.041582 -0.026653 0.069850
v 0.047983 -0.011708 0.069850
v 0.048786 -0.007705 0.069850
v 0.039239 -0.029996 0.069850
v 0.036628 -0.033134 0.069850
v 0.049256 -0.003650 0.069850
v 0.033766 -0.036046 0.069850
v 0.027373 -0.041112 0.069850
v 0.012541 -0.047772 0.069850
v 0.008553 -0.048645 0.069850
v -0.000432 0.049711 0.069804
v 0.003674 0.049577 0.069804
v -0.000435 0.050011 0.069678
v -0.000437 0.050268 0.069480
v 0.003715 0.050133 0.069480
v -0.000439 0.050468 0.069223
v 0.003730 0.050331 0.069223
v -0.000440 0.050595 0.068924
v 0.003739 0.050458 0.068924
v -0.000441 0.050642 0.068602
v 0.011994 0.049155 0.068924
v 0.016012 0.047996 0.068924
v 0.012005 0.049201 0.068602
v 0.036926 0.034591 0.068924
v 0.039656 0.031423 0.068924
v 0.036960 0.034623 0.068602
v 0.049832 0.008762 0.068924
v 0.050386 0.004617 0.068924
v 0.049879 0.008770 0.068602
v 0.046510 -0.019921 0.068924
v 0.044706 -0.023693 0.068924
v 0.046554 -0.019939 0.068602
v 0.016844 -0.047711 0.068924
v 0.012847 -0.048939 0.068924
v 0.016860 -0.047755 0.068602
v 0.004617 -0.050386 0.068924
v 0.004621 -0.050433 0.068602
v 0.006311 -0.050207 0.068602
v 0.008762 -0.049832 0.068924
v 0.012859 -0.048984 0.068602
v 0.012102 -0.049150 0.068602
v 0.008770 -0.049879 0.068602
v 0.023104 -0.045022 0.068602
v 0.024468 -0.044287 0.068924
v 0.020727 -0.046157 0.068924
v 0.020746 -0.046200 0.068602
v 0.017724 -0.047410 0.068602
v 0.028193 -0.042064 0.068602
v 0.031423 -0.039656 0.068924
v 0.028041 -0.042116 0.068924
v 0.028067 -0.042155 0.068602
v 0.024490 -0.044329 0.068602
v 0.032862 -0.038479 0.068602
v 0.034591 -0.036926 0.068924
v 0.031453 -0.039693 0.068602
v 0.037123 -0.034417 0.068602
v 0.037522 -0.033943 0.068924
v 0.034623 -0.036960 0.068602
v 0.040857 -0.029869 0.068602
v 0.042597 -0.027304 0.068924
v 0.040197 -0.030729 0.068924
v 0.040234 -0.030757 0.068602
v 0.037557 -0.033975 0.068602
v 0.044748 -0.023716 0.068602
v 0.044044 -0.024920 0.068602
v 0.042637 -0.027330 0.068602
v 0.048599 -0.014090 0.068602
v 0.049155 -0.011994 0.068924
v 0.047996 -0.016012 0.068924
v 0.048041 -0.016027 0.068602
v 0.046664 -0.019650 0.068602
v 0.049933 -0.008357 0.068602
v 0.049977 -0.007894 0.068924
v 0.049201 -0.012005 0.068602
v 0.050546 -0.002504 0.068602
v 0.050595 0.000440 0.068924
v 0.050458 -0.003739 0.068924
v 0.050506 -0.003743 0.068602
v 0.050024 -0.007901 0.068602
v 0.050433 0.004621 0.068602
v 0.050495 0.003383 0.068602
v 0.050642 0.000441 0.068602
v 0.048347 0.014934 0.068602
v 0.047711 0.016844 0.068924
v 0.048939 0.012847 0.068924
v 0.048984 0.012859 0.068602
v 0.049780 0.009224 0.068602
v 0.046315 0.020458 0.068602
v 0.046157 0.020727 0.068924
v 0.047755 0.016860 0.068602
v 0.043604 0.025683 0.068602
v 0.042116 0.028041 0.068924
v 0.044287 0.024468 0.068924
v 0.044329 0.024490 0.068602
v 0.046200 0.020746 0.068602
v 0.039693 0.031453 0.068602
v 0.040331 0.030575 0.068602
v 0.042155 0.028067 0.068602
v 0.032187 0.039044 0.068602
v 0.030729 0.040197 0.068924
v 0.033943 0.037522 0.068924
v 0.033975 0.037557 0.068602
v 0.036518 0.035058 0.068602
v 0.027457 0.042548 0.068602
v 0.027304 0.042597 0.068924
v 0.030757 0.040234 0.068602
v 0.022317 0.045417 0.068602
v 0.019921 0.046510 0.068924
v 0.023693 0.044706 0.068924
v 0.023716 0.044748 0.068602
v 0.027330 0.042637 0.068602
v 0.016027 0.048041 0.068602
v 0.016896 0.047711 0.068602
v 0.019939 0.046554 0.068602
v 0.003743 0.050506 0.068602
v 0.005437 0.050309 0.068602
v 0.007894 0.049977 0.068924
v 0.007901 0.050024 0.068602
v 0.011245 0.049353 0.068602
v 0.000439 -0.050468 0.069223
v 0.000440 -0.050595 0.068924
v 0.000441 -0.050642 0.068602
v 0.007874 0.049851 0.069223
v 0.011963 0.049031 0.069223
v 0.015972 0.047876 0.069223
v 0.019871 0.046393 0.069223
v 0.023634 0.044594 0.069223
v 0.027236 0.042490 0.069223
v 0.030651 0.040096 0.069223
v 0.033858 0.037428 0.069223
v 0.036833 0.034504 0.069223
v 0.039556 0.031344 0.069223
v 0.042010 0.027971 0.069223
v 0.044176 0.024406 0.069223
v 0.046040 0.020675 0.069223
v 0.047591 0.016802 0.069223
v 0.048815 0.012815 0.069223
v 0.049707 0.008740 0.069223
v 0.050259 0.004605 0.069223
v 0.050468 0.000439 0.069223
v 0.050331 -0.003730 0.069223
v 0.049851 -0.007874 0.069223
v 0.049031 -0.011963 0.069223
v 0.047876 -0.015972 0.069223
v 0.046393 -0.019871 0.069223
v 0.044594 -0.023634 0.069223
v 0.042490 -0.027236 0.069223
v 0.040096 -0.030651 0.069223
v 0.037428 -0.033858 0.069223
v 0.034504 -0.036833 0.069223
v 0.031344 -0.039556 0.069223
v 0.027971 -0.042010 0.069223
v 0.024406 -0.044176 0.069223
v 0.020675 -0.046040 0.069223
v 0.016802 -0.047591 0.069223
v 0.012815 -0.048815 0.069223
v 0.008740 -0.049707 0.069223
v 0.004605 -0.050259 0.069223
v 0.000437 -0.050268 0.069480
v 0.007843 0.049655 0.069480
v 0.011916 0.048838 0.069480
v 0.015909 0.047687 0.069480
v 0.019792 0.046210 0.069480
v 0.023541 0.044418 0.069480
v 0.027128 0.042322 0.069480
v 0.030530 0.039937 0.069480
v 0.033724 0.037280 0.069480
v 0.036687 0.034368 0.069480
v 0.039400 0.031221 0.069480
v 0.041844 0.027860 0.069480
v 0.044002 0.024310 0.069480
v 0.045859 0.020593 0.069480
v 0.047403 0.016736 0.069480
v 0.048623 0.012764 0.069480
v 0.049511 0.008705 0.069480
v 0.050061 0.004587 0.069480
v 0.050268 0.000437 0.069480
v 0.050133 -0.003715 0.069480
v 0.049655 -0.007843 0.069480
v 0.048838 -0.011916 0.069480
v 0.047687 -0.015909 0.069480
v 0.046210 -0.019792 0.069480
v 0.044418 -0.023541 0.069480
v 0.042322 -0.027128 0.069480
v 0.039937 -0.030530 0.069480
v 0.037280 -0.033724 0.069480
v 0.034368 -0.036687 0.069480
v 0.031221 -0.039400 0.069480
v 0.027860 -0.041844 0.069480
v 0.024310 -0.044002 0.069480
v 0.020593 -0.045859 0.069480
v 0.016736 -0.047403 0.069480
v 0.012764 -0.048623 0.069480
v 0.008705 -0.049511 0.069480
v 0.004587 -0.050061 0.069480
v 0.000435 -0.050011 0.069678
v 0.003696 0.049876 0.069678
v 0.007802 0.049400 0.069678
v 0.011855 0.048587 0.069678
v 0.015827 0.047442 0.069678
v 0.019691 0.045973 0.069678
v 0.023420 0.044190 0.069678
v 0.026989 0.042105 0.069678
v 0.030374 0.039733 0.069678
v 0.033551 0.037089 0.069678
v 0.036499 0.034191 0.069678
v 0.039198 0.031060 0.069678
v 0.041629 0.027717 0.069678
v 0.043776 0.024185 0.069678
v 0.045624 0.020487 0.069678
v 0.047160 0.016650 0.069678
v 0.048373 0.012699 0.069678
v 0.049257 0.008661 0.069678
v 0.049804 0.004563 0.069678
v 0.050011 0.000435 0.069678
v 0.049876 -0.003696 0.069678
v 0.049400 -0.007802 0.069678
v 0.048587 -0.011855 0.069678
v 0.047442 -0.015827 0.069678
v 0.045973 -0.019691 0.069678
v 0.044190 -0.023420 0.069678
v 0.042105 -0.026989 0.069678
v 0.039733 -0.030374 0.069678
v 0.037089 -0.033551 0.069678
v 0.034191 -0.036499 0.069678
v 0.031060 -0.039198 0.069678
v 0.027717 -0.041629 0.069678
v 0.024185 -0.043776 0.069678
v 0.020487 -0.045624 0.069678
v 0.016650 -0.047160 0.069678
v 0.012699 -0.048373 0.069678
v 0.008661 -0.049257 0.069678
v 0.004563 -0.049804 0.069678
v 0.000432 -0.049711 0.069804
v 0.004536 -0.049505 0.069804
v 0.008609 -0.048962 0.069804
v 0.012623 -0.048084 0.069804
v 0.016550 -0.046877 0.069804
v 0.020365 -0.045350 0.069804
v 0.024040 -0.043514 0.069804
v 0.027551 -0.041380 0.069804
v 0.030874 -0.038963 0.069804
v 0.033986 -0.036281 0.069804
v 0.036866 -0.033350 0.069804
v 0.039494 -0.030192 0.069804
v 0.041853 -0.026827 0.069804
v 0.043925 -0.023279 0.069804
v 0.045698 -0.019573 0.069804
v 0.047158 -0.015732 0.069804
v 0.048296 -0.011784 0.069804
v 0.049104 -0.007756 0.069804
v 0.049577 -0.003674 0.069804
v 0.049711 0.000432 0.069804
v 0.049505 0.004536 0.069804
v 0.048962 0.008609 0.069804
v 0.048084 0.012622 0.069804
v 0.046877 0.016550 0.069804
v 0.045350 0.020365 0.069804
v 0.043514 0.024040 0.069804
v 0.041380 0.027551 0.069804
v 0.038963 0.030874 0.069804
v 0.036281 0.033986 0.069804
v 0.033350 0.036866 0.069804
v 0.030192 0.039494 0.069804
v 0.026827 0.041853 0.069804
v 0.023279 0.043925 0.069804
v 0.019573 0.045698 0.069804
v 0.015732 0.047158 0.069804
v 0.011784 0.048296 0.069804
v 0.007756 0.049104 0.069804
v -0.003674 -0.049577 0.069804
v -0.003715 -0.050133 0.069480
v -0.003730 -0.050331 0.069223
v -0.003739 -0.050458 0.068924
v -0.011994 -0.049155 0.068924
v -0.016012 -0.047996 0.068924
v -0.012005 -0.049201 0.068602
v -0.036926 -0.034591 0.068924
v -0.039656 -0.031423 0.068924
v -0.036960 -0.034623 0.068602
v -0.049832 -0.008762 0.068924
v -0.050386 -0.004617 0.068924
v -0.049879 -0.008770 0.068602
v -0.046510 0.019921 0.068924
v -0.044706 0.023693 0.068924
v -0.046554 0.019939 0.068602
v -0.016844 0.047711 0.068924
v -0.012847 0.048939 0.068924
v -0.016860 0.047755 0.068602
v -0.004617 0.050386 0.068924
v -0.004621 0.050433 0.068602
v -0.006311 0.050207 0.068602
v -0.008762 0.049832 0.068924
v -0.012859 0.048984 0.068602
v -0.012102 0.049150 0.068602
v -0.008770 0.049879 0.068602
v -0.023104 0.045022 0.068602
v -0.024468 0.044287 0.068924
v -0.020727 0.046157 0.068924
v -0.020746 0.046200 0.068602
v -0.017723 0.047410 0.068602
v -0.028193 0.042064 0.068602
v -0.031423 0.039656 0.068924
v -0.028041 0.042116 0.068924
v -0.028067 0.042155 0.068602
v -0.024490 0.044329 0.068602
v -0.032862 0.038479 0.068602
v -0.034591 0.036926 0.068924
v -0.031453 0.039693 0.068602
v -0.037122 0.034417 0.068602
v -0.037522 0.033943 0.068924
v -0.034623 0.036960 0.068602
v -0.040857 0.029869 0.068602
v -0.042597 0.027304 0.068924
v -0.040197 0.030729 0.068924
v -0.040234 0.030757 0.068602
v -0.037557 0.033975 0.068602
v -0.044748 0.023716 0.068602
v -0.044044 0.024920 0.068602
v -0.042637 0.027330 0.068602
v -0.048599 0.014090 0.068602
v -0.049155 0.011994 0.068924
v -0.047996 0.016012 0.068924
v -0.048041 0.016027 0.068602
v -0.046664 0.019650 0.068602
v -0.049933 0.008357 0.068602
v -0.049977 0.007894 0.068924
v -0.049201 0.012005 0.068602
v -0.050546 0.002504 0.068602
v -0.050595 -0.000440 0.068924
v -0.050458 0.003739 0.068924
v -0.050506 0.003743 0.068602
v -0.050024 0.007901 0.068602
v -0.050433 -0.004621 0.068602
v -0.050495 -0.003383 0.068602
v -0.050642 -0.000441 0.068602
v -0.048347 -0.014934 0.068602
v -0.047711 -0.016844 0.068924
v -0.048939 -0.012847 0.068924
v -0.048984 -0.012859 0.068602
v -0.049780 -0.009224 0.068602
v -0.046315 -0.020458 0.068602
v -0.046157 -0.020727 0.068924
v -0.047755 -0.016860 0.068602
v -0.043604 -0.025683 0.068602
v -0.042116 -0.028041 0.068924
v -0.044287 -0.024468 0.068924
v -0.044329 -0.024490 0.068602
v -0.046200 -0.020746 0.068602
v -0.039693 -0.031453 0.068602
v -0.040331 -0.030575 0.068602
v -0.042155 -0.028067 0.068602
v -0.032187 -0.039044 0.068602
v -0.030729 -0.040197 0.068924
v -0.033943 -0.037522 0.068924
v -0.033975 -0.037557 0.068602
v -0.036518 -0.035058 0.068602
v -0.027457 -0.042548 0.068602
v -0.027304 -0.042597 0.068924
v -0.030757 -0.040234 0.068602
v -0.022317 -0.045417 0.068602
v -0.019921 -0.046510 0.068924
v -0.023693 -0.044706 0.068924
v -0.023716 -0.044748 0.068602
v -0.027330 -0.042637 0.068602
v -0.016027 -0.048041 0.068602
v -0.016896 -0.047711 0.068602
v -0.019939 -0.046554 0.068602
v -0.003743 -0.050506 0.068602
v -0.005437 -0.050309 0.068602
v -0.007894 -0.049977 0.068924
v -0.007901 -0.050024 0.068602
v -0.011245 -0.049353 0.068602
v -0.007874 -0.049851 0.069223
v -0.011963 -0.049031 0.069223
v -0.015972 -0.047876 0.069223
v -0.019871 -0.046393 0.069223
v -0.023634 -0.044594 0.069223
v -0.027236 -0.042490 0.069223
v -0.030651 -0.040096 0.069223
v -0.033858 -0.037428 0.069223
v -0.036833 -0.034504 0.069223
v -0.039556 -0.031344 0.069223
v -0.042010 -0.027971 0.069223
v -0.044176 -0.024406 0.069223
v -0.046040 -0.020675 0.069223
v -0.047591 -0.016802 0.069223
v -0.048815 -0.012815 0.069223
v -0.049707 -0.008740 0.069223
v -0.050259 -0.004605 0.069223
v -0.050468 -0.000439 0.069223
v -0.050331 0.003730 0.069223
v -0.049851 0.007874 0.069223
v -0.049031 0.011963 0.069223
v -0.047876 0.015972 0.069223
v -0.046393 0.019871 0.069223
v -0.044594 0.023634 0.069223
v -0.042490 0.027236 0.069223
v -0.040096 0.030651 0.069223
v -0.037428 0.033858 0.069223
v -0.034504 0.036833 0.069223
v -0.031344 0.039556 0.069223
v -0.027971 0.042010 0.069223
v -0.024406 0.044176 0.069223
v -0.020675 0.046040 0.069223
v -0.016802 0.047591 0.069223
v -0.012815 0.048815 0.069223
v -0.008740 0.049707 0.069223
v -0.004605 0.050259 0.069223
v -0.007843 -0.049655 0.069480
v -0.011916 -0.048838 0.069480
v -0.015909 -0.047687 0.069480
v -0.019792 -0.046210 0.069480
v -0.023541 -0.044418 0.069480
v -0.027128 -0.042322 0.069480
v -0.030530 -0.039937 0.069480
v -0.033724 -0.037280 0.069480
v -0.036687 -0.034368 0.069480
v -0.039400 -0.031221 0.069480
v -0.041844 -0.027860 0.069480
v -0.044002 -0.024310 0.069480
v -0.045859 -0.020593 0.069480
v -0.047403 -0.016736 0.069480
v -0.048623 -0.012764 0.069480
v -0.049511 -0.008705 0.069480
v -0.050061 -0.004587 0.069480
v -0.050268 -0.000437 0.069480
v -0.050133 0.003715 0.069480
v -0.049655 0.007843 0.069480
v -0.048838 0.011916 0.069480
v -0.047687 0.015909 0.069480
v -0.046210 0.019792 0.069480
v -0.044418 0.023541 0.069480
v -0.042322 0.027128 0.069480
v -0.039937 0.030530 0.069480
v -0.037280 0.033724 0.069480
v -0.034368 0.036687 0.069480
v -0.031221 0.039400 0.069480
v -0.027860 0.041844 0.069480
v -0.024310 0.044002 0.069480
v -0.020593 0.045859 0.069480
v -0.016736 0.047403 0.069480
v -0.012764 0.048623 0.069480
v -0.008705 0.049511 0.069480
v -0.004587 0.050061 0.069480
v -0.003696 -0.049876 0.069678
v -0.007802 -0.049400 0.069678
v -0.011855 -0.048587 0.069678
v -0.015827 -0.047442 0.069678
v -0.019691 -0.045973 0.069678
v -0.023420 -0.044190 0.069678
v -0.026989 -0.042105 0.069678
v -0.030374 -0.039733 0.069678
v -0.033551 -0.037089 0.069678
v -0.036499 -0.034191 0.069678
v -0.039198 -0.031060 0.069678
v -0.041629 -0.027717 0.069678
v -0.043776 -0.024185 0.069678
v -0.045624 -0.020487 0.069678
v -0.047160 -0.016650 0.069678
v -0.048373 -0.012699 0.069678
v -0.049257 -0.008661 0.069678
v -0.049804 -0.004563 0.069678
v -0.050011 -0.000435 0.069678
v -0.049876 0.003696 0.069678
v -0.049400 0.007802 0.069678
v -0.048587 0.011855 0.069678
v -0.047442 0.015827 0.069678
v -0.045973 0.019691 0.069678
v -0.044190 0.023420 0.069678
v -0.042105 0.026989 0.069678
v -0.039733 0.030374 0.069678
v -0.037089 0.033551 0.069678
v -0.034191 0.036499 0.069678
v -0.031060 0.039198 0.069678
v -0.027717 0.041629 0.069678
v -0.024185 0.043776 0.069678
v -0.020487 0.045624 0.069678
v -0.016650 0.047160 0.069678
v -0.012699 0.048373 0.069678
v -0.008661 0.049257 0.069678
v -0.004563 0.049804 0.069678
v -0.004536 0.049505 0.069804
v -0.008609 0.048962 0.069804
v -0.012622 0.048084 0.069804
v -0.016550 0.046877 0.069804
v -0.020365 0.045350 0.069804
v -0.024040 0.043514 0.069804
v -0.027551 0.041380 0.069804
v -0.030874 0.038963 0.069804
v -0.033986 0.036281 0.069804
v -0.036866 0.033350 0.069804
v -0.039494 0.030192 0.069804
v -0.041853 0.026827 0.069804
v -0.043925 0.023279 0.069804
v -0.045698 0.019573 0.069804
v -0.047158 0.015732 0.069804
v -0.048296 0.011784 0.069804
v -0.049104 0.007756 0.069804
v -0.049577 0.003674 0.069804
v -0.049711 -0.000432 0.069804
v -0.049505 -0.004536 0.069804
v -0.048962 -0.008609 0.069804
v -0.048084 -0.012622 0.069804
v -0.046877 -0.016550 0.069804
v -0.045350 -0.020365 0.069804
v -0.043514 -0.024040 0.069804
v -0.041380 -0.027551 0.069804
v -0.038963 -0.030874 0.069804
v -0.036281 -0.033986 0.069804
v -0.033350 -0.036866 0.069804
v -0.030192 -0.039494 0.069804
v -0.026827 -0.041853 0.069804
v -0.023279 -0.043925 0.069804
v -0.019573 -0.045698 0.069804
v -0.015732 -0.047158 0.069804
v -0.011784 -0.048296 0.069804
v -0.007756 -0.049104 0.069804
v 0.000443 -0.050897 0.053975
v 0.006349 -0.050502 0.053975
v 0.012169 -0.049423 0.053975
v 0.017824 -0.047677 0.053975
v 0.023238 -0.045285 0.053975
v 0.028339 -0.042281 0.053975
v 0.033055 -0.038705 0.053975
v 0.037325 -0.034606 0.053975
v 0.041090 -0.030039 0.053975
v 0.044300 -0.025065 0.053975
v 0.046910 -0.019753 0.053975
v 0.048886 -0.014173 0.053975
v 0.050201 -0.008402 0.053975
v 0.050837 -0.002517 0.053975
v 0.050786 0.003401 0.053975
v 0.050047 0.009274 0.053975
v 0.048632 0.015022 0.053975
v 0.046559 0.020566 0.053975
v 0.043857 0.025832 0.053975
v 0.040562 0.030749 0.053975
v 0.036718 0.035250 0.053975
v 0.032377 0.039274 0.053975
v 0.027599 0.042768 0.053975
v 0.022447 0.045682 0.053975
v 0.016992 0.047979 0.053975
v 0.011307 0.049628 0.053975
v 0.005469 0.050605 0.053975
v -0.000443 0.050897 0.053975
v -0.006349 0.050502 0.053975
v -0.012169 0.049423 0.053975
v -0.017824 0.047677 0.053975
v -0.023238 0.045285 0.053975
v -0.028339 0.042281 0.053975
v -0.033055 0.038705 0.053975
v -0.037325 0.034606 0.053975
v -0.041090 0.030039 0.053975
v -0.044300 0.025065 0.053975
v -0.046910 0.019753 0.053975
v -0.048886 0.014173 0.053975
v -0.050201 0.008402 0.053975
v -0.050837 0.002517 0.053975
v -0.050786 -0.003401 0.053975
v -0.050047 -0.009274 0.053975
v -0.048632 -0.015022 0.053975
v -0.046559 -0.020566 0.053975
v -0.043857 -0.025832 0.053975
v -0.040562 -0.030749 0.053975
v -0.036718 -0.035250 0.053975
v -0.032377 -0.039274 0.053975
v -0.027599 -0.042768 0.053975
v -0.022447 -0.045682 0.053975
v -0.016992 -0.047979 0.053975
v -0.011307 -0.049628 0.053975
v -0.005469 -0.050605 0.053975
v 0.000442 -0.050775 0.053848
v 0.006333 -0.050380 0.053848
v 0.012139 -0.049304 0.053848
v 0.017781 -0.047562 0.053848
v 0.023182 -0.045176 0.053848
v 0.028270 -0.042179 0.053848
v 0.032976 -0.038612 0.053848
v 0.037235 -0.034523 0.053848
v 0.040991 -0.029966 0.053848
v 0.044193 -0.025005 0.053848
v 0.046797 -0.019705 0.053848
v 0.048768 -0.014139 0.053848
v 0.050080 -0.008382 0.053848
v 0.050715 -0.002511 0.053848
v 0.050663 0.003393 0.053848
v 0.049927 0.009252 0.053848
v 0.048515 0.014986 0.053848
v 0.046447 0.020516 0.053848
v 0.043751 0.025770 0.053848
v 0.040464 0.030675 0.053848
v 0.036629 0.035165 0.053848
v 0.032299 0.039180 0.053848
v 0.027532 0.042664 0.053848
v 0.022393 0.045572 0.053848
v 0.016951 0.047864 0.053848
v 0.011280 0.049508 0.053848
v 0.005456 0.050483 0.053848
v -0.000442 0.050775 0.053848
v -0.006333 0.050380 0.053848
v -0.012139 0.049304 0.053848
v -0.017781 0.047562 0.053848
v -0.023182 0.045176 0.053848
v -0.028270 0.042179 0.053848
v -0.032976 0.038612 0.053848
v -0.037235 0.034523 0.053848
v -0.040991 0.029966 0.053848
v -0.044193 0.025005 0.053848
v -0.046797 0.019705 0.053848
v -0.048768 0.014139 0.053848
v -0.050080 0.008382 0.053848
v -0.050715 0.002511 0.053848
v -0.050663 -0.003393 0.053848
v -0.049927 -0.009252 0.053848
v -0.048515 -0.014986 0.053848
v -0.046447 -0.020516 0.053848
v -0.043751 -0.025770 0.053848
v -0.040464 -0.030675 0.053848
v -0.036629 -0.035165 0.053848
v -0.032299 -0.039180 0.053848
v -0.027532 -0.042664 0.053848
v -0.022393 -0.045572 0.053848
v -0.016951 -0.047864 0.053848
v -0.011280 -0.049508 0.053848
v -0.005456 -0.050483 0.053848
vn 0.0229 0.0688 0.9974
vn 0.0172 0.0704 0.9974
vn -0.0229 -0.0688 0.9974
vn 0.0285 0.0666 0.9974
vn -0.0450 0.0568 0.9974
vn -0.0495 0.0529 0.9974
vn -0.0241 0.0683 0.9974
vn -0.0297 0.0661 0.9974
vn -0.0184 0.0701 0.9974
vn 0.0339 0.0640 0.9974
vn 0.0391 0.0610 0.9974
vn 0.0440 0.0576 0.9974
vn 0.0634 0.0350 0.9974
vn 0.0603 0.0402 0.9974
vn 0.0568 0.0450 0.9974
vn 0.0661 0.0297 0.9974
vn 0.0683 0.0241 0.9974
vn -0.0172 -0.0704 0.9974
vn 0.0006 -0.0725 0.9974
vn 0.0066 -0.0722 0.9974
vn -0.0402 0.0603 0.9974
vn -0.0351 0.0634 0.9974
vn -0.0126 0.0714 0.9974
vn -0.0066 0.0722 0.9974
vn -0.0006 0.0725 0.9974
vn 0.0054 0.0723 0.9974
vn 0.0113 0.0716 0.9974
vn 0.0486 0.0537 0.9974
vn 0.0529 0.0496 0.9974
vn 0.0241 -0.0683 0.9974
vn 0.0297 -0.0661 0.9974
vn -0.0704 0.0172 0.9974
vn -0.0391 -0.0610 0.9974
vn -0.0339 -0.0640 0.9974
vn -0.0285 -0.0666 0.9974
vn -0.0529 -0.0496 0.9974
vn -0.0486 -0.0537 0.9974
vn -0.0568 -0.0450 0.9974
vn 0.0351 -0.0634 0.9974
vn -0.0603 -0.0402 0.9974
vn -0.0634 -0.0350 0.9974
vn -0.0661 -0.0297 0.9974
vn -0.0683 -0.0241 0.9974
vn -0.0701 -0.0184 0.9974
vn -0.0714 -0.0126 0.9974
vn -0.0722 -0.0066 0.9974
vn -0.0725 -0.0006 0.9974
vn -0.0723 0.0054 0.9974
vn -0.0640 0.0339 0.9974
vn -0.0666 0.0285 0.9974
vn -0.0610 0.0391 0.9974
vn 0.0714 0.0126 0.9974
vn 0.0701 0.0184 0.9974
vn 0.0450 -0.0568 0.9974
vn 0.0722 0.0066 0.9974
vn 0.0725 0.0006 0.9974
vn -0.0054 -0.0723 0.9974
vn -0.0113 -0.0716 0.9974
vn -0.0440 -0.0576 0.9974
vn -0.0716 0.0113 0.9974
vn -0.0688 0.0229 0.9974
vn -0.0576 0.0440 0.9974
vn -0.0538 0.0486 0.9974
vn 0.0641 -0.0339 0.9974
vn 0.0666 -0.0285 0.9974
vn 0.0688 -0.0229 0.9974
vn 0.0610 -0.0391 0.9974
vn 0.0704 -0.0172 0.9974
vn 0.0716 -0.0113 0.9974
vn 0.0576 -0.0440 0.9974
vn 0.0537 -0.0486 0.9974
vn 0.0723 -0.0054 0.9974
vn 0.0495 -0.0529 0.9974
vn 0.0402 -0.0603 0.9974
vn 0.0184 -0.0701 0.9974
vn 0.0126 -0.0714 0.9974
vn -0.0023 0.2696 0.9630
vn 0.0199 0.2689 0.9630
vn -0.0044 0.5050 0.8631
vn -0.0062 0.7072 0.7070
vn 0.0523 0.7053 0.7070
vn -0.0075 0.8632 0.5048
vn 0.0638 0.8609 0.5048
vn -0.0084 0.9629 0.2699
vn 0.0712 0.9603 0.2699
vn -0.0097 0.9967 0.0801
vn 0.2283 0.9354 0.2699
vn 0.3047 0.9134 0.2699
vn 0.2369 0.9681 0.0812
vn 0.7027 0.6583 0.2699
vn 0.7547 0.5980 0.2699
vn 0.7278 0.6810 0.0813
vn 0.9483 0.1667 0.2699
vn 0.9589 0.0879 0.2699
vn 0.9817 0.1722 0.0813
vn 0.8851 -0.3791 0.2699
vn 0.8508 -0.4509 0.2699
vn 0.9161 -0.3927 0.0814
vn 0.3206 -0.9080 0.2699
vn 0.2445 -0.9313 0.2699
vn 0.3310 -0.9401 0.0811
vn 0.0879 -0.9589 0.2699
vn 0.0894 -0.9928 0.0802
vn 0.1319 -0.9878 0.0829
vn 0.1667 -0.9483 0.2699
vn 0.2538 -0.9638 0.0811
vn 0.2130 -0.9736 0.0824
vn 0.1728 -0.9815 0.0821
vn 0.4455 -0.8915 0.0829
vn 0.4656 -0.8428 0.2699
vn 0.3945 -0.8784 0.2699
vn 0.4062 -0.9104 0.0786
vn 0.3724 -0.9246 0.0798
vn 0.5872 -0.8054 0.0802
vn 0.5980 -0.7547 0.2699
vn 0.5336 -0.8015 0.2699
vn 0.5523 -0.8297 0.0814
vn 0.4824 -0.8721 0.0817
vn 0.6507 -0.7548 0.0829
vn 0.6583 -0.7027 0.2699
vn 0.6177 -0.7823 0.0800
vn 0.7108 -0.6986 0.0822
vn 0.7141 -0.6460 0.2699
vn 0.6815 -0.7272 0.0820
vn 0.8176 -0.5702 0.0797
vn 0.8107 -0.5196 0.2699
vn 0.7650 -0.5848 0.2699
vn 0.7912 -0.6061 0.0809
vn 0.7397 -0.6680 0.0809
vn 0.8809 -0.4662 0.0816
vn 0.8605 -0.5027 0.0828
vn 0.8380 -0.5401 0.0783
vn 0.9576 -0.2760 0.0830
vn 0.9355 -0.2282 0.2699
vn 0.9134 -0.3047 0.2699
vn 0.9450 -0.3172 0.0798
vn 0.9322 -0.3529 0.0801
vn 0.9772 -0.1960 0.0821
vn 0.9511 -0.1502 0.2699
vn 0.9683 -0.2360 0.0820
vn 0.9960 -0.0325 0.0827
vn 0.9629 0.0084 0.2699
vn 0.9603 -0.0712 0.2699
vn 0.9939 -0.0748 0.0808
vn 0.9847 -0.1546 0.0807
vn 0.9925 0.0916 0.0815
vn 0.9953 0.0498 0.0827
vn 0.9966 0.0087 0.0821
vn 0.9526 0.2926 0.0830
vn 0.9080 0.3206 0.2699
vn 0.9313 0.2445 0.2699
vn 0.9647 0.2512 0.0795
vn 0.9734 0.2146 0.0801
vn 0.9253 0.3704 0.0819
vn 0.8784 0.3944 0.2699
vn 0.9397 0.3321 0.0819
vn 0.8516 0.5176 0.0828
vn 0.8015 0.5336 0.2699
vn 0.8428 0.4656 0.2699
vn 0.8731 0.4809 0.0806
vn 0.9089 0.4092 0.0805
vn 0.7807 0.6195 0.0813
vn 0.8060 0.5861 0.0826
vn 0.8295 0.5524 0.0821
vn 0.6374 0.7660 0.0829
vn 0.5848 0.7650 0.2699
vn 0.6460 0.7141 0.2699
vn 0.6703 0.7378 0.0792
vn 0.6974 0.7122 0.0800
vn 0.5721 0.8161 0.0817
vn 0.5196 0.8107 0.2699
vn 0.6050 0.7920 0.0818
vn 0.4299 0.8991 0.0829
vn 0.3791 0.8851 0.2699
vn 0.4509 0.8508 0.2699
vn 0.4680 0.8801 0.0804
vn 0.5371 0.8397 0.0803
vn 0.3147 0.9457 0.0812
vn 0.3542 0.9315 0.0825
vn 0.3923 0.9162 0.0821
vn 0.0732 0.9940 0.0817
vn 0.1147 0.9899 0.0829
vn 0.1502 0.9511 0.2699
vn 0.1577 0.9843 0.0789
vn 0.1941 0.9777 0.0799
vn 0.0075 -0.8632 0.5048
vn 0.0084 -0.9629 0.2699
vn 0.0097 -0.9967 0.0801
vn 0.1347 0.8526 0.5048
vn 0.2046 0.8386 0.5048
vn 0.2732 0.8188 0.5048
vn 0.3399 0.7935 0.5048
vn 0.4042 0.7627 0.5048
vn 0.4658 0.7267 0.5048
vn 0.5243 0.6858 0.5048
vn 0.5791 0.6401 0.5048
vn 0.6300 0.5901 0.5048
vn 0.6766 0.5361 0.5048
vn 0.7185 0.4784 0.5048
vn 0.7556 0.4174 0.5048
vn 0.7875 0.3536 0.5048
vn 0.8140 0.2874 0.5048
vn 0.8349 0.2192 0.5048
vn 0.8502 0.1495 0.5048
vn 0.8596 0.0788 0.5048
vn 0.8632 0.0075 0.5048
vn 0.8609 -0.0638 0.5048
vn 0.8526 -0.1347 0.5048
vn 0.8386 -0.2046 0.5048
vn 0.8188 -0.2732 0.5048
vn 0.7935 -0.3399 0.5048
vn 0.7627 -0.4042 0.5048
vn 0.7267 -0.4658 0.5048
vn 0.6858 -0.5242 0.5048
vn 0.6402 -0.5791 0.5048
vn 0.5901 -0.6300 0.5048
vn 0.5361 -0.6766 0.5048
vn 0.4784 -0.7185 0.5048
vn 0.4174 -0.7556 0.5048
vn 0.3536 -0.7875 0.5048
vn 0.2874 -0.8140 0.5048
vn 0.2192 -0.8349 0.5048
vn 0.1495 -0.8502 0.5048
vn 0.0788 -0.8596 0.5049
vn 0.0062 -0.7072 0.7070
vn 0.1103 0.6986 0.7070
vn 0.1676 0.6871 0.7070
vn 0.2238 0.6709 0.7070
vn 0.2784 0.6501 0.7070
vn 0.3312 0.6249 0.7070
vn 0.3816 0.5954 0.7070
vn 0.4295 0.5619 0.7070
vn 0.4744 0.5245 0.7070
vn 0.5161 0.4835 0.7070
vn 0.5543 0.4392 0.7070
vn 0.5887 0.3919 0.7070
vn 0.6190 0.3420 0.7070
vn 0.6452 0.2897 0.7070
vn 0.6669 0.2354 0.7070
vn 0.6840 0.1796 0.7070
vn 0.6965 0.1225 0.7070
vn 0.7043 0.0645 0.7070
vn 0.7072 0.0062 0.7070
vn 0.7053 -0.0523 0.7070
vn 0.6986 -0.1103 0.7070
vn 0.6871 -0.1676 0.7070
vn 0.6709 -0.2238 0.7070
vn 0.6501 -0.2784 0.7070
vn 0.6249 -0.3312 0.7070
vn 0.5954 -0.3817 0.7070
vn 0.5618 -0.4295 0.7070
vn 0.5245 -0.4745 0.7070
vn 0.4835 -0.5161 0.7070
vn 0.4392 -0.5543 0.7070
vn 0.3920 -0.5887 0.7070
vn 0.3420 -0.6190 0.7070
vn 0.2897 -0.6452 0.7070
vn 0.2354 -0.6669 0.7070
vn 0.1796 -0.6841 0.7070
vn 0.1225 -0.6965 0.7070
vn 0.0645 -0.7043 0.7070
vn 0.0044 -0.5050 0.8631
vn 0.0373 0.5036 0.8631
vn 0.0788 0.4988 0.8631
vn 0.1197 0.4906 0.8631
vn 0.1598 0.4790 0.8631
vn 0.1988 0.4642 0.8631
vn 0.2365 0.4462 0.8631
vn 0.2725 0.4252 0.8631
vn 0.3067 0.4012 0.8631
vn 0.3388 0.3745 0.8631
vn 0.3686 0.3452 0.8631
vn 0.3958 0.3136 0.8631
vn 0.4204 0.2799 0.8631
vn 0.4420 0.2442 0.8631
vn 0.4607 0.2069 0.8631
vn 0.4762 0.1681 0.8631
vn 0.4884 0.1282 0.8631
vn 0.4974 0.0874 0.8631
vn 0.5029 0.0461 0.8631
vn 0.5050 0.0044 0.8631
vn 0.5036 -0.0373 0.8631
vn 0.4988 -0.0788 0.8631
vn 0.4906 -0.1197 0.8631
vn 0.4790 -0.1598 0.8631
vn 0.4642 -0.1988 0.8631
vn 0.4462 -0.2365 0.8631
vn 0.4251 -0.2725 0.8631
vn 0.4012 -0.3067 0.8631
vn 0.3745 -0.3388 0.8631
vn 0.3452 -0.3686 0.8631
vn 0.3136 -0.3958 0.8631
vn 0.2799 -0.4204 0.8631
vn 0.2442 -0.4420 0.8631
vn 0.2069 -0.4607 0.8631
vn 0.1681 -0.4762 0.8631
vn 0.1282 -0.4885 0.8631
vn 0.0875 -0.4974 0.8631
vn 0.0461 -0.5029 0.8631
vn 0.0023 -0.2696 0.9630
vn 0.0246 -0.2685 0.9630
vn 0.0467 -0.2655 0.9630
vn 0.0685 -0.2608 0.9630
vn 0.0898 -0.2542 0.9630
vn 0.1104 -0.2460 0.9630
vn 0.1304 -0.2360 0.9630
vn 0.1494 -0.2244 0.9630
vn 0.1674 -0.2113 0.9630
vn 0.1843 -0.1968 0.9630
vn 0.1999 -0.1809 0.9630
vn 0.2142 -0.1637 0.9630
vn 0.2270 -0.1455 0.9630
vn 0.2382 -0.1262 0.9630
vn 0.2478 -0.1061 0.9630
vn 0.2557 -0.0853 0.9630
vn 0.2619 -0.0639 0.9630
vn 0.2663 -0.0421 0.9630
vn 0.2689 -0.0199 0.9630
vn 0.2696 0.0023 0.9630
vn 0.2685 0.0246 0.9630
vn 0.2655 0.0467 0.9630
vn 0.2608 0.0685 0.9630
vn 0.2542 0.0898 0.9630
vn 0.2459 0.1104 0.9630
vn 0.2360 0.1304 0.9630
vn 0.2244 0.1494 0.9630
vn 0.2113 0.1674 0.9630
vn 0.1968 0.1843 0.9630
vn 0.1809 0.1999 0.9630
vn 0.1637 0.2142 0.9630
vn 0.1455 0.2270 0.9630
vn 0.1263 0.2382 0.9630
vn 0.1061 0.2478 0.9630
vn 0.0853 0.2558 0.9630
vn 0.0639 0.2619 0.9630
vn 0.0421 0.2663 0.9630
vn -0.0199 -0.2689 0.9630
vn -0.0523 -0.7053 0.7070
vn -0.0638 -0.8609 0.5048
vn -0.0712 -0.9603 0.2699
vn -0.2283 -0.9355 0.2699
vn -0.3047 -0.9134 0.2699
vn -0.2369 -0.9681 0.0812
vn -0.7027 -0.6583 0.2699
vn -0.7547 -0.5980 0.2699
vn -0.7278 -0.6810 0.0813
vn -0.9483 -0.1667 0.2699
vn -0.9589 -0.0879 0.2699
vn -0.9817 -0.1722 0.0813
vn -0.8851 0.3791 0.2699
vn -0.8508 0.4509 0.2699
vn -0.9161 0.3927 0.0814
vn -0.3206 0.9080 0.2699
vn -0.2445 0.9313 0.2699
vn -0.3310 0.9401 0.0811
vn -0.0879 0.9589 0.2699
vn -0.0894 0.9928 0.0802
vn -0.1319 0.9878 0.0829
vn -0.1667 0.9483 0.2699
vn -0.2538 0.9638 0.0811
vn -0.2130 0.9736 0.0824
vn -0.1728 0.9815 0.0821
vn -0.4455 0.8915 0.0829
vn -0.4656 0.8428 0.2699
vn -0.3945 0.8784 0.2699
vn -0.4062 0.9104 0.0786
vn -0.3724 0.9246 0.0798
vn -0.5872 0.8054 0.0802
vn -0.5980 0.7547 0.2699
vn -0.5336 0.8015 0.2699
vn -0.5523 0.8297 0.0814
vn -0.4824 0.8721 0.0817
vn -0.6507 0.7548 0.0829
vn -0.6583 0.7027 0.2699
vn -0.6177 0.7823 0.0800
vn -0.7108 0.6986 0.0822
vn -0.7141 0.6460 0.2699
vn -0.6815 0.7272 0.0820
vn -0.8176 0.5702 0.0797
vn -0.8107 0.5196 0.2699
vn -0.7650 0.5848 0.2699
vn -0.7912 0.6061 0.0809
vn -0.7397 0.6680 0.0809
vn -0.8809 0.4662 0.0816
vn -0.8605 0.5027 0.0828
vn -0.8380 0.5401 0.0783
vn -0.9576 0.2760 0.0830
vn -0.9355 0.2282 0.2699
vn -0.9134 0.3047 0.2699
vn -0.9450 0.3172 0.0798
vn -0.9322 0.3529 0.0801
vn -0.9772 0.1960 0.0821
vn -0.9511 0.1502 0.2699
vn -0.9683 0.2360 0.0820
vn -0.9960 0.0325 0.0827
vn -0.9629 -0.0084 0.2699
vn -0.9603 0.0712 0.2699
vn -0.9939 0.0748 0.0808
vn -0.9847 0.1546 0.0807
vn -0.9925 -0.0916 0.0815
vn -0.9953 -0.0498 0.0827
vn -0.9966 -0.0087 0.0821
vn -0.9526 -0.2926 0.0830
vn -0.9080 -0.3206 0.2699
vn -0.9313 -0.2445 0.2699
vn -0.9647 -0.2512 0.0795
vn -0.9734 -0.2146 0.0801
vn -0.9253 -0.3704 0.0819
vn -0.8784 -0.3944 0.2699
vn -0.9397 -0.3321 0.0819
vn -0.8516 -0.5176 0.0828
vn -0.8015 -0.5336 0.2699
vn -0.8428 -0.4656 0.2699
vn -0.8731 -0.4809 0.0806
vn -0.9089 -0.4092 0.0805
vn -0.7807 -0.6195 0.0813
vn -0.8060 -0.5861 0.0826
vn -0.8295 -0.5524 0.0821
vn -0.6374 -0.7660 0.0829
vn -0.5848 -0.7650 0.2699
vn -0.6460 -0.7141 0.2699
vn -0.6703 -0.7378 0.0792
vn -0.6974 -0.7122 0.0800
vn -0.5721 -0.8161 0.0817
vn -0.5196 -0.8107 0.2699
vn -0.6050 -0.7920 0.0819
vn -0.4299 -0.8991 0.0828
vn -0.3791 -0.8851 0.2699
vn -0.4509 -0.8508 0.2699
vn -0.4680 -0.8801 0.0805
vn -0.5371 -0.8397 0.0803
vn -0.3147 -0.9457 0.0812
vn -0.3542 -0.9315 0.0825
vn -0.3923 -0.9162 0.0821
vn -0.0732 -0.9940 0.0818
vn -0.1147 -0.9899 0.0829
vn -0.1502 -0.9511 0.2699
vn -0.1577 -0.9843 0.0789
vn -0.1941 -0.9777 0.0799
vn -0.1347 -0.8526 0.5048
vn -0.2046 -0.8386 0.5048
vn -0.2732 -0.8188 0.5048
vn -0.3399 -0.7935 0.5048
vn -0.4042 -0.7627 0.5048
vn -0.4658 -0.7267 0.5048
vn -0.5243 -0.6858 0.5048
vn -0.5791 -0.6401 0.5048
vn -0.6300 -0.5901 0.5048
vn -0.6766 -0.5361 0.5048
vn -0.7185 -0.4784 0.5048
vn -0.7556 -0.4174 0.5048
vn -0.7875 -0.3536 0.5048
vn -0.8140 -0.2874 0.5048
vn -0.8349 -0.2192 0.5048
vn -0.8502 -0.1495 0.5048
vn -0.8596 -0.0788 0.5048
vn -0.8632 -0.0075 0.5048
vn -0.8609 0.0638 0.5048
vn -0.8526 0.1347 0.5048
vn -0.8386 0.2046 0.5048
vn -0.8188 0.2732 0.5048
vn -0.7935 0.3399 0.5048
vn -0.7627 0.4042 0.5048
vn -0.7267 0.4658 0.5048
vn -0.6858 0.5242 0.5048
vn -0.6401 0.5791 0.5048
vn -0.5901 0.6300 0.5048
vn -0.5361 0.6766 0.5048
vn -0.4784 0.7185 0.5048
vn -0.4174 0.7556 0.5048
vn -0.3536 0.7875 0.5048
vn -0.2874 0.8140 0.5048
vn -0.2192 0.8349 0.5048
vn -0.1495 0.8502 0.5048
vn -0.0788 0.8596 0.5048
vn -0.1103 -0.6986 0.7070
vn -0.1676 -0.6871 0.7070
vn -0.2238 -0.6709 0.7070
vn -0.2784 -0.6501 0.7070
vn -0.3312 -0.6249 0.7070
vn -0.3816 -0.5954 0.7070
vn -0.4295 -0.5619 0.7070
vn -0.4744 -0.5245 0.7070
vn -0.5161 -0.4835 0.7070
vn -0.5543 -0.4392 0.7070
vn -0.5887 -0.3920 0.7070
vn -0.6190 -0.3420 0.7070
vn -0.6452 -0.2897 0.7070
vn -0.6669 -0.2354 0.7070
vn -0.6840 -0.1796 0.7070
vn -0.6965 -0.1225 0.7070
vn -0.7043 -0.0645 0.7070
vn -0.7072 -0.0062 0.7070
vn -0.7053 0.0523 0.7070
vn -0.6986 0.1103 0.7070
vn -0.6871 0.1676 0.7070
vn -0.6709 0.2238 0.7070
vn -0.6501 0.2784 0.7070
vn -0.6249 0.3312 0.7070
vn -0.5954 0.3816 0.7070
vn -0.5618 0.4295 0.7070
vn -0.5245 0.4745 0.7070
vn -0.4835 0.5161 0.7070
vn -0.4392 0.5543 0.7070
vn -0.3920 0.5887 0.7070
vn -0.3420 0.6190 0.7070
vn -0.2897 0.6452 0.7070
vn -0.2354 0.6669 0.7070
vn -0.1796 0.6841 0.7070
vn -0.1225 0.6965 0.7070
vn -0.0645 0.7043 0.7070
vn -0.0373 -0.5036 0.8631
vn -0.0788 -0.4988 0.8631
vn -0.1197 -0.4906 0.8631
vn -0.1598 -0.4790 0.8631
vn -0.1988 -0.4642 0.8631
vn -0.2365 -0.4462 0.8631
vn -0.2725 -0.4252 0.8631
vn -0.3067 -0.4012 0.8631
vn -0.3388 -0.3745 0.8631
vn -0.3686 -0.3452 0.8631
vn -0.3958 -0.3136 0.8631
vn -0.4203 -0.2799 0.8631
vn -0.4420 -0.2442 0.8631
vn -0.4607 -0.2069 0.8631
vn -0.4762 -0.1681 0.8631
vn -0.4884 -0.1282 0.8631
vn -0.4974 -0.0874 0.8631
vn -0.5029 -0.0461 0.8631
vn -0.5050 -0.0044 0.8631
vn -0.5036 0.0373 0.8631
vn -0.4988 0.0788 0.8631
vn -0.4906 0.1197 0.8631
vn -0.4790 0.1598 0.8631
vn -0.4642 0.1988 0.8631
vn -0.4462 0.2365 0.8631
vn -0.4252 0.2725 0.8631
vn -0.4012 0.3067 0.8631
vn -0.3745 0.3388 0.8631
vn -0.3452 0.3685 0.8631
vn -0.3136 0.3958 0.8631
vn -0.2799 0.4204 0.8631
vn -0.2442 0.4420 0.8631
vn -0.2069 0.4607 0.8631
vn -0.1681 0.4762 0.8631
vn -0.1282 0.4885 0.8631
vn -0.0875 0.4974 0.8631
vn -0.0461 0.5029 0.8631
vn -0.0246 0.2685 0.9630
vn -0.0467 0.2655 0.9630
vn -0.0685 0.2608 0.9630
vn -0.0898 0.2542 0.9630
vn -0.1104 0.2460 0.9630
vn -0.1304 0.2360 0.9630
vn -0.1494 0.2244 0.9630
vn -0.1674 0.2113 0.9630
vn -0.1843 0.1968 0.9630
vn -0.1999 0.1809 0.9630
vn -0.2142 0.1637 0.9630
vn -0.2270 0.1455 0.9630
vn -0.2382 0.1263 0.9630
vn -0.2478 0.1061 0.9630
vn -0.2558 0.0853 0.9630
vn -0.2619 0.0639 0.9630
vn -0.2663 0.0421 0.9630
vn -0.2689 0.0199 0.9630
vn -0.2696 -0.0023 0.9630
vn -0.2685 -0.0246 0.9630
vn -0.2655 -0.0467 0.9630
vn -0.2608 -0.0685 0.9630
vn -0.2542 -0.0898 0.9630
vn -0.2459 -0.1104 0.9630
vn -0.2360 -0.1304 0.9630
vn -0.2244 -0.1494 0.9630
vn -0.2113 -0.1674 0.9630
vn -0.1968 -0.1843 0.9630
vn -0.1809 -0.1999 0.9630
vn -0.1637 -0.2142 0.9630
vn -0.1455 -0.2270 0.9630
vn -0.1263 -0.2382 0.9630
vn -0.1061 -0.2478 0.9630
vn -0.0853 -0.2558 0.9630
vn -0.0639 -0.2619 0.9630
vn -0.0421 -0.2663 0.9630
vn 0.0089 -0.9319 -0.3627
vn 0.1153 -0.9246 -0.3631
vn 0.2232 -0.9045 -0.3634
vn 0.3272 -0.8729 -0.3619
vn 0.4245 -0.8296 -0.3626
vn 0.5196 -0.7737 -0.3625
vn 0.6044 -0.7092 -0.3630
vn 0.6836 -0.6330 -0.3633
vn 0.7531 -0.5496 -0.3618
vn 0.8106 -0.4598 -0.3625
vn 0.8593 -0.3609 -0.3624
vn 0.8947 -0.2604 -0.3630
vn 0.9190 -0.1532 -0.3632
vn 0.9305 -0.0468 -0.3633
vn 0.9294 0.0626 -0.3637
vn 0.9163 0.1707 -0.3623
vn 0.8906 0.2740 -0.3629
vn 0.8521 0.3771 -0.3630
vn 0.8032 0.4722 -0.3633
vn 0.7421 0.5631 -0.3636
vn 0.6718 0.6462 -0.3621
vn 0.5936 0.7184 -0.3628
vn 0.5046 0.7834 -0.3628
vn 0.4117 0.8358 -0.3632
vn 0.3106 0.8783 -0.3635
vn 0.2063 0.9091 -0.3620
vn 0.1012 0.9264 -0.3627
vn -0.0089 0.9319 -0.3627
vn -0.1153 0.9246 -0.3631
vn -0.2232 0.9045 -0.3634
vn -0.3272 0.8729 -0.3619
vn -0.4245 0.8296 -0.3626
vn -0.5196 0.7737 -0.3625
vn -0.6044 0.7092 -0.3630
vn -0.6836 0.6330 -0.3633
vn -0.7531 0.5496 -0.3618
vn -0.8106 0.4598 -0.3625
vn -0.8593 0.3609 -0.3624
vn -0.8947 0.2604 -0.3630
vn -0.9190 0.1532 -0.3632
vn -0.9305 0.0468 -0.3633
vn -0.9294 -0.0626 -0.3637
vn -0.9163 -0.1707 -0.3623
vn -0.8906 -0.2740 -0.3629
vn -0.8521 -0.3771 -0.3630
vn -0.8032 -0.4722 -0.3633
vn -0.7421 -0.5631 -0.3636
vn -0.6718 -0.6462 -0.3621
vn -0.5936 -0.7184 -0.3628
vn -0.5046 -0.7834 -0.3629
vn -0.4117 -0.8358 -0.3632
vn -0.3106 -0.8783 -0.3635
vn -0.2062 -0.9091 -0.3620
vn -0.1012 -0.9264 -0.3627
vn 0.0063 -0.7193 -0.6947
vn 0.0897 -0.7137 -0.6947
vn 0.1720 -0.6985 -0.6946
vn 0.2519 -0.6738 -0.6946
vn 0.3284 -0.6400 -0.6947
vn 0.4005 -0.5975 -0.6947
vn 0.4672 -0.5470 -0.6947
vn 0.5275 -0.4891 -0.6947
vn 0.5807 -0.4245 -0.6946
vn 0.6261 -0.3542 -0.6946
vn 0.6630 -0.2792 -0.6947
vn 0.6909 -0.2003 -0.6947
vn 0.7095 -0.1187 -0.6947
vn 0.7185 -0.0356 -0.6946
vn 0.7178 0.0481 -0.6946
vn 0.7073 0.1311 -0.6947
vn 0.6873 0.2123 -0.6947
vn 0.6580 0.2907 -0.6947
vn 0.6198 0.3651 -0.6947
vn 0.5732 0.4346 -0.6947
vn 0.5189 0.4982 -0.6947
vn 0.4576 0.5551 -0.6946
vn 0.3901 0.6044 -0.6946
vn 0.3172 0.6456 -0.6947
vn 0.2402 0.6781 -0.6946
vn 0.1598 0.7014 -0.6947
vn 0.0773 0.7152 -0.6946
vn -0.0063 0.7193 -0.6947
vn -0.0897 0.7137 -0.6946
vn -0.1720 0.6985 -0.6946
vn -0.2519 0.6738 -0.6947
vn -0.3284 0.6400 -0.6946
vn -0.4005 0.5975 -0.6947
vn -0.4672 0.5470 -0.6947
vn -0.5275 0.4891 -0.6946
vn -0.5807 0.4245 -0.6946
vn -0.6261 0.3542 -0.6946
vn -0.6630 0.2792 -0.6947
vn -0.6909 0.2003 -0.6947
vn -0.7095 0.1187 -0.6947
vn -0.7185 0.0356 -0.6947
vn -0.7177 -0.0481 -0.6947
vn -0.7073 -0.1311 -0.6947
vn -0.6873 -0.2123 -0.6946
vn -0.6580 -0.2907 -0.6947
vn -0.6198 -0.3651 -0.6947
vn -0.5732 -0.4346 -0.6946
vn -0.5189 -0.4982 -0.6947
vn -0.4576 -0.5551 -0.6947
vn -0.3900 -0.6044 -0.6946
vn -0.3172 -0.6456 -0.6946
vn -0.2401 -0.6781 -0.6947
vn -0.1598 -0.7014 -0.6947
vn -0.0773 -0.7152 -0.6947
s 1
f 1//1 2//2 3//3
f 1//1 3//3 4//4
f 5//5 6//6 3//3
f 7//7 8//8 3//3
f 7//7 3//3 9//9
f 10//10 4//4 3//3
f 10//10 3//3 11//11
f 11//11 3//3 12//12
f 3//3 13//13 14//14
f 3//3 14//14 15//15
f 16//16 13//13 3//3
f 16//16 3//3 17//17
f 17//17 3//3 18//18
f 19//19 20//20 17//17
f 21//21 5//5 3//3
f 21//21 3//3 22//22
f 22//22 3//3 8//8
f 23//23 9//9 3//3
f 23//23 3//3 24//24
f 24//24 3//3 25//25
f 26//26 25//25 3//3
f 26//26 3//3 27//27
f 27//27 3//3 2//2
f 28//28 12//12 3//3
f 28//28 3//3 29//29
f 29//29 3//3 15//15
f 30//30 31//31 17//17
f 32//32 33//33 34//34
f 32//32 34//34 35//35
f 36//36 37//37 38//38
f 17//17 31//31 39//39
f 40//40 38//38 37//37
f 40//40 37//37 41//41
f 41//41 37//37 42//42
f 43//43 42//42 37//37
f 43//43 37//37 44//44
f 44//44 37//37 45//45
f 46//46 45//45 37//37
f 46//46 37//37 47//47
f 47//47 37//37 48//48
f 49//49 50//50 3//3
f 49//49 3//3 51//51
f 52//52 53//53 54//54
f 52//52 54//54 55//55
f 55//55 54//54 56//56
f 57//57 19//19 17//17
f 57//57 17//17 58//58
f 58//58 17//17 18//18
f 59//59 33//33 32//32
f 59//59 32//32 37//37
f 37//37 32//32 60//60
f 37//37 60//60 48//48
f 32//32 35//35 3//3
f 32//32 3//3 61//61
f 61//61 3//3 50//50
f 62//62 51//51 3//3
f 62//62 3//3 63//63
f 63//63 3//3 6//6
f 64//64 65//65 66//66
f 64//64 66//66 67//67
f 67//67 66//66 68//68
f 67//67 68//68 69//69
f 67//67 69//69 70//70
f 70//70 69//69 71//71
f 72//72 56//56 54//54
f 72//72 54//54 69//69
f 69//69 54//54 73//73
f 69//69 73//73 71//71
f 54//54 53//53 17//17
f 54//54 17//17 74//74
f 74//74 17//17 39//39
f 75//75 30//30 17//17
f 75//75 17//17 76//76
f 76//76 17//17 20//20
f 77//77 78//78 79//79
f 80//80 81//81 82//82
f 82//82 83//83 84//84
f 84//84 85//85 86//86
f 87//87 88//88 89//89
f 90//90 91//91 92//92
f 93//93 94//94 95//95
f 96//96 97//97 98//98
f 99//99 100//100 101//101
f 102//102 103//103 104//104
f 102//102 104//104 105//105
f 106//106 101//101 100//100
f 106//106 100//100 107//107
f 107//107 100//100 105//105
f 107//107 105//105 108//108
f 108//108 105//105 104//104
f 109//109 110//110 111//111
f 109//109 111//111 112//112
f 112//112 111//111 99//99
f 112//112 99//99 113//113
f 113//113 99//99 101//101
f 114//114 115//115 116//116
f 114//114 116//116 117//117
f 117//117 116//116 110//110
f 117//117 110//110 118//118
f 118//118 110//110 109//109
f 119//119 120//120 115//115
f 119//119 115//115 121//121
f 121//121 115//115 114//114
f 122//122 123//123 120//120
f 122//122 120//120 124//124
f 124//124 120//120 119//119
f 125//125 126//126 127//127
f 125//125 127//127 128//128
f 128//128 127//127 123//123
f 128//128 123//123 129//129
f 129//129 123//123 122//122
f 130//130 98//98 97//97
f 130//130 97//97 131//131
f 131//131 97//97 126//126
f 131//131 126//126 132//132
f 132//132 126//126 125//125
f 133//133 134//134 135//135
f 133//133 135//135 136//136
f 136//136 135//135 96//96
f 136//136 96//96 137//137
f 137//137 96//96 98//98
f 138//138 139//139 134//134
f 138//138 134//134 140//140
f 140//140 134//134 133//133
f 141//141 142//142 143//143
f 141//141 143//143 144//144
f 144//144 143//143 139//139
f 144//144 139//139 145//145
f 145//145 139//139 138//138
f 146//146 95//95 94//94
f 146//146 94//94 147//147
f 147//147 94//94 142//142
f 147//147 142//142 148//148
f 148//148 142//142 141//141
f 149//149 150//150 151//151
f 149//149 151//151 152//152
f 152//152 151//151 93//93
f 152//152 93//93 153//153
f 153//153 93//93 95//95
f 154//154 155//155 150//150
f 154//154 150//150 156//156
f 156//156 150//150 149//149
f 157//157 158//158 159//159
f 157//157 159//159 160//160
f 160//160 159//159 155//155
f 160//160 155//155 161//161
f 161//161 155//155 154//154
f 162//162 92//92 91//91
f 162//162 91//91 163//163
f 163//163 91//91 158//158
f 163//163 158//158 164//164
f 164//164 158//158 157//157
f 165//165 166//166 167//167
f 165//165 167//167 168//168
f 168//168 167//167 90//90
f 168//168 90//90 169//169
f 169//169 90//90 92//92
f 170//170 171//171 166//166
f 170//170 166//166 172//172
f 172//172 166//166 165//165
f 173//173 174//174 175//175
f 173//173 175//175 176//176
f 176//176 175//175 171//171
f 176//176 171//171 177//177
f 177//177 171//171 170//170
f 178//178 89//89 88//88
f 178//178 88//88 179//179
f 179//179 88//88 174//174
f 179//179 174//174 180//180
f 180//180 174//174 173//173
f 181//181 86//86 85//85
f 181//181 85//85 182//182
f 182//182 85//85 183//183
f 182//182 183//183 184//184
f 184//184 183//183 87//87
f 184//184 87//87 185//185
f 185//185 87//87 89//89
f 102//102 186//186 187//187
f 102//102 187//187 103//103
f 103//103 187//187 188//188
f 85//85 84//84 83//83
f 85//85 83//83 183//183
f 183//183 83//83 189//189
f 183//183 189//189 87//87
f 87//87 189//189 190//190
f 87//87 190//190 88//88
f 88//88 190//190 191//191
f 88//88 191//191 174//174
f 174//174 191//191 192//192
f 174//174 192//192 175//175
f 175//175 192//192 193//193
f 175//175 193//193 171//171
f 171//171 193//193 194//194
f 171//171 194//194 166//166
f 166//166 194//194 195//195
f 166//166 195//195 167//167
f 167//167 195//195 196//196
f 167//167 196//196 90//90
f 90//90 196//196 197//197
f 90//90 197//197 91//91
f 91//91 197//197 198//198
f 91//91 198//198 158//158
f 158//158 198//198 199//199
f 158//158 199//199 159//159
f 159//159 199//199 200//200
f 159//159 200//200 155//155
f 155//155 200//200 201//201
f 155//155 201//201 150//150
f 150//150 201//201 202//202
f 150//150 202//202 151//151
f 151//151 202//202 203//203
f 151//151 203//203 93//93
f 93//93 203//203 204//204
f 93//93 204//204 94//94
f 94//94 204//204 205//205
f 94//94 205//205 142//142
f 142//142 205//205 206//206
f 142//142 206//206 143//143
f 143//143 206//206 207//207
f 143//143 207//207 139//139
f 139//139 207//207 208//208
f 139//139 208//208 134//134
f 134//134 208//208 209//209
f 134//134 209//209 135//135
f 135//135 209//209 210//210
f 135//135 210//210 96//96
f 96//96 210//210 211//211
f 96//96 211//211 97//97
f 97//97 211//211 212//212
f 97//97 212//212 126//126
f 126//126 212//212 213//213
f 126//126 213//213 127//127
f 127//127 213//213 214//214
f 127//127 214//214 123//123
f 123//123 214//214 215//215
f 123//123 215//215 120//120
f 120//120 215//215 216//216
f 120//120 216//216 115//115
f 115//115 216//216 217//217
f 115//115 217//217 116//116
f 116//116 217//217 218//218
f 116//116 218//218 110//110
f 110//110 218//218 219//219
f 110//110 219//219 111//111
f 111//111 219//219 220//220
f 111//111 220//220 99//99
f 99//99 220//220 221//221
f 99//99 221//221 100//100
f 100//100 221//221 222//222
f 100//100 222//222 105//105
f 105//105 222//222 223//223
f 105//105 223//223 102//102
f 102//102 223//223 224//224
f 102//102 224//224 186//186
f 186//186 224//224 225//225
f 83//83 82//82 81//81
f 83//83 81//81 189//189
f 189//189 81//81 226//226
f 189//189 226//226 190//190
f 190//190 226//226 227//227
f 190//190 227//227 191//191
f 191//191 227//227 228//228
f 191//191 228//228 192//192
f 192//192 228//228 229//229
f 192//192 229//229 193//193
f 193//193 229//229 230//230
f 193//193 230//230 194//194
f 194//194 230//230 231//231
f 194//194 231//231 195//195
f 195//195 231//231 232//232
f 195//195 232//232 196//196
f 196//196 232//232 233//233
f 196//196 233//233 197//197
f 197//197 233//233 234//234
f 197//197 234//234 198//198
f 198//198 234//234 235//235
f 198//198 235//235 199//199
f 199//199 235//235 236//236
f 199//199 236//236 200//200
f 200//200 236//236 237//237
f 200//200 237//237 201//201
f 201//201 237//237 238//238
f 201//201 238//238 202//202
f 202//202 238//238 239//239
f 202//202 239//239 203//203
f 203//203 239//239 240//240
f 203//203 240//240 204//204
f 204//204 240//240 241//241
f 204//204 241//241 205//205
f 205//205 241//241 242//242
f 205//205 242//242 206//206
f 206//206 242//242 243//243
f 206//206 243//243 207//207
f 207//207 243//243 244//244
f 207//207 244//244 208//208
f 208//208 244//244 245//245
f 208//208 245//245 209//209
f 209//209 245//245 246//246
f 209//209 246//246 210//210
f 210//210 246//246 247//247
f 210//210 247//247 211//211
f 211//211 247//247 248//248
f 211//211 248//248 212//212
f 212//212 248//248 249//249
f 212//212 249//249 213//213
f 213//213 249//249 250//250
f 213//213 250//250 214//214
f 214//214 250//250 251//251
f 214//214 251//251 215//215
f 215//215 251//251 252//252
f 215//215 252//252 216//216
f 216//216 252//252 253//253
f 216//216 253//253 217//217
f 217//217 253//253 254//254
f 217//217 254//254 218//218
f 218//218 254//254 255//255
f 218//218 255//255 219//219
f 219//219 255//255 256//256
f 219//219 256//256 220//220
f 220//220 256//256 257//257
f 220//220 257//257 221//221
f 221//221 257//257 258//258
f 221//221 258//258 222//222
f 222//222 258//258 259//259
f 222//222 259//259 223//223
f 223//223 259//259 260//260
f 223//223 260//260 224//224
f 224//224 260//260 261//261
f 224//224 261//261 225//225
f 225//225 261//261 262//262
f 81//81 80//80 263//263
f 81//81 263//263 226//226
f 226//226 263//263 264//264
f 226//226 264//264 227//227
f 227//227 264//264 265//265
f 227//227 265//265 228//228
f 228//228 265//265 266//266
f 228//228 266//266 229//229
f 229//229 266//266 267//267
f 229//229 267//267 230//230
f 230//230 267//267 268//268
f 230//230 268//268 231//231
f 231//231 268//268 269//269
f 231//231 269//269 232//232
f 232//232 269//269 270//270
f 232//232 270//270 233//233
f 233//233 270//270 271//271
f 233//233 271//271 234//234
f 234//234 271//271 272//272
f 234//234 272//272 235//235
f 235//235 272//272 273//273
f 235//235 273//273 236//236
f 236//236 273//273 274//274
f 236//236 274//274 237//237
f 237//237 274//274 275//275
f 237//237 275//275 238//238
f 238//238 275//275 276//276
f 238//238 276//276 239//239
f 239//239 276//276 277//277
f 239//239 277//277 240//240
f 240//240 277//277 278//278
f 240//240 278//278 241//241
f 241//241 278//278 279//279
f 241//241 279//279 242//242
f 242//242 279//279 280//280
f 242//242 280//280 243//243
f 243//243 280//280 281//281
f 243//243 281//281 244//244
f 244//244 281//281 282//282
f 244//244 282//282 245//245
f 245//245 282//282 283//283
f 245//245 283//283 246//246
f 246//246 283//283 284//284
f 246//246 284//284 247//247
f 247//247 284//284 285//285
f 247//247 285//285 248//248
f 248//248 285//285 286//286
f 248//248 286//286 249//249
f 249//249 286//286 287//287
f 249//249 287//287 250//250
f 250//250 287//287 288//288
f 250//250 288//288 251//251
f 251//251 288//288 289//289
f 251//251 289//289 252//252
f 252//252 289//289 290//290
f 252//252 290//290 253//253
f 253//253 290//290 291//291
f 253//253 291//291 254//254
f 254//254 291//291 292//292
f 254//254 292//292 255//255
f 255//255 292//292 293//293
f 255//255 293//293 256//256
f 256//256 293//293 294//294
f 256//256 294//294 257//257
f 257//257 294//294 295//295
f 257//257 295//295 258//258
f 258//258 295//295 296//296
f 258//258 296//296 259//259
f 259//259 296//296 297//297
f 259//259 297//297 260//260
f 260//260 297//297 298//298
f 260//260 298//298 261//261
f 261//261 298//298 299//299
f 261//261 299//299 262//262
f 262//262 299//299 300//300
f 301//301 300//300 299//299
f 301//301 299//299 302//302
f 302//302 299//299 298//298
f 302//302 298//298 303//303
f 303//303 298//298 297//297
f 303//303 297//297 304//304
f 304//304 297//297 296//296
f 304//304 296//296 305//305
f 305//305 296//296 295//295
f 305//305 295//295 306//306
f 306//306 295//295 294//294
f 306//306 294//294 307//307
f 307//307 294//294 293//293
f 307//307 293//293 308//308
f 308//308 293//293 292//292
f 308//308 292//292 309//309
f 309//309 292//292 291//291
f 309//309 291//291 310//310
f 310//310 291//291 290//290
f 310//310 290//290 311//311
f 311//311 290//290 289//289
f 311//311 289//289 312//312
f 312//312 289//289 288//288
f 312//312 288//288 313//313
f 313//313 288//288 287//287
f 313//313 287//287 314//314
f 314//314 287//287 286//286
f 314//314 286//286 315//315
f 315//315 286//286 285//285
f 315//315 285//285 316//316
f 316//316 285//285 284//284
f 316//316 284//284 317//317
f 317//317 284//284 283//283
f 317//317 283//283 318//318
f 318//318 283//283 282//282
f 318//318 282//282 319//319
f 319//319 282//282 281//281
f 319//319 281//281 320//320
f 320//320 281//281 280//280
f 320//320 280//280 321//321
f 321//321 280//280 279//279
f 321//321 279//279 322//322
f 322//322 279//279 278//278
f 322//322 278//278 323//323
f 323//323 278//278 277//277
f 323//323 277//277 324//324
f 324//324 277//277 276//276
f 324//324 276//276 325//325
f 325//325 276//276 275//275
f 325//325 275//275 326//326
f 326//326 275//275 274//274
f 326//326 274//274 327//327
f 327//327 274//274 273//273
f 327//327 273//273 328//328
f 328//328 273//273 272//272
f 328//328 272//272 329//329
f 329//329 272//272 271//271
f 329//329 271//271 330//330
f 330//330 271//271 270//270
f 330//330 270//270 331//331
f 331//331 270//270 269//269
f 331//331 269//269 332//332
f 332//332 269//269 268//268
f 332//332 268//268 333//333
f 333//333 268//268 267//267
f 333//333 267//267 334//334
f 334//334 267//267 266//266
f 334//334 266//266 335//335
f 335//335 266//266 265//265
f 335//335 265//265 336//336
f 336//336 265//265 264//264
f 336//336 264//264 78//78
f 78//78 264//264 263//263
f 78//78 263//263 79//79
f 79//79 263//263 80//80
f 77//77 25//25 26//26
f 77//77 26//26 78//78
f 78//78 26//26 27//27
f 78//78 27//27 336//336
f 336//336 27//27 2//2
f 336//336 2//2 335//335
f 335//335 2//2 1//1
f 335//335 1//1 334//334
f 334//334 1//1 4//4
f 334//334 4//4 333//333
f 333//333 4//4 10//10
f 333//333 10//10 332//332
f 332//332 10//10 11//11
f 332//332 11//11 331//331
f 331//331 11//11 12//12
f 331//331 12//12 330//330
f 330//330 12//12 28//28
f 330//330 28//28 329//329
f 329//329 28//28 29//29
f 329//329 29//29 328//328
f 328//328 29//29 15//15
f 328//328 15//15 327//327
f 327//327 15//15 14//14
f 327//327 14//14 326//326
f 326//326 14//14 13//13
f 326//326 13//13 325//325
f 325//325 13//13 16//16
f 325//325 16//16 324//324
f 324//324 16//16 17//17
f 324//324 17//17 323//323
f 323//323 17//17 53//53
f 323//323 53//53 322//322
f 322//322 53//53 52//52
f 322//322 52//52 321//321
f 321//321 52//52 55//55
f 321//321 55//55 320//320
f 320//320 55//55 56//56
f 320//320 56//56 319//319
f 319//319 56//56 72//72
f 319//319 72//72 318//318
f 318//318 72//72 69//69
f 318//318 69//69 317//317
f 317//317 69//69 68//68
f 317//317 68//68 316//316
f 316//316 68//68 66//66
f 316//316 66//66 315//315
f 315//315 66//66 65//65
f 315//315 65//65 314//314
f 314//314 65//65 64//64
f 314//314 64//64 313//313
f 313//313 64//64 67//67
f 313//313 67//67 312//312
f 312//312 67//67 70//70
f 312//312 70//70 311//311
f 311//311 70//70 71//71
f 311//311 71//71 310//310
f 310//310 71//71 73//73
f 310//310 73//73 309//309
f 309//309 73//73 54//54
f 309//309 54//54 308//308
f 308//308 54//54 74//74
f 308//308 74//74 307//307
f 307//307 74//74 39//39
f 307//307 39//39 306//306
f 306//306 39//39 31//31
f 306//306 31//31 305//305
f 305//305 31//31 30//30
f 305//305 30//30 304//304
f 304//304 30//30 75//75
f 304//304 75//75 303//303
f 303//303 75//75 76//76
f 303//303 76//76 302//302
f 302//302 76//76 20//20
f 302//302 20//20 301//301
f 301//301 20//20 19//19
f 301//301 19//19 300//300
f 300//300 337//337 262//262
f 225//225 338//338 186//186
f 186//186 339//339 187//187
f 187//187 340//340 188//188
f 341//341 342//342 343//343
f 344//344 345//345 346//346
f 347//347 348//348 349//349
f 350//350 351//351 352//352
f 353//353 354//354 355//355
f 356//356 357//357 358//358
f 356//356 358//358 359//359
f 360//360 355//355 354//354
f 360//360 354//354 361//361
f 361//361 354//354 359//359
f 361//361 359//359 362//362
f 362//362 359//359 358//358
f 363//363 364//364 365//365
f 363//363 365//365 366//366
f 366//366 365//365 353//353
f 366//366 353//353 367//367
f 367//367 353//353 355//355
f 368//368 369//369 370//370
f 368//368 370//370 371//371
f 371//371 370//370 364//364
f 371//371 364//364 372//372
f 372//372 364//364 363//363
f 373//373 374//374 369//369
f 373//373 369//369 375//375
f 375//375 369//369 368//368
f 376//376 377//377 374//374
f 376//376 374//374 378//378
f 378//378 374//374 373//373
f 379//379 380//380 381//381
f 379//379 381//381 382//382
f 382//382 381//381 377//377
f 382//382 377//377 383//383
f 383//383 377//377 376//376
f 384//384 352//352 351//351
f 384//384 351//351 385//385
f 385//385 351//351 380//380
f 385//385 380//380 386//386
f 386//386 380//380 379//379
f 387//387 388//388 389//389
f 387//387 389//389 390//390
f 390//390 389//389 350//350
f 390//390 350//350 391//391
f 391//391 350//350 352//352
f 392//392 393//393 388//388
f 392//392 388//388 394//394
f 394//394 388//388 387//387
f 395//395 396//396 397//397
f 395//395 397//397 398//398
f 398//398 397//397 393//393
f 398//398 393//393 399//399
f 399//399 393//393 392//392
f 400//400 349//349 348//348
f 400//400 348//348 401//401
f 401//401 348//348 396//396
f 401//401 396//396 402//402
f 402//402 396//396 395//395
f 403//403 404//404 405//405
f 403//403 405//405 406//406
f 406//406 405//405 347//347
f 406//406 347//347 407//407
f 407//407 347//347 349//349
f 408//408 409//409 404//404
f 408//408 404//404 410//410
f 410//410 404//404 403//403
f 411//411 412//412 413//413
f 411//411 413//413 414//414
f 414//414 413//413 409//409
f 414//414 409//409 415//415
f 415//415 409//409 408//408
f 416//416 346//346 345//345
f 416//416 345//345 417//417
f 417//417 345//345 412//412
f 417//417 412//412 418//418
f 418//418 412//412 411//411
f 419//419 420//420 421//421
f 419//419 421//421 422//422
f 422//422 421//421 344//344
f 422//422 344//344 423//423
f 423//423 344//344 346//346
f 424//424 425//425 420//420
f 424//424 420//420 426//426
f 426//426 420//420 419//419
f 427//427 428//428 429//429
f 427//427 429//429 430//430
f 430//430 429//429 425//425
f 430//430 425//425 431//431
f 431//431 425//425 424//424
f 432//432 343//343 342//342
f 432//432 342//342 433//433
f 433//433 342//342 428//428
f 433//433 428//428 434//434
f 434//434 428//428 427//427
f 435//435 188//188 340//340
f 435//435 340//340 436//436
f 436//436 340//340 437//437
f 436//436 437//437 438//438
f 438//438 437//437 341//341
f 438//438 341//341 439//439
f 439//439 341//341 343//343
f 356//356 82//82 84//84
f 356//356 84//84 357//357
f 357//357 84//84 86//86
f 340//340 187//187 339//339
f 340//340 339//339 437//437
f 437//437 339//339 440//440
f 437//437 440//440 341//341
f 341//341 440//440 441//441
f 341//341 441//441 342//342
f 342//342 441//441 442//442
f 342//342 442//442 428//428
f 428//428 442//442 443//443
f 428//428 443//443 429//429
f 429//429 443//443 444//444
f 429//429 444//444 425//425
f 425//425 444//444 445//445
f 425//425 445//445 420//420
f 420//420 445//445 446//446
f 420//420 446//446 421//421
f 421//421 446//446 447//447
f 421//421 447//447 344//344
f 344//344 447//447 448//448
f 344//344 448//448 345//345
f 345//345 448//448 449//449
f 345//345 449//449 412//412
f 412//412 449//449 450//450
f 412//412 450//450 413//413
f 413//413 450//450 451//451
f 413//413 451//451 409//409
f 409//409 451//451 452//452
f 409//409 452//452 404//404
f 404//404 452//452 453//453
f 404//404 453//453 405//405
f 405//405 453//453 454//454
f 405//405 454//454 347//347
f 347//347 454//454 455//455
f 347//347 455//455 348//348
f 348//348 455//455 456//456
f 348//348 456//456 396//396
f 396//396 456//456 457//457
f 396//396 457//457 397//397
f 397//397 457//457 458//458
f 397//397 458//458 393//393
f 393//393 458//458 459//459
f 393//393 459//459 388//388
f 388//388 459//459 460//460
f 388//388 460//460 389//389
f 389//389 460//460 461//461
f 389//389 461//461 350//350
f 350//350 461//461 462//462
f 350//350 462//462 351//351
f 351//351 462//462 463//463
f 351//351 463//463 380//380
f 380//380 463//463 464//464
f 380//380 464//464 381//381
f 381//381 464//464 465//465
f 381//381 465//465 377//377
f 377//377 465//465 466//466
f 377//377 466//466 374//374
f 374//374 466//466 467//467
f 374//374 467//467 369//369
f 369//369 467//467 468//468
f 369//369 468//468 370//370
f 370//370 468//468 469//469
f 370//370 469//469 364//364
f 364//364 469//469 470//470
f 364//364 470//470 365//365
f 365//365 470//470 471//471
f 365//365 471//471 353//353
f 353//353 471//471 472//472
f 353//353 472//472 354//354
f 354//354 472//472 473//473
f 354//354 473//473 359//359
f 359//359 473//473 474//474
f 359//359 474//474 356//356
f 356//356 474//474 475//475
f 356//356 475//475 82//82
f 82//82 475//475 80//80
f 339//339 186//186 338//338
f 339//339 338//338 440//440
f 440//440 338//338 476//476
f 440//440 476//476 441//441
f 441//441 476//476 477//477
f 441//441 477//477 442//442
f 442//442 477//477 478//478
f 442//442 478//478 443//443
f 443//443 478//478 479//479
f 443//443 479//479 444//444
f 444//444 479//479 480//480
f 444//444 480//480 445//445
f 445//445 480//480 481//481
f 445//445 481//481 446//446
f 446//446 481//481 482//482
f 446//446 482//482 447//447
f 447//447 482//482 483//483
f 447//447 483//483 448//448
f 448//448 483//483 484//484
f 448//448 484//484 449//449
f 449//449 484//484 485//485
f 449//449 485//485 450//450
f 450//450 485//485 486//486
f 450//450 486//486 451//451
f 451//451 486//486 487//487
f 451//451 487//487 452//452
f 452//452 487//487 488//488
f 452//452 488//488 453//453
f 453//453 488//488 489//489
f 453//453 489//489 454//454
f 454//454 489//489 490//490
f 454//454 490//490 455//455
f 455//455 490//490 491//491
f 455//455 491//491 456//456
f 456//456 491//491 492//492
f 456//456 492//492 457//457
f 457//457 492//492 493//493
f 457//457 493//493 458//458
f 458//458 493//493 494//494
f 458//458 494//494 459//459
f 459//459 494//494 495//495
f 459//459 495//495 460//460
f 460//460 495//495 496//496
f 460//460 496//496 461//461
f 461//461 496//496 497//497
f 461//461 497//497 462//462
f 462//462 497//497 498//498
f 462//462 498//498 463//463
f 463//463 498//498 499//499
f 463//463 499//499 464//464
f 464//464 499//499 500//500
f 464//464 500//500 465//465
f 465//465 500//500 501//501
f 465//465 501//501 466//466
f 466//466 501//501 502//502
f 466//466 502//502 467//467
f 467//467 502//502 503//503
f 467//467 503//503 468//468
f 468//468 503//503 504//504
f 468//468 504//504 469//469
f 469//469 504//504 505//505
f 469//469 505//505 470//470
f 470//470 505//505 506//506
f 470//470 506//506 471//471
f 471//471 506//506 507//507
f 471//471 507//507 472//472
f 472//472 507//507 508//508
f 472//472 508//508 473//473
f 473//473 508//508 509//509
f 473//473 509//509 474//474
f 474//474 509//509 510//510
f 474//474 510//510 475//475
f 475//475 510//510 511//511
f 475//475 511//511 80//80
f 80//80 511//511 79//79
f 338//338 225//225 512//512
f 338//338 512//512 476//476
f 476//476 512//512 513//513
f 476//476 513//513 477//477
f 477//477 513//513 514//514
f 477//477 514//514 478//478
f 478//478 514//514 515//515
f 478//478 515//515 479//479
f 479//479 515//515 516//516
f 479//479 516//516 480//480
f 480//480 516//516 517//517
f 480//480 517//517 481//481
f 481//481 517//517 518//518
f 481//481 518//518 482//482
f 482//482 518//518 519//519
f 482//482 519//519 483//483
f 483//483 519//519 520//520
f 483//483 520//520 484//484
f 484//484 520//520 521//521
f 484//484 521//521 485//485
f 485//485 521//521 522//522
f 485//485 522//522 486//486
f 486//486 522//522 523//523
f 486//486 523//523 487//487
f 487//487 523//523 524//524
f 487//487 524//524 488//488
f 488//488 524//524 525//525
f 488//488 525//525 489//489
f 489//489 525//525 526//526
f 489//489 526//526 490//490
f 490//490 526//526 527//527
f 490//490 527//527 491//491
f 491//491 527//527 528//528
f 491//491 528//528 492//492
f 492//492 528//528 529//529
f 492//492 529//529 493//493
f 493//493 529//529 530//530
f 493//493 530//530 494//494
f 494//494 530//530 531//531
f 494//494 531//531 495//495
f 495//495 531//531 532//532
f 495//495 532//532 496//496
f 496//496 532//532 533//533
f 496//496 533//533 497//497
f 497//497 533//533 534//534
f 497//497 534//534 498//498
f 498//498 534//534 535//535
f 498//498 535//535 499//499
f 499//499 535//535 536//536
f 499//499 536//536 500//500
f 500//500 536//536 537//537
f 500//500 537//537 501//501
f 501//501 537//537 538//538
f 501//501 538//538 502//502
f 502//502 538//538 539//539
f 502//502 539//539 503//503
f 503//503 539//539 540//540
f 503//503 540//540 504//504
f 504//504 540//540 541//541
f 504//504 541//541 505//505
f 505//505 541//541 542//542
f 505//505 542//542 506//506
f 506//506 542//542 543//543
f 506//506 543//543 507//507
f 507//507 543//543 544//544
f 507//507 544//544 508//508
f 508//508 544//544 545//545
f 508//508 545//545 509//509
f 509//509 545//545 546//546
f 509//509 546//546 510//510
f 510//510 546//546 547//547
f 510//510 547//547 511//511
f 511//511 547//547 548//548
f 511//511 548//548 79//79
f 79//79 548//548 77//77
f 549//549 77//77 548//548
f 549//549 548//548 550//550
f 550//550 548//548 547//547
f 550//550 547//547 551//551
f 551//551 547//547 546//546
f 551//551 546//546 552//552
f 552//552 546//546 545//545
f 552//552 545//545 553//553
f 553//553 545//545 544//544
f 553//553 544//544 554//554
f 554//554 544//544 543//543
f 554//554 543//543 555//555
f 555//555 543//543 542//542
f 555//555 542//542 556//556
f 556//556 542//542 541//541
f 556//556 541//541 557//557
f 557//557 541//541 540//540
f 557//557 540//540 558//558
f 558//558 540//540 539//539
f 558//558 539//539 559//559
f 559//559 539//539 538//538
f 559//559 538//538 560//560
f 560//560 538//538 537//537
f 560//560 537//537 561//561
f 561//561 537//537 536//536
f 561//561 536//536 562//562
f 562//562 536//536 535//535
f 562//562 535//535 563//563
f 563//563 535//535 534//534
f 563//563 534//534 564//564
f 564//564 534//534 533//533
f 564//564 533//533 565//565
f 565//565 533//533 532//532
f 565//565 532//532 566//566
f 566//566 532//532 531//531
f 566//566 531//531 567//567
f 567//567 531//531 530//530
f 567//567 530//530 568//568
f 568//568 530//530 529//529
f 568//568 529//529 569//569
f 569//569 529//529 528//528
f 569//569 528//528 570//570
f 570//570 528//528 527//527
f 570//570 527//527 571//571
f 571//571 527//527 526//526
f 571//571 526//526 572//572
f 572//572 526//526 525//525
f 572//572 525//525 573//573
f 573//573 525//525 524//524
f 573//573 524//524 574//574
f 574//574 524//524 523//523
f 574//574 523//523 575//575
f 575//575 523//523 522//522
f 575//575 522//522 576//576
f 576//576 522//522 521//521
f 576//576 521//521 577//577
f 577//577 521//521 520//520
f 577//577 520//520 578//578
f 578//578 520//520 519//519
f 578//578 519//519 579//579
f 579//579 519//519 518//518
f 579//579 518//518 580//580
f 580//580 518//518 517//517
f 580//580 517//517 581//581
f 581//581 517//517 516//516
f 581//581 516//516 582//582
f 582//582 516//516 515//515
f 582//582 515//515 583//583
f 583//583 515//515 514//514
f 583//583 514//514 584//584
f 584//584 514//514 513//513
f 584//584 513//513 337//337
f 337//337 513//513 512//512
f 337//337 512//512 262//262
f 262//262 512//512 225//225
f 300//300 19//19 57//57
f 300//300 57//57 337//337
f 337//337 57//57 58//58
f 337//337 58//58 584//584
f 584//584 58//58 18//18
f 584//584 18//18 583//583
f 583//583 18//18 3//3
f 583//583 3//3 582//582
f 582//582 3//3 35//35
f 582//582 35//35 581//581
f 581//581 35//35 34//34
f 581//581 34//34 580//580
f 580//580 34//34 33//33
f 580//580 33//33 579//579
f 579//579 33//33 59//59
f 579//579 59//59 578//578
f 578//578 59//59 37//37
f 578//578 37//37 577//577
f 577//577 37//37 36//36
f 577//577 36//36 576//576
f 576//576 36//36 38//38
f 576//576 38//38 575//575
f 575//575 38//38 40//40
f 575//575 40//40 574//574
f 574//574 40//40 41//41
f 574//574 41//41 573//573
f 573//573 41//41 42//42
f 573//573 42//42 572//572
f 572//572 42//42 43//43
f 572//572 43//43 571//571
f 571//571 43//43 44//44
f 571//571 44//44 570//570
f 570//570 44//44 45//45
f 570//570 45//45 569//569
f 569//569 45//45 46//46
f 569//569 46//46 568//568
f 568//568 46//46 47//47
f 568//568 47//47 567//567
f 567//567 47//47 48//48
f 567//567 48//48 566//566
f 566//566 48//48 60//60
f 566//566 60//60 565//565
f 565//565 60//60 32//32
f 565//565 32//32 564//564
f 564//564 32//32 61//61
f 564//564 61//61 563//563
f 563//563 61//61 50//50
f 563//563 50//50 562//562
f 562//562 50//50 49//49
f 562//562 49//49 561//561
f 561//561 49//49 51//51
f 561//561 51//51 560//560
f 560//560 51//51 62//62
f 560//560 62//62 559//559
f 559//559 62//62 63//63
f 559//559 63//63 558//558
f 558//558 63//63 6//6
f 558//558 6//6 557//557
f 557//557 6//6 5//5
f 557//557 5//5 556//556
f 556//556 5//5 21//21
f 556//556 21//21 555//555
f 555//555 21//21 22//22
f 555//555 22//22 554//554
f 554//554 22//22 8//8
f 554//554 8//8 553//553
f 553//553 8//8 7//7
f 553//553 7//7 552//552
f 552//552 7//7 9//9
f 552//552 9//9 551//551
f 551//551 9//9 23//23
f 551//551 23//23 550//550
f 550//550 23//23 24//24
f 550//550 24//24 549//549
f 549//549 24//24 25//25
f 549//549 25//25 77//77
f 188//188 585//585 586//586
f 188//188 586//586 103//103
f 104//104 103//103 586//586
f 104//104 586//586 108//108
f 108//108 586//586 587//587
f 107//107 108//108 587//587
f 107//107 587//587 106//106
f 106//106 587//587 588//588
f 101//101 106//106 588//588
f 101//101 588//588 113//113
f 113//113 588//588 589//589
f 113//113 589//589 112//112
f 109//109 112//112 589//589
f 109//109 589//589 118//118
f 118//118 589//589 590//590
f 117//117 118//118 590//590
f 117//117 590//590 114//114
f 114//114 590//590 591//591
f 114//114 591//591 121//121
f 119//119 121//121 591//591
f 119//119 591//591 124//124
f 124//124 591//591 592//592
f 122//122 124//124 592//592
f 122//122 592//592 129//129
f 129//129 592//592 593//593
f 128//128 129//129 593//593
f 128//128 593//593 125//125
f 125//125 593//593 594//594
f 125//125 594//594 132//132
f 131//131 132//132 594//594
f 131//131 594//594 130//130
f 130//130 594//594 595//595
f 98//98 130//130 595//595
f 98//98 595//595 137//137
f 137//137 595//595 596//596
f 137//137 596//596 136//136
f 133//133 136//136 596//596
f 133//133 596//596 140//140
f 140//140 596//596 597//597
f 138//138 140//140 597//597
f 138//138 597//597 145//145
f 145//145 597//597 598//598
f 145//145 598//598 144//144
f 141//141 144//144 598//598
f 141//141 598//598 148//148
f 148//148 598//598 599//599
f 147//147 148//148 599//599
f 147//147 599//599 146//146
f 146//146 599//599 600//600
f 95//95 146//146 600//600
f 95//95 600//600 153//153
f 153//153 600//600 601//601
f 153//153 601//601 152//152
f 149//149 152//152 601//601
f 149//149 601//601 156//156
f 156//156 601//601 602//602
f 154//154 156//156 602//602
f 154//154 602//602 161//161
f 161//161 602//602 603//603
f 161//161 603//603 160//160
f 157//157 160//160 603//603
f 157//157 603//603 164//164
f 164//164 603//603 604//604
f 163//163 164//164 604//604
f 163//163 604//604 162//162
f 162//162 604//604 605//605
f 92//92 162//162 605//605
f 92//92 605//605 169//169
f 169//169 605//605 606//606
f 169//169 606//606 168//168
f 165//165 168//168 606//606
f 165//165 606//606 172//172
f 172//172 606//606 607//607
f 170//170 172//172 607//607
f 170//170 607//607 177//177
f 177//177 607//607 608//608
f 177//177 608//608 176//176
f 173//173 176//176 608//608
f 173//173 608//608 180//180
f 180//180 608//608 609//609
f 179//179 180//180 609//609
f 179//179 609//609 178//178
f 178//178 609//609 610//610
f 89//89 178//178 610//610
f 89//89 610//610 185//185
f 185//185 610//610 611//611
f 185//185 611//611 184//184
f 612//612 86//86 181//181
f 612//612 181//181 611//611
f 611//611 181//181 182//182
f 611//611 182//182 184//184
f 86//86 612//612 613//613
f 86//86 613//613 357//357
f 358//358 357//357 613//613
f 358//358 613//613 362//362
f 362//362 613//613 614//614
f 361//361 362//362 614//614
f 361//361 614//614 360//360
f 360//360 614//614 615//615
f 355//355 360//360 615//615
f 355//355 615//615 367//367
f 367//367 615//615 616//616
f 367//367 616//616 366//366
f 363//363 366//366 616//616
f 363//363 616//616 372//372
f 372//372 616//616 617//617
f 371//371 372//372 617//617
f 371//371 617//617 368//368
f 368//368 617//617 618//618
f 368//368 618//618 375//375
f 373//373 375//375 618//618
f 373//373 618//618 378//378
f 378//378 618//618 619//619
f 376//376 378//378 619//619
f 376//376 619//619 383//383
f 383//383 619//619 620//620
f 382//382 383//383 620//620
f 382//382 620//620 379//379
f 379//379 620//620 621//621
f 379//379 621//621 386//386
f 385//385 386//386 621//621
f 385//385 621//621 384//384
f 384//384 621//621 622//622
f 352//352 384//384 622//622
f 352//352 622//622 391//391
f 391//391 622//622 623//623
f 391//391 623//623 390//390
f 387//387 390//390 623//623
f 387//387 623//623 394//394
f 394//394 623//623 624//624
f 392//392 394//394 624//624
f 392//392 624//624 399//399
f 399//399 624//624 625//625
f 399//399 625//625 398//398
f 395//395 398//398 625//625
f 395//395 625//625 402//402
f 402//402 625//625 626//626
f 401//401 402//402 626//626
f 401//401 626//626 400//400
f 400//400 626//626 627//627
f 349//349 400//400 627//627
f 349//349 627//627 407//407
f 407//407 627//627 628//628
f 407//407 628//628 406//406
f 403//403 406//406 628//628
f 403//403 628//628 410//410
f 410//410 628//628 629//629
f 408//408 410//410 629//629
f 408//408 629//629 415//415
f 415//415 629//629 630//630
f 415//415 630//630 414//414
f 411//411 414//414 630//630
f 411//411 630//630 418//418
f 418//418 630//630 631//631
f 417//417 418//418 631//631
f 417//417 631//631 416//416
f 416//416 631//631 632//632
f 346//346 416//416 632//632
f 346//346 632//632 423//423
f 423//423 632//632 633//633
f 423//423 633//633 422//422
f 419//419 422//422 633//633
f 419//419 633//633 426//426
f 426//426 633//633 634//634
f 424//424 426//426 634//634
f 424//424 634//634 431//431
f 431//431 634//634 635//635
f 431//431 635//635 430//430
f 427//427 430//430 635//635
f 427//427 635//635 434//434
f 434//434 635//635 636//636
f 433//433 434//434 636//636
f 433//433 636//636 432//432
f 432//432 636//636 637//637
f 343//343 432//432 637//637
f 343//343 637//637 439//439
f 439//439 637//637 638//638
f 439//439 638//638 438//438
f 585//585 188//188 435//435
f 585//585 435//435 638//638
f 638//638 435//435 436//436
f 638//638 436//436 438//438
f 585//585 639//639 640//640
f 585//585 640//640 586//586
f 586//586 640//640 641//641
f 586//586 641//641 587//587
f 587//587 641//641 642//642
f 587//587 642//642 588//588
f 588//588 642//642 643//643
f 588//588 643//643 589//589
f 589//589 643//643 644//644
f 589//589 644//644 590//590
f 590//590 644//644 645//645
f 590//590 645//645 591//591
f 591//591 645//645 646//646
f 591//591 646//646 592//592
f 592//592 646//646 647//647
f 592//592 647//647 593//593
f 593//593 647//647 648//648
f 593//593 648//648 594//594
f 594//594 648//648 649//649
f 594//594 649//649 595//595
f 595//595 649//649 650//650
f 595//595 650//650 596//596
f 596//596 650//650 651//651
f 596//596 651//651 597//597
f 597//597 651//651 652//652
f 597//597 652//652 598//598
f 598//598 652//652 653//653
f 598//598 653//653 599//599
f 599//599 653//653 654//654
f 599//599 654//654 600//600
f 600//600 654//654 655//655
f 600//600 655//655 601//601
f 601//601 655//655 656//656
f 601//601 656//656 602//602
f 602//602 656//656 657//657
f 602//602 657//657 603//603
f 603//603 657//657 658//658
f 603//603 658//658 604//604
f 604//604 658//658 659//659
f 604//604 659//659 605//605
f 605//605 659//659 660//660
f 605//605 660//660 606//606
f 606//606 660//660 661//661
f 606//606 661//661 607//607
f 607//607 661//661 662//662
f 607//607 662//662 608//608
f 608//608 662//662 663//663
f 608//608 663//663 609//609
f 609//609 663//663 664//664
f 609//609 664//664 610//610
f 610//610 664//664 665//665
f 610//610 665//665 611//611
f 611//611 665//665 666//666
f 611//611 666//666 612//612
f 612//612 666//666 667//667
f 612//612 667//667 613//613
f 613//613 667//667 668//668
f 613//613 668//668 614//614
f 614//614 668//668 669//669
f 614//614 669//669 615//615
f 615//615 669//669 670//670
f 615//615 670//670 616//616
f 616//616 670//670 671//671
f 616//616 671//671 617//617
f 617//617 671//671 672//672
f 617//617 672//672 618//618
f 618//618 672//672 673//673
f 618//618 673//673 619//619
f 619//619 673//673 674//674
f 619//619 674//674 620//620
f 620//620 674//674 675//675
f 620//620 675//675 621//621
f 621//621 675//675 676//676
f 621//621 676//676 622//622
f 622//622 676//676 677//677
f 622//622 677//677 623//623
f 623//623 677//677 678//678
f 623//623 678//678 624//624
f 624//624 678//678 679//679
f 624//624 679//679 625//625
f 625//625 679//679 680//680
f 625//625 680//680 626//626
f 626//626 680//680 681//681
f 626//626 681//681 627//627
f 627//627 681//681 682//682
f 627//627 682//682 628//628
f 628//628 682//682 683//683
f 628//628 683//683 629//629
f 629//629 683//683 684//684
f 629//629 684//684 630//630
f 630//630 684//684 685//685
f 630//630 685//685 631//631
f 631//631 685//685 686//686
f 631//631 686//686 632//632
f 632//632 686//686 687//687
f 632//632 687//687 633//633
f 633//633 687//687 688//688
f 633//633 688//688 634//634
f 634//634 688//688 689//689
f 634//634 689//689 635//635
f 635//635 689//689 690//690
f 635//635 690//690 636//636
f 636//636 690//690 691//691
f 636//636 691//691 637//637
f 637//637 691//691 692//692
f 637//637 692//692 638//638
f 638//638 692//692 639//639
f 638//638 639//639 585//585
