# Blender 4.0.2
# www.blender.org
o VLP16_scan
v 0.050800 -0.000137 0.053848
v 0.051465 -0.000139 0.015748
v 0.051106 0.006066 0.015748
v 0.050446 0.005987 0.053848
v 0.050003 0.012182 0.015748
v 0.049356 0.012024 0.053848
v 0.048170 0.018120 0.015748
v 0.047547 0.017886 0.053848
v 0.045634 0.023794 0.015748
v 0.045045 0.023486 0.053848
v 0.042434 0.029121 0.015748
v 0.041885 0.028745 0.053848
v 0.038614 0.034024 0.015748
v 0.038115 0.033584 0.053848
v 0.034231 0.038430 0.015748
v 0.033789 0.037933 0.053848
v 0.029350 0.042276 0.015748
v 0.028970 0.041730 0.053848
v 0.024040 0.045505 0.015748
v 0.023729 0.044917 0.053848
v 0.018380 0.048071 0.015748
v 0.018142 0.047450 0.053848
v 0.012451 0.049936 0.015748
v 0.012290 0.049291 0.053848
v 0.006341 0.051073 0.015748
v 0.006259 0.050413 0.053848
v 0.000139 0.051465 0.015748
v 0.000137 0.050800 0.053848
v -0.006066 0.051106 0.015748
v -0.005987 0.050446 0.053848
v -0.012182 0.050003 0.015748
v -0.012024 0.049356 0.053848
v -0.018120 0.048170 0.015748
v -0.017886 0.047547 0.053848
v -0.023794 0.045634 0.015748
v -0.023486 0.045045 0.053848
v -0.029121 0.042434 0.015748
v -0.028745 0.041885 0.053848
v -0.034024 0.038614 0.015748
v -0.033584 0.038115 0.053848
v -0.038430 0.034231 0.015748
v -0.037933 0.033789 0.053848
v -0.042276 0.029350 0.015748
v -0.041730 0.028970 0.053848
v -0.045505 0.024040 0.015748
v -0.044917 0.023729 0.053848
v -0.048071 0.018380 0.015748
v -0.047450 0.018142 0.053848
v -0.049936 0.012451 0.015748
v -0.049291 0.012290 0.053848
v -0.051073 0.006341 0.015748
v -0.050413 0.006259 0.053848
v -0.051465 0.000139 0.015748
v -0.050800 0.000137 0.053848
v -0.051106 -0.006066 0.015748
v -0.050446 -0.005987 0.053848
v -0.050003 -0.012182 0.015748
v -0.049356 -0.012024 0.053848
v -0.048170 -0.018120 0.015748
v -0.047547 -0.017886 0.053848
v -0.045634 -0.023794 0.015748
v -0.045045 -0.023486 0.053848
v -0.042434 -0.029121 0.015748
v -0.041885 -0.028745 0.053848
v -0.038614 -0.034024 0.015748
v -0.038115 -0.033584 0.053848
v -0.034231 -0.038430 0.015748
v -0.033789 -0.037933 0.053848
v -0.029350 -0.042276 0.015748
v -0.028970 -0.041730 0.053848
v -0.024040 -0.045505 0.015748
v -0.023729 -0.044917 0.053848
v -0.018380 -0.048071 0.015748
v -0.018142 -0.047450 0.053848
v -0.012451 -0.049936 0.015748
v -0.012290 -0.049291 0.053848
v -0.006341 -0.051073 0.015748
v -0.006259 -0.050413 0.053848
v -0.000139 -0.051465 0.015748
v -0.000137 -0.050800 0.053848
v 0.006066 -0.051106 0.015748
v 0.005987 -0.050446 0.053848
v 0.012182 -0.050003 0.015748
v 0.012024 -0.049356 0.053848
v 0.018120 -0.048170 0.015748
v 0.017886 -0.047547 0.053848
v 0.023794 -0.045634 0.015748
v 0.023486 -0.045045 0.053848
v 0.029121 -0.042434 0.015748
v 0.028745 -0.041885 0.053848
v 0.034024 -0.038614 0.015748
v 0.033584 -0.038115 0.053848
v 0.038430 -0.034231 0.015748
v 0.037933 -0.033789 0.053848
v 0.042276 -0.029350 0.015748
v 0.041730 -0.028970 0.053848
v 0.045505 -0.024040 0.015748
v 0.044917 -0.023729 0.053848
v 0.048071 -0.018380 0.015748
v 0.047450 -0.018142 0.053848
v 0.049936 -0.012451 0.015748
v 0.049291 -0.012290 0.053848
v 0.051073 -0.006341 0.015748
v 0.050413 -0.006259 0.053848
vn 0.9998 -0.0027 0.0175
vn 0.9929 0.1178 0.0175
vn 0.9714 0.2367 0.0175
vn 0.9358 0.3520 0.0175
vn 0.8866 0.4623 0.0175
vn 0.8244 0.5658 0.0175
vn 0.7502 0.6610 0.0175
vn 0.6650 0.7466 0.0175
vn 0.5702 0.8213 0.0175
vn 0.4670 0.8841 0.0175
vn 0.3571 0.9339 0.0175
vn 0.2419 0.9701 0.0175
vn 0.1232 0.9922 0.0175
vn 0.0027 0.9998 0.0175
vn -0.1178 0.9929 0.0175
vn -0.2367 0.9714 0.0175
vn -0.3520 0.9358 0.0175
vn -0.4623 0.8866 0.0175
vn -0.5658 0.8244 0.0175
vn -0.6610 0.7502 0.0175
vn -0.7466 0.6650 0.0175
vn -0.8213 0.5702 0.0175
vn -0.8841 0.4670 0.0175
vn -0.9339 0.3571 0.0175
vn -0.9701 0.2419 0.0175
vn -0.9922 0.1232 0.0175
vn -0.9998 0.0027 0.0175
vn -0.9929 -0.1178 0.0175
vn -0.9714 -0.2367 0.0175
vn -0.9358 -0.3520 0.0175
vn -0.8866 -0.4623 0.0175
vn -0.8244 -0.5658 0.0175
vn -0.7502 -0.6610 0.0175
vn -0.6650 -0.7466 0.0175
vn -0.5702 -0.8213 0.0175
vn -0.4670 -0.8841 0.0175
vn -0.3571 -0.9339 0.0175
vn -0.2419 -0.9701 0.0175
vn -0.1232 -0.9922 0.0175
vn -0.0027 -0.9998 0.0175
vn 0.1178 -0.9929 0.0175
vn 0.2367 -0.9714 0.0175
vn 0.3520 -0.9358 0.0175
vn 0.4623 -0.8866 0.0175
vn 0.5658 -0.8244 0.0175
vn 0.6610 -0.7502 0.0175
vn 0.7466 -0.6650 0.0175
vn 0.8213 -0.5702 0.0175
vn 0.8841 -0.4670 0.0175
vn 0.9339 -0.3571 0.0175
vn 0.9701 -0.2419 0.0175
vn 0.9922 -0.1232 0.0175
s 1
f 1//1 2//1 3//2
f 1//1 3//2 4//2
f 4//2 3//2 5//3
f 4//2 5//3 6//3
f 6//3 5//3 7//4
f 6//3 7//4 8//4
f 8//4 7//4 9//5
f 8//4 9//5 10//5
f 10//5 9//5 11//6
f 10//5 11//6 12//6
f 12//6 11//6 13//7
f 12//6 13//7 14//7
f 14//7 13//7 15//8
f 14//7 15//8 16//8
f 16//8 15//8 17//9
f 16//8 17//9 18//9
f 18//9 17//9 19//10
f 18//9 19//10 20//10
f 20//10 19//10 21//11
f 20//10 21//11 22//11
f 22//11 21//11 23//12
f 22//11 23//12 24//12
f 24//12 23//12 25//13
f 24//12 25//13 26//13
f 26//13 25//13 27//14
f 26//13 27//14 28//14
f 28//14 27//14 29//15
f 28//14 29//15 30//15
f 30//15 29//15 31//16
f 30//15 31//16 32//16
f 32//16 31//16 33//17
f 32//16 33//17 34//17
f 34//17 33//17 35//18
f 34//17 35//18 36//18
f 36//18 35//18 37//19
f 36//18 37//19 38//19
f 38//19 37//19 39//20
f 38//19 39//20 40//20
f 40//20 39//20 41//21
f 40//20 41//21 42//21
f 42//21 41//21 43//22
f 42//21 43//22 44//22
f 44//22 43//22 45//23
f 44//22 45//23 46//23
f 46//23 45//23 47//24
f 46//23 47//24 48//24
f 48//24 47//24 49//25
f 48//24 49//25 50//25
f 50//25 49//25 51//26
f 50//25 51//26 52//26
f 52//26 51//26 53//27
f 52//26 53//27 54//27
f 54//27 53//27 55//28
f 54//27 55//28 56//28
f 56//28 55//28 57//29
f 56//28 57//29 58//29
f 58//29 57//29 59//30
f 58//29 59//30 60//30
f 60//30 59//30 61//31
f 60//30 61//31 62//31
f 62//31 61//31 63//32
f 62//31 63//32 64//32
f 64//32 63//32 65//33
f 64//32 65//33 66//33
f 66//33 65//33 67//34
f 66//33 67//34 68//34
f 68//34 67//34 69//35
f 68//34 69//35 70//35
f 70//35 69//35 71//36
f 70//35 71//36 72//36
f 72//36 71//36 73//37
f 72//36 73//37 74//37
f 74//37 73//37 75//38
f 74//37 75//38 76//38
f 76//38 75//38 77//39
f 76//38 77//39 78//39
f 78//39 77//39 79//40
f 78//39 79//40 80//40
f 80//40 79//40 81//41
f 80//40 81//41 82//41
f 82//41 81//41 83//42
f 82//41 83//42 84//42
f 84//42 83//42 85//43
f 84//42 85//43 86//43
f 86//43 85//43 87//44
f 86//43 87//44 88//44
f 88//44 87//44 89//45
f 88//44 89//45 90//45
f 90//45 89//45 91//46
f 90//45 91//46 92//46
f 92//46 91//46 93//47
f 92//46 93//47 94//47
f 94//47 93//47 95//48
f 94//47 95//48 96//48
f 96//48 95//48 97//49
f 96//48 97//49 98//49
f 98//49 97//49 99//50
f 98//49 99//50 100//50
f 100//50 99//50 101//51
f 100//50 101//51 102//51
f 102//51 101//51 103//52
f 102//51 103//52 104//52
f 104//52 103//52 2//1
f 104//52 2//1 1//1
